<?xml version="1.0" standalone="no"?>
<!DOCTYPE svg PUBLIC "-//W3C//DTD SVG 20010904//EN"
 "http://www.w3.org/TR/2001/REC-SVG-20010904/DTD/svg10.dtd">
<svg version="1.0" xmlns="http://www.w3.org/2000/svg"
 width="288.000000pt" height="197.000000pt" viewBox="0 0 288.000000 197.000000"
 preserveAspectRatio="xMidYMid meet">
<metadata>
Created by potrace 1.16, written by Peter Selinger 2001-2019
</metadata>
<g transform="translate(0.000000,197.000000) scale(0.100000,-0.100000)"
fill="#000000" stroke="none">
<path d="M1835 1959 c-60 -4 -121 -11 -135 -14 -14 -3 -45 -8 -69 -10 -25 -2
-56 -9 -71 -15 -33 -13 -848 -19 -979 -6 -70 7 -92 6 -87 -2 5 -9 1 -9 -17 -3
-13 5 -113 7 -223 5 -170 -4 -201 -8 -212 -22 -10 -13 -11 -87 -7 -337 8 -477
8 -544 7 -987 -2 -374 -3 -408 -19 -408 -9 0 -13 -3 -10 -7 4 -3 2 -12 -4 -19
-21 -26 59 -31 441 -28 212 1 447 -3 524 -9 104 -8 143 -7 157 1 10 7 29 12
41 11 22 0 22 -1 3 -9 -12 -6 213 -9 575 -8 327 0 606 -2 619 -5 13 -4 31 -2
40 3 14 8 13 11 -6 16 -13 3 -20 10 -18 15 3 4 12 6 20 2 10 -3 15 2 15 16 0
12 6 21 15 21 8 0 15 4 15 10 0 5 6 7 13 4 8 -3 11 -18 9 -44 -3 -32 -1 -40
12 -40 9 0 16 -4 16 -9 0 -5 9 -11 20 -14 16 -4 20 0 20 18 0 18 -7 25 -30 30
-33 7 -35 12 -21 48 7 19 4 33 -13 62 -13 21 -21 46 -19 57 7 25 23 23 24 -4
l1 -23 7 23 c3 13 5 97 4 188 -1 121 2 171 12 191 12 23 11 41 -3 68 -11 19
-13 77 -3 89 16 19 19 192 4 189 -9 -2 -13 10 -13 35 0 27 3 33 10 22 17 -27
24 0 24 95 0 68 3 91 12 84 14 -12 34 235 39 504 3 109 7 202 9 206 3 5 3 11
-1 15 -9 9 -615 5 -748 -5z m105 -19 c0 -6 -23 -9 -52 -9 l-53 2 40 7 c60 11
65 11 65 0z m74 2 c2 -4 -6 -8 -20 -8 -13 0 -24 4 -24 8 0 4 9 8 19 8 11 0 22
-4 25 -8z m176 -1 c0 -11 -90 -19 -96 -9 -2 4 13 9 33 11 21 2 44 4 51 5 6 1
12 -2 12 -7z m-427 -8 c-7 -2 -21 -2 -30 0 -10 3 -4 5 12 5 17 0 24 -2 18 -5z
m712 -13 c3 -5 1 -10 -4 -10 -6 0 -11 5 -11 10 0 6 2 10 4 10 3 0 8 -4 11 -10z
m-475 -21 c0 -6 -4 -7 -10 -4 -5 3 -10 11 -10 16 0 6 5 7 10 4 6 -3 10 -11 10
-16z m120 1 c0 -5 -7 -7 -15 -4 -8 4 -15 8 -15 10 0 2 7 4 15 4 8 0 15 -4 15
-10z m-66 -15 c-5 -12 -10 -13 -20 -4 -19 15 -18 19 6 19 13 0 18 -5 14 -15z
m-164 -16 c0 -5 -4 -9 -10 -9 -5 0 -10 7 -10 16 0 8 5 12 10 9 6 -3 10 -10 10
-16z m-490 -3 c0 -3 -4 -8 -10 -11 -5 -3 -10 -1 -10 4 0 6 5 11 10 11 6 0 10
-2 10 -4z m433 -53 c-5 -12 -7 -12 -14 -1 -13 20 -11 28 5 22 8 -3 12 -12 9
-21z m-309 2 c3 -9 0 -15 -9 -15 -9 0 -12 6 -9 15 4 8 7 15 9 15 2 0 5 -7 9
-15z m1043 -92 c-3 -10 -5 -4 -5 12 0 17 2 24 5 18 2 -7 2 -21 0 -30z m-30
-25 c-3 -7 -5 -2 -5 12 0 14 2 19 5 13 2 -7 2 -19 0 -25z m-1297 -28 c11 -7 2
-10 -33 -10 -30 0 -46 4 -42 10 8 13 55 13 75 0z m350 0 c0 -5 -5 -10 -11 -10
-5 0 -7 5 -4 10 3 6 8 10 11 10 2 0 4 -4 4 -10z m947 -22 c-3 -7 -5 -2 -5 12
0 14 2 19 5 13 2 -7 2 -19 0 -25z m-1403 7 c-10 -8 -34 -15 -53 -15 -25 0 -32
-4 -27 -15 3 -8 1 -15 -4 -15 -6 0 -10 5 -10 10 0 15 -40 12 -46 -4 -3 -8 -13
-12 -23 -9 -11 3 -21 -2 -24 -11 -4 -11 -19 -16 -42 -16 -22 0 -34 4 -30 10 3
6 14 10 24 10 20 0 78 26 101 46 15 12 52 19 119 22 33 2 34 1 15 -13z m233
-9 c23 -7 45 -15 49 -19 4 -4 12 -7 18 -7 6 0 4 4 -4 10 -12 8 -12 10 2 15 10
4 26 -1 39 -14 14 -13 36 -21 58 -21 36 0 59 -12 136 -71 22 -16 52 -38 67
-48 51 -33 69 -66 71 -131 1 -35 -3 -65 -9 -71 -8 -6 -11 7 -13 43 -2 61 -5
66 -31 50 -25 -15 -27 -15 -33 2 -4 9 0 12 13 9 27 -7 33 14 8 31 -12 9 -17
16 -11 16 6 0 13 6 16 14 6 14 -73 70 -160 114 -49 26 -130 41 -119 24 11 -18
-59 -15 -74 3 -7 8 -15 13 -19 11 -4 -3 -24 -1 -44 4 -28 6 -37 5 -37 -5 0
-15 -51 -30 -59 -17 -3 5 -13 12 -21 15 -8 3 -1 6 17 6 23 1 31 5 27 15 -7 18
36 48 56 40 8 -4 34 -12 57 -18z m530 -16 c42 -25 57 -54 43 -80 -8 -15 -7
-26 7 -47 15 -23 18 -52 19 -187 1 -159 -8 -226 -32 -226 -6 0 -14 -14 -18
-30 -6 -32 -52 -100 -67 -100 -4 0 8 39 28 88 38 95 50 142 36 142 -5 0 -22
-37 -37 -82 -30 -87 -68 -158 -73 -141 -2 6 10 38 27 71 42 84 87 263 82 329
-2 29 -7 51 -10 49 -4 -2 -8 24 -9 58 -2 67 -20 136 -36 136 -26 0 -117 -36
-117 -47 0 -14 -15 -11 -62 12 -37 18 -55 43 -22 31 8 -3 30 2 47 11 67 35
149 41 194 13z m110 -52 c-3 -7 -5 -2 -5 12 0 14 2 19 5 13 2 -7 2 -19 0 -25z
m-1367 12 c-8 -5 -22 -10 -30 -10 -13 0 -13 1 0 10 8 5 22 10 30 10 13 0 13
-1 0 -10z m539 -8 c3 -5 29 -11 56 -13 28 -2 53 -8 56 -13 4 -5 64 -9 133 -10
69 -1 126 -4 126 -8 0 -5 8 -8 17 -8 15 0 14 -2 -3 -15 -19 -14 -19 -15 3 -21
13 -4 20 -11 16 -20 -3 -9 2 -14 16 -14 11 0 26 -10 33 -22 15 -29 19 -50 7
-42 -5 3 -9 0 -9 -6 0 -6 -17 -18 -37 -27 -59 -24 -93 -33 -93 -22 0 5 9 9 20
9 11 0 20 6 20 14 0 9 16 17 42 21 32 6 38 9 25 17 -27 15 -112 -2 -142 -28
-31 -27 -44 -31 -26 -10 10 12 6 12 -26 1 -53 -19 -88 -39 -90 -53 -2 -7 4
-12 13 -12 8 0 13 3 11 8 -3 4 23 8 57 9 33 1 56 -1 49 -3 -7 -3 -9 -12 -6
-20 3 -9 -5 -18 -22 -24 -39 -15 -57 -5 -20 11 26 11 27 13 9 16 -11 2 -33 -1
-49 -7 -23 -9 -26 -13 -15 -20 13 -8 12 -10 -2 -10 -9 0 -26 -12 -37 -26 -18
-23 -21 -24 -21 -8 0 11 -3 15 -8 8 -14 -21 -128 -39 -152 -24 -19 12 2 36 38
43 71 13 122 33 122 47 0 5 -7 10 -15 10 -8 0 -15 -4 -15 -9 0 -5 -9 -11 -20
-14 -11 -3 -20 -1 -20 5 0 5 -9 6 -20 3 -30 -9 -25 14 5 25 22 8 24 14 19 37
-4 16 -8 30 -10 32 -2 2 -43 -1 -91 -6 -53 -7 -96 -7 -111 -2 -13 5 -29 6 -35
2 -7 -4 -34 -8 -62 -9 l-50 -2 40 18 c22 10 57 19 77 19 20 1 40 5 43 11 3 6
-1 7 -9 4 -12 -4 -16 0 -16 15 0 12 -7 24 -15 27 -22 9 -18 24 5 24 21 0 34
32 28 66 -2 13 5 20 30 25 25 5 32 4 28 -6 -2 -7 4 -15 14 -18 11 -3 21 1 24
10 4 11 2 13 -9 9 -16 -6 -20 5 -8 18 10 10 74 0 82 -12z m968 -94 c-2 -24 -4
-7 -4 37 0 44 2 63 4 43 2 -21 2 -57 0 -80z m-1827 92 c0 -5 -5 -10 -11 -10
-5 0 -7 5 -4 10 3 6 8 10 11 10 2 0 4 -4 4 -10z m440 -45 c-19 -19 -41 -35
-50 -35 -9 0 -25 -8 -36 -18 -10 -10 -26 -16 -36 -14 -9 2 -19 -2 -23 -7 -3
-6 -12 -11 -20 -11 -17 0 -81 -59 -87 -80 -3 -10 -6 -7 -10 8 -5 17 2 30 25
52 18 17 40 33 50 36 9 3 17 10 17 15 0 5 7 9 15 9 9 0 38 11 66 25 27 14 55
23 62 19 7 -4 8 -3 4 1 -4 5 3 15 15 22 40 22 43 14 8 -22z m1679 3 c0 -27 -2
-29 -8 -13 -5 11 -6 26 -4 33 8 21 13 13 12 -20z m48 -55 c-2 -16 -4 -5 -4 22
0 28 2 40 4 28 2 -13 2 -35 0 -50z m-1522 48 c-14 -12 -75 -22 -75 -11 0 10
23 17 60 19 14 1 20 -3 15 -8z m1562 -38 c-3 -10 -5 -4 -5 12 0 17 2 24 5 18
2 -7 2 -21 0 -30z m-2182 7 c3 -5 1 -10 -4 -10 -6 0 -11 5 -11 10 0 6 2 10 4
10 3 0 8 -4 11 -10z m45 0 c0 -5 -4 -10 -10 -10 -5 0 -10 5 -10 10 0 6 5 10
10 10 6 0 10 -4 10 -10z m1290 -15 c14 -8 19 -14 12 -15 -7 0 -10 -4 -7 -10 9
-15 -2 -12 -30 6 -14 9 -22 20 -19 25 7 12 14 11 44 -6z m-1190 -9 c0 -2 -7
-7 -16 -10 -8 -3 -12 -2 -9 4 6 10 25 14 25 6z m310 -3 c-1 -19 -20 -36 -45
-39 -39 -4 -57 -12 -51 -23 5 -8 -45 -23 -52 -16 -2 1 14 13 35 26 21 13 40
26 43 29 6 7 52 28 63 29 4 1 7 -2 7 -6z m1217 -15 c-3 -8 -6 -5 -6 6 -1 11 2
17 5 13 3 -3 4 -12 1 -19z m260 -60 c0 -40 -2 -47 -8 -28 -10 36 -11 92 0 86
5 -3 8 -29 8 -58z m250 5 c-3 -10 -5 -4 -5 12 0 17 2 24 5 18 2 -7 2 -21 0
-30z m-2140 -20 c-3 -10 -5 -4 -5 12 0 17 2 24 5 18 2 -7 2 -21 0 -30z m-317
-19 c0 -14 -4 -22 -10 -19 -5 3 -10 17 -10 31 0 14 4 22 10 19 6 -3 10 -17 10
-31z m377 14 c-3 -8 -6 -5 -6 6 -1 11 2 17 5 13 3 -3 4 -12 1 -19z m567 -26
c20 -11 -25 -22 -89 -20 -50 1 -58 3 -26 5 24 3 50 11 58 18 12 13 30 12 57
-3z m636 -2 c0 -5 -6 -10 -13 -10 -7 0 -22 -7 -33 -15 -18 -14 -17 -15 8 -5
31 11 49 -4 21 -18 -11 -5 -36 -3 -63 4 -25 7 -36 13 -25 14 11 0 36 9 55 20
40 22 50 24 50 10z m-1250 -9 c0 -6 -4 -13 -10 -16 -5 -3 -10 1 -10 9 0 9 5
16 10 16 6 0 10 -4 10 -9z m60 -36 c0 -8 -4 -15 -10 -15 -5 0 -10 7 -10 15 0
8 5 15 10 15 6 0 10 -7 10 -15z m65 -24 c2 -11 0 -21 -6 -21 -5 0 -9 12 -9 27
0 30 9 27 15 -6z m992 23 c-3 -3 -12 -4 -19 -1 -8 3 -5 6 6 6 11 1 17 -2 13
-5z m980 -86 c-2 -18 -4 -4 -4 32 0 36 2 50 4 33 2 -18 2 -48 0 -65z m-644 42
c3 -11 1 -18 -4 -14 -5 3 -9 12 -9 20 0 20 7 17 13 -6z m-288 0 c-3 -5 -12
-10 -18 -10 -7 0 -6 4 3 10 19 12 23 12 15 0z m-525 -15 c-7 -8 -27 -15 -44
-15 l-31 1 25 14 c14 8 33 14 44 15 15 0 16 -3 6 -15z m730 7 c0 -4 -7 -17
-15 -30 -12 -16 -13 -27 -5 -41 13 -25 13 -111 0 -111 -5 0 -10 -17 -10 -37 0
-21 -4 -44 -9 -51 -4 -7 -6 32 -3 87 3 68 1 101 -6 101 -6 0 -13 -8 -15 -17
-4 -14 -5 -12 -6 5 -1 14 -7 22 -18 22 -10 1 -3 7 16 15 22 10 31 20 27 30 -3
8 2 19 12 24 21 13 32 14 32 3z m-1141 -46 c20 -14 45 -26 54 -26 9 0 26 -9
37 -20 13 -13 29 -18 49 -15 18 2 35 -2 42 -11 6 -8 20 -14 30 -14 10 0 20 -4
23 -9 3 -5 23 -11 43 -14 21 -3 65 -12 98 -21 41 -11 85 -14 137 -11 58 4 80
2 91 -9 9 -9 19 -11 28 -5 8 5 43 9 78 9 47 0 78 7 115 24 28 13 68 27 89 31
20 4 41 12 45 19 4 6 21 16 39 22 55 20 58 -3 46 -343 -6 -162 -14 -297 -17
-300 -13 -13 -14 5 -5 86 5 46 7 86 4 89 -13 13 -20 -15 -23 -86 -1 -42 -5
-87 -7 -99 -7 -28 -64 -84 -112 -109 -21 -10 -46 -26 -57 -34 -18 -14 -18 -13
-12 20 3 19 11 71 18 114 l11 80 14 -55 c16 -61 39 -102 56 -96 18 6 19 25 1
23 -40 -3 -66 177 -44 300 6 38 20 112 31 164 10 52 16 96 14 99 -9 9 -18 -9
-20 -43 -2 -19 -8 -58 -14 -88 -5 -29 -12 -66 -15 -83 -2 -16 -9 -43 -15 -58
-6 -16 -11 -51 -11 -79 0 -47 -8 -109 -32 -236 -10 -56 -27 -70 -107 -85 -29
-6 -32 -5 -26 11 3 9 8 31 11 47 2 17 -3 8 -12 -20 -9 -27 -18 -52 -20 -54 -2
-3 -27 -7 -54 -11 -49 -6 -49 -6 -64 29 l-15 36 3 -42 c4 -52 27 -78 55 -63
35 18 37 10 4 -11 -30 -19 -34 -20 -49 -4 -9 9 -21 14 -28 12 -6 -2 -17 3 -24
12 -11 14 -11 14 -6 -1 3 -10 1 -18 -5 -18 -6 0 -10 3 -10 8 4 23 -4 32 -26
32 -33 0 -81 25 -89 45 -3 9 -6 28 -6 41 0 13 -4 24 -10 24 -11 0 -3 -54 12
-84 15 -28 -3 -37 -47 -22 -61 21 -67 56 -62 366 2 140 1 201 -2 135 -5 -108
-7 -115 -14 -69 -5 27 -7 54 -5 60 2 5 -1 9 -6 9 -10 0 -9 -99 2 -143 4 -15 7
-84 7 -154 0 -71 3 -128 6 -128 4 0 9 -14 11 -31 l5 -31 -43 5 c-47 5 -124 60
-124 89 0 9 -3 19 -7 21 -5 3 -5 65 -1 139 9 191 11 450 3 471 -4 10 -13 16
-19 14 -18 -6 -19 -37 -1 -57 16 -18 16 -40 5 -302 -7 -156 -14 -285 -16 -287
-2 -2 -9 1 -16 7 -10 8 -12 66 -6 274 7 275 3 408 -14 408 -7 0 -8 -26 -3 -72
3 -40 3 -186 -1 -325 -6 -234 -8 -251 -24 -241 -21 14 -43 48 -36 56 4 3 13
-3 21 -14 8 -10 15 -14 16 -9 1 6 1 168 0 360 l-2 350 -29 6 c-33 7 -42 -6
-10 -14 11 -3 20 -13 20 -23 0 -16 -1 -16 -18 -1 -10 10 -22 14 -25 10 -4 -3
-7 0 -7 8 0 8 -3 24 -6 36 -6 20 -4 21 31 13 20 -4 53 -20 74 -34z m-153 4
c-1 -16 -5 -28 -11 -27 -5 2 -9 7 -7 10 1 4 2 16 2 27 0 11 4 20 9 20 4 0 8
-13 7 -30z m815 -37 c-8 -15 -10 -15 -11 -2 0 17 10 32 18 25 2 -3 -1 -13 -7
-23z m89 23 c0 -3 -4 -8 -10 -11 -5 -3 -10 -1 -10 4 0 6 5 11 10 11 6 0 10 -2
10 -4z m1100 -11 c0 -8 -4 -15 -10 -15 -5 0 -7 7 -4 15 4 8 8 15 10 15 2 0 4
-7 4 -15z m-1524 -32 c-3 -3 -13 -2 -23 2 -17 7 -17 8 2 15 19 7 34 -5 21 -17z
m887 12 c-3 -9 -8 -14 -10 -11 -3 3 -2 9 2 15 9 16 15 13 8 -4z m654 -57 c-2
-13 -4 -3 -4 22 0 25 2 35 4 23 2 -13 2 -33 0 -45z m-2010 -110 c-2 -29 -3 -6
-3 52 0 58 1 81 3 53 2 -29 2 -77 0 -105z m96 -93 c-2 -104 -6 -191 -9 -194
-2 -2 -3 97 -3 220 1 123 4 211 8 194 4 -16 5 -115 4 -220z m972 235 c3 -5 -3
-10 -15 -10 -12 0 -18 5 -15 10 3 6 10 10 15 10 5 0 12 -4 15 -10z m925 -21
c0 -11 -4 -17 -10 -14 -5 3 -10 15 -10 26 0 11 5 17 10 14 6 -3 10 -15 10 -26z
m-1934 -112 c3 -75 1 -118 -6 -122 -6 -4 -10 8 -11 32 0 21 -1 61 -1 88 -4
162 11 164 18 2z m474 113 c0 -5 -7 -10 -15 -10 -8 0 -15 5 -15 10 0 6 7 10
15 10 8 0 15 -4 15 -10z m197 -5 c1 -5 -11 -11 -27 -12 -19 -1 -30 3 -30 10 0
15 52 17 57 2z m96 4 c-12 -11 -72 -18 -78 -10 -8 13 2 17 45 17 22 0 37 -3
33 -7z m125 4 c-10 -2 -26 -2 -35 0 -10 3 -2 5 17 5 19 0 27 -2 18 -5z m559
-65 c-3 -8 -6 -5 -6 6 -1 11 2 17 5 13 3 -3 4 -12 1 -19z m480 -20 c-3 -8 -6
-5 -6 6 -1 11 2 17 5 13 3 -3 4 -12 1 -19z m-450 -100 c-3 -7 -5 -2 -5 12 0
14 2 19 5 13 2 -7 2 -19 0 -25z m-295 -43 c-2 -19 -6 -35 -8 -35 -2 0 -4 16
-4 35 0 19 4 35 8 35 4 0 6 -16 4 -35z m25 -12 c-3 -10 -5 -4 -5 12 0 17 2 24
5 18 2 -7 2 -21 0 -30z m270 -100 c-2 -27 -3 -5 -3 47 0 52 1 74 3 48 2 -27 2
-69 0 -95z m-130 90 c-3 -10 -5 -4 -5 12 0 17 2 24 5 18 2 -7 2 -21 0 -30z
m50 5 c-3 -7 -5 -2 -5 12 0 14 2 19 5 13 2 -7 2 -19 0 -25z m-1392 -266 c-10
-10 -23 133 -17 183 6 56 7 53 13 -60 4 -66 6 -121 4 -123z m1392 206 c-3 -8
-6 -5 -6 6 -1 11 2 17 5 13 3 -3 4 -12 1 -19z m-150 -20 c-3 -8 -6 -5 -6 6 -1
11 2 17 5 13 3 -3 4 -12 1 -19z m-57 -75 c-9 -15 -10 -12 -6 16 3 18 7 43 8
55 1 11 3 4 5 -16 2 -21 -1 -46 -7 -55z m497 65 c-3 -8 -6 -5 -6 6 -1 11 2 17
5 13 3 -3 4 -12 1 -19z m-290 -80 c-2 -18 -4 -6 -4 27 0 33 2 48 4 33 2 -15 2
-42 0 -60z m250 -10 c-3 -8 -6 -5 -6 6 -1 11 2 17 5 13 3 -3 4 -12 1 -19z
m-469 -25 c-15 -34 -28 -51 -28 -35 0 18 22 62 31 62 5 0 3 -12 -3 -27z
m-1141 -35 c-2 -13 -4 -5 -4 17 -1 22 1 32 4 23 2 -10 2 -28 0 -40z m1354
-173 c-9 -66 -10 -64 -6 40 3 61 5 112 7 115 7 19 7 -98 -1 -155z m76 73 c-2
-13 -4 -5 -4 17 -1 22 1 32 4 23 2 -10 2 -28 0 -40z m-132 -155 c-4 -82 -10
-151 -13 -155 -4 -4 -4 52 -1 125 4 73 7 142 8 155 1 12 4 22 7 22 3 0 3 -66
-1 -147z m285 126 c0 -5 -7 -9 -15 -9 -15 0 -20 12 -9 23 8 8 24 -1 24 -14z
m-1943 -56 c-3 -10 -5 -2 -5 17 0 19 2 27 5 18 2 -10 2 -26 0 -35z m2223 37
c0 -5 -4 -10 -10 -10 -5 0 -10 5 -10 10 0 6 5 10 10 10 6 0 10 -4 10 -10z
m-348 -140 c5 -36 -7 -50 -16 -17 -8 31 -7 47 3 47 5 0 11 -14 13 -30z m342
-5 c-4 -8 -7 -15 -9 -15 -2 0 -5 7 -9 15 -3 9 0 15 9 15 9 0 12 -6 9 -15z
m-2077 -37 c-3 -8 -6 -5 -6 6 -1 11 2 17 5 13 3 -3 4 -12 1 -19z m377 6 c3 -8
2 -12 -4 -9 -6 3 -10 10 -10 16 0 14 7 11 14 -7z m670 1 c-10 -8 -30 -14 -44
-15 l-25 0 25 14 c14 8 34 14 44 15 20 1 20 1 0 -14z m912 -40 c0 -25 -3 -45
-8 -45 -4 0 -8 20 -8 45 0 59 15 59 16 0z m-399 3 c-3 -8 -6 -5 -6 6 -1 11 2
17 5 13 3 -3 4 -12 1 -19z m-627 8 c0 -2 -9 -6 -20 -9 -11 -3 -20 -1 -20 4 0
5 9 9 20 9 11 0 20 -2 20 -4z m-268 -28 c-6 -6 -16 -7 -22 -3 -9 6 -9 9 1 16
17 10 34 0 21 -13z m985 0 c-3 -8 -6 -5 -6 6 -1 11 2 17 5 13 3 -3 4 -12 1
-19z m123 11 c0 -5 -4 -7 -10 -4 -6 4 -10 -5 -10 -19 0 -14 -3 -26 -7 -26 -5
0 -8 14 -8 30 0 22 5 30 18 30 9 0 17 -5 17 -11z m-200 -24 c-7 -9 -15 -13
-18 -10 -3 2 1 11 8 20 7 9 15 13 18 10 3 -2 -1 -11 -8 -20z m-1233 -27 c-3
-7 -5 -2 -5 12 0 14 2 19 5 13 2 -7 2 -19 0 -25z m417 -7 c3 -5 -1 -11 -9 -15
-9 -3 -15 0 -15 9 0 16 16 20 24 6z m928 -13 c-6 -21 -7 -21 -10 -4 -3 15 -6
16 -13 5 -7 -11 -9 -11 -9 4 0 10 8 17 19 17 15 0 18 -5 13 -22z m412 7 c-4
-8 -8 -15 -10 -15 -2 0 -4 7 -4 15 0 8 4 15 10 15 5 0 7 -7 4 -15z m-539 -34
c-3 -6 -11 -8 -17 -5 -6 4 -5 9 3 15 16 10 23 4 14 -10z m99 -20 c6 -9 34 -8
72 4 13 4 27 1 36 -8 11 -12 37 -15 99 -15 122 1 139 -1 139 -12 0 -7 -30 -9
-87 -5 -73 5 -165 9 -285 14 -11 1 -15 6 -12 16 7 17 30 20 38 6z m-584 -25
c0 -2 -7 -6 -15 -10 -8 -3 -15 -1 -15 4 0 6 7 10 15 10 8 0 15 -2 15 -4z"/>
<path d="M1757 1441 c3 -12 9 -21 14 -21 14 0 11 16 -5 29 -12 10 -13 8 -9 -8z"/>
<path d="M1266 1525 c-11 -8 -15 -15 -9 -15 19 0 43 12 43 21 0 13 -12 11 -34
-6z"/>
<path d="M1505 1520 c-3 -5 3 -10 14 -10 12 0 21 5 21 10 0 6 -6 10 -14 10 -8
0 -18 -4 -21 -10z"/>
<path d="M1078 1497 c-38 -11 -68 -24 -68 -29 0 -14 60 -9 66 6 3 9 12 12 21
9 11 -4 14 -2 9 5 -9 14 3 15 24 2 11 -7 11 -10 2 -10 -7 0 -10 -4 -7 -10 12
-19 21 -10 20 20 0 17 0 30 0 29 0 0 -30 -10 -67 -22z"/>
<path d="M1368 1513 c-10 -2 -18 -8 -18 -13 0 -5 -14 -11 -31 -15 -17 -4 -28
-9 -25 -12 10 -10 106 21 106 34 0 13 -3 14 -32 6z"/>
<path d="M1235 1461 c-11 -5 -53 -14 -92 -21 -40 -6 -73 -16 -73 -22 0 -6 6
-8 13 -5 8 3 39 8 71 12 31 4 59 11 62 16 3 5 14 9 25 9 10 0 19 5 19 10 0 6
-1 10 -2 9 -2 0 -12 -4 -23 -8z"/>
<path d="M1433 1444 c-18 -8 -33 -22 -33 -31 0 -9 -3 -13 -7 -9 -5 4 -8 12 -8
17 0 5 -4 8 -10 7 -5 -2 -9 -9 -9 -15 1 -7 -1 -11 -5 -9 -3 2 -12 -2 -19 -10
-11 -12 -9 -14 12 -14 31 0 77 20 71 31 -3 4 0 11 6 15 8 5 9 3 4 -5 -5 -9 -2
-12 11 -9 11 2 18 10 17 16 -2 7 6 12 18 12 11 0 18 -3 16 -7 -3 -5 8 -8 23
-8 15 0 26 3 23 8 -2 4 2 7 9 8 21 2 -35 17 -62 17 -14 0 -40 -6 -57 -14z"/>
<path d="M1240 1349 c0 -5 5 -7 10 -4 6 3 10 8 10 11 0 2 -4 4 -10 4 -5 0 -10
-5 -10 -11z"/>
<path d="M1650 1110 c0 -5 5 -10 11 -10 5 0 7 5 4 10 -3 6 -8 10 -11 10 -2 0
-4 -4 -4 -10z"/>
<path d="M724 1085 c-4 -9 -2 -26 3 -38 10 -22 9 -152 -2 -488 -5 -165 -5
-167 17 -172 31 -9 44 4 22 20 -18 13 -19 29 -15 347 2 237 0 336 -8 340 -6 4
-14 0 -17 -9z"/>
<path d="M1135 1040 c-3 -5 -1 -10 4 -10 6 0 11 5 11 10 0 6 -2 10 -4 10 -3 0
-8 -4 -11 -10z"/>
<path d="M1606 1019 c-3 -16 -8 -123 -11 -237 -4 -114 -9 -218 -12 -232 -4
-14 -8 -32 -9 -40 -1 -8 -5 -24 -9 -35 -4 -11 2 -6 13 11 20 31 26 61 37 172
3 30 7 57 9 61 5 7 36 234 36 259 0 7 -4 11 -8 8 -5 -3 -14 -58 -21 -123 -18
-171 -21 -168 -15 20 2 92 3 167 0 167 -2 0 -6 -14 -10 -31z"/>
<path d="M1390 1009 c0 -17 4 -28 10 -24 6 3 10 17 10 31 0 13 -4 24 -10 24
-5 0 -10 -14 -10 -31z"/>
<path d="M973 994 c-3 -8 -1 -25 5 -37 10 -20 11 -18 11 16 1 39 -5 48 -16 21z"/>
<path d="M780 993 c0 -4 -1 -136 -4 -293 -4 -315 8 -269 19 73 5 151 4 217 -4
221 -6 4 -11 4 -11 -1z"/>
<path d="M1059 984 c-8 -89 -8 -115 3 -112 8 3 11 23 9 59 -2 47 -9 79 -12 53z"/>
<path d="M1165 940 c-3 -5 1 -10 9 -10 9 0 16 5 16 10 0 6 -4 10 -9 10 -6 0
-13 -4 -16 -10z"/>
<path d="M1381 931 c-10 -6 -12 -19 -7 -46 4 -20 3 -42 -3 -48 -12 -15 -33
-234 -25 -264 12 -45 24 -10 24 69 0 44 7 125 16 180 17 107 16 122 -5 109z"/>
<path d="M1270 919 c0 -5 5 -7 10 -4 6 3 10 8 10 11 0 2 -4 4 -10 4 -5 0 -10
-5 -10 -11z"/>
<path d="M970 883 c0 -24 3 -33 9 -25 7 12 4 62 -5 62 -2 0 -4 -17 -4 -37z"/>
<path d="M1042 790 c0 -14 2 -19 5 -12 2 6 2 18 0 25 -3 6 -5 1 -5 -13z"/>
<path d="M962 765 c0 -16 2 -22 5 -12 2 9 2 23 0 30 -3 6 -5 -1 -5 -18z"/>
<path d="M1228 710 c-7 -24 -3 -38 8 -28 3 4 4 17 2 30 l-3 23 -7 -25z"/>
<path d="M951 704 c0 -11 3 -14 6 -6 3 7 2 16 -1 19 -3 4 -6 -2 -5 -13z"/>
<path d="M1030 656 c0 -20 2 -36 4 -36 8 0 12 61 4 66 -4 3 -8 -11 -8 -30z"/>
<path d="M1122 665 c0 -16 2 -22 5 -12 2 9 2 23 0 30 -3 6 -5 -1 -5 -18z"/>
<path d="M1030 531 c0 -42 4 -70 9 -66 9 5 4 124 -5 134 -2 2 -4 -28 -4 -68z"/>
<path d="M1123 550 c0 -30 2 -43 4 -27 2 15 2 39 0 55 -2 15 -4 2 -4 -28z"/>
<path d="M942 570 c0 -14 2 -19 5 -12 2 6 2 18 0 25 -3 6 -5 1 -5 -13z"/>
<path d="M1242 545 c0 -16 2 -22 5 -12 2 9 2 23 0 30 -3 6 -5 -1 -5 -18z"/>
<path d="M1332 540 c-1 -19 -4 -53 -7 -75 l-5 -40 11 33 c5 19 8 53 6 75 -3
40 -4 40 -5 7z"/>
<path d="M1130 449 c0 -22 4 -38 8 -35 8 5 4 76 -4 76 -2 0 -4 -18 -4 -41z"/>
<path d="M931 454 c0 -11 3 -14 6 -6 3 7 2 16 -1 19 -3 4 -6 -2 -5 -13z"/>
<path d="M1051 404 c0 -11 3 -14 6 -6 3 7 2 16 -1 19 -3 4 -6 -2 -5 -13z"/>
<path d="M1061 369 c-1 -9 8 -27 19 -40 10 -13 19 -18 20 -11 0 6 -4 12 -9 12
-5 0 -14 12 -19 28 -6 15 -11 20 -11 11z"/>
<path d="M1313 1933 c9 -2 23 -2 30 0 6 3 -1 5 -18 5 -16 0 -22 -2 -12 -5z"/>
</g>
</svg>
