<?xml version="1.0" standalone="no"?>
<!DOCTYPE svg PUBLIC "-//W3C//DTD SVG 20010904//EN"
 "http://www.w3.org/TR/2001/REC-SVG-20010904/DTD/svg10.dtd">
<svg version="1.0" xmlns="http://www.w3.org/2000/svg"
 width="303.000000pt" height="402.000000pt" viewBox="0 0 303.000000 402.000000"
 preserveAspectRatio="xMidYMid meet">
<metadata>
Created by potrace 1.16, written by Peter Selinger 2001-2019
</metadata>
<g transform="translate(0.000000,402.000000) scale(0.100000,-0.100000)"
fill="#000000" stroke="none">
<path d="M657 4004 c-4 -4 -124 -8 -268 -10 -143 -1 -264 -6 -268 -9 -3 -4 -6
-120 -7 -258 0 -139 -6 -304 -12 -367 -11 -105 -16 -240 -38 -1060 -4 -146 -8
-402 -8 -570 -1 -301 -7 -381 -30 -409 -8 -11 -8 -15 1 -18 8 -3 10 -67 7
-239 -2 -129 -6 -239 -9 -244 -3 -5 -6 -163 -6 -351 0 -248 3 -344 11 -349 6
-4 109 -8 228 -9 154 -2 219 -6 224 -14 6 -9 8 -9 8 1 0 10 37 13 176 11 97
-1 186 -4 196 -7 11 -2 23 -14 28 -26 8 -21 8 -20 20 4 l11 26 142 -3 c78 -1
162 -5 187 -9 25 -3 236 -10 470 -15 468 -11 551 -15 562 -33 5 -7 8 -6 8 4 0
12 2 13 9 1 7 -11 11 -9 21 8 8 15 17 20 28 16 9 -4 78 -11 152 -16 366 -26
440 -24 440 11 0 10 -5 20 -11 22 -9 3 -9 10 -2 23 6 12 13 207 17 495 4 261
11 601 17 755 5 154 8 377 5 495 -2 147 0 224 8 245 8 21 10 101 7 260 -7 375
-5 1053 4 1307 10 280 5 303 -54 294 -35 -5 -102 -12 -209 -21 -29 -3 -124 2
-212 10 -121 11 -191 12 -301 4 -178 -12 -195 -12 -239 -3 -19 4 -152 8 -295
9 -337 3 -666 19 -692 34 -23 12 -315 16 -326 5z m-342 -94 c-4 -6 -28 -21
-55 -35 l-48 -24 -6 25 c-10 37 0 44 60 44 35 0 53 -4 49 -10z m83 -3 c6 -7
12 -35 15 -62 3 -48 3 -48 5 13 2 55 4 62 22 62 16 0 20 -7 22 -37 0 -21 0
-46 0 -56 -1 -10 3 -15 8 -12 6 3 10 1 10 -4 0 -17 30 -13 36 4 4 8 13 15 20
15 8 0 29 16 46 35 17 20 40 40 50 46 18 10 19 8 13 -13 -7 -22 -7 -23 13 -5
14 13 32 17 63 15 l44 -3 -81 -28 c-45 -15 -90 -35 -100 -43 -19 -15 -19 -15
1 -10 47 12 168 56 179 65 11 9 566 16 566 7 0 -2 -15 -13 -33 -24 -24 -13
-39 -17 -50 -10 -26 14 -92 -31 -72 -50 4 -4 10 -1 12 6 8 21 43 35 58 22 10
-8 25 -3 64 21 37 23 54 29 63 21 9 -7 19 -6 32 4 26 18 65 18 72 -1 10 -24
74 -16 74 9 0 10 17 12 63 7 4 -1 7 -10 7 -21 0 -17 6 -20 38 -19 l37 1 -32 9
c-18 5 -33 16 -33 23 0 12 7 12 38 3 20 -6 38 -12 40 -13 2 -1 -6 -25 -19 -53
-16 -39 -27 -51 -43 -51 -12 0 -27 5 -32 10 -21 21 -86 22 -108 2 -12 -10 -37
-28 -57 -40 -19 -12 -44 -31 -54 -43 -19 -20 -68 -140 -61 -147 5 -5 95 61 95
71 1 4 -13 0 -30 -9 -30 -15 -31 -15 -25 1 3 9 6 25 6 35 0 11 18 31 41 47 23
15 56 41 74 56 41 34 65 31 143 -19 7 -5 -59 -124 -69 -124 -6 0 -9 -6 -6 -12
4 -12 -79 -183 -121 -250 -15 -24 -15 -31 -3 -60 7 -18 13 -40 13 -48 -2 -59
-10 -149 -16 -168 l-8 -23 -27 30 c-17 18 -43 32 -67 36 -21 4 -59 16 -84 27
l-44 20 29 13 30 13 -32 1 c-22 1 -33 6 -33 16 0 9 -9 15 -25 15 -43 0 -31
-33 23 -64 26 -14 54 -31 62 -35 8 -5 35 -15 60 -22 73 -22 137 -108 73 -97
-16 3 -36 9 -45 13 -14 5 -18 2 -18 -14 0 -19 -3 -20 -20 -11 -30 16 -105 9
-105 -10 0 -8 -8 -16 -19 -18 -15 -3 -18 0 -12 21 7 30 -2 34 -80 29 -45 -3
-53 -7 -56 -25 -4 -28 -32 -28 -36 0 -2 17 -11 22 -43 25 -22 2 -44 -1 -49 -6
-7 -7 -10 1 -10 21 0 17 5 33 11 35 7 2 7 34 0 107 -6 57 -11 114 -11 127 l0
23 34 -20 c19 -11 48 -24 66 -29 27 -8 30 -7 20 5 -7 8 -16 15 -21 15 -15 0
-109 63 -109 74 -2 65 -16 135 -29 152 -18 23 -17 94 0 94 5 0 9 6 9 13 0 7
-17 13 -46 13 -42 2 -44 1 -25 -13 16 -11 21 -24 20 -56 l-1 -42 -21 45 c-15
32 -22 40 -25 27 -2 -10 6 -34 17 -53 20 -34 20 -38 6 -80 -8 -25 -15 -51 -15
-59 0 -22 -13 -18 -44 14 -21 21 -36 28 -63 28 -40 -1 -42 2 -68 76 -9 26 -20
47 -25 47 -8 0 -8 -13 3 -40 3 -8 11 -33 17 -54 12 -38 12 -39 -26 -72 -22
-19 -55 -38 -74 -44 -19 -5 -44 -16 -55 -23 -11 -8 -35 -19 -54 -25 -32 -11
-33 -11 -26 11 14 46 11 62 -14 65 -13 2 -28 -1 -34 -7 -6 -6 -14 -5 -23 4
-17 17 -4 91 15 87 9 -2 9 3 0 19 -10 19 -7 25 17 45 16 13 25 23 19 23 -5 0
-30 -18 -55 -41 -25 -22 -37 -35 -27 -28 26 19 28 10 7 -32 -10 -21 -16 -47
-13 -58 4 -14 -3 -30 -17 -45 -19 -20 -20 -25 -7 -25 9 0 22 9 30 21 9 13 17
16 22 10 4 -8 15 -6 35 4 37 19 40 19 40 -4 0 -33 -33 -60 -96 -76 -80 -20
-79 -20 -59 13 l18 27 -28 -25 -27 -25 6 40 c11 78 17 172 21 333 2 90 6 166
9 169 3 3 20 -11 38 -30 35 -38 143 -93 153 -78 3 5 -12 15 -32 22 -87 28
-160 81 -81 58 18 -5 42 -9 53 -8 17 0 16 2 -5 10 -14 6 -38 17 -53 25 -16 8
-33 12 -38 8 -5 -3 -9 -1 -9 3 0 12 89 55 100 48 5 -3 12 -20 15 -38 10 -44
35 -97 47 -97 6 0 4 7 -3 17 -12 14 -36 104 -38 141 -1 16 34 16 47 -1z m130
5 c10 -7 9 -16 -3 -45 -8 -20 -19 -37 -24 -37 -9 0 -21 70 -14 83 5 9 25 9 41
-1z m72 3 c0 -9 -42 -47 -47 -42 -7 8 21 47 34 47 7 0 13 -2 13 -5z m930 -15
c0 -5 -10 -10 -22 -9 -22 0 -22 1 -3 9 11 5 21 9 23 9 1 1 2 -3 2 -9z m1180
-17 c68 -2 130 -9 137 -14 8 -7 18 -7 31 0 19 10 20 6 17 -209 -2 -120 -6
-224 -10 -229 -3 -6 -9 -64 -12 -129 -5 -101 -8 -119 -22 -118 -12 1 -17 -9
-19 -36 -3 -31 -7 -38 -24 -38 -15 0 -18 4 -13 18 4 9 10 27 12 40 5 19 1 22
-29 22 -19 0 -38 3 -42 7 -7 7 -17 8 -116 16 -66 5 -70 9 -65 75 3 31 7 94 9
140 2 76 1 85 -18 97 -20 13 -47 19 -73 16 -7 0 -13 -12 -13 -25 0 -14 -4 -28
-10 -31 -6 -4 -10 7 -10 25 0 24 -5 33 -21 37 -22 6 -22 21 3 125 l11 46 78
12 c43 7 89 10 101 7 26 -7 54 6 44 21 -3 5 -32 20 -63 32 -32 13 -73 32 -90
44 -34 22 -44 46 -18 46 8 0 15 5 15 11 0 7 14 9 43 4 23 -4 98 -9 167 -12z
m-290 -12 c-5 -9 -17 -46 -27 -84 -11 -43 -24 -69 -34 -72 -10 -3 -20 -13 -23
-21 -5 -12 -1 -14 16 -9 19 7 20 5 14 -25 -3 -18 -6 -50 -6 -71 0 -28 -4 -39
-15 -39 -8 0 -15 -8 -15 -17 -1 -13 -5 -11 -15 9 -13 23 -19 26 -50 21 -43 -7
-47 12 -10 47 30 28 33 45 6 30 -34 -17 -64 -71 -67 -114 -2 -48 -18 -139 -38
-213 -10 -38 -11 -53 -3 -56 9 -3 9 -11 0 -30 -12 -26 -30 -49 -102 -127 l-33
-35 7 30 c10 47 28 78 48 81 27 4 44 21 51 54 12 63 -17 80 -40 25 -16 -39
-39 -38 -31 1 2 12 1 28 -3 33 -10 17 -72 1 -77 -20 -4 -13 -10 -16 -20 -10
-8 4 -34 5 -56 0 -23 -4 -45 -5 -49 -3 -8 5 -12 -17 -34 -169 -13 -89 -21
-117 -31 -113 -7 3 -13 0 -13 -7 -1 -7 -6 -5 -14 6 -15 20 -37 22 -54 5 -9 -9
-12 -7 -12 9 0 12 6 28 13 35 8 8 16 49 20 103 7 105 22 165 41 165 16 0 26
21 26 54 0 12 6 28 13 35 10 11 10 14 0 18 -17 6 -18 370 -2 440 l11 48 309 1
c282 2 307 0 299 -15z m-670 -50 c0 -6 -4 -13 -10 -16 -5 -3 -10 1 -10 9 0 9
5 16 10 16 6 0 10 -4 10 -9z m-13 -90 c-1 -31 -5 -44 -10 -35 -7 12 0 84 8 84
2 0 3 -22 2 -49z m-57 -118 c-30 -173 -30 -173 -46 -173 -8 0 -17 -7 -20 -15
-4 -8 -12 -15 -20 -15 -11 0 -8 12 11 50 14 27 25 57 25 66 0 9 12 42 27 72
17 36 23 57 16 59 -8 3 -7 18 5 51 24 72 25 35 2 -95z m38 -114 c-7 -74 -14
-123 -16 -109 -4 28 18 253 25 247 2 -3 -2 -65 -9 -138z m-1551 19 c-3 -8 -6
-5 -6 6 -1 11 2 17 5 13 3 -3 4 -12 1 -19z m2103 -15 c0 -16 -3 -23 -8 -16 -4
6 -10 12 -14 12 -5 1 -8 3 -8 6 0 3 0 10 0 15 0 6 7 10 15 10 10 0 15 -10 15
-27z m119 -15 c-12 -20 -14 -21 -17 -5 -2 10 2 25 9 34 18 21 23 0 8 -29z
m118 10 c-3 -8 -6 -5 -6 6 -1 11 2 17 5 13 3 -3 4 -12 1 -19z m-2346 -49 c-6
-24 -9 -28 -10 -12 -1 24 9 56 16 50 2 -3 0 -20 -6 -38z m2239 -10 c0 -11 -4
-18 -10 -14 -5 3 -7 12 -3 20 7 21 13 19 13 -6z m-89 -42 c-13 -13 -15 1 -4
30 7 17 8 17 11 -1 2 -10 -1 -23 -7 -29z m-1617 8 c11 -16 24 -24 39 -22 18 2
22 -3 21 -28 -1 -49 -34 -186 -49 -209 -18 -25 -20 -93 -3 -98 6 -2 8 -10 4
-16 -5 -9 -13 -9 -26 -2 -28 15 -36 13 -50 -17 l-12 -28 -11 23 c-5 12 -19 22
-31 23 -112 3 -171 12 -183 27 -12 16 -14 16 -24 0 -10 -19 -44 -24 -53 -10
-7 12 -66 13 -66 1 0 -5 -8 -9 -17 -9 -15 0 -15 1 2 13 29 22 9 39 -36 32
l-39 -7 0 60 c0 70 6 92 26 92 8 0 32 9 53 19 21 11 75 29 120 41 45 11 103
31 128 43 34 16 47 19 50 10 5 -14 24 -18 22 -5 -5 28 5 20 14 -12 14 -47 37
-60 37 -22 0 14 -4 26 -10 26 -5 0 -10 13 -10 29 0 22 8 34 33 50 42 27 51 26
71 -4z m1525 -59 c-9 -8 -10 -5 -5 14 3 14 7 34 7 45 1 11 4 5 6 -14 3 -19 -1
-39 -8 -45z m-579 29 c0 -14 7 -28 15 -31 8 -4 15 -12 15 -20 0 -10 -6 -11
-30 -3 -16 6 -30 15 -30 21 0 5 -6 6 -12 3 -7 -4 -5 0 5 8 9 8 17 22 17 31 0
9 5 16 10 16 6 0 10 -11 10 -25z m-60 6 c0 -5 -7 -11 -15 -15 -15 -5 -20 5 -8
17 9 10 23 9 23 -2z m904 -43 c-9 -18 -25 -44 -35 -57 -34 -43 -22 8 14 60 35
52 48 50 21 -3z m-1668 -16 c-11 -10 -15 4 -8 28 l7 25 3 -23 c2 -13 1 -26 -2
-30z m1504 1 c0 -5 -7 -17 -15 -27 -14 -19 -15 -19 -15 7 0 17 5 27 15 27 8 0
15 -3 15 -7z m-743 -20 c3 -7 -3 -9 -16 -6 -12 3 -21 10 -21 15 0 13 32 6 37
-9z m-786 -60 c-8 -15 -10 -15 -11 -2 0 17 10 32 18 25 2 -3 -1 -13 -7 -23z
m854 -120 c-9 -76 -26 -183 -37 -238 -12 -55 -20 -131 -20 -170 2 -82 -16
-197 -30 -189 -5 3 -25 -11 -44 -31 -19 -21 -37 -35 -40 -32 -9 9 14 43 48 72
36 30 54 55 40 55 -4 0 -21 -13 -38 -28 -42 -41 -94 -75 -94 -63 0 10 70 66
92 73 6 2 8 13 6 23 -3 18 -9 15 -47 -23 -24 -23 -45 -41 -46 -40 -4 5 22 149
28 154 3 3 8 -4 12 -15 12 -39 45 -19 45 27 0 9 7 30 15 46 16 30 13 62 -4 51
-5 -3 -13 4 -16 15 -7 21 -7 21 -26 -2 l-20 -23 6 55 c3 30 10 82 15 115 5 33
12 106 16 163 5 73 10 100 18 92 6 -6 9 -42 7 -85 -2 -63 0 -75 13 -75 10 0
16 -9 16 -25 0 -16 -6 -25 -15 -25 -8 0 -15 -7 -15 -15 0 -18 -19 -20 -21 -2
-1 6 -5 -4 -8 -23 -4 -19 -4 -39 1 -45 4 -5 8 -17 8 -26 0 -11 10 -18 30 -21
27 -4 30 -2 37 31 4 20 7 62 6 94 -1 31 3 57 7 57 11 0 26 53 36 125 8 57 22
100 30 92 3 -3 -2 -67 -11 -144z m835 95 c0 -12 -14 -10 -27 3 -6 6 -9 18 -6
27 5 13 8 12 20 -4 7 -10 13 -21 13 -26z m-460 -16 c0 -28 -8 -44 -30 -66 -34
-34 -39 -21 -10 26 11 18 20 46 20 61 0 16 4 26 10 22 6 -3 10 -23 10 -43z
m206 32 c-3 -9 -6 -18 -6 -20 0 -2 -4 -4 -9 -4 -5 0 -7 9 -4 20 3 11 10 20 15
20 6 0 7 -7 4 -16z m164 -35 c7 -23 8 -45 3 -48 -15 -11 -34 -64 -25 -70 5 -3
6 -15 1 -26 -7 -19 -8 -19 -8 3 -1 23 -15 30 -26 12 -8 -12 -45 -13 -45 -1 0
4 20 29 44 54 41 41 44 49 39 81 -8 49 4 45 17 -5z m-50 -6 c-1 -31 -3 -35
-11 -20 -6 9 -7 26 -4 37 10 30 15 24 15 -17z m-780 13 c0 -3 -4 -8 -10 -11
-5 -3 -10 -1 -10 4 0 6 5 11 10 11 6 0 10 -2 10 -4z m385 -15 c6 -11 -25 -81
-37 -81 -7 0 -3 44 8 78 4 14 20 16 29 3z m305 -27 c-18 -21 -24 -10 -8 15 7
12 14 17 16 11 2 -6 -2 -17 -8 -26z m388 9 c-5 -25 -28 -28 -28 -4 0 12 6 21
16 21 9 0 14 -7 12 -17z m-468 -2 c0 -4 -11 -20 -25 -35 -14 -15 -25 -32 -25
-37 0 -6 -4 -7 -10 -4 -13 8 30 85 48 85 6 0 12 -4 12 -9z m-1363 -23 c-3 -8
-6 -5 -6 6 -1 11 2 17 5 13 3 -3 4 -12 1 -19z m1397 -14 c-3 -16 -17 -42 -30
-59 l-24 -30 0 25 c0 24 47 106 56 97 2 -2 1 -17 -2 -33z m283 14 c-3 -8 -6
-5 -6 6 -1 11 2 17 5 13 3 -3 4 -12 1 -19z m199 -23 c-9 -9 -17 -11 -21 -5 -3
5 2 17 12 27 13 13 19 15 21 6 2 -7 -3 -20 -12 -28z m70 8 c-11 -11 -19 6 -11
24 8 17 8 17 12 0 3 -10 2 -21 -1 -24z m-472 -10 c-9 -37 -20 -57 -38 -73 -23
-18 -21 3 5 57 23 48 43 58 33 16z m210 -30 c-4 -15 -13 -34 -21 -41 -15 -16
-17 -26 -3 -17 18 11 11 -26 -10 -52 -11 -14 -20 -32 -20 -39 0 -8 -4 -14 -10
-14 -13 0 -13 13 0 26 6 6 12 37 15 70 3 45 9 63 26 77 28 23 31 22 23 -10z
m253 -5 c-3 -7 -5 -2 -5 12 0 14 2 19 5 13 2 -7 2 -19 0 -25z m-331 -38 c-4
-55 -19 -100 -32 -100 -4 0 -3 17 1 38 4 20 7 46 6 57 -2 31 8 65 19 65 6 0 8
-24 6 -60z m134 28 c-1 -13 -34 -58 -43 -58 -8 0 4 43 16 58 5 6 13 12 18 12
5 0 9 -6 9 -12z m82 -20 c-15 -15 -26 -4 -18 18 5 13 9 15 18 6 9 -9 9 -15 0
-24z m-49 -26 c-6 -46 -23 -58 -23 -16 0 25 18 69 25 62 2 -2 1 -22 -2 -46z
m-1745 26 c-2 -6 -10 -14 -16 -16 -7 -2 -10 2 -6 12 7 18 28 22 22 4z m-49
-39 c-5 -10 -9 -45 -9 -78 0 -33 -5 -72 -11 -88 -16 -41 -24 -213 -10 -213 6
0 11 -5 11 -11 0 -6 -6 -9 -14 -6 -10 4 -13 -3 -12 -26 1 -24 -4 -32 -19 -35
-16 -4 -17 -2 -7 10 6 8 9 17 6 21 -3 3 -1 15 6 26 7 14 7 21 0 21 -12 0 -10
12 27 253 15 92 30 162 34 155 4 -7 3 -20 -2 -29z m2001 34 c0 -4 -12 -25 -27
-47 -25 -36 -28 -37 -31 -17 -4 27 23 71 43 71 8 0 15 -3 15 -7z m-130 -37
c-7 -32 -49 -100 -57 -92 -10 9 10 74 30 99 29 36 36 34 27 -7z m44 19 c-4 -8
-8 -15 -10 -15 -2 0 -4 7 -4 15 0 8 4 15 10 15 5 0 7 -7 4 -15z m-2521 -20
c-7 -21 -13 -19 -13 6 0 11 4 18 10 14 5 -3 7 -12 3 -20z m1775 -21 c-13 -25
-24 -40 -26 -35 -3 10 35 81 44 81 2 0 -6 -21 -18 -46z m-1717 -7 c-13 -13
-15 1 -4 30 7 17 8 17 11 -1 2 -10 -1 -23 -7 -29z m589 -59 c-7 -51 -14 -140
-16 -198 -2 -58 -8 -123 -14 -145 -7 -31 -8 -23 -3 40 3 44 5 103 4 130 -2 80
25 282 36 272 2 -3 -1 -47 -7 -99z m1354 58 c-8 -31 -24 -45 -24 -19 0 34 12
65 22 55 5 -5 6 -21 2 -36z m637 3 l-10 -24 0 26 c-1 14 2 29 6 33 12 12 14
-9 4 -35z m-2381 17 c0 -3 -4 -8 -10 -11 -5 -3 -10 -1 -10 4 0 6 5 11 10 11 6
0 10 -2 10 -4z m1810 -19 c0 -13 -3 -27 -7 -31 -5 -4 -8 -25 -9 -47 0 -24 -7
-46 -18 -57 -18 -16 -18 -16 -11 13 3 17 7 46 9 65 3 45 15 80 27 80 5 0 9
-10 9 -23z m-1308 -11 c-4 -6 -12 -27 -18 -46 l-12 -35 -1 38 c-1 20 -5 37
-11 37 -5 0 -10 6 -10 13 0 9 10 12 30 9 19 -3 27 -8 22 -16z m-655 -11 c-3
-16 2 -34 13 -48 15 -18 21 -20 43 -10 25 12 36 11 113 -9 23 -5 52 -7 63 -3
18 5 21 12 16 39 -5 23 -2 36 9 46 23 18 27 10 16 -31 -8 -29 -40 -259 -40
-282 0 -5 -9 -6 -19 -2 -11 3 -22 1 -26 -5 -3 -6 -10 -8 -15 -5 -8 5 -6 58 5
141 6 45 -3 58 -47 69 -32 8 -42 -6 -64 -101 -17 -76 -22 -87 -33 -79 -5 2 -3
33 3 67 11 60 11 65 -12 101 -28 42 -27 42 -76 22 -33 -14 -51 -45 -25 -45 16
0 7 -139 -10 -149 -7 -5 -12 -14 -11 -22 6 -39 -1 -60 -17 -57 -14 2 -18 -4
-17 -29 1 -18 -3 -33 -8 -33 -6 0 -8 29 -4 78 3 42 5 138 6 212 0 80 4 130 9
125 5 -6 11 -19 13 -30 5 -27 30 -25 44 3 8 16 13 19 17 10 7 -19 41 3 45 31
2 11 6 21 9 21 3 0 3 -11 0 -25z m73 6 c0 -11 -4 -22 -9 -25 -11 -7 -23 22
-15 35 9 16 24 10 24 -10z m150 15 c0 -1 -5 -17 -11 -34 -13 -38 -29 -33 -29
9 0 22 5 29 20 29 11 0 20 -2 20 -4z m610 -6 c0 -5 -4 -10 -10 -10 -5 0 -10 5
-10 10 0 6 5 10 10 10 6 0 10 -4 10 -10z m1760 -4 c0 -7 -7 -19 -15 -26 -16
-13 -20 -3 -9 24 8 20 24 21 24 2z m-2170 -17 c0 -5 -4 -9 -8 -9 -11 0 -37
-109 -53 -215 -7 -44 -14 -75 -16 -69 -4 13 20 180 37 261 8 38 15 50 26 46 8
-3 14 -9 14 -14z m-273 -25 c-3 -3 -13 0 -21 9 -8 8 -12 18 -9 21 4 4 14 0 22
-9 8 -8 12 -17 8 -21z m818 -8 c-13 -24 -21 -53 -18 -64 2 -11 0 -23 -6 -26
-7 -4 -11 1 -11 13 0 12 -7 21 -15 21 -8 0 -15 7 -15 16 0 27 20 54 39 54 11
0 21 7 25 15 3 8 10 15 15 15 5 0 -1 -20 -14 -44z m154 22 c0 -13 -3 -17 -6
-10 -2 6 -11 12 -19 12 -9 0 -12 5 -9 10 12 19 35 10 34 -12z m952 -25 c-9
-16 -10 -16 -11 -1 0 9 3 25 7 35 7 16 8 17 11 1 2 -10 -1 -25 -7 -35z m404
15 c-4 -18 -13 -40 -21 -48 -12 -12 -12 -9 -2 20 6 19 12 41 14 48 7 28 15 10
9 -20z m-1658 -28 c-1 -29 -7 -52 -14 -54 -7 -3 -13 -1 -13 5 0 14 22 99 25
99 2 0 3 -22 2 -50z m1473 17 c0 -18 -7 -42 -15 -53 -15 -18 -16 -17 -10 16
14 76 25 93 25 37z m-1510 14 c0 -12 -36 -100 -44 -108 -8 -7 -4 36 6 76 1 7
-2 15 -9 18 -6 2 -14 -12 -18 -36 -4 -23 -11 -43 -16 -47 -5 -3 -9 -25 -9 -49
0 -24 -4 -47 -10 -50 -20 -12 -4 110 24 190 4 11 76 17 76 6z m641 -8 c-5 -10
-14 -44 -21 -75 -6 -32 -15 -58 -19 -58 -11 0 8 122 21 138 16 18 30 15 19 -5z
m-759 -70 c-16 -98 -23 -215 -11 -208 5 4 9 -1 9 -9 0 -10 -6 -13 -16 -9 -14
5 -16 19 -10 102 7 99 25 205 34 196 3 -3 0 -35 -6 -72z m214 50 c-8 -16 -18
-37 -21 -48 -6 -16 -8 -17 -13 -5 -3 8 -10 18 -16 22 -8 5 -7 8 2 8 6 0 12 7
12 15 0 13 25 34 43 35 5 0 1 -12 -7 -27z m1008 -5 c-5 -13 -7 -42 -6 -64 2
-30 -2 -43 -13 -48 -20 -7 -31 20 -15 39 6 8 9 18 6 23 -8 13 13 72 26 72 5 0
6 -9 2 -22z m222 -36 c-12 -12 -18 8 -10 35 l8 28 4 -28 c2 -16 1 -31 -2 -35z
m-1071 28 c-20 -22 -31 -20 -22 5 4 8 14 15 23 15 16 0 16 -2 -1 -20z m81 3
c-3 -10 -8 -35 -12 -56 -8 -46 -16 -52 -39 -27 -10 11 -24 20 -32 20 -18 0
-16 10 7 40 19 24 20 24 20 3 0 -28 10 -53 21 -53 5 0 9 10 9 23 0 33 11 67
22 67 5 0 7 -8 4 -17z m384 -7 c0 -14 -7 -31 -15 -40 -8 -8 -15 -24 -15 -35 0
-12 -5 -21 -11 -21 -6 0 -8 8 -5 18 2 9 8 36 11 60 7 46 35 60 35 18z m1011
-19 c-13 -13 -15 1 -4 30 7 17 8 17 11 -1 2 -10 -1 -23 -7 -29z m69 8 c-13
-14 -26 -23 -28 -20 -3 3 5 16 18 30 13 14 26 23 28 20 3 -3 -5 -16 -18 -30z
m-1978 -212 l-9 -198 -1 215 c-1 145 2 210 8 198 7 -11 7 -87 2 -215z m995
205 c-3 -8 -6 -5 -6 6 -1 11 2 17 5 13 3 -3 4 -12 1 -19z m-1291 -75 c-12
-167 -29 -283 -41 -283 -8 0 -9 16 -3 58 21 145 38 279 38 295 0 9 3 17 6 17
4 0 4 -39 0 -87z m1761 50 c-3 -10 -5 -4 -5 12 0 17 2 24 5 18 2 -7 2 -21 0
-30z m70 5 c-3 -7 -5 -2 -5 12 0 14 2 19 5 13 2 -7 2 -19 0 -25z m184 -11 c-8
-8 -11 -7 -11 4 0 20 13 34 18 19 3 -7 -1 -17 -7 -23z m-1912 -83 c-13 -113
-34 -167 -24 -64 7 76 25 173 31 167 3 -2 -1 -49 -7 -103z m767 84 c-10 -38
-34 -179 -41 -240 -4 -32 -11 -58 -16 -58 -12 0 -12 57 1 65 6 3 10 23 10 43
0 57 31 212 42 212 6 0 8 -10 4 -22z m604 14 c0 -13 -39 -46 -46 -40 -8 9 19
48 33 48 7 0 13 -4 13 -8z m50 -16 c0 -8 -4 -18 -10 -21 -5 -3 -10 3 -10 14 0
12 5 21 10 21 6 0 10 -6 10 -14z m271 -43 c-9 -16 -10 -16 -11 4 0 12 3 30 7
40 7 16 8 16 11 -4 2 -12 -1 -30 -7 -40z m350 0 c-9 -16 -10 -16 -11 4 0 12 3
30 7 40 7 16 8 16 11 -4 2 -12 -1 -30 -7 -40z m-2461 13 c-13 -13 -35 7 -25
24 5 8 11 8 21 -1 10 -8 12 -15 4 -23z m1560 -5 c0 -24 -6 -44 -17 -52 -15
-13 -16 -11 -10 11 4 14 7 37 7 53 0 15 5 27 10 27 6 0 10 -17 10 -39z m397
-3 c-3 -7 -5 -2 -5 12 0 14 2 19 5 13 2 -7 2 -19 0 -25z m78 -1 c-7 -18 -35
-31 -35 -17 0 6 6 19 12 30 14 22 32 12 23 -13z m561 -5 c-14 -14 -16 -14 -16
-1 0 20 23 44 29 28 2 -6 -4 -18 -13 -27z m-525 -25 c-8 -8 -11 -5 -11 9 0 27
14 41 18 19 2 -9 -1 -22 -7 -28z m222 23 c-3 -11 -9 -23 -14 -26 -10 -6 -12
29 -2 39 13 13 21 7 16 -13z m-123 -20 c0 -32 -14 -40 -24 -15 -6 18 2 45 15
45 5 0 9 -13 9 -30z m-1360 10 c0 -5 -4 -10 -9 -10 -6 0 -13 5 -16 10 -3 6 1
10 9 10 9 0 16 -4 16 -10z m70 0 c0 -5 -7 -10 -16 -10 -8 0 -12 5 -9 10 3 6
10 10 16 10 5 0 9 -4 9 -10z m58 -16 c7 -12 2 -36 -15 -78 -14 -34 -30 -73
-36 -88 -20 -49 -25 -30 -6 25 25 76 34 127 20 127 -6 0 -11 -6 -11 -12 0 -25
-52 -178 -61 -178 -5 0 -6 7 -3 15 4 8 1 15 -6 15 -8 0 -10 -9 -6 -25 5 -21 3
-24 -16 -22 -13 1 -29 8 -37 15 -10 10 -16 10 -28 0 -13 -11 -15 -1 -12 79 2
50 6 94 9 96 3 3 23 7 45 9 36 3 41 0 56 -29 l16 -32 14 27 c36 71 59 88 77
56z m122 1 c0 -8 -4 -15 -10 -15 -5 0 -10 7 -10 15 0 8 5 15 10 15 6 0 10 -7
10 -15z m583 -32 c-7 -51 -61 -174 -79 -180 -18 -6 -3 59 24 99 13 21 27 58
30 83 3 29 10 45 18 45 10 0 12 -11 7 -47z m578 -4 c-10 -23 -10 -23 -10 7 -1
17 2 34 7 38 11 12 14 -18 3 -45z m116 29 c-3 -8 -6 -5 -6 6 -1 11 2 17 5 13
3 -3 4 -12 1 -19z m90 0 c-3 -8 -6 -5 -6 6 -1 11 2 17 5 13 3 -3 4 -12 1 -19z
m-1328 -5 c0 -10 -8 -53 -17 -96 -16 -72 -20 -80 -66 -117 -62 -51 -75 -42
-18 12 33 31 40 43 32 53 -8 10 -6 23 8 52 11 21 25 55 31 76 13 38 31 50 30
20z m326 7 c3 -5 17 -10 31 -10 39 0 34 -22 -32 -165 -31 -66 -30 -33 1 51 26
69 31 94 17 94 -4 0 -18 -33 -32 -72 -32 -97 -60 -161 -68 -154 -3 3 -1 16 5
29 11 22 28 66 57 145 18 48 21 76 6 67 -5 -3 -10 1 -10 9 0 18 16 21 25 6z
m1065 6 c0 -3 -4 -8 -10 -11 -5 -3 -10 -1 -10 4 0 6 5 11 10 11 6 0 10 -2 10
-4z m-750 -41 c0 -14 -4 -25 -10 -25 -11 0 -14 33 -3 43 11 11 13 8 13 -18z
m262 16 c6 9 8 -15 5 -68 -3 -67 -1 -80 11 -76 12 5 12 2 0 -18 -29 -52 -46
-70 -51 -55 -3 8 -1 17 6 20 9 3 9 5 0 5 -6 1 -24 -21 -39 -49 -15 -27 -33
-50 -41 -50 -17 0 -17 14 1 29 8 7 12 19 10 29 -3 10 15 43 41 77 24 33 45 66
45 73 0 27 -21 9 -66 -58 -26 -38 -48 -70 -50 -70 -7 0 48 104 68 130 14 18
18 33 13 58 -6 32 -5 33 16 22 17 -10 24 -9 31 1z m313 -24 c-4 -8 -13 -18
-22 -21 -9 -4 -13 -2 -9 6 3 7 9 21 12 31 4 11 10 15 16 9 5 -5 6 -16 3 -25z
m82 11 c-3 -8 -6 -5 -6 6 -1 11 2 17 5 13 3 -3 4 -12 1 -19z m175 0 c-7 -7
-12 -8 -12 -2 0 6 3 14 7 17 3 4 9 5 12 2 2 -3 -1 -11 -7 -17z m-1592 -8 c0
-5 -4 -10 -10 -10 -5 0 -10 5 -10 10 0 6 5 10 10 10 6 0 10 -4 10 -10z m930
-1 c0 -6 -5 -20 -11 -31 -8 -16 -13 -18 -19 -8 -5 7 -3 21 3 32 13 20 27 24
27 7z m-100 -55 c0 -20 -10 -50 -25 -73 -14 -21 -23 -45 -20 -53 4 -9 2 -19
-4 -23 -7 -3 -8 0 -5 9 8 21 -3 20 -24 0 -27 -28 -24 -1 9 72 17 38 35 79 40
92 12 32 29 18 29 -24z m283 22 c12 4 17 1 17 -14 0 -11 -8 -22 -19 -25 -25
-6 -31 0 -31 32 0 17 3 22 8 13 5 -7 16 -10 25 -6z m123 -22 c-3 -11 -23 -47
-44 -80 -35 -58 -39 -61 -57 -48 -19 14 -19 15 -1 49 11 19 25 35 32 35 7 0
16 9 19 20 3 11 10 20 15 20 4 0 10 10 14 22 4 17 8 20 17 11 6 -6 8 -19 5
-29z m-1251 9 c-4 -10 -16 -42 -27 -70 -12 -29 -25 -53 -30 -53 -5 0 -5 8 1
18 5 10 9 24 8 32 -3 26 26 90 41 90 9 0 12 -6 7 -17z m53 -5 c3 -15 -56 -93
-64 -85 -2 2 6 27 18 55 21 51 40 62 46 30z m469 -51 c-21 -54 -37 -73 -37
-43 0 26 43 117 51 109 5 -5 -1 -34 -14 -66z m833 63 c0 -5 -10 -19 -22 -30
-27 -25 -38 -8 -12 21 18 20 34 25 34 9z m-750 -8 c0 -17 -41 -92 -50 -92 -6
0 -10 -8 -10 -17 -1 -24 -22 -57 -37 -60 -18 -4 -16 22 2 37 8 7 15 18 15 25
0 7 10 35 21 64 15 35 27 51 40 51 11 0 19 -4 19 -8z m910 -32 c-16 -31 -23
-18 -8 15 7 15 14 23 16 17 2 -6 -2 -21 -8 -32z m98 10 c7 0 12 -10 12 -21 0
-18 -2 -19 -15 -9 -13 11 -18 10 -28 -4 -11 -15 -13 -11 -14 24 -2 39 -1 41
16 26 10 -9 23 -16 29 -16z m-1998 -60 c0 -59 -3 -80 -13 -80 -10 0 -11 13 -6
58 4 31 8 67 8 80 1 12 3 22 6 22 3 0 5 -36 5 -80z m1092 69 c5 -15 -52 -130
-72 -146 -21 -16 -26 -7 -12 20 6 12 22 48 36 80 24 55 40 70 48 46z m58 -2
c0 -26 -50 -117 -65 -117 -11 0 -7 15 18 65 31 62 47 80 47 52z m668 1 c-2 -6
-10 -14 -16 -16 -7 -2 -10 2 -6 12 7 18 28 22 22 4z m-2338 -27 c0 -28 -52
-71 -78 -64 -29 7 -23 27 8 28 16 0 28 10 39 31 17 33 31 35 31 5z m1840 12
c0 -5 -15 -32 -33 -62 -52 -88 -98 -101 -58 -16 11 24 21 48 21 53 0 15 24 32
47 32 13 0 23 -3 23 -7z m210 -24 c0 -22 -42 -69 -62 -69 -17 0 -19 4 -14 28
4 15 14 33 23 40 21 15 53 16 53 1z m276 -54 c-23 -38 -66 -78 -66 -60 0 7 28
51 59 94 34 46 39 21 7 -34z m-2416 51 c0 -2 -7 -6 -15 -10 -8 -3 -15 -1 -15
4 0 6 7 10 15 10 8 0 15 -2 15 -4z m140 -5 c0 -11 -63 -52 -69 -45 -6 5 49 53
62 54 4 0 7 -4 7 -9z m540 -31 c14 0 19 -10 22 -47 3 -27 1 -52 -4 -57 -4 -6
-8 0 -8 12 0 13 -9 32 -20 44 -13 14 -20 34 -19 57 1 24 3 28 6 14 3 -14 12
-23 23 -23z m1601 21 l23 -19 -34 -39 c-19 -21 -46 -53 -60 -71 -14 -17 -31
-32 -39 -32 -9 0 -11 -6 -6 -22 4 -13 8 -43 9 -68 1 -42 -1 -45 -26 -48 -23
-3 -28 1 -28 18 0 11 7 23 15 26 11 5 15 22 15 63 0 49 6 64 45 125 25 38 45
73 45 78 0 13 16 9 41 -11z m62 -67 c-28 -44 -83 -85 -83 -61 0 12 24 56 63
114 20 30 22 31 35 12 12 -17 10 -25 -15 -65z m-2081 -77 c-2 -4 -13 5 -25 20
-23 29 -24 68 -1 90 8 8 15 20 16 26 1 7 4 -19 7 -58 3 -38 5 -74 3 -78z m168
134 c0 -10 -30 -24 -37 -17 -3 3 -2 9 2 15 8 13 35 15 35 2z m2006 -56 c-21
-39 -23 -46 -8 -40 11 4 13 3 7 -3 -5 -5 -20 -13 -33 -17 l-22 -6 21 38 c40
69 51 85 56 79 3 -3 -6 -26 -21 -51z m115 45 c16 0 -55 -130 -74 -136 -29 -9
-30 0 -3 57 14 30 27 62 30 73 4 11 12 16 22 12 9 -3 20 -6 25 -6z m-2576 -10
c3 -5 1 -10 -4 -10 -6 0 -11 5 -11 10 0 6 2 10 4 10 3 0 8 -4 11 -10z m2583
-60 c-30 -62 -48 -84 -22 -27 8 17 19 44 25 60 6 15 15 27 19 27 4 0 -5 -27
-22 -60z m70 48 c18 -18 16 -108 -2 -108 -8 0 -17 8 -19 18 -4 13 -5 12 -6 -5
-2 -35 -21 -38 -21 -3 0 33 21 110 30 110 3 0 11 -5 18 -12z m-2434 -7 c3 -4
-6 -13 -19 -19 -20 -9 -25 -9 -25 2 0 20 34 34 44 17z m219 -17 c-3 -8 -9 -14
-14 -14 -5 0 -9 -4 -9 -10 0 -5 7 -10 15 -10 8 0 15 -7 15 -15 0 -13 -4 -13
-32 -2 -40 16 -45 30 -17 55 23 22 51 19 42 -4z m108 -1 c-8 -15 -10 -15 -11
-2 0 17 10 32 18 25 2 -3 -1 -13 -7 -23z m254 -20 c-11 -7 -22 -13 -27 -13
-14 0 -8 19 9 29 25 13 40 1 18 -16z m318 7 c-3 -11 -9 -17 -15 -14 -5 3 -4
12 3 20 16 19 18 18 12 -6z m-1097 -6 c-3 -9 -6 -27 -6 -40 0 -16 -6 -24 -18
-24 -14 0 -17 8 -17 40 0 35 2 40 23 40 18 0 23 -4 18 -16z m1469 -6 c-8 -27
-35 -58 -35 -41 0 19 22 63 32 63 5 0 6 -10 3 -22z m-620 3 c3 -5 1 -12 -5
-16 -5 -3 -10 1 -10 9 0 18 6 21 15 7z m-780 -11 c3 -5 3 -15 -1 -21 -6 -11
-23 6 -24 24 0 10 18 9 25 -3z m975 7 c0 -2 -10 -12 -21 -23 -22 -19 -22 -19
-10 4 10 18 31 31 31 19z m-865 -39 c-4 -13 -9 -31 -11 -40 -8 -28 -24 -21
-24 10 0 27 15 52 33 52 4 0 5 -10 2 -22z m350 -49 c-6 -24 -3 -30 18 -38 14
-6 28 -14 31 -20 4 -6 17 -6 39 1 17 5 50 11 71 12 43 1 59 20 27 31 -44 14
-21 38 58 60 24 7 24 6 17 -44 -6 -49 -6 -51 21 -57 50 -11 55 -14 49 -30 -6
-15 -4 -15 18 0 14 9 32 16 40 16 15 0 29 27 21 40 -3 4 -14 6 -25 3 -16 -4
-20 0 -20 22 0 24 3 26 24 21 14 -3 28 -1 31 4 14 23 26 -4 19 -46 l-6 -44 44
0 c50 0 63 -7 47 -26 -14 -17 6 -28 23 -12 51 48 53 49 77 32 18 -13 20 -19
10 -30 -20 -24 -1 -29 20 -6 19 23 91 32 91 12 0 -20 48 -11 55 11 4 13 12 18
22 15 8 -3 19 -6 24 -6 23 0 3 -27 -71 -97 -44 -42 -80 -83 -80 -90 0 -23 13
-13 94 66 67 64 76 70 76 49 0 -13 5 -29 10 -34 7 -7 4 -18 -9 -33 -11 -13
-23 -32 -27 -43 -3 -11 -34 -46 -67 -79 -34 -32 -57 -59 -50 -59 6 0 18 6 25
13 33 30 100 79 104 75 8 -9 8 -124 0 -150 -8 -26 -6 -28 22 -28 16 0 41 9 55
20 14 11 32 18 40 14 9 -3 17 3 20 18 7 26 89 74 107 63 6 -4 19 0 28 9 25 22
62 10 62 -21 0 -13 12 -40 27 -59 25 -33 26 -42 26 -140 0 -57 4 -104 9 -104
5 0 22 7 39 15 25 14 30 14 35 1 3 -8 13 -13 22 -11 9 2 20 4 24 4 4 1 17 22
29 49 26 52 57 92 73 92 6 0 24 11 40 25 33 29 55 33 35 8 -8 -10 2 -5 21 11
42 34 170 156 170 162 0 2 -12 1 -27 -2 l-26 -7 19 25 c10 14 24 24 30 21 15
-5 47 33 39 47 -4 6 3 21 16 32 13 12 38 34 55 50 24 23 37 28 58 22 34 -8 33
-19 -7 -54 -19 -16 -34 -37 -34 -47 0 -9 -17 -31 -38 -48 -118 -95 -147 -135
-95 -135 23 0 39 22 21 28 -13 4 85 112 101 112 23 0 3 -40 -34 -68 -23 -18
-37 -32 -32 -32 6 0 16 6 23 13 11 10 13 9 8 -5 -8 -23 10 -33 29 -17 14 11
13 14 -2 22 -13 8 -14 11 -3 18 41 26 35 -25 -9 -75 -30 -33 -32 -40 -20 -53
11 -10 13 -25 7 -61 -4 -26 -8 -66 -8 -90 -1 -37 -5 -45 -33 -63 -25 -15 -27
-19 -10 -14 22 6 23 4 20 -31 -2 -26 -9 -39 -23 -44 -28 -10 -85 7 -85 26 0
11 -4 12 -18 5 -24 -13 -62 -3 -62 15 0 17 -5 17 -31 3 -12 -6 -37 -8 -59 -4
-29 5 -40 12 -44 31 -8 31 -31 31 -61 -1 -13 -15 -26 -22 -29 -16 -3 5 -14 7
-25 4 -10 -2 -35 0 -56 6 -30 8 -40 7 -52 -4 -18 -18 -30 -19 -36 -2 -4 9 -8
8 -16 -3 -8 -11 -13 -12 -22 -3 -7 7 -24 9 -41 6 -22 -4 -34 0 -53 21 -25 27
-45 27 -45 2 0 -7 -19 -18 -41 -25 -36 -11 -44 -10 -57 3 -11 11 -12 16 -4 16
7 0 12 7 12 16 0 14 -2 14 -15 0 -8 -8 -15 -20 -15 -27 0 -9 -3 -9 -15 1 -8 6
-23 9 -35 5 -14 -5 -20 -2 -20 9 0 20 -4 20 -41 1 -34 -18 -49 -13 -49 16 0
28 -43 22 -48 -6 -2 -11 -8 -24 -14 -30 -6 -6 -7 -4 -3 8 4 10 2 17 -4 17 -6
0 -11 -4 -11 -10 0 -17 -49 -11 -59 8 -7 13 -20 18 -48 16 -47 -2 -75 -13 -67
-26 4 -6 0 -14 -7 -19 -8 -4 -16 -4 -20 2 -7 12 -38 14 -61 4 -15 -6 -18 -2
-18 19 0 32 -22 34 -67 6 -23 -13 -33 -16 -33 -7 0 7 15 21 33 30 17 10 41 32
52 49 11 17 27 35 35 38 8 4 26 13 40 19 14 7 36 27 50 46 14 19 41 43 61 54
20 12 42 28 50 37 11 14 9 15 -17 12 -18 -2 -33 -11 -38 -24 -13 -29 -46 -50
-46 -30 0 8 5 18 10 21 6 3 10 10 10 16 0 18 -16 9 -32 -18 -42 -70 -98 -111
-98 -72 0 6 4 8 9 5 10 -6 71 58 71 74 0 23 -21 7 -41 -31 -14 -28 -24 -38
-31 -31 -7 7 -6 17 2 32 10 18 7 42 -3 29 -2 -2 -23 -29 -47 -59 -46 -59 -63
-68 -68 -32 -3 16 2 22 16 22 36 0 44 23 34 90 -12 80 -6 109 26 121 22 9 23
11 9 22 -14 10 -15 18 -6 50 6 21 7 52 3 70 -4 18 -7 35 -6 40 4 14 -16 7 -56
-23 -29 -21 -41 -37 -41 -52 2 -41 -23 -183 -32 -189 -6 -3 -21 -46 -34 -94
-14 -49 -29 -93 -34 -98 -5 -5 -7 -15 -5 -21 3 -7 -7 -23 -21 -36 -14 -13 -25
-29 -25 -36 0 -8 -12 -12 -30 -12 -37 1 -38 10 -5 32 14 9 25 22 25 29 0 7 -3
8 -8 2 -4 -5 -17 -16 -29 -23 -20 -10 -23 -10 -23 3 0 10 -7 15 -17 13 -12 -2
-18 3 -17 14 2 17 0 16 -25 -1 -18 -13 -37 -17 -59 -14 -32 5 -33 6 -15 26 18
20 18 20 -13 4 -17 -9 -36 -23 -43 -31 -8 -9 -28 -16 -45 -16 -31 1 -31 1 -10
18 12 9 29 22 38 27 10 6 13 15 8 23 -6 9 -25 0 -73 -33 -35 -25 -70 -45 -76
-45 -15 0 -17 26 -3 35 6 3 10 15 10 26 0 10 4 19 10 19 5 0 22 10 37 22 42
34 223 222 223 232 0 5 -8 0 -18 -10 -10 -10 -37 -37 -61 -59 -35 -32 -41 -35
-31 -15 19 37 161 180 179 180 10 0 4 -12 -19 -35 -18 -19 -34 -44 -35 -55 -1
-11 -12 -34 -24 -51 -30 -40 -19 -50 12 -13 80 94 87 101 80 74 l-5 -25 26 27
c14 15 26 33 26 40 0 9 -3 9 -10 -2 -8 -12 -10 -12 -16 3 -4 11 4 43 20 79 14
34 24 64 21 66 -3 3 -29 -20 -59 -51 -30 -31 -56 -51 -59 -44 -5 15 -30 -10
-73 -71 -21 -29 -34 -39 -38 -30 -4 10 -8 8 -18 -6 -22 -32 -109 -131 -116
-131 -13 0 0 100 14 108 8 4 14 14 14 21 0 7 9 25 21 40 23 30 34 103 18 123
-6 7 -9 23 -6 35 4 12 1 28 -5 35 -15 19 17 53 50 53 20 0 22 -2 12 -15 -10
-12 -5 -12 28 2 35 13 77 63 53 63 -6 0 -31 43 -31 54 0 2 18 -6 41 -17 36
-18 39 -22 34 -48z m1079 47 c-3 -9 -10 -16 -15 -16 -6 0 -5 9 1 21 13 24 24
20 14 -5z m-1676 -16 c9 0 23 -4 31 -9 12 -8 9 -16 -16 -45 -50 -56 -58 -112
-10 -69 12 11 32 23 45 26 l23 5 -20 -34 c-12 -19 -21 -44 -21 -54 0 -10 -11
-32 -25 -47 -24 -27 -24 -27 -25 -5 0 12 -4 22 -10 22 -12 0 -14 223 -2 234 4
4 8 1 10 -8 2 -9 11 -16 20 -16z m171 -11 c-20 -12 -22 -4 -8 23 12 21 13 21
17 4 2 -10 -2 -22 -9 -27z m2251 12 c-13 -26 -27 -34 -41 -25 -8 4 -4 13 12
25 31 24 42 24 29 0z m-1704 -38 c-4 -8 -12 -13 -20 -10 -7 3 -18 1 -24 -5 -7
-7 -12 -3 -17 11 -9 29 3 44 31 38 13 -2 25 1 25 7 1 6 3 3 6 -7 3 -10 2 -25
-1 -34z m1114 37 c0 -5 -4 -10 -10 -10 -5 0 -10 5 -10 10 0 6 5 10 10 10 6 0
10 -4 10 -10z m-1532 -19 c3 -8 -1 -12 -9 -9 -7 2 -15 10 -17 17 -3 8 1 12 9
9 7 -2 15 -10 17 -17z m130 -7 c0 -30 -41 -78 -75 -88 -24 -8 -36 -41 -37
-108 -1 -30 -8 -55 -18 -68 -20 -22 -23 -35 -8 -25 12 8 13 14 -6 -75 -10 -41
-17 -94 -18 -117 -1 -40 -5 -46 -56 -83 -59 -42 -101 -56 -62 -19 12 11 19 25
16 31 -5 8 -1 9 12 4 15 -6 16 -4 7 5 -9 9 -21 5 -51 -20 -57 -45 -112 -42
-60 4 16 13 18 20 9 23 -7 2 -23 -5 -35 -17 -13 -13 -35 -21 -55 -21 l-33 0 7
157 c6 133 10 160 26 177 11 11 19 23 19 28 0 4 9 8 20 8 11 0 20 4 20 10 0 5
6 7 14 4 8 -3 16 4 19 17 5 18 11 21 36 16 45 -9 38 10 -9 24 -42 13 -46 19
-31 48 10 18 1 43 -15 40 -33 -6 -49 23 -19 35 8 3 15 1 15 -5 0 -6 9 -8 19
-4 30 9 113 -15 107 -31 -9 -23 11 -16 38 13 22 24 26 25 32 9 4 -9 13 -15 20
-12 8 3 22 -3 31 -13 18 -19 19 -19 43 1 16 14 21 22 13 25 -22 8 -14 22 20
37 44 20 45 19 45 -10z m1618 -1 c-10 -10 -19 5 -10 18 6 11 8 11 12 0 2 -7 1
-15 -2 -18z m576 5 c-7 -7 -12 -8 -12 -2 0 14 12 26 19 19 2 -3 -1 -11 -7 -17z
m-1692 -34 c0 -7 -8 -10 -21 -7 -12 4 -18 11 -15 20 3 8 6 20 6 26 1 16 30
-23 30 -39z m263 11 c-3 -13 -11 -30 -19 -36 -11 -9 -14 -7 -14 9 0 11 -3 27
-6 36 -5 12 0 16 19 16 20 0 23 -4 20 -25z m203 -15 c11 0 14 6 9 23 -5 17 -4
19 4 7 6 -8 13 -13 17 -10 4 3 9 0 11 -7 4 -11 -34 -53 -48 -53 -13 0 -31 59
-22 72 6 9 9 7 11 -9 2 -13 10 -23 18 -23z m-292 24 c9 -3 16 -16 16 -28 -1
-19 -2 -20 -14 -4 -7 10 -16 15 -19 11 -4 -3 -7 1 -7 10 0 19 2 20 24 11z
m462 -21 c-10 -10 -19 5 -10 18 6 11 8 11 12 0 2 -7 1 -15 -2 -18z m961 10
c-9 -9 -19 -14 -23 -11 -10 10 6 28 24 28 15 0 15 -1 -1 -17z m-1237 -30 c0
-7 -11 -13 -25 -13 -18 0 -25 5 -25 19 0 11 8 21 18 23 18 4 32 -8 32 -29z
m394 20 c4 -4 17 -8 29 -8 15 0 23 -7 25 -22 3 -19 -1 -23 -25 -23 -33 0 -53
16 -53 42 0 18 11 24 24 11z m310 -8 c6 -18 -2 -45 -15 -45 -5 0 -9 14 -9 30
0 32 14 40 24 15z m716 -5 c0 -11 -7 -20 -15 -20 -15 0 -21 21 -8 33 12 13 23
7 23 -13z m-1370 -16 c0 -8 -4 -14 -10 -14 -5 0 -10 9 -10 21 0 11 5 17 10 14
6 -3 10 -13 10 -21z m570 17 c0 -6 -4 -13 -10 -16 -5 -3 -10 1 -10 9 0 9 5 16
10 16 6 0 10 -4 10 -9z m238 -23 c-1 -56 -48 -89 -48 -35 0 24 26 67 40 67 5
0 8 -15 8 -32z m-328 -8 c15 -37 41 -61 47 -42 3 6 10 12 16 12 6 0 19 7 29
17 17 15 18 15 18 -5 0 -13 -6 -22 -15 -22 -9 0 -18 -8 -22 -17 -3 -10 -15
-30 -25 -46 -11 -15 -18 -33 -15 -40 2 -6 0 -21 -6 -31 -10 -19 -10 -19 -24 0
-13 18 -15 18 -24 2 -14 -25 -39 -23 -39 3 0 18 -6 16 -46 -20 -26 -22 -51
-38 -56 -35 -5 3 -25 -11 -46 -31 l-37 -36 -3 62 c-2 42 2 68 12 85 9 13 16
30 16 39 0 8 12 28 28 43 29 31 62 47 62 32 0 -18 40 -32 55 -20 8 6 24 10 37
8 24 -3 24 -1 13 45 -10 37 9 35 25 -3z m598 -7 c-3 -32 -37 -43 -56 -20 -10
11 -9 17 3 27 12 10 15 9 15 -5 0 -9 6 -15 13 -12 6 2 11 12 11 21 -1 9 3 16
8 16 5 0 8 -12 6 -27z m212 2 c0 -7 7 -15 15 -18 18 -8 3 -40 -40 -86 -39 -41
-76 -43 -42 -2 23 28 36 67 26 82 -14 22 -11 37 9 42 22 5 32 -1 32 -18z
m-305 -39 c14 -32 17 -34 50 -29 47 8 45 -8 -6 -41 -23 -16 -38 -33 -36 -40
11 -27 -174 -169 -188 -146 -4 6 -11 7 -17 4 -7 -4 -8 2 -3 17 7 22 7 23 -11
9 -36 -29 -45 -40 -40 -49 8 -12 -41 -47 -78 -57 -16 -4 -25 -12 -22 -19 5
-13 -27 -49 -35 -40 -9 8 15 151 27 166 14 17 24 64 31 141 4 45 9 59 24 63
40 13 52 -20 19 -50 -21 -19 -26 -35 -12 -35 4 0 34 23 65 51 49 43 60 49 73
38 8 -7 13 -21 11 -30 -7 -26 21 -32 45 -9 12 11 32 20 45 20 20 0 23 5 23 35
0 45 17 45 35 1z m-785 15 c0 -5 -7 -14 -15 -21 -13 -10 -15 -9 -15 9 0 12 6
21 15 21 8 0 15 -4 15 -9z m1015 -6 c0 -12 -31 -19 -51 -11 -8 3 -12 11 -9 17
8 13 60 8 60 -6z m155 -165 c0 -141 -13 -190 -49 -190 -11 0 -24 -12 -31 -30
-17 -41 -27 -45 -22 -9 6 42 -15 36 -35 -11 -25 -57 -64 -70 -43 -15 6 16 10
47 9 70 -2 23 2 48 6 56 5 8 12 34 15 59 4 38 11 49 49 78 76 58 82 -2 9 -103
-42 -59 -44 -90 -2 -40 49 60 75 113 72 147 -4 39 -24 46 -70 24 -17 -9 -34
-14 -37 -11 -10 10 100 105 122 105 4 0 7 -59 7 -130z m-478 -102 c-7 -7 -12
-8 -12 -2 0 6 3 14 7 17 3 4 9 5 12 2 2 -3 -1 -11 -7 -17z m-342 -4 c0 -8 -4
-12 -10 -9 -5 3 -10 10 -10 16 0 5 5 9 10 9 6 0 10 -7 10 -16z m294 -55 c-27
-30 -37 -22 -12 12 12 16 24 25 26 19 2 -6 -4 -20 -14 -31z m-55 -6 c-34 -40
-189 -163 -189 -149 0 16 34 50 135 133 33 28 62 46 63 41 2 -5 -2 -16 -9 -25z
m571 -73 c-7 -16 -16 -30 -20 -30 -4 0 -22 -27 -39 -60 -43 -81 -23 -77 26 6
l38 66 3 -138 c3 -139 -1 -156 -35 -160 -10 -1 -26 -5 -37 -9 -16 -7 -17 -6
-7 14 9 17 9 21 -1 19 -7 -2 -14 7 -16 20 -4 28 -20 29 -24 0 -2 -14 -15 -25
-42 -35 -22 -7 -42 -11 -44 -8 -8 8 -3 88 6 94 5 3 11 14 15 24 3 9 14 17 24
17 15 0 89 93 87 109 0 3 8 15 18 25 10 11 18 24 18 28 0 14 32 59 38 54 2 -3
-1 -19 -8 -36z m-1600 16 c0 -2 -7 -9 -15 -16 -13 -11 -14 -10 -9 4 5 14 24
23 24 12z m-735 -26 c-3 -5 -11 -10 -16 -10 -6 0 -7 5 -4 10 3 6 11 10 16 10
6 0 7 -4 4 -10z m-51 -29 c3 -4 -12 -22 -32 -39 -28 -22 -45 -29 -65 -25 -27
5 -38 23 -14 24 6 0 28 11 47 24 37 26 56 30 64 16z m2216 -57 c-6 -14 -8 -30
-4 -35 3 -5 -2 -9 -10 -9 -17 0 -19 12 -10 48 4 12 12 22 20 22 10 0 11 -6 4
-26z m-2350 -43 c0 -10 -30 -24 -37 -17 -3 3 -2 9 2 15 8 13 35 15 35 2z
m-205 -61 c-13 -21 -25 -8 -25 28 l1 37 15 -28 c8 -15 12 -32 9 -37z m865 50
c0 -5 -4 -10 -10 -10 -5 0 -10 5 -10 10 0 6 5 10 10 10 6 0 10 -4 10 -10z
m-830 -15 c0 -8 -4 -15 -10 -15 -5 0 -7 7 -4 15 4 8 8 15 10 15 2 0 4 -7 4
-15z m350 -14 c0 -12 -28 -22 -34 -12 -3 5 -3 11 1 15 9 9 33 7 33 -3z m-110
-23 c0 -6 7 -20 17 -30 16 -18 8 -23 -21 -12 -10 4 -16 18 -16 36 0 17 4 27
10 23 6 -3 10 -11 10 -17z m190 0 c0 -28 -16 -39 -41 -29 l-24 10 23 7 c12 3
22 10 22 15 0 5 5 9 10 9 6 0 10 -6 10 -12z m94 -14 c4 -14 2 -32 -4 -39 -19
-23 9 -57 41 -50 17 4 39 -1 62 -14 32 -18 38 -18 51 -6 17 18 36 20 36 4 0
-6 10 -10 23 -9 12 1 24 1 27 0 3 -1 26 -3 52 -5 34 -3 48 0 52 11 3 7 15 14
26 14 14 0 20 -7 20 -24 0 -19 4 -22 25 -18 15 2 25 0 25 -8 0 -7 8 -9 21 -5
13 4 25 2 29 -5 13 -20 40 -3 40 24 0 28 17 40 69 50 30 5 33 4 28 -14 -3 -11
3 -30 13 -43 17 -20 20 -21 32 -5 16 20 93 27 110 10 17 -17 48 -15 48 4 0 8
-7 22 -15 30 -17 17 -20 50 -5 59 14 9 50 -32 50 -57 0 -13 5 -30 10 -38 8
-12 13 -13 30 -2 11 6 31 12 45 12 21 0 25 5 25 33 1 27 2 29 11 14 5 -9 7
-21 4 -27 -6 -10 29 -50 45 -50 15 0 12 32 -5 54 -21 28 -19 56 4 56 10 0 21
-7 25 -15 3 -8 12 -15 20 -15 8 0 16 -11 18 -27 2 -14 15 -35 29 -45 22 -17
29 -17 53 -7 l27 13 -31 12 c-37 16 -38 30 -2 37 34 6 55 -10 48 -37 -3 -12 3
-31 12 -44 15 -19 20 -21 35 -10 16 12 15 16 -5 56 -19 37 -20 44 -7 56 21 21
63 3 56 -24 -3 -11 4 -34 17 -52 21 -31 26 -33 72 -30 27 2 51 5 53 7 2 2 -6
19 -18 38 -27 45 -26 59 5 74 24 11 26 10 40 -25 32 -81 31 -80 95 -78 48 1
59 4 59 18 0 9 -4 20 -10 23 -15 9 -12 35 4 35 8 0 16 -16 20 -40 3 -22 16
-50 28 -62 20 -20 20 -22 3 -35 -16 -11 -16 -13 -3 -13 18 0 48 26 48 41 0 12
37 12 45 -1 13 -22 25 -8 25 30 0 48 17 54 22 8 5 -52 49 -68 192 -71 99 -2
116 0 116 13 0 9 -5 21 -12 28 -9 9 -8 12 4 12 9 0 19 -12 23 -27 3 -15 14
-33 24 -39 13 -9 16 -22 13 -44 -4 -27 -8 -31 -27 -26 -13 3 -25 2 -27 -3 -2
-4 -94 -11 -205 -14 -170 -4 -203 -3 -203 9 0 8 -4 14 -10 14 -5 0 -10 -4 -10
-10 0 -11 -68 -12 -115 -1 -16 4 -29 12 -28 19 4 15 -10 15 -50 -1 -38 -16
-134 -15 -164 2 -12 6 -30 8 -42 3 -12 -4 -63 -4 -114 -1 -50 4 -120 6 -154 5
-46 -2 -63 1 -63 11 0 17 -49 17 -55 1 -4 -10 -31 -11 -113 -6 -205 12 -246
19 -264 42 -14 17 -19 19 -29 9 -14 -14 -59 -17 -96 -7 -21 6 -21 6 -2 25 11
11 17 24 14 29 -8 13 -55 -18 -55 -36 0 -15 -31 -18 -92 -8 -28 5 -38 12 -38
25 0 12 -5 16 -15 13 -8 -4 -15 -13 -15 -21 0 -13 -12 -15 -71 -11 -39 3 -74
10 -78 16 -4 6 -12 7 -20 3 -7 -5 -21 -7 -30 -5 -9 1 -58 8 -108 15 -51 6 -93
15 -93 18 0 4 5 12 12 19 15 15 3 15 -25 0 -25 -14 -107 -22 -107 -10 0 4 24
22 54 39 50 30 53 35 52 69 -1 44 15 54 33 20 14 -26 52 -41 79 -31 10 3 32
26 50 50 38 52 47 55 56 19z m133 -26 c-3 -7 -5 -2 -5 12 0 14 2 19 5 13 2 -7
2 -19 0 -25z m1783 -13 c0 -13 -29 -29 -37 -21 -3 2 0 14 7 25 11 22 30 20 30
-4z m-2248 -33 c-6 -2 -48 -26 -93 -53 -45 -27 -84 -48 -86 -45 -3 2 14 21 37
42 23 21 58 53 77 70 l35 32 21 -21 c12 -12 16 -22 9 -25z m414 11 c-11 -11
-17 4 -9 23 7 18 8 18 11 1 2 -10 1 -21 -2 -24z m187 10 c6 -34 7 -34 -21 -26
-24 6 -28 23 -10 41 18 18 25 15 31 -15z m121 18 c22 -36 -48 -63 -76 -29 -10
11 -15 24 -12 29 7 12 81 12 88 0z m979 -16 c-3 -8 -9 -15 -14 -15 -10 0 -12
24 -3 33 11 11 24 -3 17 -18z m-1817 -1 c3 -8 -124 -94 -139 -94 -3 0 -4 19
-2 43 1 27 7 41 15 39 7 -1 18 2 25 8 9 8 14 8 17 -1 3 -9 12 -7 33 4 31 17
47 17 51 1z m605 -27 c-8 -8 -11 -5 -11 9 0 27 14 41 18 19 2 -9 -1 -22 -7
-28z m569 14 c0 -11 -9 -23 -21 -26 -31 -10 -35 2 -8 24 30 25 29 25 29 2z
m427 -13 c-3 -7 -5 -2 -5 12 0 14 2 19 5 13 2 -7 2 -19 0 -25z m-687 -8 c0
-13 -7 -20 -20 -20 -13 0 -20 7 -20 20 0 13 7 20 20 20 13 0 20 -7 20 -20z
m300 4 c0 -8 -4 -12 -10 -9 -5 3 -10 10 -10 16 0 5 5 9 10 9 6 0 10 -7 10 -16z
m804 -6 c10 -38 7 -46 -14 -41 -12 3 -20 14 -20 27 0 40 24 49 34 14z m-1819
-7 c0 -8 -29 -29 -65 -47 -68 -35 -90 -41 -90 -24 0 7 -7 7 -21 0 -39 -21 -42
-4 -3 20 21 13 41 28 43 33 2 5 7 4 11 -2 9 -15 40 -3 40 15 0 7 6 11 14 8 8
-3 17 0 21 6 10 15 50 8 50 -9z m1625 -1 c12 -22 5 -60 -10 -60 -11 0 -23 56
-15 70 9 14 13 13 25 -10z m-1840 -3 c0 -2 -18 -20 -39 -39 -24 -21 -44 -32
-52 -28 -8 5 2 18 31 39 38 28 60 38 60 28z m2210 -48 c0 -6 -7 -8 -16 -5 -9
4 -23 1 -30 -5 -14 -11 -20 1 -7 14 11 11 53 8 53 -4z m158 -24 c0 -30 -2 -33
-18 -25 -33 18 -33 60 0 60 14 0 18 -8 18 -35z m57 4 c8 -23 1 -34 -14 -24
-13 8 -15 45 -2 45 5 0 13 -9 16 -21z m88 0 c7 -27 -22 -38 -39 -14 -7 10 -11
22 -8 26 10 17 42 9 47 -12z m-2586 -57 c20 5 49 7 65 4 16 -3 49 0 74 6 32 9
52 9 73 1 16 -5 35 -7 42 -3 8 5 37 4 64 0 72 -13 351 -39 480 -45 61 -3 130
-10 155 -15 25 -4 104 -13 175 -20 72 -6 157 -15 190 -20 33 -4 76 -7 95 -5
42 4 49 0 43 -23 -5 -21 -18 -21 -230 -2 -62 6 -164 14 -225 20 -62 5 -167 14
-233 20 -66 5 -199 12 -295 15 -191 6 -333 20 -338 34 -1 4 -25 6 -52 3 -27
-2 -69 -1 -94 2 -39 6 -46 11 -46 29 1 19 2 20 10 5 8 -14 16 -15 47 -6z m101
-71 c16 -10 4 -71 -15 -78 -11 -4 -12 -8 -3 -13 9 -6 10 -42 5 -144 -6 -114
-10 -136 -23 -136 -14 0 -14 -1 0 -12 13 -10 15 -24 11 -60 l-6 -48 -62 0
c-94 0 -95 1 -94 84 0 49 3 65 9 51 5 -11 9 -15 9 -10 1 6 6 3 11 -5 6 -10 10
-11 10 -3 0 9 7 10 25 3 20 -7 25 -6 25 5 0 9 -10 15 -25 15 -14 0 -25 5 -25
10 0 6 -9 10 -20 10 -18 0 -20 7 -20 55 0 44 3 53 15 49 8 -4 15 -16 15 -28 1
-21 1 -21 15 -2 9 12 12 29 9 40 -4 11 -7 38 -7 60 l0 39 -18 -24 c-13 -16
-17 -33 -13 -49 4 -19 3 -22 -7 -13 -8 8 -9 27 -5 57 6 38 11 46 29 47 12 0
31 2 42 4 10 2 25 -1 32 -7 9 -7 13 -7 13 1 0 7 3 10 8 8 7 -5 -9 -244 -18
-262 -3 -5 -3 -32 1 -60 7 -61 6 -71 25 169 8 110 17 203 20 207 2 4 0 10 -6
14 -6 4 -10 -7 -10 -26 0 -27 -2 -30 -15 -19 -10 9 -15 9 -15 1 0 -12 -41 -15
-75 -5 -17 4 -20 12 -17 44 l4 38 77 0 c42 1 82 -3 89 -7z m125 -18 c3 -5 2
-23 0 -40 -5 -29 -9 -33 -34 -33 -23 0 -29 5 -30 23 -1 16 -2 18 -6 5 -8 -33
-33 -20 -33 17 l0 35 49 0 c28 0 52 -3 54 -7z m167 -51 l0 -48 -40 4 c-22 2
-40 8 -40 12 0 5 -16 6 -35 3 l-35 -6 0 42 0 41 75 0 75 0 0 -48z m1610 27
c191 -14 200 -16 200 -46 0 -20 -4 -23 -21 -18 -34 11 -239 15 -239 4 0 -14
-40 -11 -41 4 0 10 -2 10 -6 0 -2 -7 -9 -13 -14 -13 -6 0 -8 4 -5 9 4 7 -186
25 -234 22 -23 -1 -91 0 -124 3 -33 2 -44 19 -27 40 10 11 48 13 194 10 100
-3 243 -9 317 -15z m-1416 -16 c8 -31 26 -30 26 2 0 16 6 25 15 25 16 0 20
-36 9 -78 -6 -21 -10 -22 -65 -16 -33 3 -59 2 -59 -3 0 -5 15 -10 33 -11 80
-6 86 -15 69 -97 -7 -35 -11 -40 -35 -39 -72 3 -69 1 -62 44 4 26 3 40 -4 40
-6 0 -11 -15 -11 -34 0 -42 -3 -44 -57 -38 l-43 4 0 59 c0 60 6 67 53 60 4 0
7 4 7 9 0 6 -11 10 -25 10 -22 0 -25 4 -25 38 0 21 3 42 7 45 3 4 41 6 84 5
73 -1 78 -3 83 -25z m231 12 c39 -4 95 -8 125 -10 30 -2 83 -6 118 -10 60 -7
62 -9 62 -36 0 -38 13 -37 27 2 10 26 16 30 35 26 13 -3 58 -9 101 -13 43 -4
80 -10 82 -15 3 -4 1 -38 -5 -76 -6 -37 -19 -165 -30 -283 -10 -119 -23 -228
-29 -243 -10 -25 -13 -26 -58 -21 -36 4 -44 3 -33 -5 8 -6 32 -11 53 -11 35 0
37 -2 37 -32 0 -59 -2 -59 -156 -45 -113 10 -138 16 -135 27 2 8 6 27 9 42 l4
27 86 -4 c52 -3 82 -1 76 5 -5 5 -71 12 -146 16 l-138 7 0 38 0 37 83 -5 c45
-3 135 -13 200 -22 64 -9 117 -13 117 -9 0 4 -15 9 -32 12 -18 3 -60 10 -93
16 -33 5 -77 11 -97 12 -32 2 -38 6 -38 25 0 28 -26 31 -35 3 -11 -35 -95 -22
-95 14 0 20 4 21 86 17 48 -2 84 1 81 6 -3 4 -31 10 -64 11 -101 5 -98 4 -98
53 l0 44 40 1 c101 2 126 5 121 12 -2 4 -39 6 -82 5 l-77 -4 5 56 c3 30 7 57
10 60 3 3 36 3 72 -1 56 -6 66 -10 61 -23 -16 -42 -17 -71 -2 -71 8 0 17 13
20 30 4 16 15 38 27 50 l20 20 -23 5 c-25 5 -123 13 -180 14 l-39 1 7 43 c4
23 11 49 17 57 6 10 7 0 3 -27 -5 -28 -3 -43 4 -43 6 0 11 13 11 29 0 19 8 36
23 46 20 15 20 16 3 13 -18 -3 -20 2 -17 45 3 60 -15 62 -31 3 -11 -40 -13
-43 -37 -36 -34 9 -37 10 -61 10 -13 0 -20 7 -20 20 0 24 -8 26 -24 6 -12 -16
-24 -19 -79 -17 l-38 1 7 48 c9 63 10 64 53 58 20 -3 68 -8 106 -11z m1823
-29 c2 -3 -1 -21 -8 -41 -8 -26 -16 -35 -27 -31 -8 3 -39 6 -69 6 -51 0 -54 1
-54 25 0 30 -16 33 -23 4 -5 -20 -9 -21 -89 -14 -46 5 -92 9 -103 11 -11 1
-23 3 -27 3 -5 1 -8 10 -8 20 0 17 8 21 53 24 63 4 349 -1 355 -7z m34 -40
c-4 -35 -15 -46 -26 -27 -7 11 14 72 23 67 4 -3 5 -21 3 -40z m-1025 10 c77 0
104 -4 108 -14 4 -11 8 -12 19 -3 21 17 32 -6 13 -27 -14 -16 -30 -69 -32
-102 0 -8 -4 -37 -8 -65 -4 -27 -16 -137 -28 -244 -14 -127 -28 -208 -40 -235
-11 -26 -15 -44 -9 -50 6 -6 10 -28 10 -50 0 -39 -16 -156 -22 -162 -8 -8 -98
19 -98 29 0 7 5 44 11 82 12 80 15 106 24 225 4 47 9 88 12 93 2 4 0 7 -5 7
-9 0 -23 -90 -43 -285 -6 -60 -14 -113 -18 -117 -3 -3 -27 -4 -53 -1 -38 4
-48 10 -51 27 -4 21 -5 21 -12 -2 -9 -28 -38 -35 -90 -24 l-40 8 2 55 c4 78
13 120 24 114 5 -4 9 -1 9 4 0 6 -4 11 -10 11 -11 0 -14 49 -4 74 3 8 12 12
19 10 7 -3 16 0 21 7 4 8 3 10 -4 5 -7 -4 -16 -4 -22 -1 -16 10 17 63 42 68
17 3 14 5 -9 6 -36 1 -39 10 -27 70 4 19 13 31 23 31 14 0 14 2 1 10 -10 7
-11 13 -5 18 6 4 18 23 28 42 l16 35 -25 3 c-21 3 -25 8 -20 26 3 12 10 87 16
166 6 80 13 151 16 158 3 11 21 12 81 7 43 -4 124 -8 180 -9z m-1507 -60 c0
-60 -9 -84 -27 -73 -5 3 -6 35 -5 71 3 49 7 66 18 66 11 0 14 -16 14 -64z m60
15 c0 -22 3 -47 6 -56 5 -11 0 -18 -15 -22 -23 -6 -29 -23 -7 -23 19 0 23 -16
18 -79 -3 -42 -8 -54 -23 -58 -17 -5 -18 -7 -4 -17 12 -8 15 -24 13 -51 -2
-32 -7 -40 -23 -40 -18 0 -20 6 -19 75 5 278 9 310 35 310 15 0 19 -7 19 -39z
m77 31 c8 -5 10 -26 6 -65 -6 -55 -7 -58 -32 -55 -22 3 -26 7 -24 33 6 86 18
107 50 87z m106 -19 c8 -5 10 -84 2 -105 -4 -9 -19 -12 -50 -10 l-44 4 5 51
c8 78 9 80 46 72 18 -4 36 -9 41 -12z m1627 10 c0 -5 -9 -37 -20 -73 -22 -73
-25 -92 -9 -70 8 11 9 -1 5 -45 -35 -357 -38 -393 -28 -370 5 11 15 72 21 135
6 63 18 167 27 230 8 63 17 134 20 157 l5 41 75 -3 c42 -2 78 -6 81 -9 3 -3
-5 -43 -20 -88 -24 -79 -37 -125 -44 -158 -2 -8 -5 -44 -8 -80 l-5 -65 15 75
c30 155 64 273 86 293 21 20 27 20 121 10 55 -6 102 -13 104 -16 3 -2 -4 -33
-15 -68 -37 -119 -71 -292 -85 -434 -2 -27 -8 -72 -12 -100 -4 -34 -3 -47 4
-40 5 6 15 57 21 115 22 222 46 338 66 318 7 -6 -24 -358 -32 -371 -3 -4 -6
-33 -7 -64 0 -34 -6 -58 -13 -60 -16 -6 -29 -73 -16 -82 7 -4 7 -33 1 -81 -5
-41 -9 -114 -9 -162 l1 -88 -35 0 c-29 0 -35 4 -35 21 0 11 4 28 9 37 4 9 11
31 14 49 11 58 -21 27 -34 -34 -30 -133 -35 43 -9 287 5 47 12 125 15 175 6
104 38 326 58 405 23 87 29 130 18 130 -5 0 -12 -19 -16 -42 -4 -24 -15 -74
-25 -113 -10 -38 -28 -126 -40 -195 -12 -69 -26 -141 -31 -160 -5 -19 -9 -44
-8 -55 l0 -20 10 20 c8 18 4 -91 -7 -190 -2 -16 -4 -92 -5 -167 l-1 -137 -60
1 -60 1 6 135 c3 74 8 137 10 141 5 7 47 317 71 521 9 74 20 164 25 200 8 69
-4 108 -14 43 -3 -21 -15 -119 -27 -218 -11 -99 -29 -245 -40 -325 -25 -183
-36 -279 -44 -404 l-7 -98 -82 6 c-133 9 -125 5 -160 77 -31 64 -31 67 -24
170 10 169 39 426 78 714 5 39 9 84 9 100 l-1 30 -8 -30 c-14 -54 -48 -302
-51 -375 -1 -8 -7 -64 -15 -125 -7 -60 -19 -175 -25 -255 -6 -80 -13 -147 -15
-149 -2 -3 -10 1 -16 7 -7 7 -29 12 -50 12 -45 0 -45 0 -24 135 8 50 17 122
20 160 2 39 16 106 30 150 31 94 31 95 10 95 -14 0 -15 11 -9 78 4 42 10 93
15 112 5 19 11 66 15 103 5 53 10 67 21 63 8 -3 14 1 14 9 0 7 4 25 10 39 9
25 12 26 100 26 49 0 90 -3 90 -7z m-1265 -82 c-11 -71 -12 -72 -71 -70 -30 1
-54 6 -54 10 0 5 5 30 11 58 l10 50 55 -2 56 -2 -7 -44z m138 -12 c-3 -68 -7
-73 -56 -64 -23 4 -50 7 -61 7 -16 -1 -18 4 -12 40 11 66 23 78 31 30 8 -50
21 -54 30 -9 10 45 22 57 48 48 18 -7 22 -16 20 -52z m1621 55 c11 -4 13 -11
5 -31 -5 -13 -9 -34 -8 -46 0 -18 2 -17 11 8 17 49 35 63 69 56 32 -7 33 -8
24 -63 -7 -42 -8 -42 -37 -27 -15 8 -18 17 -14 35 4 13 2 24 -4 24 -5 0 -13
-15 -18 -32 -6 -25 -14 -32 -28 -30 -18 2 -18 2 -1 -8 23 -14 22 -55 -2 -72
-10 -7 -19 -17 -21 -23 -1 -5 -6 -20 -11 -33 -5 -13 -9 -30 -9 -38 0 -23 17
-16 24 11 4 14 11 25 17 25 7 0 9 -10 5 -25 -3 -13 -13 -87 -20 -164 -8 -77
-17 -144 -20 -150 -8 -12 -58 1 -64 17 -2 7 3 15 12 18 9 3 16 16 16 28 0 12
7 32 16 44 17 25 11 42 -15 42 -16 0 -17 6 -9 53 4 28 10 72 13 97 2 25 11 96
20 159 8 63 15 118 15 123 0 9 12 10 34 2z m-1707 -26 c-3 -8 -6 -5 -6 6 -1
11 2 17 5 13 3 -3 4 -12 1 -19z m1868 2 c4 -6 3 -44 0 -86 -6 -60 -11 -77 -27
-85 -12 -6 -24 -7 -29 -2 -8 8 1 93 16 161 6 23 29 30 40 12z m-224 -56 c-9
-28 -9 -29 -10 -3 -1 14 2 29 6 32 11 12 13 2 4 -29z m-2305 -31 c-4 -14 -7
-68 -7 -120 0 -86 -1 -93 -19 -93 -17 0 -20 7 -20 44 0 25 5 48 10 51 7 4 7
11 2 18 -5 7 -7 38 -5 70 5 49 8 57 25 57 17 0 19 -4 14 -27z m128 14 c15 -11
16 -22 10 -75 -6 -57 -9 -63 -28 -60 -18 3 -21 11 -24 62 -4 85 5 100 42 73z
m116 -51 c0 -76 -7 -86 -55 -86 l-43 0 5 58 c6 79 6 78 52 74 41 -4 41 -4 41
-46z m83 30 c26 -6 27 -9 27 -66 0 -59 -1 -60 -27 -60 -66 0 -73 8 -73 69 0
62 5 74 29 67 9 -2 28 -7 44 -10z m2218 -157 c-8 -20 -10 -16 -10 27 -1 28 2
73 7 100 7 48 7 48 10 -27 1 -41 -2 -86 -7 -100z m-2086 89 c-4 -35 -10 -66
-14 -71 -10 -11 -71 3 -71 17 1 6 7 22 15 36 8 14 14 37 15 53 0 24 4 27 31
27 l31 0 -7 -62z m129 25 c-19 -112 -17 -108 -56 -111 l-37 -3 5 73 c4 53 3
69 -5 58 -6 -8 -11 -38 -11 -67 0 -28 -5 -55 -11 -59 -9 -5 -10 10 -5 55 10
91 10 91 73 91 l54 0 -7 -37z m146 -8 l6 -30 7 33 c3 17 12 32 18 32 9 0 10
-18 5 -62 -3 -34 -7 -63 -9 -64 -8 -8 -172 -7 -172 1 1 19 16 119 20 125 2 3
30 3 62 0 55 -5 58 -7 63 -35z m1560 16 c0 -17 -5 -33 -11 -36 -15 -10 -17 -4
-12 33 6 40 23 42 23 3z m147 21 c10 -6 11 -27 5 -83 -7 -72 -8 -74 -36 -77
-28 -3 -29 -2 -22 28 3 18 6 39 6 46 0 8 10 15 23 15 16 1 18 2 5 6 -12 3 -18
14 -18 32 0 39 12 49 37 33z m71 -154 c-1 -44 -6 -72 -15 -79 -15 -13 -18 -55
-3 -64 19 -12 10 -22 -21 -22 l-31 0 6 71 c4 39 8 85 10 101 1 17 3 38 4 47 1
12 10 17 27 16 24 -2 24 -5 23 -70z m-2394 36 c11 -4 16 -19 16 -45 0 -37 -2
-39 -31 -39 -24 0 -30 3 -25 16 3 9 6 29 6 45 0 30 6 34 34 23z m116 -46 c0
-47 12 -45 15 2 2 17 5 33 8 36 2 3 35 0 73 -6 117 -18 116 -17 112 -53 -4
-40 -12 -41 -175 -32 l-123 7 0 44 0 44 45 0 45 0 0 -42z m240 -23 c0 -19 -4
-35 -10 -35 -5 0 -10 16 -10 35 0 19 5 35 10 35 6 0 10 -16 10 -35z m90 1 c0
-41 -6 -46 -43 -39 -23 5 -27 10 -27 39 0 32 2 34 35 34 33 0 35 -2 35 -34z
m56 12 c-3 -13 -6 -31 -6 -40 0 -11 -8 -18 -20 -18 -21 0 -25 16 -14 58 4 13
14 22 26 22 16 0 19 -5 14 -22z m142 -15 l-3 -38 -61 -3 -61 -3 10 41 11 40
54 0 53 0 -3 -37z m1673 -53 c-3 -72 -7 -84 -27 -76 -7 3 -16 1 -19 -4 -4 -6
3 -10 14 -10 19 0 21 -6 21 -58 0 -32 -2 -61 -5 -64 -3 -3 -17 -3 -31 0 l-26
5 7 111 c9 158 11 168 43 164 25 -3 26 -5 23 -68z m109 -5 c0 -52 -3 -65 -16
-65 -11 0 -14 6 -8 23 4 12 9 40 10 62 2 45 2 45 9 45 3 0 5 -29 5 -65z
m-2612 -10 l3 -50 -86 0 c-47 0 -85 3 -85 7 0 12 31 38 46 38 8 0 14 5 14 10
0 6 -12 9 -27 8 -20 -2 -28 2 -28 12 0 11 15 17 55 21 103 11 105 11 108 -46z
m52 0 c0 -32 -5 -47 -15 -52 -24 -8 -27 1 -20 51 10 63 35 63 35 1z m70 0 c0
-43 -1 -45 -30 -45 -29 0 -30 2 -30 45 0 43 1 45 30 45 29 0 30 -2 30 -45z
m70 0 c0 -22 -6 -38 -15 -41 -29 -11 -41 2 -37 40 4 30 8 36 28 36 21 0 24 -5
24 -35z m173 19 c31 -6 37 -11 37 -30 0 -24 -2 -24 -95 -24 l-95 0 0 30 c0 30
0 30 58 30 31 0 74 -3 95 -6z m135 -26 c-2 -17 -11 -24 -30 -26 -24 -3 -28 0
-28 22 0 22 4 26 31 26 26 0 30 -3 27 -22z m42 -3 c0 -16 -6 -25 -15 -25 -15
0 -21 31 -8 43 13 14 23 6 23 -18z m78 -2 c3 -19 -1 -23 -26 -23 -35 0 -41 5
-35 31 8 29 57 22 61 -8z m202 -10 l0 -25 -90 4 c-50 3 -93 8 -96 11 -3 3 -3
14 0 24 5 16 16 18 96 15 89 -3 90 -4 90 -29z m-330 -68 l0 -34 -122 -3 c-160
-4 -168 -2 -168 31 0 15 3 31 7 34 3 4 69 7 145 6 l138 0 0 -34z m48 0 c-1
-26 -7 -35 -20 -35 -19 0 -22 11 -12 48 10 37 35 27 32 -13z m72 -6 c0 -38 -2
-41 -22 -35 -13 3 -26 6 -30 6 -5 0 -8 16 -8 35 0 32 2 35 30 35 28 0 30 -2
30 -41z m32 1 c-6 -40 16 -40 29 0 11 29 12 30 81 30 l71 0 -6 -36 c-3 -20 -8
-39 -11 -41 -2 -3 -45 -1 -96 3 -74 5 -90 9 -86 21 3 8 6 26 6 39 0 14 4 23 8
20 5 -3 7 -19 4 -36z m-644 -2 l3 -28 -79 0 -79 0 -1 30 -1 31 77 -3 c76 -3
77 -3 80 -30z m42 2 c0 -20 -5 -30 -15 -30 -10 0 -15 10 -15 30 0 20 5 30 15
30 10 0 15 -10 15 -30z m62 0 c-5 -38 -42 -44 -42 -7 0 28 7 37 30 37 13 0 16
-7 12 -30z m88 0 c0 -25 -4 -30 -25 -30 -21 0 -25 5 -25 30 0 25 4 30 25 30
21 0 25 -5 25 -30z m2169 23 c0 -5 -4 -17 -9 -28 -8 -18 -9 -17 -9 8 -1 15 4
27 9 27 6 0 10 -3 9 -7z m204 -15 c-2 -5 -3 -30 -3 -58 0 -49 -1 -50 -30 -50
-26 0 -30 3 -30 29 0 16 3 43 6 60 6 27 11 32 33 29 14 -2 25 -6 24 -10z m47
-49 c0 -52 -2 -60 -17 -57 -10 2 -17 7 -15 11 1 4 2 30 2 57 0 38 4 50 15 50
12 0 15 -13 15 -61z m-2614 -10 c4 -8 9 -7 15 2 13 21 31 -4 27 -37 l-3 -29
-100 0 c-89 0 -100 2 -103 19 -6 29 14 41 81 47 34 3 65 7 69 7 4 1 10 -3 14
-9z m105 1 c5 0 9 -16 9 -35 0 -32 -2 -35 -30 -35 -27 0 -30 3 -30 33 0 38 8
50 28 42 7 -3 18 -5 23 -5z m85 -16 c-3 -9 -6 -27 -6 -40 0 -19 -5 -24 -25
-24 -22 0 -25 4 -25 40 0 38 1 40 31 40 24 0 30 -3 25 -16z m344 -30 l0 -44
-66 0 c-64 0 -66 1 -61 23 4 12 2 29 -4 37 -8 13 -11 12 -24 -4 -8 -11 -15
-28 -15 -38 0 -20 -34 -23 -120 -10 -47 7 -47 7 -41 70 1 10 39 12 166 11
l165 -1 0 -44z m82 23 c6 -9 8 -8 8 2 0 11 18 12 93 8 50 -4 93 -6 95 -7 1 0
2 -18 2 -41 l0 -40 -77 5 c-43 3 -102 5 -130 5 l-53 1 0 46 c0 45 1 46 27 39
15 -3 31 -12 35 -18z m298 -16 c-5 -11 -10 -29 -10 -40 0 -17 -6 -21 -34 -21
-42 0 -48 8 -40 49 6 29 9 31 51 31 40 0 43 -2 33 -19z m1470 -31 c16 0 19 -7
17 -55 -2 -47 -5 -55 -22 -56 -18 0 -17 -1 4 -10 21 -8 23 -13 16 -47 -4 -20
-8 -57 -9 -82 -1 -25 -3 -66 -4 -92 -2 -47 -3 -48 -34 -48 -68 0 -67 -9 -33
265 8 66 15 124 15 129 0 4 7 5 16 2 9 -3 24 -6 34 -6z m109 -17 c10 -17 10
-17 11 0 0 11 8 17 25 17 18 0 25 -5 25 -19 0 -11 -4 -22 -9 -25 -4 -3 -11
-24 -15 -46 -3 -22 -9 -40 -12 -40 -3 0 -25 5 -50 11 l-44 11 0 48 c0 25 3 50
7 53 13 13 52 7 62 -10z m121 -53 c0 -68 0 -69 -22 -61 -13 5 -22 13 -21 19 1
5 4 32 7 58 3 27 5 50 5 52 1 1 8 2 16 2 12 0 15 -14 15 -70z m-2634 50 l55 0
-6 -102 c-3 -57 -8 -123 -11 -148 -3 -29 -1 -40 5 -30 4 8 12 41 16 73 6 56 8
58 33 55 25 -3 27 -6 24 -43 -2 -40 -2 -40 12 -15 15 24 15 23 16 -37 0 -34
-3 -64 -7 -66 -5 -2 -32 -2 -61 1 l-53 4 3 144 c1 79 -1 146 -5 150 -4 4 -8
-11 -8 -34 -3 -64 -3 -66 -14 -74 -5 -4 -38 -5 -72 -1 -64 6 -78 -2 -49 -26
11 -9 20 -9 35 -2 11 6 36 11 55 11 l36 0 0 -78 c0 -43 -2 -81 -5 -84 -3 -3
-22 -2 -43 1 -48 9 -72 3 -72 -16 0 -9 6 -13 14 -10 12 5 13 -1 9 -29 -5 -30
-3 -34 16 -34 16 0 21 6 21 25 0 14 -4 25 -10 25 -5 0 -10 5 -10 10 0 16 66
12 80 -5 9 -11 9 -15 1 -15 -9 0 -9 -5 -1 -21 9 -16 14 -18 26 -8 8 6 14 20
14 31 0 15 6 19 27 16 25 -3 28 -7 28 -40 0 -20 -3 -34 -8 -31 -4 2 -10 -3
-13 -11 -10 -26 -69 -21 -82 7 l-11 22 0 -22 c-1 -19 -8 -22 -60 -25 l-59 -3
-7 105 c-12 172 -12 243 3 248 6 2 12 16 11 30 0 24 -1 25 -9 7 -8 -18 -9 -17
-9 7 -1 41 17 44 55 7 19 -18 34 -28 34 -22 0 6 -7 16 -15 23 -20 17 -20 44 1
36 9 -3 40 -6 70 -6z m126 -73 l-3 -73 -30 4 c-27 4 -29 6 -28 56 1 74 6 86
37 86 l27 0 -3 -73z m70 3 c-4 -72 -10 -84 -36 -74 -15 6 -17 15 -12 52 3 25
6 56 6 69 0 20 4 24 23 21 21 -3 22 -7 19 -68z m265 50 l93 0 0 -42 c0 -24 -3
-60 -7 -82 l-6 -38 -71 5 c-39 4 -110 9 -158 13 -47 4 -91 10 -97 14 -8 5 -10
28 -5 75 l7 68 75 -7 c41 -3 117 -6 169 -6z m157 -48 c-9 -71 -24 -112 -41
-112 -13 0 -15 12 -10 78 4 42 6 78 7 79 1 4 36 9 42 6 4 -2 5 -25 2 -51z
m201 -42 l0 -85 -65 4 c-36 2 -76 5 -90 6 -14 2 -31 4 -39 4 -9 1 -10 5 -3 14
5 6 13 28 17 47 3 19 11 50 17 68 l10 33 76 -3 77 -3 0 -85z m323 63 c91 -5
102 -8 102 -25 0 -10 -7 -21 -15 -24 -8 -3 -17 -25 -20 -48 -8 -53 -12 -58
-51 -72 -50 -18 -56 -7 -49 82 3 53 2 72 -4 59 -5 -11 -10 -34 -10 -51 -1 -17
-4 -46 -7 -63 -6 -28 -10 -31 -46 -31 -32 0 -41 4 -45 21 -6 20 -7 21 -18 5
-11 -14 -22 -15 -76 -9 -41 5 -64 12 -63 21 1 6 2 44 3 83 l1 72 98 -7 c53 -4
143 -9 200 -13z m1385 -69 c35 -6 37 -8 37 -45 l0 -39 -47 -2 -48 -1 45 -6 45
-6 5 -67 c7 -91 20 -98 20 -10 0 68 1 72 23 73 l22 0 -22 11 c-17 8 -23 20
-23 45 0 33 6 38 34 27 13 -5 16 -26 16 -125 l0 -119 -65 0 c-36 0 -65 2 -65
6 0 3 10 23 22 44 13 21 19 42 15 46 -10 11 -30 -11 -43 -48 -10 -30 -53 -55
-68 -40 -9 8 -7 135 2 148 4 6 14 14 22 17 12 4 11 6 -2 6 -14 1 -18 10 -18
39 0 21 3 42 7 45 8 9 37 9 86 1z m-2340 -99 l-2 -50 11 48 c11 53 7 51 113
37 39 -5 108 -10 154 -11 l83 -3 -6 -60 c-3 -32 -6 -70 -6 -83 0 -20 -4 -23
-20 -18 -11 3 -33 7 -50 7 l-30 1 -1 66 c0 74 -17 59 -18 -16 -1 -41 -3 -43
-30 -43 -36 0 -40 10 -27 71 5 27 6 52 2 56 -12 13 -33 -25 -41 -72 -7 -50 -9
-51 -112 -39 l-53 7 0 79 c0 70 2 79 17 76 14 -2 17 -13 16 -53z m1047 33 c0
-19 -18 -43 -25 -36 -4 3 -2 16 5 27 12 24 20 27 20 9z m-640 -35 c0 -16 1
-16 13 0 11 16 24 17 110 11 l97 -7 0 -29 c0 -24 -6 -31 -40 -44 -22 -9 -49
-27 -59 -40 -18 -23 -41 -18 -26 5 3 5 0 13 -7 17 -7 4 -10 4 -6 0 3 -4 2 -21
-4 -38 -8 -24 -15 -29 -32 -24 -11 3 -36 6 -53 6 -33 0 -33 0 -33 49 0 68 10
111 26 111 8 0 14 -8 14 -17z m270 -8 c0 -1 -7 -8 -15 -15 -13 -10 -15 -9 -15
8 0 15 5 20 15 16 8 -4 15 -7 15 -9z m88 -2 c18 -4 20 -8 10 -14 -22 -14 -58
-10 -58 6 0 16 12 18 48 8z m-581 -132 c37 -5 48 -11 47 -24 -1 -9 2 -17 7
-17 5 0 9 10 10 23 0 12 3 16 6 9 3 -8 0 -24 -6 -35 -11 -21 -17 -22 -131 -19
-96 3 -120 6 -120 18 0 8 -5 13 -12 12 -6 -2 -13 9 -14 24 l-3 27 84 -5 c46
-3 105 -9 132 -13z m-236 -64 c-8 -8 -11 -2 -11 19 0 40 14 54 18 19 2 -15 -1
-32 -7 -38z m394 19 c0 -26 -4 -29 -37 -33 -36 -3 -38 -2 -38 25 0 37 8 44 45
40 26 -3 30 -7 30 -32z m1863 18 c14 -3 22 -12 22 -25 0 -11 7 -22 15 -26 23
-8 33 7 12 18 -9 6 -17 15 -17 21 0 7 26 8 88 3 48 -4 93 -8 100 -8 7 0 12
-14 12 -33 0 -31 -2 -33 -42 -39 -24 -3 -74 -5 -113 -4 -38 1 -89 -1 -111 -4
-37 -6 -43 -4 -48 16 -7 27 -8 82 -1 89 5 5 33 2 83 -8z m-1743 -24 c0 -21 -4
-24 -25 -22 -33 5 -34 6 -20 32 15 29 45 22 45 -10z m295 -40 c7 0 11 -3 7 -6
-3 -3 -19 -3 -36 1 -21 4 -28 11 -24 21 5 13 8 13 23 -1 9 -8 23 -15 30 -15z"/>
<path d="M860 3831 c0 -11 -115 -35 -134 -28 -17 7 -96 -22 -96 -34 0 -14 63
-20 105 -11 l40 10 -45 2 c-41 2 -38 4 41 20 47 9 91 20 98 24 14 9 15 26 1
26 -5 0 -10 -4 -10 -9z"/>
<path d="M1200 3810 c0 -5 5 -10 10 -10 6 0 10 5 10 10 0 6 -4 10 -10 10 -5 0
-10 -4 -10 -10z"/>
<path d="M461 3788 c-1 -21 -27 -24 -35 -5 -3 6 -4 3 -3 -8 2 -12 10 -19 21
-18 12 1 16 -4 11 -15 -14 -33 -18 -92 -7 -92 6 0 12 14 14 32 3 28 8 33 37
39 40 8 53 26 40 52 -10 17 -8 17 13 7 21 -12 22 -11 7 5 -15 15 -19 15 -52 1
-33 -13 -36 -13 -40 2 -4 15 -5 15 -6 0z"/>
<path d="M800 3780 c-23 -7 -23 -8 -3 -9 12 -1 25 4 28 9 3 6 5 10 3 9 -2 -1
-14 -5 -28 -9z"/>
<path d="M1150 3762 c0 -4 6 -14 13 -21 9 -11 9 -14 0 -18 -7 -3 -23 -13 -35
-23 -19 -15 -20 -20 -9 -34 16 -20 7 -48 -15 -44 -28 5 -41 -28 -23 -60 13
-23 21 -27 60 -27 26 0 54 -7 69 -17 30 -22 44 -22 75 -2 24 16 35 54 15 54
-5 0 -10 -9 -10 -20 0 -12 -9 -22 -24 -26 -30 -7 -69 13 -62 32 6 15 -9 20
-18 5 -9 -15 -68 -22 -82 -10 -8 6 -14 22 -14 35 0 17 6 23 28 26 28 3 34 22
17 60 -5 14 2 21 32 35 21 10 40 19 43 21 5 4 -41 41 -52 42 -5 0 -8 -4 -8 -8z"/>
<path d="M590 3672 c0 -10 -5 -23 -12 -30 -6 -6 -8 -15 -4 -19 10 -10 36 25
36 49 0 10 -4 18 -10 18 -5 0 -10 -8 -10 -18z"/>
<path d="M673 3670 c2 -11 19 -42 39 -68 20 -26 44 -63 53 -82 10 -19 20 -29
22 -23 7 21 -29 106 -59 138 -15 16 -26 31 -24 32 2 2 23 7 47 12 l44 9 -62 1
c-58 1 -63 -1 -60 -19z"/>
<path d="M354 3664 c-19 -15 -18 -15 4 -11 12 3 22 1 22 -4 0 -16 19 -9 30 11
9 17 8 20 -13 20 -13 0 -32 -7 -43 -16z"/>
<path d="M240 3620 c-36 -27 -22 -29 30 -3 38 18 41 22 20 22 -14 0 -36 -8
-50 -19z"/>
<path d="M350 3619 c-15 -28 -4 -38 15 -13 17 22 19 34 5 34 -5 0 -14 -9 -20
-21z"/>
<path d="M385 3610 c-9 -16 -12 -30 -7 -30 13 0 39 24 45 43 11 30 -21 19 -38
-13z"/>
<path d="M460 3610 c12 -22 64 -27 90 -9 11 7 5 8 -21 4 -26 -5 -40 -2 -52 9
-22 22 -30 20 -17 -4z"/>
<path d="M610 3588 c1 -19 117 -144 126 -135 4 4 -6 22 -22 40 -17 17 -43 49
-58 70 -27 37 -46 48 -46 25z"/>
<path d="M417 3579 c-9 -6 -15 -15 -11 -20 3 -6 -3 -20 -14 -32 -20 -22 -42
-60 -42 -72 0 -15 59 41 59 57 1 9 12 25 26 36 41 32 27 57 -18 31z"/>
<path d="M506 3544 c-9 -24 -7 -28 9 -14 17 14 20 30 6 30 -5 0 -12 -7 -15
-16z"/>
<path d="M520 3509 c-24 -46 -20 -66 4 -22 l15 28 2 -50 c1 -40 3 -45 9 -25
12 36 12 110 0 110 -5 0 -19 -18 -30 -41z"/>
<path d="M421 3444 c0 -11 3 -14 6 -6 3 7 2 16 -1 19 -3 4 -6 -2 -5 -13z"/>
<path d="M1321 3226 c-19 -22 2 -26 28 -5 22 18 22 19 3 19 -11 0 -25 -6 -31
-14z"/>
<path d="M1095 3210 c3 -5 16 -10 28 -10 18 0 19 2 7 10 -20 13 -43 13 -35 0z"/>
<path d="M2470 3650 c0 -14 15 -19 29 -11 9 6 7 10 -8 14 -12 3 -21 1 -21 -3z"/>
<path d="M2510 3630 c-8 -5 -5 -9 8 -12 11 -3 25 -2 32 2 8 5 5 9 -8 12 -11 3
-25 2 -32 -2z"/>
<path d="M2580 3599 c19 -6 51 -25 70 -44 19 -18 51 -41 70 -50 19 -10 41 -26
48 -37 15 -21 80 -51 93 -42 14 8 0 24 -22 24 -11 0 -32 12 -47 28 -14 15 -43
36 -63 47 -20 11 -53 33 -72 48 -20 16 -52 30 -74 32 l-38 5 35 -11z"/>
<path d="M2077 3833 c-10 -9 -8 -43 2 -43 5 0 14 6 20 14 8 10 8 16 -2 25 -8
6 -17 8 -20 4z"/>
<path d="M2120 3820 c0 -5 5 -10 11 -10 5 0 7 5 4 10 -3 6 -8 10 -11 10 -2 0
-4 -4 -4 -10z"/>
<path d="M1945 3809 c-10 -15 -2 -19 23 -12 12 3 19 9 16 14 -7 12 -31 11 -39
-2z"/>
<path d="M2082 3563 c-28 -6 -101 -74 -85 -80 7 -2 37 14 68 38 53 40 64 51
48 48 -5 -1 -18 -4 -31 -6z"/>
<path d="M770 2309 c0 -5 5 -7 10 -4 6 3 10 8 10 11 0 2 -4 4 -10 4 -5 0 -10
-5 -10 -11z"/>
<path d="M1512 2274 c-12 -8 -27 -25 -34 -37 -8 -15 0 -11 25 13 21 19 37 36
37 37 0 6 -6 3 -28 -13z"/>
<path d="M1258 2165 c-53 -49 -71 -76 -50 -75 18 2 114 98 111 113 -3 11 -20
1 -61 -38z"/>
<path d="M1435 2202 c-19 -14 -48 -52 -39 -51 5 0 19 13 32 30 24 29 25 35 7
21z"/>
<path d="M1417 2109 c-32 -28 -49 -59 -31 -59 7 0 64 39 82 57 13 13 9 33 -7
33 -4 0 -24 -14 -44 -31z"/>
<path d="M1323 2090 c-39 -34 -55 -61 -35 -60 17 1 95 81 86 89 -5 6 -27 -6
-51 -29z"/>
<path d="M682 1998 c-7 -7 -12 -16 -12 -20 0 -15 15 -8 28 12 13 22 3 27 -16
8z"/>
<path d="M717 1943 c-10 -9 -9 -23 2 -23 5 0 11 7 15 15 5 15 -5 20 -17 8z"/>
<path d="M806 1933 c-6 -14 -5 -15 5 -6 7 7 10 15 7 18 -3 3 -9 -2 -12 -12z"/>
<path d="M753 1908 c-4 -7 -14 -24 -21 -37 -11 -22 -11 -22 5 -10 44 35 53 44
53 51 0 13 -28 9 -37 -4z"/>
<path d="M828 1874 c-16 -8 -28 -21 -28 -29 0 -20 8 -19 47 8 52 35 37 52 -19
21z"/>
<path d="M1263 1844 c-32 -14 -52 -34 -34 -34 19 0 60 23 65 36 3 8 4 14 3 13
-1 0 -16 -7 -34 -15z"/>
<path d="M1422 1840 c-41 -25 -43 -46 -3 -25 30 15 47 33 39 40 -2 2 -18 -5
-36 -15z"/>
<path d="M1730 1760 c-8 -5 -12 -12 -8 -15 9 -9 48 4 48 16 0 12 -21 11 -40
-1z"/>
<path d="M315 2379 c-11 -17 1 -21 15 -4 8 9 8 15 2 15 -6 0 -14 -5 -17 -11z"/>
<path d="M410 2370 c0 -5 7 -10 15 -10 8 0 15 5 15 10 0 6 -7 10 -15 10 -8 0
-15 -4 -15 -10z"/>
<path d="M440 2245 c-11 -13 -10 -14 4 -9 9 3 16 10 16 15 0 13 -6 11 -20 -6z"/>
<path d="M268 2233 c-23 -27 -30 -43 -20 -43 11 0 46 50 39 56 -2 2 -11 -4
-19 -13z"/>
<path d="M285 2190 c-10 -11 -14 -20 -9 -20 5 0 15 9 22 20 7 11 11 20 9 20
-2 0 -12 -9 -22 -20z"/>
<path d="M326 2135 c-11 -8 -17 -17 -14 -20 2 -3 13 4 23 15 21 23 18 25 -9 5z"/>
<path d="M380 2124 c0 -8 5 -12 10 -9 6 3 10 10 10 16 0 5 -4 9 -10 9 -5 0
-10 -7 -10 -16z"/>
<path d="M183 1950 c-35 -32 -42 -50 -19 -50 15 0 66 55 66 71 0 16 -14 10
-47 -21z"/>
<path d="M387 1939 c-9 -6 -17 -17 -17 -25 0 -11 5 -10 22 6 24 22 22 34 -5
19z"/>
<path d="M2472 2260 c-12 -10 -28 -20 -35 -23 -9 -4 -9 -7 0 -18 11 -10 18 -8
43 16 44 43 38 64 -8 25z"/>
<path d="M2192 2097 c-26 -27 -28 -37 -7 -37 17 0 55 35 55 50 0 18 -26 11
-48 -13z"/>
<path d="M2550 1459 c-25 -3 -39 -7 -31 -7 8 -1 11 -8 7 -18 -5 -14 -1 -16 31
-10 21 3 46 6 56 6 9 0 17 4 17 10 0 17 -34 26 -80 19z"/>
<path d="M2695 1450 c-4 -6 14 -10 47 -9 42 1 48 3 28 9 -36 12 -68 12 -75 0z"/>
<path d="M2813 1435 c0 -8 4 -12 9 -9 4 3 8 9 8 15 0 5 -4 9 -8 9 -5 0 -9 -7
-9 -15z"/>
<path d="M160 1176 c0 -9 30 -14 35 -6 4 6 -3 10 -14 10 -12 0 -21 -2 -21 -4z"/>
<path d="M121 1104 c0 -11 3 -14 6 -6 3 7 2 16 -1 19 -3 4 -6 -2 -5 -13z"/>
<path d="M655 1280 c3 -5 11 -10 16 -10 6 0 7 5 4 10 -3 6 -11 10 -16 10 -6 0
-7 -4 -4 -10z"/>
<path d="M1260 1293 c0 -21 3 -24 9 -14 5 8 7 20 4 28 -8 21 -13 15 -13 -14z"/>
<path d="M1386 1260 c-9 -22 -15 -55 -15 -73 1 -20 3 -25 6 -13 3 11 11 26 19
34 8 7 14 21 14 30 0 9 3 27 6 40 11 38 -13 24 -30 -18z"/>
<path d="M1260 1234 c0 -8 5 -12 10 -9 6 4 8 11 5 16 -9 14 -15 11 -15 -7z"/>
<path d="M1360 1132 c0 -10 -3 -21 -6 -25 -3 -3 -8 -30 -10 -59 -2 -41 -1 -48
7 -30 12 30 24 132 15 132 -3 0 -6 -8 -6 -18z"/>
<path d="M1330 975 c-11 -13 -5 -15 51 -13 54 1 57 2 19 5 -24 3 -47 9 -51 14
-3 6 -11 4 -19 -6z"/>
<path d="M1455 961 c6 -11 45 -10 45 1 0 4 -12 8 -26 8 -14 0 -23 -4 -19 -9z"/>
<path d="M1295 860 l-30 -6 30 -7 c17 -3 41 -5 55 -3 14 2 44 4 68 5 23 0 42
5 42 11 0 10 -113 10 -165 0z"/>
<path d="M1475 860 c-3 -5 -1 -10 4 -10 6 0 11 5 11 10 0 6 -2 10 -4 10 -3 0
-8 -4 -11 -10z"/>
<path d="M1833 1268 c-7 -15 -19 -60 -27 -101 -9 -41 -19 -83 -23 -92 -4 -12
-3 -16 5 -11 6 3 14 1 18 -5 10 -17 24 10 24 47 0 17 5 45 11 61 5 17 9 53 7
79 -3 47 -3 47 -15 22z"/>
<path d="M1730 1218 c0 -25 3 -29 10 -18 13 20 13 50 0 50 -5 0 -10 -15 -10
-32z"/>
<path d="M1581 1166 c-13 -53 -14 -86 -3 -86 10 0 43 111 36 122 -11 18 -22 6
-33 -36z"/>
<path d="M1900 1181 c-6 -17 -10 -36 -8 -43 3 -7 10 4 17 25 16 46 9 60 -9 18z"/>
<path d="M1882 1085 c0 -16 2 -22 5 -12 2 9 2 23 0 30 -3 6 -5 -1 -5 -18z"/>
<path d="M1863 996 c-5 -25 -6 -51 -2 -58 5 -7 9 -8 10 -3 4 45 8 105 5 105
-1 0 -7 -20 -13 -44z"/>
<path d="M1841 835 c-6 -42 -11 -88 -10 -103 0 -24 1 -25 8 -7 10 23 25 185
18 185 -2 0 -10 -34 -16 -75z"/>
<path d="M1538 563 c6 -2 18 -2 25 0 6 3 1 5 -13 5 -14 0 -19 -2 -12 -5z"/>
<path d="M1621 493 c-1 -6 -4 -20 -7 -30 -5 -17 -5 -17 6 0 6 10 9 23 6 30 -3
9 -5 9 -5 0z"/>
<path d="M2265 1250 c-3 -5 -3 -14 0 -20 3 -5 1 -47 -6 -92 -15 -114 -29 -247
-34 -347 -3 -46 -12 -113 -20 -149 -9 -36 -12 -69 -7 -74 4 -4 0 -59 -9 -121
-23 -146 -24 -227 -4 -227 8 0 15 5 15 11 0 5 -5 7 -11 3 -9 -5 -10 7 -5 47 4
30 14 104 22 164 8 61 17 133 19 160 10 150 28 274 43 303 14 26 14 34 4 41
-15 9 -11 85 6 118 14 25 16 63 4 63 -4 0 -6 29 -4 65 4 62 1 77 -13 55z"/>
<path d="M2240 1204 c-16 -40 -42 -182 -38 -202 2 -10 9 12 16 48 7 36 19 90
27 120 15 60 12 80 -5 34z"/>
<path d="M2030 1156 c-15 -42 -11 -55 6 -17 8 19 12 36 9 39 -2 3 -9 -7 -15
-22z"/>
<path d="M2545 1140 c3 -5 10 -10 16 -10 5 0 9 5 9 10 0 6 -7 10 -16 10 -8 0
-12 -4 -9 -10z"/>
<path d="M2017 1093 c-4 -3 -7 -16 -6 -27 0 -19 1 -19 10 3 10 24 8 36 -4 24z"/>
<path d="M2131 1081 c-7 -12 -7 -22 -2 -26 5 -3 13 4 16 16 9 28 -1 36 -14 10z"/>
<path d="M1957 1072 c-8 -12 -12 -91 -4 -98 9 -9 27 41 27 77 0 27 -13 39 -23
21z"/>
<path d="M2002 1020 c0 -14 2 -19 5 -12 2 6 2 18 0 25 -3 6 -5 1 -5 -13z"/>
<path d="M2122 1015 c0 -16 2 -22 5 -12 2 9 2 23 0 30 -3 6 -5 -1 -5 -18z"/>
<path d="M1985 943 c-3 -27 -8 -66 -11 -88 -3 -25 -2 -36 4 -30 6 6 13 45 17
88 7 84 0 107 -10 30z"/>
<path d="M2106 943 c-10 -56 -25 -244 -30 -358 -4 -84 -3 -90 4 -35 4 36 11
101 14 145 4 44 11 124 17 179 10 97 7 143 -5 69z"/>
<path d="M2278 845 c-2 -19 0 -35 4 -35 4 0 8 16 8 35 0 19 -2 35 -4 35 -2 0
-6 -16 -8 -35z"/>
<path d="M1973 765 c0 -22 2 -30 4 -17 2 12 2 30 0 40 -3 9 -5 -1 -4 -23z"/>
<path d="M2171 784 c0 -11 3 -14 6 -6 3 7 2 16 -1 19 -3 4 -6 -2 -5 -13z"/>
<path d="M2273 755 c0 -22 2 -30 4 -17 2 12 2 30 0 40 -3 9 -5 -1 -4 -23z"/>
<path d="M2172 730 c0 -14 2 -19 5 -12 2 6 2 18 0 25 -3 6 -5 1 -5 -13z"/>
<path d="M1960 694 c0 -14 4 -23 10 -19 6 3 10 15 10 26 0 10 -4 19 -10 19 -5
0 -10 -12 -10 -26z"/>
<path d="M2166 684 c-3 -9 -2 -23 4 -32 7 -14 9 -10 10 16 0 35 -5 41 -14 16z"/>
<path d="M2267 684 c-4 -4 -7 -17 -7 -28 1 -19 1 -20 11 -3 11 19 8 43 -4 31z"/>
<path d="M1950 601 c0 -15 -2 -57 -5 -92 -4 -52 -3 -56 4 -24 17 80 22 145 11
145 -5 0 -10 -13 -10 -29z"/>
<path d="M2116 599 c-11 -51 -26 -182 -22 -186 7 -7 15 28 26 116 9 79 7 123
-4 70z"/>
<path d="M2141 454 c-7 -23 -11 -48 -8 -55 7 -20 29 40 25 70 -3 23 -5 21 -17
-15z"/>
<path d="M2108 337 c-10 -21 -14 -37 -9 -37 16 0 33 29 29 51 -3 19 -5 17 -20
-14z"/>
<path d="M405 330 c3 -5 8 -10 11 -10 2 0 4 5 4 10 0 6 -5 10 -11 10 -5 0 -7
-4 -4 -10z"/>
<path d="M807 327 c-11 -29 -9 -53 4 -40 6 6 9 21 7 34 -3 21 -4 22 -11 6z"/>
</g>
</svg>
