<?xml version="1.0" standalone="no"?>
<!DOCTYPE svg PUBLIC "-//W3C//DTD SVG 20010904//EN"
 "http://www.w3.org/TR/2001/REC-SVG-20010904/DTD/svg10.dtd">
<svg version="1.0" xmlns="http://www.w3.org/2000/svg"
 width="305.000000pt" height="383.000000pt" viewBox="0 0 305.000000 383.000000"
 preserveAspectRatio="xMidYMid meet">
<metadata>
Created by potrace 1.16, written by Peter Selinger 2001-2019
</metadata>
<g transform="translate(0.000000,383.000000) scale(0.100000,-0.100000)"
fill="#000000" stroke="none">
<path d="M230 3781 c-47 -4 -101 -14 -121 -23 -33 -16 -37 -21 -42 -70 -4 -29
-7 -70 -7 -90 0 -34 -3 -38 -25 -38 -14 0 -25 -5 -25 -11 0 -7 10 -9 25 -7 24
5 25 3 26 -51 0 -31 3 -118 5 -194 4 -133 4 -139 -16 -144 -11 -3 -20 -10 -20
-15 0 -5 10 -6 22 -3 21 7 21 6 13 -66 -13 -125 -1 -1017 15 -1094 5 -22 11
-175 14 -340 8 -370 13 -494 32 -705 13 -153 24 -753 15 -828 -5 -38 7 -54 40
-53 13 0 76 3 139 5 63 3 219 7 345 10 127 3 311 9 411 12 134 5 183 4 188 -5
5 -8 32 -10 89 -6 45 3 112 8 149 10 54 4 67 2 72 -11 5 -13 19 -15 89 -9 70
6 234 8 352 4 75 -2 655 -3 784 -1 86 2 150 7 158 13 7 6 19 9 28 5 8 -3 19 2
24 12 5 9 8 163 7 342 0 179 -4 309 -7 290 -5 -26 -7 -15 -8 38 0 42 3 71 8
68 15 -10 17 10 8 107 -4 51 -9 157 -11 237 -6 243 -10 348 -16 345 -8 -5 -5
899 3 912 4 6 3 14 -3 18 -5 3 -10 45 -10 95 l0 88 31 11 c37 13 34 34 -7 41
l-30 5 1 78 c1 56 5 81 16 88 12 8 12 11 -1 22 -18 14 -23 95 -8 115 7 8 7 12
-2 12 -12 0 -5 74 9 95 4 6 6 39 5 74 -3 51 0 67 14 77 15 11 15 13 1 19 -14
5 -16 32 -17 206 0 164 2 199 14 199 8 0 14 7 14 15 0 8 -5 14 -12 13 -7 -2
-14 8 -17 22 -3 14 -12 34 -18 45 -10 16 -14 17 -22 6 -5 -7 -39 -16 -80 -21
-105 -11 -1921 -4 -2011 8 -67 10 -147 14 -455 26 -49 1 -128 0 -175 -3z m-77
-108 c-23 -9 -38 -25 -26 -29 9 -4 9 -13 2 -31 -12 -31 -4 -43 27 -43 29 0 32
-16 4 -23 -11 -3 -20 -1 -20 4 0 5 -7 9 -15 9 -25 0 -17 -17 18 -34 21 -10 26
-16 14 -16 -45 0 -56 17 -51 77 9 104 14 123 29 116 9 -3 16 1 16 8 1 8 4 3 6
-11 3 -13 1 -26 -4 -27z m243 30 c0 -5 -16 -6 -34 -5 -18 2 -38 -1 -45 -6 -21
-16 -67 -21 -67 -6 0 8 17 15 43 18 23 3 53 7 67 9 27 4 38 1 36 -10z m59 -13
c0 -16 -5 -30 -12 -30 -6 0 -18 -3 -27 -6 -9 -3 -16 -2 -16 4 0 5 10 12 22 16
18 4 20 8 10 18 -17 17 -15 28 6 28 12 0 17 -8 17 -30z m718 13 c-7 -2 -19 -2
-25 0 -7 3 -2 5 12 5 14 0 19 -2 13 -5z m167 -3 c0 -10 -125 -8 -136 3 -4 4
25 7 64 7 40 0 72 -4 72 -10z m50 0 c0 -5 -4 -10 -10 -10 -5 0 -10 5 -10 10 0
6 5 10 10 10 6 0 10 -4 10 -10z m290 0 c0 -6 -43 -10 -112 -9 -74 1 -103 4
-83 9 46 12 195 12 195 0z m134 -10 c-6 -6 -19 -7 -30 -3 -17 6 -17 8 6 13 29
8 38 4 24 -10z m145 4 c2 -2 -23 -4 -57 -4 -34 0 -62 4 -62 9 0 9 110 4 119
-5z m-1411 -1 c-10 -2 -26 -2 -35 0 -10 3 -2 5 17 5 19 0 27 -2 18 -5z m210
-8 c3 -3 -3 -11 -13 -19 -16 -12 -23 -11 -49 4 -17 9 -38 20 -46 23 -8 4 12 5
44 2 33 -3 62 -7 64 -10z m200 -22 c2 -8 -5 -13 -17 -13 -21 0 -35 13 -24 24
10 10 36 3 41 -11z m172 7 c0 -5 -7 -10 -15 -10 -8 0 -15 5 -15 10 0 6 7 10
15 10 8 0 15 -4 15 -10z m-920 -11 c0 -5 5 -7 10 -4 6 3 10 0 10 -8 0 -16 -57
-44 -68 -33 -4 4 1 13 11 20 9 7 17 18 17 25 0 6 5 11 10 11 6 0 10 -5 10 -11z
m2690 1 c0 -5 -2 -10 -4 -10 -3 0 -8 5 -11 10 -3 6 -1 10 4 10 6 0 11 -4 11
-10z m-2530 -21 c0 -11 -4 -17 -10 -14 -5 3 -10 13 -10 21 0 8 5 14 10 14 6 0
10 -9 10 -21z m510 11 c0 -5 -15 -10 -32 -9 -31 1 -32 1 -8 9 35 11 40 11 40
0z m270 -10 c0 -5 -4 -10 -10 -10 -5 0 -10 5 -10 10 0 6 5 10 10 10 6 0 10 -4
10 -10z m193 -6 c9 -4 17 -11 17 -17 0 -5 8 -16 18 -24 15 -13 10 -14 -45 -9
-42 4 -63 2 -65 -6 -2 -6 -10 -8 -16 -4 -17 10 -5 26 19 26 11 0 17 5 14 10
-3 6 -1 10 4 10 6 0 11 7 11 16 0 9 5 13 13 10 6 -3 20 -9 30 -12z m-237 -9
c-10 -8 -23 -12 -28 -9 -14 9 2 24 25 24 21 -1 21 -1 3 -15z m777 8 c-7 -2
-21 -2 -30 0 -10 3 -4 5 12 5 17 0 24 -2 18 -5z m167 -3 c0 -5 -5 -10 -11 -10
-5 0 -7 5 -4 10 3 6 8 10 11 10 2 0 4 -4 4 -10z m-580 -10 c0 -5 11 -10 25
-10 14 0 25 -4 25 -10 0 -5 7 -10 15 -10 34 0 11 -18 -31 -25 -47 -7 -69 0
-45 14 10 7 11 13 2 30 -8 14 -8 21 -1 21 5 0 10 -4 10 -10z m710 0 c0 -5 -4
-10 -10 -10 -5 0 -10 5 -10 10 0 6 5 10 10 10 6 0 10 -4 10 -10z m315 0 c3 -5
1 -10 -4 -10 -6 0 -11 5 -11 10 0 6 2 10 4 10 3 0 8 -4 11 -10z m155 0 c8 -5
11 -10 5 -10 -5 0 -17 5 -25 10 -8 5 -10 10 -5 10 6 0 17 -5 25 -10z m-2015
-10 c4 -6 -6 -10 -22 -11 -15 0 -23 -3 -16 -5 7 -3 9 -12 6 -20 -3 -8 1 -14
11 -14 10 0 13 6 10 15 -10 26 40 18 64 -10 12 -14 18 -25 13 -25 -6 0 -13 5
-16 10 -3 6 -15 10 -26 10 -11 0 -17 -5 -14 -10 4 -6 -7 -8 -29 -4 -22 3 -36
1 -36 -5 0 -6 -15 -11 -32 -11 -25 0 -29 3 -18 10 12 8 10 10 -9 10 -20 0 -21
2 -11 15 7 8 23 15 37 15 15 0 22 4 17 11 -3 6 0 15 7 20 19 12 56 11 64 -1z
m280 0 c3 -5 -3 -10 -15 -10 -12 0 -18 5 -15 10 3 6 10 10 15 10 5 0 12 -4 15
-10z m110 0 c3 -5 -1 -10 -10 -10 -9 0 -13 5 -10 10 3 6 8 10 10 10 2 0 7 -4
10 -10z m710 0 c4 -6 -12 -10 -42 -10 -36 0 -44 -3 -33 -10 11 -8 6 -10 -20
-8 -71 6 -26 32 62 37 15 0 30 -3 33 -9z m842 4 c-3 -3 -12 -4 -19 -1 -8 3 -5
6 6 6 11 1 17 -2 13 -5z m333 -10 c0 -8 -5 -12 -10 -9 -6 4 -8 11 -5 16 9 14
15 11 15 -7z m-2546 0 c9 -3 16 -12 16 -20 0 -9 11 -14 30 -14 32 0 37 9 18
28 -9 9 -2 11 30 9 44 -2 58 -16 20 -18 -17 -1 -19 -2 -5 -6 27 -7 20 -23 -10
-24 -76 -3 -87 -5 -91 -16 -9 -29 -22 -11 -16 23 6 35 6 36 -15 24 -15 -8 -20
-17 -16 -28 12 -30 10 -36 -10 -40 -11 -2 -23 -9 -27 -15 -5 -8 -10 -7 -20 0
-7 6 -17 12 -23 13 -32 7 -34 13 -9 26 18 10 31 11 39 4 8 -7 16 -2 26 18 21
40 33 47 63 36z m1089 -9 c-4 -15 -26 -12 -31 3 -3 9 2 13 14 10 11 -2 18 -8
17 -13z m524 -9 c4 -3 -7 -6 -23 -6 -17 0 -35 -5 -41 -11 -13 -13 -75 2 -81
21 -3 9 0 11 14 5 11 -4 30 -10 43 -13 19 -4 23 -2 18 10 -4 13 0 14 30 8 19
-5 37 -11 40 -14z m83 14 c0 -5 -4 -10 -10 -10 -5 0 -10 5 -10 10 0 6 5 10 10
10 6 0 10 -4 10 -10z m-1268 -23 c-2 -9 2 -17 8 -17 5 0 10 5 10 10 0 6 4 10
8 10 4 0 8 -9 8 -21 0 -18 -5 -20 -30 -15 -56 11 -81 57 -28 52 19 -1 26 -7
24 -19z m225 7 c-3 -3 -12 -4 -19 -1 -8 3 -5 6 6 6 11 1 17 -2 13 -5z m50 -14
c-1 -13 -8 -20 -23 -20 -17 0 -21 4 -17 20 3 11 14 20 24 20 12 0 17 -7 16
-20z m1228 11 c-10 -4 -44 -8 -75 -9 -68 -1 -29 12 44 15 33 1 44 -1 31 -6z
m629 -16 c3 -9 0 -15 -9 -15 -9 0 -12 6 -9 15 4 8 7 15 9 15 2 0 5 -7 9 -15z
m-2024 -15 c0 -5 -2 -10 -4 -10 -3 0 -8 5 -11 10 -3 6 -1 10 4 10 6 0 11 -4
11 -10z m1470 0 c0 -5 -5 -10 -11 -10 -5 0 -7 5 -4 10 3 6 8 10 11 10 2 0 4
-4 4 -10z m470 -25 c0 -9 -9 -15 -22 -14 -13 0 -17 3 -10 6 6 2 10 9 6 14 -3
5 2 9 10 9 9 0 16 -7 16 -15z m-1306 -15 c8 -8 6 -9 -7 -4 -13 5 -16 2 -11 -9
3 -10 -1 -17 -13 -20 -10 -2 -3 -4 15 -4 19 0 37 7 42 16 8 14 9 14 10 -2 0
-10 5 -15 10 -12 6 3 10 1 10 -4 0 -6 -18 -11 -39 -11 -22 0 -52 -5 -67 -10
-32 -13 -46 -3 -22 14 10 7 15 16 11 19 -3 4 -1 7 5 7 7 0 12 4 12 10 0 5 -21
7 -50 3 -33 -4 -50 -2 -50 5 0 6 21 12 48 14 60 4 83 1 96 -12z m253 14 c-3
-3 -12 -4 -19 -1 -8 3 -5 6 6 6 11 1 17 -2 13 -5z m-1184 -11 c-7 -2 -21 -2
-30 0 -10 3 -4 5 12 5 17 0 24 -2 18 -5z m57 -4 c-11 -8 -3 -9 30 -5 29 4 59
1 85 -9 l40 -16 -82 5 c-58 3 -87 9 -98 20 -15 15 -14 16 12 16 22 0 25 -2 13
-11z m230 -20 c0 -7 -7 -8 -17 -4 -10 4 -27 10 -37 13 -20 5 -20 5 0 12 21 8
54 -5 54 -21z m375 21 c4 -6 -6 -10 -24 -10 -16 0 -33 5 -36 10 -4 6 6 10 24
10 16 0 33 -4 36 -10z m1638 -6 c29 -11 19 -24 -15 -17 -21 4 -29 3 -24 -5 3
-6 2 -13 -4 -17 -6 -3 -10 4 -10 18 0 27 9 40 24 32 6 -3 19 -8 29 -11z
m-1843 -14 c0 -17 -3 -19 -19 -8 -21 13 -19 28 5 28 8 0 14 -9 14 -20z m840
10 c0 -5 -13 -10 -28 -10 -15 0 -33 -5 -40 -12 -8 -8 -15 -8 -28 2 -15 13 -14
15 3 21 27 11 93 10 93 -1z m-1543 -11 c-14 -8 -22 -8 -30 0 -8 8 -3 11 19 11
25 -1 27 -2 11 -11z m158 2 c11 -1 15 -4 10 -10 -12 -11 -116 -41 -143 -41
-11 0 -22 -4 -24 -9 -4 -12 -78 -24 -78 -13 0 11 36 26 98 42 23 6 42 15 42
20 0 10 26 17 55 14 11 -1 29 -3 40 -3z m457 -9 c9 -9 5 -12 -20 -12 -20 0
-32 5 -32 13 0 16 36 15 52 -1z m1338 8 c-20 -13 -73 -13 -65 0 3 6 23 10 43
10 28 0 33 -3 22 -10z m299 -3 l56 1 -45 -8 c-25 -5 -80 -10 -123 -11 -42 -1
-80 -6 -83 -11 -3 -5 -30 -6 -61 -2 -41 5 -54 4 -49 -5 5 -7 -4 -11 -26 -11
l-33 1 34 15 c35 15 249 44 265 36 5 -3 34 -5 65 -5z m-2479 -9 c0 -7 -5 -20
-10 -28 -8 -12 -10 -9 -10 13 0 15 5 27 10 27 6 0 10 -6 10 -12z m133 -17
c-18 -17 -48 -17 -59 0 -5 9 56 29 69 22 5 -3 0 -13 -10 -22z m1747 19 c-27
-14 -70 -21 -70 -11 0 10 17 15 59 18 17 1 21 -1 11 -7z m200 -2 c0 -6 -2 -9
-6 -6 -3 3 -21 2 -40 -2 -19 -4 -36 -4 -39 0 -5 8 20 14 68 19 9 0 17 -4 17
-11z m-1902 -12 c-7 -8 -15 -12 -17 -11 -5 6 10 25 20 25 5 0 4 -6 -3 -14z
m961 -2 c2 -2 2 -7 -2 -10 -9 -10 -78 6 -72 16 5 8 63 3 74 -6z m531 7 c0 -6
23 -7 54 -4 48 5 54 3 59 -16 4 -18 1 -21 -24 -21 -16 0 -29 4 -29 10 0 5 -13
7 -28 4 -19 -4 -34 0 -45 10 -20 20 -43 21 -51 1 -3 -8 -1 -15 4 -15 6 0 10
-4 10 -8 0 -13 -52 -13 -82 0 -36 16 -36 28 0 28 15 0 34 5 42 10 19 12 90 13
90 1z m290 -1 c0 -15 -23 -22 -62 -18 l-33 4 25 11 c32 15 70 16 70 3z m-1525
-10 c-3 -6 5 -10 19 -10 14 0 28 5 31 10 10 16 55 12 49 -4 -4 -11 1 -13 30
-6 21 4 36 4 36 -1 0 -5 12 -10 28 -10 l27 -1 -30 -8 c-24 -5 -27 -8 -13 -14
9 -4 25 -3 34 2 17 10 26 7 114 -32 14 -6 27 -13 30 -16 3 -3 17 -11 33 -19
32 -17 20 -31 -26 -31 -16 0 -36 -8 -45 -17 -16 -16 -16 -16 3 -9 11 4 34 10
50 12 17 3 40 7 51 9 20 4 82 -19 94 -35 3 -4 14 -12 25 -18 18 -10 16 -11
-17 -12 -21 0 -38 -4 -38 -10 0 -5 -19 -9 -42 -9 -33 2 -36 3 -14 6 22 4 26 7
15 14 -11 7 -9 9 8 9 12 0 24 4 27 8 3 5 -27 7 -67 5 -40 -2 -119 -5 -176 -8
-58 -3 -113 -7 -123 -11 -26 -8 -22 5 5 17 19 8 18 9 -8 3 -57 -12 -230 -3
-245 12 -6 6 7 8 33 7 32 -2 37 -1 22 6 -19 9 -19 10 2 10 52 2 120 22 120 36
0 16 -22 20 -31 6 -7 -11 -66 -22 -139 -26 -47 -3 -57 -1 -53 11 8 20 -20 17
-30 -3 -4 -10 -6 -21 -6 -25 1 -5 -25 -8 -58 -8 -47 0 -60 3 -60 15 0 8 7 15
15 15 8 0 43 9 77 19 137 41 295 73 325 65 10 -3 29 -1 43 5 22 9 19 10 -25
12 -27 2 -77 2 -110 0 -44 -1 -56 1 -45 8 13 10 13 11 0 12 -8 1 -1 5 15 9 43
11 47 11 40 0z m295 1 c25 -7 25 -8 3 -15 -25 -8 -73 2 -73 15 0 10 34 10 70
0z m-682 -22 c-20 -13 -28 -11 -22 5 3 8 12 12 21 9 12 -5 12 -7 1 -14z m802
11 c0 -5 -7 -7 -15 -4 -8 4 -15 8 -15 10 0 2 7 4 15 4 8 0 15 -4 15 -10z m430
0 c12 -8 9 -10 -12 -10 -16 0 -28 5 -28 10 0 13 20 13 40 0z m-477 -11 c7 0 3
-4 -8 -8 -22 -9 -35 -5 -35 11 0 5 7 7 16 4 9 -3 21 -6 27 -7z m1239 -14 c17
-20 16 -20 -27 -20 -45 0 -57 17 -17 23 12 2 22 8 22 14 0 6 1 9 3 7 1 -2 10
-13 19 -24z m758 15 c0 -6 -6 -10 -13 -10 -12 0 -26 -9 -74 -50 -7 -5 -16 -10
-22 -10 -5 0 -11 -6 -14 -14 -3 -8 -19 -17 -36 -21 -17 -4 -33 -11 -36 -16 -4
-5 -18 -9 -33 -9 -21 0 -23 -3 -12 -10 21 -13 12 -17 -53 -22 -44 -4 -57 -2
-53 8 3 8 0 11 -10 7 -7 -3 -14 -9 -14 -14 0 -5 -11 -9 -25 -9 -16 0 -25 6
-25 15 0 9 9 15 25 15 39 0 101 43 89 62 -7 11 14 10 36 -2 16 -8 18 -8 14 5
-4 8 -1 15 5 15 6 0 11 -4 11 -9 0 -4 11 -6 25 -3 14 2 25 10 25 18 0 8 -6 11
-15 8 -8 -4 -15 -2 -15 4 0 5 11 12 25 14 13 3 22 2 20 -3 -3 -4 6 -2 20 4 13
7 20 14 15 15 -6 2 -8 7 -5 12 7 12 145 12 145 0z m-1860 -11 c0 -5 5 -7 11
-4 16 10 81 -24 75 -40 -6 -16 20 -28 46 -19 10 3 25 0 33 -6 8 -6 19 -9 25
-5 15 9 50 -4 50 -20 0 -7 11 -16 25 -19 28 -7 33 -24 10 -32 -8 -4 -15 -12
-15 -20 0 -8 -7 -14 -16 -14 -11 0 -14 5 -10 16 5 13 2 15 -13 11 -27 -7 -51
21 -30 34 12 7 12 9 -1 10 -74 4 -134 25 -126 45 3 9 -2 14 -14 14 -23 0 -35
16 -18 24 7 4 3 4 -9 2 -13 -2 -29 4 -39 15 -16 17 -16 19 -1 19 10 0 17 -5
17 -11z m240 -4 c10 -12 7 -16 -15 -25 -17 -7 -38 -7 -54 -2 l-26 9 30 15 c39
21 50 21 65 3z m1230 6 c0 -10 -41 -23 -49 -16 -2 3 2 5 10 5 11 0 11 2 -1 10
-12 8 -9 10 13 10 15 0 27 -4 27 -9z m55 -1 c3 -5 -3 -10 -15 -10 -12 0 -18 5
-15 10 3 6 10 10 15 10 5 0 12 -4 15 -10z m108 3 c-7 -2 -21 -2 -30 0 -10 3
-4 5 12 5 17 0 24 -2 18 -5z m-2308 -13 c-3 -5 -12 -10 -18 -10 -7 0 -6 4 3
10 19 12 23 12 15 0z m1689 -4 c-8 -20 -164 -37 -164 -17 0 13 32 23 42 13 6
-6 97 6 125 17 1 1 0 -5 -3 -13z m365 10 c-2 -2 -33 -6 -69 -10 -44 -4 -60 -3
-50 4 14 9 129 15 119 6z m-1441 -27 c12 -5 22 -14 22 -21 0 -7 12 -14 26 -15
33 -1 75 -23 68 -35 -3 -4 4 -8 15 -8 11 0 31 -11 45 -25 14 -14 36 -25 50
-25 14 0 31 -8 38 -18 7 -10 22 -22 32 -25 29 -11 6 -26 -31 -20 -22 4 -30 9
-26 19 4 10 -3 14 -20 14 -14 0 -38 5 -54 11 -22 8 -24 12 -13 19 11 7 7 10
-16 10 -19 0 -38 8 -50 22 -10 12 -13 18 -6 14 6 -4 12 -2 12 4 0 6 -10 10
-22 9 -40 -5 -70 10 -63 32 5 16 1 19 -29 19 -40 0 -66 8 -66 22 0 5 5 6 10 3
6 -3 10 -1 10 5 0 11 15 9 68 -11z m873 11 c5 0 9 -4 9 -10 0 -5 -11 -10 -25
-10 -16 0 -25 6 -25 16 0 11 5 14 16 10 9 -3 20 -6 25 -6z m-1715 -12 c4 -6 3
-8 -2 -5 -16 9 -35 -8 -28 -26 5 -14 12 -13 49 13 43 30 85 39 85 20 0 -5 -9
-10 -19 -10 -11 0 -23 -4 -26 -10 -8 -13 21 -13 46 0 12 7 19 7 19 1 0 -6 -15
-14 -32 -19 -18 -6 -42 -13 -52 -18 -14 -5 -17 -4 -12 4 4 7 5 12 1 12 -9 0
-49 -24 -58 -35 -5 -6 -6 -2 -3 9 5 13 2 17 -9 12 -12 -4 -15 2 -15 29 0 30 3
35 24 35 14 0 28 -5 32 -12z m189 2 c-3 -5 -18 -10 -33 -9 l-27 1 25 8 c35 11
42 11 35 0z m1105 0 c0 -5 -5 -10 -11 -10 -5 0 -7 5 -4 10 3 6 8 10 11 10 2 0
4 -4 4 -10z m345 0 c4 -6 -8 -10 -30 -10 -22 0 -34 4 -30 10 3 6 17 10 30 10
13 0 27 -4 30 -10z m835 -8 c0 -5 -19 -7 -42 -6 -22 1 -54 -2 -70 -6 -15 -5
-28 -5 -28 0 0 5 8 11 18 13 30 8 122 7 122 -1z m-290 -11 c0 -6 8 -8 18 -6
10 2 25 -1 33 -6 10 -6 5 -9 -17 -9 -17 0 -37 7 -44 15 -9 10 -9 15 -1 15 6 0
11 -4 11 -9z m574 -6 c-17 -13 -17 -14 -1 -15 58 -1 -31 -40 -92 -40 -18 0
-30 -4 -27 -9 6 -9 -53 -25 -62 -17 -8 9 9 26 26 26 10 0 35 9 56 19 21 11 43
18 51 15 7 -3 15 4 18 15 3 14 13 21 28 21 22 0 22 0 3 -15z m-1089 -5 c3 -5
3 -10 -2 -11 -4 0 -26 -3 -48 -5 -22 -3 -49 -6 -59 -7 -10 -1 -21 3 -23 9 -2
7 13 12 43 12 26 1 49 4 52 7 9 8 30 6 37 -5z m97 -6 c-12 -8 -27 -12 -34 -8
-6 4 -8 3 -5 -3 9 -14 -26 -23 -87 -23 -65 0 -52 12 16 14 43 1 53 5 52 19 -1
13 7 17 39 17 40 0 41 0 19 -16z m76 9 c-10 -2 -26 -2 -35 0 -10 3 -2 5 17 5
19 0 27 -2 18 -5z m285 -4 c7 0 3 -4 -8 -9 -28 -12 -132 -13 -119 -1 10 10 80
20 102 14 8 -2 19 -3 25 -4z m-879 -14 c3 -10 -1 -15 -13 -15 -29 0 -52 11
-45 21 9 15 51 10 58 -6z m66 5 c12 -8 11 -10 -7 -10 -13 0 -23 5 -23 10 0 13
11 13 30 0z m618 -6 c-11 -10 -80 -15 -73 -4 3 5 22 10 42 10 20 0 34 -3 31
-6z m49 0 c-3 -3 -12 -4 -19 -1 -8 3 -5 6 6 6 11 1 17 -2 13 -5z m428 -3 c18
-7 16 -9 -12 -15 -23 -5 -39 -3 -55 8 -22 16 -22 16 12 15 19 0 44 -4 55 -8z
m-605 -38 c0 -7 -9 -13 -20 -13 -11 0 -20 5 -20 10 0 6 7 10 15 10 9 0 12 6 9
18 -5 14 -4 15 5 2 6 -8 11 -21 11 -27z m443 27 c-30 -12 -29 -22 1 -14 13 3
27 1 30 -4 3 -6 -11 -12 -33 -14 -29 -2 -38 0 -37 12 1 19 16 30 41 29 18 0
18 -1 -2 -9z m-263 -10 c0 -5 -10 -10 -22 -10 -19 0 -20 2 -8 10 19 13 30 13
30 0z m-70 -10 c11 -7 7 -10 -17 -10 -17 0 -38 -3 -47 -6 -9 -3 -16 -1 -16 4
0 19 56 27 80 12z m130 -10 l-25 -6 25 -8 c25 -8 25 -9 2 -13 -12 -2 -29 3
-38 11 -14 15 -14 16 1 16 9 0 14 4 11 9 -3 4 7 6 22 3 l27 -6 -25 -6z m115 8
l40 -11 -30 -8 c-36 -10 -75 -1 -75 17 0 17 13 17 65 2z m-770 -8 c4 -6 -6
-10 -22 -9 -25 0 -26 1 -8 9 11 5 21 9 22 9 1 1 5 -3 8 -9z m90 0 c8 -13 -5
-13 -25 0 -13 8 -13 10 2 10 9 0 20 -4 23 -10z m234 -1 c24 -9 29 -14 19 -20
-13 -9 -9 -10 56 -13 34 -2 31 -26 -3 -26 -34 0 -36 -2 -20 -32 12 -22 50 -19
76 8 21 20 147 18 139 -3 -4 -8 4 -17 19 -23 30 -11 33 -30 5 -30 -12 0 -20 7
-20 16 0 9 -9 18 -20 21 -11 3 -20 8 -20 12 0 12 -69 -1 -81 -15 -6 -8 -18
-14 -25 -14 -16 0 -19 -16 -5 -24 13 -8 19 -53 10 -68 -5 -7 -2 -19 6 -28 7
-8 17 -38 20 -66 l7 -51 -67 -6 c-37 -4 -73 -12 -81 -18 -11 -9 -15 -8 -20 5
-12 31 4 63 38 73 l33 11 -28 1 c-18 1 -27 6 -24 14 2 8 19 11 48 8 44 -3 44
-3 26 17 -20 22 -16 42 9 42 8 0 14 5 14 10 0 12 2 12 -38 1 -34 -10 -46 3
-12 14 11 3 20 11 20 17 0 5 -7 7 -16 4 -13 -5 -15 -2 -11 14 3 11 1 20 -4 20
-5 0 -9 7 -9 15 0 7 -8 19 -17 24 -15 9 -16 12 -4 20 9 6 -12 9 -60 8 -41 -1
-66 -3 -56 -5 22 -5 22 -11 -6 -41 -23 -25 -32 -45 -78 -166 -29 -74 -25 -69
-46 -60 -10 4 -30 9 -45 10 -28 1 -53 15 -28 15 10 0 10 3 0 15 -7 8 -23 15
-36 15 -27 0 -74 20 -74 31 0 4 -10 9 -22 11 -12 2 -23 9 -26 15 -3 10 9 11
45 7 26 -3 50 -10 53 -14 6 -10 133 -60 150 -60 6 0 10 5 10 10 0 6 -7 10 -16
10 -15 0 -102 38 -114 50 -3 3 -17 11 -32 19 -30 16 -39 38 -10 26 9 -4 29
-10 45 -13 15 -2 27 -10 27 -18 0 -17 45 -29 95 -25 19 2 19 2 2 15 -14 11
-16 19 -7 40 5 15 15 24 20 21 12 -7 40 18 40 35 0 7 -8 10 -20 7 -23 -6 -27
8 -5 17 8 3 15 10 15 15 0 6 -7 8 -16 4 -11 -4 -15 -2 -12 7 5 17 63 33 94 27
13 -2 25 2 28 9 3 8 2 13 -2 13 -20 -3 -32 3 -32 16 0 18 52 20 99 4z m-1739
-8 c0 -16 41 -24 54 -11 8 10 6 11 -11 5 -14 -4 -23 -2 -23 4 0 6 14 11 31 11
17 0 28 -4 24 -10 -3 -5 -2 -10 3 -10 6 0 15 -13 20 -29 8 -23 7 -31 -3 -35
-8 -3 -17 -1 -21 5 -7 12 -33 -19 -34 -40 0 -8 7 -11 20 -8 13 3 20 0 20 -9 0
-10 -14 -14 -50 -14 -46 0 -50 2 -50 24 0 13 -3 31 -6 39 -4 11 1 13 23 10 22
-4 25 -2 13 6 -11 8 -4 11 33 11 26 0 47 4 47 9 0 5 -25 9 -56 7 -57 -2 -70 4
-60 29 6 16 26 20 26 6z m1324 1 c6 -9 -38 -52 -53 -52 -5 0 -14 7 -21 15 -11
13 -10 14 2 10 8 -3 23 3 33 15 20 22 31 25 39 12z m1001 -2 c-3 -5 -14 -10
-23 -9 -14 0 -13 2 3 9 27 11 27 11 20 0z m-730 -20 c-3 -4 -20 -10 -39 -12
-27 -3 -33 -1 -25 8 17 21 77 25 64 4z m415 5 c8 -9 -2 -14 -36 -19 -67 -9
-86 -8 -78 5 4 8 0 9 -15 4 -12 -3 -21 -2 -21 4 0 20 134 25 150 6z m-543 -3
c6 -4 13 -18 16 -32 2 -14 2 -19 0 -12 -6 17 -20 15 -31 -4 -11 -20 -72 -10
-72 12 0 12 8 14 38 9 33 -6 35 -5 20 8 -10 8 -18 17 -18 21 0 8 32 7 47 -2z
m796 -5 c3 -9 -13 -13 -67 -15 -76 -3 -85 13 -11 21 22 2 47 4 56 5 9 1 19 -4
22 -11z m494 7 c-3 -3 -12 -4 -19 -1 -8 3 -5 6 6 6 11 1 17 -2 13 -5z m-2594
-11 c-7 -2 -19 -2 -25 0 -7 3 -2 5 12 5 14 0 19 -2 13 -5z m2180 0 c-7 -2 -19
-2 -25 0 -7 3 -2 5 12 5 14 0 19 -2 13 -5z m-2048 -13 c4 -6 23 -10 44 -9 20
2 43 -1 51 -6 8 -5 58 -10 110 -10 52 -1 115 -3 140 -3 l45 -2 -29 -25 c-16
-13 -33 -22 -39 -18 -6 4 -3 9 9 14 15 5 11 8 -19 14 -25 5 -43 3 -50 -4 -16
-16 -27 -14 -20 5 5 13 0 14 -33 8 -59 -10 -78 -26 -24 -19 34 4 41 3 30 -5
-11 -9 -3 -10 33 -6 57 6 63 -9 7 -18 -24 -4 -39 -11 -37 -19 1 -8 -14 -13
-48 -14 l-50 -1 38 11 c50 14 47 28 -5 22 -24 -3 -37 -2 -30 1 17 8 15 34 -4
34 -8 0 -13 4 -10 9 3 5 -10 9 -29 8 -19 -1 -35 -5 -35 -9 0 -4 -26 -9 -57 -9
-32 -1 -46 -4 -30 -6 40 -6 23 -23 -24 -23 -24 0 -38 -4 -34 -10 3 -5 2 -10
-4 -10 -5 0 -12 6 -15 13 -5 10 -7 10 -12 0 -8 -18 -41 -16 -48 2 -3 9 -1 15
7 14 30 -4 90 2 84 8 -4 4 -33 6 -65 5 l-57 -1 40 19 c22 11 49 19 60 19 l20
0 -20 -10 c-25 -11 60 -1 90 12 15 6 11 8 -20 9 -32 1 -36 3 -20 10 28 12 53
12 60 0z m1825 6 c0 -2 -9 -6 -20 -9 -11 -3 -20 -1 -20 4 0 5 9 9 20 9 11 0
20 -2 20 -4z m630 -5 c0 -5 -15 -12 -32 -16 -18 -4 -40 -8 -49 -11 -10 -3 -16
2 -16 12 0 13 7 15 33 11 19 -3 36 -1 39 4 8 12 25 12 25 0z m-1990 -21 c13
-9 13 -10 0 -9 -8 0 -24 4 -35 9 l-20 9 20 0 c11 0 27 -4 35 -9z m1423 3 c-13
-2 -33 -2 -45 0 -13 2 -3 4 22 4 25 0 35 -2 23 -4z m91 -2 c7 -10 -17 -21 -45
-21 -17 0 -18 2 -7 15 15 16 44 20 52 6z m193 -9 c-20 -2 -27 -8 -23 -18 5
-14 0 -15 -84 -19 -14 -1 -30 -4 -35 -7 -20 -11 -84 -18 -89 -9 -6 10 26 21
64 21 18 0 21 3 11 9 -11 7 -9 10 7 15 35 11 146 22 162 17 9 -4 4 -7 -13 -9z
m-1419 -23 c2 -5 10 -9 18 -9 8 0 14 -4 14 -10 0 -5 6 -10 14 -10 8 0 21 -8
28 -18 7 -10 20 -22 28 -26 40 -19 61 -34 53 -39 -4 -2 -29 -8 -55 -11 -27 -4
-48 -10 -48 -14 0 -4 -12 -8 -27 -9 -103 -7 -212 -20 -183 -23 19 -1 38 -2 43
-1 19 3 3 -12 -28 -25 -44 -18 -65 -18 -65 1 0 9 -6 12 -15 9 -8 -4 -15 -1
-15 5 0 7 8 15 18 18 9 4 24 14 32 23 8 9 24 17 35 18 11 0 52 3 90 6 39 3 74
6 78 6 5 0 5 5 2 10 -3 6 -4 10 -1 10 2 0 12 3 22 7 12 4 15 3 10 -5 -5 -8 -2
-10 8 -6 19 7 16 25 -7 42 -14 11 -24 11 -46 2 -15 -6 -52 -11 -82 -10 -77 2
-165 -11 -147 -21 8 -5 30 -4 48 1 19 5 36 7 39 5 12 -13 -17 -18 -106 -22
-85 -3 -124 -6 -155 -12 -5 0 -8 -10 -8 -21 0 -11 -7 -20 -15 -20 -8 0 -15 -4
-15 -9 0 -14 -37 -20 -49 -8 -8 8 -15 5 -25 -9 -11 -14 -27 -19 -65 -20 -70
-2 -79 -4 -56 -14 19 -7 18 -8 -5 -14 -14 -3 -59 -10 -100 -15 -41 -4 -83 -11
-92 -16 -10 -4 -18 -3 -18 2 0 13 45 33 75 33 13 0 27 4 30 10 11 17 148 55
153 42 8 -24 60 -4 58 23 -1 5 17 10 38 12 47 3 69 10 62 21 -7 12 -103 7
-120 -7 -11 -9 -106 -12 -106 -4 0 8 79 33 120 39 27 4 47 10 44 15 -2 5 8 11
23 15 15 3 43 10 60 14 18 5 35 5 38 0 7 -12 -5 -18 -53 -26 -23 -4 -39 -11
-36 -16 3 -5 12 -7 20 -4 8 3 14 1 14 -5 0 -7 12 -8 33 -3 17 4 50 11 72 14
l40 7 -32 8 c-40 9 -43 25 -5 25 15 0 38 3 51 7 19 5 22 3 16 -8 -7 -11 -6
-12 6 -2 17 14 59 6 60 -11 0 -6 4 -2 8 9 4 11 14 20 22 21 8 0 26 2 42 2 15
1 26 7 25 13 -2 6 5 13 15 14 20 4 25 -40 5 -49 -7 -3 -2 -4 12 -3 26 2 29 15
15 51 -7 16 -5 17 16 11 13 -4 26 -12 27 -16z m1142 1 c0 -9 -51 -20 -92 -20
-16 0 -27 4 -23 10 3 5 13 6 22 3 10 -4 14 -2 10 5 -4 6 1 12 10 14 25 5 73
-3 73 -12z m570 10 c0 -5 -3 -10 -7 -11 -5 0 -28 -2 -53 -4 l-45 -4 35 14 c42
16 70 19 70 5z m-1863 -17 c-3 -2 -51 -7 -108 -10 -111 -6 -131 6 -27 16 63 6
143 3 135 -6z m366 10 c-7 -2 -19 -2 -25 0 -7 3 -2 5 12 5 14 0 19 -2 13 -5z
m87 -3 c0 -5 -4 -10 -10 -10 -5 0 -10 -4 -10 -10 0 -5 16 -10 35 -10 19 0 35
-4 35 -10 0 -17 -67 -23 -100 -9 -35 16 -39 29 -10 29 11 0 23 7 26 15 7 17
34 21 34 5z m120 -26 c0 -8 9 -22 19 -31 11 -9 18 -20 15 -24 -7 -12 -34 1
-34 17 0 13 -12 18 -32 15 -5 0 -8 4 -8 9 0 6 5 10 10 10 6 0 10 7 10 16 0 8
5 12 10 9 6 -3 10 -13 10 -21z m1147 20 c-3 -4 -32 -10 -64 -13 -35 -4 -57
-11 -56 -18 1 -6 -11 -14 -27 -18 -17 -4 -30 -11 -30 -15 0 -5 29 2 64 15 77
29 180 40 196 20 9 -11 2 -15 -37 -20 -26 -4 -86 -13 -132 -21 -46 -8 -95 -14
-110 -14 l-26 1 28 24 c15 14 35 25 43 25 8 0 13 6 12 13 -2 7 14 14 42 18 66
9 104 10 97 3z m-2277 -30 c-45 -19 -57 -17 -31 5 13 11 30 17 42 14 19 -5 18
-7 -11 -19z m920 -14 c18 -16 37 -30 42 -30 4 0 8 -5 8 -10 0 -9 -20 -8 -73 7
-9 2 -15 8 -12 13 6 9 -18 20 -46 20 -10 0 -19 7 -19 15 0 28 63 18 100 -15z
m925 0 c-26 -9 0 -33 29 -26 21 5 25 3 20 -11 -4 -12 -3 -14 3 -6 18 25 153
55 153 34 0 -6 -7 -11 -16 -11 -9 0 -31 -8 -48 -19 -17 -10 -58 -22 -91 -25
-87 -10 -115 -16 -115 -27 0 -18 32 -22 42 -6 5 10 14 17 19 17 6 0 7 -4 4
-10 -10 -16 35 -12 51 5 9 8 25 15 37 15 19 -1 18 -3 -8 -15 -16 -7 -24 -14
-16 -14 26 -2 -22 -30 -50 -31 -15 0 -29 -7 -33 -15 -3 -8 -13 -15 -23 -15
-15 0 -15 1 2 13 16 13 15 14 -13 9 -32 -4 -41 -15 -22 -27 13 -8 13 -25 0
-25 -5 0 -16 15 -24 33 -13 29 -12 33 6 50 20 17 20 17 -3 17 -19 0 -28 10
-41 41 l-18 41 39 -6 c22 -3 47 -3 55 0 15 6 15 8 -1 20 -14 11 -14 13 -2 9 8
-3 26 -2 40 3 16 6 26 6 31 -2 4 -6 1 -13 -7 -16z m575 20 c0 -5 -7 -10 -16
-10 -8 0 -12 5 -9 10 3 6 10 10 16 10 5 0 9 -4 9 -10z m-782 -37 c10 -16 26
-50 36 -78 9 -27 24 -62 32 -77 22 -41 112 -297 188 -538 73 -230 91 -627 35
-765 -6 -16 -11 -42 -10 -57 1 -14 -6 -46 -17 -70 -11 -23 -23 -54 -27 -67
-16 -52 -130 -267 -160 -300 -17 -20 -51 -61 -74 -91 -54 -69 -72 -79 -144
-80 -64 0 -120 22 -202 79 -156 108 -245 219 -278 345 -10 39 -23 87 -28 106
-16 59 -24 387 -10 404 8 9 10 27 7 43 -8 33 34 243 65 324 17 48 25 58 50 63
16 3 29 10 29 16 0 13 -27 13 -35 0 -3 -5 -10 -10 -15 -10 -5 0 1 30 14 68 29
82 83 266 101 345 7 32 22 65 32 73 12 9 14 13 4 14 -9 0 -11 7 -7 23 4 12 13
45 21 72 19 69 63 165 75 165 16 0 12 -53 -9 -133 -11 -39 -24 -106 -30 -147
-6 -41 -15 -95 -21 -120 -27 -122 -37 -549 -12 -558 6 -2 12 -17 12 -33 0 -43
31 -97 86 -152 54 -55 74 -62 155 -54 82 7 135 50 167 136 22 58 23 68 17 228
-4 92 -13 205 -21 250 -7 46 -16 181 -20 300 -5 180 -9 225 -24 261 -21 47
-11 56 18 15z m-1618 4 c0 -8 10 -19 23 -24 22 -11 22 -11 -6 -22 -42 -17 -87
-14 -87 5 0 9 -7 14 -17 12 -13 -3 -17 -12 -16 -31 2 -24 -2 -27 -30 -28 -42
-2 -61 1 -67 11 -12 19 -74 15 -67 -4 3 -7 1 -18 -4 -23 -6 -6 2 -8 23 -6 l33
3 -33 -15 c-33 -15 -58 -12 -47 6 4 5 3 9 -2 10 -4 0 -19 2 -31 5 -16 3 -22 0
-20 -8 3 -7 14 -14 25 -16 12 -2 23 -12 26 -23 7 -25 39 -24 55 2 11 18 19 20
54 14 35 -6 40 -5 35 9 -4 9 -2 16 3 16 6 0 10 -4 10 -8 0 -16 65 1 96 24 17
13 39 24 50 24 15 0 16 -2 5 -9 -11 -7 -9 -10 10 -13 29 -5 27 -6 -111 -49
-124 -38 -126 -39 -109 -50 11 -7 11 -9 1 -9 -7 0 -32 -9 -55 -19 -24 -11 -55
-23 -70 -26 -16 -4 -26 -10 -23 -12 3 -3 -2 -12 -10 -20 -8 -9 -17 -14 -19
-12 -3 4 -8 124 -6 177 1 24 6 32 19 32 10 0 24 8 31 19 8 11 21 16 32 14 12
-3 19 0 19 8 1 9 6 7 15 -5 8 -11 15 -14 15 -7 0 7 4 10 9 6 6 -3 13 1 18 8
11 20 67 33 60 15 -6 -17 34 -18 54 -1 8 6 29 13 47 16 19 3 36 8 40 11 10 11
22 6 22 -7z m2396 -4 c16 -6 16 -7 -2 -13 -22 -8 -54 -1 -54 11 0 11 31 12 56
2z m-117 -17 c-12 -10 -49 -16 -49 -7 0 5 10 11 23 13 22 4 34 1 26 -6z
m-2639 -26 c-18 -11 -22 -7 -14 14 5 13 10 14 18 6 8 -8 7 -13 -4 -20z m2505
10 c-3 -5 -10 -10 -16 -10 -5 0 -9 5 -9 10 0 6 7 10 16 10 8 0 12 -4 9 -10z
m-55 -10 c-33 -11 -79 -12 -63 -2 7 4 29 8 50 9 33 1 35 0 13 -7z m305 0 c-36
-17 -229 -40 -236 -29 -4 7 -24 5 -60 -5 -77 -21 -178 -31 -162 -15 14 14 97
30 101 19 2 -5 20 -2 40 7 22 9 50 13 71 9 20 -3 59 1 86 8 57 16 193 21 160
6z m-1895 -7 c0 -12 -51 -33 -78 -33 -13 0 -21 -4 -17 -9 3 -6 -11 -18 -31
-27 -32 -15 -34 -19 -20 -29 28 -21 17 -34 -46 -52 l-63 -17 39 -8 c25 -5 63
-3 110 6 98 20 193 29 200 18 3 -5 -40 -30 -95 -55 l-100 -46 -58 29 c-32 17
-63 30 -69 30 -5 0 -15 6 -21 14 -10 12 -8 18 11 30 13 8 35 18 50 21 16 4 25
11 23 16 -3 4 -17 4 -31 -1 -14 -6 -44 -10 -67 -11 -38 0 -40 -1 -17 -10 23
-9 23 -11 7 -20 -20 -12 -60 -2 -52 12 4 5 -18 9 -49 9 -32 0 -56 4 -56 10 0
6 10 10 23 8 21 -2 98 6 160 18 33 7 36 24 5 24 -19 0 -20 2 -8 10 21 13 63
13 54 -1 -4 -7 2 -9 17 -7 13 1 22 7 19 11 -9 15 23 28 158 66 1 1 2 -2 2 -6z
m-130 -13 c-20 -13 -50 -13 -50 0 0 6 15 10 33 10 24 0 28 -3 17 -10z m483
-20 c-10 -11 -26 -20 -37 -20 -11 0 -28 -7 -38 -17 -10 -9 -21 -13 -25 -10 -4
4 2 14 13 22 15 11 16 15 4 15 -24 2 42 29 72 30 27 0 27 -1 11 -20z m1561 -2
c13 -51 9 -55 -57 -67 -80 -14 -104 -14 -91 -1 5 5 31 10 57 11 37 2 47 6 45
18 -2 8 -14 18 -28 21 -23 6 -22 7 13 14 20 4 37 11 37 16 0 19 18 10 24 -12z
m-124 3 c0 -10 -61 -21 -105 -20 -25 1 28 16 98 28 4 0 7 -3 7 -8z m-1336 -26
c3 -8 12 -15 21 -15 8 0 15 -4 15 -9 0 -5 9 -11 19 -14 14 -3 18 -11 14 -26
-4 -15 -1 -21 11 -21 9 0 16 7 16 16 0 15 2 15 25 0 13 -9 31 -16 40 -16 8 0
15 -7 15 -16 0 -10 6 -14 15 -10 10 3 15 -1 15 -12 0 -16 -20 -55 -20 -40 0 9
-224 -52 -230 -63 -3 -5 -37 -16 -75 -25 -89 -22 -136 -44 -132 -64 3 -18 34
-17 98 1 36 10 40 14 20 17 l-23 4 23 12 c36 18 125 46 148 46 25 0 28 -17 4
-23 -15 -4 -15 -5 2 -5 11 0 38 5 60 13 35 11 37 13 13 14 -45 2 -40 18 10 32
26 7 50 14 54 14 3 0 10 3 14 8 16 15 23 6 14 -18 -5 -14 -9 -30 -7 -36 1 -6
-12 -13 -28 -15 -17 -2 -50 -10 -73 -18 -30 -11 -50 -13 -68 -6 -35 14 -42 13
-40 -6 0 -11 -12 -21 -36 -29 -44 -16 -88 -44 -88 -56 0 -15 42 -10 100 11 30
11 64 20 75 20 11 0 29 8 40 16 19 16 19 16 -5 9 -14 -4 -21 -4 -17 1 5 5 35
16 68 25 45 12 59 13 59 4 0 -7 -12 -16 -27 -20 -27 -8 -27 -8 -5 -14 21 -6
22 -7 8 -26 -14 -17 -17 -18 -26 -5 -8 13 -10 13 -10 -2 0 -13 -31 -27 -126
-58 l-126 -41 -37 22 c-80 47 -301 194 -301 201 0 4 30 16 66 27 67 21 108 40
87 41 -6 0 -24 -5 -40 -11 -15 -6 -39 -13 -52 -15 -13 -3 -36 -11 -52 -19 -31
-16 -49 -19 -49 -7 0 4 15 13 33 21 17 8 51 23 74 34 27 12 52 17 68 13 20 -5
26 -2 31 19 6 23 20 32 68 39 10 1 21 7 24 12 12 17 62 34 97 34 24 0 35 5 35
15 0 8 9 15 20 15 11 0 20 -7 20 -15 0 -8 7 -15 15 -15 18 0 20 36 3 43 -7 3
-3 6 8 6 12 1 24 -6 28 -14z m1166 3 c0 -4 -10 -8 -22 -9 -13 0 -33 -2 -45 -5
-13 -2 -23 0 -23 5 0 5 12 11 28 13 41 6 62 5 62 -4z m-1400 -16 c0 -5 -14
-12 -31 -16 -46 -9 -59 -7 -59 7 0 9 16 14 45 16 25 1 45 -2 45 -7z m1185 -2
c3 -5 1 -10 -4 -10 -6 0 -11 5 -11 10 0 6 2 10 4 10 3 0 8 -4 11 -10z m400 0
c-28 -12 -88 -12 -80 0 3 6 27 10 53 9 35 0 42 -3 27 -9z m-171 -10 c-6 -6
-35 -12 -65 -15 -30 -2 -70 -9 -89 -15 -43 -12 -97 -13 -104 -1 -8 13 34 21
128 27 44 3 82 7 85 9 2 3 16 5 30 5 17 0 22 -3 15 -10z m-1724 -16 c0 -8 -4
-12 -10 -9 -5 3 -10 10 -10 16 0 5 5 9 10 9 6 0 10 -7 10 -16z m190 -24 c-8
-5 -17 -7 -21 -4 -4 2 -33 -1 -65 -6 -33 -6 -71 -12 -86 -15 -16 -2 -28 -1
-28 4 0 4 37 16 83 26 45 10 86 22 91 26 5 4 16 1 24 -8 13 -12 13 -16 2 -23z
m1597 34 c-3 -3 -12 -4 -19 -1 -8 3 -5 6 6 6 11 1 17 -2 13 -5z m-1511 -29
c-32 -17 -66 -20 -66 -6 0 9 27 16 75 19 15 2 13 -2 -9 -13z m1552 6 c8 -5
-15 -14 -65 -26 -91 -21 -193 -34 -193 -24 0 11 102 41 160 46 30 3 57 7 59 9
7 6 25 4 39 -5z m191 -25 c-9 -9 -84 -10 -84 -1 0 13 67 24 79 13 5 -4 8 -10
5 -12z m-584 4 c-3 -5 -13 -10 -21 -10 -21 0 -17 -23 7 -38 23 -15 71 -8 106
14 12 8 24 10 28 5 7 -13 -7 -21 -66 -36 -28 -8 -51 -9 -55 -4 -12 20 -24 7
-21 -23 2 -24 8 -33 20 -32 27 3 20 -13 -12 -24 -24 -8 -31 -7 -35 5 -3 8 -1
23 4 33 14 26 13 31 -6 28 -22 -4 -39 41 -19 49 10 3 13 12 10 24 -5 16 -1 19
30 19 22 0 34 -4 30 -10z m-1871 -9 c4 -5 49 -12 101 -16 61 -5 99 -12 106
-21 6 -8 21 -14 33 -14 44 -1 179 -71 159 -83 -5 -3 -19 1 -29 11 -24 22 -162
71 -234 83 -30 5 -86 12 -125 15 -78 5 -88 10 -54 23 31 13 37 13 43 2z m1965
-5 c-9 -9 -88 -23 -94 -17 -4 3 15 11 42 17 45 10 62 10 52 0z m339 -18 c-3
-7 -29 -16 -59 -19 -30 -3 -100 -12 -156 -18 -57 -7 -108 -11 -115 -9 -16 6
205 47 251 47 18 0 36 2 39 5 11 11 44 6 40 -6z m-2393 -6 c-2 -2 -21 -8 -42
-13 -52 -11 -167 -52 -171 -61 -2 -5 -16 -8 -30 -8 -20 1 -6 11 58 43 65 32
97 42 138 43 29 0 50 -1 47 -4z m1542 -13 c-38 -22 -13 -25 42 -5 33 11 62 18
65 15 3 -3 8 -21 10 -39 3 -19 10 -53 15 -75 14 -55 13 -75 -3 -75 -8 0 -16
-7 -19 -15 -5 -11 -1 -12 18 -5 22 8 25 6 31 -24 10 -56 3 -70 -41 -81 -22 -5
-44 -14 -48 -20 -6 -7 -10 -6 -14 3 -8 20 -33 14 -33 -8 0 -12 -7 -20 -17 -21
-10 0 -31 -3 -47 -5 -23 -4 -27 -2 -23 11 6 14 4 14 -23 0 -17 -9 -31 -11 -35
-6 -6 10 122 91 143 91 7 0 12 5 12 10 0 16 -14 12 -54 -15 -20 -14 -40 -25
-44 -25 -4 0 -25 -12 -46 -26 l-38 -26 7 53 c7 61 23 109 36 109 5 0 9 6 9 13
0 18 31 33 117 56 81 22 93 27 93 43 0 6 -12 8 -30 5 -16 -4 -32 -2 -35 3 -3
6 -13 10 -22 10 -11 0 -14 -6 -9 -25 5 -18 2 -25 -8 -25 -8 0 -18 5 -21 10 -8
13 -45 13 -45 1 0 -5 6 -11 13 -14 6 -2 -4 -11 -23 -19 -19 -8 -37 -14 -38
-12 -9 7 11 44 20 38 6 -4 8 1 3 15 -5 16 -1 27 12 36 12 10 13 14 5 15 -27 0
-4 25 34 36 42 12 59 8 31 -7z m943 17 c0 -3 -4 -8 -10 -11 -5 -3 -10 -1 -10
4 0 6 5 11 10 11 6 0 10 -2 10 -4z m-2399 -16 c17 0 28 -4 24 -10 -4 -6 10 -8
39 -4 24 4 57 3 72 0 l28 -7 -32 -21 c-45 -28 -32 -35 16 -8 39 22 39 22 101
4 33 -10 60 -23 58 -28 -6 -17 -302 -165 -311 -155 -12 11 -14 8 57 48 31 18
57 34 57 37 0 6 -86 -38 -172 -89 -40 -23 -90 -51 -110 -62 -41 -21 -43 -26
-28 -55 11 -20 29 -18 65 8 18 13 17 13 -15 8 l-35 -7 28 16 c15 9 44 15 63
13 l36 -3 -24 -35 -24 -35 -89 0 c-51 -1 -99 -6 -112 -13 -39 -21 -43 -15 -43
63 0 75 0 75 28 76 15 0 36 4 47 8 19 8 19 9 -5 16 -14 5 -35 8 -46 6 -18 -2
-22 4 -26 36 -3 21 -1 40 4 41 4 2 8 16 8 31 0 26 6 30 83 56 45 15 84 31 87
35 10 13 39 19 45 10 4 -6 11 -10 16 -10 6 0 7 5 4 10 -4 6 5 10 19 10 14 0
26 5 26 11 0 6 7 8 16 5 9 -3 29 -6 45 -6z m2457 -22 c-5 -14 -15 -15 -188
-21 -144 -5 -139 7 9 22 121 13 183 13 179 -1z m-178 -37 c-20 -12 -137 -26
-128 -16 9 10 71 22 113 24 22 0 26 -2 15 -8z m-176 -25 c-8 -20 -85 -29 -120
-14 l-28 13 34 6 c69 12 120 10 114 -5z m176 -11 c-34 -10 -39 -13 -20 -15 14
-1 19 -4 12 -7 -6 -2 -10 -9 -7 -13 6 -10 -20 -17 -175 -49 -123 -25 -178 -39
-202 -52 -14 -7 -18 -5 -18 8 0 10 -3 28 -6 39 -5 20 1 23 86 43 115 26 179
36 162 24 -9 -7 -6 -13 13 -21 32 -15 48 -15 40 -2 -3 6 4 14 17 19 l23 10
-24 0 c-65 2 35 28 109 29 35 0 35 0 -10 -13z m180 -60 l0 -74 -32 -5 c-154
-24 -357 -60 -373 -68 -15 -6 -12 -7 13 -3 30 4 33 3 30 -18 -2 -16 -11 -23
-30 -25 -16 -2 -28 -6 -28 -10 0 -9 142 -9 155 -1 6 4 24 9 40 10 17 2 32 7
35 10 3 4 47 9 98 11 l92 4 0 -32 c0 -18 -6 -34 -13 -37 -14 -5 -39 17 -30 27
4 3 -1 6 -11 6 -10 0 -14 -5 -10 -11 4 -8 0 -9 -15 -4 -11 3 -26 3 -33 -1 -7
-5 -29 -7 -50 -5 -30 2 -38 -1 -38 -14 0 -11 -5 -15 -15 -11 -8 3 -15 2 -15
-2 0 -12 -87 -41 -142 -48 -27 -4 -48 -11 -48 -16 0 -5 -13 -14 -30 -19 -16
-6 -30 -15 -30 -21 0 -6 8 -7 18 -3 9 4 31 12 47 18 17 6 44 16 60 22 70 29
167 56 179 52 7 -3 24 0 38 7 13 7 36 16 51 20 56 14 23 -12 -86 -67 -105 -53
-115 -57 -145 -46 -39 13 -55 3 -28 -17 25 -18 44 -18 80 1 22 12 37 13 58 6
18 -6 26 -7 23 -1 -4 6 1 10 9 10 19 0 33 -23 17 -28 -7 -2 -1 -10 14 -18 36
-18 47 -18 43 2 -2 12 9 20 37 29 22 6 39 17 37 23 -1 7 5 12 13 12 8 0 16 -8
16 -17 9 -134 8 -144 -14 -153 -15 -6 -17 -9 -6 -9 22 -1 26 -20 22 -131 -1
-52 -2 -125 -2 -162 l0 -66 -33 7 c-61 14 -119 91 -69 91 21 0 45 23 34 33
-12 13 -33 7 -33 -8 0 -9 -9 -15 -24 -15 -18 0 -38 16 -70 56 -26 31 -46 61
-46 66 0 6 -7 16 -17 23 -11 8 -14 18 -9 31 4 10 8 21 9 24 0 3 10 13 21 22
12 10 16 17 9 18 -6 0 -15 -5 -18 -11 -4 -6 -13 -8 -20 -5 -7 2 -17 0 -22 -5
-6 -6 -33 12 -74 50 -66 62 -89 76 -67 41 7 -11 17 -20 23 -20 16 0 107 -102
135 -150 14 -23 46 -70 73 -103 26 -33 47 -63 47 -67 0 -17 84 -90 103 -90 40
0 48 -13 45 -74 l-3 -57 -65 56 c-36 31 -67 61 -69 67 -2 6 -15 21 -28 32 -13
12 -43 48 -66 82 -73 106 -123 168 -179 225 -48 48 -57 63 -66 115 -10 52 -46
190 -66 252 -5 13 -3 22 3 22 6 0 10 5 9 12 -2 8 58 23 182 46 102 18 192 37
201 42 9 5 27 6 39 3 17 -4 21 -2 18 8 -5 16 -36 16 -160 5 -43 -4 -80 -11
-82 -15 -3 -4 27 -3 66 1 39 5 76 7 82 5 6 -2 -16 -7 -49 -11 -64 -8 -276 -50
-311 -61 -16 -5 -23 -2 -27 15 -4 17 -2 20 15 14 17 -5 20 -3 15 10 -4 11 -1
16 11 16 9 0 28 3 42 6 l25 5 -24 -14 c-23 -14 -23 -14 18 -14 47 0 63 12 29
23 -19 6 -13 9 31 21 124 31 280 54 300 43 30 -16 46 -13 31 5 -9 10 -9 15 -1
15 6 0 11 4 11 9 0 5 -19 12 -42 16 l-43 7 50 13 c28 7 62 13 78 14 l27 1 0
-75z m-2079 44 c16 -11 29 -27 29 -35 0 -8 -3 -13 -7 -11 -13 8 -53 -12 -53
-26 0 -23 -55 -48 -83 -38 -14 5 -28 7 -31 4 -3 -4 -6 -2 -6 3 0 5 20 21 45
36 39 24 59 48 39 48 -8 0 -65 -41 -85 -61 -9 -9 -39 -19 -68 -23 -28 -4 -59
-9 -69 -12 -9 -3 -1 4 18 15 19 11 45 20 58 21 12 0 22 6 22 13 0 13 125 86
148 87 8 0 27 -9 43 -21z m1559 11 c0 -5 8 -10 18 -11 9 -1 -12 -7 -47 -15
-87 -19 -101 -6 -24 21 47 17 53 18 53 5z m-1370 -70 c47 -32 130 -84 185
-116 99 -59 100 -59 176 -58 42 1 93 4 113 8 49 9 48 30 -1 23 -76 -12 -158
-20 -153 -14 3 3 57 21 119 40 109 33 112 34 106 13 -4 -11 -12 -40 -18 -64
-8 -32 -19 -48 -41 -60 -29 -15 -30 -17 -8 -20 18 -3 21 -8 16 -30 -15 -63
-42 -109 -68 -116 -14 -3 -26 -11 -26 -17 0 -6 -4 -8 -9 -4 -5 3 -12 1 -16 -5
-3 -5 0 -10 7 -10 9 0 9 -3 -2 -10 -18 -12 -33 -13 -27 -2 3 4 -14 6 -36 6
-29 -1 -42 -6 -42 -15 0 -12 -67 -57 -88 -59 -28 -1 127 141 172 158 20 7 101
74 101 83 0 10 -63 0 -75 -12 -7 -7 -4 -8 10 -3 18 7 18 6 6 -9 -8 -11 -21
-15 -35 -11 -14 3 -47 -8 -92 -31 -88 -47 -93 -52 -47 -50 28 1 37 5 35 16 -2
13 19 28 81 57 4 2 7 -2 7 -10 0 -15 -109 -104 -145 -118 -14 -5 -25 -14 -25
-20 0 -7 -6 -8 -17 -2 -25 12 -65 9 -70 -4 -2 -7 7 -16 21 -20 25 -9 25 -10
-29 -51 -43 -34 -63 -43 -94 -43 -45 0 -62 17 -38 35 10 7 17 22 17 33 0 12 8
26 19 31 15 9 18 7 17 -7 -1 -12 8 -18 27 -20 15 -2 27 1 27 7 0 6 -7 11 -16
11 -14 0 -15 2 -3 17 12 15 12 16 -5 10 -16 -6 -17 -5 -6 8 14 16 40 20 40 6
0 -5 25 4 56 21 30 17 53 32 50 35 -3 3 -26 -7 -51 -22 -26 -15 -49 -24 -52
-21 -6 5 107 81 175 116 27 14 41 28 38 36 -7 18 12 28 28 14 11 -8 22 -6 48
10 18 11 42 20 54 20 22 0 74 22 74 31 0 3 -29 0 -65 -8 -79 -16 -129 -4 -255
62 -97 50 -168 94 -194 118 -16 15 -34 27 -41 27 -17 0 -68 57 -61 68 10 16
35 4 126 -58z m-93 -22 c50 -28 88 -58 77 -59 -5 0 23 -16 61 -35 83 -41 134
-75 135 -90 0 -16 -53 -39 -58 -25 -4 13 -32 15 -32 3 0 -4 5 -13 10 -18 7 -7
-7 -21 -42 -44 -29 -18 -70 -47 -91 -63 -21 -16 -39 -28 -41 -26 -2 2 -8 33
-15 68 -8 47 -8 68 0 78 9 10 8 13 -5 13 -9 0 -24 19 -36 45 -11 25 -24 45
-29 45 -4 0 -21 11 -37 25 -16 14 -35 25 -41 25 -24 0 -13 15 35 47 57 39 61
39 109 11z m313 12 c0 -5 -8 -10 -17 -10 -15 0 -16 2 -3 10 19 12 20 12 20 0z
m180 -20 c-8 -5 -22 -10 -30 -10 -13 0 -13 1 0 10 8 5 22 10 30 10 13 0 13 -1
0 -10z m1575 -50 c4 -6 -6 -10 -22 -10 -22 0 -25 2 -13 10 19 12 27 12 35 0z
m-2595 -5 c0 -5 -76 -45 -87 -45 -12 0 10 18 42 34 31 16 45 20 45 11z m2508
-7 c-5 -15 -91 -36 -162 -39 -28 -2 -67 -9 -86 -16 -43 -15 -80 -16 -80 -3 0
6 7 10 16 10 8 0 13 4 10 9 -3 4 43 16 102 26 59 9 114 18 122 20 42 8 81 4
78 -7z m-2220 -8 c9 0 -1 -9 -22 -21 -55 -29 -89 -41 -81 -29 4 6 -8 10 -27
11 l-33 1 28 8 c16 5 34 13 40 18 16 13 48 21 65 16 8 -2 21 -4 30 -4z m74
-45 c1 -5 11 -15 22 -20 12 -6 22 -21 24 -33 3 -20 -1 -22 -28 -20 -17 1 -34
6 -37 10 -2 5 -28 6 -56 3 l-52 -5 43 19 c42 20 51 34 32 46 -6 4 -8 10 -5 15
7 11 54 -2 57 -15z m2148 15 c0 -5 -15 -10 -32 -9 -28 0 -30 2 -13 9 28 12 45
12 45 0z m-830 -61 l0 -51 -34 21 c-18 12 -43 21 -54 21 -11 0 -24 5 -27 10
-3 6 5 10 19 10 13 0 26 3 28 8 5 12 53 40 61 35 4 -2 7 -27 7 -54z m-1560 36
c0 -16 -38 -38 -85 -49 -37 -9 -26 3 35 38 54 30 50 29 50 11z m115 -27 c-11
-6 -22 -15 -25 -19 -3 -4 -18 -11 -34 -15 -42 -10 -29 18 15 33 45 16 71 16
44 1z m2000 2 c-3 -5 -10 -10 -16 -10 -5 0 -9 5 -9 10 0 6 7 10 16 10 8 0 12
-4 9 -10z m-1382 -34 c12 -8 37 -17 55 -19 39 -6 55 -17 25 -17 -25 0 -164
-47 -177 -60 -15 -15 -3 -12 54 10 57 23 60 23 60 12 0 -4 -35 -29 -77 -56
-43 -26 -87 -53 -98 -61 -18 -13 -24 -13 -48 0 -23 12 -27 12 -27 0 0 -8 5
-17 10 -20 6 -3 10 -10 10 -14 0 -6 -75 -51 -87 -51 -2 0 -3 19 -1 42 l3 42
85 38 c47 21 90 39 95 41 6 3 6 11 -2 24 -10 17 -5 23 38 52 27 17 49 36 49
41 0 13 7 12 33 -4z m684 -2 c61 -1 79 -5 113 -28 26 -17 40 -34 40 -47 0 -20
-2 -20 -22 -7 -40 25 -148 59 -176 56 l-27 -4 30 -8 c86 -22 132 -40 154 -62
13 -13 27 -24 32 -24 4 0 6 -14 4 -30 -2 -17 1 -43 7 -58 27 -68 14 -196 -27
-258 -42 -64 -134 -82 -199 -38 -31 21 -96 106 -96 125 0 13 28 -1 34 -17 6
-16 26 -19 26 -3 0 6 -7 17 -15 26 -8 8 -13 19 -10 23 8 14 90 67 114 75 12 3
21 10 21 14 0 13 48 31 65 25 20 -8 19 -21 -2 -33 -29 -17 -9 -13 27 6 28 14
31 18 18 27 -9 6 -17 19 -19 29 -4 15 -9 15 -54 -9 -27 -15 -61 -35 -74 -46
-17 -13 -33 -17 -53 -13 -29 7 -36 -3 -16 -23 7 -7 8 -12 2 -12 -6 0 -24 -11
-40 -25 l-29 -25 -3 41 c-2 27 2 45 10 51 8 5 9 11 3 16 -5 4 -12 51 -14 106
-2 75 0 101 10 108 11 7 11 11 2 15 -7 2 -13 11 -13 18 0 9 16 15 48 17 26 2
49 1 52 -2 3 -3 38 -5 77 -6z m-1307 -8 c0 -3 -4 -8 -10 -11 -5 -3 -10 -1 -10
4 0 6 5 11 10 11 6 0 10 -2 10 -4z m110 -16 c0 -4 -11 -11 -24 -14 -13 -3 -31
-9 -40 -12 -12 -5 -15 -2 -10 11 11 28 74 41 74 15z m2168 -32 c-2 -23 -9 -34
-23 -37 -11 -2 -24 -9 -30 -16 -19 -24 -61 -26 -80 -5 -23 25 -17 31 60 63 78
33 77 33 73 -5z m-2073 12 c3 -5 -1 -10 -9 -10 -9 0 -16 5 -16 10 0 6 4 10 9
10 6 0 13 -4 16 -10z m-646 -25 c-13 -13 -32 -25 -41 -25 -10 0 -18 -7 -18
-15 0 -12 6 -12 43 2 39 14 148 30 119 17 -7 -3 -17 -14 -22 -25 -9 -16 -7
-19 10 -19 13 0 24 10 30 25 5 14 14 25 19 25 6 0 8 -7 5 -15 -4 -10 0 -13 17
-10 13 3 27 -1 31 -8 11 -17 10 -27 -3 -27 -5 0 -7 5 -4 10 9 15 -16 12 -49
-5 -15 -8 -32 -13 -36 -10 -4 3 -13 -2 -20 -10 -7 -8 -23 -15 -36 -15 -12 0
-26 -4 -29 -10 -8 -12 -25 -13 -25 -1 0 5 11 12 25 15 14 4 25 11 25 16 0 20
-19 18 -53 -5 -76 -51 -73 -51 -75 21 l-2 66 30 -7 c20 -4 30 -3 30 5 0 6 -4
8 -10 5 -5 -3 -10 -2 -10 4 0 10 21 18 54 20 16 1 16 -2 -5 -24z m452 2 c-13
-13 -26 -3 -16 12 3 6 11 8 17 5 6 -4 6 -10 -1 -17z m-131 -17 c-8 -5 -17 -7
-19 -4 -3 3 1 9 9 14 8 5 17 7 19 4 3 -3 -1 -9 -9 -14z m332 -3 c9 -6 18 -27
22 -44 6 -34 -2 -39 -56 -35 -10 1 -18 -5 -18 -13 0 -8 -4 -15 -8 -15 -5 0
-17 -6 -27 -14 -18 -13 -18 -14 9 -9 15 3 44 14 64 23 20 10 40 16 44 13 12
-7 10 -31 -4 -53 -9 -15 -10 -23 -2 -28 15 -10 26 -41 29 -89 3 -38 1 -42 -23
-48 -15 -4 -42 -14 -60 -22 -26 -12 -36 -13 -41 -4 -6 9 -11 8 -21 -4 -7 -8
-9 -15 -4 -15 5 -1 -2 -7 -16 -15 -22 -13 -23 -14 -5 -15 19 -1 19 -2 -1 -10
-16 -6 -20 -15 -17 -34 3 -15 1 -26 -6 -26 -6 0 -9 14 -8 33 2 18 -3 40 -11
50 -13 15 -13 17 1 17 10 0 17 4 17 9 0 5 9 13 20 16 11 4 32 17 47 31 14 13
36 24 49 24 12 0 35 5 51 12 22 9 24 12 10 15 -10 3 -49 -8 -88 -22 -38 -15
-72 -26 -74 -24 -2 2 3 18 10 35 9 23 24 35 52 44 42 14 85 40 65 40 -7 0 -29
-7 -49 -15 -20 -8 -38 -13 -41 -10 -3 3 9 11 26 17 18 7 32 16 32 21 0 4 -9 3
-19 -3 -11 -5 -29 -10 -40 -10 -13 0 -23 -8 -27 -24 -3 -15 -17 -29 -35 -35
-37 -13 -37 -6 -1 13 l27 15 -30 -2 c-18 -1 -33 -9 -37 -19 -9 -22 -38 -24
-38 -3 0 17 45 49 58 41 9 -5 37 27 41 49 2 6 7 16 13 23 6 7 8 15 5 18 -2 3
-20 -11 -39 -30 -37 -38 -58 -46 -58 -21 0 20 75 66 111 67 23 1 27 4 18 14
-7 9 -21 11 -38 8 -41 -10 -46 -10 -43 4 3 18 -15 15 -27 -5 -7 -14 -12 -15
-24 -4 -13 10 -22 10 -49 -3 -31 -15 -78 -18 -78 -6 0 13 90 41 113 35 20 -5
28 -2 37 15 8 15 18 20 31 17 12 -3 17 -1 12 6 -4 6 0 8 10 4 10 -3 17 -3 17
2 0 13 105 12 122 -2z m275 -13 c2 -5 -24 -19 -57 -31 -33 -12 -60 -20 -60
-17 0 2 21 18 47 34 46 30 64 33 70 14z m-748 -53 c18 -12 1 -21 -49 -27 -47
-6 -50 0 -12 20 32 18 42 19 61 7z m75 -36 c21 -32 20 -35 -5 -35 -12 0 -27
-7 -34 -16 -10 -14 -13 -14 -26 -2 -9 10 -21 12 -34 7 -11 -4 -31 -8 -44 -8
-14 -1 -32 -8 -41 -16 -9 -8 -32 -17 -51 -21 -25 -4 -9 8 61 45 92 49 128 61
115 41 -3 -5 3 -10 15 -10 17 0 20 4 15 20 -9 28 9 25 29 -5z m154 -18 c10 3
8 -1 -6 -11 -26 -20 -49 -12 -30 11 7 9 14 11 16 5 2 -6 11 -8 20 -5z m846
-87 c-13 -52 -26 -112 -29 -133 -5 -34 -11 -40 -53 -59 -26 -11 -53 -21 -60
-22 -8 -1 -17 -7 -21 -14 -7 -12 -102 -55 -108 -48 -12 11 43 56 68 56 15 0
31 5 34 10 3 6 -1 10 -9 10 -27 0 -18 15 29 50 25 19 45 37 45 41 0 4 11 10
25 13 17 4 25 13 25 27 0 19 -4 20 -37 14 -20 -3 -63 -20 -94 -36 -35 -17 -60
-25 -64 -19 -3 6 -2 10 4 10 5 0 16 6 23 13 54 51 119 97 139 97 12 0 19 3 16
7 -8 7 21 43 35 43 5 0 18 9 30 20 12 11 23 19 24 17 1 -1 -9 -45 -22 -97z
m-1214 62 c-1 -10 -122 -64 -129 -56 -3 3 2 10 12 15 9 6 14 15 11 21 -5 7 -1
9 9 5 10 -3 17 -2 17 3 0 5 8 10 18 12 35 7 62 8 62 0z m1140 -6 c0 -3 -4 -8
-10 -11 -5 -3 -10 -1 -10 4 0 6 5 11 10 11 6 0 10 -2 10 -4z m-890 -21 c9 -10
9 -15 1 -15 -6 0 -11 5 -11 11 0 6 -6 9 -13 6 -8 -3 -20 -1 -28 4 -10 6 -7 9
12 9 15 0 32 -7 39 -15z m847 -8 c-5 -14 -67 -30 -67 -17 0 8 63 39 69 34 2
-2 1 -10 -2 -17z m-753 -2 c-4 -8 -11 -15 -16 -15 -6 0 -5 6 2 15 7 8 14 15
16 15 2 0 1 -7 -2 -15z m-239 -5 c-3 -5 -17 -10 -31 -10 -14 0 -22 4 -19 10 3
6 17 10 31 10 14 0 22 -4 19 -10z m65 -10 c-8 -5 -22 -10 -30 -10 -13 0 -13 1
0 10 8 5 22 10 30 10 13 0 13 -1 0 -10z m-146 -11 c-4 -8 0 -9 15 -4 11 3 21
4 21 1 0 -2 -22 -12 -50 -21 -27 -9 -50 -20 -50 -25 0 -11 -81 -52 -88 -45 -4
3 0 18 8 32 13 22 81 55 148 72 2 1 0 -4 -4 -10z m196 7 c0 -3 -4 -8 -10 -11
-5 -3 -10 -1 -10 4 0 6 5 11 10 11 6 0 10 -2 10 -4z m-311 -27 c-8 -5 -21 -9
-29 -9 -12 1 -11 4 4 15 10 8 23 12 29 8 5 -3 3 -9 -4 -14z m1111 -9 c0 -15
-53 -51 -82 -57 -16 -3 -28 -12 -28 -19 0 -18 -7 -18 -34 4 -13 9 -21 24 -18
32 6 20 43 50 62 50 8 -1 3 -8 -12 -18 -49 -29 -30 -31 29 -2 53 26 83 29 83
10z m-819 -5 c-18 -8 -36 -15 -40 -15 -13 1 45 29 59 29 8 0 0 -6 -19 -14z
m2186 -168 c52 -65 61 -87 39 -87 -9 0 -19 -7 -22 -15 -4 -8 -14 -15 -23 -15
-10 0 -26 -6 -37 -14 -13 -10 -23 -11 -31 -4 -9 7 -15 5 -19 -8 -7 -19 -43
-53 -56 -54 -5 0 -8 16 -8 36 0 31 2 35 15 24 19 -16 39 -4 22 14 -6 8 -16 12
-20 9 -5 -3 -7 10 -5 28 2 24 7 33 18 31 11 -3 11 1 -3 16 -10 11 -20 41 -22
68 -2 27 -7 73 -9 103 l-5 54 62 -66 c34 -37 81 -91 104 -120z m-2346 133 c6
0 24 7 40 16 17 8 36 13 42 11 7 -3 -1 -10 -18 -16 -16 -6 -38 -16 -47 -21
-25 -14 -38 -12 -38 5 0 8 -6 12 -15 9 -17 -7 -15 -27 3 -34 8 -3 -18 -22 -57
-43 -39 -20 -71 -35 -71 -33 0 3 -3 11 -6 20 -3 9 -1 16 5 16 6 0 25 9 43 21
30 20 26 20 -19 2 -16 -6 -16 -5 -5 10 8 9 35 24 60 33 26 10 52 21 57 26 6 6
11 3 13 -6 2 -9 8 -16 13 -16z m421 -10 c-18 -43 -39 -48 -34 -9 2 22 26 49
43 49 4 0 0 -18 -9 -40z m-152 -3 c0 -7 -8 -13 -18 -14 -9 -1 -22 -2 -27 -3
-6 -1 -19 -1 -30 0 -15 1 -11 5 15 15 45 17 60 18 60 2z m-209 -16 c-22 -12
-29 -20 -20 -23 9 -3 4 -10 -16 -21 -16 -9 -23 -16 -15 -17 9 0 26 7 38 16 13
9 26 13 30 9 4 -4 2 -10 -4 -12 -6 -2 -20 -10 -30 -19 -14 -11 -10 -10 18 2
20 10 35 21 32 26 -3 4 1 5 9 2 8 -3 18 -1 22 5 8 13 45 15 45 2 0 -10 -28
-41 -36 -41 -3 0 -2 5 1 10 9 15 3 13 -46 -15 -68 -38 -91 -47 -114 -41 -12 3
-31 -2 -44 -10 -20 -15 -24 -15 -42 1 -18 17 -18 19 -1 31 15 12 15 12 -5 7
-49 -12 -19 10 79 57 56 28 108 50 117 50 9 -1 1 -9 -18 -19z m306 -14 c3 -20
2 -21 -13 -5 -9 9 -13 21 -9 28 9 15 18 6 22 -23z m688 24 c3 -5 -4 -16 -16
-25 -12 -8 -48 -40 -81 -71 -33 -31 -60 -55 -62 -53 -14 21 -25 63 -19 69 10
10 155 88 165 89 4 0 9 -4 13 -9z m-762 -51 c4 -15 0 -21 -16 -24 -24 -5 -97
-4 -97 1 0 6 95 50 101 46 4 -1 9 -12 12 -23z m458 10 c10 -6 19 -15 19 -21 0
-6 -6 -6 -17 -1 -10 5 -24 7 -30 5 -7 -3 -13 2 -13 11 0 19 13 20 41 6z m159
5 c0 -2 -9 -9 -20 -15 -12 -6 -20 -7 -20 -1 0 5 8 12 18 14 9 3 18 5 20 6 1 0
2 -1 2 -4z m-270 -20 c0 -8 -5 -15 -11 -15 -5 0 -7 -4 -4 -10 3 -5 0 -7 -9 -4
-20 7 -58 -14 -50 -28 4 -7 3 -8 -4 -4 -18 11 -85 -21 -76 -36 4 -7 -3 -4 -15
7 -21 18 -22 20 -4 33 10 7 28 15 41 19 12 3 22 10 22 15 0 6 -8 8 -18 6 -11
-3 -19 0 -19 7 0 7 6 11 12 9 6 -3 22 0 36 5 39 16 99 13 99 -4z m-330 -33 c0
-16 -46 -34 -155 -62 -63 -16 -128 -36 -144 -44 -19 -10 -32 -12 -36 -6 -5 9
33 30 53 30 4 0 40 14 81 30 40 17 87 30 105 30 18 0 41 7 52 15 21 16 44 20
44 7z m435 -2 c3 -5 -1 -10 -10 -10 -9 0 -13 5 -10 10 3 6 8 10 10 10 2 0 7
-4 10 -10z m-86 -41 c1 -3 -28 -21 -64 -39 -37 -19 -68 -38 -71 -42 -4 -5 18
2 47 17 l54 26 -30 -26 c-36 -31 -85 -58 -92 -51 -3 2 -2 23 2 46 6 38 11 43
73 74 67 32 77 32 81 -5z m-519 22 c-8 -5 -26 -11 -40 -15 -21 -5 -20 -3 5 9
32 15 60 20 35 6z m198 -25 c9 -20 7 -25 -14 -35 -17 -8 -24 -8 -24 0 0 7 -9
9 -21 6 -16 -4 -18 -3 -8 9 6 8 8 14 3 14 -9 1 36 29 47 30 3 0 11 -11 17 -24z
m784 -148 c-2 -103 1 -197 8 -231 6 -33 9 -61 7 -63 -2 -3 -30 10 -61 28 -41
23 -56 38 -56 54 0 12 -6 27 -14 33 -7 6 -25 50 -40 99 -15 48 -31 100 -36
116 -12 36 -10 39 39 64 l38 20 -20 -37 c-11 -21 -18 -45 -14 -54 7 -19 52
-23 62 -7 4 6 15 8 26 5 11 -4 19 -2 19 4 0 6 -20 11 -45 11 -50 0 -50 6 -5
59 17 20 22 22 36 10 15 -12 16 -11 10 8 -6 17 -1 25 21 37 15 8 28 15 28 16
0 0 -1 -78 -3 -172z m-375 143 c0 -11 -5 -17 -9 -15 -11 7 -10 34 1 34 6 0 9
-9 8 -19z m-803 -22 c-3 -5 -10 -7 -15 -3 -5 3 -7 10 -3 15 3 5 10 7 15 3 5
-3 7 -10 3 -15z m56 12 c0 -5 -7 -12 -16 -15 -14 -5 -15 -4 -4 9 14 17 20 19
20 6z m116 -52 c-44 -21 -83 -43 -86 -49 -4 -6 -13 -3 -23 8 -17 18 -16 20 25
35 55 20 140 46 153 46 6 0 -26 -18 -69 -40z m247 11 c3 -11 0 -20 -6 -20 -7
0 -6 -4 3 -10 12 -7 10 -11 -10 -18 -14 -5 -27 -6 -30 -2 -3 5 -9 8 -15 9 -5
0 -19 3 -30 6 -17 5 -13 9 25 30 55 30 56 30 63 5z m120 -17 c-3 -18 -9 -33
-14 -33 -13 0 -11 44 3 58 15 15 17 13 11 -25z m187 11 c0 -9 -7 -22 -15 -30
-8 -9 -15 -12 -15 -8 0 4 -9 -1 -19 -10 -11 -10 -24 -15 -30 -12 -5 4 -14 -2
-20 -11 -6 -10 -11 -14 -11 -9 0 6 -9 0 -21 -12 -11 -12 -24 -20 -30 -17 -21
13 -6 35 44 63 28 16 63 39 77 50 27 22 40 20 40 -4z m135 -13 c-19 -38 -28
-41 -14 -5 13 35 20 46 26 41 2 -3 -3 -19 -12 -36z m-925 -2 c0 -5 -4 -9 -10
-9 -5 0 -10 7 -10 16 0 8 5 12 10 9 6 -3 10 -10 10 -16z m349 1 c-20 -10 -55
-21 -77 -24 -63 -7 -84 -28 -41 -39 12 -3 18 -10 14 -16 -13 -22 27 -23 75 -2
63 27 97 28 54 2 -17 -10 -41 -22 -54 -26 -13 -4 -31 -17 -40 -28 -18 -21 -40
-16 -40 9 0 8 -9 14 -20 14 -26 0 -26 17 1 25 11 4 18 9 16 12 -3 2 -15 0 -26
-7 -26 -13 -47 -4 -32 14 6 7 8 15 5 19 -10 10 58 41 116 53 80 17 89 15 49
-6z m631 16 c0 -3 -4 -8 -10 -11 -5 -3 -10 -1 -10 4 0 6 5 11 10 11 6 0 10 -2
10 -4z m1590 -58 c0 -12 -48 -10 -55 2 -3 6 -14 10 -23 10 -15 -1 -14 -3 3
-17 18 -14 18 -15 2 -9 -10 3 -23 6 -28 6 -20 0 -7 17 24 31 28 13 35 13 54
-1 12 -8 23 -18 23 -22z m-1590 -2 c-5 -5 -10 -18 -10 -27 0 -9 -7 -22 -15
-29 -13 -11 -15 -8 -15 13 0 14 5 38 10 52 9 23 13 25 26 15 10 -9 12 -16 4
-24z m-620 9 c0 -6 -33 -19 -75 -29 -37 -9 -25 5 18 21 35 13 57 16 57 8z
m160 -15 c0 -11 5 -20 10 -20 6 0 10 -6 10 -13 0 -17 -86 -61 -101 -52 -8 6
-7 10 5 17 22 12 20 28 -3 28 -11 0 -23 5 -26 10 -6 10 6 14 38 10 11 -1 21 7
24 19 7 28 43 28 43 1z m298 -5 c16 -34 15 -38 -3 -31 -9 3 -15 0 -15 -9 0 -8
-2 -15 -4 -15 -2 0 -12 -3 -22 -7 -13 -5 -15 -3 -9 7 5 8 3 11 -6 8 -8 -3 -13
-10 -12 -16 2 -6 -7 -16 -18 -23 -15 -8 -19 -8 -15 0 11 17 -5 13 -19 -5 -10
-15 -13 -15 -29 1 -9 10 -16 21 -14 26 4 11 129 88 144 89 6 0 16 -11 22 -25z
m1626 -14 c4 -5 1 -11 -6 -13 -14 -5 -4 -38 12 -38 5 0 10 9 10 20 0 18 26 27
63 21 4 0 7 3 7 9 0 22 54 3 89 -30 21 -19 62 -55 93 -79 54 -43 56 -46 56
-94 1 -71 -10 -89 -65 -111 -75 -30 -187 -105 -433 -291 -41 -31 -82 -60 -90
-65 -8 -5 -12 -11 -8 -15 5 -5 57 29 119 79 9 8 60 45 114 82 94 66 129 79
146 52 4 -7 9 -7 13 0 4 6 -3 16 -15 23 l-22 11 24 20 c45 36 80 51 92 39 14
-14 30 -14 22 -1 -3 6 0 10 7 10 10 0 10 2 -1 9 -10 7 -3 14 30 29 24 10 46
18 48 16 2 -2 6 -64 8 -138 l5 -135 -86 -42 c-47 -23 -84 -44 -82 -46 2 -2 36
12 77 32 46 22 77 31 83 25 5 -5 11 -100 13 -212 4 -271 13 -513 20 -565 l5
-43 -58 26 c-33 14 -68 29 -79 34 -11 4 -42 17 -70 28 -27 11 -99 44 -160 74
-60 29 -112 53 -115 53 -3 1 -24 11 -47 23 -23 12 -47 22 -54 22 -6 0 -39 14
-73 32 -191 99 -182 96 -277 83 -61 -8 -50 -15 -125 77 -12 16 -10 20 25 37
21 11 45 31 55 45 12 19 25 26 48 26 25 0 42 11 83 53 89 92 149 171 190 249
24 47 49 81 64 88 13 6 21 13 18 17 -4 3 -14 0 -23 -8 -20 -16 -19 -15 20 65
16 32 32 73 37 90 4 17 14 56 22 87 7 30 16 60 20 66 3 5 68 41 144 78 75 38
132 70 126 72 -6 2 -61 -21 -123 -51 -101 -49 -140 -59 -140 -36 0 4 7 24 15
43 14 34 42 58 73 63 8 1 16 5 20 8 8 9 30 7 36 -3z m-2389 -11 c-3 -5 -16
-10 -28 -10 -12 0 -29 -5 -37 -11 -11 -7 -2 -8 32 -4 26 3 55 8 63 11 8 4 15
2 15 -4 0 -6 -15 -14 -32 -18 l-33 -8 30 -5 c24 -5 29 -11 29 -35 0 -22 -5
-30 -22 -32 -12 -2 -25 -5 -29 -6 -4 -2 -8 2 -8 7 0 6 6 9 13 9 6 -1 12 2 12
8 0 5 4 6 10 3 5 -3 7 0 4 8 -4 11 -13 13 -42 6 -20 -5 -43 -9 -49 -9 -20 0
-15 30 5 31 16 1 16 2 0 6 -10 2 -18 11 -18 19 0 8 -1 17 -2 22 -2 4 15 10 37
13 22 3 44 7 48 8 5 0 5 -3 2 -9z m960 -57 c-2 -7 -9 -13 -15 -13 -11 0 -13
39 -3 66 6 15 8 13 15 -11 4 -17 6 -36 3 -42z m-605 28 c0 -5 -10 -11 -22 -14
-13 -4 -32 -13 -43 -22 -19 -15 -17 -16 32 -12 29 2 51 1 48 -2 -2 -3 -24 -17
-48 -30 -38 -21 -48 -23 -61 -12 -13 11 -14 16 -4 29 11 13 10 15 -9 10 -25
-7 -30 4 -10 20 11 9 93 40 110 42 4 0 7 -4 7 -9z m448 -12 c1 -8 -12 -23 -30
-33 -18 -11 -35 -22 -38 -25 -3 -3 -21 -12 -40 -18 -29 -11 -37 -11 -49 2 -8
8 -13 16 -10 17 40 25 147 76 154 74 6 -1 11 -9 13 -17z m-294 -4 c3 -10 -10
-25 -39 -45 -24 -16 -46 -30 -48 -30 -2 0 -2 14 2 30 9 43 72 77 85 45z m43
-48 c10 -21 6 -26 -40 -58 -28 -19 -65 -46 -82 -61 l-31 -27 -29 23 -29 23 93
62 c52 33 97 61 101 61 4 0 12 -10 17 -23z m313 -32 c0 -6 -32 -28 -71 -49
-70 -37 -72 -37 -91 -19 -18 19 -18 20 14 49 18 16 49 39 68 51 l35 22 22 -21
c13 -12 23 -27 23 -33z m134 -34 c-3 -3 -13 4 -24 15 -13 13 -17 26 -13 43 5
22 7 21 24 -15 9 -22 15 -41 13 -43z m-904 54 c-7 -8 -9 -15 -4 -15 12 -1 -27
-30 -40 -30 -5 0 0 9 12 20 12 12 22 25 22 30 0 6 5 10 11 10 8 0 8 -5 -1 -15z
m305 5 c-3 -5 -14 -10 -23 -10 -14 0 -13 -2 2 -13 17 -13 16 -15 -15 -35 -18
-11 -37 -18 -41 -15 -13 7 2 45 26 65 22 18 61 25 51 8z m-458 -20 c-3 -13 0
-20 9 -20 17 0 18 -17 2 -23 -7 -3 12 -4 42 -1 40 3 51 1 43 -7 -6 -6 -23 -11
-37 -11 -18 0 -33 -12 -52 -39 -15 -22 -25 -42 -22 -44 3 -3 16 11 30 31 17
23 28 32 33 24 4 -6 -2 -22 -14 -34 -12 -12 -18 -27 -14 -32 5 -5 4 -6 -1 -1
-5 4 -17 -10 -27 -30 -14 -31 -18 -34 -18 -15 -1 12 4 22 9 22 7 0 7 6 0 19
-15 29 -13 168 3 174 19 8 20 8 14 -13z m758 -20 c-10 -11 -21 -17 -24 -14 -3
3 3 12 13 20 28 20 32 17 11 -6z m-675 6 c0 -11 -19 -15 -25 -6 -3 5 1 10 9
10 9 0 16 -2 16 -4z m580 -26 c0 -4 -10 -12 -22 -18 -20 -10 -19 -10 10 -5 59
10 41 -9 -77 -82 -38 -23 -47 -25 -67 -15 -37 20 -36 37 4 68 69 54 125 82
139 70 7 -6 13 -14 13 -18z m-464 5 c-8 -8 -17 -15 -20 -15 -3 0 -6 7 -6 15 0
9 9 15 21 15 18 0 19 -2 5 -15z m763 -16 c17 -22 17 -22 -57 -61 l-75 -40 -20
21 c-25 25 -22 29 58 70 72 37 72 37 94 10z m-804 -50 c-4 -6 -12 -8 -19 -6
-6 3 -20 -1 -31 -9 -18 -13 -18 -14 -1 -14 16 0 16 -2 6 -15 -9 -11 -15 -12
-20 -5 -4 7 -24 -8 -53 -39 -25 -28 -48 -51 -51 -51 -8 0 9 34 27 52 7 7 30
34 51 61 21 26 45 47 52 47 8 0 14 5 14 11 0 6 7 3 16 -5 8 -9 12 -21 9 -27z
m65 18 c0 -13 -50 -59 -60 -55 -7 2 -1 14 16 31 23 23 44 35 44 24z m73 -36
c-3 -12 -15 -18 -39 -19 l-35 -1 27 29 c30 31 56 26 47 -9z m416 10 c9 -15 0
-25 -60 -65 -48 -31 -75 -44 -85 -38 -11 6 -6 12 22 25 20 10 34 20 31 23 -3
3 -19 -2 -36 -10 -62 -32 -51 -14 20 33 83 56 94 59 108 32z m289 8 c-10 -5
-18 -17 -18 -24 0 -18 12 -19 28 -3 9 9 15 9 23 1 7 -7 2 -14 -18 -21 -15 -6
-51 -22 -80 -36 -50 -24 -52 -24 -72 -7 -25 21 -27 31 -7 31 8 0 16 3 18 8 5
11 110 62 128 62 12 -1 12 -2 -2 -11z m-242 -60 c18 -20 18 -21 -21 -55 l-40
-35 45 25 c44 24 46 24 69 7 l23 -18 -51 -31 c-51 -32 -81 -40 -81 -23 0 5 8
11 18 14 9 2 -1 4 -24 4 -24 -1 -53 6 -70 17 l-28 19 54 24 c29 13 51 26 47
29 -3 3 -17 -2 -31 -12 -15 -9 -29 -14 -32 -11 -6 5 83 66 97 67 3 0 14 -9 25
-21z m320 -4 c4 -8 10 -15 16 -15 5 0 25 -11 44 -24 l36 -24 -59 -29 -58 -29
-52 21 c-40 17 -50 24 -41 33 7 7 18 12 25 12 17 0 82 33 83 43 0 14 -32 6
-90 -23 -60 -30 -80 -36 -80 -22 0 8 138 71 158 72 7 0 15 -7 18 -15z m-940
-10 c-26 -19 -42 -19 -26 0 7 8 20 15 29 15 13 -1 13 -3 -3 -15z m139 5 c-3
-5 -23 -10 -43 -11 -30 -1 -33 -2 -13 -8 20 -5 21 -8 9 -18 -8 -7 -32 -17 -54
-22 -32 -7 -34 -9 -14 -12 14 -1 31 -2 38 -2 7 1 -3 -20 -22 -46 -20 -25 -50
-69 -68 -98 -36 -57 -36 -57 -57 -44 -17 11 -5 32 56 98 73 78 67 78 -9 1 -67
-68 -98 -91 -98 -72 0 9 162 204 170 204 4 0 10 9 13 20 4 16 14 20 52 20 28
0 44 -4 40 -10z m90 0 c-3 -5 -15 -10 -26 -10 -21 0 -27 -19 -6 -21 6 0 -1 -7
-18 -14 -16 -7 -28 -17 -25 -22 3 -4 -8 -10 -25 -11 l-30 -4 24 26 c14 14 30
26 37 26 7 0 16 9 19 20 4 13 15 20 31 20 14 0 22 -4 19 -10z m-333 -76 c-50
-67 -57 -74 -60 -52 -2 19 10 37 49 76 29 29 56 52 60 52 4 0 -18 -34 -49 -76z
m390 46 c7 0 7 -4 -1 -13 -6 -8 -23 -12 -43 -9 -29 4 -30 6 -12 19 10 7 25 11
32 8 8 -3 18 -5 24 -5z m-302 -9 c0 -21 -13 -42 -19 -32 -4 7 -23 -6 -47 -31
l-39 -42 39 29 c43 32 42 29 -29 -63 -22 -28 -43 -51 -47 -52 -14 0 -8 27 7
40 9 7 14 19 11 26 -5 14 74 118 96 127 20 8 28 8 28 -2z m270 -25 c0 -2 -13
-6 -30 -8 -16 -3 -30 -1 -30 4 0 4 14 8 30 8 17 0 30 -2 30 -4z m790 -26 c-6
-11 -24 -27 -40 -35 -16 -8 -32 -20 -36 -27 -4 -6 14 0 41 15 26 15 50 27 54
27 3 -1 -19 -24 -50 -53 -76 -70 -184 -196 -176 -204 7 -6 37 25 119 124 49
59 55 63 82 53 18 -6 16 -10 -15 -46 -19 -21 -59 -70 -89 -108 -44 -56 -52
-71 -43 -86 9 -14 5 -23 -24 -50 -47 -45 -129 -154 -149 -199 -12 -29 -25 -40
-56 -49 -21 -7 -43 -10 -49 -7 -5 4 -9 2 -9 -4 0 -6 -9 -15 -20 -21 -26 -14
-25 -11 4 29 14 19 26 27 28 20 2 -7 21 14 41 47 20 32 53 77 73 99 20 22 48
55 62 73 13 17 31 32 38 32 8 0 14 7 14 15 0 8 5 15 11 15 5 0 7 5 4 10 -4 6
-1 18 7 27 11 14 10 15 -10 9 -14 -5 -22 -3 -22 4 0 7 -17 9 -52 4 l-53 -7 20
24 c11 13 32 37 48 53 26 29 36 51 18 44 -5 -1 -32 -31 -60 -64 -28 -34 -61
-64 -73 -67 -13 -3 -34 -9 -48 -13 -24 -7 -24 -6 8 32 59 69 88 99 123 127 28
22 31 29 19 37 -11 7 15 23 103 65 65 31 122 53 127 50 6 -4 13 1 16 9 3 9 10
16 15 16 6 0 5 -9 -1 -20z m-716 -5 c-5 -11 -2 -13 10 -9 9 3 27 3 40 0 35 -9
23 -40 -22 -60 -21 -8 -26 -13 -12 -10 21 5 17 -3 -30 -51 -30 -32 -49 -55
-42 -51 21 12 13 -7 -23 -56 -36 -50 -54 -58 -74 -34 -9 11 1 29 45 87 31 41
64 81 73 90 19 20 45 51 54 66 6 9 -6 11 -40 7 -44 -5 -46 -4 -29 10 10 9 23
13 27 10 5 -3 9 0 9 5 0 6 4 11 10 11 5 0 7 -7 4 -15z m400 7 c6 -10 -99 -63
-108 -55 -6 6 81 62 96 63 4 0 9 -4 12 -8z m-491 -15 c3 -8 0 -14 -6 -15 -7 0
-30 -4 -52 -8 l-40 -7 19 21 c21 24 71 30 79 9z m-135 -40 c-16 -20 -31 -44
-32 -52 -3 -20 -16 -32 -16 -15 0 8 -20 -7 -45 -33 -24 -26 -46 -47 -49 -47
-14 0 19 59 78 136 30 41 44 51 66 50 l28 -1 -30 -38z m694 12 l41 -21 -43
-24 c-36 -21 -44 -22 -61 -11 -10 8 -16 17 -12 21 4 3 -8 3 -27 0 -42 -9 -34
8 18 36 46 24 36 24 84 -1z m363 -19 c6 -27 2 -35 -39 -71 -25 -22 -45 -44
-45 -47 3 -20 -3 -25 -12 -12 -9 13 -10 12 -5 -3 4 -12 -8 -36 -34 -71 -22
-29 -40 -62 -40 -73 0 -12 -40 -59 -100 -118 -55 -55 -100 -104 -100 -110 1
-5 23 15 50 45 54 60 67 61 23 2 -36 -48 -55 -63 -72 -56 -8 2 -20 -5 -28 -16
-8 -11 -19 -20 -24 -20 -23 0 75 134 160 218 34 34 41 46 30 53 -8 5 -9 9 -3
9 13 0 125 112 118 119 -2 3 -29 -19 -59 -49 -30 -30 -57 -52 -59 -49 -9 8
137 181 180 212 30 22 41 37 38 50 -3 9 -1 17 5 17 5 0 12 -14 16 -30z m-866
-11 c-5 -11 -14 -19 -20 -19 -6 0 -7 5 -4 11 17 26 -35 -20 -85 -77 -54 -61
-70 -73 -70 -55 0 12 96 129 124 152 10 9 29 14 42 11 20 -3 22 -7 13 -23z
m175 6 c18 -14 18 -15 -5 -25 -13 -7 -53 -48 -89 -92 -64 -78 -107 -118 -129
-118 -19 0 -12 14 42 83 28 36 63 82 77 102 14 19 30 35 36 35 7 0 14 7 18 15
7 19 25 19 50 0z m-271 -9 c-9 -16 -67 -90 -74 -96 -3 -3 -14 -19 -23 -37 -30
-58 3 -47 76 26 39 39 73 69 75 67 2 -2 -19 -34 -47 -70 -27 -37 -50 -71 -50
-77 0 -5 -8 -9 -19 -9 -29 0 -81 21 -81 32 0 6 21 36 47 67 l46 56 -61 -60
c-34 -33 -62 -55 -62 -51 0 12 47 93 78 134 21 28 30 32 63 30 23 -1 35 -6 32
-12z m345 -21 c2 -1 -27 -31 -63 -65 -36 -35 -63 -65 -60 -68 2 -2 -2 -17 -10
-33 -8 -15 -15 -30 -15 -34 0 -9 39 -5 45 5 3 6 1 10 -4 10 -20 0 -12 17 33
71 67 81 97 101 135 88 17 -6 31 -12 31 -14 0 -1 -40 -43 -89 -94 -88 -90 -90
-91 -135 -90 -68 3 -74 12 -32 49 20 18 34 35 31 38 -3 3 -25 -13 -48 -36 -58
-57 -67 -42 -14 21 105 127 149 168 171 161 11 -4 22 -8 24 -9z m-488 -40 c0
-11 -53 -85 -61 -85 -17 0 -9 22 19 55 25 31 42 43 42 30z m1110 -40 c7 -32 5
-40 -19 -68 -31 -36 -45 -67 -31 -67 6 0 10 4 10 9 0 4 13 22 29 39 l29 30 47
-44 c49 -47 49 -48 9 -90 -6 -7 -22 -25 -35 -41 -23 -28 -79 -53 -79 -36 0 5
21 28 46 52 25 23 43 45 40 48 -3 3 -35 -22 -71 -56 -36 -33 -75 -61 -85 -61
-25 0 -25 8 1 36 11 12 16 25 11 28 -5 3 -22 -12 -37 -34 -15 -22 -34 -40 -42
-40 -8 0 -12 -4 -8 -9 3 -6 -3 -9 -13 -8 -9 0 -32 -10 -50 -23 -17 -13 -34
-21 -36 -19 -13 12 145 196 209 244 31 23 -3 19 -42 -5 -18 -11 -33 -17 -33
-14 0 7 112 138 123 142 4 2 7 11 7 20 0 25 11 7 20 -33z m-485 16 c3 -6 -1
-13 -9 -18 -8 -4 -42 -33 -77 -63 -74 -65 -99 -84 -105 -78 -2 3 23 31 57 64
34 32 71 69 83 81 23 24 41 29 51 14z m-27 -83 c-60 -67 -109 -101 -123 -86
-11 10 156 157 179 158 5 0 -21 -33 -56 -72z m-768 7 c7 -9 10 -18 7 -22 -8
-7 -37 15 -37 28 0 14 16 11 30 -6z m50 -25 c0 -5 -2 -10 -4 -10 -3 0 -8 5
-11 10 -3 6 -1 10 4 10 6 0 11 -4 11 -10z m53 -77 c-7 -2 -19 -2 -25 0 -7 3
-2 5 12 5 14 0 19 -2 13 -5z m1350 -38 c21 -19 41 -35 45 -35 4 0 18 -9 32
-20 14 -11 33 -20 42 -20 9 0 18 -5 20 -12 2 -6 23 -11 49 -10 51 0 109 -15
109 -30 0 -5 -12 -7 -30 -3 -20 4 -30 3 -30 -5 0 -14 -41 -7 -127 23 -57 20
-81 37 -51 37 18 0 0 13 -22 17 -35 5 -25 -36 13 -52 l32 -14 -37 -1 c-21 0
-38 5 -38 10 0 6 -10 10 -22 11 -13 0 -17 3 -10 6 6 2 10 9 7 14 -4 5 1 6 9 3
9 -4 16 -1 16 6 0 13 -44 10 -100 -6 -23 -7 -24 -6 -10 11 14 16 13 17 -8 11
-12 -4 -22 -5 -22 -2 0 8 82 96 89 96 3 0 23 -16 44 -35z m-1443 5 c-6 -11
-13 -20 -15 -20 -3 0 -5 9 -5 20 0 11 7 20 15 20 13 0 14 -4 5 -20z m337 -4
c-3 -8 -25 -20 -49 -27 -28 -8 -37 -14 -25 -17 26 -6 2 -32 -30 -32 -24 0 -24
0 -6 25 10 14 35 30 57 37 21 6 40 18 43 25 3 8 8 12 10 9 3 -3 3 -12 0 -20z
m-257 5 c0 -5 -16 -11 -35 -13 -41 -5 -48 9 -7 15 15 2 30 5 35 6 4 0 7 -3 7
-8z m365 1 l-20 -5 20 -8 c19 -8 19 -8 -2 -15 -13 -3 -21 -9 -19 -13 2 -3 -16
-6 -40 -7 -50 -1 -49 12 1 22 19 3 35 10 35 14 0 4 -12 5 -26 2 -19 -3 -25 -1
-20 7 4 6 26 10 49 10 23 -1 33 -4 22 -7z m85 -1 c0 -5 -7 -12 -16 -15 -14 -5
-15 -4 -4 9 14 17 20 19 20 6z m-291 -5 c-12 -10 -69 -24 -69 -16 0 5 8 11 18
13 22 6 57 8 51 3z m406 -6 c-3 -5 -10 -10 -16 -10 -5 0 -9 5 -9 10 0 6 7 10
16 10 8 0 12 -4 9 -10z m148 -7 c-6 -16 -4 -16 15 1 26 23 40 16 17 -8 -20
-20 -55 -21 -55 -2 0 12 6 18 27 25 1 1 0 -7 -4 -16z m-219 -3 c-11 -11 -115
-33 -122 -26 -2 3 16 10 39 16 24 6 49 13 54 15 22 8 39 5 29 -5z m162 -35
c-13 -12 -32 -35 -42 -51 -10 -16 -33 -47 -51 -70 -18 -22 -30 -43 -27 -46 2
-3 -9 -29 -26 -57 -16 -29 -30 -56 -30 -61 0 -6 -8 -10 -17 -11 -10 -1 -32 -2
-50 -4 l-32 -3 31 62 c16 33 36 68 43 76 7 8 16 26 20 40 6 23 4 22 -24 -10
-17 -19 -31 -39 -31 -45 0 -5 -11 -32 -25 -59 -14 -27 -25 -55 -25 -63 0 -21
-42 -32 -158 -43 -59 -5 -136 -12 -172 -15 -36 -3 -77 -8 -92 -10 -23 -4 -28
-1 -28 16 0 48 96 194 145 220 20 11 34 15 30 10 -9 -15 8 -14 24 2 7 6 -3
-13 -23 -43 -65 -99 -89 -151 -79 -173 8 -18 9 -18 23 -1 9 11 10 15 3 10 -32
-19 -2 48 71 159 37 57 52 71 83 81 21 6 37 16 36 22 -2 7 5 11 15 9 42 -7 41
-17 -13 -88 -93 -124 -120 -189 -80 -189 17 0 78 50 70 58 -3 3 -19 -7 -35
-23 -64 -61 -44 6 32 110 20 27 42 55 48 62 5 7 10 15 10 18 0 3 16 23 36 44
33 36 84 58 105 46 8 -5 -35 -92 -71 -145 -54 -78 -75 -150 -44 -150 13 0 14
3 4 15 -10 11 -4 29 30 90 23 41 51 80 62 86 12 6 16 14 11 18 -6 3 3 24 22
49 22 27 36 39 41 31 4 -6 -1 -16 -10 -21 -9 -5 -16 -16 -16 -23 0 -8 -4 -15
-10 -15 -5 0 -10 -5 -10 -11 0 -5 15 1 33 15 23 18 40 23 61 19 19 -4 27 -2
22 5 -3 6 9 15 30 22 23 8 34 17 30 26 -6 15 29 38 44 29 6 -4 10 -3 9 2 -3
20 2 27 10 14 7 -11 3 -21 -13 -36z m-601 26 c-6 -5 -23 -12 -40 -16 -29 -6
-29 -6 -11 9 21 17 67 23 51 7z m525 4 c0 -6 -26 -16 -70 -30 -35 -10 -16 7
23 22 37 13 47 15 47 8z m-460 -16 c0 -5 -13 -15 -30 -20 -16 -6 -30 -15 -30
-20 0 -4 7 -6 15 -3 24 10 17 -8 -25 -64 -22 -29 -40 -56 -40 -61 0 -5 -4 -11
-8 -13 -13 -5 -70 -104 -86 -149 l-15 -44 -1 112 c0 61 4 114 8 117 5 3 18 3
30 -1 l21 -5 -25 -49 c-13 -27 -22 -49 -19 -49 12 0 20 6 17 13 -5 17 41 86
62 92 12 4 16 8 9 11 -18 8 43 102 81 125 36 22 36 22 36 8z m-162 -13 c-10
-7 -18 -18 -18 -24 0 -6 -9 -26 -20 -44 -11 -18 -20 -26 -20 -18 0 8 -3 25 -6
37 -5 17 1 25 33 42 44 23 55 26 31 7z m361 0 c-2 -2 -32 -17 -66 -34 -37 -18
-59 -24 -56 -16 3 7 28 22 56 33 50 19 75 26 66 17z m405 -38 c-82 -133 -156
-225 -192 -239 -14 -5 -27 -8 -29 -5 -5 5 51 104 92 164 61 88 96 122 126 122
l29 0 -26 -42z m-694 15 c0 -2 -11 -22 -25 -44 -28 -43 -50 -58 -67 -41 -6 6
3 20 31 43 46 37 48 53 3 20 -17 -12 -33 -21 -37 -21 -13 0 19 32 40 40 19 7
55 9 55 3z m138 -50 c-8 -11 -13 -12 -16 -3 -3 8 -9 7 -21 -4 -9 -8 -29 -18
-45 -22 l-30 -7 25 26 c23 25 61 37 87 29 10 -4 10 -7 0 -19z m900 11 c-9 -9
-22 -14 -30 -11 -8 3 -4 8 12 15 35 15 37 14 18 -4z m202 11 c0 -11 -63 -36
-83 -32 -23 4 -23 3 38 25 36 12 45 13 45 7z m-125 -24 c-16 -14 -55 -23 -55
-12 0 9 20 17 50 20 8 1 10 -2 5 -8z m-135 -41 c0 -5 -5 -10 -11 -10 -5 0 -7
5 -4 10 3 6 8 10 11 10 2 0 4 -4 4 -10z m39 -12 c-10 -18 -8 -24 7 -35 10 -7
13 -13 7 -13 -7 0 -15 -10 -19 -22 -4 -13 -9 -25 -13 -28 -7 -6 -17 -23 -56
-98 -27 -52 -38 -61 -51 -41 -4 6 -19 9 -36 5 -20 -4 -27 -2 -22 5 55 90 177
249 191 249 2 0 -2 -10 -8 -22z m31 -8 c-13 -8 -12 -10 3 -10 9 0 17 5 17 10
0 6 5 10 10 10 6 0 10 -9 10 -20 0 -23 18 -27 26 -5 4 8 12 15 19 15 11 0 11
-8 2 -37 -6 -21 -11 -82 -11 -135 -1 -54 -4 -98 -8 -98 -3 0 -4 10 -2 23 l5
22 -10 -23 c-13 -27 -3 -55 15 -48 9 3 14 -1 14 -12 1 -9 9 -35 20 -57 24 -49
25 -69 4 -86 -49 -40 -161 -246 -150 -275 7 -19 -18 -18 -34 1 -9 10 -9 15 -1
15 6 0 11 7 11 14 0 8 12 37 27 63 82 150 132 247 128 252 -6 5 -3 8 -49 -52
-20 -27 -36 -57 -36 -68 0 -11 -4 -17 -10 -14 -6 4 -7 -1 -3 -11 4 -12 3 -15
-5 -10 -8 5 -10 2 -6 -8 6 -15 -74 -171 -83 -162 -2 2 0 13 5 23 6 10 8 29 5
43 -5 28 53 153 109 236 47 70 52 84 28 84 -21 0 -40 -27 -33 -47 3 -7 -2 -13
-10 -13 -14 0 -60 -84 -72 -133 -8 -32 -25 -46 -25 -21 0 49 57 176 122 273
16 24 27 48 25 54 -4 14 -61 -68 -103 -151 -44 -86 -47 -45 -4 47 20 41 27 68
21 74 -6 6 -15 -2 -25 -22 -17 -31 -36 -42 -36 -18 0 19 44 109 84 171 26 40
32 56 21 56 -8 0 -15 -5 -15 -11 0 -6 -13 -29 -29 -52 -15 -23 -41 -67 -56
-97 -16 -30 -30 -50 -32 -44 -4 11 35 89 88 174 20 32 25 48 17 57 -7 9 -7 17
2 28 7 9 15 13 19 10 3 -3 -1 -10 -9 -15z m303 -22 l6 -20 -20 20 c-10 12 -19
26 -19 33 0 18 27 -8 33 -33z m-424 0 c-7 -12 -13 -30 -14 -39 -2 -22 -108
-183 -153 -231 -41 -44 -60 -50 -36 -10 l16 27 -21 -25 c-11 -14 -19 -30 -16
-37 2 -7 -1 -15 -7 -19 -7 -4 -8 -3 -4 4 4 7 4 12 -1 12 -4 0 -21 -19 -37 -41
-15 -22 -30 -38 -33 -35 -7 7 49 104 119 207 32 47 58 90 58 95 0 12 88 98
115 112 26 14 29 9 14 -20z m306 22 c8 -13 -26 -59 -43 -60 -9 0 -11 7 -6 23
12 41 36 59 49 37z m232 -39 c6 -10 26 -21 44 -25 22 -4 51 -25 85 -61 58 -61
81 -66 166 -44 41 11 47 10 151 -40 60 -28 112 -51 117 -51 4 0 10 -4 12 -8 2
-5 39 -23 83 -40 44 -17 143 -59 220 -93 77 -34 159 -67 182 -74 24 -7 63 -25
88 -39 l45 -27 0 -59 c0 -54 -10 -75 -24 -51 -3 4 -23 11 -43 14 -40 7 -195
58 -458 151 -88 32 -186 64 -218 72 -32 8 -75 23 -95 34 -20 10 -44 22 -52 25
-48 17 -73 42 -76 73 -2 19 -10 39 -17 46 -25 25 -128 40 -178 26 -26 -8 -26
-7 -32 50 -4 32 -16 75 -27 95 -24 43 -24 45 -2 45 9 0 22 -8 29 -19z m-657
-27 c0 -7 -61 -85 -87 -112 -7 -8 -11 -17 -8 -22 3 -5 -10 -33 -28 -62 -19
-29 -50 -83 -69 -120 -20 -40 -50 -80 -73 -98 -38 -31 -59 -34 -35 -5 7 9 10
18 8 21 -3 3 -16 -11 -28 -31 -12 -19 -31 -40 -42 -46 -18 -10 -19 -9 -7 13 6
13 35 59 64 103 28 44 58 91 65 105 18 34 145 203 165 220 34 28 75 47 75 34z
m559 -33 c12 -7 12 -13 3 -24 -7 -7 -11 -16 -9 -18 1 -2 -4 2 -10 10 -25 29
-14 51 16 32z m-754 -113 c-41 -51 -75 -102 -75 -113 0 -12 -11 -37 -25 -56
-15 -19 -46 -71 -71 -116 -33 -61 -50 -83 -65 -83 -11 0 -31 -7 -44 -16 -14
-9 -25 -14 -25 -10 0 22 155 273 223 361 34 45 130 125 149 125 4 0 -26 -41
-67 -92z m665 67 c-7 -8 -17 -15 -22 -15 -6 0 -5 7 2 15 7 8 17 15 22 15 6 0
5 -7 -2 -15z m124 -11 c13 -5 14 -9 5 -20 -13 -16 -29 -9 -29 12 0 16 2 16 24
8z m-99 -31 c-28 -20 -41 -16 -20 7 10 11 22 17 28 13 6 -4 3 -12 -8 -20z
m-760 1 c-11 -9 -33 -23 -50 -31 l-30 -16 20 23 c19 22 49 38 70 39 6 0 1 -7
-10 -15z m695 2 c0 -2 -7 -7 -16 -10 -8 -3 -12 -2 -9 4 6 10 25 14 25 6z
m-832 -44 c-16 -9 -28 -21 -28 -25 0 -5 11 -2 25 7 14 9 25 12 25 6 0 -6 -8
-14 -17 -17 -10 -4 -29 -15 -42 -25 -27 -21 -40 -16 -21 7 18 21 8 19 -47 -11
-65 -36 -76 -48 -35 -39 l33 7 -19 -34 c-11 -18 -31 -51 -47 -73 -32 -47 -115
-212 -115 -230 0 -7 -9 -15 -21 -18 -16 -4 -19 -11 -14 -26 5 -16 2 -21 -12
-23 -33 -2 -38 -3 -51 -12 -27 -16 -24 5 8 66 65 124 153 273 174 298 12 14
28 38 36 54 11 21 37 39 95 67 85 40 118 50 73 21z m920 7 c-2 -5 -19 -19 -38
-31 l-35 -21 30 31 c30 31 50 41 43 21z m32 -15 c0 -8 -11 -31 -24 -50 -20
-29 -25 -32 -35 -20 -10 12 -8 17 8 26 12 6 21 19 21 29 0 10 3 21 7 24 11 12
23 8 23 -9z m-867 -11 c-7 -2 -13 -9 -13 -14 0 -6 5 -7 12 -3 6 4 3 -4 -8 -18
-10 -14 -23 -23 -28 -20 -5 3 -6 0 -2 -6 3 -6 -29 -69 -72 -139 -43 -70 -81
-136 -85 -146 -8 -21 -35 -33 -47 -21 -18 19 133 283 193 336 23 21 47 38 52
37 6 0 4 -3 -2 -6z m1114 -26 c7 -5 18 -26 24 -46 15 -50 42 -80 76 -85 15 -3
53 -12 83 -21 30 -9 75 -22 100 -30 25 -7 99 -31 165 -54 66 -23 140 -47 165
-53 25 -5 50 -15 57 -20 25 -20 312 -101 356 -101 l29 0 -7 -54 c-4 -36 -3
-59 5 -69 7 -7 9 -14 4 -14 -5 0 -63 -1 -129 -3 -103 -3 -163 0 -371 17 -17 2
-36 6 -42 10 -16 9 -82 -4 -109 -22 -24 -15 -93 -10 -93 7 0 12 -86 34 -112
29 -13 -3 -32 -9 -42 -13 -16 -7 -18 -5 -13 9 20 52 18 63 -17 100 -20 20 -36
40 -36 44 0 4 -10 15 -23 25 -12 9 -35 28 -52 41 -16 12 -36 21 -43 19 -7 -3
-12 -1 -10 4 1 4 -5 22 -14 38 -9 17 -18 61 -20 98 -4 57 -9 72 -33 97 -16 16
-25 35 -22 44 9 24 95 26 124 3z m-1468 9 c-2 -2 -21 -6 -42 -10 -27 -5 -37
-4 -32 3 3 6 22 11 42 11 20 0 34 -2 32 -4z m65 -24 c-21 -16 -54 -34 -73 -40
l-35 -12 24 25 c13 14 31 25 41 25 9 0 22 7 29 15 7 8 22 15 33 15 16 0 12 -6
-19 -28z m1196 -4 c0 -16 -81 -119 -89 -113 -5 2 8 36 28 74 27 53 39 67 48
59 7 -6 13 -15 13 -20z m-1370 -6 c0 -25 -8 -32 -65 -61 -36 -17 -65 -36 -65
-42 0 -16 29 -22 45 -9 8 7 15 9 15 5 0 -4 12 4 26 19 28 28 39 32 49 17 3 -5
-4 -12 -15 -16 -27 -8 -25 -23 3 -27 13 -2 30 6 42 18 25 27 65 48 73 39 4 -4
-5 -29 -21 -56 -38 -69 -33 -75 8 -9 19 30 33 60 31 66 -2 6 9 19 25 28 33 19
39 6 10 -21 -10 -10 -33 -47 -50 -83 -41 -84 -138 -269 -157 -297 -11 -17 -24
-23 -53 -23 -41 0 -68 20 -54 42 4 7 14 13 22 13 8 0 16 6 19 14 3 9 0 12 -10
9 -12 -5 -15 17 -15 148 -1 84 -4 158 -8 163 -3 7 0 8 9 5 10 -4 16 -1 16 9 0
21 -17 31 -23 15 -3 -7 -6 1 -6 19 -1 30 0 31 39 30 45 -2 49 -9 18 -31 -12
-9 -20 -18 -17 -21 8 -8 49 25 49 40 0 12 17 21 48 24 7 1 12 -11 12 -27z
m342 -39 c-11 -16 -50 -86 -87 -158 -38 -71 -69 -131 -71 -133 -1 -2 -13 -4
-26 -6 -13 -1 -30 -6 -37 -10 -20 -13 -6 26 42 114 71 129 116 194 138 195 11
1 25 7 31 13 23 23 29 12 10 -15z m1098 -43 c0 -9 -9 -25 -20 -35 -21 -19 -28
-7 -8 13 9 9 9 15 1 23 -9 9 -21 2 -48 -27 l-37 -39 23 45 c37 71 38 71 65 53
13 -8 24 -23 24 -33z m-230 16 c0 -3 -4 -8 -10 -11 -5 -3 -10 -1 -10 4 0 6 5
11 10 11 6 0 10 -2 10 -4z m60 -77 c-7 -11 -14 -18 -17 -15 -8 8 5 36 17 36 7
0 7 -6 0 -21z m44 -11 c5 -23 3 -25 -14 -21 -23 6 -24 7 -8 33 14 22 13 23 22
-12z m116 1 c-7 -11 -14 -18 -17 -15 -3 3 0 12 7 21 18 21 23 19 10 -6z m-60
-4 c0 -8 -7 -15 -15 -15 -9 0 -12 6 -9 15 4 8 10 15 15 15 5 0 9 -7 9 -15z
m-208 -35 c-6 -11 -12 -29 -12 -40 0 -11 -6 -20 -14 -20 -8 0 -40 -39 -71 -86
-31 -47 -59 -83 -62 -80 -12 12 91 197 138 249 20 22 37 3 21 -23z m18 -69 c0
-10 -11 -35 -25 -55 -19 -28 -21 -36 -9 -36 8 0 17 7 20 15 4 8 10 15 15 15
12 0 -9 -41 -30 -58 -9 -7 -28 -19 -42 -27 -25 -13 -26 -13 -23 10 2 24 25 68
66 128 23 32 28 34 28 8z m86 -1 c10 -10 24 -25 30 -32 6 -7 24 -22 39 -33 16
-11 33 -25 39 -30 6 -6 28 -21 50 -34 47 -29 86 -65 86 -79 0 -6 -25 -14 -55
-17 -30 -4 -52 -11 -49 -16 3 -5 0 -9 -5 -9 -6 0 -11 4 -11 8 0 8 -54 11 -212
15 -38 1 -68 3 -68 4 0 2 17 10 37 18 43 18 83 53 83 72 0 7 5 13 12 13 9 0 9
3 0 12 -13 13 -17 128 -4 128 5 0 17 -9 28 -20z m-794 -91 c31 -16 66 -23 125
-27 91 -5 104 -16 81 -67 -10 -22 -9 -28 3 -36 9 -6 -66 -8 -208 -7 -175 3
-223 1 -223 -9 0 -10 -35 -13 -147 -13 -96 1 -142 4 -132 10 9 5 58 25 110 43
52 19 148 61 214 94 87 44 122 56 127 47 4 -6 27 -22 50 -35z m594 -31 c-9
-12 -16 -30 -16 -40 0 -10 -7 -18 -15 -18 -18 0 -10 26 18 58 26 28 33 28 13
0z m-91 -102 l29 -12 -42 0 c-27 1 -42 6 -42 14 0 15 16 15 55 -2z m-1091 -27
c-8 -14 -24 -10 -24 6 0 9 6 12 15 9 8 -4 12 -10 9 -15z m1594 4 c-10 -2 -28
-2 -40 0 -13 2 -5 4 17 4 22 1 32 -1 23 -4z"/>
<path d="M300 3550 c0 -5 5 -10 10 -10 6 0 10 5 10 10 0 6 -4 10 -10 10 -5 0
-10 -4 -10 -10z"/>
<path d="M790 3405 c0 -8 4 -15 10 -15 5 0 7 7 4 15 -4 8 -8 15 -10 15 -2 0
-4 -7 -4 -15z"/>
<path d="M690 3390 c-24 -15 -7 -19 25 -5 23 10 25 14 10 14 -11 0 -27 -3 -35
-9z"/>
<path d="M570 3380 c0 -5 6 -10 14 -10 8 0 18 5 21 10 3 6 -3 10 -14 10 -12 0
-21 -4 -21 -10z"/>
<path d="M773 3365 c-6 -10 -35 -18 -83 -24 -41 -5 -67 -9 -57 -10 41 -3 2
-21 -46 -21 -36 -1 -47 -3 -36 -10 8 -5 54 -6 105 -1 49 4 107 6 129 6 22 -1
47 1 55 6 8 4 27 10 43 14 31 6 37 35 6 35 -11 0 -17 5 -14 10 3 6 -5 10 -18
10 -20 0 -24 -4 -20 -19 3 -13 11 -17 26 -14 20 4 20 3 -3 -11 -16 -10 -51
-15 -99 -16 -83 0 -94 8 -16 11 69 3 80 8 58 26 -17 14 -17 14 0 9 11 -3 16
-2 12 4 -9 15 -33 12 -42 -5z"/>
<path d="M248 3313 c7 -3 16 -2 19 1 4 3 -2 6 -13 5 -11 0 -14 -3 -6 -6z"/>
<path d="M725 3290 c-4 -6 5 -10 20 -10 15 0 24 4 20 10 -3 6 -12 10 -20 10
-8 0 -17 -4 -20 -10z"/>
<path d="M598 3273 c7 -3 16 -2 19 1 4 3 -2 6 -13 5 -11 0 -14 -3 -6 -6z"/>
<path d="M2760 3360 c-13 -8 -12 -10 3 -10 9 0 17 5 17 10 0 12 -1 12 -20 0z"/>
<path d="M2644 3351 c4 -6 2 -11 -3 -11 -6 0 -11 -5 -11 -11 0 -15 87 -6 103
11 10 10 5 11 -21 6 -19 -3 -43 -1 -54 5 -15 8 -19 8 -14 0z"/>
<path d="M2608 3293 c7 -3 16 -2 19 1 4 3 -2 6 -13 5 -11 0 -14 -3 -6 -6z"/>
<path d="M2545 3220 c-3 -5 1 -10 9 -10 9 0 16 5 16 10 0 6 -4 10 -9 10 -6 0
-13 -4 -16 -10z"/>
<path d="M2485 3211 c-3 -6 4 -9 15 -8 11 1 20 5 20 9 0 11 -28 10 -35 -1z"/>
<path d="M1610 1514 c-43 -18 -50 -29 -50 -76 0 -36 27 -108 41 -108 3 0 26
-25 49 -55 24 -31 65 -73 93 -95 88 -71 134 -46 109 59 -6 25 -14 62 -17 81
-8 42 -68 144 -107 183 -32 31 -65 34 -118 11z"/>
<path d="M2183 1511 c-23 -11 -47 -30 -54 -43 -6 -12 -15 -25 -18 -28 -35 -29
-101 -197 -101 -258 0 -19 33 -52 53 -52 33 0 179 181 209 259 18 47 18 104 1
123 -20 23 -37 22 -90 -1z"/>
<path d="M450 3119 c0 -5 5 -7 10 -4 6 3 10 8 10 11 0 2 -4 4 -10 4 -5 0 -10
-5 -10 -11z"/>
<path d="M310 3079 c0 -5 5 -7 10 -4 6 3 10 8 10 11 0 2 -4 4 -10 4 -5 0 -10
-5 -10 -11z"/>
<path d="M148 2956 c-11 -15 -13 -27 -7 -37 7 -11 9 -9 9 9 0 17 6 22 26 22
16 0 23 -4 18 -11 -4 -7 1 -10 11 -7 23 4 32 28 11 28 -9 0 -16 5 -16 10 0 19
-35 9 -52 -14z"/>
<path d="M940 2900 c0 -5 7 -10 15 -10 8 0 15 5 15 10 0 6 -7 10 -15 10 -8 0
-15 -4 -15 -10z"/>
<path d="M1300 2969 c-30 -3 -45 -6 -33 -7 29 -3 38 -18 16 -31 -16 -9 -15
-10 8 -11 14 0 29 3 33 8 4 4 24 12 44 17 35 10 35 10 11 20 -13 6 -49 8 -79
4z"/>
<path d="M1386 2889 c-74 -37 -106 -48 -126 -44 -19 4 -29 2 -33 -8 -9 -24 41
-27 90 -6 25 10 51 19 59 19 8 0 17 7 20 15 4 10 14 13 30 9 13 -3 36 -3 50 0
25 7 26 8 8 21 -19 13 -18 14 1 29 37 28 1 16 -99 -35z"/>
<path d="M1238 2913 c7 -3 16 -2 19 1 4 3 -2 6 -13 5 -11 0 -14 -3 -6 -6z"/>
<path d="M1570 2911 c0 -5 9 -7 20 -4 11 3 20 7 20 9 0 2 -9 4 -20 4 -11 0
-20 -4 -20 -9z"/>
<path d="M1145 2810 l-20 -9 20 0 c11 0 29 4 40 9 l20 9 -20 0 c-11 0 -29 -4
-40 -9z"/>
<path d="M1070 2800 c0 -5 5 -10 10 -10 6 0 10 5 10 10 0 6 -4 10 -10 10 -5 0
-10 -4 -10 -10z"/>
<path d="M1588 2803 c7 -3 16 -2 19 1 4 3 -2 6 -13 5 -11 0 -14 -3 -6 -6z"/>
<path d="M1300 2791 c0 -5 9 -7 20 -4 11 3 20 7 20 9 0 2 -9 4 -20 4 -11 0
-20 -4 -20 -9z"/>
<path d="M1215 2780 l-20 -9 20 1 c11 0 34 4 50 8 l30 8 -30 0 c-16 0 -39 -3
-50 -8z"/>
<path d="M1170 2770 c0 -5 5 -10 10 -10 6 0 10 5 10 10 0 6 -4 10 -10 10 -5 0
-10 -4 -10 -10z"/>
<path d="M1972 2781 c4 -18 39 -22 45 -5 2 6 -8 14 -22 16 -20 4 -25 2 -23
-11z"/>
<path d="M1840 2686 c0 -14 40 -30 50 -20 5 6 -29 34 -42 34 -4 0 -8 -6 -8
-14z"/>
<path d="M645 2834 c-30 -11 -46 -12 -63 -4 -20 9 -37 1 -125 -51 -56 -34
-118 -69 -137 -78 -50 -24 -129 -75 -130 -83 0 -4 11 -10 24 -14 17 -4 30 0
44 14 12 12 87 54 169 95 159 80 200 97 188 78 -4 -7 16 1 44 16 75 41 67 57
-14 27z m-75 -29 c0 -3 -51 -30 -112 -61 -125 -62 -127 -52 -3 20 70 40 115
57 115 41z"/>
<path d="M295 2773 c-130 -78 -120 -71 -112 -80 4 -4 20 3 36 15 16 12 41 24
55 28 15 3 23 11 19 17 -4 7 0 8 13 3 22 -9 23 -9 47 -7 28 2 19 21 -10 21
-26 0 -25 2 20 30 40 26 56 40 44 40 -1 0 -52 -30 -112 -67z"/>
<path d="M2417 2749 c-9 -6 -17 -18 -17 -27 0 -11 3 -13 8 -5 4 6 34 16 67 21
46 8 50 10 20 9 -22 0 -45 2 -50 5 -6 4 -18 2 -28 -3z"/>
<path d="M2533 2683 c9 -2 25 -2 35 0 9 3 1 5 -18 5 -19 0 -27 -2 -17 -5z"/>
<path d="M2445 2600 c-3 -6 1 -7 9 -4 18 7 21 14 7 14 -6 0 -13 -4 -16 -10z"/>
<path d="M2462 2573 c4 -22 38 -30 38 -10 0 8 -7 18 -16 21 -23 9 -26 8 -22
-11z"/>
<path d="M2550 2520 c-24 -15 -7 -18 25 -4 23 10 25 13 10 13 -11 1 -27 -3
-35 -9z"/>
<path d="M2700 2357 c0 -4 -20 -17 -46 -29 -39 -20 -46 -21 -55 -8 -9 12 -10
11 -5 -4 4 -10 2 -24 -4 -31 -8 -10 -4 -13 17 -11 30 1 79 35 52 37 -26 1 25
18 59 18 24 1 32 6 32 19 0 12 -8 17 -25 17 -14 0 -25 -3 -25 -8z"/>
<path d="M2563 2348 c-24 -12 -30 -32 -13 -43 6 -3 10 1 10 9 0 8 10 22 22 30
25 18 14 20 -19 4z"/>
<path d="M2846 2312 c-9 -15 34 -43 51 -33 14 7 12 11 -15 25 -17 9 -33 12
-36 8z"/>
<path d="M2770 2296 c0 -15 38 -29 52 -19 5 3 -3 11 -17 19 -34 17 -35 17 -35
0z"/>
<path d="M2765 2243 c-16 -15 -15 -17 7 -29 33 -19 54 -18 39 0 -9 11 -9 16 0
21 8 6 7 10 -2 16 -20 12 -25 11 -44 -8z"/>
<path d="M2900 2203 c-28 -9 -115 -44 -137 -55 -13 -6 -23 -17 -23 -25 0 -7
-4 -13 -10 -13 -17 0 -11 -26 10 -45 21 -19 42 -13 22 7 -9 9 -8 16 5 30 15
17 15 18 -3 18 -18 1 -18 1 -1 11 14 8 22 8 30 0 16 -16 42 -15 29 2 -17 20
22 40 60 32 22 -5 28 -4 23 4 -4 7 -1 18 5 26 13 16 13 16 -10 8z"/>
<path d="M916 2693 c5 -5 12 -12 16 -18 4 -6 8 -2 8 8 0 9 -7 17 -17 17 -9 0
-12 -3 -7 -7z"/>
<path d="M964 2609 c-7 -12 12 -29 34 -29 19 0 14 18 -7 30 -14 7 -22 7 -27
-1z"/>
<path d="M1078 2593 c7 -3 16 -2 19 1 4 3 -2 6 -13 5 -11 0 -14 -3 -6 -6z"/>
<path d="M1050 2560 c0 -5 5 -10 10 -10 6 0 10 5 10 10 0 6 -4 10 -10 10 -5 0
-10 -4 -10 -10z"/>
<path d="M991 2529 c-15 -6 -21 -13 -15 -18 13 -14 48 -18 49 -6 0 6 4 16 8
23 10 14 -7 15 -42 1z"/>
<path d="M1050 2520 c-13 -9 -13 -10 0 -10 8 0 22 5 30 10 13 9 13 10 0 10 -8
0 -22 -5 -30 -10z"/>
<path d="M1823 2493 c9 -2 25 -2 35 0 9 3 1 5 -18 5 -19 0 -27 -2 -17 -5z"/>
<path d="M1924 2435 c-4 -8 -13 -15 -20 -15 -8 0 -26 -7 -39 -16 -16 -10 -34
-14 -50 -10 -18 5 -25 2 -25 -9 0 -14 16 -20 52 -17 16 2 118 69 118 78 0 11
-31 2 -36 -11z"/>
<path d="M2004 2405 c-18 -15 -18 -15 10 -13 16 2 31 9 34 16 5 17 -20 15 -44
-3z"/>
<path d="M1895 2361 c-9 -8 7 -21 26 -21 10 0 19 6 19 14 0 13 -34 19 -45 7z"/>
<path d="M1845 2330 c-3 -5 -12 -7 -20 -3 -9 3 -15 -1 -15 -11 0 -9 4 -16 8
-16 15 0 62 25 62 33 0 10 -28 9 -35 -3z"/>
<path d="M2091 2262 c-7 -13 -11 -26 -8 -28 8 -8 29 25 25 38 -3 8 -9 4 -17
-10z"/>
<path d="M1970 2170 c-41 -27 -76 -45 -78 -40 -2 6 -9 10 -15 10 -8 0 -7 -4 1
-12 9 -9 8 -16 -6 -31 -9 -11 28 9 83 43 111 69 126 80 105 80 -8 -1 -49 -23
-90 -50z"/>
<path d="M1864 2175 c-16 -12 -16 -14 -3 -15 9 0 22 7 29 15 16 19 0 19 -26 0z"/>
<path d="M2020 2155 c0 -8 9 -15 20 -15 13 0 18 5 14 15 -4 8 -12 15 -20 15
-8 0 -14 -7 -14 -15z"/>
<path d="M1960 2061 c0 -16 19 -23 43 -15 21 7 21 7 2 15 -28 11 -45 11 -45 0z"/>
<path d="M815 2420 c-16 -4 -23 -8 -15 -9 13 -1 13 -2 0 -11 -12 -8 -10 -10
10 -10 27 1 64 23 53 33 -7 8 -6 8 -48 -3z"/>
<path d="M2522 2108 c-18 -18 -15 -36 7 -48 34 -18 46 -11 24 13 -11 12 -18
28 -16 35 6 15 0 15 -15 0z"/>
<path d="M2590 2030 c0 -5 5 -10 11 -10 5 0 7 5 4 10 -3 6 -8 10 -11 10 -2 0
-4 -4 -4 -10z"/>
<path d="M2534 2015 c11 -8 22 -12 25 -9 6 6 -19 24 -34 24 -5 -1 -1 -7 9 -15z"/>
<path d="M2530 1940 c0 -5 9 -10 20 -10 11 0 20 5 20 10 0 6 -9 10 -20 10 -11
0 -20 -4 -20 -10z"/>
<path d="M274 2035 c-10 -8 -14 -15 -8 -15 5 0 19 7 30 15 10 8 14 15 8 15 -5
0 -19 -7 -30 -15z"/>
<path d="M595 1990 c-3 -5 -2 -10 4 -10 5 0 13 5 16 10 3 6 2 10 -4 10 -5 0
-13 -4 -16 -10z"/>
<path d="M1297 1734 c-11 -12 3 -24 29 -24 15 0 24 6 24 15 0 15 -40 21 -53 9z"/>
<path d="M2800 1760 c-8 -5 -10 -10 -5 -10 14 0 -17 -20 -32 -20 -7 0 -10 7
-6 18 5 13 3 14 -7 5 -7 -6 -19 -9 -26 -6 -17 6 -19 -13 -3 -23 16 -9 -47 -47
-69 -41 -9 2 -25 8 -34 12 -13 5 -18 2 -18 -8 0 -9 8 -17 17 -19 12 -2 2 -13
-33 -35 -61 -40 -98 -78 -89 -92 10 -17 28 -13 21 4 -4 11 16 30 70 65 42 28
81 50 86 50 5 0 21 9 37 21 17 12 39 19 57 17 21 -2 28 1 27 12 -2 9 10 21 27
28 17 8 30 18 30 23 0 12 -31 11 -50 -1z"/>
<path d="M2835 1710 c4 -6 11 -8 16 -5 14 9 11 15 -7 15 -8 0 -12 -5 -9 -10z"/>
<path d="M2866 1667 c3 -8 -9 -20 -28 -30 -31 -16 -88 -46 -240 -130 -38 -20
-98 -53 -134 -73 -36 -20 -63 -38 -60 -41 2 -3 29 8 58 25 93 52 190 104 298
160 58 29 110 58 117 64 12 10 7 38 -8 38 -4 0 -6 -6 -3 -13z"/>
<path d="M2470 1636 c0 -7 10 -16 23 -20 32 -8 47 -7 47 4 0 6 -9 10 -19 10
-11 0 -23 5 -26 10 -9 15 -25 12 -25 -4z"/>
<path d="M2560 1565 c-11 -13 -10 -14 4 -9 9 3 16 10 16 15 0 13 -6 11 -20 -6z"/>
<path d="M2540 1520 c0 -15 34 -21 47 -7 12 12 10 14 -16 15 -17 0 -31 -3 -31
-8z"/>
<path d="M2700 1502 c0 -5 9 -12 21 -15 13 -3 19 -1 16 6 -5 15 -37 22 -37 9z"/>
<path d="M2851 1449 c-64 -26 -92 -42 -81 -49 7 -5 -7 -16 -37 -31 -121 -58
-296 -187 -451 -330 -94 -88 -60 -71 57 28 99 83 105 87 150 85 40 -1 43 0 21
9 -35 14 -35 16 -9 39 69 59 193 136 342 212 72 37 78 65 8 37z"/>
<path d="M2500 1396 c0 -12 10 -16 35 -16 19 0 35 5 35 10 0 6 -9 10 -19 10
-11 0 -26 3 -35 6 -11 4 -16 1 -16 -10z"/>
<path d="M2337 1324 c-14 -14 5 -24 46 -24 24 0 37 4 32 9 -14 12 -69 23 -78
15z"/>
<path d="M2682 1279 c2 -7 10 -15 17 -17 8 -3 12 1 9 9 -2 7 -10 15 -17 17 -8
3 -12 -1 -9 -9z"/>
<path d="M2754 1248 c-10 -16 26 -19 41 -4 15 15 14 16 -10 14 -15 -2 -29 -6
-31 -10z"/>
<path d="M2630 1240 c0 -13 30 -13 50 0 11 7 7 10 -17 10 -18 0 -33 -4 -33
-10z"/>
<path d="M2649 1112 c-124 -85 -240 -174 -234 -180 2 -3 46 27 97 65 51 39
126 94 167 122 41 28 70 51 65 51 -6 0 -48 -26 -95 -58z"/>
<path d="M2757 1114 c-10 -10 -9 -44 2 -44 13 0 23 32 13 42 -5 5 -11 5 -15 2z"/>
<path d="M2880 1070 c0 -5 -20 -18 -44 -29 -41 -17 -127 -71 -116 -71 9 0 185
91 195 101 5 5 1 9 -13 9 -12 0 -22 -4 -22 -10z"/>
<path d="M2620 956 c0 -23 38 -30 65 -12 30 20 34 32 5 14 -16 -10 -24 -10
-40 0 -25 16 -30 15 -30 -2z"/>
<path d="M705 1710 c-3 -5 -2 -10 4 -10 5 0 13 5 16 10 3 6 2 10 -4 10 -5 0
-13 -4 -16 -10z"/>
<path d="M945 1660 c-3 -6 1 -7 9 -4 18 7 21 14 7 14 -6 0 -13 -4 -16 -10z"/>
<path d="M717 1633 c-27 -14 -46 -27 -44 -30 6 -5 95 36 103 48 8 14 -6 9 -59
-18z"/>
<path d="M1095 1660 c-8 -13 5 -13 25 0 13 8 13 10 -2 10 -9 0 -20 -4 -23 -10z"/>
<path d="M820 1590 c-9 -6 -10 -10 -3 -10 6 0 15 5 18 10 8 12 4 12 -15 0z"/>
<path d="M890 1560 c-8 -5 -10 -10 -5 -10 6 0 17 5 25 10 8 5 11 10 5 10 -5 0
-17 -5 -25 -10z"/>
<path d="M915 1470 c-3 -6 1 -7 9 -4 18 7 21 14 7 14 -6 0 -13 -4 -16 -10z"/>
<path d="M1250 1490 c-9 -6 -10 -10 -3 -10 6 0 15 5 18 10 8 12 4 12 -15 0z"/>
<path d="M1185 1394 c-49 -25 -54 -38 -5 -14 50 25 58 30 44 30 -5 0 -22 -7
-39 -16z"/>
<path d="M1240 1379 c0 -5 5 -7 10 -4 6 3 10 8 10 11 0 2 -4 4 -10 4 -5 0 -10
-5 -10 -11z"/>
<path d="M520 1235 c-19 -19 -30 -35 -24 -35 11 0 67 61 61 66 -2 2 -19 -12
-37 -31z"/>
<path d="M464 1378 l-19 -23 23 19 c21 18 27 26 19 26 -2 0 -12 -10 -23 -22z"/>
<path d="M1600 1075 c-18 -21 -3 -32 16 -13 10 9 12 18 6 22 -5 3 -15 -1 -22
-9z"/>
<path d="M860 990 c0 -5 5 -10 10 -10 6 0 10 5 10 10 0 6 -4 10 -10 10 -5 0
-10 -4 -10 -10z"/>
<path d="M770 960 c-9 -6 -10 -10 -3 -10 6 0 15 5 18 10 8 12 4 12 -15 0z"/>
<path d="M601 888 c-14 -23 -14 -23 8 -4 22 20 25 26 13 26 -4 0 -13 -10 -21
-22z"/>
<path d="M309 824 c-30 -42 -60 -85 -68 -95 -8 -11 -11 -22 -8 -25 3 -3 35 38
72 91 37 53 65 98 63 100 -3 3 -29 -29 -59 -71z"/>
<path d="M460 875 c-7 -9 -11 -17 -9 -20 3 -2 10 5 17 15 14 24 10 26 -8 5z"/>
<path d="M382 783 c-23 -26 -42 -51 -42 -57 0 -10 20 10 73 74 35 42 11 29
-31 -17z"/>
<path d="M734 797 c-35 -38 -38 -53 -3 -20 18 18 31 34 28 37 -2 3 -14 -5 -25
-17z"/>
<path d="M1240 795 c0 -8 2 -15 4 -15 2 0 6 7 10 15 3 8 1 15 -4 15 -6 0 -10
-7 -10 -15z"/>
<path d="M1301 304 c-12 -20 -20 -39 -17 -41 5 -5 46 57 46 70 0 15 -8 6 -29
-29z"/>
<path d="M1176 815 c-35 -46 -19 -46 17 0 15 19 24 35 19 35 -5 0 -22 -16 -36
-35z"/>
<path d="M2058 683 c-33 -8 -18 -22 20 -17 38 5 35 2 -30 -25 -23 -10 -23 -10
2 -10 33 1 93 22 97 36 6 18 -47 27 -89 16z"/>
<path d="M2223 623 c9 -2 23 -2 30 0 6 3 -1 5 -18 5 -16 0 -22 -2 -12 -5z"/>
<path d="M2065 610 c-3 -5 1 -10 9 -10 8 0 18 5 21 10 3 6 -1 10 -9 10 -8 0
-18 -4 -21 -10z"/>
<path d="M2275 600 l-20 -9 20 0 c11 0 27 4 35 9 13 9 13 10 0 9 -8 0 -24 -4
-35 -9z"/>
<path d="M2105 590 c-3 -5 1 -10 10 -10 9 0 13 5 10 10 -3 6 -8 10 -10 10 -2
0 -7 -4 -10 -10z"/>
<path d="M2350 580 c0 -5 11 -10 24 -10 14 0 28 5 31 10 4 6 -7 10 -24 10 -17
0 -31 -4 -31 -10z"/>
<path d="M2165 570 l-20 -9 20 0 c11 0 27 4 35 9 13 9 13 10 0 9 -8 0 -24 -4
-35 -9z"/>
<path d="M2260 550 c0 -6 11 -9 25 -7 37 5 42 17 7 17 -18 0 -32 -5 -32 -10z"/>
<path d="M2433 543 c9 -2 25 -2 35 0 9 3 1 5 -18 5 -19 0 -27 -2 -17 -5z"/>
<path d="M2320 520 c0 -5 11 -10 25 -10 14 0 25 5 25 10 0 6 -11 10 -25 10
-14 0 -25 -4 -25 -10z"/>
<path d="M2420 500 c0 -5 11 -10 25 -10 14 0 25 5 25 10 0 6 -11 10 -25 10
-14 0 -25 -4 -25 -10z"/>
<path d="M2610 490 c0 -5 5 -10 10 -10 6 0 10 5 10 10 0 6 -4 10 -10 10 -5 0
-10 -4 -10 -10z"/>
<path d="M2523 483 c-13 -2 -23 -9 -23 -14 0 -5 10 -7 23 -5 12 3 25 5 30 5 4
1 7 6 7 11 0 6 -3 9 -7 9 -5 -1 -18 -4 -30 -6z"/>
<path d="M2640 460 c0 -5 11 -10 25 -10 14 0 25 5 25 10 0 6 -11 10 -25 10
-14 0 -25 -4 -25 -10z"/>
<path d="M2585 450 c-3 -5 4 -11 15 -14 11 -3 29 -9 40 -12 11 -3 20 -1 20 4
0 12 -69 32 -75 22z"/>
<path d="M2690 421 c0 -6 11 -11 25 -11 14 0 25 -4 25 -9 0 -14 30 -22 46 -13
13 7 13 10 2 19 -20 16 -98 27 -98 14z"/>
<path d="M927 603 c-4 -3 -7 -13 -7 -22 1 -13 3 -13 11 2 11 19 8 33 -4 20z"/>
<path d="M852 490 c-18 -30 -14 -36 8 -12 21 22 25 32 12 32 -4 0 -13 -9 -20
-20z"/>
<path d="M405 310 c-27 -43 -31 -55 -15 -45 12 7 53 85 45 85 -2 0 -16 -18
-30 -40z"/>
<path d="M611 382 c-17 -31 -13 -40 5 -14 9 13 14 26 11 29 -3 2 -10 -4 -16
-15z"/>
<path d="M2000 399 c0 -5 5 -7 10 -4 6 3 10 8 10 11 0 2 -4 4 -10 4 -5 0 -10
-5 -10 -11z"/>
<path d="M287 418 c-9 -18 -30 -57 -47 -85 -32 -57 -28 -74 5 -20 31 51 75
130 75 134 0 14 -19 -3 -33 -29z"/>
<path d="M332 339 c-29 -51 -51 -93 -49 -95 2 -3 28 35 57 83 66 108 63 103
53 103 -4 0 -32 -41 -61 -91z"/>
<path d="M258 205 c-14 -32 -3 -44 19 -22 13 12 14 17 4 17 -8 0 -11 6 -7 15
9 25 -4 17 -16 -10z"/>
</g>
</svg>
