<?xml version="1.0" standalone="no"?>
<!DOCTYPE svg PUBLIC "-//W3C//DTD SVG 20010904//EN"
 "http://www.w3.org/TR/2001/REC-SVG-20010904/DTD/svg10.dtd">
<svg version="1.0" xmlns="http://www.w3.org/2000/svg"
 width="346.000000pt" height="156.000000pt" viewBox="0 0 346.000000 156.000000"
 preserveAspectRatio="xMidYMid meet">
<metadata>
Created by potrace 1.16, written by Peter Selinger 2001-2019
</metadata>
<g transform="translate(0.000000,156.000000) scale(0.100000,-0.100000)"
fill="#000000" stroke="none">
<path d="M2705 1550 c-66 -5 -304 -11 -530 -15 -225 -4 -412 -10 -415 -14 -3
-5 -54 -9 -115 -10 -60 0 -146 -5 -190 -11 -44 -5 -120 -9 -170 -9 -49 0 -130
-4 -180 -10 -82 -9 -209 -12 -595 -15 -180 -1 -300 -14 -324 -35 -31 -27 -47
-68 -41 -108 12 -86 28 -483 34 -850 6 -416 8 -432 51 -405 13 8 79 14 183 17
89 3 218 10 287 15 233 19 434 28 699 29 146 1 268 4 273 7 4 3 197 7 427 8
l420 3 5 -23 c8 -31 20 -30 44 1 17 22 32 26 113 35 52 5 111 7 133 4 21 -2
44 1 52 7 16 13 328 13 353 -1 12 -6 31 -2 60 11 24 10 54 19 68 19 22 0 24 3
19 24 -4 15 -1 26 8 29 10 4 12 23 8 81 -3 44 -1 76 5 76 5 0 10 120 12 288 5
549 8 627 25 630 21 4 20 18 0 26 -14 5 -16 16 -10 61 5 42 2 61 -10 80 -9 14
-20 22 -25 19 -5 -3 -9 6 -9 20 l0 26 -272 -2 c-150 0 -327 -4 -393 -8z m615
-45 c0 -8 -4 -15 -8 -15 -15 0 -22 -353 -11 -523 21 -335 24 -415 19 -532 -5
-108 -8 -124 -30 -155 -32 -45 -32 -45 -72 -45 l-33 0 2 128 c0 70 -3 127 -7
127 -14 0 -31 -93 -29 -159 l3 -66 -32 -3 c-20 -2 -37 3 -50 16 -17 17 -20 41
-27 223 -4 112 -9 206 -11 208 -2 2 -7 1 -11 -3 -8 -8 -8 -31 2 -253 l8 -173
-54 0 c-30 -1 -73 -5 -96 -9 -23 -5 -45 -6 -47 -3 -3 2 4 16 14 31 28 37 34
82 15 106 -12 16 -18 17 -24 7 -6 -10 -10 -8 -14 10 -4 12 -7 32 -6 43 0 18 1
18 9 -2 11 -26 40 -21 40 7 0 10 3 25 6 33 3 8 -1 21 -9 28 -12 11 -12 23 0
77 7 35 10 75 7 89 -4 16 -3 24 3 20 5 -3 15 37 22 98 9 71 16 102 25 99 7 -3
20 39 39 128 31 150 30 148 18 148 -10 0 -41 -124 -41 -164 0 -15 -4 -26 -10
-26 -5 0 -10 21 -11 48 0 35 -3 42 -9 27 -8 -18 -9 -17 -9 8 -1 16 5 30 14 33
8 4 15 17 15 30 0 13 5 24 10 24 6 0 10 9 10 20 0 11 -4 20 -9 20 -6 0 -7 24
-4 55 4 38 2 55 -6 55 -6 0 -11 6 -11 14 0 8 -8 12 -23 9 -26 -5 -25 -11 -11
105 5 37 8 42 31 42 24 0 25 -2 18 -32 -11 -48 -11 -83 0 -83 5 0 8 6 7 14 -2
8 2 17 9 21 6 5 15 25 18 46 l6 39 78 3 77 3 1 -78 c2 -123 15 -144 20 -31 2
53 7 99 10 103 4 3 24 8 47 11 33 4 40 1 45 -16 7 -25 27 -26 27 -1 0 17 11
28 33 30 4 1 7 -6 7 -14z m-482 -52 c2 -11 -4 -27 -12 -35 -8 -8 -21 -31 -30
-52 -15 -37 -36 -49 -36 -20 0 10 -5 14 -15 10 -13 -4 -14 2 -9 37 5 39 4 41
-10 23 -9 -11 -16 -30 -16 -42 0 -36 -11 -54 -32 -54 -14 0 -18 5 -15 18 17
60 17 72 3 72 -11 0 -17 -15 -22 -50 -7 -55 -10 -56 -86 -44 l-36 6 13 32 c25
61 27 76 12 76 -10 0 -22 -21 -33 -56 -15 -48 -20 -55 -38 -50 -12 4 -42 11
-67 17 -44 10 -47 12 -45 41 0 17 -5 33 -11 35 -9 3 -13 -7 -13 -31 0 -22 -5
-36 -12 -36 -7 0 -30 -3 -52 -7 -35 -5 -38 -4 -32 14 4 12 1 25 -9 33 -13 11
-15 8 -15 -18 0 -22 -4 -30 -14 -26 -7 3 -41 -4 -74 -15 -34 -12 -75 -21 -91
-21 -16 0 -31 -6 -35 -15 -3 -8 -15 -15 -27 -15 -13 0 -31 -7 -41 -17 -10 -9
-20 -14 -22 -12 -6 6 -8 53 -7 130 l1 66 118 13 c64 7 144 10 177 7 33 -3 88
-6 123 -6 44 -1 62 -5 61 -13 -1 -7 -1 -26 0 -43 1 -26 3 -28 12 -12 6 10 8
29 5 41 -6 23 -3 24 77 28 47 3 87 1 95 -4 8 -7 16 -7 25 0 15 13 52 17 152
16 73 0 80 -2 83 -21z m-1263 -108 c-1 -55 -5 -151 -9 -212 -9 -117 -17 -131
-51 -97 -14 14 -15 34 -9 145 5 94 4 129 -5 129 -7 0 -11 -29 -11 -90 0 -92
-17 -173 -35 -167 -22 7 -31 67 -23 158 5 51 6 94 3 97 -14 14 -20 -20 -23
-124 l-4 -114 -34 0 -34 0 0 53 c0 28 3 109 7 180 l6 127 31 1 c17 0 40 4 51
9 11 5 47 8 80 7 l60 -2 0 -100z m314 4 c0 -56 2 -103 5 -106 3 -3 -6 -22 -19
-42 -21 -30 -24 -43 -19 -83 5 -33 3 -48 -5 -48 -10 0 -16 79 -12 178 0 23 -3
32 -12 29 -9 -3 -12 -39 -12 -133 0 -127 0 -129 -23 -132 -22 -3 -23 -1 -21
52 1 31 0 59 -4 63 -4 3 -7 -2 -8 -13 -1 -26 -9 -76 -14 -91 -3 -8 -21 -13
-45 -13 l-40 0 0 70 c0 40 -4 70 -10 70 -6 0 -10 -30 -10 -70 l0 -70 -31 0
-31 0 6 93 c3 50 9 147 12 214 l7 122 36 3 c20 2 84 4 143 5 l108 3 -1 -101z
m-561 -94 c-3 -148 -5 -175 -18 -175 -36 1 -43 16 -37 82 4 34 9 74 13 88 5
23 4 24 -9 7 -8 -10 -18 -49 -22 -87 l-7 -69 -60 2 -60 1 7 66 c5 49 4 62 -5
54 -14 -14 -18 -35 -19 -90 -1 -41 -2 -42 -45 -53 -106 -26 -185 -109 -251
-264 -21 -48 -17 -103 7 -99 9 1 19 -2 23 -8 3 -5 2 -10 -4 -10 -5 0 -11 -14
-13 -31 -2 -18 -10 -35 -18 -39 -8 -4 -29 -15 -47 -24 -17 -9 -34 -16 -36 -16
-3 0 -3 32 0 70 4 49 3 70 -6 70 -7 0 -11 -25 -11 -74 l0 -74 -32 -7 c-18 -4
-40 -18 -50 -30 -10 -13 -34 -25 -55 -29 -62 -10 -68 -12 -82 -20 -10 -7 -12
-2 -8 20 4 16 9 70 12 119 3 50 8 105 11 123 3 17 1 32 -5 32 -9 0 -16 -47
-27 -204 l-7 -89 -50 -49 c-28 -27 -56 -47 -63 -44 -25 10 -74 -76 -74 -131 0
-19 -4 -32 -9 -29 -11 7 -21 236 -21 486 0 113 -1 232 -1 265 -4 195 -4 385 1
385 3 0 85 3 184 6 98 3 219 9 268 13 72 5 91 4 95 -7 7 -18 -4 -439 -13 -477
-4 -21 -3 -27 4 -20 15 15 32 207 32 366 0 76 4 140 9 143 4 3 104 7 220 10
117 2 215 7 218 10 4 3 19 6 35 6 l29 0 -3 -175z m1573 -47 c-8 -29 -9 -25 -6
27 5 84 8 97 12 48 2 -22 0 -56 -6 -75z m-83 45 c-13 -62 -29 -71 -23 -12 3
35 22 75 31 67 1 -2 -3 -27 -8 -55z m-632 36 c4 -8 9 -7 15 2 7 11 9 10 9 -5
0 -14 -5 -17 -21 -13 -12 3 -22 0 -26 -9 -4 -11 -8 -11 -21 2 -13 13 -13 17
-1 25 19 12 36 11 45 -2z m58 -78 c-3 -39 -10 -71 -14 -71 -7 0 -3 86 6 129
10 47 15 11 8 -58z m104 73 c17 -5 21 -11 16 -23 -3 -9 -6 -33 -5 -54 1 -21
-1 -47 -4 -58 -11 -33 -25 -21 -25 22 0 32 -4 42 -20 46 -15 4 -20 14 -20 39
0 36 10 41 58 28z m-263 -14 c-28 -12 -37 -12 -30 0 3 6 16 10 28 9 21 0 21
-1 2 -9z m189 -52 c-3 -35 -10 -67 -15 -73 -9 -8 -4 57 7 113 9 46 15 20 8
-40z m136 40 c0 -10 2 -10 9 0 5 9 17 11 34 6 29 -7 33 -14 16 -31 -6 -6 -9
-21 -7 -34 4 -23 5 -23 13 -4 4 11 16 28 27 38 14 14 22 16 39 6 18 -9 21 -17
16 -51 -6 -44 -11 -53 -25 -44 -5 3 -6 23 -2 46 10 53 -11 54 -34 1 -18 -38
-18 -39 -72 -37 -53 1 -54 2 -49 26 3 14 6 40 7 58 2 30 28 48 28 20z m362
-17 c3 -18 -3 -37 -15 -52 l-19 -24 5 50 c3 28 6 51 6 53 1 1 5 2 10 2 5 0 11
-13 13 -29z m-580 -14 c8 4 9 0 4 -13 -4 -10 -10 -33 -13 -51 -5 -30 -27 -51
-37 -35 -2 4 3 35 12 67 9 33 18 52 20 42 2 -9 8 -14 14 -10z m458 -19 c0 -11
4 -28 10 -38 14 -26 -12 -50 -56 -50 -33 0 -34 1 -34 41 0 59 13 77 49 71 23
-3 31 -10 31 -24z m68 -6 c1 -28 -3 -44 -17 -56 -18 -16 -18 -15 -19 30 -1 51
3 64 21 64 7 0 13 -17 15 -38z m-636 -21 c-1 -42 -16 -81 -32 -81 -11 0 -2 86
12 113 13 26 20 15 20 -32z m238 -17 c0 -15 -6 -24 -15 -24 -15 0 -21 40 -9
53 12 11 24 -3 24 -29z m570 -50 c0 -30 -4 -54 -9 -54 -5 0 -9 27 -8 60 0 32
4 57 9 54 4 -3 8 -30 8 -60z m-383 34 c-3 -8 -6 -5 -6 6 -1 11 2 17 5 13 3 -3
4 -12 1 -19z m-495 -43 c-6 -34 -12 -32 -12 6 0 16 4 28 9 25 4 -3 6 -17 3
-31z m776 -42 c-5 -32 -11 -59 -13 -62 -7 -7 -6 85 1 103 14 36 20 12 12 -41z
m-34 -15 c-4 -24 -15 -52 -26 -63 l-20 -20 5 53 c7 60 12 72 33 72 11 0 13 -9
8 -42z m-54 8 c0 -34 -14 -75 -27 -80 -11 -5 -13 2 -8 32 4 20 8 43 10 50 6
16 25 15 25 -2z m-1612 -12 c-11 -11 -23 -14 -35 -9 -17 7 -17 8 2 15 11 5 27
9 35 9 12 1 11 -2 -2 -15z m1564 -24 c-5 -62 -11 -75 -42 -94 -17 -10 -33 -16
-35 -14 -3 3 13 115 19 133 2 6 17 11 32 10 27 0 29 -3 26 -35z m-472 -30 c0
-60 0 -60 -30 -60 -26 0 -30 3 -30 29 0 61 10 87 36 89 23 2 24 -1 24 -58z
m27 -22 c-2 -18 -4 -6 -4 27 0 33 2 48 4 33 2 -15 2 -42 0 -60z m20 5 c-2 -16
-4 -3 -4 27 0 30 2 43 4 28 2 -16 2 -40 0 -55z m44 32 c5 4 9 15 9 26 0 10 7
19 15 19 17 0 18 -8 9 -62 -6 -34 -10 -38 -37 -38 -28 0 -29 2 -23 31 3 17 7
41 7 53 2 15 3 13 6 -7 2 -15 9 -25 14 -22z m74 -19 c-4 -25 -11 -43 -16 -40
-11 6 -12 87 -2 98 15 15 24 -14 18 -58z m195 20 c0 -56 -11 -96 -27 -96 -12
0 -14 11 -8 63 4 34 9 65 12 70 9 16 23 -6 23 -37z m32 14 c-2 -16 -6 -30 -8
-30 -2 0 -4 14 -4 30 0 17 4 30 8 30 5 0 7 -13 4 -30z m-1370 0 c4 -8 7 -27 7
-42 1 -16 6 -28 11 -28 6 0 10 12 10 28 0 15 4 32 8 38 7 11 42 15 42 5 0 -3
11 -7 25 -7 47 -3 74 -14 78 -32 3 -10 5 -5 6 12 l1 29 29 -37 c16 -20 31 -32
33 -27 1 5 15 7 31 4 26 -5 27 -8 21 -42 l-6 -36 24 35 c17 26 32 36 56 38 31
3 32 2 26 -27 -5 -24 -3 -31 10 -31 11 0 16 9 16 33 l1 32 14 -25 c12 -22 14
-23 20 -7 9 21 34 22 41 2 7 -17 34 -21 34 -5 0 6 7 10 15 10 8 0 15 -5 15
-11 0 -9 -27 -74 -36 -87 -1 -2 -14 -5 -29 -8 -24 -4 -27 -2 -22 17 6 24 -1
49 -14 49 -5 0 -9 -14 -9 -30 l0 -30 -57 6 c-32 4 -60 11 -62 17 -2 5 -7 4
-11 -3 -6 -9 -22 -8 -69 4 -74 19 -74 19 -66 6 7 -12 -8 -14 -19 -2 -4 4 -11
7 -14 8 -33 4 -62 19 -62 33 0 9 -3 12 -8 6 -4 -6 -26 -15 -50 -21 -36 -10
-44 -9 -52 5 -5 9 -10 11 -10 5 0 -12 -37 -26 -75 -30 -11 -1 -28 -5 -37 -9
-11 -4 -18 -3 -18 5 0 6 -4 8 -10 5 -5 -3 -10 1 -10 10 0 9 4 14 10 10 5 -3
14 13 20 35 12 43 30 54 31 18 0 -20 2 -19 17 10 9 19 21 31 29 28 7 -3 13 1
13 10 0 8 7 17 15 20 8 4 12 10 9 15 -3 5 0 8 8 7 7 -2 16 -10 20 -18z m1189
-2 l2 -23 4 23 c3 15 12 22 27 22 22 0 22 -1 11 -57 -11 -53 -35 -86 -35 -47
0 14 -3 15 -12 6 -22 -22 -28 -13 -28 43 0 42 3 55 15 55 8 0 16 -10 16 -22z
m103 4 c-1 -7 -2 -29 -3 -49 -2 -46 -14 -68 -34 -60 -12 5 -13 14 -5 54 5 26
11 54 14 61 5 16 29 10 28 -6z m393 4 c-3 -7 -9 -67 -13 -132 -5 -76 -10 -106
-14 -84 -3 19 -2 58 2 85 3 28 7 71 7 98 1 27 6 47 12 47 6 0 9 -6 6 -14z
m-790 -28 c-3 -7 -5 -2 -5 12 0 14 2 19 5 13 2 -7 2 -19 0 -25z m-37 -21 c-7
-46 -16 -67 -30 -67 -11 0 0 81 13 98 18 23 24 12 17 -31z m-950 5 c0 -15 -2
-15 -10 -2 -13 20 -13 33 0 25 6 -3 10 -14 10 -23z m1730 18 c0 -5 -2 -10 -4
-10 -3 0 -8 5 -11 10 -3 6 -1 10 4 10 6 0 11 -4 11 -10z m-883 -42 c-3 -7 -5
-2 -5 12 0 14 2 19 5 13 2 -7 2 -19 0 -25z m40 10 c-3 -8 -6 -5 -6 6 -1 11 2
17 5 13 3 -3 4 -12 1 -19z m90 -35 c-3 -10 -5 -4 -5 12 0 17 2 24 5 18 2 -7 2
-21 0 -30z m470 5 c-3 -7 -5 -2 -5 12 0 14 2 19 5 13 2 -7 2 -19 0 -25z m-674
4 c-6 -4 -15 -23 -20 -42 -7 -26 -15 -36 -32 -38 -21 -3 -23 -1 -17 25 10 37
34 63 60 63 13 0 17 -3 9 -8z m-846 -24 c-3 -8 -6 -5 -6 6 -1 11 2 17 5 13 3
-3 4 -12 1 -19z m783 18 c0 -3 -4 -8 -10 -11 -5 -3 -10 -1 -10 4 0 6 5 11 10
11 6 0 10 -2 10 -4z m941 -108 c-9 -32 -9 -32 -10 17 0 28 3 61 7 75 6 22 7
19 10 -17 2 -22 -1 -56 -7 -75z m-774 80 c-3 -8 -6 -5 -6 6 -1 11 2 17 5 13 3
-3 4 -12 1 -19z m-197 -28 c0 -16 -4 -30 -10 -30 -5 0 -10 14 -10 30 0 17 5
30 10 30 6 0 10 -13 10 -30z m946 -27 c-5 -35 -13 -62 -22 -68 -9 -5 -25 -18
-36 -27 -11 -10 -23 -16 -27 -14 -11 7 4 129 17 134 8 2 12 -12 13 -50 l2 -53
10 60 c9 56 19 74 41 75 4 0 5 -26 2 -57z m-849 15 c-3 -8 -6 -5 -6 6 -1 11 2
17 5 13 3 -3 4 -12 1 -19z m-927 -8 c0 -5 18 -8 39 -6 l39 3 -21 -33 c-27 -41
-62 -47 -53 -9 4 14 2 25 -3 25 -5 0 -11 7 -15 15 -3 8 -1 15 4 15 6 0 10 -4
10 -10z m1290 -57 c0 -46 -3 -64 -10 -57 -10 10 -3 124 6 124 2 0 4 -30 4 -67z
m45 8 c-4 -31 -11 -60 -16 -65 -9 -10 -11 7 -11 84 0 38 -1 37 18 37 13 0 15
-9 9 -56z m41 -58 c-12 -29 -26 0 -26 52 0 72 24 82 28 12 2 -27 1 -56 -2 -64z
m70 38 c-6 -62 -8 -65 -35 -56 -18 5 -21 14 -21 64 0 32 2 60 5 63 4 3 17 1
31 -6 24 -10 25 -15 20 -65z m226 17 c-2 -35 -7 -66 -11 -70 -3 -3 -19 -8 -36
-10 l-29 -3 2 50 c5 82 8 86 68 94 7 1 9 -21 6 -61z m-466 -75 c-4 -8 -16 -13
-28 -11 -41 6 -37 102 5 117 21 8 22 5 25 -42 2 -27 1 -56 -2 -64z m312 93 c2
-10 1 -37 -2 -60 -6 -35 -10 -41 -31 -42 -28 -2 -29 4 -19 80 6 40 10 47 28
44 11 -2 22 -11 24 -22z m43 -42 c-3 -65 -8 -77 -22 -69 -19 12 -5 139 15 132
7 -2 10 -25 7 -63z m-1441 36 c0 -5 -4 -10 -10 -10 -5 0 -10 5 -10 10 0 6 5
10 10 10 6 0 10 -4 10 -10z m1000 -70 c0 -40 -4 -70 -10 -70 -11 0 -13 61 -4
109 10 48 14 37 14 -39z m-1180 31 c-5 -10 -6 -21 -3 -25 3 -3 1 -6 -6 -6 -8
0 -11 6 -7 16 3 9 6 22 6 30 0 9 5 12 10 9 7 -4 7 -12 0 -24z m47 7 c-3 -8 -6
-5 -6 6 -1 11 2 17 5 13 3 -3 4 -12 1 -19z m269 0 c-4 6 -2 12 3 12 6 0 12
-12 12 -27 2 -24 2 -25 6 -5 3 14 12 22 25 22 14 0 18 -5 14 -15 -3 -8 -1 -15
4 -15 6 0 10 5 10 10 0 6 4 10 10 10 5 0 9 -12 8 -26 -2 -19 -7 -24 -20 -21
-10 3 -20 1 -23 -3 -3 -5 -27 -12 -53 -16 -50 -7 -127 -37 -137 -54 -3 -5 -17
-10 -31 -10 -21 0 -29 -9 -25 -32 2 -14 -17 -8 -22 6 -3 8 1 20 9 26 8 7 14
18 14 25 0 7 14 28 31 46 25 26 32 30 40 18 7 -11 9 -9 9 9 0 14 6 22 18 22
10 0 22 4 28 9 15 15 48 18 63 7 11 -8 13 -8 7 2z m753 -92 c-9 -8 -10 -2 -5
29 3 22 7 49 8 60 1 11 3 -2 5 -29 3 -30 0 -53 -8 -60z m59 32 c-2 -71 -18
-58 -18 15 0 42 3 57 10 47 5 -8 8 -36 8 -62z m184 10 c-9 -9 -12 -4 -11 23 0
32 1 33 11 11 8 -17 8 -26 0 -34z m-796 20 c-3 -13 -6 -29 -6 -35 0 -9 -14
-12 -42 -10 -24 2 -42 6 -40 10 1 4 2 16 2 26 0 15 8 21 38 24 20 2 41 4 46 5
4 1 6 -8 2 -20z m63 6 c27 -6 31 -11 31 -38 0 -24 -3 -27 -10 -16 -7 11 -10
11 -10 2 0 -9 -10 -12 -27 -10 -23 2 -29 8 -31 36 -3 34 -1 35 47 26z m-509
-25 c0 -6 -4 -7 -10 -4 -5 3 -10 11 -10 16 0 6 5 7 10 4 6 -3 10 -11 10 -16z
m947 -16 c-3 -10 -5 -4 -5 12 0 17 2 24 5 18 2 -7 2 -21 0 -30z m-296 17 c24
0 29 -4 29 -25 0 -17 -7 -26 -22 -30 -26 -7 -104 7 -100 18 1 4 2 17 2 28 0
19 4 21 31 15 17 -3 44 -6 60 -6z m217 -27 c-2 -31 -7 -39 -25 -41 -20 -3 -23
1 -23 31 0 39 6 47 32 47 16 0 19 -6 16 -37z m-148 -3 c0 -20 -5 -30 -15 -30
-15 0 -21 40 -8 53 14 15 23 6 23 -23z m26 -28 c-12 -12 -18 8 -10 35 l8 28 4
-28 c2 -16 1 -31 -2 -35z m54 29 c0 -17 -5 -33 -11 -36 -15 -10 -17 -4 -12 33
6 40 23 42 23 3z m993 -13 c-7 -58 -23 -73 -23 -22 0 32 13 64 26 64 1 0 -1
-19 -3 -42z m-70 -84 c-15 -13 -36 -23 -46 -24 -9 0 -24 -8 -33 -19 -12 -14
-23 -17 -43 -11 -24 6 -26 10 -23 56 2 27 5 51 7 52 2 2 28 5 58 6 30 1 65 9
78 18 24 15 24 15 27 -20 3 -29 -2 -39 -25 -58z m-1743 72 c0 -3 -4 -8 -10
-11 -5 -3 -10 -1 -10 4 0 6 5 11 10 11 6 0 10 -2 10 -4z m1450 -41 c0 -17 -2
-18 -11 -5 -8 11 -9 4 -5 -27 l6 -43 -45 2 -45 2 0 53 c0 46 3 53 19 53 11 0
22 -8 24 -17 4 -14 5 -13 6 4 1 19 4 20 26 10 14 -7 25 -20 25 -32z m-114 13
c-3 -13 -6 -35 -6 -49 0 -23 -4 -26 -38 -27 -38 -2 -39 -1 -38 31 1 17 6 34
11 36 6 3 21 11 35 18 35 18 43 16 36 -9z m222 -46 c3 -43 0 -52 -14 -52 -14
0 -16 7 -11 45 4 27 3 45 -3 45 -6 0 -10 -21 -10 -46 0 -44 -1 -45 -27 -42
-22 2 -29 9 -31 32 -2 15 -1 39 3 53 5 21 10 24 48 20 l42 -4 3 -51z m-341
-56 c-14 -15 -35 -26 -51 -26 -23 0 -26 4 -26 35 0 29 6 39 33 55 17 11 38 18
45 15 6 -2 13 1 14 8 1 7 3 -4 5 -24 3 -28 -1 -43 -20 -63z m683 73 c0 -11 -4
-18 -10 -14 -5 3 -7 12 -3 20 7 21 13 19 13 -6z m-1450 -28 c0 -38 -49 -60
-51 -23 -1 15 -2 15 -6 1 -2 -9 -16 -19 -31 -22 -28 -5 -45 9 -37 30 2 7 0 15
-5 18 -6 4 -10 -8 -10 -26 0 -25 -9 -40 -42 -68 -23 -20 -48 -35 -56 -33 -8 2
-11 -1 -7 -8 3 -6 -4 -19 -17 -30 -28 -24 -38 -25 -38 -5 0 12 -7 9 -27 -10
-36 -32 -41 -32 -39 5 1 30 26 68 26 40 0 -19 13 -3 17 21 3 22 26 49 41 49 5
0 12 9 15 19 7 29 67 63 85 49 7 -6 12 -7 11 -2 -3 19 3 21 86 22 l85 2 0 -29z
m60 4 c0 -27 -13 -45 -32 -45 -14 0 -18 5 -14 16 3 9 6 24 6 34 0 13 5 17 20
13 11 -3 20 -11 20 -18z m-478 -27 c-13 -13 -26 8 -17 30 6 16 7 16 17 -1 7
-13 7 -22 0 -29z m495 -5 c-3 -10 -5 -2 -5 17 0 19 2 27 5 18 2 -10 2 -26 0
-35z m88 1 c0 -22 -5 -30 -22 -32 -20 -3 -23 1 -23 32 0 32 3 35 23 32 17 -2
22 -10 22 -32z m282 -1 c-3 -10 -5 -4 -5 12 0 17 2 24 5 18 2 -7 2 -21 0 -30z
m228 -41 c-5 -26 -9 -32 -16 -21 -13 21 -11 87 4 92 15 5 21 -25 12 -71z
m-442 56 c-2 -5 -3 -19 -3 -33 0 -18 -5 -25 -20 -25 -16 0 -20 7 -20 36 0 31
3 35 23 32 12 -2 21 -6 20 -10z m1116 -58 c-12 -83 -16 -93 -35 -86 -8 3 -30
-1 -49 -8 -18 -8 -37 -11 -41 -8 -4 4 -4 -1 -1 -10 4 -12 1 -18 -7 -18 -8 0
-22 -3 -31 -6 -11 -5 -16 -2 -15 7 1 8 1 23 0 34 -1 15 -5 11 -15 -15 l-13
-35 -1 57 c-1 63 -6 59 82 73 21 3 41 13 44 21 3 7 11 14 19 14 7 0 26 11 41
24 15 13 29 24 29 23 1 -1 -2 -31 -7 -67z m-1073 44 c-3 -9 -6 -24 -6 -35 0
-10 -4 -19 -10 -19 -5 0 -10 16 -10 35 0 25 4 35 16 35 11 0 14 -5 10 -16z
m24 -24 c-5 -22 -8 -27 -9 -13 -1 21 9 56 14 51 2 -2 0 -19 -5 -38z m52 -4
c-2 -20 -9 -39 -14 -42 -8 -5 -8 28 1 84 1 2 5 1 9 -2 4 -3 6 -21 4 -40z m68
9 c0 -24 -6 -37 -19 -45 -29 -15 -31 -13 -31 28 0 43 5 52 32 52 14 0 18 -8
18 -35z m88 -1 c15 5 18 0 20 -30 3 -32 1 -34 -18 -24 -11 6 -20 18 -21 28 0
13 -3 11 -9 -5 -13 -32 -17 -29 -18 13 -2 46 9 65 20 35 5 -16 13 -21 26 -17z
m116 -11 c-6 -44 -19 -73 -27 -62 -2 2 -1 28 1 57 3 37 8 52 19 52 11 0 13 -9
7 -47z m-1159 -15 c-4 -26 -3 -29 4 -13 8 17 10 16 10 -12 1 -18 -3 -33 -9
-33 -5 0 -10 -7 -10 -15 0 -8 -10 -19 -21 -26 -20 -10 -21 -9 -15 16 4 17 3
24 -4 20 -5 -3 -10 -18 -10 -34 0 -21 -7 -30 -35 -43 -24 -10 -35 -12 -36 -4
0 6 -4 2 -9 -9 -7 -17 -9 -17 -9 -2 -1 23 -21 22 -21 -2 0 -13 -9 -21 -32 -25
-65 -12 -88 -24 -100 -55 -9 -21 -12 -23 -15 -8 -6 21 -17 22 -34 0 -13 -15
-15 -13 -20 13 l-7 29 -1 -32 c0 -18 -5 -33 -11 -33 -5 0 -20 -16 -32 -35 -13
-19 -27 -35 -31 -35 -5 0 -5 5 -2 10 3 5 1 10 -4 10 -6 0 -11 -13 -11 -30 0
-29 -1 -30 -51 -30 -48 0 -50 1 -43 23 3 12 10 29 15 37 7 12 8 10 9 -7 0 -12
5 -25 10 -28 6 -4 10 10 10 34 0 23 -4 41 -10 41 -5 0 -10 7 -10 15 0 8 3 15
8 15 4 0 19 11 34 24 14 14 28 22 32 19 3 -3 11 15 18 41 13 48 35 66 24 19
-15 -61 -18 -89 -7 -73 6 8 11 25 11 38 0 13 4 20 10 17 6 -4 10 8 10 30 0 22
4 34 10 30 6 -3 10 -15 10 -26 0 -27 20 -24 21 4 1 17 2 18 6 4 3 -10 11 -30
20 -45 l15 -27 -5 30 c-3 17 -2 48 3 70 l8 40 1 -43 c1 -27 5 -41 11 -37 6 4
8 15 5 26 -4 10 -3 24 1 31 6 9 10 5 15 -12 6 -21 7 -19 8 13 1 39 21 53 22
15 0 -22 1 -22 11 2 l11 25 7 -35 7 -35 2 37 c0 20 7 38 13 40 18 6 38 -16 39
-44 1 -16 4 -11 11 16 11 39 11 39 24 15 l13 -24 1 28 c0 21 4 28 18 25 9 -1
23 1 30 5 7 5 12 4 12 -2 0 -6 5 -11 10 -11 6 0 10 9 10 19 0 16 6 23 27 30 1
1 0 -14 -2 -31z m115 0 c0 -5 -4 -8 -10 -8 -5 0 -10 10 -10 23 0 18 2 19 10 7
5 -8 10 -18 10 -22z m1160 -18 c0 -5 -5 -10 -11 -10 -5 0 -7 5 -4 10 3 6 8 10
11 10 2 0 4 -4 4 -10z m223 -7 c34 -4 37 -7 36 -36 l-1 -32 -8 30 c-6 26 -8
22 -9 -23 l-1 -53 -78 2 c-43 2 -83 -1 -91 -5 -9 -6 -12 -2 -11 15 4 48 -3 63
-9 19 -5 -35 -10 -45 -23 -44 -10 1 -18 -2 -18 -7 0 -14 -30 -11 -31 4 0 6 -5
1 -12 -13 -11 -23 -12 -22 -15 23 -4 56 3 63 82 102 50 24 108 30 189 18z
m102 -25 l8 -23 4 23 c5 24 5 24 27 16 18 -7 23 -98 6 -109 -5 -3 -10 0 -10 7
0 8 -5 6 -11 -5 -16 -27 -30 -9 -25 31 l5 37 -11 -38 c-18 -59 -42 -46 -46 26
-3 55 -2 57 21 57 17 0 27 -7 32 -22z m-1025 -33 c0 -34 20 -32 21 3 2 25 2
25 6 3 3 -12 2 -35 -2 -50 -7 -24 -8 -25 -15 -6 -7 15 -9 16 -9 4 -1 -9 -8
-19 -16 -23 -14 -5 -15 17 -6 87 3 19 21 4 21 -18z m-69 -77 c-12 -10 -26 -16
-31 -13 -6 3 -10 1 -10 -4 0 -6 -7 -11 -15 -11 -9 0 -18 -7 -21 -15 -4 -8 -10
-13 -14 -10 -5 3 -13 -3 -19 -12 -8 -14 -10 -15 -11 -3 0 8 -9 1 -19 -16 -23
-38 -49 -58 -36 -28 4 10 9 43 10 72 3 62 28 101 40 62 4 -12 4 -33 0 -48 -4
-18 -3 -24 4 -17 5 6 11 35 13 65 l3 55 53 2 c30 1 57 4 60 8 4 4 8 -10 10
-30 3 -28 -2 -42 -17 -57z m187 43 c3 -37 1 -43 -13 -37 -9 3 -23 6 -31 6 -8
0 -14 10 -14 24 0 40 11 57 34 54 17 -2 22 -11 24 -47z m62 0 c0 -30 -4 -40
-20 -44 -18 -5 -20 0 -20 39 0 37 3 44 20 44 17 0 20 -7 20 -39z m40 -11 c0
-22 -4 -40 -10 -40 -11 0 -13 39 -4 64 10 26 14 19 14 -24z m250 -16 c0 -45
-19 -55 -21 -11 -1 17 -2 18 -6 4 -6 -24 -23 -11 -23 18 0 21 10 29 43 34 4 0
7 -20 7 -45z m157 -31 c-2 -16 -4 -3 -4 27 0 30 2 43 4 28 2 -16 2 -40 0 -55z
m-1127 51 c0 -8 -4 -12 -10 -9 -5 3 -10 10 -10 16 0 5 5 9 10 9 6 0 10 -7 10
-16z m65 -26 c-2 -24 -4 -53 -4 -65 -1 -16 -6 -21 -16 -17 -21 9 -21 94 0 94
8 0 15 7 15 15 0 8 2 15 4 15 2 0 3 -19 1 -42z m735 7 c0 -19 -4 -35 -10 -35
-5 0 -10 16 -10 35 0 19 5 35 10 35 6 0 10 -16 10 -35z m60 5 c0 -35 -36 -63
-42 -32 -7 33 4 62 23 62 14 0 19 -7 19 -30z m45 0 c0 -17 -5 -30 -12 -30 -13
0 -18 42 -6 53 13 13 18 7 18 -23z m192 -62 c-2 -18 -4 -6 -4 27 0 33 2 48 4
33 2 -15 2 -42 0 -60z m-337 46 c0 -8 -4 -14 -10 -14 -5 0 -10 9 -10 21 0 11
5 17 10 14 6 -3 10 -13 10 -21z m301 -87 c-8 -8 -11 5 -11 44 0 72 14 86 18
18 2 -28 -2 -57 -7 -62z m723 76 c-4 -21 -7 -53 -7 -71 1 -24 -2 -32 -12 -29
-7 3 -16 3 -19 0 -3 -3 -38 -6 -78 -6 l-73 -1 -3 37 c-2 20 1 37 6 37 5 0 7
-12 4 -26 -3 -19 -1 -25 7 -20 6 4 11 15 11 25 0 18 53 51 82 51 7 0 27 9 43
19 43 28 48 26 39 -16z m-1804 -28 c0 -14 0 -28 0 -32 0 -5 -4 -9 -10 -11 -5
-2 -10 12 -10 32 0 20 5 36 10 36 6 0 10 -11 10 -25z m1040 -35 l-8 -35 -1 45
c-1 27 3 40 8 35 6 -6 6 -25 1 -45z m467 18 c-3 -7 -5 -2 -5 12 0 14 2 19 5
13 2 -7 2 -19 0 -25z m-1550 0 c-3 -8 -6 -5 -6 6 -1 11 2 17 5 13 3 -3 4 -12
1 -19z m1512 -15 c6 -21 11 -42 11 -46 0 -5 -28 -7 -62 -6 -35 2 -69 0 -76 -5
-18 -11 -20 -6 -15 32 5 28 9 32 37 32 18 0 41 7 52 15 30 23 42 18 53 -22z
m91 15 c1 -23 1 -23 15 2 15 24 15 24 13 -19 -3 -41 -5 -44 -33 -47 -52 -6
-57 1 -34 46 23 45 39 52 39 18z m-1634 -34 c-8 -21 -36 -17 -36 6 0 24 33 46
38 24 2 -8 1 -22 -2 -30z m327 27 c3 -12 -1 -22 -9 -25 -8 -3 -14 -19 -14 -36
0 -18 -4 -29 -10 -25 -5 3 -10 -3 -10 -14 0 -12 -6 -21 -14 -21 -16 0 -12 22
19 98 19 46 30 53 38 23z m283 -67 c-10 -50 -26 -52 -23 -2 2 45 19 79 25 51
2 -8 1 -30 -2 -49z m46 24 c-6 -6 -7 0 -4 19 5 21 7 23 10 9 2 -10 0 -22 -6
-28z m48 25 c0 -33 -21 -93 -32 -93 -7 0 -8 13 -4 38 3 20 6 45 6 55 0 9 7 17
15 17 8 0 15 -8 15 -17z m60 -10 c0 -43 -11 -73 -26 -73 -10 0 -14 14 -14 50
0 43 3 50 20 50 15 0 20 -7 20 -27z m50 -19 c0 -19 -4 -34 -10 -34 -5 0 -10
18 -10 41 0 24 4 38 10 34 6 -3 10 -22 10 -41z m542 7 c-11 -32 -5 -40 15 -20
9 9 10 6 6 -10 -4 -14 -11 -20 -21 -16 -8 3 -21 0 -28 -6 -7 -6 -19 -9 -26 -6
-8 4 -7 6 4 6 11 1 20 12 24 29 9 36 24 65 31 58 3 -3 1 -19 -5 -35z m35 17
c-3 -8 -6 -5 -6 6 -1 11 2 17 5 13 3 -3 4 -12 1 -19z m-1622 2 c-3 -5 -11 -10
-16 -10 -6 0 -7 5 -4 10 3 6 11 10 16 10 6 0 7 -4 4 -10z m185 -10 c0 -11 -4
-20 -10 -20 -10 0 -38 -21 -74 -55 -27 -25 -64 -27 -77 -3 -8 15 -5 23 13 38
13 11 29 19 36 20 8 0 27 8 43 17 26 16 31 16 39 3 8 -13 10 -12 10 3 0 9 5
17 10 17 6 0 10 -9 10 -20z m80 16 c0 -3 -4 -8 -10 -11 -5 -3 -10 -1 -10 4 0
6 5 11 10 11 6 0 10 -2 10 -4z m533 -57 c-7 -24 -7 -24 -14 5 -9 33 -1 56 12
34 4 -8 5 -25 2 -39z m287 11 c0 -22 -4 -40 -10 -40 -5 0 -10 18 -10 40 0 22
5 40 10 40 6 0 10 -18 10 -40z m30 13 c-1 -24 -2 -26 -11 -10 -5 9 -7 22 -4
27 10 17 15 11 15 -17z m60 5 c0 -13 -7 -32 -15 -42 -8 -11 -15 -15 -15 -9 0
6 -3 25 -6 42 -6 27 -4 31 15 31 15 0 21 -6 21 -22z m-459 -2 c-7 -8 -8 -17
-3 -20 5 -3 7 -17 4 -31 -4 -22 -10 -25 -44 -25 -25 0 -37 4 -32 11 3 6 17 8
30 5 23 -6 31 6 25 38 -3 16 8 36 20 36 9 0 9 -4 0 -14z m492 -18 c-8 -46 -13
-48 -13 -5 0 21 4 37 10 37 5 0 7 -14 3 -32z m-447 6 c-3 -9 -9 -27 -12 -40
-6 -22 -24 -34 -24 -15 0 20 23 71 32 71 6 0 7 -7 4 -16z m101 -36 c-2 -13 -4
-5 -4 17 -1 22 1 32 4 23 2 -10 2 -28 0 -40z m443 22 c0 -4 -7 -13 -15 -20
-13 -11 -15 -8 -15 13 0 19 4 25 15 21 8 -4 15 -10 15 -14z m-828 -15 c7 -33
-8 -43 -55 -36 -13 2 23 61 37 61 8 0 16 -11 18 -25z m986 8 c12 1 22 6 22 12
0 11 20 -15 20 -27 0 -5 -25 -8 -55 -8 -42 0 -55 4 -55 15 0 9 6 12 15 9 9 -4
15 0 15 7 0 11 2 11 8 2 4 -7 18 -11 30 -10z m-1471 -45 c-3 -8 -6 -5 -6 6 -1
11 2 17 5 13 3 -3 4 -12 1 -19z m-340 -20 c-3 -8 -6 -5 -6 6 -1 11 2 17 5 13
3 -3 4 -12 1 -19z m2293 -33 c0 -8 -4 -15 -10 -15 -5 0 -10 7 -10 15 0 8 5 15
10 15 6 0 10 -7 10 -15z"/>
<path d="M3046 1439 c-2 -8 -7 -22 -10 -31 -3 -10 -2 -18 3 -18 10 0 25 50 17
58 -3 2 -7 -1 -10 -9z"/>
<path d="M3261 1413 c-1 -12 4 -25 9 -28 12 -7 12 2 0 30 -8 19 -9 19 -9 -2z"/>
<path d="M3186 1355 c-7 -19 3 -47 15 -39 5 3 9 14 9 24 0 24 -16 34 -24 15z"/>
<path d="M3080 1294 c-6 -14 -10 -131 -10 -260 0 -168 -3 -240 -12 -254 -10
-16 -10 -23 4 -36 16 -16 17 -16 18 2 1 10 5 134 9 274 4 140 11 265 15 278
12 32 -12 29 -24 -4z"/>
<path d="M2980 1275 c0 -19 5 -35 10 -35 6 0 10 16 10 35 0 19 -4 35 -10 35
-5 0 -10 -16 -10 -35z"/>
<path d="M3182 1270 c0 -19 2 -27 5 -17 2 9 2 25 0 35 -3 9 -5 1 -5 -18z"/>
<path d="M3178 1195 c-4 -22 -8 -67 -8 -100 0 -33 -4 -89 -9 -125 -17 -119
-23 -244 -12 -270 8 -21 10 -15 10 37 1 35 8 130 16 211 16 153 18 330 3 247z"/>
<path d="M3266 921 c-4 -7 -5 -15 -2 -18 9 -9 19 4 14 18 -4 11 -6 11 -12 0z"/>
<path d="M2917 843 c-3 -5 -8 -40 -12 -79 -6 -54 -4 -73 6 -79 9 -6 11 -3 6 9
-4 10 -2 47 3 83 10 61 9 85 -3 66z"/>
<path d="M3200 671 c0 -22 5 -43 10 -46 6 -3 10 4 10 17 0 13 3 33 6 46 5 16
2 22 -10 22 -12 0 -16 -10 -16 -39z"/>
<path d="M3092 590 c0 -19 2 -27 5 -17 2 9 2 25 0 35 -3 9 -5 1 -5 -18z"/>
<path d="M3154 595 c-7 -11 -8 -29 -4 -40 7 -18 9 -18 15 -3 3 9 5 27 3 40 -3
22 -4 22 -14 3z"/>
<path d="M2891 484 c0 -11 3 -14 6 -6 3 7 2 16 -1 19 -3 4 -6 -2 -5 -13z"/>
<path d="M2924 487 c-2 -7 2 -29 10 -48 l15 -34 1 48 c0 44 -14 63 -26 34z"/>
<path d="M3104 406 c-4 -9 -2 -31 3 -49 l10 -32 8 38 c8 42 -8 76 -21 43z"/>
<path d="M3253 373 c-7 -22 -8 -44 -3 -53 8 -15 10 -11 26 68 7 36 -10 25 -23
-15z"/>
<path d="M2136 1435 c-8 -31 2 -75 18 -75 7 0 11 19 11 50 0 53 -18 69 -29 25z"/>
<path d="M2027 1423 c-4 -3 -7 -27 -7 -52 0 -55 15 -44 23 17 5 39 -1 51 -16
35z"/>
<path d="M1426 1384 c-9 -25 -7 -64 4 -64 6 0 10 18 10 40 0 43 -4 50 -14 24z"/>
<path d="M1500 1341 c0 -5 5 -13 10 -16 6 -3 10 -2 10 4 0 5 -4 13 -10 16 -5
3 -10 2 -10 -4z"/>
<path d="M1727 1383 c-11 -10 -8 -123 2 -123 5 0 11 29 13 65 3 62 0 73 -15
58z"/>
<path d="M1632 1236 c-11 -25 -6 -66 9 -66 5 0 9 3 10 8 11 79 3 105 -19 58z"/>
<path d="M1721 1238 c0 -7 4 -22 9 -33 7 -17 9 -15 9 13 1 17 -3 32 -9 32 -5
0 -10 -6 -9 -12z"/>
<path d="M1015 1388 c-8 -26 -12 -238 -5 -243 4 -3 11 35 14 83 4 48 9 106 13
130 3 28 2 42 -6 42 -6 0 -13 -6 -16 -12z"/>
<path d="M711 1363 c-12 -24 -14 -411 -2 -398 8 9 22 415 14 415 -1 0 -6 -8
-12 -17z"/>
<path d="M1187 1373 c-4 -3 -7 -31 -6 -62 0 -61 11 -49 24 27 6 39 -1 53 -18
35z"/>
<path d="M564 1338 c3 -13 6 -27 6 -31 0 -5 5 -5 10 -2 17 10 12 55 -6 55 -12
0 -15 -6 -10 -22z"/>
<path d="M655 1338 c-2 -7 -6 -116 -10 -243 -3 -126 -8 -241 -11 -255 -4 -18
-3 -21 4 -11 12 17 22 159 26 369 3 143 1 170 -9 140z"/>
<path d="M487 1333 c-4 -3 -7 -20 -7 -37 0 -28 1 -29 15 -10 23 31 16 72 -8
47z"/>
<path d="M886 1329 c-9 -26 -13 -279 -4 -279 4 0 8 47 8 104 0 56 5 118 11
135 8 24 8 36 1 43 -8 8 -13 7 -16 -3z"/>
<path d="M301 1299 c-13 -38 -15 -109 -2 -109 4 0 13 19 18 43 6 24 11 33 12
20 1 -31 21 -29 21 2 0 27 -19 75 -31 75 -4 0 -12 -14 -18 -31z"/>
<path d="M416 1263 c-9 -35 -16 -409 -8 -438 6 -21 11 30 15 165 4 107 10 217
13 243 4 31 3 47 -4 47 -6 0 -13 -8 -16 -17z"/>
<path d="M477 1133 c-8 -146 -9 -258 -3 -252 10 9 27 362 18 371 -5 5 -11 -42
-15 -119z"/>
<path d="M570 1234 c0 -8 5 -12 10 -9 6 4 8 11 5 16 -9 14 -15 11 -15 -7z"/>
<path d="M933 1179 c4 -13 7 -51 7 -83 0 -84 18 -59 21 29 2 61 0 70 -16 74
-14 2 -17 -1 -12 -20z"/>
<path d="M312 1103 c-14 -26 -15 -62 -3 -82 7 -10 11 -1 16 32 9 57 3 80 -13
50z"/>
<path d="M576 933 c-2 -10 -5 -45 -5 -78 0 -33 -5 -84 -11 -114 -12 -65 -12
-61 -2 -61 12 0 31 90 38 188 5 56 3 82 -4 82 -6 0 -13 -8 -16 -17z"/>
<path d="M703 900 c0 -30 2 -43 4 -27 2 15 2 39 0 55 -2 15 -4 2 -4 -28z"/>
<path d="M320 860 c0 -22 5 -40 10 -40 6 0 10 18 10 40 0 22 -4 40 -10 40 -5
0 -10 -18 -10 -40z"/>
<path d="M661 748 c0 -33 2 -38 9 -23 12 28 12 65 0 65 -5 0 -10 -19 -9 -42z"/>
<path d="M397 693 c-7 -26 -5 -185 1 -178 9 9 30 168 25 182 -7 18 -21 16 -26
-4z"/>
<path d="M340 673 c0 -4 5 -15 10 -23 8 -13 10 -13 10 2 0 9 -4 20 -10 23 -5
3 -10 3 -10 -2z"/>
<path d="M2435 1239 c-11 -17 1 -21 15 -4 8 9 8 15 2 15 -6 0 -14 -5 -17 -11z"/>
<path d="M2627 1193 c-4 -3 -7 -13 -7 -22 1 -13 3 -13 11 2 11 19 8 33 -4 20z"/>
<path d="M1260 985 c0 -15 4 -24 10 -20 6 3 10 12 10 20 0 8 -4 17 -10 20 -6
4 -10 -5 -10 -20z"/>
<path d="M1192 970 c0 -14 2 -19 5 -12 2 6 2 18 0 25 -3 6 -5 1 -5 -13z"/>
<path d="M1297 974 c-4 -4 -7 -17 -7 -28 1 -19 1 -20 11 -3 11 19 8 43 -4 31z"/>
<path d="M1331 931 c-1 -24 2 -32 9 -25 7 7 7 19 1 35 -9 23 -10 22 -10 -10z"/>
<path d="M1548 944 c-5 -4 -8 -16 -8 -28 0 -14 3 -17 11 -9 6 6 9 19 7 28 -1
9 -6 13 -10 9z"/>
<path d="M1070 700 c0 -11 2 -20 4 -20 2 0 6 9 9 20 3 11 1 20 -4 20 -5 0 -9
-9 -9 -20z"/>
<path d="M2101 584 c0 -11 3 -14 6 -6 3 7 2 16 -1 19 -3 4 -6 -2 -5 -13z"/>
<path d="M1200 583 c0 -6 -3 -18 -6 -27 -3 -9 -2 -16 4 -16 15 0 24 32 12 44
-7 7 -10 7 -10 -1z"/>
<path d="M610 374 c0 -8 5 -12 10 -9 6 4 8 11 5 16 -9 14 -15 11 -15 -7z"/>
<path d="M361 260 c0 -33 1 -34 10 -11 6 16 6 28 -1 35 -7 7 -10 -1 -9 -24z"/>
<path d="M2661 314 c-13 -29 -6 -47 9 -24 9 14 14 50 7 50 -2 0 -9 -12 -16
-26z"/>
<path d="M3 1395 c0 -38 2 -53 4 -32 2 20 2 52 0 70 -2 17 -4 1 -4 -38z"/>
<path d="M5 770 c2 -63 7 -133 9 -155 5 -31 4 -34 -3 -15 -6 16 -9 -93 -10
-287 l-1 -313 26 0 c24 0 26 3 21 29 -4 17 -9 113 -13 215 -5 137 -4 192 5
214 10 24 10 56 -2 158 -8 71 -14 145 -14 164 -1 19 -6 51 -12 70 -9 28 -10
13 -6 -80z"/>
</g>
</svg>
