<?xml version="1.0" standalone="no"?>
<!DOCTYPE svg PUBLIC "-//W3C//DTD SVG 20010904//EN"
 "http://www.w3.org/TR/2001/REC-SVG-20010904/DTD/svg10.dtd">
<svg version="1.0" xmlns="http://www.w3.org/2000/svg"
 width="321.000000pt" height="228.000000pt" viewBox="0 0 321.000000 228.000000"
 preserveAspectRatio="xMidYMid meet">
<metadata>
Created by potrace 1.16, written by Peter Selinger 2001-2019
</metadata>
<g transform="translate(0.000000,228.000000) scale(0.100000,-0.100000)"
fill="#000000" stroke="none">
<path d="M2185 2230 c-66 -4 -121 -8 -122 -9 -2 0 -3 -8 -3 -16 0 -15 -69 -20
-205 -16 -27 1 -88 -5 -135 -14 -50 -10 -179 -20 -315 -25 -192 -7 -479 -29
-535 -42 -11 -2 -14 5 -12 25 3 23 0 27 -21 27 -17 0 -28 -8 -36 -28 l-12 -28
-154 4 c-112 3 -159 1 -170 -8 -8 -6 -19 -9 -24 -5 -6 3 -20 1 -31 -5 -11 -6
-20 -7 -20 -2 0 25 -166 35 -257 16 -25 -5 -34 -2 -39 10 -7 19 -40 21 -47 3
-7 -17 0 -393 8 -479 4 -38 4 -99 0 -137 -5 -55 -10 -68 -23 -67 -24 2 -21
-29 27 -256 70 -331 83 -428 61 -428 -13 0 -13 -27 1 -32 13 -4 14 -42 4 -218
-8 -148 -14 -192 -16 -104 0 27 -5 58 -10 69 -10 21 -4 -180 8 -265 8 -61 22
-24 16 45 -3 44 -2 48 10 32 15 -17 15 -104 2 -139 -5 -12 -2 -18 7 -18 8 0
20 -16 27 -35 15 -43 52 -48 76 -11 11 17 22 22 40 18 30 -5 32 -18 6 -27 -20
-6 -36 -33 -26 -43 3 -3 22 0 43 8 58 21 141 23 209 6 94 -25 147 -20 122 11
-9 10 -5 13 19 13 17 0 32 -4 34 -10 4 -12 244 -20 593 -18 149 0 379 0 513
-1 157 -1 242 2 242 9 0 6 68 10 188 10 103 0 205 5 227 11 22 6 144 13 270
14 127 2 238 4 248 4 11 1 17 7 15 18 -4 21 31 31 42 12 6 -9 17 -4 40 19 17
18 27 32 21 32 -12 0 -7 396 9 588 5 70 14 231 20 357 5 127 12 255 15 285 25
285 38 686 23 746 -5 22 -20 54 -33 70 l-23 29 -399 1 c-219 1 -452 -2 -518
-6z m193 -39 c7 -4 -13 -6 -45 -4 -79 6 -89 11 -23 12 30 0 61 -3 68 -8z m92
-1 c0 -5 -7 -10 -15 -10 -8 0 -15 5 -15 10 0 6 7 10 15 10 8 0 15 -4 15 -10z
m610 -70 c-6 -11 -12 -20 -14 -20 -2 0 -2 9 1 20 3 11 9 20 15 20 5 0 4 -9 -2
-20z m-2250 0 c0 -5 -5 -10 -11 -10 -5 0 -7 5 -4 10 3 6 8 10 11 10 2 0 4 -4
4 -10z m1594 -6 c4 -9 13 -14 21 -10 11 4 15 -2 15 -24 0 -35 -4 -36 -37 -11
-13 11 -31 17 -39 14 -10 -4 -14 2 -14 21 0 21 5 26 24 26 13 0 27 -7 30 -16z
m76 -29 c0 -17 -2 -17 -10 -5 -5 8 -10 24 -10 35 0 17 2 17 10 5 5 -8 10 -24
10 -35z m-2420 -6 c0 -11 -4 -18 -10 -14 -5 3 -7 12 -3 20 7 21 13 19 13 -6z
m2251 14 c0 -5 2 -16 4 -26 3 -17 2 -17 -14 -3 -24 22 -48 20 -56 -5 -9 -27 0
-35 20 -19 17 14 28 8 31 -18 8 -55 17 -89 27 -101 15 -17 20 -61 8 -61 -5 0
-12 6 -15 13 -3 6 -3 -4 0 -23 19 -138 23 -604 5 -705 -5 -30 -9 -39 -10 -22
0 15 -6 27 -12 27 -5 0 -7 -4 -4 -10 11 -18 -18 -11 -52 13 -28 18 -32 27 -28
52 19 120 25 264 22 552 -3 231 0 334 7 337 18 7 66 6 67 -1z m-142 -21 c11
-9 22 -37 26 -62 9 -57 16 -644 8 -727 -6 -64 -22 -85 -49 -62 -8 6 -28 19
-46 29 l-31 16 2 80 c2 89 16 248 32 369 6 44 11 129 11 189 0 104 -1 110 -26
135 -15 14 -26 20 -26 13 0 -8 7 -20 15 -28 19 -20 19 -110 0 -314 -8 -85 -20
-217 -27 -292 l-11 -137 -64 45 c-83 59 -113 88 -113 107 0 9 -8 20 -17 25
-15 9 -15 15 1 90 10 48 17 123 17 188 0 60 5 124 12 141 6 18 8 36 3 40 -14
14 -39 -13 -41 -45 -2 -18 -6 -36 -9 -39 -9 -9 -3 215 6 230 6 10 148 25 148
16 0 -2 -11 -112 -25 -244 -34 -321 -41 -425 -27 -425 6 0 11 8 10 18 -1 34
22 281 42 447 11 94 20 178 20 187 0 12 10 18 33 20 90 9 109 7 126 -10z
m-2059 -23 c0 -6 -4 -7 -10 -4 -5 3 -10 11 -10 16 0 6 5 7 10 4 6 -3 10 -11
10 -16z m1699 6 c5 -20 -1 -35 -14 -35 -13 0 -15 -25 -14 -177 2 -144 -1 -186
-15 -222 -20 -53 -20 -61 -2 -61 11 0 13 -10 9 -42 -5 -33 -2 -44 12 -55 11
-7 14 -13 8 -13 -5 0 -18 9 -28 20 -21 24 -40 26 -31 5 3 -9 0 -15 -10 -15 -8
0 -13 4 -10 8 6 10 -72 9 -149 -1 -80 -11 -143 -15 -148 -10 -3 2 4 26 14 52
51 135 46 448 -8 468 -21 8 -27 -4 -10 -22 9 -8 19 -41 23 -72 13 -103 -11
-350 -37 -377 -5 -6 -9 -20 -9 -33 0 -19 -5 -23 -31 -23 -28 0 -31 3 -25 23
19 64 36 205 36 302 0 118 -12 183 -36 192 -22 8 -28 -4 -11 -21 32 -33 30
-246 -5 -428 -12 -65 -14 -68 -41 -68 -26 0 -29 3 -23 23 34 121 53 413 33
490 l-7 27 55 0 c31 0 55 4 55 10 0 14 -44 30 -88 31 -84 3 78 18 223 20 l150
3 3 -259 c1 -182 -1 -262 -9 -272 -14 -16 -6 -28 14 -20 20 7 26 120 20 359
l-6 197 49 4 c48 3 60 2 63 -8z m-589 -15 c0 -5 -6 -10 -14 -10 -8 0 -18 5
-21 10 -3 6 3 10 14 10 12 0 21 -4 21 -10z m-325 -305 l-8 -285 21 0 21 0 -6
280 -6 280 49 0 c80 0 79 1 77 -162 -3 -137 -18 -339 -29 -384 -4 -16 -16 -23
-47 -27 -23 -3 -73 -11 -110 -17 -70 -12 -123 -7 -112 10 3 6 -1 10 -9 10 -12
0 -11 11 10 66 24 63 24 67 7 86 -16 18 -15 24 26 141 65 183 78 233 64 256
-15 24 -8 31 30 31 l29 0 -7 -285z m236 265 l30 0 -1 -152 c-1 -84 -5 -184
-10 -223 -5 -38 -11 -88 -13 -110 -4 -55 -12 -65 -54 -65 l-35 0 6 63 c13 133
20 277 18 385 -1 99 1 113 14 108 9 -3 29 -6 45 -6z m124 -10 c24 -40 12 -327
-20 -469 -16 -68 -18 -71 -46 -71 -32 0 -35 9 -19 75 5 22 10 138 10 258 l1
217 34 0 c19 0 37 -5 40 -10z m1138 -26 c19 -7 17 -31 -2 -27 -7 2 -9 -12 -6
-40 17 -141 23 -228 19 -248 -2 -13 -2 -18 2 -11 13 27 23 9 27 -50 3 -35 8
-76 11 -93 4 -16 7 -54 7 -83 0 -29 5 -50 10 -46 5 3 9 -12 10 -33 0 -21 3
-56 6 -78 2 -22 2 -91 -2 -152 l-7 -113 -26 14 c-41 21 -70 50 -82 80 -13 36
-14 209 0 201 6 -3 10 1 10 9 0 9 -4 16 -10 16 -5 0 -7 6 -5 13 3 6 7 75 10
152 3 77 5 145 5 150 1 6 -1 54 -3 108 -3 53 -1 97 4 97 13 0 10 31 -6 60 -9
16 -10 29 -4 37 7 7 6 13 -1 18 -15 9 -13 38 3 31 6 -3 20 -9 30 -12z m136
-17 c-5 -51 2 -118 10 -113 5 4 7 -3 4 -14 -3 -11 -1 -26 5 -33 12 -14 12
-148 0 -141 -10 6 -10 1 -2 -20 3 -9 12 -16 20 -16 8 0 14 -10 14 -22 1 -13 3
-46 6 -75 3 -29 2 -59 -3 -67 -5 -9 -9 15 -10 60 -1 77 -8 99 -22 75 -7 -11
-10 -10 -14 5 -23 78 -36 401 -17 389 6 -4 10 -16 9 -28z m-80 -5 c-13 -5 -11
-29 4 -44 8 -7 17 -43 21 -78 4 -41 3 -60 -3 -51 -5 7 -14 10 -20 6 -9 -5 -11
6 -10 37 1 23 -2 70 -6 102 -7 53 -6 58 8 45 8 -8 11 -15 6 -17z m609 -23 c-3
-20 -5 -19 -9 9 -3 20 -2 29 4 23 5 -5 7 -19 5 -32z m-2241 -16 c-3 -10 -5 -4
-5 12 0 17 2 24 5 18 2 -7 2 -21 0 -30z m2109 -80 c-10 -10 -19 5 -10 18 6 11
8 11 12 0 2 -7 1 -15 -2 -18z m-1081 -172 c-5 -50 -10 -69 -16 -60 -9 14 -5
98 8 154 7 29 7 29 11 5 2 -13 1 -58 -3 -99z m625 -1 c0 -64 3 -72 14 -58 24
32 34 2 29 -83 -5 -60 -3 -79 7 -79 10 0 11 -18 7 -75 -5 -51 -3 -74 4 -69 7
4 9 -24 6 -86 -3 -53 -1 -86 4 -78 5 8 9 -28 9 -87 1 -85 3 -97 14 -83 7 10
17 14 21 10 4 -4 5 18 2 48 -4 30 -11 56 -17 58 -13 5 -13 32 1 32 5 0 7 -4 4
-10 -3 -5 1 -10 9 -10 11 0 16 9 16 26 0 21 -4 25 -20 21 -19 -5 -20 0 -20 70
0 47 4 72 10 68 6 -3 10 3 10 15 0 12 -4 19 -9 16 -5 -3 -11 1 -14 9 -4 9 -1
12 8 8 12 -4 14 2 9 28 -3 19 -7 40 -10 47 -2 6 -2 12 0 12 3 0 10 2 18 5 10
4 13 -13 13 -77 0 -46 -4 -89 -8 -95 -5 -8 -4 -13 3 -13 8 0 9 -11 5 -31 -5
-20 -3 -34 4 -39 7 -4 11 -29 11 -61 -2 -68 -1 -118 4 -144 2 -11 0 -24 -4
-30 -5 -5 -10 -21 -13 -35 -4 -25 -4 -25 -12 -3 -4 13 -11 21 -15 18 -5 -3
-12 4 -15 16 -4 11 -9 18 -12 15 -3 -2 -18 7 -34 22 -24 21 -28 31 -24 56 18
96 7 383 -19 521 -11 58 -17 241 -7 220 5 -11 10 -54 11 -95z m30 25 c0 -14
-4 -25 -10 -25 -11 0 -14 33 -3 43 11 11 13 8 13 -18z m-2282 -40 c0 -14 -4
-28 -9 -31 -5 -3 -9 9 -9 25 0 17 4 31 9 31 5 0 9 -11 9 -25z m239 -37 c-3 -8
-6 -5 -6 6 -1 11 2 17 5 13 3 -3 4 -12 1 -19z m2150 -40 c-3 -7 -5 -2 -5 12 0
14 2 19 5 13 2 -7 2 -19 0 -25z m-50 -70 c-3 -7 -5 -2 -5 12 0 14 2 19 5 13 2
-7 2 -19 0 -25z m-2461 -75 c-11 -29 -17 -6 -9 33 7 36 8 37 11 11 2 -16 1
-36 -2 -44z m491 15 c-2 -13 -4 -5 -4 17 -1 22 1 32 4 23 2 -10 2 -28 0 -40z
m-40 0 c-3 -7 -5 -2 -5 12 0 14 2 19 5 13 2 -7 2 -19 0 -25z m1218 13 c-3 -6
1 -13 9 -18 9 -5 -6 -8 -37 -7 -81 1 -68 17 26 33 5 0 6 -3 2 -8z m80 -11 c3
-6 -1 -7 -9 -4 -18 7 -21 14 -7 14 6 0 13 -4 16 -10z m-637 -22 c-4 -12 -8
-14 -44 -17 -8 0 -29 -14 -45 -30 -16 -16 -29 -24 -29 -17 0 6 5 17 12 24 9 9
6 14 -13 22 -22 9 -21 10 10 5 19 -3 39 -1 45 4 10 8 36 17 59 20 5 0 7 -5 5
-11z m182 6 c0 -2 -4 -14 -10 -28 -11 -29 -27 -33 -55 -12 -28 21 -13 44 29
43 20 -1 36 -2 36 -3z m243 -4 c8 0 8 -3 0 -11 -13 -13 -43 -5 -43 12 0 6 7 8
16 5 9 -3 21 -6 27 -6z m-775 -19 c2 -1 -8 -15 -22 -32 -19 -22 -26 -42 -26
-74 0 -39 -2 -42 -25 -42 -20 0 -25 5 -25 23 0 13 4 24 9 24 14 0 41 48 36 62
-3 8 -16 20 -30 28 -23 14 -22 15 28 13 29 0 54 -2 55 -2z m422 -6 c0 -18 -46
-42 -58 -31 -7 8 33 46 49 46 5 0 9 -7 9 -15z m260 5 c0 -5 -9 -10 -21 -10
-11 0 -17 5 -14 10 3 6 13 10 21 10 8 0 14 -4 14 -10z m1137 -57 c-2 -16 -4
-5 -4 22 0 28 2 40 4 28 2 -13 2 -35 0 -50z m-1697 42 c9 -11 22 -14 49 -9
l36 7 -25 -26 c-21 -23 -27 -24 -36 -12 -12 17 -45 20 -60 6 -12 -11 -76 -2
-68 11 3 5 14 6 23 3 11 -3 25 3 36 15 22 24 29 25 45 5z m-433 -47 c-2 -13
-4 -5 -4 17 -1 22 1 32 4 23 2 -10 2 -28 0 -40z m937 44 c-6 -4 -16 -17 -23
-29 -13 -25 -71 -60 -71 -43 0 5 5 10 11 10 7 0 9 9 6 22 -8 30 5 43 49 45 21
1 34 -1 28 -5z m104 -39 c8 -25 8 -34 -4 -44 -11 -9 -14 -8 -14 8 0 10 -5 24
-11 30 -6 6 -8 21 -4 33 8 26 18 18 33 -27z m-893 -70 c-2 -7 -9 -13 -15 -13
-12 0 -13 43 -3 91 7 34 7 34 15 -16 4 -27 6 -56 3 -62z m1046 74 c7 -28 3
-37 -18 -37 -8 0 -13 13 -13 36 0 41 20 43 31 1z m-987 4 c-10 -10 -21 -17
-23 -15 -6 6 20 34 32 34 6 0 2 -8 -9 -19z m434 -3 c13 -13 17 -58 5 -58 -21
1 -53 37 -47 53 7 20 25 22 42 5z m-884 -348 c-3 -129 -9 -251 -13 -270 -7
-27 -9 -11 -9 65 0 55 -1 105 -3 110 -1 6 1 109 6 230 12 293 25 196 19 -135z
m2323 313 c-3 -10 -5 -4 -5 12 0 17 2 24 5 18 2 -7 2 -21 0 -30z m-1304 12 c4
-8 2 -17 -3 -20 -6 -4 -10 -4 -10 -1 0 2 -3 11 -6 20 -3 9 -2 16 4 16 5 0 12
-7 15 -15z m1667 -6 c0 -6 -4 -7 -10 -4 -5 3 -10 11 -10 16 0 6 5 7 10 4 6 -3
10 -11 10 -16z m-2021 -33 c-9 -8 -10 -7 -5 7 3 10 7 24 7 30 1 7 3 4 6 -7 3
-10 -1 -23 -8 -30z m1910 2 c1 -5 -3 -8 -9 -8 -5 0 -10 12 -9 28 0 24 1 25 9
7 5 -11 9 -23 9 -27z m-1985 17 c-4 -8 -8 -15 -10 -15 -2 0 -4 7 -4 15 0 8 4
15 10 15 5 0 7 -7 4 -15z m186 5 c0 -5 -9 -10 -21 -10 -11 0 -17 5 -14 10 3 6
13 10 21 10 8 0 14 -4 14 -10z m955 -38 c-7 -8 -43 9 -48 23 -5 10 1 10 23 -3
16 -9 27 -18 25 -20z m652 -44 c-2 -18 -4 -6 -4 27 0 33 2 48 4 33 2 -15 2
-42 0 -60z m-1201 57 c-11 -8 -22 -12 -25 -9 -6 6 19 24 34 24 6 -1 1 -7 -9
-15z m-1339 -42 c-3 -10 -5 -2 -5 17 0 19 2 27 5 18 2 -10 2 -26 0 -35z m695
-115 c-6 -6 -9 18 -7 64 3 105 8 115 12 24 2 -44 0 -83 -5 -88z m916 130 c-6
-18 -28 -21 -28 -4 0 9 7 16 16 16 9 0 14 -5 12 -12z m-1158 -43 c0 -17 -2
-17 -10 -5 -5 8 -10 24 -10 35 0 17 2 17 10 5 5 -8 10 -24 10 -35z m363 30 c4
-8 2 -17 -3 -20 -6 -4 -10 3 -10 14 0 25 6 27 13 6z m1914 -22 c-3 -10 -5 -4
-5 12 0 17 2 24 5 18 2 -7 2 -21 0 -30z m-2803 -58 l5 -70 -14 60 c-16 71 -19
103 -6 90 5 -6 11 -41 15 -80z m577 23 c2 -26 0 -50 -4 -54 -4 -4 -7 -17 -8
-28 0 -21 0 -21 -8 -1 -9 26 -1 150 9 139 5 -5 10 -30 11 -56z m493 32 c-16
-26 -44 -48 -44 -34 0 12 42 64 51 64 6 0 2 -13 -7 -30z m94 10 c-7 -10 -14
-18 -15 -16 -6 6 9 36 18 36 5 0 4 -9 -3 -20z m732 -25 c0 -14 -5 -25 -11 -25
-6 0 -9 7 -5 15 3 8 -1 21 -9 29 -21 21 -18 29 5 16 12 -6 20 -21 20 -35z
m130 30 c7 -8 8 -15 2 -15 -5 0 -15 7 -22 15 -7 8 -8 15 -2 15 5 0 15 -7 22
-15z m-266 -11 c10 -25 7 -34 -9 -28 -8 4 -15 15 -15 25 0 23 16 25 24 3z
m1236 -31 c-1 -31 -3 -35 -11 -20 -6 9 -7 26 -4 37 10 30 15 24 15 -17z
m-2320 -4 c0 -5 -4 -9 -10 -9 -5 0 -10 7 -10 16 0 8 5 12 10 9 6 -3 10 -10 10
-16z m680 4 c0 -28 -16 -45 -36 -41 -28 5 -30 36 -2 47 33 14 38 13 38 -6z
m460 13 c0 -3 -4 -8 -10 -11 -5 -3 -10 -1 -10 4 0 6 5 11 10 11 6 0 10 -2 10
-4z m747 -43 c-3 -10 -5 -2 -5 17 0 19 2 27 5 18 2 -10 2 -26 0 -35z m-527 27
c0 -5 -2 -10 -4 -10 -3 0 -8 5 -11 10 -3 6 -1 10 4 10 6 0 11 -4 11 -10z
m-1200 -29 c0 -17 -4 -33 -10 -36 -6 -4 -10 8 -10 29 0 20 5 36 10 36 6 0 10
-13 10 -29z m270 19 c0 -6 12 -8 28 -5 26 6 26 6 7 -10 -11 -8 -26 -13 -33
-10 -8 3 -21 5 -29 5 -13 0 -13 3 -3 15 14 17 30 20 30 5z m356 -1 c8 -14 -14
-29 -33 -22 -10 4 -11 9 -2 19 14 17 25 18 35 3z m364 -19 c-8 -5 -17 -7 -19
-4 -3 3 1 9 9 14 8 5 17 7 19 4 3 -3 -1 -9 -9 -14z m915 -158 c-2 -148 1 -171
26 -172 3 0 4 57 2 128 -8 209 23 112 36 -113 2 -41 8 -128 10 -142 0 -6 9
-13 18 -15 12 -2 17 -15 18 -50 2 -27 -1 -48 -6 -48 -5 0 -9 -7 -9 -15 0 -8 5
-15 10 -15 6 0 10 -32 10 -76 0 -71 -1 -76 -19 -71 -15 4 -22 -2 -30 -26 -6
-16 -11 -34 -11 -39 0 -12 24 12 33 32 4 8 4 -3 1 -25 -3 -22 -10 -41 -15 -43
-5 -2 -9 -33 -9 -68 0 -39 -4 -64 -11 -64 -7 0 -8 14 -4 40 4 25 3 40 -4 40
-5 0 -11 -19 -13 -43 -3 -41 -4 -42 -36 -40 -44 2 -45 4 -33 49 8 30 8 40 -3
46 -22 12 -12 95 14 123 13 13 17 25 12 29 -6 3 -21 -8 -33 -25 -19 -27 -23
-46 -24 -123 -1 -50 -3 -94 -4 -98 0 -4 -54 -6 -118 -4 -65 3 -131 5 -147 5
-25 0 -28 4 -22 23 3 13 9 58 12 101 7 75 14 91 31 65 4 -7 17 -18 28 -24 17
-10 20 -20 18 -70 -2 -42 0 -53 6 -39 5 11 10 37 10 58 1 27 5 37 17 37 13 0
15 -10 10 -57 -5 -53 -4 -54 4 -15 12 56 16 61 48 60 15 -1 34 2 43 6 13 6 15
1 11 -23 -2 -18 -9 -28 -15 -24 -6 4 -8 -2 -4 -18 4 -13 7 -30 7 -36 0 -7 5
-13 10 -13 6 0 10 16 10 35 0 21 6 38 14 41 10 4 13 22 12 70 -2 47 1 64 11
64 10 0 13 21 13 79 0 69 3 80 19 86 10 3 26 14 36 25 16 17 16 21 1 42 -10
15 -16 17 -16 8 0 -8 -12 -20 -26 -27 l-27 -12 6 49 c3 28 2 50 -2 50 -15 0
-23 133 -16 235 8 99 24 133 21 45 0 -28 2 -50 7 -50 4 0 7 -25 6 -56 -2 -39
2 -59 12 -65 19 -12 35 -5 30 12 -3 8 -4 52 -3 99 1 47 1 121 2 165 0 46 4 74
9 67 4 -7 7 -84 6 -170z m-2668 146 c-3 -8 -6 -5 -6 6 -1 11 2 17 5 13 3 -3 4
-12 1 -19z m1183 6 c0 -8 -5 -12 -10 -9 -6 4 -8 11 -5 16 9 14 15 11 15 -7z
m820 6 c0 -5 -2 -10 -4 -10 -3 0 -8 5 -11 10 -3 6 -1 10 4 10 6 0 11 -4 11
-10z m55 0 c3 -6 -1 -7 -9 -4 -18 7 -21 14 -7 14 6 0 13 -4 16 -10z m-1606
-66 c-1 -36 -5 -80 -10 -98 -4 -18 -6 7 -4 64 4 109 3 100 10 100 3 0 5 -30 4
-66z m450 56 c17 -8 15 -13 -18 -49 -27 -30 -38 -36 -44 -26 -4 8 -15 11 -24
8 -13 -5 -15 -2 -10 11 4 10 7 20 7 22 0 2 14 4 31 4 23 0 30 4 26 14 -10 24
4 31 32 16z m-480 -88 c0 -48 -4 -94 -9 -102 -7 -11 -10 0 -10 35 0 52 11 155
16 155 2 0 3 -39 3 -88z m1701 15 c0 -11 -73 38 -78 52 -2 7 14 0 37 -16 22
-15 40 -31 41 -36z m367 41 c-3 -8 -6 -5 -6 6 -1 11 2 17 5 13 3 -3 4 -12 1
-19z m-743 -3 c-4 -8 -8 -15 -10 -15 -2 0 -4 7 -4 15 0 8 4 15 10 15 5 0 7 -7
4 -15z m816 -35 c0 -20 -2 -22 -10 -10 -5 8 -10 26 -10 40 0 20 2 22 10 10 5
-8 10 -26 10 -40z m-2040 3 c-11 -17 -11 -17 -6 0 3 10 6 24 7 30 0 9 2 9 5 0
3 -7 0 -20 -6 -30z m525 27 c3 -5 18 -10 33 -10 15 0 33 -4 41 -9 11 -7 9 -10
-8 -16 -37 -11 -24 -27 17 -20 29 5 42 2 52 -10 12 -15 12 -19 -4 -31 -13 -9
-24 -10 -37 -4 -10 6 -26 10 -37 10 -13 0 -22 9 -26 25 -10 41 -45 51 -114 31
-73 -20 -78 -20 -61 1 29 35 129 58 144 33z m592 -10 c7 -27 23 -25 24 3 l0
22 10 -24 c11 -28 -7 -59 -25 -41 -5 5 -18 10 -28 10 -13 0 -18 8 -18 25 0 31
29 34 37 5z m-252 -10 c15 -16 15 -21 3 -33 -39 -39 -78 -40 -78 -2 0 56 39
75 75 35z m1512 -47 c-2 -16 -4 -5 -4 22 0 28 2 40 4 28 2 -13 2 -35 0 -50z
m-865 22 c3 -14 2 -25 -2 -25 -9 0 -20 25 -20 46 0 23 17 7 22 -21z m-2095
-12 c-3 -10 -5 -4 -5 12 0 17 2 24 5 18 2 -7 2 -21 0 -30z m1343 -19 c0 -22
-1 -22 -30 -8 -35 18 -36 21 -13 46 16 18 18 18 30 2 7 -10 13 -28 13 -40z
m231 -47 c-8 -8 -11 0 -11 26 0 21 -5 37 -11 37 -6 0 -9 -8 -7 -18 4 -15 -1
-19 -23 -19 -24 0 -29 5 -29 24 0 16 6 23 19 23 10 0 24 7 32 16 11 14 15 10
27 -31 9 -34 10 -51 3 -58z m-1412 -9 c-1 -65 -4 -84 -9 -63 -14 56 -10 155 6
155 2 0 3 -42 3 -92z m661 65 c0 -20 -3 -24 -11 -16 -7 7 -9 19 -6 27 10 24
17 19 17 -11z m76 -13 c32 -12 30 -26 -3 -33 -34 -6 -34 -7 -38 39 -3 30 -1
35 7 21 5 -10 21 -22 34 -27z m-540 -47 c-1 -69 -2 -74 -10 -40 -5 20 -13 37
-18 37 -4 0 -8 10 -8 23 0 16 3 18 9 8 6 -9 11 -10 15 -2 4 6 4 16 1 21 -5 9
1 30 9 30 2 0 3 -35 2 -77z m1424 73 c0 -3 -4 -8 -10 -11 -5 -3 -10 -1 -10 4
0 6 5 11 10 11 6 0 10 -2 10 -4z m-685 -16 c12 -20 -15 -50 -45 -50 -37 0 -70
-31 -70 -66 0 -16 -10 -34 -25 -45 -27 -22 -25 -40 8 -76 22 -24 66 -30 84
-12 12 12 29 -25 38 -87 7 -49 61 -114 94 -114 23 0 26 -7 11 -30 -9 -13 -12
-13 -21 3 -14 24 -67 50 -90 44 -23 -6 -36 10 -20 26 15 15 14 42 -3 56 -8 7
-12 20 -9 30 3 12 0 19 -9 18 -7 0 -34 1 -60 1 -44 2 -48 4 -48 27 0 30 -32
49 -67 40 -22 -5 -24 -3 -21 22 2 21 9 29 28 31 53 6 56 11 22 43 -18 17 -32
34 -32 40 0 16 29 22 46 9 17 -15 29 -7 48 32 7 14 22 24 39 26 15 2 32 12 37
23 11 20 54 26 65 9z m765 -6 c0 -8 6 -14 13 -15 6 0 2 -5 -9 -11 -17 -8 -26
-6 -43 8 -28 25 -27 31 9 32 20 0 30 -4 30 -14z m-1150 -97 c4 -36 11 -71 15
-78 6 -8 4 -10 -6 -4 -36 21 -48 38 -39 54 11 21 3 33 -29 47 l-24 10 29 27
c16 15 32 23 37 18 5 -5 12 -38 17 -74z m1196 58 c-6 -33 -15 -47 -27 -40 -5
4 -2 19 6 36 19 36 27 37 21 4z m211 10 c8 -22 -6 -33 -17 -15 -13 20 -12 30
0 30 6 0 13 -7 17 -15z m-667 -10 c-9 -11 -10 -18 -1 -29 9 -11 7 -15 -9 -19
-13 -3 -20 0 -20 8 0 7 -3 20 -6 28 -4 11 2 17 18 20 13 2 25 5 27 6 2 0 -2
-6 -9 -14z m764 0 c3 -9 0 -15 -8 -15 -8 0 -16 7 -20 15 -3 9 0 15 8 15 8 0
16 -7 20 -15z m-909 -5 c3 -5 1 -10 -4 -10 -6 0 -11 -8 -11 -18 0 -13 -13 -23
-42 -32 -24 -8 -49 -18 -55 -23 -14 -10 -21 2 -25 43 -3 21 1 25 22 22 14 -2
41 4 60 12 42 18 47 19 55 6z m470 -10 c15 -17 16 -23 6 -33 -10 -9 -15 -9
-18 -1 -2 7 -12 10 -22 7 -15 -4 -18 0 -14 21 6 31 23 33 48 6z m-653 -25 c-3
-17 -9 -24 -18 -21 -8 3 -30 -4 -49 -15 l-35 -21 0 20 c0 26 8 31 54 34 27 2
36 7 36 21 0 10 4 16 9 13 4 -3 6 -17 3 -31z m252 -41 c-4 -23 -2 -34 6 -34 6
0 10 -5 8 -12 -5 -14 -33 -15 -61 -3 -27 11 -67 -3 -76 -28 -9 -23 4 -51 43
-94 l19 -23 -20 0 c-12 0 -23 -6 -26 -12 -2 -7 -6 -11 -9 -8 -17 20 -68 89
-68 93 0 3 9 3 20 0 17 -4 20 0 20 24 0 16 -5 34 -11 40 -9 9 -2 16 26 27 20
9 40 14 44 12 13 -8 34 12 38 35 2 13 11 31 20 42 17 18 17 18 25 -4 5 -12 6
-37 2 -55z m-544 56 c0 -12 -28 -25 -36 -17 -9 9 6 27 22 27 8 0 14 -5 14 -10z
m1465 0 c11 -17 -5 -32 -21 -19 -8 6 -14 15 -14 20 0 12 27 11 35 -1z m75 -6
c0 -8 -4 -12 -10 -9 -5 3 -10 10 -10 16 0 5 5 9 10 9 6 0 10 -7 10 -16z
m-1610 -31 c0 -26 -3 -34 -11 -26 -9 9 -3 63 7 63 2 0 4 -17 4 -37z m747 5
c-3 -7 -5 -2 -5 12 0 14 2 19 5 13 2 -7 2 -19 0 -25z m336 -10 c-2 -5 -8 -8
-14 -8 -11 0 -12 33 -2 44 8 8 23 -25 16 -36z m132 12 c-5 -14 -2 -20 9 -20 9
0 16 -4 16 -10 0 -5 14 -17 31 -25 17 -9 28 -19 25 -22 -3 -3 -12 -1 -19 5 -7
6 -38 14 -69 18 -48 6 -55 9 -51 25 3 11 11 19 18 19 7 0 18 7 25 15 17 21 23
19 15 -5z m500 -95 c0 -18 -3 -31 -7 -28 -5 2 -8 13 -8 24 0 10 -4 19 -10 19
-5 0 -10 7 -10 16 0 10 -6 14 -15 10 -9 -3 -15 0 -15 8 0 7 -7 19 -15 26 -8 7
-15 19 -15 27 0 9 18 -1 48 -27 38 -34 47 -48 47 -75z m-258 83 c-3 -8 -6 -5
-6 6 -1 11 2 17 5 13 3 -3 4 -12 1 -19z m-1817 -8 c0 -11 -4 -20 -10 -20 -5 0
-10 -8 -11 -17 0 -12 -2 -13 -6 -5 -7 18 5 62 17 62 6 0 10 -9 10 -20z m-101
-57 c-3 -38 -3 -72 0 -78 3 -5 3 -37 0 -70 -3 -33 -6 -54 -7 -47 -1 7 -7 10
-12 7 -11 -7 -3 -54 11 -70 5 -5 9 -14 9 -21 0 -15 -40 -6 -41 10 0 6 -2 22
-4 36 -2 14 3 48 10 75 8 28 16 85 18 127 4 65 11 98 20 98 1 0 0 -30 -4 -67z
m1421 51 c0 -8 -5 -12 -10 -9 -6 4 -8 11 -5 16 9 14 15 11 15 -7z m-1150 -41
c0 -12 -5 -33 -11 -47 -10 -21 -18 -25 -50 -23 -27 1 -39 6 -42 19 -3 10 -1
16 3 13 5 -3 11 1 13 7 3 8 6 6 6 -4 2 -30 21 -20 21 10 0 35 38 81 51 60 5
-7 9 -23 9 -35z m265 36 c4 -6 -2 -19 -14 -30 -29 -27 -26 -59 10 -109 27 -38
29 -45 19 -70 -12 -30 -34 -38 -82 -31 -37 4 -35 24 2 51 37 26 35 40 -9 60
l-32 16 27 39 c15 22 22 41 16 43 -15 5 19 40 40 41 9 1 20 -4 23 -10z m1692
-11 c-3 -8 -6 -5 -6 6 -1 11 2 17 5 13 3 -3 4 -12 1 -19z m-1033 -3 c3 -8 -2
-22 -11 -30 -14 -15 -17 -14 -29 11 -18 34 -18 34 10 34 13 0 26 -7 30 -15z
m829 0 c4 -8 2 -17 -3 -20 -6 -4 -10 3 -10 14 0 25 6 27 13 6z m48 -2 c13 -16
12 -17 -3 -4 -17 13 -22 21 -14 21 2 0 10 -8 17 -17z m461 -11 c3 -9 1 -26 -3
-37 -6 -15 -8 -11 -8 18 -1 40 4 48 11 19z m-1682 -32 c6 0 6 -10 0 -25 -12
-32 -5 -49 42 -98 21 -22 38 -44 38 -48 0 -13 40 -21 53 -12 15 11 79 30 129
38 38 6 38 6 26 -20 -9 -20 -18 -25 -48 -25 -27 0 -42 -7 -60 -27 -20 -23 -24
-24 -34 -11 -17 23 -38 26 -74 11 -24 -10 -38 -11 -53 -2 -26 13 -52 74 -44
100 4 13 1 25 -8 32 -16 13 -32 109 -20 120 3 4 15 -2 25 -13 10 -11 23 -20
28 -20z m1402 18 c-7 -7 -12 -8 -12 -2 0 14 12 26 19 19 2 -3 -1 -11 -7 -17z
m-2402 -13 c0 -8 -4 -17 -10 -20 -6 -4 -10 5 -10 20 0 15 4 24 10 20 6 -3 10
-12 10 -20z m1477 -22 c-3 -10 -5 -2 -5 17 0 19 2 27 5 18 2 -10 2 -26 0 -35z
m1281 17 c-1 -16 -6 -30 -10 -30 -5 0 -7 12 -4 28 5 33 5 32 11 32 3 0 4 -13
3 -30z m-306 -55 c3 -46 9 -69 16 -67 13 2 13 0 14 -75 1 -36 -3 -49 -15 -51
-13 -3 -15 5 -10 52 7 65 -11 78 -21 16 -11 -73 -41 -45 -42 40 0 30 -4 65 -8
77 -6 18 -4 21 14 16 15 -4 20 -14 20 -41 0 -43 14 -34 15 11 5 121 11 129 17
22z m-1569 58 c11 -10 -13 -33 -34 -33 -18 0 -26 20 -12 33 8 9 38 9 46 0z
m767 -8 c0 -8 9 -19 20 -25 19 -10 23 -9 18 8 -3 6 93 22 100 16 14 -10 -25
-42 -71 -58 -54 -18 -117 -16 -117 5 0 5 -7 9 -15 9 -13 0 -11 6 7 30 23 31
58 41 58 15z m710 3 c0 -7 -5 -20 -10 -28 -8 -12 -10 -9 -10 13 0 15 5 27 10
27 6 0 10 -6 10 -12z m-1821 -49 c-8 -16 -5 -21 16 -31 28 -13 30 -19 13 -36
-9 -9 -17 -7 -35 10 -17 16 -23 32 -23 66 0 44 0 45 20 27 15 -13 17 -22 9
-36z m783 31 c10 0 18 -5 18 -12 0 -16 -41 -58 -57 -58 -7 0 -13 -4 -13 -9 0
-10 -39 -26 -46 -18 -6 6 28 79 46 99 9 10 19 13 25 7 5 -5 17 -9 27 -9z
m-1365 -285 c-4 -162 -3 -295 2 -295 8 0 22 72 22 113 0 9 4 17 10 17 5 0 9
-14 9 -31 0 -17 4 -28 10 -24 5 3 10 28 10 54 0 27 3 68 6 93 5 38 10 45 28
44 24 -1 34 -39 16 -61 -20 -24 4 -52 38 -47 27 4 29 2 25 -21 -4 -18 0 -26
16 -30 18 -4 21 -1 21 25 0 19 10 40 27 59 34 35 43 36 43 4 0 -27 40 -91 70
-112 11 -8 17 -19 14 -25 -4 -6 -3 -8 3 -5 23 14 41 -27 36 -80 -5 -52 -6 -53
-38 -53 -27 0 -32 4 -32 22 -1 103 -4 138 -13 138 -6 0 -10 -33 -10 -80 0 -44
-4 -80 -8 -80 -4 0 -7 37 -6 83 2 92 -10 78 -20 -25 -7 -67 -8 -68 -37 -68
-16 0 -29 5 -29 12 0 7 -7 5 -18 -5 -21 -19 -129 -36 -118 -19 13 22 13 81 -1
86 -7 3 -13 1 -13 -4 0 -6 -11 -10 -24 -10 -15 0 -26 -7 -29 -20 -10 -39 -25
-19 -31 43 -10 113 -8 350 5 475 7 67 15 122 17 122 3 0 2 -133 -1 -295z
m1213 286 c0 -5 9 -13 20 -16 24 -8 26 -28 5 -45 -13 -11 -19 -9 -35 8 -20 21
-25 43 -13 55 9 10 23 8 23 -2z m1007 -23 c-3 -8 -6 -5 -6 6 -1 11 2 17 5 13
3 -3 4 -12 1 -19z m-171 -33 c-4 -19 -11 -35 -16 -35 -14 0 -12 21 2 52 17 35
22 28 14 -17z m684 19 c0 -14 -4 -23 -9 -20 -5 3 -7 15 -4 26 7 28 13 25 13
-6z m-2671 -114 c0 -67 -4 -120 -10 -120 -5 0 -9 23 -9 50 0 33 -4 50 -12 50
-9 0 -9 3 1 9 12 8 12 12 2 25 -8 9 -9 16 -3 16 5 0 13 20 16 45 4 25 9 45 12
45 2 0 4 -54 3 -120z m181 113 c-1 -5 -7 -19 -15 -33 -10 -18 -14 -20 -15 -8
0 23 11 48 21 48 5 0 9 -3 9 -7z m1870 -3 c13 -8 12 -11 -5 -24 -27 -20 -35
-20 -35 2 0 31 14 39 40 22z m-223 -22 c-3 -8 -6 -5 -6 6 -1 11 2 17 5 13 3
-3 4 -12 1 -19z m-1750 -10 c-3 -8 -6 -5 -6 6 -1 11 2 17 5 13 3 -3 4 -12 1
-19z m146 -63 c-1 -57 -6 -81 -16 -87 -8 -4 -18 -24 -21 -43 -4 -21 -13 -35
-21 -35 -9 0 -15 -9 -15 -22 0 -12 -3 -19 -6 -15 -10 10 6 78 17 72 9 -6 13 1
23 48 5 23 3 27 -14 27 -17 0 -21 5 -18 28 2 19 8 27 21 26 11 -1 18 6 19 20
0 11 2 26 3 31 2 6 3 16 4 23 0 8 7 12 14 9 8 -3 11 -27 10 -82z m1642 75 c3
-5 -1 -10 -9 -10 -9 0 -16 5 -16 10 0 6 4 10 9 10 6 0 13 -4 16 -10z m321 -27
c-11 -11 -17 4 -9 23 7 18 8 18 11 1 2 -10 1 -21 -2 -24z m173 5 c-2 -50 -15
-96 -22 -78 -11 28 -13 100 -2 104 21 9 25 5 24 -26z m410 -102 c-9 -8 -10 -2
-5 29 3 22 7 56 8 75 1 19 3 6 5 -29 3 -41 0 -68 -8 -75z m-2862 102 c-3 -8
-6 -5 -6 6 -1 11 2 17 5 13 3 -3 4 -12 1 -19z m424 12 c10 -6 19 -18 19 -27 0
-28 70 -73 70 -45 1 32 50 37 50 5 0 -13 3 -13 15 -3 13 10 15 9 15 -9 0 -11
6 -21 14 -21 24 0 27 -31 7 -63 -18 -28 -19 -29 -26 -8 -3 12 -18 24 -33 28
-15 3 -38 14 -51 25 -36 28 -85 24 -110 -9 -20 -27 -20 -27 -21 -5 0 12 7 25
15 28 17 7 20 40 5 49 -17 11 -11 65 7 65 3 0 13 -5 24 -10z m1446 4 c-3 -3
-12 -4 -19 -1 -8 3 -5 6 6 6 11 1 17 -2 13 -5z m-417 -24 c0 -5 -6 -10 -14
-10 -8 0 -18 5 -21 10 -3 6 3 10 14 10 12 0 21 -4 21 -10z m950 -17 c0 -19 -3
-24 -10 -17 -6 6 -8 18 -4 27 9 24 14 21 14 -10z m-440 2 c0 -8 -4 -15 -10
-15 -5 0 -10 7 -10 15 0 8 5 15 10 15 6 0 10 -7 10 -15z m80 -17 c0 -11 11
-33 25 -50 30 -35 31 -48 6 -48 -11 0 -27 -3 -37 -7 -15 -6 -16 -1 -11 40 4
28 3 47 -3 47 -8 0 -8 17 -1 48 3 12 21 -13 21 -30z m-1200 -13 c0 -3 -9 -5
-20 -5 -11 0 -20 7 -20 15 0 13 4 14 20 5 11 -6 20 -13 20 -15z m820 15 c0
-13 -11 -13 -30 0 -12 8 -11 10 8 10 12 0 22 -4 22 -10z m486 -6 c-3 -9 -6
-24 -6 -35 0 -24 -15 -24 -42 0 -28 27 -17 51 23 51 24 0 30 -3 25 -16z m-406
-24 c0 -19 44 -72 68 -81 27 -11 29 -45 2 -52 -28 -7 -25 -39 5 -67 14 -13 25
-29 25 -36 0 -7 5 -14 11 -16 18 -6 1 -43 -26 -58 -33 -18 -53 -2 -34 27 16
27 4 69 -22 76 -17 5 -20 11 -15 31 8 33 -16 91 -44 106 -35 19 -82 4 -102
-30 -18 -32 -38 -40 -38 -16 0 8 -7 21 -14 29 -21 21 -6 71 22 75 17 3 22 -2
22 -19 0 -19 4 -21 33 -15 17 3 40 17 50 31 19 25 57 35 57 15z m457 -6 c-3
-3 -12 -4 -19 -1 -8 3 -5 6 6 6 11 1 17 -2 13 -5z m644 -110 c6 -7 6 -20 0
-35 -7 -18 -10 -20 -10 -6 -1 10 -12 22 -25 27 -22 8 -23 12 -15 56 5 26 15
54 21 62 11 13 14 6 16 -39 2 -29 7 -59 13 -65z m-2721 69 c0 -24 -3 -33 -9
-25 -7 12 -4 62 5 62 2 0 4 -17 4 -37z m784 11 c26 -26 30 -42 26 -96 -1 -15
8 -41 19 -57 25 -34 27 -49 6 -31 -12 10 -21 10 -41 1 -59 -27 -74 5 -24 52
47 45 41 62 -23 57 -18 -1 -34 6 -47 22 l-19 23 -21 -22 c-18 -20 -50 -32 -50
-19 0 2 15 21 33 41 53 61 99 70 141 29z m41 16 c3 -5 1 -10 -4 -10 -6 0 -11
5 -11 10 0 6 2 10 4 10 3 0 8 -4 11 -10z m935 -4 c0 -9 -7 -12 -20 -9 -11 3
-20 0 -20 -6 0 -6 -4 -11 -10 -11 -17 0 -11 28 8 33 32 9 42 7 42 -7z m-1520
-22 c0 -8 -5 -12 -10 -9 -6 4 -8 11 -5 16 9 14 15 11 15 -7z m1930 -38 c0 -14
-18 -5 -24 12 -3 9 -9 24 -12 32 -4 8 3 3 15 -12 11 -14 21 -29 21 -32z
m-1613 22 c-3 -12 -1 -30 4 -41 10 -17 8 -18 -13 -12 -31 10 -31 8 -11 44 21
36 28 40 20 9z m1552 -13 c16 -15 7 -51 -16 -59 -9 -4 -38 1 -65 10 -40 13
-47 18 -37 30 6 8 18 14 25 14 8 0 14 9 14 19 0 18 3 19 33 9 17 -6 38 -16 46
-23z m-872 -8 c-9 -14 -28 -28 -44 -32 -40 -10 -58 -26 -41 -36 24 -15 -33
-60 -83 -66 l-44 -5 34 30 c35 30 35 52 0 52 -10 0 -19 6 -19 14 0 8 -3 21 -6
29 -8 21 24 29 49 12 29 -20 53 -19 86 4 23 17 70 31 80 24 2 -1 -3 -13 -12
-26z m108 14 c29 -17 41 -50 20 -52 -13 -1 -65 -28 -65 -34 0 -2 5 -15 11 -27
7 -18 7 -30 -4 -50 l-14 -27 -15 33 c-20 42 -16 131 8 157 20 22 21 22 59 0z
m-1308 -25 c1 -21 -4 -37 -13 -40 -16 -6 -17 -1 -8 43 9 41 20 40 21 -3z m304
20 c12 14 14 14 21 -6 7 -19 14 -21 38 -16 37 7 40 -11 4 -20 -17 -4 -29 -2
-34 6 -4 7 -17 10 -29 7 -14 -3 -24 1 -31 13 -14 27 -12 38 4 17 12 -16 15
-16 27 -1z m-392 -66 c2 8 6 3 11 -12 4 -15 5 -42 1 -60 -4 -18 -7 -41 -5 -51
1 -9 -4 -17 -12 -17 -11 0 -14 21 -12 108 1 81 3 96 8 62 4 -25 8 -38 9 -30z
m2281 -12 c0 -27 -5 -48 -10 -48 -13 0 -17 13 -23 72 -4 43 -3 46 14 35 14 -9
19 -24 19 -59z m-1973 25 c-3 -10 -5 -4 -5 12 0 17 2 24 5 18 2 -7 2 -21 0
-30z m1605 -21 l6 -22 -24 22 c-13 13 -24 32 -24 42 0 20 0 19 18 0 10 -11 21
-29 24 -42z m-1660 19 c-2 -16 1 -32 7 -35 6 -4 11 -12 11 -17 0 -6 -4 -8 -9
-5 -5 4 -11 0 -14 -6 -7 -21 -19 50 -12 72 10 30 22 24 17 -9z m737 -3 c34
-28 40 -38 36 -61 -5 -32 -55 -80 -69 -67 -6 6 0 17 14 28 l24 19 -22 12 c-12
6 -33 22 -47 35 -22 21 -25 28 -15 45 15 29 31 26 79 -11z m639 20 c18 -18 15
-28 -8 -28 -16 0 -20 -7 -20 -30 0 -24 6 -32 34 -44 18 -8 36 -18 39 -23 10
-15 -4 -53 -19 -53 -8 0 -23 -9 -35 -21 -23 -23 -52 -22 -57 3 -2 11 5 18 20
20 34 4 36 47 4 81 -14 15 -32 27 -41 27 -22 0 -19 9 18 46 35 37 47 40 65 22z
m-1275 -34 c-27 -20 -34 -17 -21 11 9 19 14 22 25 14 11 -10 10 -14 -4 -25z
m1967 -18 c0 -30 -4 -57 -9 -60 -11 -7 -19 44 -13 84 7 50 22 34 22 -24z
m-2176 -3 c-6 -50 -14 -70 -14 -37 -1 17 -2 18 -13 2 -11 -14 -13 -10 -14 25
0 23 2 34 4 25 7 -27 23 -22 23 7 0 14 5 25 10 25 6 0 8 -19 4 -47z m2220 14
c-2 -12 -6 -44 -10 -72 -9 -70 -23 -36 -17 42 4 43 9 60 18 57 6 -3 11 -15 9
-27z m131 -10 c4 -24 5 -55 2 -68 -2 -13 -5 -3 -6 24 -2 72 -21 56 -21 -18 0
-60 -9 -80 -25 -55 -4 6 -11 7 -17 4 -7 -5 -9 2 -6 20 3 14 2 26 -3 26 -4 0
-9 -12 -11 -27 -2 -17 -9 -28 -18 -28 -17 0 -22 45 -11 110 7 42 9 43 98 54 7
0 15 -18 18 -42z m-2215 18 c0 -8 -4 -15 -10 -15 -5 0 -10 7 -10 15 0 8 5 15
10 15 6 0 10 -7 10 -15z m214 -10 c-3 -7 3 -18 15 -24 26 -14 31 -14 31 4 0 8
-4 15 -10 15 -5 0 -10 5 -10 11 0 6 16 9 38 7 35 -3 37 -5 37 -38 0 -31 -3
-35 -24 -32 -38 4 -69 -22 -64 -52 7 -33 17 -33 31 -1 9 19 19 25 42 25 16 0
33 1 38 3 4 1 9 -9 10 -22 4 -22 1 -23 -31 -18 -32 5 -38 2 -67 -34 -31 -39
-60 -46 -40 -9 13 24 13 33 0 25 -17 -11 -48 5 -53 27 -5 18 -8 19 -21 8 -13
-10 -16 -10 -16 3 0 21 37 32 56 16 8 -6 17 -9 21 -5 10 10 -34 46 -57 46 -11
0 -20 7 -20 15 0 8 7 15 15 15 8 0 15 4 15 8 0 10 52 30 62 25 4 -2 5 -10 2
-18z m196 -15 c0 -8 -7 -24 -15 -34 -15 -19 -15 -19 -15 2 0 13 -6 22 -15 22
-9 0 -15 9 -15 24 0 23 2 24 30 13 17 -6 30 -18 30 -27z m1300 7 c0 -10 -25
-19 -43 -15 -11 2 -12 9 -6 26 7 20 11 21 29 10 11 -7 20 -16 20 -21z m-1226
-12 c-19 -29 -29 -27 -19 4 3 12 13 21 21 21 12 0 12 -4 -2 -25z m514 0 c10
-22 9 -27 -6 -32 -9 -4 -23 -13 -31 -21 -26 -25 -37 4 -15 43 22 41 37 44 52
10z m-1073 5 c3 -5 1 -10 -4 -10 -6 0 -11 5 -11 10 0 6 2 10 4 10 3 0 8 -4 11
-10z m1265 -17 c0 -8 -9 -28 -20 -44 -32 -44 -44 -87 -30 -104 9 -11 7 -18
-10 -35 -12 -12 -29 -20 -38 -18 -17 4 -18 13 -7 58 l7 25 -19 -23 c-18 -22
-33 -21 -33 4 0 6 10 14 23 18 13 3 29 17 35 31 7 14 20 25 31 25 30 0 37 22
13 38 -30 20 -28 40 6 44 34 5 42 1 42 -19z m638 17 l26 0 -23 -21 c-18 -17
-25 -18 -37 -8 -20 16 -28 6 -20 -26 5 -18 12 -25 21 -21 8 3 21 9 29 12 10 4
12 -1 9 -20 -5 -25 -8 -26 -69 -23 -70 4 -69 3 -77 32 -5 16 2 24 34 39 22 10
43 25 46 33 3 8 12 12 20 9 8 -3 26 -6 41 -6z m-216 -32 c31 -35 30 -43 -5
-34 -32 8 -58 66 -29 66 3 0 18 -14 34 -32z m858 23 c0 -6 -4 -12 -9 -15 -5
-3 -7 -15 -4 -25 5 -21 -11 -59 -19 -45 -7 14 12 94 23 94 5 0 9 -4 9 -9z
m-2400 -37 c-6 -14 -10 -37 -10 -50 0 -33 -24 -27 -28 7 -2 13 -7 28 -12 33
-15 16 2 36 31 36 26 0 28 -2 19 -26z m1222 -46 c-15 -15 -26 -4 -18 18 5 13
9 15 18 6 9 -9 9 -15 0 -24z m-687 12 c-3 -5 9 -16 26 -25 28 -15 31 -20 26
-50 -4 -24 -1 -35 9 -39 19 -7 18 -19 -4 -46 -16 -19 -21 -20 -45 -9 -15 7
-28 19 -28 28 -1 9 -2 23 -3 31 -1 11 -11 14 -33 12 -43 -3 -42 11 5 63 33 39
63 60 47 35z m244 -27 c-5 -13 -14 -33 -20 -45 -11 -20 -11 -20 -34 2 -23 21
-23 21 -29 2 -4 -11 -14 -23 -22 -26 -8 -3 -13 -10 -9 -15 3 -5 1 -12 -5 -16
-13 -8 -13 -56 0 -90 9 -23 7 -30 -12 -46 -27 -21 -49 -24 -66 -7 -9 9 -16 8
-30 -5 -27 -25 -46 -22 -38 5 14 46 12 53 -20 56 -26 3 -33 -1 -37 -20 l-7
-23 -15 22 c-12 16 -26 23 -51 23 -37 0 -39 5 -24 45 8 21 7 27 -6 32 -9 3
-25 1 -35 -5 -10 -7 -21 -12 -23 -12 -10 0 14 64 31 82 10 11 17 22 16 24 -2
2 -3 11 -3 20 0 18 24 14 26 -4 1 -7 2 -16 3 -21 0 -5 10 -13 21 -16 13 -4 20
-15 20 -31 0 -19 8 -28 34 -39 19 -8 39 -21 43 -29 15 -26 70 -47 96 -37 27
10 37 29 37 67 0 18 10 31 35 45 40 24 41 26 19 51 -27 29 -5 44 60 40 54 -4
55 -4 45 -29z m174 13 c3 -8 3 -17 0 -20 -7 -7 -33 13 -33 25 0 15 27 10 33
-5z m187 0 c0 -28 -12 -46 -31 -46 -13 0 -17 5 -12 18 14 38 43 57 43 28z
m690 3 c0 11 3 11 16 0 13 -10 15 -25 10 -74 -9 -98 -21 -160 -28 -157 -5 1
-12 2 -16 2 -9 0 -6 155 3 170 3 6 2 10 -3 10 -5 0 -6 14 -4 31 3 22 7 27 13
18 7 -12 9 -12 9 0z m-1390 -9 c0 -5 -2 -10 -4 -10 -3 0 -8 5 -11 10 -3 6 -1
10 4 10 6 0 11 -4 11 -10z m1090 -15 c0 -3 -11 -5 -25 -5 -17 0 -23 4 -19 15
5 11 11 12 25 4 10 -5 19 -12 19 -14z m883 -66 c-10 -106 -7 -139 14 -139 9 0
13 -3 10 -7 -4 -3 -25 0 -47 7 -32 11 -42 11 -55 0 -19 -16 -21 -14 -29 36 -6
32 -3 45 12 64 l20 24 7 -32 c10 -48 30 -34 28 19 -1 24 0 38 3 32 11 -25 24
-13 24 21 0 35 9 70 17 63 2 -2 0 -42 -4 -88z m-1583 71 c0 -5 -2 -10 -4 -10
-3 0 -8 5 -11 10 -3 6 -1 10 4 10 6 0 11 -4 11 -10z m59 -32 c1 -5 -6 -8 -14
-8 -16 0 -19 9 -8 36 6 16 7 16 14 -2 4 -10 8 -22 8 -26z m1478 10 c-3 -8 -6
-5 -6 6 -1 11 2 17 5 13 3 -3 4 -12 1 -19z m-1187 3 c0 -5 -7 -14 -15 -21 -8
-7 -15 -18 -15 -26 0 -19 -21 -29 -30 -13 -6 8 1 22 18 40 29 28 42 35 42 20z
m520 -38 c0 -22 -16 -14 -28 12 -16 35 -15 38 8 18 11 -10 20 -23 20 -30z
m-85 27 c3 -5 -1 -10 -10 -10 -11 0 -15 -7 -13 -22 2 -18 9 -23 31 -22 23 1
27 -3 27 -26 0 -54 -53 -66 -66 -15 -5 21 -12 25 -40 25 -19 0 -34 5 -34 10 0
6 -7 10 -16 10 -21 0 -14 34 9 38 12 3 17 -3 17 -22 0 -41 31 -30 49 17 10 27
34 36 46 17z m-1565 -16 c0 -8 -5 -12 -10 -9 -6 4 -8 11 -5 16 9 14 15 11 15
-7z m1736 -45 c-3 -34 -6 -75 -6 -90 0 -28 -1 -29 -52 -29 -50 0 -58 -13 -13
-22 11 -2 -17 -4 -62 -5 -46 -1 -83 0 -83 2 0 19 16 35 35 35 24 0 31 5 75 60
30 37 43 38 36 3 -7 -33 8 -63 23 -48 5 6 12 33 15 60 7 65 16 95 29 95 6 0 8
-22 3 -61z m564 41 c0 -11 -4 -20 -9 -20 -5 0 -7 9 -4 20 3 11 7 20 9 20 2 0
4 -9 4 -20z m-2250 -5 c0 -8 -4 -15 -10 -15 -5 0 -10 7 -10 15 0 8 5 15 10 15
6 0 10 -7 10 -15z m1260 -15 c0 -4 -6 -10 -14 -13 -8 -3 -20 -22 -27 -41 -8
-23 -19 -36 -31 -36 -25 0 -23 36 2 43 11 3 25 19 31 36 7 19 15 28 25 24 8
-3 14 -9 14 -13z m83 5 c4 -8 2 -17 -3 -20 -6 -4 -10 3 -10 14 0 25 6 27 13 6z
m-580 -1 c12 -4 10 -12 -11 -45 -14 -21 -29 -39 -34 -39 -14 0 -8 -32 9 -45
19 -14 9 -35 -18 -35 -21 0 -26 -16 -6 -23 6 -3 -1 -6 -18 -6 -17 0 -25 3 -18
7 6 4 10 20 9 35 -4 35 13 93 38 130 19 28 25 31 49 21z m423 -9 c-19 -14 -56
-21 -56 -10 0 7 41 24 60 24 11 0 10 -3 -4 -14z m-1226 -12 c0 -7 -4 -13 -9
-13 -5 0 -11 6 -14 13 -3 8 1 14 9 14 8 0 14 -6 14 -14z m89 -37 c-20 -19 -43
-51 -51 -72 -15 -36 -38 -58 -38 -35 0 6 5 11 10 11 6 0 10 20 10 44 0 42 2
45 48 68 26 13 49 22 52 20 3 -2 -11 -18 -31 -36z m774 20 c3 -8 19 -17 36
-21 36 -8 32 -25 -5 -25 -39 0 -63 17 -57 40 6 23 19 26 26 6z m281 6 c13 -21
-8 -52 -43 -63 -20 -6 -48 -20 -63 -30 -14 -11 -34 -19 -44 -19 -16 0 -16 2 4
16 35 24 28 44 -13 37 -23 -4 -35 -2 -35 6 0 6 11 11 23 11 13 0 32 9 42 20
15 17 19 18 39 5 20 -14 24 -13 42 4 20 21 40 26 48 13z m206 -17 c7 -8 18
-15 25 -15 8 0 14 -16 17 -40 3 -40 3 -40 -30 -40 -26 0 -35 5 -40 22 -5 21
-6 21 -13 2 -6 -14 -8 -8 -8 22 -1 55 23 80 49 49z m-683 -10 c20 -14 21 -17
6 -46 l-16 -32 -13 24 c-15 26 -18 69 -6 69 4 0 17 -7 29 -15z m-667 -21 c0
-8 -4 -14 -10 -14 -5 0 -10 9 -10 21 0 11 5 17 10 14 6 -3 10 -13 10 -21z
m1518 -35 c2 -9 -2 -8 -11 4 -19 22 -27 22 -27 -3 0 -23 -4 -24 -31 -10 -25
14 -24 29 4 39 24 10 58 -6 65 -30z m-1322 8 c2 -7 0 -24 -5 -38 -5 -13 -10
-17 -11 -9 0 13 -1 13 -10 0 -13 -20 -60 -23 -60 -4 0 8 5 12 11 9 10 -7 49
30 49 47 0 13 20 9 26 -5z m55 -12 c6 -77 3 -100 -14 -103 -18 -4 -57 23 -57
40 0 4 7 8 16 8 8 0 12 5 9 10 -8 12 21 60 35 60 6 0 11 -7 11 -15z m687 -17
c-6 -16 -42 -22 -77 -12 l-26 7 25 7 c41 13 82 11 78 -2z m192 3 c0 -5 -13
-11 -30 -13 -24 -4 -27 -2 -19 9 13 15 49 18 49 4z m138 -15 c8 -19 8 -27 -1
-35 -21 -16 -39 3 -31 32 8 33 18 34 32 3z m-1278 -12 c0 -8 -4 -14 -10 -14
-5 0 -10 9 -10 21 0 11 5 17 10 14 6 -3 10 -13 10 -21z m1188 -41 c-12 -11
-21 -12 -44 -3 -16 7 -46 9 -66 6 -21 -4 -38 -2 -38 3 0 11 78 24 92 15 7 -5
8 -2 3 6 -6 10 -4 12 7 7 9 -3 24 1 35 8 16 12 18 11 21 -7 2 -11 -3 -27 -10
-35z m-1089 26 c-22 -14 -33 -10 -19 6 7 8 17 12 22 9 6 -4 5 -10 -3 -15z
m260 -3 l22 -23 -23 -7 c-13 -3 -34 -6 -48 -6 -21 0 -25 5 -27 30 -2 27 1 30
26 30 16 0 37 -10 50 -24z m561 5 c0 -6 -4 -13 -10 -16 -5 -3 -10 1 -10 9 0 9
5 16 10 16 6 0 10 -4 10 -9z m90 5 c0 -2 -9 -6 -20 -9 -11 -3 -20 -1 -20 4 0
5 9 9 20 9 11 0 20 -2 20 -4z m-150 -26 c0 -5 -14 -10 -31 -10 -17 0 -28 4
-24 10 3 6 17 10 31 10 13 0 24 -4 24 -10z m548 3 c-10 -2 -28 -2 -40 0 -13 2
-5 4 17 4 22 1 32 -1 23 -4z m-1374 -9 c45 -17 -7 -28 -72 -15 -2 1 0 6 3 11
7 11 45 13 69 4z m634 -11 c2 -9 -12 -13 -50 -13 -38 0 -49 -3 -38 -10 8 -5
13 -10 10 -11 -48 -8 -54 -8 -41 0 18 11 -2 23 -24 14 -13 -4 -16 -2 -13 8 3
9 16 13 36 11 18 -2 40 2 49 7 23 14 65 10 71 -6z m337 7 c-3 -5 -18 -10 -33
-10 -21 0 -24 2 -12 10 20 13 53 13 45 0z m-900 -10 c-3 -5 -15 -10 -26 -10
-11 0 -17 5 -14 10 3 6 15 10 26 10 11 0 17 -4 14 -10z m55 0 c12 -8 9 -10
-12 -10 -16 0 -28 5 -28 10 0 13 20 13 40 0z m1720 -4 c0 -2 -11 -6 -25 -8
-14 -3 -25 -1 -25 3 0 5 11 9 25 9 14 0 25 -2 25 -4z m-680 -16 c12 -8 11 -10
-7 -10 -13 0 -23 5 -23 10 0 13 11 13 30 0z m468 -8 c7 -5 -8 -8 -37 -8 -27 1
-44 4 -38 8 16 10 59 10 75 0z m-1611 -8 c-3 -3 -12 -4 -19 -1 -8 3 -5 6 6 6
11 1 17 -2 13 -5z"/>
<path d="M2320 1580 c0 -5 5 -10 10 -10 6 0 10 5 10 10 0 6 -4 10 -10 10 -5 0
-10 -4 -10 -10z"/>
<path d="M2155 1490 c-3 -5 -1 -10 4 -10 6 0 11 5 11 10 0 6 -2 10 -4 10 -3 0
-8 -4 -11 -10z"/>
<path d="M1540 2036 c0 -3 10 -16 21 -27 21 -21 22 -27 15 -168 -8 -174 -29
-334 -45 -339 -14 -5 -15 -22 0 -22 16 0 41 68 55 155 18 104 18 341 1 375
-11 22 -47 41 -47 26z"/>
<path d="M2422 1200 c0 -19 2 -27 5 -17 2 9 2 25 0 35 -3 9 -5 1 -5 -18z"/>
<path d="M2472 1040 c0 -14 2 -19 5 -12 2 6 2 18 0 25 -3 6 -5 1 -5 -13z"/>
<path d="M2540 1755 c0 -8 4 -15 10 -15 5 0 7 7 4 15 -4 8 -8 15 -10 15 -2 0
-4 -7 -4 -15z"/>
<path d="M2506 1473 c3 -32 9 -59 14 -61 6 -2 10 -11 10 -19 0 -9 3 -13 6 -10
4 4 1 20 -6 38 -7 17 -13 48 -12 70 1 21 -3 39 -8 39 -6 0 -8 -23 -4 -57z"/>
<path d="M2521 1344 c0 -11 3 -14 6 -6 3 7 2 16 -1 19 -3 4 -6 -2 -5 -13z"/>
<path d="M2545 1067 c-16 -19 -34 -77 -24 -77 5 0 9 6 9 14 0 8 7 22 16 30 8
9 14 22 12 30 -2 10 -6 11 -13 3z"/>
<path d="M2828 805 c-9 -27 -13 -123 -6 -131 9 -8 20 74 16 116 -3 28 -5 31
-10 15z"/>
<path d="M2879 675 c-4 -11 -7 -33 -7 -50 -1 -30 -1 -30 9 -5 5 13 8 36 7 50
-3 22 -4 23 -9 5z"/>
<path d="M2890 585 c0 -8 2 -15 4 -15 2 0 6 7 10 15 3 8 1 15 -4 15 -6 0 -10
-7 -10 -15z"/>
<path d="M2798 531 c-2 -17 -1 -36 2 -42 4 -6 9 3 12 20 2 17 1 36 -2 42 -4 6
-9 -3 -12 -20z"/>
<path d="M2877 453 c-3 -5 -8 -30 -12 -58 -6 -39 -9 -46 -16 -30 -7 19 -8 19
-8 -3 -1 -13 -6 -32 -11 -42 -6 -11 -8 -30 -5 -43 6 -22 22 -27 55 -18 6 1 11
201 5 201 -2 0 -6 -3 -8 -7z"/>
<path d="M2521 290 c0 -37 2 -41 9 -22 6 13 6 31 0 45 -7 18 -9 14 -9 -23z"/>
<path d="M2650 271 c0 -11 -3 -28 -6 -38 -5 -12 -4 -15 3 -8 15 15 25 65 13
65 -5 0 -10 -9 -10 -19z"/>
<path d="M641 844 c0 -11 3 -14 6 -6 3 7 2 16 -1 19 -3 4 -6 -2 -5 -13z"/>
<path d="M444 385 c-3 -8 -4 -20 -2 -27 3 -7 7 -1 10 15 6 29 1 36 -8 12z"/>
<path d="M290 380 c0 -5 5 -10 11 -10 5 0 7 5 4 10 -3 6 -8 10 -11 10 -2 0 -4
-4 -4 -10z"/>
<path d="M356 334 c-17 -17 -18 -17 -21 -54 -1 -14 -4 -41 -6 -60 -3 -28 0
-35 14 -38 15 -3 18 2 16 25 -2 15 -1 33 3 38 8 14 20 105 14 105 -2 0 -12 -7
-20 -16z"/>
<path d="M420 313 c0 -10 4 -25 10 -33 8 -12 10 -12 15 3 4 9 0 23 -9 32 -15
15 -16 15 -16 -2z"/>
<path d="M250 271 c0 -6 5 -13 10 -16 6 -3 10 1 10 9 0 9 -4 16 -10 16 -5 0
-10 -4 -10 -9z"/>
<path d="M416 244 c-9 -23 -7 -54 3 -54 11 0 20 59 10 65 -4 3 -10 -2 -13 -11z"/>
<path d="M235 230 c-3 -5 -1 -10 4 -10 6 0 11 5 11 10 0 6 -2 10 -4 10 -3 0
-8 -4 -11 -10z"/>
<path d="M251 494 c0 -11 3 -14 6 -6 3 7 2 16 -1 19 -3 4 -6 -2 -5 -13z"/>
<path d="M705 490 c3 -5 14 -10 23 -10 15 0 15 2 2 10 -20 13 -33 13 -25 0z"/>
<path d="M2238 163 c7 -3 16 -2 19 1 4 3 -2 6 -13 5 -11 0 -14 -3 -6 -6z"/>
<path d="M635 2160 c-3 -5 -1 -10 4 -10 6 0 11 5 11 10 0 6 -2 10 -4 10 -3 0
-8 -4 -11 -10z"/>
<path d="M305 2150 c3 -5 8 -10 11 -10 2 0 4 5 4 10 0 6 -5 10 -11 10 -5 0 -7
-4 -4 -10z"/>
<path d="M480 2156 c0 -2 11 -6 25 -8 14 -3 25 -1 25 3 0 5 -11 9 -25 9 -14 0
-25 -2 -25 -4z"/>
<path d="M100 124 c0 -8 5 -12 10 -9 6 3 10 10 10 16 0 5 -4 9 -10 9 -5 0 -10
-7 -10 -16z"/>
</g>
</svg>
