<?xml version="1.0" standalone="no"?>
<!DOCTYPE svg PUBLIC "-//W3C//DTD SVG 20010904//EN"
 "http://www.w3.org/TR/2001/REC-SVG-20010904/DTD/svg10.dtd">
<svg version="1.0" xmlns="http://www.w3.org/2000/svg"
 width="195.000000pt" height="277.000000pt" viewBox="0 0 195.000000 277.000000"
 preserveAspectRatio="xMidYMid meet">
<metadata>
Created by potrace 1.16, written by Peter Selinger 2001-2019
</metadata>
<g transform="translate(0.000000,277.000000) scale(0.100000,-0.100000)"
fill="#000000" stroke="none">
<path d="M1150 2729 c-85 -10 -243 -20 -350 -23 -184 -3 -550 -21 -650 -31
-99 -10 -135 -20 -138 -37 -3 -14 3 -18 23 -18 14 0 28 -7 31 -15 4 -8 18 -15
33 -15 l26 -1 -25 -14 c-33 -19 -37 -19 -43 6 -4 14 -11 20 -20 16 -8 -3 -20
0 -27 6 -10 10 -11 -14 -6 -118 4 -71 12 -159 18 -195 6 -36 12 -119 13 -185
2 -65 8 -155 14 -200 22 -152 22 -155 9 -153 -7 2 -12 -2 -11 -8 17 -93 48
-478 64 -789 7 -121 16 -229 22 -240 6 -11 11 -76 12 -145 0 -69 4 -130 8
-137 13 -20 27 -265 16 -284 -13 -25 -1 -47 29 -53 50 -10 176 -9 332 2 85 7
301 16 480 22 335 11 541 19 620 24 25 2 51 -1 58 -7 15 -12 42 8 42 32 0 9 5
22 11 28 7 7 9 28 5 55 -4 23 -10 162 -15 308 -10 291 -26 572 -42 750 -9 101
-24 366 -33 560 -1 36 -6 180 -10 320 -15 484 -17 515 -45 507 -9 -2 -24 6
-34 19 l-18 24 33 -5 c26 -4 29 -3 13 4 -33 16 -278 10 -445 -10z m64 -41 c-5
-8 9 -9 57 -3 89 12 269 13 276 2 3 -5 -4 -6 -16 -2 -25 8 -25 9 -6 -46 9 -24
18 -76 22 -116 6 -74 18 -98 34 -72 6 10 9 8 9 -8 0 -13 -4 -23 -9 -23 -6 0
-8 -26 -4 -62 3 -35 7 -151 8 -258 2 -107 7 -265 12 -352 5 -86 5 -198 2 -250
-4 -51 -3 -97 1 -103 10 -12 27 -200 45 -485 11 -184 11 -217 -1 -226 -17 -14
-18 -25 -2 -22 14 3 12 -66 -3 -94 -13 -24 -11 -34 3 -20 7 7 15 12 19 12 17
0 32 -303 17 -346 l-11 -31 -74 1 c-54 1 -72 4 -68 14 3 9 -2 9 -23 -2 -18 -9
-45 -12 -82 -8 -40 4 -48 7 -31 12 14 3 27 12 29 19 4 11 -1 12 -19 7 -13 -4
-31 -8 -39 -10 -8 -2 -14 -7 -13 -12 2 -15 -21 -24 -34 -12 -7 5 -21 7 -30 3
-10 -4 -55 -6 -100 -6 -44 1 -173 -6 -285 -14 -111 -9 -231 -14 -264 -13 l-62
2 26 41 c45 68 104 147 160 212 30 34 52 67 50 72 -5 16 -184 -209 -229 -286
-18 -32 -31 -44 -54 -47 -80 -12 -105 -14 -105 -8 0 4 18 29 40 56 22 26 40
53 40 60 -1 14 -88 -83 -96 -108 -6 -17 -14 -18 -83 -13 -107 8 -111 11 -111
64 0 35 8 57 36 99 20 30 34 57 31 60 -3 3 -19 -15 -37 -40 -17 -25 -33 -46
-35 -46 -3 0 -3 15 -2 33 1 17 -2 133 -6 257 -4 124 -9 333 -11 465 -3 154
-11 308 -25 430 -19 169 -47 460 -56 570 -1 22 -8 67 -14 100 -6 33 -13 122
-16 197 -2 76 -7 148 -10 160 -4 18 4 30 35 56 23 19 47 31 55 28 8 -3 14 -2
13 2 -5 17 24 50 49 57 16 4 75 9 133 10 96 3 102 2 77 -11 -15 -8 -27 -22
-27 -31 0 -13 5 -12 27 8 15 13 30 27 33 31 5 7 151 14 450 24 96 3 179 9 185
14 6 5 31 10 55 13 25 2 51 4 58 5 8 1 10 -3 6 -10z m376 -173 c1 -5 1 -19 0
-30 -3 -29 -19 53 -18 95 1 32 1 31 8 -10 4 -25 8 -49 10 -55z"/>
<path d="M1350 2680 c-19 -4 -31 -8 -27 -9 4 0 3 -10 -3 -21 -13 -25 -3 -26
24 -1 12 10 35 23 51 29 35 12 9 13 -45 2z"/>
<path d="M1230 2634 c-18 -18 -21 -24 -9 -24 15 0 49 30 49 43 0 13 -15 6 -40
-19z"/>
<path d="M240 2615 c-7 -8 -8 -15 -2 -15 5 0 15 7 22 15 7 8 8 15 2 15 -5 0
-15 -7 -22 -15z"/>
<path d="M520 2620 c0 -5 5 -10 10 -10 6 0 10 5 10 10 0 6 -4 10 -10 10 -5 0
-10 -4 -10 -10z"/>
<path d="M1076 2569 c-26 -28 -47 -52 -45 -54 2 -1 31 21 64 51 33 29 53 53
45 53 -8 0 -37 -23 -64 -50z"/>
<path d="M1270 2605 c-19 -23 -8 -26 19 -4 16 13 18 19 8 19 -8 0 -20 -7 -27
-15z"/>
<path d="M963 2591 c-32 -27 -28 -34 7 -16 17 9 30 20 30 25 0 15 -12 12 -37
-9z"/>
<path d="M1015 2559 c-50 -52 -42 -57 14 -9 24 20 39 40 34 43 -5 3 -26 -12
-48 -34z"/>
<path d="M1332 2588 c-20 -20 -13 -28 13 -16 14 6 25 15 25 20 0 12 -24 10
-38 -4z"/>
<path d="M885 2579 c-12 -19 5 -23 22 -6 16 16 16 17 1 17 -9 0 -20 -5 -23
-11z"/>
<path d="M1350 2525 c-35 -35 -62 -67 -59 -69 5 -6 139 116 139 127 0 17 -19
3 -80 -58z"/>
<path d="M660 2560 c0 -5 4 -10 9 -10 6 0 13 5 16 10 3 6 -1 10 -9 10 -9 0
-16 -4 -16 -10z"/>
<path d="M756 2553 c-6 -14 -5 -15 5 -6 7 7 10 15 7 18 -3 3 -9 -2 -12 -12z"/>
<path d="M830 2530 c-14 -10 -21 -22 -17 -26 4 -4 20 4 35 19 31 31 19 36 -18
7z"/>
<path d="M1290 2535 c-7 -8 -8 -15 -2 -15 5 0 15 7 22 15 7 8 8 15 2 15 -5 0
-15 -7 -22 -15z"/>
<path d="M1190 2525 c-7 -9 -8 -15 -2 -15 5 0 12 7 16 15 3 8 4 15 2 15 -2 0
-9 -7 -16 -15z"/>
<path d="M860 2495 c-7 -8 -21 -15 -32 -15 -10 0 -16 -4 -13 -10 11 -17 -27
-11 -40 7 -13 17 -40 9 -29 -9 4 -6 -3 -4 -15 4 -19 13 -27 14 -49 3 -15 -7
-39 -16 -54 -19 -23 -5 -26 -3 -21 10 5 15 1 16 -30 10 -26 -5 -37 -3 -37 5 0
9 -3 9 -14 0 -8 -7 -25 -9 -40 -5 -19 4 -33 1 -46 -11 -13 -12 -27 -15 -48
-10 -18 3 -33 2 -37 -4 -10 -18 -25 -13 -25 8 0 23 -16 36 -25 21 -3 -5 -13
-10 -21 -10 -8 0 -12 5 -9 10 3 6 1 10 -5 10 -6 0 -10 -8 -8 -17 2 -12 -4 -19
-19 -21 -13 -2 -32 -17 -43 -33 -20 -27 -20 -29 -3 -30 29 -2 67 3 78 9 5 3
39 8 75 10 36 2 79 4 95 5 17 1 33 6 36 11 4 5 13 5 20 0 18 -11 111 -15 124
-5 20 15 121 29 194 27 56 -1 75 2 79 13 3 7 -2 19 -11 26 -9 7 -14 15 -10 18
3 4 4 7 1 7 -3 0 -11 -7 -18 -15z m-145 -35 c3 -5 2 -10 -4 -10 -5 0 -13 5
-16 10 -3 6 -2 10 4 10 5 0 13 -4 16 -10z m-465 -29 c0 -5 -7 -11 -15 -15 -15
-5 -20 5 -8 17 9 10 23 9 23 -2z"/>
<path d="M930 2480 c0 -5 4 -10 9 -10 6 0 13 5 16 10 3 6 -1 10 -9 10 -9 0
-16 -4 -16 -10z"/>
<path d="M1125 2470 c-3 -5 -1 -10 4 -10 6 0 11 5 11 10 0 6 -2 10 -4 10 -3 0
-8 -4 -11 -10z"/>
<path d="M1037 2453 c-4 -3 -7 -11 -7 -17 0 -6 5 -5 12 2 6 6 9 14 7 17 -3 3
-9 2 -12 -2z"/>
<path d="M113 2433 c-18 -6 -16 -23 1 -23 17 0 30 16 19 23 -5 2 -14 2 -20 0z"/>
<path d="M850 2405 c-8 -9 -8 -15 -2 -15 12 0 26 19 19 26 -2 2 -10 -2 -17
-11z"/>
<path d="M1435 2409 c-11 -17 1 -21 15 -4 8 9 8 15 2 15 -6 0 -14 -5 -17 -11z"/>
<path d="M1218 2399 c-19 -11 -24 -29 -8 -29 5 0 14 9 20 20 12 23 12 23 -12
9z"/>
<path d="M128 2344 c-42 -52 -48 -74 -18 -74 14 0 18 -5 13 -16 -5 -14 -3 -15
15 -5 12 7 22 16 22 22 0 6 -4 7 -10 4 -5 -3 -10 -1 -10 4 0 6 5 11 10 11 6 0
10 5 10 10 0 7 -7 7 -21 0 -32 -18 -32 -7 1 35 26 32 37 55 28 55 -2 0 -20
-21 -40 -46z"/>
<path d="M1315 2380 c-11 -18 5 -31 26 -20 11 6 17 15 14 21 -8 12 -32 12 -40
-1z"/>
<path d="M945 2360 c-3 -5 -1 -10 4 -10 6 0 11 5 11 10 0 6 -2 10 -4 10 -3 0
-8 -4 -11 -10z"/>
<path d="M193 2349 c-9 -9 -8 -15 3 -26 9 -9 12 -23 8 -35 -4 -13 -2 -18 4
-14 6 3 14 2 17 -4 4 -6 21 -10 38 -10 18 0 59 -2 93 -4 46 -4 69 -1 95 12 33
17 36 17 54 0 22 -22 29 -22 99 -4 58 15 121 55 109 67 -14 13 -116 13 -162 0
-37 -11 -46 -10 -59 3 -14 14 -17 13 -28 -2 -11 -16 -14 -16 -33 2 -19 17 -22
18 -45 2 -14 -8 -27 -12 -30 -7 -3 5 -40 8 -81 7 -60 -2 -72 0 -63 11 13 16
-4 17 -19 2z m372 -59 c-3 -5 -13 -10 -21 -10 -8 0 -14 5 -14 10 0 6 9 10 21
10 11 0 17 -4 14 -10z"/>
<path d="M1367 2353 c-4 -3 -7 -11 -7 -17 0 -6 5 -5 12 2 6 6 9 14 7 17 -3 3
-9 2 -12 -2z"/>
<path d="M90 2339 c0 -5 5 -7 10 -4 6 3 10 8 10 11 0 2 -4 4 -10 4 -5 0 -10
-5 -10 -11z"/>
<path d="M1400 2265 c-14 -16 -10 -18 14 -9 9 3 16 10 16 15 0 14 -16 11 -30
-6z"/>
<path d="M907 2253 c-4 -3 -7 -11 -7 -17 0 -6 5 -5 12 2 6 6 9 14 7 17 -3 3
-9 2 -12 -2z"/>
<path d="M762 2238 c-7 -7 -12 -17 -12 -24 0 -16 -50 -5 -57 13 -4 11 -8 11
-20 1 -8 -6 -42 -13 -76 -15 -34 -2 -71 -10 -84 -18 -24 -16 -73 -20 -73 -6 0
17 -31 21 -53 7 -14 -10 -44 -14 -84 -12 -56 1 -65 -1 -93 -27 -17 -16 -29
-32 -26 -35 4 -3 17 5 30 17 17 16 31 21 45 16 26 -8 27 -21 2 -28 -10 -2 -24
-15 -31 -27 -12 -23 -5 -22 28 3 7 6 36 12 64 14 29 2 60 9 71 14 10 6 42 9
71 8 29 -1 57 0 63 4 13 8 174 27 236 27 35 0 49 4 54 17 4 9 1 19 -5 21 -7 2
-10 8 -7 12 9 15 -30 31 -43 18z m-432 -88 c-8 -5 -22 -10 -30 -10 -13 0 -13
1 0 10 8 5 22 10 30 10 13 0 13 -1 0 -10z"/>
<path d="M117 2196 c-4 -10 -1 -13 8 -9 8 3 12 9 9 14 -7 12 -11 11 -17 -5z"/>
<path d="M1015 2200 c-3 -5 -1 -10 4 -10 6 0 11 5 11 10 0 6 -2 10 -4 10 -3 0
-8 -4 -11 -10z"/>
<path d="M160 2190 c-13 -8 -12 -10 3 -10 9 0 17 5 17 10 0 12 -1 12 -20 0z"/>
<path d="M1270 2155 c-17 -21 -9 -27 13 -10 10 7 14 16 9 19 -5 3 -15 -1 -22
-9z"/>
<path d="M485 2110 c-3 -5 -1 -10 4 -10 6 0 11 5 11 10 0 6 -2 10 -4 10 -3 0
-8 -4 -11 -10z"/>
<path d="M1340 2105 c-7 -9 -10 -18 -7 -22 8 -7 37 15 37 28 0 14 -16 11 -30
-6z"/>
<path d="M140 2090 c0 -5 5 -10 10 -10 6 0 10 5 10 10 0 6 -4 10 -10 10 -5 0
-10 -4 -10 -10z"/>
<path d="M535 2080 c-3 -5 -1 -10 4 -10 6 0 11 5 11 10 0 6 -2 10 -4 10 -3 0
-8 -4 -11 -10z"/>
<path d="M1225 2064 c-32 -27 -41 -30 -48 -11 -4 12 -14 10 -79 -17 -11 -5
-18 -1 -23 14 -6 20 -8 20 -41 -10 -38 -33 -54 -38 -54 -15 0 20 -15 19 -51
-2 -26 -15 -31 -16 -39 -3 -8 12 -11 12 -27 -2 -21 -18 -133 -34 -133 -18 0
13 -37 13 -45 0 -9 -15 -32 -12 -50 7 -14 13 -18 14 -25 3 -8 -14 -125 -31
-136 -21 -18 19 -96 -3 -87 -25 2 -7 0 -15 -6 -19 -6 -3 -11 1 -11 9 0 17 -21
22 -34 9 -4 -5 -13 -8 -19 -8 -7 0 -12 -10 -12 -23 0 -13 -16 -36 -39 -56 -21
-19 -36 -40 -34 -46 2 -7 24 10 48 37 36 38 52 48 80 49 19 1 58 5 85 8 28 4
65 7 84 6 18 0 40 5 48 12 8 6 30 11 50 10 19 -1 43 3 53 8 13 7 22 4 35 -10
19 -21 44 -26 61 -12 15 14 89 32 131 32 38 0 241 28 252 34 3 2 36 6 72 10
36 3 82 13 102 21 32 13 36 13 31 0 -8 -19 12 -20 23 -1 4 7 18 18 31 25 25
13 21 31 -6 31 -9 0 -30 -7 -47 -16 -16 -8 -37 -13 -47 -11 -10 3 -21 1 -24
-4 -8 -14 -24 -11 -24 5 0 26 -15 26 -45 0z"/>
<path d="M115 2070 c-3 -5 -1 -10 4 -10 6 0 11 5 11 10 0 6 -2 10 -4 10 -3 0
-8 -4 -11 -10z"/>
<path d="M161 2039 c-24 -21 -37 -39 -30 -39 18 1 81 58 77 69 -2 5 -23 -9
-47 -30z"/>
<path d="M385 2069 c-4 -6 -5 -12 -2 -15 2 -3 7 2 10 11 7 17 1 20 -8 4z"/>
<path d="M1450 2059 c0 -5 5 -7 10 -4 6 3 10 8 10 11 0 2 -4 4 -10 4 -5 0 -10
-5 -10 -11z"/>
<path d="M355 2040 c-3 -5 -1 -10 4 -10 6 0 11 5 11 10 0 6 -2 10 -4 10 -3 0
-8 -4 -11 -10z"/>
<path d="M418 2039 c-10 -5 -18 -17 -18 -25 0 -19 16 -10 30 17 12 22 11 22
-12 8z"/>
<path d="M990 2039 c0 -5 5 -7 10 -4 6 3 10 8 10 11 0 2 -4 4 -10 4 -5 0 -10
-5 -10 -11z"/>
<path d="M480 2019 c0 -5 5 -7 10 -4 6 3 10 8 10 11 0 2 -4 4 -10 4 -5 0 -10
-5 -10 -11z"/>
<path d="M289 1980 c-23 -22 -39 -43 -35 -47 4 -4 27 14 51 40 54 57 42 62
-16 7z"/>
<path d="M1075 1970 c-3 -5 -2 -10 4 -10 5 0 13 5 16 10 3 6 2 10 -4 10 -5 0
-13 -4 -16 -10z"/>
<path d="M1045 1941 c-3 -6 -14 -11 -23 -11 -9 0 -28 -11 -42 -25 -27 -26 -66
-26 -56 0 9 24 -7 24 -51 0 -40 -23 -153 -42 -153 -26 0 3 -43 4 -96 2 -73 -2
-99 0 -105 10 -8 12 -10 12 -18 0 -6 -10 -20 -12 -48 -8 -34 6 -42 3 -67 -23
-41 -44 -60 -41 -30 6 29 44 8 36 -50 -18 -31 -29 -61 -53 -66 -53 -10 0 -12
-6 -9 -22 1 -5 2 -19 3 -33 1 -35 34 -33 65 3 30 35 19 48 -14 17 -24 -23 -25
-23 -25 -3 0 11 8 28 19 37 15 14 23 15 45 5 20 -10 29 -10 38 -1 7 7 25 12
40 12 l29 0 -26 -27 c-14 -16 -23 -34 -20 -40 6 -17 -3 -16 -22 2 -21 22 -38
13 -38 -18 1 -19 -13 -41 -47 -74 -54 -53 -73 -50 -41 8 26 47 11 53 -17 7
-20 -33 -26 -69 -13 -81 9 -10 51 19 101 69 28 29 52 44 68 44 14 0 22 -4 19
-10 -3 -5 -15 -10 -26 -10 -11 0 -22 -6 -25 -14 -3 -8 -14 -16 -25 -19 -13 -4
-19 -12 -18 -24 2 -10 0 -24 -5 -31 -15 -25 5 -27 23 -3 10 13 23 21 29 17 6
-3 32 -1 59 5 26 6 86 12 133 14 47 1 97 5 112 10 30 8 90 -13 85 -29 -3 -9
-158 -65 -179 -66 -5 0 -8 7 -8 16 0 8 4 13 9 10 5 -4 7 3 4 15 -6 20 -6 20
-16 3 -6 -11 -19 -25 -29 -32 -10 -7 -23 -23 -30 -35 -10 -19 -9 -20 4 -9 13
10 17 10 21 -2 3 -8 15 -16 26 -18 20 -3 20 -4 -5 -35 -15 -20 -35 -33 -48
-33 -19 0 -22 -5 -22 -35 0 -34 9 -45 21 -25 3 5 12 7 20 3 12 -4 9 -12 -15
-39 -34 -39 -37 -49 -14 -40 8 3 12 2 9 -4 -9 -14 -73 -12 -78 3 -2 7 -32 -17
-72 -58 -113 -116 -87 -42 37 109 27 32 47 64 45 69 -2 6 9 22 25 35 15 13 25
28 22 34 -4 5 -15 1 -28 -11 -12 -12 -33 -21 -47 -21 l-24 0 23 -18 c22 -17
22 -18 5 -37 -100 -109 -166 -216 -146 -236 14 -14 70 18 106 61 22 26 37 30
37 10 0 -13 -63 -70 -77 -70 -7 0 -13 -4 -13 -10 0 -5 8 -10 18 -10 34 0 31
-12 -17 -84 -78 -115 -99 -166 -67 -166 10 0 14 10 14 29 -1 18 15 53 46 97
67 99 69 102 100 110 37 9 31 -1 -54 -95 -68 -76 -86 -101 -73 -101 4 0 25 20
46 45 30 34 46 45 68 45 46 0 45 -24 -2 -80 -59 -70 -43 -74 20 -4 35 40 58
58 76 59 37 1 47 -16 26 -43 -17 -23 -50 -22 -52 2 0 6 -6 -5 -12 -24 -8 -22
-9 -37 -3 -42 5 -4 -3 -22 -20 -43 -16 -20 -33 -46 -39 -56 -6 -11 -18 -18
-30 -17 -12 2 -19 -2 -17 -9 1 -7 3 -18 5 -25 1 -7 -7 -12 -18 -13 -13 0 -21
-8 -23 -22 -5 -32 18 -29 53 7 34 36 83 43 65 10 -6 -11 -20 -20 -31 -20 -25
0 -59 -17 -59 -31 0 -5 9 -13 20 -17 14 -5 17 -11 10 -22 -8 -12 -11 -13 -19
-1 -10 16 -24 -1 -16 -21 3 -8 -2 -31 -10 -52 -15 -34 -15 -40 -1 -55 11 -12
14 -28 9 -54 -5 -33 -3 -37 15 -37 12 0 34 17 52 40 17 22 40 40 51 40 30 0
22 -16 -24 -52 -24 -18 -42 -38 -40 -44 2 -6 -22 -39 -54 -74 -63 -68 -79 -90
-65 -90 4 0 27 21 50 48 97 112 111 124 135 116 12 -4 31 -7 42 -6 11 1 52 1
90 2 39 0 85 4 104 8 44 10 54 32 14 32 -87 0 -86 0 -42 48 30 33 32 34 127
37 53 1 101 0 105 -2 13 -8 -54 -73 -74 -73 -23 0 -35 -20 -18 -31 14 -8 15
-7 -58 -88 -31 -34 -40 -51 -27 -51 3 0 20 17 38 38 99 112 87 103 131 91 22
-6 59 -14 83 -18 l42 -6 -31 -38 c-48 -59 -23 -59 27 0 44 51 99 78 113 55 4
-6 24 -8 49 -5 32 4 42 10 42 24 0 10 -4 21 -10 24 -5 3 -10 19 -10 36 0 38
-9 37 -50 -6 -38 -39 -68 -44 -93 -17 -16 17 -16 20 6 39 26 24 67 36 67 20 0
-6 -10 -21 -22 -34 -12 -13 -18 -26 -14 -30 4 -5 14 1 23 12 8 11 22 31 32 44
14 19 27 24 56 23 42 -2 105 21 105 39 0 6 -8 9 -20 6 -11 -3 -23 -1 -26 4 -5
9 -50 6 -90 -6 -13 -4 -27 -1 -35 8 -14 14 -49 12 -49 -4 0 -5 -11 -9 -25 -9
-14 0 -25 3 -25 6 0 14 96 124 108 124 8 0 12 8 10 18 -2 11 -12 17 -31 16
-15 0 -27 4 -27 8 0 5 -11 2 -24 -7 -27 -18 -56 -11 -56 14 -1 14 -2 15 -13 0
-16 -21 -77 -33 -77 -15 0 29 26 34 138 31 93 -3 112 -1 112 11 0 19 -11 22
-100 28 -41 3 -76 5 -78 6 -7 1 33 60 40 60 4 0 8 6 8 13 -1 6 -14 -4 -31 -23
-24 -29 -31 -32 -39 -20 -13 21 -12 47 2 70 10 15 10 22 0 32 -9 9 -17 7 -34
-7 -13 -11 -17 -13 -10 -5 20 23 14 35 -8 15 -12 -10 -18 -25 -16 -32 6 -16
-4 -16 -40 -3 -24 10 -25 12 -12 28 20 23 30 52 17 52 -5 0 -15 -11 -21 -25
-6 -14 -15 -25 -19 -25 -4 0 -10 -8 -13 -18 -3 -10 -24 -38 -46 -62 -22 -24
-37 -46 -34 -49 3 -3 22 14 42 38 40 47 64 50 67 10 3 -34 -12 -59 -35 -59
-14 0 -20 -7 -20 -22 -1 -30 -26 -65 -33 -46 -4 9 -6 9 -6 -3 -1 -8 -13 -31
-27 -50 -34 -45 -47 -69 -37 -69 4 0 18 16 31 36 21 32 25 34 60 28 20 -3 40
-9 44 -13 9 -8 -75 -101 -91 -101 -8 0 -8 6 1 19 7 11 15 18 19 15 9 -5 25 16
33 46 6 20 -3 14 -41 -28 -44 -48 -83 -67 -83 -41 0 8 -4 8 -13 1 -12 -10 -74
-9 -84 2 -13 12 55 92 82 98 12 2 20 11 20 24 0 11 15 39 33 62 19 23 29 42
23 42 -6 0 -11 -3 -11 -7 -1 -5 -18 -28 -40 -52 l-39 -45 -20 25 c-28 33 -26
37 11 41 41 4 50 33 14 42 -34 8 -33 15 10 62 19 21 33 31 30 22 -6 -20 9 -24
20 -6 4 6 2 14 -4 16 -20 6 -13 22 11 22 16 0 18 3 8 9 -9 6 -10 11 -2 15 6 4
16 4 21 1 6 -3 13 1 16 10 4 9 13 14 21 10 11 -4 14 0 10 14 -3 11 2 26 12 34
20 17 112 30 203 27 37 -1 73 2 79 6 20 12 73 14 95 3 16 -8 29 -7 52 5 21 11
57 16 112 16 78 0 148 20 136 39 -7 10 -136 11 -136 1 0 -5 -19 -9 -42 -8 -76
2 -233 -11 -262 -22 -19 -7 -33 -7 -47 1 -15 7 -29 7 -51 0 -73 -25 -99 -5
-55 42 16 18 40 27 92 35 95 15 188 25 260 27 70 2 199 34 217 54 11 11 9 12
-10 6 -14 -4 -32 -1 -47 9 -31 20 -46 20 -38 0 4 -11 1 -15 -13 -13 -24 3 -75
-11 -93 -25 -11 -8 -15 -8 -18 2 -5 14 -34 16 -48 3 -19 -17 -73 -21 -85 -6
-16 19 -29 19 -51 -1 -10 -9 -36 -17 -58 -18 -37 -2 -41 0 -36 18 6 20 5 20
-14 -2 -26 -30 -88 -41 -97 -18 -6 15 -9 15 -23 3 -19 -17 -61 -29 -61 -17 0
15 43 61 70 75 38 20 54 19 46 -1 -5 -13 -3 -14 6 -7 18 14 66 27 108 29 111
5 228 18 250 29 14 7 37 11 52 8 16 -3 36 1 50 11 12 9 31 16 41 16 14 0 17
-5 11 -22 -6 -21 -4 -21 24 6 42 39 32 50 -37 41 -31 -5 -72 -9 -91 -11 -19
-1 -69 -7 -110 -13 -105 -15 -113 -14 -106 6 6 15 5 15 -13 -1 -14 -12 -33
-17 -68 -16 -26 2 -57 -1 -68 -5 -45 -16 -48 -16 -42 6 5 20 5 20 -15 2 -11
-10 -35 -18 -55 -18 -28 0 -33 3 -29 19 4 17 3 17 -17 -2 -25 -23 -117 -37
-117 -17 0 6 17 28 39 49 35 34 43 37 88 35 27 -1 54 1 61 5 7 4 36 6 64 5 29
-1 71 1 93 5 49 8 93 14 165 22 30 4 79 9 109 13 33 4 56 11 59 20 4 11 -9 13
-69 7 -191 -16 -234 -18 -219 -7 8 6 29 11 45 11 17 0 41 7 55 15 16 9 55 14
108 15 48 0 82 4 82 10 0 12 -7 13 -105 14 -56 1 -83 -3 -90 -12 -16 -20 -133
-32 -139 -15 -7 18 -26 16 -49 -4 -15 -13 -21 -15 -24 -5 -3 6 -14 12 -25 12
-24 0 -71 47 -62 61 3 5 13 8 21 7 23 -4 27 17 7 37 -12 12 -26 15 -51 10 -41
-7 -44 9 -4 23 21 8 40 7 68 -3 23 -8 42 -10 49 -4 21 17 116 30 130 18 11 -9
15 -7 20 6 9 24 -11 34 -57 28 -25 -4 -39 -2 -39 6 0 6 6 11 13 12 6 0 3 4 -9
9 -12 5 -41 4 -69 -2 -35 -7 -49 -7 -55 1 -5 9 -10 8 -19 -3 -9 -11 -36 -15
-99 -15 -48 -1 -125 -3 -172 -6 -129 -6 -169 10 -87 35 23 8 46 16 51 18 5 3
53 6 105 8 53 1 148 6 211 10 63 4 131 7 150 6 19 -1 58 5 85 13 28 8 79 16
115 19 36 2 101 9 145 15 43 6 87 8 97 5 10 -3 18 -1 18 5 0 18 -44 23 -161
16 -149 -9 -149 -9 -187 3 -28 9 -33 9 -28 -3 8 -22 -21 -38 -60 -32 -19 3
-46 2 -58 -3 -14 -5 -27 -5 -33 1 -6 6 -28 6 -59 0 -68 -13 -127 -16 -141 -8
-6 4 -23 3 -38 -3 -15 -6 -71 -10 -124 -9 -53 0 -104 -2 -114 -6 -25 -10 -21
8 9 36 26 24 62 27 76 5 6 -8 8 -8 8 2 0 8 23 12 78 13 42 0 100 5 127 10 28
5 102 14 165 19 63 6 131 12 150 15 19 3 95 8 167 12 91 4 136 10 144 19 17
21 0 36 -33 29 -38 -9 -150 4 -142 16 3 5 1 9 -5 9 -5 0 -13 -5 -16 -11 -4 -6
-13 -8 -20 -5 -7 2 -21 -2 -32 -9 -10 -8 -29 -15 -42 -15 -20 0 -22 2 -11 15
7 9 10 18 7 21 -3 3 -8 1 -12 -5z m-615 -91 c0 -5 -7 -10 -16 -10 -8 0 -12 5
-9 10 3 6 10 10 16 10 5 0 9 -4 9 -10z m90 0 c0 -5 -2 -10 -4 -10 -3 0 -8 5
-11 10 -3 6 -1 10 4 10 6 0 11 -4 11 -10z m360 -190 c0 -5 -7 -10 -16 -10 -8
0 -12 5 -9 10 3 6 10 10 16 10 5 0 9 -4 9 -10z m40 6 c0 -3 -4 -8 -10 -11 -5
-3 -10 -1 -10 4 0 6 5 11 10 11 6 0 10 -2 10 -4z m-120 -86 c0 -13 -39 -32
-73 -36 -42 -5 -29 18 19 33 50 15 54 15 54 3z m-137 -40 c-16 -14 -63 -21
-63 -9 0 7 3 9 6 6 4 -3 16 0 27 8 20 14 47 10 30 -5z m-33 -54 c0 -19 -57
-66 -81 -66 -26 0 -24 5 13 45 32 36 68 47 68 21z m90 -3 c-1 -22 -31 -42 -68
-46 -46 -4 -51 2 -24 25 24 22 92 37 92 21z m110 -33 c0 -5 -6 -10 -14 -10 -8
0 -18 5 -21 10 -3 6 3 10 14 10 12 0 21 -4 21 -10z m-170 -78 c0 -15 -62 -82
-71 -76 -6 3 -15 1 -22 -4 -24 -19 -65 -23 -71 -7 -6 16 41 78 54 70 3 -2 26
2 51 10 53 16 59 17 59 7z m50 -133 c0 -15 -39 -53 -46 -46 -4 4 -2 13 4 19 7
7 12 15 12 20 0 4 -18 -12 -41 -35 -23 -24 -36 -33 -30 -20 17 34 13 38 -10 9
-21 -26 -54 -33 -92 -18 -16 7 -15 10 10 34 16 15 46 32 68 37 43 10 125 10
125 0z m60 -8 c0 -5 -9 -11 -20 -14 -11 -3 -24 -17 -30 -31 -5 -14 -16 -26
-25 -26 -22 0 -19 8 22 50 33 35 53 43 53 21z m-270 -19 c0 -15 -34 -39 -62
-44 -31 -6 -36 3 -13 22 9 7 13 15 10 18 -3 3 -19 -10 -35 -29 -34 -39 -41
-28 -7 13 18 22 30 28 65 28 23 0 42 -4 42 -8z m77 -140 c-26 -26 -47 -42 -47
-36 0 16 79 98 87 90 4 -4 -14 -28 -40 -54z m93 48 c0 -6 -11 -23 -25 -38
l-25 -27 0 26 c0 14 5 30 12 37 15 15 38 16 38 2z m157 -23 c-22 -34 -60 -57
-102 -64 l-40 -6 36 44 c20 24 44 44 52 44 9 0 18 3 22 7 3 3 15 3 26 1 18 -5
18 -8 6 -26z m-284 -16 c-29 -42 -47 -54 -36 -23 6 14 4 15 -9 4 -10 -8 -30
-10 -56 -6 l-41 6 20 28 c19 24 27 27 86 29 l65 2 -29 -40z m197 31 c0 -13
-52 -57 -82 -70 -36 -15 -35 -10 4 39 20 25 40 39 55 39 13 0 23 -4 23 -8z
m-104 -129 c-6 -16 -5 -16 12 0 13 12 33 17 56 15 20 -1 36 -3 36 -4 0 0 -21
-23 -48 -50 -26 -27 -64 -69 -84 -94 -35 -43 -38 -44 -44 -22 -5 17 -10 20
-19 12 -9 -7 -15 -7 -19 -1 -4 5 3 12 14 16 11 3 20 10 20 15 0 5 14 25 30 43
28 32 43 64 19 40 -6 -6 -18 -9 -25 -6 -8 3 -21 0 -29 -7 -16 -13 -20 -3 -7
17 6 10 41 25 91 42 2 0 0 -7 -3 -16z m-186 -187 c0 -3 -4 -8 -10 -11 -5 -3
-10 -1 -10 4 0 6 5 11 10 11 6 0 10 -2 10 -4z m75 -6 c3 -5 -3 -10 -15 -10
-12 0 -18 5 -15 10 3 6 10 10 15 10 5 0 12 -4 15 -10z m363 -59 c-16 -26 -38
-35 -38 -16 0 14 40 48 48 41 2 -2 -2 -13 -10 -25z m-48 12 c0 -16 -35 -43
-58 -43 -21 0 -23 2 -11 16 19 23 69 43 69 27z m-340 -7 c0 -2 -3 -11 -6 -20
-8 -22 -25 -20 -17 2 4 11 -5 7 -25 -12 -34 -32 -42 -25 -16 12 12 18 64 33
64 18z m58 -13 c-2 -11 -14 -19 -33 -21 -30 -4 -30 -4 -11 17 23 26 49 28 44
4z m509 -59 c4 -13 -104 -127 -110 -117 -3 5 12 31 34 58 22 26 37 51 33 54
-3 3 -17 -7 -31 -24 -83 -98 -75 -93 -158 -94 -41 0 -75 3 -75 8 0 17 73 91
91 91 23 0 108 20 129 30 19 9 83 5 87 -6z m-487 -20 c0 -16 -75 -94 -91 -94
-24 0 -24 11 1 43 36 45 20 43 -19 -3 -22 -25 -43 -42 -47 -37 -4 4 2 16 14
27 12 12 22 26 22 32 0 7 -17 -4 -37 -23 -21 -18 -32 -27 -25 -19 22 26 12 34
-13 10 -14 -13 -25 -29 -25 -35 0 -14 -38 -50 -45 -43 -10 10 18 69 37 79 11
6 17 17 14 24 -2 7 3 19 12 27 11 9 14 10 8 1 -4 -7 -3 -13 3 -13 5 0 13 5 16
10 8 13 52 13 60 0 5 -8 11 -7 20 0 8 7 19 9 24 6 5 -4 12 -2 16 4 6 10 55 14
55 4z m-221 -164 c-13 -16 -24 -28 -27 -26 -5 6 31 55 41 56 4 0 -2 -13 -14
-30z m578 24 c-3 -3 -12 -4 -19 -1 -8 3 -5 6 6 6 11 1 17 -2 13 -5z m55 -27
c-12 -13 -22 -30 -22 -39 0 -10 -9 -15 -30 -14 -49 2 -38 31 24 65 47 24 58
20 28 -12z m-343 13 c0 -3 -20 -22 -44 -43 -39 -34 -45 -36 -69 -26 -19 9 -29
9 -40 0 -8 -7 -25 -9 -40 -5 l-26 6 26 32 c15 17 33 33 40 36 18 7 154 7 153
0z m-269 -18 c0 -11 -41 -54 -46 -49 -4 4 36 56 44 57 1 0 2 -4 2 -8z m523 0
c7 -9 -28 -52 -42 -52 -15 0 -14 6 5 35 17 25 29 31 37 17z"/>
<path d="M750 1085 c-8 -9 -8 -15 -2 -15 12 0 26 19 19 26 -2 2 -10 -2 -17
-11z"/>
<path d="M1393 1907 c-32 -46 -29 -54 7 -19 29 29 39 52 23 52 -5 0 -18 -15
-30 -33z"/>
<path d="M200 1916 c0 -8 4 -17 8 -20 13 -8 35 11 28 23 -10 16 -36 14 -36 -3z"/>
<path d="M1490 1809 c0 -5 5 -7 10 -4 6 3 10 8 10 11 0 2 -4 4 -10 4 -5 0 -10
-5 -10 -11z"/>
<path d="M1160 1755 c-11 -13 -10 -14 4 -9 9 3 16 10 16 15 0 13 -6 11 -20 -6z"/>
<path d="M1172 1690 c-29 -33 -50 -60 -46 -60 10 0 104 100 104 111 0 15 -3
12 -58 -51z"/>
<path d="M985 1730 c-3 -5 -1 -10 4 -10 6 0 11 5 11 10 0 6 -2 10 -4 10 -3 0
-8 -4 -11 -10z"/>
<path d="M1115 1709 c-11 -17 1 -21 15 -4 8 9 8 15 2 15 -6 0 -14 -5 -17 -11z"/>
<path d="M1065 1650 c-3 -5 -1 -10 4 -10 6 0 11 5 11 10 0 6 -2 10 -4 10 -3 0
-8 -4 -11 -10z"/>
<path d="M1350 1614 c0 -8 5 -12 10 -9 6 3 10 10 10 16 0 5 -4 9 -10 9 -5 0
-10 -7 -10 -16z"/>
<path d="M238 1575 c-16 -36 4 -57 30 -31 16 18 16 19 -1 13 -14 -5 -16 -2
-11 18 8 32 -3 32 -18 0z"/>
<path d="M440 1589 c0 -5 5 -7 10 -4 6 3 10 8 10 11 0 2 -4 4 -10 4 -5 0 -10
-5 -10 -11z"/>
<path d="M1075 1580 c-10 -11 -15 -20 -11 -20 11 0 39 30 34 36 -3 2 -13 -5
-23 -16z"/>
<path d="M347 1575 c-4 -9 -1 -18 9 -22 22 -8 30 5 12 23 -14 14 -16 14 -21
-1z"/>
<path d="M980 1545 c-7 -9 -10 -18 -7 -21 3 -3 10 4 17 15 13 25 8 27 -10 6z"/>
<path d="M336 1481 c-28 -28 -47 -53 -45 -56 9 -8 102 82 98 94 -2 6 -26 -11
-53 -38z"/>
<path d="M900 1509 c0 -5 5 -7 10 -4 6 3 10 8 10 11 0 2 -4 4 -10 4 -5 0 -10
-5 -10 -11z"/>
<path d="M1335 1421 c-6 -11 9 -23 19 -14 9 9 7 23 -3 23 -6 0 -12 -4 -16 -9z"/>
<path d="M870 1360 c0 -5 7 -7 15 -4 8 4 15 8 15 10 0 2 -7 4 -15 4 -8 0 -15
-4 -15 -10z"/>
<path d="M415 1310 c-3 -5 -1 -10 4 -10 6 0 11 5 11 10 0 6 -2 10 -4 10 -3 0
-8 -4 -11 -10z"/>
<path d="M1535 1260 c-10 -11 -16 -22 -13 -25 3 -3 13 4 23 15 10 11 16 22 13
25 -3 3 -13 -4 -23 -15z"/>
<path d="M1530 1190 c0 -5 5 -10 10 -10 6 0 10 5 10 10 0 6 -4 10 -10 10 -5 0
-10 -4 -10 -10z"/>
<path d="M1036 968 c-28 -36 -27 -50 2 -22 18 18 36 54 27 54 -2 0 -15 -14
-29 -32z"/>
<path d="M1520 965 c-7 -9 -11 -18 -8 -20 3 -3 11 1 18 10 7 9 11 18 8 20 -3
3 -11 -1 -18 -10z"/>
<path d="M1381 952 c-11 -20 -19 -22 -84 -22 -33 -1 -43 -20 -27 -50 9 -18 8
-25 -6 -41 -10 -11 -24 -17 -31 -15 -16 6 -45 -22 -37 -35 3 -6 11 -8 18 -6
52 19 58 19 51 -2 l-6 -21 42 19 42 19 38 -24 c21 -13 41 -24 44 -24 12 0 4
24 -12 36 -16 12 -14 13 19 14 21 0 40 6 45 14 4 8 17 14 28 13 11 -1 21 5 23
15 3 16 -3 17 -60 12 -35 -3 -75 -7 -90 -9 -37 -6 -36 11 3 65 20 28 27 46 21
52 -7 7 -14 3 -21 -10z"/>
<path d="M1165 940 c-3 -5 -2 -10 4 -10 5 0 13 5 16 10 3 6 2 10 -4 10 -5 0
-13 -4 -16 -10z"/>
<path d="M1050 915 c-8 -9 -8 -15 -2 -15 12 0 26 19 19 26 -2 2 -10 -2 -17
-11z"/>
<path d="M1610 870 c0 -5 5 -10 11 -10 5 0 7 5 4 10 -3 6 -8 10 -11 10 -2 0
-4 -4 -4 -10z"/>
<path d="M630 824 c0 -8 5 -12 10 -9 6 3 10 10 10 16 0 5 -4 9 -10 9 -5 0 -10
-7 -10 -16z"/>
<path d="M1615 830 c-3 -5 -1 -10 4 -10 6 0 11 5 11 10 0 6 -2 10 -4 10 -3 0
-8 -4 -11 -10z"/>
<path d="M1492 755 c-11 -21 -98 -31 -118 -14 -11 9 -21 9 -37 2 -15 -7 -29
-8 -41 -1 -11 6 -21 6 -30 -1 -8 -6 -20 -9 -28 -6 -14 6 -48 -32 -48 -52 0 -4
4 -2 9 6 7 11 11 9 21 -10 17 -33 16 -32 40 -19 12 7 58 11 101 11 70 -1 79 1
79 17 0 13 12 21 43 28 31 7 42 14 42 28 0 25 -21 32 -33 11z"/>
<path d="M1599 713 l-24 -26 27 19 c15 10 28 22 28 27 0 12 -5 8 -31 -20z"/>
<path d="M1457 673 c-10 -9 -9 -23 2 -23 5 0 11 7 15 15 5 15 -5 20 -17 8z"/>
<path d="M1540 655 c-8 -9 -8 -15 -2 -15 12 0 26 19 19 26 -2 2 -10 -2 -17
-11z"/>
<path d="M1135 630 c-10 -11 -16 -22 -13 -25 3 -3 13 4 23 15 10 11 16 22 13
25 -3 3 -13 -4 -23 -15z"/>
<path d="M1415 620 c-3 -11 -15 -25 -26 -30 -10 -6 -19 -21 -19 -33 0 -21 0
-21 17 3 9 14 19 27 22 30 3 3 15 15 25 28 16 19 17 22 3 22 -9 0 -19 -9 -22
-20z"/>
<path d="M1455 569 c-4 -6 -5 -13 -2 -16 7 -7 27 6 27 18 0 12 -17 12 -25 -2z"/>
<path d="M1315 499 c-11 -17 1 -21 15 -4 8 9 8 15 2 15 -6 0 -14 -5 -17 -11z"/>
<path d="M1625 500 c-3 -5 -1 -10 4 -10 6 0 11 5 11 10 0 6 -2 10 -4 10 -3 0
-8 -4 -11 -10z"/>
<path d="M660 465 c-13 -14 -21 -27 -18 -30 2 -3 15 6 28 20 13 14 21 27 18
30 -2 3 -15 -6 -28 -20z"/>
<path d="M1450 458 l-23 -33 28 27 c16 15 26 30 23 33 -3 4 -16 -9 -28 -27z"/>
<path d="M1381 373 c-30 -36 -38 -53 -25 -53 7 0 23 18 51 58 27 39 7 35 -26
-5z"/>
<path d="M1203 352 c-48 -59 -65 -90 -58 -102 9 -15 27 -11 53 9 27 23 29 35
3 21 -11 -5 -22 -10 -25 -10 -8 0 34 79 45 86 10 6 32 44 25 44 -2 0 -21 -21
-43 -48z"/>
<path d="M820 360 c-6 -11 -7 -20 -2 -20 5 0 17 9 27 20 16 18 16 20 2 20 -9
0 -21 -9 -27 -20z"/>
<path d="M1625 370 c-3 -5 -2 -10 4 -10 5 0 13 5 16 10 3 6 2 10 -4 10 -5 0
-13 -4 -16 -10z"/>
<path d="M1126 310 c-20 -22 -36 -50 -36 -63 1 -19 2 -18 14 8 7 17 21 36 30
44 17 14 40 51 33 51 -3 0 -21 -18 -41 -40z"/>
<path d="M1640 335 c-8 -9 -8 -15 -2 -15 12 0 26 19 19 26 -2 2 -10 -2 -17
-11z"/>
<path d="M1660 266 c0 -9 5 -16 10 -16 6 0 10 4 10 9 0 6 -4 13 -10 16 -5 3
-10 -1 -10 -9z"/>
<path d="M1005 259 c-4 -6 -5 -13 -2 -16 7 -7 27 6 27 18 0 12 -17 12 -25 -2z"/>
<path d="M1286 251 c-10 -11 -29 -22 -42 -25 -14 -4 -22 -11 -19 -16 7 -12 55
11 75 35 19 23 6 29 -14 6z"/>
<path d="M530 230 c-9 -6 -10 -10 -3 -10 6 0 15 5 18 10 8 12 4 12 -15 0z"/>
<path d="M660 229 c0 -5 5 -7 10 -4 6 3 10 8 10 11 0 2 -4 4 -10 4 -5 0 -10
-5 -10 -11z"/>
<path d="M900 199 c0 -5 5 -7 10 -4 6 3 10 8 10 11 0 2 -4 4 -10 4 -5 0 -10
-5 -10 -11z"/>
<path d="M726 191 c-11 -4 -15 -10 -9 -14 5 -3 19 0 29 8 20 15 11 18 -20 6z"/>
</g>
</svg>
