<?xml version="1.0" standalone="no"?>
<!DOCTYPE svg PUBLIC "-//W3C//DTD SVG 20010904//EN"
 "http://www.w3.org/TR/2001/REC-SVG-20010904/DTD/svg10.dtd">
<svg version="1.0" xmlns="http://www.w3.org/2000/svg"
 width="295.000000pt" height="312.000000pt" viewBox="0 0 295.000000 312.000000"
 preserveAspectRatio="xMidYMid meet">
<metadata>
Created by potrace 1.16, written by Peter Selinger 2001-2019
</metadata>
<g transform="translate(0.000000,312.000000) scale(0.100000,-0.100000)"
fill="#000000" stroke="none">
<path d="M1080 3090 c-25 -4 -164 -13 -310 -19 -146 -7 -319 -17 -385 -23 -66
-5 -159 -11 -208 -12 -73 -2 -90 -6 -106 -23 -26 -27 -36 -101 -22 -160 6 -26
14 -118 17 -203 4 -85 8 -175 10 -200 10 -149 -11 -1234 -33 -1675 -7 -150 -7
-237 0 -470 2 -46 6 -60 17 -60 8 0 23 -8 33 -18 11 -11 27 -17 36 -14 10 2
26 -2 36 -9 12 -9 46 -14 91 -14 41 0 76 -5 79 -11 5 -7 101 -9 298 -7 255 2
295 1 317 -14 22 -14 45 -15 195 -7 157 9 488 5 504 -6 14 -8 358 -6 601 4
135 5 304 6 375 2 72 -4 134 -4 139 0 5 5 29 6 53 2 24 -3 43 -2 43 4 0 5 8
18 18 29 40 43 39 -5 21 689 -7 281 -11 728 -10 995 2 473 -1 557 -34 870 -8
74 -12 151 -10 170 5 36 -13 100 -27 100 -4 0 -8 13 -8 29 0 23 -6 30 -26 35
-36 9 -809 7 -982 -3 -79 -4 -164 -4 -190 0 -26 5 -74 13 -107 19 -68 11 -357
12 -425 0z m370 -10 c14 -4 -47 -8 -140 -8 -101 0 -157 3 -145 8 25 11 251 11
285 0z m484 -185 c24 -87 71 -343 64 -351 -12 -11 -46 10 -46 29 0 12 -12 60
-27 105 -14 46 -36 130 -47 185 -11 56 -22 112 -25 124 -4 17 0 22 18 25 28 4
28 3 63 -117z m-443 68 c-82 -103 -78 -99 -100 -85 -23 13 -28 3 -9 -16 9 -9
5 -19 -18 -44 -16 -18 -32 -34 -36 -36 -4 -2 -5 -9 -2 -17 5 -11 -4 -11 -45 3
-38 12 -48 18 -36 24 8 5 15 15 15 21 0 7 12 24 28 38 50 46 112 121 106 130
-3 5 -10 6 -16 3 -7 -4 -8 -2 -4 4 4 7 35 12 77 12 l71 0 -31 -37z m819 -18
c3 -27 25 -101 49 -162 23 -62 39 -118 35 -124 -4 -7 -3 -9 3 -6 6 4 14 -5 18
-21 3 -15 15 -45 25 -67 10 -22 28 -64 39 -93 l19 -53 -36 7 c-21 4 -37 7 -37
8 0 0 -14 28 -32 62 -17 33 -45 94 -61 135 -33 82 -122 345 -122 358 0 5 21 8
48 7 l47 -1 5 -50z m-1642 13 c26 -12 49 -26 50 -30 2 -4 8 -8 14 -8 6 0 37
-12 69 -26 44 -20 59 -32 60 -48 1 -17 2 -17 6 -3 6 23 23 22 85 -7 29 -14 89
-36 133 -49 44 -14 177 -57 295 -96 118 -38 253 -81 300 -95 47 -13 112 -34
145 -45 57 -20 224 -67 470 -133 61 -16 126 -31 145 -33 30 -3 343 -74 346
-78 1 -1 4 -22 8 -46 6 -39 5 -43 -11 -37 -10 4 -76 18 -146 31 -70 14 -135
29 -145 34 -9 4 -39 12 -67 16 -27 4 -70 15 -95 25 -25 10 -79 28 -120 40 -41
13 -85 29 -97 37 -15 8 -23 10 -23 3 0 -6 -4 -8 -10 -5 -5 3 -18 8 -27 10 -70
17 -176 50 -264 83 -143 54 -407 142 -449 151 -19 4 -48 15 -65 23 -16 9 -70
28 -120 42 -49 15 -126 40 -170 56 -44 16 -107 36 -140 45 -33 10 -74 25 -91
35 -17 10 -45 21 -62 25 -17 3 -47 17 -66 30 -19 13 -45 26 -57 29 -13 4 -42
12 -64 19 l-40 12 30 6 c63 14 125 9 173 -13z m-326 -27 c-10 -6 -11 -17 -4
-47 6 -21 16 -84 22 -139 15 -123 16 -128 28 -190 11 -52 36 -136 52 -170 5
-11 20 -58 33 -105 24 -81 72 -213 121 -330 13 -30 36 -86 51 -125 36 -91 131
-281 161 -322 13 -17 24 -36 24 -41 0 -5 7 -15 15 -22 13 -11 63 -84 120 -175
10 -16 23 -35 29 -41 15 -16 39 -47 51 -66 6 -9 40 -55 77 -102 37 -47 83
-108 102 -136 43 -62 95 -131 110 -145 6 -5 26 -30 45 -55 41 -55 279 -290
327 -322 18 -13 34 -26 34 -30 0 -4 -16 -10 -35 -14 -29 -5 -43 -1 -78 22 -65
45 -333 321 -389 401 -28 40 -54 73 -59 73 -5 0 -9 5 -9 11 0 14 -90 149 -139
209 -67 81 -197 294 -193 316 1 6 -9 17 -23 24 -14 7 -25 18 -25 23 0 5 -20
41 -44 81 -38 60 -72 125 -121 228 -5 12 -22 44 -38 72 -76 142 -89 176 -90
237 0 42 -4 59 -12 55 -15 -5 -130 312 -144 399 -6 33 -22 123 -36 200 -14 77
-25 154 -25 170 0 17 -5 37 -10 45 -8 12 -2 17 28 26 38 12 70 1 44 -15z
m2428 -17 c0 -8 -4 -12 -10 -9 -5 3 -10 10 -10 16 0 5 5 9 10 9 6 0 10 -7 10
-16z m-1561 -260 c5 -4 -193 -209 -253 -263 -16 -14 -55 -52 -88 -84 l-59 -57
-30 21 c-29 20 -31 39 -5 39 8 0 33 21 57 48 23 26 101 108 172 183 l130 137
36 -10 c20 -6 38 -12 40 -14z m-1005 -103 c4 -5 26 -19 51 -31 26 -13 45 -29
45 -38 0 -10 3 -27 6 -38 6 -21 5 -21 -47 -8 -29 8 -57 18 -63 24 -5 5 -18 10
-28 10 -15 0 -18 8 -18 48 0 27 3 52 6 55 7 7 40 -8 48 -22z m355 -191 c39
-27 96 -63 129 -79 32 -16 80 -46 105 -65 26 -20 50 -36 53 -36 3 0 31 -17 62
-39 32 -21 97 -62 146 -91 64 -39 84 -55 75 -62 -11 -7 -11 -9 1 -7 8 1 33 1
55 0 l40 -2 -60 -31 c-45 -23 -60 -27 -64 -17 -6 21 -98 103 -139 124 -20 11
-58 32 -83 47 -25 16 -54 28 -63 28 -9 0 -16 4 -16 9 0 11 -155 114 -197 130
-54 22 -96 59 -110 98 -7 21 -13 39 -13 41 0 7 17 -3 79 -48z m-402 8 c-3 -7
-5 -2 -5 12 0 14 2 19 5 13 2 -7 2 -19 0 -25z m1872 16 c2 -2 7 -36 11 -76 5
-40 16 -97 25 -126 9 -29 15 -70 13 -90 -3 -33 -6 -37 -28 -34 -27 4 -53 22
-32 22 9 0 9 6 -1 23 -18 29 -33 85 -47 177 -6 41 -14 85 -16 97 -4 20 -1 21
33 16 21 -3 40 -7 42 -9z m523 -150 c20 -5 29 -14 33 -36 14 -62 117 -280 173
-367 l16 -23 -52 26 c-33 17 -52 33 -52 44 0 10 -4 22 -9 27 -6 6 -48 86 -95
178 -72 145 -82 168 -63 163 12 -4 34 -9 49 -12z m-1658 -13 c3 -4 -6 -7 -20
-5 -35 3 -43 14 -11 14 14 0 28 -4 31 -9z m-211 -45 c9 -7 17 -16 17 -19 0 -3
-22 -29 -49 -57 -55 -58 -57 -57 -79 23 -9 33 -9 38 4 33 9 -3 27 3 41 14 30
23 41 24 66 6z m1494 -28 c-3 -8 -6 -5 -6 6 -1 11 2 17 5 13 3 -3 4 -12 1 -19z
m-239 -75 c-10 -2 -26 -2 -35 0 -10 3 -2 5 17 5 19 0 27 -2 18 -5z m137 -59
c224 -42 284 -59 399 -115 43 -22 84 -39 91 -39 8 0 27 -13 43 -30 19 -18 36
-28 46 -24 8 3 28 -3 43 -14 15 -11 39 -23 53 -27 41 -12 50 -25 50 -74 0 -28
-4 -41 -9 -33 -16 26 -434 227 -516 249 -219 58 -239 60 -480 64 -69 0 -121
-4 -140 -12 -16 -6 -40 -11 -53 -10 -24 3 -48 -2 -232 -45 -128 -31 -142 -36
-254 -91 -105 -52 -161 -90 -232 -159 -41 -39 -52 -56 -47 -72 9 -35 -10 -25
-35 18 l-23 40 25 0 c16 0 43 19 82 60 33 33 65 58 72 55 7 -3 11 -1 8 4 -8
12 116 103 174 129 25 11 80 36 123 56 118 53 192 71 342 83 44 3 82 8 85 10
10 9 307 -9 385 -23z m-1609 -30 l12 -36 -127 -125 c-69 -69 -136 -132 -148
-140 -39 -26 -53 -11 -53 57 0 54 2 61 18 56 11 -4 32 9 62 37 25 23 74 67
110 97 35 30 73 63 84 73 27 23 29 22 42 -19z m1617 -73 c26 -10 47 -55 47
-100 0 -15 9 -51 19 -81 10 -30 27 -95 36 -145 9 -49 25 -112 35 -140 10 -27
29 -83 42 -124 16 -50 29 -76 43 -82 14 -5 2 -8 -38 -8 -36 -1 -56 3 -52 9 8
12 -44 203 -100 375 -24 72 -46 150 -50 175 -4 25 -16 62 -26 82 -11 21 -19
40 -19 43 0 8 36 6 63 -4z m-764 -75 c7 -8 36 -27 64 -41 29 -15 63 -37 77
-49 29 -26 85 -62 155 -101 28 -15 93 -56 145 -90 115 -76 269 -170 330 -202
61 -32 78 -52 82 -93 2 -30 0 -35 -19 -38 -13 -2 -23 3 -25 12 -3 14 -164 123
-464 316 -439 281 -442 283 -391 293 12 2 25 5 28 6 4 0 12 -5 18 -13z m-869
-16 c0 -5 -4 -10 -10 -10 -5 0 -10 5 -10 10 0 6 5 10 10 10 6 0 10 -4 10 -10z
m307 -152 c-3 -8 -6 -5 -6 6 -1 11 2 17 5 13 3 -3 4 -12 1 -19z m2040 -63 c9
-25 -4 -29 -17 -6 -7 15 -7 21 0 21 6 0 13 -7 17 -15z m-2111 -57 c1 -8 14
-34 30 -58 25 -37 26 -43 12 -51 -66 -37 -123 -367 -99 -568 6 -53 14 -121 16
-151 6 -68 20 -128 56 -250 16 -52 29 -98 29 -103 0 -4 -12 -7 -27 -5 -24 3
-30 11 -48 63 -11 33 -26 70 -33 83 -7 12 -20 64 -28 113 -8 50 -18 99 -23
108 -4 9 -16 56 -26 104 -13 64 -15 91 -7 96 6 3 8 12 4 18 -19 30 20 342 49
395 5 10 9 24 9 32 0 7 7 19 15 26 21 18 65 100 65 122 0 13 -5 18 -14 15 -10
-4 -12 0 -9 14 6 23 25 21 29 -3z m-56 -53 c0 -8 -4 -15 -10 -15 -5 0 -10 7
-10 15 0 8 5 15 10 15 6 0 10 -7 10 -15z m-483 -77 c-3 -8 -6 -5 -6 6 -1 11 2
17 5 13 3 -3 4 -12 1 -19z m2221 -13 c-3 -3 -9 2 -12 12 -6 14 -5 15 5 6 7 -7
10 -15 7 -18z m-2083 -79 c33 -15 68 -31 77 -36 10 -6 24 -10 33 -10 8 0 39
-12 70 -26 39 -19 55 -32 55 -46 0 -15 -4 -18 -17 -13 -10 4 -74 24 -143 45
-69 21 -138 43 -153 49 -16 6 -42 11 -58 11 -19 0 -29 5 -29 15 0 8 5 15 11
15 6 0 8 7 5 16 -3 9 -4 19 -1 24 6 10 68 -9 150 -44z m2523 -123 l3 -30 -113
-10 c-62 -6 -124 -11 -138 -12 -42 -1 -516 -60 -655 -81 -313 -48 -459 -74
-503 -91 -15 -6 -51 -17 -80 -24 -53 -14 -54 -14 -77 13 -14 15 -25 30 -25 34
-1 21 442 121 655 148 274 36 285 37 555 55 124 9 254 19 290 24 83 11 84 10
88 -26z m-2094 -12 c3 -4 27 -16 53 -25 90 -33 128 -50 139 -63 6 -7 24 -14
39 -15 18 -2 39 -17 67 -51 22 -26 38 -51 34 -54 -3 -4 -12 1 -19 9 -12 16
-108 50 -272 98 -44 13 -81 25 -83 26 -1 1 0 20 4 43 6 38 25 54 38 32z m1624
-113 c-1 -7 3 -22 9 -33 6 -11 21 -63 33 -115 13 -52 33 -134 46 -182 l23 -88
-28 0 c-36 0 -42 8 -76 105 -21 62 -85 294 -85 310 0 2 15 6 33 8 17 2 36 5
40 5 4 1 7 -4 5 -10z m175 -63 c116 -78 271 -195 308 -232 17 -17 20 -28 15
-57 -7 -35 -19 -46 -31 -26 -8 13 -169 142 -295 235 -62 46 -110 89 -117 105
-6 16 -19 33 -30 39 -16 9 -15 10 10 11 18 0 66 -26 140 -75z m-1413 -95 c11
-21 20 -41 20 -42 0 -2 -15 -3 -32 -3 -32 -1 -118 -11 -148 -18 -57 -14 -111
-32 -150 -52 -90 -45 -110 -41 -110 23 0 19 3 23 11 15 8 -8 23 -6 54 7 70 30
263 90 289 90 14 0 28 5 31 10 10 16 13 13 35 -30z m350 -25 c30 -10 60 -21
65 -25 6 -4 46 -16 90 -25 44 -10 125 -33 180 -50 55 -18 134 -41 175 -50 41
-9 107 -27 145 -40 39 -13 95 -29 125 -36 30 -6 73 -18 96 -25 22 -7 79 -22
125 -33 46 -11 111 -29 144 -40 33 -11 82 -23 109 -27 27 -3 61 -13 75 -20 33
-17 58 -18 65 -1 3 6 4 0 1 -15 -3 -15 -1 -29 4 -32 5 -3 7 -15 4 -25 -4 -16
-9 -18 -36 -10 -38 12 -133 34 -357 84 -97 21 -196 50 -240 70 -41 18 -95 36
-120 40 -43 6 -104 21 -285 67 -74 19 -148 45 -300 104 -33 12 -78 28 -100 35
-22 6 -49 15 -60 19 -11 5 -28 11 -37 14 -31 10 -20 34 20 43 20 6 42 7 47 3
6 -4 35 -15 65 -25z m-1383 -137 c-3 -8 -6 -5 -6 6 -1 11 2 17 5 13 3 -3 4
-12 1 -19z m460 -26 c9 -47 9 -48 -13 -44 -12 2 -37 -3 -55 -11 -19 -9 -52
-21 -74 -28 -22 -8 -53 -22 -70 -31 -16 -10 -46 -26 -65 -36 -19 -9 -49 -27
-67 -39 -41 -30 -53 -29 -53 5 0 29 13 44 60 72 41 23 314 160 321 160 4 0 11
-22 16 -48z m1943 -252 c10 0 23 -25 39 -77 13 -43 26 -84 29 -90 3 -9 -8 -13
-35 -13 -37 0 -41 2 -51 38 -6 20 -14 57 -17 82 -3 24 -11 51 -18 59 -10 12
-8 13 13 8 14 -4 32 -7 40 -7z"/>
<path d="M555 900 c3 -5 10 -10 16 -10 5 0 9 5 9 10 0 6 -7 10 -16 10 -8 0
-12 -4 -9 -10z"/>
<path d="M2590 50 c0 -5 5 -10 10 -10 6 0 10 5 10 10 0 6 -4 10 -10 10 -5 0
-10 -4 -10 -10z"/>
</g>
</svg>
