<?xml version="1.0" standalone="no"?>
<!DOCTYPE svg PUBLIC "-//W3C//DTD SVG 20010904//EN"
 "http://www.w3.org/TR/2001/REC-SVG-20010904/DTD/svg10.dtd">
<svg version="1.0" xmlns="http://www.w3.org/2000/svg"
 width="421.000000pt" height="106.000000pt" viewBox="0 0 421.000000 106.000000"
 preserveAspectRatio="xMidYMid meet">
<metadata>
Created by potrace 1.16, written by Peter Selinger 2001-2019
</metadata>
<g transform="translate(0.000000,106.000000) scale(0.100000,-0.100000)"
fill="#000000" stroke="none">
<path d="M3040 1054 c-8 -2 -78 -8 -155 -13 -77 -6 -204 -16 -283 -22 -87 -8
-146 -9 -152 -3 -5 5 -103 6 -242 3 -128 -4 -365 -7 -525 -8 -256 -1 -293 -3
-293 -16 0 -14 -33 -15 -265 -15 -146 1 -270 -2 -277 -6 -7 -4 -103 -6 -213
-5 -174 2 -230 6 -280 22 -5 1 -67 -1 -137 -5 -122 -8 -128 -9 -145 -35 -13
-20 -16 -43 -14 -101 3 -81 5 -557 2 -655 -1 -49 -5 -63 -24 -77 -37 -29 -9
-38 144 -48 79 -6 173 -15 209 -21 36 -6 256 -13 490 -16 234 -3 495 -9 580
-12 198 -8 662 4 805 19 64 7 281 13 520 15 240 1 449 7 505 13 52 7 221 15
375 17 154 3 314 9 355 14 41 5 96 8 123 8 55 0 66 7 49 34 -8 13 -14 90 -18
237 -2 119 -9 275 -15 347 -6 71 -9 174 -8 230 l4 100 -550 1 c-302 0 -557 -1
-565 -2z m1010 -60 c5 -5 12 -28 16 -51 6 -38 4 -43 -12 -43 -18 -1 -18 -1 -1
-14 10 -8 17 -26 17 -45 0 -31 0 -31 -24 -16 -19 13 -32 14 -60 7 -24 -7 -36
-7 -39 1 -4 13 -37 2 -37 -13 0 -6 27 -10 63 -11 52 0 58 -2 40 -11 -13 -6
-23 -19 -23 -29 0 -10 -13 -25 -30 -34 -43 -22 -51 -20 -38 15 19 55 3 61
-141 56 l-126 -5 120 12 c66 7 114 15 107 17 -8 3 -50 2 -95 -2 -132 -11 -202
-12 -219 -2 -9 5 -58 6 -110 2 -51 -3 -145 -7 -208 -9 l-115 -3 85 -5 c75 -5
81 -7 50 -15 -19 -5 -29 -11 -22 -13 6 -3 12 -20 12 -39 0 -28 -4 -34 -22 -35
l-23 -2 23 -4 c12 -2 22 -9 22 -14 0 -5 -10 -10 -22 -10 -21 -1 -21 -2 -3 -6
36 -9 51 -63 18 -63 -17 -1 -17 -1 0 -11 13 -7 17 -23 17 -61 l0 -51 -24 45
c-13 24 -32 71 -42 104 -22 73 -18 62 -40 111 -19 42 -36 51 -63 34 -10 -7
-15 -32 -15 -89 -1 -44 -4 -84 -8 -88 -4 -4 -5 -11 -2 -16 4 -6 6 -61 5 -124
l-2 -114 33 0 c45 0 62 13 55 41 -11 46 -19 189 -10 189 10 0 38 -62 48 -107
13 -61 49 -118 77 -121 31 -4 36 8 40 91 2 36 7 56 14 53 6 -2 17 0 25 5 10 6
6 9 -15 9 -21 0 -27 4 -22 16 3 9 6 27 6 40 0 15 6 24 16 24 8 0 12 -4 9 -10
-3 -5 3 -10 14 -10 28 0 27 -20 -1 -21 l-23 -2 22 -4 c21 -4 23 -9 22 -88 0
-47 2 -88 5 -94 8 -12 76 -20 76 -8 0 5 7 1 16 -7 19 -20 25 -20 60 -1 16 8
46 15 66 15 20 0 40 5 44 12 5 8 -1 9 -22 5 -26 -5 -31 -2 -43 23 -7 16 -10
34 -7 39 4 6 -19 9 -56 8 l-63 -2 0 30 c0 27 3 30 35 33 19 1 46 5 60 8 23 6
24 7 5 14 -18 8 -18 9 -1 9 12 1 16 6 12 16 -4 11 5 17 37 22 l42 8 -40 6 -40
6 38 2 c21 0 45 8 53 16 14 13 12 15 -13 15 -16 0 -33 -4 -38 -8 -6 -5 -28 -3
-50 4 l-40 12 68 1 c37 1 67 5 67 9 0 5 -43 7 -95 4 -67 -3 -95 -1 -95 7 0 17
12 19 144 26 l118 7 -6 -74 c-4 -40 -7 -116 -8 -168 0 -52 -5 -98 -11 -101 -5
-4 0 -10 12 -14 11 -3 21 -11 21 -16 0 -5 10 -7 23 -5 12 3 63 5 114 5 65 1
96 5 106 15 9 9 32 14 60 13 l47 -2 -2 -56 c-1 -51 -3 -56 -22 -52 -20 3 -20
3 1 -8 12 -6 24 -19 27 -28 3 -9 8 -21 11 -27 4 -7 -6 -12 -22 -12 -15 -1 -55
-4 -88 -7 -44 -4 -56 -3 -45 5 8 6 31 9 50 8 29 -2 35 0 35 17 0 18 -7 20 -87
20 -48 0 -84 2 -82 5 3 3 9 5 12 6 53 4 90 17 85 30 -3 9 0 12 9 9 8 -3 20 1
27 9 10 12 8 17 -8 26 -19 10 -25 7 -22 -13 0 -4 -11 -7 -25 -7 -14 0 -22 -4
-19 -10 4 -6 -10 -7 -35 -4 -25 4 -46 1 -55 -6 -11 -9 -18 -9 -29 3 -23 22
-10 27 71 27 41 0 72 4 69 9 -3 4 -74 8 -158 8 -84 0 -141 -2 -125 -4 15 -2
32 -13 38 -25 13 -23 4 -37 -13 -20 -14 14 -64 16 -73 2 -4 -6 -15 -5 -30 2
-27 12 -59 4 -53 -14 3 -7 15 -13 29 -13 70 -3 79 -6 79 -21 0 -12 -6 -15 -22
-11 -28 8 -70 -2 -62 -14 3 -5 25 -7 50 -5 26 3 42 1 39 -5 -4 -5 -17 -9 -31
-9 -13 0 -24 -4 -24 -10 0 -15 -38 -12 -47 3 -4 8 -29 22 -55 32 -27 10 -48
19 -48 22 0 2 12 9 28 15 23 9 24 12 8 16 -30 7 -106 -8 -106 -21 0 -8 -26
-12 -80 -13 -44 -1 -80 3 -80 7 0 5 26 9 58 10 58 1 59 2 9 13 -15 4 -25 11
-22 16 3 5 -9 7 -27 4 -18 -3 -58 -1 -88 4 -53 9 -50 10 48 11 61 1 101 -3 97
-8 -7 -12 21 -18 58 -13 31 5 37 22 7 22 -11 0 -20 4 -20 9 0 6 -24 11 -52 13
l-53 3 35 12 c31 10 24 11 -67 12 -60 1 -104 -3 -108 -9 -4 -7 -57 -10 -138
-10 -73 1 -146 -3 -164 -9 -33 -10 -47 -9 -121 3 -49 9 -145 -2 -136 -15 3 -5
68 -9 145 -9 107 0 144 -3 154 -14 12 -12 10 -15 -18 -21 -18 -4 -71 -8 -119
-10 -94 -3 -138 -11 -138 -24 0 -4 18 -7 40 -6 22 1 43 -1 45 -5 7 -11 -87
-30 -143 -29 -46 1 -47 1 -14 10 67 20 17 28 -154 27 -141 -2 -177 -5 -183
-16 -7 -12 -15 -13 -37 -5 -16 6 -38 7 -49 3 -11 -4 -23 -6 -27 -4 -5 4 -115
4 -285 0 -24 0 -43 -4 -43 -8 0 -5 -3 -7 -7 -7 -24 4 -73 -2 -73 -8 0 -5 46
-7 102 -5 69 2 98 0 88 -7 -8 -5 -27 -7 -42 -4 -15 3 -34 1 -41 -5 -8 -7 -60
-10 -144 -9 -102 3 -136 7 -156 20 -16 10 -28 13 -32 7 -3 -6 -1 -10 6 -10 8
0 9 -3 3 -8 -5 -4 -72 -5 -149 -2 -105 5 -142 4 -147 -5 -10 -17 -58 -6 -58
12 0 10 6 13 16 9 9 -4 26 -4 37 0 28 9 2 24 -43 24 -47 0 -81 10 -74 21 3 5
-9 9 -25 9 -46 0 -37 17 17 34 l47 15 -46 0 c-25 1 -68 4 -94 8 -35 4 -46 3
-41 -5 5 -8 -2 -12 -21 -13 -15 0 -37 -4 -48 -9 -18 -8 -17 -9 7 -9 20 -1 26
-5 22 -16 -7 -17 -74 -21 -74 -5 0 6 -24 11 -52 12 l-53 1 45 4 c25 3 50 9 55
14 7 7 4 10 -10 9 -32 -4 -49 -1 -41 7 4 4 42 7 84 6 58 -1 68 1 42 7 -19 4
-29 8 -22 9 24 2 1 21 -26 21 -24 0 -24 -1 -8 -13 15 -11 9 -12 -40 -6 -120
15 -170 8 -92 -12 30 -8 28 -8 -12 -4 -31 2 -49 10 -59 24 -7 12 -22 21 -32
21 -11 0 -19 4 -19 8 0 5 -13 7 -30 4 -18 -3 -30 0 -30 7 0 16 56 14 89 -3 15
-8 51 -15 79 -14 28 0 55 -3 61 -6 5 -4 12 -2 16 4 7 11 -23 15 -90 12 -34 -1
-36 0 -18 8 13 5 23 14 23 20 0 13 205 2 232 -11 10 -6 19 -5 23 1 3 5 45 10
92 10 48 0 84 2 81 5 -8 8 -114 17 -183 16 -43 -1 -56 1 -45 9 8 5 41 10 72
10 32 0 60 5 64 12 5 8 2 9 -9 5 -12 -4 -17 -1 -17 9 0 11 6 15 19 11 12 -3
27 3 37 14 17 18 15 19 -37 20 -30 0 -48 3 -41 6 23 9 12 20 -30 29 l-43 8 54
5 c50 6 53 7 36 21 -11 9 -16 10 -11 3 4 -8 2 -13 -8 -13 -19 0 -33 23 -18 28
24 8 11 22 -20 23 -31 1 -32 1 -8 9 23 7 21 10 -10 14 -25 3 -12 21 18 24 60
6 32 20 -48 23 -74 4 -114 19 -96 36 4 4 31 6 61 5 35 -1 55 2 55 9 0 6 -8 13
-18 16 -19 4 -29 53 -12 53 6 0 10 4 10 9 0 5 -54 12 -120 16 -151 9 -149 27
3 25 62 0 122 0 135 0 19 0 22 6 22 36 l0 36 -76 -6 c-79 -7 -147 0 -139 14 2
4 155 6 340 5 184 -1 335 2 335 5 0 4 38 8 84 8 47 0 97 3 113 6 53 11 408 27
578 26 94 0 224 4 290 9 66 6 260 13 430 16 412 7 626 16 619 26 -7 12 -17 11
141 18 190 8 495 5 505 -5z m-672 -11 c-10 -2 -26 -2 -35 0 -10 3 -2 5 17 5
19 0 27 -2 18 -5z m-2131 -29 c-3 -3 -12 -4 -19 -1 -8 3 -5 6 6 6 11 1 17 -2
13 -5z m2271 -141 c-16 -2 -40 -2 -55 0 -16 2 -3 4 27 4 30 0 43 -2 28 -4z
m-135 -10 c-7 -2 -19 -2 -25 0 -7 3 -2 5 12 5 14 0 19 -2 13 -5z m257 -18 c-7
-8 -25 -15 -40 -15 -16 0 -30 7 -34 15 -4 12 4 15 41 15 39 0 44 -2 33 -15z
m-3132 -16 c12 -19 11 -20 -25 -13 -48 9 -51 11 -22 23 33 13 33 13 47 -10z
m2882 2 c0 -11 -39 -25 -47 -18 -3 3 -2 10 2 16 8 13 45 15 45 2z m-2720 -31
c11 -7 7 -10 -18 -10 -20 0 -31 4 -27 10 8 13 26 13 45 0z m2960 0 c0 -5 -9
-10 -20 -10 -11 0 -23 -1 -27 -2 -3 -2 -8 3 -10 10 -3 8 6 12 26 12 17 0 31
-4 31 -10z m-242 -10 c-1 -5 -6 -10 -10 -10 -5 0 -15 0 -23 0 -8 0 -15 5 -15
10 0 6 12 10 26 10 14 0 24 -4 22 -10z m695 -97 c11 -163 9 -203 -6 -197 -20
7 -43 152 -29 175 7 11 8 20 2 24 -24 15 -6 105 20 105 4 0 10 -48 13 -107z
m-3338 77 c7 -12 -154 -12 -200 0 -20 5 9 8 82 9 65 1 114 -3 118 -9z m-320
-10 c3 -5 -1 -10 -9 -10 -8 0 -18 5 -21 10 -3 6 1 10 9 10 8 0 18 -4 21 -10z
m3215 0 c-76 -11 -183 -11 -150 0 14 4 66 8 115 8 83 -1 86 -1 35 -8z m219 -3
c10 15 111 3 111 -13 0 -8 -8 -15 -17 -16 -36 -3 -69 -7 -100 -14 -30 -6 -33
-4 -33 19 0 25 21 43 29 24 2 -5 6 -5 10 0z m-469 -7 c0 -5 -11 -10 -25 -10
-14 0 -25 5 -25 10 0 6 11 10 25 10 14 0 25 -4 25 -10z m-3107 -27 c-7 -2 -19
-2 -25 0 -7 3 -2 5 12 5 14 0 19 -2 13 -5z m144 1 c-3 -3 -12 -4 -19 -1 -8 3
-5 6 6 6 11 1 17 -2 13 -5z m216 -1 c-7 -2 -19 -2 -25 0 -7 3 -2 5 12 5 14 0
19 -2 13 -5z m2747 -8 c0 -9 -9 -15 -25 -15 -16 0 -25 6 -25 15 0 9 9 15 25
15 16 0 25 -6 25 -15z m-2795 -15 c7 -12 -50 -12 -115 -1 -42 8 -39 9 32 10
42 0 80 -3 83 -9z m3375 -9 c0 -10 -35 -13 -120 -13 -63 0 -11 16 66 20 33 2
54 -1 54 -7z m-3262 -8 c-10 -2 -26 -2 -35 0 -10 3 -2 5 17 5 19 0 27 -2 18
-5z m2682 -3 c0 -5 -15 -9 -32 -9 l-33 1 30 8 c17 4 31 8 33 9 1 0 2 -3 2 -9z
m-3080 -20 c0 -5 -7 -10 -15 -10 -8 0 -15 5 -15 10 0 6 7 10 15 10 8 0 15 -4
15 -10z m410 -6 c0 -2 -12 -4 -27 -4 -21 0 -24 3 -14 9 13 8 41 5 41 -5z
m3250 2 c0 -29 -31 -46 -83 -47 l-52 -1 49 -9 c28 -4 53 -6 58 -3 4 3 8 -9 8
-25 0 -30 -1 -31 -46 -31 -43 0 -45 -1 -28 -17 13 -13 19 -14 22 -5 2 6 8 12
13 12 6 0 7 -4 4 -10 -3 -6 5 -10 19 -10 44 0 37 -17 -11 -24 -81 -11 -103 -8
-103 13 0 11 6 22 13 24 9 4 9 8 1 14 -7 4 -13 28 -15 53 l-4 45 50 8 c28 5
57 13 65 17 23 13 40 11 40 -4z m-3404 -8 c7 -10 -39 -9 -91 2 -37 8 -36 8 23
8 35 -1 65 -5 68 -10z m-339 -24 c-3 -3 -12 -4 -19 -1 -8 3 -5 6 6 6 11 1 17
-2 13 -5z m520 -10 c-3 -3 -12 -4 -19 -1 -8 3 -5 6 6 6 11 1 17 -2 13 -5z
m-157 -46 c0 -10 -88 -8 -120 2 -17 6 -2 8 47 7 40 -1 73 -5 73 -9z m97 6 c-3
-3 -12 -4 -19 -1 -8 3 -5 6 6 6 11 1 17 -2 13 -5z m56 -1 c-7 -2 -21 -2 -30 0
-10 3 -4 5 12 5 17 0 24 -2 18 -5z m-443 -29 c0 -2 -18 -4 -41 -4 -22 0 -38 4
-35 8 5 8 76 4 76 -4z m175 -4 c3 -5 -3 -10 -14 -10 -11 0 -23 5 -26 10 -3 6
3 10 14 10 11 0 23 -4 26 -10z m298 -7 c3 -5 -23 -7 -56 -5 -104 5 -116 9 -30
11 45 0 84 -2 86 -6z m-430 -40 c-7 -2 -19 -2 -25 0 -7 3 -2 5 12 5 14 0 19
-2 13 -5z m106 -4 c-16 -6 -35 -6 -50 0 -20 8 -16 10 26 10 43 -1 46 -2 24
-10z m151 7 c0 -2 -11 -6 -25 -8 -14 -3 -25 -1 -25 3 0 5 11 9 25 9 14 0 25
-2 25 -4z m37 -2 c-3 -3 -12 -4 -19 -1 -8 3 -5 6 6 6 11 1 17 -2 13 -5z m198
-24 c-3 -5 -12 -10 -20 -10 -8 0 -17 5 -20 10 -4 6 5 10 20 10 15 0 24 -4 20
-10z m55 0 c0 -5 -4 -10 -10 -10 -5 0 -10 5 -10 10 0 6 5 10 10 10 6 0 10 -4
10 -10z m-172 -7 c-10 -2 -28 -2 -40 0 -13 2 -5 4 17 4 22 1 32 -1 23 -4z
m3262 -7 c0 -8 -6 -17 -12 -19 -8 -3 -5 -6 5 -6 10 -1 16 -5 12 -10 -9 -16
-85 -22 -145 -12 -53 8 -53 9 -15 10 26 2 34 5 23 9 -35 14 -22 27 32 33 94
10 100 10 100 -5z m-3595 -36 l20 -9 -20 0 c-11 0 -29 4 -40 9 l-20 9 20 0
c11 0 29 -4 40 -9z m338 3 c-13 -2 -35 -2 -50 0 -16 2 -5 4 22 4 28 0 40 -2
28 -4z m-170 -10 c-7 -2 -21 -2 -30 0 -10 3 -4 5 12 5 17 0 24 -2 18 -5z
m-250 -20 c-7 -2 -19 -2 -25 0 -7 3 -2 5 12 5 14 0 19 -2 13 -5z m2902 -33 c3
-5 -1 -10 -10 -10 -9 0 -13 5 -10 10 3 6 8 10 10 10 2 0 7 -4 10 -10z m555
-31 c0 -10 -12 -11 -34 -3 -9 3 -14 10 -11 14 6 10 45 1 45 -11z m-3320 2 l45
-8 -40 -1 c-22 0 -53 4 -70 8 -27 7 -28 8 -5 8 14 0 45 -3 70 -7z m2662 -62
c13 -1 0 -5 -29 -9 -29 -4 -67 -6 -85 -5 -18 2 -51 4 -73 5 -30 2 -19 6 45 14
47 7 93 8 102 4 9 -4 27 -9 40 -9z m628 1 c21 0 0 -16 -32 -24 -24 -5 -28 -3
-28 15 0 17 4 20 23 15 12 -3 29 -6 37 -6z m-3460 -10 c0 -5 -15 -10 -34 -10
-19 0 -38 5 -41 10 -4 6 10 10 34 10 23 0 41 -4 41 -10z m2425 -10 c-3 -5 -15
-10 -26 -10 -11 0 -17 5 -14 10 3 6 15 10 26 10 11 0 17 -4 14 -10z m-278 -27
c-3 -5 -75 -10 -159 -10 -167 -1 -132 10 51 15 66 2 111 0 108 -5z m503 -3
c10 -7 -14 -10 -77 -10 -56 0 -93 4 -93 10 0 13 150 13 170 0z m70 -6 c0 -2
-7 -4 -15 -4 -8 0 -15 4 -15 10 0 5 7 7 15 4 8 -4 15 -8 15 -10z m894 5 c3 -3
-25 -6 -61 -7 -36 -1 -74 -4 -84 -7 -11 -4 -19 -2 -19 4 0 5 8 11 18 14 22 5
140 2 146 -4z m-3056 -16 c-10 -2 -26 -2 -35 0 -10 3 -2 5 17 5 19 0 27 -2 18
-5z m92 -3 c-20 -13 -50 -13 -50 0 0 6 15 10 33 10 24 0 28 -3 17 -10z"/>
<path d="M3980 970 c0 -5 16 -10 35 -10 19 0 35 5 35 10 0 6 -16 10 -35 10
-19 0 -35 -4 -35 -10z"/>
<path d="M3478 933 c7 -3 16 -2 19 1 4 3 -2 6 -13 5 -11 0 -14 -3 -6 -6z"/>
<path d="M3553 933 c9 -2 23 -2 30 0 6 3 -1 5 -18 5 -16 0 -22 -2 -12 -5z"/>
<path d="M3998 933 c-55 -6 -46 -19 12 -19 35 0 50 4 50 13 0 7 -6 12 -12 11
-7 -1 -30 -3 -50 -5z"/>
<path d="M3150 920 c-51 -5 -36 -7 70 -8 74 0 155 3 180 7 57 11 -151 11 -250
1z"/>
<path d="M3825 920 c3 -5 24 -10 45 -10 21 0 42 5 45 10 4 6 -13 10 -45 10
-32 0 -49 -4 -45 -10z"/>
<path d="M2410 910 c0 -5 5 -10 10 -10 6 0 10 5 10 10 0 6 -4 10 -10 10 -5 0
-10 -4 -10 -10z"/>
<path d="M2600 910 c0 -6 39 -10 96 -10 61 0 93 4 89 10 -3 6 -46 10 -96 10
-53 0 -89 -4 -89 -10z"/>
<path d="M3425 904 l-120 -13 140 5 c184 5 359 15 364 21 10 8 -268 -1 -384
-13z"/>
<path d="M1865 890 c-30 -8 -30 -8 8 -9 23 -1 36 3 32 9 -3 6 -7 9 -8 9 -1 -1
-15 -5 -32 -9z"/>
<path d="M1929 893 c-1 -5 -1 -12 0 -17 1 -5 -45 -6 -111 -2 -94 6 -216 8
-367 6 -16 0 -21 -4 -15 -9 7 -8 441 -16 520 -10 20 1 21 2 6 20 -17 20 -31
25 -33 12z"/>
<path d="M2560 878 c0 -8 16 -14 37 -16 35 -2 36 -1 18 13 -24 18 -55 19 -55
3z"/>
<path d="M3470 880 c-41 -4 -124 -8 -185 -9 -79 -1 -106 -4 -95 -12 16 -11
399 -4 495 8 l50 7 -45 7 c-53 9 -117 8 -220 -1z"/>
<path d="M3765 880 c-16 -7 -17 -9 -3 -9 9 -1 20 4 23 9 7 11 7 11 -20 0z"/>
<path d="M1340 849 c0 -5 5 -7 10 -4 6 3 10 8 10 11 0 2 -4 4 -10 4 -5 0 -10
-5 -10 -11z"/>
<path d="M2065 850 c-3 -5 1 -10 10 -10 9 0 13 5 10 10 -3 6 -8 10 -10 10 -2
0 -7 -4 -10 -10z"/>
<path d="M2472 833 c2 -10 14 -19 26 -21 13 -2 21 -9 19 -15 -5 -15 -38 -22
-46 -9 -3 5 -15 12 -27 16 -38 12 -49 -17 -49 -126 0 -54 -4 -98 -8 -98 -7 0
-4 -20 10 -57 3 -7 1 -13 -4 -13 -11 0 -34 51 -59 130 -9 30 -22 66 -30 80 -7
14 -15 38 -19 53 -6 31 -26 43 -52 32 -10 -5 -29 -7 -43 -5 -24 2 -24 1 -9
-16 28 -32 56 -328 38 -400 -14 -54 0 -84 39 -84 30 1 56 18 58 38 1 6 2 40 3
75 2 56 4 59 14 37 7 -14 20 -36 30 -50 9 -13 17 -32 17 -41 0 -9 7 -22 15
-29 8 -7 15 -20 15 -30 0 -18 19 -30 47 -30 9 0 13 6 10 14 -3 8 -3 16 0 20 3
3 6 107 7 232 1 168 4 228 13 231 7 3 15 -7 19 -21 6 -26 10 -27 79 -30 29 -2
34 -46 6 -46 -27 0 -27 -26 -1 -33 35 -9 22 -27 -20 -27 -22 0 -40 -4 -40 -10
0 -5 18 -10 39 -10 l40 0 -1 -49 -1 -48 -39 0 c-22 0 -44 -5 -51 -12 -8 -8 2
-11 41 -11 40 0 52 -4 52 -15 0 -9 -7 -18 -15 -21 -21 -8 -19 -24 3 -24 14 -1
14 -3 -5 -19 -23 -19 -31 -55 -15 -65 9 -5 96 7 153 22 31 8 39 6 53 -10 13
-15 24 -18 49 -13 18 4 38 12 45 18 7 5 52 9 100 8 58 -1 84 1 77 8 -6 6 -46
11 -90 13 -75 3 -79 4 -85 28 -5 22 -12 25 -54 28 -33 2 -46 0 -41 -8 11 -19
-14 -38 -50 -38 -42 0 -46 15 -7 24 46 11 49 19 7 24 -32 4 -40 9 -40 25 0 11
6 19 13 17 6 -1 12 5 12 13 0 8 -4 15 -10 15 -5 0 -10 6 -10 14 0 10 8 13 25
10 17 -3 25 0 25 10 0 10 -9 14 -27 13 l-28 -2 4 80 c3 91 13 115 44 115 18 0
19 -2 7 -10 -8 -5 -10 -10 -4 -10 6 0 17 7 24 15 7 8 19 15 27 15 10 0 13 10
11 38 -3 35 -5 37 -33 33 -65 -7 -197 1 -236 14 -55 20 -71 19 -67 -2z m133
-92 c6 -1 4 -5 -4 -10 -15 -10 -41 -4 -41 9 0 5 8 7 18 5 9 -2 22 -4 27 -4z"/>
<path d="M2037 804 c-4 -4 -129 -9 -279 -11 -150 -2 -274 -6 -277 -8 -2 -3 49
-5 113 -5 90 0 117 -3 113 -12 -4 -14 -12 -14 -169 -17 -54 0 -98 -4 -98 -9 0
-4 55 -7 122 -7 88 0 122 -3 125 -12 4 -10 -27 -13 -129 -14 -96 0 -126 -3
-109 -10 14 -5 32 -9 40 -8 9 1 55 1 102 0 l87 -1 4 -30 c4 -29 3 -30 -34 -30
-21 0 -38 -4 -38 -10 0 -5 18 -10 40 -10 38 0 40 -2 40 -30 0 -25 -4 -30 -25
-30 -14 0 -25 -5 -25 -10 0 -6 -3 -9 -7 -9 -5 1 -28 0 -53 -2 -36 -2 -30 -4
30 -8 l75 -6 3 -47 3 -48 -35 0 c-19 0 -38 -5 -41 -11 -5 -7 6 -9 31 -7 38 3
39 2 51 -37 9 -28 9 -41 1 -46 -15 -10 57 -21 131 -20 82 0 104 18 99 78 -2
26 1 44 8 47 19 7 24 -4 24 -49 0 -22 5 -46 12 -53 13 -13 165 -17 184 -4 6 4
19 37 29 74 l18 67 -31 123 c-33 134 -33 178 1 178 16 0 18 3 9 12 -8 8 -15 8
-25 -1 -11 -9 -17 -8 -27 4 -10 12 -9 15 6 16 24 2 -31 16 -67 18 -14 0 -29
-2 -32 -5z m-77 -34 c0 -5 -4 -10 -10 -10 -5 0 -10 -12 -10 -26 0 -20 -4 -25
-22 -22 -25 4 -37 28 -14 28 9 0 16 5 16 11 0 6 -7 8 -16 5 -9 -3 -25 1 -37 9
-20 14 -18 15 36 15 31 0 57 -4 57 -10z m87 -46 c-3 -3 -16 -4 -29 -2 l-23 5
25 10 c23 10 41 1 27 -13z m-244 -11 c-7 -2 -19 -2 -25 0 -7 3 -2 5 12 5 14 0
19 -2 13 -5z m271 -28 c3 -10 -1 -18 -12 -21 -9 -3 -26 -10 -37 -16 -11 -6
-17 -7 -13 -3 4 4 3 15 -2 25 -5 10 -6 20 -3 24 13 12 61 6 67 -9z m-264 -24
c0 -24 -3 -28 -20 -24 -13 3 -20 14 -20 29 0 17 6 24 20 24 15 0 20 -7 20 -29z
m117 23 c-3 -3 -12 -4 -19 -1 -8 3 -5 6 6 6 11 1 17 -2 13 -5z m9 -25 c9 -15
-11 -33 -30 -26 -9 4 -13 13 -10 22 7 17 30 20 40 4z m148 -46 c2 -10 7 -56
11 -103 4 -47 9 -93 12 -103 4 -16 0 -17 -34 -11 -21 4 -39 8 -41 9 -1 1 -3
31 -5 66 -1 49 1 64 12 64 8 0 16 6 19 13 2 7 -5 12 -16 12 -18 0 -31 24 -32
58 0 20 68 15 74 -5z m-248 -10 c12 -3 25 0 28 6 4 6 22 11 41 11 41 0 48 -17
48 -109 -1 -42 -5 -66 -14 -72 -10 -6 -15 -1 -17 20 -3 30 -40 58 -65 48 -14
-5 -25 -43 -30 -97 -1 -14 -6 -27 -11 -30 -14 -7 -37 89 -32 127 3 18 1 35 -3
38 -9 5 -12 55 -4 68 3 5 12 5 22 1 9 -3 26 -9 37 -11z"/>
<path d="M1875 570 c3 -5 8 -10 11 -10 2 0 4 5 4 10 0 6 -5 10 -11 10 -5 0 -7
-4 -4 -10z"/>
<path d="M1804 535 c13 -10 15 -15 6 -15 -7 0 -11 -2 -9 -5 3 -2 27 2 54 10
36 11 41 14 18 12 -18 -2 -33 0 -33 5 0 4 -12 8 -27 8 -27 -1 -27 -1 -9 -15z"/>
<path d="M1363 743 c11 -10 57 -13 57 -2 0 5 -14 9 -32 9 -17 0 -28 -3 -25 -7z"/>
<path d="M805 730 c-4 -6 6 -10 22 -10 22 0 25 2 13 10 -19 12 -27 12 -35 0z"/>
<path d="M1493 613 c9 -2 23 -2 30 0 6 3 -1 5 -18 5 -16 0 -22 -2 -12 -5z"/>
<path d="M1558 613 c7 -3 16 -2 19 1 4 3 -2 6 -13 5 -11 0 -14 -3 -6 -6z"/>
<path d="M1020 600 c0 -6 7 -10 15 -10 8 0 15 2 15 4 0 2 -7 6 -15 10 -8 3
-15 1 -15 -4z"/>
<path d="M2973 593 c9 -2 23 -2 30 0 6 3 -1 5 -18 5 -16 0 -22 -2 -12 -5z"/>
<path d="M955 549 c-16 -3 -26 -7 -21 -8 5 0 3 -8 -4 -16 -11 -13 5 -15 134
-15 91 0 146 4 146 10 0 6 -8 10 -17 10 -10 1 -47 3 -83 6 -36 3 -74 5 -85 5
-10 0 -24 3 -30 8 -5 4 -23 4 -40 0z"/>
<path d="M3050 549 c0 -5 5 -7 10 -4 6 3 10 8 10 11 0 2 -4 4 -10 4 -5 0 -10
-5 -10 -11z"/>
<path d="M2956 535 l-29 -12 27 -7 c34 -8 64 6 44 21 -9 7 -22 7 -42 -2z"/>
<path d="M3678 533 c7 -3 16 -2 19 1 4 3 -2 6 -13 5 -11 0 -14 -3 -6 -6z"/>
<path d="M1255 520 c3 -5 8 -10 11 -10 2 0 4 5 4 10 0 6 -5 10 -11 10 -5 0 -7
-4 -4 -10z"/>
<path d="M1290 526 c0 -9 39 -13 51 -5 10 6 4 9 -18 9 -18 0 -33 -2 -33 -4z"/>
<path d="M2745 491 c-15 -6 -11 -9 20 -13 72 -10 145 -9 145 2 0 5 -3 10 -7
10 -5 0 -37 2 -73 4 -36 2 -74 1 -85 -3z"/>
<path d="M1400 480 c0 -13 11 -13 30 0 12 8 11 10 -7 10 -13 0 -23 -4 -23 -10z"/>
<path d="M3544 478 c-3 -5 22 -8 55 -8 35 0 61 4 61 10 0 12 -109 9 -116 -2z"/>
<path d="M3607 448 c-7 -5 1 -8 21 -8 17 0 32 4 32 9 0 11 -35 10 -53 -1z"/>
<path d="M1010 435 c0 -8 -9 -15 -20 -15 -11 0 -20 -4 -20 -9 0 -5 -8 -12 -17
-14 -10 -3 11 -5 47 -6 62 -1 64 0 42 15 -13 9 -21 22 -18 30 3 8 1 14 -4 14
-6 0 -10 -7 -10 -15z"/>
<path d="M1040 440 c0 -5 7 -10 15 -10 8 0 15 5 15 10 0 6 -7 10 -15 10 -8 0
-15 -4 -15 -10z"/>
<path d="M1475 440 c-3 -5 1 -10 10 -10 9 0 13 5 10 10 -3 6 -8 10 -10 10 -2
0 -7 -4 -10 -10z"/>
<path d="M3678 433 c7 -3 16 -2 19 1 4 3 -2 6 -13 5 -11 0 -14 -3 -6 -6z"/>
<path d="M1400 399 c0 -5 5 -7 10 -4 6 3 10 8 10 11 0 2 -4 4 -10 4 -5 0 -10
-5 -10 -11z"/>
<path d="M1485 360 c-3 -5 1 -10 10 -10 9 0 13 5 10 10 -3 6 -8 10 -10 10 -2
0 -7 -4 -10 -10z"/>
<path d="M2510 320 c0 -5 14 -10 31 -10 17 0 28 4 24 10 -3 6 -17 10 -31 10
-13 0 -24 -4 -24 -10z"/>
<path d="M1650 310 c0 -5 5 -10 10 -10 6 0 10 5 10 10 0 6 -4 10 -10 10 -5 0
-10 -4 -10 -10z"/>
<path d="M3425 310 c-16 -7 -17 -9 -3 -9 9 -1 20 4 23 9 7 11 7 11 -20 0z"/>
<path d="M800 301 c8 -4 47 -4 85 -1 l70 7 -85 1 c-47 1 -78 -2 -70 -7z"/>
<path d="M3440 295 c-24 -13 -21 -14 42 -15 37 0 70 5 73 10 4 6 -5 10 -22 9
-15 -2 -37 0 -48 4 -11 3 -31 0 -45 -8z"/>
<path d="M3608 293 c7 -3 16 -2 19 1 4 3 -2 6 -13 5 -11 0 -14 -3 -6 -6z"/>
<path d="M3348 283 c7 -3 16 -2 19 1 4 3 -2 6 -13 5 -11 0 -14 -3 -6 -6z"/>
<path d="M1900 266 c0 -16 63 -27 83 -14 9 6 8 8 -3 9 -8 1 -18 1 -22 0 -5 0
-8 4 -8 9 0 6 -11 10 -25 10 -15 0 -25 -6 -25 -14z"/>
<path d="M2398 263 c7 -3 16 -2 19 1 4 3 -2 6 -13 5 -11 0 -14 -3 -6 -6z"/>
<path d="M1385 250 c-3 -5 1 -10 9 -10 9 0 16 5 16 10 0 6 -4 10 -9 10 -6 0
-13 -4 -16 -10z"/>
<path d="M1435 250 c-3 -5 3 -10 15 -10 12 0 18 5 15 10 -3 6 -10 10 -15 10
-5 0 -12 -4 -15 -10z"/>
<path d="M1498 248 c17 -8 26 -8 34 0 9 9 4 12 -22 11 -33 0 -34 -1 -12 -11z"/>
<path d="M1560 250 c0 -13 11 -13 30 0 12 8 11 10 -7 10 -13 0 -23 -4 -23 -10z"/>
<path d="M1750 248 c0 -11 28 -10 35 1 3 6 -4 9 -15 8 -11 -1 -20 -5 -20 -9z"/>
<path d="M1808 253 c7 -3 16 -2 19 1 4 3 -2 6 -13 5 -11 0 -14 -3 -6 -6z"/>
<path d="M1038 243 c7 -3 16 -2 19 1 4 3 -2 6 -13 5 -11 0 -14 -3 -6 -6z"/>
<path d="M1910 219 c0 -25 26 -30 45 -10 15 18 14 19 -15 23 -23 4 -30 1 -30
-13z"/>
<path d="M2045 230 c-3 -5 -1 -10 4 -10 6 0 11 5 11 10 0 6 -2 10 -4 10 -3 0
-8 -4 -11 -10z"/>
<path d="M2170 230 c0 -5 9 -10 21 -10 11 0 17 5 14 10 -3 6 -13 10 -21 10 -8
0 -14 -4 -14 -10z"/>
<path d="M4008 233 c6 -2 18 -2 25 0 6 3 1 5 -13 5 -14 0 -19 -2 -12 -5z"/>
<path d="M1680 205 c0 -5 15 -11 33 -12 23 -1 34 3 34 13 0 9 -11 13 -34 11
-18 -1 -33 -6 -33 -12z"/>
<path d="M1445 199 c-18 -4 15 -7 83 -8 61 0 112 3 112 8 0 10 -152 11 -195 0z"/>
<path d="M1067 193 c18 -2 50 -2 70 0 21 2 7 4 -32 4 -38 0 -55 -2 -38 -4z"/>
<path d="M1288 193 c7 -3 16 -2 19 1 4 3 -2 6 -13 5 -11 0 -14 -3 -6 -6z"/>
<path d="M1588 153 c7 -3 16 -2 19 1 4 3 -2 6 -13 5 -11 0 -14 -3 -6 -6z"/>
<path d="M3875 370 c-4 -6 8 -10 29 -10 20 0 36 5 36 10 0 6 -13 10 -29 10
-17 0 -33 -4 -36 -10z"/>
<path d="M4190 300 c0 -5 5 -10 10 -10 6 0 10 5 10 10 0 6 -4 10 -10 10 -5 0
-10 -4 -10 -10z"/>
</g>
</svg>
