<?xml version="1.0" standalone="no"?>
<!DOCTYPE svg PUBLIC "-//W3C//DTD SVG 20010904//EN"
 "http://www.w3.org/TR/2001/REC-SVG-20010904/DTD/svg10.dtd">
<svg version="1.0" xmlns="http://www.w3.org/2000/svg"
 width="589.000000pt" height="318.000000pt" viewBox="0 0 589.000000 318.000000"
 preserveAspectRatio="xMidYMid meet">
<metadata>
Created by potrace 1.16, written by Peter Selinger 2001-2019
</metadata>
<g transform="translate(0.000000,318.000000) scale(0.100000,-0.100000)"
fill="#000000" stroke="none">
<path d="M3150 3169 c-58 -4 -145 -14 -195 -23 -125 -21 -241 -27 -605 -31
-173 -2 -414 -8 -535 -14 -298 -15 -327 -15 -582 9 -182 16 -289 20 -580 19
-410 -2 -563 -19 -571 -62 -4 -20 22 -22 118 -6 167 27 1074 16 1290 -15 61
-9 113 -11 145 -6 28 4 53 6 56 4 4 -2 96 3 205 12 110 8 314 15 454 15 259 0
496 11 627 30 39 6 102 12 140 14 37 2 133 7 213 11 247 14 468 10 683 -12 31
-3 57 -9 57 -12 0 -4 73 -6 163 -5 162 2 163 2 163 -20 0 -12 -5 -26 -10 -30
-7 -5 -2 -7 12 -4 19 4 22 1 21 -21 0 -15 6 -52 14 -82 8 -33 11 -64 6 -75 -4
-11 -52 -63 -106 -115 -90 -87 -83 -77 25 40 41 44 53 70 32 70 -5 0 -10 -5
-10 -12 0 -6 -3 -9 -6 -5 -4 3 8 24 25 45 17 22 28 42 25 45 -3 2 -27 -3 -55
-13 -27 -10 -49 -16 -49 -13 0 3 -12 -3 -27 -13 -39 -25 -119 -115 -115 -130
1 -7 -11 -18 -27 -25 -16 -7 -37 -26 -46 -42 -15 -25 -19 -27 -33 -14 -28 24
-46 25 -63 3 -16 -20 -16 -20 -23 2 -7 22 -21 29 -30 14 -3 -5 -6 -43 -7 -85
-3 -114 -24 -168 -82 -212 -49 -37 -119 -64 -172 -66 -23 0 -26 -2 -11 -8 15
-6 9 -10 -25 -21 -172 -53 -349 -113 -345 -118 3 -2 65 15 138 38 253 81 282
90 286 85 2 -2 -8 -15 -23 -29 -22 -21 -25 -29 -16 -40 10 -12 0 -16 -61 -26
-117 -18 -271 -50 -277 -56 -8 -8 74 4 116 17 67 21 65 3 -2 -20 -102 -35
-118 -41 -113 -46 2 -3 56 13 119 34 63 22 138 46 167 55 l52 15 0 -29 c0 -53
-8 -60 -66 -60 -51 0 -144 -32 -152 -52 -2 -4 -34 -9 -70 -9 -54 -1 -60 -3
-32 -9 l35 -7 -27 -11 c-67 -29 -84 -35 -98 -39 -34 -7 -194 -62 -185 -62 15
-1 189 47 229 64 50 21 50 20 3 -25 -41 -40 -41 -40 -13 -34 16 4 85 35 155
70 95 48 135 63 164 62 21 -1 40 -5 43 -10 3 -5 17 -2 31 7 23 15 26 15 44 -1
13 -12 29 -15 56 -11 l38 6 -36 -19 c-20 -10 -75 -24 -124 -31 -48 -6 -142
-29 -207 -50 -116 -38 -238 -54 -223 -29 8 14 1 13 -42 -5 -19 -8 -54 -16 -77
-16 -32 -2 -35 -3 -12 -6 27 -4 22 -8 -49 -44 -90 -44 -101 -47 -110 -20 -6
20 1 116 10 130 2 5 29 12 59 15 42 6 54 11 49 22 -4 11 -17 13 -59 8 -53 -7
-54 -6 -54 20 0 15 7 29 15 32 19 8 20 24 1 24 -10 0 -15 17 -18 58 -2 31 -4
58 -3 59 0 0 14 3 31 6 50 8 208 38 223 43 8 2 12 7 9 10 -3 2 -36 -2 -74 -10
-38 -8 -85 -17 -105 -20 -20 -3 -42 -8 -51 -11 -9 -4 -19 4 -28 22 -8 15 -16
31 -18 34 -1 4 49 19 113 34 63 15 118 32 121 37 4 6 -1 8 -12 5 -44 -13 -152
-36 -195 -42 -43 -5 -48 -4 -83 31 -20 20 -36 37 -36 38 0 5 76 24 120 31 54
8 83 15 78 20 -2 2 -42 -3 -88 -11 -47 -8 -110 -18 -141 -20 -55 -6 -56 -5
-69 25 -7 17 -10 44 -7 60 6 29 5 30 -64 51 -39 12 -74 19 -77 16 -3 -4 -13
-23 -22 -44 l-17 -37 -12 38 c-7 20 -17 37 -22 37 -5 0 -9 7 -9 15 0 8 -6 15
-13 15 -7 0 -20 15 -29 33 -16 32 -18 54 -6 50 3 -1 9 5 12 13 5 13 -1 14 -37
10 -23 -3 -85 -11 -137 -17 -74 -9 -102 -16 -127 -36 l-33 -24 0 25 c0 14 -4
28 -10 31 -5 3 -10 15 -10 26 0 13 -6 19 -16 17 -23 -4 -29 19 -7 26 10 3 5 4
-10 2 -18 -2 -31 2 -34 10 -8 21 -40 17 -64 -7 -12 -12 -27 -18 -36 -15 -9 4
-22 1 -30 -6 -8 -6 -36 -11 -61 -10 -34 1 -41 -1 -27 -7 16 -7 9 -10 -35 -19
-82 -17 -253 -30 -271 -21 -8 4 -34 8 -56 7 -23 0 -46 3 -52 6 -5 4 -41 -1
-78 -10 -74 -17 -76 -18 -113 -39 -32 -19 -14 -19 39 0 50 17 53 8 5 -23 -19
-12 -32 -27 -28 -33 3 -6 1 -22 -5 -37 -11 -25 -16 -27 -83 -30 -80 -3 -97
-12 -99 -51 -1 -25 -2 -25 -8 4 -6 27 -7 28 -15 10 -5 -11 -8 -25 -7 -31 0 -6
-9 -16 -21 -22 l-23 -12 22 6 c21 5 23 2 20 -33 -1 -21 -6 -44 -10 -51 -5 -7
-2 -19 7 -28 9 -8 16 -21 16 -27 0 -7 13 -39 29 -72 33 -66 29 -83 -23 -105
-55 -22 -62 -19 -23 12 20 16 37 36 37 44 0 22 -14 17 -50 -21 -19 -20 -44
-35 -57 -35 -19 0 -25 9 -38 54 -18 60 -18 167 -1 178 16 11 68 10 62 -1 -4
-5 3 -7 14 -4 11 3 23 10 27 16 4 6 0 8 -10 4 -13 -5 -17 -1 -17 14 0 11 -4
17 -10 14 -6 -3 -15 -3 -22 1 -7 5 -5 11 7 21 24 17 20 16 -43 -2 -36 -11 -51
-21 -51 -33 1 -50 -6 -57 -61 -62 -52 -6 -90 -33 -90 -65 0 -7 -6 -15 -12 -17
-8 -3 -11 -20 -9 -48 3 -41 2 -42 -22 -36 -26 6 -39 -5 -70 -61 -18 -32 -23
-73 -9 -73 9 0 38 -88 45 -132 5 -34 -3 -41 -79 -73 -73 -30 -58 -32 31 -4 80
24 100 16 89 -38 -8 -40 -18 -41 -244 -39 -171 2 -236 -5 -224 -26 5 -7 -10
-9 -44 -6 -28 3 -55 1 -60 -4 -26 -26 -32 25 -32 267 -1 241 9 419 31 577 6
42 12 149 13 237 l1 161 25 2 c14 0 30 2 35 3 6 2 31 3 58 4 26 0 47 5 47 10
0 6 -15 8 -32 6 -18 -2 -56 -6 -83 -9 l-50 -4 -15 46 c-13 39 -19 47 -40 47
-28 0 -29 -7 -11 -95 15 -68 15 -250 1 -390 -6 -58 -13 -148 -16 -200 -3 -52
-7 -101 -10 -108 -2 -8 -4 -231 -4 -497 0 -473 -1 -484 -20 -490 -29 -9 -25
-25 6 -25 l26 0 -3 -97 c-2 -54 0 -202 5 -328 7 -205 6 -258 -15 -471 -12
-132 -20 -248 -16 -257 9 -24 32 -21 43 4 9 20 17 22 106 20 53 -1 179 3 280
8 275 16 404 19 503 10 97 -8 194 -15 345 -23 l95 -5 -100 14 c-55 7 -103 14
-107 14 -5 1 -8 5 -8 10 0 5 8 7 19 4 10 -3 22 0 25 6 5 8 -18 12 -71 13 -43
0 -98 2 -123 4 -107 6 -396 3 -520 -6 -74 -5 -201 -9 -282 -10 l-148 0 -1 58
c-1 31 0 62 1 67 2 6 5 26 8 45 5 44 34 76 81 91 20 6 45 17 56 23 26 16 106
36 144 36 33 0 42 16 13 23 -14 4 -14 5 3 6 19 1 253 75 285 90 28 13 301 -20
350 -42 25 -11 70 -22 100 -24 54 -3 55 -3 25 12 -16 8 -39 14 -50 15 -12 0
-25 4 -31 10 -8 8 -122 29 -162 30 -7 0 -11 4 -8 8 2 4 -21 8 -52 7 -31 0 -75
4 -97 9 l-40 10 60 12 c43 8 51 12 30 14 -26 1 -23 4 30 25 33 13 77 26 98 30
20 4 35 10 33 13 -2 4 10 8 28 9 18 1 55 15 83 31 l52 31 17 -55 c13 -42 14
-58 6 -66 -17 -17 -15 -31 3 -24 21 8 46 -52 43 -102 -2 -25 -8 -42 -15 -42
-20 0 -93 -34 -93 -43 0 -4 -21 -17 -47 -29 -27 -11 -68 -29 -91 -40 -47 -21
-164 -46 -252 -55 -67 -6 -78 -13 -21 -13 28 0 40 -4 35 -11 -4 -7 0 -9 12 -6
11 3 48 13 84 22 36 9 79 23 97 31 17 7 34 14 37 14 3 0 61 27 129 60 69 33
130 60 136 60 6 0 11 7 11 15 0 10 19 0 58 -30 35 -28 67 -45 84 -45 15 0 29
-4 32 -8 2 -4 24 -9 48 -11 47 -2 53 -5 43 -20 -4 -7 -41 -9 -111 -5 -92 6
-104 5 -104 -10 0 -13 11 -16 55 -16 40 0 57 -4 61 -15 5 -11 21 -15 59 -15
30 0 57 -4 60 -10 3 -5 26 -7 52 -3 34 4 44 3 39 -6 -4 -6 -10 -9 -14 -7 -7 4
-28 -5 -130 -61 -33 -18 -62 -29 -66 -26 -3 4 -6 1 -6 -5 0 -23 41 -11 156 44
l115 56 130 -1 129 0 0 33 c0 35 30 61 66 55 20 -4 44 7 44 20 0 4 -13 6 -30
3 -31 -4 -42 11 -14 22 24 9 82 7 88 -3 3 -5 -4 -11 -16 -14 -12 -4 -19 -9
-16 -12 3 -4 23 -2 45 4 21 6 53 11 71 11 17 0 31 4 30 9 -2 4 8 17 21 28 17
14 24 29 23 52 0 24 5 34 21 40 30 12 34 5 11 -21 l-19 -22 28 18 28 17 42
-47 c23 -27 41 -54 41 -61 -2 -18 15 -16 22 2 7 18 34 20 34 3 0 -6 -3 -8 -7
-5 -3 4 -12 -2 -20 -13 -10 -15 -26 -20 -56 -20 -28 0 -37 -3 -28 -9 10 -7 -3
-19 -50 -49 -35 -23 -73 -48 -84 -57 -11 -9 -36 -27 -55 -40 -139 -97 -145
-99 -290 -113 -91 -8 -345 -7 -515 2 -51 3 -72 1 -58 -4 12 -5 41 -9 65 -8 24
0 45 -1 48 -2 14 -5 123 -12 180 -11 59 0 63 -1 46 -14 -24 -18 -40 -20 -30
-3 5 8 2 9 -10 5 -10 -4 -24 -7 -32 -7 -8 0 -14 -3 -14 -7 0 -5 15 -8 33 -7
17 1 65 2 105 2 75 2 104 22 30 22 -69 0 -39 7 62 15 98 7 116 1 39 -14 l-44
-9 58 -1 c39 -1 59 3 63 12 2 7 13 13 24 14 26 2 26 -27 0 -34 -11 -3 -17 -9
-14 -15 3 -5 22 0 41 12 27 16 61 23 132 28 161 10 599 8 936 -6 176 -7 372
-12 435 -12 501 4 604 4 670 -2 41 -4 140 -10 218 -13 79 -4 166 -10 192 -14
29 -5 53 -4 58 1 6 6 12 6 16 0 3 -5 30 -8 58 -6 29 2 157 6 283 8 250 5 432
12 565 22 47 3 119 8 160 10 95 4 117 10 129 33 11 20 22 19 -138 7 -67 -6
-73 -5 -66 11 4 10 15 38 25 63 33 85 38 95 74 145 20 27 36 54 36 59 0 5 7
18 16 27 16 17 15 19 -10 29 -15 5 -39 10 -54 10 -54 0 -56 12 -16 86 20 38
45 81 56 96 19 27 27 82 15 94 -3 4 -9 -7 -12 -22 -8 -35 -27 -87 -34 -94 -6
-5 -18 -26 -63 -112 -12 -23 -27 -38 -38 -38 -15 0 -11 11 25 64 41 62 85 160
85 191 0 8 5 15 10 15 6 0 10 8 10 19 0 11 13 25 33 35 19 9 25 16 15 16 -10
0 -18 7 -18 15 0 9 -6 12 -16 8 -14 -5 -14 -3 -3 14 7 13 9 27 4 39 -8 17 -9
16 -13 -8 -5 -40 -22 -34 -22 7 0 45 29 105 51 105 12 0 18 10 21 34 2 23 0
32 -8 29 -9 -3 -10 6 -3 37 11 49 5 64 -20 48 -10 -6 -27 -8 -37 -4 -16 6 -14
11 19 42 20 19 37 40 37 46 0 11 -20 -4 -68 -50 -12 -12 -30 -22 -38 -22 -12
0 -12 4 2 25 9 14 19 25 23 25 8 0 81 68 81 75 0 13 -59 -27 -103 -69 -47 -46
-48 -46 -77 -31 -16 8 -39 15 -51 15 -19 0 -13 9 37 60 64 65 93 74 105 30 7
-24 7 -24 8 -2 1 18 7 22 36 22 19 0 35 5 35 10 0 6 -16 11 -35 11 -50 2 -55
3 -55 12 0 4 3 6 6 5 3 -2 15 14 25 35 11 21 27 41 34 44 8 3 15 12 15 19 0 8
7 17 15 20 8 4 15 13 15 21 0 8 4 12 8 9 4 -2 9 5 9 16 2 16 -1 18 -10 9 -13
-13 -51 -15 -42 -2 3 5 8 31 11 58 3 26 10 50 15 52 6 1 2 10 -8 18 -10 8 -12
12 -5 8 7 -4 12 1 12 13 0 17 37 61 46 55 2 -2 10 -3 17 -3 9 0 9 2 -1 8 -14
9 -6 42 10 42 5 0 6 5 2 11 -5 8 -9 8 -14 -1 -4 -6 -30 -14 -57 -17 l-51 -5 6
28 c4 18 7 23 10 12 3 -18 32 -34 32 -18 0 6 7 10 15 10 8 0 15 1 15 3 0 1 3
67 5 147 4 111 2 139 -6 117 -8 -22 -14 -25 -24 -17 -11 9 -12 7 -8 -9 3 -11
8 -20 12 -19 19 2 20 -4 1 -24 -11 -12 -22 -19 -26 -16 -12 12 -13 123 -1 130
7 4 -2 8 -21 8 -19 0 -35 6 -38 14 -3 8 -13 18 -22 21 -30 13 -92 22 -86 14 3
-5 16 -9 30 -9 13 0 24 -5 24 -11 0 -8 -28 -10 -95 -7 -86 5 -116 -1 -82 -16
6 -3 -8 -4 -32 -2 -44 3 -44 3 -57 52 -7 27 -13 50 -14 52 0 1 18 2 41 2 22 0
38 4 35 9 -4 5 6 14 21 20 23 8 18 9 -27 5 -30 -3 -61 -7 -67 -9 -7 -3 -13 4
-13 14 0 15 12 20 73 26 111 13 210 5 223 -16 7 -12 24 -11 24 0 0 10 -42 27
-48 20 -2 -2 -8 4 -13 14 -6 9 -14 15 -19 12 -15 -9 -220 -13 -214 -4 3 5 16
9 30 9 15 0 23 4 19 10 -4 6 -16 8 -28 4 -15 -4 -19 -3 -12 4 6 6 33 17 60 25
73 23 37 20 -45 -2 l-70 -20 0 37 0 37 102 -2 c57 0 110 3 118 8 10 6 -18 8
-78 4 -59 -3 -91 -1 -87 5 3 5 22 12 41 16 19 3 33 8 31 11 -3 2 -33 -2 -68
-9 -49 -10 -63 -10 -67 0 -5 17 -32 15 -32 -3 0 -16 -25 -21 -34 -6 -10 15
-16 126 -8 139 5 6 39 19 78 27 67 14 68 14 14 9 -30 -3 -68 -7 -83 -10 -23
-5 -28 -3 -25 13 2 10 14 24 28 31 23 11 23 12 3 8 -13 -2 -23 0 -23 4 0 5
-14 11 -30 15 -44 10 -22 31 52 52 80 22 67 27 -23 8 -41 -8 -81 -15 -90 -15
-15 0 -49 54 -49 77 0 4 39 7 87 7 l88 -2 -70 7 c-66 6 -68 7 -42 19 16 7 35
12 43 12 8 0 14 4 14 9 0 5 -25 3 -56 -4 l-56 -13 26 27 c14 14 25 29 25 34 1
4 1 11 1 16 0 4 35 9 77 10 84 2 114 10 42 12 l-44 1 55 19 55 18 -45 -5 c-25
-3 -60 -10 -78 -16 -18 -5 -37 -8 -43 -6 -13 4 -20 69 -12 117 l6 34 136 -7
c209 -11 387 -15 398 -7 6 3 10 14 10 24 0 15 -13 17 -126 18 -69 1 -148 3
-176 5 -27 1 -124 8 -215 14 -91 6 -392 13 -670 15 -278 2 -559 8 -625 14
-131 12 -559 12 -725 0z m1828 -74 c2 -2 6 -18 9 -37 2 -18 11 -40 20 -49 13
-15 12 -19 -8 -32 -15 -11 -20 -22 -16 -36 3 -12 1 -19 -4 -15 -5 3 -9 0 -9
-6 0 -6 -13 -23 -28 -38 -15 -15 -54 -59 -86 -99 -36 -45 -63 -70 -71 -67 -8
3 -23 21 -35 41 -18 31 -19 36 -5 56 22 31 19 47 -9 47 -36 0 -57 10 -49 24 4
6 10 39 13 74 5 58 4 62 -16 62 -25 0 -34 -31 -34 -116 0 -29 -5 -56 -10 -59
-6 -4 -8 -16 -4 -28 5 -18 4 -20 -7 -9 -7 6 -23 12 -35 12 -15 0 -24 8 -28 25
-4 14 -13 25 -20 25 -8 0 -19 13 -24 29 -11 30 -10 30 33 37 24 3 51 14 61 25
15 17 15 19 0 34 -8 9 -20 23 -25 32 -5 10 -21 16 -39 15 -28 -1 -30 1 -20 18
16 26 39 32 143 40 79 5 294 2 303 -5z m-538 -5 c0 -5 -2 -10 -4 -10 -3 0 -8
5 -11 10 -3 6 -1 10 4 10 6 0 11 -4 11 -10z m590 0 c0 -5 -4 -10 -9 -10 -6 0
-13 5 -16 10 -3 6 1 10 9 10 9 0 16 -4 16 -10z m85 0 c-3 -5 -15 -10 -26 -10
-10 0 -19 5 -19 10 0 6 12 10 26 10 14 0 23 -4 19 -10z m-618 -79 c0 -11 -5
-17 -9 -15 -11 7 -10 34 1 34 6 0 9 -9 8 -19z m53 -26 c0 -3 -9 -5 -20 -5 -11
0 -20 7 -20 15 0 13 4 14 20 5 11 -6 20 -13 20 -15z m550 -70 c0 -14 -81 -97
-88 -90 -9 9 64 112 76 108 6 -3 12 -11 12 -18z m-615 -32 c3 -21 4 -59 1 -85
-4 -39 -1 -49 20 -69 22 -21 23 -24 8 -40 -12 -14 -13 -22 -4 -39 6 -12 9 -24
6 -27 -3 -4 -15 15 -26 40 -23 51 -40 257 -21 257 5 0 12 -17 16 -37z m23 -4
c-3 -20 -5 -19 -9 9 -3 20 -2 29 4 23 5 -5 7 -19 5 -32z m434 -31 c-7 -7 -12
-8 -12 -2 0 6 3 14 7 17 3 4 9 5 12 2 2 -3 -1 -11 -7 -17z m-38 -69 c-14 -28
-27 -49 -30 -47 -5 5 45 98 52 98 2 0 -7 -23 -22 -51z m-374 26 c0 -8 -2 -15
-4 -15 -2 0 -6 7 -10 15 -3 8 -1 15 4 15 6 0 10 -7 10 -15z m170 -15 c0 -5 -9
-10 -19 -10 -11 0 -23 5 -26 10 -4 6 5 10 19 10 14 0 26 -4 26 -10z m335 -9
c3 -5 1 -12 -5 -16 -5 -3 -10 1 -10 9 0 18 6 21 15 7z m-771 -56 c-9 -14 -26
-31 -38 -37 -14 -7 -10 1 13 26 41 42 48 45 25 11z m370 11 c-21 -15 -30 -14
-19 3 3 6 14 11 23 11 13 0 13 -2 -4 -14z m94 -25 c16 -16 32 -37 34 -46 3
-15 6 -14 27 4 26 22 68 37 77 28 9 -9 -5 -40 -32 -72 -15 -16 -23 -24 -20
-17 4 6 2 12 -5 12 -8 0 -6 7 5 19 13 14 14 21 5 27 -12 7 -59 -40 -59 -59 0
-5 -9 -5 -20 -2 -16 5 -20 2 -20 -14 0 -12 -4 -21 -10 -21 -5 0 -10 7 -10 16
0 12 -7 15 -30 12 -21 -3 -35 1 -47 14 -9 10 -25 18 -35 18 -20 0 -36 26 -23
38 4 4 10 1 12 -5 6 -17 23 -17 23 0 0 12 76 77 90 77 4 0 21 -13 38 -29z
m212 14 c-7 -8 -17 -15 -22 -15 -6 0 -5 7 2 15 7 8 17 15 22 15 6 0 5 -7 -2
-15z m80 -6 c0 -5 -4 -9 -10 -9 -5 0 -10 7 -10 16 0 8 5 12 10 9 6 -3 10 -10
10 -16z m-2890 -78 c0 -10 -7 -24 -15 -31 -12 -10 -13 -15 -3 -28 9 -11 13
-63 13 -186 0 -102 4 -173 10 -176 5 -3 20 15 34 38 13 24 26 40 30 35 11 -14
87 -63 99 -63 22 0 12 19 -18 35 -42 22 -60 55 -67 122 -3 32 -10 61 -15 64
-5 3 -10 30 -12 59 -2 44 2 60 21 89 23 33 43 49 68 50 6 1 11 -35 11 -87 1
-48 5 -106 9 -129 7 -40 28 -62 40 -43 12 20 24 9 31 -27 10 -56 23 -77 39
-63 7 6 10 20 7 32 -3 14 -1 19 6 14 7 -4 12 -3 12 3 0 11 -41 102 -50 111 -3
3 -6 14 -8 25 -2 11 -6 35 -9 53 -3 19 -12 36 -19 39 -8 3 -14 10 -14 15 0 6
7 8 15 5 8 -4 17 -2 20 3 4 7 13 6 25 0 14 -8 19 -6 22 7 3 15 5 15 21 -2 13
-12 15 -21 8 -28 -17 -17 -13 -27 12 -27 32 0 85 -27 97 -49 10 -19 -1 -39
-46 -88 -31 -34 -30 -44 8 -87 31 -35 64 -46 84 -27 5 5 28 11 50 15 l41 6 6
-66 c2 -36 8 -68 12 -72 4 -4 37 -8 73 -9 37 -1 76 -5 86 -9 16 -6 18 -4 14
14 -5 17 -2 22 12 22 11 0 21 4 25 10 7 11 -91 2 -117 -11 -30 -16 -66 6 -73
45 -9 47 20 88 73 104 54 16 66 15 86 -7 23 -25 13 -41 -24 -41 -16 0 -32 -5
-35 -10 -4 -7 -12 -7 -25 0 -29 16 -48 12 -55 -10 -7 -23 10 -50 30 -50 7 0
15 8 17 18 4 15 19 20 69 26 58 6 66 4 81 -15 17 -20 16 -45 -1 -35 -4 3 -8
-11 -8 -31 -1 -20 -6 -38 -11 -42 -6 -3 -12 -26 -14 -51 -2 -37 0 -45 13 -42
22 3 26 -12 18 -78 -3 -30 -6 -45 -7 -33 -1 12 -7 25 -13 29 -8 4 -9 -1 -5
-17 4 -18 2 -16 -9 6 -8 17 -14 36 -15 43 0 11 -20 18 -20 6 0 -9 50 -188 59
-209 8 -20 17 -42 40 -98 6 -15 11 -37 11 -47 0 -11 4 -20 9 -20 4 0 11 -15
14 -32 4 -18 9 -43 13 -55 5 -18 2 -23 -12 -23 -9 0 -14 -3 -11 -7 4 -3 2 -12
-5 -20 -16 -20 -1 -29 31 -16 28 10 29 10 21 -18 -9 -30 4 -94 20 -104 6 -4
10 -17 10 -31 0 -13 5 -24 10 -24 6 0 10 -7 10 -15 0 -8 -4 -15 -8 -15 -4 0
-8 -8 -9 -17 -4 -47 -12 -72 -43 -121 -18 -29 -30 -55 -27 -58 6 -6 57 66 57
81 0 5 4 16 9 24 8 12 12 12 25 2 14 -12 14 -16 -4 -41 -11 -16 -16 -31 -11
-34 10 -6 24 9 34 37 9 24 30 17 38 -14 5 -16 7 -18 8 -6 1 21 17 22 29 2 12
-22 42 -8 42 19 0 12 7 46 16 75 8 29 13 60 11 69 -2 9 -10 -11 -17 -46 -8
-42 -16 -59 -21 -50 -13 19 -11 62 3 76 9 9 9 18 -1 38 -6 14 -9 35 -6 45 4
11 2 19 -5 19 -12 0 -4 40 15 78 16 29 24 17 29 -40 2 -24 8 -52 12 -63 5 -11
9 -58 8 -105 -1 -67 -6 -99 -27 -150 -19 -48 -26 -59 -27 -40 -2 17 -5 10 -11
-19 -5 -25 -7 -46 -5 -49 2 -2 15 15 28 37 l24 39 12 -40 c7 -23 9 -44 5 -48
-47 -38 -132 -99 -161 -116 -20 -12 -41 -31 -47 -42 -5 -12 -18 -26 -30 -32
-11 -6 -40 -38 -65 -71 -25 -32 -54 -69 -64 -82 -17 -20 -18 -20 -11 -2 4 11
18 52 32 90 25 71 56 115 80 115 7 0 13 5 13 10 0 17 -25 11 -48 -10 l-22 -21
0 29 c0 16 4 42 9 58 18 56 23 90 12 79 -5 -5 -16 -40 -23 -77 -7 -38 -15 -68
-19 -68 -12 0 -29 78 -29 134 0 31 -4 56 -8 56 -5 0 -7 -21 -5 -47 2 -29 -1
-49 -8 -54 -10 -6 -10 -11 -1 -22 8 -9 11 -42 8 -96 -3 -85 -10 -106 -26 -81
-8 12 -10 10 -10 -7 0 -14 -5 -21 -13 -17 -9 3 -19 -18 -32 -73 -10 -43 -19
-85 -20 -94 -3 -35 -45 -89 -81 -104 -31 -13 -74 -20 -74 -12 0 1 7 24 15 51
8 27 14 65 14 85 -2 33 -2 33 -6 6 -5 -45 -25 -105 -35 -105 -4 0 -8 -7 -8
-15 0 -22 -29 -18 -85 13 -39 22 -49 33 -48 50 2 15 -3 22 -15 22 -10 0 -37 9
-60 20 -22 11 -46 20 -52 20 -7 0 -41 27 -78 59 -59 54 -67 58 -78 43 -8 -9
-14 -32 -14 -50 0 -38 -17 -75 -30 -67 -5 3 -7 12 -3 20 3 11 -2 15 -18 15
-24 1 -24 1 -4 16 11 8 26 19 33 23 7 4 20 39 29 79 10 40 20 72 23 72 3 0 5
-19 3 -42 l-2 -43 8 38 c12 56 18 54 26 -8 3 -30 10 -55 14 -55 17 0 30 52 26
98 -4 34 -3 42 4 27 12 -25 13 -20 11 88 -1 51 -7 102 -16 122 -8 19 -17 51
-20 72 -3 21 -16 71 -30 112 -13 40 -24 95 -24 121 0 27 -5 50 -11 52 -21 7
-27 77 -13 171 18 118 17 165 -2 67 -7 -41 -16 -90 -18 -109 -3 -19 -10 -37
-16 -41 -6 -4 -9 -19 -5 -36 4 -22 0 -18 -15 15 -11 24 -19 49 -16 55 2 6 5 3
5 -6 1 -9 6 -20 12 -24 8 -4 9 1 4 17 -9 30 -50 122 -76 170 -23 44 -24 66 -5
144 l14 60 4 -95 c3 -62 4 -48 3 42 -1 88 2 136 8 135 6 -1 14 18 19 43 15 85
18 95 29 79 8 -10 9 -8 7 11 -2 14 -9 24 -16 22 -9 -1 -12 31 -12 130 0 72 -5
148 -11 167 -7 20 -14 43 -16 51 -8 26 -33 -20 -33 -60 0 -20 -7 -81 -14 -136
-18 -119 -27 -356 -15 -375 5 -9 9 17 9 67 0 114 12 271 19 251 11 -31 0 -361
-12 -374 -1 0 -15 1 -30 4 -20 4 -32 14 -39 34 -6 18 -15 26 -24 22 -13 -5
-18 7 -15 35 1 8 -3 20 -10 28 -8 9 -9 29 -5 57 19 110 24 134 35 157 8 17 10
19 7 5 -2 -11 -7 -28 -11 -37 -4 -11 -3 -18 4 -18 6 0 11 7 11 15 0 17 27 104
40 127 6 10 5 29 0 50 -6 18 -10 49 -10 70 0 20 -4 38 -8 40 -9 3 -49 138 -54
179 -4 34 66 129 95 129 12 0 29 5 37 10 11 8 22 3 43 -20 15 -17 27 -39 27
-49z m2830 54 c-7 -9 -15 -13 -18 -10 -3 2 1 11 8 20 7 9 15 13 18 10 3 -2 -1
-11 -8 -20z m-590 0 c0 -8 -7 -15 -16 -15 -14 0 -14 3 -4 15 7 8 14 15 16 15
2 0 4 -7 4 -15z m-2486 -30 c-18 -18 -23 -31 -18 -50 4 -17 2 -25 -6 -25 -7 0
-18 -7 -24 -15 -9 -13 -137 -54 -168 -55 -5 0 -8 11 -8 25 0 14 3 24 8 24 27
-5 132 2 132 9 0 4 -36 6 -80 4 -44 -2 -80 0 -80 5 0 5 38 15 85 21 83 12 150
31 130 37 -5 2 -32 7 -60 11 l-50 7 70 12 c39 7 75 13 82 14 7 0 1 -10 -13
-24z m535 -26 c-8 -5 -24 -9 -36 -10 -13 -1 -27 -2 -33 -3 -5 -1 -9 4 -7 9 1
6 7 10 12 11 6 0 17 4 25 7 33 12 45 14 49 4 2 -5 -3 -13 -10 -18z m41 21 c0
-5 -4 -10 -10 -10 -5 0 -10 5 -10 10 0 6 5 10 10 10 6 0 10 -4 10 -10z m-977
-20 c5 -4 -6 -7 -24 -5 -18 1 -35 8 -37 14 -4 13 46 5 61 -9z m2765 -20 c-13
-22 -29 -40 -35 -40 -7 0 -13 2 -13 5 0 5 63 75 68 75 1 0 -8 -18 -20 -40z
m302 -9 c-1 -10 -6 -7 -15 9 -19 33 -18 50 0 26 8 -11 15 -27 15 -35z m-2770
29 c0 -4 -34 -13 -76 -19 -61 -10 -78 -10 -91 1 -14 11 -13 14 13 18 45 8 154
8 154 0z m122 -22 c-15 -15 -24 -6 -16 16 5 12 10 14 17 7 8 -8 8 -14 -1 -23z
m2182 11 l26 -21 -19 -26 c-38 -55 -88 -100 -100 -93 -9 6 -8 11 4 21 8 7 15
25 15 41 0 22 5 29 19 29 23 0 36 39 15 47 -8 3 -21 3 -29 -1 -8 -3 -15 -1
-15 3 0 5 6 12 13 14 25 11 45 7 71 -14z m941 12 c5 -9 -31 -41 -47 -41 -5 0
-1 11 8 25 17 26 29 31 39 16z m-3585 -57 c20 -19 40 -34 44 -34 10 0 46 -45
68 -87 22 -40 22 -41 1 -45 -13 -3 -5 -11 25 -27 l44 -22 -6 -47 c-4 -26 -7
-69 -8 -97 -1 -27 -6 -56 -11 -62 -6 -9 -1 -16 17 -23 16 -6 26 -17 26 -30 0
-11 5 -20 10 -20 20 0 10 -19 -17 -32 -42 -20 -40 -37 6 -44 31 -5 43 -12 47
-29 19 -78 45 -193 47 -207 1 -9 4 -15 6 -12 9 9 50 -126 44 -143 -4 -9 1 -21
12 -29 10 -8 14 -14 7 -14 -13 0 -2 -35 51 -155 19 -44 38 -99 42 -122 4 -23
11 -41 17 -40 6 1 16 -19 24 -45 20 -65 35 -71 30 -11 -2 26 -7 65 -11 85 -7
35 -6 37 35 58 26 13 40 26 36 35 -2 7 1 16 9 18 8 4 15 -5 19 -25 7 -34 -11
-198 -25 -236 -12 -32 -11 -42 4 -42 8 0 19 10 26 23 24 46 2 -104 -24 -161
-14 -30 -25 -63 -25 -74 0 -17 -3 -18 -14 -9 -10 8 -16 9 -21 1 -14 -22 -23
-8 -18 28 3 24 0 50 -9 67 l-15 28 -6 -39 c-4 -22 -3 -53 1 -69 5 -19 2 -53
-8 -95 -20 -78 -34 -142 -50 -230 -7 -36 -19 -75 -26 -87 -20 -33 -17 -44 10
-37 13 3 27 1 31 -6 9 -15 6 -18 -56 -39 -73 -25 -133 -35 -124 -22 3 6 12 11
20 11 8 0 26 5 42 11 l28 10 -25 20 c-19 15 -34 18 -64 14 -35 -5 -38 -4 -26
10 17 21 7 29 -19 16 -23 -13 -20 -21 -41 139 -13 90 -19 111 -38 118 -9 3
-10 -20 -6 -88 3 -53 0 -122 -6 -161 -10 -58 -15 -69 -31 -69 -11 0 -23 10
-29 24 -8 21 -15 23 -67 23 -54 0 -56 -1 -29 -12 18 -8 24 -14 15 -17 -34 -13
-80 1 -125 38 -44 36 -45 39 -24 44 23 5 23 5 -3 17 -20 10 -28 22 -33 53 -4
22 -10 40 -15 40 -5 0 -9 8 -9 19 0 10 -7 35 -16 56 -8 20 -16 54 -17 76 -1
21 -4 34 -8 28 -8 -13 -39 28 -39 51 0 9 -6 24 -13 35 -11 17 -59 128 -63 145
0 3 -6 18 -12 33 -7 16 -12 31 -12 35 0 4 -14 26 -30 50 -16 24 -26 50 -23 58
3 7 -2 17 -11 20 -9 3 -16 12 -16 20 0 8 -13 33 -30 55 -25 35 -29 48 -25 88
l5 46 -14 -40 -14 -40 -1 42 c-1 41 -21 74 -21 34 0 -29 -33 -27 -53 2 -15 21
-16 21 -17 2 0 -17 -2 -17 -10 -5 -5 8 -7 23 -4 34 5 13 3 16 -7 11 -9 -6 -11
-3 -6 9 4 10 7 30 8 44 0 24 1 25 9 7 5 -11 9 -32 9 -47 1 -16 7 -28 14 -28 9
0 12 10 9 30 -4 29 11 42 21 18 3 -8 6 -7 6 4 1 9 -4 20 -10 23 -6 4 -7 19 -3
38 10 42 7 79 -8 92 -8 7 -9 5 -5 -7 3 -10 1 -20 -4 -24 -6 -3 -8 -17 -5 -29
3 -13 2 -33 -2 -46 -8 -21 -9 -21 -20 7 -13 32 -12 254 1 254 4 0 7 9 7 21 0
11 4 18 9 14 5 -3 11 5 13 17 2 13 9 22 16 21 6 -2 12 1 12 7 0 24 69 71 160
109 14 6 32 15 40 20 8 4 36 15 62 24 44 15 48 15 58 -1 7 -14 9 -11 10 16 0
18 4 31 9 27 5 -3 35 6 67 20 69 31 80 31 88 3 4 -18 8 -20 17 -11 9 9 9 15 0
26 -9 12 1 15 69 19 74 4 113 18 97 34 -11 11 -131 12 -155 1 -31 -14 -47 3
-49 56 -1 23 -7 65 -13 92 -16 73 9 242 43 283 16 20 57 6 97 -34z m85 21 c0
-17 -32 -17 -39 0 -4 13 -1 16 17 13 12 -2 22 -7 22 -13z m632 -37 c-3 -7 -5
-2 -5 12 0 14 2 19 5 13 2 -7 2 -19 0 -25z m2703 2 c-6 -11 -13 -20 -16 -20
-2 0 0 9 6 20 6 11 13 20 16 20 2 0 0 -9 -6 -20z m55 -9 c-3 -6 -11 -11 -16
-11 -5 0 -4 6 3 14 14 16 24 13 13 -3z m236 1 c-14 -26 -41 -48 -41 -33 0 6 4
11 9 11 5 0 13 9 16 20 3 11 11 20 16 20 6 0 6 -7 0 -18z m-964 -12 c14 -11
31 -20 37 -20 6 0 2 8 -9 16 l-20 16 20 -4 c12 -2 21 -13 23 -26 2 -12 17 -32
33 -44 35 -26 36 -34 7 -41 -18 -5 -19 -9 -9 -21 10 -12 5 -24 -28 -70 -29
-39 -46 -54 -57 -49 -15 5 -15 7 0 15 29 16 17 27 -35 30 l-52 3 72 69 c39 39
71 74 71 78 0 22 -31 2 -85 -53 -33 -33 -82 -72 -110 -86 l-49 -26 26 34 c14
19 47 56 72 83 48 51 55 66 32 66 -7 0 -29 -20 -47 -45 -31 -41 -61 -63 -42
-31 16 28 106 126 115 126 6 0 21 -9 35 -20z m334 4 c22 -11 29 -21 27 -37 -2
-16 2 -22 17 -22 24 0 42 -24 26 -34 -6 -4 -35 -4 -64 0 -28 4 -62 8 -74 8
l-21 1 21 50 c11 28 25 50 29 50 5 0 23 -7 39 -16z m171 6 c5 0 8 -5 6 -12 -5
-13 -45 -21 -67 -13 -11 5 -10 8 5 20 10 8 25 12 32 10 8 -3 18 -5 24 -5z
m-3140 -35 c11 -41 4 -41 -15 1 -12 24 -14 35 -5 32 6 -2 15 -17 20 -33z m71
15 c6 -22 -7 -35 -23 -25 -15 9 -12 45 4 45 7 0 16 -9 19 -20z m2367 6 c0 -8
-7 -16 -15 -20 -13 -4 -14 -2 -5 14 13 23 20 26 20 6z m365 -16 c5 3 10 -1 13
-7 5 -18 -13 -16 -51 4 l-32 17 25 6 c18 4 27 2 31 -9 3 -9 10 -14 14 -11z
m-2503 -6 c-3 -15 -13 -29 -23 -31 -11 -3 -19 -9 -19 -14 0 -5 -26 -16 -57
-24 -32 -9 -68 -20 -80 -25 -20 -8 -23 -7 -23 15 0 26 5 28 58 25 18 -1 32 3
32 10 0 6 -6 10 -12 9 -28 -3 -58 1 -58 9 0 7 145 49 176 51 7 1 9 -9 6 -25z
m859 -22 c10 -9 19 -21 19 -27 0 -6 9 -28 20 -50 11 -21 19 -39 17 -40 -1 0
-23 -10 -50 -23 -26 -12 -66 -22 -88 -22 -22 0 -49 -5 -59 -10 -29 -16 -35 7
-8 30 13 11 33 23 46 26 27 8 28 18 2 44 -27 27 -25 39 13 71 34 30 54 30 88
1z m1644 -23 c14 -22 -4 -20 -44 5 -23 15 -41 31 -41 36 0 12 75 -24 85 -41z
m841 -44 c-3 -8 -9 -15 -13 -15 -11 0 -16 78 -6 93 9 15 27 -57 19 -78z m-376
66 c0 -5 -9 -19 -20 -32 -17 -21 -19 -21 -13 -4 10 33 33 57 33 36z m100 -40
c-22 -32 -40 -40 -40 -18 0 17 12 32 35 45 29 15 30 7 5 -27z m-3696 -21 c-5
-22 -2 -31 10 -36 9 -3 16 -17 16 -33 0 -31 10 -67 39 -139 12 -29 17 -51 12
-48 -4 3 -36 -6 -70 -19 -83 -34 -89 -33 -86 16 3 57 -19 169 -36 180 -13 8
-5 13 16 9 6 -1 4 4 -2 11 -23 23 -14 38 35 63 63 34 73 33 66 -4z m396 0 c0
-16 -4 -30 -8 -30 -5 0 -7 14 -4 30 2 17 6 30 8 30 2 0 4 -13 4 -30z m240 16
c0 -8 2 -21 5 -28 10 -26 -195 -52 -211 -26 -3 4 8 10 23 14 15 3 57 16 93 29
79 28 90 29 90 11z m2160 4 c0 -5 -2 -10 -4 -10 -3 0 -8 5 -11 10 -3 6 -1 10
4 10 6 0 11 -4 11 -10z m730 -9 c0 -14 -18 -23 -31 -15 -8 4 -7 9 2 15 18 11
29 11 29 0z m-2581 -93 c1 -10 -6 -18 -14 -18 -11 0 -15 12 -15 48 0 27 3 52
8 56 6 7 20 -47 21 -86z m2766 47 c-2 -50 -15 -56 -15 -7 0 23 4 42 8 42 4 0
7 -16 7 -35z m-2600 15 c3 -5 2 -10 -4 -10 -5 0 -13 5 -16 10 -3 6 -2 10 4 10
5 0 13 -4 16 -10z m2025 -12 c0 -16 -3 -19 -11 -11 -6 6 -8 16 -5 22 11 17 16
13 16 -11z m165 12 c3 -5 2 -10 -4 -10 -5 0 -13 5 -16 10 -3 6 -2 10 4 10 5 0
13 -4 16 -10z m-3431 -142 c-3 -4 0 -9 6 -13 5 -3 10 -12 10 -18 -1 -14 -23
22 -27 43 -2 8 -5 42 -8 75 l-5 60 14 -70 c7 -38 12 -73 10 -77z m3376 132
c19 0 50 -25 50 -40 0 -5 -11 -22 -25 -39 -14 -16 -41 -56 -60 -87 -30 -49
-35 -54 -35 -31 0 16 17 47 48 84 26 32 51 64 56 71 14 23 -3 12 -41 -28 -27
-28 -42 -37 -52 -31 -19 12 6 114 27 106 7 -3 22 -5 32 -5z m640 -3 c0 -7 -7
-22 -15 -33 -13 -17 -13 -16 -3 14 13 34 18 40 18 19z m-2564 -23 c-4 -9 -9
-15 -11 -12 -3 3 -3 13 1 22 4 9 9 15 11 12 3 -3 3 -13 -1 -22z m1770 -9 c-3
-12 -8 -69 -11 -126 -5 -94 -8 -106 -31 -130 -30 -31 -65 -41 -82 -23 -11 12
1 35 67 134 32 46 33 55 3 22 l-29 -33 -17 26 c-19 29 -19 28 41 108 44 56 70
67 59 22z m337 29 c3 -3 -33 -49 -80 -102 -47 -54 -101 -121 -121 -149 -19
-29 -38 -53 -43 -53 -4 0 -7 14 -7 32 2 45 26 86 123 208 30 37 47 50 67 50
15 0 30 5 33 10 7 11 19 13 28 4z m97 1 c0 -3 -20 -31 -44 -62 -103 -135 -143
-178 -164 -181 -14 -2 -27 -14 -33 -30 -6 -15 -9 -27 -8 -27 1 0 -3 -10 -10
-22 -6 -13 -18 -23 -26 -23 -9 0 -15 -10 -15 -25 0 -22 -4 -25 -32 -25 l-33 1
28 22 c27 23 38 45 15 31 -7 -5 12 21 43 56 30 36 88 109 128 162 40 54 82
105 94 113 20 14 57 21 57 10z m80 -7 c-1 -33 -115 -174 -163 -202 -36 -20
-61 -21 -50 -2 9 17 93 121 142 177 32 38 71 52 71 27z m373 -20 c-3 -16 -9
-28 -14 -28 -12 0 -11 4 3 35 14 31 18 29 11 -7z m-3337 -18 c-3 -32 1 -43 15
-51 23 -12 25 -62 4 -99 -9 -16 -10 -29 -4 -37 6 -6 9 -42 7 -80 l-3 -68 -70
0 c-38 0 -74 2 -80 5 -10 4 -14 5 -44 8 -20 3 4 28 32 35 47 11 132 46 135 56
2 7 -26 11 -85 11 -86 0 -121 9 -110 27 3 5 53 20 111 33 58 13 106 28 106 33
0 5 -15 7 -32 4 -18 -4 -58 -3 -88 1 l-55 8 40 13 c118 37 124 51 26 51 -71 0
-101 13 -56 24 13 3 52 19 87 36 35 16 64 30 65 30 1 0 1 -18 -1 -40z m3103
-2 c-7 -13 -14 -18 -16 -11 -3 7 1 22 8 35 7 13 14 18 16 11 3 -7 -1 -22 -8
-35z m72 1 c-5 -13 -10 -19 -10 -12 -1 15 10 45 15 40 3 -2 0 -15 -5 -28z
m-3291 16 c0 -4 -88 -45 -96 -45 -2 0 -1 7 2 15 4 8 1 15 -6 15 -6 0 -9 4 -6
8 5 8 106 15 106 7z m3349 -109 c-28 -59 -54 -105 -56 -103 -2 3 20 52 48 111
29 58 54 104 56 102 3 -2 -19 -52 -48 -110z m-216 82 c6 -23 -17 -162 -36
-215 -7 -21 -18 -33 -29 -33 -33 0 -31 28 6 87 57 93 41 113 -34 43 -42 -39
-86 -62 -79 -42 6 16 152 182 160 182 4 0 9 -10 12 -22z m-967 -15 c-10 -10
-19 5 -10 18 6 11 8 11 12 0 2 -7 1 -15 -2 -18z m-2797 -23 c6 -19 7 -30 2
-25 -5 6 -13 24 -17 40 -9 39 0 30 15 -15z m977 -75 c-1 -33 -3 -104 -4 -157
-1 -62 -6 -98 -13 -98 -7 0 -8 11 -4 29 3 17 7 94 7 171 1 78 4 136 8 128 4
-7 7 -40 6 -73z m2254 75 c0 -5 -2 -10 -4 -10 -3 0 -8 5 -11 10 -3 6 -1 10 4
10 6 0 11 -4 11 -10z m-340 -10 c0 -5 -7 -7 -15 -4 -8 4 -15 2 -15 -4 0 -5 29
-12 65 -14 69 -4 85 -12 67 -30 -14 -14 -16 -48 -3 -48 15 0 41 30 41 46 0 8
5 14 10 14 24 0 7 -45 -32 -85 -33 -32 -53 -44 -87 -49 -24 -4 -49 -13 -55
-21 -12 -14 -34 -18 -102 -16 l-42 1 5 48 c3 26 13 66 23 88 14 34 25 43 51
49 18 4 39 14 47 21 15 16 42 19 42 4z m47 4 c-3 -3 -12 -4 -19 -1 -8 3 -5 6
6 6 11 1 17 -2 13 -5z m-2338 -33 c-25 -10 -45 -24 -47 -34 -3 -14 5 -17 45
-17 55 -1 42 -14 -24 -24 -38 -5 -42 -4 -45 16 -2 13 -2 35 0 50 4 24 9 27 51
30 65 4 71 -2 20 -21z m3221 9 c0 -5 -5 -10 -11 -10 -5 0 -7 5 -4 10 3 6 8 10
11 10 2 0 4 -4 4 -10z m-1088 -22 c-7 -7 -12 -8 -12 -2 0 14 12 26 19 19 2 -3
-1 -11 -7 -17z m692 -28 c-20 -32 -100 -125 -88 -100 17 34 92 130 101 130 2
0 -4 -13 -13 -30z m-3670 5 c18 -18 36 -77 36 -117 0 -18 5 -28 15 -28 8 0 15
5 15 12 0 9 3 9 11 1 9 -9 3 -20 -22 -46 -35 -34 -96 -75 -102 -66 -1 2 -13
33 -25 69 -29 86 -29 130 3 164 27 30 47 33 69 11z m3956 0 c0 -3 -13 -23 -29
-46 -17 -22 -32 -46 -34 -52 -3 -9 -8 -8 -21 2 -9 8 -19 11 -22 8 -3 -3 4 -10
15 -17 30 -15 26 -32 -4 -18 -29 13 -33 44 -7 52 9 3 33 21 52 40 33 32 50 42
50 31z m422 -50 c0 -20 -3 -39 -6 -42 -3 -4 -6 15 -6 42 0 27 3 46 6 42 3 -3
6 -22 6 -42z m-3290 6 c2 -7 -5 -15 -14 -16 -12 -2 -18 3 -18 14 0 34 24 36
32 2z m3238 14 c0 -8 -4 -15 -10 -15 -5 0 -10 7 -10 15 0 8 5 15 10 15 6 0 10
-7 10 -15z m-840 -55 c0 -11 -4 -20 -9 -20 -5 0 -7 9 -4 20 3 11 7 20 9 20 2
0 4 -9 4 -20z m-1413 -42 c-2 -13 -4 -5 -4 17 -1 22 1 32 4 23 2 -10 2 -28 0
-40z m2129 5 l-16 -28 6 30 c8 38 17 52 21 38 3 -7 -3 -24 -11 -40z m-429 17
c-2 -5 18 -32 38 -50 6 -5 44 -35 85 -65 60 -45 80 -55 102 -51 21 4 30 0 38
-15 19 -34 33 -16 35 45 3 46 0 56 -11 52 -9 -3 -14 2 -14 14 0 11 7 20 15 20
9 0 18 7 21 15 10 26 23 17 30 -21 4 -24 13 -38 25 -41 24 -7 24 -28 2 -51
-25 -25 -26 -70 -3 -95 26 -27 25 -40 -2 -63 l-23 -19 19 23 c24 27 16 38 -16
21 -12 -7 -28 -13 -35 -14 -7 0 -26 -15 -42 -32 -31 -34 -55 -42 -67 -22 -4 6
-20 9 -39 6 -23 -4 -43 1 -66 16 -19 12 -43 26 -54 32 -11 6 -44 42 -72 80
-29 39 -59 70 -65 70 -7 0 -19 8 -25 17 -16 20 5 60 48 96 29 23 29 23 29 2 0
-11 -7 -37 -15 -57 -18 -42 -19 -53 -5 -53 6 0 10 8 10 19 0 10 8 29 19 42 10
13 22 39 26 57 4 18 8 32 10 30 2 -2 3 -5 2 -8z m-2862 -10 c7 -11 -91 -43
-105 -35 -5 3 -10 15 -10 25 0 17 7 19 55 19 30 -1 57 -5 60 -9z m2521 -42
c-4 -23 -8 -44 -10 -45 -1 -2 -32 -6 -67 -9 -60 -6 -63 -5 -44 9 11 9 26 17
33 17 7 0 26 16 43 35 41 47 53 45 45 -7z m1319 32 c-3 -5 -12 -7 -20 -3 -21
7 -19 13 6 13 11 0 18 -4 14 -10z m-52 -7 c-7 -2 -19 -2 -25 0 -7 3 -2 5 12 5
14 0 19 -2 13 -5z m-668 -13 c-3 -5 -10 -10 -16 -10 -5 0 -9 5 -9 10 0 6 7 10
16 10 8 0 12 -4 9 -10z m-4162 -48 c-6 -33 -5 -36 10 -24 13 11 17 10 26 -7
16 -29 13 -67 -5 -82 -8 -7 -13 -21 -11 -30 6 -21 -20 -47 -32 -33 -5 5 -12
42 -15 82 -4 40 -9 79 -12 86 -8 21 14 56 30 50 11 -4 13 -16 9 -42z m3370 28
c-9 -9 -81 -25 -73 -17 13 14 64 35 73 30 5 -3 5 -9 0 -13z m1426 4 c2 -2 -7
-4 -22 -4 -14 0 -29 5 -32 10 -6 10 42 4 54 -6z m155 1 c-4 -8 -10 -15 -15
-15 -5 0 -9 7 -9 15 0 8 7 15 15 15 9 0 12 -6 9 -15z m-1659 -5 c-3 -5 -10
-10 -16 -10 -5 0 -9 5 -9 10 0 6 7 10 16 10 8 0 12 -4 9 -10z m1410 0 c4 -6
-8 -10 -29 -10 -20 0 -36 5 -36 10 0 6 13 10 29 10 17 0 33 -4 36 -10z m-4768
-67 c-2 -16 -4 -5 -4 22 0 28 2 40 4 28 2 -13 2 -35 0 -50z m4632 15 c1 -5 -3
-8 -9 -8 -5 0 -10 12 -9 28 0 24 1 25 9 7 5 -11 9 -23 9 -27z m181 22 c-25 -3
-49 -3 -55 -1 -16 8 38 17 70 12 27 -5 26 -6 -15 -11z m103 13 c-7 -2 -21 -2
-30 0 -10 3 -4 5 12 5 17 0 24 -2 18 -5z m-1713 -18 c0 -7 -61 -37 -67 -32 -2
3 5 8 16 12 12 3 21 11 21 16 0 5 7 9 15 9 8 0 15 -2 15 -5z m206 -11 c-3 -9
-6 -20 -6 -25 0 -5 -9 -9 -20 -9 -11 0 -20 -4 -20 -10 0 -5 8 -10 18 -10 14
-1 15 -2 2 -9 -8 -5 -46 -5 -85 -2 -66 7 -68 8 -42 19 16 7 43 12 60 13 18 1
43 5 57 10 24 8 24 8 -5 7 -16 0 -36 0 -44 1 -24 2 -4 13 30 17 18 2 35 6 37
9 12 11 24 4 18 -11z m74 12 c0 -11 -19 -15 -25 -6 -3 5 1 10 9 10 9 0 16 -2
16 -4z m1517 -12 c-3 -3 -12 -4 -19 -1 -8 3 -5 6 6 6 11 1 17 -2 13 -5z
m-3964 -36 c9 -31 2 -33 -11 -3 -6 14 -8 25 -3 25 5 0 11 -10 14 -22z m87 13
c-35 -20 -60 -23 -60 -7 0 12 10 16 38 16 25 -1 32 -3 22 -9z m3621 0 c-18
-12 3 -24 28 -16 11 3 22 2 25 -3 3 -5 -8 -12 -26 -16 -23 -4 -34 -2 -44 11
-19 26 -17 33 9 33 16 0 18 -3 8 -9z m-4537 -16 c-25 -19 -40 -19 -24 0 7 8
20 15 28 15 13 0 12 -3 -4 -15z m1000 -12 c-10 -42 -13 -44 -52 -37 -86 14
-89 24 -11 48 66 21 70 20 63 -11z m1896 17 c0 -5 -7 -7 -15 -4 -8 4 -15 8
-15 10 0 2 7 4 15 4 8 0 15 -4 15 -10z m-90 -10 c0 -5 19 -10 43 -10 l42 0
-45 -27 c-42 -25 -59 -29 -53 -11 4 11 -50 -1 -152 -33 -103 -31 -186 -41
-192 -21 -6 16 47 38 162 67 50 13 101 28 115 34 33 13 80 14 80 1z m200 -11
c-8 -5 -28 -17 -45 -25 l-30 -16 30 26 c17 14 37 25 45 25 13 1 13 0 0 -10z
m1297 -51 c-2 -13 -4 -3 -4 22 0 25 2 35 4 23 2 -13 2 -33 0 -45z m-860 37 c5
-14 7 -14 24 1 19 17 85 11 73 -8 -4 -5 2 -8 13 -6 10 1 30 -4 44 -13 13 -8
39 -21 57 -29 18 -7 38 -21 45 -31 26 -37 201 -139 237 -139 6 0 19 -6 31 -12
17 -11 22 -10 37 8 24 30 66 36 82 11 31 -50 49 -87 42 -87 -4 0 -25 -27 -46
-60 -26 -39 -56 -70 -85 -88 l-46 -27 40 -5 c22 -3 42 -3 45 1 9 10 40 19 40
11 0 -23 -51 -34 -167 -38 -142 -3 -212 -22 -329 -85 -39 -22 -81 -39 -94 -39
-13 0 -20 -3 -17 -7 13 -13 -16 -33 -49 -33 -18 0 -36 -5 -39 -11 -11 -17 -49
-27 -66 -18 -11 5 -38 1 -75 -11 -33 -10 -85 -24 -116 -30 -45 -9 -58 -15 -58
-29 0 -21 -113 -83 -136 -74 -8 3 -14 -1 -14 -8 0 -10 -15 -15 -45 -16 -32 -1
-45 2 -45 12 0 7 5 15 11 17 7 2 8 47 2 148 l-8 145 33 65 c38 75 64 198 61
288 -2 51 -5 60 -15 50 -15 -17 -73 -149 -77 -179 -2 -13 -10 -25 -18 -27 -8
-3 -11 -1 -7 3 4 5 2 15 -5 23 -10 13 -9 14 2 7 11 -7 13 5 9 68 -4 60 -2 77
9 82 8 3 18 3 21 1 4 -2 23 16 42 40 l35 43 79 0 c43 1 96 6 117 13 61 18 60
19 13 -137 -8 -27 -18 -58 -21 -67 -3 -10 0 -18 6 -18 6 0 13 12 17 28 8 35
44 142 56 165 5 9 16 17 25 17 13 0 14 -9 8 -56 -6 -51 -5 -56 15 -61 13 -3
19 -11 16 -19 -3 -8 -1 -25 4 -39 6 -15 6 -26 0 -30 -15 -9 -12 -25 5 -25 18
0 21 -45 15 -228 -1 -57 2 -78 15 -92 44 -48 116 -29 198 52 27 27 50 48 52
48 2 0 5 -10 7 -22 2 -13 11 -24 20 -26 27 -5 40 63 31 166 -4 48 -8 121 -8
162 0 70 1 74 24 80 14 3 26 11 28 17 7 19 -47 27 -91 14 -74 -22 -217 -33
-247 -19 -9 4 -25 1 -36 -7 -26 -18 -31 -7 -25 52 3 34 11 47 38 68 39 29 40
28 19 -22 -8 -19 -15 -39 -15 -44 0 -20 44 -7 72 21 36 36 29 54 -7 20 -20
-18 -25 -20 -25 -8 0 16 85 98 102 98 5 0 11 -7 15 -15z m-167 1 c0 -2 -7 -7
-16 -10 -8 -3 -12 -2 -9 4 6 10 25 14 25 6z m97 -2 c-3 -3 -12 -4 -19 -1 -8 3
-5 6 6 6 11 1 17 -2 13 -5z m-279 -15 c11 0 12 -2 5 -6 -29 -11 -11 -25 25
-19 30 5 34 4 18 -5 -10 -6 -57 -13 -105 -16 -79 -4 -84 -3 -66 11 11 8 25 20
31 25 15 12 46 20 62 15 8 -2 21 -4 30 -5z m182 -14 c-30 -17 -40 -18 -40 -6
0 10 22 18 50 19 8 1 4 -5 -10 -13z m-2305 -25 c0 -9 -15 -19 -37 -24 -21 -5
-38 -14 -38 -20 0 -5 -9 0 -20 12 -22 23 -26 37 -8 26 8 -5 9 -2 5 10 -6 15 0
17 46 14 38 -2 52 -7 52 -18z m2255 10 c0 -5 -4 -10 -10 -10 -5 0 -10 5 -10
10 0 6 5 10 10 10 6 0 10 -4 10 -10z m1320 -16 c0 -2 -7 -4 -15 -4 -8 0 -15 4
-15 10 0 5 7 7 15 4 8 -4 15 -8 15 -10z m-2220 -3 c0 -5 -11 -11 -25 -13 -28
-6 -35 8 -7 15 28 8 32 7 32 -2z m2305 0 c-16 -14 -116 -40 -113 -29 2 6 19
16 38 23 42 15 88 19 75 6z m245 -1 c0 -5 -4 -10 -10 -10 -5 0 -10 5 -10 10 0
6 5 10 10 10 6 0 10 -4 10 -10z m-2113 -6 c-3 -3 -12 -4 -19 -1 -8 3 -5 6 6 6
11 1 17 -2 13 -5z m1530 -26 c-3 -7 -5 -2 -5 12 0 14 2 19 5 13 2 -7 2 -19 0
-25z m-3282 2 c3 -5 1 -10 -4 -10 -6 0 -11 5 -11 10 0 6 2 10 4 10 3 0 8 -4
11 -10z m1673 -7 c-2 -9 -16 -20 -32 -24 -15 -4 -36 -15 -46 -24 -13 -12 -20
-13 -25 -5 -4 7 -18 9 -31 6 -13 -4 -24 -2 -24 3 0 5 20 13 45 17 25 3 56 15
68 25 28 23 49 24 45 2z m206 3 c-21 -15 -30 -14 -19 3 3 6 14 11 23 11 13 0
13 -2 -4 -14z m-489 -4 c-57 -49 -94 -70 -114 -65 -15 4 -21 12 -19 27 2 16
14 24 48 33 54 14 98 16 85 5z m105 -6 c0 -2 -7 -6 -15 -10 -8 -3 -15 -1 -15
4 0 6 7 10 15 10 8 0 15 -2 15 -4z m250 -24 c0 -15 -2 -15 -10 -2 -13 20 -13
33 0 25 6 -3 10 -14 10 -23z m1521 -13 c-5 -13 -10 -19 -10 -12 -1 15 10 45
15 40 3 -2 0 -15 -5 -28z m-3341 1 c0 -5 -11 -10 -25 -10 -14 0 -25 5 -25 10
0 6 11 10 25 10 14 0 25 -4 25 -10z m1304 -5 c-6 -16 -24 -21 -24 -7 0 11 11
22 21 22 5 0 6 -7 3 -15z m2321 5 c9 -15 -18 -51 -35 -45 -8 4 -11 3 -8 -1 10
-9 -10 -44 -25 -44 -8 0 -8 3 -2 8 6 4 10 18 9 31 -2 37 45 77 61 51z m-110
-10 c3 -5 1 -10 -4 -10 -6 0 -11 5 -11 10 0 6 2 10 4 10 3 0 8 -4 11 -10z
m155 6 c0 -3 -4 -8 -10 -11 -5 -3 -10 -1 -10 4 0 6 5 11 10 11 6 0 10 -2 10
-4z m-1821 -43 c6 -21 11 -55 11 -76 0 -33 -2 -37 -14 -24 -8 8 -14 30 -13 48
0 19 -3 46 -7 62 -5 17 -4 27 2 27 6 0 16 -17 21 -37z m-329 23 c0 -5 -65 -46
-74 -46 -16 0 -3 21 22 34 26 15 52 20 52 12z m49 -43 c5 -33 10 -38 36 -41
17 -2 36 -9 44 -15 10 -9 16 -7 26 6 22 31 43 -9 70 -135 3 -15 -8 -82 -26
-153 -17 -70 -28 -129 -24 -133 10 -10 23 17 40 88 25 96 33 114 34 68 1 -20
6 -40 11 -43 6 -3 11 -18 11 -33 2 -24 2 -24 6 -4 6 32 30 27 37 -9 12 -61 6
-138 -16 -196 -22 -59 -38 -87 -38 -65 0 7 -5 12 -11 12 -7 0 -9 -9 -5 -22 3
-13 -2 -42 -11 -65 -17 -46 -33 -57 -142 -99 -84 -32 -101 -31 -67 2 37 38 43
70 45 252 2 150 -9 242 -27 242 -11 0 -42 55 -42 77 -1 10 -9 36 -20 58 -25
51 -25 52 5 87 14 16 25 35 25 41 0 7 -9 1 -20 -13 -10 -14 -21 -22 -25 -19
-8 9 14 59 39 87 17 19 17 22 3 22 -9 0 -19 -4 -22 -10 -8 -13 -25 -13 -25 0
0 11 72 62 78 55 3 -3 8 -22 11 -42z m161 11 c0 -13 -4 -24 -10 -24 -5 0 -10
9 -10 20 0 11 -6 20 -12 20 -9 0 -8 3 2 9 19 13 30 4 30 -25z m57 -8 l13 -38
-23 15 c-12 8 -23 27 -25 42 -5 40 19 27 35 -19z m814 21 c-13 -13 -26 -3 -16
12 3 6 11 8 17 5 6 -4 6 -10 -1 -17z m-1377 5 c2 -4 -2 -15 -9 -25 -11 -16
-13 -16 -19 -1 -10 25 14 48 28 26z m1990 -7 c-4 -8 -10 -15 -15 -15 -4 0 -6
7 -3 15 4 8 10 15 15 15 4 0 6 -7 3 -15z m-3194 1 c0 -8 -51 -13 -56 -5 -3 5
9 9 25 9 17 0 31 -2 31 -4z m37 -2 c-3 -3 -12 -4 -19 -1 -8 3 -5 6 6 6 11 1
17 -2 13 -5z m133 -4 c0 -5 -4 -10 -10 -10 -5 0 -10 5 -10 10 0 6 5 10 10 10
6 0 10 -4 10 -10z m1144 -5 c0 -5 -16 -20 -35 -33 -30 -21 -34 -21 -37 -7 -5
23 28 56 52 53 12 -2 21 -7 20 -13z m641 -47 c-10 -95 -32 -183 -55 -220 -13
-22 -20 -27 -20 -15 0 9 -4 17 -10 17 -5 0 -10 4 -10 10 0 5 6 7 14 4 7 -3 16
3 20 13 3 10 9 25 13 33 5 13 4 13 -9 2 -30 -24 -30 7 -2 81 41 108 54 137 60
137 3 0 2 -28 -1 -62z m1801 46 c-3 -9 -6 -18 -6 -20 0 -2 -4 -4 -9 -4 -5 0
-7 9 -4 20 3 11 10 20 15 20 6 0 7 -7 4 -16z m-3651 -4 c3 -5 -1 -10 -10 -10
-9 0 -13 5 -10 10 3 6 8 10 10 10 2 0 7 -4 10 -10z m3790 -10 c-3 -5 0 -10 7
-10 9 0 9 -3 -2 -10 -21 -14 -33 -12 -24 3 6 9 5 9 -8 0 -19 -16 -31 -6 -15
13 14 15 51 19 42 4z m-2729 -45 c4 -20 3 -27 -3 -20 -6 6 -14 24 -17 40 -5
20 -4 27 3 20 5 -5 13 -23 17 -40z m217 2 c-9 -16 -26 12 -18 30 7 17 8 17 15
-2 4 -11 5 -24 3 -28z m1019 21 c-7 -7 -12 -8 -12 -2 0 14 12 26 19 19 2 -3
-1 -11 -7 -17z m78 11 c0 -5 -19 -48 -42 -94 -23 -47 -39 -88 -35 -91 4 -4 18
-2 32 4 23 11 27 9 35 -14 6 -14 10 -30 10 -35 0 -5 9 -9 19 -9 15 0 18 -5 14
-21 -5 -16 -2 -20 12 -17 22 4 44 70 26 76 -14 5 -15 162 -1 162 5 0 15 11 22
24 11 21 13 4 12 -120 l0 -144 -50 -51 c-62 -64 -96 -82 -136 -74 -21 5 -34
16 -43 38 -14 35 -10 53 6 24 6 -9 17 -17 25 -17 25 0 84 67 84 95 0 22 -4 25
-34 25 -52 0 -66 21 -66 97 0 63 1 65 30 76 17 6 33 21 36 32 11 36 44 62 44
34z m960 1 c-8 -5 -22 -10 -30 -10 -13 0 -13 1 0 10 8 5 22 10 30 10 13 0 13
-1 0 -10z m-216 -6 c9 -3 16 -10 16 -15 0 -13 -23 -10 -44 6 -16 12 -17 15 -4
15 9 0 23 -3 32 -6z m451 -4 c-27 -12 -35 -12 -35 0 0 6 12 10 28 9 24 0 25
-1 7 -9z m-2341 -12 c-4 -7 -16 -19 -26 -26 -10 -7 -18 -19 -18 -26 0 -8 -9
-16 -20 -19 -11 -3 -20 -12 -20 -21 0 -19 11 -21 28 -4 10 10 12 8 9 -7 -4
-29 -24 -61 -33 -53 -4 4 -1 15 7 24 12 15 11 16 -9 10 -17 -6 -24 -3 -31 16
-5 13 -5 27 0 33 5 5 9 18 9 29 0 16 3 17 12 8 17 -17 38 -15 38 3 0 8 12 21
28 29 34 19 35 19 26 4z m1076 -18 c-24 -15 -36 -11 -14 4 10 8 21 12 24 10 2
-3 -2 -9 -10 -14z m880 10 c0 -5 -4 -10 -9 -10 -6 0 -13 5 -16 10 -3 6 1 10 9
10 9 0 16 -4 16 -10z m520 4 c0 -3 -7 -12 -15 -20 -8 -9 -15 -27 -15 -41 0
-15 -3 -24 -6 -20 -12 11 7 87 22 87 8 0 14 -3 14 -6z m-5040 -14 c0 -5 -5
-10 -11 -10 -5 0 -7 5 -4 10 3 6 8 10 11 10 2 0 4 -4 4 -10z m40 0 c0 -5 -7
-10 -15 -10 -8 0 -15 5 -15 10 0 6 7 10 15 10 8 0 15 -4 15 -10z m2955 0 c3
-5 -1 -10 -9 -10 -9 0 -16 5 -16 10 0 6 4 10 9 10 6 0 13 -4 16 -10z m1595 0
c0 -5 -4 -10 -10 -10 -5 0 -10 5 -10 10 0 6 5 10 10 10 6 0 10 -4 10 -10z
m295 0 c3 -5 -1 -10 -10 -10 -9 0 -13 5 -10 10 3 6 8 10 10 10 2 0 7 -4 10
-10z m-4744 -90 c-8 -22 -10 -18 -10 26 -1 28 2 54 7 58 11 12 14 -57 3 -84z
m4709 80 c0 -5 -4 -10 -10 -10 -5 0 -10 5 -10 10 0 6 5 10 10 10 6 0 10 -4 10
-10z m260 1 c0 -6 -5 -13 -10 -16 -6 -4 -8 -11 -5 -16 4 -5 1 -9 -5 -9 -7 0
-9 -8 -5 -20 4 -11 2 -20 -4 -20 -14 0 -14 31 -1 64 9 25 30 36 30 17z m-125
-11 c3 -5 -1 -10 -9 -10 -9 0 -16 5 -16 10 0 6 4 10 9 10 6 0 13 -4 16 -10z
m-193 -22 c-7 -7 -12 -8 -12 -2 0 14 12 26 19 19 2 -3 -1 -11 -7 -17z m248
-15 c-11 -17 -11 -17 -6 0 3 10 6 24 7 30 0 9 2 9 5 0 3 -7 0 -20 -6 -30z
m-286 18 c3 -5 -5 -11 -19 -13 -20 -4 -23 -3 -14 8 13 16 25 18 33 5z m-4664
-22 c0 -11 -4 -17 -10 -14 -5 3 -10 13 -10 21 0 8 5 14 10 14 6 0 10 -9 10
-21z m1155 7 c-11 -8 -23 -12 -28 -9 -13 8 3 23 26 23 20 0 20 0 2 -14z
m-1408 -2 c-3 -3 -12 -4 -19 -1 -8 3 -5 6 6 6 11 1 17 -2 13 -5z m223 2 c0
-11 -19 -15 -25 -6 -3 5 1 10 9 10 9 0 16 -2 16 -4z m4922 -13 c-10 -20 -5
-44 12 -55 11 -8 -73 -9 -86 -2 -11 7 16 53 37 63 33 16 47 13 37 -6z m-5405
-15 c-3 -8 -6 -5 -6 6 -1 11 2 17 5 13 3 -3 4 -12 1 -19z m4843 12 c0 -24 -27
-63 -52 -76 -36 -19 -35 -7 2 44 29 40 50 54 50 32z m75 -17 c-21 -15 -30 -10
-22 11 4 10 13 13 23 9 15 -6 15 -7 -1 -20z m-1902 -28 c7 -45 -10 -157 -26
-167 -30 -19 -52 -7 -79 41 -16 27 -28 52 -28 55 0 3 16 12 35 20 22 9 39 26
46 43 23 61 43 65 52 8z m71 30 c-6 -16 -24 -21 -24 -7 0 11 11 22 21 22 5 0
6 -7 3 -15z m1036 1 c0 -16 -18 -31 -27 -22 -8 8 5 36 17 36 5 0 10 -6 10 -14z
m-1252 -41 c-3 -3 -9 2 -12 12 -6 14 -5 15 5 6 7 -7 10 -15 7 -18z m-2338 1
c0 -15 -29 -30 -39 -20 -3 3 3 12 13 20 24 17 26 17 26 0z m4565 4 c-3 -5 -18
-9 -33 -9 l-27 1 30 8 c17 4 31 8 33 9 2 0 0 -3 -3 -9z m-2002 -20 c3 -10 -1
-27 -8 -36 -11 -15 -13 -15 -19 10 -7 27 -1 46 13 46 5 0 11 -9 14 -20z m2207
0 c0 -4 -13 -10 -30 -12 -28 -4 -29 -4 -12 12 16 16 42 16 42 0z m201 -23
c-14 -15 -21 -17 -21 -8 0 21 33 56 38 41 3 -7 -5 -22 -17 -33z m-3781 18 c0
-8 -4 -15 -9 -15 -5 0 -16 -3 -25 -6 -12 -4 -16 0 -16 15 0 16 6 21 25 21 16
0 25 -6 25 -15z m156 -20 c6 -20 7 -38 3 -41 -9 -5 -29 37 -29 62 0 26 15 14
26 -21z m3344 26 c0 -5 -7 -11 -15 -15 -15 -5 -20 5 -8 17 9 10 23 9 23 -2z
m-5020 -11 c0 -5 -9 -10 -20 -10 -11 0 -20 5 -20 10 0 6 9 10 20 10 11 0 20
-4 20 -10z m5254 -5 c-4 -8 -10 -12 -15 -9 -11 6 -2 24 11 24 5 0 7 -7 4 -15z
m-4985 -22 c-4 -34 -18 -55 -31 -47 -5 3 -2 16 7 30 8 13 11 24 5 24 -5 0 -10
5 -10 10 0 6 7 10 16 10 11 0 15 -8 13 -27z m-469 1 c0 -8 -5 -12 -10 -9 -6 4
-8 11 -5 16 9 14 15 11 15 -7z m1810 2 c0 -8 -4 -18 -10 -21 -5 -3 -10 3 -10
14 0 12 5 21 10 21 6 0 10 -6 10 -14z m2990 4 c0 -5 -3 -10 -7 -10 -5 0 -19
-3 -33 -6 -24 -6 -25 -6 -5 9 23 19 45 22 45 7z m590 1 c0 -17 -54 -52 -76
-49 -11 1 -29 -3 -38 -11 -14 -12 -16 -11 -17 10 0 23 -1 23 -9 4 -5 -15 -18
-21 -44 -23 -41 -3 -44 5 -17 37 24 27 101 42 101 20 1 -10 4 -9 11 4 11 18
89 25 89 8z m-4860 -11 c0 -5 -9 -10 -20 -10 -11 0 -20 5 -20 10 0 6 9 10 20
10 11 0 20 -4 20 -10z m-344 -15 c-22 -17 -36 -19 -36 -7 0 14 12 22 34 22 21
-1 21 -1 2 -15z m60 -20 c1 -20 -3 -35 -10 -35 -6 0 -4 -5 4 -10 12 -7 10 -11
-10 -19 -24 -9 -24 -10 -3 -10 27 -1 21 -31 -6 -31 -14 0 -14 2 -1 10 12 8 11
10 -7 10 -12 0 -25 -4 -28 -10 -9 -15 -78 -12 -100 3 -20 15 -15 21 28 31 21
5 27 3 28 -11 1 -17 2 -17 6 0 3 12 15 17 40 17 27 0 34 3 30 15 -4 8 -2 17 2
19 5 3 7 17 6 31 -2 14 2 25 8 25 7 0 13 -16 13 -35z m3234 9 c0 -8 -4 -14
-10 -14 -5 0 -10 9 -10 21 0 11 5 17 10 14 6 -3 10 -13 10 -21z m1895 -39
c-26 -30 -53 -55 -61 -55 -32 0 -21 22 30 59 30 22 58 45 61 51 4 6 9 9 12 6
3 -3 -16 -30 -42 -61z m-5235 44 c0 -5 -4 -7 -10 -4 -5 3 -10 2 -10 -3 0 -6
-6 -12 -14 -15 -10 -4 -12 0 -9 14 5 20 43 27 43 8z m206 -4 c-3 -8 0 -15 7
-15 8 0 7 -4 -3 -10 -13 -9 -13 -11 0 -20 8 -5 12 -10 8 -10 -3 0 -13 -2 -21
-5 -10 -4 -14 3 -15 26 -1 37 4 49 20 49 5 0 8 -7 4 -15z m73 -17 c8 -22 7
-27 -2 -21 -7 4 -16 8 -22 8 -11 0 -15 8 -15 28 0 25 29 14 39 -15z m5051 24
c0 -5 -10 -17 -21 -28 -12 -10 -25 -29 -29 -40 -12 -29 -66 -68 -76 -53 -3 6
19 36 52 70 56 57 74 69 74 51z m80 1 c0 -5 -17 -24 -36 -43 l-35 -35 3 35 c2
27 8 36 28 41 35 10 40 10 40 2z m-3830 -18 c9 -11 10 -19 3 -26 -7 -7 -16 -2
-27 15 -13 21 -14 26 -2 26 7 0 19 -7 26 -15z m3435 5 c-3 -5 -11 -10 -16 -10
-6 0 -7 5 -4 10 3 6 11 10 16 10 6 0 7 -4 4 -10z m-5109 -27 c-10 -10 -19 5
-10 18 6 11 8 11 12 0 2 -7 1 -15 -2 -18z m4051 11 c3 -8 -1 -23 -10 -32 -15
-14 -17 -14 -25 9 -6 13 -8 27 -5 32 8 13 33 7 40 -9z m1023 6 c0 -5 -9 -14
-20 -20 -16 -8 -20 -8 -20 4 0 13 13 23 33 25 4 1 7 -3 7 -9z m-4923 -23 c-4
-14 -117 -21 -117 -7 0 5 15 10 33 11 17 0 41 4 52 8 23 10 38 4 32 -12z m109
-24 c-1 -24 -4 -43 -8 -43 -5 0 -8 9 -8 20 0 14 -5 18 -17 14 -15 -5 -15 -3 1
10 11 9 14 16 8 16 -7 0 -12 6 -12 13 0 7 8 13 18 13 15 0 18 -8 18 -43z m224
37 c0 -5 -10 -10 -22 -10 -19 0 -20 2 -8 10 19 13 30 13 30 0z m1317 4 c-3 -3
-12 -4 -19 -1 -8 3 -5 6 6 6 11 1 17 -2 13 -5z m3133 -8 c-8 -8 -31 -17 -50
-20 l-35 -6 40 19 c48 23 64 26 45 7z m-1503 -18 c-3 -8 -6 -5 -6 6 -1 11 2
17 5 13 3 -3 4 -12 1 -19z m1593 13 c0 -9 -24 -21 -43 -21 -6 0 -2 7 9 15 22
17 34 19 34 6z m-1961 -75 c-5 -6 -9 7 -8 35 l1 44 8 -35 c5 -20 5 -39 -1 -44z
m-3059 60 c0 -3 -4 -8 -10 -11 -5 -3 -10 -1 -10 4 0 6 5 11 10 11 6 0 10 -2
10 -4z m475 -6 c3 -6 -4 -10 -17 -10 -18 0 -20 2 -8 10 19 12 18 12 25 0z
m2373 -34 c38 -52 37 -51 13 -53 -14 -1 -24 10 -35 38 -29 71 -22 76 22 15z
m2382 39 c0 -13 -56 -25 -84 -19 -31 7 -31 7 -6 15 30 8 90 11 90 4z m186 -22
c-4 -11 -15 -29 -27 -41 -23 -26 -51 -30 -42 -6 5 13 7 13 14 2 7 -10 9 -10 9
3 0 18 40 73 47 65 3 -2 2 -13 -1 -23z m-4996 1 c0 -8 -4 -12 -10 -9 -5 3 -10
1 -10 -4 0 -6 5 -11 10 -11 6 0 10 -4 10 -9 0 -5 -9 -7 -20 -4 -10 3 -19 8
-18 12 2 17 -6 18 -49 2 -27 -9 -48 -22 -48 -28 0 -6 -3 -15 -7 -19 -5 -4 -8
7 -8 24 0 21 5 32 15 33 18 2 25 4 45 12 14 6 47 12 78 16 6 0 12 -6 12 -15z
m1450 6 c0 -5 -4 -10 -10 -10 -5 0 -10 5 -10 10 0 6 5 10 10 10 6 0 10 -4 10
-10z m2965 0 c-3 -5 -11 -10 -16 -10 -6 0 -7 5 -4 10 3 6 11 10 16 10 6 0 7
-4 4 -10z m265 0 c0 -5 -7 -10 -16 -10 -8 0 -12 5 -9 10 3 6 10 10 16 10 5 0
9 -4 9 -10z m-5110 -20 c0 -5 -2 -10 -4 -10 -3 0 -8 5 -11 10 -3 6 -1 10 4 10
6 0 11 -4 11 -10z m525 0 c3 -5 1 -10 -4 -10 -6 0 -11 5 -11 10 0 6 2 10 4 10
3 0 8 -4 11 -10z m4325 -5 c-14 -8 -34 -14 -45 -14 -13 0 -8 5 15 14 46 18 61
18 30 0z m-4367 -2 c-7 -2 -19 -2 -25 0 -7 3 -2 5 12 5 14 0 19 -2 13 -5z
m147 -30 l-1 -38 -15 29 c-13 24 -14 30 -2 37 7 5 14 9 16 9 1 0 2 -17 2 -37z
m4137 31 c-3 -3 -12 -4 -19 -1 -8 3 -5 6 6 6 11 1 17 -2 13 -5z m333 -9 c0 -8
4 -15 9 -15 5 0 11 7 15 15 6 16 36 21 36 5 0 -5 -13 -16 -30 -25 -16 -9 -30
-12 -30 -8 0 4 -7 -3 -16 -15 -21 -31 -38 -28 -29 5 11 45 45 74 45 38z m-375
-4 c-14 -14 -73 -26 -60 -13 6 5 19 12 30 15 34 8 40 8 30 -2z m290 0 c-6 -5
-16 -11 -24 -13 -8 -2 -28 -18 -44 -36 -16 -18 -31 -31 -33 -29 -9 9 21 77 35
79 41 9 75 8 66 -1z m30 -30 c-4 -17 -14 -38 -23 -47 -15 -15 -16 -15 -23 2
-6 16 -8 16 -8 2 -1 -9 -22 -30 -48 -47 -49 -33 -63 -37 -63 -21 0 6 4 10 9
10 4 0 22 14 40 30 17 17 31 28 31 25 0 -3 19 14 42 39 24 25 44 43 46 41 2
-2 1 -17 -3 -34z m205 8 c0 -5 -13 -15 -30 -20 -16 -6 -30 -16 -30 -22 0 -6
-3 -7 -7 -4 -3 4 -11 3 -17 -2 -6 -4 -19 -11 -28 -14 -14 -5 -18 -1 -18 17 0
17 9 27 30 36 17 7 30 16 30 20 0 13 33 18 53 8 9 -5 17 -13 17 -19z m-5299
-7 c-9 -3 -9 -7 0 -18 9 -11 8 -14 -5 -14 -19 0 -21 31 -4 48 10 10 14 10 17
0 2 -6 -1 -14 -8 -16z m1949 -10 c0 -15 -5 -34 -10 -42 -7 -11 -10 -2 -10 33
0 30 4 46 10 42 6 -3 10 -18 10 -33z m1259 5 c0 -21 -1 -21 -9 -2 -12 28 -12
37 0 30 6 -3 10 -16 9 -28z m1191 23 c-20 -13 -43 -13 -35 0 3 6 16 10 28 10
18 0 19 -2 7 -10z m225 1 c-15 -13 -143 -53 -157 -49 -6 2 22 16 63 30 78 28
110 34 94 19z m345 -1 c0 -15 -38 -50 -55 -50 -24 0 -18 20 9 30 13 5 27 14
31 19 8 14 15 14 15 1z m-4920 -10 c0 -5 -4 -10 -10 -10 -5 0 -10 5 -10 10 0
6 5 10 10 10 6 0 10 -4 10 -10z m265 0 c-3 -5 -11 -10 -16 -10 -6 0 -7 5 -4
10 3 6 11 10 16 10 6 0 7 -4 4 -10z m68 -9 c4 -1 12 -1 17 -1 6 0 10 -9 10
-20 0 -17 -6 -20 -40 -18 -22 1 -40 5 -40 10 0 4 7 8 15 8 9 0 15 9 15 23 0
13 3 17 8 10 4 -6 10 -12 15 -12z m205 7 c-2 -6 -10 -14 -16 -16 -7 -2 -10 2
-6 12 7 18 28 22 22 4z m-343 -8 c3 -5 -1 -10 -10 -10 -9 0 -13 5 -10 10 3 6
8 10 10 10 2 0 7 -4 10 -10z m235 0 c0 -5 -9 -10 -20 -10 -11 0 -20 5 -20 10
0 6 9 10 20 10 11 0 20 -4 20 -10z m60 0 c0 -5 -6 -10 -14 -10 -8 0 -17 -6
-19 -12 -3 -7 -6 -3 -6 10 -1 16 5 22 19 22 11 0 20 -4 20 -10z m-382 -29 c9
1 26 -2 36 -6 19 -8 19 -9 0 -16 -10 -4 -29 -8 -41 -8 -20 -1 -23 4 -22 32 1
17 3 24 6 14 3 -10 12 -17 21 -16z m4632 17 c-14 -6 -41 -14 -60 -19 -35 -10
-44 -12 -87 -25 -13 -3 -23 -2 -23 3 0 6 -15 8 -39 3 -42 -7 -73 1 -52 15 7 4
18 4 25 2 8 -3 30 -2 50 3 20 4 39 4 41 -1 3 -4 27 0 53 11 26 10 63 19 82 19
34 0 34 -1 10 -11z m-4700 -20 c0 -19 2 -20 10 -8 8 13 10 13 10 -1 0 -10 -10
-19 -25 -21 -22 -5 -25 -2 -25 23 0 19 5 29 15 29 9 0 15 -9 15 -22z m5240 2
c-6 -10 -16 -23 -24 -27 -7 -4 -21 -20 -31 -35 -9 -15 -21 -25 -26 -22 -5 3
-9 -2 -9 -10 0 -9 -4 -16 -10 -16 -16 0 -11 36 7 51 11 10 14 10 9 2 -4 -7 -3
-13 2 -13 5 0 12 13 15 28 4 20 17 34 39 45 41 21 41 21 28 -3z m-5020 -6 c0
-13 -3 -14 -13 -5 -8 6 -17 8 -20 4 -4 -3 -7 -1 -7 5 0 7 9 12 20 12 12 0 20
-7 20 -16z m163 9 c-7 -2 -19 -2 -25 0 -7 3 -2 5 12 5 14 0 19 -2 13 -5z
m3848 -9 c-88 -27 -87 -27 -74 -14 12 13 65 28 98 28 11 0 0 -6 -24 -14z
m1048 -21 c-47 -54 -89 -93 -102 -93 -6 0 -3 8 6 18 9 9 33 36 53 59 20 24 40
40 45 37 5 -3 9 0 9 5 0 6 5 11 11 11 6 0 -4 -17 -22 -37z m-4755 11 c3 -9 6
-17 6 -18 0 -2 -13 -3 -30 -4 -33 -1 -39 12 -12 27 24 14 29 13 36 -5z m2603
-6 c-3 -8 -6 -5 -6 6 -1 11 2 17 5 13 3 -3 4 -12 1 -19z m1943 0 c0 -16 -3
-19 -11 -11 -6 6 -8 16 -5 22 11 17 16 13 16 -11z m-5110 -4 c0 -8 -4 -12 -10
-9 -5 3 -10 10 -10 16 0 5 5 9 10 9 6 0 10 -7 10 -16z m1890 -104 c-22 -63
-29 -75 -25 -45 3 22 5 54 5 71 0 17 9 41 20 54 11 13 21 28 21 34 1 6 3 2 6
-9 2 -11 -10 -58 -27 -105z m2560 108 c0 -4 -10 -9 -22 -9 -15 -1 -11 -4 12
-9 22 -4 29 -9 20 -12 -37 -15 -220 -77 -267 -92 -29 -9 -74 -19 -100 -22 -27
-3 -83 -17 -126 -30 -43 -13 -83 -24 -88 -24 -18 0 0 17 23 23 13 3 48 14 78
26 30 12 62 21 71 21 9 0 29 7 46 15 16 8 45 14 64 13 19 0 52 8 74 19 22 11
58 24 80 27 40 7 101 35 78 36 -7 0 -13 5 -13 11 0 5 4 8 8 5 4 -2 14 -1 20 3
17 10 42 10 42 -1z m325 -3 c-16 -8 -39 -14 -50 -14 -15 1 -13 4 10 14 17 8
39 14 50 14 15 -1 13 -4 -10 -14z m101 0 c-22 -16 -57 -21 -40 -6 7 8 29 15
54 20 3 0 -4 -6 -14 -14z m204 0 c0 -9 -9 -15 -22 -15 -22 1 -23 1 -4 15 25
19 26 19 26 0z m-5126 -10 c-4 -8 -12 -15 -20 -15 -8 0 -11 6 -8 15 4 8 12 15
20 15 8 0 11 -6 8 -15z m5199 -25 c-48 -45 -76 -52 -71 -17 2 14 9 21 21 21 9
-1 17 2 17 7 0 7 45 25 70 28 3 0 -14 -17 -37 -39z m-828 10 c-28 -12 -47 -12
-40 0 3 6 18 10 33 9 24 0 25 -1 7 -9z m536 -11 c-13 -11 -27 -17 -30 -13 -7
7 28 34 43 34 6 -1 0 -10 -13 -21z m-4291 -3 c0 -8 -13 -19 -30 -25 -51 -17
-28 14 28 38 1 1 2 -5 2 -13z m2345 4 c3 -5 1 -10 -4 -10 -6 0 -11 5 -11 10 0
6 2 10 4 10 3 0 8 -4 11 -10z m200 -29 c-8 -32 -11 -35 -24 -27 -5 4 -9 19 -9
35 1 23 5 27 20 23 15 -4 18 -10 13 -31z m1495 35 c0 -3 -43 -26 -95 -52 -52
-26 -95 -51 -95 -55 0 -5 -6 -9 -14 -9 -8 0 -22 -8 -32 -17 -10 -10 -20 -18
-23 -19 -3 0 -40 -16 -81 -36 -41 -19 -85 -38 -97 -42 -13 -4 -23 -11 -23 -16
0 -5 -10 -8 -22 -8 -61 4 -109 -3 -102 -13 3 -6 22 -9 40 -7 19 2 33 0 31 -6
-4 -12 -165 -74 -209 -80 -48 -7 -91 -16 -99 -22 -4 -2 -10 0 -14 6 -3 5 -5
10 -3 10 2 0 21 7 43 15 64 23 8 17 -63 -7 -54 -18 -62 -23 -48 -33 15 -11
103 -5 146 11 37 13 -13 -18 -115 -71 -60 -31 -120 -65 -132 -75 -12 -11 -39
-28 -60 -39 -35 -17 -43 -18 -93 -6 -30 7 -82 18 -115 25 l-60 13 65 31 c36
18 103 52 150 75 47 24 110 56 140 71 81 40 313 103 351 95 28 -6 30 -5 25 13
-7 21 -2 23 229 91 66 20 112 41 90 41 -5 0 -46 -12 -90 -26 -44 -14 -87 -23
-97 -21 -10 3 -21 1 -24 -4 -3 -5 -16 -9 -29 -9 -13 0 -25 -3 -27 -8 -1 -4
-41 -17 -88 -29 -92 -23 -89 -7 4 23 28 9 56 20 61 25 6 4 44 17 85 28 41 11
139 42 217 70 79 28 148 48 156 46 7 -3 30 1 52 9 41 15 65 19 65 12z m-4423
-21 c0 -8 -4 -15 -9 -15 -4 0 -8 7 -8 15 0 8 4 15 8 15 5 0 9 -7 9 -15z m113
5 c0 -5 -4 -10 -10 -10 -5 0 -10 5 -10 10 0 6 5 10 10 10 6 0 10 -4 10 -10z
m2657 -22 c-3 -7 -5 -2 -5 12 0 14 2 19 5 13 2 -7 2 -19 0 -25z m1750 16 c-16
-8 -34 -13 -40 -11 -7 3 -1 9 13 15 38 16 59 13 27 -4z m363 1 c0 -8 -9 -15
-20 -15 -25 0 -26 17 -2 23 9 3 18 5 20 6 1 0 2 -6 2 -14z m-4930 -15 c-8 -15
-7 -25 3 -41 8 -11 16 -16 18 -11 2 5 19 13 37 17 29 6 32 4 31 -17 0 -22 -1
-22 -9 -3 -7 16 -9 16 -9 4 -1 -21 -48 -34 -67 -18 -10 8 -14 8 -14 0 0 -6 -7
-11 -16 -11 -14 0 -15 7 -10 38 3 20 6 43 6 50 0 6 9 12 20 12 18 0 19 -3 10
-20z m521 -51 c17 -24 18 -29 5 -29 -9 0 -16 5 -16 10 0 6 -11 8 -25 4 -25 -6
-35 8 -15 21 6 3 10 21 11 38 0 30 1 31 10 8 5 -13 18 -36 30 -52z m-607 42
c-15 -15 -47 -17 -51 -4 -2 7 8 13 24 15 33 4 40 1 27 -11z m46 11 c0 -5 -7
-9 -15 -9 -8 0 -15 4 -15 9 0 4 7 8 15 8 8 0 15 -4 15 -8z m127 2 c-3 -3 -12
-4 -19 -1 -8 3 -5 6 6 6 11 1 17 -2 13 -5z m263 -4 c0 -5 -10 -10 -22 -10 -19
0 -20 2 -8 10 19 13 30 13 30 0z m2410 -5 c0 -16 -27 -32 -37 -21 -7 7 16 36
28 36 5 0 9 -7 9 -15z m1191 -10 c-45 -26 -91 -42 -91 -31 0 10 94 55 115 55
13 1 5 -8 -24 -24z m679 20 c0 -2 -8 -20 -17 -40 -13 -26 -23 -35 -42 -35 -21
0 -23 -2 -11 -10 11 -7 3 -9 -27 -7 -30 2 -44 -1 -48 -11 -3 -8 -8 -12 -12 -9
-3 4 0 20 7 37 9 23 15 28 21 18 7 -10 9 -9 9 4 0 11 18 24 53 37 55 21 67 24
67 16z m240 -10 c-12 -15 -30 -12 -30 6 0 5 10 9 21 9 18 0 19 -2 9 -15z
m-5060 -16 c0 -5 -4 -9 -9 -9 -5 0 -17 -3 -26 -6 -15 -6 -15 -4 -4 14 12 19
39 20 39 1z m40 8 c0 -8 -7 -14 -15 -14 -25 0 -17 17 13 26 1 1 2 -5 2 -12z
m4644 4 c3 -5 0 -11 -8 -14 -7 -3 -18 -25 -25 -49 -12 -44 -14 -45 -92 -73
-132 -48 -78 -42 76 9 17 6 25 6 25 1 0 -3 -2 -4 -4 -2 -2 1 -12 -5 -22 -14
-42 -37 -86 -52 -140 -46 -28 3 -79 3 -113 0 -50 -5 -59 -8 -50 -19 6 -8 8
-14 4 -14 -5 0 -6 -2 -3 -5 3 -3 23 1 45 9 22 8 55 12 74 11 19 -2 38 -4 42
-4 5 -1 5 -6 1 -13 -5 -8 -2 -9 12 -3 10 4 36 10 58 13 36 4 38 3 31 -19 -4
-13 -8 -25 -9 -25 -2 -2 -115 -64 -158 -88 -21 -11 -58 -36 -82 -55 -25 -20
-75 -58 -111 -86 -37 -27 -90 -71 -118 -97 -38 -35 -60 -48 -82 -48 -21 0 -26
-3 -16 -9 7 -5 11 -13 7 -19 -9 -16 -128 -99 -199 -139 -244 -141 -278 -157
-433 -208 -147 -49 -163 -53 -195 -42 -19 7 -37 17 -39 22 -3 6 46 35 107 66
62 31 131 68 153 83 23 15 86 51 141 82 55 30 112 65 127 79 15 14 30 25 34
25 3 0 13 6 20 13 24 23 83 55 94 50 7 -2 11 2 10 9 -1 14 95 108 111 108 6 0
16 7 23 15 11 13 10 14 -6 9 -27 -10 -125 -73 -151 -96 -19 -17 -27 -19 -50
-10 -15 6 -61 18 -101 27 l-72 17 46 32 c26 17 59 39 73 48 14 10 31 18 38 18
7 0 34 14 60 30 31 20 56 29 70 25 24 -6 113 15 165 38 18 9 40 18 48 21 8 3
2 4 -15 1 -16 -3 -37 -7 -45 -8 -8 -1 -18 -6 -21 -11 -4 -5 -16 -2 -28 6 -24
17 -35 11 123 67 28 10 52 23 54 29 2 6 26 16 53 23 33 9 48 17 45 26 -3 7 1
13 10 13 15 0 75 28 84 39 7 8 74 45 140 77 30 14 57 30 60 34 5 8 96 48 112
49 4 1 9 -3 12 -8z m174 -3 c-2 -6 -14 -18 -27 -26 -22 -15 -22 -15 -10 11 12
26 45 39 37 15z m352 2 c0 -5 -5 -10 -11 -10 -5 0 -7 5 -4 10 3 6 8 10 11 10
2 0 4 -4 4 -10z m-1254 -15 c-6 -18 -1 -19 25 -5 38 21 17 -6 -25 -31 -32 -19
-47 -24 -55 -16 -7 7 -16 5 -31 -8 -13 -12 -20 -14 -20 -5 0 9 -10 11 -32 7
-26 -5 -20 0 27 24 49 25 91 43 114 48 2 1 1 -6 -3 -14z m-3818 -30 c1 -23 -3
-35 -12 -35 -7 0 -28 -3 -45 -6 -29 -6 -31 -5 -31 25 0 26 4 31 24 31 13 0 26
-6 28 -12 3 -8 9 -4 17 10 16 29 18 28 19 -13z m234 15 c5 -12 7 -12 7 3 1 20
5 21 33 6 15 -8 22 -8 28 1 5 8 16 10 26 6 32 -12 1 -25 -74 -31 -56 -4 -72
-2 -72 8 0 8 2 16 5 19 11 11 40 3 47 -12z m248 10 c0 -5 -11 -10 -25 -10 -14
0 -25 5 -25 10 0 6 11 10 25 10 14 0 25 -4 25 -10z m2352 -12 c-7 -7 -12 -8
-12 -2 0 14 12 26 19 19 2 -3 -1 -11 -7 -17z m2117 -4 c-17 -21 -31 -17 -19 6
6 11 15 18 21 14 6 -4 6 -11 -2 -20z m-4779 -5 c0 -11 -4 -17 -10 -14 -5 3
-10 13 -10 21 0 8 5 14 10 14 6 0 10 -9 10 -21z m1713 -101 c3 -40 8 -82 13
-92 5 -14 4 -17 -4 -12 -9 5 -12 -7 -12 -44 0 -55 -17 -84 -40 -70 -12 7 -10
18 9 58 20 42 22 56 14 93 -11 53 -4 209 7 167 5 -15 10 -60 13 -100z m2871
109 c-5 -13 -44 -41 -44 -31 0 3 5 14 10 25 12 21 42 27 34 6z m162 -4 c-3 -8
-6 -23 -6 -32 0 -10 -13 -32 -30 -49 -29 -30 -30 -31 -31 -9 -1 19 -3 17 -15
-10 -8 -20 -37 -47 -75 -73 -65 -43 -85 -49 -75 -24 3 8 2 12 -4 9 -6 -3 -10
-1 -10 5 0 6 -4 9 -9 6 -5 -3 -21 1 -37 9 -15 7 -31 12 -36 9 -4 -3 -8 0 -8 5
0 6 7 11 15 11 8 0 15 4 15 8 0 5 38 34 83 65 46 31 89 62 95 69 6 8 36 14 72
15 51 1 61 -1 56 -14z m-5016 -9 c0 -2 -7 -4 -15 -4 -8 0 -15 4 -15 10 0 5 7
7 15 4 8 -4 15 -8 15 -10z m500 -80 c0 -67 -2 -74 -20 -74 -25 0 -27 30 -2 31
16 1 16 2 0 6 -13 3 -18 15 -18 44 0 21 4 39 9 39 4 0 6 12 3 28 -5 24 -4 26
11 13 13 -10 17 -31 17 -87z m2953 51 c-8 -25 -19 -47 -24 -51 -12 -7 -12 9 0
38 5 13 12 31 15 41 3 9 10 17 15 17 6 0 3 -20 -6 -45z m1651 -18 c-33 -35
-60 -63 -62 -62 -2 2 3 18 11 37 18 42 65 88 91 88 14 0 4 -16 -40 -63z
m-5154 22 c0 -35 -30 -41 -31 -6 0 21 -1 21 -9 2 -8 -18 -9 -18 -9 5 -1 20 4
25 24 26 21 2 25 -2 25 -27z m3144 -16 c-9 -65 -14 -67 -14 -5 0 30 4 52 11
52 7 0 8 -16 3 -47z m2086 7 c-6 -11 -15 -18 -21 -15 -5 4 -9 3 -9 -2 0 -10
-33 -47 -84 -93 -53 -48 -31 -9 33 58 28 29 55 51 61 47 5 -3 10 2 10 13 0 21
13 38 18 23 2 -5 -2 -19 -8 -31z m40 36 c0 -3 -4 -8 -10 -11 -5 -3 -10 -1 -10
4 0 6 5 11 10 11 6 0 10 -2 10 -4z m103 -7 c20 -5 37 -12 37 -14 0 -11 -66
-75 -77 -75 -7 0 -18 -11 -23 -25 -18 -46 -33 -29 -26 28 14 105 15 107 89 86z
m-4887 -70 c0 -74 -4 -92 -20 -82 -6 4 -5 0 2 -9 18 -23 11 -72 -10 -76 -13
-3 -18 3 -18 22 0 18 5 26 18 26 10 0 13 3 6 8 -16 11 -24 52 -11 53 8 0 7 2
-1 6 -10 4 -10 8 -1 19 7 8 7 14 1 14 -5 0 -13 10 -17 23 l-7 22 -7 -25 c-4
-14 -15 -26 -24 -28 -13 -3 -17 4 -17 27 0 37 11 44 44 31 22 -8 26 -7 26 9 0
21 10 33 24 28 6 -2 11 -32 12 -68z m133 62 c10 -6 16 -33 19 -75 4 -64 4 -66
-20 -66 -15 0 -25 6 -25 15 0 8 6 15 14 15 7 0 13 5 13 10 0 6 -7 10 -15 10
-10 0 -15 10 -15 34 0 19 -3 41 -6 50 -7 18 12 21 35 7z m4231 -16 c0 -8 -7
-15 -16 -15 -9 0 -24 -10 -35 -22 -10 -13 -18 -17 -19 -10 0 14 47 62 61 62 5
0 9 -7 9 -15z m247 9 c-3 -3 -12 -4 -19 -1 -8 3 -5 6 6 6 11 1 17 -2 13 -5z
m-5067 -13 c0 -6 -4 -13 -10 -16 -5 -3 -10 1 -10 9 0 9 5 16 10 16 6 0 10 -4
10 -9z m537 -38 c-3 -10 -5 -2 -5 17 0 19 2 27 5 18 2 -10 2 -26 0 -35z m1414
-45 c-9 -70 -17 -92 -49 -137 -20 -30 -42 -56 -49 -58 -6 -2 9 47 34 109 25
62 49 128 55 146 16 57 21 28 9 -60z m1133 37 c-5 -30 -9 -34 -16 -21 -12 21
0 82 14 68 5 -5 6 -26 2 -47z m2161 13 c-10 -59 -25 -72 -25 -22 0 34 13 64
28 64 2 0 1 -19 -3 -42z m112 -35 c-37 -38 -67 -62 -67 -54 0 15 121 134 128
126 3 -3 -25 -35 -61 -72z m-5152 25 c0 -36 -3 -43 -20 -45 -11 -1 -45 -4 -75
-8 -30 -3 -64 -7 -75 -8 -13 -1 -19 3 -17 13 2 8 4 27 4 42 1 15 7 28 13 28 7
0 27 3 44 6 24 5 31 3 31 -10 0 -9 5 -16 10 -16 6 0 10 7 10 15 0 24 26 18 27
-6 3 -32 23 -49 24 -21 1 12 3 27 4 32 1 6 3 12 4 15 0 3 5 5 9 5 4 0 8 -19 7
-42z m453 34 c16 -11 12 -60 -7 -67 -17 -7 -17 -8 -25 38 -7 38 3 47 32 29z
m4813 -2 c18 -10 17 -12 -11 -52 -17 -22 -30 -47 -30 -55 0 -8 -5 -11 -12 -7
-8 5 -9 2 -5 -9 3 -9 2 -19 -3 -22 -6 -4 -10 10 -11 32 l-1 38 -9 -35 c-5 -19
-6 -45 -4 -57 3 -13 2 -23 -3 -23 -5 0 -16 -15 -25 -32 -10 -20 -15 -24 -11
-10 3 12 1 22 -5 22 -6 0 -11 -10 -11 -22 0 -35 -12 -47 -42 -41 -23 4 -26 8
-18 23 6 10 10 34 10 52 0 27 11 47 51 92 38 42 54 54 60 44 7 -10 9 -8 9 6 0
10 10 29 23 42 26 28 23 27 48 14z m-5151 -11 c0 -5 5 -7 10 -4 18 11 11 -14
-10 -35 -11 -11 -22 -20 -25 -20 -7 0 -6 35 1 54 7 18 24 22 24 5z m410 1 c0
-5 -2 -10 -4 -10 -3 0 -8 5 -11 10 -3 6 -1 10 4 10 6 0 11 -4 11 -10z m3987 4
c-10 -11 -58 -13 -51 -3 3 5 17 9 31 9 15 0 23 -3 20 -6z m-4466 -57 c-7 -7
-9 -1 -7 19 5 40 8 43 13 15 3 -13 0 -28 -6 -34z m3231 26 c-3 -16 -7 -22 -10
-15 -4 13 4 42 11 42 2 0 2 -12 -1 -27z m548 17 c0 -5 -12 -13 -27 -16 -16 -4
-52 -17 -81 -30 -37 -16 -59 -21 -75 -15 -18 7 -6 13 68 35 50 15 95 29 100
31 6 2 11 4 13 4 1 1 2 -3 2 -9z m710 -10 c-14 -26 -79 -75 -87 -66 -4 4 -1
11 6 15 9 6 11 16 6 32 -7 22 -7 23 10 9 14 -12 19 -12 22 -2 3 6 9 10 14 6 5
-3 12 2 15 10 3 9 10 16 15 16 6 0 5 -8 -1 -20z m318 -12 c-6 -18 -18 -44 -25
-58 -14 -24 -14 -24 -8 10 6 32 30 80 40 80 2 0 -1 -15 -7 -32z m-5072 7 c-23
-17 -36 -19 -36 -6 0 5 8 12 18 14 32 9 37 6 18 -8z m241 -17 c-3 -7 -5 -2 -5
12 0 14 2 19 5 13 2 -7 2 -19 0 -25z m4982 -41 c-2 -63 -5 -75 -25 -90 -13
-10 -24 -16 -24 -13 0 11 29 117 35 126 3 5 -1 7 -9 4 -13 -5 -36 -81 -36
-119 0 -8 -7 -15 -15 -15 -9 0 -15 -10 -15 -26 0 -24 -1 -25 -47 -18 -27 3
-51 8 -55 10 -15 9 15 64 50 93 50 40 55 41 57 4 2 -52 15 -51 15 0 0 39 6 52
33 81 17 19 33 35 35 36 2 0 2 -33 1 -73z m316 31 c-6 -32 -60 -119 -78 -127
-4 -2 -13 -14 -18 -28 -5 -14 -12 -24 -14 -21 -8 8 16 78 26 78 6 0 9 8 8 18
-6 39 39 112 69 112 10 0 12 -8 7 -32z m-5525 -7 c0 -11 -4 -22 -9 -25 -4 -3
-6 -17 -4 -31 3 -13 2 -33 -2 -42 -4 -10 -7 -38 -5 -62 1 -28 -3 -47 -12 -52
-11 -8 -11 -11 1 -18 11 -7 11 -10 -1 -17 -8 -5 -14 -22 -14 -38 1 -16 -4 -31
-11 -33 -24 -8 -30 188 -8 271 6 21 5 27 -4 22 -6 -4 -11 0 -11 9 0 11 5 15
15 11 8 -3 15 -1 15 4 0 7 17 15 43 19 4 0 7 -8 7 -18z m760 12 c0 -17 -16
-30 -41 -36 -21 -5 -28 -3 -32 13 -3 14 1 20 17 23 37 7 56 7 56 0z m4244 -40
c-9 -32 -27 -59 -51 -80 -35 -31 -37 -31 -71 -17 -19 8 -37 14 -40 14 -2 0 8
10 24 22 16 13 35 28 42 35 7 7 18 13 23 13 6 0 24 14 41 30 16 17 33 30 38
30 4 0 2 -21 -6 -47z m-1900 22 c-4 -8 -8 -15 -10 -15 -2 0 -4 7 -4 15 0 8 4
15 10 15 5 0 7 -7 4 -15z m33 -7 c-3 -8 -6 -5 -6 6 -1 11 2 17 5 13 3 -3 4
-12 1 -19z m286 -34 c-10 -21 -26 -40 -36 -42 -15 -3 -16 -1 -5 25 17 36 52
77 56 65 2 -6 -5 -27 -15 -48z m-3103 26 c0 -5 -7 -10 -15 -10 -8 0 -15 5 -15
10 0 6 7 10 15 10 8 0 15 -4 15 -10z m65 1 c3 -5 1 -12 -5 -16 -6 -4 -8 -11
-5 -16 4 -5 -2 -9 -13 -9 -15 0 -18 5 -14 25 4 25 25 34 37 16z m162 -13 c-3
-8 -6 -5 -6 6 -1 11 2 17 5 13 3 -3 4 -12 1 -19z m133 12 c0 -5 -4 -10 -10
-10 -5 0 -7 -7 -4 -15 4 -10 0 -15 -12 -15 -13 0 -19 8 -20 25 -2 20 3 25 22
25 13 0 24 -4 24 -10z m3950 0 c0 -5 -7 -10 -16 -10 -8 0 -12 5 -9 10 3 6 10
10 16 10 5 0 9 -4 9 -10z m-4410 -10 c0 -5 -12 -10 -27 -10 -16 0 -38 -3 -50
-6 -13 -4 -23 -2 -23 4 0 9 22 15 83 20 9 1 17 -2 17 -8z m40 6 c0 -3 -4 -8
-10 -11 -5 -3 -10 -1 -10 4 0 6 5 11 10 11 6 0 10 -2 10 -4z m1789 -51 c0 -26
-2 -27 -9 -10 -5 11 -9 31 -9 45 -1 20 1 22 9 10 5 -8 9 -28 9 -45z m1791 46
c0 -5 -31 -19 -70 -31 -38 -12 -81 -33 -96 -47 -14 -13 -76 -48 -137 -77 -62
-29 -146 -70 -188 -90 l-77 -36 -93 16 c-52 8 -97 19 -102 23 -12 12 48 62 66
55 18 -7 23 -24 7 -24 -5 0 -10 -7 -10 -15 0 -10 10 -15 33 -15 43 0 206 38
237 55 14 7 54 28 89 45 35 18 66 40 68 50 3 10 10 21 16 24 141 64 257 94
257 67z m-3732 -13 c-3 -7 -17 -14 -33 -15 -15 -1 -34 -4 -42 -7 -7 -3 -13 1
-13 9 0 9 14 15 38 18 20 2 41 4 45 5 5 1 7 -4 5 -10z m3352 2 c0 -5 -4 -10
-10 -10 -5 0 -10 5 -10 10 0 6 5 10 10 10 6 0 10 -4 10 -10z m-3147 -20 c-4
-5 -39 -11 -78 -14 -38 -4 -86 -8 -105 -11 -19 -2 -52 -6 -72 -9 -21 -2 -38 0
-38 5 0 5 8 9 18 10 21 1 42 5 101 19 26 6 70 9 99 6 28 -3 54 -1 57 5 4 5 11
6 17 3 5 -3 6 -10 1 -14z m2877 7 c0 -7 -7 -22 -15 -33 -13 -17 -14 -16 -4 14
11 33 19 41 19 19z m-2640 -22 c0 -14 -5 -25 -11 -25 -6 0 -9 7 -5 15 4 11 -3
15 -27 16 l-32 2 35 7 c19 4 36 8 38 9 1 0 2 -10 2 -24z m43 0 c-3 -8 -9 -15
-14 -15 -10 0 -12 24 -3 33 11 11 24 -3 17 -18z m172 15 c3 -6 -1 -13 -10 -17
-15 -5 -15 -7 -3 -14 11 -6 13 -18 9 -46 -5 -32 -11 -39 -36 -44 l-30 -5 34
-8 c25 -6 30 -11 20 -17 -17 -10 23 -12 59 -3 33 9 27 27 -7 22 -29 -4 -30 -3
-29 34 0 21 4 41 9 44 5 3 9 -2 9 -12 0 -11 6 -15 18 -11 9 2 23 6 31 8 8 3
28 -24 53 -70 28 -53 34 -72 22 -67 -20 7 -45 -10 -38 -27 5 -15 -39 -35 -119
-53 -34 -8 -75 -21 -92 -28 -16 -7 -67 -27 -111 -45 l-82 -30 -58 23 c-33 13
-70 27 -84 31 -24 6 -24 6 5 -19 17 -14 44 -28 60 -32 26 -6 19 -9 -55 -25
-47 -10 -118 -24 -157 -31 -40 -6 -73 -16 -73 -21 0 -10 115 -2 185 13 l40 9
-37 -2 c-21 -2 -35 0 -30 4 12 11 172 37 177 29 5 -8 -28 -20 -57 -20 -10 0
-26 -8 -36 -17 -9 -10 -49 -28 -87 -40 -39 -12 -100 -31 -138 -42 -37 -12 -94
-24 -127 -28 -33 -3 -60 -10 -60 -15 0 -5 16 -6 36 -2 27 5 35 4 30 -5 -4 -6
-13 -11 -19 -11 -7 0 -24 -7 -39 -14 -28 -15 -46 -6 -33 15 4 5 8 74 10 152
l3 142 33 -2 c178 -13 220 -27 110 -38 -39 -4 -74 -12 -78 -18 -4 -7 9 -8 43
-3 27 4 92 14 144 21 52 7 93 14 90 15 -3 1 -21 4 -40 5 -130 13 -210 25 -233
36 -29 13 -36 46 -15 67 17 17 38 15 38 -3 0 -22 18 -18 25 6 6 16 13 20 36
17 16 -3 31 0 33 6 2 6 5 4 5 -6 1 -9 -5 -19 -11 -21 -10 -4 -10 -8 0 -15 11
-7 8 -11 -10 -15 -12 -4 -35 -7 -50 -7 -16 0 -28 -4 -28 -10 0 -12 -4 -12 61
0 69 13 91 17 162 25 44 5 57 10 57 23 0 9 3 28 6 42 4 19 1 17 -10 -8 -14
-29 -41 -51 -51 -40 -2 2 -2 21 2 42 6 36 7 38 39 34 26 -3 34 0 35 12 0 10 2
11 6 3 2 -7 9 -13 15 -13 6 0 8 7 4 15 -3 9 0 15 8 15 16 0 14 -56 -2 -72 -9
-9 -12 -7 -12 10 0 12 -4 22 -10 22 -5 0 -7 -13 -3 -30 3 -19 1 -30 -6 -30 -6
0 -11 -5 -11 -10 0 -7 18 -8 51 -4 46 6 68 9 107 13 6 0 12 6 12 12 0 6 -9 9
-20 6 -15 -4 -20 0 -20 16 0 12 4 29 10 37 7 12 12 12 29 -4 21 -19 21 -18 34
15 8 19 17 42 20 52 4 9 11 17 18 17 6 0 9 -6 6 -13 -7 -19 27 -39 42 -24 6 6
11 17 11 24 0 7 5 13 10 13 6 0 10 -13 10 -30 0 -22 -5 -30 -17 -31 -10 -1 0
-5 21 -10 53 -13 52 -14 54 78 2 48 4 52 30 56 15 2 30 5 34 6 4 0 10 -4 13
-9z m55 -4 c0 -8 -4 -18 -10 -21 -5 -3 -10 -4 -10 -1 0 2 -3 11 -6 20 -4 11
-1 16 10 16 9 0 16 -6 16 -14z m3870 9 c0 -3 -9 -25 -20 -47 -11 -23 -18 -43
-15 -46 2 -2 14 17 26 42 12 25 25 49 29 51 5 3 21 -5 36 -18 l26 -23 -19 -37
c-11 -22 -43 -54 -80 -80 -143 -99 -183 -128 -183 -132 0 -6 179 100 202 120
19 15 19 15 13 -4 -10 -33 9 -25 31 12 10 19 35 47 54 64 35 30 35 30 72 14
30 -13 35 -19 28 -31 -9 -13 -11 -13 -21 0 -8 12 -9 9 -3 -10 3 -14 3 -22 -1
-18 -5 5 -19 -7 -31 -26 -20 -28 -214 -186 -230 -186 -2 0 -18 -12 -35 -27
-28 -26 -39 -28 -137 -34 -59 -3 -116 -10 -126 -14 -16 -7 -18 -5 -13 10 6 15
5 16 -7 6 -8 -7 -41 -15 -73 -19 -55 -6 -56 -7 -20 -12 l39 -5 -104 -101
c-137 -135 -222 -209 -285 -250 -35 -22 -53 -41 -53 -54 0 -19 -12 -25 -35
-20 -11 2 -212 9 -372 13 -57 1 -103 4 -103 7 0 7 37 22 145 60 66 23 222 101
260 130 6 4 42 25 80 45 73 40 214 134 251 167 18 16 30 18 68 13 33 -5 46 -4
46 5 0 7 -7 10 -15 6 -8 -3 -24 -2 -35 2 -18 7 -11 16 62 78 46 39 106 85 133
104 28 19 55 39 61 45 25 23 275 168 280 162 2 -2 -7 -39 -21 -83 -14 -43 -25
-80 -25 -81 0 -1 6 0 14 3 7 3 18 16 25 30 8 18 8 23 0 18 -7 -4 -9 0 -6 12 4
11 11 41 18 67 6 27 21 54 32 62 22 15 37 19 37 10z m566 -40 c-9 -14 -24 -25
-34 -25 -16 1 -16 1 1 14 9 7 17 17 17 23 0 5 6 15 12 21 20 20 22 -5 4 -33z
m-1711 10 c-48 -16 -93 -19 -79 -6 9 10 50 18 94 18 18 1 15 -3 -15 -12z
m-3207 -17 c14 25 37 29 45 7 8 -18 -32 -66 -39 -47 -8 17 -24 15 -24 -3 0 -8
-2 -15 -4 -15 -2 0 -11 -3 -20 -6 -11 -4 -16 0 -17 12 -1 18 -2 18 -6 0 -4
-15 -7 -16 -14 -5 -6 10 -9 10 -9 2 0 -7 -7 -13 -16 -13 -9 0 -12 -5 -8 -11 5
-8 2 -9 -11 -1 -11 5 -29 6 -44 2 -14 -5 -43 -11 -63 -14 -31 -4 -38 -2 -39
12 -1 15 -2 15 -6 0 -2 -10 -13 -18 -23 -18 -15 0 -17 5 -10 35 9 42 -2 46
-17 8 l-11 -28 -1 33 c-1 26 3 32 22 34 28 2 51 5 57 8 7 3 31 7 108 16 57 6
62 5 62 -12 0 -11 3 -15 8 -9 4 6 18 15 32 21 22 10 26 9 31 -10 l5 -21 12 23z
m182 7 c0 -8 -9 -15 -20 -15 -11 0 -20 7 -20 15 0 8 9 15 20 15 11 0 20 -7 20
-15z m155 -31 c-2 -20 -7 -39 -10 -43 -10 -9 -25 22 -25 52 0 20 5 27 20 27
17 0 19 -5 15 -36z m4125 17 c0 -6 -4 -13 -10 -16 -5 -3 -10 1 -10 9 0 9 5 16
10 16 6 0 10 -4 10 -9z m-4294 -37 c-3 -9 -6 -21 -6 -27 0 -7 -5 -4 -11 6 -11
18 -5 37 13 37 5 0 7 -7 4 -16z m2959 -14 c-33 -16 -64 -29 -70 -29 -18 -1 39
39 70 48 59 18 59 9 0 -19z m1730 0 c-9 -16 -22 -30 -31 -30 -12 0 -11 6 8 29
30 39 43 39 23 1z m270 -12 c-2 -23 -8 -44 -14 -46 -7 -2 -6 -11 4 -25 13 -22
13 -27 -10 -142 -2 -11 -4 -22 -5 -25 -2 -3 -2 -8 -1 -12 0 -5 -3 -8 -9 -8 -5
0 -10 -6 -10 -13 0 -26 -95 -151 -120 -158 -36 -10 -103 -10 -118 -1 -17 11
41 129 102 210 24 31 48 67 55 79 7 14 17 20 26 17 11 -5 15 1 15 19 0 25 22
52 33 40 4 -3 7 -2 7 4 0 11 -50 36 -51 25 0 -4 -2 -16 -3 -28 -1 -12 -12 -32
-25 -45 -12 -13 -36 -46 -54 -74 -17 -27 -39 -58 -48 -68 -10 -11 -33 -53 -53
-94 -36 -74 -37 -75 -68 -69 -51 10 -58 -3 73 157 42 52 81 104 88 117 6 12
18 22 27 22 8 0 17 13 21 30 3 17 9 30 14 30 5 0 6 6 3 13 -3 8 1 18 8 24 18
14 48 12 48 -4 0 -7 4 -13 8 -13 10 0 52 56 52 70 0 5 2 10 4 10 2 0 3 -19 1
-42z m-2405 17 c-29 -17 -14 -19 27 -5 l28 10 -24 -20 c-25 -21 -62 -23 -68
-4 -2 6 7 16 19 22 34 16 47 14 18 -3z m1940 5 c0 -5 -5 -10 -11 -10 -5 0 -7
5 -4 10 3 6 8 10 11 10 2 0 4 -4 4 -10z m240 -25 c-6 -15 -13 -25 -17 -21 -3
3 0 17 7 31 17 32 24 26 10 -10z m-4780 12 c0 -14 -24 -19 -50 -10 -12 4 -11
7 5 13 30 13 45 12 45 -3z m1561 -90 c-13 -13 -15 34 -3 73 6 21 7 18 10 -19
2 -24 -2 -49 -7 -54z m976 50 c-7 -17 -23 -29 -42 -33 -16 -3 -40 -12 -52 -20
-33 -21 -28 -7 8 23 28 24 90 61 96 58 2 -1 -3 -13 -10 -28z m1898 -9 c-22
-24 -41 -45 -42 -47 -2 -2 -3 1 -3 7 0 13 64 82 76 82 4 0 -10 -19 -31 -42z
m87 -1 c-7 -8 -7 -18 -2 -27 6 -10 11 -5 17 21 9 32 11 34 49 30 58 -5 59 -9
12 -46 -45 -34 -74 -65 -123 -129 -16 -21 -41 -51 -55 -66 -14 -15 -37 -44
-50 -64 -27 -40 -15 -38 -142 -20 -21 3 -38 9 -38 12 1 14 270 286 270 273 0
-8 6 -11 16 -7 11 4 14 1 10 -12 -3 -9 -8 -35 -12 -57 -5 -31 -4 -37 5 -29 7
6 15 38 18 70 4 32 11 64 17 70 14 16 21 -3 8 -19z m-4552 11 c0 -7 -4 -19 -9
-26 -6 -11 -9 -9 -14 7 -2 11 -2 22 1 25 10 10 22 6 22 -6z m1360 2 c0 -5 -5
-10 -11 -10 -5 0 -7 5 -4 10 3 6 8 10 11 10 2 0 4 -4 4 -10z m-1665 -10 c3 -5
0 -10 -7 -10 -7 0 -23 -3 -35 -6 -13 -4 -23 -2 -23 4 0 18 55 28 65 12z m55 6
c0 -2 -9 -6 -20 -9 -11 -3 -20 -1 -20 4 0 5 9 9 20 9 11 0 20 -2 20 -4z m-130
-15 c0 -5 -9 -11 -20 -14 -11 -3 -20 -1 -20 3 0 5 8 11 18 13 9 3 18 5 20 6 1
0 2 -3 2 -8z m184 -13 c-3 -13 -11 -24 -15 -26 -5 -2 -9 -10 -9 -17 0 -8 -16
-14 -40 -17 -41 -4 -44 0 -34 40 4 14 14 22 28 22 11 0 28 5 36 10 27 17 42
12 34 -12z m4884 -15 c-6 -21 -34 -72 -64 -113 -29 -41 -68 -96 -86 -122 -32
-47 -34 -48 -87 -48 -41 0 -51 3 -44 13 6 6 40 50 77 97 62 78 192 210 208
210 3 0 2 -17 -4 -37z m47 27 c-3 -5 -10 -10 -16 -10 -5 0 -9 5 -9 10 0 6 7
10 16 10 8 0 12 -4 9 -10z m-4765 -32 c0 -5 -7 -8 -15 -8 -15 0 -20 21 -8 33
7 7 23 -11 23 -25z m4797 18 c-12 -31 -19 -106 -10 -106 6 0 13 25 16 56 7 64
11 72 31 55 9 -8 16 -8 20 -2 7 11 46 11 46 -1 0 -4 -4 -8 -10 -8 -5 0 -10 -7
-10 -16 0 -29 -78 -145 -157 -233 -17 -20 -40 -46 -50 -59 -17 -21 -20 -22
-63 -9 -25 7 -45 15 -45 19 0 6 105 169 115 178 3 3 17 21 31 40 15 19 36 46
48 59 11 13 21 28 21 33 0 4 5 8 11 8 6 0 9 -6 6 -14z m-3422 -44 c-4 -20 -15
-54 -25 -76 -10 -23 -20 -48 -23 -56 -13 -37 -5 58 9 115 12 48 20 62 31 58
11 -4 13 -15 8 -41z m49 13 c-9 -14 -19 -24 -21 -21 -7 7 16 46 28 46 5 0 2
-11 -7 -25z m1236 20 c0 -2 -11 -15 -25 -29 -23 -23 -25 -23 -25 -6 0 10 8 24
18 29 18 11 32 14 32 6z m-118 -47 c-41 -42 -50 -32 -10 10 16 18 33 31 36 27
3 -3 -8 -20 -26 -37z m1836 -36 c-25 -26 -72 -74 -104 -108 -57 -59 -60 -61
-91 -50 l-32 11 67 52 c144 111 197 149 201 146 3 -2 -16 -25 -41 -51z m-2798
43 c0 -2 -5 -26 -11 -54 -7 -34 -18 -55 -34 -65 -31 -20 -41 -20 -24 0 11 13
10 17 -4 25 -24 14 -21 25 18 64 30 31 55 44 55 30z m1232 -37 c6 -2 -34 -21
-88 -43 -114 -44 -137 -55 -131 -61 2 -2 67 16 145 41 115 37 145 43 167 35
14 -5 59 -15 98 -21 120 -19 120 -18 0 -84 -59 -32 -126 -68 -148 -80 -22 -13
-51 -26 -65 -30 -30 -9 -267 -141 -295 -165 -11 -9 -36 -26 -55 -38 -34 -20
-38 -20 -109 -7 -40 8 -78 12 -82 9 -5 -3 -9 -1 -9 4 0 5 -28 17 -63 25 -34 9
-78 23 -97 31 -34 15 -34 15 -8 16 36 0 128 20 158 34 103 46 202 130 358 303
l63 70 75 -18 c42 -10 80 -19 86 -21z m-388 10 c-4 -7 -19 -29 -33 -47 -14
-19 -20 -32 -13 -27 19 11 14 -9 -9 -35 l-20 -24 6 25 7 25 -18 -25 c-10 -14
-23 -29 -30 -35 -6 -5 -16 -19 -22 -30 -9 -17 -10 -17 -9 7 1 14 5 24 9 22 4
-3 16 8 25 23 33 52 97 133 106 133 4 0 5 -6 1 -12z m6 -27 c-5 -11 -15 -23
-22 -27 -7 -5 -8 -2 -3 7 21 37 44 55 25 20z m-1040 -46 c0 -8 -4 -15 -10 -15
-5 0 -7 7 -4 15 4 8 8 15 10 15 2 0 4 -7 4 -15z m834 -96 c-13 -21 -26 -39
-28 -39 -7 0 6 40 15 46 5 3 9 16 9 29 0 13 3 31 7 41 6 15 8 14 14 -10 6 -22
2 -37 -17 -67z m1051 57 c101 -19 109 -30 43 -64 -24 -12 -59 -35 -78 -51 -19
-16 -80 -52 -135 -81 -55 -29 -107 -58 -115 -65 -8 -7 -69 -41 -135 -75 -66
-34 -129 -70 -139 -80 -18 -18 -20 -18 -65 0 -25 10 -80 23 -121 29 -82 13
-105 25 -69 36 12 4 27 12 33 17 36 30 317 178 340 178 8 0 16 3 18 8 2 4 28
19 58 34 30 16 97 52 149 81 102 57 93 56 216 33z m-1636 -25 l21 -29 -30 -11
-30 -10 0 40 c0 46 11 49 39 10z m-289 9 c0 -5 -5 -10 -11 -10 -5 0 -7 5 -4
10 3 6 8 10 11 10 2 0 4 -4 4 -10z m1135 -10 c-3 -5 -14 -10 -23 -10 -15 0
-15 2 -2 10 20 13 33 13 25 0z m-229 -33 c-3 -14 1 -33 10 -46 15 -20 15 -24
-2 -42 -9 -10 -22 -19 -28 -18 -6 1 -20 1 -31 0 -17 -1 -18 -3 -5 -11 8 -5 10
-10 5 -10 -29 0 -33 23 -11 59 13 20 30 48 40 64 20 33 30 35 22 4z m164 8
c-33 -19 -46 -19 -30 0 7 8 22 15 34 15 20 -1 20 -2 -4 -15z m-70 -15 c0 -11
-50 -54 -55 -48 -13 12 14 54 34 54 12 0 21 -3 21 -6z m1749 1 c11 -7 9 -11
-8 -20 -12 -7 -54 -40 -93 -74 -38 -34 -80 -69 -92 -77 -95 -65 -168 -111
-188 -120 -38 -18 -68 -36 -95 -60 -31 -27 -138 -77 -173 -82 -46 -6 -27 24
55 91 44 36 138 123 209 195 l129 130 71 12 c88 14 166 17 185 5z m-2778 -32
c-12 -12 -25 -18 -29 -14 -4 4 4 15 17 26 31 25 41 15 12 -12z m2874 11 c3 -5
-54 -64 -127 -132 -187 -174 -240 -230 -263 -273 l-20 -37 -152 4 c-138 4
-152 3 -140 -11 11 -14 10 -14 -5 -2 -10 7 -18 15 -18 17 0 1 26 16 58 32 71
35 269 156 300 182 12 11 26 20 31 20 4 0 39 26 77 58 38 31 89 73 114 92 25
19 53 42 63 51 17 16 72 15 82 -1z m-2591 -37 c-8 -57 -11 -62 -41 -74 -31
-12 -143 -2 -143 12 0 5 5 9 11 9 6 0 29 15 52 34 35 28 82 50 119 55 4 1 4
-16 2 -36z m-124 18 c0 -5 -20 -18 -44 -30 -25 -11 -47 -25 -51 -31 -3 -5 -13
-10 -22 -10 -9 0 10 18 43 39 62 41 74 47 74 32z m2849 -7 c18 -1 38 -7 43
-12 12 -12 -37 -69 -188 -222 -123 -126 -140 -141 -146 -135 -2 3 -26 -4 -54
-14 -48 -19 -82 -24 -136 -22 l-27 1 17 31 c19 34 79 96 262 272 121 116 124
118 159 112 20 -4 51 -9 70 -11z m-3310 -102 c1 -15 -4 -22 -11 -19 -13 4 -19
101 -8 122 5 10 18 -59 19 -103z m751 66 c0 -6 -6 -5 -15 2 -8 7 -15 14 -15
16 0 2 7 1 15 -2 8 -4 15 -11 15 -16z m2740 13 c0 -12 -46 -67 -125 -147 -149
-152 -215 -224 -215 -233 0 -5 -6 -13 -12 -17 -19 -12 -169 -14 -187 -4 -11 7
-12 9 -3 10 7 0 10 5 6 12 -5 7 -3 8 5 3 23 -14 101 26 144 74 23 25 90 95
149 156 59 61 115 120 123 133 13 18 26 22 66 22 27 0 49 -4 49 -9z m93 -17
c15 -3 27 -10 27 -15 0 -5 -20 -39 -44 -76 -56 -87 -87 -115 -271 -247 -59
-42 -111 -61 -121 -45 -4 8 103 126 233 257 29 30 67 74 85 98 20 28 37 43 47
40 9 -3 28 -8 44 -12z m110 -32 c15 -7 10 -16 -38 -67 -91 -96 -122 -137 -141
-183 -16 -42 -16 -44 3 -63 11 -11 29 -21 41 -22 12 0 23 -6 25 -12 4 -9 -153
-13 -283 -7 -45 2 -45 2 -19 16 89 46 268 212 319 295 32 52 49 60 93 43z
m268 -9 c1 -17 2 -16 6 0 4 16 12 17 61 11 32 -3 60 -8 64 -11 9 -5 -18 -53
-67 -124 -20 -28 -46 -79 -57 -113 -11 -33 -23 -65 -27 -69 -5 -4 -30 -10 -57
-13 -38 -5 -51 -2 -61 12 -9 12 -13 14 -13 4 0 -7 -3 -11 -6 -7 -4 3 10 22 31
41 21 20 34 40 30 46 -8 13 15 71 53 135 l23 40 -26 -30 c-31 -36 -65 -106
-65 -134 0 -12 -14 -33 -31 -48 -22 -20 -29 -34 -26 -50 4 -20 0 -23 -27 -24
-17 0 -58 -3 -90 -5 -52 -4 -57 -3 -46 11 7 8 17 15 22 15 5 0 28 13 51 29 32
21 56 54 100 132 63 113 82 139 112 157 29 16 45 15 46 -5z m-91 -15 c0 -5 -3
-8 -7 -8 -5 0 -13 -10 -19 -23 -25 -49 -90 -164 -104 -184 -20 -27 -112 -83
-138 -83 -11 0 -31 10 -45 22 -22 20 -23 23 -10 52 29 63 43 83 115 157 l73
75 67 0 c38 -1 68 -4 68 -8z m-3825 -18 c3 -5 2 -10 -4 -10 -5 0 -13 5 -16 10
-3 6 -2 10 4 10 5 0 13 -4 16 -10z m861 -20 c8 0 14 -4 14 -10 0 -5 -20 -10
-45 -10 -25 0 -45 4 -45 9 0 11 30 20 48 15 8 -2 20 -4 28 -4z m-981 -20 c-3
-5 -13 -10 -21 -10 -8 0 -12 5 -9 10 3 6 13 10 21 10 8 0 12 -4 9 -10z m340
-34 l0 -31 -70 3 c-38 2 -72 5 -74 8 -7 6 93 49 119 50 22 1 25 -3 25 -30z
m714 19 c24 -3 60 -14 80 -24 31 -18 119 -40 216 -56 59 -9 85 -17 85 -24 0
-4 -27 -21 -60 -39 -58 -30 -61 -31 -96 -16 -29 12 -47 13 -88 5 l-51 -10 49
3 c28 2 61 -1 75 -6 26 -10 26 -10 5 -18 -27 -11 -158 -28 -242 -33 -46 -2
-62 0 -58 9 6 15 -43 25 -64 14 -9 -5 -100 -12 -203 -16 -148 -5 -187 -10
-183 -20 3 -8 0 -11 -9 -8 -24 9 -6 27 88 90 51 34 91 67 89 74 -1 6 2 9 8 5
6 -4 32 6 58 21 107 64 103 63 182 58 41 -3 95 -7 119 -9z m-1246 -2 c-7 -2
-19 -2 -25 0 -7 3 -2 5 12 5 14 0 19 -2 13 -5z m1809 -127 c77 -17 111 -33
102 -47 -10 -17 15 -36 41 -31 14 2 28 8 30 13 3 4 12 6 20 3 11 -4 9 -10 -6
-25 -19 -19 -27 -19 -145 -10 -69 5 -180 10 -246 10 -105 2 -120 0 -115 -14 4
-8 2 -15 -3 -15 -6 0 -10 8 -10 18 0 11 31 36 88 69 97 58 108 60 244 29z
m-662 -96 c0 -5 -5 -10 -11 -10 -5 0 -7 5 -4 10 3 6 8 10 11 10 2 0 4 -4 4
-10z m1179 1 c9 -6 -8 -9 -47 -10 -34 0 -64 4 -67 9 -8 13 95 13 114 1z
m-3159 -6 c0 -7 -39 -12 -49 -5 -7 4 1 7 18 8 17 0 31 -1 31 -3z m540 1 c0 -2
-7 -7 -16 -10 -8 -3 -12 -2 -9 4 6 10 25 14 25 6z m1238 -3 c-10 -2 -26 -2
-35 0 -10 3 -2 5 17 5 19 0 27 -2 18 -5z m335 0 c-7 -2 -19 -2 -25 0 -7 3 -2
5 12 5 14 0 19 -2 13 -5z m856 3 c-8 -8 -88 -10 -95 -3 -4 4 17 7 46 7 29 0
51 -2 49 -4z m-3122 -13 c-8 -7 -108 -5 -116 3 -2 2 24 4 59 4 35 0 60 -3 57
-7z m56 0 c-7 -2 -19 -2 -25 0 -7 3 -2 5 12 5 14 0 19 -2 13 -5z m700 0 c-7
-2 -21 -2 -30 0 -10 3 -4 5 12 5 17 0 24 -2 18 -5z m1847 -5 c0 -10 -67 -11
-74 0 -2 4 13 8 35 8 21 1 39 -3 39 -8z m65 2 c4 -6 -6 -10 -22 -10 -22 0 -25
2 -13 10 19 12 27 12 35 0z m30 0 c3 -5 1 -10 -4 -10 -6 0 -11 5 -11 10 0 6 2
10 4 10 3 0 8 -4 11 -10z m95 1 c0 -3 -13 -7 -30 -7 -16 -1 -28 2 -25 6 6 9
55 10 55 1z m60 -1 c0 -5 -7 -7 -15 -4 -8 4 -15 8 -15 10 0 2 7 4 15 4 8 0 15
-4 15 -10z m30 -5 c7 -9 8 -15 2 -15 -5 0 -12 7 -16 15 -3 8 -4 15 -2 15 2 0
9 -7 16 -15z m2424 7 c3 -5 -1 -9 -9 -9 -8 0 -12 4 -9 9 3 4 7 8 9 8 2 0 6 -4
9 -8z m66 -3 c0 -5 -11 -9 -25 -9 -14 0 -25 4 -25 9 0 5 11 9 25 9 14 0 25 -4
25 -9z m-117 -6 c-7 -2 -19 -2 -25 0 -7 3 -2 5 12 5 14 0 19 -2 13 -5z m-1288
-13 c3 -5 -3 -10 -14 -10 -12 0 -21 5 -21 10 0 6 6 10 14 10 8 0 18 -4 21 -10z
m1102 4 c-10 -10 -78 -13 -72 -3 4 5 22 9 42 9 20 0 34 -3 30 -6z m73 -4 c-18
-12 -60 -13 -60 -2 0 4 17 8 37 9 26 1 33 -1 23 -7z m-177 -7 c-7 -2 -21 -2
-30 0 -10 3 -4 5 12 5 17 0 24 -2 18 -5z m-843 -13 c8 -5 11 -10 5 -10 -5 0
-17 5 -25 10 -8 5 -10 10 -5 10 6 0 17 -5 25 -10z m70 -5 c0 -1 -12 -2 -26 -2
-17 0 -22 2 -13 7 10 7 39 3 39 -5z"/>
<path d="M4771 3037 c-6 -7 -10 -27 -10 -43 1 -16 -2 -39 -6 -51 -6 -20 -3
-21 49 -25 30 -1 65 -1 77 2 31 8 36 30 7 30 -16 0 -19 3 -10 9 7 4 20 20 27
34 12 24 12 27 -2 27 -13 0 -13 3 -2 16 12 14 8 15 -37 9 -27 -4 -57 -12 -66
-17 -14 -6 -16 -5 -12 7 7 19 0 20 -15 2z"/>
<path d="M4797 2753 c-4 -3 -7 -13 -7 -22 1 -13 3 -13 11 2 11 19 8 33 -4 20z"/>
<path d="M4484 2716 c3 -16 8 -31 11 -34 9 -10 5 33 -5 48 -8 11 -9 8 -6 -14z"/>
<path d="M4652 2673 c-17 -7 -5 -23 19 -23 10 0 19 7 19 15 0 15 -14 18 -38 8z"/>
<path d="M2200 2039 c0 -63 4 -119 10 -125 5 -5 11 -35 13 -66 2 -32 7 -61 11
-65 4 -5 4 26 0 67 -4 41 -11 77 -15 78 -5 2 -9 8 -9 13 0 6 3 8 8 6 10 -7 2
186 -9 198 -5 5 -9 -35 -9 -106z"/>
<path d="M2141 2004 c0 -11 3 -14 6 -6 3 7 2 16 -1 19 -3 4 -6 -2 -5 -13z"/>
<path d="M2190 1785 c0 -27 2 -46 4 -44 8 8 10 78 3 85 -4 4 -7 -14 -7 -41z"/>
<path d="M2190 1700 c0 -19 3 -21 12 -12 9 9 9 15 0 24 -9 9 -12 7 -12 -12z"/>
<path d="M2971 1564 c0 -11 3 -14 6 -6 3 7 2 16 -1 19 -3 4 -6 -2 -5 -13z"/>
<path d="M2251 1554 c0 -11 3 -14 6 -6 3 7 2 16 -1 19 -3 4 -6 -2 -5 -13z"/>
<path d="M2306 1488 c4 -46 8 -90 10 -98 1 -8 3 -32 3 -52 1 -21 5 -38 9 -38
9 0 5 231 -3 258 -3 6 -9 12 -15 12 -8 0 -9 -25 -4 -82z"/>
<path d="M2536 1474 c-4 -20 -5 -38 -3 -40 3 -3 8 11 11 32 4 20 5 38 3 40 -3
3 -8 -11 -11 -32z"/>
<path d="M2605 1470 c-3 -6 1 -7 9 -4 14 5 16 -6 16 -77 -1 -46 -7 -131 -14
-189 -8 -58 -11 -109 -8 -115 4 -5 12 37 19 95 22 187 26 247 19 274 -6 26
-29 35 -41 16z"/>
<path d="M2930 1340 c0 -5 7 -10 16 -10 8 0 12 5 9 10 -3 6 -10 10 -16 10 -5
0 -9 -4 -9 -10z"/>
<path d="M2496 1308 c-15 -81 -27 -133 -38 -172 l-13 -41 -5 64 c-3 39 -10 66
-17 69 -17 5 -15 -96 1 -127 12 -22 13 -22 34 -4 11 10 30 43 42 73 23 63 26
92 4 41 -16 -38 -30 -38 -16 0 11 29 26 129 19 129 -2 0 -7 -15 -11 -32z"/>
<path d="M2970 1326 c0 -10 8 -16 22 -16 12 0 19 1 17 3 -2 1 -12 9 -21 16
-15 12 -18 11 -18 -3z"/>
<path d="M3141 1082 c-1 -30 0 -31 19 -20 11 7 20 17 20 22 0 4 -6 3 -14 -3
-12 -10 -15 -8 -19 11 -3 17 -5 15 -6 -10z"/>
<path d="M2363 905 c0 -27 2 -38 4 -22 2 15 2 37 0 50 -2 12 -4 0 -4 -28z"/>
<path d="M2560 879 c-2 -140 -16 -306 -30 -358 -14 -55 -6 -65 11 -14 16 45
15 38 25 178 5 72 10 101 15 85 5 -18 7 -9 8 31 1 39 -4 60 -14 69 -8 7 -15
11 -15 9z"/>
<path d="M2346 817 c-5 -20 -12 -40 -17 -43 -12 -7 -12 -24 0 -24 13 0 33 55
29 82 -4 19 -6 16 -12 -15z"/>
<path d="M2662 680 c-1 -44 2 -60 8 -50 12 18 12 67 0 95 -5 13 -8 -1 -8 -45z"/>
<path d="M2592 690 c0 -19 2 -27 5 -17 2 9 2 25 0 35 -3 9 -5 1 -5 -18z"/>
<path d="M2427 703 c-4 -3 -7 -11 -7 -17 0 -6 5 -5 12 2 6 6 9 14 7 17 -3 3
-9 2 -12 -2z"/>
<path d="M1369 2501 c-14 -12 -18 -20 -11 -21 15 0 47 28 40 36 -3 2 -16 -4
-29 -15z"/>
<path d="M1433 2499 c-16 -16 6 -53 58 -94 24 -19 48 -35 52 -35 5 0 22 -9 38
-21 21 -15 29 -17 29 -7 0 8 -26 28 -57 44 -59 31 -108 87 -99 111 6 16 -6 17
-21 2z"/>
<path d="M966 1798 c8 -94 25 -125 19 -38 -2 36 -5 75 -5 88 0 12 -5 22 -11
22 -7 0 -8 -24 -3 -72z"/>
<path d="M869 1845 c-8 -7 3 -75 11 -75 5 0 6 17 3 38 -6 41 -8 44 -14 37z"/>
<path d="M1032 1605 c0 -16 2 -22 5 -12 2 9 2 23 0 30 -3 6 -5 -1 -5 -18z"/>
<path d="M1366 1503 c-3 -21 -8 -63 -11 -93 -2 -30 -7 -75 -10 -100 -10 -82
12 -9 31 104 14 77 15 109 7 117 -8 8 -13 1 -17 -28z"/>
<path d="M1423 1484 c-7 -7 -10 -19 -7 -27 3 -8 -5 -38 -16 -68 -12 -30 -17
-55 -12 -57 6 -2 7 -16 2 -35 -14 -57 -20 -103 -11 -87 7 12 39 141 65 262 5
23 -6 29 -21 12z"/>
<path d="M1457 1408 c-47 -132 -78 -240 -75 -256 2 -9 14 20 27 63 30 105 61
196 72 215 33 58 -17 -222 -78 -441 -11 -42 -13 -68 -6 -105 5 -27 9 -75 8
-107 -1 -32 2 -60 7 -63 4 -3 9 16 9 43 1 34 10 0 29 -115 25 -150 34 -182 44
-171 3 4 -19 145 -44 284 -6 33 -14 78 -17 100 -3 22 -11 50 -19 62 -12 19 -9
35 20 140 49 177 66 260 71 346 4 101 -14 103 -48 5z"/>
<path d="M1100 1246 c0 -14 5 -28 10 -31 6 -3 10 5 10 19 0 14 -4 28 -10 31
-6 3 -10 -5 -10 -19z"/>
<path d="M1326 1235 c-3 -9 -6 -22 -5 -28 0 -7 5 -1 10 12 5 13 8 26 5 28 -2
2 -6 -3 -10 -12z"/>
<path d="M1121 1174 c0 -11 3 -14 6 -6 3 7 2 16 -1 19 -3 4 -6 -2 -5 -13z"/>
<path d="M1187 1098 c6 -35 11 -44 17 -37 7 8 -6 69 -15 69 -5 0 -6 -15 -2
-32z"/>
<path d="M1349 1066 c-11 -30 -15 -33 -32 -24 -19 10 -20 8 -14 -28 4 -22 7
-55 8 -74 1 -34 2 -33 14 15 8 28 21 70 30 94 9 24 14 46 11 48 -2 2 -10 -11
-17 -31z"/>
<path d="M1401 634 c0 -11 3 -14 6 -6 3 7 2 16 -1 19 -3 4 -6 -2 -5 -13z"/>
<path d="M1397 593 c-4 -3 -7 -16 -6 -27 0 -19 1 -19 10 3 10 24 8 36 -4 24z"/>
<path d="M4464 2084 c-18 -14 -18 -15 4 -4 12 6 22 13 22 15 0 8 -5 6 -26 -11z"/>
<path d="M3580 1115 c0 -8 5 -15 10 -15 6 0 10 7 10 15 0 8 -4 15 -10 15 -5 0
-10 -7 -10 -15z"/>
<path d="M4605 976 c-11 -7 -37 -19 -57 -25 -20 -7 -42 -19 -48 -26 -11 -13
-7 -13 27 -1 65 23 141 65 118 66 -11 0 -29 -6 -40 -14z"/>
<path d="M4058 583 c7 -3 16 -2 19 1 4 3 -2 6 -13 5 -11 0 -14 -3 -6 -6z"/>
<path d="M4090 1175 c-7 -8 -8 -15 -2 -15 5 0 15 7 22 15 7 8 8 15 2 15 -5 0
-15 -7 -22 -15z"/>
<path d="M5040 1095 c-11 -26 -18 -50 -15 -53 2 -3 14 16 26 42 11 26 18 50
15 53 -3 3 -15 -16 -26 -42z"/>
<path d="M258 1103 c6 -2 18 -2 25 0 6 3 1 5 -13 5 -14 0 -19 -2 -12 -5z"/>
<path d="M5528 983 c-2 -16 -8 -27 -15 -25 -16 3 -17 -14 -1 -24 6 -4 14 -2
16 5 3 9 7 10 11 3 4 -6 6 7 6 29 0 44 -12 53 -17 12z"/>
<path d="M152 970 c0 -14 2 -19 5 -12 2 6 2 18 0 25 -3 6 -5 1 -5 -13z"/>
<path d="M140 915 c0 -8 4 -15 10 -15 5 0 7 7 4 15 -4 8 -8 15 -10 15 -2 0 -4
-7 -4 -15z"/>
<path d="M142 860 c0 -14 2 -19 5 -12 2 6 2 18 0 25 -3 6 -5 1 -5 -13z"/>
<path d="M926 907 c3 -10 9 -15 12 -12 3 3 0 11 -7 18 -10 9 -11 8 -5 -6z"/>
<path d="M748 873 c7 -3 16 -2 19 1 4 3 -2 6 -13 5 -11 0 -14 -3 -6 -6z"/>
<path d="M898 833 c6 -2 18 -2 25 0 6 3 1 5 -13 5 -14 0 -19 -2 -12 -5z"/>
<path d="M695 800 c-3 -5 -1 -10 4 -10 6 0 11 5 11 10 0 6 -2 10 -4 10 -3 0
-8 -4 -11 -10z"/>
<path d="M980 800 c0 -5 7 -10 16 -10 8 0 12 5 9 10 -3 6 -10 10 -16 10 -5 0
-9 -4 -9 -10z"/>
<path d="M600 720 l-45 -7 50 -1 c28 0 68 3 90 7 l40 9 -45 -1 c-25 0 -65 -3
-90 -7z"/>
<path d="M480 690 c0 -6 7 -10 15 -10 8 0 15 2 15 4 0 2 -7 6 -15 10 -8 3 -15
1 -15 -4z"/>
<path d="M683 690 c-35 -14 -27 -19 15 -10 20 5 51 10 67 13 21 3 17 4 -15 5
-25 0 -55 -3 -67 -8z"/>
<path d="M838 693 c7 -3 16 -2 19 1 4 3 -2 6 -13 5 -11 0 -14 -3 -6 -6z"/>
<path d="M553 683 c9 -2 23 -2 30 0 6 3 -1 5 -18 5 -16 0 -22 -2 -12 -5z"/>
<path d="M175 510 c-8 -13 15 -13 35 0 12 8 11 10 -7 10 -12 0 -25 -4 -28 -10z"/>
<path d="M4535 620 c-3 -5 -1 -10 4 -10 6 0 11 5 11 10 0 6 -2 10 -4 10 -3 0
-8 -4 -11 -10z"/>
<path d="M2520 209 c-19 -17 -26 -26 -15 -20 31 15 60 39 55 44 -3 3 -21 -8
-40 -24z"/>
<path d="M3590 3087 c-58 -4 -114 -12 -125 -17 -11 -5 -51 -12 -89 -15 -53 -5
-67 -4 -61 6 6 9 -2 10 -36 5 -103 -17 -119 -18 -119 -7 0 6 8 11 17 11 9 0
14 2 11 5 -8 8 -138 -18 -138 -28 0 -9 52 -3 69 7 6 4 28 -2 50 -14 39 -19 71
-18 71 2 0 6 15 8 38 4 50 -9 146 -7 207 4 55 10 171 23 195 21 43 -2 200 12
195 17 -9 9 -159 9 -285 -1z"/>
<path d="M4315 3070 c-4 -6 7 -10 24 -10 17 0 31 5 31 10 0 6 -11 10 -24 10
-14 0 -28 -4 -31 -10z"/>
<path d="M5238 3053 c7 -3 16 -2 19 1 4 3 -2 6 -13 5 -11 0 -14 -3 -6 -6z"/>
<path d="M3008 3043 c7 -3 16 -2 19 1 4 3 -2 6 -13 5 -11 0 -14 -3 -6 -6z"/>
<path d="M5168 3043 c-10 -2 -18 -9 -18 -14 0 -14 33 -10 54 6 20 15 20 15 0
14 -10 -1 -27 -3 -36 -6z"/>
<path d="M5623 3029 c12 -7 27 -7 45 0 25 9 24 9 -18 10 -36 0 -41 -2 -27 -10z"/>
<path d="M3675 3019 c-16 -6 -14 -8 13 -8 33 -1 41 4 20 12 -7 2 -22 1 -33 -4z"/>
<path d="M3743 3023 c9 -2 25 -2 35 0 9 3 1 5 -18 5 -19 0 -27 -2 -17 -5z"/>
<path d="M1245 3010 c-27 -5 -97 -9 -155 -9 -125 -1 -151 -7 -144 -29 5 -14 4
-14 -6 1 -10 16 -29 17 -263 11 -139 -3 -253 -10 -255 -15 -2 -5 -16 -9 -30
-10 -15 0 -36 -4 -47 -9 -12 -6 28 -7 105 -3 73 3 128 10 133 17 5 8 10 7 16
-3 5 -7 13 -11 17 -8 5 2 55 8 112 11 73 5 102 4 102 -4 0 -6 8 -9 18 -7 65
18 74 18 79 -2 3 -11 12 -20 21 -21 10 -1 73 -3 142 -6 127 -5 170 -1 170 16
0 9 -34 7 -61 -4 -9 -4 -38 -5 -65 -3 l-49 3 53 2 c38 1 52 6 50 15 -3 8 -37
14 -99 18 l-94 5 70 3 c39 2 81 2 95 1 42 -3 232 12 225 18 -3 3 -11 7 -18 8
-53 10 -78 11 -122 4z"/>
<path d="M5218 3013 c12 -2 32 -2 45 0 12 2 2 4 -23 4 -25 0 -35 -2 -22 -4z"/>
<path d="M5298 3013 c6 -2 18 -2 25 0 6 3 1 5 -13 5 -14 0 -19 -2 -12 -5z"/>
<path d="M3588 3003 c7 -3 16 -2 19 1 4 3 -2 6 -13 5 -11 0 -14 -3 -6 -6z"/>
<path d="M1418 2993 c12 -2 32 -2 45 0 12 2 2 4 -23 4 -25 0 -35 -2 -22 -4z"/>
<path d="M1768 2993 c7 -3 16 -2 19 1 4 3 -2 6 -13 5 -11 0 -14 -3 -6 -6z"/>
<path d="M3458 2993 c7 -3 16 -2 19 1 4 3 -2 6 -13 5 -11 0 -14 -3 -6 -6z"/>
<path d="M3349 2979 c-10 -6 -4 -9 19 -9 17 0 32 2 32 4 0 9 -39 13 -51 5z"/>
<path d="M4240 2964 l-35 -14 40 5 40 5 -35 -20 c-35 -21 -31 -21 50 1 74 19
78 21 50 29 -38 12 -71 10 -110 -6z"/>
<path d="M3215 2960 c-16 -7 -13 -9 15 -9 19 0 44 4 55 9 16 7 13 9 -15 9 -19
0 -44 -4 -55 -9z"/>
<path d="M5567 2960 c-32 -4 -59 -9 -62 -11 -2 -2 30 -4 71 -5 40 -1 71 3 68
7 -3 5 2 6 10 3 9 -3 16 -1 16 5 0 12 -15 12 -103 1z"/>
<path d="M3615 2944 l-50 -13 49 4 c27 3 52 7 54 10 12 11 -6 11 -53 -1z"/>
<path d="M1393 2943 c9 -2 23 -2 30 0 6 3 -1 5 -18 5 -16 0 -22 -2 -12 -5z"/>
<path d="M1613 2943 c26 -2 67 -2 90 0 23 2 2 3 -48 3 -49 0 -68 -1 -42 -3z"/>
<path d="M4065 2940 c-18 -8 -18 -9 5 -9 14 0 32 4 40 9 12 8 12 10 -5 9 -11
0 -29 -4 -40 -9z"/>
<path d="M4138 2943 c7 -3 16 -2 19 1 4 3 -2 6 -13 5 -11 0 -14 -3 -6 -6z"/>
<path d="M5443 2943 c9 -2 23 -2 30 0 6 3 -1 5 -18 5 -16 0 -22 -2 -12 -5z"/>
<path d="M757 2934 c-1 -1 -72 -5 -157 -10 -243 -12 -248 -12 -211 -23 12 -3
64 -3 115 1 50 3 141 9 202 13 130 7 141 9 151 19 6 6 -92 7 -100 0z"/>
<path d="M883 2933 c9 -2 23 -2 30 0 6 3 -1 5 -18 5 -16 0 -22 -2 -12 -5z"/>
<path d="M1995 2930 c-27 -5 -66 -6 -86 -3 -21 3 -39 1 -43 -6 -4 -6 -19 -11
-34 -12 -15 0 -36 -5 -47 -10 -14 -6 -6 -7 26 -3 25 3 72 7 105 9 76 4 133 15
140 26 3 5 2 8 -3 8 -4 -1 -30 -5 -58 -9z"/>
<path d="M2158 2929 c-10 -5 -33 -10 -53 -11 -33 -1 -52 -18 -20 -18 18 0 127
28 133 35 10 9 -43 5 -60 -6z"/>
<path d="M3075 2924 l-60 -13 64 4 c35 3 72 5 82 5 11 0 19 5 19 10 0 13 -30
11 -105 -6z"/>
<path d="M5300 2929 c0 -11 21 -11 75 0 39 8 38 8 -17 9 -32 0 -58 -4 -58 -9z"/>
<path d="M2918 2903 c6 -2 18 -2 25 0 6 3 1 5 -13 5 -14 0 -19 -2 -12 -5z"/>
<path d="M1665 2890 c-30 -8 -30 -8 8 -9 23 -1 36 3 32 9 -3 6 -7 9 -8 9 -1
-1 -15 -5 -32 -9z"/>
<path d="M3270 2884 c-8 -1 -37 -6 -65 -9 -32 -5 -44 -10 -35 -15 16 -8 123
10 136 23 7 7 -7 8 -36 1z"/>
<path d="M1685 2860 c-44 -4 -100 -11 -124 -14 -24 -4 -62 -8 -85 -8 -28 0
-35 -3 -21 -8 15 -5 10 -8 -20 -13 -22 -4 -55 -7 -73 -7 -23 0 -32 -4 -29 -12
2 -7 16 -13 30 -12 15 0 77 1 139 2 128 2 141 14 16 14 l-83 1 55 13 c70 17
120 22 303 30 81 3 150 10 153 15 6 10 -143 10 -261 -1z"/>
<path d="M1300 2830 c8 -5 28 -10 44 -10 39 0 30 6 -19 13 -27 4 -35 3 -25 -3z"/>
<path d="M1210 2820 c0 -5 17 -10 38 -9 30 0 33 2 17 9 -28 12 -55 12 -55 0z"/>
<path d="M2930 2813 c0 -7 -7 -13 -17 -13 -9 0 -14 -3 -11 -6 6 -5 108 25 108
32 0 2 -18 3 -40 1 -24 -1 -40 -7 -40 -14z"/>
<path d="M5591 2826 c8 -8 108 -10 116 -3 3 4 -22 7 -57 7 -35 0 -61 -2 -59
-4z"/>
<path d="M1825 2807 c-12 -6 -59 -10 -115 -9 -52 2 -92 1 -89 -2 3 -3 33 -6
67 -8 34 -1 62 -5 62 -9 0 -4 -24 -12 -52 -18 -29 -5 -66 -13 -83 -16 -16 -4
-74 -11 -127 -17 -127 -14 -132 -33 -6 -24 50 3 142 6 205 6 62 0 113 3 113 8
0 4 -48 6 -107 4 -60 -2 -105 -1 -102 2 4 4 342 56 367 56 1 0 2 5 2 11 0 8
-19 10 -62 6 -34 -3 -56 -2 -49 3 21 12 -2 20 -24 7z"/>
<path d="M1015 2784 c-46 -23 -47 -25 -15 -18 19 3 60 14 90 24 l55 18 -40 0
c-23 0 -61 -10 -90 -24z"/>
<path d="M3598 2803 c7 -3 16 -2 19 1 4 3 -2 6 -13 5 -11 0 -14 -3 -6 -6z"/>
<path d="M2868 2783 c7 -3 16 -2 19 1 4 3 -2 6 -13 5 -11 0 -14 -3 -6 -6z"/>
<path d="M3060 2780 c-14 -4 -53 -14 -87 -20 -35 -7 -63 -17 -63 -21 0 -5 5
-9 11 -9 15 0 202 50 208 56 7 7 -42 3 -69 -6z"/>
<path d="M778 2773 c-21 -2 -38 -8 -38 -13 0 -11 71 -1 85 11 6 6 6 8 0 7 -6
-1 -27 -3 -47 -5z"/>
<path d="M3936 2761 c-16 -3 -31 -12 -34 -20 -3 -10 0 -12 11 -8 9 3 32 9 51
13 20 3 36 10 36 15 0 10 -20 10 -64 0z"/>
<path d="M670 2750 c-20 -6 -21 -8 -5 -8 11 0 31 4 45 8 20 6 21 8 5 8 -11 0
-31 -4 -45 -8z"/>
<path d="M1180 2746 c-14 -8 -51 -19 -83 -26 -32 -6 -61 -18 -64 -26 -3 -8
-11 -14 -18 -14 -8 0 -17 -4 -20 -10 -6 -10 10 -6 50 10 11 5 57 20 102 35 80
26 114 45 76 45 -10 -1 -29 -7 -43 -14z"/>
<path d="M3152 2710 c-162 -43 -144 -55 23 -15 39 10 77 24 85 31 18 18 16 17
-108 -16z"/>
<path d="M3830 2724 c-22 -8 -28 -13 -15 -13 11 0 34 6 50 14 38 17 11 17 -35
-1z"/>
<path d="M5628 2733 c12 -2 20 -9 17 -14 -8 -12 16 -11 35 1 8 5 13 10 10 11
-22 3 -80 6 -62 2z"/>
<path d="M214 2718 c-3 -4 3 -8 13 -9 10 0 37 -2 60 -4 23 -3 52 -1 65 4 20 8
17 10 -22 12 -92 5 -112 4 -116 -3z"/>
<path d="M3628 2723 c7 -3 16 -2 19 1 4 3 -2 6 -13 5 -11 0 -14 -3 -6 -6z"/>
<path d="M5548 2723 c6 -2 18 -2 25 0 6 3 1 5 -13 5 -14 0 -19 -2 -12 -5z"/>
<path d="M393 2713 c9 -2 23 -2 30 0 6 3 -1 5 -18 5 -16 0 -22 -2 -12 -5z"/>
<path d="M3568 2713 c7 -3 16 -2 19 1 4 3 -2 6 -13 5 -11 0 -14 -3 -6 -6z"/>
<path d="M5219 2699 c-16 -5 -5 -7 34 -8 31 -1 57 1 57 3 0 8 -67 11 -91 5z"/>
<path d="M5338 2703 c12 -2 30 -2 40 0 9 3 -1 5 -23 4 -22 0 -30 -2 -17 -4z"/>
<path d="M2760 2673 c0 -14 18 -17 44 -7 26 10 18 21 -14 21 -18 0 -30 -6 -30
-14z"/>
<path d="M5550 2681 l-35 -7 39 -6 c40 -7 56 -4 56 13 0 10 -7 10 -60 0z"/>
<path d="M5468 2663 c6 -2 18 -2 25 0 6 3 1 5 -13 5 -14 0 -19 -2 -12 -5z"/>
<path d="M770 2640 c-8 -5 -10 -10 -5 -10 6 0 17 5 25 10 8 5 11 10 5 10 -5 0
-17 -5 -25 -10z"/>
<path d="M2708 2643 c6 -2 18 -2 25 0 6 3 1 5 -13 5 -14 0 -19 -2 -12 -5z"/>
<path d="M5338 2643 c7 -3 16 -2 19 1 4 3 -2 6 -13 5 -11 0 -14 -3 -6 -6z"/>
<path d="M2670 2630 c-9 -6 -10 -10 -3 -10 6 0 15 5 18 10 8 12 4 12 -15 0z"/>
<path d="M5458 2633 c7 -3 16 -2 19 1 4 3 -2 6 -13 5 -11 0 -14 -3 -6 -6z"/>
<path d="M3845 2621 c-16 -3 -25 -9 -20 -13 14 -9 105 3 105 13 0 10 -40 10
-85 0z"/>
<path d="M3728 2603 c7 -3 16 -2 19 1 4 3 -2 6 -13 5 -11 0 -14 -3 -6 -6z"/>
<path d="M2920 2579 c-36 -10 -70 -16 -77 -14 -7 2 -15 0 -18 -5 -12 -19 44
-10 190 30 l30 8 -30 0 c-16 0 -59 -9 -95 -19z"/>
<path d="M3535 2590 l-40 -7 40 0 c22 -1 54 3 70 7 l30 8 -30 -1 c-16 0 -48
-3 -70 -7z"/>
<path d="M5610 2590 c-19 -4 -28 -8 -20 -9 13 -1 13 -2 0 -11 -15 -11 -9 -10
65 5 14 3 25 10 25 15 0 11 -18 11 -70 0z"/>
<path d="M5448 2573 c7 -3 16 -2 19 1 4 3 -2 6 -13 5 -11 0 -14 -3 -6 -6z"/>
<path d="M380 2560 c-23 -7 -23 -8 -3 -9 12 -1 25 4 28 9 3 6 5 10 3 9 -2 -1
-14 -5 -28 -9z"/>
<path d="M3778 2563 c-27 -4 -48 -33 -24 -33 18 0 79 21 91 31 9 9 -16 10 -67
2z"/>
<path d="M288 2546 c-38 -12 -52 -29 -27 -34 20 -4 89 26 89 38 0 12 -14 11
-62 -4z"/>
<path d="M3110 2540 c-14 -5 -80 -18 -147 -30 -68 -12 -123 -26 -123 -32 0 -5
12 -7 28 -5 66 12 316 68 320 72 8 8 -51 4 -78 -5z"/>
<path d="M3525 2530 c4 -6 11 -8 16 -5 14 9 11 15 -7 15 -8 0 -12 -5 -9 -10z"/>
<path d="M3416 2519 c-22 -5 -42 -12 -45 -15 -8 -8 88 7 114 17 18 7 17 8 -5
7 -14 0 -43 -4 -64 -9z"/>
<path d="M3708 2523 c7 -3 16 -2 19 1 4 3 -2 6 -13 5 -11 0 -14 -3 -6 -6z"/>
<path d="M5398 2523 c7 -3 16 -2 19 1 4 3 -2 6 -13 5 -11 0 -14 -3 -6 -6z"/>
<path d="M5303 2507 c-49 -11 -58 -28 -13 -25 17 1 30 6 30 10 0 4 8 8 18 8 9
0 24 5 32 10 12 8 11 10 -5 9 -11 -1 -39 -6 -62 -12z"/>
<path d="M5572 2509 c-55 -9 -102 -28 -72 -29 8 0 42 5 75 11 84 14 84 14 91
22 9 9 -26 7 -94 -4z"/>
<path d="M5373 2483 c9 -2 23 -2 30 0 6 3 -1 5 -18 5 -16 0 -22 -2 -12 -5z"/>
<path d="M416 2471 c-4 -7 -5 -15 -2 -18 9 -9 19 4 14 18 -4 11 -6 11 -12 0z"/>
<path d="M3528 2463 c7 -3 16 -2 19 1 4 3 -2 6 -13 5 -11 0 -14 -3 -6 -6z"/>
<path d="M3781 2463 c-13 -3 -37 -14 -55 -25 -34 -22 -35 -22 66 5 77 21 69
35 -11 20z"/>
<path d="M368 2448 c5 -5 16 -8 23 -6 8 3 3 7 -10 11 -17 4 -21 3 -13 -5z"/>
<path d="M3460 2445 c-19 -7 -28 -14 -20 -14 8 0 29 6 45 14 39 17 21 18 -25
0z"/>
<path d="M293 2443 c-21 -8 -15 -20 10 -18 12 1 30 3 40 4 10 0 15 6 12 11 -6
10 -41 12 -62 3z"/>
<path d="M3635 2440 c-3 -5 -1 -10 4 -10 6 0 11 5 11 10 0 6 -2 10 -4 10 -3 0
-8 -4 -11 -10z"/>
<path d="M3510 2420 c-10 -7 -1 -8 30 -4 56 8 64 14 19 14 -19 0 -41 -5 -49
-10z"/>
<path d="M5600 2420 c0 -5 -6 -10 -12 -10 -20 0 -90 -21 -86 -25 2 -2 33 3 68
11 72 16 101 34 57 34 -15 0 -27 -4 -27 -10z"/>
<path d="M3655 2410 c-3 -6 1 -7 9 -4 18 7 21 14 7 14 -6 0 -13 -4 -16 -10z"/>
<path d="M3615 2400 c-3 -5 -1 -10 4 -10 6 0 11 5 11 10 0 6 -2 10 -4 10 -3 0
-8 -4 -11 -10z"/>
<path d="M3250 2375 c-8 -9 -8 -15 -2 -15 12 0 26 19 19 26 -2 2 -10 -2 -17
-11z"/>
<path d="M3544 2375 c-25 -19 -15 -19 27 0 25 10 29 14 13 15 -11 0 -29 -7
-40 -15z"/>
<path d="M3440 2345 c-23 -9 -28 -14 -15 -14 11 0 34 6 50 14 39 17 11 18 -35
0z"/>
<path d="M230 2330 c0 -5 19 -10 43 -9 32 0 37 2 22 9 -28 12 -65 12 -65 0z"/>
<path d="M5495 2330 c4 -6 23 -7 46 -4 24 4 39 3 39 -4 0 -13 38 -23 46 -11 3
6 14 7 23 4 21 -6 51 3 51 16 0 5 -48 9 -106 9 -68 0 -103 -4 -99 -10z"/>
<path d="M3575 2320 c-42 -11 -1 -11 50 -1 34 7 35 9 10 9 -16 0 -43 -4 -60
-8z"/>
<path d="M3475 2311 c-3 -6 -21 -11 -38 -12 -18 0 -50 -7 -72 -14 l-40 -13 45
5 c65 8 178 31 158 32 -9 1 -23 4 -31 7 -8 3 -18 1 -22 -5z"/>
<path d="M3270 2290 c-12 -8 -11 -10 7 -10 12 0 25 5 28 10 8 13 -15 13 -35 0z"/>
<path d="M5468 2263 c7 -3 16 -2 19 1 4 3 -2 6 -13 5 -11 0 -14 -3 -6 -6z"/>
<path d="M5548 2253 c6 -2 18 -2 25 0 6 3 1 5 -13 5 -14 0 -19 -2 -12 -5z"/>
<path d="M5550 2239 c-47 -5 -42 -6 37 -7 55 -1 94 2 98 9 7 10 -24 10 -135
-2z"/>
<path d="M628 2230 c-15 -4 -29 -6 -32 -3 -2 3 -10 2 -16 -2 -9 -6 -9 -9 1
-15 8 -6 0 -13 -26 -24 -20 -9 -41 -16 -46 -16 -5 0 -9 -7 -9 -15 0 -13 7 -15
34 -10 47 9 53 -9 10 -30 -20 -9 -33 -19 -30 -23 6 -5 18 -1 94 36 17 8 32 22
32 30 0 12 -9 13 -47 8 -56 -7 -48 4 19 29 76 28 89 57 16 35z"/>
<path d="M5438 2223 c7 -3 16 -2 19 1 4 3 -2 6 -13 5 -11 0 -14 -3 -6 -6z"/>
<path d="M525 2210 c-3 -5 -1 -10 4 -10 6 0 11 5 11 10 0 6 -2 10 -4 10 -3 0
-8 -4 -11 -10z"/>
<path d="M253 2203 c-13 -2 -23 -8 -23 -14 0 -15 46 -21 85 -10 21 6 42 8 47
5 4 -3 8 -1 8 5 0 6 -19 8 -52 4 -37 -5 -49 -3 -44 5 4 7 6 11 4 11 -2 -1 -13
-4 -25 -6z"/>
<path d="M473 2203 c9 -2 23 -2 30 0 6 3 -1 5 -18 5 -16 0 -22 -2 -12 -5z"/>
<path d="M418 2193 c6 -2 18 -2 25 0 6 3 1 5 -13 5 -14 0 -19 -2 -12 -5z"/>
<path d="M5432 2192 c10 -2 15 -9 11 -18 -4 -10 4 -14 31 -14 20 0 36 5 36 10
0 6 16 10 35 10 19 0 35 4 35 9 0 5 -37 9 -82 8 -46 -1 -75 -3 -66 -5z"/>
<path d="M5688 2183 c7 -3 16 -2 19 1 4 3 -2 6 -13 5 -11 0 -14 -3 -6 -6z"/>
<path d="M400 2140 c-24 -8 -24 -8 5 -8 17 0 44 4 60 8 l30 8 -35 0 c-19 0
-46 -4 -60 -8z"/>
<path d="M3250 2140 c0 -5 7 -7 15 -4 8 4 15 8 15 10 0 2 -7 4 -15 4 -8 0 -15
-4 -15 -10z"/>
<path d="M3195 2130 c-3 -5 -1 -10 4 -10 6 0 11 5 11 10 0 6 -2 10 -4 10 -3 0
-8 -4 -11 -10z"/>
<path d="M288 2122 c-16 -2 -28 -8 -28 -13 0 -8 48 -2 59 7 8 7 -4 9 -31 6z"/>
<path d="M348 2123 c7 -3 16 -2 19 1 4 3 -2 6 -13 5 -11 0 -14 -3 -6 -6z"/>
<path d="M188 2103 c-16 -2 -28 -8 -28 -13 0 -10 56 -2 80 11 16 9 0 10 -52 2z"/>
<path d="M453 2083 c-13 -2 -23 -8 -23 -13 0 -5 15 -4 33 2 52 18 47 22 -10
11z"/>
<path d="M3308 2053 c7 -3 16 -2 19 1 4 3 -2 6 -13 5 -11 0 -14 -3 -6 -6z"/>
<path d="M546 2035 c-11 -8 -15 -15 -10 -15 6 0 19 7 30 15 10 8 15 14 9 14
-5 0 -19 -6 -29 -14z"/>
<path d="M490 2010 c-8 -5 -10 -10 -5 -10 6 0 17 5 25 10 8 5 11 10 5 10 -5 0
-17 -5 -25 -10z"/>
<path d="M146 2001 c-30 -11 -4 -22 35 -14 28 5 30 7 14 14 -25 9 -25 9 -49 0z"/>
<path d="M593 1942 c-20 -2 -33 -9 -33 -17 0 -8 -31 -24 -72 -38 -40 -14 -64
-26 -53 -26 23 -1 150 39 179 55 27 16 16 29 -21 26z"/>
<path d="M3060 1930 c-12 -8 -12 -10 2 -15 10 -4 23 -5 30 -2 7 3 4 6 -7 6
-17 1 -17 3 -5 11 8 5 11 10 5 10 -5 0 -17 -4 -25 -10z"/>
<path d="M460 1920 l-35 -7 35 -2 c19 0 42 4 50 9 13 9 13 10 0 9 -8 -1 -31
-5 -50 -9z"/>
<path d="M3010 1920 c0 -5 5 -10 11 -10 5 0 7 5 4 10 -3 6 -8 10 -11 10 -2 0
-4 -4 -4 -10z"/>
<path d="M145 1910 c3 -5 8 -10 11 -10 2 0 4 5 4 10 0 6 -5 10 -11 10 -5 0 -7
-4 -4 -10z"/>
<path d="M368 1913 c6 -2 18 -2 25 0 6 3 1 5 -13 5 -14 0 -19 -2 -12 -5z"/>
<path d="M358 1843 c7 -3 16 -2 19 1 4 3 -2 6 -13 5 -11 0 -14 -3 -6 -6z"/>
<path d="M520 1820 c0 -5 7 -10 15 -10 8 0 15 5 15 10 0 6 -7 10 -15 10 -8 0
-15 -4 -15 -10z"/>
<path d="M310 1810 l-55 -7 67 -1 c37 -1 70 3 73 8 7 11 2 11 -85 0z"/>
<path d="M185 1800 c-4 -6 7 -10 27 -9 27 0 30 2 13 9 -27 12 -33 12 -40 0z"/>
<path d="M445 1750 c-16 -7 -17 -9 -3 -9 9 -1 20 4 23 9 7 11 7 11 -20 0z"/>
<path d="M5785 1661 c-3 -6 -11 -9 -16 -6 -5 4 -9 -1 -9 -9 0 -21 26 -20 34 0
8 20 1 30 -9 15z"/>
<path d="M5790 1588 c0 -36 4 -35 14 5 4 16 2 27 -4 27 -5 0 -10 -14 -10 -32z"/>
<path d="M5771 1554 c0 -11 3 -14 6 -6 3 7 2 16 -1 19 -3 4 -6 -2 -5 -13z"/>
<path d="M5791 1514 c0 -11 3 -14 6 -6 3 7 2 16 -1 19 -3 4 -6 -2 -5 -13z"/>
<path d="M5766 1341 c-16 -18 -16 -19 9 -23 14 -3 25 -1 25 4 0 5 5 6 10 3 6
-3 10 2 10 11 0 10 -3 14 -7 11 -3 -4 -12 -2 -18 3 -8 7 -17 4 -29 -9z"/>
<path d="M5590 1214 c0 -8 5 -12 10 -9 6 4 8 11 5 16 -9 14 -15 11 -15 -7z"/>
<path d="M5722 960 c0 -14 2 -19 5 -12 2 6 2 18 0 25 -3 6 -5 1 -5 -13z"/>
<path d="M5813 934 c-7 -7 -13 -28 -13 -46 1 -27 2 -30 11 -15 5 9 7 22 3 28
-3 6 -1 15 6 19 7 4 11 12 9 18 -2 6 -9 5 -16 -4z"/>
<path d="M1080 678 c0 -4 -11 -10 -25 -14 -41 -10 -21 -16 29 -9 48 8 64 30
21 30 -14 0 -25 -3 -25 -7z"/>
<path d="M5775 630 c-3 -5 -1 -10 4 -10 6 0 11 5 11 10 0 6 -2 10 -4 10 -3 0
-8 -4 -11 -10z"/>
<path d="M958 583 c7 -3 16 -2 19 1 4 3 -2 6 -13 5 -11 0 -14 -3 -6 -6z"/>
<path d="M5707 483 c18 -9 36 -13 40 -10 9 10 3 13 -37 20 l-35 6 32 -16z"/>
<path d="M548 483 c-27 -2 -48 -8 -48 -12 0 -10 85 -2 115 10 l20 8 -20 -1
c-11 -1 -41 -3 -67 -5z"/>
<path d="M688 473 c7 -3 16 -2 19 1 4 3 -2 6 -13 5 -11 0 -14 -3 -6 -6z"/>
<path d="M443 463 c9 -2 25 -2 35 0 9 3 1 5 -18 5 -19 0 -27 -2 -17 -5z"/>
<path d="M620 400 l-95 -6 105 -2 c58 0 123 3 145 7 l40 9 -50 -1 c-27 0 -93
-4 -145 -7z"/>
<path d="M2245 396 c28 -7 55 -10 60 -7 6 3 -8 9 -30 13 -64 11 -85 7 -30 -6z"/>
<path d="M475 390 c-4 -6 5 -10 19 -10 14 0 26 5 26 10 0 6 -9 10 -19 10 -11
0 -23 -4 -26 -10z"/>
<path d="M265 376 c-38 -6 -65 -14 -59 -18 5 -4 30 -2 54 3 24 5 48 8 55 6 6
-3 22 1 36 9 21 12 22 13 4 12 -11 0 -51 -5 -90 -12z"/>
<path d="M5715 309 c-24 -51 -26 -130 -5 -137 12 -4 13 -2 3 9 -18 18 -16 40
7 106 24 67 21 80 -5 22z"/>
<path d="M652 277 c-34 -11 -39 -34 -6 -29 10 2 44 7 74 11 30 5 43 9 28 10
-15 0 -30 6 -33 11 -7 12 -19 11 -63 -3z"/>
<path d="M370 269 c0 -6 -14 -8 -36 -5 -22 4 -33 2 -29 -4 4 -6 44 -9 93 -8
53 1 68 3 40 5 -27 2 -48 8 -48 14 0 5 -4 9 -10 9 -5 0 -10 -5 -10 -11z"/>
<path d="M1250 269 c-11 -7 -4 -8 25 -3 50 8 58 14 19 14 -16 0 -36 -5 -44
-11z"/>
<path d="M575 235 c-40 -18 -68 -29 -80 -30 -5 -1 -40 -5 -77 -9 -38 -4 -68
-12 -68 -18 0 -10 69 -6 170 8 51 7 97 13 155 20 95 10 95 28 0 21 -44 -3 -74
-3 -67 0 13 5 17 23 5 22 -5 0 -21 -6 -38 -14z"/>
<path d="M5741 200 c14 -31 19 -36 19 -24 0 6 -7 19 -16 30 -14 18 -14 18 -3
-6z"/>
<path d="M5837 153 c-4 -3 -7 -11 -7 -17 0 -6 5 -5 12 2 6 6 9 14 7 17 -3 3
-9 2 -12 -2z"/>
<path d="M1433 79 c-11 -5 2 -8 35 -8 28 -1 52 1 52 3 0 8 -69 12 -87 5z"/>
</g>
</svg>
