<?xml version="1.0" standalone="no"?>
<!DOCTYPE svg PUBLIC "-//W3C//DTD SVG 20010904//EN"
 "http://www.w3.org/TR/2001/REC-SVG-20010904/DTD/svg10.dtd">
<svg version="1.0" xmlns="http://www.w3.org/2000/svg"
 width="268.000000pt" height="840.000000pt" viewBox="0 0 268.000000 840.000000"
 preserveAspectRatio="xMidYMid meet">
<metadata>
Created by potrace 1.16, written by Peter Selinger 2001-2019
</metadata>
<g transform="translate(0.000000,840.000000) scale(0.100000,-0.100000)"
fill="#000000" stroke="none">
<path d="M978 8368 c-3 -22 -6 -23 -88 -20 -90 3 -707 -24 -775 -34 -48 -7
-75 -29 -75 -60 0 -13 -7 -24 -17 -27 -13 -3 -14 -5 -3 -6 13 -1 15 -56 15
-429 0 -235 4 -575 9 -757 4 -181 9 -564 11 -850 2 -286 4 -538 4 -560 1 -22
-3 -224 -8 -450 -22 -861 -30 -2492 -16 -3390 11 -762 11 -741 5 -1010 -7
-302 -1 -464 25 -645 2 -14 4 -28 4 -31 2 -13 52 -19 200 -24 113 -4 160 -2
190 9 23 7 38 10 35 5 -3 -5 39 -9 92 -9 54 0 94 -3 90 -7 -3 -4 -26 -6 -50
-4 -25 1 -47 -3 -51 -9 -8 -13 -53 -12 485 -10 256 2 694 3 973 4 405 1 510 4
516 15 6 8 27 12 67 10 l59 -3 3 43 3 43 -40 -3 c-22 -2 -43 -1 -46 3 -3 3 -7
68 -9 144 -1 77 -9 301 -16 498 -11 318 -11 391 3 635 21 350 28 560 20 591
-6 22 -7 23 -15 4 -5 -11 -6 14 -3 61 2 44 8 169 11 278 4 109 10 193 14 186
4 -6 8 -104 9 -218 0 -113 6 -258 11 -321 6 -63 17 -180 24 -260 8 -80 11
-149 8 -155 -4 -5 -8 -55 -9 -110 -7 -287 -8 -290 -22 -287 -12 2 -13 -17 -7
-120 7 -132 29 -670 29 -728 0 -19 4 -38 10 -41 5 -4 13 -36 17 -70 4 -35 8
1171 8 2681 1 2331 -1 2777 -14 2955 -8 116 -19 235 -25 265 -9 46 -8 299 2
590 0 19 -4 73 -9 120 -22 175 -27 420 -18 755 4 143 3 277 -4 355 -6 69 -13
147 -15 175 -10 142 -13 153 -56 171 -21 10 -39 22 -39 26 0 5 -309 8 -688 6
-512 -2 -692 0 -703 9 -8 6 -32 14 -54 18 -22 4 -48 9 -57 11 -11 3 -17 -2
-20 -18z m87 -18 c-3 -5 -17 -10 -31 -10 -13 0 -24 5 -24 10 0 6 14 10 31 10
17 0 28 -4 24 -10z m-318 -182 c-3 -8 -6 -5 -6 6 -1 11 2 17 5 13 3 -3 4 -12
1 -19z m1580 0 c-3 -8 -6 -5 -6 6 -1 11 2 17 5 13 3 -3 4 -12 1 -19z m-300
-35 c-3 -10 -5 -4 -5 12 0 17 2 24 5 18 2 -7 2 -21 0 -30z m-190 -15 c-3 -7
-5 -2 -5 12 0 14 2 19 5 13 2 -7 2 -19 0 -25z m-990 -70 c-3 -8 -6 -5 -6 6 -1
11 2 17 5 13 3 -3 4 -12 1 -19z m1193 -55 c0 -32 -9 -25 -16 12 -3 17 -1 24 6
20 5 -3 10 -18 10 -32z m-1183 -5 c-3 -7 -5 -2 -5 12 0 14 2 19 5 13 2 -7 2
-19 0 -25z m-240 -175 c-2 -16 -4 -5 -4 22 0 28 2 40 4 28 2 -13 2 -35 0 -50z
m150 -5 c-3 -7 -5 -2 -5 12 0 14 2 19 5 13 2 -7 2 -19 0 -25z m-150 -165 c-2
-16 -4 -5 -4 22 0 28 2 40 4 28 2 -13 2 -35 0 -50z m446 -23 c3 -11 1 -18 -4
-14 -5 3 -9 12 -9 20 0 20 7 17 13 -6z m-497 -66 c-4 -20 -10 -34 -13 -30 -3
3 -2 21 1 42 4 20 10 34 13 30 3 -3 2 -21 -1 -42z m1293 -69 c0 -5 -4 -3 -9 5
-5 8 -9 22 -9 30 0 16 17 -16 18 -35z m-1009 -43 c0 -21 -4 -42 -9 -47 -5 -6
-5 -34 -1 -65 15 -99 12 -145 -11 -171 -32 -35 -47 -80 -42 -116 7 -46 23 -41
23 6 0 40 30 91 55 91 24 0 28 20 15 81 -7 33 -10 62 -6 66 3 4 16 -2 29 -13
12 -11 38 -30 57 -43 39 -25 93 -99 111 -149 7 -21 18 -32 30 -32 14 0 22 -12
31 -45 11 -42 38 -63 38 -30 0 8 3 15 6 15 3 0 12 -7 20 -15 10 -9 11 -15 4
-15 -7 0 -23 -9 -37 -20 -24 -19 -27 -19 -45 -4 -11 11 -15 21 -9 28 6 7 -5
24 -29 48 -37 38 -37 38 -55 18 -24 -26 -45 -25 -46 3 -3 51 -19 107 -31 107
-5 0 -9 -15 -7 -32 1 -18 1 -54 0 -79 -1 -38 -4 -47 -18 -45 -11 0 -18 -6 -17
-16 0 -10 1 -34 2 -53 1 -22 7 -35 16 -35 15 0 27 -35 19 -56 -3 -9 -14 -11
-33 -8 -32 7 -50 -12 -20 -21 11 -3 20 -12 20 -19 0 -6 14 -20 31 -30 24 -14
28 -20 18 -32 -31 -38 40 -24 113 23 43 26 48 28 47 11 0 -16 -109 -103 -109
-88 0 18 -17 11 -27 -12 -9 -21 -11 -19 -44 28 l-34 49 -5 -30 -5 -30 -20 29
c-11 16 -41 51 -67 78 -31 31 -48 58 -48 73 0 14 5 25 10 25 7 0 7 6 0 20 -6
11 -7 20 -1 20 5 0 11 -7 15 -15 3 -8 12 -15 20 -15 16 0 42 38 32 47 -3 3 -8
-2 -12 -11 -17 -45 -47 8 -49 89 -2 39 -6 59 -14 58 -15 -4 -14 10 2 50 8 18
17 49 21 69 5 27 11 36 21 31 14 -5 18 22 18 132 0 6 -3 38 -6 73 -6 57 -5 62
13 62 16 0 20 -7 20 -38z m206 -122 c8 0 14 -5 14 -10 0 -7 -6 -7 -20 0 -11 6
-19 18 -19 28 1 16 2 16 6 0 2 -10 11 -18 19 -18z m-113 -26 c18 -9 53 -37 78
-63 25 -25 57 -54 71 -63 38 -25 96 -142 78 -153 -6 -4 -19 14 -30 39 -10 25
-26 46 -34 46 -8 0 -27 23 -42 50 -15 28 -32 50 -38 50 -7 0 -27 16 -45 35
-18 20 -46 42 -62 51 -16 8 -29 17 -29 19 0 9 21 5 53 -11z m142 -64 c7 -12
-2 -12 -30 0 -19 8 -19 9 2 9 12 1 25 -3 28 -9z m-628 -52 c-3 -8 -6 -5 -6 6
-1 11 2 17 5 13 3 -3 4 -12 1 -19z m290 -10 c-3 -8 -6 -5 -6 6 -1 11 2 17 5
13 3 -3 4 -12 1 -19z m830 -215 c-2 -16 -4 -5 -4 22 0 28 2 40 4 28 2 -13 2
-35 0 -50z m-835 -15 c-7 -7 -12 -8 -12 -2 0 14 12 26 19 19 2 -3 -1 -11 -7
-17z m484 -36 c-1 -16 -9 -36 -19 -46 -9 -10 -17 -26 -17 -37 0 -11 -7 -22
-15 -25 -8 -4 -15 -12 -15 -20 0 -21 -18 -17 -30 7 -10 18 -6 25 34 60 35 31
46 48 46 70 0 17 4 28 9 25 5 -3 8 -19 7 -34z m-166 14 c0 -3 -4 -8 -10 -11
-5 -3 -10 -1 -10 4 0 6 5 11 10 11 6 0 10 -2 10 -4z m55 -26 c-3 -5 -11 -10
-16 -10 -6 0 -7 5 -4 10 3 6 11 10 16 10 6 0 7 -4 4 -10z m29 -39 c-22 -21
-27 -21 -18 3 3 9 13 16 22 16 13 0 12 -3 -4 -19z m132 -56 c8 -11 14 -31 14
-45 0 -14 5 -31 12 -38 9 -9 9 -12 0 -12 -9 0 -9 -9 2 -35 15 -34 14 -35 -17
-59 -49 -36 -73 -46 -109 -46 -33 1 -33 1 -12 18 12 11 37 63 58 122 30 87 33
106 23 119 -8 9 -11 25 -9 36 4 17 6 15 15 -10 5 -16 16 -39 23 -50z m-183 50
c-3 -9 -8 -14 -10 -11 -3 3 -2 9 2 15 9 16 15 13 8 -4z m-39 -44 c6 -10 -20
-48 -28 -41 -7 8 5 50 15 50 4 0 10 -4 13 -9z m-281 -41 c7 0 25 -20 40 -44
15 -25 48 -58 73 -73 24 -15 44 -31 44 -35 0 -16 45 -48 67 -48 13 0 23 -5 23
-11 0 -6 -9 -8 -20 -4 -22 7 -25 -3 -10 -37 12 -25 80 -75 80 -58 0 5 -4 10
-10 10 -13 0 -50 41 -50 56 0 9 11 9 44 2 34 -7 51 -6 73 5 15 8 39 11 52 8
33 -9 123 19 117 36 -6 15 30 37 45 28 5 -4 16 -1 24 5 12 10 14 5 11 -33 -3
-39 -11 -53 -55 -97 -28 -28 -49 -56 -46 -61 4 -5 -8 -21 -25 -35 -40 -34 -55
-63 -41 -77 8 -8 20 -1 44 28 17 22 42 51 55 64 13 13 21 26 18 29 -7 7 13 32
27 32 6 0 8 -20 4 -52 l-6 -53 17 35 c50 110 47 100 27 100 -19 0 -19 19 0 44
14 19 15 19 15 -6 0 -15 8 -34 17 -44 13 -13 14 -19 5 -22 -24 -8 -11 -22 21
-22 46 0 163 68 203 119 9 12 12 11 17 -2 8 -20 -41 -87 -85 -117 -18 -13 -40
-31 -48 -40 -8 -9 -37 -33 -63 -54 -27 -21 -58 -54 -70 -72 -12 -19 -27 -34
-34 -34 -7 0 -24 -20 -39 -45 -24 -41 -26 -54 -25 -146 1 -56 6 -109 11 -119
17 -31 21 -220 6 -275 l-13 -50 -11 50 c-21 91 -32 172 -31 216 1 24 -4 76
-10 114 -7 39 -9 81 -6 94 6 22 5 23 -11 10 -16 -13 -17 -10 -10 48 6 52 4 63
-10 71 -16 9 -16 11 -2 25 9 9 18 14 21 11 3 -3 8 0 12 6 4 7 -2 14 -14 17
-12 3 -21 9 -21 14 0 5 -7 9 -15 9 -11 0 -15 -11 -15 -40 0 -31 -3 -38 -15
-34 -22 9 -20 -49 5 -128 11 -34 20 -68 20 -74 0 -5 -17 -11 -37 -11 -21 -1
-39 -6 -41 -13 -3 -7 -10 -3 -19 9 -8 12 -29 28 -48 35 -18 8 -43 28 -56 45
-12 17 -28 31 -34 31 -7 0 -17 10 -23 23 -6 12 -23 40 -37 62 -14 22 -37 65
-51 95 -14 30 -29 62 -34 71 -5 9 -12 34 -16 55 l-7 39 53 -67 c57 -74 133
-128 180 -128 17 0 30 5 30 10 0 6 -11 10 -23 10 -13 0 -52 18 -85 40 -50 32
-62 45 -62 65 0 15 -5 36 -11 47 -8 16 -8 19 1 13 7 -4 11 -4 8 1 -36 78 -52
84 -43 17 4 -35 3 -42 -4 -28 -16 32 -52 72 -50 55 1 -8 1 -22 -1 -30 -3 -28
-19 23 -18 60 0 19 2 27 5 18 2 -10 9 -18 15 -18 5 0 8 7 5 15 -4 8 -2 17 3
20 6 4 10 1 10 -4 0 -6 5 -11 10 -11 14 0 13 53 -1 84 -16 34 -30 23 -23 -17
5 -30 5 -31 -10 -13 -15 19 -16 19 -17 -10 -1 -29 -1 -28 -10 6 -22 86 -29
171 -17 184 7 8 15 10 16 5 2 -5 9 -9 15 -9z m217 -2 c0 -6 -6 -5 -15 2 -8 7
-15 14 -15 16 0 2 7 1 15 -2 8 -4 15 -11 15 -16z m-603 -30 c-3 -7 -5 -2 -5
12 0 14 2 19 5 13 2 -7 2 -19 0 -25z m793 19 c0 -2 -7 -27 -16 -56 -11 -38
-19 -50 -26 -43 -18 18 -78 -35 -78 -69 0 -16 -5 -29 -11 -29 -6 0 -9 7 -5 15
3 8 0 15 -7 15 -7 0 -18 4 -26 9 -10 7 -2 20 35 56 83 80 134 119 134 102z
m169 -69 c13 -34 1 -44 -20 -17 -23 29 -24 39 -4 39 9 0 19 -10 24 -22z m493
-23 c-3 -21 0 -35 7 -35 6 0 11 11 11 25 0 44 17 27 59 -62 23 -49 46 -95 51
-103 6 -8 14 -24 19 -36 5 -11 20 -28 34 -37 14 -9 28 -30 32 -47 5 -23 12
-30 31 -30 15 0 24 -6 24 -15 0 -8 -4 -15 -10 -15 -5 0 -10 5 -10 10 0 6 -4
10 -8 10 -4 0 -18 -39 -32 -87 -25 -92 -26 -96 -55 -155 -19 -39 -50 -57 -67
-40 -7 7 3 24 29 53 42 47 20 39 -41 -15 -29 -25 -37 -40 -33 -55 4 -15 -3
-26 -23 -41 -15 -11 -33 -20 -39 -20 -14 0 -91 -69 -91 -82 0 -5 5 -6 10 -3 6
3 10 1 10 -4 0 -6 -6 -11 -13 -11 -7 0 -17 -21 -24 -47 -11 -47 -9 -73 3 -37
12 38 25 66 29 63 6 -6 -54 -221 -72 -254 -14 -28 -47 -142 -60 -209 -4 -21
-2 -27 8 -24 8 3 17 22 20 44 13 77 68 245 69 209 0 -5 -13 -75 -30 -155 -33
-159 -37 -214 -17 -207 7 2 11 18 9 38 -1 18 5 65 13 104 9 38 21 93 25 120 5
28 21 113 36 190 15 77 27 155 27 172 0 29 6 36 44 54 23 11 45 25 49 30 3 5
11 9 17 9 7 0 -3 -14 -20 -31 -25 -22 -33 -38 -32 -62 l1 -32 11 35 11 35 6
-35 c4 -19 8 -26 9 -15 1 15 4 17 10 7 4 -7 4 -30 0 -50 -37 -166 -51 -264
-41 -274 7 -7 6 -22 -4 -50 -8 -22 -14 -50 -14 -62 0 -12 -23 -62 -51 -110
-30 -53 -49 -97 -46 -108 5 -19 -25 -91 -49 -119 -33 -37 -44 -379 -18 -553 8
-55 14 -145 14 -201 0 -55 4 -105 9 -111 6 -5 12 -56 14 -114 3 -58 9 -134 15
-170 5 -38 5 -72 0 -82 -5 -12 -5 -18 2 -18 5 0 10 -4 10 -10 0 -5 -7 -10 -15
-10 -23 0 -36 -44 -23 -80 8 -23 7 -35 -1 -43 -6 -6 -11 -19 -11 -28 0 -10 -7
-16 -17 -15 -22 1 -27 65 -42 521 -5 171 -13 321 -16 335 -8 27 -7 145 1 171
2 9 -2 22 -11 29 -11 9 -15 33 -15 93 0 59 -4 85 -16 98 -9 11 -14 30 -12 51
4 34 10 27 24 -27 5 -21 8 -25 11 -12 3 9 11 17 20 17 12 0 14 7 8 28 -11 47
-41 97 -63 107 -12 5 -22 13 -22 17 0 5 -18 26 -40 48 -22 22 -40 49 -40 60 0
11 -4 20 -9 20 -4 0 -6 11 -3 25 2 15 0 25 -7 25 -6 0 -11 6 -11 13 0 6 -14
38 -30 71 -29 58 -30 59 -14 107 20 60 14 86 -10 42 -9 -18 -21 -33 -26 -33
-6 0 -3 12 6 28 45 73 92 141 125 182 20 25 48 63 62 85 15 22 33 40 40 40 6
0 16 10 22 23 5 12 18 22 27 22 10 0 18 5 18 10 0 15 81 100 95 100 7 0 15 9
18 21 4 16 11 19 26 14 16 -5 20 -3 15 9 -4 10 20 32 81 73 66 43 93 69 110
100 12 24 27 48 32 55 6 7 16 30 22 50 11 34 10 40 -13 71 -14 19 -26 41 -26
51 0 9 -16 32 -35 50 -19 19 -35 39 -35 45 0 16 -48 108 -60 116 -16 10 -12
-32 6 -68 9 -18 36 -61 59 -97 33 -48 47 -82 56 -132 12 -67 12 -68 -17 -114
-16 -26 -40 -54 -53 -63 -24 -16 -24 -15 -17 9 17 57 24 99 29 168 3 55 1 72
-9 72 -7 0 -11 -8 -9 -19 2 -11 -3 -22 -11 -25 -16 -6 -19 -36 -3 -36 5 0 7 5
3 12 -4 7 -3 8 5 4 6 -4 10 -15 7 -24 -3 -10 -7 -35 -10 -57 -11 -84 -30 -139
-54 -151 -12 -6 -34 -22 -47 -34 -29 -27 -30 -21 -10 38 8 23 12 54 9 68 -5
20 -3 23 12 18 11 -4 16 -4 12 0 -3 4 -2 20 2 36 11 38 -1 47 -16 13 -11 -25
-12 -20 -12 52 0 65 1 75 10 53 16 -46 29 -32 26 28 -3 56 -18 89 -18 40 0
-14 -4 -26 -10 -26 -11 0 -1 133 10 138 12 5 -2 52 -15 52 -13 0 -25 -83 -25
-171 0 -27 -5 -49 -10 -49 -6 0 -15 -10 -20 -22 -13 -34 -12 1 2 39 14 38 6
52 -17 29 -10 -10 -14 -24 -10 -36 4 -11 2 -20 -4 -20 -6 0 -11 -11 -11 -24 0
-13 -3 -38 -6 -55 l-7 -32 -19 21 c-23 24 -118 30 -118 7 0 -8 -9 -24 -20 -36
-24 -29 -28 -64 -34 -278 l-4 -172 -31 -40 c-17 -21 -31 -44 -31 -49 0 -6 -11
-23 -24 -39 -13 -15 -38 -53 -55 -83 l-33 -55 6 46 c3 26 12 66 21 90 19 55
17 301 -3 321 -27 27 -6 144 35 190 9 10 12 26 9 40 -3 13 -3 17 0 10 8 -18
33 15 34 44 0 11 10 29 22 40 22 19 22 19 8 0 -10 -13 -11 -17 -2 -12 7 4 24
25 38 47 13 21 28 39 33 39 5 0 25 16 46 35 21 19 41 33 44 32 13 -3 85 79 83
94 -2 9 4 22 13 29 10 8 15 9 15 1 0 -16 96 80 104 104 6 20 6 20 -9 1 -8 -11
-17 -17 -20 -14 -5 4 39 58 48 58 1 0 1 -16 -1 -35z m-712 -70 c0 -14 -4 -25
-10 -25 -5 0 -10 11 -10 25 0 14 5 25 10 25 6 0 10 -11 10 -25z m484 -39 c-10
-8 -21 -12 -24 -10 -5 6 21 24 34 24 6 0 1 -6 -10 -14z m-100 -56 c34 13 39
13 31 0 -4 -6 -24 -19 -46 -30 l-39 -20 0 23 c0 28 11 42 20 27 5 -8 15 -8 34
0z m-724 -125 c0 -5 -5 -3 -10 5 -5 8 -10 20 -10 25 0 6 5 3 10 -5 5 -8 10
-19 10 -25z m1760 -37 c0 -18 -7 -45 -14 -60 -17 -33 -86 -236 -146 -428 -43
-140 -56 -181 -70 -215 -18 -44 -34 -99 -76 -252 -17 -66 -24 -90 -53 -188
-11 -38 -32 -113 -46 -165 -14 -52 -41 -144 -60 -205 -19 -60 -46 -159 -59
-220 -14 -60 -33 -148 -44 -195 -11 -47 -23 -114 -27 -150 -4 -36 -13 -72 -20
-80 -8 -8 -18 -27 -24 -43 -13 -33 -36 -37 -28 -4 3 12 13 60 22 107 79 414
127 623 205 885 21 72 48 168 60 215 12 47 32 117 45 155 13 39 44 138 70 220
26 83 51 155 55 160 4 6 11 26 15 45 13 62 69 204 134 341 23 48 41 91 41 98
0 6 5 11 10 11 6 0 10 -15 10 -32z m-530 -23 c0 -8 -2 -15 -4 -15 -2 0 -6 7
-10 15 -3 8 -1 15 4 15 6 0 10 -7 10 -15z m-270 -23 c0 -5 -7 -9 -15 -9 -8 0
-15 4 -15 9 0 4 7 8 15 8 8 0 15 -4 15 -8z m-137 -114 c-2 -35 -11 -99 -19
-144 -17 -99 -17 -94 1 -94 8 0 15 -9 15 -20 0 -11 -4 -20 -9 -20 -4 0 -25
-21 -45 -47 l-36 -47 6 35 c4 19 15 40 25 48 25 18 24 38 -1 46 -18 6 -20 15
-20 113 0 87 4 113 21 149 16 32 27 43 44 43 22 0 23 -2 18 -62z m-383 -2 c0
-3 -4 -8 -10 -11 -5 -3 -10 -1 -10 4 0 6 5 11 10 11 6 0 10 -2 10 -4z m-610
-79 c0 -1 -22 -2 -50 -2 -50 0 -56 10 -10 17 21 3 60 -7 60 -15z m1030 -37 c0
-27 -3 -50 -7 -50 -5 0 -6 22 -5 50 5 65 12 65 12 0z m-960 -35 c10 -12 10
-15 -3 -15 -8 0 -20 7 -27 15 -10 12 -10 15 3 15 8 0 20 -7 27 -15z m330 -15
c0 -5 -2 -10 -4 -10 -3 0 -8 5 -11 10 -3 6 -1 10 4 10 6 0 11 -4 11 -10z m693
-15 c-7 -21 -13 -19 -13 6 0 11 4 18 10 14 5 -3 7 -12 3 -20z m-957 -84 c17
-51 17 -50 58 -112 16 -24 29 -50 29 -56 0 -7 8 -13 17 -13 10 0 24 -8 31 -17
12 -15 12 -16 -1 -8 -35 20 129 -140 170 -167 61 -39 150 -118 150 -133 0 -7
14 -43 31 -80 17 -37 31 -77 33 -89 1 -11 8 -41 15 -66 17 -59 21 -104 10
-121 -6 -10 -9 -2 -9 22 0 22 -6 39 -14 42 -11 4 -12 -2 -6 -29 5 -19 4 -32
-1 -28 -12 7 -11 -8 1 -41 7 -18 15 -25 25 -21 20 7 20 -23 0 -60 -8 -16 -15
-49 -16 -74 0 -33 -3 -40 -9 -25 -6 16 -9 12 -12 -20 -4 -39 -4 -39 -15 -15
-11 24 -12 24 -12 3 -1 -12 3 -24 7 -27 5 -3 7 -19 4 -36 -2 -18 0 -30 7 -30
6 0 11 7 11 15 0 9 9 33 20 55 11 22 20 50 20 62 0 32 36 123 43 111 4 -6 -2
-41 -13 -79 -24 -82 -24 -84 -6 -84 10 0 16 13 19 38 3 25 4 19 4 -19 0 -31 3
-61 7 -67 5 -8 2 -10 -8 -6 -9 4 -18 -1 -22 -10 -8 -22 35 -213 58 -254 24
-44 38 -108 26 -120 -6 -6 0 -34 17 -75 24 -62 25 -68 10 -96 -17 -34 -20 -65
-5 -56 7 4 8 -3 4 -22 -4 -15 -11 -29 -16 -31 -4 -2 -8 -14 -8 -27 0 -13 -5
-27 -11 -31 -6 -3 -8 -17 -5 -30 5 -17 2 -26 -9 -30 -8 -4 -15 -15 -15 -25 0
-13 -7 -19 -22 -19 -22 -1 -22 -1 -5 -15 24 -17 34 -64 36 -160 1 -42 5 -84
10 -93 13 -24 34 -159 26 -171 -3 -6 4 -20 15 -31 13 -13 18 -28 15 -43 -8
-29 -8 -33 1 -229 4 -93 10 -168 14 -168 12 0 29 -139 29 -240 0 -52 7 -147
15 -210 33 -254 37 -303 25 -310 -8 -6 -7 -38 6 -126 10 -66 19 -144 20 -176
2 -31 8 -71 14 -90 6 -18 13 -73 16 -123 3 -49 10 -112 15 -140 20 -111 41
-359 53 -635 1 -14 4 -27 7 -30 8 -7 89 -511 96 -600 4 -41 13 -85 20 -97 8
-12 14 -34 14 -48 l0 -25 -96 0 -95 0 1 103 c2 139 2 134 -19 154 -18 18 -36
87 -19 77 4 -3 8 -18 8 -35 0 -16 5 -29 11 -29 7 0 9 9 5 23 -8 33 -33 260
-46 417 -6 74 -15 176 -20 225 -5 50 -10 95 -11 100 0 6 -4 1 -9 -10 l-9 -20
0 20 c0 11 3 27 9 35 5 8 5 19 1 25 -5 5 -8 17 -9 25 0 8 -3 76 -6 150 -19
399 -47 656 -72 676 -16 13 -20 39 -4 29 17 -11 16 67 -5 430 -8 132 -15 282
-16 333 -1 51 -6 111 -10 135 -5 23 -18 114 -29 202 -25 208 -26 210 -50 350
-12 66 -25 145 -30 175 -6 30 -10 74 -10 98 0 50 -14 82 -35 82 -8 0 -15 5
-15 11 0 7 7 8 18 4 21 -8 21 -8 52 -5 23 1 23 3 -10 17 -37 16 -210 186 -210
207 0 7 -4 16 -8 22 -11 12 -45 101 -77 201 -15 46 -31 81 -35 78 -11 -7 -23
32 -14 46 3 6 2 14 -3 18 -13 9 -51 114 -46 129 7 18 24 15 21 -4 -2 -12 13
-21 57 -35 33 -10 61 -19 63 -19 1 0 2 7 2 15 0 8 -9 15 -19 15 -20 0 -123 72
-155 108 -11 12 -23 22 -28 22 -15 0 -8 -22 14 -39 12 -10 23 -29 24 -42 3
-22 1 -21 -30 14 -18 20 -38 37 -45 37 -6 0 -11 9 -11 20 0 11 -7 23 -15 26
-8 4 -15 13 -15 20 0 26 -41 96 -81 137 -22 24 -39 51 -39 64 0 14 -6 23 -16
23 -13 0 -15 16 -10 127 4 85 10 129 18 135 7 4 9 8 3 8 -5 0 -4 4 3 9 7 4 19
48 27 97 16 106 25 145 37 160 10 13 31 224 23 232 -2 3 -1 10 5 17 6 7 6 25
-1 49 -6 20 -9 42 -6 49 2 6 9 -18 16 -53 6 -36 16 -86 22 -113 10 -42 8 -86
-7 -182 -3 -16 -12 -40 -20 -52 -17 -27 -50 -165 -60 -248 -11 -110 57 -385
96 -385 9 0 22 -6 29 -12 10 -11 11 -10 6 5 -4 9 -11 17 -16 17 -5 0 -9 9 -9
21 0 11 -4 18 -9 15 -10 -6 -21 26 -21 62 0 12 -5 30 -10 40 -19 32 -36 123
-36 185 1 53 3 62 19 59 21 -4 23 16 2 24 -20 8 -19 39 5 118 23 73 37 78 62
18 22 -53 41 -128 36 -144 -3 -7 -11 14 -18 47 -14 64 -40 108 -40 68 0 -11
14 -60 31 -108 17 -47 29 -95 26 -106 -3 -10 -1 -16 4 -13 7 4 6 -26 -1 -46
-2 -3 -1 -9 0 -15 1 -5 2 -27 1 -48 0 -21 3 -36 8 -33 16 11 31 -21 33 -72 1
-32 7 -53 16 -57 19 -7 26 20 13 56 -6 18 -11 44 -10 58 1 23 2 22 11 -9 5
-19 13 -39 18 -45 4 -5 11 -30 15 -55 4 -25 11 -53 16 -62 10 -20 2 -48 -15
-48 -27 1 -60 28 -72 60 -9 26 -13 29 -13 13 -1 -12 -3 -28 -6 -36 -6 -13 48
-46 98 -61 9 -3 18 -16 18 -28 1 -16 3 -18 6 -6 4 15 7 15 36 -2 18 -11 56
-50 84 -87 29 -37 64 -80 78 -96 14 -15 28 -40 30 -55 2 -15 7 -38 10 -52 6
-24 6 -24 -10 3 -11 20 -22 26 -34 22 -17 -5 -31 21 -57 103 -5 18 -24 15 -24
-4 0 -11 -6 -15 -20 -11 -16 4 -18 2 -10 -12 5 -10 16 -24 25 -31 13 -11 14
-10 9 5 -17 42 14 2 45 -59 18 -37 40 -66 48 -66 9 0 12 -6 9 -18 -4 -10 1
-27 9 -38 8 -10 15 -27 15 -36 0 -23 34 -40 65 -32 20 5 24 11 19 28 -5 18 -2
17 21 -7 22 -23 30 -26 37 -15 7 9 8 8 4 -6 -4 -11 0 -23 10 -31 11 -7 18 -31
20 -66 2 -30 6 -60 9 -67 3 -7 0 -22 -5 -33 -7 -12 -7 -19 -1 -19 5 0 13 9 16
20 3 11 11 20 16 20 5 0 9 25 9 55 0 55 -27 127 -56 150 -7 5 -31 35 -53 65
-22 30 -47 63 -56 72 -10 10 -14 22 -9 29 4 8 9 50 11 95 2 63 0 84 -12 94 -8
7 -12 17 -8 24 9 13 13 36 7 36 -8 0 -34 -73 -28 -81 3 -5 0 -9 -5 -9 -6 0
-11 9 -11 21 0 11 -5 29 -10 40 -7 13 -7 19 0 19 5 0 10 9 10 19 0 11 5 21 11
23 14 5 -38 268 -56 283 -21 17 -28 55 -11 55 8 0 18 5 22 11 4 7 0 9 -14 5
-12 -4 -23 -2 -28 5 -4 8 -3 9 4 5 7 -4 12 -2 12 3 0 6 -9 11 -20 11 -11 0
-20 -6 -20 -13 0 -22 31 -121 43 -135 6 -7 12 -39 13 -70 2 -31 6 -77 9 -102
l6 -45 -20 40 c-12 22 -18 30 -15 18 8 -34 -6 -111 -22 -117 -8 -3 -23 3 -34
14 -11 11 -26 17 -33 14 -29 -11 -49 32 -54 118 -4 54 -11 86 -19 91 -10 5
-12 20 -9 45 2 20 7 79 9 131 3 51 7 95 9 97 12 13 67 -98 67 -136 0 -8 7 -28
16 -45 12 -23 16 -64 17 -169 2 -99 6 -140 14 -143 21 -7 26 43 14 150 -15
136 -31 219 -43 234 -13 16 -3 44 14 41 16 -4 21 32 8 52 -9 13 -12 13 -24 -3
-14 -18 -15 -16 -25 20 -6 21 -11 47 -12 58 0 11 -8 45 -18 75 -17 52 -18 53
-19 20 0 -52 -13 -93 -33 -107 -17 -13 -30 -83 -29 -170 0 -23 -4 -45 -10 -48
-6 -4 -7 -11 -4 -17 4 -7 2 -8 -4 -4 -6 4 -15 21 -21 39 -5 18 -12 41 -17 52
-7 17 -6 18 8 7 11 -9 18 -9 23 -3 7 12 -21 112 -34 120 -4 3 -11 17 -15 31
-6 19 -5 21 3 10 10 -13 11 -13 12 0 0 9 4 7 11 -7 14 -28 38 -30 38 -3 0 12
7 20 16 20 13 0 16 7 11 38 -2 20 -12 53 -21 72 -17 36 -17 29 -1 -47 4 -21 3
-33 -4 -33 -6 0 -11 9 -11 19 0 11 -6 26 -13 33 -7 7 -25 42 -40 78 -19 47
-26 58 -27 39 0 -24 34 -115 60 -161 6 -10 10 -24 10 -33 0 -12 -3 -12 -20 2
-11 10 -20 23 -20 29 0 7 -7 14 -14 17 -8 3 -22 28 -30 54 -8 26 -22 66 -30
88 -8 22 -15 56 -15 75 0 38 -1 40 29 -35 5 -12 6 3 3 35 -3 30 -9 62 -13 70
-4 8 -4 26 1 40 7 26 13 12 10 -26 -1 -12 5 -28 13 -36 8 -9 22 -40 32 -69 18
-56 37 -89 27 -48 -9 42 -35 124 -43 134 -4 6 -8 41 -9 78 -2 52 -7 73 -21 87
-11 11 -22 32 -26 47 -5 27 -33 115 -48 158 -7 20 -7 20 8 1 9 -11 23 -40 32
-65z m464 22 c28 -93 39 -165 40 -255 0 -54 3 -98 8 -98 4 0 5 -23 3 -52 l-3
-52 -19 34 c-21 40 -24 67 -8 72 8 3 10 16 5 41 -4 21 -11 35 -17 32 -5 -4 -9
-2 -9 4 0 5 4 11 10 13 6 2 4 13 -4 29 -7 14 -16 42 -20 61 -4 24 -13 38 -26
41 -13 3 -20 14 -20 30 0 13 -7 41 -15 60 -21 51 -19 57 20 57 19 0 35 5 35
10 0 21 10 8 20 -27z m-190 -63 c0 -5 -2 -10 -4 -10 -3 0 -8 5 -11 10 -3 6 -1
10 4 10 6 0 11 -4 11 -10z m-190 -20 c0 -5 4 -10 10 -10 9 0 147 -136 236
-231 17 -19 40 -41 50 -50 29 -25 124 -149 124 -162 0 -7 -8 0 -18 14 -36 55
-127 148 -133 137 -9 -14 -29 -1 -29 20 0 9 -13 23 -29 30 -48 21 -85 54 -71
62 8 5 0 14 -23 25 -20 9 -39 27 -43 38 -3 12 -16 31 -29 42 -29 26 -70 95
-56 95 6 0 11 -4 11 -10z m349 -205 l0 -20 -8 20 c-4 11 -11 34 -14 50 l-6 30
14 -30 c8 -16 14 -39 14 -50z m528 3 c-3 -8 -6 -5 -6 6 -1 11 2 17 5 13 3 -3
4 -12 1 -19z m-517 -48 c0 -5 -2 -10 -4 -10 -3 0 -8 5 -11 10 -3 6 -1 10 4 10
6 0 11 -4 11 -10z m107 -37 c-3 -10 -5 -4 -5 12 0 17 2 24 5 18 2 -7 2 -21 0
-30z m-680 -35 c-3 -7 -5 -2 -5 12 0 14 2 19 5 13 2 -7 2 -19 0 -25z m-10 -40
c-3 -8 -6 -5 -6 6 -1 11 2 17 5 13 3 -3 4 -12 1 -19z m677 -34 c3 -8 21 -39
40 -67 36 -55 58 -116 37 -103 -6 4 -11 18 -11 31 0 13 -4 26 -9 29 -10 7 -81
111 -81 120 0 13 18 5 24 -10z m546 -79 c0 -8 -4 -15 -10 -15 -5 0 -10 7 -10
15 0 8 5 15 10 15 6 0 10 -7 10 -15z m-1313 -27 c-3 -7 -5 -2 -5 12 0 14 2 19
5 13 2 -7 2 -19 0 -25z m825 -100 c26 -70 33 -104 30 -140 -2 -20 -42 -13 -42
8 0 8 -9 39 -19 69 -16 45 -17 55 -5 55 20 0 17 29 -6 68 -18 29 -18 32 -3 23
10 -5 30 -42 45 -83z m-57 43 c8 -17 11 -32 7 -35 -4 -2 -12 11 -18 30 -13 42
-9 44 11 5z m514 -25 c-9 -8 -10 -7 -5 7 3 10 7 24 7 30 1 7 3 4 6 -7 3 -10
-1 -23 -8 -30z m-390 -13 c0 -5 -4 -17 -9 -28 -8 -18 -9 -17 -9 8 -1 15 4 27
9 27 6 0 10 -3 9 -7z m358 -75 c-3 -8 -6 -5 -6 6 -1 11 2 17 5 13 3 -3 4 -12
1 -19z m-918 -53 c0 -5 -4 -3 -9 5 -5 8 -9 22 -9 30 0 16 17 -16 18 -35z m581
-34 c0 -5 3 -17 7 -27 4 -11 3 -15 -5 -10 -6 3 -16 -2 -22 -11 -10 -16 -11
-15 -6 7 3 14 6 31 6 38 0 6 5 12 10 12 6 0 10 -4 10 -9z m-83 -83 c-3 -8 -6
-5 -6 6 -1 11 2 17 5 13 3 -3 4 -12 1 -19z m77 -248 c9 -47 20 -110 26 -140 6
-30 13 -71 16 -90 11 -86 27 -155 36 -161 5 -3 14 -42 19 -85 5 -43 14 -92 19
-108 6 -16 10 -39 10 -52 0 -12 5 -24 10 -26 6 -2 11 -88 11 -233 1 -157 5
-232 12 -237 17 -11 1 -21 -22 -13 -24 7 -36 58 -27 109 4 22 -3 75 -19 147
-14 61 -25 129 -25 149 0 21 -3 52 -6 69 -5 25 -10 30 -26 25 -16 -5 -18 -2
-12 23 4 15 11 38 15 51 10 26 -13 147 -36 192 -11 20 -12 30 -4 30 7 0 9 9 6
23 -22 88 -47 229 -47 263 0 22 -4 44 -8 50 -10 10 1 183 14 236 7 28 9 19 15
-52 4 -47 15 -123 23 -170z m-1250 134 c8 -17 27 -46 44 -65 16 -19 80 -133
142 -254 100 -195 153 -294 185 -346 6 -9 34 -61 63 -115 29 -54 80 -142 112
-194 33 -52 65 -111 71 -130 7 -19 27 -67 45 -106 33 -72 43 -97 90 -233 25
-73 116 -281 218 -496 29 -60 68 -145 86 -187 19 -43 39 -78 45 -78 6 0 19
-28 30 -61 12 -43 24 -63 37 -67 12 -3 17 -10 13 -20 -3 -8 -1 -50 6 -92 17
-116 9 -139 -20 -60 -13 36 -36 89 -52 117 -15 29 -31 67 -34 85 -4 18 -15 44
-25 58 -10 14 -21 36 -25 49 -4 13 -20 46 -36 72 -33 57 -239 477 -239 489 0
5 -14 39 -31 77 -17 37 -42 97 -56 133 -142 371 -188 465 -371 778 -37 62 -79
134 -93 160 -70 129 -93 169 -109 192 -18 27 -59 111 -113 235 -43 99 -50 122
-41 136 7 12 36 -26 58 -77z m493 -6 c20 -22 47 -97 38 -106 -2 -2 -14 16 -26
40 -12 23 -29 53 -37 66 -8 12 -10 22 -5 22 5 0 19 -10 30 -22z m1000 -250
c-3 -7 -5 -2 -5 12 0 14 2 19 5 13 2 -7 2 -19 0 -25z m-535 -11 c24 -51 7 -67
-26 -25 -31 41 -33 58 -8 58 11 0 25 -14 34 -33z m565 -224 c-3 -10 -5 -4 -5
12 0 17 2 24 5 18 2 -7 2 -21 0 -30z m-471 -71 c19 -46 13 -50 -11 -7 -10 19
-22 35 -27 35 -4 0 -8 4 -8 10 0 21 32 -5 46 -38z m924 8 c0 -5 -7 -10 -15
-10 -8 0 -15 5 -15 10 0 6 7 10 15 10 8 0 15 -4 15 -10z m152 -54 c40 -14 87
-31 104 -38 37 -16 82 -66 93 -105 13 -47 12 -132 -3 -168 -8 -19 -12 -42 -9
-53 2 -11 0 -76 -6 -145 -9 -104 -8 -133 4 -173 19 -64 19 -123 -2 -170 l-16
-39 -15 50 c-19 68 -25 78 -53 91 -35 17 -176 -10 -199 -37 -17 -20 -154 -78
-174 -73 -12 3 -34 0 -50 -6 -46 -17 -51 1 -7 23 23 11 41 24 41 29 0 4 -2 8
-4 8 -12 0 -142 -53 -159 -65 -19 -13 -23 -12 -44 7 -25 24 -30 40 -10 37 33
-6 143 39 362 149 64 32 75 41 75 60 0 9 12 29 27 44 20 21 27 38 26 64 -1 36
-26 74 -49 74 -8 0 -12 14 -11 43 3 69 -17 59 -24 -13 -5 -60 -6 -62 -9 -20
-2 25 -3 68 -2 95 1 48 1 49 -11 22 -18 -38 -27 -24 -27 45 0 68 -18 148 -33
148 -6 0 -7 -15 -4 -37 3 -21 10 -74 16 -118 7 -44 14 -91 17 -103 3 -15 1
-21 -6 -17 -5 3 -13 -1 -16 -9 -3 -9 -9 -16 -13 -16 -9 0 -31 99 -31 143 0 20
-4 37 -10 37 -5 0 -10 -4 -10 -10 0 -5 -4 -10 -9 -10 -5 0 -7 35 -4 80 4 58 3
80 -6 80 -18 0 -24 -27 -25 -113 -1 -57 -5 -82 -14 -85 -10 -3 -13 4 -11 24 1
16 1 40 1 54 -2 23 -3 24 -19 6 -14 -14 -15 -20 -5 -23 10 -4 10 -7 -1 -17 -8
-6 -18 -22 -22 -35 -6 -20 -4 -23 9 -18 14 6 16 3 11 -13 -4 -11 -2 -20 4 -20
6 0 11 -17 12 -37 l1 -38 14 45 14 45 -4 -44 c-3 -26 -11 -48 -20 -53 -12 -7
-14 -23 -10 -77 5 -73 -4 -92 -30 -65 -21 20 -21 55 -1 48 10 -4 15 0 15 15 0
12 -5 21 -11 21 -5 0 -7 5 -4 10 4 6 9 34 12 63 4 46 3 50 -9 37 -21 -21 -41
-150 -33 -210 7 -51 0 -94 -15 -85 -5 3 -9 13 -9 23 0 9 -4 35 -9 57 l-8 40
-8 -45 c-17 -95 -17 -110 -1 -110 16 0 19 -28 9 -67 -7 -27 -39 -39 -59 -23
-8 6 -19 9 -24 5 -6 -3 -20 -1 -31 5 -15 8 -20 8 -20 -1 0 -7 -8 -5 -20 6 -10
9 -19 20 -18 24 1 3 -3 22 -9 42 -11 38 -7 89 7 89 5 0 11 -34 15 -75 9 -97
20 -88 16 13 -3 101 15 247 36 280 10 15 33 44 54 65 20 21 50 66 67 100 40
79 115 173 168 210 74 52 141 58 246 23z m-585 -98 c-3 -8 -6 -5 -6 6 -1 11 2
17 5 13 3 -3 4 -12 1 -19z m10 -110 c-2 -13 -4 -5 -4 17 -1 22 1 32 4 23 2
-10 2 -28 0 -40z m-617 -39 c0 -6 -4 -7 -10 -4 -5 3 -10 11 -10 16 0 6 5 7 10
4 6 -3 10 -11 10 -16z m-487 -144 l6 -30 -13 30 c-8 17 -16 41 -20 55 l-7 25
14 -25 c8 -14 17 -38 20 -55z m1894 3 c-2 -13 -4 -5 -4 17 -1 22 1 32 4 23 2
-10 2 -28 0 -40z m-437 -77 c10 -31 20 -77 24 -103 3 -27 8 -59 12 -72 5 -21
0 -27 -28 -41 -18 -10 -43 -26 -55 -37 -20 -19 -21 -19 -27 -1 -11 35 -9 252
2 266 6 7 14 33 18 56 l7 44 14 -28 c8 -15 23 -53 33 -84z m-364 -23 c-3 -13
-6 -29 -6 -35 0 -7 -4 -13 -10 -13 -11 0 -13 30 -4 54 9 25 27 19 20 -6z m441
-15 c-3 -10 -5 -4 -5 12 0 17 2 24 5 18 2 -7 2 -21 0 -30z m103 -20 c0 -7 -4
-13 -10 -13 -5 0 -10 12 -10 28 0 21 2 24 10 12 5 -8 10 -21 10 -27z m-1031
-13 c0 -10 -3 -8 -9 5 -12 27 -12 43 0 25 5 -8 9 -22 9 -30z m201 -69 c0 -3
-7 4 -15 15 -8 10 -14 33 -14 49 0 27 2 25 15 -15 7 -25 14 -47 14 -49z m-913
47 c-3 -7 -5 -2 -5 12 0 14 2 19 5 13 2 -7 2 -19 0 -25z m-230 -100 c-3 -7 -5
-2 -5 12 0 14 2 19 5 13 2 -7 2 -19 0 -25z m1893 22 c0 -5 -4 -10 -10 -10 -5
0 -10 5 -10 10 0 6 5 10 10 10 6 0 10 -4 10 -10z m-673 -32 c-3 -7 -5 -2 -5
12 0 14 2 19 5 13 2 -7 2 -19 0 -25z m48 -52 c8 4 15 1 15 -5 0 -6 -4 -11 -9
-11 -7 0 -41 -70 -41 -85 0 -3 6 -5 14 -5 8 0 17 12 21 28 6 24 36 62 50 62 3
0 5 -7 5 -16 0 -11 6 -14 21 -9 32 10 85 -20 100 -57 7 -18 23 -47 36 -64 13
-17 23 -36 23 -41 0 -13 -25 -24 -42 -18 -7 2 -39 6 -70 8 -58 4 -108 27 -108
50 0 7 -9 18 -19 24 -15 10 -20 9 -24 -2 -7 -15 -22 -14 -55 3 -18 11 -22 20
-19 56 1 24 10 50 20 60 9 10 22 27 28 38 l11 20 14 -21 c8 -11 21 -18 29 -15z
m-286 -16 c0 -10 -3 -8 -9 5 -12 27 -12 43 0 25 5 -8 9 -22 9 -30z m-479 -25
c0 -5 -5 -3 -10 5 -5 8 -10 20 -10 25 0 6 5 3 10 -5 5 -8 10 -19 10 -25z
m1175 15 c-3 -5 -12 -10 -18 -10 -7 0 -6 4 3 10 19 12 23 12 15 0z m336 -47
c-28 -19 -28 -47 0 -40 13 4 18 1 15 -6 -3 -7 -9 -20 -12 -29 -4 -10 -10 -18
-15 -18 -10 0 -61 -111 -57 -125 1 -5 8 -9 14 -7 14 3 2 -64 -15 -81 -6 -6
-11 -25 -11 -42 -1 -16 -7 -41 -15 -55 -8 -14 -14 -52 -15 -88 0 -35 -4 -82
-10 -105 -5 -23 -14 -75 -21 -116 -11 -73 -12 -74 -24 -45 -13 29 -13 29 -14
4 -1 -14 -4 -42 -7 -62 -5 -25 -3 -38 5 -38 6 0 11 10 11 22 0 15 3 19 10 12
13 -13 -5 -70 -34 -104 -21 -25 -56 -83 -56 -94 0 -3 7 -3 16 1 13 5 13 0 -3
-33 -16 -34 -18 -74 -20 -338 -2 -242 -5 -311 -19 -365 -13 -53 -17 -122 -19
-351 -1 -157 -7 -395 -13 -530 -7 -135 -14 -303 -16 -375 -3 -71 -12 -161 -20
-200 -9 -38 -16 -82 -16 -97 0 -27 -2 -28 -51 -28 -45 0 -50 2 -43 18 4 9 8
46 10 82 1 36 7 78 13 94 7 17 9 54 5 94 -6 54 -4 67 10 77 13 10 14 18 7 38
-10 25 -5 205 6 242 3 11 7 36 9 55 1 19 5 62 8 95 8 94 24 309 31 435 4 63 8
117 10 120 7 11 10 555 3 565 -4 6 -3 60 1 119 9 126 -2 190 -31 180 -22 -7
-24 18 -3 36 22 18 18 30 -8 30 -24 0 -83 25 -91 38 -2 4 -7 25 -10 47 -3 22
-3 32 0 23 3 -10 9 -18 13 -18 20 0 17 15 -11 56 -17 25 -27 48 -24 51 3 4 6
1 6 -5 0 -7 7 -12 16 -12 13 0 13 5 -4 38 -27 52 -39 80 -57 132 -19 58 -20
80 -1 55 13 -18 13 -15 6 25 -4 24 -13 46 -19 48 -6 2 -11 8 -11 14 0 6 -7 16
-15 22 -7 6 -16 29 -19 51 -13 112 -20 143 -39 176 -27 51 -17 70 13 25 14
-20 30 -36 37 -36 6 0 20 -15 32 -32 11 -18 21 -27 21 -20 0 18 -58 102 -71
102 -5 0 -12 8 -16 18 -3 9 -15 30 -26 45 -23 33 -19 40 16 32 15 -4 24 -12
21 -20 -3 -7 6 -25 19 -41 l25 -29 -5 28 c-4 21 -2 26 10 22 15 -6 47 -74 52
-112 5 -34 -4 -28 -22 15 -9 20 -18 31 -20 25 -3 -7 5 -26 16 -42 17 -24 27
-29 48 -25 36 7 36 6 22 52 -8 27 -20 44 -38 52 -23 11 -24 13 -8 22 13 7 22
6 33 -2 11 -10 14 -9 14 6 0 11 3 15 8 8 10 -15 42 -25 42 -14 0 6 11 10 24
10 14 0 28 5 31 10 13 21 25 9 14 -12 -11 -21 -11 -22 4 -10 9 8 20 11 25 8
12 -7 62 42 73 72 9 24 29 30 30 10 0 -7 2 -38 3 -68 1 -30 3 -61 4 -67 3 -23
20 -13 25 15 4 15 10 47 15 72 14 66 17 72 75 110 37 25 53 43 55 62 2 15 12
30 25 35 30 14 43 4 18 -14z m112 -23 c3 -11 1 -18 -4 -14 -5 3 -9 12 -9 20 0
20 7 17 13 -6z m-533 -89 c-12 -24 -29 -35 -38 -26 -4 4 4 15 17 26 29 24 34
24 21 0z m66 -22 c-14 -11 -32 -19 -39 -16 -6 2 1 11 18 20 42 23 53 21 21 -4z
m-410 -1 c5 -7 3 -8 -6 -3 -9 5 -10 1 -6 -16 6 -20 5 -21 -4 -6 -6 9 -8 22 -5
27 8 13 12 13 21 -2z m41 -21 c-6 -20 -27 -19 -27 2 0 14 5 19 15 14 9 -3 14
-10 12 -16z m727 -37 l-14 -45 6 40 c6 40 13 59 20 53 2 -2 -3 -24 -12 -48z
m167 -11 l-9 -34 -1 31 c-1 17 2 34 6 37 12 13 14 -1 4 -34z m-721 16 c7 -9 8
-15 2 -15 -5 0 -12 7 -16 15 -3 8 -4 15 -2 15 2 0 9 -7 16 -15z m360 -5 c0 -5
-5 -10 -11 -10 -5 0 -7 5 -4 10 3 6 8 10 11 10 2 0 4 -4 4 -10z m-530 -115
c17 -55 29 -65 28 -24 -1 19 -6 38 -12 42 -7 6 -6 7 4 4 24 -6 51 -63 56 -117
2 -28 13 -73 25 -100 22 -52 29 -111 16 -147 -6 -18 -5 -23 7 -23 10 0 16 -9
16 -23 0 -12 9 -38 19 -58 24 -45 18 -89 -12 -81 -21 5 -19 -3 7 -37 13 -17
36 -81 36 -103 0 -9 9 -32 20 -50 14 -25 21 -59 25 -138 7 -133 15 -271 21
-335 14 -170 27 -415 30 -575 3 -145 7 -187 18 -196 19 -14 19 -103 -1 -222
-8 -52 -12 -104 -9 -117 3 -12 -1 -77 -8 -144 -13 -105 -13 -125 0 -149 18
-34 18 -46 0 -39 -11 5 -16 -6 -20 -46 -18 -179 -22 -203 -28 -167 -23 131
-26 195 -12 218 9 14 12 31 8 45 -8 23 -9 37 -18 257 -11 281 -28 535 -37 544
-5 6 -9 102 -9 215 0 243 -20 642 -32 635 -4 -3 -8 5 -8 18 -1 104 -12 330
-20 403 -5 50 -12 121 -16 159 -4 44 -10 63 -15 55 -6 -10 -9 -6 -9 13 0 15
-6 45 -14 65 -14 36 -32 132 -20 106 7 -16 24 -17 24 -2 0 15 -26 39 -34 32
-3 -4 -6 -1 -6 5 0 7 -6 12 -14 12 -12 0 -35 64 -53 150 -7 36 30 -32 47 -85z
m-953 53 c-3 -7 -5 -2 -5 12 0 14 2 19 5 13 2 -7 2 -19 0 -25z m1170 -30 c-3
-8 -6 -5 -6 6 -1 11 2 17 5 13 3 -3 4 -12 1 -19z m564 -111 c-13 -13 -15 1 -4
30 7 17 8 17 11 -1 2 -10 -1 -23 -7 -29z m-1879 -90 c-5 -12 -20 -58 -33 -102
-12 -44 -31 -97 -41 -117 -10 -21 -18 -54 -18 -74 0 -39 -14 -99 -35 -149 -7
-16 -20 -66 -29 -110 -10 -44 -21 -96 -26 -115 -20 -75 -61 -296 -76 -403 -18
-131 -51 -303 -64 -332 -11 -24 -24 -66 -26 -80 -11 -111 -24 -293 -30 -400
-1 -33 -3 -62 -5 -65 -8 -18 -17 190 -15 369 2 211 3 214 26 233 21 17 22 21
10 43 -15 27 -8 132 11 166 11 21 19 67 39 218 5 40 18 99 29 130 10 31 36
110 56 176 20 66 55 173 76 238 21 65 39 123 39 130 0 19 115 286 119 275 2
-5 -1 -20 -7 -31z m1755 -9 c-3 -8 -6 -5 -6 6 -1 11 2 17 5 13 3 -3 4 -12 1
-19z m-730 -50 c-2 -13 -4 -5 -4 17 -1 22 1 32 4 23 2 -10 2 -28 0 -40z m703
-99 c0 -11 -4 -18 -10 -14 -5 3 -7 12 -3 20 7 21 13 19 13 -6z m-1395 -44
c-21 -78 -43 -133 -44 -109 -1 12 6 35 14 50 8 16 15 39 15 52 0 19 20 65 26
59 1 -1 -4 -25 -11 -52z m148 2 c3 -8 1 -20 -4 -28 -6 -10 -9 -7 -9 14 0 29 5
35 13 14z m684 -29 c-3 -8 -6 -5 -6 6 -1 11 2 17 5 13 3 -3 4 -12 1 -19z
m-1206 -55 c-12 -20 -14 -14 -5 12 4 9 9 14 11 11 3 -2 0 -13 -6 -23z m-328
-23 c-3 -11 -7 -20 -9 -20 -2 0 -4 9 -4 20 0 11 4 20 9 20 5 0 7 -9 4 -20z
m404 -12 c-3 -8 -6 -5 -6 6 -1 11 2 17 5 13 3 -3 4 -12 1 -19z m-87 4 c0 -5
-7 -17 -16 -28 -8 -10 -14 -14 -11 -9 2 6 7 18 10 28 7 17 17 23 17 9z m2205
-432 c6 -142 5 -192 -3 -185 -8 7 -13 106 -16 295 -5 307 6 245 19 -110z
m-2234 357 c-10 -9 -11 -8 -5 6 3 10 9 15 12 12 3 -3 0 -11 -7 -18z m1786 -9
c-3 -8 -6 -5 -6 6 -1 11 2 17 5 13 3 -3 4 -12 1 -19z m-1117 3 c0 -5 -17 -27
-39 -49 -29 -31 -40 -52 -45 -88 -7 -53 -3 -62 18 -45 11 9 15 8 20 -5 3 -9 1
-23 -5 -30 -8 -10 -7 -21 5 -45 18 -36 21 -59 7 -59 -15 0 -57 82 -59 114 -3
51 -12 41 -12 -13 0 -42 6 -62 28 -95 39 -57 43 -71 31 -106 -9 -23 -8 -39 5
-69 13 -34 13 -40 1 -45 -8 -3 -15 -10 -15 -17 0 -6 7 -9 15 -5 21 8 19 -11
-10 -72 -14 -30 -25 -62 -25 -72 0 -20 -17 -36 -27 -26 -4 3 -2 26 4 51 11 48
8 55 -13 28 -12 -16 -15 -16 -23 -3 -9 13 -5 58 6 70 3 3 12 -5 20 -17 31 -46
56 -21 46 44 -6 37 -29 93 -38 93 -3 0 -14 -14 -25 -32 l-19 -31 -6 26 c-4 15
-14 27 -23 27 -12 0 -13 -3 -4 -12 15 -15 16 -72 2 -63 -5 3 -10 17 -10 31 0
13 -5 24 -11 24 -8 0 -9 -20 -4 -65 6 -57 4 -68 -14 -91 -37 -48 -24 -84 23
-63 33 15 39 9 27 -24 -7 -19 -15 -25 -27 -20 -11 4 -23 -2 -33 -16 l-17 -22
-36 46 c-24 30 -38 41 -42 33 -3 -7 -4 -1 -1 13 2 14 -2 34 -10 45 -8 10 -14
28 -14 39 0 14 6 9 20 -18 11 -22 23 -36 26 -33 3 3 -6 24 -21 46 -14 22 -22
40 -16 40 6 0 8 15 4 41 -5 29 -3 43 6 49 11 7 11 11 1 24 -8 9 -10 16 -5 17
5 0 20 3 34 5 14 3 37 5 52 5 35 0 43 27 28 94 -10 44 -9 52 10 77 11 15 20
31 20 35 0 5 11 24 24 43 13 20 26 44 28 55 2 11 10 19 16 17 7 -1 15 6 18 15
18 55 42 94 64 102 33 12 40 13 40 2z m1580 -13 c0 -18 -2 -20 -9 -8 -6 8 -7
18 -5 22 9 14 14 9 14 -14z m-2226 -40 c-4 -13 -13 -43 -20 -68 -10 -35 -13
-39 -13 -18 -1 15 6 46 15 68 17 42 31 56 18 18z m1696 -44 c0 -3 -7 -12 -15
-20 -16 -17 -18 -14 -9 10 6 15 24 23 24 10z m-1257 -38 c-21 -28 -24 -28 -16
2 3 12 12 22 20 22 11 0 10 -5 -4 -24z m-132 -33 c-12 -20 -14 -14 -5 12 4 9
9 14 11 11 3 -2 0 -13 -6 -23z m1556 -45 c-2 -13 -4 -3 -4 22 0 25 2 35 4 23
2 -13 2 -33 0 -45z m90 -10 c-3 -7 -5 -2 -5 12 0 14 2 19 5 13 2 -7 2 -19 0
-25z m-698 -31 c1 -10 -3 -15 -9 -12 -5 3 -10 21 -9 38 0 27 2 29 9 12 5 -11
9 -28 9 -38z m-1302 21 c-3 -8 -6 -5 -6 6 -1 11 2 17 5 13 3 -3 4 -12 1 -19z
m2180 -30 c-3 -7 -5 -2 -5 12 0 14 2 19 5 13 2 -7 2 -19 0 -25z m-457 -9 c0
-5 -4 -9 -10 -9 -5 0 -10 7 -10 16 0 8 5 12 10 9 6 -3 10 -10 10 -16z m-1448
-26 c-3 -16 -7 -22 -10 -15 -4 13 4 42 11 42 2 0 2 -12 -1 -27z m1248 6 c0 -5
-4 -9 -10 -9 -5 0 -10 7 -10 16 0 8 5 12 10 9 6 -3 10 -10 10 -16z m30 -21 c0
-10 -4 -18 -10 -18 -5 0 -10 15 -10 33 0 24 3 28 10 17 5 -8 10 -23 10 -32z
m-1210 -5 c0 -14 -19 -38 -25 -32 -8 8 5 39 16 39 5 0 9 -3 9 -7z m-199 -40
c-10 -17 -10 -16 -11 3 0 23 13 41 18 25 2 -6 -1 -18 -7 -28z m575 -46 c45
-74 85 -199 94 -291 4 -43 12 -81 17 -85 6 -3 12 -19 15 -36 3 -16 9 -39 13
-49 7 -15 5 -18 -7 -13 -21 8 -32 -32 -18 -69 6 -14 8 -35 5 -44 -3 -10 -2
-21 3 -24 4 -2 5 -30 2 -60 -3 -30 -2 -52 2 -50 12 8 10 -10 -3 -23 -6 -6 -14
-50 -19 -99 -5 -49 -12 -100 -16 -113 -5 -17 -2 -28 10 -36 10 -8 22 -43 32
-91 27 -146 37 -185 86 -327 47 -139 87 -272 92 -312 1 -11 13 -53 25 -94 19
-58 21 -75 11 -81 -11 -6 -10 -19 0 -68 11 -50 18 -62 37 -67 44 -11 23 -25
-38 -25 -67 0 -99 12 -99 38 0 13 3 12 16 -7 11 -15 20 -19 26 -13 10 10 -10
105 -64 297 -17 61 -35 126 -39 145 -3 19 -19 89 -33 155 -15 65 -24 125 -22
132 3 7 1 13 -3 13 -11 0 -31 55 -31 85 0 13 7 25 15 29 22 8 20 89 -2 107
-15 13 -16 11 -10 -13 17 -66 -30 -69 -58 -3 -7 19 -20 35 -27 35 -8 0 -20 16
-27 35 -7 19 -18 35 -24 36 -17 0 -82 89 -90 121 -4 15 -18 39 -32 53 -13 15
-29 49 -35 79 -10 48 -34 88 -58 97 -15 6 -17 89 -3 139 24 88 33 102 62 96
50 -10 139 79 139 139 0 8 5 15 10 15 6 0 10 7 10 15 0 8 5 23 11 33 9 14 8
34 -3 83 -9 39 -12 73 -7 87 5 12 4 33 -1 48 -21 55 -2 45 36 -19z m1331 -4
c-3 -10 -5 -4 -5 12 0 17 2 24 5 18 2 -7 2 -21 0 -30z m-1747 -23 c0 -5 -7 -7
-15 -4 -8 4 -15 8 -15 10 0 2 7 4 15 4 8 0 15 -4 15 -10z m1867 -52 c-3 -7 -5
-2 -5 12 0 14 2 19 5 13 2 -7 2 -19 0 -25z m-845 -15 c-5 -59 -10 -63 -11 -10
-1 26 3 47 7 47 4 0 6 -17 4 -37z m532 -47 c-4 -42 -10 -76 -13 -76 -4 0 -4
26 0 58 4 31 8 68 8 81 1 13 3 22 7 19 3 -3 2 -40 -2 -82z m-1256 -11 c-3 -3
-9 2 -12 12 -6 14 -5 15 5 6 7 -7 10 -15 7 -18z m1373 -151 l-10 -49 4 64 c3
35 6 85 7 110 2 39 2 36 5 -15 2 -34 -1 -83 -6 -110z m-684 74 c-3 -7 -5 -2
-5 12 0 14 2 19 5 13 2 -7 2 -19 0 -25z m598 -60 c-5 -35 -10 -57 -13 -50 -5
17 8 125 15 118 3 -2 2 -33 -2 -68z m-2136 25 c0 -5 -4 -17 -9 -28 -8 -18 -9
-17 -9 8 -1 15 4 27 9 27 6 0 10 -3 9 -7z m1550 -40 c-1 -43 -2 -45 -9 -18
-11 44 -11 65 0 65 6 0 9 -21 9 -47z m-1382 -5 c-3 -8 -6 -5 -6 6 -1 11 2 17
5 13 3 -3 4 -12 1 -19z m-6 -64 l-9 -39 -1 36 c-1 20 2 39 6 42 12 13 13 0 4
-39z m226 -6 c-3 -8 -6 -5 -6 6 -1 11 2 17 5 13 3 -3 4 -12 1 -19z m230 0 c-3
-8 -6 -5 -6 6 -1 11 2 17 5 13 3 -3 4 -12 1 -19z m682 -200 c1 -37 -3 -70 -9
-73 -5 -3 -9 -18 -8 -33 4 -64 -2 -92 -19 -92 -14 0 -15 -2 -5 -9 11 -7 11
-29 -3 -127 -22 -164 -44 -293 -54 -329 l-8 -30 -12 29 c-20 50 -32 119 -23
125 5 3 13 40 17 81 3 41 15 109 25 150 33 130 52 243 81 483 3 24 17 -110 18
-175z m738 160 c-3 -8 -6 -5 -6 6 -1 11 2 17 5 13 3 -3 4 -12 1 -19z m-1663
-42 c-3 -21 -8 -35 -11 -32 -2 2 -1 20 3 40 3 21 8 35 11 32 2 -2 1 -20 -3
-40z m1696 -20 c-7 -7 -10 1 -9 25 0 32 1 33 10 10 6 -16 6 -28 -1 -35z
m-1863 2 c-3 -8 -6 -5 -6 6 -1 11 2 17 5 13 3 -3 4 -12 1 -19z m2220 -125 c-2
-16 -4 -5 -4 22 0 28 2 40 4 28 2 -13 2 -35 0 -50z m-1890 -20 c-3 -10 -5 -4
-5 12 0 17 2 24 5 18 2 -7 2 -21 0 -30z m680 15 c-3 -8 -6 -5 -6 6 -1 11 2 17
5 13 3 -3 4 -12 1 -19z m963 -68 c0 -22 -3 -40 -8 -40 -4 0 -6 18 -4 40 2 22
6 40 8 40 2 0 4 -18 4 -40z m-1900 -27 c0 -27 -4 -43 -9 -37 -8 8 -4 84 5 84
2 0 4 -21 4 -47z m927 5 c-3 -8 -6 -5 -6 6 -1 11 2 17 5 13 3 -3 4 -12 1 -19z
m-477 9 c0 -1 4 -17 10 -36 9 -32 9 -33 -9 -17 -25 23 -34 56 -15 56 8 0 14
-1 14 -3z m1387 -129 c-2 -24 -4 -7 -4 37 0 44 2 63 4 43 2 -21 2 -57 0 -80z
m240 65 c-3 -10 -5 -2 -5 17 0 19 2 27 5 18 2 -10 2 -26 0 -35z m-290 -25 c-3
-7 -5 -2 -5 12 0 14 2 19 5 13 2 -7 2 -19 0 -25z m-1600 -15 c-3 -10 -5 -4 -5
12 0 17 2 24 5 18 2 -7 2 -21 0 -30z m1890 -15 c-3 -7 -5 -2 -5 12 0 14 2 19
5 13 2 -7 2 -19 0 -25z m-2090 -20 c-3 -8 -6 -5 -6 6 -1 11 2 17 5 13 3 -3 4
-12 1 -19z m1790 -55 c-2 -16 -4 -3 -4 27 0 30 2 43 4 28 2 -16 2 -40 0 -55z
m-745 11 c-4 -24 -22 -44 -22 -26 0 29 14 72 20 62 4 -6 5 -22 2 -36z m715
-16 c-2 -13 -4 -5 -4 17 -1 22 1 32 4 23 2 -10 2 -28 0 -40z m320 -5 c-3 -10
-5 -4 -5 12 0 17 2 24 5 18 2 -7 2 -21 0 -30z m-1890 -10 c-3 -10 -5 -4 -5 12
0 17 2 24 5 18 2 -7 2 -21 0 -30z m110 -25 c-2 -13 -4 -3 -4 22 0 25 2 35 4
23 2 -13 2 -33 0 -45z m983 30 c0 -16 -3 -19 -11 -11 -6 6 -8 16 -5 22 11 17
16 13 16 -11z m-1203 -75 c-3 -10 -5 -4 -5 12 0 17 2 24 5 18 2 -7 2 -21 0
-30z m533 -4 c0 -8 -7 -6 -20 6 -11 10 -17 22 -14 26 6 11 34 -15 34 -32z
m-713 -1 c-3 -7 -5 -2 -5 12 0 14 2 19 5 13 2 -7 2 -19 0 -25z m973 -65 c0
-26 -3 -34 -11 -26 -9 9 -3 63 7 63 2 0 4 -17 4 -37z m-803 -5 c-3 -7 -5 -2
-5 12 0 14 2 19 5 13 2 -7 2 -19 0 -25z m-50 -70 c-3 -7 -5 -2 -5 12 0 14 2
19 5 13 2 -7 2 -19 0 -25z m250 -80 c-2 -18 -4 -4 -4 32 0 36 2 50 4 33 2 -18
2 -48 0 -65z m150 30 c-3 -7 -5 -2 -5 12 0 14 2 19 5 13 2 -7 2 -19 0 -25z
m-410 -10 c-3 -7 -5 -2 -5 12 0 14 2 19 5 13 2 -7 2 -19 0 -25z m360 0 c-3 -7
-5 -2 -5 12 0 14 2 19 5 13 2 -7 2 -19 0 -25z m960 10 c-3 -8 -6 -5 -6 6 -1
11 2 17 5 13 3 -3 4 -12 1 -19z m694 -39 l-9 -44 -1 41 c-1 22 2 44 6 47 12
12 13 1 4 -44z m-2324 4 c-3 -10 -5 -4 -5 12 0 17 2 24 5 18 2 -7 2 -21 0 -30z
m340 -25 c-3 -8 -6 -5 -6 6 -1 11 2 17 5 13 3 -3 4 -12 1 -19z m390 -15 c-3
-10 -5 -4 -5 12 0 17 2 24 5 18 2 -7 2 -21 0 -30z m922 5 c20 -55 22 -78 6
-78 -11 0 -14 -7 -11 -22 20 -93 27 -143 25 -185 -1 -26 2 -78 6 -114 5 -46 4
-68 -4 -73 -7 -5 -11 4 -11 25 0 18 -6 66 -14 108 -25 134 -39 316 -27 340 15
27 20 26 30 -1z m-384 -28 c-9 -41 -17 -33 -9 9 4 17 9 30 11 27 3 -2 2 -19
-2 -36z m-698 -2 c-3 -8 -6 -5 -6 6 -1 11 2 17 5 13 3 -3 4 -12 1 -19z m-360
-95 c-3 -10 -5 -4 -5 12 0 17 2 24 5 18 2 -7 2 -21 0 -30z m883 -24 c0 -6 -4
-7 -10 -4 -5 3 -10 11 -10 16 0 6 5 7 10 4 6 -3 10 -11 10 -16z m43 -204 c1
-64 -12 -152 -49 -327 -8 -37 -14 -81 -14 -97 0 -24 -5 -31 -19 -31 -15 0 -19
10 -24 61 -5 60 1 112 42 354 12 66 21 132 21 146 0 14 3 29 7 32 13 14 35
-69 36 -138z m804 113 c-3 -7 -5 -2 -5 12 0 14 2 19 5 13 2 -7 2 -19 0 -25z
m-1560 -10 c-3 -7 -5 -2 -5 12 0 14 2 19 5 13 2 -7 2 -19 0 -25z m1030 0 c-3
-7 -5 -2 -5 12 0 14 2 19 5 13 2 -7 2 -19 0 -25z m930 -290 c-3 -7 -5 -2 -5
12 0 14 2 19 5 13 2 -7 2 -19 0 -25z m80 -15 c-4 -17 -4 -17 -12 0 -4 9 -4 25
0 35 8 16 8 16 12 0 3 -10 3 -26 0 -35z m-477 -98 c12 -66 23 -128 26 -137 5
-15 -2 -18 -40 -18 -51 0 -54 7 -36 64 5 17 13 76 16 131 4 55 8 96 10 90 2
-5 13 -64 24 -130z m-256 82 c4 -19 3 -26 -4 -22 -5 3 -10 18 -10 32 0 32 5
28 14 -10z m-854 -17 c0 -5 -2 -10 -4 -10 -3 0 -8 5 -11 10 -3 6 -1 10 4 10 6
0 11 -4 11 -10z m1299 -90 c0 -13 -1 -13 -8 0 -5 8 -12 26 -15 40 l-7 25 15
-25 c9 -14 15 -32 15 -40z m112 0 c-3 -10 -9 -5 -17 15 -9 23 -9 32 -1 37 14
8 27 -29 18 -52z m-2021 -10 c0 -5 -2 -10 -4 -10 -3 0 -8 5 -11 10 -3 6 -1 10
4 10 6 0 11 -4 11 -10z m175 -50 c3 -5 -1 -10 -9 -10 -8 0 -18 5 -21 10 -3 6
1 10 9 10 8 0 18 -4 21 -10z m1995 -45 c0 -17 -2 -17 -10 -5 -5 8 -10 24 -10
35 0 17 2 17 10 5 5 -8 10 -24 10 -35z m-1444 3 c0 -13 -5 -22 -11 -20 -9 2
-10 7 -6 32 3 20 18 9 17 -12z m1101 -10 c-3 -8 -6 -5 -6 6 -1 11 2 17 5 13 3
-3 4 -12 1 -19z m-37 -8 c0 -5 -4 -10 -10 -10 -5 0 -10 5 -10 10 0 6 5 10 10
10 6 0 10 -4 10 -10z m-550 -10 c0 -5 -7 -10 -15 -10 -8 0 -15 5 -15 10 0 6 7
10 15 10 8 0 15 -4 15 -10z m840 0 c0 -5 -4 -10 -10 -10 -5 0 -10 5 -10 10 0
6 5 10 10 10 6 0 10 -4 10 -10z m-35 -50 c-3 -4 -21 -8 -40 -8 -27 0 -33 3
-26 12 11 13 74 9 66 -4z m-608 -6 c-3 -3 -12 -4 -19 -1 -8 3 -5 6 6 6 11 1
17 -2 13 -5z m56 -1 c-7 -2 -21 -2 -30 0 -10 3 -4 5 12 5 17 0 24 -2 18 -5z
m-353 -13 c0 -5 -18 -10 -40 -10 -22 0 -40 5 -40 10 0 6 18 10 40 10 22 0 40
-4 40 -10z"/>
<path d="M820 6950 c0 -5 5 -10 11 -10 5 0 7 5 4 10 -3 6 -8 10 -11 10 -2 0
-4 -4 -4 -10z"/>
<path d="M785 6680 c3 -5 8 -10 11 -10 2 0 4 5 4 10 0 6 -5 10 -11 10 -5 0 -7
-4 -4 -10z"/>
<path d="M920 6370 c11 -20 30 -28 30 -12 0 11 -22 32 -32 32 -5 0 -4 -9 2
-20z"/>
<path d="M1676 5804 c-11 -28 -6 -39 9 -20 8 11 15 23 15 28 0 14 -18 9 -24
-8z"/>
<path d="M1816 5795 c-12 -52 -15 -69 -22 -130 -3 -33 -15 -105 -25 -160 -10
-55 -19 -120 -19 -145 1 -42 1 -44 16 -25 9 12 13 32 11 50 -3 17 1 64 8 105
26 149 47 310 42 322 -2 7 -8 0 -11 -17z"/>
<path d="M1632 5740 c0 -14 2 -19 5 -12 2 6 2 18 0 25 -3 6 -5 1 -5 -13z"/>
<path d="M1563 5665 c-6 -11 -14 -36 -17 -55 -7 -33 -6 -34 9 -16 8 11 15 23
15 28 0 4 6 8 14 8 18 0 30 30 16 44 -7 7 -10 2 -11 -14 l-1 -25 -7 25 c-7 24
-8 24 -18 5z"/>
<path d="M1544 5495 c-19 -47 -18 -64 4 -42 14 14 25 77 14 77 -2 0 -10 -16
-18 -35z"/>
<path d="M1573 5462 c-7 -4 -9 -13 -4 -21 6 -10 10 -9 15 5 8 20 4 25 -11 16z"/>
<path d="M1500 5448 c0 -7 -3 -24 -7 -37 -5 -20 -3 -23 10 -18 10 4 17 2 17
-4 0 -6 5 -7 12 -3 9 6 9 9 0 12 -7 2 -12 17 -12 33 0 16 -4 29 -10 29 -5 0
-10 -6 -10 -12z"/>
<path d="M1591 5419 c-13 -39 -15 -67 -2 -53 8 9 23 84 16 84 -2 0 -8 -14 -14
-31z"/>
<path d="M1548 5385 c-5 -25 3 -40 16 -28 9 10 7 53 -3 53 -5 0 -11 -11 -13
-25z"/>
<path d="M1685 5330 c-4 -12 -5 -24 -2 -27 3 -2 8 5 12 17 4 12 5 24 2 27 -3
2 -8 -5 -12 -17z"/>
<path d="M902 5614 c7 -15 14 -21 16 -15 5 16 -5 41 -17 41 -7 0 -6 -10 1 -26z"/>
<path d="M916 5555 c4 -8 8 -15 10 -15 2 0 4 7 4 15 0 8 -4 15 -10 15 -5 0 -7
-7 -4 -15z"/>
<path d="M810 5510 c0 -5 5 -10 10 -10 6 0 10 5 10 10 0 6 -4 10 -10 10 -5 0
-10 -4 -10 -10z"/>
<path d="M970 5486 c0 -20 4 -36 10 -36 5 0 7 -6 4 -13 -2 -7 0 -24 6 -38 10
-23 10 -23 8 6 -1 17 1 35 4 41 10 15 -5 67 -20 72 -8 2 -12 -9 -12 -32z"/>
<path d="M1020 5441 c0 -22 5 -43 10 -46 6 -4 10 12 10 39 0 25 -4 46 -10 46
-5 0 -10 -18 -10 -39z"/>
<path d="M1110 5453 c0 -12 5 -25 10 -28 13 -8 13 15 0 35 -8 12 -10 11 -10
-7z"/>
<path d="M1070 5451 c0 -6 5 -13 10 -16 6 -3 10 1 10 9 0 9 -4 16 -10 16 -5 0
-10 -4 -10 -9z"/>
<path d="M890 5431 c0 -5 5 -13 10 -16 6 -3 10 -2 10 4 0 5 -4 13 -10 16 -5 3
-10 2 -10 -4z"/>
<path d="M1186 5362 c-3 -5 3 -30 13 -54 l19 -43 -5 40 c-7 48 -18 72 -27 57z"/>
<path d="M1106 5328 c7 -37 20 -55 31 -45 4 4 1 13 -5 19 -7 7 -12 20 -12 29
0 10 -4 21 -10 24 -6 4 -7 -6 -4 -27z"/>
<path d="M1040 5330 c0 -11 4 -20 9 -20 6 0 9 9 8 20 -1 11 -5 20 -9 20 -4 0
-8 -9 -8 -20z"/>
<path d="M1030 5251 c0 -13 60 -55 67 -47 10 10 -18 35 -33 29 -8 -3 -14 1
-14 11 0 9 -4 16 -10 16 -5 0 -10 -4 -10 -9z"/>
<path d="M750 5230 c0 -13 3 -20 7 -17 3 4 12 2 20 -4 21 -18 15 6 -7 26 -19
18 -20 17 -20 -5z"/>
<path d="M1146 5221 c-4 -7 -5 -15 -2 -18 9 -9 19 4 14 18 -4 11 -6 11 -12 0z"/>
<path d="M1250 5162 c0 -11 4 -23 9 -27 6 -3 8 4 6 16 -6 30 -15 37 -15 11z"/>
<path d="M1215 5130 c-3 -5 -2 -10 4 -10 5 0 13 5 16 10 3 6 2 10 -4 10 -5 0
-13 -4 -16 -10z"/>
<path d="M757 5083 c14 -42 43 -58 43 -25 0 21 -18 42 -37 42 -7 0 -10 -7 -6
-17z"/>
<path d="M605 5050 c3 -5 8 -10 11 -10 2 0 4 5 4 10 0 6 -5 10 -11 10 -5 0 -7
-4 -4 -10z"/>
<path d="M890 5053 c0 -4 5 -15 10 -23 8 -13 10 -13 10 2 0 9 -4 20 -10 23 -5
3 -10 3 -10 -2z"/>
<path d="M750 5012 c0 -5 7 -25 15 -43 l16 -34 -7 34 c-5 25 -3 32 6 26 8 -5
11 -3 8 6 -5 16 -38 25 -38 11z"/>
<path d="M1247 4974 c-8 -8 3 -34 14 -34 11 0 12 27 0 34 -4 3 -11 3 -14 0z"/>
<path d="M815 4950 c3 -5 11 -10 16 -10 6 0 7 5 4 10 -3 6 -11 10 -16 10 -6 0
-7 -4 -4 -10z"/>
<path d="M866 4845 c4 -8 10 -15 15 -15 5 0 9 7 9 15 0 8 -7 15 -15 15 -9 0
-12 -6 -9 -15z"/>
<path d="M900 4806 c0 -9 5 -16 10 -16 6 0 10 4 10 9 0 6 -4 13 -10 16 -5 3
-10 -1 -10 -9z"/>
<path d="M963 4536 c1 -28 3 -31 14 -20 11 10 11 18 3 34 -15 28 -18 25 -17
-14z"/>
<path d="M1120 4481 c0 -5 5 -13 10 -16 6 -3 10 -2 10 4 0 5 -4 13 -10 16 -5
3 -10 2 -10 -4z"/>
<path d="M1065 4450 c3 -5 8 -10 11 -10 2 0 4 5 4 10 0 6 -5 10 -11 10 -5 0
-7 -4 -4 -10z"/>
<path d="M1095 4400 c3 -5 8 -10 11 -10 2 0 4 5 4 10 0 6 -5 10 -11 10 -5 0
-7 -4 -4 -10z"/>
<path d="M1090 4281 c0 -6 4 -13 10 -16 6 -3 7 1 4 9 -7 18 -14 21 -14 7z"/>
<path d="M1162 4275 c32 -73 69 -145 77 -149 25 -16 20 20 -8 59 -17 24 -31
47 -31 53 0 5 -10 17 -21 28 -12 10 -20 15 -17 9z"/>
<path d="M1156 4203 c7 -30 24 -56 31 -49 7 7 -20 76 -29 76 -5 0 -5 -12 -2
-27z"/>
<path d="M1140 4160 c0 -5 5 -10 11 -10 5 0 7 5 4 10 -3 6 -8 10 -11 10 -2 0
-4 -4 -4 -10z"/>
<path d="M1435 2820 c3 -5 8 -10 11 -10 2 0 4 5 4 10 0 6 -5 10 -11 10 -5 0
-7 -4 -4 -10z"/>
<path d="M1341 2468 c-1 -16 4 -28 9 -28 12 0 12 8 0 35 -8 18 -9 17 -9 -7z"/>
<path d="M1976 4134 c-4 -9 -4 -19 -1 -22 2 -3 7 3 11 12 4 9 4 19 1 22 -2 3
-7 -3 -11 -12z"/>
<path d="M2100 4040 c0 -5 5 -10 11 -10 5 0 7 5 4 10 -3 6 -8 10 -11 10 -2 0
-4 -4 -4 -10z"/>
<path d="M2105 3971 c6 -38 12 -48 22 -38 3 4 -1 22 -11 40 l-17 32 6 -34z"/>
<path d="M2244 3969 c-3 -6 -1 -16 5 -22 8 -8 11 -5 11 11 0 24 -5 28 -16 11z"/>
<path d="M2040 3271 c-12 -24 -13 -44 -1 -37 8 5 22 56 15 56 -2 0 -8 -9 -14
-19z"/>
<path d="M1870 3196 c0 -9 5 -16 10 -16 6 0 10 4 10 9 0 6 -4 13 -10 16 -5 3
-10 -1 -10 -9z"/>
<path d="M2070 3196 c0 -9 -4 -16 -9 -16 -15 0 -25 -90 -12 -103 11 -11 11
-11 15 33 1 8 7 14 14 13 15 -4 17 73 2 82 -5 3 -10 -1 -10 -9z"/>
<path d="M1920 3114 c18 -66 34 -94 46 -81 8 7 -47 147 -58 147 -4 0 1 -30 12
-66z"/>
<path d="M1991 3064 c0 -11 3 -14 6 -6 3 7 2 16 -1 19 -3 4 -6 -2 -5 -13z"/>
<path d="M1991 3018 c-1 -16 4 -28 9 -28 12 0 12 8 0 35 -8 18 -9 17 -9 -7z"/>
<path d="M2035 3008 c-9 -36 1 -66 17 -50 8 8 8 21 1 44 l-10 33 -8 -27z"/>
<path d="M1967 2980 c8 -29 25 -37 21 -9 -1 12 -8 24 -15 26 -7 3 -9 -3 -6
-17z"/>
<path d="M2011 2888 c1 -13 4 -34 8 -48 6 -21 8 -22 14 -7 8 21 -2 77 -14 77
-5 0 -9 -10 -8 -22z"/>
<path d="M2066 2775 c-3 -8 -1 -15 4 -15 6 0 10 7 10 15 0 8 -2 15 -4 15 -2 0
-6 -7 -10 -15z"/>
<path d="M2020 2750 c0 -5 5 -10 10 -10 6 0 10 5 10 10 0 6 -4 10 -10 10 -5 0
-10 -4 -10 -10z"/>
<path d="M2042 2658 c0 -18 -6 -34 -11 -36 -6 -2 -11 -12 -11 -23 0 -10 -7
-19 -15 -19 -10 0 -15 10 -15 27 0 35 -15 19 -23 -24 -5 -26 -2 -35 13 -43 35
-19 49 -11 60 30 6 23 17 40 25 40 16 0 30 18 20 28 -3 3 -10 0 -15 -8 -7 -11
-10 -5 -10 23 0 45 -17 50 -18 5z"/>
<path d="M1860 2670 c0 -5 11 -34 24 -64 13 -30 22 -57 19 -60 -3 -3 2 -17 11
-31 23 -34 40 -22 21 14 -8 16 -12 31 -9 33 7 7 -46 118 -57 118 -5 0 -9 -4
-9 -10z"/>
<path d="M1645 3003 c8 -34 13 -39 24 -27 11 11 -4 54 -20 54 -7 0 -9 -10 -4
-27z"/>
<path d="M917 2375 c-4 -8 -2 -27 3 -41 6 -14 10 -36 10 -50 0 -15 6 -24 16
-24 10 0 14 6 10 18 -3 9 -10 36 -15 60 -11 51 -16 59 -24 37z"/>
<path d="M947 2233 c9 -27 24 -43 34 -37 14 8 10 24 -6 24 -8 0 -15 7 -15 15
0 8 -4 15 -10 15 -5 0 -7 -8 -3 -17z"/>
<path d="M910 2219 c0 -8 7 -24 15 -35 11 -15 14 -16 15 -3 0 8 -7 24 -15 35
-11 15 -14 16 -15 3z"/>
<path d="M875 2169 c-10 -15 3 -25 16 -12 7 7 7 13 1 17 -6 3 -14 1 -17 -5z"/>
<path d="M1392 480 c0 -14 2 -19 5 -12 2 6 2 18 0 25 -3 6 -5 1 -5 -13z"/>
<path d="M1410 390 c0 -5 5 -10 10 -10 6 0 10 5 10 10 0 6 -4 10 -10 10 -5 0
-10 -4 -10 -10z"/>
</g>
</svg>
