<?xml version="1.0" standalone="no"?>
<!DOCTYPE svg PUBLIC "-//W3C//DTD SVG 20010904//EN"
 "http://www.w3.org/TR/2001/REC-SVG-20010904/DTD/svg10.dtd">
<svg version="1.0" xmlns="http://www.w3.org/2000/svg"
 width="206.000000pt" height="254.000000pt" viewBox="0 0 206.000000 254.000000"
 preserveAspectRatio="xMidYMid meet">
<metadata>
Created by potrace 1.16, written by Peter Selinger 2001-2019
</metadata>
<g transform="translate(0.000000,254.000000) scale(0.100000,-0.100000)"
fill="#000000" stroke="none">
<path d="M708 2525 c-7 -8 -235 -16 -447 -17 -102 0 -191 -2 -198 -5 -7 -3
-13 -13 -13 -24 0 -10 -8 -23 -17 -28 -15 -9 -15 -12 -5 -19 11 -7 14 -66 16
-273 3 -257 13 -365 37 -380 8 -5 8 -8 0 -10 -7 -3 -8 -37 -1 -115 5 -62 6
-121 3 -133 -3 -11 -1 -21 5 -21 21 0 32 -301 11 -308 -12 -5 -12 -52 1 -52 6
0 10 -55 11 -142 0 -79 4 -166 8 -195 4 -28 5 -105 3 -172 -4 -109 -6 -121
-23 -121 -10 0 -21 -4 -24 -10 -3 -5 0 -10 7 -10 28 0 37 -40 43 -201 4 -90
11 -170 15 -178 4 -8 3 -25 -3 -39 -8 -18 -8 -25 3 -32 20 -13 519 -12 740 0
102 6 257 13 345 16 88 3 180 7 205 9 97 7 517 7 554 0 l39 -8 -8 274 c-11
370 -14 1191 -4 1204 10 13 6 56 -7 75 -5 8 -10 125 -11 260 0 158 2 224 7
185 4 -33 8 -113 9 -178 1 -85 4 -116 12 -111 8 5 9 63 3 213 -4 113 -8 256
-9 316 -1 121 -8 145 -55 193 -37 36 -50 40 -50 14 0 -16 -6 -17 -52 -11 -29
4 -75 13 -103 19 -66 15 -238 16 -463 2 -122 -8 -190 -8 -202 -2 -25 13 -280
13 -280 0 0 -15 -37 -12 -54 5 -15 15 -38 20 -48 10z m-93 -45 c7 -12 -2 -12
-30 0 -19 8 -19 9 2 9 12 1 25 -3 28 -9z m823 3 c-10 -2 -26 -2 -35 0 -10 3
-2 5 17 5 19 0 27 -2 18 -5z m135 0 c-7 -2 -21 -2 -30 0 -10 3 -4 5 12 5 17 0
24 -2 18 -5z m-1105 -26 c2 -10 -3 -17 -11 -17 -18 0 -39 24 -30 34 12 12 38
2 41 -17z m329 17 c-3 -3 -12 -4 -19 -1 -8 3 -5 6 6 6 11 1 17 -2 13 -5z
m-427 -24 c0 -11 -3 -20 -7 -21 -5 0 -19 -2 -33 -5 -78 -13 -80 -12 -80 12 0
20 6 23 43 27 23 2 50 4 60 5 11 1 17 -5 17 -18z m170 10 c0 -5 -9 -10 -21
-10 -11 0 -17 5 -14 10 3 6 13 10 21 10 8 0 14 -4 14 -10z m650 -10 c-6 -11
-16 -17 -25 -14 -22 9 -18 22 8 27 12 2 23 5 25 6 1 0 -2 -8 -8 -19z m52 -10
c-12 -11 -24 -20 -28 -20 -4 0 1 9 11 20 10 11 23 20 28 20 6 0 1 -9 -11 -20z
m-1092 -11 c0 -14 -5 -19 -14 -16 -18 7 -26 -12 -27 -66 l-1 -42 -9 40 c-4 22
-8 52 -8 67 -1 26 2 28 52 37 4 0 7 -8 7 -20z m77 -11 c-3 -7 -5 -2 -5 12 0
14 2 19 5 13 2 -7 2 -19 0 -25z m433 22 c0 -5 -4 -10 -10 -10 -5 0 -10 5 -10
10 0 6 5 10 10 10 6 0 10 -4 10 -10z m50 0 c0 -5 -7 -10 -15 -10 -8 0 -15 5
-15 10 0 6 7 10 15 10 8 0 15 -4 15 -10z m50 6 c0 -3 -4 -8 -10 -11 -5 -3 -10
-1 -10 4 0 6 5 11 10 11 6 0 10 -2 10 -4z m767 -2 c-3 -3 -12 -4 -19 -1 -8 3
-5 6 6 6 11 1 17 -2 13 -5z m-1337 -42 c0 -7 -4 -10 -10 -7 -5 3 -10 16 -10
28 0 18 2 19 10 7 5 -8 10 -21 10 -28z m383 22 c-3 -9 -12 -13 -21 -9 -19 7
-32 -11 -32 -45 0 -25 -16 -50 -32 -50 -13 0 4 63 24 93 21 30 72 40 61 11z
m1355 -6 c13 -13 16 -64 5 -71 -5 -3 -23 -8 -40 -12 l-33 -7 16 37 c16 40 16
42 -6 46 -24 4 -71 -19 -119 -59 -25 -20 -57 -43 -71 -51 -39 -21 -220 -80
-220 -72 0 12 80 66 128 86 23 11 42 22 42 26 0 4 13 12 30 17 20 7 28 16 24
25 -3 10 4 17 20 21 14 3 26 11 26 16 0 15 183 13 198 -2z m-1512 -54 c-7 -26
-26 -33 -26 -10 0 8 5 27 12 43 9 23 12 25 15 10 3 -10 2 -29 -1 -43z m-52 19
c-3 -16 -7 -33 -9 -40 -5 -17 12 -26 18 -11 3 7 6 3 6 -10 1 -13 -4 -33 -11
-45 -11 -21 -12 -21 -21 13 -14 57 -16 104 -4 112 22 14 27 8 21 -19z m561 17
c-3 -5 -12 -10 -18 -10 -7 0 -6 4 3 10 19 12 23 12 15 0z m-638 -62 c-2 -13
-4 -5 -4 17 -1 22 1 32 4 23 2 -10 2 -28 0 -40z m178 22 c-5 -16 -10 -19 -18
-11 -7 7 -6 15 3 26 17 20 24 13 15 -15z m186 7 c-13 -13 -26 -3 -16 12 3 6
11 8 17 5 6 -4 6 -10 -1 -17z m59 13 c0 -5 -7 -7 -15 -4 -8 4 -15 8 -15 10 0
2 7 4 15 4 8 0 15 -4 15 -10z m100 6 c0 -11 -19 -15 -25 -6 -3 5 1 10 9 10 9
0 16 -2 16 -4z m825 -4 c-6 -5 -37 -26 -70 -47 -33 -22 -91 -63 -128 -92 -38
-29 -87 -57 -108 -63 -22 -6 -48 -14 -57 -17 -46 -15 87 70 206 133 23 13 31
23 27 35 -5 14 3 20 37 29 24 6 54 15 68 20 33 11 36 11 25 2z m-1435 -9 c0
-14 -19 -38 -25 -32 -8 8 5 39 16 39 5 0 9 -3 9 -7z m1220 -3 c0 -5 -5 -10
-11 -10 -5 0 -7 5 -4 10 3 6 8 10 11 10 2 0 4 -4 4 -10z m-1163 -22 c-3 -8 -6
-5 -6 6 -1 11 2 17 5 13 3 -3 4 -12 1 -19z m346 -20 c-3 -44 -23 -79 -23 -41
0 32 12 83 19 83 4 0 6 -19 4 -42z m634 8 c-4 -9 -13 -13 -22 -10 -14 6 -13 8
2 19 21 16 28 12 20 -9z m603 15 c0 -6 -4 -13 -10 -16 -5 -3 -10 1 -10 9 0 9
5 16 10 16 6 0 10 -4 10 -9z m-1094 -21 c0 -11 -6 -20 -13 -20 -16 0 -17 12
-1 28 7 7 12 12 13 12 0 0 1 -9 1 -20z m124 0 c0 -5 -4 -10 -9 -10 -5 0 -14
-14 -21 -30 -16 -38 -34 -51 -20 -14 6 15 9 33 6 40 -2 7 -2 15 1 18 10 10 43
7 43 -4z m35 -25 c-6 -49 -15 -62 -28 -39 -7 13 -7 19 1 22 7 2 12 12 12 21 0
16 8 31 17 31 1 0 1 -16 -2 -35z m136 12 c-10 -9 -11 -8 -5 6 3 10 9 15 12 12
3 -3 0 -11 -7 -18z m249 19 c0 -3 -4 -8 -10 -11 -5 -3 -10 -1 -10 4 0 6 5 11
10 11 6 0 10 -2 10 -4z m-726 -88 c-2 -40 -4 -80 -4 -88 0 -12 -3 -11 -11 3
-6 11 -9 48 -6 90 6 86 5 79 16 73 4 -3 7 -38 5 -78z m1305 -27 c-65 -71 -77
-80 -123 -90 -28 -6 -107 -22 -176 -36 -69 -14 -172 -41 -230 -59 -58 -19
-168 -53 -244 -75 -77 -23 -142 -44 -145 -46 -25 -25 68 -2 374 95 115 37 155
47 290 75 61 13 118 26 128 30 27 11 20 -8 -11 -27 -140 -90 -133 -87 -197
-81 -50 4 -66 2 -97 -17 -38 -22 -55 -50 -19 -31 18 10 31 6 31 -10 0 -9 -56
-30 -95 -35 -16 -2 -43 -8 -60 -14 -62 -19 -239 -42 -289 -36 -72 9 -87 9
-118 1 -17 -5 -28 -3 -28 3 0 6 14 13 30 17 38 8 40 26 1 19 -22 -5 -29 -2
-33 13 -3 10 -22 24 -43 32 -32 11 -39 11 -46 0 -5 -8 -6 -22 -3 -31 6 -21 0
-22 -27 -8 -11 7 -19 7 -19 1 0 -5 5 -11 12 -13 7 -3 6 -7 -5 -11 -11 -4 -17
-1 -17 7 0 15 -21 26 -48 26 -20 1 -58 27 -50 35 3 3 22 -2 43 -10 20 -9 39
-14 41 -12 3 2 -9 10 -26 17 -36 15 -30 30 11 30 16 0 37 4 47 9 21 12 144 41
172 41 11 0 28 4 38 10 9 5 76 25 149 45 72 19 150 42 174 50 23 8 45 13 48
10 3 -3 -5 -8 -17 -12 -12 -3 -22 -9 -22 -14 0 -17 28 -9 57 15 44 37 111 68
151 71 20 2 57 13 81 25 24 12 60 24 80 27 20 3 42 10 49 16 7 5 27 10 45 9
17 0 37 4 44 10 7 5 34 11 60 13 26 1 59 7 73 12 48 20 33 -15 -41 -96z
m-1669 54 c0 -38 -3 -45 -19 -45 -11 0 -21 4 -23 10 -2 5 -9 6 -17 1 -17 -11
-3 -102 17 -109 7 -2 10 2 7 11 -3 7 1 20 10 27 22 18 81 24 82 8 1 -7 4 -28
8 -46 8 -32 7 -33 -21 -26 -25 6 -22 1 24 -35 30 -24 52 -45 49 -47 -2 -2 -34
10 -72 27 -37 18 -80 32 -95 33 -27 1 -27 2 -33 86 -4 55 -3 86 4 89 6 2 15
14 20 28 8 21 12 23 24 13 12 -10 15 -9 15 4 0 9 5 16 10 16 6 0 10 -20 10
-45z m450 36 c0 -6 -4 -13 -10 -16 -5 -3 -10 1 -10 9 0 9 5 16 10 16 6 0 10
-4 10 -9z m800 5 c0 -2 -7 -6 -15 -10 -8 -3 -15 -1 -15 4 0 6 7 10 15 10 8 0
15 -2 15 -4z m-350 -22 c0 -8 -5 -12 -10 -9 -6 4 -8 11 -5 16 9 14 15 11 15
-7z m60 6 c0 -5 -4 -10 -10 -10 -5 0 -10 5 -10 10 0 6 5 10 10 10 6 0 10 -4
10 -10z m-370 -15 c0 -8 -4 -15 -10 -15 -5 0 -7 7 -4 15 4 8 8 15 10 15 2 0 4
-7 4 -15z m597 -1 c1 -5 -38 -36 -88 -68 -49 -32 -93 -64 -97 -70 -7 -12 -83
-38 -90 -32 -7 7 164 126 181 126 11 0 30 9 44 20 14 11 23 20 19 20 -4 0 -4
5 -1 11 8 11 27 8 32 -7z m-746 -27 c-13 -13 -26 -3 -16 12 3 6 11 8 17 5 6
-4 6 -10 -1 -17z m59 13 c0 -5 -5 -10 -11 -10 -5 0 -7 5 -4 10 3 6 8 10 11 10
2 0 4 -4 4 -10z m327 -12 c2 -17 0 -19 -7 -8 -5 8 -6 18 -4 22 8 12 10 10 11
-14z m-615 -10 c-7 -7 -12 -8 -12 -2 0 14 12 26 19 19 2 -3 -1 -11 -7 -17z
m590 -13 c4 -19 1 -25 -13 -25 -16 0 -17 3 -7 25 6 14 12 25 13 25 2 0 5 -11
7 -25z m123 15 c3 -5 1 -10 -4 -10 -6 0 -11 5 -11 10 0 6 2 10 4 10 3 0 8 -4
11 -10z m110 -15 c-45 -27 -40 -23 -115 -86 -30 -25 -59 -48 -65 -51 -20 -12
-247 -68 -255 -63 -4 3 -25 -2 -45 -11 -20 -8 -39 -13 -41 -11 -6 6 117 97
131 97 7 0 20 9 30 20 10 11 24 20 32 20 7 0 13 4 13 10 0 11 69 32 81 24 5
-3 2 -16 -7 -30 -9 -13 -13 -24 -8 -24 12 0 54 42 54 55 0 13 172 73 210 74
22 0 21 -2 -15 -24z m-778 -32 c-3 -10 -5 -4 -5 12 0 17 2 24 5 18 2 -7 2 -21
0 -30z m1483 4 c0 -30 -4 -34 -40 -44 -50 -13 -52 -1 -8 44 40 41 48 41 48 0z
m-1550 -12 c0 -14 -4 -25 -10 -25 -5 0 -10 11 -10 25 0 14 5 25 10 25 6 0 10
-11 10 -25z m-93 -7 c-3 -8 -6 -5 -6 6 -1 11 2 17 5 13 3 -3 4 -12 1 -19z
m128 13 c3 -5 1 -12 -5 -16 -5 -3 -10 1 -10 9 0 18 6 21 15 7z m105 -46 c0
-38 -4 -55 -13 -55 -10 0 -11 12 -3 55 6 30 12 55 13 55 2 0 3 -25 3 -55z
m397 49 c-3 -3 -12 -4 -19 -1 -8 3 -5 6 6 6 11 1 17 -2 13 -5z m-427 -40 c-11
-49 -20 -54 -20 -12 0 34 6 48 21 48 4 0 3 -16 -1 -36z m-75 -64 c16 0 21 -35
6 -44 -19 -12 -43 21 -46 65 l-3 44 14 -32 c8 -18 21 -33 29 -33z m414 35
c-19 -13 -47 -32 -64 -41 -29 -16 -29 -16 -15 0 8 10 26 23 40 28 16 7 20 12
12 15 -8 3 -27 -4 -43 -16 -15 -11 -31 -21 -34 -21 -3 0 -24 -12 -46 -26 -50
-31 -63 -25 -17 7 18 13 38 29 43 36 9 11 107 40 144 42 8 1 -1 -10 -20 -24z
m-486 -22 c4 -19 2 -33 -3 -33 -6 0 -10 17 -10 37 0 43 5 41 13 -4z m1593 2
c3 -20 4 -62 2 -94 -4 -52 -8 -62 -37 -87 -18 -15 -39 -33 -45 -39 -6 -7 -26
-11 -44 -9 -31 4 -43 -8 -21 -22 17 -10 3 -21 -100 -77 -28 -15 -72 -30 -99
-33 -26 -3 -111 -22 -190 -41 -110 -27 -153 -34 -188 -28 -41 6 -44 8 -27 20
17 13 17 14 -6 38 -26 29 -23 40 16 55 228 85 460 158 533 168 58 8 91 17 96
26 4 7 -6 9 -27 5 -95 -14 -161 -29 -214 -47 -32 -11 -60 -18 -62 -16 -2 2 22
16 54 32 32 15 77 41 101 56 34 23 43 26 48 15 10 -28 54 -7 54 25 0 17 4 19
26 14 19 -5 25 -3 21 6 -2 7 -12 12 -21 12 -9 -1 -16 2 -16 7 0 16 53 36 132
48 4 1 10 -15 14 -34z m-1322 16 c3 -5 -5 -11 -19 -13 -26 -5 -35 6 -12 15 19
8 25 8 31 -2z m3 -69 c-20 -21 -37 -43 -37 -50 0 -17 35 -15 50 4 8 8 23 20
34 26 20 10 20 9 -2 -14 -12 -13 -19 -27 -16 -31 6 -5 -7 -9 -69 -22 -10 -2
-32 1 -48 7 l-30 10 38 34 c27 23 33 33 21 34 -9 0 -20 -4 -23 -10 -9 -14 -27
-12 -23 2 5 13 129 59 137 52 3 -3 -12 -21 -32 -42z m1143 -12 c-20 -13 -33
-13 -25 0 3 6 14 10 23 10 15 0 15 -2 2 -10z m-1390 -11 c0 -4 10 -11 23 -14
26 -8 90 -55 84 -61 -10 -10 -137 60 -137 76 0 4 7 7 15 7 8 0 15 -4 15 -8z
m120 7 c0 -3 -4 -8 -10 -11 -5 -3 -10 -1 -10 4 0 6 5 11 10 11 6 0 10 -2 10
-4z m-360 -22 c0 -8 -4 -12 -10 -9 -5 3 -10 10 -10 16 0 5 5 9 10 9 6 0 10 -7
10 -16z m1392 -53 c-29 -13 -34 -13 -42 -1 -11 18 12 29 49 22 25 -5 25 -5 -7
-21z m-1388 -13 c-7 -11 9 -10 42 2 50 19 89 19 149 -2 33 -11 68 -25 78 -30
18 -9 23 -43 7 -53 -5 -3 -10 -19 -10 -36 0 -23 4 -29 22 -29 17 0 19 3 10 12
-7 7 -12 19 -12 27 1 27 30 -19 30 -47 0 -17 4 -23 15 -18 17 6 19 -2 6 -23
-7 -11 -15 -11 -42 -2 -60 21 -79 39 -79 74 0 39 -15 57 -47 57 -25 0 -58 -42
-50 -63 2 -7 51 -37 108 -67 57 -29 98 -55 92 -57 -6 -2 -25 3 -42 11 -16 9
-32 12 -35 7 -3 -5 17 -18 44 -29 28 -12 50 -26 50 -31 0 -6 12 -11 27 -11 14
0 24 -3 20 -6 -3 -3 -2 -16 3 -29 5 -14 5 -26 -3 -34 -8 -8 -8 -11 1 -11 7 0
12 -4 12 -10 0 -5 -9 -10 -20 -10 -16 0 -20 7 -20 35 0 31 -4 36 -47 56 -27
12 -66 27 -88 34 -116 38 -146 61 -114 89 20 16 20 18 4 36 -9 10 -14 24 -10
30 4 6 2 16 -3 23 -6 7 -12 23 -14 37 -4 35 -40 39 -58 5 -18 -33 -26 -32 -34
6 -10 49 -8 97 3 79 6 -8 7 -18 5 -22z m251 12 c3 -5 2 -10 -4 -10 -5 0 -13 5
-16 10 -3 6 -2 10 4 10 5 0 13 -4 16 -10z m151 -14 c3 -8 18 -16 35 -20 33 -6
40 -26 9 -26 -34 0 -80 28 -74 45 8 19 23 19 30 1z m284 -61 c0 -14 -4 -25 -9
-25 -5 0 -11 11 -13 25 -4 17 -1 25 8 25 8 0 14 -11 14 -25z m1120 -83 l0
-108 -30 -18 c-17 -10 -43 -21 -58 -26 -15 -4 -35 -11 -44 -15 -15 -6 -18 -2
-18 19 0 35 -18 33 -22 -1 -3 -24 -8 -28 -38 -30 l-35 -2 30 14 30 14 -30 0
c-34 1 -60 -13 -60 -30 0 -12 -208 -62 -255 -61 -14 0 -48 6 -76 12 -47 12
-51 15 -50 41 1 26 4 29 37 29 20 0 51 3 68 6 25 5 30 4 26 -8 -4 -9 2 -23 11
-32 32 -33 110 7 100 50 -5 19 -1 23 29 28 19 4 62 21 96 37 34 17 77 33 96
36 19 3 30 9 24 12 -8 5 152 141 166 141 2 0 3 -49 3 -108z m-1741 71 c0 -5
-4 -17 -9 -28 -8 -18 -9 -17 -9 8 -1 15 4 27 9 27 6 0 10 -3 9 -7z m278 -25
c-3 -7 -5 -2 -5 12 0 14 2 19 5 13 2 -7 2 -19 0 -25z m118 22 c3 -5 -1 -10 -9
-10 -8 0 -18 5 -21 10 -3 6 1 10 9 10 8 0 18 -4 21 -10z m760 1 c-14 -12 -312
-121 -333 -121 -13 0 -17 9 -17 35 0 19 2 36 5 36 3 1 14 3 25 4 124 15 220
29 265 40 30 7 57 14 60 14 2 1 0 -3 -5 -8z m-1035 -47 c0 -15 -4 -23 -10 -19
-6 4 -8 10 -5 15 3 5 1 11 -5 15 -6 4 -8 11 -4 16 9 16 24 -1 24 -27z m362 25
c34 -8 67 -24 92 -45 22 -19 43 -34 47 -34 4 0 41 -16 82 -35 42 -19 87 -37
101 -41 14 -3 30 -12 37 -20 10 -12 6 -13 -22 -8 -39 8 -89 32 -104 49 -5 7
-27 15 -47 18 -33 5 -38 3 -38 -15 0 -17 -4 -19 -25 -14 -37 9 -31 -9 12 -39
39 -26 91 -33 110 -14 8 8 24 3 59 -15 27 -14 56 -26 64 -27 16 -1 -44 -22
-98 -34 -30 -6 -33 -4 -43 24 -13 36 -24 38 -59 11 -34 -26 -38 -25 -36 11 1
28 -3 33 -38 45 -28 10 -43 11 -50 4 -7 -7 -4 -12 12 -16 23 -7 29 -19 13 -29
-5 -3 -13 0 -17 6 -5 8 -9 8 -14 -1 -6 -9 -14 -8 -34 5 -25 16 -26 16 -26 -1
0 -41 -15 2 -17 49 -1 28 -4 66 -8 84 -4 25 -2 33 8 33 21 0 88 -29 104 -46
16 -16 47 -19 38 -4 -3 6 -13 10 -21 10 -8 0 -14 3 -14 8 0 4 -27 22 -60 40
-33 18 -62 37 -65 43 -8 11 -7 11 57 -2z m-105 -11 c6 -7 13 -35 17 -63 8 -54
10 -204 4 -210 -2 -2 -13 -2 -24 1 -19 5 -21 14 -23 121 -1 64 -4 126 -7 139
-7 27 16 34 33 12z m-440 -50 c-2 -13 -4 -5 -4 17 -1 22 1 32 4 23 2 -10 2
-28 0 -40z m837 16 c15 -39 -4 -42 -24 -3 -8 15 -7 19 4 19 7 0 17 -7 20 -16z
m-764 -29 c0 -3 -9 -5 -20 -5 -11 0 -20 7 -20 15 0 13 4 14 20 5 11 -6 20 -13
20 -15z m930 -35 c0 -11 5 -20 10 -20 6 0 10 -4 10 -10 0 -14 -47 -13 -56 1
-4 8 -9 7 -15 -2 -6 -11 -12 -11 -34 1 l-26 14 23 12 c17 9 25 9 31 1 5 -9 10
-7 18 6 14 23 39 22 39 -3z m-947 -30 c25 -16 51 -30 58 -30 25 -1 52 -28 45
-46 -5 -14 -9 -14 -22 -3 -13 10 -17 10 -25 -2 -5 -8 -9 -19 -9 -26 0 -14 -61
-63 -78 -63 -7 0 -12 11 -12 23 0 13 -3 58 -6 100 -4 43 -4 77 -1 77 3 0 26
-13 50 -30z m687 -4 c0 -2 -7 -6 -15 -10 -8 -3 -15 -1 -15 4 0 6 7 10 15 10 8
0 15 -2 15 -4z m590 -4 c0 -8 -92 -33 -99 -27 -2 3 50 21 97 34 1 1 2 -2 2 -7z
m-550 -27 c11 -13 7 -15 -31 -15 -43 0 -45 13 -4 23 11 3 21 5 21 6 1 0 7 -6
14 -14z m1022 -97 c-2 -54 -7 -74 -20 -85 -46 -38 -169 -85 -298 -113 -76 -17
-152 -38 -170 -46 -33 -16 -67 -14 -182 8 -50 9 -54 12 -49 34 10 52 -63 74
-103 32 l-20 -22 -42 20 -42 21 69 21 c221 67 305 85 343 76 55 -13 211 2 273
27 30 11 72 27 94 33 22 7 62 27 90 44 27 17 52 29 54 26 3 -2 4 -36 3 -76z
m-762 68 c0 -9 -30 -14 -35 -6 -4 6 3 10 14 10 12 0 21 -2 21 -4z m320 -6 c0
-12 -41 -30 -52 -23 -5 2 -8 8 -8 13 0 7 10 11 53 19 4 0 7 -4 7 -9z m-1054
-34 c1 -1 5 -20 9 -43 6 -38 5 -43 -13 -43 -26 0 -42 -39 -53 -134 -13 -116
-12 -127 11 -133 16 -4 20 -14 20 -53 0 -45 -1 -47 -25 -42 -21 4 -27 -1 -40
-32 -9 -22 -13 -49 -9 -73 6 -40 14 -57 14 -32 1 15 48 54 56 46 3 -3 4 -32 2
-66 l-3 -62 -31 29 c-23 21 -37 26 -52 21 -11 -4 -39 -11 -61 -14 -39 -6 -41
-5 -41 20 0 14 -1 28 -2 32 -2 3 6 7 17 9 24 4 45 31 45 59 0 28 -32 57 -54
49 -11 -4 -16 -1 -17 12 -1 11 -5 1 -9 -21 -9 -48 -6 -54 19 -31 18 16 19 16
16 -16 -4 -44 -3 -44 -17 -30 -21 21 -25 13 -20 -43 4 -44 2 -55 -11 -55 -17
0 -30 69 -16 84 13 14 11 64 -2 68 -6 2 -12 24 -12 48 l-1 45 44 7 c31 5 46 4
52 -5 5 -8 8 -7 8 6 0 9 7 17 16 17 9 0 28 10 42 21 25 20 25 21 5 15 -14 -5
-23 -3 -23 3 0 6 -8 3 -18 -7 -17 -17 -109 -38 -120 -28 -2 3 -7 26 -10 52 -5
44 -4 46 16 40 28 -9 72 33 72 69 0 34 -16 32 -23 -4 -6 -30 -39 -57 -57 -46
-6 3 -10 42 -10 86 0 76 1 80 26 89 14 6 40 21 58 35 18 14 38 25 43 25 6 0
18 11 27 25 13 20 22 23 46 18 19 -3 30 -1 30 6 0 7 10 5 28 -6 15 -9 28 -17
28 -17z m341 12 c-3 -8 -6 -5 -6 6 -1 11 2 17 5 13 3 -3 4 -12 1 -19z m318 13
c3 -5 1 -12 -5 -16 -5 -3 -10 1 -10 9 0 18 6 21 15 7z m161 -13 c4 -5 1 -15
-6 -21 -10 -9 -11 -9 -6 1 5 7 0 13 -11 14 -20 2 -43 5 -58 8 -5 1 1 5 15 9
28 8 57 3 66 -11z m-1146 -58 c0 -8 -7 -2 -15 14 -8 15 -15 33 -15 40 1 16 29
-36 30 -54z m1056 15 c20 -21 29 -24 61 -19 21 3 52 0 68 -6 29 -11 23 -14
-120 -54 -82 -24 -162 -46 -176 -49 -21 -5 -33 0 -63 29 -20 19 -36 42 -36 50
0 18 44 36 92 36 25 1 35 5 31 12 -3 6 0 5 8 -1 17 -17 29 -16 29 1 0 33 76
33 106 1z m-461 -16 c30 -17 57 -35 60 -40 3 -5 25 -13 48 -20 48 -12 87 -35
87 -50 0 -30 -195 53 -228 97 -12 16 -22 23 -22 17 0 -22 -20 -14 -20 7 0 27
11 25 75 -11z m982 25 c-11 -11 -121 -34 -162 -33 -35 1 -30 3 35 19 77 18
138 25 127 14z m-1097 -61 c3 -2 6 -95 7 -206 2 -183 12 -783 14 -832 1 -11
-2 -78 -6 -148 -6 -114 -9 -131 -30 -152 -12 -14 -25 -25 -29 -25 -9 0 -7 88
2 92 5 1 6 59 2 128 -3 69 -2 142 2 163 5 20 4 56 -2 80 -5 23 -10 93 -10 155
0 62 -4 112 -9 112 -5 0 -11 -12 -13 -27 -3 -16 -5 4 -6 42 -1 39 -4 89 -7
113 -3 27 -1 41 5 37 6 -3 10 -27 10 -51 0 -30 4 -44 12 -42 19 7 9 489 -11
496 -6 2 -11 10 -11 18 0 8 -7 17 -15 20 -22 9 -18 24 5 24 11 0 20 -4 20 -10
0 -5 5 -10 11 -10 6 0 8 9 4 21 -7 20 -5 21 21 15 16 -4 31 -10 34 -13z m47
-105 c-2 -18 -4 -4 -4 32 0 36 2 50 4 33 2 -18 2 -48 0 -65z m-519 5 c-4 -26
-5 -25 -12 9 -5 21 -5 46 0 55 6 15 8 13 12 -9 2 -16 2 -40 0 -55z m591 63 c9
-8 47 -28 84 -44 l68 -29 -76 -16 c-110 -24 -105 -26 -102 43 1 33 4 60 6 60
3 0 12 -6 20 -14z m1225 -516 c-9 -225 -10 -652 -1 -702 9 -53 23 -63 30 -20
2 15 5 -5 6 -45 1 -66 -1 -72 -21 -79 -40 -13 -138 -10 -138 4 0 6 -4 12 -10
12 -5 0 -10 -4 -10 -10 0 -12 -174 -12 -245 0 -29 5 -104 4 -181 -2 -72 -5
-148 -8 -170 -6 l-39 4 45 10 c31 7 47 7 52 0 5 -7 12 -5 20 6 14 18 136 42
162 32 9 -3 16 -1 16 5 0 6 11 11 25 11 16 0 25 -5 23 -13 -2 -7 2 -15 7 -17
6 -3 11 5 13 16 3 19 14 23 94 34 72 11 93 11 96 1 3 -9 7 -7 16 4 7 9 48 23
100 34 63 13 83 20 66 24 -13 3 -46 1 -74 -5 -28 -6 -62 -12 -76 -14 -14 -2
-40 -6 -57 -9 -20 -4 -33 -2 -33 4 0 6 -4 11 -10 11 -5 0 -10 -7 -10 -15 0 -9
-9 -15 -24 -15 -13 0 -37 -3 -54 -6 -28 -6 -31 -4 -27 16 2 12 8 27 13 34 18
21 -5 54 -45 65 -52 15 -61 14 -73 -8 -14 -28 -12 -73 5 -95 8 -11 15 -23 15
-26 0 -4 -31 -12 -69 -18 -38 -7 -76 -15 -85 -18 -28 -11 -20 39 9 53 20 9 25
8 25 -2 0 -8 5 -17 10 -20 6 -4 10 12 9 42 0 36 -3 43 -9 28 -8 -19 -9 -19 -9
2 -1 12 -5 23 -10 25 -5 1 -12 20 -16 41 -6 33 -5 37 13 37 15 0 22 -8 25 -27
4 -27 4 -27 6 4 1 27 5 32 34 38 117 23 314 70 321 77 18 15 -28 9 -160 -22
-149 -34 -154 -35 -154 -15 0 8 -4 15 -10 15 -5 0 -10 -9 -10 -20 0 -11 -4
-20 -10 -20 -5 0 -10 19 -10 43 -1 23 -3 89 -6 147 l-6 105 81 26 c55 18 84
22 91 15 7 -7 10 -7 10 1 0 12 67 38 123 48 35 6 53 25 22 25 -28 0 -120 -22
-132 -32 -18 -15 -17 147 1 198 7 22 11 44 9 51 -3 7 13 16 39 23 24 6 48 13
54 15 7 2 9 15 6 32 -6 24 -7 25 -10 6 -3 -19 -16 -25 -100 -43 -53 -12 -118
-27 -144 -34 -31 -9 -48 -10 -51 -3 -1 5 -10 2 -19 -7 -19 -18 -78 -33 -79
-20 0 5 -2 17 -4 27 -2 12 5 21 22 28 l26 10 -22 22 c-13 15 -21 36 -21 60 0
20 -4 37 -10 37 -5 0 -10 -26 -10 -57 -1 -56 -2 -58 -36 -75 -41 -19 -54 -6
-34 32 13 25 4 42 -10 20 -12 -19 -12 -61 -1 -79 10 -15 22 -12 59 16 l23 16
-3 -39 c-3 -37 -5 -40 -48 -50 -25 -6 -48 -9 -51 -5 -3 3 -3 56 1 116 5 101 9
110 23 65 3 -8 6 6 6 32 1 46 2 47 39 54 20 4 67 17 103 30 50 18 84 23 145
22 82 -2 202 25 248 55 13 9 59 30 102 47 44 17 95 41 114 54 l35 23 7 -181
c4 -99 5 -242 2 -316z m-1472 475 c12 -15 9 -25 -6 -25 -16 0 -29 -27 -20 -41
3 -6 2 -18 -2 -27 -5 -12 -10 -2 -14 33 -4 28 -5 55 -3 61 5 14 35 13 45 -1z
m628 -101 c0 -6 9 -19 20 -29 17 -15 24 -16 49 -6 18 8 47 10 77 6 72 -11 83
-20 38 -32 -168 -45 -246 -64 -286 -72 -48 -8 -48 -8 -48 19 0 18 8 31 24 39
35 19 53 56 36 76 -13 15 -46 20 -74 9 -28 -11 -17 -20 18 -16 18 2 36 0 40
-6 10 -17 -42 -55 -74 -54 -32 1 -40 -12 -15 -22 9 -3 15 -18 15 -35 0 -23 -5
-30 -25 -33 -23 -5 -25 -2 -25 33 0 51 -16 50 -23 -2 -6 -47 -4 -44 -41 -53
-28 -7 -28 -7 -21 31 3 21 11 42 16 48 14 14 11 55 -6 61 -8 4 -12 10 -9 15 3
5 -6 9 -20 9 -14 0 -26 -4 -26 -10 0 -5 8 -7 18 -4 9 3 6 -2 -8 -10 -19 -12
-21 -15 -7 -16 11 0 17 -8 17 -25 0 -14 -4 -25 -10 -25 -5 0 -10 5 -10 10 0 6
-4 10 -10 10 -5 0 -10 -24 -10 -54 0 -38 -5 -58 -17 -67 -15 -13 -15 -11 -8
26 4 22 7 47 7 55 -1 8 -4 42 -8 76 l-6 60 118 23 c66 13 128 27 139 31 22 8
154 -48 155 -66z m98 39 c3 -23 -8 -30 -22 -15 -7 7 -11 8 -37 11 -8 1 -7 6 1
16 19 23 54 15 58 -12z m439 -29 c-3 -3 -12 -4 -19 -1 -8 3 -5 6 6 6 11 1 17
-2 13 -5z m-477 -20 c0 -2 -7 -4 -15 -4 -8 0 -15 4 -15 10 0 5 7 7 15 4 8 -4
15 -8 15 -10z m425 7 c-11 -5 -38 -11 -60 -14 l-40 -6 40 14 c22 7 49 14 60
14 l20 0 -20 -8z m-934 -158 c1 -76 3 -157 3 -181 1 -24 -1 -45 -5 -48 -10 -6
-21 164 -17 273 2 51 6 93 11 93 4 0 8 -62 8 -137z m-201 108 c0 -6 -4 -13
-10 -16 -5 -3 -10 1 -10 9 0 9 5 16 10 16 6 0 10 -4 10 -9z m60 -64 c0 -13 -5
-28 -11 -34 -20 -20 -15 -341 7 -448 5 -25 4 -28 -7 -17 -8 7 -15 27 -16 45
-1 18 -4 43 -7 57 -3 14 -8 47 -11 73 -4 27 -9 47 -11 44 -3 -3 2 -82 12 -177
12 -126 14 -174 6 -182 -17 -17 -19 -4 -33 236 -9 167 -9 221 -1 224 7 2 12
15 12 28 0 14 -4 23 -8 20 -12 -7 -12 22 1 76 7 31 17 50 29 54 10 3 18 10 18
15 0 5 5 9 10 9 6 0 10 -10 10 -23z m253 -21 c9 -22 -4 -56 -20 -56 -11 0 -14
6 -9 23 3 12 6 28 6 35 0 16 17 15 23 -2z m346 -48 c-4 -29 -8 -87 -8 -129
l-1 -77 -30 -4 c-25 -4 -30 -1 -30 15 0 11 8 26 18 33 13 11 14 16 4 22 -18
12 -29 59 -28 115 1 26 -2 47 -6 47 -11 0 -14 -33 -6 -79 4 -24 5 -48 2 -53
-4 -6 0 -14 7 -19 12 -7 12 -11 -1 -23 -8 -9 -26 -17 -40 -18 -21 -3 -26 2
-28 26 -2 16 2 32 8 36 7 4 9 13 6 19 -4 6 -12 9 -17 6 -9 -6 -13 21 -10 58 1
9 -3 17 -8 17 -21 0 -11 30 12 35 31 8 118 22 143 24 19 1 20 -2 13 -51z
m-191 -115 l-3 -127 -31 -7 -32 -6 5 121 c2 67 6 127 8 134 3 6 16 12 30 12
l26 0 -3 -127z m-76 41 c-4 -61 -5 -64 -18 -45 -9 12 -22 21 -30 21 -22 0 -19
77 4 83 46 12 47 10 44 -59z m-449 37 c5 -20 -9 -51 -23 -51 -11 0 -13 30 -4
54 8 21 21 20 27 -3z m367 -43 c-1 -51 -1 -52 -15 -28 -15 27 -19 62 -8 73 16
17 23 3 23 -45z m-230 32 c0 -5 -4 -10 -10 -10 -5 0 -10 5 -10 10 0 6 5 10 10
10 6 0 10 -4 10 -10z m187 -249 c3 -138 2 -258 -1 -268 -6 -15 -8 -15 -20 3
-9 13 -15 82 -20 232 -6 189 -5 213 9 218 10 4 16 17 15 33 -3 36 -1 45 6 38
4 -3 9 -119 11 -256z m95 165 c12 -28 5 -56 -14 -56 -9 0 -14 14 -14 40 -2 45
11 52 28 16z m701 -4 c-2 -9 -5 -69 -6 -131 l-2 -115 -70 -22 c-109 -35 -102
-40 -104 81 -1 67 2 105 9 105 5 0 10 5 10 11 0 5 -4 7 -10 4 -5 -3 -10 1 -10
9 0 9 5 16 10 16 6 0 10 7 10 15 0 21 80 41 92 23 7 -10 10 -9 19 5 14 24 59
23 52 -1z m-576 -44 c-3 -7 -5 -2 -5 12 0 14 2 19 5 13 2 -7 2 -19 0 -25z
m-811 -40 c2 -28 -1 -37 -7 -27 -10 16 -12 86 -2 75 4 -4 8 -25 9 -48z m630
-15 c6 -45 4 -53 -10 -53 -13 0 -16 11 -16 62 0 74 15 68 26 -9z m554 22 c0
-29 -4 -45 -12 -45 -7 0 -23 -3 -35 -6 -21 -6 -23 -3 -23 39 0 39 3 46 23 50
46 9 47 8 47 -38z m-965 12 c0 -7 10 -11 22 -10 14 2 23 -5 27 -20 9 -36 7
-39 -19 -33 -15 4 -25 2 -25 -4 0 -13 48 -32 61 -24 9 5 11 -4 14 -81 2 -41 2
-41 -34 -41 -20 0 -44 -4 -53 -8 -15 -7 -18 -3 -18 21 0 25 6 32 33 41 l32 11
-32 -3 c-18 -1 -33 1 -33 6 0 4 -4 8 -10 8 -5 0 -10 -7 -10 -15 0 -8 -4 -15
-10 -15 -5 0 -10 6 -10 14 0 16 -59 63 -61 49 -1 -4 0 -23 1 -40 1 -27 -2 -33
-19 -33 -17 0 -21 7 -22 38 -1 20 -3 54 -4 74 l-4 37 57 15 c31 9 68 20 82 24
27 9 35 7 35 -11z m495 -22 c0 -28 -5 -38 -22 -44 -19 -7 -25 -4 -31 13 -6 16
-2 26 20 43 15 13 29 23 31 23 1 0 2 -16 2 -35z m180 21 c0 -17 -5 -21 -42
-30 -23 -5 -28 -3 -28 13 0 14 8 21 28 24 15 2 30 5 35 6 4 0 7 -5 7 -13z
m199 -82 c-6 -7 -5 -22 1 -38 12 -32 14 -133 3 -139 -5 -3 -30 -8 -56 -11
l-48 -7 3 132 3 132 45 11 45 11 6 -40 c4 -22 2 -45 -2 -51z m-110 -124 l1
-76 -67 -11 c-37 -7 -69 -10 -71 -8 -2 2 -5 34 -8 72 -2 37 -6 91 -9 120 -5
52 -5 52 27 61 31 8 34 7 42 -21 8 -25 6 -32 -13 -47 -18 -13 -22 -22 -16 -41
11 -36 25 -49 51 -49 28 0 30 3 39 57 6 40 5 43 -20 49 -22 5 -26 11 -23 37 2
24 9 33 28 37 24 6 25 4 31 -49 4 -31 7 -90 8 -131z m-186 18 c5 -92 4 -124
-5 -130 -21 -13 -41 -9 -34 7 3 8 2 23 -2 33 -5 13 -8 9 -13 -18 -6 -33 -6
-33 -8 12 -1 39 2 48 19 53 11 3 20 12 20 18 0 30 -23 93 -38 105 -16 12 -16
14 2 28 11 8 27 14 36 14 15 0 18 -18 23 -122z m-83 82 c0 -12 -12 -26 -30
-35 -29 -15 -30 -15 -30 8 0 28 17 47 42 47 11 0 18 -7 18 -20z m445 -2 c-12
-38 -25 -44 -22 -10 1 19 8 32 15 32 9 0 11 -7 7 -22z m-520 -10 c2 -7 6 -59
8 -116 3 -83 1 -105 -10 -109 -8 -3 -16 -3 -20 0 -8 8 -16 205 -9 223 7 17 25
18 31 2z m553 -51 c2 -60 1 -64 -24 -76 -31 -14 -39 -8 -49 36 -6 29 -4 33 19
39 15 3 28 17 35 35 5 16 12 29 13 29 2 0 5 -28 6 -63z m-271 11 c-3 -7 -5 -2
-5 12 0 14 2 19 5 13 2 -7 2 -19 0 -25z m-797 7 c0 -8 -4 -15 -10 -15 -5 0
-10 7 -10 15 0 8 5 15 10 15 6 0 10 -7 10 -15z m586 -71 c-3 -8 -10 -14 -16
-14 -12 0 -8 49 6 70 7 12 10 8 12 -13 2 -16 1 -35 -2 -43z m-536 24 c0 -7 3
-24 5 -38 5 -22 4 -23 -4 -5 -10 20 -10 19 -17 -2 -3 -13 -10 -20 -15 -17 -5
3 -9 1 -9 -3 0 -5 -16 -9 -35 -9 -29 0 -37 4 -42 24 -3 15 -1 27 8 33 21 13
24 11 37 -18 l12 -28 -4 28 c-2 18 2 31 13 37 23 13 51 12 51 -2z m652 -70 c2
-21 0 -38 -4 -38 -4 0 -8 21 -7 48 1 52 6 48 11 -10z m-555 25 c3 -10 12 -25
20 -34 9 -11 13 -33 11 -60 -3 -43 -4 -44 -48 -55 -38 -9 -47 -8 -57 5 -11 15
-12 15 -13 0 0 -20 -31 -34 -40 -19 -5 8 -10 5 -14 -6 -6 -16 -8 -16 -16 -4
-7 10 -10 11 -10 3 0 -7 -6 -13 -14 -13 -17 0 -29 58 -20 94 7 30 12 32 29 10
10 -14 14 -15 33 -3 12 8 22 22 22 31 0 24 17 23 25 -2 10 -30 22 -24 17 9 -3
21 2 33 19 45 30 21 48 20 56 -1z m447 -25 c9 -34 7 -68 -3 -68 -5 0 -15 -2
-23 -5 -10 -4 -13 8 -14 45 -1 41 2 50 16 50 10 0 20 -10 24 -22z m-696 -85
c-1 -60 -4 -88 -9 -73 -11 39 -10 170 1 170 7 0 10 -37 8 -97z m1176 40 c3
-32 7 -98 8 -148 3 -84 2 -90 -17 -90 -17 0 -21 10 -29 75 -9 81 -13 92 -25
71 -6 -9 -8 -4 -8 14 0 19 2 23 8 14 6 -10 9 -8 9 9 0 13 -4 20 -10 17 -5 -3
-10 -1 -10 4 0 6 5 11 10 11 6 0 10 7 10 15 0 8 -5 15 -11 15 -6 0 -9 8 -7 17
3 14 26 27 60 32 3 1 9 -25 12 -56z m-86 -20 c3 -37 0 -52 -11 -56 -11 -4 -17
7 -23 46 -6 44 -8 47 -12 22 -2 -16 1 -61 8 -99 13 -74 8 -86 -36 -86 -15 0
-22 7 -23 23 -1 12 -2 33 -4 47 -2 20 2 24 19 22 13 -2 21 3 21 13 0 18 -16
19 -39 1 -15 -11 -18 -29 -18 -95 0 -44 4 -81 9 -81 5 0 11 10 13 23 2 18 10
23 41 25 33 3 37 1 37 -21 0 -28 -8 -31 -116 -47 -38 -5 -84 -12 -101 -16 -31
-6 -33 -5 -33 20 0 33 41 54 52 27 6 -14 7 -14 7 2 1 20 37 24 44 5 8 -19 8
40 1 111 -9 85 -22 77 -16 -10 4 -53 2 -70 -7 -65 -6 4 -11 25 -11 47 0 40 -1
40 -30 34 -28 -6 -30 -5 -30 23 0 16 -3 43 -6 59 -6 28 -4 30 46 41 69 16 104
16 97 -1 -3 -8 -2 -29 3 -48 7 -32 8 -31 9 18 l1 52 43 9 c23 5 47 9 52 8 6
-2 11 -25 13 -53z m721 -77 c-5 -6 -8 18 -8 55 l2 64 7 -55 c4 -30 3 -59 -1
-64z m-1021 9 c2 -38 0 -55 -7 -50 -7 4 -11 -8 -11 -34 0 -28 5 -43 18 -50 14
-9 13 -10 -10 -9 -26 2 -28 6 -29 48 0 25 -2 68 -5 97 -4 44 -2 52 13 55 27 6
28 5 31 -57z m-88 -14 l0 -59 -25 11 c-21 10 -25 19 -25 54 0 35 3 42 23 46
12 2 23 5 25 6 1 0 2 -26 2 -58z m34 -83 c5 -109 4 -138 -6 -138 -10 0 -13 30
-11 128 2 159 2 156 7 151 2 -2 6 -66 10 -141z m73 80 c-2 -13 -4 -5 -4 17 -1
22 1 32 4 23 2 -10 2 -28 0 -40z m-177 -2 c0 -30 -5 -46 -15 -50 -24 -9 -17
-83 8 -90 15 -4 17 -11 12 -48 -7 -42 -18 -58 -43 -58 -10 0 -12 27 -6 138 6
126 12 151 37 152 4 0 7 -20 7 -44z m-56 -8 c-1 -18 -2 -75 -3 -127 0 -52 -4
-91 -7 -88 -9 8 -14 194 -8 230 7 37 19 27 18 -15z m-292 -106 c-4 -149 1
-141 -89 -157 -36 -6 -43 -4 -43 9 0 21 -18 21 -22 0 -2 -11 -15 -18 -37 -20
l-33 -4 7 37 c7 37 22 56 36 47 17 -10 20 18 3 30 -9 7 -15 20 -12 28 8 21 -5
39 -30 41 -12 1 -22 4 -23 7 0 3 -2 13 -4 22 -4 24 16 46 45 50 22 3 26 -1 29
-32 l5 -35 5 40 c4 27 12 41 24 43 11 2 17 -3 18 -15 0 -15 2 -15 9 4 7 16 22
23 62 30 29 5 53 9 53 9 0 -1 -1 -61 -3 -134z m48 106 c1 -84 11 -297 15 -330
l5 -36 -61 -7 c-47 -6 -63 -12 -66 -25 -4 -15 -15 -17 -85 -15 -44 1 -83 6
-88 11 -5 5 -10 29 -12 53 -3 43 -2 45 31 55 23 7 39 6 51 -2 14 -8 21 -8 29
2 14 16 122 30 130 17 3 -5 17 0 30 11 17 13 21 22 13 27 -14 8 -22 132 -15
214 6 61 23 79 23 25z m787 -30 c-3 -7 -5 -2 -5 12 0 14 2 19 5 13 2 -7 2 -19
0 -25z m-24 -31 c-8 -15 -23 5 -23 31 l0 27 14 -25 c7 -14 11 -28 9 -33z
m-235 11 c18 -18 15 -36 -8 -48 -18 -10 -20 -8 -20 25 0 37 8 43 28 23z m-861
-80 c-2 -18 -4 -6 -4 27 0 33 2 48 4 33 2 -15 2 -42 0 -60z m522 -11 c0 -51
-4 -99 -9 -107 -7 -10 -10 19 -10 86 0 87 4 114 16 114 2 0 3 -42 3 -93z m158
77 c3 -8 -2 -23 -11 -32 -15 -15 -16 -14 -16 16 0 33 16 43 27 16z m24 -79
c-5 -63 -8 -70 -28 -73 -21 -3 -23 1 -23 42 0 39 3 46 20 46 14 0 20 7 20 23
0 20 10 43 15 35 0 -2 -1 -34 -4 -73z m116 43 c-3 -7 -5 -2 -5 12 0 14 2 19 5
13 2 -7 2 -19 0 -25z m310 -25 c-3 -10 -5 -2 -5 17 0 19 2 27 5 18 2 -10 2
-26 0 -35z m-23 10 c-3 -39 -3 -40 -14 -23 -14 21 -12 50 3 50 8 0 12 -11 11
-27z m-1056 -39 c1 -14 -2 -23 -8 -19 -12 7 -14 45 -2 45 4 0 9 -11 10 -26z
m752 -14 c0 -23 -4 -30 -20 -30 -16 0 -20 7 -20 30 0 23 4 30 20 30 16 0 20
-7 20 -30z m342 -20 c3 -18 0 -30 -7 -30 -6 0 -12 14 -13 30 -1 17 2 30 7 30
5 0 11 -13 13 -30z m-32 -4 c0 -13 -6 -27 -12 -29 -9 -4 -10 -8 -2 -14 6 -4
14 -21 18 -37 6 -23 4 -27 -8 -23 -10 4 -16 1 -16 -8 0 -19 17 -28 23 -13 3 7
6 1 6 -14 1 -28 1 -28 -86 -48 -28 -6 -54 -18 -57 -26 -4 -10 -26 -14 -86 -14
-77 0 -80 1 -76 23 3 12 5 58 5 102 1 76 2 81 24 82 21 2 22 -1 22 -65 0 -37
4 -79 8 -94 8 -30 27 -38 27 -13 0 9 9 15 24 15 33 0 56 25 57 61 3 79 0 103
-10 69 -4 -14 -10 -24 -14 -22 -4 1 -23 2 -42 2 -32 0 -35 3 -35 28 0 28 2 29
88 44 130 23 142 23 142 -6z m-1111 -43 c-1 -37 -3 -42 -8 -23 -7 24 -3 70 5
70 2 0 4 -21 3 -47z m1352 22 c34 -18 30 -36 -6 -29 -33 6 -32 -14 0 -22 16
-4 25 -13 25 -26 0 -14 -5 -18 -15 -14 -8 3 -15 1 -15 -4 0 -6 -7 -10 -16 -10
-8 0 -12 5 -9 10 4 6 -1 22 -10 36 -13 20 -14 28 -4 40 9 11 9 14 0 14 -7 0
-9 5 -6 10 9 14 21 13 56 -5z m-547 -102 c-3 -53 -7 -100 -10 -105 -3 -4 -15
-8 -28 -8 -19 0 -22 5 -22 35 1 23 6 35 15 35 11 0 12 13 7 63 -7 67 -3 77 25
77 16 0 17 -9 13 -97z m-758 60 c-10 -10 -19 5 -10 18 6 11 8 11 12 0 2 -7 1
-15 -2 -18z m647 -9 c-4 -25 -9 -31 -24 -27 -26 7 -24 42 4 52 12 5 23 8 23 7
1 0 -1 -15 -3 -32z m57 -19 l0 -55 -20 20 c-29 29 -25 90 6 90 10 0 14 -15 14
-55z m399 -1 c-13 -15 -14 -15 -20 7 -8 33 0 44 19 25 13 -13 13 -17 1 -32z
m-521 -48 c-2 -81 -3 -85 -26 -91 -13 -3 -26 -5 -28 -3 -1 2 -6 37 -10 79 l-6
75 33 11 c19 6 35 11 36 12 2 1 2 -37 1 -83z m310 52 c7 -7 12 -25 12 -40 0
-21 -6 -29 -26 -34 -30 -8 -47 10 -38 39 3 9 1 17 -5 17 -21 0 -11 19 12 23
12 2 24 5 28 6 3 0 10 -4 17 -11z m-230 -50 c7 -7 12 -27 12 -46 0 -31 -2 -34
-25 -30 -14 3 -25 1 -25 -3 0 -5 -4 -9 -10 -9 -11 0 -14 83 -3 93 10 11 38 8
51 -5z m-252 -45 c-11 -11 -19 6 -11 24 8 17 8 17 12 0 3 -10 2 -21 -1 -24z
m-422 -57 c23 -6 25 -9 14 -26 -16 -26 -38 -26 -38 0 0 11 -4 20 -10 20 -5 0
-10 12 -9 28 0 25 1 25 9 6 5 -12 20 -24 34 -28z m306 29 c11 -13 6 -15 -38
-15 -79 0 -76 24 4 29 12 0 27 -6 34 -14z m120 -7 c0 -18 -24 -24 -54 -12 -15
6 -15 8 1 19 25 18 53 14 53 -7z m773 -15 c-7 -2 -21 -2 -30 0 -10 3 -4 5 12
5 17 0 24 -2 18 -5z m166 -7 c-10 -9 -79 -14 -79 -5 0 5 19 9 42 9 23 0 39 -2
37 -4z m128 -2 c-3 -3 -12 -4 -19 -1 -8 3 -5 6 6 6 11 1 17 -2 13 -5z m-502
-14 c-3 -5 -13 -10 -21 -10 -8 0 -12 5 -9 10 3 6 13 10 21 10 8 0 12 -4 9 -10z
m-210 -10 c14 -6 -2 -9 -51 -9 -39 -1 -120 -4 -180 -7 -60 -4 -105 -3 -101 2
4 5 74 11 155 14 81 4 149 7 152 8 3 0 14 -3 25 -8z m153 3 c-10 -2 -28 -2
-40 0 -13 2 -5 4 17 4 22 1 32 -1 23 -4z m-525 -20 c-7 -2 -19 -2 -25 0 -7 3
-2 5 12 5 14 0 19 -2 13 -5z"/>
<path d="M1715 2370 c-10 -11 -15 -23 -12 -26 9 -10 59 25 52 36 -9 15 -20 12
-40 -10z"/>
<path d="M1509 2145 c-29 -16 -73 -25 -156 -32 -29 -3 -53 -9 -53 -15 0 -6 22
-8 58 -4 31 3 66 6 76 6 22 1 92 35 101 50 8 13 6 12 -26 -5z"/>
<path d="M1176 2085 c-15 -8 -32 -13 -36 -10 -4 2 -16 -5 -26 -16 -40 -44
-107 -62 -132 -37 -9 9 -15 9 -24 0 -7 -7 -29 -12 -50 -12 -26 0 -38 -4 -38
-14 0 -11 17 -13 88 -8 94 6 137 19 166 51 10 11 22 18 27 16 10 -7 79 26 79
37 0 12 -22 9 -54 -7z"/>
<path d="M185 2120 c3 -5 10 -10 16 -10 5 0 9 5 9 10 0 6 -7 10 -16 10 -8 0
-12 -4 -9 -10z"/>
<path d="M1608 1855 c-32 -27 -35 -47 -12 -69 22 -23 39 -20 75 12 26 23 31
33 25 55 -8 35 -50 36 -88 2z m62 -15 c0 -11 -5 -20 -11 -20 -5 0 -7 5 -4 10
3 6 -1 10 -9 10 -9 0 -16 5 -16 10 0 6 9 10 20 10 13 0 20 -7 20 -20z m-49
-30 c6 0 7 5 4 10 -3 6 -1 10 4 10 6 0 11 -7 11 -15 0 -8 -9 -15 -20 -15 -13
0 -20 6 -19 18 0 10 3 12 6 5 2 -7 9 -13 14 -13z"/>
<path d="M1390 1826 c-6 -8 -24 -16 -38 -18 -19 -2 -28 -10 -30 -25 -3 -20 1
-23 27 -23 40 0 79 19 86 41 12 36 -21 53 -45 25z m30 -16 c0 -5 -4 -10 -10
-10 -5 0 -10 5 -10 10 0 6 5 10 10 10 6 0 10 -4 10 -10z m-40 -20 c0 -5 -10
-10 -22 -9 -22 0 -22 1 -3 9 11 5 21 9 23 9 1 1 2 -3 2 -9z"/>
<path d="M1868 1798 c-27 -6 -48 -15 -48 -20 0 -6 9 -7 23 -3 12 4 37 9 55 12
17 3 32 9 32 14 0 10 2 10 -62 -3z"/>
<path d="M580 1690 c0 -5 5 -10 11 -10 5 0 7 5 4 10 -3 6 -8 10 -11 10 -2 0
-4 -4 -4 -10z"/>
<path d="M1880 1563 c0 -12 -11 -35 -24 -50 l-24 -28 -12 30 c-8 22 -13 26
-20 16 -12 -21 4 -56 28 -59 38 -6 89 75 63 101 -8 8 -11 5 -11 -10z"/>
<path d="M1335 1473 c-3 -14 -1 -39 6 -55 23 -57 99 -24 99 44 0 29 -13 36
-67 36 -25 1 -32 -4 -38 -25z m80 -4 c7 -22 -20 -62 -39 -56 -11 4 -27 53 -19
61 3 3 15 0 26 -6 17 -9 19 -8 14 6 -4 9 -2 16 3 16 5 0 12 -9 15 -21z"/>
<path d="M1600 1490 c0 -5 9 -10 20 -10 11 0 20 -4 20 -9 0 -14 -42 -41 -63
-41 -16 0 -18 5 -12 33 5 26 4 29 -5 14 -15 -23 -9 -60 10 -68 42 -17 115 59
79 82 -19 12 -49 11 -49 -1z"/>
<path d="M203 1463 c-7 -2 -13 -9 -13 -14 0 -14 24 -11 46 6 19 14 19 14 -1
14 -11 0 -26 -3 -32 -6z"/>
<path d="M350 1400 c0 -5 5 -10 10 -10 6 0 10 5 10 10 0 6 -4 10 -10 10 -5 0
-10 -4 -10 -10z"/>
<path d="M1841 1304 c0 -11 3 -14 6 -6 3 7 2 16 -1 19 -3 4 -6 -2 -5 -13z"/>
<path d="M1606 1274 c-4 -11 -2 -15 8 -11 9 4 20 -6 30 -26 15 -32 15 -32 -14
-44 -15 -7 -31 -17 -35 -23 -3 -6 -11 -8 -16 -5 -10 7 -13 -8 -4 -17 5 -5 110
33 121 44 2 3 -9 20 -26 38 -16 18 -30 38 -30 46 0 19 -26 18 -34 -2z"/>
<path d="M1770 1274 c0 -8 5 -12 10 -9 6 4 8 11 5 16 -9 14 -15 11 -15 -7z"/>
<path d="M1851 1263 c-2 -39 -79 -85 -106 -63 -11 9 -15 9 -15 1 0 -6 5 -11
10 -11 6 0 10 -7 10 -16 0 -17 30 -12 65 12 11 8 27 14 37 14 12 0 18 8 18 21
0 11 4 18 9 14 5 -3 12 -1 16 5 6 9 -6 13 -21 8 -4 -2 -10 6 -15 17 -7 19 -8
19 -8 -2z"/>
<path d="M1453 1253 c-22 -8 -15 -32 7 -26 11 3 20 12 20 19 0 14 -6 16 -27 7z"/>
<path d="M1357 1183 c-15 -14 -6 -51 17 -72 20 -19 31 -22 69 -16 52 8 61 21
44 64 -15 40 -25 39 -29 -1 -3 -29 -6 -33 -33 -33 -25 0 -32 5 -40 33 -9 32
-16 38 -28 25z"/>
<path d="M1190 1125 c-11 -13 -10 -14 4 -9 9 3 16 10 16 15 0 13 -6 11 -20 -6z"/>
<path d="M1794 1035 c-4 -9 -1 -28 4 -43 6 -15 12 -38 14 -51 3 -24 5 -23 45
20 24 24 43 49 43 55 0 10 -62 34 -89 34 -6 0 -14 -7 -17 -15z m65 -14 c12 -8
12 -12 2 -25 -19 -23 -31 -20 -31 9 0 27 6 30 29 16z"/>
<path d="M1660 985 c0 -8 7 -15 15 -15 18 0 19 -9 0 -34 -19 -25 -36 -11 -28
24 6 34 -10 41 -27 11 -11 -22 -13 -80 -4 -105 8 -21 24 -10 24 15 0 11 5 17
10 14 14 -9 70 49 70 73 0 20 -18 32 -46 32 -8 0 -14 -7 -14 -15z"/>
<path d="M1836 865 c-11 -8 -34 -15 -51 -15 -33 0 -48 -8 -40 -21 3 -4 20 -3
38 2 44 14 59 17 80 18 19 1 24 31 5 31 -7 0 -22 -7 -32 -15z"/>
<path d="M1828 703 c-20 -5 -24 -52 -8 -84 19 -34 30 -21 23 26 l-6 45 32 -11
c33 -12 41 -36 16 -45 -16 -6 -21 -34 -7 -34 12 0 52 44 52 58 0 24 -68 54
-102 45z"/>
<path d="M1365 640 c6 -79 14 -133 23 -141 4 -4 26 -10 49 -14 35 -6 43 -4 52
14 6 11 11 36 11 55 0 46 -33 70 -82 61 -34 -7 -34 -6 -46 42 l-11 48 4 -65z
m99 -66 c10 -26 7 -62 -6 -67 -17 -6 -58 10 -58 22 0 45 50 81 64 45z"/>
<path d="M1602 611 c5 -69 16 -100 25 -73 3 6 18 12 34 12 22 0 32 6 39 24 5
13 14 27 19 31 20 12 11 24 -33 44 -94 41 -90 43 -84 -38z m77 11 c19 -13 -3
-52 -29 -52 -17 0 -20 7 -20 40 0 43 2 43 49 12z"/>
<path d="M1874 508 c-4 -7 -3 -8 4 -4 7 4 12 2 12 -3 0 -6 4 -11 10 -11 5 0 7
7 4 15 -7 18 -20 19 -30 3z"/>
<path d="M1525 501 c-3 -5 -1 -12 5 -16 5 -3 10 1 10 9 0 18 -6 21 -15 7z"/>
<path d="M1830 412 c-18 -6 -30 -22 -30 -42 0 -10 9 -6 27 12 28 28 29 39 3
30z"/>
<path d="M1646 398 c-29 -16 -13 -108 19 -108 12 0 14 4 5 19 -5 11 -10 26 -9
33 0 7 4 3 9 -9 6 -15 15 -20 29 -16 26 7 63 42 58 56 -5 17 -91 36 -111 25z
m73 -35 c3 -2 0 -8 -6 -14 -8 -8 -18 -5 -35 11 l-23 21 30 -7 c17 -4 32 -9 34
-11z"/>
<path d="M1391 378 c1 -13 5 -36 9 -53 7 -27 8 -25 9 17 0 26 -3 50 -9 53 -6
3 -9 -4 -9 -17z"/>
<path d="M1889 381 c14 -26 -8 -43 -54 -43 -43 0 -43 -22 1 -26 29 -2 94 30
94 47 0 12 -29 41 -41 41 -6 0 -6 -7 0 -19z"/>
<path d="M1490 380 c0 -5 5 -10 10 -10 6 0 10 5 10 10 0 6 -4 10 -10 10 -5 0
-10 -4 -10 -10z"/>
<path d="M1647 183 c-11 -10 -8 -43 3 -43 6 0 10 11 10 25 0 26 -2 29 -13 18z"/>
<path d="M702 960 c0 -19 2 -27 5 -17 2 9 2 25 0 35 -3 9 -5 1 -5 -18z"/>
<path d="M701 844 c0 -11 3 -14 6 -6 3 7 2 16 -1 19 -3 4 -6 -2 -5 -13z"/>
<path d="M701 693 c0 -36 3 -43 9 -28 12 28 12 75 0 75 -5 0 -10 -21 -9 -47z"/>
<path d="M1479 978 c0 -27 -2 -30 -9 -13 -6 14 -9 16 -10 5 -2 -8 -2 -19 -1
-24 1 -5 -3 -12 -10 -16 -15 -10 -15 -63 0 -68 6 -2 11 -12 11 -23 0 -37 18
-18 24 26 3 25 9 65 12 89 4 27 2 46 -5 50 -7 5 -11 -4 -12 -26z"/>
<path d="M1352 820 c0 -19 2 -27 5 -17 2 9 2 25 0 35 -3 9 -5 1 -5 -18z"/>
<path d="M304 945 c4 -24 16 -30 16 -7 0 12 -4 22 -9 22 -5 0 -8 -7 -7 -15z"/>
<path d="M232 905 c0 -16 2 -22 5 -12 2 9 2 23 0 30 -3 6 -5 -1 -5 -18z"/>
<path d="M1186 752 c-2 -4 -1 -14 5 -22 7 -12 9 -10 9 8 0 23 -5 28 -14 14z"/>
<path d="M272 740 c0 -14 2 -19 5 -12 2 6 2 18 0 25 -3 6 -5 1 -5 -13z"/>
<path d="M382 675 c-21 -16 -30 -35 -14 -35 15 1 44 29 40 40 -2 6 -11 5 -26
-5z"/>
<path d="M296 641 c-4 -7 -5 -15 -2 -18 9 -9 19 4 14 18 -4 11 -6 11 -12 0z"/>
<path d="M321 614 c0 -11 3 -14 6 -6 3 7 2 16 -1 19 -3 4 -6 -2 -5 -13z"/>
<path d="M295 580 c3 -5 8 -10 11 -10 2 0 4 5 4 10 0 6 -5 10 -11 10 -5 0 -7
-4 -4 -10z"/>
<path d="M298 450 c-3 -19 -1 -38 4 -41 19 -12 36 -59 32 -89 -4 -23 -1 -30
10 -30 12 0 16 11 16 50 0 35 4 50 13 50 31 0 61 60 38 74 -8 5 -45 -3 -83
-19 -12 -5 -17 0 -20 17 -3 18 -5 16 -10 -12z m92 -20 c0 -5 -7 -10 -16 -10
-8 0 -12 5 -9 10 3 6 10 10 16 10 5 0 9 -4 9 -10z"/>
<path d="M292 345 c1 -14 6 -25 10 -25 4 0 8 11 8 25 0 14 -4 25 -10 25 -5 0
-9 -11 -8 -25z"/>
<path d="M1217 303 c-13 -12 -7 -100 7 -112 10 -9 15 -8 19 3 4 9 2 18 -2 20
-15 10 -21 80 -8 88 7 5 8 8 1 8 -6 0 -14 -3 -17 -7z"/>
<path d="M1108 153 c7 -3 16 -2 19 1 4 3 -2 6 -13 5 -11 0 -14 -3 -6 -6z"/>
</g>
</svg>
