<?xml version="1.0" standalone="no"?>
<!DOCTYPE svg PUBLIC "-//W3C//DTD SVG 20010904//EN"
 "http://www.w3.org/TR/2001/REC-SVG-20010904/DTD/svg10.dtd">
<svg version="1.0" xmlns="http://www.w3.org/2000/svg"
 width="346.000000pt" height="194.000000pt" viewBox="0 0 346.000000 194.000000"
 preserveAspectRatio="xMidYMid meet">
<metadata>
Created by potrace 1.16, written by Peter Selinger 2001-2019
</metadata>
<g transform="translate(0.000000,194.000000) scale(0.100000,-0.100000)"
fill="#000000" stroke="none">
<path d="M190 1853 c0 -49 -4 -126 -9 -173 -5 -47 -13 -200 -16 -340 -4 -140
-8 -282 -10 -315 -1 -33 -5 -143 -9 -245 -17 -433 -16 -470 15 -470 21 0 36
20 21 29 -7 4 -7 22 -2 51 5 25 11 88 13 140 4 88 18 150 33 150 3 0 3 -16 0
-35 -4 -22 -3 -35 4 -35 5 0 10 5 10 11 0 6 8 8 19 4 20 -6 40 13 24 24 -5 3
-1 14 9 24 17 16 18 16 18 -18 0 -21 -6 -37 -16 -43 -14 -8 -14 -10 0 -25 9
-8 16 -21 16 -28 0 -7 9 -4 20 9 11 12 20 34 20 49 0 15 4 35 10 43 5 8 5 19
1 25 -37 46 0 151 48 140 15 -4 28 -1 33 7 7 10 11 9 22 -4 16 -22 26 -23 26
-3 0 8 7 15 15 15 9 0 15 -7 13 -16 -2 -10 3 -19 10 -21 7 -3 12 5 12 20 0 18
7 27 25 31 29 7 34 26 6 26 -18 0 -20 16 -10 90 4 30 -1 51 -11 45 -6 -3 -7 1
-4 9 6 16 26 23 22 9 -1 -5 2 -20 6 -35 16 -55 44 -24 54 59 1 7 9 10 17 7 11
-5 15 1 15 24 0 35 50 92 80 92 10 0 27 16 40 37 19 33 20 41 10 82 -6 25 -18
53 -25 61 -10 11 -12 28 -8 53 7 43 20 49 25 12 3 -24 4 -25 26 -10 14 10 22
26 22 43 -1 26 -1 26 -15 8 -14 -18 -15 -14 -14 45 0 35 6 100 13 144 14 81
13 100 -5 90 -8 -6 -3 151 7 183 2 6 -3 12 -10 12 -9 0 -15 -20 -19 -62 -4
-35 -13 -119 -22 -188 -8 -69 -18 -147 -21 -175 -8 -75 -14 -96 -23 -90 -11 6
-4 108 18 257 9 65 14 121 9 126 -5 5 -4 36 0 70 5 34 5 62 1 62 -11 0 -18
-31 -29 -121 -5 -41 -17 -112 -28 -159 l-20 -85 4 120 c3 66 6 148 9 183 2 34
0 62 -4 62 -14 0 -21 -40 -21 -121 0 -49 -5 -80 -12 -87 -10 -8 -12 13 -10
101 2 79 0 108 -7 97 -6 -8 -11 -49 -11 -90 0 -41 -7 -139 -15 -217 -8 -79
-22 -207 -30 -285 -8 -79 -15 -150 -15 -157 0 -10 -3 -11 -9 -5 -11 11 10 253
33 384 19 101 18 100 7 100 -5 0 -14 -24 -20 -52 -10 -52 -10 -51 -5 22 8 129
14 213 19 263 2 26 0 47 -5 47 -13 0 -18 -28 -25 -150 -10 -169 -18 -220 -36
-220 -8 0 -9 28 -5 88 17 248 18 282 9 282 -8 0 -34 -268 -33 -352 0 -21 -4
-38 -10 -38 -5 0 -13 -18 -16 -40 -9 -56 -22 -50 -18 8 9 121 11 421 4 417 -5
-3 -9 -87 -10 -187 -1 -171 -4 -211 -17 -248 -3 -8 -6 -26 -5 -40 1 -19 -1
-21 -5 -6 -5 19 -6 18 -19 -5 -13 -22 -14 -19 -9 41 2 36 7 106 9 155 3 50 8
136 12 193 5 73 3 102 -5 102 -6 0 -11 -18 -12 -42 0 -24 -7 -153 -15 -288 -8
-135 -17 -276 -19 -315 -2 -38 -9 -86 -14 -105 -7 -25 -8 33 -5 194 4 163 3
226 -5 222 -7 -5 -11 -56 -11 -142 0 -112 -2 -134 -15 -134 -10 0 -15 -11 -16
-32 -1 -18 -4 -44 -8 -58 -4 -14 -6 26 -5 88 1 63 -2 112 -7 112 -5 0 -9 -10
-9 -22 0 -28 -19 -62 -21 -38 -3 54 4 172 11 205 8 33 6 42 -7 53 -9 6 -12 12
-7 12 5 0 8 18 6 40 -6 55 7 118 19 99 7 -12 9 -11 9 3 0 9 -4 20 -10 23 -5 3
-10 12 -10 18 0 8 3 8 9 -1 5 -9 10 -1 14 25 14 79 12 83 -38 83 l-45 0 0 -87z
m465 -250 c-9 -167 -28 -343 -34 -309 -10 48 10 346 25 399 11 37 14 13 9 -90z
m134 -8 c-13 -123 -20 -131 -12 -15 5 87 10 116 18 108 2 -2 -1 -43 -6 -93z
m-99 -147 c-7 -62 -16 -126 -20 -143 -8 -27 -8 -26 -9 15 -1 78 25 257 36 246
3 -3 0 -56 -7 -118z m-172 42 c-6 -23 -12 -39 -14 -37 -6 6 9 77 16 77 4 0 3
-18 -2 -40z m-71 -62 c-3 -7 -5 -2 -5 12 0 14 2 19 5 13 2 -7 2 -19 0 -25z
m-51 -123 c-19 -107 -28 -120 -22 -34 3 35 5 77 5 92 1 16 5 26 11 22 6 -3 10
2 11 12 0 10 3 13 5 6 3 -6 -2 -50 -10 -98z m66 27 c-13 -69 -24 -234 -13
-182 l8 35 2 -41 c1 -31 -4 -44 -15 -48 -15 -6 -16 3 -11 91 6 107 27 236 35
215 2 -8 -1 -39 -6 -70z m50 -32 c-7 -37 -6 -50 2 -47 8 3 9 -16 4 -72 -3 -42
-7 -83 -7 -92 -1 -8 -8 -24 -16 -35 -9 -11 -13 -13 -10 -4 3 8 7 76 9 150 3
136 17 236 24 178 2 -14 -1 -50 -6 -78z m218 56 c0 -24 22 -51 33 -40 3 4 9
-6 13 -20 8 -33 -36 -101 -72 -110 -13 -4 -24 -11 -24 -16 0 -6 -7 -10 -16
-10 -11 0 -14 6 -8 23 4 12 11 25 16 28 5 3 11 29 12 58 3 62 16 81 16 23 0
-29 4 -42 14 -42 16 0 29 37 14 42 -14 5 -23 88 -9 88 6 0 11 -11 11 -24z
m-313 -98 c-2 -13 -4 -5 -4 17 -1 22 1 32 4 23 2 -10 2 -28 0 -40z m50 -25
c-3 -10 -5 -4 -5 12 0 17 2 24 5 18 2 -7 2 -21 0 -30z m-51 -47 c-3 -17 -8
-80 -11 -141 -7 -112 -14 -150 -16 -79 -2 82 2 210 7 237 8 38 27 22 20 -17z
m-116 -110 c-5 -5 -10 -36 -10 -67 0 -32 -4 -61 -10 -64 -5 -3 -10 2 -10 12 0
30 20 195 28 233 6 30 7 24 10 -34 2 -39 -2 -74 -8 -80z m-63 102 c-3 -8 -6
-5 -6 6 -1 11 2 17 5 13 3 -3 4 -12 1 -19z m353 -33 c-6 -30 -8 -33 -9 -13 -1
25 8 62 14 56 2 -2 -1 -21 -5 -43z m35 -30 c-4 -25 -10 -44 -12 -41 -3 3 -2
26 2 51 3 26 9 45 12 42 2 -3 1 -26 -2 -52z m-78 -7 c-3 -8 -6 -5 -6 6 -1 11
2 17 5 13 3 -3 4 -12 1 -19z m-101 -104 c-4 -9 -9 -15 -11 -12 -3 3 -3 13 1
22 4 9 9 15 11 12 3 -3 3 -13 -1 -22z m61 -16 c-3 -8 -6 -5 -6 6 -1 11 2 17 5
13 3 -3 4 -12 1 -19z m-57 -70 c0 -7 -5 -20 -10 -28 -8 -12 -10 -9 -10 13 0
15 5 27 10 27 6 0 10 -6 10 -12z m70 -28 c0 -29 -4 -40 -15 -40 -10 0 -15 10
-15 34 0 29 6 38 28 45 1 1 2 -17 2 -39z m-179 -60 l-10 -25 0 27 c-1 14 2 35
6 45 7 17 8 17 11 -2 1 -12 -2 -32 -7 -45z m122 40 c-3 -12 -8 -19 -11 -16 -5
6 5 36 12 36 2 0 2 -9 -1 -20z m-213 0 c0 -5 -5 -10 -11 -10 -5 0 -7 5 -4 10
3 6 8 10 11 10 2 0 4 -4 4 -10z m160 -9 c0 -5 -7 -11 -15 -15 -15 -5 -20 5 -8
17 9 10 23 9 23 -2z m-146 -62 c4 -23 4 -44 1 -47 -3 -3 -5 3 -5 12 0 14 -6
17 -25 14 -17 -4 -25 -1 -25 8 0 8 5 14 10 14 6 0 10 9 10 20 0 38 27 21 34
-21z m45 -12 c0 -21 -1 -21 -9 -2 -12 28 -12 37 0 30 6 -3 10 -16 9 -28z m-77
-79 c-7 -7 -12 -8 -12 -2 0 14 12 26 19 19 2 -3 -1 -11 -7 -17z m106 -49 c2
-41 0 -59 -7 -54 -12 7 -15 115 -3 115 4 0 8 -27 10 -61z"/>
<path d="M290 1768 c-17 -227 -22 -341 -10 -278 17 100 41 450 29 450 -3 0
-11 -78 -19 -172z"/>
<path d="M357 1920 c-17 -70 -35 -285 -25 -295 7 -7 42 289 36 306 -4 9 -8 5
-11 -11z"/>
<path d="M866 1873 c-3 -38 -11 -104 -17 -148 -19 -138 -22 -222 -10 -229 6
-4 11 -21 11 -38 0 -27 2 -30 25 -24 18 5 25 2 25 -9 0 -22 28 -18 35 5 6 18
8 18 21 5 17 -17 28 -20 19 -6 -3 5 -1 12 4 16 6 3 7 15 2 28 -8 22 2 143 13
154 4 4 11 2 17 -4 6 -6 17 -9 25 -6 9 3 13 -4 12 -24 0 -15 1 -32 2 -38 5
-21 -1 -35 -25 -61 -14 -15 -25 -31 -25 -36 0 -10 19 4 56 41 21 21 27 23 50
12 32 -14 39 -9 25 17 -6 12 -11 32 -11 46 0 43 -10 55 -56 62 -24 3 -44 10
-44 14 0 4 -11 11 -25 14 -24 6 -36 26 -15 26 18 0 50 44 50 70 0 14 7 35 15
46 22 29 17 43 -5 15 -11 -13 -20 -32 -20 -43 0 -10 -4 -17 -8 -14 -5 3 -5 31
-1 63 10 82 10 113 0 113 -5 0 -12 -47 -16 -106 -5 -67 -12 -109 -21 -117 -48
-43 -46 -44 -40 19 16 176 18 208 11 202 -3 -3 -13 -55 -20 -115 -8 -59 -18
-139 -24 -178 -6 -38 -13 -91 -16 -117 -4 -27 -10 -48 -15 -48 -10 0 -7 36 12
174 8 61 8 80 -2 86 -9 6 -9 27 -1 96 13 108 13 104 2 104 -5 0 -12 -30 -15
-67z m79 -295 c-4 -46 -7 -91 -7 -100 0 -9 -6 -22 -14 -29 -12 -10 -14 -6 -14
24 0 40 30 187 38 187 3 0 1 -37 -3 -82z m-88 10 c-3 -7 -5 -2 -5 12 0 14 2
19 5 13 2 -7 2 -19 0 -25z m239 -17 c2 -20 -1 -31 -9 -31 -8 0 -13 14 -12 39
0 45 16 39 21 -8z"/>
<path d="M1091 1928 c0 -7 4 -22 9 -33 7 -17 9 -15 9 13 1 17 -3 32 -9 32 -5
0 -10 -6 -9 -12z"/>
<path d="M1207 1933 c-11 -10 -8 -91 3 -98 6 -4 10 15 10 49 0 57 -1 61 -13
49z"/>
<path d="M1270 1924 c0 -8 5 -12 10 -9 6 3 10 10 10 16 0 5 -4 9 -10 9 -5 0
-10 -7 -10 -16z"/>
<path d="M1380 1900 c0 -24 5 -40 12 -40 18 0 87 34 88 43 0 5 -4 5 -10 2 -5
-3 -10 3 -10 14 0 12 -4 21 -10 21 -5 0 -10 -9 -10 -20 0 -13 -7 -20 -20 -20
-13 0 -20 7 -20 20 0 11 -4 20 -10 20 -5 0 -10 -18 -10 -40z"/>
<path d="M1500 1915 c0 -30 26 -85 40 -85 13 0 13 17 1 24 -5 4 -12 24 -16 46
-7 44 -25 54 -25 15z"/>
<path d="M1570 1896 c0 -25 5 -48 10 -51 6 -4 10 13 10 44 0 28 -4 51 -10 51
-5 0 -10 -20 -10 -44z"/>
<path d="M1626 1924 c-10 -25 -7 -102 4 -109 6 -4 10 6 10 22 0 15 3 45 6 66
7 37 -8 53 -20 21z"/>
<path d="M1686 1918 c-8 -31 -8 -143 0 -135 4 3 8 19 10 34 1 15 6 49 9 75 7
49 -7 68 -19 26z"/>
<path d="M1817 1873 c-4 -38 -7 -89 -7 -116 l0 -47 -36 15 c-20 8 -38 15 -41
15 -2 0 -3 -27 -2 -61 2 -53 -1 -64 -26 -92 -51 -58 -59 -76 -47 -101 14 -32
76 -68 92 -53 9 9 14 8 23 -4 7 -8 20 -18 30 -22 9 -3 17 -11 17 -17 0 -5 6
-10 14 -10 8 0 18 -9 21 -20 8 -25 27 -27 23 -2 -2 13 3 16 21 14 31 -3 29 0
35 -56 5 -52 9 -61 25 -51 7 4 8 13 3 23 -5 9 -6 27 -3 40 6 22 8 21 39 -20
29 -37 33 -48 27 -82 -5 -35 -4 -38 15 -33 24 6 25 -3 10 -89 -11 -62 -48
-154 -62 -154 -4 0 -8 5 -8 10 0 6 -7 10 -15 10 -10 0 -16 -16 -21 -50 -8 -57
-18 -62 -42 -20 -16 27 -22 29 -82 32 -55 3 -65 6 -70 23 -14 55 -54 84 -124
91 l-56 6 0 -39 c0 -26 7 -48 20 -63 11 -13 20 -29 20 -37 0 -7 9 -13 20 -13
11 0 20 -6 20 -13 0 -8 9 -22 20 -32 25 -23 45 -117 30 -144 -6 -11 -8 -31 -4
-45 7 -30 -20 -84 -49 -96 -17 -7 -18 -9 -4 -9 22 -1 23 -46 0 -69 -15 -16
-16 -15 -9 11 5 20 3 27 -9 27 -9 0 -15 -9 -15 -21 0 -19 -1 -19 -16 -4 -9 9
-23 14 -30 11 -8 -3 -14 -2 -14 2 0 5 16 14 36 21 19 7 33 15 30 18 -3 3 -18
1 -34 -5 -55 -19 -60 2 -13 53 24 26 40 49 37 52 -9 9 -39 -22 -77 -77 -33
-48 -62 -63 -72 -37 -4 8 -12 4 -26 -13 -37 -45 -51 -86 -51 -152 0 -34 -4
-69 -9 -77 -6 -9 -8 26 -5 92 5 101 4 107 -14 107 -11 0 -23 7 -26 16 -3 8
-10 12 -16 9 -6 -4 -10 14 -10 47 0 40 7 65 30 105 16 28 34 54 40 58 5 3 10
11 10 17 0 20 -29 -13 -61 -68 -28 -50 -50 -66 -63 -46 -6 10 82 172 95 172 5
0 9 6 9 14 0 8 6 17 13 19 8 4 8 6 0 6 -15 1 -61 -58 -102 -132 -18 -32 -36
-56 -39 -52 -8 8 -11 48 -4 60 3 5 7 27 8 48 1 22 7 44 13 50 6 6 11 16 11 22
-1 5 -11 -3 -24 -19 l-24 -29 -17 27 c-10 14 -26 26 -36 26 -17 0 -18 -5 -13
-40 6 -35 4 -39 -10 -34 -13 5 -16 0 -16 -24 0 -17 -4 -34 -10 -37 -5 -3 -14
-24 -20 -45 -9 -33 -15 -40 -35 -40 -18 0 -25 5 -25 19 0 20 -20 33 -59 37
-14 2 -38 12 -53 24 -31 22 -50 18 -89 -21 -34 -34 -14 -55 26 -25 24 17 55 9
55 -15 0 -11 -4 -19 -10 -19 -5 0 -10 5 -10 10 0 14 -27 12 -40 -2 -30 -36
-101 -140 -97 -144 2 -3 26 24 52 58 44 59 47 61 41 30 -6 -33 -5 -33 27 -31
34 4 38 -10 13 -41 -6 -8 -22 -35 -35 -60 -29 -57 0 -26 42 45 27 45 49 55 55
23 2 -9 -11 -36 -28 -62 -18 -25 -30 -51 -28 -57 2 -6 16 7 31 30 36 54 63 55
72 2 5 -29 11 -38 21 -34 17 6 37 -41 29 -68 -4 -11 -2 -19 4 -19 6 0 11 -4
11 -10 0 -5 -7 -10 -15 -10 -8 0 -15 3 -15 8 0 4 -66 8 -148 9 -81 1 -199 7
-262 13 -150 14 -331 19 -324 8 3 -4 47 -8 97 -9 51 0 101 -4 112 -9 12 -5
-37 -7 -115 -5 -163 4 -174 5 -135 15 28 7 27 8 -14 9 -34 1 -42 -2 -37 -14 3
-8 0 -15 -7 -15 -18 0 -67 -24 -67 -32 0 -22 62 -28 341 -32 319 -5 331 -6
579 -37 87 -10 206 -18 270 -17 195 3 417 -9 590 -30 175 -22 288 -30 545 -37
88 -3 201 -12 250 -20 50 -8 117 -17 150 -19 156 -12 215 -20 215 -27 0 -4 30
-10 68 -14 37 -3 85 -8 106 -10 33 -4 44 1 69 25 29 28 30 31 38 172 5 79 16
176 25 216 12 57 13 76 4 87 -9 11 -9 27 -1 62 6 27 10 76 10 110 -1 34 4 93
10 130 6 37 20 125 32 194 11 70 20 148 19 175 -1 27 2 193 6 368 5 241 4 317
-4 312 -7 -4 -12 -24 -12 -45 0 -21 -11 -92 -24 -157 -13 -66 -24 -148 -25
-184 0 -36 -4 -118 -7 -182 l-7 -117 -42 29 c-23 16 -45 36 -48 45 -10 24 -43
18 -74 -14 -16 -16 -43 -32 -61 -36 -17 -3 -42 -19 -54 -33 -13 -15 -37 -37
-55 -50 -23 -16 -41 -46 -68 -112 -21 -49 -42 -87 -47 -83 -6 3 -14 0 -19 -8
-6 -10 -12 -7 -28 13 -11 14 -33 28 -48 31 -16 3 -38 14 -50 24 -18 16 -19 21
-7 38 8 10 14 30 14 44 0 70 -46 154 -73 133 -7 -5 -46 -9 -87 -8 -59 1 -75 4
-75 16 0 26 -41 58 -84 65 -31 5 -41 11 -41 26 0 10 -4 19 -10 19 -5 0 -10 -4
-10 -10 0 -17 -29 -11 -51 11 -11 11 -27 18 -35 15 -9 -3 -24 -1 -35 5 -16 8
-19 17 -14 40 4 16 -1 53 -10 86 -15 52 -15 58 -1 69 20 14 20 16 -4 44 -14
16 -19 33 -16 49 3 15 8 78 12 141 4 63 10 125 15 138 5 12 5 22 0 22 -14 0
-30 -89 -37 -211 -6 -92 -11 -116 -27 -132 -19 -19 -19 -20 7 -71 20 -39 26
-66 26 -114 0 -61 0 -63 35 -79 35 -17 35 -17 29 -67 -3 -28 -10 -64 -14 -81
-5 -16 -19 -97 -31 -180 -12 -82 -23 -152 -26 -155 -2 -2 -1 40 3 94 6 79 4
100 -7 107 -12 7 -11 10 2 21 11 9 20 43 28 110 6 53 11 105 10 115 -1 20 -18
-34 -26 -84 -10 -65 -19 -31 -18 74 0 62 -4 108 -10 110 -6 2 -10 -38 -11
-105 -1 -93 -20 -276 -55 -532 -12 -88 -27 -140 -40 -140 -12 0 -11 9 6 100
13 64 64 437 68 495 1 11 -2 22 -7 25 -9 5 -13 -5 -30 -84 -15 -63 -15 -13 -1
85 8 57 18 214 21 349 6 215 9 249 25 276 11 17 19 41 19 53 0 29 -36 28 -44
-1 -4 -13 -11 -135 -16 -273 -11 -300 -36 -545 -56 -560 -19 -14 -51 -192 -69
-390 -17 -174 -21 -193 -35 -179 -6 6 -4 43 5 99 8 50 19 151 25 225 6 74 17
149 24 165 8 17 19 66 25 110 10 68 9 82 -3 91 -19 14 -20 59 -3 159 8 44 18
161 21 260 4 99 9 210 12 248 2 37 0 67 -5 67 -13 0 -20 -85 -27 -305 -3 -110
-10 -231 -16 -268 l-10 -68 -40 43 c-21 23 -40 49 -41 58 -3 22 11 140 33 275
21 124 26 265 12 265 -5 0 -12 -46 -15 -102 -4 -57 -15 -155 -26 -218 -11 -63
-22 -141 -26 -172 -6 -52 -9 -58 -30 -58 -13 0 -26 4 -29 8 -3 5 6 82 19 173
29 201 42 369 28 369 -11 0 -23 -77 -23 -150 0 -25 -7 -88 -15 -140 -8 -52
-20 -132 -26 -177 -7 -46 -16 -83 -20 -83 -5 0 -9 5 -9 12 0 6 -7 20 -16 30
-16 16 -15 32 5 210 22 205 26 298 12 298 -4 0 -11 -30 -14 -67z m-47 -191 c0
-9 -5 -24 -10 -32 -7 -11 -10 -5 -10 23 0 23 4 36 10 32 6 -3 10 -14 10 -23z
m18 -120 c-9 -85 -15 -112 -26 -112 -11 0 -13 15 -7 88 4 50 13 94 21 103 8 8
14 22 14 29 0 7 2 11 4 9 3 -2 0 -55 -6 -117z m-56 -19 c-1 -27 -5 -58 -8 -71
-4 -21 -5 -21 -29 -6 -34 22 -32 58 4 95 16 16 31 29 33 29 2 0 2 -21 0 -47z
m624 -265 c-4 -13 -11 -48 -17 -78 -16 -82 -26 -81 -18 2 9 82 14 98 30 98 7
0 9 -8 5 -22z m30 -75 c-12 -145 -17 -173 -32 -173 -8 0 -14 -9 -14 -21 0 -11
5 -17 10 -14 16 10 1 -70 -21 -113 -11 -20 -19 -48 -19 -62 0 -14 -5 -32 -11
-40 -12 -17 -6 53 17 215 19 131 36 199 46 183 4 -8 8 4 8 29 0 41 8 73 17 73
3 0 2 -35 -1 -77z m72 13 c-5 -17 -11 -94 -12 -171 -3 -127 -22 -255 -41 -274
-8 -7 1 81 21 198 17 103 17 158 0 86 l-12 -50 -7 92 c-8 111 -2 152 27 163
28 10 36 -5 24 -44z m829 17 c16 -16 37 -33 47 -38 17 -10 17 -15 5 -82 -14
-77 -27 -89 -24 -23 2 45 -10 60 -31 39 -14 -15 -44 -179 -44 -246 0 -24 -4
-43 -10 -43 -5 0 -10 1 -10 3 0 33 35 265 45 299 7 25 11 49 8 52 -10 10 -23
7 -23 -6 0 -6 -7 -19 -16 -29 -12 -13 -19 -49 -24 -122 -4 -58 -10 -109 -13
-113 -2 -5 -8 -38 -11 -74 -7 -69 -34 -165 -44 -155 -9 9 -2 102 13 160 8 30
19 105 25 167 14 136 24 177 51 212 11 14 22 26 24 26 2 0 16 -12 32 -27z
m-767 -29 c0 -19 5 -24 26 -24 23 0 26 -3 20 -25 -8 -35 -14 -64 -21 -107 -3
-21 -11 -37 -17 -35 -7 1 -16 -32 -24 -86 -7 -48 -18 -95 -24 -105 -10 -15
-10 -15 -6 3 10 42 18 140 11 133 -4 -4 -14 -54 -21 -110 -12 -94 -13 -97 -9
-28 6 132 25 324 36 372 11 49 29 56 29 12z m183 -36 c-3 -13 -10 -28 -15 -35
-5 -7 -6 -22 -2 -35 4 -13 7 -99 6 -193 0 -95 3 -161 7 -150 5 11 9 64 10 119
1 54 4 102 6 106 8 13 45 -1 45 -16 0 -8 -4 -14 -9 -14 -5 0 -8 -45 -5 -102 2
-57 4 -117 4 -133 0 -29 3 -32 67 -49 64 -17 67 -17 92 2 14 10 41 19 59 20
17 0 41 3 51 7 14 4 21 0 26 -14 3 -10 14 -21 24 -24 10 -2 27 -22 38 -43 12
-23 29 -41 44 -44 13 -3 25 -13 27 -22 4 -21 -47 -78 -55 -60 -7 17 -32 15
-39 -3 -8 -20 -33 -19 -94 5 -28 11 -66 20 -85 20 -19 0 -37 5 -41 11 -3 6
-15 9 -25 6 -11 -3 -20 0 -20 6 -1 7 -5 -6 -8 -28 l-6 -40 -22 23 c-13 12 -23
17 -23 10 0 -17 31 -48 49 -48 20 -1 66 -39 74 -62 9 -26 41 -24 34 2 -3 13 0
20 9 20 8 0 14 -6 14 -12 1 -22 47 -71 54 -59 14 22 27 10 24 -20 -3 -28 1
-32 37 -45 22 -8 58 -18 80 -22 28 -5 43 -15 52 -32 7 -14 23 -34 37 -45 23
-19 30 -35 27 -60 -1 -13 -127 -7 -153 7 -10 5 -18 18 -18 28 0 11 -5 20 -11
20 -13 0 -54 49 -54 65 0 5 -8 11 -18 13 -14 3 -17 -1 -12 -21 9 -35 -33 -99
-60 -93 -99 24 -301 45 -480 51 -60 2 -114 4 -119 5 -5 0 -2 8 5 18 11 14 10
14 -8 -2 -22 -18 -26 -18 -135 -2 -62 9 -131 16 -153 15 -51 -2 -218 20 -228
30 -4 4 -10 26 -13 49 -7 52 7 72 49 70 44 -1 167 80 167 110 0 7 6 12 13 9 6
-2 11 -14 9 -25 -2 -15 2 -22 12 -22 11 0 16 10 16 31 0 16 5 50 11 74 8 33
16 44 34 48 20 3 25 -1 30 -24 4 -16 3 -38 0 -50 -6 -16 -3 -20 11 -17 11 2
19 14 21 32 2 16 9 38 14 49 10 17 12 17 28 3 10 -9 25 -16 34 -16 11 0 14 -5
10 -17 -7 -17 -5 -17 17 -2 13 9 28 31 33 50 8 30 10 32 22 16 18 -25 44 -21
55 8 5 14 14 25 19 25 5 0 7 9 4 20 -4 17 -1 20 21 18 20 -2 26 -8 26 -25 0
-28 26 -41 51 -25 15 9 20 8 28 -6 9 -16 10 -16 16 1 4 9 4 24 1 33 -3 8 1 29
10 46 10 19 12 33 6 37 -6 4 -7 25 -1 56 4 28 8 99 8 160 1 60 7 133 13 162
11 46 16 53 36 53 21 0 23 -4 18 -22 -4 -13 -13 -84 -21 -158 -7 -74 -18 -148
-25 -164 -12 -32 -6 -61 10 -51 6 4 10 -6 10 -24 0 -16 4 -33 10 -36 6 -4 5
-13 -2 -25 -17 -26 -28 -6 -21 37 4 21 2 33 -6 33 -6 0 -11 -16 -11 -37 0 -21
-4 -44 -9 -52 -6 -9 -3 -20 7 -32 18 -21 52 -26 52 -8 0 8 5 8 15 -1 19 -16
45 3 45 34 0 16 2 18 9 7 8 -12 12 -12 25 -2 25 21 20 42 -8 35 -14 -3 -27 -1
-31 6 -4 6 -7 72 -6 146 1 74 -3 134 -7 134 -5 0 -11 -49 -14 -109 -3 -59 -10
-117 -16 -127 -10 -17 -12 -16 -13 11 -2 60 2 201 7 253 5 45 9 51 21 40 13
-10 14 -6 8 34 -7 49 6 88 29 88 10 0 12 -7 9 -22z m53 -55 c4 -38 1 -54 -15
-78 l-21 -30 0 77 c0 42 3 84 6 93 6 16 8 16 16 1 5 -9 11 -37 14 -63z m404
50 c0 -10 -5 -36 -11 -58 -15 -62 -38 -225 -39 -280 -1 -57 -19 -117 -37 -122
-15 -5 -7 112 12 172 7 22 13 74 14 115 1 42 8 97 16 123 8 26 12 47 9 47 -3
0 -2 5 1 10 10 17 35 11 35 -7z m-85 -85 c-8 -29 -16 -64 -18 -78 -2 -14 -5
-1 -6 28 -1 56 -6 62 -28 35 -12 -16 -12 -15 -3 7 9 21 24 34 67 59 0 1 -5
-23 -12 -51z m296 -5 c-9 -16 -10 -16 -11 -1 0 9 3 25 7 35 7 16 8 17 11 1 2
-10 -1 -25 -7 -35z m-1727 -80 c3 -21 9 -49 13 -63 5 -23 3 -22 -30 12 -45 45
-51 88 -13 88 19 0 25 -6 30 -37z m1722 -5 c-4 -24 -12 -77 -20 -118 -13 -70
-14 -72 -15 -29 -1 45 26 189 36 189 2 0 2 -19 -1 -42z m-1139 10 c-3 -8 -6
-5 -6 6 -1 11 2 17 5 13 3 -3 4 -12 1 -19z m770 0 c-3 -8 -6 -5 -6 6 -1 11 2
17 5 13 3 -3 4 -12 1 -19z m320 -15 c-3 -10 -5 -4 -5 12 0 17 2 24 5 18 2 -7
2 -21 0 -30z m-1598 -67 c0 -28 -3 -44 -6 -36 -3 8 -12 23 -20 32 -11 12 -13
28 -8 55 6 35 8 37 21 18 8 -11 14 -40 13 -69z m688 62 c-3 -8 -6 -5 -6 6 -1
11 2 17 5 13 3 -3 4 -12 1 -19z m130 -107 c-4 -65 -10 -127 -14 -136 -16 -43
-20 24 -7 125 7 58 13 111 14 118 0 6 3 12 7 12 3 0 3 -53 0 -119z m479 -26
l-15 -70 5 80 c3 44 8 94 12 110 15 64 13 -48 -2 -120z m-799 78 c-3 -10 -5
-2 -5 17 0 19 2 27 5 18 2 -10 2 -26 0 -35z m599 0 c-3 -21 -6 -75 -6 -121 0
-53 -4 -81 -10 -77 -5 3 -10 1 -10 -5 0 -6 -5 -8 -10 -5 -6 4 -8 38 -4 91 5
59 4 84 -4 84 -17 0 20 69 37 70 10 0 12 -9 7 -37z m-689 -20 c-3 -10 -5 -4
-5 12 0 17 2 24 5 18 2 -7 2 -21 0 -30z m755 -72 c-4 -76 -20 -137 -33 -124
-5 5 -6 54 -2 110 5 91 8 100 22 91 14 -8 16 -23 13 -77z m-1027 32 c-4 -27
-15 -111 -25 -188 l-19 -140 5 130 c7 193 13 245 30 245 12 0 13 -10 9 -47z
m-55 18 c0 -30 -23 -121 -30 -121 -7 0 -2 104 5 128 7 19 25 14 25 -7z m406
-86 c-17 -95 -33 -132 -22 -50 4 28 9 68 12 90 6 50 15 74 21 58 2 -6 -3 -50
-11 -98z m-220 48 c-10 -26 -18 -8 -9 23 5 21 8 24 11 11 2 -10 1 -25 -2 -34z
m964 29 c0 -26 -29 -132 -41 -151 -11 -17 -6 104 7 147 8 26 34 30 34 4z
m-1025 -64 c-6 -45 -28 -280 -29 -323 -1 -21 5 -32 22 -41 23 -11 23 -11 -13
-38 -40 -31 -73 -31 -37 -1 25 22 30 47 8 39 -13 -5 -14 6 -9 68 4 47 11 77
21 84 12 9 14 32 8 139 -3 70 -9 132 -13 138 -3 6 6 2 21 -9 23 -16 26 -24 21
-56z m192 35 c-3 -10 -5 -4 -5 12 0 17 2 24 5 18 2 -7 2 -21 0 -30z m-50 5
c-3 -8 -6 -5 -6 6 -1 11 2 17 5 13 3 -3 4 -12 1 -19z m295 -15 c-5 -59 -10
-63 -11 -10 -1 26 3 47 7 47 4 0 6 -17 4 -37z m-33 -63 c-12 -102 -16 -117
-29 -104 -7 7 -3 42 11 102 12 51 23 91 25 90 1 -2 -2 -41 -7 -88z m647 15
c-3 -59 -16 -89 -16 -38 0 33 10 93 16 93 2 0 2 -25 0 -55z m-919 13 c-3 -7
-5 -2 -5 12 0 14 2 19 5 13 2 -7 2 -19 0 -25z m978 -17 c-4 -23 -11 -41 -17
-41 -6 0 -7 9 -3 23 3 12 9 32 12 45 9 38 15 16 8 -27z m-1825 -13 c0 -12 -10
-9 -26 6 -20 21 -17 28 6 14 11 -7 20 -16 20 -20z m847 -20 c-3 -7 -5 -2 -5
12 0 14 2 19 5 13 2 -7 2 -19 0 -25z m-107 -5 c0 -20 -3 -24 -11 -16 -7 7 -9
19 -6 27 10 24 17 19 17 -11z m267 -15 c-3 -8 -6 -5 -6 6 -1 11 2 17 5 13 3
-3 4 -12 1 -19z m209 -5 c-10 -10 -19 5 -10 18 6 11 8 11 12 0 2 -7 1 -15 -2
-18z m-55 -56 c-6 -6 -14 -7 -18 -2 -5 4 -2 10 5 12 6 3 13 19 14 36 l1 32 4
-34 c3 -18 0 -38 -6 -44z m128 11 c1 -12 -4 -15 -14 -12 -16 7 -19 31 -8 61 6
16 8 15 14 -7 4 -14 7 -33 8 -42z m768 40 c-3 -8 -6 -5 -6 6 -1 11 2 17 5 13
3 -3 4 -12 1 -19z m-2092 -38 c-4 -17 -9 -29 -12 -26 -3 2 -2 19 2 36 4 17 9
29 12 26 3 -2 2 -19 -2 -36z m558 15 c-5 -13 -23 -22 -23 -11 0 15 14 35 21
31 4 -3 6 -12 2 -20z m934 -32 c-16 -16 -17 -15 -17 17 0 32 1 33 17 17 16
-16 16 -18 0 -34z m582 -7 c-9 -8 -10 -7 -5 7 3 10 7 24 7 30 1 7 3 4 6 -7 3
-10 -1 -23 -8 -30z m-139 18 c0 -8 -5 -12 -10 -9 -6 4 -8 11 -5 16 9 14 15 11
15 -7z m-2126 -27 c15 -24 -3 -35 -20 -13 -8 11 -14 24 -14 29 0 13 22 3 34
-16z m986 13 c0 -5 -4 -10 -10 -10 -5 0 -10 5 -10 10 0 6 5 10 10 10 6 0 10
-4 10 -10z m-231 -47 c0 -40 -2 -44 -10 -25 -8 21 -3 72 7 72 2 0 4 -21 3 -47z
m1431 28 c0 -11 5 -23 10 -26 15 -9 12 -25 -5 -25 -8 0 -15 7 -15 15 0 7 -8
19 -17 24 -16 9 -16 12 -3 21 22 15 30 12 30 -9z m-933 -23 c-3 -7 -5 -2 -5
12 0 14 2 19 5 13 2 -7 2 -19 0 -25z m-1033 -110 c-2 -72 -6 -133 -8 -135 -9
-9 -22 82 -14 94 5 6 9 31 9 55 0 62 6 118 13 118 2 0 2 -59 0 -132z m1086
115 c0 -10 -5 -25 -10 -33 -7 -11 -10 -7 -10 18 0 17 5 32 10 32 6 0 10 -8 10
-17z m-1333 -25 c-3 -8 -6 -5 -6 6 -1 11 2 17 5 13 3 -3 4 -12 1 -19z m1110 0
c-3 -8 -6 -5 -6 6 -1 11 2 17 5 13 3 -3 4 -12 1 -19z m-797 3 c0 -19 -28 -62
-34 -52 -4 5 -2 12 4 16 5 3 10 15 10 26 0 10 5 19 10 19 6 0 10 -4 10 -9z
m-240 -51 c0 -20 -2 -22 -10 -10 -5 8 -10 26 -10 40 0 20 2 22 10 10 5 -8 10
-26 10 -40z m926 -6 c-4 -20 -10 -34 -12 -31 -3 3 -2 21 2 41 3 21 9 35 11 32
3 -3 2 -21 -1 -42z m-976 15 c0 -5 -4 -9 -10 -9 -5 0 -10 7 -10 16 0 8 5 12
10 9 6 -3 10 -10 10 -16z m711 -6 c-8 -15 -10 -15 -11 -2 0 17 10 32 18 25 2
-3 -1 -13 -7 -23z m-432 -218 c2 -5 3 -17 2 -25 -1 -10 -6 -8 -16 8 -12 16
-15 43 -14 109 4 121 13 127 19 13 3 -52 7 -99 9 -105z m480 93 c-1 -62 -4
-85 -9 -68 -12 37 -12 160 0 160 6 0 10 -37 9 -92z m1491 78 c0 -8 -4 -18 -10
-21 -5 -3 -10 3 -10 14 0 12 5 21 10 21 6 0 10 -6 10 -14z m-1768 -83 c-5 -98
-21 -150 -22 -68 0 66 11 155 20 155 3 0 4 -39 2 -87z m375 15 c-2 -13 -4 -5
-4 17 -1 22 1 32 4 23 2 -10 2 -28 0 -40z m1028 14 c-8 -9 -35 20 -28 31 4 6
11 3 19 -8 8 -10 12 -21 9 -23z m105 28 c0 -5 -2 -10 -4 -10 -3 0 -8 5 -11 10
-3 6 -1 10 4 10 6 0 11 -4 11 -10z m-1290 -60 c0 -27 -4 -50 -10 -50 -5 0 -10
23 -10 50 0 28 5 50 10 50 6 0 10 -22 10 -50z m1260 28 c0 -16 -3 -19 -11 -11
-6 6 -8 16 -5 22 11 17 16 13 16 -11z m-1623 -25 c-3 -10 -5 -4 -5 12 0 17 2
24 5 18 2 -7 2 -21 0 -30z m283 27 c0 -5 -4 -10 -10 -10 -5 0 -10 5 -10 10 0
6 5 10 10 10 6 0 10 -4 10 -10z m1600 -37 c0 -35 -3 -44 -10 -33 -13 20 -13
80 0 80 6 0 10 -21 10 -47z m-2170 33 c0 -3 -4 -8 -10 -11 -5 -3 -10 -1 -10 4
0 6 5 11 10 11 6 0 10 -2 10 -4z m260 -6 c0 -5 -5 -10 -11 -10 -5 0 -7 5 -4
10 3 6 8 10 11 10 2 0 4 -4 4 -10z m1700 -27 c0 -21 -3 -24 -9 -14 -5 8 -7 20
-4 28 8 21 13 15 13 -14z m110 -18 c0 -19 -4 -35 -10 -35 -11 0 -14 53 -3 63
11 12 13 8 13 -28z m-1673 -17 c-3 -7 -5 -2 -5 12 0 14 2 19 5 13 2 -7 2 -19
0 -25z m-287 13 c0 -6 -4 -13 -10 -16 -5 -3 -10 1 -10 9 0 9 5 16 10 16 6 0
10 -4 10 -9z m167 -28 c-3 -10 -5 -4 -5 12 0 17 2 24 5 18 2 -7 2 -21 0 -30z
m110 -25 c-3 -8 -6 -5 -6 6 -1 11 2 17 5 13 3 -3 4 -12 1 -19z m-100 -20 c-3
-8 -6 -5 -6 6 -1 11 2 17 5 13 3 -3 4 -12 1 -19z m-161 -25 c-5 -6 -76 -9 -76
-3 0 14 14 19 26 9 9 -8 16 -4 25 13 12 22 12 22 19 3 4 -11 7 -21 6 -22z
m1944 23 c0 -8 -4 -18 -10 -21 -5 -3 -10 3 -10 14 0 12 5 21 10 21 6 0 10 -6
10 -14z m95 4 c3 -5 1 -10 -4 -10 -6 0 -11 5 -11 10 0 6 2 10 4 10 3 0 8 -4
11 -10z m-2582 -17 c-13 -2 -33 -2 -45 0 -13 2 -3 4 22 4 25 0 35 -2 23 -4z
m1002 -23 c3 -5 1 -10 -4 -10 -6 0 -11 5 -11 10 0 6 2 10 4 10 3 0 8 -4 11
-10z m152 -22 c-3 -7 -5 -2 -5 12 0 14 2 19 5 13 2 -7 2 -19 0 -25z m1503 -78
c0 -5 -2 -10 -4 -10 -3 0 -8 5 -11 10 -3 6 -1 10 4 10 6 0 11 -4 11 -10z
m-260 -39 c-6 -12 -20 -21 -32 -21 -18 0 -19 2 -7 18 35 44 63 46 39 3z m-290
-6 c0 -8 -4 -15 -10 -15 -5 0 -7 7 -4 15 4 8 8 15 10 15 2 0 4 -7 4 -15z m340
-6 c14 -24 9 -32 -14 -23 -17 7 -23 44 -6 44 5 0 14 -9 20 -21z"/>
<path d="M2351 1093 c0 -25 1 -26 9 -8 12 27 12 35 0 35 -5 0 -10 -12 -9 -27z"/>
<path d="M2522 1127 c-16 -19 -42 -136 -32 -142 5 -3 11 13 15 35 4 22 11 40
15 40 10 0 25 68 18 76 -3 2 -10 -2 -16 -9z"/>
<path d="M2631 451 c-13 -44 -19 -50 -71 -68 -30 -11 -37 -10 -55 6 -34 31
-65 44 -79 32 -14 -12 -58 -11 -67 2 -11 16 -31 -4 -25 -26 3 -12 -6 -37 -26
-66 l-30 -46 51 55 c51 56 67 59 31 5 -29 -44 -24 -54 7 -13 15 19 38 42 51
52 22 17 24 17 36 0 8 -10 18 -14 26 -9 10 6 12 0 8 -23 -4 -27 -2 -30 13 -21
26 14 33 -6 13 -38 -12 -19 -3 -14 27 17 24 25 56 53 71 63 17 11 31 32 38 58
15 55 -3 73 -19 20z"/>
<path d="M2406 324 c-16 -19 -27 -37 -24 -39 3 -3 19 13 37 35 17 22 28 40 24
39 -4 0 -21 -16 -37 -35z"/>
<path d="M2475 249 c-4 -6 -5 -12 -2 -15 2 -3 7 2 10 11 7 17 1 20 -8 4z"/>
<path d="M2340 239 c0 -5 5 -7 10 -4 6 3 10 8 10 11 0 2 -4 4 -10 4 -5 0 -10
-5 -10 -11z"/>
<path d="M2345 1928 c-2 -7 -4 -20 -3 -28 4 -30 -21 -252 -38 -342 -5 -26 -3
-28 30 -28 24 0 36 -5 36 -13 0 -18 32 -47 51 -47 20 0 45 110 31 137 -8 14
-5 28 14 58 30 50 30 51 -3 67 -32 15 -29 34 5 31 19 -2 21 1 12 11 -6 8 -20
11 -32 8 -20 -5 -21 -2 -16 77 3 56 1 80 -6 78 -15 -5 -26 -189 -19 -322 6
-104 5 -109 -12 -95 -9 8 -27 19 -39 25 -16 8 -21 20 -20 45 0 39 21 255 30
313 4 24 2 37 -5 37 -7 0 -14 -6 -16 -12z m105 -227 c0 -10 -9 -26 -21 -37
-20 -18 -20 -18 -14 11 11 50 14 57 25 50 5 -3 10 -14 10 -24z"/>
<path d="M2505 1913 c-4 -16 -8 -39 -11 -52 -8 -38 7 -111 22 -111 11 0 12 7
7 28 -5 15 -8 45 -8 67 0 22 3 52 8 68 4 16 3 27 -3 27 -5 0 -12 -12 -15 -27z"/>
<path d="M2563 1913 c-9 -33 -10 -139 -1 -148 3 -3 34 -8 68 -10 35 -3 66 -7
68 -10 12 -12 32 21 32 52 0 19 5 43 10 53 16 30 96 73 123 66 32 -8 317 -22
392 -19 197 7 200 8 203 26 3 16 -17 17 -304 17 l-306 0 -60 -27 c-35 -15 -65
-37 -74 -52 -11 -19 -14 -21 -11 -6 3 11 8 28 12 38 4 9 3 17 -3 17 -17 0 -32
-58 -22 -86 14 -37 13 -41 -15 -47 -44 -8 -52 25 -29 117 4 16 2 26 -5 26 -14
0 -33 -73 -29 -112 4 -40 -19 -49 -32 -13 -9 25 -8 56 6 123 6 32 -14 27 -23
-5z"/>
<path d="M1745 1868 c-8 -63 -4 -123 9 -123 4 0 10 39 12 88 5 96 -10 121 -21
35z"/>
<path d="M1220 1813 c-21 -27 -22 -27 -36 -9 -7 11 -17 17 -20 13 -4 -4 -13
-2 -21 4 -9 8 -13 8 -13 1 0 -6 15 -18 33 -25 61 -28 64 -27 77 4 17 40 7 46
-20 12z"/>
<path d="M3126 1768 c-30 -17 -89 -79 -82 -85 12 -12 -27 -43 -54 -43 -14 0
-30 -4 -35 -9 -6 -5 -27 -11 -48 -14 -23 -3 -47 -15 -62 -31 -26 -28 -50 -26
-60 5 -8 23 -23 25 -32 2 -4 -10 2 -23 15 -34 12 -9 22 -19 22 -22 0 -3 -16
-29 -35 -58 -44 -67 -46 -88 -3 -28 33 44 70 80 76 74 2 -2 -15 -28 -37 -58
-67 -89 -46 -76 34 22 42 50 79 91 84 91 5 0 -18 -41 -51 -90 -33 -50 -58 -96
-56 -101 2 -6 23 19 47 56 46 72 117 155 133 155 5 0 1 -11 -9 -24 -70 -90
-128 -176 -120 -176 2 0 25 26 50 58 25 31 59 73 76 92 17 19 31 40 31 46 0 9
13 18 63 42 4 2 -12 -28 -37 -67 -26 -39 -46 -75 -46 -79 1 -11 35 34 87 113
25 39 62 89 81 113 29 35 33 45 21 53 -18 11 -30 11 -53 -3z m24 -23 c0 -3 -5
-11 -10 -18 -6 -7 -17 -21 -25 -32 -7 -11 -17 -17 -20 -13 -4 4 3 20 16 37 22
28 39 39 39 26z"/>
<path d="M1680 1762 c0 -4 9 -13 20 -20 19 -12 20 -11 8 8 -13 20 -28 27 -28
12z"/>
<path d="M1470 1646 c0 -9 7 -16 16 -16 9 0 14 5 12 12 -6 18 -28 21 -28 4z"/>
<path d="M1457 1615 c3 -9 -1 -23 -9 -33 -21 -24 -98 -167 -98 -181 0 -22 20
0 48 51 28 52 30 56 71 122 20 31 21 40 10 47 -21 13 -29 11 -22 -6z"/>
<path d="M1330 1601 c0 -4 9 -20 21 -35 19 -24 19 -27 4 -42 -15 -15 -55 -87
-55 -99 0 -19 19 3 40 47 14 29 36 58 52 67 29 17 43 39 32 50 -4 3 -9 0 -11
-6 -7 -20 -41 -15 -48 7 -6 19 -35 29 -35 11z"/>
<path d="M1106 1477 c3 -10 9 -15 12 -12 3 3 0 11 -7 18 -10 9 -11 8 -5 -6z"/>
<path d="M1453 1315 c-3 -9 -3 -19 1 -22 3 -4 -6 -26 -20 -50 -14 -25 -24 -47
-21 -49 3 -3 13 8 23 25 10 17 22 31 26 31 11 0 4 -51 -10 -77 -14 -26 -15
-33 -3 -33 5 0 11 10 15 23 7 30 53 83 63 74 4 -4 -4 -28 -17 -52 -13 -24 -22
-47 -18 -50 3 -3 19 18 36 47 28 50 72 101 72 83 0 -5 -16 -32 -36 -61 -20
-29 -33 -57 -29 -63 3 -6 11 -9 16 -5 5 3 7 10 4 15 -3 5 9 29 28 53 31 42 34
43 43 22 8 -17 3 -30 -23 -67 -37 -52 -39 -59 -19 -59 8 0 16 10 19 23 4 12
22 39 41 59 30 32 40 37 66 32 24 -5 30 -3 30 11 0 14 -7 16 -45 12 -42 -6
-45 -4 -45 17 0 18 -7 25 -31 30 -19 3 -38 1 -46 -5 -7 -7 -31 -12 -53 -13
-35 -2 -39 0 -34 17 4 14 3 17 -6 12 -9 -5 -10 -2 -5 14 7 24 -12 30 -22 6z"/>
<path d="M870 1238 c0 -19 5 -28 16 -28 13 0 13 -3 -4 -17 -44 -39 -129 -183
-108 -183 7 0 96 138 96 149 0 10 31 31 45 31 4 0 -2 -12 -13 -27 -44 -64 -94
-158 -74 -140 11 11 36 44 54 74 37 63 72 103 88 103 6 0 -2 -19 -18 -42 -38
-56 -102 -183 -102 -204 0 -27 25 -9 25 18 1 28 86 176 124 214 13 13 31 24
40 24 10 0 22 5 29 12 6 6 15 9 18 5 4 -4 -9 -24 -28 -45 -31 -34 -82 -104
-103 -142 -17 -30 37 25 73 75 20 27 47 58 59 68 13 10 23 26 23 36 0 9 5 22
10 27 15 15 -67 2 -98 -15 -18 -10 -26 -10 -38 0 -11 9 -17 9 -29 -1 -17 -14
-54 -4 -72 19 -11 14 -12 12 -13 -11z"/>
<path d="M1190 1231 c0 -4 -11 -25 -25 -46 -15 -20 -24 -39 -22 -42 3 -2 19
19 36 46 17 28 26 51 21 51 -6 0 -10 -4 -10 -9z"/>
<path d="M1677 1173 c-4 -3 -7 -20 -6 -37 l1 -31 9 34 c10 33 8 47 -4 34z"/>
<path d="M1390 1160 c0 -10 26 -20 34 -13 11 12 6 19 -14 20 -11 1 -20 -2 -20
-7z"/>
<path d="M2800 1084 c0 -14 4 -23 10 -19 6 3 10 15 10 26 0 10 -4 19 -10 19
-5 0 -10 -12 -10 -26z"/>
<path d="M1308 838 c-10 -12 -18 -27 -18 -33 1 -12 40 33 40 46 0 13 -3 11
-22 -13z"/>
<path d="M1407 803 c-4 -3 -7 -11 -7 -17 0 -6 5 -5 12 2 6 6 9 14 7 17 -3 3
-9 2 -12 -2z"/>
<path d="M1262 769 c-19 -30 -8 -34 12 -4 9 14 13 25 9 25 -5 0 -14 -9 -21
-21z"/>
<path d="M1436 761 c-11 -12 -17 -23 -15 -25 8 -8 41 23 37 34 -2 7 -11 3 -22
-9z"/>
<path d="M252 534 c-1 -14 2 -23 8 -19 12 7 14 45 2 45 -4 0 -9 -11 -10 -26z"/>
<path d="M727 463 c-4 -3 -7 -13 -7 -22 1 -13 3 -13 11 2 11 19 8 33 -4 20z"/>
<path d="M773 438 c-15 -18 -35 -58 -29 -58 2 0 13 16 25 35 20 35 22 46 4 23z"/>
<path d="M820 390 c0 -5 5 -10 11 -10 5 0 7 5 4 10 -3 6 -8 10 -11 10 -2 0 -4
-4 -4 -10z"/>
<path d="M158 98 c-2 -5 -29 -12 -61 -15 -56 -6 -71 -15 -42 -27 8 -3 15 -17
15 -30 l0 -25 310 -1 c200 0 310 4 310 10 0 6 7 10 16 10 8 0 13 -4 10 -9 -4
-5 245 -9 607 -9 418 0 568 3 472 9 -77 4 -225 13 -330 19 -104 7 -334 16
-510 21 -176 5 -329 9 -339 9 -11 1 -27 5 -37 11 -35 19 -416 43 -421 27z m78
-63 c18 -15 18 -15 -10 -13 -16 2 -31 9 -34 16 -5 17 20 15 44 -3z m-46 -15
c0 -5 -4 -10 -10 -10 -5 0 -10 5 -10 10 0 6 5 10 10 10 6 0 10 -4 10 -10z"/>
<path d="M3436 32 c-3 -6 -1 -14 5 -17 15 -10 25 3 12 16 -7 7 -13 7 -17 1z"/>
</g>
</svg>
