<?xml version="1.0" standalone="no"?>
<!DOCTYPE svg PUBLIC "-//W3C//DTD SVG 20010904//EN"
 "http://www.w3.org/TR/2001/REC-SVG-20010904/DTD/svg10.dtd">
<svg version="1.0" xmlns="http://www.w3.org/2000/svg"
 width="296.000000pt" height="258.000000pt" viewBox="0 0 296.000000 258.000000"
 preserveAspectRatio="xMidYMid meet">
<metadata>
Created by potrace 1.16, written by Peter Selinger 2001-2019
</metadata>
<g transform="translate(0.000000,258.000000) scale(0.100000,-0.100000)"
fill="#000000" stroke="none">
<path d="M488 2549 c-10 -6 -18 -20 -18 -33 0 -23 -3 -24 -97 -27 -54 -2 -119
-3 -145 -3 -27 1 -48 -2 -48 -5 1 -19 21 -32 46 -30 35 4 37 -5 13 -53 -26
-51 -11 -47 29 7 39 53 60 60 31 10 -12 -19 -27 -35 -35 -35 -8 0 -14 -9 -14
-21 0 -22 8 -19 47 15 13 11 23 25 23 31 0 12 32 45 43 45 17 0 5 -39 -18 -60
-32 -30 -32 -38 1 -32 23 4 75 42 59 42 -3 0 2 11 11 25 13 20 25 25 55 25 49
0 50 -15 3 -61 -19 -18 -61 -65 -92 -104 -84 -104 -102 -122 -102 -105 0 7
-14 -8 -31 -36 -17 -27 -37 -54 -46 -61 -11 -9 -12 -16 -4 -30 9 -16 10 -16
11 -1 0 9 6 21 13 25 15 9 168 180 215 239 30 39 72 64 72 43 0 -16 19 -9 24
9 6 18 79 72 98 72 12 0 -45 -79 -84 -117 -23 -22 -28 -24 -22 -8 7 18 6 19
-10 6 -10 -8 -26 -31 -36 -51 -10 -20 -33 -52 -50 -70 -19 -20 -27 -36 -20
-38 14 -5 50 26 50 43 0 7 10 20 22 31 21 19 21 18 -2 -21 -13 -22 -28 -47
-34 -55 -16 -21 -46 -77 -46 -84 0 -17 17 -2 29 27 17 38 153 238 159 233 4
-4 -66 -118 -88 -143 -5 -7 -10 -14 -10 -17 0 -2 -18 -35 -40 -74 -22 -38 -40
-72 -40 -76 0 -16 21 7 39 42 11 20 40 61 66 91 35 41 43 56 33 62 -10 7 -9 9
3 9 20 0 169 182 169 206 0 14 -40 -29 -101 -112 -35 -46 -65 -82 -67 -80 -7
8 129 191 146 197 19 7 52 0 52 -11 0 -4 -12 -19 -27 -34 -14 -14 -23 -29 -20
-32 9 -9 53 24 67 51 10 19 21 25 47 25 18 0 33 -3 33 -6 0 -3 -47 -54 -105
-112 -90 -91 -105 -103 -99 -77 4 17 18 40 31 52 23 22 28 35 17 46 -8 8 -84
-92 -143 -188 -45 -74 -139 -177 -152 -169 -4 2 -13 -5 -19 -16 -7 -13 -7 -20
0 -20 5 0 10 4 10 8 0 5 11 14 25 20 30 14 31 7 5 -35 -11 -18 -16 -33 -12
-33 4 1 25 30 47 66 22 36 51 75 64 87 l25 22 -17 -27 c-9 -16 -24 -39 -33
-53 -9 -14 -14 -28 -11 -31 3 -3 12 5 20 18 8 12 34 55 58 95 24 40 49 73 54
73 6 1 29 24 53 51 58 69 53 52 -9 -27 -28 -36 -48 -68 -44 -72 3 -4 10 0 15
8 5 8 16 24 24 35 16 20 16 20 9 0 -10 -26 -84 -138 -97 -147 -21 -14 -17 2 8
35 14 19 26 38 26 42 0 14 -39 -27 -62 -63 -18 -30 -19 -36 -7 -46 8 -6 13
-20 11 -31 -3 -12 9 -2 29 24 19 24 45 51 59 60 l25 16 -27 -45 c-14 -25 -45
-81 -68 -125 -92 -173 -99 -183 -148 -208 -74 -38 -112 -61 -112 -70 0 -16 68
15 151 68 126 82 136 90 181 170 25 44 44 82 41 85 -2 2 -8 -2 -12 -10 -38
-66 -80 -120 -117 -148 -24 -18 -44 -31 -44 -28 0 2 21 41 47 87 57 100 68
121 110 197 19 36 72 99 138 165 59 59 110 107 113 107 3 0 -5 -11 -17 -24
-14 -15 -19 -26 -12 -31 8 -4 6 -16 -5 -36 -8 -17 -18 -28 -21 -25 -3 3 0 12
7 20 6 9 10 21 8 27 -2 7 -33 -33 -70 -87 -100 -152 -119 -185 -116 -196 4
-10 64 75 78 109 4 9 9 7 17 -6 9 -15 0 -40 -55 -151 l-67 -133 -59 -31 c-33
-17 -66 -36 -73 -43 -7 -7 -36 -24 -63 -39 -28 -15 -50 -31 -50 -36 0 -13 12
-10 44 11 17 11 34 18 38 15 5 -3 22 6 40 21 46 39 108 69 108 52 0 -23 -40
-50 -180 -124 -57 -31 -140 -53 -140 -39 0 3 18 15 41 26 66 34 36 35 -35 1
-37 -17 -73 -31 -81 -31 -26 0 -16 15 18 29 17 7 27 15 20 17 -6 3 -30 -4 -52
-15 -22 -12 -48 -21 -58 -21 -17 1 -17 1 0 14 9 7 17 16 17 20 0 10 -44 -5
-52 -18 -5 -6 -8 -2 -8 10 0 22 19 42 61 63 48 24 124 87 128 106 4 22 5 22
-98 -57 -34 -27 -66 -48 -71 -48 -17 0 -11 20 8 27 31 13 55 42 57 73 3 38 0
38 -21 -2 -17 -33 -41 -57 -58 -58 -4 0 -5 53 -1 118 6 113 6 143 6 337 0 152
0 158 26 178 12 10 23 26 23 34 0 13 -5 12 -25 -7 l-25 -23 0 26 c0 26 11 33
48 28 13 -2 33 38 25 51 -4 8 -55 -12 -65 -26 -4 -6 -6 11 -5 36 2 57 -7 68
-33 40 -11 -11 -16 -23 -11 -27 6 -3 6 -18 1 -36 -5 -17 -9 -99 -10 -182 0
-84 -3 -224 -5 -312 -3 -88 -7 -243 -10 -345 -5 -268 -24 -693 -36 -855 -24
-298 -20 -652 6 -569 6 21 12 22 121 20 96 -1 113 1 111 14 -2 17 19 18 96 5
26 -4 152 -2 280 5 128 7 389 11 582 9 675 -7 1148 -3 1210 8 33 6 64 7 69 3
4 -5 26 -2 48 6 22 7 49 13 61 12 12 -1 32 2 44 6 18 6 22 4 17 -8 -6 -17 4
-20 30 -10 9 3 14 10 11 14 -2 4 13 10 35 14 33 5 45 2 62 -14 23 -21 68 -28
68 -10 0 6 7 10 15 10 13 0 15 23 15 150 0 93 -4 150 -10 150 -6 0 -10 32 -10
75 0 61 -3 75 -15 75 -13 0 -14 4 -4 21 7 14 8 42 4 78 -12 94 -8 487 5 512 7
12 8 19 2 15 -7 -4 -8 121 -5 367 2 204 1 463 -3 575 l-6 204 -24 -6 c-18 -5
-24 -2 -24 9 0 9 -5 13 -10 10 -6 -4 -16 -2 -23 3 -7 5 -109 10 -239 10 -125
0 -231 3 -237 6 -5 4 -12 2 -16 -4 -3 -5 -18 -9 -33 -9 -17 1 -21 3 -9 6 9 2
17 9 17 14 0 12 -117 11 -200 -1 -75 -12 -420 -14 -522 -4 -60 6 -68 5 -68
-10 0 -12 -6 -16 -17 -12 -10 2 -106 7 -213 10 -425 13 -687 19 -733 17 l-48
-2 16 25 c21 31 17 49 -7 35z m92 -80 c0 -15 -53 -89 -64 -89 -6 0 -5 5 1 11
6 6 9 18 6 26 -3 7 5 24 18 37 27 27 39 31 39 15z m2220 -17 c0 -4 -7 -16 -15
-26 -8 -11 -15 -28 -15 -39 0 -10 -4 -16 -9 -13 -5 3 -19 -3 -32 -13 -25 -19
-120 -63 -125 -58 -6 6 77 86 96 92 11 4 20 11 20 17 0 20 28 44 55 46 14 1
25 -2 25 -6z m-2400 -16 c0 -3 -4 -8 -10 -11 -5 -3 -10 -1 -10 4 0 6 5 11 10
11 6 0 10 -2 10 -4z m780 -11 c0 -12 15 -15 75 -15 41 0 75 -4 75 -8 0 -15
-58 -64 -68 -58 -6 3 -8 16 -5 29 l5 22 -21 -24 c-12 -13 -21 -33 -21 -45 0
-16 2 -18 9 -7 5 7 14 12 21 9 10 -3 -209 -148 -224 -148 -6 0 45 116 76 177
23 45 18 70 -7 37 -60 -75 -120 -174 -106 -174 5 0 25 25 43 55 17 30 33 53
35 51 7 -7 -67 -159 -83 -171 -29 -22 -34 -18 -17 16 8 16 13 33 10 36 -3 3
-15 -14 -27 -37 -18 -36 -106 -108 -117 -96 -13 13 177 296 221 327 12 9 -2
29 -19 29 -9 0 -12 -6 -9 -15 5 -11 2 -13 -10 -9 -12 5 -54 -30 -152 -127
l-135 -134 50 85 c28 47 51 93 51 103 0 9 6 17 13 17 16 0 53 56 49 75 -2 13
20 15 143 15 122 0 145 -2 145 -15z m205 5 c-27 -4 -75 -3 -105 0 -45 6 -36 7
50 7 81 0 94 -1 55 -7z m711 -19 c-4 -5 -39 -20 -79 -33 -69 -21 -102 -37 -94
-44 2 -2 26 3 53 11 27 8 50 15 51 15 1 0 0 -7 -3 -15 -8 -21 3 -19 29 5 19
18 131 60 160 60 5 0 3 -8 -6 -18 -22 -24 -21 -31 3 -25 11 3 17 9 15 14 -14
22 62 42 115 30 26 -6 -139 -68 -167 -63 -7 2 -21 -2 -32 -7 -11 -6 -75 -20
-143 -31 -67 -11 -138 -23 -155 -26 -23 -3 -33 -1 -33 7 0 7 -11 2 -25 -11
-27 -25 -35 -51 -10 -30 9 7 39 15 68 17 29 2 62 6 75 8 14 4 22 1 22 -7 0
-10 2 -10 8 -1 7 11 59 26 132 37 l35 6 -35 -30 c-19 -16 -38 -30 -42 -30 -16
0 -7 -20 9 -20 9 0 25 -7 35 -16 16 -15 26 -15 92 -4 40 7 80 10 87 8 13 -4
-137 -91 -158 -91 -7 0 -13 -4 -13 -9 0 -4 7 -8 16 -8 19 0 124 54 169 86 46
33 158 75 166 62 4 -7 36 9 84 41 42 28 82 51 88 51 26 0 -61 -71 -105 -86
-26 -8 -50 -20 -54 -25 -3 -5 -10 -7 -15 -3 -6 3 -22 3 -36 -1 -19 -4 -23 -9
-15 -17 8 -8 26 -6 67 7 31 9 59 14 62 11 4 -3 13 0 22 8 25 23 117 60 101 41
-22 -27 0 -16 47 22 43 36 45 36 39 13 -7 -24 -7 -25 9 -5 9 11 19 25 23 32 4
6 19 15 35 18 41 11 34 -11 -12 -35 -22 -11 -43 -24 -46 -30 -4 -6 -10 -8 -15
-5 -5 3 -24 -4 -44 -16 -19 -11 -40 -18 -45 -15 -5 4 -16 -1 -25 -9 -21 -22
-82 -46 -98 -40 -24 9 -136 -114 -123 -135 4 -7 -1 -9 -17 -6 -90 20 -175 26
-413 28 -148 2 -294 -1 -324 -6 -35 -5 -51 -5 -47 2 3 5 -4 12 -15 15 -14 4
-19 2 -15 -8 3 -9 -7 -15 -31 -20 -19 -3 -37 -5 -39 -2 -6 6 62 77 74 77 6 0
21 14 33 31 32 46 10 33 -72 -41 -70 -63 -73 -65 -131 -67 l-59 -3 74 73 c126
123 211 217 203 224 -4 4 -11 1 -16 -6 -22 -37 -287 -292 -308 -298 -42 -10
-40 -3 21 99 13 20 42 58 66 85 24 26 60 69 80 95 l35 48 63 0 c34 0 65 -5 68
-10 5 -8 11 -7 21 1 9 8 38 10 84 7 39 -3 70 -2 70 1 0 4 28 8 62 9 l63 3 -45
-46 c-56 -57 -41 -60 17 -2 41 40 48 43 126 52 89 11 92 11 83 -4z m44 9 c0
-5 -8 -10 -17 -10 -15 0 -16 2 -3 10 19 12 20 12 20 0z m458 -43 c-44 -36
-187 -107 -214 -107 -16 0 62 59 78 60 16 0 110 47 153 77 43 29 33 10 -17
-30z m206 11 c-9 -14 -23 2 -17 18 4 12 8 13 14 3 4 -7 5 -17 3 -21z m-1414
11 c0 -7 11 -9 30 -5 17 3 30 2 30 -2 0 -13 -152 -184 -209 -234 -55 -49 -71
-57 -71 -35 0 8 -4 7 -10 -3 -5 -8 -7 -23 -4 -32 4 -15 -1 -18 -25 -18 -23 0
-29 4 -25 15 4 8 2 15 -4 15 -5 0 -12 -7 -16 -15 -3 -8 -18 -15 -33 -15 -31
-1 -63 -21 -63 -39 0 -8 8 -8 28 2 15 8 65 18 110 21 71 6 87 5 102 -9 16 -14
22 -15 42 -4 30 17 130 29 144 17 7 -5 21 -5 35 1 48 20 363 31 550 19 l177
-11 -32 -21 c-17 -12 -35 -32 -41 -44 -9 -20 -16 -23 -60 -21 -27 1 -61 6 -73
11 -54 19 -951 6 -920 -13 7 -5 51 -9 98 -10 l85 -2 -65 -8 c-59 -8 -111 -6
-143 7 -25 9 -49 -55 -53 -145 -2 -47 -9 -115 -14 -151 -5 -36 -12 -109 -16
-162 -4 -54 -10 -98 -13 -98 -4 0 -15 -15 -26 -32 -18 -33 -18 -33 1 -18 10 8
22 19 25 24 8 10 22 -11 15 -21 -8 -13 -76 -47 -82 -41 -3 3 2 46 10 94 13 77
27 206 53 489 11 123 114 311 144 263 7 -10 9 -10 9 2 0 9 34 39 75 68 41 29
75 50 75 47 0 -10 -50 -84 -81 -119 -17 -20 -29 -41 -27 -48 2 -6 21 10 41 37
37 49 50 55 21 10 -10 -15 -12 -25 -5 -25 6 0 18 15 27 33 9 17 34 58 55 89
22 31 39 60 39 64 0 9 72 80 83 83 4 0 7 -4 7 -10z m1065 -35 c-27 -24 -79
-58 -115 -75 -70 -33 -203 -72 -229 -67 -13 3 297 163 349 181 42 15 40 2 -5
-39z m77 26 c-41 -25 -54 -25 -23 0 13 11 31 20 40 20 9 0 3 -8 -17 -20z
m-213 -34 c-2 -2 -15 -9 -29 -15 -24 -11 -24 -11 -6 3 16 13 49 24 35 12z
m-79 -20 c0 -7 -161 -98 -166 -93 -9 9 86 80 119 87 41 10 47 11 47 6z m573
-119 l-8 -79 -60 -25 c-72 -30 -74 -31 -55 -43 8 -6 10 -10 4 -10 -5 0 -15 5
-21 11 -8 8 -24 7 -59 -5 -26 -9 -49 -14 -51 -12 -6 6 91 73 118 81 13 4 37
18 52 31 16 13 35 24 42 24 17 0 28 17 21 29 -4 5 -45 -13 -94 -40 -48 -27
-91 -49 -96 -49 -5 0 -17 -6 -25 -13 -18 -15 -93 -39 -86 -27 2 4 31 18 62 31
32 12 60 25 63 28 3 3 25 17 50 30 66 35 140 85 140 93 0 16 -30 7 -81 -22
-28 -17 -54 -28 -58 -24 -7 7 15 24 89 67 64 38 64 39 53 -76z m-2073 -21
c-35 -60 -75 -116 -93 -128 -17 -12 -27 -16 -22 -7 17 28 80 122 103 153 12
17 32 46 43 64 12 18 24 31 26 28 3 -2 -23 -52 -57 -110z m1895 12 c-3 -7 -20
-21 -38 -32 -85 -50 -100 -57 -105 -51 -7 7 -7 7 68 54 70 43 82 48 75 29z
m-2051 -48 c-10 -16 -20 -28 -22 -26 -4 5 28 56 35 56 2 0 -4 -13 -13 -30z
m1920 2 c-72 -53 -111 -68 -78 -31 26 30 75 59 98 59 14 0 8 -8 -20 -28z
m-1238 -24 c-9 -13 -19 -30 -22 -40 -6 -15 -43 -32 -53 -23 -4 4 79 84 88 85
2 0 -4 -10 -13 -22z m-297 -45 c-11 -25 -31 -57 -44 -69 -16 -15 -25 -34 -25
-53 0 -27 -44 -163 -60 -186 -4 -5 -17 -39 -29 -75 -18 -55 -25 -65 -45 -66
-28 -2 -30 24 -3 44 25 19 21 35 -8 30 -14 -3 -25 -1 -25 4 0 22 -31 18 -55
-9 -19 -21 -24 -23 -19 -8 4 11 14 28 23 39 9 10 16 26 16 35 0 9 26 71 59
137 43 89 66 125 85 135 14 7 35 20 45 29 18 14 19 14 13 -2 -9 -26 8 -22 22
5 9 17 44 46 68 56 1 1 -7 -20 -18 -46z m-149 -3 c-19 -38 -30 -49 -30 -32 0
10 39 72 45 72 3 0 -4 -18 -15 -40z m1990 -39 l0 -59 -40 -16 c-82 -33 -96 -8
-17 32 26 12 47 29 47 37 0 19 -10 19 -39 -2 -14 -9 -21 -11 -17 -5 12 19 -12
23 -26 4 -13 -19 -80 -46 -98 -40 -7 2 155 94 188 107 1 1 2 -26 2 -58z m-345
29 c4 -6 -6 -10 -22 -9 -25 0 -26 1 -8 9 11 5 21 9 22 9 1 1 5 -3 8 -9z m-100
-30 c122 -21 166 -41 135 -60 -10 -7 -11 -10 -2 -10 15 0 16 -32 0 -48 -9 -9
-9 -15 0 -24 8 -8 14 -5 21 15 6 15 13 27 16 27 3 0 -6 -29 -20 -65 -13 -36
-26 -82 -29 -102 -16 -117 -29 -195 -41 -248 -8 -33 -21 -132 -30 -220 -9 -88
-18 -166 -21 -174 -4 -12 -25 -13 -122 -6 -64 4 -209 9 -322 11 -112 2 -211 6
-220 10 -8 3 -71 8 -140 10 -69 3 -150 9 -180 13 -30 5 -116 10 -190 10 -74 1
-136 4 -139 7 -7 7 42 39 54 36 17 -6 352 -15 933 -27 l214 -4 31 36 c39 44
51 63 43 71 -4 3 -19 -10 -35 -29 -28 -33 -29 -34 -71 -22 -44 11 -100 1 -100
-18 0 -12 -324 -12 -370 0 -42 11 -227 21 -402 21 -143 0 -153 6 -91 53 l37
28 376 -6 c206 -3 401 -8 433 -11 36 -4 57 -2 57 4 0 6 -5 14 -10 17 -6 4
-162 8 -348 9 -185 2 -368 4 -407 5 l-69 1 21 22 c21 20 32 22 225 24 112 2
271 3 353 4 169 0 255 7 255 20 0 6 -96 7 -232 3 -388 -11 -538 -9 -548 7 -7
12 -12 12 -22 2 -6 -6 -31 -12 -55 -12 l-42 0 30 31 30 30 277 -7 c511 -12
563 -11 539 12 -3 3 -645 15 -769 14 -20 0 -28 5 -28 17 0 15 -1 15 -18 0 -20
-18 -62 -23 -62 -7 0 5 11 17 25 26 14 9 25 20 25 25 0 19 -25 8 -60 -25 -33
-32 -80 -56 -80 -41 0 18 56 71 84 80 23 7 32 17 33 35 6 69 16 126 25 137 5
6 24 13 41 15 26 2 33 8 35 28 5 39 -41 53 -168 50 -58 -1 -106 -3 -108 -5 -2
-1 -5 -20 -9 -41 -5 -32 -3 -37 8 -26 15 14 69 17 69 3 0 -5 -7 -12 -16 -15
-11 -4 -14 -17 -12 -43 2 -31 7 -39 26 -41 26 -4 27 -8 7 -46 -14 -26 -14 -31
-1 -44 13 -13 10 -19 -21 -51 -19 -20 -52 -62 -73 -93 -44 -68 -109 -142 -118
-134 -3 4 4 20 17 36 21 29 17 42 -7 18 -9 -9 -12 -9 -12 0 0 7 -9 12 -20 12
-27 0 -25 15 7 55 19 24 33 33 45 29 12 -4 18 0 18 11 0 11 5 15 14 12 8 -3
22 1 33 8 17 14 17 14 -2 15 -17 0 -16 4 13 31 55 52 36 70 -21 19 -19 -16
-40 -30 -48 -30 -7 0 -27 -16 -44 -35 l-32 -34 -6 63 c-7 70 0 136 14 136 5 0
9 39 10 88 0 48 4 107 7 132 l7 45 170 7 c94 4 190 12 215 19 49 13 455 19
605 9 50 -4 80 -7 67 -8 -13 -1 -32 -7 -44 -13 -20 -11 -20 -11 2 -31 18 -17
26 -19 41 -10 15 10 23 7 44 -14 17 -17 32 -23 45 -19 10 3 28 1 39 -4 30 -17
68 6 88 51 11 24 23 38 33 36 12 -3 15 -19 15 -78 0 -63 -5 -87 -32 -147 -17
-39 -36 -102 -41 -140 -10 -76 0 -230 16 -259 11 -18 11 -18 12 1 1 11 1 52 0
90 -1 82 22 223 50 303 11 30 18 58 15 60 -2 3 5 16 15 30 11 13 20 32 20 41
0 10 7 26 15 37 17 23 19 34 5 34 -6 0 -22 -25 -36 -55 -15 -30 -28 -55 -30
-55 -5 0 7 52 15 65 3 6 6 21 6 35 0 21 4 25 28 22 15 -1 27 2 27 8 0 14 -43
30 -80 30 -21 0 -30 6 -35 23 -4 12 -21 34 -38 49 -18 15 -30 28 -27 28 3 0
59 -9 125 -20z m178 -1 c5 -17 11 -20 34 -16 15 3 42 9 58 12 l30 6 -30 -14
c-17 -8 -36 -21 -44 -30 -11 -14 -11 -18 3 -23 9 -4 30 -4 46 0 27 5 30 3 30
-19 0 -29 25 -33 79 -14 42 15 46 9 21 -33 -19 -34 -20 -37 -3 -102 14 -58 14
-69 2 -77 -10 -6 -7 -9 14 -9 15 0 27 -6 27 -13 0 -7 6 -19 13 -26 9 -9 13
-71 14 -229 2 -119 4 -233 5 -252 2 -51 -3 -212 -8 -231 -3 -12 -11 -15 -26
-11 -16 4 -19 2 -13 -8 6 -10 1 -12 -25 -7 -18 4 -48 7 -66 7 -32 0 -33 1 -23
24 7 14 17 22 25 19 7 -2 21 8 30 24 31 49 58 78 73 78 8 0 16 6 19 14 3 10 0
12 -14 7 -15 -6 -17 -5 -6 5 11 12 17 59 7 59 -23 0 -70 -47 -96 -96 -65 -121
-76 -134 -114 -134 -19 0 -35 5 -35 11 0 22 59 69 87 69 19 0 24 3 14 9 -17
11 2 51 25 51 8 0 17 8 21 18 3 9 19 31 35 48 18 20 26 37 22 47 -11 29 -23
23 -154 -79 -36 -28 -80 -59 -97 -68 -18 -9 -32 -20 -31 -24 0 -4 -2 -15 -7
-25 -12 -29 9 -43 42 -27 16 8 31 16 36 18 4 2 2 -7 -4 -21 -10 -23 -18 -26
-78 -29 -36 -2 -79 -1 -96 2 -20 4 -34 1 -40 -8 -13 -17 -250 -29 -269 -13 -7
6 -17 6 -26 1 -8 -6 -39 -10 -69 -10 -48 0 -52 2 -40 16 12 15 11 16 -10 9
-16 -5 -21 -4 -17 4 12 19 -12 12 -26 -7 -11 -16 -21 -18 -73 -12 -57 7 -96
-3 -63 -15 14 -6 14 -10 0 -48 -9 -23 -20 -43 -24 -45 -5 -2 -8 -9 -8 -15 0
-14 -75 -84 -110 -102 -29 -15 -51 -61 -24 -51 29 11 -18 -52 -63 -84 -47 -34
-52 -33 -27 6 9 13 14 27 11 31 -4 3 -14 -9 -24 -27 -10 -18 -25 -41 -34 -50
-9 -9 -18 -27 -22 -39 -5 -21 -5 -21 20 3 46 46 57 32 17 -21 -14 -18 -22 -37
-19 -43 3 -5 -6 -17 -20 -26 -14 -9 -25 -20 -25 -24 0 -8 49 1 85 16 16 6 14
1 -10 -27 -53 -63 -87 -79 -162 -79 l-68 0 1 63 c1 55 13 155 29 242 6 29 40
74 49 64 3 -3 1 -34 -3 -69 -12 -86 -9 -265 4 -265 6 0 9 25 8 60 -4 76 19
250 32 251 19 2 45 16 45 25 0 6 -9 5 -21 -1 -11 -7 -23 -10 -25 -7 -2 2 1 26
6 53 6 27 13 87 16 133 5 74 9 87 30 103 31 25 31 43 0 23 -29 -19 -32 -12
-28 55 3 35 8 50 18 50 17 0 18 -17 2 -23 -18 -8 11 -27 29 -20 7 3 19 0 27
-6 14 -12 73 -5 82 10 3 5 -5 9 -18 10 l-23 0 23 11 c16 8 26 8 33 1 8 -8 0
-28 -27 -67 -20 -31 -41 -56 -45 -56 -5 0 -9 -8 -9 -17 0 -15 4 -13 23 7 12
14 34 41 49 61 25 33 81 59 96 44 10 -10 -30 -44 -59 -50 -33 -8 -39 -25 -8
-25 19 0 19 -2 -9 -37 -45 -58 -65 -93 -54 -93 9 0 96 110 135 173 19 30 73
67 96 67 21 0 -38 -59 -66 -66 -25 -7 -30 -20 -11 -26 8 -3 5 -15 -11 -36 -35
-50 -6 -37 34 14 19 26 35 41 35 34 0 -10 3 -10 15 0 8 7 15 8 15 4 0 -5 13
-15 28 -22 25 -10 35 -9 82 14 33 16 74 27 110 28 31 2 65 8 76 14 16 9 28 7
53 -9 37 -22 73 -19 154 12 29 12 73 19 112 19 52 0 65 3 65 15 0 9 6 18 14
21 20 8 29 34 11 34 -7 0 -20 -7 -29 -15 -19 -19 -26 -19 -26 0 0 8 5 15 10
15 6 0 10 21 10 48 0 65 27 289 40 332 6 19 13 62 16 95 7 86 41 247 59 281
17 33 20 104 5 104 -5 0 -10 10 -10 23 0 15 -9 29 -26 37 -23 13 -24 15 -7 21
28 11 30 11 36 -12z m334 -111 c-2 -13 -4 -5 -4 17 -1 22 1 32 4 23 2 -10 2
-28 0 -40z m-56 -122 c5 -6 8 -28 8 -50 -1 -38 -2 -39 -8 -11 -3 17 -11 28
-16 25 -13 -7 -27 78 -18 115 6 28 7 27 15 -20 5 -27 13 -54 19 -59z m-1936
-18 c-5 -35 -9 -72 -10 -83 -2 -11 -6 -70 -10 -132 -7 -104 -8 -112 -30 -117
-12 -3 -132 -2 -266 2 -134 4 -288 7 -341 6 -98 -1 -98 -1 -98 24 l0 25 238
-7 c130 -4 289 -11 352 -15 63 -5 118 -7 123 -4 15 9 6 21 -20 28 -24 6 -26 8
-10 16 35 20 20 39 -30 39 l-48 0 33 20 c17 11 32 24 32 30 0 13 83 230 88
230 2 0 1 -28 -3 -62z m500 22 c4 -6 -5 -10 -19 -10 -16 0 -26 -6 -26 -15 0
-8 -7 -15 -15 -15 -8 0 -17 -14 -21 -35 -6 -33 -7 -34 -27 -20 -29 20 -37 19
-37 -5 0 -11 -4 -20 -10 -20 -14 0 -13 33 2 48 7 7 17 8 30 1 15 -8 20 -5 30
16 14 31 11 35 -54 51 l-53 12 97 1 c55 1 100 -3 103 -9z m-695 -133 c0 -2
-13 -13 -30 -25 -16 -13 -30 -18 -30 -13 0 6 12 17 28 25 29 17 32 18 32 13z
m1610 -51 c-5 -15 -10 -41 -10 -59 0 -21 -3 -28 -10 -21 -7 7 -5 28 6 63 8 29
17 51 20 48 2 -2 0 -16 -6 -31z m-1592 12 c-2 -6 -10 -14 -16 -16 -7 -2 -10 2
-6 12 7 18 28 22 22 4z m-98 -16 c0 -5 -19 -19 -42 -32 -24 -13 -45 -26 -48
-29 -3 -3 -20 -12 -39 -18 -51 -18 -26 3 57 49 76 42 72 41 72 30z m30 -27
c-7 -8 -18 -15 -24 -15 -6 0 -2 7 8 15 25 19 32 19 16 0z m75 -15 c-22 -24
-19 -48 8 -53 12 -3 -20 -4 -70 -4 -51 0 -93 2 -93 4 0 6 54 24 63 21 4 -2 11
2 15 7 15 22 67 53 80 48 10 -4 10 -9 -3 -23z m593 -130 c-12 -16 -30 -30 -40
-30 -17 0 -17 2 4 30 12 17 30 30 40 30 17 0 17 -2 -4 -30z m-85 -5 c-19 -25
-38 -32 -48 -16 -8 14 23 41 46 41 19 0 19 -1 2 -25z m-648 -11 c116 -2 224
-7 241 -9 l31 -5 -9 -58 c-5 -32 -5 -94 -1 -137 l8 -80 75 2 c348 9 365 8 361
-7 -2 -8 -6 -76 -9 -151 l-5 -136 -29 -18 c-17 -9 -34 -30 -39 -45 -7 -20 -19
-30 -41 -34 -35 -7 -54 10 -36 31 8 10 8 20 0 37 -9 21 -6 28 24 57 19 18 34
37 34 41 0 18 -31 6 -46 -17 -18 -27 -68 -37 -58 -11 5 14 -39 31 -56 21 -5
-3 -11 -1 -15 5 -3 5 0 10 8 10 8 0 20 7 27 15 17 20 -9 30 -47 18 -38 -13
-40 -30 -3 -50 64 -36 64 -38 -2 -42 -35 -2 -157 -4 -271 -5 -194 -1 -209 0
-223 18 -7 11 -25 33 -40 49 l-27 30 7 138 c5 91 4 145 -3 157 -14 26 -59 33
-205 34 l-116 0 0 62 c0 33 4 66 8 73 9 15 67 20 167 16 44 -2 174 -6 290 -9z
m615 -49 c-14 -8 -33 -18 -43 -21 -10 -4 -16 -12 -14 -18 6 -15 -67 -100 -82
-95 -6 2 15 37 45 77 49 62 61 72 88 72 l31 0 -25 -15z m70 9 c0 -12 -45 -43
-62 -44 -10 0 -18 7 -18 16 0 10 6 13 19 9 12 -3 21 0 25 10 5 14 36 22 36 9z
m85 -19 c-27 -23 -85 -35 -85 -18 0 22 37 43 74 43 l41 -1 -30 -24z m-158 -43
c16 -10 -51 -82 -77 -82 -18 0 -17 4 12 45 32 45 43 51 65 37z m-247 -37 c-34
-35 -34 -36 -12 -42 16 -4 22 -13 22 -35 0 -25 3 -29 18 -23 9 4 25 7 35 7 9
0 29 6 45 14 40 21 48 17 23 -10 -23 -24 -40 -29 -154 -41 l-58 -7 6 35 c4 19
2 51 -4 71 -8 31 -7 37 4 32 18 -6 75 13 75 25 0 5 8 9 17 9 13 0 8 -9 -17
-35z m340 30 c0 -7 -93 -75 -98 -71 -10 11 54 76 76 76 12 0 22 -2 22 -5z
m-910 -64 c32 -9 46 -51 42 -119 -3 -37 -8 -52 -18 -52 -26 0 -94 -45 -94 -62
0 -21 33 -97 54 -123 15 -20 15 -20 15 5 0 14 -6 36 -14 50 -25 43 -17 56 15
25 l29 -28 -4 -167 c-4 -167 -13 -211 -45 -237 -13 -11 -11 -12 11 -13 24 0
26 5 37 65 7 35 15 120 19 189 4 84 10 123 17 120 20 -8 77 -102 98 -161 11
-32 25 -62 30 -68 15 -17 27 15 17 49 -5 17 -9 32 -9 33 0 0 47 1 105 0 58 -1
105 -4 105 -8 0 -4 12 -2 26 6 14 7 33 12 42 10 9 -2 24 -4 32 -4 10 -1 7 -7
-10 -21 -43 -32 -14 -34 34 -1 27 19 57 31 77 31 l33 0 -29 -30 c-30 -32 -16
-43 17 -13 17 15 18 15 18 0 0 -10 -11 -19 -27 -23 -16 -3 -35 -8 -43 -11 -38
-13 -212 -31 -377 -40 -65 -3 -113 -10 -113 -16 0 -10 181 -5 333 8 37 4 67 3
66 -2 0 -4 -14 -19 -31 -33 -22 -17 -33 -21 -36 -12 -3 10 -7 10 -18 1 -17
-14 -242 -19 -287 -6 -22 6 -28 5 -25 -5 7 -21 85 -30 226 -25 72 3 132 2 132
-2 0 -14 -132 -141 -146 -141 -8 0 -14 -4 -14 -9 0 -16 21 -24 33 -12 22 22
27 10 25 -55 -1 -47 -6 -68 -16 -72 -18 -6 -42 24 -42 53 0 26 -34 60 -49 50
-6 -3 -11 -17 -11 -31 0 -17 -5 -24 -19 -24 -26 0 -31 -10 -20 -38 9 -23 43
-30 54 -12 10 16 22 11 28 -11 5 -19 3 -21 -25 -15 -17 3 -41 6 -53 6 -18 0
-22 4 -18 20 4 15 2 19 -9 15 -13 -5 -14 3 -6 52 4 32 10 64 13 71 2 6 0 12
-5 12 -6 0 -10 -9 -10 -20 0 -12 -7 -32 -17 -46 -9 -14 -16 -45 -16 -70 0 -38
-3 -44 -21 -45 -12 0 -91 -2 -176 -5 -87 -3 -166 -1 -180 4 -34 13 -51 76 -45
171 2 40 6 76 10 79 3 3 67 7 142 7 79 1 138 6 140 12 4 10 -211 9 -258 -1
-32 -7 -39 10 -39 92 0 38 4 52 14 52 17 0 25 98 25 330 l0 165 27 12 c29 13
34 11 87 -31 20 -15 37 -66 37 -109 0 -33 -35 -87 -56 -87 -8 0 -14 -9 -14
-20 0 -15 9 -22 31 -27 51 -10 61 -37 55 -150 -6 -122 -10 -133 -49 -133 -17
0 -27 -3 -24 -6 11 -11 76 -14 82 -4 7 12 17 148 16 215 -2 68 -8 84 -37 91
-29 7 -31 25 -4 49 16 15 20 31 20 84 0 58 -4 71 -27 99 -16 18 -46 39 -68 47
-31 10 -41 20 -46 42 l-7 28 -1 -32 c-1 -29 -4 -33 -26 -31 -18 2 -25 8 -25
23 0 15 2 17 9 6 7 -10 11 -5 16 18 l7 31 116 -1 c64 -1 128 -4 142 -8z m988
-278 c1 -100 -3 -192 -11 -227 -11 -54 -14 -59 -40 -62 -24 -2 -27 0 -22 14 4
9 9 78 11 152 5 160 12 269 20 281 3 5 13 9 23 9 17 0 18 -13 19 -167z m70
146 c-17 -11 -48 -11 -48 -1 0 15 10 19 36 14 19 -3 22 -7 12 -13z m180 -4
c-10 -10 -68 -24 -68 -16 0 15 13 21 43 21 17 0 28 -2 25 -5z m472 -14 c0 -8
-31 -23 -77 -36 -45 -12 -22 12 25 27 26 8 48 16 50 17 1 0 2 -3 2 -8z m120
-11 c0 -5 -7 -10 -16 -10 -8 0 -12 5 -9 10 3 6 10 10 16 10 5 0 9 -4 9 -10z
m-265 -10 c-3 -5 -22 -12 -43 -15 -44 -7 -87 -24 -80 -31 3 -2 18 0 34 6 24 9
27 9 16 -2 -7 -7 -30 -18 -53 -24 l-40 -12 20 31 c16 25 31 34 73 43 71 15 80
16 73 4z m413 -19 c-20 -10 -49 -21 -65 -25 -15 -4 -36 -9 -45 -12 -10 -3 -18
-1 -18 4 0 5 20 15 45 22 25 7 48 17 51 21 3 5 20 9 37 9 l32 -1 -37 -18z
m276 10 c6 -10 -103 -85 -111 -77 -9 9 59 65 73 59 6 -2 14 3 17 11 7 18 13
20 21 7z m101 -42 c-9 -17 -19 -29 -22 -26 -5 5 25 57 33 57 3 0 -3 -14 -11
-31z m-2315 -21 l-1 -43 -20 28 c-15 19 -27 26 -40 22 -28 -9 -23 2 9 19 44
24 52 20 52 -26z m1500 32 c-20 -13 -33 -13 -25 0 3 6 14 10 23 10 15 0 15 -2
2 -10z m60 -8 c0 -5 -19 -17 -42 -27 -43 -20 -88 -27 -88 -14 0 10 30 20 41
14 4 -3 25 3 46 14 45 24 43 23 43 13z m220 -12 c0 -5 -2 -10 -4 -10 -3 0 -8
5 -11 10 -3 6 -1 10 4 10 6 0 11 -4 11 -10z m363 -148 c10 -2 34 6 55 19 37
22 84 26 177 14 69 -9 67 -48 -3 -51 -20 -1 -79 -9 -131 -19 -87 -15 -129 -15
-82 0 12 3 21 11 21 16 0 13 -12 11 -56 -10 -49 -24 -140 -39 -130 -22 8 12
-23 8 -72 -10 -30 -11 -35 -11 -27 1 8 13 -20 13 -65 0 -25 -7 -36 -7 -41 2
-6 9 -16 8 -43 -5 -29 -14 -56 -16 -148 -11 -82 4 -116 9 -124 19 -32 42 -53
-7 -44 -100 4 -38 4 -92 0 -120 -4 -27 -8 -112 -9 -189 -1 -76 -4 -142 -6
-147 -3 -4 -73 -8 -156 -8 -117 -1 -150 2 -146 11 2 8 18 12 39 10 26 -2 41 4
59 21 13 13 34 26 47 29 19 5 22 2 22 -23 0 -22 5 -29 20 -29 12 0 20 7 20 18
0 9 3 28 7 41 5 18 3 22 -7 16 -10 -6 -11 14 -6 101 8 114 20 169 43 192 14
14 8 36 -7 27 -8 -5 -3 68 7 95 4 8 5 19 4 24 -1 5 8 19 20 32 22 24 19 48 -3
26 -21 -21 -27 -13 -13 15 8 15 11 31 8 36 -4 7 1 7 13 2 10 -4 100 -9 199
-10 167 -1 264 4 455 23 70 6 75 6 80 -13 3 -11 14 -21 23 -23z m47 39 c0 -11
-39 -25 -47 -18 -3 3 -2 10 2 16 8 13 45 15 45 2z m-1520 -67 c0 -13 -22 -44
-31 -44 -6 0 -7 5 -3 12 5 8 -3 10 -27 6 -19 -4 -62 0 -94 7 l-60 13 58 1 c39
1 57 -3 57 -11 0 -9 2 -10 8 -2 11 17 92 33 92 18z m-255 -14 c4 -6 1 -17 -5
-25 -7 -8 -9 -16 -4 -16 36 -6 -109 -13 -180 -9 -82 5 -89 7 -98 29 -8 23 -7
23 29 18 21 -3 72 -2 113 3 114 11 138 11 145 0z m102 -37 c-8 -7 -97 -11 -97
-4 0 21 23 28 61 18 22 -5 38 -11 36 -14z m186 15 c3 -8 -5 -14 -19 -14 -18
-2 -20 1 -11 12 15 17 24 17 30 2z m1719 -53 c2 -50 0 -61 -10 -53 -29 25 -85
-65 -97 -157 -8 -57 16 -184 40 -221 8 -13 24 -24 35 -24 27 0 25 6 -9 45 -56
64 -49 254 11 307 l23 20 3 -29 c1 -15 7 -38 13 -49 7 -14 9 -59 4 -125 -3
-57 -6 -128 -6 -157 -1 -37 -4 -50 -12 -45 -16 10 -317 11 -323 1 -7 -12 -54
-10 -54 2 0 6 6 10 14 10 28 0 105 41 129 70 28 32 44 125 32 181 -7 29 -9 31
-43 26 -36 -6 -95 -53 -86 -69 3 -4 19 6 36 22 42 42 73 38 72 -10 -3 -106
-29 -148 -116 -181 -32 -12 -58 -28 -58 -35 0 -11 -23 -14 -104 -14 -57 0
-119 -3 -137 -7 l-34 -6 19 27 c24 37 72 79 162 142 107 74 144 124 144 192 0
91 -81 116 -207 63 -114 -47 -181 -98 -202 -154 -10 -26 -9 -27 14 -23 14 3
78 28 143 55 115 50 142 58 142 43 0 -4 -55 -59 -122 -122 -124 -115 -158
-160 -158 -204 0 -22 -5 -24 -72 -31 -40 -5 -77 -7 -83 -5 -5 2 -22 5 -37 8
-22 3 -28 10 -28 28 0 14 7 27 15 30 8 4 15 10 15 15 0 4 -6 6 -14 3 -8 -3
-15 4 -18 19 -5 26 7 316 14 321 1 2 20 6 41 10 l39 7 -26 -28 c-36 -39 -41
-61 -20 -84 16 -17 16 -22 4 -29 -13 -8 -13 -13 0 -42 8 -18 14 -57 15 -86 0
-28 3 -52 7 -52 19 0 28 104 10 122 -18 18 -14 42 8 56 27 17 25 30 -5 38 -14
3 -25 12 -25 20 0 7 11 21 25 30 14 9 25 23 25 30 0 8 3 14 8 14 4 0 15 7 26
15 32 24 10 34 -47 19 -80 -21 -97 -19 -97 14 0 26 2 27 53 28 28 1 100 3 160
6 59 2 107 2 107 -1 0 -3 -20 -26 -45 -51 -41 -41 -56 -70 -37 -70 4 0 35 29
68 65 l62 66 98 9 c244 24 331 33 362 39 18 3 55 7 82 8 l48 2 4 -64z m-1569
38 c-8 -21 -23 -33 -42 -33 -10 0 -7 8 9 25 27 29 42 32 33 8z m-173 -33 c12
-7 16 -17 13 -31 -5 -19 -3 -21 25 -17 l31 4 -31 -40 c-72 -94 -67 -91 -163
-88 l-85 3 22 32 c18 25 19 29 5 24 -9 -3 -17 -2 -17 3 0 6 29 10 65 10 49 0
66 4 73 17 8 13 10 10 10 -13 0 -16 -5 -35 -10 -41 -19 -24 4 -13 41 19 49 42
61 62 31 53 -19 -6 -21 -4 -15 14 5 17 2 21 -14 21 -20 0 -28 19 -14 33 8 9
11 9 33 -3z m170 -68 c0 -34 -9 -46 -115 -152 -72 -71 -115 -108 -115 -97 0 9
-6 17 -12 17 -33 0 -88 -14 -88 -21 0 -5 7 -6 16 -2 14 5 15 3 5 -15 -7 -12
-15 -22 -19 -22 -9 0 -44 -61 -38 -67 2 -3 14 6 25 19 11 12 29 34 40 47 12
13 21 28 21 33 0 4 7 8 16 8 15 0 -18 -41 -88 -111 -16 -15 -28 -33 -28 -40 0
-10 3 -10 12 -1 15 15 58 16 58 2 0 -5 6 -10 14 -10 8 0 18 -5 21 -10 4 -6
-18 -10 -60 -10 l-66 0 5 77 c6 109 -4 126 -46 77 -21 -24 -23 -24 -36 -7 -13
17 -14 16 -7 -5 4 -14 1 -28 -10 -39 -16 -15 -17 -14 -13 16 2 20 -2 35 -11
41 -11 6 0 24 50 79 59 64 67 70 104 71 22 0 50 -7 62 -15 14 -10 24 -12 28
-5 3 5 21 10 39 10 28 0 39 9 91 76 33 41 62 80 63 85 2 5 21 9 43 9 38 0 39
-1 39 -38z m470 20 c0 -10 -13 -23 -30 -31 -17 -7 -44 -24 -61 -38 -34 -29
-45 -28 -21 2 14 17 99 83 110 85 1 0 2 -8 2 -18z m704 -48 c9 -8 16 -29 16
-45 0 -60 -44 -112 -159 -190 -35 -23 -85 -64 -111 -90 -26 -26 -51 -45 -54
-42 -7 8 41 73 68 93 11 8 47 40 81 71 33 31 74 70 92 85 42 38 52 78 24 93
-21 12 -89 -11 -211 -70 -58 -28 -78 -22 -38 11 21 17 100 59 168 88 38 16
106 14 124 -4z m-723 -25 c-13 -10 -28 -19 -35 -19 -6 0 1 8 17 18 15 9 27 21
27 26 0 5 3 6 8 2 4 -4 -4 -16 -17 -27z m-851 -39 c0 -5 -8 -10 -17 -10 -15 0
-16 2 -3 10 19 12 20 12 20 0z m328 -83 c-35 -47 -70 -86 -79 -86 -24 -1 -21
-74 4 -79 14 -3 17 1 11 22 -5 20 5 39 48 95 56 74 72 86 62 47 -3 -13 -9 -72
-12 -132 -4 -60 -9 -109 -12 -109 -3 0 -49 -2 -103 -5 -69 -4 -97 -2 -97 6 0
7 -7 14 -15 18 -11 4 -14 13 -9 33 11 47 24 50 24 5 0 -31 4 -42 15 -42 12 0
15 13 15 58 l0 59 102 101 c57 55 104 99 106 98 1 -2 -26 -42 -60 -89z m502
43 c-22 -31 -39 -45 -46 -38 -6 6 47 68 58 68 5 0 0 -13 -12 -30z m-80 -14 c0
-9 -121 -98 -126 -93 -2 2 2 10 11 17 8 7 15 19 15 27 0 8 4 12 8 9 4 -2 26 6
47 19 47 27 45 26 45 21z m-17 -51 c-5 -15 -84 -75 -98 -75 -4 0 17 20 46 45
59 50 61 51 52 30z m102 5 c-3 -5 -11 -10 -16 -10 -6 0 -7 5 -4 10 3 6 11 10
16 10 6 0 7 -4 4 -10z m-5 -64 c0 -12 -57 -41 -179 -93 l-34 -15 29 35 c34 40
80 71 94 62 5 -3 22 1 37 9 35 19 53 20 53 2z m-850 -105 c0 -76 -1 -79 -21
-74 -14 4 -27 0 -35 -12 -11 -15 -16 -16 -44 -4 -29 13 -29 14 -8 19 17 5 22
13 22 40 1 26 7 37 24 45 12 5 22 14 22 19 0 9 29 46 37 46 1 0 3 -36 3 -79z
m850 36 c0 -14 -40 -37 -65 -37 -8 0 -15 -9 -15 -20 0 -11 -4 -20 -10 -20 -5
0 -7 7 -4 15 4 8 4 15 1 15 -2 0 -24 -7 -47 -15 -51 -18 -53 -18 -45 -5 9 14
145 78 168 79 9 1 17 -5 17 -12z m-225 -76 c-3 -6 -14 -11 -23 -11 -15 1 -15
2 2 15 21 16 32 13 21 -4z m-12 -48 c-7 -2 -21 -2 -30 0 -10 3 -4 5 12 5 17 0
24 -2 18 -5z m-140 -10 c-7 -2 -19 -2 -25 0 -7 3 -2 5 12 5 14 0 19 -2 13 -5z
m-1168 -23 c19 0 37 -4 40 -10 4 -6 -12 -10 -39 -10 -39 0 -46 -3 -46 -20 0
-22 -10 -26 -27 -9 -15 15 -4 59 13 52 8 -3 14 1 15 8 0 11 2 11 6 2 2 -7 20
-13 38 -13z m455 -20 c10 -7 -8 -10 -60 -11 -41 0 -87 -2 -102 -4 -16 -2 -28
0 -28 5 0 16 168 24 190 10z"/>
<path d="M1740 2370 c0 -5 4 -10 9 -10 6 0 13 5 16 10 3 6 -1 10 -9 10 -9 0
-16 -4 -16 -10z"/>
<path d="M1675 2300 c-27 -27 -46 -52 -43 -56 4 -3 20 9 37 28 17 18 38 41 47
50 10 10 15 20 13 23 -3 2 -27 -18 -54 -45z"/>
<path d="M1727 2234 c-4 -4 -7 -14 -7 -23 0 -11 3 -12 11 -4 6 6 10 16 7 23
-2 6 -7 8 -11 4z"/>
<path d="M1669 2180 c-19 -16 -29 -29 -22 -30 15 0 70 47 62 54 -3 3 -21 -8
-40 -24z"/>
<path d="M2301 2179 c-67 -36 -73 -42 -39 -35 25 4 118 53 118 62 0 10 -30 0
-79 -27z"/>
<path d="M1768 2160 c-19 -14 -28 -16 -36 -8 -9 9 -12 8 -12 -5 0 -9 5 -17 11
-17 12 0 79 39 79 46 0 10 -19 3 -42 -16z"/>
<path d="M1846 2138 c3 -4 9 -8 15 -8 5 0 9 4 9 8 0 5 -7 9 -15 9 -8 0 -12 -4
-9 -9z"/>
<path d="M1042 2130 c-5 -14 -7 -29 -4 -34 7 -12 24 33 18 48 -2 6 -8 0 -14
-14z"/>
<path d="M971 1962 c-6 -12 -11 -29 -10 -39 0 -11 6 -6 15 16 16 37 12 55 -5
23z"/>
<path d="M870 2031 c-7 -15 -7 -21 0 -21 12 0 25 28 17 36 -3 3 -10 -4 -17
-15z"/>
<path d="M851 1984 c0 -11 3 -14 6 -6 3 7 2 16 -1 19 -3 4 -6 -2 -5 -13z"/>
<path d="M817 1923 c-44 -78 -67 -126 -63 -131 3 -3 8 -3 10 -1 11 12 67 132
63 136 -3 2 -7 1 -10 -4z"/>
<path d="M1578 1835 c-2 -3 -23 -6 -46 -7 -49 -2 -65 -16 -60 -55 2 -20 9 -29
25 -31 20 -3 22 -8 20 -74 -1 -49 2 -72 11 -75 8 -3 12 8 13 34 1 21 5 52 10
68 6 23 7 14 6 -35 -2 -52 1 -65 14 -68 13 -2 17 12 22 87 3 49 10 99 16 110
8 15 7 23 -5 35 -17 18 -18 18 -26 11z m-2 -44 c-8 -12 -71 -8 -71 5 0 12 58
23 69 13 4 -4 5 -12 2 -18z"/>
<path d="M1677 1828 c-15 -5 -29 -19 -31 -31 -40 -193 -40 -195 -6 -212 42
-22 45 -20 46 28 1 23 6 69 13 102 27 142 29 132 -22 113z m-1 -85 c-8 -26
-15 -39 -15 -28 -1 28 21 102 26 88 2 -6 -3 -33 -11 -60z"/>
<path d="M1749 1803 c-20 -50 -38 -179 -30 -209 4 -18 15 -30 28 -32 17 -3 22
5 31 55 6 32 14 78 17 103 3 25 8 60 11 78 6 29 4 32 -20 32 -20 0 -29 -7 -37
-27z"/>
<path d="M1846 1774 c-8 -42 -4 -50 21 -38 10 4 32 8 48 9 27 0 30 3 30 30 0
29 -2 30 -46 33 -46 3 -47 3 -53 -34z"/>
<path d="M1981 1773 c-6 -21 -11 -55 -11 -75 0 -20 -4 -48 -10 -62 -8 -23 -14
-25 -54 -22 -24 2 -48 6 -54 10 -5 3 -13 -2 -17 -11 -3 -10 -2 -19 4 -21 5 -2
19 -12 32 -23 12 -10 23 -19 24 -19 1 0 23 11 48 25 39 22 47 32 57 73 26 104
8 222 -19 125z"/>
<path d="M2055 1750 c-8 -16 -15 -36 -15 -44 0 -8 -4 -16 -8 -18 -13 -5 -2
-138 12 -138 19 1 49 50 38 63 -7 8 -6 34 4 81 8 37 12 72 8 77 -10 16 -23 9
-39 -21z"/>
<path d="M2133 1773 c-15 -5 -18 -53 -3 -53 5 0 3 -19 -5 -45 -13 -43 -11 -85
5 -85 4 0 14 8 23 18 19 20 23 62 7 62 -15 0 -12 27 6 62 13 25 14 32 2 39
-14 10 -17 10 -35 2z"/>
<path d="M1395 1725 c-2 -5 -5 -18 -8 -27 -8 -23 16 -40 49 -36 34 4 53 31 38
55 -11 18 -75 24 -79 8z"/>
<path d="M1862 1698 c-20 -20 -14 -36 17 -43 36 -8 73 10 69 33 -4 21 -67 29
-86 10z"/>
<path d="M2138 1573 c-25 -7 -31 -33 -7 -33 28 0 61 19 54 31 -6 9 -18 10 -47
2z"/>
<path d="M2717 1853 c-4 -3 -7 -11 -7 -17 0 -6 5 -5 12 2 6 6 9 14 7 17 -3 3
-9 2 -12 -2z"/>
<path d="M2537 1784 c-19 -55 -21 -74 -7 -74 12 0 32 74 28 103 -2 15 -8 6
-21 -29z"/>
<path d="M2643 1663 c-17 -25 -74 -139 -94 -188 -5 -11 -20 -46 -34 -79 -29
-69 -33 -95 -10 -76 8 7 15 19 15 26 0 14 53 128 69 148 5 6 9 22 9 36 0 14
16 54 36 89 37 65 43 95 9 44z"/>
<path d="M2671 1628 c-40 -50 -71 -98 -63 -98 7 1 77 87 95 117 15 25 -8 12
-32 -19z"/>
<path d="M2692 1594 c-24 -37 -26 -44 -14 -44 9 0 45 70 40 76 -2 1 -13 -13
-26 -32z"/>
<path d="M2774 1538 c-32 -35 -57 -78 -50 -85 3 -3 6 -1 6 5 0 6 16 27 36 46
20 19 34 40 32 46 -2 6 -13 1 -24 -12z"/>
<path d="M2623 1495 c-9 -25 4 -29 17 -6 7 15 7 21 0 21 -6 0 -13 -7 -17 -15z"/>
<path d="M2585 1421 c-8 -17 -12 -31 -8 -31 9 0 35 52 29 58 -3 2 -12 -10 -21
-27z"/>
<path d="M2656 1388 c-84 -124 -106 -158 -106 -167 0 -4 -14 -15 -32 -24 -22
-11 -32 -22 -33 -41 0 -14 3 -26 7 -26 4 0 5 -7 2 -15 -9 -23 10 -18 36 11 17
17 21 27 13 32 -7 4 32 52 103 126 108 113 142 161 94 136 -11 -6 -20 -14 -20
-18 0 -11 -89 -115 -106 -125 -26 -15 -14 10 41 81 57 75 61 82 46 82 -6 0
-26 -24 -45 -52z"/>
<path d="M2516 1311 c-4 -7 -5 -15 -2 -18 9 -9 19 4 14 18 -4 11 -6 11 -12 0z"/>
<path d="M2770 1276 c-9 -12 -8 -15 9 -13 11 1 23 7 25 14 7 18 -19 16 -34 -1z"/>
<path d="M2490 1270 c0 -5 5 -10 10 -10 6 0 10 5 10 10 0 6 -4 10 -10 10 -5 0
-10 -4 -10 -10z"/>
<path d="M2462 1238 c-7 -7 -12 -16 -12 -20 0 -15 15 -8 28 12 13 22 3 27 -16
8z"/>
<path d="M2258 993 c-10 -2 -18 -9 -18 -14 0 -6 10 -5 23 2 37 20 36 23 -5 12z"/>
<path d="M1984 975 c-10 -8 -14 -15 -7 -15 19 0 43 11 43 21 0 13 -14 11 -36
-6z"/>
<path d="M1672 895 c-15 -26 -43 -72 -63 -104 -42 -66 -66 -129 -30 -76 11 17
25 30 31 30 5 0 17 7 27 15 10 9 21 15 25 15 3 0 10 3 14 7 8 8 -31 2 -46 -7
-6 -3 -10 -4 -10 -2 0 6 45 84 76 130 13 20 20 37 14 37 -6 0 -23 -20 -38 -45z"/>
<path d="M1616 881 c-4 -7 -5 -15 -2 -18 9 -9 19 4 14 18 -4 11 -6 11 -12 0z"/>
<path d="M1585 830 c-3 -5 -1 -10 4 -10 6 0 11 5 11 10 0 6 -2 10 -4 10 -3 0
-8 -4 -11 -10z"/>
<path d="M1490 810 c0 -5 5 -10 10 -10 6 0 10 5 10 10 0 6 -4 10 -10 10 -5 0
-10 -4 -10 -10z"/>
<path d="M1555 789 c-4 -6 -5 -13 -2 -16 7 -7 27 6 27 18 0 12 -17 12 -25 -2z"/>
<path d="M1458 765 c-27 -37 -21 -54 7 -20 14 17 25 33 25 38 0 14 -15 6 -32
-18z"/>
<path d="M1515 720 c-32 -51 -40 -70 -29 -70 11 0 68 100 61 107 -3 3 -17 -14
-32 -37z"/>
<path d="M1460 615 c0 -8 2 -15 4 -15 2 0 6 7 10 15 3 8 1 15 -4 15 -6 0 -10
-7 -10 -15z"/>
<path d="M1400 529 c0 -5 5 -7 10 -4 6 3 10 8 10 11 0 2 -4 4 -10 4 -5 0 -10
-5 -10 -11z"/>
<path d="M832 1619 c-7 -12 -11 -24 -7 -27 7 -8 25 17 25 36 0 17 -3 15 -18
-9z"/>
<path d="M505 1256 c-12 -18 -15 -47 -13 -127 l3 -104 35 1 c54 1 291 14 438
24 73 5 139 7 146 4 18 -7 36 25 36 61 0 38 -33 29 -40 -10 l-5 -30 -140 -7
c-77 -4 -207 -9 -290 -10 l-150 -3 -3 87 c-3 76 -1 87 12 82 9 -3 16 -1 16 4
0 8 46 10 140 8 125 -2 157 2 132 18 -5 3 -70 6 -145 7 -75 1 -137 6 -137 10
0 17 -20 9 -35 -15z"/>
<path d="M532 957 c-9 -11 4 -13 74 -13 104 0 110 20 7 24 -49 2 -73 -1 -81
-11z"/>
<path d="M740 956 c0 -12 9 -16 34 -16 18 0 48 -3 65 -6 24 -5 31 -3 31 10 0
11 -9 16 -27 16 -16 0 -45 3 -65 6 -31 5 -38 4 -38 -10z"/>
<path d="M100 609 c0 -5 5 -7 10 -4 6 3 10 8 10 11 0 2 -4 4 -10 4 -5 0 -10
-5 -10 -11z"/>
<path d="M376 432 c-3 -5 -51 -8 -106 -6 -74 2 -100 -1 -97 -9 2 -8 36 -13 98
-14 106 -2 129 2 129 23 0 15 -16 19 -24 6z"/>
<path d="M650 400 c0 -5 5 -10 10 -10 6 0 10 5 10 10 0 6 -4 10 -10 10 -5 0
-10 -4 -10 -10z"/>
<path d="M170 339 c0 -5 43 -9 95 -9 57 0 95 4 95 10 0 6 -37 9 -95 9 -52 -1
-95 -6 -95 -10z"/>
<path d="M383 323 c9 -2 23 -2 30 0 6 3 -1 5 -18 5 -16 0 -22 -2 -12 -5z"/>
<path d="M2588 722 c-20 -12 -28 -25 -28 -45 0 -31 18 -42 55 -33 26 7 62 63
48 76 -18 17 -50 18 -75 2z m32 -32 c-6 -11 -17 -20 -26 -20 -12 0 -12 4 -4
20 6 11 17 20 26 20 12 0 12 -4 4 -20z"/>
<path d="M2060 630 c-8 -5 -11 -12 -7 -16 4 -4 13 -2 19 4 15 15 7 24 -12 12z"/>
<path d="M2802 574 c-14 -10 -22 -25 -22 -45 0 -34 26 -79 46 -79 19 0 18 24
-1 40 -8 7 -15 23 -15 37 0 13 7 26 15 29 15 6 21 34 7 34 -4 0 -18 -7 -30
-16z"/>
<path d="M2537 488 c-27 -41 -66 -78 -82 -78 -15 0 -14 4 4 34 23 37 27 51 11
41 -17 -10 -60 -83 -60 -100 0 -19 32 -19 69 -1 29 16 101 97 101 115 0 19
-27 12 -43 -11z"/>
<path d="M900 510 c0 -5 5 -10 10 -10 6 0 10 5 10 10 0 6 -4 10 -10 10 -5 0
-10 -4 -10 -10z"/>
<path d="M1090 310 c0 -5 7 -10 15 -10 8 0 15 5 15 10 0 6 -7 10 -15 10 -8 0
-15 -4 -15 -10z"/>
<path d="M547 2373 c-4 -3 -7 -11 -7 -17 0 -6 5 -5 12 2 6 6 9 14 7 17 -3 3
-9 2 -12 -2z"/>
<path d="M255 2289 c-30 -31 -52 -59 -48 -62 9 -10 62 25 69 46 3 10 8 16 11
13 3 -3 -7 -24 -22 -46 -15 -22 -25 -43 -21 -47 3 -3 8 -4 10 -2 17 20 96 140
96 146 0 26 -47 2 -95 -48z"/>
<path d="M337 2283 c-4 -3 -7 -11 -7 -17 0 -6 5 -5 12 2 6 6 9 14 7 17 -3 3
-9 2 -12 -2z"/>
<path d="M333 2155 c-51 -69 -93 -129 -93 -135 0 -22 28 -6 87 50 40 38 68 57
78 54 9 -4 15 -1 15 8 0 30 -37 14 -92 -40 -32 -31 -58 -53 -58 -49 0 4 24 35
53 70 55 66 117 151 117 161 0 19 -25 -8 -107 -119z"/>
<path d="M296 2224 c-9 -24 -7 -27 9 -10 17 17 19 26 6 26 -5 0 -12 -7 -15
-16z"/>
<path d="M167 2003 c-4 -3 -7 -11 -7 -17 0 -6 5 -5 12 2 6 6 9 14 7 17 -3 3
-9 2 -12 -2z"/>
<path d="M340 1979 c0 -5 5 -7 10 -4 6 3 10 8 10 11 0 2 -4 4 -10 4 -5 0 -10
-5 -10 -11z"/>
<path d="M485 1860 c-20 -34 -35 -63 -33 -66 3 -2 21 24 41 57 21 34 35 64 33
66 -2 2 -21 -23 -41 -57z"/>
<path d="M357 1842 c-38 -62 -42 -72 -29 -72 4 0 16 17 27 38 10 20 25 45 33
54 8 9 12 22 10 29 -2 6 -20 -16 -41 -49z"/>
<path d="M386 1799 c-38 -68 -29 -71 11 -3 18 30 28 54 24 54 -4 0 -20 -23
-35 -51z"/>
<path d="M187 1814 c-4 -4 -7 -17 -7 -28 1 -19 1 -20 11 -3 11 19 8 43 -4 31z"/>
<path d="M425 1768 c-11 -6 -38 -27 -60 -47 -22 -20 -68 -54 -102 -75 -55 -34
-77 -56 -56 -56 8 0 83 44 131 76 41 28 60 31 41 7 -11 -15 -10 -14 9 1 12 11
22 23 22 29 0 5 9 22 21 39 24 33 22 41 -6 26z"/>
<path d="M235 1740 c-16 -18 -16 -20 -2 -20 9 0 21 9 27 20 6 11 7 20 2 20 -5
0 -17 -9 -27 -20z"/>
<path d="M1421 113 c7 -10 15 -20 16 -22 2 -2 3 5 3 17 0 14 -6 22 -16 22 -14
0 -15 -3 -3 -17z"/>
<path d="M2048 66 c-11 -10 -80 -16 -288 -24 -279 -10 -330 -9 -330 12 0 6 -4
5 -9 -3 -8 -12 -53 -15 -238 -18 -260 -3 -438 -11 -503 -23 -25 -4 460 -8
1078 -8 l1123 -1 -3 37 c-2 30 -7 37 -23 35 -11 -2 -109 -7 -219 -13 -109 -6
-201 -12 -205 -14 -6 -4 -296 -10 -353 -7 -31 1 -37 15 -11 25 9 4 20 1 25 -6
6 -10 8 -8 8 5 0 21 -33 23 -52 3z"/>
<path d="M320 21 c-47 -3 -80 -9 -75 -12 16 -11 305 -9 305 1 0 6 -27 10 -59
10 -33 0 -65 1 -73 3 -7 2 -51 1 -98 -2z"/>
<path d="M125 10 l-90 -6 98 -2 c59 -1 97 2 97 8 0 6 -3 9 -7 8 -5 -1 -48 -5
-98 -8z"/>
</g>
</svg>
