<?xml version="1.0" standalone="no"?>
<!DOCTYPE svg PUBLIC "-//W3C//DTD SVG 20010904//EN"
 "http://www.w3.org/TR/2001/REC-SVG-20010904/DTD/svg10.dtd">
<svg version="1.0" xmlns="http://www.w3.org/2000/svg"
 width="388.000000pt" height="188.000000pt" viewBox="0 0 388.000000 188.000000"
 preserveAspectRatio="xMidYMid meet">
<metadata>
Created by potrace 1.16, written by Peter Selinger 2001-2019
</metadata>
<g transform="translate(0.000000,188.000000) scale(0.100000,-0.100000)"
fill="#000000" stroke="none">
<path d="M3395 1850 c-3 -5 -23 -11 -43 -11 l-37 -1 30 -8 c17 -4 24 -8 17 -9
-7 0 -11 -5 -8 -10 3 -4 -3 -16 -14 -26 -14 -13 -27 -15 -52 -9 -18 4 -52 6
-75 5 -25 -1 -43 3 -43 9 0 6 27 11 63 12 l62 1 -75 7 c-41 3 -77 5 -79 3 -2
-1 4 -9 13 -18 9 -9 16 -21 16 -26 0 -5 7 -9 15 -9 8 0 15 -4 15 -10 0 -5 10
-11 23 -12 36 -2 -102 -16 -175 -17 -46 -1 -68 -5 -68 -13 0 -9 -3 -9 -12 0
-7 7 -21 12 -32 12 -18 0 -17 3 9 20 17 11 41 20 55 21 19 0 21 2 8 7 -20 8
-12 25 16 35 10 4 17 10 14 13 -3 2 -16 1 -29 -4 -13 -5 -58 -7 -99 -5 -41 2
-82 4 -90 4 -8 0 -70 0 -138 -1 -118 0 -123 -1 -131 -23 -15 -39 -36 -51 -72
-38 -43 15 -46 14 -52 -10 -5 -20 -3 -21 34 -15 49 8 51 -6 4 -36 -19 -13 -35
-28 -35 -34 0 -12 -73 -34 -112 -34 -21 1 -22 2 -5 14 9 7 17 20 17 29 0 9 13
24 29 33 17 10 27 23 24 31 -3 7 2 16 11 19 9 3 16 12 16 20 0 8 10 14 25 14
18 0 23 4 19 15 -5 11 -18 14 -53 11 -81 -7 -121 -18 -121 -32 0 -8 -9 -19
-20 -26 -11 -7 -20 -18 -20 -24 0 -16 -29 -39 -37 -30 -4 4 -2 16 5 26 7 11
12 26 12 34 0 8 8 20 18 25 15 9 15 10 -5 11 -12 0 -34 5 -48 12 -18 8 -35 8
-60 1 -19 -6 -35 -8 -37 -3 -4 10 -842 20 -946 11 -46 -3 -86 -3 -89 1 -2 5
-7 6 -11 4 -4 -2 -34 -7 -67 -10 -33 -4 -61 -11 -63 -16 -4 -12 -39 -13 -46
-2 -5 9 -116 4 -126 -5 -3 -3 4 -11 14 -19 16 -11 17 -14 4 -14 -9 0 -18 7
-22 15 -6 16 -96 22 -96 7 0 -13 -149 -6 -165 8 -19 15 -293 9 -304 -7 -3 -6
-25 -13 -49 -16 -49 -6 -63 -14 -43 -26 8 -5 9 -11 3 -15 -6 -3 -8 -16 -5 -27
4 -16 2 -20 -8 -17 -8 3 -15 22 -17 46 -5 70 -21 47 -21 -30 0 -40 -2 -102 -6
-138 -4 -42 -3 -60 3 -51 7 10 12 5 17 -19 6 -28 9 -31 17 -16 5 9 7 24 4 32
-3 9 -3 41 1 72 5 46 8 52 14 32 9 -32 11 -123 3 -144 -3 -9 -15 -16 -25 -16
-10 0 -19 -6 -20 -12 0 -7 -4 -4 -9 7 -7 16 -9 11 -9 -21 -1 -22 2 -44 7 -48
4 -4 8 -51 8 -104 2 -159 3 -174 14 -167 5 3 10 -4 10 -17 1 -13 3 -52 6 -88
3 -46 2 -61 -5 -50 -13 18 -14 -221 -2 -290 l8 -45 3 55 c1 30 2 59 1 63 -1 5
4 7 11 4 7 -2 11 -11 9 -18 -2 -8 -5 -32 -7 -54 l-4 -40 16 42 c15 42 16 42
42 29 42 -22 122 -104 122 -125 0 -10 10 -25 22 -34 22 -15 22 -16 6 -43 -15
-25 -23 -29 -59 -27 -23 1 -49 9 -58 18 -10 8 -24 15 -32 15 -29 -1 43 -50 82
-56 30 -5 39 -11 39 -26 0 -15 -5 -18 -22 -13 -19 6 -21 5 -11 -6 7 -7 13 -30
13 -51 0 -27 4 -38 15 -38 10 0 15 -11 15 -35 l0 -35 -74 0 -73 0 -7 61 c-3
34 -4 100 -1 148 4 75 3 80 -6 41 -6 -25 -8 -89 -5 -142 3 -60 1 -98 -4 -98
-6 0 -10 19 -11 43 -1 42 -1 42 -9 9 -12 -51 -22 -52 -15 -2 4 30 3 38 -3 25
-14 -32 -24 -114 -11 -92 15 25 31 10 28 -27 -2 -17 0 -36 4 -43 4 -6 4 -18 1
-27 -7 -18 -30 -21 -39 -6 -4 6 -11 8 -16 4 -6 -4 -1 -16 12 -30 12 -13 18
-24 13 -24 -13 -1 27 -30 40 -30 6 0 18 5 26 10 13 9 13 11 0 19 -12 8 -12 13
-1 35 9 15 12 41 8 65 l-5 41 54 0 c60 0 62 -4 38 -57 -16 -32 -16 -35 0 -51
16 -16 18 -16 32 2 8 11 14 29 15 40 0 21 1 21 8 1 7 -16 10 -9 16 30 14 106
56 189 140 276 25 26 45 51 45 56 0 12 38 47 68 63 22 11 23 10 16 -12 -12
-38 -34 -61 -91 -97 -59 -36 -85 -73 -65 -93 9 -9 12 -7 12 9 0 13 19 35 52
61 29 22 54 39 57 37 7 -8 -124 -237 -152 -263 -30 -30 -34 -42 -13 -42 20 0
65 61 112 148 21 40 40 68 42 63 2 -5 -4 -23 -12 -39 -8 -16 -18 -49 -21 -73
-14 -97 -20 -112 -52 -130 -26 -15 -32 -15 -37 -3 -9 23 -26 16 -26 -10 0 -20
-5 -24 -24 -22 -14 2 -27 -2 -29 -8 -3 -6 -24 -13 -48 -14 -24 -1 -53 -4 -64
-6 -11 -3 -23 -5 -27 -5 -5 -1 -8 -5 -8 -11 0 -5 16 -8 37 -5 21 2 72 7 113
10 56 4 79 10 92 25 22 24 38 26 38 5 0 -8 7 -15 16 -15 21 0 84 49 84 66 0
20 18 17 32 -6 16 -25 60 -26 80 -2 17 19 13 106 -4 96 -6 -4 -7 9 -2 33 7 40
23 78 24 56 0 -7 7 -13 15 -13 18 0 20 -47 4 -103 -11 -40 -5 -62 14 -50 7 4
18 8 26 8 17 0 74 92 65 106 -4 6 -11 6 -20 -2 -11 -9 -14 -8 -14 4 0 26 16
28 41 6 l24 -20 7 27 c7 25 23 43 40 44 14 0 -31 -84 -49 -91 -22 -8 -47 -76
-31 -85 5 -3 15 -1 21 5 16 16 27 14 27 -6 0 -15 2 -16 10 -3 6 8 15 32 20 53
6 21 17 37 25 37 11 0 12 -5 5 -26 -13 -33 -13 -34 5 -34 9 0 18 7 21 15 5 12
10 13 20 4 15 -12 30 16 54 98 13 44 38 59 64 39 18 -14 10 -72 -11 -80 -12
-5 -13 0 -8 25 6 26 4 30 -12 27 -15 -3 -18 -14 -21 -71 -2 -41 1 -67 8 -67 5
0 10 8 10 18 0 9 10 28 21 42 17 20 20 21 14 5 -17 -47 -17 -55 -2 -55 8 0 18
6 20 13 3 6 6 2 6 -10 1 -29 -10 -35 -82 -40 -62 -4 -75 -8 -64 -19 3 -4 34
-1 69 6 35 7 79 12 99 12 35 -1 36 0 53 53 11 35 21 52 29 49 15 -5 52 88 44
109 -7 19 -2 25 85 91 43 32 78 64 78 71 0 19 46 56 74 59 14 2 26 1 26 -1 0
-7 -50 -103 -54 -103 -2 0 -2 8 1 19 10 41 -21 35 -62 -12 -58 -67 -98 -151
-103 -219 -3 -43 -8 -55 -18 -51 -15 6 -18 -14 -6 -35 15 -23 43 22 47 75 3
53 44 151 81 196 29 34 30 26 5 -39 -24 -64 -51 -156 -51 -177 0 -10 7 -17 15
-17 17 0 21 -40 6 -56 -5 -5 -5 -19 0 -32 8 -20 13 -22 46 -17 75 12 83 15 82
33 0 11 -2 13 -6 4 -4 -10 -9 -9 -24 4 -15 13 -22 15 -31 6 -19 -19 -25 -14
-32 21 -20 106 -19 113 18 184 20 37 61 94 91 127 30 32 53 62 50 66 -3 5 0
12 6 16 8 5 9 3 4 -6 -5 -9 -4 -11 4 -6 6 4 9 11 6 16 -8 13 5 35 86 150 38
54 69 107 69 118 0 11 7 25 15 32 31 26 14 30 -19 5 -51 -39 -52 -14 -1 46 25
29 45 58 46 63 0 6 4 1 9 -12 8 -19 13 -21 30 -12 11 6 30 26 43 45 25 39 29
41 48 19 10 -12 10 -27 1 -71 -6 -31 -9 -60 -6 -64 10 -16 24 -9 24 11 0 13 5
18 15 14 8 -4 15 -1 15 6 0 16 48 4 72 -17 9 -8 22 -12 27 -8 6 3 11 -1 11 -9
0 -8 -5 -18 -10 -21 -16 -10 0 -58 28 -84 l26 -24 -23 -18 c-37 -30 -68 -24
-89 18 -14 26 -7 49 26 86 23 25 24 27 6 27 -24 -1 -47 -18 -63 -49 -10 -17
-15 -20 -21 -11 -5 7 -15 10 -25 6 -28 -10 -95 49 -95 85 0 33 -8 36 -36 13
-10 -8 -13 -13 -6 -9 40 20 -26 -128 -94 -210 -27 -33 -50 -70 -51 -81 -2 -23
-74 -122 -119 -164 -38 -34 -114 -139 -114 -156 0 -17 12 -18 28 -2 18 18 34
-9 27 -46 -4 -23 -2 -26 9 -17 10 9 16 8 26 -4 7 -8 23 -15 36 -15 13 0 24 -4
24 -9 0 -5 9 -13 20 -16 19 -6 29 -26 13 -24 -40 6 -57 -17 -30 -40 10 -8 17
-7 26 2 10 9 15 8 27 -7 11 -16 17 -17 26 -8 7 7 22 12 35 12 12 0 27 8 32 18
9 14 10 13 11 -10 0 -23 5 -28 24 -28 32 0 44 20 17 27 -20 5 -30 22 -13 24
83 8 110 13 125 26 16 15 17 14 17 -10 0 -27 24 -39 32 -16 2 7 12 7 31 -2 32
-15 46 -5 29 21 -10 16 -8 22 15 40 l27 21 16 -31 c16 -35 3 -32 195 -45 33
-2 69 -6 81 -9 24 -5 35 1 50 28 13 25 34 32 34 13 0 -18 28 -24 83 -18 23 2
36 8 34 15 -2 6 -18 10 -36 8 -42 -5 -71 21 -71 63 0 34 34 75 63 75 23 0 41
-38 38 -82 -1 -21 3 -38 9 -38 5 0 18 -8 28 -18 17 -17 35 -19 149 -17 117 1
132 3 161 24 18 12 32 27 32 32 0 12 103 12 116 -1 19 -19 80 -14 113 9 17 12
31 27 31 32 0 5 7 9 15 9 13 0 14 -4 5 -20 -14 -27 -4 -57 21 -65 22 -7 24
-16 7 -33 -16 -16 5 -16 35 -1 16 9 22 9 25 0 4 -12 92 -16 92 -3 0 4 -5 13
-10 18 -7 7 14 11 65 12 54 2 80 -2 90 -12 19 -19 86 -31 95 -16 4 6 15 8 24
4 15 -6 17 -3 12 12 -5 17 0 19 49 22 44 2 60 8 86 31 31 29 32 31 26 93 -3
35 -2 70 3 78 7 11 10 4 11 -25 1 -22 3 -66 5 -98 3 -50 1 -60 -14 -64 -12 -3
-18 -13 -17 -26 1 -17 9 -23 35 -25 30 -3 32 -2 21 12 -9 11 -11 27 -5 53 5
21 10 65 11 98 2 33 6 105 9 159 5 84 4 100 -10 108 -11 6 -16 23 -16 51 0 31
-3 38 -10 27 -6 -8 -7 -32 -4 -53 6 -36 5 -38 -18 -32 -38 10 -62 -24 -55 -77
3 -23 13 -47 21 -54 24 -17 19 -34 -9 -34 -18 0 -25 5 -25 19 0 27 -10 51 -22
51 -6 0 -8 -9 -5 -21 7 -27 -11 -67 -34 -74 -38 -12 -42 4 -22 78 2 9 10 17
16 17 40 1 71 76 46 107 -10 11 -4 17 56 49 11 6 25 21 31 32 6 12 18 30 27
40 19 20 24 112 7 112 -5 0 -10 -7 -10 -15 0 -8 -4 -15 -10 -15 -6 0 -6 9 1
26 5 15 7 35 4 44 -5 15 -2 17 15 13 24 -6 25 9 10 102 -5 33 -12 80 -15 105
-3 25 -9 75 -13 112 -5 36 -7 94 -5 128 2 34 -1 68 -7 75 -6 7 -7 20 -4 30 5
13 9 14 15 4 12 -21 22 -3 15 27 -4 14 -10 24 -13 20 -3 -3 -12 -1 -20 5 -15
13 -18 59 -3 59 6 0 10 -9 10 -20 0 -11 5 -20 11 -20 7 0 10 39 7 122 -2 91 0
122 10 125 31 11 6 29 -58 43 -19 4 -44 11 -54 15 -14 6 -17 5 -12 -3 5 -9 -7
-12 -43 -12 -27 0 -51 4 -53 10 -2 6 -27 6 -68 -1 -157 -24 -148 -24 -125 -2
17 16 32 19 75 17 40 -2 48 -1 30 6 -14 4 -38 8 -53 9 -16 1 -26 5 -22 11 3 6
-1 10 -9 10 -8 0 -18 -4 -21 -10z m-415 -59 c0 -5 -10 -13 -22 -17 -12 -3 -29
-15 -37 -25 -9 -10 -34 -21 -56 -24 l-40 -7 34 33 c22 21 46 34 70 36 19 2 37
6 40 9 7 7 11 5 11 -5z m-1550 -11 c0 -5 -7 -10 -16 -10 -8 0 -12 5 -9 10 3 6
10 10 16 10 5 0 9 -4 9 -10z m690 0 c0 -5 11 -10 25 -10 30 0 31 -9 5 -41 -35
-43 -53 -59 -67 -59 -17 0 -16 18 2 54 8 15 15 37 15 47 0 11 5 19 10 19 6 0
10 -4 10 -10z m-1020 -11 c0 -12 57 -11 65 1 3 6 18 10 33 10 43 0 14 -16 -90
-48 -101 -30 -131 -26 -55 8 32 15 36 18 15 15 -26 -3 -36 4 -23 17 9 9 55 6
55 -3z m725 2 c10 -18 -86 -71 -129 -71 -23 0 -83 -46 -73 -56 3 -3 17 2 31
11 14 9 31 15 38 13 7 -3 -12 -21 -42 -40 -53 -34 -55 -35 -68 -17 -7 11 -17
17 -22 14 -5 -3 -25 4 -45 16 l-36 21 52 24 c53 25 78 28 34 4 -14 -7 -25 -17
-25 -22 0 -16 29 -8 78 21 26 15 64 33 83 40 18 7 50 20 69 31 40 22 47 23 55
11z m80 -1 c3 -6 17 -7 30 -4 12 3 26 1 29 -5 10 -15 32 -14 49 4 13 13 16 13
21 0 3 -8 12 -12 21 -9 19 8 19 -5 -2 -47 -20 -42 -35 -53 -46 -34 -5 9 -23
15 -43 15 -38 0 -83 39 -84 73 0 19 15 23 25 7z m468 -18 c-4 -9 -18 -27 -32
-39 -14 -13 -22 -23 -18 -23 14 0 -19 -40 -54 -66 -40 -29 -84 -34 -70 -6 5 9
12 25 15 35 3 11 15 21 26 24 11 3 20 13 20 22 1 27 48 74 70 68 11 -3 23 -1
26 4 9 16 24 0 17 -19z m295 21 c-16 -2 -40 -2 -55 0 -16 2 -3 4 27 4 30 0 43
-2 28 -4z m157 -23 c-23 -24 -37 -30 -72 -30 l-43 0 16 26 c12 17 24 24 38 21
12 -3 32 -1 46 3 43 14 45 11 15 -20z m550 20 c3 -5 1 -10 -4 -10 -6 0 -11 5
-11 10 0 6 2 10 4 10 3 0 8 -4 11 -10z m181 0 c23 0 33 -4 29 -11 -4 -6 -13
-8 -20 -5 -8 3 -15 1 -17 -3 -2 -4 -25 -11 -51 -14 -31 -4 -46 -3 -42 3 3 6
21 11 38 11 18 1 24 3 15 6 -10 2 -18 9 -18 15 0 5 7 7 16 4 9 -3 31 -6 50 -6z
m-2576 -10 c12 -8 9 -15 -20 -45 -18 -19 -43 -35 -54 -35 -18 0 -16 4 12 26
17 14 32 34 32 45 0 21 8 23 30 9z m580 5 c0 -8 -44 -23 -53 -18 -14 8 4 23
29 23 13 0 24 -2 24 -5z m115 -3 c-6 -5 -30 -17 -55 -27 -25 -9 -51 -20 -59
-23 -34 -13 5 21 43 39 42 19 88 26 71 11z m-755 -12 c0 -5 -14 -10 -31 -10
-18 0 -37 -7 -43 -15 -6 -8 -22 -17 -36 -20 -23 -4 -23 -3 -7 9 9 7 17 18 17
24 0 12 22 19 68 21 17 0 32 -3 32 -9z m2833 -2 c18 -15 35 -172 19 -182 -11
-7 -22 51 -22 117 0 45 -14 63 -26 33 -4 -11 -65 -28 -109 -31 -5 0 -17 -7
-26 -16 -12 -12 -28 -15 -61 -12 -35 4 -48 1 -68 -17 l-25 -21 45 5 c25 3 87
9 138 12 50 4 92 11 92 16 0 4 -7 8 -16 8 -8 0 -12 5 -9 10 12 19 35 10 35
-14 0 -27 3 -26 -197 -47 -112 -11 -150 -8 -138 11 4 6 1 17 -5 25 -10 11 -7
15 15 21 18 4 23 9 15 14 -9 6 -7 11 7 19 11 5 22 8 25 6 6 -6 66 -7 133 -1
33 3 73 5 89 6 20 0 27 4 23 14 -12 30 35 47 66 24z m-3316 -4 c-3 -3 -12 -4
-19 -1 -8 3 -5 6 6 6 11 1 17 -2 13 -5z m338 -30 c-35 -35 -54 -30 -20 6 15
16 32 27 36 24 5 -3 -2 -16 -16 -30z m1842 18 c-27 -29 -20 -35 13 -12 17 12
37 20 46 18 13 -2 12 -7 -7 -27 -17 -18 -29 -22 -55 -18 -19 3 -34 2 -34 -3 0
-12 -76 -32 -103 -27 -20 3 -18 5 10 16 18 7 30 18 27 25 -7 18 46 42 100 45
18 1 18 0 3 -17z m756 1 c-7 -2 -21 -2 -30 0 -10 3 -4 5 12 5 17 0 24 -2 18
-5z m44 1 c-3 -3 -12 -4 -19 -1 -8 3 -5 6 6 6 11 1 17 -2 13 -5z m203 -4 c0
-5 -4 -10 -10 -10 -5 0 -10 5 -10 10 0 6 5 10 10 10 6 0 10 -4 10 -10z m-3497
-25 c-21 -16 -26 -14 -17 8 3 9 12 13 20 10 12 -4 11 -8 -3 -18z m350 18 c-7
-2 -19 -2 -25 0 -7 3 -2 5 12 5 14 0 19 -2 13 -5z m164 -6 c7 -5 30 -6 50 -2
35 6 37 5 22 -10 -16 -16 -166 -64 -201 -65 -10 0 -18 -4 -18 -9 0 -11 -45
-28 -98 -36 -42 -7 -42 -7 -33 18 6 14 7 27 3 30 -4 2 -2 2 5 1 16 -4 73 19
73 29 0 5 10 8 23 7 44 -4 92 0 106 9 12 8 13 12 1 26 -11 14 -9 15 21 13 19
-1 40 -6 46 -11z m257 1 c-21 -34 -91 -98 -106 -98 -21 0 -24 16 -5 24 6 3 3
4 -8 1 -11 -2 -27 0 -35 5 -12 7 -11 10 5 16 11 4 49 20 85 35 76 33 73 32 64
17z m346 -11 c-43 -19 -140 -30 -140 -15 0 4 17 10 38 14 20 3 53 10 72 14 64
14 77 9 30 -13z m640 8 c0 -27 -27 -70 -52 -83 -12 -7 -52 -18 -87 -25 -78
-15 -101 -44 -26 -33 26 4 54 10 61 13 8 3 14 1 14 -5 0 -5 -32 -19 -72 -29
-79 -22 -102 -43 -44 -43 44 0 46 -12 6 -40 l-30 -21 0 21 c0 18 -3 19 -21 10
-28 -16 -36 -4 -14 20 15 16 16 25 7 44 -9 21 -6 27 36 58 66 50 105 68 147
68 25 0 35 4 32 13 -5 13 20 47 35 47 4 0 8 -7 8 -15z m286 -23 c-22 -23 -29
-10 -9 18 11 16 18 19 21 11 2 -7 -3 -20 -12 -29z m-1176 13 c0 -8 -4 -15 -10
-15 -5 0 -7 7 -4 15 4 8 8 15 10 15 2 0 4 -7 4 -15z m480 -5 c-24 -19 -50 -26
-50 -15 0 6 59 34 70 34 3 0 -6 -8 -20 -19z m-1110 1 c0 -14 -64 -20 -72 -7
-6 8 -8 8 -8 0 0 -11 -50 -27 -58 -19 -2 2 9 10 25 19 30 16 113 22 113 7z
m1020 5 c0 -2 -7 -7 -16 -10 -8 -3 -12 -2 -9 4 6 10 25 14 25 6z m1473 -3 c-7
-2 -21 -2 -30 0 -10 3 -4 5 12 5 17 0 24 -2 18 -5z m-93 -13 c0 -13 -42 -23
-71 -17 -22 4 -22 4 3 6 15 0 30 6 33 11 8 13 35 13 35 0z m30 -16 c-6 -14
-10 -27 -10 -28 0 -2 22 -1 50 2 39 3 51 1 56 -11 3 -9 12 -13 21 -10 10 4 14
2 10 -4 -4 -6 -28 -11 -54 -11 -36 0 -42 2 -23 8 21 5 16 8 -25 12 -35 3 -55
0 -67 -10 -11 -9 -22 -11 -32 -5 -14 8 -11 13 16 33 18 13 37 29 41 37 14 24
27 14 17 -13z m433 11 c6 -14 2 -15 -83 -28 -17 -3 -13 -5 13 -6 20 0 37 -5
37 -10 0 -5 -10 -8 -22 -8 -13 0 -53 -3 -90 -7 -61 -7 -67 -6 -62 9 5 12 14
15 31 10 14 -3 34 -2 46 2 17 6 11 9 -27 13 -64 6 -72 27 -14 33 110 9 166 7
171 -8z m147 -1 c0 -2 -19 -4 -42 -3 -35 1 -38 2 -18 8 23 7 60 4 60 -5z
m-398 -12 c-18 -2 -30 -7 -27 -11 2 -5 -7 -6 -21 -3 -14 2 -22 8 -17 13 10 10
64 16 83 9 8 -3 0 -6 -18 -8z m-1634 -12 c3 -8 0 -10 -7 -5 -7 4 -18 -1 -25
-11 -10 -13 -15 -14 -21 -4 -5 8 -1 18 11 27 21 15 36 13 42 -7z m582 6 c0 -2
-7 -7 -16 -10 -8 -3 -12 -2 -9 4 6 10 25 14 25 6z m280 -3 c0 -3 -12 -22 -26
-40 -18 -24 -32 -33 -45 -30 -10 3 -20 0 -22 -7 -3 -8 -8 -8 -18 2 -11 10 -11
17 3 40 9 15 24 29 34 30 13 3 15 -1 10 -21 -3 -14 -2 -29 4 -32 5 -3 10 0 10
7 0 18 28 58 41 58 5 0 9 -3 9 -7z m673 0 c-7 -2 -19 -2 -25 0 -7 3 -2 5 12 5
14 0 19 -2 13 -5z m477 -3 c0 -6 -16 -10 -36 -10 -19 0 -33 3 -31 8 8 11 67
13 67 2z m-3016 -25 c3 -8 -2 -19 -10 -25 -9 -8 -14 -9 -14 -2 0 6 6 12 13 15
20 7 -66 -1 -90 -8 -15 -5 -23 -3 -23 4 0 7 -4 9 -10 6 -14 -9 -12 -55 2 -55
6 0 3 -6 -8 -14 -10 -8 -21 -10 -24 -6 -9 15 -33 -7 -27 -24 4 -9 -1 -20 -11
-25 -9 -6 -12 -11 -7 -11 6 0 20 7 33 15 17 13 21 13 16 2 -3 -8 -16 -20 -30
-27 -13 -7 -24 -17 -24 -22 0 -5 13 0 29 11 32 23 56 28 45 9 -5 -9 -2 -9 9 1
15 12 17 11 17 -2 0 -9 -8 -23 -17 -32 -15 -15 -18 -15 -28 -2 -9 13 -13 13
-29 1 -11 -7 -23 -11 -27 -8 -12 7 -11 71 1 79 6 3 10 23 10 44 0 48 36 87 73
77 14 -3 40 0 57 8 36 15 66 11 74 -9z m305 11 c-2 -2 -18 -7 -34 -11 l-30 -6
30 14 c27 13 45 14 34 3z m308 -6 c-1 -21 -29 -36 -47 -25 -17 11 -11 23 18
33 15 6 28 11 29 11 1 1 1 -8 0 -19z m1653 -15 c-19 -19 -29 -35 -23 -35 6 0
25 15 41 34 26 30 34 34 58 27 30 -8 25 -14 -17 -24 -26 -7 -99 -71 -99 -87 0
-6 3 -9 8 -8 4 2 18 -5 31 -14 l23 -16 -47 -22 -46 -21 19 -33 c19 -32 20
-102 1 -91 -4 3 -6 20 -3 38 5 30 4 31 -10 13 -13 -17 -14 -23 0 -54 15 -36
15 -36 -21 -69 -32 -30 -45 -53 -28 -53 4 0 19 12 35 27 15 14 30 24 34 21 3
-4 9 -32 13 -63 6 -46 5 -55 -6 -50 -8 3 -19 5 -25 5 -6 0 -8 12 -4 30 3 17 1
30 -4 30 -6 0 -10 -4 -10 -10 0 -5 -6 -10 -12 -11 -18 0 -78 -85 -78 -110 0
-11 5 -17 10 -14 13 8 13 -11 0 -35 -6 -12 -17 -17 -28 -14 -16 5 -16 5 1 -9
9 -8 17 -23 17 -34 0 -11 10 -36 23 -54 29 -43 25 -57 -19 -65 -24 -4 -34 -12
-34 -25 0 -16 3 -17 26 -7 23 11 28 10 40 -7 17 -23 10 -71 -13 -97 -18 -21
-78 -42 -93 -33 -14 9 -12 46 4 64 7 9 16 35 19 58 5 39 3 42 -24 52 -33 11
-36 6 -12 -21 13 -14 14 -25 7 -45 -9 -27 -66 -73 -88 -73 -6 0 -21 17 -33 39
-18 31 -21 48 -16 93 8 75 -16 128 -59 128 -17 0 -39 -10 -53 -25 -17 -17 -25
-20 -25 -9 0 8 -9 22 -20 31 -27 24 -25 39 11 76 25 25 34 28 48 19 9 -6 44
-28 79 -49 35 -20 68 -46 74 -58 6 -11 20 -29 31 -40 20 -20 22 -20 39 -3 10
10 18 26 18 36 -1 15 -2 15 -15 -2 -16 -21 -17 -21 -34 11 -14 28 -14 54 0 51
7 -2 26 21 44 50 18 29 51 69 74 88 52 45 55 69 6 61 -32 -5 -34 -4 -25 13 5
10 10 32 10 49 0 24 5 32 24 37 28 7 56 43 56 73 0 32 -21 70 -42 77 -12 3
-17 12 -14 20 3 8 -1 14 -9 14 -8 0 -15 9 -15 19 0 20 130 125 165 134 45 11
48 6 15 -28z m-2476 1 c-6 -16 -24 -13 -24 5 0 6 5 7 10 4 6 -3 10 -1 10 6 0
7 2 10 5 7 3 -3 3 -13 -1 -22z m735 -2 c-6 -8 -18 -14 -27 -14 -13 0 -12 3 3
20 20 22 43 17 24 -6z m1211 13 c0 -17 -38 -52 -47 -44 -9 10 18 57 34 57 7 0
13 -6 13 -13z m1437 7 c-3 -3 -12 -4 -19 -1 -8 3 -5 6 6 6 11 1 17 -2 13 -5z
m-2827 -8 c0 -2 -7 -7 -16 -10 -8 -3 -12 -2 -9 4 6 10 25 14 25 6z m70 -6 c0
-15 -40 -32 -58 -25 -13 6 -9 10 18 20 19 8 36 14 38 14 1 1 2 -3 2 -9z m724
-16 c18 -25 18 -26 -4 -49 -12 -13 -19 -28 -16 -33 3 -5 -3 -17 -14 -27 -11
-10 -20 -22 -20 -26 0 -11 -62 -109 -69 -109 -3 0 -12 4 -20 9 -11 7 -5 27 33
106 25 53 46 100 46 103 0 11 30 52 38 52 4 0 15 -12 26 -26z m536 18 c0 -16
-37 -52 -54 -52 -9 0 -16 -7 -16 -15 0 -10 -10 -15 -30 -15 -25 0 -30 4 -30
25 0 19 9 30 38 44 39 20 92 27 92 13z m481 -20 c-6 -11 -26 -31 -45 -46 -29
-22 -39 -25 -56 -16 -11 6 -20 15 -20 19 0 13 42 38 81 49 49 14 51 14 40 -6z
m-1267 -26 c17 -31 17 -42 6 -123 -6 -48 -12 -101 -11 -118 l0 -30 -15 28 c-8
15 -12 36 -9 46 6 19 -20 49 -33 37 -4 -4 -8 -37 -9 -73 -1 -36 -4 -68 -7 -71
-3 -3 -6 5 -6 18 0 12 -7 28 -17 35 -15 11 -13 20 21 100 20 48 34 90 31 93
-9 10 -22 -11 -56 -96 -18 -46 -35 -78 -37 -72 -6 17 35 125 69 182 29 49 37
74 20 64 -32 -20 -122 -233 -120 -284 0 -15 3 -22 5 -15 3 7 14 2 30 -13 13
-14 24 -27 24 -29 0 -11 -70 3 -93 18 -14 9 -31 17 -37 17 -5 0 -10 3 -11 8
-3 29 -9 47 -18 50 -6 2 -11 11 -11 19 0 14 2 15 18 1 9 -9 22 -13 29 -11 7 3
9 -3 6 -16 -4 -15 -1 -21 11 -21 16 0 38 38 29 52 -5 10 104 217 122 230 24
18 51 7 69 -26z m2031 13 c-4 -5 -13 -9 -22 -9 -13 0 -13 3 -3 15 13 15 35 11
25 -6z m470 11 c-3 -5 -12 -10 -20 -10 -8 0 -17 -5 -21 -11 -4 -7 2 -9 16 -7
13 2 25 -3 27 -9 3 -8 -6 -13 -24 -14 -15 0 -43 -2 -62 -5 -23 -3 -37 1 -45
11 -10 14 -27 15 -124 8 -61 -5 -112 -5 -112 -1 0 5 15 8 33 9 32 0 57 3 152
14 28 4 75 9 105 12 30 3 57 7 59 9 9 8 22 3 16 -6z m-3435 -4 c0 -3 -4 -8
-10 -11 -5 -3 -10 -1 -10 4 0 6 5 11 10 11 6 0 10 -2 10 -4z m250 -26 c0 -29
-15 -41 -22 -18 -3 7 -12 6 -30 -6 -14 -9 -31 -14 -39 -12 -16 6 -56 -21 -46
-31 4 -3 16 2 27 12 19 18 20 17 20 -5 0 -21 2 -22 18 -8 9 8 32 18 50 21 31
6 32 5 32 -28 0 -18 -5 -37 -11 -40 -6 -4 -8 -14 -5 -22 3 -8 2 -22 -3 -31 -5
-9 -11 -42 -14 -74 -5 -53 -28 -165 -48 -234 -5 -17 -9 -47 -9 -67 0 -29 -4
-37 -18 -37 -10 0 -23 -5 -30 -12 -17 -17 -15 -7 9 47 26 59 59 172 59 202 0
32 -30 30 -71 -4 -27 -23 -32 -25 -25 -8 5 11 11 48 14 81 3 52 8 64 28 75 13
7 24 17 24 22 0 6 7 19 17 29 9 10 11 18 5 18 -6 0 -15 -7 -19 -15 -5 -8 -24
-18 -43 -21 l-35 -7 20 23 c11 12 30 26 43 31 12 5 22 13 22 19 0 14 -11 13
-53 -5 -32 -13 -36 -13 -31 0 4 8 2 15 -4 15 -5 0 -12 -7 -16 -15 -6 -17 -36
-21 -36 -5 0 6 4 10 8 10 13 0 84 71 78 77 -3 3 -17 -4 -32 -16 -31 -25 -59
-28 -50 -6 7 19 -3 19 -18 1 -14 -17 -62 -33 -52 -17 4 6 14 11 22 11 8 0 14
6 14 13 0 14 106 41 122 31 5 -3 19 1 32 9 12 9 36 17 52 20 16 2 32 5 37 6 4
0 7 -12 7 -29z m744 -3 c-5 -22 -4 -22 7 1 7 12 18 22 25 22 13 0 8 -15 -41
-148 l-12 -34 -6 30 c-3 17 -2 44 3 61 5 17 6 47 3 66 -5 29 -3 34 10 30 9 -4
13 -15 11 -28z m1568 -1 c24 -2 32 -8 33 -24 1 -12 -4 -23 -12 -26 -18 -7 -16
-26 2 -26 12 0 14 -4 5 -19 -6 -12 -6 -22 -1 -25 5 -4 11 0 14 6 7 20 20 1 26
-39 5 -31 3 -41 -14 -55 -14 -11 -24 -13 -32 -6 -8 6 -13 7 -13 1 0 -14 46
-36 59 -29 7 5 11 -5 11 -28 0 -40 -16 -48 -29 -13 -5 12 -25 37 -44 56 -27
26 -41 32 -60 27 -31 -8 -55 30 -38 62 15 28 14 76 -2 115 -20 48 -13 58 28
41 19 -8 49 -16 67 -18z m353 25 c-3 -6 -15 -11 -26 -11 -11 0 -18 -4 -15 -9
3 -5 -8 -11 -24 -13 -22 -3 -30 0 -31 11 -1 9 -4 5 -8 -9 -4 -14 -10 -24 -14
-22 -4 1 -25 2 -47 2 -29 0 -38 4 -34 14 3 9 19 13 44 11 22 -1 37 2 34 6 -3
5 -22 10 -42 10 l-37 2 40 6 c78 12 167 13 160 2z m-2203 -13 c-14 -14 -16
-52 -2 -43 6 3 10 0 10 -7 0 -7 6 -4 12 7 16 28 54 64 46 43 -4 -8 -2 -20 4
-26 8 -8 6 -23 -6 -53 -19 -46 -41 -68 -68 -69 -19 0 -25 25 -8 35 16 10 11
25 -6 18 -14 -5 -15 -1 -9 25 l6 31 -29 -15 c-16 -8 -52 -17 -78 -19 -27 -3
-67 -8 -89 -11 -49 -7 -38 8 19 26 29 9 40 10 46 1 5 -9 10 -8 20 4 7 8 20 15
30 15 31 0 80 22 80 36 0 8 8 14 17 14 13 0 14 -3 5 -12z m1713 -8 c20 -22 33
-114 17 -124 -5 -3 -15 8 -21 24 -5 17 -17 33 -26 36 -19 8 -48 61 -40 74 10
17 51 11 70 -10z m-2085 0 c0 -5 -4 -10 -10 -10 -5 0 -10 5 -10 10 0 6 5 10
10 10 6 0 10 -4 10 -10z m40 -6 c0 -8 -4 -12 -10 -9 -5 3 -10 10 -10 16 0 5 5
9 10 9 6 0 10 -7 10 -16z m65 -4 c-11 -5 -27 -9 -35 -9 -13 -1 -13 0 0 9 8 5
24 9 35 9 l20 0 -20 -9z m1483 -8 c2 -6 -9 -17 -25 -24 -43 -19 -62 -56 -23
-43 25 8 25 -1 0 -47 -12 -22 -16 -40 -10 -43 6 -3 10 -17 10 -30 0 -13 7 -28
17 -33 12 -7 14 -17 10 -41 -6 -26 -4 -31 14 -31 23 0 37 29 19 40 -10 6 -10
9 0 15 8 5 18 1 27 -10 17 -24 17 -75 0 -75 -8 0 -20 -12 -27 -27 -13 -27 -14
-27 -18 -5 -2 14 -10 22 -24 22 -14 0 -18 5 -14 15 6 16 -19 22 -28 6 -3 -4
-24 -11 -46 -15 -27 -4 -40 -11 -40 -22 0 -13 7 -15 38 -9 20 4 39 11 40 16 6
15 22 10 22 -6 0 -8 5 -15 10 -15 6 0 10 -7 10 -16 0 -11 6 -14 23 -9 32 9 71
28 79 40 17 24 16 -5 -2 -40 -11 -22 -20 -52 -20 -68 0 -16 -4 -26 -10 -22 -5
3 -10 -1 -10 -9 0 -22 -9 -20 -37 6 -21 19 -25 20 -34 8 -8 -13 -12 -12 -25 5
-8 11 -13 28 -11 37 3 10 -1 22 -9 28 -15 13 -34 5 -34 -13 0 -7 -9 -18 -20
-25 -14 -9 -19 -19 -15 -35 4 -15 0 -29 -13 -40 -18 -17 -21 -17 -36 -1 -16
15 -16 18 1 38 24 28 45 66 36 66 -3 0 -15 -7 -25 -17 -34 -31 -29 -6 17 71
25 42 45 83 45 91 0 7 5 17 10 20 6 3 10 19 10 35 0 22 -4 28 -15 24 -8 -4
-15 -1 -15 5 0 6 5 11 11 11 19 0 40 30 37 52 l-3 23 -22 -22 c-33 -33 -29 -4
5 37 16 19 34 45 41 58 19 36 70 51 79 24z m755 12 c11 -11 -5 -34 -24 -34
-18 0 -26 20 -12 33 8 9 28 9 36 1z m284 -14 c-14 -11 -32 -20 -40 -20 -8 0
-20 -7 -27 -15 -21 -25 -32 -17 -14 10 9 14 26 25 38 25 11 0 28 5 36 10 28
18 33 10 7 -10z m-932 0 c3 -5 15 -10 25 -10 18 0 50 -34 50 -53 0 -4 -13 -13
-29 -18 -23 -8 -27 -15 -23 -35 2 -13 8 -27 13 -30 15 -9 10 -40 -8 -57 -10
-8 -31 -17 -48 -19 -28 -3 -30 -1 -28 27 1 16 8 34 15 40 18 14 20 125 3 119
-22 -9 -30 18 -10 33 22 16 32 16 40 3z m977 -32 c-11 -12 -25 -16 -36 -12
-16 6 -15 9 5 30 17 19 25 21 36 12 12 -10 11 -14 -5 -30z m-1712 -19 c-16
-28 -22 -19 -14 21 6 25 9 29 16 16 5 -10 5 -24 -2 -37z m525 41 c6 -10 -24
-59 -37 -60 -11 0 -10 28 2 51 12 21 25 25 35 9z m1019 -25 c-14 -19 -27 -35
-28 -35 -2 0 -1 13 2 29 3 21 11 31 26 34 11 2 22 5 24 6 2 0 -9 -15 -24 -34z
m406 25 c-23 -7 -21 -8 15 -11 22 -1 70 -2 108 -1 37 1 67 -2 67 -7 0 -13
-102 -21 -225 -17 -60 1 -124 -1 -142 -4 -29 -7 -31 -6 -20 11 12 19 52 25
121 20 15 -2 26 1 23 6 -3 5 13 10 36 10 35 1 38 0 17 -7z m-2790 -15 c-7 -8
-20 -15 -29 -15 -11 1 -8 5 9 15 32 18 35 18 20 0z m610 6 c0 -23 -32 -81 -45
-81 -19 0 -19 1 1 50 9 22 22 40 30 40 8 0 14 -4 14 -9z m176 -46 c-11 -56
-17 -62 -128 -148 -33 -25 -35 -3 -4 38 14 18 26 38 26 44 0 19 23 61 34 61 6
0 24 14 40 30 16 17 32 30 36 30 4 0 2 -25 -4 -55z m314 17 c15 4 34 -46 26
-67 -3 -9 -18 -15 -35 -15 -25 0 -32 5 -37 27 -7 26 -7 26 -15 5 -5 -12 -6
-29 -3 -37 4 -8 2 -15 -4 -15 -5 0 -12 7 -16 15 -5 13 -12 12 -57 -5 -29 -12
-58 -19 -66 -16 -7 3 -28 -8 -45 -24 -22 -22 -41 -30 -67 -30 -20 -1 -47 -8
-61 -16 l-25 -15 33 5 c34 6 41 -4 17 -24 -8 -7 -15 -16 -15 -21 0 -17 22 -9
42 16 12 15 30 25 46 25 l26 0 -32 -29 c-36 -34 -45 -81 -14 -81 10 0 23 5 30
12 20 20 33 -5 30 -58 -2 -38 -6 -48 -18 -45 -26 8 -82 3 -94 -9 -17 -17 7
-45 44 -48 29 -3 32 -1 27 17 -6 24 11 29 19 7 6 -16 -25 -76 -38 -76 -24 0
-148 88 -148 105 0 3 9 5 20 5 28 0 38 30 15 46 -21 15 -14 64 10 64 18 0 31
20 18 29 -6 3 -12 22 -15 41 -5 32 -3 38 25 57 18 12 40 25 50 29 10 3 25 20
33 36 12 23 19 28 37 22 12 -4 30 -8 40 -8 11 0 15 -6 12 -14 -5 -14 81 55
106 84 21 26 52 34 70 17 9 -7 22 -13 29 -11z m125 -8 c-13 -20 -20 -23 -28
-14 -9 9 -6 16 12 31 31 25 39 17 16 -17z m75 12 c0 -14 -7 -31 -15 -40 -8 -8
-15 -27 -15 -43 -1 -32 -42 -89 -58 -79 -17 10 6 75 47 133 20 29 37 53 39 53
1 0 2 -11 2 -24z m1030 14 c0 -5 -10 -10 -22 -10 -19 0 -20 2 -8 10 19 13 30
13 30 0z m-2390 -10 c0 -5 -4 -10 -9 -10 -6 0 -13 5 -16 10 -3 6 1 10 9 10 9
0 16 -4 16 -10z m2270 6 c0 -3 -4 -8 -10 -11 -5 -3 -10 -1 -10 4 0 6 5 11 10
11 6 0 10 -2 10 -4z m-1037 -27 c-3 -12 0 -25 7 -29 8 -5 10 -15 5 -26 -6 -17
-9 -15 -21 11 -17 39 -17 65 0 65 9 0 12 -7 9 -21z m317 9 c0 -10 2 -10 9 0
12 19 33 -10 29 -40 -2 -19 -9 -23 -40 -23 -44 -1 -54 16 -32 51 18 26 34 32
34 12z m428 -10 c26 -26 1 -91 -28 -73 -17 10 -11 25 8 18 14 -5 15 -3 5 8
-14 14 -18 59 -5 59 4 0 13 -5 20 -12z m602 -21 c0 -18 -2 -19 -10 -7 -13 20
-13 43 0 35 6 -3 10 -16 10 -28z m-2986 11 c-13 -21 -38 -48 -45 -48 -14 0 4
49 20 53 29 8 32 7 25 -5z m2721 2 c7 -12 -12 -50 -26 -50 -16 0 -22 29 -9 45
14 17 26 19 35 5z m175 -1 c0 -6 -16 -27 -35 -47 -19 -20 -35 -41 -35 -45 0
-13 37 11 58 38 19 24 21 24 26 7 4 -11 15 -27 25 -36 12 -11 16 -26 13 -46
-2 -16 -8 -27 -13 -24 -14 8 -11 -14 6 -46 14 -26 14 -30 1 -30 -21 0 -38 36
-34 72 4 36 -20 52 -29 19 -4 -17 -9 -19 -19 -10 -7 6 -23 8 -36 3 -24 -7 -29
-7 -27 1 4 12 -56 24 -68 13 -7 -6 -16 -8 -19 -5 -3 3 9 18 27 34 18 15 54 47
79 70 43 41 80 55 80 32z m402 2 c4 0 5 -8 1 -17 -5 -13 -19 -15 -77 -12 -39
2 -77 7 -84 12 -15 9 -35 -2 -27 -15 4 -5 41 -10 83 -10 42 -1 69 -3 60 -6
-22 -6 -23 -19 -3 -27 14 -5 14 -9 -2 -33 -10 -15 -28 -37 -40 -50 -13 -12
-23 -28 -23 -35 0 -7 -13 2 -29 20 -23 25 -38 32 -65 32 -42 0 -43 4 -16 45
23 34 26 65 8 65 -13 0 -43 -40 -72 -95 -13 -26 -15 -27 -16 -8 0 11 10 46 21
77 20 51 24 55 58 58 33 3 207 3 223 -1z m148 0 c0 -5 3 -23 6 -40 l7 -31 -72
0 c-41 0 -71 4 -71 10 0 6 25 10 55 10 30 0 55 5 55 10 0 6 -22 10 -50 10 -27
0 -50 2 -50 4 0 27 16 36 66 36 30 0 54 -4 54 -9z m-2814 -10 c-7 -10 -106
-34 -113 -27 -5 5 77 34 100 35 10 1 16 -3 13 -8z m-126 -11 c0 -5 -10 -10
-22 -10 -19 0 -20 2 -8 10 19 13 30 13 30 0z m2270 -21 c-19 -16 -44 -34 -55
-40 -17 -10 -17 -8 3 10 12 12 22 26 22 32 0 5 10 14 23 19 40 16 43 10 7 -21z
m-608 -6 c28 -25 24 -79 -7 -99 -36 -24 -58 -4 -49 45 7 39 21 71 31 71 4 0
15 -7 25 -17z m-2077 -13 c-19 -21 -45 -27 -45 -10 0 6 10 15 23 20 35 14 41
11 22 -10z m301 -2 c-11 -6 -14 -17 -10 -32 3 -13 1 -27 -5 -30 -15 -10 -14
57 1 72 6 6 16 9 21 5 5 -3 2 -10 -7 -15z m1224 -13 c0 -15 -6 -25 -14 -25
-22 0 -30 19 -16 35 18 22 30 18 30 -10z m-1831 -37 c0 -42 -2 -48 -9 -30 -8
20 -3 82 6 82 2 0 4 -24 3 -52z m123 17 c-5 -30 -29 -51 -63 -57 -23 -4 -25
-1 -28 34 -1 21 0 42 3 46 2 4 24 6 49 4 40 -3 43 -6 39 -27z m108 25 c0 -5
-5 -10 -11 -10 -5 0 -7 5 -4 10 3 6 8 10 11 10 2 0 4 -4 4 -10z m279 -84 c-9
-8 -10 -5 -5 14 3 14 7 39 8 55 1 20 3 16 5 -14 3 -26 -1 -48 -8 -55z m411 66
c0 -15 -2 -15 -10 -2 -13 20 -13 33 0 25 6 -3 10 -14 10 -23z m947 -4 c-3 -8
-6 -5 -6 6 -1 11 2 17 5 13 3 -3 4 -12 1 -19z m803 -29 c0 -20 -28 -39 -59
-39 -32 0 -34 19 -6 56 26 34 28 35 46 18 10 -9 19 -25 19 -35z m-2406 16 c-4
-8 -8 -15 -10 -15 -2 0 -4 7 -4 15 0 8 4 15 10 15 5 0 7 -7 4 -15z m37 -11
c-17 -14 -31 -32 -31 -39 0 -7 -8 -23 -19 -36 -10 -13 -24 -42 -32 -64 -8 -27
-14 -34 -17 -22 -10 48 76 186 116 187 8 0 0 -12 -17 -26z m1444 9 c-5 -14 -3
-15 6 -6 13 13 39 6 39 -11 -1 -19 -42 -62 -47 -48 -10 26 -25 11 -19 -19 5
-25 0 -36 -24 -62 -16 -17 -27 -33 -25 -35 2 -2 17 11 33 29 l30 33 36 -37
c37 -39 76 -49 76 -21 0 14 -3 14 -15 4 -9 -7 -15 -8 -15 -2 0 5 -13 24 -30
42 -43 46 -40 54 18 65 27 4 32 1 46 -27 9 -17 16 -47 15 -67 0 -43 -32 -144
-46 -148 -11 -4 -43 55 -43 78 0 10 -3 10 -11 2 -9 -9 -9 -23 1 -56 10 -39 10
-48 -5 -71 -24 -36 -28 -33 -20 14 10 57 -9 51 -38 -12 -13 -29 -40 -71 -60
-93 -33 -37 -37 -39 -52 -24 -16 15 -15 19 5 60 13 24 31 56 41 71 20 27 26
62 10 56 -14 -5 -141 -166 -141 -179 0 -8 4 -8 15 1 20 16 26 10 18 -18 -3
-15 -11 -21 -22 -18 -17 5 -95 -95 -113 -144 -7 -23 -17 -29 -56 -34 -143 -22
-322 -14 -322 13 0 4 -14 8 -31 9 -17 1 -39 7 -49 12 -32 17 -131 12 -153 -7
-23 -20 -18 -9 16 40 15 21 22 25 32 17 11 -9 17 -5 30 19 8 17 20 31 26 31 6
0 35 -12 65 -26 31 -15 62 -23 73 -19 11 3 22 1 26 -5 3 -5 13 -10 22 -10 8 0
28 -11 44 -25 54 -45 146 -42 208 6 13 10 31 19 40 19 23 0 41 54 41 123 l0
57 33 0 c37 0 91 30 106 58 6 11 12 44 15 73 3 30 8 86 12 125 6 68 5 74 -20
106 -14 19 -26 37 -26 39 0 3 18 6 40 7 26 2 40 -1 40 -10 0 -9 3 -9 12 0 16
16 28 15 28 -3 0 -22 9 -19 40 15 31 33 56 40 45 13z m809 8 c3 -4 0 -15 -7
-24 -15 -21 -43 -6 -34 17 7 17 32 22 41 7z m1121 -9 c7 -15 8 -15 15 3 7 16
9 12 9 -17 1 -20 -4 -40 -9 -43 -6 -4 -8 -40 -6 -91 4 -76 3 -85 -16 -99 -26
-18 -38 -11 -38 20 0 26 -15 41 -25 25 -3 -5 -14 -10 -23 -10 -12 0 -9 4 8 13
33 16 63 76 48 94 -8 10 -6 13 11 13 11 0 21 5 21 11 0 7 -10 9 -24 5 -16 -4
-28 -1 -33 7 -11 19 -47 37 -72 37 -34 0 -27 38 7 42 87 10 120 7 127 -10z
m-3530 -22 c-4 -12 -9 -19 -12 -17 -3 3 -2 15 2 27 4 12 9 19 12 17 3 -3 2
-15 -2 -27z m71 0 c1 -13 -6 -42 -16 -65 l-17 -40 -5 38 c-3 31 -1 37 14 37
10 0 18 5 18 10 0 6 -7 10 -15 10 -17 0 -18 2 -9 25 9 23 29 13 30 -15z m522
17 c-32 -13 -37 -37 -8 -37 11 0 20 -4 20 -8 0 -12 -22 -32 -34 -32 -10 0 -46
66 -46 83 0 4 21 7 48 6 44 -1 45 -2 20 -12z m462 -7 c0 -11 -4 -20 -9 -20 -5
0 -7 9 -4 20 3 11 7 20 9 20 2 0 4 -9 4 -20z m763 -37 c-16 -21 -37 -53 -47
-70 -21 -42 -26 -41 -26 2 0 24 5 35 14 35 8 0 18 9 21 20 3 11 10 20 14 20 4
0 13 12 20 27 9 19 15 23 23 15 9 -9 4 -21 -19 -49z m-115 19 c2 -7 -3 -12
-12 -12 -9 0 -16 7 -16 16 0 17 22 14 28 -4z m-1185 -17 c4 -8 2 -17 -2 -20
-5 -2 -11 4 -14 15 -6 23 8 27 16 5z m2114 -7 c26 -25 30 -48 8 -48 -8 0 -15
-4 -15 -10 0 -19 -42 -10 -47 10 -3 10 -15 22 -26 26 -21 7 -21 7 2 25 30 25
49 24 78 -3z m-2177 -3 c0 -8 4 -15 9 -15 5 0 12 -12 15 -27 20 -82 28 -103
38 -103 7 0 8 17 4 53 -5 41 -4 48 5 33 7 -11 9 -38 5 -70 -4 -28 -13 -106
-21 -174 -17 -142 -24 -172 -37 -172 -5 0 -8 51 -7 123 1 85 -3 142 -15 187
-18 72 -21 180 -6 180 6 0 10 -7 10 -15z m210 6 c0 -9 -41 -23 -48 -16 -2 2
-1 8 3 14 8 13 45 15 45 2z m2537 -17 c9 -15 18 -42 19 -60 3 -30 0 -34 -20
-34 -18 0 -29 -10 -44 -42 -11 -24 -30 -51 -41 -60 -20 -17 -21 -17 -21 2 0
11 6 20 14 20 8 0 -1 15 -20 36 -34 36 -42 54 -24 54 6 0 10 9 10 20 0 10 8
24 18 29 10 5 24 21 32 35 18 34 54 34 77 0z m-3265 -17 c-3 -28 20 -39 34
-16 7 12 47 -53 58 -94 6 -27 -3 -41 -20 -29 -21 14 -114 134 -114 146 0 18
11 27 30 23 10 -2 14 -12 12 -30z m2232 17 c20 -19 20 -26 2 -69 -27 -63 -85
-36 -63 29 19 57 34 67 61 40z m687 -8 c12 -26 5 -76 -11 -76 -6 0 -10 14 -10
30 0 17 -4 30 -10 30 -15 0 -24 -50 -11 -63 6 -6 11 -22 11 -36 0 -23 -1 -24
-16 -9 -21 20 -30 99 -15 127 16 28 49 27 62 -3z m75 16 c20 -12 39 -91 26
-104 -17 -17 -70 52 -71 95 -1 17 24 23 45 9z m-2916 -35 c0 -5 -4 -5 -10 -2
-5 3 -10 14 -10 23 0 15 2 15 10 2 5 -8 10 -19 10 -23z m136 -32 c-15 -58 -58
-135 -76 -135 -13 0 -13 -2 10 71 17 56 67 135 77 125 3 -2 -3 -30 -11 -61z
m-263 -5 c13 0 35 -29 33 -43 -1 -5 7 -13 16 -18 10 -5 30 -31 45 -57 15 -26
32 -51 38 -55 5 -5 1 -6 -10 -1 -11 4 -47 14 -80 23 -44 12 -59 20 -57 32 1 9
-1 40 -5 70 -5 30 -6 68 -3 84 l4 30 4 -32 c2 -18 9 -33 15 -33z m455 15 c-6
-52 0 -56 24 -17 l17 27 1 -25 c0 -14 -7 -63 -15 -110 -23 -132 -14 -134 20
-5 18 66 19 68 27 40 5 -17 8 -59 6 -95 -1 -36 -1 -95 -1 -131 l1 -67 -29 11
c-20 8 -29 18 -29 34 0 13 -4 23 -10 23 -5 0 -10 -7 -10 -15 0 -8 -7 -15 -15
-15 -18 0 -19 -12 -3 -28 6 -6 8 -15 5 -19 -4 -4 -17 3 -29 14 -44 44 -34 194
28 411 8 30 16 8 12 -33z m396 5 c-6 -5 -24 21 -24 34 0 6 6 1 14 -10 8 -10
12 -21 10 -24z m1726 30 c19 0 20 -14 6 -50 -4 -9 0 -24 8 -35 13 -18 18 -19
58 -7 82 25 86 25 96 5 22 -43 23 -72 2 -93 -21 -21 -74 -27 -85 -10 -3 6 -1
10 5 10 15 0 40 25 40 40 0 8 -8 7 -25 -4 -30 -20 -35 -20 -35 -1 0 22 -17 18
-23 -5 -6 -25 -37 -26 -65 -1 -15 13 -22 30 -22 56 0 32 -2 36 -15 25 -18 -15
-18 -8 -4 43 7 28 15 37 26 33 8 -3 23 -6 33 -6z m-1810 -10 c0 -5 -15 -10
-32 -9 -31 1 -32 1 -8 9 35 11 40 11 40 0z m540 -25 c-10 -19 -17 -22 -31 -14
-26 14 -24 23 9 35 35 13 38 10 22 -21z m2250 1 c0 -8 6 -16 13 -19 20 -6 -11
-37 -38 -37 -27 0 -35 17 -24 48 9 24 49 31 49 8z m-1658 -79 c-35 -69 -37
-71 -40 -40 -2 24 5 45 28 78 47 68 55 44 12 -38z m948 48 c17 -18 20 -30 15
-54 -7 -33 -23 -49 -34 -34 -3 5 -14 12 -23 16 -10 3 -18 15 -18 25 0 11 -7
25 -15 32 -14 12 -14 15 0 30 19 22 46 16 75 -15z m-2080 10 c-47 -18 -60 -18
-60 0 0 11 12 15 48 14 l47 -1 -35 -13z m257 -7 c-3 -8 -6 -5 -6 6 -1 11 2 17
5 13 3 -3 4 -12 1 -19z m2488 -58 c8 0 15 -4 15 -10 0 -16 -48 -12 -76 6 -25
17 -25 42 0 70 8 10 15 4 29 -27 10 -21 24 -39 32 -39z m-3544 1 c1 -28 -1
-55 -5 -58 -3 -3 -6 22 -6 57 0 75 10 76 11 1z m366 -32 c-14 -41 -45 -117
-70 -169 -42 -88 -46 -93 -52 -67 -18 70 27 213 89 284 52 60 63 44 33 -48z
m491 64 c-1 -16 -11 -38 -23 -50 -57 -62 -55 -60 -44 -110 11 -47 11 -48 -25
-87 -20 -21 -39 -37 -41 -34 -2 2 2 24 10 48 8 25 17 62 21 84 4 27 19 52 51
87 l45 49 -28 11 -29 12 30 7 c17 4 31 8 32 9 2 0 2 -11 1 -26z m2557 17 c3
-5 1 -10 -4 -10 -6 0 -11 5 -11 10 0 6 2 10 4 10 3 0 8 -4 11 -10z m-2335 -25
c0 -9 -9 -15 -22 -15 -22 1 -23 1 -4 15 25 19 26 19 26 0z m245 5 c3 -5 -1
-10 -9 -10 -9 0 -16 5 -16 10 0 6 4 10 9 10 6 0 13 -4 16 -10z m1725 -15 c0
-14 5 -25 10 -25 18 0 10 -15 -14 -26 -18 -8 -28 -8 -35 -1 -15 15 -14 50 1
65 20 20 38 14 38 -13z m135 -2 c16 -18 25 -39 25 -60 0 -36 -14 -47 -73 -58
-34 -7 -38 -5 -47 21 -7 19 -8 30 0 38 5 5 10 16 10 24 0 19 32 61 47 62 7 0
24 -12 38 -27z m-2218 -17 c-3 -41 -31 -76 -62 -76 -11 0 -26 -5 -33 -12 -22
-22 -25 1 -5 39 18 34 73 83 94 83 4 0 7 -15 6 -34z m-163 15 c3 -4 -2 -15
-12 -24 -25 -22 -42 -8 -33 28 2 9 40 5 45 -4z m386 -11 c0 -5 -2 -10 -4 -10
-3 0 -8 5 -11 10 -3 6 -1 10 4 10 6 0 11 -4 11 -10z m1783 -52 c-2 -5 -10 -8
-18 -8 -7 0 -16 -9 -20 -19 -3 -11 -16 -26 -29 -35 -23 -14 -24 -14 -22 14 1
15 9 37 19 47 9 11 17 29 17 40 0 20 2 19 29 -6 16 -14 27 -29 24 -33z m-1983
48 c0 -3 -4 -8 -10 -11 -5 -3 -10 -1 -10 4 0 6 5 11 10 11 6 0 10 -2 10 -4z
m1273 -31 c-19 -24 -29 -30 -31 -21 -5 24 17 56 39 56 18 0 18 -3 -8 -35z
m1147 -7 c0 -9 -4 -20 -10 -23 -6 -3 -7 1 -4 10 4 8 1 21 -5 29 -6 7 -8 16 -4
20 8 8 23 -14 23 -36z m66 7 c10 -8 13 -15 7 -15 -7 0 -20 -11 -28 -24 -13
-19 -14 -29 -5 -45 6 -12 17 -21 25 -21 21 0 19 -13 -6 -44 -17 -22 -28 -27
-58 -24 -35 3 -36 4 -39 51 -3 38 0 48 15 54 31 11 53 35 53 60 0 27 9 29 36
8z m-2229 -42 c-17 -18 -22 -8 -11 22 5 12 10 13 17 6 8 -8 6 -16 -6 -28z
m1343 16 c22 -12 47 -18 56 -15 22 8 73 -41 67 -65 -3 -10 -23 -35 -45 -54
-40 -37 -43 -37 -104 -14 -30 11 -40 89 -12 89 22 0 23 18 3 44 -15 20 -19 36
-10 36 2 0 23 -9 45 -21z m747 -1 c-3 -8 -6 -5 -6 6 -1 11 2 17 5 13 3 -3 4
-12 1 -19z m253 7 c0 -17 -35 -55 -49 -55 -23 0 -20 22 5 45 31 29 44 32 44
10z m-2882 -57 c-3 -27 -11 -55 -18 -61 -10 -10 -11 -7 -6 13 3 14 6 44 6 68
0 29 4 41 11 36 7 -4 9 -26 7 -56z m362 45 c0 -14 -70 -131 -87 -144 -10 -8
-3 9 16 41 18 30 38 67 44 83 10 24 27 37 27 20z m1441 -63 c4 -28 6 -56 3
-63 -7 -17 -66 -57 -76 -51 -19 12 -45 82 -36 98 13 24 31 20 18 -3 -15 -30
-12 -36 9 -17 11 10 17 25 14 37 -7 24 36 74 50 60 6 -6 13 -33 18 -61z m339
22 c0 -34 -25 -72 -47 -72 -19 0 -53 28 -53 44 0 6 15 25 33 42 38 36 67 30
67 -14z m170 28 c8 0 21 -9 28 -20 10 -17 9 -25 -4 -45 -17 -26 -44 -34 -44
-13 0 6 -9 22 -21 34 -18 19 -19 25 -7 43 8 13 16 17 22 11 6 -6 17 -10 26
-10z m299 -23 c15 -3 17 -12 12 -48 -5 -36 -11 -45 -34 -53 -39 -14 -61 2 -68
52 -3 24 -1 38 4 35 5 -3 7 0 5 8 -3 8 7 21 21 30 24 15 27 15 35 -1 4 -10 16
-20 25 -23z m-2309 23 c0 -14 -19 -48 -53 -92 -16 -21 -23 -38 -17 -38 10 0 6
-36 -6 -49 -7 -7 -33 33 -34 51 0 9 -5 18 -12 20 -19 7 2 29 25 27 45 -3 53 1
35 15 -22 16 -23 39 -3 56 8 7 15 9 15 4 0 -4 5 -3 12 4 15 15 38 16 38 2z
m-774 -37 c-13 -24 -15 -25 -16 -7 0 11 5 25 12 32 19 19 21 6 4 -25z m894
-45 c-20 -37 -61 -81 -142 -153 -17 -14 -18 -13 -18 9 0 14 9 31 19 38 10 7
26 30 34 51 11 26 22 37 36 37 16 0 21 6 21 26 0 14 8 36 18 49 17 23 17 23
36 5 20 -19 20 -20 -4 -62z m2352 60 c-6 -6 -15 -8 -19 -4 -4 4 -1 11 7 16 19
12 27 3 12 -12z m212 -21 c4 -24 6 -73 5 -109 -1 -36 1 -69 4 -75 8 -12 -21
-70 -38 -77 -9 -3 -12 0 -8 10 3 7 0 14 -5 14 -6 0 -14 -9 -17 -20 -3 -11 -13
-20 -20 -20 -18 0 -32 23 -17 28 26 8 42 33 33 50 -7 12 -4 23 10 38 17 18 19
30 13 72 -5 43 -10 51 -31 57 -19 4 -31 0 -45 -14 -22 -25 -28 -26 -28 -7 0
21 64 86 84 86 9 0 21 -10 26 -22 9 -21 10 -21 9 -3 -2 29 0 35 10 35 5 0 12
-20 15 -43z m-3582 6 c74 -29 111 -64 89 -86 -16 -16 -14 -54 4 -61 15 -5 22
-56 8 -56 -5 0 -36 16 -71 34 -34 19 -65 30 -67 25 -6 -8 60 -54 93 -66 31
-11 52 -36 52 -62 0 -14 5 -33 10 -41 16 -23 41 14 33 50 -8 44 57 170 89 170
15 0 8 -64 -12 -108 -11 -24 -35 -62 -53 -85 -19 -23 -40 -53 -46 -65 -12 -23
-13 -23 -34 19 -27 55 -34 34 -12 -35 13 -40 14 -59 6 -73 -6 -10 -11 -13 -11
-6 0 7 -31 33 -69 60 -99 68 -111 98 -111 276 0 116 2 137 15 137 9 0 47 -12
87 -27z m1198 -14 c0 -6 -4 -7 -10 -4 -5 3 -10 11 -10 16 0 6 5 7 10 4 6 -3
10 -11 10 -16z m1605 -16 c-8 -42 22 -71 71 -69 37 1 39 -1 48 -36 5 -21 6
-41 2 -45 -8 -8 -67 24 -79 44 -11 18 -37 16 -53 -4 -17 -23 -18 -47 -1 -36
21 13 37 12 37 -3 0 -18 -102 -13 -125 6 -23 19 -18 49 11 62 22 10 28 10 39
-5 15 -21 29 -22 45 -2 11 13 9 20 -9 38 -25 28 -26 35 -4 59 21 24 23 23 18
-9z m295 17 c0 -5 -4 -10 -10 -10 -5 0 -10 5 -10 10 0 6 5 10 10 10 6 0 10 -4
10 -10z m-105 -27 c-14 -33 -19 -127 -6 -119 6 4 11 20 11 36 0 65 45 109 78
76 13 -13 14 -19 2 -40 -7 -14 -16 -25 -19 -24 -21 2 -32 -5 -45 -31 -19 -35
-56 -49 -56 -20 0 11 -7 33 -15 50 -15 27 -14 31 7 59 24 33 55 42 43 13z
m-1827 -23 c10 -17 10 -24 -2 -43 -26 -40 -66 -160 -60 -179 3 -10 1 -18 -5
-18 -6 0 -11 4 -11 9 0 5 -10 11 -22 13 -22 3 -23 7 -20 75 2 43 10 90 21 114
18 39 19 40 27 18 4 -13 7 -27 6 -31 -1 -5 7 -8 18 -8 16 0 20 7 20 35 0 40 9
44 28 15z m80 8 c7 -7 12 -35 12 -62 -1 -48 -2 -50 -16 -31 -10 13 -13 31 -9
53 4 19 2 32 -5 32 -5 0 -10 5 -10 10 0 14 13 13 28 -2z m2137 -60 c-16 -19
-25 -39 -21 -51 4 -16 1 -18 -22 -12 -15 3 -40 15 -55 26 -23 17 -31 18 -43 8
-8 -7 -11 -15 -6 -18 18 -12 24 -51 8 -57 -20 -8 -28 -51 -18 -89 12 -41 5
-55 -27 -55 -27 0 -51 -16 -51 -33 0 -4 9 -6 20 -2 12 4 27 -1 40 -13 18 -16
20 -25 13 -53 -11 -42 -63 -61 -94 -33 -23 20 -24 47 -5 67 9 8 12 24 9 36 -3
14 1 29 13 42 15 17 19 38 20 103 1 44 -2 91 -7 102 -7 19 -3 23 36 34 31 9
48 9 63 1 49 -26 121 0 139 52 l7 22 4 -23 c2 -14 -7 -35 -23 -54z m245 27 c0
-17 -2 -17 -10 -5 -5 8 -10 24 -10 35 0 17 2 17 10 5 5 -8 10 -24 10 -35z
m-1869 -8 c-13 -13 -15 1 -4 30 7 17 8 17 11 -1 2 -10 -1 -23 -7 -29z m889 19
c26 -22 27 -25 14 -44 -8 -12 -21 -19 -28 -16 -8 3 -26 -2 -40 -11 -20 -13
-29 -14 -47 -5 l-22 12 29 24 c16 13 32 23 36 24 4 0 10 9 13 20 8 25 11 25
45 -4z m860 14 c0 -5 -7 -10 -15 -10 -8 0 -15 5 -15 10 0 6 7 10 15 10 8 0 15
-4 15 -10z m-2316 -72 c-17 -66 -18 -89 -1 -83 14 6 40 -31 32 -46 -5 -7 -69
-39 -80 -39 -7 0 8 89 22 135 29 92 50 117 27 33z m2315 -14 c-7 -8 -24 -14
-37 -12 -30 4 -43 28 -15 28 10 0 27 10 38 23 l20 22 3 -23 c2 -13 -2 -30 -9
-38z m-2790 -3 c1 -8 -2 -11 -6 -8 -3 4 -15 -1 -26 -10 -22 -19 -21 -14 5 39
11 23 14 24 20 10 4 -9 7 -23 7 -31z m1281 14 c11 -33 5 -143 -7 -131 -3 2
-15 1 -27 -4 -19 -7 -26 -3 -40 22 -23 37 -14 91 19 124 32 32 41 30 55 -11z
m1138 -18 c-3 -25 -3 -25 -26 -7 -20 16 -21 22 -12 41 11 19 14 20 27 7 8 -9
13 -27 11 -41z m-659 24 c20 -11 44 -27 51 -36 13 -15 11 -20 -13 -41 -37 -32
-52 -30 -87 9 -40 44 -39 82 3 86 4 1 25 -8 46 -18z m-1458 -38 c-9 -16 -10
-16 -11 -1 0 9 3 25 7 35 7 16 8 17 11 1 2 -10 -1 -25 -7 -35z m-729 6 c4 -23
0 -33 -15 -41 -18 -9 -19 -8 -14 13 4 13 7 32 7 42 0 29 17 19 22 -14z m468 2
c0 -17 -6 -31 -16 -35 -12 -5 -15 -2 -10 10 3 8 6 24 6 35 0 10 5 19 10 19 6
0 10 -13 10 -29z m211 2 c-12 -20 -14 -14 -5 12 4 9 9 14 11 11 3 -2 0 -13 -6
-23z m2499 -33 c10 0 10 -3 0 -15 -16 -20 -33 -19 -60 3 -18 15 -22 25 -16 46
l7 27 28 -30 c16 -17 35 -31 41 -31z m-2817 18 c-3 -13 -14 -32 -23 -43 -10
-11 -36 -56 -59 -100 -23 -44 -50 -96 -62 -115 -86 -146 -126 -252 -133 -351
-4 -65 -16 -110 -16 -61 0 29 -20 39 -37 17 -18 -25 -17 -15 8 63 26 80 122
284 145 307 10 9 18 28 20 42 1 13 9 32 18 41 8 10 31 50 51 90 29 59 79 132
91 132 1 0 0 -10 -3 -22z m1986 -61 c-2 -90 -11 -122 -34 -123 -11 -1 -28 -5
-37 -9 -16 -6 -17 -3 -12 24 4 17 2 37 -3 43 -23 29 -21 58 5 89 25 31 60 51
75 42 4 -2 6 -32 6 -66z m101 2 c0 -5 6 -9 14 -9 18 0 22 -6 31 -48 6 -31 5
-33 -40 -53 -26 -11 -49 -18 -53 -15 -10 10 -14 37 -19 109 l-5 67 36 -21 c20
-11 36 -25 36 -30z m-1790 27 c0 -14 -29 -31 -38 -21 -6 6 18 35 29 35 5 0 9
-6 9 -14z m2066 -83 c-7 -18 -23 -17 -30 2 -3 8 -17 20 -31 25 -32 12 -32 23
2 50 l28 21 18 -42 c10 -24 15 -49 13 -56z m332 85 c19 -19 14 -32 -21 -48
-59 -27 -34 -71 26 -45 15 6 17 1 17 -38 0 -58 -13 -67 -34 -22 -12 25 -26 37
-49 43 -50 13 -50 79 1 106 33 19 45 19 60 4z m-451 -38 c3 -40 -28 -86 -52
-76 -21 8 -19 61 3 91 24 35 46 28 49 -15z m-2587 0 c0 -30 -22 -70 -38 -70
-29 0 -101 -54 -102 -76 0 -12 -7 -24 -15 -28 -8 -3 -15 -12 -15 -20 0 -10 6
-13 16 -9 9 3 15 2 13 -3 -30 -65 -44 -78 -55 -51 -15 39 98 241 149 265 33
16 47 14 47 -8z m80 -1 c0 -6 -4 -7 -10 -4 -5 3 -10 11 -10 16 0 6 5 7 10 4 6
-3 10 -11 10 -16z m3060 -30 c0 -5 9 -18 20 -29 25 -25 17 -42 -16 -34 -18 5
-29 1 -38 -12 -12 -16 -14 -15 -21 17 -4 19 -9 50 -10 70 l-2 37 33 -20 c19
-11 34 -24 34 -29z m-2034 -4 c-15 -19 -29 -35 -31 -35 -9 0 9 36 28 57 31 35
33 18 3 -22z m1024 -15 c0 -30 -39 -88 -49 -72 -3 6 -15 12 -26 14 -45 7 -46
46 -3 87 29 27 33 28 55 14 15 -10 23 -25 23 -43z m691 24 c11 -31 3 -68 -14
-60 -7 3 -20 9 -30 12 -11 4 -16 13 -13 21 3 8 6 23 6 34 0 30 38 24 51 -7z
m-628 6 c-26 -11 -31 -30 -8 -30 8 0 15 -8 15 -18 0 -10 8 -29 17 -42 l17 -25
-26 18 c-15 9 -33 17 -41 17 -18 0 -21 71 -4 82 6 4 21 7 32 7 18 0 18 -1 -2
-9z m-866 -22 c-3 -8 -6 -5 -6 6 -1 11 2 17 5 13 3 -3 4 -12 1 -19z m49 -23
c7 -27 6 -29 -9 -16 -10 7 -17 25 -17 39 0 33 16 18 26 -23z m1904 8 c0 -19
-3 -24 -10 -17 -6 6 -8 18 -4 27 9 24 14 21 14 -10z m-2977 -30 c-11 -16 -28
-48 -38 -73 -23 -53 -66 -122 -73 -116 -2 3 12 34 32 69 19 35 48 88 62 118
15 30 29 48 31 42 3 -7 -4 -25 -14 -40z m799 -18 c-15 -25 -28 -41 -30 -36 -5
15 40 80 55 81 1 0 -10 -20 -25 -45z m2155 5 c9 -23 8 -32 -2 -40 -11 -9 -18
-5 -30 14 -18 27 -14 56 7 56 8 0 19 -13 25 -30z m-3118 -99 c-28 -56 -52
-101 -54 -99 -9 9 22 89 40 102 26 20 11 20 -44 0 -24 -8 -46 -13 -48 -10 -11
11 40 47 82 57 27 7 45 17 45 26 0 8 -4 11 -10 8 -5 -3 -10 1 -10 9 0 14 42
27 48 15 1 -3 -20 -52 -49 -108z m1014 95 c-38 -60 -78 -114 -82 -110 -3 2 9
24 26 48 17 24 34 53 38 65 3 12 11 19 16 15 5 -3 6 -11 2 -18z m197 -12 c0
-3 -10 -8 -21 -12 -15 -6 -22 -19 -25 -45 -3 -34 -32 -93 -41 -84 -2 3 6 43
18 90 l21 86 24 -16 c13 -8 24 -17 24 -19z m117 -18 c-2 -6 -9 -1 -16 12 -6
12 -9 28 -5 34 8 13 27 -28 21 -46z m1201 36 c2 -7 -8 -26 -22 -43 -14 -17
-26 -37 -26 -45 0 -16 -16 -19 -25 -3 -4 6 -14 8 -21 5 -12 -5 -14 1 -8 32 4
20 10 38 14 40 4 1 16 9 26 17 22 16 56 14 62 -3z m120 -45 c3 -21 -5 -35 -28
-57 -18 -17 -36 -30 -40 -30 -20 0 -27 136 -7 143 23 9 72 -27 75 -56z m-2748
44 c-8 -5 -26 -12 -40 -16 -22 -7 -23 -6 -11 9 7 9 25 16 40 16 19 -1 22 -3
11 -9z m450 -1 c0 -5 -11 -11 -25 -11 -14 -1 -30 -2 -37 -3 -6 -1 -13 5 -15
12 -3 8 8 12 36 12 23 0 41 -4 41 -10z m2031 -3 c10 -8 16 -29 17 -60 0 -41
-3 -50 -23 -59 -12 -5 -28 -20 -35 -33 -9 -16 -18 -21 -36 -17 -17 3 -30 -2
-39 -14 -14 -18 -14 -18 -15 2 0 15 10 25 33 33 88 33 103 53 69 96 l-19 24 1
-36 c1 -34 -1 -36 -47 -50 -48 -14 -48 -14 -78 17 -45 45 -36 66 26 62 40 -3
57 1 85 21 41 30 41 30 61 14z m-676 -24 c0 -25 4 -29 40 -33 35 -4 40 -8 38
-30 -2 -30 -14 -90 -18 -90 -1 0 -17 5 -34 11 -32 11 -32 13 -28 60 3 27 2 49
-2 49 -11 0 -32 40 -26 50 12 20 31 9 30 -17z m-1915 2 c-7 -8 -19 -15 -27
-15 -13 0 -13 3 -3 15 7 8 19 15 27 15 13 0 13 -3 3 -15z m1624 -2 c24 16 24
16 31 -19 6 -36 -10 -104 -25 -104 -5 0 -26 -11 -46 -25 -43 -29 -54 -25 -54
21 0 24 -5 34 -15 34 -8 0 -15 -6 -15 -14 0 -8 -2 -21 -5 -28 -3 -8 4 -27 16
-42 19 -24 23 -25 38 -13 39 33 43 31 36 -16 -5 -32 -2 -53 9 -75 15 -29 15
-31 -10 -47 -23 -15 -28 -15 -70 1 -48 18 -51 27 -29 80 15 38 6 78 -22 88
-11 5 -12 -2 -7 -29 5 -31 3 -36 -19 -44 -14 -6 -28 -20 -32 -31 -10 -30 -27
-10 -23 25 2 16 12 33 23 39 40 22 48 50 9 36 -57 -22 -68 -8 -33 42 18 25 25
28 53 22 17 -3 36 -7 41 -8 6 0 10 12 10 28 0 30 23 43 55 29 49 -20 77 -10
45 17 -8 7 -15 22 -15 34 1 20 1 20 15 2 13 -17 16 -18 39 -3z m266 -58 c0 -8
-5 -14 -12 -12 -7 1 -15 -11 -18 -28 -6 -30 -22 -34 -47 -13 -15 12 -17 54 -4
62 4 3 11 20 15 38 l7 33 29 -33 c17 -18 30 -39 30 -47z m370 55 c26 -26 25
-36 -5 -66 -56 -56 -117 1 -63 59 29 31 43 32 68 7z m-1790 0 c0 -5 -5 -10
-11 -10 -5 0 -7 5 -4 10 3 6 8 10 11 10 2 0 4 -4 4 -10z m1332 -15 c-2 -14 -8
-25 -13 -25 -12 0 -11 7 1 31 14 26 18 24 12 -6z m304 -3 c33 -26 39 -83 13
-117 l-22 -27 -18 23 c-16 21 -21 22 -38 12 -29 -18 -33 -16 -20 8 6 13 8 40
5 68 -4 27 -3 41 2 33 7 -10 11 -10 22 3 16 19 30 19 56 -3z m625 -15 c-8 -8
-11 -7 -11 4 0 20 13 34 18 19 3 -7 -1 -17 -7 -23z m305 11 c-2 -32 -26 -35
-26 -4 0 15 6 26 14 26 7 0 13 -9 12 -22z m184 12 c0 -5 -4 -10 -10 -10 -5 0
-10 5 -10 10 0 6 5 10 10 10 6 0 10 -4 10 -10z m60 -25 c0 -13 -21 -25 -46
-25 -19 0 -18 20 4 40 18 18 42 10 42 -15z m-2730 18 c0 -9 -130 -97 -135 -92
-7 7 32 47 70 72 40 26 65 33 65 20z m780 -7 c0 -16 -65 -102 -123 -161 -34
-35 -36 -37 -20 -10 32 54 128 184 136 184 4 1 7 -5 7 -13z m117 -12 c9 -25
-13 -40 -26 -16 -10 19 -6 32 11 32 5 0 11 -7 15 -16z m1726 -6 c6 -21 -14
-71 -33 -83 -14 -9 -13 48 2 80 14 31 24 32 31 3z m-2366 -10 c7 -5 27 -7 45
-4 l33 7 -42 -27 c-24 -14 -43 -30 -43 -34 0 -11 -91 -38 -162 -48 -45 -7 -58
-6 -62 5 -5 11 -10 11 -27 3 -39 -22 -30 -2 13 27 24 16 43 36 43 45 0 35 35
48 115 41 41 -3 80 -10 87 -15z m-727 -17 c0 -13 -22 -29 -53 -36 -15 -4 -27
-13 -27 -21 0 -7 -12 -17 -26 -20 -14 -4 -30 -17 -35 -32 -12 -31 -24 -22 -15
11 3 14 16 27 28 31 18 5 20 8 9 15 -10 6 -5 12 18 22 17 8 31 18 31 22 0 5 3
6 8 4 4 -3 16 -1 27 4 27 10 35 11 35 0z m1685 -21 c9 -18 13 -40 9 -56 -7
-28 -59 -65 -79 -58 -23 9 -27 66 -8 106 23 48 56 51 78 8z m1322 24 c19 -5
20 -9 11 -35 -8 -24 -15 -29 -44 -29 -39 0 -39 1 -19 40 17 32 18 33 52 24z
m-370 -35 c-7 -11 -15 -15 -21 -9 -13 13 1 41 18 34 12 -5 13 -9 3 -25z m533
6 c10 -12 10 -21 2 -40 -14 -31 -29 -31 -58 -4 -19 18 -21 24 -11 40 14 23 50
25 67 4z m-2887 -25 c-19 -33 -36 -41 -26 -12 8 24 24 42 35 42 5 0 1 -13 -9
-30z m503 -19 c-17 -18 -24 -31 -17 -35 20 -13 11 -31 -32 -63 -44 -33 -181
-88 -196 -79 -18 12 2 53 38 75 20 13 44 36 53 51 10 18 27 30 49 34 19 4 54
17 79 30 25 13 47 22 49 20 3 -3 -8 -17 -23 -33z m-347 11 c-34 -26 -77 -52
-85 -52 -14 0 21 32 55 50 46 24 61 25 30 2z m1779 -18 c2 -25 -3 -37 -24 -53
-36 -28 -65 -26 -88 6 -19 26 -19 26 0 41 28 21 77 42 94 39 9 -1 16 -15 18
-33z m115 19 c13 -4 17 -16 17 -58 0 -30 -5 -57 -12 -63 -21 -16 -58 5 -74 44
-22 52 -1 103 36 88 8 -4 23 -9 33 -11z m264 -4 c34 -29 1 -63 -63 -64 -59 -1
-67 20 -25 68 17 20 61 17 88 -4z m173 -10 c0 -10 6 -18 13 -16 12 2 12 -7 0
-64 -5 -28 -38 -53 -54 -43 -6 4 -8 20 -5 38 3 17 8 46 11 65 3 19 8 38 11 43
8 13 24 -1 24 -23z m-1550 -11 c-1 -31 -46 -86 -60 -72 -7 7 -1 23 17 52 31
47 43 53 43 20z m603 3 c15 -6 38 -15 52 -21 21 -8 25 -16 25 -50 0 -30 4 -40
16 -40 14 0 16 -8 11 -42 -7 -54 -47 -94 -78 -78 -34 19 -23 85 22 134 25 26
24 36 -4 36 -15 0 -29 -9 -37 -25 -21 -40 -47 -34 -84 20 -13 18 -14 17 -8
-10 6 -33 20 -50 42 -50 11 0 15 -12 15 -47 0 -41 5 -52 33 -77 39 -36 41 -63
6 -90 -29 -23 -74 -27 -106 -10 l-21 11 23 18 c18 14 23 26 22 59 -1 22 3 41
8 41 6 0 10 15 10 33 -1 32 -1 32 -18 11 -27 -32 -72 -44 -99 -26 -13 8 -23
21 -23 28 0 8 -4 14 -10 14 -5 0 -10 -4 -10 -8 0 -5 -7 -9 -15 -9 -18 0 -18 5
0 37 8 14 14 35 15 47 0 17 8 23 40 28 40 7 70 34 70 65 0 18 59 19 103 1z
m880 -13 c-7 -38 -26 -63 -42 -54 -17 11 -13 57 7 72 30 23 42 17 35 -18z
m574 10 c-3 -12 -2 -29 4 -39 11 -22 -9 -38 -22 -18 -10 17 -12 63 -2 72 14
14 25 6 20 -15z m-2972 -8 c-3 -5 -11 -10 -16 -10 -6 0 -7 5 -4 10 3 6 11 10
16 10 6 0 7 -4 4 -10z m2712 -2 c-7 -4 -22 -8 -33 -8 -12 0 -27 -7 -34 -15
-17 -20 -23 -19 -35 8 -11 22 -9 22 51 22 35 0 57 -3 51 -7z m-181 -13 c-5
-14 -3 -14 15 -1 30 21 49 10 49 -30 0 -39 -33 -79 -57 -70 -8 3 -19 6 -24 6
-9 0 -11 87 -2 103 8 14 25 7 19 -8z m257 1 c11 -27 -4 -56 -29 -56 -29 0 -33
36 -6 56 22 17 29 17 35 0z m-2925 -22 c-7 -15 -14 -21 -16 -15 -5 16 5 41 17
41 7 0 6 -10 -1 -26z m42 -4 c-6 -12 -14 -19 -17 -17 -2 3 1 15 7 27 6 12 14
19 17 17 2 -3 -1 -15 -7 -27z m1358 5 c14 -30 15 -65 3 -83 -6 -10 -10 -7 -15
12 -3 14 -11 26 -16 26 -11 0 -13 30 -4 54 9 23 19 20 32 -9z m882 6 c15 -28
12 -51 -5 -51 -8 0 -15 -4 -15 -10 0 -5 5 -10 10 -10 14 0 13 -13 -3 -34 -12
-16 -14 -16 -35 4 -26 24 -29 66 -6 98 19 27 40 28 54 3z m-2525 -1 c-3 -5
-11 -10 -16 -10 -6 0 -7 5 -4 10 3 6 11 10 16 10 6 0 7 -4 4 -10z m3402 -12
c-3 -8 -6 -5 -6 6 -1 11 2 17 5 13 3 -3 4 -12 1 -19z m-2833 4 c7 -12 -31 -42
-54 -42 -11 0 -20 -5 -20 -11 0 -5 -4 -8 -9 -4 -5 3 -12 1 -16 -5 -3 -5 -14
-10 -23 -10 -12 0 -7 9 18 31 50 43 92 60 104 41z m69 -9 c-4 -11 -3 -14 6 -9
10 6 10 4 0 -11 -6 -11 -21 -24 -33 -29 -11 -5 -25 -19 -31 -31 -5 -12 -22
-24 -39 -27 -34 -7 -60 10 -36 24 8 4 18 7 21 7 12 -3 49 35 49 50 0 7 11 13
25 13 16 0 25 6 25 15 0 8 4 15 10 15 5 0 6 -7 3 -17z m717 -22 c0 -49 -18
-66 -48 -45 -29 20 -28 38 6 63 38 28 42 26 42 -18z m768 14 c7 -14 22 -29 36
-34 18 -8 22 -15 19 -35 -3 -13 -14 -33 -24 -42 -27 -24 -88 -9 -108 27 -13
23 -12 28 10 60 40 57 51 60 67 24z m957 15 c8 -14 -23 -70 -39 -70 -24 0 -39
26 -27 48 15 29 54 42 66 22z m-2649 -26 c-30 -21 -42 -17 -15 5 13 11 26 17
29 14 3 -2 -4 -11 -14 -19z m1739 16 c3 -5 1 -10 -4 -10 -6 0 -11 5 -11 10 0
6 2 10 4 10 3 0 8 -4 11 -10z m587 -47 c12 4 18 0 18 -13 0 -10 7 -20 15 -24
24 -9 15 -64 -13 -82 -12 -8 -31 -13 -40 -10 -28 9 -53 61 -47 97 3 17 1 37
-6 45 -22 27 3 35 29 9 15 -16 33 -24 44 -22z m-2792 29 c0 -2 -7 -10 -15 -18
-11 -12 -19 -12 -35 -4 -30 16 -24 28 15 27 19 -1 35 -3 35 -5z m2360 -32 c0
-13 10 -20 39 -25 27 -4 42 -13 49 -30 6 -12 8 -26 5 -29 -12 -11 -51 -6 -63
9 -7 8 -19 15 -26 15 -8 0 -14 10 -14 23 0 12 -3 33 -7 46 -4 17 -3 22 5 17 7
-4 12 -16 12 -26z m343 18 c7 -21 -23 -57 -41 -51 -17 6 -52 38 -52 47 0 4 33
11 72 15 9 0 18 -5 21 -11z m-387 -23 c4 -16 0 -30 -11 -41 -11 -11 -14 -25
-10 -45 9 -39 -3 -37 -17 3 -10 28 -12 29 -24 14 -17 -25 -25 -5 -14 36 6 20
20 40 33 46 32 16 36 15 43 -13z m-1116 5 c0 -16 -32 -63 -52 -78 -10 -7 -18
-21 -18 -31 0 -18 -18 -41 -32 -41 -19 0 -6 45 22 79 48 57 50 60 50 71 0 5 7
10 15 10 8 0 15 -5 15 -10z m-1264 -13 c22 8 17 -20 -10 -56 -22 -30 -25 -31
-34 -14 -12 24 5 90 20 75 6 -6 17 -8 24 -5z m369 3 c3 -5 1 -10 -4 -10 -6 0
-11 5 -11 10 0 6 2 10 4 10 3 0 8 -4 11 -10z m2875 -22 c0 -43 -67 -88 -85
-58 -6 11 61 80 77 80 4 0 8 -10 8 -22z m-139 2 c18 -10 18 -12 4 -27 -15 -14
-18 -14 -32 0 -8 8 -12 20 -9 26 9 14 12 14 37 1z m308 1 c10 -6 12 -19 7 -45
-8 -39 -22 -46 -42 -18 -17 21 -18 44 -2 60 14 14 19 15 37 3z m-3116 -13 c5
-17 -10 -69 -24 -82 -9 -8 -10 -6 -5 7 3 10 6 34 6 53 0 33 14 47 23 22z
m1187 -7 c0 -10 -7 -24 -15 -31 -8 -7 -15 -19 -15 -28 0 -19 -29 -52 -45 -52
-13 0 -35 42 -35 68 0 18 64 61 93 62 10 0 17 -7 17 -19z m-152 -24 c3 -16
-11 -22 -64 -29 -35 -5 -31 16 6 34 40 19 54 18 58 -5z m1722 -2 c12 -15 11
-19 -14 -63 -12 -21 -14 -21 -28 -5 -11 14 -16 57 -9 81 3 9 41 -1 51 -13z
m250 -6 c0 -5 -4 -9 -9 -9 -5 0 -17 -3 -25 -6 -11 -4 -15 -2 -11 8 6 15 45 22
45 7z m-2655 -29 c-9 -35 -25 -49 -25 -22 0 12 -4 22 -10 22 -5 0 -10 7 -10
15 0 10 9 14 26 13 21 -2 24 -6 19 -28z m1158 -39 c-10 -15 -91 -47 -99 -39
-2 3 -5 22 -7 43 -2 35 1 39 33 50 32 11 37 10 59 -13 17 -19 21 -30 14 -41z
m962 42 c21 -31 13 -51 -29 -71 -32 -16 -45 -9 -26 13 10 12 10 15 -2 15 -8 0
-19 -5 -26 -12 -9 -9 -12 -4 -12 25 0 30 5 40 23 47 37 15 54 11 72 -17z
m-1931 -24 c-1 -23 -7 -44 -12 -48 -6 -3 -13 -23 -17 -44 -4 -20 -11 -37 -15
-37 -8 0 0 49 21 123 16 58 26 61 23 6z m2295 22 c8 -14 7 -20 -3 -24 -9 -4
-16 3 -19 19 -5 29 8 32 22 5z m-901 -3 c-6 -18 -28 -21 -28 -4 0 9 7 16 16
16 9 0 14 -5 12 -12z m-588 -44 c0 -49 -17 -73 -52 -74 -19 0 -25 25 -8 35 6
3 10 24 10 46 0 35 3 39 25 39 23 0 25 -4 25 -46z m1320 4 c0 -18 -85 -56 -98
-43 -4 4 9 20 28 35 19 16 40 33 45 38 12 11 25 -5 25 -30z m-480 13 c0 -26
-10 -51 -21 -51 -5 0 -9 16 -9 35 0 24 5 35 15 35 8 0 15 -9 15 -19z m-170
-10 c0 -10 7 -21 15 -25 41 -15 -6 -56 -64 -56 -45 0 -56 46 -19 80 28 26 68
27 68 1z m270 4 c0 -8 -7 -15 -15 -15 -8 0 -15 7 -15 15 0 8 7 15 15 15 8 0
15 -7 15 -15z m509 -32 c1 -15 -18 -17 -39 -3 -12 7 -11 12 5 30 18 20 20 20
26 3 4 -10 8 -24 8 -30z m-1809 11 c0 -8 -9 -14 -20 -14 -19 0 -27 19 -14 33
10 9 34 -4 34 -19z m260 -18 c-11 -49 -16 -54 -67 -62 -40 -6 -43 -5 -53 21
-14 36 -7 43 45 50 24 4 52 13 62 20 10 7 19 12 20 11 1 -1 -2 -19 -7 -40z
m360 19 c0 -14 -58 -51 -66 -42 -3 3 -2 15 1 28 4 18 14 25 35 26 20 2 30 -2
30 -12z m1455 -5 c-28 -12 -47 -12 -40 0 3 6 18 10 33 9 24 0 25 -1 7 -9z
m-123 -28 c23 -19 14 -32 -24 -32 -23 0 -29 4 -24 15 4 12 0 14 -22 9 -15 -4
-33 -12 -41 -18 -12 -9 -13 -8 -8 7 4 10 7 23 7 28 0 4 6 6 13 3 7 -2 24 -1
38 4 25 10 33 8 61 -16z m-818 -4 c5 -9 7 -20 3 -24 -8 -8 -47 24 -47 38 0 15
32 5 44 -14z m91 2 c-10 -11 -20 -18 -23 -15 -7 6 18 35 31 35 5 0 2 -9 -8
-20z m532 -16 c-6 -7 -117 -12 -117 -6 0 4 17 14 38 23 33 14 40 14 60 1 12
-8 21 -16 19 -18z m-1207 -11 c0 -7 -7 -13 -16 -13 -11 0 -14 5 -10 16 3 9 6
21 6 27 0 16 20 -14 20 -30z m-50 7 c0 -13 -7 -20 -20 -20 -19 0 -27 20 -13
33 13 14 33 6 33 -13z m1690 -20 c0 -5 -4 -10 -10 -10 -5 0 -10 5 -10 10 0 6
5 10 10 10 6 0 10 -4 10 -10z m-510 -10 c0 -5 -4 -10 -10 -10 -5 0 -10 5 -10
10 0 6 5 10 10 10 6 0 10 -4 10 -10z"/>
<path d="M3448 1673 c7 -3 16 -2 19 1 4 3 -2 6 -13 5 -11 0 -14 -3 -6 -6z"/>
<path d="M398 1613 c7 -3 16 -2 19 1 4 3 -2 6 -13 5 -11 0 -14 -3 -6 -6z"/>
<path d="M150 1595 c-14 -16 -10 -18 14 -9 9 3 16 10 16 15 0 14 -16 11 -30
-6z"/>
<path d="M2510 1540 c-14 -10 -23 -21 -20 -23 3 -3 16 3 29 14 31 25 23 33 -9
9z"/>
<path d="M3610 1580 c0 -5 11 -10 24 -10 14 0 28 5 31 10 4 6 -7 10 -24 10
-17 0 -31 -4 -31 -10z"/>
<path d="M410 1279 c0 -5 5 -7 10 -4 6 3 10 8 10 11 0 2 -4 4 -10 4 -5 0 -10
-5 -10 -11z"/>
<path d="M3128 1583 c7 -3 16 -2 19 1 4 3 -2 6 -13 5 -11 0 -14 -3 -6 -6z"/>
<path d="M1569 1393 c-13 -17 -13 -17 6 -3 11 8 22 16 24 17 2 2 0 3 -6 3 -6
0 -17 -8 -24 -17z"/>
<path d="M1711 1270 c-19 -16 -32 -33 -28 -36 4 -4 8 -5 10 -3 1 2 15 19 31
37 37 40 32 40 -13 2z"/>
<path d="M3388 1266 c-10 -7 -18 -16 -18 -20 0 -13 28 -5 45 14 21 24 1 28
-27 6z"/>
<path d="M1961 420 c-16 -9 -6 -30 15 -30 15 0 20 25 6 34 -4 2 -14 1 -21 -4z"/>
<path d="M2908 1823 c7 -3 16 -2 19 1 4 3 -2 6 -13 5 -11 0 -14 -3 -6 -6z"/>
<path d="M124 1804 c3 -9 6 -21 6 -27 0 -7 5 -4 11 6 11 18 5 37 -13 37 -5 0
-7 -7 -4 -16z"/>
<path d="M3107 1809 c7 -7 15 -10 18 -7 3 3 -2 9 -12 12 -14 6 -15 5 -6 -5z"/>
<path d="M2470 1799 c0 -5 5 -7 10 -4 6 3 10 8 10 11 0 2 -4 4 -10 4 -5 0 -10
-5 -10 -11z"/>
<path d="M3037 1794 c-4 -4 3 -14 14 -22 17 -11 23 -12 29 -2 5 8 16 10 31 5
16 -5 21 -4 14 3 -13 12 -79 24 -88 16z"/>
<path d="M3100 1750 c0 -5 4 -10 9 -10 6 0 13 5 16 10 3 6 -1 10 -9 10 -9 0
-16 -4 -16 -10z"/>
<path d="M3822 660 c0 -14 2 -19 5 -12 2 6 2 18 0 25 -3 6 -5 1 -5 -13z"/>
<path d="M63 545 c4 -22 7 -50 7 -62 0 -13 5 -23 10 -23 17 0 12 90 -7 108
-15 16 -16 14 -10 -23z"/>
<path d="M60 384 c0 -21 4 -33 10 -29 6 3 10 19 10 36 0 16 -4 29 -10 29 -5 0
-10 -16 -10 -36z"/>
<path d="M131 304 c0 -11 3 -14 6 -6 3 7 2 16 -1 19 -3 4 -6 -2 -5 -13z"/>
<path d="M2853 188 c-5 -9 -2 -9 92 -10 l70 0 -79 -13 c-74 -13 -94 -20 -85
-29 10 -10 44 -10 42 0 -2 12 3 13 119 15 91 1 113 10 82 34 -14 10 -48 13
-127 12 -60 -1 -111 -5 -114 -9z"/>
<path d="M1245 141 c-10 -17 12 -21 25 -6 10 12 10 15 -3 15 -9 0 -18 -4 -22
-9z"/>
<path d="M2468 143 c6 -2 18 -2 25 0 6 3 1 5 -13 5 -14 0 -19 -2 -12 -5z"/>
<path d="M1300 120 c0 -6 7 -10 15 -10 8 0 15 2 15 4 0 2 -7 6 -15 10 -8 3
-15 1 -15 -4z"/>
<path d="M540 105 l-35 -13 49 -1 c42 -1 47 1 36 14 -7 8 -13 15 -14 14 0 0
-17 -7 -36 -14z"/>
<path d="M640 111 c-31 -6 -33 -8 -13 -14 13 -5 31 -3 43 3 20 11 27 21 13 19
-5 -1 -24 -5 -43 -8z"/>
<path d="M1914 109 c-3 -5 1 -11 8 -14 30 -10 51 -9 55 3 3 6 -1 12 -9 13 -7
0 -21 2 -30 4 -10 2 -20 -1 -24 -6z"/>
</g>
</svg>
