<?xml version="1.0" standalone="no"?>
<!DOCTYPE svg PUBLIC "-//W3C//DTD SVG 20010904//EN"
 "http://www.w3.org/TR/2001/REC-SVG-20010904/DTD/svg10.dtd">
<svg version="1.0" xmlns="http://www.w3.org/2000/svg"
 width="592.000000pt" height="203.000000pt" viewBox="0 0 592.000000 203.000000"
 preserveAspectRatio="xMidYMid meet">
<metadata>
Created by potrace 1.16, written by Peter Selinger 2001-2019
</metadata>
<g transform="translate(0.000000,203.000000) scale(0.100000,-0.100000)"
fill="#000000" stroke="none">
<path d="M5827 2024 c-12 -13 -568 -53 -729 -54 -64 0 -98 -4 -100 -12 -4 -11
-20 -13 -183 -22 -44 -3 -161 -10 -260 -17 -99 -6 -263 -13 -365 -15 -102 -2
-201 -8 -220 -15 -23 -7 -114 -10 -263 -7 -165 2 -227 0 -227 -8 0 -18 -195
-27 -376 -19 -123 6 -158 5 -164 -5 -7 -11 -126 -14 -572 -17 -309 -1 -621 -7
-693 -11 -128 -8 -158 -6 -135 8 18 11 -424 12 -530 0 -68 -7 -112 -6 -153 2
-39 7 -61 8 -65 1 -4 -6 -50 -16 -102 -23 -99 -13 -231 -9 -370 11 -142 20
-276 15 -290 -11 -12 -22 -11 -840 0 -840 5 0 12 5 15 10 4 6 11 8 16 5 15
-10 10 -23 -8 -27 -16 -3 -18 -31 -18 -369 -1 -200 -4 -369 -7 -374 -11 -21
12 -70 39 -83 52 -25 689 -38 1698 -34 303 1 629 0 725 -3 96 -3 270 -8 385
-12 318 -10 984 -6 1109 7 103 11 224 9 491 -6 55 -4 341 -8 635 -11 727 -6
669 -3 684 -32 l13 -24 7 29 c3 16 9 77 12 137 4 59 10 107 13 107 3 0 3 120
-1 267 -4 148 -7 275 -6 283 0 8 1 130 2 270 1 140 5 261 10 268 14 23 32 305
26 405 -1 12 1 60 4 107 7 104 1 140 -23 140 -10 0 -20 -3 -24 -6z m-20 -86
c-3 -8 -6 -5 -6 6 -1 11 2 17 5 13 3 -3 4 -12 1 -19z m-277 -28 c0 -6 -15 -10
-32 -9 -18 1 -43 -1 -55 -5 -22 -7 -31 3 -16 17 11 11 103 8 103 -3z m-420
-12 c0 -12 -16 -17 -38 -11 -32 8 -27 20 8 19 16 -1 30 -4 30 -8z m40 2 c0 -5
-4 -10 -10 -10 -5 0 -10 5 -10 10 0 6 5 10 10 10 6 0 10 -4 10 -10z m240 -6
c0 -2 -11 -4 -25 -4 -14 0 -25 4 -25 9 0 4 11 6 25 3 14 -2 25 -6 25 -8z m254
-16 c4 -17 2 -28 -4 -28 -5 0 -10 14 -10 32 0 36 4 35 14 -4z m-414 2 c0 -5
-5 -10 -11 -10 -5 0 -7 5 -4 10 3 6 8 10 11 10 2 0 4 -4 4 -10z m-360 -12 c0
-9 3 -9 12 0 7 7 22 12 35 12 18 0 25 -7 29 -30 4 -16 10 -28 14 -25 4 2 6
-14 4 -37 -3 -46 9 -61 40 -52 17 6 18 2 12 -27 -3 -18 -9 -35 -12 -38 -8 -8
-35 30 -28 40 3 5 0 9 -5 9 -6 0 -11 -7 -11 -15 0 -18 -20 -20 -21 -2 0 6 -6
-1 -13 -16 l-12 -28 -12 26 c-7 14 -12 32 -12 40 0 17 17 20 22 4 6 -19 40 2
35 22 -3 11 -1 19 5 19 5 0 6 5 3 10 -3 6 -11 10 -16 10 -6 0 -7 -5 -4 -10 6
-9 -43 -35 -51 -27 -2 2 -6 18 -8 36 -5 47 -52 77 -64 41 -3 -9 1 -11 14 -7
18 7 18 6 2 -7 -23 -17 -23 -29 1 -21 13 4 20 0 23 -13 7 -24 -12 -39 -45 -35
-15 2 -27 0 -27 -6 0 -13 28 -22 35 -11 4 6 13 7 23 1 9 -4 23 -6 30 -4 6 3
12 -1 13 -9 0 -7 2 -21 4 -30 2 -10 -2 -18 -8 -18 -8 0 -7 -4 2 -9 8 -5 10
-14 6 -21 -4 -7 -1 -16 6 -21 9 -6 4 -7 -15 -3 -21 5 -27 4 -22 -5 4 -6 21
-11 37 -11 17 0 28 4 24 9 -3 6 4 15 15 21 20 11 21 10 11 -9 -9 -16 -8 -22 8
-31 30 -16 39 -11 11 6 -23 14 -23 14 -2 9 19 -5 22 -2 22 19 0 20 4 25 20 23
29 -5 33 -12 26 -53 -8 -37 -18 -40 -67 -20 -12 5 -18 1 -22 -14 -3 -12 -10
-19 -16 -15 -6 3 -11 0 -11 -8 0 -10 -7 -13 -20 -10 -14 4 -20 0 -20 -12 0
-14 5 -16 27 -10 15 3 32 7 38 8 5 1 14 7 18 12 6 6 10 5 14 -3 4 -10 11 -8
29 9 l23 22 6 -29 c11 -49 13 -50 20 -16 7 31 25 45 25 20 0 -9 2 -10 8 -2 4
6 17 14 28 18 18 6 22 2 27 -30 8 -49 3 -55 -34 -42 -18 6 -34 7 -38 2 -3 -5
-12 -9 -18 -10 -31 -2 -33 -5 -17 -29 20 -31 11 -57 -18 -55 -13 1 -25 1 -28
0 -3 -1 -18 -3 -35 -5 -98 -8 -169 -16 -235 -28 -101 -18 -229 -9 -244 16 -6
11 -17 26 -24 35 -11 16 -12 16 -6 0 8 -22 -12 -24 -20 -2 -8 20 2 37 18 31 7
-3 18 3 24 13 6 10 22 21 34 23 13 2 -2 2 -32 0 -38 -4 -60 -11 -72 -26 -22
-25 -22 -31 -1 -65 31 -50 97 -101 90 -70 -2 10 114 17 307 19 21 0 50 5 65
11 50 19 71 20 71 1 0 -11 3 -14 8 -7 12 18 36 21 51 7 11 -12 15 -11 25 3 11
14 14 14 27 2 15 -15 39 -13 52 6 5 8 10 6 17 -4 7 -11 10 -11 10 -2 0 7 5 10
10 7 6 -3 10 -1 10 5 0 6 5 8 13 3 19 -12 58 -15 70 -5 7 5 31 10 55 9 41 0
50 -9 34 -33 -9 -15 -142 -24 -143 -9 0 5 -4 1 -9 -10 -4 -11 -6 -30 -3 -43 3
-12 1 -22 -3 -21 -25 4 -44 -3 -44 -16 0 -8 5 -15 10 -15 6 0 10 5 10 11 0 6
7 3 16 -5 11 -12 16 -38 17 -96 2 -68 -1 -81 -18 -94 -20 -15 -20 -15 1 -10
14 4 23 0 28 -11 7 -20 -19 -49 -36 -40 -7 4 -5 0 4 -7 25 -21 35 -68 14 -68
-9 0 -16 -7 -16 -15 0 -9 -6 -12 -15 -9 -8 4 -15 2 -15 -4 0 -5 10 -8 23 -8
12 1 28 -2 35 -8 10 -7 17 -5 24 7 5 10 12 15 16 13 4 -2 26 -1 49 3 47 9 56
1 42 -38 -7 -17 -13 -21 -22 -14 -8 7 -22 6 -42 -3 -26 -11 -28 -13 -12 -20
15 -5 16 -9 5 -15 -22 -15 -28 -10 -28 21 0 32 -19 40 -38 17 -14 -16 -18 -64
-8 -94 5 -15 2 -24 -11 -32 -15 -9 -15 -10 -2 -11 13 0 15 -13 12 -82 -2 -45
-5 -83 -7 -85 -4 -4 -102 -13 -196 -17 -35 -2 -66 -8 -68 -14 -1 -5 -11 -8
-21 -5 -20 5 -190 -13 -216 -24 -13 -5 -14 -7 -3 -14 11 -7 10 -11 -2 -20 -11
-7 -3 -9 32 -7 37 2 44 0 36 -10 -6 -7 -18 -10 -27 -7 -10 3 -26 -1 -36 -9
-18 -13 -18 -14 3 -20 21 -7 31 -25 15 -27 -5 0 -18 -2 -30 -3 -29 -3 -37 -11
-30 -31 8 -19 27 -20 27 0 0 10 10 15 31 15 19 0 28 4 23 11 -3 6 0 15 7 20
12 8 12 10 0 18 -12 8 -10 11 11 16 14 4 38 5 54 3 36 -4 44 -33 13 -43 -21
-7 -22 -8 -3 -18 24 -14 72 -18 80 -6 6 11 44 12 44 2 0 -16 56 -8 75 10 11
10 21 13 23 7 2 -5 11 -10 19 -10 12 0 13 -3 4 -13 -6 -8 -8 -17 -4 -21 4 -4
-3 -9 -15 -13 -12 -3 -22 -9 -22 -14 0 -5 -7 -9 -15 -9 -18 0 -20 20 -2 20 8
1 7 3 -3 9 -8 4 -28 7 -45 7 -23 -1 -29 -6 -27 -19 2 -13 -4 -17 -25 -16 -15
0 -22 3 -15 6 6 2 12 9 12 14 0 6 -34 9 -81 8 -81 -2 -81 -2 -58 -20 l24 -17
-27 -7 c-15 -4 -32 -4 -39 1 -8 5 -9 3 -4 -6 5 -9 1 -11 -16 -6 -13 3 -18 3
-11 0 6 -3 10 -9 7 -14 -5 -8 94 -3 167 9 51 9 61 4 70 -35 7 -27 -8 -55 -20
-37 -6 10 -41 14 -136 14 -18 0 -18 0 0 14 28 20 14 25 -44 18 -50 -6 -74 -23
-31 -23 11 0 17 -4 14 -10 -3 -5 -19 -10 -34 -10 -15 0 -43 -5 -61 -11 -26 -9
-34 -9 -41 2 -7 12 -9 11 -9 -1 0 -10 -3 -11 -8 -4 -7 11 -53 14 -207 12 -33
0 -80 0 -105 0 -25 0 -213 1 -417 2 -205 1 -373 5 -373 10 0 5 10 16 22 24 27
19 20 20 -19 4 -15 -6 -35 -10 -43 -9 -12 1 -11 -2 3 -12 16 -13 14 -15 -20
-20 -21 -2 -83 -5 -138 -6 -55 -1 -108 -4 -118 -7 -10 -3 -23 -1 -30 4 -7 5
-101 10 -212 10 -110 1 -258 6 -330 12 -146 12 -281 23 -307 24 -10 0 -18 4
-18 8 0 4 -12 8 -27 8 -22 0 -25 -2 -13 -10 11 -8 0 -10 -40 -10 -69 1 -156
-5 -195 -13 -16 -4 -138 -9 -270 -13 -319 -8 -320 -8 -473 -2 -73 3 -135 2
-138 -3 -3 -5 -13 -9 -22 -8 -14 0 -13 2 3 9 32 13 4 18 -144 29 -91 7 -141 7
-153 0 -11 -6 -26 -8 -33 -5 -7 2 -123 7 -257 11 -288 7 -292 8 -282 38 9 27
6 166 -5 238 -11 68 3 397 18 412 6 6 7 15 2 21 -11 14 -23 126 -21 191 3 73
4 231 2 300 -3 126 3 245 13 241 46 -19 45 -19 32 8 -7 14 -18 25 -26 23 -9
-1 -14 12 -16 44 l-3 46 46 -3 c26 -2 68 -7 94 -12 64 -13 557 -21 803 -13 55
1 147 1 205 -1 58 -2 159 0 225 4 66 4 199 8 295 8 96 0 260 7 364 15 103 8
192 12 197 10 4 -3 93 -5 196 -4 103 0 266 0 362 -1 123 -1 171 1 167 9 -9 13
-30 12 264 15 135 2 252 5 260 8 20 8 236 18 490 23 191 4 288 11 450 34 36 5
112 12 170 16 58 3 107 8 109 11 9 9 31 3 31 -8z m110 -19 c0 -5 -4 -9 -10 -9
-5 0 -10 7 -10 16 0 8 5 12 10 9 6 -3 10 -10 10 -16z m425 11 c-3 -5 -13 -10
-21 -10 -8 0 -14 5 -14 10 0 6 9 10 21 10 11 0 17 -4 14 -10z m-155 -129 c0
-30 -2 -52 -5 -49 -6 6 -25 92 -30 143 l-5 40 20 -40 c12 -24 20 -61 20 -94z
m-74 101 c0 -4 4 -15 9 -26 5 -12 3 -21 -6 -27 -9 -6 -10 -12 -4 -16 14 -11
18 -50 6 -58 -10 -6 -14 6 -25 71 -5 34 3 79 13 69 3 -4 6 -10 7 -13z m-37
-40 c1 -7 -3 -10 -9 -7 -5 3 -10 18 -9 33 0 24 1 25 9 7 5 -11 9 -26 9 -33z
m271 27 c-9 -16 -14 -18 -26 -8 -11 9 -14 9 -14 -1 0 -8 -2 -11 -5 -8 -12 12
9 38 31 38 22 0 23 -2 14 -21z m370 -19 c0 -22 -4 -40 -10 -40 -11 0 -14 63
-3 73 11 12 13 8 13 -33z m-760 -10 c-6 -11 -15 -20 -20 -20 -16 0 -11 18 8
29 24 14 24 14 12 -9z m-1957 -7 c-7 -2 -19 -2 -25 0 -7 3 -2 5 12 5 14 0 19
-2 13 -5z m2029 -8 c7 -9 26 -29 41 -45 27 -28 25 -44 -1 -18 -9 9 -12 6 -12
-15 0 -20 -5 -27 -20 -27 -17 0 -20 7 -20 39 0 22 5 42 13 44 7 3 5 6 -5 6
-10 1 -18 7 -18 14 0 8 -4 7 -10 -3 -5 -8 -10 -10 -10 -4 0 26 23 31 42 9z
m292 -10 c4 -14 3 -31 -1 -38 -5 -8 -9 -3 -13 13 -3 14 -11 26 -18 26 -25 3
-26 6 -7 14 30 13 32 12 39 -15z m71 15 c3 -5 -1 -10 -9 -10 -9 0 -16 5 -16
10 0 6 4 10 9 10 6 0 13 -4 16 -10z m159 1 c9 -14 -24 -22 -42 -10 -16 10 -15
10 1 5 9 -3 17 -1 17 4 0 12 17 13 24 1z m-3899 -11 c3 -5 -3 -10 -15 -10 -12
0 -18 5 -15 10 3 6 10 10 15 10 5 0 12 -4 15 -10z m-46 -4 c-2 -2 -42 -6 -89
-9 -49 -3 -70 -2 -50 3 36 8 147 13 139 6z m3652 -13 c0 -10 3 -13 5 -6 7 16
34 5 34 -14 0 -10 -6 -13 -17 -9 -9 4 -20 2 -23 -5 -4 -6 -9 3 -12 20 -2 17
-1 31 4 31 4 0 8 -8 9 -17z m-256 -20 c-2 -10 -4 -20 -4 -23 -2 -7 -21 23 -21
33 0 4 6 7 14 7 8 0 13 -8 11 -17z m535 -23 c0 -11 -4 -20 -10 -20 -5 0 -14 9
-20 20 -9 17 -8 20 10 20 13 0 20 -7 20 -20z m-93 -26 c-9 -9 -28 6 -21 18 4
6 10 6 17 -1 6 -6 8 -13 4 -17z m130 -26 c-3 -8 -6 -5 -6 6 -1 11 2 17 5 13 3
-3 4 -12 1 -19z m-516 -7 c-9 -6 -10 -11 -2 -15 13 -8 15 -76 2 -76 -28 0 -70
14 -65 21 3 5 10 7 15 4 5 -4 9 -1 9 5 0 7 -8 9 -20 5 -11 -4 -20 -2 -20 4 0
6 3 10 8 10 21 -4 42 2 38 10 -11 17 6 41 28 41 15 0 17 -3 7 -9z m339 -1 c0
-5 -5 -10 -11 -10 -5 0 -7 5 -4 10 3 6 8 10 11 10 2 0 4 -4 4 -10z m-276 -42
c-5 -17 -3 -19 15 -13 14 4 21 2 21 -7 0 -12 -14 -14 -62 -9 -12 1 -9 36 4 49
16 16 30 4 22 -20z m109 15 c-7 -2 -21 -2 -30 0 -10 3 -4 5 12 5 17 0 24 -2
18 -5z m214 -15 c-3 -8 -6 -5 -6 6 -1 11 2 17 5 13 3 -3 4 -12 1 -19z m-237
-19 c0 -5 -4 -9 -8 -9 -5 0 -9 7 -9 15 0 8 4 12 9 9 4 -3 8 -9 8 -15z m362
-11 c-9 -9 -15 -9 -24 0 -9 9 -7 12 12 12 19 0 21 -3 12 -12z m-242 -8 c12 -8
9 -10 -12 -10 -16 0 -28 5 -28 10 0 13 20 13 40 0z m-176 -47 c-3 -28 -19 -43
-46 -43 -12 0 -16 8 -16 33 1 37 10 46 42 40 18 -4 22 -11 20 -30z m71 17 c-5
-16 -2 -20 14 -20 12 0 21 -4 21 -9 0 -14 -35 -23 -62 -16 -19 5 -25 13 -25
36 0 25 4 29 29 29 25 0 28 -3 23 -20z m185 -12 c0 -16 -3 -19 -11 -11 -6 6
-8 16 -5 22 11 17 16 13 16 -11z m67 0 c-3 -8 -6 -5 -6 6 -1 11 2 17 5 13 3
-3 4 -12 1 -19z m-142 -8 c3 -5 4 -10 1 -10 -2 0 -11 -3 -19 -6 -8 -3 -17 2
-20 10 -7 18 27 23 38 6z m115 -66 c0 -13 -4 -24 -10 -24 -5 0 -10 14 -10 31
0 17 4 28 10 24 6 -3 10 -17 10 -31z m130 5 c0 -10 -4 -19 -10 -19 -5 0 -10 4
-10 9 0 5 -3 17 -6 25 -5 12 -2 15 10 10 9 -3 16 -15 16 -25z m-165 1 c0 -7
-6 -15 -12 -17 -8 -3 -13 4 -13 17 0 13 5 20 13 18 6 -3 12 -11 12 -18z m98
-10 c3 -11 1 -23 -4 -26 -5 -3 -9 6 -9 20 0 31 6 34 13 6z m-477 -30 c15 6 24
6 24 0 0 -10 -41 -30 -61 -30 -5 0 -9 10 -9 22 0 16 3 19 11 11 8 -8 20 -8 35
-3z m205 -17 c2 -5 -7 -10 -21 -11 -14 -2 -31 -9 -38 -15 -10 -8 -16 -7 -22 3
-5 8 -14 10 -26 5 -11 -5 -25 -7 -31 -6 -7 1 -22 -3 -33 -9 -16 -8 -20 -8 -20
4 0 14 25 21 115 31 27 4 52 8 54 11 5 5 16 -2 22 -13z m49 13 c0 -3 -4 -8
-10 -11 -5 -3 -10 -1 -10 4 0 6 5 11 10 11 6 0 10 -2 10 -4z m228 -44 c2 -7
-3 -12 -12 -12 -9 0 -16 7 -16 16 0 17 22 14 28 -4z m-184 -44 c-8 -13 -24
-10 -41 8 -13 12 -14 17 -3 24 14 9 52 -19 44 -32z m89 17 c-3 -9 -8 -14 -10
-11 -3 3 -2 9 2 15 9 16 15 13 8 -4z m87 -36 c0 -5 -7 -9 -15 -9 -15 0 -20 12
-9 23 8 8 24 -1 24 -14z m-273 -33 c-2 -6 -14 -12 -26 -14 -15 -2 -21 -9 -17
-18 3 -8 -1 -14 -9 -14 -8 0 -14 6 -12 13 1 8 -10 12 -35 11 -21 -1 -38 2 -38
7 0 8 30 14 53 10 4 0 7 3 7 7 0 4 18 8 40 9 27 1 40 -3 37 -11z m263 -56 c0
-5 -5 -10 -11 -10 -5 0 -7 5 -4 10 3 6 8 10 11 10 2 0 4 -4 4 -10z m-125 -9
c8 -13 -6 -20 -55 -26 -31 -4 -41 -2 -37 7 2 7 18 13 35 13 18 0 32 3 32 7 0
11 18 10 25 -1z m65 -6 c-7 -8 -14 -15 -15 -15 -2 0 -5 7 -9 15 -4 10 1 15 16
15 17 0 18 -2 8 -15z m-285 -46 c2 -24 4 -50 4 -56 1 -7 10 -13 21 -13 14 0
20 7 20 21 0 13 -5 19 -12 16 -9 -3 -13 5 -13 23 0 22 5 28 22 28 13 0 20 -4
17 -9 -3 -5 0 -9 5 -9 15 0 14 -37 -1 -44 -10 -5 -10 -7 0 -12 17 -8 5 -24
-19 -24 -10 0 -19 -4 -19 -10 0 -5 9 -10 21 -10 11 0 17 -5 14 -10 -4 -6 -11
-8 -16 -5 -5 4 -17 -1 -26 -10 -15 -15 -13 -16 20 -10 29 6 38 4 43 -9 8 -22
8 -23 -53 -31 -49 -6 -53 -5 -53 14 0 12 5 21 11 21 13 0 1 42 -15 53 -8 5 -6
10 4 17 13 9 13 10 0 10 -13 0 -13 1 0 10 9 6 11 13 5 18 -14 10 -18 42 -5 42
6 0 8 5 5 10 -6 10 4 35 11 27 3 -2 7 -24 9 -48z m354 24 c0 -5 -4 -17 -9 -28
-8 -18 -9 -17 -9 8 -1 15 4 27 9 27 6 0 10 -3 9 -7z m-64 -23 c3 -5 4 -14 1
-19 -9 -13 -46 -1 -46 15 0 16 36 19 45 4z m-132 -36 c-3 -8 -9 -14 -13 -14
-14 0 -21 17 -14 34 5 12 10 14 20 6 7 -7 10 -18 7 -26z m67 22 c0 -2 -7 -7
-16 -10 -8 -3 -12 -2 -9 4 6 10 25 14 25 6z m327 -48 c-3 -7 -5 -2 -5 12 0 14
2 19 5 13 2 -7 2 -19 0 -25z m-328 -1 c0 -9 -2 -8 -6 1 -2 6 -10 9 -15 6 -7
-4 -8 -2 -4 5 9 13 26 5 25 -12z m131 13 c0 -5 -4 -10 -10 -10 -5 0 -10 5 -10
10 0 6 5 10 10 10 6 0 10 -4 10 -10z m-63 -16 c-3 -3 -12 -4 -19 -1 -8 3 -5 6
6 6 11 1 17 -2 13 -5z m-137 -24 c-12 -8 -12 -10 -1 -10 8 0 12 -3 8 -6 -3 -4
-13 -4 -22 0 -20 7 -10 26 13 26 15 0 15 -2 2 -10z m188 -39 c-15 -5 -19 4
-11 24 6 18 7 18 13 -1 4 -10 3 -21 -2 -23z m202 -7 c0 -8 -4 -12 -10 -9 -5 3
-10 13 -10 21 0 8 5 12 10 9 6 -3 10 -13 10 -21z m-382 -2 c2 -7 -5 -12 -17
-12 -14 0 -19 5 -14 15 6 17 25 15 31 -3z m62 -6 c0 -2 -7 -6 -15 -10 -8 -3
-15 -1 -15 4 0 6 7 10 15 10 8 0 15 -2 15 -4z m-63 -42 c-3 -3 -12 -4 -19 -1
-8 3 -5 6 6 6 11 1 17 -2 13 -5z m-164 -34 c-5 -17 -1 -20 18 -16 13 3 24 5
24 6 0 1 8 3 18 5 13 2 17 -1 13 -11 -3 -8 0 -14 7 -15 7 -1 -15 -7 -48 -14
-66 -15 -74 -10 -67 35 3 21 10 30 22 30 13 0 17 -5 13 -20z m457 -26 c0 -27
-4 -43 -10 -39 -5 3 -8 20 -6 38 3 18 5 35 5 40 1 4 3 7 6 7 3 0 5 -21 5 -46z
m-286 11 c4 -10 -1 -15 -14 -15 -11 0 -20 7 -20 15 0 8 6 15 14 15 8 0 16 -7
20 -15z m-5310 -11 c8 -22 7 -34 -3 -34 -5 0 -11 11 -13 25 -6 28 6 34 16 9z
m5686 -16 c0 -16 -3 -19 -11 -11 -6 6 -8 16 -5 22 11 17 16 13 16 -11z m-213
-25 c-3 -10 -5 -4 -5 12 0 17 2 24 5 18 2 -7 2 -21 0 -30z m-188 -9 c-14 -18
-24 -11 -15 11 3 9 11 13 16 10 8 -5 7 -11 -1 -21z m148 13 c-2 -7 -13 -13
-25 -15 -15 -2 -20 1 -17 10 7 17 48 22 42 5z m-87 -12 c0 -8 -2 -15 -4 -15
-2 0 -6 7 -10 15 -3 8 -1 15 4 15 6 0 10 -7 10 -15z m250 -23 c0 -24 -8 -32
-26 -25 -17 6 -18 30 -1 36 22 9 27 7 27 -11z m-290 -8 c0 -3 -7 -12 -15 -20
-13 -14 -15 -13 -15 5 0 12 6 21 15 21 8 0 15 -3 15 -6z m-10 -64 c0 -5 -4
-10 -10 -10 -5 0 -10 5 -10 10 0 6 5 10 10 10 6 0 10 -4 10 -10z m-125 -10 c3
-5 -3 -10 -14 -10 -12 0 -21 -4 -21 -10 0 -5 16 -8 36 -6 19 1 37 -1 40 -5 6
-10 -4 -15 -48 -23 -35 -6 -38 -5 -38 17 0 35 31 60 45 37z m45 0 c0 -5 -7
-10 -16 -10 -8 0 -12 5 -9 10 3 6 10 10 16 10 5 0 9 -4 9 -10z m380 -21 c0 -5
-4 -9 -10 -9 -5 0 -10 7 -10 16 0 8 5 12 10 9 6 -3 10 -10 10 -16z m-300 1 c0
-5 -2 -10 -4 -10 -3 0 -8 5 -11 10 -3 6 -1 10 4 10 6 0 11 -4 11 -10z m47 -12
c-3 -8 -6 -5 -6 6 -1 11 2 17 5 13 3 -3 4 -12 1 -19z m53 -19 c0 -24 -4 -38
-10 -34 -5 3 -10 22 -10 41 0 19 5 34 10 34 6 0 10 -18 10 -41z m-285 11 c3
-5 -1 -10 -9 -10 -9 0 -16 5 -16 10 0 6 4 10 9 10 6 0 13 -4 16 -10z m371 -17
c-10 -10 -19 5 -10 18 6 11 8 11 12 0 2 -7 1 -15 -2 -18z m184 -3 c0 -5 -2
-10 -4 -10 -3 0 -8 5 -11 10 -3 6 -1 10 4 10 6 0 11 -4 11 -10z m77 -82 c-2
-18 -4 -4 -4 32 0 36 2 50 4 33 2 -18 2 -48 0 -65z m-537 52 c0 -11 -6 -20
-12 -21 -7 0 -23 -2 -35 -3 -16 -2 -23 3 -23 14 0 23 9 30 42 30 21 0 28 -5
28 -20z m-83 -42 c-3 -8 -6 -5 -6 6 -1 11 2 17 5 13 3 -3 4 -12 1 -19z m73
-28 c0 -5 -4 -10 -10 -10 -5 0 -10 5 -10 10 0 6 5 10 10 10 6 0 10 -4 10 -10z
m168 -22 c-6 -18 -28 -21 -28 -4 0 9 7 16 16 16 9 0 14 -5 12 -12z m42 2 c0
-5 -4 -10 -10 -10 -5 0 -10 5 -10 10 0 6 5 10 10 10 6 0 10 -4 10 -10z m-130
-18 c0 -10 -22 -32 -32 -32 -4 0 -8 9 -8 20 0 13 7 20 20 20 11 0 20 -4 20 -8z
m-140 -12 c13 -8 13 -11 1 -22 -11 -10 -14 -10 -18 0 -3 6 -9 10 -14 7 -5 -4
-6 1 -3 9 7 18 13 19 34 6z m60 -3 c0 -8 -3 -16 -6 -20 -8 -8 -34 3 -34 15 0
5 5 6 10 3 6 -3 10 -1 10 4 0 6 5 11 10 11 6 0 10 -6 10 -13z m550 -104 c0
-58 -2 -104 -5 -101 -7 6 -14 191 -8 201 11 18 13 1 13 -100z m-194 71 c-4 -9
-9 -15 -11 -12 -3 3 -3 13 1 22 4 9 9 15 11 12 3 -3 3 -13 -1 -22z m-5559 -36
c-3 -8 -6 -5 -6 6 -1 11 2 17 5 13 3 -3 4 -12 1 -19z m4943 -26 c0 -9 -3 -34
-6 -54 -5 -31 -11 -38 -29 -38 -13 0 -25 -5 -27 -11 -2 -7 -12 -7 -29 -1 -17
7 -37 6 -64 -4 -47 -16 -55 -17 -35 -4 12 8 10 10 -10 10 -18 0 -21 3 -11 9 9
6 10 11 2 15 -24 15 2 25 49 20 43 -4 50 -2 48 13 -4 46 2 55 27 51 14 -3 25
-2 25 2 0 4 14 7 30 8 22 0 30 -4 30 -16z m45 9 c3 -5 1 -12 -5 -16 -5 -3 -10
1 -10 9 0 18 6 21 15 7z m575 -11 c0 -5 -7 -10 -16 -10 -8 0 -12 5 -9 10 3 6
10 10 16 10 5 0 9 -4 9 -10z m-810 -10 c0 -5 -4 -10 -10 -10 -5 0 -10 5 -10
10 0 6 5 10 10 10 6 0 10 -4 10 -10z m696 -6 c-3 -9 -6 -22 -6 -30 0 -8 -7
-14 -15 -14 -18 0 -18 1 -5 34 5 14 15 26 21 26 6 0 8 -7 5 -16z m-386 -3 c0
-9 -47 -21 -83 -21 -30 0 -8 18 28 23 53 7 55 7 55 -2z m625 -21 c-6 -20 -7
-21 -20 -3 -12 15 -11 19 3 24 22 8 25 5 17 -21z m-415 -15 c0 -24 -4 -33 -13
-29 -14 5 -16 31 -3 52 12 20 16 14 16 -23z m-130 11 c0 -11 -19 -15 -25 -6
-3 5 1 10 9 10 9 0 16 -2 16 -4z m-125 -26 c-3 -5 -17 -10 -31 -10 -13 0 -24
5 -24 10 0 6 14 10 31 10 17 0 28 -4 24 -10z m595 -15 c0 -8 -4 -15 -10 -15
-5 0 -10 7 -10 15 0 8 5 15 10 15 6 0 10 -7 10 -15z m80 -2 c0 -7 -4 -13 -9
-13 -5 0 -11 6 -14 13 -3 8 1 14 9 14 8 0 14 -6 14 -14z m-640 -33 c0 -5 -10
-10 -22 -11 -13 0 -35 -2 -49 -3 -18 -1 -25 3 -22 11 6 15 93 18 93 3z m637
-32 c-3 -7 -5 -2 -5 12 0 14 2 19 5 13 2 -7 2 -19 0 -25z m-852 -28 c3 -5 1
-10 -4 -10 -6 0 -11 5 -11 10 0 6 2 10 4 10 3 0 8 -4 11 -10z m38 -47 c-7 -2
-19 -2 -25 0 -7 3 -2 5 12 5 14 0 19 -2 13 -5z m-4696 -49 c-3 -3 -12 -4 -19
-1 -8 3 -5 6 6 6 11 1 17 -2 13 -5z m96 -1 c-13 -2 -35 -2 -50 0 -16 2 -5 4
22 4 28 0 40 -2 28 -4z m5407 -18 c0 -15 -6 -25 -14 -25 -24 0 -29 20 -10 35
25 19 24 19 24 -10z m-3512 8 c-10 -2 -28 -2 -40 0 -13 2 -5 4 17 4 22 1 32
-1 23 -4z m-1265 -10 c-7 -2 -19 -2 -25 0 -7 3 -2 5 12 5 14 0 19 -2 13 -5z
m-283 -13 c-20 -13 -33 -13 -25 0 3 6 14 10 23 10 15 0 15 -2 2 -10z m1203
-27 c-7 -2 -19 -2 -25 0 -7 3 -2 5 12 5 14 0 19 -2 13 -5z m150 0 c-7 -2 -19
-2 -25 0 -7 3 -2 5 12 5 14 0 19 -2 13 -5z m3026 -17 c-8 -8 -98 -10 -105 -3
-4 4 19 7 51 7 32 0 56 -2 54 -4z"/>
<path d="M4700 1830 c0 -5 7 -10 16 -10 8 0 12 5 9 10 -3 6 -10 10 -16 10 -5
0 -9 -4 -9 -10z"/>
<path d="M4550 1737 c0 -9 -4 -17 -10 -17 -5 0 -10 -4 -10 -10 0 -5 4 -10 9
-10 12 0 25 39 17 47 -3 4 -6 -1 -6 -10z"/>
<path d="M332 1713 c-10 -4 -10 -8 -1 -19 15 -18 36 -18 36 1 0 16 -16 24 -35
18z"/>
<path d="M4793 1693 c4 -3 2 -12 -4 -20 -9 -10 -8 -13 3 -13 7 0 14 9 15 20 1
11 -3 20 -9 20 -6 0 -8 -3 -5 -7z"/>
<path d="M4620 1675 c-11 -13 -5 -15 41 -13 36 1 43 3 22 5 -18 2 -33 8 -33
14 0 14 -16 11 -30 -6z"/>
<path d="M4835 1680 c-3 -6 1 -7 9 -4 18 7 21 14 7 14 -6 0 -13 -4 -16 -10z"/>
<path d="M1480 1655 c0 -14 5 -25 11 -25 5 0 7 5 4 10 -4 6 -1 17 5 25 10 12
9 15 -4 15 -10 0 -16 -9 -16 -25z"/>
<path d="M1702 1672 c-20 -2 -32 -8 -29 -15 4 -11 65 -12 76 -1 11 10 -17 19
-47 16z"/>
<path d="M4558 1668 c6 -6 18 -8 28 -6 14 3 12 5 -9 10 -19 3 -25 2 -19 -4z"/>
<path d="M3205 1660 c3 -5 8 -10 11 -10 2 0 4 5 4 10 0 6 -5 10 -11 10 -5 0
-7 -4 -4 -10z"/>
<path d="M430 1650 c0 -5 5 -10 10 -10 6 0 10 5 10 10 0 6 -4 10 -10 10 -5 0
-10 -4 -10 -10z"/>
<path d="M2355 1650 c-3 -5 -1 -10 4 -10 6 0 11 5 11 10 0 6 -2 10 -4 10 -3 0
-8 -4 -11 -10z"/>
<path d="M2040 1636 c0 -8 -3 -16 -7 -19 -5 -2 -2 -2 6 0 8 2 18 -2 22 -9 13
-21 22 -1 9 21 -12 24 -30 28 -30 7z"/>
<path d="M3890 1610 c0 -5 5 -10 10 -10 6 0 10 5 10 10 0 6 -4 10 -10 10 -5 0
-10 -4 -10 -10z"/>
<path d="M4817 1609 c7 -7 15 -10 18 -7 3 3 -2 9 -12 12 -14 6 -15 5 -6 -5z"/>
<path d="M1550 1600 c-8 -5 -11 -12 -7 -16 4 -4 13 -2 19 4 15 15 7 24 -12 12z"/>
<path d="M4595 1602 c-10 -10 -5 -22 9 -22 8 0 16 6 19 13 5 13 -17 19 -28 9z"/>
<path d="M772 1588 c-16 -16 -15 -28 3 -28 8 0 19 9 25 20 8 15 8 20 -3 20 -7
0 -18 -5 -25 -12z"/>
<path d="M2248 1593 c16 -3 22 -10 18 -19 -5 -12 -2 -12 16 -3 16 9 18 13 7
20 -8 5 -25 8 -39 7 -24 -1 -25 -1 -2 -5z"/>
<path d="M3316 1586 c3 -9 11 -16 16 -16 13 0 5 23 -10 28 -7 2 -10 -2 -6 -12z"/>
<path d="M184 1579 c-3 -6 0 -15 7 -20 18 -12 32 -11 24 0 -3 6 3 14 12 20 16
9 14 10 -9 11 -15 0 -30 -5 -34 -11z"/>
<path d="M1574 1569 c-3 -5 6 -9 20 -9 31 0 34 6 6 13 -11 3 -23 1 -26 -4z"/>
<path d="M584 1535 c-14 -14 -38 -32 -54 -40 -17 -9 -30 -20 -30 -26 0 -6 5
-7 10 -4 14 9 13 -8 -2 -23 -9 -9 -9 -12 1 -12 7 0 29 17 48 37 28 31 36 35
43 23 8 -12 10 -11 10 7 0 12 5 25 10 28 13 8 13 35 0 35 -6 0 -22 -11 -36
-25z"/>
<path d="M4006 1545 c-3 -9 0 -15 9 -15 8 0 15 7 15 15 0 8 -4 15 -9 15 -5 0
-11 -7 -15 -15z"/>
<path d="M4595 1550 c-20 -8 -20 -9 1 -9 12 -1 26 -11 32 -23 6 -13 11 -17 11
-10 1 16 33 15 57 -3 26 -20 33 -19 27 5 -3 11 -12 20 -19 20 -8 0 -14 7 -14
15 0 18 -17 20 -23 3 -4 -10 -7 -10 -18 0 -15 14 -26 14 -54 2z"/>
<path d="M3490 1541 c0 -5 7 -11 15 -15 9 -3 15 0 15 9 0 8 -7 15 -15 15 -8 0
-15 -4 -15 -9z"/>
<path d="M3555 1540 c27 -12 43 -12 25 0 -8 5 -22 9 -30 9 -10 0 -8 -3 5 -9z"/>
<path d="M3840 1540 c0 -7 21 -9 63 -4 83 9 85 14 4 14 -40 0 -67 -4 -67 -10z"/>
<path d="M4066 1541 c-6 -9 26 -21 59 -21 25 0 8 16 -27 24 -15 3 -29 2 -32
-3z"/>
<path d="M714 1525 c-18 -13 -18 -14 4 -8 12 3 25 9 28 14 8 14 -10 11 -32 -6z"/>
<path d="M1560 1531 c0 -5 5 -13 10 -16 6 -3 10 -2 10 4 0 5 -4 13 -10 16 -5
3 -10 2 -10 -4z"/>
<path d="M3698 1533 c7 -3 16 -2 19 1 4 3 -2 6 -13 5 -11 0 -14 -3 -6 -6z"/>
<path d="M1250 1509 c0 -6 6 -9 14 -6 8 3 17 1 20 -6 2 -7 5 -4 5 6 1 11 -6
17 -19 17 -11 0 -20 -5 -20 -11z"/>
<path d="M1316 1510 c-11 -3 -15 -9 -10 -13 10 -6 42 9 34 16 -3 3 -14 1 -24
-3z"/>
<path d="M165 1500 c-3 -5 -1 -10 4 -10 6 0 11 5 11 10 0 6 -2 10 -4 10 -3 0
-8 -4 -11 -10z"/>
<path d="M1350 1500 c0 -5 5 -10 10 -10 6 0 10 5 10 10 0 6 -4 10 -10 10 -5 0
-10 -4 -10 -10z"/>
<path d="M1381 1493 c-1 -15 4 -20 17 -19 9 2 16 6 15 9 -2 4 -3 13 -3 20 0 9
-3 8 -9 -2 -7 -11 -9 -11 -14 0 -3 8 -6 5 -6 -8z"/>
<path d="M3980 1502 c0 -14 23 -32 40 -31 10 0 11 2 3 6 -7 2 -13 11 -13 19 0
8 -7 14 -15 14 -8 0 -15 -4 -15 -8z"/>
<path d="M4585 1499 c-4 -5 -12 -8 -18 -6 -7 2 -17 -2 -24 -9 -34 -33 4 -32
43 1 16 14 24 25 17 25 -6 0 -15 -5 -18 -11z"/>
<path d="M475 1491 c-3 -6 -10 -9 -15 -6 -5 3 -11 1 -15 -5 -3 -5 -15 -10 -26
-10 -10 0 -19 -5 -19 -11 0 -13 42 -1 52 15 5 8 8 7 8 -2 0 -10 4 -9 16 3 9 9
14 18 11 21 -3 3 -8 0 -12 -5z"/>
<path d="M1435 1490 c-9 -14 14 -32 33 -25 6 2 32 1 56 -4 31 -6 46 -5 49 3 3
6 20 13 38 14 66 5 55 22 -13 22 -37 0 -69 -4 -72 -9 -10 -16 -66 -19 -75 -3
-6 11 -10 12 -16 2z"/>
<path d="M1698 1493 c7 -3 16 -2 19 1 4 3 -2 6 -13 5 -11 0 -14 -3 -6 -6z"/>
<path d="M4650 1480 c0 -5 5 -10 11 -10 5 0 7 5 4 10 -3 6 -8 10 -11 10 -2 0
-4 -4 -4 -10z"/>
<path d="M3120 1464 c0 -8 5 -12 10 -9 6 3 10 10 10 16 0 5 -4 9 -10 9 -5 0
-10 -7 -10 -16z"/>
<path d="M1615 1460 c3 -5 8 -10 11 -10 2 0 4 5 4 10 0 6 -5 10 -11 10 -5 0
-7 -4 -4 -10z"/>
<path d="M4937 1454 c-1 -2 -83 -6 -182 -9 -171 -7 -194 -9 -184 -20 11 -10
79 -11 82 -1 3 8 8 8 17 -1 7 -6 19 -9 27 -6 9 4 16 -2 20 -16 3 -11 10 -18
16 -14 17 10 67 13 67 3 0 -15 28 0 33 18 4 15 5 15 6 0 1 -21 3 -21 36 -6 14
6 25 17 25 25 0 7 10 13 23 12 12 0 16 -3 10 -6 -28 -11 -13 -33 22 -33 19 0
35 4 35 9 0 5 3 16 6 24 4 10 -4 16 -25 19 -17 3 -32 3 -34 2z m-57 -28 c0 -2
-7 -9 -15 -16 -13 -11 -14 -10 -9 4 5 14 24 23 24 12z"/>
<path d="M3948 1423 c7 -3 16 -2 19 1 4 3 -2 6 -13 5 -11 0 -14 -3 -6 -6z"/>
<path d="M4002 1388 c5 -15 28 -23 28 -10 0 5 -7 13 -16 16 -10 4 -14 1 -12
-6z"/>
<path d="M4598 1393 c6 -2 18 -2 25 0 6 3 1 5 -13 5 -14 0 -19 -2 -12 -5z"/>
<path d="M2354 1325 c21 -16 32 -13 21 4 -3 6 -14 11 -23 11 -15 -1 -15 -2 2
-15z"/>
<path d="M2931 1336 c2 -2 36 -6 74 -9 44 -4 59 -3 40 2 -30 9 -122 14 -114 7z"/>
<path d="M985 1320 c-3 -6 1 -13 10 -16 19 -8 30 0 20 15 -8 14 -22 14 -30 1z"/>
<path d="M1260 1320 c0 -5 12 -10 26 -10 14 0 23 4 19 10 -3 6 -15 10 -26 10
-10 0 -19 -4 -19 -10z"/>
<path d="M1320 1320 c0 -5 9 -10 20 -10 11 0 20 5 20 10 0 6 -9 10 -20 10 -11
0 -20 -4 -20 -10z"/>
<path d="M2677 1313 c-38 -20 -29 -27 13 -10 18 8 29 17 24 20 -5 3 -22 -2
-37 -10z"/>
<path d="M1555 1310 c-3 -5 -1 -10 4 -10 6 0 11 5 11 10 0 6 -2 10 -4 10 -3 0
-8 -4 -11 -10z"/>
<path d="M1646 1310 c-16 -5 -34 -6 -39 -3 -6 4 -7 1 -2 -6 4 -8 20 -11 37 -9
16 3 31 2 33 -2 7 -11 55 1 55 12 0 6 -7 8 -15 4 -8 -3 -15 -1 -15 4 0 12 -14
12 -54 0z"/>
<path d="M2768 1313 c12 -2 30 -2 40 0 9 3 -1 5 -23 4 -22 0 -30 -2 -17 -4z"/>
<path d="M2838 1313 c7 -3 16 -2 19 1 4 3 -2 6 -13 5 -11 0 -14 -3 -6 -6z"/>
<path d="M1410 1300 c0 -6 28 -10 65 -10 37 0 65 4 65 10 0 6 -28 10 -65 10
-37 0 -65 -4 -65 -10z"/>
<path d="M2410 1300 c0 -5 5 -10 10 -10 6 0 10 5 10 10 0 6 -4 10 -10 10 -5 0
-10 -4 -10 -10z"/>
<path d="M3945 1300 c3 -5 10 -10 16 -10 5 0 9 5 9 10 0 6 -7 10 -16 10 -8 0
-12 -4 -9 -10z"/>
<path d="M5044 1283 c1 -21 -3 -34 -12 -38 -8 -3 -11 -12 -8 -20 3 -8 1 -15
-4 -15 -6 0 -10 -5 -10 -11 0 -5 4 -8 9 -5 12 8 32 -18 29 -35 -2 -8 -10 -17
-18 -21 -10 -4 -6 -7 12 -7 30 -1 50 35 28 49 -7 4 -8 9 -2 11 5 2 12 14 16
26 6 19 4 22 -10 16 -14 -5 -16 -2 -10 20 3 15 2 27 -3 27 -5 0 -12 8 -15 18
-3 9 -4 3 -2 -15z"/>
<path d="M1829 1295 c-4 -3 -25 -6 -48 -7 -55 -1 -52 -15 4 -24 50 -7 58 -4
53 21 -1 9 -6 14 -9 10z"/>
<path d="M4710 1290 c0 -5 7 -10 15 -10 8 0 15 5 15 10 0 6 -7 10 -15 10 -8 0
-15 -4 -15 -10z"/>
<path d="M5096 1291 c-4 -7 -5 -15 -2 -18 9 -9 19 4 14 18 -4 11 -6 11 -12 0z"/>
<path d="M1997 1269 c7 -7 15 -10 18 -7 3 3 -2 9 -12 12 -14 6 -15 5 -6 -5z"/>
<path d="M1380 1236 c0 -9 5 -16 10 -16 6 0 10 4 10 9 0 6 -4 13 -10 16 -5 3
-10 -1 -10 -9z"/>
<path d="M1450 1229 c0 -5 5 -7 10 -4 6 3 10 8 10 11 0 2 -4 4 -10 4 -5 0 -10
-5 -10 -11z"/>
<path d="M2540 1211 c5 -11 7 -40 4 -65 -5 -31 -3 -46 5 -46 7 0 11 23 11 65
0 52 -3 65 -15 65 -12 0 -13 -4 -5 -19z"/>
<path d="M4732 1211 c3 -13 17 -16 82 -14 84 3 96 7 78 25 -9 9 -12 9 -12 -1
0 -9 -7 -11 -22 -7 -13 4 -47 8 -76 10 -44 2 -52 0 -50 -13z"/>
<path d="M4971 1213 c-1 -14 5 -23 14 -23 8 0 15 7 15 16 0 8 -4 13 -9 10 -5
-4 -12 0 -14 6 -3 7 -6 3 -6 -9z"/>
<path d="M1508 1210 c-2 -7 -22 -16 -43 -21 l-40 -8 35 1 c19 1 47 -2 62 -7
20 -5 32 -2 45 11 17 17 17 17 -9 11 -20 -5 -29 -3 -36 9 -7 12 -11 13 -14 4z"/>
<path d="M3995 1210 c4 -6 11 -8 16 -5 14 9 11 15 -7 15 -8 0 -12 -5 -9 -10z"/>
<path d="M2220 1196 c0 -2 7 -6 15 -10 8 -3 15 -1 15 4 0 6 -7 10 -15 10 -8 0
-15 -2 -15 -4z"/>
<path d="M3896 1181 c-5 -7 -3 -18 3 -24 14 -14 20 -6 11 17 -5 15 -9 16 -14
7z"/>
<path d="M1160 1173 c-51 -9 -40 -21 17 -18 75 4 73 3 73 15 0 10 -43 11 -90
3z"/>
<path d="M1680 1168 c-25 -9 -18 -28 11 -28 12 0 17 4 13 11 -4 8 0 9 15 4 11
-3 28 -2 37 3 14 8 10 10 -19 14 -20 2 -45 0 -57 -4z"/>
<path d="M1780 1155 c0 -8 6 -15 14 -15 8 0 22 -8 31 -17 10 -9 25 -17 34 -18
9 0 21 -4 27 -7 16 -11 38 8 30 27 -4 12 -16 16 -46 14 -27 -2 -47 2 -60 14
-25 21 -30 21 -30 2z"/>
<path d="M3400 1154 c0 -9 5 -14 12 -12 18 6 21 28 4 28 -9 0 -16 -7 -16 -16z"/>
<path d="M4010 1160 c0 -5 5 -10 10 -10 6 0 10 5 10 10 0 6 -4 10 -10 10 -5 0
-10 -4 -10 -10z"/>
<path d="M210 1150 c0 -5 7 -10 16 -10 8 0 12 5 9 10 -3 6 -10 10 -16 10 -5 0
-9 -4 -9 -10z"/>
<path d="M2317 1139 c7 -7 15 -10 18 -7 3 3 -2 9 -12 12 -14 6 -15 5 -6 -5z"/>
<path d="M4115 1140 c-3 -5 1 -10 9 -10 9 0 16 5 16 10 0 6 -4 10 -9 10 -6 0
-13 -4 -16 -10z"/>
<path d="M4965 1141 c-3 -5 -1 -12 4 -15 5 -3 11 1 15 9 6 16 -9 21 -19 6z"/>
<path d="M601 1092 c-31 -48 -41 -92 -21 -92 6 0 14 8 17 18 4 9 19 35 35 56
15 21 28 45 28 53 0 28 -29 11 -59 -35z"/>
<path d="M910 1131 c0 -5 -8 -12 -17 -14 -10 -3 -4 -5 14 -6 25 -1 31 2 27 14
-7 16 -24 21 -24 6z"/>
<path d="M2882 1125 c-17 -19 -1 -19 24 0 14 11 15 14 4 14 -8 0 -21 -6 -28
-14z"/>
<path d="M4645 1130 c3 -5 13 -10 21 -10 8 0 12 5 9 10 -3 6 -13 10 -21 10 -8
0 -12 -4 -9 -10z"/>
<path d="M4741 1126 c-10 -12 -1 -15 58 -18 39 -1 71 0 71 5 0 4 3 6 8 5 4 -2
9 1 12 6 8 14 -33 17 -42 3 -6 -9 -8 -9 -8 1 0 15 -32 16 -48 0 -9 -9 -12 -9
-12 0 0 16 -25 15 -39 -2z"/>
<path d="M978 1123 c12 -2 30 -2 40 0 9 3 -1 5 -23 4 -22 0 -30 -2 -17 -4z"/>
<path d="M3400 1100 c0 -5 9 -10 20 -10 11 0 20 5 20 10 0 6 -9 10 -20 10 -11
0 -20 -4 -20 -10z"/>
<path d="M4015 1100 c-3 -5 1 -10 10 -10 9 0 13 5 10 10 -3 6 -8 10 -10 10 -2
0 -7 -4 -10 -10z"/>
<path d="M5051 1086 c-9 -11 -9 -15 0 -18 8 -3 10 -11 6 -22 -4 -9 -12 -14
-17 -11 -6 4 -17 2 -25 -5 -10 -9 -16 -7 -24 7 -9 16 -12 16 -21 3 -5 -8 -10
-11 -10 -6 0 5 -7 3 -15 -4 -8 -7 -15 -9 -15 -6 0 4 -9 2 -20 -4 -16 -8 -20
-8 -18 2 2 7 -4 11 -12 9 -30 -7 -108 -12 -222 -14 -65 -1 -118 -5 -118 -9 0
-3 -8 -8 -17 -11 -10 -2 23 -5 72 -6 50 -1 106 -2 125 -2 64 -2 195 10 197 18
5 15 137 3 146 -13 4 -8 16 -14 25 -13 10 0 12 3 5 6 -7 2 -13 11 -13 19 0 9
4 13 9 9 5 -3 13 0 17 6 4 6 -1 16 -10 21 -9 5 -16 18 -16 28 0 25 -15 33 -29
16z"/>
<path d="M180 1075 c0 -8 4 -15 10 -15 5 0 7 7 4 15 -4 8 -8 15 -10 15 -2 0
-4 -7 -4 -15z"/>
<path d="M4660 1054 c0 -8 5 -12 10 -9 6 3 10 10 10 16 0 5 -4 9 -10 9 -5 0
-10 -7 -10 -16z"/>
<path d="M1645 1030 c-3 -5 1 -10 9 -10 9 0 16 5 16 10 0 6 -4 10 -9 10 -6 0
-13 -4 -16 -10z"/>
<path d="M4358 1013 c-21 -2 -38 -8 -38 -12 0 -5 19 -6 43 -4 23 3 48 5 55 5
6 1 12 5 12 10 0 4 -8 7 -17 6 -10 -1 -35 -3 -55 -5z"/>
<path d="M4440 1009 c0 -5 5 -7 10 -4 6 3 10 8 10 11 0 2 -4 4 -10 4 -5 0 -10
-5 -10 -11z"/>
<path d="M4480 1009 c0 -5 5 -7 10 -4 6 3 10 8 10 11 0 2 -4 4 -10 4 -5 0 -10
-5 -10 -11z"/>
<path d="M1875 999 c6 -9 3 -11 -11 -6 -18 7 -18 7 -1 -7 21 -16 50 -10 44 8
-2 6 -12 13 -22 14 -12 3 -15 0 -10 -9z"/>
<path d="M547 987 c-12 -36 19 -119 84 -224 39 -62 75 -115 80 -119 35 -21 11
47 -34 97 -12 13 -29 38 -37 54 -8 17 -19 33 -25 37 -5 4 -10 11 -11 15 0 4
-3 15 -7 23 -6 15 -16 70 -20 102 -2 21 -24 32 -30 15z"/>
<path d="M4270 990 c-12 -8 -11 -10 8 -10 12 0 22 5 22 10 0 13 -11 13 -30 0z"/>
<path d="M4970 990 c0 -5 7 -10 15 -10 8 0 15 5 15 10 0 6 -7 10 -15 10 -8 0
-15 -4 -15 -10z"/>
<path d="M5031 984 c0 -11 3 -14 6 -6 3 7 2 16 -1 19 -3 4 -6 -2 -5 -13z"/>
<path d="M1020 979 c0 -5 5 -7 10 -4 6 3 10 8 10 11 0 2 -4 4 -10 4 -5 0 -10
-5 -10 -11z"/>
<path d="M1135 945 c-35 -36 -44 -55 -25 -55 6 0 10 5 10 11 0 6 7 9 14 6 10
-4 13 -1 10 7 -3 7 2 19 11 26 9 8 15 9 15 2 0 -6 9 -16 20 -22 16 -9 20 -8
20 5 0 8 -6 15 -14 15 -9 0 -12 7 -9 20 8 30 -12 24 -52 -15z"/>
<path d="M3135 970 c-3 -5 -1 -10 4 -10 6 0 11 5 11 10 0 6 -2 10 -4 10 -3 0
-8 -4 -11 -10z"/>
<path d="M3380 972 c0 -12 19 -26 26 -19 2 2 -2 10 -11 17 -9 8 -15 8 -15 2z"/>
<path d="M896 954 c-9 -24 -4 -24 18 -3 16 16 17 19 4 19 -9 0 -19 -7 -22 -16z"/>
<path d="M1918 940 c4 -30 32 -43 32 -16 0 12 -25 46 -34 46 -1 0 -1 -13 2
-30z"/>
<path d="M3215 959 c56 -11 115 -11 115 1 0 6 -32 10 -77 9 -69 -1 -73 -2 -38
-10z"/>
<path d="M4206 955 c-19 -15 -19 -15 1 -15 11 0 23 7 27 15 7 19 -3 19 -28 0z"/>
<path d="M1630 950 c0 -5 7 -10 15 -10 8 0 15 5 15 10 0 6 -7 10 -15 10 -8 0
-15 -4 -15 -10z"/>
<path d="M4958 953 c-24 -6 -23 -23 1 -23 11 0 21 -6 24 -12 2 -7 8 -10 12 -6
8 8 -3 49 -13 47 -4 -1 -15 -3 -24 -6z"/>
<path d="M5030 947 c0 -9 6 -17 13 -17 8 0 7 -3 -3 -10 -8 -5 -12 -12 -9 -15
4 -3 11 0 17 7 7 9 6 19 -4 32 -12 17 -14 18 -14 3z"/>
<path d="M1270 941 c0 -5 -3 -18 -6 -28 -5 -15 -4 -15 5 -3 6 8 11 10 11 5 0
-6 -5 -16 -12 -23 -8 -8 -5 -14 16 -22 36 -13 39 -13 33 4 -4 10 -1 13 9 9 7
-3 14 0 14 6 0 6 -11 16 -25 21 -14 5 -25 16 -25 25 0 8 -4 15 -10 15 -5 0
-10 -4 -10 -9z"/>
<path d="M2600 940 c0 -5 7 -10 15 -10 8 0 15 5 15 10 0 6 -7 10 -15 10 -8 0
-15 -4 -15 -10z"/>
<path d="M4866 937 c-16 -12 -15 -13 11 -12 26 0 31 7 14 20 -4 3 -15 -1 -25
-8z"/>
<path d="M4815 930 c-3 -5 -1 -10 4 -10 6 0 11 5 11 10 0 6 -2 10 -4 10 -3 0
-8 -4 -11 -10z"/>
<path d="M1520 911 c0 -6 4 -12 8 -15 5 -3 9 1 9 9 0 8 -4 15 -9 15 -4 0 -8
-4 -8 -9z"/>
<path d="M1590 905 c7 -8 21 -15 32 -15 11 0 26 7 34 15 14 13 10 15 -32 15
-40 0 -45 -2 -34 -15z"/>
<path d="M1860 890 c0 -11 5 -20 10 -20 6 0 9 -3 9 -7 -3 -17 1 -36 7 -31 8 9
-7 78 -17 78 -5 0 -9 -9 -9 -20z"/>
<path d="M4050 900 c-8 -5 -11 -12 -7 -16 4 -4 15 0 24 9 18 18 8 23 -17 7z"/>
<path d="M1705 890 c-4 -6 7 -10 24 -10 31 0 41 -13 20 -25 -6 -4 -26 -7 -44
-7 -31 0 -34 -2 -24 -19 10 -19 29 -26 29 -11 0 4 17 9 38 11 20 1 45 3 55 4
22 2 22 21 0 47 -19 21 -87 28 -98 10z"/>
<path d="M2815 875 c36 -29 68 -40 92 -30 15 6 13 9 -12 15 -16 4 -43 15 -60
24 -44 24 -54 19 -20 -9z"/>
<path d="M1961 883 c0 -5 4 -17 9 -28 8 -18 9 -17 9 8 1 15 -3 27 -9 27 -5 0
-10 -3 -9 -7z"/>
<path d="M4758 883 c-24 -6 -23 -19 2 -26 20 -5 45 15 33 26 -7 7 -8 7 -35 0z"/>
<path d="M4600 865 c0 -8 4 -15 8 -15 5 0 9 7 9 15 0 8 -4 15 -9 15 -4 0 -8
-7 -8 -15z"/>
<path d="M5023 867 c-3 -6 -1 -7 5 -3 7 4 12 4 12 -1 0 -4 11 -9 25 -9 15 -1
25 4 25 11 0 16 -57 17 -67 2z"/>
<path d="M2986 861 c-4 -5 3 -7 14 -4 23 6 26 13 6 13 -8 0 -17 -4 -20 -9z"/>
<path d="M2168 790 c-8 -34 -11 -63 -6 -66 4 -3 11 3 14 13 3 10 10 26 15 35
11 22 12 78 0 78 -4 0 -15 -27 -23 -60z"/>
<path d="M1567 833 c-13 -12 -7 -23 13 -23 11 0 20 7 20 15 0 15 -21 21 -33 8z"/>
<path d="M3360 830 c0 -5 5 -10 11 -10 5 0 7 5 4 10 -3 6 -8 10 -11 10 -2 0
-4 -4 -4 -10z"/>
<path d="M5024 802 c-7 -12 -6 -24 3 -42 9 -18 13 -20 13 -7 0 13 9 17 39 17
43 0 54 8 42 29 -5 8 -17 11 -29 7 -12 -4 -30 -3 -40 3 -14 7 -21 5 -28 -7z"/>
<path d="M1910 775 c-13 -33 -58 -75 -81 -75 -18 0 -35 -17 -27 -26 3 -2 18
-2 34 2 21 4 39 21 64 57 43 64 44 67 31 67 -7 0 -16 -11 -21 -25z"/>
<path d="M4873 793 c9 -2 25 -2 35 0 9 3 1 5 -18 5 -19 0 -27 -2 -17 -5z"/>
<path d="M3327 773 c-14 -13 -6 -23 18 -23 16 0 25 6 25 15 0 15 -31 21 -43 8z"/>
<path d="M4658 763 c7 -3 16 -2 19 1 4 3 -2 6 -13 5 -11 0 -14 -3 -6 -6z"/>
<path d="M4875 760 c-3 -5 -1 -10 4 -10 6 0 11 5 11 10 0 6 -2 10 -4 10 -3 0
-8 -4 -11 -10z"/>
<path d="M3510 752 c0 -4 9 -8 20 -8 11 0 20 4 20 8 0 4 -9 8 -20 8 -11 0 -20
-4 -20 -8z"/>
<path d="M3560 752 c0 -4 17 -9 37 -10 21 -2 34 0 30 4 -10 10 -67 15 -67 6z"/>
<path d="M1260 740 c0 -5 7 -10 15 -10 8 0 15 5 15 10 0 6 -7 10 -15 10 -8 0
-15 -4 -15 -10z"/>
<path d="M4170 736 c0 -2 7 -6 15 -10 8 -3 15 -1 15 4 0 6 -7 10 -15 10 -8 0
-15 -2 -15 -4z"/>
<path d="M4596 723 c-27 -14 -27 -16 -11 -26 28 -15 86 -10 130 13 l40 20 -41
-6 c-26 -4 -44 -2 -48 5 -9 15 -34 12 -70 -6z"/>
<path d="M4775 720 c-3 -5 -1 -10 4 -10 6 0 11 5 11 10 0 6 -2 10 -4 10 -3 0
-8 -4 -11 -10z"/>
<path d="M5025 720 c-3 -5 -1 -10 4 -10 6 0 11 5 11 10 0 6 -2 10 -4 10 -3 0
-8 -4 -11 -10z"/>
<path d="M1435 710 c3 -5 8 -10 11 -10 2 0 4 5 4 10 0 6 -5 10 -11 10 -5 0 -7
-4 -4 -10z"/>
<path d="M3021 704 c0 -11 3 -14 6 -6 3 7 2 16 -1 19 -3 4 -6 -2 -5 -13z"/>
<path d="M3350 700 c-8 -5 -10 -10 -5 -10 6 0 17 5 25 10 8 5 11 10 5 10 -5 0
-17 -5 -25 -10z"/>
<path d="M4455 700 c4 -6 11 -8 16 -5 14 9 11 15 -7 15 -8 0 -12 -5 -9 -10z"/>
<path d="M1510 691 c0 -6 5 -11 11 -11 5 0 9 -8 7 -17 -3 -22 9 -43 25 -43 8
0 8 3 -1 12 -7 7 -12 20 -12 29 0 9 -7 22 -15 29 -10 9 -15 9 -15 1z"/>
<path d="M1665 681 c-7 -13 32 -34 47 -25 7 5 5 11 -7 21 -22 15 -32 16 -40 4z"/>
<path d="M2172 678 c5 -15 28 -23 28 -10 0 5 -7 13 -16 16 -10 4 -14 1 -12 -6z"/>
<path d="M5030 661 c0 -17 2 -31 4 -31 8 0 13 51 5 56 -5 3 -9 -9 -9 -25z"/>
<path d="M4950 664 c0 -8 5 -12 10 -9 6 4 8 11 5 16 -9 14 -15 11 -15 -7z"/>
<path d="M3428 663 c7 -3 16 -2 19 1 4 3 -2 6 -13 5 -11 0 -14 -3 -6 -6z"/>
<path d="M4873 656 c2 -6 7 -10 10 -8 4 1 16 2 27 2 11 0 20 4 20 9 0 5 -14 9
-30 9 -18 -1 -29 -6 -27 -12z"/>
<path d="M2073 648 c-13 -6 -23 -14 -23 -18 0 -14 30 -6 47 12 18 20 10 22
-24 6z"/>
<path d="M770 616 c0 -17 68 -76 87 -76 23 0 14 19 -12 26 -14 3 -36 20 -50
36 -16 19 -25 24 -25 14z"/>
<path d="M1975 610 c-3 -5 -17 -10 -31 -10 -43 0 -25 -15 20 -16 36 -1 45 2
49 17 4 14 0 19 -13 19 -11 0 -22 -4 -25 -10z"/>
<path d="M4145 600 c-3 -5 3 -10 14 -10 12 0 21 5 21 10 0 6 -6 10 -14 10 -8
0 -18 -4 -21 -10z"/>
<path d="M4887 603 c-10 -19 -16 -59 -9 -69 4 -6 15 -13 24 -17 13 -4 15 -2
11 10 -5 12 -2 15 10 10 9 -3 19 -2 22 3 4 6 22 10 42 10 27 0 34 -3 29 -15
-4 -11 1 -15 17 -15 18 0 19 2 7 10 -12 8 -11 10 8 10 29 0 31 44 3 60 -27 14
-31 13 -31 -7 0 -15 -10 -18 -55 -19 -48 -2 -55 1 -55 17 0 19 -15 26 -23 12z"/>
<path d="M1863 593 c-18 -6 -16 -23 1 -23 17 0 30 16 19 23 -5 2 -14 2 -20 0z"/>
<path d="M2545 580 c3 -5 13 -10 21 -10 8 0 14 5 14 10 0 6 -9 10 -21 10 -11
0 -17 -4 -14 -10z"/>
<path d="M2975 571 c-3 -5 -1 -12 5 -16 5 -3 10 1 10 9 0 18 -6 21 -15 7z"/>
<path d="M2228 563 c7 -3 16 -2 19 1 4 3 -2 6 -13 5 -11 0 -14 -3 -6 -6z"/>
<path d="M4405 561 c-8 -7 49 -51 65 -51 9 0 11 3 5 8 -5 4 -10 13 -11 20 -2
29 -5 32 -30 30 -14 -2 -27 -4 -29 -7z"/>
<path d="M4822 561 c-10 -6 -10 -10 2 -20 10 -9 16 -9 21 -1 10 16 -7 31 -23
21z"/>
<path d="M1440 549 c0 -5 5 -7 10 -4 6 3 10 8 10 11 0 2 -4 4 -10 4 -5 0 -10
-5 -10 -11z"/>
<path d="M4120 545 c-10 -13 -9 -15 9 -15 11 0 21 4 21 9 0 18 -18 21 -30 6z"/>
<path d="M4327 553 c-12 -11 -8 -20 12 -26 13 -3 21 1 24 14 3 11 1 19 -4 19
-5 0 -9 -6 -9 -12 0 -10 -2 -10 -8 0 -5 7 -11 9 -15 5z"/>
<path d="M4735 550 c-3 -5 1 -10 9 -10 9 0 16 5 16 10 0 6 -4 10 -9 10 -6 0
-13 -4 -16 -10z"/>
<path d="M1550 541 c0 -6 -12 -11 -27 -12 -25 0 -26 -1 -8 -9 11 -5 16 -10 10
-11 -5 -1 -14 -3 -20 -4 -5 -2 -18 -3 -27 -4 -10 0 -18 -5 -18 -10 0 -8 80 -8
254 1 36 2 61 8 64 16 2 6 10 12 18 12 9 0 12 5 9 10 -4 6 -10 8 -14 6 -17
-11 -179 -4 -220 9 -12 4 -21 2 -21 -4z"/>
<path d="M4660 540 c-24 -15 -7 -18 20 -3 14 7 18 13 10 13 -8 0 -22 -4 -30
-10z"/>
<path d="M895 530 c12 -5 14 -9 6 -9 -11 -1 -10 -5 5 -17 13 -11 15 -17 6 -20
-6 -3 -9 -10 -6 -16 4 -6 1 -14 -6 -18 -7 -4 7 -10 35 -14 26 -4 49 -5 53 -2
3 3 -4 6 -15 6 -35 0 -38 60 -4 60 12 1 11 5 -8 20 -13 11 -37 20 -55 19 -26
0 -28 -2 -11 -9z"/>
<path d="M2630 519 c-19 -5 -84 -10 -143 -11 -59 -1 -111 -6 -114 -10 -7 -13
-1 -17 38 -24 26 -4 30 -3 19 5 -11 8 19 11 113 12 70 1 132 3 137 4 6 1 13 3
16 4 8 1 -16 31 -25 30 -3 -1 -22 -5 -41 -10z"/>
<path d="M850 480 c0 -5 5 -10 11 -10 5 0 7 5 4 10 -3 6 -8 10 -11 10 -2 0 -4
-4 -4 -10z"/>
<path d="M1026 475 c-4 -11 2 -15 23 -15 16 0 37 -3 45 -6 12 -5 15 -2 10 10
-4 10 -13 15 -21 12 -8 -3 -23 -2 -33 4 -13 7 -19 6 -24 -5z"/>
<path d="M2240 480 c-20 -7 -17 -8 18 -7 24 0 46 5 48 9 6 10 -33 9 -66 -2z"/>
<path d="M4430 470 c-11 -7 -7 -10 18 -10 17 0 32 5 32 10 0 13 -30 13 -50 0z"/>
<path d="M4530 469 c0 -5 5 -8 12 -6 7 1 12 -7 13 -18 0 -25 33 -27 49 -3 5 9
8 19 6 21 -11 10 -80 15 -80 6z"/>
<path d="M970 459 c0 -11 27 -12 34 -1 2 4 -4 9 -15 9 -10 1 -19 -2 -19 -8z"/>
<path d="M1540 458 c0 -9 7 -19 16 -22 25 -10 27 -1 4 19 -17 15 -20 16 -20 3z"/>
<path d="M1765 460 c3 -5 13 -10 21 -10 8 0 14 5 14 10 0 6 -9 10 -21 10 -11
0 -17 -4 -14 -10z"/>
<path d="M4188 448 c-8 -4 14 -8 51 -8 35 0 62 2 60 4 -9 9 -99 12 -111 4z"/>
<path d="M4128 443 c6 -2 18 -2 25 0 6 3 1 5 -13 5 -14 0 -19 -2 -12 -5z"/>
<path d="M2050 405 c7 -8 16 -15 21 -15 5 0 9 7 9 15 0 9 -9 15 -21 15 -18 0
-19 -2 -9 -15z"/>
<path d="M2878 383 c7 -3 16 -2 19 1 4 3 -2 6 -13 5 -11 0 -14 -3 -6 -6z"/>
<path d="M2405 370 c-3 -5 0 -10 8 -10 8 0 20 -7 27 -15 9 -11 16 -13 24 -5 6
6 6 13 1 19 -17 15 -53 22 -60 11z"/>
<path d="M3895 370 c-3 -5 1 -10 10 -10 9 0 13 5 10 10 -3 6 -8 10 -10 10 -2
0 -7 -4 -10 -10z"/>
<path d="M4398 373 c7 -3 16 -2 19 1 4 3 -2 6 -13 5 -11 0 -14 -3 -6 -6z"/>
<path d="M1550 346 c0 -8 6 -16 14 -19 10 -4 12 0 9 14 -6 22 -23 26 -23 5z"/>
<path d="M898 343 c7 -3 16 -2 19 1 4 3 -2 6 -13 5 -11 0 -14 -3 -6 -6z"/>
<path d="M2148 329 c-23 -13 -106 -38 -111 -33 -2 2 -4 -3 -4 -12 0 -14 8 -15
46 -9 25 4 63 7 84 7 21 1 40 5 43 9 2 5 12 5 22 2 15 -6 15 -4 4 10 -8 8 -20
13 -28 10 -7 -3 -17 2 -20 11 -7 18 -12 19 -36 5z"/>
<path d="M4515 320 c-4 -6 3 -10 14 -10 25 0 27 6 6 13 -8 4 -17 2 -20 -3z"/>
<path d="M2329 303 c-13 -15 -11 -16 11 -10 14 4 42 7 63 7 23 0 36 4 32 10
-11 17 -91 12 -106 -7z"/>
<path d="M4025 310 c3 -5 8 -10 11 -10 2 0 4 5 4 10 0 6 -5 10 -11 10 -5 0 -7
-4 -4 -10z"/>
<path d="M560 300 c0 -5 5 -10 11 -10 5 0 7 5 4 10 -3 6 -8 10 -11 10 -2 0 -4
-4 -4 -10z"/>
<path d="M2285 300 c3 -5 11 -10 16 -10 6 0 7 5 4 10 -3 6 -11 10 -16 10 -6 0
-7 -4 -4 -10z"/>
<path d="M4408 303 c7 -3 16 -2 19 1 4 3 -2 6 -13 5 -11 0 -14 -3 -6 -6z"/>
<path d="M385 250 c-3 -5 -2 -10 4 -10 5 0 13 5 16 10 3 6 2 10 -4 10 -5 0
-13 -4 -16 -10z"/>
<path d="M460 250 c0 -5 5 -10 10 -10 6 0 10 5 10 10 0 6 -4 10 -10 10 -5 0
-10 -4 -10 -10z"/>
<path d="M3030 245 c0 -8 4 -15 9 -15 5 0 11 7 15 15 3 9 0 15 -9 15 -8 0 -15
-7 -15 -15z"/>
<path d="M3490 239 c0 -5 5 -7 10 -4 6 3 10 8 10 11 0 2 -4 4 -10 4 -5 0 -10
-5 -10 -11z"/>
<path d="M3040 220 c-13 -8 -13 -10 2 -10 9 0 20 5 23 10 8 13 -5 13 -25 0z"/>
<path d="M3544 219 c-3 -5 -17 -9 -32 -9 -26 -1 -26 -1 6 -15 33 -15 72 -7 72
14 0 12 -39 21 -46 10z"/>
<path d="M4457 214 c7 -3 9 -13 6 -22 -5 -13 -3 -14 7 -5 14 13 5 33 -13 32
-9 0 -9 -2 0 -5z"/>
<path d="M3265 200 c3 -5 10 -10 16 -10 5 0 9 5 9 10 0 6 -7 10 -16 10 -8 0
-12 -4 -9 -10z"/>
<path d="M3660 201 c0 -5 -8 -12 -17 -14 -15 -4 -15 -5 -2 -6 9 0 22 6 29 14
9 10 9 15 1 15 -6 0 -11 -4 -11 -9z"/>
<path d="M4050 200 c0 -5 7 -10 15 -10 8 0 15 5 15 10 0 6 -7 10 -15 10 -8 0
-15 -4 -15 -10z"/>
<path d="M4774 194 c3 -9 6 -18 6 -20 0 -3 9 0 20 6 28 15 25 30 -6 30 -20 0
-25 -4 -20 -16z"/>
<path d="M4210 184 c0 -8 9 -14 19 -14 30 0 34 17 6 22 -17 4 -25 1 -25 -8z"/>
<path d="M4360 190 c-9 -6 -10 -10 -3 -10 6 0 15 5 18 10 8 12 4 12 -15 0z"/>
</g>
</svg>
