<?xml version="1.0" standalone="no"?>
<!DOCTYPE svg PUBLIC "-//W3C//DTD SVG 20010904//EN"
 "http://www.w3.org/TR/2001/REC-SVG-20010904/DTD/svg10.dtd">
<svg version="1.0" xmlns="http://www.w3.org/2000/svg"
 width="337.000000pt" height="420.000000pt" viewBox="0 0 337.000000 420.000000"
 preserveAspectRatio="xMidYMid meet">
<metadata>
Created by potrace 1.16, written by Peter Selinger 2001-2019
</metadata>
<g transform="translate(0.000000,420.000000) scale(0.100000,-0.100000)"
fill="#000000" stroke="none">
<path d="M207 4182 c-15 -10 -24 -22 -20 -25 3 -4 1 -7 -5 -7 -7 0 -12 -7 -12
-15 0 -11 -5 -12 -22 -6 -13 5 -22 14 -20 20 1 6 -5 11 -13 11 -8 0 -15 5 -15
10 0 20 -21 9 -31 -17 -8 -23 -6 -30 16 -52 26 -25 26 -26 41 -7 13 18 14 11
15 -65 0 -46 5 -93 10 -104 6 -15 8 -4 8 40 -2 97 -1 105 16 99 11 -5 15 1 15
20 0 24 4 26 40 26 32 0 40 4 40 18 0 15 11 18 77 20 76 2 95 -3 38 -11 -43
-5 -44 -27 -1 -29 75 -4 81 -3 79 10 -2 7 8 12 23 12 18 0 24 4 21 13 -4 10 5
14 27 15 30 1 33 -1 28 -23 -4 -22 -1 -25 27 -25 19 0 30 5 28 12 -1 7 16 15
38 20 53 11 381 16 397 7 7 -4 18 -3 25 3 9 7 13 7 13 0 0 -8 34 -10 105 -8
86 4 105 2 105 -10 0 -8 9 -14 20 -14 11 0 20 5 20 10 0 6 -4 10 -10 10 -5 0
-10 5 -10 11 0 6 26 10 70 8 39 -1 73 1 77 4 3 4 24 7 45 7 27 0 41 -5 46 -17
9 -22 32 -28 32 -9 0 11 12 14 53 10 204 -17 263 -17 291 -1 18 10 7 12 -74
14 -168 5 -154 18 25 24 97 4 37 5 -140 2 -170 -2 -483 -5 -695 -7 -212 -2
-469 -7 -572 -11 -165 -7 -189 -6 -203 9 -21 21 -34 20 -68 -2z m43 -17 c-7
-9 -15 -13 -17 -11 -7 7 7 26 19 26 6 0 6 -6 -2 -15z m-20 -29 c0 -3 -4 -8
-10 -11 -5 -3 -10 -1 -10 4 0 6 5 11 10 11 6 0 10 -2 10 -4z"/>
<path d="M2158 4193 c6 -2 18 -2 25 0 6 3 1 5 -13 5 -14 0 -19 -2 -12 -5z"/>
<path d="M2248 4193 c7 -3 16 -2 19 1 4 3 -2 6 -13 5 -11 0 -14 -3 -6 -6z"/>
<path d="M2334 4191 c-10 -11 -103 -20 -231 -21 -40 0 -73 -4 -73 -9 0 -8 181
-6 293 3 l42 4 -30 -14 c-28 -14 -25 -14 45 -9 41 2 147 8 235 11 88 4 166 8
174 9 8 1 32 -1 53 -5 21 -4 40 -4 43 0 5 8 28 6 83 -6 18 -3 32 -2 32 3 0 5
9 9 20 10 11 1 18 -2 15 -7 -6 -9 92 -7 101 3 3 3 -30 8 -73 12 -43 4 -89 9
-103 11 -14 2 -158 7 -320 10 -213 5 -298 3 -306 -5z m99 -28 c-7 -2 -21 -2
-30 0 -10 3 -4 5 12 5 17 0 24 -2 18 -5z"/>
<path d="M3284 4162 c-6 -22 -7 -22 -26 -6 -14 14 -21 15 -30 6 -9 -9 -8 -12
5 -12 19 0 22 -11 7 -26 -7 -7 -7 -33 0 -82 5 -39 7 -79 3 -89 -4 -12 -3 -15
4 -8 13 13 26 65 16 65 -5 0 -9 24 -11 53 -3 50 -2 51 15 34 15 -14 18 -35 18
-111 0 -52 4 -89 8 -83 5 7 5 -2 2 -19 -4 -20 -1 -35 8 -42 23 -20 31 119 9
164 -13 29 -14 37 -3 43 8 5 10 14 7 20 -4 6 -11 9 -16 6 -4 -3 -10 4 -13 15
-3 11 -2 19 2 18 34 -4 42 24 16 58 -14 19 -15 18 -21 -4z"/>
<path d="M952 4128 c6 -18 28 -21 28 -4 0 9 -7 16 -16 16 -9 0 -14 -5 -12 -12z"/>
<path d="M290 4110 c-18 -12 -2 -12 25 0 13 6 15 9 5 9 -8 0 -22 -4 -30 -9z"/>
<path d="M2190 4100 c0 -5 7 -10 15 -10 8 0 15 5 15 10 0 6 -7 10 -15 10 -8 0
-15 -4 -15 -10z"/>
<path d="M1780 4090 c0 -5 10 -10 23 -10 18 0 19 2 7 10 -19 13 -30 13 -30 0z"/>
<path d="M2770 4090 c0 -5 5 -10 10 -10 6 0 10 5 10 10 0 6 -4 10 -10 10 -5 0
-10 -4 -10 -10z"/>
<path d="M97 3863 c-5 -7 -5 -17 -2 -23 3 -5 1 -10 -4 -10 -6 0 -11 -7 -11
-16 0 -10 6 -14 15 -10 12 4 13 2 3 -14 -13 -20 -4 -40 11 -24 15 15 25 64 13
64 -6 0 -12 10 -14 23 -2 15 -5 18 -11 10z"/>
<path d="M3260 3841 c0 -13 3 -21 7 -18 3 4 12 2 20 -4 10 -9 13 -8 13 5 0 10
-4 15 -9 11 -6 -3 -14 3 -20 12 -9 16 -10 15 -11 -6z"/>
<path d="M3277 3770 c6 -34 21 -48 20 -17 -1 14 -5 23 -9 21 -3 -2 -8 1 -11 8
-2 7 -2 2 0 -12z"/>
<path d="M109 3760 c0 -3 -2 -15 -5 -27 -2 -13 1 -23 6 -23 16 0 24 30 11 43
-6 6 -11 9 -12 7z"/>
<path d="M3230 3703 c0 -22 2 -25 10 -13 13 20 13 40 0 40 -5 0 -10 -12 -10
-27z"/>
<path d="M3303 3722 c-6 -4 -15 -20 -19 -36 -5 -19 -3 -27 4 -22 6 4 8 -2 5
-14 -3 -11 -1 -20 5 -20 10 0 29 87 20 95 -2 2 -9 1 -15 -3z"/>
<path d="M670 3669 c0 -5 11 -9 25 -9 14 0 25 2 25 4 0 2 -11 6 -25 8 -14 3
-25 1 -25 -3z"/>
<path d="M2330 3671 c0 -17 15 -19 28 -5 11 12 9 14 -8 14 -11 0 -20 -4 -20
-9z"/>
<path d="M1122 3663 c-28 -4 -31 -7 -21 -19 6 -8 21 -14 33 -13 20 0 21 1 1 9
-20 9 -20 9 1 9 11 1 26 -5 33 -11 11 -10 14 -10 18 0 6 15 35 16 49 2 13 -13
44 -3 44 14 0 12 -87 17 -158 9z"/>
<path d="M1306 3652 c-7 -11 21 -25 35 -16 5 3 9 11 9 17 0 7 -4 6 -10 -3 -8
-12 -11 -13 -19 -1 -5 8 -11 9 -15 3z"/>
<path d="M310 3640 c0 -5 23 -10 50 -10 28 0 50 4 50 8 0 5 -22 10 -50 11 -28
1 -50 -3 -50 -9z"/>
<path d="M454 3639 c-14 -6 -10 -8 16 -8 19 -1 42 -5 50 -10 18 -12 31 -5 23
15 -6 15 -54 17 -89 3z"/>
<path d="M550 3641 c0 -17 15 -20 53 -11 20 4 37 5 37 1 0 -4 23 -8 51 -10 35
-1 49 1 44 9 -4 6 -13 9 -21 6 -8 -3 -14 -2 -14 2 0 4 -34 8 -75 10 -46 2 -75
0 -75 -7z"/>
<path d="M1571 3643 c-1 -6 -10 -9 -22 -6 -16 4 -20 2 -17 -8 3 -8 14 -12 24
-11 24 5 27 8 21 24 -3 8 -6 9 -6 1z"/>
<path d="M2366 3634 c-4 -10 2 -24 15 -35 17 -15 19 -19 6 -19 -12 0 -15 -9
-13 -37 3 -35 7 -85 22 -298 6 -82 14 -99 14 -29 1 27 7 60 15 74 8 14 14 33
15 44 0 15 -3 16 -15 6 -13 -11 -15 -7 -15 28 0 23 5 44 10 47 6 3 10 17 10
31 0 14 -4 22 -10 19 -5 -3 -10 -1 -10 4 0 6 8 11 18 11 10 0 23 5 29 11 17
17 37 1 22 -17 -10 -12 -9 -13 6 -8 14 6 16 4 11 -7 -4 -8 0 -5 8 5 19 23 20
32 6 41 -5 3 -10 12 -10 20 0 11 11 10 57 -6 71 -24 82 -24 76 0 -11 42 -76
72 -92 44 -6 -12 -19 -15 -50 -10 -22 3 -41 1 -41 -4 0 -5 5 -9 10 -9 16 0 11
-27 -6 -34 -23 -9 -23 -9 -19 24 3 21 -3 37 -20 56 -26 28 -25 44 3 45 14 0
13 2 -3 9 -30 13 -42 12 -49 -6z"/>
<path d="M213 3633 c9 -2 25 -2 35 0 9 3 1 5 -18 5 -19 0 -27 -2 -17 -5z"/>
<path d="M777 3614 c17 -26 32 -24 30 5 -1 12 -9 19 -23 19 -22 0 -22 -2 -7
-24z"/>
<path d="M823 3628 c2 -7 10 -13 17 -13 7 0 15 6 18 13 2 7 -5 12 -18 12 -13
0 -20 -5 -17 -12z"/>
<path d="M1398 3633 c6 -2 12 -12 12 -21 1 -15 2 -15 15 2 10 13 22 17 40 14
14 -3 25 -1 25 3 0 5 -24 9 -52 8 -29 0 -47 -3 -40 -6z"/>
<path d="M1587 3619 c-6 -23 0 -29 31 -29 17 0 23 4 19 15 -4 8 -2 17 3 20 6
4 10 2 10 -3 0 -6 7 -13 16 -16 9 -4 13 -2 8 5 -4 6 0 15 7 20 9 5 -5 8 -38 7
-41 0 -52 -4 -56 -19z"/>
<path d="M1700 3633 c0 -5 5 -15 10 -23 7 -12 9 -10 7 8 -1 19 -17 33 -17 15z"/>
<path d="M1748 3633 c-9 -2 -15 -10 -12 -17 3 -8 27 -14 64 -15 55 -2 60 0 60
18 0 18 -6 21 -47 20 -27 -1 -56 -3 -65 -6z"/>
<path d="M1876 3632 c-15 -24 48 -49 69 -28 7 7 10 17 7 22 -9 12 -69 17 -76
6z"/>
<path d="M2000 3630 c0 -5 -7 -10 -15 -10 -21 0 -19 -15 3 -17 9 -1 47 -5 85
-8 70 -7 83 1 53 31 -20 19 -57 19 -50 -1 4 -8 1 -15 -5 -15 -6 0 -11 7 -11
15 0 10 -10 15 -30 15 -16 0 -30 -4 -30 -10z"/>
<path d="M2522 3632 c-22 -15 7 -21 53 -12 22 4 31 8 20 9 -11 1 -29 4 -40 6
-11 3 -26 1 -33 -3z"/>
<path d="M115 3620 c-16 -7 -13 -9 18 -9 20 -1 37 4 37 9 0 12 -27 12 -55 0z"/>
<path d="M2185 3610 c-7 -11 -5 -11 35 -16 14 -2 38 -6 54 -10 22 -5 27 -4 21
6 -6 10 -4 12 8 7 11 -4 14 -2 10 9 -6 17 -118 20 -128 4z"/>
<path d="M360 3594 c-25 -13 -25 -13 13 -12 23 1 37 6 37 15 0 16 -17 15 -50
-3z"/>
<path d="M2157 3603 c-10 -9 -9 -23 1 -23 5 0 9 7 9 15 0 17 -1 18 -10 8z"/>
<path d="M87 3594 c-3 -4 2 -18 13 -32 11 -13 17 -29 13 -35 -3 -5 -1 -7 5 -4
5 4 8 15 5 26 -2 10 3 25 12 35 15 15 14 16 -13 16 -16 0 -32 -3 -35 -6z"/>
<path d="M593 3584 c-18 -9 -33 -20 -33 -25 0 -5 -7 -9 -17 -9 -9 0 -14 -3
-10 -6 3 -4 27 4 52 16 45 22 70 21 47 -2 -19 -19 -14 -29 8 -16 25 16 27 58
3 58 -10 0 -33 -8 -50 -16z"/>
<path d="M2330 3580 c0 -5 5 -10 10 -10 6 0 10 5 10 10 0 6 -4 10 -10 10 -5 0
-10 -4 -10 -10z"/>
<path d="M424 3560 c-37 -15 -39 -30 -3 -23 25 5 30 3 24 -7 -5 -8 -3 -11 6
-8 16 5 19 40 4 44 -5 1 -20 -1 -31 -6z"/>
<path d="M150 3521 c-5 -11 -10 -22 -10 -25 0 -11 69 -6 76 6 5 8 -2 9 -25 5
-29 -6 -32 -5 -26 13 8 26 -1 26 -15 1z"/>
<path d="M1140 3524 c0 -8 5 -12 10 -9 6 3 10 10 10 16 0 5 -4 9 -10 9 -5 0
-10 -7 -10 -16z"/>
<path d="M2775 3530 c-27 -7 -25 -8 17 -9 26 0 50 4 53 9 7 11 -25 11 -70 0z"/>
<path d="M2868 3533 c7 -3 16 -2 19 1 4 3 -2 6 -13 5 -11 0 -14 -3 -6 -6z"/>
<path d="M70 3451 c0 -28 -5 -43 -17 -50 -17 -10 -17 -10 0 -11 11 0 17 -8 17
-22 0 -21 2 -20 15 6 10 18 12 32 6 35 -6 4 -8 21 -5 38 3 17 0 34 -6 38 -6 4
-10 -9 -10 -34z"/>
<path d="M2532 3448 c-5 -18 -7 -106 -6 -195 2 -101 0 -163 -6 -163 -6 0 -10
6 -11 13 -1 17 -17 -24 -18 -46 -1 -9 4 -16 10 -15 6 2 14 -3 17 -11 2 -8 0
-11 -6 -7 -15 9 -20 -14 -11 -46 4 -16 4 -41 -1 -57 -4 -16 -6 -32 -3 -35 3
-2 -2 -15 -11 -28 -9 -12 -16 -29 -16 -38 0 -13 1 -13 10 0 8 12 10 10 10 -8
0 -13 3 -21 8 -19 4 3 7 -51 7 -119 0 -83 -4 -124 -11 -124 -6 0 -16 -12 -23
-26 -10 -23 -9 -25 9 -19 18 6 19 2 16 -34 -5 -52 -17 -71 -27 -45 -7 18 -8
18 -8 -3 -1 -12 4 -23 10 -25 7 -2 11 -39 11 -98 0 -74 3 -99 16 -114 16 -18
16 -19 0 -13 -23 8 -27 -32 -26 -244 2 -168 1 -177 -20 -204 -23 -29 -22 -46
1 -26 12 9 16 5 21 -20 9 -47 -4 -139 -20 -139 -8 0 -14 7 -14 15 0 8 -4 15
-10 15 -8 0 -8 -22 0 -135 l2 -30 9 35 c5 19 11 45 13 58 7 49 18 34 12 -18
-3 -30 -6 -88 -6 -127 0 -58 -3 -73 -15 -73 -8 0 -15 -4 -15 -9 0 -5 -7 -17
-16 -25 -14 -15 -13 -16 6 -16 12 0 18 -4 15 -10 -4 -6 -9 -41 -11 -77 -3 -37
-10 -74 -17 -82 -9 -12 -9 -13 1 -7 9 5 12 -4 12 -33 0 -23 -4 -41 -10 -41 -5
0 -7 -13 -3 -30 3 -19 1 -30 -5 -30 -6 0 -9 7 -5 16 4 12 2 15 -8 12 -8 -3
-13 -14 -12 -24 1 -10 -5 -34 -13 -52 -9 -19 -13 -36 -10 -39 3 -4 0 -13 -7
-22 -10 -14 -10 -14 5 -3 9 7 20 27 23 43 10 46 29 49 21 3 -13 -84 -16 -100
-21 -122 -4 -15 -2 -21 5 -17 6 3 11 -4 11 -17 2 -38 -2 -53 -17 -61 -15 -9
-19 -53 -6 -61 4 -2 9 5 9 16 1 12 7 26 13 32 8 8 10 4 5 -17 -5 -17 -3 -27 4
-27 6 0 11 -4 11 -10 0 -5 -9 -10 -20 -10 -26 0 -47 -48 -29 -64 9 -8 10 -8 5
1 -9 16 12 55 25 47 6 -3 8 -17 4 -31 -3 -14 -2 -22 3 -20 4 3 8 -12 7 -34 0
-21 -3 -39 -7 -39 -5 0 -8 -7 -8 -16 0 -8 5 -12 11 -9 7 5 9 -9 7 -41 -2 -33
1 -48 11 -52 8 -3 11 0 7 7 -4 6 -1 11 6 11 9 0 9 3 -2 10 -8 5 -10 10 -4 10
7 0 10 13 8 31 -3 21 0 28 8 23 8 -5 9 -1 4 12 -4 10 -8 21 -8 24 -2 8 11 120
22 185 5 33 12 96 15 139 3 43 8 83 12 89 3 5 -1 13 -8 18 -10 6 -10 9 -2 9 8
0 10 7 5 20 -7 18 1 212 12 293 2 22 7 163 10 315 4 153 9 369 12 481 4 153 2
206 -7 211 -7 5 -8 13 -3 21 5 8 10 52 11 99 1 47 6 146 12 220 6 74 10 142
10 150 0 8 5 85 11 170 6 85 11 185 11 223 0 53 3 67 14 67 8 0 15 5 15 10 0
6 -4 10 -9 10 -16 0 -21 47 -22 185 -1 133 -9 166 -27 103z m-85 -2500 c-3 -7
-5 -2 -5 12 0 14 2 19 5 13 2 -7 2 -19 0 -25z"/>
<path d="M260 3453 c0 -10 4 -14 8 -8 4 6 11 13 16 18 5 4 2 7 -7 7 -10 0 -17
-8 -17 -17z"/>
<path d="M110 3444 c0 -8 5 -12 10 -9 6 4 8 11 5 16 -9 14 -15 11 -15 -7z"/>
<path d="M165 3450 c3 -5 17 -10 30 -10 13 0 27 5 30 10 4 6 -8 10 -30 10 -22
0 -34 -4 -30 -10z"/>
<path d="M915 3400 c3 -5 8 -10 11 -10 2 0 4 5 4 10 0 6 -5 10 -11 10 -5 0 -7
-4 -4 -10z"/>
<path d="M867 3374 c6 -15 23 -19 23 -5 0 5 -7 11 -14 14 -10 4 -13 1 -9 -9z"/>
<path d="M70 3331 c0 -6 5 -13 10 -16 6 -3 10 1 10 9 0 9 -4 16 -10 16 -5 0
-10 -4 -10 -9z"/>
<path d="M110 3329 c0 -5 5 -7 10 -4 6 3 10 8 10 11 0 2 -4 4 -10 4 -5 0 -10
-5 -10 -11z"/>
<path d="M886 3305 c4 -8 12 -15 20 -15 20 0 17 7 -6 20 -16 9 -18 8 -14 -5z"/>
<path d="M55 3270 c3 -5 8 -10 11 -10 2 0 4 5 4 10 0 6 -5 10 -11 10 -5 0 -7
-4 -4 -10z"/>
<path d="M95 3270 c27 -12 35 -12 35 0 0 6 -12 10 -27 9 -25 0 -26 -1 -8 -9z"/>
<path d="M155 3240 c-11 -5 -14 -9 -7 -11 34 -5 46 -3 50 9 4 14 -13 15 -43 2z"/>
<path d="M2305 3190 c-20 -30 -79 -38 -305 -39 -124 -1 -310 -3 -415 -6 -104
-3 -202 -5 -217 -5 -15 -1 -30 -6 -34 -11 -4 -8 -9 -7 -14 1 -9 14 -110 23
-110 9 0 -5 5 -9 10 -9 6 0 10 -4 10 -9 0 -11 -699 -20 -984 -12 -79 2 -86 4
-70 17 18 13 17 14 -11 12 -27 -3 -30 -6 -30 -38 0 -29 4 -34 20 -32 67 10
219 20 233 15 9 -4 22 -12 27 -19 11 -14 68 -7 59 7 -3 5 2 9 10 9 8 0 18 -5
21 -11 4 -5 17 -9 28 -8 12 1 33 -3 47 -9 21 -9 27 -7 39 9 11 16 26 19 102
19 63 0 89 -4 89 -12 0 -9 3 -9 12 0 7 7 18 12 26 12 27 0 -8 -30 -37 -31 -24
-2 -24 -2 -3 -6 13 -3 29 0 36 6 6 6 22 8 34 4 15 -4 22 -1 22 9 0 9 8 14 23
12 12 -1 28 -3 35 -3 18 -1 15 -19 -5 -24 -10 -2 -1 -4 20 -4 23 0 37 5 37 13
0 17 52 22 199 20 79 -1 125 3 128 9 4 13 131 17 533 19 316 2 413 10 449 38
13 10 19 18 13 18 -6 0 -12 10 -14 23 -3 18 -5 19 -13 7z"/>
<path d="M40 3170 c0 -9 5 -21 11 -27 12 -12 51 -5 43 8 -3 5 -10 7 -15 3 -6
-3 -17 2 -24 12 -12 16 -14 16 -15 4z"/>
<path d="M190 3161 c0 -22 29 -28 100 -21 41 4 60 8 43 9 -18 0 -33 6 -33 11
0 6 -25 10 -55 10 -30 0 -55 -4 -55 -9z"/>
<path d="M855 3159 c-16 -6 -14 -8 13 -8 33 -1 41 4 20 12 -7 2 -22 1 -33 -4z"/>
<path d="M443 3143 c9 -2 23 -2 30 0 6 3 -1 5 -18 5 -16 0 -22 -2 -12 -5z"/>
<path d="M2401 3134 c0 -11 3 -14 6 -6 3 7 2 16 -1 19 -3 4 -6 -2 -5 -13z"/>
<path d="M2376 3095 c-4 -16 -4 -52 0 -81 7 -56 5 -58 -43 -57 -25 1 -12 -16
17 -22 24 -5 29 -11 25 -28 -2 -12 -6 -65 -9 -118 -3 -52 -10 -116 -15 -142
-6 -25 -8 -74 -6 -109 5 -56 5 -185 1 -491 0 -49 2 -91 7 -94 4 -2 4 -10 0
-16 -4 -7 -8 -57 -8 -113 -1 -78 2 -101 12 -101 8 0 11 7 8 18 -3 9 -2 20 3
23 4 2 7 51 5 107 -2 61 2 107 8 115 6 8 12 98 15 226 2 117 6 258 9 313 12
233 13 460 2 467 -6 4 -10 28 -9 55 3 58 -12 89 -22 48z"/>
<path d="M3203 3065 c0 -33 2 -45 4 -27 2 18 2 45 0 60 -2 15 -4 0 -4 -33z"/>
<path d="M41 3094 c0 -11 3 -14 6 -6 3 7 2 16 -1 19 -3 4 -6 -2 -5 -13z"/>
<path d="M2417 3068 c-9 -31 -2 -33 11 -3 6 14 8 25 3 25 -5 0 -11 -10 -14
-22z"/>
<path d="M258 3053 c7 -3 16 -2 19 1 4 3 -2 6 -13 5 -11 0 -14 -3 -6 -6z"/>
<path d="M125 3020 c-19 -8 -19 -9 3 -9 12 -1 22 4 22 9 0 6 -1 10 -2 9 -2 0
-12 -4 -23 -9z"/>
<path d="M2265 3000 l-40 -7 48 -2 c26 0 47 4 47 9 0 6 -3 9 -7 9 -5 -1 -26
-5 -48 -9z"/>
<path d="M1293 2983 c-24 -2 -43 -8 -43 -14 0 -5 5 -9 11 -9 23 0 -4 -20 -36
-26 -19 -3 -35 -10 -35 -15 0 -5 12 -4 26 1 14 6 39 10 55 10 17 0 32 6 35 15
5 13 9 13 22 3 10 -8 13 -8 9 -2 -8 13 13 24 44 24 11 0 17 5 14 10 -6 10 -19
10 -102 3z"/>
<path d="M1434 2979 c-7 -12 -13 -11 94 -14 53 -2 92 1 92 7 0 5 5 6 10 3 6
-3 10 -16 10 -28 0 -17 2 -19 9 -8 8 12 12 12 25 2 11 -10 16 -10 16 -2 0 8
14 10 40 7 22 -2 42 0 46 5 3 5 10 6 16 3 12 -8 249 -19 402 -19 79 0 110 4
113 13 3 8 -8 12 -35 12 -22 0 -55 3 -73 7 l-34 7 29 6 c16 3 -147 6 -363 7
-225 0 -393 -3 -397 -8z"/>
<path d="M955 2970 c-3 -5 1 -10 9 -10 9 0 16 5 16 10 0 6 -4 10 -9 10 -6 0
-13 -4 -16 -10z"/>
<path d="M1105 2970 c3 -5 8 -10 11 -10 2 0 4 5 4 10 0 6 -5 10 -11 10 -5 0
-7 -4 -4 -10z"/>
<path d="M187 2963 c-10 -9 -9 -23 1 -23 5 0 9 7 9 15 0 17 -1 18 -10 8z"/>
<path d="M570 2960 c0 -5 -7 -10 -15 -10 -8 0 -15 -4 -15 -10 0 -5 5 -10 10
-10 6 0 10 -4 10 -8 0 -10 -66 -10 -75 0 -3 3 -25 1 -48 -5 -23 -5 -95 -12
-159 -14 -106 -4 -135 -11 -109 -27 18 -11 563 -8 574 3 6 6 22 11 36 11 33 0
71 10 71 19 0 6 -47 28 -80 38 -8 2 -42 3 -75 2 -88 -2 -99 -1 -103 11 -5 13
-22 13 -22 0z m75 -30 c-3 -5 -14 -10 -23 -10 -15 0 -15 2 -2 10 20 13 33 13
25 0z"/>
<path d="M868 2953 c12 -2 22 -12 23 -21 0 -14 2 -13 9 3 5 12 9 14 9 6 1 -8
4 -11 8 -8 3 4 12 -1 20 -11 14 -16 14 -16 9 1 -3 10 -6 23 -6 28 0 5 -21 8
-47 8 -27 -1 -38 -4 -25 -6z"/>
<path d="M2460 2939 c0 -5 5 -7 10 -4 6 3 10 8 10 11 0 2 -4 4 -10 4 -5 0 -10
-5 -10 -11z"/>
<path d="M3198 2925 c-3 -14 -1 -28 3 -31 5 -3 9 9 9 25 0 38 -6 40 -12 6z"/>
<path d="M253 2933 c-14 -5 -18 -23 -5 -23 5 0 17 7 28 15 14 11 15 14 4 14
-8 0 -21 -3 -27 -6z"/>
<path d="M1898 2853 c7 -3 16 -2 19 1 4 3 -2 6 -13 5 -11 0 -14 -3 -6 -6z"/>
<path d="M2106 2845 c-7 -19 -145 -22 -164 -3 -9 9 -12 9 -12 1 0 -8 -22 -10
-72 -7 -40 3 -77 6 -83 6 -5 -1 -116 -5 -245 -11 -129 -6 -282 -11 -340 -11
-58 1 -123 0 -145 0 -22 -1 -60 0 -85 1 -25 1 -64 -1 -88 -5 -34 -6 -42 -5
-42 8 0 10 -7 13 -23 9 -26 -6 -75 -5 -99 3 -9 2 -19 0 -23 -6 -3 -5 -39 -10
-80 -10 -41 0 -77 -4 -80 -10 -3 -5 0 -11 7 -11 7 -1 -14 -5 -47 -9 -81 -9
-374 -3 -389 8 -6 5 -20 12 -30 16 -17 6 -17 5 -5 -10 8 -10 13 -25 11 -36 -4
-22 -6 -22 49 -3 31 11 53 13 70 7 21 -8 18 -10 -28 -17 -29 -4 -55 -10 -58
-15 -7 -11 22 -33 35 -25 17 10 70 -5 70 -21 0 -21 16 -17 32 8 11 16 26 22
59 23 24 1 54 5 67 9 16 5 24 3 29 -10 4 -11 2 -19 -6 -22 -9 -3 -8 -11 5 -29
9 -14 12 -23 7 -20 -5 3 -10 -4 -10 -16 -1 -12 1 -17 5 -11 4 6 19 14 34 18
28 6 90 56 70 56 -6 0 -17 -6 -24 -13 -7 -7 -23 -16 -35 -19 -19 -5 -21 -3
-14 10 5 10 7 27 5 39 -4 23 13 29 84 32 33 1 34 1 30 -36 l-3 -38 40 1 c22 1
50 4 62 7 41 10 23 -7 -38 -38 -55 -27 -60 -32 -54 -55 11 -43 8 -73 -11 -87
-22 -16 -35 -17 -31 0 1 7 -10 13 -25 15 -16 2 -28 -2 -28 -8 0 -16 -108 -63
-131 -57 -10 3 -19 1 -19 -4 0 -5 -9 -9 -20 -9 -10 0 -24 -8 -29 -17 -6 -10
-11 -13 -11 -8 0 7 -3 7 -8 0 -4 -5 -22 -19 -41 -29 -30 -17 -34 -17 -28 -3 8
22 -16 23 -33 2 -7 -8 -19 -15 -26 -15 -8 0 -19 -12 -25 -27 -8 -22 -12 -24
-19 -13 -8 12 -10 12 -16 -3 -3 -9 -4 -24 -1 -31 8 -20 46 -9 134 38 37 20 74
36 82 36 22 0 189 49 265 78 37 14 82 25 98 24 39 -3 70 7 62 19 -3 5 12 16
33 25 21 8 48 20 60 26 13 6 37 12 55 13 18 1 50 9 72 18 21 9 42 17 46 17 4
0 27 9 51 20 24 11 59 20 77 20 18 0 72 19 120 43 48 23 113 51 144 62 31 10
55 22 53 26 -3 3 14 14 38 23 51 19 104 10 99 -18 -3 -18 6 -16 36 7 8 6 52
11 98 12 66 1 83 -2 80 -12 -3 -7 1 -13 9 -13 8 0 15 6 15 13 0 15 196 15 252
-1 23 -6 40 -7 44 -1 3 5 12 9 21 9 12 0 13 -3 4 -14 -10 -12 -7 -15 16 -18
36 -4 83 13 83 29 0 7 4 13 9 13 9 0 25 -145 17 -158 -2 -4 -7 -127 -11 -272
-5 -236 -25 -685 -40 -905 -3 -44 -8 -141 -11 -215 -3 -74 -10 -139 -14 -144
-5 -5 -6 -22 -3 -38 3 -16 1 -39 -5 -51 -6 -12 -12 -31 -14 -42 -2 -15 -13
-21 -43 -25 -32 -4 -40 -9 -40 -25 0 -11 -3 -19 -8 -17 -4 1 -14 2 -22 2 -13
0 -15 13 -14 75 3 80 9 89 57 80 15 -3 21 -2 14 1 -6 3 -9 10 -6 16 4 6 -7 8
-27 6 l-34 -3 3 120 c2 66 8 123 14 126 7 4 7 9 0 13 -6 4 -9 12 -7 19 4 14
19 262 19 320 0 20 4 37 8 37 4 0 8 -7 8 -16 0 -10 6 -14 14 -11 8 3 17 1 20
-6 2 -7 5 -2 5 10 1 34 21 38 21 4 0 -33 -19 -81 -32 -81 -4 0 -8 9 -8 21 0
12 -5 19 -12 17 -7 -3 -12 -8 -10 -11 1 -4 2 -14 2 -22 0 -25 67 -20 81 6 11
22 2 150 -10 131 -8 -14 -60 -34 -71 -27 -5 3 -7 62 -5 131 3 101 7 130 21
145 9 11 12 19 6 19 -6 0 -12 -6 -15 -12 -5 -18 -21 263 -18 339 1 29 5 33 44
42 l42 10 -46 -5 -46 -5 3 63 c15 230 11 318 -13 295 -3 -3 -7 -84 -8 -179 -7
-337 -16 -654 -21 -706 -3 -36 -1 -51 6 -47 6 4 8 -3 6 -17 -3 -13 -5 -41 -6
-63 -2 -35 -3 -37 -10 -15 -6 18 -8 5 -9 -45 -1 -38 -8 -128 -16 -198 -8 -70
-15 -203 -15 -295 -1 -92 -7 -250 -14 -352 -7 -102 -12 -203 -10 -225 1 -22
-4 -85 -11 -140 -7 -55 -13 -164 -14 -242 0 -135 1 -143 20 -143 14 0 19 7 21
28 0 15 2 32 3 37 1 6 5 45 9 87 5 43 12 78 17 78 5 0 9 5 9 11 0 5 -5 7 -12
3 -11 -7 -11 -2 7 196 2 25 5 82 5 128 1 58 5 82 13 79 13 -4 16 -74 5 -154
-6 -44 -4 -53 9 -53 12 0 14 9 11 40 -2 22 0 40 4 40 12 0 10 -78 -2 -85 -5
-3 -10 -11 -10 -16 0 -6 4 -8 9 -5 4 3 6 -6 3 -21 -3 -18 -1 -24 7 -19 6 4 11
18 11 31 0 13 6 25 13 28 9 3 9 7 -1 20 -11 13 -11 20 3 41 20 30 30 35 16 7
-6 -10 -7 -21 -4 -25 3 -3 1 -6 -6 -6 -7 0 -10 -4 -6 -10 3 -5 12 -7 20 -4 8
4 12 10 9 15 -3 5 0 17 5 26 21 36 12 -26 -10 -68 -11 -23 -18 -47 -15 -54 5
-15 -17 -39 -27 -29 -3 3 -3 -3 0 -15 11 -42 34 -20 36 34 0 19 5 32 9 29 11
-7 10 -138 -2 -150 -5 -5 -11 -25 -12 -44 -2 -19 -7 -38 -12 -41 -11 -9 3 -31
15 -24 21 14 6 -32 -16 -48 -24 -17 -25 -17 -25 1 0 10 5 23 12 30 8 8 8 12 1
12 -15 0 -34 -25 -25 -35 4 -5 2 -6 -3 -3 -15 9 -49 -67 -41 -89 6 -14 9 -15
15 -4 11 17 51 5 51 -15 0 -8 9 -14 21 -14 14 0 19 5 16 13 -3 8 -1 20 4 28 8
12 11 11 21 -6 11 -19 11 -19 18 0 4 11 4 29 0 40 -5 13 -3 25 6 33 8 7 14 32
14 57 0 42 14 68 23 43 9 -25 17 0 23 68 3 38 8 72 10 75 2 4 -4 21 -12 39
-10 20 -13 35 -7 39 6 3 11 40 12 81 2 95 11 182 21 195 8 11 30 180 27 205
-2 15 15 329 19 343 1 4 2 9 3 12 4 10 3 116 -1 120 -8 8 13 180 22 183 16 6
11 39 -5 46 -10 3 -18 -1 -21 -12 -3 -9 -10 -26 -15 -37 -7 -15 -8 -16 -4 -2
3 10 5 32 5 48 0 21 4 27 15 23 18 -7 17 -10 20 96 1 47 6 172 10 278 5 133 4
192 -3 192 -11 0 -18 -25 -27 -105 -5 -39 -4 -47 5 -35 9 12 10 10 4 -10 -9
-31 -10 -51 -12 -230 -2 -107 -5 -140 -13 -127 -7 12 -8 95 -4 255 4 130 8
299 9 375 0 75 5 137 9 137 12 0 37 27 37 39 0 6 -9 20 -20 31 -16 16 -20 33
-20 94 0 41 5 78 10 81 6 3 10 -5 10 -19 0 -14 5 -28 10 -31 6 -4 10 9 10 33
0 36 -2 39 -25 34 -15 -2 -25 0 -25 7 0 6 7 11 15 11 8 0 23 4 33 9 9 5 26 13
37 17 16 7 12 9 -20 12 -22 2 -43 9 -47 15 -6 9 -10 9 -15 1 -13 -17 -72 -25
-96 -12 l-22 12 25 7 c24 7 23 7 -6 8 -20 1 -34 -5 -38 -14z m-1316 -40 c0
-12 -17 -15 -92 -15 -107 0 -115 8 -11 11 39 1 78 6 85 10 17 12 18 11 18 -6z
m580 -24 c0 -10 -34 -23 -150 -60 -154 -49 -194 -61 -209 -61 -9 0 -27 -7 -39
-16 -27 -19 -66 -15 -70 8 -4 21 36 48 77 51 56 4 32 37 -27 37 -57 0 -53 17
5 23 32 3 62 2 67 -3 14 -14 26 -12 26 5 0 12 21 14 121 14 66 0 123 2 127 5
9 10 72 7 72 -3z m790 -11 c0 -5 -7 -7 -15 -4 -8 4 -15 8 -15 10 0 2 7 4 15 4
8 0 15 -4 15 -10z m-1300 -40 c0 -17 7 -44 15 -60 8 -16 12 -35 9 -43 -5 -14
-84 -51 -84 -40 0 6 30 140 36 161 7 24 24 11 24 -18z m-190 9 c0 -5 5 -7 10
-4 17 11 11 -7 -7 -21 -27 -20 -83 -18 -83 4 0 14 2 14 9 3 7 -11 12 -10 22 8
14 22 49 29 49 10z m61 -1 c0 -10 2 -10 6 0 5 12 43 17 43 6 0 -4 -8 -13 -17
-20 -15 -11 -16 -15 -4 -23 11 -7 13 -23 8 -66 -7 -68 -19 -85 -42 -61 -9 9
-20 15 -23 13 -46 -21 -61 -32 -51 -37 6 -5 3 -9 -9 -12 -16 -4 -19 -2 -15 10
5 11 1 14 -13 10 -14 -4 -20 0 -21 13 -1 14 10 18 58 24 68 8 72 23 4 20 -25
0 -45 1 -45 4 0 4 23 19 51 35 46 25 50 31 46 56 -4 15 -3 30 0 34 10 10 23 7
24 -6z m1476 -1620 c-3 -8 -6 -5 -6 6 -1 11 2 17 5 13 3 -3 4 -12 1 -19z m-79
-217 c2 -12 0 -30 -4 -39 -7 -16 -9 -26 -12 -64 -1 -10 -9 -18 -18 -18 -12 0
-14 4 -7 13 15 19 24 75 13 82 -6 4 -7 11 -4 17 4 6 -1 8 -12 6 -15 -2 -18
-11 -16 -43 1 -22 -2 -47 -8 -55 -8 -11 -10 2 -8 50 3 60 5 65 28 71 36 9 45
5 48 -20z m54 -56 c0 -69 -12 -87 -13 -22 -1 26 -2 53 -3 60 -1 6 0 16 2 20 9
18 15 -5 14 -58z m-166 -59 c-3 -14 -10 -26 -14 -26 -9 0 -13 71 -4 84 10 17
25 -31 18 -58z m29 -86 c-3 -5 -2 -10 3 -10 5 0 9 -7 9 -15 0 -8 -4 -12 -9 -9
-7 4 -13 -26 -9 -48 0 -5 -4 -8 -10 -8 -8 0 -10 13 -5 38 3 20 6 43 6 50 0 6
5 12 11 12 5 0 7 -4 4 -10z m68 -17 c-7 -2 -19 -2 -25 0 -7 3 -2 5 12 5 14 0
19 -2 13 -5z m-3 -38 c0 -16 -6 -25 -16 -25 -11 0 -14 5 -10 16 3 9 6 20 6 25
0 5 5 9 10 9 6 0 10 -11 10 -25z m70 -265 c0 -5 -4 -10 -10 -10 -5 0 -10 5
-10 10 0 6 5 10 10 10 6 0 10 -4 10 -10z m-104 -247 c-4 -9 -9 -13 -13 -10 -3
3 -18 0 -34 -8 -18 -10 -30 -11 -34 -5 -4 6 11 18 34 27 23 9 41 21 42 27 0 6
3 5 6 -2 3 -7 2 -20 -1 -29z"/>
<path d="M384 2812 c3 -5 26 -10 51 -10 29 -2 44 2 40 8 -3 5 -26 10 -51 10
-25 0 -43 -4 -40 -8z"/>
<path d="M1617 2740 c-24 -28 -21 -31 13 -14 31 16 40 34 17 34 -7 0 -20 -9
-30 -20z"/>
<path d="M2440 2750 c0 -5 5 -10 10 -10 6 0 10 5 10 10 0 6 -4 10 -10 10 -5 0
-10 -4 -10 -10z"/>
<path d="M316 2693 c-8 -20 1 -30 35 -38 16 -4 30 -2 34 5 4 7 -2 14 -15 17
-13 3 -19 11 -16 19 3 9 -2 14 -13 14 -10 0 -22 -8 -25 -17z"/>
<path d="M130 2690 c0 -5 4 -10 9 -10 4 0 19 -11 33 -25 l24 -24 -4 29 c-3 18
-11 30 -26 34 -30 8 -36 7 -36 -4z"/>
<path d="M1843 2676 c4 -10 2 -25 -4 -32 -8 -10 -8 -14 0 -14 13 0 14 -53 2
-97 -7 -24 -6 -33 4 -37 10 -4 11 -14 4 -48 -12 -51 -20 -61 -43 -52 -14 5
-15 9 -5 15 23 14 3 20 -27 9 -26 -10 -27 -13 -11 -21 12 -7 16 -17 11 -37 -4
-21 -3 -24 5 -12 10 13 11 13 11 0 1 -9 5 -6 10 8 5 12 15 22 21 22 7 0 18 8
25 18 12 15 13 14 14 -16 0 -29 -3 -33 -21 -27 -14 5 -25 1 -34 -12 -20 -25
-18 -33 5 -33 14 0 20 -7 20 -24 0 -13 6 -28 13 -34 9 -8 14 -49 16 -144 2
-107 0 -131 -10 -120 -7 6 -21 12 -32 12 -15 0 -17 -6 -14 -32 3 -25 8 -32 22
-30 16 3 17 -2 11 -50 -4 -29 -7 -76 -8 -103 0 -43 -4 -52 -25 -62 -36 -17
-90 10 -60 29 8 5 7 8 -5 8 -19 0 -42 -35 -34 -53 2 -7 5 -4 5 6 1 9 4 17 9
17 4 0 5 -36 3 -81 -3 -85 5 -107 36 -94 17 7 17 8 -1 14 -17 7 -19 16 -17 67
3 68 7 76 26 51 9 -13 20 -17 34 -12 18 6 21 2 21 -27 0 -44 -15 -68 -23 -38
-4 14 -10 19 -18 14 -9 -5 -10 -2 -6 9 3 9 2 19 -3 22 -6 4 -10 -5 -10 -18 0
-26 33 -71 44 -60 3 3 6 -12 6 -35 0 -22 -5 -44 -10 -47 -8 -5 -7 -12 1 -22
10 -12 10 -16 -2 -24 -8 -5 -17 -9 -21 -9 -5 0 -8 -4 -8 -10 0 -5 7 -7 15 -4
9 4 15 0 16 -7 1 -20 -3 -150 -6 -179 -1 -14 -3 -33 -4 -42 -1 -11 -6 -15 -16
-12 -8 4 -21 1 -29 -5 -8 -7 -20 -10 -27 -9 -7 2 -15 -10 -19 -27 -4 -16 -11
-38 -15 -48 -4 -10 -3 -17 3 -17 6 0 16 16 23 35 7 19 19 37 26 39 19 8 16
-18 -7 -47 -22 -28 -25 -37 -11 -37 5 0 14 14 21 30 16 39 46 57 46 29 0 -11
-5 -18 -12 -15 -7 3 -15 -2 -18 -11 -9 -23 1 -28 20 -12 16 13 17 12 10 -11
-3 -14 -9 -73 -13 -133 -4 -79 -9 -107 -19 -107 -12 0 -16 -11 -29 -73 -2 -9
1 -15 6 -11 5 3 9 14 9 24 0 23 10 50 19 50 6 0 4 -137 -3 -225 -3 -27 -8 -87
-12 -131 -3 -45 -10 -87 -14 -94 -8 -13 -4 91 5 120 5 15 -10 48 -18 40 -2 -3
-7 -61 -9 -130 -3 -69 -2 -108 1 -88 4 26 10 35 18 30 9 -6 10 -25 3 -77 -5
-39 -11 -86 -14 -105 -2 -19 -5 -39 -7 -45 -4 -11 8 -14 32 -8 13 4 19 26 28
90 6 47 8 90 5 94 -3 5 -1 51 5 102 19 169 31 291 36 368 2 42 6 87 9 100 3
13 8 69 10 124 3 55 8 138 12 185 3 47 7 119 9 160 2 41 8 109 13 150 5 41 10
157 11 258 1 100 5 193 10 205 7 20 7 161 1 457 -1 73 -6 118 -13 123 -9 5 -7
10 5 17 14 9 15 16 7 37 -5 15 -8 32 -5 40 3 7 1 13 -4 13 -6 0 -10 6 -10 14
0 7 -8 20 -17 27 -15 12 -16 12 -10 -5z"/>
<path d="M1640 2658 c0 -4 7 -8 15 -8 8 0 15 4 15 8 0 5 -7 9 -15 9 -8 0 -15
-4 -15 -9z"/>
<path d="M2270 2638 l0 -33 14 25 c13 26 12 40 -5 40 -5 0 -9 -15 -9 -32z"/>
<path d="M2150 2638 c0 -19 2 -20 10 -8 13 19 13 30 0 30 -5 0 -10 -10 -10
-22z"/>
<path d="M1376 2615 c-43 -18 -81 -37 -85 -42 -3 -5 -33 -19 -66 -32 -33 -12
-73 -29 -90 -36 -16 -8 -43 -17 -60 -20 -30 -6 -75 -24 -207 -84 -38 -16 -68
-25 -68 -20 0 6 -9 8 -19 4 -10 -3 -32 -8 -47 -10 -16 -2 -65 -18 -109 -34
-44 -17 -115 -41 -158 -53 -43 -13 -77 -28 -77 -35 0 -7 -8 -13 -17 -13 -16 0
-16 2 -3 11 12 8 11 9 -5 6 -11 -3 -33 -8 -48 -11 -15 -4 -25 -11 -22 -16 3
-6 0 -10 -7 -10 -7 0 -26 -7 -43 -16 -19 -10 -31 -11 -33 -5 -4 13 -63 -15
-75 -35 -4 -8 -16 -14 -25 -14 -15 0 -15 2 -2 11 12 9 12 10 -3 5 -11 -3 -30
-9 -44 -12 -22 -6 -23 -8 -9 -16 9 -5 16 -15 16 -22 0 -8 6 -16 14 -19 10 -4
12 0 9 14 -8 29 11 23 40 -13 15 -17 30 -29 33 -25 4 3 -1 13 -10 22 -22 22
-20 35 4 35 11 0 23 7 26 15 4 8 11 15 17 15 5 0 2 -9 -8 -20 -17 -19 -17 -20
10 -42 49 -39 85 -49 85 -23 0 8 7 15 15 15 8 0 15 5 15 10 0 6 -11 10 -25 10
-14 0 -25 -4 -25 -10 0 -5 -4 -10 -10 -10 -5 0 -10 5 -10 10 0 35 131 101 233
119 37 6 78 16 91 21 17 6 29 5 42 -5 25 -19 45 -19 38 -1 -4 11 0 13 15 9 23
-6 28 6 10 24 -9 9 -5 14 17 19 16 4 34 11 40 15 6 5 55 25 110 44 54 20 113
42 129 50 26 12 30 12 33 0 5 -22 20 -18 24 7 2 16 18 27 60 42 31 12 60 25
64 29 11 11 36 8 29 -3 -9 -15 16 -12 34 4 18 15 97 42 156 52 22 4 49 13 60
19 21 13 78 24 155 30 l45 4 -30 -14 c-53 -25 -2 -15 70 13 54 21 70 32 70 47
0 26 -34 27 -99 2 -44 -16 -50 -17 -58 -3 -12 21 -54 21 -62 0 -3 -9 -12 -14
-20 -11 -7 3 -27 -3 -44 -13 -23 -14 -32 -16 -35 -6 -6 16 2 29 28 44 37 21 1
10 -79 -23z m-1181 -435 c-3 -5 -11 -10 -16 -10 -6 0 -7 5 -4 10 3 6 11 10 16
10 6 0 7 -4 4 -10z"/>
<path d="M1770 2630 c-13 -9 -7 -14 13 -11 11 2 8 -24 -4 -36 -7 -7 -8 -17 -2
-27 8 -14 12 -12 31 14 19 25 20 31 8 36 -8 3 -12 12 -9 20 6 16 -15 18 -37 4z"/>
<path d="M510 2619 c0 -5 5 -7 10 -4 6 3 10 8 10 11 0 2 -4 4 -10 4 -5 0 -10
-5 -10 -11z"/>
<path d="M478 2603 c7 -3 16 -2 19 1 4 3 -2 6 -13 5 -11 0 -14 -3 -6 -6z"/>
<path d="M2457 2597 c-3 -8 -1 -20 5 -28 8 -11 9 -11 5 3 -3 9 -1 18 6 21 8 2
8 5 0 10 -6 4 -13 1 -16 -6z"/>
<path d="M431 2586 c-8 -9 -23 -16 -35 -16 -12 0 -26 -10 -32 -24 -9 -20 -9
-23 2 -19 9 3 14 -2 14 -16 0 -31 17 -26 23 7 4 20 12 28 26 28 12 0 21 -5 21
-11 0 -5 5 -3 11 5 8 11 12 12 16 3 8 -21 27 -15 40 13 12 26 12 26 -22 21
-25 -4 -37 -1 -43 9 -8 14 -10 13 -21 0z"/>
<path d="M190 2564 c-6 -14 -10 -45 -10 -70 0 -38 3 -44 21 -44 16 0 19 3 12
13 -15 18 -23 57 -12 57 5 0 9 7 9 15 0 21 30 31 41 14 7 -11 9 -11 9 3 0 19
-10 27 -40 33 -15 3 -24 -3 -30 -21z"/>
<path d="M275 2538 c-4 -29 -14 -61 -23 -70 -28 -33 17 -21 57 14 20 18 28 29
19 25 -14 -5 -17 1 -20 35 -4 61 -25 59 -33 -4z"/>
<path d="M1727 2574 c-4 -4 -7 -15 -7 -24 0 -20 56 -55 65 -40 3 5 -1 10 -9
10 -9 0 -22 14 -29 31 -6 17 -15 27 -20 23z"/>
<path d="M50 2528 c0 -12 5 -30 10 -38 9 -13 11 -13 19 -1 11 16 0 53 -17 59
-7 2 -12 -6 -12 -20z"/>
<path d="M417 2524 c-13 -13 -7 -24 14 -24 11 0 19 5 17 12 -5 14 -22 21 -31
12z"/>
<path d="M3050 2472 c0 -5 7 -9 15 -9 8 0 12 4 9 9 -3 4 -9 8 -15 8 -5 0 -9
-4 -9 -8z"/>
<path d="M2265 2369 c-7 -101 -5 -116 14 -104 13 8 15 191 2 199 -5 3 -12 -39
-16 -95z"/>
<path d="M66 2424 c-4 -10 -2 -22 4 -28 7 -7 10 -6 10 3 0 7 5 9 10 6 15 -9
12 11 -4 24 -11 9 -15 8 -20 -5z"/>
<path d="M1720 2420 c-6 -11 -8 -31 -4 -43 4 -12 7 -34 6 -49 0 -20 3 -25 15
-21 12 5 14 18 10 65 -5 68 -11 78 -27 48z"/>
<path d="M0 2416 c0 -9 5 -16 10 -16 6 0 10 4 10 9 0 6 -4 13 -10 16 -5 3 -10
-1 -10 -9z"/>
<path d="M1136 2419 c-11 -36 -13 -59 -6 -59 10 0 24 59 16 67 -3 3 -7 0 -10
-8z"/>
<path d="M1227 2393 c-4 -3 -7 -16 -6 -27 0 -12 3 -15 6 -8 2 6 9 10 14 6 5
-3 9 4 9 15 0 21 -11 27 -23 14z"/>
<path d="M1330 2385 c0 -8 2 -15 4 -15 2 0 6 7 10 15 3 8 1 15 -4 15 -6 0 -10
-7 -10 -15z"/>
<path d="M2140 2380 c-1 -14 -3 -55 -4 -93 -3 -60 4 -85 10 -39 11 76 12 129
4 142 -8 12 -10 10 -10 -10z"/>
<path d="M555 2380 c3 -5 8 -10 11 -10 2 0 4 5 4 10 0 6 -5 10 -11 10 -5 0 -7
-4 -4 -10z"/>
<path d="M1367 2383 c-8 -15 8 -88 20 -90 7 -2 10 4 6 12 -3 9 3 25 13 37 19
21 19 21 -3 10 -18 -10 -20 -9 -16 7 5 19 -12 38 -20 24z"/>
<path d="M1448 2374 c-8 -8 3 -44 13 -44 5 0 9 11 9 25 0 24 -10 32 -22 19z"/>
<path d="M1480 2361 c0 -5 5 -13 10 -16 6 -3 10 -2 10 4 0 5 -4 13 -10 16 -5
3 -10 2 -10 -4z"/>
<path d="M1010 2344 c0 -8 5 -12 10 -9 6 3 10 10 10 16 0 5 -4 9 -10 9 -5 0
-10 -7 -10 -16z"/>
<path d="M1332 2340 c0 -14 2 -19 5 -12 2 6 2 18 0 25 -3 6 -5 1 -5 -13z"/>
<path d="M940 2335 c-16 -20 -5 -45 20 -45 23 0 27 15 5 24 -8 3 -12 12 -9 21
8 19 0 19 -16 0z"/>
<path d="M1126 2318 c-9 -27 -16 -73 -18 -110 0 -16 -5 -25 -11 -21 -6 3 -7 1
-3 -6 4 -6 12 -9 17 -6 5 4 9 -11 9 -32 0 -25 3 -33 9 -24 5 7 6 41 4 76 -4
40 -2 65 6 69 13 8 14 45 2 64 -6 10 -10 8 -15 -10z"/>
<path d="M1206 2324 c-4 -9 -4 -19 -2 -21 8 -8 26 8 26 23 0 19 -16 18 -24 -2z"/>
<path d="M1480 2321 c0 -5 -3 -16 -6 -25 -4 -11 -1 -16 10 -16 10 0 16 9 16
25 0 14 -4 25 -10 25 -5 0 -10 -4 -10 -9z"/>
<path d="M2060 2321 c0 -5 7 -11 15 -15 9 -3 15 0 15 9 0 8 -7 15 -15 15 -8 0
-15 -4 -15 -9z"/>
<path d="M2100 2311 c0 -11 5 -23 10 -26 6 -4 10 5 10 19 0 14 -4 26 -10 26
-5 0 -10 -9 -10 -19z"/>
<path d="M1060 2291 c0 -16 -6 -31 -12 -34 -10 -4 -10 -7 0 -18 6 -7 12 -9 12
-3 0 5 4 26 9 47 5 21 5 37 0 37 -5 0 -9 -13 -9 -29z"/>
<path d="M995 2300 c-3 -5 -1 -10 4 -10 6 0 11 5 11 10 0 6 -2 10 -4 10 -3 0
-8 -4 -11 -10z"/>
<path d="M1330 2284 c0 -14 4 -23 10 -19 6 3 10 15 10 26 0 10 -4 19 -10 19
-5 0 -10 -12 -10 -26z"/>
<path d="M1190 2275 c-8 -9 -8 -15 -2 -15 12 0 26 19 19 26 -2 2 -10 -2 -17
-11z"/>
<path d="M1400 2280 c-11 -8 -7 -9 15 -4 37 8 45 14 19 14 -10 0 -26 -5 -34
-10z"/>
<path d="M800 2269 c0 -5 5 -7 10 -4 6 3 10 8 10 11 0 2 -4 4 -10 4 -5 0 -10
-5 -10 -11z"/>
<path d="M62 2249 c2 -13 9 -23 16 -21 6 1 12 -5 12 -14 0 -8 5 -12 10 -9 5 3
10 13 10 22 0 11 -6 14 -21 10 -15 -4 -19 -2 -15 8 3 8 0 17 -5 21 -7 4 -9 -3
-7 -17z"/>
<path d="M780 2251 c0 -6 5 -13 10 -16 6 -3 10 -30 11 -58 1 -29 4 -63 9 -77
5 -16 7 6 7 60 -1 77 -7 99 -29 100 -5 0 -8 -4 -8 -9z"/>
<path d="M972 2218 c-17 -17 -15 -37 8 -56 18 -16 19 -18 2 -52 -10 -19 -30
-64 -46 -100 -16 -36 -40 -82 -52 -102 -13 -20 -26 -48 -29 -61 -4 -14 -15
-34 -25 -45 -23 -24 -60 -96 -60 -117 0 -8 -5 -15 -11 -15 -7 0 -9 9 -5 23 3
12 6 44 6 70 0 30 4 46 10 42 6 -4 10 5 10 19 0 16 6 26 15 26 8 0 15 9 15 20
0 11 -4 20 -10 20 -5 0 -10 5 -10 11 0 6 7 8 16 5 13 -5 15 3 13 47 -1 28 1
59 5 68 4 10 0 21 -10 30 -16 12 -17 12 -11 -4 3 -9 4 -30 1 -45 -5 -25 -10
-28 -35 -24 -16 2 -29 8 -29 13 0 14 -28 11 -37 -3 -4 -7 -16 -19 -25 -26 -15
-12 -21 -11 -45 8 -17 13 -35 19 -49 16 -16 -4 -24 -1 -27 11 -3 12 -5 10 -6
-7 -1 -16 -4 -21 -9 -13 -6 9 -17 10 -45 2 -21 -5 -42 -7 -47 -4 -6 4 -27 -3
-47 -15 -35 -20 -37 -20 -104 -4 -66 16 -70 16 -89 -1 -14 -13 -23 -15 -32 -7
-7 5 -30 15 -50 20 -30 8 -38 8 -38 -3 0 -8 4 -16 9 -19 5 -3 7 -15 4 -26 -4
-15 0 -20 15 -20 27 0 37 -17 22 -35 -7 -8 -9 -27 -6 -42 3 -15 2 -35 -4 -43
-8 -12 -10 -11 -10 8 0 12 -4 22 -10 22 -5 0 -10 -6 -10 -14 0 -26 -20 -28
-29 -4 -10 23 -10 23 -10 1 -1 -12 3 -24 9 -28 5 -3 7 -12 3 -20 -7 -19 -2
-19 33 0 17 9 30 11 32 5 2 -6 8 -8 13 -5 14 9 21 -39 9 -69 -7 -19 -15 -26
-25 -22 -20 7 -19 -11 1 -22 9 -5 24 -41 34 -83 16 -66 19 -69 19 -34 1 22 6
47 11 55 12 17 2 -256 -9 -277 -4 -7 -5 18 -3 55 2 37 2 79 0 92 -3 24 -4 24
-20 -9 -10 -18 -15 -39 -11 -45 4 -6 6 -66 5 -133 -1 -77 2 -124 9 -129 17
-10 23 4 9 21 -10 12 -9 16 4 21 9 3 16 11 16 18 0 6 12 25 26 41 l25 30 -6
-28 c-5 -23 -2 -30 14 -34 18 -4 31 -30 31 -60 0 -7 -9 -13 -20 -13 -13 0 -20
-7 -20 -19 0 -14 5 -18 20 -14 16 4 20 1 18 -18 -2 -16 2 -23 10 -21 10 2 12
-4 7 -20 -5 -18 -4 -20 4 -8 6 8 11 25 11 36 0 13 8 24 20 27 12 3 19 12 18
24 -2 10 2 18 7 18 6 0 9 -4 7 -8 -1 -5 3 -7 9 -5 7 2 14 14 16 27 2 18 -1 21
-16 16 -17 -5 -18 -1 -14 47 3 40 0 56 -12 64 -14 11 -15 29 -5 165 12 167 15
183 30 174 5 -3 10 -2 10 4 0 5 -5 13 -10 16 -24 15 10 30 59 27 46 -4 51 -6
51 -28 0 -13 5 -24 10 -24 6 0 10 -29 10 -66 0 -55 -2 -65 -15 -60 -20 7 -31
-20 -16 -38 8 -10 9 -16 1 -21 -5 -3 -10 -11 -10 -16 0 -6 5 -7 10 -4 6 3 10
-1 10 -9 0 -9 -4 -16 -10 -16 -6 0 -6 -9 0 -24 5 -15 5 -37 0 -57 -6 -18 -6
-35 -1 -38 10 -7 21 -61 11 -61 -4 0 -7 -7 -7 -15 0 -20 7 -19 33 6 14 13 24
17 29 10 3 -6 1 -11 -6 -11 -8 0 -8 -4 1 -15 7 -8 23 -15 36 -15 30 0 50 -41
34 -70 -7 -13 -6 -20 3 -24 9 -5 9 -7 0 -12 -14 -6 -18 -40 -5 -48 16 -10 35
13 36 43 1 35 26 53 26 19 0 -20 1 -21 20 -3 11 10 20 31 20 46 0 39 16 45 24
8 3 -17 10 -28 16 -24 6 4 8 11 5 16 -4 5 1 9 10 9 21 0 16 44 -5 46 -8 1 -23
2 -32 3 -26 2 -22 20 7 31 20 8 25 16 25 43 0 32 44 126 82 176 21 28 23 42 5
35 -7 -2 -19 -21 -26 -40 -7 -19 -19 -38 -27 -41 -8 -3 -14 -11 -14 -18 0 -6
-9 -20 -20 -30 -20 -18 -20 -17 -20 78 0 80 3 98 17 106 15 8 15 13 5 36 -20
44 -5 106 39 165 21 29 39 58 39 66 0 8 5 14 11 14 5 0 7 5 4 10 -3 6 0 17 7
25 31 34 38 45 38 57 0 8 8 25 17 38 10 14 18 29 19 35 2 13 48 109 74 155 30
52 22 125 -11 105 -9 -6 -11 -3 -6 8 7 20 -4 22 -21 5z m-377 -268 c-3 -5 -10
-10 -16 -10 -5 0 -9 5 -9 10 0 6 7 10 16 10 8 0 12 -4 9 -10z m205 -9 c0 -18
-31 -41 -55 -41 -38 0 -39 19 -3 35 39 17 58 19 58 6z m-505 -21 c18 -8 17 -9
-7 -9 -15 -1 -30 4 -33 9 -7 12 12 12 40 0z m165 1 c0 -12 -35 -20 -51 -11 -8
6 -3 10 17 13 16 2 30 5 32 6 1 0 2 -3 2 -8z m35 -1 c3 -5 1 -10 -4 -10 -6 0
-11 5 -11 10 0 6 2 10 4 10 3 0 8 -4 11 -10z m132 4 c-3 -3 -22 -6 -42 -6 -20
0 -39 3 -42 6 -4 3 15 6 42 6 27 0 46 -3 42 -6z m-319 -39 c9 -7 -12 -33 -24
-28 -8 3 -18 -4 -24 -18 -27 -59 -49 -93 -50 -76 0 9 -5 17 -10 17 -7 0 -7 7
0 21 7 11 9 32 5 46 -5 21 -3 24 11 19 13 -5 14 -4 6 7 -7 8 -9 16 -6 19 5 5
84 -1 92 -7z m358 -12 c-7 -7 -26 7 -26 19 0 6 6 6 15 -2 9 -7 13 -15 11 -17z
m112 -7 c3 -13 0 -17 -11 -13 -8 3 -14 0 -13 -6 0 -7 -3 -12 -9 -12 -5 0 -10
8 -9 17 0 9 -3 15 -8 12 -4 -3 -8 -1 -8 4 0 29 53 27 58 -2z m-412 2 c4 -7 4
-10 -1 -6 -4 4 -14 3 -22 -3 -10 -9 -13 -8 -13 5 0 19 26 22 36 4z m44 -14 c0
-14 -4 -23 -9 -20 -5 3 -7 15 -4 26 7 28 13 25 13 -6z m50 22 c0 -2 -3 -11 -6
-20 -9 -23 -24 -20 -24 4 0 11 7 20 15 20 8 0 15 -2 15 -4z m100 -22 c0 -8 -4
-12 -10 -9 -5 3 -10 10 -10 16 0 5 5 9 10 9 6 0 10 -7 10 -16z m37 -46 c-2
-13 -4 -5 -4 17 -1 22 1 32 4 23 2 -10 2 -28 0 -40z m104 -42 c5 -6 9 3 10 25
0 18 3 28 6 21 2 -6 8 -10 11 -8 4 2 5 -39 3 -91 -2 -72 -8 -104 -22 -127
l-19 -31 0 78 c0 43 -5 98 -11 122 -6 25 -8 53 -3 62 6 15 9 12 12 -12 2 -16
8 -34 13 -39z m-421 19 c0 -19 -4 -35 -10 -35 -11 0 -13 30 -4 54 10 25 14 19
14 -19z m30 5 c0 -5 -5 -10 -11 -10 -5 0 -7 5 -4 10 3 6 8 10 11 10 2 0 4 -4
4 -10z m227 -37 c-3 -10 -5 -2 -5 17 0 19 2 27 5 18 2 -10 2 -26 0 -35z m-124
17 c-3 -11 0 -20 6 -20 6 0 11 -16 11 -35 0 -28 -4 -35 -20 -35 -13 0 -20 7
-20 19 0 11 -6 22 -12 25 -10 3 -9 8 3 18 8 7 18 21 22 31 9 23 16 22 10 -3z
m222 -46 c-3 -19 -10 -32 -15 -29 -9 6 -5 53 7 85 10 25 16 -17 8 -56z m-155
-36 c0 -35 -32 -16 -35 20 -3 32 -2 32 16 16 11 -9 19 -26 19 -36z m-270 -45
c0 -29 -4 -53 -9 -53 -14 0 -22 30 -12 48 5 9 7 33 5 52 -3 25 -1 31 6 20 5
-8 10 -39 10 -67z m27 35 c-3 -8 -6 -5 -6 6 -1 11 2 17 5 13 3 -3 4 -12 1 -19z
m380 -30 c-3 -8 -6 -5 -6 6 -1 11 2 17 5 13 3 -3 4 -12 1 -19z m60 -20 c-3 -8
-6 -5 -6 6 -1 11 2 17 5 13 3 -3 4 -12 1 -19z m3 -22 c0 -3 -4 -8 -10 -11 -5
-3 -10 -1 -10 4 0 6 5 11 10 11 6 0 10 -2 10 -4z m50 -75 c0 -27 -25 -83 -33
-74 -17 16 -5 -37 13 -60 27 -35 28 -157 0 -157 -9 0 -20 37 -13 44 10 10 13
86 4 86 -5 0 -12 -8 -14 -17 -4 -14 -5 -12 -6 5 0 12 -5 22 -11 22 -13 0 -13
-83 0 -96 23 -23 -25 -92 -54 -81 -16 7 -11 39 12 75 8 13 10 22 4 22 -16 0
-8 74 11 101 10 13 17 31 17 40 0 9 7 19 15 23 8 3 15 15 15 26 0 26 17 60 30
60 6 0 10 -8 10 -19z m-167 -96 c13 82 17 96 26 90 5 -3 5 -21 0 -42 -5 -21
-9 -57 -9 -79 0 -24 -6 -47 -15 -54 -8 -7 -12 -16 -9 -21 3 -5 0 -8 -7 -7 -7
2 -15 -10 -19 -27 -7 -35 -19 -15 -15 25 2 14 6 61 9 105 10 118 20 133 26 40
l5 -80 8 50z m-293 -16 c0 -33 -3 -58 -7 -56 -8 5 -5 117 3 117 2 0 4 -27 4
-61z m320 -113 c0 -3 -5 -17 -10 -31 -6 -15 -7 -32 -3 -38 4 -7 8 -21 8 -32 0
-11 4 -26 8 -32 5 -8 3 -13 -5 -13 -7 0 -19 10 -27 21 -11 18 -11 23 1 30 9 6
7 9 -9 9 -28 0 -30 16 -3 30 12 6 20 21 20 35 0 14 5 25 10 25 6 0 10 -2 10
-4z m-253 -108 c-3 -8 -6 -5 -6 6 -1 11 2 17 5 13 3 -3 4 -12 1 -19z m333 -38
c0 -5 -7 -10 -15 -10 -8 0 -15 5 -15 10 0 6 7 10 15 10 8 0 15 -4 15 -10z"/>
<path d="M220 1840 c0 -5 5 -10 10 -10 6 0 10 5 10 10 0 6 -4 10 -10 10 -5 0
-10 -4 -10 -10z"/>
<path d="M2442 2185 c1 -40 18 -60 18 -21 0 13 3 31 6 40 4 10 1 16 -10 16
-11 0 -15 -9 -14 -35z"/>
<path d="M915 2199 c-11 -17 1 -21 15 -4 8 9 8 15 2 15 -6 0 -14 -5 -17 -11z"/>
<path d="M2065 2200 c3 -5 11 -10 16 -10 6 0 7 5 4 10 -3 6 -11 10 -16 10 -6
0 -7 -4 -4 -10z"/>
<path d="M691 2176 c-6 -16 -9 -44 -5 -62 5 -27 3 -34 -10 -34 -8 0 -18 11
-22 24 -3 14 -13 27 -22 31 -14 5 -14 7 -2 15 12 7 12 10 -3 16 -27 10 -30 0
-16 -56 l13 -51 43 4 c23 2 46 7 50 11 13 12 11 80 -2 106 l-13 25 -11 -29z"/>
<path d="M433 2182 c-10 -6 -10 -12 2 -28 19 -25 19 -44 0 -44 -8 0 -15 -4
-15 -10 0 -5 14 -10 30 -10 33 0 35 5 20 46 -7 19 -7 30 1 40 9 11 8 14 -7 14
-11 0 -25 -4 -31 -8z"/>
<path d="M518 2174 c-10 -9 4 -44 18 -44 20 0 27 19 14 35 -13 16 -23 19 -32
9z"/>
<path d="M1493 2119 c7 -48 6 -64 -5 -71 -10 -8 -10 -9 2 -5 17 4 25 54 15
104 -11 59 -22 35 -12 -28z"/>
<path d="M901 2154 c0 -11 3 -14 6 -6 3 7 2 16 -1 19 -3 4 -6 -2 -5 -13z"/>
<path d="M1384 2162 c-12 -7 -18 -45 -14 -92 l1 -25 10 24 c5 13 15 21 22 18
10 -4 14 6 15 39 0 43 -9 53 -34 36z"/>
<path d="M330 2153 c0 -7 -7 -10 -15 -7 -8 4 -15 1 -15 -6 0 -6 5 -8 11 -5 6
4 13 -3 16 -14 3 -12 10 -20 16 -18 17 5 18 21 2 42 -8 11 -15 15 -15 8z"/>
<path d="M1172 2130 c-12 -32 -11 -34 4 -19 9 9 14 25 12 35 -3 14 -7 10 -16
-16z"/>
<path d="M917 2120 c-21 -30 -21 -44 -2 -60 18 -15 34 -5 17 12 -8 8 -8 17 -1
30 16 30 5 44 -14 18z"/>
<path d="M1205 2109 c-12 -42 -67 -149 -76 -149 -5 0 -9 -7 -9 -15 0 -9 -9
-25 -20 -37 l-20 -22 0 30 c-1 28 -1 28 -16 9 -9 -12 -11 -21 -4 -23 16 -6 12
-46 -9 -93 -22 -49 -20 -60 7 -36 10 10 26 17 36 17 9 0 14 5 11 10 -4 6 -10
8 -15 5 -4 -3 -6 4 -3 16 3 11 11 18 19 15 16 -6 39 20 24 29 -5 3 -10 1 -10
-6 0 -7 -3 -9 -7 -6 -3 4 22 63 57 132 45 89 60 129 53 136 -8 8 -13 4 -18
-12z"/>
<path d="M1430 2110 c6 -11 8 -24 6 -29 -7 -11 22 -23 35 -15 14 9 10 30 -9
47 -27 25 -46 22 -32 -3z m40 -24 c0 -3 -4 -8 -10 -11 -5 -3 -10 -1 -10 4 0 6
5 11 10 11 6 0 10 -2 10 -4z"/>
<path d="M1545 2120 c3 -5 8 -10 11 -10 2 0 4 5 4 10 0 6 -5 10 -11 10 -5 0
-7 -4 -4 -10z"/>
<path d="M2108 2112 c-19 -4 -31 -29 -18 -37 6 -4 10 1 10 9 0 9 5 16 11 16
11 0 9 -20 -7 -104 -4 -16 -2 -26 2 -23 5 3 10 -8 11 -24 2 -20 -2 -29 -12
-29 -19 0 -19 -16 0 -24 21 -8 26 23 23 129 -3 78 -5 90 -20 87z"/>
<path d="M1341 2085 c0 -12 -6 -26 -13 -33 -9 -9 -9 -12 0 -12 16 0 25 23 19
47 -4 16 -5 15 -6 -2z"/>
<path d="M1087 2077 c-10 -25 13 -59 30 -45 18 14 17 39 -1 32 -9 -3 -16 2
-18 13 -3 17 -4 17 -11 0z"/>
<path d="M1668 2053 c5 -21 7 -23 10 -9 2 10 0 22 -6 28 -6 6 -7 0 -4 -19z"/>
<path d="M1445 2041 c-3 -6 -10 -9 -15 -6 -5 3 -11 1 -15 -5 -4 -6 -11 -7 -17
-4 -7 4 -8 2 -4 -5 4 -6 13 -8 19 -4 7 4 18 8 25 9 18 3 27 12 20 20 -3 3 -9
0 -13 -5z"/>
<path d="M28 1970 c2 -22 9 -40 14 -40 6 0 7 7 4 16 -3 9 -6 27 -6 40 0 13 -3
24 -8 24 -4 0 -6 -18 -4 -40z"/>
<path d="M1761 1973 c0 -25 1 -26 9 -8 12 27 12 35 0 35 -5 0 -10 -12 -9 -27z"/>
<path d="M958 1939 c-20 -11 -14 -37 14 -57 15 -11 17 -21 12 -48 -4 -21 -2
-34 4 -34 15 0 17 13 14 85 -4 66 -10 74 -44 54z"/>
<path d="M1358 1943 c-10 -2 -18 -9 -18 -14 0 -12 17 -12 25 1 3 5 12 7 19 4
8 -3 17 -1 21 5 6 11 -14 13 -47 4z"/>
<path d="M2437 1931 c-3 -14 -1 -18 9 -14 16 6 18 19 5 27 -5 3 -11 -3 -14
-13z"/>
<path d="M1727 1927 c-11 -29 -9 -43 4 -30 6 6 9 19 7 29 -3 18 -4 18 -11 1z"/>
<path d="M1470 1909 c0 -23 -24 -52 -34 -41 -4 3 -4 -1 0 -11 4 -13 10 -15 19
-7 6 5 15 7 18 3 4 -3 7 2 8 13 0 10 2 29 5 42 2 12 -1 22 -6 22 -6 0 -10 -9
-10 -21z"/>
<path d="M1347 1876 c3 -11 7 -29 7 -38 0 -22 1 -22 25 -2 24 21 16 51 -15 57
-21 4 -24 1 -17 -17z"/>
<path d="M1410 1850 c0 -5 5 -10 11 -10 5 0 7 5 4 10 -3 6 -8 10 -11 10 -2 0
-4 -4 -4 -10z"/>
<path d="M900 1821 c0 -11 -5 -23 -10 -26 -15 -9 -2 -25 15 -19 10 4 12 -1 9
-18 -5 -22 -5 -22 10 -4 9 11 16 25 16 32 0 7 5 14 12 16 6 2 8 10 4 17 -6 9
-11 8 -22 -6 -13 -17 -13 -17 -14 5 0 12 -4 22 -10 22 -5 0 -10 -9 -10 -19z"/>
<path d="M1467 1817 c-11 -29 -9 -43 4 -30 6 6 9 19 7 29 -3 18 -4 18 -11 1z"/>
<path d="M1425 1791 c-3 -6 -16 -11 -28 -12 -21 0 -21 -1 -2 -9 20 -8 55 13
43 25 -3 4 -9 2 -13 -4z"/>
<path d="M2121 1784 c0 -11 3 -14 6 -6 3 7 2 16 -1 19 -3 4 -6 -2 -5 -13z"/>
<path d="M1573 1773 c-3 -10 -8 -22 -11 -27 -3 -5 0 -6 5 -3 11 7 25 47 17 47
-3 0 -7 -8 -11 -17z"/>
<path d="M1015 1739 c-4 -6 -5 -12 -2 -15 2 -3 7 2 10 11 7 17 1 20 -8 4z"/>
<path d="M126 1709 c-18 -17 -18 -19 -2 -19 9 0 19 7 23 15 8 23 0 25 -21 4z"/>
<path d="M15 1700 c-3 -5 -2 -10 4 -10 5 0 13 5 16 10 3 6 2 10 -4 10 -5 0
-13 -4 -16 -10z"/>
<path d="M970 1698 c0 -5 -7 -8 -15 -4 -12 4 -13 2 -3 -14 10 -15 10 -27 1
-50 -6 -16 -9 -30 -6 -30 12 0 35 33 47 68 13 35 12 38 -5 39 -11 1 -19 -3
-19 -9z"/>
<path d="M890 1674 c0 -8 5 -12 10 -9 6 4 8 11 5 16 -9 14 -15 11 -15 -7z"/>
<path d="M1365 1670 c-3 -5 -2 -10 4 -10 5 0 13 5 16 10 3 6 2 10 -4 10 -5 0
-13 -4 -16 -10z"/>
<path d="M5 1660 c4 -6 11 -8 16 -5 14 9 11 15 -7 15 -8 0 -12 -5 -9 -10z"/>
<path d="M1057 1630 c-3 -12 0 -20 7 -20 6 0 12 9 13 20 1 11 -2 20 -6 20 -5
0 -11 -9 -14 -20z"/>
<path d="M1434 1619 c-19 -22 -19 -22 4 -8 12 8 22 17 22 21 0 12 -6 9 -26
-13z"/>
<path d="M1320 1608 c0 -13 -3 -34 -6 -48 -5 -24 -5 -24 8 -5 7 12 20 19 29
17 22 -4 32 26 15 44 -22 22 -46 17 -46 -8z"/>
<path d="M897 1597 c-19 -30 -22 -41 -7 -32 13 8 35 -5 23 -14 -10 -7 -53 -75
-53 -85 0 -20 21 0 40 38 11 24 28 50 36 56 18 16 18 30 0 30 -8 0 -16 8 -18
17 -2 14 -6 12 -21 -10z"/>
<path d="M20 1583 c0 -13 5 -23 10 -23 13 0 13 11 0 30 -8 12 -10 11 -10 -7z"/>
<path d="M845 1580 c-3 -5 -1 -18 4 -27 9 -16 10 -14 11 10 0 28 -5 34 -15 17z"/>
<path d="M1031 1568 c-1 -20 4 -28 15 -28 12 0 14 4 7 13 -6 6 -13 19 -16 27
-3 9 -6 3 -6 -12z"/>
<path d="M1378 1545 c-4 -20 -1 -25 14 -25 16 0 17 3 7 23 -16 31 -16 31 -21
2z"/>
<path d="M1450 1550 c0 -11 4 -20 9 -20 5 0 7 9 4 20 -3 11 -7 20 -9 20 -2 0
-4 -9 -4 -20z"/>
<path d="M386 1508 c-2 -24 -5 -52 -4 -63 0 -11 -3 -54 -6 -95 -3 -41 -3 -66
0 -55 4 11 10 25 14 30 5 6 10 48 11 95 1 47 6 90 11 96 5 7 2 16 -6 23 -12
10 -15 5 -20 -31z"/>
<path d="M1070 1540 c0 -5 7 -7 15 -4 8 4 15 8 15 10 0 2 -7 4 -15 4 -8 0 -15
-4 -15 -10z"/>
<path d="M1725 1530 c-3 -5 -1 -10 4 -10 6 0 11 5 11 10 0 6 -2 10 -4 10 -3 0
-8 -4 -11 -10z"/>
<path d="M110 1505 c-8 -9 -8 -15 -2 -15 12 0 26 19 19 26 -2 2 -10 -2 -17
-11z"/>
<path d="M2100 1474 c0 -27 5 -56 10 -64 7 -10 8 4 4 45 -8 75 -14 83 -14 19z"/>
<path d="M1720 1490 c0 -11 7 -20 15 -20 8 0 15 5 15 10 0 6 -5 10 -11 10 -5
0 -7 5 -4 10 3 6 1 10 -4 10 -6 0 -11 -9 -11 -20z"/>
<path d="M1690 1488 c-8 -78 -7 -148 0 -148 6 0 10 17 11 38 0 20 1 54 2 75 1
20 -1 37 -5 37 -5 0 -8 -1 -8 -2z"/>
<path d="M917 1463 c-4 -3 -7 -14 -7 -24 0 -9 -7 -19 -15 -23 -22 -8 -18 -19
9 -32 20 -9 23 -9 19 2 -3 8 0 14 6 14 8 0 7 6 -1 20 -11 16 -9 22 7 34 16 12
17 15 4 16 -9 0 -19 -3 -22 -7z"/>
<path d="M980 1456 c0 -8 5 -18 10 -21 6 -3 10 1 10 9 0 8 -4 18 -10 21 -5 3
-10 -1 -10 -9z"/>
<path d="M1075 1448 c-3 -13 -8 -36 -10 -53 -2 -16 -8 -31 -14 -33 -6 -2 -11
-12 -11 -23 0 -14 7 -19 27 -19 25 0 26 1 8 14 -18 13 -18 15 -3 38 20 31 34
98 20 98 -5 0 -13 -10 -17 -22z"/>
<path d="M2061 1410 l1 -55 11 43 c7 31 7 46 -1 54 -9 9 -12 -1 -11 -42z"/>
<path d="M1717 1429 c-4 -13 -7 -45 -7 -71 0 -28 -5 -48 -12 -51 -10 -4 -10
-6 0 -6 7 -1 17 10 22 23 7 18 14 23 29 19 17 -4 21 -1 21 21 0 24 -2 25 -20
16 -15 -8 -20 -8 -20 3 0 7 5 18 10 23 7 7 6 16 -3 29 -13 17 -14 17 -20 -6z"/>
<path d="M2371 1414 c0 -11 3 -14 6 -6 3 7 2 16 -1 19 -3 4 -6 -2 -5 -13z"/>
<path d="M985 1410 c-3 -5 -1 -10 4 -10 6 0 11 5 11 10 0 6 -2 10 -4 10 -3 0
-8 -4 -11 -10z"/>
<path d="M1297 1390 c-3 -11 -1 -20 4 -20 5 0 9 9 9 20 0 11 -2 20 -4 20 -2 0
-6 -9 -9 -20z"/>
<path d="M1421 1390 c0 -31 14 -67 20 -54 3 5 0 25 -7 44 -11 30 -13 31 -13
10z"/>
<path d="M1324 1375 c-3 -14 -14 -25 -23 -25 -12 -1 -11 -5 8 -20 13 -11 19
-20 13 -20 -15 0 -22 -28 -13 -52 8 -19 10 -20 16 -7 3 9 14 15 23 13 9 -2 28
5 42 16 14 11 20 20 13 20 -6 0 -15 -4 -18 -10 -3 -5 -15 -10 -26 -10 -13 0
-19 7 -19 24 0 13 -6 26 -12 29 -7 2 -10 8 -6 12 5 5 16 0 27 -9 25 -22 40 -2
17 23 -9 10 -16 21 -16 26 0 5 6 0 14 -11 16 -21 32 -14 23 11 -4 8 -18 15
-31 15 -19 0 -27 -7 -32 -25z"/>
<path d="M2416 1362 c-20 -39 -20 -43 0 -35 14 5 15 3 4 -17 -10 -18 -9 -21 1
-18 18 6 35 76 21 90 -7 7 -15 1 -26 -20z"/>
<path d="M912 1348 c-14 -14 -16 -28 -3 -28 5 0 11 9 14 20 6 23 5 24 -11 8z"/>
<path d="M2352 1290 c-14 -47 -15 -60 -3 -60 14 0 42 67 35 84 -10 25 -18 19
-32 -24z"/>
<path d="M1090 1310 c-8 -5 -12 -12 -9 -15 4 -3 12 1 19 10 14 17 11 19 -10 5z"/>
<path d="M1435 1310 c-3 -5 -1 -10 4 -10 6 0 11 5 11 10 0 6 -2 10 -4 10 -3 0
-8 -4 -11 -10z"/>
<path d="M2290 1300 c0 -11 2 -20 4 -20 2 0 6 9 9 20 3 11 1 20 -4 20 -5 0 -9
-9 -9 -20z"/>
<path d="M1430 1275 c0 -8 5 -15 10 -15 6 0 10 7 10 15 0 8 -4 15 -10 15 -5 0
-10 -7 -10 -15z"/>
<path d="M2287 1235 c-3 -22 -6 -106 -7 -187 0 -121 2 -148 14 -148 14 0 33
86 22 98 -3 3 -6 -6 -7 -19 l0 -24 -10 23 c-6 15 -5 31 2 44 6 11 8 22 5 25
-3 3 -1 14 4 24 6 11 6 20 1 24 -5 3 -9 36 -7 74 3 83 -8 125 -17 66z"/>
<path d="M1042 1168 c-1 -59 -7 -95 -15 -101 -8 -6 -7 -7 5 -4 9 3 19 1 22 -6
3 -9 5 -9 5 0 1 7 8 10 16 7 11 -5 15 1 15 17 0 13 -4 20 -8 14 -14 -20 -27
-13 -29 16 -1 16 2 29 7 29 6 0 9 18 7 41 -3 29 1 43 11 47 12 4 12 8 -4 19
-10 7 -20 13 -23 13 -3 0 -7 -41 -9 -92z"/>
<path d="M1150 1230 c0 -5 7 -10 15 -10 8 0 15 5 15 10 0 6 -7 10 -15 10 -8 0
-15 -4 -15 -10z"/>
<path d="M1640 1230 c0 -5 6 -11 13 -11 6 -1 23 -3 37 -4 13 -1 40 4 60 11
l35 13 -45 -5 c-24 -3 -48 -8 -52 -10 -5 -3 -8 0 -8 5 0 6 -9 11 -20 11 -11 0
-20 -4 -20 -10z"/>
<path d="M0 1198 c0 -36 4 -35 14 5 4 16 2 27 -4 27 -5 0 -10 -14 -10 -32z"/>
<path d="M864 1214 c3 -9 6 -46 6 -83 0 -62 2 -67 22 -68 13 -1 18 1 11 5 -10
6 -17 39 -14 70 1 6 9 12 19 12 16 1 16 1 0 11 -21 12 -23 40 -6 57 9 9 6 12
-16 12 -22 0 -27 -4 -22 -16z"/>
<path d="M938 1218 c7 -7 12 -30 12 -52 0 -30 3 -37 10 -26 5 8 10 32 10 53 0
32 -3 37 -22 37 -17 0 -19 -3 -10 -12z"/>
<path d="M989 1185 c-6 -40 -4 -53 7 -43 3 3 4 23 2 44 l-3 39 -6 -40z"/>
<path d="M2370 1179 c0 -5 5 -7 10 -4 6 3 10 8 10 11 0 2 -4 4 -10 4 -5 0 -10
-5 -10 -11z"/>
<path d="M210 1139 c0 -24 -4 -38 -10 -34 -16 10 -11 -48 6 -74 13 -18 18 -20
25 -10 6 11 11 10 23 -6 15 -20 15 -20 16 3 0 12 -4 22 -9 22 -15 0 -42 50
-34 63 13 20 10 77 -4 77 -8 0 -13 -15 -13 -41z"/>
<path d="M1407 1133 c11 -86 21 -104 22 -41 1 59 -5 88 -20 88 -5 0 -6 -21 -2
-47z"/>
<path d="M1672 1155 c0 -16 2 -22 5 -12 2 9 2 23 0 30 -3 6 -5 -1 -5 -18z"/>
<path d="M2045 1170 c3 -5 8 -10 11 -10 2 0 4 5 4 10 0 6 -5 10 -11 10 -5 0
-7 -4 -4 -10z"/>
<path d="M470 1140 c0 -5 5 -10 10 -10 6 0 10 5 10 10 0 6 -4 10 -10 10 -5 0
-10 -4 -10 -10z"/>
<path d="M20 1103 c0 -15 -2 -16 -10 -3 -8 13 -10 13 -10 -2 0 -28 16 -29 28
-3 7 15 8 25 2 25 -6 0 -10 -8 -10 -17z"/>
<path d="M456 1098 c-9 -37 -7 -43 9 -22 16 21 19 44 6 44 -5 0 -11 -10 -15
-22z"/>
<path d="M950 1109 c0 -5 5 -7 10 -4 6 3 10 8 10 11 0 2 -4 4 -10 4 -5 0 -10
-5 -10 -11z"/>
<path d="M380 1088 c-2 -5 -3 -12 -4 -17 0 -5 -14 -23 -29 -41 -16 -17 -26
-34 -23 -37 15 -15 72 67 62 90 -2 7 -5 9 -6 5z"/>
<path d="M1305 1070 c-18 -19 -17 -20 8 -20 17 0 27 5 27 14 0 24 -16 27 -35
6z"/>
<path d="M1263 1030 c0 -25 2 -35 4 -22 2 12 2 32 0 45 -2 12 -4 2 -4 -23z"/>
<path d="M1025 1009 c-4 -6 -5 -12 -2 -15 2 -3 7 2 10 11 7 17 1 20 -8 4z"/>
<path d="M230 995 c0 -18 19 -40 26 -32 4 4 0 15 -9 24 -9 10 -17 13 -17 8z"/>
<path d="M1350 985 c0 -7 7 -16 16 -19 40 -15 47 3 9 21 -20 9 -25 8 -25 -2z"/>
<path d="M1146 975 c-3 -8 -1 -15 4 -15 6 0 10 7 10 15 0 8 -2 15 -4 15 -2 0
-6 -7 -10 -15z"/>
<path d="M841 963 c-20 -22 1 -37 36 -28 15 5 32 9 37 9 5 1 11 6 13 13 3 8
-6 11 -24 9 -15 -1 -32 1 -38 5 -5 4 -16 0 -24 -8z"/>
<path d="M1000 959 c-15 -27 -7 -35 18 -17 16 11 17 15 6 26 -11 10 -15 8 -24
-9z"/>
<path d="M1175 970 c3 -5 8 -10 11 -10 2 0 4 5 4 10 0 6 -5 10 -11 10 -5 0 -7
-4 -4 -10z"/>
<path d="M1546 971 c-4 -7 -5 -15 -2 -18 9 -9 19 4 14 18 -4 11 -6 11 -12 0z"/>
<path d="M937 956 c-3 -8 -3 -17 0 -20 7 -7 33 13 33 25 0 15 -27 10 -33 -5z"/>
<path d="M1608 960 c-15 -4 -29 -5 -32 -2 -3 3 -6 0 -6 -7 0 -9 8 -11 24 -7
20 5 23 3 19 -18 -4 -20 -2 -23 19 -19 24 5 25 4 21 -64 -3 -54 -1 -65 8 -56
7 7 14 41 15 75 2 58 5 63 26 66 13 2 30 5 38 9 23 8 -20 22 -49 16 -16 -4
-22 -2 -17 6 8 13 -25 14 -66 1z"/>
<path d="M1060 950 c0 -5 10 -10 23 -10 18 0 19 2 7 10 -19 13 -30 13 -30 0z"/>
<path d="M1113 921 c-7 -10 -9 -22 -6 -25 6 -6 32 23 33 37 0 14 -15 7 -27
-12z"/>
<path d="M1711 904 c0 -11 3 -14 6 -6 3 7 2 16 -1 19 -3 4 -6 -2 -5 -13z"/>
<path d="M2339 885 c-24 -35 -54 -49 -43 -20 7 17 -11 21 -21 5 -6 -10 -17
-218 -19 -352 -1 -32 -3 -58 -6 -58 -3 0 -5 -46 -4 -102 1 -57 2 -103 3 -103
1 0 3 -27 5 -60 2 -41 -1 -65 -11 -77 -9 -9 -10 -18 -5 -22 6 -3 8 -15 5 -27
-5 -17 -2 -20 18 -17 17 2 25 11 28 28 1 14 8 28 15 32 7 5 4 8 -8 8 -19 0
-19 -2 2 83 6 20 7 37 3 37 -8 0 -13 208 -5 222 4 6 8 39 9 72 1 34 5 90 9
126 7 64 6 65 -9 31 -19 -42 -28 -37 -15 8 5 18 7 46 3 62 -3 17 -1 29 5 29 5
0 12 10 16 23 3 13 17 41 31 61 14 21 24 40 22 42 -2 3 -15 -11 -28 -31z"/>
<path d="M7 894 c-4 -4 -7 -16 -7 -28 0 -14 3 -17 11 -9 6 6 9 19 7 28 -1 9
-6 13 -11 9z"/>
<path d="M928 832 c-20 -31 -35 -58 -32 -61 4 -5 38 38 39 49 0 3 9 18 19 33
10 15 17 29 15 32 -2 2 -21 -22 -41 -53z"/>
<path d="M1082 860 c-18 -29 -15 -38 4 -12 9 13 14 25 12 27 -2 2 -9 -5 -16
-15z"/>
<path d="M1550 860 c0 -5 5 -10 10 -10 6 0 10 5 10 10 0 6 -4 10 -10 10 -5 0
-10 -4 -10 -10z"/>
<path d="M1707 843 c-4 -3 -7 -16 -6 -27 0 -19 1 -19 10 3 10 24 8 36 -4 24z"/>
<path d="M1035 789 c-4 -6 -5 -12 -2 -15 2 -3 7 2 10 11 7 17 1 20 -8 4z"/>
<path d="M1470 785 c0 -8 5 -15 10 -15 6 0 10 7 10 15 0 8 -4 15 -10 15 -5 0
-10 -7 -10 -15z"/>
<path d="M1545 770 c-3 -5 1 -10 9 -10 9 0 16 5 16 10 0 6 -4 10 -9 10 -6 0
-13 -4 -16 -10z"/>
<path d="M1640 735 c0 -8 5 -15 10 -15 6 0 10 7 10 15 0 8 -4 15 -10 15 -5 0
-10 -7 -10 -15z"/>
<path d="M26 721 c-4 -7 -5 -15 -2 -18 9 -9 19 4 14 18 -4 11 -6 11 -12 0z"/>
<path d="M562 703 c-35 -20 -45 -23 -58 -13 -12 11 -13 10 -8 -4 8 -22 42 -20
79 4 21 14 31 16 37 7 10 -16 22 -2 15 18 -8 19 -13 18 -65 -12z"/>
<path d="M1550 708 c0 -19 2 -20 10 -8 13 19 13 30 0 30 -5 0 -10 -10 -10 -22z"/>
<path d="M1715 720 c-3 -5 1 -10 9 -10 9 0 16 5 16 10 0 6 -4 10 -9 10 -6 0
-13 -4 -16 -10z"/>
<path d="M700 705 c-24 -13 -23 -13 18 -12 23 1 42 3 42 4 0 1 -8 7 -18 12
-12 6 -25 5 -42 -4z"/>
<path d="M1193 702 c-16 -11 -16 -13 0 -29 11 -11 17 -13 17 -5 0 7 -5 12 -11
12 -5 0 -7 5 -4 10 3 6 13 10 21 10 8 0 12 -4 9 -10 -3 -5 -2 -10 4 -10 5 0
11 5 13 11 3 9 10 8 25 -1 20 -13 20 -16 7 -53 -16 -45 -12 -56 13 -36 15 12
16 12 10 -3 -4 -10 -10 -26 -14 -35 -6 -16 -5 -17 11 -3 15 11 17 25 14 72 -3
41 -1 58 8 58 6 0 25 6 42 13 28 11 23 12 -59 12 -55 0 -95 -5 -106 -13z"/>
<path d="M840 695 c-7 -9 -8 -15 -2 -15 5 0 12 7 16 15 3 8 4 15 2 15 -2 0 -9
-7 -16 -15z"/>
<path d="M796 684 c-9 -24 -7 -28 9 -14 17 14 20 30 6 30 -5 0 -12 -7 -15 -16z"/>
<path d="M1637 693 c-4 -3 -7 -13 -7 -22 1 -13 3 -13 11 2 11 19 8 33 -4 20z"/>
<path d="M1480 681 c0 -6 5 -13 10 -16 6 -3 10 1 10 9 0 9 -4 16 -10 16 -5 0
-10 -4 -10 -9z"/>
<path d="M2210 670 c0 -11 4 -20 9 -20 5 0 7 9 4 20 -3 11 -7 20 -9 20 -2 0
-4 -9 -4 -20z"/>
<path d="M1336 638 c6 -67 24 -74 38 -15 4 19 3 26 -4 22 -5 -3 -10 -1 -10 4
0 6 9 11 19 11 37 0 29 15 -8 16 l-38 1 3 -39z"/>
<path d="M1432 645 c-1 -19 3 -35 8 -35 6 0 10 -14 10 -30 0 -17 7 -44 15 -60
9 -17 11 -30 5 -30 -5 0 -10 -7 -10 -15 0 -9 9 -15 25 -15 30 0 30 0 6 47 -11
21 -23 61 -26 88 -4 28 -9 58 -12 68 -8 29 -20 19 -21 -18z"/>
<path d="M1716 655 c4 -8 10 -15 15 -15 5 0 9 7 9 15 0 8 -7 15 -15 15 -9 0
-12 -6 -9 -15z"/>
<path d="M1411 634 c0 -11 3 -14 6 -6 3 7 2 16 -1 19 -3 4 -6 -2 -5 -13z"/>
<path d="M1720 598 c0 -19 2 -20 10 -8 13 19 13 30 0 30 -5 0 -10 -10 -10 -22z"/>
<path d="M780 603 c0 -6 -17 -29 -38 -52 -48 -52 -81 -106 -61 -99 18 6 114
147 105 155 -3 3 -6 2 -6 -4z"/>
<path d="M45 590 c3 -5 8 -10 11 -10 2 0 4 5 4 10 0 6 -5 10 -11 10 -5 0 -7
-4 -4 -10z"/>
<path d="M867 527 c-25 -39 -52 -79 -59 -87 -12 -15 -39 -100 -31 -100 2 0 8
10 14 23 5 12 15 31 22 42 59 98 108 187 105 191 -2 2 -25 -29 -51 -69z"/>
<path d="M1554 585 c11 -27 17 -64 17 -100 l0 -30 13 35 c15 42 10 73 -17 97
-20 17 -20 17 -13 -2z"/>
<path d="M1517 571 c-4 -17 -3 -21 5 -13 5 5 8 16 6 23 -3 8 -7 3 -11 -10z"/>
<path d="M1340 494 c0 -8 5 -12 10 -9 6 3 10 10 10 16 0 5 -4 9 -10 9 -5 0
-10 -7 -10 -16z"/>
<path d="M1276 464 c-9 -23 -2 -28 13 -10 7 8 8 17 3 20 -6 3 -13 -1 -16 -10z"/>
<path d="M2348 450 c-11 -19 -13 -29 -5 -27 7 1 11 -4 10 -10 -2 -7 1 -13 6
-13 13 0 21 39 13 61 -6 16 -9 15 -24 -11z"/>
<path d="M10 420 c0 -16 4 -30 9 -30 5 0 8 -6 7 -12 0 -7 4 -15 9 -18 6 -3 11
15 13 43 3 42 1 47 -17 47 -17 0 -21 -6 -21 -30z"/>
<path d="M1230 445 c0 -15 18 -40 24 -34 3 3 -1 14 -9 25 -8 10 -14 15 -15 9z"/>
<path d="M720 410 c38 -34 46 -36 54 -15 7 18 -30 45 -63 45 -24 0 -24 -1 9
-30z"/>
<path d="M2840 425 c-16 -19 -1 -19 24 0 16 12 17 15 4 15 -8 0 -21 -7 -28
-15z"/>
<path d="M1540 385 c0 -39 3 -45 22 -45 12 0 19 3 15 6 -3 3 -2 17 3 30 11 28
3 31 -16 7 -11 -16 -12 -14 -8 15 3 19 1 32 -5 32 -6 0 -11 -20 -11 -45z"/>
<path d="M323 393 c14 -15 29 -24 33 -20 10 10 -13 34 -38 40 -20 6 -20 4 5
-20z"/>
<path d="M1300 410 c0 -5 5 -10 10 -10 6 0 10 5 10 10 0 6 -4 10 -10 10 -5 0
-10 -4 -10 -10z"/>
<path d="M1992 385 c0 -16 2 -22 5 -12 2 9 2 23 0 30 -3 6 -5 -1 -5 -18z"/>
<path d="M2042 359 c-5 -13 -13 -40 -17 -59 -6 -31 -5 -33 8 -20 22 22 39 82
28 93 -7 7 -13 2 -19 -14z"/>
<path d="M13 313 c-7 -3 -13 -12 -13 -21 0 -14 2 -14 9 -3 5 7 14 10 20 7 6
-4 11 -3 11 3 0 13 -12 19 -27 14z"/>
<path d="M1692 250 c0 -19 2 -27 5 -17 2 9 2 25 0 35 -3 9 -5 1 -5 -18z"/>
<path d="M1971 248 c-12 -33 -15 -78 -5 -78 14 0 29 28 32 61 4 48 -13 58 -27
17z"/>
<path d="M2398 273 c-10 -2 -18 -6 -18 -8 0 -13 35 -75 42 -75 5 0 6 5 3 10
-4 6 -2 17 4 24 8 10 7 17 -4 26 -8 7 -12 16 -9 21 3 5 4 8 2 8 -2 -1 -11 -3
-20 -6z"/>
<path d="M2520 262 c0 -10 -6 -24 -12 -32 -11 -12 -10 -12 3 -2 19 14 32 52
18 52 -5 0 -9 -8 -9 -18z"/>
<path d="M3114 267 c-7 -7 -8 -25 -3 -45 11 -50 16 -48 15 8 -1 28 -1 50 -1
49 0 0 -5 -5 -11 -12z"/>
<path d="M2315 250 c3 -5 8 -10 11 -10 2 0 4 5 4 10 0 6 -5 10 -11 10 -5 0 -7
-4 -4 -10z"/>
<path d="M2886 236 c-3 -13 -9 -31 -12 -40 -4 -11 -1 -16 10 -16 19 0 35 36
28 62 -6 25 -19 22 -26 -6z"/>
<path d="M2150 225 c0 -8 4 -15 9 -15 5 0 12 -8 14 -17 3 -10 5 -3 6 15 1 22
-4 32 -14 32 -8 0 -15 -7 -15 -15z"/>
<path d="M2220 229 c0 -5 5 -7 10 -4 6 3 10 8 10 11 0 2 -4 4 -10 4 -5 0 -10
-5 -10 -11z"/>
<path d="M2370 231 c0 -6 4 -13 10 -16 6 -3 7 1 4 9 -7 18 -14 21 -14 7z"/>
<path d="M26 215 c7 -16 44 -16 44 1 0 8 -9 13 -24 12 -13 -1 -22 -7 -20 -13z"/>
<path d="M2800 220 c0 -5 7 -7 15 -4 8 4 15 8 15 10 0 2 -7 4 -15 4 -8 0 -15
-4 -15 -10z"/>
<path d="M2367 201 c9 -11 9 -21 -2 -48 -9 -22 -10 -33 -3 -33 7 0 8 -13 5
-35 -3 -20 -2 -35 4 -35 5 0 15 -11 21 -25 11 -24 38 -35 38 -15 0 6 -4 10
-10 10 -21 0 -10 39 13 43 20 4 19 4 -4 6 -31 1 -39 17 -39 76 0 29 -6 47 -17
56 -15 11 -16 11 -6 0z"/>
<path d="M360 189 c0 -5 5 -7 10 -4 6 3 10 8 10 11 0 2 -4 4 -10 4 -5 0 -10
-5 -10 -11z"/>
<path d="M115 170 c-4 -6 1 -7 11 -3 13 5 15 2 9 -15 -5 -16 -2 -22 9 -22 19
0 20 5 6 31 -12 21 -25 25 -35 9z"/>
<path d="M2410 169 c0 -5 5 -7 10 -4 6 3 10 8 10 11 0 2 -4 4 -10 4 -5 0 -10
-5 -10 -11z"/>
<path d="M2143 145 c-10 -11 -9 -13 7 -12 11 1 20 7 20 14 0 17 -12 16 -27 -2z"/>
<path d="M67 143 c-4 -3 -7 -16 -6 -27 0 -20 1 -20 10 2 7 18 14 22 30 17 15
-5 19 -4 15 4 -8 12 -39 15 -49 4z"/>
<path d="M1105 119 c-4 -6 -5 -12 -2 -15 2 -3 7 2 10 11 7 17 1 20 -8 4z"/>
<path d="M40 91 c0 -5 5 -13 10 -16 6 -3 10 -2 10 4 0 5 -4 13 -10 16 -5 3
-10 2 -10 -4z"/>
<path d="M2640 85 c-37 -8 -46 -13 -27 -14 15 0 27 -5 27 -10 0 -5 -12 -12
-27 -14 -26 -4 -26 -4 5 -6 22 -1 32 3 32 14 0 10 10 15 34 15 19 0 38 5 42
12 4 7 3 8 -4 4 -7 -4 -12 -2 -12 3 0 13 2 13 -70 -4z"/>
<path d="M3130 70 c0 -16 5 -32 10 -35 6 -3 10 0 10 9 0 8 3 21 6 29 3 8 -2
17 -10 20 -12 5 -16 0 -16 -23z"/>
<path d="M115 80 c3 -5 8 -10 11 -10 2 0 4 5 4 10 0 6 -5 10 -11 10 -5 0 -7
-4 -4 -10z"/>
<path d="M1380 75 c0 -8 5 -15 10 -15 6 0 10 7 10 15 0 8 -4 15 -10 15 -5 0
-10 -7 -10 -15z"/>
<path d="M715 70 c-19 -8 -19 -9 3 -9 12 -1 22 4 22 9 0 6 -1 10 -2 9 -2 0
-12 -4 -23 -9z"/>
<path d="M767 74 c-8 -13 20 -41 30 -30 3 3 1 6 -5 6 -6 0 -12 8 -14 18 -2 11
-6 13 -11 6z"/>
<path d="M2535 70 c-11 -5 -29 -11 -39 -14 -10 -4 -16 -9 -13 -12 8 -8 77 16
77 27 0 5 -1 9 -2 8 -2 0 -12 -4 -23 -9z"/>
<path d="M1920 60 c0 -5 5 -10 10 -10 6 0 10 5 10 10 0 6 -4 10 -10 10 -5 0
-10 -4 -10 -10z"/>
<path d="M2675 40 c3 -5 8 -10 11 -10 2 0 4 5 4 10 0 6 -5 10 -11 10 -5 0 -7
-4 -4 -10z"/>
<path d="M2728 43 c7 -3 16 -2 19 1 4 3 -2 6 -13 5 -11 0 -14 -3 -6 -6z"/>
<path d="M1675 31 c3 -6 -12 -12 -32 -14 l-38 -4 43 -1 c31 -2 42 2 42 13 0 8
-5 15 -11 15 -5 0 -8 -4 -4 -9z"/>
<path d="M2770 10 c0 -5 5 -10 11 -10 5 0 7 5 4 10 -3 6 -8 10 -11 10 -2 0 -4
-4 -4 -10z"/>
<path d="M3076 9 c6 -11 74 -12 74 -1 0 4 -18 8 -40 8 -22 1 -37 -2 -34 -7z"/>
</g>
</svg>
