<?xml version="1.0" standalone="no"?>
<!DOCTYPE svg PUBLIC "-//W3C//DTD SVG 20010904//EN"
 "http://www.w3.org/TR/2001/REC-SVG-20010904/DTD/svg10.dtd">
<svg version="1.0" xmlns="http://www.w3.org/2000/svg"
 width="236.000000pt" height="371.000000pt" viewBox="0 0 236.000000 371.000000"
 preserveAspectRatio="xMidYMid meet">
<metadata>
Created by potrace 1.16, written by Peter Selinger 2001-2019
</metadata>
<g transform="translate(0.000000,371.000000) scale(0.100000,-0.100000)"
fill="#000000" stroke="none">
<path d="M2193 3690 c-82 -17 -312 -29 -551 -30 -210 -1 -243 1 -248 15 -7 18
-106 20 -244 4 -139 -15 -868 -23 -885 -9 -14 12 -148 16 -165 5 -5 -3 -11 -1
-15 5 -22 36 -80 -34 -70 -85 15 -74 27 -302 30 -557 3 -275 3 -276 -19 -282
l-21 -6 22 -18 c22 -16 23 -24 24 -157 1 -77 1 -160 0 -185 -1 -25 -2 -139 -4
-253 -2 -199 -1 -209 18 -223 19 -14 20 -27 21 -207 1 -106 8 -311 15 -457 14
-293 16 -798 4 -957 -7 -97 -7 -103 11 -104 18 0 18 -1 -1 -8 -11 -5 -25 -6
-31 -4 -20 7 -25 -14 -8 -31 10 -11 33 -16 68 -16 28 0 57 -5 62 -10 6 -6 44
-14 85 -17 41 -3 79 -9 84 -13 6 -5 145 -11 310 -14 165 -4 368 -10 450 -13
83 -4 196 -6 253 -4 56 1 126 -2 155 -8 28 -5 171 -13 317 -17 146 -4 292 -8
325 -9 67 -3 127 17 119 39 -4 9 -32 16 -85 21 -78 7 -94 15 -63 33 8 5 16 16
18 24 2 19 56 91 63 85 2 -3 -8 -28 -22 -57 -14 -29 -24 -54 -21 -57 2 -3 14
14 26 37 12 23 24 40 26 37 3 -3 -4 -23 -16 -46 -19 -38 -17 -54 6 -31 11 11
54 2 54 -11 0 -5 6 -9 14 -9 28 0 37 83 25 239 -10 137 -9 238 5 321 4 28 4
30 -3 10 -9 -24 -9 -23 -10 9 -1 27 2 32 15 27 12 -5 15 -2 10 10 -3 8 -6 20
-6 25 0 6 -4 8 -9 5 -5 -3 -12 74 -15 172 -4 97 -10 204 -13 237 -9 80 -8 105
7 203 13 90 10 312 -9 592 -11 167 -29 460 -36 605 -3 50 -6 101 -7 115 -1 14
-1 69 0 123 l2 97 35 0 c24 0 35 5 35 15 0 15 -9 18 -47 15 -20 -1 -22 4 -25
82 -2 46 0 119 5 163 14 136 14 482 0 496 -7 7 -13 21 -13 31 0 10 -3 18 -7
17 -5 -1 -27 -5 -50 -9z m17 -40 c0 -5 -9 -10 -20 -10 -11 0 -20 5 -20 10 0 6
9 10 20 10 11 0 20 -4 20 -10z m-2053 -16 c-3 -3 -12 -4 -19 -1 -8 3 -5 6 6 6
11 1 17 -2 13 -5z m2002 -15 c-15 -9 -32 -2 -24 11 3 5 13 6 21 3 12 -4 13 -8
3 -14z m-1184 -29 c-3 -5 -25 -10 -48 -9 -33 0 -38 2 -22 9 28 12 78 12 70 0z
m1195 0 c0 -6 -39 -10 -106 -10 -58 0 -103 4 -100 9 8 13 206 14 206 1z
m-1635 -10 c22 -6 11 -8 -45 -9 -41 -1 -129 -8 -195 -16 -163 -20 -162 -20
-142 3 13 14 34 18 94 20 42 2 79 5 82 7 7 8 173 3 206 -5z m784 6 c-7 -7
-129 -10 -136 -3 -3 4 27 7 67 7 40 0 71 -2 69 -4z m301 -8 c14 -2 84 1 156 6
91 5 138 5 150 -3 11 -6 17 -11 14 -11 -92 -16 -521 -17 -545 -1 -23 14 100
19 225 9z m-840 -32 c-19 -8 -38 -11 -42 -9 -5 2 -8 0 -8 -5 0 -6 -15 -10 -34
-10 -19 0 -43 -3 -54 -6 -23 -8 -54 21 -31 29 19 6 82 11 149 13 l55 0 -35
-12z m1307 -6 c78 0 94 -3 90 -14 -3 -8 -2 -29 3 -48 12 -47 20 -352 9 -369
-6 -10 -9 -4 -9 19 0 17 -4 32 -10 32 -5 0 -10 -8 -10 -18 0 -15 -9 -17 -72
-16 -40 1 -81 5 -91 9 -10 4 -28 3 -40 -3 -38 -18 -81 -21 -107 -7 -18 10 -31
10 -50 2 -14 -6 -70 -13 -125 -16 -66 -4 -99 -10 -98 -17 3 -14 -86 -27 -119
-19 -13 3 -40 -1 -61 -10 -20 -8 -37 -11 -37 -7 0 16 45 32 104 36 73 6 85 16
20 17 -27 0 -130 3 -229 5 -223 5 -452 5 -527 -1 -32 -2 -60 0 -63 5 -4 6 -21
10 -38 10 -18 0 -68 7 -112 15 -44 8 -146 20 -227 26 l-148 12 0 139 c0 116
-2 138 -15 138 -17 0 -20 16 -4 26 6 3 83 8 172 10 111 2 149 0 122 -6 -22 -5
-73 -9 -112 -9 -47 -1 -73 -5 -73 -12 0 -8 35 -10 123 -5 172 9 325 15 522 21
94 4 202 11 240 16 78 11 573 2 590 -11 15 -12 419 -7 423 5 2 6 9 14 15 18 7
5 -23 6 -65 3 -49 -4 -78 -2 -78 4 0 6 -6 10 -14 10 -8 0 -18 5 -22 12 -5 8
-2 9 10 5 10 -4 60 -7 113 -7z m-1092 -21 c11 -16 -1 -22 -30 -15 -14 4 -23
11 -20 16 8 13 42 13 50 -1z m940 1 c-3 -5 -22 -10 -41 -10 -19 0 -34 5 -34
10 0 6 18 10 41 10 24 0 38 -4 34 -10z m-1024 -11 c-16 -6 -28 -6 -35 1 -7 7
1 10 25 9 32 0 33 -1 10 -10z m-438 -379 c26 0 47 -5 47 -10 0 -17 -132 -8
-138 9 -3 10 1 12 19 8 13 -4 45 -7 72 -7z m1522 -29 c-11 -9 -121 -51 -133
-51 -4 1 11 10 33 22 33 18 57 26 105 37 2 1 0 -3 -5 -8z m-1728 -30 c12 -9
24 -23 27 -31 3 -8 21 -37 41 -64 19 -26 35 -52 35 -57 0 -5 -21 -10 -47 -10
-130 -4 -149 -4 -163 3 -12 5 -17 26 -19 87 -1 44 0 85 4 91 8 14 95 0 122
-19z m1519 -2 c-32 -10 -83 -28 -113 -40 -29 -12 -56 -19 -60 -16 -8 9 124 67
172 76 64 12 65 -1 1 -20z m374 16 c0 -11 -8 -13 -31 -8 -16 3 -40 1 -52 -5
-12 -6 -46 -21 -75 -33 -57 -24 -65 -34 -14 -19 50 14 28 -7 -36 -36 -31 -14
-70 -24 -87 -22 -28 3 -26 5 23 22 29 10 51 20 48 23 -3 3 -19 0 -36 -5 -18
-7 -28 -7 -25 -2 10 17 -14 11 -65 -15 -28 -14 -71 -28 -98 -30 -55 -6 -54 -6
107 59 117 48 137 53 126 36 -10 -15 0 -12 62 20 65 33 153 42 153 15z m-1490
-3 c0 -9 -44 -32 -60 -32 -6 0 -10 9 -10 20 0 16 7 20 35 20 19 0 35 -4 35 -8z
m528 -7 c-2 -3 -44 -9 -92 -14 -87 -10 -130 -5 -90 10 19 7 189 11 182 4z
m437 -5 c-3 -5 -11 -10 -16 -10 -6 0 -7 5 -4 10 3 6 11 10 16 10 6 0 7 -4 4
-10z m-660 -10 c3 -5 1 -10 -4 -10 -6 0 -11 5 -11 10 0 6 2 10 4 10 3 0 8 -4
11 -10z m-547 -12 c-7 -19 -35 -21 -41 -3 -5 11 0 15 19 15 16 0 24 -5 22 -12z
m412 2 c0 -5 -9 -10 -20 -10 -11 0 -20 5 -20 10 0 6 9 10 20 10 11 0 20 -4 20
-10z m975 1 c-6 -6 -57 -31 -115 -57 -77 -34 -121 -47 -165 -50 -73 -5 -76 -7
115 60 162 57 180 62 165 47z m-1075 -9 c0 -5 -17 -14 -37 -20 l-38 -11 24 19
c24 21 51 26 51 12z m580 -1 c0 -5 -24 -17 -52 -27 -29 -9 -86 -30 -127 -46
-40 -16 -79 -27 -85 -25 -16 6 153 87 183 88 15 0 35 4 46 9 27 12 35 12 35 1z
m110 -1 c0 -5 -5 -10 -11 -10 -5 0 -7 5 -4 10 3 6 8 10 11 10 2 0 4 -4 4 -10z
m740 0 c0 -5 -8 -10 -17 -10 -15 0 -16 2 -3 10 19 12 20 12 20 0z m-1575 -40
c-6 -10 -78 -50 -90 -50 -16 0 -1 23 28 40 34 21 73 27 62 10z m200 0 c-7 -11
-121 -70 -135 -70 -25 0 -5 18 53 47 63 32 93 41 82 23z m115 5 c0 -8 -118
-62 -152 -70 -48 -12 -30 10 35 42 55 28 117 43 117 28z m200 -5 c-51 -34
-136 -70 -165 -70 -44 0 -45 13 -2 27 17 6 57 20 87 32 60 22 107 29 80 11z
m305 2 c-6 -5 -30 -16 -55 -26 -25 -10 -58 -24 -73 -32 -30 -15 -86 -20 -73
-6 9 9 176 70 196 71 8 1 10 -2 5 -7z m120 -1 c-6 -5 -40 -19 -77 -31 -38 -13
-68 -27 -68 -31 0 -5 -12 -9 -27 -9 -38 0 -24 10 70 47 82 32 120 41 102 24z
m514 6 c-22 -18 -79 -44 -79 -38 0 9 58 40 74 41 5 0 7 -1 5 -3z m121 -7 c0
-5 -8 -10 -17 -10 -15 0 -16 2 -3 10 19 12 20 12 20 0z m-1730 -20 c0 -5 -7
-10 -16 -10 -8 0 -12 5 -9 10 3 6 10 10 16 10 5 0 9 -4 9 -10z m440 -18 c0 -8
-43 -32 -55 -32 -14 0 -2 18 18 28 28 13 37 14 37 4z m1277 -8 c-3 -3 -12 -4
-19 -1 -8 3 -5 6 6 6 11 1 17 -2 13 -5z m-347 -44 c0 -11 -16 -14 -75 -11 -22
1 -64 -5 -93 -12 -48 -13 -53 -13 -50 2 2 12 20 17 78 22 127 9 140 9 140 -1z
m110 0 c0 -13 -46 -24 -62 -14 -9 6 -2 11 22 15 19 4 36 7 38 8 1 0 2 -3 2 -9z
m250 0 c0 -5 -7 -10 -15 -10 -8 0 -15 5 -15 10 0 6 7 10 15 10 8 0 15 -4 15
-10z m-1116 -10 c-5 -5 -36 -12 -69 -14 l-60 -6 40 14 c47 17 104 21 89 6z
m141 -5 c-41 -13 -60 -11 -50 6 4 5 25 9 48 8 l42 -1 -40 -13z m335 5 c5 -1
-79 -26 -120 -35 -14 -3 -19 -2 -12 1 6 3 12 10 12 16 0 7 -22 8 -65 3 -54 -5
-65 -4 -65 9 0 12 18 14 123 11 67 -2 124 -4 127 -5z m-1307 -20 c-4 -4 -25
-10 -45 -13 -28 -4 -38 -2 -38 8 0 9 14 15 38 17 42 4 58 -1 45 -12z m291 11
c6 -9 -98 -36 -181 -46 -36 -5 -53 -3 -53 4 0 6 11 11 24 11 14 0 28 5 32 11
3 6 19 9 35 5 16 -3 29 -1 29 4 0 8 15 11 92 18 9 1 19 -2 22 -7z m206 -10 c0
-14 -10 -20 -37 -25 -91 -15 -103 -4 -30 26 55 22 67 22 67 -1z m1452 -36 c3
-11 7 -47 7 -80 1 -33 5 -76 9 -95 15 -65 15 -65 -126 -67 -70 -1 -194 -10
-277 -19 -83 -9 -217 -16 -300 -16 -82 1 -256 -6 -385 -15 -129 -9 -347 -18
-485 -19 -137 -1 -259 -3 -270 -5 -27 -3 98 -18 223 -25 94 -6 104 -8 122 -31
28 -35 25 -54 -3 -22 -25 28 -87 47 -87 26 0 -6 16 -28 36 -47 20 -19 45 -52
56 -74 l20 -39 -81 6 c-73 5 -81 3 -86 -14 -4 -10 -10 -19 -14 -19 -4 0 -16
-6 -26 -14 -16 -12 -17 -16 -6 -30 9 -10 9 -16 3 -16 -6 0 -29 24 -51 53 -21
28 -89 101 -150 161 -66 64 -114 119 -117 135 -4 14 -12 31 -19 36 -7 6 -16
48 -20 99 l-8 89 52 -6 c36 -4 53 -3 57 6 3 8 48 13 152 15 251 6 365 7 417 4
28 -2 277 0 555 3 490 5 701 13 650 24 -17 4 -8 7 30 11 96 9 114 7 122 -15z
m-2003 -282 c10 -19 9 -23 -4 -23 -10 0 -15 9 -15 27 0 29 2 29 19 -4z m2021
-1 c0 -15 4 -43 10 -61 6 -22 6 -39 0 -46 -5 -7 -7 -15 -3 -18 3 -4 1 -7 -5
-7 -14 0 -53 -60 -46 -71 2 -4 -17 -36 -43 -72 -83 -111 -143 -195 -143 -199
0 -2 10 -4 22 -5 23 -2 83 54 161 150 21 26 43 47 48 47 13 0 11 -54 -3 -68
-9 -9 -9 -12 1 -12 8 0 11 -6 7 -15 -3 -9 1 -18 9 -21 11 -5 15 -23 15 -75 0
-38 -3 -69 -7 -69 -5 0 -24 -14 -43 -31 -131 -114 -201 -171 -205 -167 -2 2
21 32 52 66 30 35 53 66 49 69 -3 3 -14 -3 -23 -13 -10 -11 -32 -30 -50 -42
-29 -21 -116 -124 -139 -165 -11 -19 -123 -143 -189 -209 -30 -30 -36 -41 -26
-47 11 -7 10 -14 -5 -35 -11 -14 -25 -26 -31 -26 -17 0 -16 4 7 49 10 21 17
41 14 44 -3 3 11 31 31 62 20 31 30 55 24 53 -12 -4 -101 -134 -116 -168 -3
-8 -15 -35 -26 -60 -11 -25 -28 -64 -38 -86 -9 -23 -22 -45 -28 -48 -6 -4 -11
-16 -11 -26 0 -21 -46 -109 -74 -141 -21 -25 -32 -19 -17 9 13 25 15 50 2 37
-10 -12 -51 -126 -51 -143 0 -7 -12 -39 -27 -72 -25 -57 -44 -73 -58 -49 -4 6
-19 7 -37 4 -23 -6 -29 -4 -26 6 3 8 18 16 34 19 19 4 25 8 16 13 -16 11 -6
27 18 27 15 0 39 40 105 172 47 94 90 177 95 183 10 12 4 25 -12 25 -5 0 -29
-42 -54 -93 -37 -77 -44 -86 -39 -52 l6 40 -23 -36 c-13 -20 -33 -51 -44 -69
l-22 -32 -7 30 c-4 21 0 42 13 69 11 21 25 63 32 93 18 82 51 150 74 150 12 0
16 5 12 15 -3 8 -1 15 5 15 5 0 20 22 32 49 20 47 23 50 59 48 l37 -1 -47 -43
c-41 -38 -46 -48 -19 -44 12 2 8 -6 -10 -20 -11 -10 -14 -10 -9 -1 4 6 4 12 1
12 -12 0 -35 -29 -35 -44 0 -8 -7 -22 -16 -30 -8 -9 -13 -20 -9 -25 3 -5 1
-12 -5 -16 -17 -10 -12 -35 6 -28 12 4 11 -1 -5 -28 -29 -48 -27 -71 4 -34 13
17 24 40 25 53 0 12 5 22 11 22 6 0 9 9 6 19 -3 12 4 28 19 42 13 12 24 28 24
35 0 6 9 22 19 35 l20 24 -6 -22 c-13 -55 29 -13 137 133 63 86 129 174 145
196 35 47 96 111 144 151 19 15 31 30 27 34 -3 3 -15 -2 -26 -12 -11 -10 -20
-13 -20 -7 0 6 5 14 10 17 6 3 10 12 10 18 0 7 -4 6 -10 -3 -5 -8 -12 -11 -16
-8 -3 4 3 19 14 35 10 15 20 43 20 61 1 48 32 96 65 100 15 2 27 8 27 13 0 5
9 18 19 28 16 16 18 26 11 55 -4 20 -5 36 -2 36 3 0 1 5 -6 12 -18 18 -15 28
8 28 11 0 20 6 20 14 0 10 -7 12 -22 8 -23 -5 -23 -5 -4 17 14 15 16 25 9 32
-17 17 -55 -8 -48 -30 4 -15 0 -18 -22 -18 -16 0 -56 -6 -91 -13 -62 -12 -90
-8 -62 10 8 5 22 7 30 5 9 -3 24 9 38 28 31 46 28 56 -8 22 -16 -16 -30 -24
-30 -18 0 5 20 30 45 54 48 47 58 79 26 79 -11 0 -23 -4 -26 -10 -3 -5 -18
-10 -33 -10 -15 0 -36 -7 -46 -15 -11 -8 -34 -15 -50 -15 -17 0 -43 -6 -58
-14 -14 -8 -50 -17 -80 -20 -37 -4 -47 -3 -33 3 11 6 40 19 65 31 25 11 58 28
73 36 17 10 93 23 188 33 87 10 162 21 166 24 3 4 28 7 55 7 46 0 48 -1 48
-28z m-950 -31 c0 -15 -37 -23 -62 -15 -23 8 -20 10 55 23 4 0 7 -3 7 -8z
m427 3 c-3 -3 -23 -7 -44 -9 -21 -2 -49 -6 -63 -10 -24 -6 -24 -6 -6 9 18 15
128 24 113 10z m-1458 -67 c1 -15 46 -97 54 -97 8 0 4 40 -4 45 -5 4 -9 12 -9
18 1 18 30 -24 30 -43 0 -9 15 -30 33 -47 68 -64 177 -197 177 -217 0 -6 -17
6 -37 25 -21 20 -52 45 -69 57 -17 12 37 -47 121 -131 99 -99 177 -188 225
-257 87 -124 88 -125 96 -118 3 4 -7 26 -23 50 -48 70 -47 76 1 23 25 -27 46
-53 46 -58 0 -5 16 -41 35 -81 19 -40 35 -78 35 -84 0 -6 6 -13 13 -16 7 -4 8
-8 2 -11 -6 -3 -9 -36 -7 -83 2 -42 2 -75 -1 -72 -2 3 -19 59 -37 125 -33 118
-68 214 -69 185 0 -8 6 -33 14 -55 25 -68 17 -63 -30 20 -25 44 -56 91 -69
105 -12 14 -33 42 -45 63 -13 20 -27 37 -32 37 -4 0 -16 14 -25 32 -9 18 -23
38 -30 46 -8 7 -14 17 -14 22 0 5 -10 12 -22 16 -13 4 -63 44 -111 90 -48 46
-92 84 -97 84 -4 0 -30 28 -58 63 -27 34 -68 81 -91 104 -36 37 -42 49 -51
110 -5 37 -10 78 -10 91 l0 24 29 -24 c17 -13 30 -31 30 -41z m930 59 c-2 -2
-14 -9 -26 -15 -19 -10 -23 -9 -23 4 0 10 9 15 27 15 14 0 24 -2 22 -4z m308
-2 c-3 -3 -12 -4 -19 -1 -8 3 -5 6 6 6 11 1 17 -2 13 -5z m-422 -14 c-3 -5
-20 -10 -36 -10 -18 0 -28 4 -24 10 3 6 20 10 36 10 18 0 28 -4 24 -10z m505
0 c0 -5 -8 -10 -17 -10 -15 0 -16 2 -3 10 19 12 20 12 20 0z m-780 -74 c0 -5
-11 1 -25 14 -14 13 -25 31 -25 39 1 11 9 6 25 -14 14 -16 25 -34 25 -39z
m136 46 c-3 -5 -23 -15 -46 -22 -30 -10 -43 -11 -52 -2 -12 12 -4 18 42 25 45
8 61 7 56 -1z m673 -16 c-21 -18 -167 -86 -214 -101 -33 -9 -71 -22 -84 -27
-31 -12 -40 -2 -10 12 118 52 324 130 308 116z m-306 -21 c-40 -17 -268 -92
-308 -101 -66 -15 -5 15 100 49 61 20 130 43 155 51 59 19 97 20 53 1z m-303
-4 c0 -5 -9 -11 -20 -14 -22 -6 -28 8 -7 16 19 8 27 8 27 -2z m885 -10 c-3 -6
-11 -11 -17 -11 -6 0 -6 6 2 15 14 17 26 13 15 -4z m-65 -26 c-7 -9 -15 -13
-17 -11 -7 7 7 26 19 26 6 0 6 -6 -2 -15z m-543 -6 c-29 -17 -220 -79 -225
-74 -9 9 1 13 108 49 108 35 151 45 117 25z m280 5 c-3 -3 -12 -4 -19 -1 -8 3
-5 6 6 6 11 1 17 -2 13 -5z m677 -16 c-4 -7 -9 -20 -9 -29 -1 -9 -19 -41 -41
-70 -127 -176 -139 -191 -131 -167 3 9 40 64 82 122 42 58 74 109 71 114 -6
10 23 56 31 48 3 -2 1 -11 -3 -18z m-529 -10 c-46 -24 -95 -40 -95 -30 0 7
106 50 125 51 6 0 -8 -9 -30 -21z m-871 -23 c3 -8 1 -15 -4 -15 -6 0 -10 7
-10 15 0 8 2 15 4 15 2 0 6 -7 10 -15z m403 -11 c-3 -3 -12 -4 -19 -1 -8 3 -5
6 6 6 11 1 17 -2 13 -5z m997 -33 c-10 -17 -22 -31 -26 -31 -5 0 2 15 14 34
28 42 37 39 12 -3z m-326 -8 c-10 -2 -26 -2 -35 0 -10 3 -2 5 17 5 19 0 27 -2
18 -5z m88 0 c-11 -12 -56 -14 -56 -3 0 5 14 10 32 10 17 0 28 -3 24 -7z
m-338 -10 c-10 -2 -26 -2 -35 0 -10 3 -2 5 17 5 19 0 27 -2 18 -5z m297 -32
c66 -1 97 -13 79 -31 -7 -7 -41 -8 -102 -2 -83 7 -114 3 -79 -11 15 -7 -34
-10 -90 -7 -26 1 -43 -3 -43 -9 0 -6 -7 -11 -15 -11 -8 0 -15 5 -15 11 0 5 -4
7 -10 4 -29 -18 4 -25 133 -27 l142 -3 -40 -27 c-35 -23 -52 -27 -147 -31 -60
-2 -111 0 -116 5 -6 6 -58 6 -138 -1 -181 -15 -443 -16 -457 -2 -7 7 -59 11
-144 11 -92 0 -133 3 -133 11 0 8 14 10 40 6 22 -3 40 -1 40 4 0 5 -11 9 -24
9 -22 0 -59 29 -40 31 5 1 59 3 119 4 61 2 133 5 160 8 28 2 88 8 135 12 47 4
99 8 115 10 17 2 54 7 84 10 29 3 58 9 65 13 15 10 190 19 316 16 58 -1 132
-2 165 -3z m-1225 -21 c0 -18 -6 -20 -60 -18 -33 1 -57 5 -53 9 7 6 71 23 106
28 4 1 7 -8 7 -19z m-430 -15 c13 -14 20 -28 17 -32 -4 -3 -8 -4 -9 -2 -2 2
-14 16 -27 32 -31 34 -13 36 19 2z m515 5 c-3 -5 -22 -10 -41 -10 -21 0 -33 4
-29 10 3 6 22 10 41 10 21 0 33 -4 29 -10z m140 0 c-3 -5 -17 -10 -30 -10 -13
0 -27 5 -30 10 -4 6 8 10 30 10 22 0 34 -4 30 -10z m100 0 c-28 -12 -85 -12
-85 0 0 6 24 10 53 9 38 0 47 -3 32 -9z m113 3 c-15 -2 -42 -2 -60 0 -18 2 -6
4 27 4 33 0 48 -2 33 -4z m-438 -48 c0 -13 5 -27 10 -30 13 -8 13 -25 -1 -25
-5 0 -31 9 -56 21 -82 37 -63 1 25 -47 24 -13 37 -15 39 -8 3 9 10 9 28 0 14
-6 25 -14 25 -18 0 -5 18 -8 39 -8 33 0 48 -8 96 -52 60 -54 99 -117 89 -142
-4 -10 -19 -16 -42 -16 -19 0 -44 -8 -54 -17 -17 -15 -19 -15 -33 3 -9 10 -25
36 -36 57 -11 21 -23 35 -28 33 -5 -3 -30 18 -56 47 -26 28 -80 87 -121 130
-41 42 -73 77 -72 78 2 0 16 3 33 5 16 3 31 7 33 8 2 2 21 4 42 4 36 1 40 -2
40 -23z m-38 -141 c68 -69 127 -133 132 -142 5 -10 15 -21 23 -25 7 -4 20 -22
29 -40 16 -31 15 -31 -19 8 -36 40 -50 38 -21 -3 35 -51 1 -16 -72 74 -44 53
-104 127 -135 164 -31 37 -60 73 -63 79 -19 30 13 0 126 -115z m1251 74 c-13
-12 -25 -19 -29 -15 -10 10 16 37 34 37 13 0 12 -4 -5 -22z m-35 -30 c5 -19 5
-44 0 -58 -8 -24 -7 -24 17 5 13 16 27 26 31 22 9 -9 -46 -68 -57 -61 -5 3 -6
-1 -3 -9 3 -8 0 -18 -7 -23 -8 -4 -10 -3 -5 4 4 7 2 10 -6 7 -17 -7 -112 -145
-104 -152 3 -3 21 6 41 21 19 15 35 24 35 21 0 -3 -21 -32 -47 -65 -27 -32
-84 -109 -127 -169 -44 -61 -81 -111 -82 -111 -9 0 12 42 27 56 10 9 19 25 19
34 0 23 -24 32 -40 17 -7 -7 -5 0 5 16 20 31 27 35 19 10 -10 -28 109 105 129
146 7 14 7 14 -5 1 -7 -9 -28 -26 -45 -39 -18 -12 -33 -29 -33 -37 0 -8 -7
-14 -15 -14 -8 0 -35 -21 -60 -47 l-44 -48 -98 0 c-54 -1 -90 1 -80 3 9 2 15
8 12 13 -4 5 16 9 45 9 31 0 57 6 66 14 15 15 2 32 -16 21 -5 -3 -55 -6 -111
-6 -74 0 -99 -3 -96 -12 2 -7 20 -13 40 -15 20 -2 37 -7 37 -13 0 -10 -39 -12
-200 -10 -114 2 -115 3 -140 31 -14 16 -36 49 -49 72 -20 36 -21 40 -5 27 15
-13 43 -17 124 -19 68 -1 107 -5 112 -13 4 -7 0 -15 -10 -19 -11 -4 -6 -7 17
-7 28 -1 31 1 22 13 -19 22 0 27 86 22 43 -3 131 -6 197 -7 116 -1 141 5 141
34 0 7 18 21 39 31 35 17 37 20 21 32 -20 15 -12 34 16 34 23 0 25 13 2 31
-13 11 -17 11 -20 2 -3 -8 -25 -13 -60 -13 -47 0 -54 2 -49 16 5 14 4 15 -9 4
-8 -7 -15 -8 -15 -4 0 15 51 86 58 80 3 -4 0 -12 -6 -18 -18 -18 -15 -27 7
-21 11 3 22 12 25 21 3 10 17 35 31 57 17 29 21 43 13 52 -8 10 -1 13 36 13
25 0 46 4 46 9 0 5 25 12 55 16 30 3 53 11 50 16 -4 5 -2 9 4 9 6 0 14 -15 19
-32z m-1252 -75 c-6 -6 -41 31 -57 62 -6 11 6 3 26 -18 20 -21 34 -41 31 -44z
m-136 -45 c54 -72 69 -98 55 -98 -2 0 -11 12 -20 28 -8 15 -29 43 -47 62 -25
28 -28 29 -15 8 24 -39 21 -45 -8 -18 -14 13 -25 33 -25 46 0 12 -7 27 -15 34
-8 7 -15 19 -15 27 0 23 20 3 90 -89z m411 85 c13 -16 12 -17 -3 -4 -10 7 -18
15 -18 17 0 8 8 3 21 -13z m589 8 c-19 -11 -179 -35 -186 -29 -3 3 28 12 68
21 84 17 141 21 118 8z m110 0 c0 -5 -8 -12 -17 -15 -10 -4 -38 -18 -63 -31
-25 -14 -55 -25 -67 -25 -27 0 -31 -17 -5 -23 10 -3 6 -5 -11 -6 -17 -1 -26 3
-22 9 8 14 3 13 -52 -9 -26 -10 -66 -21 -88 -25 -22 -4 -49 -10 -60 -13 -18
-5 -18 -4 -5 10 8 9 42 23 74 31 61 16 91 32 44 24 -16 -3 -25 -1 -21 5 3 5
21 7 39 4 42 -7 195 35 209 57 11 17 45 22 45 7z m39 -8 c-7 -10 -15 -20 -16
-22 -2 -2 -3 5 -3 17 0 14 6 22 16 22 14 0 15 -3 3 -17z m-598 -2 c-8 -5 -20
-7 -28 -4 -21 8 -15 13 15 13 20 0 23 -3 13 -9z m119 -1 c-36 -12 -70 -12 -70
0 0 6 21 10 48 9 38 -1 42 -2 22 -9z m440 -19 c0 -12 -20 -25 -27 -18 -7 7 6
27 18 27 5 0 9 -4 9 -9z m-566 -53 l16 -33 -20 24 c-11 13 -20 27 -20 32 0 17
9 9 24 -23z m126 4 c0 -4 -9 -8 -20 -9 -11 -1 -18 2 -15 8 7 11 35 12 35 1z
m398 -17 c-12 -27 -34 -35 -24 -9 3 9 6 20 6 25 0 5 7 9 15 9 12 0 13 -4 3
-25z m-61 9 c-3 -3 -12 -4 -19 -1 -8 3 -5 6 6 6 11 1 17 -2 13 -5z m757 -10
c9 -24 7 -28 -9 -14 -17 14 -20 30 -6 30 5 0 12 -7 15 -16z m-372 -16 c-7 -7
-12 -8 -12 -2 0 6 3 14 7 17 3 4 9 5 12 2 2 -3 -1 -11 -7 -17z m-1302 -43 c19
-22 20 -26 5 -15 -25 19 -44 42 -45 55 0 6 3 6 8 0 4 -6 18 -23 32 -40z m1650
32 c0 -17 -74 -206 -86 -217 -13 -13 -15 -13 -20 6 -4 16 -11 19 -35 16 -16
-2 -29 0 -29 6 0 11 29 26 47 23 6 -1 14 3 18 9 3 5 15 10 26 10 10 0 19 4 19
10 0 5 -8 6 -17 3 -13 -5 -11 3 10 31 16 20 33 53 38 72 6 19 14 34 19 34 6 0
10 -1 10 -3z m-1152 -32 c10 -21 9 -25 -5 -25 -9 0 -13 3 -10 6 3 4 2 15 -4
25 -5 11 -6 19 -1 19 5 0 14 -11 20 -25z m792 16 c0 -5 -7 -11 -14 -14 -10 -4
-13 -1 -9 9 6 15 23 19 23 5z m-362 -30 c-7 -12 -18 -21 -25 -21 -7 0 -2 10
10 23 26 28 33 27 15 -2z m656 -16 c-4 -8 -16 -15 -27 -15 -20 0 -20 0 -1 15
25 19 35 19 28 0z m-1523 -42 c13 -16 12 -17 -3 -4 -10 7 -18 15 -18 17 0 8 8
3 21 -13z m963 1 c19 -7 21 -24 3 -24 -7 0 -18 -9 -25 -20 -8 -13 -18 -17 -29
-13 -10 4 -5 -5 12 -21 17 -15 25 -25 20 -23 -6 3 -144 11 -307 18 -164 7
-303 16 -310 20 -10 7 -10 11 1 21 10 10 12 10 7 1 -4 -8 -1 -13 8 -13 8 0 16
6 19 13 3 10 11 10 39 0 19 -7 68 -13 109 -12 l74 1 -53 13 c-30 7 -56 15 -58
18 -3 3 89 5 203 5 169 1 241 6 270 21 1 1 8 -2 17 -5z m644 -59 c1 -56 -1
-66 -19 -75 -19 -11 -20 -10 -5 17 10 20 11 34 4 46 -10 18 -2 77 11 77 3 0 8
-29 9 -65z m-1163 45 c-3 -5 -27 -9 -53 -9 l-47 2 40 7 c61 11 67 11 60 0z
m-381 -110 c106 -155 182 -288 212 -372 28 -80 7 -59 -47 45 -23 45 -54 100
-68 122 -40 63 -61 104 -61 119 0 8 -5 16 -12 18 -6 2 -17 19 -23 38 -6 18
-20 38 -30 44 -31 18 -64 60 -65 81 0 16 7 12 35 -20 19 -22 45 -56 59 -75z
m-424 85 c0 -2 -9 -9 -20 -15 -16 -9 -20 -8 -20 5 0 8 9 15 20 15 11 0 20 -2
20 -5z m60 -38 c0 -7 -16 -21 -35 -30 -69 -33 -72 -15 -4 23 42 23 39 23 39 7z
m585 -96 c14 -35 24 -65 22 -67 -2 -3 -17 26 -33 63 -15 37 -32 75 -38 83 -9
13 -8 13 6 0 9 -8 28 -44 43 -79z m1279 54 c-4 -8 -10 -15 -16 -15 -5 0 -7 -8
-4 -18 4 -13 -3 -25 -24 -40 -34 -25 -41 -15 -10 13 11 10 20 23 20 28 0 10
29 47 36 47 2 0 1 -7 -2 -15z m-1824 -14 c0 -17 41 -23 71 -11 35 15 49 6 27
-17 -14 -13 -28 -14 -95 -7 l-78 9 30 17 c35 20 45 22 45 9z m174 -40 c3 -5
-1 -11 -9 -15 -23 -8 -18 -29 5 -23 13 3 20 0 20 -9 0 -8 -10 -14 -25 -14 -14
0 -25 5 -25 10 0 16 -30 12 -36 -5 -10 -24 -143 -14 -151 11 -3 8 9 9 38 4 47
-9 91 1 134 30 34 22 41 24 49 11z m-314 -32 c0 -6 -4 -7 -10 -4 -5 3 -10 11
-10 16 0 6 5 7 10 4 6 -3 10 -11 10 -16z m2010 8 c0 -22 -26 -51 -38 -43 -13
8 -16 39 -5 49 11 12 43 7 43 -6z m-1980 -75 c0 -9 -7 -6 -20 11 -11 14 -20
29 -20 33 0 4 9 -1 20 -11 11 -10 20 -25 20 -33z m1927 29 c10 -16 8 -23 -13
-44 -14 -14 -42 -33 -62 -43 -20 -9 -51 -33 -68 -52 -17 -20 -39 -36 -50 -37
-13 -1 12 30 76 97 52 54 97 98 100 98 3 0 11 -9 17 -19z m-1873 -22 c26 -43
14 -46 -18 -4 -17 22 -22 35 -14 35 8 0 22 -14 32 -31z m769 11 c88 2 99 1 92
-9 -3 -5 -1 -12 5 -16 6 -3 13 1 16 9 4 11 19 16 50 16 44 0 58 -12 28 -24
-30 -11 -3 -27 34 -20 20 4 43 7 50 7 7 0 11 6 8 14 -4 9 4 13 27 13 18 0 28
-4 22 -8 -5 -4 -12 -16 -13 -27 -8 -47 -85 -82 -95 -43 -5 19 -27 25 -27 8 0
-5 5 -10 10 -10 6 0 10 -4 10 -9 0 -4 -32 -9 -72 -10 -39 -1 -75 -4 -79 -7 -4
-2 -33 7 -64 21 -41 18 -56 29 -51 40 3 9 -3 19 -14 25 -11 6 -24 20 -31 31
-10 19 -9 20 11 9 12 -6 49 -11 83 -10z m422 0 c3 -6 -1 -7 -9 -4 -18 7 -21
14 -7 14 6 0 13 -4 16 -10z m-1308 -47 c-3 -10 -5 -2 -5 17 0 19 2 27 5 18 2
-10 2 -26 0 -35z m763 37 c0 -5 -2 -10 -4 -10 -3 0 -8 5 -11 10 -3 6 -1 10 4
10 6 0 11 -4 11 -10z m1119 -7 c-38 -49 -53 -53 -23 -8 9 14 21 25 26 25 6 0
4 -8 -3 -17z m-1659 -8 c-8 -16 -36 -16 -56 0 -18 14 -16 15 21 13 22 -2 38
-7 35 -13z m554 -21 c3 -8 2 -12 -4 -9 -6 3 -10 10 -10 16 0 14 7 11 14 -7z
m-710 -13 c10 -11 30 -21 44 -23 19 -2 28 -11 33 -32 5 -17 20 -40 34 -53 26
-24 35 -76 15 -88 -5 -3 -10 -16 -10 -28 -1 -22 -1 -22 -15 -3 -13 17 -15 17
-15 4 0 -9 5 -20 10 -23 7 -4 6 -14 -1 -28 -17 -32 -18 -32 -34 -11 -19 25
-19 79 -1 107 10 14 13 39 11 67 -2 25 -4 48 -4 53 -1 4 -9 7 -20 7 -10 0 -32
5 -50 11 -23 8 -31 17 -31 35 0 29 11 31 34 5z m140 -9 c2 -4 0 -14 -5 -22 -8
-13 -10 -13 -19 0 -5 8 -10 18 -10 23 0 10 28 9 34 -1z m612 -127 c8 -22 22
-109 32 -192 9 -84 20 -153 25 -153 4 0 5 29 2 65 -4 54 -3 65 10 65 10 0 16
-11 17 -37 5 -114 3 -179 -5 -184 -5 -4 -5 -14 2 -26 11 -21 6 -33 -15 -33 -7
0 -11 8 -9 18 14 71 14 82 -1 82 -11 0 -13 -6 -9 -20 3 -11 3 -25 -1 -31 -10
-17 -24 12 -17 38 5 22 -29 170 -48 205 -12 22 -37 176 -44 263 l-5 70 26 -45
c14 -25 32 -63 40 -85z m-799 -23 c2 -131 -10 -101 -21 53 -5 72 -4 87 6 77 9
-9 14 -51 15 -130z m233 108 c0 -5 -4 -10 -10 -10 -5 0 -10 5 -10 10 0 6 5 10
10 10 6 0 10 -4 10 -10z m1701 -26 c-17 -14 -39 -40 -47 -57 -11 -21 -18 -26
-24 -17 -6 9 -14 8 -36 -6 l-29 -18 20 23 c25 31 136 113 143 107 2 -3 -10
-17 -27 -32z m-1065 11 c19 -8 42 -22 52 -32 16 -16 17 -16 20 5 4 26 2 26 39
7 16 -8 46 -16 65 -17 60 -5 31 -18 -38 -18 -36 0 -64 -4 -64 -10 0 -5 24 -10
54 -10 30 0 58 -4 61 -10 3 -5 -5 -29 -19 -53 -28 -46 -32 -67 -16 -67 6 0 10
6 10 13 0 7 7 22 15 33 12 17 12 13 0 -30 -8 -27 -15 -59 -15 -71 0 -12 -11
-34 -25 -49 -30 -33 -32 -50 -5 -41 18 6 20 2 20 -39 0 -43 6 -51 32 -47 4 0
2 -10 -4 -24 -6 -14 -17 -25 -24 -25 -7 0 -26 -11 -42 -25 -35 -29 -42 -31
-42 -10 0 8 -8 15 -17 15 -15 0 -15 2 2 14 17 12 19 31 23 166 3 112 2 151 -7
146 -7 -5 -11 2 -11 18 0 48 -41 116 -71 116 -10 0 -10 -3 -1 -12 14 -14 16
-68 2 -68 -5 0 -10 1 -11 3 0 1 -3 22 -6 47 -3 25 -9 47 -14 48 -10 4 -13 42
-4 42 3 0 21 -7 41 -15z m-777 -11 c2 -2 -2 -10 -8 -18 -9 -11 -9 -19 0 -34
10 -16 8 -24 -11 -50 -17 -23 -21 -39 -17 -64 3 -20 0 -41 -8 -51 -11 -16 -13
-12 -17 30 -2 26 -1 61 4 77 4 16 4 34 -1 40 -8 10 -15 57 -12 78 1 7 61 0 70
-8z m91 -6 c0 -6 -6 -5 -15 2 -8 7 -15 14 -15 16 0 2 7 1 15 -2 8 -4 15 -11
15 -16z m930 8 c0 -9 -39 -13 -51 -5 -10 6 -4 9 19 9 17 0 32 -2 32 -4z m806
-78 c-9 -13 -23 -62 -32 -108 -8 -46 -22 -98 -31 -114 -18 -35 -75 -126 -79
-126 -2 0 1 12 6 28 4 15 11 40 15 55 3 16 19 41 36 56 25 23 30 36 33 88 2
34 7 67 11 75 19 33 50 76 53 73 2 -2 -3 -14 -12 -27z m-1601 12 c3 -5 2 -10
-4 -10 -5 0 -13 5 -16 10 -3 6 -2 10 4 10 5 0 13 -4 16 -10z m1715 -36 c0 -13
-4 -24 -10 -24 -5 0 -10 -10 -11 -22 0 -13 -5 -32 -10 -43 -6 -14 -8 -1 -4 43
3 35 7 68 11 73 9 16 24 -1 24 -27z m-1133 -61 c-3 -10 -5 -4 -5 12 0 17 2 24
5 18 2 -7 2 -21 0 -30z m479 9 c-18 -16 -18 -16 -6 6 6 13 14 21 18 18 3 -4
-2 -14 -12 -24z m460 -30 c-9 -8 -26 10 -26 26 1 15 2 15 15 -2 8 -11 13 -21
11 -24z m-971 -19 c2 -22 -1 -46 -6 -54 -6 -9 -9 6 -9 45 0 65 9 71 15 9z
m-675 -7 c-17 -22 -32 -9 -19 16 8 14 14 17 22 9 7 -7 6 -15 -3 -25z m1155 -2
c-8 -20 -15 -39 -15 -42 0 -3 -2 -3 -5 0 -6 5 22 78 30 78 3 0 -2 -16 -10 -36z
m624 -1 c-4 -21 -17 -63 -28 -93 l-20 -55 0 37 c-1 32 40 148 52 148 2 0 1
-17 -4 -37z m-1058 -35 l-9 -33 -1 41 c-1 22 2 44 7 48 12 12 14 -19 3 -56z
m-671 22 c0 -10 -18 -47 -41 -82 -22 -35 -58 -91 -79 -125 -24 -39 -44 -61
-53 -58 -8 4 -17 -9 -25 -37 -6 -24 -21 -54 -32 -68 -18 -23 -20 -23 -19 -5 0
11 11 38 24 60 14 22 25 46 25 53 0 7 15 34 32 60 18 26 33 50 33 54 0 3 24
43 54 87 53 79 81 101 81 61z m-234 -91 c-2 -55 -9 -106 -15 -112 -8 -8 -11 0
-11 30 0 23 4 44 9 47 5 3 6 35 3 71 -3 45 -1 65 7 65 8 0 10 -29 7 -101z m69
52 c-2 -32 -10 -59 -24 -77 l-21 -27 0 46 c0 41 25 107 41 107 4 0 6 -22 4
-49z m652 27 c-3 -8 -6 -5 -6 6 -1 11 2 17 5 13 3 -3 4 -12 1 -19z m-588 -20
c-15 -27 -27 -30 -25 -5 0 14 7 23 18 23 12 0 14 -4 7 -18z m1587 -15 c-8 -15
-15 -25 -16 -21 0 12 23 58 27 54 3 -2 -2 -17 -11 -33z m-74 -25 c-8 -8 -9 -4
-5 13 4 13 8 18 11 10 2 -7 -1 -18 -6 -23z m-1408 -25 c-15 -27 -42 -70 -60
-98 -18 -27 -42 -69 -54 -92 -12 -24 -23 -43 -25 -43 -1 0 5 27 15 61 10 39
29 75 51 100 18 21 34 44 34 51 0 21 36 68 52 68 10 0 7 -12 -13 -47z m1772
-11 c-5 -36 -42 -132 -51 -132 -5 0 21 108 34 143 15 39 25 33 17 -11z m-905
1 c-12 -20 -14 -14 -5 12 4 9 9 14 11 11 3 -2 0 -13 -6 -23z m256 5 c-3 -8 -6
-5 -6 6 -1 11 2 17 5 13 3 -3 4 -12 1 -19z m-1275 -26 c-6 -9 -23 -38 -37 -64
-22 -42 -45 -69 -45 -53 0 3 16 39 36 81 27 54 40 72 48 64 8 -8 7 -15 -2 -28z
m222 4 c-6 -16 -24 -23 -24 -8 0 10 22 33 27 28 2 -2 1 -11 -3 -20z m46 -46
c-6 -12 -16 -20 -21 -18 -13 4 -11 23 4 23 7 0 11 11 10 25 -2 21 -1 22 8 8 7
-12 6 -24 -1 -38z m921 23 c-8 -15 -10 -15 -11 -2 0 17 10 32 18 25 2 -3 -1
-13 -7 -23z m776 -5 c-3 -7 -5 -2 -5 12 0 14 2 19 5 13 2 -7 2 -19 0 -25z
m-177 -20 c-8 -18 -20 -42 -28 -53 -13 -19 -14 -19 -7 4 14 46 36 93 42 87 3
-3 0 -20 -7 -38z m-959 -35 c-9 -38 -9 -38 -10 17 0 40 2 50 9 38 6 -10 7 -31
1 -55z m922 21 c-22 -48 -22 -49 -29 -42 -3 3 4 25 16 48 27 52 37 47 13 -6z
m-93 -7 c-1 -21 -1 -21 -15 -3 -8 10 -12 23 -9 28 9 14 24 -2 24 -25z m203 3
c-12 -52 -55 -176 -69 -197 -8 -12 -14 -28 -14 -34 0 -21 -72 -174 -88 -186
-41 -33 -40 -9 2 70 62 114 101 204 82 188 -8 -7 -18 -21 -21 -32 -8 -23 -25
-25 -25 -4 0 19 30 80 65 131 14 20 25 47 25 59 0 27 7 34 31 32 14 -1 17 -7
12 -27z m-580 5 c-3 -9 -8 -14 -10 -11 -3 3 -2 9 2 15 9 16 15 13 8 -4z
m-1129 -43 c-18 -53 -52 -112 -83 -143 -14 -14 -31 -34 -37 -45 -7 -10 -14
-17 -17 -14 -5 5 140 240 148 240 1 0 -3 -17 -11 -38z m1080 6 c-4 -18 -14
-46 -23 -63 -9 -16 -25 -56 -35 -88 -10 -32 -20 -56 -23 -53 -5 5 18 82 47
156 10 25 21 53 24 63 9 29 16 19 10 -15z m-1007 10 c7 -9 2 -26 -14 -53 l-25
-40 7 35 c4 19 7 43 7 53 -1 20 11 22 25 5z m873 -7 c0 -10 -11 -34 -24 -54
-14 -20 -26 -49 -28 -64 -2 -15 -13 -46 -24 -67 -19 -35 -22 -37 -27 -17 -3
11 -2 21 3 21 4 0 11 15 14 33 3 18 22 58 41 88 19 30 35 60 35 67 0 20 10 14
10 -7z m496 4 c-11 -8 -22 -12 -25 -9 -6 6 19 24 34 24 6 -1 1 -7 -9 -15z
m342 -7 c2 -76 -11 -267 -18 -263 -4 3 -30 -26 -58 -64 -43 -59 -54 -69 -73
-64 -21 6 -22 7 -3 14 27 9 46 34 65 83 9 22 23 41 30 41 38 1 56 45 18 45
-27 0 -46 -20 -70 -74 -17 -40 -39 -68 -39 -51 0 3 13 40 29 83 16 42 31 96
34 120 3 27 19 63 43 97 20 30 38 55 40 55 1 0 2 -10 2 -22z m-1667 -33 c-17
-20 -31 -41 -31 -48 0 -7 -4 -6 -10 3 -8 12 -10 12 -10 1 0 -8 -3 -12 -6 -9
-8 9 38 77 56 82 31 8 31 5 1 -29z m-201 -51 c-16 -26 -30 -43 -30 -37 0 18
54 107 57 96 2 -6 -10 -32 -27 -59z m1581 42 c15 -33 -22 -161 -52 -176 -17
-10 -20 -9 -17 7 2 13 -4 19 -25 21 -34 4 -34 32 1 47 25 11 30 35 7 35 -16 0
-19 9 -9 34 5 13 9 14 21 5 19 -17 43 5 25 23 -19 19 -14 28 13 28 17 0 29 -8
36 -24z m-381 10 c0 -3 -4 -8 -10 -11 -5 -3 -10 -1 -10 4 0 6 5 11 10 11 6 0
10 -2 10 -4z m-1282 -86 c-6 -25 -18 -54 -25 -65 -14 -18 -14 -17 -8 15 7 36
35 103 41 98 2 -2 -2 -24 -8 -48z m182 22 c0 -13 -51 -101 -76 -131 -2 -2 -10
2 -19 9 -13 10 -8 21 32 80 46 66 63 78 63 42z m140 24 c0 -11 -19 -15 -25 -6
-3 5 1 10 9 10 9 0 16 -2 16 -4z m45 -21 c0 -6 -10 -11 -22 -11 -23 -1 -29 7
-16 20 10 9 38 3 38 -9z m485 -5 c12 -8 11 -10 -7 -10 -13 0 -23 5 -23 10 0
13 11 13 30 0z m-580 -15 c-6 -8 -9 -19 -5 -24 3 -6 -12 -35 -35 -65 -22 -30
-40 -58 -40 -61 0 -9 -107 -161 -178 -252 -38 -50 -61 -88 -56 -95 4 -7 -2 -5
-12 5 -13 12 -16 21 -9 31 96 129 142 194 204 291 41 63 85 127 98 141 12 14
23 29 23 35 0 5 5 9 11 9 8 0 8 -4 -1 -15z m116 -22 c-11 -11 -19 6 -11 24 8
17 8 17 12 0 3 -10 2 -21 -1 -24z m-169 4 c-8 -13 -40 -62 -71 -110 -60 -92
-123 -163 -134 -152 -4 4 3 15 16 25 12 10 22 22 22 27 0 5 11 20 25 33 14 13
25 27 25 32 0 18 95 158 110 162 8 2 17 4 19 5 2 0 -4 -9 -12 -22z m1230 -9
c-3 -8 -6 -5 -6 6 -1 11 2 17 5 13 3 -3 4 -12 1 -19z m234 -1 c-10 -9 -11 -8
-5 6 3 10 9 15 12 12 3 -3 0 -11 -7 -18z m-1371 -23 c0 -4 -9 -23 -21 -43
l-21 -36 31 35 c23 26 34 31 42 23 9 -9 2 -25 -29 -67 -24 -31 -39 -61 -36
-69 3 -8 1 -18 -5 -22 -7 -4 -8 0 -5 10 5 12 -2 10 -29 -7 -20 -13 -36 -28
-37 -35 0 -7 -9 -21 -21 -32 l-20 -19 27 -25 c26 -24 26 -25 7 -36 -11 -5 -23
-8 -25 -5 -3 2 -22 -17 -43 -43 -54 -67 -55 -69 -55 -56 0 6 18 35 41 65 l41
53 -51 -53 c-72 -74 -65 -39 12 61 34 45 70 93 80 107 9 14 24 35 33 48 9 12
15 25 12 27 -3 3 -20 -16 -39 -42 -18 -26 -40 -55 -49 -64 -8 -8 -35 -44 -59
-78 -24 -33 -46 -59 -49 -56 -3 3 22 44 56 93 33 48 89 129 123 180 33 50 67
92 75 92 8 0 14 -3 14 -6z m64 -56 c-21 -29 -39 -55 -41 -57 -2 -2 -6 -2 -9 2
-3 3 13 31 36 62 23 31 44 54 47 51 3 -3 -12 -29 -33 -58z m100 47 c3 -8 12
-15 21 -15 24 0 18 -28 -7 -32 -28 -4 -36 -36 -12 -45 9 -3 25 -1 35 6 17 10
19 8 19 -14 0 -22 -3 -24 -19 -15 -28 14 -38 13 -60 -9 -19 -19 -19 -19 -16
15 1 19 -2 34 -6 34 -9 0 -13 -15 -10 -38 1 -8 -2 -19 -7 -25 -6 -7 -12 -25
-14 -42 -2 -24 2 -32 25 -43 31 -15 35 -37 8 -51 -15 -8 -21 -7 -26 7 -18 40
-22 97 -11 127 8 20 7 20 -8 0 -15 -18 -17 -18 -33 -2 -16 16 -16 18 3 39 12
13 34 44 50 70 29 48 57 61 68 33z m1239 -12 c-4 -10 -19 -43 -34 -73 -15 -30
-45 -94 -68 -142 -38 -80 -43 -87 -60 -76 -11 7 -17 18 -13 27 3 9 -6 5 -21
-9 -14 -14 -31 -38 -37 -54 -10 -28 -12 -29 -28 -12 -16 17 -15 19 21 50 43
39 49 61 12 54 -14 -3 -25 -2 -25 1 1 14 40 51 54 51 9 0 16 4 16 8 0 5 6 17
14 28 14 18 15 18 25 -8 19 -49 48 -19 112 112 27 56 47 82 32 43z m-1786 -14
c-4 -15 -2 -19 9 -15 17 6 18 1 4 -25 -15 -28 -25 -23 -24 11 2 44 3 50 10 50
4 0 4 -9 1 -21z m680 -21 c-3 -7 -5 -2 -5 12 0 14 2 19 5 13 2 -7 2 -19 0 -25z
m935 16 c16 -6 15 -10 -9 -41 -14 -18 -34 -38 -44 -44 -17 -9 -17 -7 -4 38 8
27 15 52 15 56 0 5 6 6 13 3 6 -3 20 -9 29 -12z m151 -89 c-20 -41 -39 -73
-40 -71 -10 10 59 145 74 146 2 0 -14 -34 -34 -75z m-1637 7 c-15 -15 -16 -15
-16 4 0 28 24 52 28 28 2 -9 -3 -24 -12 -32z m1514 3 c0 -8 -7 -15 -15 -15 -8
0 -33 -16 -55 -36 -24 -22 -40 -31 -40 -22 0 7 12 21 28 30 15 9 36 26 46 37
22 25 36 27 36 6z m367 -17 c-3 -8 -6 -5 -6 6 -1 11 2 17 5 13 3 -3 4 -12 1
-19z m-757 -33 c-16 -47 -23 -40 -8 8 6 20 13 35 16 33 2 -3 -1 -21 -8 -41z
m-1237 -7 c-5 -27 -23 -40 -23 -17 0 13 20 52 25 47 2 -1 1 -15 -2 -30z m1450
-33 c-25 -19 -28 -11 -6 18 13 19 19 21 21 10 2 -8 -5 -21 -15 -28z m-167 -13
c-11 -10 -15 4 -8 28 l7 25 3 -23 c2 -13 1 -26 -2 -30z m-1237 2 c-10 -13 -39
-20 -39 -10 0 20 14 33 31 29 15 -4 17 -8 8 -19z m1961 3 c0 -7 -5 -18 -12
-25 -9 -9 -9 -12 1 -12 10 0 12 -11 7 -47 -12 -89 -18 -118 -24 -123 -4 -3
-29 -48 -56 -100 -56 -107 -126 -214 -144 -218 -19 -3 -15 6 34 89 25 44 44
84 42 89 -2 6 -27 -30 -56 -80 l-53 -90 -42 6 c-23 4 -43 8 -45 9 -2 1 20 38
48 81 46 73 69 86 35 20 -21 -40 -13 -42 15 -4 15 20 23 44 22 67 -1 26 13 58
60 135 63 103 147 216 161 216 4 0 7 -6 7 -13z m-2000 -52 c0 -1 -7 -8 -15
-15 -13 -10 -15 -9 -15 8 0 15 5 20 15 16 8 -4 15 -7 15 -9z m278 3 c19 -19
14 -30 -8 -18 -11 6 -20 15 -20 20 0 14 14 12 28 -2z m-218 -6 c0 -4 -13 -22
-29 -39 -15 -17 -31 -38 -34 -47 -9 -23 -27 -20 -27 5 0 27 50 87 73 88 9 1
17 -2 17 -7z m1674 -3 c-3 -5 -12 -9 -20 -9 -8 0 -14 -9 -14 -20 0 -23 -18
-33 -51 -28 l-22 3 25 30 c18 21 35 30 57 31 16 1 28 -3 25 -7z m33 -11 c-3
-8 -6 -5 -6 6 -1 11 2 17 5 13 3 -3 4 -12 1 -19z m128 12 c-3 -5 -16 -15 -28
-21 -22 -12 -22 -12 -3 10 19 21 43 30 31 11z m-69 -11 c-13 -8 -15 -14 -7
-19 9 -5 8 -10 -2 -18 -11 -9 -13 -8 -12 6 1 24 14 42 28 42 7 0 4 -5 -7 -11z
m-75 -32 c-13 -13 -26 -3 -16 12 3 6 11 8 17 5 6 -4 6 -10 -1 -17z m-1341 9
c0 -3 -4 -8 -10 -11 -5 -3 -10 -1 -10 4 0 6 5 11 10 11 6 0 10 -2 10 -4z
m-110 -32 c0 -11 -5 -14 -16 -10 -9 3 -18 6 -20 6 -3 0 -2 5 1 10 10 16 35 12
35 -6z m1167 10 c-3 -3 -12 -4 -19 -1 -8 3 -5 6 6 6 11 1 17 -2 13 -5z m-125
-34 c5 -34 -5 -59 -16 -41 -4 6 -4 20 -1 31 4 12 2 20 -5 20 -6 0 -8 5 -5 10
11 18 23 10 27 -20z m246 18 c8 -8 6 -18 -10 -40 -25 -36 -31 -31 -23 16 8 38
14 43 33 24z m265 -5 c-3 -10 -12 -25 -18 -33 -7 -8 -27 -41 -45 -72 -17 -32
-36 -61 -42 -64 -22 -14 -16 7 17 56 19 28 33 56 30 61 -3 5 4 22 16 39 25 33
52 41 42 13z m-1633 -2 c0 -5 9 -11 20 -14 30 -8 24 -29 -19 -71 -34 -33 -39
-35 -34 -16 4 15 1 26 -10 31 -14 8 -13 13 6 44 21 33 37 44 37 26z m99 -32
c-25 -16 -32 -9 -13 12 12 13 20 16 22 9 3 -7 -2 -16 -9 -21z m1138 1 c1 -16
-2 -32 -7 -35 -6 -3 -7 1 -4 9 3 9 1 16 -5 16 -14 0 -14 -25 -1 -51 8 -14 17
-18 35 -13 15 4 25 2 25 -5 0 -6 7 -11 16 -11 13 0 13 -5 -6 -32 -12 -18 -24
-40 -27 -49 -3 -11 -12 -15 -24 -12 -17 5 -18 7 -2 37 9 17 21 34 27 38 8 6 7
8 -1 8 -10 0 -23 -15 -49 -58 -1 -1 -12 2 -25 7 -13 5 -32 12 -43 15 -17 6
-18 8 -2 24 19 22 21 39 4 44 -10 4 -10 13 0 46 12 41 13 41 77 50 6 1 11 -11
12 -28z m213 15 c0 -6 -15 -16 -33 -23 -43 -16 -48 -15 -40 4 10 26 73 43 73
19z m64 0 c-6 -16 -44 -21 -44 -7 0 14 12 22 31 22 12 0 16 -5 13 -15z m-1683
-38 c-10 -9 -11 -8 -5 6 3 10 9 15 12 12 3 -3 0 -11 -7 -18z m1691 -42 c-20
-35 -38 -58 -40 -50 -3 15 57 115 70 115 4 0 -10 -29 -30 -65z m-1478 21 c-3
-8 0 -17 6 -21 12 -7 -53 -75 -71 -75 -21 0 -6 37 28 72 41 42 45 45 37 24z
m1436 -6 c-6 -12 -22 -25 -35 -30 -14 -5 -30 -18 -37 -30 -7 -11 -16 -20 -20
-20 -8 0 26 53 52 82 8 10 23 17 33 18 15 0 16 -3 7 -20z m-1741 -64 c-9 -8
-10 -5 -5 14 3 14 7 34 7 45 1 11 4 5 6 -14 3 -19 -1 -39 -8 -45z m103 47 c-6
-10 -25 -31 -43 -48 l-33 -30 29 40 c43 61 48 66 52 61 3 -2 0 -13 -5 -23z
m1483 7 c-3 -5 -10 -10 -16 -10 -5 0 -9 5 -9 10 0 6 7 10 16 10 8 0 12 -4 9
-10z m-1055 -4 c0 -3 -4 -8 -10 -11 -5 -3 -10 -1 -10 4 0 6 5 11 10 11 6 0 10
-2 10 -4z m1512 -62 c-4 -62 -14 -80 -83 -154 -18 -19 -31 -35 -29 -35 2 0 -3
-10 -11 -22 -7 -13 -23 -23 -35 -23 -20 0 -16 11 45 129 36 71 70 127 75 124
5 -4 6 -1 3 5 -11 16 3 40 21 38 14 -3 16 -13 14 -62z m-1879 41 c-3 -9 -8
-14 -10 -11 -3 3 -2 9 2 15 9 16 15 13 8 -4z m239 3 c4 -10 10 -10 33 0 15 7
30 10 33 7 6 -6 -80 -92 -132 -133 -16 -12 -26 -25 -23 -28 7 -7 33 13 126 94
34 30 61 51 61 47 0 -14 -171 -175 -185 -175 -9 0 -12 6 -9 15 4 8 2 15 -4 15
-19 0 1 45 40 87 54 60 47 66 -11 9 -27 -27 -51 -43 -55 -38 -3 6 -2 13 4 17
5 3 10 11 10 18 0 8 -3 8 -12 -1 -7 -7 -17 -12 -22 -12 -6 1 12 21 39 45 50
45 99 59 107 33z m1198 -19 c-12 -16 -25 -28 -27 -25 -8 8 25 56 38 56 6 0 1
-14 -11 -31z m-1042 7 c-10 -7 -18 -17 -18 -22 0 -5 -36 -44 -80 -87 -60 -59
-84 -76 -95 -69 -13 6 4 27 81 100 53 51 104 92 113 92 14 -1 14 -2 -1 -14z
m-471 -38 c-38 -54 -54 -70 -61 -60 -4 6 10 29 30 52 38 42 58 47 31 8z m33
-37 c-8 -43 -48 -91 -76 -91 -27 0 -21 18 20 61 23 24 46 53 49 63 12 31 16
14 7 -33z m1494 37 c-4 -7 -25 -39 -46 -70 -21 -31 -43 -69 -48 -83 -6 -16
-17 -25 -31 -25 -22 0 -20 4 58 106 13 16 32 41 44 57 21 27 36 37 23 15z
m-1617 -25 c-9 -21 -9 -27 1 -31 19 -6 14 -37 -9 -58 l-21 -19 3 50 c3 49 16
85 31 85 4 0 2 -12 -5 -27z m623 -8 c14 -16 10 -18 -14 -9 -9 3 -16 10 -16 15
0 14 16 11 30 -6z m1099 -86 c-75 -110 -108 -121 -37 -11 62 93 78 113 89 106
5 -3 -18 -45 -52 -95z m-49 87 c0 -2 -8 -10 -17 -17 -16 -13 -17 -12 -4 4 13
16 21 21 21 13z m-1105 -16 c4 -6 -10 -29 -29 -52 -41 -47 -44 -58 -16 -51 10
3 18 8 17 12 -1 4 10 22 26 40 23 28 27 30 27 12 0 -12 -4 -21 -10 -21 -5 0
-10 -8 -10 -19 0 -32 -24 -43 -75 -35 l-46 6 22 24 c12 13 20 26 17 29 -2 3
-15 -6 -28 -20 -13 -14 -32 -25 -42 -25 -39 0 92 107 134 110 4 0 10 -5 13
-10z m-341 -11 c-4 -8 0 -9 15 -4 33 10 25 -16 -15 -49 -19 -16 -36 -27 -38
-25 -4 5 33 89 40 89 3 0 2 -5 -2 -11z m1476 -7 c0 -5 -9 -17 -20 -27 -22 -20
-26 -14 -10 16 11 19 30 26 30 11z m-1076 -41 c-6 -6 -24 19 -24 34 1 6 7 1
15 -9 8 -11 12 -22 9 -25z m166 29 c0 -5 -5 -10 -11 -10 -5 0 -7 5 -4 10 3 6
8 10 11 10 2 0 4 -4 4 -10z m680 -11 c0 -6 6 -7 13 -2 6 4 4 -5 -5 -20 -10
-15 -25 -38 -34 -52 -23 -35 -90 -36 -103 -2 -16 41 14 70 48 48 12 -8 13 -12
1 -25 -7 -9 -10 -19 -7 -22 3 -4 20 15 38 40 32 45 49 57 49 35z m140 -24
c-14 -17 -55 -21 -45 -5 4 6 10 8 15 5 5 -3 15 3 22 15 7 11 14 16 16 10 2 -6
-2 -17 -8 -25z m-340 15 c0 -5 -2 -10 -4 -10 -3 0 -8 5 -11 10 -3 6 -1 10 4
10 6 0 11 -4 11 -10z m-1150 -20 c0 -5 -7 -10 -16 -10 -8 0 -12 5 -9 10 3 6
10 10 16 10 5 0 9 -4 9 -10z m474 -35 c-4 -8 -11 -15 -16 -15 -6 0 -5 6 2 15
7 8 14 15 16 15 2 0 1 -7 -2 -15z m1026 -25 c-6 -11 -18 -20 -28 -20 -14 1
-13 4 7 20 29 25 34 25 21 0z m-872 3 c-10 -2 -26 -2 -35 0 -10 3 -2 5 17 5
19 0 27 -2 18 -5z"/>
<path d="M370 3380 c0 -5 6 -10 14 -10 8 0 18 5 21 10 3 6 -3 10 -14 10 -12 0
-21 -4 -21 -10z"/>
<path d="M1865 3380 c-3 -5 1 -10 9 -10 9 0 16 5 16 10 0 6 -4 10 -9 10 -6 0
-13 -4 -16 -10z"/>
<path d="M1710 3311 c0 -9 62 -22 70 -14 8 7 -24 23 -47 23 -13 0 -23 -4 -23
-9z"/>
<path d="M515 3300 c-3 -5 -1 -10 4 -10 6 0 11 5 11 10 0 6 -2 10 -4 10 -3 0
-8 -4 -11 -10z"/>
<path d="M418 3273 c7 -3 16 -2 19 1 4 3 -2 6 -13 5 -11 0 -14 -3 -6 -6z"/>
<path d="M1885 3020 c-3 -5 -2 -10 4 -10 5 0 13 5 16 10 3 6 2 10 -4 10 -5 0
-13 -4 -16 -10z"/>
<path d="M2070 2835 c0 -8 4 -15 10 -15 5 0 7 7 4 15 -4 8 -8 15 -10 15 -2 0
-4 -7 -4 -15z"/>
<path d="M1415 2760 c-3 -5 3 -10 14 -10 12 0 21 5 21 10 0 6 -6 10 -14 10 -8
0 -18 -4 -21 -10z"/>
<path d="M1503 2763 c15 -2 37 -2 50 0 12 2 0 4 -28 4 -27 0 -38 -2 -22 -4z"/>
<path d="M1333 2753 c15 -2 37 -2 50 0 12 2 0 4 -28 4 -27 0 -38 -2 -22 -4z"/>
<path d="M980 2742 c0 -9 -7 -11 -20 -7 -11 4 -20 2 -20 -4 0 -7 22 -11 53
-11 37 0 48 3 37 10 -12 8 -12 10 -1 10 8 0 11 3 8 6 -4 4 -14 1 -23 -6 -13
-12 -17 -11 -25 1 -7 11 -9 11 -9 1z"/>
<path d="M1128 2723 c6 -2 18 -2 25 0 6 3 1 5 -13 5 -14 0 -19 -2 -12 -5z"/>
<path d="M2126 2705 c4 -8 15 -15 25 -15 10 0 19 7 19 15 0 9 -9 15 -25 15
-18 0 -23 -4 -19 -15z"/>
<path d="M1965 2690 c-28 -7 -27 -8 13 -9 23 0 42 4 42 9 0 11 -11 11 -55 0z"/>
<path d="M2051 2679 c9 -17 6 -19 -26 -19 -19 0 -35 -4 -35 -10 0 -5 10 -8 23
-6 12 3 35 5 50 5 23 1 27 4 22 20 -4 14 0 21 12 24 10 2 1 4 -19 4 -34 1 -37
-1 -27 -18z"/>
<path d="M1715 2680 l-60 -7 80 -1 c55 -1 75 1 65 8 -8 5 -17 9 -20 8 -3 -1
-32 -4 -65 -8z"/>
<path d="M1865 2680 c4 -6 11 -8 16 -5 14 9 11 15 -7 15 -8 0 -12 -5 -9 -10z"/>
<path d="M1460 2661 c0 -8 6 -11 16 -7 9 3 24 6 35 6 10 0 19 3 19 8 0 4 -16
7 -35 7 -23 0 -35 -5 -35 -14z"/>
<path d="M1600 2670 c-13 -8 -12 -10 3 -10 9 0 17 5 17 10 0 12 -1 12 -20 0z"/>
<path d="M515 2660 c3 -5 10 -10 16 -10 5 0 9 5 9 10 0 6 -7 10 -16 10 -8 0
-12 -4 -9 -10z"/>
<path d="M602 2658 c6 -17 58 -23 72 -8 8 10 3 11 -21 8 -18 -3 -33 -1 -33 4
0 4 -5 8 -11 8 -6 0 -9 -6 -7 -12z"/>
<path d="M1220 2660 c0 -5 5 -10 11 -10 5 0 7 5 4 10 -3 6 -8 10 -11 10 -2 0
-4 -4 -4 -10z"/>
<path d="M1265 2660 c-15 -7 -9 -9 24 -9 24 -1 41 2 37 6 -10 11 -39 12 -61 3z"/>
<path d="M1380 2660 l-25 -8 28 -1 c15 -1 27 4 27 9 0 6 -1 10 -2 9 -2 -1 -14
-5 -28 -9z"/>
<path d="M1030 2649 c0 -5 9 -9 20 -9 11 0 20 2 20 4 0 2 -9 6 -20 9 -11 3
-20 1 -20 -4z"/>
<path d="M1125 2650 c3 -5 8 -10 11 -10 2 0 4 5 4 10 0 6 -5 10 -11 10 -5 0
-7 -4 -4 -10z"/>
<path d="M1168 2653 c7 -3 16 -2 19 1 4 3 -2 6 -13 5 -11 0 -14 -3 -6 -6z"/>
<path d="M1560 2629 c-30 -5 -27 -7 22 -8 31 0 59 2 62 7 5 9 -38 10 -84 1z"/>
<path d="M1768 2633 c12 -2 30 -2 40 0 9 3 -1 5 -23 4 -22 0 -30 -2 -17 -4z"/>
<path d="M1330 2620 c0 -5 7 -10 16 -10 8 0 12 5 9 10 -3 6 -10 10 -16 10 -5
0 -9 -4 -9 -10z"/>
<path d="M1380 2620 c0 -5 5 -10 11 -10 5 0 7 5 4 10 -3 6 -8 10 -11 10 -2 0
-4 -4 -4 -10z"/>
<path d="M1440 2626 c0 -2 7 -6 15 -10 8 -3 15 -1 15 4 0 6 -7 10 -15 10 -8 0
-15 -2 -15 -4z"/>
<path d="M1785 2520 c-3 -5 1 -10 9 -10 9 0 16 5 16 10 0 6 -4 10 -9 10 -6 0
-13 -4 -16 -10z"/>
<path d="M2166 2225 c-9 -26 -7 -32 5 -12 6 10 9 21 6 23 -2 3 -7 -2 -11 -11z"/>
<path d="M1930 2074 c0 -19 4 -25 14 -21 11 4 13 1 9 -11 -6 -15 -5 -15 10 -3
18 14 24 47 7 36 -6 -3 -13 1 -16 9 -10 25 -24 19 -24 -10z"/>
<path d="M2006 2059 c-15 -12 -25 -24 -22 -26 3 -3 12 2 20 10 9 8 21 17 28
20 7 2 10 7 7 11 -3 3 -18 -3 -33 -15z"/>
<path d="M1680 1595 c-7 -9 -11 -18 -8 -20 3 -3 11 1 18 10 7 9 11 18 8 20 -3
3 -11 -1 -18 -10z"/>
<path d="M1660 2230 c0 -5 14 -10 30 -10 17 0 30 5 30 10 0 6 -13 10 -30 10
-16 0 -30 -4 -30 -10z"/>
<path d="M1450 2180 c-22 -7 -21 -8 13 -9 20 -1 37 4 37 9 0 11 -14 11 -50 0z"/>
<path d="M1540 2179 c0 -5 5 -7 10 -4 6 3 10 8 10 11 0 2 -4 4 -10 4 -5 0 -10
-5 -10 -11z"/>
<path d="M1240 2170 c-13 -8 -12 -10 3 -10 9 0 17 5 17 10 0 12 -1 12 -20 0z"/>
<path d="M1280 2168 c0 -5 21 -8 46 -8 27 0 43 4 39 10 -7 11 -85 9 -85 -2z"/>
<path d="M1120 2160 c0 -5 5 -10 11 -10 5 0 7 5 4 10 -3 6 -8 10 -11 10 -2 0
-4 -4 -4 -10z"/>
<path d="M888 2153 c7 -3 16 -2 19 1 4 3 -2 6 -13 5 -11 0 -14 -3 -6 -6z"/>
<path d="M1681 2151 c-8 -6 -9 -11 -3 -15 6 -3 14 -1 17 5 9 14 2 20 -14 10z"/>
<path d="M740 1906 c0 -2 8 -10 18 -17 15 -13 16 -12 3 4 -13 16 -21 21 -21
13z"/>
<path d="M1330 1691 c0 -5 9 -7 20 -4 11 3 20 7 20 9 0 2 -9 4 -20 4 -11 0
-20 -4 -20 -9z"/>
<path d="M1926 134 c-4 -10 -1 -14 6 -12 15 5 23 28 10 28 -5 0 -13 -7 -16
-16z"/>
<path d="M2323 1060 c0 -36 2 -50 4 -32 2 17 2 47 0 65 -2 17 -4 3 -4 -33z"/>
<path d="M2331 904 c0 -11 3 -14 6 -6 3 7 2 16 -1 19 -3 4 -6 -2 -5 -13z"/>
<path d="M2330 799 c0 -11 5 -17 10 -14 6 3 10 13 10 21 0 8 -4 14 -10 14 -5
0 -10 -9 -10 -21z"/>
</g>
</svg>
