<?xml version="1.0" standalone="no"?>
<!DOCTYPE svg PUBLIC "-//W3C//DTD SVG 20010904//EN"
 "http://www.w3.org/TR/2001/REC-SVG-20010904/DTD/svg10.dtd">
<svg version="1.0" xmlns="http://www.w3.org/2000/svg"
 width="187.000000pt" height="164.000000pt" viewBox="0 0 187.000000 164.000000"
 preserveAspectRatio="xMidYMid meet">
<metadata>
Created by potrace 1.16, written by Peter Selinger 2001-2019
</metadata>
<g transform="translate(0.000000,164.000000) scale(0.100000,-0.100000)"
fill="#000000" stroke="none">
<path d="M1691 1580 l-19 -43 -442 1 c-304 1 -446 4 -455 12 -9 8 -14 8 -17
-1 -2 -7 -67 -12 -208 -14 -113 -1 -245 -8 -295 -15 -49 -6 -105 -13 -124 -15
-46 -3 -68 -33 -75 -98 -4 -28 -8 -339 -10 -689 -4 -619 -3 -637 16 -657 12
-14 26 -19 41 -16 32 8 613 11 1179 6 l488 -4 26 27 c23 22 28 37 32 99 2 39
-1 144 -8 232 -7 88 -14 185 -15 215 -1 30 -5 145 -10 255 -6 156 -4 242 9
390 9 111 13 205 8 225 -8 34 -10 35 -54 35 -25 0 -49 3 -52 6 -3 3 -1 22 5
43 15 54 3 57 -20 6z m-591 -91 c0 -5 5 -7 10 -4 17 11 11 -13 -7 -27 -10 -7
-18 -22 -18 -32 0 -11 -6 -21 -14 -24 -11 -4 -12 3 -7 32 4 23 3 36 -4 36 -17
0 -11 18 8 23 29 8 32 7 32 -4z m69 -18 c-1 -27 -15 -56 -25 -51 -5 3 -10 -8
-12 -24 -2 -16 -10 -39 -17 -50 -10 -15 -12 -31 -5 -60 10 -44 4 -62 -14 -47
-19 16 -10 88 19 160 14 36 25 73 25 83 0 11 5 15 15 12 8 -4 15 -14 14 -23z
m67 16 c6 -16 -43 -117 -57 -117 -5 0 -9 -8 -10 -17 0 -10 -3 -13 -5 -6 -3 7
4 33 15 59 12 26 21 54 21 64 0 29 26 42 36 17z m68 4 c3 -4 -18 -55 -46 -111
-29 -57 -54 -98 -56 -92 -4 14 78 212 89 212 4 0 10 -4 13 -9z m79 2 c4 -3
-21 -60 -56 -126 -39 -76 -63 -113 -66 -101 -2 11 -7 24 -13 31 -6 8 -4 21 7
40 l16 28 -6 -35 -5 -35 17 35 c9 19 23 51 31 70 32 82 42 100 55 100 8 0 17
-3 20 -7z m57 -3 c0 -6 -18 -49 -40 -96 -22 -47 -40 -90 -40 -95 0 -5 -5 -9
-11 -9 -14 0 -6 25 39 127 33 75 52 101 52 73z m-1014 -45 c-21 -38 -36 -37
-36 1 0 16 8 27 23 33 31 12 34 5 13 -34z m284 34 c0 -3 -9 -24 -20 -47 -14
-28 -25 -40 -35 -36 -8 4 -15 12 -15 20 0 8 -4 14 -10 14 -5 0 -10 -7 -10 -15
0 -8 -5 -15 -11 -15 -7 0 -9 10 -7 25 6 31 -8 43 -17 15 -3 -11 -13 -20 -20
-20 -8 0 -19 -18 -26 -42 -6 -24 -13 -49 -15 -56 -3 -10 -9 -10 -23 -3 -17 9
-19 19 -15 73 5 75 9 88 26 88 10 0 13 -13 11 -42 l-2 -43 16 46 16 46 78 -1
c44 -1 79 -4 79 -7z m24 -48 c-16 -49 -44 -70 -44 -33 0 19 49 96 56 89 3 -3
-2 -28 -12 -56z m96 47 c0 -7 -3 -23 -6 -35 -7 -27 -24 -21 -24 8 0 27 -16 16
-24 -16 -6 -23 -56 -105 -56 -92 0 4 9 32 21 64 11 32 22 64 24 71 3 6 18 12
35 12 17 0 30 -5 30 -12z m41 -39 c-6 -11 -11 -25 -11 -33 0 -8 -5 -18 -11
-22 -9 -5 -10 7 -4 42 9 61 15 72 28 49 7 -13 6 -24 -2 -36z m147 21 c15 -27
9 -49 -37 -129 l-20 -34 -6 26 c-4 16 -1 34 10 51 13 20 16 38 11 72 -5 39 -4
45 11 42 10 -2 24 -14 31 -28z m492 24 c0 -3 -6 -18 -14 -32 -8 -15 -22 -49
-32 -75 -28 -78 -39 -40 -12 42 17 52 27 71 40 71 10 0 18 -3 18 -6z m34 -41
c-4 -27 -11 -49 -15 -51 -5 -2 -10 -16 -10 -30 -1 -20 -3 -22 -6 -8 -7 25 17
136 29 136 5 0 6 -20 2 -47z m61 -51 c-4 -18 -9 -22 -17 -14 -7 7 -6 26 3 64
l14 53 3 -39 c2 -22 1 -50 -3 -64z m27 66 c-8 -8 -9 -4 -5 13 4 13 8 18 11 10
2 -7 -1 -18 -6 -23z m-1253 -5 c-2 -45 -14 -80 -23 -65 -15 24 -26 0 -26 -58
0 -32 -5 -62 -10 -65 -13 -8 -4 132 12 183 13 42 49 46 47 5z m88 -20 c-3 -10
-5 -2 -5 17 0 19 2 27 5 18 2 -10 2 -26 0 -35z m1253 28 c0 -26 -10 -51 -21
-51 -5 0 -9 10 -9 23 0 35 -20 -1 -20 -38 -1 -23 -3 -26 -10 -14 -5 9 -5 31 2
57 9 35 15 42 34 42 17 0 24 -6 24 -19z m-1487 1 c3 -4 -3 -23 -13 -42 l-19
-35 4 40 c1 22 3 41 4 43 2 5 20 1 24 -6z m87 1 c0 -5 -7 -29 -15 -55 -8 -27
-11 -48 -7 -48 9 0 2 -113 -8 -123 -4 -5 -11 26 -15 67 -4 42 -11 76 -16 76
-13 0 -11 12 6 54 10 24 22 36 35 36 11 0 20 -3 20 -7z m-136 -25 c-10 -34
-35 -80 -40 -76 -2 3 -1 26 2 51 5 38 11 47 26 47 15 0 18 -5 12 -22z m766 -6
c0 -5 -7 -17 -15 -28 -15 -19 -20 -8 -9 20 6 17 24 22 24 8z m694 -3 c-4 -7
-9 -57 -11 -113 -4 -108 -30 -244 -33 -176 -3 54 1 103 10 120 14 28 23 103
11 96 -6 -4 -11 -18 -11 -31 0 -13 -4 -27 -10 -30 -15 -9 -12 16 5 49 8 15 15
35 15 43 0 16 18 53 26 53 3 0 2 -5 -2 -11z m-1231 -93 c-18 -78 -39 -106 -28
-38 8 44 36 124 42 118 2 -2 -4 -38 -14 -80z m47 29 c0 -25 -4 -45 -10 -45
-11 0 -14 73 -3 83 11 12 13 8 13 -38z m-238 -8 c3 -15 0 -24 -9 -24 -14 0
-16 7 -7 31 8 21 11 20 16 -7z m438 3 c0 -5 -4 -11 -9 -14 -4 -3 -11 -18 -14
-33 -3 -16 -13 -37 -22 -48 -16 -19 -16 -19 -10 10 17 83 26 104 40 99 8 -4
15 -10 15 -14z m46 -12 c-3 -13 -6 -32 -6 -43 0 -17 -2 -17 -10 -5 -8 13 -10
13 -10 -1 0 -17 -37 -56 -45 -47 -2 2 5 30 18 61 16 41 27 57 41 57 14 0 17
-5 12 -22z m625 -41 c-8 -8 -11 -7 -11 4 0 9 3 19 7 23 4 4 9 2 11 -4 3 -7 -1
-17 -7 -23z m59 -22 c-8 -30 -16 -43 -23 -36 -6 6 -3 24 9 50 10 22 20 39 22
36 3 -2 -1 -25 -8 -50z m171 14 l-9 -34 -1 31 c-1 17 2 34 6 37 12 13 14 -1 4
-34z m147 -29 c-1 -38 -4 -70 -8 -70 -9 0 -13 96 -5 120 11 36 15 21 13 -50z
m-667 21 c-6 -11 -11 -31 -11 -45 0 -14 -4 -26 -10 -26 -16 0 -12 46 8 79 18
33 30 26 13 -8z m-816 2 l-6 -28 15 30 14 30 1 -32 c1 -18 -4 -56 -11 -85
l-11 -53 -13 57 c-9 39 -10 66 -4 83 13 33 22 32 15 -2z m366 -14 c-6 -16 -10
-18 -10 -7 -1 22 12 55 16 42 2 -6 -1 -22 -6 -35z m896 -21 c-2 -13 -4 -3 -4
22 0 25 2 35 4 23 2 -13 2 -33 0 -45z m-1308 -4 c-8 -20 -13 -24 -16 -13 -2 8
2 29 8 45 8 20 13 24 16 13 2 -8 -2 -29 -8 -45z m362 15 l-10 -24 0 26 c-1 14
2 29 6 33 12 12 14 -9 4 -35z m886 19 c-3 -8 -6 -5 -6 6 -1 11 2 17 5 13 3 -3
4 -12 1 -19z m-610 -20 c-3 -7 -5 -2 -5 12 0 14 2 19 5 13 2 -7 2 -19 0 -25z
m173 -115 c0 -2 -6 -3 -14 -3 -20 0 -26 23 -25 88 l0 57 19 -70 c11 -38 20
-71 20 -72z m-73 85 c-3 -8 -6 -5 -6 6 -1 11 2 17 5 13 3 -3 4 -12 1 -19z
m620 -25 c-3 -10 -5 -4 -5 12 0 17 2 24 5 18 2 -7 2 -21 0 -30z m-807 11 c0
-8 -5 -12 -10 -9 -6 4 -8 11 -5 16 9 14 15 11 15 -7z m95 -24 c-15 -16 -16
-22 -5 -35 9 -11 10 -19 3 -26 -7 -7 -14 0 -23 20 -11 26 -10 35 5 57 12 19
20 23 28 15 7 -7 5 -16 -8 -31z m-378 8 c-3 -8 -6 -5 -6 6 -1 11 2 17 5 13 3
-3 4 -12 1 -19z m-300 -20 c-3 -7 -5 -2 -5 12 0 14 2 19 5 13 2 -7 2 -19 0
-25z m120 -25 c-3 -10 -5 -4 -5 12 0 17 2 24 5 18 2 -7 2 -21 0 -30z m320 15
c-3 -8 -6 -5 -6 6 -1 11 2 17 5 13 3 -3 4 -12 1 -19z m473 1 c0 -24 -23 -21
-28 4 -2 10 3 17 12 17 10 0 16 -9 16 -21z m350 5 c0 -8 -5 -12 -10 -9 -6 4
-8 11 -5 16 9 14 15 11 15 -7z m69 -48 c-9 -8 -10 -5 -5 14 3 14 6 32 7 40 1
8 4 2 6 -14 3 -16 -1 -34 -8 -40z m-1358 -6 c-9 -23 -10 -23 -10 11 -1 20 2
39 7 43 11 12 14 -27 3 -54z m176 38 c-3 -8 -6 -5 -6 6 -1 11 2 17 5 13 3 -3
4 -12 1 -19z m110 -55 c-2 -16 -4 -3 -4 27 0 30 2 43 4 28 2 -16 2 -40 0 -55z
m243 67 c0 -5 -9 -10 -20 -10 -11 0 -20 5 -20 10 0 6 9 10 20 10 11 0 20 -4
20 -10z m-467 -57 c4 -33 2 -43 -9 -43 -15 0 -19 44 -8 75 8 21 10 18 17 -32z
m67 -10 c0 -42 -3 -54 -11 -46 -11 11 -5 103 7 103 2 0 4 -26 4 -57z m1291 -6
c-13 -13 -15 21 -3 50 6 15 8 13 10 -11 2 -16 -1 -33 -7 -39z m-1071 -44 c-11
-17 -11 -17 -6 0 3 10 7 33 8 50 l1 32 4 -32 c2 -18 -1 -41 -7 -50z m296 54
c16 -37 37 -42 109 -28 47 10 93 11 163 5 53 -4 102 -8 107 -9 6 0 11 9 13 21
3 20 8 21 105 17 56 -1 107 -3 114 -3 20 0 42 -61 47 -130 17 -228 28 -459 23
-473 -11 -29 -37 -20 -37 13 0 17 -4 30 -10 30 -5 0 -10 -13 -10 -30 0 -16 -4
-30 -9 -30 -4 0 -8 12 -8 28 0 56 -20 242 -27 249 -4 4 -4 -63 -1 -148 3 -107
2 -145 -5 -124 -5 16 -10 68 -11 115 -1 96 -7 130 -21 130 -6 0 -8 -18 -4 -47
5 -41 4 -44 -5 -20 -12 30 -29 36 -29 10 0 -15 -2 -16 -10 -3 -8 12 -10 12
-10 -5 -1 -18 -3 -17 -24 9 -23 28 -25 28 -74 16 -28 -6 -106 -12 -174 -13
-111 -2 -128 0 -171 21 -57 29 -77 24 -77 -19 0 -26 -34 -142 -47 -158 -12
-16 -11 17 3 82 14 72 14 78 -2 106 -19 33 -34 32 -34 -2 0 -28 -37 -177 -45
-186 -4 -3 -6 37 -5 89 3 109 1 127 -10 85 -7 -27 -8 -25 -9 17 0 26 -5 49
-10 53 -6 3 -9 -29 -7 -82 1 -48 0 -101 -4 -118 l-6 -29 -14 34 c-12 27 -15
76 -13 216 2 166 7 202 32 244 5 8 15 29 21 47 12 31 15 32 74 35 33 2 70 4
82 4 12 1 24 -7 30 -19z m-556 3 c0 -5 -2 -10 -4 -10 -3 0 -8 5 -11 10 -3 6
-1 10 4 10 6 0 11 -4 11 -10z m124 -37 c-9 -65 -14 -67 -14 -5 0 30 4 52 11
52 7 0 8 -16 3 -47z m1385 10 c0 -25 -1 -25 -8 -8 -5 11 -7 23 -4 28 8 14 13
7 12 -20z m-262 -15 c-3 -7 -5 -2 -5 12 0 14 2 19 5 13 2 -7 2 -19 0 -25z
m-1328 -125 c1 -59 -2 -73 -14 -73 -13 0 -15 9 -11 48 3 26 6 70 6 97 3 76 18
18 19 -72z m1370 55 l-1 -53 -10 38 c-6 20 -7 44 -4 52 10 28 16 15 15 -37z
m-1352 -5 c-3 -10 -5 -2 -5 17 0 19 2 27 5 18 2 -10 2 -26 0 -35z m1530 0 c-3
-10 -5 -4 -5 12 0 17 2 24 5 18 2 -7 2 -21 0 -30z m-1340 -40 c-3 -10 -5 -4
-5 12 0 17 2 24 5 18 2 -7 2 -21 0 -30z m1380 -5 c-3 -7 -5 -2 -5 12 0 14 2
19 5 13 2 -7 2 -19 0 -25z m-1426 -91 c-13 -13 -14 10 -3 68 l7 40 3 -49 c2
-27 -2 -54 -7 -59z m1326 36 c-3 -10 -5 -4 -5 12 0 17 2 24 5 18 2 -7 2 -21 0
-30z m-1137 -13 c0 -22 -4 -40 -10 -40 -11 0 -14 63 -3 73 11 12 13 8 13 -33z
m-293 -2 c-3 -8 -6 -5 -6 6 -1 11 2 17 5 13 3 -3 4 -12 1 -19z m1559 -43 c-4
-53 -16 -54 -16 -1 0 27 4 45 10 41 5 -3 8 -21 6 -40z m-1457 -49 c-9 -8 -10
-7 -5 7 3 10 7 26 7 35 1 9 4 6 6 -7 3 -13 -1 -28 -8 -35z m1278 32 c-3 -8 -6
-5 -6 6 -1 11 2 17 5 13 3 -3 4 -12 1 -19z m-1367 2 c0 -5 -4 -10 -10 -10 -5
0 -10 5 -10 10 0 6 5 10 10 10 6 0 10 -4 10 -10z m-13 -107 c-3 -10 -5 -4 -5
12 0 17 2 24 5 18 2 -7 2 -21 0 -30z m1120 -125 c-3 -7 -5 -2 -5 12 0 14 2 19
5 13 2 -7 2 -19 0 -25z m-930 -35 c-3 -10 -5 -4 -5 12 0 17 2 24 5 18 2 -7 2
-21 0 -30z m271 -48 c-6 -13 -14 -22 -19 -20 -12 8 2 45 17 45 11 0 11 -5 2
-25z m-131 -57 c-3 -7 -5 -2 -5 12 0 14 2 19 5 13 2 -7 2 -19 0 -25z m153 -28
c0 -5 -4 -10 -10 -10 -5 0 -10 5 -10 10 0 6 5 10 10 10 6 0 10 -4 10 -10z
m-473 -97 c-3 -10 -5 -2 -5 17 0 19 2 27 5 18 2 -10 2 -26 0 -35z m203 -4 c0
-10 -4 -19 -10 -19 -5 0 -10 12 -10 26 0 14 4 23 10 19 6 -3 10 -15 10 -26z
m273 -47 c4 -21 3 -31 -3 -27 -6 3 -10 20 -10 37 0 38 5 34 13 -10z m-216 -14
c-3 -8 -6 -5 -6 6 -1 11 2 17 5 13 3 -3 4 -12 1 -19z m-350 -140 c-3 -8 -6 -5
-6 6 -1 11 2 17 5 13 3 -3 4 -12 1 -19z m463 -2 c0 -2 -9 -6 -20 -9 -11 -3
-20 -1 -20 4 0 5 9 9 20 9 11 0 20 -2 20 -4z"/>
<path d="M664 1100 c-48 -19 -29 -68 22 -56 20 5 25 12 22 33 -3 30 -14 35
-44 23z"/>
<path d="M1263 1073 c-14 -5 -17 -31 -7 -57 9 -24 60 -21 67 3 9 37 -26 68
-60 54z"/>
<path d="M577 1033 c-12 -12 -7 -51 8 -67 8 -8 15 -30 15 -49 0 -40 17 -58 48
-51 29 8 37 40 18 69 -9 13 -16 35 -16 47 -1 43 -49 76 -73 51z m43 -37 c0 -3
-4 -8 -10 -11 -5 -3 -10 -1 -10 4 0 6 5 11 10 11 6 0 10 -2 10 -4z"/>
<path d="M678 1023 c-22 -6 -23 -36 -2 -57 17 -18 24 -19 48 -10 19 7 21 45 4
62 -12 12 -20 13 -50 5z m27 -33 c3 -5 1 -10 -4 -10 -6 0 -11 5 -11 10 0 6 2
10 4 10 3 0 8 -4 11 -10z"/>
<path d="M887 1009 c-35 -20 -11 -68 33 -63 8 1 23 2 33 3 9 0 17 8 17 16 0 9
-8 18 -17 22 -10 3 -25 12 -33 19 -10 9 -20 10 -33 3z"/>
<path d="M1008 1009 c-43 -24 -7 -77 47 -71 39 5 41 10 20 52 -16 31 -37 37
-67 19z m42 -34 c0 -8 -4 -15 -9 -15 -13 0 -22 16 -14 24 11 11 23 6 23 -9z"/>
<path d="M1195 997 c-27 -21 -13 -67 20 -67 32 0 55 41 35 65 -15 19 -31 19
-55 2z"/>
<path d="M1337 994 c-12 -12 -8 -51 6 -62 7 -6 22 -10 32 -8 15 2 20 11 20 37
0 29 -4 34 -25 37 -14 2 -29 0 -33 -4z"/>
<path d="M1263 934 c-7 -3 -13 -19 -13 -35 0 -22 7 -32 26 -41 22 -10 28 -10
39 5 28 39 -9 89 -52 71z"/>
<path d="M1056 899 c-61 -48 -10 -159 74 -159 47 0 79 72 45 100 -9 7 -13 21
-10 30 14 46 -62 66 -109 29z m61 -39 c-3 -11 -1 -23 4 -26 5 -3 9 -14 9 -25
0 -29 -35 -24 -49 7 -10 22 -9 30 5 45 22 25 38 24 31 -1z"/>
<path d="M792 899 c-33 -13 -45 -53 -27 -89 30 -58 87 -76 135 -43 48 32 53
67 17 109 -25 29 -83 40 -125 23z m96 -58 c-3 -22 -7 -26 -30 -23 -17 2 -28
-2 -28 -10 0 -8 -5 -7 -16 4 -10 10 -14 23 -10 36 6 17 15 21 47 20 37 0 40
-2 37 -27z"/>
<path d="M1370 860 c0 -14 5 -32 10 -40 8 -12 10 -10 10 10 0 14 -5 32 -10 40
-8 12 -10 10 -10 -10z"/>
<path d="M530 685 c0 -19 5 -35 10 -35 6 0 10 16 10 35 0 19 -4 35 -10 35 -5
0 -10 -16 -10 -35z"/>
</g>
</svg>
