<?xml version="1.0" standalone="no"?>
<!DOCTYPE svg PUBLIC "-//W3C//DTD SVG 20010904//EN"
 "http://www.w3.org/TR/2001/REC-SVG-20010904/DTD/svg10.dtd">
<svg version="1.0" xmlns="http://www.w3.org/2000/svg"
 width="238.000000pt" height="332.000000pt" viewBox="0 0 238.000000 332.000000"
 preserveAspectRatio="xMidYMid meet">
<metadata>
Created by potrace 1.16, written by Peter Selinger 2001-2019
</metadata>
<g transform="translate(0.000000,332.000000) scale(0.100000,-0.100000)"
fill="#000000" stroke="none">
<path d="M2050 2642 c0 -828 -8 -1451 -20 -1636 -5 -76 -6 -144 -2 -150 4 -6
7 -96 8 -201 3 -675 2 -655 24 -655 19 0 20 7 21 243 0 133 -1 341 -3 462 -4
299 -4 348 3 1330 7 994 3 1285 -17 1285 -11 0 -14 -117 -14 -678z"/>
<path d="M314 3295 c-122 -7 -227 -15 -233 -19 -6 -4 -11 -20 -11 -35 0 -21
-5 -28 -17 -27 -14 1 -19 -10 -24 -59 -10 -89 -3 -867 10 -1115 7 -118 16
-357 21 -530 5 -173 18 -421 29 -550 13 -147 21 -320 21 -462 0 -185 3 -237
17 -283 l17 -55 51 0 c27 -1 106 -4 175 -8 164 -9 324 -9 790 2 212 5 402 8
424 7 21 -1 53 3 71 9 60 20 64 47 65 397 0 169 1 319 1 333 1 14 -5 161 -12
328 -10 241 -10 316 0 370 10 51 11 178 6 522 -4 250 -7 592 -8 760 -2 335 -9
385 -52 396 -13 3 -29 3 -35 -1 -6 -4 -17 -2 -25 5 -10 8 -139 13 -442 16
-235 2 -471 5 -523 7 -52 2 -195 -2 -316 -8z m909 -82 c6 -29 -32 -206 -47
-220 -5 -4 -6 15 -3 42 20 162 20 178 6 173 -9 -3 -17 -40 -26 -119 -7 -63
-15 -119 -17 -126 -3 -6 -16 -10 -30 -9 -14 2 -26 0 -26 -4 0 -11 -81 -40 -92
-33 -6 3 -14 -1 -19 -8 -7 -11 -9 -10 -9 4 0 9 -4 17 -10 17 -10 0 -9 27 1 45
4 6 9 22 13 38 3 15 10 27 14 27 5 0 7 13 4 30 -2 16 1 59 8 95 11 56 15 65
34 65 20 0 21 -4 18 -87 -3 -104 13 -95 24 13 4 38 11 72 16 75 5 3 38 7 72 8
62 2 63 1 69 -26z m-334 -55 c-4 -35 -10 -114 -12 -177 l-5 -113 -32 -21 -33
-21 7 34 c4 19 11 82 16 140 13 138 26 212 42 221 21 13 25 1 17 -63z m76 -8
c-4 -45 -15 -112 -24 -150 -10 -39 -14 -70 -10 -70 15 0 -4 -38 -22 -43 -17
-5 -19 1 -19 59 0 94 21 268 34 276 6 4 19 8 30 8 17 0 18 -6 11 -80z m311 0
c-3 -25 -8 -70 -11 -100 -3 -30 -9 -60 -13 -67 -4 -6 -29 -14 -56 -18 -35 -6
-47 -5 -42 4 4 6 15 11 25 11 13 0 23 19 39 75 12 41 22 90 22 109 0 19 3 42
7 52 6 16 7 15 20 -2 9 -13 12 -34 9 -64z m-634 39 c-7 -68 -23 -307 -33 -484
-5 -109 -12 -202 -16 -205 -3 -3 -4 119 -3 270 2 151 2 280 0 285 -1 6 -3 39
-3 74 -3 89 -23 91 -32 4 -4 -37 -11 -74 -17 -80 -5 -7 -13 -45 -18 -85 l-7
-73 -2 75 c-1 53 -4 71 -11 60 -15 -23 -12 45 4 107 9 34 11 55 4 59 -5 3 -11
4 -13 2 -17 -17 -28 -188 -34 -525 -3 -215 -8 -394 -11 -397 -3 -3 -5 174 -5
392 0 336 -2 397 -14 394 -23 -5 -29 16 -18 69 5 27 7 53 3 56 -15 15 -26 -18
-32 -99 -4 -54 -11 -86 -18 -85 -18 3 -27 -152 -23 -378 3 -139 1 -202 -5
-185 -6 14 -8 153 -6 329 2 215 -1 306 -8 308 -18 6 -26 -68 -30 -272 -4 -198
-14 -285 -27 -252 -4 10 -10 158 -14 328 l-6 309 26 0 c15 0 27 4 27 10 0 10
104 16 255 14 89 -1 90 -1 87 -25z m131 16 c4 -8 2 -40 -3 -72 -4 -32 -11
-125 -14 -208 -6 -131 -9 -152 -27 -170 -19 -20 -20 -20 -14 20 2 21 0 42 -5
45 -5 3 -1 57 11 130 10 69 19 138 19 155 l0 29 -16 -23 c-10 -14 -20 -59 -26
-110 -24 -239 -49 -405 -62 -418 -9 -10 -7 62 5 162 6 50 12 167 13 260 2 202
6 215 70 215 29 0 46 -5 49 -15z m57 -9 c0 -13 -5 -48 -10 -77 -6 -30 -11 -69
-12 -87 -1 -18 -6 -36 -12 -41 -11 -10 -11 78 1 109 10 27 11 70 2 76 -18 11
-10 44 11 44 14 0 20 -7 20 -24z m515 -91 c-3 -58 0 -116 5 -129 6 -16 6 -27
0 -31 -6 -4 -10 1 -10 9 0 10 -6 13 -15 10 -8 -4 -21 -1 -29 5 -7 6 -16 8 -19
4 -4 -3 -7 5 -7 19 0 13 3 28 7 31 3 4 8 24 10 45 9 117 15 141 31 145 9 2 20
2 24 0 4 -2 5 -51 3 -108z m59 17 c-3 -48 -8 -103 -10 -122 -1 -19 -3 -43 -3
-53 -1 -10 -6 -17 -13 -15 -8 3 -11 24 -9 59 1 30 -2 66 -8 81 -5 14 -7 29 -3
33 4 4 7 10 7 13 2 18 17 88 22 95 2 4 9 5 14 1 6 -4 8 -39 3 -92z m71 71
c-13 -30 -18 -153 -7 -153 6 0 13 15 15 33 2 17 4 -25 4 -96 0 -106 -2 -125
-13 -116 -8 6 -14 20 -14 31 0 14 -5 18 -15 14 -13 -4 -15 10 -17 92 -3 167 4
212 34 212 15 0 18 -4 13 -17z m160 3 c0 -1 -2 -68 -5 -151 -3 -120 -5 -136
-10 -80 -3 39 -9 70 -15 70 -6 0 -13 -44 -16 -100 l-6 -100 1 118 c1 92 -2
117 -13 117 -10 0 -12 9 -7 34 7 39 -1 66 -19 66 -17 0 -24 -21 -26 -82 -4
-79 -20 -41 -18 42 l2 79 66 -6 c36 -3 66 -6 66 -7z m-1485 -67 c0 -37 -4 -58
-10 -54 -5 3 -10 31 -10 61 0 30 5 54 10 54 6 0 10 -27 10 -61z m63 -191 c3
-139 11 -318 18 -398 8 -98 9 -166 2 -210 -8 -60 -10 -50 -17 125 -4 105 -14
233 -23 285 -8 52 -15 109 -14 125 2 57 -8 82 -32 81 -21 -1 -22 -4 -20 -108
1 -60 -3 -108 -8 -108 -9 0 -12 53 -11 204 1 92 14 132 26 76 3 -17 10 -29 16
-25 5 3 10 -1 10 -9 0 -9 5 -16 10 -16 7 0 8 16 3 43 -7 38 -8 69 -4 160 1 19
6 27 19 27 18 0 19 -16 25 -252z m1274 180 c-3 -8 -6 -5 -6 6 -1 11 2 17 5 13
3 -3 4 -12 1 -19z m63 -210 c-1 -173 -1 -173 -19 -139 -22 41 -29 151 -9 151
10 0 12 17 10 65 -4 63 1 95 13 95 3 0 5 -78 5 -172z m-983 140 c-3 -8 -6 -5
-6 6 -1 11 2 17 5 13 3 -3 4 -12 1 -19z m-340 -55 c-3 -10 -5 -2 -5 17 0 19 2
27 5 18 2 -10 2 -26 0 -35z m171 -160 c0 -71 -4 -112 -7 -93 -3 19 -8 -41 -11
-135 -6 -165 -6 -162 -7 80 -1 147 2 242 7 230 7 -17 9 -15 9 13 1 17 3 32 6
32 3 0 4 -57 3 -127z m889 86 c4 -15 12 -20 29 -16 13 2 21 0 18 -4 -3 -5 2
-9 12 -9 23 0 45 -31 33 -47 -8 -8 -4 -10 11 -6 41 11 90 -62 61 -92 -5 -6 -5
-19 -1 -30 8 -18 10 -17 21 13 8 17 16 32 19 32 9 0 82 -189 101 -260 12 -46
1 -224 -18 -278 -24 -72 -181 -386 -202 -403 -10 -8 -20 -24 -22 -34 -2 -10
-12 -23 -22 -29 -14 -9 -20 -7 -28 7 -21 37 -79 55 -163 51 -87 -3 -128 -23
-134 -63 -2 -13 -11 -21 -22 -21 -10 0 -22 -9 -25 -20 -5 -16 -12 -19 -28 -14
-30 9 -38 24 -31 57 5 22 2 27 -14 27 -18 0 -32 18 -32 41 0 5 9 9 20 9 11 0
20 4 20 9 0 5 3 18 6 28 6 16 5 16 -10 -2 -16 -19 -16 -19 -10 10 4 17 15 49
26 73 10 24 18 49 18 55 -1 19 -30 -25 -30 -45 0 -21 -41 -108 -51 -108 -8 0
-57 78 -85 135 -10 22 -26 51 -36 65 -9 14 -26 55 -38 90 -19 57 -21 81 -18
212 4 120 7 151 21 166 9 10 17 28 17 40 0 12 9 42 21 67 16 34 27 45 45 45
12 0 26 5 29 10 3 6 1 10 -4 10 -20 0 -11 28 14 44 14 9 25 12 25 7 0 -5 -4
-13 -10 -16 -5 -3 -10 -11 -10 -16 0 -17 48 22 60 49 30 69 250 198 250 147 0
-14 -18 -20 -49 -15 -19 2 -32 -22 -19 -37 7 -9 7 -13 -1 -13 -7 0 -9 -5 -6
-11 5 -7 12 -6 23 4 10 7 32 19 49 27 27 10 32 16 27 35 -4 17 0 24 16 28 12
3 28 3 36 0 11 -4 11 -7 -1 -20 -8 -8 -15 -19 -15 -25 0 -6 10 0 23 13 25 26
57 47 70 48 5 1 11 -8 14 -20z m-492 -46 c-7 -54 -25 -82 -25 -41 0 27 19 88
27 88 3 0 2 -21 -2 -47z m835 -168 c0 -66 5 -189 11 -273 10 -131 10 -156 -3
-168 -12 -12 -13 -2 -10 81 3 63 0 100 -7 109 -9 11 -9 15 1 18 10 4 9 16 -5
58 -12 33 -15 55 -9 59 6 3 9 59 8 133 0 69 2 121 6 115 4 -7 8 -66 8 -132z
m-1093 113 c-3 -8 -6 -5 -6 6 -1 11 2 17 5 13 3 -3 4 -12 1 -19z m1049 -119
c5 -55 4 -71 -5 -64 -6 6 -13 47 -17 90 -4 58 -2 75 5 64 6 -9 14 -50 17 -90z
m-1069 -61 c-3 -8 -6 -5 -6 6 -1 11 2 17 5 13 3 -3 4 -12 1 -19z m-369 -118
c-2 -90 -2 -95 -5 -30 -2 41 -9 80 -14 87 -6 7 -8 26 -4 44 13 59 25 8 23
-101z m528 24 c-4 -14 -11 -22 -16 -19 -5 3 -4 19 2 37 13 36 24 21 14 -18z
m-477 -285 c1 -167 -7 -271 -21 -263 -6 4 -7 64 -2 163 5 86 8 210 7 276 -1
110 0 114 7 45 4 -41 8 -141 9 -221z m371 184 c0 -74 -3 -103 -10 -93 -15 23
-9 200 6 200 2 0 4 -48 4 -107z m-270 -40 c0 -78 -3 -104 -11 -96 -8 8 -9 41
-4 107 4 53 9 96 11 96 2 0 4 -48 4 -107z m225 -3 c-3 -5 -1 -30 4 -57 18 -90
20 -183 5 -183 -18 0 -23 -26 -27 -130 -2 -47 -4 -15 -5 70 -1 203 8 363 19
331 5 -12 7 -27 4 -31z m-178 -12 c-3 -8 -6 -5 -6 6 -1 11 2 17 5 13 3 -3 4
-12 1 -19z m140 -55 c-2 -16 -4 -3 -4 27 0 30 2 43 4 28 2 -16 2 -40 0 -55z
m-145 -75 c-2 -27 -8 -48 -13 -48 -11 0 -12 120 -2 147 10 26 20 -38 15 -99z
m75 20 c-2 -13 -4 -5 -4 17 -1 22 1 32 4 23 2 -10 2 -28 0 -40z m-130 -110
c-2 -24 -4 -5 -4 42 0 47 2 66 4 43 2 -24 2 -62 0 -85z m186 51 c-6 -6 -7 3
-4 23 4 28 6 29 9 9 2 -13 0 -27 -5 -32z m-74 -186 c-1 -145 -4 -201 -9 -168
-16 100 -11 385 6 385 2 0 3 -98 3 -217z m221 157 c11 -33 11 -44 0 -65 -10
-18 -12 -54 -7 -145 7 -129 -7 -168 -17 -47 -5 65 -9 227 -7 285 1 33 15 20
31 -28z m997 28 c-3 -8 -6 -5 -6 6 -1 11 2 17 5 13 3 -3 4 -12 1 -19z m60 -35
c-3 -10 -5 -4 -5 12 0 17 2 24 5 18 2 -7 2 -21 0 -30z m-1230 -25 c-2 -13 -4
-5 -4 17 -1 22 1 32 4 23 2 -10 2 -28 0 -40z m1152 -42 c-9 -8 -10 -7 -5 7 3
10 7 31 8 45 1 22 2 21 5 -7 3 -19 -1 -38 -8 -45z m-1340 -215 c0 -35 -1 -62
-5 -59 -3 3 -7 77 -9 164 -3 137 -2 145 5 59 4 -55 8 -129 9 -164z m1306 180
c-4 -17 -11 -31 -16 -31 -11 0 -11 0 2 39 14 39 23 34 14 -8z m-889 -16 c19
-46 17 -55 -6 -26 -18 21 -28 61 -14 61 3 0 12 -16 20 -35z m961 -12 c-3 -10
-5 -4 -5 12 0 17 2 24 5 18 2 -7 2 -21 0 -30z m-1180 5 c-3 -8 -6 -5 -6 6 -1
11 2 17 5 13 3 -3 4 -12 1 -19z m1145 -10 c-9 -9 -12 -7 -12 12 0 19 3 21 12
12 9 -9 9 -15 0 -24z m-1036 -106 c-13 -12 -17 8 -10 40 l9 33 3 -33 c2 -19 1
-36 -2 -40z m1040 0 c-11 -10 -15 4 -8 28 l7 25 3 -23 c2 -13 1 -26 -2 -30z
m-876 18 c0 -5 -2 -10 -4 -10 -3 0 -8 5 -11 10 -3 6 -1 10 4 10 6 0 11 -4 11
-10z m779 -92 c-3 -79 -9 -108 -21 -108 -5 0 -7 8 -4 18 3 9 6 44 8 77 1 33 3
63 5 68 10 19 14 2 12 -55z m-44 17 c0 -14 -6 -25 -12 -25 -16 0 -16 6 -3 31
14 25 15 24 15 -6z m160 -79 c-5 -46 -12 -66 -21 -66 -9 0 -13 9 -12 25 1 14
6 25 10 25 4 0 10 20 14 45 10 69 17 46 9 -29z m-1499 -3 c-10 -10 -19 5 -10
18 6 11 8 11 12 0 2 -7 1 -15 -2 -18z m311 -35 c-2 -13 -4 -3 -4 22 0 25 2 35
4 23 2 -13 2 -33 0 -45z m130 -70 c-2 -18 -4 -6 -4 27 0 33 2 48 4 33 2 -15 2
-42 0 -60z m273 51 c0 -5 -4 -9 -10 -9 -5 0 -10 7 -10 16 0 8 5 12 10 9 6 -3
10 -10 10 -16z m306 5 c41 -12 58 -13 74 -4 17 9 25 8 38 -3 9 -8 23 -12 30
-10 22 8 13 -37 -13 -61 -14 -13 -25 -27 -25 -32 0 -14 -81 -99 -91 -97 -4 2
-13 -6 -19 -17 -9 -17 -18 -19 -58 -14 -36 4 -55 13 -84 42 -21 20 -38 40 -38
45 0 5 -7 15 -15 23 -12 12 -12 19 -2 34 16 26 20 25 35 -7 23 -52 43 -83 53
-83 16 0 10 17 -18 51 -17 20 -28 45 -29 67 l-1 35 23 -26 c12 -14 24 -32 27
-39 8 -24 16 -3 19 55 3 66 6 67 94 41z m411 -6 c-3 -8 -6 -5 -6 6 -1 11 2 17
5 13 3 -3 4 -12 1 -19z m-1200 -60 c-2 -13 -4 -5 -4 17 -1 22 1 32 4 23 2 -10
2 -28 0 -40z m429 -30 c-1 -36 -8 -64 -14 -66 -15 -5 -16 -32 -2 -32 7 0 6 -8
-1 -22 -12 -22 -12 -22 -20 -3 -13 34 -10 71 12 129 12 31 23 56 25 56 2 0 2
-28 0 -62z m715 15 c-8 -15 -10 -15 -11 -2 0 17 10 32 18 25 2 -3 -1 -13 -7
-23z m-107 -78 c-6 -16 -24 -21 -24 -7 0 11 11 22 21 22 5 0 6 -7 3 -15z
m-508 -43 c-11 -10 -15 4 -8 28 l7 25 3 -23 c2 -13 1 -26 -2 -30z m434 18 c-6
-11 -13 -20 -15 -20 -3 0 -5 9 -5 20 0 11 7 20 15 20 13 0 14 -4 5 -20z m-604
-112 c-8 -24 -16 -38 -17 -33 -1 6 -3 15 -4 20 -2 6 -3 17 -4 25 -1 12 -4 11
-12 -3 -6 -10 -8 -35 -4 -59 5 -29 4 -39 -4 -34 -6 4 -11 14 -11 22 0 8 -4 14
-10 14 -5 0 -10 -2 -10 -4 0 -2 -3 -13 -7 -23 -3 -10 -3 -15 2 -11 9 9 25 -8
48 -52 l19 -35 -32 -28 c-34 -31 -69 -31 -100 -1 -21 21 -19 103 3 116 10 5
17 15 17 21 0 16 75 97 89 97 6 0 11 7 11 16 0 9 8 29 18 46 l17 30 3 -41 c2
-22 -4 -59 -12 -83z m211 100 c-3 -8 -6 -5 -6 6 -1 11 2 17 5 13 3 -3 4 -12 1
-19z m730 -40 c-2 -13 -4 -3 -4 22 0 25 2 35 4 23 2 -13 2 -33 0 -45z m-657
-10 c0 -12 -6 -9 -26 13 -19 22 -19 22 4 8 12 -8 22 -17 22 -21z m260 -29 c0
-11 -4 -17 -10 -14 -5 3 -10 13 -10 21 0 8 5 14 10 14 6 0 10 -9 10 -21z m51
-10 c-5 -13 -10 -19 -10 -12 -1 15 10 45 15 40 3 -2 0 -15 -5 -28z m-511 0
c-7 -11 -14 -18 -17 -15 -8 8 5 36 17 36 7 0 7 -6 0 -21z m290 -21 c0 -47 -14
-42 -25 10 -5 25 -3 32 9 32 12 0 16 -10 16 -42z m-200 11 c0 -11 -4 -18 -10
-14 -5 3 -7 12 -3 20 7 21 13 19 13 -6z m93 -52 c-7 -85 -13 -85 -13 2 0 43 4
70 10 66 5 -3 7 -33 3 -68z m154 51 c-3 -8 -6 -5 -6 6 -1 11 2 17 5 13 3 -3 4
-12 1 -19z m323 8 c0 -3 -4 -8 -10 -11 -5 -3 -10 -1 -10 4 0 6 5 11 10 11 6 0
10 -2 10 -4z m30 -46 c-17 -32 -22 -18 -8 21 8 22 13 28 16 17 2 -9 -2 -27 -8
-38z m-303 18 c-3 -8 -6 -5 -6 6 -1 11 2 17 5 13 3 -3 4 -12 1 -19z m443 -88
c-1 -36 1 -88 5 -116 7 -50 6 -55 -49 -147 -31 -53 -56 -99 -56 -103 0 -3 -19
-41 -43 -83 -23 -42 -41 -84 -39 -94 7 -35 18 -24 155 154 l47 62 0 -47 c0
-52 -40 -126 -98 -180 -29 -27 -33 -56 -9 -56 6 0 35 23 64 52 72 71 71 56 -6
-53 -13 -19 -40 -45 -61 -58 -28 -17 -41 -35 -50 -65 -27 -94 -101 -210 -152
-237 -18 -10 -19 -9 -8 11 6 12 9 24 6 27 -3 3 -8 -2 -12 -11 -3 -9 -10 -16
-15 -16 -5 0 -4 12 1 26 6 14 10 36 10 50 0 14 7 36 16 50 9 13 14 27 10 31
-8 8 -6 10 -51 -71 -28 -50 -34 -68 -22 -63 18 7 21 -1 11 -26 -7 -19 -44 -10
-44 11 0 13 -3 12 -20 -3 -11 -10 -23 -15 -28 -10 -4 4 -1 10 6 12 21 8 14 32
-8 26 -11 -3 -20 -12 -20 -19 0 -8 -4 -14 -9 -14 -5 0 -7 10 -5 22 2 13 2 17
-2 11 -10 -21 -31 -14 -38 12 -4 14 0 41 9 62 9 21 23 65 30 98 12 49 12 62 2
70 -7 6 -21 48 -31 95 -31 146 -77 224 -142 236 -25 5 -34 11 -34 26 0 66 98
133 115 78 3 -11 11 -20 17 -20 6 0 8 -13 4 -35 -6 -28 -1 -48 23 -94 16 -33
35 -79 41 -103 7 -23 17 -49 23 -56 11 -14 12 -225 1 -297 -5 -31 -4 -37 6
-28 13 12 28 71 34 133 2 19 1 24 -1 10 -8 -47 -18 -39 -19 16 0 30 3 54 7 54
4 0 10 18 14 39 4 22 13 45 21 52 17 14 17 14 -1 -36 -16 -46 -19 -75 -6 -75
5 0 9 10 9 23 0 12 7 42 15 67 8 25 15 52 15 60 0 8 8 42 17 75 9 33 20 83 25
110 5 28 14 75 21 105 15 64 17 139 6 195 -7 36 -5 44 18 69 16 17 33 26 48
24 32 -4 37 -80 8 -119 -12 -16 -21 -43 -21 -61 0 -18 -13 -80 -29 -138 -42
-152 -56 -241 -39 -251 7 -5 16 -9 20 -9 21 0 127 185 174 304 30 76 47 166
45 239 -1 50 2 61 25 84 l27 27 9 -24 c5 -14 8 -54 8 -90z m-373 68 c-3 -7 -5
-2 -5 12 0 14 2 19 5 13 2 -7 2 -19 0 -25z m-491 6 c-3 -9 -6 -21 -6 -27 0 -8
-3 -8 -11 0 -13 13 -5 43 12 43 6 0 8 -7 5 -16z m161 -41 c-3 -10 -5 -2 -5 17
0 19 2 27 5 18 2 -10 2 -26 0 -35z m370 10 c-3 -10 -5 -4 -5 12 0 17 2 24 5
18 2 -7 2 -21 0 -30z m-411 0 c-13 -54 -29 -83 -45 -83 -10 0 -12 3 -5 8 18
11 34 48 34 76 0 14 5 26 11 26 7 0 9 -10 5 -27z m-376 -9 c0 -2 -9 -4 -20 -4
-11 0 -20 4 -20 9 0 5 9 7 20 4 11 -3 20 -7 20 -9z m515 -34 c-4 -23 -9 -39
-11 -37 -3 2 -2 23 2 46 4 23 9 40 11 37 3 -3 2 -23 -2 -46z m-696 29 c-15 -6
-32 -23 -39 -40 -17 -39 -30 -46 -30 -14 0 18 9 31 33 45 17 11 39 20 47 19 8
0 3 -5 -11 -10z m742 -109 c-8 -21 -10 -14 -10 36 -1 33 2 64 7 68 11 12 14
-77 3 -104z m459 106 c0 -3 -4 -8 -10 -11 -5 -3 -10 -1 -10 4 0 6 5 11 10 11
6 0 10 -2 10 -4z m-719 -29 c-10 -9 -11 -8 -5 6 3 10 9 15 12 12 3 -3 0 -11
-7 -18z m-372 2 c30 -11 32 -14 27 -43 -5 -26 1 -41 31 -82 70 -95 117 -109
213 -64 l52 25 -5 53 c-6 51 -5 54 16 49 12 -3 48 -11 79 -17 61 -12 88 -30
88 -58 0 -9 7 -30 15 -45 14 -27 13 -31 -9 -60 -13 -18 -27 -51 -31 -75 -7
-43 -7 -43 33 -60 41 -17 63 -59 39 -74 -8 -4 -7 -11 2 -22 29 -35 13 -197
-55 -546 -9 -47 -17 -97 -18 -112 -1 -24 -6 -28 -29 -28 -27 0 -27 0 -21 58 3
31 7 68 10 80 7 36 34 457 34 544 0 42 -5 80 -10 83 -6 4 -10 21 -9 38 2 18 2
55 1 82 -2 42 -6 52 -24 60 -17 7 -22 17 -20 35 1 14 7 27 12 28 12 5 13 42 1
42 -12 0 -39 -42 -46 -73 -5 -19 -1 -29 16 -40 18 -13 21 -22 16 -53 -4 -21
-2 -43 3 -49 18 -22 23 -188 11 -375 -11 -184 -29 -387 -36 -425 -4 -19 -11
-20 -147 -18 l-143 1 -30 36 c-16 19 -40 53 -53 75 l-22 41 32 -8 c50 -11 108
-8 161 8 55 17 100 64 135 140 76 169 81 215 43 398 -11 56 -57 104 -136 142
-73 35 -145 44 -192 25 -56 -24 -110 -72 -133 -120 -27 -57 -40 -65 -40 -26 0
17 5 31 10 31 6 0 10 15 10 34 0 18 9 62 20 97 23 70 60 208 60 221 0 4 -7 8
-15 8 -8 0 -15 5 -15 10 0 6 -7 10 -15 10 -10 0 -15 -10 -15 -30 0 -16 -11
-54 -24 -84 -32 -72 -56 -192 -56 -280 0 -111 28 -353 51 -436 21 -77 48 -131
106 -211 18 -26 33 -49 33 -51 0 -11 -164 -17 -177 -7 -7 6 -28 9 -46 7 l-34
-4 -9 256 c-4 140 -8 354 -9 474 l0 220 39 51 c51 66 112 112 156 118 19 2 35
5 36 5 1 1 16 -3 33 -9z m701 -15 c0 -8 -5 -12 -10 -9 -6 4 -8 11 -5 16 9 14
15 11 15 -7z m-619 -26 c0 -7 2 -26 3 -42 1 -16 12 -37 25 -47 35 -29 113 -29
144 -2 9 9 20 13 23 10 14 -14 -7 -36 -50 -52 -37 -14 -51 -15 -74 -6 -30 12
-102 100 -102 124 0 25 29 39 31 15z m616 -55 c-3 -10 -5 -4 -5 12 0 17 2 24
5 18 2 -7 2 -21 0 -30z m-110 -35 c-3 -7 -5 -2 -5 12 0 14 2 19 5 13 2 -7 2
-19 0 -25z m150 -10 c-3 -8 -6 -5 -6 6 -1 11 2 17 5 13 3 -3 4 -12 1 -19z
m-168 -45 c1 -7 -2 -13 -6 -13 -5 0 -9 17 -10 38 -1 32 0 33 7 12 4 -14 8 -31
9 -37z m-673 1 c-6 -19 -12 -28 -14 -20 -3 13 14 56 22 56 2 0 -2 -16 -8 -36z
m1292 -105 c-13 -16 -36 -44 -51 -62 -24 -26 -22 -22 9 28 21 33 42 70 48 82
10 22 11 22 14 3 2 -11 -7 -34 -20 -51z m-351 -51 c-2 -13 -4 -5 -4 17 -1 22
1 32 4 23 2 -10 2 -28 0 -40z m123 11 c-11 -38 -26 -55 -17 -19 4 14 7 31 7
38 0 6 4 12 9 12 6 0 6 -12 1 -31z m-747 -18 c27 -18 61 -51 78 -73 27 -39 29
-46 29 -137 -1 -194 -43 -331 -113 -365 -21 -10 -40 -16 -42 -14 -2 2 12 22
32 43 44 50 66 99 58 134 -3 14 -1 51 5 81 12 62 -1 187 -26 245 -19 47 -48
63 -122 69 -56 4 -65 2 -92 -21 -17 -14 -45 -46 -62 -70 -29 -43 -39 -70 -57
-156 -15 -70 -23 -53 -19 38 5 100 17 132 76 197 48 54 84 69 152 65 43 -2 66
-10 103 -36z m503 -38 c8 -17 14 -37 13 -45 0 -9 -2 -9 -6 2 -3 8 -14 26 -24
39 -11 13 -19 38 -18 55 0 31 0 31 11 6 6 -14 17 -39 24 -57z m-583 -43 c-3
-11 -9 -20 -14 -20 -10 0 -12 24 -2 33 13 13 21 7 16 -13z m517 -150 c10 -48
11 -65 2 -68 -13 -4 -15 -47 -3 -77 5 -11 4 -30 0 -43 -5 -13 -11 -69 -13
-125 -5 -142 -17 -178 -72 -223 -24 -20 -47 -35 -49 -32 -3 3 1 31 9 62 9 31
20 94 26 139 6 45 15 96 20 112 17 54 31 178 31 285 l1 105 17 -36 c10 -19 24
-64 31 -99z m-620 116 c0 -2 -8 -10 -17 -17 -16 -13 -17 -12 -4 4 13 16 21 21
21 13z m-52 -33 c-22 -27 -36 -70 -47 -150 -6 -39 -11 -74 -11 -77 0 -3 -5 -6
-11 -6 -7 0 -9 10 -4 28 3 15 10 54 14 87 8 58 55 155 68 141 4 -3 -1 -14 -9
-23z m783 0 c-8 -15 -10 -15 -11 -2 0 17 10 32 18 25 2 -3 -1 -13 -7 -23z
m-636 -27 c17 -1 21 -11 29 -63 8 -56 7 -64 -15 -95 -26 -36 -30 -91 -10 -140
8 -21 17 -28 38 -28 l27 0 -33 -34 c-35 -36 -91 -56 -156 -56 -31 0 -38 4 -49
33 -27 64 -29 77 -11 71 11 -5 18 0 22 14 3 13 16 23 34 27 49 11 83 105 39
105 -29 0 -34 22 -20 80 15 61 46 104 69 95 9 -4 25 -8 36 -9z m76 -69 c-8 -8
-11 -7 -11 4 0 9 3 19 7 23 4 4 9 2 11 -4 3 -7 -1 -17 -7 -23z m-229 -27 c-16
-45 -17 -47 -20 -20 -3 30 12 70 27 70 5 0 2 -22 -7 -50z m1245 -2 c-3 -8 -6
-5 -6 6 -1 11 2 17 5 13 3 -3 4 -12 1 -19z m-1203 -118 c1 -3 -9 -6 -21 -6
-26 -1 -27 0 -12 28 11 21 12 21 22 2 6 -10 11 -21 11 -24z m160 25 c-4 -8
-10 -12 -15 -9 -11 6 -2 24 11 24 5 0 7 -7 4 -15z m-286 -22 c1 -16 11 -61 22
-102 24 -85 21 -107 -4 -29 -27 88 -37 158 -22 158 1 0 3 -12 4 -27z m1212 -4
c-7 -11 -14 -18 -17 -15 -3 3 0 12 7 21 18 21 23 19 10 -6z m-1167 -25 c-6
-17 -23 -9 -23 11 0 8 6 12 14 9 8 -3 12 -12 9 -20z m47 -214 c0 -5 -2 -10 -4
-10 -3 0 -8 5 -11 10 -3 6 -1 10 4 10 6 0 11 -4 11 -10z m785 -16 c47 -6 85
-27 85 -46 0 -11 -141 2 -157 15 -20 15 -16 49 5 43 9 -3 40 -8 67 -12z m-87
-92 c-3 -12 -78 -47 -78 -35 0 2 12 20 26 39 21 28 29 32 41 23 7 -7 13 -19
11 -27z m147 -3 c18 -18 -22 -41 -77 -45 -29 -2 -66 -6 -83 -8 -25 -4 -24 -3
6 6 24 7 39 19 46 38 10 26 14 27 54 23 24 -3 48 -9 54 -14z m315 -9 c0 -5 -4
-10 -10 -10 -5 0 -10 5 -10 10 0 6 5 10 10 10 6 0 10 -4 10 -10z m80 -5 c0 -8
-7 -15 -15 -15 -26 0 -18 20 13 29 1 1 2 -6 2 -14z m-350 -15 c0 -5 -5 -10
-11 -10 -5 0 -7 5 -4 10 3 6 8 10 11 10 2 0 4 -4 4 -10z"/>
<path d="M1104 3206 c-8 -21 -1 -49 14 -54 8 -2 12 8 12 32 0 36 -16 49 -26
22z"/>
<path d="M1110 3060 c0 -19 3 -21 12 -12 9 9 9 15 0 24 -9 9 -12 7 -12 -12z"/>
<path d="M904 3026 c-8 -22 3 -33 18 -18 9 9 9 15 0 24 -9 9 -13 7 -18 -6z"/>
<path d="M731 3164 c0 -11 3 -14 6 -6 3 7 2 16 -1 19 -3 4 -6 -2 -5 -13z"/>
<path d="M1450 2941 c0 -5 5 -13 10 -16 6 -3 10 -2 10 4 0 5 -4 13 -10 16 -5
3 -10 2 -10 -4z"/>
<path d="M1581 3094 c0 -11 3 -14 6 -6 3 7 2 16 -1 19 -3 4 -6 -2 -5 -13z"/>
<path d="M382 2815 c0 -16 2 -22 5 -12 2 9 2 23 0 30 -3 6 -5 -1 -5 -18z"/>
<path d="M1239 2893 c-23 -46 -22 -49 5 -18 26 31 32 45 18 45 -5 0 -15 -12
-23 -27z"/>
<path d="M1125 2820 c-3 -5 -4 -10 -1 -10 3 0 1 -12 -4 -27 l-10 -28 20 25
c11 14 20 28 20 32 0 12 -18 19 -25 8z"/>
<path d="M1021 2786 c-12 -14 -12 -16 3 -10 12 5 15 2 10 -10 -9 -23 3 -20 17
5 6 13 7 19 1 15 -6 -3 -12 -1 -14 5 -2 7 -9 5 -17 -5z"/>
<path d="M896 2738 c-9 -12 -16 -26 -16 -31 0 -11 50 35 50 46 0 15 -19 6 -34
-15z"/>
<path d="M990 2745 c-6 -8 -10 -19 -8 -24 1 -6 8 1 15 14 13 28 11 31 -7 10z"/>
<path d="M1230 2749 c0 -5 5 -7 10 -4 6 3 10 8 10 11 0 2 -4 4 -10 4 -5 0 -10
-5 -10 -11z"/>
<path d="M1305 2740 c-3 -5 -1 -10 4 -10 6 0 11 5 11 10 0 6 -2 10 -4 10 -3 0
-8 -4 -11 -10z"/>
<path d="M1157 2734 c-4 -4 -7 -14 -7 -23 0 -11 3 -12 11 -4 6 6 10 16 7 23
-2 6 -7 8 -11 4z"/>
<path d="M1250 2724 c0 -8 5 -12 10 -9 6 3 10 10 10 16 0 5 -4 9 -10 9 -5 0
-10 -7 -10 -16z"/>
<path d="M933 2693 c-25 -37 -30 -58 -12 -47 11 7 43 74 37 79 -2 1 -13 -13
-25 -32z"/>
<path d="M1186 2704 c-23 -23 -20 -30 4 -9 11 10 20 20 20 22 0 7 -9 2 -24
-13z"/>
<path d="M1003 2693 c-17 -6 -16 -23 1 -23 8 0 16 7 20 15 6 15 1 17 -21 8z"/>
<path d="M1250 2679 c0 -5 5 -7 10 -4 6 3 10 8 10 11 0 2 -4 4 -10 4 -5 0 -10
-5 -10 -11z"/>
<path d="M786 2619 c-7 -17 -11 -41 -7 -53 5 -20 6 -19 9 4 5 36 29 59 54 52
15 -3 19 -1 16 9 -2 8 -17 15 -31 17 -23 3 -30 -2 -41 -29z"/>
<path d="M1371 2622 c-30 -42 -26 -50 5 -12 15 17 24 33 21 36 -2 3 -14 -8
-26 -24z"/>
<path d="M1495 2619 c-10 -30 -2 -32 12 -3 6 13 7 24 3 24 -5 0 -12 -9 -15
-21z"/>
<path d="M910 2600 c0 -5 7 -7 15 -4 17 7 21 -21 5 -31 -5 -3 -10 -1 -10 4 0
6 -4 11 -10 11 -15 0 -12 -37 4 -43 21 -8 49 28 41 52 -6 21 -45 30 -45 11z"/>
<path d="M1537 2584 c-4 -4 -7 -17 -7 -28 1 -19 1 -20 11 -3 11 19 8 43 -4 31z"/>
<path d="M827 2559 c-16 -9 -47 -59 -47 -75 0 -4 11 5 25 20 14 15 25 31 25
36 0 4 6 10 13 13 6 2 10 7 7 10 -3 3 -13 1 -23 -4z"/>
<path d="M1447 2496 c-5 -15 -6 -31 -3 -34 8 -8 18 25 14 45 -3 13 -6 10 -11
-11z"/>
<path d="M727 2503 c-4 -3 -7 -13 -7 -22 1 -13 3 -13 11 2 11 19 8 33 -4 20z"/>
<path d="M687 2483 c-10 -9 -9 -23 2 -23 5 0 11 7 15 15 5 15 -5 20 -17 8z"/>
<path d="M958 2457 c-63 -65 -87 -200 -47 -267 53 -88 105 -113 229 -108 56 3
65 6 68 23 2 11 10 27 17 35 19 22 38 105 31 135 -3 13 -25 47 -49 75 -23 27
-56 69 -72 92 -29 41 -33 43 -88 46 -53 3 -58 1 -89 -31z m147 -7 c3 -6 -1 -7
-9 -4 -18 7 -21 14 -7 14 6 0 13 -4 16 -10z m20 -30 c3 -5 1 -10 -4 -10 -6 0
-11 5 -11 10 0 6 2 10 4 10 3 0 8 -4 11 -10z m69 -110 c-6 -5 -24 21 -24 34 0
6 6 1 14 -10 8 -10 12 -21 10 -24z m-117 -77 c-2 -16 -4 -5 -4 22 0 28 2 40 4
28 2 -13 2 -35 0 -50z"/>
<path d="M1445 2440 c3 -5 8 -10 11 -10 2 0 4 5 4 10 0 6 -5 10 -11 10 -5 0
-7 -4 -4 -10z"/>
<path d="M1429 2350 c-120 -113 -111 -99 -105 -160 8 -91 23 -129 54 -137 23
-5 33 1 78 51 64 71 85 112 91 185 4 47 2 60 -17 84 -12 15 -27 27 -34 27 -7
0 -37 -23 -67 -50z m76 0 c3 -5 1 -10 -4 -10 -6 0 -11 5 -11 10 0 6 2 10 4 10
3 0 8 -4 11 -10z"/>
<path d="M713 2353 c-8 -3 -13 -23 -13 -48 0 -35 4 -45 21 -50 26 -8 29 -5 40
42 7 31 5 40 -8 51 -18 13 -21 13 -40 5z"/>
<path d="M834 2043 c-4 -16 -15 -42 -26 -60 -12 -20 -15 -34 -8 -38 5 -3 15 4
20 17 9 19 9 17 5 -14 -3 -21 -1 -39 5 -43 19 -11 24 2 25 68 1 34 5 70 9 80
6 12 4 17 -8 17 -9 0 -18 -12 -22 -27z"/>
<path d="M1231 2009 c-6 -18 -11 -36 -11 -40 0 -14 38 -10 43 4 4 10 7 10 18
0 22 -21 46 -15 53 13 9 34 -5 49 -32 35 -16 -8 -21 -7 -26 4 -9 25 -34 17
-45 -16z"/>
<path d="M940 1975 c-1 -5 -3 -21 -5 -35 -17 -130 -17 -133 8 -45 8 29 11 58
6 70 -4 11 -8 16 -9 10z"/>
<path d="M966 1918 c-3 -7 -7 -26 -9 -43 -3 -16 -9 -38 -12 -48 -6 -13 -3 -16
9 -11 11 4 16 18 16 44 0 22 5 42 10 45 6 3 10 10 10 16 0 14 -20 11 -24 -3z"/>
<path d="M912 1760 c-15 -25 -15 -30 2 -30 7 0 16 11 18 25 6 30 -3 32 -20 5z"/>
<path d="M610 1280 c0 -5 5 -10 11 -10 5 0 7 5 4 10 -3 6 -8 10 -11 10 -2 0
-4 -4 -4 -10z"/>
<path d="M1287 814 c-4 -4 -7 -14 -7 -23 0 -11 3 -12 11 -4 6 6 10 16 7 23 -2
6 -7 8 -11 4z"/>
<path d="M1411 774 c0 -11 3 -14 6 -6 3 7 2 16 -1 19 -3 4 -6 -2 -5 -13z"/>
<path d="M1335 759 c-6 -19 0 -38 9 -28 10 12 16 49 7 49 -5 0 -13 -9 -16 -21z"/>
<path d="M1382 693 c-7 -12 -12 -32 -12 -45 1 -22 1 -22 16 5 8 16 14 36 12
45 -3 14 -6 14 -16 -5z"/>
<path d="M1241 616 c-13 -55 -14 -76 -2 -76 10 0 27 107 18 116 -2 3 -10 -15
-16 -40z"/>
<path d="M1305 631 c-3 -5 -1 -12 5 -16 5 -3 10 1 10 9 0 18 -6 21 -15 7z"/>
<path d="M1280 569 c0 -5 5 -7 10 -4 6 3 10 8 10 11 0 2 -4 4 -10 4 -5 0 -10
-5 -10 -11z"/>
<path d="M1401 564 c0 -11 3 -14 6 -6 3 7 2 16 -1 19 -3 4 -6 -2 -5 -13z"/>
<path d="M1267 524 c-13 -46 -18 -99 -9 -89 17 19 32 77 23 93 -7 13 -9 13
-14 -4z"/>
<path d="M1138 474 c-5 -4 -8 -19 -8 -33 1 -23 2 -24 11 -8 11 19 9 53 -3 41z"/>
<path d="M2371 3204 c0 -11 3 -14 6 -6 3 7 2 16 -1 19 -3 4 -6 -2 -5 -13z"/>
<path d="M2350 3020 c0 -6 7 -10 15 -10 8 0 15 2 15 4 0 2 -7 6 -15 10 -8 3
-15 1 -15 -4z"/>
</g>
</svg>
