<?xml version="1.0" standalone="no"?>
<!DOCTYPE svg PUBLIC "-//W3C//DTD SVG 20010904//EN"
 "http://www.w3.org/TR/2001/REC-SVG-20010904/DTD/svg10.dtd">
<svg version="1.0" xmlns="http://www.w3.org/2000/svg"
 width="444.000000pt" height="303.000000pt" viewBox="0 0 444.000000 303.000000"
 preserveAspectRatio="xMidYMid meet">
<metadata>
Created by potrace 1.16, written by Peter Selinger 2001-2019
</metadata>
<g transform="translate(0.000000,303.000000) scale(0.100000,-0.100000)"
fill="#000000" stroke="none">
<path d="M62 2978 c-56 -9 -62 -12 -62 -34 0 -27 2 -27 133 -16 42 4 77 6 77
4 0 -1 -7 -14 -16 -27 -24 -37 2 -32 33 6 l26 31 166 -7 c228 -9 626 -33 681
-42 25 -4 308 -8 630 -8 322 -1 603 -4 625 -8 147 -21 781 -54 955 -50 47 1
106 6 133 11 43 9 65 1 35 -11 -7 -3 10 -3 37 0 28 3 51 9 53 13 1 4 73 6 158
4 85 -2 153 0 150 4 -2 4 64 9 148 11 270 7 336 13 336 30 0 4 -15 12 -32 18
-36 10 -532 1 -888 -17 -188 -9 -583 -2 -760 15 -404 38 -664 45 -1215 35
-175 -3 -310 -1 -385 7 -357 37 -874 53 -1018 31z m4170 -90 c-9 -9 -62 -15
-163 -18 -163 -5 -174 -4 -157 14 7 8 62 12 172 14 128 2 158 0 148 -10z m83
2 c-3 -5 -20 -10 -36 -10 -18 0 -28 4 -24 10 3 6 20 10 36 10 18 0 28 -4 24
-10z m-686 -14 c-2 -2 -15 -7 -29 -10 l-25 -7 25 15 c21 12 42 14 29 2z m91
-1 c-7 -8 -16 -12 -21 -9 -13 8 -1 24 18 24 13 0 13 -3 3 -15z m74 4 c-3 -5
-16 -9 -30 -9 -14 0 -23 4 -20 9 3 5 17 9 31 9 13 0 22 -4 19 -9z m46 -4 c7
-9 8 -15 2 -15 -5 0 -12 7 -16 15 -3 8 -4 15 -2 15 2 0 9 -7 16 -15z m-160
-11 c0 -2 -9 -4 -21 -4 -11 0 -18 4 -14 10 5 8 35 3 35 -6z"/>
<path d="M1137 2874 c-4 -4 7 -21 23 -37 17 -17 30 -36 30 -42 0 -19 -101 -60
-140 -57 l-35 3 31 -16 c31 -16 34 -16 95 17 42 22 65 40 67 53 3 22 -59 90
-71 79z"/>
<path d="M167 2851 c-6 -23 10 -41 34 -41 30 0 49 -12 49 -30 0 -11 -4 -22
-10 -25 -15 -9 -12 -58 4 -81 12 -16 27 -19 83 -19 58 0 78 5 133 33 85 44
107 50 219 62 71 8 100 15 116 30 20 19 22 19 45 3 14 -9 27 -20 30 -23 20
-27 112 -41 125 -20 4 7 -6 9 -29 7 -27 -3 -48 3 -80 23 -83 53 -83 53 -108
25 -17 -19 -31 -25 -63 -25 -84 0 -210 -22 -230 -40 -49 -43 -150 -69 -196
-50 -35 15 -41 31 -23 65 24 47 18 62 -31 81 -30 11 -44 22 -41 31 3 7 -1 13
-8 13 -8 0 -16 -9 -19 -19z"/>
<path d="M4293 2820 c-18 -21 -33 -43 -33 -49 0 -5 -9 -16 -20 -24 -11 -8 -17
-17 -13 -21 4 -4 0 -4 -10 0 -9 3 -17 2 -17 -4 0 -6 6 -12 13 -15 8 -3 6 -10
-8 -21 -19 -15 -19 -17 -2 -30 15 -12 13 -13 -20 -12 -29 1 -38 -3 -38 -15 0
-9 -6 -23 -13 -31 -7 -9 -10 -22 -6 -31 3 -10 -2 -18 -15 -22 -12 -3 -21 -11
-21 -16 0 -13 17 -11 24 4 3 6 3 2 0 -11 -4 -16 0 -28 11 -36 16 -12 16 -13 1
-19 -9 -4 -16 -1 -16 5 0 9 -3 9 -12 0 -19 -19 9 -34 50 -28 27 4 32 2 32 -15
0 -11 -4 -17 -10 -14 -5 3 -10 1 -10 -4 0 -6 7 -11 15 -11 8 0 15 -5 15 -11 0
-6 -9 -8 -21 -4 -12 4 -19 3 -16 -2 3 -5 -3 -9 -13 -9 -10 0 -16 5 -12 11 13
20 11 37 -5 31 -8 -3 -17 -6 -19 -6 -2 0 -4 -5 -4 -11 0 -5 6 -7 13 -3 6 4 5
-1 -4 -11 -16 -16 -19 -16 -53 0 -37 18 -55 35 -37 35 6 0 11 9 11 20 0 13 10
24 25 30 36 14 31 27 -10 22 -67 -8 -104 5 -119 43 -8 19 -30 44 -48 55 -18
11 -26 20 -17 20 18 0 59 40 59 58 0 20 -17 14 -23 -8 -5 -20 -29 -33 -82 -46
-30 -7 -29 -7 27 -32 47 -20 60 -31 70 -59 13 -35 24 -41 91 -45 l37 -3 -26
-28 c-30 -32 -26 -53 13 -68 103 -41 118 -55 61 -61 -38 -4 -48 -25 -16 -33
35 -9 32 -55 -4 -73 -16 -7 -28 -17 -28 -22 0 -12 -105 -50 -140 -50 -16 0
-31 4 -35 10 -7 11 31 94 51 111 24 20 17 49 -12 49 -28 0 -53 24 -54 52 0 23
-20 34 -31 17 -5 -8 -9 -27 -9 -42 0 -20 -6 -30 -20 -34 -23 -6 -27 -43 -4
-43 8 0 12 -4 9 -10 -3 -5 -18 -10 -33 -10 -15 0 -33 -4 -41 -9 -19 -12 -6
-41 18 -41 38 0 32 -20 -9 -26 -30 -5 -40 -11 -40 -25 0 -14 -7 -19 -25 -19
-28 0 -34 -24 -9 -34 12 -5 13 -10 5 -19 -12 -15 3 -37 26 -37 7 0 13 -4 13
-10 0 -5 -17 -7 -39 -4 -30 4 -40 2 -45 -11 -4 -12 0 -18 14 -22 15 -4 18 -11
14 -30 -5 -19 -2 -25 15 -30 31 -8 26 -23 -9 -23 -36 0 -41 -26 -7 -39 19 -8
20 -10 5 -16 -10 -4 -18 -14 -18 -22 0 -32 50 -57 65 -33 8 13 25 3 25 -15 0
-10 -10 -13 -32 -10 -98 12 -118 12 -135 0 -28 -21 -6 -34 77 -42 l75 -8 -65
-5 c-45 -3 -64 -9 -63 -17 2 -7 -3 -13 -11 -13 -23 0 -70 79 -72 120 -1 22
-13 54 -28 76 -14 21 -24 39 -22 41 2 2 17 -4 34 -14 25 -14 36 -15 49 -7 30
18 26 40 -12 83 -31 34 -34 42 -21 47 23 9 11 71 -20 105 -31 32 -30 49 1 49
14 0 25 5 25 11 0 5 -11 27 -25 47 -14 20 -25 42 -25 49 0 21 27 15 33 -7 6
-24 27 -27 27 -4 0 8 -4 12 -10 9 -5 -3 -7 0 -4 8 3 8 -6 50 -20 93 -19 56
-23 80 -14 85 8 5 5 15 -10 34 -24 30 -56 120 -48 134 9 14 -21 21 -32 8 -5
-7 -19 -30 -31 -52 -12 -22 -33 -55 -46 -74 -32 -44 -31 -54 5 -49 34 5 32 1
-32 -64 -21 -21 -38 -45 -38 -54 0 -30 51 -5 102 49 26 29 48 49 48 45 0 -10
-122 -182 -132 -186 -14 -6 -8 -42 7 -42 25 0 17 -17 -30 -67 -25 -26 -44 -52
-42 -58 2 -5 21 -8 43 -7 l39 4 -27 -29 c-16 -16 -28 -36 -28 -45 0 -14 -7
-12 -40 9 -35 23 -40 31 -40 64 0 63 -47 66 -140 9 -36 -22 -81 -47 -100 -56
-20 -10 -29 -19 -22 -21 7 -3 56 16 108 41 100 49 130 56 120 30 -3 -9 -6 -18
-6 -20 0 -2 -11 -4 -24 -4 -27 0 -59 -26 -51 -41 4 -5 13 -9 22 -9 9 0 21 -8
28 -17 10 -14 16 -15 28 -5 12 10 16 10 21 -3 4 -11 -2 -15 -22 -15 -59 0
-119 -62 -92 -95 27 -32 115 -2 126 42 6 24 26 33 23 11 -4 -36 2 -48 26 -48
14 0 25 5 25 12 0 6 2 9 5 7 11 -11 -18 -82 -45 -109 -30 -31 -46 -37 -52 -20
-2 6 -32 -15 -67 -46 -62 -54 -65 -55 -110 -50 -54 7 -95 -9 -99 -41 -4 -28
-62 -39 -62 -11 0 10 -7 18 -15 18 -8 0 -15 -7 -15 -15 0 -27 -28 -16 -38 15
-8 22 -15 28 -28 23 -12 -4 -15 -3 -10 5 4 7 16 12 27 12 13 0 32 20 56 57 32
50 36 65 38 130 4 111 -18 97 -61 -38 -22 -72 -32 -89 -61 -107 l-33 -22 15
36 c30 71 10 110 -26 50 -12 -20 -24 -34 -28 -32 -4 3 -8 23 -9 46 -2 34 3 48
28 76 50 58 37 75 -17 22 -25 -24 -33 -28 -33 -15 0 9 -6 17 -14 17 -16 0 -26
-21 -26 -55 0 -13 -4 -27 -10 -30 -6 -4 -10 7 -10 27 0 24 10 42 42 75 48 49
45 68 -6 29 -19 -14 -42 -26 -50 -26 -9 0 -16 -8 -16 -19 0 -13 -18 -30 -54
-50 -29 -17 -58 -31 -64 -31 -6 0 -32 -14 -57 -32 -49 -35 -73 -32 -33 4 237
210 294 269 261 268 -5 0 -61 -50 -127 -111 -122 -113 -212 -181 -256 -193
-23 -6 -23 -5 -6 6 106 71 288 237 416 381 68 76 81 97 59 97 -14 0 -109 -77
-194 -158 -38 -37 -106 -99 -150 -137 -44 -39 -88 -77 -98 -86 -30 -27 -180
-108 -189 -103 -15 10 104 99 146 109 36 9 41 13 41 38 -1 22 19 47 96 123 55
53 110 99 126 103 19 5 29 15 31 31 6 35 92 123 108 109 7 -6 23 -9 36 -7 23
3 26 12 29 96 1 12 6 22 13 22 6 0 21 3 34 6 16 5 22 2 22 -10 0 -18 46 -40
67 -32 17 7 17 55 -2 99 -16 40 -42 41 -47 4 -2 -17 -13 -24 -49 -32 -59 -13
-82 -32 -75 -61 4 -13 0 -27 -9 -34 -13 -10 -19 -10 -34 4 -27 24 -171 106
-200 113 -13 3 -26 15 -29 25 -4 15 -7 17 -13 6 -8 -13 -12 -14 -49 -17 -10 0
-35 -14 -53 -31 -42 -36 -47 -37 -47 -5 0 20 -5 25 -23 25 -13 0 -32 -9 -42
-20 -10 -11 -22 -20 -27 -20 -5 0 -16 -7 -24 -15 -8 -8 -21 -12 -29 -9 -7 3
-49 -13 -93 -35 -45 -24 -86 -39 -95 -36 -36 14 -60 108 -43 167 6 22 4 27
-14 33 -13 4 -19 12 -16 21 8 20 -4 44 -21 44 -12 0 -14 7 -9 31 5 26 3 30
-10 25 -9 -3 -20 -6 -26 -6 -6 0 -6 -6 2 -15 10 -12 9 -16 -6 -22 -20 -7 -34
-22 -34 -37 0 -5 7 -3 14 4 24 19 61 8 64 -19 3 -19 0 -22 -14 -17 -11 4 -22
-1 -31 -14 -8 -11 -20 -20 -27 -20 -12 0 -26 -20 -26 -36 0 -2 12 -1 27 2 23
6 25 5 19 -12 -5 -10 -13 -49 -19 -86 -7 -48 -14 -65 -24 -61 -7 3 -13 1 -13
-4 0 -15 -61 -106 -67 -100 -3 3 9 29 26 57 17 28 31 60 31 72 0 22 0 22 -17
-2 -9 -14 -20 -27 -24 -30 -3 -3 -13 -18 -22 -35 -20 -39 -96 -124 -97 -108 0
7 21 56 48 110 68 140 73 153 61 153 -5 0 -12 -8 -15 -17 -16 -51 -111 -242
-120 -242 -8 -1 -11 -32 -10 -97 1 -60 -2 -101 -10 -111 -9 -13 -12 10 -13
106 -1 93 1 121 10 115 9 -5 10 -2 4 12 -18 41 -17 94 1 122 10 15 18 37 19
49 0 12 10 32 21 45 27 29 37 73 24 98 -8 15 -7 36 6 80 l16 59 62 -4 c48 -3
53 -3 21 4 -22 4 -49 11 -61 14 -27 9 -37 -3 -59 -73 -17 -53 -40 -90 -55 -90
-13 0 -40 67 -40 99 0 26 6 33 36 46 42 17 71 49 79 87 4 15 18 44 31 64 14
20 19 34 12 32 -7 -2 -27 -32 -44 -68 -36 -74 -76 -114 -106 -104 -41 13 -51
-52 -18 -125 25 -53 25 -54 0 -46 -11 4 -20 2 -20 -4 0 -6 4 -11 9 -11 15 0 0
-40 -18 -49 -20 -11 -101 -12 -101 -2 0 11 30 37 65 55 27 14 28 16 8 16 -13
0 -41 -17 -64 -37 -32 -29 -39 -41 -34 -60 4 -19 1 -23 -15 -23 -28 0 -60 -18
-60 -33 0 -18 -100 -20 -107 -1 -6 17 -39 19 -49 2 -4 -6 1 -17 12 -25 15 -11
17 -17 6 -33 -16 -26 -15 -40 3 -40 23 0 18 -16 -9 -28 -14 -6 -32 -22 -41
-36 -9 -14 -30 -28 -46 -31 -16 -4 -45 -22 -64 -40 l-35 -33 -30 36 c-35 43
-32 52 8 22 17 -12 35 -19 41 -16 13 8 15 46 3 46 -5 0 -19 18 -31 41 -20 34
-22 45 -12 66 9 20 9 28 -2 37 -21 17 -57 73 -57 88 1 9 5 8 14 -4 31 -42 40
-3 14 64 -11 29 -29 79 -40 111 -22 60 -38 74 -38 32 0 -14 -4 -25 -10 -25
-38 0 -120 -153 -104 -195 7 -17 8 -17 21 1 17 23 17 9 -2 -54 -9 -29 -13 -57
-9 -63 3 -6 -2 -20 -13 -32 -42 -49 -57 -109 -18 -77 20 17 19 7 -5 -40 -22
-42 -26 -70 -10 -70 5 0 13 7 18 16 8 15 10 15 15 -1 8 -18 -4 -45 -27 -65
-13 -10 -16 -10 -16 4 0 12 -10 16 -40 16 -33 0 -40 3 -40 20 0 16 -7 20 -32
21 l-33 1 27 8 c30 9 88 61 88 79 0 6 -9 11 -21 11 -16 0 -19 4 -14 20 4 11 2
20 -4 20 -6 0 -11 9 -11 19 0 15 -8 21 -37 23 l-38 4 32 13 c50 20 56 68 7 58
-32 -6 -30 -3 11 23 40 25 47 52 13 50 -13 -1 -29 -2 -35 -1 -18 1 -16 36 2
51 17 14 20 36 6 44 -16 10 -85 -25 -117 -60 -39 -42 -47 -61 -28 -68 22 -9
17 -21 -16 -33 -16 -6 -30 -18 -30 -27 0 -13 11 -16 52 -16 66 0 54 -15 -27
-33 -44 -10 -61 -19 -64 -32 -3 -16 2 -17 48 -12 48 6 69 -4 36 -17 -9 -3 -15
-11 -14 -18 2 -7 -1 -23 -5 -35 -6 -18 -15 -23 -42 -23 -28 0 -34 -4 -34 -21
0 -20 4 -21 51 -17 66 7 50 -6 -29 -22 -66 -14 -83 -29 -61 -56 10 -13 10 -17
0 -23 -7 -5 -18 -19 -25 -32 -7 -13 -18 -23 -24 -22 -9 2 -12 -219 -12 -910
l0 -913 98 3 c94 2 129 5 277 17 39 3 139 8 223 11 84 4 187 10 230 14 42 3
152 7 243 6 151 0 169 -2 189 -20 15 -14 23 -16 29 -7 9 15 24 16 206 8 83 -3
242 -8 355 -11 175 -5 207 -9 218 -23 11 -14 17 -15 45 -4 40 16 798 18 827 2
25 -14 40 -13 40 3 0 19 409 11 431 -9 21 -19 30 -18 22 2 -5 15 2 16 73 9 43
-4 85 -12 92 -17 9 -8 24 -7 51 2 29 9 108 11 312 8 151 -3 283 -8 294 -13 19
-7 19 -7 1 7 -18 14 -17 15 13 27 17 8 31 17 31 22 0 5 14 9 32 9 42 0 33 6
-22 14 -31 4 -40 3 -30 -4 12 -8 11 -10 -7 -10 -14 0 -23 6 -23 15 0 9 10 15
26 15 14 0 32 7 40 15 9 8 12 15 7 15 -4 0 -8 23 -7 50 0 28 -3 53 -8 56 -4 3
-5 10 -2 16 4 7 2 8 -4 4 -8 -5 -12 1 -12 15 0 22 0 22 -15 3 -13 -18 -14 -15
-15 31 -1 55 0 55 -53 -20 -11 -15 -21 -24 -24 -22 -2 3 12 29 31 57 20 29 36
56 36 61 0 5 7 9 15 9 8 0 15 5 15 10 0 6 -3 10 -8 10 -4 0 -7 14 -7 31 -1 27
0 29 12 13 11 -16 13 -16 13 -2 0 9 -4 19 -10 23 -5 3 -7 12 -3 20 3 8 1 15
-5 15 -5 0 -9 22 -9 49 1 27 4 48 8 45 4 -2 9 3 13 11 3 8 0 14 -6 12 -13 -2
-19 51 -8 58 4 2 6 18 5 35 -1 16 3 30 9 30 6 0 5 4 -3 9 -8 5 -10 14 -6 22 6
9 3 11 -9 6 -14 -6 -15 -3 -6 13 6 11 15 41 20 67 14 63 14 66 22 79 4 6 5 29
2 52 -4 32 -1 43 13 51 14 8 15 10 3 11 -13 0 -13 1 0 10 13 9 13 11 1 19 -11
7 -9 10 10 14 13 2 2 5 -26 6 -27 1 -57 6 -65 11 -8 5 -10 10 -3 10 8 0 8 6 0
25 -8 17 -18 24 -29 21 -10 -2 -18 0 -18 6 0 5 9 12 20 15 11 3 20 10 20 17 0
8 2 8 8 -1 10 -15 74 -26 91 -14 8 5 15 17 16 28 1 10 5 25 8 33 10 27 20 94
23 145 1 28 5 67 9 89 6 29 5 37 -5 31 -12 -7 -10 7 7 53 3 6 0 12 -6 12 -8 0
-10 13 -6 40 5 37 4 40 -17 40 -20 1 -21 2 -5 11 11 7 17 22 17 46 0 35 -1 35
-32 29 -59 -12 -143 -19 -136 -11 4 4 42 17 85 30 52 15 79 28 81 39 2 10 -3
16 -13 16 -13 0 -15 4 -8 13 16 19 22 57 16 88 -5 24 -9 28 -29 23 -33 -9 -30
9 4 22 24 9 28 16 26 50 -1 21 3 45 9 52 5 6 7 13 3 13 -3 1 -10 3 -16 4 -5 1
-14 3 -19 4 -5 0 -13 15 -16 33 -6 24 -3 35 11 45 14 10 15 16 6 25 -17 17
-15 55 3 62 21 8 19 23 -5 29 -11 3 -20 10 -20 16 0 6 7 8 15 5 8 -3 20 -2 27
2 9 6 5 10 -12 14 -18 5 -24 12 -22 26 2 10 5 73 6 139 2 85 7 128 18 148 10
18 14 43 11 71 -3 24 0 52 5 63 8 14 8 23 0 31 -21 21 -42 13 -75 -28z m-68
-150 c-3 -5 -11 -10 -16 -10 -6 0 -7 5 -4 10 3 6 11 10 16 10 6 0 7 -4 4 -10z
m-55 -47 c0 -5 -5 -15 -10 -23 -7 -12 -9 -10 -7 8 1 19 17 33 17 15z m30 -33
c0 -5 -5 -10 -11 -10 -5 0 -7 5 -4 10 3 6 8 10 11 10 2 0 4 -4 4 -10z m-834
-76 c-4 -9 -9 -15 -11 -12 -3 3 -3 13 1 22 4 9 9 15 11 12 3 -3 3 -13 -1 -22z
m791 20 c-3 -3 -12 -4 -19 -1 -8 3 -5 6 6 6 11 1 17 -2 13 -5z m-7 -18 c0 -3
-4 -8 -10 -11 -5 -3 -10 -1 -10 4 0 6 5 11 10 11 6 0 10 -2 10 -4z m31 -36 c5
0 9 -5 9 -11 0 -6 -7 -9 -15 -5 -8 3 -15 1 -15 -4 0 -6 -8 -10 -17 -10 -17 1
-17 1 0 11 9 5 18 20 18 32 1 17 2 18 6 5 2 -10 9 -18 14 -18z m-2451 8 c0
-16 -31 -48 -47 -48 -17 0 -17 47 0 53 23 10 47 7 47 -5z m2586 -35 c-10 -10
-19 5 -10 18 6 11 8 11 12 0 2 -7 1 -15 -2 -18z m-3771 -38 c-23 -47 -30 -39
-10 10 9 20 19 35 21 32 3 -3 -2 -22 -11 -42z m790 15 c3 -5 -1 -10 -9 -10 -9
0 -16 5 -16 10 0 6 4 10 9 10 6 0 13 -4 16 -10z m958 -47 c10 -31 14 -59 10
-63 -4 -4 -26 -11 -48 -15 l-40 -7 19 21 c26 29 15 36 -24 16 -30 -16 -32 -15
-28 2 2 10 13 22 26 28 12 5 22 16 22 23 0 21 20 52 33 52 7 0 21 -25 30 -57z
m91 -1 c28 -19 54 -40 58 -46 11 -16 9 -68 -2 -86 -8 -13 -10 -12 -10 3 0 25
-22 21 -44 -8 -23 -31 -57 -34 -49 -5 6 24 -4 26 -29 3 -18 -16 -19 -16 -25 5
-6 23 -18 28 -28 12 -8 -12 -55 -13 -55 -1 0 5 18 13 40 19 23 5 40 6 40 1 0
-5 5 -9 10 -9 6 0 10 5 10 11 0 6 10 19 21 28 17 14 19 21 11 37 -6 10 -18 34
-26 52 -15 32 -14 33 6 26 12 -4 45 -22 72 -42z m1924 26 c-2 -18 -11 -24 -35
-26 -40 -4 -43 12 -5 31 38 21 44 20 40 -5z m-2933 -7 c3 -5 1 -12 -5 -16 -5
-3 -10 1 -10 9 0 18 6 21 15 7z m340 -27 c20 -48 19 -54 -6 -54 -11 0 -18 -4
-15 -9 8 -13 -20 -21 -32 -9 -9 9 -4 43 13 96 8 22 25 12 40 -24z m-390 9
c-14 -38 -17 -74 -7 -86 8 -9 6 -20 -7 -41 -20 -30 -91 -77 -103 -70 -5 3 -8
21 -8 40 0 20 -4 34 -10 32 -5 -1 -34 -36 -65 -76 -30 -41 -55 -67 -55 -59 0
12 -13 15 -64 14 -35 -1 -68 2 -72 6 -12 11 32 44 81 60 53 18 62 50 13 47
-60 -4 -64 -2 -45 17 14 15 24 15 80 5 87 -16 108 -15 114 6 2 9 19 28 38 42
19 14 38 35 44 47 8 18 21 25 65 32 4 0 5 -7 1 -16z m756 -3 c18 -10 18 -12 3
-34 -17 -27 -7 -40 23 -29 16 6 16 5 4 -10 -15 -18 -41 -23 -41 -7 0 5 -16 18
-36 28 l-37 19 24 21 c26 25 33 26 60 12z m-861 -28 c0 -11 -46 -32 -68 -31
-12 0 39 30 66 38 1 1 2 -3 2 -7z m150 -1 c0 -12 -20 -25 -27 -18 -7 7 6 27
18 27 5 0 9 -4 9 -9z m600 -10 c0 -5 12 -14 28 -19 26 -10 25 -10 -15 -11 -41
-1 -56 13 -36 32 9 10 23 9 23 -2z m2228 -12 l27 0 -24 -10 c-27 -10 -61 -3
-61 13 0 5 7 7 16 4 9 -3 28 -6 42 -7z m-2291 -19 c-7 -28 23 -42 84 -39 33 2
53 -2 58 -10 5 -8 24 -12 47 -10 45 2 94 -9 94 -22 0 -5 -12 -6 -28 -3 -22 4
-31 0 -48 -23 -30 -42 -47 -90 -42 -118 4 -20 1 -25 -15 -25 -31 0 -8 -18 27
-22 49 -5 40 -23 -25 -49 -76 -29 -93 -55 -30 -44 41 7 59 -8 23 -19 -23 -8
-113 1 -148 14 -23 9 -31 7 -53 -12 -26 -23 -89 -29 -75 -7 3 6 -5 7 -23 4
-27 -6 -27 -6 -9 9 11 9 24 16 30 16 6 0 20 12 32 27 14 17 26 24 37 20 27
-10 20 -27 -19 -43 -20 -8 -34 -17 -32 -20 7 -6 71 17 88 32 12 12 12 16 -4
27 -17 13 -17 14 8 30 14 10 26 24 26 31 0 19 29 29 45 16 9 -8 14 -6 19 5 3
8 12 15 21 15 8 0 15 7 15 16 0 11 -5 14 -17 9 -10 -3 -30 -9 -46 -12 -24 -5
-27 -3 -25 18 3 21 -1 24 -30 25 -26 0 -35 6 -50 35 -9 19 -17 51 -16 72 1 31
7 42 30 57 39 25 58 25 51 0z m-1352 -38 l-28 -27 23 33 c12 18 25 31 28 27 3
-3 -7 -18 -23 -33z m1243 16 c7 -7 12 -21 12 -31 0 -19 -2 -20 -70 -5 -35 7
-21 -19 21 -38 24 -12 51 -29 58 -38 11 -14 10 -19 -10 -36 l-24 -21 63 7 c58
6 62 5 62 -14 0 -12 -5 -24 -11 -27 -6 -4 -8 -13 -5 -20 2 -7 -4 -21 -14 -30
-17 -16 -19 -15 -32 11 -16 35 -38 43 -38 15 0 -29 -23 -36 -54 -16 -28 19
-46 23 -94 24 -31 1 -32 2 -21 24 7 12 13 41 15 63 1 23 5 47 9 54 12 20 25
-11 13 -33 -5 -10 -7 -21 -4 -24 6 -7 26 41 26 64 0 12 -7 14 -30 10 -26 -6
-30 -3 -30 14 0 16 5 20 20 16 11 -3 20 -1 20 4 0 12 58 38 86 39 11 0 25 -5
32 -12z m2398 -61 c3 -3 -16 -9 -43 -13 -26 -3 -54 -11 -61 -17 -9 -7 -11 -6
-7 5 11 28 90 46 111 25z m-3536 -38 c0 -5 -4 -9 -10 -9 -5 0 -10 7 -10 16 0
8 5 12 10 9 6 -3 10 -10 10 -16z m670 -55 c0 -48 -3 -65 -12 -61 -7 2 -13 13
-12 25 3 97 5 113 14 107 6 -3 10 -36 10 -71z m-74 25 c-3 -17 -6 -39 -6 -48
0 -11 -9 -16 -30 -16 -31 0 -35 9 -24 50 5 19 34 40 58 44 5 0 6 -13 2 -30z
m1174 -103 c-225 -219 -338 -310 -377 -300 -20 5 -14 12 45 51 37 25 92 66
122 92 30 25 66 55 80 66 21 18 152 138 219 202 13 13 27 21 30 17 3 -3 -50
-60 -119 -128z m-991 44 c-19 -38 -37 -70 -41 -70 -5 0 -8 15 -8 33 0 23 9 41
35 66 19 19 35 38 35 44 0 6 3 8 6 4 4 -3 -9 -38 -27 -77z m190 47 c-13 -30
-98 -64 -111 -45 -14 22 -3 33 45 43 25 6 49 13 53 18 15 15 23 6 13 -16z
m606 12 c4 -6 16 -14 26 -17 17 -7 8 -19 -62 -90 -72 -73 -120 -105 -135 -89
-3 2 11 14 31 25 37 22 45 47 21 66 -8 6 -17 21 -21 34 -5 17 -2 22 13 22 11
0 23 7 26 16 3 8 14 14 23 12 10 -2 26 5 35 14 21 21 34 23 43 7z m1815 1 c0
-6 8 -14 17 -17 29 -11 52 -40 41 -51 -15 -15 0 -32 30 -33 18 -1 21 -3 9 -6
-28 -7 -16 -39 13 -35 38 4 14 -10 -27 -17 -49 -8 -51 -34 -3 -42 34 -6 24
-13 -15 -10 -11 1 -29 -4 -39 -12 -20 -15 -14 -37 10 -37 8 0 14 -5 14 -10 0
-7 -13 -8 -36 -4 -32 6 -39 3 -58 -21 -20 -25 -27 -27 -59 -21 -21 4 -35 11
-33 15 3 5 16 6 30 4 15 -3 30 2 42 15 11 11 29 23 42 27 42 12 21 38 -45 58
-57 17 -61 20 -47 34 17 17 10 29 -21 35 -29 5 -33 48 -6 55 12 3 21 14 21 24
0 13 11 21 38 29 20 5 44 14 52 20 19 13 30 13 30 0z m-2762 -72 c-7 -51 -23
-86 -35 -74 -4 3 17 128 23 138 14 23 20 -8 12 -64z m-164 25 c-9 -21 -19 -46
-21 -56 -4 -14 -8 -15 -14 -6 -7 12 10 58 33 87 18 22 19 13 2 -25z m3166 33
c0 -2 -7 -6 -15 -10 -8 -3 -15 -1 -15 4 0 6 7 10 15 10 8 0 15 -2 15 -4z
m-3454 -65 c-13 -14 -16 -28 -11 -50 6 -29 5 -30 -16 -23 -13 5 -28 17 -34 26
-8 14 -4 22 20 42 37 30 67 34 41 5z m235 -49 c23 -16 25 -45 4 -66 -8 -8 -15
-21 -15 -28 0 -7 9 -2 20 12 33 43 24 -2 -11 -49 -30 -43 -50 -51 -30 -13 15
28 14 69 -1 75 -10 3 -10 9 -2 24 7 11 11 39 9 64 -1 24 0 33 2 19 3 -13 13
-30 24 -38z m-107 31 c16 -9 16 -11 1 -23 -25 -21 -95 -19 -109 3 -24 40 49
53 108 20z m266 -14 c0 -17 -5 -39 -10 -49 -7 -13 -7 -21 0 -25 6 -4 8 -11 4
-16 -7 -11 -34 35 -34 56 0 24 19 65 30 65 5 0 10 -14 10 -31z m340 14 c-1 -5
-9 -24 -20 -43 -17 -31 -19 -32 -20 -12 0 27 17 62 30 62 6 0 10 -3 10 -7z
m-110 -80 l-31 -58 6 50 c4 34 13 56 28 68 33 28 32 5 -3 -60z m247 57 c14
-11 32 -20 39 -20 8 0 14 -4 14 -9 0 -10 -77 -31 -113 -31 -14 0 -27 -6 -30
-14 -4 -9 -15 -12 -32 -8 -25 4 -26 7 -20 41 4 20 8 37 8 37 4 3 83 22 95 23
8 1 25 -8 39 -19z m2496 13 c-7 -2 -19 -2 -25 0 -7 3 -2 5 12 5 14 0 19 -2 13
-5z m-2687 -78 c-5 -19 -43 -41 -53 -31 -6 5 19 66 27 66 4 0 11 10 15 23 7
21 8 21 12 -7 3 -15 2 -39 -1 -51z m-506 23 c0 -39 -26 -111 -57 -158 l-23
-35 0 33 c0 38 57 192 71 192 5 0 9 -14 9 -32z m2750 22 c0 -5 -4 -10 -10 -10
-5 0 -10 5 -10 10 0 6 5 10 10 10 6 0 10 -4 10 -10z m-2810 -47 c-11 -21 -20
-46 -20 -56 0 -15 -5 -17 -37 -11 -49 9 -53 11 -53 34 0 19 8 23 68 35 18 4
36 13 39 21 3 8 9 14 14 14 5 0 0 -17 -11 -37z m226 -1 c-10 -10 -29 15 -21
28 6 9 10 8 17 -4 6 -10 7 -20 4 -24z m2089 8 c-15 -16 -33 -26 -38 -23 -6 3
3 17 19 30 41 33 53 29 19 -7z m-1954 -33 c-17 -17 -22 -2 -9 29 11 28 12 29
16 5 2 -13 -1 -28 -7 -34z m1866 27 c-7 -7 -37 7 -37 17 0 6 9 5 21 -1 11 -7
19 -14 16 -16z m298 -4 c16 -16 24 -30 18 -30 -14 0 -63 39 -63 51 0 17 16 9
45 -21z m-2681 14 c9 -3 16 -10 16 -15 0 -14 -26 -10 -40 6 -13 16 -3 20 24 9z
m463 -31 c-3 -10 -5 -4 -5 12 0 17 2 24 5 18 2 -7 2 -21 0 -30z m913 12 c-7
-8 -20 -15 -29 -15 -12 0 -10 5 9 20 28 21 39 18 20 -5z m1530 6 c0 -6 -9 -9
-20 -8 -11 1 -20 5 -20 9 0 4 9 8 20 8 11 0 20 -4 20 -9z m-3174 -28 c-7 -16
-17 -44 -21 -63 -8 -36 -35 -84 -35 -62 0 6 -10 12 -22 13 -18 1 -16 3 10 11
21 7 32 17 32 29 0 17 -9 19 -77 20 -61 1 -72 3 -48 10 17 4 51 11 77 14 35 5
53 13 65 30 24 33 37 31 19 -2z m131 5 c-3 -8 -6 -5 -6 6 -1 11 2 17 5 13 3
-3 4 -12 1 -19z m3295 -2 c25 -1 10 -16 -16 -16 -42 0 -86 12 -80 22 4 6 21 7
43 2 20 -4 44 -7 53 -8z m-2562 -98 c-7 -32 -17 -58 -23 -58 -11 0 -2 77 16
130 10 32 12 33 15 11 2 -14 -2 -51 -8 -83z m1690 72 c-35 -30 -50 -34 -57
-13 -5 14 44 42 72 42 17 0 14 -5 -15 -29z m-1890 10 c0 -5 -4 -10 -10 -10 -5
0 -10 5 -10 10 0 6 5 10 10 10 6 0 10 -4 10 -10z m930 -4 c0 -8 -7 -17 -16
-20 -30 -11 -37 -6 -19 14 21 23 35 26 35 6z m-788 -43 c3 -27 2 -68 -2 -93
-6 -39 -8 -40 -9 -13 0 18 -6 52 -13 76 -11 44 -7 77 10 77 5 0 12 -21 14 -47z
m284 0 c-10 -26 -18 -8 -9 23 5 21 8 24 11 11 2 -10 1 -25 -2 -34z m-36 11
c-13 -33 -60 -94 -72 -94 -14 0 -1 48 24 88 11 18 28 32 39 32 16 0 17 -4 9
-26z m565 16 c3 -5 1 -10 -4 -10 -6 0 -11 5 -11 10 0 6 2 10 4 10 3 0 8 -4 11
-10z m-1011 -16 c3 -8 -3 -32 -15 -52 l-20 -37 5 40 c3 22 6 46 6 53 0 17 17
15 24 -4z m344 -35 c-12 -22 -29 -46 -37 -52 -12 -10 -13 -6 -8 28 4 24 15 46
29 56 34 26 41 12 16 -32z m1779 -34 c-5 -19 -20 -38 -34 -44 -15 -7 -23 -18
-21 -29 2 -12 -8 -22 -35 -34 -49 -22 -47 -23 -47 6 0 16 7 27 19 31 34 10 80
73 87 116 l7 40 17 -26 c14 -22 16 -33 7 -60z m-1374 61 c5 -14 -10 -36 -25
-36 -4 0 -8 8 -8 18 0 31 23 44 33 18z m-990 -13 c-2 -7 4 -43 12 -80 13 -64
13 -72 -8 -131 l-21 -63 -18 23 c-21 28 -23 45 -3 28 31 -25 48 17 21 55 -7
11 -16 38 -20 59 -4 22 -16 51 -27 64 -20 26 -26 47 -9 37 6 -3 13 1 16 10 8
19 60 17 57 -2z m191 -32 c-6 -36 -10 -41 -33 -41 -14 0 -41 -4 -59 -9 -36
-11 -36 -11 -20 24 8 17 14 22 19 13 10 -16 51 3 76 35 10 14 19 24 21 22 1
-1 0 -21 -4 -44z m852 3 c-9 -32 21 -33 33 0 10 24 37 36 81 35 24 0 23 -1
-14 -33 -46 -39 -143 -66 -158 -44 -12 19 -10 28 7 34 8 4 15 17 15 30 0 22 2
23 21 14 16 -9 19 -18 15 -36z m-122 30 c9 -3 16 -17 16 -31 0 -22 -4 -25 -25
-21 -15 3 -29 0 -33 -7 -8 -15 -71 -34 -89 -28 -7 3 -13 13 -13 24 0 15 -5 18
-25 15 -14 -3 -25 0 -25 5 0 16 43 27 68 18 41 -16 80 -11 92 11 12 22 12 22
34 14z m1513 -51 c-21 -22 -32 -11 -15 16 8 13 16 17 22 11 7 -7 4 -16 -7 -27z
m-3112 18 c-15 -14 -125 -26 -125 -13 0 12 16 16 85 20 33 2 47 0 40 -7z
m2255 -26 c0 -25 -4 -35 -14 -33 -7 2 -23 -8 -34 -22 -15 -18 -24 -22 -32 -14
-8 8 1 24 31 57 22 26 43 47 45 47 2 0 4 -16 4 -35z m-1290 17 c0 -20 -61 -92
-72 -86 -8 5 -4 12 10 22 12 8 22 22 22 31 0 18 18 41 32 41 4 0 8 -4 8 -8z
m1217 -30 c-21 -21 -27 -23 -27 -10 0 17 40 52 49 42 3 -2 -7 -17 -22 -32z
m1789 19 c-3 -5 -25 -13 -49 -19 -24 -7 -56 -18 -72 -26 -40 -21 -54 -8 -17
16 39 24 149 48 138 29z m-3640 -59 c-23 -23 -33 -6 -10 19 12 13 20 16 22 9
3 -7 -3 -19 -12 -28z m63 -8 c-31 -33 -36 -22 -8 17 13 19 25 27 27 20 2 -7
-6 -23 -19 -37z m971 36 c0 -5 -4 -10 -10 -10 -5 0 -10 5 -10 10 0 6 5 10 10
10 6 0 10 -4 10 -10z m-1511 -56 c1 -11 -10 -31 -24 -44 -20 -18 -25 -20 -25
-8 0 9 5 18 11 20 5 2 13 23 16 48 5 34 8 40 14 25 4 -11 8 -29 8 -41z m1185
40 c10 -25 7 -30 -20 -43 -35 -16 -38 -10 -17 28 20 35 28 38 37 15z m-62 -6
c-7 -7 -12 -20 -12 -30 0 -11 -7 -18 -20 -18 -28 0 -25 15 8 39 30 23 42 27
24 9z m175 -10 c-3 -8 -6 -5 -6 6 -1 11 2 17 5 13 3 -3 4 -12 1 -19z m379 7
c-22 -17 -72 -20 -81 -6 -5 9 24 17 75 19 24 1 24 1 6 -13z m454 -2 c0 -10 -4
-24 -9 -32 -8 -13 -12 -13 -26 -1 -16 13 -15 15 5 32 28 22 30 22 30 1z m1098
-21 c-18 -17 -34 -29 -36 -27 -7 7 31 54 46 58 28 6 26 0 -10 -31z m862 28 c0
-5 -7 -10 -16 -10 -8 0 -12 5 -9 10 3 6 10 10 16 10 5 0 9 -4 9 -10z m-3460
-31 c0 -5 -7 -9 -15 -9 -9 0 -15 9 -15 21 0 18 2 19 15 9 8 -7 15 -16 15 -21z
m139 -48 c-14 -4 -69 53 -69 71 0 7 18 -6 40 -27 24 -24 36 -41 29 -44z m228
57 c-3 -8 -6 -5 -6 6 -1 11 2 17 5 13 3 -3 4 -12 1 -19z m523 3 c0 -3 -9 -12
-20 -19 -17 -10 -20 -10 -20 6 0 10 3 21 6 25 7 7 34 -2 34 -12z m722 -5 c3
-14 -3 -34 -13 -47 -12 -16 -14 -27 -8 -35 7 -8 6 -14 -1 -19 -20 -12 -28 6
-28 60 1 53 3 57 39 64 4 0 9 -10 11 -23z m-1799 -31 c21 1 26 -3 21 -15 -3
-8 -8 -22 -11 -30 -5 -18 -137 -27 -148 -10 -4 6 6 10 24 10 29 0 43 11 47 38
2 8 -14 13 -44 14 l-47 1 44 4 c31 3 49 -1 64 -14 16 -13 18 -14 9 -2 -7 9 -9
25 -5 35 6 17 8 16 13 -6 5 -19 12 -25 33 -25z m940 24 c-4 -13 -9 -17 -15
-11 -11 11 -3 32 12 32 4 0 6 -9 3 -21z m36 -25 c-12 -13 -24 -22 -26 -20 -10
9 11 55 25 58 26 6 26 -11 1 -38z m340 25 c-27 -27 -70 -50 -81 -42 -13 8 22
43 43 43 10 0 21 5 24 10 3 6 13 10 21 10 10 0 8 -6 -7 -21z m86 11 c3 -6 -1
-7 -9 -4 -18 7 -21 14 -7 14 6 0 13 -4 16 -10z m-285 -34 c0 -6 -11 -19 -24
-28 -22 -16 -25 -16 -30 -1 -8 20 21 54 40 46 8 -3 14 -10 14 -17z m-580 -12
c8 -20 7 -29 -4 -38 -8 -6 -17 -22 -19 -36 -2 -14 -5 -5 -6 22 -1 43 6 78 15
78 3 0 9 -12 14 -26z m670 16 c0 -5 -2 -10 -4 -10 -3 0 -8 5 -11 10 -3 6 -1
10 4 10 6 0 11 -4 11 -10z m148 -6 c5 -9 24 -18 41 -19 40 -3 104 -46 90 -60
-7 -7 -13 -4 -20 8 -16 27 -39 20 -55 -18 -16 -39 -29 -45 -37 -15 -7 28 -24
25 -31 -5 -4 -16 -13 -25 -27 -25 -11 0 -18 4 -15 9 9 14 -17 30 -63 37 -44 7
-44 7 -37 -19 5 -22 3 -27 -13 -27 -10 0 -26 11 -35 25 -18 28 -14 32 59 55
45 15 86 39 98 57 11 18 34 16 45 -3z m1222 -11 c0 -21 -29 -53 -47 -53 -18 0
-16 9 7 48 20 33 40 35 40 5z m995 17 c-3 -5 -16 -10 -28 -10 -18 0 -19 2 -7
10 20 13 43 13 35 0z m-2795 -10 c0 -5 -5 -10 -11 -10 -5 0 -7 5 -4 10 3 6 8
10 11 10 2 0 4 -4 4 -10z m-275 -190 c4 -6 7 -39 6 -72 0 -52 1 -58 14 -48 11
9 15 9 15 1 0 -13 57 -10 79 3 28 18 23 -19 -18 -119 -14 -34 -62 -95 -75 -95
-6 0 1 131 9 163 6 22 4 27 -11 27 -13 0 -29 -19 -48 -54 -16 -30 -33 -53 -38
-50 -4 3 -8 -2 -8 -10 0 -9 -4 -16 -10 -16 -5 0 -10 12 -10 26 0 14 4 23 9 20
5 -4 6 4 3 16 -5 19 -7 20 -10 6 -2 -10 -12 -18 -22 -18 -10 0 -21 -8 -24 -17
-7 -23 0 53 9 93 5 23 3 33 -9 37 -11 4 -24 -10 -48 -54 -33 -60 -33 -60 -50
-38 -23 27 -24 74 -3 65 9 -3 15 0 15 9 0 8 -4 15 -10 15 -5 0 -10 5 -10 10 0
7 6 7 19 0 11 -5 24 -10 30 -10 15 0 14 43 -1 58 -9 9 -9 12 0 12 6 0 16 -9
22 -19 17 -34 97 -50 107 -23 3 9 20 32 37 50 l31 34 -36 -21 c-29 -17 -42
-19 -62 -12 -29 11 -28 26 12 111 l21 45 0 -52 c0 -52 12 -69 24 -37 3 9 6 37
6 62 0 96 15 100 21 5 4 -50 10 -97 14 -103z m1055 175 c-7 -8 -18 -15 -24
-15 -6 0 -2 7 8 15 25 19 32 19 16 0z m-847 -90 l-19 -58 -11 29 c-6 16 -14
41 -17 56 -3 14 -9 33 -12 41 -8 22 37 27 59 7 18 -16 18 -19 0 -75z m168 68
c-8 -15 -10 -15 -11 -2 0 17 10 32 18 25 2 -3 -1 -13 -7 -23z m-61 -34 c0 -4
-5 -11 -10 -14 -11 -7 -31 35 -22 49 5 9 32 -21 32 -35z m236 24 c7 -10 14
-24 14 -32 0 -11 -3 -11 -15 -1 -10 8 -19 9 -24 4 -12 -13 -43 -132 -48 -186
-4 -41 -2 -50 21 -71 14 -13 26 -29 26 -35 0 -5 7 -13 16 -16 14 -5 14 -9 3
-22 -11 -14 -10 -15 7 -12 11 2 19 -2 18 -9 -3 -42 -4 -43 -29 -37 -19 5 -25
2 -25 -9 0 -9 5 -19 10 -22 6 -3 10 -10 10 -15 0 -11 -52 -40 -81 -45 -26 -5
-36 21 -16 43 16 17 16 69 1 93 -22 36 -10 367 13 376 8 3 19 0 23 -7 6 -10
13 -9 31 4 29 20 29 20 45 -1z m-156 -15 c-5 -13 -14 -56 -20 -95 -11 -66 -30
-110 -30 -66 0 27 29 142 40 164 15 26 22 24 10 -3z m-1057 5 c-7 -2 -19 -2
-25 0 -7 3 -2 5 12 5 14 0 19 -2 13 -5z m556 -32 c-6 -18 -14 -30 -17 -27 -2
3 1 19 8 36 16 40 23 33 9 -9z m1314 33 c3 -4 -4 -24 -16 -46 -16 -30 -19 -42
-9 -45 19 -7 14 -41 -7 -48 -10 -3 -28 -27 -40 -53 l-20 -47 -1 47 c0 38 -3
46 -15 42 -8 -4 -15 -14 -15 -23 0 -10 -6 -25 -13 -36 -13 -16 -13 -15 -9 16
3 19 18 46 34 63 16 16 37 41 46 55 9 14 22 30 29 34 7 4 13 17 13 27 0 20 11
26 23 14z m230 -33 c-9 -34 26 -33 48 2 l20 32 -6 -55 c-4 -30 -13 -60 -20
-65 -8 -7 -14 -39 -16 -90 -1 -44 -4 -83 -6 -87 -2 -4 -15 4 -30 18 -24 23
-26 28 -20 89 5 53 4 65 -8 65 -11 0 -12 5 -5 26 13 33 2 53 -16 29 -21 -28
-24 -15 -7 28 12 30 18 35 29 26 11 -9 14 -8 14 6 0 14 3 15 14 6 8 -7 12 -20
9 -30z m457 35 c0 -2 -7 -7 -16 -10 -8 -3 -12 -2 -9 4 6 10 25 14 25 6z
m-2839 -58 c-10 -28 -8 -33 15 -55 l27 -25 -24 4 c-19 2 -25 -2 -27 -22 -5
-46 -14 -57 -22 -30 -17 54 -11 126 12 155 25 33 35 19 19 -27z m709 31 c0 -5
-4 -9 -10 -9 -5 0 -10 7 -10 16 0 8 5 12 10 9 6 -3 10 -10 10 -16z m1357 -1
c-3 -8 -6 -5 -6 6 -1 11 2 17 5 13 3 -3 4 -12 1 -19z m-67 -7 c0 -10 -7 -22
-16 -25 -13 -5 -14 -9 -5 -20 8 -10 9 -16 1 -21 -13 -8 -32 3 -25 15 3 5 -2
13 -11 18 -14 8 -12 12 11 30 34 27 45 28 45 3z m270 -60 c-21 -96 -31 -116
-41 -81 -4 14 -7 46 -8 72 -1 42 2 48 32 66 17 11 32 21 33 21 0 1 -7 -35 -16
-78z m800 71 c0 -19 -28 -44 -45 -41 -27 6 -29 24 -3 37 28 13 48 15 48 4z
m-185 -12 c3 -5 -1 -20 -8 -32 -36 -58 -51 -304 -20 -330 17 -14 0 -28 -36
-28 -18 0 -22 4 -16 18 18 43 18 52 -3 52 -12 0 -25 -8 -31 -17 -20 -36 -23 0
-8 84 27 152 29 171 12 180 -13 8 -13 11 1 32 25 36 96 63 109 41z m75 -13 c0
-28 17 -47 42 -47 10 0 18 -3 18 -7 0 -12 -33 -43 -47 -43 -17 0 -28 -28 -43
-110 -16 -85 -29 -130 -40 -130 -25 0 -24 231 1 255 8 7 10 -1 5 -30 -5 -31
-4 -36 4 -22 6 9 10 43 8 75 -2 41 1 60 12 69 24 19 40 15 40 -10z m-1777 -12
c-3 -9 2 -31 11 -50 10 -19 14 -39 11 -44 -3 -5 -1 -12 5 -16 22 -14 -15 -185
-40 -185 -8 0 14 153 25 171 4 8 5 11 1 7 -4 -3 -16 2 -27 13 -18 18 -18 21
-4 43 12 18 13 25 4 28 -8 3 -10 14 -5 31 3 15 11 25 16 22 5 -3 7 -12 3 -20z
m715 13 c-2 -6 -10 -14 -16 -16 -7 -2 -10 2 -6 12 7 18 28 22 22 4z m2068 -13
c-11 -8 -28 -15 -38 -15 -10 0 -18 -3 -18 -8 0 -8 -57 -6 -120 4 -28 5 -31 7
-17 15 10 6 23 6 32 1 9 -4 39 -5 68 -1 29 3 55 5 60 2 4 -2 7 1 7 6 0 6 10
11 23 11 21 -1 22 -1 3 -15z m-1356 -15 l36 0 -3 -162 c-2 -122 -7 -178 -21
-223 -29 -94 -68 -72 -42 24 8 32 16 41 33 42 17 1 18 2 5 6 -19 5 -24 38 -8
48 6 3 10 15 10 26 0 34 -33 18 -53 -25 -31 -65 -40 -34 -34 111 6 141 13 181
30 164 6 -6 27 -11 47 -11z m-2116 -15 c-6 -16 -24 -21 -24 -7 0 11 11 22 21
22 5 0 6 -7 3 -15z m746 5 c0 -5 -4 -10 -10 -10 -5 0 -10 5 -10 10 0 6 5 10
10 10 6 0 10 -4 10 -10z m3020 1 c0 -11 -25 -22 -65 -27 l-30 -4 35 19 c38 22
60 26 60 12z m-3450 -48 c0 -15 -5 -15 -37 -7 -13 4 -23 11 -23 16 0 6 7 8 15
4 11 -4 15 1 15 17 1 21 1 22 15 3 8 -11 15 -26 15 -33z m685 -71 c-4 -30 -8
-52 -10 -50 -12 11 -13 107 -3 138 l13 35 3 -35 c2 -19 1 -59 -3 -88z m-1052
97 c42 -11 47 -25 14 -40 -19 -9 -30 -6 -60 13 -20 13 -36 26 -37 31 0 10 38
9 83 -4z m1310 1 c38 0 39 0 32 -32 -4 -18 -17 -64 -30 -102 -24 -73 -23 -109
2 -99 17 7 33 -13 33 -42 -1 -18 -2 -18 -13 -4 -7 9 -22 19 -35 23 -26 9 -30
-10 -7 -40 27 -36 15 -36 -25 0 -60 54 -90 46 -90 -24 0 -15 -8 -38 -19 -51
l-18 -23 -7 22 c-4 12 -4 27 0 33 4 7 3 9 -3 6 -12 -7 -11 119 1 130 3 3 6 -1
6 -10 0 -11 8 -17 24 -17 14 0 28 -5 31 -10 12 -19 35 11 35 45 0 18 9 52 20
76 21 47 26 99 10 99 -5 0 -17 -22 -27 -50 -10 -27 -20 -50 -24 -50 -5 0 -39
99 -39 116 0 5 24 8 53 7 28 -1 69 -2 90 -3z m728 -70 c-10 -25 -10 -25 -10 5
-1 17 3 41 7 55 7 25 7 24 10 -5 2 -17 -1 -42 -7 -55z m-1851 55 c0 -8 -4 -15
-10 -15 -5 0 -10 7 -10 15 0 8 5 15 10 15 6 0 10 -7 10 -15z m1000 -151 c0 -6
-6 -17 -14 -23 -12 -10 -17 -6 -25 26 -6 21 -11 67 -10 103 l0 65 25 -79 c13
-44 24 -85 24 -92z m1500 157 c0 -5 -7 -11 -15 -15 -15 -5 -20 5 -8 17 9 10
23 9 23 -2z m-2769 -27 c28 -14 48 -28 45 -31 -3 -3 -11 -1 -18 4 -7 6 -31 16
-53 23 -46 14 -68 30 -42 30 10 0 40 -12 68 -26z m759 6 c0 -11 -4 -20 -9 -20
-5 0 -7 9 -4 20 3 11 7 20 9 20 2 0 4 -9 4 -20z m742 -11 c-3 -20 -9 -29 -20
-27 -9 2 -15 6 -14 11 1 4 2 16 2 27 0 13 7 20 18 20 15 0 18 -6 14 -31z m88
6 c0 -8 0 -18 0 -22 0 -5 -4 -9 -9 -11 -5 -2 -8 9 -8 23 0 14 3 25 8 25 5 0 9
-7 9 -15z m2110 1 c0 -14 -86 -43 -97 -33 -3 4 14 15 38 26 54 24 59 25 59 7z
m-1735 -28 c-4 -18 -12 -42 -18 -53 -11 -19 -12 -19 -15 3 -4 28 16 82 30 82
6 0 7 -14 3 -32z m-116 -70 c1 -28 -3 -38 -14 -38 -17 0 -19 30 -8 95 l7 40 7
-30 c4 -16 7 -47 8 -67z m533 62 c-2 -16 -6 -30 -8 -30 -2 0 -4 14 -4 30 0 17
4 30 8 30 5 0 7 -13 4 -30z m-1572 -12 c0 -18 -2 -20 -9 -8 -6 8 -7 18 -5 22
9 14 14 9 14 -14z m367 -80 c-2 -18 -4 -4 -4 32 0 36 2 50 4 33 2 -18 2 -48 0
-65z m1154 -79 c-8 -20 -10 -16 -10 27 -1 28 2 73 7 100 7 48 7 48 10 -27 1
-41 -2 -86 -7 -100z m-2631 151 c12 -8 11 -10 -7 -10 -13 0 -23 5 -23 10 0 13
11 13 30 0z m4147 -8 c1 -14 -11 -21 -50 -30 -29 -7 -63 -15 -76 -19 -18 -5
-22 -3 -16 7 6 10 1 12 -21 7 -16 -3 -37 -9 -46 -12 -30 -12 -20 13 12 30 40
21 96 21 130 0 6 -3 10 -1 10 4 0 6 -6 11 -12 12 -19 1 24 17 47 18 13 1 21
-6 22 -17z m-3076 -33 c-6 -16 -10 -18 -10 -7 -1 22 12 55 16 42 2 -6 -1 -22
-6 -35z m323 9 c4 -17 2 -28 -4 -28 -5 0 -10 14 -10 32 0 36 4 35 14 -4z
m1802 -4 c-3 -8 -10 -12 -16 -9 -7 4 -6 14 2 28 12 24 24 8 14 -19z m-1406
-34 c0 -64 -3 -69 -27 -45 -20 20 -10 105 13 105 11 0 14 -14 14 -60z m-1330
40 c0 -5 -9 -10 -21 -10 -14 0 -19 -5 -16 -14 7 -19 -17 -51 -31 -42 -19 12
-15 64 6 69 32 9 62 7 62 -3z m67 -27 c-3 -10 -5 -4 -5 12 0 17 2 24 5 18 2
-7 2 -21 0 -30z m-37 6 c0 -11 -4 -18 -10 -14 -5 3 -7 12 -3 20 7 21 13 19 13
-6z m1922 -27 c1 -23 -2 -45 -5 -49 -4 -3 -7 18 -7 47 0 62 9 63 12 2z m561
30 c21 0 40 -2 42 -4 6 -6 -19 -32 -67 -72 l-48 -38 0 28 c0 57 12 105 24 95
6 -5 28 -9 49 -9z m-3041 -42 c3 -27 2 -66 -2 -87 l-8 -38 -1 35 c-1 19 -4 59
-7 88 -4 32 -3 52 3 52 6 0 13 -22 15 -50z m1256 33 c-2 -10 -8 -18 -13 -18
-5 0 -11 8 -13 18 -2 10 3 17 13 17 10 0 15 -7 13 -17z m-1170 -21 c3 -20 1
-21 -22 -11 -33 15 -35 42 -3 37 14 -2 23 -11 25 -26z m38 -30 c-12 -11 -18 7
-10 30 l8 23 4 -23 c2 -13 1 -26 -2 -30z m2174 18 c10 0 22 5 26 11 9 16 24
-10 24 -43 0 -22 -5 -28 -22 -28 -17 0 -19 -3 -9 -9 11 -7 10 -13 -4 -35 -22
-33 -27 -33 -48 4 l-18 30 28 0 c24 1 25 2 10 11 -9 5 -22 7 -27 4 -12 -7 -13
9 -4 55 6 26 9 29 16 16 5 -9 18 -16 28 -16z m-1740 -18 c0 -13 -3 -12 -15 4
-19 25 -19 40 0 24 8 -7 15 -20 15 -28z m604 -31 c-4 -35 -11 -51 -21 -51 -11
0 -13 -5 -8 -17 14 -32 11 -57 -7 -61 -13 -2 -18 3 -18 17 0 11 -5 23 -11 26
-6 5 -8 23 -4 49 9 52 20 73 30 57 9 -15 35 4 35 27 0 8 2 13 5 10 4 -3 3 -29
-1 -57z m866 45 c0 -16 -18 -31 -27 -22 -8 8 5 36 17 36 5 0 10 -6 10 -14z
m1355 -13 c-11 -7 -22 -13 -27 -13 -14 0 -8 19 9 29 25 13 40 1 18 -16z m836
8 c14 -13 17 -21 9 -26 -6 -4 -17 1 -24 10 -12 16 -17 17 -77 1 -72 -18 -159
-22 -143 -7 7 8 71 20 207 40 4 0 17 -8 28 -18z m-3973 -16 c-6 -14 -15 -25
-20 -25 -4 0 -8 11 -8 25 0 18 5 25 20 25 17 0 18 -3 8 -25z m-168 -16 c0 -23
-16 -25 -24 -3 -10 25 -7 34 9 28 8 -4 15 -15 15 -25z m228 11 c8 -13 8 -20 1
-20 -5 0 -9 -8 -8 -17 4 -46 -4 -53 -35 -30 -17 12 -17 17 -5 50 15 42 28 46
47 17z m72 0 c0 -4 -7 -13 -15 -20 -13 -11 -15 -8 -15 13 0 19 4 25 15 21 8
-4 15 -10 15 -14z m152 3 c22 -19 23 -33 3 -33 -7 0 -18 -8 -24 -17 -5 -10
-21 -17 -38 -18 -22 0 -28 -5 -29 -23 -1 -12 3 -25 7 -28 5 -3 9 -13 9 -22 0
-14 -2 -13 -14 3 -21 31 -16 57 21 99 18 22 33 43 33 48 0 13 12 10 32 -9z
m1585 -5 c-3 -8 -6 -5 -6 6 -1 11 2 17 5 13 3 -3 4 -12 1 -19z m2073 -9 c0 -5
-8 -9 -17 -8 -11 0 -13 3 -5 6 6 2 9 10 6 15 -4 7 -2 8 4 4 7 -4 12 -11 12
-17z m-3788 -35 c-22 -29 -25 -25 -11 15 8 23 14 29 19 20 5 -7 1 -22 -8 -35z
m63 36 c-3 -5 -10 -10 -16 -10 -5 0 -9 5 -9 10 0 6 7 10 16 10 8 0 12 -4 9
-10z m135 -23 c0 -18 -2 -19 -10 -7 -13 20 -13 43 0 35 6 -3 10 -16 10 -28z
m1806 -4 c-11 -11 -19 6 -11 24 8 17 8 17 12 0 3 -10 2 -21 -1 -24z m1402 31
c28 -4 52 -10 52 -15 0 -9 -162 -1 -225 11 -33 7 -27 8 40 9 44 0 104 -2 133
-5z m-3621 -36 c-3 -7 -5 -2 -5 12 0 14 2 19 5 13 2 -7 2 -19 0 -25z m594 -8
c-6 -26 -10 -31 -15 -18 -4 9 -2 26 4 38 16 30 20 22 11 -20z m-676 0 c-4 -12
-9 -19 -12 -17 -3 3 -2 15 2 27 4 12 9 19 12 17 3 -3 2 -15 -2 -27z m2994 4
c-14 -17 -5 -44 15 -44 22 0 9 -25 -19 -38 -18 -8 -26 -8 -31 0 -5 7 -2 8 7 3
8 -4 1 6 -16 24 -25 27 -27 34 -15 41 8 5 24 15 35 23 23 18 41 11 24 -9z
m1046 16 c3 -5 1 -10 -4 -10 -6 0 -11 5 -11 10 0 6 2 10 4 10 3 0 8 -4 11 -10z
m-1909 -37 c-4 -4 -11 -1 -16 7 -16 25 -11 35 7 17 9 -9 13 -20 9 -24z m-1304
-19 c-7 -31 -11 -35 -17 -21 -4 11 -2 29 5 43 18 33 22 25 12 -22z m1121 26
c4 0 5 5 2 10 -3 6 1 10 9 10 17 0 22 -15 7 -24 -4 -3 -11 -19 -14 -36 -4 -16
-12 -30 -18 -30 -7 0 -10 3 -7 6 4 3 0 17 -7 31 -15 29 -9 61 8 44 6 -6 15
-11 20 -11z m-1473 -31 c5 -1 16 -2 23 -3 13 -2 11 -25 -4 -41 -7 -7 -14 -4
-20 8 -6 9 -17 17 -24 17 -17 0 -18 4 -8 39 6 24 6 24 14 3 5 -12 13 -23 19
-23z m1300 -1 c0 -10 -4 -18 -10 -18 -5 0 -10 15 -10 33 0 24 3 28 10 17 5 -8
10 -23 10 -32z m540 -7 c-5 -9 -19 -27 -31 -41 l-21 -25 6 48 c8 63 14 72 37
51 13 -12 16 -21 9 -33z m-2245 18 c-2 -11 -7 -30 -10 -40 -7 -20 -7 -20 -21
-2 -24 32 -16 46 33 62 1 1 0 -8 -2 -20z m208 -26 c-7 -3 -13 -16 -13 -29 0
-22 -2 -23 -20 -12 -22 14 -26 39 -9 70 l11 20 22 -22 c15 -16 17 -24 9 -27z
m1336 -49 c-6 -8 -15 -14 -20 -14 -16 0 -41 62 -34 87 6 24 6 24 36 -17 24
-33 28 -44 18 -56z m-1450 62 l22 -24 -21 -51 c-13 -28 -26 -51 -31 -51 -19 0
-31 44 -25 94 3 28 6 52 6 54 1 11 31 -3 49 -22z m484 -4 c34 -30 18 -44 -17
-15 -19 15 -32 31 -30 35 6 9 20 3 47 -20z m1403 4 c3 -14 3 -31 -1 -38 -3 -7
0 -5 9 6 15 19 42 13 30 -6 -5 -7 -1 -9 9 -5 10 4 17 1 17 -5 0 -6 7 -19 15
-28 14 -15 12 -24 -20 -86 -41 -82 -75 -159 -75 -172 0 -4 -12 -32 -26 -61
-25 -52 -51 -118 -100 -253 -83 -228 -142 -349 -188 -388 -36 -29 -26 6 38
130 38 73 66 133 64 135 -2 3 -28 -43 -58 -100 -29 -58 -55 -103 -57 -101 -3
2 0 21 6 42 6 21 9 39 7 41 -5 6 -36 -87 -36 -108 0 -17 -35 -49 -52 -49 -22
0 7 111 51 197 12 24 18 49 14 59 -4 12 -3 15 5 10 7 -4 12 -5 12 -2 0 2 3 12
7 22 4 11 3 15 -4 11 -6 -4 -14 -1 -16 5 -3 8 -6 6 -6 -5 -1 -9 -5 -25 -10
-35 -5 -9 -24 -53 -41 -97 -29 -76 -93 -166 -106 -152 -4 4 6 26 22 49 33 49
58 102 44 93 -5 -3 -23 -30 -40 -60 -17 -30 -34 -55 -37 -55 -11 0 12 72 57
175 66 150 101 238 97 242 -7 7 -155 -344 -168 -397 -21 -88 -66 -127 -55 -48
8 60 63 207 137 364 64 137 79 174 70 174 -7 0 -61 -102 -61 -115 0 -3 -38
-83 -85 -179 -59 -120 -100 -190 -130 -223 -39 -43 -44 -45 -45 -25 0 13 11
47 25 75 25 53 224 413 263 477 12 19 27 46 34 60 16 32 31 42 40 27 4 -7 11
0 19 19 7 16 24 41 38 57 27 29 19 37 -11 10 -19 -17 -24 -8 -8 17 6 9 5 17
-3 22 -14 9 17 73 39 82 12 4 11 0 -1 -24 -17 -34 -18 -40 -6 -40 12 0 55 89
47 97 -3 4 -6 1 -6 -5 0 -7 -6 -12 -12 -12 -8 1 -4 8 7 18 12 9 35 41 52 71
26 46 32 51 37 33 4 -11 14 -23 22 -26 12 -5 11 -11 -7 -36 -13 -16 -20 -32
-17 -36 4 -3 12 5 18 18 7 12 29 43 50 68 20 25 42 55 49 68 15 29 29 28 37
-2z m385 -9 c-8 -8 -11 -7 -11 4 0 20 13 34 18 19 3 -7 -1 -17 -7 -23z m-2459
-17 c-2 -19 -10 -55 -19 -79 -14 -35 -18 -40 -24 -25 -6 18 -2 104 7 132 2 8
12 12 21 10 14 -3 17 -12 15 -38z m408 25 c0 -8 -4 -15 -10 -15 -5 0 -10 7
-10 15 0 8 5 15 10 15 6 0 10 -7 10 -15z m2444 -68 c-26 -83 -56 -147 -66
-147 -11 0 -4 66 13 133 8 32 14 38 30 34 10 -3 19 -1 19 4 0 5 -7 9 -15 9
-19 0 -19 6 3 28 28 29 36 0 16 -61z m76 73 c0 -5 -4 -10 -10 -10 -5 0 -10 5
-10 10 0 6 5 10 10 10 6 0 10 -4 10 -10z m-2273 -69 c-4 -26 -22 -21 -44 12
-34 49 -28 63 11 30 19 -15 34 -34 33 -42z m2463 49 c0 -23 -42 -78 -56 -73
-21 8 -17 37 11 67 23 25 45 28 45 6z m-2140 -17 c-12 -43 -32 -83 -42 -83 -4
0 -8 -7 -8 -17 0 -14 -2 -14 -20 2 -28 26 -25 52 10 70 16 8 34 24 40 35 16
30 30 24 20 -7z m2600 15 c0 -11 -90 -9 -115 2 -14 7 1 9 48 7 37 -1 67 -5 67
-9z m-2763 -9 c13 -13 5 -49 -12 -49 -7 0 -18 7 -25 15 -10 12 -10 18 0 30 15
18 22 19 37 4z m1573 -54 c-26 -54 -33 -54 -19 1 17 66 19 68 31 56 7 -7 4
-23 -12 -57z m285 55 c-3 -5 -13 -10 -20 -10 -19 0 -36 -33 -49 -94 -14 -61
-41 -79 -30 -20 15 82 30 119 46 116 9 -1 19 2 23 8 3 5 13 10 21 10 8 0 12
-4 9 -10z m1060 0 c49 -7 48 -7 -27 -9 -42 0 -80 4 -83 9 -7 12 37 12 110 0z
m-3235 -36 c0 -6 -7 -17 -15 -24 -22 -18 -38 0 -30 33 6 23 9 24 26 14 10 -6
19 -17 19 -23z m2256 10 c-9 -34 -61 -116 -69 -108 -3 4 -2 14 2 23 5 9 12 37
16 64 6 42 10 47 32 47 22 0 24 -3 19 -26z m-2686 -16 c0 -5 -7 -8 -15 -8 -15
0 -20 21 -8 33 7 7 23 -11 23 -25z m2916 5 c-7 -7 -26 7 -26 19 0 6 6 6 15 -2
9 -7 13 -15 11 -17z m341 -35 c-10 -15 -13 -15 -37 5 -15 13 -25 29 -22 38 3
15 7 15 36 -5 27 -17 31 -24 23 -38z m-2959 -1 c-2 -12 -10 -23 -19 -25 -13
-2 -15 3 -12 25 9 52 13 60 24 40 6 -10 9 -28 7 -40z m362 37 c0 -8 -4 -12
-10 -9 -5 3 -10 10 -10 16 0 5 5 9 10 9 6 0 10 -7 10 -16z m-470 -55 l-14 -33
-7 27 c-4 15 -5 36 -2 48 5 18 7 19 21 5 13 -13 13 -19 2 -47z m360 14 c0 -7
-9 -13 -20 -13 -16 0 -20 7 -20 32 0 30 0 31 20 13 11 -10 20 -24 20 -32z
m492 22 c9 -21 7 -30 -14 -63 -20 -30 -32 -38 -54 -37 -16 0 -29 -6 -30 -12
-3 -26 -5 -28 -13 -13 -4 8 -5 37 -2 64 5 43 10 50 41 66 48 25 59 24 72 -5z
m138 3 c0 -30 -15 -52 -29 -44 -7 4 -9 1 -5 -7 8 -22 -16 -32 -33 -14 -22 22
-9 61 24 74 41 16 43 15 43 -9z m1211 -53 c-5 -47 -10 -64 -15 -52 -5 9 -12
17 -17 17 -4 0 -6 -8 -2 -17 3 -10 3 -15 -1 -12 -13 12 -16 60 -5 82 12 24 41
59 44 55 1 -2 -1 -34 -4 -73z m-1052 6 c-36 -31 -51 -34 -28 -4 13 17 13 17
-7 1 -25 -22 -38 -23 -53 -4 -14 17 -4 25 33 28 14 1 26 7 26 13 0 5 4 4 9 -4
7 -11 10 -9 16 9 6 20 8 21 23 6 14 -14 12 -18 -19 -45z m361 15 c-12 -20 -26
-36 -31 -36 -6 0 2 18 18 39 34 48 44 45 13 -3z m1126 -41 c-9 -42 -15 -79
-15 -83 1 -4 1 -15 0 -26 -1 -15 -4 -16 -15 -7 -17 14 -13 60 11 131 8 25 17
51 19 59 3 8 7 11 10 8 3 -3 -1 -40 -10 -82z m264 76 c0 -5 -7 -11 -14 -14
-10 -4 -13 -1 -9 9 6 15 23 19 23 5z m-913 -30 c1 -24 1 -25 -13 -6 -17 23
-18 32 -1 32 6 0 13 -12 14 -26z m1163 21 c0 -4 -9 -13 -20 -20 -22 -13 -27
-3 -8 16 14 14 28 16 28 4z m-3350 -28 c0 -8 -4 -12 -10 -9 -5 3 -10 13 -10
21 0 8 5 12 10 9 6 -3 10 -13 10 -21z m480 -4 c0 -33 27 -54 56 -43 14 5 16 3
10 -13 -5 -10 -11 -27 -13 -36 -3 -10 -9 -18 -14 -18 -15 0 -59 66 -59 88 0
12 -5 22 -11 22 -8 0 -8 5 1 15 19 23 30 18 30 -15z m179 -8 c8 -18 21 -32 28
-32 16 0 17 -16 1 -26 -6 -4 -25 9 -45 31 -34 38 -38 47 -26 59 12 12 28 0 42
-32z m61 23 c0 -8 -4 -15 -10 -15 -5 0 -10 7 -10 15 0 8 5 15 10 15 6 0 10 -7
10 -15z m801 -7 c25 -31 24 -47 -1 -20 -12 12 -27 22 -35 22 -8 0 -15 5 -15
10 0 18 31 10 51 -12z m1399 -8 c0 -10 -4 -22 -10 -25 -6 -4 -10 7 -10 25 0
18 4 29 10 25 6 -3 10 -15 10 -25z m294 5 c22 -33 20 -37 -9 -23 -14 6 -25 19
-25 30 0 25 15 23 34 -7z m266 19 c0 -6 -58 -93 -85 -128 -8 -11 -18 -17 -22
-13 -3 4 2 16 12 27 10 11 19 31 21 46 3 29 40 74 61 74 7 0 13 -3 13 -6z m91
-39 c-17 -20 -31 -40 -31 -45 0 -6 -13 -10 -30 -10 -37 0 -37 5 -5 53 22 31
31 37 61 37 l36 0 -31 -35z m-2726 -23 c-8 -8 -35 20 -35 37 1 12 5 11 21 -8
11 -13 17 -26 14 -29z m790 25 c0 -26 -20 -25 -23 2 -3 16 1 22 10 19 7 -3 13
-12 13 -21z m2021 -2 c-9 -36 -99 -146 -110 -135 -13 13 13 60 32 60 9 0 12 3
9 7 -4 3 3 21 14 39 11 19 18 38 14 44 -4 6 5 10 20 10 24 0 26 -3 21 -25z
m410 13 c8 -9 -27 -17 -86 -20 -34 -2 -46 -7 -48 -21 -3 -17 2 -19 57 -15 34
1 61 -1 61 -6 0 -4 -11 -21 -25 -38 -14 -16 -25 -36 -25 -44 0 -8 -10 -14 -25
-14 -29 0 -31 11 -9 46 13 19 14 28 6 36 -13 13 -48 -13 -57 -43 -7 -21 -13
-23 -33 -10 -11 7 -10 16 7 49 24 48 26 62 8 62 -8 0 -28 -22 -46 -50 -18 -27
-34 -50 -36 -50 -2 0 -10 3 -18 6 -13 5 -13 9 1 35 10 16 23 29 30 29 7 0 11
4 8 8 -10 16 10 30 53 39 51 10 167 10 177 1z m-4029 -23 c-4 -8 -11 -15 -17
-15 -7 0 -7 6 0 21 13 23 26 19 17 -6z m201 -7 c-3 -32 -1 -33 29 -30 30 2 32
0 23 -22 -5 -13 -6 -27 -3 -30 3 -3 -2 -17 -11 -32 -16 -24 -19 -24 -35 -10
-18 16 -41 21 -41 10 0 -4 12 -18 26 -31 20 -19 24 -27 15 -36 -8 -8 -16 -9
-29 -1 -21 13 -30 84 -11 84 10 0 10 3 1 12 -18 18 -15 42 11 82 12 19 23 35
25 36 2 0 2 -15 0 -32z m158 -53 c-4 -14 -11 -25 -16 -25 -15 0 -43 48 -37 65
4 8 2 17 -4 20 -5 4 -7 11 -4 16 4 5 20 -4 37 -21 23 -24 29 -36 24 -55z
m1858 51 c-6 -16 -8 -17 -16 -2 -11 19 0 42 13 29 6 -6 7 -18 3 -27z m630 19
c3 -8 1 -15 -4 -15 -6 0 -10 7 -10 15 0 8 2 15 4 15 2 0 6 -7 10 -15z m114 -3
c6 -18 -15 -14 -22 4 -4 10 -1 14 6 12 6 -2 14 -10 16 -16z m769 -4 c8 -7 7
-17 -4 -39 -18 -35 -34 -44 -67 -35 -25 6 -25 6 -9 51 14 41 17 44 41 39 15
-4 32 -11 39 -16z m-3630 -25 c-3 -10 -5 -4 -5 12 0 17 2 24 5 18 2 -7 2 -21
0 -30z m630 22 c8 -22 -6 -33 -17 -15 -13 20 -12 30 0 30 6 0 13 -7 17 -15z
m1384 -9 c10 -21 6 -34 -27 -93 -62 -111 -95 -184 -91 -202 3 -11 7 -7 16 14
17 44 81 166 102 197 11 14 19 31 19 38 0 17 17 3 23 -20 3 -11 2 -18 -2 -15
-5 2 -13 -7 -20 -21 -14 -31 -14 -44 0 -44 14 0 39 25 39 39 0 6 5 11 11 11 6
0 9 -7 5 -15 -3 -8 -2 -15 3 -15 5 0 21 -18 35 -39 l28 -40 -40 -78 c-22 -43
-57 -123 -77 -178 -20 -55 -41 -108 -46 -117 -5 -10 -9 -24 -9 -32 0 -24 -100
-268 -129 -313 -24 -38 -30 -42 -67 -43 -40 0 -41 1 -36 28 2 15 10 34 17 42
36 45 80 135 150 308 42 106 75 195 73 198 -3 3 -27 -48 -53 -113 -73 -184
-150 -349 -167 -359 -4 -2 13 53 38 122 25 70 43 129 41 131 -5 5 -46 -94 -57
-139 -36 -137 -88 -217 -103 -157 -4 13 11 51 41 107 26 48 70 140 97 204 28
64 52 112 54 106 2 -5 -5 -27 -14 -48 -9 -21 -15 -44 -13 -50 2 -7 16 22 30
64 25 70 28 106 8 106 -4 0 -18 -28 -30 -62 -13 -35 -31 -79 -41 -98 -9 -19
-38 -79 -64 -134 -25 -54 -48 -96 -50 -94 -6 6 33 120 75 218 17 41 42 104 56
139 14 35 32 77 40 93 9 16 13 32 10 35 -3 4 -15 -16 -27 -43 -12 -27 -31 -69
-42 -94 -38 -85 -137 -351 -137 -369 0 -10 -10 -26 -21 -37 l-22 -19 5 55 c2
32 20 91 40 140 20 47 55 130 79 185 23 55 43 117 45 139 1 21 8 43 14 50 10
8 11 8 6 -1 -4 -7 -2 -13 3 -13 13 0 13 2 15 58 1 23 8 48 16 55 11 10 12 8 6
-8 -16 -43 -17 -49 -2 -25 8 14 13 33 10 42 -3 9 2 33 10 52 16 38 32 50 21
16 -10 -32 2 -23 13 9 9 26 8 29 -5 24 -11 -4 -14 -2 -9 5 4 7 13 12 21 12 8
0 17 5 21 12 5 7 2 9 -9 5 -11 -4 -14 -2 -10 9 3 7 14 14 25 14 17 0 18 3 8
15 -10 12 -8 14 8 10 15 -3 18 1 14 21 -6 31 15 31 29 0z m-905 -3 c22 -29 18
-46 -6 -31 -11 7 -20 21 -20 30 0 23 9 23 26 1z m122 -29 c-9 -9 -18 -10 -28
-4 -13 9 -11 13 10 30 22 17 25 17 28 3 2 -8 -2 -21 -10 -29z m1740 21 c-6
-14 -13 -23 -16 -21 -7 7 9 46 18 46 5 0 4 -11 -2 -25z m-2468 -12 c36 -31 36
-36 10 -107 l-21 -54 -30 28 c-27 24 -30 31 -23 66 10 56 13 59 45 28 16 -15
32 -25 35 -21 3 3 -10 20 -30 37 -20 18 -33 36 -30 41 8 13 11 12 44 -18z
m480 12 c10 -12 10 -19 1 -28 -9 -9 -14 -9 -21 3 -22 34 -4 54 20 25z m312
-52 c-10 -26 -10 -24 -11 22 0 42 2 46 11 28 7 -15 7 -30 0 -50z m1545 35 c-3
-8 -6 -5 -6 6 -1 11 2 17 5 13 3 -3 4 -12 1 -19z m214 6 c14 -13 16 -21 7 -47
-5 -18 -12 -38 -14 -46 -4 -12 -9 -10 -26 7 -20 20 -21 24 -8 62 15 45 17 46
41 24z m129 6 c0 -5 -2 -10 -4 -10 -3 0 -8 5 -11 10 -3 6 -1 10 4 10 6 0 11
-4 11 -10z m-3302 -25 c2 -9 0 -15 -5 -12 -5 3 -8 -6 -6 -21 5 -39 -11 -60
-31 -43 -21 18 -20 60 2 82 20 21 36 19 40 -6z m100 18 c0 -5 2 -16 6 -25 5
-10 5 -25 2 -34 -6 -15 -10 -14 -32 7 l-25 24 21 17 c24 20 31 22 28 11z
m1422 -24 c0 -5 -7 -6 -15 -3 -8 4 -15 13 -15 21 0 13 3 13 15 3 8 -7 15 -16
15 -21z m-730 -47 c0 -4 -7 -16 -15 -26 -15 -19 -15 -19 -40 4 -14 13 -28 20
-32 16 -4 -4 5 -18 20 -32 30 -27 35 -39 13 -31 -10 4 -13 1 -9 -9 5 -15 -22
-54 -39 -54 -12 0 -10 78 2 85 6 4 8 10 5 15 -3 5 0 29 6 54 l11 46 39 -31
c22 -17 39 -34 39 -37z m249 41 c-1 -10 2 -28 6 -40 5 -15 3 -23 -4 -23 -7 0
-9 -4 -6 -10 8 -13 2 -13 -30 2 -31 14 -32 30 -3 63 25 29 37 32 37 8z m181 2
c0 -8 -4 -15 -10 -15 -5 0 -10 7 -10 15 0 8 5 15 10 15 6 0 10 -7 10 -15z m94
-26 c-7 -13 -24 7 -24 29 0 10 4 10 16 -2 8 -9 12 -21 8 -27z m966 15 c0 -8
-4 -12 -10 -9 -5 3 -10 13 -10 21 0 8 5 12 10 9 6 -3 10 -13 10 -21z m165 -63
l-7 -36 -19 24 c-24 30 -24 42 4 77 l22 29 3 -29 c2 -16 1 -45 -3 -65z m151
59 c11 0 12 -4 4 -19 -5 -11 -10 -29 -10 -41 0 -27 -21 -22 -38 11 -11 19 -11
30 -2 54 10 26 13 28 21 13 6 -10 17 -18 25 -18z m904 16 c0 -11 -19 -15 -25
-6 -3 5 1 10 9 10 9 0 16 -2 16 -4z m-3168 -91 c-30 -63 -46 -59 -39 10 7 72
14 82 40 56 l21 -21 -22 -45z m838 58 c7 -16 12 -34 11 -42 -4 -25 -35 -61
-48 -56 -7 2 -10 -2 -6 -11 6 -15 -5 -18 -23 -6 -12 7 -12 81 0 100 4 6 13 9
22 5 8 -3 14 -2 13 3 -7 40 13 44 31 7z m1806 11 c-3 -9 -6 -23 -6 -31 0 -14
-3 -14 -20 2 -25 22 -25 32 -2 38 31 8 34 7 28 -9z m483 -5 c11 -19 10 -25 -7
-48 -23 -32 -46 -34 -50 -4 -3 21 23 73 37 73 3 0 12 -10 20 -21z m-2549 -37
c0 -4 -4 -13 -8 -20 -6 -9 -16 -4 -36 17 -36 38 -26 59 15 31 16 -12 29 -24
29 -28z m2795 28 c6 -9 -84 -94 -91 -87 -8 7 16 91 28 98 11 7 57 -1 63 -11z
m338 -12 c-18 -31 -43 -49 -43 -30 0 13 42 62 53 62 5 0 1 -14 -10 -32z
m-3955 -14 c6 -4 -19 -83 -28 -89 -5 -3 -17 6 -26 20 -14 22 -15 32 -5 66 12
41 12 41 34 23 12 -11 23 -20 25 -20z m1184 19 c23 -21 23 -27 -5 -55 -13 -13
-22 -28 -20 -33 1 -6 -6 -21 -17 -35 -30 -38 -43 -10 -22 46 14 37 20 43 37
38 16 -5 18 -4 8 7 -14 14 -18 49 -6 49 3 0 15 -7 25 -17z m1965 -39 c-7 -23
-15 -42 -19 -43 -35 -5 -37 13 -7 64 27 46 42 33 26 -21z m-2757 -19 c0 -24
-18 -27 -40 -5 -19 19 -26 50 -14 62 8 8 54 -40 54 -57z m890 17 c0 -25 -1
-25 -15 -6 -8 10 -15 27 -15 38 0 15 3 16 15 6 8 -7 15 -24 15 -38z m2399 -10
c-21 -47 -46 -82 -60 -82 -12 0 18 100 36 120 9 10 23 16 30 14 11 -5 10 -15
-6 -52z m-1109 25 c0 -13 5 -28 12 -35 6 -6 8 -15 5 -19 -14 -13 -47 31 -41
55 8 29 24 29 24 -1z m670 8 c-7 -9 -15 -13 -17 -11 -7 7 7 26 19 26 6 0 6 -6
-2 -15z m-397 -9 c18 -14 25 -82 7 -71 -5 3 -10 15 -10 26 0 10 -7 19 -15 19
-8 0 -15 9 -15 20 0 23 8 25 33 6z m931 -20 c-9 -30 -71 -131 -89 -146 -24
-20 -40 1 -25 31 39 75 93 147 106 142 10 -3 12 -13 8 -27z m-3916 12 c19 -19
14 -30 -8 -18 -11 6 -20 15 -20 20 0 14 14 12 28 -2z m3176 -4 c23 -23 19 -40
-4 -19 -11 10 -20 22 -20 27 0 12 7 10 24 -8z m-2754 -75 c-7 -16 -17 -29 -22
-29 -20 0 -19 33 1 60 11 16 22 35 22 42 1 7 4 0 6 -16 3 -15 -1 -41 -7 -57z
m505 51 c5 -9 -20 -70 -30 -70 -13 0 -25 45 -20 71 6 24 9 27 25 19 10 -6 22
-14 25 -20z m795 9 c-7 -11 -14 -19 -16 -16 -7 7 7 37 17 37 6 0 5 -9 -1 -21z
m1848 -2 c2 -9 -4 -27 -14 -42 -13 -19 -20 -23 -30 -14 -11 9 -10 17 3 45 17
35 36 40 41 11z m442 8 c0 -3 -19 -37 -42 -75 -38 -66 -42 -69 -59 -54 -18 17
-16 23 38 112 12 19 63 33 63 17z m50 -16 c0 -5 -9 -9 -20 -9 -11 0 -20 -5
-20 -12 0 -6 -3 -9 -6 -6 -11 12 16 47 31 42 8 -4 15 -10 15 -15z m-3883 -1
c-2 -7 -1 -20 4 -29 6 -11 4 -21 -6 -29 -8 -7 -15 -20 -15 -28 0 -15 -2 -15
-17 0 -15 16 -15 20 2 58 10 22 22 40 27 40 5 0 8 -6 5 -12z m869 -37 c-15
-24 -36 -11 -36 21 l0 32 21 -21 c12 -11 18 -26 15 -32z m349 10 c-10 -16 -25
-3 -25 22 0 20 1 20 16 5 9 -9 13 -21 9 -27z m-1406 20 c8 -5 11 -16 7 -26 -5
-14 -9 -15 -21 -5 -16 13 -21 40 -7 40 4 0 13 -4 21 -9z m2401 -28 c-11 -17
-11 -17 -6 0 3 10 6 24 7 30 0 9 2 9 5 0 3 -7 0 -20 -6 -30z m152 -43 c-2 -3
-10 3 -17 14 -11 14 -11 23 -2 44 12 26 12 26 17 -13 3 -22 4 -42 2 -45z m291
66 c6 -16 -2 -28 -14 -20 -12 7 -11 34 0 34 5 0 11 -6 14 -14z m326 1 c12 -15
5 -27 -16 -27 -7 0 -13 9 -13 20 0 23 13 26 29 7z m289 -5 c2 -7 -3 -12 -12
-12 -9 0 -16 7 -16 16 0 17 22 14 28 -4z m-2948 -28 c0 -8 -7 -14 -15 -14 -10
0 -15 10 -15 26 0 22 2 25 15 14 8 -7 15 -19 15 -26z m2198 13 c14 -15 18 -27
12 -37 -7 -12 -12 -11 -29 4 -21 19 -29 56 -13 56 5 0 18 -10 30 -23z m678 11
c-2 -7 -10 -30 -17 -51 -12 -35 -13 -36 -31 -21 -23 22 -23 39 2 64 22 22 55
27 46 8z m-1826 -7 c0 -11 -31 -44 -36 -39 -2 2 -1 14 3 26 5 21 33 32 33 13z
m-1510 -49 c0 -36 0 -36 -16 -14 -9 13 -13 31 -9 42 10 31 25 13 25 -28z m516
21 c-10 -10 -19 5 -10 18 6 11 8 11 12 0 2 -7 1 -15 -2 -18z m404 -20 c0 -44
-1 -46 -16 -31 -15 14 -15 21 -4 47 7 17 14 31 16 31 2 0 4 -21 4 -47z m1807
15 c-3 -7 -5 -2 -5 12 0 14 2 19 5 13 2 -7 2 -19 0 -25z m483 -1 c0 -5 -4 -5
-10 -2 -5 3 -10 14 -10 23 0 15 2 15 10 2 5 -8 10 -19 10 -23z m841 9 c-6 -7
-13 -32 -17 -56 -11 -74 -43 -121 -63 -96 -9 11 -7 23 9 51 12 21 19 44 16 52
-3 8 -1 11 4 8 5 -3 16 10 24 30 9 21 20 34 26 30 7 -5 8 -11 1 -19z m-3841
-8 c0 -13 -23 -5 -28 10 -2 7 2 10 12 6 9 -3 16 -11 16 -16z m50 12 c0 -5 -5
-10 -11 -10 -5 0 -7 5 -4 10 3 6 8 10 11 10 2 0 4 -4 4 -10z m2150 1 c0 -6 -4
-13 -10 -16 -5 -3 -10 1 -10 9 0 9 5 16 10 16 6 0 10 -4 10 -9z m1177 -50 c-9
-20 -17 -29 -21 -22 -11 18 -22 13 -23 -11 -2 -19 0 -20 8 -8 9 12 10 12 5 -3
-3 -10 -6 -24 -6 -30 0 -8 -4 -7 -12 1 -7 7 -16 12 -22 12 -6 0 -5 -5 2 -12
14 -14 16 -32 2 -23 -5 3 -7 0 -4 -8 3 -10 -6 -20 -26 -31 -29 -14 -31 -14
-26 0 3 9 6 19 6 23 0 4 9 18 20 31 11 13 20 29 20 37 0 7 3 13 8 13 4 0 18
20 31 45 21 39 26 44 38 32 11 -11 11 -18 0 -46z m-3017 34 c0 -8 -4 -15 -10
-15 -5 0 -10 7 -10 15 0 8 5 15 10 15 6 0 10 -7 10 -15z m190 -25 c-14 -27
-25 -38 -35 -34 -22 9 -19 22 13 49 39 35 45 31 22 -15z m290 28 c0 -7 -4 -19
-9 -27 -11 -17 -23 1 -15 23 7 19 24 21 24 4z m-1130 -34 c-18 -21 -24 -10 -9
18 8 14 14 18 17 10 2 -7 -2 -19 -8 -28z m123 21 c4 -8 2 -17 -3 -20 -6 -4
-10 3 -10 14 0 25 6 27 13 6z m918 -22 c-10 -17 -10 -16 -11 3 0 23 13 41 18
25 2 -6 -1 -18 -7 -28z m3018 1 c-11 -20 -18 -43 -15 -51 3 -8 2 -12 -3 -9 -5
3 -12 -1 -15 -10 -3 -8 -10 -13 -15 -9 -12 7 -5 28 26 78 30 48 49 49 22 1z
m-3493 -1 c-10 -10 -19 5 -10 18 6 11 8 11 12 0 2 -7 1 -15 -2 -18z m790 -21
c-12 -11 -18 7 -10 30 l8 23 4 -23 c2 -13 1 -26 -2 -30z m151 16 c-3 -7 -5 -2
-5 12 0 14 2 19 5 13 2 -7 2 -19 0 -25z m1223 -22 c-11 -11 -39 19 -40 43 0
10 8 7 25 -9 17 -16 22 -27 15 -34z m204 38 c11 -27 7 -37 -9 -24 -16 14 -20
40 -6 40 5 0 12 -7 15 -16z m263 -11 c-3 -3 -11 -2 -17 2 -9 6 -9 10 1 16 14
8 27 -7 16 -18z m361 3 c3 -12 -1 -17 -10 -14 -7 3 -15 13 -16 22 -3 12 1 17
10 14 7 -3 15 -13 16 -22z m-3245 -23 c-8 -51 -17 -58 -47 -37 -31 23 -33 34
-6 34 11 0 25 9 32 20 19 31 27 24 21 -17z m94 29 c16 -10 28 -62 15 -62 -14
0 -53 56 -45 64 8 8 15 7 30 -2z m500 -14 c-3 -8 -6 -5 -6 6 -1 11 2 17 5 13
3 -3 4 -12 1 -19z m2562 -22 c-13 -35 -23 -44 -33 -28 -6 10 33 76 40 69 3 -3
0 -22 -7 -41z m-3383 -13 c-9 -9 -46 13 -46 27 0 17 2 17 24 -3 14 -12 24 -23
22 -24z m613 -6 c-11 -19 -11 -19 -32 2 -21 21 -21 21 -2 35 18 13 21 13 32
-1 9 -11 9 -21 2 -36z m1961 41 c0 -7 -3 -23 -6 -36 -5 -18 -9 -20 -20 -11
-17 14 -18 31 -2 47 16 16 28 15 28 0z m156 -13 c4 -14 4 -29 0 -32 -11 -11
-39 25 -33 41 9 24 26 19 33 -9z m234 15 c0 -5 -4 -10 -10 -10 -5 0 -10 5 -10
10 0 6 5 10 10 10 6 0 10 -4 10 -10z m710 -21 c0 -5 -7 -6 -15 -3 -8 4 -15 13
-15 21 0 13 3 13 15 3 8 -7 15 -16 15 -21z m-3570 -19 c0 -8 -5 -22 -10 -30
-7 -12 -13 -11 -34 9 -24 23 -25 26 -10 42 13 15 20 16 35 6 10 -6 19 -19 19
-27z m362 5 c-5 -45 -18 -51 -45 -19 -31 36 -25 56 17 52 28 -3 31 -6 28 -33z
m548 7 c0 -9 -8 -27 -18 -40 -18 -23 -18 -23 -36 -3 -18 20 -17 21 10 45 31
26 44 25 44 -2z m2069 14 c7 -8 9 -25 5 -41 l-7 -27 -25 25 c-21 22 -23 28
-12 41 15 20 24 20 39 2z m201 -1 c22 -27 5 -37 -19 -11 -19 20 -21 26 -9 26
9 0 21 -7 28 -15z m-2721 -29 c19 -19 30 -39 26 -46 -5 -8 -11 -7 -23 2 -14
11 -14 11 -5 -7 9 -15 8 -26 -3 -47 -18 -34 -24 -34 -46 -3 -18 23 -16 79 2
90 5 3 6 14 3 25 -8 29 9 24 46 -14z m1781 -19 c0 -5 -7 -6 -16 -3 -13 5 -14
4 -6 -7 9 -10 4 -29 -19 -78 -17 -35 -42 -93 -56 -129 -13 -36 -33 -84 -43
-107 -11 -24 -20 -50 -20 -58 0 -8 -4 -23 -10 -33 -5 -9 -20 -42 -33 -72 -25
-57 -71 -120 -89 -120 -15 0 -2 98 19 153 34 88 176 414 201 460 l25 47 24
-22 c13 -12 23 -26 23 -31z m846 18 c-9 -14 -21 -23 -27 -19 -6 3 -1 15 13 28
29 28 36 24 14 -9z m264 14 c0 -5 -10 -9 -21 -9 -18 0 -19 2 -9 15 12 15 30
12 30 -6z m409 7 c10 -12 9 -20 -4 -40 -14 -21 -21 -24 -36 -15 -19 10 -19 11
-2 39 20 34 26 36 42 16z m-3551 -29 c20 -19 32 -44 15 -34 -5 3 -9 -11 -10
-30 -2 -48 -9 -51 -39 -21 -23 22 -25 30 -19 71 8 49 12 50 53 14z m552 13 c0
-12 -7 -35 -16 -51 -15 -30 -16 -30 -35 -13 -26 23 -24 39 9 63 34 26 42 26
42 1z m284 -4 c9 -14 13 -32 10 -40 -8 -20 -11 -20 -35 3 -14 13 -19 26 -14
40 8 27 19 26 39 -3z m1088 -56 c-19 -39 -36 -69 -39 -66 -7 7 58 146 67 141
3 -2 -9 -36 -28 -75z m231 55 c-7 -21 -13 -19 -13 6 0 11 4 18 10 14 5 -3 7
-12 3 -20z m370 -20 c-9 -15 -11 -15 -22 -1 -7 9 -10 23 -7 33 6 15 8 15 22 1
11 -11 13 -21 7 -33z m813 31 c8 -22 -14 -56 -31 -50 -10 4 -13 2 -10 -7 7
-19 -10 -43 -24 -35 -17 11 -13 29 5 22 8 -3 12 -2 9 4 -7 12 24 80 36 80 5 0
12 -6 15 -14z m-2606 -19 c-1 -18 -38 -63 -46 -54 -9 9 27 77 38 71 4 -3 8
-11 8 -17z m291 -14 c-9 -17 -10 -17 -17 1 -4 11 -2 21 7 27 18 11 24 -5 10
-28z m85 24 c19 7 18 -9 -3 -51 -29 -58 -43 -44 -17 18 5 13 4 17 -3 13 -7 -5
-9 1 -5 15 3 12 7 17 9 11 3 -7 11 -9 19 -6z m1504 -41 c0 -5 -7 -3 -15 4 -8
7 -15 20 -15 28 0 13 3 12 15 -4 8 -10 15 -23 15 -28z m346 -9 c-10 -38 -24
-53 -36 -41 -9 9 -8 22 0 53 10 38 12 40 26 26 10 -10 14 -24 10 -38z m-3276
16 c0 -13 -3 -13 -15 -3 -8 7 -15 16 -15 21 0 5 7 6 15 3 8 -4 15 -13 15 -21z
m3760 13 c0 -16 -24 -38 -33 -30 -8 9 11 44 23 44 6 0 10 -6 10 -14z m-3066
-15 c14 -15 15 -23 5 -45 -11 -24 -13 -24 -25 -8 -15 19 -19 72 -6 72 5 0 17
-8 26 -19z m568 -7 c-4 -28 -24 -64 -35 -64 -5 0 -6 8 -2 18 3 9 9 30 12 45 6
31 30 32 25 1z m1808 -32 c-15 -5 -50 27 -50 46 0 11 9 7 30 -13 17 -17 26
-31 20 -33z m-2880 28 c29 -25 22 -71 -10 -63 -29 8 -43 30 -36 58 8 30 16 31
46 5z m239 -4 c17 -18 19 -26 10 -32 -7 -4 -19 2 -31 16 -34 42 -17 56 21 16z
m2295 8 c11 -30 6 -37 -14 -19 -11 10 -20 22 -20 27 0 15 28 9 34 -8z m434
-34 c-8 -26 -12 -28 -24 -15 -19 19 2 71 22 54 9 -8 10 -18 2 -39z m202 29 c0
-5 -4 -9 -10 -9 -5 0 -10 7 -10 16 0 8 5 12 10 9 6 -3 10 -10 10 -16z m-2412
-9 l22 -18 -22 -36 c-31 -47 -48 -46 -48 3 0 42 8 71 19 71 3 -1 16 -9 29 -20z
m1702 -21 c0 -27 -4 -38 -11 -33 -8 4 -9 -1 -4 -17 7 -21 6 -22 -8 -11 -23 20
-29 45 -18 76 17 42 41 33 41 -15z m1278 13 c2 -14 -2 -22 -12 -22 -19 0 -28
14 -20 35 9 21 28 14 32 -13z m-3848 -29 c0 -7 -6 -13 -14 -13 -20 0 -37 25
-30 44 6 16 8 16 25 0 11 -9 19 -23 19 -31z m1037 -18 c-9 -19 -21 -35 -27
-35 -13 0 -13 41 0 76 10 26 12 26 27 11 16 -15 16 -19 0 -52z m1790 54 c6 -6
8 -19 6 -30 -5 -18 -7 -19 -24 -3 -10 9 -15 22 -12 30 6 17 15 18 30 3z m921
2 c11 -6 10 -14 -6 -39 -24 -40 -46 -26 -30 19 11 31 15 34 36 20z m-2518 -12
c0 -7 -10 -27 -22 -47 -21 -34 -22 -34 -30 -13 -7 20 5 61 18 61 2 0 0 -9 -6
-21 -7 -11 -9 -23 -7 -25 3 -3 11 9 18 25 14 31 29 41 29 20z m1163 -4 c-3 -9
-8 -14 -10 -11 -3 3 -2 9 2 15 9 16 15 13 8 -4z m562 4 c11 -17 -1 -21 -15 -4
-8 9 -8 15 -2 15 6 0 14 -5 17 -11z m306 -7 c-9 -3 -8 -8 3 -21 13 -14 14 -24
5 -49 -13 -37 -16 -38 -41 -15 -23 21 -23 48 1 72 11 11 16 22 13 26 -4 3 2 3
13 -1 12 -5 14 -9 6 -12z m-3367 -15 c6 -9 7 -19 4 -23 -9 -8 -38 20 -38 36 0
16 21 8 34 -13z m1516 14 c0 -6 -4 -12 -10 -16 -5 -3 -24 -33 -41 -66 -45 -83
-48 -67 -5 20 32 63 56 89 56 62z m840 -68 c-18 -38 -35 -74 -36 -82 -1 -7 -8
-19 -14 -25 -9 -8 -10 -5 -5 14 13 43 77 171 82 166 3 -3 -9 -36 -27 -73z
m206 21 c-4 -14 -10 -22 -15 -20 -9 6 -12 56 -3 70 9 16 24 -25 18 -50z
m-2118 34 c14 -14 16 -28 2 -28 -5 0 -14 9 -20 20 -12 22 -1 27 18 8z m3171
-10 c10 -18 11 -20 0 -10 -17 16 -37 16 -21 0 19 -19 14 -42 -16 -76 -32 -35
-42 -39 -42 -17 0 8 3 14 8 14 20 -3 33 2 27 11 -4 6 -10 8 -15 5 -14 -8 -3
31 17 65 21 36 24 37 42 8z m-2601 0 c-2 -6 -10 -14 -16 -16 -7 -2 -10 2 -6
12 7 18 28 22 22 4z m1722 -25 c0 -43 -5 -41 -13 5 -4 18 -2 32 3 32 6 0 10
-16 10 -37z m86 25 c4 -7 3 -8 -5 -4 -9 6 -10 0 -5 -20 5 -19 4 -25 -5 -20 -7
4 -10 0 -9 -11 3 -37 -2 -73 -11 -73 -10 0 -21 47 -12 56 3 3 6 9 7 12 0 4 4
16 8 27 5 11 10 26 12 33 4 15 11 15 20 0z m954 3 c0 -5 -9 -11 -21 -14 -16
-4 -18 -3 -8 9 13 16 29 19 29 5z m148 -4 c8 -10 7 -21 -4 -43 -23 -44 -32
-50 -50 -32 -15 15 -15 19 5 52 25 39 33 43 49 23z m-3282 -46 c-1 -48 -1 -48
-23 -32 -23 16 -31 41 -14 41 5 0 13 9 16 20 11 36 22 21 21 -29z m54 33 c0
-8 -4 -12 -10 -9 -5 3 -10 10 -10 16 0 5 5 9 10 9 6 0 10 -7 10 -16z m1730
-27 c0 -25 -42 -124 -71 -167 -15 -23 -50 -109 -95 -234 -28 -76 -74 -108 -74
-51 0 46 29 114 182 432 26 53 32 60 44 48 8 -7 14 -20 14 -28z m727 28 c-4
-8 -2 -17 4 -20 5 -4 7 -11 3 -16 -3 -5 -10 -6 -16 -3 -8 5 -9 1 -5 -10 4 -9
3 -15 -2 -11 -12 7 -10 46 4 62 14 17 18 16 12 -2z m573 -17 c0 -5 -7 -8 -16
-8 -9 0 -12 -5 -8 -12 6 -10 4 -10 -7 0 -17 16 -37 16 -21 0 15 -15 16 -28 2
-28 -19 0 -22 28 -5 54 14 21 20 23 36 13 10 -6 19 -15 19 -19z m-3405 -37
c-10 -34 -30 -19 -33 25 l-3 39 21 -21 c16 -15 20 -28 15 -43z m113 22 c-10
-12 -13 -12 -20 1 -13 23 0 40 18 25 11 -9 12 -15 2 -26z m1505 22 c-3 -9 -8
-14 -10 -11 -3 3 -2 9 2 15 9 16 15 13 8 -4z m-1959 -64 c-9 -17 -20 -31 -25
-31 -10 0 -12 43 -3 77 6 21 6 21 24 3 18 -18 18 -21 4 -49z m226 30 c0 -3 -4
-12 -9 -20 -13 -21 -41 4 -41 35 0 24 1 24 25 8 14 -9 25 -19 25 -23z m608 0
c-7 -9 -14 -18 -15 -20 -2 -2 -3 10 -3 29 0 28 2 31 15 20 12 -10 13 -16 3
-29z m246 -25 c-9 -38 -30 -51 -49 -33 -20 21 -19 39 6 71 21 27 22 27 35 7 9
-12 12 -30 8 -45z m146 37 c0 -19 -3 -24 -10 -17 -6 6 -8 18 -4 27 9 24 14 21
14 -10z m146 3 c-3 -13 -9 -32 -13 -42 -4 -12 -3 -15 5 -10 16 10 15 6 -9 -59
-24 -66 -37 -69 -14 -5 9 24 13 51 10 58 -3 8 0 30 7 48 14 39 23 45 14 10z
m1564 9 c10 -12 10 -15 -4 -15 -9 0 -16 7 -16 15 0 8 2 15 4 15 2 0 9 -7 16
-15z m-2840 -20 c0 -8 -4 -17 -10 -20 -6 -4 -10 5 -10 20 0 15 4 24 10 20 6
-3 10 -12 10 -20z m470 10 c7 -8 8 -15 2 -15 -5 0 -15 7 -22 15 -7 8 -8 15 -2
15 5 0 15 -7 22 -15z m3270 6 c0 -6 -4 -13 -10 -16 -5 -3 -10 1 -10 9 0 9 5
16 10 16 6 0 10 -4 10 -9z m-1598 -30 c-9 -16 -18 -28 -20 -27 -5 6 21 56 29
56 5 0 0 -13 -9 -29z m1229 12 c13 -16 12 -17 -3 -4 -17 13 -22 21 -14 21 2 0
10 -8 17 -17z m536 -23 c-14 -16 -28 -39 -32 -50 -9 -27 -25 -25 -25 4 0 27
42 76 65 76 14 0 12 -6 -8 -30z m-3504 -15 c-5 -21 -8 -23 -25 -14 -19 10 -19
12 -2 30 21 23 33 17 27 -16z m1974 8 c-7 -35 -146 -327 -153 -321 -7 8 138
348 149 348 5 0 7 -12 4 -27z m982 -26 c-7 -15 -16 -27 -21 -27 -16 0 -21 31
-9 57 11 23 14 25 27 11 12 -12 13 -19 3 -41z m-3319 16 c0 -19 -3 -24 -10
-17 -6 6 -8 18 -4 27 9 24 14 21 14 -10z m301 -23 c5 0 9 -9 9 -20 0 -25 -21
-26 -49 -1 -13 11 -28 22 -33 23 -7 3 -7 11 1 27 l12 22 26 -25 c14 -14 30
-26 34 -26z m2072 -63 c-14 -27 -26 -54 -27 -61 -1 -6 -14 -36 -29 -68 -14
-31 -36 -89 -48 -130 -33 -109 -77 -159 -113 -129 -16 14 -6 73 17 99 14 16
127 234 127 245 0 3 14 35 30 70 17 36 30 71 30 79 1 7 9 -2 19 -21 18 -34 18
-35 -6 -84z m139 89 c11 -25 6 -56 -9 -56 -15 0 -34 41 -28 61 9 26 23 24 37
-5z m283 -4 c-8 -8 -25 10 -19 20 4 6 9 5 15 -3 4 -7 6 -15 4 -17z m321 6 c19
-21 19 -21 0 -14 -16 6 -17 4 -6 -10 11 -13 11 -17 1 -24 -8 -5 -10 -13 -6
-21 5 -8 -1 -5 -13 5 -24 21 -31 46 -7 26 18 -15 20 1 3 19 -11 11 -10 14 0
18 6 3 10 9 6 14 -10 17 3 9 22 -13z m103 -29 c-11 -21 -39 -26 -39 -6 0 6 3
22 6 35 6 21 8 22 25 6 14 -13 16 -21 8 -35z m328 0 c-14 -23 -21 -24 -36 -5
-10 11 -10 20 -1 36 11 20 13 21 30 5 16 -14 17 -20 7 -36z m-3413 19 c9 -35
7 -39 -13 -27 -11 7 -16 19 -13 31 6 25 18 23 26 -4z m368 -13 c17 -23 6 -27
-17 -5 -28 27 -34 50 -7 29 9 -8 20 -18 24 -24z m91 0 c-9 -19 -20 -32 -25
-29 -13 8 -10 22 10 43 27 30 33 24 15 -14z m3167 -2 c0 -10 -7 -14 -20 -10
-17 4 -19 2 -13 -21 6 -24 5 -26 -10 -13 -9 7 -15 17 -12 21 2 4 9 20 15 35 9
23 13 25 25 15 8 -7 15 -19 15 -27z m-2988 -36 c-16 -27 -17 -27 -20 -7 -2 12
-1 33 3 47 6 24 7 25 20 7 11 -16 11 -23 -3 -47z m-722 27 c0 -8 -4 -14 -10
-14 -5 0 -10 9 -10 21 0 11 5 17 10 14 6 -3 10 -13 10 -21z m955 -16 c-4 -24
-12 -50 -17 -58 -7 -11 -8 -9 -4 8 4 19 2 21 -10 11 -24 -20 -17 31 8 58 12
13 23 23 26 23 2 0 1 -19 -3 -42z m2007 10 c-9 -9 -12 -7 -12 12 0 19 3 21 12
12 9 -9 9 -15 0 -24z m-1857 -27 c-19 -38 -29 -40 -20 -4 6 24 5 25 -11 12
-15 -12 -17 -12 -12 1 2 8 13 15 23 15 10 0 21 7 23 15 4 10 7 11 9 3 2 -6 -3
-25 -12 -42z m2475 28 c0 -5 -4 -9 -10 -9 -5 0 -10 7 -10 16 0 8 5 12 10 9 6
-3 10 -10 10 -16z m-675 -15 c0 -10 4 -25 9 -32 15 -24 0 -22 -24 3 -21 22
-21 25 -6 25 16 0 17 2 5 17 -12 14 -12 16 1 11 8 -3 15 -13 15 -24z m-2927
-49 c1 -5 0 -14 -2 -20 -5 -16 -66 46 -66 68 0 17 4 16 33 -9 17 -16 33 -33
35 -39z m412 57 c0 -5 -6 -16 -13 -27 -10 -13 -16 -15 -21 -6 -4 6 -2 18 4 26
13 16 30 20 30 7z m221 -29 c-9 -16 -10 -14 -11 12 0 21 3 26 11 18 8 -8 8
-16 0 -30z m2198 28 c17 -11 7 -45 -12 -39 -13 5 -23 48 -10 48 4 0 14 -4 22
-9z m658 -7 c7 -20 -11 -38 -32 -31 -13 6 -13 10 -3 27 15 24 27 26 35 4z
m-3613 -18 c9 -13 7 -19 -7 -27 -11 -7 -16 -17 -12 -28 7 -22 -10 -71 -25 -71
-13 0 -13 64 1 113 11 39 25 44 43 13z m906 17 c0 -5 -9 -19 -20 -33 -21 -27
-27 -12 -8 20 13 20 28 27 28 13z m1935 -34 c-5 -21 -10 -27 -15 -19 -5 7 -3
24 3 37 14 31 21 22 12 -18z m-2486 -1 c26 -21 37 -38 33 -50 -2 -10 -7 -18
-11 -18 -16 1 -71 62 -71 80 0 27 5 26 49 -12z m2331 22 c0 -5 -4 -10 -10 -10
-5 0 -10 5 -10 10 0 6 5 10 10 10 6 0 10 -4 10 -10z m72 -22 c-9 -9 -12 -7
-12 12 0 19 3 21 12 12 9 -9 9 -15 0 -24z m948 23 c0 -13 -26 -32 -33 -24 -8
7 11 33 24 33 5 0 9 -4 9 -9z m200 -12 c0 -5 -4 -9 -10 -9 -5 0 -10 7 -10 16
0 8 5 12 10 9 6 -3 10 -10 10 -16z m-3674 -14 c14 -14 19 -25 12 -25 -18 1
-48 25 -48 39 0 17 8 14 36 -14z m354 16 c0 -6 -4 -13 -10 -16 -5 -3 -10 1
-10 9 0 9 5 16 10 16 6 0 10 -4 10 -9z m70 -1 c0 -5 -7 -7 -15 -4 -8 4 -15 8
-15 10 0 2 7 4 15 4 8 0 15 -4 15 -10z m120 -36 c-9 -25 -15 -32 -20 -23 -9
13 17 75 27 66 3 -3 0 -22 -7 -43z m2410 -5 c0 -5 -4 -9 -8 -9 -15 0 -32 24
-32 45 1 19 1 19 20 -4 11 -13 20 -27 20 -32z m297 31 c12 0 13 -3 3 -14 -6
-8 -18 -12 -26 -9 -8 3 -14 -1 -14 -8 0 -7 -2 -10 -5 -7 -3 3 0 18 6 34 6 16
13 23 16 17 3 -7 12 -13 20 -13z m-3005 -7 c19 -17 24 -43 9 -43 -25 0 -41 14
-41 36 0 28 7 30 32 7z m702 -41 c-10 -14 -19 -21 -21 -15 -3 7 4 24 13 39 10
15 20 21 22 15 2 -6 -4 -24 -14 -39z m1315 18 c-6 -16 -15 -30 -20 -30 -5 0
-3 14 6 30 9 17 17 30 20 30 2 0 -1 -13 -6 -30z m170 -20 l0 -25 -13 24 c-15
28 -10 64 5 39 5 -7 9 -24 8 -38z m-2040 26 c9 -10 7 -19 -7 -36 -16 -19 -19
-20 -30 -7 -11 12 -11 19 0 36 15 25 22 26 37 7z m2405 -5 c15 -17 16 -22 2
-52 -8 -19 -15 -26 -15 -17 -1 9 -6 20 -13 24 -8 5 -9 2 -5 -10 4 -9 3 -15 -2
-11 -6 3 -8 18 -7 33 2 15 4 33 5 40 1 17 15 15 35 -7z m644 0 c3 -8 -1 -12
-9 -9 -7 2 -15 10 -17 17 -3 8 1 12 9 9 7 -2 15 -10 17 -17z m212 10 c0 -6 -4
-13 -10 -16 -5 -3 -10 1 -10 9 0 9 5 16 10 16 6 0 10 -4 10 -9z m-3181 -27 c3
-16 1 -17 -13 -5 -19 16 -21 34 -3 29 6 -3 14 -13 16 -24z m495 -30 c-10 -19
-22 -34 -27 -34 -11 0 1 38 21 69 23 35 28 6 6 -35z m2095 35 c3 -12 1 -12
-14 1 -17 14 -18 13 -11 -5 5 -15 4 -17 -5 -8 -13 13 -3 36 14 30 6 -2 13 -10
16 -18z m-2328 -22 c-8 -8 -11 -7 -11 4 0 20 13 34 18 19 3 -7 -1 -17 -7 -23z
m1585 -4 c-3 -8 -18 -49 -32 -91 -39 -112 -121 -232 -139 -203 -8 15 0 39 50
146 23 50 52 111 64 138 19 43 24 46 42 36 12 -6 18 -17 15 -26z m264 16 c0
-11 -4 -17 -10 -14 -5 3 -10 13 -10 21 0 8 5 14 10 14 6 0 10 -9 10 -21z
m-1973 -21 c-3 -7 -5 -2 -5 12 0 14 2 19 5 13 2 -7 2 -19 0 -25z m2613 -8 c0
-26 -19 -35 -37 -17 -9 9 -13 23 -8 36 5 17 10 19 26 11 10 -6 19 -19 19 -30z
m200 30 c0 -5 -4 -10 -10 -10 -5 0 -10 5 -10 10 0 6 5 10 10 10 6 0 10 -4 10
-10z m-3561 -16 c1 -1 1 -8 -1 -14 -2 -8 -13 -4 -28 10 l-25 21 25 -7 c14 -3
27 -8 29 -10z m120 2 c9 -10 9 -16 1 -21 -16 -10 -40 2 -40 20 0 19 24 20 39
1z m2523 -21 c-12 -22 -27 -2 -18 22 5 12 10 13 17 6 7 -7 8 -17 1 -28z m158
25 c0 -5 -5 -10 -11 -10 -5 0 -7 5 -4 10 3 6 8 10 11 10 2 0 4 -4 4 -10z m270
6 c0 -3 -4 -8 -10 -11 -5 -3 -10 -1 -10 4 0 6 5 11 10 11 6 0 10 -2 10 -4z
m93 -67 c-14 -23 -19 -25 -35 -16 -18 12 -24 27 -10 27 4 0 13 -5 20 -12 18
-18 15 2 -3 22 -9 10 -13 25 -9 34 6 15 9 15 30 -5 22 -21 23 -23 7 -50z
m-2902 25 c12 -16 10 -16 -18 1 -18 11 -33 23 -33 28 0 11 34 -8 51 -29z m328
22 c9 -11 9 -19 -1 -35 -15 -25 -22 -26 -37 -7 -9 11 -10 20 -1 35 13 25 23
26 39 7z m2261 -2 c0 -14 -3 -14 -15 -4 -8 7 -15 14 -15 16 0 2 7 4 15 4 8 0
15 -7 15 -16z m690 -10 c0 -14 -12 -19 -23 -8 -9 9 4 35 14 28 5 -3 9 -12 9
-20z m-3173 -7 c-6 -20 -27 -19 -27 2 0 14 5 19 15 14 9 -3 14 -10 12 -16z
m2013 15 c0 -5 -7 -17 -16 -28 -8 -10 -14 -14 -11 -9 2 6 7 18 10 28 7 17 17
23 17 9z m-1893 -25 c-6 -20 -27 -19 -27 2 0 14 5 19 15 14 9 -3 14 -10 12
-16z m-450 -9 c-3 -8 -6 -5 -6 6 -1 11 2 17 5 13 3 -3 4 -12 1 -19z m129 -5
c-10 -10 -19 5 -10 18 6 11 8 11 12 0 2 -7 1 -15 -2 -18z m651 -36 c-7 -52
-13 -55 -44 -25 l-26 26 24 30 c32 39 53 25 46 -31z m322 1 c-12 -21 -13 -21
-17 -4 -2 10 2 30 10 44 12 24 13 24 16 4 2 -11 -2 -31 -9 -44z m1881 33 c0
-10 -6 -25 -13 -35 -11 -16 -15 -16 -25 -3 -10 11 -10 21 -1 40 13 28 39 26
39 -2z m-3050 -11 c0 -24 -16 -34 -24 -15 -7 19 3 47 15 39 5 -3 9 -14 9 -24z
m2526 4 c5 -32 14 -44 33 -44 17 0 20 -6 17 -28 -6 -56 -119 -193 -141 -171
-13 13 7 100 46 192 31 74 40 85 45 51z m124 10 c0 -8 -4 -12 -10 -9 -5 3 -10
10 -10 16 0 5 5 9 10 9 6 0 10 -7 10 -16z m217 -11 c-3 -15 1 -36 8 -47 12
-18 11 -24 0 -39 -13 -18 -14 -18 -29 6 -9 13 -14 30 -12 38 20 55 26 69 32
69 3 0 4 -12 1 -27z m73 1 c0 -8 -7 -14 -15 -14 -8 0 -15 9 -15 20 0 13 5 18
15 14 8 -4 15 -12 15 -20z m-3008 -205 l-20 -43 -11 39 c-25 95 -24 119 3 160
14 21 27 45 27 54 1 9 6 -25 11 -75 9 -82 8 -96 -10 -135z m2865 199 c-3 -8
-6 -5 -6 6 -1 11 2 17 5 13 3 -3 4 -12 1 -19z m558 4 c0 -20 -19 -18 -23 2 -3
12 1 17 10 14 7 -3 13 -10 13 -16z m68 3 c-3 -9 -8 -14 -10 -11 -3 3 -2 9 2
15 9 16 15 13 8 -4z m281 0 c-4 -8 -10 -15 -15 -15 -5 0 -9 7 -9 15 0 8 7 15
15 15 9 0 12 -6 9 -15z m-3434 -26 c0 -18 -35 -5 -38 14 -3 16 -1 17 17 7 12
-6 21 -15 21 -21z m185 9 c6 -13 19 -23 30 -24 36 -2 55 -16 55 -40 0 -13 -2
-24 -5 -24 -13 0 -84 53 -89 66 -3 8 -12 14 -21 14 -16 0 -20 12 -8 23 13 13
28 7 38 -15z m504 13 c10 -7 11 -13 2 -30 -15 -26 -31 -19 -31 15 0 25 7 29
29 15z m2591 5 c0 -3 -4 -8 -10 -11 -5 -3 -10 -1 -10 4 0 6 5 11 10 11 6 0 10
-2 10 -4z m-2987 -12 c9 -9 -4 -35 -14 -28 -5 3 -9 12 -9 20 0 14 12 19 23 8z
m77 -16 c0 -19 -2 -20 -10 -8 -13 19 -13 30 0 30 6 0 10 -10 10 -22z m626 -40
c-62 -92 -89 -128 -95 -122 -3 2 2 19 11 37 10 18 24 49 32 70 9 21 20 36 24
33 5 -3 20 6 32 19 37 39 35 22 -4 -37z m-1076 32 c0 -5 -2 -10 -4 -10 -3 0
-8 5 -11 10 -3 6 -1 10 4 10 6 0 11 -4 11 -10z m516 -12 c-3 -13 -6 -29 -6
-37 0 -11 -5 -10 -20 4 -19 17 -19 19 -4 37 23 25 38 23 30 -4z m374 8 c0 -8
-4 -18 -10 -21 -5 -3 -10 -11 -10 -16 0 -6 5 -7 11 -3 7 4 7 -2 -1 -17 -18
-33 -24 -38 -16 -12 6 18 4 22 -9 17 -14 -6 -14 -3 1 30 18 37 34 47 34 22z
m2372 -8 c-7 -7 -12 -8 -12 -2 0 14 12 26 19 19 2 -3 -1 -11 -7 -17z m-2432
-38 c-17 -32 -22 -18 -8 21 8 22 13 28 16 17 2 -9 -2 -27 -8 -38z m2100 -9 c0
-3 -4 -12 -9 -20 -8 -12 -12 -12 -26 3 -15 14 -15 21 -5 47 l13 29 13 -26 c8
-14 14 -29 14 -33z m452 37 c-7 -7 -12 -8 -12 -2 0 14 12 26 19 19 2 -3 -1
-11 -7 -17z m83 -7 c-7 -23 -25 -29 -25 -8 0 14 21 39 28 33 2 -3 1 -14 -3
-25z m-3585 0 c21 -17 22 -19 5 -18 -14 2 -22 -9 -32 -45 -13 -44 -19 -51 -40
-46 -12 3 -4 100 9 115 14 18 29 16 58 -6z m288 -13 c46 -28 26 -35 -22 -7
-20 11 -36 23 -36 25 0 10 26 2 58 -18z m578 -33 c3 -18 2 -40 -3 -49 -14 -25
-66 28 -57 57 17 57 48 53 60 -8z m1794 45 c0 -5 -4 -10 -10 -10 -5 0 -10 5
-10 10 0 6 5 10 10 10 6 0 10 -4 10 -10z m277 -37 c-3 -10 -5 -4 -5 12 0 17 2
24 5 18 2 -7 2 -21 0 -30z m-2797 -3 c8 -5 11 -10 5 -10 -5 0 -21 10 -35 21
-24 20 -5 13 30 -11z m1140 -30 c-10 -29 -17 -70 -15 -89 l4 -36 -105 3 c-82
3 -104 6 -104 18 0 8 9 14 19 14 18 0 36 18 68 66 10 16 11 12 6 -23 -4 -31
-2 -43 7 -43 18 0 95 79 114 118 25 48 28 36 6 -28z m1285 50 c3 -5 1 -10 -4
-10 -6 0 -11 5 -11 10 0 6 2 10 4 10 3 0 8 -4 11 -10z m675 0 c0 -5 -4 -10
-10 -10 -5 0 -10 5 -10 10 0 6 5 10 10 10 6 0 10 -4 10 -10z m-2645 -20 c10
-11 15 -23 12 -27 -8 -7 -47 25 -47 39 0 14 16 9 35 -12z m118 0 c20 -24 21
-32 6 -47 -16 -16 -39 8 -39 41 0 31 10 33 33 6z m2071 -5 c21 -32 20 -38 -5
-53 -32 -20 -49 2 -37 46 10 38 20 40 42 7z m776 4 c0 -5 -4 -9 -10 -9 -5 0
-10 7 -10 16 0 8 5 12 10 9 6 -3 10 -10 10 -16z m177 -42 c-35 -55 -70 -91
-48 -49 6 11 17 27 25 34 7 8 21 29 30 47 10 18 20 31 23 28 2 -3 -11 -30 -30
-60z m-3173 -24 c-24 -17 -44 1 -44 40 l0 31 30 -29 c28 -27 29 -31 14 -42z
m2076 46 c0 -6 -4 -7 -10 -4 -5 3 -10 11 -10 16 0 6 5 7 10 4 6 -3 10 -11 10
-16z m894 2 c3 -5 -3 -11 -13 -14 -14 -3 -18 -1 -14 9 6 16 19 18 27 5z
m-3415 -12 c30 -11 37 -19 25 -32 -9 -8 -64 21 -64 33 0 12 0 12 39 -1z m2887
-28 c-9 -13 -36 -15 -36 -2 0 5 3 17 6 26 6 15 8 15 22 2 8 -8 11 -20 8 -26z
m-1571 -8 c-3 -21 -1 -44 4 -52 8 -12 13 -12 33 1 17 11 27 12 40 5 19 -13 48
8 76 55 9 16 20 28 25 28 4 0 5 -5 2 -11 -4 -5 -4 -22 -1 -36 6 -21 11 -24 32
-19 14 4 24 3 21 -1 -3 -4 -1 -19 4 -32 7 -18 14 -22 34 -17 16 4 25 2 25 -5
0 -9 -26 -10 -97 -6 -54 4 -156 7 -228 7 l-130 0 33 20 c18 11 40 20 50 20 9
1 31 19 47 40 17 21 31 39 33 40 1 0 0 -17 -3 -37z m1132 -30 l0 -63 -56 -1
c-31 0 -66 -2 -78 -3 -13 -2 -23 -1 -23 0 0 2 23 32 51 67 42 53 56 64 79 63
28 -1 28 -2 27 -63z m1244 50 c-20 -34 -41 -56 -47 -50 -8 7 34 67 47 67 6 0
6 -7 0 -17z m-3406 -3 c3 -5 2 -10 -4 -10 -5 0 -13 5 -16 10 -3 6 -2 10 4 10
5 0 13 -4 16 -10z m2459 -29 c-6 -6 -24 19 -24 34 1 6 7 1 15 -9 8 -11 12 -22
9 -25z m229 -9 c7 -9 4 -19 -13 -37 -24 -26 -56 -34 -47 -12 37 92 42 101 45
82 2 -11 9 -26 15 -33z m341 24 c-3 -9 -10 -16 -15 -16 -6 0 -5 9 1 21 13 24
24 20 14 -5z m129 -23 c-18 -29 -35 -44 -41 -38 -6 5 40 65 50 65 5 0 1 -12
-9 -27z m-2773 -38 c0 -3 -23 -5 -52 -5 l-52 0 28 29 27 29 25 -25 c13 -13 24
-26 24 -28z m2461 14 c-13 -10 -33 -19 -45 -19 -18 0 -16 3 12 20 17 11 32 25
32 32 0 9 3 9 13 -1 10 -10 7 -16 -12 -32z m-3131 6 c0 -2 -10 -10 -22 -16
-20 -11 -21 -10 -11 3 10 11 10 17 0 27 -10 11 -8 11 11 2 12 -6 22 -14 22
-16z m133 18 c8 -7 -11 -33 -24 -33 -5 0 -9 9 -9 20 0 19 20 27 33 13z m367
-18 c0 -23 -4 -25 -42 -25 -44 0 -44 3 -1 31 38 24 43 23 43 -6z m-125 -23
c-17 -4 -45 15 -45 30 0 5 14 1 31 -9 22 -13 26 -19 14 -21z m1400 11 c0 -40
30 -42 70 -3 l32 31 6 -30 c7 -33 32 -42 55 -19 9 9 12 8 12 -8 0 -15 -6 -19
-27 -18 -16 1 -65 3 -110 3 -46 1 -83 5 -83 10 0 7 38 61 44 61 1 0 2 -12 1
-27z m752 -23 c13 0 33 5 44 10 13 8 25 7 41 -1 l22 -12 -24 -9 c-13 -5 -47
-8 -75 -6 -48 3 -50 4 -52 33 -3 29 -2 29 9 8 7 -14 20 -23 35 -23z m316 16
c9 -3 17 -10 17 -16 0 -16 -37 -12 -54 6 -22 21 -21 37 2 25 9 -5 25 -12 35
-15z m-2623 -11 c0 -3 -14 -5 -31 -5 -27 0 -30 2 -19 15 9 11 17 12 31 4 10
-5 19 -12 19 -14z m515 15 c4 -6 -5 -10 -20 -10 -15 0 -24 4 -20 10 3 6 12 10
20 10 8 0 17 -4 20 -10z m160 -9 c0 -8 -10 -15 -23 -16 -25 -2 -37 9 -27 26
10 15 50 7 50 -10z m1315 -11 c0 -27 -3 -30 -30 -30 -16 0 -30 2 -30 5 0 5 51
54 58 55 1 0 2 -13 2 -30z m-2150 11 c0 -10 -30 -24 -37 -17 -3 3 -2 9 2 15 8
13 35 15 35 2z m-150 -21 c0 -5 -2 -10 -4 -10 -3 0 -8 5 -11 10 -3 6 -1 10 4
10 6 0 11 -4 11 -10z m3310 -21 c0 -14 -17 -10 -23 5 -4 10 -1 13 9 9 7 -3 14
-9 14 -14z m-203 5 c-3 -3 -12 -4 -19 -1 -8 3 -5 6 6 6 11 1 17 -2 13 -5z
m109 -1 c-10 -11 -36 -12 -36 -2 0 5 10 9 22 9 12 0 18 -3 14 -7z"/>
<path d="M495 1690 c3 -5 8 -10 11 -10 2 0 4 5 4 10 0 6 -5 10 -11 10 -5 0 -7
-4 -4 -10z"/>
<path d="M1657 1286 c-3 -8 0 -13 6 -12 14 2 18 14 7 21 -4 3 -10 -1 -13 -9z"/>
<path d="M2183 1233 c-3 -10 -15 -30 -25 -45 -11 -16 -17 -28 -13 -28 3 0 1
-10 -5 -22 -10 -21 -9 -21 9 2 11 14 21 28 21 33 0 15 26 6 38 -14 10 -15 11
-24 3 -32 -6 -6 -11 -18 -11 -26 1 -9 12 4 25 29 19 36 25 41 30 28 4 -10 12
-18 18 -18 5 0 3 8 -6 18 -10 10 -14 22 -10 25 3 4 1 7 -5 7 -6 0 -15 -7 -20
-15 -7 -14 -11 -13 -27 5 -14 16 -16 23 -7 32 7 7 12 18 12 25 0 19 -20 16
-27 -4z"/>
<path d="M2102 777 c-29 -66 -36 -91 -23 -83 6 4 11 12 11 17 0 6 9 31 21 56
11 25 18 47 16 50 -3 2 -14 -16 -25 -40z"/>
<path d="M1847 793 c-4 -3 -7 -11 -7 -17 0 -6 5 -5 12 2 6 6 9 14 7 17 -3 3
-9 2 -12 -2z"/>
<path d="M1870 719 c-7 -11 -10 -23 -7 -25 2 -2 9 7 15 21 14 30 7 33 -8 4z"/>
<path d="M1961 674 c-6 -15 -9 -29 -7 -32 3 -2 10 8 16 23 14 36 7 43 -9 9z"/>
<path d="M2026 584 c-15 -37 -25 -68 -23 -70 2 -2 16 26 31 62 15 37 25 68 23
70 -2 2 -16 -26 -31 -62z"/>
<path d="M1930 606 c-5 -15 -15 -36 -20 -47 -6 -10 -8 -19 -6 -19 9 0 48 82
42 87 -3 3 -10 -6 -16 -21z"/>
<path d="M1791 403 c-10 -26 -10 -27 4 -9 8 11 15 23 15 28 0 15 -7 8 -19 -19z"/>
<path d="M1895 400 c-4 -12 -5 -24 -2 -27 3 -2 8 5 12 17 4 12 5 24 2 27 -3 2
-8 -5 -12 -17z"/>
<path d="M2311 868 c-78 -171 -78 -172 -67 -184 8 -8 14 -4 23 14 7 13 13 29
13 34 0 5 22 54 49 109 39 79 45 99 32 99 -11 0 -28 -25 -50 -72z"/>
<path d="M2400 921 c-15 -29 -12 -50 4 -29 7 10 16 15 19 12 3 -3 3 3 0 15 -7
26 -10 26 -23 2z"/>
<path d="M2350 789 c0 -5 5 -7 10 -4 6 3 10 8 10 11 0 2 -4 4 -10 4 -5 0 -10
-5 -10 -11z"/>
<path d="M2155 749 c-4 -6 -5 -12 -2 -15 2 -3 7 2 10 11 7 17 1 20 -8 4z"/>
<path d="M2336 744 c-4 -9 -4 -19 -1 -22 2 -3 7 3 11 12 4 9 4 19 1 22 -2 3
-7 -3 -11 -12z"/>
<path d="M3790 540 c0 -5 5 -10 11 -10 5 0 7 5 4 10 -3 6 -8 10 -11 10 -2 0
-4 -4 -4 -10z"/>
<path d="M2024 2810 c21 -6 51 -19 67 -31 16 -11 35 -19 41 -17 24 8 -55 51
-100 54 l-47 4 39 -10z"/>
<path d="M1880 2743 l0 -58 -18 28 c-30 45 -82 75 -82 47 0 -5 4 -9 9 -7 12 3
49 -40 68 -81 9 -18 20 -31 26 -29 12 4 16 157 5 157 -5 0 -8 -26 -8 -57z"/>
<path d="M1595 2770 c44 -29 86 -34 136 -16 24 8 37 15 28 16 -9 0 -30 -5 -46
-10 -24 -9 -41 -7 -84 10 -67 25 -72 25 -34 0z"/>
<path d="M3245 2764 c11 -4 24 -12 28 -20 9 -17 43 -19 52 -3 10 15 4 18 -51
24 -27 2 -40 2 -29 -1z"/>
<path d="M1950 2680 c-11 -8 -7 -9 15 -4 37 8 45 14 19 14 -10 0 -26 -5 -34
-10z"/>
<path d="M2030 2650 c0 -5 5 -10 11 -10 5 0 7 5 4 10 -3 6 -8 10 -11 10 -2 0
-4 -4 -4 -10z"/>
<path d="M2252 2628 c-15 -15 -16 -94 -2 -103 6 -4 10 11 8 41 -1 29 3 49 10
52 13 4 16 22 4 22 -4 0 -13 -5 -20 -12z"/>
<path d="M2936 2612 c-4 -7 -5 -20 -2 -30 8 -24 74 -88 82 -79 4 3 -8 18 -25
32 -17 15 -35 41 -39 58 -5 20 -11 27 -16 19z"/>
<path d="M1513 2555 c-33 -15 -53 -30 -53 -41 0 -11 5 -14 16 -10 9 3 20 6 25
6 6 0 8 4 5 9 -7 11 22 36 59 49 17 6 23 11 15 11 -8 0 -39 -10 -67 -24z"/>
<path d="M2783 2532 c-35 -1 -63 -7 -63 -12 0 -6 9 -10 20 -10 11 0 20 -4 20
-9 0 -5 28 -9 62 -8 l63 2 -3 -32 c-4 -35 8 -42 28 -18 19 23 29 18 36 -20 4
-24 1 -51 -11 -81 -20 -52 -12 -70 15 -34 39 51 34 190 -7 190 -9 0 -24 6 -32
14 -21 18 -53 22 -128 18z"/>
<path d="M4362 2475 c0 -16 2 -22 5 -12 2 9 2 23 0 30 -3 6 -5 -1 -5 -18z"/>
<path d="M2563 2479 c-18 -5 -33 -16 -33 -24 0 -21 10 -19 45 10 33 27 33 27
-12 14z"/>
<path d="M3082 2468 c-1 -7 -4 -25 -8 -40 -4 -18 -2 -28 5 -28 6 0 11 11 11
24 0 14 5 28 10 31 6 4 8 11 5 16 -9 13 -21 11 -23 -3z"/>
<path d="M3080 2339 c-25 -5 -51 -17 -58 -26 -10 -14 -15 -15 -21 -5 -9 15
-37 6 -45 -15 -9 -23 -3 -25 74 -25 78 1 90 5 90 32 0 14 5 17 22 12 13 -3 30
-13 39 -21 20 -19 10 -54 -21 -73 -23 -15 -26 -28 -6 -28 29 0 66 41 66 74 0
61 -57 92 -140 75z"/>
<path d="M4380 1319 c0 -5 5 -7 10 -4 6 3 10 8 10 11 0 2 -4 4 -10 4 -5 0 -10
-5 -10 -11z"/>
<path d="M4240 1203 c0 -19 27 -29 64 -25 25 3 34 9 33 21 -1 12 -11 16 -49
16 -31 0 -48 -4 -48 -12z"/>
<path d="M4331 893 c-10 -26 -10 -27 4 -9 8 11 15 23 15 28 0 15 -7 8 -19 -19z"/>
<path d="M4300 460 c-10 -6 -11 -10 -2 -10 6 0 12 -8 12 -17 0 -15 2 -16 10
-3 21 32 10 49 -20 30z"/>
<path d="M4276 397 c3 -10 9 -15 12 -12 3 3 0 11 -7 18 -10 9 -11 8 -5 -6z"/>
<path d="M4351 354 c0 -11 3 -14 6 -6 3 7 2 16 -1 19 -3 4 -6 -2 -5 -13z"/>
</g>
</svg>
