<?xml version="1.0" standalone="no"?>
<!DOCTYPE svg PUBLIC "-//W3C//DTD SVG 20010904//EN"
 "http://www.w3.org/TR/2001/REC-SVG-20010904/DTD/svg10.dtd">
<svg version="1.0" xmlns="http://www.w3.org/2000/svg"
 width="370.000000pt" height="372.000000pt" viewBox="0 0 370.000000 372.000000"
 preserveAspectRatio="xMidYMid meet">
<metadata>
Created by potrace 1.16, written by Peter Selinger 2001-2019
</metadata>
<g transform="translate(0.000000,372.000000) scale(0.100000,-0.100000)"
fill="#000000" stroke="none">
<path d="M129 3651 c-8 -17 -19 -30 -26 -28 -17 3 -29 -172 -26 -381 1 -84 -1
-151 -5 -148 -4 2 -8 -296 -10 -662 -4 -835 -6 -939 -19 -1032 -16 -109 -22
-210 -12 -210 5 0 9 29 9 65 0 36 4 65 8 65 13 0 7 -301 -8 -344 -8 -26 -11
-73 -7 -145 2 -58 1 -131 -3 -161 -5 -30 -11 -178 -15 -327 l-6 -273 27 -11
c24 -9 30 -7 44 11 15 20 21 20 284 15 147 -3 272 -7 277 -11 5 -3 9 -1 9 4 0
5 23 5 58 0 31 -5 81 -8 110 -5 41 3 52 1 52 -11 0 -12 10 -13 58 -7 31 4 122
6 202 5 274 -5 455 -3 580 7 69 5 130 6 135 2 11 -8 91 -4 155 8 55 11 59 11
386 17 268 5 313 4 324 -9 9 -11 17 -12 30 -5 13 7 21 7 25 0 8 -12 165 -11
181 1 5 5 108 10 228 13 120 3 221 8 224 11 3 3 20 5 38 5 18 0 36 4 39 10 10
16 47 12 60 -6 10 -15 14 -13 35 16 21 29 22 35 10 71 -10 29 -11 65 -4 146
10 131 7 376 -6 458 -12 75 -12 348 0 320 9 -20 16 53 13 135 -1 19 0 114 0
210 1 96 1 238 -1 314 -2 93 1 142 9 146 7 5 12 77 14 211 2 112 5 246 6 297
1 51 5 95 10 98 5 3 9 -4 9 -15 0 -12 4 -21 9 -21 5 0 6 15 2 33 -4 17 -6 74
-3 126 3 65 1 92 -6 87 -6 -3 -13 -2 -17 4 -3 5 -1 10 4 10 7 0 11 42 11 119
0 86 3 120 12 123 10 4 10 19 1 74 -7 43 -9 95 -4 139 4 39 7 90 5 115 -1 25
1 49 4 55 8 12 11 132 5 158 -2 9 -13 17 -23 17 -10 0 -20 5 -22 10 -2 8 -143
12 -423 15 -269 3 -415 1 -405 -5 13 -8 13 -10 -2 -10 -9 0 -24 7 -32 16 -9 8
-16 11 -16 5 0 -18 -164 -14 -208 5 -54 23 -273 45 -421 42 -71 -2 -124 -6
-117 -10 6 -5 -1 -8 -16 -8 -15 0 -31 6 -35 14 -9 15 -168 32 -176 19 -3 -5
-66 -8 -140 -8 -74 0 -133 -3 -131 -6 2 -4 -3 -9 -11 -13 -18 -6 -30 10 -13
18 11 5 -5 3 -62 -9 -8 -2 -21 -4 -27 -4 -7 -1 -13 -8 -13 -16 0 -12 17 -15
94 -15 52 0 97 -4 100 -8 2 -4 -9 -9 -27 -10 -47 -4 -46 -12 2 -12 24 0 44 5
46 13 4 9 37 12 118 11 132 0 259 -13 251 -25 -3 -5 2 -9 10 -9 9 0 16 5 16
11 0 15 213 0 229 -17 3 -4 -23 -4 -59 -1 -49 4 -59 3 -40 -4 34 -14 133 -15
137 -2 5 13 547 8 647 -6 38 -6 73 -8 76 -6 4 3 26 -4 48 -15 23 -11 49 -20
60 -20 10 0 22 -4 28 -9 5 -5 38 -11 74 -14 l65 -5 -90 22 c-126 31 -144 43
-66 44 33 0 61 -3 61 -9 0 -5 -6 -9 -12 -10 -21 -1 33 -15 87 -23 48 -7 49 -6
23 8 -15 8 -38 17 -50 19 -13 2 45 5 127 5 83 0 141 -3 130 -7 -16 -6 -12 -9
20 -15 22 -4 44 -13 48 -19 6 -9 10 -9 14 1 2 6 14 12 26 13 21 0 21 1 2 9
-18 7 -18 8 7 15 40 10 62 0 54 -28 -3 -12 -6 -30 -6 -40 0 -15 -7 -17 -52
-12 -39 5 -49 4 -38 -4 8 -6 27 -11 42 -11 26 0 26 -1 32 -92 12 -209 14 -333
4 -312 -6 14 -19 20 -44 21 -19 1 -31 -3 -28 -8 3 -5 14 -9 25 -9 13 0 19 -7
19 -21 0 -13 -4 -18 -12 -13 -8 5 -9 2 -4 -12 12 -28 18 -174 9 -174 -5 0 -14
5 -21 12 -6 6 -14 9 -17 6 -9 -8 25 -39 36 -33 5 4 9 -11 9 -32 0 -21 5 -45
10 -53 6 -10 10 -11 10 -2 0 6 5 12 10 12 6 0 10 -17 9 -37 0 -32 -2 -34 -9
-17 -9 22 -26 37 -45 40 -6 1 -28 13 -49 28 -21 14 -46 26 -55 26 -16 0 -3
-10 57 -41 12 -7 22 -18 22 -25 0 -6 7 -14 15 -18 12 -4 15 -27 15 -116 0 -72
-4 -109 -10 -105 -11 7 -12 -14 -11 -150 1 -73 0 -78 -14 -60 -8 11 -18 25
-22 30 -5 6 -7 19 -5 31 2 17 -8 26 -52 46 -31 14 -55 27 -53 29 1 2 0 3 -2 2
-1 -1 -33 14 -70 34 -63 33 -74 49 -48 65 9 6 9 8 0 8 -6 0 -19 3 -27 6 -12 5
-15 2 -10 -10 7 -18 -16 -22 -32 -7 -12 13 -83 20 -90 10 -3 -5 14 -9 37 -9
23 0 39 -3 36 -7 -4 -3 26 -22 66 -41 106 -50 149 -73 179 -95 32 -24 27 -44
-5 -22 -26 19 -43 20 -28 2 8 -10 7 -17 -2 -26 -10 -11 -4 -12 31 -6 27 4 42
3 43 -4 1 -6 3 -15 4 -21 1 -5 3 -17 4 -26 0 -8 5 -13 10 -9 10 6 26 -13 18
-21 -17 -17 -69 -14 -93 5 -15 12 -21 21 -14 21 7 0 11 3 8 6 -3 3 -15 0 -26
-7 -20 -13 -57 -5 -48 10 7 11 -17 21 -53 21 -15 0 -36 7 -47 15 -22 17 -14
18 39 6 21 -5 39 -5 43 0 3 5 0 9 -6 9 -6 0 -9 4 -6 9 4 5 -3 7 -13 4 -20 -5
-137 18 -185 37 -35 13 -34 32 0 24 18 -5 25 -3 20 4 -3 6 -1 12 6 15 7 2 2 2
-11 0 -28 -5 -161 35 -161 48 0 5 -7 9 -16 9 -8 0 -13 4 -9 9 3 5 -14 9 -37 9
-24 -1 -61 7 -83 17 -36 17 -38 19 -16 23 13 2 28 -2 33 -10 6 -8 11 -9 14 -2
3 7 22 8 62 2 61 -10 102 -11 110 -3 11 11 -7 15 -71 17 -36 1 -64 5 -62 9 3
4 -6 10 -20 13 -14 4 -25 11 -25 17 0 5 -15 9 -32 8 -18 -2 -44 4 -58 12 -25
14 -25 14 20 20 44 7 44 7 -12 6 -55 0 -94 16 -82 34 3 5 29 7 57 4 l52 -5
-50 15 c-27 8 -63 15 -80 15 -44 0 -75 11 -75 24 0 10 16 10 67 4 37 -5 72
-13 78 -17 5 -5 41 -11 79 -15 76 -7 86 -11 86 -32 0 -8 5 -14 11 -14 5 0 7 4
4 10 -8 13 28 0 37 -14 5 -8 14 -7 28 2 15 9 26 10 41 2 11 -6 25 -10 32 -7 6
2 29 -14 50 -35 21 -21 46 -38 54 -38 21 0 -1 26 -39 46 -27 14 -40 38 -15 29
6 -3 28 -7 47 -9 87 -11 154 -27 176 -41 13 -8 29 -15 36 -15 10 0 10 2 -1 9
-11 7 -10 10 5 14 14 3 12 5 -7 6 -14 0 -41 9 -60 18 -19 9 -54 17 -79 17 -33
1 -44 5 -42 15 4 17 -27 40 -53 41 -17 0 -17 -2 -5 -10 8 -5 11 -10 5 -10 -5
0 -3 -5 5 -11 11 -7 2 -8 -30 -3 -25 4 -52 7 -60 6 -8 0 -31 5 -50 11 -19 6
-46 12 -60 14 -61 7 -72 10 -78 19 -4 5 -29 9 -57 10 -73 0 -129 10 -133 23
-2 6 -14 8 -26 5 -36 -9 -171 44 -155 61 3 2 54 -5 115 -16 60 -11 122 -22
138 -24 16 -3 40 -12 53 -20 15 -10 23 -12 23 -4 0 11 36 9 120 -6 14 -3 43
-7 65 -9 22 -2 51 -7 65 -11 15 -3 33 0 43 8 17 12 15 13 -18 13 -20 0 -39 5
-43 11 -4 6 -24 14 -46 17 -33 5 -37 4 -27 -8 11 -13 8 -14 -21 -6 -18 6 -33
9 -33 9 0 -1 -10 1 -22 5 -13 4 -23 11 -23 15 0 16 40 43 55 38 8 -4 15 -1 15
6 1 7 6 5 14 -5 7 -10 22 -18 32 -17 14 0 15 2 4 6 -8 3 -32 24 -52 47 -27 29
-37 36 -38 24 0 -10 7 -18 15 -18 8 0 15 -7 15 -15 0 -26 -82 -19 -147 13 -74
35 -92 50 -72 64 10 7 7 8 -12 4 -27 -6 -94 15 -84 26 3 3 -11 9 -32 13 -21 4
-40 10 -43 13 -8 11 -42 31 -82 48 -39 17 -47 29 -25 37 6 2 -3 7 -21 11 -18
4 -37 17 -44 29 l-11 21 -8 -22 c-8 -20 -13 -22 -51 -16 -47 7 -61 16 -64 39
-2 15 11 21 19 8 2 -5 3 -3 2 2 -1 6 -12 9 -24 8 -12 -2 -21 3 -21 11 0 7 -9
16 -20 19 -16 4 -18 1 -13 -24 5 -28 4 -29 -26 -23 -31 7 -40 -3 -20 -23 7 -7
6 -12 -5 -16 -19 -8 -56 29 -56 55 0 19 -15 24 -25 8 -10 -17 -25 -11 -25 10
0 13 -7 20 -20 20 -28 0 -27 -45 0 -60 27 -14 15 -32 -18 -30 -15 1 -34 2 -42
1 -13 -1 -13 -2 0 -11 13 -8 12 -10 -2 -10 -10 0 -18 -4 -18 -10 0 -5 -8 -10
-17 -11 -12 0 -9 -5 10 -13 29 -13 27 -26 -4 -26 -28 0 -33 36 -9 62 l21 23
-43 7 c-24 3 -63 7 -88 8 -25 1 -37 4 -27 7 9 2 17 8 17 13 0 9 -94 18 -130
11 -23 -4 -23 -5 -5 -12 17 -6 16 -8 -8 -8 -16 -1 -26 3 -22 9 3 6 -1 10 -9
10 -9 0 -16 5 -16 10 0 6 7 10 15 10 9 0 12 6 9 15 -7 17 -41 20 -46 4 -2 -6
-24 -13 -50 -15 -44 -4 -45 -4 -40 21 2 14 11 25 19 25 8 0 11 5 8 10 -3 6
-33 10 -66 10 -33 0 -75 6 -93 14 -24 10 -45 11 -77 5 -144 -30 -186 -35 -214
-27 -16 4 -45 8 -63 8 -21 0 -31 4 -27 11 5 7 32 8 82 3 51 -4 74 -3 69 4 -9
15 53 20 234 18 91 -1 148 0 128 2 -50 4 -48 20 3 28 35 6 38 9 27 21 -8 7
-37 16 -64 18 -31 3 -42 2 -30 -3 18 -8 18 -9 2 -15 -10 -4 -22 -4 -27 -1 -6
3 -16 1 -24 -6 -16 -13 -120 -17 -154 -6 -23 8 -23 9 15 26 21 10 73 21 114
25 42 3 83 11 90 16 11 8 7 9 -15 5 -16 -3 -57 -8 -90 -11 -125 -13 -140 -16
-147 -28 -5 -8 -11 -8 -15 -2 -5 6 -53 10 -107 10 -71 0 -101 4 -104 13 -2 6
-13 12 -23 12 -11 0 -17 5 -14 10 4 6 -8 10 -28 10 -30 0 -47 13 -47 36 0 2
24 5 53 6 46 1 47 2 13 5 -30 3 -36 7 -25 15 10 7 1 8 -29 4 -44 -7 -92 1 -92
14 0 4 87 11 193 15 l193 7 49 -31 c27 -17 60 -31 74 -32 l26 -1 -26 -8 c-15
-4 -73 -11 -130 -14 -135 -9 -202 -17 -195 -24 9 -8 76 -9 76 0 0 4 18 5 39 2
22 -2 88 3 148 12 100 15 275 20 295 8 7 -4 135 -12 268 -17 19 0 44 3 54 8
14 6 17 5 12 -3 -8 -13 15 -42 32 -42 5 0 17 -11 25 -24 16 -23 57 -42 57 -25
0 5 -4 9 -8 9 -18 0 -78 66 -75 81 3 13 12 14 46 8 53 -10 111 -24 160 -39 31
-9 41 -8 59 5 16 10 18 15 8 16 -56 3 -95 10 -104 19 -5 5 -20 10 -33 10 -12
0 -32 10 -44 23 -21 21 -21 21 -17 2 4 -18 1 -20 -29 -17 -18 2 -36 8 -39 13
-3 5 -15 9 -28 9 -12 0 -27 5 -34 12 -7 7 -12 8 -12 2 0 -6 12 -17 28 -25 25
-13 22 -14 -61 -17 -105 -3 -125 6 -101 46 12 20 12 23 1 10 -8 -10 -22 -18
-31 -18 -9 0 -16 -8 -16 -19 0 -13 -6 -18 -17 -16 -10 2 -33 4 -50 4 -35 1
-44 16 -15 25 9 3 -42 3 -114 0 -105 -5 -138 -3 -168 10 -51 21 -37 36 33 36
71 0 123 9 116 21 -3 4 -11 6 -19 3 -7 -3 -51 -6 -98 -7 -63 -2 -84 1 -81 10
3 7 17 16 31 22 l27 9 -24 1 c-14 1 -35 -9 -49 -21 -22 -22 -32 -23 -195 -25
-95 -1 -164 1 -154 3 9 3 17 9 17 14 0 5 -15 4 -32 -2 -34 -10 -108 -18 -120
-11 -3 2 -64 5 -135 7 -135 5 -228 18 -263 36 -11 6 -20 12 -20 13 0 3 230 -3
269 -6 13 -1 26 4 28 10 3 8 -7 12 -29 11 -18 -1 -44 5 -57 11 -16 9 -26 10
-30 3 -7 -12 -196 -10 -207 1 -9 9 13 35 34 40 9 3 1 3 -19 2 -20 -2 -43 1
-50 6 -10 6 -4 9 18 9 19 0 43 10 60 25 l28 24 -80 1 c-45 0 -86 5 -92 11 -8
8 -14 2 -24 -20z m1717 -19 c-2 -4 12 -6 32 -4 32 3 35 1 18 -9 -24 -15 -163
-14 -197 1 -19 8 -10 9 39 6 37 -3 60 -1 57 5 -4 5 8 9 25 9 17 0 29 -4 26 -8z
m342 -26 c-11 -12 -138 -9 -138 2 0 4 33 7 74 8 52 0 71 -3 64 -10z m65 -3
c-7 -2 -19 -2 -25 0 -7 3 -2 5 12 5 14 0 19 -2 13 -5z m255 -13 c6 0 12 -3 12
-7 0 -5 -20 -8 -44 -8 -36 0 -43 2 -34 13 7 7 21 11 32 8 12 -3 27 -6 34 -6z
m-2250 -106 c-10 -10 -28 6 -28 24 0 15 1 15 17 -1 9 -9 14 -19 11 -23z m87
-31 c33 -4 69 -8 80 -8 13 0 20 -7 20 -20 0 -25 12 -45 28 -45 8 0 8 3 -1 12
-16 16 -15 48 1 49 6 0 63 0 126 -1 97 -1 117 -4 134 -21 11 -10 30 -19 41
-19 21 0 51 -46 37 -54 -4 -3 -46 -4 -94 -4 -48 1 -90 -2 -94 -5 -3 -4 5 -7
18 -7 21 -1 22 -2 7 -13 -13 -11 7 -12 112 -10 81 2 131 0 135 -7 9 -14 -9
-18 -90 -23 -39 -1 -76 -6 -83 -11 -7 -4 -12 -2 -12 4 0 6 -5 8 -11 4 -15 -9
-109 -11 -109 -2 0 3 6 9 13 11 6 3 1 5 -13 4 -85 -3 -122 14 -59 28 17 4 28
9 26 11 -2 3 -60 7 -128 10 -68 3 -128 9 -132 14 -5 4 -1 15 8 24 25 24 -6 21
-33 -4 -27 -26 -42 -25 -42 1 0 11 -5 29 -11 40 -5 11 -7 29 -4 40 5 16 13 19
38 15 18 -3 59 -9 92 -13z m-39 -137 c23 -4 56 -7 75 -7 39 -1 89 -17 89 -30
0 -11 -179 -3 -212 10 -27 10 -36 30 -21 44 3 4 11 3 17 -2 6 -5 29 -12 52
-15z m391 8 c-3 -3 -12 -4 -19 -1 -8 3 -5 6 6 6 11 1 17 -2 13 -5z m299 -64
c152 7 216 -13 77 -23 -179 -14 -230 -14 -230 1 0 9 8 12 24 9 13 -2 23 -1 23
2 0 11 45 27 51 18 4 -5 28 -8 55 -7z m-756 -36 c0 -6 7 -15 16 -18 9 -3 14
-12 11 -20 -4 -9 0 -13 11 -12 9 2 17 7 19 12 5 14 71 4 77 -11 2 -7 -6 -18
-19 -25 -15 -8 -21 -18 -18 -31 4 -12 -1 -21 -13 -26 -11 -4 -32 -16 -47 -27
l-29 -21 -23 29 c-24 30 -23 51 4 74 14 11 13 12 -5 7 -25 -7 -43 23 -22 36
10 7 10 11 0 21 -6 6 -12 20 -12 30 0 15 3 16 25 6 14 -6 25 -17 25 -24z m178
21 c12 -4 22 -10 22 -14 0 -16 -26 -31 -51 -31 -37 0 -46 18 -12 22 l28 3 -28
6 c-18 4 -33 1 -42 -7 -16 -16 -55 -19 -55 -4 0 6 9 10 21 10 11 0 18 4 14 9
-11 19 51 23 103 6z m102 -4 c0 -12 -21 -19 -38 -13 -11 4 -11 6 0 13 17 11
38 11 38 0z m30 -13 c0 -16 -3 -19 -11 -11 -6 6 -8 16 -5 22 11 17 16 13 16
-11z m220 2 c8 -5 13 -10 10 -10 -3 0 -45 -2 -95 -5 -66 -3 -92 -8 -101 -19
-6 -9 -24 -15 -40 -15 -21 1 -24 3 -9 6 11 3 27 14 35 24 15 17 28 19 145 27
22 1 47 -2 55 -8z m-673 -87 c-2 -16 -4 -3 -4 27 0 30 2 43 4 28 2 -16 2 -40
0 -55z m896 30 c42 -3 77 -10 77 -16 0 -6 -51 -8 -144 -5 -79 3 -150 2 -157
-3 -9 -5 19 -9 73 -9 48 0 90 -4 93 -10 3 -5 3 -10 -2 -11 -38 -4 -69 -12 -73
-19 -7 -11 -121 26 -132 43 -13 22 76 48 142 41 25 -2 80 -7 123 -11z m292 7
c4 -6 -7 -10 -27 -9 -31 1 -32 1 -8 9 14 4 26 8 27 9 1 1 5 -3 8 -9z m-652
-17 c-17 -2 -37 -11 -43 -19 -7 -8 -28 -14 -46 -14 -19 0 -34 -4 -34 -10 0
-13 3 -13 85 9 63 17 72 18 93 4 13 -8 40 -21 60 -28 21 -8 29 -14 20 -14 -31
-2 -33 -2 -48 -15 -19 -16 -120 -20 -140 -5 -12 8 -6 9 25 6 22 -3 58 -2 80 3
30 6 11 8 -78 9 -81 1 -116 4 -112 12 5 7 -4 8 -28 4 -42 -8 -77 1 -77 20 0
18 32 28 42 13 5 -9 8 -8 8 6 0 17 6 18 75 12 50 -5 75 -3 75 4 0 5 17 9 38 8
35 -1 36 -1 5 -5z m587 -17 c0 -9 -50 -12 -62 -5 -8 6 1 9 25 9 20 0 37 -2 37
-4z m168 -5 c19 -12 -9 -22 -39 -14 -22 6 -22 7 -3 14 25 10 27 10 42 0z
m-348 -21 c11 -7 8 -10 -16 -10 -19 0 -34 -6 -38 -15 -6 -16 -71 -21 -80 -6
-3 4 6 6 19 3 18 -3 25 0 25 11 0 10 12 17 33 20 17 2 34 4 37 5 3 1 12 -3 20
-8z m-943 -67 c-3 -10 -5 -2 -5 17 0 19 2 27 5 18 2 -10 2 -26 0 -35z m303 26
c0 -5 7 -9 15 -9 8 0 15 -4 15 -9 0 -12 -59 -20 -62 -9 -2 5 -16 4 -32 -2 -33
-12 -39 -9 -31 12 12 30 95 44 95 17z m954 12 c16 -6 6 -13 -48 -34 -49 -19
-73 -23 -89 -17 -17 7 -18 9 -4 9 9 1 17 7 17 14 0 10 -13 12 -57 6 -32 -4
-68 -11 -80 -15 -13 -3 -23 -2 -23 4 0 9 12 12 125 31 65 11 135 12 159 2z
m376 -11 c0 -5 -11 -10 -24 -10 -14 0 -28 5 -31 10 -4 6 7 10 24 10 17 0 31
-4 31 -10z m-895 -10 c-11 -5 -29 -9 -40 -9 l-20 0 20 9 c11 5 29 9 40 9 l20
0 -20 -9z m633 -20 c2 -5 7 -8 11 -6 9 6 37 -11 30 -18 -8 -9 -58 -9 -144 0
-71 7 -77 8 -50 17 17 6 32 13 35 17 14 21 111 13 118 -10z m151 18 c39 2 59
-7 42 -17 -6 -4 32 -6 85 -4 72 2 95 0 92 -9 -15 -43 -259 -22 -306 26 -16 17
-16 18 18 11 19 -5 50 -7 69 -7z m579 -13 c-3 -14 -1 -25 6 -25 6 0 3 -5 -6
-10 -11 -7 -26 -7 -43 0 -31 12 -24 30 11 30 15 0 24 6 24 15 0 8 3 15 6 15 4
0 4 -11 2 -25z m-1691 9 c-3 -3 -12 -4 -19 -1 -8 3 -5 6 6 6 11 1 17 -2 13 -5z
m-21 -23 c-3 -5 -22 -9 -42 -9 -25 0 -33 3 -23 9 18 11 72 12 65 0z m407 2
c-7 -2 -21 -2 -30 0 -10 3 -4 5 12 5 17 0 24 -2 18 -5z m-220 -10 c-7 -2 -21
-2 -30 0 -10 3 -4 5 12 5 17 0 24 -2 18 -5z m472 -11 c-3 -3 -11 0 -18 7 -9
10 -8 11 6 5 10 -3 15 -9 12 -12z m-904 -2 c25 0 25 -20 0 -27 -11 -3 -22 -11
-25 -19 -10 -27 -26 -14 -26 22 0 29 3 35 16 30 9 -3 24 -6 35 -6z m509 0 c0
-5 -6 -11 -12 -11 -16 -2 -53 -5 -95 -7 -18 -1 -33 -7 -33 -13 0 -6 9 -8 20
-4 23 7 28 -10 6 -18 -8 -3 -32 -4 -53 -1 -21 2 -32 2 -25 -2 44 -21 -58 -49
-132 -36 -27 5 -28 6 -10 19 17 13 17 14 -11 7 -16 -4 -32 -8 -34 -10 -2 -2
-16 3 -32 11 -33 18 -39 18 -39 5 0 -5 7 -10 15 -10 8 0 15 -5 15 -11 0 -8
-11 -9 -31 -5 -17 3 -38 6 -45 6 -10 0 -11 6 -5 23 6 15 15 21 30 19 11 -2 21
2 21 7 0 14 87 15 95 1 3 -5 20 -7 37 -3 18 3 29 2 25 -3 -3 -5 17 -7 45 -5
55 3 58 15 3 13 -21 -1 -33 3 -30 8 3 6 20 9 38 9 37 -1 170 12 176 17 9 9 61
3 61 -6z m278 3 c-10 -2 -26 -2 -35 0 -10 3 -2 5 17 5 19 0 27 -2 18 -5z m72
-3 c0 -5 -7 -10 -15 -10 -8 0 -15 5 -15 10 0 6 7 10 15 10 8 0 15 -4 15 -10z
m976 -5 c10 -8 29 -15 41 -15 32 0 53 -10 53 -26 0 -18 -22 -18 -66 1 -35 15
-69 11 -44 -5 8 -5 -2 -8 -24 -8 -25 0 -39 6 -46 18 -8 14 -6 20 8 24 14 4 13
5 -3 4 -42 -1 -56 2 -50 12 10 16 109 12 131 -5z m-1616 -11 c0 -2 -12 -4 -26
-4 -14 0 -23 4 -20 9 6 8 46 4 46 -5z m890 -3 c3 -3 61 -6 130 -7 68 0 115 3
105 7 -17 6 -16 8 7 8 20 1 26 -3 22 -14 -4 -9 -20 -15 -43 -16 -63 -1 -126
-10 -135 -20 -19 -18 -29 -9 -12 10 18 19 17 20 -40 14 -42 -5 -55 -3 -50 5 5
8 0 11 -11 10 -35 -3 -63 2 -63 11 0 10 81 2 90 -8z m197 13 c-3 -3 -12 -4
-19 -1 -8 3 -5 6 6 6 11 1 17 -2 13 -5z m831 -13 c12 -10 22 -23 22 -29 0 -6
6 -13 13 -15 7 -3 5 -6 -5 -6 -10 -1 -18 3 -18 7 0 5 -11 14 -25 20 -15 7 -25
8 -25 2 0 -6 -5 -10 -11 -10 -5 0 -7 5 -3 12 4 6 -1 17 -11 25 -17 12 -16 13
12 13 16 0 40 -8 51 -19z m-1555 -2 c-18 -5 -33 -12 -33 -14 0 -8 61 -1 66 7
10 16 34 7 34 -12 0 -23 -46 -46 -110 -54 -120 -16 -170 -18 -170 -7 0 6 12
13 28 17 15 3 36 10 47 15 18 8 18 9 -2 3 -15 -3 -23 -1 -23 7 0 7 3 9 7 6 3
-4 11 -3 17 1 19 14 114 39 151 40 11 0 5 -4 -12 -9z m206 -16 c18 -18 4 -29
-47 -39 -37 -7 -54 2 -32 16 11 7 8 10 -12 10 -27 0 -37 17 -21 34 11 11 96
-5 112 -21z m1262 17 c5 0 9 -4 9 -10 0 -5 -11 -10 -25 -10 -18 0 -23 -4 -19
-15 4 -8 1 -15 -4 -15 -21 0 -62 20 -62 30 0 6 9 6 26 0 21 -9 25 -8 21 4 -6
16 10 27 31 20 8 -2 18 -4 23 -4z m-1068 -7 c-7 -2 -19 -2 -25 0 -7 3 -2 5 12
5 14 0 19 -2 13 -5z m-115 -14 c-12 -7 -24 -7 -35 0 -15 9 -12 10 17 10 29 0
32 -1 18 -10z m622 2 c0 -5 -15 -9 -34 -9 -19 0 -39 -3 -45 -6 -5 -4 -12 -2
-15 3 -6 9 15 14 77 19 9 1 17 -2 17 -7z m-526 -7 c9 -3 13 -10 10 -15 -8 -13
39 -6 54 9 8 7 18 9 24 6 7 -4 6 -9 -2 -14 -9 -6 -9 -10 3 -16 10 -6 -8 -9
-50 -9 -44 0 -68 4 -70 13 -3 6 4 13 14 13 10 1 2 5 -17 9 -30 6 -31 8 -8 9
14 0 33 -2 42 -5z m626 -4 c21 -7 19 -8 -17 -9 -23 -1 -45 4 -48 9 -7 12 29
12 65 0z m-470 -20 c0 -5 -4 -10 -10 -10 -5 0 -10 5 -10 10 0 6 5 10 10 10 6
0 10 -4 10 -10z m1132 -10 c23 -14 28 -20 15 -20 -23 0 -57 18 -57 30 0 14 5
13 42 -10z m-912 1 c0 -14 -18 -23 -30 -16 -6 4 -8 11 -5 16 8 12 35 12 35 0z
m260 -6 c37 -19 38 -27 3 -21 -16 2 -31 5 -35 5 -9 1 -11 31 -3 31 4 0 19 -7
35 -15z m-1640 -16 c0 -6 -4 -7 -10 -4 -5 3 -10 11 -10 16 0 6 5 7 10 4 6 -3
10 -11 10 -16z m1285 7 c17 -1 38 -9 48 -18 14 -15 14 -18 2 -18 -8 0 -15 -5
-15 -10 0 -6 12 -10 28 -9 41 3 94 -11 89 -24 -2 -7 -6 -11 -8 -11 -2 1 -27 5
-56 9 -34 4 -54 12 -58 23 -5 14 -7 14 -16 2 -7 -13 -10 -13 -18 -1 -5 7 -14
10 -20 6 -19 -11 -71 14 -64 32 5 13 2 13 -14 4 -16 -8 -22 -7 -26 4 -7 18 18
25 63 17 19 -3 49 -6 65 -6z m270 0 c11 -7 46 -22 79 -33 82 -28 53 -38 -39
-13 -59 16 -80 18 -91 9 -11 -9 -14 -8 -14 4 0 9 -10 23 -22 31 -22 16 -21 16
23 16 24 0 53 -6 64 -14z m183 3 c7 20 63 13 69 -8 3 -10 15 -21 28 -23 16 -4
22 -1 18 9 -3 7 1 13 10 13 25 0 29 -17 11 -39 -16 -19 -19 -19 -53 -4 -20 8
-43 16 -52 17 -26 3 -79 28 -79 38 0 5 10 3 22 -3 16 -9 23 -9 26 0z m-1543
-9 c3 -5 -3 -10 -14 -10 -11 0 -23 5 -26 10 -3 6 3 10 14 10 11 0 23 -4 26
-10z m725 0 c0 -5 -14 -7 -32 -3 -46 8 -48 13 -5 13 21 0 37 -4 37 -10z m-540
-10 c0 -5 -6 -10 -14 -10 -8 0 -18 5 -21 10 -3 6 3 10 14 10 12 0 21 -4 21
-10z m745 0 c4 -6 -7 -10 -27 -10 -25 0 -29 3 -18 10 19 13 37 13 45 0z m325
0 c8 -5 11 -10 5 -10 -5 0 -17 5 -25 10 -8 5 -10 10 -5 10 6 0 17 -5 25 -10z
m685 -6 c19 -9 32 -22 31 -32 0 -9 5 -16 12 -14 6 1 12 -2 12 -7 0 -5 11 -8
25 -8 l25 0 -22 18 c-13 10 -28 23 -35 29 -7 5 -17 10 -23 10 -6 0 -8 5 -5 10
8 12 45 13 45 1 0 -5 9 -7 19 -4 20 5 101 -37 133 -69 16 -16 15 -17 -10 -13
-15 2 -42 7 -61 11 -30 6 -33 5 -24 -11 8 -13 25 -19 64 -21 80 -4 120 -14
113 -26 -10 -16 -175 9 -209 32 -5 4 -28 11 -50 14 -104 18 -148 40 -85 42 18
1 27 -3 23 -9 -4 -6 0 -8 11 -4 10 4 19 7 21 7 2 0 -6 11 -18 24 -17 19 -26
22 -40 15 -25 -14 -97 -22 -77 -9 8 5 11 10 7 10 -5 0 -5 5 -2 10 9 15 83 12
120 -6z m-1355 2 c0 -3 -4 -8 -10 -11 -5 -3 -10 -1 -10 4 0 6 5 11 10 11 6 0
10 -2 10 -4z m-740 -15 c0 -11 -31 -24 -39 -16 -3 3 1 10 9 15 19 12 30 12 30
1z m142 -4 c21 3 38 3 38 0 0 -7 -51 -39 -67 -41 -9 -2 -20 -10 -25 -19 -5
-10 -13 -15 -19 -12 -5 4 -2 17 7 31 9 13 12 24 6 24 -6 0 -14 -4 -17 -10 -8
-13 -55 -13 -55 0 0 16 63 40 79 30 8 -4 32 -5 53 -3z m880 4 c13 -6 41 -13
63 -16 33 -6 36 -8 22 -17 -10 -5 -25 -7 -32 -4 -8 3 -17 1 -20 -3 -5 -9 24
-21 64 -27 13 -2 29 -8 35 -15 8 -8 2 -10 -24 -5 -19 4 -49 6 -66 6 -19 0 -34
5 -37 14 -4 10 -31 16 -91 21 -85 7 -130 25 -63 25 19 0 49 3 68 7 28 5 30 7
14 14 -16 6 -13 8 12 8 18 1 42 -3 55 -8z m-684 -7 c52 -7 73 -24 28 -24 -14
0 -37 -5 -53 -11 -18 -7 -29 -7 -31 0 -4 12 -64 -7 -75 -25 -4 -7 -15 -10 -23
-7 -13 5 -13 7 -2 14 10 7 10 9 1 9 -21 0 -15 14 15 32 29 19 59 21 140 12z
m2109 -41 c71 -34 75 -38 48 -41 -32 -3 -125 33 -125 48 0 6 -10 10 -22 10
-13 0 -32 8 -43 16 -37 30 56 8 142 -33z m-1857 13 c0 -15 -53 -26 -120 -25
l-45 2 55 9 c30 5 64 13 75 18 29 12 35 12 35 -4z m1100 10 c0 -11 -19 -15
-25 -6 -3 5 1 10 9 10 9 0 16 -2 16 -4z m45 -16 c-4 -6 7 -10 24 -10 17 0 31
-4 31 -10 0 -5 -10 -9 -22 -7 -13 1 -22 -3 -21 -10 4 -17 -25 -36 -44 -29 -14
6 -15 9 -4 16 8 4 21 6 29 2 10 -3 13 -1 8 6 -4 7 -14 12 -22 12 -14 0 -19 21
-7 33 10 11 35 8 28 -3z m-1780 -20 c-4 -7 -22 -7 -45 0 -3 1 4 5 15 9 22 9
38 4 30 -9z m59 -5 c30 -23 6 -43 -30 -26 -21 9 -24 14 -14 26 15 18 20 18 44
0z m691 5 c-3 -5 -12 -7 -19 -4 -8 3 -17 1 -21 -5 -3 -6 -14 -11 -23 -11 -15
1 -15 2 2 15 22 17 71 21 61 5z m95 0 c0 -5 -19 -9 -42 -9 -40 1 -41 2 -13 9
44 11 55 11 55 0z m475 0 c3 -5 -1 -10 -9 -10 -9 0 -16 5 -16 10 0 6 4 10 9
10 6 0 13 -4 16 -10z m-1131 -15 c19 -15 19 -15 -1 -15 -14 0 -23 -8 -27 -25
-5 -18 -13 -25 -31 -25 -37 0 -39 18 -3 34 18 8 27 15 19 15 -11 1 -11 4 -1
16 15 18 20 18 44 0z m111 5 c-3 -5 -13 -10 -21 -10 -8 0 -12 5 -9 10 3 6 13
10 21 10 8 0 12 -4 9 -10z m145 0 c0 -5 -12 -10 -27 -11 -22 0 -24 -2 -10 -8
17 -6 17 -8 -3 -26 -15 -14 -23 -16 -32 -7 -8 8 -17 8 -30 1 -10 -6 -28 -7
-40 -3 -22 6 -22 7 -3 -39 4 -10 -3 -13 -29 -13 -38 2 -63 16 -28 16 12 0 22
4 22 10 0 5 -13 7 -30 4 -19 -4 -30 -2 -30 5 0 6 6 12 13 13 6 0 17 2 23 2 6
1 19 9 28 19 11 10 33 17 57 17 23 0 42 5 45 13 6 15 74 22 74 7z m1144 -2
c22 -6 45 -15 51 -20 5 -4 19 -8 31 -8 13 0 26 -4 29 -10 8 -13 -11 -13 -60 2
-22 6 -49 12 -60 12 -11 1 -22 6 -23 11 -2 6 -9 13 -15 17 -17 11 0 10 47 -4z
m374 5 c-10 -2 -26 -2 -35 0 -10 3 -2 5 17 5 19 0 27 -2 18 -5z m210 -20 c17
-3 32 -9 32 -14 0 -5 12 -15 26 -22 15 -8 23 -16 18 -19 -13 -8 -54 9 -54 22
0 5 -10 10 -22 10 -13 1 -41 10 -63 21 l-40 20 35 -6 c19 -3 50 -9 68 -12z
m-1673 -51 c-3 -3 -9 -1 -13 5 -5 8 -13 9 -22 3 -8 -6 -21 -10 -29 -10 -11 0
-11 3 -1 15 7 8 21 15 31 15 11 0 19 7 20 18 0 10 5 6 11 -11 5 -16 7 -31 3
-35z m848 39 c10 -12 8 -13 -13 -8 -14 4 -33 7 -42 7 -10 0 -18 5 -18 10 0 15
59 8 73 -9z m667 9 c0 -5 -2 -10 -4 -10 -3 0 -8 5 -11 10 -3 6 -1 10 4 10 6 0
11 -4 11 -10z m-1344 -12 c5 -8 2 -9 -10 -5 -10 4 -26 2 -37 -4 -11 -6 -25 -8
-32 -6 -13 5 29 25 55 26 9 1 20 -4 24 -11z m412 6 c12 -4 22 -12 22 -19 0
-17 -49 -38 -64 -27 -22 18 -69 24 -77 10 -5 -8 -26 -12 -56 -11 -59 2 -134
23 -127 34 8 14 72 11 77 -3 4 -10 7 -10 14 -1 12 17 165 29 211 17z m437 -24
c-22 -8 -105 1 -105 10 0 5 12 10 28 12 33 4 98 -15 77 -22z m1097 10 c10 0
18 -4 18 -9 0 -7 -19 -8 -52 -2 -5 0 -8 9 -8 18 0 13 3 14 12 5 7 -7 20 -12
30 -12z m-1407 -5 c123 -17 145 -22 145 -34 0 -10 -126 5 -192 24 -30 8 -39
26 -10 19 9 -2 35 -6 57 -9z m-1191 -11 c18 -17 21 -34 7 -34 -5 0 -13 -9 -16
-20 -9 -29 -26 -24 -19 5 4 18 1 32 -11 45 -17 19 -17 20 3 20 11 0 28 -7 36
-16z m2056 -19 c0 -7 6 -16 13 -19 6 -4 1 -4 -13 -1 -14 2 -33 5 -42 5 -21 0
-25 36 -5 43 17 6 47 -11 47 -28z m-1306 9 c11 -7 31 -14 43 -14 13 0 23 -4
23 -8 0 -9 -34 -13 -102 -12 -24 0 -58 1 -77 1 -19 0 -39 -5 -44 -10 -14 -14
-70 -15 -62 -1 3 6 19 10 36 10 16 0 29 4 29 9 0 10 77 35 114 38 10 1 28 -5
40 -13z m1006 7 c0 -4 -11 -6 -25 -3 -14 2 -25 6 -25 8 0 2 11 4 25 4 14 0 25
-4 25 -9z m-1681 -49 c-13 -2 -30 -9 -36 -14 -18 -15 -16 3 3 30 16 23 17 23
36 5 20 -18 20 -18 -3 -21z m294 28 c6 0 2 -6 -9 -14 -13 -10 -23 -11 -31 -4
-16 13 -6 31 14 24 8 -3 20 -6 26 -6z m-453 -25 c0 -14 -4 -25 -10 -25 -5 0
-10 11 -10 25 0 14 5 25 10 25 6 0 10 -11 10 -25z m1180 15 c-8 -5 -22 -10
-30 -10 -13 0 -13 1 0 10 8 5 22 10 30 10 13 0 13 -1 0 -10z m513 -3 c-2 -4
-5 -7 -8 -7 -3 0 -9 0 -15 0 -5 0 -10 4 -10 9 0 5 8 8 18 7 9 -2 16 -6 15 -9z
m607 -6 c0 -12 -20 -25 -27 -18 -7 7 6 27 18 27 5 0 9 -4 9 -9z m83 -20 c5 -5
6 -14 3 -20 -12 -19 -40 -11 -60 16 l-19 26 34 -7 c18 -3 37 -10 42 -15z
m-1400 -8 c-7 -2 -19 -2 -25 0 -7 3 -2 5 12 5 14 0 19 -2 13 -5z m267 -14 c0
-4 -16 -11 -35 -15 -19 -3 -37 -10 -40 -14 -3 -5 -31 -12 -63 -15 -31 -4 -65
-9 -74 -11 -25 -7 -22 13 2 21 11 4 18 10 15 15 -7 11 27 22 95 29 61 7 100 3
100 -10z m834 15 c9 -3 16 -13 16 -20 0 -12 -4 -13 -22 -3 -13 7 -25 10 -27 8
-2 -2 -6 2 -8 9 -5 13 15 16 41 6z m-1814 -8 c0 -2 -7 -6 -15 -10 -8 -3 -15
-1 -15 4 0 6 7 10 15 10 8 0 15 -2 15 -4z m34 -8 c-5 -8 4 -9 35 -4 33 5 43 3
47 -9 8 -20 7 -21 -34 -28 -20 -4 -31 -3 -27 3 4 6 -7 7 -27 3 -48 -10 -62 -9
-68 2 -3 6 7 11 23 13 15 2 27 9 27 18 0 8 7 14 16 14 9 0 12 -5 8 -12z m1236
-9 c0 -9 -5 -10 -50 -14 -123 -11 -148 -9 -133 6 7 7 44 12 82 13 39 1 71 4
71 8 0 4 7 5 15 2 8 -4 15 -10 15 -15z m-1480 -5 c0 -8 -4 -12 -10 -9 -5 3
-10 10 -10 16 0 5 5 9 10 9 6 0 10 -7 10 -16z m410 9 c0 -10 -20 -40 -20 -31
0 3 -3 13 -6 22 -4 11 -1 16 10 16 9 0 16 -3 16 -7z m-473 -68 c-3 -61 -10
-85 -22 -73 -9 9 7 138 17 138 4 0 7 -29 5 -65z m888 55 c-3 -5 -12 -10 -19
-10 -8 0 -19 -7 -26 -15 -7 -8 -17 -15 -22 -15 -6 0 -5 7 2 15 10 12 9 15 -5
15 -9 0 -19 -9 -22 -20 -4 -17 -14 -20 -55 -20 -27 0 -47 -4 -44 -9 7 -10 -17
-21 -42 -20 -12 0 -10 3 6 9 25 11 29 38 7 46 -30 12 -3 23 40 17 31 -4 45 -2
45 6 0 7 25 11 71 11 44 0 68 -4 64 -10z m946 -7 c29 -17 38 -33 19 -33 -15 0
-60 31 -60 41 0 13 8 11 41 -8z m317 -7 c3 -15 1 -16 -17 -5 -11 7 -17 17 -14
22 8 13 28 2 31 -17z m82 14 c13 -8 13 -10 -2 -10 -9 0 -20 5 -23 10 -8 13 5
13 25 0z m60 0 c0 -5 -5 -10 -11 -10 -5 0 -7 5 -4 10 3 6 8 10 11 10 2 0 4 -4
4 -10z m-959 -27 c6 -17 4 -19 -17 -15 -17 3 -24 0 -24 -12 0 -9 -7 -16 -16
-16 -9 0 -23 -8 -31 -17 -10 -13 -16 -14 -19 -6 -4 8 -13 9 -30 3 -13 -5 -24
-7 -24 -5 0 13 6 20 21 22 8 1 26 7 40 13 20 9 21 10 3 7 -34 -7 -53 10 -22
18 15 4 29 13 32 21 9 23 78 12 87 -13z m-916 7 c3 -5 1 -10 -4 -10 -6 0 -11
5 -11 10 0 6 2 10 4 10 3 0 8 -4 11 -10z m1120 0 c-3 -5 -16 -10 -28 -10 -18
0 -19 2 -7 10 20 13 43 13 35 0z m100 -8 c-3 -3 -11 0 -18 7 -9 10 -8 11 6 5
10 -3 15 -9 12 -12z m719 3 c13 -10 22 -11 26 -5 4 6 7 -3 7 -20 0 -16 -4 -30
-9 -30 -4 0 -8 5 -8 10 0 6 -9 10 -19 10 -10 0 -22 7 -25 16 -6 15 -8 15 -31
0 -32 -21 -85 -21 -85 -1 0 18 5 19 32 4 17 -9 24 -8 32 3 21 29 53 34 80 13z
m-1714 -5 c11 -7 7 -10 -17 -10 -17 0 -35 -4 -38 -10 -3 -6 4 -10 16 -10 29 0
19 -9 -16 -16 -15 -3 -33 0 -40 6 -7 6 -20 8 -29 4 -9 -3 -16 -1 -16 5 0 7
-11 9 -27 6 -22 -4 -24 -4 -8 3 11 5 39 8 62 7 23 -2 42 0 41 4 -2 17 4 21 30
21 15 0 34 -5 42 -10z m355 1 c-6 -4 -32 -11 -60 -15 -45 -6 -47 -5 -30 9 21
15 106 22 90 6z m609 -6 c19 -14 19 -15 -7 -15 -17 0 -27 5 -27 15 0 19 9 19
34 0z m83 9 c-3 -3 -12 -4 -19 -1 -8 3 -5 6 6 6 11 1 17 -2 13 -5z m783 -4 c0
-5 -4 -10 -9 -10 -6 0 -13 5 -16 10 -3 6 1 10 9 10 9 0 16 -4 16 -10z m-485
-16 c14 -9 25 -23 25 -32 0 -12 -5 -11 -23 6 -13 12 -29 22 -35 22 -7 0 -12 5
-12 10 0 15 17 12 45 -6z m522 -14 c-3 -11 -1 -20 4 -20 5 0 9 6 9 13 0 8 3 9
8 1 4 -6 28 -21 55 -34 26 -13 47 -27 47 -31 0 -11 -48 -1 -87 18 -17 8 -37
12 -43 8 -19 -11 -48 5 -53 30 -5 28 -3 29 24 15 15 -8 19 -7 19 5 0 8 5 15
11 15 6 0 9 -9 6 -20z m-2172 0 c-3 -5 -13 -10 -21 -10 -8 0 -12 5 -9 10 3 6
13 10 21 10 8 0 12 -4 9 -10z m-195 -14 c0 -18 -15 -36 -31 -36 -17 0 -18 3
-9 20 9 17 40 29 40 16z m865 -8 c3 -2 -36 -5 -86 -5 -58 0 -86 3 -78 9 13 8
155 5 164 -4z m360 1 c-55 -11 -77 -11 -70 1 3 6 30 9 58 9 l52 -1 -40 -9z
m175 -15 c0 -2 -7 -4 -15 -4 -8 0 -15 4 -15 10 0 5 7 7 15 4 8 -4 15 -8 15
-10z m510 -16 c0 -5 -7 -3 -15 6 -8 8 -15 18 -15 22 0 3 7 1 15 -6 8 -7 15
-17 15 -22z m-1535 12 c-8 -13 -75 -13 -95 0 -11 7 2 10 43 10 36 0 56 -4 52
-10z m610 0 c4 -6 -7 -10 -27 -10 -25 0 -29 3 -18 10 19 13 37 13 45 0z m520
0 c3 -6 -4 -10 -17 -10 -18 0 -20 2 -8 10 19 12 18 12 25 0z m-1424 -16 c11
-14 10 -18 -6 -31 -11 -7 -27 -12 -35 -10 -9 2 -21 -2 -28 -10 -7 -7 -28 -13
-47 -13 -50 0 -48 31 3 53 75 32 94 34 113 11z m1846 -6 c-3 -8 -6 -5 -6 6 -1
11 2 17 5 13 3 -3 4 -12 1 -19z m144 5 c12 -15 12 -16 -4 -10 -10 4 -23 7 -28
7 -5 0 -9 5 -9 10 0 16 26 12 41 -7z m-222 -9 c2 -2 2 -7 -2 -10 -3 -3 -16 2
-29 11 l-23 17 25 -7 c14 -4 27 -9 29 -11z m330 1 c15 -5 21 -3 17 3 -3 6 16
4 46 -4 29 -7 61 -11 71 -8 18 6 73 -23 63 -33 -3 -3 -12 0 -21 7 -12 10 -15
9 -15 -5 0 -16 -7 -17 -59 -12 -69 8 -152 36 -159 56 -3 9 2 11 14 8 11 -3 30
-9 43 -12z m-2282 -17 c-3 -8 -6 -5 -6 6 -1 11 2 17 5 13 3 -3 4 -12 1 -19z
m1734 5 c13 -15 12 -15 -8 -4 -24 12 -29 21 -14 21 5 0 15 -7 22 -17z m-892
-4 c12 0 11 -2 -4 -9 -27 -12 -125 -12 -125 -1 0 12 46 20 84 15 16 -2 36 -4
45 -5z m961 1 c8 -5 12 -12 9 -15 -8 -8 -39 5 -39 16 0 11 11 11 30 -1z m870
0 c13 -9 13 -10 0 -10 -8 0 -22 5 -30 10 -13 9 -13 10 0 10 8 0 22 -5 30 -10z
m-2724 -48 c-12 -11 -18 7 -10 30 l8 23 4 -23 c2 -13 1 -26 -2 -30z m324 28
c-20 -13 -33 -13 -25 0 3 6 14 10 23 10 15 0 15 -2 2 -10z m233 -7 c-7 -2 -21
-2 -30 0 -10 3 -4 5 12 5 17 0 24 -2 18 -5z m1357 -3 c0 -5 -2 -10 -4 -10 -3
0 -8 5 -11 10 -3 6 -1 10 4 10 6 0 11 -4 11 -10z m441 -25 c4 3 11 0 15 -6 5
-9 -6 -10 -42 -5 -27 3 -50 11 -52 16 -2 6 -10 10 -18 10 -8 0 -14 4 -14 9 0
5 23 1 51 -10 29 -10 55 -16 60 -14z m-1881 15 c0 -5 11 -10 25 -10 14 0 25
-4 25 -9 0 -5 -29 -9 -64 -8 -35 1 -62 5 -59 10 2 4 13 7 24 7 10 0 19 5 19
10 0 6 7 10 15 10 8 0 15 -4 15 -10z m770 -1 c0 -4 -6 -10 -12 -13 -7 -3 3 -4
22 -1 32 5 33 4 12 -7 -18 -9 -28 -9 -42 0 -20 12 -36 1 -25 -17 3 -6 -7 -8
-22 -6 -16 2 -43 4 -60 4 -49 1 -45 31 5 32 43 1 72 5 79 13 7 7 43 3 43 -5z
m970 -10 c0 -11 -3 -11 -24 -3 -23 9 -20 23 4 17 11 -3 20 -9 20 -14z m346 6
c-8 -23 4 -45 26 -45 10 0 17 -4 14 -9 -3 -5 4 -12 17 -16 15 -4 18 -8 8 -12
-10 -4 -8 -9 10 -20 23 -14 23 -14 -11 -8 -19 3 -44 7 -55 9 -11 2 -26 4 -33
5 -7 0 -10 6 -6 12 3 6 17 8 30 5 13 -4 24 -2 24 3 0 5 -27 17 -59 27 -67 20
-76 46 -13 38 20 -2 31 -1 23 2 -11 5 -11 8 0 15 21 13 32 11 25 -6z m-1886
-11 c0 -2 -15 -4 -32 -4 -23 0 -29 3 -19 9 12 8 51 4 51 -5z m660 1 c-7 -8
-17 -15 -22 -15 -6 0 -5 7 2 15 7 8 17 15 22 15 6 0 5 -7 -2 -15z m1325 5 c18
-8 17 -9 -7 -9 -16 -1 -28 4 -28 9 0 12 8 12 35 0z m-2336 -5 c-10 -10 -79
-14 -79 -5 0 6 19 10 42 10 23 0 39 -2 37 -5z m1338 -1 c-3 -3 -12 -4 -19 -1
-8 3 -5 6 6 6 11 1 17 -2 13 -5z m-1597 -14 c0 -5 -4 -10 -9 -10 -6 0 -13 5
-16 10 -3 6 1 10 9 10 9 0 16 -4 16 -10z m983 3 c-7 -2 -19 -2 -25 0 -7 3 -2
5 12 5 14 0 19 -2 13 -5z m1657 -1 c0 -4 10 -9 23 -10 13 -1 49 -13 80 -27 32
-14 71 -25 87 -25 17 0 30 -4 30 -9 0 -5 10 -7 23 -5 20 4 21 4 2 -5 -11 -5
-30 -7 -42 -4 -36 8 -48 -7 -17 -23 24 -13 28 -12 39 3 12 15 15 14 44 -14 18
-18 27 -34 21 -38 -5 -3 -10 -1 -10 6 0 7 -3 9 -7 6 -3 -4 -17 0 -29 8 -15 10
-25 11 -29 4 -4 -5 -19 -8 -33 -4 -15 3 -38 7 -51 10 -28 5 -40 15 -20 16 24
2 -34 17 -68 18 -18 1 -33 6 -33 11 0 6 -11 10 -24 10 -15 0 -26 7 -29 20 -5
18 4 25 27 21 5 -1 6 7 3 19 -3 11 -1 20 4 20 5 0 9 -4 9 -8z m-2544 -14 c-3
-22 -20 -44 -38 -51 -22 -8 -31 3 -16 20 9 11 9 16 -2 23 -10 6 -3 10 21 13
19 2 35 5 36 5 1 1 0 -4 -1 -10z m72 -6 c2 -7 -7 -12 -22 -12 -27 0 -35 15
-13 23 17 7 30 3 35 -11z m1822 8 c0 -5 -2 -10 -4 -10 -3 0 -8 5 -11 10 -3 6
-1 10 4 10 6 0 11 -4 11 -10z m400 -4 c25 -7 43 -17 40 -22 -3 -5 -9 -8 -15
-7 -5 0 -26 4 -45 7 -19 4 -29 4 -22 0 6 -3 12 -10 12 -15 0 -14 -56 -10 -100
7 -55 22 -37 39 19 19 54 -19 50 -19 44 5 -6 24 5 25 67 6z m200 4 c12 -8 11
-10 -7 -10 -13 0 -23 5 -23 10 0 13 11 13 30 0z m-2046 -10 c-13 -13 -140 -30
-220 -29 -51 1 -63 4 -50 11 36 20 289 37 270 18z m451 0 c13 -6 -9 -8 -65 -8
-70 1 -77 2 -40 8 63 10 82 10 105 0z m280 0 c3 -5 -3 -10 -15 -10 -12 0 -18
5 -15 10 3 6 10 10 15 10 5 0 12 -4 15 -10z m-1344 -43 c-8 -8 -11 -5 -11 9 0
27 14 41 18 19 2 -9 -1 -22 -7 -28z m295 21 c-10 -6 -20 -7 -24 -3 -9 8 20 25
31 18 5 -3 2 -10 -7 -15z m-216 -11 c0 -13 -3 -27 -7 -31 -5 -4 -8 -13 -8 -18
0 -6 -6 -13 -12 -15 -9 -3 -13 8 -13 35 0 36 8 49 33 51 4 1 7 -9 7 -22z m779
7 c2 -2 -12 -4 -32 -4 -20 0 -37 4 -37 10 0 8 58 3 69 -6z m-122 0 c-3 -3 -12
-4 -19 -1 -8 3 -5 6 6 6 11 1 17 -2 13 -5z m1398 -4 c3 -5 -1 -10 -9 -10 -9 0
-16 5 -16 10 0 6 4 10 9 10 6 0 13 -4 16 -10z m-1862 -27 c16 -10 -7 -24 -31
-18 -15 4 -28 1 -33 -6 -6 -10 -13 -10 -34 -1 -23 11 -25 15 -14 28 10 12 23
14 58 9 25 -4 49 -9 54 -12z m137 3 c0 -17 -29 -25 -55 -16 -19 7 -19 9 5 18
35 15 50 14 50 -2z m55 4 c-3 -5 -12 -7 -20 -3 -21 7 -19 13 6 13 11 0 18 -4
14 -10z m200 0 c22 -5 6 -8 -53 -9 -53 -1 -81 3 -77 9 7 11 85 11 130 0z m708
-3 c-3 -5 -11 -6 -19 -3 -7 3 -16 1 -19 -4 -4 -6 -18 -9 -33 -9 -21 1 -22 2
-7 6 11 3 24 9 28 13 11 10 57 7 50 -3z m832 4 c3 -5 1 -12 -5 -16 -5 -3 -10
1 -10 9 0 18 6 21 15 7z m-1008 -7 c-3 -3 -12 -4 -19 -1 -8 3 -5 6 6 6 11 1
17 -2 13 -5z m1308 -4 c3 -5 -1 -10 -9 -10 -8 0 -18 5 -21 10 -3 6 1 10 9 10
8 0 18 -4 21 -10z m-2485 -37 c-11 -17 -11 -17 -6 0 3 10 6 24 7 30 0 9 2 9 5
0 3 -7 0 -20 -6 -30z m2540 27 c0 -5 -5 -10 -11 -10 -5 0 -7 5 -4 10 3 6 8 10
11 10 2 0 4 -4 4 -10z m-2445 -10 c3 -5 1 -10 -4 -10 -6 0 -11 5 -11 10 0 6 2
10 4 10 3 0 8 -4 11 -10z m633 3 c-10 -2 -26 -2 -35 0 -10 3 -2 5 17 5 19 0
27 -2 18 -5z m-356 -41 c9 -9 7 -12 -10 -12 -30 0 -72 21 -72 35 0 10 8 10 35
1 20 -7 41 -18 47 -24z m568 28 c10 -7 -7 -9 -55 -9 -57 1 -63 3 -35 9 52 11
73 11 90 0z m1050 -16 c0 -8 -4 -12 -10 -9 -5 3 -10 13 -10 21 0 8 5 12 10 9
6 -3 10 -13 10 -21z m120 16 c0 -5 -4 -10 -9 -10 -6 0 -13 5 -16 10 -3 6 1 10
9 10 9 0 16 -4 16 -10z m130 -16 c0 -12 7 -14 28 -9 27 5 122 -26 122 -40 0
-4 -5 -3 -10 0 -6 4 -17 1 -25 -5 -8 -7 -31 -10 -50 -8 -19 2 -35 0 -35 -4 0
-4 -5 -8 -11 -8 -13 0 -36 22 -35 35 1 5 -8 12 -19 15 -33 9 -60 28 -52 36 4
5 17 3 27 -4 13 -8 20 -9 20 -1 0 5 5 7 10 4 6 -3 10 -1 10 5 0 6 5 8 10 5 6
-3 10 -13 10 -21z m-188 -3 c4 -3 4 -12 -1 -19 -10 -17 -38 -5 -44 19 -4 16
-2 19 16 13 12 -3 25 -9 29 -13z m-1452 -17 c133 -9 128 -17 -8 -12 -74 3
-117 9 -125 18 -10 10 -7 11 13 7 14 -3 68 -9 120 -13z m594 7 c11 -4 15 -10
10 -13 -14 -8 -84 3 -84 13 0 11 47 11 74 0z m66 -5 c0 -3 -4 -8 -10 -11 -5
-3 -10 -1 -10 4 0 6 5 11 10 11 6 0 10 -2 10 -4z m1468 -8 c30 -30 5 -37 -29
-8 -23 19 -23 19 -3 20 11 0 25 -5 32 -12z m167 -13 c131 -23 185 -37 179 -47
-3 -4 11 -8 31 -8 47 0 147 -29 140 -40 -3 -5 -19 -4 -36 2 -22 8 -37 7 -55
-1 -17 -8 -38 -8 -69 -1 -25 6 -48 9 -52 8 -5 -1 -30 4 -57 12 -37 10 -51 11
-54 2 -2 -8 -8 -8 -22 0 -10 6 -16 18 -13 25 3 8 -3 13 -16 13 -13 0 -21 7
-22 18 0 10 -3 12 -6 5 -6 -15 -33 -17 -33 -3 0 6 -9 10 -20 10 -11 0 -20 6
-20 14 0 8 7 13 18 11 9 -2 58 -11 107 -20z m-265 5 c12 -8 9 -10 -12 -10 -15
0 -30 5 -33 10 -8 13 25 13 45 0z m395 0 c3 -5 -3 -10 -15 -10 -12 0 -18 5
-15 10 3 6 10 10 15 10 5 0 12 -4 15 -10z m-2920 -30 c3 -5 1 -10 -4 -10 -6 0
-11 5 -11 10 0 6 2 10 4 10 3 0 8 -4 11 -10z m2402 -4 c4 -4 1 -11 -7 -16 -8
-5 -12 -11 -10 -13 46 -36 66 -47 82 -47 11 0 36 -7 55 -16 25 -12 31 -19 21
-25 -18 -12 -88 -11 -88 1 0 5 7 7 16 3 12 -4 15 -2 12 8 -3 8 -16 15 -29 16
-47 3 -65 14 -75 46 -7 26 -15 33 -39 35 -16 2 -34 8 -40 14 -11 12 91 6 102
-6z m-2507 -18 c0 -16 -3 -19 -11 -11 -6 6 -8 16 -5 22 11 17 16 13 16 -11z
m27 -9 c-6 -10 -13 -15 -15 -9 -6 17 7 42 18 35 6 -4 5 -13 -3 -26z m1710 15
c67 -23 154 -64 170 -80 20 -20 44 -107 33 -118 -10 -10 -171 -10 -226 0 -18
3 -35 1 -38 -4 -4 -6 18 -13 56 -17 90 -9 410 0 433 13 40 22 261 55 285 42
10 -6 31 -4 56 5 21 8 48 14 59 14 31 0 -52 -41 -100 -50 -22 -4 -80 -14 -130
-23 -49 -9 -115 -21 -145 -27 -30 -6 -68 -13 -85 -15 -50 -6 -368 -6 -421 1
-27 3 -67 7 -89 9 -41 5 -105 13 -163 22 -33 5 -34 6 -16 25 11 13 17 32 16
49 -7 60 103 145 208 161 25 3 46 7 47 8 1 0 24 -6 50 -15z m-587 -4 c0 -5
-10 -10 -22 -9 -22 0 -22 1 -3 9 11 5 21 9 23 9 1 1 2 -3 2 -9z m32 -12 c-7
-7 -12 -8 -12 -2 0 6 3 14 7 17 3 4 9 5 12 2 2 -3 -1 -11 -7 -17z m1618 12 c0
-5 -7 -7 -15 -4 -8 4 -15 8 -15 10 0 2 7 4 15 4 8 0 15 -4 15 -10z m-2402 -36
c17 -7 32 -15 32 -17 0 -2 -39 -2 -87 0 -68 2 -89 6 -91 17 -2 10 8 16 35 19
43 4 64 0 111 -19z m502 6 c0 -5 -4 -10 -9 -10 -6 0 -13 5 -16 10 -3 6 1 10 9
10 9 0 16 -4 16 -10z m1554 -6 c9 -24 7 -28 -9 -14 -17 14 -20 30 -6 30 5 0
12 -7 15 -16z m266 12 c0 -3 -4 -8 -10 -11 -5 -3 -10 -1 -10 4 0 6 5 11 10 11
6 0 10 -2 10 -4z m-2004 -31 c17 -13 16 -14 -21 -8 -66 10 -87 22 -39 22 22 1
49 -6 60 -14z m2694 -11 c0 -8 -4 -12 -10 -9 -5 3 -10 1 -10 -5 0 -8 -6 -7
-21 1 -23 12 -14 24 21 26 12 1 20 -4 20 -13z m-3213 -9 c8 -22 -6 -33 -17
-15 -13 20 -12 30 0 30 6 0 13 -7 17 -15z m358 -7 c6 -6 -5 -7 -30 -3 -52 10
-70 26 -19 18 21 -3 44 -10 49 -15z m276 10 c22 -6 39 -14 39 -19 0 -8 -81 10
-94 22 -14 13 9 11 55 -3z m1944 4 c5 -1 -1 -9 -13 -18 -28 -19 -86 -15 -90 7
-2 13 6 16 45 14 26 -1 52 -3 58 -3z m235 -2 c0 -6 -11 -9 -25 -7 -37 5 -42
17 -7 17 18 0 32 -5 32 -10z m205 0 c3 -5 1 -10 -4 -10 -6 0 -11 5 -11 10 0 6
2 10 4 10 3 0 8 -4 11 -10z m-2825 -21 c25 -5 66 -12 92 -15 31 -4 45 -10 42
-19 -3 -8 7 -15 28 -19 19 -4 34 -2 36 4 2 5 8 10 13 10 6 0 8 -4 5 -8 -3 -5
9 -9 26 -10 58 -2 106 -13 112 -28 6 -17 36 -19 36 -3 0 8 13 10 38 6 20 -3
82 -13 137 -22 55 -8 123 -18 150 -20 28 -3 67 -7 87 -11 20 -3 54 -7 75 -10
37 -4 101 -12 248 -33 39 -6 135 -13 215 -17 80 -4 150 -11 156 -16 12 -9 44
-1 44 12 0 4 37 7 83 7 115 -1 236 11 272 27 17 8 57 19 90 26 33 6 85 18 115
25 151 39 232 56 248 52 19 -4 18 -5 -43 -28 -27 -10 -28 -12 -10 -19 11 -4
40 -5 65 -4 l45 4 -50 -15 c-27 -9 -70 -18 -95 -20 -25 -3 -74 -11 -110 -18
-36 -8 -99 -20 -140 -27 -41 -6 -108 -18 -149 -26 -40 -8 -88 -14 -105 -14
-18 0 -36 -4 -42 -10 -11 -11 -93 -24 -133 -21 -14 0 -28 6 -32 12 -4 7 -8 5
-12 -5 -7 -19 -83 -23 -89 -5 -3 8 -28 8 -83 2 -98 -10 -284 5 -520 43 -93 14
-197 30 -230 34 -99 13 -135 22 -135 35 0 17 -41 27 -57 14 -9 -8 -21 -6 -44
5 -18 9 -39 16 -47 16 -8 0 -20 6 -26 14 -8 10 -44 16 -121 20 -60 3 -104 3
-97 0 18 -8 4 -24 -21 -23 -26 0 -158 87 -165 108 -4 11 2 12 24 7 16 -4 49
-11 74 -17z m365 -15 c44 -7 95 -16 114 -20 26 -6 32 -4 26 6 -6 9 0 11 21 7
16 -3 53 -9 82 -12 28 -4 50 -10 47 -14 -2 -5 -30 -4 -61 1 -31 5 -62 7 -68 5
-6 -2 10 -7 37 -11 26 -4 47 -12 47 -18 0 -6 -9 -8 -22 -4 -32 10 -168 34
-260 46 -42 6 -93 17 -115 25 l-38 15 55 -6 c30 -3 91 -12 135 -20z m405 16
c0 -5 -2 -10 -4 -10 -3 0 -8 5 -11 10 -3 6 -1 10 4 10 6 0 11 -4 11 -10z
m2267 -12 c-3 -8 -6 -5 -6 6 -1 11 2 17 5 13 3 -3 4 -12 1 -19z m-313 -15 c4
-3 4 -8 -2 -12 -5 -3 21 -6 59 -7 38 0 75 -6 81 -12 9 -9 -9 -10 -73 -5 -46 3
-86 10 -87 15 -2 4 -8 5 -13 2 -6 -3 -17 0 -25 7 -11 9 -18 8 -34 -6 -11 -10
-23 -15 -27 -12 -3 4 -1 7 6 7 8 0 10 7 6 21 -7 20 -5 21 46 14 30 -4 58 -10
63 -12z m223 11 c-3 -3 -12 -4 -19 -1 -8 3 -5 6 6 6 11 1 17 -2 13 -5z m-3011
-49 c67 -53 164 -101 324 -163 83 -32 321 -92 429 -108 62 -9 100 -20 108 -30
9 -12 16 -13 31 -5 11 6 21 8 23 6 3 -2 34 -6 69 -9 36 -3 99 -10 140 -15 192
-25 372 -33 478 -21 132 13 157 19 146 30 -8 7 -69 2 -158 -15 -38 -8 -39 -7
-31 16 4 13 8 38 9 56 1 31 1 31 66 37 98 10 194 29 202 41 4 5 8 1 8 -11 0
-11 7 -35 16 -53 17 -34 13 -63 -8 -60 -34 4 -88 -2 -88 -10 0 -6 15 -8 33 -7
17 2 61 7 97 11 68 7 186 31 330 66 47 12 105 25 130 29 25 5 56 11 69 16 16
5 22 4 18 -3 -4 -7 11 -6 40 3 58 18 68 11 17 -11 -62 -27 -124 -44 -124 -34
0 4 -30 -3 -67 -17 -105 -40 -387 -98 -528 -109 -128 -10 -630 -12 -745 -3
-58 5 -145 17 -195 28 -49 10 -121 24 -160 31 -38 6 -92 20 -120 30 -27 9 -94
33 -147 51 -54 18 -103 39 -110 46 -6 6 -16 12 -20 12 -16 0 -218 101 -218
109 0 5 -10 12 -22 15 -26 7 -129 95 -112 96 7 0 38 -20 70 -45z m2964 25 c0
-5 -9 -10 -20 -10 -11 0 -20 5 -20 10 0 6 9 10 20 10 11 0 20 -4 20 -10z
m-673 -6 c-3 -3 -12 -4 -19 -1 -8 3 -5 6 6 6 11 1 17 -2 13 -5z m-2592 -13 c3
-5 1 -12 -5 -16 -5 -3 -10 1 -10 9 0 18 6 21 15 7z m1131 -4 c10 -10 -45 -7
-76 3 -19 7 -14 8 22 6 26 -1 51 -5 54 -9z m1697 6 c-7 -2 -19 -2 -25 0 -7 3
-2 5 12 5 14 0 19 -2 13 -5z m-2613 -46 c0 -5 -4 -5 -10 -2 -5 3 -10 14 -10
23 0 15 2 15 10 2 5 -8 10 -19 10 -23z m919 18 c12 -13 -11 -13 -79 1 l-75 14
74 -5 c41 -3 77 -8 80 -10z m1981 -5 c11 -8 7 -9 -15 -4 -37 8 -45 14 -19 14
10 0 26 -5 34 -10z m184 -10 c-10 -9 -134 -1 -134 9 0 3 32 4 71 3 39 -2 67
-7 63 -12z m-1294 0 c0 -5 -4 -10 -10 -10 -5 0 -10 5 -10 10 0 6 5 10 10 10 6
0 10 -4 10 -10z m-720 -10 c0 -5 -6 -10 -14 -10 -8 0 -18 5 -21 10 -3 6 3 10
14 10 12 0 21 -4 21 -10z m1942 -19 c22 -8 22 -8 3 -15 -11 -3 -36 -1 -55 4
-19 6 -47 10 -62 10 -16 0 -28 5 -28 11 0 12 102 5 142 -10z m-2985 -51 c10
-25 9 -26 -23 -26 -21 0 -34 5 -34 13 0 7 7 13 15 13 9 0 15 9 15 22 0 25 11
16 27 -22z m2927 2 c2 -4 -5 -9 -17 -9 -17 -2 -19 0 -7 7 18 12 18 12 24 2z
m-2824 -52 c0 -5 56 -37 125 -72 69 -35 125 -66 125 -69 0 -8 -132 39 -144 52
-6 5 -16 9 -23 9 -21 0 -93 51 -93 66 0 7 -10 14 -22 16 -13 2 -24 11 -26 20
-3 16 -1 16 27 2 17 -9 31 -19 31 -24z m-381 -6 c-22 -27 11 -38 37 -13 l22
21 7 -21 c4 -15 16 -21 46 -23 l41 -3 -50 -53 c-46 -49 -52 -52 -71 -40 -22
14 -27 38 -11 54 6 6 6 15 0 24 -8 12 -10 11 -10 -6 0 -12 -7 -24 -15 -28 -12
-4 -15 5 -15 53 0 39 4 61 13 64 17 6 21 -11 6 -29z m1146 6 c33 -5 63 -10 67
-10 7 0 4 -77 -3 -84 -6 -7 -161 14 -184 24 -11 5 -37 11 -57 15 l-36 6 25 38
24 38 52 -9 c29 -5 79 -13 112 -18z m-672 3 c40 -20 109 -75 103 -81 -6 -5
-61 28 -111 68 -42 34 -40 38 8 13z m2883 0 c-14 -4 -16 -7 -6 -13 8 -5 2 -10
-19 -15 -18 -4 -35 -4 -38 -1 -4 3 3 6 15 6 12 0 21 3 21 8 -3 17 2 22 24 21
19 -1 19 -2 3 -6z m-3043 -48 c9 -20 17 -38 17 -40 0 -3 -25 -5 -55 -5 -30 0
-55 3 -55 7 0 9 62 73 70 73 4 0 14 -16 23 -35z m360 -34 c84 -39 200 -74 329
-101 59 -12 105 -26 103 -31 -3 -4 20 -8 52 -7 32 0 78 -5 103 -11 25 -6 71
-11 103 -11 31 0 57 -4 57 -10 0 -6 -16 -8 -37 -6 -21 2 -67 7 -103 11 -36 4
-78 9 -93 10 -18 3 -27 0 -24 -8 2 -7 8 -11 13 -10 5 0 16 -3 24 -7 8 -4 65
-11 125 -15 120 -8 179 -25 85 -25 -30 0 -84 0 -120 0 -35 1 -67 4 -70 9 -3 5
-34 9 -70 9 -36 0 -101 10 -145 22 -44 12 -95 25 -113 30 -18 4 -38 12 -45 18
-7 5 -37 17 -67 27 -50 16 -133 61 -153 84 -21 23 -44 43 -67 61 l-25 20 38
-15 c21 -9 66 -29 100 -44z m1790 39 c8 0 8 -3 0 -11 -6 -6 -24 -11 -40 -11
-15 0 -43 -9 -62 -19 -34 -20 -54 -18 -33 3 18 18 95 48 110 42 8 -2 19 -4 25
-4z m-2043 -77 c0 -8 15 -23 34 -34 33 -19 55 -59 33 -59 -20 0 -84 66 -106
108 -28 56 -26 61 9 27 17 -16 30 -35 30 -42z m2990 37 c0 -22 -7 -25 -29 -11
-16 10 -6 31 15 31 8 0 14 -9 14 -20z m-366 -16 c9 -24 7 -28 -9 -14 -17 14
-20 30 -6 30 5 0 12 -7 15 -16z m-2865 -11 c0 -5 -13 -18 -30 -31 -31 -25 -41
-11 -12 20 16 18 44 25 42 11z m2111 -3 c0 -5 -4 -10 -10 -10 -5 0 -10 5 -10
10 0 6 5 10 10 10 6 0 10 -4 10 -10z m-880 -13 c0 -10 -60 -5 -66 5 -3 5 11 7
30 6 20 -2 36 -6 36 -11z m-789 -63 c27 -13 49 -20 49 -14 0 5 5 10 10 10 6 0
10 -7 10 -15 0 -14 84 -45 124 -45 16 0 17 3 8 12 -19 19 -14 30 8 18 68 -37
353 -100 440 -98 14 0 54 -5 89 -12 39 -7 107 -9 175 -6 61 4 126 2 144 -3 30
-9 37 -5 30 16 -2 3 -28 6 -58 5 -30 -1 -73 2 -95 7 -39 9 -39 9 20 10 33 0
76 6 95 12 19 6 89 12 155 14 66 2 174 11 240 20 66 9 145 18 175 19 30 1 62
6 70 11 8 5 31 10 50 11 45 2 94 16 149 42 25 12 47 20 49 17 7 -7 -19 -35
-33 -35 -13 0 -55 -33 -55 -44 0 -13 33 -5 61 15 33 23 107 39 95 21 -5 -8 3
-10 26 -7 l33 5 -37 -18 c-51 -23 -51 -44 0 -30 20 5 43 15 50 20 8 7 12 6 12
-3 0 -8 -23 -27 -51 -43 -67 -37 -52 -57 17 -21 26 14 55 24 64 22 8 -2 -19
-20 -60 -40 -41 -21 -88 -48 -104 -61 -16 -13 -36 -22 -44 -19 -8 3 -17 2 -21
-3 -9 -14 -59 -34 -83 -34 -16 0 -18 3 -9 14 6 7 -10 3 -36 -10 -25 -13 -53
-24 -60 -24 -10 0 -12 -7 -8 -19 7 -24 -37 -61 -64 -54 -13 3 -25 -5 -41 -27
-18 -25 -25 -29 -36 -19 -22 18 -87 5 -117 -25 -23 -23 -34 -26 -100 -26 -70
0 -75 2 -96 29 -13 17 -29 27 -37 24 -17 -6 -19 18 -2 35 6 6 8 15 5 19 -4 4
-14 -3 -23 -15 -11 -15 -25 -22 -50 -22 -43 0 -90 -19 -130 -53 -39 -33 -59
-33 -150 -5 -68 21 -71 23 -48 34 16 8 43 11 77 7 35 -4 49 -2 42 4 -5 6 -41
13 -79 17 -57 6 -68 4 -63 -8 7 -19 -25 -27 -64 -16 -17 5 -44 6 -60 3 -24 -5
-28 -3 -23 11 4 10 18 16 36 16 16 0 27 4 23 9 -7 12 31 25 45 16 6 -4 90 -9
187 -12 158 -4 175 -3 164 11 -11 13 -40 16 -155 16 -77 0 -171 4 -208 9 -37
5 -100 7 -140 4 -52 -2 -96 2 -152 17 -44 11 -87 20 -98 20 -10 0 -18 5 -18
11 0 7 9 9 23 5 44 -13 194 -29 210 -23 24 9 21 26 -6 36 -13 5 -29 17 -37 26
-14 17 -12 18 30 12 80 -11 236 -17 215 -9 -11 5 -47 10 -80 11 -33 1 -79 7
-102 13 -24 6 -54 8 -68 6 -14 -3 -28 -1 -31 3 -3 5 -23 9 -45 9 -54 0 -271
37 -334 57 -63 20 -156 63 -173 80 -22 21 5 16 62 -12 53 -25 205 -69 213 -61
2 2 -6 7 -19 11 -151 43 -317 116 -326 143 -4 12 76 -16 149 -54z m-348 39
c-7 -2 -21 -2 -30 0 -10 3 -4 5 12 5 17 0 24 -2 18 -5z m3154 -25 c-3 -7 -5
-2 -5 12 0 14 2 19 5 13 2 -7 2 -19 0 -25z m-517 14 c0 -15 -33 -39 -85 -62
-27 -12 -53 -24 -57 -27 -5 -2 -8 1 -8 6 0 6 5 11 10 11 6 0 36 18 68 40 58
40 72 46 72 32z m300 -7 c-7 -9 -15 -13 -17 -11 -7 7 7 26 19 26 6 0 6 -6 -2
-15z m-445 -5 c-3 -5 -11 -10 -16 -10 -6 0 -7 5 -4 10 3 6 11 10 16 10 6 0 7
-4 4 -10z m535 -10 c0 -5 -7 -10 -16 -10 -8 0 -12 5 -9 10 3 6 10 10 16 10 5
0 9 -4 9 -10z m-2891 -49 c-16 -5 -42 25 -34 39 6 9 13 6 26 -11 11 -14 14
-25 8 -28z m2713 -3 c-35 -50 -82 -96 -82 -80 0 6 4 13 10 17 5 3 7 12 4 19
-3 8 2 30 10 51 14 33 19 37 46 33 16 -3 30 0 30 5 0 6 3 8 6 4 3 -3 -8 -25
-24 -49z m122 27 c-4 -16 -2 -25 5 -25 9 0 9 -5 1 -20 -12 -23 -32 -27 -24 -5
4 8 1 15 -5 15 -16 0 -14 13 7 38 22 28 24 27 16 -3z m-319 -4 c-3 -6 -14 -11
-23 -11 -15 1 -15 2 2 15 21 16 32 13 21 -4z m409 4 c-4 -8 -8 -15 -10 -15 -2
0 -4 7 -4 15 0 8 4 15 10 15 5 0 7 -7 4 -15z m-3292 -10 c2 3 28 7 57 10 l54
5 -44 -39 c-24 -21 -59 -50 -76 -65 l-33 -28 0 35 c0 19 -3 49 -6 66 -6 30 -6
31 19 22 14 -5 27 -8 29 -6z m717 -1 c12 -12 -8 -10 -34 2 l-30 14 30 -6 c16
-3 32 -8 34 -10z m2397 -21 c-3 -17 -26 -32 -26 -16 0 8 20 33 26 33 1 0 1 -8
0 -17z m-2952 -64 c-65 -66 -153 -139 -169 -139 -15 0 2 19 60 67 33 28 74 69
90 91 17 23 35 40 42 37 7 -2 15 0 18 5 4 6 11 10 17 10 6 0 -20 -32 -58 -71z
m321 51 c3 -5 -1 -10 -9 -10 -9 0 -16 5 -16 10 0 6 4 10 9 10 6 0 13 -4 16
-10z m2345 2 c0 -5 -9 -17 -20 -27 -21 -19 -26 -35 -11 -35 5 0 11 9 14 20 3
11 13 20 22 20 15 0 14 -4 -5 -27 -11 -16 -32 -46 -47 -67 -21 -33 -27 -37
-34 -23 -5 9 -15 15 -22 14 -6 -2 3 3 21 11 35 16 44 33 12 25 -16 -4 -19 -2
-14 11 8 20 -14 21 -35 2 -19 -17 -156 -69 -141 -54 14 15 191 97 184 86 -4
-7 6 2 23 20 30 31 53 41 53 24z m90 -17 c-7 -9 -15 -13 -17 -11 -6 6 20 36
26 30 2 -2 -2 -10 -9 -19z m316 -23 c-18 -16 -18 -16 -6 6 6 13 14 21 18 18 3
-4 -2 -14 -12 -24z m-2509 -42 c54 -22 137 -50 186 -62 48 -11 87 -25 87 -30
0 -12 -59 -1 -150 28 -85 27 -83 27 -76 15 4 -5 0 -12 -6 -15 -7 -4 -2 -4 10
-2 13 3 21 2 17 -2 -4 -4 17 -12 47 -19 l53 -12 -60 5 c-33 3 -71 9 -85 13
-14 5 -44 14 -68 20 -24 7 -46 20 -49 29 -4 9 -14 22 -22 29 -9 6 -13 15 -9
19 4 4 2 14 -5 22 -15 19 -4 15 130 -38z m-452 11 c-3 -6 -11 -11 -17 -11 -6
0 -6 6 2 15 14 17 26 13 15 -4z m2681 -8 c-8 -16 -29 -44 -46 -63 l-32 -35 22
35 c12 19 29 47 38 62 22 36 37 36 18 1z m-2521 -23 c-3 -5 0 -10 7 -12 15 -5
1 -28 -16 -28 -16 0 -27 35 -19 56 4 11 9 12 19 3 8 -6 12 -15 9 -19z m448 1
c39 -10 90 -19 112 -20 43 -2 71 -19 57 -33 -6 -6 -22 -3 -41 6 -17 9 -31 12
-31 7 0 -6 -11 -7 -27 -2 -16 5 -55 17 -88 26 -58 17 -93 35 -67 35 7 0 45 -8
85 -19z m1997 -1 c0 -5 -4 -10 -10 -10 -5 0 -10 5 -10 10 0 6 5 10 10 10 6 0
10 -4 10 -10z m160 2 c0 -12 -41 -54 -47 -49 -6 7 27 57 38 57 5 0 9 -4 9 -8z
m-80 -52 c-34 -43 -70 -69 -70 -50 0 15 89 104 96 97 4 -3 -8 -24 -26 -47z
m-2842 -12 c-62 -58 -96 -81 -108 -73 -9 5 34 55 48 55 4 0 23 15 42 34 19 19
43 33 52 33 12 -1 1 -16 -34 -49z m161 -2 c-9 -8 -11 -7 -6 7 8 21 0 22 -20 2
-8 -9 -18 -13 -22 -10 -3 4 8 18 24 33 l30 25 3 -22 c2 -13 -2 -28 -9 -35z
m2551 44 c0 -5 -5 -10 -11 -10 -5 0 -7 5 -4 10 3 6 8 10 11 10 2 0 4 -4 4 -10z
m325 0 c-3 -5 -11 -10 -16 -10 -6 0 -7 5 -4 10 3 6 11 10 16 10 6 0 7 -4 4
-10z m-2980 -80 c-31 -31 -58 -50 -72 -50 -33 0 -29 11 22 50 24 19 44 40 45
46 0 5 5 15 12 22 10 10 15 9 27 -3 14 -13 10 -20 -34 -65z m-190 61 c3 -5 1
-12 -5 -16 -5 -3 -10 1 -10 9 0 18 6 21 15 7z m2866 -30 c-15 -15 -21 -17 -21
-6 0 7 8 18 17 24 26 14 28 6 4 -18z m-2126 -4 c62 -20 314 -77 338 -77 9 0
17 -4 17 -8 0 -14 -220 20 -245 38 -5 4 -28 8 -49 8 -65 2 -136 30 -136 54 0
6 6 8 13 5 6 -2 35 -12 62 -20z m1820 3 c-38 -25 -26 -26 25 -1 53 25 51 12
-1 -18 -34 -19 -43 -20 -50 -10 -13 20 -11 27 9 38 32 19 47 11 17 -9z m150 9
c-8 -12 -108 -59 -126 -59 -23 0 8 23 64 46 60 26 71 28 62 13z m-2175 -19 c0
-5 -4 -10 -10 -10 -5 0 -10 5 -10 10 0 6 5 10 10 10 6 0 10 -4 10 -10z m590
-3 c0 -9 -11 -12 -35 -9 -19 2 -35 8 -35 13 0 5 16 9 35 9 22 0 35 -5 35 -13z
m2277 -9 c-3 -8 -6 -5 -6 6 -1 11 2 17 5 13 3 -3 4 -12 1 -19z m-2991 -23
c-11 -8 -22 -15 -26 -15 -3 0 -11 -9 -18 -21 -8 -12 -9 -18 -3 -14 6 3 11 -2
12 -12 0 -11 3 -13 6 -5 7 18 81 54 88 42 3 -5 -14 -22 -37 -37 -24 -15 -55
-38 -70 -51 -25 -23 -28 -24 -44 -8 -15 16 -15 18 2 39 10 12 12 16 4 10 -8
-7 -17 -13 -21 -13 -11 0 -16 58 -6 72 6 9 7 8 3 -4 -6 -19 9 -25 19 -8 4 6
10 8 14 6 4 -3 20 4 37 15 35 23 70 27 40 4z m1954 5 c-8 -5 -19 -10 -25 -10
-5 0 -3 5 5 10 8 5 20 10 25 10 6 0 3 -5 -5 -10z m-2126 -12 c-16 -28 -47 -57
-56 -52 -5 4 3 19 18 35 28 29 51 39 38 17z m2830 -13 c-9 -14 -21 -25 -27
-25 -6 0 0 11 13 25 13 14 25 25 27 25 2 0 -4 -11 -13 -25z m-377 -55 c-72
-57 -96 -72 -82 -50 14 22 127 110 142 110 8 0 -18 -27 -60 -60z m163 35 c0
-2 -9 -15 -21 -27 -11 -13 -47 -59 -78 -103 -62 -85 -91 -116 -91 -95 0 19 89
152 128 192 32 32 62 48 62 33z m-1717 -12 c-7 -2 -19 -2 -25 0 -7 3 -2 5 12
5 14 0 19 -2 13 -5z m-583 -12 c0 -5 -31 -38 -70 -73 -38 -35 -70 -66 -70 -70
0 -3 10 -4 23 -2 l22 5 -22 -12 c-13 -7 -23 -16 -23 -20 0 -4 -9 -7 -20 -6
-37 3 -35 51 2 63 15 5 17 8 8 14 -8 5 -23 2 -35 -6 -20 -13 -23 -13 -28 1 -8
19 33 41 90 48 45 5 90 29 100 53 6 16 23 19 23 5z m512 0 c-12 -7 -62 -4 -62
5 0 2 17 4 38 4 23 0 32 -3 24 -9z m122 -3 c-5 -8 -2 -9 10 -5 12 5 16 3 14
-5 -5 -13 -59 -31 -67 -22 -3 3 5 14 19 24 29 23 34 24 24 8z m-1220 -20 c-14
-48 -23 -54 -24 -15 0 27 4 37 16 37 11 0 14 -6 8 -22z m627 -5 c-7 -26 -29
-43 -96 -72 l-30 -13 20 23 c16 17 104 88 112 89 1 0 -2 -12 -6 -27z m219 18
c0 -5 -7 -11 -15 -15 -15 -5 -20 5 -8 17 9 10 23 9 23 -2z m320 5 c0 -2 -7 -6
-15 -10 -8 -3 -15 -1 -15 4 0 6 7 10 15 10 8 0 15 -2 15 -4z m-260 -20 c0 -2
-7 -7 -16 -10 -8 -3 -12 -2 -9 4 6 10 25 14 25 6z m1600 -31 c-16 -43 -100
-107 -100 -77 0 5 21 23 48 42 29 21 42 35 33 38 -11 4 -11 6 0 13 23 15 29
10 19 -16z m-2361 -26 c-7 -14 -14 -18 -21 -11 -13 13 -2 32 18 32 12 0 13 -4
3 -21z m826 -9 c-10 -11 -23 -20 -29 -20 -22 -1 -106 -94 -94 -105 2 -2 36 23
77 56 82 66 120 80 53 20 -23 -22 -38 -41 -32 -43 6 -2 0 -9 -12 -17 -21 -13
-22 -13 -9 2 7 10 9 17 3 17 -5 0 -15 -7 -22 -15 -7 -8 -9 -15 -6 -15 4 0 -8
-15 -27 -32 -18 -18 -38 -40 -43 -49 -5 -8 -33 -33 -61 -54 -29 -22 -53 -42
-53 -46 0 -4 -23 -24 -50 -44 -28 -20 -47 -42 -43 -47 3 -6 1 -8 -5 -4 -5 3
-31 -10 -56 -29 -41 -31 -51 -34 -86 -29 -36 6 -40 9 -34 28 4 11 7 21 8 22 0
0 31 20 69 44 37 23 67 44 67 46 0 7 -53 -17 -79 -35 -52 -36 -53 -36 -45 6 4
21 12 41 18 45 7 5 5 8 -5 8 -9 0 -19 9 -22 20 -4 16 6 28 49 56 30 20 54 38
54 40 0 10 -19 2 -40 -16 -31 -27 -61 -35 -71 -19 -13 20 53 75 99 84 20 3 65
24 100 46 35 21 66 39 69 39 3 0 12 8 19 17 13 18 29 15 16 -3 -12 -17 -95
-79 -107 -79 -6 0 -26 -13 -45 -29 -19 -15 -29 -25 -22 -21 6 3 12 2 12 -4 0
-14 30 -2 60 24 42 37 151 107 157 101 4 -3 0 -6 -8 -6 -10 0 -11 -3 -2 -8 8
-5 7 -13 -5 -28 -19 -22 -52 -38 -52 -24 0 4 -27 -10 -60 -32 -33 -22 -60 -46
-60 -54 0 -9 16 -3 48 19 26 19 69 44 95 57 27 12 51 29 54 36 3 8 12 14 20
14 9 0 13 6 10 14 -4 9 5 22 21 33 28 19 65 27 56 12 -9 -15 10 -9 36 11 30
23 40 17 15 -10z m1570 0 c-14 -26 -42 -50 -61 -50 -9 0 59 78 69 79 4 1 1
-12 -8 -29z m-1742 5 c-3 -9 -8 -14 -10 -11 -3 3 -2 9 2 15 9 16 15 13 8 -4z
m1545 -5 c-9 -13 -16 -16 -23 -9 -7 7 -5 13 5 19 24 15 31 11 18 -10z m645 7
c-16 -27 -83 -100 -87 -96 -3 2 16 28 42 57 46 52 60 64 45 39z m-2408 -24
c-66 -63 -115 -89 -115 -63 0 6 5 10 11 10 6 0 29 15 52 34 37 29 59 42 77 45
3 1 -8 -11 -25 -26z m1555 -2 c0 -5 -7 -14 -15 -21 -12 -10 -15 -10 -15 2 0 8
3 18 7 21 9 10 23 9 23 -2z m178 -33 c-16 -25 -98 -72 -107 -61 -3 3 -1 8 6
10 7 2 31 20 55 38 50 40 66 44 46 13z m-478 -1 c0 -16 -37 -51 -64 -61 -17
-6 -17 -4 -5 11 22 30 54 62 62 62 4 1 7 -5 7 -12z m1170 -28 c-16 -16 -30
-34 -30 -40 0 -5 -4 -8 -9 -5 -11 7 -23 -22 -15 -36 4 -6 -5 -3 -19 7 -19 12
-27 13 -33 4 -5 -8 -3 -10 7 -4 8 5 11 4 6 -1 -5 -5 -12 -8 -15 -7 -11 3 -42
-29 -42 -43 0 -17 35 -7 56 17 26 28 37 23 17 -8 -22 -36 -13 -28 27 22 48 61
112 127 117 121 14 -13 -96 -157 -162 -210 -47 -39 -61 -31 -23 13 21 24 20
23 -8 -2 -26 -24 -33 -26 -43 -13 -26 31 -26 156 0 156 6 0 7 -9 4 -21 -6 -18
-4 -20 17 -14 12 4 39 21 59 36 20 16 41 29 46 29 4 0 14 9 20 19 8 13 19 18
33 14 19 -5 19 -7 -10 -34z m-1600 6 c-7 -9 -15 -13 -19 -10 -3 3 1 10 9 15
21 14 24 12 10 -5z m1734 -2 c4 -9 3 -19 -1 -22 -4 -3 -26 -28 -48 -55 -78
-98 -195 -203 -195 -175 0 5 -4 7 -10 4 -6 -3 -7 1 -3 10 4 11 8 13 13 6 4 -7
22 7 46 36 21 26 55 66 75 88 19 22 50 59 68 83 36 46 46 51 55 25z m-1914 3
c0 -3 -4 -8 -10 -11 -5 -3 -10 -1 -10 4 0 6 5 11 10 11 6 0 10 -2 10 -4z m330
0 c0 -3 -4 -8 -10 -11 -5 -3 -10 -1 -10 4 0 6 5 11 10 11 6 0 10 -2 10 -4z
m1208 -49 c-9 -36 -15 -44 -25 -35 -7 6 -13 15 -13 20 0 10 43 67 48 63 1 -1
-3 -23 -10 -48z m-918 8 c-7 -9 -15 -13 -18 -10 -3 2 1 11 8 20 7 9 15 13 18
10 3 -2 -1 -11 -8 -20z m90 21 c0 -2 -7 -9 -15 -16 -13 -11 -14 -10 -9 4 5 14
24 23 24 12z m239 -40 c-9 -8 -10 -7 -5 7 3 10 7 24 7 30 1 7 3 4 6 -7 3 -10
-1 -23 -8 -30z m992 25 c-13 -23 -3 -35 16 -20 26 22 12 -6 -18 -35 -18 -18
-27 -36 -24 -45 3 -9 3 -12 -1 -9 -4 4 -41 -24 -84 -63 -53 -48 -82 -67 -94
-63 -12 4 -16 0 -16 -15 0 -34 23 -25 90 37 35 31 67 56 72 54 4 -1 8 5 8 13
0 7 6 18 14 22 8 4 32 32 55 61 23 28 46 52 51 52 17 0 -13 -65 -59 -125 -83
-110 -162 -186 -145 -140 4 8 2 15 -4 15 -6 0 -12 -5 -14 -12 -3 -7 -27 -12
-61 -12 -46 -1 -57 2 -57 15 0 17 46 54 67 54 12 0 58 51 147 163 56 71 76 90
57 53z m-3175 -57 c-5 -23 -3 -34 5 -34 6 0 9 -8 6 -20 -8 -30 9 -24 30 10 9
17 21 30 25 30 13 0 9 -34 -8 -58 -8 -12 -14 -28 -12 -34 2 -6 14 4 26 23 l23
34 -2 -30 c-2 -48 0 -50 26 -25 32 30 33 11 5 -55 -24 -56 -5 -58 25 -2 25 47
40 48 21 2 -15 -35 -10 -45 12 -23 19 19 15 -29 -8 -90 -27 -71 -25 -95 3 -41
25 46 44 51 38 11 -2 -20 1 -23 19 -17 22 7 22 6 -4 -37 -14 -25 -26 -52 -26
-60 0 -8 -9 -27 -20 -41 -34 -43 -18 -91 18 -55 9 9 12 4 12 -25 0 -30 4 -37
20 -37 12 0 20 7 20 17 0 15 4 14 25 -7 36 -37 53 -50 65 -50 5 0 10 -7 10
-17 0 -14 2 -14 21 3 17 15 23 16 27 6 3 -10 12 -6 32 13 l27 26 -5 -26 c-2
-15 -22 -52 -43 -83 -20 -31 -36 -58 -34 -60 7 -7 45 33 45 48 0 13 1 13 10 0
15 -24 12 -35 -20 -66 -55 -54 -34 -61 27 -9 23 20 44 31 47 26 13 -21 -158
-195 -186 -188 -10 3 -21 1 -24 -4 -3 -5 -21 -9 -40 -9 -32 0 -35 2 -28 22 6
20 5 21 -9 9 -9 -7 -21 -11 -27 -9 -6 2 10 27 35 57 43 50 75 100 75 117 0 4
-15 -12 -32 -36 -18 -24 -48 -57 -65 -74 -22 -19 -33 -39 -33 -57 0 -15 -6
-29 -12 -31 -23 -8 -112 0 -116 10 -5 16 50 66 75 67 18 0 21 -3 16 -27 -4
-22 -2 -28 12 -28 13 0 16 6 11 24 -5 20 5 38 50 91 31 36 54 69 51 71 -3 3
-10 -4 -17 -15 -6 -12 -17 -21 -25 -21 -8 0 -15 -4 -15 -9 0 -13 -56 -71 -69
-71 -17 0 -13 17 15 60 15 22 25 43 22 46 -3 2 -24 -24 -47 -60 -23 -35 -50
-71 -61 -81 -17 -16 -19 -16 -29 4 -12 22 -15 101 -3 101 4 0 7 38 7 84 0 46
-3 82 -7 79 -5 -2 -9 20 -9 49 -1 29 -4 67 -6 83 -2 17 -6 152 -9 300 -3 201
-2 265 7 252 6 -11 8 -33 5 -53z m1593 39 c-13 -16 -27 -29 -30 -31 -4 -2 -5
-12 -2 -22 4 -14 0 -20 -11 -20 -9 0 -22 -11 -28 -25 -6 -14 -15 -25 -20 -25
-5 0 -6 -5 -2 -12 5 -7 2 -9 -9 -5 -9 3 -21 -1 -29 -11 -11 -15 -11 -16 4 -4
13 10 17 10 21 0 4 -13 137 117 137 134 0 5 5 8 10 8 24 0 5 -30 -55 -87 -40
-38 -63 -67 -60 -76 3 -7 -10 -31 -29 -53 -30 -33 -36 -36 -36 -19 0 12 12 28
30 38 35 21 38 33 10 40 -13 3 -25 -2 -35 -16 -16 -23 -19 -22 -29 10 -5 17 1
28 29 50 19 15 35 34 35 41 0 7 4 11 8 8 4 -2 14 -1 22 5 13 7 13 9 0 9 -9 0
3 18 30 45 49 48 78 61 39 18z m-1113 -19 c-25 -18 -46 -18 -46 -1 0 9 12 14
33 15 30 1 31 0 13 -14z m1009 6 c-4 -6 -25 -23 -48 -37 -23 -14 -45 -30 -48
-36 -4 -6 -13 -6 -24 1 -17 9 -17 10 2 20 11 6 24 8 28 4 3 -4 12 1 19 10 7
10 26 24 42 33 34 18 37 18 29 5z m505 -20 c0 -5 -5 -10 -11 -10 -5 0 -7 5 -4
10 3 6 8 10 11 10 2 0 4 -4 4 -10z m1296 -40 c8 0 14 -4 14 -8 0 -36 -178
-228 -203 -219 -20 7 -11 24 81 149 64 86 88 112 90 98 2 -11 10 -20 18 -20z
m-1416 16 c0 -16 -26 -46 -41 -46 -16 0 -10 22 13 41 25 23 28 23 28 5z m70 5
c0 -11 -67 -71 -80 -71 -18 0 -11 16 21 48 30 31 59 42 59 23z m-1024 -17 c-4
-12 -2 -15 9 -10 26 9 16 -10 -10 -22 -42 -19 -47 -11 -17 26 20 26 26 28 18
6z m1179 -30 c-19 -30 -120 -134 -129 -134 -10 0 -7 6 19 36 14 16 24 33 23
39 -2 5 10 24 25 40 16 17 36 38 45 48 25 27 39 4 17 -29z m-615 27 c0 -6 -4
-13 -10 -16 -5 -3 -10 1 -10 9 0 9 5 16 10 16 6 0 10 -4 10 -9z m-465 -20 c3
-5 -3 -16 -12 -23 -27 -19 -29 -42 -3 -28 11 6 20 15 20 20 0 6 8 10 18 10 10
0 23 5 30 12 9 9 12 9 12 1 0 -7 -13 -21 -30 -33 -16 -12 -30 -18 -30 -14 0 4
-9 -1 -20 -11 -11 -10 -20 -14 -20 -9 0 5 -13 -5 -28 -22 -15 -18 -46 -48 -69
-69 -35 -30 -43 -34 -43 -19 1 11 24 36 55 59 30 22 57 46 60 54 4 11 3 12
-10 1 -9 -7 -19 -10 -22 -6 -7 6 64 82 79 85 4 0 9 -3 13 -8z m116 -33 c-34
-26 -48 -22 -21 7 12 13 27 22 33 18 6 -4 1 -14 -12 -25z m1299 16 c0 -9 -18
-38 -41 -65 -49 -58 -134 -115 -114 -76 4 6 -14 -10 -38 -38 -25 -27 -43 -53
-41 -57 3 -4 -2 -21 -11 -37 -8 -17 -15 -48 -15 -69 0 -42 -32 -87 -43 -60 -4
10 -8 10 -16 -2 -29 -40 7 -65 44 -30 23 22 23 22 34 2 6 -12 11 -28 11 -37 0
-9 4 -14 9 -10 5 3 12 1 16 -5 4 -6 10 -8 15 -5 5 3 15 -2 24 -11 13 -12 14
-20 5 -36 -9 -16 -13 -18 -20 -7 -6 11 -11 11 -21 1 -17 -17 -26 -15 -30 8 -3
19 -5 19 -40 -10 -39 -33 -52 -28 -46 18 2 22 -1 27 -18 25 -16 -2 -26 8 -39
37 -10 21 -15 46 -12 54 3 9 2 18 -2 21 -11 6 -1 89 11 94 20 7 118 110 118
123 -1 8 -8 4 -19 -9 -11 -13 -24 -23 -29 -23 -5 0 -24 -16 -41 -35 -17 -19
-33 -35 -35 -35 -9 0 13 51 34 80 11 15 17 30 14 33 -8 8 35 77 47 77 14 0 11
-11 -8 -32 -9 -10 -13 -21 -10 -24 10 -10 57 25 104 75 60 65 62 45 3 -29 -27
-34 -50 -65 -50 -69 0 -6 66 64 110 118 18 23 36 32 64 35 21 3 44 10 49 15
16 16 27 13 27 -5z m-1013 -16 c-3 -8 -6 -5 -6 6 -1 11 2 17 5 13 3 -3 4 -12
1 -19z m1063 -18 c-6 -12 -9 -24 -6 -28 3 -3 6 0 6 6 0 7 7 12 15 12 23 0 18
-27 -11 -54 -20 -17 -36 -23 -61 -21 -18 1 -36 5 -39 8 -11 10 50 86 76 95 32
12 34 9 20 -18z m-522 8 c-2 -6 -10 -14 -16 -16 -7 -2 -10 2 -6 12 7 18 28 22
22 4z m-1045 -11 c-20 -34 -83 -99 -83 -86 0 33 13 59 30 59 9 0 25 9 35 20
21 23 30 26 18 7z m1857 3 c0 -5 -5 -10 -11 -10 -5 0 -7 5 -4 10 3 6 8 10 11
10 2 0 4 -4 4 -10z m540 -11 c0 -15 5 -19 15 -15 8 3 15 3 15 1 0 -8 -127
-169 -149 -189 -57 -52 -27 28 59 156 47 72 60 81 60 47z m-2155 -9 c-3 -5
-12 -10 -18 -10 -7 0 -6 4 3 10 19 12 23 12 15 0z m-376 -22 c-7 -13 -12 -35
-11 -50 2 -27 -7 -36 -21 -21 -4 3 -2 12 4 20 15 17 0 17 -20 -1 -9 -7 -34
-16 -55 -19 l-40 -6 39 32 c36 30 91 64 108 66 4 1 2 -9 -4 -21z m1788 14 c19
15 29 2 13 -17 -12 -14 -10 -15 13 -10 20 6 27 3 27 -8 0 -8 5 -17 11 -19 6
-2 12 -15 12 -30 2 -20 5 -24 15 -16 26 22 12 -22 -19 -57 -18 -20 -30 -38
-28 -40 3 -2 21 16 41 41 20 25 39 41 42 36 3 -5 -3 -17 -14 -27 -11 -10 -20
-25 -19 -34 0 -12 4 -10 16 7 24 34 44 29 36 -10 -3 -18 -10 -38 -14 -44 -5
-6 -5 -25 0 -42 5 -17 7 -41 4 -53 -4 -15 -3 -20 5 -15 7 4 12 1 12 -8 0 -8 3
-21 6 -29 3 -9 -16 -41 -50 -81 -31 -36 -56 -68 -56 -71 0 -4 6 0 13 7 6 8 38
41 69 74 l56 61 7 -34 c11 -60 45 -27 45 45 0 43 22 107 33 95 4 -3 7 0 7 8 0
12 2 12 9 0 7 -11 15 -11 42 -2 l33 11 -22 -23 c-12 -13 -22 -26 -22 -30 0
-11 38 -8 45 3 4 6 11 8 16 5 5 -4 4 -14 -4 -25 -14 -21 -149 -186 -189 -233
-15 -18 -36 -50 -47 -73 -23 -48 -160 -196 -161 -173 0 8 27 41 60 73 33 32
58 62 55 66 -3 5 5 16 17 24 12 9 19 16 15 16 -4 0 15 32 43 72 27 39 50 75
50 80 0 21 -23 4 -48 -34 -54 -86 -113 -158 -127 -158 -8 0 -15 -4 -15 -8 0
-20 -176 -129 -188 -117 -3 3 15 26 40 53 52 55 138 170 138 183 0 18 -60 -22
-74 -49 -25 -49 -127 -124 -144 -107 -3 3 12 24 34 48 l39 42 -37 -34 c-21
-19 -41 -32 -44 -28 -10 10 24 45 84 85 30 19 56 41 59 49 3 7 11 13 19 13 7
0 34 42 59 93 26 50 53 99 61 108 8 8 14 19 14 23 0 4 -11 -6 -25 -21 l-24
-28 -2 65 c-1 36 -2 73 -1 83 1 9 -3 17 -8 17 -6 0 -10 11 -10 24 0 22 -59 96
-77 96 -5 0 -14 4 -22 9 -11 7 -8 16 15 45 18 22 32 32 38 26 6 -6 15 -5 23 2z
m830 -34 c-3 -7 -5 -2 -5 12 0 14 2 19 5 13 2 -7 2 -19 0 -25z m-1637 12 c0
-5 -5 -10 -11 -10 -5 0 -7 5 -4 10 3 6 8 10 11 10 2 0 4 -4 4 -10z m200 4 c0
-8 -27 -34 -36 -34 -4 0 -13 -8 -20 -17 -11 -15 -13 -15 -14 -3 0 20 11 34 35
48 22 13 35 15 35 6z m-357 -20 c-6 -17 -33 -19 -33 -1 0 7 9 13 19 14 14 1
18 -3 14 -13z m207 8 c0 -13 -59 -66 -66 -60 -3 3 7 20 23 37 28 30 43 38 43
23z m-124 -39 c-1 -17 -8 -27 -15 -25 -7 1 -19 -3 -27 -9 -24 -20 -15 4 13 33
15 15 28 28 29 28 2 0 2 -12 0 -27z m986 -5 c-7 -7 -12 -8 -12 -2 0 14 12 26
19 19 2 -3 -1 -11 -7 -17z m678 -5 c0 -16 -12 -42 -28 -60 -16 -18 -40 -48
-53 -67 -13 -20 -27 -36 -31 -36 -5 0 -8 -6 -8 -14 0 -8 -4 -18 -10 -21 -16
-10 -12 32 5 49 8 8 15 17 15 20 0 15 96 156 107 156 1 0 3 -12 3 -27z m-2043
-5 c-3 -8 -6 -5 -6 6 -1 11 2 17 5 13 3 -3 4 -12 1 -19z m1877 -28 c-25 -49
-34 -57 -47 -44 -5 5 61 92 71 94 1 0 -10 -22 -24 -50z m-2274 -22 c-41 -37
-60 -41 -60 -13 0 17 94 76 99 62 2 -6 -15 -28 -39 -49z m610 48 c0 -2 -13
-20 -30 -41 -22 -28 -30 -33 -30 -20 0 19 37 65 52 65 4 0 8 -2 8 -4z m424
-41 c-9 -14 -24 -25 -32 -23 -20 4 -28 28 -9 28 7 0 22 9 33 21 24 27 30 8 8
-26z m-150 10 c-11 -17 -12 -25 -5 -25 7 0 9 -5 6 -11 -4 -6 -13 -8 -21 -5 -7
3 -16 1 -19 -4 -4 -6 -11 -10 -17 -10 -11 0 52 78 65 79 4 1 0 -10 -9 -24z
m-834 -5 c0 -9 -32 -30 -46 -30 -4 0 1 9 11 20 19 21 35 26 35 10z m148 -21
c1 -18 -6 -35 -20 -48 -32 -31 -40 -26 -18 11 10 17 17 35 14 40 -8 13 -40 9
-53 -6 -6 -8 -22 -16 -34 -19 -20 -5 -20 -4 -4 6 10 7 28 20 39 29 11 9 32 16
47 16 22 -1 27 -6 29 -29z m102 0 c-12 -16 -20 -32 -18 -35 3 -2 17 13 32 33
16 21 25 31 22 23 -3 -8 -11 -34 -18 -57 -6 -23 -18 -45 -25 -47 -11 -5 -11
-1 -2 17 l12 22 -25 -22 c-13 -13 -31 -23 -39 -23 -10 0 -11 3 -2 8 6 4 15 21
19 37 7 31 40 75 56 75 5 0 0 -14 -12 -31z m337 -1 c-9 -4 -14 -17 -12 -28 2
-11 0 -20 -6 -20 -5 0 -9 5 -9 12 0 6 -9 3 -20 -7 -32 -29 -23 -4 12 32 17 18
36 30 41 26 5 -3 3 -10 -6 -15z m-988 -20 c-9 -16 -14 -19 -17 -9 -2 7 2 17 9
22 20 13 21 11 8 -13z m1067 9 c17 6 18 5 5 -11 -10 -12 -17 -14 -25 -6 -7 7
-15 4 -28 -12 -9 -13 -19 -20 -23 -16 -3 3 4 17 17 30 13 13 26 20 29 15 3 -4
14 -4 25 0z m67 -23 c-15 -13 -32 -22 -38 -20 -5 2 -18 -3 -27 -12 -26 -22
-22 1 3 24 25 22 71 43 82 37 4 -3 -5 -16 -20 -29z m1541 -19 c-16 -25 -32
-45 -36 -45 -13 0 -9 16 10 38 9 11 24 29 31 41 28 39 23 12 -5 -34z m-2297
20 c-15 -14 -33 -25 -38 -25 -6 0 3 11 18 25 15 13 33 24 38 24 6 0 -3 -11
-18 -24z m113 9 c0 -3 -9 -19 -21 -35 -14 -20 -29 -29 -48 -29 -46 0 -44 12 6
41 50 28 63 33 63 23z m230 -1 c-1 -5 -15 -24 -32 -43 -32 -36 -28 -24 7 23
21 28 25 31 25 20z m2088 -333 c-23 -33 -49 -60 -57 -60 -8 0 -23 -8 -33 -17
-14 -13 -21 -14 -27 -5 -5 8 -17 1 -38 -23 -54 -60 -46 -20 13 75 41 64 60 87
66 78 6 -8 7 -5 3 9 -5 19 -3 22 11 16 14 -5 16 -3 10 12 -4 11 -4 16 0 12 7
-7 84 100 84 116 0 30 -57 -35 -116 -133 -59 -97 -159 -247 -187 -280 -35 -41
-60 -58 -51 -36 3 7 0 17 -5 21 -8 4 -4 15 9 33 56 73 128 171 151 207 14 22
54 74 88 115 62 76 87 134 31 73 -16 -18 -34 -33 -40 -33 -5 0 -19 -18 -30
-39 -20 -39 -40 -61 -40 -43 0 5 7 22 15 38 9 19 11 32 4 40 -10 12 18 74 34
74 4 0 7 5 7 10 0 6 12 23 26 38 l26 27 -16 -32 c-9 -18 -12 -33 -7 -33 5 0
14 14 21 31 l13 31 13 -37 c7 -20 15 -40 19 -43 12 -12 35 30 37 67 1 20 4
-28 5 -107 l4 -142 -43 -60z m-432 295 c-11 -8 -27 -15 -35 -15 -10 1 -7 6 9
15 33 19 50 18 26 0z m-2547 -12 c-37 -46 -41 -64 -22 -86 10 -12 21 -24 25
-27 4 -3 3 -12 -2 -20 -12 -19 -13 -33 -1 -25 19 11 20 -14 1 -36 -13 -16 -19
-19 -20 -9 0 11 -3 11 -12 2 -16 -16 -68 33 -68 63 0 47 64 155 92 155 19 0
20 -2 7 -17z m308 1 c-3 -3 -12 -4 -19 -1 -8 3 -5 6 6 6 11 1 17 -2 13 -5z
m1013 -39 c-7 -8 -17 -12 -22 -9 -5 3 -1 15 9 26 20 22 32 6 13 -17z m693 28
c13 -3 16 -10 11 -25 -5 -15 -3 -20 7 -16 8 3 19 0 26 -7 13 -14 8 -25 -10
-21 -7 2 -9 1 -5 -1 4 -2 4 -12 1 -21 -6 -15 -5 -16 13 -2 10 8 24 22 31 30
10 12 12 12 13 1 0 -7 6 -11 15 -7 8 3 15 3 15 0 0 -12 -24 -50 -42 -65 -22
-19 -23 -29 -4 -29 8 0 16 7 20 15 6 16 26 21 26 6 0 -6 -23 -37 -50 -70 -60
-72 -46 -82 18 -15 34 36 42 41 37 23 -17 -54 -51 -90 -113 -121 -34 -17 -65
-28 -68 -25 -11 11 36 83 76 116 30 24 39 36 31 44 -8 8 -24 -2 -59 -34 -64
-62 -142 -122 -142 -111 0 5 9 17 20 27 11 10 20 30 20 45 0 24 14 40 40 44
19 3 71 52 85 78 15 30 14 33 -11 70 -15 21 -35 38 -44 38 -26 0 -32 -38 -9
-61 26 -26 24 -33 -17 -55 l-36 -19 -19 24 c-11 14 -19 18 -19 10 -1 -9 -6 -7
-15 6 -19 25 -19 26 35 85 45 48 68 57 123 43z m77 -33 c0 -5 -5 -10 -11 -10
-5 0 -7 5 -4 10 3 6 8 10 11 10 2 0 4 -4 4 -10z m-1820 -11 c0 -6 8 -9 18 -6
72 23 70 24 34 -17 -34 -39 -55 -81 -49 -99 2 -6 16 10 33 35 16 25 42 50 58
56 27 11 27 10 12 -7 -30 -33 -15 -53 23 -30 12 8 24 9 35 2 15 -9 15 -11 -5
-37 -12 -15 -24 -25 -27 -22 -3 3 3 15 13 26 10 11 15 23 10 28 -4 4 -12 -2
-19 -12 -6 -11 -19 -28 -28 -38 -22 -22 -23 -38 -3 -38 12 0 11 -7 -7 -32 -13
-18 -28 -37 -34 -43 -6 -5 -30 -35 -54 -65 -85 -108 -194 -200 -237 -200 -33
0 2 52 123 184 75 82 97 132 95 213 -1 36 -6 74 -11 84 -13 24 -13 29 5 29 8
0 15 -5 15 -11z m488 -16 c-22 -26 -33 -47 -21 -40 6 4 15 1 21 -6 11 -13 10
-14 -114 -178 -74 -99 -133 -163 -159 -173 -8 -3 -20 -17 -27 -31 -6 -14 -15
-25 -20 -25 -5 0 -25 -12 -43 -26 -59 -45 -56 -22 5 43 32 34 70 79 85 100 14
21 53 74 86 118 33 44 83 115 112 157 45 68 72 92 86 81 2 -1 -3 -11 -11 -20z
m263 -42 c-22 -26 -37 -52 -33 -56 4 -5 2 -5 -4 -2 -14 8 -38 -18 -30 -32 4
-5 -5 -21 -19 -35 -15 -15 -23 -31 -19 -38 4 -6 3 -8 -4 -4 -6 3 -15 -2 -21
-11 -9 -16 -10 -16 -11 5 0 14 12 34 30 49 17 13 28 28 26 32 -5 7 110 141
121 141 3 0 -13 -22 -36 -49z m69 18 c-16 -16 -32 -40 -36 -52 -7 -21 -7 -21
-14 -2 -9 24 35 83 62 84 12 1 9 -6 -12 -30z m84 23 c3 -4 -8 -22 -25 -39 -37
-40 -37 -50 0 -24 38 28 46 16 15 -25 -41 -53 -9 -68 44 -21 34 31 26 6 -14
-46 -20 -25 -33 -51 -29 -56 3 -6 2 -11 -4 -11 -6 0 -17 -12 -25 -27 -8 -16
-15 -23 -16 -18 0 6 -9 -3 -19 -18 l-19 -29 -4 36 c-3 26 1 41 14 53 10 8 15
20 12 25 -3 5 -21 -8 -40 -29 -39 -44 -45 -34 -10 17 13 19 32 54 44 78 l20
42 -24 -4 c-32 -6 -30 2 11 49 19 22 35 43 35 48 0 10 28 9 34 -1z m-520 -79
c-21 -32 -42 -62 -46 -68 -4 -5 -27 -35 -50 -67 -43 -57 -168 -219 -175 -228
-2 -2 -8 2 -13 10 -8 12 -10 12 -10 2 0 -19 -60 -73 -72 -66 -5 3 0 16 11 28
12 12 21 27 21 33 0 6 4 13 8 15 10 4 123 146 186 234 91 128 111 153 119 154
5 0 5 -4 2 -10 -11 -18 11 -10 30 10 34 37 28 11 -11 -47z m180 45 c-10 -13
-31 -35 -47 -51 -27 -25 -28 -26 -21 -5 12 38 36 69 50 64 7 -3 16 -1 19 4 4
6 9 10 12 10 3 0 -2 -10 -13 -22z m-349 -17 c-2 -16 -15 -47 -29 -67 -14 -21
-23 -40 -21 -43 3 -3 13 6 22 20 30 44 90 99 108 99 10 0 15 -5 12 -13 -6 -15
-111 -164 -135 -192 -10 -11 -29 -36 -42 -55 -13 -19 -31 -42 -39 -51 -9 -8
-27 -30 -41 -48 -24 -32 -37 -45 -90 -92 -32 -27 -82 -49 -115 -49 -23 0 -25
2 -15 21 7 11 10 23 7 25 -2 2 -10 -7 -17 -21 -12 -22 -17 -24 -57 -18 -26 3
-48 2 -51 -4 -10 -14 -70 -24 -77 -13 -3 6 1 10 9 10 9 0 16 5 16 11 0 5 13
15 29 20 17 6 32 18 34 27 4 14 6 13 12 -5 9 -27 27 -29 62 -6 14 9 33 17 43
18 15 1 56 41 117 114 125 148 156 187 171 210 9 14 27 36 41 47 18 17 22 28
17 47 -5 23 2 33 26 36 4 1 5 -12 3 -28z m453 12 c-8 -10 -26 -33 -41 -51 -15
-19 -27 -30 -27 -25 0 9 70 93 78 93 3 0 -1 -8 -10 -17z m42 2 c-7 -9 -15 -13
-19 -10 -3 3 1 10 9 15 21 14 24 12 10 -5z m470 -13 c0 -9 7 -11 20 -7 11 3
20 4 20 2 0 -17 -78 -129 -111 -158 -29 -27 -36 -38 -25 -42 9 -4 27 8 45 29
44 50 38 20 -6 -35 -53 -64 -156 -165 -169 -165 -6 -1 -32 -21 -57 -46 -25
-25 -52 -50 -60 -57 -15 -11 -77 -25 -77 -17 0 7 23 34 49 58 13 11 47 45 76
75 29 30 80 67 116 85 34 17 65 37 67 44 6 21 -18 13 -46 -15 -27 -27 -27 -27
-30 -5 -3 21 -22 32 -22 13 0 -19 -108 -124 -122 -118 -9 3 -21 -6 -32 -24
-23 -38 -74 -86 -108 -100 -16 -6 -28 -15 -28 -20 0 -5 -9 -4 -20 3 -10 7 -23
9 -27 5 -4 -5 -1 -12 7 -17 12 -7 12 -10 -3 -16 -53 -20 -21 35 72 126 36 36
105 111 153 167 73 85 92 101 113 98 34 -3 42 -12 28 -34 -9 -14 -7 -20 7 -29
16 -10 21 -5 42 36 12 26 28 46 34 45 6 -1 22 9 35 23 17 19 20 27 11 36 -15
15 -15 51 -1 65 16 16 49 12 49 -5z m1200 -3 c0 -4 -4 -11 -10 -14 -14 -9 -12
-26 3 -24 28 3 37 -2 37 -22 0 -11 5 -17 10 -14 6 3 10 -1 10 -9 0 -10 6 -13
16 -9 15 5 16 1 10 -32 -4 -21 -14 -48 -23 -61 -8 -13 -12 -31 -9 -40 4 -11
-1 -18 -14 -21 -22 -6 -25 -14 -10 -29 7 -7 -5 -27 -34 -62 -25 -29 -46 -46
-49 -39 -3 9 -8 9 -20 -2 -15 -12 -17 -11 -17 13 0 30 -7 33 -27 8 -14 -16
-14 -16 -9 0 13 42 -21 27 -75 -33 -72 -79 -77 -72 -9 10 28 33 50 65 50 71 0
5 5 10 10 10 6 0 10 6 10 13 0 8 11 24 25 37 25 23 34 60 15 60 -6 0 -33 -31
-61 -70 -28 -38 -55 -70 -60 -70 -5 0 -9 -7 -9 -15 0 -8 -4 -15 -9 -15 -5 0
-16 -16 -25 -35 -18 -36 -63 -85 -80 -85 -6 0 7 17 27 38 20 21 37 42 37 46 0
9 116 164 169 226 17 19 31 40 31 45 0 6 -12 -5 -26 -22 -14 -18 -34 -33 -44
-33 -12 0 -37 -25 -67 -67 -26 -38 -63 -87 -83 -111 -19 -24 -35 -47 -35 -52
0 -5 -6 -15 -12 -22 -7 -6 -13 -8 -13 -4 0 5 -7 3 -15 -4 -34 -29 -20 0 41 80
35 47 83 108 107 137 23 29 44 63 47 77 3 13 31 55 64 93 54 63 61 68 92 65
19 -2 34 -8 34 -13z m-2595 -48 c-3 -6 -11 -11 -17 -11 -6 0 -6 6 2 15 14 17
26 13 15 -4z m1431 -26 c-3 -9 -10 -13 -16 -10 -6 4 -5 11 3 20 15 16 22 11
13 -10z m-716 -5 c0 -5 -5 -10 -11 -10 -5 0 -7 5 -4 10 3 6 8 10 11 10 2 0 4
-4 4 -10z m244 -5 c-4 -8 -10 -15 -15 -15 -4 0 -6 7 -3 15 4 8 10 15 15 15 4
0 6 -7 3 -15z m505 -18 c-7 -12 -31 -49 -54 -82 -57 -82 -57 -82 -40 -89 11
-4 19 3 27 22 15 36 111 181 121 182 15 0 6 -35 -14 -57 -12 -12 -22 -36 -23
-52 -1 -16 -4 -27 -7 -25 -4 2 -14 -6 -22 -19 -8 -12 -29 -38 -46 -57 -22 -23
-30 -41 -27 -55 3 -13 -7 -35 -29 -64 -19 -24 -35 -49 -35 -56 0 -7 -13 -18
-30 -24 -45 -15 -38 4 26 71 43 45 54 62 45 71 -8 8 -27 -5 -74 -54 -66 -69
-121 -101 -157 -92 -21 6 -21 6 6 34 15 16 33 29 40 29 6 0 17 7 24 15 7 8 24
15 37 15 18 0 24 4 20 14 -3 8 16 42 43 78 28 35 75 100 106 146 30 45 60 80
65 77 5 -4 4 -15 -2 -28z m-625 9 c-3 -8 -13 -17 -22 -21 -13 -5 -13 -2 3 15
21 24 26 25 19 6z m135 -31 c-24 -25 -49 -43 -56 -41 -7 3 -13 1 -13 -4 0 -6
-5 -10 -10 -10 -6 0 -20 -9 -32 -20 -39 -36 -31 -12 10 29 23 23 43 37 47 31
4 -6 21 5 39 25 18 19 39 35 45 35 7 0 -7 -20 -30 -45z m-875 -33 c-16 -20
-35 -44 -43 -52 -13 -13 -14 -13 -9 1 10 27 73 106 76 97 2 -5 -9 -25 -24 -46z
m1461 -12 c-9 -17 -13 -35 -10 -40 3 -5 0 -7 -7 -5 -8 3 -21 -7 -30 -23 -19
-31 -13 -49 9 -30 11 9 12 7 7 -6 -5 -12 -14 -16 -30 -13 -13 2 -24 1 -24 -3
0 -4 -11 -7 -25 -6 -34 2 -31 10 10 35 19 11 35 25 35 32 0 6 17 34 37 62 39
52 56 51 28 -3z m35 -29 c-13 -26 -2 -28 16 -4 21 30 29 5 9 -30 l-18 -32 25
23 c28 26 38 28 38 8 0 -21 -123 -142 -151 -148 -8 -2 -19 -10 -26 -18 -7 -9
-12 -10 -13 -4 0 6 7 17 15 24 8 7 15 9 15 5 0 -5 9 0 21 11 13 12 18 26 15
40 -4 13 2 31 15 48 11 14 18 30 14 35 -3 5 2 29 12 53 11 27 19 37 21 26 2
-9 -2 -26 -8 -37z m1369 -41 c-2 -44 -7 -80 -13 -80 -5 0 -6 -3 -3 -6 7 -8
-23 -64 -35 -64 -4 0 -18 -12 -32 -27 -60 -64 -34 11 35 104 38 50 49 83 29
83 -8 0 -20 -14 -80 -92 -13 -17 -18 -18 -27 -6 -10 11 2 29 54 91 37 42 68
77 70 77 2 0 3 -36 2 -80z m-1200 34 c-8 -10 -15 -12 -23 -4 -7 7 -4 14 10 24
22 17 32 3 13 -20z m-2209 -10 c0 -13 -4 -24 -10 -24 -5 0 -10 14 -10 31 0 17
4 28 10 24 6 -3 10 -17 10 -31z m1027 -58 c3 -28 -3 -42 -28 -70 -17 -20 -36
-33 -43 -29 -6 3 -8 3 -4 -1 3 -4 -14 -28 -40 -52 -48 -46 -93 -66 -100 -46
-4 14 -32 -10 -32 -27 0 -14 -57 -14 -65 -1 -3 6 -1 10 5 10 7 0 30 14 51 31
24 19 39 26 39 17 0 -7 11 0 23 17 31 42 181 195 186 190 2 -3 5 -20 8 -39z
m395 22 c-7 -7 -12 -8 -12 -2 0 14 12 26 19 19 2 -3 -1 -11 -7 -17z m737 -9
l24 -20 -34 -35 c-18 -19 -39 -32 -46 -30 -7 3 -26 -13 -44 -35 -38 -48 -59
-35 -25 15 41 60 91 125 96 125 3 0 16 -9 29 -20z m61 -33 c0 -7 -7 -19 -15
-26 -9 -7 -13 -15 -11 -17 3 -3 18 10 35 29 27 29 30 30 31 12 0 -11 -20 -42
-45 -68 -34 -37 -45 -44 -46 -30 0 18 -1 18 -12 0 -19 -31 -78 -86 -93 -86
-27 0 9 63 75 131 67 70 81 80 81 55z m100 -17 c0 -5 -10 -9 -21 -9 -18 0 -19
2 -9 15 12 15 30 12 30 -6z m34 -3 c-10 -8 -21 -12 -23 -10 -3 2 4 11 15 18
10 8 21 12 23 10 3 -2 -4 -11 -15 -18z m-1302 -104 c-26 -24 -64 -52 -84 -62
-36 -19 -68 -26 -68 -14 0 29 116 148 159 162 23 8 27 6 33 -17 7 -22 1 -32
-40 -69z m1268 84 c0 -7 -61 -66 -68 -66 -4 -1 -23 -14 -42 -30 -35 -30 -50
-37 -50 -22 0 15 94 106 107 104 6 -1 14 2 18 8 6 10 35 15 35 6z m-1170 -101
c0 -15 -88 -57 -102 -49 -5 4 9 25 33 50 40 41 45 43 56 27 7 -9 13 -22 13
-28z m1202 33 c4 -10 10 -10 33 0 15 7 30 11 32 8 6 -6 -104 -94 -127 -101
-11 -4 -20 -10 -20 -15 0 -5 -7 -7 -15 -4 -13 5 -13 10 0 33 17 34 70 91 83
91 6 0 12 -6 14 -12z m1031 -26 c-3 -14 -63 -49 -63 -37 0 2 12 17 27 33 28
33 44 34 36 4z m-2111 -7 c6 -8 -63 -55 -83 -55 -14 0 -11 23 7 48 16 23 61
27 76 7z m988 -2 c0 -5 -14 -21 -30 -37 -35 -34 -43 -14 -10 22 21 22 40 29
40 15z m-1600 -19 c0 -11 5 -14 16 -10 12 5 15 2 10 -10 -3 -8 -6 -20 -6 -25
0 -5 -4 -9 -10 -9 -5 0 -10 7 -10 15 0 8 -8 15 -17 15 -15 0 -16 -2 -3 -10 16
-10 11 -12 -32 -14 l-28 -2 32 33 c35 37 48 41 48 17z m490 -24 c0 -5 -5 -10
-11 -10 -5 0 -7 5 -4 10 3 6 8 10 11 10 2 0 4 -4 4 -10z m675 -9 c-3 -6 -11
-8 -17 -5 -6 4 -5 9 3 15 16 10 23 4 14 -10z m664 -5 c-9 -8 -94 -18 -86 -10
15 16 72 32 81 23 5 -5 8 -10 5 -13z m146 14 c-3 -5 -12 -10 -18 -10 -7 0 -6
4 3 10 19 12 23 12 15 0z m-1751 -15 c-4 -8 -15 -15 -25 -15 -17 0 -18 2 -7
15 17 19 39 19 32 0z m126 -15 c0 -5 -4 -10 -9 -10 -6 0 -13 5 -16 10 -3 6 1
10 9 10 9 0 16 -4 16 -10z m225 -10 c-3 -5 -14 -10 -23 -10 -15 0 -15 2 -2 10
20 13 33 13 25 0z m142 -12 c-3 -8 -6 -5 -6 6 -1 11 2 17 5 13 3 -3 4 -12 1
-19z m380 6 c-3 -3 -12 -4 -19 -1 -8 3 -5 6 6 6 11 1 17 -2 13 -5z"/>
<path d="M519 3365 c18 -8 50 -14 70 -14 l36 2 -40 7 c-22 4 -53 10 -70 14
-29 7 -29 7 4 -9z"/>
<path d="M225 3100 c-3 -5 -1 -10 4 -10 6 0 11 5 11 10 0 6 -2 10 -4 10 -3 0
-8 -4 -11 -10z"/>
<path d="M468 3133 c7 -3 16 -2 19 1 4 3 -2 6 -13 5 -11 0 -14 -3 -6 -6z"/>
<path d="M638 3113 c12 -2 30 -2 40 0 9 3 -1 5 -23 4 -22 0 -30 -2 -17 -4z"/>
<path d="M730 2970 c-13 -9 -13 -10 0 -9 8 0 24 4 35 9 l20 9 -20 0 c-11 0
-27 -4 -35 -9z"/>
<path d="M1185 2860 c3 -5 27 -10 53 -10 34 0 43 3 32 10 -20 13 -93 13 -85 0z"/>
<path d="M1100 2769 c0 -5 5 -7 10 -4 6 3 10 8 10 11 0 2 -4 4 -10 4 -5 0 -10
-5 -10 -11z"/>
<path d="M2840 2411 c8 -6 23 -11 32 -11 9 0 18 -4 20 -8 2 -5 21 -11 43 -14
l40 -6 -42 19 c-49 23 -117 37 -93 20z"/>
<path d="M2375 2280 c3 -5 8 -10 11 -10 2 0 4 5 4 10 0 6 -5 10 -11 10 -5 0
-7 -4 -4 -10z"/>
<path d="M3160 2230 c0 -5 4 -10 9 -10 6 0 13 5 16 10 3 6 -1 10 -9 10 -9 0
-16 -4 -16 -10z"/>
<path d="M3228 2208 c5 -5 16 -8 23 -6 8 3 3 7 -10 11 -17 4 -21 3 -13 -5z"/>
<path d="M1190 1990 c8 -5 24 -9 35 -9 l20 0 -20 9 c-11 5 -27 9 -35 9 -13 1
-13 0 0 -9z"/>
<path d="M1576 1941 c-9 -15 162 -35 183 -21 14 8 2 11 -126 25 -29 3 -54 1
-57 -4z"/>
<path d="M1856 1921 c-9 -14 24 -22 45 -11 10 6 19 13 19 15 0 9 -59 5 -64 -4z"/>
<path d="M1130 1710 c0 -5 17 -10 38 -10 27 0 33 3 22 10 -20 13 -60 13 -60 0z"/>
<path d="M2456 1665 c-15 -8 -43 -15 -61 -15 -24 0 -34 -5 -38 -20 -6 -24 20
-27 49 -5 10 8 26 15 34 15 17 1 71 39 55 40 -5 0 -23 -7 -39 -15z"/>
<path d="M950 1626 c0 -2 9 -6 20 -9 11 -3 18 -1 14 4 -5 9 -34 13 -34 5z"/>
<path d="M1080 1622 c0 -5 6 -17 14 -28 12 -16 17 -17 28 -6 11 11 10 16 -6
28 -22 16 -36 18 -36 6z"/>
<path d="M2080 1580 c0 -5 5 -10 10 -10 6 0 10 5 10 10 0 6 -4 10 -10 10 -5 0
-10 -4 -10 -10z"/>
<path d="M1508 1550 c12 -5 22 -14 22 -20 0 -5 10 -9 23 -9 12 1 51 -3 87 -8
36 -5 92 -6 125 -3 54 5 48 6 -52 11 -86 4 -117 9 -131 22 -11 10 -34 17 -58
16 -33 0 -36 -2 -16 -9z"/>
<path d="M1940 1520 c0 -5 4 -10 9 -10 6 0 13 5 16 10 3 6 -1 10 -9 10 -9 0
-16 -4 -16 -10z"/>
<path d="M1450 1380 c0 -6 7 -10 15 -10 8 0 15 2 15 4 0 2 -7 6 -15 10 -8 3
-15 1 -15 -4z"/>
<path d="M793 1596 c13 -14 87 -39 94 -32 4 3 -91 46 -102 46 -4 0 0 -6 8 -14z"/>
<path d="M840 1550 c0 -6 7 -10 15 -10 8 0 15 2 15 4 0 2 -7 6 -15 10 -8 3
-15 1 -15 -4z"/>
<path d="M570 1310 c-9 -6 -10 -10 -3 -10 6 0 15 5 18 10 8 12 4 12 -15 0z"/>
<path d="M1010 1279 c0 -5 5 -7 10 -4 6 3 10 8 10 11 0 2 -4 4 -10 4 -5 0 -10
-5 -10 -11z"/>
<path d="M914 1116 c-10 -8 -16 -17 -13 -20 3 -3 14 1 25 8 10 8 16 17 13 20
-3 3 -14 -1 -25 -8z"/>
<path d="M710 1065 c-19 -14 -29 -25 -22 -25 16 0 81 34 82 43 0 14 -27 6 -60
-18z"/>
<path d="M840 1075 c-7 -8 -18 -15 -26 -15 -7 0 -16 -5 -19 -11 -9 -14 26 -7
43 9 7 6 20 12 28 12 8 0 14 5 14 10 0 15 -26 12 -40 -5z"/>
<path d="M737 1022 c-16 -17 -23 -42 -12 -42 14 0 55 25 59 36 7 17 -6 18 -23
2 -10 -11 -11 -10 -6 5 9 22 2 22 -18 -1z"/>
<path d="M3177 972 c-19 -20 -23 -37 -7 -27 10 6 33 45 27 45 -2 0 -11 -8 -20
-18z"/>
<path d="M272 718 c-7 -7 -12 -19 -12 -27 0 -11 4 -10 20 4 21 19 26 35 12 35
-4 0 -13 -5 -20 -12z"/>
<path d="M136 693 c-6 -14 -5 -15 5 -6 7 7 10 15 7 18 -3 3 -9 -2 -12 -12z"/>
<path d="M187 613 c-4 -3 -7 -11 -7 -17 0 -6 5 -5 12 2 6 6 9 14 7 17 -3 3 -9
2 -12 -2z"/>
<path d="M237 503 c-4 -3 -7 -11 -7 -17 0 -6 5 -5 12 2 6 6 9 14 7 17 -3 3 -9
2 -12 -2z"/>
<path d="M441 457 c-13 -21 -12 -21 5 -5 10 10 16 20 13 22 -3 3 -11 -5 -18
-17z"/>
<path d="M194 423 c-10 -15 -23 -31 -28 -35 -13 -9 -1 -22 13 -14 12 8 43 68
37 73 -2 3 -13 -8 -22 -24z"/>
<path d="M417 423 c-4 -3 -7 -13 -7 -22 1 -13 3 -13 11 2 11 19 8 33 -4 20z"/>
<path d="M454 348 l-19 -23 23 19 c21 18 27 26 19 26 -2 0 -12 -10 -23 -22z"/>
<path d="M410 295 c-7 -9 -8 -15 -2 -15 5 0 12 7 16 15 3 8 4 15 2 15 -2 0 -9
-7 -16 -15z"/>
<path d="M354 245 c-16 -12 -16 -14 -3 -15 9 0 22 7 29 15 16 19 0 19 -26 0z"/>
<path d="M1640 1120 c0 -5 5 -10 11 -10 5 0 7 5 4 10 -3 6 -8 10 -11 10 -2 0
-4 -4 -4 -10z"/>
<path d="M2246 565 c-4 -12 -1 -16 11 -13 16 3 18 13 3 23 -4 3 -10 -1 -14
-10z"/>
<path d="M2715 870 c-3 -5 -1 -10 4 -10 6 0 11 5 11 10 0 6 -2 10 -4 10 -3 0
-8 -4 -11 -10z"/>
<path d="M2740 795 c-7 -9 -11 -18 -8 -20 3 -3 11 1 18 10 7 9 11 18 8 20 -3
3 -11 -1 -18 -10z"/>
<path d="M2786 703 c-6 -14 -5 -15 5 -6 7 7 10 15 7 18 -3 3 -9 -2 -12 -12z"/>
<path d="M3366 714 c-10 -25 1 -29 14 -5 6 12 7 21 1 21 -5 0 -12 -7 -15 -16z"/>
<path d="M3364 485 c-9 -14 -15 -27 -13 -30 3 -2 12 10 21 26 21 36 15 39 -8
4z"/>
<path d="M1615 530 c-3 -5 -1 -10 4 -10 6 0 11 5 11 10 0 6 -2 10 -4 10 -3 0
-8 -4 -11 -10z"/>
<path d="M860 464 c0 -8 5 -12 10 -9 6 3 10 10 10 16 0 5 -4 9 -10 9 -5 0 -10
-7 -10 -16z"/>
<path d="M1716 434 c-9 -24 -7 -28 9 -14 17 14 20 30 6 30 -5 0 -12 -7 -15
-16z"/>
<path d="M430 3655 c7 -9 53 -15 143 -19 73 -3 137 -6 142 -6 6 -1 39 1 75 4
36 3 57 3 48 0 -10 -3 -18 -10 -18 -15 0 -5 -21 -10 -47 -10 l-48 -2 40 -6
c22 -3 112 -4 200 -2 88 2 208 5 267 5 59 1 110 5 114 9 4 4 0 7 -8 7 -9 0
-18 4 -20 10 -1 5 -24 10 -50 11 -27 1 -48 5 -48 9 0 4 -27 2 -60 -3 -39 -6
-73 -6 -100 1 -27 6 -42 7 -46 0 -4 -6 -38 -8 -88 -4 -121 9 -267 16 -394 20
-92 3 -111 2 -102 -9z"/>
<path d="M343 3653 c9 -2 23 -2 30 0 6 3 -1 5 -18 5 -16 0 -22 -2 -12 -5z"/>
<path d="M1283 3653 c15 -2 37 -2 50 0 12 2 0 4 -28 4 -27 0 -38 -2 -22 -4z"/>
<path d="M350 3620 c0 -5 6 -10 14 -10 8 0 18 5 21 10 3 6 -3 10 -14 10 -12 0
-21 -4 -21 -10z"/>
<path d="M540 3619 c-18 -5 -10 -7 28 -8 28 -1 52 1 52 3 0 8 -56 12 -80 5z"/>
<path d="M640 3530 c0 -5 5 -10 11 -10 5 0 7 5 4 10 -3 6 -8 10 -11 10 -2 0
-4 -4 -4 -10z"/>
<path d="M795 3530 c-3 -5 3 -10 14 -10 12 0 21 5 21 10 0 6 -6 10 -14 10 -8
0 -18 -4 -21 -10z"/>
<path d="M844 3529 c-7 -12 12 -29 33 -29 16 0 23 13 15 25 -10 15 -40 17 -48
4z"/>
<path d="M1003 3533 c15 -2 39 -2 55 0 15 2 2 4 -28 4 -30 0 -43 -2 -27 -4z"/>
<path d="M2040 3522 c0 -23 35 -57 74 -72 42 -16 45 -4 3 14 -21 8 -42 27 -52
45 -18 35 -25 39 -25 13z"/>
<path d="M675 3520 c-4 -6 11 -7 42 -3 63 8 67 13 10 13 -25 0 -49 -4 -52 -10z"/>
<path d="M1795 3520 c3 -5 10 -10 16 -10 5 0 9 5 9 10 0 6 -7 10 -16 10 -8 0
-12 -4 -9 -10z"/>
<path d="M1836 3511 c9 -10 64 -16 99 -11 11 1 3 6 -20 11 -55 11 -91 11 -79
0z"/>
<path d="M2655 3510 c-18 -7 -15 -10 20 -25 22 -10 61 -20 88 -23 43 -4 68
-22 30 -22 -9 0 -14 -3 -10 -6 3 -4 14 -3 24 1 10 4 32 7 49 6 58 -4 45 17
-14 23 -31 4 -70 11 -87 16 -16 4 -43 11 -58 14 -15 4 -25 11 -22 16 7 11 7
11 -20 0z"/>
<path d="M2147 3484 c-6 -7 16 -54 26 -54 4 0 7 -6 7 -14 0 -15 68 -46 98 -45
9 0 0 7 -20 16 -40 16 -51 43 -18 43 11 0 20 -5 20 -11 0 -5 5 -7 11 -3 15 9
-9 24 -38 24 -12 0 -28 8 -35 18 -14 19 -43 34 -51 26z"/>
<path d="M2375 3470 c10 -11 30 -20 44 -19 26 0 26 0 4 11 -13 6 -23 15 -23
20 0 4 -10 8 -22 8 -20 0 -21 -1 -3 -20z"/>
<path d="M3278 3483 c6 -2 18 -2 25 0 6 3 1 5 -13 5 -14 0 -19 -2 -12 -5z"/>
<path d="M2456 3462 c-4 -7 -4 -16 -1 -22 4 -6 -7 -10 -24 -10 -17 0 -31 -4
-31 -10 0 -17 73 -31 140 -28 l65 4 -72 2 c-39 1 -75 7 -78 12 -7 11 27 14
113 10 44 -2 51 1 46 14 -5 14 -16 16 -66 10 -50 -6 -61 -4 -72 11 -9 13 -15
15 -20 7z"/>
<path d="M2650 3430 c-13 -8 -12 -10 3 -10 9 0 17 5 17 10 0 12 -1 12 -20 0z"/>
<path d="M2330 3405 c0 -9 15 -22 33 -30 22 -10 26 -14 13 -15 -16 0 -17 -3
-8 -12 9 -9 20 -10 41 -1 17 6 57 8 100 4 40 -4 74 -4 76 0 3 3 -30 9 -73 12
-101 9 -155 24 -148 43 3 9 -1 14 -14 14 -11 0 -20 -7 -20 -15z"/>
<path d="M3510 3410 c20 -13 43 -13 35 0 -3 6 -16 10 -28 10 -18 0 -19 -2 -7
-10z"/>
<path d="M968 3393 c17 -2 47 -2 65 0 17 2 3 4 -33 4 -36 0 -50 -2 -32 -4z"/>
<path d="M1104 3392 c5 -8 66 -4 66 4 0 2 -16 4 -36 4 -19 0 -33 -4 -30 -8z"/>
<path d="M2615 3390 c3 -5 31 -10 62 -10 71 0 63 11 -12 17 -38 2 -55 0 -50
-7z"/>
<path d="M2742 3394 c8 -7 149 -7 156 1 3 3 -32 5 -78 5 -46 0 -81 -3 -78 -6z"/>
<path d="M2938 3393 c7 -3 16 -2 19 1 4 3 -2 6 -13 5 -11 0 -14 -3 -6 -6z"/>
<path d="M2300 3361 c0 -12 29 -23 42 -15 6 4 5 10 -3 15 -18 11 -39 11 -39 0z"/>
<path d="M2217 3321 c-9 -26 -15 -29 -39 -24 -17 3 -28 1 -28 -5 0 -6 -24 -19
-54 -28 -44 -14 -53 -20 -48 -36 2 -11 12 -22 21 -25 9 -3 34 -14 56 -24 22
-10 54 -21 70 -24 l30 -6 -35 20 c-19 11 -29 20 -22 21 6 0 12 6 12 13 0 14
22 15 50 4 8 -4 28 -9 45 -11 16 -3 31 -10 33 -16 3 -9 155 -90 168 -90 2 0 4
5 4 10 0 6 -7 10 -15 10 -8 0 -15 5 -15 11 0 11 20 8 74 -8 12 -3 16 -1 12 6
-4 6 -14 11 -21 11 -8 0 -19 9 -25 20 -6 11 -19 20 -28 20 -10 0 -28 7 -40 16
-12 8 -30 13 -40 10 -23 -7 -51 16 -48 40 3 22 -27 47 -62 50 -13 2 -26 5 -29
8 -10 9 8 45 25 49 10 3 5 5 -11 6 -23 1 -31 -5 -40 -28z m-33 -46 c3 -8 1
-15 -4 -15 -6 0 -10 7 -10 15 0 8 2 15 4 15 2 0 6 -7 10 -15z m128 -39 c11
-16 10 -36 -2 -36 -5 0 -10 6 -10 14 0 7 -15 16 -32 20 -24 5 -29 9 -19 15 16
10 53 2 63 -13z m-192 10 c0 -3 -4 -8 -10 -11 -5 -3 -10 -1 -10 4 0 6 5 11 10
11 6 0 10 -2 10 -4z m314 -102 c6 -15 4 -15 -11 -3 -10 7 -20 15 -22 16 -2 2
3 3 11 3 9 0 19 -7 22 -16z"/>
<path d="M3525 3300 c3 -5 11 -10 16 -10 6 0 7 5 4 10 -3 6 -11 10 -16 10 -6
0 -7 -4 -4 -10z"/>
<path d="M3308 3293 c6 -2 18 -2 25 0 6 3 1 5 -13 5 -14 0 -19 -2 -12 -5z"/>
<path d="M3396 3281 c17 -4 36 -11 42 -15 7 -4 17 -4 24 0 16 10 -18 23 -62
22 l-35 0 31 -7z"/>
<path d="M2474 3258 c-3 -4 21 -7 53 -7 60 1 56 5 -10 11 -21 2 -40 0 -43 -4z"/>
<path d="M2828 3263 c7 -3 16 -2 19 1 4 3 -2 6 -13 5 -11 0 -14 -3 -6 -6z"/>
<path d="M1968 3253 c6 -2 18 -2 25 0 6 3 1 5 -13 5 -14 0 -19 -2 -12 -5z"/>
<path d="M3248 3248 c17 -8 26 -8 34 0 9 9 4 12 -22 11 -33 0 -34 -1 -12 -11z"/>
<path d="M2369 3239 c-22 -6 -21 -7 7 -8 17 -1 46 -4 64 -8 22 -4 31 -3 27 4
-9 14 -66 21 -98 12z"/>
<path d="M3387 3228 c7 -8 31 -15 55 -16 54 -2 39 14 -22 24 -39 6 -43 5 -33
-8z"/>
<path d="M2570 3223 c0 -11 60 -49 89 -58 18 -5 20 -9 10 -16 -10 -6 -8 -11
11 -19 21 -9 17 -10 -27 -7 -29 2 -53 0 -53 -5 0 -5 -5 -6 -10 -3 -6 4 -7 11
-4 17 4 7 2 8 -5 4 -6 -4 -9 -11 -6 -16 3 -4 0 -10 -7 -12 -6 -2 44 -5 113 -5
113 -1 128 -3 173 -27 52 -27 90 -34 84 -14 -2 6 -26 18 -54 26 -29 9 -42 17
-31 19 34 8 17 24 -18 17 -19 -3 -41 -2 -48 3 -6 5 -34 18 -62 28 -27 9 -71
30 -96 46 -47 30 -59 34 -59 22z"/>
<path d="M1723 3193 c14 -14 17 -14 31 -1 13 13 11 15 -16 16 -28 1 -30 -1
-15 -15z"/>
<path d="M2510 3180 c-7 -4 1 -10 20 -14 37 -7 85 -8 79 -2 -10 11 -88 23 -99
16z"/>
<path d="M1640 3150 c-35 -6 -35 -6 14 -13 69 -10 216 -9 216 2 0 5 -33 8 -72
6 -40 -1 -84 1 -98 4 -14 4 -41 4 -60 1z"/>
<path d="M1500 3146 c0 -2 11 -6 25 -8 14 -3 25 -1 25 3 0 5 -11 9 -25 9 -14
0 -25 -2 -25 -4z"/>
<path d="M3385 3130 c3 -5 16 -10 28 -9 21 0 21 1 2 9 -28 12 -37 12 -30 0z"/>
<path d="M2880 3122 c0 -5 22 -13 50 -17 27 -4 52 -11 56 -16 3 -5 13 -9 22
-8 11 0 9 4 -8 10 -20 8 -22 12 -10 19 11 7 7 10 -16 10 -17 0 -46 3 -63 6
-19 4 -31 2 -31 -4z"/>
<path d="M2267 3099 c7 -7 15 -10 18 -7 3 3 -2 9 -12 12 -14 6 -15 5 -6 -5z"/>
<path d="M2428 3074 c6 -3 10 -9 8 -12 -2 -4 12 -7 31 -8 38 -1 26 10 -22 19
-16 4 -24 4 -17 1z"/>
<path d="M2524 3068 c21 -8 25 -13 15 -19 -10 -6 -10 -9 -2 -9 7 0 10 -7 7
-15 -5 -12 4 -15 48 -15 30 0 69 -7 87 -16 18 -9 41 -14 52 -11 10 3 22 -1 27
-8 9 -16 139 -78 153 -73 7 2 -16 15 -50 28 -33 14 -61 29 -61 35 0 6 -15 16
-32 23 -27 10 -30 14 -18 22 12 8 11 10 -7 10 -12 0 -29 3 -39 7 -11 4 -15 3
-10 -5 3 -6 2 -13 -4 -17 -5 -3 -10 -1 -10 4 0 6 -7 11 -15 11 -9 0 -42 14
-75 30 -33 17 -67 30 -77 29 -11 0 -7 -4 11 -11z"/>
<path d="M2660 3060 c6 -11 15 -20 20 -20 16 0 11 27 -6 34 -24 9 -26 8 -14
-14z"/>
<path d="M2980 3040 c0 -4 10 -10 23 -14 31 -8 39 -7 33 3 -7 11 -56 21 -56
11z"/>
<path d="M2808 3018 c5 -5 16 -8 23 -6 8 3 3 7 -10 11 -17 4 -21 3 -13 -5z"/>
<path d="M2875 3020 c3 -5 12 -7 20 -3 21 7 19 13 -6 13 -11 0 -18 -4 -14 -10z"/>
<path d="M3195 2900 c-13 -6 -15 -9 -5 -9 8 -1 26 -4 40 -8 23 -6 24 -6 8 10
-9 9 -18 17 -20 16 -2 0 -12 -4 -23 -9z"/>
<path d="M3348 2893 c7 -3 16 -2 19 1 4 3 -2 6 -13 5 -11 0 -14 -3 -6 -6z"/>
<path d="M3434 2866 c11 -9 27 -16 35 -15 14 0 14 1 1 6 -8 3 -24 10 -35 15
-20 9 -20 9 -1 -6z"/>
<path d="M2798 2843 c7 -3 16 -2 19 1 4 3 -2 6 -13 5 -11 0 -14 -3 -6 -6z"/>
<path d="M3105 2780 c3 -5 10 -10 16 -10 5 0 9 5 9 10 0 6 -7 10 -16 10 -8 0
-12 -4 -9 -10z"/>
<path d="M3358 2733 c7 -3 16 -2 19 1 4 3 -2 6 -13 5 -11 0 -14 -3 -6 -6z"/>
<path d="M3270 2710 c0 -5 5 -10 11 -10 5 0 7 5 4 10 -3 6 -8 10 -11 10 -2 0
-4 -4 -4 -10z"/>
<path d="M3250 2692 c0 -5 7 -17 15 -28 14 -19 14 -19 15 2 0 12 -7 24 -15 28
-8 3 -15 2 -15 -2z"/>
<path d="M3360 2653 c0 -1 15 -10 33 -19 29 -16 31 -16 18 -1 -16 20 -8 22 21
6 15 -8 23 -8 32 2 8 9 8 10 -1 5 -6 -3 -14 -2 -18 4 -5 8 -85 11 -85 3z"/>
<path d="M2840 2620 c20 -13 33 -13 25 0 -3 6 -14 10 -23 10 -15 0 -15 -2 -2
-10z"/>
<path d="M3447 2622 c-14 -3 -16 -7 -6 -18 15 -18 39 -18 39 0 0 18 -10 24
-33 18z"/>
<path d="M2870 2586 c0 -2 7 -7 16 -10 8 -3 12 -2 9 4 -6 10 -25 14 -25 6z"/>
<path d="M3390 2554 c0 -7 11 -16 25 -20 32 -8 33 -28 2 -22 -15 3 -24 0 -24
-9 0 -7 7 -13 16 -13 9 0 30 -9 46 -20 17 -11 39 -20 50 -19 14 0 8 6 -20 21
-53 27 -53 27 -31 44 23 16 18 24 -29 40 -29 9 -35 9 -35 -2z"/>
<path d="M2930 2550 c0 -5 5 -10 11 -10 5 0 7 5 4 10 -3 6 -8 10 -11 10 -2 0
-4 -4 -4 -10z"/>
<path d="M3064 2529 c-3 -5 -1 -9 5 -9 5 0 16 -3 25 -6 9 -3 16 -2 16 4 0 13
-38 23 -46 11z"/>
<path d="M3067 2487 c-7 -19 13 -33 35 -24 9 4 7 6 -4 6 -9 1 -18 9 -20 19 -3
16 -4 16 -11 -1z"/>
<path d="M2978 2433 c7 -3 16 -2 19 1 4 3 -2 6 -13 5 -11 0 -14 -3 -6 -6z"/>
<path d="M3193 2433 c18 -5 24 -23 6 -23 -5 0 -7 -4 -4 -10 3 -5 11 -10 16
-10 6 0 7 5 3 12 -5 8 -2 9 9 5 9 -3 19 -2 22 3 7 11 -27 30 -52 29 -17 -1
-17 -2 0 -6z"/>
<path d="M3200 2360 c0 -6 7 -10 15 -10 8 0 15 2 15 4 0 2 -7 6 -15 10 -8 3
-15 1 -15 -4z"/>
<path d="M3275 2320 c-3 -5 -2 -10 4 -10 5 0 13 5 16 10 3 6 2 10 -4 10 -5 0
-13 -4 -16 -10z"/>
<path d="M3329 2302 c6 -11 7 -22 4 -26 -3 -3 6 -6 20 -6 36 0 34 16 -4 35
-29 16 -30 15 -20 -3z"/>
<path d="M3572 1075 c0 -16 2 -22 5 -12 2 9 2 23 0 30 -3 6 -5 -1 -5 -18z"/>
<path d="M2541 63 c7 -12 15 -20 18 -17 3 2 -3 12 -13 22 -17 16 -18 16 -5 -5z"/>
</g>
</svg>
