<?xml version="1.0" standalone="no"?>
<!DOCTYPE svg PUBLIC "-//W3C//DTD SVG 20010904//EN"
 "http://www.w3.org/TR/2001/REC-SVG-20010904/DTD/svg10.dtd">
<svg version="1.0" xmlns="http://www.w3.org/2000/svg"
 width="308.000000pt" height="171.000000pt" viewBox="0 0 308.000000 171.000000"
 preserveAspectRatio="xMidYMid meet">
<metadata>
Created by potrace 1.16, written by Peter Selinger 2001-2019
</metadata>
<g transform="translate(0.000000,171.000000) scale(0.100000,-0.100000)"
fill="#000000" stroke="none">
<path d="M96 1697 c-10 -8 -16 -19 -12 -25 4 -7 2 -67 -3 -134 -6 -68 -13
-181 -15 -253 -3 -71 -9 -146 -15 -165 -5 -19 -14 -114 -20 -210 -6 -96 -16
-231 -22 -300 -6 -69 -9 -192 -7 -275 l3 -150 115 -8 c63 -4 149 -9 190 -11
41 -2 129 -9 195 -15 135 -13 334 -20 735 -25 309 -4 677 -18 1105 -41 351
-20 397 -24 390 -36 -10 -15 12 -10 25 6 7 8 15 13 19 11 4 -3 13 -1 19 3 18
11 4 39 -21 44 -22 4 -22 4 1 6 20 1 33 31 13 31 -11 0 -11 179 0 186 12 7 11
87 -3 231 -11 112 -10 124 6 141 15 18 17 37 12 188 -3 93 -10 216 -16 273 -5
57 -8 106 -6 110 8 13 -16 243 -28 273 -20 47 -66 58 -246 63 -85 2 -187 8
-227 13 -40 4 -98 5 -130 1 -118 -15 -595 -22 -703 -10 -58 6 -197 16 -310 21
-112 6 -210 16 -216 21 -6 5 -85 11 -175 14 -231 7 -367 14 -569 31 -47 4 -70
1 -84 -9z m344 -93 c366 -8 431 -10 650 -29 162 -13 267 -15 505 -10 208 4
295 3 285 -4 -12 -9 -9 -11 13 -11 15 0 27 6 27 13 0 8 3 9 8 1 12 -18 633
-26 682 -9 35 12 40 12 55 -5 21 -23 12 -60 -14 -60 -43 0 -67 -89 -37 -135
16 -24 16 -27 -4 -52 -15 -19 -17 -28 -9 -34 7 -4 13 -26 13 -50 1 -50 18 -61
35 -23 9 20 9 29 1 34 -9 5 -8 19 1 51 25 89 46 87 50 -6 6 -128 2 -153 -28
-167 -24 -11 -28 -20 -31 -58 -3 -52 26 -95 57 -85 16 5 18 -4 20 -100 l2
-105 -25 0 c-29 0 -46 -25 -46 -67 1 -30 20 -63 39 -63 11 0 17 -100 11 -200
-1 -25 -3 -81 -4 -125 -1 -44 -4 -84 -5 -90 -2 -5 -3 -21 -2 -34 1 -16 5 -21
16 -17 9 3 15 0 15 -9 0 -15 -12 -20 -23 -9 -3 3 -144 8 -314 9 -571 7 -812
15 -1143 40 -65 5 -321 6 -545 2 -172 -3 -453 18 -470 35 -3 3 -1 18 5 33 9
22 8 26 -4 22 -12 -5 -13 4 -9 49 6 59 0 65 -42 38 -30 -20 -33 -44 -5 -37 17
5 19 1 15 -23 -3 -16 -7 -38 -8 -49 -3 -23 -7 -25 -42 -25 -24 0 -25 3 -25 56
0 47 -3 57 -20 61 -24 6 -28 58 -6 66 8 3 17 29 21 66 8 67 1 89 -21 70 -11
-9 -13 0 -10 58 4 82 7 89 15 43 9 -52 26 -42 29 16 2 36 -2 56 -13 67 -21 21
-19 28 15 65 18 21 30 44 30 61 0 35 -26 101 -40 101 -6 0 -10 3 -10 8 0 4 14
7 30 8 34 1 59 27 60 60 0 40 -28 92 -52 96 -13 2 -23 9 -22 16 1 6 2 26 3 42
1 22 6 30 20 30 24 0 31 19 31 81 0 36 -4 49 -14 49 -8 0 -17 -6 -20 -12 -4
-7 -4 3 -1 22 3 19 10 37 16 39 23 7 49 42 49 63 0 12 -8 30 -17 40 -12 13
-16 33 -14 66 3 57 9 68 25 47 10 -14 44 -17 246 -21z m-281 -150 c-14 -18
-24 -11 -15 11 3 9 11 13 16 10 8 -5 7 -11 -1 -21z m2505 -10 c20 -19 21 -58
1 -74 -20 -16 -33 -5 -41 35 -9 52 9 70 40 39z m-2519 -368 c18 -43 10 -66
-22 -66 -21 0 -24 4 -19 23 3 12 6 34 6 50 0 37 18 34 35 -7z m2553 -36 c-4
-40 -18 -48 -36 -19 -11 17 -11 25 3 46 21 32 38 18 33 -27z m-2580 -163 c2
-28 -2 -37 -13 -37 -11 0 -15 11 -15 41 0 52 23 48 28 -4z m2606 -153 c3 -9 6
-29 6 -45 0 -37 -31 -40 -53 -5 -14 21 -14 26 -1 45 18 25 39 27 48 5z m-2640
-441 c-9 -37 -24 -53 -24 -26 0 28 10 53 21 53 5 0 6 -12 3 -27z"/>
<path d="M249 1543 c-37 -40 -44 -64 -19 -70 15 -4 20 -14 20 -39 0 -34 15
-53 30 -38 16 17 22 138 8 157 -13 17 -15 16 -39 -10z"/>
<path d="M730 1557 c0 -8 -9 -24 -20 -37 -11 -13 -21 -30 -22 -39 0 -9 -2 -23
-3 -31 -4 -47 48 -86 80 -60 24 20 29 74 10 114 -10 20 -22 36 -27 36 -5 0 -7
4 -3 9 3 5 1 12 -5 16 -5 3 -10 0 -10 -8z m12 -123 c-9 -16 -11 -15 -20 3 -9
15 -7 25 6 44 l17 24 3 -27 c2 -15 -1 -35 -6 -44z"/>
<path d="M363 1547 c-22 -10 -38 -56 -35 -102 1 -22 36 -55 57 -55 18 0 35 53
35 106 0 50 -20 68 -57 51z m27 -66 c0 -10 -7 -24 -15 -31 -12 -10 -15 -9 -15
8 0 29 11 53 21 46 5 -3 9 -13 9 -23z"/>
<path d="M488 1546 c-23 -24 -48 -56 -48 -61 0 -3 9 -5 20 -5 13 0 19 -7 18
-22 -2 -62 3 -88 17 -88 20 0 23 11 29 102 4 59 1 78 -9 82 -8 3 -20 -1 -27
-8z"/>
<path d="M581 1536 c-6 -6 -16 -33 -23 -59 -15 -56 -5 -80 34 -85 48 -6 89 78
53 108 -8 7 -15 18 -15 25 0 17 -37 26 -49 11z m27 -96 l-12 -25 -4 33 c-2 19
0 41 3 50 6 14 9 13 17 -8 6 -17 5 -32 -4 -50z"/>
<path d="M828 1519 c-30 -22 -37 -49 -13 -49 11 0 15 -12 15 -45 0 -32 4 -45
14 -45 13 0 25 35 24 70 0 8 3 32 7 53 9 44 -4 48 -47 16z"/>
<path d="M933 1518 c-36 -41 -39 -51 -11 -46 25 5 26 3 24 -41 -1 -35 3 -46
14 -46 11 0 17 17 21 65 9 94 -5 114 -48 68z"/>
<path d="M1038 1508 c-17 -17 -20 -29 -14 -71 3 -28 12 -57 20 -65 23 -23 64
-7 82 32 15 31 15 35 -4 73 -25 49 -55 60 -84 31z m56 -44 c10 -26 7 -51 -9
-64 -12 -10 -16 -8 -24 13 -12 30 -4 67 14 67 7 0 16 -7 19 -16z"/>
<path d="M1635 1500 c-13 -15 -19 -40 -22 -91 -3 -63 -2 -70 14 -67 14 2 19
16 24 58 3 30 9 70 13 88 9 37 -2 41 -29 12z"/>
<path d="M1181 1496 c-19 -23 -26 -93 -11 -111 17 -20 43 -19 64 4 12 14 16
32 14 67 -3 44 -6 49 -29 52 -14 2 -31 -4 -38 -12z m44 -36 c3 -5 -1 -20 -9
-32 -14 -19 -16 -19 -22 -5 -12 32 15 64 31 37z"/>
<path d="M1462 1492 c-18 -14 -23 -29 -25 -69 -1 -32 3 -57 11 -65 19 -19 32
6 32 64 0 26 5 50 10 53 12 7 14 35 3 35 -5 0 -18 -8 -31 -18z"/>
<path d="M1524 1479 c-19 -21 -25 -33 -16 -36 7 -3 12 -24 12 -54 0 -36 4 -49
14 -49 10 0 17 16 21 48 4 26 10 61 15 79 13 53 -3 57 -46 12z"/>
<path d="M1302 1488 c-17 -17 -15 -93 4 -112 21 -22 37 -20 63 8 17 18 22 33
19 67 -3 42 -4 44 -38 47 -19 2 -41 -3 -48 -10z m56 -63 c-19 -41 -45 -25 -34
21 6 21 10 23 26 14 17 -9 18 -14 8 -35z"/>
<path d="M1728 1490 c-24 -14 -34 -90 -16 -127 31 -66 78 -27 78 67 0 39 -4
52 -19 60 -23 12 -22 12 -43 0z m42 -75 c0 -29 -9 -55 -20 -55 -13 0 -21 62
-9 76 15 18 29 8 29 -21z"/>
<path d="M2268 1493 c-21 -5 -37 -118 -19 -136 17 -17 31 9 31 60 0 23 5 45
10 48 12 7 14 36 3 34 -5 -1 -15 -3 -25 -6z"/>
<path d="M2337 1473 c-19 -40 -16 -103 6 -117 26 -16 35 5 35 80 0 71 -17 86
-41 37z"/>
<path d="M2531 1486 c-18 -21 -10 -131 9 -131 17 0 28 57 21 113 -3 35 -12 40
-30 18z"/>
<path d="M1858 1479 c-34 -19 -36 -120 -3 -133 24 -9 65 15 72 43 10 38 6 61
-13 82 -19 21 -31 23 -56 8z m33 -72 c-6 -15 -15 -27 -21 -27 -14 0 -12 57 3
63 20 8 28 -8 18 -36z"/>
<path d="M2105 1465 c-30 -29 -32 -65 -7 -88 27 -24 58 -21 81 9 27 35 27 69
-1 88 -31 22 -45 20 -73 -9z m45 -46 c0 -10 -6 -19 -13 -19 -22 0 -27 11 -16
32 12 22 29 15 29 -13z"/>
<path d="M1970 1454 c-26 -68 11 -130 61 -104 20 11 24 42 13 99 -6 26 -11 31
-35 31 -22 0 -32 -6 -39 -26z m53 -66 c-7 -13 -21 -9 -27 8 -3 8 -1 25 6 37
12 22 12 21 18 -8 4 -16 5 -33 3 -37z"/>
<path d="M2436 1452 c-8 -16 -13 -31 -11 -34 2 -2 5 -19 7 -37 2 -32 22 -59
31 -44 3 4 6 37 8 72 4 73 -10 91 -35 43z"/>
<path d="M212 1340 c-15 -14 -22 -33 -22 -58 0 -51 18 -73 59 -74 46 -1 75 33
67 81 -10 66 -61 91 -104 51z m38 -59 c-6 -12 -15 -19 -21 -16 -5 4 -8 9 -6
13 2 4 7 16 11 26 5 14 10 16 17 9 8 -8 7 -17 -1 -32z"/>
<path d="M360 1328 c-25 -42 -25 -59 1 -92 38 -48 79 -28 79 39 0 30 -6 47
-23 63 -30 29 -34 28 -57 -10z m50 -37 c0 -17 -12 -41 -21 -41 -10 0 -12 33
-2 43 9 10 23 9 23 -2z"/>
<path d="M637 1328 c-15 -17 -27 -35 -27 -40 0 -12 14 -10 29 5 10 10 12 4 9
-28 -2 -30 1 -40 14 -43 13 -2 17 7 20 55 6 78 -9 95 -45 51z"/>
<path d="M748 1325 c-6 -14 -15 -25 -20 -25 -4 0 -8 -4 -8 -10 0 -5 7 -10 15
-10 11 0 15 -12 15 -45 0 -32 4 -45 14 -45 20 0 26 23 26 96 0 51 -3 64 -15
64 -9 0 -21 -11 -27 -25z"/>
<path d="M822 1301 c-16 -51 -15 -58 8 -81 30 -30 56 -25 69 12 12 33 5 101
-9 93 -5 -3 -11 -1 -15 5 -15 24 -42 9 -53 -29z m52 0 c10 -16 -6 -71 -20 -71
-15 0 -18 21 -8 58 7 23 19 29 28 13z"/>
<path d="M1102 1315 c-6 -14 -16 -25 -22 -25 -5 0 -10 -5 -10 -11 0 -6 7 -8
16 -5 14 5 15 0 9 -40 -6 -44 -5 -45 17 -42 20 3 24 11 32 59 5 32 6 64 3 73
-9 24 -32 19 -45 -9z"/>
<path d="M501 1317 c-6 -8 -14 -28 -17 -45 -5 -25 -2 -33 20 -47 24 -16 28
-16 50 -2 32 22 42 64 20 88 -20 22 -57 25 -73 6z m49 -37 c0 -11 -7 -23 -15
-27 -21 -7 -25 -2 -18 25 7 28 33 29 33 2z"/>
<path d="M955 1306 c-9 -13 -19 -40 -22 -60 -11 -69 46 -96 89 -42 23 28 22
54 -2 94 -23 38 -44 41 -65 8z m45 -51 c0 -33 -20 -60 -28 -37 -2 7 -8 10 -13
6 -12 -7 -11 1 6 42 17 42 35 36 35 -11z"/>
<path d="M1207 1302 c-20 -21 -23 -82 -5 -100 20 -20 56 -14 74 14 25 37 9 98
-27 102 -15 2 -32 -5 -42 -16z m49 -37 c4 -15 1 -32 -6 -40 -11 -14 -15 -14
-31 1 -17 15 -17 18 -1 40 22 30 30 30 38 -1z"/>
<path d="M2232 1297 c-26 -28 -29 -49 -6 -40 14 5 16 2 10 -20 -7 -29 16 -59
39 -51 18 7 20 24 4 24 -8 0 -10 14 -6 41 6 42 1 69 -12 69 -4 0 -17 -10 -29
-23z"/>
<path d="M1452 1281 c-25 -35 -29 -56 -7 -47 12 4 15 -3 15 -34 0 -28 4 -40
14 -40 8 0 16 6 18 13 8 27 2 130 -7 134 -6 2 -21 -10 -33 -26z"/>
<path d="M1852 1293 c-5 -10 -9 -45 -11 -79 -1 -49 2 -61 14 -61 18 0 24 23
29 121 1 34 -18 46 -32 19z"/>
<path d="M1951 1279 c-40 -53 -4 -121 53 -99 47 18 56 70 18 113 -22 25 -45
21 -71 -14z m60 -56 c-16 -34 -47 -27 -44 11 1 15 7 34 14 42 10 12 14 11 27
-7 11 -16 12 -26 3 -46z"/>
<path d="M2095 1286 c-23 -35 -16 -97 12 -107 33 -12 73 23 73 65 0 60 -56 87
-85 42z m55 -31 c0 -13 -8 -31 -17 -41 -17 -17 -18 -16 -21 15 -2 18 -1 39 2
47 8 21 36 5 36 -21z"/>
<path d="M2357 1292 c-22 -24 -21 -32 4 -32 15 0 19 -5 15 -17 -15 -52 -17
-71 -6 -78 24 -15 39 16 37 78 -2 68 -19 84 -50 49z"/>
<path d="M2476 1301 c-11 -16 5 -39 23 -34 27 7 45 -21 31 -47 -10 -18 -17
-21 -46 -15 -45 8 -48 -20 -4 -30 40 -9 80 16 80 50 0 26 -17 64 -35 77 -14
11 -43 10 -49 -1z"/>
<path d="M1325 1264 c-20 -47 -19 -57 5 -79 17 -15 24 -16 45 -7 37 17 51 53
34 91 -11 24 -20 31 -41 31 -22 0 -31 -7 -43 -36z m55 -24 c0 -19 -17 -36 -27
-26 -3 3 -2 17 1 31 7 28 26 25 26 -5z"/>
<path d="M1567 1274 c-32 -37 -40 -74 -20 -96 36 -40 103 -9 103 48 0 73 -40
97 -83 48z m53 -24 c15 -28 -4 -62 -33 -58 -30 4 -33 32 -6 57 28 26 26 25 39
1z"/>
<path d="M1705 1270 c-21 -40 -19 -86 5 -110 26 -26 45 -25 64 2 21 29 20 43
-5 95 -24 50 -43 54 -64 13z m55 -55 c0 -36 -9 -48 -26 -37 -18 12 -24 43 -14
62 16 29 40 13 40 -25z"/>
<path d="M235 1130 c-40 -41 -43 -60 -5 -40 21 11 22 10 19 -27 -2 -21 1 -44
5 -52 14 -22 28 3 32 60 2 30 5 63 6 73 5 33 -16 28 -57 -14z"/>
<path d="M480 1139 c-24 -33 -22 -46 7 -31 17 9 18 7 15 -29 -2 -21 -1 -47 2
-56 13 -32 27 3 32 76 5 66 4 71 -15 71 -11 0 -29 -14 -41 -31z"/>
<path d="M352 1152 c-7 -5 -10 -16 -6 -25 3 -10 1 -17 -5 -17 -19 0 -12 -59 9
-80 11 -11 23 -20 28 -20 17 1 41 28 47 53 7 28 -10 87 -25 87 -5 0 -14 2 -22
5 -7 3 -19 1 -26 -3z m48 -66 c0 -6 -5 -18 -10 -26 -9 -13 -12 -13 -25 4 -19
25 -2 64 21 45 8 -6 14 -17 14 -23z"/>
<path d="M727 1126 c-31 -40 -33 -46 -12 -46 8 0 15 5 15 10 0 6 3 10 8 10 4
0 5 -22 4 -50 -3 -43 -1 -50 15 -50 15 0 18 9 20 58 1 31 3 66 5 77 5 33 -27
28 -55 -9z"/>
<path d="M583 1123 c-16 -32 -16 -63 -3 -97 8 -21 16 -26 44 -26 60 0 76 65
30 119 -32 38 -55 39 -71 4z m66 -29 c17 -39 5 -66 -27 -62 -21 2 -28 9 -30
29 -3 24 19 59 37 59 4 0 13 -12 20 -26z"/>
<path d="M1083 1123 c-13 -8 -23 -24 -23 -35 0 -16 3 -17 20 -8 18 10 20 8 20
-30 0 -33 3 -41 17 -38 9 2 16 6 15 11 -1 4 -2 32 -2 62 0 59 -8 66 -47 38z"/>
<path d="M1215 1130 c-8 -13 4 -32 15 -25 11 7 19 -30 13 -55 -6 -22 -32 -28
-34 -7 -1 6 -3 19 -4 27 -1 8 -3 21 -4 28 -2 26 -21 0 -21 -29 0 -63 39 -89
73 -51 23 25 22 85 -1 105 -21 20 -28 21 -37 7z"/>
<path d="M2570 1111 c-33 -32 -38 -51 -15 -51 12 0 14 -8 9 -41 -6 -37 -5 -41
12 -37 15 2 20 15 25 53 4 28 9 60 13 72 11 34 -12 37 -44 4z"/>
<path d="M830 1114 c0 -9 -4 -12 -10 -9 -5 3 -12 -6 -16 -21 -6 -22 -2 -31 16
-46 30 -24 50 -20 70 14 18 34 6 58 -33 69 -20 5 -27 4 -27 -7z m35 -40 c0
-10 -8 -20 -17 -22 -18 -3 -26 27 -11 42 12 11 28 0 28 -20z"/>
<path d="M1328 1105 c-22 -29 -22 -35 -2 -35 13 0 15 -7 11 -36 -4 -26 -2 -37
10 -41 17 -7 35 15 26 31 -4 5 -5 32 -4 58 3 55 -12 63 -41 23z"/>
<path d="M952 1107 c-22 -26 -24 -62 -4 -85 48 -55 98 9 56 73 -18 27 -36 32
-52 12z m36 -46 c2 -13 -1 -28 -6 -33 -13 -13 -34 25 -26 47 9 22 28 13 32
-14z"/>
<path d="M2061 1085 c-34 -40 -39 -50 -16 -41 12 4 15 -3 15 -29 0 -29 4 -35
21 -35 18 0 20 4 15 26 -4 14 -2 42 5 61 17 53 -2 61 -40 18z"/>
<path d="M1443 1088 c-27 -30 -38 -81 -21 -95 26 -21 56 -24 72 -8 15 15 17
15 32 1 63 -64 152 13 95 82 -24 27 -41 28 -69 2 -27 -26 -28 -26 -41 10 -12
36 -39 39 -68 8z m52 -50 c-6 -29 -19 -40 -38 -32 -22 8 -22 32 0 56 20 22 44
7 38 -24z m108 0 c6 -8 7 -23 4 -32 -9 -23 -44 -20 -58 6 -10 18 -8 24 7 35
21 15 34 13 47 -9z"/>
<path d="M1678 1085 c-20 -27 -23 -45 -8 -45 6 0 10 -14 10 -30 0 -34 24 -50
43 -30 9 10 9 14 0 17 -8 3 -13 25 -13 59 0 60 -6 65 -32 29z"/>
<path d="M1923 1095 c-8 -21 3 -30 20 -17 19 16 37 -4 37 -39 0 -42 -38 -47
-53 -6 -8 23 -27 22 -27 -1 0 -26 32 -52 64 -52 47 0 61 74 20 114 -20 20 -53
21 -61 1z"/>
<path d="M2281 1084 c-26 -33 -27 -85 -3 -107 40 -36 102 -9 102 44 0 24 -52
89 -70 89 -5 0 -18 -12 -29 -26z m53 -23 c22 -25 17 -65 -8 -69 -27 -5 -44 21
-38 58 5 34 21 38 46 11z"/>
<path d="M2425 1073 l-40 -35 33 4 c31 4 32 4 32 -33 0 -36 13 -59 23 -42 10
17 12 136 2 139 -5 2 -28 -13 -50 -33z"/>
<path d="M2161 1074 c-28 -35 -26 -60 4 -80 21 -14 30 -14 55 -4 32 13 38 36
19 73 -24 44 -49 48 -78 11z m57 -32 c4 -26 -26 -42 -38 -21 -11 16 7 52 23
46 7 -2 13 -13 15 -25z"/>
<path d="M1780 1064 c-21 -55 -9 -74 50 -74 36 0 59 46 38 79 -20 32 -75 29
-88 -5z m60 -10 c11 -12 10 -18 -3 -31 -15 -15 -18 -15 -37 2 -19 17 -19 19
-2 31 22 17 27 17 42 -2z"/>
<path d="M380 945 c-7 -8 -17 -15 -23 -15 -11 0 -36 -30 -37 -43 0 -5 12 -7
28 -5 23 3 27 0 24 -21 -5 -35 6 -71 23 -71 10 0 14 15 15 58 0 31 2 68 3 81
2 29 -15 38 -33 16z"/>
<path d="M515 933 c-31 -34 -33 -57 -5 -48 19 6 20 3 18 -29 -2 -38 13 -63 31
-52 13 9 15 43 2 50 -5 4 -5 20 1 40 11 36 6 66 -11 66 -6 0 -22 -12 -36 -27z"/>
<path d="M637 935 c-27 -26 -35 -45 -18 -45 6 0 13 5 16 10 15 24 21 6 17 -45
-4 -46 -2 -55 12 -55 12 0 16 10 18 38 2 55 3 60 11 68 4 4 7 18 7 31 0 31
-28 30 -63 -2z"/>
<path d="M219 919 c-36 -39 -37 -53 -3 -45 24 6 25 5 19 -22 -4 -19 -1 -33 9
-41 21 -17 28 0 32 76 4 74 -10 82 -57 32z"/>
<path d="M882 938 c-18 -18 -15 -26 11 -30 27 -4 36 -48 12 -68 -19 -16 -25
-10 -34 32 -4 18 -11 33 -16 33 -16 0 -18 -34 -4 -66 10 -26 16 -30 48 -27 49
4 64 43 36 96 -23 40 -35 48 -53 30z"/>
<path d="M1123 928 c-39 -28 -41 -38 -8 -38 23 0 25 -4 25 -40 0 -29 4 -40 15
-40 11 0 15 13 17 55 0 30 1 60 2 67 2 20 -18 19 -51 -4z"/>
<path d="M1377 932 c-10 -10 -17 -22 -17 -27 0 -5 -7 -16 -16 -26 -21 -23 -9
-41 21 -33 24 6 24 5 19 -35 -4 -31 -2 -41 8 -41 16 0 41 37 29 44 -4 3 -4 29
0 58 11 70 -10 98 -44 60z"/>
<path d="M981 908 c-16 -47 -4 -97 25 -104 64 -16 94 23 67 87 -16 38 -29 49
-60 49 -15 0 -24 -9 -32 -32z m69 -24 c14 -37 -4 -68 -30 -54 -29 15 -28 80 0
80 13 0 24 -10 30 -26z"/>
<path d="M1237 922 c-21 -22 -22 -42 -3 -42 9 0 13 -12 12 -37 -1 -27 4 -38
15 -41 12 -2 16 5 16 25 1 15 4 47 8 71 7 38 6 42 -12 42 -11 0 -27 -8 -36
-18z"/>
<path d="M2498 909 c-21 -17 -38 -35 -38 -40 0 -15 32 -10 53 8 18 17 19 17
17 -12 -4 -52 0 -65 15 -65 12 0 15 14 15 70 0 81 -6 85 -62 39z"/>
<path d="M745 920 c-10 -17 5 -32 20 -20 9 8 17 6 29 -5 20 -20 20 -26 1 -51
-16 -21 -20 -18 -51 33 -15 24 -28 10 -20 -21 9 -38 50 -62 81 -48 48 22 23
122 -30 122 -13 0 -27 -4 -30 -10z"/>
<path d="M1859 911 c-13 -11 -20 -23 -16 -27 4 -5 11 -3 15 3 16 25 32 -2 22
-36 -9 -33 -4 -61 11 -61 5 0 12 -1 16 -2 4 -2 9 30 10 70 3 65 2 72 -16 72
-10 0 -29 -9 -42 -19z"/>
<path d="M2367 902 c-40 -41 -35 -72 5 -35 17 15 18 13 18 -50 0 -53 3 -67 15
-67 12 0 15 17 15 90 0 101 -8 110 -53 62z"/>
<path d="M1742 908 c-15 -20 -6 -80 14 -95 40 -29 83 2 70 50 -12 49 -60 74
-84 45z m60 -35 c12 -44 -21 -59 -40 -19 -8 19 -8 26 1 30 23 9 35 6 39 -11z"/>
<path d="M1986 895 c-17 -13 -17 -15 -3 -15 23 0 43 -39 27 -54 -8 -7 -14 -7
-16 -1 -10 24 -23 39 -30 32 -4 -4 -2 -18 4 -31 10 -22 9 -24 -6 -19 -16 5
-16 5 0 -12 22 -23 60 -14 78 19 10 20 11 28 1 40 -7 8 -10 20 -6 27 4 6 1 15
-6 20 -18 11 -20 11 -43 -6z"/>
<path d="M2080 891 c-11 -22 2 -70 23 -83 33 -21 77 6 77 47 0 46 -79 75 -100
36z m63 -24 c3 -8 1 -20 -3 -27 -7 -11 -11 -11 -24 -1 -9 8 -16 20 -16 27 0
18 36 18 43 1z"/>
<path d="M2643 896 c3 -8 0 -17 -7 -19 -7 -3 -13 -19 -14 -35 -1 -37 38 -60
62 -37 20 21 29 52 22 81 -5 19 -13 24 -37 24 -23 0 -30 -4 -26 -14z m37 -33
c0 -5 -4 -15 -10 -23 -11 -18 -25 -7 -17 15 6 15 27 21 27 8z"/>
<path d="M1475 870 c-31 -61 0 -109 53 -80 23 14 27 22 27 60 0 43 -1 45 -32
48 -27 3 -34 -2 -48 -28z m54 -42 c-14 -25 -40 -23 -36 3 4 25 29 43 39 27 3
-7 2 -20 -3 -30z"/>
<path d="M1628 884 c-33 -17 -36 -46 -8 -74 26 -26 77 -27 85 -1 9 30 -21 92
-45 90 -3 0 -17 -7 -32 -15z m48 -39 c8 -31 3 -38 -20 -29 -24 9 -20 54 5 54
5 0 11 -11 15 -25z"/>
<path d="M2200 881 c-26 -49 4 -90 53 -72 37 14 47 49 21 75 -21 22 -61 20
-74 -3z m44 -6 c19 -19 10 -45 -15 -45 -20 0 -26 24 -9 35 6 4 8 11 5 16 -9
14 2 11 19 -6z"/>
<path d="M180 735 c-19 -19 -30 -36 -24 -37 5 0 16 -1 24 -2 8 -1 15 -11 15
-25 0 -32 23 -39 33 -9 10 30 8 101 -4 105 -6 2 -25 -13 -44 -32z"/>
<path d="M470 753 c-14 -9 -27 -18 -29 -19 -2 -2 2 -10 9 -19 7 -8 10 -25 6
-40 -5 -18 -2 -27 9 -31 22 -9 27 -1 36 58 10 62 2 74 -31 51z"/>
<path d="M295 729 c-31 -58 6 -120 59 -99 18 6 27 19 32 46 6 33 4 40 -22 61
-38 30 -50 29 -69 -8z m61 -23 c6 -16 -12 -56 -25 -56 -13 0 -22 30 -16 51 7
22 33 25 41 5z"/>
<path d="M734 742 c-35 -23 -44 -90 -16 -115 26 -24 47 -21 71 9 22 28 18 51
-11 72 -10 7 -18 20 -18 28 0 15 -9 18 -26 6z m34 -68 c4 -25 -22 -38 -37 -20
-15 18 -3 48 18 44 9 -2 17 -13 19 -24z"/>
<path d="M1007 722 c-32 -34 -34 -42 -6 -35 18 5 20 2 17 -33 -2 -29 1 -39 12
-39 10 0 17 16 23 55 12 85 -1 100 -46 52z"/>
<path d="M566 725 c-22 -16 -22 -16 14 -20 14 -1 28 2 32 9 5 7 8 6 8 -4 -1
-22 -25 -50 -44 -50 -9 0 -16 8 -16 20 0 11 -5 20 -11 20 -6 0 -9 -14 -7 -32
3 -30 6 -33 37 -33 43 0 77 40 67 79 -5 20 -13 26 -34 26 -15 0 -36 -7 -46
-15z"/>
<path d="M850 720 c-41 -41 -14 -110 42 -110 29 0 58 28 58 56 -1 24 -44 74
-65 74 -8 0 -24 -9 -35 -20z m61 -31 c9 -17 8 -25 -4 -37 -21 -20 -47 -8 -47
21 0 42 31 52 51 16z"/>
<path d="M1458 724 c-30 -16 -36 -30 -16 -36 8 -3 12 -19 10 -41 -3 -27 1 -39
13 -43 20 -8 37 14 26 34 -5 8 -6 34 -3 58 2 24 3 44 1 44 -2 -1 -16 -8 -31
-16z"/>
<path d="M2437 698 c-39 -40 -44 -67 -7 -33 20 18 20 18 20 -24 0 -60 21 -48
36 20 7 30 13 60 14 67 0 22 -25 11 -63 -30z"/>
<path d="M2553 703 c-18 -20 -33 -38 -33 -40 0 -9 29 -1 40 12 23 27 33 17 28
-30 -5 -38 -3 -45 12 -45 22 0 30 32 22 90 -9 57 -27 60 -69 13z"/>
<path d="M1126 704 c-22 -32 -18 -52 15 -77 24 -17 30 -18 55 -6 38 18 41 47
9 82 -32 34 -58 34 -79 1z m55 -14 c36 -20 13 -58 -26 -44 -15 6 -20 35 -8 47
8 9 11 9 34 -3z"/>
<path d="M1292 714 c-43 -30 -16 -98 37 -92 24 3 26 7 29 56 3 49 2 52 -20 52
-13 0 -34 -7 -46 -16z m44 -50 c-3 -8 -10 -14 -16 -14 -17 0 -23 29 -9 46 11
14 13 14 22 -1 5 -9 6 -23 3 -31z"/>
<path d="M1854 715 c-18 -14 -18 -14 -1 -15 15 0 17 -5 12 -30 -7 -33 7 -60
32 -60 11 0 13 6 8 23 -4 12 -7 29 -7 37 0 8 3 25 7 38 6 18 3 22 -12 22 -11
0 -28 -7 -39 -15z"/>
<path d="M2112 714 c-25 -17 -31 -71 -10 -92 20 -20 67 -14 93 13 33 33 31 49
-9 74 -40 25 -45 25 -74 5z m68 -34 c0 -23 -26 -44 -45 -36 -14 5 -21 37 -11
47 2 2 16 5 30 5 19 1 26 -3 26 -16z"/>
<path d="M1577 704 c3 -8 -1 -14 -10 -14 -9 0 -19 -10 -23 -22 -14 -45 73 -78
99 -37 5 9 7 31 3 50 -6 32 -10 35 -40 36 -26 1 -33 -3 -29 -13z m47 -30 c8
-21 -1 -34 -24 -34 -25 0 -35 17 -20 35 16 20 36 19 44 -1z"/>
<path d="M1940 706 c-5 -5 -10 -22 -10 -38 0 -38 51 -66 87 -47 31 17 40 54
19 78 -19 20 -78 25 -96 7z m80 -30 c0 -21 -17 -29 -46 -22 -21 6 -24 9 -14
21 16 19 60 20 60 1z"/>
<path d="M2250 701 c-5 -11 -10 -35 -10 -54 0 -29 5 -37 30 -47 25 -10 34 -9
62 7 50 29 49 62 -3 91 -23 13 -38 19 -35 13 4 -6 2 -11 -3 -11 -6 0 -11 5
-11 10 0 17 -19 11 -30 -9z m83 -30 c11 -11 2 -28 -23 -41 -23 -12 -50 11 -50
42 0 18 4 20 32 14 18 -3 36 -10 41 -15z"/>
<path d="M1690 699 c0 -6 8 -8 19 -4 18 6 51 -17 51 -35 0 -5 -9 -14 -21 -20
-23 -13 -49 2 -49 26 0 8 -4 14 -10 14 -14 0 -13 -43 2 -58 16 -16 69 -15 91
2 22 17 22 49 -1 69 -21 19 -82 23 -82 6z"/>
<path d="M450 573 c-28 -12 -41 -33 -43 -72 -1 -43 16 -71 44 -71 25 0 45 35
52 92 5 36 3 47 -9 52 -18 7 -23 7 -44 -1z m25 -71 c-3 -8 -5 -18 -5 -23 0
-16 -29 -10 -38 9 -10 19 -5 43 12 54 14 10 38 -22 31 -40z"/>
<path d="M1857 566 c-20 -16 -39 -70 -30 -92 3 -8 17 -17 31 -21 20 -5 30 0
49 23 29 37 29 68 1 88 -27 19 -28 19 -51 2z m33 -43 c0 -26 -16 -47 -29 -39
-15 10 -14 43 2 49 22 9 27 7 27 -10z"/>
<path d="M179 553 c-8 -10 -22 -32 -32 -50 -17 -31 -17 -32 6 -59 18 -21 29
-26 49 -21 45 12 65 98 30 130 -24 22 -35 21 -53 0z m45 -38 c8 -21 -10 -65
-27 -65 -18 0 -37 21 -37 40 0 35 52 55 64 25z"/>
<path d="M560 551 c-25 -48 -3 -121 36 -121 39 0 67 77 45 119 -15 28 -66 29
-81 2z m55 -31 c7 -24 -2 -60 -16 -60 -5 0 -14 11 -21 25 -8 19 -8 28 2 40 17
20 27 19 35 -5z"/>
<path d="M1717 542 c-33 -34 -36 -57 -7 -49 19 5 21 2 15 -38 -8 -50 7 -67 28
-33 16 27 17 140 2 145 -6 2 -23 -9 -38 -25z"/>
<path d="M305 536 c-19 -29 -14 -59 9 -50 12 4 13 -1 6 -33 -5 -22 -5 -42 0
-47 5 -5 0 -16 -11 -25 -12 -9 -23 -33 -26 -57 -4 -35 -2 -44 18 -58 48 -33
79 -8 79 64 0 39 -4 49 -20 53 -19 5 -19 7 -5 40 8 19 11 37 7 41 -3 4 -6 26
-7 49 0 51 -25 62 -50 23z m43 -214 c3 -26 0 -32 -17 -32 -26 0 -34 15 -27 46
10 37 40 28 44 -14z"/>
<path d="M701 531 c-27 -38 -27 -55 0 -48 17 5 20 2 16 -15 -7 -27 9 -68 27
-68 19 0 26 21 14 43 -5 10 -6 37 -3 59 5 29 3 43 -6 49 -21 13 -26 11 -48
-20z"/>
<path d="M1186 535 c-20 -31 -14 -64 8 -46 11 9 13 4 9 -32 -4 -28 -1 -47 7
-52 14 -8 41 25 32 40 -4 5 -7 32 -7 60 0 59 -22 72 -49 30z"/>
<path d="M2231 534 c-25 -31 -28 -59 -6 -50 12 4 15 -4 15 -39 0 -47 14 -67
27 -38 7 15 9 92 4 141 -2 20 -18 14 -40 -14z"/>
<path d="M2357 535 c-32 -30 -36 -74 -9 -98 54 -49 95 19 57 93 -9 17 -17 30
-18 30 -1 0 -15 -11 -30 -25z m43 -61 c0 -24 -30 -28 -45 -8 -21 27 -19 31 15
26 17 -2 30 -10 30 -18z"/>
<path d="M2591 527 c-30 -49 -25 -77 8 -44 10 10 11 6 5 -17 -4 -19 -2 -31 7
-37 16 -10 42 9 32 24 -3 5 -7 30 -7 55 -1 56 -17 63 -45 19z"/>
<path d="M842 542 c-18 -12 -26 -72 -13 -105 9 -23 16 -28 39 -25 22 2 29 10
37 41 14 60 -24 114 -63 89z m36 -56 c2 -9 1 -25 -3 -34 -5 -14 -7 -14 -15 -2
-14 22 -12 62 3 58 6 -3 14 -12 15 -22z"/>
<path d="M950 524 c-15 -39 -12 -79 8 -97 53 -48 94 21 57 93 -20 38 -52 40
-65 4z m48 -59 c-5 -35 -23 -21 -26 20 -2 38 -1 39 13 20 9 -11 14 -29 13 -40z"/>
<path d="M1337 543 c-23 -6 -50 -59 -42 -83 8 -24 50 -37 69 -21 15 13 28 75
19 97 -5 14 -13 15 -46 7z m33 -41 c0 -5 -6 -16 -13 -27 -16 -21 -37 -12 -37
16 0 14 7 19 25 19 14 0 25 -4 25 -8z"/>
<path d="M1455 542 c-29 -21 -44 -83 -27 -108 17 -26 48 -34 70 -18 19 13 21
23 18 66 -4 58 -30 83 -61 60z m28 -56 c14 -30 14 -36 1 -46 -28 -24 -55 20
-38 64 9 24 19 19 37 -18z"/>
<path d="M1573 543 c-31 -4 -33 -7 -33 -42 0 -64 74 -110 100 -62 16 30 12 76
-8 94 -10 10 -20 16 -23 15 -2 0 -19 -3 -36 -5z m44 -46 c21 -47 -15 -65 -43
-22 -9 14 -14 31 -11 39 8 20 42 9 54 -17z"/>
<path d="M1976 528 c-21 -30 -20 -61 3 -89 18 -22 19 -22 45 -6 36 24 37 78 1
101 -31 20 -31 20 -49 -6z m43 -64 c-12 -14 -14 -14 -26 2 -17 24 -16 32 5 36
23 5 37 -19 21 -38z"/>
<path d="M2095 538 c-3 -7 -3 -31 -2 -53 2 -34 7 -41 31 -50 24 -8 31 -6 47
14 24 29 24 63 1 84 -22 20 -71 22 -77 5z m63 -47 c4 -28 -17 -45 -35 -29 -14
11 -17 40 -6 52 14 14 38 0 41 -23z"/>
<path d="M2487 522 c-30 -31 -36 -58 -11 -48 26 10 34 -2 22 -34 -12 -36 -3
-69 14 -52 13 13 23 162 10 162 -4 0 -20 -13 -35 -28z"/>
<path d="M1060 510 c-9 -22 -10 -40 -4 -58 8 -22 16 -27 44 -27 32 0 36 3 44
38 12 48 0 71 -41 75 -26 3 -32 -2 -43 -28z m55 -30 c0 -36 -29 -33 -33 3 -3
23 0 28 15 25 12 -2 18 -12 18 -28z"/>
<path d="M432 368 c-48 -52 -36 -118 21 -118 42 0 56 11 59 41 3 32 -29 99
-46 99 -7 0 -22 -10 -34 -22z m51 -75 c-7 -19 -40 -16 -52 4 -7 13 -4 23 12
38 l22 21 11 -25 c7 -14 10 -31 7 -38z"/>
<path d="M557 362 c-32 -34 -34 -42 -6 -42 16 0 19 -4 14 -22 -14 -48 -14 -53
-6 -67 17 -26 42 -4 40 36 0 21 2 57 6 81 9 51 -7 56 -48 14z"/>
<path d="M2003 341 c-28 -36 -29 -44 -4 -36 17 5 19 2 14 -36 -5 -36 -4 -41
12 -38 14 3 19 15 22 49 2 25 4 54 6 65 3 30 -25 28 -50 -4z"/>
<path d="M2381 341 c-33 -27 -31 -48 4 -35 15 6 16 2 10 -34 -5 -34 -4 -43 10
-48 20 -8 56 23 39 34 -7 4 -12 27 -12 51 -1 24 -4 47 -9 52 -4 4 -23 -5 -42
-20z"/>
<path d="M666 338 c-50 -80 -16 -145 59 -114 19 8 35 21 35 27 0 7 9 3 21 -10
23 -24 54 -21 77 7 16 21 15 42 -3 66 -10 14 -12 22 -4 27 6 3 -1 9 -15 11
-20 4 -32 -1 -46 -20 -11 -13 -20 -32 -20 -41 -1 -9 -7 -4 -17 14 -31 57 -64
69 -87 33z m69 -37 c7 -18 -21 -61 -41 -61 -24 0 -34 41 -18 72 13 24 17 26
34 16 11 -7 22 -19 25 -27z m105 -23 c0 -22 -35 -24 -44 -2 -3 8 -1 25 5 37
11 20 12 20 25 2 8 -10 14 -27 14 -37z"/>
<path d="M1042 330 c-36 -49 -22 -100 28 -100 17 0 60 47 60 65 0 17 -43 65
-58 65 -4 0 -18 -13 -30 -30z m58 -29 c0 -10 -11 -23 -25 -29 -23 -11 -25 -10
-25 13 0 23 27 48 42 39 5 -3 8 -13 8 -23z"/>
<path d="M1195 348 c-43 -25 -47 -43 -22 -95 12 -27 67 -32 86 -9 22 26 -8
117 -37 116 -4 0 -16 -6 -27 -12z m39 -40 c10 -40 7 -50 -16 -46 -23 3 -34 28
-24 54 8 22 33 17 40 -8z"/>
<path d="M1460 335 c-21 -22 -22 -28 -10 -35 8 -5 15 -20 15 -32 0 -16 6 -23
19 -23 16 0 20 8 22 40 1 22 4 46 6 54 6 26 -27 23 -52 -4z"/>
<path d="M1592 348 c-19 -19 -14 -28 12 -28 31 0 45 -35 23 -58 -13 -13 -19
-13 -31 -2 -9 7 -16 19 -16 26 0 8 -7 14 -15 14 -21 0 -19 -34 4 -54 12 -11
31 -16 53 -14 30 3 33 6 36 39 6 69 -31 112 -66 77z"/>
<path d="M1707 349 c-12 -7 -15 -17 -11 -36 5 -18 3 -24 -5 -19 -7 5 -11 -2
-11 -18 0 -28 43 -57 70 -48 44 13 53 76 17 110 -26 24 -34 26 -60 11z m53
-53 c0 -27 -24 -51 -40 -41 -5 3 -10 20 -10 37 0 23 4 29 15 24 8 -3 15 -1 15
5 0 6 5 7 10 4 6 -3 10 -17 10 -29z"/>
<path d="M1846 347 c-22 -16 -26 -78 -7 -101 8 -9 22 -16 33 -16 63 0 82 71
29 109 -34 25 -32 24 -55 8z m46 -42 c8 -17 8 -29 1 -36 -15 -15 -43 1 -43 25
0 43 25 49 42 11z"/>
<path d="M2268 349 c-30 -17 -39 -44 -27 -78 13 -36 48 -49 86 -32 22 10 25
16 20 48 -6 37 -32 73 -51 73 -6 0 -19 -5 -28 -11z m47 -59 c0 -29 -32 -41
-41 -16 -9 24 4 48 23 44 12 -2 18 -12 18 -28z"/>
<path d="M2507 353 c-3 -5 -1 -17 4 -28 4 -11 8 -16 8 -12 1 4 10 -1 22 -12
28 -25 22 -56 -11 -56 -21 0 -26 5 -28 33 -2 20 -9 32 -18 32 -9 0 -14 -11
-14 -32 0 -39 7 -51 37 -67 29 -15 69 3 77 35 10 38 -61 135 -77 107z"/>
<path d="M2616 341 c-20 -22 -20 -31 0 -31 10 0 14 -6 10 -15 -3 -8 -8 -37
-12 -65 -6 -46 -5 -50 15 -50 17 0 21 6 21 33 0 17 3 55 6 83 7 57 -11 77 -40
45z"/>
<path d="M916 329 c-28 -22 -26 -44 3 -34 14 4 16 0 13 -30 -4 -30 -1 -35 17
-35 15 0 21 6 21 23 0 12 3 39 6 60 6 32 4 37 -13 37 -11 0 -32 -9 -47 -21z"/>
<path d="M2114 325 c-25 -38 -7 -79 36 -83 51 -5 70 48 30 88 -27 27 -46 25
-66 -5z m54 -33 c2 -14 -2 -22 -11 -22 -15 0 -29 34 -19 45 11 11 27 -2 30
-23z"/>
<path d="M1312 328 c-7 -7 -12 -27 -12 -45 0 -26 6 -36 29 -47 25 -13 31 -13
50 0 23 16 28 53 11 85 -12 22 -59 26 -78 7z m58 -49 c0 -25 -33 -22 -38 4 -2
12 3 17 17 17 15 0 21 -6 21 -21z"/>
</g>
</svg>
