<?xml version="1.0" standalone="no"?>
<!DOCTYPE svg PUBLIC "-//W3C//DTD SVG 20010904//EN"
 "http://www.w3.org/TR/2001/REC-SVG-20010904/DTD/svg10.dtd">
<svg version="1.0" xmlns="http://www.w3.org/2000/svg"
 width="327.000000pt" height="276.000000pt" viewBox="0 0 327.000000 276.000000"
 preserveAspectRatio="xMidYMid meet">
<metadata>
Created by potrace 1.16, written by Peter Selinger 2001-2019
</metadata>
<g transform="translate(0.000000,276.000000) scale(0.100000,-0.100000)"
fill="#000000" stroke="none">
<path d="M3197 2578 c-10 -280 -12 -1681 -3 -1700 5 -12 2 -18 -13 -23 -15 -4
-21 -15 -21 -35 0 -16 5 -32 10 -35 6 -4 10 -147 10 -396 0 -214 4 -389 9
-389 11 0 22 342 21 640 0 129 4 627 9 1105 13 1114 14 1015 -3 1015 -11 0
-15 -38 -19 -182z"/>
<path d="M2753 2730 c6 -24 -18 -51 -38 -44 -8 4 -15 10 -15 14 0 5 -134 8
-297 6 -298 -3 -573 -25 -600 -48 -9 -7 -23 -7 -44 1 -32 11 -54 7 -44 -10 4
-5 -1 -9 -10 -9 -9 0 -14 4 -11 9 7 11 -57 19 -112 13 -35 -4 -40 -7 -26 -16
23 -18 0 -33 -59 -39 -41 -4 -48 -3 -45 11 2 10 13 17 26 16 12 0 22 5 22 11
0 12 -48 12 -180 0 -30 -2 -74 -4 -97 -4 -25 0 -43 -5 -43 -11 0 -6 -6 -10
-12 -8 -7 1 -24 -4 -36 -11 -13 -7 -26 -10 -29 -7 -3 3 2 8 11 12 39 15 9 24
-80 24 -53 0 -93 -4 -90 -9 3 -5 -3 -11 -14 -14 -35 -9 -21 -27 23 -28 29 -1
19 -4 -33 -10 -85 -8 -235 -3 -358 13 -45 5 -90 7 -100 3 -9 -4 -66 -9 -127
-11 -60 -2 -130 -6 -155 -9 -27 -3 -40 -1 -32 4 11 6 9 10 -7 14 -24 6 -24 6
-11 -27 5 -14 16 -26 25 -26 19 0 19 -10 1 -45 -8 -15 -17 -22 -21 -16 -12 21
-25 11 -25 -19 0 -19 5 -30 14 -30 10 0 14 -9 13 -27 -2 -27 -1 -28 44 -25 34
3 51 -1 63 -14 16 -15 25 -16 81 -6 72 14 125 15 125 4 0 -14 -216 -45 -265
-38 -29 5 -45 4 -45 -3 0 -10 29 -16 53 -12 4 1 28 -9 53 -20 34 -16 48 -19
57 -10 8 8 6 11 -9 12 -18 0 -18 1 1 8 11 5 25 7 30 5 6 -2 28 -5 50 -8 22 -2
45 -5 50 -6 6 -1 12 -1 15 0 37 15 421 30 437 18 7 -6 31 -11 53 -11 34 -2 40
-5 38 -22 -2 -15 -12 -21 -40 -23 -40 -3 -47 -12 -24 -31 11 -9 20 -9 34 -2
16 8 21 7 26 -5 12 -30 6 -44 -25 -60 -46 -23 -23 -39 28 -19 34 14 41 21 49
58 9 42 23 54 32 28 3 -9 0 -11 -8 -6 -18 11 -4 -76 21 -134 23 -53 24 -68 3
-47 -23 24 -27 19 -8 -9 9 -14 20 -25 25 -25 5 0 9 -6 9 -13 0 -7 16 -19 35
-26 63 -22 70 -39 126 -302 6 -25 11 -79 11 -120 l1 -74 11 50 c9 38 14 46 21
35 8 -12 11 -9 16 15 l7 30 1 -35 2 -35 14 33 c8 17 19 32 25 32 7 0 9 8 5 20
-3 11 -8 40 -10 66 -2 25 -7 49 -10 52 -9 9 -25 -19 -24 -43 0 -11 3 -14 6 -7
10 24 19 11 15 -21 -9 -80 -51 -13 -53 83 0 25 -4 68 -8 95 -6 34 -5 53 3 58
7 6 5 7 -6 3 -12 -3 -22 6 -37 38 -12 23 -21 47 -21 52 0 6 20 9 45 8 l46 -3
-7 37 c-4 20 -15 48 -26 61 -10 14 -14 27 -9 30 9 6 0 75 -15 120 -10 30 -14
1 -5 -38 5 -24 5 -41 0 -41 -16 0 -10 -44 12 -84 35 -66 2 -92 -45 -35 -14 17
-26 37 -26 44 0 7 -11 26 -24 42 -26 31 -35 61 -23 81 14 21 27 13 27 -16 0
-16 3 -32 8 -36 4 -4 13 -22 19 -39 12 -30 12 -28 7 23 -4 30 -8 59 -11 63 -3
5 -6 30 -8 57 -2 43 1 52 21 65 31 20 32 53 2 57 -20 3 -26 14 -42 81 -23 98
-19 108 36 103 24 -2 52 0 63 4 16 6 22 1 32 -24 l11 -31 1 33 1 32 58 0 59 0
-2 -45 c-1 -50 -15 -75 -15 -27 0 17 -4 33 -10 37 -5 3 -8 -23 -7 -67 2 -76
17 -105 28 -53 5 24 6 23 4 -9 -2 -21 0 -35 5 -30 5 5 10 50 12 99 2 50 8 93
13 97 16 12 105 9 105 -3 0 -6 7 -36 17 -67 19 -68 29 -54 14 19 -6 29 -10 53
-9 54 2 1 13 6 25 9 19 6 22 3 26 -26 l4 -33 1 33 c2 32 3 32 52 32 35 0 50
-4 50 -13 0 -19 -34 -57 -51 -57 -8 0 5 -9 29 -20 23 -10 42 -22 42 -25 0 -3
-7 -19 -15 -34 -13 -27 -12 -33 10 -77 27 -53 30 -64 17 -64 -8 0 -23 31 -54
109 -9 24 -9 24 -23 4 -10 -14 -12 -28 -5 -49 8 -29 8 -28 9 9 1 21 5 36 10
32 6 -3 9 -13 9 -23 -3 -35 23 -89 49 -103 21 -11 27 -11 30 -1 7 18 23 15 23
-6 0 -9 -8 -22 -19 -29 -11 -7 -21 -29 -25 -58 -6 -40 -14 -51 -56 -83 -46
-34 -63 -62 -40 -62 6 0 10 4 10 8 0 4 16 14 34 20 20 7 38 22 42 34 4 15 8
17 14 8 10 -17 29 -4 41 27 6 16 6 30 0 37 -6 7 -6 17 -1 26 6 8 10 44 10 78
l0 64 36 -21 36 -22 -26 31 c-15 18 -26 44 -26 61 0 27 3 29 39 29 22 0 43 -4
46 -10 3 -5 -1 -10 -9 -10 -9 0 -16 -4 -16 -9 0 -5 -3 -17 -7 -26 -5 -15 -3
-16 15 -6 31 17 112 14 112 -3 0 -10 8 -13 23 -11 12 2 57 6 99 9 l77 5 4 -37
4 -37 1 38 c2 38 17 50 25 20 4 -17 5 -17 6 0 1 12 10 17 31 17 24 0 31 -5 36
-27 10 -48 12 -49 13 -5 1 38 3 42 26 42 16 0 25 -6 25 -15 0 -8 5 -15 11 -15
6 0 8 7 5 15 -7 19 1 22 84 30 60 6 63 5 45 -9 -18 -14 -19 -15 -2 -16 25 0
108 19 129 31 10 5 31 9 48 9 25 0 30 -4 30 -25 0 -13 -7 -28 -17 -33 -19 -11
-30 -96 -14 -107 7 -4 11 8 11 34 0 23 4 41 10 41 6 0 9 -26 7 -62 -1 -35 2
-117 6 -183 5 -66 6 -118 4 -115 -3 3 -10 54 -17 115 -11 109 -15 124 -26 112
-8 -7 -33 -201 -34 -256 0 -49 11 -50 15 -1 5 64 17 141 21 137 4 -4 33 -199
34 -225 0 -7 5 -10 10 -7 6 4 10 -6 9 -22 0 -25 -1 -26 -10 -8 -7 15 -8 10 -5
-20 2 -22 5 -47 7 -55 1 -8 1 -41 1 -73 -2 -55 -3 -57 -22 -47 -25 13 -85 9
-84 -5 1 -5 -12 -18 -28 -28 -37 -22 -64 -8 -47 24 7 14 6 27 -3 46 -17 35
-33 39 -54 14 -10 -11 -21 -18 -25 -16 -7 5 -21 -36 -23 -65 -1 -8 -9 -16 -19
-18 -15 -3 -18 0 -12 18 5 16 -1 32 -22 58 -16 21 -32 45 -36 55 -7 20 -23 22
-33 5 -6 -9 -10 -5 -15 12 l-7 25 -1 -27 c-1 -32 -17 -46 -24 -21 -4 15 -6 15
-12 -4 -8 -25 -25 -31 -25 -10 0 9 -3 8 -9 -2 -7 -10 -12 -8 -24 10 -16 22
-17 22 -36 5 -11 -10 -28 -38 -38 -62 -10 -24 -21 -44 -25 -44 -3 0 -11 12
-16 28 -6 15 -11 22 -11 15 -1 -6 -10 -9 -21 -6 -16 4 -23 -1 -33 -26 -14 -37
-44 -42 -53 -7 -4 16 -12 23 -27 22 -19 -1 -22 4 -19 29 l3 30 -17 -32 c-19
-39 -55 -46 -47 -10 5 21 4 21 -21 -5 -14 -15 -26 -33 -27 -40 -1 -22 -33 -70
-57 -86 -21 -14 -22 -13 -22 11 0 14 -4 29 -10 32 -6 4 -10 -5 -10 -20 0 -15
-4 -24 -10 -20 -5 3 -10 2 -10 -4 0 -5 -7 -16 -14 -24 -8 -8 -17 -27 -19 -43
-2 -18 -11 -30 -22 -32 -12 -3 -15 0 -10 9 6 9 3 10 -10 6 -9 -4 -24 -2 -31 4
-11 9 -14 6 -14 -15 0 -15 -10 -35 -25 -48 -31 -27 -31 -41 -3 -68 19 -18 22
-29 20 -105 -1 -64 -7 -92 -22 -117 -25 -42 -25 -74 0 -95 11 -10 16 -21 11
-27 -12 -16 -22 -119 -14 -156 4 -24 14 -36 35 -44 23 -9 28 -16 28 -46 0 -26
-3 -31 -10 -20 -8 12 -10 11 -10 -7 0 -12 -4 -25 -10 -28 -9 -6 -11 2 -14 64
-1 13 -6 26 -11 28 -6 2 -10 -9 -9 -24 1 -16 2 -76 3 -135 0 -65 5 -108 11
-108 6 0 10 21 10 46 0 38 3 45 16 40 9 -3 25 -6 37 -6 13 0 17 -3 11 -8 -16
-10 -24 -64 -13 -84 12 -23 0 -23 -17 -1 -12 17 -13 17 -20 -1 -5 -14 -1 -24
14 -37 22 -17 30 -59 12 -59 -5 0 -10 11 -10 25 0 14 -4 25 -10 25 -5 0 -10
-5 -10 -11 0 -5 -4 -8 -9 -4 -5 3 -8 17 -5 30 2 14 0 25 -6 25 -6 0 -10 -32
-10 -80 0 -44 4 -80 9 -80 4 0 8 -18 8 -40 l0 -40 -51 -1 -51 -1 55 -13 c42
-10 48 -13 25 -14 -16 -1 -48 -4 -70 -8 -35 -6 -39 -5 -27 9 10 13 10 17 -4
22 -12 4 -27 -4 -47 -24 -17 -17 -40 -30 -56 -31 -14 0 -34 -3 -43 -7 -17 -7
153 -8 277 -2 56 3 58 3 20 9 -35 6 -37 8 -17 15 12 4 19 12 16 18 -4 6 0 14
7 19 11 7 10 9 -5 9 -15 0 -17 5 -13 30 15 74 75 110 69 41 -2 -33 -2 -33 30
-27 18 3 38 13 44 21 9 12 13 12 28 -3 14 -13 20 -14 23 -4 3 6 12 12 21 12
10 0 24 5 32 10 13 9 11 13 -10 30 -24 19 -24 20 -3 20 12 0 23 -6 26 -12 3
-10 7 -10 20 1 15 11 18 10 27 -15 13 -33 5 -43 -38 -46 -18 -1 -32 -8 -32
-15 0 -17 16 -16 84 1 31 8 66 12 82 7 23 -6 25 -8 10 -20 -13 -11 -19 -11
-33 0 -15 12 -16 12 -10 -4 7 -20 20 -18 -175 -17 -86 1 -138 -3 -138 -9 0
-15 60 -29 98 -23 17 2 49 1 69 -3 32 -6 35 -9 18 -15 -18 -8 -18 -9 -2 -9 10
-1 27 4 38 9 15 8 19 8 17 -2 -2 -7 4 -13 12 -14 8 0 23 -4 32 -8 10 -5 31 -3
48 2 22 8 29 8 27 -1 -2 -14 166 -10 171 4 2 5 13 9 25 8 21 0 21 -1 2 -8 -17
-7 -16 -9 10 -14 47 -8 298 1 329 13 33 12 46 6 46 -21 0 -27 17 -24 37 8 46
72 77 82 105 36 15 -25 17 -26 18 -7 0 11 5 25 11 31 14 14 17 95 6 143 -8 33
-8 34 6 15 15 -19 15 -18 22 16 4 20 7 84 8 142 1 59 5 107 10 107 4 0 7 5 7
11 0 7 -10 9 -25 5 -25 -6 -26 -5 -21 34 2 23 10 47 16 55 8 9 9 29 5 55 -5
29 -3 47 8 63 9 14 15 50 16 96 1 82 -4 98 -25 80 -12 -9 -14 -6 -14 22 1 28
2 31 11 16 9 -16 11 -16 26 -1 12 11 13 18 5 23 -15 9 -18 37 -8 93 4 26 5 51
1 57 -3 6 -7 70 -8 143 -1 95 -5 132 -14 135 -10 4 -12 -10 -10 -51 1 -31 -1
-56 -4 -56 -18 0 -33 38 -33 86 -1 44 -4 53 -17 49 -15 -5 -29 14 -43 58 -9
28 10 20 60 -28 25 -25 50 -45 55 -45 13 0 16 34 4 65 -6 17 -9 62 -8 100 5
114 4 139 -10 150 -14 11 -11 45 5 45 6 0 7 15 3 40 -4 25 -3 46 4 54 7 8 11
18 10 22 -6 35 3 154 11 149 6 -4 10 10 10 34 0 46 -16 55 -23 14 -3 -16 -3
-3 -1 27 3 30 5 69 6 87 1 18 6 29 11 26 7 -4 7 26 1 83 -5 49 -9 134 -9 188
0 70 -4 101 -12 103 -7 3 -13 0 -13 -7 0 -6 -9 -2 -20 8 -13 12 -18 25 -14 35
4 12 1 17 -11 17 -12 0 -16 -6 -12 -20z m-288 -40 c4 -6 -6 -10 -22 -10 -22 0
-25 2 -13 10 19 12 27 12 35 0z m128 -7 c-7 -2 -21 -2 -30 0 -10 3 -4 5 12 5
17 0 24 -2 18 -5z m-593 -18 c-30 -17 -40 -18 -40 -6 0 10 22 18 50 19 8 1 4
-5 -10 -13z m193 8 c-7 -2 -19 -2 -25 0 -7 3 -2 5 12 5 14 0 19 -2 13 -5z
m-538 -33 c-3 -5 -11 -10 -16 -10 -6 0 -7 5 -4 10 3 6 11 10 16 10 6 0 7 -4 4
-10z m1100 -26 c0 -21 -5 -30 -20 -32 -32 -6 -42 -22 -13 -22 20 0 27 -6 31
-26 2 -15 1 -38 -2 -53 -7 -24 -13 -27 -77 -33 -105 -12 -284 -16 -284 -8 0 5
59 11 130 15 86 5 133 12 138 20 4 7 24 16 45 21 22 5 37 14 35 19 -3 10 -41
10 -443 -2 -344 -10 -414 -9 -419 4 -9 22 113 34 138 14 13 -11 32 -12 89 -5
42 5 70 13 67 19 -3 6 -17 10 -32 10 -31 0 -37 11 -10 18 10 3 6 5 -10 6 -18
1 -28 -4 -28 -13 0 -13 -27 -19 -67 -15 -10 1 -61 2 -114 1 -92 0 -97 1 -107
23 -14 30 -10 32 55 31 41 -1 50 1 41 11 -8 10 -5 13 14 13 14 0 47 3 73 7 40
5 47 4 43 -8 -5 -13 4 -14 61 -6 56 7 627 26 656 22 6 -1 10 -15 10 -31z
m-1323 4 c-6 -6 -15 -8 -19 -4 -4 4 -1 11 7 16 19 12 27 3 12 -12z m1358 -8
c0 -16 -4 -30 -8 -30 -5 0 -7 14 -4 30 2 17 6 30 8 30 2 0 4 -13 4 -30z
m-1682 -60 c1 -8 -9 -20 -23 -27 -20 -9 -25 -8 -25 2 0 7 -3 21 -6 30 -6 13
-1 16 22 13 16 -2 30 -10 32 -18z m32 -5 c0 -8 -4 -15 -10 -15 -5 0 -7 7 -4
15 4 8 8 15 10 15 2 0 4 -7 4 -15z m1650 5 c0 -5 -4 -10 -10 -10 -5 0 -10 5
-10 10 0 6 5 10 10 10 6 0 10 -4 10 -10z m-2085 -10 c-15 -6 -9 -9 25 -8 37 0
41 1 20 8 -21 7 -17 8 20 9 29 0 40 -2 31 -8 -7 -5 37 -6 104 -3 98 4 117 3
113 -9 -3 -8 -17 -14 -31 -13 -15 0 -95 1 -178 2 -95 1 -148 6 -144 12 4 6 -7
8 -27 5 -29 -4 -30 -4 -8 4 14 5 41 9 60 9 28 1 31 -1 15 -8z m-175 -12 c0
-10 15 -8 -130 -18 -69 -5 -144 -12 -167 -16 -39 -6 -43 -5 -43 14 0 11 6 23
13 25 20 8 327 3 327 -5z m590 -36 c0 -15 -2 -15 -10 -2 -13 20 -13 33 0 25 6
-3 10 -14 10 -23z m735 -4 c-4 -13 -11 -27 -16 -32 -15 -17 -23 3 -11 29 15
32 36 34 27 3z m-1069 -3 c49 -5 74 -4 78 4 4 6 28 11 54 10 l47 -1 -30 -13
c-16 -8 -43 -14 -59 -15 -40 0 -240 -33 -246 -40 -3 -3 -30 -6 -60 -7 -39 -2
-51 0 -40 8 11 7 3 9 -30 7 -37 -3 -45 -6 -45 -23 0 -17 -11 -21 -80 -30 -80
-12 -138 -5 -160 17 -7 7 3 9 31 5 23 -2 47 -1 53 3 7 4 -11 10 -41 13 -32 4
-54 3 -56 -3 -5 -13 -32 -13 -32 0 0 36 92 72 175 69 l20 0 -20 -10 c-14 -7
-5 -8 32 -4 28 3 98 8 155 11 56 4 104 8 106 9 4 4 56 0 148 -10z m1671 2 c-4
-13 -67 -25 -134 -26 -24 -1 -43 -5 -43 -11 0 -5 -21 -10 -46 -10 -25 0 -43 4
-40 9 7 11 -22 23 -36 15 -6 -4 -14 0 -19 7 -10 17 41 23 209 26 82 1 112 -2
109 -10z m-359 -14 c3 -10 -13 -13 -57 -13 -33 0 -63 -5 -66 -11 -5 -6 -12 -4
-20 8 -13 17 -9 18 48 24 80 7 89 7 95 -8z m469 11 c-3 -3 -12 -4 -19 -1 -8 3
-5 6 6 6 11 1 17 -2 13 -5z m-637 -24 c0 -5 -16 -10 -35 -10 -19 0 -35 5 -35
10 0 6 16 10 35 10 19 0 35 -4 35 -10z m83 -17 c-7 -2 -19 -2 -25 0 -7 3 -2 5
12 5 14 0 19 -2 13 -5z m147 -3 c-19 -13 -30 -13 -30 0 0 6 10 10 23 10 18 0
19 -2 7 -10z m215 0 c4 -6 -6 -10 -22 -9 -25 0 -26 1 -8 9 11 5 21 9 22 9 1 1
5 -3 8 -9z m-1516 -19 c19 -12 -30 -18 -99 -12 l-55 5 45 7 c69 9 94 9 109 0z
m271 -1 c0 -5 -4 -10 -10 -10 -5 0 -10 5 -10 10 0 6 5 10 10 10 6 0 10 -4 10
-10z m-160 -40 c0 -33 -4 -42 -22 -49 -46 -17 -69 19 -34 55 10 9 47 33 54 34
1 0 2 -18 2 -40z m127 24 c20 -19 35 -64 22 -64 -6 0 -9 -7 -5 -15 6 -17 -13
-65 -26 -65 -4 0 -9 12 -9 28 -1 21 -3 23 -6 6 -2 -12 -13 -24 -23 -27 -17 -4
-18 -1 -13 27 3 17 10 37 16 43 5 7 6 25 3 39 -6 21 -12 25 -31 21 -24 -4 -32
3 -18 17 11 10 77 3 90 -10z m1703 -14 c0 -19 -5 -29 -12 -27 -7 1 -13 -4 -12
-10 3 -39 5 -44 13 -39 5 3 11 -1 15 -9 3 -9 0 -15 -9 -15 -8 0 -15 -9 -15
-21 0 -11 -4 -17 -10 -14 -15 9 -13 152 3 158 23 10 27 7 27 -23z m-2226 -9
c9 -14 -15 -19 -54 -13 l-35 6 35 7 c19 3 38 7 42 8 4 0 9 -3 12 -8z m165 5
c-11 -10 -139 -16 -139 -6 0 6 29 10 72 10 39 0 69 -2 67 -4z m-122 -32 c-3
-3 -12 -4 -19 -1 -8 3 -5 6 6 6 11 1 17 -2 13 -5z m-62 -15 c-37 -11 -192 -24
-184 -15 6 7 133 23 184 24 l30 0 -30 -9z m288 4 c-7 -2 -19 -2 -25 0 -7 3 -2
5 12 5 14 0 19 -2 13 -5z m327 -5 c0 -7 -5 -20 -10 -28 -8 -12 -10 -9 -10 13
0 15 5 27 10 27 6 0 10 -6 10 -12z m-13 -100 c-3 -7 -5 -2 -5 12 0 14 2 19 5
13 2 -7 2 -19 0 -25z m-37 6 c0 -8 -5 -12 -10 -9 -6 4 -8 11 -5 16 9 14 15 11
15 -7z m15 -139 c20 -41 44 -80 51 -86 8 -6 14 -17 14 -23 -1 -6 -9 -1 -20 12
-11 13 -24 21 -29 18 -10 -7 -61 42 -61 58 0 6 5 4 10 -4 16 -25 12 31 -5 60
-17 29 -18 40 -7 40 5 0 26 -34 47 -75z m1665 -77 c0 -5 -4 -8 -10 -8 -5 0
-10 10 -10 23 0 18 2 19 10 7 5 -8 10 -18 10 -22z m-1644 -49 c4 -8 1 -8 -14
0 -12 6 -24 16 -28 22 -4 8 -1 8 14 0 12 -6 24 -16 28 -22z m68 -74 c7 -34 -7
-15 -19 25 -5 16 -4 22 3 15 5 -5 12 -23 16 -40z m1543 -27 c-3 -8 -6 -5 -6 6
-1 11 2 17 5 13 3 -3 4 -12 1 -19z m-1511 -61 c1 -12 5 -44 8 -72 l6 -50 -18
60 c-10 33 -17 68 -14 78 6 22 15 14 18 -16z m1104 -173 c0 -8 -5 -12 -10 -9
-6 4 -8 11 -5 16 9 14 15 11 15 -7z m25 -39 c-19 -15 -19 -15 6 -9 24 5 26 3
22 -19 -3 -17 -13 -27 -29 -30 -19 -3 -28 3 -43 29 -20 34 -17 52 5 33 10 -8
15 -5 20 16 6 24 8 25 22 11 15 -14 14 -17 -3 -31z m-148 -16 c-12 -20 -47
-26 -47 -9 0 6 8 22 17 36 15 24 18 25 29 9 10 -13 10 -21 1 -36z m308 22 c-3
-6 -11 -11 -17 -11 -6 0 -6 6 2 15 14 17 26 13 15 -4z m-235 -42 c16 -30 12
-38 -27 -48 -21 -6 -41 -11 -45 -11 -15 0 -8 27 12 45 11 10 20 24 20 31 0 18
28 6 40 -17z m-395 1 c-3 -5 -15 -10 -26 -10 -10 0 -19 5 -19 10 0 6 12 10 26
10 14 0 23 -4 19 -10z m95 -27 l25 -11 -27 -7 c-35 -9 -48 0 -48 33 1 23 2 25
13 12 7 -9 23 -20 37 -27z m90 22 c10 -12 10 -15 -4 -15 -9 0 -16 7 -16 15 0
8 2 15 4 15 2 0 9 -7 16 -15z m90 -57 c0 -19 -9 -32 -36 -48 -19 -12 -38 -20
-41 -17 -3 3 4 26 16 50 11 24 21 49 21 55 0 9 5 9 20 0 12 -8 20 -24 20 -40z
m383 40 c19 -15 13 -53 -9 -62 -11 -4 -13 0 -8 18 3 13 1 27 -5 30 -13 8 -15
26 -3 26 5 0 16 -6 25 -12z m87 2 c0 -5 -4 -10 -10 -10 -5 0 -10 5 -10 10 0 6
5 10 10 10 6 0 10 -4 10 -10z m-728 -12 c12 -33 -19 -51 -41 -25 -8 10 -7 17
1 25 16 16 35 15 40 0z m588 -48 c-11 -21 -83 -45 -107 -36 -9 4 -13 16 -11
33 3 25 7 28 48 31 25 2 49 8 55 13 15 15 27 -18 15 -41z m-400 36 c0 -2 -12
-19 -27 -37 -28 -34 -28 -34 -47 -15 -18 18 -18 19 5 37 20 16 69 27 69 15z
m515 -16 c-3 -5 -10 -10 -16 -10 -5 0 -9 5 -9 10 0 6 7 10 16 10 8 0 12 -4 9
-10z m75 -1 c0 -16 -91 -130 -101 -127 -5 2 -9 6 -9 11 0 4 0 22 0 40 0 28 5
35 34 45 19 7 40 19 46 27 15 18 30 20 30 4z m-854 -33 c12 -13 8 -19 -28 -50
-47 -41 -63 -42 -23 -1 18 17 25 33 22 46 -6 22 8 25 29 5z m154 -15 c19 -16
33 -31 30 -34 -3 -2 -31 -7 -62 -9 -52 -4 -57 -3 -67 19 -6 13 -11 26 -11 28
0 4 50 21 70 24 3 1 21 -12 40 -28z m-239 9 c27 -15 24 -27 -11 -45 -34 -17
-50 -19 -50 -5 0 6 7 10 15 10 9 0 15 9 15 25 0 28 3 29 31 15z m460 -20 c-19
-16 -60 -38 -92 -49 -61 -20 -69 -17 -69 26 0 14 2 14 18 0 10 -10 24 -17 32
-17 16 0 100 52 100 63 0 4 10 7 23 7 20 -1 19 -3 -12 -30z m96 24 c-3 -3 -12
-4 -19 -1 -8 3 -5 6 6 6 11 1 17 -2 13 -5z m223 -44 c0 -16 0 -33 0 -37 0 -17
-19 -13 -46 10 l-28 24 30 16 c40 22 44 21 44 -13z m-241 0 c-13 -9 -39 -2
-39 10 0 4 12 5 26 2 17 -3 22 -7 13 -12z m85 1 c25 -27 14 -52 -40 -91 l-45
-32 31 61 c17 34 28 66 25 71 -11 18 12 10 29 -9z m-543 -42 c-18 -17 -36 -28
-39 -24 -4 4 9 19 28 35 45 37 53 29 11 -11z m847 -13 c-16 -44 -23 -53 -39
-49 -32 9 -32 21 3 63 47 56 60 51 36 -14z m-390 19 c2 -2 -7 -24 -19 -50 -12
-26 -22 -53 -22 -59 0 -7 -13 -10 -34 -8 -31 4 -33 6 -33 46 0 23 7 52 16 64
13 19 21 22 52 16 20 -4 38 -8 40 -9z m188 -16 c33 -22 44 -35 39 -47 -4 -10
-9 -30 -12 -47 -7 -38 -21 -55 -44 -55 -14 0 -19 7 -19 25 0 16 -11 32 -31 47
l-31 23 49 5 c34 4 48 9 48 20 0 11 -13 16 -43 18 -43 3 -44 4 -26 23 9 10 19
19 21 19 3 0 25 -14 49 -31z m251 -1 c-3 -7 -5 -2 -5 12 0 14 2 19 5 13 2 -7
2 -19 0 -25z m-746 -28 c-4 -28 -9 -40 -14 -32 -5 6 -24 12 -42 12 -30 0 -34
3 -32 23 1 17 12 24 47 33 25 6 46 10 46 10 1 -1 -1 -21 -5 -46z m-269 24 c10
-9 -4 -44 -18 -44 -17 0 -25 15 -18 34 6 16 25 21 36 10z m158 -9 c0 -8 -7
-15 -15 -15 -16 0 -20 12 -8 23 11 12 23 8 23 -8z m268 -30 c2 -22 -4 -37 -22
-54 l-24 -23 -21 21 c-12 12 -26 19 -30 16 -5 -2 -14 2 -20 9 -10 12 -4 19 31
40 56 34 82 31 86 -9z m-483 15 c3 -5 1 -10 -4 -10 -6 0 -11 5 -11 10 0 6 2
10 4 10 3 0 8 -4 11 -10z m90 -42 c-4 -51 -6 -54 -15 -32 -9 23 -2 76 10 69 4
-3 6 -19 5 -37z m45 17 c0 -14 -2 -25 -4 -25 -2 0 -6 11 -8 25 -3 14 -1 25 3
25 5 0 9 -11 9 -25z m-196 -24 c-2 -2 -11 -1 -20 3 -14 5 -14 9 -3 22 12 14
14 14 20 -3 3 -10 5 -20 3 -22z m1166 8 c0 -13 -47 -30 -65 -23 -22 9 -9 23
15 17 12 -3 22 1 26 11 6 16 24 13 24 -5z m-856 -15 c5 -13 4 -14 -7 -6 -8 7
-18 8 -22 4 -5 -4 -5 -1 -1 6 10 17 23 15 30 -4z m36 6 c0 -5 -2 -10 -4 -10
-3 0 -8 5 -11 10 -3 6 -1 10 4 10 6 0 11 -4 11 -10z m461 -22 c6 -10 8 -27 6
-36 -3 -11 -5 -8 -6 8 -1 20 -3 22 -11 10 -8 -13 -12 -12 -31 6 -12 12 -19 27
-15 32 9 15 45 2 57 -20z m-401 -15 c0 -22 -3 -24 -27 -18 -37 9 -38 10 -16
32 23 25 43 18 43 -14z m648 21 c2 -1 -10 -10 -28 -19 -36 -18 -35 -19 -44 12
-7 21 -5 22 31 16 21 -3 40 -7 41 -9z m-848 -9 c0 -8 -4 -15 -10 -15 -5 0 -10
7 -10 15 0 8 5 15 10 15 6 0 10 -7 10 -15z m551 -67 c-8 -11 -28 -18 -48 -18
-39 0 -40 3 -11 32 19 19 20 22 5 33 -11 8 -13 15 -6 22 7 7 20 0 42 -21 29
-28 31 -33 18 -48z m437 58 c-2 -27 -34 -42 -42 -20 -7 19 -42 18 -50 -2 -3
-9 -6 -26 -6 -40 0 -31 -55 -62 -82 -45 -25 15 -28 14 -28 -11 0 -17 -3 -19
-11 -11 -17 17 16 66 39 59 23 -7 36 3 56 42 14 26 23 32 51 33 47 2 52 3 61
12 12 11 14 9 12 -17z m-226 -48 c-3 -11 -10 -17 -18 -14 -10 4 -14 -3 -14
-20 0 -13 -7 -27 -15 -30 -11 -5 -13 -16 -9 -43 7 -43 -10 -113 -31 -131 -8
-6 -23 -9 -35 -5 -33 11 -23 54 20 83 42 28 47 39 25 56 -23 16 -12 57 13 50
9 -3 4 6 -12 19 l-29 25 24 4 c15 2 29 14 39 35 15 32 15 32 31 11 9 -12 14
-30 11 -40z m-698 26 c10 -4 16 -18 16 -36 0 -17 4 -27 10 -23 23 14 30 -8 9
-26 -33 -29 -60 -28 -90 2 -20 20 -26 34 -9 24 6 -3 11 0 12 7 0 7 2 18 2 23
4 30 21 40 50 29z m371 -24 c0 -16 -5 -30 -12 -30 -6 0 -14 -13 -18 -30 -5
-21 -13 -30 -26 -30 -10 0 -19 4 -19 10 0 5 -15 16 -32 24 -35 16 -68 40 -68
49 0 12 36 12 45 -1 13 -16 59 -2 68 22 4 9 18 16 34 16 24 0 28 -4 28 -30z
m495 -5 c0 -14 -4 -25 -10 -25 -11 0 -14 33 -3 43 11 11 13 8 13 -18z m-735
-46 c6 -44 4 -53 -15 -71 -24 -23 -104 -36 -98 -15 2 6 23 21 46 31 49 23 59
45 36 81 -16 24 -15 25 4 25 17 0 21 -9 27 -51z m469 12 c3 -4 -10 -16 -28
-26 -32 -18 -33 -18 -55 4 l-22 22 33 13 c32 14 59 9 72 -13z m-721 -33 c-3
-24 -9 -50 -14 -58 -6 -13 -9 -12 -15 4 -4 10 -2 27 4 36 6 10 8 27 5 39 -4
15 -1 21 10 21 12 0 14 -9 10 -42z m302 -18 c-11 -18 -25 1 -25 33 l1 32 15
-28 c8 -15 12 -32 9 -37z m205 46 c0 -3 -4 -8 -10 -11 -5 -3 -10 -1 -10 4 0 6
5 11 10 11 6 0 10 -2 10 -4z m480 -5 c0 -5 -7 -14 -15 -21 -12 -10 -15 -10
-15 2 0 8 3 18 7 21 9 10 23 9 23 -2z m55 -1 c3 -5 1 -10 -4 -10 -6 0 -11 5
-11 10 0 6 2 10 4 10 3 0 8 -4 11 -10z m-455 -31 c0 -22 5 -32 20 -36 30 -8
13 -23 -25 -23 -58 0 -92 25 -42 32 16 2 23 11 25 31 4 37 22 34 22 -4z m430
1 c0 -24 -4 -30 -21 -30 -12 0 -37 -16 -55 -36 -23 -24 -34 -30 -34 -19 0 8
-7 18 -15 21 -8 4 -15 11 -15 16 0 7 5 6 14 -1 18 -15 70 11 98 50 12 16 23
29 25 29 2 0 3 -13 3 -30z m-480 4 c0 -8 -5 -12 -10 -9 -6 4 -8 11 -5 16 9 14
15 11 15 -7z m400 -3 c0 -16 -25 -30 -39 -22 -11 7 -9 11 5 20 23 13 34 14 34
2z m-847 -31 c15 0 15 -3 5 -19 -8 -13 -16 -17 -23 -11 -7 6 -16 5 -22 -1 -20
-20 -33 -1 -21 32 9 28 12 29 27 15 10 -9 25 -16 34 -16z m304 13 c14 -9 41
-16 59 -15 29 2 34 -1 40 -23 8 -33 -1 -42 -51 -50 -38 -6 -41 -5 -53 24 -8
18 -24 34 -38 37 -29 7 -30 12 -6 30 22 17 18 17 49 -3z m-527 -23 c-18 -11
-24 -6 -16 16 5 14 9 15 19 5 9 -9 9 -14 -3 -21z m90 6 c0 -7 -8 -20 -17 -27
-15 -12 -16 -12 -10 4 4 10 7 23 7 28 0 5 5 9 10 9 6 0 10 -6 10 -14z m868 8
c24 -7 31 -34 8 -34 -8 0 -22 7 -30 16 -25 25 -21 29 22 18z m-123 -14 c3 -5
-3 -18 -14 -29 -17 -17 -20 -17 -23 -3 -9 34 20 59 37 32z m310 -128 c0 -61
-3 -112 -7 -112 -4 0 -15 14 -23 31 -12 23 -15 47 -11 97 6 64 5 66 -9 37 -8
-16 -14 -36 -15 -43 0 -8 -12 -26 -28 -40 -15 -15 -37 -40 -48 -56 -12 -17
-26 -26 -32 -22 -23 14 -11 46 36 94 26 26 60 67 76 91 17 26 34 41 45 39 14
-3 16 -19 16 -116z m-645 72 c0 -18 -14 -18 -30 1 -16 19 -3 40 16 24 8 -6 14
-18 14 -25z m-495 9 c-3 -10 -9 -30 -12 -46 -10 -47 -27 -45 -19 3 8 49 13 60
28 60 6 0 7 -8 3 -17z m435 -2 c0 -5 3 -17 7 -26 5 -15 1 -16 -28 -10 -40 8
-54 19 -45 34 9 13 66 15 66 2z m245 1 c13 -9 16 -72 4 -72 -5 0 -9 5 -9 12 0
6 -7 19 -16 29 -22 25 -5 51 21 31z m63 -20 c-17 -22 -24 -25 -27 -14 -2 9 5
22 15 29 30 22 37 14 12 -15z m229 18 c18 0 -7 -55 -31 -66 -11 -5 -29 -27
-41 -49 -26 -50 -89 -71 -129 -42 -16 12 -17 16 -5 36 12 19 12 24 -3 35 -22
16 -22 25 1 55 l18 23 -4 -29 c-6 -39 18 -63 62 -63 39 0 61 25 71 78 6 28 10
33 28 28 11 -3 26 -6 33 -6z m-731 -15 c9 -21 -16 -51 -27 -33 -14 21 -10 48
6 48 9 0 18 -7 21 -15z m103 -16 c12 -17 20 -37 17 -45 -6 -16 -46 -20 -46 -4
0 6 -4 10 -10 10 -5 0 -10 -11 -10 -25 0 -18 5 -25 19 -25 24 0 38 -18 19 -25
-35 -12 -73 -13 -80 -2 -6 9 -8 9 -8 0 0 -7 -7 -13 -15 -13 -28 0 -18 48 13
64 24 12 28 20 26 50 -3 34 3 41 42 45 5 0 20 -13 33 -30z m151 -28 c0 -4 -10
-21 -21 -35 -17 -21 -24 -25 -30 -14 -5 7 -9 21 -9 30 0 14 8 19 53 27 4 0 7
-3 7 -8z m160 -11 c0 -21 -15 -27 -25 -10 -7 12 2 30 16 30 5 0 9 -9 9 -20z
m-50 -8 c0 -10 5 -23 11 -29 16 -16 -23 -35 -64 -31 -45 4 -45 29 0 55 47 27
53 28 53 5z m-209 -86 c-28 -29 -27 -39 4 -34 32 7 32 -2 -3 -35 -40 -38 -62
-28 -61 27 1 27 3 32 6 16 3 -14 9 -29 15 -35 7 -7 9 0 4 23 -3 18 -2 41 3 50
5 9 15 33 22 52 l13 35 9 -38 c8 -33 6 -42 -12 -61z m792 47 c-9 -24 -23 -13
-23 19 0 30 1 30 14 13 8 -11 12 -25 9 -32z m-1086 3 c-15 -31 -20 -27 -11 8
3 14 10 24 14 21 5 -3 3 -16 -3 -29z m63 14 c0 -5 -2 -10 -4 -10 -3 0 -8 5
-11 10 -3 6 -1 10 4 10 6 0 11 -4 11 -10z m570 1 c0 -5 -6 -11 -12 -13 -23 -8
9 -58 50 -76 20 -10 38 -23 40 -30 1 -7 3 -18 5 -24 3 -17 -52 -23 -67 -8 -8
9 -5 11 13 5 20 -6 23 -4 18 10 -4 9 -7 20 -7 25 0 16 -59 22 -74 7 -15 -14
-94 -32 -104 -23 -3 3 1 12 8 21 7 8 10 22 6 30 -4 10 11 26 47 50 51 35 77
43 77 26z m-720 -44 c0 -13 -6 -32 -14 -43 -14 -18 -15 -18 -21 -1 -10 25 3
67 20 67 9 0 15 -9 15 -23z m180 -3 c0 -14 -21 -19 -33 -7 -9 9 13 34 24 27 5
-3 9 -12 9 -20z m304 4 c11 -11 11 -16 -3 -34 l-15 -21 -14 25 c-10 21 -10 27
0 34 17 10 17 10 32 -4z m556 -11 c0 -17 -20 -37 -37 -37 -11 0 -9 6 4 25 20
27 33 32 33 12z m-134 -25 c-7 -20 -34 -37 -44 -27 -3 3 5 16 18 30 26 28 35
27 26 -3z m-776 3 c21 -26 6 -35 -17 -10 -14 16 -17 25 -8 25 7 0 18 -7 25
-15z m440 -15 c0 -4 -11 -15 -24 -23 -23 -15 -24 -15 -28 8 -3 14 -3 26 -1 28
6 7 53 -5 53 -13z m-266 -6 c11 -29 6 -44 -14 -44 -13 0 -20 7 -20 20 0 11 -7
20 -16 20 -8 0 -12 5 -9 10 10 16 52 12 59 -6z m-214 -8 c0 -8 -4 -18 -10 -21
-5 -3 -10 3 -10 14 0 12 5 21 10 21 6 0 10 -6 10 -14z m410 -12 c0 -14 -4 -23
-9 -20 -5 3 -7 15 -4 26 7 28 13 25 13 -6z m498 -39 c7 -5 -11 -32 -29 -43
-18 -12 -24 -10 -46 12 -14 14 -34 26 -44 26 -28 0 -23 17 6 24 14 4 28 13 32
22 4 12 12 10 42 -12 20 -15 37 -28 39 -29z m108 38 c19 -25 17 -33 -6 -33
-11 0 -20 -4 -20 -10 0 -5 6 -7 14 -4 12 5 15 -13 18 -95 2 -56 2 -101 0 -101
-2 0 -15 26 -29 58 -21 48 -24 67 -20 120 8 84 17 98 43 65z m-1136 -14 c0 -5
-7 -9 -15 -9 -8 0 -15 7 -15 15 0 9 6 12 15 9 8 -4 15 -10 15 -15z m268 3 c2
-7 -3 -12 -12 -12 -9 0 -16 7 -16 16 0 17 22 14 28 -4z m-218 -24 c0 -19 -2
-20 -10 -8 -13 19 -13 30 0 30 6 0 10 -10 10 -22z m635 7 c-36 -15 -133 -30
-122 -18 5 4 36 13 70 19 81 15 88 15 52 -1z m-229 -7 c4 -7 3 -8 -4 -4 -8 5
-12 0 -12 -13 0 -28 -11 -52 -21 -45 -14 8 -11 36 8 56 19 21 20 21 29 6z
m-324 -33 c-2 -19 -8 -35 -13 -35 -10 0 -12 53 -2 63 14 15 19 6 15 -28z m944
19 c-3 -9 -6 -24 -6 -34 0 -13 -5 -17 -20 -13 -24 6 -24 7 -4 38 18 28 40 34
30 9z m-1058 -6 c-6 -18 -28 -21 -28 -4 0 9 7 16 16 16 9 0 14 -5 12 -12z
m292 8 c0 -2 -7 -6 -15 -10 -8 -3 -15 -1 -15 4 0 6 7 10 15 10 8 0 15 -2 15
-4z m175 -5 c3 -5 1 -12 -5 -16 -5 -3 -10 1 -10 9 0 18 6 21 15 7z m245 -10
c0 -13 -15 -27 -45 -42 l-46 -23 -23 25 -22 24 60 16 c79 22 76 22 76 0z m184
-1 c52 -20 25 -54 -53 -66 -33 -5 -41 -4 -41 9 0 9 -8 20 -17 26 -17 9 -17 10
2 16 11 4 29 10 40 15 27 12 39 12 69 0z m-817 -22 c-3 -8 -6 -5 -6 6 -1 11 2
17 5 13 3 -3 4 -12 1 -19z m93 1 c0 -11 4 -18 9 -15 5 3 11 -3 14 -14 6 -25 2
-25 -23 0 -21 21 -27 50 -10 50 6 0 10 -9 10 -21z m333 -16 c-3 -18 -9 -33
-14 -33 -14 0 -11 58 4 63 16 6 15 7 10 -30z m-203 17 c0 -5 -10 -10 -22 -9
-22 0 -22 1 -3 9 11 5 21 9 23 9 1 1 2 -3 2 -9z m87 -76 c-1 -1 -13 -5 -27 -8
-23 -6 -23 -6 -7 7 9 8 17 25 17 38 0 22 0 22 -15 3 -10 -13 -14 -15 -15 -5 0
8 8 23 17 34 17 18 18 18 25 -24 4 -23 7 -44 5 -45z m73 51 c0 -14 -4 -25 -10
-25 -11 0 -14 33 -3 43 11 11 13 8 13 -18z m112 -2 c22 -20 23 -33 3 -33 -9 0
-15 10 -16 23 -1 21 -1 21 -8 -3 -7 -25 -7 -25 -19 -4 -19 35 8 47 40 17z
m-242 -24 c0 -11 -25 -39 -34 -39 -12 0 -6 48 7 53 15 5 27 -1 27 -14z m716
-3 c3 -14 3 -34 -1 -47 -7 -21 -8 -20 -22 9 -8 17 -24 34 -34 37 -27 9 -13 25
21 25 23 0 31 -6 36 -24z m-308 -19 c2 -14 9 -30 16 -36 19 -16 68 -16 96 -1
l25 13 -20 -22 c-15 -18 -27 -22 -52 -18 -23 4 -39 0 -58 -15 -14 -11 -27 -19
-29 -17 -1 2 -7 17 -14 32 -9 22 -18 27 -38 25 -16 -2 -31 4 -37 14 -13 20 -9
26 23 30 14 2 34 9 45 16 27 16 39 10 43 -21z m-331 1 c-3 -8 -6 -5 -6 6 -1
11 2 17 5 13 3 -3 4 -12 1 -19z m-147 -20 c0 -23 -3 -29 -11 -21 -6 6 -8 20
-4 32 9 30 15 26 15 -11z m573 4 c-33 -16 -63 -11 -63 10 0 10 13 12 48 9 l47
-4 -32 -15z m146 18 c10 -5 22 -17 25 -26 5 -14 4 -15 -9 -4 -12 10 -15 10
-15 -3 0 -9 7 -22 15 -30 12 -13 12 -17 -4 -31 -26 -23 -52 -20 -78 12 l-22
27 9 -32 c11 -41 -2 -50 -29 -21 -18 19 -19 24 -7 42 11 17 83 74 94 76 2 0
11 -4 21 -10z m-952 -37 c-3 -10 -5 -4 -5 12 0 17 2 24 5 18 2 -7 2 -21 0 -30z
m159 21 c-3 -9 -6 -26 -6 -39 0 -17 -7 -24 -27 -28 -34 -6 -37 -4 -28 23 5 15
12 19 23 15 9 -3 13 -3 10 1 -9 9 10 44 23 44 6 0 8 -7 5 -16z m-112 -9 c-6
-16 -24 -21 -24 -7 0 11 11 22 21 22 5 0 6 -7 3 -15z m149 -5 c-8 -29 -24 -36
-19 -8 3 13 5 24 5 26 1 1 5 2 10 2 5 0 7 -9 4 -20z m322 0 c3 -5 -1 -10 -10
-10 -9 0 -13 5 -10 10 3 6 8 10 10 10 2 0 7 -4 10 -10z m-135 -52 c0 -14 -16
-8 -39 13 -12 12 -20 24 -16 27 3 4 10 0 15 -8 8 -12 10 -11 10 5 1 18 2 17
15 -5 8 -14 14 -28 15 -32z m-100 17 c-7 -8 -20 -15 -28 -15 -13 0 -12 3 4 15
25 19 40 19 24 0z m319 1 c17 -20 10 -67 -12 -80 -15 -9 -22 -6 -37 14 -10 14
-26 33 -34 43 -18 19 -21 31 -7 23 5 -4 20 -2 33 3 33 14 44 13 57 -3z m-649
-16 c0 -5 -5 -10 -11 -10 -5 0 -7 5 -4 10 3 6 8 10 11 10 2 0 4 -4 4 -10z
m551 -42 c6 -11 6 -18 1 -18 -14 0 -28 21 -35 50 -6 24 -6 24 9 5 9 -11 20
-28 25 -37z m171 -61 c9 -118 1 -127 -108 -127 -47 0 -74 4 -74 11 0 7 14 8
40 4 54 -9 65 0 40 34 l-20 29 32 6 c54 11 75 39 38 51 -18 6 -18 8 12 36 25
22 30 31 20 41 -7 7 -12 17 -12 22 0 6 6 4 12 -2 7 -7 16 -54 20 -105z m-324
78 c2 -2 -4 -10 -13 -19 -15 -14 -15 -16 -1 -16 9 0 16 -8 16 -20 0 -13 -7
-20 -20 -20 -15 0 -20 7 -20 29 0 17 -4 33 -10 36 -5 3 -10 -3 -10 -14 0 -24
-10 -51 -19 -51 -3 0 -6 15 -6 33 0 53 43 75 83 42z m426 19 c14 -5 14 -8 1
-27 -20 -28 -19 -63 2 -71 14 -6 12 -11 -12 -36 -16 -17 -32 -30 -36 -30 -11
0 -29 59 -29 96 0 23 7 38 26 53 30 24 27 23 48 15z m212 -42 c-21 -72 -36
-86 -94 -85 -60 0 -66 -10 -18 -32 18 -9 39 -27 47 -41 12 -24 11 -27 -11 -44
-24 -18 -76 -30 -99 -22 -18 6 -12 22 8 22 22 0 45 25 36 40 -11 18 -63 11
-79 -11 -11 -17 -20 -20 -45 -14 -38 8 -40 22 -4 36 15 5 42 28 60 49 20 23
62 53 101 72 37 18 76 41 86 50 11 10 21 18 22 18 1 0 -3 -17 -10 -38z m-866
18 c0 -5 -8 -10 -17 -10 -15 0 -16 2 -3 10 19 12 20 12 20 0z m123 -33 c-3 -5
-9 -3 -14 4 -4 7 -5 17 -2 22 3 5 9 3 14 -4 4 -7 5 -17 2 -22z m581 17 c8 -21
-1 -34 -25 -34 -22 0 -23 4 -9 31 13 23 26 24 34 3z m264 -64 c-5 -70 8 -110
14 -48 3 32 4 31 8 -8 l5 -42 -31 5 c-26 4 -34 1 -44 -16 -6 -12 -8 -31 -5
-41 4 -12 0 -26 -9 -36 -18 -17 -22 -64 -6 -64 6 0 10 -6 10 -14 0 -20 -36
-31 -87 -27 -26 2 -43 -1 -43 -8 0 -7 -31 -10 -92 -10 -51 1 -81 4 -65 6 15 2
27 9 27 15 0 6 -12 8 -27 5 -16 -2 -37 -1 -48 3 -23 10 -13 13 33 10 44 -2 50
21 18 63 -14 19 -26 39 -26 45 0 16 41 9 73 -12 26 -18 33 -18 79 -7 65 17 81
3 35 -32 -25 -19 -37 -23 -45 -15 -18 18 -24 4 -8 -17 13 -18 15 -18 45 7 17
15 44 29 61 33 37 8 38 18 4 33 -30 14 -23 32 12 32 15 0 24 5 22 13 -2 7 12
26 30 42 26 24 34 40 39 83 4 40 3 52 -8 53 -11 0 12 15 30 18 2 1 1 -31 -1
-69z m-676 -2 c-10 -22 -11 -21 -11 12 -1 26 2 31 11 22 8 -8 8 -17 0 -34z
m-392 18 c0 -8 8 -17 18 -20 10 -3 7 -4 -8 -3 -24 2 -44 37 -21 37 6 0 11 -6
11 -14z m1028 -22 c5 -32 -35 -75 -62 -68 -21 5 -22 2 -18 -27 3 -22 1 -30 -7
-25 -6 4 -11 12 -11 18 0 6 -7 19 -16 29 -15 16 -14 19 15 33 17 9 33 27 37
41 5 20 11 25 33 22 17 -2 27 -11 29 -23z m-845 -14 c-3 -11 -9 -20 -14 -20
-10 0 -12 33 -3 43 12 12 22 -3 17 -23z m267 21 c0 -9 -41 -23 -48 -16 -2 2
-1 8 3 14 8 13 45 15 45 2z m115 -6 c0 -6 -12 -11 -27 -13 -28 -3 -39 12 -15
21 18 8 42 3 42 -8z m-425 -11 c0 -8 -5 -12 -10 -9 -6 4 -8 11 -5 16 9 14 15
11 15 -7z m350 6 c0 -5 -2 -10 -4 -10 -3 0 -8 5 -11 10 -3 6 -1 10 4 10 6 0
11 -4 11 -10z m-283 -22 c-3 -8 -6 -5 -6 6 -1 11 2 17 5 13 3 -3 4 -12 1 -19z
m83 12 c0 -5 -7 -7 -15 -4 -8 4 -15 8 -15 10 0 2 7 4 15 4 8 0 15 -4 15 -10z
m220 -35 c7 -9 11 -18 8 -20 -9 -10 -38 7 -38 21 0 18 14 18 30 -1z m-400 -5
c0 -5 -6 -10 -14 -10 -8 0 -18 5 -21 10 -3 6 3 10 14 10 12 0 21 -4 21 -10z
m117 -27 c-17 -18 -22 -8 -11 22 5 12 10 13 17 6 8 -8 6 -16 -6 -28z m111 1
c-10 -10 -28 6 -28 24 0 15 1 15 17 -1 9 -9 14 -19 11 -23z m25 11 c-7 -21
-13 -19 -13 6 0 11 4 18 10 14 5 -3 7 -12 3 -20z m84 -1 c10 -27 -14 -40 -37
-19 -11 10 -20 22 -20 27 0 15 50 8 57 -8z m-267 -9 c0 -8 -4 -15 -10 -15 -5
0 -10 7 -10 15 0 8 5 15 10 15 6 0 10 -7 10 -15z m-193 -37 c-3 -8 -6 -5 -6 6
-1 11 2 17 5 13 3 -3 4 -12 1 -19z m118 -8 c-5 -8 -11 -8 -17 -2 -6 6 -7 16
-3 22 5 8 11 8 17 2 6 -6 7 -16 3 -22z m163 3 c0 -21 -2 -23 -10 -9 -5 9 -6
21 -3 26 10 16 13 12 13 -17z m532 17 c0 -5 -5 -10 -11 -10 -5 0 -7 5 -4 10 3
6 8 10 11 10 2 0 4 -4 4 -10z m-763 -20 c1 -11 -2 -18 -8 -15 -11 7 -12 35 -1
35 4 0 8 -9 9 -20z m27 5 c3 -8 1 -15 -4 -15 -6 0 -10 7 -10 15 0 8 2 15 4 15
2 0 6 -7 10 -15z m271 5 c4 -6 11 -8 16 -5 5 4 9 -2 9 -11 0 -10 -3 -14 -7
-11 -3 4 -12 2 -20 -5 -18 -14 -38 4 -30 26 7 18 23 21 32 6z m60 -20 c-3 -5
-11 -10 -16 -10 -6 0 -7 5 -4 10 3 6 11 10 16 10 6 0 7 -4 4 -10z m165 -10 c0
-5 -4 -10 -10 -10 -5 0 -10 5 -10 10 0 6 5 10 10 10 6 0 10 -4 10 -10z m94 4
c25 -10 19 -25 -7 -19 -15 4 -28 1 -36 -8 -18 -22 -31 -76 -20 -82 5 -4 9 2 9
13 0 10 10 28 23 40 20 19 26 20 42 8 21 -15 12 -36 -16 -36 -10 0 -19 -7 -19
-15 0 -25 -36 -35 -129 -35 -74 0 -91 3 -91 15 0 8 5 15 10 15 19 0 23 31 5
44 -16 12 -16 13 0 29 19 20 88 23 103 4 6 -6 12 -28 14 -47 4 -47 23 -35 23
15 0 22 4 46 8 53 9 13 54 16 81 6z m-725 -31 c0 -5 -3 -9 -9 -11 -5 -2 -10 4
-10 13 0 16 16 14 19 -2z m401 -17 c0 -8 -4 -18 -10 -21 -5 -3 -10 3 -10 14 0
12 5 21 10 21 6 0 10 -6 10 -14z m70 5 c0 -12 -20 -25 -27 -18 -7 7 6 27 18
27 5 0 9 -4 9 -9z m317 -57 c-9 -9 -28 6 -21 18 4 6 10 6 17 -1 6 -6 8 -13 4
-17z m333 -24 c0 -5 -4 -10 -10 -10 -5 0 -10 5 -10 10 0 6 5 10 10 10 6 0 10
-4 10 -10z m-740 -54 c0 -3 -4 -8 -10 -11 -5 -3 -10 -1 -10 4 0 6 5 11 10 11
6 0 10 -2 10 -4z"/>
<path d="M2390 2601 c0 -6 12 -11 28 -11 l27 -1 -25 -13 c-14 -8 -28 -12 -32
-10 -5 3 -8 1 -8 -4 0 -12 227 -4 250 8 10 6 31 10 45 10 17 0 25 5 22 13 -2
6 -17 11 -33 11 -102 -6 -223 -5 -246 1 -18 5 -28 3 -28 -4z"/>
<path d="M2170 2580 c0 -13 11 -13 30 0 12 8 11 10 -7 10 -13 0 -23 -4 -23
-10z"/>
<path d="M2250 2550 c0 -5 6 -10 14 -10 8 0 18 5 21 10 3 6 -3 10 -14 10 -12
0 -21 -4 -21 -10z"/>
<path d="M2338 2553 c7 -3 16 -2 19 1 4 3 -2 6 -13 5 -11 0 -14 -3 -6 -6z"/>
<path d="M2450 2530 c0 -5 7 -7 15 -4 8 4 15 8 15 10 0 2 -7 4 -15 4 -8 0 -15
-4 -15 -10z"/>
<path d="M380 2430 c-23 -4 -30 -9 -20 -13 17 -8 80 6 65 14 -6 3 -26 2 -45
-1z"/>
<path d="M1940 1015 c0 -8 5 -15 10 -15 6 0 10 7 10 15 0 8 -4 15 -10 15 -5 0
-10 -7 -10 -15z"/>
<path d="M673 2615 c-16 -13 -16 -14 -1 -15 9 0 23 -2 31 -5 8 -4 14 0 14 9 0
22 -22 27 -44 11z"/>
<path d="M792 2623 c-6 -2 -10 -9 -6 -14 8 -13 36 -10 58 6 19 14 18 15 -10
14 -16 0 -35 -3 -42 -6z"/>
<path d="M85 2580 c-3 -6 1 -7 9 -4 18 7 21 14 7 14 -6 0 -13 -4 -16 -10z"/>
<path d="M1660 2549 c0 -11 4 -18 10 -14 5 3 7 12 3 20 -7 21 -13 19 -13 -6z"/>
<path d="M1512 2500 c3 -28 8 -53 12 -57 13 -14 18 8 11 56 -9 67 -29 68 -23
1z"/>
<path d="M1335 2473 c3 -79 24 -191 37 -199 6 -4 7 13 3 42 -9 70 -37 224 -40
224 -1 0 -1 -30 0 -67z"/>
<path d="M1241 2517 c-9 -11 -8 -17 3 -26 11 -9 15 -8 20 5 9 23 -8 38 -23 21z"/>
<path d="M90 2490 c0 -11 -4 -20 -10 -20 -5 0 -10 -10 -10 -23 0 -13 -3 -26
-6 -30 -4 -3 -8 -39 -10 -79 -2 -49 0 -68 6 -58 8 13 10 13 10 -2 0 -9 -4 -19
-8 -22 -5 -3 -9 -38 -9 -78 -1 -53 2 -66 8 -48 6 17 7 11 2 -20 -6 -46 -6 -70
1 -171 2 -31 0 -75 -4 -97 -5 -31 -4 -39 6 -35 7 2 14 17 16 31 3 17 6 8 8
-23 3 -27 2 -70 -1 -95 l-6 -45 -1 46 c-2 33 -7 49 -18 53 -14 5 -16 -5 -13
-86 4 -106 10 -136 20 -98 5 19 7 14 8 -22 1 -27 -3 -48 -8 -48 -4 0 -6 -51
-4 -112 2 -62 4 -141 4 -175 0 -35 3 -63 7 -63 4 0 7 -167 7 -370 1 -204 -3
-370 -7 -370 -5 0 -5 -8 0 -17 5 -10 12 -70 14 -133 4 -86 10 -125 24 -154 21
-45 43 -57 50 -30 5 18 23 19 427 15 485 -4 687 4 687 25 0 9 12 14 33 14 l32
1 -34 15 c-19 8 -43 14 -55 13 -12 -1 -33 -1 -47 -1 -25 2 -26 3 -19 50 12 73
12 335 0 352 -7 11 -10 1 -10 -37 0 -32 -4 -53 -11 -53 -6 0 -9 7 -5 15 3 8 1
15 -4 15 -6 0 -10 -49 -10 -119 0 -125 -7 -184 -21 -176 -4 3 -5 15 -2 28 3
12 8 48 10 79 4 44 1 62 -11 74 -9 8 -16 20 -16 25 0 13 17 11 24 -3 3 -7 5 5
4 27 0 22 3 57 7 79 8 42 -8 64 -32 44 -10 -8 -13 -2 -13 26 0 22 4 35 10 31
6 -3 10 3 10 15 0 12 5 18 10 15 6 -3 10 0 10 9 0 8 -5 16 -12 18 -8 3 -8 9 0
23 9 17 11 15 18 -20 4 -22 8 -51 8 -64 1 -23 26 -44 26 -22 0 6 6 8 14 5 9
-4 13 4 12 25 -1 17 -6 31 -13 31 -8 0 -12 26 -11 88 0 48 0 153 -1 233 -2 81
1 163 4 183 5 22 3 36 -3 36 -11 0 -28 -73 -24 -100 8 -54 2 -114 -12 -128
-14 -14 -15 -9 -11 49 3 35 8 81 11 102 3 21 2 37 -4 37 -5 0 -7 12 -4 26 3
19 1 25 -7 20 -6 -4 -11 -29 -11 -57 0 -51 -12 -63 -30 -30 -16 31 -12 46 19
79 25 26 29 36 24 70 -4 29 -1 40 10 45 12 4 14 -2 11 -31 -2 -20 -1 -46 3
-57 5 -16 8 -12 14 19 8 47 12 333 5 325 -8 -8 -15 -65 -15 -139 -2 -81 -10
-97 -40 -79 -11 8 -20 23 -20 34 1 17 2 17 6 3 2 -10 7 -18 9 -18 12 0 34 30
34 46 0 14 -3 15 -17 3 -15 -11 -16 -11 -5 1 7 9 12 45 12 96 0 88 -4 94 -56
94 -17 0 -27 8 -34 24 -10 26 -75 76 -99 76 -8 0 -22 -7 -32 -16 -16 -14 -18
-13 -24 16 -4 17 -18 38 -31 46 -22 15 -26 15 -49 0 -13 -9 -35 -16 -48 -16
-14 0 -30 -7 -37 -15 -10 -12 -16 -13 -26 -4 -12 10 -11 14 3 25 17 12 16 13
-5 21 -13 5 -55 8 -93 7 -44 0 -72 3 -74 10 -2 6 -7 47 -12 91 l-8 80 -5 -99
c-3 -67 -9 -101 -17 -104 -9 -2 -13 8 -13 32 0 20 -4 36 -10 36 -5 0 -7 -13
-3 -30 4 -25 3 -29 -10 -24 -8 3 -18 0 -22 -5 -11 -19 -25 -1 -25 34 0 18 -7
41 -16 50 -9 9 -14 25 -11 35 3 11 1 20 -4 20 -16 0 -10 -67 11 -111 11 -24
20 -50 20 -56 0 -19 -18 -15 -23 5 -4 15 -5 15 -6 0 0 -9 6 -24 15 -32 19 -20
11 -20 -26 -1 -22 11 -29 12 -33 2 -2 -6 -8 5 -12 26 -5 28 -10 35 -16 25 -7
-11 -11 -10 -19 2 -7 12 -10 12 -10 1 0 -7 -6 -11 -14 -8 -8 3 -17 -2 -21 -11
-6 -15 -8 -15 -15 3 -8 19 -9 19 -9 -1 -1 -24 -19 -34 -57 -34 -22 0 -24 4
-24 49 0 30 -5 51 -12 53 -9 3 -13 32 -13 94 -2 177 -4 197 -20 190 -13 -4
-15 8 -14 77 l2 82 7 -67 c3 -38 9 -70 12 -73 12 -12 17 60 7 103 -6 26 -10
100 -10 165 0 64 -2 117 -4 117 -3 0 -5 -9 -5 -20z m-3 -477 c-3 -10 -5 -4 -5
12 0 17 2 24 5 18 2 -7 2 -21 0 -30z m42 -301 c-1 -26 -5 -60 -9 -77 -4 -20
-7 -2 -6 52 0 45 4 79 8 77 5 -3 7 -26 7 -52z m516 26 c-19 -11 -30 -5 -21 11
4 6 14 7 22 4 15 -5 14 -7 -1 -15z m-40 -10 c-11 -36 -24 -44 -21 -12 4 36 4
34 17 34 6 0 8 -9 4 -22z m-313 -13 c3 -14 2 -28 -3 -31 -11 -6 -32 34 -24 46
11 17 23 11 27 -15z m558 15 c0 -5 -2 -10 -4 -10 -3 0 -8 5 -11 10 -3 6 -1 10
4 10 6 0 11 -4 11 -10z m-357 -20 c3 -12 14 -20 26 -20 25 0 28 -18 5 -27 -21
-8 -79 47 -62 59 20 12 25 10 31 -12z m287 4 c0 -8 -5 -12 -10 -9 -6 4 -8 11
-5 16 9 14 15 11 15 -7z m-550 -21 c0 -10 3 -29 5 -43 3 -14 0 -10 -8 10 -17
42 -39 49 -61 18 -15 -22 -16 -22 -16 -2 0 28 8 34 47 34 25 0 33 -4 33 -17z
m635 -3 c-3 -5 -10 -10 -16 -10 -5 0 -9 5 -9 10 0 6 7 10 16 10 8 0 12 -4 9
-10z m-405 -21 c10 -18 9 -20 -7 -17 -10 2 -19 11 -21 21 -5 24 15 21 28 -4z
m-177 -23 c22 -46 9 -54 -14 -8 -22 42 -22 42 -11 42 5 0 16 -15 25 -34z m627
22 c0 -19 -18 -43 -25 -36 -4 3 -2 16 5 27 12 24 20 27 20 9z m-234 -10 c4 -7
0 -16 -11 -22 -10 -6 -27 -19 -37 -28 -21 -20 -39 -23 -55 -7 -16 16 36 66 69
68 15 0 30 -4 34 -11z m-476 -34 c0 -30 3 -34 19 -29 11 3 22 2 25 -3 3 -6 -6
-12 -20 -15 -19 -3 -28 1 -34 17 -6 15 -9 4 -9 -40 -1 -48 3 -65 18 -78 11
-10 25 -15 30 -11 17 10 13 45 -5 45 -9 0 -14 7 -12 17 6 30 27 25 36 -9 4
-18 18 -38 31 -44 21 -11 20 -12 -19 -22 -35 -9 -44 -7 -73 12 -30 20 -32 26
-35 90 -2 40 1 65 6 62 6 -3 13 5 16 19 9 37 26 30 26 -11z m200 -8 c-8 -23
-13 -25 -30 -16 -27 14 -25 39 3 49 30 12 40 0 27 -33z m620 4 c0 -4 -9 -10
-21 -13 -23 -6 -35 13 -25 39 6 15 8 15 26 -1 11 -10 20 -21 20 -25z m-475 20
c3 -5 2 -10 -4 -10 -5 0 -13 5 -16 10 -3 6 -2 10 4 10 5 0 13 -4 16 -10z m288
3 c-7 -2 -21 -2 -30 0 -10 3 -4 5 12 5 17 0 24 -2 18 -5z m-363 -34 c0 -7 12
-9 34 -5 25 5 35 3 40 -9 11 -30 -5 -46 -43 -43 -31 3 -36 7 -39 31 -2 16 -10
31 -18 34 -8 3 -14 9 -14 14 0 6 9 5 20 -1 11 -6 20 -16 20 -21z m314 6 c3 -8
12 -15 21 -15 23 0 18 -32 -10 -70 -14 -19 -25 -41 -25 -49 0 -9 -9 2 -19 24
-11 23 -15 44 -10 50 5 5 9 21 9 35 0 39 22 55 34 25z m-64 -10 c0 -8 -9 -20
-19 -27 -18 -11 -18 -13 5 -50 28 -45 29 -54 8 -66 -33 -19 -75 14 -44 33 16
10 11 41 -10 60 -27 25 -25 34 13 50 41 18 47 18 47 0z m220 -21 c0 -8 -8 -14
-17 -14 -34 0 -63 12 -63 26 0 10 7 13 25 8 17 -4 25 -2 25 6 0 10 3 10 15 0
8 -7 15 -19 15 -26z m170 1 c0 -12 -28 -35 -44 -35 -8 0 -7 35 1 43 12 13 43
7 43 -8z m-970 -20 c0 -14 -4 -25 -9 -25 -4 0 -6 11 -3 25 2 14 6 25 8 25 2 0
4 -11 4 -25z m228 13 c18 -24 11 -68 -16 -88 -36 -29 -43 -25 -26 15 7 19 14
46 14 60 0 27 12 32 28 13z m62 -2 c0 -3 -4 -8 -10 -11 -5 -3 -10 -1 -10 4 0
6 5 11 10 11 6 0 10 -2 10 -4z m-122 -28 c-5 -32 -28 -35 -28 -4 0 17 5 26 16
26 10 0 14 -7 12 -22z m312 -24 c0 -13 -22 -24 -51 -24 -25 0 -24 25 3 52 20
20 22 20 35 3 7 -11 13 -24 13 -31z m360 21 c0 -16 -30 -35 -54 -35 -9 0 -16
5 -16 11 0 6 7 8 15 5 11 -4 19 3 25 20 10 25 30 25 30 -1z m-882 -77 l-1 -93
-6 70 c-6 65 -4 115 5 115 2 0 3 -42 2 -92z m768 47 c-7 -18 -26 -20 -26 -2 0
18 24 41 28 27 2 -6 1 -17 -2 -25z m-406 8 c0 -5 -9 -19 -19 -32 -20 -26 -37
-15 -26 19 6 18 45 29 45 13z m60 -19 c0 -8 -4 -14 -9 -14 -6 0 -9 9 -8 19 1
22 17 18 17 -5z m587 20 c-3 -3 -12 -4 -19 -1 -8 3 -5 6 6 6 11 1 17 -2 13 -5z
m-297 -24 c0 -5 -2 -10 -4 -10 -3 0 -8 5 -11 10 -3 6 -1 10 4 10 6 0 11 -4 11
-10z m200 -5 c-7 -8 -22 -15 -34 -15 -12 0 -26 -4 -31 -9 -6 -4 -22 -11 -37
-15 -21 -5 -28 -3 -28 8 0 9 10 15 28 14 15 0 45 7 67 15 51 20 50 20 35 2z
m-873 -148 c-2 -23 -3 -1 -3 48 0 50 1 68 3 42 2 -26 2 -67 0 -90z m383 123
c0 -5 -8 -10 -17 -10 -15 0 -16 2 -3 10 19 12 20 12 20 0z m324 -3 c17 -13 16
-14 -13 -27 -37 -15 -42 -12 -34 18 6 25 21 28 47 9z m-224 -7 c0 -5 -5 -10
-11 -10 -5 0 -7 5 -4 10 3 6 8 10 11 10 2 0 4 -4 4 -10z m-404 -40 c27 0 49
-37 33 -56 -6 -8 -21 -14 -33 -14 -17 0 -22 6 -21 28 0 21 -4 26 -20 24 -17
-2 -21 4 -23 30 l-3 32 24 -22 c13 -12 32 -22 43 -22z m149 29 c4 -6 21 -9 39
-8 50 3 67 0 65 -13 -3 -27 2 -36 24 -42 20 -6 21 -7 4 -17 -9 -5 -22 -7 -27
-4 -6 4 -22 -3 -36 -14 -34 -27 -56 -18 -43 17 6 14 15 32 21 39 16 20 1 28
-27 15 -14 -7 -35 -12 -45 -12 -13 0 -20 -7 -20 -20 0 -11 -4 -20 -10 -20 -5
0 -7 7 -3 16 4 10 -1 22 -12 30 -16 12 -15 14 16 28 42 18 46 18 54 5z m408
-29 c10 -10 2 -12 -40 -7 -51 6 -59 2 -54 -25 0 -5 -3 -8 -9 -8 -5 0 -10 5
-10 10 0 6 -8 10 -18 10 -10 0 -27 7 -38 15 -18 14 -17 15 10 9 16 -4 27 -3
23 2 -8 15 122 9 136 -6z m-263 -10 c0 -5 -2 -10 -4 -10 -3 0 -8 5 -11 10 -3
6 -1 10 4 10 6 0 11 -4 11 -10z m459 1 c10 -6 2 -9 -22 -9 -21 0 -34 4 -31 9
7 11 35 11 53 0z m61 -21 c-12 -16 -26 -30 -31 -30 -12 0 32 59 44 59 5 1 -1
-12 -13 -29z m-426 4 c25 -9 19 -21 -15 -33 -61 -21 -87 -10 -53 23 16 17 41
20 68 10z m111 -4 c3 -5 -1 -10 -10 -10 -9 0 -13 5 -10 10 3 6 8 10 10 10 2 0
7 -4 10 -10z m108 -3 c-13 -5 -23 -16 -23 -22 0 -12 -40 -29 -48 -20 -3 2 3
11 12 20 9 9 16 20 16 24 0 4 15 8 33 8 30 1 30 0 10 -10z m247 -1 c0 -8 -7
-16 -15 -20 -12 -4 -13 -2 -2 14 14 24 17 25 17 6z m-710 -31 c0 -8 -6 -15
-13 -15 -8 0 -27 -12 -43 -26 -21 -19 -23 -23 -7 -15 40 20 48 11 16 -19 -18
-16 -33 -35 -33 -42 0 -9 -3 -9 -10 2 -5 8 -5 19 0 25 14 17 -3 34 -40 40 -30
5 -32 4 -12 -5 20 -8 22 -15 17 -43 -5 -24 -2 -38 8 -49 9 -8 12 -20 7 -27
-12 -20 -54 5 -45 27 22 54 11 69 -27 35 -17 -15 -18 -15 -18 14 0 35 21 52
90 72 25 7 59 19 75 26 17 8 31 14 33 14 1 1 2 -6 2 -14z m706 -20 c-3 -9 0
-15 9 -15 20 0 19 -19 0 -26 -8 -4 -25 -27 -36 -53 l-21 -46 -12 33 c-6 18
-18 37 -26 42 -8 5 -12 10 -7 10 4 0 17 -6 28 -12 18 -11 23 -10 40 11 12 15
17 31 13 47 -4 15 -2 24 6 24 7 0 10 -7 6 -15z m-526 -27 c0 -8 -16 -12 -33
-9 -5 1 -22 3 -38 5 -52 6 -49 19 6 28 22 4 65 -13 65 -24z m60 28 c0 -3 -4
-8 -10 -11 -5 -3 -10 -1 -10 4 0 6 5 11 10 11 6 0 10 -2 10 -4z m-411 -9 c-2
-1 -12 -9 -21 -16 -15 -12 -18 -11 -18 3 0 10 8 16 22 16 12 0 19 -1 17 -3z
m594 -11 c22 8 22 -5 0 -22 -25 -19 -28 -17 -31 14 -1 17 1 22 6 14 5 -7 16
-10 25 -6z m-365 -18 c-3 -7 -14 -14 -26 -16 -16 -3 -20 1 -16 12 7 19 48 22
42 4z m177 2 c3 -5 -2 -10 -12 -11 -10 0 -13 -3 -5 -6 6 -2 12 -12 12 -20 0
-12 -8 -14 -37 -10 l-38 6 28 -17 c15 -9 27 -25 27 -35 0 -9 11 -23 25 -29 14
-6 24 -16 22 -22 -6 -18 -51 -36 -75 -29 -26 6 -28 20 -6 44 19 22 10 41 -18
37 -37 -5 -31 22 13 63 45 41 54 45 64 29z m264 -4 c7 -8 8 -17 3 -19 -4 -3
-13 3 -20 14 -14 22 0 26 17 5z m163 -8 c-7 -7 -12 -8 -12 -2 0 14 12 26 19
19 2 -3 -1 -11 -7 -17z m-322 3 c0 -5 -7 -11 -14 -14 -10 -4 -13 -1 -9 9 6 15
23 19 23 5z m230 5 c0 -3 -4 -8 -10 -11 -5 -3 -10 -1 -10 4 0 6 5 11 10 11 6
0 10 -2 10 -4z m-102 -25 c3 -9 -2 -11 -17 -6 -24 7 -28 -7 -6 -25 20 -17 19
-30 -3 -30 -10 0 -27 -7 -38 -15 -25 -19 -51 -20 -35 -2 6 8 8 17 4 20 -8 9
69 78 81 74 6 -2 12 -9 14 -16z m-465 -38 c2 -21 0 -42 -4 -47 -5 -6 -9 -2 -9
10 0 11 -5 25 -10 30 -11 11 -3 44 10 44 4 0 10 -17 13 -37z m302 27 c3 -5 -1
-10 -10 -10 -9 0 -13 5 -10 10 3 6 8 10 10 10 2 0 7 -4 10 -10z m-351 -24 c-6
-16 -24 -23 -24 -8 0 10 22 33 27 28 2 -2 1 -11 -3 -20z m92 4 c8 0 14 5 14
10 0 6 6 5 14 -2 10 -10 11 -17 2 -30 -25 -41 -56 -28 -55 22 0 14 3 19 6 13
2 -7 11 -13 19 -13z m574 0 c0 -5 -4 -10 -9 -10 -5 0 -6 -20 -3 -45 3 -27 1
-45 -6 -45 -12 0 -24 29 -16 41 3 5 -2 9 -11 9 -13 0 -12 4 5 22 11 12 20 25
20 30 0 4 5 8 10 8 6 0 10 -4 10 -10z m-873 -72 c-2 -13 -4 -5 -4 17 -1 22 1
32 4 23 2 -10 2 -28 0 -40z m173 -20 c11 7 20 8 20 3 0 -6 -4 -12 -10 -16 -5
-3 -7 -12 -4 -19 3 -8 1 -17 -4 -20 -5 -3 -7 -26 -5 -50 5 -42 4 -44 -25 -51
-29 -6 -70 7 -83 27 -3 5 -6 45 -8 88 l-1 80 49 -27 c43 -24 53 -26 71 -15z
m208 5 c3 -27 0 -31 -28 -37 -37 -7 -50 -1 -50 22 0 18 48 54 65 48 6 -1 11
-16 13 -33z m422 19 c0 -5 -7 -17 -15 -28 -12 -16 -16 -17 -24 -4 -13 19 -4
31 16 23 11 -4 14 -3 9 5 -4 7 -2 12 3 12 6 0 11 -4 11 -8z m-150 -22 c0 -5
-15 -10 -32 -9 -28 0 -30 2 -13 9 28 12 45 12 45 0z m-400 -15 c6 -8 9 -19 5
-25 -11 -17 -22 -11 -27 15 -6 28 3 32 22 10z m40 -11 c0 -8 -4 -12 -10 -9 -5
3 -10 13 -10 21 0 8 5 12 10 9 6 -3 10 -13 10 -21z m276 12 c4 -11 16 -14 42
-10 34 4 35 3 19 -14 -19 -21 -53 -21 -84 -2 -16 11 -19 17 -11 27 14 17 27
16 34 -1z m182 -27 c4 -24 3 -24 -12 -4 -19 24 -20 38 -3 33 6 -3 13 -15 15
-29z m-16 -61 c-5 -5 -15 -2 -22 7 -7 8 -19 15 -26 15 -19 0 -17 30 3 45 14
11 19 7 35 -23 10 -20 14 -40 10 -44z m-705 35 c-3 -10 -5 -4 -5 12 0 17 2 24
5 18 2 -7 2 -21 0 -30z m393 -8 c10 -26 26 -33 32 -13 3 7 11 9 24 4 12 -6 15
-10 7 -13 -18 -7 -16 -23 2 -23 8 0 15 -4 15 -10 0 -17 -28 -11 -39 7 -5 10
-13 14 -17 10 -5 -4 -3 -16 3 -26 7 -11 9 -22 6 -25 -10 -10 -101 -7 -108 4
-3 6 -1 10 4 10 6 0 11 5 11 10 0 18 -39 10 -54 -11 -10 -14 -26 -21 -50 -22
-39 -1 -44 -20 -8 -25 27 -4 28 -14 2 -37 -15 -13 -29 -16 -56 -12 -60 10 -60
20 -5 77 50 51 61 70 41 70 -5 0 -10 7 -10 15 0 8 7 15 16 15 8 0 12 -4 9 -10
-11 -19 5 -30 25 -18 27 17 39 -1 13 -19 -25 -17 -30 -33 -10 -33 6 0 19 15
28 33 11 22 24 33 43 35 15 2 30 10 33 18 8 22 33 16 43 -11z m390 10 c0 -18
-39 -59 -47 -51 -4 3 1 14 10 24 10 10 17 24 17 30 0 7 5 12 10 12 6 0 10 -7
10 -15z m92 -17 c-7 -7 -12 -8 -12 -2 0 14 12 26 19 19 2 -3 -1 -11 -7 -17z
m78 17 c0 -9 -43 -55 -51 -55 -12 0 2 33 19 48 16 12 32 16 32 7z m-424 -36
c0 -8 4 -21 8 -30 11 -24 3 -92 -11 -96 -6 -2 -13 4 -16 14 -3 12 -5 8 -6 -9
-1 -22 -6 -28 -23 -29 -21 -1 -21 -2 -3 -6 33 -9 48 -43 18 -43 -9 0 -13 -3
-10 -7 4 -3 1 -13 -6 -21 -10 -13 -8 -14 13 -7 22 7 23 6 11 -9 -17 -20 -50
-20 -75 -1 -29 22 -42 18 -21 -5 17 -19 17 -20 1 -20 -10 0 -26 5 -37 10 -13
7 -19 7 -19 0 0 -5 15 -16 33 -24 l32 -14 -29 -11 c-34 -14 -41 -8 -51 37 -6
27 -4 32 12 32 11 0 34 14 52 32 27 26 30 33 17 40 -10 6 -27 3 -47 -7 -17 -9
-33 -14 -36 -12 -4 5 3 13 47 46 22 17 23 21 10 36 -14 17 -13 18 23 11 26 -5
47 -2 73 10 19 9 32 20 27 23 -13 10 -13 83 0 78 7 -2 12 -10 13 -18z m304 11
c0 -5 -2 -10 -4 -10 -3 0 -8 5 -11 10 -3 6 -1 10 4 10 6 0 11 -4 11 -10z
m-235 -20 c3 -5 -1 -10 -9 -10 -9 0 -16 5 -16 10 0 6 4 10 9 10 6 0 13 -4 16
-10z m250 -19 c-3 -12 -13 -21 -21 -21 -12 0 -12 4 3 24 21 28 28 26 18 -3z
m-824 -61 c5 0 9 8 9 17 0 13 3 14 12 5 7 -7 20 -12 30 -12 15 0 18 -9 18 -60
0 -33 -4 -60 -9 -60 -5 0 -16 -3 -25 -6 -10 -4 -16 -1 -16 9 0 9 -4 19 -10 22
-6 4 -10 -5 -10 -20 0 -19 8 -29 30 -39 23 -9 27 -15 18 -24 -16 -16 -58 -15
-63 1 -2 6 -6 66 -8 132 -5 98 -4 112 5 78 6 -24 15 -43 19 -43z m933 40 c-5
-5 -10 3 -11 18 -1 22 0 24 9 8 6 -10 6 -22 2 -26z m-303 -1 c12 -6 18 -17 15
-25 -3 -9 4 -16 21 -20 17 -5 28 -3 31 4 5 17 22 15 22 -3 0 -8 -3 -14 -7 -13
-5 1 -23 -2 -42 -6 -29 -7 -36 -5 -62 24 -39 42 -26 65 22 39z m60 -12 c-13
-13 -26 -3 -16 12 3 6 11 8 17 5 6 -4 6 -10 -1 -17z m-111 -20 c0 -13 6 -29
13 -36 10 -11 8 -13 -13 -7 -14 3 -28 6 -31 6 -3 0 -4 14 -1 30 5 35 32 41 32
7z m194 -18 c-24 -26 -33 -24 -30 9 2 15 4 28 5 30 0 1 10 -2 22 -8 20 -11 20
-12 3 -31z m-476 -17 c2 -14 -2 -22 -11 -22 -19 0 -40 26 -32 40 11 18 40 6
43 -18z m557 8 c3 -5 -1 -10 -10 -10 -9 0 -13 5 -10 10 3 6 8 10 10 10 2 0 7
-4 10 -10z m-505 -9 c0 -12 -20 -25 -27 -18 -7 7 6 27 18 27 5 0 9 -4 9 -9z
m580 1 c0 -19 -23 -32 -37 -21 -20 17 -15 29 12 29 14 0 25 -4 25 -8z m66 -41
c-4 -5 -15 -7 -26 -4 -20 5 -20 6 -4 25 16 16 19 17 26 3 5 -8 7 -19 4 -24z
m-269 18 c8 -8 17 -8 32 0 35 19 24 4 -41 -59 -108 -102 -112 -104 -106 -68 2
12 16 29 32 37 31 17 52 56 36 66 -21 13 -10 25 31 34 3 0 10 -4 16 -10z
m-437 -31 c0 -3 -10 -10 -22 -14 l-23 -8 25 -6 c36 -9 37 -35 2 -49 -19 -8
-40 -31 -57 -62 -15 -28 -29 -48 -32 -45 -3 3 2 17 11 30 20 31 20 36 2 36 -8
0 -26 -15 -41 -32 -14 -18 -23 -25 -19 -15 6 15 2 18 -16 15 -16 -2 -31 -17
-44 -43 -32 -60 -105 -79 -78 -19 9 19 17 24 31 19 16 -5 24 3 40 40 19 42 42
57 56 36 8 -14 59 6 81 30 13 14 15 25 8 36 -12 19 -83 44 -106 37 -12 -3 -18
0 -18 10 0 13 10 15 58 10 45 -5 60 -3 70 9 10 12 18 13 42 4 17 -6 30 -15 30
-19z m364 16 c11 -28 6 -54 -9 -54 -14 0 -35 37 -35 61 0 15 37 10 44 -7z
m185 -1 c-1 -10 1 -26 6 -36 4 -10 5 -20 2 -23 -11 -11 -27 8 -27 31 0 19 -4
23 -17 18 -16 -6 -16 -5 -4 10 18 22 43 22 40 0z m48 -7 c-7 -21 -37 -19 -37
2 0 15 5 19 20 15 12 -3 19 -11 17 -17z m-362 4 c3 -5 1 -10 -4 -10 -6 0 -11
5 -11 10 0 6 2 10 4 10 3 0 8 -4 11 -10z m51 -12 c-10 -6 -20 -7 -24 -3 -9 8
20 25 31 18 5 -3 2 -10 -7 -15z m374 -28 c0 -16 -5 -30 -11 -30 -5 0 -7 5 -3
11 4 7 1 10 -7 7 -8 -2 -15 -17 -17 -33 -4 -33 -67 -121 -77 -106 -3 6 1 25 8
43 16 38 88 138 100 138 4 0 7 -13 7 -30z m47 -40 c-2 -50 -4 -57 -14 -43 -7
9 -13 25 -13 34 0 17 20 69 26 69 2 0 2 -27 1 -60z m-808 16 c9 -11 8 -18 -4
-30 -21 -21 -41 -20 -49 0 -13 34 30 58 53 30z m558 -18 c-3 -8 -6 -5 -6 6 -1
11 2 17 5 13 3 -3 4 -12 1 -19z m-170 -32 c-4 -9 -11 -16 -18 -16 -6 0 -8 7
-5 16 3 9 6 21 6 27 0 8 3 8 11 0 7 -7 9 -19 6 -27z m143 9 c0 -13 -29 -29
-37 -21 -3 2 0 14 7 25 11 22 30 20 30 -4z m101 15 c14 0 11 -14 -7 -36 -13
-16 -15 -16 -10 -1 3 11 0 17 -9 17 -8 0 -15 7 -15 16 0 11 5 14 16 10 9 -3
20 -6 25 -6z m-297 -25 c-4 -15 -1 -32 6 -40 10 -13 8 -15 -13 -15 -17 0 -25
5 -22 13 18 51 25 67 30 67 3 0 3 -11 -1 -25z m-468 -30 c-15 -19 -31 -35 -36
-35 -5 0 -16 -7 -24 -16 -15 -14 -16 -13 -17 8 0 13 -2 31 -4 41 -3 14 4 17
35 17 21 0 43 6 50 15 26 31 22 4 -4 -30z m417 8 c-10 -15 -28 -36 -40 -46
-13 -10 -23 -25 -23 -34 0 -10 -6 -13 -16 -9 -9 3 -20 6 -25 6 -19 0 -8 29 19
49 15 11 36 29 47 40 19 18 47 31 53 25 2 -1 -5 -15 -15 -31z m-177 -4 c8 -27
17 -36 53 -56 2 -1 -6 -17 -18 -36 -26 -42 -26 -46 -1 -40 24 6 25 -7 5 -47
-11 -21 -20 -27 -35 -23 -11 3 -20 0 -20 -6 0 -6 11 -13 25 -17 34 -9 21 -24
-21 -24 -19 0 -34 -5 -34 -11 0 -8 14 -10 43 -6 41 5 41 4 12 -8 -16 -7 -45
-15 -64 -19 -30 -5 -33 -4 -28 14 9 33 -8 32 -62 -5 -79 -53 -151 -60 -151
-14 0 17 4 20 24 15 15 -4 28 0 36 9 18 21 -4 45 -41 45 -33 0 -35 7 -14 38
14 20 14 21 0 16 -10 -4 -15 0 -15 15 0 13 5 19 14 15 17 -6 76 22 76 36 0 16
63 38 82 29 21 -11 59 -12 56 -1 -2 8 30 80 45 100 15 19 23 14 33 -19z m445
-11 c-12 -10 -26 -16 -31 -13 -6 4 -1 14 12 25 30 24 46 14 19 -12z m-71 2 c0
-5 -9 -10 -20 -10 -11 0 -20 5 -20 10 0 6 9 10 20 10 11 0 20 -4 20 -10z m120
-7 c0 -5 -7 -17 -15 -27 -11 -14 -18 -17 -26 -9 -7 7 -5 15 6 27 17 17 35 21
35 9z m-90 -40 c0 -6 -6 -13 -12 -16 -10 -4 -10 -7 0 -18 9 -9 12 -10 12 -1 0
7 5 12 10 12 6 0 10 -9 10 -20 0 -23 -3 -24 -33 -7 -35 19 -67 49 -62 58 8 12
75 5 75 -8z m-89 -14 c16 -11 29 -28 29 -36 0 -14 -2 -14 -18 0 -24 22 -31 21
-25 -3 3 -11 9 -20 14 -20 5 0 9 -7 9 -15 0 -18 12 -19 28 -3 6 6 15 9 18 5
11 -11 -26 -46 -42 -40 -8 3 -14 -1 -14 -11 0 -25 -17 -19 -22 9 -3 14 0 25 6
26 7 0 6 3 -1 6 -7 2 -13 21 -13 42 0 20 -5 42 -12 49 -21 21 11 14 43 -9z
m306 -3 c-4 -9 -13 -13 -22 -10 -14 6 -13 8 2 19 21 16 28 12 20 -9z m29 -2
c-4 -9 -9 -15 -11 -12 -3 3 -3 13 1 22 4 9 9 15 11 12 3 -3 3 -13 -1 -22z
m-122 0 c22 -9 20 -41 -4 -49 -11 -3 -35 -25 -55 -47 -22 -26 -35 -36 -35 -25
0 9 5 19 12 23 8 5 6 10 -8 15 -18 7 -18 8 2 8 24 1 46 23 43 43 -5 37 8 46
45 32z m-273 -26 c0 -13 2 -31 4 -40 4 -22 -23 -24 -31 -3 -8 20 4 65 16 65 6
0 10 -10 11 -22z m-81 2 c0 -5 -5 -10 -11 -10 -5 0 -7 5 -4 10 3 6 8 10 11 10
2 0 4 -4 4 -10z m424 -22 c9 -12 14 -24 12 -26 -5 -4 -46 35 -46 43 0 13 20 3
34 -17z m-493 2 c13 -7 19 -21 19 -43 0 -18 7 -42 15 -53 12 -18 12 -24 0 -41
-16 -22 -52 -36 -60 -23 -3 4 2 13 10 20 19 16 19 66 0 74 -9 3 -15 19 -15 41
0 38 2 40 31 25z m99 -60 c0 -16 -5 -30 -11 -30 -6 0 -9 7 -5 15 3 8 -2 21
-10 30 -14 13 -13 15 5 15 17 0 21 -6 21 -30z m342 -16 c-18 -25 -32 -31 -32
-14 0 20 24 48 37 43 10 -4 9 -10 -5 -29z m-382 5 c0 -6 -4 -7 -10 -4 -5 3
-10 11 -10 16 0 6 5 7 10 4 6 -3 10 -11 10 -16z m470 -13 c0 -17 -50 -44 -68
-38 -7 2 2 14 20 27 39 28 48 30 48 11z m-217 -32 c-5 -12 -44 -27 -51 -19 -3
3 1 11 7 19 15 17 51 17 44 0z m-133 -4 c22 0 31 -7 41 -30 8 -16 28 -37 46
-47 39 -21 35 -31 -5 -14 -15 6 -35 24 -45 39 l-16 27 -2 -35 c-1 -19 0 -42 1
-50 1 -11 -2 -10 -13 4 -20 27 -37 11 -37 -34 0 -42 -15 -62 -23 -30 -3 11 -1
23 4 26 5 3 9 19 9 35 0 37 -43 83 -70 76 -13 -3 -17 0 -13 9 3 8 18 14 34 14
16 0 29 5 29 11 0 6 7 8 16 5 9 -3 28 -6 44 -6z m360 -9 c0 -6 -4 -13 -10 -16
-5 -3 -10 1 -10 9 0 9 5 16 10 16 6 0 10 -4 10 -9z m-150 -15 c0 -11 -19 -15
-25 -6 -3 5 1 10 9 10 9 0 16 -2 16 -4z m69 -30 c-8 -6 -23 -30 -33 -54 -16
-35 -58 -89 -45 -57 20 50 74 133 82 128 6 -4 5 -10 -4 -17z m-149 4 c0 -5
-10 -10 -22 -10 -19 0 -20 2 -8 10 19 13 30 13 30 0z m189 -21 c-13 -26 -23
-18 -14 10 3 12 11 19 16 16 5 -4 5 -14 -2 -26z m-705 -21 c-3 -5 -12 -4 -20
3 -7 6 -11 15 -8 21 3 5 12 4 20 -3 7 -6 11 -15 8 -21z m161 12 c3 -5 -2 -23
-11 -39 -28 -48 -15 -62 53 -55 l58 6 22 -51 c19 -46 20 -53 6 -58 -23 -9 -68
11 -65 28 3 20 -33 53 -48 44 -7 -4 -10 -19 -6 -35 4 -23 1 -29 -17 -34 -27
-7 -107 -8 -107 -1 0 3 16 20 37 38 25 24 34 39 30 51 -6 15 -9 15 -36 2 -35
-18 -71 -62 -71 -86 0 -37 81 -51 145 -24 31 13 46 14 83 4 24 -6 52 -8 63 -5
14 5 19 2 19 -11 0 -9 7 -22 15 -28 11 -8 -37 -11 -187 -10 -226 1 -233 1
-199 15 37 15 18 22 -26 10 -63 -18 -85 -15 -81 12 2 15 11 23 28 25 28 4 70
39 70 59 0 7 -11 13 -24 13 -18 0 -25 7 -30 28 -4 15 -9 35 -12 45 -4 13 4 21
31 33 51 21 75 11 75 -31 0 -47 30 -64 68 -39 36 23 51 44 52 70 0 11 3 24 7
27 10 11 51 8 58 -3z m105 -19 c0 -37 -24 -59 -45 -41 -20 17 -19 26 5 50 28
28 40 25 40 -9z m-446 -30 c-12 -30 -16 -98 -7 -117 6 -10 8 -38 5 -61 -3 -33
-8 -43 -22 -43 -18 0 -18 -6 -4 172 4 62 8 76 20 71 9 -3 13 -12 8 -22z m247
11 c-12 -23 -41 -48 -41 -35 0 5 7 19 16 31 19 27 39 30 25 4z m401 1 c25 -23
23 -32 -9 -30 -16 1 -28 8 -27 15 3 38 8 40 36 15z m257 -30 c0 -34 -1 -36
-11 -16 -6 12 -8 29 -5 37 11 27 17 18 16 -21z m-549 7 c0 -5 -5 -10 -11 -10
-5 0 -7 5 -4 10 3 6 8 10 11 10 2 0 4 -4 4 -10z m-314 -85 c-3 -8 -10 -15 -16
-15 -11 0 -14 59 -3 87 6 14 9 10 16 -20 5 -20 6 -44 3 -52z m450 34 c4 -22
11 -42 17 -46 15 -9 47 35 47 63 0 13 5 24 10 24 6 0 10 -15 10 -33 0 -23 -8
-41 -28 -60 -15 -15 -32 -27 -38 -27 -12 0 -44 78 -44 108 0 36 19 15 26 -29z
m237 16 c-3 -9 -8 -14 -10 -11 -3 3 -2 9 2 15 9 16 15 13 8 -4z m-108 -5 c-3
-5 -11 -10 -16 -10 -6 0 -7 5 -4 10 3 6 11 10 16 10 6 0 7 -4 4 -10z m236 -63
c-8 -8 -11 2 -10 34 l1 44 10 -34 c6 -23 6 -37 -1 -44z m-201 40 c0 -7 -13
-18 -30 -24 -35 -13 -40 -2 -7 20 27 20 37 21 37 4z m267 -39 c-3 -7 -5 -2 -5
12 0 14 2 19 5 13 2 -7 2 -19 0 -25z m-277 -15 c-1 -21 -19 -35 -36 -28 -18 8
-18 8 -1 12 9 3 17 9 17 14 0 5 5 9 10 9 6 0 10 -3 10 -7z m-50 -42 c0 -11
-52 -21 -65 -13 -5 3 4 11 20 18 30 12 45 10 45 -5z m300 9 c0 -5 -4 -10 -10
-10 -5 0 -10 5 -10 10 0 6 5 10 10 10 6 0 10 -4 10 -10z m67 -42 c-3 -7 -5 -2
-5 12 0 14 2 19 5 13 2 -7 2 -19 0 -25z m-282 6 c22 -22 5 -40 -23 -25 -11 6
-36 11 -54 12 l-33 1 35 13 c47 18 56 18 75 -1z m255 -4 c0 -4 -20 -10 -45
-12 -25 -2 -45 0 -45 4 0 5 13 8 29 8 17 0 33 5 36 10 7 11 25 4 25 -10z m70
-46 c0 -2 -7 -4 -15 -4 -8 0 -15 4 -15 10 0 5 7 7 15 4 8 -4 15 -8 15 -10z
m70 6 c0 -5 -7 -10 -16 -10 -8 0 -12 5 -9 10 3 6 10 10 16 10 5 0 9 -4 9 -10z
m-280 -10 c0 -5 -10 -10 -22 -10 -19 0 -20 2 -8 10 19 13 30 13 30 0z m115 -1
c-55 -11 -75 -11 -75 1 0 6 25 9 58 9 56 -1 57 -1 17 -10z m-617 -6 c-10 -2
-26 -2 -35 0 -10 3 -2 5 17 5 19 0 27 -2 18 -5z"/>
<path d="M170 1089 c0 -6 7 -9 15 -6 8 4 22 -5 34 -21 15 -20 20 -23 21 -10 0
9 -7 24 -16 32 -18 18 -54 21 -54 5z"/>
<path d="M360 653 c-19 -3 -39 -9 -45 -14 -6 -6 2 -7 20 -4 17 3 37 1 45 -5
13 -9 12 -13 -9 -30 -28 -24 -39 -25 -80 -4 -22 11 -41 13 -59 8 l-27 -8 25
-3 c48 -7 56 -16 20 -23 l-35 -7 28 -11 c31 -13 93 -2 133 23 11 7 31 15 44
17 13 1 25 8 27 13 4 12 -34 56 -45 53 -4 0 -23 -3 -42 -5z"/>
<path d="M445 570 c3 -5 8 -10 11 -10 2 0 4 5 4 10 0 6 -5 10 -11 10 -5 0 -7
-4 -4 -10z"/>
<path d="M1280 2483 c0 -10 5 -25 10 -33 7 -11 10 -7 10 18 0 17 -4 32 -10 32
-5 0 -10 -8 -10 -17z"/>
<path d="M1470 2474 c0 -14 -4 -23 -10 -19 -13 8 -14 12 15 -171 14 -87 24
-188 24 -224 l-1 -65 -14 65 c-7 36 -13 80 -14 98 0 22 -5 32 -16 32 -9 0 -14
3 -12 8 2 4 10 19 17 34 12 24 12 33 -4 70 -24 55 -24 55 -35 38 -14 -21 -12
-43 2 -34 8 5 9 2 4 -12 -10 -26 -10 -23 -1 -79 4 -27 14 -60 22 -71 19 -29
30 -218 14 -228 -9 -6 -9 -11 -1 -21 12 -15 16 -238 5 -298 -4 -22 -3 -37 3
-37 10 0 24 134 27 251 1 57 5 72 28 99 15 17 27 38 27 45 0 18 37 38 55 31
20 -7 45 27 45 62 0 17 5 34 10 37 6 3 10 15 10 27 0 14 5 18 15 14 10 -3 18
1 22 12 4 9 12 20 19 25 14 8 29 65 20 74 -3 3 -10 -7 -16 -23 l-12 -29 -14
25 c-14 24 -14 23 -8 -17 4 -28 2 -43 -5 -43 -6 0 -12 8 -12 18 -1 9 -3 40 -6
67 -2 28 -3 82 -3 120 1 39 -3 81 -9 95 l-10 25 0 -27 c-1 -15 -5 -37 -9 -50
-5 -14 -3 -58 4 -108 16 -104 19 -148 11 -157 -13 -12 -15 2 -27 125 -6 68
-15 133 -21 145 -6 15 -7 -2 -3 -53 4 -41 8 -109 9 -150 0 -41 6 -85 13 -97 9
-17 9 -28 1 -47 -13 -28 -29 -26 -29 5 0 10 -5 19 -11 19 -7 0 -9 -12 -5 -35
6 -30 4 -35 -13 -35 -27 0 -36 18 -18 38 22 25 26 76 17 199 -10 126 -23 170
-33 106 -4 -21 -3 -54 2 -73 15 -59 21 -119 13 -124 -4 -2 -16 50 -27 117 -10
67 -23 127 -28 132 -6 6 -7 -2 -3 -25 13 -76 25 -187 24 -225 -1 -33 -2 -30
-9 20 -4 33 -12 87 -18 120 -20 127 -23 150 -13 137 14 -21 24 12 12 43 -12
32 -20 32 -20 -1z m-33 -226 c-3 -8 -6 -5 -6 6 -1 11 2 17 5 13 3 -3 4 -12 1
-19z m60 -280 c-3 -8 -6 -5 -6 6 -1 11 2 17 5 13 3 -3 4 -12 1 -19z"/>
<path d="M1530 2416 c0 -9 5 -16 10 -16 6 0 10 4 10 9 0 6 -4 13 -10 16 -5 3
-10 -1 -10 -9z"/>
<path d="M1286 2395 c8 -35 10 -39 17 -28 3 5 -1 19 -9 33 l-14 25 6 -30z"/>
<path d="M1570 2390 c0 -5 5 -10 11 -10 5 0 7 5 4 10 -3 6 -8 10 -11 10 -2 0
-4 -4 -4 -10z"/>
<path d="M2031 2324 c0 -11 3 -14 6 -6 3 7 2 16 -1 19 -3 4 -6 -2 -5 -13z"/>
<path d="M2548 2312 c-5 -38 7 -64 15 -32 3 12 2 32 -2 43 -7 19 -9 18 -13
-11z"/>
<path d="M1305 2288 c4 -24 11 -68 15 -98 5 -30 14 -77 20 -105 33 -146 53
-256 53 -302 0 -29 4 -50 8 -47 4 2 10 -2 12 -8 3 -7 6 10 8 37 l2 50 10 -67
c11 -76 27 -91 27 -24 0 73 -12 166 -21 160 -5 -3 -6 8 -3 23 3 16 -6 98 -20
182 -14 84 -26 155 -26 157 0 2 -4 4 -9 4 -4 0 -7 -10 -5 -22 2 -13 10 -65 19
-117 18 -113 18 -132 -1 -71 l-14 45 5 -39 c2 -21 11 -46 20 -56 17 -19 20
-45 4 -34 -8 5 -10 0 -6 -17 3 -13 8 -46 11 -74 l6 -50 -14 50 c-8 28 -19 79
-25 115 -30 176 -45 246 -54 257 -5 7 -6 20 -3 29 8 20 -3 64 -16 64 -7 0 -8
-15 -3 -42z"/>
<path d="M1932 2305 c0 -16 2 -22 5 -12 2 9 2 23 0 30 -3 6 -5 -1 -5 -18z"/>
<path d="M2616 2321 c-8 -12 0 -410 8 -418 3 -4 6 91 6 210 0 119 -2 217 -4
217 -3 0 -7 -4 -10 -9z"/>
<path d="M1282 2300 c0 -14 2 -19 5 -12 2 6 2 18 0 25 -3 6 -5 1 -5 -13z"/>
<path d="M1987 2307 c-3 -8 -1 -20 4 -28 6 -10 9 -7 9 14 0 29 -5 35 -13 14z"/>
<path d="M2072 2290 c0 -19 2 -27 5 -17 2 9 2 25 0 35 -3 9 -5 1 -5 -18z"/>
<path d="M110 2283 c0 -18 5 -33 10 -33 13 0 13 30 0 50 -7 11 -10 7 -10 -17z"/>
<path d="M1701 2294 c0 -11 3 -14 6 -6 3 7 2 16 -1 19 -3 4 -6 -2 -5 -13z"/>
<path d="M328 2283 c7 -3 16 -2 19 1 4 3 -2 6 -13 5 -11 0 -14 -3 -6 -6z"/>
<path d="M1260 2273 c0 -12 5 -25 10 -28 13 -8 13 15 0 35 -8 12 -10 11 -10
-7z"/>
<path d="M660 2260 c-176 -21 -408 -27 -460 -11 -19 6 -35 11 -36 11 -1 0 1
-21 3 -47 7 -63 23 -80 23 -24 0 39 2 42 23 35 40 -13 264 -5 457 16 47 5 111
12 143 16 31 3 57 10 57 15 0 12 -25 11 -210 -11z"/>
<path d="M1957 2260 c-3 -13 0 -20 9 -20 15 0 19 26 5 34 -5 3 -11 -3 -14 -14z"/>
<path d="M1904 2200 c-8 -38 -8 -53 1 -60 9 -8 14 1 17 32 3 24 7 49 9 57 2 7
-1 15 -6 17 -6 3 -16 -18 -21 -46z"/>
<path d="M20 2173 c0 -38 4 -74 9 -82 6 -9 9 16 10 67 0 48 -3 82 -9 82 -6 0
-10 -29 -10 -67z"/>
<path d="M142 2210 c0 -14 2 -19 5 -12 2 6 2 18 0 25 -3 6 -5 1 -5 -13z"/>
<path d="M1211 2215 c9 -11 19 -27 22 -35 5 -13 6 -13 6 1 1 9 -9 24 -21 35
-23 19 -23 19 -7 -1z"/>
<path d="M1980 2221 c0 -5 5 -13 10 -16 6 -3 10 -2 10 4 0 5 -4 13 -10 16 -5
3 -10 2 -10 -4z"/>
<path d="M1282 2195 c0 -16 2 -22 5 -12 2 9 2 23 0 30 -3 6 -5 -1 -5 -18z"/>
<path d="M356 2192 c-8 -14 11 -223 22 -234 10 -10 3 211 -8 231 -5 9 -9 10
-14 3z"/>
<path d="M644 2184 c3 -9 6 -22 6 -30 0 -9 4 -13 9 -10 11 7 2 56 -11 56 -6 0
-7 -7 -4 -16z"/>
<path d="M430 2141 c0 -27 7 -64 15 -82 l14 -34 0 45 c1 60 -10 120 -20 120
-5 0 -9 -22 -9 -49z"/>
<path d="M554 2116 c3 -43 6 -94 6 -113 0 -18 4 -33 9 -33 14 0 7 199 -8 213
-11 10 -12 -2 -7 -67z"/>
<path d="M230 2163 c1 -10 5 -49 10 -87 7 -60 5 -80 -12 -135 -23 -72 -36 -94
-49 -85 -5 3 -9 -4 -9 -15 0 -11 -4 -23 -10 -26 -5 -3 -10 -15 -10 -26 0 -10
5 -19 10 -19 6 0 10 8 10 18 0 10 7 27 16 38 15 18 15 18 9 -8 -11 -55 5 -26
25 45 12 39 27 86 35 102 7 17 16 41 20 55 3 14 12 36 18 49 l12 24 6 -29 c6
-26 7 -24 7 11 0 22 -4 51 -8 65 l-8 25 -1 -26 c-1 -15 -8 -32 -16 -39 -8 -7
-16 -22 -16 -34 -2 -32 -16 30 -18 77 0 20 -5 37 -11 37 -5 0 -10 -8 -10 -17z"/>
<path d="M700 2163 c0 -10 5 -25 10 -33 7 -11 10 -7 10 18 0 17 -4 32 -10 32
-5 0 -10 -8 -10 -17z"/>
<path d="M277 2164 c-4 -4 -7 -17 -7 -28 1 -19 1 -20 11 -3 11 19 8 43 -4 31z"/>
<path d="M495 2119 c4 -28 8 -69 9 -90 1 -21 6 -42 10 -46 5 -5 6 24 2 62 -3
39 -6 82 -6 98 0 15 -5 27 -11 27 -7 0 -9 -17 -4 -51z"/>
<path d="M880 2146 c0 -8 5 -18 10 -21 6 -3 10 3 10 14 0 12 -4 21 -10 21 -5
0 -10 -6 -10 -14z"/>
<path d="M1951 2102 c-14 -64 -21 -75 -58 -86 -20 -6 -23 -4 -23 18 0 14 5 28
10 31 6 3 10 12 10 20 0 7 -24 -11 -52 -39 -29 -29 -61 -55 -71 -59 -10 -4
-15 -11 -12 -17 4 -7 12 -7 25 0 45 24 41 -2 -5 -29 -37 -21 -51 -15 -40 19 6
20 6 20 -34 -1 -40 -20 -61 -59 -61 -112 0 -28 18 -10 25 26 14 65 55 99 55
45 0 -17 -2 -18 -15 -8 -13 11 -15 8 -15 -19 0 -17 -16 -62 -36 -100 -28 -54
-34 -73 -26 -88 10 -17 11 -17 18 2 30 84 64 143 113 198 33 36 49 34 54 -5 3
-27 4 -25 5 12 2 33 7 49 21 57 15 10 21 10 24 0 3 -7 6 -6 6 4 1 10 19 23 45
33 44 17 45 19 51 70 10 81 2 98 -14 28z m-101 -107 c-16 -19 -30 -19 -30 0 0
17 33 38 38 24 2 -5 -2 -16 -8 -24z"/>
<path d="M1301 2134 c0 -11 3 -14 6 -6 3 7 2 16 -1 19 -3 4 -6 -2 -5 -13z"/>
<path d="M1370 2126 c0 -14 4 -27 8 -30 5 -3 6 8 4 25 -5 35 -12 38 -12 5z"/>
<path d="M761 2123 c0 -5 4 -17 9 -28 8 -18 9 -17 9 8 1 15 -3 27 -9 27 -5 0
-10 -3 -9 -7z"/>
<path d="M828 2124 c-8 -7 2 -44 12 -44 4 0 5 11 2 25 -5 27 -6 28 -14 19z"/>
<path d="M661 2104 c0 -11 3 -14 6 -6 3 7 2 16 -1 19 -3 4 -6 -2 -5 -13z"/>
<path d="M1310 2078 c0 -20 5 -40 10 -43 13 -8 13 45 0 65 -7 11 -10 6 -10
-22z"/>
<path d="M770 2024 c0 -8 5 -12 10 -9 6 4 8 11 5 16 -9 14 -15 11 -15 -7z"/>
<path d="M1756 2032 c-2 -4 -1 -14 5 -22 7 -12 9 -10 9 8 0 23 -5 28 -14 14z"/>
<path d="M32 2005 c0 -16 2 -22 5 -12 2 9 2 23 0 30 -3 6 -5 -1 -5 -18z"/>
<path d="M137 2018 c-2 -7 -1 -22 4 -33 6 -16 8 -14 8 13 1 33 -4 41 -12 20z"/>
<path d="M601 1999 c0 -19 5 -43 10 -54 6 -15 8 -7 5 28 -4 55 -16 77 -15 26z"/>
<path d="M940 2011 c0 -11 5 -23 10 -26 6 -4 10 5 10 19 0 14 -4 26 -10 26 -5
0 -10 -9 -10 -19z"/>
<path d="M660 1986 c0 -20 4 -36 9 -36 12 0 11 59 -1 66 -4 3 -8 -11 -8 -30z"/>
<path d="M190 1975 c0 -8 5 -15 10 -15 6 0 10 7 10 15 0 8 -4 15 -10 15 -5 0
-10 -7 -10 -15z"/>
<path d="M31 1948 c0 -13 4 -43 8 -68 6 -42 7 -43 14 -17 4 15 3 46 -3 67 -12
44 -20 52 -19 18z"/>
<path d="M1291 1954 c0 -11 3 -14 6 -6 3 7 2 16 -1 19 -3 4 -6 -2 -5 -13z"/>
<path d="M1336 1920 c2 -30 8 -82 14 -115 5 -33 10 -61 10 -63 0 -2 4 -1 8 2
14 9 2 126 -18 171 -5 11 -11 29 -14 40 -2 11 -3 -5 0 -35z"/>
<path d="M1850 1941 c0 -6 5 -13 10 -16 6 -3 10 1 10 9 0 9 -4 16 -10 16 -5 0
-10 -4 -10 -9z"/>
<path d="M142 1870 c1 -21 5 -37 10 -34 11 7 10 74 -2 74 -5 0 -9 -18 -8 -40z"/>
<path d="M265 1890 c-3 -5 -1 -18 4 -27 9 -16 10 -14 11 10 0 28 -5 34 -15 17z"/>
<path d="M2141 1884 c0 -11 3 -14 6 -6 3 7 2 16 -1 19 -3 4 -6 -2 -5 -13z"/>
<path d="M2618 1793 c-2 -113 -4 -145 -12 -193 l-6 -35 14 30 c16 34 29 282
15 291 -5 3 -10 -39 -11 -93z"/>
<path d="M1610 1854 c0 -10 -5 -32 -12 -51 -12 -34 -5 -54 13 -36 14 14 21 91
9 98 -6 4 -10 -2 -10 -11z"/>
<path d="M1862 1850 c0 -14 2 -19 5 -12 2 6 2 18 0 25 -3 6 -5 1 -5 -13z"/>
<path d="M2676 1848 c-3 -13 -6 -54 -6 -92 0 -60 -2 -67 -15 -56 -13 11 -15 7
-15 -23 0 -20 5 -39 10 -42 16 -10 28 36 35 138 7 95 4 120 -9 75z"/>
<path d="M1811 1844 c0 -11 3 -14 6 -6 3 7 2 16 -1 19 -3 4 -6 -2 -5 -13z"/>
<path d="M1302 1828 c5 -15 28 -23 28 -10 0 5 -7 13 -16 16 -10 4 -14 1 -12
-6z"/>
<path d="M1701 1784 c0 -11 3 -14 6 -6 3 7 2 16 -1 19 -3 4 -6 -2 -5 -13z"/>
<path d="M1320 1759 c0 -11 5 -17 10 -14 6 3 10 13 10 21 0 8 -4 14 -10 14 -5
0 -10 -9 -10 -21z"/>
<path d="M2157 1694 c-4 -4 -7 -17 -7 -28 1 -19 1 -20 11 -3 11 19 8 43 -4 31z"/>
<path d="M2042 1637 c-14 -40 -15 -47 -2 -47 9 0 26 67 18 75 -2 3 -10 -10
-16 -28z"/>
<path d="M1395 1632 c-3 -7 -3 -18 1 -23 3 -5 0 -9 -6 -9 -8 0 -10 -9 -6 -25
4 -16 2 -25 -5 -25 -8 0 -8 -4 1 -15 16 -20 40 -2 40 30 0 12 9 30 20 40 11
10 20 23 20 29 0 6 -7 2 -15 -8 -15 -20 -15 -20 -15 0 0 23 -26 28 -35 6z"/>
<path d="M1795 1547 c-4 -10 -5 -21 -1 -24 10 -10 18 4 13 24 -4 17 -4 17 -12
0z"/>
<path d="M1471 1550 c-6 -14 -5 -250 0 -250 18 0 24 166 9 225 -4 17 -8 28 -9
25z"/>
<path d="M1297 1523 c-4 -6 -8 -40 -8 -75 0 -35 -4 -94 -9 -133 -13 -98 -19
-275 -8 -275 4 0 9 46 9 103 1 68 4 92 9 72 8 -31 10 -29 16 20 15 121 9 316
-9 288z"/>
<path d="M1417 1513 c-11 -10 -8 -53 3 -53 6 0 10 14 10 30 0 31 -2 35 -13 23z"/>
<path d="M1330 1458 c0 -32 15 -45 24 -21 4 9 0 23 -9 32 -13 14 -15 13 -15
-11z"/>
<path d="M1420 1421 c0 -5 -3 -16 -6 -25 -4 -11 -1 -16 10 -16 18 0 22 35 6
45 -5 3 -10 2 -10 -4z"/>
<path d="M1382 1368 c-15 -15 -16 -48 -2 -48 6 0 11 -10 11 -22 1 -13 5 -5 9
17 9 47 1 72 -18 53z"/>
<path d="M1425 1358 c-9 -29 -9 -44 0 -48 5 -3 11 10 12 28 3 32 -4 43 -12 20z"/>
<path d="M1334 1316 c-3 -8 -1 -34 4 -58 l10 -43 1 58 c1 56 -4 71 -15 43z"/>
<path d="M1431 1218 c-1 -38 2 -46 14 -42 8 4 15 18 15 33 0 19 -3 22 -9 12
-7 -11 -10 -7 -14 15 -3 20 -4 15 -6 -18z"/>
<path d="M1368 1224 c-3 -5 -3 -29 1 -54 6 -39 8 -43 18 -25 7 15 7 29 -2 54
-6 19 -14 31 -17 25z"/>
<path d="M1432 1100 c0 -14 2 -19 5 -12 2 6 2 18 0 25 -3 6 -5 1 -5 -13z"/>
<path d="M1386 1082 c-3 -6 -4 -23 0 -37 5 -20 9 -23 15 -13 6 8 8 -4 8 -32 0
-25 -3 -39 -6 -32 -2 6 -9 10 -14 6 -5 -3 -9 10 -9 28 0 35 -14 66 -22 52 -12
-21 -19 -104 -9 -104 6 0 17 -15 25 -32 13 -29 14 -30 15 -10 1 21 3 22 16 9
10 -10 13 -28 9 -58 -7 -55 -14 -63 -14 -16 0 21 -4 37 -10 37 -5 0 -10 -5
-10 -12 0 -20 -12 0 -20 34 -7 30 -8 28 -9 -19 -1 -49 11 -70 22 -40 3 6 6 -2
6 -20 1 -40 11 -64 22 -57 5 3 9 -7 9 -21 0 -15 -4 -24 -10 -20 -6 4 -10 -12
-10 -39 0 -25 -4 -46 -9 -46 -10 0 -22 44 -19 70 1 8 0 35 0 59 -2 34 -5 42
-17 37 -11 -4 -15 2 -15 28 0 39 -18 96 -31 96 -5 0 -9 -5 -9 -11 0 -5 -4 -8
-9 -5 -5 3 -11 -5 -13 -19 -3 -14 -1 -25 3 -25 5 0 9 -7 9 -15 0 -8 6 -12 13
-9 13 5 25 -64 43 -231 7 -66 0 -71 -15 -9 -8 36 -9 37 -10 9 -1 -23 -4 -26
-11 -15 -6 10 -5 22 5 36 11 18 12 25 1 39 -17 23 -23 12 -27 -50 -3 -37 -1
-49 9 -47 10 2 10 -2 2 -17 -13 -25 -13 -171 0 -171 6 0 10 30 10 69 0 40 5
73 11 77 7 4 10 -27 7 -105 -1 -61 -6 -111 -10 -111 -5 0 -8 14 -8 31 0 19 -4
28 -11 23 -7 -4 -9 -33 -5 -87 6 -81 11 -100 24 -82 8 12 82 15 82 3 0 -8 -5
-9 -39 -12 -43 -3 -31 -16 15 -16 42 1 54 5 80 33 33 33 50 97 32 115 -6 6 -5
14 5 23 17 16 11 49 -9 49 -10 0 -14 14 -14 49 0 59 17 112 29 92 6 -10 10
-10 16 -1 4 6 0 19 -9 29 -9 10 -16 28 -16 40 0 12 -4 20 -9 17 -5 -3 -12 4
-16 17 -7 20 -8 19 -15 -13 l-7 -35 -2 33 c0 17 -6 32 -12 32 -12 0 -3 74 12
100 10 17 12 9 9 -42 -1 -21 3 -38 8 -38 10 0 9 43 -4 178 -4 43 -2 62 6 62 7
0 10 13 8 33 -2 19 -8 31 -15 30 -8 -2 -13 7 -13 22 0 14 5 25 10 25 6 0 10 9
10 20 0 13 -5 17 -14 14 -8 -3 -16 2 -19 13 -4 16 -5 16 -7 -2 -1 -19 -2 -20
-9 -1 -5 13 -10 16 -15 8z m31 -154 c-3 -8 -6 -5 -6 6 -1 11 2 17 5 13 3 -3 4
-12 1 -19z m-40 -390 c-2 -13 -4 -5 -4 17 -1 22 1 32 4 23 2 -10 2 -28 0 -40z
m22 -60 c-1 -20 -3 -26 -6 -14 -4 15 -7 16 -14 5 -7 -11 -9 -9 -9 8 0 18 7 26
28 32 1 1 1 -14 1 -31z m38 -10 c-3 -8 -6 -5 -6 6 -1 11 2 17 5 13 3 -3 4 -12
1 -19z m-20 -220 c-2 -18 -4 -4 -4 32 0 36 2 50 4 33 2 -18 2 -48 0 -65z
m-100 0 c-3 -8 -6 -5 -6 6 -1 11 2 17 5 13 3 -3 4 -12 1 -19z"/>
<path d="M1288 1034 c-5 -4 -8 -21 -8 -38 0 -21 3 -27 11 -19 6 6 9 23 7 38
-2 15 -6 23 -10 19z"/>
<path d="M1311 1024 c0 -11 3 -14 6 -6 3 7 2 16 -1 19 -3 4 -6 -2 -5 -13z"/>
<path d="M1502 920 c0 -19 2 -27 5 -17 2 9 2 25 0 35 -3 9 -5 1 -5 -18z"/>
<path d="M2842 820 c0 -14 2 -19 5 -12 2 6 2 18 0 25 -3 6 -5 1 -5 -13z"/>
<path d="M1276 806 c-8 -31 3 -106 15 -106 15 0 22 52 10 72 -6 10 -10 22 -7
26 3 5 1 14 -3 21 -6 9 -10 5 -15 -13z"/>
<path d="M1497 763 c-11 -10 -8 -53 3 -53 6 0 10 14 10 30 0 31 -2 35 -13 23z"/>
<path d="M1617 510 c-3 -11 -1 -23 4 -26 5 -3 9 6 9 20 0 31 -6 34 -13 6z"/>
<path d="M1480 513 c1 -18 18 -35 24 -24 4 6 4 16 1 21 -7 12 -25 13 -25 3z"/>
<path d="M1700 140 c-12 -8 -9 -10 13 -10 15 0 27 5 27 10 0 13 -20 13 -40 0z"/>
<path d="M1783 133 c9 -2 23 -2 30 0 6 3 -1 5 -18 5 -16 0 -22 -2 -12 -5z"/>
</g>
</svg>
