<?xml version="1.0" standalone="no"?>
<!DOCTYPE svg PUBLIC "-//W3C//DTD SVG 20010904//EN"
 "http://www.w3.org/TR/2001/REC-SVG-20010904/DTD/svg10.dtd">
<svg version="1.0" xmlns="http://www.w3.org/2000/svg"
 width="374.000000pt" height="365.000000pt" viewBox="0 0 374.000000 365.000000"
 preserveAspectRatio="xMidYMid meet">
<metadata>
Created by potrace 1.16, written by Peter Selinger 2001-2019
</metadata>
<g transform="translate(0.000000,365.000000) scale(0.100000,-0.100000)"
fill="#000000" stroke="none">
<path d="M930 3643 c1 -28 20 -36 61 -27 65 14 62 34 -5 34 -31 0 -56 -3 -56
-7z"/>
<path d="M2240 3640 c0 -5 5 -10 10 -10 6 0 10 5 10 10 0 6 -4 10 -10 10 -5 0
-10 -4 -10 -10z"/>
<path d="M3316 3634 c-9 -22 -8 -24 9 -24 8 0 15 6 15 14 0 22 -17 28 -24 10z"/>
<path d="M3394 3632 c0 -10 8 -26 16 -35 13 -14 19 -14 32 -4 9 6 19 22 23 35
6 20 3 22 -32 22 -31 0 -39 -4 -39 -18z"/>
<path d="M325 3260 c-66 -4 -126 -8 -132 -9 -26 -2 -40 -58 -47 -181 -8 -130
-24 -625 -31 -955 -16 -652 -26 -965 -36 -1028 -5 -40 -9 -137 -7 -217 1 -80
0 -149 -4 -155 -9 -15 -23 -310 -23 -478 0 -131 2 -150 18 -158 9 -6 17 -16
17 -24 0 -37 124 -38 445 -1 72 9 166 20 210 25 45 5 144 6 225 1 80 -4 205
-3 280 2 74 6 160 11 190 13 30 2 246 3 480 2 234 -1 472 0 530 2 195 5 443 6
705 2 339 -5 391 -3 461 15 68 17 103 45 104 83 3 114 -3 363 -15 606 -8 160
-17 365 -21 458 -4 92 -9 167 -13 167 -13 0 -13 1200 0 1412 9 158 9 212 1
220 -7 7 -12 31 -12 54 0 24 -4 53 -9 66 l-9 24 -587 2 c-380 2 -595 7 -607
13 -30 16 -712 32 -1038 24 -171 -4 -335 -2 -410 4 -171 14 -519 20 -665 11z
m1355 -41 c0 -12 -194 -9 -213 3 -7 4 39 8 101 8 73 0 112 -4 112 -11z m-580
-109 c-18 -11 -22 -7 -14 14 5 13 10 14 18 6 8 -8 7 -13 -4 -20z m443 9 c-6
-6 -19 -9 -29 -6 -17 3 -16 5 6 14 28 12 39 8 23 -8z m67 11 c0 -5 -4 -10 -10
-10 -5 0 -10 5 -10 10 0 6 5 10 10 10 6 0 10 -4 10 -10z m50 0 c0 -5 -4 -10
-10 -10 -5 0 -10 5 -10 10 0 6 5 10 10 10 6 0 10 -4 10 -10z m56 -38 c-12 -11
-18 7 -10 30 l8 23 4 -23 c2 -13 1 -26 -2 -30z m37 -3 c-6 -6 -7 3 -4 23 4 28
6 29 9 9 2 -13 0 -27 -5 -32z m132 41 c3 -5 -1 -10 -9 -10 -9 0 -16 5 -16 10
0 6 4 10 9 10 6 0 13 -4 16 -10z m1501 -3 c4 -4 -2 -7 -14 -7 -12 0 -22 4 -22
9 0 10 26 9 36 -2z m114 -6 c-5 -11 -10 -29 -10 -41 0 -12 -4 -19 -8 -16 -14
8 -1 76 14 76 11 0 12 -4 4 -19z m-2310 -1 c0 -5 -7 -10 -15 -10 -8 0 -15 5
-15 10 0 6 7 10 15 10 8 0 15 -4 15 -10z m870 -6 c0 -2 -7 -4 -15 -4 -8 0 -15
4 -15 10 0 5 7 7 15 4 8 -4 15 -8 15 -10z m105 6 c3 -5 -3 -10 -14 -10 -12 0
-21 5 -21 10 0 6 6 10 14 10 8 0 18 -4 21 -10z m138 3 c-7 -2 -19 -2 -25 0 -7
3 -2 5 12 5 14 0 19 -2 13 -5z m871 -8 c3 -10 -1 -15 -13 -15 -10 0 -18 7 -18
15 0 8 6 15 13 15 6 0 14 -7 18 -15z m273 9 c-3 -3 -12 -4 -19 -1 -8 3 -5 6 6
6 11 1 17 -2 13 -5z m-2871 -31 c-10 -10 -19 5 -10 18 6 11 8 11 12 0 2 -7 1
-15 -2 -18z m2354 17 c0 -5 -12 -10 -27 -9 l-28 1 25 8 c14 4 26 8 28 9 1 1 2
-3 2 -9z m60 6 c0 -3 -4 -8 -10 -11 -5 -3 -10 -1 -10 4 0 6 5 11 10 11 6 0 10
-2 10 -4z m-2470 -21 c0 -8 -4 -15 -10 -15 -5 0 -10 7 -10 15 0 8 5 15 10 15
6 0 10 -7 10 -15z m107 -17 c-3 -7 -5 -2 -5 12 0 14 2 19 5 13 2 -7 2 -19 0
-25z m183 23 c0 -12 -20 -25 -27 -18 -7 7 6 27 18 27 5 0 9 -4 9 -9z m1790 -6
c0 -8 -4 -15 -10 -15 -5 0 -10 7 -10 15 0 8 5 15 10 15 6 0 10 -7 10 -15z
m-1363 -17 c-3 -8 -6 -5 -6 6 -1 11 2 17 5 13 3 -3 4 -12 1 -19z m63 -3 c0
-14 -4 -25 -10 -25 -8 0 -8 23 -1 48 4 12 11 -3 11 -23z m573 0 c-7 -21 -13
-19 -13 6 0 11 4 18 10 14 5 -3 7 -12 3 -20z m797 15 c0 -5 -7 -10 -15 -10 -8
0 -15 5 -15 10 0 6 7 10 15 10 8 0 15 -4 15 -10z m-1490 -10 c0 -5 -4 -10 -10
-10 -5 0 -10 5 -10 10 0 6 5 10 10 10 6 0 10 -4 10 -10z m280 -10 c0 -11 -7
-20 -15 -20 -8 0 -15 9 -15 20 0 11 7 20 15 20 8 0 15 -9 15 -20z m64 -1 c-6
-11 -24 -2 -24 11 0 5 7 7 15 4 8 -4 12 -10 9 -15z m1796 14 c-1 -18 -19 -35
-29 -28 -9 5 -9 10 0 21 12 15 29 19 29 7z m55 -3 c-3 -5 -13 -10 -21 -10 -8
0 -14 5 -14 10 0 6 9 10 21 10 11 0 17 -4 14 -10z m65 0 c0 -5 -4 -10 -10 -10
-5 0 -10 5 -10 10 0 6 5 10 10 10 6 0 10 -4 10 -10z m-2302 -55 c-2 -19 0 -36
5 -38 4 -1 5 -10 1 -20 -4 -12 -10 -15 -18 -8 -12 10 -12 81 0 111 10 23 17
-4 12 -45z m462 34 c0 -11 -4 -17 -10 -14 -5 3 -10 13 -10 21 0 8 5 14 10 14
6 0 10 -9 10 -21z m620 -10 c0 -18 -2 -19 -15 -5 -8 8 -15 17 -15 20 0 3 7 6
15 6 9 0 15 -9 15 -21z m-1943 -26 c-3 -10 -5 -4 -5 12 0 17 2 24 5 18 2 -7 2
-21 0 -30z m1403 27 c0 -5 -4 -10 -10 -10 -5 0 -10 5 -10 10 0 6 5 10 10 10 6
0 10 -4 10 -10z m67 -12 c-3 -8 -6 -5 -6 6 -1 11 2 17 5 13 3 -3 4 -12 1 -19z
m303 -4 c0 -8 -7 -14 -15 -14 -15 0 -21 21 -9 33 10 9 24 -2 24 -19z m1480
-28 c-7 -7 -10 1 -9 25 0 32 1 33 10 10 6 -16 6 -28 -1 -35z m-2523 22 c-3 -8
-6 -5 -6 6 -1 11 2 17 5 13 3 -3 4 -12 1 -19z m1363 12 c0 -5 -4 -10 -10 -10
-5 0 -10 5 -10 10 0 6 5 10 10 10 6 0 10 -4 10 -10z m160 0 c0 -5 -4 -10 -9
-10 -6 0 -13 5 -16 10 -3 6 1 10 9 10 9 0 16 -4 16 -10z m220 -5 c0 -17 -2
-18 -24 -9 -23 9 -20 24 4 24 11 0 20 -7 20 -15z m66 -27 c-3 -24 -5 -52 -5
-62 -2 -38 -15 -5 -17 42 -1 39 7 61 24 62 2 0 1 -19 -2 -42z m234 32 c0 -5
-5 -10 -11 -10 -5 0 -7 5 -4 10 3 6 8 10 11 10 2 0 4 -4 4 -10z m116 -1 c3 -6
0 -16 -7 -21 -11 -7 -11 -11 -1 -15 13 -5 7 -23 -9 -23 -5 0 -9 16 -9 35 0 34
12 46 26 24z m64 -10 c0 -5 -4 -9 -10 -9 -5 0 -10 7 -10 16 0 8 5 12 10 9 6
-3 10 -10 10 -16z m-2550 -29 l-8 -35 -1 31 c-1 17 2 34 6 37 11 12 12 3 3
-33z m2210 19 c0 -5 -4 -9 -10 -9 -5 0 -10 7 -10 16 0 8 5 12 10 9 6 -3 10
-10 10 -16z m420 11 c0 -5 -4 -10 -9 -10 -6 0 -13 5 -16 10 -3 6 1 10 9 10 9
0 16 -4 16 -10z m48 -47 c-12 -78 -19 -80 -16 -5 2 37 7 62 14 62 8 0 8 -17 2
-57z m-1918 28 c0 -11 -4 -23 -10 -26 -6 -4 -10 5 -10 19 0 14 5 26 10 26 6 0
10 -9 10 -19z m120 4 c0 -8 -4 -15 -10 -15 -5 0 -10 7 -10 15 0 8 5 15 10 15
6 0 10 -7 10 -15z m35 5 c3 -5 1 -10 -4 -10 -6 0 -11 5 -11 10 0 6 2 10 4 10
3 0 8 -4 11 -10z m75 0 c0 -5 -2 -10 -4 -10 -3 0 -8 5 -11 10 -3 6 -1 10 4 10
6 0 11 -4 11 -10z m420 0 c0 -5 -5 -10 -11 -10 -5 0 -7 5 -4 10 3 6 8 10 11
10 2 0 4 -4 4 -10z m-610 -14 c0 -8 -4 -18 -10 -21 -5 -3 -10 3 -10 14 0 12 5
21 10 21 6 0 10 -6 10 -14z m40 10 c0 -3 -4 -8 -10 -11 -5 -3 -10 -1 -10 4 0
6 5 11 10 11 6 0 10 -2 10 -4z m-604 -82 c-3 -8 -10 -14 -16 -14 -11 0 -12 66
-1 85 7 13 23 -54 17 -71z m341 39 c-3 -10 -5 -4 -5 12 0 17 2 24 5 18 2 -7 2
-21 0 -30z m60 5 c-3 -7 -5 -2 -5 12 0 14 2 19 5 13 2 -7 2 -19 0 -25z m1913
22 c0 -5 -5 -10 -11 -10 -5 0 -7 5 -4 10 3 6 8 10 11 10 2 0 4 -4 4 -10z m80
0 c0 -5 -7 -10 -15 -10 -8 0 -15 5 -15 10 0 6 7 10 15 10 8 0 15 -4 15 -10z
m77 -27 c-3 -10 -5 -4 -5 12 0 17 2 24 5 18 2 -7 2 -21 0 -30z m-2959 5 c-4
-27 -28 -36 -28 -10 0 20 8 32 22 32 5 0 8 -10 6 -22z m198 -15 c-11 -11 -19
6 -11 24 8 17 8 17 12 0 3 -10 2 -21 -1 -24z m414 30 c-1 -24 -50 -53 -50 -30
0 7 5 18 12 25 13 13 38 16 38 5z m-453 -35 c-3 -7 -5 -2 -5 12 0 14 2 19 5
13 2 -7 2 -19 0 -25z m2830 10 c-3 -8 -6 -5 -6 6 -1 11 2 17 5 13 3 -3 4 -12
1 -19z m30 0 c-3 -8 -6 -5 -6 6 -1 11 2 17 5 13 3 -3 4 -12 1 -19z m-2477 -3
c0 -8 -4 -15 -10 -15 -5 0 -7 7 -4 15 4 8 8 15 10 15 2 0 4 -7 4 -15z m240 5
c0 -5 -5 -10 -11 -10 -5 0 -7 5 -4 10 3 6 8 10 11 10 2 0 4 -4 4 -10z m1080
-41 c0 -12 -6 -16 -20 -12 -21 6 -26 18 -10 28 5 3 7 13 4 23 -5 14 -3 14 10
-2 9 -11 16 -28 16 -37z m-808 9 c-9 -9 -12 -7 -12 12 0 19 3 21 12 12 9 -9 9
-15 0 -24z m73 22 c-3 -5 -10 -10 -16 -10 -5 0 -9 5 -9 10 0 6 7 10 16 10 8 0
12 -4 9 -10z m668 -22 c-9 -15 -23 -8 -23 12 0 17 2 19 14 8 8 -7 12 -16 9
-20z m1037 22 c0 -5 -5 -10 -11 -10 -5 0 -7 5 -4 10 3 6 8 10 11 10 2 0 4 -4
4 -10z m42 -15 c-2 -14 -8 -25 -12 -25 -4 0 -7 11 -7 25 0 14 5 25 12 25 8 0
10 -9 7 -25z m-2455 -7 c-3 -8 -6 -5 -6 6 -1 11 2 17 5 13 3 -3 4 -12 1 -19z
m1628 12 c3 -5 -1 -10 -9 -10 -9 0 -16 5 -16 10 0 6 4 10 9 10 6 0 13 -4 16
-10z m-1655 -4 c0 -3 -4 -8 -10 -11 -5 -3 -10 -1 -10 4 0 6 5 11 10 11 6 0 10
-2 10 -4z m-104 -35 c-12 -19 -24 -12 -19 10 4 13 9 17 15 11 6 -6 7 -15 4
-21z m51 7 c-3 -8 -6 -5 -6 6 -1 11 2 17 5 13 3 -3 4 -12 1 -19z m573 12 c13
-9 13 -11 0 -19 -10 -7 -17 -6 -22 2 -17 26 -5 35 22 17z m100 0 c0 -5 -4 -10
-10 -10 -5 0 -10 5 -10 10 0 6 5 10 10 10 6 0 10 -4 10 -10z m278 -2 c-6 -18
-28 -21 -28 -4 0 9 7 16 16 16 9 0 14 -5 12 -12z m1142 -4 c0 -8 -4 -12 -10
-9 -5 3 -10 10 -10 16 0 5 5 9 10 9 6 0 10 -7 10 -16z m-1654 -21 c-10 -10
-19 5 -10 18 6 11 8 11 12 0 2 -7 1 -15 -2 -18z m404 13 c0 -8 -7 -16 -15 -20
-10 -4 -15 1 -15 14 0 11 7 20 15 20 8 0 15 -6 15 -14z m720 4 c0 -5 -5 -10
-11 -10 -5 0 -7 5 -4 10 3 6 8 10 11 10 2 0 4 -4 4 -10z m-1740 -22 c0 -18 -2
-20 -9 -8 -6 8 -7 18 -5 22 9 14 14 9 14 -14z m428 -7 c-2 -14 -10 -27 -19
-29 -12 -2 -15 4 -11 26 5 37 34 40 30 3z m532 15 c0 -14 -29 -31 -38 -22 -2
3 -2 12 1 21 8 19 37 20 37 1z m1415 4 c3 -5 1 -10 -4 -10 -6 0 -11 5 -11 10
0 6 2 10 4 10 3 0 8 -4 11 -10z m485 -15 c0 -14 -4 -25 -10 -25 -11 0 -14 33
-3 43 11 11 13 8 13 -18z m47 -7 c-3 -7 -5 -2 -5 12 0 14 2 19 5 13 2 -7 2
-19 0 -25z m-2391 -16 c-15 -15 -16 -15 -16 5 0 12 6 23 13 26 19 6 21 -13 3
-31z m384 28 c0 -5 -7 -10 -16 -10 -8 0 -12 5 -9 10 3 6 10 10 16 10 5 0 9 -4
9 -10z m980 -11 c0 -5 -7 -9 -15 -9 -8 0 -15 7 -15 15 0 9 6 12 15 9 8 -4 15
-10 15 -15z m877 -1 c-3 -8 -6 -5 -6 6 -1 11 2 17 5 13 3 -3 4 -12 1 -19z m35
-10 c-9 -9 -12 -7 -12 12 0 19 3 21 12 12 9 -9 9 -15 0 -24z m145 10 c-3 -8
-6 -5 -6 6 -1 11 2 17 5 13 3 -3 4 -12 1 -19z m-2617 0 c0 -7 -4 -19 -9 -27
-11 -17 -25 3 -17 24 7 18 26 20 26 3z m2127 -20 c-3 -7 -5 -2 -5 12 0 14 2
19 5 13 2 -7 2 -19 0 -25z m84 -10 c2 -20 0 -40 -4 -44 -4 -4 -7 14 -7 41 0
56 7 57 11 3z m134 33 c3 -5 1 -12 -5 -16 -5 -3 -10 1 -10 9 0 18 6 21 15 7z
m38 -11 c-3 -11 -7 -20 -9 -20 -2 0 -4 9 -4 20 0 11 4 20 9 20 5 0 7 -9 4 -20z
m-2887 -38 c-20 -20 -22 -1 -4 31 11 20 12 21 16 3 2 -10 -3 -26 -12 -34z
m1874 38 c0 -5 -7 -10 -16 -10 -8 0 -12 5 -9 10 3 6 10 10 16 10 5 0 9 -4 9
-10z m880 -16 c0 -14 -4 -23 -10 -19 -5 3 -10 15 -10 26 0 10 5 19 10 19 6 0
10 -12 10 -26z m-2663 -16 c-3 -7 -5 -2 -5 12 0 14 2 19 5 13 2 -7 2 -19 0
-25z m1713 4 c0 -15 -2 -15 -10 -2 -13 20 -13 33 0 25 6 -3 10 -14 10 -23z
m117 22 c-3 -3 -12 -4 -19 -1 -8 3 -5 6 6 6 11 1 17 -2 13 -5z m-1610 -26 c-3
-8 -6 -5 -6 6 -1 11 2 17 5 13 3 -3 4 -12 1 -19z m93 15 c0 -5 -5 -15 -10 -23
-8 -12 -10 -11 -10 8 0 12 5 22 10 22 6 0 10 -3 10 -7z m52 -25 c-9 -9 -12 -7
-12 12 0 19 3 21 12 12 9 -9 9 -15 0 -24z m348 28 c0 -2 -7 -9 -15 -16 -12
-10 -15 -10 -15 4 0 9 7 16 15 16 8 0 15 -2 15 -4z m640 0 c0 -9 -40 -13 -46
-5 -3 5 6 9 20 9 14 0 26 -2 26 -4z m810 -12 c0 -17 -22 -14 -28 4 -2 7 3 12
12 12 9 0 16 -7 16 -16z m185 -4 c3 -5 -1 -10 -9 -10 -9 0 -16 5 -16 10 0 6 4
10 9 10 6 0 13 -4 16 -10z m404 -5 c0 -3 1 -25 1 -50 0 -65 -15 -56 -18 11 -1
31 2 53 7 50 4 -3 9 -8 10 -11z m128 -17 c-3 -7 -5 -2 -5 12 0 14 2 19 5 13 2
-7 2 -19 0 -25z m73 12 c0 -11 -4 -20 -10 -20 -5 0 -10 9 -10 20 0 11 5 20 10
20 6 0 10 -9 10 -20z m50 -20 c0 -22 -4 -40 -8 -40 -7 0 -8 22 -3 68 3 29 11
9 11 -28z m-2910 20 c0 -17 -30 -123 -36 -129 -4 -3 -4 5 0 19 3 14 9 46 13
73 3 26 10 47 14 47 5 0 9 -4 9 -10z m1807 4 c-3 -3 -12 -4 -19 -1 -8 3 -5 6
6 6 11 1 17 -2 13 -5z m63 -4 c0 -5 -7 -10 -15 -10 -8 0 -15 5 -15 10 0 6 7
10 15 10 8 0 15 -4 15 -10z m830 -27 c0 -32 -12 -23 -16 12 -1 14 2 23 7 20 5
-4 9 -18 9 -32z m250 11 c0 -8 -4 -14 -10 -14 -5 0 -10 9 -10 21 0 11 5 17 10
14 6 -3 10 -13 10 -21z m-2214 -12 c-8 -9 -19 -13 -22 -9 -10 9 16 38 28 31 6
-4 4 -13 -6 -22z m1178 7 c-3 -5 -10 -7 -15 -3 -5 3 -7 10 -3 15 3 5 10 7 15
3 5 -3 7 -10 3 -15z m-2137 -11 c-3 -8 -6 -5 -6 6 -1 11 2 17 5 13 3 -3 4 -12
1 -19z m913 7 c0 -8 -4 -15 -10 -15 -5 0 -7 7 -4 15 4 8 8 15 10 15 2 0 4 -7
4 -15z m310 5 c0 -5 -5 -10 -11 -10 -5 0 -7 5 -4 10 3 6 8 10 11 10 2 0 4 -4
4 -10z m1727 -27 c-3 -10 -5 -4 -5 12 0 17 2 24 5 18 2 -7 2 -21 0 -30z
m-2606 -6 c-8 -8 -11 -7 -11 4 0 20 13 34 18 19 3 -7 -1 -17 -7 -23z m824 23
c-3 -5 -13 -10 -21 -10 -8 0 -14 5 -14 10 0 6 9 10 21 10 11 0 17 -4 14 -10z
m555 1 c0 -5 -9 -7 -20 -4 -11 3 -20 7 -20 9 0 2 9 4 20 4 11 0 20 -4 20 -9z
m177 3 c-3 -3 -12 -4 -19 -1 -8 3 -5 6 6 6 11 1 17 -2 13 -5z m893 -10 c0 -8
-4 -12 -10 -9 -5 3 -10 10 -10 16 0 5 5 9 10 9 6 0 10 -7 10 -16z m-1690 -4
c0 -5 -5 -10 -11 -10 -5 0 -7 5 -4 10 3 6 8 10 11 10 2 0 4 -4 4 -10z m1910
-9 c0 -11 -4 -23 -10 -26 -6 -4 -10 5 -10 19 0 14 5 26 10 26 6 0 10 -9 10
-19z m-2190 -1 c0 -5 -5 -10 -11 -10 -5 0 -7 5 -4 10 3 6 8 10 11 10 2 0 4 -4
4 -10z m637 4 c-3 -3 -12 -4 -19 -1 -8 3 -5 6 6 6 11 1 17 -2 13 -5z m1713
-14 c0 -11 -4 -20 -10 -20 -5 0 -10 9 -10 20 0 11 5 20 10 20 6 0 10 -9 10
-20z m-3124 -25 c-6 -17 -26 -20 -26 -5 0 16 24 40 28 29 2 -5 1 -16 -2 -24z
m584 31 c0 -3 -4 -8 -10 -11 -5 -3 -10 -1 -10 4 0 6 5 11 10 11 6 0 10 -2 10
-4z m147 -33 c-3 -10 -5 -4 -5 12 0 17 2 24 5 18 2 -7 2 -21 0 -30z m2143 17
c0 -5 -2 -10 -4 -10 -3 0 -8 5 -11 10 -3 6 -1 10 4 10 6 0 11 -4 11 -10z m160
-45 c0 -44 -3 -53 -15 -49 -16 7 -20 30 -7 38 10 6 9 36 -2 54 -4 7 -1 12 8
12 13 0 16 -12 16 -55z m-2340 30 c0 -8 -7 -15 -15 -15 -8 0 -15 7 -15 15 0 8
7 15 15 15 8 0 15 -7 15 -15z m1670 11 c0 -3 -4 -8 -10 -11 -5 -3 -10 -1 -10
4 0 6 5 11 10 11 6 0 10 -2 10 -4z m-525 -16 c3 -5 -1 -10 -9 -10 -9 0 -16 5
-16 10 0 6 4 10 9 10 6 0 13 -4 16 -10z m1245 -21 c0 -17 -4 -28 -10 -24 -5 3
-10 17 -10 31 0 13 5 24 10 24 6 0 10 -14 10 -31z m-3176 6 c-4 -8 -8 -15 -10
-15 -2 0 -4 7 -4 15 0 8 4 15 10 15 5 0 7 -7 4 -15z m1376 5 c0 -5 -2 -10 -4
-10 -3 0 -8 5 -11 10 -3 6 -1 10 4 10 6 0 11 -4 11 -10z m1678 -25 c-3 -36
-18 -31 -18 6 0 17 4 28 10 24 5 -3 9 -17 8 -30z m149 -2 c-3 -10 -5 -4 -5 12
0 17 2 24 5 18 2 -7 2 -21 0 -30z m-2530 5 c-3 -8 -6 -5 -6 6 -1 11 2 17 5 13
3 -3 4 -12 1 -19z m583 12 c0 -5 -4 -10 -10 -10 -5 0 -10 5 -10 10 0 6 5 10
10 10 6 0 10 -4 10 -10z m1670 -10 c0 -11 -4 -20 -10 -20 -5 0 -10 9 -10 20 0
11 5 20 10 20 6 0 10 -9 10 -20z m-2993 -12 c-3 -8 -6 -5 -6 6 -1 11 2 17 5
13 3 -3 4 -12 1 -19z m1278 12 c-3 -5 -14 -10 -23 -10 -15 0 -15 2 -2 10 20
13 33 13 25 0z m1777 -25 c-2 -19 -6 -35 -8 -35 -2 0 -4 16 -4 35 0 19 4 35 8
35 4 0 6 -16 4 -35z m188 -46 c0 -42 -15 -36 -18 7 -2 23 1 33 8 29 5 -3 10
-19 10 -36z m-2613 -6 c-3 -10 -5 -4 -5 12 0 17 2 24 5 18 2 -7 2 -21 0 -30z
m2211 18 c3 -8 -1 -12 -9 -9 -7 2 -15 10 -17 17 -3 8 1 12 9 9 7 -2 15 -10 17
-17z m272 -7 c0 -14 -4 -23 -9 -20 -5 3 -7 15 -4 26 7 28 13 25 13 -6z m-2519
-27 c-8 -8 -11 -7 -11 4 0 20 13 34 18 19 3 -7 -1 -17 -7 -23z m676 27 c-3 -3
-12 -4 -19 -1 -8 3 -5 6 6 6 11 1 17 -2 13 -5z m1613 -4 c0 -5 -4 -10 -10 -10
-5 0 -10 5 -10 10 0 6 5 10 10 10 6 0 10 -4 10 -10z m310 0 c0 -5 -2 -10 -4
-10 -3 0 -8 5 -11 10 -3 6 -1 10 4 10 6 0 11 -4 11 -10z m-255 -19 c3 -5 1
-12 -5 -16 -5 -3 -10 1 -10 9 0 18 6 21 15 7z m118 3 c3 -3 3 -13 0 -21 -5
-12 -7 -12 -14 -1 -15 23 -4 40 14 22z m55 -50 c-3 -14 -5 -12 -10 9 -3 19 -2
25 4 19 6 -6 8 -18 6 -28z m82 26 c0 -5 -4 -10 -9 -10 -6 0 -13 5 -16 10 -3 6
1 10 9 10 9 0 16 -4 16 -10z m-2455 -10 c-3 -5 -11 -10 -16 -10 -6 0 -7 5 -4
10 3 6 11 10 16 10 6 0 7 -4 4 -10z m2245 -6 c0 -8 -4 -12 -10 -9 -5 3 -10 10
-10 16 0 5 5 9 10 9 6 0 10 -7 10 -16z m-2773 -16 c-3 -8 -6 -5 -6 6 -1 11 2
17 5 13 3 -3 4 -12 1 -19z m2618 12 c-3 -5 -11 -10 -16 -10 -6 0 -7 5 -4 10 3
6 11 10 16 10 6 0 7 -4 4 -10z m-2558 -22 c-3 -8 -6 -5 -6 6 -1 11 2 17 5 13
3 -3 4 -12 1 -19z m1840 16 c-3 -3 -12 -4 -19 -1 -8 3 -5 6 6 6 11 1 17 -2 13
-5z m-1769 -34 c-15 -24 -19 -21 -11 8 3 12 9 19 14 16 5 -3 3 -14 -3 -24z
m2839 -2 c-3 -8 -6 -5 -6 6 -1 11 2 17 5 13 3 -3 4 -12 1 -19z m113 4 c0 -10
-7 -19 -15 -19 -8 0 -15 7 -15 14 0 8 5 11 10 8 6 -3 10 -1 10 4 0 6 2 11 5
11 3 0 5 -8 5 -18z m-416 -8 c4 -10 1 -14 -6 -12 -15 5 -23 28 -10 28 5 0 13
-7 16 -16z m366 6 c0 -5 -2 -10 -4 -10 -3 0 -8 5 -11 10 -3 6 -1 10 4 10 6 0
11 -4 11 -10z m-312 -19 c3 -8 -1 -12 -9 -9 -7 2 -15 10 -17 17 -3 8 1 12 9 9
7 -2 15 -10 17 -17z m-2966 -33 c-2 -24 -9 -47 -14 -53 -7 -7 -9 3 -4 30 3 22
6 46 6 53 0 6 3 12 8 12 4 0 6 -19 4 -42z m38 30 c0 -7 -5 -20 -10 -28 -8 -12
-10 -9 -10 13 0 15 5 27 10 27 6 0 10 -6 10 -12z m3030 -18 c0 -5 -4 -10 -10
-10 -5 0 -10 5 -10 10 0 6 5 10 10 10 6 0 10 -4 10 -10z m27 -12 c-3 -8 -6 -5
-6 6 -1 11 2 17 5 13 3 -3 4 -12 1 -19z m183 -18 c0 -5 -2 -10 -4 -10 -3 0 -8
5 -11 10 -3 6 -1 10 4 10 6 0 11 -4 11 -10z m-1803 -16 c-3 -3 -12 -4 -19 -1
-8 3 -5 6 6 6 11 1 17 -2 13 -5z m1573 -14 c6 -11 8 -20 6 -20 -3 0 -10 9 -16
20 -6 11 -8 20 -6 20 3 0 10 -9 16 -20z m-360 -6 c0 -8 -4 -12 -10 -9 -5 3
-10 10 -10 16 0 5 5 9 10 9 6 0 10 -7 10 -16z m-2000 -10 c0 -8 -5 -12 -10 -9
-6 4 -8 11 -5 16 9 14 15 11 15 -7z m425 -35 c-10 -15 -25 -10 -19 6 4 8 10
12 15 9 5 -3 7 -10 4 -15z m35 11 c0 -5 -5 -10 -11 -10 -5 0 -7 5 -4 10 3 6 8
10 11 10 2 0 4 -4 4 -10z m547 4 c-3 -3 -12 -4 -19 -1 -8 3 -5 6 6 6 11 1 17
-2 13 -5z m-860 -44 c0 -27 -5 -31 -40 -41 -23 -6 -36 -14 -31 -19 5 -5 27 -5
52 2 38 9 46 8 76 -13 36 -25 42 -41 67 -201 19 -114 36 -103 41 25 4 113 2
131 -18 123 -17 -6 -28 29 -16 50 8 14 10 12 16 -10 12 -49 37 -27 40 37 1 27
6 33 31 38 56 12 63 10 70 -21 9 -41 33 -38 41 5 6 33 18 46 26 26 2 -5 41 -6
88 -2 47 3 110 3 140 -1 70 -9 487 -3 518 7 19 6 24 3 29 -14 5 -18 10 -21 32
-16 61 16 408 1 427 -18 5 -4 -47 -130 -84 -203 -41 -81 -55 -150 -57 -264 0
-52 -4 -101 -8 -107 -4 -7 -21 -72 -37 -145 -62 -290 -71 -318 -97 -318 -21 0
-23 4 -23 58 0 45 8 71 35 126 37 73 42 104 23 136 -11 16 -9 34 9 98 89 323
113 423 119 488 4 41 11 77 15 80 12 7 11 34 -1 34 -5 0 -19 -17 -30 -37 l-21
-38 5 53 c9 89 -19 59 -44 -48 -7 -30 -18 -68 -25 -85 -7 -16 -27 -63 -44
-104 -17 -40 -41 -86 -54 -102 -12 -16 -32 -41 -44 -57 -36 -47 -177 -76 -308
-63 -44 5 -170 9 -279 10 -110 1 -204 5 -210 10 -6 5 -26 12 -43 16 -18 3 -33
10 -33 15 0 4 -13 13 -29 18 -29 10 -41 40 -41 106 0 18 -11 66 -25 106 -30
90 -35 199 -9 196 9 0 19 5 22 13 3 10 0 12 -13 7 -11 -4 -22 0 -31 11 -18 25
-21 11 -29 -122 -15 -233 -19 -273 -28 -237 -11 42 -32 43 -23 1 3 -17 6 -49
6 -70 0 -22 5 -39 11 -39 5 0 8 4 4 9 -3 5 -1 12 5 16 6 4 10 -7 10 -26 0 -18
2 -30 5 -27 3 3 8 66 12 139 3 74 9 138 13 142 4 5 17 -42 28 -104 19 -98 25
-116 49 -136 16 -12 32 -22 37 -23 5 0 18 -7 28 -16 22 -21 116 -34 303 -43
90 -4 134 -9 122 -15 -10 -5 -36 -6 -57 -3 -30 4 -40 2 -40 -9 0 -7 11 -16 25
-20 21 -5 24 -10 19 -33 -4 -14 -16 -36 -27 -48 -18 -20 -19 -32 -14 -118 4
-78 3 -95 -9 -95 -9 0 -14 -11 -14 -31 0 -19 4 -28 11 -24 7 5 8 -8 3 -41 -8
-62 -7 -60 -46 -63 -18 -1 -44 -3 -58 -4 -14 -1 -24 3 -23 9 1 7 5 43 8 80 6
83 -10 51 -20 -38 -4 -32 -9 -58 -13 -58 -4 0 -18 -3 -31 -7 -14 -3 -22 -2
-19 3 10 15 46 254 52 339 7 106 -9 54 -23 -74 -16 -148 -42 -269 -59 -276 -8
-3 -17 -3 -20 0 -6 6 55 406 69 451 5 17 9 38 9 47 0 23 -20 22 -21 0 0 -10
-7 -36 -14 -58 l-14 -40 6 39 c4 26 2 37 -5 32 -6 -3 -13 -32 -16 -64 -11
-109 -27 -208 -52 -313 -24 -103 -26 -107 -54 -111 -25 -4 -29 -1 -32 21 -2
18 -10 27 -25 29 -13 2 -23 -1 -23 -7 0 -6 6 -11 14 -11 7 0 16 -9 19 -19 4
-15 -2 -20 -27 -24 -17 -2 -33 0 -34 5 -2 5 -10 4 -17 -2 -11 -9 -12 -4 -5 25
10 42 6 44 -14 8 -8 -16 -15 -22 -16 -15 0 6 -4 12 -9 12 -5 0 -8 -8 -7 -17 1
-12 -7 -19 -24 -22 -14 -1 -27 -7 -30 -12 -3 -4 -17 -2 -30 4 -20 10 -24 19
-22 42 2 23 1 27 -7 15 -6 -8 -11 -23 -11 -32 0 -10 -3 -18 -7 -18 -5 0 -8
-22 -7 -48 0 -26 -5 -53 -11 -59 -10 -9 -14 8 -19 77 -12 151 -23 152 -18 2 5
-146 -4 -208 -35 -233 -14 -13 -18 1 -4 16 5 6 11 75 14 155 3 91 2 130 -3
105 -5 -22 -10 -74 -11 -115 -1 -41 -4 -61 -6 -45 -3 17 -9 35 -14 40 -7 7 -8
-28 -4 -100 5 -84 3 -121 -8 -155 l-15 -45 -1 43 c-1 30 -5 42 -16 42 -8 0
-15 7 -15 15 0 8 5 15 10 15 6 0 10 14 10 30 0 17 -4 30 -9 30 -10 0 -21 -34
-21 -67 0 -13 -4 -23 -10 -23 -18 0 -10 36 40 184 28 81 50 155 50 165 0 16
-28 38 -35 29 -12 -15 -43 -121 -39 -132 3 -8 -3 -32 -15 -53 -19 -36 -59
-171 -59 -203 -1 -8 -3 -40 -6 -70 -16 -150 -26 -214 -35 -223 -6 -6 -11 -35
-11 -65 l0 -54 -30 6 c-17 3 -46 17 -64 31 -29 22 -36 37 -51 103 -9 42 -22
93 -28 112 -5 19 -11 66 -12 105 -2 38 -6 93 -9 120 -5 40 -4 45 4 26 8 -18
13 -22 22 -13 9 9 7 16 -5 30 -34 38 -65 558 -39 643 6 19 18 66 27 104 9 39
18 79 21 90 5 20 5 20 -10 1 -9 -11 -16 -16 -16 -11 0 12 20 74 36 110 11 24
14 26 15 10 1 -11 7 3 14 30 7 28 14 44 14 37 2 -26 18 -2 24 35 8 45 61 133
80 133 8 0 22 10 33 22 26 29 104 78 125 78 10 0 21 5 24 10 14 23 -62 10 -89
-15 -15 -14 -38 -25 -52 -25 l-25 0 21 28 c15 21 41 33 105 52 47 14 85 28 85
32 0 6 22 14 46 17 6 0 11 -13 11 -29z m1678 0 c7 0 15 5 17 11 5 15 166 -49
178 -71 13 -24 13 -73 0 -65 -6 3 -10 -4 -11 -17 0 -22 -1 -22 -8 -3 -11 25
-49 60 -57 52 -3 -3 -3 -15 1 -27 4 -12 10 -19 13 -15 3 3 25 -31 49 -77 24
-47 42 -74 43 -63 1 16 4 15 18 -10 12 -22 18 -66 22 -165 4 -90 8 -113 9 -70
3 62 4 63 11 25 5 -22 11 -105 15 -185 4 -80 11 -174 15 -210 7 -53 8 -41 7
70 0 78 4 143 10 154 13 23 19 14 28 -42 6 -36 4 -41 -9 -36 -19 7 -19 4 -6
-31 24 -63 17 -365 -15 -590 -21 -150 -29 -283 -16 -265 14 19 14 9 -1 -48 -9
-36 -13 -42 -19 -26 -6 17 -8 16 -14 -10 -5 -18 -4 -31 4 -36 16 -9 -19 -69
-56 -96 -56 -40 -101 -55 -145 -49 -81 12 -148 62 -148 109 0 15 8 10 36 -23
20 -23 39 -40 42 -37 3 3 -3 14 -14 24 -37 34 -62 67 -69 92 -7 23 -7 24 10
10 17 -14 18 -13 11 10 -4 14 -11 51 -17 83 -16 94 -56 275 -83 369 -22 79
-23 92 -11 135 15 56 18 50 39 -72 9 -49 21 -107 27 -129 7 -24 7 -42 1 -48
-6 -6 -2 -36 10 -81 10 -40 21 -98 25 -129 3 -32 9 -56 12 -53 4 2 4 30 0 62
-18 151 -31 244 -43 313 -8 41 -17 107 -21 145 -11 106 -11 105 -29 174 -10
36 -18 78 -18 95 0 17 -11 70 -25 118 -17 61 -24 115 -25 180 -2 134 4 159 68
294 13 28 24 54 24 59 0 19 66 145 76 145 6 0 26 -10 45 -23 58 -39 59 -39 59
-19 0 17 -70 62 -98 62 -18 0 -23 19 -11 41 10 20 12 20 21 6 5 -10 15 -17 23
-17z m-1585 0 c0 -5 -4 -10 -10 -10 -5 0 -10 5 -10 10 0 6 5 10 10 10 6 0 10
-4 10 -10z m1496 -17 c-10 -10 -19 5 -10 18 6 11 8 11 12 0 2 -7 1 -15 -2 -18z
m-2149 -15 c-3 -7 -5 -2 -5 12 0 14 2 19 5 13 2 -7 2 -19 0 -25z m2620 -10
c-3 -7 -5 -2 -5 12 0 14 2 19 5 13 2 -7 2 -19 0 -25z m-2374 7 c4 -8 2 -17 -3
-20 -6 -4 -10 3 -10 14 0 25 6 27 13 6z m483 -22 c-11 -11 -17 4 -9 23 7 18 8
18 11 1 2 -10 1 -21 -2 -24z m2081 -95 c-3 -7 -5 -2 -5 12 0 14 2 19 5 13 2
-7 2 -19 0 -25z m-2627 8 c0 -3 -4 -8 -10 -11 -5 -3 -10 -1 -10 4 0 6 5 11 10
11 6 0 10 -2 10 -4z m517 -43 c-3 -10 -5 -2 -5 17 0 19 2 27 5 18 2 -10 2 -26
0 -35z m1288 -45 c-8 -24 -43 -136 -80 -250 -51 -163 -69 -206 -80 -202 -8 4
-15 11 -15 16 0 25 106 331 138 401 40 84 59 102 37 35z m465 -1 c0 -5 -4 -5
-10 -2 -5 3 -10 14 -10 23 0 15 2 15 10 2 5 -8 10 -19 10 -23z m-2321 -84 c-1
-10 -5 -29 -9 -43 -7 -21 -8 -19 -9 18 -1 23 4 42 9 42 6 0 10 -8 9 -17z
m2911 -102 c0 -3 -4 -1 -9 5 -5 5 -12 27 -15 49 l-6 40 15 -45 c8 -25 15 -47
15 -49z m-1112 -101 c-52 -180 -54 -187 -64 -178 -5 5 70 259 98 331 26 67 13
9 -34 -153z m-2128 160 c0 -5 -5 -10 -11 -10 -5 0 -7 5 -4 10 3 6 8 10 11 10
2 0 4 -4 4 -10z m2754 -183 c5 -90 5 -90 -4 -21 -5 39 -14 90 -20 115 -21 81
-21 94 -1 46 12 -31 22 -83 25 -140z m354 23 c0 -23 -1 -22 -8 5 -4 17 -8 48
-8 70 l1 40 8 -45 c4 -25 7 -56 7 -70z m-158 65 c0 -5 -5 -3 -10 5 -5 8 -10
20 -10 25 0 6 5 3 10 -5 5 -8 10 -19 10 -25z m-161 -59 c6 -22 9 -42 7 -44 -7
-6 -23 30 -30 68 -9 46 9 27 23 -24z m-770 -64 c-23 -70 -34 -90 -45 -85 -10
4 -14 14 -10 27 2 11 8 37 11 57 6 31 61 106 71 96 2 -2 -10 -44 -27 -95z
m-1754 -10 c-11 -44 -17 -15 -9 40 8 47 9 49 12 19 2 -19 1 -45 -3 -59z m1705
44 c0 -1 -4 -16 -9 -32 -5 -16 -12 -41 -15 -56 -4 -17 -18 -34 -35 -43 -16 -8
-39 -31 -52 -52 -30 -48 -34 -31 -15 68 8 45 13 85 11 89 -7 11 22 21 39 14 8
-3 23 -1 33 5 17 10 43 15 43 7z m-1683 -38 c-3 -8 -6 -5 -6 6 -1 11 2 17 5
13 3 -3 4 -12 1 -19z m1395 3 c15 -1 14 -8 -8 -58 -14 -31 -36 -100 -48 -152
-12 -52 -27 -96 -34 -99 -15 -5 -16 34 -1 44 6 3 9 18 6 33 -3 14 -1 46 4 71
24 111 19 137 -15 88 -18 -26 -21 -52 -5 -42 8 5 9 -6 4 -37 -7 -43 -27 -68
-54 -69 -8 0 -19 -8 -26 -17 -12 -15 -12 -14 -8 10 4 21 10 26 23 22 20 -6 39
13 45 46 6 29 -11 49 -41 49 -25 0 -28 9 -18 48 5 16 14 22 35 22 22 0 30 6
35 25 6 22 10 24 48 20 22 -2 49 -4 58 -4z m102 -2 c-7 -13 -34 -140 -65 -314
-29 -166 -23 -153 -74 -161 -68 -10 -95 0 -95 35 0 42 9 61 30 61 18 0 44 23
35 32 -7 6 30 177 40 186 4 4 4 -11 1 -33 -16 -99 -33 -251 -29 -257 8 -15 25
-8 19 7 -11 29 50 413 71 448 2 4 20 7 39 7 24 0 33 -4 28 -11z m50 0 c2 -2
-4 -56 -15 -119 -10 -63 -23 -158 -29 -210 -16 -148 -17 -149 -48 -144 -15 3
-29 7 -31 10 -5 5 8 77 55 303 19 90 34 165 34 166 0 5 29 0 34 -6z m1390 -37
c4 -29 3 -41 -4 -37 -5 3 -10 25 -10 47 0 51 5 47 14 -10z m-431 1 c5 -26 4
-26 -9 -8 -16 22 -18 35 -5 35 5 0 11 -12 14 -27z m37 -21 c0 -15 -2 -15 -10
-2 -13 20 -13 33 0 25 6 -3 10 -14 10 -23z m-2713 -14 c-3 -8 -6 -5 -6 6 -1
11 2 17 5 13 3 -3 4 -12 1 -19z m2980 -60 c-2 -13 -4 -5 -4 17 -1 22 1 32 4
23 2 -10 2 -28 0 -40z m-2855 17 c-2 -14 -6 -25 -8 -25 -2 0 -4 11 -4 25 0 14
4 25 9 25 4 0 6 -11 3 -25z m1981 -74 c-5 -3 -15 -33 -22 -66 -7 -33 -23 -109
-36 -170 -13 -60 -26 -140 -30 -178 -7 -70 -18 -79 -31 -24 -4 17 -9 26 -11
20 -8 -23 -21 -14 -33 23 -14 41 -9 52 13 29 20 -19 31 -19 47 0 10 12 10 21
1 38 -9 17 -8 37 4 92 9 39 27 124 41 190 32 157 34 160 51 101 9 -28 11 -51
6 -55z m1004 47 c-2 -13 -4 -5 -4 17 -1 22 1 32 4 23 2 -10 2 -28 0 -40z
m-410 20 c-3 -8 -6 -5 -6 6 -1 11 2 17 5 13 3 -3 4 -12 1 -19z m-2904 -8 c-3
-12 -8 -19 -11 -16 -5 6 5 36 12 36 2 0 2 -9 -1 -20z m1997 -87 c-20 -87 -24
-95 -36 -78 -26 36 -10 125 22 125 14 0 14 3 4 15 -11 13 -10 18 6 29 10 8 21
13 23 11 2 -3 -6 -48 -19 -102z m58 79 c2 -7 -3 -12 -12 -12 -9 0 -16 7 -16
16 0 17 22 14 28 -4z m857 -11 c3 -5 1 -12 -5 -16 -5 -3 -10 1 -10 9 0 18 6
21 15 7z m-865 -22 c0 -20 -42 -150 -47 -145 -8 7 28 156 38 156 5 0 9 -5 9
-11z m-1789 -62 c-13 -13 -14 5 -3 43 l7 25 3 -29 c2 -16 -1 -33 -7 -39z m50
36 c-8 -15 -10 -15 -11 -2 0 17 10 32 18 25 2 -3 -1 -13 -7 -23z m1784 -46
c-11 -63 -21 -84 -44 -90 -12 -3 -23 -2 -25 1 -2 4 7 42 20 85 23 70 27 76 40
62 12 -12 14 -26 9 -58z m836 -42 c1 -5 -1 -48 -4 -95 -4 -47 -9 -142 -11
-212 -2 -70 -8 -133 -14 -140 -5 -7 -13 -24 -15 -38 -7 -30 -1 66 13 205 5 55
10 165 11 245 1 108 3 132 9 95 4 -27 9 -54 11 -60z m176 83 c-3 -8 -6 -5 -6
6 -1 11 2 17 5 13 3 -3 4 -12 1 -19z m-2960 -20 c-3 -7 -5 -2 -5 12 0 14 2 19
5 13 2 -7 2 -19 0 -25z m2209 -93 c10 -40 1 -221 -11 -233 -3 -4 -11 0 -16 8
-8 11 -9 4 -4 -23 4 -27 3 -37 -4 -32 -18 11 -12 -23 7 -42 10 -10 31 -61 45
-113 32 -113 80 -347 75 -362 -6 -16 -76 237 -88 320 -7 39 -16 70 -20 67 -5
-3 -17 23 -28 57 -16 50 -19 71 -11 103 46 202 56 256 40 240 -9 -11 -30 -86
-42 -155 -17 -101 -21 -118 -39 -195 -15 -65 -19 -73 -21 -45 -4 68 -3 80 46
350 15 80 29 152 32 160 5 15 21 -27 39 -105z m594 90 c0 -8 -4 -15 -10 -15
-5 0 -7 7 -4 15 4 8 8 15 10 15 2 0 4 -7 4 -15z m-820 -32 c0 -29 -15 -61 -24
-52 -8 8 6 79 15 79 5 0 9 -12 9 -27z m1227 -35 c-2 -13 -4 -5 -4 17 -1 22 1
32 4 23 2 -10 2 -28 0 -40z m-1727 7 c12 4 20 2 20 -5 0 -12 -9 -16 -57 -24
-23 -4 -33 -2 -33 7 0 22 22 38 36 26 7 -6 22 -8 34 -4z m-1477 -40 c-7 -21
-13 -19 -13 6 0 11 4 18 10 14 5 -3 7 -12 3 -20z m3074 -7 c-3 -7 -5 -2 -5 12
0 14 2 19 5 13 2 -7 2 -19 0 -25z m-3160 -45 c-3 -10 -5 -2 -5 17 0 19 2 27 5
18 2 -10 2 -26 0 -35z m1200 -10 c-3 -10 -5 -4 -5 12 0 17 2 24 5 18 2 -7 2
-21 0 -30z m679 -58 c-6 -31 -10 -35 -38 -35 -29 0 -30 2 -24 31 3 17 6 46 6
64 l0 33 31 -29 c27 -25 30 -34 25 -64z m1397 10 c4 -39 3 -54 -3 -45 -9 14
-15 119 -6 109 2 -2 6 -31 9 -64z m-1778 33 c-14 -49 -14 -62 0 -33 8 17 14
36 15 43 0 6 11 12 25 12 24 0 26 -2 20 -37 -11 -62 -13 -65 -47 -61 -29 3
-33 7 -36 36 -4 39 3 62 18 62 7 0 9 -9 5 -22z m551 -25 c-3 -21 -6 -45 -6
-55 0 -13 -8 -15 -42 -12 -100 11 -108 14 -108 37 0 39 15 50 56 44 25 -4 48
-1 64 7 39 22 43 19 36 -21z m1103 -67 c-9 -8 -10 -2 -5 29 3 22 7 47 8 55 1
8 3 -5 5 -29 3 -26 -1 -48 -8 -55z m-1964 18 c-3 -24 -11 -44 -17 -44 -6 0 -8
10 -4 26 4 15 10 40 13 58 9 45 16 12 8 -40z m1852 24 c-3 -7 -5 -2 -5 12 0
14 2 19 5 13 2 -7 2 -19 0 -25z m-3037 -17 c0 -6 -4 -13 -10 -16 -5 -3 -10 1
-10 9 0 9 5 16 10 16 6 0 10 -4 10 -9z m-43 -53 c-3 -7 -5 -2 -5 12 0 14 2 19
5 13 2 -7 2 -19 0 -25z m1603 12 c-14 -4 -50 -8 -80 -8 -53 1 -54 1 -15 8 22
4 58 7 80 8 34 0 36 -1 15 -8z m-1439 -51 l-10 -24 0 26 c-1 14 2 29 6 33 12
12 14 -9 4 -35z m3155 -7 c-11 -10 -15 4 -8 28 l7 25 3 -23 c2 -13 1 -26 -2
-30z m-319 -4 c-3 -8 -6 -5 -6 6 -1 11 2 17 5 13 3 -3 4 -12 1 -19z m-2112 -8
c3 -5 1 -10 -4 -10 -6 0 -11 5 -11 10 0 6 2 10 4 10 3 0 8 -4 11 -10z m-568
-42 c-3 -7 -5 -2 -5 12 0 14 2 19 5 13 2 -7 2 -19 0 -25z m-280 -10 c-3 -7 -5
-2 -5 12 0 14 2 19 5 13 2 -7 2 -19 0 -25z m853 3 c-12 -23 -30 -36 -30 -22 0
21 13 41 26 41 11 0 12 -4 4 -19z m2380 -36 c-4 -25 -10 -49 -15 -53 -4 -4 -5
4 -2 18 4 14 7 37 7 53 0 15 4 27 8 27 5 0 6 -20 2 -45z m-53 13 c-3 -8 -6 -5
-6 6 -1 11 2 17 5 13 3 -3 4 -12 1 -19z m90 -60 c-12 -99 -29 -134 -22 -45 5
59 19 117 28 117 1 0 -1 -33 -6 -72z m-3188 -5 c-1 -51 -3 -60 -8 -38 -7 29
-3 105 5 105 2 0 4 -30 3 -67z m2174 -38 c3 -16 9 -39 13 -50 5 -14 4 -17 -4
-10 -9 9 -24 54 -47 145 -4 14 2 7 13 -15 10 -22 21 -53 25 -70z m825 55 c-6
-23 -13 -39 -15 -36 -7 7 8 76 17 76 4 0 3 -18 -2 -40z m-812 -185 c25 -82 59
-187 75 -233 29 -84 38 -152 19 -152 -6 0 -13 8 -17 18 -3 9 -15 30 -26 46
-11 16 -21 36 -22 45 -2 15 -8 33 -42 111 -9 19 -15 60 -14 91 1 43 -6 72 -30
125 -20 43 -27 70 -20 72 6 2 11 18 12 35 1 43 6 30 65 -158z m1031 153 c-3
-8 -6 -5 -6 6 -1 11 2 17 5 13 3 -3 4 -12 1 -19z m-3347 -70 c0 -19 -2 -20
-10 -8 -13 19 -13 30 0 30 6 0 10 -10 10 -22z m820 -50 c-24 -106 -30 -126
-44 -131 -22 -9 -9 109 17 160 28 56 43 40 27 -29z m670 58 c0 -3 -4 -8 -10
-11 -5 -3 -10 -1 -10 4 0 6 5 11 10 11 6 0 10 -2 10 -4z m-645 -62 l-15 -39 6
35 c7 38 14 54 20 47 2 -2 -3 -21 -11 -43z m-768 -26 c-2 -13 -4 -3 -4 22 0
25 2 35 4 23 2 -13 2 -33 0 -45z m3186 20 c-7 -57 -22 -84 -23 -41 0 27 17 83
26 83 1 0 0 -19 -3 -42z m-412 -64 c-6 -24 -11 -54 -11 -68 0 -14 -5 -28 -11
-32 -13 -8 -6 68 14 151 10 43 12 46 15 21 2 -16 -1 -48 -7 -72z m316 34 c-3
-7 -5 -2 -5 12 0 14 2 19 5 13 2 -7 2 -19 0 -25z m136 2 c-3 -12 -8 -19 -11
-16 -5 6 5 36 12 36 2 0 2 -9 -1 -20z m-2611 -177 c-2 -7 -7 -13 -12 -13 -9 0
-12 168 -3 183 8 12 22 -148 15 -170z m2429 146 c-5 -13 -10 -19 -10 -12 -1
15 10 45 15 40 3 -2 0 -15 -5 -28z m-2465 -106 c3 -65 6 -127 7 -138 1 -11 -4
-20 -13 -20 -12 0 -14 -12 -13 -50 4 -69 -13 -28 -23 54 -3 34 -11 61 -16 61
-5 0 -5 7 0 18 5 9 13 44 16 77 8 65 25 129 33 121 3 -2 7 -58 9 -123z m-619
45 c-3 -7 -5 -2 -5 12 0 14 2 19 5 13 2 -7 2 -19 0 -25z m3260 0 c-3 -7 -5 -2
-5 12 0 14 2 19 5 13 2 -7 2 -19 0 -25z m-2434 -10 c-6 -32 -23 -63 -23 -41 0
13 21 73 26 73 2 0 1 -15 -3 -32z m1054 0 c-3 -7 -5 -2 -5 12 0 14 2 19 5 13
2 -7 2 -19 0 -25z m1334 -14 c-9 -28 -9 -29 -10 -3 -1 14 2 29 6 32 11 12 13
2 4 -29z m-2498 -46 c5 -54 2 -70 -24 -127 -22 -49 -32 -62 -39 -51 -5 8 -5
21 1 32 6 10 8 22 5 27 -3 4 4 37 15 74 11 36 19 69 18 74 -4 21 2 44 10 39 4
-3 11 -33 14 -68z m2588 2 l-9 -45 -1 42 c-1 44 11 91 16 63 2 -8 -1 -35 -6
-60z m-41 40 c0 -5 -4 -10 -10 -10 -5 0 -10 5 -10 10 0 6 5 10 10 10 6 0 10
-4 10 -10z m-2005 -20 c3 -5 1 -10 -4 -10 -6 0 -11 5 -11 10 0 6 2 10 4 10 3
0 8 -4 11 -10z m782 -12 c-3 -8 -6 -5 -6 6 -1 11 2 17 5 13 3 -3 4 -12 1 -19z
m-487 2 c0 -5 -4 -10 -10 -10 -5 0 -10 5 -10 10 0 6 5 10 10 10 6 0 10 -4 10
-10z m1565 -71 c-8 -19 -13 -25 -9 -14 3 11 8 34 12 50 3 17 8 23 10 14 1 -9
-4 -32 -13 -50z m-3072 -3 c-3 -19 4 -52 16 -84 12 -29 20 -63 20 -75 -1 -20
-2 -20 -6 -2 -2 11 -13 44 -24 73 -19 53 -27 161 -10 133 5 -8 7 -28 4 -45z
m3169 14 c-2 -22 -6 -40 -8 -40 -2 0 -4 18 -4 40 0 22 3 40 8 40 4 0 6 -18 4
-40z m-3060 5 c3 -13 1 -22 -3 -19 -9 5 -13 44 -5 44 2 0 6 -11 8 -25z m1398
5 c0 -5 -4 -10 -10 -10 -5 0 -10 5 -10 10 0 6 5 10 10 10 6 0 10 -4 10 -10z
m-1555 -90 c-13 -13 -15 -8 -15 40 l1 55 14 -40 c13 -35 12 -42 0 -55z m-75
55 c0 -8 -4 -17 -10 -20 -6 -4 -10 5 -10 20 0 15 4 24 10 20 6 -3 10 -12 10
-20z m3342 -182 c2 -99 0 -179 -4 -176 -5 2 -7 91 -7 196 2 236 7 225 11 -20z
m35 165 c-3 -7 -5 -2 -5 12 0 14 2 19 5 13 2 -7 2 -19 0 -25z m-1940 0 c-3 -8
-6 -5 -6 6 -1 11 2 17 5 13 3 -3 4 -12 1 -19z m323 18 c0 -3 -4 -8 -10 -11 -5
-3 -10 -1 -10 4 0 6 5 11 10 11 6 0 10 -2 10 -4z m-123 -22 c-3 -3 -12 -4 -19
-1 -8 3 -5 6 6 6 11 1 17 -2 13 -5z m1633 -1 c0 -5 -5 -15 -10 -23 -8 -12 -10
-11 -10 8 0 12 5 22 10 22 6 0 10 -3 10 -7z m-1380 -13 c0 -5 -4 -10 -10 -10
-5 0 -10 5 -10 10 0 6 5 10 10 10 6 0 10 -4 10 -10z m-1256 -15 c-4 -8 -8 -15
-10 -15 -2 0 -4 7 -4 15 0 8 4 15 10 15 5 0 7 -7 4 -15z m1116 0 c0 -8 -4 -15
-10 -15 -5 0 -10 7 -10 15 0 8 5 15 10 15 6 0 10 -7 10 -15z m1417 -17 c-3 -8
-6 -5 -6 6 -1 11 2 17 5 13 3 -3 4 -12 1 -19z m-1527 2 c0 -5 -7 -10 -15 -10
-8 0 -15 5 -15 10 0 6 7 10 15 10 8 0 15 -4 15 -10z m150 0 c0 -5 -2 -10 -4
-10 -3 0 -8 5 -11 10 -3 6 -1 10 4 10 6 0 11 -4 11 -10z m-283 -37 c-3 -10 -5
-4 -5 12 0 17 2 24 5 18 2 -7 2 -21 0 -30z m520 15 c-3 -8 -6 -5 -6 6 -1 11 2
17 5 13 3 -3 4 -12 1 -19z m-1389 -24 c0 -42 8 -52 42 -56 19 -2 25 2 24 15
-1 11 5 17 18 17 18 0 18 -1 1 -24 -13 -17 -32 -26 -67 -30 -26 -4 -50 -6 -51
-4 -6 6 19 118 26 118 4 0 7 -16 7 -36z m842 16 c0 -11 -4 -20 -10 -20 -5 0
-10 9 -10 20 0 11 5 20 10 20 6 0 10 -9 10 -20z m667 -17 c-3 -10 -5 -4 -5 12
0 17 2 24 5 18 2 -7 2 -21 0 -30z m-707 7 c0 -11 -4 -20 -10 -20 -5 0 -10 9
-10 20 0 11 5 20 10 20 6 0 10 -9 10 -20z m150 16 c0 -11 -19 -15 -25 -6 -3 5
1 10 9 10 9 0 16 -2 16 -4z m300 -11 c0 -9 -6 -12 -15 -9 -8 4 -12 10 -9 15 8
14 24 10 24 -6z m1427 -32 c-3 -10 -5 -2 -5 17 0 19 2 27 5 18 2 -10 2 -26 0
-35z m-3038 -6 c1 -5 -3 -5 -9 -2 -5 3 -10 16 -9 28 0 21 1 21 9 2 5 -11 9
-24 9 -28z m828 21 c-3 -8 -6 -5 -6 6 -1 11 2 17 5 13 3 -3 4 -12 1 -19z m220
0 c-3 -8 -6 -5 -6 6 -1 11 2 17 5 13 3 -3 4 -12 1 -19z m423 12 c0 -5 -2 -10
-4 -10 -3 0 -8 5 -11 10 -3 6 -1 10 4 10 6 0 11 -4 11 -10z m36 -17 c-10 -10
-19 5 -10 18 6 11 8 11 12 0 2 -7 1 -15 -2 -18z m561 5 c-3 -8 -6 -5 -6 6 -1
11 2 17 5 13 3 -3 4 -12 1 -19z m946 -3 c-7 -21 -13 -19 -13 6 0 11 4 18 10
14 5 -3 7 -12 3 -20z m-3172 -32 c-9 -15 -10 -12 -10 17 0 29 1 32 10 18 7
-12 7 -24 0 -35z m1469 17 c0 -19 -11 -26 -23 -14 -8 8 3 34 14 34 5 0 9 -9 9
-20z m50 5 c0 -8 -7 -15 -15 -15 -8 0 -15 7 -15 15 0 8 7 15 15 15 8 0 15 -7
15 -15z m-493 -17 c-3 -8 -6 -5 -6 6 -1 11 2 17 5 13 3 -3 4 -12 1 -19z m93
12 c0 -5 -5 -10 -11 -10 -5 0 -7 5 -4 10 3 6 8 10 11 10 2 0 4 -4 4 -10z m270
-11 c0 -11 -4 -18 -10 -14 -5 3 -7 12 -3 20 7 21 13 19 13 -6z m380 11 c0 -5
-4 -10 -10 -10 -5 0 -10 5 -10 10 0 6 5 10 10 10 6 0 10 -4 10 -10z m1321 -37
c-9 -16 -10 -16 -11 -1 0 9 3 25 7 35 7 16 8 17 11 1 2 -10 -1 -25 -7 -35z
m-2421 27 c0 -5 -5 -10 -11 -10 -5 0 -7 5 -4 10 3 6 8 10 11 10 2 0 4 -4 4
-10z m646 -27 c-11 -11 -19 6 -11 24 8 17 8 17 12 0 3 -10 2 -21 -1 -24z m44
22 c0 -8 -4 -15 -10 -15 -5 0 -10 7 -10 15 0 8 5 15 10 15 6 0 10 -7 10 -15z
m857 -17 c-3 -7 -5 -2 -5 12 0 14 2 19 5 13 2 -7 2 -19 0 -25z m-937 7 c0 -8
-4 -15 -10 -15 -5 0 -10 7 -10 15 0 8 5 15 10 15 6 0 10 -7 10 -15z m1873 -95
c2 -52 1 -84 -4 -70 -7 24 -11 196 -4 175 2 -5 5 -53 8 -105z m-1946 78 c-3
-8 -6 -5 -6 6 -1 11 2 17 5 13 3 -3 4 -12 1 -19z m307 1 c-3 -5 -10 -7 -15 -3
-5 3 -7 10 -3 15 3 5 10 7 15 3 5 -3 7 -10 3 -15z m1683 -1 c-3 -8 -6 -5 -6 6
-1 11 2 17 5 13 3 -3 4 -12 1 -19z m-2077 -10 c0 -16 -3 -19 -11 -11 -6 6 -8
16 -5 22 11 17 16 13 16 -11z m56 -5 c-10 -10 -19 5 -10 18 6 11 8 11 12 0 2
-7 1 -15 -2 -18z m294 17 c0 -5 -4 -10 -10 -10 -5 0 -10 5 -10 10 0 6 5 10 10
10 6 0 10 -4 10 -10z m557 -12 c-3 -8 -6 -5 -6 6 -1 11 2 17 5 13 3 -3 4 -12
1 -19z m-1899 -83 c-1 -31 -16 35 -16 70 0 25 2 24 9 -10 4 -22 8 -49 7 -60z
m1262 85 c0 -5 -5 -10 -11 -10 -5 0 -7 5 -4 10 3 6 8 10 11 10 2 0 4 -4 4 -10z
m520 0 c0 -5 -4 -10 -10 -10 -5 0 -10 5 -10 10 0 6 5 10 10 10 6 0 10 -4 10
-10z m-590 -15 c0 -8 -4 -15 -10 -15 -5 0 -10 7 -10 15 0 8 5 15 10 15 6 0 10
-7 10 -15z m40 11 c0 -3 -4 -8 -10 -11 -5 -3 -10 -1 -10 4 0 6 5 11 10 11 6 0
10 -2 10 -4z m410 -21 c0 -14 -4 -25 -10 -25 -5 0 -10 11 -10 25 0 14 5 25 10
25 6 0 10 -11 10 -25z m-490 5 c0 -5 -4 -10 -10 -10 -5 0 -10 5 -10 10 0 6 5
10 10 10 6 0 10 -4 10 -10z m427 -27 c-3 -10 -5 -4 -5 12 0 17 2 24 5 18 2 -7
2 -21 0 -30z m150 -25 c-2 -13 -4 -3 -4 22 0 25 2 35 4 23 2 -13 2 -33 0 -45z
m-677 42 c0 -5 -4 -10 -10 -10 -5 0 -10 5 -10 10 0 6 5 10 10 10 6 0 10 -4 10
-10z m450 -17 c0 -20 -3 -24 -11 -16 -7 7 -9 19 -6 27 10 24 17 19 17 -11z
m40 8 c0 -11 -4 -23 -10 -26 -6 -4 -10 5 -10 19 0 14 5 26 10 26 6 0 10 -9 10
-19z m-1720 -13 l9 -23 0 24 c1 13 4 21 8 18 7 -7 10 -27 17 -103 4 -47 44
-103 58 -82 5 9 8 6 8 -9 0 -25 -1 -26 -24 -17 -9 3 -16 13 -16 21 0 9 -6 13
-14 10 -10 -4 -17 4 -21 26 -3 18 -10 41 -15 52 -12 28 -30 86 -30 96 0 17 11
9 20 -13z m207 -30 c-2 -13 -4 -5 -4 17 -1 22 1 32 4 23 2 -10 2 -28 0 -40z
m70 -10 c-2 -13 -4 -3 -4 22 0 25 2 35 4 23 2 -13 2 -33 0 -45z m700 40 c-3
-8 -6 -5 -6 6 -1 11 2 17 5 13 3 -3 4 -12 1 -19z m60 0 c-3 -8 -6 -5 -6 6 -1
11 2 17 5 13 3 -3 4 -12 1 -19z m133 12 c0 -5 -4 -10 -10 -10 -5 0 -10 5 -10
10 0 6 5 10 10 10 6 0 10 -4 10 -10z m400 -26 c0 -13 -4 -24 -10 -24 -5 0 -10
14 -10 31 0 17 4 28 10 24 6 -3 10 -17 10 -31z m1571 9 c-12 -20 -14 -14 -5
12 4 9 9 14 11 11 3 -2 0 -13 -6 -23z m100 -8 c5 4 9 -3 9 -15 0 -19 -2 -20
-15 -6 -8 8 -14 25 -14 38 l2 23 4 -23 c2 -12 9 -20 14 -17z m-1721 0 c0 -14
-4 -25 -10 -25 -5 0 -10 11 -10 25 0 14 5 25 10 25 6 0 10 -11 10 -25z m866
-12 c-11 -11 -17 4 -9 23 7 18 8 18 11 1 2 -10 1 -21 -2 -24z m791 -25 c-2
-13 -4 -3 -4 22 0 25 2 35 4 23 2 -13 2 -33 0 -45z m-1737 27 c0 -14 -4 -25
-10 -25 -5 0 -10 11 -10 25 0 14 5 25 10 25 6 0 10 -11 10 -25z m27 -12 c-3
-10 -5 -4 -5 12 0 17 2 24 5 18 2 -7 2 -21 0 -30z m520 15 c-3 -8 -6 -5 -6 6
-1 11 2 17 5 13 3 -3 4 -12 1 -19z m-1740 -10 c-3 -8 -6 -5 -6 6 -1 11 2 17 5
13 3 -3 4 -12 1 -19z m1123 -5 c0 -20 -3 -24 -11 -16 -7 7 -9 19 -6 27 10 24
17 19 17 -11z m32 2 c-2 -14 -6 -25 -8 -25 -2 0 -4 11 -4 25 0 14 4 25 9 25 4
0 6 -11 3 -25z m558 15 c0 -5 -4 -10 -10 -10 -5 0 -10 5 -10 10 0 6 5 10 10
10 6 0 10 -4 10 -10z m-633 -32 c-3 -7 -5 -2 -5 12 0 14 2 19 5 13 2 -7 2 -19
0 -25z m493 22 c0 -5 -4 -10 -10 -10 -5 0 -10 5 -10 10 0 6 5 10 10 10 6 0 10
-4 10 -10z m257 -67 c-2 -16 -4 -3 -4 27 0 30 2 43 4 28 2 -16 2 -40 0 -55z
m-1933 12 c5 -21 4 -27 -3 -20 -6 6 -13 26 -16 45 -7 42 8 21 19 -25z m1086
30 c0 -14 -4 -25 -10 -25 -11 0 -14 33 -3 43 11 11 13 8 13 -18z m490 15 c0
-5 -8 -10 -17 -10 -15 0 -16 2 -3 10 19 12 20 12 20 0z m860 -4 c0 -8 -4 -18
-10 -21 -5 -3 -10 3 -10 14 0 12 5 21 10 21 6 0 10 -6 10 -14z m137 -23 c-3
-10 -5 -4 -5 12 0 17 2 24 5 18 2 -7 2 -21 0 -30z m-2834 -6 c-4 -19 -8 -25
-13 -16 -5 7 -3 20 3 30 15 23 16 20 10 -14z m1287 3 c0 -16 -4 -30 -10 -30
-5 0 -10 14 -10 30 0 17 5 30 10 30 6 0 10 -13 10 -30z m790 -2 c0 -18 -5 -40
-10 -48 -7 -11 -10 -2 -10 33 0 26 5 47 10 47 6 0 10 -15 10 -32z m27 -30 c-2
-13 -4 -3 -4 22 0 25 2 35 4 23 2 -13 2 -33 0 -45z m40 30 c-3 -7 -5 -2 -5 12
0 14 2 19 5 13 2 -7 2 -19 0 -25z m480 0 c-3 -7 -5 -2 -5 12 0 14 2 19 5 13 2
-7 2 -19 0 -25z m-600 -40 c-2 -13 -4 -3 -4 22 0 25 2 35 4 23 2 -13 2 -33 0
-45z m270 15 c-3 -10 -5 -2 -5 17 0 19 2 27 5 18 2 -10 2 -26 0 -35z m964 -23
c-9 -24 -10 -24 -10 7 -1 17 2 40 7 50 6 15 7 14 10 -7 2 -14 -2 -37 -7 -50z
m-2714 38 c-3 -8 -6 -5 -6 6 -1 11 2 17 5 13 3 -3 4 -12 1 -19z m623 1 c0 -5
-4 -9 -10 -9 -5 0 -10 7 -10 16 0 8 5 12 10 9 6 -3 10 -10 10 -16z m470 11 c0
-5 -5 -10 -11 -10 -5 0 -7 5 -4 10 3 6 8 10 11 10 2 0 4 -4 4 -10z m57 4 c-3
-3 -12 -4 -19 -1 -8 3 -5 6 6 6 11 1 17 -2 13 -5z m242 -31 c0 -31 -2 -34 -9
-18 -12 28 -12 55 0 55 6 0 10 -17 9 -37z m1423 -45 c-6 -6 -12 -6 -16 1 -4 6
-2 11 3 11 6 0 12 17 13 38 l1 37 4 -39 c3 -21 0 -43 -5 -48z m-3234 -3 c17
-51 20 -70 11 -76 -17 -10 -46 51 -51 106 -5 64 13 51 40 -30z m59 43 c-3 -7
-5 -2 -5 12 0 14 2 19 5 13 2 -7 2 -19 0 -25z m170 0 c-3 -7 -5 -2 -5 12 0 14
2 19 5 13 2 -7 2 -19 0 -25z m1483 2 c0 -16 -4 -30 -10 -30 -5 0 -10 14 -10
30 0 17 5 30 10 30 6 0 10 -13 10 -30z m37 -7 c-3 -10 -5 -4 -5 12 0 17 2 24
5 18 2 -7 2 -21 0 -30z m1010 15 c-3 -8 -6 -5 -6 6 -1 11 2 17 5 13 3 -3 4
-12 1 -19z m-1137 -24 c0 -23 -19 -35 -21 -14 -1 6 -2 16 -3 23 -3 18 4 28 15
22 5 -4 9 -17 9 -31z m50 10 c0 -14 -4 -23 -10 -19 -5 3 -10 15 -10 26 0 10 5
19 10 19 6 0 10 -12 10 -26z m-100 -10 c0 -31 -23 -28 -28 4 -2 15 2 22 12 22
11 0 16 -9 16 -26z m-1243 -15 c0 -29 -2 -30 -13 -14 -10 14 -11 22 -3 32 15
18 16 17 16 -18z m653 21 c0 -5 -4 -10 -10 -10 -5 0 -10 5 -10 10 0 6 5 10 10
10 6 0 10 -4 10 -10z m481 -27 c-9 -16 -10 -14 -11 12 0 21 3 26 11 18 8 -8 8
-16 0 -30z m49 16 c0 -11 -4 -17 -10 -14 -5 3 -10 13 -10 21 0 8 5 14 10 14 6
0 10 -9 10 -21z m1807 -46 c-2 -16 -4 -5 -4 22 0 28 2 40 4 28 2 -13 2 -35 0
-50z m-3150 5 c1 -39 0 -40 -7 -13 -11 42 -11 67 -2 61 5 -3 9 -24 9 -48z
m1060 46 c-3 -3 -12 -4 -19 -1 -8 3 -5 6 6 6 11 1 17 -2 13 -5z m173 -1 c0 -5
-5 -15 -10 -23 -8 -12 -10 -11 -10 8 0 12 5 22 10 22 6 0 10 -3 10 -7z m30
-13 c0 -11 -4 -20 -10 -20 -5 0 -10 9 -10 20 0 11 5 20 10 20 6 0 10 -9 10
-20z m-100 -22 c0 -5 -4 -8 -10 -8 -5 0 -10 10 -10 23 0 18 2 19 10 7 5 -8 10
-18 10 -22z m27 0 c-3 -7 -5 -2 -5 12 0 14 2 19 5 13 2 -7 2 -19 0 -25z
m-1113 -36 c3 -6 -1 -12 -9 -16 -12 -4 -15 3 -14 37 1 37 2 39 9 15 4 -14 11
-31 14 -36z m131 33 c0 -14 -3 -25 -7 -25 -5 0 -8 11 -8 25 0 14 3 25 8 25 4
0 7 -11 7 -25z m855 10 c0 -8 -4 -15 -10 -15 -5 0 -10 7 -10 15 0 8 5 15 10
15 6 0 10 -7 10 -15z m-940 -32 c0 -43 -5 -41 -13 5 -4 18 -2 32 3 32 6 0 10
-16 10 -37z m866 10 c-10 -10 -19 5 -10 18 6 11 8 11 12 0 2 -7 1 -15 -2 -18z
m1211 -5 c-3 -7 -5 -2 -5 12 0 14 2 19 5 13 2 -7 2 -19 0 -25z m-1387 7 c0 -8
-2 -15 -4 -15 -2 0 -6 7 -10 15 -3 8 -1 15 4 15 6 0 10 -7 10 -15z m-113 -27
c-3 -7 -5 -2 -5 12 0 14 2 19 5 13 2 -7 2 -19 0 -25z m-660 -10 c-3 -7 -5 -2
-5 12 0 14 2 19 5 13 2 -7 2 -19 0 -25z m1020 16 c-3 -3 -12 -4 -19 -1 -8 3
-5 6 6 6 11 1 17 -2 13 -5z m1050 -31 c-3 -10 -5 -4 -5 12 0 17 2 24 5 18 2
-7 2 -21 0 -30z m-2377 -3 c0 -16 -4 -30 -9 -30 -8 0 -9 43 -2 58 5 11 11 -3
11 -28z m3257 -2 c-3 -7 -5 -2 -5 12 0 14 2 19 5 13 2 -7 2 -19 0 -25z m-244
-20 c-6 -11 -41 -10 -48 2 -3 6 3 10 14 10 13 0 21 7 22 18 0 14 2 14 8 -3 5
-11 7 -23 4 -27z m-2973 12 c0 -5 -5 -10 -11 -10 -5 0 -7 5 -4 10 3 6 8 10 11
10 2 0 4 -4 4 -10z m950 6 c0 -3 -4 -8 -10 -11 -5 -3 -10 -1 -10 4 0 6 5 11
10 11 6 0 10 -2 10 -4z m1935 -6 c3 -5 -1 -10 -10 -10 -9 0 -13 5 -10 10 3 6
8 10 10 10 2 0 7 -4 10 -10z m194 -11 c-15 -9 -32 -2 -24 11 3 5 13 6 21 3 12
-4 13 -8 3 -14z m-139 -39 c0 -5 -11 -10 -25 -10 -14 0 -25 5 -25 10 0 6 11
10 25 10 14 0 25 -4 25 -10z"/>
<path d="M1064 2216 c-8 -34 3 -92 22 -111 18 -17 24 -18 43 -6 20 13 -7 109
-37 129 -20 13 -22 12 -28 -12z m45 -81 c1 -17 -1 -17 -9 -5 -5 8 -9 26 -9 40
0 23 1 23 9 5 5 -11 9 -29 9 -40z"/>
<path d="M847 2048 c-28 -22 -39 -67 -24 -97 33 -62 53 -91 64 -91 15 0 48 48
39 57 -3 3 4 11 17 17 19 10 21 18 18 56 -4 57 -15 70 -60 70 -21 0 -45 -6
-54 -12z m73 -48 c0 -31 -18 -80 -30 -80 -15 0 -40 49 -34 67 3 10 8 24 10 31
2 6 15 12 29 12 21 0 25 -5 25 -30z"/>
<path d="M968 1905 c-5 -5 -22 -27 -38 -49 l-30 -38 34 -23 c29 -20 41 -22 92
-16 l59 6 3 67 3 66 -57 -1 c-32 -1 -62 -6 -66 -12z m92 -42 c0 -32 -15 -42
-58 -40 -45 1 -51 10 -25 39 22 24 83 25 83 1z"/>
<path d="M1291 1885 c1 -40 1 -40 11 -12 7 21 7 32 -1 40 -8 8 -11 0 -10 -28z"/>
<path d="M775 1880 c-3 -5 -25 -10 -48 -10 -23 0 -48 -4 -54 -8 -16 -10 -10
-111 7 -122 6 -4 34 -5 62 -3 40 3 56 11 84 38 19 19 34 38 34 43 0 9 -63 72
-72 72 -4 0 -10 -4 -13 -10z m23 -42 c16 -16 15 -38 -3 -38 -7 0 -18 -7 -23
-16 -6 -10 -19 -14 -38 -12 -23 2 -30 8 -32 31 -3 21 1 27 17 27 11 0 23 5 26
10 8 14 38 13 53 -2z"/>
<path d="M1182 1861 c-6 -4 -12 -22 -13 -41 -2 -19 -6 -39 -10 -45 -3 -5 -23
-53 -44 -105 -20 -52 -41 -100 -46 -106 -15 -18 -68 -131 -91 -192 -17 -45
-18 -56 -7 -63 16 -10 24 6 34 64 3 21 10 35 16 32 5 -4 9 5 9 19 0 41 31 27
43 -19 3 -11 5 -4 6 18 1 26 -3 36 -10 31 -14 -8 -8 12 33 121 16 44 38 94 49
111 10 17 16 33 14 36 -3 3 6 29 19 59 l24 54 1 -113 c1 -82 -3 -121 -14 -142
-19 -36 -19 -74 0 -125 8 -22 14 -68 15 -102 0 -35 4 -63 10 -63 6 0 10 19 10
41 0 40 0 41 23 27 18 -12 31 -13 74 -3 65 15 73 22 107 90 28 58 29 110 2
127 -8 6 -7 8 2 8 14 0 16 36 2 45 -5 3 -11 30 -11 58 l-1 52 -10 -52 c-9 -47
-11 -52 -28 -43 -10 6 -22 15 -25 20 -9 14 -68 13 -83 -2 -17 -17 -24 -5 -14
23 12 32 25 136 16 127 -4 -4 -17 -49 -30 -100 -21 -82 -23 -87 -19 -38 3 30
8 80 12 110 6 51 5 54 -10 41 -15 -12 -17 -11 -17 12 0 26 -19 40 -38 28z m45
-93 c-3 -8 -6 -5 -6 6 -1 11 2 17 5 13 3 -3 4 -12 1 -19z m106 -125 c-7 -2
-19 -2 -25 0 -7 3 -2 5 12 5 14 0 19 -2 13 -5z m30 -71 c27 -29 36 -93 20
-135 -18 -44 -43 -53 -94 -37 -33 11 -41 19 -50 52 -12 46 -6 68 28 108 29 35
71 40 96 12z"/>
<path d="M1317 1853 c-11 -10 -8 -45 2 -38 6 3 9 14 8 25 -1 23 -1 22 -10 13z"/>
<path d="M1347 1810 c-3 -8 -8 -32 -11 -52 -4 -29 -1 -38 10 -38 21 0 27 25
16 67 -6 24 -11 32 -15 23z"/>
<path d="M1420 1769 c0 -17 4 -28 10 -24 6 3 10 17 10 31 0 13 -4 24 -10 24
-5 0 -10 -14 -10 -31z"/>
<path d="M841 1755 c-7 -20 -21 -41 -32 -48 -14 -9 -19 -23 -19 -58 0 -53 13
-69 56 -68 16 1 38 -2 49 -5 45 -15 61 107 23 175 -29 51 -59 53 -77 4z m59
-94 c0 -37 -14 -53 -41 -49 -20 2 -24 8 -22 33 1 17 5 40 8 53 5 21 6 21 30 6
16 -11 25 -26 25 -43z"/>
<path d="M1581 1738 c0 -28 2 -30 9 -13 12 28 12 45 0 45 -5 0 -10 -15 -9 -32z"/>
<path d="M1672 1723 c-14 -25 -27 -100 -16 -90 9 9 34 100 29 105 -2 2 -8 -5
-13 -15z"/>
<path d="M1710 1710 c0 -11 5 -20 10 -20 6 0 10 9 10 20 0 11 -4 20 -10 20 -5
0 -10 -9 -10 -20z"/>
<path d="M1705 1669 c-4 -6 -5 -13 -2 -16 7 -7 27 6 27 18 0 12 -17 12 -25 -2z"/>
<path d="M1147 1585 c-4 -22 -7 -57 -7 -77 0 -20 -5 -40 -10 -43 -7 -4 -8 -28
-5 -63 4 -32 8 -75 10 -97 4 -56 4 -55 13 -55 4 0 4 42 1 92 -4 51 -2 128 3
170 10 82 7 139 -5 73z"/>
<path d="M1663 1552 l-22 -27 -2 25 -1 25 -8 -25 c-4 -14 -8 -38 -8 -55 0 -16
2 -22 5 -12 4 14 14 17 50 15 l46 -3 1 40 c1 33 -2 40 -19 42 -11 1 -29 -9
-42 -25z"/>
<path d="M1106 1493 c-3 -16 -8 -42 -11 -60 -4 -18 -2 -34 4 -38 7 -4 11 10
11 39 0 25 5 46 10 46 6 0 10 9 10 20 0 30 -18 24 -24 -7z"/>
<path d="M1702 1445 c0 -16 2 -22 5 -12 2 9 2 23 0 30 -3 6 -5 -1 -5 -18z"/>
<path d="M1662 1440 c0 -14 2 -19 5 -12 2 6 2 18 0 25 -3 6 -5 1 -5 -13z"/>
<path d="M1042 1405 c0 -16 2 -22 5 -12 2 9 2 23 0 30 -3 6 -5 -1 -5 -18z"/>
<path d="M1390 1340 c0 -5 5 -10 10 -10 6 0 10 5 10 10 0 6 -4 10 -10 10 -5 0
-10 -4 -10 -10z"/>
<path d="M2680 2217 c-1 -25 -28 -89 -29 -69 -1 7 4 22 10 33 6 11 8 25 6 32
-6 14 -46 -70 -47 -96 0 -32 43 -16 62 23 27 57 32 86 14 93 -12 5 -16 0 -16
-16z"/>
<path d="M2759 2066 c-51 -38 -61 -66 -48 -124 8 -38 49 -82 75 -82 27 0 53
20 70 52 14 27 15 40 5 82 -6 28 -21 64 -34 79 l-22 28 -46 -35z m49 -38 c18
-18 15 -84 -4 -103 -24 -24 -49 -15 -47 18 1 15 -3 27 -8 27 -14 0 0 42 19 58
20 15 25 15 40 0z"/>
<path d="M2962 2050 c0 -8 4 -26 8 -40 6 -20 8 -21 8 -5 0 11 -3 29 -8 40 -5
12 -8 14 -8 5z"/>
<path d="M2586 1864 c-35 -35 -33 -122 4 -174 28 -40 56 -37 88 10 21 30 23
43 18 90 -4 30 -14 62 -23 72 -20 22 -66 23 -87 2z m74 -51 c0 -7 -4 -13 -10
-13 -5 0 -10 -11 -10 -25 0 -37 -20 -30 -21 8 0 32 0 32 -11 7 -9 -21 -12 -22
-15 -7 -3 10 3 29 11 42 14 22 19 23 36 13 11 -7 20 -18 20 -25z m1 -76 c-13
-33 -28 -42 -46 -27 -23 19 -18 33 9 26 19 -5 25 -1 29 16 4 12 9 20 12 16 3
-3 1 -17 -4 -31z"/>
<path d="M2903 1832 c-28 -4 -73 -77 -73 -119 0 -66 95 -98 154 -52 28 22 32
48 15 100 -20 59 -47 79 -96 71z m57 -58 c21 -62 -20 -120 -58 -82 -16 16 -15
53 3 88 21 40 41 38 55 -6z m-103 -61 c-3 -10 -5 -4 -5 12 0 17 2 24 5 18 2
-7 2 -21 0 -30z"/>
<path d="M2930 1755 c6 -8 8 -20 4 -26 -4 -8 -3 -9 4 -5 18 11 14 46 -4 46
-13 0 -14 -3 -4 -15z"/>
<path d="M2734 1656 c-67 -29 -84 -146 -29 -193 31 -27 52 -29 83 -7 66 46 67
169 3 204 -23 12 -19 12 -57 -4z m50 -78 c15 -56 1 -98 -32 -98 -10 0 -12 7
-8 20 3 11 9 28 12 38 4 13 0 19 -10 19 -9 0 -16 -8 -16 -18 0 -10 -4 -21 -10
-24 -6 -4 -10 8 -10 29 0 52 61 80 74 34z"/>
<path d="M2491 1583 c-1 -6 -4 -20 -7 -30 -5 -17 -5 -17 6 0 6 10 9 23 6 30
-3 9 -5 9 -5 0z"/>
</g>
</svg>
