<?xml version="1.0" standalone="no"?>
<!DOCTYPE svg PUBLIC "-//W3C//DTD SVG 20010904//EN"
 "http://www.w3.org/TR/2001/REC-SVG-20010904/DTD/svg10.dtd">
<svg version="1.0" xmlns="http://www.w3.org/2000/svg"
 width="297.000000pt" height="217.000000pt" viewBox="0 0 297.000000 217.000000"
 preserveAspectRatio="xMidYMid meet">
<metadata>
Created by potrace 1.16, written by Peter Selinger 2001-2019
</metadata>
<g transform="translate(0.000000,217.000000) scale(0.100000,-0.100000)"
fill="#000000" stroke="none">
<path d="M30 2115 c-18 -19 -18 -32 -8 -275 6 -140 12 -302 13 -360 1 -58 5
-224 9 -370 4 -146 8 -438 11 -649 2 -211 6 -386 9 -388 2 -3 184 -4 403 -4
389 1 678 13 738 31 40 11 314 21 714 26 179 2 327 8 330 13 3 4 119 11 256
15 339 9 358 9 376 1 26 -10 52 79 46 153 -3 31 -10 113 -16 182 -7 69 -14
222 -17 340 -19 788 -19 843 3 876 12 18 13 30 4 56 -6 19 -10 96 -8 181 1
103 -1 150 -10 155 -6 4 -13 12 -15 17 -6 18 66 17 -1018 15 -443 0 -889 2
-992 6 -109 3 -188 2 -188 -3 0 -5 -42 -7 -92 -5 -51 2 -191 4 -311 5 -206 2
-219 1 -237 -18z m718 -2 c-10 -2 -28 -2 -40 0 -13 2 -5 4 17 4 22 1 32 -1 23
-4z m1080 -30 c229 -3 445 -5 479 -4 74 2 104 -10 101 -42 -2 -29 21 -87 35
-87 6 0 7 -17 4 -44 -4 -25 -2 -59 4 -75 14 -40 4 -82 -16 -75 -10 4 -15 0
-15 -14 0 -22 -29 -38 -35 -19 -2 6 -9 30 -15 52 -22 75 -54 130 -104 179 -57
55 -98 76 -153 76 -21 0 -53 4 -72 10 -41 11 -353 16 -370 5 -7 -4 -25 -1 -42
5 -19 8 -33 9 -42 3 -15 -13 -167 -27 -312 -29 -143 -2 -145 -3 -145 -12 0 -5
33 -9 74 -9 41 -1 79 -4 85 -8 6 -3 14 -4 19 -2 12 8 151 20 241 21 56 1 86
-3 88 -11 3 -8 -12 -10 -51 -8 -32 2 -56 -1 -56 -6 0 -6 4 -8 9 -5 15 10 43
-6 37 -20 -7 -17 6 -18 23 -1 10 10 14 9 22 -5 5 -10 17 -14 29 -11 24 6 27
23 3 23 -9 0 -14 2 -12 4 2 3 47 7 98 11 83 5 92 4 81 -10 -7 -8 -25 -15 -41
-15 -15 0 -31 -4 -34 -10 -6 -10 40 -15 119 -12 44 1 40 -8 -12 -25 -36 -12
-35 -12 23 -7 144 12 200 9 235 -12 41 -24 73 -75 72 -115 0 -16 3 -27 7 -24
11 6 24 -57 13 -64 -11 -7 4 -383 17 -437 8 -31 9 -20 7 61 -4 129 7 176 19
85 5 -36 8 -74 7 -84 -1 -11 2 -23 8 -26 18 -11 31 -113 16 -125 -9 -7 -10
-15 -3 -26 8 -12 6 -27 -7 -54 -10 -20 -15 -44 -11 -53 6 -15 8 -15 15 3 7 17
9 15 9 -12 1 -17 -4 -35 -11 -39 -8 -5 -7 -10 3 -18 9 -7 15 -32 16 -66 4
-158 3 -204 -7 -214 -7 -7 -8 12 -5 60 4 47 2 64 -5 54 -11 -17 -12 -11 -11
45 1 29 -1 36 -8 24 -15 -23 -15 -150 -1 -181 7 -15 9 -35 5 -45 -7 -17 -8
-17 -15 2 l-9 20 -1 -20 c-1 -11 -1 -39 0 -63 2 -50 -9 -53 -63 -17 -20 14
-37 23 -37 19 0 -4 -8 0 -19 10 -11 10 -25 14 -36 10 -10 -4 0 11 23 34 38 38
52 62 36 62 -3 0 -21 -16 -39 -36 -19 -20 -38 -33 -44 -30 -5 4 -7 -3 -4 -16
5 -19 3 -21 -7 -11 -8 8 -18 9 -24 4 -6 -5 -49 -16 -96 -25 -47 -8 -146 -27
-220 -41 -74 -14 -157 -28 -185 -31 -56 -7 -65 -11 -47 -23 7 -4 44 -2 81 5
38 7 91 16 117 19 27 4 56 8 64 10 8 3 21 1 29 -4 9 -6 25 -2 45 10 32 20 71
26 61 10 -18 -30 79 -33 135 -4 30 15 54 17 45 3 -3 -5 -16 -10 -27 -10 -11 0
-26 -7 -32 -14 -6 -8 -29 -17 -51 -19 -22 -3 -53 -10 -69 -16 -22 -9 -31 -9
-37 0 -4 7 -20 10 -38 7 -20 -3 -32 0 -36 10 -4 11 -17 13 -57 9 -53 -7 -91
-27 -50 -27 12 0 31 -6 42 -12 17 -11 22 -10 29 1 7 10 16 11 42 3 19 -6 81
-10 138 -8 101 3 103 2 80 -15 -13 -10 -21 -20 -17 -24 7 -7 91 16 134 37 16
8 37 13 48 10 10 -2 30 2 43 9 20 11 26 11 33 -1 8 -12 10 -12 10 -1 0 7 13
29 30 47 40 47 49 87 51 249 3 229 -10 448 -38 595 -14 74 -29 193 -34 264
-12 150 -32 210 -88 257 -27 23 -30 29 -14 25 12 -4 38 0 58 8 44 19 46 18 85
-39 21 -31 30 -56 31 -87 0 -24 3 -37 6 -30 9 23 22 12 28 -25 4 -21 10 -47
15 -58 16 -37 31 -142 36 -251 3 -60 9 -110 14 -112 6 -2 10 -18 9 -35 0 -27
-2 -29 -9 -12 -6 15 -9 6 -9 -32 -1 -44 -4 -53 -19 -53 -14 0 -18 -7 -18 -34
1 -37 22 -39 29 -3 2 12 4 -8 4 -44 0 -37 -3 -73 -8 -80 -6 -10 -9 -6 -9 14 0
16 -4 26 -10 22 -16 -10 -12 -72 6 -89 12 -13 16 -38 16 -114 0 -61 3 -90 8
-77 5 11 9 34 10 50 1 17 5 39 10 50 6 14 9 1 9 -43 1 -35 -3 -61 -8 -58 -10
7 -21 -16 -22 -47 -1 -20 -2 -20 -9 3 -7 22 -8 21 -9 -12 -1 -20 3 -48 9 -62
9 -26 -3 -38 -13 -13 -5 12 -7 -3 -12 -86 -3 -50 -12 -56 -24 -16 l-9 34 -2
-40 c-4 -59 -6 -81 -13 -99 -4 -9 -2 -16 3 -16 5 0 12 9 15 20 3 11 11 20 17
20 5 0 7 -7 4 -16 -3 -9 -6 -24 -6 -35 0 -11 -10 -23 -24 -28 -13 -5 -26 -17
-29 -26 -9 -21 -60 -41 -127 -49 -177 -21 -290 -43 -290 -57 0 -5 12 -6 28 -4
15 3 77 12 137 19 61 8 118 18 128 21 9 4 17 3 17 -3 0 -5 -20 -13 -43 -16
-108 -16 -121 -21 -98 -35 16 -11 -8 -21 -50 -21 -16 0 -29 -4 -29 -10 0 -13
60 -13 80 -1 20 13 34 2 19 -15 -14 -17 -234 -20 -244 -4 -4 6 -15 8 -25 5
-10 -3 -21 -1 -25 4 -4 7 -14 7 -31 1 -34 -13 -134 -13 -114 0 11 7 6 10 -22
10 -29 0 -36 -3 -32 -15 4 -8 15 -15 27 -15 23 0 15 -13 -11 -17 -9 -1 -68 -3
-131 -4 -79 -1 -116 2 -121 11 -5 9 -9 8 -13 -3 -4 -11 -14 -13 -39 -8 -18 4
-60 3 -93 -1 -66 -9 -170 -4 -224 12 -28 8 -36 6 -46 -7 -10 -13 -15 -14 -36
-3 -23 13 -23 13 -4 21 17 6 17 8 3 8 -10 1 -18 6 -18 11 0 6 -7 10 -15 10 -8
0 -15 9 -15 19 0 12 -10 23 -27 29 -27 9 -26 9 15 13 30 3 42 1 42 -9 0 -18
46 -62 65 -62 22 0 18 21 -5 27 -29 8 -24 23 10 30 17 3 30 8 30 12 0 3 14 6
30 7 17 1 30 -4 30 -9 0 -7 4 -7 12 1 21 21 -7 36 -64 33 -89 -4 -128 0 -128
11 0 4 21 8 48 7 79 -2 122 3 128 12 3 6 -23 9 -63 8 -90 -1 -177 7 -196 17
-34 20 -87 98 -103 152 -19 67 -33 271 -23 345 4 29 3 56 -2 62 -6 5 -9 3 -9
-5 -1 -11 -3 -10 -11 3 -6 10 -7 31 -3 50 4 18 6 43 5 56 -2 15 1 21 8 17 10
-6 16 95 14 219 0 17 4 33 9 36 5 3 11 46 13 95 3 49 12 116 20 149 9 33 22
95 29 138 7 43 18 82 26 87 9 5 26 -1 49 -18 20 -14 37 -27 39 -28 2 -1 -8
-19 -22 -41 -45 -69 -58 -181 -52 -441 3 -125 10 -243 15 -262 6 -23 7 43 4
185 -8 381 24 527 123 565 16 7 54 14 84 17 61 5 71 10 50 23 -11 7 -8 10 13
10 16 0 30 7 34 16 4 12 8 13 14 3 6 -11 20 -11 71 -1 35 7 85 14 113 17 27 3
56 12 64 20 13 13 7 14 -55 11 -38 -2 -76 -6 -84 -8 -10 -2 -14 3 -12 15 2 9
-1 17 -5 18 -4 0 -16 2 -27 4 -10 2 -24 1 -32 -2 -25 -9 -15 -23 18 -23 45 0
23 -16 -31 -23 -40 -5 -43 -4 -39 17 4 21 1 22 -46 23 -27 0 -52 5 -53 10 -5
13 -129 6 -156 -9 -12 -7 -24 -13 -27 -13 -9 -1 -60 -56 -60 -64 0 -5 -7 -14
-15 -21 -33 -27 -91 -321 -100 -510 -3 -63 -11 -141 -16 -173 -12 -72 -11
-189 6 -382 16 -180 39 -259 92 -316 l24 -26 -31 -13 c-17 -7 -41 -25 -54 -41
-19 -22 -26 -26 -35 -15 -7 9 -7 16 1 24 12 12 -10 164 -23 156 -7 -4 -3 -50
7 -65 2 -4 -1 -20 -8 -35 l-13 -28 -5 39 c-3 27 -10 40 -20 40 -17 0 -40 56
-40 96 0 15 -7 40 -15 55 -17 32 -20 64 -6 64 11 0 6 88 -13 230 -7 48 -2 41
28 -35 l15 -40 0 38 c1 21 -6 52 -15 70 -12 22 -13 32 -5 35 6 2 9 8 6 12 -3
5 -12 7 -20 3 -12 -4 -15 7 -15 58 0 66 7 76 14 18 2 -19 4 -38 5 -42 0 -5 6
-5 12 -2 6 4 8 34 6 78 -2 39 -1 84 4 101 5 16 6 33 3 38 -10 16 -34 -42 -35
-86 -1 -38 -2 -37 -11 17 -8 49 -7 61 6 70 18 14 22 81 8 152 -11 57 -9 110 6
128 5 7 15 29 21 50 7 20 18 37 26 37 17 0 26 48 9 54 -7 3 -15 0 -17 -7 -2
-7 -2 -3 0 8 3 11 5 26 5 33 1 6 7 12 13 12 7 0 15 20 19 46 3 25 15 57 26 71
11 14 20 32 20 40 0 8 5 11 10 8 6 -3 10 0 10 9 0 8 -4 16 -9 18 -6 2 -12 15
-15 30 -2 15 -7 32 -10 36 -3 5 5 19 18 31 20 19 38 23 137 27 63 3 150 8 194
10 44 3 95 6 113 6 31 -1 45 19 22 33 -13 8 -13 25 1 25 5 0 7 -4 4 -10 -3 -5
-2 -10 4 -10 5 0 12 4 15 9 3 5 22 12 41 15 47 9 45 25 -2 19 -47 -5 -92 -22
-115 -41 -11 -9 -27 -12 -42 -8 -14 3 -28 2 -31 -4 -3 -5 -24 -10 -47 -10 -31
0 -39 3 -35 14 4 9 -1 17 -11 19 -17 5 33 11 53 7 5 -1 6 2 2 7 -5 4 -54 7
-110 5 -56 -1 -115 2 -132 7 -23 7 -2 10 90 11 66 0 145 3 176 5 42 3 60 1 69
-10 16 -19 40 -19 40 -1 0 20 32 23 213 19 87 -2 346 -6 575 -10z m-1440 -3
l53 0 -25 -33 c-15 -19 -26 -39 -26 -46 0 -6 -6 -14 -14 -17 -15 -6 -22 -50
-31 -214 -5 -75 -10 -99 -26 -116 -23 -25 -24 -35 -3 -27 13 5 15 1 11 -23
-13 -63 -12 -147 1 -151 6 -3 12 3 12 12 0 9 5 13 10 10 6 -4 10 6 9 22 0 25
-1 26 -9 8 -8 -18 -9 -18 -9 -2 -1 10 4 28 11 40 7 12 13 36 15 52 5 57 26
145 35 145 5 0 6 -4 3 -10 -3 -5 -2 -10 2 -10 13 0 30 148 19 167 -5 10 -4 18
4 23 6 4 12 15 14 25 2 13 13 18 50 19 26 1 50 -2 52 -6 3 -4 1 -8 -4 -8 -6 0
-12 -15 -15 -32 -3 -18 -15 -60 -26 -92 -16 -44 -18 -62 -10 -72 6 -8 7 -14 2
-14 -13 0 -40 -167 -53 -330 -14 -172 -20 -419 -10 -425 4 -3 8 -73 9 -157 1
-200 2 -207 61 -438 5 -19 36 -67 69 -106 56 -65 98 -94 174 -118 45 -14 -4
-23 -136 -25 l-144 -2 -29 33 c-29 34 -58 109 -69 182 -4 25 -9 35 -14 27 -5
-8 -11 3 -15 28 -8 53 -26 53 -26 1 0 -22 -4 -40 -10 -40 -15 0 -11 71 5 100
8 14 15 21 15 15 0 -5 5 -2 11 8 6 9 7 26 4 37 -9 28 13 25 26 -2 8 -20 9 -19
4 7 -3 17 -12 35 -19 40 -7 6 -15 18 -19 28 -3 9 -13 17 -22 17 -11 0 -15 11
-15 39 0 22 5 41 11 43 6 2 9 14 7 27 l-3 22 -23 -21 c-13 -12 -21 -28 -18
-36 3 -7 1 -16 -4 -19 -12 -7 -13 -48 -3 -59 4 -4 8 -37 9 -74 4 -227 34 -321
121 -380 l38 -27 -95 -6 c-97 -6 -129 -2 -93 12 11 4 23 19 25 33 3 14 2 23
-3 21 -4 -3 -11 4 -14 16 -5 15 -10 18 -18 10 -19 -19 -28 -12 -27 22 0 39 -6
101 -15 155 -4 25 -2 42 4 47 17 10 14 45 -4 39 -10 -4 -15 0 -15 11 0 9 5 13
10 10 6 -3 10 1 10 9 0 9 -7 16 -15 16 -13 0 -15 24 -16 158 0 86 1 209 2 272
1 63 1 172 0 241 -2 117 -1 127 16 125 25 -2 24 36 -2 49 -15 7 -19 18 -17 43
2 17 8 32 14 32 7 0 8 13 3 38 -11 60 -13 136 -3 149 6 7 7 17 4 22 -4 5 -2
12 4 16 5 3 10 45 10 94 0 67 4 92 15 101 8 7 15 22 15 34 0 31 18 55 28 38 9
-14 32 70 32 117 0 34 9 44 35 37 11 -3 44 -6 73 -6z m2236 -6 c4 -10 1 -14
-6 -12 -19 7 -41 -20 -33 -39 5 -15 7 -15 15 -3 8 12 10 11 11 -5 l0 -20 9 20
c7 17 9 17 9 3 1 -10 4 -18 9 -18 15 0 30 -48 19 -59 -8 -8 -8 -20 1 -43 14
-39 10 -46 -16 -20 -19 19 -19 18 -18 -62 0 -45 -3 -94 -8 -110 -6 -21 -6 -27
3 -22 7 5 11 -2 12 -21 0 -25 1 -26 9 -8 7 16 9 12 9 -19 1 -30 -2 -37 -14
-32 -22 8 -19 -20 6 -42 18 -18 20 -26 13 -88 -5 -38 -8 -122 -9 -186 0 -64
-2 -115 -4 -112 -9 9 -31 -20 -30 -40 0 -20 1 -21 9 -1 6 14 9 -1 9 -47 1 -54
4 -68 16 -68 12 0 15 -15 13 -82 l-2 -83 -3 70 c-2 39 -8 74 -14 80 -12 12
-12 -38 2 -205 8 -102 8 -155 -2 -215 -19 -130 -27 -151 -27 -70 0 39 -3 120
-7 180 -4 61 -7 126 -6 145 1 27 -1 31 -9 20 -7 -11 -9 -2 -4 30 3 27 2 40 -3
33 -6 -8 -9 2 -8 27 0 22 3 40 8 40 4 0 7 -3 8 -7 0 -5 2 -17 4 -28 2 -11 9
-69 14 -129 6 -60 14 -112 17 -115 8 -7 2 72 -21 289 -20 196 -25 220 -40 220
-13 0 -18 41 -30 245 -2 50 -12 144 -20 210 -9 66 -21 167 -27 225 -9 87 -16
112 -39 147 l-27 42 98 0 c80 1 99 -2 104 -15z m129 -11 c-2 -16 0 -46 5 -68
l10 -40 2 35 c1 19 3 49 4 65 1 27 5 30 39 33 l37 3 0 -40 c0 -22 -5 -43 -11
-46 -7 -5 -8 4 -4 27 5 28 3 35 -9 35 -9 0 -16 -3 -16 -6 0 -4 -2 -55 -5 -114
-2 -59 -2 -114 1 -122 11 -29 24 -15 24 26 0 22 4 38 8 35 11 -7 2 -86 -10
-86 -7 0 -8 -17 -4 -46 3 -28 2 -43 -4 -39 -6 3 -10 17 -10 30 0 13 -5 27 -11
31 -9 5 -10 -1 -5 -22 4 -16 10 -46 13 -66 3 -21 9 -35 14 -33 5 3 6 -19 3
-51 -4 -38 -3 -54 4 -50 6 4 11 -2 11 -11 -1 -154 12 -780 20 -978 11 -255 8
-325 -11 -325 -5 0 -7 -8 -4 -17 5 -15 0 -18 -29 -18 -30 0 -35 3 -36 25 -1
17 -3 19 -6 8 -3 -13 -15 -18 -39 -18 -37 0 -41 5 -21 29 35 43 41 93 38 301
-5 326 -14 453 -33 477 -5 7 -7 17 -3 23 10 16 12 110 3 110 -12 0 -10 38 2
45 6 3 10 12 10 18 0 7 -4 6 -10 -3 -7 -10 -10 11 -12 70 -1 47 -3 108 -4 135
-6 130 -4 300 3 302 4 2 7 37 5 78 -2 49 0 75 7 75 6 0 11 15 10 33 l-1 32
-14 -30 -14 -30 5 30 c3 17 -1 63 -8 103 l-14 72 37 0 c34 0 36 -2 33 -27z
m-2599 -5 c-4 -13 -8 -48 -9 -78 -1 -30 -7 -100 -13 -155 -6 -55 -11 -163 -11
-240 2 -582 10 -1013 19 -1081 17 -128 21 -304 8 -304 -7 0 -2 -9 10 -20 20
-19 26 -38 20 -57 -2 -4 -17 -7 -35 -8 -29 0 -32 2 -38 40 -3 22 -8 220 -10
440 -6 557 -14 913 -26 1095 -5 86 -8 209 -7 273 l3 117 48 0 c46 0 48 -1 41
-22z m2493 -10 c-3 -8 -6 -5 -6 6 -1 11 2 17 5 13 3 -3 4 -12 1 -19z m-681
-20 c4 -5 18 -8 30 -8 13 0 26 -5 29 -10 5 -7 -15 -9 -59 -4 -36 4 -66 4 -66
1 0 -11 58 -37 82 -37 l23 0 -24 -13 c-34 -17 -121 -10 -121 10 0 8 4 12 9 9
5 -3 9 5 9 18 0 24 0 24 -78 15 -8 -1 -39 -1 -67 -1 -55 2 -73 18 -25 24 54 6
250 3 258 -4z m-1789 -30 c-3 -8 -6 -5 -6 6 -1 11 2 17 5 13 3 -3 4 -12 1 -19z
m658 4 c-11 -11 -40 -12 -105 -5 l-65 8 70 5 c72 5 110 2 100 -8z m-355 -28
c0 -2 -7 -4 -15 -4 -8 0 -15 4 -15 10 0 5 7 7 15 4 8 -4 15 -8 15 -10z m2360
-58 c-7 -7 -10 1 -9 25 0 32 1 33 10 10 6 -16 6 -28 -1 -35z m-2668 -48 c-3
-13 -7 -16 -12 -8 -4 7 -5 21 -2 32 3 13 7 16 12 8 4 -7 5 -21 2 -32z m233 15
c-8 -31 -13 -39 -20 -31 -9 9 6 58 17 58 6 0 7 -11 3 -27z m151 -30 c-11 -11
-17 4 -9 23 7 18 8 18 11 1 2 -10 1 -21 -2 -24z m21 -55 c-3 -8 -6 -5 -6 6 -1
11 2 17 5 13 3 -3 4 -12 1 -19z m-411 -43 c1 -30 -3 -52 -7 -49 -15 9 -10 104
5 104 1 0 2 -25 2 -55z m244 26 c0 -11 -4 -23 -10 -26 -6 -4 -10 5 -10 19 0
14 5 26 10 26 6 0 10 -9 10 -19z m2267 -83 c-2 -13 -4 -3 -4 22 0 25 2 35 4
23 2 -13 2 -33 0 -45z m-192 -194 c11 -169 11 -184 1 -187 -14 -5 -21 -217 -7
-217 8 0 10 -15 5 -49 -4 -28 -2 -51 4 -54 5 -4 10 -73 11 -159 1 -84 6 -157
11 -162 5 -5 4 -16 -3 -27 -8 -13 -8 -24 2 -43 22 -40 28 -23 19 56 -4 40 -6
83 -3 96 3 13 3 28 -1 34 -4 6 -9 43 -10 82 -2 39 -6 89 -9 111 -4 29 -2 36 5
25 5 -8 10 -39 10 -67 0 -29 4 -53 9 -53 30 0 38 -576 9 -606 -8 -7 -65 22
-101 52 -16 13 -35 24 -43 24 -20 0 -18 9 9 32 16 14 18 21 9 25 -8 3 -10 9
-3 16 18 23 50 229 56 362 1 39 6 78 10 89 5 10 3 21 -2 25 -6 3 -13 70 -16
156 -3 83 -13 218 -22 300 -9 83 -16 157 -17 165 0 8 -6 42 -14 74 -8 38 -10
65 -4 75 7 12 9 6 10 -21 0 -44 19 -90 34 -85 7 3 10 34 9 83 l-3 79 14 -61
c8 -34 17 -110 21 -170z m162 204 c-3 -8 -6 -5 -6 6 -1 11 2 17 5 13 3 -3 4
-12 1 -19z m-2147 -117 c0 -10 -7 -24 -15 -31 -13 -11 -15 -8 -15 17 0 16 3
33 6 36 11 10 24 -3 24 -22z m2177 -18 c-3 -10 -5 -4 -5 12 0 17 2 24 5 18 2
-7 2 -21 0 -30z m-447 -29 c0 -14 -4 -23 -9 -19 -11 6 -10 45 1 45 4 0 8 -12
8 -26z m462 -181 c2 -33 0 -59 -4 -56 -5 2 -7 43 -6 91 1 89 5 76 10 -35z
m-2228 -105 c-5 -55 -14 -62 -14 -11 0 34 6 53 16 53 1 0 0 -19 -2 -42z m2210
-33 c-4 -8 -8 -15 -10 -15 -2 0 -4 7 -4 15 0 8 4 15 10 15 5 0 7 -7 4 -15z
m-250 -165 c0 -14 -2 -45 -2 -70 -1 -24 -5 -40 -9 -35 -5 6 -6 71 -4 145 4
125 5 129 11 60 3 -41 5 -86 4 -100z m159 15 c4 -44 3 -63 -3 -50 -8 19 -14
133 -6 124 2 -2 6 -35 9 -74z m110 -197 c11 17 27 15 27 -4 0 -9 -5 -12 -12
-8 -8 5 -9 0 -6 -14 6 -23 -6 -30 -16 -9 -3 6 -4 -1 -2 -18 12 -84 19 -151 17
-160 -6 -20 -1 -89 7 -94 5 -3 7 -26 6 -51 -1 -25 2 -52 7 -61 5 -10 -1 -34
-16 -68 -14 -28 -29 -70 -35 -91 -6 -22 -15 -40 -21 -40 -6 0 -8 -9 -4 -19 7
-22 -3 -30 -43 -37 -15 -2 -42 -7 -60 -10 l-34 -5 26 28 c14 15 26 31 26 36 0
4 4 6 10 2 11 -6 40 85 40 126 0 15 4 30 9 33 5 4 12 29 16 56 4 28 11 47 16
44 10 -6 13 13 14 101 2 195 8 316 14 285 4 -23 9 -31 14 -22z m-2066 -20 c-3
-8 -6 -5 -6 6 -1 11 2 17 5 13 3 -3 4 -12 1 -19z m1793 -168 c-7 -53 -8 -53
-9 -13 -1 38 7 78 14 71 2 -2 0 -28 -5 -58z m-136 -47 c-4 -16 -13 -41 -21
-58 -7 -16 -11 -22 -8 -12 3 10 8 36 11 58 4 21 11 39 15 39 5 0 6 -12 3 -27z
m121 -91 l-8 -57 -9 39 c-5 24 -4 43 2 51 5 6 7 15 4 18 -3 3 -2 11 2 18 13
22 17 -7 9 -69z m-495 4 c0 -2 -7 -6 -15 -10 -8 -3 -15 -1 -15 4 0 6 7 10 15
10 8 0 15 -2 15 -4z m-1600 -26 c0 -5 -4 -10 -10 -10 -5 0 -10 5 -10 10 0 6 5
10 10 10 6 0 10 -4 10 -10z m513 -222 c9 0 15 -3 12 -9 -9 -14 -57 -10 -85 7
-24 14 -24 14 15 7 22 -3 48 -6 58 -5z m1414 -34 c-3 -3 -12 -4 -19 -1 -8 3
-5 6 6 6 11 1 17 -2 13 -5z m6 -18 c64 10 35 -9 -36 -23 -34 -7 -63 -17 -65
-23 -2 -5 -11 -10 -20 -10 -15 1 -15 2 1 14 9 7 17 18 17 25 0 6 11 11 25 11
14 0 25 6 26 13 0 9 2 9 6 0 3 -9 17 -11 46 -7z m-1423 -26 c0 -5 -4 -10 -10
-10 -5 0 -10 5 -10 10 0 6 5 10 10 10 6 0 10 -4 10 -10z m1465 -20 c-46 -12
-107 -12 -100 0 3 6 34 9 68 9 50 -1 56 -3 32 -9z m-502 -37 c-7 -2 -21 -2
-30 0 -10 3 -4 5 12 5 17 0 24 -2 18 -5z"/>
<path d="M925 2051 c-8 -14 10 -22 30 -15 13 5 14 8 3 15 -17 11 -26 11 -33 0z"/>
<path d="M2380 1980 c0 -14 5 -32 10 -40 8 -12 10 -10 10 10 0 14 -5 32 -10
40 -8 12 -10 10 -10 -10z"/>
<path d="M980 1960 c0 -5 6 -10 14 -10 8 0 18 5 21 10 3 6 -3 10 -14 10 -12 0
-21 -4 -21 -10z"/>
<path d="M1475 1960 c3 -5 8 -10 11 -10 2 0 4 5 4 10 0 6 -5 10 -11 10 -5 0
-7 -4 -4 -10z"/>
<path d="M2328 1954 c-3 -5 1 -22 8 -39 10 -22 13 -25 13 -10 -1 28 -14 61
-21 49z"/>
<path d="M1680 1939 c0 -5 5 -7 10 -4 6 3 10 8 10 11 0 2 -4 4 -10 4 -5 0 -10
-5 -10 -11z"/>
<path d="M1375 1909 c-11 -17 1 -21 15 -4 8 9 8 15 2 15 -6 0 -14 -5 -17 -11z"/>
<path d="M1725 1910 c-18 -8 -17 -9 8 -9 16 -1 26 3 22 9 -3 6 -7 10 -8 9 -1
0 -11 -4 -22 -9z"/>
<path d="M1300 1890 c0 -5 11 -9 25 -8 14 1 25 6 25 10 0 4 -11 8 -25 8 -14 0
-25 -4 -25 -10z"/>
<path d="M1412 1888 c-20 -20 -14 -23 33 -20 38 3 44 6 34 18 -14 17 -51 18
-67 2z"/>
<path d="M1520 1865 c0 -8 6 -15 14 -15 8 0 16 7 20 15 4 10 -1 15 -14 15 -11
0 -20 -7 -20 -15z"/>
<path d="M730 1840 c0 -5 5 -10 11 -10 5 0 7 5 4 10 -3 6 -8 10 -11 10 -2 0
-4 -4 -4 -10z"/>
<path d="M1843 1843 c-15 -6 -17 -33 -3 -33 6 0 10 6 10 14 0 8 8 17 18 19 11
3 12 5 2 5 -8 0 -21 -2 -27 -5z"/>
<path d="M1470 1829 c0 -5 5 -7 10 -4 6 3 10 8 10 11 0 2 -4 4 -10 4 -5 0 -10
-5 -10 -11z"/>
<path d="M2120 1818 c0 -19 2 -20 10 -8 13 19 13 30 0 30 -5 0 -10 -10 -10
-22z"/>
<path d="M1540 1819 c0 -5 5 -7 10 -4 6 3 10 8 10 11 0 2 -4 4 -10 4 -5 0 -10
-5 -10 -11z"/>
<path d="M1420 1805 c0 -9 10 -15 26 -15 14 0 23 4 19 10 -4 6 -11 8 -16 5 -5
-4 -9 -1 -9 4 0 6 -4 11 -10 11 -5 0 -10 -7 -10 -15z"/>
<path d="M1705 1810 c-3 -5 3 -10 15 -10 12 0 18 5 15 10 -3 6 -10 10 -15 10
-5 0 -12 -4 -15 -10z"/>
<path d="M615 1801 c-6 -11 9 -23 19 -14 9 9 7 23 -3 23 -6 0 -12 -4 -16 -9z"/>
<path d="M696 1783 c-6 -14 -5 -15 5 -6 7 7 10 15 7 18 -3 3 -9 -2 -12 -12z"/>
<path d="M1833 1793 c-5 -1 -25 -4 -45 -8 -51 -8 -48 -25 5 -26 23 -1 34 -3
25 -6 -10 -2 -18 -11 -18 -18 0 -9 -6 -12 -15 -9 -8 4 -15 1 -15 -5 0 -14 6
-14 47 1 23 9 36 9 44 1 7 -7 6 -12 -6 -17 -9 -3 -13 -2 -10 4 3 6 1 10 -4 10
-6 0 -11 -4 -11 -10 0 -5 -9 -10 -20 -10 -11 0 -20 -5 -20 -11 0 -7 14 -9 38
-7 23 3 57 -3 88 -15 l52 -19 -2 -49 c-1 -28 1 -52 6 -55 4 -3 8 11 8 30 0 20
4 36 9 36 13 0 20 -59 26 -245 3 -88 8 -216 11 -285 10 -231 6 -332 -15 -360
-23 -32 -55 -33 -59 -2 -3 22 -18 30 -24 12 -1 -5 -13 -7 -26 -3 l-23 6 26 27
c28 29 48 85 40 111 -3 10 -1 20 5 24 11 7 7 34 -12 72 -8 16 -6 39 7 93 15
60 15 74 4 80 -9 6 -13 30 -13 74 0 48 -3 66 -13 66 -9 0 -11 -10 -8 -32 6
-41 8 -161 5 -292 -3 -106 -28 -193 -54 -183 -7 3 -19 -3 -27 -14 -17 -24 -39
-25 -40 -1 0 14 -2 13 -9 -4 -6 -14 -24 -24 -62 -32 -84 -19 -155 -25 -163
-13 -3 6 -14 11 -23 11 -14 0 -15 -2 -2 -10 8 -5 11 -12 8 -16 -12 -12 -228
-15 -228 -3 0 5 -4 7 -10 4 -5 -3 -10 -1 -10 4 0 6 5 11 10 11 6 0 10 5 10 10
0 6 -19 10 -42 9 -79 -2 -128 19 -128 56 -1 18 -2 18 -13 4 -11 -14 -16 -15
-30 -4 -25 18 -36 65 -44 173 -9 139 -23 121 -20 -28 1 -71 5 -130 8 -130 4 0
9 -10 12 -22 5 -17 -2 -30 -28 -54 -29 -26 -35 -28 -35 -14 0 10 -4 20 -9 22
-5 2 -11 30 -15 62 -3 33 -10 64 -16 70 -5 5 -10 21 -9 36 l1 25 8 -25 c5 -14
7 61 4 175 -3 125 -9 202 -15 206 -8 5 -8 9 0 13 6 4 11 19 10 34 l-1 27 -8
-25 c-6 -19 -9 -12 -11 35 -1 33 -4 71 -5 85 -1 14 -2 35 -3 48 0 13 -5 21
-10 17 -6 -3 -7 -40 -4 -85 5 -77 5 -80 -17 -80 -21 0 -21 3 -18 75 2 58 0 75
-11 75 -10 0 -12 -15 -9 -64 3 -36 1 -71 -3 -78 -7 -10 -9 -10 -10 2 -3 49 4
146 11 155 4 5 11 26 15 45 11 58 16 71 26 65 5 -4 9 -14 9 -25 0 -19 19 -30
51 -30 23 0 24 -6 4 -26 -11 -11 -15 -37 -15 -87 0 -50 3 -67 10 -57 5 8 10
40 10 71 0 70 14 90 65 93 22 1 53 10 68 21 19 12 47 18 83 18 38 0 54 4 54
14 0 7 -9 13 -20 13 -11 0 -20 7 -20 15 0 14 -11 19 -37 16 -7 -1 -13 2 -13 6
0 5 -26 10 -57 11 -32 1 -62 7 -67 12 -18 18 -64 11 -103 -16 -43 -29 -57 -52
-68 -109 -4 -22 -11 -45 -17 -52 -6 -8 -7 -67 -4 -160 8 -185 8 -575 0 -627
-5 -30 -3 -37 7 -34 8 3 13 16 11 29 -2 19 0 21 10 11 7 -7 13 -25 14 -40 2
-117 3 -120 25 -115 14 4 18 10 13 22 -4 9 -10 36 -14 61 -12 67 -26 105 -39
103 -6 -2 -11 4 -11 13 0 8 4 12 10 9 6 -4 9 14 9 44 -1 28 -6 48 -10 45 -9
-5 -3 265 6 274 3 3 5 -17 5 -44 0 -27 3 -67 7 -88 4 -28 3 -37 -5 -32 -8 5
-12 -2 -12 -18 0 -14 5 -26 10 -26 6 0 10 -36 11 -87 0 -49 5 -97 10 -108 6
-13 7 25 4 110 -15 382 -15 451 -6 465 25 36 31 -14 37 -298 4 -161 11 -292
16 -292 5 0 15 -15 23 -34 17 -41 52 -55 126 -50 30 2 126 6 214 9 88 3 187 9
220 14 107 15 124 14 118 -9 -5 -20 -18 -25 -58 -22 -19 2 -51 -44 -37 -52 11
-5 159 13 239 29 40 8 84 15 98 15 14 0 39 7 56 15 16 9 34 13 39 10 10 -6 54
39 77 79 15 26 17 132 2 141 -6 4 -7 20 -3 38 10 50 10 52 -3 50 -7 -2 -13 4
-13 12 0 8 4 15 10 15 5 0 10 21 9 48 0 26 0 56 0 67 2 106 -11 396 -21 459
-13 77 -13 78 -56 102 -23 13 -57 25 -75 25 -27 1 -24 3 19 13 28 6 58 16 65
22 34 27 47 23 63 -20 9 -23 16 -54 16 -68 0 -14 5 -28 12 -30 7 -3 13 -33 14
-81 2 -43 7 -85 12 -93 5 -9 8 16 6 63 -2 110 -52 263 -93 288 -13 8 -161 15
-188 8z m-818 -123 c3 -5 1 -10 -4 -10 -6 0 -11 5 -11 10 0 6 2 10 4 10 3 0 8
-4 11 -10z m272 -973 c-4 -15 -57 -22 -57 -8 0 10 13 16 42 18 11 1 18 -3 15
-10z m458 -34 c-2 -8 3 -12 13 -10 9 1 19 -2 22 -8 5 -10 -159 -50 -168 -40
-7 7 38 47 66 60 32 14 73 13 67 -2z"/>
<path d="M1295 1771 c-3 -5 -1 -12 5 -16 5 -3 10 1 10 9 0 18 -6 21 -15 7z"/>
<path d="M2278 1774 c-5 -4 -8 -16 -8 -28 0 -14 3 -17 11 -9 6 6 9 19 7 28 -1
9 -6 13 -10 9z"/>
<path d="M1585 1750 c-4 -6 7 -10 24 -10 17 0 31 5 31 10 0 6 -11 10 -24 10
-14 0 -28 -4 -31 -10z"/>
<path d="M1653 1748 c2 -7 19 -13 37 -13 18 0 35 6 38 13 2 8 -9 12 -38 12
-29 0 -40 -4 -37 -12z"/>
<path d="M1509 1739 c-20 -12 3 -32 32 -27 32 4 37 33 5 34 -13 1 -30 -2 -37
-7z"/>
<path d="M1720 1690 c0 -5 7 -10 15 -10 8 0 15 5 15 10 0 6 -7 10 -15 10 -8 0
-15 -4 -15 -10z"/>
<path d="M1645 1680 c4 -6 11 -8 16 -5 14 9 11 15 -7 15 -8 0 -12 -5 -9 -10z"/>
<path d="M2100 1680 c0 -5 5 -10 10 -10 6 0 10 5 10 10 0 6 -4 10 -10 10 -5 0
-10 -4 -10 -10z"/>
<path d="M2160 1661 c0 -12 5 -21 10 -21 6 0 10 6 10 14 0 8 -4 18 -10 21 -5
3 -10 -3 -10 -14z"/>
<path d="M1500 1640 c-11 -7 1 -9 40 -9 42 1 49 3 30 9 -35 11 -53 11 -70 0z"/>
<path d="M2161 1618 c1 -7 5 -24 9 -38 7 -22 8 -21 9 13 1 20 -3 37 -9 37 -5
0 -10 -6 -9 -12z"/>
<path d="M1378 1613 c7 -3 16 -2 19 1 4 3 -2 6 -13 5 -11 0 -14 -3 -6 -6z"/>
<path d="M1603 1603 c-22 -8 -14 -23 11 -23 13 0 29 -7 36 -15 11 -13 0 -15
-89 -15 -61 0 -101 -4 -101 -10 0 -17 286 -13 353 5 32 8 67 15 77 15 25 0 26
27 3 34 -34 10 -183 16 -183 7 0 -5 6 -12 13 -14 6 -3 -4 -6 -23 -6 -23 0 -30
2 -22 8 20 13 -48 26 -75 14z"/>
<path d="M1430 1592 c0 -13 62 -22 75 -11 5 6 1 9 -10 9 -11 0 -30 3 -42 6
-13 4 -23 2 -23 -4z"/>
<path d="M1930 1550 c7 -14 7 -20 0 -20 -6 0 -10 -41 -9 -112 1 -81 3 -103 9
-79 4 19 6 45 4 59 -3 14 0 46 7 72 12 48 6 100 -12 100 -6 0 -6 -7 1 -20z"/>
<path d="M1345 1550 c-54 -7 -54 -11 -2 -15 43 -4 87 4 87 16 0 10 -8 10 -85
-1z"/>
<path d="M2272 1530 c0 -19 2 -27 5 -17 2 9 2 25 0 35 -3 9 -5 1 -5 -18z"/>
<path d="M1130 1530 c0 -5 7 -10 15 -10 8 0 15 5 15 10 0 6 -7 10 -15 10 -8 0
-15 -4 -15 -10z"/>
<path d="M1202 1531 c-11 -7 -11 -9 1 -14 9 -3 21 1 27 9 10 11 10 14 -1 14
-8 0 -20 -4 -27 -9z"/>
<path d="M1765 1520 c-3 -5 3 -10 14 -10 12 0 21 5 21 10 0 6 -6 10 -14 10 -8
0 -18 -4 -21 -10z"/>
<path d="M1656 1513 c-1 -1 -60 -5 -131 -8 -202 -8 -317 -15 -355 -22 -19 -3
-41 -5 -47 -4 -7 1 -13 -6 -13 -15 0 -10 -5 -14 -15 -10 -8 3 -15 0 -16 -7 0
-7 -4 -3 -9 8 -11 25 -11 25 -14 -115 -2 -63 -5 -135 -6 -160 l-3 -45 -7 35
c-6 30 -8 26 -9 -28 -1 -40 3 -61 9 -57 6 3 10 0 11 -7 0 -7 7 21 15 62 10 52
13 108 9 183 -4 72 -3 107 4 107 6 0 11 -10 11 -22 0 -13 4 -29 9 -37 7 -11
10 -9 15 7 5 14 13 18 28 14 19 -5 20 -9 14 -83 -3 -43 -9 -86 -13 -96 -5 -14
-3 -15 7 -6 7 6 15 42 18 80 6 65 7 66 14 28 6 -36 6 -34 4 13 -3 44 0 52 13
50 9 -2 17 -15 19 -33 2 -16 9 -33 15 -37 9 -6 8 -11 -3 -18 -11 -7 -13 -15
-5 -37 6 -16 7 -59 4 -98 -4 -38 -5 -72 -3 -74 12 -13 20 22 25 112 3 56 6 94
7 85 1 -10 8 -18 16 -18 18 0 26 -69 23 -187 -3 -102 3 -110 70 -94 41 10 54
9 78 -3 17 -9 36 -16 43 -16 7 0 10 -4 7 -10 -4 -6 -55 -10 -119 -10 l-113 0
-12 39 c-6 21 -8 46 -5 54 8 22 -6 43 -17 26 -8 -13 -6 -45 6 -105 4 -17 -1
-23 -19 -28 -14 -3 -31 -13 -40 -21 -13 -13 -15 -11 -21 15 -4 17 -4 47 -1 68
4 20 2 51 -2 67 -9 29 -9 28 -16 -23 -10 -66 1 -151 22 -175 15 -17 28 -18
144 -12 161 9 145 8 203 6 45 -1 48 -3 31 -16 -17 -13 -17 -14 10 -21 16 -4
34 -11 41 -16 17 -14 173 -15 173 -2 0 10 21 24 35 24 2 0 6 -10 8 -22 2 -13
5 -3 5 22 1 25 -3 52 -8 60 -8 12 -10 9 -10 -12 0 -36 -20 -40 -48 -11 -16 18
-20 29 -13 41 13 24 30 124 36 202 2 36 2 56 -1 45 -3 -11 -14 -55 -24 -99
-11 -43 -26 -92 -35 -109 -8 -16 -15 -35 -15 -41 0 -25 -56 -35 -185 -32 -71
1 -130 7 -129 12 0 5 9 11 20 12 10 2 28 12 39 23 18 16 34 18 110 16 50 -2
96 -1 103 1 26 9 43 61 39 120 -3 31 -2 73 1 92 l6 35 13 -50 13 -50 -6 55
c-14 142 -15 198 -5 204 7 5 11 -4 11 -24 0 -18 4 -29 10 -25 6 3 10 21 10 38
1 29 2 30 14 14 11 -14 12 -27 4 -54 -5 -19 -7 -37 -4 -41 3 -3 6 3 6 14 0 16
2 17 10 4 7 -11 10 -6 10 22 0 20 5 40 10 43 15 9 12 25 -5 25 -8 0 -15 5 -15
10 0 6 -7 10 -15 10 -9 0 -26 10 -38 23 -17 18 -34 23 -77 24 -36 1 -58 7 -66
17 -6 9 -22 16 -35 16 -32 0 -99 -19 -99 -28 0 -4 -44 -8 -98 -9 -70 -2 -92 0
-79 8 21 12 22 29 2 29 -8 0 -15 5 -15 10 0 6 15 10 33 11 17 0 51 2 75 4 31
2 42 0 42 -11 0 -8 7 -14 15 -14 8 0 12 6 9 14 -9 23 285 36 329 14 12 -6 17
-5 17 6 0 7 -8 17 -17 21 -16 7 -92 13 -97 8z m-426 -43 c0 -5 -5 -10 -11 -10
-5 0 -7 5 -4 10 3 6 8 10 11 10 2 0 4 -4 4 -10z m304 -55 c-10 -8 -27 -15 -37
-15 -9 0 -23 -11 -29 -25 -9 -20 -19 -25 -52 -26 -23 -1 -74 -3 -114 -5 -71
-4 -73 -3 -70 18 2 18 10 23 33 24 17 0 44 4 60 8 22 6 26 5 15 -3 -12 -9 -11
-11 8 -11 12 0 21 5 20 12 -2 8 9 11 33 9 23 -1 42 3 50 13 9 9 32 15 58 16
42 0 43 -1 25 -15z m61 -65 c4 -6 -13 -10 -44 -10 -27 0 -53 5 -56 10 -4 6 13
10 44 10 27 0 53 -4 56 -10z m64 -34 c6 -4 11 -15 11 -25 0 -9 6 -23 13 -30
10 -11 10 -14 0 -18 -9 -3 -13 -38 -14 -121 0 -64 -4 -126 -9 -137 l-9 -20 -1
20 c-1 11 -1 84 0 163 l2 142 -34 1 c-18 0 -64 0 -103 0 -38 -1 -77 4 -85 10
-12 8 -8 10 18 6 23 -2 31 0 28 8 -3 9 19 12 83 10 49 -1 93 -5 100 -9z m-28
-57 c9 -12 6 -100 -6 -193 -7 -55 -23 -61 -170 -64 l-134 -3 -3 131 c-2 71 -1
130 2 131 3 0 25 3 50 5 25 3 46 6 47 7 1 1 47 2 103 1 76 -1 104 -4 111 -15z
m-236 -339 c-3 -5 -18 -10 -33 -10 -21 0 -24 2 -12 10 20 13 53 13 45 0z m35
0 c0 -5 -4 -10 -10 -10 -5 0 -10 5 -10 10 0 6 5 10 10 10 6 0 10 -4 10 -10z"/>
<path d="M1428 1233 c-16 -2 -28 -8 -28 -13 0 -5 14 -7 30 -3 19 3 30 1 30 -6
0 -11 38 -8 82 5 23 7 40 -36 36 -85 -2 -20 2 -36 9 -38 8 -3 11 15 8 64 -2
44 1 70 8 75 22 14 -78 8 -105 -6 -24 -13 -28 -13 -28 0 0 8 -3 13 -7 13 -5
-1 -20 -4 -35 -6z"/>
<path d="M1370 1196 c0 -31 14 -40 30 -21 9 11 9 18 -3 30 -21 21 -27 19 -27
-9z"/>
<path d="M1360 1081 c0 -14 37 -28 53 -20 9 6 21 8 25 5 4 -2 15 1 24 8 14 10
6 12 -43 12 -32 -1 -59 -3 -59 -5z"/>
<path d="M1872 1500 c0 -14 2 -19 5 -12 2 6 2 18 0 25 -3 6 -5 1 -5 -13z"/>
<path d="M696 1494 c-12 -8 -16 -19 -12 -30 5 -13 9 -14 21 -4 13 11 14 0 10
-81 -3 -87 -7 -387 -6 -521 1 -32 5 -58 11 -58 5 0 9 51 9 122 0 76 4 124 11
126 5 2 10 8 10 13 0 6 -5 7 -11 3 -9 -5 -10 51 -7 208 4 225 0 249 -36 222z"/>
<path d="M1820 1473 c0 -17 5 -33 10 -35 17 -5 21 -48 4 -48 -11 0 -13 -6 -9
-20 8 -25 -5 -160 -15 -160 -5 0 -6 9 -3 20 3 11 0 20 -6 20 -19 0 -12 -39 9
-50 23 -12 27 -50 5 -50 -11 0 -15 -11 -15 -41 0 -28 4 -39 13 -36 6 2 12 14
12 26 0 12 5 25 11 29 7 4 12 36 13 77 1 39 2 114 4 167 2 81 -1 100 -15 115
-17 16 -18 16 -18 -14z"/>
<path d="M1971 1464 c0 -11 3 -14 6 -6 3 7 2 16 -1 19 -3 4 -6 -2 -5 -13z"/>
<path d="M797 1420 c-4 -19 -8 -165 -9 -325 0 -159 -4 -267 -7 -240 l-7 50
-13 -30 c-9 -22 -11 -62 -6 -145 5 -105 9 -121 41 -187 32 -66 39 -74 89 -99
55 -26 56 -26 153 -14 53 6 104 14 112 17 8 3 35 7 60 8 67 4 216 26 230 35
20 12 1 32 -23 24 -20 -6 -20 -5 -8 10 13 15 10 16 -30 10 -52 -8 -63 -14 -26
-14 33 0 36 -20 5 -21 -37 -1 -70 -6 -127 -18 -67 -14 -134 -15 -126 -1 3 6
15 10 26 10 10 0 19 7 19 15 0 8 5 15 10 15 6 0 10 4 10 9 0 4 -23 6 -50 4
-39 -3 -52 0 -57 13 -4 11 -8 12 -13 4 -5 -8 -12 -7 -24 5 -12 12 -16 13 -16
3 0 -9 -14 -13 -45 -12 -25 1 -48 4 -51 7 -7 6 -55 -18 -64 -33 -6 -10 -15 8
-48 109 -8 23 -8 38 -2 46 7 8 9 153 8 396 -2 220 -6 369 -11 349z"/>
<path d="M1782 1430 c0 -14 2 -19 5 -12 2 6 2 18 0 25 -3 6 -5 1 -5 -13z"/>
<path d="M1967 1433 c-3 -5 -1 -17 4 -28 7 -17 8 -17 8 8 1 27 -4 34 -12 20z"/>
<path d="M1042 1400 c0 -19 2 -27 5 -17 2 9 2 25 0 35 -3 9 -5 1 -5 -18z"/>
<path d="M1897 1410 c-3 -11 -1 -23 4 -26 5 -3 9 6 9 20 0 31 -6 34 -13 6z"/>
<path d="M502 1375 c-14 -31 -15 -35 -3 -35 5 0 14 14 20 30 12 36 -1 40 -17
5z"/>
<path d="M2108 1378 c-5 -14 -6 -39 -3 -55 2 -15 7 -67 9 -114 3 -47 10 -98
16 -113 5 -15 8 -31 6 -35 -2 -3 -1 -22 4 -41 l8 -35 1 30 c1 42 -18 256 -25
279 -4 12 -2 16 5 12 6 -4 11 0 11 8 0 9 -4 16 -9 16 -6 0 -11 17 -13 38 -3
35 -3 35 -10 10z"/>
<path d="M1954 1260 c0 -64 1 -74 6 -40 6 42 9 42 24 0 3 -8 4 3 3 25 -1 23
-6 38 -12 35 -5 -3 -13 11 -16 30 -3 20 -5 -2 -5 -50z"/>
<path d="M1126 1304 c-4 -15 -2 -32 3 -37 8 -8 11 0 11 26 0 44 -5 47 -14 11z"/>
<path d="M501 1284 c0 -11 3 -14 6 -6 3 7 2 16 -1 19 -3 4 -6 -2 -5 -13z"/>
<path d="M1030 1261 c0 -25 6 -27 13 -6 4 8 2 17 -3 20 -6 4 -10 -3 -10 -14z"/>
<path d="M1765 1207 c-4 -10 -5 -21 -1 -24 10 -10 18 4 13 24 -4 17 -4 17 -12
0z"/>
<path d="M1192 1180 c0 -19 2 -27 5 -17 2 9 2 25 0 35 -3 9 -5 1 -5 -18z"/>
<path d="M1140 1131 c0 -25 6 -27 13 -6 4 8 2 17 -3 20 -6 4 -10 -3 -10 -14z"/>
<path d="M2227 1143 c-10 -9 -9 -63 1 -63 6 0 12 70 6 70 0 0 -4 -3 -7 -7z"/>
<path d="M1981 1124 c0 -11 3 -14 6 -6 3 7 2 16 -1 19 -3 4 -6 -2 -5 -13z"/>
<path d="M1835 1077 c-4 -10 -5 -21 -1 -24 10 -10 18 4 13 24 -4 17 -4 17 -12
0z"/>
<path d="M1992 990 c0 -14 2 -19 5 -12 2 6 2 18 0 25 -3 6 -5 1 -5 -13z"/>
<path d="M1807 986 c-4 -10 -7 -32 -6 -49 1 -31 1 -31 10 7 10 43 7 72 -4 42z"/>
<path d="M1081 974 c0 -11 3 -14 6 -6 3 7 2 16 -1 19 -3 4 -6 -2 -5 -13z"/>
<path d="M2110 951 c0 -29 14 -49 23 -34 8 12 -4 63 -14 63 -5 0 -9 -13 -9
-29z"/>
<path d="M2155 950 c-3 -5 -1 -18 4 -27 9 -16 10 -14 11 10 0 28 -5 34 -15 17z"/>
<path d="M2373 900 c0 -25 2 -35 4 -22 2 12 2 32 0 45 -2 12 -4 2 -4 -23z"/>
<path d="M1466 901 c-18 -7 -18 -8 -3 -14 21 -8 77 2 77 14 0 11 -47 11 -74 0z"/>
<path d="M1990 880 c0 -5 5 -10 11 -10 5 0 7 5 4 10 -3 6 -8 10 -11 10 -2 0
-4 -4 -4 -10z"/>
<path d="M2127 813 c1 -43 3 -84 3 -90 0 -23 18 -14 22 12 3 14 1 25 -3 25 -5
0 -9 29 -9 65 0 36 -3 65 -8 65 -4 0 -6 -35 -5 -77z"/>
<path d="M2096 813 c-9 -57 -7 -113 4 -113 6 0 10 32 10 75 0 41 -2 75 -4 75
-2 0 -6 -17 -10 -37z"/>
<path d="M1378 813 c12 -2 30 -2 40 0 9 3 -1 5 -23 4 -22 0 -30 -2 -17 -4z"/>
<path d="M2002 790 c0 -19 2 -27 5 -17 2 9 2 25 0 35 -3 9 -5 1 -5 -18z"/>
<path d="M2349 813 c-1 -5 -2 -34 -3 -65 -2 -48 0 -56 11 -46 8 7 10 15 5 20
-5 5 -7 29 -4 54 2 24 2 44 -2 44 -3 0 -6 -3 -7 -7z"/>
<path d="M1485 789 c-10 -15 -2 -19 23 -12 12 3 19 9 16 14 -7 12 -31 11 -39
-2z"/>
<path d="M520 770 c0 -5 5 -10 10 -10 6 0 10 5 10 10 0 6 -4 10 -10 10 -5 0
-10 -4 -10 -10z"/>
<path d="M1590 755 c0 -9 -4 -14 -9 -10 -5 3 -12 1 -16 -5 -8 -13 45 -13 65 0
17 10 14 15 -17 24 -17 6 -23 3 -23 -9z"/>
<path d="M834 669 c-3 -6 -1 -16 5 -22 8 -8 11 -5 11 11 0 24 -5 28 -16 11z"/>
<path d="M937 657 c-4 -10 -7 -26 -7 -35 1 -15 2 -15 11 1 6 10 9 25 7 35 -3
16 -4 15 -11 -1z"/>
<path d="M2338 652 c-2 -9 -1 -28 2 -42 6 -22 7 -21 11 13 5 39 -5 61 -13 29z"/>
<path d="M702 561 c-4 -80 13 -73 23 10 5 43 4 56 -7 56 -9 0 -14 -19 -16 -66z"/>
<path d="M1030 621 c0 -6 5 -13 10 -16 6 -3 10 1 10 9 0 9 -4 16 -10 16 -5 0
-10 -4 -10 -9z"/>
<path d="M661 594 c0 -11 3 -14 6 -6 3 7 2 16 -1 19 -3 4 -6 -2 -5 -13z"/>
<path d="M537 582 c-5 -7 -3 -29 3 -50 14 -42 30 -64 30 -41 0 8 -4 19 -9 25
-5 5 -11 25 -13 44 -2 23 -6 31 -11 22z"/>
<path d="M1505 560 c-3 -5 3 -10 14 -10 12 0 21 5 21 10 0 6 -6 10 -14 10 -8
0 -18 -4 -21 -10z"/>
<path d="M1233 525 c-3 -9 -2 -19 2 -23 4 -4 10 -1 12 6 3 6 14 12 24 12 11 0
17 5 14 10 -10 16 -45 12 -52 -5z"/>
<path d="M762 505 c0 -16 2 -22 5 -12 2 9 2 23 0 30 -3 6 -5 -1 -5 -18z"/>
<path d="M1566 448 c-2 -7 -6 -21 -9 -30 -3 -9 -18 -18 -34 -21 -15 -2 -3 -5
27 -5 39 -1 51 1 40 8 -12 7 -8 10 15 10 22 0 26 -3 15 -10 -28 -18 -3 -20 56
-4 32 9 81 17 107 19 27 2 51 6 54 9 10 10 -88 7 -132 -4 -22 -5 -59 -7 -83
-4 -41 6 -42 7 -26 25 16 18 16 19 -5 19 -12 0 -23 -6 -25 -12z"/>
<path d="M1440 390 c0 -5 9 -10 19 -10 11 0 23 5 26 10 4 6 -5 10 -19 10 -14
0 -26 -4 -26 -10z"/>
<path d="M1348 379 c-20 -5 -21 -7 -5 -14 9 -4 17 -13 17 -21 0 -8 7 -14 16
-14 11 0 14 6 9 20 -5 16 -2 20 19 20 14 0 26 3 26 8 0 9 -50 9 -82 1z"/>
<path d="M1265 359 c-11 -17 0 -20 21 -4 17 13 17 14 2 15 -9 0 -20 -5 -23
-11z"/>
<path d="M1470 347 c0 -19 10 -27 26 -20 11 4 11 7 -1 19 -17 18 -25 18 -25 1z"/>
<path d="M1112 343 c-20 -4 -21 -7 -10 -20 10 -13 10 -17 1 -20 -34 -12 -4
-19 82 -20 52 -1 95 3 95 7 0 8 -102 22 -134 18 -10 -2 -21 3 -24 11 -3 9 0
12 9 9 8 -3 28 1 44 8 l30 13 -35 -1 c-19 0 -45 -3 -58 -5z"/>
<path d="M1305 340 c-3 -5 1 -10 10 -10 9 0 13 5 10 10 -3 6 -8 10 -10 10 -2
0 -7 -4 -10 -10z"/>
<path d="M1291 294 c0 -11 3 -14 6 -6 3 7 2 16 -1 19 -3 4 -6 -2 -5 -13z"/>
<path d="M1105 250 c-3 -5 -1 -10 4 -10 6 0 11 5 11 10 0 6 -2 10 -4 10 -3 0
-8 -4 -11 -10z"/>
<path d="M1310 250 c0 -5 7 -10 15 -10 8 0 15 5 15 10 0 6 -7 10 -15 10 -8 0
-15 -4 -15 -10z"/>
<path d="M1838 249 c-10 -5 -39 -10 -65 -10 -27 0 -63 -5 -82 -11 -28 -9 -31
-12 -17 -20 9 -5 21 -6 28 -2 6 4 40 8 74 9 41 2 68 8 78 18 27 26 17 36 -16
16z"/>
<path d="M1919 220 c-21 -14 -2 -24 23 -13 17 7 19 11 6 15 -8 4 -21 2 -29 -2z"/>
<path d="M960 189 c0 -5 5 -7 10 -4 6 3 10 8 10 11 0 2 -4 4 -10 4 -5 0 -10
-5 -10 -11z"/>
<path d="M285 1921 c3 -18 5 -45 6 -60 0 -26 0 -26 11 -3 8 16 8 29 0 45 -6
12 -13 29 -16 37 -4 8 -4 0 -1 -19z"/>
<path d="M247 1897 c-11 -29 -9 -43 4 -30 6 6 9 19 7 29 -3 18 -4 18 -11 1z"/>
<path d="M278 1615 c5 -28 22 -44 22 -21 0 21 -11 46 -20 46 -4 0 -5 -11 -2
-25z"/>
<path d="M392 1620 c0 -14 2 -19 5 -12 2 6 2 18 0 25 -3 6 -5 1 -5 -13z"/>
<path d="M380 1556 c0 -9 5 -16 10 -16 6 0 10 4 10 9 0 6 -4 13 -10 16 -5 3
-10 -1 -10 -9z"/>
<path d="M310 1430 c0 -5 7 -10 15 -10 8 0 15 5 15 10 0 6 -7 10 -15 10 -8 0
-15 -4 -15 -10z"/>
<path d="M304 1338 c-3 -18 -8 -53 -10 -78 -2 -25 -7 -74 -10 -110 -6 -77 -6
-115 2 -152 8 -37 22 -36 19 2 -1 16 1 46 4 67 6 33 10 38 33 38 15 1 30 4 34
8 4 4 2 7 -5 7 -10 0 -12 13 -6 55 4 35 3 55 -4 55 -5 0 -11 -10 -13 -22 -2
-12 -9 -23 -16 -26 -12 -4 -12 11 4 70 3 9 -1 22 -9 29 -12 11 -12 16 0 27 18
18 17 62 -1 62 -8 0 -18 -14 -22 -32z"/>
<path d="M255 1351 c-3 -5 -1 -12 5 -16 5 -3 10 1 10 9 0 18 -6 21 -15 7z"/>
<path d="M180 1129 c0 -5 5 -7 10 -4 6 3 10 8 10 11 0 2 -4 4 -10 4 -5 0 -10
-5 -10 -11z"/>
<path d="M344 994 c3 -9 6 -23 6 -32 1 -16 1 -16 10 0 11 18 3 48 -12 48 -6 0
-7 -7 -4 -16z"/>
<path d="M266 961 c-4 -5 -2 -12 3 -15 5 -4 12 -2 15 3 4 5 2 12 -3 15 -5 4
-12 2 -15 -3z"/>
<path d="M269 913 c0 -5 -2 -24 -4 -43 -7 -51 5 -131 17 -124 6 4 8 26 4 56
-5 32 -3 55 4 63 13 15 5 55 -11 55 -5 0 -9 -3 -10 -7z"/>
<path d="M323 864 c-3 -8 -1 -25 5 -37 10 -20 11 -18 11 16 1 39 -5 48 -16 21z"/>
<path d="M333 750 c0 -25 2 -35 4 -22 2 12 2 32 0 45 -2 12 -4 2 -4 -23z"/>
<path d="M252 740 c0 -14 2 -19 5 -12 2 6 2 18 0 25 -3 6 -5 1 -5 -13z"/>
<path d="M190 551 c0 -25 6 -27 13 -6 4 8 2 17 -3 20 -6 4 -10 -3 -10 -14z"/>
<path d="M230 410 c0 -8 5 -22 10 -30 9 -13 10 -13 10 0 0 8 -5 22 -10 30 -9
13 -10 13 -10 0z"/>
<path d="M2576 1975 c-3 -9 1 -30 8 -48 l14 -32 1 48 c1 46 -11 62 -23 32z"/>
<path d="M2490 1973 c0 -4 5 -15 10 -23 8 -13 10 -13 10 2 0 9 -4 20 -10 23
-5 3 -10 3 -10 -2z"/>
<path d="M2610 1552 c0 -12 5 -22 10 -22 7 0 7 -6 0 -20 -12 -22 -10 -81 2
-74 4 3 8 22 8 42 0 25 3 32 9 23 6 -9 9 -6 9 13 0 14 -9 33 -19 42 -18 16
-19 16 -19 -4z"/>
<path d="M2610 1408 c0 -7 5 -20 10 -28 8 -12 10 -9 10 13 0 15 -4 27 -10 27
-5 0 -10 -6 -10 -12z"/>
<path d="M2561 1308 c1 -18 4 -44 8 -58 7 -21 8 -17 12 22 5 53 2 68 -12 68
-5 0 -9 -15 -8 -32z"/>
<path d="M2617 1323 c-10 -9 -9 -93 1 -93 4 0 8 23 9 50 2 52 1 55 -10 43z"/>
<path d="M2750 1900 c0 -32 3 -38 16 -33 10 4 14 13 10 27 -3 11 -6 27 -6 34
0 6 -4 12 -10 12 -5 0 -10 -18 -10 -40z"/>
<path d="M2735 1830 c-4 -12 -5 -24 -2 -27 3 -2 8 5 12 17 4 12 5 24 2 27 -3
2 -8 -5 -12 -17z"/>
<path d="M2717 1683 c-3 -16 -1 -32 4 -37 5 -6 9 4 9 27 0 44 -6 48 -13 10z"/>
<path d="M2712 1580 c0 -14 2 -19 5 -12 2 6 2 18 0 25 -3 6 -5 1 -5 -13z"/>
<path d="M2790 1529 c0 -5 5 -7 10 -4 6 3 10 8 10 11 0 2 -4 4 -10 4 -5 0 -10
-5 -10 -11z"/>
<path d="M2791 1483 c0 -25 1 -26 9 -8 12 27 12 35 0 35 -5 0 -10 -12 -9 -27z"/>
<path d="M2822 1465 c0 -16 2 -22 5 -12 2 9 2 23 0 30 -3 6 -5 -1 -5 -18z"/>
<path d="M2817 1356 c-4 -15 -6 -31 -2 -34 10 -10 16 6 13 35 l-3 28 -8 -29z"/>
<path d="M2752 1280 c-2 -31 12 -57 22 -41 4 6 3 11 -3 11 -5 0 -12 12 -14 28
-4 26 -4 26 -5 2z"/>
<path d="M2808 1254 c-3 -16 -2 -56 2 -89 4 -33 8 -49 10 -35 6 66 6 117 0
134 -6 17 -8 15 -12 -10z"/>
<path d="M2780 1011 c0 -61 4 -112 9 -115 4 -3 9 46 9 109 1 69 -2 115 -8 115
-6 0 -10 -45 -10 -109z"/>
<path d="M2822 1080 c0 -14 2 -19 5 -12 2 6 2 18 0 25 -3 6 -5 1 -5 -13z"/>
<path d="M2826 851 c-4 -5 -2 -20 3 -33 9 -21 10 -21 10 10 1 32 -3 39 -13 23z"/>
<path d="M2789 838 c-1 -7 0 -17 1 -23 1 -5 2 -57 2 -115 0 -89 1 -99 9 -65 6
22 9 61 7 87 -2 25 0 44 5 41 4 -2 7 3 7 12 0 10 -5 13 -12 9 -8 -5 -9 2 -5
24 4 17 2 34 -3 37 -6 3 -11 0 -11 -7z"/>
<path d="M2829 764 c-1 -5 0 -19 1 -31 0 -12 -4 -40 -10 -63 -8 -28 -8 -46 -2
-52 7 -7 13 17 17 66 4 42 5 80 1 83 -3 4 -6 2 -7 -3z"/>
<path d="M2790 535 c0 -8 5 -15 10 -15 6 0 10 7 10 15 0 8 -4 15 -10 15 -5 0
-10 -7 -10 -15z"/>
<path d="M2820 478 c0 -7 5 -20 10 -28 8 -12 10 -11 10 7 0 12 -4 25 -10 28
-5 3 -10 0 -10 -7z"/>
<path d="M2785 451 c-3 -10 -2 -36 3 -58 11 -50 4 -103 -14 -103 -8 0 -14 -8
-14 -17 0 -15 2 -16 10 -3 7 11 10 12 10 2 0 -8 6 -12 13 -10 6 3 15 27 19 54
4 27 10 65 13 84 6 33 5 34 -9 16 -14 -17 -15 -16 -9 18 6 38 -11 52 -22 17z"/>
<path d="M2771 384 c0 -11 3 -14 6 -6 3 7 2 16 -1 19 -3 4 -6 -2 -5 -13z"/>
<path d="M2821 334 c0 -11 3 -14 6 -6 3 7 2 16 -1 19 -3 4 -6 -2 -5 -13z"/>
<path d="M2771 314 c0 -11 3 -14 6 -6 3 7 2 16 -1 19 -3 4 -6 -2 -5 -13z"/>
<path d="M2462 1382 c1 -29 6 -52 11 -52 10 0 4 86 -7 97 -3 4 -5 -17 -4 -45z"/>
<path d="M2507 477 c-6 -38 5 -107 15 -92 7 12 4 112 -4 120 -3 3 -8 -9 -11
-28z"/>
<path d="M2453 441 c0 -11 5 -18 9 -15 4 3 5 11 1 19 -7 21 -12 19 -10 -4z"/>
<path d="M2448 365 c-3 -14 -1 -28 3 -31 5 -3 9 9 9 25 0 38 -6 40 -12 6z"/>
<path d="M2670 483 c0 -13 5 -23 10 -23 13 0 13 11 0 30 -8 12 -10 11 -10 -7z"/>
<path d="M2644 429 c-3 -6 -1 -15 6 -19 7 -4 10 -12 6 -18 -3 -6 -2 -13 4 -17
6 -4 10 8 10 29 0 35 -12 47 -26 25z"/>
<path d="M2640 308 c0 -23 3 -29 9 -19 8 12 4 51 -5 51 -2 0 -4 -15 -4 -32z"/>
<path d="M2891 1574 c0 -11 3 -14 6 -6 3 7 2 16 -1 19 -3 4 -6 -2 -5 -13z"/>
<path d="M2906 1387 c3 -10 9 -15 12 -12 3 3 0 11 -7 18 -10 9 -11 8 -5 -6z"/>
<path d="M2650 22 c-25 -2 -49 -7 -54 -13 -6 -5 51 -9 153 -9 121 0 162 3 159
12 -4 11 -152 17 -258 10z"/>
<path d="M2498 3 c7 -3 16 -2 19 1 4 3 -2 6 -13 5 -11 0 -14 -3 -6 -6z"/>
</g>
</svg>
