<?xml version="1.0" standalone="no"?>
<!DOCTYPE svg PUBLIC "-//W3C//DTD SVG 20010904//EN"
 "http://www.w3.org/TR/2001/REC-SVG-20010904/DTD/svg10.dtd">
<svg version="1.0" xmlns="http://www.w3.org/2000/svg"
 width="175.000000pt" height="364.000000pt" viewBox="0 0 175.000000 364.000000"
 preserveAspectRatio="xMidYMid meet">
<metadata>
Created by potrace 1.16, written by Peter Selinger 2001-2019
</metadata>
<g transform="translate(0.000000,364.000000) scale(0.100000,-0.100000)"
fill="#000000" stroke="none">
<path d="M1286 3622 c-3 -6 6 -15 21 -21 l28 -11 -27 4 c-16 2 -28 0 -28 -4 0
-18 -101 -22 -580 -26 -327 -3 -528 0 -570 7 -45 7 -74 7 -93 0 -32 -12 -35
-31 -8 -38 11 -3 18 -10 16 -16 -2 -7 -6 -59 -10 -116 -5 -91 -4 -103 9 -98
13 5 16 -2 16 -36 0 -23 5 -100 10 -172 6 -84 6 -133 0 -139 -15 -15 -12 -26
5 -26 12 0 15 -14 17 -62 1 -35 1 -74 1 -88 -1 -14 3 -104 8 -200 7 -151 14
-415 10 -430 -1 -3 -4 -156 -7 -340 -3 -184 -6 -355 -6 -380 -1 -25 -1 -126
-2 -225 -1 -810 -2 -966 -9 -1007 -8 -40 -6 -49 12 -67 35 -35 51 -27 51 24 0
25 5 45 10 45 6 0 10 17 10 39 0 38 0 39 46 46 68 10 94 24 94 52 0 12 -4 23
-10 23 -5 0 -10 -9 -10 -20 0 -25 -56 -42 -83 -26 -13 8 -20 7 -28 -4 -8 -12
-9 -9 -5 10 3 14 6 94 6 178 l0 153 37 22 c20 12 43 22 51 23 7 2 38 26 68 54
50 47 55 50 70 35 19 -18 60 -16 56 3 -1 8 12 12 38 12 29 0 38 -4 34 -13 -3
-9 10 -20 38 -30 40 -16 44 -16 77 1 45 24 50 40 14 47 -15 4 -37 11 -48 16
-14 7 -48 7 -100 0 -49 -6 -84 -6 -89 -1 -6 6 13 34 50 73 96 103 117 128 112
133 -3 2 -47 -41 -98 -96 -51 -55 -99 -100 -106 -100 -8 0 -14 -6 -14 -13 0
-20 -102 -114 -107 -99 -3 9 -13 6 -34 -9 -37 -26 -45 -20 -25 20 21 39 20 44
-6 36 -21 -7 -21 -6 -15 76 4 46 7 119 7 162 0 62 3 77 15 77 8 0 15 -9 15
-19 0 -29 15 -33 42 -11 16 12 33 17 47 13 15 -4 30 2 46 17 13 12 29 20 36
18 7 -2 -12 -23 -44 -47 -54 -41 -69 -61 -47 -61 5 0 69 58 141 129 134 131
146 139 233 148 38 4 47 2 44 -8 -5 -15 -30 -17 -65 -5 -14 4 -23 3 -23 -3 0
-5 10 -11 22 -13 12 -2 23 -7 25 -13 3 -10 -68 -84 -137 -144 -19 -17 -29 -31
-22 -31 15 0 61 39 132 112 31 32 61 58 68 58 6 0 12 7 12 15 0 8 7 15 15 15
8 0 15 6 15 13 0 7 32 48 71 92 38 44 75 89 80 100 10 20 -54 -43 -122 -121
l-36 -41 -94 -6 c-64 -4 -95 -10 -98 -19 -9 -27 -109 -118 -130 -118 -30 0
-26 26 7 47 27 17 183 175 177 181 -1 2 -37 -31 -79 -73 -76 -75 -106 -91
-106 -56 0 12 11 21 33 28 27 8 32 13 29 37 -2 15 -7 39 -13 53 -8 22 -14 25
-40 19 -29 -6 -31 -4 -25 19 4 16 1 34 -8 46 -15 21 -10 63 6 53 5 -3 13 -16
18 -28 8 -20 9 -19 9 5 1 15 -6 29 -14 33 -8 3 -15 17 -15 31 0 23 2 24 20 15
18 -10 20 -8 20 20 0 41 111 158 129 136 9 -10 8 -16 -5 -26 -14 -12 -13 -15
8 -26 13 -8 31 -13 40 -14 15 0 16 -4 8 -26 -15 -39 -13 -44 28 -62 23 -10 37
-23 34 -30 -3 -10 6 -12 34 -10 34 3 39 0 42 -19 3 -22 6 -22 103 -19 78 3
104 7 119 21 11 10 20 24 20 30 0 16 86 28 110 15 10 -6 21 -10 24 -10 9 0 25
74 20 94 -3 16 4 26 26 41 32 20 70 81 70 111 0 9 -9 18 -20 21 -11 3 -17 9
-14 15 3 5 -1 20 -10 33 -21 32 -20 42 3 50 13 4 21 21 29 63 13 73 15 151 3
166 -5 7 1 39 15 81 13 39 31 99 40 135 17 71 25 80 68 80 l29 0 -47 -50 c-43
-46 -53 -60 -41 -60 3 0 32 25 65 55 33 30 69 55 80 55 11 0 20 4 20 9 0 5 18
7 41 4 29 -4 44 -2 50 8 6 9 9 -1 10 -31 1 -25 0 -49 -2 -55 -5 -19 -8 -101
-9 -300 l-1 -201 -54 -63 c-30 -34 -55 -64 -55 -67 0 -16 24 4 63 51 l45 55 5
-38 c2 -20 5 -102 6 -182 1 -80 4 -162 8 -182 5 -36 3 -39 -130 -175 -75 -75
-135 -139 -133 -141 3 -2 62 53 132 122 70 69 129 124 131 122 2 -2 6 -36 8
-77 2 -41 9 -105 14 -144 19 -126 22 -120 -61 -123 -78 -3 -91 -8 -68 -22 8
-6 11 -10 5 -11 -5 0 -1 -4 10 -8 14 -6 24 -3 32 8 11 14 12 14 13 -1 0 -10 7
-18 15 -18 8 0 15 -5 15 -10 0 -6 6 -10 13 -9 30 4 37 -3 37 -34 0 -17 2 -50
5 -72 4 -22 2 -66 -3 -97 -5 -32 -5 -58 0 -58 4 0 6 -17 3 -37 -3 -21 -7 -109
-9 -195 -3 -141 -6 -159 -25 -187 -12 -17 -26 -30 -32 -28 -5 1 -24 -16 -43
-38 -41 -48 -57 -43 -20 6 33 43 67 109 57 109 -5 0 -29 -34 -55 -75 -26 -41
-52 -75 -58 -75 -13 0 -14 -2 35 69 53 79 42 82 -18 5 l-52 -68 -112 -2 -111
-1 35 49 c20 27 34 51 31 53 -2 3 -26 -20 -52 -50 -33 -38 -55 -55 -72 -55
-18 0 -22 4 -17 18 6 16 5 16 -13 0 -10 -9 -32 -20 -49 -24 -28 -6 -25 -1 37
64 59 61 76 82 66 82 -2 0 -37 -33 -79 -73 l-76 -74 -69 -6 c-38 -4 -112 -7
-164 -7 l-95 0 38 31 c20 17 37 35 37 41 0 5 -22 -9 -49 -31 -38 -32 -57 -41
-87 -41 l-38 0 27 28 c43 45 31 46 -24 2 -54 -42 -68 -47 -86 -29 -9 9 -3 19
25 41 51 39 90 78 115 113 20 28 18 27 -21 -7 -24 -22 -52 -38 -65 -37 -17 1
-15 3 11 11 35 12 41 23 17 32 -20 7 -19 26 1 26 11 0 14 6 9 21 -6 17 3 32
41 70 26 27 44 52 40 56 -4 4 -28 -14 -52 -40 -36 -38 -52 -47 -78 -47 -19 0
-39 -7 -46 -15 -14 -17 -66 -20 -75 -5 -4 6 -1 18 6 26 7 9 12 31 11 50 -2 28
1 34 23 40 l25 6 -22 24 c-13 13 -31 24 -40 24 -22 0 -68 21 -68 31 0 4 4 11
10 14 5 3 10 17 10 31 0 13 9 29 20 36 24 15 26 28 5 28 -8 0 -19 -10 -26 -21
-6 -13 -14 -17 -18 -11 -3 5 -24 12 -46 13 -32 3 -40 0 -43 -15 -3 -13 0 -16
9 -11 7 5 10 4 5 -3 -11 -18 -34 -3 -29 19 5 18 3 19 -21 8 -38 -18 -32 -38
14 -45 35 -6 40 -10 40 -34 0 -35 16 -48 61 -48 20 0 46 -5 58 -11 12 -7 27
-9 34 -5 6 4 4 -2 -7 -14 -13 -15 -17 -30 -13 -50 4 -18 0 -37 -9 -51 -9 -12
-14 -28 -11 -35 8 -22 66 -28 100 -11 45 23 67 18 30 -6 -18 -12 -33 -26 -33
-31 0 -6 12 -3 26 7 32 21 37 17 19 -15 -8 -14 -17 -32 -21 -40 -4 -8 -15 -21
-25 -27 -9 -7 -20 -28 -23 -47 -7 -39 -25 -49 -91 -51 -22 -1 -72 -6 -112 -10
-190 -21 -69 -58 132 -40 28 2 42 2 33 -1 -10 -3 -15 -11 -11 -20 5 -13 -5
-15 -58 -13 -37 2 -64 -2 -66 -8 -3 -7 57 -11 177 -12 103 -1 180 2 180 7 0
10 292 20 670 24 129 1 238 6 241 11 3 4 31 8 62 8 32 1 60 5 63 10 14 23 17
206 10 789 -2 239 -1 441 4 450 8 15 15 222 9 290 -2 25 -4 17 -10 -30 -5 -55
-6 -47 -5 47 0 61 -3 115 -7 119 -11 11 -8 36 3 29 6 -4 10 17 10 54 0 39 4
61 11 61 8 0 10 35 5 123 -11 222 -26 460 -37 592 -6 72 -13 234 -15 360 -3
127 -6 240 -7 252 -2 12 2 71 9 130 17 140 17 139 -2 158 -9 9 -16 27 -16 41
0 25 -1 25 -72 19 -55 -5 -90 -2 -158 14 -48 12 -94 24 -102 27 -8 3 -17 1
-20 -4z m87 -39 c-7 -2 -19 -2 -25 0 -7 3 -2 5 12 5 14 0 19 -2 13 -5z m-1083
-68 c0 -14 13 -15 99 -9 105 7 193 -2 156 -16 -11 -4 -76 -15 -145 -24 -170
-23 -193 -27 -183 -36 9 -8 79 -1 264 28 l115 18 80 -26 79 -27 -65 -8 c-64
-7 -158 -32 -130 -34 8 0 42 4 75 9 33 6 82 15 109 19 55 9 119 -5 94 -20 -7
-5 -35 -9 -63 -10 -27 -1 -63 -5 -80 -9 -27 -7 -25 -8 17 -9 26 0 80 3 120 9
55 7 85 7 123 -4 l50 -13 -75 -12 c-41 -6 -106 -18 -145 -26 -67 -14 -245 -40
-343 -50 -26 -3 -61 -7 -79 -10 -17 -3 -34 -1 -38 5 -4 7 -12 7 -25 0 -10 -6
-21 -6 -24 -2 -9 14 9 31 39 36 17 3 73 13 125 22 52 9 97 19 100 23 3 5 12
11 20 14 29 11 -23 7 -115 -8 -113 -18 -158 -19 -153 -2 4 11 73 28 238 58
118 21 48 22 -82 1 -84 -13 -121 -16 -129 -8 -9 8 -10 8 -5 -1 4 -8 2 -13 -6
-14 -7 0 -23 -2 -35 -5 -13 -2 -23 1 -23 6 0 6 -6 5 -14 -2 -7 -7 -12 -18 -9
-24 2 -5 -3 -24 -12 -40 -8 -16 -15 -36 -15 -44 0 -8 -4 -21 -9 -28 -4 -8 -9
24 -9 75 -1 48 -3 97 -4 107 -3 16 8 21 57 32 33 8 85 16 115 20 98 10 68 17
-57 12 -100 -4 -123 -2 -128 9 -11 29 -4 33 60 33 52 0 65 -3 65 -15z m1356
-28 c1 -15 -2 -29 -7 -32 -5 -4 -9 -18 -10 -33 -1 -19 -4 -14 -10 17 -4 23
-11 51 -14 60 -4 13 0 17 16 16 16 -1 23 -9 25 -28z m-1489 -184 c-3 -10 -5
-2 -5 17 0 19 2 27 5 18 2 -10 2 -26 0 -35z m113 32 c-7 -8 -16 -15 -21 -15
-5 0 -9 7 -9 15 0 9 9 15 21 15 18 0 19 -2 9 -15z m798 -1 c38 -11 25 -21 -35
-28 -97 -11 -125 -15 -203 -30 -292 -56 -549 -82 -519 -52 3 4 161 27 409 62
14 2 84 15 155 28 145 27 160 28 193 20z m-811 -30 c-3 -3 -12 -4 -19 -1 -8 3
-5 6 6 6 11 1 17 -2 13 -5z m973 -17 c22 -9 15 -12 -55 -24 -268 -44 -722 -89
-704 -69 3 3 26 8 50 10 24 2 51 6 59 9 35 12 368 72 500 89 37 5 122 -3 150
-15z m-977 -10 c3 -8 -3 -14 -14 -14 -21 -2 -26 13 -6 20 6 3 13 6 13 6 1 1 4
-5 7 -12z m1078 -31 l33 -14 -45 -5 c-24 -2 -98 -16 -164 -31 -73 -16 -148
-26 -190 -26 -38 1 -98 -3 -132 -8 -48 -6 -63 -5 -63 4 0 8 26 15 72 19 40 4
77 13 83 20 5 7 42 16 80 19 39 4 108 13 155 20 112 18 131 19 171 2z m-1120
-39 c-10 -9 -11 -8 -5 6 3 10 9 15 12 12 3 -3 0 -11 -7 -18z m69 13 c0 -5 -4
-10 -10 -10 -5 0 -10 5 -10 10 0 6 5 10 10 10 6 0 10 -4 10 -10z m1134 -11
c46 -21 16 -29 -112 -28 -139 1 -138 12 3 27 44 5 81 10 82 11 1 0 13 -4 27
-10z m-794 -38 c0 -6 -8 -10 -17 -10 -10 0 -54 -5 -98 -11 -44 -6 -107 -13
-140 -15 -53 -3 -61 -1 -61 14 0 15 10 18 71 17 59 -1 109 2 228 12 9 1 17 -2
17 -7z m95 -6 c0 -16 -32 -17 -38 -2 -4 10 2 14 16 13 12 -1 22 -5 22 -11z
m-492 -15 c-3 -12 -8 -19 -11 -16 -5 6 5 36 12 36 2 0 2 -9 -1 -20z m1257 10
c0 -5 -12 -10 -27 -9 -25 0 -26 1 -8 9 27 12 35 12 35 0z m-74 -9 c-7 -10 -83
-21 -180 -26 -38 -3 -83 -7 -100 -11 -25 -5 -29 -4 -18 7 16 17 15 29 -2 29
-7 0 -16 -9 -19 -20 -5 -20 -33 -37 -44 -26 -3 3 0 12 7 21 7 8 9 15 4 15 -4
0 -18 -12 -29 -26 -19 -24 -30 -27 -89 -30 -48 -2 -66 1 -63 9 2 7 21 15 43
18 40 6 37 13 -3 9 -13 -1 -23 3 -23 9 0 6 19 12 43 12 23 1 56 5 72 9 42 11
407 12 401 1z m-756 -11 c0 -5 -11 -11 -25 -12 -14 -1 -37 -2 -52 -4 -100 -7
-123 -7 -129 -1 -4 4 6 7 22 8 63 2 105 7 111 13 10 10 73 7 73 -4z m890 1 c0
-5 14 -14 30 -21 28 -11 42 -40 21 -40 -5 0 -11 -10 -13 -22 -3 -21 -14 -25
-128 -44 -69 -11 -154 -23 -190 -27 l-65 -5 65 14 c36 8 74 19 85 23 36 15
-25 32 -70 20 -20 -6 -42 -8 -48 -6 -18 7 39 27 76 27 36 1 105 15 114 24 14
14 -7 14 -62 1 -33 -7 -78 -16 -100 -19 -22 -3 -61 -8 -87 -12 -52 -7 -57 -3
-30 26 11 12 36 20 72 24 30 2 84 9 120 15 36 6 86 11 112 11 26 0 50 5 53 10
8 12 45 13 45 1z m-750 -21 c-20 -13 -50 -13 -50 0 0 6 15 10 33 10 24 0 28
-3 17 -10z m-210 -18 c0 -9 -132 -34 -139 -26 -8 8 9 17 46 24 53 11 93 11 93
2z m71 -3 c-14 -5 -28 -6 -33 -1 -4 4 7 9 25 9 30 2 31 2 8 -8z m-460 -40 c-6
-16 -10 -18 -10 -7 -1 22 12 55 16 42 2 -6 -1 -22 -6 -35z m219 30 c0 -9 -62
-21 -69 -14 -3 4 1 10 8 14 15 10 61 9 61 0z m428 -8 c-6 -10 -18 -17 -25 -14
-17 7 2 33 23 33 11 0 12 -4 2 -19z m-198 -31 c0 -5 -5 -10 -11 -10 -5 0 -7 5
-4 10 3 6 8 10 11 10 2 0 4 -4 4 -10z m395 0 c-3 -5 -10 -10 -16 -10 -5 0 -9
5 -9 10 0 6 7 10 16 10 8 0 12 -4 9 -10z m-675 -16 c0 -10 -6 -14 -14 -11 -8
3 -17 1 -20 -6 -2 -7 -5 -2 -5 11 -1 16 5 22 19 22 12 0 20 -7 20 -16z m81 0
c-65 -14 -88 -11 -61 6 8 6 40 9 70 9 l55 -1 -64 -14z m-334 -41 c-3 -10 -5
-2 -5 17 0 19 2 27 5 18 2 -10 2 -26 0 -35z m1103 43 c0 -2 -7 -6 -15 -10 -8
-3 -15 -1 -15 4 0 6 7 10 15 10 8 0 15 -2 15 -4z m-825 -36 c3 -5 -1 -10 -10
-10 -9 0 -13 5 -10 10 3 6 8 10 10 10 2 0 7 -4 10 -10z m155 0 c0 -5 -8 -10
-17 -10 -15 0 -16 2 -3 10 19 12 20 12 20 0z m600 0 c8 -5 11 -10 5 -10 -5 0
-17 5 -25 10 -8 5 -10 10 -5 10 6 0 17 -5 25 -10z m438 -12 c-3 -22 -7 -23
-103 -24 -55 0 -118 -6 -140 -12 -22 -6 -63 -14 -91 -16 -28 -3 -59 -8 -70
-12 -16 -5 -15 -2 5 15 13 12 28 21 35 21 15 0 201 30 251 40 22 4 57 8 78 9
34 1 38 -1 35 -21z m-1418 -23 c0 -8 -4 -15 -10 -15 -5 0 -10 7 -10 15 0 8 5
15 10 15 6 0 10 -7 10 -15z m620 10 c0 -2 -9 -9 -20 -15 -16 -9 -20 -8 -20 5
0 8 9 15 20 15 11 0 20 -2 20 -5z m-295 -25 c-16 -4 -41 -8 -55 -8 -22 0 -22
1 5 8 17 4 41 8 55 8 22 0 22 -1 -5 -8z m-272 -15 c-3 -9 -8 -14 -10 -11 -3 3
-2 9 2 15 9 16 15 13 8 -4z m1237 -6 c-78 -23 -220 -37 -220 -21 0 6 37 13 90
18 50 3 93 11 96 15 3 5 26 9 52 8 l47 0 -65 -20z m130 2 c0 -10 -9 -21 -20
-24 -11 -3 -18 -1 -14 4 3 5 0 9 -5 9 -21 0 -11 19 12 23 12 2 23 5 25 6 1 0
2 -7 2 -18z m25 9 c3 -5 1 -10 -4 -10 -6 0 -11 5 -11 10 0 6 2 10 4 10 3 0 8
-4 11 -10z m-985 -4 c0 -3 -4 -8 -10 -11 -5 -3 -10 -1 -10 4 0 6 5 11 10 11 6
0 10 -2 10 -4z m440 -6 c0 -5 -7 -10 -16 -10 -8 0 -12 5 -9 10 3 6 10 10 16
10 5 0 9 -4 9 -10z m40 0 c0 -5 -7 -10 -16 -10 -8 0 -12 5 -9 10 3 6 10 10 16
10 5 0 9 -4 9 -10z m-182 -14 c34 -9 63 -25 81 -45 32 -35 61 -41 61 -13 0 11
16 28 41 41 41 23 69 20 36 -3 -38 -29 -5 -36 45 -10 28 15 30 15 25 0 -5 -12
-1 -15 15 -13 17 1 22 -3 23 -23 0 -17 5 -24 16 -22 10 1 25 -12 39 -35 21
-36 22 -40 6 -88 -8 -27 -18 -76 -22 -109 -5 -42 -14 -65 -30 -82 -13 -13 -24
-28 -24 -34 0 -17 28 -11 32 8 2 9 2 -27 1 -80 -1 -74 -7 -107 -22 -139 -12
-24 -21 -50 -21 -58 0 -9 -11 -35 -25 -59 l-24 -43 25 -10 c25 -9 26 -12 20
-57 -16 -116 -23 -125 -51 -62 -17 39 -17 44 0 151 17 105 15 141 -5 109 -6
-8 -10 -28 -11 -45 -1 -21 -3 -24 -6 -10 -3 11 -9 25 -14 31 -5 7 -6 37 -3 68
5 39 3 56 -5 56 -6 0 -11 5 -11 11 0 5 5 7 10 4 13 -8 18 8 23 70 2 28 13 66
25 85 12 19 30 55 39 80 9 25 20 49 25 55 14 16 9 65 -7 65 -8 0 -15 5 -15 10
0 6 -5 10 -11 10 -11 0 -9 -27 6 -65 8 -19 6 -18 -17 3 -31 28 -42 28 -56 -3
-7 -15 -8 -25 -2 -25 6 0 10 5 10 10 0 6 4 10 9 10 4 0 6 -11 3 -25 -2 -14 -8
-25 -13 -25 -5 0 -9 -5 -9 -12 0 -6 10 -2 23 9 33 30 48 37 41 19 -3 -9 -11
-14 -17 -13 -7 1 -12 -5 -13 -13 -1 -31 -16 -60 -30 -60 -11 0 -14 -11 -14
-37 2 -43 -12 -138 -29 -201 -7 -23 -9 -47 -6 -52 3 -5 1 -11 -5 -15 -14 -9
-13 22 6 130 21 123 14 163 -9 60 -11 -44 -25 -92 -33 -107 -17 -31 -19 -88
-3 -88 7 0 10 -37 7 -115 -1 -63 -1 -115 3 -115 3 0 10 5 16 11 8 8 17 -1 34
-30 14 -25 33 -44 47 -48 21 -5 23 -10 17 -37 -3 -17 -8 -45 -11 -62 -3 -16
-14 -36 -24 -42 -17 -10 -20 -8 -25 22 -4 19 -2 43 4 54 6 12 11 31 11 43 0
18 -4 21 -29 16 -20 -4 -31 -2 -35 8 -3 8 -15 15 -27 15 -12 0 -20 -3 -16 -6
3 -4 -1 -21 -10 -38 -17 -31 -19 -37 -22 -56 0 -5 -6 -10 -12 -10 -7 0 -22
-12 -35 -27 -18 -22 -27 -25 -44 -17 -20 9 -19 11 24 57 34 35 46 56 47 80 0
17 3 26 6 20 7 -18 23 -16 23 2 0 8 -8 15 -17 15 -10 0 -14 4 -8 8 6 4 15 16
21 27 9 16 7 21 -10 30 -18 9 -24 6 -43 -20 -12 -16 -27 -40 -32 -52 -5 -11
-15 -24 -21 -28 -5 -3 -8 -10 -5 -15 7 -12 -40 -24 -60 -16 -26 9 -45 -5 -45
-34 0 -16 -7 -30 -15 -34 -9 -3 -15 0 -15 10 0 10 -6 14 -15 10 -10 -4 -15 1
-15 14 0 13 -7 20 -20 20 -11 0 -23 7 -26 15 -4 8 -12 15 -19 15 -9 0 -7 21 8
88 27 117 25 114 37 107 12 -7 3 -76 -16 -124 -17 -40 -18 -71 -4 -71 6 0 16
11 22 25 14 30 22 31 48 5 22 -22 41 -25 57 -9 6 6 21 16 34 23 12 6 29 21 37
34 13 20 13 22 -2 22 -9 0 -16 -6 -16 -14 0 -17 -27 -29 -35 -16 -4 6 1 10 9
10 14 0 20 11 18 31 -1 4 16 26 38 49 22 23 47 63 57 89 22 61 42 91 59 91 15
0 17 23 8 94 -5 31 -12 46 -21 46 -12 0 -13 -7 -8 -27 22 -82 23 -93 9 -104
-8 -6 -14 -8 -14 -3 0 5 -12 -4 -26 -21 -19 -22 -22 -23 -10 -5 28 43 30 53
14 64 -9 7 -18 23 -20 36 -4 30 -21 33 -27 5 -2 -11 -12 -32 -22 -47 -19 -26
-26 -78 -11 -78 4 0 13 5 20 12 6 6 14 9 18 6 3 -4 -6 -14 -20 -23 -14 -10
-26 -21 -26 -26 0 -5 -9 -18 -20 -29 -11 -11 -20 -28 -19 -37 0 -12 5 -8 14
12 18 39 19 21 1 -29 -11 -31 -15 -35 -18 -20 -4 16 -7 14 -16 -11 -18 -45
-39 -79 -53 -84 -8 -2 -10 2 -4 15 17 40 28 103 21 120 -6 16 -8 16 -16 4 -6
-8 -10 -10 -10 -5 -1 6 -6 -1 -12 -15 -10 -22 -12 -22 -15 -7 -3 11 9 47 25
80 18 38 32 87 37 126 3 36 14 76 24 90 19 28 64 138 75 184 4 17 2 27 -5 27
-7 0 -5 10 6 26 9 14 13 29 9 32 -4 4 -9 1 -11 -5 -3 -7 -11 -13 -18 -13 -8 0
-30 -27 -51 -60 -39 -63 -50 -75 -34 -37 14 36 40 130 43 157 1 20 -2 24 -17
22 -15 -3 -17 1 -13 20 6 22 3 24 -28 25 -31 1 -38 -4 -65 -48 -29 -47 -48
-65 -36 -34 13 36 -24 61 -51 34 -8 -8 -23 0 -54 30 -24 22 -38 41 -31 41 7 0
12 6 12 13 1 17 47 49 68 46 18 -2 72 7 135 22 21 6 37 16 37 24 0 9 15 15 48
18 26 2 47 4 47 5 0 1 24 -5 53 -12z m-420 -23 c-21 -2 -57 -2 -80 0 -24 2 -7
4 37 4 44 0 63 -2 43 -4z m1032 -3 c0 -5 -6 -11 -12 -11 -23 -2 -33 -5 -63
-18 -44 -20 -104 -30 -111 -19 -11 18 17 33 84 44 91 15 102 16 102 4z m-1300
-28 c0 -23 19 -42 42 -42 23 0 24 -35 2 -44 -20 -8 -10 -21 14 -21 9 0 17 -4
18 -10 0 -5 4 -18 8 -27 9 -20 10 -98 4 -178 -4 -41 -9 -56 -21 -58 -10 -2
-17 -10 -17 -19 0 -31 -44 -168 -57 -179 -9 -8 -12 -21 -7 -40 7 -26 32 -62
37 -53 17 26 57 155 57 182 0 10 4 17 10 17 5 0 3 -21 -5 -47 -8 -27 -15 -60
-15 -75 0 -15 -5 -30 -10 -33 -16 -10 -12 -75 4 -75 11 0 15 -24 18 -112 4
-113 -5 -177 -25 -190 -6 -3 -11 -31 -11 -61 -1 -31 -4 -58 -8 -62 -4 -4 -4 4
-2 17 5 22 5 22 -18 -4 -13 -16 -27 -28 -32 -28 -14 0 0 101 24 183 19 62 21
82 12 95 -6 10 -18 32 -26 50 -8 17 -20 32 -26 32 -7 0 -10 57 -10 175 1 96
-1 179 -5 185 -3 5 12 35 34 67 38 56 39 58 25 91 -8 19 -14 45 -14 58 0 15
-6 24 -15 24 -15 0 -15 -28 0 -76 5 -15 2 -21 -9 -21 -12 0 -14 7 -9 25 4 17
2 23 -6 18 -6 -4 -11 -14 -11 -22 0 -8 -4 -13 -9 -10 -6 4 -5 21 1 43 7 25 6
66 -1 129 -6 51 -11 97 -11 103 0 6 16 11 35 11 27 0 35 -4 35 -18z m1390 14
c0 -3 -4 -8 -10 -11 -5 -3 -10 -1 -10 4 0 6 5 11 10 11 6 0 10 -2 10 -4z
m-1147 -23 c10 -9 -41 -33 -70 -33 -34 0 -24 23 13 31 42 9 50 10 57 2z m1102
-12 c0 -9 -32 -22 -95 -37 -52 -13 -96 -23 -97 -24 -2 0 -3 9 -3 19 0 19 18
31 50 31 9 0 22 6 28 13 15 17 117 16 117 -2z m-225 -30 c0 -5 -7 -11 -15 -15
-15 -5 -20 5 -8 17 9 10 23 9 23 -2z m-892 -27 c41 -11 26 -34 -23 -34 -38 0
-45 3 -45 20 0 21 23 26 68 14z m1169 -46 c-3 -7 -5 -2 -5 12 0 14 2 19 5 13
2 -7 2 -19 0 -25z m-182 3 c-27 -10 -54 -16 -58 -14 -5 3 -15 -3 -22 -13 -12
-16 -14 -17 -15 -3 0 31 35 46 110 47 34 0 34 0 -15 -17z m-1030 -11 c-3 -5
-10 -10 -16 -10 -5 0 -9 5 -9 10 0 6 7 10 16 10 8 0 12 -4 9 -10z m65 -14 c0
-9 -8 -12 -26 -8 -19 3 -22 7 -12 13 20 13 38 11 38 -5z m92 -38 c-3 -15 -1
-19 9 -16 8 3 14 11 14 18 0 7 6 15 13 18 7 2 12 -6 12 -22 0 -29 26 -36 49
-13 10 10 11 7 6 -15 -9 -35 9 -37 43 -5 14 12 23 18 20 12 -17 -30 -48 -105
-48 -114 0 -21 30 -10 45 17 16 26 13 14 -8 -40 -6 -15 -8 -31 -4 -35 12 -12
39 10 75 63 43 61 37 38 -24 -104 -8 -18 -14 -54 -14 -80 -1 -26 -12 -78 -25
-117 l-25 -70 5 50 c5 52 -7 40 -20 -19 -9 -45 -14 -26 -5 22 9 53 0 262 -11
262 -5 0 -9 -10 -9 -22 0 -13 -7 -32 -15 -42 -14 -18 -15 -9 -16 90 -1 126
-15 97 -17 -37 -2 -75 -5 -86 -27 -109 -14 -13 -25 -19 -25 -12 0 7 7 15 15
18 12 5 12 9 0 28 -10 14 -14 44 -13 89 2 51 -1 70 -14 79 -20 17 -32 54 -19
63 6 3 8 25 4 53 -6 47 -6 47 14 29 14 -12 19 -25 15 -39z m942 6 c-25 -11
-174 -30 -174 -23 0 5 17 11 38 14 20 4 44 8 52 10 23 4 96 4 84 -1z m-1115
-26 c0 -7 -4 -22 -8 -33 -7 -17 -9 -15 -13 13 -3 22 -1 32 9 32 7 0 13 -6 12
-12z m76 2 c4 -6 -7 -10 -24 -10 -17 0 -31 5 -31 10 0 6 11 10 24 10 14 0 28
-4 31 -10z m23 -38 c1 -5 -17 -12 -43 -14 -36 -2 -45 0 -45 13 0 12 10 15 42
13 23 -1 44 -6 46 -12z m1050 3 c-7 -7 -111 -26 -116 -21 -6 7 58 24 92 25 16
1 27 -1 24 -4z m-1043 -35 c-3 -5 -18 -10 -33 -10 -21 0 -24 2 -12 10 20 13
53 13 45 0z m-125 -20 c0 -5 -5 -10 -11 -10 -5 0 -7 5 -4 10 3 6 8 10 11 10 2
0 4 -4 4 -10z m-170 -39 c0 -5 -7 -14 -15 -21 -12 -10 -15 -10 -15 2 0 8 3 18
7 21 9 10 23 9 23 -2z m1135 -21 c-3 -5 -12 -7 -20 -3 -21 7 -19 13 6 13 11 0
18 -4 14 -10z m-805 -10 c0 -5 -7 -10 -15 -10 -8 0 -15 5 -15 10 0 6 7 10 15
10 8 0 15 -4 15 -10z m1090 -41 c0 -29 -15 -14 -24 25 -6 26 -5 27 9 13 8 -9
15 -26 15 -38z m-1336 -78 c-8 -40 -20 -84 -25 -98 -17 -46 -21 -16 -6 44 8
32 18 78 22 101 4 24 11 40 16 35 4 -4 1 -41 -7 -82z m236 49 c0 -5 -2 -10 -4
-10 -3 0 -8 5 -11 10 -3 6 -1 10 4 10 6 0 11 -4 11 -10z m-107 -7 c-7 -2 -21
-2 -30 0 -10 3 -4 5 12 5 17 0 24 -2 18 -5z m244 -95 c-3 -46 -9 -94 -12 -108
-3 -14 -10 -49 -15 -78 -8 -46 -27 -82 -44 -82 -3 0 1 15 9 33 7 17 18 90 25
162 10 114 20 155 38 155 2 0 2 -37 -1 -82z m-283 31 c-5 -9 7 -10 45 -5 34 4
51 3 47 -3 -10 -15 -96 -25 -108 -13 -11 11 -3 32 13 32 6 0 7 -5 3 -11z m228
-69 l-7 -55 -5 45 c-3 25 -1 51 4 58 13 19 14 12 8 -48z m-98 15 c-8 -20 -12
-40 -9 -46 4 -5 -16 -35 -44 -66 -27 -32 -47 -60 -44 -63 3 -3 25 17 49 43 47
52 51 53 32 12 -9 -19 -9 -28 0 -37 16 -16 15 -28 -3 -28 -18 0 -20 -21 -3
-38 9 -9 7 -12 -10 -12 -26 0 -29 -18 -5 -35 16 -12 16 -15 2 -32 -9 -10 -14
-24 -12 -31 3 -8 -12 -32 -33 -53 -38 -39 -39 -39 -46 -17 -11 41 -8 85 7 98
8 7 15 17 15 23 0 5 -9 2 -20 -8 -20 -18 -20 -17 -20 62 l0 81 67 91 c70 96
104 120 77 56z m-91 -35 c-20 -27 -38 -48 -38 -47 -1 1 0 21 3 44 4 42 9 46
60 52 7 0 -4 -21 -25 -49z m264 18 c-3 -8 -6 -5 -6 6 -1 11 2 17 5 13 3 -3 4
-12 1 -19z m420 -40 c-3 -7 -5 -2 -5 12 0 14 2 19 5 13 2 -7 2 -19 0 -25z
m-564 -18 c-3 -12 -8 -19 -11 -16 -5 6 5 36 12 36 2 0 2 -9 -1 -20z m-384 -43
c-1 -40 -2 -40 -9 -12 -11 44 -11 67 0 60 6 -3 9 -25 9 -48z m175 28 c-4 -8
-8 -15 -10 -15 -2 0 -4 7 -4 15 0 8 4 15 10 15 5 0 7 -7 4 -15z m233 -7 c-3
-8 -6 -5 -6 6 -1 11 2 17 5 13 3 -3 4 -12 1 -19z m43 2 c0 -13 -6 -20 -17 -19
-11 0 -13 3 -5 6 6 2 12 11 12 19 0 8 2 14 5 14 3 0 5 -9 5 -20z m-76 -25 c-4
-8 -8 -15 -10 -15 -2 0 -4 7 -4 15 0 8 4 15 10 15 5 0 7 -7 4 -15z m22 -43
c-11 -10 -15 4 -8 28 l7 25 3 -23 c2 -13 1 -26 -2 -30z m531 26 c-3 -8 -6 -5
-6 6 -1 11 2 17 5 13 3 -3 4 -12 1 -19z m-387 -2 c0 -3 -4 -8 -10 -11 -5 -3
-10 -1 -10 4 0 6 5 11 10 11 6 0 10 -2 10 -4z m988 -136 c1 -34 -2 -40 -8 -25
-5 11 -8 43 -8 70 0 39 2 45 8 25 4 -14 8 -45 8 -70z m-1138 66 c0 -22 -11
-46 -21 -46 -10 0 -12 43 -2 53 11 12 23 8 23 -7z m-343 -93 c-3 -10 -5 -2 -5
17 0 19 2 27 5 18 2 -10 2 -26 0 -35z m381 1 c-2 -15 -8 -29 -14 -31 -10 -3
-12 15 -5 72 1 5 6 4 12 -2 6 -6 9 -23 7 -39z m-367 -65 c-5 -13 -10 -19 -10
-12 -1 15 10 45 15 40 3 -2 0 -15 -5 -28z m309 -15 c0 -12 -111 -134 -123
-134 -4 0 -7 14 -7 32 0 44 86 139 113 123 9 -5 17 -15 17 -21z m71 16 c8 12
9 11 4 -6 -4 -17 2 -28 27 -47 l32 -26 -25 -20 c-33 -28 -35 -27 -35 17 1 33
-2 37 -21 35 -25 -3 -26 0 -16 35 4 18 8 20 14 10 7 -11 11 -10 20 2z m304
-54 c-20 -34 -30 -43 -43 -38 -16 6 -16 7 1 10 9 2 17 11 17 20 0 16 40 65 48
58 2 -3 -8 -25 -23 -50z m-547 -48 c0 -46 -6 -114 -13 -153 l-13 -70 -2 80
c-1 44 -1 96 0 115 1 38 18 110 25 110 2 0 4 -37 3 -82z m737 33 c-4 -12 -15
-21 -26 -21 -16 0 -19 -5 -14 -20 6 -17 2 -20 -29 -20 -20 0 -36 3 -36 6 0 17
23 45 34 41 7 -3 26 5 42 18 33 26 39 25 29 -4z m-287 -29 c-16 -37 -28 -50
-28 -29 0 24 22 67 31 61 5 -2 3 -17 -3 -32z m-263 -13 c-3 -11 -8 -29 -11
-40 -4 -13 -1 -25 7 -29 8 -6 -5 -25 -46 -67 l-59 -58 -12 30 c-23 53 -17 71
43 134 55 57 90 70 78 30z m1082 -1 c-3 -7 -5 -2 -5 12 0 14 2 19 5 13 2 -7 2
-19 0 -25z m-979 -57 c-7 -11 -16 -18 -20 -15 -4 3 -2 11 5 19 18 21 29 18 15
-4z m119 -5 c-6 -17 -21 -13 -25 6 -3 13 1 16 13 12 9 -4 14 -12 12 -18z m209
-11 c-1 -26 -5 -35 -16 -33 -26 5 -14 55 16 68 0 0 0 -16 0 -35z m114 25 c0
-5 -2 -10 -4 -10 -3 0 -8 5 -11 10 -3 6 -1 10 4 10 6 0 11 -4 11 -10z m140
-15 c0 -8 -15 -24 -32 -35 -18 -10 -38 -24 -45 -29 -29 -26 -61 5 -42 40 11
21 13 21 24 6 17 -24 30 -21 43 8 13 27 52 35 52 10z m-620 -15 c0 -5 -2 -10
-4 -10 -3 0 -8 5 -11 10 -3 6 -1 10 4 10 6 0 11 -4 11 -10z m100 0 c0 -5 -7
-10 -17 -10 -14 0 -14 -2 2 -20 10 -11 21 -16 24 -11 4 5 11 -2 18 -15 10 -22
9 -24 -6 -19 -10 3 -31 1 -46 -5 -20 -8 -26 -7 -22 2 2 7 -5 23 -16 35 -19 22
-19 23 -1 29 10 3 28 9 39 14 11 5 21 9 23 9 1 1 2 -3 2 -9z m340 -39 c0 -20
-5 -27 -22 -28 -19 -2 -23 3 -25 31 -3 30 -1 33 22 28 19 -3 25 -11 25 -31z
m-240 19 c0 -5 -4 -10 -9 -10 -6 0 -13 5 -16 10 -3 6 1 10 9 10 9 0 16 -4 16
-10z m90 1 c0 -5 -9 -7 -20 -4 -11 3 -20 7 -20 9 0 2 9 4 20 4 11 0 20 -4 20
-9z m-34 -28 c1 -10 5 -27 9 -38 6 -16 5 -18 -5 -8 -11 10 -17 7 -32 -18 -10
-16 -22 -27 -27 -24 -5 3 -12 -3 -16 -14 -3 -11 -13 -22 -22 -25 -27 -11 -27
3 0 25 15 11 27 29 27 39 0 10 7 20 15 24 8 3 20 17 25 31 11 29 25 33 26 8z
m-589 -15 c-3 -8 -6 -5 -6 6 -1 11 2 17 5 13 3 -3 4 -12 1 -19z m361 -6 c2 -7
-2 -10 -12 -6 -9 3 -16 11 -16 16 0 13 23 5 28 -10z m322 8 c0 -5 -11 -10 -24
-10 -14 0 -28 5 -31 10 -4 6 7 10 24 10 17 0 31 -4 31 -10z m-160 -9 c0 -5 -7
-11 -15 -15 -9 -3 -15 0 -15 9 0 8 7 15 15 15 8 0 15 -4 15 -9z m140 -22 c-11
-8 -12 -12 -2 -16 17 -7 15 -40 -4 -47 -24 -9 -34 2 -34 40 0 30 3 34 28 34
22 0 24 -2 12 -11z m174 -24 c-9 -13 -13 -29 -10 -34 4 -5 2 -12 -4 -16 -5 -3
-10 0 -10 8 0 8 -7 17 -15 21 -22 8 -18 19 12 38 35 21 47 14 27 -17z m-875
-3 c0 -9 3 -29 7 -44 5 -23 3 -28 -12 -28 -45 1 -65 46 -36 81 17 20 41 15 41
-9z m751 18 c0 -5 -4 -10 -9 -10 -6 0 -13 5 -16 10 -3 6 1 10 9 10 9 0 16 -4
16 -10z m-260 -35 c0 -24 -35 -41 -46 -23 -3 5 -13 7 -21 4 -9 -4 -13 -2 -9 6
3 7 9 20 12 29 4 11 14 14 35 11 22 -3 29 -10 29 -27z m917 -2 c-3 -10 -5 -4
-5 12 0 17 2 24 5 18 2 -7 2 -21 0 -30z m-1347 -9 c0 -13 -4 -24 -10 -24 -5 0
-10 14 -10 31 0 17 4 28 10 24 6 -3 10 -17 10 -31z m750 -18 c-7 -7 -16 -5
-26 6 -23 23 -8 42 16 20 13 -11 16 -20 10 -26z m-160 3 c0 -5 -9 -9 -20 -9
-22 0 -27 16 -7 23 15 5 27 -1 27 -14z m80 -48 c-25 -36 -27 -37 -27 -14 0 16
38 56 46 48 2 -2 -7 -18 -19 -34z m-604 -31 c0 -33 -2 -60 -5 -60 -10 0 -33
41 -42 74 -9 32 1 46 32 46 12 0 15 -12 15 -60z m559 50 c3 -5 2 -10 -4 -10
-5 0 -13 5 -16 10 -3 6 -2 10 4 10 5 0 13 -4 16 -10z m-75 -30 c0 -13 -6 -16
-25 -12 -28 5 -27 4 -19 25 7 20 44 9 44 -13z m40 4 c0 -8 -4 -12 -10 -9 -5 3
-10 13 -10 21 0 8 5 12 10 9 6 -3 10 -13 10 -21z m-586 -48 c1 -27 6 -48 14
-51 12 -4 18 -35 6 -35 -3 0 -15 11 -26 25 -26 34 -41 32 -33 -4 5 -22 1 -35
-14 -50 -12 -12 -25 -21 -31 -21 -18 0 -10 19 15 36 31 21 23 35 -15 27 -29
-5 -30 -4 -30 29 0 33 23 78 40 78 6 0 6 -10 0 -25 -16 -41 7 -29 31 16 25 50
42 41 43 -25z m1383 -18 c-2 -13 -4 -3 -4 22 0 25 2 35 4 23 2 -13 2 -33 0
-45z m-1387 -88 c0 -5 -4 -10 -10 -10 -5 0 -10 5 -10 10 0 6 5 10 10 10 6 0
10 -4 10 -10z m47 -12 c-3 -8 -6 -5 -6 6 -1 11 2 17 5 13 3 -3 4 -12 1 -19z
m1270 -35 c-3 -10 -5 -4 -5 12 0 17 2 24 5 18 2 -7 2 -21 0 -30z m-1194 15 c7
-19 -9 -54 -27 -61 -12 -5 -16 0 -16 17 0 14 3 31 6 40 7 19 30 21 37 4z
m-197 -21 c10 3 12 0 8 -10 -3 -8 -14 -17 -25 -20 -15 -4 -19 0 -19 21 0 19 3
23 11 15 6 -6 18 -9 25 -6z m100 -14 c-2 -10 -8 -34 -12 -53 -6 -33 -6 -34 12
-20 16 14 17 13 11 -3 -4 -10 -7 -22 -7 -27 0 -16 -45 -6 -61 14 -20 25 -35
15 -43 -30 -4 -19 -9 -41 -12 -47 -2 -7 9 -21 26 -30 39 -23 30 -40 -11 -20
-28 14 -30 19 -26 52 15 100 21 115 43 107 9 -4 14 2 14 17 0 29 11 44 35 50
34 8 36 7 31 -10z m84 -59 c0 -14 -3 -14 -15 -4 -8 7 -15 14 -15 16 0 2 7 4
15 4 8 0 15 -7 15 -16z m-20 -64 c8 -32 2 -50 -18 -50 -9 0 -26 -10 -39 -22
-34 -32 -36 -18 -5 45 29 61 51 70 62 27z m-130 -130 c0 -5 -5 -10 -11 -10 -5
0 -7 5 -4 10 3 6 8 10 11 10 2 0 4 -4 4 -10z m-83 -92 c-3 -8 -6 -5 -6 6 -1
11 2 17 5 13 3 -3 4 -12 1 -19z m454 -172 l34 -14 -28 -13 c-22 -10 -32 -10
-50 0 -28 15 -31 41 -6 41 9 0 32 -6 50 -14z m991 -598 c-4 -26 -20 -33 -34
-14 -4 6 -13 4 -22 -4 -9 -7 -20 -10 -23 -6 -4 4 -3 10 2 14 6 4 24 27 40 51
l30 44 5 -29 c3 -16 4 -41 2 -56z m-1065 -104 c-3 -3 -12 -4 -19 -1 -8 3 -5 6
6 6 11 1 17 -2 13 -5z"/>
<path d="M963 3203 c9 -2 23 -2 30 0 6 3 -1 5 -18 5 -16 0 -22 -2 -12 -5z"/>
<path d="M1062 2828 c-6 -6 -12 -16 -12 -21 0 -5 -13 -22 -30 -39 -21 -21 -30
-25 -30 -14 0 22 -16 20 -33 -4 -11 -17 -19 -18 -47 -10 -18 5 -37 7 -41 4
-11 -6 -12 -44 -1 -44 4 -1 27 -5 52 -10 27 -5 52 -4 62 1 20 11 17 -3 -14
-60 -11 -18 -16 -41 -13 -50 5 -12 10 -8 21 17 7 18 17 31 22 28 5 -3 8 5 8
17 -1 13 4 21 12 19 8 -1 11 1 8 6 -2 4 1 21 8 37 38 85 48 114 44 125 -2 8
-7 7 -16 -2z"/>
<path d="M570 2789 c0 -18 2 -19 15 -9 8 7 15 16 15 21 0 5 -7 9 -15 9 -9 0
-15 -9 -15 -21z"/>
<path d="M1120 2790 c0 -5 -6 -10 -14 -10 -16 0 -28 -37 -15 -46 6 -3 16 0 24
6 12 10 15 9 15 -4 0 -9 -6 -16 -14 -16 -7 0 -16 -10 -19 -22 -7 -25 0 -38 11
-22 4 6 14 13 23 16 17 6 31 70 21 96 -5 14 -32 16 -32 2z"/>
<path d="M1035 2629 c-16 -31 -15 -46 3 -35 14 9 33 66 22 66 -5 0 -17 -14
-25 -31z"/>
<path d="M1095 2650 c-3 -5 -1 -10 4 -10 6 0 11 5 11 10 0 6 -2 10 -4 10 -3 0
-8 -4 -11 -10z"/>
<path d="M996 2582 c-13 -21 -18 -92 -7 -92 8 0 10 8 6 20 -5 15 -3 18 8 14
11 -4 14 2 12 26 -2 33 -10 46 -19 32z"/>
<path d="M1035 2520 c-12 -19 -18 -126 -8 -115 10 10 27 125 19 125 -3 0 -8
-5 -11 -10z"/>
<path d="M1186 2494 c-11 -28 -6 -39 9 -20 8 11 15 23 15 28 0 14 -18 9 -24
-8z"/>
<path d="M761 2164 c0 -11 3 -14 6 -6 3 7 2 16 -1 19 -3 4 -6 -2 -5 -13z"/>
<path d="M913 2093 c-7 -3 -13 -10 -13 -16 0 -6 -7 -19 -17 -29 -13 -15 -13
-18 -2 -18 8 0 23 14 33 31 19 32 19 39 -1 32z"/>
<path d="M220 2410 c-3 -9 -8 -34 -14 -75 l-6 -40 15 45 c9 25 14 52 11 60 -2
8 -5 13 -6 10z"/>
<path d="M240 2174 c0 -17 23 -34 45 -33 14 0 16 2 5 6 -8 3 -23 12 -32 21
-10 8 -18 11 -18 6z"/>
<path d="M1452 2313 c-95 -108 -172 -205 -172 -217 0 -12 47 39 125 136 127
158 148 194 47 81z"/>
<path d="M1364 2293 c-51 -64 -95 -133 -86 -133 8 0 35 36 105 142 27 40 15
34 -19 -9z"/>
<path d="M1386 2041 c-71 -86 -131 -163 -133 -171 -6 -21 52 43 166 185 105
130 116 145 104 144 -4 0 -66 -71 -137 -158z"/>
<path d="M1380 1942 c0 -5 21 -12 46 -16 67 -9 86 -8 82 6 -5 13 -128 24 -128
10z"/>
<path d="M1330 1915 c0 -19 22 -29 47 -22 16 4 15 6 -4 12 -13 4 -23 11 -23
16 0 5 -4 9 -10 9 -5 0 -10 -7 -10 -15z"/>
<path d="M1354 1683 c-16 -21 -31 -40 -34 -43 -3 -3 -29 -34 -58 -69 -54 -66
-64 -103 -10 -41 60 70 141 181 135 186 -3 3 -18 -12 -33 -33z"/>
<path d="M495 1528 c-27 -28 -40 -45 -29 -40 27 14 100 96 82 91 -2 0 -25 -23
-53 -51z"/>
<path d="M1250 1452 c-69 -70 -165 -170 -214 -222 -49 -52 -112 -119 -140
-147 -28 -29 -45 -53 -40 -53 6 0 54 44 106 98 52 53 166 170 254 260 87 90
163 170 167 178 20 35 -17 3 -133 -114z"/>
<path d="M571 1512 c-8 -9 -35 -39 -60 -66 -28 -30 -37 -44 -24 -37 25 13 113
101 113 113 0 13 -14 8 -29 -10z"/>
<path d="M1447 1523 c-4 -3 -7 -11 -7 -17 0 -6 5 -5 12 2 6 6 9 14 7 17 -3 3
-9 2 -12 -2z"/>
<path d="M1373 1430 c-35 -44 -55 -60 -73 -60 -70 -1 -92 -28 -41 -50 21 -8
35 -9 48 -1 16 9 14 11 -15 17 -53 11 -17 22 41 13 59 -9 89 -7 94 8 2 6 -16
8 -49 5 l-53 -5 35 36 c33 33 77 97 67 97 -3 0 -27 -27 -54 -60z"/>
<path d="M1020 1404 c-30 -29 -51 -56 -47 -60 4 -4 16 1 28 12 28 25 82 94 78
98 -2 2 -29 -21 -59 -50z"/>
<path d="M1444 1356 c-3 -8 -19 -20 -35 -26 -28 -12 -40 -30 -19 -30 20 0 90
50 90 65 0 12 -31 4 -36 -9z"/>
<path d="M885 1310 c-16 -16 -26 -32 -24 -35 3 -2 21 11 39 30 19 19 29 35 24
35 -6 0 -23 -13 -39 -30z"/>
<path d="M863 1222 c-44 -48 -109 -118 -144 -156 -35 -38 -92 -98 -126 -132
-35 -34 -63 -65 -63 -68 0 -25 62 36 265 259 160 176 159 174 154 179 -3 3
-41 -34 -86 -82z"/>
<path d="M887 1203 c-4 -3 -7 -11 -7 -17 0 -6 5 -5 12 2 6 6 9 14 7 17 -3 3
-9 2 -12 -2z"/>
<path d="M1020 1109 c0 -5 5 -7 10 -4 6 3 10 8 10 11 0 2 -4 4 -10 4 -5 0 -10
-5 -10 -11z"/>
<path d="M1168 963 c-76 -81 -135 -149 -133 -152 6 -5 129 121 226 230 111
126 46 71 -93 -78z"/>
<path d="M986 1074 c-9 -8 -16 -18 -16 -20 0 -7 38 15 45 26 10 16 -12 12 -29
-6z"/>
<path d="M755 1038 c-52 -61 -64 -92 -15 -38 40 44 65 80 56 80 -2 0 -21 -19
-41 -42z"/>
<path d="M1340 938 c-186 -180 -189 -181 -274 -189 -75 -7 -161 6 -184 28 -18
18 -47 16 -63 -3 -12 -15 -10 -16 19 -10 25 6 32 4 32 -8 0 -12 10 -16 35 -16
19 0 50 -8 70 -17 26 -13 41 -14 53 -7 9 6 42 10 72 9 30 -1 67 5 83 13 35 17
41 13 21 -16 -9 -13 -26 -22 -42 -23 l-27 -1 29 -9 c19 -5 34 -5 42 2 9 7 19
6 34 -3 16 -10 22 -10 28 -1 4 6 20 14 36 17 33 6 46 17 28 23 -8 3 2 21 28
50 22 25 40 50 40 56 0 5 -19 -11 -41 -37 -25 -28 -47 -45 -56 -42 -7 3 -23 0
-35 -7 -16 -9 -22 -9 -25 1 -3 6 -15 12 -27 12 -13 0 -25 3 -29 6 -3 3 27 33
66 67 40 34 81 71 92 84 11 13 26 23 34 23 16 0 41 25 41 41 0 7 14 28 32 46
17 18 30 35 27 37 -2 2 -65 -55 -139 -126z"/>
<path d="M1030 1050 c0 -5 5 -10 10 -10 6 0 10 5 10 10 0 6 -4 10 -10 10 -5 0
-10 -4 -10 -10z"/>
<path d="M1240 919 c-58 -61 -107 -116 -109 -122 -9 -27 163 142 210 206 43
58 0 22 -101 -84z"/>
<path d="M414 947 c-33 -34 -67 -71 -75 -82 -13 -18 -12 -18 16 2 17 12 41 34
54 50 13 15 35 40 49 55 14 15 23 30 21 33 -3 2 -32 -24 -65 -58z"/>
<path d="M955 994 c-14 -10 -42 -14 -93 -13 -70 2 -91 -6 -92 -33 0 -15 46
-38 75 -37 l30 1 -32 11 c-57 21 -42 32 45 35 l83 3 -7 -26 c-6 -24 -5 -26 12
-17 54 28 73 34 86 26 11 -6 11 -5 0 8 -10 13 -10 18 -1 24 16 10 -25 26 -46
18 -8 -4 -21 -2 -28 4 -8 7 -18 6 -32 -4z"/>
<path d="M1435 950 c-4 -6 -11 -8 -16 -5 -5 4 -9 -3 -9 -14 0 -17 6 -21 33
-20 23 1 26 3 10 6 -27 5 -30 20 -5 25 12 2 13 6 5 11 -6 4 -14 3 -18 -3z"/>
<path d="M670 935 c-7 -9 -10 -18 -7 -21 3 -3 10 4 17 15 13 25 8 27 -10 6z"/>
<path d="M1035 930 c-3 -5 -1 -10 4 -10 6 0 11 5 11 10 0 6 -2 10 -4 10 -3 0
-8 -4 -11 -10z"/>
<path d="M1530 900 c0 -5 5 -10 10 -10 6 0 10 5 10 10 0 6 -4 10 -10 10 -5 0
-10 -4 -10 -10z"/>
<path d="M1528 826 c-90 -117 -243 -291 -255 -290 -7 1 -32 -20 -54 -48 -23
-27 -44 -46 -47 -43 -3 3 4 15 15 28 32 35 39 52 20 44 -16 -6 -16 -3 -3 28
16 38 8 47 -12 15 -14 -23 -37 -27 -29 -6 4 9 -7 29 -23 46 -27 29 -31 30 -56
18 -15 -7 -30 -20 -32 -28 -5 -13 -3 -13 12 -1 9 8 19 11 22 8 8 -7 -56 -77
-70 -77 -5 0 0 10 12 23 24 25 29 43 10 31 -8 -5 -9 -2 -5 9 9 25 -6 21 -33
-8 -13 -14 -29 -25 -37 -25 -15 0 -17 -28 -4 -49 8 -12 13 -12 24 -3 8 7 21
10 29 7 10 -4 32 12 62 47 29 33 46 46 46 36 0 -9 -4 -20 -10 -23 -5 -3 -10
-13 -10 -21 0 -11 6 -13 20 -9 15 5 20 2 20 -13 0 -10 -3 -22 -7 -26 -14 -13
-12 -44 2 -50 8 -3 15 -16 15 -30 0 -36 16 -41 36 -11 24 37 47 33 39 -7 -4
-18 -13 -39 -20 -47 -11 -11 -17 -10 -40 13 -30 30 -35 32 -35 10 0 -9 -9 -18
-20 -21 -11 -3 -20 -10 -20 -15 0 -7 -5 -6 -14 1 -16 13 -98 12 -89 -2 3 -5
18 -7 33 -4 15 3 32 1 39 -6 8 -8 20 -8 46 2 28 10 42 10 69 0 30 -11 36 -10
56 9 12 11 19 25 16 31 -4 5 -2 12 4 16 15 9 12 46 -6 66 -12 13 -13 22 -5 38
6 11 17 18 25 15 13 -5 54 39 220 240 32 39 67 83 78 99 32 45 3 31 -34 -17z"/>
<path d="M768 734 c-15 -14 -8 -53 10 -58 53 -15 81 -16 88 -5 4 8 3 10 -4 5
-6 -4 -19 -2 -29 3 -10 5 -26 12 -35 15 -9 2 -18 14 -20 26 -2 12 -6 18 -10
14z"/>
<path d="M905 688 c23 -14 215 -20 215 -7 0 15 -44 20 -91 10 -30 -7 -58 -7
-80 -1 -48 14 -69 13 -44 -2z"/>
<path d="M1583 665 c-9 -24 1 -27 15 -5 8 13 8 20 2 20 -6 0 -13 -7 -17 -15z"/>
<path d="M458 653 c-24 -6 -29 -28 -13 -66 15 -36 50 -54 70 -37 7 6 24 6 45
0 23 -7 38 -6 47 1 7 7 27 9 48 5 20 -4 35 -3 35 2 0 15 -22 20 -74 15 -32 -2
-52 0 -57 8 -6 10 -13 10 -34 1 -38 -18 -50 -15 -63 13 -7 14 -12 27 -12 29 0
3 68 0 85 -4 29 -7 37 1 14 14 -32 16 -69 24 -91 19z"/>
<path d="M1400 589 c-27 -33 -50 -63 -50 -67 0 -4 -16 -24 -36 -45 -20 -21
-33 -41 -29 -45 4 -4 21 9 38 29 39 45 140 189 133 189 -3 0 -28 -27 -56 -61z"/>
<path d="M1516 569 c-15 -22 -26 -42 -24 -45 3 -2 17 14 32 37 36 53 30 59 -8
8z"/>
<path d="M824 579 c-5 -8 1 -10 19 -5 19 4 27 2 30 -11 4 -14 5 -12 6 5 1 17
-4 22 -23 22 -14 0 -28 -5 -32 -11z"/>
<path d="M800 551 c0 -4 -21 -13 -47 -19 -60 -16 -81 -49 -58 -94 11 -23 12
-35 3 -54 -16 -36 6 -74 44 -74 15 0 28 -5 28 -11 0 -6 11 -25 24 -42 23 -30
28 -32 75 -29 36 3 51 8 51 18 0 19 17 18 28 -2 7 -12 16 -14 39 -7 30 8 30 9
19 42 -6 19 -17 37 -25 39 -14 5 -13 -9 5 -53 7 -18 6 -18 -30 3 -40 24 -56
22 -56 -8 0 -16 -6 -18 -37 -13 -46 6 -76 38 -70 71 4 22 2 23 -33 17 -33 -6
-39 -3 -45 14 -3 11 -2 29 4 39 7 13 6 27 -5 48 -14 27 -14 30 5 45 12 10 21
22 21 27 0 12 57 23 88 18 14 -3 22 0 22 8 0 8 -11 16 -25 18 -14 3 -25 2 -25
-1z"/>
<path d="M578 523 c6 -2 18 -2 25 0 6 3 1 5 -13 5 -14 0 -19 -2 -12 -5z"/>
<path d="M1431 442 c-25 -37 -62 -93 -84 -125 -21 -33 -36 -61 -34 -63 5 -6
43 44 91 121 20 33 48 77 62 98 13 20 21 37 17 37 -5 0 -28 -30 -52 -68z"/>
<path d="M937 382 c-3 -4 3 -13 14 -20 10 -7 19 -8 19 -3 0 13 -28 33 -33 23z"/>
<path d="M1566 343 c-6 -14 -5 -15 5 -6 7 7 10 15 7 18 -3 3 -9 -2 -12 -12z"/>
<path d="M320 296 c0 -9 5 -16 10 -16 6 0 10 4 10 9 0 6 -4 13 -10 16 -5 3
-10 -1 -10 -9z"/>
<path d="M1411 250 c-23 -33 -38 -60 -33 -60 17 0 89 106 80 116 -3 2 -23 -23
-47 -56z"/>
<path d="M290 255 c5 -13 1 -24 -14 -36 -12 -10 -18 -21 -14 -24 10 -11 58 23
58 40 0 8 11 17 25 21 40 10 29 21 -19 20 -39 -1 -43 -3 -36 -21z"/>
<path d="M1341 235 c-13 -20 -22 -38 -19 -40 7 -7 50 54 46 65 -2 5 -14 -6
-27 -25z"/>
</g>
</svg>
