<?xml version="1.0" standalone="no"?>
<!DOCTYPE svg PUBLIC "-//W3C//DTD SVG 20010904//EN"
 "http://www.w3.org/TR/2001/REC-SVG-20010904/DTD/svg10.dtd">
<svg version="1.0" xmlns="http://www.w3.org/2000/svg"
 width="173.000000pt" height="188.000000pt" viewBox="0 0 173.000000 188.000000"
 preserveAspectRatio="xMidYMid meet">
<metadata>
Created by potrace 1.16, written by Peter Selinger 2001-2019
</metadata>
<g transform="translate(0.000000,188.000000) scale(0.100000,-0.100000)"
fill="#000000" stroke="none">
<path d="M100 1865 c0 -8 6 -16 13 -16 17 -2 227 1 462 7 110 3 241 5 290 5
470 -2 865 3 865 11 0 4 -367 8 -815 8 -718 0 -815 -2 -815 -15z"/>
<path d="M1364 1761 c-2 -3 -192 -6 -421 -7 -229 -1 -466 -5 -527 -10 -284
-19 -315 -23 -331 -48 -10 -16 -14 -86 -17 -292 -2 -180 -7 -276 -15 -285 -13
-16 -40 -758 -28 -786 4 -10 8 -56 10 -103 2 -47 9 -86 14 -88 6 -2 11 -17 11
-33 0 -43 38 -59 86 -35 34 16 36 16 30 0 -5 -13 -2 -15 16 -10 70 19 172 28
190 17 23 -14 222 -22 613 -25 149 -1 325 -6 393 -11 88 -6 122 -5 122 3 0 8
8 9 26 2 38 -15 42 -13 52 23 20 63 25 113 27 247 1 74 5 158 9 185 9 72 25
250 37 400 5 72 14 166 20 210 5 44 14 159 19 255 5 96 12 215 16 264 l7 89
-24 -6 -24 -6 25 19 c14 10 22 22 18 25 -7 7 -347 13 -354 6z m-458 -270 c-3
-5 1 -11 9 -15 9 -3 15 0 15 9 0 21 13 18 38 -8 28 -30 39 -66 41 -145 1 -48
-2 -64 -14 -68 -16 -7 -21 -34 -6 -34 10 0 9 -11 -5 -75 l-6 -29 -20 38 c-11
21 -28 40 -38 43 -15 4 -19 17 -22 78 -2 40 0 71 4 69 4 -3 12 4 17 15 14 26
14 31 -4 31 -8 0 -15 -6 -15 -12 0 -9 -4 -8 -10 2 -8 12 -10 10 -10 -10 0 -15
-5 -31 -12 -38 -9 -9 -9 -17 1 -35 7 -13 11 -45 9 -72 -2 -41 -7 -52 -27 -62
-14 -6 -31 -22 -38 -35 -12 -21 -13 -19 -11 30 2 28 -1 53 -6 55 -11 4 -13
168 -2 185 6 11 10 10 19 -1 7 -8 22 -18 35 -22 19 -6 22 -3 22 24 0 17 5 31
10 31 6 0 10 7 10 15 0 21 -17 19 -30 -5 -13 -24 -28 -26 -37 -3 -8 21 30 53
64 53 13 0 22 -4 19 -9z m345 -122 c15 -15 18 -24 10 -32 -18 -18 -13 -39 8
-32 22 7 36 -19 22 -42 -7 -14 -10 -13 -20 5 -7 12 -19 22 -27 22 -9 0 -12 -5
-8 -12 5 -7 2 -9 -8 -5 -9 3 -21 0 -28 -6 -10 -10 -12 -7 -7 11 4 17 1 22 -14
22 -23 0 -25 -13 -4 -30 13 -11 8 -20 -35 -67 -28 -30 -50 -58 -50 -61 0 -14
-37 -30 -50 -22 -10 6 -8 15 9 43 11 19 21 43 21 53 1 26 27 59 48 59 13 0 17
9 17 33 0 26 7 40 30 58 37 29 59 30 86 3z m-711 1 c0 -5 9 -10 20 -10 21 0
28 -24 10 -35 -15 -9 -12 -25 5 -25 8 0 15 7 15 15 0 21 34 19 54 -4 12 -13
15 -27 11 -41 -5 -16 -2 -23 12 -26 31 -8 70 -134 42 -134 -6 0 -44 32 -84 70
-51 50 -77 69 -89 64 -13 -5 -3 -20 51 -76 95 -96 95 -110 3 -63 -45 23 -50
28 -44 50 5 20 2 25 -13 25 -10 0 -24 -5 -30 -11 -8 -8 -19 -6 -42 7 -31 18
-40 34 -21 34 19 0 10 19 -11 22 -17 2 -23 11 -25 38 -5 48 15 83 56 97 43 15
80 16 80 3z m697 -128 c16 13 18 11 28 -21 6 -19 4 -23 -8 -18 -11 4 -17 -1
-19 -20 -3 -29 -28 -45 -28 -19 0 20 -16 21 -24 1 -3 -8 2 -18 10 -23 13 -7
10 -14 -17 -37 -48 -40 -77 -51 -92 -36 -8 8 -8 16 -2 25 79 107 121 154 129
146 6 -6 14 -6 23 2z m-307 -66 c0 -3 -4 -8 -10 -11 -5 -3 -10 -1 -10 4 0 6 5
11 10 11 6 0 10 -2 10 -4z m40 -71 c0 -8 -7 -11 -20 -8 -23 6 -26 19 -7 26 16
6 27 -1 27 -18z m-566 -11 c5 -13 9 -14 20 -5 18 15 86 -11 86 -33 0 -12 7
-14 28 -10 27 5 28 4 29 -36 2 -34 -1 -40 -15 -36 -9 3 -32 7 -51 8 -24 2 -36
9 -42 25 -9 25 -35 40 -47 28 -4 -3 1 -12 11 -19 24 -18 21 -26 -9 -26 -14 0
-23 -4 -20 -9 4 -5 1 -11 -6 -13 -13 -5 -4 -38 11 -38 6 0 8 7 5 15 -8 21 37
29 99 19 49 -8 52 -11 52 -39 l0 -29 -72 -4 c-50 -3 -77 0 -89 10 -41 33 -75
72 -80 95 -7 27 13 83 24 66 4 -6 17 -13 30 -17 17 -6 22 -3 22 9 0 11 -5 15
-15 11 -10 -3 -15 1 -15 13 0 17 11 28 31 30 4 1 10 -6 13 -15z m626 1 c0 -8
-4 -15 -10 -15 -5 0 -10 7 -10 15 0 8 5 15 10 15 6 0 10 -7 10 -15z m-293 -17
c-3 -8 -6 -5 -6 6 -1 11 2 17 5 13 3 -3 4 -12 1 -19z m633 2 c3 -1 -5 -5 -17
-10 -26 -11 -31 -29 -8 -31 8 -1 21 -2 28 -3 6 0 13 -16 15 -34 3 -32 2 -32
-19 -20 -16 9 -23 10 -26 2 -7 -20 -44 -4 -38 16 3 10 1 21 -4 24 -6 4 -8 13
-4 21 3 9 -1 15 -11 15 -9 0 -16 -7 -16 -15 0 -8 -4 -15 -10 -15 -5 0 -10 -7
-10 -15 0 -8 5 -15 10 -15 6 0 10 -6 10 -14 0 -9 -16 -15 -47 -18 -55 -5 -63
-1 -67 36 -3 28 25 56 75 75 19 6 111 7 139 1z m-491 -27 c8 -14 12 -15 25 -4
14 12 20 11 38 -5 44 -40 58 -111 38 -186 -8 -26 -15 -35 -25 -31 -23 8 -19
50 6 56 15 4 20 11 15 22 -3 9 -6 32 -6 51 0 22 -5 34 -14 34 -14 0 -25 -28
-26 -70 -1 -28 -60 -84 -60 -56 0 8 9 21 20 29 21 14 55 121 44 138 -9 16 -24
10 -24 -10 0 -26 -17 -36 -35 -21 -12 10 -17 8 -24 -11 -5 -13 -10 -18 -10
-11 -1 6 -10 12 -21 12 -26 0 -26 -31 0 -48 22 -14 40 -8 40 12 0 7 7 13 15
13 8 0 15 -6 15 -14 0 -7 1 -16 3 -20 1 -3 -4 -8 -11 -11 -8 -2 -10 2 -5 14 4
12 3 15 -5 10 -7 -4 -12 -17 -12 -29 0 -17 -2 -19 -10 -7 -5 8 -12 11 -16 7
-4 -4 -2 -13 4 -19 7 -7 12 -21 12 -32 0 -20 0 -20 -15 0 -14 19 -14 19 -15
-3 0 -12 -4 -24 -8 -27 -4 -2 -8 12 -7 31 0 20 -5 38 -12 40 -8 3 -13 -4 -13
-15 0 -11 -6 -22 -12 -25 -10 -4 -10 -7 0 -18 6 -7 12 -20 12 -29 0 -9 -8 -3
-20 15 -21 32 -26 50 -11 40 5 -3 13 -1 16 5 9 15 -5 71 -16 64 -11 -7 -12 17
0 35 7 11 11 10 19 -5 10 -18 11 -18 18 0 5 12 3 21 -4 24 -21 7 -13 38 13 50
35 16 42 15 48 -8 6 -23 27 -27 27 -5 0 8 -4 15 -10 15 -5 0 -10 5 -10 10 0
16 18 12 29 -7z m-250 -48 c3 -12 -13 -9 -17 4 -2 7 0 11 6 7 5 -3 10 -8 11
-11z m510 -22 c13 -29 3 -43 -31 -43 -21 0 -21 -1 -7 39 13 38 22 39 38 4z
m-463 -30 c-11 -11 -19 6 -11 24 8 17 8 17 12 0 3 -10 2 -21 -1 -24z m404 7
c-8 -5 -16 -8 -17 -6 -2 2 -1 11 3 20 5 13 10 14 18 6 8 -8 7 -13 -4 -20z
m-440 6 c0 -20 -25 -66 -36 -66 -19 0 -18 29 2 37 8 3 13 12 10 19 -3 8 1 14
9 14 8 0 15 -2 15 -4z m730 -19 c22 6 25 -4 10 -27 -6 -9 -10 -10 -10 -3 0 8
-14 11 -37 10 -29 -1 -40 -8 -48 -24 -8 -19 -18 -23 -55 -23 -58 0 -120 11
-120 20 0 7 27 18 55 24 6 1 17 5 25 8 39 16 60 16 58 1 -2 -9 3 -18 10 -20 7
-3 12 3 12 14 0 14 8 19 32 21 18 2 34 5 37 8 3 3 7 1 9 -4 2 -6 12 -8 22 -5z
m-630 -43 c0 -8 -4 -12 -10 -9 -5 3 -10 10 -10 16 0 5 5 9 10 9 6 0 10 -7 10
-16z m360 -10 c0 -2 -7 -4 -15 -4 -8 0 -15 4 -15 10 0 5 7 7 15 4 8 -4 15 -8
15 -10z m260 -4 c-20 -13 -43 -13 -35 0 3 6 16 10 28 10 18 0 19 -2 7 -10z
m-660 -41 c0 -5 -4 -9 -10 -9 -5 0 -10 7 -10 16 0 8 5 12 10 9 6 -3 10 -10 10
-16z m-159 -19 c5 0 9 4 9 9 0 5 7 12 16 15 19 7 64 -19 64 -37 -1 -17 -39
-42 -93 -61 -69 -23 -79 -22 -67 10 11 27 0 58 -22 67 -8 4 -7 6 4 6 9 1 25
-13 35 -29 19 -33 46 -36 51 -7 2 12 -3 17 -18 17 -18 0 -19 2 -8 23 10 19 13
20 16 5 2 -10 8 -18 13 -18z m533 5 c-6 -16 -24 -21 -24 -7 0 11 11 22 21 22
5 0 6 -7 3 -15z m45 -27 c1 -5 -3 -8 -9 -8 -5 0 -10 12 -9 28 0 24 1 25 9 7 5
-11 9 -23 9 -27z m30 12 c12 -36 26 -40 17 -5 -7 27 3 32 22 13 9 -9 12 -9 12
0 0 7 16 12 41 12 32 0 40 -3 36 -15 -9 -22 12 -29 32 -11 16 15 20 13 50 -18
19 -19 30 -39 26 -46 -5 -8 -11 -6 -20 7 -7 10 -11 21 -9 24 2 4 -5 14 -15 23
-11 10 -21 13 -25 8 -10 -17 1 -63 19 -76 28 -21 10 -37 -23 -20 -15 7 -33 14
-39 14 -7 0 -13 5 -13 10 0 6 7 10 15 10 8 0 15 5 15 10 0 14 -37 13 -42 -2
-6 -18 -38 -1 -38 21 0 11 -4 23 -10 26 -5 3 -10 -3 -10 -13 0 -29 -37 -16
-55 19 -17 33 -18 39 -6 39 5 0 14 -13 20 -30z m-239 16 c0 -3 -4 -8 -10 -11
-5 -3 -10 -1 -10 4 0 6 5 11 10 11 6 0 10 -2 10 -4z m-460 -41 c0 -8 -6 -14
-12 -12 -9 1 -13 -14 -13 -51 0 -61 10 -75 26 -39 8 19 26 29 75 42 35 9 67
21 70 26 7 12 44 11 44 -1 0 -5 4 -10 9 -10 5 0 7 9 4 20 -6 23 5 26 31 7 17
-12 16 -15 -15 -41 -21 -18 -40 -26 -56 -23 -25 5 -32 -10 -8 -19 22 -9 18
-21 -7 -27 -29 -8 -50 10 -42 36 4 14 2 18 -7 15 -15 -5 -17 -32 -5 -60 5 -11
1 -18 -13 -23 -12 -3 -21 -13 -21 -21 0 -8 -4 -12 -10 -9 -5 3 -10 15 -10 26
0 12 -5 19 -12 16 -7 -2 -12 -10 -10 -16 1 -6 -6 -11 -16 -11 -10 0 -23 -5
-30 -12 -9 -9 -15 -9 -24 0 -9 9 -8 15 5 24 10 8 14 18 9 26 -12 18 -42 4 -35
-16 3 -10 -4 -7 -16 8 -16 19 -20 33 -15 60 6 35 50 93 65 84 4 -2 10 0 14 6
9 15 25 12 25 -5z m394 9 c9 -3 16 -12 16 -20 0 -20 -13 -17 -28 6 -13 22 -12
23 12 14z m107 -13 c-12 -22 -61 -35 -61 -16 0 8 8 11 18 8 10 -2 24 3 31 11
18 22 24 20 12 -3z m159 -38 c0 -13 -3 -13 -15 -3 -8 7 -15 16 -15 21 0 5 7 6
15 3 8 -4 15 -13 15 -21z m129 -38 c36 -18 51 -31 51 -45 0 -30 31 -25 63 10
28 29 47 38 47 22 0 -4 -9 -13 -21 -20 -14 -9 -18 -19 -14 -35 4 -15 3 -18 -3
-8 -8 10 -12 10 -23 -5 -8 -11 -25 -19 -39 -19 -21 0 -25 5 -26 33 -1 42 -12
52 -30 27 -9 -12 -11 -21 -4 -23 5 -2 8 -8 5 -12 -6 -10 -125 76 -125 89 0 4
5 12 11 18 13 13 31 8 108 -32z m-448 -24 c-6 -11 -11 -43 -11 -72 0 -57 -19
-131 -31 -123 -14 8 -49 -29 -49 -53 0 -29 -16 -30 -23 -2 -3 12 -11 19 -18
17 -18 -6 -23 -28 -6 -28 7 0 14 -7 14 -15 0 -10 -6 -13 -19 -9 -10 3 -18 0
-18 -6 0 -6 -5 -8 -11 -4 -6 3 -8 15 -5 26 2 12 -2 27 -10 35 -14 15 -18 11
-15 -19 1 -10 -2 -18 -8 -18 -15 0 -23 34 -15 67 12 56 16 63 31 63 11 0 14 6
10 21 -4 16 7 35 46 76 50 53 84 79 93 70 6 -6 -24 -74 -35 -81 -5 -4 -12 -19
-16 -35 -3 -16 -13 -35 -21 -42 -8 -6 -14 -20 -14 -30 0 -11 -7 -19 -15 -19
-8 0 -15 -7 -15 -15 0 -25 24 -16 45 18 11 18 29 53 39 80 10 26 22 47 27 47
5 0 9 7 9 15 0 9 7 18 15 21 8 4 15 14 15 23 0 10 3 21 7 25 13 12 15 -12 4
-33z m312 -14 c20 -19 37 -39 37 -45 0 -7 9 -12 19 -12 34 0 51 -12 51 -34 0
-12 -5 -27 -10 -32 -7 -7 -6 -20 4 -39 13 -24 16 -26 22 -12 3 10 4 26 1 37
-7 26 22 35 39 13 11 -16 10 -20 -11 -36 -14 -10 -25 -25 -25 -33 0 -18 -44
-18 -59 0 -10 11 -8 16 5 24 15 8 13 13 -17 44 -58 57 -109 124 -109 142 0 23
10 20 53 -17z m-233 -12 c12 -15 7 -46 -7 -44 -22 4 -23 -3 -4 -18 19 -15 22
-31 27 -112 5 -102 9 -115 30 -107 7 3 19 -1 26 -8 13 -12 22 -15 73 -19 14
-1 25 -4 25 -7 0 -6 -39 -32 -62 -42 -15 -6 -16 -5 -6 12 7 10 9 22 6 26 -11
10 -28 -6 -28 -27 0 -14 -7 -19 -27 -19 l-27 0 22 16 c27 19 28 41 2 48 -11 3
-29 9 -40 12 -15 4 -18 2 -14 -11 4 -10 14 -15 25 -12 11 3 19 1 19 -4 0 -5
-4 -9 -10 -9 -5 0 -10 -7 -10 -16 0 -31 -26 10 -54 86 -22 60 -26 84 -21 122
5 38 10 46 23 41 14 -5 15 -3 5 8 -18 19 -17 99 1 99 7 0 19 -7 26 -15z m59
-15 c12 17 8 21 54 -58 42 -71 44 -80 21 -78 -9 0 -19 -5 -22 -13 -3 -10 2
-12 21 -7 17 4 27 1 31 -9 3 -8 0 -14 -6 -12 -7 1 -14 -6 -16 -15 -4 -21 23
-25 31 -5 3 6 6 -5 6 -25 1 -30 -3 -38 -17 -38 -10 0 -23 -5 -30 -12 -9 -9
-15 -9 -24 0 -9 9 -8 15 5 25 17 12 17 14 -2 34 -13 14 -18 28 -14 39 5 14 3
16 -11 11 -10 -4 -20 -7 -22 -7 -12 0 -2 -35 13 -46 22 -15 14 -25 -14 -18
-13 4 -20 11 -16 20 3 8 1 14 -3 14 -5 0 -10 39 -11 88 -1 48 -5 98 -8 112 -6
24 -6 24 9 5 13 -17 17 -18 25 -5z m191 -115 c-6 -7 0 -29 15 -62 21 -43 28
-50 49 -46 27 5 46 -15 25 -27 -15 -10 -62 12 -98 44 -29 26 -91 159 -91 195
1 24 4 22 55 -33 36 -40 51 -63 45 -71z m-655 56 c10 -17 -12 -21 -25 -6 -10
12 -10 15 3 15 9 0 18 -4 22 -9z m845 -116 c0 -9 -11 -27 -25 -41 -21 -21 -27
-23 -39 -12 -12 11 -10 13 9 16 15 2 25 12 29 28 7 26 26 33 26 9z"/>
<path d="M927 1453 c-16 -15 -5 -31 25 -37 40 -8 47 -1 20 24 -22 21 -34 24
-45 13z"/>
<path d="M946 1401 c-4 -7 -5 -15 -2 -18 9 -9 19 4 14 18 -4 11 -6 11 -12 0z"/>
<path d="M800 1335 c-10 -13 -9 -15 9 -15 12 0 21 6 21 15 0 8 -4 15 -9 15 -5
0 -14 -7 -21 -15z"/>
<path d="M942 1333 c5 -25 28 -28 28 -4 0 12 -6 21 -16 21 -9 0 -14 -7 -12
-17z"/>
<path d="M927 1304 c-8 -8 3 -34 14 -34 5 0 9 9 9 20 0 19 -11 26 -23 14z"/>
<path d="M849 1298 c-1 -2 -2 -18 -4 -35 -2 -23 2 -33 11 -33 16 0 20 55 4 65
-5 3 -10 5 -11 3z"/>
<path d="M1176 1355 c-15 -12 -17 -18 -8 -27 9 -9 13 -7 18 6 5 12 10 14 20 5
7 -6 19 -7 25 -3 9 5 7 11 -6 21 -23 16 -25 16 -49 -2z"/>
<path d="M435 1341 c-7 -12 12 -24 25 -16 11 7 4 25 -10 25 -5 0 -11 -4 -15
-9z"/>
<path d="M516 1343 c-11 -11 -6 -23 9 -23 8 0 15 4 15 9 0 13 -16 22 -24 14z"/>
<path d="M486 1323 c-11 -11 -6 -23 9 -23 8 0 15 4 15 9 0 13 -16 22 -24 14z"/>
<path d="M420 1280 c0 -11 7 -20 15 -20 8 0 15 9 15 20 0 11 -7 20 -15 20 -8
0 -15 -9 -15 -20z"/>
<path d="M510 1275 c0 -9 5 -15 10 -13 12 4 11 16 -1 24 -5 3 -9 -2 -9 -11z"/>
<path d="M473 1258 c-10 -12 -10 -20 0 -41 14 -32 37 -36 37 -7 0 11 -4 20 -9
20 -5 0 -11 10 -13 22 -3 18 -5 19 -15 6z"/>
<path d="M620 1255 c0 -8 5 -15 10 -15 6 0 10 7 10 15 0 8 -4 15 -10 15 -5 0
-10 -7 -10 -15z"/>
<path d="M1193 1208 c2 -7 7 -13 12 -13 5 0 10 6 13 13 2 6 -4 12 -13 12 -9 0
-15 -6 -12 -12z"/>
<path d="M430 1070 c0 -11 40 -34 47 -26 3 3 3 12 0 21 -7 16 -47 21 -47 5z"/>
<path d="M355 1000 c3 -5 10 -10 16 -10 5 0 9 5 9 10 0 6 -7 10 -16 10 -8 0
-12 -4 -9 -10z"/>
<path d="M430 932 c0 -14 23 -32 40 -31 10 0 11 2 3 6 -7 2 -13 11 -13 19 0 8
-7 14 -15 14 -8 0 -15 -4 -15 -8z"/>
<path d="M1217 1054 c-13 -13 -7 -24 14 -24 11 0 19 5 17 12 -5 14 -22 21 -31
12z"/>
<path d="M797 1033 c-13 -12 -7 -23 13 -23 11 0 20 7 20 15 0 15 -21 21 -33 8z"/>
<path d="M377 763 c-4 -3 -7 -17 -7 -30 0 -16 6 -23 19 -23 23 0 32 19 19 43
-9 18 -20 22 -31 10z"/>
<path d="M365 689 c-10 -15 1 -23 20 -15 9 3 13 10 10 16 -8 13 -22 13 -30 -1z"/>
<path d="M497 694 c-8 -8 1 -24 14 -24 5 0 9 7 9 15 0 15 -12 20 -23 9z"/>
<path d="M632 579 c3 -8 8 -13 11 -11 9 3 7 11 -5 18 -6 4 -8 0 -6 -7z"/>
<path d="M592 503 c5 -25 28 -28 28 -4 0 12 -6 21 -16 21 -9 0 -14 -7 -12 -17z"/>
<path d="M850 470 c0 -5 5 -10 10 -10 6 0 10 5 10 10 0 6 -4 10 -10 10 -5 0
-10 -4 -10 -10z"/>
<path d="M850 404 c0 -8 5 -12 10 -9 6 3 10 10 10 16 0 5 -4 9 -10 9 -5 0 -10
-7 -10 -16z"/>
<path d="M1693 290 c-28 -11 -20 -40 10 -40 16 0 18 3 9 12 -9 9 -7 14 6 24
20 15 7 17 -25 4z"/>
<path d="M1722 120 c0 -14 2 -19 5 -12 2 6 2 18 0 25 -3 6 -5 1 -5 -13z"/>
</g>
</svg>
