<?xml version="1.0" standalone="no"?>
<!DOCTYPE svg PUBLIC "-//W3C//DTD SVG 20010904//EN"
 "http://www.w3.org/TR/2001/REC-SVG-20010904/DTD/svg10.dtd">
<svg version="1.0" xmlns="http://www.w3.org/2000/svg"
 width="288.000000pt" height="346.000000pt" viewBox="0 0 288.000000 346.000000"
 preserveAspectRatio="xMidYMid meet">
<metadata>
Created by potrace 1.16, written by Peter Selinger 2001-2019
</metadata>
<g transform="translate(0.000000,346.000000) scale(0.100000,-0.100000)"
fill="#000000" stroke="none">
<path d="M1015 3410 c-3 -6 -11 -7 -17 -4 -17 11 2 -59 20 -73 34 -27 73 -3
75 47 2 33 0 35 -35 38 -20 2 -39 -2 -43 -8z"/>
<path d="M2580 3354 c-8 -2 -46 -5 -85 -8 -38 -3 -103 -8 -142 -12 -50 -5 -73
-3 -73 4 0 12 -682 6 -710 -6 -8 -4 -46 -7 -85 -8 -38 -1 -288 -4 -555 -7
-267 -4 -540 -9 -607 -12 -106 -5 -123 -3 -131 11 -8 14 -11 14 -26 -7 -13
-19 -18 -21 -25 -10 -5 7 -13 11 -19 7 -13 -8 -12 -289 1 -297 5 -4 4 -15 -3
-29 -8 -14 -10 -42 -7 -70 4 -29 1 -52 -6 -59 -8 -8 -8 -11 0 -11 19 0 25 -38
12 -75 -11 -28 -11 -40 -1 -55 16 -27 16 -140 0 -140 -10 0 -9 -3 1 -9 9 -6
12 -20 7 -47 -3 -22 -10 -100 -15 -174 -5 -74 -12 -151 -15 -170 -3 -19 -8
-91 -11 -160 -3 -69 -11 -181 -17 -250 -7 -69 -11 -145 -10 -170 7 -154 6
-692 -1 -697 -5 -3 -6 -62 -2 -132 5 -98 3 -140 -9 -191 -18 -73 -22 -250 -6
-250 6 0 11 26 12 58 l2 57 3 -49 c5 -58 -3 -99 -17 -91 -11 7 -12 0 -10 -140
1 -142 -18 -133 299 -129 141 1 261 3 266 4 6 1 64 -1 130 -5 292 -15 615 -18
615 -6 0 7 4 10 8 7 16 -9 262 -14 268 -5 3 5 100 8 217 8 117 -1 230 0 252 2
37 3 196 -5 362 -17 45 -3 74 -1 78 6 3 6 10 8 15 5 13 -8 204 -8 229 0 27 8
54 59 57 110 4 56 4 276 0 493 -1 100 1 185 6 188 8 5 4 393 -8 759 -7 233 -6
878 2 930 5 35 3 45 -11 53 -17 9 -17 19 -3 178 10 112 12 198 7 254 -4 47 -8
133 -8 192 -1 100 -12 142 -28 102 -6 -15 -7 -14 -15 5 -4 13 -17 25 -28 28
-11 3 -20 11 -20 18 0 19 -86 31 -140 19z m139 -69 c8 -8 16 -43 19 -86 l5
-72 -49 6 c-26 3 -50 10 -52 16 -2 6 -20 12 -40 12 -20 1 -50 5 -67 8 -28 7
-26 8 22 15 29 4 56 13 59 18 5 7 -3 8 -22 3 -66 -16 -101 -16 -108 1 -5 14
-1 16 24 11 17 -4 30 -2 30 3 0 6 33 10 75 10 42 0 75 4 75 10 0 13 -203 0
-213 -14 -6 -8 -10 -8 -13 0 -3 8 -18 9 -47 3 -59 -11 -67 -11 -67 6 0 16 60
31 85 21 9 -3 18 1 21 9 4 8 16 15 28 15 11 1 44 7 71 14 56 15 143 10 164 -9z
m-819 -28 c66 6 70 5 70 -15 0 -11 -5 -24 -11 -28 -8 -5 -8 -9 1 -14 18 -11 2
-30 -26 -30 -13 0 -24 -4 -24 -10 0 -5 11 -10 25 -10 18 0 25 -5 25 -20 0 -18
-7 -20 -77 -22 -92 -2 -93 -2 -160 7 -32 4 -53 2 -58 -4 -7 -12 -53 -5 -70 10
-5 5 -24 9 -41 9 -42 0 -56 20 -15 21 46 1 81 1 84 -1 3 -2 157 -3 210 -1 21
0 36 5 33 10 -4 5 -58 8 -121 8 -63 -1 -115 1 -115 5 0 5 5 8 12 8 6 0 8 3 5
7 -4 3 -19 0 -33 -7 -22 -12 -27 -12 -34 0 -7 12 -12 12 -22 2 -6 -6 -27 -12
-46 -12 -19 0 -31 -4 -27 -10 3 -5 2 -10 -4 -10 -5 0 -11 4 -13 9 -1 5 -61 11
-133 13 l-130 3 -3 33 -3 32 68 0 c180 1 415 12 478 23 55 10 72 10 78 0 5 -8
28 -10 77 -6z m472 12 c-13 -5 -48 -10 -78 -11 -29 -1 -54 -5 -54 -9 0 -4 -34
-10 -75 -14 -41 -4 -78 -11 -81 -17 -5 -8 7 -9 37 -4 112 20 214 34 218 31 8
-8 -12 -25 -29 -25 -10 0 -22 -5 -26 -11 -6 -11 24 -9 137 7 22 3 40 1 44 -6
10 -16 1 -22 -29 -22 -14 0 -23 -4 -20 -9 3 -5 -9 -9 -25 -9 -17 0 -31 4 -31
8 0 5 -19 7 -42 6 -24 -2 -43 -4 -43 -4 0 -1 -33 -3 -73 -5 -41 -2 -70 1 -66
6 3 5 20 10 37 10 18 1 25 3 17 5 -19 6 -159 -11 -182 -21 -16 -6 -18 -1 -18
38 l0 45 53 4 c28 3 106 6 172 7 66 1 121 4 124 7 2 2 16 4 30 3 26 0 26 0 3
-10z m-2068 -43 l81 -1 3 -45 c4 -61 22 -77 22 -19 0 70 4 72 132 77 62 2 110
1 105 -4 -4 -4 -26 -7 -48 -5 -25 1 -48 -4 -58 -13 -9 -8 -27 -17 -41 -19 -14
-3 18 -4 70 -1 52 2 120 9 150 15 30 6 96 13 145 15 l90 3 -60 -14 c-33 -8
-114 -22 -180 -31 -66 -9 -124 -21 -130 -26 -12 -11 28 -6 235 28 80 13 152
27 160 31 8 4 54 9 103 12 l87 6 0 -32 c0 -31 -2 -32 -57 -42 -32 -6 -80 -17
-108 -25 -27 -7 -99 -15 -160 -16 -60 -1 -123 -3 -140 -5 -62 -9 -198 -3 -206
8 -3 5 -21 4 -40 -1 -28 -8 -30 -10 -10 -11 13 -1 22 -3 19 -6 -6 -6 -206 -38
-233 -37 -18 1 -34 -13 -35 -30 0 -15 61 -8 66 7 4 8 15 15 26 15 12 0 16 -4
12 -11 -4 -7 -1 -10 7 -7 8 3 13 11 11 18 -2 8 5 11 20 7 13 -3 75 0 138 7
102 12 116 12 128 -2 11 -14 12 -14 12 1 0 14 10 17 60 17 53 0 60 -2 60 -20
0 -25 -19 -34 -110 -50 -41 -7 -95 -18 -120 -25 l-45 -14 55 6 c30 3 57 5 60
5 29 0 40 -4 40 -15 0 -9 -25 -18 -72 -26 -40 -7 -86 -21 -103 -31 -16 -10
-36 -15 -44 -12 -8 3 -11 0 -7 -7 5 -7 -1 -11 -14 -11 -12 0 -30 -5 -41 -10
-13 -7 -19 -7 -19 0 0 5 8 10 18 11 10 0 12 3 5 6 -7 2 -13 14 -14 26 l0 22
-16 -22 c-8 -13 -22 -23 -29 -23 -8 0 -14 -5 -14 -11 0 -5 5 -7 10 -4 6 3 10
1 10 -4 0 -6 -8 -10 -17 -9 -40 3 -57 -5 -23 -11 24 -5 34 -11 31 -21 -2 -8
-5 -24 -6 -35 -1 -15 -10 -20 -35 -22 -48 -4 -50 -13 -3 -13 36 0 40 -2 36
-20 -3 -11 -10 -20 -15 -20 -5 0 -6 -4 -3 -10 3 -5 1 -10 -5 -10 -7 0 -10 -7
-6 -15 4 -10 -1 -15 -14 -15 -11 0 -20 -4 -20 -10 0 -5 7 -7 16 -3 10 4 22 0
28 -9 6 -9 19 -17 28 -19 32 -7 2 -31 -46 -36 -40 -5 -46 -3 -47 13 -7 119 -3
227 8 231 18 7 16 23 -2 23 -12 0 -14 26 -13 167 1 188 3 204 26 196 8 -4 52
-7 96 -7z m1939 -81 c-6 -18 87 -16 105 2 16 15 32 17 32 3 0 -5 11 -10 25
-10 44 0 27 -15 -23 -19 -120 -10 -213 -6 -222 9 -8 13 -10 12 -10 -2 0 -20
-44 -26 -55 -8 -8 13 -72 13 -77 0 -2 -5 -9 -6 -17 -1 -8 5 -12 15 -9 22 4 11
36 14 131 15 99 1 124 -1 120 -11z m315 4 c14 0 14 -2 2 -6 -8 -4 -21 -12 -28
-20 -16 -15 -46 -18 -37 -3 3 6 1 10 -4 10 -6 0 -11 -4 -11 -10 0 -5 -6 -10
-14 -10 -16 0 -31 18 -23 27 9 9 71 21 85 17 8 -2 21 -4 30 -5z m-1178 -13
c60 -4 141 -24 200 -48 14 -6 34 -12 45 -14 31 -5 128 -31 148 -39 17 -7 17
-8 -3 -22 -12 -8 -39 -37 -60 -65 -22 -27 -40 -45 -40 -39 0 20 49 90 70 101
11 6 18 15 15 21 -12 18 -36 9 -53 -21 -12 -22 -25 -30 -47 -31 -24 -1 -25 -3
-7 -6 22 -4 32 -23 12 -23 -6 0 -9 -6 -8 -12 2 -8 -7 -13 -22 -13 -21 0 -25 5
-25 28 1 32 -6 34 -24 8 -12 -16 -19 -17 -42 -9 -28 9 -41 38 -18 38 5 0 7 5
4 11 -5 6 -11 4 -19 -6 -7 -9 -31 -18 -56 -20 -25 -3 -37 -2 -27 1 23 7 22 24
-3 24 -11 0 -20 -4 -20 -8 0 -10 -51 -28 -101 -36 -34 -6 -37 -5 -42 23 -3 16
-3 60 0 99 6 70 6 71 32 67 14 -2 55 -6 91 -9z m-176 -11 c-4 -8 -14 -15 -24
-15 -10 0 -23 -7 -30 -15 -6 -8 -50 -26 -96 -40 -46 -14 -84 -30 -84 -36 0 -7
7 -8 18 -4 25 10 184 66 202 72 13 3 15 -8 14 -64 0 -80 -6 -93 -39 -93 -14 0
-66 -13 -117 -29 -114 -36 -158 -45 -158 -34 0 5 12 14 28 21 24 10 24 11 2 5
-14 -3 -29 -7 -35 -9 -5 -1 -29 22 -52 51 l-43 55 56 16 c39 11 54 20 50 30
-6 16 15 29 64 38 20 3 43 15 53 26 11 13 30 20 54 21 21 1 49 5 63 9 44 14
80 12 74 -5z m-307 -28 c-3 -7 -9 -11 -15 -10 -6 2 -30 -4 -53 -12 -51 -19
-59 -19 -59 -1 0 9 18 17 48 23 71 13 84 13 79 0z m343 4 c0 -6 -4 -13 -10
-16 -5 -3 -10 1 -10 9 0 9 5 16 10 16 6 0 10 -4 10 -9z m628 -15 c78 -2 144
-1 147 3 6 10 76 4 88 -8 7 -7 17 -7 29 0 10 5 23 7 29 4 5 -4 86 -7 180 -6
106 0 167 -3 164 -9 -4 -6 -17 -10 -31 -10 -14 0 -23 -4 -19 -10 3 -5 12 -7
19 -4 7 3 19 -2 26 -10 17 -22 20 -21 -250 -46 -239 -22 -327 -38 -145 -26
100 7 272 22 353 31 32 3 42 1 42 -10 0 -7 -4 -16 -9 -19 -11 -7 -152 -23
-346 -40 -142 -13 -151 -12 -174 5 -21 17 -22 19 -5 20 11 1 22 1 27 0 4 0 7
4 7 10 0 8 -14 10 -40 6 -25 -3 -43 -1 -48 6 -7 12 -31 28 -90 58 -18 10 -38
22 -45 28 -7 5 -26 11 -42 14 -16 2 -31 9 -33 15 -2 7 2 10 10 7 7 -2 77 -6
156 -9z m877 2 c2 -7 5 -50 8 -95 l4 -83 -44 0 c-26 0 -51 6 -59 15 -16 16
-99 21 -108 7 -3 -5 18 -7 47 -4 30 3 48 1 44 -4 -5 -5 -25 -10 -45 -10 -21
-1 -73 -4 -117 -7 -77 -6 -73 -2 10 8 29 4 41 11 42 23 1 9 3 39 4 65 2 45 4
48 25 43 30 -8 114 4 114 16 0 6 -29 8 -71 4 -52 -4 -69 -2 -66 7 2 7 34 14
83 18 43 3 89 6 102 7 12 1 24 -4 27 -10z m-2025 -79 c0 -5 -13 -15 -30 -20
-16 -6 -30 -15 -30 -20 0 -5 -4 -9 -10 -9 -5 0 -7 7 -4 15 4 9 1 15 -7 15 -24
0 5 18 36 23 17 2 33 5 38 6 4 0 7 -4 7 -10z m1144 -34 c15 -14 30 -25 34 -25
4 0 19 -11 33 -24 14 -13 35 -27 47 -30 29 -10 129 -109 114 -114 -7 -2 -12
-8 -12 -14 0 -5 8 -7 18 -4 13 4 23 -1 32 -19 7 -13 22 -27 32 -31 16 -5 17
-8 7 -21 -10 -12 -10 -16 1 -23 8 -5 12 -11 10 -13 -30 -23 -71 -47 -83 -47
-8 0 -17 -6 -20 -14 -3 -7 -19 -18 -35 -24 -29 -10 -30 -9 -63 50 -19 33 -49
73 -67 89 -36 32 -39 27 33 42 11 3 -5 5 -36 6 -48 1 -59 5 -85 32 l-29 32 27
-5 c15 -3 33 -1 40 4 8 6 -3 8 -33 5 -35 -3 -52 0 -70 15 -13 10 -34 23 -47
28 l-22 10 26 40 c17 25 38 43 58 49 17 5 24 10 16 10 -13 1 -13 2 0 11 24 16
45 12 74 -15z m-1036 -75 c20 -21 21 -26 8 -28 -18 -4 -88 67 -79 81 5 9 33
-11 71 -53z m-273 30 c-3 -5 -12 -10 -18 -10 -7 0 -6 4 3 10 19 12 23 12 15 0z
m100 -12 c-7 -36 -27 -48 -21 -13 6 38 4 35 15 35 6 0 8 -10 6 -22z m1815 14
c0 -8 -267 -42 -335 -43 -22 0 -49 -4 -60 -8 -34 -14 29 -23 106 -15 52 5 69
4 69 -6 0 -9 4 -9 13 -2 6 5 95 13 197 16 102 4 211 9 243 12 l57 6 0 -116 0
-116 -52 -2 c-29 -1 -87 -3 -128 -4 -64 -2 -138 -9 -321 -30 -32 -3 -37 -1
-52 31 -16 33 -16 35 1 36 13 0 12 2 -5 9 -21 8 -43 38 -43 58 0 5 24 10 53
11 67 3 85 5 94 15 7 7 -125 -1 -152 -9 -6 -1 -16 4 -23 11 -10 11 -10 14 0
15 9 0 8 2 -2 6 -8 3 -36 25 -61 48 l-46 43 49 6 c27 4 79 9 116 13 37 3 101
9 142 13 107 10 140 11 140 2z m-1957 -9 c-7 -2 -19 -2 -25 0 -7 3 -2 5 12 5
14 0 19 -2 13 -5z m274 -59 c29 -31 53 -62 53 -70 0 -16 -29 -33 -50 -28 -9 3
-10 2 -2 -2 20 -9 3 -24 -27 -24 -16 0 -35 -8 -42 -17 -13 -15 -12 -16 9 -11
29 8 28 -7 -2 -35 -14 -13 -28 -35 -32 -50 -4 -18 -18 -33 -38 -42 -19 -8 -24
-14 -13 -14 9 -1 17 -5 17 -10 0 -8 -21 -73 -25 -79 -1 -1 -15 4 -31 13 -16 8
-35 15 -41 15 -7 0 -13 7 -13 15 0 12 -4 14 -17 7 -11 -6 -25 -6 -39 0 -19 9
-21 15 -13 35 14 37 33 52 51 42 18 -10 48 -2 48 12 0 5 -15 9 -34 9 -38 0
-41 11 -13 53 9 15 17 31 17 37 0 15 35 47 59 55 12 3 21 11 21 16 0 12 -17
12 -25 -1 -3 -5 -10 -10 -14 -10 -5 0 21 31 58 70 36 38 70 70 76 70 5 0 33
-25 62 -56z m589 21 c130 -34 248 -92 260 -127 3 -10 20 -39 38 -65 39 -57
106 -184 106 -201 0 -7 4 -20 10 -30 21 -37 43 -98 45 -122 0 -14 5 -36 9 -48
7 -21 5 -23 -11 -18 -10 3 -28 -1 -39 -9 -18 -13 -17 -14 17 -15 l36 0 2 -112
c4 -178 8 -245 15 -257 4 -6 9 -57 12 -112 2 -56 7 -106 11 -112 11 -18 15
-154 5 -189 -7 -26 -6 -39 4 -53 8 -10 14 -31 14 -47 0 -25 -4 -28 -35 -29
-19 -1 -47 -2 -62 -3 -16 -1 -38 -8 -51 -17 -23 -16 -22 -16 18 -15 22 0 40 4
40 8 0 5 4 8 10 8 5 0 7 -7 4 -15 -8 -21 34 -20 58 2 10 9 19 12 19 7 7 -47 8
-62 3 -82 -3 -14 -12 -22 -24 -22 -11 0 -20 -5 -20 -11 0 -6 9 -8 20 -4 30 10
24 -10 -7 -22 l-28 -11 33 -1 c26 -1 32 -5 32 -22 0 -13 -5 -19 -13 -16 -8 3
-14 -3 -14 -14 -1 -12 5 -19 15 -19 15 -1 15 -2 -1 -14 -27 -21 -31 -56 -6
-56 12 0 19 -5 17 -12 -3 -7 -27 -11 -71 -9 -42 1 -67 -2 -67 -8 0 -6 -17 -11
-37 -11 -28 0 -34 3 -23 10 13 8 12 10 -3 10 -10 0 -37 -4 -60 -9 -59 -14
-187 -20 -187 -10 0 5 9 9 20 9 11 0 20 5 20 10 0 16 -28 12 -48 -7 -11 -12
-37 -19 -75 -21 -71 -5 -75 12 -7 28 60 14 76 31 23 24 l-38 -5 34 16 c19 8
43 13 54 9 15 -5 19 -3 14 9 -5 14 22 31 63 39 8 2 17 6 20 9 5 7 110 57 185
89 22 9 58 20 80 24 58 10 75 16 75 27 0 5 -7 9 -15 9 -8 0 -15 -4 -15 -10 0
-5 -4 -10 -9 -10 -5 0 -7 9 -4 20 4 14 0 20 -11 20 -9 0 -15 -5 -14 -12 2 -6
-15 -19 -38 -27 -23 -9 -47 -21 -55 -27 -8 -6 -25 -15 -38 -19 -14 -4 -86 -37
-160 -72 -75 -36 -146 -69 -159 -74 -14 -5 -20 -14 -16 -21 5 -8 2 -9 -9 -5
-9 3 -19 2 -22 -3 -7 -12 -55 -13 -55 -2 0 12 39 33 94 49 38 12 46 17 33 22
-14 5 8 17 77 45 53 21 96 42 96 47 0 5 -10 5 -22 0 -13 -5 -75 -30 -138 -56
-131 -53 -252 -96 -257 -92 -5 5 109 55 142 62 l30 7 -25 10 c-24 9 -24 10 20
28 25 10 54 21 65 25 13 5 16 9 7 12 -11 4 -30 -1 -127 -40 -16 -7 -58 -27
-92 -45 -76 -38 -85 -39 -100 -7 -8 17 -8 25 0 25 6 0 8 2 5 5 -3 3 -18 1 -34
-5 -27 -11 -28 -12 -11 -25 18 -13 18 -14 -2 -31 -23 -20 -19 -34 12 -34 20
-1 20 -2 4 -11 -35 -20 -52 -7 -49 36 2 22 8 44 13 49 5 6 9 23 9 38 0 15 5
28 10 28 6 0 10 -4 10 -10 0 -5 5 -10 11 -10 6 0 9 6 6 14 -3 8 -1 17 6 20 7
4 -3 4 -21 1 -19 -3 -31 -1 -27 5 10 15 -63 23 -126 13 -33 -5 -62 -7 -64 -3
-2 3 5 21 16 39 16 27 22 31 35 20 12 -9 13 -9 9 2 -3 10 3 14 20 15 14 1 25
-2 25 -7 0 -5 8 -9 18 -9 16 1 16 1 -1 14 -14 11 -15 15 -5 20 7 3 0 2 -17 -1
-30 -6 -30 -6 -12 15 11 11 24 19 31 16 8 -3 12 11 14 41 1 41 -1 45 -21 45
-13 0 -32 -7 -43 -15 -10 -8 -22 -15 -26 -15 -17 0 -6 68 17 109 14 23 25 47
25 52 0 14 -17 11 -34 -6 -13 -13 -16 -11 -27 23 -15 47 -27 62 -49 62 -22 0
-26 -12 -25 -67 1 -29 8 -50 23 -66 12 -13 22 -32 22 -43 -1 -18 -1 -18 -12 1
-24 44 -80 71 -90 43 -7 -20 3 -88 13 -88 5 0 9 -7 9 -15 0 -8 11 -22 25 -31
14 -9 25 -23 25 -32 0 -11 -10 -6 -34 17 -27 27 -40 32 -60 27 -14 -3 -30 -15
-36 -26 -6 -11 -15 -20 -21 -20 -6 0 -7 5 -4 10 3 6 1 10 -5 10 -6 0 -10 -8
-8 -17 2 -11 11 -17 23 -16 11 2 27 -2 35 -7 13 -8 13 -11 1 -19 -18 -12 -3
-34 18 -26 9 4 31 9 49 12 32 5 32 4 32 -37 0 -37 -2 -42 -20 -37 -10 3 -20 1
-22 -4 -2 -4 -18 -9 -36 -11 -46 -3 -65 -27 -57 -72 4 -20 11 -39 16 -42 5 -3
9 -10 9 -16 0 -6 -3 -8 -7 -5 -3 4 -13 1 -22 -6 -39 -34 -47 -28 -47 34 1 49
4 59 19 59 24 0 22 16 -3 23 -19 5 -20 13 -20 104 0 54 -2 127 -5 163 -6 77 1
120 20 120 8 0 17 5 21 12 5 8 0 9 -14 6 -21 -6 -22 -3 -22 69 0 57 3 72 13
67 9 -6 9 -5 0 7 -9 11 -11 38 -7 85 9 118 4 111 81 110 59 -1 69 -4 73 -21 5
-16 16 -21 54 -23 27 -2 53 1 58 6 6 6 -6 10 -31 10 -23 0 -46 4 -52 7 -9 6
-7 37 7 88 4 11 0 17 -11 17 -9 0 -19 -9 -22 -19 -3 -11 -11 -17 -18 -15 -7 3
-16 1 -20 -5 -3 -6 -1 -11 4 -11 6 0 11 -4 11 -10 0 -13 -51 -13 -87 1 l-28
11 30 24 c17 14 45 32 63 40 33 17 45 38 15 27 -15 -5 -14 -3 2 10 15 12 16
16 5 16 -17 0 -60 -33 -60 -46 0 -4 -11 -16 -24 -25 -23 -17 -24 -17 -29 10
-2 15 -1 52 5 82 12 71 11 109 -2 125 -6 7 -7 15 -2 17 15 6 52 88 52 116 0
15 5 34 10 42 8 13 13 13 42 -2 18 -9 52 -19 76 -22 37 -5 42 -3 42 14 0 10 5
22 10 25 6 3 10 21 10 39 0 33 17 49 65 59 11 3 4 5 -16 6 -26 1 -42 -6 -60
-25 -13 -14 -23 -29 -21 -32 1 -4 0 -19 -4 -34 -5 -24 -10 -28 -42 -28 -20 0
-46 7 -56 15 -10 8 -24 12 -29 8 -6 -4 -8 0 -4 11 4 10 1 19 -8 22 -11 4 -13
14 -8 33 9 36 74 160 106 203 15 19 27 38 27 42 0 3 11 19 24 34 14 15 33 37
44 50 11 12 24 22 31 22 6 0 11 4 11 9 0 10 117 69 175 87 55 18 212 17 281
-1z m234 11 c0 -9 -30 -14 -35 -6 -4 6 3 10 14 10 12 0 21 -2 21 -4z m-1120
-23 c-8 -4 -19 -12 -25 -18 -5 -7 -28 -15 -50 -19 -22 -3 -55 -8 -72 -12 -28
-6 -33 -4 -33 13 0 16 11 21 63 30 69 11 140 15 117 6z m1020 -3 c0 -5 -2 -10
-4 -10 -3 0 -8 5 -11 10 -3 6 -1 10 4 10 6 0 11 -4 11 -10z m40 0 c13 -8 13
-10 -2 -10 -9 0 -20 5 -23 10 -8 13 5 13 25 0z m-975 -10 c-3 -5 -11 -10 -16
-10 -6 0 -7 5 -4 10 3 6 11 10 16 10 6 0 7 -4 4 -10z m298 -18 c10 -10 14 -22
10 -25 -11 -12 -23 -8 -23 8 0 8 -4 15 -10 15 -5 0 -10 5 -10 10 0 16 15 12
33 -8z m-437 -30 c-14 -17 -15 -23 -2 -59 13 -36 12 -40 -5 -51 -10 -7 -30
-12 -44 -12 -14 0 -25 -4 -25 -10 0 -5 6 -7 14 -4 7 3 16 -1 19 -10 8 -21 -16
-26 -58 -12 -23 8 -32 16 -24 19 9 4 7 6 -6 6 -17 1 -18 3 -5 11 12 8 13 12 2
19 -11 6 -10 11 3 25 9 9 13 16 8 16 -5 0 -8 12 -7 28 1 26 4 27 64 34 34 4
65 10 68 13 14 14 13 3 -2 -13z m134 0 c0 -5 -10 -17 -22 -28 -19 -15 -20 -16
-9 -1 12 16 9 22 -12 18 -5 -1 -6 3 -2 9 7 12 45 14 45 2z m1150 -2 c3 -1 -5
-5 -18 -11 -20 -8 -62 2 -62 15 0 3 70 0 80 -4z m55 -30 c3 -5 -1 -10 -9 -10
-8 0 -18 5 -21 10 -3 6 1 10 9 10 8 0 18 -4 21 -10z m50 -30 c3 -5 2 -10 -4
-10 -5 0 -13 5 -16 10 -3 6 -2 10 4 10 5 0 13 -4 16 -10z m-1315 -20 c0 -3 -5
-12 -10 -20 -9 -13 -11 -13 -20 0 -14 22 -12 26 10 26 11 0 20 -3 20 -6z
m2248 -132 l-3 -41 -104 -4 c-58 -2 -107 -6 -110 -8 -2 -3 44 -5 102 -5 l107
0 0 -29 c0 -24 -4 -28 -22 -24 -13 2 -59 -1 -103 -5 l-80 -9 105 -2 c94 -1
106 -3 106 -18 0 -16 -11 -18 -76 -18 -41 -1 -89 -4 -106 -7 l-31 -7 -8 91
c-4 50 -9 97 -12 104 -4 10 17 14 94 17 54 1 108 4 121 5 21 2 23 -1 20 -40z
m-588 7 c-7 -8 -17 -15 -22 -15 -6 0 -5 7 2 15 7 8 17 15 22 15 6 0 5 -7 -2
-15z m327 -7 c0 -13 3 -44 7 -70 6 -37 5 -48 -5 -48 -10 0 -10 -3 -1 -12 20
-20 14 -48 -10 -49 -13 0 -60 -4 -106 -7 l-82 -7 -10 35 c-6 19 -14 42 -19 50
-8 11 -3 18 17 27 l27 13 -27 -3 c-20 -3 -29 2 -37 20 -21 46 -16 51 67 58 42
4 82 8 87 10 6 2 29 4 51 4 37 1 42 -2 41 -21z m-2147 2 c-8 -5 -24 -9 -35 -9
-16 1 -16 2 5 9 35 11 48 11 30 0z m1540 0 c0 -5 -4 -10 -10 -10 -5 0 -10 5
-10 10 0 6 5 10 10 10 6 0 10 -4 10 -10z m-1520 -27 c1 -5 6 -14 12 -21 18
-22 0 -27 -108 -30 -99 -4 -104 -3 -104 16 0 17 8 22 48 27 26 3 67 10 92 14
45 9 56 7 60 -6z m1450 7 c0 -5 -2 -10 -4 -10 -3 0 -8 5 -11 10 -3 6 -1 10 4
10 6 0 11 -4 11 -10z m400 -9 c20 -38 13 -53 -21 -46 -24 6 -30 4 -27 -6 3 -9
16 -13 36 -11 36 4 41 -7 12 -26 -23 -14 -26 -32 -5 -32 9 0 12 6 9 15 -4 10
-2 13 8 10 18 -7 45 -62 57 -115 l9 -39 -57 -6 c-96 -10 -99 -14 -13 -12 77 2
101 -4 68 -16 -8 -3 -20 -15 -26 -26 -9 -18 -8 -20 7 -14 10 3 15 3 11 -2 -6
-6 -116 -33 -140 -35 -5 0 -8 8 -8 18 0 10 -6 26 -13 37 -16 22 -62 163 -60
183 0 6 -3 12 -7 12 -4 0 -13 14 -19 30 -10 30 -9 31 37 51 26 11 61 27 77 34
41 19 53 18 65 -4z m-1836 -76 c-4 -8 -14 -15 -23 -16 -76 -3 -125 -19 -58
-19 30 0 37 -4 37 -20 0 -11 -7 -20 -16 -20 -10 0 -12 -5 -7 -12 16 -26 11
-40 -20 -53 -27 -12 -29 -14 -9 -15 15 0 22 -6 22 -19 0 -14 -9 -20 -36 -23
-38 -4 -38 -3 -18 65 3 9 2 17 -3 17 -20 -1 -30 -18 -28 -48 1 -26 -3 -36 -19
-42 -14 -6 -16 -9 -5 -9 12 -1 14 -9 11 -31 -2 -16 -9 -30 -16 -30 -6 0 -5 -4
3 -9 8 -5 37 -7 64 -4 44 5 49 4 45 -13 -2 -15 -13 -20 -56 -22 -28 -2 -52 -7
-52 -13 0 -5 20 -8 46 -5 35 3 44 1 40 -9 -3 -8 3 -16 12 -18 10 -3 5 -5 -10
-6 -16 0 -28 -5 -28 -10 0 -5 11 -8 25 -5 24 4 25 3 25 -51 0 -52 1 -55 25
-55 18 0 23 4 19 15 -4 8 -1 15 6 15 6 0 10 -8 8 -17 -2 -12 -17 -21 -48 -26
-25 -5 -58 -12 -75 -17 -26 -7 -24 -8 23 -9 45 -1 52 -4 52 -21 0 -17 -7 -20
-42 -21 -24 -1 -54 -5 -68 -9 -17 -6 -1 -8 53 -7 78 2 92 -5 60 -29 -17 -13
-17 -13 0 -14 34 0 11 -25 -29 -31 -47 -8 -57 -4 -49 22 5 15 1 19 -19 19 -14
0 -26 -4 -26 -10 0 -5 5 -10 10 -10 20 0 9 -28 -12 -32 l-23 -4 -1 287 0 286
45 10 46 10 -47 2 -48 1 0 48 0 47 110 2 c94 3 109 1 104 -12z m111 5 c3 -5 2
-10 -4 -10 -5 0 -13 5 -16 10 -3 6 -2 10 4 10 5 0 13 -4 16 -10z m102 -25 c20
-8 34 -17 31 -20 -6 -6 -69 14 -82 26 -16 14 11 11 51 -6z m1268 -22 c3 -16
17 -49 30 -75 19 -38 21 -49 10 -58 -10 -8 -14 -3 -18 22 -2 18 -14 58 -26 88
-24 62 -24 63 -12 56 5 -3 12 -18 16 -33z m47 -5 c13 -24 22 -52 20 -62 -3
-15 -8 -11 -22 20 -39 86 -38 113 2 42z m-1325 -10 c27 -10 33 -17 33 -40 0
-22 -5 -28 -22 -29 l-23 -2 23 -4 c16 -3 22 -9 18 -20 -3 -8 -6 -44 -6 -79 0
-40 -4 -63 -10 -59 -5 3 -12 -6 -15 -20 -3 -14 -7 -36 -10 -48 -4 -20 -17 -28
-79 -45 -41 -12 -79 -22 -85 -22 -6 0 -10 17 -8 41 2 41 8 48 52 65 17 7 15 9
-12 12 -25 2 -33 8 -33 23 0 11 7 19 18 20 40 3 45 5 49 16 3 9 -4 11 -28 6
l-32 -6 7 59 c6 51 9 76 15 107 0 4 10 7 20 7 11 0 23 5 26 10 3 6 -3 10 -14
10 -20 0 -27 10 -16 22 7 7 88 -8 132 -24z m1368 12 c3 -5 1 -10 -4 -10 -6 0
-11 5 -11 10 0 6 2 10 4 10 3 0 8 -4 11 -10z m72 -32 c-3 -8 -6 -5 -6 6 -1 11
2 17 5 13 3 -3 4 -12 1 -19z m733 -8 c0 -5 -11 -10 -24 -10 -14 0 -28 5 -31
10 -4 6 7 10 24 10 17 0 31 -4 31 -10z m-797 -21 c-4 -13 -9 -17 -15 -11 -11
11 -3 32 12 32 4 0 6 -9 3 -21z m408 -14 c25 4 40 3 36 -1 -5 -5 -12 -9 -15
-10 -4 0 -20 -4 -36 -9 -28 -8 -46 4 -46 30 0 6 4 4 9 -4 6 -10 20 -11 52 -6z
m-312 -33 c0 -24 -1 -25 -9 -7 -12 28 -12 47 0 40 6 -3 10 -18 9 -33z m549 33
c-6 -6 -166 -35 -188 -34 -21 1 37 20 90 29 56 9 105 12 98 5z m144 -27 c-9
-9 -12 -7 -12 12 0 19 3 21 12 12 9 -9 9 -15 0 -24z m-2352 13 c0 -5 -7 -14
-15 -21 -12 -10 -15 -10 -15 2 0 8 3 18 7 21 9 10 23 9 23 -2z m2320 -22 c0
-5 -10 -9 -21 -9 -18 0 -19 2 -9 15 12 15 30 12 30 -6z m-70 1 c0 -5 -10 -10
-22 -10 -19 0 -20 2 -8 10 19 13 30 13 30 0z m-102 -7 c-10 -2 -26 -2 -35 0
-10 3 -2 5 17 5 19 0 27 -2 18 -5z m-2215 -43 c-3 -11 -10 -20 -15 -20 -5 0
-8 -8 -6 -17 2 -13 -6 -19 -35 -24 -42 -7 -49 -2 -40 29 4 18 13 22 44 22 33
0 39 3 39 21 0 11 4 18 9 15 5 -3 7 -15 4 -26z m2382 20 c3 -5 2 -10 -4 -10
-5 0 -13 5 -16 10 -3 6 -2 10 4 10 5 0 13 -4 16 -10z m-200 -10 c-38 -5 -90
-11 -114 -14 -27 -3 -48 -1 -55 7 -10 9 15 12 113 13 112 2 118 1 56 -6z m245
-40 c0 -47 -9 -60 -44 -60 -17 0 -38 4 -46 10 -12 7 -11 10 5 15 53 18 86 45
54 45 -8 0 -8 5 1 15 17 20 30 10 30 -25z m-112 25 c-11 -12 -68 -23 -73 -15
-5 8 15 13 64 19 8 0 12 -1 9 -4z m-629 -146 c13 -77 13 -136 1 -74 -5 22 -11
54 -15 70 -3 17 -8 55 -10 85 -4 47 -3 50 4 20 5 -19 14 -65 20 -101z m401
123 c0 -9 -71 -34 -78 -28 -5 5 49 34 66 35 6 1 12 -3 12 -7z m230 -23 c13 -7
13 -8 -1 -9 -9 0 -21 -11 -29 -24 -10 -20 -17 -23 -35 -16 -16 6 -41 3 -81
-12 -39 -14 -62 -18 -73 -11 -22 12 -51 5 -51 -13 0 -8 -4 -12 -10 -9 -15 9
-12 65 3 65 18 0 67 -24 67 -32 0 -5 4 -8 8 -8 5 0 9 7 9 14 0 8 -3 15 -6 14
-3 0 -16 3 -28 7 -37 12 -17 31 29 27 23 -3 38 0 35 5 -3 5 10 7 30 5 22 -3
33 -1 30 5 -8 12 80 5 103 -8z m-561 -56 c-1 -47 -1 -47 -9 -14 -7 31 -4 61 6
61 2 0 4 -21 3 -47z m-1739 17 c0 -5 -4 -10 -10 -10 -5 0 -10 5 -10 10 0 6 5
10 10 10 6 0 10 -4 10 -10z m1626 -58 c12 -58 8 -87 -7 -60 -12 22 -24 135
-13 125 5 -5 14 -34 20 -65z m324 58 c-14 -4 -41 -12 -60 -18 -32 -9 -30 -10
35 -11 87 -2 68 -19 -30 -28 -41 -4 -61 -9 -53 -14 14 -9 85 -5 129 6 23 6 28
3 38 -26 6 -17 11 -34 11 -35 0 -7 -41 -4 -58 4 -18 9 -127 -9 -117 -19 3 -4
19 -4 35 0 17 3 55 4 85 3 50 -4 55 -6 55 -28 0 -17 -6 -24 -20 -24 -11 0 -20
-5 -20 -11 0 -6 9 -9 19 -6 17 4 20 -2 23 -54 2 -45 0 -60 -12 -65 -13 -4 -12
-7 3 -15 9 -6 17 -19 17 -29 0 -18 -7 -20 -90 -20 -66 0 -90 3 -90 13 0 16 74
39 104 31 13 -3 27 -1 30 5 12 18 -100 17 -122 -2 -20 -16 -40 8 -25 32 6 10
8 22 3 27 -4 5 -10 54 -13 109 -3 55 -8 107 -11 116 -5 10 1 19 16 27 23 10
22 11 -6 11 -42 1 -28 9 29 16 27 3 51 8 54 10 2 3 18 5 35 4 30 -1 30 -1 6
-9z m450 -59 l0 -39 -75 -7 c-100 -9 -103 -21 -4 -17 l79 4 0 -26 c0 -24 -3
-26 -47 -27 -52 -1 -49 -4 10 -14 36 -6 37 -7 37 -49 0 -41 -2 -44 -31 -50
-46 -9 -69 -7 -44 4 18 8 17 9 -7 9 -19 1 -26 -3 -22 -13 4 -9 -6 -15 -33 -19
-21 -2 -45 -6 -53 -8 -8 -2 -14 1 -15 8 0 6 -3 15 -7 19 -19 18 -3 24 70 26
l77 2 -77 3 -78 4 0 29 c0 29 2 30 48 32 l47 2 -48 3 -48 4 7 57 c3 31 8 59 9
60 9 10 89 21 110 16 15 -4 25 -2 25 4 0 11 20 19 53 21 13 1 17 -7 17 -38z
m-230 -37 c0 -24 -13 -28 -102 -27 -10 0 -18 -5 -18 -10 0 -5 24 -7 53 -5 50
3 52 2 55 -24 3 -23 -1 -28 -20 -29 l-23 -2 23 -4 c30 -6 32 -53 2 -53 -11 0
-20 -4 -20 -10 0 -5 8 -10 19 -10 12 0 20 -9 23 -25 4 -17 1 -25 -8 -25 -8 0
-14 -5 -14 -11 0 -6 8 -8 18 -5 23 7 61 8 165 7 l87 -1 0 -40 c0 -45 11 -42
-140 -40 -47 1 -81 -2 -77 -7 5 -4 34 -9 65 -9 32 -1 78 -2 105 -3 l47 -1 0
-50 0 -50 -52 0 c-29 0 -71 -5 -93 -10 -25 -6 -44 -5 -51 1 -9 7 -15 5 -22 -6
-7 -14 -21 -16 -65 -14 -52 4 -56 2 -53 -16 2 -11 10 -19 17 -17 68 17 99 19
99 6 0 -7 -5 -16 -10 -19 -8 -5 -8 -11 -1 -19 11 -13 10 -74 -1 -92 -4 -6 -21
-9 -38 -6 -18 2 -30 0 -30 -7 0 -6 16 -11 36 -11 28 0 35 -3 32 -17 -2 -10
-16 -21 -33 -24 -30 -7 -30 -7 -3 -8 25 -1 46 -17 35 -27 -2 -2 -21 -5 -41 -6
-25 -1 -40 -7 -47 -20 -9 -16 -5 -18 38 -17 34 0 42 3 28 8 -21 9 24 15 193
27 58 5 82 3 82 -5 0 -6 -9 -11 -19 -11 -11 0 -23 -4 -26 -10 -3 -5 3 -10 14
-10 15 0 21 -6 21 -24 0 -13 -6 -26 -12 -28 -7 -2 -85 -4 -173 -4 l-160 1 -3
48 c-2 29 2 55 10 64 10 12 9 17 -3 23 -11 7 -16 28 -17 82 -1 40 -5 132 -8
203 -4 72 -6 144 -6 160 1 93 4 135 10 134 24 -4 33 4 12 10 -21 6 -26 15 -32
56 -4 27 -5 51 -3 53 6 6 119 19 128 14 4 -2 7 -14 7 -28z m-1950 -12 c0 -5
-12 -13 -27 -20 l-28 -12 28 5 c19 4 27 1 27 -9 0 -16 -45 -25 -80 -15 -14 4
-20 8 -15 8 6 1 4 5 -4 10 -10 7 0 13 35 24 61 18 64 19 64 9z m1419 -104 c-1
-60 -2 -61 -10 -23 -11 55 -11 85 1 85 6 0 10 -27 9 -62z m-1409 16 c0 -8 -28
-12 -85 -12 -78 1 -104 8 -72 22 24 10 157 1 157 -10z m-52 -46 c2 -5 10 -4
18 2 15 13 34 5 34 -15 0 -19 -72 -46 -88 -32 -7 5 -30 11 -50 12 -28 2 -38 7
-40 22 -2 16 3 20 34 21 20 1 39 4 42 7 8 7 46 -6 50 -17z m-158 -24 c0 -8 -7
-14 -15 -14 -10 0 -15 10 -15 26 0 22 2 25 15 14 8 -7 15 -19 15 -26z m90 -44
c17 -19 17 -19 53 0 20 11 41 20 47 20 18 0 11 -17 -12 -28 -23 -10 -23 -11 4
-11 26 -1 27 -3 22 -42 -3 -22 -7 -73 -7 -112 l-2 -71 -58 -2 c-75 -2 -81 -10
-16 -18 64 -9 56 -19 -22 -26 -54 -5 -77 1 -46 13 9 4 9 8 -2 15 -24 17 -1 32
50 32 27 0 49 4 49 9 0 6 -24 7 -55 4 -47 -5 -55 -3 -55 11 0 12 10 16 48 16
38 1 44 3 29 11 -11 6 -32 8 -48 5 -22 -4 -29 -2 -29 9 0 9 9 15 23 15 12 0
33 3 47 6 19 4 22 3 10 -5 -24 -16 -2 -26 26 -11 17 9 24 20 21 32 -3 10 -2
20 3 23 4 3 10 14 13 26 6 24 -4 23 -99 -3 -47 -13 -51 -13 -49 1 1 10 12 16
30 16 16 0 30 6 33 14 4 11 -2 12 -23 7 -33 -8 -44 4 -37 40 5 29 28 31 52 4z
m1577 -12 c-3 -7 -5 -2 -5 12 0 14 2 19 5 13 2 -7 2 -19 0 -25z m-1668 -78
c-2 -2 -20 -6 -39 -8 -19 -2 -44 -4 -55 -5 -11 -1 -22 3 -25 8 -3 6 18 13 48
16 29 4 56 10 60 14 7 7 18 -17 11 -25z m1651 18 c0 -7 3 -37 6 -65 4 -36 3
-53 -5 -53 -7 0 -11 20 -11 49 0 27 -3 56 -6 65 -3 9 -1 16 5 16 6 0 11 -6 11
-12z m-1800 -27 c0 -5 -11 -11 -25 -13 -17 -4 -25 -1 -25 8 0 8 11 14 25 14
14 0 25 -4 25 -9z m285 -15 c-11 -7 -37 -15 -58 -18 -54 -6 -41 16 14 23 24 3
48 7 54 7 5 1 1 -4 -10 -12z m-176 -15 c10 -6 2 -11 -27 -16 -43 -7 -67 0 -57
16 8 11 65 12 84 0z m48 -13 c-3 -8 -6 -5 -6 6 -1 11 2 17 5 13 3 -3 4 -12 1
-19z m-157 2 c0 -5 -8 -14 -17 -19 -16 -10 -16 -10 3 -11 18 0 20 -5 17 -50
-3 -40 -1 -50 12 -50 12 0 15 12 15 55 l0 55 33 -1 c17 0 41 -4 52 -9 17 -7
16 -9 -10 -10 -16 -1 -39 -5 -50 -10 -14 -6 -2 -9 43 -9 34 -1 62 -5 62 -11 0
-5 -11 -10 -25 -10 -25 0 -37 -19 -12 -21 6 0 -3 -5 -22 -12 -49 -17 -50 -35
-4 -33 34 1 38 -2 38 -24 0 -23 -5 -25 -72 -35 -99 -15 -102 -25 -7 -20 65 4
75 3 54 -7 -21 -9 -22 -12 -7 -15 38 -10 15 -30 -45 -41 l-63 -11 68 3 c37 1
67 0 67 -1 0 -2 -8 -16 -17 -31 -9 -15 -18 -28 -18 -29 -1 -2 -26 -5 -55 -8
-74 -8 -75 -15 -4 -16 55 -1 56 -2 24 -10 -19 -5 -46 -11 -60 -13 -14 -2 -37
-7 -52 -11 l-27 -7 6 154 c3 84 9 157 14 163 5 5 9 33 9 62 0 50 1 53 25 53
14 0 25 -4 25 -10z m2150 -3 c11 1 20 -2 20 -7 0 -6 -7 -10 -16 -10 -12 0 -14
-4 -7 -12 18 -23 25 -69 11 -67 -31 4 -46 -2 -51 -21 -6 -24 -1 -25 35 -6 l27
14 -1 -49 c-1 -34 -6 -53 -17 -59 -14 -8 -14 -9 2 -10 10 0 17 -8 17 -20 0
-12 -7 -20 -17 -21 -14 0 -13 -3 5 -11 12 -6 22 -17 22 -25 0 -7 -10 -18 -22
-23 l-23 -9 23 0 c26 -1 30 -21 5 -21 -10 0 -25 -5 -33 -11 -11 -8 -7 -9 18
-5 31 5 45 -7 20 -17 -10 -4 -9 -8 2 -16 22 -15 5 -13 -38 5 -23 9 -50 13 -70
9 -21 -4 -37 -1 -46 7 -13 13 -36 232 -36 340 0 43 2 47 28 50 15 2 48 0 74
-3 26 -3 56 -4 68 -2z m-258 -104 c4 -56 2 -71 -6 -62 -9 11 -17 119 -8 119 6
0 12 -26 14 -57z m652 -39 c3 -26 6 -75 6 -110 l0 -64 -42 -1 -43 -2 40 -6
c51 -8 25 -21 -43 -21 -26 -1 -66 -5 -90 -9 l-42 -8 5 96 c3 53 7 107 8 120 2
19 10 27 36 34 22 5 37 5 44 -2 14 -14 107 -15 107 -2 0 6 -21 12 -47 14 l-48
3 51 2 51 2 7 -46z m-2203 -29 c12 -11 -4 -75 -20 -79 -44 -13 -151 -18 -151
-7 0 6 17 11 38 11 20 0 44 5 52 10 11 7 2 10 -32 10 -26 0 -50 5 -53 10 -4 6
8 10 29 10 35 0 62 19 29 21 -13 1 -11 3 7 9 28 9 94 12 101 5z m-141 -15 c0
-5 -4 -10 -10 -10 -5 0 -10 5 -10 10 0 6 5 10 10 10 6 0 10 -4 10 -10z m1700
-37 c0 -16 -5 -35 -10 -43 -7 -11 -10 -4 -10 28 0 23 5 42 10 42 6 0 10 -12
10 -27z m-1291 -25 c1 -5 -3 -8 -9 -8 -5 0 -10 12 -9 28 0 24 1 25 9 7 5 -11
9 -23 9 -27z m-269 -68 c0 -32 -4 -39 -25 -44 -14 -4 -23 -11 -20 -16 4 -7 13
-6 26 0 17 10 19 7 17 -30 -2 -66 -25 -83 -109 -84 -39 -1 -72 1 -74 4 -11 18
19 31 80 34 40 2 71 8 73 15 4 13 -30 14 -101 2 -45 -8 -48 -7 -45 13 2 16 11
22 41 24 20 2 37 8 37 13 0 6 -15 9 -35 6 -19 -3 -37 -1 -40 3 -3 5 18 11 47
15 52 7 124 32 116 41 -3 2 -33 -3 -67 -11 -71 -19 -115 -16 -66 4 17 7 52 23
79 36 27 14 53 22 57 19 5 -3 9 -22 9 -44z m-96 31 c7 -11 -50 -20 -66 -10 -7
4 0 9 18 12 16 2 32 5 36 6 4 0 9 -3 12 -8z m1736 -18 c0 -20 -3 -24 -11 -16
-7 7 -9 19 -6 27 10 24 17 19 17 -11z m-80 -23 c0 -22 -2 -40 -4 -40 -2 0 -6
18 -8 40 -2 22 0 40 4 40 5 0 8 -18 8 -40z m-1344 -5 c19 -46 19 -64 -1 -45
-15 16 -32 80 -21 80 4 0 14 -16 22 -35z m123 -91 c-13 -14 -25 -20 -27 -14
-2 6 4 18 14 25 31 24 39 17 13 -11z m-612 -12 c-26 -27 -40 -59 -15 -34 7 7
23 12 35 12 17 0 23 5 21 16 -2 10 3 19 10 21 15 6 16 -18 1 -50 -9 -21 -21
-26 -71 -31 -33 -4 -61 -6 -63 -4 -2 2 0 21 4 43 6 38 8 40 46 43 21 1 41 5
44 7 2 3 7 5 10 5 2 0 -7 -13 -22 -28z m1860 -24 c-2 -13 -4 -5 -4 17 -1 22 1
32 4 23 2 -10 2 -28 0 -40z m-1411 5 c-8 -8 -36 5 -36 17 0 7 6 7 21 0 11 -7
18 -14 15 -17z m1373 -27 c-9 -8 -10 -7 -5 7 3 10 7 26 7 35 1 9 4 6 6 -7 3
-13 -1 -28 -8 -35z m174 47 c-7 -2 -21 -2 -30 0 -10 3 -4 5 12 5 17 0 24 -2
18 -5z m-2099 -35 c-7 -32 -9 -50 -12 -115 -2 -25 -7 -33 -21 -33 -17 0 -18 8
-17 90 l1 90 28 0 c27 0 28 -2 21 -32z m1801 23 c3 -5 1 -12 -5 -16 -5 -3 -10
1 -10 9 0 18 6 21 15 7z m403 -36 c13 -3 22 -13 22 -25 0 -18 -7 -20 -76 -20
-41 0 -73 -4 -70 -9 3 -4 27 -7 53 -5 l48 4 -30 -15 -30 -15 35 3 c22 1 34 7
33 15 -3 14 -1 14 21 6 19 -7 21 -50 4 -57 -10 -4 -9 -8 2 -16 25 -17 -3 -34
-49 -29 -24 2 -41 -1 -41 -7 0 -6 18 -9 45 -7 42 4 45 2 45 -21 0 -24 -3 -25
-82 -29 -46 -3 -84 -5 -85 -4 -2 1 -4 13 -5 27 -2 18 1 23 14 21 9 -1 19 2 23
8 4 6 -4 10 -19 10 -25 0 -25 1 -25 88 l0 89 72 -3 c40 -2 82 -6 95 -9z m390
-22 l3 -23 -175 0 -176 0 0 25 0 25 173 -2 c170 -3 172 -3 175 -25z m-2218 -9
c0 -14 -4 -23 -10 -19 -5 3 -10 2 -10 -2 0 -5 -8 -9 -17 -10 -10 0 -48 -4 -85
-8 l-68 -6 0 25 c0 26 1 26 74 26 41 0 78 5 81 10 12 20 35 10 35 -16z m1600
-15 c0 -16 -4 -29 -10 -29 -5 0 -10 16 -10 36 0 21 4 33 10 29 6 -3 10 -19 10
-36z m-1833 13 c25 -16 -13 -41 -70 -48 -56 -7 -57 -6 -57 19 0 24 4 26 53 30
28 2 54 4 57 5 3 1 10 -2 17 -6z m2436 -28 c9 -3 17 -15 17 -25 0 -17 -9 -19
-102 -20 -57 -1 -134 -5 -173 -9 l-70 -7 60 -3 60 -2 -55 -12 c-30 -7 -58 -11
-62 -9 -5 2 -8 24 -8 47 l0 43 158 2 c87 1 166 -1 175 -5z m-716 -66 c-2 -13
-4 -5 -4 17 -1 22 1 32 4 23 2 -10 2 -28 0 -40z m-1714 18 c6 -15 -18 -34 -70
-55 -44 -18 -55 -11 -60 32 l-4 37 65 0 c46 0 65 -4 69 -14z m227 3 c0 -8 -62
-19 -115 -19 -53 0 -72 -12 -50 -30 13 -11 21 -11 36 -2 11 7 31 9 46 6 25 -7
25 -8 8 -20 -11 -8 -33 -14 -51 -14 -18 0 -36 -5 -40 -11 -5 -9 8 -10 45 -7
28 3 51 2 51 -3 0 -8 -15 -14 -75 -25 l-40 -7 39 -7 c47 -9 107 7 99 26 -3 9
2 14 12 14 9 0 15 6 12 13 -2 6 -10 11 -16 9 -7 -1 -10 2 -6 8 3 5 15 10 26
10 16 0 19 -7 19 -53 0 -40 -5 -58 -19 -71 -15 -14 -20 -14 -30 -3 -6 8 -9 21
-6 29 5 12 0 14 -20 11 -14 -3 -28 -9 -31 -14 -3 -5 -17 -9 -32 -10 -26 -1
-26 -1 6 -12 26 -10 30 -15 20 -25 -6 -6 -20 -12 -30 -12 -10 0 -18 -4 -18
-10 0 -5 -9 -10 -19 -10 -11 0 -23 -4 -26 -10 -4 -6 17 -8 55 -4 61 5 61 5 41
-15 -11 -11 -27 -31 -36 -45 -10 -15 -22 -23 -31 -19 -8 3 -24 -3 -34 -12 -11
-10 -20 -13 -20 -8 0 6 7 13 15 17 8 3 15 12 15 20 0 9 10 21 22 27 15 8 18
14 10 17 -7 2 -22 -4 -33 -14 -19 -17 -19 -16 -19 39 0 32 3 57 8 57 8 0 11
26 12 112 1 52 3 57 28 63 22 6 24 9 10 14 -9 3 23 6 72 7 50 0 90 -3 90 -7z
m302 -34 c5 -24 3 -25 -45 -25 -61 0 -54 -12 11 -21 38 -5 29 -7 -45 -8 -83
-1 -93 1 -103 19 -9 17 -7 22 15 30 15 6 41 10 58 11 18 0 41 4 52 9 36 15 52
11 57 -15z m1748 9 c0 -2 -7 -4 -15 -4 -8 0 -15 4 -15 10 0 5 7 7 15 4 8 -4
15 -8 15 -10z m103 9 c-7 -2 -21 -2 -30 0 -10 3 -4 5 12 5 17 0 24 -2 18 -5z
m-1731 -35 c-7 -7 -12 -8 -12 -2 0 14 12 26 19 19 2 -3 -1 -11 -7 -17z m1798
-43 c0 -58 -2 -65 -19 -65 -29 0 -35 -18 -9 -22 16 -2 24 -11 26 -28 3 -25 3
-25 -72 -22 -43 2 -83 -1 -93 -7 -14 -9 0 -10 55 -5 54 5 72 4 72 -6 0 -7 8
-10 20 -7 15 4 20 0 20 -14 0 -14 -8 -19 -27 -20 -105 -6 -133 -12 -133 -30 0
-7 11 -9 34 -5 27 5 37 3 45 -11 10 -17 10 -17 11 0 0 13 8 17 35 17 19 0 35
-3 36 -7 0 -5 3 -20 5 -35 4 -22 1 -28 -13 -28 -15 0 -16 -2 -3 -10 20 -12 20
-43 0 -52 -8 -4 -34 -7 -57 -7 -23 -1 -44 -5 -47 -9 -2 -4 24 -6 60 -4 59 4
64 3 64 -16 0 -17 -9 -21 -56 -27 -83 -10 -238 -13 -324 -6 l-75 6 -1 35 c-1
44 6 71 17 64 5 -3 9 2 9 11 0 9 -4 13 -10 10 -5 -3 -10 0 -10 8 0 10 18 16
58 21 117 13 206 32 210 44 6 19 -142 17 -158 -3 -17 -20 -27 -19 -33 6 -3 12
0 22 9 26 11 4 11 8 -2 21 -10 10 -14 25 -10 46 3 17 8 59 12 92 l6 62 59 9
c33 5 61 7 64 5 3 -3 5 -16 5 -29 0 -18 -6 -23 -27 -24 -68 -3 -83 -5 -89 -12
-4 -4 21 -7 55 -7 54 0 62 -2 59 -17 -2 -13 -20 -21 -68 -29 l-65 -12 63 -1
c59 -1 62 -2 62 -26 0 -23 -4 -25 -45 -25 -25 0 -45 -4 -45 -9 0 -5 17 -7 39
-4 23 3 41 1 45 -6 4 -6 14 -11 22 -11 12 0 15 13 14 68 -1 37 -1 85 -1 106
l1 39 75 -6 c47 -4 75 -3 75 3 0 6 -8 10 -17 11 -15 0 -15 2 2 9 11 5 30 9 43
9 21 1 22 -3 22 -64z m-2610 35 c0 -11 -2 -20 -4 -20 -2 0 -11 -3 -20 -6 -11
-4 -16 0 -16 13 0 23 8 33 27 33 7 0 13 -9 13 -20z m2503 13 c-7 -2 -19 -2
-25 0 -7 3 -2 5 12 5 14 0 19 -2 13 -5z m-1443 -23 c-8 -5 -19 -10 -25 -10 -5
0 -3 5 5 10 8 5 20 10 25 10 6 0 3 -5 -5 -10z m817 -27 c-3 -10 -5 -4 -5 12 0
17 2 24 5 18 2 -7 2 -21 0 -30z m80 15 c-3 -8 -6 -5 -6 6 -1 11 2 17 5 13 3
-3 4 -12 1 -19z m-1813 -13 c-4 -8 -1 -15 6 -15 6 0 8 -4 5 -10 -8 -13 -162
-13 -170 0 -6 9 42 16 88 12 10 -1 16 2 12 7 -5 8 14 15 52 20 7 0 10 -5 7
-14z m516 -45 c7 -13 22 -20 43 -21 27 -1 28 -2 9 -7 -12 -4 -35 -19 -51 -34
l-29 -28 -6 25 c-5 18 -13 25 -29 25 -28 0 -47 17 -47 42 0 28 95 26 110 -2z
m1227 -2 c-3 -8 -6 -5 -6 6 -1 11 2 17 5 13 3 -3 4 -12 1 -19z m90 -20 c-3 -7
-5 -2 -5 12 0 14 2 19 5 13 2 -7 2 -19 0 -25z m-1837 12 c16 -10 3 -69 -16
-77 -8 -3 -14 -9 -14 -14 0 -4 7 -6 15 -3 11 5 14 -6 12 -59 -2 -36 -8 -72
-15 -79 -14 -17 -6 -28 20 -28 26 0 23 -36 -4 -45 l-23 -7 24 -7 c13 -3 25
-15 27 -26 3 -23 31 -46 48 -39 7 3 20 -6 29 -20 21 -31 14 -34 -93 -32 l-85
1 0 50 c-1 80 -15 145 -32 145 -11 0 -13 -6 -9 -22 9 -29 18 -188 10 -170 -3
6 -20 12 -38 12 l-33 0 -6 98 c-4 53 -7 114 -7 135 0 37 0 37 43 39 l42 1 -37
4 -38 4 0 74 0 73 84 0 c47 -1 90 -4 96 -8z m2053 -6 c27 -8 12 -21 -35 -28
-28 -5 -38 -10 -29 -15 7 -5 29 -5 50 0 20 5 39 9 42 9 3 0 4 -13 1 -30 -4
-25 -7 -28 -22 -20 -23 12 -43 13 -36 1 5 -8 -74 -22 -83 -15 -2 2 2 11 9 20
12 13 11 17 0 24 -8 5 -17 7 -21 4 -12 -7 -17 20 -8 44 8 21 13 22 61 17 29
-3 61 -8 71 -11z m-1113 -4 c0 -5 -10 -10 -22 -9 -22 0 -22 1 -3 9 11 5 21 9
23 9 1 1 2 -3 2 -9z m-90 -28 c0 -4 -18 -13 -40 -20 -48 -15 -124 -16 -115 -2
3 6 23 10 43 10 20 0 44 5 52 10 18 12 60 13 60 2z m-657 -22 c-3 -12 -14 -20
-27 -20 -21 1 -21 1 3 20 29 25 30 25 24 0z m50 -4 c4 -10 0 -12 -14 -9 -10 3
-16 9 -13 14 8 13 21 11 27 -5z m432 4 c-3 -5 -14 -10 -23 -10 -15 0 -15 2 -2
10 20 13 33 13 25 0z m1205 -21 c0 -5 -7 -6 -15 -3 -8 4 -15 13 -15 21 0 13 3
13 15 3 8 -7 15 -16 15 -21z m-1520 6 c0 -11 -11 -15 -40 -15 -29 0 -40 4 -40
15 0 11 11 15 40 15 29 0 40 -4 40 -15z m1355 -15 c111 -16 268 -60 214 -60
-19 0 -311 49 -327 55 -19 7 -4 27 16 21 10 -3 53 -10 97 -16z m-570 1 c-28
-25 -345 -44 -382 -22 -16 9 -14 11 12 12 17 1 37 1 45 0 53 -5 120 -2 136 7
23 14 202 16 189 3z m329 -5 l49 -13 -84 -6 c-126 -10 -209 -9 -209 4 0 5 -4
7 -10 4 -5 -3 -10 1 -10 9 0 14 17 16 108 16 59 -1 129 -7 156 -14z m-746 -13
c-10 -2 -28 -2 -40 0 -13 2 -5 4 17 4 22 1 32 -1 23 -4z m440 -10 c-10 -2 -26
-2 -35 0 -10 3 -2 5 17 5 19 0 27 -2 18 -5z m845 0 c-7 -2 -21 -2 -30 0 -10 3
-4 5 12 5 17 0 24 -2 18 -5z m40 -10 c-5 -12 -2 -15 10 -10 24 9 21 -15 -3
-31 -21 -13 -22 -12 -25 31 -1 17 3 27 11 27 8 0 11 -6 7 -17z m-1694 3 c-2
-2 -21 -6 -42 -10 -27 -5 -37 -4 -32 3 3 6 22 11 42 11 20 0 34 -2 32 -4z
m1291 -8 c14 0 30 -4 37 -10 7 -5 17 -7 23 -3 5 3 10 -1 10 -9 0 -12 -12 -16
-52 -17 l-53 -2 50 -7 c28 -4 64 -3 81 2 19 5 42 4 59 -2 14 -5 40 -10 56 -10
19 0 29 -5 29 -15 0 -11 -11 -15 -42 -15 -44 0 -271 25 -320 35 -17 3 -28 1
-28 -6 0 -7 -11 -8 -30 -4 -19 4 -30 3 -30 -4 0 -6 -7 -11 -15 -11 -31 0 -14
-19 23 -25 20 -4 44 -7 52 -9 25 -4 -170 -15 -400 -23 -126 -5 -192 -10 -160
-13 l55 -5 -85 -8 c-47 -4 -101 -10 -120 -12 -19 -3 -114 -9 -210 -15 -218
-12 -293 -18 -347 -26 l-43 -6 0 51 c0 50 12 67 24 35 6 -15 29 -16 244 -10
263 8 277 9 377 24 39 6 95 14 125 17 30 3 98 9 150 15 52 5 121 10 153 10 36
0 57 4 57 11 0 12 -130 7 -275 -11 -65 -8 -115 -13 -360 -40 -49 -6 -173 -9
-275 -8 -102 1 -153 3 -115 5 157 6 380 25 555 48 224 28 300 37 364 40 27 2
52 9 56 15 5 9 9 9 14 1 11 -17 66 -14 66 4 0 11 18 15 83 17 45 2 107 1 137
-1 30 -2 66 -3 80 -3z m-545 -17 c-3 -6 -13 -9 -23 -9 -9 0 -30 -2 -47 -5 -16
-4 -106 -16 -200 -27 -93 -11 -176 -23 -182 -25 -7 -2 -13 1 -13 7 0 7 -4 7
-12 1 -23 -18 -348 -37 -415 -25 -26 5 -29 20 -10 47 11 14 31 19 92 23 52 3
76 1 71 -6 -3 -5 -22 -10 -41 -9 -19 1 -41 -5 -48 -12 -10 -10 1 -11 53 -5 36
3 71 11 78 17 8 6 12 6 12 -2 0 -12 34 -11 135 5 17 3 73 7 125 10 52 3 136 9
185 14 133 11 247 11 240 1z m-955 -32 c0 -11 -7 -31 -16 -44 -9 -14 -12 -25
-7 -25 11 0 36 -50 29 -58 -3 -2 -13 -1 -23 3 -12 5 -14 9 -5 12 17 7 15 23
-3 23 -13 0 -15 10 -14 48 2 48 15 76 30 66 5 -3 9 -14 9 -25z m1860 -7 c0 -5
-6 -16 -12 -25 -10 -12 -23 -15 -55 -10 -54 7 -48 30 7 25 25 -3 40 0 40 7 0
6 5 11 10 11 6 0 10 -4 10 -8z m-337 -53 c59 -7 107 -16 107 -21 0 -5 -10 -6
-22 -4 -13 3 -68 10 -123 17 -55 7 -104 17 -110 22 -7 6 -1 8 15 4 14 -4 73
-12 133 -18z m100 4 c-7 -2 -21 -2 -30 0 -10 3 -4 5 12 5 17 0 24 -2 18 -5z
m222 -33 c-2 -4 -5 -30 -6 -59 -2 -47 -4 -50 -19 -36 -9 8 -24 15 -33 15 -9 0
-17 6 -18 13 0 8 -2 8 -6 -2 -3 -8 -8 -9 -12 -3 -3 5 -31 12 -61 16 -30 3 -71
10 -90 16 -34 11 -340 26 -472 23 -38 0 -68 3 -68 7 0 4 42 8 93 9 50 0 127 4
170 7 79 7 276 -9 400 -31 48 -9 67 -9 64 -1 -2 6 -35 16 -73 23 l-69 12 70
-4 c39 -2 81 -7 94 -11 20 -6 23 -4 18 9 -4 11 -2 14 8 10 8 -3 13 -9 10 -13z
m-968 -16 c-3 -3 -12 -4 -19 -1 -8 3 -5 6 6 6 11 1 17 -2 13 -5z m136 -1 c-24
-2 -62 -2 -85 0 -24 2 -5 4 42 4 47 0 66 -2 43 -4z m47 -33 c0 -5 -4 -10 -10
-10 -5 0 -10 5 -10 10 0 6 5 10 10 10 6 0 10 -4 10 -10z m53 3 c-7 -2 -21 -2
-30 0 -10 3 -4 5 12 5 17 0 24 -2 18 -5z m70 0 c-7 -2 -21 -2 -30 0 -10 3 -4
5 12 5 17 0 24 -2 18 -5z m337 -12 c0 -11 -31 -24 -38 -16 -3 3 0 5 7 5 7 0 9
5 6 10 -3 6 1 10 9 10 9 0 16 -4 16 -9z m-1600 -21 c0 -5 -4 -10 -10 -10 -5 0
-10 5 -10 10 0 6 5 10 10 10 6 0 10 -4 10 -10z m85 0 c3 -5 1 -10 -4 -10 -6 0
-10 -5 -8 -11 1 -6 -2 -13 -8 -15 -5 -2 -11 7 -11 21 -2 25 19 35 31 15z m910
-10 c-4 -6 8 -10 29 -10 20 0 36 -4 36 -10 0 -6 -57 -10 -150 -11 -82 -1 -163
-2 -180 -3 -16 0 -26 2 -22 6 8 8 68 17 197 27 50 4 91 8 93 9 2 1 0 -2 -3 -8z
m475 -5 c89 -9 110 -25 110 -85 l0 -40 -50 0 c-28 0 -50 -5 -50 -10 0 -7 18
-8 49 -4 l48 6 6 -36 c8 -52 1 -69 -25 -55 -13 7 -39 9 -67 4 -59 -9 -152 -6
-166 5 -11 8 -50 14 -75 10 -8 -1 -1 -6 15 -10 21 -5 2 -8 -62 -9 l-92 -1 -7
35 c-7 41 1 69 17 59 7 -4 10 -1 7 7 -3 8 -13 13 -22 13 -34 -3 -7 40 30 48
15 3 13 5 -8 10 -18 3 -25 1 -21 -6 3 -6 0 -5 -7 1 -8 7 -11 15 -8 18 3 4 70
8 149 10 105 3 139 2 126 -6 -10 -6 -24 -9 -30 -6 -7 2 -21 1 -32 -4 -13 -5 4
-8 48 -7 37 0 67 4 67 9 0 5 -8 9 -17 10 -16 0 -15 2 2 9 13 6 -42 9 -148 7
-92 -1 -167 0 -167 4 0 27 180 33 380 14z m-1193 -11 c-3 -3 -12 -4 -19 -1 -8
3 -5 6 6 6 11 1 17 -2 13 -5z m76 -1 c-7 -2 -21 -2 -30 0 -10 3 -4 5 12 5 17
0 24 -2 18 -5z m330 -15 c-2 -5 -22 -8 -44 -8 -24 0 -38 4 -34 10 3 5 23 8 44
7 22 -1 37 -5 34 -9z m-146 -4 c-3 -3 -12 -4 -19 -1 -8 3 -5 6 6 6 11 1 17 -2
13 -5z m40 0 c-3 -3 -12 -4 -19 -1 -8 3 -5 6 6 6 11 1 17 -2 13 -5z m1203 -14
c24 -13 93 -13 106 0 7 7 59 10 134 8 105 -3 123 -5 126 -19 2 -18 -12 -21
-159 -35 -37 -4 -70 -11 -73 -16 -6 -9 40 -5 160 13 65 9 76 6 76 -20 0 -21
-50 -31 -151 -31 -32 0 -61 -5 -65 -11 -4 -7 26 -10 102 -7 96 3 109 1 112
-14 4 -22 -5 -23 -188 -38 -177 -14 -224 -18 -272 -26 -64 -10 -78 0 -78 57 0
44 2 49 23 50 l22 2 -22 4 c-23 4 -31 28 -25 73 4 25 5 26 78 23 41 -2 83 -7
94 -13z m611 15 c0 0 3 -21 5 -47 l5 -48 -43 -1 c-24 -1 -54 -5 -68 -9 -18 -6
-6 -8 43 -9 l68 -1 -3 -37 c-3 -33 -7 -38 -31 -41 -16 -2 -34 1 -40 6 -7 5
-32 12 -57 15 l-45 6 39 -13 c48 -15 30 -26 -42 -26 -46 0 -47 1 -48 33 0 17
-2 61 -4 97 l-4 65 65 5 c35 3 85 5 111 5 27 0 48 0 49 0z m-1821 -19 c9 -2 4
-7 -13 -14 -16 -7 -25 -17 -21 -23 3 -6 -4 -5 -17 3 -21 12 -124 16 -209 8 -8
-1 -53 0 -100 1 -68 1 -79 3 -55 10 62 19 342 29 415 15z m490 1 c0 -8 -10
-19 -22 -25 l-23 -11 23 0 c12 -1 22 -5 22 -11 0 -15 -33 -19 -169 -23 -80 -2
-116 -1 -100 5 19 7 21 11 9 18 -12 7 -11 9 5 8 11 0 43 3 70 6 41 6 109 13
148 16 4 0 7 5 7 11 0 11 -83 7 -220 -11 -41 -6 -102 -13 -135 -16 -55 -4 -61
-3 -62 15 -2 19 5 21 125 24 325 8 322 8 322 -6z m-483 -43 c-3 -3 -12 -4 -19
-1 -8 3 -5 6 6 6 11 1 17 -2 13 -5z m-677 -20 c0 -13 6 -15 28 -10 15 3 57 9
95 12 66 7 67 6 67 -17 0 -13 3 -34 6 -46 5 -19 2 -23 -15 -23 -11 0 -21 -5
-21 -10 0 -6 8 -10 18 -8 11 2 18 -5 20 -20 3 -21 0 -23 -32 -21 -19 2 -38 0
-42 -4 -7 -7 17 -11 43 -8 8 1 10 -5 6 -15 -5 -15 1 -16 68 -9 111 11 132 11
136 -2 3 -8 -14 -13 -54 -16 l-58 -4 65 -1 c36 0 69 -1 74 -1 5 -1 2 -9 -5
-18 -10 -11 -10 -14 -1 -9 7 4 12 2 12 -7 0 -11 -21 -16 -87 -21 -211 -15
-257 -20 -239 -24 10 -2 84 1 164 7 108 9 148 8 158 0 20 -16 18 -85 -2 -93
-9 -3 -66 -7 -127 -7 -62 -1 -125 -5 -142 -8 -16 -4 44 -6 135 -4 91 2 171 6
179 9 9 3 11 13 7 29 -5 21 -3 25 18 25 32 0 43 -37 12 -43 -11 -2 9 -5 47 -6
38 0 67 -5 67 -11 0 -18 -26 -22 -66 -11 -26 6 -54 6 -84 0 -25 -5 -178 -12
-340 -15 l-295 -6 3 48 c2 27 7 58 12 69 5 11 11 36 12 55 l3 35 68 -3 c55 -2
67 0 67 13 0 8 6 15 14 15 7 0 19 7 26 15 11 13 6 15 -31 15 -28 0 -39 -3 -31
-9 17 -11 -43 -21 -81 -14 -27 5 -27 6 -27 89 0 82 5 95 26 74 7 -7 19 -7 35
-1 14 5 38 7 55 5 16 -2 23 -1 16 2 -6 3 -10 10 -6 15 9 15 24 10 24 -7z m315
-6 c10 -23 12 -23 185 -22 175 2 189 -1 190 -34 0 -10 -35 -12 -165 -10 -107
2 -164 -1 -161 -7 1 -6 26 -9 55 -7 37 3 51 0 51 -10 0 -10 2 -11 8 0 6 9 36
12 113 10 l104 -3 -31 -17 c-17 -10 -33 -16 -35 -14 -2 2 -53 0 -114 -5 -60
-5 -149 -11 -197 -15 l-86 -6 -9 64 c-8 58 -7 63 12 70 19 6 19 6 -2 7 -45 2
-22 21 25 21 39 0 49 -4 57 -22z m32 16 c-3 -3 -12 -4 -19 -1 -8 3 -5 6 6 6
11 1 17 -2 13 -5z m275 -7 c20 -1 40 -5 44 -9 4 -5 -51 -8 -122 -9 -71 -1
-148 -2 -171 -3 -24 -1 -43 2 -43 6 0 4 3 8 8 8 39 2 128 13 132 17 3 3 30 2
60 -1 30 -4 71 -7 92 -9z m178 4 c0 -5 -7 -16 -15 -24 -8 -8 -12 -17 -10 -19
2 -2 39 -1 82 4 43 4 131 10 196 13 l117 7 0 -34 0 -33 -78 -3 c-42 -2 -102
-7 -132 -12 -43 -7 -30 -8 56 -4 66 3 114 2 118 -4 3 -6 -40 -10 -111 -11 -72
-1 -119 3 -123 9 -4 7 -35 8 -93 2 -60 -5 -86 -5 -84 3 3 8 264 31 400 34 20
1 37 6 37 11 0 13 -64 13 -170 -1 -47 -6 -125 -7 -175 -4 -85 7 -90 8 -91 31
-2 20 2 23 30 18 17 -2 25 -1 17 2 -11 5 -11 8 0 15 18 11 29 11 29 0z m60 -1
c-8 -5 -19 -10 -25 -10 -5 0 -3 5 5 10 8 5 20 10 25 10 6 0 3 -5 -5 -10z
m1384 -125 c-5 -12 -29 -15 -127 -15 -133 0 -149 12 -29 21 147 11 162 10 156
-6z m-1314 -21 c9 -2 16 -12 17 -21 1 -10 5 -54 9 -99 l7 -81 -32 -6 c-17 -4
-37 -4 -45 -1 -8 3 -17 1 -21 -5 -3 -6 -16 -11 -28 -10 -21 0 -21 1 -2 8 11 5
-46 7 -127 5 -82 -2 -148 -2 -148 1 0 3 9 15 19 27 11 11 17 26 14 34 -3 9 2
14 16 14 12 0 21 5 21 10 0 6 -28 10 -62 11 -77 1 -43 16 40 18 39 1 52 5 52
16 0 8 7 15 16 15 14 0 15 -2 3 -17 -13 -15 -12 -15 11 -3 18 10 25 10 28 1 3
-9 11 -7 29 4 18 12 28 13 38 5 9 -8 25 -8 56 0 24 6 54 14 67 17 27 7 39 23
17 23 -9 0 -14 4 -11 8 3 5 -51 8 -120 8 -92 -1 -124 -4 -124 -13 0 -7 -4 -13
-10 -13 -5 0 -10 5 -10 11 0 6 -22 10 -57 9 -32 -1 -69 -1 -83 0 -23 1 -23 2
-5 9 11 5 90 9 175 10 85 1 156 4 159 6 5 5 71 4 91 -1z m152 -8 c5 -7 8 -7 8
3 0 10 27 12 139 10 76 -2 137 -7 135 -11 -2 -4 6 -8 18 -10 25 -3 35 -30 37
-92 1 -37 0 -38 -29 -34 -42 6 -38 -8 5 -16 34 -7 46 -28 24 -42 -8 -4 -7 -9
2 -15 11 -7 11 -11 1 -21 -10 -10 -74 -14 -260 -16 -179 -1 -242 1 -229 9 9 5
15 14 12 20 -4 5 -2 9 4 9 5 0 13 -4 16 -10 14 -23 25 -7 25 35 0 38 3 45 20
45 11 0 20 4 20 8 0 5 -10 8 -22 8 -21 -1 -23 5 -28 62 -3 35 -4 65 -3 66 9 8
99 1 105 -8z m1418 -60 c0 -103 -10 -168 -24 -157 -6 4 -24 11 -41 15 -16 4
-39 10 -49 13 -13 4 -17 1 -14 -8 7 -17 -24 -21 -192 -23 -122 -1 -125 0 -128
21 -4 26 9 29 167 38 57 4 114 11 125 16 16 7 13 8 -14 5 -91 -13 -250 -18
-250 -8 0 5 58 14 133 19 114 9 121 10 52 11 -44 1 -110 -2 -147 -7 -76 -8
-73 -10 -84 69 -6 46 -5 50 15 50 11 0 21 -5 21 -11 0 -8 29 -8 98 -3 135 12
202 8 217 -13 8 -11 14 -12 19 -5 7 12 -22 31 -51 34 -21 1 66 14 115 16 l32
2 0 -74z m-1050 54 c0 -5 -2 -10 -4 -10 -3 0 -8 5 -11 10 -3 6 -1 10 4 10 6 0
11 -4 11 -10z m405 -1 c44 -1 88 -6 99 -11 13 -7 21 -7 26 1 10 18 34 -66 35
-123 l0 -51 -35 3 -35 3 24 -19 c21 -17 21 -20 6 -25 -26 -11 -37 -8 -29 6 6
9 4 9 -7 2 -8 -6 -27 -12 -44 -13 -25 -1 -27 0 -10 7 14 7 -7 9 -67 9 -49 0
-88 -4 -88 -9 0 -5 -5 -9 -11 -9 -5 0 -7 5 -4 10 4 6 -5 10 -20 10 -14 0 -24
3 -22 8 6 8 -81 4 -103 -5 -9 -4 3 -10 30 -14 32 -4 18 -6 -49 -5 l-93 1 -3
70 c-2 43 2 73 9 77 7 5 5 8 -5 8 -11 0 -16 9 -16 25 0 22 3 24 31 19 17 -3
65 -7 108 -9 82 -3 102 -9 94 -30 -2 -7 4 -15 14 -18 22 -6 30 0 30 22 0 14
-2 14 -10 1 -8 -13 -10 -12 -10 3 0 9 6 17 13 18 30 2 -54 21 -103 23 -116 5
-121 6 -114 17 5 8 47 9 143 5 75 -3 172 -7 216 -7z m-1395 -29 c0 -5 -4 -10
-10 -10 -5 0 -10 5 -10 10 0 6 5 10 10 10 6 0 10 -4 10 -10z m365 0 c-11 -5
-29 -8 -40 -8 -16 0 -15 2 5 8 34 11 60 11 35 0z m-335 -60 c0 -5 -11 -10 -25
-10 -14 0 -25 5 -25 10 0 6 11 10 25 10 14 0 25 -4 25 -10z m10 -36 c0 -10 -6
-14 -14 -11 -8 3 -17 -1 -20 -9 -7 -18 -26 -9 -26 11 0 7 12 16 28 18 15 2 28
5 30 6 1 0 2 -6 2 -15z m335 -104 c11 -4 -30 -7 -92 -7 -87 0 -113 3 -117 14
-5 12 10 13 92 7 53 -4 106 -10 117 -14z m862 4 c-3 -3 -12 -4 -19 -1 -8 3 -5
6 6 6 11 1 17 -2 13 -5z m342 -33 c5 -7 47 -8 141 -1 74 5 160 9 190 9 l55 0
-29 -15 c-18 -10 -40 -14 -60 -10 -40 8 -275 -13 -301 -27 -19 -10 -208 -13
-224 -3 -4 3 -88 6 -187 7 -202 2 -384 15 -397 28 -5 5 79 10 189 10 109 1
199 3 200 4 1 1 96 4 209 6 141 2 210 0 214 -8z m-1239 -17 c0 -7 6 -15 13
-17 6 -3 -7 -6 -30 -6 -25 -1 -43 -6 -43 -12 0 -8 -13 -9 -42 -4 -24 4 -153 9
-288 10 -266 2 -443 13 -400 25 15 4 99 6 189 4 89 -1 172 1 183 5 11 4 110 8
219 8 154 0 199 -3 199 -13z m263 9 c-7 -2 -19 -2 -25 0 -7 3 -2 5 12 5 14 0
19 -2 13 -5z m147 -5 c0 -5 -22 -8 -50 -6 -65 4 -65 16 0 15 28 0 50 -5 50 -9z
m-1320 -28 c0 -16 -7 -20 -35 -20 -28 0 -35 4 -35 20 0 16 7 20 35 20 28 0 35
-4 35 -20z m1047 14 c-3 -3 -12 -4 -19 -1 -8 3 -5 6 6 6 11 1 17 -2 13 -5z"/>
<path d="M2660 3280 c0 -5 4 -10 9 -10 6 0 13 5 16 10 3 6 -1 10 -9 10 -9 0
-16 -4 -16 -10z"/>
<path d="M2630 3200 c0 -12 34 -12 70 0 20 7 16 8 -22 9 -27 1 -48 -3 -48 -9z"/>
<path d="M1710 3190 c-13 -8 -12 -10 3 -10 9 0 17 5 17 10 0 12 -1 12 -20 0z"/>
<path d="M1823 3193 c9 -2 23 -2 30 0 6 3 -1 5 -18 5 -16 0 -22 -2 -12 -5z"/>
<path d="M2023 3213 c9 -2 25 -2 35 0 9 3 1 5 -18 5 -19 0 -27 -2 -17 -5z"/>
<path d="M935 3189 c-71 -15 -151 -31 -176 -34 -26 -3 -59 -10 -75 -15 l-29
-8 30 -1 c43 -1 395 71 395 81 0 10 11 12 -145 -23z"/>
<path d="M935 3150 c-3 -5 1 -10 9 -10 9 0 16 5 16 10 0 6 -4 10 -9 10 -6 0
-13 -4 -16 -10z"/>
<path d="M625 3130 c-19 -8 -19 -9 3 -9 12 -1 22 4 22 9 0 6 -1 10 -2 9 -2 0
-12 -4 -23 -9z"/>
<path d="M550 3058 c0 -4 9 -8 20 -8 11 0 20 4 20 9 0 6 -9 9 -20 8 -11 -1
-20 -5 -20 -9z"/>
<path d="M437 3010 c-32 -10 -92 -22 -133 -25 -72 -7 -87 -15 -42 -22 25 -4
239 45 253 58 14 13 -12 10 -78 -11z"/>
<path d="M213 2893 c9 -2 23 -2 30 0 6 3 -1 5 -18 5 -16 0 -22 -2 -12 -5z"/>
<path d="M210 2810 c0 -5 5 -10 10 -10 6 0 10 5 10 10 0 6 -4 10 -10 10 -5 0
-10 -4 -10 -10z"/>
<path d="M2178 3133 c6 -2 18 -2 25 0 6 3 1 5 -13 5 -14 0 -19 -2 -12 -5z"/>
<path d="M2108 3123 c7 -3 16 -2 19 1 4 3 -2 6 -13 5 -11 0 -14 -3 -6 -6z"/>
<path d="M1510 3080 c0 -13 11 -13 30 0 12 8 11 10 -7 10 -13 0 -23 -4 -23
-10z"/>
<path d="M1270 3030 c0 -5 4 -10 9 -10 6 0 13 5 16 10 3 6 -1 10 -9 10 -9 0
-16 -4 -16 -10z"/>
<path d="M1480 3021 c0 -5 5 -13 10 -16 6 -3 10 -2 10 4 0 5 -4 13 -10 16 -5
3 -10 2 -10 -4z"/>
<path d="M1583 3019 c-13 -5 -23 -10 -23 -12 0 -8 40 -5 46 4 9 15 2 18 -23 8z"/>
<path d="M1328 2983 c6 -2 18 -2 25 0 6 3 1 5 -13 5 -14 0 -19 -2 -12 -5z"/>
<path d="M848 2953 c7 -3 16 -2 19 1 4 3 -2 6 -13 5 -11 0 -14 -3 -6 -6z"/>
<path d="M970 2940 c0 -5 4 -10 9 -10 6 0 13 5 16 10 3 6 -1 10 -9 10 -9 0
-16 -4 -16 -10z"/>
<path d="M1005 2921 c-5 -9 41 -8 50 0 3 4 -6 7 -20 7 -14 0 -27 -4 -30 -7z"/>
<path d="M2220 3060 c0 -5 6 -10 14 -10 8 0 18 5 21 10 3 6 -3 10 -14 10 -12
0 -21 -4 -21 -10z"/>
<path d="M2354 3045 c-22 -16 -74 -20 -74 -5 0 6 -5 10 -11 10 -5 0 -8 -4 -4
-9 3 -6 -3 -15 -12 -21 -14 -9 -9 -10 27 -6 128 14 149 19 154 32 7 19 -54 19
-80 -1z"/>
<path d="M2050 3030 c0 -13 11 -13 30 0 12 8 11 10 -7 10 -13 0 -23 -4 -23
-10z"/>
<path d="M2122 3013 c-23 -2 -40 -8 -37 -12 6 -10 73 -3 95 10 13 7 13 8 0 7
-8 -1 -34 -3 -58 -5z"/>
<path d="M2593 3023 c-24 -2 -43 -9 -43 -15 0 -5 7 -7 16 -4 9 3 31 6 50 6 19
0 34 5 34 10 0 6 -3 9 -7 8 -5 -1 -27 -3 -50 -5z"/>
<path d="M2700 2980 c19 -13 30 -13 30 0 0 6 -10 10 -22 10 -19 0 -20 -2 -8
-10z"/>
<path d="M2590 2970 l-25 -8 27 -1 c15 -1 30 4 33 9 7 11 0 11 -35 0z"/>
<path d="M2672 2934 c11 -11 23 -14 35 -9 17 7 17 8 -2 15 -11 5 -27 9 -35 9
-12 1 -11 -2 2 -15z"/>
<path d="M1780 2950 c-35 -7 -35 -7 -5 -9 17 0 37 4 45 9 17 11 11 11 -40 0z"/>
<path d="M1785 2900 c-3 -5 1 -10 10 -10 9 0 13 5 10 10 -3 6 -8 10 -10 10 -2
0 -7 -4 -10 -10z"/>
<path d="M1740 2896 c0 -2 7 -6 15 -10 8 -3 15 -1 15 4 0 6 -7 10 -15 10 -8 0
-15 -2 -15 -4z"/>
<path d="M1868 2893 c7 -3 16 -2 19 1 4 3 -2 6 -13 5 -11 0 -14 -3 -6 -6z"/>
<path d="M1938 2883 c6 -2 18 -2 25 0 6 3 1 5 -13 5 -14 0 -19 -2 -12 -5z"/>
<path d="M1945 2860 c3 -5 12 -10 20 -10 8 0 17 5 20 10 4 6 -5 10 -20 10 -15
0 -24 -4 -20 -10z"/>
<path d="M1828 2853 c7 -3 16 -2 19 1 4 3 -2 6 -13 5 -11 0 -14 -3 -6 -6z"/>
<path d="M1950 2830 c-23 -7 -23 -8 -3 -9 12 -1 25 4 28 9 3 6 5 10 3 9 -2 -1
-14 -5 -28 -9z"/>
<path d="M2015 2770 c-3 -5 1 -10 10 -10 9 0 13 5 10 10 -3 6 -8 10 -10 10 -2
0 -7 -4 -10 -10z"/>
<path d="M2045 2720 c-3 -5 1 -10 10 -10 9 0 13 5 10 10 -3 6 -8 10 -10 10 -2
0 -7 -4 -10 -10z"/>
<path d="M2043 2683 c-14 -3 -20 -9 -16 -18 4 -12 8 -12 21 1 14 15 17 15 29
-2 7 -10 13 -13 13 -7 0 6 10 9 23 7 12 -2 16 -2 9 2 -6 3 -10 10 -6 15 5 9
-31 10 -73 2z"/>
<path d="M2010 2600 c0 -5 5 -10 10 -10 6 0 10 5 10 10 0 6 -4 10 -10 10 -5 0
-10 -4 -10 -10z"/>
<path d="M2095 2840 c3 -5 12 -7 20 -3 21 7 19 13 -6 13 -11 0 -18 -4 -14 -10z"/>
<path d="M2535 2809 c-103 -13 -103 -20 0 -13 50 3 112 8 138 9 27 2 51 6 54
9 9 8 -109 5 -192 -5z"/>
<path d="M2390 2790 c-12 -8 -9 -10 13 -10 16 0 26 4 22 10 -8 12 -16 12 -35
0z"/>
<path d="M2328 2783 c6 -2 18 -2 25 0 6 3 1 5 -13 5 -14 0 -19 -2 -12 -5z"/>
<path d="M2650 2760 c0 -5 14 -10 31 -10 17 0 28 4 24 10 -3 6 -17 10 -31 10
-13 0 -24 -4 -24 -10z"/>
<path d="M2435 2750 c-16 -7 -13 -9 15 -9 19 0 55 4 80 8 l45 8 -60 1 c-33 0
-69 -3 -80 -8z"/>
<path d="M2378 2743 c6 -2 18 -2 25 0 6 3 1 5 -13 5 -14 0 -19 -2 -12 -5z"/>
<path d="M2198 2728 c-7 -4 9 -5 37 -2 27 3 52 7 54 10 8 8 -78 1 -91 -8z"/>
<path d="M2308 2733 c7 -3 16 -2 19 1 4 3 -2 6 -13 5 -11 0 -14 -3 -6 -6z"/>
<path d="M2655 2730 c3 -5 10 -10 16 -10 5 0 9 5 9 10 0 6 -7 10 -16 10 -8 0
-12 -4 -9 -10z"/>
<path d="M2248 2703 c6 -2 18 -2 25 0 6 3 1 5 -13 5 -14 0 -19 -2 -12 -5z"/>
<path d="M2604 2694 c9 -8 20 -12 26 -9 15 9 2 25 -21 25 -19 0 -19 -1 -5 -16z"/>
<path d="M2285 2680 c-3 -5 -1 -10 4 -10 6 0 11 5 11 10 0 6 -2 10 -4 10 -3 0
-8 -4 -11 -10z"/>
<path d="M725 2850 c3 -5 11 -10 16 -10 6 0 7 5 4 10 -3 6 -11 10 -16 10 -6 0
-7 -4 -4 -10z"/>
<path d="M665 2830 c-3 -5 1 -10 9 -10 8 0 18 5 21 10 3 6 -1 10 -9 10 -8 0
-18 -4 -21 -10z"/>
<path d="M715 2822 c-22 -9 -46 -21 -53 -25 -19 -13 -14 -27 9 -27 15 0 19 5
15 16 -3 8 -2 12 3 9 5 -3 12 -1 16 5 3 5 18 10 33 10 22 0 24 -2 12 -11 -13
-8 -12 -10 4 -7 21 3 34 48 13 47 -6 0 -30 -8 -52 -17z"/>
<path d="M590 2716 c0 -9 7 -12 20 -9 11 3 20 9 20 14 0 5 -9 9 -20 9 -11 0
-20 -6 -20 -14z"/>
<path d="M630 2690 c-12 -8 -11 -10 7 -10 12 0 25 5 28 10 8 13 -15 13 -35 0z"/>
<path d="M530 2650 c0 -5 5 -10 10 -10 6 0 10 5 10 10 0 6 -4 10 -10 10 -5 0
-10 -4 -10 -10z"/>
<path d="M660 2650 c-12 -8 -11 -10 8 -10 12 0 22 5 22 10 0 13 -11 13 -30 0z"/>
<path d="M580 2540 c-9 -6 -10 -10 -3 -10 6 0 15 5 18 10 8 12 4 12 -15 0z"/>
<path d="M1375 2850 c-4 -6 -3 -16 3 -22 6 -6 12 -6 17 2 4 6 3 16 -3 22 -6 6
-12 6 -17 -2z"/>
<path d="M1530 2569 c0 -5 5 -7 10 -4 6 3 10 8 10 11 0 2 -4 4 -10 4 -5 0 -10
-5 -10 -11z"/>
<path d="M1570 2566 c0 -28 27 -49 55 -42 14 4 25 11 25 17 0 6 -9 9 -20 6
-13 -3 -28 2 -40 16 -18 18 -20 19 -20 3z"/>
<path d="M1671 2554 c-9 -20 -9 -25 0 -22 14 5 32 48 20 48 -4 0 -13 -12 -20
-26z"/>
<path d="M1467 2544 c-4 -4 -7 -15 -7 -24 0 -26 -57 -47 -83 -31 -17 11 -19
11 -13 -4 3 -9 6 -19 6 -21 0 -2 11 -4 25 -4 38 0 75 21 81 46 7 27 2 48 -9
38z"/>
<path d="M1131 2505 c-19 -6 -40 -24 -48 -38 -15 -30 -49 -52 -57 -38 -9 14
-66 32 -66 20 0 -5 7 -9 15 -9 8 0 19 -9 25 -20 21 -39 89 -20 105 29 4 15 25
31 58 46 39 18 45 24 27 23 -14 0 -40 -6 -59 -13z"/>
<path d="M1264 2481 c32 -21 54 -18 35 5 -6 8 -23 14 -38 14 l-26 0 29 -19z"/>
<path d="M1570 2386 c0 -24 17 -28 23 -6 3 13 0 20 -9 20 -8 0 -14 -6 -14 -14z"/>
<path d="M1413 2334 c-7 -7 -13 -17 -13 -21 0 -4 -16 -19 -34 -33 -38 -28 -82
-87 -73 -96 11 -12 39 6 33 21 -3 9 12 29 42 54 60 51 89 77 83 74 -2 -2 -9 1
-15 6 -7 6 -16 4 -23 -5z"/>
<path d="M1566 2335 c-9 -26 -7 -32 5 -12 6 10 9 21 6 23 -2 3 -7 -2 -11 -11z"/>
<path d="M1475 2330 c-3 -5 -2 -10 4 -10 5 0 13 5 16 10 3 6 2 10 -4 10 -5 0
-13 -4 -16 -10z"/>
<path d="M1490 2300 c0 -5 5 -10 10 -10 6 0 10 5 10 10 0 6 -4 10 -10 10 -5 0
-10 -4 -10 -10z"/>
<path d="M1412 2268 c-45 -34 -56 -68 -23 -68 11 0 23 5 26 10 3 6 -1 10 -9
10 -9 0 -16 5 -16 11 0 5 4 8 9 5 5 -3 16 5 25 19 9 14 23 25 31 25 8 0 15 5
15 10 0 17 -15 11 -58 -22z"/>
<path d="M1517 2283 c-4 -3 -7 -15 -7 -25 0 -10 -7 -21 -15 -24 -17 -7 -20
-50 -4 -60 7 -4 9 0 5 14 -4 13 -2 24 7 29 16 9 40 73 28 73 -4 0 -11 -3 -14
-7z"/>
<path d="M1740 2212 c0 -28 32 -58 50 -47 19 12 10 35 -12 32 -18 -2 -23 3
-21 21 2 12 -2 22 -7 22 -6 0 -10 -12 -10 -28z"/>
<path d="M1140 2125 c0 -8 5 -15 12 -15 7 0 -9 -13 -35 -30 -30 -19 -47 -37
-47 -49 0 -28 10 -31 45 -16 l30 13 -28 1 -28 1 33 30 c18 17 39 30 46 30 9 0
12 6 8 16 -3 9 -6 20 -6 25 0 5 -7 9 -15 9 -8 0 -15 -7 -15 -15z"/>
<path d="M1195 2120 c-3 -5 -2 -10 4 -10 5 0 13 5 16 10 3 6 2 10 -4 10 -5 0
-13 -4 -16 -10z"/>
<path d="M1278 2103 c7 -3 16 -2 19 1 4 3 -2 6 -13 5 -11 0 -14 -3 -6 -6z"/>
<path d="M1421 2099 c0 -9 -9 -27 -19 -39 -19 -24 -32 -26 -194 -32 -32 -2
-54 -6 -50 -10 8 -8 69 -10 167 -5 66 4 71 6 88 35 10 17 16 40 14 49 -4 15
-5 15 -6 2z"/>
<path d="M1718 2103 c7 -3 16 -2 19 1 4 3 -2 6 -13 5 -11 0 -14 -3 -6 -6z"/>
<path d="M735 2070 c-3 -5 -1 -10 4 -10 6 0 11 5 11 10 0 6 -2 10 -4 10 -3 0
-8 -4 -11 -10z"/>
<path d="M1030 2050 c-17 -16 -29 -34 -25 -40 7 -12 25 -4 25 11 0 6 12 21 28
34 15 13 22 25 16 25 -7 0 -26 -13 -44 -30z"/>
<path d="M1720 1930 c0 -14 35 -30 65 -30 22 0 24 2 13 13 -16 17 -78 30 -78
17z"/>
<path d="M1615 1869 c-4 -6 -21 -9 -39 -8 -48 3 -76 0 -76 -9 0 -5 15 -9 33
-9 17 0 41 -3 53 -7 21 -7 54 14 54 35 0 12 -17 11 -25 -2z"/>
<path d="M1300 1858 c0 -4 9 -8 20 -8 11 0 20 4 20 8 0 4 -9 8 -20 8 -11 0
-20 -4 -20 -8z"/>
<path d="M1480 1831 c0 -7 -4 -9 -10 -6 -5 3 -10 2 -10 -4 0 -5 -19 -16 -42
-24 -33 -11 -43 -19 -41 -34 1 -11 -7 -29 -17 -38 -23 -20 -26 -45 -8 -63 9
-9 9 -18 0 -37 -11 -23 -9 -29 15 -50 16 -13 42 -29 58 -36 17 -6 40 -16 51
-21 14 -7 28 -7 39 -1 14 8 9 11 -25 17 -55 9 -69 17 -44 28 15 7 14 7 -7 3
-32 -6 -66 29 -61 64 2 13 -2 35 -9 48 -11 21 -10 25 10 39 13 10 21 24 19 37
-2 18 3 23 30 25 32 3 73 45 58 59 -3 3 -6 1 -6 -6z"/>
<path d="M1350 1800 c0 -5 5 -10 10 -10 6 0 10 5 10 10 0 6 -4 10 -10 10 -5 0
-10 -4 -10 -10z"/>
<path d="M680 1790 c0 -5 12 -10 26 -10 14 0 23 4 19 10 -3 6 -15 10 -26 10
-10 0 -19 -4 -19 -10z"/>
<path d="M1803 1753 c-14 -5 -18 -53 -5 -53 10 0 42 33 42 42 0 9 -24 16 -37
11z"/>
<path d="M1574 1735 c-10 -8 -14 -14 -9 -15 15 0 40 18 34 24 -3 3 -14 -1 -25
-9z"/>
<path d="M1623 1723 c9 -2 23 -2 30 0 6 3 -1 5 -18 5 -16 0 -22 -2 -12 -5z"/>
<path d="M1610 1700 c0 -5 6 -10 14 -10 8 0 18 5 21 10 3 6 -3 10 -14 10 -12
0 -21 -4 -21 -10z"/>
<path d="M1499 1680 c-13 -10 -20 -19 -16 -20 11 0 67 29 67 35 0 12 -30 3
-51 -15z"/>
<path d="M1553 1685 c-24 -27 -6 -48 22 -27 14 10 15 42 1 42 -6 -1 -17 -7
-23 -15z"/>
<path d="M1633 1678 c-13 -6 -23 -14 -23 -19 0 -12 53 6 58 19 4 14 -5 14 -35
0z"/>
<path d="M1447 1650 c3 -11 11 -20 18 -20 8 0 11 8 8 20 -3 11 -11 20 -18 20
-8 0 -11 -8 -8 -20z"/>
<path d="M1705 1546 c-54 -19 -101 -39 -103 -45 -5 -16 13 -13 55 9 21 10 54
22 73 25 46 7 90 25 90 36 0 13 -5 12 -115 -25z"/>
<path d="M1320 1559 c0 -5 5 -7 10 -4 6 3 10 8 10 11 0 2 -4 4 -10 4 -5 0 -10
-5 -10 -11z"/>
<path d="M1840 1560 c0 -5 7 -10 15 -10 8 0 15 5 15 10 0 6 -7 10 -15 10 -8 0
-15 -4 -15 -10z"/>
<path d="M1560 1496 c0 -17 7 -27 23 -32 12 -3 29 -13 38 -21 15 -12 22 -12
54 1 50 21 64 20 86 -6 11 -11 22 -19 25 -15 3 3 -4 16 -15 29 -19 20 -30 22
-86 20 -58 -3 -66 -1 -88 22 -30 32 -37 33 -37 2z"/>
<path d="M1265 1433 c-11 -3 -24 -9 -29 -14 -15 -14 14 -10 49 6 29 13 19 17
-20 8z"/>
<path d="M630 1410 c0 -5 5 -10 10 -10 6 0 10 5 10 10 0 6 -4 10 -10 10 -5 0
-10 -4 -10 -10z"/>
<path d="M1070 1409 c0 -5 5 -7 10 -4 6 3 10 8 10 11 0 2 -4 4 -10 4 -5 0 -10
-5 -10 -11z"/>
<path d="M1820 1410 c0 -5 5 -10 10 -10 6 0 10 5 10 10 0 6 -4 10 -10 10 -5 0
-10 -4 -10 -10z"/>
<path d="M1585 1400 c3 -5 10 -10 16 -10 5 0 9 5 9 10 0 6 -7 10 -16 10 -8 0
-12 -4 -9 -10z"/>
<path d="M1121 1389 c-40 -16 -18 -20 30 -5 31 10 37 14 19 14 -14 1 -36 -4
-49 -9z"/>
<path d="M1790 1382 c-42 -6 -47 -22 -8 -22 20 0 39 4 43 9 7 13 -5 18 -35 13z"/>
<path d="M1858 1383 c6 -2 18 -2 25 0 6 3 1 5 -13 5 -14 0 -19 -2 -12 -5z"/>
<path d="M1006 1361 c-4 -5 3 -7 14 -4 23 6 26 13 6 13 -8 0 -17 -4 -20 -9z"/>
<path d="M1720 1340 c-12 -8 -11 -10 8 -10 12 0 22 5 22 10 0 13 -11 13 -30 0z"/>
<path d="M1135 1330 c-3 -5 1 -10 9 -10 8 0 18 5 21 10 3 6 -1 10 -9 10 -8 0
-18 -4 -21 -10z"/>
<path d="M1028 1303 c-10 -2 -18 -8 -18 -13 0 -4 9 -6 20 -3 11 3 20 9 20 14
0 5 -1 8 -2 8 -2 -1 -11 -3 -20 -6z"/>
<path d="M1458 1303 c6 -2 18 -2 25 0 6 3 1 5 -13 5 -14 0 -19 -2 -12 -5z"/>
<path d="M1400 1285 c-7 -8 -9 -15 -4 -15 5 0 -9 -9 -31 -20 l-40 -20 55 6
c56 6 80 18 80 37 0 7 -4 7 -12 -1 -18 -18 -30 -14 -23 8 7 24 -7 26 -25 5z"/>
<path d="M1500 1270 c0 -5 11 -10 24 -10 14 0 28 5 31 10 4 6 -7 10 -24 10
-17 0 -31 -4 -31 -10z"/>
<path d="M1718 1273 c7 -3 16 -2 19 1 4 3 -2 6 -13 5 -11 0 -14 -3 -6 -6z"/>
<path d="M1775 1260 c3 -5 13 -10 21 -10 8 0 14 5 14 10 0 6 -9 10 -21 10 -11
0 -17 -4 -14 -10z"/>
<path d="M1095 1245 l-40 -14 60 5 c33 3 64 10 70 15 14 14 -44 10 -90 -6z"/>
<path d="M1535 1233 c-33 -14 -75 -31 -94 -39 -19 -8 -32 -17 -29 -20 5 -5
206 71 217 81 12 13 -41 0 -94 -22z"/>
<path d="M1260 1220 c-12 -8 -10 -10 8 -10 13 0 20 4 17 10 -7 12 -6 12 -25 0z"/>
<path d="M1658 1218 c-16 -5 -28 -14 -28 -19 0 -8 66 14 79 26 7 8 -22 4 -51
-7z"/>
<path d="M650 1210 c0 -6 7 -10 15 -10 8 0 15 2 15 4 0 2 -7 6 -15 10 -8 3
-15 1 -15 -4z"/>
<path d="M845 1200 c-3 -5 -1 -10 4 -10 6 0 11 5 11 10 0 6 -2 10 -4 10 -3 0
-8 -4 -11 -10z"/>
<path d="M1185 1200 c-7 -12 12 -12 40 0 18 8 17 9 -7 9 -15 1 -30 -3 -33 -9z"/>
<path d="M1148 1183 c7 -3 16 -2 19 1 4 3 -2 6 -13 5 -11 0 -14 -3 -6 -6z"/>
<path d="M1728 1158 c9 -9 15 -9 24 0 9 9 7 12 -12 12 -19 0 -21 -3 -12 -12z"/>
<path d="M1200 1129 c0 -5 5 -7 10 -4 6 3 10 8 10 11 0 2 -4 4 -10 4 -5 0 -10
-5 -10 -11z"/>
<path d="M1238 1133 c7 -3 16 -2 19 1 4 3 -2 6 -13 5 -11 0 -14 -3 -6 -6z"/>
<path d="M1360 1120 c-9 -6 -10 -10 -3 -10 6 0 15 5 18 10 8 12 4 12 -15 0z"/>
<path d="M1125 1101 c3 -6 -3 -14 -12 -20 -28 -16 -5 -13 27 4 37 19 38 25 4
25 -14 0 -23 -4 -19 -9z"/>
<path d="M1558 1073 c-38 -14 -68 -29 -68 -34 0 -8 44 4 97 27 17 8 36 14 41
14 6 0 14 5 17 10 10 16 -14 11 -87 -17z"/>
<path d="M1760 1080 c0 -5 -9 -10 -20 -10 -11 0 -20 -4 -20 -9 0 -6 15 -5 38
1 48 13 64 28 29 28 -15 0 -27 -4 -27 -10z"/>
<path d="M1587 1025 c-59 -13 -85 -25 -51 -25 32 1 96 18 107 29 6 6 9 11 7
10 -3 -1 -31 -7 -63 -14z"/>
<path d="M1698 1023 c7 -3 16 -2 19 1 4 3 -2 6 -13 5 -11 0 -14 -3 -6 -6z"/>
<path d="M328 2783 c6 -2 18 -2 25 0 6 3 1 5 -13 5 -14 0 -19 -2 -12 -5z"/>
<path d="M2360 2530 c-23 -7 -22 -8 10 -8 19 0 55 3 80 7 l45 8 -55 1 c-30 0
-66 -4 -80 -8z"/>
<path d="M2110 2389 c0 -6 14 -8 37 -4 52 8 54 15 5 15 -23 0 -42 -5 -42 -11z"/>
<path d="M2220 2390 c20 -13 40 -13 40 0 0 6 -12 10 -27 10 -22 0 -25 -2 -13
-10z"/>
<path d="M2168 2253 c7 -3 16 -2 19 1 4 3 -2 6 -13 5 -11 0 -14 -3 -6 -6z"/>
<path d="M188 2453 c7 -3 16 -2 19 1 4 3 -2 6 -13 5 -11 0 -14 -3 -6 -6z"/>
<path d="M210 2115 c0 -8 7 -15 15 -15 9 0 12 6 9 15 -4 8 -10 15 -15 15 -5 0
-9 -7 -9 -15z"/>
<path d="M513 2433 c9 -2 25 -2 35 0 9 3 1 5 -18 5 -19 0 -27 -2 -17 -5z"/>
<path d="M445 2370 c-4 -6 11 -10 39 -10 25 0 48 5 51 10 4 6 -11 10 -39 10
-25 0 -48 -4 -51 -10z"/>
<path d="M540 2327 l-25 -10 30 -7 c32 -7 45 -4 45 10 0 14 -24 18 -50 7z"/>
<path d="M435 2300 c-7 -12 2 -12 30 0 19 8 19 9 -2 9 -12 1 -25 -3 -28 -9z"/>
<path d="M560 2220 c0 -5 4 -10 9 -10 6 0 13 5 16 10 3 6 -1 10 -9 10 -9 0
-16 -4 -16 -10z"/>
<path d="M453 2149 c-50 -14 -39 -27 12 -15 25 6 45 14 45 18 0 10 -16 9 -57
-3z"/>
<path d="M2275 2004 c-20 -15 -20 -16 4 -12 14 2 26 9 29 16 5 16 -9 15 -33
-4z"/>
<path d="M2300 1930 c0 -23 0 -23 35 -10 31 12 24 30 -11 30 -17 0 -24 -5 -24
-20z"/>
<path d="M2718 1943 c7 -3 16 -2 19 1 4 3 -2 6 -13 5 -11 0 -14 -3 -6 -6z"/>
<path d="M2568 1913 c7 -3 16 -2 19 1 4 3 -2 6 -13 5 -11 0 -14 -3 -6 -6z"/>
<path d="M2430 1940 c-13 -8 -12 -10 3 -10 9 0 17 5 17 10 0 12 -1 12 -20 0z"/>
<path d="M2410 1864 c0 -16 15 -17 45 -4 23 10 21 11 -17 16 -19 2 -28 -2 -28
-12z"/>
<path d="M2423 1783 c9 -2 23 -2 30 0 6 3 -1 5 -18 5 -16 0 -22 -2 -12 -5z"/>
<path d="M2625 1739 c-125 -12 -141 -16 -65 -18 82 -1 170 9 170 20 0 5 -3 8
-7 8 -5 -1 -48 -6 -98 -10z"/>
<path d="M2433 1723 c9 -2 25 -2 35 0 9 3 1 5 -18 5 -19 0 -27 -2 -17 -5z"/>
<path d="M2424 1521 c7 -10 31 -9 42 2 4 4 -5 7 -20 7 -15 0 -25 -4 -22 -9z"/>
<path d="M2488 1523 c6 -2 18 -2 25 0 6 3 1 5 -13 5 -14 0 -19 -2 -12 -5z"/>
<path d="M2573 1343 c15 -2 39 -2 55 0 15 2 2 4 -28 4 -30 0 -43 -2 -27 -4z"/>
<path d="M537 1703 c-12 -12 -7 -22 8 -17 8 4 15 10 15 15 0 11 -14 12 -23 2z"/>
<path d="M187 1612 c-11 -16 9 -31 51 -38 28 -4 42 -3 42 5 0 6 -9 11 -19 11
-11 0 -21 4 -23 9 -5 12 -45 23 -51 13z"/>
<path d="M228 1503 c6 -2 18 -2 25 0 6 3 1 5 -13 5 -14 0 -19 -2 -12 -5z"/>
<path d="M280 1430 c0 -5 7 -10 15 -10 8 0 15 5 15 10 0 6 -7 10 -15 10 -8 0
-15 -4 -15 -10z"/>
<path d="M168 1423 c7 -3 16 -2 19 1 4 3 -2 6 -13 5 -11 0 -14 -3 -6 -6z"/>
<path d="M168 1373 c7 -3 16 -2 19 1 4 3 -2 6 -13 5 -11 0 -14 -3 -6 -6z"/>
<path d="M2258 1683 c7 -3 16 -2 19 1 4 3 -2 6 -13 5 -11 0 -14 -3 -6 -6z"/>
<path d="M2226 1573 c-4 -10 -4 -14 0 -10 4 4 13 2 20 -4 9 -8 11 -5 7 10 -7
25 -19 27 -27 4z"/>
<path d="M2270 1470 c0 -5 9 -10 21 -10 11 0 17 5 14 10 -3 6 -13 10 -21 10
-8 0 -14 -4 -14 -10z"/>
<path d="M2293 1413 c9 -2 25 -2 35 0 9 3 1 5 -18 5 -19 0 -27 -2 -17 -5z"/>
<path d="M2586 1592 c-3 -5 33 -8 80 -8 46 1 84 4 84 9 0 10 -158 9 -164 -1z"/>
<path d="M2595 1525 c23 -8 135 -11 135 -3 0 4 -33 8 -72 7 -40 0 -68 -2 -63
-4z"/>
<path d="M2596 1471 c-3 -4 6 -6 19 -3 14 2 25 6 25 8 0 8 -39 4 -44 -5z"/>
<path d="M2651 1476 c7 -8 98 -10 105 -3 4 4 -19 7 -51 7 -32 0 -56 -2 -54 -4z"/>
<path d="M2230 1138 c0 -4 32 -8 72 -8 39 0 68 3 64 8 -10 10 -136 10 -136 0z"/>
<path d="M228 1121 c12 -7 62 -4 62 5 0 2 -17 4 -37 4 -24 0 -33 -3 -25 -9z"/>
<path d="M2608 1043 c7 -3 16 -2 19 1 4 3 -2 6 -13 5 -11 0 -14 -3 -6 -6z"/>
<path d="M2693 1043 c26 -2 47 -8 47 -13 0 -5 7 -7 15 -4 34 13 11 24 -47 22
-57 -1 -58 -2 -15 -5z"/>
<path d="M2660 990 l-45 -7 42 -1 c23 -1 45 3 48 8 3 6 5 9 3 8 -2 0 -23 -4
-48 -8z"/>
<path d="M2705 900 c-3 -5 -1 -10 4 -10 6 0 11 5 11 10 0 6 -2 10 -4 10 -3 0
-8 -4 -11 -10z"/>
<path d="M2638 883 c6 -2 18 -2 25 0 6 3 1 5 -13 5 -14 0 -19 -2 -12 -5z"/>
<path d="M2378 763 c7 -3 16 -2 19 1 4 3 -2 6 -13 5 -11 0 -14 -3 -6 -6z"/>
<path d="M2488 763 c46 -2 118 -2 160 0 42 1 5 3 -83 3 -88 0 -123 -2 -77 -3z"/>
<path d="M2708 723 c12 -2 30 -2 40 0 9 3 -1 5 -23 4 -22 0 -30 -2 -17 -4z"/>
<path d="M2565 693 c-27 -2 -54 -9 -60 -15 -7 -7 0 -9 24 -4 18 3 49 6 67 6
19 0 34 5 34 10 0 6 -3 9 -7 8 -5 -1 -30 -3 -58 -5z"/>
<path d="M2430 680 c-24 -8 -24 -8 7 -9 17 -1 35 4 38 9 7 11 -9 11 -45 0z"/>
<path d="M148 963 c7 -3 16 -2 19 1 4 3 -2 6 -13 5 -11 0 -14 -3 -6 -6z"/>
<path d="M260 950 c-13 -8 -12 -10 3 -10 9 0 17 5 17 10 0 12 -1 12 -20 0z"/>
<path d="M160 760 c0 -5 5 -10 11 -10 5 0 7 5 4 10 -3 6 -8 10 -11 10 -2 0 -4
-4 -4 -10z"/>
<path d="M235 760 c-3 -5 1 -10 9 -10 8 0 18 5 21 10 3 6 -1 10 -9 10 -8 0
-18 -4 -21 -10z"/>
<path d="M165 670 c3 -5 8 -10 11 -10 2 0 4 5 4 10 0 6 -5 10 -11 10 -5 0 -7
-4 -4 -10z"/>
<path d="M340 596 c0 -2 9 -6 20 -9 11 -3 18 -1 14 4 -5 9 -34 13 -34 5z"/>
<path d="M1680 850 c0 -4 36 -9 80 -9 44 0 80 4 80 9 0 5 -36 9 -80 9 -44 0
-80 -4 -80 -9z"/>
<path d="M2248 673 c7 -3 16 -2 19 1 4 3 -2 6 -13 5 -11 0 -14 -3 -6 -6z"/>
<path d="M1875 610 c22 -5 44 -4 50 1 5 5 -11 9 -40 8 l-50 -1 40 -8z"/>
<path d="M1593 593 c-15 -5 -17 -23 -4 -23 5 0 11 7 15 15 3 8 4 15 3 14 -1 0
-8 -3 -14 -6z"/>
<path d="M1740 530 c0 -5 5 -10 11 -10 5 0 7 5 4 10 -3 6 -8 10 -11 10 -2 0
-4 -4 -4 -10z"/>
<path d="M1770 530 c0 -5 14 -10 32 -10 35 0 30 12 -7 17 -14 2 -25 -1 -25 -7z"/>
<path d="M1520 500 c-9 -6 -10 -10 -3 -10 6 0 15 5 18 10 8 12 4 12 -15 0z"/>
<path d="M1840 460 c-13 -8 -12 -10 3 -10 9 0 17 5 17 10 0 12 -1 12 -20 0z"/>
<path d="M1523 443 c15 -2 37 -2 50 0 12 2 0 4 -28 4 -27 0 -38 -2 -22 -4z"/>
<path d="M1723 433 c9 -2 25 -2 35 0 9 3 1 5 -18 5 -19 0 -27 -2 -17 -5z"/>
<path d="M1798 433 c6 -2 18 -2 25 0 6 3 1 5 -13 5 -14 0 -19 -2 -12 -5z"/>
<path d="M2010 580 c0 -5 7 -10 15 -10 8 0 15 5 15 10 0 6 -7 10 -15 10 -8 0
-15 -4 -15 -10z"/>
<path d="M2175 530 c-4 -6 5 -10 19 -10 14 0 26 5 26 10 0 6 -9 10 -19 10 -11
0 -23 -4 -26 -10z"/>
<path d="M2248 533 c6 -2 18 -2 25 0 6 3 1 5 -13 5 -14 0 -19 -2 -12 -5z"/>
<path d="M2060 520 c9 -4 31 -5 50 0 34 8 33 8 -15 9 -34 0 -45 -3 -35 -9z"/>
<path d="M2145 480 c-7 -12 37 -12 110 0 49 7 48 7 -27 9 -42 0 -80 -3 -83 -9z"/>
<path d="M2655 573 c38 -2 75 -9 82 -15 10 -8 13 -6 13 6 0 14 -12 16 -82 14
l-83 -2 70 -3z"/>
<path d="M2590 510 c-22 -7 -21 -8 13 -9 23 -1 36 3 32 9 -7 11 -10 11 -45 0z"/>
<path d="M1265 550 c-8 -13 25 -13 45 0 12 8 9 10 -12 10 -15 0 -30 -4 -33
-10z"/>
<path d="M365 480 c-3 -6 1 -7 9 -4 18 7 21 14 7 14 -6 0 -13 -4 -16 -10z"/>
<path d="M148 393 c7 -3 16 -2 19 1 4 3 -2 6 -13 5 -11 0 -14 -3 -6 -6z"/>
<path d="M348 383 c6 -2 18 -2 25 0 6 3 1 5 -13 5 -14 0 -19 -2 -12 -5z"/>
<path d="M337 346 c-3 -8 -18 -16 -34 -19 -15 -2 8 -4 52 -4 44 -1 71 2 60 6
-19 8 -19 8 0 19 17 10 13 11 -26 12 -32 0 -49 -5 -52 -14z"/>
<path d="M415 209 c-43 -4 -26 -6 60 -6 66 0 134 4 150 8 36 8 -122 7 -210 -2z"/>
<path d="M273 143 c9 -2 23 -2 30 0 6 3 -1 5 -18 5 -16 0 -22 -2 -12 -5z"/>
<path d="M548 533 c7 -3 16 -2 19 1 4 3 -2 6 -13 5 -11 0 -14 -3 -6 -6z"/>
<path d="M538 443 c12 -2 30 -2 40 0 9 3 -1 5 -23 4 -22 0 -30 -2 -17 -4z"/>
<path d="M1128 313 c-16 -2 -28 -8 -28 -13 0 -13 88 -6 102 8 13 13 -13 14
-74 5z"/>
<path d="M947 284 c-16 -9 -27 -17 -25 -20 7 -7 68 17 68 27 0 12 -10 11 -43
-7z"/>
<path d="M1015 290 c-3 -5 -2 -10 4 -10 5 0 13 5 16 10 3 6 2 10 -4 10 -5 0
-13 -4 -16 -10z"/>
<path d="M1165 270 c-11 -5 -36 -9 -57 -9 -20 -1 -38 -6 -40 -11 -2 -6 -14 -7
-33 -1 -32 9 -73 0 -65 -15 3 -5 -7 -10 -22 -12 -16 -2 -28 -8 -28 -13 0 -13
77 -11 85 1 5 8 11 8 20 0 14 -11 145 -7 165 5 18 11 11 24 -17 28 -19 3 -15
4 15 6 39 1 42 3 28 16 -16 17 -22 17 -51 5z"/>
<path d="M1332 338 c3 -7 13 -15 23 -17 17 -3 17 -2 3 13 -20 19 -31 21 -26 4z"/>
<path d="M1438 263 c7 -3 16 -2 19 1 4 3 -2 6 -13 5 -11 0 -14 -3 -6 -6z"/>
<path d="M1480 259 c0 -5 5 -7 10 -4 6 3 10 8 10 11 0 2 -4 4 -10 4 -5 0 -10
-5 -10 -11z"/>
<path d="M1518 263 c6 -2 18 -2 25 0 6 3 1 5 -13 5 -14 0 -19 -2 -12 -5z"/>
<path d="M1305 190 c-7 -11 211 -7 222 4 4 3 -44 6 -105 6 -64 0 -113 -4 -117
-10z"/>
<path d="M1570 189 c0 -5 5 -7 10 -4 6 3 10 8 10 11 0 2 -4 4 -10 4 -5 0 -10
-5 -10 -11z"/>
<path d="M1615 190 c3 -5 8 -10 11 -10 2 0 4 5 4 10 0 6 -5 10 -11 10 -5 0 -7
-4 -4 -10z"/>
<path d="M2720 255 c12 -15 30 -12 30 6 0 5 -10 9 -21 9 -18 0 -19 -2 -9 -15z"/>
<path d="M2505 208 c-38 -5 -89 -11 -112 -14 -24 -3 -43 -9 -43 -13 0 -9 266
21 276 32 9 8 -27 7 -121 -5z"/>
<path d="M2668 213 c7 -3 16 -2 19 1 4 3 -2 6 -13 5 -11 0 -14 -3 -6 -6z"/>
<path d="M2745 201 c-3 -5 -1 -12 5 -16 5 -3 10 1 10 9 0 18 -6 21 -15 7z"/>
<path d="M2172 343 c2 -12 -6 -19 -27 -24 -16 -4 -23 -7 -15 -8 8 -1 26 -10
39 -20 18 -14 31 -17 47 -10 17 6 22 5 18 -5 -6 -15 -108 -26 -241 -26 -52 0
-83 -4 -83 -11 0 -7 30 -8 90 -5 52 3 101 1 117 -5 19 -7 29 -7 31 0 2 6 23
11 47 11 40 0 44 2 50 29 8 37 -9 71 -35 71 -11 0 -20 5 -20 10 0 6 -5 10 -10
10 -6 0 -10 -8 -8 -17z"/>
<path d="M2030 341 c0 -12 29 -23 41 -15 5 3 7 10 4 15 -8 12 -45 12 -45 0z"/>
<path d="M1897 323 c-3 -2 -26 -5 -51 -5 -25 0 -48 -4 -52 -9 -3 -6 20 -9 59
-8 35 1 69 -1 76 -5 7 -4 9 -2 5 8 -6 16 -29 28 -37 19z"/>
<path d="M2055 300 c-3 -5 -2 -10 4 -10 5 0 13 5 16 10 3 6 2 10 -4 10 -5 0
-13 -4 -16 -10z"/>
<path d="M1765 270 c-3 -5 -8 -19 -10 -31 -4 -19 -1 -21 27 -15 17 3 46 6 64
6 19 0 34 5 34 11 0 6 -8 9 -18 6 -11 -2 -37 -1 -58 3 l-39 7 45 10 45 11 -42
1 c-23 1 -45 -3 -48 -9z"/>
<path d="M1948 213 c7 -3 16 -2 19 1 4 3 -2 6 -13 5 -11 0 -14 -3 -6 -6z"/>
<path d="M1998 213 c12 -2 32 -2 45 0 12 2 2 4 -23 4 -25 0 -35 -2 -22 -4z"/>
<path d="M2165 210 l-40 -7 40 -1 c22 0 58 3 80 7 l40 9 -40 -1 c-22 0 -58 -3
-80 -7z"/>
<path d="M2065 200 c-11 -5 -36 -9 -55 -10 -19 -1 -29 -4 -22 -7 20 -8 122 7
122 18 0 11 -18 11 -45 -1z"/>
<path d="M1750 180 c0 -5 5 -10 10 -10 6 0 10 5 10 10 0 6 -4 10 -10 10 -5 0
-10 -4 -10 -10z"/>
<path d="M1795 170 c-3 -5 3 -10 14 -10 12 0 21 5 21 10 0 6 -6 10 -14 10 -8
0 -18 -4 -21 -10z"/>
</g>
</svg>
