<?xml version="1.0" standalone="no"?>
<!DOCTYPE svg PUBLIC "-//W3C//DTD SVG 20010904//EN"
 "http://www.w3.org/TR/2001/REC-SVG-20010904/DTD/svg10.dtd">
<svg version="1.0" xmlns="http://www.w3.org/2000/svg"
 width="249.000000pt" height="207.000000pt" viewBox="0 0 249.000000 207.000000"
 preserveAspectRatio="xMidYMid meet">
<metadata>
Created by potrace 1.16, written by Peter Selinger 2001-2019
</metadata>
<g transform="translate(0.000000,207.000000) scale(0.100000,-0.100000)"
fill="#000000" stroke="none">
<path d="M2420 2040 c0 -16 -5 -20 -17 -16 -47 13 -338 16 -603 5 -162 -6
-403 -13 -535 -15 -339 -5 -807 -23 -863 -33 -26 -5 -79 -12 -119 -16 -42 -4
-77 -13 -84 -21 -6 -8 -22 -14 -36 -14 -15 0 -27 -8 -33 -22 -8 -20 -9 -18 -9
15 -1 55 -28 50 -37 -8 -5 -35 -10 -45 -25 -45 -23 0 -25 -16 -3 -28 13 -7 15
-41 15 -243 -1 -209 3 -324 25 -727 4 -76 11 -117 20 -127 16 -15 19 -29 5
-21 -16 10 -18 -18 -10 -199 4 -99 8 -215 8 -257 1 -67 3 -78 19 -79 11 -1 8
-3 -8 -8 -13 -4 -33 -22 -44 -40 -19 -33 -19 -34 -1 -47 10 -8 32 -13 49 -13
17 1 123 -4 235 -10 112 -7 213 -10 224 -7 12 3 26 1 32 -4 14 -11 248 -18
360 -9 55 4 95 2 103 -4 8 -6 128 -7 345 -3 182 4 477 8 655 10 177 2 325 6
329 9 3 4 6 22 5 40 -4 88 -9 137 -15 144 -11 11 -8 233 3 233 6 0 10 9 10 20
0 11 -4 20 -10 20 -8 0 -14 348 -10 560 0 14 2 113 4 220 2 107 6 211 10 230
3 19 8 99 10 177 3 78 10 151 16 163 13 24 3 177 -11 186 -5 3 -9 -4 -9 -16z
m-89 -98 c1 -26 1 -50 0 -54 0 -3 -3 -104 -6 -225 -3 -120 -9 -261 -15 -313
-5 -52 -10 -131 -11 -175 -2 -70 -3 -74 -9 -35 -4 25 -8 41 -9 35 -2 -12 -29
-201 -37 -267 -4 -27 -10 -48 -14 -48 -5 0 -6 10 -3 23 4 18 3 19 -6 7 -9 -13
-11 -13 -11 0 0 9 4 20 10 26 5 5 15 42 22 83 11 64 11 74 -3 85 -11 7 -14 17
-8 31 4 11 8 31 8 45 0 23 -1 23 -9 5 -7 -17 -9 -17 -9 -2 -2 43 -20 7 -60
-120 -57 -181 -53 -173 -61 -138 -3 17 -3 35 2 41 4 6 11 33 15 59 5 42 4 48
-10 42 -14 -5 -17 0 -17 28 0 19 -4 35 -10 35 -5 0 -10 -16 -10 -35 0 -38 -14
-47 -23 -15 -4 15 -14 20 -40 20 -32 0 -37 -4 -56 -46 -12 -25 -34 -56 -49
-69 -15 -13 -23 -27 -19 -32 5 -4 17 2 27 15 10 12 21 22 24 22 3 0 5 -22 4
-50 -1 -28 -5 -50 -8 -50 -3 1 -25 21 -50 45 -49 49 -61 53 -80 30 -10 -12 -9
-15 4 -15 17 0 118 -101 109 -110 -2 -3 -10 2 -16 10 -23 31 -91 57 -140 55
-52 -2 -55 2 -29 31 45 49 92 119 88 131 -3 6 13 36 34 65 57 77 61 81 105
114 22 16 60 48 83 72 24 23 47 40 51 37 5 -2 13 7 19 20 7 15 8 26 2 30 -6 4
-13 -1 -16 -10 -4 -9 -13 -13 -23 -11 -10 4 -38 -15 -76 -50 -33 -30 -71 -61
-85 -69 -14 -8 -54 -44 -90 -80 -35 -37 -76 -73 -91 -80 -14 -8 -42 -32 -62
-54 -20 -23 -40 -41 -44 -42 -5 -1 -39 -36 -78 -79 -38 -43 -74 -78 -80 -79
-10 -2 -50 -53 -91 -119 l-22 -33 -5 43 c-3 24 -6 74 -7 112 -1 71 -18 108
-38 83 -5 -7 -12 -85 -15 -174 l-5 -163 -39 -59 c-64 -99 -64 -100 -58 -71 4
16 -7 5 -29 -30 -20 -30 -36 -60 -36 -67 0 -6 -3 -13 -7 -15 -5 -1 -18 -17
-30 -34 -16 -23 -19 -34 -11 -42 8 -8 7 -13 -4 -17 -26 -10 -71 -1 -76 15 -3
8 -1 12 3 8 7 -7 35 14 35 27 0 11 41 50 53 50 7 0 26 29 43 64 18 35 38 67
45 72 8 5 9 9 3 9 -6 0 -11 11 -11 25 -1 27 -45 98 -76 120 -20 14 -27 12 123
29 19 3 38 5 41 5 3 1 6 7 6 14 0 6 4 20 8 30 5 13 2 17 -14 17 -14 0 -21 6
-21 20 0 11 -5 20 -11 20 -6 0 -25 10 -42 22 -24 17 -46 23 -88 23 -32 0 -55
3 -53 7 3 5 14 8 24 8 11 0 38 18 61 40 23 22 44 40 46 40 1 0 4 -8 4 -17 1
-10 5 2 9 27 8 48 3 90 -10 90 -14 0 -21 -18 -10 -25 5 -3 10 -18 10 -33 l0
-27 -13 23 c-30 57 -95 65 -167 20 -19 -12 -38 -22 -41 -23 -3 0 -22 -18 -42
-40 -20 -22 -37 -38 -37 -35 0 3 4 20 10 38 8 29 7 33 -6 28 -12 -5 -14 -1 -8
17 4 12 11 37 15 56 17 74 98 109 100 43 0 -15 4 -36 8 -47 8 -19 8 -19 16 4
4 13 7 41 7 62 -1 24 7 48 21 66 l21 28 -26 -23 c-18 -17 -33 -22 -47 -17 -12
3 -35 7 -51 7 -17 1 -33 5 -36 10 -11 18 -22 6 -37 -40 -9 -26 -25 -68 -35
-92 l-19 -45 -7 39 c-6 32 -4 43 16 65 23 26 23 26 0 7 -12 -11 -23 -17 -25
-15 -2 2 -11 23 -21 46 -27 62 -52 65 -97 13 -21 -24 -39 -57 -42 -74 l-4 -30
27 33 c28 32 29 33 65 20 20 -8 41 -21 46 -30 4 -9 11 -54 13 -100 3 -46 3
-75 0 -64 -12 47 -15 50 -23 36 -7 -10 -10 -8 -16 9 -6 18 -12 20 -33 15 -15
-4 -29 -11 -33 -16 -7 -12 -29 34 -29 60 0 11 -7 21 -15 25 -12 4 -14 0 -9
-22 4 -15 12 -30 18 -34 6 -5 2 -8 -10 -8 -16 0 -23 8 -28 31 -5 26 -9 29 -20
20 -10 -8 -30 -10 -59 -6 l-45 7 -9 -39 c-5 -21 -15 -38 -22 -38 -7 0 -19 -11
-26 -25 -8 -14 -14 -19 -15 -12 0 18 48 123 67 144 8 9 12 22 7 29 -5 9 -2 10
10 6 10 -4 27 0 39 8 30 21 40 19 26 -7 -11 -22 -11 -22 7 -7 10 9 24 15 30
12 6 -2 19 7 30 19 16 19 16 20 1 9 -36 -28 -24 -4 23 49 48 52 63 83 38 79
-13 -3 -69 21 -78 32 -10 13 -108 28 -148 23 -23 -2 -60 -11 -83 -19 -23 -8
-52 -15 -66 -15 -13 0 -33 -5 -45 -11 -11 -6 -23 -8 -26 -4 -13 12 31 35 90
46 32 6 58 16 58 21 0 5 6 6 13 2 8 -5 9 -4 2 4 -7 7 -25 7 -60 -3 -27 -7 -52
-11 -54 -9 -2 2 9 25 25 51 26 42 36 50 79 61 81 20 167 30 200 22 16 -5 43
-11 59 -15 23 -5 27 -8 15 -16 -7 -5 -24 -9 -35 -9 -12 0 -24 -7 -28 -15 -7
-20 39 -20 74 0 33 19 46 19 30 0 -8 -10 -9 -15 -2 -15 6 0 16 9 22 20 7 14 7
20 0 20 -5 0 -10 6 -10 14 0 21 -83 39 -183 41 -71 1 -91 4 -98 17 -12 22 18
43 101 69 56 17 71 18 108 8 51 -14 64 -29 25 -29 -27 -1 -27 -1 -8 -16 12 -9
30 -12 46 -9 14 3 38 1 53 -5 24 -9 27 -8 24 7 -4 24 -107 74 -163 81 -32 3
-52 0 -70 -12 -15 -10 -34 -16 -43 -14 -13 3 -8 10 18 25 19 12 41 27 48 33
25 22 82 40 124 39 l43 -1 -43 -15 c-24 -8 -41 -17 -38 -20 10 -11 116 8 116
21 0 25 -26 36 -82 36 -32 0 -58 1 -58 3 0 1 7 24 15 51 19 62 19 85 0 93 -18
6 -55 -23 -55 -44 0 -22 20 -15 30 12 5 14 14 25 20 25 5 0 -1 -30 -15 -67
-23 -64 -49 -98 -65 -88 -4 3 -15 -6 -24 -19 -14 -22 -67 -56 -86 -56 -5 0 -6
35 -5 78 4 87 0 112 -20 112 -16 0 -65 -56 -65 -73 1 -7 14 3 30 22 24 28 30
31 36 18 3 -9 1 -33 -6 -54 -20 -65 -55 -153 -60 -153 -3 0 -6 33 -7 73 -2 39
-8 82 -15 95 -19 36 -54 27 -71 -20 -4 -12 -2 -15 9 -11 7 3 14 14 14 24 0 26
18 24 25 -3 7 -27 7 -35 -3 -158 -6 -74 -14 -106 -35 -145 l-27 -50 2 116 c2
89 0 115 -9 112 -16 -6 -21 -42 -27 -183 -2 -69 -10 -131 -20 -155 l-15 -40
-1 73 c0 51 -4 72 -12 72 -9 0 -8 3 2 10 13 8 15 49 13 282 -1 150 1 267 6
260 6 -11 20 -11 71 -2 34 6 69 9 78 5 8 -3 18 -1 22 5 4 7 58 16 121 21 63 5
170 13 239 19 145 12 328 15 337 6 3 -3 -29 -6 -73 -7 -101 -1 -170 -12 -167
-26 2 -7 -20 -14 -55 -18 -92 -10 -93 -13 -2 -13 47 1 130 7 185 14 55 8 165
18 245 24 80 6 209 17 288 26 84 9 165 13 198 8 37 -4 59 -3 63 4 4 7 74 14
186 17 99 4 189 11 200 15 23 11 54 14 143 17 l62 2 1 -47z m-884 22 c-3 -3
-12 -4 -19 -1 -8 3 -5 6 6 6 11 1 17 -2 13 -5z m56 -1 c-7 -2 -19 -2 -25 0 -7
3 -2 5 12 5 14 0 19 -2 13 -5z m-1063 -428 c-7 -9 -15 -13 -18 -10 -3 2 1 11
8 20 7 9 15 13 18 10 3 -2 -1 -11 -8 -20z m-67 -60 c-3 -9 -8 -14 -10 -11 -3
3 -2 9 2 15 9 16 15 13 8 -4z m1974 -47 c-2 -13 -4 -5 -4 17 -1 22 1 32 4 23
2 -10 2 -28 0 -40z m-1947 2 c-8 -5 -17 -7 -19 -4 -3 3 1 9 9 14 8 5 17 7 19
4 3 -3 -1 -9 -9 -14z m1950 -150 c-3 -59 -7 -77 -12 -60 -9 31 -10 87 -2 129
12 58 20 18 14 -69z m-1781 -47 c64 -20 64 -42 2 -60 -24 -7 -48 -16 -55 -21
-6 -5 -24 -12 -39 -16 -20 -5 -27 -11 -23 -22 10 -27 -89 -54 -169 -45 -60 7
-60 7 -30 20 17 7 45 10 63 7 22 -3 32 -1 30 6 -6 16 -57 19 -111 7 -26 -6
-50 -9 -53 -6 -3 3 1 21 10 40 17 41 51 61 119 71 26 4 65 13 85 21 51 19 110
18 171 -2z m-462 -105 c-2 -13 -4 -5 -4 17 -1 22 1 32 4 23 2 -10 2 -28 0 -40z
m413 -18 c0 -5 -7 -10 -15 -10 -8 0 -15 5 -15 10 0 6 7 10 15 10 8 0 15 -4 15
-10z m-304 -45 c-6 -16 15 -25 54 -25 58 0 97 -29 85 -62 -6 -15 -82 -62 -105
-65 -8 -1 -25 -5 -37 -9 -23 -6 -23 -5 -23 83 0 49 3 93 6 96 11 10 26 -4 20
-18z m1519 -47 c-21 -24 -50 -54 -65 -68 -15 -14 -37 -41 -51 -60 -34 -51 -38
-56 -101 -123 -69 -76 -130 -153 -151 -192 l-16 -30 -1 58 c0 41 4 57 13 57 8
0 29 21 48 48 18 26 83 98 144 160 60 62 112 118 113 123 5 14 94 80 100 74 3
-2 -12 -24 -33 -47z m-1304 13 c-14 -25 -38 -33 -45 -14 -9 22 2 33 30 33 21
0 23 -3 15 -19z m1594 -14 c10 -23 11 -45 5 -73 -4 -21 -10 -58 -13 -82 -6
-53 -13 -61 -34 -39 -25 24 -25 162 0 200 9 15 20 27 23 27 3 0 11 -15 19 -33z
m187 -12 c3 -13 1 -22 -3 -19 -5 2 -8 -8 -8 -23 0 -15 -5 -76 -10 -135 -11
-114 -26 -188 -40 -188 -11 0 -23 44 -16 62 2 7 8 60 14 118 9 101 35 210 51
210 4 0 10 -11 12 -25z m-125 -27 c-3 -8 -6 -5 -6 6 -1 11 2 17 5 13 3 -3 4
-12 1 -19z m-1006 -46 c-6 -11 -6 -24 0 -33 14 -22 12 -26 -37 -49 -35 -16
-49 -18 -54 -9 -6 9 -16 6 -39 -10 -17 -12 -31 -19 -31 -15 0 3 -8 0 -17 -7
-14 -12 -14 -9 3 20 30 52 86 112 119 126 38 16 70 3 56 -23z m1266 -9 c-3
-10 -5 -4 -5 12 0 17 2 24 5 18 2 -7 2 -21 0 -30z m-1993 -33 c-15 -28 -29
-48 -32 -46 -6 7 45 96 55 96 2 0 -8 -23 -23 -50z m259 14 c40 -38 46 -50 22
-40 -20 7 -19 -9 3 -41 l17 -27 -32 24 c-37 27 -52 22 -31 -9 8 -12 17 -19 20
-16 3 3 11 -1 17 -9 11 -13 8 -16 -16 -21 -15 -4 -46 -13 -69 -20 -37 -12 -42
-11 -53 6 -16 27 13 86 34 69 8 -6 22 -10 32 -8 13 3 7 10 -24 26 -32 17 -40
26 -36 42 3 11 12 20 19 20 8 0 19 9 26 20 17 27 27 25 71 -16z m1212 -73 c38
-20 71 -41 73 -48 5 -19 -73 9 -110 40 -18 14 -36 27 -40 27 -5 0 -8 5 -8 10
0 14 7 12 85 -29z m-1388 -3 c-3 -8 -6 -5 -6 6 -1 11 2 17 5 13 3 -3 4 -12 1
-19z m418 -18 c-17 -19 -20 -34 -5 -25 10 6 14 -6 10 -40 -3 -27 -3 -27 -32
-16 -16 6 -27 20 -30 36 -4 18 -2 25 6 22 17 -7 37 28 29 49 -5 14 -3 14 15 3
19 -12 20 -15 7 -29z m-574 -3 c-10 -9 -11 -8 -5 6 3 10 9 15 12 12 3 -3 0
-11 -7 -18z m414 -5 c-3 -3 -11 0 -18 7 -9 10 -8 11 6 5 10 -3 15 -9 12 -12z
m975 8 c0 -5 -5 -10 -11 -10 -5 0 -7 5 -4 10 3 6 8 10 11 10 2 0 4 -4 4 -10z
m436 -37 c-2 -27 -5 -59 -6 -73 l-1 -25 -23 27 c-27 31 -25 63 5 79 11 5 19
16 19 24 0 8 3 15 6 15 3 0 3 -21 0 -47z m-983 -3 c14 -12 14 -82 0 -87 -7 -3
-44 -2 -81 2 -52 6 -62 10 -42 16 14 4 21 7 16 8 -5 1 -2 8 5 17 11 14 11 18
-4 29 -15 11 -14 13 16 22 32 10 75 7 90 -7z m1163 -16 c-4 -14 -9 -24 -12
-21 -3 2 -2 17 2 31 3 15 9 25 11 22 3 -3 2 -17 -1 -32z m-516 10 c0 -2 -7 -4
-15 -4 -8 0 -15 4 -15 10 0 5 7 7 15 4 8 -4 15 -8 15 -10z m-1376 -72 c-32
-86 -43 -91 -14 -6 29 86 30 87 35 82 3 -3 -7 -37 -21 -76z m579 71 c-7 -2
-19 -2 -25 0 -7 3 -2 5 12 5 14 0 19 -2 13 -5z m847 -9 c0 -2 -9 -4 -20 -4
-11 0 -20 4 -20 9 0 5 9 7 20 4 11 -3 20 -7 20 -9z m-1597 -35 c-13 -22 -19
-26 -21 -14 -4 17 15 45 30 45 5 0 1 -14 -9 -31z m737 1 c0 -11 -21 -13 -44
-4 -13 5 -14 10 -5 20 12 15 49 2 49 -16z m600 26 c0 -2 -8 -10 -17 -17 -16
-13 -17 -12 -4 4 13 16 21 21 21 13z m100 0 c0 -2 -8 -10 -17 -17 -16 -13 -17
-12 -4 4 13 16 21 21 21 13z m-1355 -66 c-24 -52 -30 -46 -8 8 9 23 18 40 21
37 3 -3 -3 -23 -13 -45z m373 31 c2 -6 13 -11 25 -11 21 -1 21 -2 -5 -25 -16
-13 -28 -29 -28 -34 0 -16 -58 -43 -83 -39 -14 2 -23 11 -25 25 -2 13 -8 20
-16 17 -17 -7 -28 34 -16 57 6 10 20 20 32 22 36 8 112 0 116 -12z m1292 4
c11 -13 6 -15 -38 -15 -79 0 -76 24 4 29 12 0 27 -6 34 -14z m-1714 -20 c-6
-31 -48 -93 -54 -77 -2 6 6 20 18 32 12 12 19 28 16 36 -3 8 -1 14 5 14 6 0 7
5 4 10 -3 6 -1 10 5 10 6 0 8 -11 6 -25z m1999 -64 c-8 -17 -17 -31 -19 -31
-6 0 1 35 15 80 14 45 14 45 17 13 2 -17 -4 -46 -13 -62z m65 51 c0 -40 -69
-222 -84 -222 -2 0 -2 9 1 20 4 15 2 19 -9 15 -11 -4 -23 9 -42 44 -14 28 -26
56 -25 63 0 7 5 1 11 -14 8 -24 13 -26 29 -17 19 10 20 8 13 -25 -5 -30 -4
-35 8 -31 9 4 30 51 48 105 33 96 50 117 50 62z m-812 8 c-7 -10 -14 -17 -17
-15 -4 4 18 35 25 35 2 0 -1 -9 -8 -20z m262 5 c-46 -18 -61 -18 -30 0 14 8
34 14 45 14 13 0 8 -5 -15 -14z m-801 -35 c94 -34 137 -76 126 -122 -5 -19
-12 -23 -40 -23 -19 1 -42 8 -52 15 -41 31 -72 64 -68 70 3 4 -2 13 -10 20
-22 18 -18 32 5 18 10 -7 22 -9 26 -6 10 10 -5 28 -24 28 -9 0 -24 5 -32 10
-26 17 10 12 69 -10z m1122 -32 c16 -29 2 -21 -22 15 -17 23 -18 28 -6 18 10
-8 23 -23 28 -33z m-114 7 l28 -24 -47 14 c-26 8 -74 15 -106 16 -102 4 -102
18 0 18 89 1 99 -1 125 -24z m-1171 -105 c5 -12 8 -11 14 5 5 11 9 32 9 47 1
44 17 41 71 -13 60 -60 62 -83 7 -87 -20 -2 -37 -9 -37 -15 0 -7 -9 -1 -19 12
-10 13 -16 33 -14 45 4 20 4 20 -8 2 -9 -14 -9 -28 0 -58 9 -30 9 -43 1 -53
-7 -8 -10 -18 -7 -22 3 -4 -1 -39 -9 -78 -17 -89 -18 -142 -1 -148 6 -3 2 -6
-10 -6 -21 -1 -23 4 -23 48 0 27 7 85 15 128 8 43 15 91 15 107 0 28 -1 29
-15 10 -19 -26 -19 -1 0 36 9 17 13 31 10 31 -23 6 -32 -1 -47 -33 -20 -44
-48 -51 -48 -13 0 14 -7 28 -15 30 -8 3 -22 7 -31 10 -12 4 -13 9 -6 18 6 7 7
18 2 26 -10 18 -42 -40 -40 -72 3 -38 0 -47 -14 -41 -8 3 -17 1 -21 -5 -3 -6
-11 -11 -16 -11 -6 0 -3 10 5 22 20 28 21 52 2 45 -20 -8 -27 3 -13 18 8 8 16
10 23 4 8 -7 18 1 33 24 26 43 61 75 61 57 0 -8 11 -3 28 13 38 36 48 34 22
-4 -32 -44 -21 -43 20 1 l35 38 8 -51 c4 -29 10 -59 13 -67z m927 93 c-7 -2
-19 -2 -25 0 -7 3 -2 5 12 5 14 0 19 -2 13 -5z m-1221 -36 c20 -6 20 -6 -3
-39 l-23 -32 -9 37 c-5 20 -6 45 -1 55 6 15 7 15 11 1 2 -10 13 -19 25 -22z
m-107 -87 c-20 -56 -58 -145 -84 -198 -27 -53 -52 -107 -56 -120 -4 -13 -9
-21 -13 -18 -3 4 9 39 28 79 80 172 99 216 125 290 15 42 30 76 32 73 3 -2
-12 -50 -32 -106z m1185 90 c-11 -20 -30 -28 -30 -12 0 11 22 32 32 32 5 0 4
-9 -2 -20z m27 -12 c-3 -8 -6 -5 -6 6 -1 11 2 17 5 13 3 -3 4 -12 1 -19z
m-1414 -18 c3 -11 1 -20 -4 -20 -5 0 -9 9 -9 20 0 11 2 20 4 20 2 0 6 -9 9
-20z m1990 -128 c31 -70 58 -140 61 -157 4 -16 -2 -7 -13 20 -10 28 -44 101
-75 164 -60 122 -63 129 -42 112 7 -6 39 -69 69 -139z m-115 104 c3 -15 0 -16
-16 -7 -11 6 -22 7 -26 4 -3 -3 -6 -1 -6 5 0 26 43 24 48 -2z m-1847 -28 c-10
-24 -21 -50 -24 -58 -3 -8 -6 2 -6 23 -1 21 3 36 8 33 4 -3 13 6 19 19 20 43
22 27 3 -17z m309 28 c0 -2 -8 -10 -17 -17 -16 -13 -17 -12 -4 4 13 16 21 21
21 13z m872 -18 c-7 -7 -12 -8 -12 -2 0 14 12 26 19 19 2 -3 -1 -11 -7 -17z
m195 0 c-3 -8 -6 -5 -6 6 -1 11 2 17 5 13 3 -3 4 -12 1 -19z m183 15 c-65 -21
-70 -22 -70 -7 0 10 12 14 43 13 23 0 35 -3 27 -6z m188 -10 c7 -7 29 -13 48
-13 25 0 43 -8 62 -27 l27 -28 -50 -3 c-27 -2 -68 2 -92 7 -23 6 -72 11 -110
11 -37 1 -79 7 -92 14 l-24 13 39 13 c21 8 60 14 86 14 27 1 48 4 48 8 0 12
43 4 58 -9z m-693 -50 c0 -35 -12 -70 -40 -128 -22 -44 -43 -82 -46 -85 -3 -3
-15 -30 -26 -60 -15 -41 -26 -56 -43 -58 -53 -8 -53 3 7 115 31 60 75 143 97
185 23 43 43 78 47 78 3 0 5 -21 4 -47z m270 -34 c0 -34 -2 -53 -5 -43 -5 14
-8 12 -13 -11 -9 -45 -62 -119 -107 -150 -32 -22 -38 -31 -29 -41 9 -11 8 -18
-1 -29 -13 -16 -45 -21 -36 -6 4 5 1 11 -6 13 -21 7 36 110 105 189 37 42 67
81 67 88 0 14 -25 14 -51 1 -34 -19 -20 -2 24 28 23 17 44 28 47 26 2 -3 5
-32 5 -65z m765 37 c0 -16 -7 -27 -20 -31 -11 -3 -20 -11 -20 -17 0 -6 -2 -9
-5 -6 -7 7 27 77 38 78 4 0 7 -11 7 -24z m-723 -8 c-3 -8 -6 -5 -6 6 -1 11 2
17 5 13 3 -3 4 -12 1 -19z m-484 -43 c-9 -19 -18 -33 -20 -32 -5 6 21 67 29
67 4 0 0 -16 -9 -35z m-602 5 c15 -9 17 -15 9 -30 -6 -11 -17 -20 -25 -20 -8
0 -15 -4 -15 -10 0 -5 7 -10 17 -10 9 0 31 -11 49 -25 39 -30 44 -31 37 -5 -3
11 -9 18 -13 15 -11 -7 -33 22 -25 35 19 31 73 -28 88 -98 6 -33 19 -55 41
-74 l31 -27 -30 0 c-36 -1 -98 26 -162 71 -84 57 -105 89 -89 136 17 49 47 63
87 42z m139 -10 c0 -5 -4 -10 -10 -10 -5 0 -10 5 -10 10 0 6 5 10 10 10 6 0
10 -4 10 -10z m118 -26 c-1 -18 -4 -31 -8 -29 -4 2 -15 -22 -25 -53 -10 -31
-20 -50 -22 -40 -2 9 3 32 11 52 8 20 13 43 10 51 -5 12 -10 12 -32 -3 -26
-16 -27 -16 -12 3 42 58 80 67 78 19z m593 -5 c-9 -23 -10 -22 -10 11 -1 23 2
31 9 24 7 -7 7 -19 1 -35z m68 14 c-22 -59 -34 -83 -46 -88 -30 -11 2 85 34
104 10 6 19 11 20 11 1 0 -2 -12 -8 -27z m-546 11 c6 -7 -21 -105 -34 -118 -4
-5 -4 7 2 27 5 21 7 42 4 47 -14 22 11 61 28 44z m82 -23 c6 -10 -35 -101 -44
-101 -4 0 -11 4 -18 8 -13 8 -6 52 8 52 5 0 4 11 -1 25 -9 23 -7 25 20 25 16
0 31 -4 35 -9z m85 -12 c-7 -11 -14 -19 -16 -16 -7 7 7 37 17 37 6 0 5 -9 -1
-21z m880 3 c0 -4 -37 -5 -82 -3 -60 3 -73 6 -48 10 42 7 130 2 130 -7z m341
-9 c-8 -15 -10 -15 -11 -2 0 17 10 32 18 25 2 -3 -1 -13 -7 -23z m-2055 -24
l-14 -34 -1 32 c-1 17 5 33 12 36 19 7 19 2 3 -34z m1540 28 c4 -4 1 -7 -7 -8
-8 0 -27 -3 -44 -5 l-30 -4 24 14 c25 14 45 15 57 3z m-1471 -52 c-9 -20 -18
-35 -21 -32 -3 2 3 21 12 41 10 19 19 34 21 32 2 -1 -4 -20 -12 -41z m1716 24
c30 -6 58 -15 64 -20 5 -5 14 -9 21 -9 6 0 29 -7 49 -16 29 -12 35 -18 24 -25
-19 -12 -86 -11 -109 1 -19 10 -153 26 -283 34 -107 6 -112 12 -37 40 50 18
173 16 271 -5z m184 -19 c3 -5 2 -10 -4 -10 -5 0 -13 5 -16 10 -3 6 -2 10 4
10 5 0 13 -4 16 -10z m-1775 -16 c0 -8 11 -30 24 -47 l25 -32 -24 -23 c-28
-27 -39 -28 -25 -3 14 27 13 41 -4 41 -21 0 -27 14 -20 49 7 32 24 43 24 15z
m286 -20 c-4 -9 -9 -15 -11 -12 -3 3 -3 13 1 22 4 9 9 15 11 12 3 -3 3 -13 -1
-22z m1642 -9 c-3 -3 -9 2 -12 12 -6 14 -5 15 5 6 7 -7 10 -15 7 -18z m-708
-13 c0 -5 -7 -9 -15 -9 -8 0 -15 4 -15 9 0 4 7 8 15 8 8 0 15 -4 15 -8z m692
-24 c-7 -7 -12 -8 -12 -2 0 14 12 26 19 19 2 -3 -1 -11 -7 -17z m-1932 -12 c0
-7 -7 -13 -15 -13 -15 0 -20 18 -9 30 9 9 24 -2 24 -17z m930 -31 c0 -54 -1
-55 -29 -55 -24 0 -28 3 -24 20 4 15 9 18 18 10 15 -13 25 7 25 51 0 16 2 29
5 29 3 0 5 -25 5 -55z m-570 21 c0 -24 -15 -26 -28 -5 -11 16 -9 19 8 19 11 0
20 -6 20 -14z m240 10 c0 -3 -4 -8 -10 -11 -5 -3 -10 -1 -10 4 0 6 5 11 10 11
6 0 10 -2 10 -4z m272 -18 c-7 -7 -12 -8 -12 -2 0 14 12 26 19 19 2 -3 -1 -11
-7 -17z m-743 -12 c10 -12 8 -16 -11 -22 -13 -4 -28 -14 -34 -22 -7 -9 -18
-13 -29 -9 -14 6 -15 10 -5 22 7 8 18 15 25 15 7 0 15 7 19 15 7 19 20 19 35
1z m1439 5 c26 -16 -47 -22 -76 -6 -27 14 -27 14 18 14 25 1 51 -3 58 -8z
m322 -10 c0 -5 3 -16 6 -25 3 -9 2 -16 -4 -16 -5 0 -12 11 -14 25 -3 14 -1 25
3 25 5 0 9 -4 9 -9z m-1420 -33 c0 -5 -4 -8 -10 -8 -5 0 -10 10 -10 23 0 18 2
19 10 7 5 -8 10 -18 10 -22z m1333 21 c-8 -8 -16 -8 -30 0 -16 9 -14 10 12 11
21 0 26 -3 18 -11z m-1168 -15 c14 4 25 2 25 -4 0 -5 -23 -10 -51 -10 -45 0
-50 2 -39 15 10 12 16 12 26 4 8 -6 25 -8 39 -5z m1070 -4 c6 -4 26 -11 45
-16 l35 -7 -35 -11 c-42 -12 -185 -10 -243 4 -23 5 -75 10 -114 10 -42 0 -73
4 -73 10 0 12 -9 11 180 19 155 6 186 5 205 -9z m135 -5 c0 -8 -4 -15 -10 -15
-5 0 -7 7 -4 15 4 8 8 15 10 15 2 0 4 -7 4 -15z m-1832 -16 c-7 -5 -21 -9 -32
-9 -15 0 -16 3 -7 14 7 8 21 12 32 9 16 -5 18 -8 7 -14z m1185 14 c-7 -2 -19
-2 -25 0 -7 3 -2 5 12 5 14 0 19 -2 13 -5z m789 -35 c-7 -7 -12 -8 -12 -2 0
14 12 26 19 19 2 -3 -1 -11 -7 -17z m-132 -18 c0 -5 -9 -10 -19 -10 -11 0 -23
5 -26 10 -4 6 5 10 19 10 14 0 26 -4 26 -10z m-642 -17 c-16 -2 -40 -2 -55 0
-16 2 -3 4 27 4 30 0 43 -2 28 -4z m200 0 c-10 -2 -28 -2 -40 0 -13 2 -5 4 17
4 22 1 32 -1 23 -4z"/>
<path d="M1893 1863 c-3 -10 -13 -26 -20 -35 -17 -19 -9 -40 12 -31 9 3 15 -1
15 -10 0 -17 34 -32 50 -22 13 8 13 44 -1 84 -12 35 -45 43 -56 14z m47 -53
c0 -5 -5 -10 -11 -10 -5 0 -7 5 -4 10 3 6 8 10 11 10 2 0 4 -4 4 -10z"/>
<path d="M2102 1833 c5 -25 28 -28 28 -4 0 12 -6 21 -16 21 -9 0 -14 -7 -12
-17z"/>
<path d="M845 1820 c-10 -11 -28 -19 -39 -18 -13 2 -21 -3 -21 -12 0 -9 11
-16 27 -18 22 -3 30 3 43 28 20 38 15 48 -10 20z"/>
<path d="M1600 1792 c0 -10 5 -23 12 -30 18 -18 48 -15 47 6 0 10 -3 12 -6 4
-7 -17 -23 -5 -23 19 0 10 -7 19 -15 19 -8 0 -15 -8 -15 -18z"/>
<path d="M2154 1786 c23 -18 36 -20 36 -6 0 6 -4 10 -9 10 -5 0 -18 3 -28 6
-16 5 -16 4 1 -10z"/>
<path d="M522 1750 c-12 -10 -26 -20 -31 -22 -4 -2 -11 -16 -15 -33 l-7 -30
32 38 c17 21 33 36 36 34 2 -3 -8 -30 -22 -62 -28 -63 -32 -83 -12 -63 30 32
71 158 51 158 -5 -1 -19 -9 -32 -20z"/>
<path d="M1390 1706 c0 -9 -4 -16 -10 -16 -5 0 -10 5 -10 10 0 6 -8 5 -20 -2
-11 -7 -20 -19 -20 -26 0 -10 5 -9 17 4 17 16 18 16 23 -5 l5 -22 18 21 c19
23 22 36 7 45 -5 3 -10 -1 -10 -9z"/>
<path d="M570 1690 c0 -5 5 -10 10 -10 6 0 10 5 10 10 0 6 -4 10 -10 10 -5 0
-10 -4 -10 -10z"/>
<path d="M1142 1648 c-22 -22 -14 -40 16 -36 19 2 27 9 27 23 0 23 -25 31 -43
13z"/>
<path d="M1397 1644 c-4 -4 -7 -14 -7 -23 0 -11 3 -12 11 -4 6 6 10 16 7 23
-2 6 -7 8 -11 4z"/>
<path d="M1876 1585 c4 -8 12 -15 20 -15 19 0 18 16 -2 24 -22 9 -24 8 -18 -9z"/>
<path d="M2090 1551 c0 -11 31 -24 39 -16 3 3 -1 10 -9 15 -19 12 -30 12 -30
1z"/>
<path d="M1667 1543 c-4 -6 -16 -9 -27 -6 -27 7 -26 -14 1 -22 24 -8 43 7 37
26 -3 9 -6 10 -11 2z"/>
<path d="M1636 1473 c-6 -14 -5 -15 5 -6 7 7 10 15 7 18 -3 3 -9 -2 -12 -12z"/>
<path d="M1369 1453 c-13 -16 -12 -17 4 -4 9 7 17 15 17 17 0 8 -8 3 -21 -13z"/>
<path d="M1245 1447 c-11 -26 3 -34 23 -12 9 10 12 15 5 11 -6 -3 -13 0 -16 6
-3 9 -7 7 -12 -5z"/>
<path d="M1327 1453 c-4 -3 -7 -15 -7 -25 0 -19 25 -25 35 -8 4 6 1 9 -7 8 -8
-2 -12 4 -10 15 3 18 0 21 -11 10z"/>
<path d="M856 1434 c-4 -10 -1 -14 6 -12 15 5 23 28 10 28 -5 0 -13 -7 -16
-16z"/>
<path d="M1107 1430 c-9 -11 -15 -20 -12 -20 3 0 -4 -18 -15 -40 -11 -22 -16
-40 -11 -40 5 0 13 10 16 23 4 12 20 33 37 48 25 21 28 27 16 37 -11 9 -18 7
-31 -8z"/>
<path d="M888 1417 c-14 -19 -19 -20 -37 -9 -25 15 -31 15 -31 2 0 -5 11 -17
25 -26 23 -15 26 -15 55 6 30 22 41 50 18 50 -7 -1 -20 -11 -30 -23z"/>
<path d="M1832 1374 c4 -34 23 -42 37 -16 9 18 8 19 -11 14 -14 -3 -19 -1 -14
6 3 6 1 14 -5 17 -7 5 -9 -2 -7 -21z"/>
<path d="M1267 1365 c-20 -14 -37 -33 -37 -41 0 -11 -6 -13 -20 -9 -21 7 -69
-22 -70 -41 0 -6 -9 -18 -21 -25 -19 -13 -19 -17 -8 -43 11 -24 11 -30 -1 -40
-18 -13 -70 -82 -70 -92 0 -3 7 -1 15 6 13 11 20 9 44 -14 15 -15 44 -29 64
-33 29 -4 37 -10 37 -27 1 -49 55 -78 95 -52 19 12 25 13 25 4 0 -8 5 -6 11 5
5 9 8 21 4 26 -3 6 10 5 30 0 20 -6 45 -7 55 -4 28 9 53 62 46 96 -3 15 1 44
9 64 14 32 13 39 -8 36 -4 -1 -1 14 7 32 11 28 11 36 0 52 -7 10 -15 22 -17
28 -2 6 -9 7 -16 2 -7 -4 -32 -9 -55 -11 -31 -2 -48 -10 -68 -33 -26 -29 -28
-30 -38 -12 -5 11 -10 33 -10 50 0 24 4 31 19 31 10 0 21 -6 24 -14 6 -16 57
-18 58 -2 5 44 -20 86 -50 86 -9 0 -33 -11 -54 -25z m68 -26 c12 -18 -3 -22
-20 -5 -14 14 -14 16 -1 16 8 0 18 -5 21 -11z m-119 -82 c1 -7 6 -27 9 -44 7
-29 5 -33 -13 -33 -48 0 -68 57 -30 84 22 16 30 14 34 -7z m197 11 c2 -7 3
-24 3 -38 -2 -20 -15 -31 -66 -57 -48 -25 -66 -30 -72 -20 -13 20 -9 27 16 27
17 0 27 8 35 29 7 15 23 34 36 41 14 7 22 17 19 22 -3 4 1 8 9 8 8 0 17 -6 20
-12z m37 -103 c0 -8 -4 -15 -9 -15 -13 0 -22 16 -14 24 11 11 23 6 23 -9z
m-210 -44 c14 -28 -17 -48 -63 -40 -42 7 -57 17 -41 27 6 4 13 14 16 23 8 21
75 13 88 -10z m155 -13 c14 -2 20 -12 21 -36 1 -27 -3 -35 -23 -43 -31 -12
-56 14 -48 49 3 13 1 22 -6 22 -8 0 -8 4 1 15 8 10 17 12 24 6 6 -5 20 -10 31
-13z m-85 -43 c0 -45 -21 -76 -49 -73 -38 4 -38 34 0 73 36 37 49 37 49 0z"/>
<path d="M2210 1373 c-42 -5 -52 -13 -41 -32 7 -11 14 -11 40 2 17 8 31 11 31
6 0 -6 5 -7 10 -4 12 7 14 36 3 33 -5 0 -24 -3 -43 -5z"/>
<path d="M1630 1354 c0 -8 5 -12 10 -9 6 3 10 10 10 16 0 5 -4 9 -10 9 -5 0
-10 -7 -10 -16z"/>
<path d="M1120 1345 c0 -8 2 -15 4 -15 2 0 6 7 10 15 3 8 1 15 -4 15 -6 0 -10
-7 -10 -15z"/>
<path d="M1680 1341 c0 -25 -29 -42 -58 -34 -13 3 -22 1 -22 -6 0 -22 51 -24
78 -4 28 21 36 53 15 61 -8 2 -13 -5 -13 -17z"/>
<path d="M2136 1285 c-3 -8 -1 -15 3 -15 5 0 11 7 15 15 3 8 1 15 -3 15 -5 0
-11 -7 -15 -15z"/>
<path d="M856 1189 c-10 -10 -23 -16 -27 -13 -5 3 -9 0 -9 -5 0 -18 26 -12 45
9 23 26 16 33 -9 9z"/>
<path d="M1920 1104 c-29 -60 -39 -89 -31 -97 7 -7 12 -5 16 9 4 10 13 30 20
44 26 49 55 130 46 130 -5 0 -28 -39 -51 -86z"/>
<path d="M960 980 c-6 -12 -9 -24 -7 -27 3 -2 11 5 17 17 6 12 9 24 7 27 -3 2
-11 -5 -17 -17z"/>
<path d="M1206 631 c-4 -7 -5 -15 -2 -18 9 -9 19 4 14 18 -4 11 -6 11 -12 0z"/>
<path d="M1225 580 c-3 -5 -1 -10 4 -10 6 0 11 5 11 10 0 6 -2 10 -4 10 -3 0
-8 -4 -11 -10z"/>
<path d="M1175 560 c-3 -5 -1 -10 4 -10 6 0 11 5 11 10 0 6 -2 10 -4 10 -3 0
-8 -4 -11 -10z"/>
<path d="M1036 284 c-10 -25 1 -29 14 -5 6 12 7 21 1 21 -5 0 -12 -7 -15 -16z"/>
<path d="M950 870 c-6 -11 -7 -20 -2 -20 10 0 32 21 32 32 0 16 -19 8 -30 -12z"/>
<path d="M735 560 c-3 -5 -13 -6 -23 -3 -14 5 -15 3 -4 -8 10 -11 15 -10 29 4
10 9 14 17 11 17 -4 0 -9 -4 -13 -10z"/>
</g>
</svg>
