<?xml version="1.0" standalone="no"?>
<!DOCTYPE svg PUBLIC "-//W3C//DTD SVG 20010904//EN"
 "http://www.w3.org/TR/2001/REC-SVG-20010904/DTD/svg10.dtd">
<svg version="1.0" xmlns="http://www.w3.org/2000/svg"
 width="359.000000pt" height="384.000000pt" viewBox="0 0 359.000000 384.000000"
 preserveAspectRatio="xMidYMid meet">
<metadata>
Created by potrace 1.16, written by Peter Selinger 2001-2019
</metadata>
<g transform="translate(0.000000,384.000000) scale(0.100000,-0.100000)"
fill="#000000" stroke="none">
<path d="M330 3790 c0 -5 5 -10 11 -10 5 0 7 5 4 10 -3 6 -8 10 -11 10 -2 0
-4 -4 -4 -10z"/>
<path d="M175 3780 c-3 -5 -37 -10 -75 -10 -52 0 -69 -4 -74 -16 -3 -8 -10
-12 -16 -9 -5 3 -10 -1 -10 -9 0 -9 4 -16 8 -16 12 0 13 -58 1 -66 -12 -7 -10
-682 2 -690 5 -3 9 -37 9 -75 0 -98 15 -79 18 23 1 46 6 103 11 128 5 25 15
79 21 120 27 165 94 335 156 395 20 20 39 34 41 31 7 -6 -14 -70 -47 -141 -69
-153 -135 -377 -170 -583 -5 -29 -12 -56 -15 -61 -3 -5 1 -11 7 -14 9 -3 6
-11 -9 -26 -19 -18 -23 -32 -22 -79 0 -42 3 -52 9 -37 7 15 9 7 8 -30 0 -27 2
-79 6 -115 3 -36 8 -110 11 -165 2 -55 7 -108 10 -117 4 -10 3 -18 -3 -18 -5
0 -13 8 -17 18 -6 16 -7 16 -16 1 -6 -11 -4 -29 6 -53 8 -19 15 -49 15 -66 0
-16 5 -30 10 -30 6 0 10 -5 10 -11 0 -5 -5 -7 -11 -3 -11 6 -10 0 7 -56 7 -21
9 -16 15 30 6 44 4 56 -9 67 -15 12 -15 12 3 6 29 -9 46 -24 56 -50 5 -13 15
-23 23 -23 8 0 16 -7 18 -15 5 -25 140 -125 231 -171 146 -74 131 -41 -18 41
-112 62 -174 104 -191 131 -9 13 -15 26 -13 28 2 2 31 -14 64 -36 91 -60 166
-95 241 -114 38 -10 84 -26 103 -36 30 -17 33 -17 27 -2 -5 12 -2 15 11 9 10
-3 32 -9 48 -11 53 -9 5 13 -60 27 -33 7 -85 26 -115 42 -48 25 -51 27 -20 21
19 -4 79 -7 132 -7 l98 0 5 -36 c15 -92 43 -129 116 -154 19 -7 37 -16 39 -22
9 -20 -39 -16 -82 6 -40 22 -108 28 -213 20 -22 -2 -246 63 -282 81 -13 6 -26
9 -29 5 -11 -11 44 -33 195 -77 l73 -22 -24 -26 c-13 -15 -30 -40 -37 -57 -9
-19 -15 -25 -18 -17 -3 8 5 27 17 44 20 27 20 29 4 26 -16 -3 -35 -28 -47 -62
-4 -11 -113 20 -145 40 -13 9 -28 14 -35 11 -20 -6 41 -39 106 -57 58 -16 62
-19 65 -48 2 -18 1 -32 -3 -32 -3 0 -32 13 -65 30 -67 34 -120 81 -120 107 0
9 -22 37 -48 62 -35 33 -52 59 -61 94 -16 56 -32 63 -24 10 5 -33 58 -114 87
-135 5 -3 11 -14 12 -24 5 -30 108 -118 164 -139 43 -16 56 -27 67 -55 33 -79
38 -90 50 -90 6 0 14 -4 17 -8 6 -9 -30 -7 -96 6 -26 5 -59 7 -73 5 -17 -4
-27 0 -31 11 -5 12 -10 14 -20 5 -10 -8 -16 -6 -26 10 -7 12 -17 21 -22 21
-11 0 23 -52 40 -63 10 -6 -2 -24 -46 -66 -43 -42 -60 -66 -60 -85 0 -32 31
-65 71 -73 38 -7 43 -16 19 -38 -11 -10 -20 -24 -20 -32 0 -24 24 -13 45 20
11 17 27 33 36 35 14 2 15 -5 11 -48 -4 -48 -4 -50 21 -50 14 0 28 7 31 16 4
12 1 14 -14 9 -17 -5 -20 -2 -18 19 l2 26 27 -26 c14 -14 43 -27 65 -30 l39
-6 -44 23 c-44 24 -71 52 -59 64 3 3 37 7 76 8 69 3 102 17 102 43 0 7 -18 34
-40 59 -22 25 -40 50 -40 55 0 14 32 20 79 15 52 -7 87 8 61 25 -13 8 -13 10
1 10 24 0 38 22 28 45 -7 19 -8 19 -8 -2 -1 -12 -6 -25 -11 -28 -17 -11 -70 5
-70 21 0 10 -7 13 -24 8 -35 -9 -58 27 -44 69 23 69 42 73 56 14 10 -40 36
-73 72 -92 8 -4 2 6 -14 23 -17 18 -25 35 -21 43 5 8 4 10 -3 5 -7 -4 -12 -1
-13 6 -1 7 -3 35 -5 62 -4 39 1 57 21 91 27 46 48 55 117 51 46 -2 63 -16 20
-16 -38 0 -38 -1 -10 -44 59 -89 195 -77 160 16 -6 17 -10 34 -7 36 7 8 34
-18 48 -46 6 -14 19 -28 27 -30 12 -4 13 -2 3 9 -21 22 -15 36 17 36 17 0 36
5 43 12 10 11 8 12 -9 7 -16 -5 -23 -2 -27 14 -3 11 -13 20 -23 20 -16 0 -16
-1 2 -15 15 -11 16 -14 4 -15 -19 0 -40 19 -40 37 0 8 13 13 35 13 19 0 35 4
35 8 0 5 -13 7 -30 4 -18 -3 -30 0 -30 7 0 6 19 11 45 11 47 0 125 26 125 41
0 12 -2 12 -39 -7 -33 -17 -125 -24 -138 -11 -4 4 0 15 9 23 14 15 18 14 42
-1 14 -10 26 -13 26 -8 0 17 -49 53 -64 47 -23 -9 -86 15 -86 32 0 9 -4 12
-10 9 -5 -3 -10 3 -10 14 0 37 12 51 44 52 30 2 30 2 4 6 -18 3 -28 10 -28 21
0 24 42 95 60 100 8 3 2 -9 -13 -27 -15 -18 -27 -42 -26 -54 1 -20 1 -20 12 4
20 44 38 59 71 59 36 0 125 -39 145 -64 12 -14 11 -18 -5 -31 -18 -14 -18 -14
4 -15 40 0 64 -19 57 -43 -5 -19 -3 -18 15 6 22 28 44 35 55 17 3 -6 -1 -7 -9
-4 -31 12 -15 -14 18 -30 45 -21 102 -21 115 1 8 15 13 14 41 -14 30 -29 70
-49 70 -34 0 3 -12 14 -27 23 l-28 17 28 10 c34 13 36 25 2 17 -14 -4 -31 -4
-36 0 -16 10 27 35 48 27 15 -5 14 -2 -5 19 -17 19 -20 28 -11 33 8 6 7 10 -5
17 -17 10 -22 43 -6 53 5 3 16 -7 24 -22 8 -15 15 -23 16 -18 0 6 -9 27 -20
47 -11 20 -15 40 -10 43 5 3 12 1 15 -5 4 -6 14 -10 23 -9 21 3 62 -10 62 -20
0 -4 -5 -12 -10 -17 -6 -6 -11 -35 -13 -65 -2 -51 -1 -54 23 -57 23 -2 24 -1
8 11 -21 17 -22 32 -7 76 8 23 14 29 20 20 15 -25 25 5 28 89 1 32 1 32 29 18
60 -31 117 -21 125 22 4 21 -1 32 -21 49 -15 12 -34 20 -42 18 -8 -3 -28 -1
-45 3 -24 7 -29 13 -27 33 2 13 10 31 18 40 16 18 19 43 4 34 -5 -3 -10 -2
-10 4 0 14 18 23 22 10 2 -6 23 1 51 17 36 20 51 24 60 15 14 -14 30 -14 21 1
-4 7 -3 8 4 4 7 -4 12 -14 12 -23 0 -9 3 -13 7 -10 3 4 12 2 20 -4 9 -8 13 -8
13 -1 0 6 7 9 15 6 20 -8 19 -24 -1 -24 -8 0 -12 -4 -9 -10 3 -5 1 -20 -6 -32
l-12 -23 23 20 c12 11 26 29 31 40 6 15 8 16 8 4 1 -10 13 -20 29 -23 15 -4
35 -9 45 -12 28 -9 20 23 -10 38 -44 22 -49 40 -23 94 13 26 38 86 56 133 38
99 43 89 14 -23 -12 -43 -19 -80 -17 -82 8 -9 37 104 51 196 8 52 28 147 45
210 72 276 80 423 28 543 -16 37 -33 67 -38 67 -8 0 32 -94 45 -107 12 -12 6
-22 -9 -17 -19 8 -19 3 0 -32 8 -16 15 -45 14 -64 l0 -35 -19 40 c-25 55 -25
35 2 -37 l21 -59 -23 -117 c-35 -181 -42 -170 -33 48 9 252 10 250 -20 353
-15 48 -24 94 -21 101 5 13 -20 46 -36 46 -4 0 -11 7 -14 16 -6 14 10 15 156
7 90 -4 192 -6 228 -3 65 4 219 4 243 0 6 -1 50 -2 97 -2 47 0 101 0 120 -1
19 -1 77 2 128 7 64 5 92 4 92 -3 0 -6 -20 -11 -46 -11 -26 0 -43 -4 -39 -10
7 -11 138 -1 143 11 2 4 13 4 25 0 41 -15 290 0 330 21 16 8 17 4 13 -39 -2
-26 -5 -50 -6 -53 -1 -3 -1 -15 0 -27 1 -17 -4 -23 -20 -23 -31 0 -52 -13
-117 -75 -32 -31 -59 -51 -62 -44 -2 6 1 14 6 18 15 9 -10 181 -28 191 -20 13
-22 4 -5 -22 12 -18 16 -46 15 -105 l-2 -81 -26 9 c-35 14 -87 3 -105 -23
l-15 -21 -50 22 c-27 11 -62 21 -78 21 -25 0 -30 6 -43 48 -9 29 -22 48 -33
50 -15 3 -14 -2 8 -34 32 -46 32 -68 0 -82 -37 -17 -37 -76 0 -146 l24 -45
-28 5 c-18 4 -39 -1 -62 -15 -19 -12 -46 -21 -61 -21 -27 0 -28 -2 -28 -50 0
-36 4 -52 15 -56 18 -7 10 -24 -11 -24 -12 0 -14 34 -14 214 1 182 -2 219 -16
250 -10 20 -23 36 -30 36 -16 0 -39 -29 -30 -37 4 -4 11 -1 16 7 8 13 12 13
27 -3 16 -16 18 -43 21 -240 l4 -223 -37 -17 c-26 -12 -35 -22 -31 -33 3 -9 6
-22 6 -29 0 -8 12 -25 27 -39 26 -24 26 -25 20 -133 -3 -61 -2 -97 3 -83 4 14
8 59 9 101 1 90 15 104 63 64 32 -27 77 -32 122 -15 21 8 26 7 26 -6 0 -13 9
-15 43 -12 52 5 68 10 82 23 9 9 47 95 70 160 4 11 9 15 11 9 3 -6 -7 -44 -22
-85 -15 -41 -33 -93 -40 -117 -12 -40 -12 -43 5 -37 15 4 17 1 13 -23 -5 -35
17 -48 45 -26 17 14 17 15 -4 9 -18 -5 -23 -2 -23 13 0 27 30 112 40 112 4 0
6 8 4 18 -3 9 5 31 16 47 11 17 20 26 20 22 0 -4 -7 -19 -16 -33 -16 -24 -16
-26 5 -45 12 -11 26 -17 32 -14 7 5 8 -12 3 -54 -6 -53 -4 -61 10 -61 13 0 15
6 11 28 l-6 27 15 -26 c8 -15 24 -29 36 -32 12 -3 20 -13 20 -25 0 -11 7 -28
16 -36 32 -32 64 -30 147 12 5 2 5 -13 1 -33 -5 -30 -4 -36 6 -30 10 6 12 -5
7 -55 -3 -40 -2 -58 4 -49 6 10 9 8 9 -11 0 -14 -4 -30 -8 -37 -4 -7 -4 -50 0
-95 8 -74 14 -226 21 -475 1 -46 4 -83 7 -83 7 0 4 -206 -4 -270 -8 -63 -43
-180 -59 -195 -10 -10 -4 159 9 255 5 31 3 42 -4 35 -11 -10 -36 -271 -27
-285 3 -4 -2 -13 -10 -20 -13 -11 -15 -8 -15 16 0 22 -3 26 -10 14 -7 -12 -10
-8 -10 15 0 23 -3 27 -10 15 -5 -8 -10 -30 -10 -48 0 -26 5 -35 20 -39 30 -8
24 -27 -15 -45 l-35 -16 6 57 c4 31 14 105 24 165 9 59 15 119 12 132 -4 22
-9 24 -61 25 -110 1 -186 -3 -196 -10 -5 -5 -45 -11 -88 -14 -43 -4 -83 -9
-89 -13 -5 -4 -14 -1 -18 6 -14 22 -27 2 -55 -85 -15 -48 -29 -85 -30 -83 -2
2 5 35 15 73 21 77 25 125 10 125 -5 0 -14 -19 -20 -42 -19 -73 -22 -82 -36
-96 -8 -7 -14 -23 -14 -36 0 -12 -7 -31 -15 -42 -14 -17 -15 -12 -13 62 3 90
-9 117 -46 109 -11 -3 -37 -1 -56 3 -36 9 -38 12 -24 72 6 24 7 24 15 5 7 -15
8 -9 5 19 -3 22 -1 45 5 52 7 9 1 14 -23 20 -45 10 -78 11 -78 3 0 -4 6 -10
12 -13 7 -3 -4 -4 -24 -3 -38 1 -49 11 -25 20 6 3 2 6 -10 6 -13 1 -23 -6 -26
-16 -4 -17 -5 -17 -6 0 -1 15 -15 17 -146 18 -80 0 -163 1 -185 1 -22 1 -43
-2 -47 -5 -3 -4 1 -7 10 -7 10 0 17 -8 17 -17 0 -14 2 -15 9 -4 7 11 39 13
152 12 79 -1 145 -4 148 -7 9 -8 -6 -14 -50 -16 -24 -2 -55 -11 -69 -21 -30
-21 -54 -22 -46 -2 3 9 0 15 -9 15 -8 0 -17 -11 -21 -24 -3 -14 -14 -32 -25
-42 -10 -9 -16 -21 -13 -26 3 -5 1 -14 -4 -21 -5 -7 -37 -64 -69 -127 -70
-134 -85 -160 -95 -160 -12 0 122 263 140 276 8 6 12 15 9 21 -3 5 5 28 18 51
13 23 19 44 14 48 -5 3 -26 -30 -46 -73 -33 -71 -68 -127 -100 -160 -6 -7 -21
-28 -33 -48 -27 -44 -32 -44 -18 -2 6 17 10 48 9 69 -2 56 27 218 44 244 20
31 20 31 -17 39 -18 4 -41 9 -50 11 -11 3 -19 -3 -23 -18 -4 -13 -13 -30 -20
-38 -9 -10 -10 -29 -5 -60 4 -25 8 -35 9 -22 0 12 5 22 10 22 4 0 6 11 4 24
-4 20 -1 25 16 23 14 -1 19 -7 16 -17 -2 -8 -12 -47 -21 -87 -9 -40 -20 -70
-24 -68 -3 2 -7 -10 -7 -28 -1 -18 -5 -68 -9 -112 l-9 -80 -68 -5 c-44 -3 -71
-10 -77 -19 -5 -8 -9 -68 -9 -132 l-1 -117 -53 -89 c-30 -48 -68 -113 -85
-143 -41 -72 -40 -61 3 33 19 42 35 84 36 94 0 10 8 30 17 44 9 14 27 41 39
60 13 19 21 39 20 44 -5 15 -37 19 -37 4 0 -21 -72 -172 -107 -224 -33 -50
-42 -71 -23 -60 5 3 -8 -31 -29 -76 -22 -45 -46 -86 -55 -91 -27 -15 -19 13
18 68 19 29 34 60 34 70 -2 22 131 324 142 324 4 0 7 10 6 23 -1 19 4 22 32
21 17 -1 32 2 32 6 0 12 -49 22 -72 14 -11 -3 -24 -1 -27 5 -5 7 -23 5 -59 -8
-29 -11 -52 -18 -52 -17 0 2 7 17 16 35 26 52 9 47 -51 -14 -54 -56 -77 -67
-56 -27 13 25 14 52 2 52 -5 0 -19 -31 -30 -69 -12 -39 -26 -73 -31 -76 -5 -3
-3 13 6 37 8 23 19 72 24 108 6 36 13 83 16 104 5 28 4 37 -4 32 -6 -4 -14
-23 -17 -44 -22 -142 -39 -214 -52 -219 -23 -9 -24 1 -4 53 25 65 41 269 21
262 -8 -2 -20 -33 -28 -69 -27 -120 -52 -155 -52 -73 0 30 9 60 25 90 26 47
33 80 13 68 -8 -5 -10 9 -5 54 3 34 1 62 -4 62 -13 0 -39 -55 -39 -82 0 -13
-7 -33 -15 -44 -9 -14 -13 -35 -9 -62 6 -49 -15 -106 -45 -122 -12 -6 -21 -20
-21 -30 0 -11 -5 -19 -11 -18 -6 2 -14 -3 -16 -9 -3 -7 0 -13 6 -13 6 0 -10
-37 -35 -82 -24 -46 -63 -121 -85 -168 -69 -147 -72 -150 -86 -138 -7 6 -13
29 -14 52 -1 35 -2 37 -9 16 -5 -14 -8 -18 -9 -9 -1 21 33 128 54 169 9 18 14
34 11 37 -3 3 -8 -2 -12 -11 -3 -9 -10 -16 -14 -16 -8 0 -5 29 13 105 6 28 10
55 9 60 -1 6 23 57 53 115 31 58 68 131 83 162 17 37 33 57 45 58 22 0 21 -9
-3 -40 -11 -14 -20 -28 -20 -33 0 -4 -15 -31 -34 -60 -63 -98 -119 -198 -114
-202 3 -3 27 31 54 75 27 44 63 102 79 129 17 27 41 67 55 89 18 30 30 40 43
36 27 -8 53 4 54 26 2 24 -13 26 -25 3 -8 -13 -18 -15 -48 -9 -75 14 -183 12
-189 -3 -3 -8 -14 -11 -28 -7 -28 7 -100 -12 -92 -24 3 -5 19 -4 36 2 37 13
44 7 28 -24 -24 -45 -27 -54 -34 -106 -5 -40 -4 -52 7 -52 10 0 10 -2 0 -8 -7
-5 -12 -24 -12 -43 2 -70 -11 -214 -20 -219 -4 -3 -11 -22 -15 -43 -5 -26 -12
-37 -21 -33 -14 5 -24 -24 -55 -151 -12 -51 -12 -51 -36 -36 l-24 16 26 27
c14 14 25 38 25 52 0 15 5 28 10 30 7 2 5 16 -5 40 -8 21 -15 45 -15 55 0 10
-4 25 -10 33 -7 12 -16 9 -50 -19 -25 -20 -47 -30 -57 -27 -20 8 -11 17 29 31
17 5 33 16 36 23 4 14 -5 13 -128 -4 l-35 -5 38 23 c35 20 48 38 29 38 -5 0
-30 -6 -56 -14 -41 -13 -46 -13 -35 0 21 26 2 25 -29 -1 -16 -14 -33 -25 -36
-25 -8 0 -56 -47 -56 -55 0 -3 9 -1 19 5 27 14 35 13 19 -3 -7 -7 -28 -18 -45
-25 -30 -10 -33 -9 -33 9 0 10 -4 19 -10 19 -12 0 -13 -20 -1 -39 8 -12 16
-13 52 -2 32 10 44 10 49 1 5 -8 9 -7 13 4 5 12 20 16 57 16 27 0 50 -2 50 -4
0 -2 -7 -20 -15 -39 -22 -53 -17 -68 7 -22 25 47 34 55 71 55 34 0 35 -13 1
-35 -14 -9 -23 -22 -21 -29 3 -8 -17 -35 -45 -62 -50 -49 -54 -48 -31 13 3 7
2 13 -1 13 -4 0 -11 -12 -16 -26 -11 -29 -3 -77 12 -68 5 3 3 -8 -6 -24 -19
-36 -20 -46 -5 -36 8 5 8 1 0 -14 -6 -12 -16 -24 -22 -28 -8 -4 -8 0 0 15 22
39 -4 21 -36 -27 -38 -55 -43 -78 -14 -62 30 15 33 12 15 -15 -8 -13 -13 -29
-9 -35 4 -6 -15 -10 -56 -10 -66 0 -64 -2 -45 55 4 11 -2 3 -14 -17 -15 -28
-27 -38 -45 -38 -31 0 -31 6 0 80 14 33 25 66 25 75 0 8 7 15 15 15 13 0 15
15 13 92 -2 62 -7 93 -15 96 -8 2 -13 -5 -13 -17 0 -25 -33 -61 -56 -61 -13 0
-15 7 -10 30 7 38 -6 39 -24 3 -13 -27 -14 -27 -18 -5 -4 26 -20 29 -28 5 -3
-10 -12 -31 -20 -48 -12 -25 -14 -26 -9 -5 17 71 17 106 0 120 -15 12 -19 12
-31 -5 -8 -10 -14 -33 -14 -51 0 -18 -4 -36 -10 -39 -6 -4 -7 5 -4 23 8 37
-13 53 -34 26 -13 -17 -14 -6 -8 96 3 63 6 175 6 248 0 95 3 131 11 126 8 -5
10 15 5 72 -4 44 -10 144 -15 224 -5 80 -15 168 -23 195 -8 28 -14 69 -13 93
1 49 -11 57 -17 10 -6 -55 -3 -209 7 -281 6 -54 5 -71 -5 -77 -16 -10 -18
-298 -4 -595 4 -99 7 -207 7 -240 -8 -299 -9 -596 -2 -607 6 -10 11 -8 23 7 8
11 18 17 22 12 4 -4 2 -7 -4 -7 -7 0 -12 -7 -12 -15 0 -12 53 -14 373 -14 354
-1 800 -15 819 -27 5 -3 15 0 23 6 16 13 355 8 520 -9 447 -44 585 -51 585
-28 0 8 3 8 9 -2 8 -12 30 -12 153 3 92 11 245 18 428 21 310 4 447 10 478 19
13 4 22 1 26 -9 10 -26 26 -7 27 33 l1 37 14 -32 c26 -61 44 -38 33 41 -4 28
-8 86 -8 129 -1 44 -5 77 -11 77 -6 0 -10 28 -9 68 1 52 3 60 9 37 7 -28 8
-29 9 -4 0 14 -5 31 -11 37 -10 10 -10 15 2 23 11 8 12 12 3 16 -15 5 -18 113
-4 113 5 0 10 102 10 231 1 140 -2 228 -7 225 -11 -7 -20 69 -21 162 0 34 -2
66 -5 70 -2 4 -8 172 -11 372 -4 201 -9 439 -11 530 -3 91 -6 316 -8 500 -4
431 -16 932 -22 942 -13 21 -34 6 -35 -24 0 -31 -1 -31 -10 -10 -8 22 -13 23
-62 17 -28 -4 -167 -6 -307 -5 -240 3 -353 5 -630 15 -63 3 -109 2 -102 -1 24
-11 12 -26 -15 -19 -16 4 -84 8 -153 10 -109 3 -169 7 -205 15 -5 1 -14 1 -20
0 -11 -2 -91 0 -142 4 -17 1 -30 -2 -27 -6 3 -4 -17 -8 -45 -8 -27 0 -53 5
-56 10 -4 7 -24 8 -51 4 -36 -5 -44 -4 -44 10 0 13 -13 15 -82 14 -68 -2 -77
-3 -49 -10 50 -14 31 -19 -35 -11 -47 5 -54 8 -34 14 19 5 -133 10 -330 10 -8
0 -55 -2 -103 -4 -49 -2 -90 0 -93 5 -3 4 -38 8 -79 8 -41 0 -77 5 -80 10 -3
6 4 10 17 11 20 1 19 2 -7 10 -19 6 -49 5 -80 -1 -64 -13 -364 -7 -373 7 -10
15 -60 25 -67 13z m-17 -188 c-28 -58 -61 -137 -73 -176 l-23 -71 -1 91 c-1
50 2 131 5 180 l7 89 67 -3 68 -4 -50 -106z m102 92 c0 -8 5 -14 10 -14 6 0
10 6 10 13 0 10 36 12 168 9 406 -9 502 -19 350 -36 -57 -6 -67 -9 -146 -42
-41 -17 -43 -17 -56 2 -13 17 -12 20 6 27 39 14 12 16 -44 3 -30 -7 -70 -23
-87 -36 -35 -24 -56 -17 -56 18 0 9 -9 18 -20 20 -11 3 -24 10 -28 18 -4 8
-13 14 -19 14 -23 0 -150 -126 -183 -181 -33 -57 -95 -231 -95 -269 0 -10 -4
-21 -9 -24 -14 -9 -2 70 26 162 24 82 95 246 135 310 19 32 38 35 38 6z m1280
22 c0 -3 -4 -8 -10 -11 -5 -3 -10 -1 -10 4 0 6 5 11 10 11 6 0 10 -2 10 -4z
m865 -36 c-28 -12 -45 -12 -45 0 0 6 15 10 33 9 27 0 29 -2 12 -9z m-1098 -20
c131 -16 513 -147 513 -177 0 -20 16 -8 23 17 3 11 1 18 -4 14 -5 -3 -48 11
-96 30 -49 19 -132 49 -185 66 -54 17 -98 32 -98 34 0 8 404 4 413 -5 7 -5 22
-17 34 -27 28 -23 56 -95 77 -196 17 -84 23 -392 7 -382 -4 3 -9 35 -10 72 -2
94 -32 210 -61 237 -10 10 -11 8 -5 -8 18 -46 36 -125 46 -206 19 -146 -20
-328 -106 -498 -24 -48 -51 -95 -59 -106 -16 -20 -16 -19 -11 5 16 80 23 161
24 289 1 84 8 174 17 215 8 39 19 132 24 206 8 110 7 137 -4 149 -12 11 -16
10 -26 -10 -7 -13 -19 -28 -26 -32 -16 -9 -19 -57 -4 -57 5 0 7 6 4 13 -3 8 2
20 11 27 13 11 15 6 15 -41 0 -57 -16 -181 -27 -214 -4 -12 -11 16 -19 75 -28
221 -51 328 -78 365 -24 33 -28 10 -6 -28 14 -23 19 -44 15 -57 -3 -11 -2 -20
3 -20 10 0 11 -7 12 -124 0 -73 -24 -263 -34 -274 -12 -11 -36 143 -36 226 0
70 -4 104 -14 118 -13 17 -14 11 -10 -56 l4 -75 -25 108 c-35 159 -48 191 -73
195 -14 2 -22 -2 -22 -11 0 -9 -3 -23 -7 -33 -4 -12 -3 -15 5 -10 7 4 12 16
12 27 0 59 38 -24 59 -129 14 -68 14 -72 -4 -72 -8 0 -15 -7 -15 -15 0 -8 5
-14 12 -13 7 2 13 -18 15 -54 3 -32 2 -58 -1 -58 -11 0 -107 205 -97 208 6 2
11 8 11 13 0 4 -6 6 -13 3 -8 -3 -26 18 -46 55 -35 61 -75 91 -95 71 -7 -7 -5
-10 8 -10 20 0 76 -52 76 -70 0 -10 -4 -10 -15 0 -8 7 -27 10 -42 7 -28 -5
-83 16 -83 32 0 20 -84 101 -125 121 -55 27 -187 30 -254 6 -51 -19 -54 -19
-46 -6 9 14 -65 12 -160 -5 -44 -8 -81 -15 -82 -15 -2 0 -3 3 -3 8 0 20 163
82 178 67 3 -3 12 1 19 7 16 13 252 17 338 6 l50 -7 -40 15 -40 14 50 -5 c28
-3 87 -10 132 -15z m-988 -57 c-18 -21 -35 -40 -36 -42 -2 -2 -3 0 -3 5 0 21
41 74 57 74 13 0 9 -9 -18 -37z m81 -4 c0 -10 -9 -28 -20 -39 -12 -12 -18 -25
-15 -31 4 -5 -7 -24 -22 -43 -51 -58 -203 -359 -189 -374 3 -3 11 9 17 25 33
97 146 291 212 368 57 65 50 36 -15 -60 -49 -72 -188 -340 -188 -361 0 -3 -11
-17 -25 -32 -14 -15 -25 -32 -25 -38 0 -6 -9 -28 -20 -50 l-20 -39 6 70 c4 39
12 75 18 80 7 6 20 42 30 80 54 205 117 357 178 428 23 27 29 30 38 17 8 -13
11 -11 16 7 7 26 24 21 24 -8z m177 14 c4 -11 0 -21 -12 -27 -10 -6 -33 -24
-52 -40 -27 -23 -36 -26 -48 -16 -12 10 -10 16 17 38 28 23 29 27 12 33 -16 5
-13 8 16 17 50 15 60 14 67 -5z m1391 -39 c-4 -3 -12 5 -18 18 -12 22 -12 22
6 6 10 -10 15 -20 12 -24z m-898 15 c25 -6 54 -10 64 -10 11 0 15 -4 10 -9
-10 -9 -293 -34 -300 -27 -3 2 19 14 48 25 86 34 109 37 178 21z m-603 -16
c-9 -9 -20 -13 -24 -9 -4 4 -1 11 7 16 25 16 35 11 17 -7z m343 2 c0 -2 -26
-12 -57 -21 -83 -24 -171 -80 -298 -190 -154 -131 -190 -187 -251 -386 -48
-156 -59 -235 -58 -405 0 -96 2 -106 37 -176 22 -45 54 -90 82 -116 24 -22 51
-54 59 -70 51 -98 221 -160 394 -145 l74 7 -27 -42 c-31 -46 -42 -50 -53 -20
-7 18 -10 19 -20 6 -11 -13 -20 -13 -60 -2 -60 16 -228 89 -250 108 -10 8 -35
24 -58 35 -67 34 -131 102 -164 175 -60 134 -91 313 -75 446 7 64 21 80 28 34
4 -26 4 -26 6 5 0 17 -3 32 -9 32 -14 0 -12 50 5 85 13 30 13 29 10 -20 -4
-42 -3 -44 3 -15 21 92 185 452 231 505 9 11 29 39 44 63 15 23 31 42 36 42
14 0 0 -43 -18 -57 -14 -10 -12 -11 9 -9 43 6 78 24 85 45 6 20 50 61 65 61 4
0 10 -9 13 -21 3 -12 10 -18 16 -15 6 4 8 13 5 21 -4 9 6 17 33 24 62 16 163
26 163 16z m429 -56 c22 -23 38 -46 34 -52 -3 -5 2 -16 11 -22 9 -7 28 -41 41
-76 28 -69 32 -98 10 -59 -23 41 -17 13 9 -38 24 -47 41 -102 31 -102 -2 0
-18 26 -35 58 -17 31 -36 66 -42 77 -7 11 -23 37 -35 58 -23 36 -18 52 7 22 7
-8 17 -15 24 -15 6 0 -1 11 -14 24 -14 13 -27 23 -30 22 -9 -2 -63 44 -58 49
2 3 19 1 36 -4 19 -6 32 -6 32 0 0 5 -12 11 -27 14 -54 12 -58 13 -77 21 -14
5 -17 4 -12 -5 5 -8 1 -10 -16 -7 -12 3 -47 8 -77 11 -30 3 -63 11 -73 16 -12
6 -18 6 -18 -1 0 -5 5 -10 10 -10 6 0 10 -4 10 -10 0 -13 -45 -13 -94 1 -34 9
-37 12 -22 21 10 6 31 8 46 4 19 -3 33 0 41 11 11 12 26 14 72 9 35 -3 56 -2
52 3 -5 9 25 15 96 19 19 2 38 -10 68 -39z m-429 27 c0 -2 -9 -6 -20 -9 -11
-3 -20 -1 -20 4 0 5 9 9 20 9 11 0 20 -2 20 -4z m-76 -41 c-14 -14 -42 -34
-62 -45 -20 -10 -33 -19 -28 -20 12 0 -14 -30 -27 -30 -6 0 -2 7 9 16 18 14
18 15 -6 8 -14 -4 -39 -17 -56 -30 -17 -13 -34 -24 -37 -24 -39 0 92 94 154
110 25 7 37 15 33 22 -4 7 -3 8 4 4 7 -4 12 -2 12 3 0 6 7 11 15 11 9 0 6 -8
-11 -25z m109 13 c-2 -5 -15 -8 -29 -8 -14 0 -23 4 -20 9 3 5 17 8 30 7 13 0
22 -4 19 -8z m-63 -28 c-8 -5 -22 -10 -30 -10 -13 0 -13 1 0 10 8 5 22 10 30
10 13 0 13 -1 0 -10z m90 -19 c0 -4 -15 -11 -32 -14 -18 -4 -43 -9 -55 -13
-14 -4 -23 -2 -23 5 0 11 50 29 88 30 12 1 22 -3 22 -8z m2528 0 c10 -6 15
-43 18 -132 2 -68 6 -161 9 -205 4 -69 3 -83 -11 -88 -28 -11 -35 -6 -28 18 5
22 2 25 -27 28 -28 3 -34 8 -47 46 -14 43 -42 58 -42 21 0 -12 -4 -17 -11 -14
-6 4 -8 13 -5 21 3 8 -1 17 -10 21 -11 4 -15 17 -12 46 2 28 -2 42 -11 45 -22
7 -7 -140 16 -153 47 -28 84 -95 53 -95 -5 0 -10 7 -10 15 0 20 -16 19 -24 -1
-4 -9 0 -27 9 -40 8 -13 15 -30 15 -38 0 -24 22 -30 37 -11 12 18 13 17 13 -8
0 -17 5 -27 15 -27 8 0 15 8 15 18 0 13 2 14 9 3 5 -8 19 -12 34 -9 34 7 38
-6 31 -100 -5 -59 -12 -83 -28 -101 -49 -54 -98 -49 -119 12 -10 30 -19 42
-33 42 -16 0 -20 10 -26 60 -5 33 -12 61 -17 63 -6 2 -15 28 -22 58 -7 30 -16
54 -21 54 -4 0 -9 12 -9 28 -2 25 -2 25 -6 3 -5 -23 -5 -23 -24 8 -10 17 -19
38 -19 46 0 22 -8 19 -36 -15 -14 -16 -30 -27 -37 -24 -7 2 -22 -11 -34 -29
-33 -48 -27 -58 9 -17 19 22 28 28 23 15 -3 -11 -13 -49 -20 -84 -8 -35 -20
-68 -27 -72 -18 -12 -38 -11 -38 1 0 6 -9 10 -20 10 -16 0 -20 7 -21 33 l-2
32 -6 -35 c-7 -38 -25 -47 -97 -49 -29 -1 -46 5 -60 20 -10 11 -26 18 -36 16
-21 -6 -24 2 -20 57 3 35 7 43 20 40 23 -6 67 30 58 47 -3 8 -15 29 -26 47
-11 18 -18 37 -16 41 3 4 36 13 74 21 99 18 110 10 115 -83 3 -64 3 -62 5 27
2 84 -1 101 -15 112 -10 7 -14 16 -10 20 4 5 13 2 18 -6 7 -10 8 2 4 40 -5 38
-2 63 7 81 13 26 16 26 50 14 20 -7 52 -25 70 -40 l32 -27 8 24 c7 20 14 24
35 20 23 -4 25 -2 20 17 -4 16 -1 21 13 21 29 0 50 -27 45 -58 -5 -33 -24
-165 -30 -212 -4 -32 -4 -33 6 -10 5 14 15 61 20 105 15 124 17 131 42 131 12
0 25 -5 29 -10 4 -6 8 -1 8 12 0 12 5 22 11 22 8 0 9 4 0 13 -14 18 -3 29 19
17 13 -7 23 -3 40 15 12 13 20 30 17 38 -3 8 0 20 6 26 13 13 18 13 35 2z
m-2673 -26 c-27 -23 -55 -33 -55 -20 0 8 63 45 75 45 6 -1 -3 -12 -20 -25z
m326 15 c10 -6 19 -15 19 -21 0 -13 -54 -3 -90 17 -25 13 -25 13 13 14 21 0
47 -5 58 -10z m52 -10 c4 0 5 5 2 10 -4 6 10 10 35 10 25 0 39 -4 35 -10 -3
-5 -16 -10 -28 -10 -24 -1 -22 -3 33 -40 29 -19 70 -62 70 -73 0 -4 4 -6 9 -2
6 3 9 -3 8 -14 -1 -16 -11 -11 -55 30 -29 27 -58 49 -63 49 -6 0 -7 5 -3 12 5
8 2 9 -11 4 -19 -7 -65 27 -65 48 0 6 5 5 12 -2 7 -7 16 -12 21 -12z m92 -21
c11 -17 -1 -21 -15 -4 -8 9 -8 15 -2 15 6 0 14 -5 17 -11z m145 -21 c0 -6 -7
-5 -15 2 -8 7 -15 17 -15 22 0 6 7 5 15 -2 8 -7 15 -17 15 -22z m-321 7 c28
-14 101 -91 101 -106 0 -8 -74 26 -110 51 -14 10 -51 23 -82 30 -64 13 -75 27
-25 33 66 8 89 7 116 -8z m399 -8 c7 -6 25 -35 39 -66 14 -31 27 -59 29 -62 2
-3 -8 -4 -21 -1 -14 2 -26 12 -26 21 -1 14 -2 13 -6 -1 -2 -10 -11 -18 -19
-18 -17 0 -17 -3 1 -64 21 -68 19 -88 -4 -51 -11 17 -29 66 -41 110 -12 44
-26 86 -30 94 -4 8 0 23 12 37 20 22 38 22 66 1z m-579 -18 c-8 -5 -21 -9 -29
-9 -12 1 -11 4 4 15 10 8 23 12 29 8 5 -3 3 -9 -4 -14z m271 1 c11 -11 26 -17
34 -14 18 7 89 -55 82 -71 -2 -7 6 -23 19 -35 28 -26 58 -86 51 -99 -3 -5 1
-25 9 -45 23 -54 17 -57 -11 -3 -23 44 -43 66 -30 32 3 -8 1 -15 -4 -15 -6 0
-10 7 -10 15 0 9 -13 24 -29 33 -17 9 -32 25 -35 34 -6 25 11 23 24 -2 6 -11
16 -18 21 -14 6 3 21 -2 33 -12 12 -11 6 -3 -14 16 -20 19 -40 44 -44 55 -6
15 -9 17 -16 6 -6 -11 -17 -2 -42 35 -18 27 -46 61 -62 76 -20 21 -24 28 -12
28 9 0 25 -9 36 -20z m-520 -19 c-5 -11 -14 -21 -19 -23 -11 -4 -101 -115
-156 -192 -22 -31 -46 -54 -52 -51 -7 2 -15 -6 -19 -20 -9 -38 -84 -182 -84
-162 0 32 41 141 77 202 41 71 48 79 38 45 -17 -54 -15 -53 15 9 41 86 91 146
153 181 62 35 60 35 47 11z m29 -28 c-34 -40 -99 -97 -104 -91 -3 3 18 27 46
54 28 27 56 54 62 60 23 23 19 5 -4 -23z m294 25 c22 -11 22 -12 -6 -19 -17
-5 -39 -3 -54 4 l-26 12 24 6 c35 10 38 10 62 -3z m77 -14 l25 -15 -30 6 c-16
4 -34 11 -39 16 -16 15 16 10 44 -7z m845 6 c3 -5 1 -10 -4 -10 -6 0 -11 5
-11 10 0 6 2 10 4 10 3 0 8 -4 11 -10z m-859 -51 c4 -8 1 -8 -13 -1 -11 6 -31
8 -44 5 -23 -5 -23 -5 -4 10 20 15 46 9 61 -14z m84 -5 c14 -15 12 -15 -20 -9
-19 4 -42 14 -50 22 -13 14 -11 15 20 9 19 -4 42 -14 50 -22z m1838 -19 l3
-40 -24 30 c-26 31 -25 58 2 53 11 -2 17 -16 19 -43z m-2128 30 c0 -2 -21 -14
-47 -27 -27 -12 -52 -24 -57 -26 -22 -11 9 22 38 39 28 17 66 26 66 14z m-382
-52 c-45 -65 -120 -163 -124 -163 -11 0 37 83 78 137 41 52 56 66 76 72 1 1
-12 -20 -30 -46z m267 19 c-17 -15 -46 -47 -65 -72 -49 -64 -147 -163 -124
-125 51 85 180 225 207 225 7 0 -2 -13 -18 -28z m175 23 c0 -2 -15 -8 -32 -13
-18 -6 -50 -17 -70 -26 -58 -25 -45 -8 15 19 48 22 87 31 87 20z m300 -27 c20
-20 30 -38 27 -50 -3 -10 -1 -18 3 -18 9 0 33 -71 26 -77 -6 -7 -36 47 -39 69
-1 13 -11 31 -22 40 -16 14 -17 19 -7 26 11 7 7 11 -12 16 -14 3 -26 11 -26
16 0 18 18 10 50 -22z m-60 2 c16 0 36 -27 26 -37 -7 -8 -76 26 -76 38 0 6 7
8 16 5 9 -3 24 -6 34 -6z m-1049 -23 c-10 -9 -11 -8 -5 6 3 10 9 15 12 12 3
-3 0 -11 -7 -18z m1304 -37 c-3 -5 -2 -10 4 -10 17 0 61 -92 61 -129 0 -20 2
-58 5 -86 l5 -50 -15 53 c-8 29 -14 63 -14 75 1 30 -31 118 -41 112 -8 -5 -40
65 -40 87 0 6 9 -1 21 -16 11 -14 17 -30 14 -36z m-379 35 c18 -14 18 -14 -6
-15 -14 0 -57 -7 -95 -15 -92 -19 -106 -19 -70 3 68 42 137 53 171 27z m538
-28 c7 -20 7 -34 -2 -47 -17 -27 -15 -48 2 -25 13 18 15 15 21 -35 8 -66 -1
-370 -13 -420 -5 -23 -8 21 -9 132 0 91 -4 172 -8 179 -9 13 -45 201 -45 232
0 30 43 17 54 -16z m-800 -18 c-10 -11 -28 -25 -39 -31 -11 -6 -5 5 15 25 37
37 56 42 24 6z m437 5 c9 -11 9 -14 -2 -14 -8 0 -4 -9 9 -23 12 -13 22 -28 22
-35 0 -6 8 -16 19 -21 22 -12 44 -62 39 -88 -3 -12 -9 -3 -19 27 -13 36 -20
45 -39 45 -13 0 -25 7 -27 15 -2 9 -1 10 3 3 3 -7 10 -13 15 -13 14 0 -5 32
-41 72 -17 18 -30 35 -30 38 0 12 39 8 51 -6z m-224 0 c-3 -3 -12 -4 -19 -1
-8 3 -5 6 6 6 11 1 17 -2 13 -5z m94 -10 c11 -13 9 -14 -17 -8 -40 9 -54 24
-22 24 14 0 31 -7 39 -16z m-351 3 c0 -2 -14 -16 -32 -33 -30 -28 -30 -17 0
19 13 15 32 23 32 14z m890 -29 c0 -5 -4 -8 -10 -8 -5 0 -10 10 -10 23 0 18 2
19 10 7 5 -8 10 -18 10 -22z m234 -71 c16 -105 14 -118 -32 -261 l-19 -60 -7
89 c-5 63 -3 112 8 174 8 47 18 103 21 125 4 21 8 36 10 34 3 -2 11 -48 19
-101z m-927 87 c-3 -3 -12 -4 -19 -1 -8 3 -5 6 6 6 11 1 17 -2 13 -5z m732
-50 c12 -30 18 -60 14 -66 -3 -7 -14 17 -24 53 -21 75 -20 69 -15 69 3 0 14
-25 25 -56z m60 -26 c1 -27 -3 -48 -9 -48 -6 0 -10 29 -9 68 1 77 17 59 18
-20z m-395 35 c23 -46 87 -316 77 -326 -6 -6 -9 -4 -8 4 2 20 -14 92 -23 104
-4 6 -13 35 -20 65 -7 30 -22 81 -32 112 -10 32 -18 60 -18 63 0 13 11 3 24
-22z m-271 -11 c9 -8 15 -17 13 -20 -5 -5 -76 37 -76 44 0 9 45 -8 63 -24z
m62 18 c8 -13 -5 -13 -25 0 -13 8 -13 10 2 10 9 0 20 -4 23 -10z m401 -66 c-3
-9 -1 -25 6 -37 11 -22 29 -97 22 -97 -2 0 -11 15 -20 33 -20 37 -36 109 -23
101 14 -8 10 9 -6 30 -23 31 -17 42 6 12 11 -15 18 -34 15 -42z m128 -17 c9
-38 16 -85 16 -105 -1 -47 -24 -149 -33 -142 -4 3 -8 78 -9 167 -2 89 0 159 4
155 4 -4 14 -38 22 -75z m-951 41 c-16 -18 -42 -51 -57 -73 -34 -51 -34 -37 0
18 32 51 64 87 78 87 5 0 -4 -15 -21 -32z m316 5 c30 -16 60 -37 67 -48 12
-19 11 -21 -10 -23 -13 -1 -31 7 -41 18 -22 24 -14 26 23 4 26 -16 26 -15 -3
10 -16 14 -31 23 -34 21 -2 -3 -13 3 -23 12 -10 9 -38 20 -61 24 -42 6 -42 6
-7 8 22 0 58 -10 89 -26z m108 5 c32 -19 63 -68 63 -99 0 -16 -79 61 -96 94
-17 33 -12 34 33 5z m-623 -72 c-20 -42 -39 -75 -41 -72 -2 2 13 38 33 80 20
43 38 75 40 73 3 -2 -12 -39 -32 -81z m926 -113 c5 -37 9 -90 8 -118 l-1 -50
-7 55 c-7 49 -47 221 -65 275 -3 11 8 -6 24 -37 19 -35 35 -84 41 -125z m-433
141 l28 -25 -32 15 c-18 9 -59 16 -95 16 -44 0 -59 3 -48 10 8 5 38 10 67 10
42 0 57 -5 80 -26z m320 4 c-3 -8 -6 -5 -6 6 -1 11 2 17 5 13 3 -3 4 -12 1
-19z m-727 -47 c-33 -65 -70 -187 -71 -233 -1 -74 -15 -90 -22 -26 -7 59 1 95
44 195 19 44 56 103 65 103 2 0 -5 -18 -16 -39z m258 9 c-20 -11 -40 -24 -43
-30 -3 -5 -13 -10 -21 -10 -12 0 -12 4 -2 19 15 24 45 40 78 40 22 0 21 -2
-12 -19z m426 -6 c9 -24 2 -26 -12 -4 -7 11 -8 20 -3 20 5 0 12 -7 15 -16z
m175 -22 c0 -24 -1 -25 -9 -7 -12 28 -12 47 0 40 6 -3 10 -18 9 -33z m315 -7
c8 -53 -15 -189 -24 -141 -7 40 0 186 10 186 4 0 11 -20 14 -45z m1402 -6 c-9
-19 -15 -29 -16 -22 0 15 22 64 27 60 2 -2 -3 -19 -11 -38z m-1976 -25 c0 -11
-31 18 -42 40 -8 16 -4 15 16 -6 14 -15 26 -30 26 -34z m525 -20 c-3 -24 -11
-44 -17 -44 -6 0 -8 12 -4 31 3 17 6 46 6 63 1 27 2 29 11 13 7 -11 8 -37 4
-63z m-356 -24 c0 -21 -25 29 -32 65 -5 26 -4 25 13 -10 11 -22 19 -47 19 -55z
m2071 69 c-7 -11 -14 -19 -16 -16 -7 7 7 37 17 37 6 0 5 -9 -1 -21z m-1335
-71 c-9 -131 -13 -150 -54 -275 -49 -151 -91 -243 -112 -243 -8 0 -25 9 -37
20 -17 17 -20 25 -12 40 6 10 14 21 19 25 10 5 71 112 102 176 42 85 79 226
79 299 0 22 5 40 10 40 7 0 8 -29 5 -82z m1445 52 c0 -11 -9 -24 -19 -29 -18
-10 -18 -8 -8 24 10 35 27 38 27 5z m-3299 -7 c-12 -20 -14 -14 -5 12 4 9 9
14 11 11 3 -2 0 -13 -6 -23z m292 10 c-4 -9 -15 -33 -25 -52 -18 -33 -19 -34
-13 -7 5 26 32 76 41 76 2 0 0 -8 -3 -17z m2962 9 c-6 -4 -18 -15 -28 -25 -16
-18 -17 -18 -17 5 0 19 6 24 28 26 15 1 22 -2 17 -6z m-2565 -11 c0 -5 -12
-11 -27 -13 -16 -3 -37 -9 -48 -13 -20 -8 -20 -8 -1 13 19 22 76 31 76 13z
m246 -43 c8 -16 13 -28 10 -28 -5 0 -46 69 -46 78 0 8 15 -13 36 -50z m1591
-10 c-3 -22 -4 -21 -11 4 -5 16 -5 36 0 45 7 16 8 15 11 -4 3 -13 3 -33 0 -45z
m-2422 5 c-24 -83 -37 -197 -34 -281 2 -45 1 -82 -2 -82 -4 0 -12 29 -19 63
-10 53 -9 79 4 157 18 103 44 190 57 190 4 0 2 -21 -6 -47z m415 27 c-6 -11
-13 -20 -16 -20 -2 0 0 9 6 20 6 11 13 20 16 20 2 0 0 -9 -6 -20z m790 -58
c22 -61 23 -113 6 -237 -2 -11 1 -22 5 -25 12 -8 -7 -120 -37 -219 -22 -73
-32 -90 -77 -135 -64 -63 -213 -165 -247 -168 -16 -2 -25 3 -28 14 -2 12 8 20
40 29 24 7 50 20 59 28 9 9 26 23 38 31 24 16 146 159 173 201 21 32 58 141
58 166 -1 10 -14 -17 -30 -60 -16 -42 -38 -89 -51 -105 l-21 -27 7 25 c4 14
13 37 21 51 24 47 45 211 47 360 1 81 5 145 8 141 4 -4 17 -35 29 -70z m-989
1 c-12 -20 -14 -14 -5 12 4 9 9 14 11 11 3 -2 0 -13 -6 -23z m2628 -25 c-7
-23 -18 -50 -26 -58 -19 -21 -16 0 7 48 11 22 20 47 20 53 0 7 3 10 6 7 3 -3
0 -26 -7 -50z m-1992 -60 c-2 -7 -16 10 -30 39 -36 69 -34 77 4 20 17 -26 29
-52 26 -59z m43 53 c0 -9 3 -27 6 -41 3 -14 -4 -2 -16 25 -11 28 -20 55 -20
60 1 16 30 -27 30 -44z m129 -41 c0 -23 -1 -23 -8 -5 -5 11 -11 36 -15 55 l-6
35 15 -30 c8 -16 14 -41 14 -55z m407 -153 c-57 -152 -101 -242 -121 -246 -17
-3 -18 -2 -5 14 13 16 13 18 0 14 -8 -3 -28 -32 -45 -64 -30 -59 -36 -121 -23
-215 3 -24 1 -25 -41 -22 -25 3 -47 -1 -51 -7 -3 -6 -17 -13 -30 -16 -13 -2
-35 -15 -49 -27 l-25 -23 27 37 c15 20 27 41 27 46 0 4 11 19 25 32 13 13 38
52 54 87 17 34 32 63 35 63 7 0 -4 -29 -26 -65 -10 -16 -18 -37 -18 -45 0 -8
-14 -29 -32 -47 -18 -18 -27 -33 -22 -33 31 0 103 120 107 178 1 17 4 28 6 26
14 -14 149 310 193 461 l23 79 9 -78 c8 -72 6 -83 -18 -149z m-1604 163 c-2
-17 -9 -30 -14 -30 -6 0 -7 7 -4 16 3 9 6 28 6 42 0 18 3 23 8 14 5 -7 7 -26
4 -42z m795 30 c43 -26 66 -74 67 -135 1 -67 -23 -105 -65 -105 -70 0 -139 62
-139 126 0 39 36 109 63 122 31 15 38 14 74 -8z m343 -15 c0 -5 -5 -3 -10 5
-5 8 -10 20 -10 25 0 6 5 3 10 -5 5 -8 10 -19 10 -25z m-839 -50 c-6 -24 -12
-65 -12 -92 -2 -45 -2 -46 -8 -13 -7 38 4 154 16 173 13 21 16 -22 4 -68z
m1228 -114 c-47 -138 -52 -132 -13 16 19 70 35 139 36 153 1 14 3 3 5 -24 3
-36 -4 -74 -28 -145z m-1029 94 c-11 -48 -19 -68 -19 -49 -1 29 27 140 34 132
1 -1 -5 -39 -15 -83z m1197 63 c-3 -8 -6 -5 -6 6 -1 11 2 17 5 13 3 -3 4 -12
1 -19z m-180 -15 c2 -57 -73 -311 -119 -403 -26 -53 -22 -32 22 102 57 173 58
176 71 251 12 63 25 88 26 50z m193 -225 c-5 -37 -10 -82 -10 -101 0 -18 -6
-41 -13 -51 -12 -17 -17 -17 -49 -6 -26 10 -43 10 -66 2 -41 -14 -48 -1 -18
35 13 15 31 42 40 58 9 17 20 37 25 45 26 46 41 83 65 154 14 43 27 86 28 95
1 9 4 -24 5 -74 2 -49 -1 -120 -7 -157z m-603 175 c-3 -10 -5 -2 -5 17 0 19 2
27 5 18 2 -10 2 -26 0 -35z m558 -33 c-13 -41 -24 -68 -25 -59 0 18 41 142 46
137 2 -2 -8 -37 -21 -78z m-368 33 c-3 -10 -5 -4 -5 12 0 17 2 24 5 18 2 -7 2
-21 0 -30z m169 0 c-3 -10 -7 -36 -11 -57 -3 -22 -8 -42 -11 -45 -7 -7 6 99
13 112 8 14 14 7 9 -10z m-397 -108 c0 -22 -4 -49 -8 -60 -8 -20 -22 87 -20
150 1 29 2 29 14 -10 8 -22 13 -58 14 -80z m70 3 c1 -43 -3 -78 -8 -78 -4 0
-8 43 -7 95 1 111 14 96 15 -17z m-816 25 c8 -49 -3 -159 -15 -141 -10 16 -9
189 2 183 4 -2 10 -21 13 -42z m954 15 c-3 -7 -5 -2 -5 12 0 14 2 19 5 13 2
-7 2 -19 0 -25z m-982 -176 c22 -54 14 -63 -16 -20 -20 28 -24 47 -26 118 l-2
85 13 -70 c8 -38 22 -89 31 -113z m239 110 c5 -37 4 -52 -4 -47 -5 3 -10 29
-10 57 0 64 5 60 14 -10z m693 16 c-3 -7 -5 -2 -5 12 0 14 2 19 5 13 2 -7 2
-19 0 -25z m-1098 -218 c14 -50 62 -141 95 -180 11 -14 4 -9 -17 10 -77 71
-118 176 -116 299 l1 76 13 -80 c7 -44 18 -100 24 -125z m60 120 l-2 -55 -8
45 c-11 66 -11 99 1 80 5 -8 9 -40 9 -70z m1429 55 c-6 -14 -13 -23 -15 -21
-5 5 15 46 22 46 3 0 -1 -11 -7 -25z m-1029 -27 c11 -21 17 -38 13 -38 -10 0
-42 54 -42 71 0 16 3 12 29 -33z m-15 -34 c3 -8 2 -12 -4 -9 -6 3 -10 10 -10
16 0 14 7 11 14 -7z m536 -6 c0 -23 -37 -94 -45 -86 -3 2 4 22 15 43 11 22 20
45 20 52 0 7 2 13 5 13 3 0 5 -10 5 -22z m-940 -111 c0 -4 17 -43 37 -85 48
-100 49 -102 18 -67 -14 17 -34 48 -45 70 -20 42 -60 163 -59 180 0 12 49 -85
49 -98z m39 18 c0 -5 -4 -3 -9 5 -5 8 -9 22 -9 30 0 16 17 -16 18 -35z m50 15
c11 -24 11 -24 -3 -6 -9 11 -16 24 -16 30 0 12 5 7 19 -24z m130 -46 c7 -10 2
-6 -13 9 -14 15 -26 36 -25 45 0 12 4 9 12 -9 7 -14 18 -35 26 -45z m591 51
c0 -6 -62 -45 -72 -45 -19 0 -5 19 25 34 33 16 47 20 47 11z m-317 -95 c53
-17 41 -22 -23 -10 -53 10 -83 29 -101 63 -8 13 2 10 38 -12 26 -16 65 -34 86
-41z m189 58 c-6 -6 -40 -13 -74 -14 l-63 -3 60 13 c81 19 92 19 77 4z m-488
-98 l27 -55 -31 35 c-29 32 -70 100 -70 116 0 18 50 -47 74 -96z m80 74 c23
-23 19 -40 -4 -19 -11 10 -20 22 -20 27 0 12 7 10 24 -8z m702 -39 c-28 -36
-63 -61 -74 -51 -3 3 17 26 43 51 56 51 70 51 31 0z m438 24 c-31 -12 -40 -9
-20 6 10 8 24 11 29 8 6 -4 2 -10 -9 -14z m-1544 -35 c23 -54 26 -71 4 -31 -9
16 -18 27 -21 24 -2 -3 0 -14 6 -25 6 -11 10 -36 9 -55 -1 -43 41 -130 91
-189 32 -37 33 -40 8 -24 -31 21 -87 93 -87 113 0 7 -4 13 -10 13 -13 0 -13
-47 0 -55 8 -5 7 -11 -1 -21 -9 -11 -15 -11 -25 -3 -17 14 -19 76 -2 81 8 3 9
18 1 57 -7 34 -7 68 -1 94 5 22 7 46 4 54 -3 7 -3 13 -1 13 2 0 13 -21 25 -46z
m305 -66 c15 -16 23 -28 18 -28 -13 0 -57 48 -82 90 -31 53 -25 61 7 9 16 -24
41 -56 57 -71z m58 80 c12 -7 30 -19 40 -27 9 -8 27 -15 40 -16 30 -3 77 -23
161 -67 58 -31 65 -37 36 -32 -59 11 -188 64 -194 80 -3 8 -10 12 -16 9 -9 -5
-100 50 -100 60 0 8 9 6 33 -7z m1069 -10 c-15 -15 -16 -32 -2 -23 6 4 5 -5
-2 -20 -8 -18 -14 -22 -20 -13 -12 20 15 88 30 73 3 -3 0 -11 -6 -17z m-1217
-44 c9 -15 12 -23 6 -20 -11 7 -35 46 -28 46 3 0 12 -12 22 -26z m709 1 c-17
-8 -44 -17 -60 -20 -19 -4 -14 1 16 14 25 10 52 19 60 19 8 0 1 -6 -16 -13z
m81 -8 c-8 -13 -25 -29 -38 -35 -33 -16 -129 -24 -157 -14 -24 9 -23 10 15 16
22 3 72 17 110 30 90 30 88 30 70 3z m-525 -46 c13 -9 13 -11 -2 -11 -9 0 -30
11 -45 26 l-28 25 30 -15 c17 -8 37 -20 45 -25z m642 0 c-48 -42 -182 -118
-182 -102 0 5 10 13 21 16 20 7 64 34 154 96 55 39 58 35 7 -10z m181 24 c-3
-9 -8 -14 -10 -11 -3 3 -2 9 2 15 9 16 15 13 8 -4z m87 -37 c-1 -38 -3 -48
-10 -37 -8 14 -3 89 6 89 2 0 4 -24 4 -52z m-1281 -76 c49 -56 82 -82 146
-117 74 -41 207 -85 310 -103 26 -4 28 -6 10 -13 -29 -11 -47 -11 -40 1 5 8
-9 9 -42 4 -122 -16 -308 47 -376 126 -44 52 -97 151 -97 181 0 27 -9 34 89
-79z m395 40 c-6 -7 -69 19 -94 38 -19 16 -11 14 36 -7 34 -16 60 -30 58 -31z
m229 41 c-7 -2 -21 -2 -30 0 -10 3 -4 5 12 5 17 0 24 -2 18 -5z m-128 -29 c27
-8 69 -14 92 -14 24 0 43 -4 43 -10 0 -27 -175 -1 -212 32 l-23 20 25 -7 c14
-4 47 -13 75 -21z m624 -28 c-17 -34 -39 -56 -91 -90 -60 -40 -72 -44 -93 -34
-24 11 -22 13 53 64 42 29 93 66 112 83 19 16 37 28 39 26 1 -2 -7 -24 -20
-49z m-964 19 c17 -14 26 -25 20 -25 -5 0 -23 11 -40 25 -16 13 -25 24 -20 24
6 0 24 -11 40 -24z m56 8 c13 -16 12 -17 -3 -4 -10 7 -18 15 -18 17 0 8 8 3
21 -13z m442 0 c-7 -2 -21 -2 -30 0 -10 3 -4 5 12 5 17 0 24 -2 18 -5z m-493
-53 c32 -32 23 -47 -10 -15 -16 16 -30 30 -30 32 0 10 23 0 40 -17z m404 -22
c-16 -4 -45 -5 -64 -1 -40 7 -67 11 -95 12 -13 1 -16 4 -8 9 6 4 53 3 104 -2
75 -8 87 -11 63 -18z m161 12 c-3 -5 -16 -10 -28 -9 -21 0 -21 1 -2 9 28 12
37 12 30 0z m-402 -40 c43 -8 72 -19 84 -32 l18 -21 -71 6 c-86 8 -131 23
-144 47 -18 33 -12 41 18 26 16 -8 58 -20 95 -26z m-78 -93 c14 -13 3 -9 -82
35 -39 21 -75 43 -79 49 -7 12 143 -66 161 -84z m803 33 l-33 -59 -17 22 c-10
12 -17 24 -17 27 0 4 89 67 97 69 1 1 -12 -26 -30 -59z m-519 40 c26 0 32 -3
24 -11 -12 -12 -104 -16 -122 -5 -25 16 -10 28 27 22 20 -3 53 -6 71 -6z m297
-5 c17 -13 11 -14 -63 -12 -84 2 -110 12 -50 20 68 8 94 7 113 -8z m-186 -6
c0 -17 -66 -39 -112 -38 l-43 1 40 8 c23 5 56 15 75 23 19 9 36 16 38 16 1 1
2 -4 2 -10z m470 -40 c-8 -14 -10 -41 -6 -73 4 -34 2 -46 -4 -36 -20 30 -4
157 17 137 2 -3 -1 -15 -7 -28z m-207 -23 c16 -18 16 -21 2 -35 -14 -14 -18
-13 -39 14 -13 16 -22 36 -21 45 2 8 4 17 4 19 1 5 33 -20 54 -43z m-78 16
c-3 -3 -11 0 -18 7 -9 10 -8 11 6 5 10 -3 15 -9 12 -12z m142 -8 c44 -28 39
-89 -6 -65 -23 13 -28 2 -9 -17 9 -9 9 -12 -2 -12 -8 0 -22 4 -30 10 -12 7
-11 12 5 30 18 20 18 21 -4 51 l-23 31 23 -7 c13 -4 34 -13 46 -21z m-500 10
c-3 -3 -12 -4 -19 -1 -8 3 -5 6 6 6 11 1 17 -2 13 -5z m598 -53 c1 -21 5 -43
9 -49 3 -6 -7 -8 -27 -6 -17 1 -35 3 -39 3 -5 1 -8 6 -8 12 0 5 3 8 8 5 4 -2
16 16 26 40 21 52 28 50 31 -5z m2202 7 c-3 -8 -6 -5 -6 6 -1 11 2 17 5 13 3
-3 4 -12 1 -19z m-2677 4 c0 -5 -9 -17 -20 -27 -22 -20 -26 -14 -10 16 11 19
30 26 30 11z m-479 -38 c17 -8 28 -18 25 -21 -3 -3 -20 4 -38 16 -39 24 -30
28 13 5z m1043 -1 c4 -9 2 -21 -4 -27 -12 -12 -15 -8 -24 22 -9 27 18 32 28 5z
m-591 -66 c-8 -41 -7 -41 -32 -28 -13 8 -18 17 -14 29 18 51 56 51 46 -1z
m496 9 c34 -4 38 -22 6 -30 -16 -4 -34 0 -50 10 -31 20 -33 39 -2 29 12 -4 33
-8 46 -9z m-474 -111 c22 -23 47 -44 55 -47 8 -3 12 -8 9 -12 -7 -8 -67 14
-95 34 -24 18 -44 52 -44 76 0 21 17 9 75 -51z m60 -6 c12 -19 -5 -23 -22 -6
-16 16 -16 17 -1 17 9 0 20 -5 23 -11z m1129 -35 c20 -8 11 -24 -14 -24 -13 0
-17 5 -14 15 7 17 7 17 28 9z m-1232 -58 c30 -13 30 -14 9 -21 -14 -4 -31 -1
-46 9 -13 9 -31 16 -39 16 -8 0 -18 5 -22 11 -8 14 49 5 98 -15z m1824 -3 c-2
-16 -5 -41 -5 -58 -2 -40 -11 -52 -46 -61 l-30 -7 29 37 c15 20 25 40 22 43
-8 8 -34 -15 -41 -38 -4 -10 -15 -19 -26 -19 -20 0 -20 0 0 29 23 32 26 41 11
41 -5 0 -22 -18 -36 -40 -21 -32 -30 -38 -40 -29 -11 9 -10 16 7 40 11 16 19
35 16 42 -2 6 -17 -9 -33 -36 -23 -38 -34 -47 -52 -44 -19 4 -30 -9 -72 -82
-28 -47 -55 -93 -60 -101 -28 -43 -150 -259 -150 -265 0 -3 -8 -18 -19 -33
-10 -15 -26 -40 -35 -55 -10 -16 -20 -27 -22 -24 -5 5 35 82 73 137 12 19 23
38 23 43 0 4 16 33 35 63 19 30 35 56 35 58 0 4 124 213 157 265 10 15 18 20
22 12 4 -6 19 11 37 42 l30 52 64 3 c36 1 72 4 80 6 8 2 19 4 23 5 4 0 6 -11
3 -26z m-2062 -50 c-19 -31 -34 -63 -34 -70 0 -7 -4 -13 -10 -13 -31 0 9 107
48 130 31 18 31 10 -4 -47z m1842 32 c-18 -28 -21 -39 -6 -30 6 3 7 -1 3 -10
-4 -12 -8 -13 -13 -4 -5 8 -17 -3 -36 -32 -56 -89 -161 -266 -202 -341 -24
-42 -46 -78 -50 -80 -4 -2 -16 -21 -26 -43 -17 -34 -20 -37 -24 -18 -4 24 117
265 216 431 34 56 62 107 62 112 0 12 17 22 54 31 17 4 33 7 35 8 2 1 -4 -10
-13 -24z m-142 -97 c-26 -46 -83 -148 -126 -228 l-78 -145 0 51 c0 27 4 54 9
60 5 5 27 43 48 84 79 149 117 215 132 234 16 18 52 37 60 30 2 -1 -18 -40
-45 -86z m-1399 72 c3 -5 -2 -10 -12 -11 -15 0 -14 -2 5 -11 15 -8 22 -19 20
-32 -5 -33 -58 -33 -97 -1 -37 32 -39 45 -8 45 12 0 29 5 37 10 20 13 47 13
55 0z m1155 -113 c-11 -77 -25 -137 -38 -162 -20 -38 -21 -38 -22 -13 0 15 4
29 9 33 10 5 18 49 25 130 4 48 28 135 36 135 4 0 -1 -55 -10 -123z m1145 53
c-3 -5 -10 -10 -16 -10 -5 0 -9 5 -9 10 0 6 7 10 16 10 8 0 12 -4 9 -10z m90
0 c-3 -5 -15 -10 -25 -10 -10 0 -22 5 -25 10 -4 6 7 10 25 10 18 0 29 -4 25
-10z m75 -5 c11 -13 8 -15 -18 -15 -31 0 -47 11 -35 24 11 11 40 6 53 -9z
m-2833 -25 c12 -31 7 -100 -7 -100 -4 0 -10 11 -12 25 -4 18 -1 25 11 25 14 1
14 2 -1 11 -11 6 -18 22 -18 39 0 39 13 38 27 0z m63 -5 c0 -8 -7 -15 -16 -15
-14 0 -14 3 -4 15 7 8 14 15 16 15 2 0 4 -7 4 -15z m2470 -2 c-20 -36 -50
-116 -45 -121 8 -8 47 37 41 47 -7 11 22 71 35 71 14 0 11 -9 -11 -38 -12 -14
-16 -28 -11 -31 5 -4 -8 -33 -30 -66 -21 -33 -40 -53 -40 -45 -3 31 3 185 8
193 2 4 17 7 34 7 25 0 28 -3 19 -17z m104 -10 c-9 -16 -46 -68 -82 -117 -35
-50 -66 -96 -69 -103 -3 -7 -9 -13 -13 -13 -12 0 18 54 90 162 36 54 71 98 79
98 10 0 9 -6 -5 -27z m86 14 c0 -6 -29 -53 -65 -104 -36 -51 -65 -96 -65 -102
0 -5 -3 -11 -7 -13 -21 -9 -189 -275 -180 -284 2 -3 34 45 71 105 42 67 73
108 81 105 12 -5 83 104 104 159 6 14 29 51 53 81 37 48 48 56 77 56 l34 0
-26 -32 c-34 -43 -191 -269 -196 -283 -2 -5 -28 -47 -58 -93 -49 -73 -90 -118
-100 -108 -4 4 70 137 99 179 11 15 16 27 11 27 -4 0 -37 -47 -71 -105 -61
-99 -86 -125 -103 -108 -4 4 39 87 96 183 138 233 165 282 165 294 0 5 10 20
22 33 23 25 58 31 58 10z m-279 -61 c-2 -43 -8 -63 -23 -78 l-21 -21 8 24 c4
13 10 50 12 82 6 78 28 72 24 -7z m408 2 c-4 -24 -12 -70 -18 -103 -6 -33 -12
-89 -12 -123 -1 -56 -6 -71 -38 -118 -20 -29 -40 -52 -45 -51 -5 2 -16 21 -23
43 -13 37 -13 42 18 106 18 37 35 65 38 64 3 -2 7 12 9 31 2 35 31 79 33 51 1
-7 5 3 10 22 15 55 15 63 0 68 -8 2 -11 0 -8 -5 4 -6 -21 -52 -54 -103 -34
-51 -63 -99 -66 -107 -11 -28 6 -11 37 37 18 28 34 50 36 50 2 0 -12 -32 -33
-71 -36 -69 -38 -70 -46 -44 -6 18 -5 36 2 52 20 43 4 37 -25 -9 -32 -51 -74
-103 -74 -92 0 31 237 344 259 344 4 0 4 -19 0 -42z m-1026 -65 c-64 -113 -67
-118 -100 -179 -33 -60 -83 -147 -138 -242 -16 -29 -33 -52 -37 -52 -18 0 -5
33 45 115 28 48 64 110 79 137 23 42 95 167 167 290 11 20 17 23 19 13 2 -9
-14 -46 -35 -82z m548 -6 c-12 -35 -28 -73 -36 -83 -8 -10 0 20 18 68 37 100
49 111 18 15z m-1726 1 c-51 -101 -55 -110 -55 -119 0 -4 -9 -23 -21 -41 l-21
-33 7 45 c3 25 19 72 34 105 16 33 31 68 34 78 4 9 16 17 27 17 21 0 21 -1 -5
-52z m2383 -117 c-6 -2 -5 -7 3 -13 11 -7 10 -8 -4 -6 -16 2 -19 14 -21 68 -4
114 6 135 20 40 8 -58 9 -86 2 -89z m-2465 144 c-3 -9 -8 -14 -10 -11 -3 3 -2
9 2 15 9 16 15 13 8 -4z m47 11 c0 -3 -4 -8 -10 -11 -5 -3 -10 -1 -10 4 0 6 5
11 10 11 6 0 10 -2 10 -4z m1975 -33 c-9 -16 -23 -40 -33 -55 -9 -15 -57 -97
-106 -183 -50 -85 -96 -155 -102 -155 -23 0 -26 20 -7 48 11 15 32 53 49 85
16 33 46 78 67 100 20 23 54 67 74 97 57 84 92 122 58 63z m-730 -10 c-4 -16
-8 -38 -11 -50 -2 -14 -14 -25 -29 -29 -15 -4 -25 -13 -25 -24 0 -10 -5 -20
-10 -22 -6 -2 -12 -64 -15 -147 -3 -83 -10 -150 -16 -158 -6 -7 -24 -13 -40
-13 -37 0 -53 -29 -45 -84 l6 -41 -40 -2 c-46 -1 -47 1 -22 42 61 99 153 288
150 308 -2 18 -7 15 -27 -23 -13 -25 -36 -64 -52 -88 -16 -24 -29 -45 -29 -47
0 -3 -20 -41 -45 -86 -48 -86 -51 -94 -35 -84 6 3 7 -1 4 -9 -10 -26 -21 -18
-27 17 -4 25 3 45 32 92 48 80 78 133 99 175 9 19 21 40 25 45 4 6 40 65 78
133 39 67 72 122 75 122 2 0 2 -12 -1 -27z m-309 -56 c-29 -52 -40 -64 -58
-62 -13 1 -24 3 -26 4 -1 0 5 13 14 27 12 17 19 21 24 13 9 -13 30 -4 30 13 0
14 43 78 48 73 3 -2 -12 -33 -32 -68z m671 36 c-3 -10 -5 -4 -5 12 0 17 2 24
5 18 2 -7 2 -21 0 -30z m-2620 -95 c-2 -18 -4 -4 -4 32 0 36 2 50 4 33 2 -18
2 -48 0 -65z m938 35 c-9 -54 -10 -55 -13 -21 -3 30 10 78 21 78 2 0 -2 -26
-8 -57z m-668 27 c-46 -36 -55 -96 -25 -158 16 -32 -1 -46 -45 -38 -40 8 -87
41 -87 62 0 8 7 26 16 39 20 31 131 115 151 115 11 0 7 -6 -10 -20z m3124 -36
c-2 -31 -6 -43 -13 -36 -11 11 -2 82 10 82 4 0 6 -21 3 -46z m-3071 5 c0 -5
-4 -9 -10 -9 -5 0 -10 7 -10 16 0 8 5 12 10 9 6 -3 10 -10 10 -16z m90 12 c0
-6 -5 -13 -10 -16 -15 -9 -43 3 -35 15 8 13 45 13 45 1z m83 -8 c-7 -2 -19 -2
-25 0 -7 3 -2 5 12 5 14 0 19 -2 13 -5z m-231 -58 c-2 -25 -8 -45 -13 -45 -10
0 -12 34 -3 68 10 38 19 24 16 -23z m2712 10 c-9 -14 -18 -25 -20 -25 -2 0 2
11 8 25 6 14 15 25 20 25 5 0 1 -11 -8 -25z m-2674 -6 c0 -11 -4 -17 -10 -14
-5 3 -10 13 -10 21 0 8 5 14 10 14 6 0 10 -9 10 -21z m160 -94 c0 -17 -29 -27
-84 -27 -47 -1 -87 16 -81 35 2 6 9 31 15 54 16 62 43 63 103 1 26 -27 47 -56
47 -63z m836 48 c-3 -38 -10 -81 -16 -98 -11 -33 -11 -43 5 108 4 31 9 57 12
57 3 0 3 -30 -1 -67z m1468 -40 c-50 -79 -61 -103 -50 -103 3 0 15 18 27 40
12 22 24 38 27 36 5 -6 -60 -126 -68 -126 -3 0 -3 30 1 67 4 37 5 73 2 80 -5
13 36 88 44 80 2 -3 -6 -21 -18 -41 -31 -53 -17 -55 16 -2 25 40 38 50 67 55
4 0 -18 -38 -48 -86z m626 37 c0 -5 -9 -10 -21 -10 -11 0 -17 5 -14 10 3 6 13
10 21 10 8 0 14 -4 14 -10z m30 0 c0 -5 -5 -10 -11 -10 -5 0 -7 5 -4 10 3 6 8
10 11 10 2 0 4 -4 4 -10z m-120 -10 c0 -5 -4 -10 -10 -10 -5 0 -10 5 -10 10 0
6 5 10 10 10 6 0 10 -4 10 -10z m106 -23 c10 4 14 -4 14 -26 0 -17 -5 -31 -11
-31 -6 0 -8 9 -4 20 4 11 2 20 -4 20 -6 0 -11 -17 -11 -37 0 -24 -8 -45 -22
-60 -12 -13 -18 -26 -15 -30 4 -3 14 2 23 13 15 19 15 19 12 -1 -3 -15 -11
-20 -36 -21 -17 -1 -32 1 -32 4 0 2 10 22 22 43 23 42 19 60 -9 38 -14 -11
-13 -8 3 16 12 17 24 39 28 49 5 14 10 16 18 8 6 -6 17 -8 24 -5z m-87 -29
c-12 -18 -32 -44 -43 -56 -12 -13 -21 -36 -21 -50 0 -23 -4 -27 -32 -29 -18
-1 -33 2 -33 6 0 11 91 145 104 153 6 4 19 8 29 8 17 0 17 -3 -4 -32z m-2109
2 c0 -5 -4 -10 -10 -10 -5 0 -10 5 -10 10 0 6 5 10 10 10 6 0 10 -4 10 -10z
m1986 -56 c-21 -31 -40 -53 -43 -50 -4 3 11 31 32 61 21 31 40 53 43 50 3 -2
-12 -30 -32 -61z m-1945 1 c-5 -20 -7 -43 -4 -51 3 -8 0 -14 -5 -14 -11 0 -8
65 4 104 12 35 16 0 5 -39z m-75 -10 c-7 -37 -49 -116 -109 -204 -20 -30 -34
-57 -31 -60 3 -3 9 1 14 9 6 8 10 11 10 6 0 -5 -10 -24 -21 -43 -33 -53 -16
-49 20 4 17 26 31 42 31 34 0 -11 4 -9 15 5 20 26 -28 -97 -54 -140 -12 -18
-30 -62 -41 -97 -11 -35 -37 -101 -58 -146 -34 -77 -39 -83 -67 -83 -16 0 -48
-3 -70 -6 -22 -3 -35 -2 -29 3 18 14 145 264 139 273 -3 5 19 61 50 125 30 63
55 118 55 123 0 4 9 12 21 17 20 9 70 95 103 178 19 47 30 48 22 2z m274 15
c0 -5 -5 -10 -11 -10 -5 0 -7 5 -4 10 3 6 8 10 11 10 2 0 4 -4 4 -10z m130 0
c0 -5 -21 -10 -47 -9 -36 0 -43 3 -28 9 28 12 75 12 75 0z m-374 -78 c-12 -12
-18 8 -10 35 l8 28 4 -28 c2 -16 1 -31 -2 -35z m229 28 c-20 -22 -31 -20 -22
5 4 8 14 15 23 15 16 0 16 -2 -1 -20z m49 -2 l-5 -23 17 23 c9 12 27 22 39 22
21 0 20 -5 -28 -102 -43 -87 -52 -99 -55 -75 -2 17 5 37 18 55 l22 27 -21 3
c-24 4 -27 28 -9 67 14 31 28 33 22 3z m1963 -15 c-3 -10 -5 -4 -5 12 0 17 2
24 5 18 2 -7 2 -21 0 -30z m-2339 -18 c-12 -24 -23 -43 -26 -41 -4 5 36 86 43
86 3 0 -5 -20 -17 -45z m293 -15 c6 0 7 6 3 13 -5 8 -4 9 4 2 6 -6 9 -21 5
-33 -5 -21 -7 -21 -23 -7 -12 11 -15 24 -11 47 5 32 6 32 9 6 2 -16 8 -28 13
-28z m-113 2 c2 -7 -3 -12 -12 -12 -9 0 -16 7 -16 16 0 17 22 14 28 -4z m-774
-16 c-10 -8 -21 -12 -24 -10 -5 6 21 24 34 24 6 0 1 -6 -10 -14z m726 -6 c0
-13 -11 -13 -30 0 -12 8 -11 10 8 10 12 0 22 -4 22 -10z m269 -86 c-23 -49
-46 -100 -51 -114 -39 -97 -93 -180 -118 -180 -13 0 17 62 36 73 8 4 14 16 14
25 0 9 15 40 32 67 17 28 51 90 76 138 24 49 46 87 48 84 3 -2 -14 -44 -37
-93z m-379 7 c-42 -67 -49 -60 -13 12 15 31 32 52 36 48 5 -5 -6 -32 -23 -60z
m558 24 c-6 -14 -15 -25 -20 -25 -5 0 -1 11 8 25 9 14 18 25 20 25 2 0 -2 -11
-8 -25z m-955 -62 c6 -82 -5 -116 -23 -69 -7 19 -7 33 1 48 6 12 8 38 5 59 -3
22 -2 39 2 39 5 0 12 -35 15 -77z m435 31 c-13 -25 -24 -40 -26 -35 -3 10 35
81 44 81 2 0 -6 -21 -18 -46z m77 36 c-3 -5 -13 -10 -21 -10 -8 0 -14 5 -14
10 0 6 9 10 21 10 11 0 17 -4 14 -10z m105 -11 c0 -4 -7 -6 -15 -3 -8 4 -15
10 -15 15 0 4 7 6 15 3 8 -4 15 -10 15 -15z m70 1 c0 -11 -7 -20 -15 -20 -18
0 -19 12 -3 28 16 16 18 15 18 -8z m2067 -12 c-3 -7 -5 -2 -5 12 0 14 2 19 5
13 2 -7 2 -19 0 -25z m-2280 -36 c8 -5 1 -25 -24 -67 -40 -67 -123 -230 -123
-240 0 -3 5 -3 10 0 15 9 12 -12 -6 -47 -14 -27 -14 -32 -1 -46 14 -13 22 -1
76 112 33 69 62 126 65 126 3 0 -11 -35 -30 -77 -75 -165 -107 -225 -114 -213
-5 8 -9 7 -14 -5 -3 -9 -4 -21 0 -26 6 -10 -23 -25 -32 -16 -3 3 1 18 9 34 19
38 32 84 18 63 -15 -22 -13 -5 4 37 19 46 12 55 -10 13 -10 -19 -14 -42 -11
-56 9 -33 -37 -94 -70 -94 l-23 0 31 68 c16 37 39 86 49 109 10 23 19 45 19
49 0 10 154 284 160 284 3 0 10 -4 17 -8z m73 2 c0 -1 -16 -26 -35 -55 -19
-30 -35 -57 -35 -61 0 -5 -7 -8 -15 -8 -13 0 -12 7 6 43 34 65 48 84 64 84 8
0 15 -1 15 -3z m11 -37 c-13 -12 -20 -15 -16 -7 14 26 28 41 33 35 3 -3 -5
-16 -17 -28z m69 4 c-10 -21 -30 -37 -30 -26 0 14 21 45 31 45 6 0 6 -7 -1
-19z m41 -6 c5 4 6 -1 2 -10 -4 -11 -8 -13 -13 -5 -4 6 -14 -7 -25 -32 -10
-24 -37 -62 -59 -85 -22 -24 -37 -45 -34 -49 4 -3 17 6 29 20 12 14 25 23 29
21 4 -3 13 8 20 24 6 16 27 47 46 68 19 21 34 44 34 51 0 6 5 12 10 12 12 0 8
-8 -57 -122 -25 -43 -49 -78 -53 -78 -5 0 -10 -10 -12 -22 -2 -19 -11 -24 -50
-28 -27 -3 -48 -3 -48 0 0 4 18 41 40 84 22 42 40 74 40 71 0 -3 19 16 43 43
23 26 44 44 45 40 2 -4 8 -6 13 -3z m-769 -33 c-10 -26 -76 -111 -85 -112 -5
0 1 13 12 29 12 16 21 32 21 36 0 12 41 65 50 65 5 0 6 -8 2 -18z m62 -18 c9
-23 8 -27 -9 -20 -10 4 -21 -7 -36 -35 -23 -46 -37 -48 -17 -3 18 41 39 74 48
74 4 0 11 -7 14 -16z m600 1 c-4 -8 -10 -15 -14 -15 -5 0 -12 -10 -16 -22 -4
-13 -6 -23 -4 -23 1 0 -14 -33 -34 -72 -20 -40 -41 -73 -46 -73 -16 0 -12 13
24 68 19 28 31 52 25 52 -11 0 28 81 45 92 18 12 26 9 20 -7z m294 -39 c-15
-29 -15 -29 -22 -11 -4 11 -2 14 6 9 7 -5 9 -2 6 8 -4 8 0 15 7 15 11 0 11 -5
3 -21z m-1482 -22 c-4 -9 -9 -15 -11 -12 -3 3 -3 13 1 22 4 9 9 15 11 12 3 -3
3 -13 -1 -22z m701 -6 c-3 -8 -6 -5 -6 6 -1 11 2 17 5 13 3 -3 4 -12 1 -19z
m337 -70 c-20 -41 -43 -75 -51 -75 -14 0 -10 27 9 57 7 11 8 10 5 -7 -9 -40 3
-25 34 43 16 37 32 65 35 62 3 -3 -12 -39 -32 -80z m459 25 l6 -53 -33 0 -33
0 26 53 c14 30 26 54 27 53 1 -1 4 -25 7 -53z m-888 23 l20 -7 -20 -11 c-11
-6 -37 -27 -58 -47 l-38 -36 22 50 c25 59 40 79 48 67 3 -5 15 -12 26 -16z
m847 -8 c-7 -7 -12 -8 -12 -2 0 14 12 26 19 19 2 -3 -1 -11 -7 -17z m-1304 -6
c2 -7 -6 -12 -17 -12 -21 0 -27 11 -14 24 9 9 26 2 31 -12z m542 3 c0 -9 -62
-75 -72 -75 -5 0 1 18 13 40 14 24 30 40 41 40 10 0 18 -2 18 -5z m-220 -10
c0 -21 -34 -76 -65 -105 l-37 -35 18 33 c61 109 63 112 75 112 5 0 9 -2 9 -5z
m273 -18 c5 -12 -61 -112 -69 -104 -5 5 50 117 57 117 4 0 9 -6 12 -13z m-151
-50 c-27 -55 -96 -122 -116 -114 -8 3 -18 2 -21 -3 -8 -13 -25 -13 -25 0 0 5
11 12 25 16 13 3 27 16 31 27 7 24 114 130 122 122 3 -3 -4 -24 -16 -48z m792
19 c-3 -9 -10 -16 -15 -16 -6 0 -5 9 1 21 13 24 24 20 14 -5z m-1364 -1 c0 -8
5 -15 10 -15 6 0 10 5 10 10 0 6 5 10 11 10 7 0 9 -10 5 -27 -4 -16 -9 -37
-12 -48 -2 -11 8 4 23 33 15 28 31 52 35 52 11 0 10 -18 -4 -43 -14 -26 -21
-100 -9 -92 5 2 17 28 27 56 10 27 25 55 32 62 10 8 10 1 -3 -28 -29 -68 -29
-69 -17 -61 20 12 -10 -57 -32 -75 -17 -14 -21 -31 -24 -92 -4 -79 -13 -93
-51 -79 -18 7 -19 9 -3 42 33 68 64 151 60 156 -3 2 -11 -10 -19 -28 -49 -122
-80 -178 -99 -178 -12 0 -20 -7 -20 -17 0 -9 -3 -14 -6 -10 -9 8 -17 271 -10
310 3 18 14 37 24 44 17 10 18 8 14 -13 -6 -34 3 -30 22 11 17 36 36 46 36 20z
m750 -9 c-11 -31 -71 -136 -76 -136 -3 0 3 14 11 31 9 17 14 33 11 36 -9 10
-38 -69 -33 -89 5 -19 -13 -75 -29 -91 -7 -7 -34 55 -34 79 0 6 23 39 50 73
28 34 50 56 50 49 0 -7 6 -4 12 7 34 63 55 86 38 41z m-294 -37 c-18 -41 -21
-29 -4 18 7 19 14 30 16 25 1 -4 -4 -24 -12 -43z m204 46 c0 -3 -16 -39 -35
-81 -35 -75 -36 -76 -66 -70 -18 3 -38 6 -46 6 -16 0 -13 25 3 25 5 0 36 28
68 63 52 55 76 73 76 57z m-255 -104 c-15 -30 -33 -41 -65 -41 -15 0 -10 9 22
40 46 44 66 44 43 1z m616 -26 c-5 -21 -7 -51 -4 -67 7 -34 -7 -48 -49 -48
-33 0 -33 0 -9 44 11 19 30 53 41 76 25 50 36 47 21 -5z m2311 -190 c0 -20 -3
-39 -6 -42 -3 -4 -6 15 -6 42 0 27 3 46 6 42 3 -3 6 -22 6 -42z m-2045 -17
c-3 -8 -6 -5 -6 6 -1 11 2 17 5 13 3 -3 4 -12 1 -19z m1563 -202 c0 -3 -4 -8
-10 -11 -5 -3 -10 -1 -10 4 0 6 5 11 10 11 6 0 10 -2 10 -4z m-163 -22 c-3 -3
-12 -4 -19 -1 -8 3 -5 6 6 6 11 1 17 -2 13 -5z m236 -21 c-7 -2 -19 -2 -25 0
-7 3 -2 5 12 5 14 0 19 -2 13 -5z"/>
<path d="M1340 3605 c128 -33 169 -41 159 -31 -9 9 -194 54 -244 60 -27 3 11
-10 85 -29z"/>
<path d="M1876 3578 c-9 -35 -7 -76 4 -83 6 -4 10 15 10 49 0 60 -4 70 -14 34z"/>
<path d="M1392 3543 c-18 -7 -4 -23 19 -23 12 0 19 5 17 12 -5 14 -18 18 -36
11z"/>
<path d="M1850 3466 c0 -2 7 -7 16 -10 8 -3 12 -2 9 4 -6 10 -25 14 -25 6z"/>
<path d="M1480 3404 c0 -8 5 -12 10 -9 6 4 8 11 5 16 -9 14 -15 11 -15 -7z"/>
<path d="M110 3040 c0 -11 2 -20 4 -20 2 0 6 9 9 20 3 11 1 20 -4 20 -5 0 -9
-9 -9 -20z"/>
<path d="M3273 3260 c0 -25 2 -35 4 -22 2 12 2 32 0 45 -2 12 -4 2 -4 -23z"/>
<path d="M1366 3385 c4 -8 11 -15 16 -15 6 0 5 6 -2 15 -7 8 -14 15 -16 15 -2
0 -1 -7 2 -15z"/>
<path d="M1399 3342 c6 -12 16 -24 22 -28 8 -4 8 -1 0 14 -6 12 -16 24 -22 28
-8 4 -8 1 0 -14z"/>
<path d="M1140 3351 c0 -5 5 -13 10 -16 6 -3 10 -2 10 4 0 5 -4 13 -10 16 -5
3 -10 2 -10 -4z"/>
<path d="M3223 1278 c-53 -60 -73 -112 -22 -57 41 43 64 79 52 79 -5 0 -19
-10 -30 -22z"/>
<path d="M3297 1093 c-4 -3 -7 -11 -7 -17 0 -6 5 -5 12 2 6 6 9 14 7 17 -3 3
-9 2 -12 -2z"/>
<path d="M1129 848 c-7 -12 -28 -52 -47 -88 -50 -92 -133 -282 -129 -293 2 -6
16 19 31 54 16 35 60 127 98 203 37 76 67 141 64 143 -2 3 -10 -6 -17 -19z"/>
<path d="M1035 780 c-25 -45 -45 -84 -42 -86 2 -2 25 32 52 76 26 45 45 83 42
86 -2 3 -26 -32 -52 -76z"/>
<path d="M1060 489 c0 -5 5 -7 10 -4 6 3 10 8 10 11 0 2 -4 4 -10 4 -5 0 -10
-5 -10 -11z"/>
<path d="M120 600 c0 -5 5 -10 10 -10 6 0 10 5 10 10 0 6 -4 10 -10 10 -5 0
-10 -4 -10 -10z"/>
<path d="M825 3760 c-8 -12 24 -19 75 -15 25 1 54 3 64 4 11 1 17 4 13 7 -9
10 -146 13 -152 4z"/>
<path d="M1678 3703 c7 -3 16 -2 19 1 4 3 -2 6 -13 5 -11 0 -14 -3 -6 -6z"/>
<path d="M3090 3575 c-17 -21 -5 -31 15 -12 8 9 15 18 15 21 0 11 -18 6 -30
-9z"/>
<path d="M2350 3569 c0 -3 7 -20 15 -36 15 -29 22 -113 41 -496 5 -82 10 -123
16 -113 5 8 7 26 4 40 -2 14 -9 114 -15 223 -18 317 -21 340 -42 365 -10 13
-18 20 -19 17z"/>
<path d="M2283 3535 c-9 -24 1 -27 20 -5 14 17 15 20 2 20 -9 0 -18 -7 -22
-15z"/>
<path d="M2010 3526 c0 -2 16 -13 36 -25 46 -28 86 -113 119 -257 22 -94 26
-142 32 -349 6 -234 5 -241 -16 -276 -18 -31 -29 -38 -68 -44 -68 -10 -113
-57 -113 -119 0 -46 16 -96 32 -96 5 0 21 -12 36 -27 15 -15 29 -28 32 -28 3
-1 21 -8 40 -17 41 -19 90 -29 90 -18 0 4 -7 11 -16 14 -8 3 -13 10 -10 15 3
5 -3 11 -14 14 -20 5 -50 61 -50 94 0 10 5 36 12 58 l11 40 11 -35 c6 -19 19
-48 28 -65 19 -35 88 -104 88 -88 0 6 -6 13 -13 16 -28 11 -77 99 -76 136 2
86 23 105 81 77 35 -17 93 -98 93 -130 1 -26 22 -32 29 -8 9 26 -8 65 -41 101
-15 16 -40 43 -56 60 -17 19 -37 31 -52 31 -21 0 -25 4 -20 23 20 85 45 224
45 251 0 24 3 28 10 16 7 -10 10 44 8 175 -3 183 -5 194 -36 292 -36 114 -53
139 -99 152 -37 11 -43 -1 -18 -35 13 -18 14 -18 15 -1 0 31 34 15 54 -26 39
-81 57 -177 62 -337 3 -86 1 -173 -4 -195 -10 -38 -10 -37 -11 30 -1 91 -36
303 -47 292 -3 -3 2 -42 11 -88 28 -138 34 -281 19 -389 -24 -165 -34 -132
-35 115 0 283 -19 408 -83 548 -26 55 -75 107 -102 107 -8 0 -14 -2 -14 -4z
m187 -938 c-3 -8 -6 -5 -6 6 -1 11 2 17 5 13 3 -3 4 -12 1 -19z m-51 -46 c-20
-24 -76 -137 -76 -157 0 -8 -8 -15 -19 -15 -42 0 -51 100 -12 144 20 23 68 45
100 46 23 0 23 -1 7 -18z m-32 -187 l16 -50 -25 26 c-21 20 -25 31 -19 53 8
32 7 33 28 -29z"/>
<path d="M2768 3489 c-10 -5 -18 -17 -18 -25 0 -12 4 -12 25 3 37 27 31 45 -7
22z"/>
<path d="M2180 3353 c0 -10 5 -25 10 -33 8 -12 10 -9 10 12 0 15 -4 30 -10 33
-5 3 -10 -2 -10 -12z"/>
<path d="M2112 3270 c3 -8 15 -46 28 -83 12 -38 24 -66 27 -64 5 5 -44 147
-54 156 -3 3 -4 -1 -1 -9z"/>
<path d="M3147 2826 c-4 -10 -7 -25 -6 -34 0 -11 4 -9 10 7 5 13 8 29 6 35 -2
5 -6 2 -10 -8z"/>
<path d="M2992 2800 c0 -14 2 -19 5 -12 2 6 2 18 0 25 -3 6 -5 1 -5 -13z"/>
<path d="M2281 2784 c0 -11 3 -14 6 -6 3 7 2 16 -1 19 -3 4 -6 -2 -5 -13z"/>
<path d="M2662 2630 c0 -14 2 -19 5 -12 2 6 2 18 0 25 -3 6 -5 1 -5 -13z"/>
<path d="M2652 2565 c0 -16 2 -22 5 -12 2 9 2 23 0 30 -3 6 -5 -1 -5 -18z"/>
<path d="M2385 2510 c3 -5 8 -10 11 -10 2 0 4 5 4 10 0 6 -5 10 -11 10 -5 0
-7 -4 -4 -10z"/>
<path d="M2400 2480 c0 -5 5 -10 11 -10 5 0 7 5 4 10 -3 6 -8 10 -11 10 -2 0
-4 -4 -4 -10z"/>
<path d="M2435 2460 c7 -23 6 -24 -9 -11 -16 13 -17 12 -10 -14 4 -16 13 -39
19 -52 11 -21 12 -17 10 32 -1 30 -5 58 -9 62 -5 5 -5 -3 -1 -17z"/>
<path d="M2516 2398 c-9 -12 -16 -28 -16 -36 0 -18 -42 -32 -57 -20 -10 8 -13
6 -13 -6 0 -9 6 -16 13 -16 6 0 22 -3 34 -6 16 -4 23 0 28 15 3 12 13 21 20
21 8 0 19 8 25 18 8 12 13 13 16 5 3 -7 12 -13 19 -13 7 0 15 -7 19 -15 8 -22
26 -18 26 5 0 12 -15 29 -40 45 -48 31 -55 31 -74 3z"/>
<path d="M2962 2383 c-39 -19 -65 -54 -60 -80 4 -15 7 -14 17 8 16 32 60 59
98 59 49 0 114 -49 135 -102 6 -14 2 -18 -15 -18 -26 0 -47 -17 -47 -39 0 -11
5 -9 16 7 19 28 38 19 23 -11 -12 -22 -12 -22 9 -3 18 15 24 16 37 6 9 -8 15
-8 15 -2 0 6 -4 14 -10 17 -5 3 -10 20 -10 36 0 16 -7 41 -16 54 -14 22 -14
25 -1 25 39 0 60 -70 42 -137 -7 -26 -14 -40 -14 -30 -1 21 -21 23 -21 1 0 -8
5 -24 10 -35 9 -15 7 -21 -6 -26 -19 -7 -34 13 -27 36 3 11 1 11 -7 -2 -16
-25 15 -61 46 -53 17 5 27 -3 49 -34 28 -41 70 -57 58 -22 -3 9 -10 22 -15 29
-7 8 -3 10 13 6 18 -5 20 -3 14 16 -7 24 13 29 33 9 8 -8 12 -9 12 -1 0 18 40
2 56 -23 14 -20 14 -25 -1 -48 -10 -15 -13 -26 -6 -26 6 0 18 11 27 24 22 35
2 75 -48 92 -21 7 -47 22 -59 32 -11 11 -36 23 -55 27 l-34 6 0 60 c0 54 -3
64 -29 90 -16 16 -35 27 -43 24 -7 -3 -35 6 -62 20 -58 29 -79 31 -124 8z
m327 -259 c-13 -7 -33 -11 -43 -7 -15 4 -18 2 -12 -13 6 -18 5 -18 -9 0 -15
20 -20 48 -9 58 3 4 26 -1 51 -9 45 -16 45 -16 22 -29z"/>
<path d="M2680 2300 c0 -5 7 -10 15 -10 8 0 16 -9 17 -20 0 -11 1 -26 2 -32 1
-8 -9 -12 -25 -10 -43 5 -54 -19 -34 -72 10 -25 25 -48 34 -51 18 -5 76 19 86
36 9 13 1 11 -40 -8 -28 -13 -38 -14 -48 -4 -9 10 -8 14 6 22 24 14 21 31 -5
27 -15 -2 -24 3 -26 15 -3 13 3 17 28 17 26 0 33 -5 42 -30 8 -25 13 -28 25
-19 9 9 11 15 3 23 -5 5 -10 20 -10 33 0 13 -4 23 -9 23 -5 0 -12 16 -15 35
-5 26 -12 35 -26 35 -11 0 -20 -4 -20 -10z"/>
<path d="M1975 2280 c4 -11 2 -20 -4 -20 -6 0 -11 -4 -11 -9 0 -5 12 -8 28 -6
27 3 31 17 10 42 -16 20 -30 15 -23 -7z"/>
<path d="M2260 2270 l-25 -8 25 -1 c14 0 32 4 40 9 13 9 13 10 0 9 -8 -1 -26
-5 -40 -9z"/>
<path d="M2926 2171 c-5 -7 3 -11 21 -11 32 0 53 -16 53 -39 0 -11 -4 -10 -15
5 -18 24 -19 7 0 -26 17 -30 19 -86 4 -129 -9 -25 -16 -31 -39 -31 -16 0 -32
-4 -35 -10 -3 -5 -17 -10 -30 -10 -13 0 -27 5 -30 10 -3 6 -11 10 -16 10 -6 0
-7 -4 -4 -10 8 -13 -65 -13 -85 0 -13 9 -13 11 0 20 12 8 11 10 -7 10 -26 0
-30 -21 -9 -39 7 -6 39 -12 70 -12 31 -1 59 -5 61 -10 8 -12 -25 -27 -49 -22
-17 4 -18 3 -6 -6 13 -9 12 -12 -5 -25 -32 -23 -10 -29 26 -7 36 22 94 27 119
11 12 -8 8 -16 -27 -46 -42 -35 -59 -73 -28 -60 8 3 22 9 32 13 11 4 14 3 9
-5 -4 -7 -1 -12 8 -12 8 0 18 5 21 10 3 6 15 10 26 10 12 0 45 21 75 46 30 26
54 44 54 41 0 -4 -14 -27 -32 -52 -24 -33 -29 -48 -21 -56 14 -14 107 61 129
103 17 32 0 40 -22 11 -15 -21 -19 -2 -5 25 4 9 11 44 14 77 6 59 6 60 -11 35
-28 -42 -116 -120 -134 -120 -28 0 -20 12 35 55 37 29 53 50 58 73 5 25 4 32
-6 28 -9 -3 -16 6 -20 23 -6 26 -24 41 -67 55 -10 3 -18 14 -18 24 0 11 -6 25
-13 31 -21 17 -74 25 -81 12z m129 -87 c9 -4 20 -17 25 -29 11 -29 2 -65 -14
-59 -8 3 -12 -4 -12 -17 1 -12 -4 -24 -11 -26 -9 -3 -12 9 -11 39 0 24 -2 55
-5 71 -6 28 -1 32 28 21z m99 -178 c-3 -9 -10 -16 -15 -16 -6 0 -5 9 1 21 13
24 24 20 14 -5z m-134 -59 c0 -6 -88 -67 -96 -67 -12 0 39 52 61 60 22 10 35
12 35 7z m113 -36 c-5 -19 -43 -61 -43 -47 0 6 41 66 46 66 1 0 0 -9 -3 -19z"/>
<path d="M2399 2081 c-13 -11 -21 -23 -17 -27 5 -4 16 0 26 9 25 23 42 21 42
-2 0 -24 -32 -48 -83 -62 -45 -12 -138 4 -157 26 -7 8 -17 12 -23 8 -6 -4 -3
-11 8 -19 15 -11 16 -16 5 -29 -19 -23 -49 -37 -92 -45 -30 -6 -41 -3 -54 11
-16 18 -15 19 34 19 47 0 73 12 57 28 -3 3 -10 1 -14 -6 -4 -7 -18 -10 -32 -8
-13 3 -31 5 -40 5 -12 1 -15 8 -11 26 6 31 -10 33 -23 3 -8 -19 -20 -24 -70
-28 -54 -4 -60 -7 -63 -29 -2 -13 -12 -26 -23 -28 -10 -3 -19 -11 -19 -19 0
-16 17 -28 22 -14 2 5 9 6 17 1 18 -11 -8 -26 -63 -36 l-39 -8 5 32 c5 36 3
39 -12 11 -7 -14 -8 -26 -1 -39 16 -29 -12 -35 -37 -8 -30 33 -42 61 -35 85 6
23 -12 31 -20 10 -3 -7 -6 -2 -6 11 -1 24 -1 24 -15 5 -9 -12 -11 -23 -5 -29
12 -13 12 -88 -1 -80 -5 3 -10 21 -10 38 -1 27 -2 29 -11 14 -6 -10 -8 -28 -5
-41 6 -24 62 -56 99 -56 12 -1 33 -7 47 -15 41 -24 69 -18 103 21 18 19 32 41
32 47 2 26 31 57 55 57 34 0 55 15 44 31 -4 8 5 4 20 -9 45 -35 120 -24 171
25 17 16 31 19 87 15 36 -2 82 1 102 8 39 13 80 56 72 77 -7 17 2 17 20 -1 7
-8 26 -24 41 -35 25 -21 26 -22 7 -35 -25 -19 -15 -27 38 -32 31 -3 36 -2 18
4 -17 6 -24 15 -23 29 2 14 -13 35 -42 62 -50 46 -88 53 -126 22z m-406 -125
c3 -8 -1 -17 -10 -20 -16 -7 -43 10 -43 25 0 15 47 10 53 -5z m-90 -97 c-6 -6
-27 -14 -48 -19 -42 -10 -38 0 8 17 41 15 54 16 40 2z m-38 -48 c-11 -11 -31
-14 -60 -11 -17 2 -17 3 5 10 36 11 66 12 55 1z"/>
<path d="M1810 2050 c0 -5 5 -10 10 -10 6 0 10 5 10 10 0 6 -4 10 -10 10 -5 0
-10 -4 -10 -10z"/>
<path d="M1520 2022 c0 -5 7 -17 16 -28 14 -17 15 -17 10 -1 -3 10 -6 23 -6
28 0 5 -4 9 -10 9 -5 0 -10 -4 -10 -8z"/>
<path d="M110 1958 c0 -23 100 -118 123 -118 15 0 6 19 -11 24 -22 7 -92 72
-92 85 0 6 -4 13 -10 16 -5 3 -10 0 -10 -7z"/>
<path d="M2708 1743 c7 -3 16 -2 19 1 4 3 -2 6 -13 5 -11 0 -14 -3 -6 -6z"/>
<path d="M2120 1724 c0 -14 3 -14 15 -4 8 7 15 14 15 16 0 2 -7 4 -15 4 -8 0
-15 -7 -15 -16z"/>
<path d="M1529 1688 c-41 -46 -47 -58 -26 -58 7 0 14 -14 15 -31 3 -44 28 -86
60 -103 52 -27 123 -46 147 -40 28 7 65 56 47 62 -7 2 -13 13 -13 25 -1 17 -2
18 -6 5 -6 -24 -20 -22 -34 4 -7 13 -18 29 -26 36 -7 8 -12 26 -11 42 3 34
-24 67 -69 86 -18 8 -35 14 -39 14 -3 0 -24 -19 -45 -42z m106 -2 c26 -15 31
-24 31 -54 0 -21 4 -45 8 -54 7 -15 3 -18 -22 -18 -43 0 -56 21 -49 83 5 50 5
51 -8 22 -8 -16 -14 -37 -15 -45 -1 -17 -29 28 -30 47 0 16 27 42 42 39 7 -1
27 -10 43 -20z m-39 -154 c9 -25 9 -32 0 -29 -19 6 -56 69 -56 95 l0 25 23
-29 c12 -16 27 -43 33 -62z m116 -2 c19 -17 18 -18 -4 -24 -38 -10 -60 -7 -80
11 -26 24 -23 28 24 29 27 1 48 -5 60 -16z m38 -30 c0 -17 -49 -31 -68 -20
-14 8 -13 9 8 10 14 0 32 5 40 10 19 12 20 12 20 0z"/>
<path d="M3410 1690 c0 -11 2 -20 5 -20 2 0 9 9 15 20 9 16 8 20 -5 20 -8 0
-15 -9 -15 -20z"/>
<path d="M1810 1635 c0 -9 6 -12 15 -9 8 4 15 10 15 15 0 5 -7 9 -15 9 -8 0
-15 -7 -15 -15z"/>
<path d="M146 1622 c-3 -5 1 -15 9 -22 16 -14 20 -3 6 19 -5 8 -11 9 -15 3z"/>
<path d="M1820 1586 c0 -9 5 -16 10 -16 6 0 10 4 10 9 0 6 -4 13 -10 16 -5 3
-10 -1 -10 -9z"/>
<path d="M2021 1552 c-29 -57 -22 -76 8 -23 12 23 21 47 18 54 -2 6 -14 -7
-26 -31z"/>
<path d="M3357 1573 c-11 -10 -8 -20 8 -27 10 -4 15 1 15 14 0 20 -11 26 -23
13z"/>
<path d="M170 1561 c0 -6 5 -13 10 -16 6 -3 10 1 10 9 0 9 -4 16 -10 16 -5 0
-10 -4 -10 -9z"/>
<path d="M190 1524 c0 -13 18 -39 24 -34 2 3 -2 14 -10 24 -8 11 -14 16 -14
10z"/>
<path d="M1195 1415 c-59 -93 -156 -293 -136 -281 5 3 34 57 65 119 31 63 66
123 78 133 12 10 18 13 14 7 -4 -7 -3 -13 2 -13 6 0 13 7 16 16 9 23 8 26 -6
18 -7 -4 -3 3 10 15 25 25 28 41 7 41 -8 0 -30 -25 -50 -55z"/>
<path d="M1196 1361 c-4 -7 -5 -15 -2 -18 9 -9 19 4 14 18 -4 11 -6 11 -12 0z"/>
<path d="M704 1317 c-19 -11 -18 -73 1 -81 8 -3 31 -28 51 -56 32 -45 40 -50
72 -49 36 1 36 1 9 9 -31 9 -57 28 -57 41 0 4 12 9 26 11 41 5 54 33 26 58
-24 23 -27 35 -12 45 6 3 10 13 10 20 0 11 -13 14 -56 12 -30 -1 -62 -6 -70
-10z m40 -32 c-6 -16 -24 -21 -24 -7 0 11 11 22 21 22 5 0 6 -7 3 -15z m84
-57 c-7 -20 -58 -23 -58 -4 0 11 10 16 31 16 20 0 29 -4 27 -12z"/>
<path d="M1227 1294 c-4 -4 -7 -14 -7 -23 0 -11 3 -12 11 -4 6 6 10 16 7 23
-2 6 -7 8 -11 4z"/>
<path d="M1200 1239 c0 -5 5 -7 10 -4 6 3 10 8 10 11 0 2 -4 4 -10 4 -5 0 -10
-5 -10 -11z"/>
<path d="M1106 1118 c-32 -68 -65 -136 -73 -153 -29 -62 -74 -178 -71 -187 2
-4 32 57 67 138 35 80 73 154 83 164 11 10 17 23 13 29 -3 6 1 11 10 11 12 0
15 6 10 20 -4 13 2 33 14 54 23 36 25 46 13 46 -4 0 -34 -55 -66 -122z"/>
<path d="M502 868 c-59 -134 -102 -251 -96 -257 2 -3 7 5 11 17 3 12 9 22 14
22 5 0 9 7 9 15 0 8 27 76 60 149 64 142 65 146 51 146 -5 0 -27 -42 -49 -92z"/>
<path d="M448 825 c-4 -11 -25 -72 -47 -135 -23 -63 -37 -110 -32 -105 5 6 23
48 40 95 18 47 37 95 42 106 6 12 9 30 7 40 -4 18 -4 18 -10 -1z"/>
</g>
</svg>
