<?xml version="1.0" standalone="no"?>
<!DOCTYPE svg PUBLIC "-//W3C//DTD SVG 20010904//EN"
 "http://www.w3.org/TR/2001/REC-SVG-20010904/DTD/svg10.dtd">
<svg version="1.0" xmlns="http://www.w3.org/2000/svg"
 width="302.000000pt" height="534.000000pt" viewBox="0 0 302.000000 534.000000"
 preserveAspectRatio="xMidYMid meet">
<metadata>
Created by potrace 1.16, written by Peter Selinger 2001-2019
</metadata>
<g transform="translate(0.000000,534.000000) scale(0.100000,-0.100000)"
fill="#000000" stroke="none">
<path d="M2174 5325 c-5 -12 -10 -13 -19 -5 -10 8 -36 7 -97 -5 -46 -9 -144
-18 -218 -21 -74 -3 -162 -12 -195 -21 -33 -8 -139 -19 -235 -24 -96 -5 -238
-17 -315 -26 -77 -9 -212 -18 -300 -18 -88 0 -272 -8 -410 -18 -137 -9 -279
-18 -315 -20 l-65 -2 -3 -360 c-6 -617 26 -1732 50 -1779 6 -11 11 -184 13
-435 1 -229 6 -424 10 -434 4 -10 14 -16 21 -13 12 4 14 -8 13 -64 -1 -39 -5
-73 -10 -76 -5 -3 -9 -10 -9 -15 0 -6 5 -7 10 -4 6 3 10 -1 10 -9 0 -8 -5 -18
-11 -22 -14 -8 -5 -287 22 -644 12 -159 19 -333 17 -435 -4 -281 -3 -316 9
-323 13 -8 16 -193 5 -326 -10 -117 -3 -180 21 -184 12 -3 20 4 24 18 6 21 9
22 97 14 118 -9 253 -7 341 5 88 13 199 14 340 2 181 -16 894 -23 935 -10 19
6 89 14 155 17 97 6 119 10 117 21 -6 28 8 59 25 57 15 -1 17 6 15 47 -2 28 1
54 8 62 10 12 9 15 -5 15 -15 0 -16 10 -10 103 8 130 8 188 -1 311 -6 89 -5
100 11 112 16 12 18 35 17 296 -1 156 -2 310 -2 343 -3 153 9 506 19 555 7 35
11 163 10 347 0 161 2 297 6 303 4 6 4 28 0 49 -3 20 -7 130 -8 244 -1 114 -5
199 -9 189 -5 -12 -7 -8 -7 14 -1 16 -5 34 -9 40 -5 5 -6 43 -2 84 7 82 6 278
-5 854 -5 269 -3 392 5 423 7 30 7 49 1 57 -6 7 -10 21 -11 31 0 11 -3 155 -5
320 -5 283 -14 375 -37 375 -5 0 -11 -7 -14 -15z m-80 -92 c3 -10 9 -24 12
-31 4 -8 -3 -6 -15 5 -12 10 -27 18 -33 18 -6 0 -13 6 -15 13 -3 7 5 12 20 12
14 0 27 -7 31 -17z m26 7 c0 -5 -2 -10 -4 -10 -3 0 -8 5 -11 10 -3 6 -1 10 4
10 6 0 11 -4 11 -10z m-72 -41 c15 -17 45 -49 67 -70 23 -23 33 -39 24 -39
-13 0 -95 78 -128 123 -24 31 9 19 37 -14z m-58 11 c0 -5 -2 -10 -4 -10 -3 0
-8 5 -11 10 -3 6 -1 10 4 10 6 0 11 -4 11 -10z m-35 -87 c131 -104 175 -150
175 -181 0 -21 -5 -19 -67 27 -38 28 -75 56 -83 63 -63 55 -187 162 -194 169
-6 5 4 9 25 9 28 0 54 -16 144 -87z m51 41 c76 -57 134 -108 134 -117 0 -5 -4
-7 -10 -5 -17 6 -178 143 -184 156 -7 16 3 10 60 -34z m139 36 c3 -5 1 -10 -4
-10 -6 0 -11 5 -11 10 0 6 2 10 4 10 3 0 8 -4 11 -10z m-333 -78 c43 -36 78
-70 78 -75 0 -10 -17 3 -72 52 -16 14 -28 20 -28 14 0 -6 14 -23 31 -37 19
-16 29 -33 27 -45 -3 -18 -9 -15 -53 22 -27 23 -61 53 -75 67 -28 28 -70 53
-70 41 0 -4 5 -12 10 -17 6 -6 8 -18 4 -28 -6 -15 -9 -15 -32 6 -25 22 -22 8
4 -23 14 -16 15 -79 1 -79 -4 0 -24 17 -42 38 -19 20 -35 34 -35 30 0 -3 17
-26 39 -49 l38 -43 -4 -198 c-2 -131 0 -198 7 -198 6 0 10 47 10 126 l0 126
60 -73 c65 -80 65 -80 80 -219 5 -52 14 -133 19 -180 24 -208 53 -787 40 -772
-8 8 -71 241 -89 325 -6 32 -18 61 -26 64 -9 3 -14 20 -14 49 0 48 5 52 38 28
34 -23 37 -11 6 20 -15 14 -48 32 -73 40 l-46 13 -1 69 c-1 89 -6 102 -13 39
-4 -32 -9 23 -14 152 -7 193 -38 530 -56 603 -16 62 -12 -4 8 -170 33 -265 44
-632 20 -654 -9 -8 -10 -6 -7 10 6 24 -27 45 -92 59 -19 4 -52 16 -74 27 -22
11 -41 16 -45 10 -4 -5 -41 -4 -96 5 -160 24 -421 17 -455 -13 -17 -14 -119
-22 -138 -10 -7 4 -12 20 -12 35 0 16 -3 50 -7 77 -6 45 -8 46 -13 19 -5 -23
-8 -11 -14 47 -4 43 -12 80 -17 84 -5 3 -9 19 -9 35 0 18 4 28 10 24 15 -9 12
30 -9 119 l-19 79 44 72 c72 118 58 134 -67 81 -13 -6 -18 0 -23 26 -3 18 -13
45 -20 61 l-15 27 52 0 c29 1 99 8 157 16 119 17 211 27 455 50 94 8 208 24
255 34 118 27 124 28 220 27 l84 0 78 -65z m-102 -28 c19 -49 13 -61 -16 -32
-17 16 -24 32 -21 42 9 24 26 19 37 -10z m-1507 -21 c8 -7 -23 -32 -40 -33 -7
0 -13 9 -13 20 0 14 7 20 23 20 13 0 27 -3 30 -7z m1610 -63 c27 -24 37 -41
37 -62 l0 -29 -50 43 c-28 24 -53 52 -56 63 -3 11 -8 29 -11 40 -6 22 -15 28
80 -55z m-1683 50 c0 -5 -16 -10 -35 -10 -19 0 -35 5 -35 10 0 6 16 10 35 10
19 0 35 -4 35 -10z m160 -11 c0 -11 -27 -12 -34 0 -3 4 -3 11 0 14 8 8 34 -3
34 -14z m105 11 c3 -5 1 -10 -4 -10 -6 0 -11 5 -11 10 0 6 2 10 4 10 3 0 8 -4
11 -10z m1724 -37 c2 -2 2 -5 -1 -8 -2 -3 -18 10 -34 28 l-29 32 30 -25 c17
-14 32 -26 34 -27z m-418 9 c32 -34 46 -88 55 -222 l5 -65 -21 25 c-12 14 -37
42 -56 63 -29 33 -34 46 -34 88 0 27 3 49 7 49 4 0 22 -14 40 -32 18 -18 33
-28 33 -22 0 5 -17 26 -38 47 -32 30 -38 43 -34 67 5 37 10 37 43 2z m-1252
-58 c-11 -14 -14 -13 -21 0 -6 11 -3 27 9 47 l18 31 3 -32 c2 -17 -2 -38 -9
-46z m1481 41 c14 -19 14 -19 -2 -6 -10 7 -18 18 -18 24 0 6 1 8 3 6 1 -2 9
-13 17 -24z m-39 -11 c5 -15 7 -30 3 -33 -7 -7 -34 28 -34 46 0 23 20 14 31
-13z m-1561 0 c0 -8 -5 -12 -10 -9 -6 4 -8 11 -5 16 9 14 15 11 15 -7z m1638
-29 c-3 -3 -9 2 -12 12 -6 14 -5 15 5 6 7 -7 10 -15 7 -18z m104 -38 c44 -37
64 -64 54 -74 -3 -3 -34 25 -70 62 -93 96 -89 98 16 12z m-65 -19 c128 -109
131 -111 138 -135 8 -29 -6 -29 -31 -2 -10 12 -53 47 -94 79 -42 32 -81 64
-88 73 -13 16 -25 57 -16 57 3 0 44 -33 91 -72z m-158 -32 c1 -4 -15 4 -34 18
-43 33 -44 30 -4 -15 66 -73 59 -94 -9 -28 -25 25 -42 50 -42 64 0 13 -3 32
-7 42 -4 10 15 -1 44 -27 28 -25 51 -49 52 -54z m53 49 c4 -5 8 -21 9 -35 1
-17 3 -19 6 -7 2 9 8 17 11 17 4 0 34 -26 67 -57 33 -30 78 -71 101 -89 40
-33 41 -36 48 -112 3 -42 10 -93 16 -111 5 -18 9 -88 9 -155 l0 -121 -23 40
c-13 22 -30 47 -38 55 -45 50 -56 78 -62 150 l-5 75 30 -35 c17 -19 40 -47 52
-62 23 -29 37 -35 37 -18 0 13 -87 121 -112 138 -16 11 -27 62 -13 62 3 0 26
-20 53 -45 26 -25 49 -40 50 -35 2 6 -26 46 -62 90 -36 43 -66 84 -66 90 0 5
-4 9 -9 8 -4 -2 -38 26 -74 62 -56 55 -67 70 -67 99 0 30 2 32 18 20 9 -8 20
-18 24 -24z m-1255 -2 c0 -10 -5 -25 -12 -33 -7 -8 -21 -31 -31 -50 l-17 -35
-13 50 c-13 51 -8 64 24 65 6 0 12 5 12 10 0 18 37 11 37 -7z m-113 -69 c3 -8
2 -12 -4 -9 -6 3 -10 10 -10 16 0 14 7 11 14 -7z m1391 -52 c-7 -7 -55 39 -55
52 0 5 13 -3 30 -19 16 -16 28 -31 25 -33z m-63 -99 c2 -35 1 -63 -2 -63 -3 0
-20 15 -38 33 -26 27 -32 43 -40 104 l-8 72 42 -42 c39 -39 43 -46 46 -104z
m-1515 105 c-3 -7 -5 -2 -5 12 0 14 2 19 5 13 2 -7 2 -19 0 -25z m-80 -10 c-3
-7 -5 -2 -5 12 0 14 2 19 5 13 2 -7 2 -19 0 -25z m1663 -55 c0 -13 -7 -10 -30
12 -16 16 -30 38 -30 49 1 19 4 17 30 -12 17 -18 30 -40 30 -49z m-1822 -33
c0 -64 -1 -64 -9 -20 -11 63 -10 132 1 105 5 -11 8 -49 8 -85z m-15 -360 c9
-88 12 -161 7 -185 l-8 -40 -1 45 c-1 25 -6 63 -10 85 -8 39 -9 38 -10 -21 -1
-68 14 -165 28 -173 12 -8 25 -211 14 -211 -5 0 -9 10 -9 23 0 12 -1 40 -3 62
-3 40 -3 40 -12 11 -4 -17 -5 -35 0 -40 5 -6 9 -63 10 -126 1 -63 4 -168 7
-232 3 -92 2 -118 -8 -118 -10 0 -14 33 -16 133 -2 126 -7 243 -18 462 -11
211 -12 320 -3 295 5 -15 6 10 2 65 -9 112 -10 281 -4 360 4 44 7 20 12 -95 4
-85 14 -220 22 -300z m127 412 c0 -15 -2 -15 -10 -2 -13 20 -13 33 0 25 6 -3
10 -14 10 -23z m1755 -2 c30 -31 25 -42 -7 -13 -28 25 -21 1 10 -32 24 -26 43
-83 23 -71 -19 12 -62 86 -60 103 2 10 0 24 -4 31 -15 23 9 12 38 -18z m-39
-135 l6 -70 -30 30 c-25 26 -30 40 -36 100 l-6 69 30 -29 c25 -26 30 -41 36
-100z m-1529 73 c-3 -8 -6 -5 -6 6 -1 11 2 17 5 13 3 -3 4 -12 1 -19z m61 -53
c0 -16 -2 -15 -8 5 -4 14 -8 34 -8 45 0 16 2 15 8 -5 4 -14 8 -34 8 -45z m72
33 c0 -7 3 -24 7 -38 6 -23 6 -24 -10 -8 -18 18 -23 58 -7 58 6 0 10 -6 10
-12z m1484 -140 c8 -40 12 -77 9 -81 -3 -5 -21 11 -41 34 -33 38 -36 48 -40
113 l-3 71 31 -32 c23 -25 33 -49 44 -105z m-1704 75 l0 -48 -16 32 c-13 27
-14 36 -4 48 18 22 20 20 20 -32z m84 -92 c-9 -10 -14 9 -19 70 l-4 64 13 -65
c8 -36 12 -67 10 -69z m1434 92 c26 -34 30 -49 38 -138 l9 -100 3 89 3 89 29
-33 c28 -31 30 -39 31 -119 1 -47 3 -191 5 -320 2 -128 6 -236 9 -239 9 -9 8
305 -1 503 l-7 130 22 -27 c11 -14 21 -34 21 -44 0 -9 3 -14 7 -11 11 12 33
-14 33 -39 0 -12 5 -26 11 -30 8 -5 10 3 7 25 l-5 31 21 -19 c12 -11 29 -35
39 -53 l19 -33 -32 35 c-31 34 -32 34 -15 5 10 -16 33 -49 52 -72 32 -40 34
-46 35 -130 1 -48 -3 -112 -9 -142 -7 -34 -9 -162 -6 -340 2 -157 4 -297 4
-311 1 -138 -10 -542 -15 -547 -3 -4 2 -15 11 -26 16 -17 18 -45 16 -301 -1
-154 -5 -328 -8 -386 -6 -128 -6 -269 1 -332 4 -42 1 -50 -22 -70 -23 -21 -25
-28 -20 -73 8 -62 13 -150 21 -330 6 -114 4 -145 -8 -169 -9 -16 -13 -35 -10
-43 3 -8 -4 -24 -15 -36 -28 -31 -109 -152 -134 -201 -11 -22 -29 -52 -40 -66
-13 -18 -20 -47 -22 -91 -2 -43 -11 -78 -25 -104 -12 -22 -20 -32 -17 -23 3
10 0 18 -5 18 -7 0 -9 -11 -6 -28 5 -21 -13 -66 -80 -201 l-85 -173 -47 7
c-25 4 -52 7 -58 8 -7 0 -13 2 -13 5 0 13 74 142 81 142 5 0 9 7 9 16 0 9 13
40 29 68 71 127 95 176 86 176 -4 0 -39 -61 -100 -175 -21 -38 -46 -78 -56
-88 -11 -10 -19 -26 -19 -37 0 -10 -6 -23 -14 -27 -8 -4 -14 -10 -13 -13 1 -3
-5 -20 -12 -38 -11 -27 -18 -32 -40 -29 -14 2 -26 6 -25 8 0 2 13 25 28 51 15
26 24 53 20 59 -4 7 -3 9 4 6 12 -8 33 26 142 238 46 88 105 199 131 247 50
90 56 103 40 93 -20 -12 -211 -367 -211 -391 0 -7 -5 -16 -12 -20 -7 -4 -8 -3
-4 4 4 7 2 12 -3 12 -10 0 -15 -20 -12 -47 1 -7 -4 -10 -11 -8 -8 3 -30 -29
-61 -92 -26 -54 -47 -103 -47 -109 0 -24 -39 -47 -67 -39 -15 4 -61 6 -101 5
-44 0 -80 4 -88 11 -11 9 -14 8 -14 -4 0 -12 -15 -15 -76 -16 -41 0 -79 -3
-83 -5 -4 -3 -129 -8 -277 -10 -148 -3 -260 -2 -249 2 21 7 34 72 15 72 -5 0
-11 -7 -11 -15 -1 -8 -2 -21 -3 -27 -1 -8 -16 -13 -39 -13 -39 -1 -47 8 -21
23 10 5 12 12 7 15 -7 5 -7 23 -1 54 9 43 3 338 -8 433 -2 19 -6 53 -8 75 -15
118 -26 413 -17 440 7 23 10 0 10 -95 1 -69 6 -154 11 -190 5 -36 12 -128 16
-205 3 -77 8 -142 10 -145 1 -3 6 -66 9 -140 4 -74 12 -139 17 -145 10 -11 9
22 -18 385 -15 202 -21 314 -27 478 -3 69 -1 82 12 82 35 0 44 -16 38 -66 -5
-43 0 -161 18 -449 2 -44 5 -167 5 -274 0 -107 2 -192 5 -189 14 13 16 223 5
454 -17 348 -18 504 -3 504 18 0 20 -30 39 -705 4 -115 10 -219 15 -230 6 -12
7 29 4 110 -11 289 -14 640 -5 595 14 -69 30 -259 35 -430 3 -85 5 -162 6
-170 0 -8 4 -5 9 8 11 27 5 291 -10 424 -11 105 -37 306 -45 355 -5 31 -4 32
17 24 24 -9 35 -36 37 -90 1 -19 4 -31 8 -27 4 3 6 29 4 58 l-3 51 34 -7 c138
-30 192 -38 252 -36 48 1 71 -2 77 -12 7 -10 9 -10 9 0 0 7 14 12 36 12 28 0
35 3 30 15 -4 11 2 15 20 15 14 0 24 -5 23 -13 -4 -36 2 -97 11 -97 6 0 10 22
10 49 l0 48 93 6 c65 4 113 13 162 32 39 15 93 33 120 42 51 16 85 45 189 164
33 38 55 55 66 52 19 -5 29 37 35 152 5 107 14 169 34 240 35 130 40 195 6 94
-14 -42 -14 -38 -9 83 2 70 4 219 3 330 -2 443 -9 855 -13 896 -2 23 0 42 5
42 5 0 9 -6 9 -12 0 -7 5 -20 10 -28 16 -25 29 6 19 49 -4 20 -7 131 -5 246 4
197 3 200 -4 60 -11 -213 -10 -208 -24 -155 -7 25 -14 101 -15 170 -2 156 -19
481 -31 620 -17 186 -41 393 -46 402 -3 4 -1 8 5 8 5 0 23 -17 39 -37z m-1739
-82 c1 -74 -5 -61 -12 24 -3 42 -2 62 3 50 5 -11 9 -44 9 -74z m79 -26 l-1
-60 -8 45 c-4 25 -7 63 -7 85 0 34 1 36 8 15 4 -14 8 -52 8 -85z m312 74 c0
-17 -4 -28 -10 -24 -5 3 -10 17 -10 31 0 13 5 24 10 24 6 0 10 -14 10 -31z
m70 17 c0 -3 -4 -8 -10 -11 -5 -3 -10 -1 -10 4 0 6 5 11 10 11 6 0 10 -2 10
-4z m-341 -76 c-1 -32 -2 -33 -9 -10 -4 14 -8 36 -9 50 -1 20 1 22 9 10 5 -8
9 -31 9 -50z m351 5 c0 -17 -2 -17 -10 -5 -5 8 -10 24 -10 35 0 17 2 17 10 5
5 -8 10 -24 10 -35z m-433 -32 c-2 -16 -4 -5 -4 22 0 28 2 40 4 28 2 -13 2
-35 0 -50z m162 -23 c0 -9 -4 -8 -9 5 -5 11 -9 27 -9 35 0 9 4 8 9 -5 5 -11 9
-27 9 -35z m281 15 c0 -8 -2 -15 -4 -15 -2 0 -6 7 -10 15 -3 8 -1 15 4 15 6 0
10 -7 10 -15z m-73 -27 c-3 -8 -6 -5 -6 6 -1 11 2 17 5 13 3 -3 4 -12 1 -19z
m-400 -10 c-3 -8 -6 -5 -6 6 -1 11 2 17 5 13 3 -3 4 -12 1 -19z m52 -334 c1
-123 -1 -143 -15 -148 -14 -6 -15 -4 -4 9 11 13 11 29 2 78 -10 56 -11 240 -2
357 5 67 17 -128 19 -296z m31 299 c0 -16 5 -91 11 -168 16 -205 16 -211 24
-440 4 -115 5 -208 2 -205 -7 7 -16 112 -22 265 -8 197 -25 495 -31 538 -4 23
-2 37 5 37 6 0 11 -12 11 -27z m79 -23 c0 -9 -4 -8 -9 5 -5 11 -9 27 -9 35 0
9 4 8 9 -5 5 -11 9 -27 9 -35z m251 29 c0 -5 -4 -9 -10 -9 -5 0 -10 7 -10 16
0 8 5 12 10 9 6 -3 10 -10 10 -16z m79 -39 c0 -9 -4 -8 -9 5 -5 11 -9 27 -9
35 0 9 4 8 9 -5 5 -11 9 -27 9 -35z m-335 -21 c26 -56 56 -150 55 -174 0 -5
-6 4 -14 20 -7 17 -14 23 -14 15 -1 -21 34 -122 40 -116 2 3 5 -14 5 -37 0
-23 8 -80 17 -127 10 -47 13 -88 8 -93 -5 -5 -12 8 -16 30 -4 21 -26 99 -50
173 -39 123 -52 184 -70 323 -3 26 -3 47 2 46 4 0 21 -27 37 -60z m285 -124
c-1 -40 -26 39 -32 100 l-6 60 19 -70 c10 -38 19 -79 19 -90z m18 73 c-3 -7
-5 -2 -5 12 0 14 2 19 5 13 2 -7 2 -19 0 -25z m-90 -60 c-3 -7 -5 -2 -5 12 0
14 2 19 5 13 2 -7 2 -19 0 -25z m476 15 c-13 -2 -33 -2 -45 0 -13 2 -3 4 22 4
25 0 35 -2 23 -4z m175 0 c-10 -2 -28 -2 -40 0 -13 2 -5 4 17 4 22 1 32 -1 23
-4z m-901 -115 c-2 -18 -4 -6 -4 27 0 33 2 48 4 33 2 -15 2 -42 0 -60z m-50 0
c-2 -13 -4 -3 -4 22 0 25 2 35 4 23 2 -13 2 -33 0 -45z m1163 46 c0 -2 -9 -4
-20 -4 -11 0 -20 4 -20 9 0 5 9 7 20 4 11 -3 20 -7 20 -9z m200 6 c24 -15 7
-18 -30 -4 -31 11 -32 13 -10 13 14 0 32 -3 40 -9z m-730 -21 c0 -5 -4 -9 -9
-9 -5 0 -22 -14 -38 -31 -15 -16 -36 -35 -46 -40 -16 -9 -17 -5 -15 43 l2 53
53 -3 c29 -2 53 -8 53 -13z m108 15 c12 -4 22 -9 22 -13 0 -3 -17 -24 -38 -46
-20 -23 -57 -65 -82 -94 -49 -60 -65 -54 -28 12 14 23 35 60 47 81 22 38 22
41 5 53 -16 12 -14 13 17 13 19 0 44 -3 57 -6z m709 -26 c-3 -8 -6 -5 -6 6 -1
11 2 17 5 13 3 -3 4 -12 1 -19z m-180 -13 c2 -11 0 -14 -3 -7 -3 6 -12 12 -19
12 -8 0 -17 5 -21 11 -4 7 2 9 17 7 15 -2 25 -11 26 -23z m-507 -45 c-37 -74
-62 -100 -95 -100 l-26 0 23 24 c13 13 45 49 71 80 27 31 50 56 53 56 2 0 -9
-27 -26 -60z m49 8 c-63 -78 -65 -79 -28 -10 23 42 40 62 52 62 15 0 11 -10
-24 -52z m154 40 c-94 -127 -118 -157 -121 -148 -2 6 10 37 27 70 17 32 31 66
31 75 0 11 10 15 36 15 28 0 34 -3 27 -12z m-533 -33 c0 -5 -5 -3 -10 5 -5 8
-10 20 -10 25 0 6 5 3 10 -5 5 -8 10 -19 10 -25z m201 3 c-12 -18 -34 -59 -49
-91 -29 -63 -45 -68 -50 -17 -3 28 4 40 49 86 60 61 82 70 50 22z m249 22 c0
-6 -11 -28 -25 -50 -14 -22 -25 -46 -25 -54 0 -8 -4 -18 -10 -21 -5 -3 -10
-15 -10 -26 0 -23 -32 -26 -50 -4 -10 12 -3 25 37 76 26 33 52 67 58 75 12 16
25 18 25 4z m95 -47 c-19 -32 -35 -68 -35 -80 0 -20 -5 -23 -35 -23 l-34 0 61
80 c34 44 65 80 69 80 5 0 -7 -26 -26 -57z m-719 -49 c28 -96 45 -204 32 -204
-4 0 -9 11 -9 25 -2 30 -3 34 -17 65 -6 14 -16 54 -22 90 -6 36 -13 79 -17 95
-11 57 7 18 33 -71z m124 14 c0 -15 8 -32 18 -38 16 -10 15 -10 -3 -8 -13 2
-25 19 -38 52 -21 57 -13 101 9 51 7 -16 13 -42 14 -57z m631 40 c-24 -39 -28
-30 -5 13 8 17 18 28 21 25 3 -3 -4 -20 -16 -38z m392 25 c11 -4 17 -15 17
-36 l0 -31 -35 34 c-38 37 -46 56 -17 45 9 -4 25 -10 35 -12z m-333 -3 c0 -19
-42 -90 -54 -90 -26 0 -24 14 5 56 28 42 49 56 49 34z m159 -9 c12 -8 6 -22
-28 -80 -23 -39 -47 -71 -52 -71 -10 0 21 59 48 92 29 33 -8 30 -62 -6 -58
-38 -70 -42 -80 -26 -6 9 17 61 37 88 12 14 116 16 137 3z m131 -42 c47 -42
41 -42 -23 1 -34 23 -47 40 -29 40 4 0 27 -18 52 -41z m-1351 -74 c-1 -89 -6
-74 -12 30 -2 44 -1 71 4 60 4 -11 8 -51 8 -90z m198 73 c-3 -8 -6 -5 -6 6 -1
11 2 17 5 13 3 -3 4 -12 1 -19z m1035 -53 c-23 -64 -30 -75 -50 -75 l-24 0 22
33 c11 17 31 51 43 75 33 66 38 49 9 -33z m231 55 c3 -12 0 -20 -8 -20 -8 0
-11 8 -8 20 3 11 7 20 8 20 1 0 5 -9 8 -20z m-1399 -186 c4 -86 3 -134 -2
-126 -5 8 -10 39 -10 70 -1 32 -4 100 -6 152 -4 60 -3 85 3 69 5 -15 12 -89
15 -165z m1240 177 c3 -5 -1 -14 -9 -21 -7 -6 -22 -31 -31 -56 -17 -45 -41
-62 -29 -21 27 92 51 127 69 98z m-153 -28 c-22 -41 -38 -56 -51 -48 -10 6 -4
15 21 36 40 34 43 35 30 12z m330 -11 c-7 -2 -18 1 -23 6 -8 8 -4 9 13 5 13
-4 18 -8 10 -11z m-143 -17 c6 -14 10 -30 8 -37 -3 -7 -7 -29 -10 -48 -5 -26
-4 -32 5 -23 7 7 13 37 13 68 1 56 6 65 24 42 13 -15 -28 -192 -44 -192 -5 0
-10 20 -12 45 -2 34 -9 50 -29 67 l-27 22 19 40 c21 47 37 52 53 16z m-328 0
c0 -9 -7 -18 -16 -22 -18 -7 -39 11 -30 26 11 17 46 13 46 -4z m33 -20 c-3 -8
-9 -15 -14 -15 -10 0 -12 24 -3 33 11 11 24 -3 17 -18z m-643 -5 c0 -5 -4 -10
-10 -10 -5 0 -10 5 -10 10 0 6 5 10 10 10 6 0 10 -4 10 -10z m1110 -12 c0 -24
-23 -23 -45 2 -17 19 -17 19 14 17 22 -1 31 -7 31 -19z m-840 2 c0 -12 -42
-23 -67 -17 -15 3 -14 5 7 15 32 14 60 15 60 2z m420 0 c0 -5 -7 -10 -15 -10
-8 0 -15 5 -15 10 0 6 7 10 15 10 8 0 15 -4 15 -10z m331 -40 c5 0 9 5 9 11 0
7 10 5 26 -6 14 -9 31 -14 38 -12 10 4 16 -30 25 -141 l12 -147 -30 -115 c-45
-178 -47 -180 -55 -54 -5 81 -2 127 9 181 16 78 23 231 11 251 -13 22 -27 13
-15 -9 8 -17 8 -49 -1 -133 -16 -143 -28 -175 -30 -76 0 42 -7 88 -15 105 -14
30 -14 29 -9 -17 4 -33 3 -48 -5 -48 -7 0 -10 4 -7 9 3 5 -1 23 -10 40 -10 20
-14 43 -10 59 4 15 11 47 17 72 5 25 12 54 16 65 7 18 8 17 11 -7 2 -16 8 -28
13 -28z m-1296 -30 c9 -36 17 -74 19 -85 2 -11 9 -50 16 -87 6 -37 10 -73 8
-80 -3 -7 -8 10 -12 37 -4 28 -16 82 -26 120 -20 77 -35 173 -26 165 3 -3 12
-35 21 -70z m760 60 c-3 -5 -21 -10 -38 -9 -27 0 -29 2 -12 9 28 12 57 12 50
0z m85 0 c8 -5 11 -10 5 -10 -5 0 -17 5 -25 10 -8 5 -10 10 -5 10 6 0 17 -5
25 -10z m-653 -22 c-3 -8 -6 -5 -6 6 -1 11 2 17 5 13 3 -3 4 -12 1 -19z m-353
-33 c3 -13 6 -89 7 -167 0 -159 7 -240 20 -232 5 3 9 -91 9 -212 0 -120 -2
-215 -4 -213 -5 5 -24 309 -44 717 -7 124 -2 164 12 107z m369 -5 c3 -11 3
-20 1 -20 -2 0 -8 9 -14 20 -6 11 -7 20 -2 20 6 0 12 -9 15 -20z m44 -2 c-3
-8 -6 -5 -6 6 -1 11 2 17 5 13 3 -3 4 -12 1 -19z m203 2 c0 -5 -12 -10 -27 -9
-25 0 -26 1 -8 9 27 12 35 12 35 0z m-583 -47 c-3 -10 -5 -2 -5 17 0 19 2 27
5 18 2 -10 2 -26 0 -35z m598 17 c7 -12 -20 -60 -34 -60 -4 0 -3 16 3 35 11
36 20 43 31 25z m-208 -47 c-3 -10 -5 -2 -5 17 0 19 2 27 5 18 2 -10 2 -26 0
-35z m154 16 c-8 -22 -10 -22 -16 -5 -5 11 -3 21 6 26 19 12 21 7 10 -21z
m-203 -4 c-3 -3 -9 2 -12 12 -6 14 -5 15 5 6 7 -7 10 -15 7 -18z m657 4 c-8
-12 -62 -12 -70 0 -3 5 9 11 27 13 38 4 51 0 43 -13z m123 9 c-5 -13 -49 -18
-80 -10 -32 8 -8 22 38 22 31 0 44 -4 42 -12z m42 -9 c0 -5 -7 -9 -15 -9 -15
0 -20 12 -9 23 8 8 24 -1 24 -14z m39 -8 c-15 -5 -22 6 -14 19 6 9 10 9 16 -1
5 -8 4 -15 -2 -18z m-290 15 c-12 -10 -59 -15 -59 -6 0 5 14 10 32 10 17 0 29
-2 27 -4z m-279 -26 c-8 -5 -18 -6 -24 -3 -5 4 -1 10 10 13 24 9 34 2 14 -10z
m-513 -42 c-3 -7 -5 -2 -5 12 0 14 2 19 5 13 2 -7 2 -19 0 -25z m933 22 c0
-13 -11 -13 -30 0 -12 8 -11 10 8 10 12 0 22 -4 22 -10z m42 -2 c-9 -9 -15 -9
-24 0 -9 9 -7 12 12 12 19 0 21 -3 12 -12z m58 2 c0 -5 -7 -10 -15 -10 -8 0
-15 5 -15 10 0 6 7 10 15 10 8 0 15 -4 15 -10z m70 -3 c0 -21 -11 -27 -31 -16
-27 14 -23 29 6 29 14 0 25 -6 25 -13z m-615 -18 c3 -4 -6 -16 -20 -25 -14 -9
-25 -24 -26 -33 -1 -9 -5 0 -10 19 -4 19 -7 40 -4 46 4 13 52 7 60 -7z m645
-21 c0 -21 16 -24 23 -5 3 6 6 2 6 -10 1 -20 -4 -23 -33 -23 l-33 0 10 40 c11
39 26 37 27 -2z m-1063 10 c-3 -8 -6 -5 -6 6 -1 11 2 17 5 13 3 -3 4 -12 1
-19z m574 5 c4 -9 -59 -22 -108 -22 -24 -1 -31 3 -27 14 4 9 25 15 62 18 59 3
67 2 73 -10z m104 5 c-32 -19 -75 -20 -75 -3 0 11 12 15 48 15 40 -1 44 -2 27
-12z m60 2 c3 -5 -1 -10 -10 -10 -9 0 -13 5 -10 10 3 6 8 10 10 10 2 0 7 -4
10 -10z m35 0 c0 -5 -4 -10 -10 -10 -5 0 -10 5 -10 10 0 6 5 10 10 10 6 0 10
-4 10 -10z m587 -22 c-3 -8 -6 -5 -6 6 -1 11 2 17 5 13 3 -3 4 -12 1 -19z m20
-15 c-3 -10 -5 -4 -5 12 0 17 2 24 5 18 2 -7 2 -21 0 -30z m-367 8 c-1 -26
-49 -46 -57 -23 -3 7 5 12 19 13 17 1 18 3 5 6 -9 2 -15 8 -12 13 6 9 45 1 45
-9z m-125 0 c-14 -12 -115 -22 -115 -11 0 5 24 11 53 13 28 2 56 4 62 5 6 1 6
-1 0 -7z m-1135 -12 c0 -6 7 -143 15 -305 14 -257 14 -297 2 -315 -11 -15 -14
-44 -12 -112 3 -80 3 -85 -5 -37 -11 69 -18 780 -7 780 4 0 7 -5 7 -11z m394
-53 c3 -30 9 -63 13 -73 3 -10 3 -15 -1 -11 -7 6 -35 112 -36 136 0 7 4 11 9
8 4 -3 11 -30 15 -60z m73 42 c-3 -8 -6 -5 -6 6 -1 11 2 17 5 13 3 -3 4 -12 1
-19z m503 2 c-36 -11 -52 -11 -45 0 3 6 21 10 38 9 31 -1 31 -1 7 -9z m-180
-16 c0 -14 -23 -24 -55 -24 -13 0 -27 -4 -30 -10 -18 -29 -65 1 -52 33 6 16
137 17 137 1z m106 7 c-3 -5 -24 -9 -46 -9 -23 -1 -38 3 -35 9 4 5 24 9 46 9
22 0 38 -4 35 -9z m224 -1 c0 -5 -12 -10 -27 -10 -22 0 -25 2 -13 10 20 13 40
13 40 0z m60 0 c-19 -13 -30 -13 -30 0 0 6 10 10 23 10 18 0 19 -2 7 -10z
m-983 -47 c-3 -10 -5 -4 -5 12 0 17 2 24 5 18 2 -7 2 -21 0 -30z m1038 4 c-7
-17 -32 -30 -45 -22 -13 8 1 44 19 48 22 5 33 -6 26 -26z m98 9 c-4 -20 -12
-25 -44 -28 -30 -3 -38 0 -36 12 5 28 15 36 50 38 31 2 34 0 30 -22z m126 -2
c3 -16 1 -17 -13 -5 -19 16 -21 34 -3 29 6 -3 14 -13 16 -24z m-994 -84 c3
-25 10 -61 15 -80 6 -19 10 -42 10 -50 0 -13 -1 -13 -10 0 -7 12 -10 8 -10
-15 0 -16 5 -37 10 -45 8 -11 9 -8 4 13 -4 17 -2 27 5 27 11 0 15 -31 11 -77
-1 -13 4 -23 12 -23 10 0 9 -3 -2 -10 -8 -5 -10 -10 -4 -10 7 0 14 -11 16 -24
4 -19 1 -24 -14 -23 -10 1 -18 7 -18 13 0 7 -5 14 -11 16 -7 2 -12 50 -14 128
-2 69 -8 138 -14 153 -6 16 -11 47 -10 70 1 41 1 41 10 12 5 -16 12 -50 14
-75z m645 93 c-1 -22 -22 -35 -61 -37 -24 -1 -52 -6 -61 -10 -10 -5 -18 -4
-18 0 1 23 21 34 71 40 29 3 56 8 58 10 7 6 11 5 11 -3z m58 -10 c-2 -10 -14
-19 -26 -21 -21 -3 -22 -1 -12 17 13 26 43 28 38 4z m-1038 -83 l-7 -65 -1 80
c-1 45 2 73 7 65 4 -8 5 -44 1 -80z m1241 -7 c-25 -81 -46 -112 -63 -95 -8 8
-7 17 6 36 9 15 20 26 25 26 5 0 9 10 9 23 0 35 26 97 36 87 5 -5 0 -37 -13
-77z m-436 61 c-11 -8 -25 -12 -32 -10 -6 3 -14 0 -16 -7 -2 -7 -7 -9 -11 -6
-12 12 25 39 52 39 26 -1 26 -1 7 -16z m-89 -9 c-11 -8 -30 -15 -42 -15 -13 0
-25 -4 -28 -8 -3 -5 9 -6 27 -4 18 3 29 1 25 -3 -4 -4 -24 -10 -45 -12 l-38
-4 21 22 c17 17 55 32 94 38 3 0 -4 -6 -14 -14z m614 -29 c0 -6 -7 -1 -15 10
-8 10 -15 23 -15 28 0 6 7 1 15 -10 8 -10 15 -23 15 -28z m-1249 -35 c-8 -22
-9 -19 -10 24 0 42 2 46 10 26 6 -15 6 -34 0 -50z m492 49 c-4 -14 0 -20 11
-20 9 0 16 -4 16 -8 0 -12 -64 -1 -72 12 -13 19 -9 25 20 29 15 2 28 5 29 6 0
0 -1 -8 -4 -19z m47 16 c0 -11 -19 -15 -25 -6 -3 5 1 10 9 10 9 0 16 -2 16 -4z
m879 -43 c-1 -53 -6 -49 -11 10 -2 20 0 37 4 37 4 0 8 -21 7 -47z m49 -78 l0
-50 -13 65 c-18 87 -18 130 0 75 8 -22 13 -62 13 -90z m-663 106 c-14 -12 -73
-25 -60 -13 6 6 19 12 30 15 34 8 40 8 30 -2z m305 -1 c0 -6 -7 -25 -16 -41
-12 -24 -20 -30 -37 -25 -12 3 -25 6 -29 6 -4 0 -4 7 -1 17 5 12 3 14 -7 8 -7
-5 -11 -4 -8 1 3 5 8 17 11 27 5 12 17 17 47 17 22 0 40 -5 40 -10z m-110 -7
c0 -16 -16 -30 -32 -30 -18 0 -24 18 -11 30 9 9 43 9 43 0z m-72 -13 c-1 -5
-6 -10 -10 -10 -5 0 -15 0 -23 0 -8 0 -15 5 -15 10 0 6 12 10 26 10 14 0 24
-4 22 -10z m-566 -25 c3 -14 1 -25 -3 -25 -5 0 -9 11 -9 25 0 14 2 25 4 25 2
0 6 -11 8 -25z m-322 -15 c-13 -8 -5 -86 10 -95 4 -2 4 -24 -1 -47 -4 -24 -11
-100 -15 -171 -4 -70 -9 -125 -11 -123 -6 6 -10 326 -4 332 6 6 2 81 -5 106
-3 10 2 18 13 20 21 4 31 -11 13 -22z m1172 -75 c-3 -61 -5 -65 -24 -59 -11 3
-28 13 -38 21 -16 14 -16 17 2 54 10 22 23 52 29 67 10 27 11 27 22 5 7 -12
11 -49 9 -88z m-628 74 c-7 -12 -41 -12 -48 0 -4 5 0 11 6 14 19 6 49 -4 42
-14z m86 14 c-14 -3 -31 -10 -38 -15 -15 -13 -27 -4 -17 11 3 6 23 10 43 10
28 -1 31 -3 12 -6z m160 -2 c0 -19 -28 -33 -47 -22 -10 5 -27 9 -37 8 -11 -1
-21 4 -23 11 -3 9 11 12 51 12 31 0 56 -4 56 -9z m569 -47 c1 -11 -9 -29 -21
-40 -20 -18 -21 -18 -15 -1 4 10 10 37 14 60 5 33 8 37 14 22 4 -11 8 -29 8
-41z m-1172 9 c-3 -10 -5 -4 -5 12 0 17 2 24 5 18 2 -7 2 -21 0 -30z m681 21
c-2 -10 -15 -18 -30 -20 -31 -3 -31 -3 -22 20 8 22 57 22 52 0z m-711 -81 c-2
-16 -4 -5 -4 22 0 28 2 40 4 28 2 -13 2 -35 0 -50z m748 47 c3 -5 2 -10 -4
-10 -5 0 -13 5 -16 10 -3 6 -2 10 4 10 5 0 13 -4 16 -10z m115 -11 c0 -14 -26
-11 -39 5 -9 11 -6 12 14 8 14 -2 25 -8 25 -13z m-1083 -356 c2 -183 0 -333
-4 -333 -5 0 -9 -19 -9 -42 -1 -112 -26 -364 -45 -458 -33 -169 -35 -174 -52
-205 l-17 -30 6 45 c3 25 8 56 10 70 3 14 8 43 10 65 3 22 16 105 29 185 13
80 27 181 30 225 4 44 9 94 11 110 4 32 19 353 18 395 -1 14 -4 97 -8 185 -5
126 -4 156 5 141 8 -14 13 -119 16 -353z m513 363 c0 -3 -4 -8 -10 -11 -5 -3
-10 -1 -10 4 0 6 5 11 10 11 6 0 10 -2 10 -4z m189 -37 c36 -12 102 -34 146
-49 113 -38 269 -74 289 -67 12 5 15 14 11 34 l-6 28 20 -24 c12 -13 21 -36
21 -51 0 -15 7 -33 16 -40 8 -8 14 -25 12 -39 -3 -34 14 -43 23 -11 5 19 7 14
8 -22 l1 -48 -44 0 c-40 0 -45 3 -55 30 -8 25 -7 32 4 37 8 3 15 10 15 15 0
11 -31 7 -118 -14 -42 -9 -55 -10 -61 0 -4 7 -25 13 -47 15 -33 2 -39 -1 -42
-20 -2 -12 -10 -22 -20 -22 -9 0 -36 -3 -58 -6 -40 -7 -43 -5 -83 38 -23 25
-55 64 -71 86 -32 44 -50 52 -50 22 0 -10 18 -35 41 -56 48 -43 45 -60 -3 -20
-125 104 -158 138 -158 166 0 30 -7 28 119 37 14 1 54 -8 90 -19z m-232 -11
c-3 -8 -6 -5 -6 6 -1 11 2 17 5 13 3 -3 4 -12 1 -19z m403 12 c12 -8 11 -10
-7 -10 -13 0 -23 5 -23 10 0 13 11 13 30 0z m391 -42 c-9 -20 -10 -18 -10 17
0 31 2 36 9 23 6 -10 7 -25 1 -40z m175 -21 c5 -49 -1 -76 -42 -207 -26 -82
-49 -148 -51 -146 -2 2 -7 55 -10 118 -4 91 -2 123 12 163 23 70 67 147 77
137 4 -4 11 -34 14 -65z m-1266 43 c0 -11 -4 -20 -10 -20 -5 0 -10 9 -10 20 0
11 5 20 10 20 6 0 10 -9 10 -20z m1367 -12 c-3 -8 -6 -5 -6 6 -1 11 2 17 5 13
3 -3 4 -12 1 -19z m-462 -33 c50 -15 56 -19 38 -26 -12 -4 -34 -4 -50 1 -15 5
-57 17 -93 26 -77 19 -112 36 -59 27 22 -3 39 -1 43 6 5 8 15 7 34 -3 15 -8
54 -22 87 -31z m212 3 c-3 -7 -5 -2 -5 12 0 14 2 19 5 13 2 -7 2 -19 0 -25z
m-1400 0 c-3 -8 -6 -5 -6 6 -1 11 2 17 5 13 3 -3 4 -12 1 -19z m35 -185 c2
-46 0 -83 -4 -83 -5 0 -8 39 -8 86 0 62 -3 83 -12 78 -8 -5 -9 2 -5 26 4 18 8
49 8 69 2 51 17 -74 21 -176z m25 12 c0 -106 -1 -112 -7 -55 -8 66 -14 206
-10 225 7 33 18 -68 17 -170z m312 68 c0 -29 -3 -53 -7 -53 -5 0 -9 37 -9 83
-1 56 1 73 7 52 4 -16 8 -54 9 -82z m1239 -53 l0 -65 -9 50 c-5 28 -14 71 -19
97 -5 26 -6 56 -3 65 11 27 31 -69 31 -147z m-293 140 c3 -5 1 -10 -4 -10 -6
0 -11 5 -11 10 0 6 2 10 4 10 3 0 8 -4 11 -10z m-1421 -110 l-8 -45 -6 35 c-3
19 -3 39 2 45 4 5 9 25 10 45 l1 35 4 -35 c3 -19 1 -55 -3 -80z m-17 78 c-3
-8 -6 -5 -6 6 -1 11 2 17 5 13 3 -3 4 -12 1 -19z m1795 -13 c3 -13 1 -22 -3
-19 -9 5 -13 44 -5 44 2 0 6 -11 8 -25z m-959 -116 c15 -12 27 -29 27 -36 0
-7 9 -13 19 -13 11 0 23 -9 27 -22 7 -25 132 -178 144 -178 4 0 13 -12 19 -27
6 -16 25 -43 41 -62 27 -30 33 -60 9 -46 -5 4 -9 -2 -9 -12 -1 -17 -1 -17 -14
0 -9 11 -15 14 -18 7 -2 -6 -25 21 -52 60 -27 39 -51 69 -53 66 -3 -2 16 -37
42 -76 25 -40 44 -74 41 -77 -2 -3 -12 7 -22 21 -9 15 -19 24 -22 22 -6 -7 40
-76 51 -76 5 0 5 5 2 10 -3 6 -1 10 5 10 6 0 9 -8 6 -17 -3 -10 -1 -25 4 -33
8 -13 10 -13 10 0 0 26 68 -88 84 -143 3 -10 10 -16 16 -12 12 7 -3 42 -47
112 -48 78 -50 95 -12 112 28 12 33 12 41 -4 6 -9 19 -24 30 -34 10 -9 26 -30
35 -48 8 -18 34 -49 56 -71 23 -21 48 -50 54 -65 7 -15 20 -30 28 -33 8 -4 15
-12 15 -19 0 -7 6 -18 14 -24 7 -6 16 -28 18 -49 3 -20 20 -59 37 -87 24 -37
31 -60 31 -97 0 -26 -4 -48 -9 -48 -6 0 -22 16 -37 35 -14 19 -31 35 -37 35
-5 0 -2 -10 9 -22 18 -23 18 -23 -1 -5 -11 10 -20 23 -20 31 0 19 -61 83 -151
160 -44 37 -87 81 -97 97 -11 16 -23 27 -28 24 -9 -6 -106 85 -131 123 -9 13
-19 19 -22 14 -6 -10 40 -66 139 -172 29 -30 58 -70 65 -87 8 -23 19 -33 34
-33 13 0 62 -41 138 -117 l117 -117 -57 -24 c-31 -13 -71 -23 -89 -23 -18 0
-35 -4 -38 -9 -3 -6 2 -10 12 -10 15 -1 13 -3 -6 -14 -13 -7 -33 -11 -43 -8
-14 3 -19 0 -16 -10 2 -9 -15 -32 -36 -53 -44 -41 -37 -60 18 -44 17 5 34 9
38 9 12 0 37 -61 31 -76 -3 -8 1 -14 10 -14 11 0 19 -13 23 -37 4 -21 14 -54
22 -73 8 -19 18 -60 21 -90 5 -44 10 -55 24 -55 40 0 39 -31 -2 -96 -31 -49
-42 -59 -47 -46 -3 9 -12 17 -20 17 -8 0 -14 7 -14 15 0 9 -7 30 -16 46 -8 17
-13 34 -9 37 3 3 8 -3 11 -15 8 -30 44 -38 44 -9 0 42 -19 85 -53 123 -73 79
-87 96 -87 105 0 5 -7 20 -16 33 -9 14 -18 42 -19 63 -2 20 -15 63 -29 96 -14
32 -26 71 -26 87 0 18 -7 32 -20 39 -11 6 -45 60 -75 120 -30 60 -73 140 -96
176 -73 120 -199 363 -199 384 0 22 26 -7 102 -114 40 -55 75 -103 78 -106 13
-12 58 -87 64 -108 4 -12 11 -22 14 -22 4 0 19 -21 32 -47 14 -26 30 -53 35
-60 6 -6 37 -59 70 -117 33 -58 66 -105 72 -106 16 0 -74 166 -117 217 -5 7
-10 16 -10 21 0 5 -8 20 -19 33 -10 13 -27 40 -38 59 -10 19 -45 76 -77 125
-87 132 -138 222 -169 293 -32 76 -32 76 -6 62 34 -19 34 -2 0 17 -32 18 -32
18 -30 93 1 41 4 81 7 88 6 18 20 15 27 -8 3 -11 11 -20 16 -20 5 0 -2 20 -17
45 -14 25 -23 45 -20 45 2 0 35 -38 71 -85 37 -47 72 -85 78 -85 6 0 0 11 -13
25 -12 13 -23 32 -24 42 -1 10 -10 37 -21 61 -15 31 -27 44 -48 49 -15 3 -30
9 -33 14 -3 5 3 6 13 2 17 -7 17 -6 0 20 -31 47 -18 52 26 10 23 -22 54 -51
70 -64z m-496 29 c-2 -13 -4 -3 -4 22 0 25 2 35 4 23 2 -13 2 -33 0 -45z m90
-5 c-2 -16 -4 -5 -4 22 0 28 2 40 4 28 2 -13 2 -35 0 -50z m-301 -13 c-1 -27
-4 -50 -8 -50 -9 0 -10 46 -2 78 9 33 11 27 10 -28z m1371 -32 c-2 -13 -4 -3
-4 22 0 25 2 35 4 23 2 -13 2 -33 0 -45z m-152 42 c-3 -5 -12 -10 -18 -10 -7
0 -6 4 3 10 19 12 23 12 15 0z m301 -132 c-14 -73 -33 -173 -43 -223 l-18 -90
-5 85 c-5 78 -3 94 31 195 20 61 40 125 44 143 4 18 9 31 12 29 2 -3 -7 -65
-21 -139z m-1101 122 c-3 -5 1 -10 10 -10 15 0 16 -13 11 -132 -12 -235 -34
-433 -57 -505 -6 -18 -9 -42 -7 -54 2 -12 -3 -24 -10 -27 -10 -3 -12 4 -8 29
3 19 8 66 11 104 3 39 15 135 25 215 24 184 33 340 20 340 -6 0 -10 11 -10 25
0 14 5 25 11 25 5 0 7 -4 4 -10z m645 0 c0 -13 -20 -13 -40 0 -12 8 -9 10 13
10 15 0 27 -4 27 -10z m-553 -22 c-3 -8 -6 -5 -6 6 -1 11 2 17 5 13 3 -3 4
-12 1 -19z m668 -5 c0 -6 3 -15 8 -19 10 -11 9 -36 -2 -30 -5 4 -21 2 -35 -4
-14 -5 -26 -6 -26 -2 0 5 -9 18 -20 30 -19 20 -19 22 -3 23 10 1 21 1 26 0 4
0 7 4 7 10 0 6 10 9 23 7 12 -2 22 -8 22 -15z m55 -13 c0 -34 -14 -39 -30 -11
-15 29 -12 41 10 41 16 0 20 -7 20 -30z m359 -86 c17 -79 20 -124 17 -215 -6
-170 -22 -194 -30 -44 -16 323 -18 370 -13 365 2 -3 14 -50 26 -106z m-579 87
c-26 -15 -90 -24 -90 -13 0 9 19 13 90 20 13 1 13 0 0 -7z m-533 -33 c-3 -7
-5 -2 -5 12 0 14 2 19 5 13 2 -7 2 -19 0 -25z m36 -40 l-8 -43 -5 40 c-3 22
-4 48 -1 59 9 39 22 -12 14 -56z m894 50 c-3 -8 -6 -5 -6 6 -1 11 2 17 5 13 3
-3 4 -12 1 -19z m-999 -11 c2 -12 -1 -15 -12 -11 -19 7 -22 38 -3 32 6 -3 13
-12 15 -21z m-409 -129 c-1 -88 -4 -131 -9 -113 -14 54 -9 255 6 255 2 0 3
-64 3 -142z m208 110 c-3 -8 -6 -5 -6 6 -1 11 2 17 5 13 3 -3 4 -12 1 -19z
m673 2 c24 -24 40 -26 40 -5 0 8 4 15 9 15 5 0 16 3 25 6 23 9 21 -42 -1 -55
-16 -9 -15 -13 13 -40 21 -21 38 -29 48 -25 15 6 14 8 -6 18 -33 17 -36 46 -5
46 19 0 26 -6 31 -31 4 -19 0 -38 -9 -53 -8 -12 -14 -24 -12 -27 1 -2 -17 16
-40 40 -24 24 -43 48 -43 53 0 4 -8 8 -17 8 -10 0 -28 16 -41 35 -25 39 -22
45 8 15z m310 -19 c0 -5 -9 -11 -20 -14 -22 -6 -28 8 -7 16 19 8 27 8 27 -2z
m154 -42 c-3 -5 -23 -9 -45 -9 -32 0 -39 3 -39 20 0 13 9 22 28 26 15 3 32 7
37 8 12 3 27 -32 19 -45z m69 1 c4 -30 3 -38 -3 -25 -8 19 -14 83 -6 74 2 -2
6 -24 9 -49z m-1206 18 c-3 -8 -6 -5 -6 6 -1 11 2 17 5 13 3 -3 4 -12 1 -19z
m888 -20 c-4 -57 -4 -56 -20 -34 -26 34 -18 71 17 75 3 1 5 -18 3 -41z m-1068
0 c-3 -7 -5 -2 -5 12 0 14 2 19 5 13 2 -7 2 -19 0 -25z m20 -15 c-3 -10 -5 -4
-5 12 0 17 2 24 5 18 2 -7 2 -21 0 -30z m430 17 c-1 -22 -17 -28 -17 -7 0 12
9 27 16 27 2 0 2 -9 1 -20z m720 -13 c-3 -10 -14 -13 -31 -10 -32 6 -33 17 -3
30 25 12 42 2 34 -20z m48 13 c0 -7 -8 -14 -17 -16 -20 -3 -20 -2 -12 21 7 18
29 15 29 -5z m292 -2 c-3 -8 -6 -5 -6 6 -1 11 2 17 5 13 3 -3 4 -12 1 -19z
m-1512 -253 c-3 -93 -8 -171 -10 -174 -3 -2 -5 90 -4 205 1 145 4 198 10 174
5 -19 7 -111 4 -205z m1505 200 c0 -19 -4 -35 -8 -35 -4 0 -6 16 -4 35 2 19 6
35 8 35 2 0 4 -16 4 -35z m-1590 -55 c-7 -43 -8 -43 -8 20 -1 42 2 58 7 45 5
-11 5 -40 1 -65z m531 -5 c-1 -41 -4 -85 -6 -97 -2 -13 -6 -59 -10 -103 -4
-44 -9 -96 -11 -115 -2 -19 -7 -65 -11 -102 -3 -38 -10 -68 -16 -68 -5 0 -7
18 -4 43 3 23 13 128 22 232 24 279 26 297 32 291 4 -3 5 -40 4 -81z m879 50
c0 -32 -2 -35 -30 -35 -19 0 -33 7 -40 21 -17 31 -6 46 34 47 35 1 36 0 36
-33z m-134 -13 c-2 -2 -14 2 -26 8 -18 10 -20 14 -9 21 9 6 18 3 26 -8 7 -9
11 -18 9 -21z m-147 -13 l23 -31 23 22 22 21 22 -36 c28 -47 26 -57 -3 -21
-36 43 -51 28 -19 -19 24 -36 24 -38 4 -20 -13 11 -25 18 -28 15 -6 -8 -52 40
-69 72 -19 37 -4 36 25 -3z m185 16 c3 -8 1 -15 -4 -15 -6 0 -10 7 -10 15 0 8
2 15 4 15 2 0 6 -7 10 -15z m300 -125 c4 -69 9 -144 12 -168 3 -24 2 -57 -3
-75 l-7 -32 -6 42 c-4 35 -8 41 -20 33 -13 -8 -13 -11 -1 -19 20 -13 8 -120
-25 -219 -15 -45 -29 -80 -31 -78 -10 10 -3 87 13 141 9 33 18 87 19 120 3 86
16 197 23 190 3 -3 5 -21 4 -39 -1 -18 2 -44 8 -57 9 -23 9 -11 -2 181 -3 40
2 114 6 109 2 -2 7 -60 10 -129z m-1417 78 c-3 -7 -5 -2 -5 12 0 14 2 19 5 13
2 -7 2 -19 0 -25z m1084 9 c14 -12 33 -39 43 -59 9 -20 21 -40 26 -43 14 -9
42 -65 33 -65 -11 1 -83 96 -83 109 0 6 -5 11 -11 11 -5 0 -7 5 -4 10 3 6 0
10 -8 10 -7 0 -19 11 -25 25 -14 31 -5 31 29 2z m795 5 c-2 -4 -6 -49 -8 -100
-1 -50 -5 -92 -8 -92 -5 0 -6 153 -2 188 1 6 7 12 13 12 5 0 8 -3 5 -8z
m-1519 -24 c-3 -8 -6 -5 -6 6 -1 11 2 17 5 13 3 -3 4 -12 1 -19z m841 7 c19
-6 22 -13 22 -61 0 -34 -4 -53 -10 -49 -5 3 -10 16 -11 28 -1 21 -1 21 -8 -2
-6 -23 -7 -22 -25 15 -10 22 -23 46 -27 55 -10 20 -1 31 20 25 9 -2 26 -7 39
-11z m69 -32 c-3 -10 -5 -2 -5 17 0 19 2 27 5 18 2 -10 2 -26 0 -35z m88 -78
c-23 -75 -27 -116 -6 -64 5 13 10 19 10 14 2 -21 -31 -240 -36 -245 -12 -12 7
249 22 294 8 27 15 61 15 75 0 16 3 22 10 15 6 -6 1 -37 -15 -89z m-879 -12
c-8 -8 -46 60 -46 81 0 11 11 -1 25 -29 14 -26 24 -50 21 -52z m604 25 c0 -7
-9 -2 -20 12 -26 33 -26 50 0 22 11 -12 20 -27 20 -34z m-1253 0 c-3 -7 -5 -2
-5 12 0 14 2 19 5 13 2 -7 2 -19 0 -25z m164 -58 c-5 -41 -9 -52 -10 -30 -1
39 11 120 16 105 1 -6 -1 -39 -6 -75z m1290 13 c5 -186 4 -312 -2 -296 -11 32
-20 353 -9 353 6 0 11 -26 11 -57z m-1498 -113 c2 -25 1 -56 -3 -70 -7 -24 -7
-23 -13 10 -14 72 -17 136 -10 180 l7 45 8 -60 c4 -33 9 -80 11 -105z m56 3
c-1 -110 -3 -120 -10 -71 -4 31 -6 85 -4 120 4 80 4 78 10 78 3 0 4 -57 4
-127z m1301 117 c0 -5 -2 -10 -4 -10 -3 0 -8 5 -11 10 -3 6 -1 10 4 10 6 0 11
-4 11 -10z m-73 -152 c31 -33 55 -86 32 -73 -5 4 -9 12 -9 18 0 7 -12 24 -27
38 -55 50 -143 148 -143 159 0 10 67 -54 147 -142z m-17 122 c0 -5 -2 -10 -4
-10 -3 0 -8 5 -11 10 -3 6 -1 10 4 10 6 0 11 -4 11 -10z m-527 -180 c22 -41
59 -104 80 -140 22 -36 62 -105 89 -154 87 -161 41 -112 -109 114 -101 153
-140 203 -155 194 -13 -8 -3 -35 58 -156 30 -60 51 -108 49 -108 -20 0 -96 48
-124 79 l-33 36 16 51 c9 28 16 63 16 77 0 14 5 61 11 103 l12 76 24 -49 c14
-26 43 -82 66 -123z m683 115 c9 -6 15 -20 12 -30 -2 -15 -9 -10 -30 25 -14
25 -24 49 -20 54 3 5 9 -1 14 -14 5 -13 16 -28 24 -35z m-37 -10 c0 -5 -9 1
-19 14 -11 13 -20 28 -20 35 0 6 9 0 20 -14 11 -14 20 -29 19 -35z m310 -55
c0 -102 -12 -125 -23 -47 -6 38 9 147 20 147 2 0 3 -45 3 -100z m-385 51 c-6
-6 -24 19 -24 34 1 6 7 1 15 -9 8 -11 12 -22 9 -25z m-1024 -141 c-17 -62 -22
-43 -7 26 6 32 13 49 15 37 2 -12 -2 -40 -8 -63z m-279 -152 c-8 -27 -9 -18
-10 53 -1 125 13 182 17 67 1 -48 -1 -102 -7 -120z m1663 140 c26 -51 19 -132
-10 -121 -9 3 -19 -7 -28 -28 -14 -33 -15 -31 -10 41 5 67 20 140 29 140 2 0
11 -14 19 -32z m-890 -132 c47 -71 86 -130 86 -131 0 -2 -17 6 -39 18 -33 18
-47 38 -95 134 -84 170 -78 168 48 -21z m1295 81 c-1 -31 -1 -31 -9 -7 -11 36
-11 52 0 45 6 -3 10 -21 9 -38z m-1810 -44 c-14 -62 -27 -99 -28 -81 -1 9 3
28 9 43 5 14 11 39 12 55 1 16 5 27 9 24 4 -2 3 -21 -2 -41z m172 -12 c-6 -11
-11 -37 -12 -58 -1 -21 -5 -49 -10 -63 -5 -16 -6 -4 -3 35 6 61 26 135 32 116
2 -5 -1 -19 -7 -30z m979 19 c0 -5 -4 -10 -10 -10 -5 0 -7 -8 -4 -17 5 -15 4
-16 -5 -3 -15 21 -13 40 4 40 8 0 15 -4 15 -10z m-920 -22 c0 -7 -16 -89 -35
-183 -19 -93 -38 -186 -41 -205 -3 -19 -10 -39 -16 -45 -14 -13 -4 95 11 121
10 19 43 182 57 277 3 26 10 47 15 47 5 0 9 -6 9 -12z m120 -19 c0 -5 -4 -9
-10 -9 -5 0 -10 7 -10 16 0 8 5 12 10 9 6 -3 10 -10 10 -16z m1440 -121 c0
-150 -7 -170 -10 -28 -3 117 -1 160 5 160 3 0 5 -59 5 -132z m17 110 c-3 -8
-6 -5 -6 6 -1 11 2 17 5 13 3 -3 4 -12 1 -19z m-470 -70 c-4 -45 -14 -104 -24
-131 -12 -34 -14 -51 -7 -54 14 -5 -7 -143 -30 -193 l-16 -35 6 50 c4 28 12
53 18 57 8 5 8 12 0 25 -17 28 -6 218 16 278 10 28 21 58 24 68 13 39 18 12
13 -65z m50 30 c-3 -7 -5 -2 -5 12 0 14 2 19 5 13 2 -7 2 -19 0 -25z m30 -15
c-3 -10 -5 -2 -5 17 0 19 2 27 5 18 2 -10 2 -26 0 -35z m-1021 -10 c-8 -8 -56
25 -56 38 0 6 14 1 31 -11 16 -12 28 -25 25 -27z m612 2 c-3 -3 -9 2 -12 12
-6 14 -5 15 5 6 7 -7 10 -15 7 -18z m-653 -33 c-6 -7 -35 18 -35 31 0 5 9 2
20 -8 11 -10 18 -20 15 -23z m116 3 c22 -19 42 -35 47 -35 4 0 13 -9 20 -20
22 -36 -6 -21 -65 35 -63 59 -65 77 -2 20z m-794 -87 c-2 -24 -4 -7 -4 37 0
44 2 63 4 43 2 -21 2 -57 0 -80z m1740 70 c-3 -8 -6 -5 -6 6 -1 11 2 17 5 13
3 -3 4 -12 1 -19z m-1045 -24 c14 -9 16 -13 6 -17 -8 -2 2 -12 25 -22 20 -11
38 -26 39 -34 0 -9 2 -23 2 -31 2 -15 -12 -30 -27 -30 -4 0 -16 20 -27 45 -22
51 -27 54 -39 23 -7 -19 -9 -15 -15 25 -4 25 -11 49 -17 52 -5 4 -9 11 -9 16
0 5 10 4 21 -3 12 -7 30 -18 41 -24z m993 -65 c-15 -52 -29 -96 -31 -99 -3 -2
-2 20 1 50 6 50 43 155 52 146 2 -2 -8 -46 -22 -97z m-1584 45 c-9 -28 -9 -29
-10 -3 -1 14 2 29 6 32 11 12 13 2 4 -29z m356 14 c-3 -8 -6 -5 -6 6 -1 11 2
17 5 13 3 -3 4 -12 1 -19z m1257 -70 c-10 -14 -14 -16 -11 -6 3 9 9 34 14 55
l8 38 3 -32 c2 -20 -4 -42 -14 -55z m-1647 30 c-3 -8 -6 -5 -6 6 -1 11 2 17 5
13 3 -3 4 -12 1 -19z m584 -48 c3 -37 0 -45 -15 -48 -17 -4 -18 1 -12 43 3 26
6 55 6 64 1 34 18 -14 21 -59z m920 -30 c-8 -22 -9 -19 -6 15 6 81 8 90 12 50
2 -23 0 -52 -6 -65z m-1234 68 c-3 -8 -6 -5 -6 6 -1 11 2 17 5 13 3 -3 4 -12
1 -19z m624 -25 c10 -12 5 -11 -18 6 -18 12 -33 24 -33 27 0 9 37 -15 51 -33z
m546 5 c-3 -8 -6 -5 -6 6 -1 11 2 17 5 13 3 -3 4 -12 1 -19z m-1112 -40 c-4
-24 -12 -47 -18 -53 -7 -7 -8 -5 -4 7 3 9 9 33 13 52 9 51 17 45 9 -6z m305 0
c0 -10 -4 -18 -10 -18 -5 0 -10 15 -10 33 0 24 3 28 10 17 5 -8 10 -23 10 -32z
m121 -43 c3 -20 -1 -31 -11 -33 -12 -2 -15 10 -17 55 -2 54 -2 56 11 33 8 -14
16 -38 17 -55z m168 18 c2 -2 -2 -3 -10 -3 -8 0 -20 10 -28 23 l-14 22 24 -20
c13 -11 26 -21 28 -22z m494 -6 c-9 -15 -21 4 -15 25 5 21 6 21 12 2 4 -10 5
-22 3 -27z m204 -80 c-20 -45 -43 -98 -51 -117 l-16 -35 6 55 c7 67 85 240 92
202 2 -12 -12 -60 -31 -105z m-257 98 c0 -9 -6 -12 -16 -8 -13 5 -13 7 -2 14
17 11 18 11 18 -6z m-1415 -14 c3 -5 1 -12 -5 -16 -5 -3 -10 1 -10 9 0 18 6
21 15 7z m875 -1 c0 -5 3 -15 6 -24 8 -22 -15 -20 -32 2 -18 23 -17 27 6 29
11 1 20 -2 20 -7z m-230 -31 c0 -12 -29 -24 -37 -16 -3 4 -3 13 0 21 6 16 37
11 37 -5z m375 -27 c-6 -7 -34 29 -34 43 0 6 9 -1 20 -14 11 -13 17 -26 14
-29z m-778 8 c-6 -16 -15 -30 -19 -30 -12 0 -9 35 4 48 21 21 27 13 15 -18z
m513 10 c0 -11 -6 -20 -14 -20 -21 0 -31 21 -15 31 22 14 29 11 29 -11z m555
10 c-3 -5 -11 -10 -16 -10 -6 0 -7 5 -4 10 3 6 11 10 16 10 6 0 7 -4 4 -10z
m74 -16 c-15 -18 -22 -13 -13 10 3 9 10 13 16 10 5 -3 4 -12 -3 -20z m-310
-35 c5 -16 8 -29 6 -29 -4 0 -45 69 -45 77 0 15 30 -22 39 -48z m375 45 c9 -3
16 -13 16 -21 0 -12 -7 -14 -32 -9 -37 7 -42 11 -33 25 7 12 26 14 49 5z
m-1268 -49 c-4 -14 -11 -25 -16 -25 -13 0 -13 12 1 47 13 32 24 15 15 -22z
m131 23 c-3 -8 -6 -5 -6 6 -1 11 2 17 5 13 3 -3 4 -12 1 -19z m393 12 c0 -5
-4 -10 -9 -10 -6 0 -13 5 -16 10 -3 6 1 10 9 10 9 0 16 -4 16 -10z m-60 -20
c-8 -5 -19 -10 -25 -10 -5 0 -3 5 5 10 8 5 20 10 25 10 6 0 3 -5 -5 -10z m628
1 c10 -6 5 -12 -18 -21 -35 -14 -49 -8 -30 15 14 17 29 19 48 6z m282 -1 c0
-5 -4 -10 -10 -10 -5 0 -10 5 -10 10 0 6 5 10 10 10 6 0 10 -4 10 -10z m-1494
-56 c-4 -14 -10 -23 -15 -20 -4 3 -3 22 3 41 12 39 22 21 12 -21z m878 40 c4
-10 1 -14 -6 -12 -15 5 -23 28 -10 28 5 0 13 -7 16 -16z m24 -9 c-3 -3 -9 2
-12 12 -6 14 -5 15 5 6 7 -7 10 -15 7 -18z m-248 5 c0 -5 -7 -10 -16 -10 -8 0
-12 5 -9 10 3 6 10 10 16 10 5 0 9 -4 9 -10z m37 4 c-3 -3 -12 -4 -19 -1 -8 3
-5 6 6 6 11 1 17 -2 13 -5z m163 -15 c0 -5 -4 -9 -10 -9 -5 0 -10 7 -10 16 0
8 5 12 10 9 6 -3 10 -10 10 -16z m480 11 c0 -5 -7 -10 -16 -10 -8 0 -12 5 -9
10 3 6 10 10 16 10 5 0 9 -4 9 -10z m-740 -9 c0 -5 -9 -11 -20 -14 -13 -3 -20
0 -20 9 0 8 9 14 20 14 11 0 20 -4 20 -9z m215 -1 c3 -5 -1 -10 -9 -10 -9 0
-16 5 -16 10 0 6 4 10 9 10 6 0 13 -4 16 -10z m595 -9 c0 -25 -11 -32 -39 -24
-21 5 -21 7 -5 24 22 25 44 24 44 0z m240 -64 c0 -52 -2 -58 -24 -67 -13 -5
-27 -19 -31 -32 -11 -39 -44 -106 -55 -113 -23 -14 -7 49 40 166 28 68 50 125
50 128 0 3 5 -1 10 -9 5 -8 10 -41 10 -73z m-880 69 c0 -2 -9 -6 -20 -9 -11
-3 -20 -1 -20 4 0 5 9 9 20 9 11 0 20 -2 20 -4z m667 -18 c-3 -8 -6 -5 -6 6
-1 11 2 17 5 13 3 -3 4 -12 1 -19z m57 -21 c-11 -65 -15 -77 -25 -77 -10 0 -6
55 7 103 9 30 24 8 18 -26z m-787 27 c-3 -3 -12 -4 -19 -1 -8 3 -5 6 6 6 11 1
17 -2 13 -5z m123 -14 c-20 -13 -43 -13 -35 0 3 6 16 10 28 10 18 0 19 -2 7
-10z m-119 -23 c-13 -13 -26 -3 -16 12 3 6 11 8 17 5 6 -4 6 -10 -1 -17z m64
13 c-3 -5 -15 -10 -26 -10 -10 0 -19 5 -19 10 0 6 12 10 26 10 14 0 23 -4 19
-10z m143 -30 c10 -26 9 -30 -7 -30 -12 0 -20 9 -24 27 -10 53 13 55 31 3z
m27 10 c17 -34 18 -40 6 -40 -7 0 -31 51 -31 66 0 12 12 0 25 -26z m-665 10
c-8 -5 -28 -9 -45 -9 -29 1 -29 1 -5 9 14 4 34 8 45 9 16 1 17 -1 5 -9z m394
-6 c4 -11 1 -14 -11 -12 -9 2 -18 9 -21 16 -6 18 25 15 32 -4z m-134 -18 c0
-24 -16 -43 -26 -33 -8 7 7 57 17 57 5 0 9 -11 9 -24z m70 4 c0 -11 -4 -20 -9
-20 -5 0 -16 -3 -25 -6 -12 -5 -16 0 -16 20 0 21 5 26 25 26 18 0 25 -5 25
-20z m230 -10 c0 -23 -4 -30 -20 -30 -14 0 -20 7 -20 22 0 25 -10 19 -14 -9
-4 -26 -40 -23 -44 4 -3 18 4 24 30 32 59 17 68 14 68 -19z m213 -15 c6 -16 3
-15 -13 5 -11 14 -20 29 -20 33 0 13 25 -16 33 -38z m345 36 c8 -4 12 -19 10
-32 -2 -20 -8 -23 -32 -21 -17 2 -39 8 -50 15 -19 10 -19 12 -3 15 9 2 17 10
17 18 0 15 37 19 58 5z m-1036 -23 c-7 -7 -12 -8 -12 -2 0 14 12 26 19 19 2
-3 -1 -11 -7 -17z m942 7 c-7 -17 -20 -20 -28 -6 -4 5 0 12 6 14 23 9 28 7 22
-8z m-579 -43 c-11 -11 -27 17 -20 35 6 16 8 16 16 -6 5 -13 7 -26 4 -29z
m142 16 c-3 -8 -6 -5 -6 6 -1 11 2 17 5 13 3 -3 4 -12 1 -19z m-179 -12 c3
-13 -1 -17 -14 -14 -11 2 -20 11 -22 22 -3 13 1 17 14 14 11 -2 20 -11 22 -22z
m-443 4 c-3 -5 -11 -10 -16 -10 -6 0 -7 5 -4 10 3 6 11 10 16 10 6 0 7 -4 4
-10z m372 -7 c5 -14 -35 -24 -43 -11 -7 11 15 29 30 25 6 -2 11 -8 13 -14z
m656 -3 c-8 -31 -23 -34 -23 -6 0 16 6 26 14 26 9 0 12 -7 9 -20z m63 -5 c18
-13 18 -14 -6 -9 -14 2 -19 2 -12 -2 19 -9 14 -20 -14 -33 -35 -15 -39 -9 -19
28 18 35 23 37 51 16z m-1143 -7 c-4 -7 -8 -16 -8 -19 0 -9 -87 -110 -92 -106
-5 5 59 121 71 129 18 13 38 9 29 -4z m117 2 c0 -5 -12 -10 -27 -9 -25 0 -26
1 -8 9 27 12 35 12 35 0z m80 -9 c0 -13 -65 -68 -103 -86 l-32 -16 29 23 c15
13 42 38 60 55 31 33 46 41 46 24z m410 -1 c0 -5 -12 -10 -26 -10 -14 0 -23 4
-19 10 3 6 15 10 26 10 10 0 19 -4 19 -10z m47 4 c-3 -3 -12 -4 -19 -1 -8 3
-5 6 6 6 11 1 17 -2 13 -5z m128 -13 c-3 -10 13 -73 35 -140 22 -67 40 -124
40 -126 0 -3 -16 -5 -35 -5 -33 0 -35 2 -41 40 -4 22 -10 40 -13 40 -4 0 -7
12 -8 28 -2 71 -4 83 -12 78 -5 -3 -11 2 -14 12 -2 9 -8 26 -13 37 -7 19 -7
19 13 3 27 -25 33 -23 33 10 0 26 7 42 17 42 3 0 2 -8 -2 -19z m550 -28 c-9
-65 -55 -172 -78 -185 -23 -12 -28 -8 -20 20 4 18 8 20 19 11 16 -13 26 9 38
76 8 44 36 125 43 125 3 0 2 -21 -2 -47z m-825 23 c0 -14 -29 -31 -38 -22 -2
3 -2 12 1 21 8 19 37 20 37 1z m35 5 c3 -5 1 -12 -4 -15 -5 -3 -11 1 -15 9 -6
16 9 21 19 6z m205 -12 c0 -6 -4 -7 -10 -4 -5 3 -10 11 -10 16 0 6 5 7 10 4 6
-3 10 -11 10 -16z m465 11 c11 -17 -5 -32 -21 -19 -7 6 -11 15 -8 20 7 12 21
11 29 -1z m-857 -35 c3 -25 2 -27 -12 -16 -19 16 -22 55 -3 49 6 -3 14 -17 15
-33z m76 18 c5 -11 1 -22 -10 -30 -27 -20 -34 -16 -34 17 0 23 5 30 19 30 10
0 22 -8 25 -17z m277 -16 c6 -22 4 -27 -12 -27 -15 0 -19 7 -19 31 0 37 21 35
31 -4z m569 24 c0 -6 -4 -13 -10 -16 -5 -3 -10 1 -10 9 0 9 5 16 10 16 6 0 10
-4 10 -9z m-618 -26 c6 -31 -11 -45 -19 -16 -7 27 -23 27 -23 1 0 -13 -7 -20
-20 -20 -11 0 -21 5 -21 10 -5 29 -2 35 21 41 46 13 58 10 62 -16z m156 -12
c15 -50 9 -52 -11 -3 -8 22 -12 40 -8 40 4 0 13 -17 19 -37z m608 10 c-10 -10
-19 5 -10 18 6 11 8 11 12 0 2 -7 1 -15 -2 -18z m-1566 7 c5 9 9 8 13 -3 3 -8
-5 -29 -17 -46 -22 -29 -24 -30 -29 -11 -5 21 15 77 22 59 2 -8 6 -7 11 1z
m52 -12 c-7 -7 -12 -8 -12 -2 0 14 12 26 19 19 2 -3 -1 -11 -7 -17z m1308 -14
c0 -2 -8 -1 -17 2 -10 3 -24 8 -31 10 -7 2 -10 8 -7 14 5 8 55 -15 55 -26z
m-660 -6 c0 -5 -4 -8 -10 -8 -5 0 -10 10 -10 23 0 18 2 19 10 7 5 -8 10 -18
10 -22z m-40 2 c0 -22 -7 -25 -29 -11 -16 10 -6 31 15 31 8 0 14 -9 14 -20z
m934 -15 c-3 -14 -7 -70 -8 -125 -1 -91 -4 -104 -27 -102 -3 1 -21 -15 -39
-33 -19 -19 -29 -35 -23 -35 14 0 54 36 47 43 -3 3 -1 8 5 12 12 7 15 -27 4
-39 -5 -4 -8 -11 -9 -14 -5 -37 -131 -201 -154 -202 -9 0 -22 -6 -29 -12 -10
-11 -11 -10 -6 5 4 9 13 17 21 17 19 0 104 129 97 147 -5 11 -11 8 -29 -14
-13 -15 -23 -31 -24 -35 0 -5 -7 -8 -15 -8 -9 0 -15 -6 -13 -13 5 -21 -69
-115 -112 -142 -45 -29 -108 -46 -96 -27 4 7 16 12 27 12 10 0 19 4 19 10 0 5
16 12 35 16 33 6 50 24 22 24 -26 0 -142 -42 -159 -57 -28 -25 -22 3 9 45 45
62 76 93 83 82 4 -6 16 -1 30 12 25 24 70 50 70 42 0 -3 -9 -15 -21 -27 -11
-12 -25 -30 -31 -41 -32 -60 72 52 146 157 22 30 45 53 52 50 17 -6 35 31 79
165 20 61 41 112 46 112 5 0 7 -11 3 -25z m-1009 5 c3 -5 -1 -10 -10 -10 -9 0
-13 5 -10 10 3 6 8 10 10 10 2 0 7 -4 10 -10z m675 0 c0 -5 -4 -10 -10 -10 -5
0 -10 5 -10 10 0 6 5 10 10 10 6 0 10 -4 10 -10z m91 -9 c11 -10 -2 -71 -15
-71 -13 0 -30 28 -41 68 -6 21 -4 22 22 16 15 -4 31 -9 34 -13z m46 -3 c-3 -8
-6 -5 -6 6 -1 11 2 17 5 13 3 -3 4 -12 1 -19z m-1067 2 c0 -5 -4 -10 -10 -10
-5 0 -10 5 -10 10 0 6 5 10 10 10 6 0 10 -4 10 -10z m178 -30 c1 -14 10 -62
19 -108 14 -73 15 -85 2 -98 -13 -12 -17 0 -33 98 -11 62 -21 119 -24 127 -3
9 1 12 14 9 12 -2 20 -13 22 -28z m267 -1 c5 -22 3 -34 -6 -40 -22 -13 -33 -5
-40 29 -6 30 -2 35 33 41 3 0 9 -13 13 -30z m39 15 c8 -22 8 -54 -2 -54 -4 0
-12 16 -18 35 -9 27 -8 35 1 35 7 0 16 -7 19 -16z m53 -6 c6 -13 14 -36 16
-53 3 -16 9 -38 13 -49 6 -16 5 -17 -14 -7 -12 7 -22 18 -22 26 0 7 -4 15 -9
17 -5 2 -12 22 -16 46 -5 33 -4 42 7 42 8 0 20 -10 25 -22z m-722 2 c-3 -5
-12 -10 -18 -10 -7 0 -6 4 3 10 19 12 23 12 15 0z m296 -7 c1 -23 4 -39 32
-151 14 -54 19 -95 14 -99 -14 -9 -25 15 -42 97 -9 41 -22 96 -30 123 -12 44
-12 47 6 47 11 0 19 -7 20 -17z m239 -17 c0 -5 -7 -3 -15 4 -8 7 -12 17 -9 22
7 10 24 -9 24 -26z m34 -16 l7 -35 -16 34 c-17 37 -20 60 -6 46 5 -6 12 -26
15 -45z m-152 18 c2 -15 9 -22 19 -20 17 2 29 -39 29 -99 0 -27 -26 -47 -40
-32 -9 10 -30 117 -30 150 0 30 18 30 22 1z m448 -13 c0 -5 -5 -3 -10 5 -5 8
-10 20 -10 25 0 6 5 3 10 -5 5 -8 10 -19 10 -25z m527 10 c-4 -8 -11 -15 -17
-15 -6 0 -6 7 2 20 14 22 24 19 15 -5z m-1342 3 c-46 -27 -193 -50 -180 -28 4
6 11 8 16 5 12 -8 128 15 135 26 3 5 15 9 27 9 22 -1 22 -1 2 -12z m794 -38
c0 -9 -4 -8 -9 5 -5 11 -9 27 -9 35 0 9 4 8 9 -5 5 -11 9 -27 9 -35z m658 13
c-3 -10 -5 -4 -5 12 0 17 2 24 5 18 2 -7 2 -21 0 -30z m-30 -20 c-3 -10 -5 -2
-5 17 0 19 2 27 5 18 2 -10 2 -26 0 -35z m-1357 27 c-20 -13 -33 -13 -25 0 3
6 14 10 23 10 15 0 15 -2 2 -10z m140 -11 c0 -11 -7 -27 -15 -35 -10 -11 -15
-38 -16 -87 l-1 -72 -29 85 c-32 94 -34 100 -18 100 6 0 16 6 23 13 22 21 56
19 56 -4z m270 -24 c0 -7 9 -19 19 -26 11 -8 22 -24 26 -36 6 -20 3 -23 -23
-23 -26 0 -31 4 -37 38 -3 20 -9 48 -12 62 -6 22 -5 24 10 11 10 -7 17 -19 17
-26z m820 21 c0 -3 -4 -8 -10 -11 -5 -3 -10 -1 -10 4 0 6 5 11 10 11 6 0 10
-2 10 -4z m30 -22 c0 -8 -4 -14 -10 -14 -5 0 -10 9 -10 21 0 11 5 17 10 14 6
-3 10 -13 10 -21z m-1385 6 c-3 -5 -11 -10 -16 -10 -6 0 -7 5 -4 10 3 6 11 10
16 10 6 0 7 -4 4 -10z m499 -45 c4 -34 3 -43 -3 -30 -9 19 -15 93 -7 84 2 -2
6 -26 10 -54z m396 39 c0 -8 -4 -12 -10 -9 -5 3 -10 10 -10 16 0 5 5 9 10 9 6
0 10 -7 10 -16z m-742 -26 c-9 -5 -9 -13 0 -33 15 -34 15 -40 -1 -23 -7 7 -18
27 -24 45 -10 27 -9 32 5 35 21 5 35 -14 20 -24z m780 -38 c0 -22 -1 -22 -8 5
-4 17 -8 39 -8 50 0 16 2 15 8 -5 4 -14 8 -36 8 -50z m217 60 c3 -5 1 -10 -4
-10 -6 0 -11 5 -11 10 0 6 2 10 4 10 3 0 8 -4 11 -10z m-1219 -15 c-16 -17
-46 -20 -46 -6 0 8 13 13 53 20 5 0 2 -6 -7 -14z m725 8 c0 -5 2 -20 4 -35 3
-22 0 -28 -16 -28 -25 0 -46 49 -27 62 16 10 38 10 39 1z m-576 -12 c-11 -18
14 -93 39 -120 14 -15 26 -35 26 -44 0 -10 7 -20 15 -23 8 -4 15 -19 15 -34 0
-16 5 -32 10 -35 6 -4 -1 -20 -16 -40 -22 -29 -28 -32 -45 -22 -18 11 -18 12
0 32 10 11 24 30 30 43 10 19 9 22 -8 22 -12 0 -19 -5 -16 -12 3 -7 -4 -24
-14 -37 l-18 -24 -11 33 c-9 25 -9 38 3 60 17 34 18 40 6 40 -5 0 -12 -10 -16
-22 -7 -26 -4 -32 -45 85 l-28 79 32 14 c37 16 49 17 41 5z m643 -34 c35 -28
25 -35 -22 -17 -19 7 -26 17 -26 37 0 16 4 23 8 18 4 -6 22 -23 40 -38z m-119
-7 c0 -10 -3 -8 -9 5 -12 27 -12 43 0 25 5 -8 9 -22 9 -30z m301 19 c0 -11 5
-29 10 -40 6 -10 7 -19 2 -19 -5 0 -14 18 -20 40 -5 23 -6 40 -1 40 5 0 9 -9
9 -21z m280 0 c0 -5 -4 -9 -10 -9 -5 0 -10 7 -10 16 0 8 5 12 10 9 6 -3 10
-10 10 -16z m190 9 c0 -7 -9 -24 -21 -38 l-20 -25 18 38 c18 39 23 45 23 25z
m-1515 -29 c4 -17 6 -47 5 -67 -5 -68 0 -186 9 -262 15 -110 34 -437 35 -570
0 -105 -14 -183 -30 -167 -4 3 -6 84 -6 179 0 95 -4 205 -9 243 -5 39 -11 133
-13 210 -3 77 -8 213 -12 303 -5 113 -4 162 4 162 6 0 13 -14 17 -31z m259 6
c3 -8 1 -15 -4 -15 -6 0 -10 7 -10 15 0 8 2 15 4 15 2 0 6 -7 10 -15z m-173
-47 c4 -314 9 -501 18 -580 13 -117 14 -158 3 -158 -5 0 -12 53 -15 118 -6
109 -25 319 -47 537 -13 119 -13 113 13 118 12 2 23 5 25 6 1 0 3 -18 3 -41z
m352 -87 c5 -22 0 -31 -22 -44 -25 -15 -30 -15 -50 0 l-23 15 24 12 c20 10 23
20 26 81 l4 70 18 -54 c10 -29 20 -66 23 -80z m973 67 c-19 -27 -21 -19 -4 18
7 14 14 21 16 15 2 -6 -4 -21 -12 -33z m-1133 12 c3 -11 3 -20 1 -20 -2 0 -8
9 -14 20 -6 11 -7 20 -2 20 6 0 12 -9 15 -20z m846 -23 c1 -5 -3 -5 -9 -2 -5
3 -10 16 -9 28 0 21 1 21 9 2 5 -11 9 -24 9 -28z m196 13 c3 -5 -1 -10 -10
-10 -9 0 -13 5 -10 10 3 6 8 10 10 10 2 0 7 -4 10 -10z m82 -75 c-40 -55 -81
-62 -61 -11 3 8 11 13 18 10 7 -3 23 9 36 25 36 48 43 25 7 -24z m-527 40 c0
-2 -7 -8 -15 -15 -12 -10 -15 -10 -15 2 0 8 7 15 15 15 8 0 15 -1 15 -2z m50
-14 c12 -24 3 -31 -32 -24 -24 4 -25 7 -15 24 15 24 34 24 47 0z m91 3 c12
-15 10 -16 -19 -10 -25 6 -32 4 -32 -8 0 -9 11 -18 25 -22 29 -7 34 -24 7 -24
-36 0 -55 43 -30 68 16 16 33 15 49 -4z m606 -6 c-3 -8 -6 -5 -6 6 -1 11 2 17
5 13 3 -3 4 -12 1 -19z m-793 3 c3 -5 -5 -11 -19 -13 -14 -3 -26 0 -29 8 -6
16 39 20 48 5z m-74 -32 c0 -5 -8 -9 -17 -9 -9 0 -25 -7 -35 -17 -20 -18 -24
-7 -5 18 21 27 57 32 57 8z m109 -75 c-26 -28 -47 -31 -56 -8 -7 20 17 37 34
23 8 -8 16 -5 25 10 7 12 15 16 17 10 2 -6 -7 -21 -20 -35z m-722 -1 c-3 -10
-5 -4 -5 12 0 17 2 24 5 18 2 -7 2 -21 0 -30z m803 2 c0 -13 -37 -24 -58 -17
-10 3 -9 8 3 22 18 19 55 16 55 -5z m-346 0 c-6 -16 -24 -21 -24 -7 0 11 11
22 21 22 5 0 6 -7 3 -15z m64 -7 c-2 -6 -10 -14 -16 -16 -7 -2 -10 2 -6 12 7
18 28 22 22 4z m-300 -59 c-12 -21 -28 -39 -35 -39 -24 0 -25 27 -1 63 18 29
26 33 41 26 17 -10 17 -12 -5 -50z m422 41 c0 -5 -5 -10 -11 -10 -5 0 -7 5 -4
10 3 6 8 10 11 10 2 0 4 -4 4 -10z m-350 -20 c18 -12 2 -12 -25 0 -13 6 -15 9
-5 9 8 0 22 -4 30 -9z m-303 -26 c13 -12 17 -45 20 -157 1 -78 7 -204 12 -282
7 -105 7 -142 -2 -147 -8 -5 -14 1 -18 15 -17 59 -47 587 -34 587 4 0 14 -7
22 -16z m259 -30 c-3 -8 -10 -13 -16 -9 -6 3 -5 16 3 32 9 21 13 23 15 9 2 -9
1 -24 -2 -32z m69 27 c3 -5 1 -12 -5 -16 -5 -3 -10 1 -10 9 0 18 6 21 15 7z
m51 -9 c17 -11 10 -67 -9 -70 -10 -2 -20 4 -23 12 -3 9 -10 13 -15 10 -15 -9
-10 15 8 36 19 22 23 23 39 12z m-89 -34 c-3 -7 -5 -2 -5 12 0 14 2 19 5 13 2
-7 2 -19 0 -25z m663 23 c0 -5 -3 -11 -7 -13 -5 -1 -21 -20 -36 -40 -15 -21
-35 -38 -43 -38 -7 0 -13 -3 -13 -7 4 -25 -4 -33 -33 -33 l-31 0 22 23 c12 13
23 34 26 45 6 33 13 41 48 56 38 17 67 20 67 7z m63 3 c12 -12 -62 -108 -85
-111 -20 -2 -19 1 12 26 41 35 36 51 -6 19 -29 -22 -29 -22 4 15 17 21 32 42
32 47 0 11 33 14 43 4z m-483 -11 c0 -4 -12 -18 -27 -30 -18 -16 -21 -23 -11
-23 8 0 27 12 41 26 20 20 34 25 62 22 l37 -3 -45 -48 c-25 -26 -51 -45 -59
-43 -7 3 -32 10 -56 16 l-44 11 17 26 c16 24 16 25 1 20 -16 -6 -23 13 -9 26
9 9 93 9 93 0z m1348 -157 c-4 -6 -7 30 -6 80 l1 89 7 -80 c3 -44 2 -84 -2
-89z m-1082 99 c-21 -25 -41 -43 -44 -41 -4 2 -26 1 -50 -4 -23 -4 -45 -4 -48
1 -2 5 -18 6 -34 2 -19 -3 -30 -1 -30 6 0 6 4 11 8 11 5 0 17 16 28 35 17 33
22 35 68 35 l50 0 -34 -35 c-19 -19 -29 -35 -24 -35 6 0 25 16 43 34 22 22 45
36 65 38 17 2 33 2 35 1 2 -1 -13 -23 -33 -48z m-756 -35 l-7 -45 -2 55 c0 32
3 50 8 45 5 -6 5 -30 1 -55z m130 20 c0 -5 -2 -10 -4 -10 -3 0 -8 5 -11 10 -3
6 -1 10 4 10 6 0 11 -4 11 -10z m57 -16 c-7 -7 -37 7 -37 17 0 6 9 5 21 -1 11
-7 19 -14 16 -16z m-139 -16 c14 -18 33 -391 35 -695 l1 -252 -33 -48 -34 -48
36 34 c29 27 37 31 37 17 0 -24 -19 -58 -29 -51 -5 3 -11 -2 -15 -10 -8 -22 6
-18 37 10 30 28 31 28 18 -8 -10 -25 -57 -43 -64 -24 -2 6 -15 2 -30 -8 -15
-10 -30 -15 -33 -12 -3 3 6 13 20 22 24 16 39 44 15 29 -12 -7 35 71 59 99 14
16 14 17 0 12 -14 -6 -16 2 -13 57 1 35 6 75 10 90 6 23 4 28 -10 28 -18 0
-18 18 1 118 5 26 3 32 -11 32 -12 0 -15 5 -10 18 16 39 27 93 20 100 -4 4
-10 1 -12 -5 -10 -29 -21 -9 -28 50 -9 77 -9 364 0 417 7 42 15 49 33 28z
m317 2 c3 -5 1 -10 -4 -10 -6 0 -11 5 -11 10 0 6 2 10 4 10 3 0 8 -4 11 -10z
m245 -30 c0 -5 -7 -10 -15 -10 -8 0 -15 5 -15 10 0 6 7 10 15 10 8 0 15 -4 15
-10z m347 -46 c-3 -3 -12 -4 -19 -1 -8 3 -5 6 6 6 11 1 17 -2 13 -5z m-50 -10
c-3 -3 -12 -4 -19 -1 -8 3 -5 6 6 6 11 1 17 -2 13 -5z m-998 -176 c1 -28 -3
-38 -14 -38 -8 0 -15 5 -15 10 0 6 5 10 11 10 7 0 9 25 5 78 -4 63 -3 68 4 27
4 -27 9 -67 9 -87z m1938 110 c-3 -8 -6 -5 -6 6 -1 11 2 17 5 13 3 -3 4 -12 1
-19z m-116 -177 c-12 -22 -21 -45 -21 -51 0 -6 -25 -49 -56 -96 -30 -47 -65
-104 -77 -127 l-22 -42 -3 33 c-4 41 26 100 121 241 69 101 99 123 58 42z m29
-11 c0 -20 -5 -30 -15 -30 -18 0 -18 2 -3 35 15 32 18 32 18 -5z m-1823 -62
c-3 -8 -6 -5 -6 6 -1 11 2 17 5 13 3 -3 4 -12 1 -19z m1802 -21 c-5 -20 -14
-37 -19 -37 -6 0 -10 -7 -10 -15 0 -33 27 -12 42 33 l16 47 3 -85 c5 -173 4
-232 -3 -237 -5 -2 -8 39 -8 91 0 52 -4 97 -8 100 -13 8 -16 -51 -6 -101 6
-34 -11 -48 -22 -18 -12 30 -22 14 -22 -37 0 -36 -5 -55 -16 -63 -9 -7 -16
-22 -16 -33 0 -11 -7 -27 -15 -36 -8 -8 -15 -18 -15 -23 0 -4 -21 -50 -47
-102 -47 -92 -48 -94 -51 -59 -2 25 6 53 26 91 21 39 28 63 24 87 -4 26 8 58
54 151 39 81 61 115 67 106 6 -8 7 -6 3 6 -3 10 -1 28 5 39 9 16 8 19 -3 16
-7 -2 -29 -36 -48 -75 -19 -38 -48 -85 -63 -103 -15 -18 -34 -45 -42 -61 -14
-25 -13 -28 0 -23 11 4 9 -5 -8 -35 -12 -22 -23 -36 -25 -31 -2 5 2 18 8 29 6
12 7 21 2 21 -19 0 7 91 48 166 23 43 46 81 49 84 3 3 11 12 16 21 29 48 88
129 91 126 2 -2 -1 -20 -7 -40z m-1822 -34 c-3 -10 -5 -2 -5 17 0 19 2 27 5
18 2 -10 2 -26 0 -35z m24 -66 c-13 -13 -15 14 -3 64 l7 34 3 -44 c2 -24 -2
-49 -7 -54z m40 2 c-10 -23 -10 -23 -10 7 -1 17 2 34 7 38 11 12 14 -18 3 -45z
m28 -13 c-2 -19 -1 -38 3 -41 6 -7 -2 -42 -21 -85 -10 -23 -10 -21 -8 15 2 22
7 47 12 54 6 10 4 12 -5 6 -9 -5 -11 -2 -7 11 4 11 9 31 13 47 9 38 16 34 13
-7z m28 -8 c-3 -8 -6 -5 -6 6 -1 11 2 17 5 13 3 -3 4 -12 1 -19z m-86 -118
c-8 -21 -10 -16 -10 32 -1 75 13 111 17 43 2 -28 -2 -62 -7 -75z m-40 33 c-9
-16 -10 -16 -11 -1 0 9 3 25 7 35 7 16 8 17 11 1 2 -10 -1 -25 -7 -35z m199
-12 c0 -11 -4 -23 -10 -26 -6 -4 -10 5 -10 19 0 14 5 26 10 26 6 0 10 -9 10
-19z m-236 -38 c-3 -16 -10 -99 -14 -187 -5 -87 -12 -161 -15 -164 -3 -3 -5
48 -5 114 0 65 -3 142 -6 170 -6 45 -4 54 17 72 29 28 31 28 23 -5z m1873 -40
c-3 -10 -5 -2 -5 17 0 19 2 27 5 18 2 -10 2 -26 0 -35z m-1767 -96 c-23 -56
-56 -131 -73 -167 -17 -36 -38 -85 -48 -110 -10 -25 -18 -37 -19 -28 0 18 70
219 88 254 6 10 16 34 22 52 7 17 16 32 21 32 5 0 9 7 9 15 0 8 8 31 18 51 12
26 18 32 20 20 2 -10 -15 -63 -38 -119z m-86 76 c-3 -26 -7 -50 -10 -52 -6 -6
-5 51 2 77 10 37 14 25 8 -25z m76 38 c0 -11 -29 -81 -34 -81 -2 0 1 20 7 45
6 25 14 45 19 45 4 0 8 -4 8 -9z m-54 -57 c-4 -14 -9 -24 -12 -21 -3 2 -2 17
2 31 3 15 9 25 11 22 3 -3 2 -17 -1 -32z m1806 -26 c-6 -6 -8 -1 -7 14 4 39 8
44 12 19 3 -13 0 -28 -5 -33z m-198 10 c-10 -56 -15 -66 -24 -43 -4 12 -2 31
7 48 18 36 24 34 17 -5z m-1417 -85 c-2 -21 -4 -4 -4 37 0 41 2 58 4 38 2 -21
2 -55 0 -75z m-77 87 c0 -6 -9 -30 -21 -53 -20 -42 -20 -42 0 -17 30 37 28 2
-5 -61 -29 -59 -26 -93 6 -64 29 26 25 2 -6 -34 -14 -17 -23 -31 -19 -31 4 0
-8 -18 -25 -40 -17 -22 -36 -40 -41 -40 -19 0 -8 27 30 70 33 37 37 48 29 66
-7 14 -7 38 -2 61 4 21 8 45 9 53 3 48 45 131 45 90z m1691 -57 c-12 -20 -14
-14 -5 12 4 9 9 14 11 11 3 -2 0 -13 -6 -23z m-1804 -15 c-3 -7 -5 -2 -5 12 0
14 2 19 5 13 2 -7 2 -19 0 -25z m1644 -53 c-9 -16 -22 -34 -28 -38 -7 -4 -13
-16 -13 -26 0 -10 -8 -29 -17 -42 -10 -13 -29 -45 -42 -71 -13 -26 -28 -45
-33 -42 -7 4 -6 9 0 13 6 4 7 12 3 20 -8 13 38 94 57 103 12 5 52 77 52 93 0
8 6 26 12 41 l13 27 5 -24 c3 -13 -1 -37 -9 -54z m-116 -51 c-21 -41 -41 -74
-45 -74 -3 0 12 39 34 86 22 47 42 80 45 73 2 -6 -14 -45 -34 -85z m217 74
c-7 -7 -12 -8 -12 -2 0 14 12 26 19 19 2 -3 -1 -11 -7 -17z m25 -10 c-3 -8 -6
-5 -6 6 -1 11 2 17 5 13 3 -3 4 -12 1 -19z m-1673 -63 c-24 -36 -28 -24 -7 20
11 24 19 32 21 22 2 -9 -4 -27 -14 -42z m1654 12 c-7 -14 -13 -17 -16 -9 -6
19 6 44 18 37 7 -4 6 -14 -2 -28z m44 -5 c-7 -2 -12 -16 -12 -30 0 -15 -9 -40
-20 -57 -17 -26 -20 -27 -21 -10 -4 46 4 71 29 96 15 14 29 21 31 16 2 -6 -1
-13 -7 -15z m-245 -24 c-20 -40 -57 -96 -57 -86 0 14 63 128 68 123 2 -2 -3
-19 -11 -37z m168 0 c-2 -35 -15 -68 -27 -68 -6 0 -9 -3 -5 -6 12 -12 -35 -84
-55 -84 -17 0 -19 4 -13 33 4 17 11 34 16 35 5 2 9 8 9 13 0 5 14 34 31 65 31
54 46 58 44 12z m-1708 -63 c-20 -41 -41 -75 -47 -75 -7 0 -10 3 -8 8 2 4 15
30 28 57 29 62 51 97 58 91 2 -3 -12 -39 -31 -81z m180 38 c-3 -10 -5 -4 -5
12 0 17 2 24 5 18 2 -7 2 -21 0 -30z m1592 -77 c-12 -31 -29 -56 -36 -56 -8 0
-3 20 18 61 38 74 50 71 18 -5z m-184 22 c-3 -18 -7 -40 -8 -48 -6 -38 -37
-56 -37 -21 0 18 39 101 47 101 2 0 1 -15 -2 -32z m235 6 c0 -8 -5 -12 -10 -9
-6 4 -8 11 -5 16 9 14 15 11 15 -7z m-360 -16 c-6 -13 -15 -35 -21 -50 -6 -16
-17 -28 -25 -28 -9 0 -3 16 18 50 33 54 43 64 28 28z m250 8 c0 -3 -4 -8 -10
-11 -5 -3 -10 -1 -10 4 0 6 5 11 10 11 6 0 10 -2 10 -4z m110 -20 c0 -3 -4 -8
-10 -11 -5 -3 -10 -1 -10 4 0 6 5 11 10 11 6 0 10 -2 10 -4z m-344 -63 c-11
-11 -17 4 -9 23 7 18 8 18 11 1 2 -10 1 -21 -2 -24z m228 8 c-7 -8 -35 9 -29
19 4 6 11 5 20 -3 7 -6 11 -14 9 -16z m122 -8 c-11 -11 -17 4 -9 23 7 18 8 18
11 1 2 -10 1 -21 -2 -24z m-1741 17 c-3 -5 -14 -10 -23 -10 -15 0 -15 2 -2 10
20 13 33 13 25 0z m820 -21 c-22 -4 -57 -8 -77 -8 -21 -1 -38 -6 -38 -12 0 -8
-4 -8 -12 -2 -7 5 -28 8 -45 6 -18 -1 -33 2 -33 7 0 8 70 14 205 17 l40 1 -40
-9z m-332 -16 c-18 -2 -48 -2 -65 0 -18 2 -4 4 32 4 36 0 50 -2 33 -4z m250
-30 c-13 -2 -33 -2 -45 0 -13 2 -3 4 22 4 25 0 35 -2 23 -4z m-650 -20 c-7 -2
-21 -2 -30 0 -10 3 -4 5 12 5 17 0 24 -2 18 -5z"/>
<path d="M1510 5099 c0 -5 5 -7 10 -4 6 3 10 8 10 11 0 2 -4 4 -10 4 -5 0 -10
-5 -10 -11z"/>
<path d="M1140 5034 c0 -8 5 -12 10 -9 6 3 10 10 10 16 0 5 -4 9 -10 9 -5 0
-10 -7 -10 -16z"/>
<path d="M630 5030 c0 -6 5 -8 10 -5 6 3 10 -1 10 -9 0 -9 5 -16 11 -16 6 0 9
8 7 17 -4 20 -38 31 -38 13z"/>
<path d="M1160 4943 c0 -13 5 -23 10 -23 13 0 13 11 0 30 -8 12 -10 11 -10 -7z"/>
<path d="M1156 4853 c9 -48 12 -51 20 -19 7 30 0 56 -16 56 -7 0 -9 -13 -4
-37z"/>
<path d="M1016 4620 c2 -46 7 -86 9 -89 9 -8 3 123 -6 149 -5 16 -6 -6 -3 -60z"/>
<path d="M810 4606 c0 -8 5 -18 10 -21 6 -3 10 3 10 14 0 12 -4 21 -10 21 -5
0 -10 -6 -10 -14z"/>
<path d="M710 4529 c0 -5 5 -7 10 -4 6 3 10 8 10 11 0 2 -4 4 -10 4 -5 0 -10
-5 -10 -11z"/>
<path d="M822 4490 c0 -19 2 -27 5 -17 2 9 2 25 0 35 -3 9 -5 1 -5 -18z"/>
<path d="M1070 4481 c0 -6 5 -13 10 -16 6 -3 10 1 10 9 0 9 -4 16 -10 16 -5 0
-10 -4 -10 -9z"/>
<path d="M712 4400 c0 -14 2 -19 5 -12 2 6 2 18 0 25 -3 6 -5 1 -5 -13z"/>
<path d="M1536 4394 c-4 -15 -2 -32 3 -37 8 -8 11 0 11 26 0 44 -5 47 -14 11z"/>
<path d="M1030 4400 c0 -5 5 -10 10 -10 6 0 10 5 10 10 0 6 -4 10 -10 10 -5 0
-10 -4 -10 -10z"/>
<path d="M1630 4374 c0 -14 4 -23 10 -19 6 3 10 15 10 26 0 10 -4 19 -10 19
-5 0 -10 -12 -10 -26z"/>
<path d="M712 4350 c0 -14 2 -19 5 -12 2 6 2 18 0 25 -3 6 -5 1 -5 -13z"/>
<path d="M706 4311 c-4 -7 -5 -15 -2 -18 9 -9 19 4 14 18 -4 11 -6 11 -12 0z"/>
<path d="M435 5001 c-3 -5 -1 -12 5 -16 5 -3 10 1 10 9 0 18 -6 21 -15 7z"/>
<path d="M2040 4765 c0 -8 5 -15 10 -15 6 0 10 7 10 15 0 8 -4 15 -10 15 -5 0
-10 -7 -10 -15z"/>
<path d="M1990 4520 c0 -5 5 -10 11 -10 5 0 7 5 4 10 -3 6 -8 10 -11 10 -2 0
-4 -4 -4 -10z"/>
<path d="M1891 4344 c0 -11 3 -14 6 -6 3 7 2 16 -1 19 -3 4 -6 -2 -5 -13z"/>
<path d="M2001 4344 c0 -11 3 -14 6 -6 3 7 2 16 -1 19 -3 4 -6 -2 -5 -13z"/>
<path d="M2008 4313 c-2 -5 -1 -24 3 -43 l6 -35 2 43 c1 39 -3 52 -11 35z"/>
<path d="M1894 4160 c3 -80 6 -167 6 -195 0 -36 3 -46 10 -35 6 8 8 47 5 85
-2 39 -7 117 -11 175 -3 58 -8 107 -11 110 -3 3 -3 -60 1 -140z"/>
<path d="M2060 4193 c0 -31 4 -43 14 -43 8 0 17 -8 19 -17 3 -10 5 0 6 22 0
29 -2 36 -9 25 -8 -12 -10 -12 -10 5 0 11 -5 27 -10 35 -7 11 -10 4 -10 -27z"/>
<path d="M2038 4163 c0 -16 -1 -36 0 -45 1 -11 -3 -15 -13 -12 -8 4 -15 2 -15
-4 0 -5 6 -12 14 -15 10 -4 11 -18 4 -67 -7 -42 -6 -65 1 -74 6 -8 9 -21 5
-30 -3 -9 -1 -16 5 -16 14 0 15 47 1 55 -6 4 -7 13 -1 24 10 17 15 211 6 211
-3 0 -6 -12 -7 -27z"/>
<path d="M2070 4112 c0 -17 4 -34 10 -37 6 -4 7 6 3 27 -8 44 -13 48 -13 10z"/>
<path d="M2070 3933 c0 -5 5 -15 10 -23 8 -12 10 -11 10 8 0 12 -4 22 -10 22
-5 0 -10 -3 -10 -7z"/>
<path d="M1907 3882 c-2 -11 -1 -37 3 -58 7 -37 8 -36 9 19 1 58 -3 72 -12 39z"/>
<path d="M2028 3853 c-4 -35 1 -63 12 -63 5 0 8 20 7 45 -2 50 -13 60 -19 18z"/>
<path d="M1961 3804 c0 -11 3 -14 6 -6 3 7 2 16 -1 19 -3 4 -6 -2 -5 -13z"/>
<path d="M2030 3730 c0 -5 5 -10 11 -10 5 0 7 5 4 10 -3 6 -8 10 -11 10 -2 0
-4 -4 -4 -10z"/>
<path d="M1959 3698 c0 -18 -1 -50 -3 -70 -2 -21 1 -38 6 -38 4 0 8 32 8 70 0
68 -9 102 -11 38z"/>
<path d="M2092 3670 c0 -14 2 -19 5 -12 2 6 2 18 0 25 -3 6 -5 1 -5 -13z"/>
<path d="M1997 3626 c-5 -15 -6 -31 -3 -34 8 -8 18 25 14 45 -3 13 -6 10 -11
-11z"/>
<path d="M2091 3584 c0 -11 3 -14 6 -6 3 7 2 16 -1 19 -3 4 -6 -2 -5 -13z"/>
<path d="M2090 3276 c0 -8 5 -18 10 -21 6 -3 10 3 10 14 0 12 -4 21 -10 21 -5
0 -10 -6 -10 -14z"/>
<path d="M2091 3094 c0 -11 3 -14 6 -6 3 7 2 16 -1 19 -3 4 -6 -2 -5 -13z"/>
<path d="M2080 2875 c0 -28 4 -44 10 -40 6 3 10 21 10 40 0 19 -4 37 -10 40
-6 4 -10 -12 -10 -40z"/>
<path d="M1955 2890 c-3 -5 -1 -10 4 -10 6 0 11 5 11 10 0 6 -2 10 -4 10 -3 0
-8 -4 -11 -10z"/>
<path d="M1940 2480 c0 -5 5 -10 11 -10 5 0 7 5 4 10 -3 6 -8 10 -11 10 -2 0
-4 -4 -4 -10z"/>
<path d="M1910 2030 c0 -5 5 -10 10 -10 6 0 10 5 10 10 0 6 -4 10 -10 10 -5 0
-10 -4 -10 -10z"/>
<path d="M1992 1270 c0 -19 2 -27 5 -17 2 9 2 25 0 35 -3 9 -5 1 -5 -18z"/>
<path d="M1982 1205 c0 -16 2 -22 5 -12 2 9 2 23 0 30 -3 6 -5 -1 -5 -18z"/>
<path d="M2102 1155 c0 -16 2 -22 5 -12 2 9 2 23 0 30 -3 6 -5 -1 -5 -18z"/>
<path d="M2083 1108 c-6 -7 -17 -26 -25 -43 -8 -16 -34 -63 -58 -103 -23 -40
-40 -75 -37 -78 4 -4 39 52 85 136 7 13 22 39 34 58 20 32 21 55 1 30z"/>
<path d="M1480 1069 c0 -11 4 -18 10 -14 5 3 7 12 3 20 -7 21 -13 19 -13 -6z"/>
<path d="M1050 1031 c-14 -27 -13 -30 8 -27 9 2 18 13 20 24 4 27 -14 29 -28
3z"/>
<path d="M1387 1043 c-10 -19 -17 -64 -9 -59 6 3 12 19 14 36 5 30 3 37 -5 23z"/>
<path d="M1466 1032 c-8 -13 11 -35 23 -28 16 10 14 36 -3 36 -8 0 -17 -4 -20
-8z"/>
<path d="M1635 1030 c-3 -5 -1 -10 4 -10 6 0 11 5 11 10 0 6 -2 10 -4 10 -3 0
-8 -4 -11 -10z"/>
<path d="M1489 950 c-6 -45 -4 -58 7 -48 3 3 4 26 2 49 l-3 44 -6 -45z"/>
<path d="M1080 920 c0 -5 5 -10 10 -10 6 0 10 5 10 10 0 6 -4 10 -10 10 -5 0
-10 -4 -10 -10z"/>
<path d="M1545 920 c-3 -5 -1 -10 4 -10 6 0 11 5 11 10 0 6 -2 10 -4 10 -3 0
-8 -4 -11 -10z"/>
<path d="M1690 886 c0 -9 7 -16 16 -16 17 0 14 22 -4 28 -7 2 -12 -3 -12 -12z"/>
<path d="M1497 848 c9 -99 15 -129 28 -134 11 -5 11 -11 2 -31 -8 -19 -8 -26
2 -33 9 -5 10 -9 2 -11 -8 -3 -10 -22 -5 -62 4 -32 10 -53 14 -47 4 6 4 31 0
55 -4 24 -3 42 2 39 4 -3 8 21 9 53 0 32 4 91 8 131 7 73 -3 109 -15 55 -21
-92 -20 -92 -28 -30 -9 66 -25 79 -19 15z m43 -99 c0 -11 -4 -18 -10 -14 -5 3
-7 12 -3 20 7 21 13 19 13 -6z"/>
<path d="M1590 850 c0 -52 15 -52 17 0 0 22 -3 40 -8 40 -5 0 -9 -18 -9 -40z"/>
<path d="M1355 847 c-4 -10 -5 -21 -1 -24 10 -10 18 4 13 24 -4 17 -4 17 -12
0z"/>
<path d="M1685 840 c3 -5 8 -10 11 -10 2 0 4 5 4 10 0 6 -5 10 -11 10 -5 0 -7
-4 -4 -10z"/>
<path d="M1384 700 c4 -101 3 -140 -5 -140 -7 0 -9 -11 -5 -32 4 -18 7 -60 6
-92 0 -72 6 -96 27 -96 10 0 14 6 10 19 -3 12 1 22 9 25 8 3 14 -1 14 -9 0 -8
5 -15 10 -15 6 0 10 36 10 88 -1 88 -12 97 -24 18 -9 -57 -16 -57 -17 0 -1 42
-2 45 -9 19 -5 -22 -7 -13 -6 33 0 34 3 62 7 62 4 0 6 -11 4 -25 -1 -14 2 -25
6 -25 14 0 10 39 -6 64 -9 13 -15 36 -13 52 5 78 -3 194 -14 194 -8 0 -9 -37
-4 -140z"/>
<path d="M1836 673 c-6 -14 -5 -15 5 -6 7 7 10 15 7 18 -3 3 -9 -2 -12 -12z"/>
<path d="M1886 668 c-32 -49 -146 -252 -146 -260 0 -19 19 -6 29 20 5 15 17
38 25 52 39 63 103 177 109 193 9 24 0 21 -17 -5z"/>
<path d="M1480 629 c0 -5 5 -7 10 -4 6 3 10 8 10 11 0 2 -4 4 -10 4 -5 0 -10
-5 -10 -11z"/>
<path d="M1802 610 c-18 -29 -15 -38 4 -12 9 13 14 25 12 27 -2 2 -9 -5 -16
-15z"/>
<path d="M1309 465 c-3 -5 -6 -23 -7 -40 -1 -25 0 -27 9 -12 6 10 9 28 7 40
-2 12 -6 18 -9 12z"/>
<path d="M1551 454 c0 -11 3 -14 6 -6 3 7 2 16 -1 19 -3 4 -6 -2 -5 -13z"/>
<path d="M1141 388 c0 -35 4 -70 9 -78 7 -10 10 9 10 63 0 42 -4 77 -9 77 -5
0 -9 -28 -10 -62z"/>
<path d="M1264 394 c2 -10 8 -20 15 -22 8 -3 12 3 9 14 -4 23 -27 31 -24 8z"/>
<path d="M800 368 c0 -36 4 -35 14 5 4 16 2 27 -4 27 -5 0 -10 -14 -10 -32z"/>
<path d="M1703 346 c-15 -26 -45 -74 -65 -107 -41 -65 -50 -89 -17 -49 32 40
120 192 115 197 -3 3 -18 -16 -33 -41z"/>
<path d="M668 345 c-3 -14 -1 -25 3 -25 5 0 9 11 9 25 0 14 -2 25 -4 25 -2 0
-6 -11 -8 -25z"/>
<path d="M1270 346 c0 -21 16 -28 29 -12 9 11 8 15 -5 20 -22 8 -24 8 -24 -8z"/>
<path d="M1491 344 c0 -11 3 -14 6 -6 3 7 2 16 -1 19 -3 4 -6 -2 -5 -13z"/>
<path d="M717 314 c-5 -30 0 -54 13 -54 7 0 2 68 -5 78 -1 2 -5 -9 -8 -24z"/>
<path d="M661 271 c-1 -16 -5 -21 -16 -17 -17 6 -19 -2 -5 -24 14 -23 32 2 27
36 -3 24 -4 25 -6 5z"/>
<path d="M1332 270 c0 -14 2 -19 5 -12 2 6 2 18 0 25 -3 6 -5 1 -5 -13z"/>
<path d="M1010 270 c0 -5 5 -10 11 -10 5 0 7 5 4 10 -3 6 -8 10 -11 10 -2 0
-4 -4 -4 -10z"/>
<path d="M1717 273 c-11 -21 -17 -64 -7 -58 5 3 10 15 10 26 0 11 5 17 10 14
6 -3 10 1 10 9 0 16 -16 22 -23 9z"/>
<path d="M1383 263 c-15 -5 -18 -33 -4 -33 8 0 25 30 19 35 -2 1 -9 0 -15 -2z"/>
<path d="M804 3715 c-10 -8 -14 -14 -9 -15 15 0 40 18 34 24 -3 3 -14 -1 -25
-9z"/>
<path d="M821 3113 c0 -11 3 -13 6 -5 2 6 9 10 14 6 5 -3 9 0 9 5 0 6 -7 11
-15 11 -8 0 -15 -8 -14 -17z"/>
<path d="M870 3089 c0 -9 9 -24 20 -34 26 -23 26 -4 0 26 -15 18 -19 20 -20 8z"/>
<path d="M930 3060 c0 -5 5 -10 10 -10 6 0 10 5 10 10 0 6 -4 10 -10 10 -5 0
-10 -4 -10 -10z"/>
<path d="M996 3045 c45 -77 87 -134 95 -129 8 5 -37 73 -87 129 l-26 30 18
-30z"/>
<path d="M920 3021 c0 -5 7 -12 16 -15 14 -5 15 -4 4 9 -14 17 -20 19 -20 6z"/>
<path d="M960 2975 c7 -9 15 -13 17 -11 7 7 -7 26 -19 26 -6 0 -6 -6 2 -15z"/>
<path d="M990 2977 c0 -9 5 -17 11 -17 6 0 8 -10 5 -22 l-6 -23 12 23 c9 19 8
26 -5 40 -16 15 -17 15 -17 -1z"/>
<path d="M880 2965 c0 -12 78 -133 103 -157 9 -10 17 -23 17 -29 0 -5 14 -24
31 -42 l31 -32 -33 60 c-62 114 -149 230 -149 200z"/>
<path d="M1034 2910 c7 -39 17 -60 27 -54 14 8 10 27 -11 54 l-20 25 4 -25z"/>
<path d="M1090 2828 c0 -15 23 -68 29 -68 4 0 20 -22 34 -49 28 -51 57 -83 57
-62 0 6 -8 24 -17 39 -26 40 -103 145 -103 140z"/>
<path d="M1056 2692 c-3 -6 3 -21 14 -33 11 -13 19 -19 20 -12 0 7 6 11 13 9
6 -1 9 -1 4 1 -4 3 -4 10 -1 15 5 7 2 8 -6 3 -8 -5 -18 -2 -26 9 -6 9 -15 13
-18 8z"/>
<path d="M1110 2591 c5 -11 15 -23 20 -26 14 -9 12 19 -2 33 -19 19 -30 14
-18 -7z"/>
<path d="M1148 2544 c-4 -3 0 -17 9 -30 8 -13 13 -24 9 -24 -3 0 3 -9 14 -20
11 -11 22 -31 26 -45 3 -14 10 -25 16 -25 5 0 6 -4 3 -10 -3 -5 -1 -10 5 -10
6 0 9 -4 6 -9 -3 -5 1 -14 9 -21 8 -7 13 -16 10 -20 -7 -11 22 -46 31 -37 4 4
-16 54 -45 110 -58 113 -83 151 -93 141z"/>
<path d="M1625 1539 c-9 -17 -15 -37 -13 -46 2 -8 11 6 20 31 20 53 16 60 -7
15z"/>
<path d="M2051 582 c-17 -31 -13 -40 5 -14 9 13 14 26 11 29 -3 2 -10 -4 -16
-15z"/>
<path d="M3010 548 c0 -13 -5 -68 -10 -123 -6 -55 -13 -139 -15 -187 -5 -83
-5 -88 15 -88 19 0 20 6 20 210 0 116 -2 210 -5 210 -3 0 -5 -10 -5 -22z"/>
</g>
</svg>
