<?xml version="1.0" standalone="no"?>
<!DOCTYPE svg PUBLIC "-//W3C//DTD SVG 20010904//EN"
 "http://www.w3.org/TR/2001/REC-SVG-20010904/DTD/svg10.dtd">
<svg version="1.0" xmlns="http://www.w3.org/2000/svg"
 width="357.000000pt" height="364.000000pt" viewBox="0 0 357.000000 364.000000"
 preserveAspectRatio="xMidYMid meet">
<metadata>
Created by potrace 1.16, written by Peter Selinger 2001-2019
</metadata>
<g transform="translate(0.000000,364.000000) scale(0.100000,-0.100000)"
fill="#000000" stroke="none">
<path d="M65 3610 c-1 -3 -6 -21 -10 -40 -4 -19 -11 -40 -16 -46 -5 -6 -6 -37
-1 -71 5 -33 5 -134 1 -224 -4 -90 -6 -299 -3 -464 2 -165 1 -361 -4 -435 -7
-108 -6 -137 5 -146 16 -14 18 -108 2 -98 -9 5 -10 -41 -4 -177 5 -101 10
-393 11 -649 2 -256 3 -476 4 -490 1 -23 3 -325 3 -395 0 -16 -4 -84 -8 -150
l-8 -121 29 -19 c47 -32 135 -44 322 -45 98 0 203 -4 234 -8 87 -13 355 -4
413 13 38 11 93 14 227 13 162 -3 178 -5 178 -20 0 -25 26 -23 33 2 6 22 1 22
230 20 70 -1 134 -4 142 -7 9 -3 15 1 15 11 0 13 8 15 45 9 27 -3 45 -2 45 4
0 6 20 6 55 0 43 -8 61 -7 81 4 23 12 28 11 38 -2 10 -14 123 -39 175 -39 23
0 29 25 9 34 -7 3 -4 4 7 3 16 -2 19 -9 17 -35 -2 -24 1 -32 12 -32 9 0 16 7
16 15 0 18 58 30 103 21 43 -8 45 -8 97 3 25 5 64 6 88 1 24 -4 61 -4 82 1 21
5 110 11 196 13 105 2 160 8 162 15 2 6 8 8 14 5 20 -13 98 -15 119 -4 17 9
23 9 29 0 4 -7 13 -9 19 -6 6 4 28 2 47 -4 26 -9 38 -9 43 -1 5 7 17 8 41 1
43 -12 40 -13 40 5 0 8 8 15 19 15 10 0 32 12 49 28 34 29 57 105 47 151 -4
22 -18 511 -15 549 2 29 1 72 -4 142 -3 41 -13 235 -21 430 -9 195 -20 404
-25 465 -5 60 -8 132 -5 160 11 117 13 214 6 217 -5 2 -6 23 -2 48 4 25 5 81
3 125 -2 44 -3 113 -4 153 0 39 -4 72 -10 72 -5 0 -9 32 -8 73 3 150 -22 734
-36 825 -9 57 -32 64 -232 68 -368 8 -702 0 -817 -20 -121 -20 -1019 -34
-1111 -17 -26 5 -103 9 -173 10 -147 2 -241 10 -258 23 -6 5 -102 7 -225 4
-120 -3 -233 -2 -258 4 -48 10 -290 18 -295 10z m555 -71 c36 -6 107 -10 158
-9 86 2 94 0 90 -17 -2 -11 -19 -23 -48 -32 -53 -16 -58 -20 -44 -29 5 -4 20
-23 32 -43 l21 -36 -46 -32 -46 -33 -22 28 -21 27 -27 -29 c-15 -16 -22 -31
-16 -33 5 -1 16 5 23 14 12 17 15 17 44 -5 l32 -24 22 21 c13 11 38 28 56 37
32 17 40 30 22 41 -5 3 -18 19 -30 35 l-21 29 46 20 c31 14 45 26 45 39 0 19
6 20 198 14 108 -2 222 -4 251 -4 30 1 73 -3 94 -9 23 -6 138 -10 271 -10 254
0 352 4 472 20 43 5 95 9 114 7 19 -1 52 2 74 6 25 6 43 5 51 -2 8 -7 14 -7
17 -1 1 5 31 12 66 14 55 5 63 3 61 -11 -3 -33 1 -42 19 -42 37 0 59 -54 27
-66 -14 -6 -13 -8 2 -20 27 -21 30 -17 27 28 -2 33 -10 48 -30 65 l-27 21 39
19 c36 18 65 19 409 19 l370 -1 3 -67 c3 -67 -2 -76 -33 -68 -5 2 -26 4 -45 6
-19 1 -46 5 -60 9 l-25 7 23 -17 c13 -9 42 -19 65 -21 23 -3 50 -5 60 -6 15
-2 17 -18 18 -168 0 -91 2 -207 5 -258 4 -75 2 -92 -8 -86 -9 6 -9 3 1 -10 10
-12 15 -53 17 -151 2 -134 2 -134 -27 -175 -29 -40 -22 -54 13 -23 17 15 18
14 18 -40 0 -42 4 -57 14 -57 16 0 26 -22 26 -53 -1 -19 -3 -18 -15 8 l-13 30
-1 -37 c-1 -32 -2 -375 -1 -439 0 -18 2 -19 15 -9 13 11 15 8 15 -14 0 -14 -4
-26 -10 -26 -5 0 -10 5 -10 10 0 6 -3 10 -7 10 -5 0 -7 -60 -5 -134 2 -89 0
-142 -8 -156 -15 -28 -3 -41 16 -16 14 19 14 19 14 -1 0 -12 -5 -23 -10 -25
-6 -2 -13 -21 -17 -42 -4 -26 -3 -37 5 -33 5 4 8 16 5 27 -3 11 0 20 6 20 6 0
11 -12 11 -27 0 -16 2 -89 4 -163 3 -74 2 -123 -1 -108 -7 45 -22 32 -16 -14
7 -50 11 -57 22 -39 6 9 10 6 14 -10 4 -13 2 -28 -3 -33 -7 -7 -10 -3 -10 10
0 15 -2 16 -9 5 -7 -11 -13 -7 -25 18 -17 33 -36 41 -36 16 0 -9 -9 -15 -24
-15 -14 0 -28 -5 -32 -11 -4 -8 0 -9 15 -4 31 9 81 -4 81 -21 0 -11 -6 -13
-20 -9 -11 3 -20 2 -20 -4 0 -5 -10 -11 -22 -13 -17 -2 -22 -9 -20 -22 3 -17
1 -18 -12 -7 -8 7 -24 10 -34 7 -29 -10 -37 49 -9 61 19 9 19 10 -7 36 -22 22
-25 32 -20 63 3 23 2 34 -5 30 -5 -4 -13 -31 -16 -61 -4 -31 -11 -58 -16 -61
-12 -7 -12 -54 0 -54 5 0 12 8 14 18 3 11 5 8 6 -9 0 -14 -4 -30 -11 -37 -8
-8 -8 -15 1 -25 6 -8 9 -21 5 -30 -7 -19 14 -33 29 -18 9 9 8 14 -2 20 -21 13
-4 30 28 29 22 -1 27 -5 24 -19 -3 -11 0 -19 7 -19 7 0 10 6 7 13 -7 19 8 41
22 33 12 -8 15 -57 4 -54 -5 1 -19 -3 -33 -9 -14 -6 -32 -13 -40 -16 -9 -3 -3
-6 13 -6 15 -1 27 -5 27 -9 0 -11 -51 -36 -67 -33 -8 1 -13 -10 -14 -31 0 -33
0 -33 -11 -8 -11 25 -11 25 -15 3 -6 -30 -19 -29 -27 2 -10 38 -25 30 -33 -17
-3 -24 -8 -37 -11 -29 -4 11 -6 11 -13 0 -6 -10 -9 -8 -9 9 0 15 -5 22 -12 19
-7 -2 -12 -8 -12 -13 1 -5 5 -29 8 -54 l6 -45 -13 35 c-12 31 -15 32 -24 16
-13 -24 -43 -14 -43 14 0 30 -24 52 -39 37 -8 -8 -11 -4 -11 16 0 15 -4 27 -9
27 -5 0 -12 10 -16 23 l-7 22 -7 -25 c-4 -14 -13 -25 -21 -26 -42 -3 -45 -4
-32 -12 17 -11 26 -100 14 -132 l-9 -25 -8 33 c-5 26 -10 32 -26 27 -11 -4
-19 -2 -19 5 0 6 -4 8 -10 5 -6 -3 -7 1 -4 9 3 9 11 16 18 16 6 0 4 5 -4 10
-8 5 -10 10 -4 10 22 0 25 32 4 47 -23 16 -29 90 -8 111 9 9 9 18 0 37 -17 36
-15 44 8 40 11 -2 24 3 30 13 8 14 9 12 10 -11 0 -16 8 -41 18 -55 10 -15 22
-35 25 -44 10 -27 27 -21 27 10 1 26 1 26 13 6 7 -12 18 -19 25 -17 6 3 12 0
12 -6 0 -6 5 -11 11 -11 11 0 9 78 -2 119 -5 18 29 27 44 12 7 -7 7 -14 -2
-24 -15 -19 0 -92 19 -92 8 0 16 10 18 22 5 32 22 29 22 -4 0 -20 3 -24 11
-16 7 7 12 30 12 52 0 23 4 41 8 41 13 0 11 38 -1 45 -6 4 -8 14 -5 24 5 17
-19 61 -28 51 -3 -3 -2 -33 2 -67 4 -34 4 -60 0 -57 -4 2 -9 -1 -11 -8 -3 -7
-10 9 -16 35 -13 49 -25 58 -40 31 -6 -11 -11 -13 -16 -5 -5 8 -17 7 -41 -3
l-34 -15 -3 52 c-2 41 -7 53 -22 55 -16 3 -18 -1 -14 -30 3 -18 8 -41 13 -50
4 -11 3 -18 -4 -18 -6 0 -11 10 -11 23 -1 21 -1 22 -15 3 -14 -19 -15 -19 -15
8 0 15 -4 25 -10 21 -5 -3 -10 -17 -10 -31 0 -28 -26 -62 -32 -42 -2 6 -11 -4
-21 -23 -10 -21 -12 -38 -6 -43 16 -17 10 -33 -13 -31 -21 2 -23 7 -20 44 4
50 -9 70 -42 64 -33 -7 -40 11 -25 63 15 50 28 58 25 16 0 -15 4 -27 9 -27 6
0 9 23 8 55 -2 49 -1 53 11 37 9 -11 12 -32 9 -55 -4 -28 -1 -42 12 -52 16
-13 17 -9 13 51 -2 54 -1 64 13 61 10 -1 22 12 33 37 17 37 24 40 69 32 4 0 7
-13 7 -28 0 -33 18 -69 21 -43 9 70 4 99 -15 104 -11 3 -24 0 -28 -7 -4 -6
-11 -8 -15 -3 -4 4 0 14 11 21 18 14 36 42 49 80 7 20 7 20 -8 1 -16 -21 -19
-18 -9 8 3 9 12 16 20 16 8 0 14 7 14 15 0 8 9 19 20 25 14 8 20 8 20 0 0 -6
4 -9 9 -6 5 3 7 14 4 24 -2 10 2 24 11 31 8 7 12 20 9 29 -6 14 -4 15 8 5 13
-10 17 -7 27 20 6 18 14 50 17 72 6 39 6 39 -9 15 l-15 -25 3 28 c1 15 6 30 9
34 4 3 7 23 7 44 0 23 5 39 15 43 8 3 15 12 15 21 0 9 6 28 14 43 7 15 17 38
21 50 6 21 5 23 -13 13 -12 -6 -24 -20 -27 -32 -4 -11 -9 -18 -12 -15 -3 2 1
18 9 33 12 23 13 45 5 107 -9 72 -13 80 -53 124 -25 27 -44 57 -44 70 0 28
-24 38 -57 23 -21 -10 -28 -9 -39 6 -10 13 -16 15 -22 6 -11 -17 -92 25 -85
43 6 17 -11 18 -40 3 -14 -8 -22 -8 -24 -2 -3 7 -17 7 -44 0 -29 -7 -43 -7
-52 2 -6 6 -23 11 -39 11 -17 0 -31 7 -38 20 -13 24 -30 26 -30 4 0 -25 -25
-10 -28 17 -2 13 -11 32 -20 42 -16 18 -16 20 1 31 9 7 20 26 23 42 7 38 -29
124 -56 131 -22 6 -22 6 -14 27 4 9 18 16 34 16 31 0 59 26 65 61 3 13 13 31
22 39 21 18 20 90 -1 90 -8 0 -20 10 -29 23 l-15 22 -13 -27 c-13 -30 -29 -37
-29 -14 0 8 -16 16 -42 20 -23 4 -48 12 -55 18 -14 11 -18 40 -5 36 4 -2 19
10 34 25 25 25 26 29 13 54 -8 16 -15 37 -16 48 l0 20 -8 -20 c-7 -17 -11 -14
-31 28 -12 26 -28 47 -35 47 -7 0 -24 -18 -39 -40 -23 -36 -31 -40 -67 -40
-24 0 -38 -4 -34 -10 3 -5 -1 -10 -9 -10 -9 0 -18 0 -21 0 -3 0 -4 3 -2 8 1 4
5 6 10 4 4 -1 7 2 7 8 0 5 -11 10 -25 10 -35 0 -125 65 -125 90 0 6 -12 4 -29
-4 -28 -15 -71 -18 -71 -5 0 4 4 19 9 32 8 21 6 26 -15 36 -13 6 -25 16 -25
23 -1 7 -2 19 -3 27 -2 27 -32 36 -81 23 -54 -14 -95 -15 -115 -2 -13 9 -13
11 0 21 11 8 8 9 -15 3 -16 -4 -39 -6 -50 -6 -20 1 -37 -16 -29 -30 3 -4 14
-8 25 -8 10 0 19 -6 19 -12 0 -26 -46 -103 -60 -103 -15 1 -100 -82 -100 -97
0 -17 16 -7 66 43 43 42 59 52 93 54 22 2 53 13 67 24 29 23 44 20 44 -10 0
-10 3 -19 8 -19 4 0 7 24 6 54 -1 48 1 55 21 58 50 10 77 -16 89 -84 6 -31 4
-38 -9 -38 -28 0 -17 -30 13 -31 15 0 36 -4 47 -8 18 -8 17 -10 -12 -27 -18
-11 -33 -22 -33 -26 0 -14 33 -8 52 9 17 15 18 15 18 -5 0 -11 5 -24 10 -27 6
-3 10 -18 10 -33 0 -24 2 -25 15 -11 9 9 17 25 18 37 0 11 4 19 8 16 4 -2 12
3 19 11 7 8 18 15 24 15 6 -1 1 -9 -11 -19 -15 -13 -20 -25 -16 -41 6 -22 6
-22 29 7 21 27 24 27 40 11 17 -17 17 -19 -4 -41 -12 -13 -22 -31 -22 -40 0
-15 7 -14 50 9 38 20 54 23 64 15 7 -6 15 -8 19 -5 3 3 23 12 44 19 32 11 40
20 54 61 20 58 30 63 47 26 16 -38 -3 -137 -26 -129 -8 2 -12 -7 -12 -28 0
-10 10 -15 30 -15 29 0 34 -7 31 -42 -3 -22 17 -24 25 -3 7 18 24 20 24 2 0
-7 6 -22 14 -33 14 -18 15 -18 29 0 19 25 50 17 62 -18 9 -26 6 -31 -30 -62
-22 -18 -54 -47 -71 -64 -16 -16 -35 -30 -41 -30 -7 0 -15 -5 -19 -12 -5 -8
-2 -9 9 -5 10 4 16 2 14 -6 -1 -7 5 -11 13 -10 17 3 47 -46 56 -93 5 -25 1
-33 -20 -47 -27 -18 -35 -46 -13 -48 6 -1 19 -2 27 -3 8 0 15 -9 14 -18 -3
-67 -2 -66 -40 -65 -30 1 -34 4 -30 20 2 11 0 30 -5 44 l-9 24 -25 -28 c-19
-22 -24 -24 -25 -10 -1 45 -46 -13 -59 -77 -4 -16 -13 -32 -20 -34 -8 -3 -11
0 -7 7 11 17 -5 13 -41 -9 -29 -17 -31 -17 -26 -2 3 9 10 22 15 29 6 7 8 18 5
25 -3 8 -9 1 -16 -15 -12 -31 -39 -46 -50 -28 -6 9 -11 8 -21 -4 -10 -12 -10
-15 4 -15 18 0 22 -25 6 -35 -6 -3 -10 -12 -9 -18 0 -7 7 -2 16 10 19 27 33
30 33 6 1 -17 1 -17 14 0 7 9 18 17 25 17 15 0 13 -31 -3 -52 -15 -20 -62 -26
-50 -7 4 7 -17 -7 -46 -30 -29 -23 -55 -39 -58 -36 -3 3 1 11 10 18 14 11 13
14 -3 30 -11 9 -19 13 -19 7 0 -5 -9 -10 -20 -10 -11 0 -20 2 -20 5 0 17 33
81 55 107 14 16 25 34 25 39 0 20 -16 7 -40 -31 -14 -22 -27 -40 -31 -40 -3 0
-11 -11 -17 -25 -12 -25 -32 -34 -32 -14 0 6 -19 31 -42 55 -42 44 -69 53 -98
34 -12 -8 -13 -11 -1 -19 9 -6 10 -11 2 -15 -6 -4 -11 -21 -11 -38 0 -16 -7
-42 -16 -58 l-17 -27 -55 14 c-30 8 -61 12 -68 9 -25 -10 -15 6 26 41 22 19
40 42 40 51 -1 13 -6 11 -23 -9 -12 -15 -34 -34 -49 -43 -34 -22 -42 -3 -16
40 11 18 15 35 10 38 -5 3 -16 -11 -26 -31 l-17 -36 -23 22 c-12 11 -33 21
-46 21 -23 0 -23 1 10 35 38 37 53 44 43 19 -4 -11 0 -14 18 -12 32 5 49 16
49 33 0 11 -6 12 -26 5 -35 -14 -39 -13 -23 8 13 16 13 16 -6 2 -11 -8 -41
-32 -67 -53 -40 -32 -49 -36 -54 -23 -8 20 22 56 47 56 10 0 21 5 25 12 5 7 0
9 -14 6 -19 -5 -20 -3 -12 13 18 34 -16 11 -44 -29 -39 -58 -85 -108 -86 -95
0 17 64 102 97 130 17 14 27 34 30 57 5 53 -9 44 -40 -24 -29 -63 -63 -93 -78
-69 -6 10 -10 10 -23 0 -13 -11 -16 -11 -16 1 0 15 -33 18 -46 5 -13 -13 -26
-7 -20 8 3 8 1 15 -4 15 -6 0 -10 7 -10 15 0 25 -17 17 -39 -18 -23 -35 -27
-32 -9 8 6 14 15 25 20 25 4 0 8 5 8 10 0 22 -27 8 -43 -22 -25 -48 -40 -71
-57 -85 -17 -14 -45 -13 -45 2 -1 6 -6 20 -13 31 -11 21 -7 34 10 34 4 0 8 -8
8 -18 0 -19 18 -42 32 -42 5 0 8 6 6 13 -1 6 6 26 15 44 9 18 19 47 21 65 4
39 19 46 35 16 8 -16 10 -17 5 -3 -4 11 -7 27 -8 35 0 9 -9 25 -19 35 -15 17
-17 17 -12 2 12 -29 -28 -20 -76 17 -25 19 -45 43 -46 54 -2 22 40 65 114 117
42 29 53 45 33 45 -11 0 -44 -25 -68 -51 -14 -17 -57 -14 -46 2 3 5 -1 9 -8 9
-7 0 -24 -20 -38 -45 -14 -25 -28 -45 -32 -45 -13 0 -10 9 13 39 31 42 20 61
-14 26 -19 -21 -25 -36 -21 -52 4 -13 2 -23 -5 -23 -6 0 -8 7 -4 17 4 11 3 14
-5 9 -17 -10 -15 -1 8 36 11 18 20 39 20 46 0 26 -17 10 -41 -38 -13 -27 -27
-50 -31 -50 -12 0 -9 10 10 38 12 18 18 44 18 77 -1 46 -3 50 -26 53 -14 1
-41 5 -60 8 -34 6 -34 6 -14 22 12 10 24 25 27 35 4 9 11 17 18 17 6 0 8 -7 5
-17 -4 -10 6 -3 23 15 33 35 32 35 55 26 13 -5 13 -9 -6 -23 -20 -17 -19 -17
38 -17 l59 1 -2 72 c-2 70 -1 73 28 94 29 21 31 21 117 5 114 -21 109 -22 133
19 12 19 28 35 36 35 13 0 13 -3 3 -15 -24 -28 -1 -15 59 35 34 28 61 56 61
62 0 6 -20 -6 -45 -27 -25 -20 -59 -38 -77 -40 -24 -4 -29 -2 -20 7 7 7 12 20
12 30 0 19 25 25 35 8 10 -17 21 -11 34 16 12 28 7 44 -14 44 -28 0 -22 15 6
17 16 1 29 -2 29 -7 0 -17 20 -11 27 8 3 9 18 27 32 39 24 20 24 22 6 22 -31
0 -116 -24 -123 -35 -4 -6 -15 -13 -25 -17 -13 -5 -16 -13 -12 -27 5 -15 0
-23 -20 -32 -33 -15 -59 -60 -43 -76 5 -5 7 -15 4 -21 -11 -16 -98 -13 -124 4
-29 21 -114 11 -130 -16 -9 -15 -9 -19 0 -19 9 0 9 -3 0 -12 -6 -6 -32 -11
-57 -11 -25 0 -45 -4 -45 -8 0 -5 19 -19 43 -31 30 -16 37 -23 25 -26 -21 -4
-23 -13 -5 -31 6 -8 -9 -2 -34 13 -46 26 -89 34 -89 16 0 -5 -6 -10 -14 -10
-23 0 -72 -47 -101 -96 -21 -35 -30 -44 -46 -39 -11 4 -19 2 -19 -4 0 -7 18
-11 43 -10 39 0 121 -18 86 -20 -8 -1 -24 -7 -34 -15 -19 -13 -19 -15 -3 -33
15 -16 16 -24 6 -50 -14 -38 3 -89 27 -79 8 3 17 1 20 -4 4 -6 0 -10 -7 -10
-8 0 -6 -4 4 -11 12 -7 24 -6 37 1 25 13 31 13 31 0 0 -6 16 -25 36 -42 28
-25 34 -36 29 -56 -5 -19 -3 -23 10 -19 8 4 27 2 42 -4 l27 -10 -25 -13 c-14
-7 -39 -16 -56 -19 -26 -5 -31 -3 -26 8 3 8 1 15 -5 15 -22 0 -42 -13 -42 -26
0 -16 -52 -12 -58 5 -2 5 -13 6 -24 3 -28 -7 -175 -90 -183 -102 -4 -6 -13
-10 -22 -10 -20 0 -70 -53 -54 -58 6 -2 11 -10 11 -18 0 -7 -6 -11 -14 -8 -9
4 -20 -6 -31 -25 -13 -27 -33 -38 -50 -28 -8 4 -34 -38 -35 -55 0 -10 -13 -30
-30 -44 -16 -15 -27 -31 -24 -36 3 -5 7 -40 8 -78 2 -57 0 -66 -10 -52 -21 29
-31 -14 -10 -48 9 -16 16 -36 16 -45 0 -10 8 -24 18 -31 14 -12 15 -15 3 -23
-12 -8 -12 -13 2 -35 9 -14 14 -31 11 -39 -3 -8 2 -20 11 -27 8 -7 15 -19 15
-26 0 -8 7 -14 15 -14 8 0 15 -7 15 -15 0 -13 -4 -14 -20 -5 -18 10 -20 8 -20
-30 0 -41 26 -80 54 -80 18 0 35 -53 33 -100 -1 -19 0 -59 1 -88 3 -66 22 -61
22 6 1 39 3 44 13 32 7 -8 18 -15 25 -16 46 -4 45 -3 38 -44 -4 -25 -2 -40 4
-40 5 0 11 10 12 23 2 39 3 42 13 42 6 0 10 -9 10 -20 0 -21 25 -65 37 -65 3
0 9 14 13 30 4 16 11 30 16 30 6 0 7 5 3 12 -4 7 -3 8 5 4 6 -4 8 -12 5 -18
-5 -7 -1 -9 9 -5 23 9 31 -10 10 -21 -16 -9 -16 -11 0 -27 9 -9 17 -21 17 -26
0 -6 5 -7 10 -4 6 3 14 -4 19 -17 12 -30 71 -85 96 -90 10 -2 22 -14 26 -28 7
-24 7 -24 8 -2 1 15 7 22 22 22 29 0 59 -18 59 -35 0 -21 -31 -55 -50 -55 -12
0 -16 -10 -15 -40 0 -27 4 -40 14 -40 9 0 11 -7 7 -22 -3 -13 -6 -29 -6 -36 0
-7 -5 -10 -11 -7 -7 5 -9 -5 -7 -26 5 -54 31 -44 41 16 5 28 14 73 21 102 7
29 9 54 4 55 -10 4 13 58 25 58 4 0 10 -6 13 -14 4 -11 12 -12 35 -4 22 8 33
7 45 -3 9 -7 30 -13 47 -14 24 0 34 -7 49 -37 11 -21 24 -38 30 -38 28 0 50
-52 27 -65 -6 -4 -14 -17 -19 -29 -8 -20 -9 -20 -10 4 0 14 -5 32 -10 40 -7
11 -10 5 -10 -23 0 -22 -7 -45 -16 -54 -11 -11 -14 -26 -9 -50 5 -28 3 -33
-14 -33 -11 0 -23 5 -26 10 -3 6 -17 7 -31 4 -16 -4 -24 -2 -24 7 0 9 -3 10
-10 3 -6 -6 -13 -42 -16 -80 -3 -38 -7 -75 -9 -82 -3 -7 0 -22 6 -34 9 -17 8
-19 -13 -16 -21 3 -23 8 -26 73 -1 43 1 65 7 56 13 -20 23 3 13 31 -11 27 -4
98 9 98 5 0 9 12 9 27 0 25 -1 25 -18 10 -10 -10 -23 -17 -29 -17 -20 0 -29
-53 -27 -160 0 -58 -1 -109 -3 -113 -3 -5 -11 0 -19 10 -12 17 -13 17 -14 1 0
-20 -30 -25 -30 -5 0 7 8 28 18 47 21 40 19 78 -3 60 -16 -13 -28 12 -20 44 2
12 -2 8 -10 -9 -8 -16 -14 -37 -15 -47 0 -11 -6 -15 -20 -11 -14 4 -20 0 -20
-11 0 -9 4 -16 8 -16 4 0 6 -17 4 -37 -4 -34 -6 -35 -18 -18 -16 22 -19 71 -4
80 6 3 10 37 10 76 0 39 4 69 10 69 6 0 10 9 10 20 0 25 -17 26 -23 3 -3 -12
-5 -9 -6 8 0 14 6 34 14 45 8 10 15 27 15 37 0 15 -3 16 -20 7 -21 -11 -24 -6
-21 32 1 10 -3 18 -8 18 -6 0 -10 -3 -9 -7 3 -16 -15 -109 -24 -120 -5 -6 -8
-33 -6 -60 3 -41 6 -48 26 -51 27 -4 28 -18 3 -55 -16 -25 -20 -27 -33 -13 -9
9 -13 25 -11 40 3 13 0 32 -5 42 -9 16 -11 12 -17 -21 -24 -131 -31 -150 -57
-153 -28 -3 -46 23 -22 32 8 3 14 12 14 21 0 10 7 15 18 13 13 -2 18 5 20 30
2 18 -1 32 -7 32 -6 0 -11 -7 -11 -17 0 -9 -3 -13 -7 -9 -4 3 -8 30 -9 59 -3
82 -3 85 -13 67 -4 -8 -14 -42 -21 -75 -14 -66 -35 -121 -50 -130 -6 -3 -10 1
-10 9 0 8 5 18 10 21 6 4 8 10 5 15 -3 5 1 21 10 34 17 26 43 116 52 179 6 46
23 59 23 18 0 -21 5 -31 15 -31 18 0 18 7 4 48 -6 18 -15 30 -19 27 -12 -7
-25 16 -14 24 5 3 10 26 12 51 2 29 0 40 -6 32 -7 -11 -11 -8 -16 10 l-7 23
-9 -23 c-5 -12 -15 -22 -22 -23 -7 0 -3 -4 9 -9 18 -7 21 -15 17 -48 -2 -22
-10 -59 -18 -83 -9 -24 -13 -53 -10 -65 5 -18 1 -21 -21 -21 -16 0 -22 3 -15
7 9 6 9 9 1 15 -7 3 -9 15 -6 26 4 13 2 19 -9 19 -13 0 -16 -14 -16 -80 l0
-80 -27 6 c-55 12 -55 12 -40 34 15 21 12 70 -5 70 -5 0 -6 -4 -3 -10 3 -5 4
-10 1 -10 -2 0 -13 -3 -23 -6 -15 -6 -16 -4 -6 7 7 7 13 21 13 30 0 9 10 20
23 23 20 6 20 7 5 17 -20 11 -25 69 -7 69 6 0 9 7 6 15 -4 8 -2 17 4 21 17 10
-11 35 -29 25 -8 -5 -23 -6 -33 -4 -11 3 -19 0 -19 -6 0 -6 9 -11 20 -11 24 0
25 -8 6 -45 -8 -15 -12 -34 -8 -43 4 -11 1 -14 -12 -9 -10 4 -19 1 -22 -8 -3
-8 -12 -11 -21 -8 -11 5 -14 3 -9 -6 5 -7 14 -10 22 -7 20 8 40 -17 39 -50 0
-25 -5 -30 -35 -35 -19 -4 -33 -7 -30 -9 6 -3 59 -11 83 -13 12 -1 15 -6 11
-17 -14 -33 -16 -50 -6 -50 6 0 14 5 17 10 3 6 21 10 40 10 l34 0 0 -55 c0
-52 -2 -55 -25 -55 -14 0 -32 7 -40 15 -26 25 -41 18 -39 -19 0 -19 -3 -32 -7
-30 -15 10 -8 -16 10 -33 13 -13 17 -26 12 -48 l-6 -30 -8 35 c-8 32 -9 33
-13 10 -6 -30 -21 -50 -37 -49 -7 0 -6 2 2 6 15 6 17 113 2 113 -5 0 -10 7
-10 16 0 14 -3 14 -15 4 -9 -8 -15 -30 -15 -56 0 -32 4 -44 15 -44 8 0 15 -5
15 -11 0 -5 -4 -7 -10 -4 -5 3 -10 -1 -10 -10 0 -33 -25 -8 -28 28 -5 53 -35
44 -44 -13 -5 -30 -13 -14 -23 43 -3 21 -12 37 -19 37 -9 0 -12 -9 -8 -25 2
-15 0 -25 -7 -25 -6 0 -16 -10 -22 -22 -7 -18 -9 -13 -5 25 2 26 -1 47 -5 47
-5 0 -14 11 -19 25 -6 17 -14 23 -25 19 -9 -4 -24 1 -34 10 -11 10 -22 13 -25
8 -3 -6 -14 -8 -24 -5 -12 3 -19 -1 -19 -11 0 -10 14 -17 41 -21 63 -10 80
-27 72 -73 -3 -22 -13 -52 -21 -68 l-15 -29 0 52 c0 55 -7 65 -52 68 -20 2
-28 -2 -28 -14 0 -14 -2 -14 -10 -1 -14 22 -12 247 2 287 9 25 9 36 1 41 -27
18 -44 294 -19 327 10 14 11 25 4 38 -10 19 -12 142 -8 420 2 137 0 161 -15
177 -16 18 -16 22 0 75 16 49 17 80 11 233 -4 123 -10 178 -19 184 -8 6 -9 10
-1 16 11 7 12 30 19 335 2 86 6 161 9 166 3 5 9 48 12 95 6 78 5 86 -10 80
-11 -4 -16 -19 -17 -53 -1 -25 -5 -57 -9 -71 -7 -22 -8 -20 -9 15 0 22 3 57 8
78 5 21 5 37 0 37 -5 0 -9 12 -9 28 l1 27 14 -25 c14 -24 14 -21 17 45 4 145
3 392 -3 445 -4 30 -4 60 -2 67 3 7 31 13 71 15 119 5 385 -3 452 -13z m1056
-295 c-4 -9 -9 -15 -11 -12 -3 3 -3 13 1 22 4 9 9 15 11 12 3 -3 3 -13 -1 -22z
m4 -34 c0 -5 -7 -10 -16 -10 -8 0 -12 5 -9 10 3 6 10 10 16 10 5 0 9 -4 9 -10z
m-1623 -152 c-2 -18 -4 -4 -4 32 0 36 2 50 4 33 2 -18 2 -48 0 -65z m3380 55
c-3 -10 -5 -4 -5 12 0 17 2 24 5 18 2 -7 2 -21 0 -30z m-1406 -30 c-12 -20
-14 -14 -5 12 4 9 9 14 11 11 3 -2 0 -13 -6 -23z m1419 -49 c0 -8 -5 -12 -10
-9 -6 4 -8 11 -5 16 9 14 15 11 15 -7z m-2464 -99 c18 -14 18 -14 -8 -15 -18
0 -28 5 -28 15 0 19 11 19 36 0z m-56 -175 c0 -5 -4 -10 -10 -10 -5 0 -10 5
-10 10 0 6 5 10 10 10 6 0 10 -4 10 -10z m14 -80 c-21 -38 -33 -50 -51 -50
-19 0 -23 5 -23 29 0 16 7 34 15 41 12 10 15 10 15 -4 0 -22 11 -20 39 9 34
37 35 31 5 -25z m2516 -8 c0 -15 -2 -15 -10 -2 -13 20 -13 33 0 25 6 -3 10
-14 10 -23z m-2361 -16 c-27 -28 -36 -27 -19 3 6 12 18 21 26 21 13 0 11 -5
-7 -24z m2355 -91 c3 -8 1 -15 -3 -15 -5 0 -11 7 -15 15 -3 8 -1 15 3 15 5 0
11 -7 15 -15z m-4 -55 c0 -5 -5 -10 -11 -10 -5 0 -7 5 -4 10 3 6 8 10 11 10 2
0 4 -4 4 -10z m-1070 -134 c0 -13 -25 -46 -35 -46 -2 0 2 14 8 30 12 31 27 40
27 16z m-1510 -21 c-14 -16 -40 -20 -40 -6 0 10 17 19 39 20 11 1 11 -2 1 -14z
m393 -21 c-11 -17 -19 -22 -21 -14 -3 7 3 19 14 27 26 19 27 17 7 -13z m2197
-31 c0 -25 -2 -44 -4 -42 -8 10 -13 89 -5 89 5 0 9 -21 9 -47z m-2395 -1 c-2
-9 -4 -20 -4 -24 -1 -4 -14 -6 -30 -6 -25 1 -27 3 -16 14 7 8 18 14 24 14 6 0
10 3 10 8 -3 16 1 23 10 18 5 -4 8 -14 6 -24z m225 13 c0 -8 -7 -15 -15 -15
-9 0 -12 6 -9 15 4 8 10 15 15 15 5 0 9 -7 9 -15z m120 -4 c0 -9 -22 -31 -32
-31 -18 0 -7 36 12 37 11 1 20 -2 20 -6z m1240 -1 c0 -5 -4 -10 -10 -10 -5 0
-10 5 -10 10 0 6 5 10 10 10 6 0 10 -4 10 -10z m-1960 -20 c0 -5 -7 -10 -15
-10 -8 0 -15 -4 -15 -10 0 -5 -7 -10 -16 -10 -24 0 6 27 44 39 1 1 2 -3 2 -9z
m280 0 c-8 -5 -26 -10 -39 -10 -13 0 -21 -3 -18 -7 4 -3 21 -6 39 -5 23 1 28
-2 18 -8 -11 -7 -4 -10 25 -11 22 0 34 -3 27 -6 -6 -2 -10 -9 -6 -14 3 -5 1
-9 -5 -9 -5 0 -12 3 -15 8 -8 13 -97 1 -103 -15 -7 -19 15 -43 25 -27 4 6 41
14 83 18 64 5 78 4 82 -9 4 -8 2 -15 -4 -15 -7 0 -9 -10 -5 -25 5 -21 3 -25
-16 -26 -13 0 -32 -5 -43 -10 -14 -7 -4 -8 35 -4 42 3 64 0 98 -16 42 -21 44
-21 82 -4 33 15 44 16 69 6 22 -10 34 -10 51 -1 11 6 37 12 56 13 28 2 37 9
52 37 9 19 22 35 29 35 6 0 15 3 19 8 4 4 18 7 30 7 17 0 22 -4 18 -15 -4 -8
-13 -15 -21 -15 -20 0 -50 -30 -31 -31 9 0 9 -2 -2 -6 -26 -11 -46 -36 -32
-41 7 -2 10 -8 7 -12 -3 -5 0 -18 7 -29 7 -11 10 -23 7 -26 -18 -18 -283 -64
-296 -51 -9 9 42 25 115 36 37 5 87 15 111 22 36 9 41 13 25 19 -17 7 -17 8
-1 8 9 1 17 5 17 10 0 18 -36 21 -80 6 -25 -8 -31 -12 -15 -9 82 15 81 15 50
3 -16 -7 -32 -15 -35 -18 -3 -3 -14 -6 -25 -7 -11 0 -35 -4 -54 -8 -22 -5 -31
-5 -27 2 3 6 -2 8 -13 5 -10 -3 -22 0 -25 6 -4 6 -31 11 -59 10 -71 -1 -294
-33 -282 -41 6 -3 57 0 115 8 121 16 230 18 230 5 0 -5 -35 -12 -77 -16 -107
-9 -133 -14 -133 -30 0 -17 -46 -25 -103 -19 -38 4 -50 1 -67 -16 -26 -26 -18
-41 8 -17 22 20 103 18 110 -2 3 -10 -3 -12 -22 -9 -34 7 -57 -17 -26 -27 12
-4 27 -2 33 4 20 20 33 11 35 -25 2 -20 7 -45 12 -54 6 -11 5 -21 -2 -28 -9
-9 -5 -12 16 -12 25 0 27 3 22 24 -5 20 -1 25 20 29 18 3 24 1 20 -8 -2 -7 4
-15 16 -18 16 -5 19 -11 14 -34 l-7 -28 58 1 c32 0 91 4 131 9 65 7 72 6 66
-9 -5 -12 0 -16 20 -16 35 0 34 -20 -1 -21 -50 -3 -74 -6 -80 -13 -3 -3 5 -6
18 -6 20 0 21 -2 9 -11 -12 -9 -11 -10 5 -4 49 17 157 36 230 41 172 12 164
12 170 -7 6 -17 8 -16 42 3 38 23 52 26 122 27 33 1 42 4 38 15 -4 11 6 16 36
21 69 11 82 16 66 26 -8 5 -29 9 -47 9 -21 0 -31 4 -27 11 4 6 21 9 39 8 17
-2 37 1 45 5 7 5 53 11 102 14 78 4 89 3 89 -12 0 -14 7 -15 43 -10 23 4 44
11 45 16 2 4 10 15 19 23 8 8 11 15 7 15 -4 0 1 7 12 15 19 14 19 14 -1 15
-12 0 -26 -5 -33 -12 -18 -18 -168 -24 -189 -7 -14 12 -12 15 27 19 24 3 45
10 47 16 6 17 -155 13 -161 -3 -7 -16 -126 -16 -126 1 0 7 17 10 50 8 38 -3
56 1 80 18 25 17 36 20 58 12 17 -6 35 -6 49 1 12 5 34 6 50 2 42 -12 56 -11
80 3 19 12 25 12 38 -2 21 -21 61 -21 69 0 4 9 5 18 4 19 -2 2 -30 6 -63 10
-32 3 -63 9 -68 12 -23 14 -156 44 -189 43 -20 0 -39 4 -43 10 -3 5 -27 10
-51 10 -31 0 -44 4 -42 12 3 8 37 11 107 11 90 0 106 -3 132 -22 34 -25 53
-18 70 26 11 30 35 20 43 -18 7 -37 26 -38 26 0 0 21 9 36 35 55 45 35 47 65
5 62 -26 -2 -29 1 -24 18 4 17 3 18 -5 6 -5 -8 -13 -11 -17 -7 -4 3 -1 14 7
23 15 18 20 18 198 -19 63 -13 117 -29 119 -35 4 -13 -66 -9 -146 9 -28 6 -49
6 -60 -1 -15 -8 -15 -9 3 -10 17 0 17 -2 5 -10 -13 -8 -13 -10 1 -10 9 0 29
-7 45 -14 15 -8 32 -12 37 -9 9 6 4 -46 -10 -91 -4 -15 -2 -18 12 -13 9 4 20
7 25 7 4 0 10 9 13 21 4 15 11 19 24 15 19 -6 52 9 41 19 -3 3 -20 7 -37 7
-34 1 -39 12 -15 35 16 17 78 27 68 12 -3 -5 10 -9 28 -10 130 -2 217 -9 241
-18 29 -11 77 -5 77 9 0 5 -6 10 -12 13 -7 2 -10 8 -6 11 12 14 68 -58 68 -89
0 -8 5 -15 11 -15 5 0 7 -5 4 -10 -3 -6 -17 -7 -31 -4 -14 4 -24 2 -24 -4 0
-6 16 -14 35 -18 19 -3 35 -12 35 -19 0 -20 -65 -85 -84 -85 -9 0 -16 -7 -16
-15 0 -27 -23 -66 -37 -61 -8 3 -33 -6 -56 -21 -29 -18 -53 -26 -79 -24 -21 1
-38 -2 -38 -8 0 -5 -12 -12 -26 -15 -14 -4 -36 -18 -49 -32 -31 -33 -80 -44
-177 -39 -70 4 -78 3 -78 -14 0 -10 -9 -26 -20 -36 -16 -15 -25 -16 -44 -7
-18 8 -38 5 -96 -14 -59 -20 -78 -23 -99 -14 -19 8 -46 7 -96 -1 -39 -7 -95
-11 -125 -10 -103 4 -185 3 -220 -3 -27 -5 -41 -2 -60 14 l-25 20 23 1 c12 1
25 2 30 3 4 1 64 6 135 10 70 4 127 12 127 18 0 5 -18 7 -42 4 -24 -3 -88 -8
-143 -11 -212 -11 -295 -18 -295 -24 0 -4 25 -6 55 -6 55 1 70 -7 38 -19 -26
-10 -174 5 -167 16 4 7 -6 7 -27 3 -54 -12 -89 -8 -108 13 -11 13 -29 20 -54
20 -44 0 -58 9 -37 22 11 7 9 10 -12 10 -15 0 -30 -4 -33 -10 -8 -13 -72 -13
-88 0 -61 50 -78 60 -101 60 -14 0 -26 -6 -27 -12 0 -10 -2 -10 -6 0 -3 9 -18
11 -54 6 -55 -7 -83 7 -74 37 5 15 2 16 -22 10 -34 -9 -74 6 -71 27 2 10 -12
20 -39 29 -70 24 -103 86 -118 220 -2 25 1 34 16 38 13 5 18 12 14 24 -3 10 1
24 10 31 8 7 15 18 15 26 0 20 49 50 112 68 31 9 60 21 63 26 3 6 20 10 36 10
26 0 29 -2 19 -19 -22 -42 27 -73 55 -35 6 9 24 17 39 17 17 0 24 3 18 9 -5 5
-20 5 -36 -2 -39 -15 -46 -13 -46 13 0 18 2 19 10 7 9 -14 13 -10 8 8 -2 4 17
10 42 13 25 3 50 7 55 7 6 1 3 -3 -5 -8z m248 -20 c-13 -20 -38 -35 -38 -23 0
10 32 43 42 43 4 0 3 -9 -4 -20z m1476 4 c28 -11 18 -27 -11 -19 -37 9 -53 25
-26 25 12 0 28 -3 37 -6z m-1234 -10 c0 -12 -38 -53 -44 -47 -9 10 -7 25 3 19
5 -3 11 3 14 14 5 18 27 29 27 14z m445 -4 c3 -5 2 -10 -4 -10 -5 0 -13 5 -16
10 -3 6 -2 10 4 10 5 0 13 -4 16 -10z m1080 0 c3 -5 1 -10 -4 -10 -6 0 -11 5
-11 10 0 6 2 10 4 10 3 0 8 -4 11 -10z m-1751 -25 c-4 -8 -10 -13 -15 -10 -4
3 -6 12 -3 20 4 8 10 13 15 10 4 -3 6 -12 3 -20z m73 -17 c-3 -7 -5 -2 -5 12
0 14 2 19 5 13 2 -7 2 -19 0 -25z m61 -8 c-11 -18 -28 -27 -28 -16 0 16 14 36
26 36 12 0 12 -4 2 -20z m97 10 c3 -5 -1 -10 -10 -10 -9 0 -13 5 -10 10 3 6 8
10 10 10 2 0 7 -4 10 -10z m85 6 c0 -3 -4 -8 -10 -11 -5 -3 -10 -1 -10 4 0 6
5 11 10 11 6 0 10 -2 10 -4z m1410 -19 c0 -8 -19 -12 -55 -12 -48 0 -53 2 -38
13 10 7 30 11 46 8 15 -3 27 -1 27 5 0 6 5 7 10 4 6 -3 10 -12 10 -18z m-1750
3 c0 -5 -2 -10 -4 -10 -3 0 -8 5 -11 10 -3 6 -1 10 4 10 6 0 11 -4 11 -10z
m-30 -14 c0 -9 -8 -12 -25 -8 -28 5 -24 22 6 22 10 0 19 -6 19 -14z m110 -16
c0 -5 -2 -10 -4 -10 -3 0 -8 5 -11 10 -3 6 -1 10 4 10 6 0 11 -4 11 -10z m340
-10 c0 -5 -5 -10 -11 -10 -5 0 -7 5 -4 10 3 6 8 10 11 10 2 0 4 -4 4 -10z
m-484 -15 c13 -13 13 -15 1 -15 -8 0 -20 7 -27 15 -9 11 -10 15 -1 15 7 0 19
-7 27 -15z m94 -5 c0 -5 -2 -10 -4 -10 -2 0 -12 -3 -22 -7 -16 -6 -17 -5 -4
10 17 19 30 22 30 7z m651 -17 c-8 -15 -10 -15 -11 -2 0 17 10 32 18 25 2 -3
-1 -13 -7 -23z m1189 -51 c0 -13 -4 -20 -10 -17 -5 3 -10 21 -10 38 0 24 3 28
10 17 5 -8 10 -25 10 -38z m-1470 18 c-6 -11 -15 -20 -21 -20 -6 0 -6 7 1 20
6 11 15 20 21 20 6 0 6 -7 -1 -20z m177 -36 c-20 -25 -34 -51 -31 -57 2 -7 -4
-17 -15 -24 -18 -11 -18 -11 0 27 21 43 23 54 10 46 -5 -3 -15 2 -22 11 -11
13 -11 15 -1 9 7 -4 19 -2 27 4 8 6 19 9 24 6 6 -4 15 3 21 15 7 11 14 18 17
15 3 -3 -10 -26 -30 -52z m62 -7 c-13 -17 -40 -56 -61 -87 -40 -59 -108 -139
-108 -128 0 11 103 162 127 185 13 12 23 28 23 34 0 7 8 21 17 31 27 30 29 1
2 -35z m-305 -46 c17 -19 17 -20 -3 -31 -17 -8 -21 -8 -21 4 0 8 -3 21 -6 30
-8 22 9 20 30 -3z m356 8 c0 -5 -4 -8 -9 -5 -14 9 -23 -22 -27 -94 -4 -61 -7
-67 -48 -106 l-43 -42 -6 61 c-7 73 7 99 17 33 8 -52 26 -53 26 -1 0 37 43
144 63 157 17 11 27 10 27 -3z m60 7 c0 -2 -7 -6 -15 -10 -8 -3 -15 -1 -15 4
0 6 7 10 15 10 8 0 15 -2 15 -4z m73 -13 c-7 -2 -21 -2 -30 0 -10 3 -4 5 12 5
17 0 24 -2 18 -5z m-893 -22 c0 -15 -79 -31 -87 -17 -3 6 -3 8 1 4 4 -3 22 0
39 7 38 17 47 18 47 6z m-1070 -26 c0 -14 -4 -25 -10 -25 -5 0 -10 11 -10 25
0 14 5 25 10 25 6 0 10 -11 10 -25z m1418 8 c-10 -2 -26 -2 -35 0 -10 3 -2 5
17 5 19 0 27 -2 18 -5z m502 -3 c0 -5 -4 -10 -10 -10 -5 0 -10 5 -10 10 0 6 5
10 10 10 6 0 10 -4 10 -10z m-416 -15 c-7 -17 -7 -17 -31 -8 -16 6 -15 8 7 14
14 4 26 7 27 8 1 1 0 -6 -3 -14z m-471 -37 c-61 -19 -89 -17 -80 6 3 8 1 17
-6 19 -7 3 4 3 24 0 20 -3 45 -1 55 5 12 7 25 6 42 -1 22 -10 20 -12 -35 -29z
m326 38 c-2 -3 -16 -7 -29 -10 -14 -3 -41 -10 -60 -15 -35 -11 -108 -15 -98
-6 7 7 129 33 162 34 16 1 27 -1 25 -3z m-232 -12 c-3 -3 -12 -4 -19 -1 -8 3
-5 6 6 6 11 1 17 -2 13 -5z m327 -19 c-1 -18 -34 -18 -34 0 0 10 7 15 18 13 9
-2 17 -8 16 -13z m147 -25 c5 0 12 7 15 15 4 8 10 15 15 15 5 0 -2 -18 -15
-39 -14 -21 -22 -42 -18 -47 4 -4 1 -4 -5 0 -9 5 -13 1 -13 -11 -1 -17 -1 -17
-11 0 -12 20 -4 37 17 37 8 0 14 5 14 11 0 6 -9 9 -20 6 -23 -6 -24 -4 -7 23
9 17 13 18 15 5 2 -8 8 -15 13 -15z m-193 5 c13 -13 -18 -25 -82 -30 -48 -4
-72 -2 -77 6 -5 9 -18 9 -50 1 -60 -15 -62 -6 -3 11 32 9 51 11 55 4 5 -6 21
-4 45 6 36 15 98 16 112 2z m-293 -17 c-11 -7 -42 -12 -70 -12 -27 -1 -53 -5
-57 -11 -5 -6 -8 -3 -8 6 0 23 2 24 82 26 58 1 69 0 53 -9z m428 -50 c-2 -5
-11 -8 -19 -8 -17 0 -18 22 -2 38 10 10 14 9 19 -5 4 -10 5 -21 2 -25z m-98
23 c14 -6 -1 -11 -55 -19 -70 -10 -91 -9 -78 4 5 4 77 19 108 22 3 0 14 -3 25
-7z m-361 -16 c-5 -11 1 -15 19 -15 14 0 29 5 32 10 3 6 36 9 73 8 l67 -2 -63
-3 c-54 -3 -62 -6 -52 -18 10 -12 8 -15 -11 -15 -13 0 -34 -3 -46 -6 -18 -5
-25 -1 -32 17 -9 25 -6 39 9 39 5 0 7 -7 4 -15z m-670 -30 c6 -5 23 -16 39
-24 15 -8 27 -18 27 -22 0 -14 -54 13 -77 39 -13 14 -20 29 -16 35 4 7 8 6 11
-3 3 -8 10 -19 16 -25z m1056 15 c0 -5 -7 -10 -16 -10 -8 0 -12 5 -9 10 3 6
10 10 16 10 5 0 9 -4 9 -10z m-170 -20 c0 -5 -7 -10 -16 -10 -8 0 -12 5 -9 10
3 6 10 10 16 10 5 0 9 -4 9 -10z m150 -9 c0 -5 -23 -11 -50 -13 -59 -4 -78 1
-59 13 19 12 109 11 109 0z m200 -17 c0 -8 -7 -14 -15 -14 -8 0 -15 -4 -15
-10 0 -5 -5 -10 -11 -10 -13 0 -1 42 14 52 14 9 27 1 27 -18z m-443 0 c4 -13
-28 -24 -74 -24 -40 0 -43 17 -5 26 15 3 32 7 37 9 17 6 38 0 42 -11z m363 -5
c0 -17 -5 -20 -37 -17 -62 5 -52 33 15 37 16 1 22 -5 22 -20z m-225 -19 c-3
-5 -10 -10 -16 -10 -5 0 -9 5 -9 10 0 6 7 10 16 10 8 0 12 -4 9 -10z m109 4
c28 -11 17 -24 -18 -24 -38 0 -57 16 -29 23 28 7 30 7 47 1z m1276 -23 c0 -5
-7 -11 -15 -15 -15 -5 -20 5 -8 17 9 10 23 9 23 -2z m-1797 -61 c10 -12 15
-25 12 -28 -4 -4 -12 0 -18 9 -7 9 -18 14 -26 11 -8 -2 -18 3 -23 12 -5 9 -17
16 -26 17 -10 1 -7 4 8 8 29 9 48 1 73 -29z m-185 24 c12 -4 22 -13 22 -20 0
-17 1 -17 -39 -3 -51 18 -38 37 17 23z m1979 0 c-3 -3 -12 -4 -19 -1 -8 3 -5
6 6 6 11 1 17 -2 13 -5z m223 -15 c0 -11 -4 -17 -10 -14 -6 3 -10 -4 -10 -17
0 -13 -4 -29 -9 -37 -6 -10 -11 -5 -16 18 -5 24 -2 37 11 52 22 25 34 24 34
-2z m-2500 -10 c0 -5 -4 -9 -10 -9 -5 0 -10 7 -10 16 0 8 5 12 10 9 6 -3 10
-10 10 -16z m305 -49 c3 -5 -1 -10 -9 -10 -9 0 -16 5 -16 10 0 6 4 10 9 10 6
0 13 -4 16 -10z m318 3 c-7 -2 -19 -2 -25 0 -7 3 -2 5 12 5 14 0 19 -2 13 -5z
m1644 -15 c-3 -8 -6 -5 -6 6 -1 11 2 17 5 13 3 -3 4 -12 1 -19z m-2133 -4 c3
-8 2 -12 -4 -9 -6 3 -10 10 -10 16 0 14 7 11 14 -7z m981 -4 c3 -5 -1 -10 -10
-10 -9 0 -13 5 -10 10 3 6 8 10 10 10 2 0 7 -4 10 -10z m975 -1 c0 -9 -79 -21
-91 -14 -5 4 -7 11 -4 16 7 10 95 8 95 -2z m-1826 -27 c19 -22 19 -22 -2 -19
-29 4 -36 13 -28 33 4 9 8 15 9 13 1 -2 11 -14 21 -27z m77 -25 c-8 -8 -11 -8
-11 2 0 7 -4 10 -9 7 -4 -3 -6 6 -3 20 l4 25 15 -21 c11 -16 12 -25 4 -33z
m194 43 c8 -13 -5 -13 -25 0 -13 8 -13 10 2 10 9 0 20 -4 23 -10z m1915 -15
c-7 -9 -15 -13 -19 -10 -3 3 1 10 9 15 21 14 24 12 10 -5z m-2417 -15 c3 -11
2 -20 -3 -20 -4 0 -10 9 -13 20 -3 11 -2 20 3 20 4 0 10 -9 13 -20z m1797 16
c0 -2 -3 -11 -6 -20 -5 -12 -10 -13 -26 -5 -17 9 -18 13 -7 20 15 9 39 12 39
5z m298 -15 c3 -8 -1 -12 -9 -9 -7 2 -15 10 -17 17 -3 8 1 12 9 9 7 -2 15 -10
17 -17z m-1461 -6 c-1 -5 8 -14 21 -20 12 -5 21 -14 19 -20 -2 -5 3 -16 10
-24 8 -7 11 -16 8 -19 -3 -3 -21 11 -42 31 -20 21 -42 37 -50 37 -7 0 -13 6
-13 13 0 6 11 12 24 12 13 0 24 -4 23 -10z m-117 -9 c1 11 30 -27 30 -38 0
-15 -33 -8 -46 10 -19 25 -19 48 1 32 8 -7 15 -9 15 -4z m440 -2 c0 -2 -14 -4
-31 -4 -16 0 -28 4 -25 9 5 8 56 3 56 -5z m-750 -43 c0 -13 2 -13 9 -2 6 10
13 10 29 2 15 -8 22 -8 25 2 3 7 8 5 13 -8 4 -11 22 -44 40 -73 18 -31 30 -61
27 -73 -3 -10 0 -19 6 -19 6 0 11 -7 11 -15 0 -30 -20 -14 -45 35 -26 51 -42
67 -30 30 9 -27 -8 -25 -20 3 -6 12 -16 21 -22 20 -6 -1 -18 13 -27 32 -9 19
-21 37 -26 40 -6 3 -10 15 -10 26 0 10 -4 19 -10 19 -5 0 -10 7 -10 17 0 14 2
14 20 -2 11 -10 20 -25 20 -34z m927 43 c-3 -3 -12 -4 -19 -1 -8 3 -5 6 6 6
11 1 17 -2 13 -5z m43 2 c0 -2 -7 -6 -15 -10 -8 -3 -15 -1 -15 4 0 6 7 10 15
10 8 0 15 -2 15 -4z m733 -10 c3 -8 3 -17 0 -20 -9 -9 -34 15 -27 25 8 13 21
11 27 -5z m70 0 c17 -13 23 -36 10 -36 -5 0 -19 12 -32 25 -25 27 -10 35 22
11z m57 4 c0 -5 -4 -10 -9 -10 -6 0 -13 5 -16 10 -3 6 1 10 9 10 9 0 16 -4 16
-10z m-190 -29 c0 -9 5 -22 12 -29 9 -9 9 -15 0 -24 -9 -9 -13 -7 -19 8 -3 10
-16 25 -26 33 -19 14 -19 15 -2 27 21 16 35 10 35 -15z m-600 -24 c0 -13 5
-28 12 -35 7 -7 8 -12 3 -12 -15 1 -47 49 -40 60 11 18 25 11 25 -13z m66 10
c4 -4 -2 -7 -14 -7 -12 0 -22 4 -22 9 0 10 26 9 36 -2z m624 -2 c0 -8 -4 -15
-10 -15 -5 0 -10 7 -10 15 0 8 5 15 10 15 6 0 10 -7 10 -15z m-1550 -30 c6
-19 16 -35 21 -35 21 0 31 -45 16 -74 l-15 -28 -30 59 c-20 40 -28 68 -25 86
7 37 19 34 33 -8z m420 10 c7 -9 11 -17 9 -19 -10 -9 -68 7 -73 20 -8 20 48
19 64 -1z m290 3 c0 -10 2 -10 8 -1 6 9 11 7 20 -7 12 -19 9 -20 -43 -20 -42
0 -55 4 -55 15 0 9 6 12 15 9 8 -4 15 -1 15 5 0 6 9 11 20 11 11 0 20 -6 20
-12z m106 -14 c2 -24 1 -25 -17 -8 -24 21 -24 34 -1 34 11 0 17 -8 18 -26z
m-312 10 c9 -3 16 -10 16 -16 0 -14 -43 -5 -48 10 -4 13 7 15 32 6z m896 -10
c0 -9 -7 -14 -17 -12 -25 5 -28 28 -4 28 12 0 21 -6 21 -16z m-1220 -4 c0 -5
-4 -10 -9 -10 -6 0 -13 5 -16 10 -3 6 1 10 9 10 9 0 16 -4 16 -10z m1093 -14
c7 -19 0 -25 -24 -19 -10 3 -19 12 -19 19 0 18 36 18 43 0z m-1187 -9 c13 5
119 -146 109 -155 -6 -6 -4 -9 -49 58 -20 30 -36 51 -36 46 0 -4 9 -21 21 -38
12 -16 19 -32 16 -35 -3 -2 -20 15 -37 39 -36 49 -69 109 -50 91 7 -6 18 -9
26 -6z m1840 -39 c-19 -26 -20 -20 -5 19 6 15 13 22 16 16 2 -7 -3 -23 -11
-35z m44 27 c-7 -9 -15 -13 -17 -11 -7 7 7 26 19 26 6 0 6 -6 -2 -15z m-1754
-20 c22 -34 8 -47 -16 -15 -22 28 -25 40 -10 40 5 0 17 -11 26 -25z m399 15
c3 -5 -3 -10 -14 -10 -12 0 -21 5 -21 10 0 6 6 10 14 10 8 0 18 -4 21 -10z
m-340 -10 c3 -5 1 -10 -4 -10 -6 0 -11 5 -11 10 0 6 2 10 4 10 3 0 8 -4 11
-10z m36 -12 c7 -13 13 -37 15 -55 l2 -33 -24 35 c-26 39 -30 50 -13 39 8 -4
9 0 4 15 -8 28 1 27 16 -1z m39 2 c6 -11 8 -20 6 -20 -3 0 -10 9 -16 20 -6 11
-8 20 -6 20 3 0 10 -9 16 -20z m1170 -1 c0 -5 -4 -9 -10 -9 -5 0 -10 7 -10 16
0 8 5 12 10 9 6 -3 10 -10 10 -16z m235 11 c3 -5 1 -10 -4 -10 -6 0 -11 5 -11
10 0 6 2 10 4 10 3 0 8 -4 11 -10z m-1556 -45 c20 -35 20 -35 0 -25 -17 9 -39
47 -39 66 0 12 20 -9 39 -41z m1006 35 c3 -5 1 -10 -4 -10 -6 0 -11 5 -11 10
0 6 2 10 4 10 3 0 8 -4 11 -10z m1355 -16 c0 -8 -4 -14 -10 -14 -5 0 -10 9
-10 21 0 11 5 17 10 14 6 -3 10 -13 10 -21z m-1831 -15 c-14 -8 -39 -1 -39 11
0 14 24 18 38 7 10 -8 10 -12 1 -18z m51 16 c7 -9 8 -15 2 -15 -5 0 -12 7 -16
15 -3 8 -4 15 -2 15 2 0 9 -7 16 -15z m261 -7 c11 -21 11 -22 -4 -9 -10 7 -17
17 -17 22 0 15 9 10 21 -13z m433 -4 c6 -10 17 -23 24 -27 16 -11 15 -24 -3
-31 -10 -3 -18 1 -22 12 -3 9 -15 24 -26 33 -11 9 -17 21 -13 28 10 16 27 10
40 -15z m317 -1 c13 -16 12 -17 -3 -4 -17 13 -22 21 -14 21 2 0 10 -8 17 -17z
m-1538 -42 c-9 -12 -25 20 -18 36 7 16 9 15 15 -7 4 -14 5 -27 3 -29z m327 9
c11 -22 17 -40 12 -40 -5 0 -18 18 -31 40 -12 22 -18 40 -12 40 6 0 20 -18 31
-40z m770 -28 c0 -7 -4 -11 -9 -7 -10 5 -41 63 -41 74 0 12 49 -54 50 -67z
m480 53 c7 -9 8 -15 2 -15 -5 0 -12 7 -16 15 -3 8 -4 15 -2 15 2 0 9 -7 16
-15z m-1280 -52 c-1 -11 -40 37 -40 49 0 6 9 -1 20 -15 11 -14 20 -29 20 -34z
m488 13 c18 -24 32 -50 32 -58 0 -7 -16 11 -35 39 -33 49 -40 63 -32 63 2 0
18 -20 35 -44z m-948 -20 c0 -6 -7 -3 -14 6 -7 10 -16 15 -19 11 -4 -3 -7 5
-7 18 l1 24 19 -24 c11 -13 20 -28 20 -35z m191 37 c13 -16 12 -17 -3 -4 -10
7 -18 15 -18 17 0 8 8 3 21 -13z m547 -32 c-14 -5 -39 29 -31 42 3 5 14 -1 24
-14 12 -16 14 -25 7 -28z m177 -4 c20 -27 34 -52 30 -55 -3 -4 -9 -2 -13 4 -4
5 -22 32 -41 58 -43 62 -25 56 24 -7z m-495 22 c16 -30 8 -31 -13 -3 -10 13
-13 24 -8 24 6 0 15 -9 21 -21z m248 -2 c3 -16 1 -17 -17 -7 -25 13 -28 33 -4
28 10 -2 19 -11 21 -21z m-898 -7 c0 -5 -8 -10 -17 -10 -15 0 -16 2 -3 10 19
12 20 12 20 0z m1235 -22 l16 -33 -21 24 c-11 13 -20 27 -20 32 0 18 10 8 25
-23z m-775 -40 c0 7 5 10 11 6 8 -5 8 -9 -1 -14 -7 -4 -9 -13 -5 -20 5 -8 3
-11 -6 -8 -8 2 -24 24 -37 49 l-22 44 30 -35 c16 -19 30 -29 30 -22z m467 25
c4 -10 19 -36 35 -57 15 -22 25 -42 22 -45 -8 -8 -53 49 -60 77 -4 12 -10 22
-15 22 -5 0 -9 5 -9 10 0 17 20 11 27 -7z m91 -28 c34 -48 37 -55 24 -55 -9 0
-72 83 -72 94 0 17 20 1 48 -39z m-114 -67 c10 -16 16 -28 13 -28 -8 0 -87
112 -87 123 0 10 36 -37 74 -95z m-288 -1 c9 -16 13 -31 11 -34 -6 -5 -87 113
-87 125 1 11 59 -59 76 -91z m514 51 c0 -14 -19 1 -31 25 -12 22 -12 22 10 3
11 -11 21 -23 21 -28z m-686 -34 c21 -31 34 -59 30 -62 -4 -4 -9 -1 -11 6 -3
6 -10 12 -17 12 -7 0 -18 10 -24 23 -12 24 -25 77 -19 77 2 0 21 -25 41 -56z
m324 -3 c13 -23 20 -41 15 -41 -9 1 -63 82 -63 95 0 15 26 -15 48 -54z m108
-35 c26 -39 51 -74 57 -77 5 -4 7 -13 5 -22 -3 -14 -138 170 -138 188 0 16 32
-21 76 -89z m44 49 c17 -25 27 -45 22 -45 -5 0 -14 10 -20 23 -7 12 -19 32
-28 45 -9 12 -14 22 -11 22 3 0 20 -20 37 -45z m-593 -39 l26 -29 -29 7 c-16
4 -43 23 -61 42 -29 31 -31 38 -10 35 4 0 7 5 7 12 1 6 10 1 21 -13 11 -14 32
-38 46 -54z m926 31 c-7 -11 -23 12 -23 32 0 11 4 9 14 -4 8 -11 12 -24 9 -28z
m-1083 -10 c0 -4 -7 -2 -15 7 -8 8 -15 21 -15 28 1 14 30 -20 30 -35z m1547
11 c-3 -7 -5 -2 -5 12 0 14 2 19 5 13 2 -7 2 -19 0 -25z m-1233 -13 c3 -8 1
-15 -4 -15 -6 0 -10 7 -10 15 0 8 2 15 4 15 2 0 6 -7 10 -15z m331 5 c3 -5 1
-10 -4 -10 -6 0 -11 5 -11 10 0 6 2 10 4 10 3 0 8 -4 11 -10z m898 -31 c5 -18
3 -18 -11 -7 -24 18 -32 31 -25 41 7 11 30 -10 36 -34z m65 29 c-3 -7 -8 -13
-13 -13 -5 0 -10 6 -12 13 -3 6 3 12 12 12 9 0 15 -6 13 -12z m-1398 -35 c0
-20 -16 -8 -23 17 -4 17 -3 19 9 9 8 -6 14 -18 14 -26z m40 -15 c0 -6 -9 1
-20 15 -11 14 -20 29 -20 34 1 11 40 -37 40 -49z m810 31 c0 -6 -4 -7 -10 -4
-5 3 -10 11 -10 16 0 6 5 7 10 4 6 -3 10 -11 10 -16z m50 0 c0 -6 -4 -7 -10
-4 -5 3 -10 11 -10 16 0 6 5 7 10 4 6 -3 10 -11 10 -16z m373 -12 c17 -22 22
-38 17 -47 -5 -8 -11 -12 -13 -10 -7 10 -47 81 -47 86 0 14 21 0 43 -29z
m-1123 7 c0 -8 -4 -12 -10 -9 -5 3 -10 10 -10 16 0 5 5 9 10 9 6 0 10 -7 10
-16z m-289 -16 c11 -21 11 -22 -4 -9 -10 7 -17 17 -17 22 0 15 9 10 21 -13z
m1359 12 c0 -5 -4 -10 -10 -10 -5 0 -10 5 -10 10 0 6 5 10 10 10 6 0 10 -4 10
-10z m880 0 c0 -5 -2 -10 -4 -10 -3 0 -8 5 -11 10 -3 6 -1 10 4 10 6 0 11 -4
11 -10z m-1400 -15 c0 -8 -2 -15 -4 -15 -2 0 -6 7 -10 15 -3 8 -1 15 4 15 6 0
10 -7 10 -15z m174 0 c3 -8 1 -15 -4 -15 -6 0 -10 7 -10 15 0 8 2 15 4 15 2 0
6 -7 10 -15z m-384 -40 c17 -25 27 -45 23 -45 -7 0 -51 60 -61 83 -10 22 11 1
38 -38z m140 35 c0 -5 -2 -10 -4 -10 -3 0 -8 5 -11 10 -3 6 -1 10 4 10 6 0 11
-4 11 -10z m604 -72 c-10 -15 -19 -8 -41 32 -32 55 -29 59 11 14 19 -21 32
-42 30 -46z m-1414 57 c41 -21 37 -35 -7 -30 -21 1 -44 3 -50 4 -28 2 -11 37
20 40 4 1 21 -6 37 -14z m360 -17 c0 -6 -7 -5 -15 2 -8 7 -15 17 -15 22 0 6 7
5 15 -2 8 -7 15 -17 15 -22z m414 16 c3 -8 2 -12 -4 -9 -6 3 -10 10 -10 16 0
14 7 11 14 -7z m873 -39 c-7 -31 -15 -44 -24 -41 -7 3 -19 -4 -26 -14 -8 -11
-17 -17 -21 -12 -4 4 -6 -6 -4 -23 2 -22 8 -29 20 -27 21 3 27 -31 13 -75 -12
-38 -22 -42 -28 -10 -3 21 -4 21 -15 -7 -8 -18 -9 -39 -4 -60 11 -41 2 -78
-17 -67 -8 5 -12 18 -8 31 3 12 -1 37 -9 56 -8 19 -12 39 -8 45 3 5 0 16 -6
24 -9 11 -10 18 -1 29 8 10 8 27 0 65 -9 44 -8 56 6 77 14 21 23 25 62 22 35
-1 49 2 57 15 19 29 24 19 13 -28z m-1163 17 c2 -4 -5 -9 -17 -9 -17 -2 -19 0
-7 7 18 12 18 12 24 2z m152 -19 c-7 -7 -26 7 -26 19 0 6 6 6 15 -2 9 -7 13
-15 11 -17z m1371 -13 c1 -44 -11 -53 -21 -15 -7 26 -36 25 -36 -2 0 -8 -4
-11 -10 -8 -5 3 -10 15 -10 26 0 11 5 17 10 14 6 -3 10 -2 10 4 0 6 7 8 15 5
8 -4 15 -1 15 5 0 6 6 11 13 11 9 0 13 -14 14 -40z m-263 14 c11 -30 6 -37
-13 -18 -10 10 -17 22 -14 27 7 12 21 8 27 -9z m666 6 c0 -5 -7 -10 -16 -10
-8 0 -12 5 -9 10 3 6 10 10 16 10 5 0 9 -4 9 -10z m-2265 -22 c3 -3 -11 -8
-32 -11 -40 -7 -49 -4 -38 12 6 10 60 10 70 -1z m710 2 c3 -5 1 -10 -4 -10 -6
0 -11 5 -11 10 0 6 2 10 4 10 3 0 8 -4 11 -10z m822 -22 c-3 -7 -5 -2 -5 12 0
14 2 19 5 13 2 -7 2 -19 0 -25z m768 24 c11 -7 35 -57 35 -70 0 -4 -4 -1 -9 7
-13 20 -41 6 -34 -17 2 -11 0 -23 -6 -26 -7 -4 -11 1 -11 12 0 10 -9 29 -20
42 -26 30 -25 39 3 50 28 11 30 11 42 2z m-1475 -48 c0 -12 -2 -12 -14 -2 -8
7 -12 16 -9 21 7 11 23 -2 23 -19z m-269 -26 c17 -32 -6 -19 -26 15 -17 28
-17 30 -1 18 9 -8 22 -23 27 -33z m89 -14 c0 -8 5 -14 10 -14 6 0 10 -8 10
-17 0 -14 -6 -11 -24 12 -13 16 -22 33 -19 38 7 11 23 -2 23 -19z m229 -39 c0
-5 -8 1 -19 14 -11 12 -17 28 -14 33 7 11 33 -28 33 -47z m81 45 c0 -5 -4 -10
-10 -10 -5 0 -10 5 -10 10 0 6 5 10 10 10 6 0 10 -4 10 -10z m95 -30 c-5 -15
-10 -19 -17 -12 -7 7 -6 15 3 25 18 19 23 14 14 -13z m545 18 c0 -4 12 -3 27
3 38 14 50 -6 34 -61 l-7 -25 -8 28 c-6 24 -9 27 -21 17 -17 -14 -21 -95 -5
-105 6 -4 8 -11 4 -16 -3 -5 -9 -7 -14 -4 -5 3 -8 -4 -7 -15 1 -11 5 -20 9
-20 4 0 8 -30 7 -67 l-1 -68 -11 48 c-11 46 -27 55 -27 15 0 -20 -30 -26 -31
-5 0 6 -3 40 -5 75 -3 41 -1 69 7 78 8 9 10 34 6 68 -3 30 -4 56 -2 58 7 7 45
4 45 -4z m626 -10 c-3 -13 -6 -30 -7 -38 -1 -8 -5 -1 -8 15 -8 33 -5 45 11 45
6 0 8 -10 4 -22z m-2336 -33 c0 -8 -2 -15 -4 -15 -2 0 -6 7 -10 15 -3 8 -1 15
4 15 6 0 10 -7 10 -15z m1415 -15 c-10 -11 -15 -28 -12 -39 2 -10 1 -25 -4
-32 -8 -12 -11 -11 -19 1 -5 8 -7 23 -4 33 3 9 1 17 -5 17 -6 0 -11 10 -11 21
0 18 5 21 30 17 17 -3 30 0 30 5 0 6 3 7 7 4 3 -4 -2 -16 -12 -27z m-205 2 c0
-10 4 -22 9 -27 10 -10 15 -46 12 -80 -2 -18 -3 -18 -16 5 l-14 25 -1 -35 c-1
-19 -4 -29 -7 -22 -9 23 -24 12 -21 -15 2 -20 8 -27 21 -25 13 2 17 -4 17 -24
0 -22 -2 -25 -15 -14 -12 10 -16 9 -21 -4 -3 -9 -3 -24 1 -33 5 -12 9 -14 12
-5 7 17 23 15 23 -3 0 -11 -11 -15 -35 -15 -31 0 -35 3 -34 23 4 40 -1 67 -11
67 -5 0 -10 -24 -11 -52 -1 -41 -3 -47 -9 -28 -6 18 -8 10 -8 -33 0 -32 -2
-61 -5 -64 -9 -8 -29 78 -23 100 3 11 0 29 -5 40 -12 22 -3 107 12 107 5 0 9
-11 9 -25 0 -14 5 -25 10 -25 6 0 10 15 10 33 0 24 3 28 10 17 8 -13 10 -12
11 5 1 11 0 30 -1 43 -1 16 5 25 19 29 12 3 21 13 21 22 0 21 9 31 27 31 7 0
13 -8 13 -18z m-270 -36 c0 -6 -7 -2 -15 8 -8 11 -15 25 -15 30 0 6 7 2 15 -8
8 -11 15 -25 15 -30z m700 26 c0 -10 -9 -34 -19 -55 l-19 -37 -5 42 c-3 31 0
46 11 56 22 17 32 15 32 -6z m-300 -29 c0 -33 -15 -60 -24 -45 -8 13 4 72 15
72 5 0 9 -12 9 -27z m-510 1 c0 -8 -4 -12 -10 -9 -5 3 -10 10 -10 16 0 5 5 9
10 9 6 0 10 -7 10 -16z m1100 -15 c0 -6 -4 -7 -10 -4 -5 3 -10 11 -10 16 0 6
5 7 10 4 6 -3 10 -11 10 -16z m407 -11 c-3 -7 -5 -2 -5 12 0 14 2 19 5 13 2
-7 2 -19 0 -25z m-887 18 c0 -15 -14 -35 -21 -30 -15 9 -10 34 6 34 8 0 15 -2
15 -4z m-1046 -23 c-4 -10 -9 -37 -12 -60 -2 -24 -7 -41 -11 -39 -4 3 -7 -19
-8 -47 0 -29 -4 -74 -8 -101 -7 -42 -6 -48 8 -43 8 3 18 3 22 -1 12 -12 30 -8
37 8 5 11 7 9 7 -7 1 -13 6 -23 11 -23 15 0 30 44 17 51 -5 4 -9 22 -9 40 2
40 5 79 8 79 19 0 34 -17 34 -39 0 -18 -3 -22 -9 -12 -5 7 -11 9 -14 4 -4 -6
0 -18 7 -29 8 -10 12 -24 9 -30 -2 -7 0 -15 6 -18 11 -7 3 -37 -13 -48 -7 -6
-6 -11 4 -18 13 -9 13 -10 0 -10 -8 -1 0 -6 19 -13 38 -13 59 -44 22 -32 -23
7 -26 -4 -12 -40 5 -11 5 -30 0 -42 -5 -15 -3 -25 7 -33 22 -19 17 -30 -16
-30 -16 0 -30 5 -30 10 0 6 -5 10 -11 10 -5 0 -7 -4 -4 -10 3 -5 -3 -10 -14
-10 -12 0 -21 5 -21 11 0 8 -4 8 -14 0 -11 -9 -14 -5 -18 22 -3 32 -2 33 34
34 27 2 36 -2 32 -12 -3 -7 -1 -16 5 -20 6 -3 11 1 11 9 0 9 7 16 16 16 11 0
14 5 10 16 -3 9 -6 33 -6 55 0 51 -16 50 -25 -1 -4 -22 -11 -40 -17 -40 -6 0
-8 6 -5 13 2 6 0 23 -5 37 l-10 25 -14 -30 c-7 -17 -14 -23 -15 -15 -1 8 -3
22 -4 30 -1 8 -3 29 -5 45 l-2 30 -10 -32 c-6 -18 -15 -33 -21 -33 -5 0 -7
-14 -3 -34 4 -19 2 -37 -3 -40 -6 -4 -6 -18 0 -38 9 -33 7 -40 -14 -44 -7 -1
-20 -5 -29 -9 -11 -4 -18 -3 -18 4 0 6 -7 11 -15 11 -8 0 -15 5 -15 10 0 6 7
10 16 10 14 0 16 10 12 65 l-4 66 28 -7 29 -6 -6 49 c-3 26 -7 68 -9 91 -8 79
-26 71 -30 -12 -2 -42 1 -59 12 -65 11 -6 11 -10 3 -16 -28 -17 -40 4 -40 67
0 79 6 98 29 98 13 0 17 5 13 19 -3 11 2 21 11 24 9 4 16 17 16 31 0 14 4 27
8 30 4 2 9 19 10 37 3 39 9 49 29 49 11 0 13 -5 7 -17z m386 -33 c0 -10 -7 -7
-20 10 -25 32 -25 44 0 23 11 -10 20 -24 20 -33z m1483 -14 c-3 -4 -9 -2 -14
5 -6 10 -9 6 -9 -13 0 -18 5 -28 15 -28 12 0 15 -13 15 -59 0 -71 -16 -89 -24
-29 -4 24 -12 62 -17 85 -9 32 -8 49 2 73 l14 31 12 -28 c6 -15 9 -32 6 -37z
m-1803 27 c16 -21 20 -37 17 -61 -5 -29 -4 -31 9 -17 17 16 25 19 23 8 -3 -22
15 -54 27 -49 9 3 14 -2 14 -14 0 -11 7 -20 15 -20 25 0 17 -29 -9 -36 -15 -3
-27 -15 -29 -27 -3 -13 -5 -7 -6 15 -2 63 -16 88 -51 88 -27 0 -30 3 -28 28 2
15 -1 27 -7 27 -6 0 -9 -18 -7 -42 3 -32 -1 -44 -15 -52 -15 -9 -16 -10 -2
-11 20 0 28 -26 18 -60 -7 -24 -7 -24 -8 -2 -1 27 -21 30 -21 2 0 -12 -7 -20
-16 -20 -11 0 -14 5 -10 16 3 9 6 41 7 72 0 44 2 52 9 35 16 -39 25 -25 23 32
-1 34 2 53 8 49 7 -4 8 7 4 30 -9 44 5 47 35 9z m1516 -9 c-4 -15 -2 -32 5
-40 10 -12 9 -18 -3 -30 -14 -14 -16 -12 -22 20 -8 40 -26 49 -26 14 -1 -23
-1 -23 -16 -3 -27 36 -10 54 60 64 4 0 5 -11 2 -25z m-1106 -4 c15 -28 2 -46
-16 -23 -7 10 -14 24 -14 31 0 19 18 14 30 -8z m559 -21 c-11 -22 -5 -54 10
-45 10 6 24 -71 16 -85 -4 -5 -13 -9 -21 -9 -11 0 -13 -9 -8 -42 5 -40 4 -42
-10 -24 -9 11 -16 30 -16 43 0 13 -4 23 -10 23 -5 0 -7 -23 -5 -52 l5 -53 -14
40 c-8 22 -15 49 -15 61 -1 11 -7 28 -14 39 -15 19 -16 11 -33 -200 -3 -38
-10 -75 -16 -82 -6 -7 -8 -37 -6 -68 4 -44 2 -51 -7 -38 -11 15 -15 14 -39
-12 -14 -15 -26 -22 -26 -16 0 7 -5 9 -11 6 -6 -4 -7 -19 -4 -37 5 -20 4 -28
-3 -24 -6 3 -13 0 -15 -6 -3 -7 -6 6 -6 30 -1 37 -4 42 -18 38 -16 -5 -18 1
-15 50 3 43 7 54 18 50 8 -3 14 0 14 6 0 6 3 8 7 4 4 -4 6 -25 4 -48 -1 -23 1
-38 7 -34 5 3 13 43 16 88 4 46 10 94 14 108 l6 25 6 -24 c3 -14 12 -27 19
-29 11 -4 13 4 8 32 -3 21 -2 49 4 62 10 28 2 74 -13 74 -7 0 -9 -16 -5 -39 4
-32 2 -39 -10 -34 -11 4 -13 14 -9 36 3 16 6 36 6 43 0 8 9 14 20 14 15 0 20
7 21 28 2 23 2 24 6 5 8 -43 24 -24 18 20 -6 36 -3 45 16 62 16 15 23 17 26 7
3 -7 11 -19 19 -26 8 -8 14 -21 14 -30 0 -8 5 -18 10 -21 6 -4 10 8 10 29 0
40 19 88 31 80 5 -3 4 -14 -2 -25z m775 4 c3 -16 1 -57 -3 -93 -5 -36 -9 -51
-10 -35 0 17 -8 43 -16 59 -8 15 -15 38 -15 50 1 18 3 16 15 -9 l15 -30 -5 43
c-5 46 10 58 19 15z m226 7 c0 -11 -4 -20 -9 -20 -5 0 -7 9 -4 20 3 11 7 20 9
20 2 0 4 -9 4 -20z m-831 -76 c-8 -10 -8 -14 0 -14 6 0 11 -9 11 -20 0 -13 -5
-18 -15 -14 -11 4 -16 -4 -21 -34 -4 -29 -10 -39 -20 -35 -11 4 -13 24 -12 80
2 56 5 69 12 54 12 -29 26 -26 26 4 0 14 6 32 13 39 10 11 13 9 15 -16 2 -16
-2 -36 -9 -44z m521 44 c0 -12 6 -29 14 -37 17 -20 29 -121 16 -141 -7 -11
-10 -3 -10 30 0 25 -3 55 -6 68 -12 42 -24 22 -24 -40 -1 -50 -3 -59 -11 -45
-7 11 -8 37 -4 63 4 28 2 44 -4 44 -6 0 -11 5 -11 10 0 6 7 10 16 10 13 0 15
7 11 35 -3 21 -2 33 4 30 5 -4 9 -16 9 -27z m247 -64 c7 -71 -2 -70 -12 1 -7
55 -9 60 -24 50 -6 -3 -11 -34 -11 -68 0 -44 -3 -58 -10 -47 -13 20 -13 133 0
125 6 -3 13 1 16 10 12 31 35 -8 41 -71z m-1123 70 c17 -7 22 -34 6 -34 -5 0
-10 6 -10 13 0 8 -4 7 -10 -3 -8 -12 -10 -11 -10 8 0 24 1 25 24 16z m-414
-19 c10 -12 10 -15 -3 -15 -8 0 -17 7 -21 15 -3 8 -2 15 3 15 5 0 14 -7 21
-15z m-552 -21 c1 -10 -2 -26 -8 -34 -14 -21 -29 3 -22 36 5 28 26 27 30 -2z
m498 -40 c16 6 18 -12 5 -33 -6 -10 -16 -2 -40 32 -38 56 -40 70 -5 27 15 -17
33 -29 40 -26z m995 0 c-7 -31 -9 -34 -10 -12 -1 27 9 62 15 55 3 -2 0 -22 -5
-43z m-1041 -50 c0 -3 -13 5 -29 18 -18 13 -30 33 -30 47 -1 21 2 19 29 -17
17 -23 30 -44 30 -48z m1694 71 c3 -8 1 -15 -4 -15 -6 0 -10 7 -10 15 0 8 2
15 4 15 2 0 6 -7 10 -15z m-2777 -15 c-1 -10 -4 -17 -7 -14 -3 3 -10 -11 -17
-33 -8 -27 -12 -31 -12 -15 -1 21 24 82 34 82 2 0 3 -9 2 -20z m210 -2 c-3 -8
-6 -5 -6 6 -1 11 2 17 5 13 3 -3 4 -12 1 -19z m2128 -45 c18 8 25 -14 24 -76
l0 -52 -20 63 c-22 69 -45 86 -35 25 l7 -38 -21 44 c-24 51 -24 51 -6 51 9 0
13 8 10 23 -3 14 2 9 11 -11 10 -21 21 -32 30 -29z m475 0 c0 -32 -5 -28 -14
10 -4 19 -3 26 4 22 5 -3 10 -18 10 -32z m-1420 -26 c0 -30 -3 -57 -7 -61 -4
-4 -6 -24 -5 -44 l2 -37 -17 23 c-19 27 -28 82 -13 82 6 0 10 7 10 15 0 8 5
15 11 15 7 0 9 11 6 30 -4 17 -2 30 3 30 6 0 10 -24 10 -53z m-200 21 c0 -18
-2 -20 -9 -8 -6 8 -7 18 -5 22 9 14 14 9 14 -14z m-640 -30 c0 10 5 10 21 2
12 -7 18 -17 15 -26 -3 -9 -1 -25 5 -36 14 -25 -4 -49 -23 -30 -9 9 -14 6 -23
-11 -7 -13 -8 -25 -2 -28 11 -8 19 -83 17 -151 -1 -41 2 -48 18 -48 11 0 22
-7 26 -15 6 -17 -9 -21 -19 -5 -10 16 -25 1 -19 -18 5 -14 3 -14 -10 2 -9 11
-16 32 -16 47 0 15 -4 31 -10 34 -5 3 -10 -1 -10 -9 0 -9 -4 -16 -10 -16 -5 0
-10 6 -10 13 0 8 -4 7 -10 -3 -8 -12 -10 -13 -10 -1 0 8 7 23 17 33 15 17 15
18 0 18 -11 0 -17 8 -17 23 1 21 1 21 15 3 7 -10 19 -15 25 -11 16 10 9 94
-10 118 -14 17 -15 29 -8 61 5 23 7 55 4 71 l-6 30 25 -30 c14 -16 25 -24 25
-17z m760 17 c0 -18 -5 -25 -20 -25 -11 0 -20 -1 -20 -2 0 -2 7 -24 14 -50 13
-40 13 -48 0 -58 -7 -7 -11 -16 -8 -21 3 -5 1 -9 -5 -9 -5 0 -9 14 -9 30 1 17
5 30 10 30 5 0 1 11 -8 25 -10 15 -13 31 -8 42 4 10 8 22 8 26 1 8 35 37 43
37 2 0 3 -11 3 -25z m527 3 c-3 -8 -6 -5 -6 6 -1 11 2 17 5 13 3 -3 4 -12 1
-19z m432 -85 c1 -61 -14 -78 -23 -25 -3 20 -9 48 -13 61 -4 17 -3 22 5 17 8
-5 12 4 13 26 l1 33 8 -30 c4 -16 8 -53 9 -82z m311 67 c0 -10 4 -21 9 -25 5
-3 12 -31 16 -63 3 -31 8 -73 11 -92 4 -27 3 -32 -6 -24 -7 7 -14 34 -16 60
-5 53 -22 96 -35 88 -8 -4 -6 -31 7 -94 3 -14 2 -21 -3 -17 -4 5 -15 42 -24
83 -15 71 -15 74 3 74 12 0 18 7 18 21 0 11 5 17 10 14 6 -3 10 -15 10 -25z
m-171 -22 c1 -5 -3 -8 -9 -8 -5 0 -10 12 -9 28 0 24 1 25 9 7 5 -11 9 -23 9
-27z m356 -52 c2 -42 0 -76 -4 -76 -4 0 -8 6 -8 13 -1 6 -6 36 -12 66 -12 59
-6 100 11 83 6 -6 12 -45 13 -86z m-1818 52 c-3 -8 -6 -5 -6 6 -1 11 2 17 5
13 3 -3 4 -12 1 -19z m1712 -61 c16 -94 2 -136 -15 -47 -15 78 -18 138 -5 125
5 -6 14 -41 20 -78z m-799 -10 c0 -88 -16 -78 -23 15 -4 54 -2 65 9 61 10 -4
14 -25 14 -76z m849 8 c14 -79 10 -110 -7 -53 -14 47 -23 128 -14 128 5 0 14
-34 21 -75z m-2232 28 c-3 -10 -5 -4 -5 12 0 17 2 24 5 18 2 -7 2 -21 0 -30z
m653 33 c0 -3 -4 -8 -10 -11 -5 -3 -10 -1 -10 4 0 6 5 11 10 11 6 0 10 -2 10
-4z m429 -8 c-2 -24 -17 -63 -18 -48 -1 8 -4 25 -7 38 -5 16 -2 22 10 22 9 0
16 -6 15 -12z m608 -35 c-3 -10 -5 -2 -5 17 0 19 2 27 5 18 2 -10 2 -26 0 -35z
m-1978 10 c0 -29 -17 -78 -18 -55 -1 6 -10 12 -21 12 -15 0 -20 7 -20 28 0 21
2 24 10 12 8 -13 11 -11 16 8 9 32 34 28 33 -5z m1321 -18 c0 -31 5 -47 15
-51 27 -11 13 -84 -16 -84 -4 0 -10 30 -14 68 -3 37 -8 77 -11 90 -3 15 0 22
11 22 11 0 15 -11 15 -45z m-540 -1 c0 -8 5 -14 10 -14 6 0 10 5 10 10 0 6 6
5 14 -2 8 -7 11 -17 8 -23 -3 -5 -5 -28 -3 -50 2 -37 2 -39 -12 -20 -9 11 -13
24 -10 28 3 5 -4 4 -15 -2 -12 -6 -23 -7 -26 -2 -3 5 4 11 17 15 18 5 19 8 7
15 -8 5 -18 7 -22 5 -9 -6 -11 27 -2 50 7 18 24 12 24 -10z m263 12 c3 -8 0
-19 -7 -25 -10 -9 -12 -6 -8 14 5 29 8 31 15 11z m1084 -23 c-3 -10 -5 -4 -5
12 0 17 2 24 5 18 2 -7 2 -21 0 -30z m103 -11 c0 -11 -3 -12 -14 -3 -11 10
-15 8 -19 -6 -3 -10 -5 -1 -6 19 -1 37 -1 37 19 21 11 -10 20 -24 20 -31z m50
29 c0 -6 -4 -13 -10 -16 -5 -3 -10 1 -10 9 0 9 5 16 10 16 6 0 10 -4 10 -9z
m-1577 -15 c3 -8 0 -17 -7 -19 -10 -4 -12 1 -9 14 6 23 9 24 16 5z m1324 -18
c-3 -7 -5 -2 -5 12 0 14 2 19 5 13 2 -7 2 -19 0 -25z m302 -39 c7 -34 10 -63
7 -66 -7 -7 -12 8 -24 75 -5 28 -6 52 -2 52 4 0 13 -27 19 -61z m-325 -14 c3
-28 2 -45 -3 -40 -11 13 -30 93 -23 100 11 10 19 -10 26 -60z m-446 -25 c1
-51 -2 -68 -8 -55 -5 11 -9 31 -9 43 -1 14 -6 22 -13 19 -7 -2 -12 -14 -10
-25 2 -12 -2 -22 -9 -22 -8 0 -10 12 -5 38 3 20 6 46 6 57 0 14 7 20 24 20 23
0 24 -3 24 -75z m719 48 c-3 -7 -5 -2 -5 12 0 14 2 19 5 13 2 -7 2 -19 0 -25z
m-2319 -21 c-8 -15 -12 -16 -21 -7 -9 10 -9 14 1 17 6 3 12 12 12 21 0 14 2
15 9 3 6 -9 6 -22 -1 -34z m1068 -5 c0 -24 -3 -45 -7 -47 -10 -7 -32 23 -25
34 4 5 2 12 -3 15 -15 10 0 47 18 44 12 -2 16 -15 17 -46z m799 28 c-3 -5 1
-37 10 -71 19 -72 14 -87 -9 -29 -9 22 -20 40 -26 40 -5 0 -10 9 -10 21 0 28
19 61 31 54 5 -4 7 -10 4 -15z m99 -35 c9 -30 19 -62 23 -71 4 -12 3 -15 -5
-10 -10 6 -18 29 -38 109 -12 50 4 28 20 -28z m203 -34 c2 -31 9 -72 14 -91 5
-19 9 -44 8 -55 0 -35 -27 58 -32 115 -3 30 -9 71 -12 90 -5 30 -5 32 6 16 6
-11 14 -44 16 -75z m-2387 64 c7 -9 8 -15 2 -15 -8 0 -15 -26 -24 -87 -4 -29
-17 -10 -16 22 1 19 -2 38 -5 42 -4 3 -7 -2 -8 -13 0 -18 -1 -18 -9 1 -15 35
-12 47 10 40 14 -5 20 -2 20 9 0 20 14 20 30 1z m114 3 c-6 -10 -5 -10 7 -1
12 10 18 10 29 0 10 -9 11 -9 6 1 -4 6 -2 12 3 12 12 0 14 -11 5 -34 -3 -9
-12 -16 -20 -16 -8 0 -14 -9 -14 -21 0 -15 -5 -19 -15 -15 -10 3 -15 -1 -16
-12 -1 -16 -2 -16 -6 1 -2 9 -13 17 -23 17 -13 0 -17 -5 -14 -15 4 -8 1 -15
-5 -15 -6 0 -11 7 -11 16 0 9 -5 12 -12 8 -8 -5 -9 0 -5 17 4 13 7 29 7 35 0
6 15 9 35 8 19 -2 34 0 34 4 -3 15 1 22 12 22 5 0 7 -6 3 -12z m2110 -38 l6
-35 -14 35 c-17 42 -20 58 -7 45 5 -6 12 -26 15 -45z m300 7 c5 -27 4 -37 -3
-32 -6 3 -11 22 -11 42 0 44 5 41 14 -10z m-2177 17 c3 -9 0 -20 -8 -24 -16
-11 -12 -15 24 -24 15 -3 27 -2 27 3 0 5 9 7 20 4 20 -5 28 -23 10 -23 -5 0
-10 -11 -10 -25 0 -14 -5 -25 -11 -25 -6 0 -9 7 -6 15 4 8 1 18 -6 22 -13 8
-18 9 -55 11 -19 2 -22 6 -17 22 4 11 2 20 -4 20 -6 0 -11 9 -11 20 0 25 38
28 47 4z m73 -10 c0 -8 -10 -14 -25 -14 -14 0 -25 5 -25 11 0 6 7 9 15 5 9 -3
15 0 15 10 0 8 5 12 10 9 6 -3 10 -13 10 -21z m92 10 c14 -14 20 -14 33 -4 9
7 18 10 21 7 10 -10 -5 -39 -16 -32 -5 3 -26 1 -47 -4 -44 -12 -46 -11 -37 23
7 30 20 33 46 10z m1946 -30 c-3 -27 -4 -26 -9 8 -3 22 -1 34 4 29 5 -5 7 -21
5 -37z m-2208 26 c0 -5 -5 -10 -10 -10 -7 0 -7 -7 0 -22 10 -21 10 -22 -4 -5
-8 11 -12 25 -9 33 6 16 23 19 23 4z m2189 -140 c-1 -8 -9 18 -20 59 -10 40
-16 78 -12 85 7 10 32 -107 32 -144z m-1751 122 c3 -9 -2 -13 -14 -10 -9 1
-19 9 -22 16 -3 9 2 13 14 10 9 -1 19 -9 22 -16z m745 4 c3 -8 0 -17 -8 -19
-17 -7 -25 1 -18 19 7 18 19 18 26 0z m717 -46 c3 -64 -1 -80 -10 -45 -11 44
-12 111 -1 100 5 -6 10 -30 11 -55z m-1860 29 c0 -5 -4 -9 -10 -9 -5 0 -10 7
-10 16 0 8 5 12 10 9 6 -3 10 -10 10 -16z m1069 -5 c3 -16 1 -17 -13 -5 -19
16 -21 34 -3 29 6 -3 14 -13 16 -24z m165 -13 c8 -27 6 -36 -6 -45 -11 -8 -13
-17 -6 -35 14 -38 3 -49 -15 -16 -9 17 -16 25 -17 19 0 -11 22 -85 35 -116 5
-13 3 -18 -8 -18 -10 0 -22 19 -32 50 -16 50 -41 62 -29 14 4 -14 2 -24 -5
-24 -7 0 -11 24 -11 65 0 36 0 68 0 73 0 4 5 9 10 10 6 2 10 -14 10 -35 l0
-38 15 29 c9 16 13 36 10 44 -3 7 -2 25 1 38 9 35 36 26 48 -15z m820 17 c9
-36 7 -173 -3 -162 -11 12 -22 184 -12 184 5 0 11 -10 15 -22z m220 -65 c4
-13 3 -23 -2 -23 -15 0 -22 27 -21 73 l1 42 7 -35 c4 -19 11 -45 15 -57z
m-1432 55 c-7 -7 -12 -8 -12 -2 0 14 12 26 19 19 2 -3 -1 -11 -7 -17z m-965
-10 c-3 -8 -6 -5 -6 6 -1 11 2 17 5 13 3 -3 4 -12 1 -19z m47 7 c-4 -8 -1 -15
4 -15 6 0 23 -5 39 -11 22 -8 24 -12 13 -19 -13 -8 -13 -10 1 -10 9 0 20 8 23
17 5 12 10 13 18 5 8 -8 8 -21 -1 -51 -14 -49 -21 -54 -60 -40 -25 9 -31 16
-31 41 0 16 -4 27 -9 24 -5 -3 -11 12 -13 34 -2 27 0 40 9 40 7 0 10 -7 7 -15z
m1763 -7 c-3 -8 -6 -5 -6 6 -1 11 2 17 5 13 3 -3 4 -12 1 -19z m-1295 -20 c-7
-7 -10 -5 -7 8 5 29 6 30 12 16 3 -8 1 -18 -5 -24z m298 20 c0 -7 3 -23 6 -35
5 -19 2 -23 -16 -23 -18 0 -21 4 -16 23 3 12 6 28 6 35 0 6 5 12 10 12 6 0 10
-6 10 -12z m70 2 c0 -5 -7 -10 -16 -10 -8 0 -12 5 -9 10 3 6 10 10 16 10 5 0
9 -4 9 -10z m1760 -32 c0 -26 -4 -38 -8 -30 -8 12 -4 72 4 72 2 0 4 -19 4 -42z
m-2290 11 c0 -3 -7 -14 -15 -25 -8 -10 -15 -26 -15 -35 0 -11 -8 -16 -24 -15
-16 1 -24 7 -23 18 1 14 4 15 16 5 12 -10 13 -7 8 25 -5 36 -5 37 24 35 16 -1
29 -5 29 -8z m1444 -6 c6 -14 9 -15 16 -3 6 10 10 3 15 -23 4 -20 5 -42 2 -49
-3 -7 -6 -3 -6 8 -1 12 -12 29 -26 38 -14 9 -25 23 -25 31 0 20 16 19 24 -2z
m-914 -3 c0 -5 -2 -10 -4 -10 -3 0 -8 5 -11 10 -3 6 -1 10 4 10 6 0 11 -4 11
-10z m37 -5 c0 -8 -4 -15 -9 -15 -4 0 -8 7 -8 15 0 8 4 15 8 15 5 0 9 -7 9
-15z m261 -12 c2 -13 -1 -23 -7 -23 -6 0 -10 -6 -8 -12 1 -9 -12 -14 -38 -15
-22 -1 -32 1 -22 4 14 4 16 11 12 37 -6 30 -5 32 27 31 26 0 34 -4 36 -22z
m896 12 c-4 -8 -10 -15 -15 -15 -5 0 -9 7 -9 15 0 8 7 15 15 15 9 0 12 -6 9
-15z m496 -37 c0 -62 -5 -60 -14 5 -5 31 -4 47 3 47 7 0 11 -22 11 -52z m-471
15 c0 -25 -1 -25 -8 -8 -5 11 -7 23 -4 28 8 14 13 7 12 -20z m-2559 -73 c0
-53 -13 -51 -28 5 -18 69 -16 83 8 57 13 -14 20 -35 20 -62z m633 60 c-3 -11
-7 -20 -9 -20 -2 0 -4 9 -4 20 0 11 4 20 9 20 5 0 7 -9 4 -20z m1065 -14 c-2
-10 -7 -13 -17 -7 -8 6 -11 16 -7 27 8 21 30 4 24 -20z m1209 -43 c11 -87 9
-105 -5 -47 -15 57 -21 124 -13 124 4 0 12 -35 18 -77z m-1487 35 c0 -7 -14
-6 -50 2 -3 0 4 7 14 15 16 12 22 12 28 2 4 -6 8 -15 8 -19z m110 22 c0 -5 -4
-10 -10 -10 -5 0 -10 5 -10 10 0 6 5 10 10 10 6 0 10 -4 10 -10z m1003 -80 c3
-49 2 -72 -3 -55 -8 30 -13 152 -6 144 2 -2 6 -42 9 -89z m-2412 50 c16 0 19
-7 19 -40 0 -22 -4 -40 -10 -40 -5 0 -10 11 -10 24 0 13 -7 29 -15 36 -8 7
-14 22 -14 34 1 17 2 17 6 4 2 -10 13 -18 24 -18z m1167 7 c2 -10 -3 -17 -12
-17 -10 0 -16 9 -16 21 0 24 23 21 28 -4z m62 14 c0 -5 3 -16 6 -24 4 -11 -1
-13 -19 -10 -18 4 -23 10 -20 24 5 19 33 27 33 10z m896 -67 c7 -37 12 -69 10
-71 -4 -4 -36 119 -36 138 0 29 12 -4 26 -67z m142 15 c-9 -6 -15 -1 -19 14
-10 37 2 51 18 21 11 -22 11 -29 1 -35z m-2454 34 c4 -9 2 -21 -4 -27 -7 -7
-10 -7 -10 1 0 6 -3 18 -6 27 -3 9 -2 16 4 16 5 0 13 -8 16 -17z m276 3 c0 -5
-7 -14 -17 -21 -17 -13 -11 -51 6 -41 6 4 9 -18 8 -51 -2 -70 16 -86 24 -23
l6 45 1 -55 c2 -54 1 -56 -26 -58 -28 -2 -28 -2 -29 60 -1 35 -4 83 -8 108 -6
42 -5 46 14 46 12 0 21 -4 21 -10z m490 -33 c0 -7 -4 -13 -9 -13 -16 0 -33 30
-26 47 6 17 7 17 21 -1 8 -11 14 -26 14 -33z m780 37 c0 -5 -4 -10 -10 -10 -5
0 -10 5 -10 10 0 6 5 10 10 10 6 0 10 -4 10 -10z m-1114 -65 c1 -60 -8 -61
-23 -5 -11 39 -7 60 10 60 8 0 12 -20 13 -55z m1814 9 c0 -27 -4 -43 -10 -39
-5 3 -10 24 -10 46 0 21 5 39 10 39 6 0 10 -21 10 -46z m607 24 c-3 -8 -6 -5
-6 6 -1 11 2 17 5 13 3 -3 4 -12 1 -19z m46 -53 c4 -31 3 -41 -2 -25 -13 42
-22 107 -12 90 4 -8 11 -37 14 -65z m-2207 38 c-10 -10 -19 5 -10 18 6 11 8
11 12 0 2 -7 1 -15 -2 -18z m758 -15 c21 -19 21 -19 24 6 2 14 7 26 12 26 5 0
7 -7 4 -15 -9 -21 16 -51 27 -33 7 10 9 9 9 -4 0 -14 -8 -18 -40 -16 -22 1
-40 5 -40 10 0 16 -20 7 -20 -9 -1 -16 -2 -16 -15 1 -12 16 -12 21 -3 28 10 5
8 11 -7 23 -20 16 -19 16 4 9 14 -3 34 -15 45 -26z m-351 16 c15 -5 12 -49 -5
-71 -16 -20 -25 -7 -22 34 3 50 1 47 27 37z m81 -19 c9 -14 20 -24 24 -24 19
3 23 -2 12 -15 -6 -8 -19 -12 -27 -9 -13 5 -15 2 -11 -15 7 -26 -12 -34 -36
-16 -15 10 -17 20 -11 51 11 62 23 68 49 28z m120 -36 c-3 -6 -12 -2 -19 8
-13 17 -14 17 -21 -2 -7 -17 -9 -16 -16 10 -11 42 11 52 40 19 12 -14 20 -30
16 -35z m823 31 c1 -18 -2 -28 -7 -25 -15 9 -11 55 4 55 1 0 2 -14 3 -30z
m402 -28 c-1 -42 -2 -44 -9 -17 -11 45 -11 77 0 70 6 -3 9 -27 9 -53z m300 11
c0 -42 -1 -45 -10 -23 -9 23 -5 70 6 70 3 0 5 -21 4 -47z m-1174 27 c-3 -5
-11 -10 -16 -10 -6 0 -7 5 -4 10 3 6 11 10 16 10 6 0 7 -4 4 -10z m116 -11 c5
-8 9 -18 9 -24 0 -5 -4 -4 -9 4 -5 7 -25 13 -44 13 -20 0 -41 5 -46 12 -7 8 2
11 35 11 28 -1 49 -7 55 -16z m866 -11 c-3 -7 -5 -2 -5 12 0 14 2 19 5 13 2
-7 2 -19 0 -25z m-1680 -18 c-2 -35 -3 -37 -39 -37 -41 0 -47 7 -22 28 8 7 13
20 11 29 -3 13 3 17 24 17 26 0 28 -3 26 -37z m608 21 c17 -2 18 -21 1 -21 -9
0 -16 2 -16 4 0 2 -3 13 -6 23 -4 11 -3 14 3 6 4 -6 13 -12 18 -12z m1513 -12
c-3 -8 -7 -3 -11 10 -4 17 -3 21 5 13 5 -5 8 -16 6 -23z m-2041 -21 c-3 -7 -5
-2 -5 12 0 14 2 19 5 13 2 -7 2 -19 0 -25z m361 13 c3 -8 -1 -12 -9 -9 -7 2
-15 10 -17 17 -3 8 1 12 9 9 7 -2 15 -10 17 -17z m1331 -41 l0 -25 -11 23 c-6
12 -15 22 -20 22 -13 0 -9 28 5 33 14 5 26 -18 26 -53z m481 50 c0 -5 -5 -10
-11 -10 -5 0 -7 5 -4 10 3 6 8 10 11 10 2 0 4 -4 4 -10z m-1390 -15 c0 -8 -4
-15 -10 -15 -5 0 -10 7 -10 15 0 8 5 15 10 15 6 0 10 -7 10 -15z m120 11 c0
-3 -4 -8 -10 -11 -5 -3 -10 -1 -10 4 0 6 5 11 10 11 6 0 10 -2 10 -4z m465
-24 c-8 -8 -25 10 -19 20 4 6 9 5 15 -3 4 -7 6 -15 4 -17z m92 -19 c-3 -10 -5
-2 -5 17 0 19 2 27 5 18 2 -10 2 -26 0 -35z m80 10 c-3 -10 -5 -4 -5 12 0 17
2 24 5 18 2 -7 2 -21 0 -30z m-2657 -29 c0 -34 -4 -53 -10 -49 -11 7 -13 48
-4 83 10 36 14 26 14 -34z m210 24 c-4 -61 -2 -66 24 -61 13 3 28 15 34 26 10
21 11 21 11 -4 1 -41 -69 -61 -83 -23 -6 16 3 94 11 94 3 0 4 -15 3 -32z m577
-15 c-3 -10 -5 -2 -5 17 0 19 2 27 5 18 2 -10 2 -26 0 -35z m632 32 c5 -19 -1
-35 -13 -35 -22 0 -29 18 -14 34 12 14 23 14 27 1z m396 5 c3 -5 -1 -10 -10
-10 -9 0 -13 5 -10 10 3 6 8 10 10 10 2 0 7 -4 10 -10z m1151 -58 c-11 -10
-14 3 -7 38 l6 35 3 -33 c2 -19 1 -36 -2 -40z m167 43 c-7 -21 -13 -19 -13 6
0 11 4 18 10 14 5 -3 7 -12 3 -20z m71 19 c23 -9 20 -23 -4 -21 -11 1 -20 7
-20 14 0 15 2 15 24 7z m-3141 -96 c-2 -5 -8 -8 -14 -8 -11 0 -12 83 -1 94 8
8 22 -74 15 -86z m2099 62 c3 -16 1 -30 -4 -30 -4 0 -8 14 -8 30 0 17 2 30 4
30 2 0 6 -13 8 -30z m-1521 -47 c6 -7 6 -13 1 -17 -11 -7 -22 28 -20 64 1 21
2 21 5 -5 3 -16 9 -35 14 -42z m853 52 c4 -10 -1 -15 -14 -15 -13 0 -18 5 -14
15 4 8 10 15 14 15 4 0 10 -7 14 -15z m126 6 c0 -19 -22 -23 -38 -7 -15 15
-14 16 11 16 15 0 27 -4 27 -9z m70 4 c0 -8 -44 -23 -53 -18 -14 8 4 23 29 23
13 0 24 -2 24 -5z m77 -15 c1 -11 -2 -22 -8 -25 -10 -7 -13 28 -2 38 9 9 9 10
10 -13z m747 5 c3 -8 1 -15 -4 -15 -6 0 -10 7 -10 15 0 8 2 15 4 15 2 0 6 -7
10 -15z m354 -16 c-3 -8 -7 -3 -11 10 -4 17 -3 21 5 13 5 -5 8 -16 6 -23z
m-1568 12 c0 -6 -4 -13 -10 -16 -5 -3 -10 1 -10 9 0 9 5 16 10 16 6 0 10 -4
10 -9z m-1160 -31 c0 -25 -10 -50 -21 -50 -10 0 -12 63 -3 73 11 10 24 -3 24
-23z m565 -14 c3 -20 1 -36 -5 -36 -6 0 -10 19 -10 42 0 49 9 46 15 -6z m199
17 c-8 -33 -12 -39 -20 -30 -9 9 5 57 16 57 6 0 8 -11 4 -27z m1046 10 c0 -8
-5 -11 -10 -8 -6 3 -13 -1 -16 -9 -10 -25 -34 -19 -34 8 0 21 5 25 30 24 19
-1 30 -6 30 -15z m40 -8 c0 -8 -4 -17 -10 -20 -6 -4 -10 5 -10 20 0 15 4 24
10 20 6 -3 10 -12 10 -20z m47 -7 c-3 -7 -5 -2 -5 12 0 14 2 19 5 13 2 -7 2
-19 0 -25z m1018 23 c3 -5 1 -12 -5 -16 -5 -3 -10 1 -10 9 0 18 6 21 15 7z
m-795 -22 c0 -5 -4 -9 -10 -9 -5 0 -10 7 -10 16 0 8 5 12 10 9 6 -3 10 -10 10
-16z m-1707 -36 c7 -9 5 -13 -7 -13 -11 0 -16 8 -15 28 0 15 3 21 6 12 3 -8
10 -21 16 -27z m479 22 c7 3 22 -1 33 -9 19 -14 16 -15 -32 -14 -34 0 -53 5
-53 13 0 19 12 26 25 15 7 -6 19 -8 27 -5z m476 -2 c-2 -11 -14 -19 -31 -21
-26 -3 -27 -2 -15 17 16 26 51 28 46 4z m172 -3 c0 -6 -20 -9 -45 -8 -24 0
-42 5 -39 10 7 12 84 10 84 -2z m50 0 c0 -5 -7 -10 -15 -10 -8 0 -15 5 -15 10
0 6 7 10 15 10 8 0 15 -4 15 -10z m40 0 c0 -5 -4 -10 -10 -10 -5 0 -10 5 -10
10 0 6 5 10 10 10 6 0 10 -4 10 -10z m90 0 c0 -5 -4 -10 -10 -10 -5 0 -10 5
-10 10 0 6 5 10 10 10 6 0 10 -4 10 -10z m1464 -9 c6 -9 -35 -24 -43 -15 -6 5
18 24 31 24 4 0 9 -4 12 -9z m-247 -7 c-3 -3 -12 -4 -19 -1 -8 3 -5 6 6 6 11
1 17 -2 13 -5z m168 -14 c7 -12 -2 -12 -30 0 -19 8 -19 9 2 9 12 1 25 -3 28
-9z m-118 -6 c-3 -3 -12 -4 -19 -1 -8 3 -5 6 6 6 11 1 17 -2 13 -5z m148 -24
c-3 -5 -11 -10 -16 -10 -6 0 -7 5 -4 10 3 6 11 10 16 10 6 0 7 -4 4 -10z"/>
<path d="M547 3499 c-3 -12 0 -22 9 -26 20 -7 24 -1 17 25 -7 28 -19 28 -26 1z"/>
<path d="M3178 3439 c-10 -5 -18 -16 -18 -22 0 -22 -32 -59 -42 -49 -5 5 -29
2 -60 -8 -48 -15 -53 -20 -67 -63 -9 -25 -25 -53 -36 -61 -20 -15 -20 -15 1
-16 25 0 51 35 56 75 4 36 69 66 101 46 22 -14 23 -13 58 52 10 20 24 37 29
37 6 0 10 5 10 10 0 13 -10 12 -32 -1z"/>
<path d="M486 3420 c3 -14 10 -32 15 -40 7 -12 8 -11 9 6 0 11 -7 29 -16 40
-14 18 -15 18 -8 -6z"/>
<path d="M702 3429 c2 -7 10 -15 17 -17 8 -3 12 1 9 9 -2 7 -10 15 -17 17 -8
3 -12 -1 -9 -9z"/>
<path d="M2500 3426 c0 -8 -3 -23 -6 -33 -5 -12 -4 -15 3 -8 16 15 26 55 14
55 -6 0 -11 -6 -11 -14z"/>
<path d="M2440 3413 c0 -11 7 -23 15 -27 19 -7 19 3 0 28 -15 19 -15 19 -15
-1z"/>
<path d="M140 3390 c0 -5 11 -10 25 -10 14 0 25 5 25 10 0 6 -11 10 -25 10
-14 0 -25 -4 -25 -10z"/>
<path d="M382 3378 c-14 -14 -16 -28 -3 -28 5 0 11 9 14 20 6 23 5 24 -11 8z"/>
<path d="M1560 3310 c0 -5 4 -10 9 -10 6 0 13 5 16 10 3 6 -1 10 -9 10 -9 0
-16 -4 -16 -10z"/>
<path d="M1587 3255 c-20 -14 -37 -30 -37 -36 0 -6 4 -8 9 -5 5 4 11 1 13 -5
4 -13 68 43 68 60 0 17 -12 13 -53 -14z"/>
<path d="M500 3221 c0 -17 -4 -31 -10 -31 -5 0 -10 -7 -10 -17 0 -14 2 -14 20
2 21 19 27 60 10 70 -6 4 -10 -7 -10 -24z"/>
<path d="M3191 3240 c-8 -4 -11 -15 -8 -24 5 -11 1 -16 -13 -16 -11 0 -20 -5
-20 -12 0 -9 -3 -9 -12 0 -17 17 -35 15 -42 -4 -9 -24 0 -29 21 -13 9 8 14 9
10 2 -5 -7 0 -9 13 -6 11 3 20 10 20 16 0 6 7 2 15 -9 13 -17 14 -17 15 -1 0
9 5 17 11 17 6 0 8 7 5 17 -4 9 -2 20 5 23 6 4 7 10 2 13 -5 3 -15 2 -22 -3z"/>
<path d="M2835 3209 c-4 -11 -4 -23 -1 -26 3 -4 6 1 6 11 0 9 10 21 23 26 l22
9 -22 0 c-13 1 -24 -7 -28 -20z"/>
<path d="M2792 3125 c-1 -25 3 -45 9 -45 6 0 7 5 4 10 -3 6 1 13 9 16 18 7 22
34 6 34 -5 0 -10 7 -10 15 0 8 -4 15 -9 15 -5 0 -9 -20 -9 -45z"/>
<path d="M374 3136 c-3 -9 -10 -13 -15 -10 -5 3 -9 0 -9 -5 0 -17 30 -13 37 4
3 9 3 19 -1 22 -3 3 -8 -2 -12 -11z"/>
<path d="M1586 3096 c-8 -19 -9 -33 -3 -37 9 -6 -13 -49 -41 -78 -7 -7 -10
-16 -7 -20 4 -3 15 5 25 19 21 27 27 12 9 -23 -14 -25 -28 -37 -48 -37 -11 0
-11 3 0 17 12 14 12 16 -1 11 -8 -3 -15 -13 -16 -24 0 -10 -4 -27 -8 -37 -11
-24 -5 -28 35 -28 87 2 90 2 78 17 -9 11 -9 21 1 43 6 16 10 37 8 47 -3 17 -4
17 -21 -1 -10 -9 -16 -23 -13 -30 2 -7 -2 -21 -10 -32 -13 -17 -14 -16 -8 12
4 17 17 49 31 73 24 42 24 44 7 63 -9 10 -13 19 -7 19 5 0 15 11 21 25 15 32
15 32 -4 32 -8 0 -21 -14 -28 -31z"/>
<path d="M2900 3040 c-12 -8 -10 -10 8 -10 13 0 20 4 17 10 -7 12 -6 12 -25 0z"/>
<path d="M2855 3030 c-3 -5 -2 -10 4 -10 5 0 13 5 16 10 3 6 2 10 -4 10 -5 0
-13 -4 -16 -10z"/>
<path d="M1508 2995 c-29 -34 -34 -45 -20 -45 5 0 20 18 35 40 31 48 23 51
-15 5z"/>
<path d="M2978 3023 c-10 -2 -18 -9 -18 -14 0 -7 25 -7 70 0 3 1 -2 6 -10 11
-8 5 -17 9 -20 9 -3 -1 -13 -3 -22 -6z"/>
<path d="M3315 3009 c-16 -10 -33 -20 -37 -21 -12 -4 -28 -68 -17 -68 5 0 9 8
9 19 0 10 17 30 40 45 22 14 40 31 40 36 0 12 1 13 -35 -11z"/>
<path d="M1803 2975 c-8 -22 6 -33 17 -15 13 20 12 30 0 30 -6 0 -13 -7 -17
-15z"/>
<path d="M2928 2965 c-22 -29 -25 -53 -5 -36 8 6 17 8 20 4 4 -3 7 8 7 25 0
18 -1 32 -2 32 -2 0 -11 -11 -20 -25z"/>
<path d="M316 2955 c-3 -8 -1 -15 4 -15 6 0 10 7 10 15 0 8 -2 15 -4 15 -2 0
-6 -7 -10 -15z"/>
<path d="M1846 2959 c3 -6 -13 -32 -37 -57 -35 -36 -38 -42 -16 -28 26 16 30
16 46 2 22 -20 31 -20 31 -1 0 9 -9 19 -20 23 -20 8 -20 8 5 32 30 29 32 40 4
40 -12 0 -17 -4 -13 -11z"/>
<path d="M1455 2930 c-3 -5 -2 -10 4 -10 5 0 13 5 16 10 3 6 2 10 -4 10 -5 0
-13 -4 -16 -10z"/>
<path d="M2010 2920 c-14 -10 -21 -22 -17 -26 4 -4 17 2 29 14 28 28 20 36
-12 12z"/>
<path d="M3185 2911 c6 -38 12 -48 22 -38 3 4 -1 22 -11 40 l-17 32 6 -34z"/>
<path d="M1910 2920 c-8 -5 -11 -12 -8 -16 10 -9 38 3 38 16 0 12 -10 13 -30
0z"/>
<path d="M3292 2898 c2 -6 10 -14 16 -16 7 -2 10 2 6 12 -7 18 -28 22 -22 4z"/>
<path d="M2049 2873 c-5 -16 -12 -34 -14 -40 -6 -16 17 -17 33 -1 15 15 16 68
2 68 -6 0 -15 -12 -21 -27z"/>
<path d="M1231 2826 c-12 -18 -21 -37 -21 -40 0 -17 30 -35 47 -29 14 5 13 1
-6 -20 -15 -17 -20 -27 -11 -27 9 0 8 -6 -5 -20 -10 -11 -31 -20 -47 -20 -15
0 -28 -5 -28 -11 0 -7 10 -9 24 -7 18 4 23 1 19 -9 -3 -8 -11 -12 -18 -9 -8 3
-16 -2 -19 -10 -3 -8 -1 -14 5 -14 6 0 8 -4 4 -9 -3 -5 -1 -12 5 -16 5 -3 14
4 19 17 5 13 25 36 45 53 20 16 36 37 36 45 0 13 2 13 9 1 12 -19 41 -6 41 18
0 11 3 26 6 35 4 11 0 16 -14 16 -11 0 -28 8 -38 18 -10 9 -19 16 -21 15 -11
-10 -13 0 -2 13 18 22 20 44 4 44 -7 0 -23 -15 -34 -34z"/>
<path d="M1827 2846 c-4 -10 -1 -13 9 -9 7 3 14 9 14 14 0 14 -17 10 -23 -5z"/>
<path d="M600 2840 c0 -5 5 -10 10 -10 6 0 10 5 10 10 0 6 -4 10 -10 10 -5 0
-10 -4 -10 -10z"/>
<path d="M1300 2828 c-12 -22 -12 -22 6 -6 10 10 15 20 12 24 -4 3 -12 -5 -18
-18z"/>
<path d="M1745 2840 c-2 -4 -16 -5 -30 -2 -19 3 -25 0 -25 -12 0 -10 4 -15 10
-11 5 3 18 0 29 -7 17 -10 23 -9 41 7 11 10 18 21 15 24 -9 8 -35 10 -40 1z"/>
<path d="M355 2821 c-3 -5 -1 -12 5 -16 5 -3 10 1 10 9 0 18 -6 21 -15 7z"/>
<path d="M3017 2823 c-14 -13 -7 -21 14 -16 18 5 19 2 13 -23 -10 -45 -10 -46
8 -49 14 -3 16 1 8 14 -6 12 -4 27 6 45 8 16 14 30 14 32 0 7 -56 4 -63 -3z"/>
<path d="M3363 2795 c0 -8 7 -15 15 -15 7 0 12 5 10 12 -6 18 -25 21 -25 3z"/>
<path d="M3117 2763 c-4 -3 -7 -15 -7 -25 0 -10 -4 -18 -10 -18 -5 0 -10 -4
-10 -10 0 -18 22 -10 27 10 3 11 9 20 13 20 15 0 30 -28 24 -44 -5 -12 -2 -15
10 -10 20 8 20 12 -4 52 -20 32 -30 38 -43 25z"/>
<path d="M190 2730 c0 -5 5 -10 11 -10 5 0 7 5 4 10 -3 6 -8 10 -11 10 -2 0
-4 -4 -4 -10z"/>
<path d="M1361 2684 c-8 -19 -16 -24 -29 -19 -39 17 -71 1 -72 -34 0 -10 6 -9
27 4 22 15 25 15 20 2 -10 -26 45 -30 65 -4 9 12 14 25 12 29 -3 4 -1 8 4 8 6
0 12 -7 16 -15 3 -8 12 -15 20 -15 10 0 13 -6 10 -15 -4 -8 -1 -15 5 -15 6 0
11 4 11 9 0 5 24 20 53 34 l52 26 -46 -6 c-36 -4 -47 -2 -52 11 -3 8 -13 13
-21 10 -8 -3 -17 -1 -21 5 -12 20 -42 11 -54 -15z"/>
<path d="M2107 2674 c-15 -14 -30 -39 -34 -55 -7 -36 -17 -43 -33 -24 -21 25
-43 19 -36 -10 5 -18 2 -25 -9 -25 -8 0 -15 -8 -15 -19 0 -15 -6 -18 -37 -15
-30 3 -34 2 -20 -7 21 -13 13 -29 -14 -29 -18 0 -20 4 -14 30 6 29 -6 42 -20
20 -4 -6 -11 -8 -16 -5 -5 4 -9 1 -9 -4 0 -6 4 -11 9 -11 5 0 11 -13 14 -29 5
-24 10 -28 30 -24 20 4 25 0 29 -21 3 -14 1 -26 -3 -26 -5 0 -9 -5 -9 -11 0
-23 25 -1 32 30 7 24 13 31 26 27 12 -4 21 2 30 22 22 48 37 69 49 65 14 -5
23 9 29 45 6 29 42 74 54 67 7 -4 20 17 20 31 0 12 -29 1 -53 -22z"/>
<path d="M2830 2685 c0 -8 5 -15 10 -15 6 0 10 7 10 15 0 8 -4 15 -10 15 -5 0
-10 -7 -10 -15z"/>
<path d="M277 2675 c-4 -8 -2 -17 3 -20 6 -4 10 3 10 14 0 25 -6 27 -13 6z"/>
<path d="M530 2675 c0 -8 5 -15 10 -15 6 0 10 7 10 15 0 8 -4 15 -10 15 -5 0
-10 -7 -10 -15z"/>
<path d="M2176 2654 c-4 -9 -4 -19 -1 -22 2 -3 7 3 11 12 4 9 4 19 1 22 -2 3
-7 -3 -11 -12z"/>
<path d="M3198 2652 c-16 -9 -28 -20 -28 -24 0 -11 7 -10 29 4 17 10 23 8 39
-13 26 -31 34 -23 17 19 -16 37 -20 38 -57 14z"/>
<path d="M1236 2602 c-14 -14 -4 -65 24 -117 17 -31 30 -65 30 -74 0 -9 6 -25
13 -35 13 -17 14 -17 30 8 22 32 21 39 -1 32 -17 -6 -30 15 -70 117 -13 30 1
38 17 10 15 -27 22 -10 10 24 -9 29 -40 48 -53 35z"/>
<path d="M1318 2596 c-13 -10 -15 -15 -6 -24 14 -14 35 -16 42 -3 4 5 -4 7
-16 3 -21 -5 -22 -4 -9 12 18 21 11 28 -11 12z"/>
<path d="M3172 2598 c2 -6 10 -14 16 -16 7 -2 10 2 6 12 -7 18 -28 22 -22 4z"/>
<path d="M1120 2571 c0 -12 5 -21 10 -21 6 0 10 6 10 14 0 8 -4 18 -10 21 -5
3 -10 -3 -10 -14z"/>
<path d="M3262 2560 c0 -14 2 -19 5 -12 2 6 2 18 0 25 -3 6 -5 1 -5 -13z"/>
<path d="M1321 2528 c0 -7 9 -31 20 -53 l19 -40 -5 43 c-2 24 -7 47 -10 53 -9
13 -25 11 -24 -3z"/>
<path d="M2946 2526 c3 -9 11 -16 16 -16 13 0 5 23 -10 28 -7 2 -10 -2 -6 -12z"/>
<path d="M1535 2509 c-4 -11 -4 -24 0 -27 9 -9 36 28 29 39 -9 15 -22 10 -29
-12z"/>
<path d="M181 2484 c0 -11 3 -14 6 -6 3 7 2 16 -1 19 -3 4 -6 -2 -5 -13z"/>
<path d="M1710 2475 c0 -24 -29 -32 -78 -21 -26 5 -50 14 -53 18 -3 5 -16 4
-30 -1 -21 -8 -22 -10 -7 -16 10 -4 16 -10 14 -14 -3 -4 -1 -13 4 -21 7 -11
14 -12 35 -2 21 10 27 9 31 -3 5 -12 12 -11 46 6 39 20 39 20 29 0 -6 -11 -21
-27 -33 -35 -12 -9 -17 -16 -11 -16 6 0 24 11 40 24 15 13 38 26 51 30 12 4
22 14 22 22 0 19 -19 18 -26 -1 -4 -8 -11 -15 -17 -15 -5 0 -2 9 7 19 10 11
15 25 11 30 -9 16 -35 13 -35 -4z"/>
<path d="M1395 2446 c21 -32 27 -33 16 -4 -4 12 -14 24 -20 26 -8 3 -7 -5 4
-22z"/>
<path d="M640 2445 c0 -8 5 -15 10 -15 6 0 10 7 10 15 0 8 -4 15 -10 15 -5 0
-10 -7 -10 -15z"/>
<path d="M1967 2453 c-4 -3 -7 -11 -7 -17 0 -6 5 -5 12 2 6 6 9 14 7 17 -3 3
-9 2 -12 -2z"/>
<path d="M1374 2411 c2 -40 13 -49 14 -11 0 16 -3 32 -7 35 -5 2 -8 -8 -7 -24z"/>
<path d="M466 2408 c-9 -36 -7 -48 9 -48 10 0 15 11 15 35 0 39 -14 47 -24 13z"/>
<path d="M2622 2408 c2 -12 8 -23 14 -25 7 -2 10 6 7 22 -6 30 -26 34 -21 3z"/>
<path d="M1429 2394 c-12 -14 -11 -16 5 -13 11 2 21 10 24 17 5 17 -13 15 -29
-4z"/>
<path d="M230 2379 c0 -5 5 -7 10 -4 6 3 10 8 10 11 0 2 -4 4 -10 4 -5 0 -10
-5 -10 -11z"/>
<path d="M3216 2382 c-3 -6 -1 -14 5 -17 14 -9 20 -2 10 14 -6 8 -11 9 -15 3z"/>
<path d="M1400 2366 c0 -8 5 -18 10 -21 6 -3 10 1 10 9 0 8 -4 18 -10 21 -5 3
-10 -1 -10 -9z"/>
<path d="M320 2345 c0 -15 4 -24 10 -20 6 3 10 12 10 20 0 8 -4 17 -10 20 -6
4 -10 -5 -10 -20z"/>
<path d="M466 2325 c-8 -23 -8 -25 8 -25 8 0 13 7 12 15 -3 23 -13 27 -20 10z"/>
<path d="M1600 2291 c-6 -12 -7 -21 -1 -21 10 0 24 30 17 37 -2 3 -9 -5 -16
-16z"/>
<path d="M1792 2270 c0 -14 2 -19 5 -12 2 6 2 18 0 25 -3 6 -5 1 -5 -13z"/>
<path d="M410 2258 c0 -16 5 -28 10 -28 13 0 13 20 0 40 -8 12 -10 9 -10 -12z"/>
<path d="M534 2232 c-6 -4 -14 -18 -17 -32 l-6 -25 20 24 c25 30 27 49 3 33z"/>
<path d="M3210 2138 c0 -19 18 -43 25 -36 9 9 -4 48 -16 48 -5 0 -9 -6 -9 -12z"/>
<path d="M200 2124 c0 -8 5 -12 10 -9 6 4 8 11 5 16 -9 14 -15 11 -15 -7z"/>
<path d="M318 2124 c-5 -4 -8 -21 -8 -38 0 -21 3 -27 11 -19 6 6 9 23 7 38 -2
15 -6 23 -10 19z"/>
<path d="M3220 2006 c0 -9 5 -16 10 -16 6 0 10 4 10 9 0 6 -4 13 -10 16 -5 3
-10 -1 -10 -9z"/>
<path d="M205 2000 c3 -5 8 -10 11 -10 2 0 4 5 4 10 0 6 -5 10 -11 10 -5 0 -7
-4 -4 -10z"/>
<path d="M340 1989 c0 -5 5 -7 11 -4 7 5 8 -8 4 -41 -5 -33 -4 -46 3 -39 5 6
12 29 14 53 3 35 1 42 -14 42 -10 0 -18 -5 -18 -11z"/>
<path d="M3396 1942 c-2 -4 -1 -14 5 -22 7 -12 9 -10 9 8 0 23 -5 28 -14 14z"/>
<path d="M227 1886 c-5 -21 -6 -41 -3 -44 12 -11 17 7 14 44 l-3 39 -8 -39z"/>
<path d="M281 1844 c0 -11 3 -14 6 -6 3 7 2 16 -1 19 -3 4 -6 -2 -5 -13z"/>
<path d="M300 1821 c0 -5 -3 -16 -6 -25 -4 -11 -1 -16 10 -16 18 0 22 35 6 45
-5 3 -10 2 -10 -4z"/>
<path d="M3242 1784 c2 -11 8 -18 13 -16 15 3 12 25 -3 30 -9 3 -13 -2 -10
-14z"/>
<path d="M186 1773 c-13 -45 -18 -93 -9 -93 6 0 13 23 16 52 7 53 3 74 -7 41z"/>
<path d="M378 1765 c-4 -17 -1 -25 8 -25 8 0 14 11 14 25 0 14 -4 25 -9 25 -5
0 -11 -11 -13 -25z"/>
<path d="M3360 1780 c-21 -6 -22 -8 -8 -14 9 -4 24 -3 34 2 22 12 5 21 -26 12z"/>
<path d="M3190 1743 c0 -24 16 -48 23 -36 8 13 -3 53 -14 53 -5 0 -9 -8 -9
-17z"/>
<path d="M337 1707 c-13 -35 -19 -107 -8 -107 6 0 12 15 12 33 1 17 3 24 6 15
6 -24 23 -23 23 1 0 29 -26 75 -33 58z"/>
<path d="M3270 1656 c0 -9 40 -13 46 -5 3 5 -6 9 -20 9 -14 0 -26 -2 -26 -4z"/>
<path d="M218 1625 c-6 -29 7 -43 16 -19 9 23 7 44 -3 44 -5 0 -11 -11 -13
-25z"/>
<path d="M3112 1626 c2 -16 9 -31 16 -34 17 -5 15 19 -4 43 -15 19 -15 19 -12
-9z"/>
<path d="M3310 1600 c0 -5 5 -10 10 -10 6 0 10 5 10 10 0 6 -4 10 -10 10 -5 0
-10 -4 -10 -10z"/>
<path d="M3382 1555 c-11 -13 -9 -15 8 -15 11 0 20 7 20 15 0 19 -11 19 -28 0z"/>
<path d="M435 1520 c3 -53 4 -55 16 -43 7 7 6 20 -4 44 l-15 34 3 -35z"/>
<path d="M315 1507 c-4 -10 -5 -21 -1 -24 10 -10 18 4 13 24 -4 17 -4 17 -12
0z"/>
<path d="M3150 1484 c0 -14 4 -23 9 -20 5 3 7 15 4 26 -7 28 -13 25 -13 -6z"/>
<path d="M3280 1491 c0 -12 5 -21 10 -21 6 0 10 6 10 14 0 8 -4 18 -10 21 -5
3 -10 -3 -10 -14z"/>
<path d="M3220 1476 c0 -14 5 -26 10 -26 6 0 10 9 10 19 0 11 -4 23 -10 26 -6
4 -10 -5 -10 -19z"/>
<path d="M2997 1454 c-7 -8 3 -37 17 -46 6 -4 12 -46 13 -95 2 -48 0 -82 -3
-75 -10 21 -24 13 -24 -13 0 -32 23 -32 40 0 8 14 19 24 26 21 6 -2 17 1 23 7
8 8 11 7 11 -6 0 -9 5 -17 10 -17 15 0 12 32 -8 71 -18 35 -19 64 -1 53 5 -3
9 0 9 5 0 6 -8 11 -19 11 -10 0 -19 -6 -18 -12 1 -46 -4 -98 -11 -98 -4 0 -8
24 -9 53 -1 51 -42 155 -56 141z"/>
<path d="M375 1377 c-8 -64 -2 -83 16 -44 8 18 8 37 2 64 l-10 38 -8 -58z"/>
<path d="M406 1414 c-9 -22 3 -32 14 -14 12 19 12 30 1 30 -5 0 -12 -7 -15
-16z"/>
<path d="M180 1377 c0 -20 4 -38 9 -42 6 -3 7 10 4 32 -8 50 -13 55 -13 10z"/>
<path d="M326 1395 c-3 -8 -3 -21 0 -29 3 -8 1 -17 -5 -21 -16 -9 -13 -25 4
-25 10 0 15 10 15 29 0 16 3 36 6 45 3 9 2 16 -4 16 -5 0 -12 -7 -16 -15z"/>
<path d="M3233 1403 c9 -2 25 -2 35 0 9 3 1 5 -18 5 -19 0 -27 -2 -17 -5z"/>
<path d="M3364 1395 c-6 -9 -47 -17 -114 -24 l-105 -9 113 1 c109 2 112 1 112
-20 0 -12 -8 -27 -17 -33 -15 -9 -14 -10 7 -4 14 3 34 15 45 25 18 18 18 19 1
19 -14 0 -17 5 -12 24 7 27 -15 42 -30 21z"/>
<path d="M427 1333 c-16 -26 -23 -81 -14 -103 9 -22 11 -17 18 40 7 64 6 79
-4 63z"/>
<path d="M3190 1308 c0 -27 4 -38 15 -38 19 0 19 10 0 46 l-15 29 0 -37z"/>
<path d="M3292 1310 c1 -22 6 -30 20 -30 10 0 18 7 18 15 0 8 -4 15 -10 15 -5
0 -10 7 -10 15 0 8 -4 15 -9 15 -5 0 -9 -13 -9 -30z"/>
<path d="M464 1303 c-6 -10 -12 -42 -13 -71 -1 -29 -6 -63 -12 -75 -9 -20 -9
-19 -6 6 7 43 -16 27 -25 -19 -18 -85 -39 -144 -52 -144 -9 0 -13 10 -12 30 1
17 -4 36 -11 42 -10 8 -13 2 -13 -30 0 -38 11 -56 35 -57 6 0 9 -11 7 -23 -3
-21 -1 -22 17 -13 26 14 31 14 31 -4 0 -8 5 -15 10 -15 13 0 13 37 0 42 -12 4
-15 62 -6 114 6 35 11 41 27 37 16 -5 19 0 19 28 1 33 24 78 35 67 3 -3 1 -27
-4 -54 -17 -88 -21 -134 -12 -134 12 0 32 26 25 33 -4 3 -3 14 1 24 5 10 9 33
10 51 3 57 26 58 28 0 2 -24 8 -35 22 -39 11 -3 18 -12 16 -20 -2 -8 -4 -31
-4 -51 0 -21 -4 -38 -9 -38 -5 0 -6 -5 -2 -11 3 -6 16 -8 27 -5 13 3 25 -1 33
-12 12 -16 14 -16 28 3 8 11 10 22 6 25 -5 3 -13 17 -19 30 l-10 25 0 -27 c-1
-29 -15 -38 -24 -15 -7 20 4 71 18 79 7 4 11 27 10 58 -2 58 -10 72 -19 35 -4
-14 -11 -25 -16 -25 -6 0 -10 -9 -10 -20 0 -12 -7 -20 -17 -20 -13 0 -15 2 -5
8 13 9 7 42 -8 42 -4 0 -10 9 -13 20 -3 11 -11 19 -19 18 -10 -2 -13 11 -12
55 1 66 -10 76 -20 17 -4 -25 -11 -38 -17 -34 -6 3 -8 21 -4 45 7 43 5 48 -11
22z"/>
<path d="M3132 1304 c1 -9 9 -19 16 -22 9 -3 13 2 10 14 -1 9 -9 19 -16 22 -9
3 -13 -2 -10 -14z"/>
<path d="M347 1248 c-7 -20 2 -58 14 -58 11 0 11 27 0 54 -6 17 -8 17 -14 4z"/>
<path d="M687 1230 c-3 -8 -11 -37 -17 -63 -12 -57 -1 -87 33 -87 19 1 20 2 6
13 -22 17 -31 47 -19 63 6 7 10 30 8 51 -2 24 -6 32 -11 23z"/>
<path d="M2817 1214 c-3 -4 -1 -16 5 -27 9 -18 11 -19 20 -4 13 25 -6 49 -25
31z"/>
<path d="M571 1194 c0 -11 3 -14 6 -6 3 7 2 16 -1 19 -3 4 -6 -2 -5 -13z"/>
<path d="M730 1185 c-7 -9 -10 -18 -7 -21 3 -3 10 4 17 15 13 25 8 27 -10 6z"/>
<path d="M388 1183 c-2 -4 -5 -24 -6 -43 l-1 -35 10 39 c8 36 7 59 -3 39z"/>
<path d="M331 1123 c-1 -18 4 -33 9 -33 12 0 12 17 0 45 -7 17 -9 15 -9 -12z"/>
<path d="M807 1143 c-4 -3 -7 -17 -7 -30 0 -24 11 -27 44 -14 19 7 18 8 -4 14
-20 5 -21 8 -10 21 10 13 10 16 -2 16 -8 0 -18 -3 -21 -7z"/>
<path d="M3290 1140 c0 -5 5 -10 10 -10 6 0 10 5 10 10 0 6 -4 10 -10 10 -5 0
-10 -4 -10 -10z"/>
<path d="M3338 1143 c7 -3 16 -2 19 1 4 3 -2 6 -13 5 -11 0 -14 -3 -6 -6z"/>
<path d="M510 1071 c0 -5 5 -13 10 -16 6 -3 10 -2 10 4 0 5 -4 13 -10 16 -5 3
-10 2 -10 -4z"/>
<path d="M192 1045 c0 -16 2 -22 5 -12 2 9 2 23 0 30 -3 6 -5 -1 -5 -18z"/>
<path d="M831 1056 c-11 -13 -11 -20 -3 -28 15 -15 24 -5 20 23 -3 21 -4 21
-17 5z"/>
<path d="M3208 1050 c-2 -6 -13 -12 -26 -13 -14 -1 -22 -8 -22 -19 0 -15 5
-17 25 -12 19 5 25 2 25 -11 0 -13 -6 -16 -25 -13 -16 4 -25 1 -25 -8 0 -21
14 -23 48 -7 36 17 39 25 17 47 -8 8 -12 22 -9 30 3 9 4 16 1 16 -3 0 -7 -5
-9 -10z"/>
<path d="M788 999 c-15 -16 -15 -19 -3 -19 11 0 15 -12 15 -44 0 -26 6 -48 15
-56 13 -10 15 -9 15 10 0 13 7 24 18 27 14 3 17 12 14 39 -4 34 -16 45 -25 22
-2 -7 -8 -1 -12 15 -8 31 -14 32 -37 6z"/>
<path d="M112 990 c0 -14 2 -19 5 -12 2 6 2 18 0 25 -3 6 -5 1 -5 -13z"/>
<path d="M506 995 c-3 -9 0 -15 9 -15 9 0 12 6 9 15 -4 8 -7 15 -9 15 -2 0 -5
-7 -9 -15z"/>
<path d="M1156 994 c-5 -12 -2 -15 10 -10 8 3 21 6 27 6 7 0 6 4 -3 10 -21 14
-27 12 -34 -6z"/>
<path d="M903 993 c-13 -2 -23 -8 -23 -13 0 -13 53 -6 58 8 2 6 0 11 -5 11 -4
-1 -18 -4 -30 -6z"/>
<path d="M1087 993 c-3 -5 -1 -17 3 -28 7 -19 7 -19 18 1 11 21 7 34 -9 34 -4
0 -10 -3 -12 -7z"/>
<path d="M440 948 c0 -4 7 -8 15 -8 8 0 15 4 15 8 0 5 -7 9 -15 9 -8 0 -15 -4
-15 -9z"/>
<path d="M664 933 c-3 -10 -10 -29 -15 -42 -12 -29 -9 -32 19 -24 13 3 19 10
15 17 -4 6 -6 23 -4 38 3 31 -7 38 -15 11z"/>
<path d="M1144 912 c4 -11 7 -41 8 -67 0 -30 6 -49 14 -52 8 -3 14 -11 14 -19
0 -8 5 -14 11 -14 15 0 1 62 -17 76 -8 6 -14 27 -14 47 0 20 -5 39 -11 43 -7
4 -9 0 -5 -14z"/>
<path d="M1305 900 c-3 -5 -1 -10 4 -10 6 0 11 5 11 10 0 6 -2 10 -4 10 -3 0
-8 -4 -11 -10z"/>
<path d="M301 874 c0 -11 3 -14 6 -6 3 7 2 16 -1 19 -3 4 -6 -2 -5 -13z"/>
<path d="M261 853 c-1 -37 9 -47 27 -27 8 9 9 14 2 14 -6 0 -15 10 -20 23 -8
20 -9 19 -9 -10z"/>
<path d="M598 873 c7 -3 16 -2 19 1 4 3 -2 6 -13 5 -11 0 -14 -3 -6 -6z"/>
<path d="M407 803 c-11 -10 -8 -33 4 -33 5 0 7 5 3 11 -3 6 0 15 7 20 8 5 9 9
3 9 -6 0 -14 -3 -17 -7z"/>
<path d="M945 770 c-3 -5 -1 -10 4 -10 6 0 11 5 11 10 0 6 -2 10 -4 10 -3 0
-8 -4 -11 -10z"/>
<path d="M422 686 c7 -8 15 -12 17 -11 5 6 -10 25 -20 25 -5 0 -4 -6 3 -14z"/>
<path d="M461 681 c-1 -17 2 -21 12 -14 6 6 20 9 30 8 9 -2 17 1 17 7 0 6 -11
8 -25 6 -13 -3 -26 0 -29 6 -2 6 -5 0 -5 -13z"/>
<path d="M470 650 c-13 -8 -12 -10 3 -10 9 0 17 5 17 10 0 12 -1 12 -20 0z"/>
<path d="M250 640 c0 -5 5 -10 11 -10 5 0 7 5 4 10 -3 6 -8 10 -11 10 -2 0 -4
-4 -4 -10z"/>
<path d="M341 645 c0 -18 28 -61 29 -44 0 8 -7 24 -15 35 -8 10 -14 15 -14 9z"/>
<path d="M417 620 c-4 -14 -21 -40 -37 -59 -17 -19 -28 -41 -25 -49 3 -7 5
-18 5 -24 0 -6 8 0 19 13 10 13 16 30 13 38 -3 9 -1 12 5 8 13 -8 36 54 31 80
-3 14 -5 12 -11 -7z"/>
<path d="M330 601 c0 -5 5 -13 10 -16 6 -3 10 -2 10 4 0 5 -4 13 -10 16 -5 3
-10 2 -10 -4z"/>
<path d="M550 595 c0 -9 6 -12 15 -9 8 4 15 10 15 15 0 5 -7 9 -15 9 -8 0 -15
-7 -15 -15z"/>
<path d="M755 2219 c-4 -6 -5 -12 -2 -15 2 -3 7 2 10 11 7 17 1 20 -8 4z"/>
<path d="M677 2186 c-11 -8 -14 -17 -8 -20 5 -4 13 -31 16 -61 6 -44 11 -55
25 -55 10 0 21 6 23 13 4 10 6 10 6 0 1 -7 12 -13 26 -13 18 0 25 -5 25 -20 0
-11 -4 -20 -10 -20 -5 0 -10 -5 -10 -11 0 -5 5 -7 12 -3 6 4 17 0 23 -10 12
-15 13 -15 18 4 3 11 -2 27 -10 36 -9 8 -17 29 -18 47 -2 18 -3 37 -4 42 -1 6
-9 1 -18 -10 -15 -20 -15 -20 -10 3 3 15 1 22 -9 22 -8 0 -14 -8 -14 -17 0
-15 -2 -16 -10 -3 -8 12 -10 10 -10 -10 0 -15 -3 -20 -8 -13 -4 7 -7 35 -7 62
0 55 -1 57 -28 37z"/>
<path d="M963 2163 c-13 -2 -23 -9 -23 -15 0 -13 69 -3 84 12 10 10 -16 12
-61 3z"/>
<path d="M911 2134 c0 -11 3 -14 6 -6 3 7 2 16 -1 19 -3 4 -6 -2 -5 -13z"/>
<path d="M2750 2119 c0 -13 195 -57 225 -51 44 8 27 20 -47 32 -40 7 -80 15
-88 18 -20 8 -90 9 -90 1z"/>
<path d="M616 2105 c-3 -8 -1 -15 3 -15 5 0 11 7 15 15 3 8 1 15 -3 15 -5 0
-11 -7 -15 -15z"/>
<path d="M2710 2070 c0 -4 9 -10 20 -13 11 -3 20 -2 20 3 0 4 -9 10 -20 13
-11 3 -20 2 -20 -3z"/>
<path d="M2880 2050 c0 -5 5 -10 10 -10 6 0 10 5 10 10 0 6 -4 10 -10 10 -5 0
-10 -4 -10 -10z"/>
<path d="M2728 2019 c21 -23 14 -39 -18 -39 -16 0 -30 -3 -30 -8 0 -4 -20 -6
-45 -4 -56 5 -60 -20 -5 -28 26 -4 34 -9 32 -22 -2 -11 3 -18 13 -18 8 0 15
-7 15 -15 0 -9 7 -18 15 -21 8 -4 12 -10 9 -15 -3 -5 1 -9 9 -9 9 0 17 15 21
40 6 38 8 40 41 40 27 0 35 4 35 18 0 10 5 23 12 30 9 9 6 11 -10 7 -14 -2
-22 1 -22 11 0 10 12 14 40 14 22 0 40 5 40 10 0 6 -12 10 -27 10 -16 0 -53 3
-83 6 -46 6 -53 4 -42 -7z m52 -19 c0 -5 -5 -10 -11 -10 -5 0 -7 5 -4 10 3 6
8 10 11 10 2 0 4 -4 4 -10z"/>
<path d="M858 2013 c7 -3 16 -2 19 1 4 3 -2 6 -13 5 -11 0 -14 -3 -6 -6z"/>
<path d="M700 1986 c-6 -8 -18 -12 -26 -9 -12 4 -14 -3 -9 -38 7 -47 24 -89
36 -89 3 0 9 9 12 21 3 12 10 18 16 15 5 -4 13 -1 16 4 5 8 13 6 25 -5 12 -11
20 -13 25 -6 3 6 1 11 -5 11 -6 0 -15 12 -21 28 -7 16 -13 22 -16 14 -4 -10
-8 -10 -19 -1 -11 9 -14 8 -15 -7 -1 -14 -3 -13 -9 6 -13 41 -11 46 17 45 14
0 28 6 30 13 6 17 -42 16 -57 -2z"/>
<path d="M2895 1991 c3 -5 -5 -11 -17 -13 -12 -2 -23 -8 -25 -14 -4 -12 41
-24 93 -24 28 0 34 4 34 20 0 17 -3 19 -19 10 -28 -15 -38 -13 -44 10 -3 11
-10 20 -17 20 -6 0 -9 -4 -5 -9z"/>
<path d="M2481 1898 c0 -29 -3 -65 -7 -80 -6 -31 13 -40 22 -10 3 9 10 25 15
34 5 10 9 24 9 32 0 8 5 18 11 21 7 5 8 -4 4 -28 -7 -37 11 -63 21 -30 3 10
10 26 15 35 13 25 11 38 -6 38 -8 0 -15 8 -15 17 0 15 -1 15 -14 -2 -16 -22
-49 -14 -40 10 3 8 2 15 -4 15 -5 0 -10 -24 -11 -52z"/>
<path d="M2430 1903 c0 -9 -7 -24 -15 -33 -10 -11 -13 -27 -8 -53 5 -36 20
-49 27 -24 2 6 10 35 19 64 13 45 13 52 0 57 -21 9 -23 8 -23 -11z"/>
<path d="M2867 1906 c-7 -16 1 -26 20 -26 7 0 13 9 13 20 0 23 -25 27 -33 6z"/>
<path d="M2118 1813 c-32 -8 -19 -23 21 -23 44 0 71 8 71 21 0 9 -61 10 -92 2z"/>
<path d="M1238 1693 c6 -2 18 -2 25 0 6 3 1 5 -13 5 -14 0 -19 -2 -12 -5z"/>
<path d="M1568 1663 c7 -3 16 -2 19 1 4 3 -2 6 -13 5 -11 0 -14 -3 -6 -6z"/>
<path d="M1448 1653 c12 -2 32 -2 45 0 12 2 2 4 -23 4 -25 0 -35 -2 -22 -4z"/>
<path d="M1343 1643 c9 -2 23 -2 30 0 6 3 -1 5 -18 5 -16 0 -22 -2 -12 -5z"/>
<path d="M1448 1623 c7 -3 16 -2 19 1 4 3 -2 6 -13 5 -11 0 -14 -3 -6 -6z"/>
<path d="M784 1468 c3 -13 6 -27 6 -32 0 -4 9 -6 20 -3 11 3 20 1 20 -5 0 -5
5 -6 11 -2 7 4 1 17 -19 35 -37 35 -46 36 -38 7z"/>
<path d="M1240 1381 c0 -5 5 -13 10 -16 6 -3 10 -2 10 4 0 5 -4 13 -10 16 -5
3 -10 2 -10 -4z"/>
<path d="M1440 380 c0 -5 5 -10 10 -10 6 0 10 5 10 10 0 6 -4 10 -10 10 -5 0
-10 -4 -10 -10z"/>
<path d="M2280 455 c-7 -8 -8 -19 -3 -27 4 -7 8 -20 8 -28 0 -34 20 -22 26 15
9 55 -4 72 -31 40z"/>
<path d="M1220 609 c0 -5 5 -7 10 -4 6 3 10 8 10 11 0 2 -4 4 -10 4 -5 0 -10
-5 -10 -11z"/>
<path d="M668 483 c7 -3 16 -2 19 1 4 3 -2 6 -13 5 -11 0 -14 -3 -6 -6z"/>
<path d="M895 379 c-11 -17 1 -21 15 -4 8 9 8 15 2 15 -6 0 -14 -5 -17 -11z"/>
<path d="M3555 3550 c-6 -10 3 -261 10 -268 3 -3 5 58 5 136 0 78 -2 142 -4
142 -3 0 -7 -4 -11 -10z"/>
</g>
</svg>
