<?xml version="1.0" standalone="no"?>
<!DOCTYPE svg PUBLIC "-//W3C//DTD SVG 20010904//EN"
 "http://www.w3.org/TR/2001/REC-SVG-20010904/DTD/svg10.dtd">
<svg version="1.0" xmlns="http://www.w3.org/2000/svg"
 width="447.000000pt" height="224.000000pt" viewBox="0 0 447.000000 224.000000"
 preserveAspectRatio="xMidYMid meet">
<metadata>
Created by potrace 1.16, written by Peter Selinger 2001-2019
</metadata>
<g transform="translate(0.000000,224.000000) scale(0.100000,-0.100000)"
fill="#000000" stroke="none">
<path d="M4353 2205 c-10 -11 -31 -13 -98 -8 -72 5 -85 4 -85 -9 0 -24 -34
-28 -170 -22 -69 2 -134 5 -145 5 -10 0 -25 5 -32 10 -6 6 -22 8 -33 4 -12 -4
-63 -8 -113 -10 -51 -1 -137 -7 -192 -14 -175 -19 -192 -20 -170 -11 11 5 32
9 47 9 15 1 30 6 33 11 7 11 -83 7 -225 -10 -40 -5 -70 -4 -77 2 -7 6 -25 7
-40 3 -30 -7 -236 -8 -272 0 -14 2 -30 0 -38 -6 -9 -8 -13 -8 -13 0 0 8 -29 9
-97 5 -231 -16 -994 -31 -1037 -22 -10 3 -36 -1 -58 -9 -21 -7 -62 -13 -91
-12 -28 0 -64 -3 -80 -6 -15 -3 -27 -1 -27 5 0 5 8 10 17 10 11 0 14 3 7 10
-11 11 -50 13 -125 4 -46 -5 -59 -3 -74 12 -12 12 -33 18 -69 19 -28 0 -58 5
-65 10 -20 12 -114 6 -123 -8 -6 -9 -10 -9 -16 0 -7 12 -79 18 -181 15 -61 -2
-64 -9 -8 -16 44 -6 59 -14 52 -26 -8 -12 39 -24 70 -18 14 3 25 2 25 -2 0 -4
11 -5 25 -3 13 3 37 1 52 -4 15 -6 55 -7 88 -3 69 8 95 3 95 -16 0 -11 38 -13
192 -14 241 0 273 -4 312 -41 17 -16 40 -32 51 -35 11 -4 24 -13 30 -20 5 -7
31 -19 56 -27 25 -9 63 -26 85 -39 l39 -23 -90 -5 c-71 -4 -83 -7 -55 -12 19
-4 63 -5 97 -2 68 5 92 -3 152 -54 l34 -29 -41 -7 c-23 -3 -42 -10 -42 -15 0
-12 57 -19 94 -11 24 5 40 0 68 -20 45 -30 47 -37 11 -43 -16 -2 -5 -5 24 -6
41 -1 59 -7 92 -33 22 -18 62 -48 88 -66 27 -18 57 -39 68 -46 31 -22 15 -26
-63 -15 -47 7 -78 7 -90 0 -14 -8 -30 -5 -63 12 l-43 21 34 7 c19 4 43 3 53
-3 34 -18 30 0 -4 21 -40 25 -56 27 -39 6 11 -13 8 -15 -20 -15 -28 0 -31 2
-20 15 11 13 5 15 -41 15 -32 1 -62 7 -73 15 -11 8 -27 15 -37 15 -21 0 -93
30 -87 36 3 2 25 5 49 5 52 2 66 8 48 20 -10 6 -4 9 19 9 17 0 32 4 32 9 0 6
-58 9 -137 9 -76 -1 -148 2 -160 5 -57 17 -68 19 -53 8 11 -8 -14 -11 -92 -11
-61 0 -109 4 -113 10 -3 6 -24 10 -46 10 -21 0 -39 -4 -39 -10 0 -5 6 -10 13
-11 6 -1 26 -3 42 -6 17 -2 42 -4 57 -4 16 0 63 -11 105 -25 85 -27 96 -31
163 -62 41 -19 42 -21 18 -21 -17 -1 -28 -7 -28 -15 0 -8 -5 -18 -12 -22 -6
-4 -9 -3 -5 2 3 5 0 20 -7 33 -9 16 -16 20 -20 12 -4 -6 -13 -8 -19 -4 -6 4
-26 8 -44 10 -18 2 -54 15 -79 28 -26 14 -55 25 -65 25 -10 0 -21 5 -24 10 -3
6 -24 10 -46 10 -32 0 -41 5 -50 24 -10 22 -49 34 -49 15 0 -20 44 -52 77 -56
21 -3 40 -8 43 -12 3 -3 16 -7 30 -7 28 -2 120 -42 120 -53 0 -11 -71 -1 -105
14 -16 7 -46 15 -65 18 -50 7 -90 24 -96 42 -4 10 -13 13 -26 9 -11 -3 -41 5
-71 19 -29 14 -65 28 -81 32 -17 3 -41 14 -55 24 -14 10 -43 24 -63 30 -21 7
-38 18 -38 25 0 6 -8 12 -19 13 -48 4 -273 91 -266 103 3 4 -8 10 -23 13 -15
3 -35 12 -45 19 -16 12 -17 17 -6 41 7 15 16 27 20 27 5 0 14 18 20 39 8 27
19 41 33 44 12 2 4 5 -16 6 -20 0 -40 6 -43 11 -3 6 -22 10 -41 10 -21 0 -33
4 -29 10 4 6 11 8 16 5 5 -4 9 -1 9 5 0 12 -217 13 -225 0 -3 -4 -25 -4 -49 1
-64 12 -315 18 -321 9 -3 -5 2 -13 12 -18 16 -9 15 -12 -3 -38 -17 -26 -19
-46 -18 -189 3 -303 2 -350 -2 -385 -3 -19 0 -111 5 -205 6 -93 13 -231 16
-305 3 -74 9 -187 15 -250 5 -63 10 -158 11 -210 1 -52 6 -108 11 -125 6 -16
13 -102 17 -190 6 -156 7 -160 29 -163 12 -2 22 -9 22 -17 0 -17 62 -23 340
-31 124 -3 233 -11 243 -16 12 -6 23 -6 33 3 17 14 182 13 200 -2 14 -11 214
0 231 13 7 6 19 4 32 -4 15 -9 26 -10 38 -2 10 6 76 12 148 13 71 1 133 5 137
7 24 15 0 24 -62 24 -58 0 -68 2 -64 15 5 12 16 14 43 10 29 -4 32 -3 14 4
-20 9 -21 13 -11 41 11 33 3 54 -12 30 -8 -12 -10 -9 -11 10 0 23 -2 22 -13
-8 -6 -18 -15 -30 -19 -26 -11 11 -8 66 3 59 6 -3 10 3 10 14 0 27 17 35 29
14 9 -17 11 -17 25 2 13 18 15 18 21 3 4 -9 2 -25 -4 -36 -9 -16 -7 -19 7 -18
14 1 17 -8 17 -51 -1 -36 3 -53 11 -53 7 0 16 5 19 10 3 6 22 10 41 10 30 0
34 3 35 28 0 23 1 24 8 7 7 -18 10 -17 30 15 11 19 21 29 21 21 0 -11 4 -9 16
5 14 17 15 17 10 1 -3 -10 -6 -27 -6 -38 0 -14 -7 -19 -26 -19 -22 0 -25 -2
-14 -15 10 -12 16 -13 27 -4 7 7 16 9 20 5 13 -12 -7 -19 -74 -23 -71 -6 -81
-8 -69 -20 8 -8 259 -8 272 0 6 3 43 -1 84 -9 41 -8 114 -14 163 -14 51 0 87
-4 87 -10 0 -13 43 -13 56 -1 5 6 148 12 329 15 176 3 335 8 353 12 18 3 38 2
45 -4 7 -6 69 -9 147 -9 74 1 123 3 107 5 -55 7 -14 22 56 21 40 -1 64 -3 54
-6 -41 -11 1 -23 79 -23 46 0 93 -5 103 -12 14 -8 53 -7 167 6 175 19 234 20
234 5 0 -8 5 -8 15 1 11 9 68 11 235 7 125 -3 220 -1 220 4 0 5 -7 9 -15 9
-20 0 -19 10 3 26 16 13 16 13 0 14 -10 0 -18 6 -18 14 0 8 -2 23 -5 33 -3 11
-1 9 6 -4 14 -27 26 -29 32 -6 3 10 5 -4 6 -30 1 -34 5 -47 13 -45 19 7 25 57
38 308 9 173 9 252 0 340 -18 176 -19 190 -7 190 6 0 8 25 4 74 -6 71 -6 75
15 78 22 3 22 3 2 22 -17 18 -19 35 -19 200 -1 145 2 183 13 192 12 9 13 17 2
48 -6 20 -10 43 -7 50 3 7 1 32 -3 57 -4 24 -11 125 -14 224 -7 196 -14 262
-27 271 -5 3 -9 21 -9 40 0 36 -8 42 -27 19z m-573 -55 c0 -6 -21 -10 -47 -9
-28 0 -41 3 -31 7 28 11 78 12 78 2z m533 -31 c3 -23 11 -45 18 -49 7 -5 17
-67 25 -171 7 -90 18 -184 23 -209 14 -60 14 -323 1 -315 -5 3 -10 31 -10 61
0 30 -4 54 -9 54 -11 0 -21 -25 -21 -56 0 -13 -4 -24 -10 -24 -5 0 -10 16 -10
35 0 30 -3 34 -22 31 -16 -2 -27 -15 -39 -50 -13 -40 -18 -45 -29 -32 -10 13
-9 17 4 22 9 3 16 17 16 31 0 31 25 52 62 53 37 0 58 10 58 26 0 18 -18 18
-54 -1 -36 -19 -76 -19 -76 -1 0 8 6 17 13 19 6 3 -10 6 -36 6 -34 1 -47 -3
-45 -11 3 -7 -5 -20 -16 -30 -20 -17 -20 -17 27 -11 49 6 59 -1 30 -23 -11 -8
-13 -13 -5 -14 6 0 12 -5 12 -12 0 -6 -3 -9 -6 -6 -3 4 -34 -2 -70 -11 -35
-10 -74 -17 -86 -16 -13 1 -34 3 -48 4 -24 2 -24 2 -6 16 10 8 23 12 28 9 5
-3 24 -8 41 -10 18 -2 26 -1 20 2 -32 14 -9 24 40 18 28 -4 50 -4 47 -1 -22
23 -84 66 -91 61 -5 -3 -17 0 -26 5 -14 8 -8 10 29 11 26 0 49 4 52 9 5 8 -79
5 -121 -4 -13 -3 -23 -1 -23 5 0 5 7 10 15 10 8 0 25 5 38 12 49 25 56 27 62
18 8 -13 205 -13 205 0 0 6 -9 10 -19 10 -14 0 -21 8 -24 28 -4 26 -4 26 -6
-4 -1 -29 -3 -31 -33 -29 -18 2 -53 3 -78 4 l-45 1 30 16 c17 8 34 19 39 24
15 15 -2 24 -19 10 -12 -10 -21 -10 -45 0 -24 10 -33 10 -45 0 -12 -10 -15
-10 -15 4 0 12 -9 16 -37 15 l-38 -1 35 -12 c33 -12 30 -13 -70 -20 -119 -8
-184 -13 -252 -21 -49 -5 -66 8 -25 21 12 4 50 20 85 35 34 16 78 29 97 29 19
0 35 5 35 11 0 7 -10 9 -25 5 -14 -4 -25 -4 -25 -1 0 10 67 39 105 44 22 3 38
9 35 13 -6 8 48 45 105 73 22 11 70 42 106 68 37 26 69 47 73 47 3 0 14 7 23
15 10 8 27 21 38 29 16 11 17 17 8 27 -10 10 -21 4 -55 -25 -99 -85 -153 -116
-204 -116 -23 0 -44 -4 -46 -9 -1 -5 -21 -11 -43 -15 -57 -8 -57 -9 10 -15
l60 -6 -55 -27 c-89 -44 -111 -50 -190 -56 -102 -8 -136 -7 -199 1 -54 7 -81
17 -46 17 10 0 15 3 11 7 -3 4 6 13 21 20 26 11 24 12 -22 7 -27 -3 -59 -8
-69 -11 -18 -5 -18 -3 3 32 26 44 22 59 -6 20 -33 -48 -52 -60 -121 -71 -65
-11 -65 -12 -21 -13 55 -1 68 -19 35 -50 -17 -16 -37 -21 -82 -23 -42 -1 -48
-2 -21 -5 20 -2 37 -7 37 -11 0 -4 -14 -22 -31 -39 -23 -25 -39 -33 -65 -33
-34 0 -45 -12 -22 -26 6 -4 14 -2 16 4 4 13 32 17 32 5 0 -3 -7 -15 -17 -25
-21 -23 -73 -25 -73 -2 0 24 39 74 58 75 11 0 12 3 5 6 -18 7 -16 30 3 37 9 4
14 9 11 13 -12 11 27 63 48 64 17 1 17 2 3 6 -10 2 -18 6 -18 7 0 1 13 29 29
62 16 32 29 64 31 69 4 23 24 35 59 37 l36 1 -32 4 c-38 5 -39 9 -13 43 16 22
31 27 117 37 l98 12 -92 -4 c-87 -3 -93 -2 -93 16 0 10 5 19 10 19 6 0 10 6
10 14 0 15 48 19 351 31 187 8 211 11 227 32 10 14 12 14 12 2 0 -8 -5 -20
-12 -27 -6 -6 -8 -15 -4 -19 4 -5 13 0 20 9 8 11 32 19 63 22 46 5 49 4 49
-17 -1 -17 8 -25 39 -35 22 -7 55 -12 72 -10 18 2 34 -1 36 -7 3 -5 8 -7 12
-3 15 14 -8 28 -48 28 -23 0 -52 3 -64 6 -27 7 -39 44 -14 44 9 0 21 4 27 9 5
5 27 11 49 14 22 2 43 4 46 5 4 1 9 -17 12 -39z m-3956 17 c-3 -8 -1 -16 4
-18 7 -2 6 -13 -2 -32 -12 -26 -14 -26 -26 -10 -17 23 -16 39 3 58 19 20 28
20 21 2z m113 4 c0 -5 -5 -10 -11 -10 -5 0 -7 5 -4 10 3 6 8 10 11 10 2 0 4
-4 4 -10z m70 -15 c0 -7 -20 -35 -45 -61 -27 -30 -47 -63 -51 -84 -4 -19 -17
-57 -29 -85 -13 -27 -25 -59 -29 -69 -4 -10 -9 -17 -12 -14 -2 3 0 17 5 31 7
18 7 28 -1 33 -18 11 -2 109 24 144 17 24 22 43 21 78 -1 25 1 41 5 35 4 -6
25 -11 46 -10 21 1 34 3 27 5 -22 7 -11 19 14 14 14 -2 25 -10 25 -17z m1523
8 c-7 -2 -21 -2 -30 0 -10 3 -4 5 12 5 17 0 24 -2 18 -5z m1572 -3 c-3 -5 -18
-10 -33 -10 -21 0 -24 2 -12 10 20 13 53 13 45 0z m-2985 -11 c0 -6 -9 -22
-20 -36 -17 -22 -20 -23 -20 -7 0 16 -2 17 -10 4 -5 -8 -10 -28 -10 -43 0 -32
-21 -77 -44 -96 -13 -11 -16 -11 -16 3 0 9 4 16 8 16 15 0 28 55 21 84 -8 28
3 64 22 76 16 11 69 10 69 -1z m1253 4 c-7 -2 -19 -2 -25 0 -7 3 -2 5 12 5 14
0 19 -2 13 -5z m657 -3 c-20 -13 -33 -13 -25 0 3 6 14 10 23 10 15 0 15 -2 2
-10z m-2318 -22 c-5 -7 -13 -30 -17 -50 -4 -21 -11 -36 -15 -33 -7 4 -5 24 5
60 1 6 3 15 5 20 2 12 23 26 29 20 2 -3 -1 -10 -7 -17z m68 13 c0 -6 -4 -13
-10 -16 -5 -3 -10 1 -10 9 0 9 5 16 10 16 6 0 10 -4 10 -9z m2580 -5 c0 -10 9
-14 28 -13 l27 2 -3 -75 c-1 -41 -6 -89 -11 -106 -5 -18 -5 -38 0 -45 12 -20
12 -192 -1 -184 -5 3 -10 0 -10 -9 0 -8 5 -16 12 -18 7 -3 11 -37 12 -99 1
-78 4 -93 16 -90 36 9 126 -1 136 -14 6 -8 16 -15 23 -15 6 0 11 -6 11 -12 1
-8 6 -6 14 5 7 9 22 17 32 17 18 -1 18 -1 2 -11 -10 -5 -18 -16 -18 -24 0 -20
-84 -30 -139 -17 -25 6 -70 14 -99 17 -41 6 -51 4 -47 -7 4 -10 -7 -13 -42
-13 -44 0 -48 2 -46 23 2 17 -2 22 -21 22 -37 0 -76 18 -76 35 0 13 -14 20
-64 27 -11 2 -21 9 -24 17 -8 23 88 8 109 -18 10 -12 22 -21 27 -21 5 0 15 -7
22 -15 8 -9 21 -13 36 -9 15 4 24 2 24 -5 0 -6 7 -11 15 -11 8 0 15 3 15 8 0
9 -61 85 -72 90 -5 2 -8 9 -8 17 0 7 -7 18 -15 25 -23 19 -18 -3 10 -45 30
-44 26 -55 -9 -27 -14 10 -22 22 -19 26 6 6 -12 10 -30 7 -14 -2 -150 97 -369
272 l-110 87 84 1 c45 0 99 2 119 4 33 2 39 -2 73 -48 29 -38 34 -52 24 -58
-9 -6 -7 -9 8 -9 12 0 27 -7 34 -15 7 -8 16 -15 20 -15 17 0 -3 37 -45 85 -35
39 -41 52 -32 63 8 11 8 13 -4 10 -15 -3 -79 61 -79 78 0 16 -42 36 -52 26 -5
-5 6 -23 30 -44 22 -20 42 -39 45 -44 3 -5 -52 -9 -123 -9 -122 0 -130 1 -154
24 -29 27 -33 41 -12 41 8 0 18 5 21 10 4 7 -6 10 -28 8 -34 -2 -95 27 -82 40
3 3 71 5 152 4 80 -1 151 2 157 7 6 5 58 11 114 13 94 3 103 1 98 -14 -2 -11
1 -18 10 -18 8 0 14 -7 14 -15 0 -8 5 -15 11 -15 8 0 10 12 6 33 -5 30 -2 34
26 47 44 19 91 27 165 29 48 1 62 -2 62 -13z m515 -6 c8 -13 -13 -90 -25 -90
-6 0 -10 -5 -10 -12 0 -6 -11 -26 -25 -44 -14 -18 -25 -36 -25 -41 0 -4 -11
-28 -24 -53 -13 -25 -26 -58 -30 -73 -4 -16 -17 -39 -29 -51 -13 -13 -21 -28
-19 -34 2 -7 -7 -12 -22 -12 -14 0 -26 4 -26 8 0 4 -16 6 -35 4 -53 -6 -42
-22 15 -22 55 0 60 -7 29 -49 -17 -23 -28 -28 -71 -30 l-50 -1 7 52 c4 29 13
62 20 73 6 11 14 46 17 78 3 33 9 62 14 65 5 4 7 23 4 42 l-6 35 -8 -30 c-5
-16 -10 -43 -12 -60 -2 -16 -7 -39 -11 -50 -4 -11 -8 -27 -9 -35 -14 -71 -37
-156 -45 -166 -5 -6 -7 -18 -3 -27 3 -8 1 -18 -5 -22 -7 -4 -11 14 -11 53 0
48 4 61 18 67 15 6 14 8 -5 16 -18 6 -23 16 -23 43 0 19 -4 38 -10 41 -6 4 -7
-11 -4 -39 5 -31 3 -46 -5 -46 -6 0 -11 3 -12 8 0 4 -3 18 -5 32 -5 26 -4 257
0 300 2 14 4 32 4 40 2 12 27 15 150 18 119 2 213 9 274 21 4 0 10 -3 13 -9z
m-3141 -47 c-2 -21 -8 -63 -13 -93 l-9 -55 -1 46 c-1 60 10 139 19 139 5 0 6
-17 4 -37z m1589 31 c42 -4 74 -10 72 -14 -2 -4 -24 -6 -47 -4 -24 2 -71 5
-105 7 -35 1 -63 5 -63 10 0 9 43 9 143 1z m-186 -16 c2 6 11 12 18 12 7 0 15
-6 17 -12 4 -10 43 -14 144 -15 90 -2 132 1 119 6 -19 9 -19 10 3 10 24 1 92
-44 92 -60 0 -5 -79 -9 -175 -9 -108 0 -175 4 -175 10 0 5 -16 16 -35 24 -22
9 -35 22 -35 33 0 15 2 16 11 3 8 -11 12 -12 16 -2z m-1490 -130 c-2 -24 -4
-7 -4 37 0 44 2 63 4 43 2 -21 2 -57 0 -80z m334 39 c-12 -24 -21 -49 -21 -57
0 -7 -3 -10 -6 -7 -4 3 4 34 17 68 12 35 25 57 27 51 2 -7 -6 -32 -17 -55z
m1621 -19 c15 -18 25 -34 23 -36 -2 -2 -33 -6 -69 -9 -120 -9 -129 -23 -10
-17 l110 5 45 -36 c24 -21 45 -41 47 -45 1 -4 -34 -7 -79 -8 -45 0 -86 -5 -92
-11 -6 -6 -16 -11 -22 -11 -15 0 -146 96 -140 102 3 2 -1 5 -8 5 -8 0 -43 17
-78 39 l-64 39 80 6 c44 3 114 6 155 7 72 2 75 1 102 -30z m-1985 -130 c-2
-29 -3 -6 -3 52 0 58 1 81 3 53 2 -29 2 -77 0 -105z m503 124 c21 -4 82 -35
97 -49 7 -6 18 -13 25 -15 6 -2 9 -8 6 -14 -4 -5 -45 -7 -98 -4 -88 5 -114 0
-89 -16 20 -12 209 -18 209 -7 0 16 39 23 53 9 6 -6 25 -12 40 -12 33 -1 127
-43 127 -56 0 -5 4 -6 10 -3 5 3 36 -7 67 -24 32 -16 69 -32 83 -36 49 -13
110 -47 110 -61 0 -8 11 -14 28 -15 72 -2 86 -5 90 -17 3 -10 -5 -12 -34 -6
-22 4 -49 8 -61 8 -13 0 -23 5 -23 10 0 6 -5 5 -12 -2 -17 -17 -31 -15 -25 2
7 17 -11 24 -65 28 -21 1 -38 6 -38 10 0 4 -9 8 -20 8 -11 0 -20 -4 -20 -10 0
-5 5 -10 10 -10 19 0 10 -36 -14 -59 -13 -12 -41 -25 -62 -29 l-39 -6 35 -6
c19 -3 35 -9 35 -15 0 -14 -135 -47 -172 -41 -18 3 -35 0 -39 -5 -4 -6 -10 -6
-19 1 -10 8 -36 9 -62 1 -2 -1 -4 -1 -5 -1 -2 0 -19 -5 -38 -10 -19 -6 -66
-13 -105 -16 -38 -3 -75 -10 -83 -16 -7 -6 -29 -14 -49 -17 -20 -3 -38 -11
-40 -18 -3 -9 5 -9 32 0 30 9 38 8 52 -6 23 -22 10 -33 -49 -41 -40 -6 -47 -5
-42 7 4 13 -7 14 -73 10 -62 -4 -76 -3 -66 7 6 7 28 14 48 15 20 1 41 8 46 16
4 8 10 13 11 11 6 -8 58 11 53 18 -3 5 3 14 12 20 25 15 -53 2 -87 -15 -44
-21 -90 -26 -90 -10 0 8 7 15 16 15 9 0 12 5 8 11 -13 22 35 47 81 41 25 -2
45 0 49 7 5 7 -4 11 -27 11 -39 0 -51 8 -37 25 6 8 28 10 60 7 35 -3 50 -1 50
7 0 7 4 10 9 7 5 -4 41 -7 80 -7 39 -1 71 -5 71 -11 0 -5 6 -6 13 -2 6 4 9 3
4 -1 -4 -5 -29 -8 -56 -6 -53 3 -63 -4 -55 -36 6 -21 6 -21 67 -2 34 10 72 19
85 19 13 0 22 6 22 15 0 10 10 15 28 15 25 1 26 1 7 13 -11 6 -49 12 -85 13
-36 1 -95 4 -132 9 -55 6 -67 11 -72 28 -3 13 2 27 15 38 17 15 18 20 7 44 -9
20 -9 28 0 34 16 9 41 96 35 120 -2 10 3 25 11 34 9 8 16 19 16 24 0 10 43 30
50 23 3 -3 12 -6 20 -8z m-431 -179 c-1 -139 -3 -149 -10 -88 -5 39 -7 90 -5
115 3 25 5 64 5 88 1 23 3 42 6 42 3 0 4 -71 4 -157z m296 77 c-24 -78 -32
-70 -9 9 9 34 19 59 22 56 3 -3 -3 -32 -13 -65z m-336 -39 c1 -48 -5 -36 -13
24 -4 34 -3 43 3 30 5 -11 10 -35 10 -54z m62 -88 c-9 -15 -10 -12 -11 17 0
19 4 46 8 60 6 21 7 19 10 -17 2 -24 -1 -51 -7 -60z m2004 68 c-16 -3 -25 -9
-20 -13 15 -8 76 3 69 13 -15 24 24 4 73 -38 53 -45 142 -111 226 -168 20 -14
37 -30 37 -35 0 -13 -57 -13 -65 0 -4 6 -11 8 -16 5 -15 -10 -10 -22 11 -28
11 -3 20 -11 20 -19 0 -18 -75 -12 -91 8 -6 8 -17 14 -25 14 -7 0 -19 6 -26
14 -8 7 -33 23 -55 35 -23 11 -44 25 -48 31 -3 5 -31 26 -62 47 -48 31 -53 38
-37 45 18 7 18 8 -1 5 -23 -4 -85 24 -104 47 -12 14 -10 16 17 16 24 0 30 4
26 15 -5 12 4 15 47 14 43 -1 48 -3 24 -8z m-1758 -33 c-3 -8 -6 -5 -6 6 -1
11 2 17 5 13 3 -3 4 -12 1 -19z m3008 12 c-3 -5 -11 -10 -16 -10 -6 0 -7 5 -4
10 3 6 11 10 16 10 6 0 7 -4 4 -10z m35 -16 c0 -9 11 -14 35 -14 25 0 35 -4
35 -15 0 -17 10 -16 157 5 98 14 103 13 57 -15 -34 -20 -58 -25 -144 -29 -81
-4 -107 -9 -124 -24 -60 -52 -136 -72 -136 -34 -1 15 -2 15 -13 1 -13 -17 -87
-35 -87 -22 0 10 47 52 78 70 13 8 23 9 27 3 8 -13 65 -13 65 0 0 6 -13 10
-30 10 -35 0 -36 2 -14 35 11 17 26 25 45 25 20 0 29 5 29 16 0 8 5 12 10 9 6
-3 10 -13 10 -21z m-3433 -26 c-3 -7 -5 -2 -5 12 0 14 2 19 5 13 2 -7 2 -19 0
-25z m1628 -20 c-15 -6 -13 -7 10 -3 29 4 124 -31 125 -47 0 -16 -47 -7 -135
25 -78 28 -86 32 -57 35 17 2 32 8 32 13 0 6 9 5 22 -2 22 -12 22 -12 3 -21z
m190 5 c-22 -3 -43 -10 -47 -16 -5 -9 -12 -7 -25 6 -16 16 -14 17 47 15 47 -1
54 -3 25 -5z m-1638 -55 c-2 -13 -4 -5 -4 17 -1 22 1 32 4 23 2 -10 2 -28 0
-40z m2713 -67 c0 -96 -16 -117 -18 -24 -1 36 -5 69 -8 74 -6 11 4 29 17 29 5
0 9 -36 9 -79z m681 53 c-38 -18 -68 -24 -100 -22 -45 3 -46 3 -21 18 25 14
90 27 145 28 26 0 24 -3 -24 -24z m-3280 -21 c-8 -15 -10 -15 -11 -2 0 17 10
32 18 25 2 -3 -1 -13 -7 -23z m99 6 c0 -11 -40 -32 -47 -25 -9 9 15 33 32 33
8 0 15 -4 15 -8z m1387 5 c-3 -3 -12 -4 -19 -1 -8 3 -5 6 6 6 11 1 17 -2 13
-5z m-1826 -120 c-4 -35 -5 -37 -12 -14 -10 34 -11 105 -1 114 10 11 19 -54
13 -100z m1271 86 c15 0 18 -6 15 -35 -3 -20 0 -38 4 -41 5 -3 9 7 9 23 1 25
2 26 14 11 7 -10 22 -18 32 -18 11 0 15 4 9 8 -5 4 -16 18 -23 31 -12 21 -12
23 1 18 9 -3 21 1 27 9 14 16 60 19 60 4 0 -5 -6 -11 -12 -12 -7 0 -17 -2 -23
-3 -5 -2 -15 -3 -22 -4 -9 -1 -8 -8 3 -28 7 -16 14 -41 15 -58 0 -16 5 -39 10
-50 6 -13 7 5 3 53 -4 49 -3 72 5 72 6 0 11 -5 11 -11 0 -8 5 -7 16 2 13 10
17 10 24 0 6 -10 9 -10 15 -1 10 17 72 4 110 -23 16 -12 36 -21 42 -19 7 2 13
-6 13 -16 0 -11 7 -25 15 -32 13 -10 15 -9 15 9 l0 21 39 -20 c41 -20 42 -24
56 -118 4 -24 14 -46 22 -49 8 -3 10 -8 5 -12 -16 -10 -2 -61 15 -54 19 7 11
71 -17 128 -19 40 -26 75 -14 75 3 0 14 -5 25 -10 14 -8 19 -21 19 -50 0 -21
5 -42 11 -46 9 -5 10 3 5 28 -8 46 5 51 72 26 46 -17 51 -22 46 -42 -9 -37 41
-216 61 -216 5 0 4 -4 -3 -8 -10 -7 -10 -15 -2 -36 8 -23 13 -26 24 -16 11 9
12 18 4 41 -5 16 -14 29 -20 29 -6 0 -7 7 -4 16 6 16 -10 89 -24 109 -4 6 -10
29 -14 53 l-6 42 50 -25 c28 -14 75 -42 106 -61 30 -19 63 -34 73 -32 10 2 25
-3 34 -11 11 -8 17 -9 17 -3 0 6 6 9 14 6 16 -6 36 49 36 101 0 17 5 37 11 45
8 11 9 -8 6 -68 -4 -66 -2 -84 9 -89 9 -3 12 -13 8 -27 -3 -15 2 -28 18 -42
27 -23 43 -25 43 -5 0 20 18 24 37 9 13 -10 18 -35 22 -100 4 -83 3 -88 -15
-88 -11 0 -18 4 -15 9 11 18 -6 42 -25 36 -14 -5 -17 -2 -13 8 3 8 -1 17 -10
20 -12 5 -13 0 -6 -24 16 -56 -7 -76 -42 -37 -18 21 -21 22 -32 6 -11 -15 -14
-13 -31 13 -23 33 -32 36 -38 12 -3 -10 -5 -4 -4 13 1 17 -8 51 -20 75 -12 24
-25 57 -30 73 -4 16 -14 31 -22 34 -11 4 -12 -6 -8 -44 3 -27 9 -58 13 -68 7
-19 8 -19 14 -1 14 40 17 -18 4 -60 -11 -31 -13 -33 -10 -11 2 17 -3 41 -12
54 -15 24 -16 24 -23 4 -5 -14 -14 -19 -27 -15 -11 2 -38 -4 -61 -15 -32 -16
-41 -17 -41 -6 0 8 -3 14 -8 14 -9 0 -47 122 -66 215 -8 39 -18 78 -21 88 -8
20 -25 23 -25 5 0 -16 55 -227 65 -250 5 -13 2 -18 -9 -18 -11 0 -20 15 -28
44 -6 25 -15 43 -19 40 -7 -4 2 -51 15 -84 6 -16 -35 -70 -54 -70 -5 0 -10 -7
-10 -17 0 -9 -3 -13 -7 -10 -3 4 -1 18 7 31 16 31 8 54 -24 66 -15 5 -28 20
-32 35 -3 14 -9 25 -14 25 -4 0 -12 10 -19 23 -11 21 -11 20 -8 -8 2 -16 1
-41 -4 -55 l-7 -25 -7 23 c-4 12 -12 22 -17 22 -6 0 -8 -7 -4 -15 3 -8 2 -15
-3 -15 -5 0 -11 10 -15 23 -4 16 -8 19 -15 9 -6 -10 -10 -5 -14 18 -7 33 -27
33 -27 0 0 -10 -6 -21 -12 -23 -10 -4 -9 -8 2 -17 12 -8 9 -9 -12 -4 -18 4
-28 2 -28 -5 0 -6 -19 -11 -44 -11 -36 0 -46 4 -51 20 -8 25 -25 26 -26 3 0
-10 -6 -1 -12 20 -13 41 -26 40 -28 -2 -1 -17 -3 -20 -6 -8 -5 18 -23 24 -23
6 0 -15 -26 -39 -34 -32 -3 4 -6 55 -6 114 0 101 -2 109 -26 138 -14 17 -34
31 -43 31 -40 0 -50 21 -39 83 5 31 14 57 19 57 5 0 9 5 9 10 0 6 -6 10 -14
10 -7 0 -16 9 -19 19 -6 24 3 35 17 21 5 -5 18 -10 28 -10z m685 -14 c-1 -5
15 -14 36 -19 39 -10 53 -29 15 -20 -37 8 -117 47 -122 59 -3 8 7 8 34 0 21
-5 38 -14 37 -20z m2088 24 c-4 -7 -17 -9 -31 -6 -18 5 -22 3 -18 -9 7 -17 0
-18 -91 -16 -33 1 -67 -3 -75 -9 -11 -8 2 -9 50 -5 73 8 73 -2 0 -29 -37 -13
-73 -21 -122 -25 -5 -1 -8 -8 -8 -16 0 -17 -12 -19 -38 -6 -9 5 -32 16 -50 23
-32 14 -32 15 -10 26 13 6 52 13 88 14 48 2 65 7 65 17 0 8 9 15 19 17 10 1
25 9 32 16 18 17 200 25 189 8z m-3897 -200 c7 -96 11 -202 11 -235 l-2 -60
-7 50 c-4 28 -11 109 -16 180 -5 82 -10 121 -15 105 -7 -24 -7 -24 -9 5 -2 31
-3 105 -1 138 1 15 3 16 14 5 8 -8 17 -73 25 -188z m1691 180 c106 -48 149
-74 144 -87 -3 -7 1 -13 8 -13 7 0 10 -2 7 -5 -3 -3 -27 3 -54 14 -27 11 -41
20 -31 20 9 1 17 6 17 11 0 9 -39 14 -102 13 -22 0 -22 2 -2 21 14 15 14 16 0
16 -9 0 -16 -5 -16 -10 0 -11 -68 14 -84 31 -19 18 67 9 113 -11z m-172 -17
c15 -16 30 -27 33 -25 3 2 14 0 25 -3 18 -6 17 -7 -9 -15 -34 -11 -99 17 -116
50 -9 18 -8 20 14 20 14 0 37 -12 53 -27z m383 17 c0 -5 -7 -7 -15 -4 -8 4
-15 8 -15 10 0 2 7 4 15 4 8 0 15 -4 15 -10z m1700 -5 c-27 -14 -36 -13 -25 4
3 6 16 11 28 11 21 -1 21 -1 -3 -15z m-650 -4 c0 -9 -13 -24 -34 -41 -18 -14
-19 -13 -13 3 3 9 4 17 2 17 -9 0 -42 -37 -48 -55 -4 -10 -10 -15 -13 -12 -4
3 -3 14 1 24 5 10 7 24 6 32 -5 30 8 40 54 39 25 0 45 -3 45 -7z m370 -21
c-14 -11 -34 -23 -45 -26 -11 -4 -28 -13 -37 -22 -19 -16 -78 -25 -78 -12 0 9
78 63 105 72 11 3 34 6 50 7 l30 1 -25 -20z m203 8 c-2 -5 -12 -8 -21 -8 -10
0 -34 -11 -54 -25 -42 -28 -68 -32 -68 -10 0 22 -17 18 -23 -5 -4 -15 -14 -20
-40 -20 -20 0 -39 -5 -42 -10 -4 -6 -3 -9 2 -8 4 2 10 -1 13 -6 3 -5 -21 -15
-52 -21 -32 -6 -58 -10 -58 -8 0 1 15 10 33 19 17 9 34 20 37 24 10 14 65 37
78 33 6 -3 12 2 12 11 0 18 14 27 52 35 41 9 137 7 131 -1z m-331 -19 c-12
-11 -27 -17 -34 -13 -7 4 -8 3 -4 -4 10 -16 -46 -42 -91 -42 -35 -1 -37 -2
-19 -15 24 -18 18 -26 -12 -18 -47 12 -17 53 39 53 20 0 42 7 49 15 15 18 -1
21 -30 5 -24 -13 -37 5 -20 25 9 10 33 15 78 15 l66 0 -22 -21z m-2329 -75
c-17 -14 -17 -14 2 -12 31 5 32 -38 2 -71 -13 -14 -27 -33 -30 -41 -3 -8 -3
15 0 53 4 41 2 67 -4 67 -17 0 -23 -258 -8 -324 13 -57 9 -71 -21 -65 -5 1
-24 1 -43 0 -27 -1 -32 -4 -29 -19 3 -11 -2 -23 -13 -30 -9 -6 -19 -22 -22
-34 -2 -13 -5 -4 -7 22 -4 67 -13 95 -32 96 -13 1 -18 -6 -18 -26 0 -33 -23
-54 -61 -56 -52 -3 -118 -37 -128 -66 -16 -44 -30 -34 -20 13 9 40 5 64 -11
54 -4 -3 -11 2 -14 11 -4 10 -14 14 -26 11 -18 -5 -20 0 -20 44 0 27 -4 49
-10 49 -9 0 -5 -138 5 -148 6 -6 -21 -32 -34 -32 -5 0 -13 9 -16 20 -8 25 -21
26 -30 3 -5 -15 -7 -16 -14 -3 -5 8 -11 32 -15 53 -9 47 -30 50 -24 2 2 -22 0
-35 -7 -35 -7 0 -18 -18 -25 -40 -7 -21 -17 -37 -21 -34 -4 2 -16 40 -26 84
-21 93 -38 106 -28 23 4 -32 7 -60 7 -63 1 -51 -3 -63 -14 -52 -14 14 -19 304
-7 316 4 4 16 9 29 11 12 2 28 9 36 16 12 10 14 -1 16 -67 2 -120 3 -132 12
-141 4 -4 7 30 6 77 -3 90 10 140 35 140 12 0 15 -16 15 -86 0 -54 4 -83 10
-79 6 3 10 44 10 91 0 76 2 84 19 84 11 0 26 6 33 13 7 6 20 13 28 14 26 3 60
12 70 18 6 4 10 -7 10 -25 0 -18 4 -29 10 -25 6 3 10 17 10 30 0 13 10 31 22
39 22 16 21 16 -20 16 -29 0 -42 4 -42 14 0 19 31 29 44 16 8 -8 6 -9 -8 -4
-14 5 -17 4 -12 -5 11 -17 49 -6 82 24 15 13 30 22 35 19 5 -3 9 0 9 5 0 6 5
11 10 11 6 0 10 -7 10 -16 0 -8 4 -13 9 -9 5 3 12 1 16 -4 8 -13 -24 -31 -56
-31 -5 0 -7 -5 -4 -10 4 -7 13 -7 26 0 21 12 22 9 20 -50 -1 -27 1 -31 8 -20
6 8 11 30 11 49 0 25 4 32 15 27 8 -3 18 1 22 8 5 7 32 19 61 26 30 7 56 19
59 26 4 11 9 12 19 3 11 -9 14 -8 14 7 0 12 12 25 31 33 17 7 34 21 37 30 5
13 8 11 10 -7 2 -14 -4 -29 -15 -38z m1060 49 c-7 -2 -21 -2 -30 0 -10 3 -4 5
12 5 17 0 24 -2 18 -5z m87 -25 c42 -14 49 -22 25 -32 -8 -3 -18 2 -23 11 -9
16 -21 15 -109 -3 -50 -10 -41 13 10 24 23 6 45 10 50 11 4 1 25 -5 47 -11z
m886 -15 c-10 -10 -19 5 -10 18 6 11 8 11 12 0 2 -7 1 -15 -2 -18z m94 17 c0
-5 -6 -10 -13 -10 -8 0 -22 -9 -32 -20 -23 -25 -28 -20 -16 14 8 19 18 26 36
26 14 0 25 -4 25 -10z m485 0 c-3 -5 -11 -10 -16 -10 -6 0 -7 5 -4 10 3 6 11
10 16 10 6 0 7 -4 4 -10z m-1730 -10 c3 -5 -1 -10 -9 -10 -8 0 -18 5 -21 10
-3 6 1 10 9 10 8 0 18 -4 21 -10z m2135 0 c0 -11 -18 -13 -111 -10 -65 2 -67
1 -74 -27 l-7 -28 -10 25 c-5 14 -10 27 -11 30 -2 4 80 13 181 18 17 1 32 -2
32 -8z m-1658 -32 c-9 -9 -12 -7 -12 12 0 19 3 21 12 12 9 -9 9 -15 0 -24z
m1181 12 c-6 -23 -33 -27 -33 -6 0 13 13 23 32 25 3 1 4 -8 1 -19z m-1228 0
c3 -5 1 -10 -4 -10 -6 0 -11 5 -11 10 0 6 2 10 4 10 3 0 8 -4 11 -10z m110
-120 c8 -68 15 -126 15 -128 0 -2 -10 -2 -22 0 -21 3 -23 7 -20 66 1 37 -2 62
-8 62 -5 0 -10 7 -10 16 0 8 5 12 10 9 6 -4 10 15 10 51 0 32 2 55 5 53 2 -3
11 -61 20 -129z m25 120 c0 -5 -4 -10 -10 -10 -5 0 -10 5 -10 10 0 6 5 10 10
10 6 0 10 -4 10 -10z m145 -3 c10 -8 15 -19 11 -25 -8 -14 -66 12 -66 28 0 14
33 12 55 -3z m705 8 c0 -2 -18 -14 -40 -25 -45 -23 -55 -14 -12 12 26 17 52
23 52 13z m-1424 -33 c-6 -6 -56 10 -56 18 0 5 13 3 30 -3 16 -6 28 -13 26
-15z m82 15 c24 -15 12 -26 -18 -16 -16 6 -28 15 -25 19 6 9 24 8 43 -3z m177
3 c-3 -5 -17 -10 -31 -10 -13 0 -24 5 -24 10 0 6 14 10 31 10 17 0 28 -4 24
-10z m135 6 c0 -3 -4 -8 -10 -11 -5 -3 -10 -1 -10 4 0 6 5 11 10 11 6 0 10 -2
10 -4z m1230 -4 c0 -5 -19 -17 -42 -27 -37 -16 -40 -19 -20 -22 17 -3 21 -9
17 -24 -4 -11 -2 -19 5 -19 7 0 10 11 8 27 -2 15 2 28 10 30 7 3 12 -6 13 -24
l1 -28 7 30 c5 25 12 31 46 37 62 12 160 10 189 -3 34 -16 34 -33 -1 -26 -15
3 -37 1 -50 -4 -18 -7 -23 -5 -23 7 0 10 -4 12 -12 7 -7 -4 -38 -6 -68 -4 -43
2 -52 0 -43 -9 6 -7 34 -12 62 -12 l51 2 2 -73 2 -72 3 67 4 68 32 -2 c18 -1
44 2 60 6 25 8 27 6 27 -20 1 -27 1 -27 12 -9 6 11 16 23 21 27 13 8 47 -13
47 -30 0 -7 5 -10 10 -7 6 3 10 1 10 -5 0 -7 6 -10 13 -7 32 12 36 -9 39 -183
1 -96 5 -202 9 -235 4 -33 5 32 2 145 -3 120 -1 215 5 230 8 20 10 11 11 -45
0 -38 5 -83 11 -100 8 -23 9 -10 6 58 -2 48 -2 87 1 87 2 0 24 -13 48 -30 42
-29 43 -30 34 -67 -5 -21 -7 -171 -4 -333 4 -295 -1 -416 -20 -414 -20 2 -33
133 -42 422 -3 130 -10 225 -16 229 -7 4 -8 -72 -5 -223 4 -169 3 -209 -4
-154 -11 85 -31 145 -23 70 7 -68 14 -259 9 -230 -9 49 -14 56 -24 40 -7 -11
-10 -4 -11 25 -4 89 -6 116 -13 122 -3 3 -6 -8 -6 -25 0 -25 -3 -30 -17 -25
-10 4 -14 2 -9 -5 3 -6 2 -13 -3 -16 -9 -6 -21 39 -21 80 0 13 -4 24 -8 24 -5
0 -8 -15 -9 -32 0 -18 -1 -55 -2 -83 -3 -47 -3 -48 -12 -20 -5 17 -10 49 -11
73 -2 70 -15 48 -22 -40 -4 -50 -12 -87 -20 -93 -7 -5 -12 -20 -11 -32 1 -12
-2 -20 -7 -17 -4 3 -8 13 -8 23 0 11 -7 17 -21 17 -19 -1 -21 5 -23 64 -4 95
-5 100 -22 100 -14 0 -15 25 -13 220 2 120 0 222 -4 226 -4 4 -7 -27 -7 -68 0
-101 -11 -199 -21 -192 -5 3 -9 -5 -9 -18 0 -17 3 -19 9 -9 6 9 10 3 14 -20 5
-39 0 -50 -13 -29 -7 11 -10 6 -10 -18 0 -20 4 -31 10 -27 6 3 10 -4 10 -17 0
-16 -3 -19 -9 -10 -5 8 -10 -26 -14 -84 -4 -53 -9 -99 -12 -102 -11 -12 -15 9
-18 96 -2 51 -7 95 -10 99 -10 9 -9 43 2 43 4 0 8 43 8 95 -1 52 -4 95 -9 95
-4 0 -8 -3 -8 -7 -7 -113 -21 -218 -29 -221 -6 -2 -11 -17 -11 -32 0 -16 -4
-32 -10 -35 -5 -3 -10 -23 -10 -44 0 -20 -6 -45 -12 -54 -12 -16 -13 -14 -17
10 -6 47 -6 94 1 208 7 114 -4 79 -16 -50 -3 -38 -10 -90 -14 -115 l-7 -45
-13 52 c-8 29 -11 56 -9 60 3 5 8 58 11 118 15 290 16 335 6 335 -5 0 -10 -13
-10 -30 0 -104 -24 -337 -37 -356 -8 -12 -13 -28 -12 -36 4 -22 -12 -97 -22
-104 -6 -3 -8 4 -5 18 10 48 15 193 6 173 -5 -11 -9 -32 -9 -47 -1 -16 -5 -28
-10 -28 -13 0 -22 44 -15 79 8 37 0 39 -32 9 -17 -16 -24 -34 -24 -60 0 -21
-4 -38 -10 -38 -6 0 -8 25 -5 63 4 51 3 56 -5 27 -5 -19 -10 -57 -11 -83 -2
-44 -19 -80 -19 -41 0 9 -14 29 -31 44 -35 30 -34 24 -22 188 4 57 5 106 2
108 -4 2 -9 -31 -11 -73 -3 -45 -10 -79 -17 -81 -6 -2 -11 -12 -11 -22 0 -10
-8 -21 -19 -25 -13 -4 -20 -18 -24 -46 -7 -52 -18 -64 -46 -50 -13 8 -21 21
-21 39 0 33 -35 127 -46 126 -5 0 -12 -13 -15 -30 -7 -29 -7 -29 -8 -2 0 14
-5 28 -10 30 -4 2 0 62 10 133 25 177 25 175 -8 171 -16 -2 -32 -5 -38 -6 -5
-1 -16 -2 -24 -1 -11 1 -10 4 4 15 12 8 16 19 11 31 -6 17 -7 17 -25 1 -15
-14 -24 -15 -40 -6 -24 13 -26 20 -8 44 21 29 92 39 133 20 50 -24 68 -56 65
-116 -3 -58 14 -58 25 0 10 54 24 68 64 66 19 -1 44 3 55 10 29 19 94 25 88 9
-3 -7 2 -13 11 -13 9 0 16 8 16 20 0 11 5 20 10 20 6 0 10 5 10 11 0 7 -10 9
-27 5 -21 -5 -24 -4 -12 4 9 5 26 11 38 13 11 2 24 6 27 10 4 4 14 7 22 7 22
0 8 -24 -19 -31 -23 -7 -23 -7 -2 -8 19 -1 22 -5 18 -33 -4 -31 -4 -31 7 5 6
20 15 37 19 37 5 0 6 6 3 14 -7 19 27 48 74 62 48 15 52 16 52 6z m420 -12
c-20 -13 -47 -13 -55 0 -4 6 9 10 32 10 28 0 34 -3 23 -10z m-3112 -9 c10 -6
9 -10 -7 -14 -14 -3 -21 0 -21 9 0 16 9 18 28 5z m1679 -23 c-3 -7 -5 -2 -5
12 0 14 2 19 5 13 2 -7 2 -19 0 -25z m-2430 -15 c-3 -10 -5 -4 -5 12 0 17 2
24 5 18 2 -7 2 -21 0 -30z m2213 23 c0 -36 -14 -106 -19 -98 -9 15 0 112 10
112 5 0 9 -6 9 -14z m194 -47 c9 -91 7 -169 -4 -169 -6 0 -10 28 -10 63 0 34
-3 86 -6 115 -4 32 -3 52 3 52 6 0 13 -28 17 -61z m701 51 c-3 -5 -11 -10 -16
-10 -6 0 -7 5 -4 10 3 6 11 10 16 10 6 0 7 -4 4 -10z m-1230 -10 c3 -6 -1 -7
-9 -4 -18 7 -21 14 -7 14 6 0 13 -4 16 -10z m735 -11 c0 -5 -4 -9 -10 -9 -5 0
-10 7 -10 16 0 8 5 12 10 9 6 -3 10 -10 10 -16z m-138 -19 c3 -16 1 -30 -4
-30 -4 0 -8 14 -8 30 0 17 2 30 4 30 2 0 6 -13 8 -30z m-318 -51 c-4 -35 -9
-58 -12 -51 -5 16 8 126 14 119 3 -3 2 -33 -2 -68z m146 -29 c0 -84 -10 -113
-24 -72 -3 9 -9 23 -12 31 -4 9 -2 11 5 7 7 -5 11 3 11 21 0 22 -2 25 -10 13
-8 -13 -10 -12 -10 3 0 9 5 17 10 17 6 0 10 13 10 28 0 25 7 42 17 42 2 0 3
-40 3 -90z m228 17 c2 -37 -1 -96 -6 -132 -5 -36 -5 -65 0 -65 4 0 8 10 8 23
0 12 5 29 10 37 8 13 11 13 26 -2 11 -11 22 -14 33 -8 9 5 37 14 64 21 36 9
46 16 43 28 -3 9 2 25 10 36 15 20 16 19 43 -12 15 -18 33 -33 39 -33 8 0 10
-19 7 -62 -5 -61 -5 -62 9 -33 9 17 15 44 16 60 0 25 6 33 30 42 l30 11 -6
-66 c-3 -37 -8 -80 -10 -97 -9 -53 -23 -169 -24 -188 0 -9 -5 -16 -12 -15 -6
2 -22 -12 -35 -31 -25 -36 -26 -35 -23 18 1 28 -1 33 -15 27 -22 -8 -46 11
-38 30 3 8 0 28 -7 44 -11 25 -16 29 -39 23 -31 -7 -25 0 -49 -48 l-21 -40 -1
43 c0 43 -7 51 -28 30 -7 -7 -12 -10 -13 -7 0 2 -2 19 -4 37 -4 45 -9 47 -50
28 -28 -14 -35 -22 -35 -46 0 -17 -4 -30 -9 -30 -5 0 -17 -3 -27 -7 -15 -6
-16 -1 -11 38 4 29 1 49 -7 59 -8 8 -17 32 -20 54 -6 33 -5 38 8 33 9 -4 16
-1 16 6 0 8 3 7 9 -2 8 -12 12 -12 26 2 11 12 17 37 18 87 2 38 -1 64 -5 57
-4 -7 -7 6 -7 28 1 33 2 36 8 15 6 -21 9 -16 15 28 10 76 30 63 34 -21z m1680
37 c2 -26 1 -27 -11 -12 -8 10 -17 15 -20 11 -4 -3 -7 3 -7 14 0 34 34 22 38
-13z m-2116 -18 c-2 -20 -8 -36 -13 -36 -11 0 -11 7 -3 49 9 42 21 31 16 -13z
m38 24 c0 -5 -4 -10 -10 -10 -5 0 -10 5 -10 10 0 6 5 10 10 10 6 0 10 -4 10
-10z m307 -22 c-3 -7 -5 -2 -5 12 0 14 2 19 5 13 2 -7 2 -19 0 -25z m578 22
c-3 -5 -17 -10 -31 -10 -13 0 -24 5 -24 10 0 6 14 10 31 10 17 0 28 -4 24 -10z
m1080 -28 c1 -37 -4 -39 -28 -12 -14 17 -15 23 -5 35 19 22 33 12 33 -23z
m-3862 21 c-7 -2 -21 -2 -30 0 -10 3 -4 5 12 5 17 0 24 -2 18 -5z m2373 -60
c-5 -42 -3 -54 6 -51 7 3 14 18 16 34 5 54 9 57 44 33 18 -12 34 -23 36 -24 8
-6 -20 -55 -28 -50 -5 3 -11 -4 -11 -17 -1 -17 -3 -18 -6 -5 -6 21 -10 21 -31
1 -15 -15 -16 -15 -23 2 -6 15 -8 16 -8 3 -1 -9 -8 -22 -16 -29 -13 -11 -15
-8 -15 14 0 14 -4 26 -10 26 -5 0 -10 9 -10 21 0 11 4 18 9 15 11 -7 21 17 21
53 0 31 8 43 23 34 5 -3 7 -28 3 -60z m-2609 10 c-3 -10 -5 -2 -5 17 0 19 2
27 5 18 2 -10 2 -26 0 -35z m4269 -9 c1 -43 -13 -112 -15 -76 -1 6 -10 12 -21
12 -12 0 -20 7 -20 16 0 11 6 15 19 11 15 -4 20 2 23 25 3 16 1 31 -4 34 -13
8 -9 36 5 31 7 -2 12 -23 13 -53z m-1220 37 c-3 -5 -15 -7 -26 -4 -28 7 -25
13 6 13 14 0 23 -4 20 -9z m-2846 -11 c0 -5 -2 -10 -4 -10 -3 0 -8 5 -11 10
-3 6 -1 10 4 10 6 0 11 -4 11 -10z m1920 -10 c0 -11 -2 -20 -4 -20 -2 0 -6 9
-9 20 -3 11 -1 20 4 20 5 0 9 -9 9 -20z m1901 -36 c43 -32 56 -44 46 -44 -2 0
-28 18 -57 40 -29 22 -50 40 -46 40 5 0 30 -16 57 -36z m-3821 6 c0 -5 -4 -10
-10 -10 -5 0 -10 5 -10 10 0 6 5 10 10 10 6 0 10 -4 10 -10z m1977 -12 c-3 -8
-6 -5 -6 6 -1 11 2 17 5 13 3 -3 4 -12 1 -19z m2023 2 c0 -11 -4 -20 -8 -20
-4 0 -8 9 -8 20 0 11 4 20 8 20 4 0 8 -9 8 -20z m-1758 -22 c-9 -9 -12 -7 -12
12 0 19 3 21 12 12 9 -9 9 -15 0 -24z m-2405 -30 c-2 -13 -4 -5 -4 17 -1 22 1
32 4 23 2 -10 2 -28 0 -40z m1144 5 c-12 -20 -14 -14 -5 12 4 9 9 14 11 11 3
-2 0 -13 -6 -23z m2873 -46 c13 -28 14 -29 15 -9 1 19 4 21 19 13 11 -6 32
-23 49 -38 16 -15 34 -30 39 -33 5 -3 8 -12 6 -20 -2 -10 2 -9 13 4 15 19 15
19 16 -5 0 -20 2 -21 8 -6 6 16 9 16 18 5 5 -7 14 -26 18 -43 8 -28 14 -497 7
-475 -10 28 -22 -9 -24 -68 l-1 -67 -6 60 c-7 69 -25 73 -27 5 -2 -103 -4
-123 -11 -116 -4 3 -6 160 -4 348 1 188 -1 340 -4 336 -3 -3 -8 -115 -11 -249
-5 -260 -9 -309 -24 -309 -6 0 -10 -6 -10 -14 0 -8 -4 -17 -8 -20 -4 -2 -6 50
-4 117 2 67 -1 149 -6 182 -8 52 -10 39 -11 -100 -2 -160 -11 -225 -24 -176
-3 14 -10 20 -17 16 -8 -5 -9 3 -5 29 6 29 4 36 -8 36 -11 0 -18 -13 -22 -37
-19 -110 -24 -66 -26 227 -2 335 -2 366 7 418 6 38 19 34 38 -11z m-1967 -39
c-3 -7 -5 -2 -5 12 0 14 2 19 5 13 2 -7 2 -19 0 -25z m323 23 c0 -6 -4 -13
-10 -16 -5 -3 -10 1 -10 9 0 9 5 16 10 16 6 0 10 -4 10 -9z m1810 -13 c0 -6
-6 -5 -15 2 -8 7 -15 14 -15 16 0 2 7 1 15 -2 8 -4 15 -11 15 -16z m30 -14 c0
-8 -5 -12 -10 -9 -6 4 -8 11 -5 16 9 14 15 11 15 -7z m-2760 -44 c0 -5 -11
-10 -25 -10 -14 0 -25 5 -25 10 0 6 11 10 25 10 14 0 25 -4 25 -10z m-195
-188 c-6 -74 -11 -99 -16 -82 -4 14 -7 -32 -7 -108 0 -73 -3 -136 -6 -139 -3
-4 -7 72 -7 168 -1 96 -4 164 -6 152 -2 -13 -8 -23 -12 -23 -9 0 -1 53 9 60 9
7 30 91 31 127 1 25 2 24 11 -10 6 -24 7 -79 3 -145z m36 125 c-6 -6 -14 -7
-18 -2 -5 4 -2 10 5 12 6 3 13 12 13 21 1 14 2 14 6 -2 3 -10 0 -23 -6 -29z
m350 20 c-10 -9 -11 -8 -5 6 3 10 9 15 12 12 3 -3 0 -11 -7 -18z m-1619 -26
c2 -22 0 -37 -4 -35 -8 5 -11 74 -4 74 2 0 6 -18 8 -39z m1406 20 c7 -4 15
-32 17 -62 l5 -54 -25 49 c-34 67 -33 90 3 67z m102 -16 c0 -14 -4 -25 -10
-25 -5 0 -10 -12 -10 -27 0 -26 -1 -26 -14 -7 -14 17 -15 15 -12 -26 1 -25 8
-55 15 -68 7 -13 11 -28 9 -33 -2 -6 -13 7 -25 29 -18 31 -21 48 -16 89 4 42
9 50 23 46 18 -5 35 21 24 38 -3 5 0 9 5 9 6 0 11 -11 11 -25z m460 21 c0 -3
-4 -8 -10 -11 -5 -3 -10 -1 -10 4 0 6 5 11 10 11 6 0 10 -2 10 -4z m-1170 -16
c0 -5 -2 -10 -4 -10 -3 0 -8 5 -11 10 -3 6 -1 10 4 10 6 0 11 -4 11 -10z m573
-12 c3 -13 4 -58 3 -100 -2 -43 1 -78 5 -78 5 0 10 10 10 23 1 12 2 29 3 39 1
9 4 19 7 23 9 8 29 -52 28 -79 -1 -17 -2 -18 -6 -3 -4 17 -23 25 -23 9 0 -4 9
-25 21 -46 15 -29 18 -41 9 -50 -6 -6 -11 -7 -10 -1 4 21 -1 29 -9 16 -7 -11
-14 -6 -28 25 -10 21 -20 41 -23 44 -9 8 -9 200 0 200 4 0 10 -10 13 -22z
m222 -14 c14 -21 14 -24 0 -24 -8 0 -15 7 -15 15 0 14 -12 19 -32 16 -9 -1
-10 13 -2 22 10 10 32 -3 49 -29z m-724 -9 c1 -11 1 -33 0 -50 -2 -26 -3 -27
-11 -10 -12 29 -12 101 0 89 5 -5 10 -18 11 -29z m276 13 c-3 -8 -6 -5 -6 6
-1 11 2 17 5 13 3 -3 4 -12 1 -19z m-1252 2 c3 -5 1 -10 -4 -10 -6 0 -11 5
-11 10 0 6 2 10 4 10 3 0 8 -4 11 -10z m94 -157 c1 -34 -3 -65 -9 -68 -6 -4
-10 34 -9 107 1 90 3 104 10 68 4 -25 8 -73 8 -107z m1585 107 c9 -22 16 -57
16 -77 0 -35 -1 -36 -15 -17 -8 10 -15 38 -15 62 0 23 -4 42 -10 42 -5 0 -10
-7 -10 -15 0 -23 -17 -18 -23 7 -15 55 35 53 57 -2z m-786 -45 c0 -29 0 -29
-8 -5 -4 14 -8 39 -8 55 0 29 0 29 8 5 4 -14 8 -38 8 -55z m509 27 c2 -41 1
-45 -11 -29 -7 9 -18 17 -24 17 -5 0 -8 9 -5 20 3 11 9 18 13 15 4 -3 10 2 14
10 9 24 11 18 13 -33z m33 12 c0 -14 5 -34 10 -45 7 -13 7 -19 0 -19 -5 0 -10
-12 -10 -27 0 -14 -3 -23 -7 -20 -11 11 -14 149 -3 142 6 -3 10 -17 10 -31z
m427 14 c-3 -8 -6 -5 -6 6 -1 11 2 17 5 13 3 -3 4 -12 1 -19z m-1690 -20 c-3
-7 -5 -2 -5 12 0 14 2 19 5 13 2 -7 2 -19 0 -25z m1823 12 c9 -16 8 -20 -5
-20 -8 0 -15 9 -15 20 0 11 2 20 5 20 2 0 9 -9 15 -20z m-1945 -39 c5 -17 4
-22 -5 -16 -10 6 -11 -9 -5 -69 4 -52 3 -76 -4 -76 -6 0 -11 12 -11 28 -1 15
-3 63 -6 107 -5 71 -4 78 9 65 8 -8 18 -26 22 -39z m1995 39 c0 -5 -2 -10 -4
-10 -3 0 -8 5 -11 10 -3 6 -1 10 4 10 6 0 11 -4 11 -10z m-1109 -67 c0 -32 4
-79 8 -105 4 -26 4 -45 0 -43 -4 3 -10 33 -13 67 -4 35 -9 80 -12 101 -4 23
-2 37 5 37 7 0 11 -23 12 -57z m1149 29 c0 -15 -2 -15 -10 -2 -13 20 -13 33 0
25 6 -3 10 -14 10 -23z m-1360 -17 c0 -14 -4 -25 -9 -25 -5 0 -12 -8 -14 -17
-3 -10 -5 1 -6 25 -1 31 3 42 14 42 9 0 15 -9 15 -25z m38 -20 c-1 -46 -11
-58 -22 -28 -4 9 -1 20 5 24 7 4 9 14 6 22 -5 13 0 27 10 27 2 0 2 -20 1 -45z
m111 -12 c6 -31 10 -70 10 -87 -1 -26 -3 -23 -14 19 l-13 50 -1 -64 c-1 -35
-3 -62 -6 -59 -7 7 -14 169 -8 186 10 25 21 10 32 -45z m721 36 c0 -6 -4 -7
-10 -4 -5 3 -10 11 -10 16 0 6 5 7 10 4 6 -3 10 -11 10 -16z m50 -33 c0 -6 -7
-1 -15 10 -8 10 -14 26 -14 34 0 16 28 -28 29 -44z m180 -28 c5 -15 6 -28 4
-28 -8 0 -44 83 -43 100 0 18 28 -33 39 -72z m177 50 c-3 -7 -5 -2 -5 12 0 14
2 19 5 13 2 -7 2 -19 0 -25z m623 22 c0 -5 -4 -10 -10 -10 -5 0 -10 5 -10 10
0 6 5 10 10 10 6 0 10 -4 10 -10z m-2162 -27 c0 -16 3 -38 7 -50 4 -14 3 -23
-3 -23 -12 0 -27 75 -17 90 10 17 14 12 13 -17z m148 -26 c2 -54 -11 -63 -21
-14 -4 17 -9 40 -12 50 -4 14 0 18 14 15 14 -3 18 -13 19 -51z m61 16 c-3 -10
-5 -4 -5 12 0 17 2 24 5 18 2 -7 2 -21 0 -30z m1232 12 c3 -16 1 -17 -12 -7
-12 10 -16 10 -19 0 -3 -8 -9 -5 -17 10 -12 22 -11 23 16 20 18 -2 29 -10 32
-23z m421 11 c0 -8 -7 -16 -15 -19 -13 -5 -12 -11 1 -42 8 -21 14 -57 12 -83
l-3 -47 -19 40 c-11 22 -22 65 -24 97 -4 48 -2 57 14 61 32 8 34 7 34 -7z
m-1830 -11 c0 -8 -2 -15 -4 -15 -2 0 -6 7 -10 15 -3 8 -1 15 4 15 6 0 10 -7
10 -15z m27 -22 c-3 -10 -5 -4 -5 12 0 17 2 24 5 18 2 -7 2 -21 0 -30z m871
-46 c2 -34 5 -93 7 -132 2 -38 1 -59 -2 -45 -7 37 -24 55 -34 38 -6 -9 -9 -6
-9 10 0 13 4 20 10 17 6 -4 10 13 10 44 0 28 -4 51 -8 51 -10 0 -15 77 -6 92
13 21 29 -15 32 -75z m366 67 c3 -8 2 -12 -4 -9 -6 3 -10 10 -10 16 0 14 7 11
14 -7z m302 -56 c4 -60 3 -62 -12 -40 -9 12 -24 22 -33 23 -10 0 -11 2 -3 6 6
2 12 11 12 19 0 8 5 14 10 14 6 0 10 12 10 27 0 51 12 13 16 -49z m-1790 -13
c1 -37 -2 -62 -8 -59 -5 3 -6 13 -3 23 3 9 -2 26 -10 37 -8 10 -14 28 -14 39
1 16 2 15 9 -5 l7 -25 8 28 c4 15 8 27 9 27 0 0 2 -29 2 -65z m703 -57 c6 -68
14 -143 16 -168 3 -27 1 -39 -4 -30 -4 8 -13 74 -20 145 -7 72 -15 140 -18
153 -3 12 -1 22 4 22 6 0 15 -55 22 -122z m1002 82 c14 -72 18 -110 11 -110
-12 0 -56 92 -60 123 -3 25 0 28 19 25 17 -2 25 -12 30 -38z m-1160 20 c0 -3
2 -27 4 -55 l3 -49 -24 27 c-31 36 -33 86 -4 84 11 -1 20 -4 21 -7z m929 -27
c23 -38 39 -106 21 -88 -28 30 -64 125 -47 125 2 0 14 -17 26 -37z m619 -5
l-1 -43 -14 33 c-14 33 -12 52 7 52 5 0 9 -19 8 -42z m-1712 -50 c-2 -18 -4
-6 -4 27 0 33 2 48 4 33 2 -15 2 -42 0 -60z m-530 50 c-3 -8 -6 -5 -6 6 -1 11
2 17 5 13 3 -3 4 -12 1 -19z m1156 -288 l-13 -25 -1 30 c-2 86 2 206 9 255 6
45 8 30 12 -90 4 -104 2 -152 -7 -170z m-865 284 c13 8 25 -10 17 -24 -5 -8
-11 -7 -21 1 -12 9 -14 6 -14 -22 0 -57 -14 -66 -38 -25 -12 20 -28 36 -37 36
-8 0 -15 6 -15 13 0 21 44 15 50 -7 10 -37 30 -30 30 11 0 25 3 33 9 24 5 -7
13 -11 19 -7z m167 -40 c3 -27 8 -64 11 -81 4 -19 2 -33 -4 -33 -13 0 -22 49
-22 118 0 66 8 64 15 -4z m1015 -41 c0 -13 -5 -23 -10 -23 -7 0 -7 -6 0 -19 5
-11 10 -36 10 -56 0 -30 -2 -34 -13 -23 -19 19 -28 46 -16 53 5 4 7 11 3 16
-3 5 -7 20 -10 34 -3 19 -1 23 11 19 19 -7 19 0 2 18 -8 7 -17 29 -20 48 l-7
35 25 -40 c13 -22 25 -50 25 -62z m-501 13 c-9 -8 -10 -7 -5 7 3 10 7 31 8 45
1 22 2 21 5 -7 3 -19 -1 -38 -8 -45z m596 42 l16 -33 -20 25 c-20 24 -26 40
-16 40 2 0 12 -15 20 -32z m442 -15 c-3 -15 -6 -13 -14 7 -8 18 -7 27 1 32 12
8 20 -13 13 -39z m409 33 c15 -12 17 -17 7 -27 -7 -7 -14 -27 -14 -43 -1 -20
-3 -24 -6 -11 -2 11 -6 30 -9 43 -2 13 -9 20 -14 17 -11 -7 -14 18 -3 28 9 10
17 9 39 -7z m154 0 c0 -8 -4 -18 -10 -21 -5 -3 -10 -22 -10 -41 0 -21 -4 -33
-10 -29 -14 9 -13 78 2 93 16 16 28 15 28 -2z m-2535 -36 c1 -16 0 -30 -2 -30
-8 0 -23 52 -17 62 9 14 17 2 19 -32z m522 8 c-3 -7 -5 -2 -5 12 0 14 2 19 5
13 2 -7 2 -19 0 -25z m1176 17 c4 -8 2 -17 -3 -20 -6 -4 -10 3 -10 14 0 25 6
27 13 6z m-393 1 c0 -3 -4 -8 -10 -11 -5 -3 -10 -1 -10 4 0 6 5 11 10 11 6 0
10 -2 10 -4z m957 -95 c-5 -24 -37 43 -36 76 0 26 2 24 20 -16 11 -25 18 -52
16 -60z m-1687 74 c0 -7 7 -18 16 -23 10 -5 14 -18 12 -33 -4 -24 -4 -24 -16
5 -8 18 -17 26 -27 22 -17 -6 -29 9 -21 29 7 19 36 19 36 0z m711 -34 c11 -13
19 -33 18 -45 -1 -19 -2 -18 -9 4 -4 14 -9 21 -9 15 -3 -17 -30 39 -30 60 0
14 2 16 6 5 3 -8 14 -26 24 -39z m209 -16 c-1 -17 -40 36 -40 54 0 10 7 6 20
-14 11 -16 20 -34 20 -40z m-1147 40 c4 -8 2 -17 -3 -20 -6 -4 -10 3 -10 14 0
25 6 27 13 6z m39 -15 c3 -16 1 -30 -4 -30 -4 0 -8 3 -8 8 0 4 -3 17 -6 30 -4
12 -2 22 4 22 5 0 12 -13 14 -30z m1662 14 c9 -22 -3 -32 -14 -14 -12 19 -12
30 -1 30 5 0 12 -7 15 -16z m-1597 -26 c-3 -7 -5 -2 -5 12 0 14 2 19 5 13 2
-7 2 -19 0 -25z m630 0 c-3 -7 -5 -2 -5 12 0 14 2 19 5 13 2 -7 2 -19 0 -25z
m243 8 c5 -13 14 -27 20 -31 6 -4 10 -23 9 -43 0 -20 2 -59 7 -86 4 -30 4 -47
-2 -43 -6 3 -11 22 -12 43 -2 20 -10 50 -18 66 -9 17 -13 32 -10 36 3 3 6 0 6
-6 0 -7 5 -12 10 -12 15 0 12 27 -5 44 -8 8 -15 21 -15 29 0 9 -6 18 -12 20
-10 4 -10 6 0 6 7 1 17 -10 22 -23z m415 -13 c20 -37 28 -73 15 -73 -9 0 -28
37 -39 78 -13 43 0 41 24 -5z m290 -10 c15 -27 28 -61 31 -78 l3 -30 -19 25
c-28 35 -50 84 -50 109 0 30 5 27 35 -26z m-1845 -5 c0 -4 -4 -8 -10 -8 -5 0
-10 -8 -11 -17 0 -10 -5 -4 -10 12 -5 17 -6 37 -3 45 4 12 8 12 20 -4 8 -11
14 -23 14 -28z m579 -13 c-1 -29 -1 -29 -9 -5 -4 14 -8 34 -9 45 -1 16 1 17 9
5 5 -8 9 -28 9 -45z m1207 -6 c6 -8 14 -34 17 -59 l6 -45 -23 46 c-13 26 -25
64 -29 85 -5 36 -4 37 6 13 7 -14 17 -32 23 -40z m450 -6 c4 -34 3 -53 -3 -53
-12 0 -23 47 -23 93 0 48 18 20 26 -40z m-886 36 c0 -6 -4 -7 -10 -4 -5 3 -10
11 -10 16 0 6 5 7 10 4 6 -3 10 -11 10 -16z m138 -87 c-5 -22 -48 63 -48 92 1
14 9 5 26 -27 14 -27 24 -56 22 -65z m192 97 c0 -5 11 -27 25 -47 15 -21 25
-51 25 -71 l0 -34 -27 39 c-26 38 -48 124 -31 124 4 0 8 -5 8 -11z m590 -20
c0 -11 -4 -17 -10 -14 -5 3 -10 15 -10 26 0 11 5 17 10 14 6 -3 10 -15 10 -26z
m-243 -46 c5 -60 -13 -38 -23 28 -5 35 -4 42 6 32 7 -6 14 -33 17 -60z m117
-15 c3 -19 8 -46 11 -61 10 -40 -7 -33 -33 14 -20 34 -23 49 -17 88 l7 46 14
-27 c8 -15 16 -42 18 -60z m393 45 c16 -55 14 -97 -2 -83 -13 11 -26 120 -14
120 3 0 11 -17 16 -37z m309 21 c-4 -9 -1 -23 5 -30 9 -11 8 -14 -3 -14 -16 0
-41 44 -31 54 14 13 35 6 29 -10z m136 -24 c-4 -41 -15 -52 -26 -25 -6 17 9
65 22 65 4 0 6 -18 4 -40z m-2432 -18 c0 -21 -2 -24 -10 -12 -13 20 -13 53 0
45 6 -3 10 -18 10 -33z m650 16 c0 -19 -2 -20 -10 -8 -13 19 -13 30 0 30 6 0
10 -10 10 -22z m106 -30 c8 -16 14 -33 12 -38 -3 -11 -43 44 -54 75 -7 18 -6
19 10 6 9 -8 24 -28 32 -43z m103 12 l23 -35 -26 30 c-14 17 -26 34 -26 39 0
11 0 11 29 -34z m2588 -12 c-2 -13 -4 -5 -4 17 -1 22 1 32 4 23 2 -10 2 -28 0
-40z m-3845 20 c-7 -7 -12 -8 -12 -2 0 14 12 26 19 19 2 -3 -1 -11 -7 -17z
m155 0 c-3 -8 -6 -5 -6 6 -1 11 2 17 5 13 3 -3 4 -12 1 -19z m159 -24 c-6 -16
-8 -16 -16 -4 -6 8 -10 24 -10 35 0 18 1 18 16 3 10 -10 14 -23 10 -34z m899
36 c3 -5 1 -10 -4 -10 -6 0 -11 5 -11 10 0 6 2 10 4 10 3 0 8 -4 11 -10z m615
-39 c0 -11 -4 -9 -15 5 -8 10 -15 25 -15 33 0 11 4 9 15 -5 8 -10 15 -25 15
-33z m680 28 c0 -6 -4 -7 -10 -4 -5 3 -10 11 -10 16 0 6 5 7 10 4 6 -3 10 -11
10 -16z m-2815 -179 c8 -111 -16 -18 -40 155 -4 30 0 24 15 -25 11 -36 23 -94
25 -130z m-8 168 c-3 -8 -6 -5 -6 6 -1 11 2 17 5 13 3 -3 4 -12 1 -19z m543
-13 c0 -5 -5 -3 -10 5 -5 8 -10 20 -10 25 0 6 5 3 10 -5 5 -8 10 -19 10 -25z
m1945 5 c17 -33 18 -40 7 -40 -9 0 -32 44 -32 60 0 18 9 10 25 -20z m173 11
c3 -8 -1 -12 -9 -9 -7 2 -15 10 -17 17 -3 8 1 12 9 9 7 -2 15 -10 17 -17z
m-1143 -22 c23 -44 12 -47 -13 -4 -12 19 -17 35 -12 35 5 0 17 -14 25 -31z
m-1572 1 c3 -11 1 -23 -4 -26 -5 -3 -9 -1 -9 5 0 5 -3 16 -6 25 -3 9 -2 16 4
16 5 0 12 -9 15 -20z m156 -25 l0 -20 -9 20 c-5 11 -9 27 -9 35 -1 13 0 13 9
0 5 -8 9 -24 9 -35z m1689 -7 c26 -39 49 -114 31 -102 -23 14 -82 144 -65 144
3 0 18 -19 34 -42z m447 11 c9 -17 15 -42 13 -57 l-3 -27 -18 32 c-15 29 -24
83 -12 83 2 0 12 -14 20 -31z m-2368 -1 c-3 -8 -6 -5 -6 6 -1 11 2 17 5 13 3
-3 4 -12 1 -19z m602 7 c3 -12 -13 -9 -17 4 -2 7 0 11 6 7 5 -3 10 -8 11 -11z
m211 -23 c0 -21 -2 -24 -10 -12 -13 20 -13 53 0 45 6 -3 10 -18 10 -33z m590
12 c0 -8 -4 -12 -10 -9 -5 3 -10 13 -10 21 0 8 5 12 10 9 6 -3 10 -13 10 -21z
m1172 -4 c5 -36 -7 -50 -16 -17 -8 31 -7 47 3 47 5 0 11 -14 13 -30z m-1242
-67 c0 -24 -4 -43 -10 -43 -5 0 -10 -10 -10 -22 -1 -13 -7 -36 -15 -53 -11
-22 -13 -24 -9 -6 11 44 12 56 14 136 1 75 2 78 15 55 8 -14 14 -44 15 -67z
m164 54 c4 -19 3 -26 -4 -22 -5 3 -10 18 -10 32 0 32 5 28 14 -10z m117 -67
c0 -19 4 -72 7 -117 4 -45 5 -80 3 -77 -10 10 -31 -21 -31 -47 0 -15 -4 -31
-10 -34 -6 -3 -10 4 -10 17 0 13 -3 48 -7 78 l-6 55 21 -25 c30 -37 36 -19 7
20 -14 19 -25 45 -25 58 0 22 1 22 16 7 24 -24 29 -10 8 22 -20 30 -21 36 -28
103 l-4 44 29 -34 c18 -23 29 -47 30 -70z m1579 80 c0 -11 -2 -20 -5 -20 -2 0
-9 9 -15 20 -9 16 -8 20 5 20 8 0 15 -9 15 -20z m390 -25 c8 19 9 19 9 -1 1
-26 -24 -51 -32 -32 -2 7 -2 29 2 48 l6 35 4 -35 c3 -29 5 -32 11 -15z m-1860
-18 c0 -5 -7 -1 -16 7 -8 9 -19 16 -24 16 -5 0 -7 7 -3 16 5 14 9 13 24 -7 10
-13 19 -28 19 -32z m436 -6 c21 -26 43 -108 26 -97 -21 13 -60 84 -66 121 -5
34 -4 37 7 21 6 -10 21 -30 33 -45z m633 1 c-1 -21 2 -77 6 -127 6 -81 5 -88
-8 -70 -19 27 -32 192 -14 198 9 4 9 7 0 18 -7 7 -13 19 -13 27 0 12 3 12 15
2 8 -7 14 -28 14 -48z m1050 -32 c4 -3 4 -16 1 -30 -6 -24 -7 -24 -14 8 -5 23
-12 32 -22 28 -11 -4 -14 4 -14 34 0 45 17 54 23 13 4 -26 4 -25 7 7 3 33 4
32 7 -10 3 -24 8 -47 12 -50z m-3839 38 c0 -4 -7 -5 -15 -2 -8 4 -15 16 -15
27 0 20 0 20 15 1 8 -10 15 -22 15 -26z m850 -3 c0 -17 -2 -17 -10 -5 -5 8
-10 24 -10 35 0 17 2 17 10 5 5 -8 10 -24 10 -35z m814 -27 c8 -32 -15 -19
-30 17 -7 19 -14 38 -14 42 1 12 38 -40 44 -59z m143 30 c-3 -7 -5 -2 -5 12 0
14 2 19 5 13 2 -7 2 -19 0 -25z m723 -1 c0 -5 -4 -5 -10 -2 -5 3 -10 14 -10
23 0 15 2 15 10 2 5 -8 10 -19 10 -23z m-1892 -23 c12 -9 12 -15 2 -35 l-13
-24 -7 25 c-4 14 -10 39 -14 55 -5 26 -5 28 6 10 6 -11 18 -25 26 -31z m112
32 c0 -8 3 -21 6 -30 4 -11 1 -16 -10 -16 -11 0 -16 9 -16 30 0 17 5 30 10 30
6 0 10 -6 10 -14z m1480 -45 c-1 -31 -14 -12 -24 34 -6 28 -5 29 9 11 8 -11
15 -31 15 -45z m391 38 c13 -25 18 -78 8 -85 -9 -5 -19 20 -29 69 -8 41 3 49
21 16z m469 -14 c-13 -25 -30 -33 -30 -15 0 12 33 48 39 43 2 -2 -2 -14 -9
-28z m-3000 -2 c-1 -24 -2 -26 -11 -10 -5 9 -7 22 -4 27 10 17 15 11 15 -17z
m250 17 c0 -5 -4 -10 -10 -10 -5 0 -10 5 -10 10 0 6 5 10 10 10 6 0 10 -4 10
-10z m105 -56 c-3 -24 -11 -44 -16 -44 -7 0 -8 12 -4 31 8 35 13 59 15 74 1 6
4 4 7 -3 3 -7 2 -33 -2 -58z m252 44 c-3 -8 -6 -5 -6 6 -1 11 2 17 5 13 3 -3
4 -12 1 -19z m1806 -46 c-7 -18 -9 -13 -16 33 -5 40 -5 40 8 10 7 -16 10 -35
8 -43z m-2249 28 c3 -16 9 -43 12 -60 4 -16 10 -30 15 -30 5 0 6 -6 3 -14 -3
-8 -1 -17 5 -20 6 -4 13 5 17 20 4 17 2 29 -6 34 -7 4 -14 22 -15 39 l-3 31
19 -24 c11 -13 19 -32 19 -43 0 -10 5 -25 11 -33 9 -12 10 -11 6 6 -2 12 -1
28 4 35 7 11 9 10 9 -3 0 -10 4 -18 10 -18 6 0 6 9 0 24 -7 18 -5 26 6 30 8 3
14 -1 14 -10 0 -8 7 -17 15 -20 8 -4 15 -14 15 -23 0 -22 26 -58 36 -49 4 4 7
21 8 38 1 36 12 39 20 5 6 -24 26 -36 26 -15 0 5 7 7 15 4 8 -3 22 1 31 11 9
9 19 13 22 10 4 -3 1 -10 -6 -14 -15 -9 -5 -121 10 -121 6 0 8 16 6 35 -4 36
5 47 16 20 8 -21 26 -19 27 3 0 10 7 3 17 -18 13 -29 16 -32 20 -15 3 12 12
-10 23 -54 12 -48 16 -79 10 -90 -8 -13 -11 -11 -16 11 -7 27 -29 43 -46 32
-5 -3 -9 -27 -9 -53 0 -26 -4 -51 -10 -57 -6 -6 -6 -20 2 -41 10 -26 9 -34 -4
-47 -14 -14 -17 -14 -22 0 -3 9 -3 27 0 41 5 17 3 24 -3 20 -6 -4 -14 8 -17
28 -4 19 -11 35 -15 35 -4 0 -13 15 -19 33 l-10 32 -1 -32 c-1 -17 5 -38 12
-45 6 -7 13 -22 13 -33 1 -11 4 -35 7 -53 5 -37 -5 -42 -21 -9 -6 12 -11 16
-11 9 -1 -7 -5 -10 -11 -7 -6 3 -7 -1 -4 -9 3 -9 1 -16 -5 -16 -5 0 -16 18
-22 40 -7 22 -16 40 -21 40 -4 0 -8 10 -8 23 0 34 -11 67 -22 67 -5 0 -7 -13
-4 -30 3 -17 9 -43 12 -60 3 -16 1 -30 -4 -30 -13 0 -34 78 -26 102 4 14 2 18
-5 14 -6 -4 -11 -2 -11 4 0 6 -5 8 -10 5 -6 -4 -7 -11 -4 -17 4 -7 2 -8 -4 -4
-7 4 -12 13 -12 21 0 8 -4 17 -10 20 -6 4 -10 -7 -10 -25 0 -23 5 -33 19 -37
11 -3 21 -17 25 -35 8 -41 0 -48 -9 -9 -7 35 -25 42 -25 11 0 -11 4 -20 8 -20
4 0 13 -13 19 -30 11 -30 55 -55 80 -46 7 3 13 1 13 -4 0 -11 -33 -13 -79 -4
-24 5 -31 12 -31 30 0 14 -4 32 -9 42 -5 9 -16 43 -25 74 -9 32 -22 60 -28 64
-8 5 -9 0 -5 -16 4 -16 3 -20 -5 -12 -6 6 -7 21 -3 39 5 15 7 35 6 43 -1 13 0
13 11 -1 7 -9 18 -14 25 -12 18 6 53 -16 53 -34 0 -12 3 -13 15 -3 8 6 19 9
24 5 7 -4 8 1 5 12 -3 10 -8 25 -10 33 -5 13 -6 13 -14 0 -7 -10 -10 -11 -10
-2 0 6 -9 12 -20 12 -21 0 -28 16 -10 22 7 2 5 17 -4 43 l-15 40 1 -37 c2 -43
-10 -63 -19 -30 -8 30 -21 28 -15 -3 2 -15 0 -25 -7 -25 -12 0 -23 22 -39 80
l-10 35 -2 -35 c-2 -32 -2 -33 -9 -10 -4 14 -10 42 -14 62 -4 30 -3 36 9 31
12 -4 14 0 8 23 -4 16 -11 31 -16 32 -13 6 -9 22 6 22 7 0 16 -13 20 -30z
m1106 9 c0 -5 -4 -9 -10 -9 -5 0 -10 7 -10 16 0 8 5 12 10 9 6 -3 10 -10 10
-16z m360 -36 c0 -7 -2 -13 -4 -13 -5 0 -36 60 -36 69 1 11 40 -44 40 -56z
m988 -20 c-4 -26 -5 -25 -12 9 -5 21 -5 46 0 55 6 15 8 13 12 -9 2 -16 2 -40
0 -55z m172 61 c0 -8 -5 -12 -10 -9 -6 4 -8 11 -5 16 9 14 15 11 15 -7z
m-1104 -11 c16 -21 18 -37 4 -28 -13 8 -33 45 -24 45 4 0 13 -8 20 -17z m97
-70 c4 -18 4 -33 2 -33 -13 0 -45 68 -45 95 l0 30 18 -30 c10 -16 21 -45 25
-62z m227 37 c0 -10 -19 -34 -23 -30 -2 3 -7 23 -11 45 l-7 40 20 -25 c12 -14
21 -27 21 -30z m335 7 c14 -24 25 -55 24 -68 -1 -19 -5 -15 -21 21 -11 25 -25
47 -29 48 -9 4 -13 42 -4 42 2 0 16 -20 30 -43z m308 -21 c2 -31 0 -59 -5 -62
-4 -3 -8 25 -8 62 0 81 8 81 13 0z m200 2 c-8 -84 -13 -86 -13 -5 0 37 4 67 9
67 5 0 7 -28 4 -62z m252 13 c-9 -30 -25 -16 -25 22 0 29 1 30 16 15 10 -10
14 -23 9 -37z m-2868 7 c-3 -7 -5 -2 -5 12 0 14 2 19 5 13 2 -7 2 -19 0 -25z
m1113 22 c0 -5 -2 -10 -4 -10 -3 0 -8 5 -11 10 -3 6 -1 10 4 10 6 0 11 -4 11
-10z m100 -16 c0 -14 -4 -23 -10 -19 -5 3 -10 15 -10 26 0 10 5 19 10 19 6 0
10 -12 10 -26z m793 -27 c-8 -15 -23 5 -23 31 l0 27 14 -25 c7 -14 11 -28 9
-33z m507 17 c0 -8 -4 -12 -10 -9 -5 3 -10 13 -10 21 0 8 5 12 10 9 6 -3 10
-13 10 -21z m489 -5 c-12 -8 -12 -11 1 -19 8 -5 10 -10 4 -10 -7 0 -11 -40
-13 -113 -1 -62 -4 -122 -6 -133 -2 -10 -4 -27 -4 -36 -1 -10 -5 -18 -10 -18
-6 0 -7 20 -4 48 4 26 7 104 7 174 1 105 4 128 16 131 20 4 26 -13 9 -24z
m-2822 -16 c-3 -10 -5 -4 -5 12 0 17 2 24 5 18 2 -7 2 -21 0 -30z m908 -82
c-5 -20 -8 -22 -16 -10 -8 12 -10 12 -19 -1 -8 -12 -10 -11 -10 8 0 30 18 64
31 57 5 -4 10 11 11 32 1 32 2 31 5 -11 3 -27 1 -61 -2 -75z m1986 67 l-9 -33
-1 36 c-1 20 2 39 6 43 13 12 15 -10 4 -46z m-2634 -10 c-2 -13 -4 -5 -4 17
-1 22 1 32 4 23 2 -10 2 -28 0 -40z m898 -17 c10 -47 12 -221 3 -221 -4 0 -10
12 -14 28 -3 15 -7 32 -9 38 -1 5 3 21 10 34 11 20 11 26 0 35 -7 5 -15 42
-18 84 -5 64 -4 71 7 55 7 -10 17 -34 21 -53z m292 -17 c-2 -3 -14 8 -26 23
-11 15 -25 33 -30 39 -6 7 -7 15 -4 18 3 3 19 -12 36 -35 16 -22 27 -42 24
-45z m51 50 c22 -35 29 -74 14 -74 -11 0 -38 49 -46 83 -9 37 4 33 32 -9z
m542 -48 c0 -67 -16 -48 -24 29 -6 55 -5 58 9 41 9 -12 15 -40 15 -70z m471
-76 c3 -194 1 -260 -9 -260 -5 0 -10 95 -11 212 -1 129 2 209 8 203 5 -6 10
-75 12 -155z m72 140 c3 -11 1 -20 -4 -20 -5 0 -9 9 -9 20 0 11 2 20 4 20 2 0
6 -9 9 -20z m181 14 c13 -5 16 -24 16 -99 0 -51 -3 -114 -7 -140 -6 -45 -7
-46 -19 -24 -12 22 -21 269 -10 269 2 0 11 -3 20 -6z m-3164 -14 c0 -5 -2 -10
-4 -10 -3 0 -8 5 -11 10 -3 6 -1 10 4 10 6 0 11 -4 11 -10z m2179 -55 c0 -20
0 -20 -14 -1 -8 11 -15 31 -15 45 l1 26 14 -25 c8 -14 14 -34 14 -45z m101 13
c0 -26 -2 -29 -15 -18 -8 7 -15 26 -15 42 0 26 2 29 15 18 8 -7 15 -26 15 -42z
m768 -93 c4 -77 3 -88 -10 -78 -10 8 -15 37 -16 90 -1 43 -5 92 -8 108 l-5 30
17 -30 c11 -20 19 -61 22 -120z m291 83 c-2 -104 -17 -126 -18 -25 -1 52 3 87
9 87 6 0 10 -27 9 -62z m-2579 16 c0 -21 -4 -33 -10 -29 -5 3 -10 19 -10 36 0
16 5 29 10 29 6 0 10 -16 10 -36z m184 -56 c-4 -13 -1 -16 10 -12 21 8 20 0
-9 -82 -14 -38 -23 -58 -20 -44 2 14 5 72 6 130 1 83 3 97 9 65 5 -22 6 -48 4
-57z m201 15 c-3 -25 -9 -42 -12 -39 -3 3 -2 31 2 63 5 32 10 50 13 39 2 -10
1 -38 -3 -63z m465 23 c0 -4 -7 -5 -16 -2 -9 3 -18 6 -20 6 -2 0 -4 12 -4 28
l0 27 20 -25 c11 -14 20 -29 20 -34z m1855 1 c-2 -29 -9 -64 -14 -78 -8 -19
-10 -11 -10 44 -1 41 3 67 10 67 5 0 7 5 4 10 -3 6 -1 10 4 10 7 0 9 -20 6
-53z m722 31 c-3 -8 -6 -5 -6 6 -1 11 2 17 5 13 3 -3 4 -12 1 -19z m-3391 -61
c-4 -46 -2 -76 9 -107 8 -23 15 -54 15 -69 0 -15 7 -37 16 -50 11 -15 13 -26
6 -33 -7 -7 -12 -2 -17 13 -13 43 -26 52 -46 33 -18 -17 -19 -15 -18 57 1 41
3 65 6 54 11 -43 23 -38 17 7 -7 47 3 158 13 158 3 0 3 -29 -1 -63z m567 31
c-9 -50 -25 -71 -18 -23 4 22 9 43 11 47 10 17 13 7 7 -24z m2784 0 c-3 -7 -5
-2 -5 12 0 14 2 19 5 13 2 -7 2 -19 0 -25z m-4195 -18 c5 0 6 -6 2 -12 -11
-18 -4 -82 9 -90 18 -11 27 -9 23 5 -3 6 -7 31 -10 55 -6 39 -5 42 16 42 17 0
19 -3 10 -9 -11 -7 -11 -9 2 -14 9 -4 16 -17 16 -29 0 -27 19 -63 20 -38 0 11
3 10 11 -4 9 -14 8 -20 -2 -27 -12 -7 -12 -9 0 -9 10 0 12 -12 7 -50 -5 -41
-3 -50 9 -50 9 0 15 -9 15 -22 0 -19 -2 -20 -10 -8 -7 11 -10 5 -11 -25 -1
-30 -4 -23 -11 30 -8 61 -12 71 -30 72 -16 2 -19 -3 -15 -19 3 -12 2 -17 -3
-12 -4 5 -10 18 -13 29 -3 11 -5 3 -6 -18 -2 -59 -18 -35 -31 46 -7 39 -16 74
-21 77 -10 7 -19 107 -11 115 4 4 11 -3 16 -14 5 -12 13 -21 18 -21z m2182
-20 c7 -33 6 -34 -9 -16 -8 11 -15 34 -15 50 1 38 14 18 24 -34z m603 -42 c4
-60 2 -80 -6 -72 -6 6 -14 48 -17 95 -5 67 -4 82 6 72 7 -6 14 -47 17 -95z
m342 30 c-1 -69 -2 -71 -10 -28 -11 64 -11 100 1 100 6 0 9 -30 9 -72z m328
20 c-2 -13 -4 -5 -4 17 -1 22 1 32 4 23 2 -10 2 -28 0 -40z m233 42 c0 -5 -4
-10 -10 -10 -5 0 -10 5 -10 10 0 6 5 10 10 10 6 0 10 -4 10 -10z m-2419 -27
c-12 -20 -14 -14 -5 12 4 9 9 14 11 11 3 -2 0 -13 -6 -23z m579 18 c0 -4 11
-24 23 -43 23 -33 41 -88 29 -88 -3 0 -16 10 -29 22 -25 23 -31 10 -11 -22 7
-10 9 -22 5 -26 -11 -11 -37 29 -30 46 8 20 8 47 -2 88 -5 21 -4 32 4 32 6 0
11 -4 11 -9z m237 -43 c-8 -5 -14 1 -18 15 -9 33 2 43 17 16 9 -18 9 -26 1
-31z m960 40 c15 -18 10 -106 -6 -120 -11 -11 -13 -9 -9 7 3 11 2 44 -2 73 -6
52 -1 63 17 40z m-2283 -83 c25 -19 29 -55 8 -78 -11 -12 -22 -35 -26 -50 -4
-15 -11 -25 -16 -22 -5 3 -8 0 -5 -7 3 -7 1 -26 -5 -43 -8 -26 -9 -24 -7 23 1
28 -1 52 -5 52 -12 0 -9 68 2 72 6 2 12 21 14 43 2 22 4 54 6 70 2 28 3 28 11
-10 5 -22 15 -45 23 -50z m1280 63 c-8 -27 -12 -33 -19 -27 -7 8 7 49 17 49 5
0 6 -10 2 -22z m530 6 c9 -22 -3 -32 -14 -14 -12 19 -12 30 -1 30 5 0 12 -7
15 -16z m439 -4 c3 -11 1 -23 -4 -26 -5 -3 -9 6 -9 20 0 31 6 34 13 6z m402
-237 c-4 -27 -11 -43 -20 -43 -23 0 -25 14 -10 71 8 30 18 95 22 144 l8 90 3
-110 c2 -60 0 -129 -3 -152z m-1053 222 c3 -14 1 -25 -3 -25 -5 0 -9 11 -9 25
0 14 2 25 4 25 2 0 6 -11 8 -25z m475 3 c-3 -8 -6 -5 -6 6 -1 11 2 17 5 13 3
-3 4 -12 1 -19z m470 -33 c-6 -25 -12 -43 -14 -42 -6 7 10 96 17 92 4 -2 3
-25 -3 -50z m343 31 c0 -19 -4 -23 -19 -19 -15 4 -21 -3 -29 -34 l-10 -38 -1
43 c-1 46 13 71 42 72 11 0 17 -8 17 -24z m-1880 -21 c0 -5 -5 -3 -10 5 -5 8
-10 20 -10 25 0 6 5 3 10 -5 5 -8 10 -19 10 -25z m50 -19 c-1 -6 -10 0 -20 13
-11 13 -20 28 -20 35 1 6 10 0 20 -13 11 -13 20 -28 20 -35z m465 -3 c4 -18 4
-33 1 -33 -9 0 -36 58 -36 77 0 28 27 -5 35 -44z m-645 27 c0 -11 -2 -20 -4
-20 -2 0 -6 9 -9 20 -3 11 -1 20 4 20 5 0 9 -9 9 -20z m94 4 c9 -22 -3 -32
-14 -14 -12 19 -12 30 -1 30 5 0 12 -7 15 -16z m-1035 -37 c1 -5 -3 -5 -9 -2
-5 3 -10 16 -9 28 0 21 1 21 9 2 5 -11 9 -24 9 -28z m1535 -50 c5 -47 4 -50
-9 -33 -9 12 -15 41 -14 75 0 44 2 51 9 33 5 -12 12 -46 14 -75z m416 77 c0
-8 -4 -12 -10 -9 -5 3 -10 10 -10 16 0 5 5 9 10 9 6 0 10 -7 10 -16z m-505
-45 c4 -17 4 -33 1 -36 -6 -6 -36 58 -36 78 0 23 29 -12 35 -42z m259 35 c3
-9 6 -25 6 -37 0 -27 -15 -11 -24 26 -7 29 8 38 18 11z m478 -16 c-9 -9 -12
-7 -12 12 0 19 3 21 12 12 9 -9 9 -15 0 -24z m-65 -15 c-3 -10 -5 -4 -5 12 0
17 2 24 5 18 2 -7 2 -21 0 -30z m1019 -106 c-9 -57 -16 -108 -16 -112 0 -5 -3
-5 -7 -1 -13 12 -4 126 15 196 23 88 27 47 8 -83z m-2619 111 c-3 -8 -6 -5 -6
6 -1 11 2 17 5 13 3 -3 4 -12 1 -19z m80 0 c-3 -8 -6 -5 -6 6 -1 11 2 17 5 13
3 -3 4 -12 1 -19z m148 -12 c4 -19 5 -42 2 -53 -3 -10 -5 -5 -6 14 -1 24 -5
31 -16 27 -16 -6 -19 4 -9 30 10 26 23 18 29 -18z m298 -38 c9 -30 -10 -20
-22 12 -5 17 -15 30 -22 30 -6 0 -8 -7 -4 -17 4 -12 3 -15 -4 -8 -6 6 -8 21
-4 34 l6 23 23 -29 c12 -15 25 -36 27 -45z m837 12 c0 -27 -4 -52 -10 -55 -6
-4 -10 17 -10 55 0 38 4 59 10 55 6 -3 10 -28 10 -55z m436 27 c-3 -12 -8 -69
-11 -127 -3 -58 -11 -109 -17 -115 -7 -7 -8 -4 -4 10 3 11 8 74 11 140 2 66 5
121 5 123 0 2 5 0 10 -3 6 -3 8 -16 6 -28z m631 11 c-3 -8 -6 -5 -6 6 -1 11 2
17 5 13 3 -3 4 -12 1 -19z m34 -196 c-13 -21 -15 100 -3 174 6 42 7 35 10 -54
1 -56 -2 -110 -7 -120z m-1912 181 c0 -25 -1 -25 -8 -8 -5 11 -7 23 -4 28 8
14 13 7 12 -20z m1080 -58 c1 -36 -2 -46 -9 -35 -5 8 -9 40 -9 70 1 70 17 38
18 -35z m883 55 c2 -16 -1 -42 -8 -57 -12 -26 -12 -25 -13 30 -1 59 14 79 21
27z m-1912 -23 c0 -20 0 -20 -15 -1 -20 27 -20 51 0 34 8 -7 15 -22 15 -33z
m520 -11 c4 -20 4 -36 0 -36 -12 0 -42 69 -34 81 10 16 24 -3 34 -45z m350 44
c0 -5 -4 -10 -10 -10 -5 0 -10 5 -10 10 0 6 5 10 10 10 6 0 10 -4 10 -10z
m-1203 -47 c-3 -10 -5 -2 -5 17 0 19 2 27 5 18 2 -10 2 -26 0 -35z m1013 26
c0 -5 -4 -9 -10 -9 -5 0 -10 7 -10 16 0 8 5 12 10 9 6 -3 10 -10 10 -16z
m-456 -5 c4 -9 4 -19 2 -21 -8 -8 -26 8 -26 23 0 19 16 18 24 -2z m1886 -21
c0 -7 -4 -13 -10 -13 -5 0 -10 12 -10 28 0 21 2 24 10 12 5 -8 10 -21 10 -27z
m-1660 17 c0 -19 2 -25 10 -30 18 -12 18 -46 0 -70 -19 -24 -20 -24 -20 -4 0
12 -3 42 -6 68 -5 31 -3 46 5 46 6 0 11 -4 11 -10z m470 0 c0 -5 -2 -10 -4
-10 -3 0 -8 5 -11 10 -3 6 -1 10 4 10 6 0 11 -4 11 -10z m407 -27 c-3 -10 -5
-4 -5 12 0 17 2 24 5 18 2 -7 2 -21 0 -30z m151 -45 c-2 -46 -10 -92 -17 -103
-11 -19 -12 -18 -5 4 8 29 11 67 13 134 1 26 4 47 7 47 4 0 5 -37 2 -82z m706
60 c-3 -13 -11 -30 -16 -38 -8 -12 -8 -11 -4 3 3 10 6 27 6 38 0 10 5 19 11
19 6 0 8 -9 3 -22z m-2827 -30 c-3 -7 -5 -2 -5 12 0 14 2 19 5 13 2 -7 2 -19
0 -25z m1433 -3 c0 -19 -4 -35 -10 -35 -11 0 -14 53 -3 63 11 12 13 8 13 -28z
m280 -23 c0 -20 -4 -31 -10 -27 -5 3 -10 25 -10 48 0 31 3 38 10 27 5 -8 10
-30 10 -48z m881 -52 c-8 -21 -10 -14 -10 36 -1 33 2 64 7 68 11 12 14 -77 3
-104z m196 63 c-3 -10 -5 -2 -5 17 0 19 2 27 5 18 2 -10 2 -26 0 -35z m-2955
5 c-8 -8 -9 -4 -5 13 4 13 8 18 11 10 2 -7 -1 -18 -6 -23z m1179 -11 c-8 -8
-11 -5 -11 9 0 27 14 41 18 19 2 -9 -1 -22 -7 -28z m552 30 c3 -7 3 -26 0 -41
-7 -34 -23 -15 -23 27 0 28 14 37 23 14z m-593 -19 c0 -18 -2 -20 -9 -8 -6 8
-7 18 -5 22 9 14 14 9 14 -14z m892 -68 c-9 -13 -17 24 -13 57 l5 38 6 -45 c3
-25 4 -47 2 -50z m-1671 33 c-9 -16 -10 -16 -11 -1 0 9 3 25 7 35 7 16 8 17
11 1 2 -10 -1 -25 -7 -35z m574 37 c3 -5 2 -10 -4 -10 -5 0 -13 5 -16 10 -3 6
-2 10 4 10 5 0 13 -4 16 -10z m845 -12 c0 -19 -2 -20 -10 -8 -13 19 -13 30 0
30 6 0 10 -10 10 -22z m310 -57 c0 -117 -27 -120 -29 -3 -1 79 0 85 14 68 8
-11 15 -40 15 -65z m464 37 c-4 -24 -11 -47 -17 -53 -6 -7 -8 1 -3 24 3 18 6
42 6 52 0 11 5 19 10 19 6 0 8 -16 4 -42z m45 -20 c-8 -26 -14 -36 -16 -25 -5
20 18 97 24 80 2 -6 -1 -31 -8 -55z m478 15 c-3 -10 -5 -2 -5 17 0 19 2 27 5
18 2 -10 2 -26 0 -35z m-2032 28 c3 -5 1 -12 -5 -16 -5 -3 -10 1 -10 9 0 18 6
21 15 7z m35 -7 c0 -8 -4 -12 -10 -9 -5 3 -10 10 -10 16 0 5 5 9 10 9 6 0 10
-7 10 -16z m2049 -16 c0 -31 -1 -31 -10 -10 -5 13 -7 28 -3 33 10 16 14 9 13
-23z m-1799 -11 c0 -5 -4 -5 -10 -2 -5 3 -10 14 -10 23 0 15 2 15 10 2 5 -8
10 -19 10 -23z m1172 3 c-2 -17 -8 -32 -12 -35 -7 -5 -5 18 6 53 7 23 11 12 6
-18z m-1636 -87 c-2 -3 -14 5 -26 17 l-21 21 23 37 23 37 3 -54 c2 -29 1 -55
-2 -58z m1851 30 c-2 -16 -4 -3 -4 27 0 30 2 43 4 28 2 -16 2 -40 0 -55z m290
40 c-3 -10 -5 -4 -5 12 0 17 2 24 5 18 2 -7 2 -21 0 -30z m-3223 -62 c10 -8
17 -7 26 4 18 22 32 18 28 -7 -2 -18 -11 -23 -40 -26 -34 -3 -38 -1 -39 20 -1
13 -3 34 -4 48 -1 14 0 32 4 40 3 8 7 -4 9 -27 2 -23 9 -46 16 -52z m796 68
c0 -11 -4 -17 -10 -14 -5 3 -10 13 -10 21 0 8 5 14 10 14 6 0 10 -9 10 -21z
m2460 -19 c-4 -23 -11 -44 -15 -48 -7 -7 4 66 12 81 9 16 10 5 3 -33z m-2604
-35 c-9 -34 -12 -31 -19 19 -6 36 -5 38 10 24 11 -11 13 -25 9 -43z m112 10
c1 -24 -3 -47 -8 -50 -11 -7 -14 78 -3 88 10 11 10 10 11 -38z m1292 25 c0
-11 -4 -20 -10 -20 -5 0 -10 9 -10 20 0 11 5 20 10 20 6 0 10 -9 10 -20z m360
-20 c0 -16 -4 -31 -9 -34 -10 -7 -21 42 -14 61 8 21 23 4 23 -27z m-2601 -50
c0 -34 -3 -40 -9 -25 -5 11 -9 40 -9 65 0 34 3 40 9 25 5 -11 9 -40 9 -65z
m511 64 c11 -13 10 -19 -9 -37 l-22 -22 10 28 c14 38 14 42 -4 27 -14 -12 -22
0 -8 13 10 11 19 8 33 -9z m670 7 c0 -6 -4 -13 -10 -16 -5 -3 -10 1 -10 9 0 9
5 16 10 16 6 0 10 -4 10 -9z m-754 -28 c-10 -10 -19 5 -10 18 6 11 8 11 12 0
2 -7 1 -15 -2 -18z m2841 -20 c-3 -10 -5 -2 -5 17 0 19 2 27 5 18 2 -10 2 -26
0 -35z m310 25 c-3 -8 -6 -5 -6 6 -1 11 2 17 5 13 3 -3 4 -12 1 -19z m-4127
-24 c0 -13 5 -24 10 -24 6 0 10 -7 10 -15 0 -8 5 -15 10 -15 6 0 10 -4 10 -9
0 -5 -11 -8 -24 -8 -22 0 -25 4 -28 52 -1 29 0 51 5 48 4 -2 7 -15 7 -29z
m1340 -11 c0 -35 -3 -44 -10 -33 -16 25 -11 80 7 80 2 0 3 -21 3 -47z m-733
-10 c-4 -17 -4 -17 -12 0 -4 9 -4 25 0 35 8 16 8 16 12 0 3 -10 3 -26 0 -35z
m1383 39 c0 -13 -12 -22 -22 -16 -10 6 -1 24 13 24 5 0 9 -4 9 -8z m436 -19
c-10 -10 -19 5 -10 18 6 11 8 11 12 0 2 -7 1 -15 -2 -18z m557 -30 c-3 -18 -9
-33 -14 -33 -10 0 -12 34 -2 69 9 34 22 5 16 -36z m957 32 c0 -23 -24 -45 -35
-33 -7 6 18 58 28 58 4 0 7 -11 7 -25z m-2815 1 c12 -12 12 -15 0 -20 -9 -3
-12 -12 -9 -23 5 -15 4 -16 -5 -3 -11 16 -15 60 -5 60 3 0 12 -6 19 -14z m786
-3 c1 -5 -5 -9 -14 -11 -12 -3 -15 1 -11 13 6 15 18 14 25 -2z m1955 -30 c-10
-26 -18 -8 -9 23 5 21 8 24 11 11 2 -10 1 -25 -2 -34z m-3899 15 c-3 -8 -6 -5
-6 6 -1 11 2 17 5 13 3 -3 4 -12 1 -19z m142 -15 c0 -25 -1 -25 -8 -8 -5 11
-7 23 -4 28 8 14 13 7 12 -20z m844 -3 c-7 -28 -13 -25 -13 6 0 14 4 23 9 20
5 -3 7 -15 4 -26z m822 20 c3 -5 1 -10 -4 -10 -6 0 -11 5 -11 10 0 6 2 10 4
10 3 0 8 -4 11 -10z m2265 -6 c0 -8 -5 -12 -10 -9 -6 4 -8 11 -5 16 9 14 15
11 15 -7z m-4090 -25 c0 -10 -4 -19 -10 -19 -5 0 -10 12 -10 26 0 14 4 23 10
19 6 -3 10 -15 10 -26z m1070 8 c0 -7 -9 -18 -20 -25 -23 -14 -24 -13 -10 23
10 25 30 27 30 2z m53 8 c-3 -9 -8 -14 -10 -11 -3 3 -2 9 2 15 9 16 15 13 8
-4z m-983 -26 c0 -10 -4 -19 -9 -19 -12 0 -23 29 -15 41 8 14 24 0 24 -22z
m604 -24 l21 -20 -49 -3 c-26 -2 -50 -1 -53 2 -3 2 5 14 16 25 12 12 21 29 21
39 1 15 2 14 12 -3 6 -11 20 -29 32 -40z m2363 33 c-3 -8 -6 -5 -6 6 -1 11 2
17 5 13 3 -3 4 -12 1 -19z m143 7 c0 -10 -10 -15 -27 -15 l-28 0 25 14 c14 8
26 14 28 15 1 1 2 -6 2 -14z m400 5 c0 -5 -5 -10 -11 -10 -5 0 -7 5 -4 10 3 6
8 10 11 10 2 0 4 -4 4 -10z m-2047 -7 c-7 -2 -19 -2 -25 0 -7 3 -2 5 12 5 14
0 19 -2 13 -5z m487 -3 c0 -5 -7 -10 -16 -10 -8 0 -12 5 -9 10 3 6 10 10 16
10 5 0 9 -4 9 -10z m265 0 c-3 -5 -10 -10 -16 -10 -5 0 -9 5 -9 10 0 6 7 10
16 10 8 0 12 -4 9 -10z m-1505 -10 c-19 -13 -30 -13 -30 0 0 6 10 10 23 10 18
0 19 -2 7 -10z m1657 4 c-3 -3 -12 -4 -19 -1 -8 3 -5 6 6 6 11 1 17 -2 13 -5z
m-1869 -32 c4 -25 -13 -30 -22 -6 -9 25 -7 36 7 32 6 -3 13 -14 15 -26z m282
18 c0 -5 -14 -10 -31 -10 -17 0 -28 4 -24 10 3 6 17 10 31 10 13 0 24 -4 24
-10z m246 -27 c-8 -8 -36 10 -36 25 0 13 3 12 20 -3 11 -10 18 -20 16 -22z
m444 11 c0 -8 -5 -12 -10 -9 -6 4 -8 11 -5 16 9 14 15 11 15 -7z m908 9 c-10
-2 -26 -2 -35 0 -10 3 -2 5 17 5 19 0 27 -2 18 -5z m-2323 -13 c3 -5 -1 -10
-9 -10 -9 0 -16 5 -16 10 0 6 4 10 9 10 6 0 13 -4 16 -10z m1525 0 c0 -5 -19
-10 -42 -9 -33 0 -38 2 -23 9 28 12 65 12 65 0z m555 -4 c49 -10 55 -14 35
-19 -14 -4 -46 -7 -72 -7 -41 0 -48 3 -48 20 0 23 4 23 85 6z m-1450 -6 c-3
-5 -15 -10 -26 -10 -11 0 -17 5 -14 10 3 6 15 10 26 10 11 0 17 -4 14 -10z
m295 -1 c0 -12 -158 -10 -166 3 -3 4 33 8 80 8 54 0 86 -4 86 -11z m729 7
c-10 -10 -79 -24 -79 -16 0 5 8 11 18 13 22 6 67 8 61 3z m528 -2 c-3 -3 -12
-4 -19 -1 -8 3 -5 6 6 6 11 1 17 -2 13 -5z m886 -11 c-7 -2 -21 -2 -30 0 -10
3 -4 5 12 5 17 0 24 -2 18 -5z m-1158 -13 c3 -5 -1 -10 -10 -10 -9 0 -13 5
-10 10 3 6 8 10 10 10 2 0 7 -4 10 -10z m52 4 c-3 -3 -12 -4 -19 -1 -8 3 -5 6
6 6 11 1 17 -2 13 -5z m1253 -9 c11 -13 5 -15 -40 -15 -58 0 -61 8 -8 20 18 4
34 8 34 9 1 1 7 -6 14 -14z"/>
<path d="M3946 2053 c-8 -20 -6 -21 22 -14 22 6 22 6 3 18 -16 10 -20 9 -25
-4z"/>
<path d="M3623 2033 c9 -2 25 -2 35 0 9 3 1 5 -18 5 -19 0 -27 -2 -17 -5z"/>
<path d="M3940 1971 c0 -6 8 -11 18 -11 10 0 23 -5 29 -11 7 -7 17 -8 29 -1
11 5 52 7 92 5 45 -2 72 0 72 7 0 6 -34 10 -89 10 -49 0 -103 3 -120 6 -20 4
-31 3 -31 -5z"/>
<path d="M3538 1953 c6 -2 18 -2 25 0 6 3 1 5 -13 5 -14 0 -19 -2 -12 -5z"/>
<path d="M4295 1950 c-4 -6 6 -10 22 -10 22 0 25 2 13 10 -19 12 -27 12 -35 0z"/>
<path d="M3458 1943 c12 -2 32 -2 45 0 12 2 2 4 -23 4 -25 0 -35 -2 -22 -4z"/>
<path d="M3825 1939 c-5 -7 8 -8 41 -3 64 9 68 14 11 14 -25 0 -49 -5 -52 -11z"/>
<path d="M3643 1930 c-40 -3 -76 -9 -79 -13 -10 -9 158 4 176 14 17 10 14 10
-97 -1z"/>
<path d="M4255 1900 c-34 -9 -25 -13 20 -10 39 3 71 20 35 19 -14 -1 -38 -5
-55 -9z"/>
<path d="M3940 1870 c-13 -8 -13 -10 2 -10 9 0 20 5 23 10 8 13 -5 13 -25 0z"/>
<path d="M4190 1860 c0 -5 11 -10 24 -10 14 0 28 5 31 10 4 6 -7 10 -24 10
-17 0 -31 -4 -31 -10z"/>
<path d="M3858 1853 c6 -2 18 -2 25 0 6 3 1 5 -13 5 -14 0 -19 -2 -12 -5z"/>
<path d="M3780 1840 c0 -6 11 -8 28 -4 39 10 40 14 4 14 -18 0 -32 -5 -32 -10z"/>
<path d="M3408 1833 c6 -2 18 -2 25 0 6 3 1 5 -13 5 -14 0 -19 -2 -12 -5z"/>
<path d="M3660 1820 c-18 -6 -20 -8 -7 -9 10 -1 15 -5 12 -11 -8 -13 53 -12
80 1 15 7 11 8 -19 5 -35 -5 -37 -4 -20 9 18 14 18 14 -1 14 -11 -1 -31 -5
-45 -9z"/>
<path d="M3810 1820 c0 -5 4 -10 9 -10 6 0 13 5 16 10 3 6 -1 10 -9 10 -9 0
-16 -4 -16 -10z"/>
<path d="M4198 1793 c-21 -2 -38 -8 -38 -13 0 -6 15 -8 33 -6 17 2 44 4 60 5
15 0 27 6 27 11 0 10 -10 10 -82 3z"/>
<path d="M4020 1770 c-10 -8 5 -9 50 -4 36 3 67 8 69 10 9 9 -105 3 -119 -6z"/>
<path d="M4213 1753 c-14 -5 -18 -23 -5 -23 5 0 17 7 28 15 14 11 15 14 4 14
-8 0 -21 -3 -27 -6z"/>
<path d="M4285 1750 c3 -5 8 -10 11 -10 2 0 4 5 4 10 0 6 -5 10 -11 10 -5 0
-7 -4 -4 -10z"/>
<path d="M3338 1733 c7 -3 16 -2 19 1 4 3 -2 6 -13 5 -11 0 -14 -3 -6 -6z"/>
<path d="M4095 1720 c-4 -6 6 -10 24 -10 16 0 33 5 36 10 4 6 -6 10 -24 10
-16 0 -33 -4 -36 -10z"/>
<path d="M3933 1713 c-55 -7 -37 -18 22 -15 30 2 55 8 55 13 0 9 -16 9 -77 2z"/>
<path d="M2460 2056 c0 -8 61 -12 66 -4 3 4 -11 8 -30 8 -20 0 -36 -2 -36 -4z"/>
<path d="M2240 2000 c0 -5 9 -10 20 -10 11 0 20 5 20 10 0 6 -9 10 -20 10 -11
0 -20 -4 -20 -10z"/>
<path d="M2518 2003 c6 -2 18 -2 25 0 6 3 1 5 -13 5 -14 0 -19 -2 -12 -5z"/>
<path d="M2750 2002 c0 -4 5 -13 11 -19 5 -5 14 -38 19 -72 5 -34 18 -76 30
-94 12 -18 19 -23 15 -12 -4 11 -9 31 -11 45 -4 38 -24 112 -37 138 -10 21
-27 30 -27 14z"/>
<path d="M2830 1876 c0 -18 16 -29 30 -21 13 8 1 35 -16 35 -8 0 -14 -6 -14
-14z"/>
<path d="M2690 1871 c0 -6 4 -13 10 -16 6 -3 7 1 4 9 -7 18 -14 21 -14 7z"/>
<path d="M2408 1813 c6 -2 18 -2 25 0 6 3 1 5 -13 5 -14 0 -19 -2 -12 -5z"/>
<path d="M2720 1790 c0 -5 5 -10 10 -10 6 0 10 5 10 10 0 6 -4 10 -10 10 -5 0
-10 -4 -10 -10z"/>
<path d="M2785 1770 c3 -5 8 -10 11 -10 2 0 4 5 4 10 0 6 -5 10 -11 10 -5 0
-7 -4 -4 -10z"/>
<path d="M2840 1747 c0 -8 4 -26 9 -39 12 -33 24 -178 14 -178 -4 0 -16 15
-27 33 -27 46 -31 18 -5 -37 16 -36 27 -46 45 -46 16 0 24 6 24 18 0 20 -25
159 -39 215 -10 42 -21 60 -21 34z"/>
<path d="M2610 1734 c0 -7 65 -95 86 -116 10 -10 21 -18 26 -18 18 0 6 22 -32
56 -38 34 -52 64 -30 64 6 0 10 4 10 8 0 5 -13 9 -30 10 -16 0 -30 -2 -30 -4z"/>
<path d="M2785 1660 c11 -53 28 -74 20 -25 -4 22 -11 45 -17 50 -7 7 -8 -1 -3
-25z"/>
<path d="M3315 2010 l-40 -7 43 -2 c23 0 42 4 42 9 0 6 -1 9 -2 9 -2 -1 -21
-5 -43 -9z"/>
<path d="M3243 1883 c9 -2 23 -2 30 0 6 3 -1 5 -18 5 -16 0 -22 -2 -12 -5z"/>
<path d="M3183 1743 c9 -2 25 -2 35 0 9 3 1 5 -18 5 -19 0 -27 -2 -17 -5z"/>
<path d="M790 1722 c0 -4 23 -15 50 -24 41 -13 50 -14 50 -3 0 8 -6 17 -12 21
-18 12 -88 16 -88 6z"/>
<path d="M640 1701 c0 -5 9 -7 20 -4 11 3 20 7 20 9 0 2 -9 4 -20 4 -11 0 -20
-4 -20 -9z"/>
<path d="M975 1675 c22 -8 45 -22 51 -30 6 -7 17 -12 25 -11 26 5 49 18 49 28
0 5 -4 7 -9 4 -5 -4 -11 -2 -13 3 -1 6 -34 13 -73 16 l-70 5 40 -15z"/>
<path d="M581 1662 c-27 -9 -7 -19 44 -21 33 -1 55 2 55 8 0 18 -61 26 -99 13z"/>
<path d="M747 1659 c7 -7 15 -10 18 -7 3 3 -2 9 -12 12 -14 6 -15 5 -6 -5z"/>
<path d="M510 1651 c0 -5 7 -12 16 -15 21 -8 21 -8 28 9 4 11 -1 15 -19 15
-14 0 -25 -4 -25 -9z"/>
<path d="M895 1570 c-8 -12 20 -24 35 -15 5 3 10 10 10 16 0 12 -37 12 -45 -1z"/>
<path d="M2295 1730 c10 -11 25 -20 34 -20 12 0 9 6 -9 20 -33 26 -48 26 -25
0z"/>
<path d="M2268 1703 c6 -2 18 -2 25 0 6 3 1 5 -13 5 -14 0 -19 -2 -12 -5z"/>
<path d="M2420 1640 c0 -5 5 -10 11 -10 5 0 7 5 4 10 -3 6 -8 10 -11 10 -2 0
-4 -4 -4 -10z"/>
<path d="M3510 1670 c0 -5 5 -10 10 -10 6 0 10 5 10 10 0 6 -4 10 -10 10 -5 0
-10 -4 -10 -10z"/>
<path d="M1541 1554 c0 -11 3 -14 6 -6 3 7 2 16 -1 19 -3 4 -6 -2 -5 -13z"/>
<path d="M1342 1490 c0 -14 2 -19 5 -12 2 6 2 18 0 25 -3 6 -5 1 -5 -13z"/>
<path d="M1650 1483 c0 -10 5 -25 10 -33 8 -12 10 -9 10 12 0 15 -4 30 -10 33
-5 3 -10 -2 -10 -12z"/>
<path d="M1610 1450 c0 -5 5 -10 11 -10 5 0 7 5 4 10 -3 6 -8 10 -11 10 -2 0
-4 -4 -4 -10z"/>
<path d="M1661 1404 c0 -11 3 -14 6 -6 3 7 2 16 -1 19 -3 4 -6 -2 -5 -13z"/>
<path d="M1891 1360 c0 -19 4 -42 9 -50 8 -12 10 -11 9 5 -1 11 -5 34 -9 50
l-8 30 -1 -35z"/>
<path d="M1720 1350 c0 -8 5 -22 10 -30 9 -13 10 -13 10 0 0 8 -5 22 -10 30
-9 13 -10 13 -10 0z"/>
<path d="M1875 1285 c4 -27 12 -54 17 -60 6 -6 7 8 3 40 -4 28 -12 55 -17 60
-6 6 -7 -8 -3 -40z"/>
<path d="M2110 1283 c0 -42 16 -61 24 -30 7 28 -1 57 -15 57 -5 0 -9 -12 -9
-27z"/>
<path d="M1765 1271 c5 -34 12 -49 18 -40 2 2 -3 20 -10 39 l-14 35 6 -34z"/>
<path d="M1857 1215 c-8 -51 0 -85 19 -78 9 3 14 -2 15 -13 1 -11 6 -1 11 20
9 31 8 42 -3 50 -8 6 -19 22 -25 36 -10 24 -11 23 -17 -15z m40 -47 c-3 -8 -6
-5 -6 6 -1 11 2 17 5 13 3 -3 4 -12 1 -19z"/>
<path d="M2270 1205 c0 -16 6 -25 15 -25 16 0 19 9 9 34 -9 25 -24 19 -24 -9z"/>
<path d="M2136 1162 c-3 -6 -1 -14 5 -17 14 -9 20 -2 10 14 -6 8 -11 9 -15 3z"/>
<path d="M2280 1126 c0 -14 5 -28 10 -31 6 -3 10 5 10 19 0 14 -4 28 -10 31
-6 3 -10 -5 -10 -19z"/>
<path d="M2341 1134 c0 -11 3 -14 6 -6 3 7 2 16 -1 19 -3 4 -6 -2 -5 -13z"/>
<path d="M2285 1070 c3 -5 10 -10 16 -10 5 0 9 5 9 10 0 6 -7 10 -16 10 -8 0
-12 -4 -9 -10z"/>
<path d="M172 1510 c0 -19 2 -27 5 -17 2 9 2 25 0 35 -3 9 -5 1 -5 -18z"/>
<path d="M722 1328 c-15 -15 -17 -112 -2 -103 6 3 10 24 10 46 0 24 4 38 10
34 6 -3 10 3 10 14 0 24 -10 27 -28 9z"/>
<path d="M544 1276 c-3 -14 -4 -33 -1 -43 3 -13 6 -9 12 14 4 18 11 30 16 27
5 -3 9 2 9 10 0 25 -29 18 -36 -8z"/>
<path d="M486 1245 c4 -8 8 -15 10 -15 2 0 4 7 4 15 0 8 -4 15 -10 15 -5 0 -7
-7 -4 -15z"/>
<path d="M627 1225 c-4 -8 -2 -17 3 -20 6 -4 10 3 10 14 0 25 -6 27 -13 6z"/>
<path d="M752 1185 c0 -16 2 -22 5 -12 2 9 2 23 0 30 -3 6 -5 -1 -5 -18z"/>
<path d="M502 1155 c0 -16 2 -22 5 -12 2 9 2 23 0 30 -3 6 -5 -1 -5 -18z"/>
<path d="M711 1120 c0 -33 4 -62 10 -65 5 -4 9 21 9 59 0 36 -4 66 -9 66 -5 0
-10 -27 -10 -60z"/>
<path d="M975 1159 c-4 -6 -5 -12 -2 -15 2 -3 7 2 10 11 7 17 1 20 -8 4z"/>
<path d="M1001 1134 c0 -11 3 -14 6 -6 3 7 2 16 -1 19 -3 4 -6 -2 -5 -13z"/>
<path d="M752 1080 c0 -19 2 -27 5 -17 2 9 2 25 0 35 -3 9 -5 1 -5 -18z"/>
<path d="M451 1088 c0 -7 4 -22 9 -33 6 -16 8 -14 7 13 0 17 -4 32 -9 32 -4 0
-8 -6 -7 -12z"/>
<path d="M3873 1330 c0 -25 2 -35 4 -22 2 12 2 32 0 45 -2 12 -4 2 -4 -23z"/>
<path d="M3506 1338 c-9 -36 -7 -90 3 -83 9 5 14 105 6 105 -1 0 -5 -10 -9
-22z"/>
<path d="M3836 1300 c-8 -53 4 -390 15 -410 5 -8 6 89 2 215 -3 127 -7 231 -8
233 -1 1 -5 -16 -9 -38z"/>
<path d="M3240 1311 c-5 -11 -9 -37 -9 -58 1 -21 3 -29 6 -18 2 11 7 31 10 45
6 24 7 23 13 -10 7 -34 7 -33 9 13 1 49 -11 61 -29 28z"/>
<path d="M3390 1274 c0 -14 4 -23 10 -19 6 3 10 15 10 26 0 10 -4 19 -10 19
-5 0 -10 -12 -10 -26z"/>
<path d="M3312 1265 c0 -16 2 -22 5 -12 2 9 2 23 0 30 -3 6 -5 -1 -5 -18z"/>
<path d="M3683 1245 c0 -27 2 -38 4 -22 2 15 2 37 0 50 -2 12 -4 0 -4 -28z"/>
<path d="M3156 1249 c-10 -64 -13 -179 -4 -179 4 0 8 28 8 63 0 34 4 78 10 97
6 21 6 38 1 43 -6 6 -12 -4 -15 -24z"/>
<path d="M3457 1246 c-4 -15 -6 -31 -2 -34 10 -10 16 6 13 35 l-3 28 -8 -29z"/>
<path d="M3871 1233 c1 -21 5 -51 9 -68 6 -23 8 -15 9 38 1 39 -3 67 -9 67 -5
0 -9 -17 -9 -37z"/>
<path d="M3945 1238 c8 -46 15 -48 15 -5 0 21 -5 37 -10 37 -6 0 -8 -13 -5
-32z"/>
<path d="M3318 1233 c-14 -3 -18 -14 -17 -46 1 -23 3 -33 6 -22 10 46 13 51
23 35 7 -11 10 -8 10 13 0 15 -1 26 -2 26 -2 -1 -11 -3 -20 -6z"/>
<path d="M3393 1200 c0 -25 2 -35 4 -22 2 12 2 32 0 45 -2 12 -4 2 -4 -23z"/>
<path d="M3547 1207 c-10 -26 -8 -237 3 -237 6 0 10 45 10 125 0 120 -2 140
-13 112z"/>
<path d="M3231 1194 c0 -11 3 -14 6 -6 3 7 2 16 -1 19 -3 4 -6 -2 -5 -13z"/>
<path d="M3755 1125 c2 -44 7 -183 11 -310 4 -126 10 -221 14 -210 12 33 -1
464 -15 535 l-14 65 4 -80z"/>
<path d="M3262 1170 c0 -14 2 -19 5 -12 2 6 2 18 0 25 -3 6 -5 1 -5 -13z"/>
<path d="M3630 1166 c0 -14 5 -26 10 -26 6 0 10 9 10 19 0 11 -4 23 -10 26 -6
4 -10 -5 -10 -19z"/>
<path d="M3952 1165 c0 -16 2 -22 5 -12 2 9 2 23 0 30 -3 6 -5 -1 -5 -18z"/>
<path d="M3072 1159 c-1 -14 -5 -48 -8 -75 -5 -37 -4 -46 5 -38 8 7 11 34 8
75 -2 35 -4 52 -5 38z"/>
<path d="M3220 1161 c0 -6 5 -13 10 -16 6 -3 10 1 10 9 0 9 -4 16 -10 16 -5 0
-10 -4 -10 -9z"/>
<path d="M3682 1140 c0 -14 2 -19 5 -12 2 6 2 18 0 25 -3 6 -5 1 -5 -13z"/>
<path d="M3255 1127 c-4 -10 -5 -21 -1 -24 10 -10 18 4 13 24 -4 17 -4 17 -12
0z"/>
<path d="M3299 1135 c-4 -5 -7 -53 -7 -105 l0 -95 9 80 c10 83 8 137 -2 120z"/>
<path d="M3331 1124 c0 -11 3 -14 6 -6 3 7 2 16 -1 19 -3 4 -6 -2 -5 -13z"/>
<path d="M3381 1053 c1 -90 5 -87 12 10 3 37 1 67 -4 67 -5 0 -9 -35 -8 -77z"/>
<path d="M3630 1086 c0 -20 5 -36 10 -36 6 0 10 13 10 29 0 17 -4 33 -10 36
-6 4 -10 -8 -10 -29z"/>
<path d="M3436 1048 c-3 -29 -5 -69 -5 -88 1 -30 3 -28 10 15 18 112 19 125
11 125 -5 0 -12 -24 -16 -52z"/>
<path d="M3880 1054 c0 -8 5 -12 10 -9 6 4 8 11 5 16 -9 14 -15 11 -15 -7z"/>
<path d="M3140 1039 c0 -11 5 -17 10 -14 6 3 10 13 10 21 0 8 -4 14 -10 14 -5
0 -10 -9 -10 -21z"/>
<path d="M3322 1030 c0 -19 2 -27 5 -17 2 9 2 25 0 35 -3 9 -5 1 -5 -18z"/>
<path d="M3950 1000 c0 -33 4 -60 10 -60 5 0 9 27 9 60 -1 33 -5 60 -10 60 -5
0 -9 -27 -9 -60z"/>
<path d="M3681 1034 c0 -11 3 -14 6 -6 3 7 2 16 -1 19 -3 4 -6 -2 -5 -13z"/>
<path d="M3055 1007 c-4 -10 -5 -21 -1 -24 10 -10 18 4 13 24 -4 17 -4 17 -12
0z"/>
<path d="M3881 993 c0 -16 4 -50 9 -78 7 -48 7 -48 9 28 0 45 -3 77 -9 77 -5
0 -10 -12 -9 -27z"/>
<path d="M3136 947 c-4 -38 -5 -71 -3 -74 8 -7 19 79 15 113 -2 18 -6 4 -12
-39z"/>
<path d="M3923 955 c0 -27 2 -38 4 -22 2 15 2 37 0 50 -2 12 -4 0 -4 -28z"/>
<path d="M3310 955 c0 -14 5 -25 10 -25 6 0 10 11 10 25 0 14 -4 25 -10 25 -5
0 -10 -11 -10 -25z"/>
<path d="M3370 940 c0 -11 5 -20 10 -20 6 0 10 9 10 20 0 11 -4 20 -10 20 -5
0 -10 -9 -10 -20z"/>
<path d="M3286 915 c-3 -9 -6 -29 -5 -43 1 -22 3 -19 10 12 10 40 6 60 -5 31z"/>
<path d="M3920 859 c0 -11 5 -17 10 -14 6 3 10 13 10 21 0 8 -4 14 -10 14 -5
0 -10 -9 -10 -21z"/>
<path d="M3958 865 c-6 -6 0 -66 7 -73 3 -3 5 13 5 36 0 42 -2 47 -12 37z"/>
<path d="M3851 844 c0 -11 3 -14 6 -6 3 7 2 16 -1 19 -3 4 -6 -2 -5 -13z"/>
<path d="M3928 785 c2 -25 7 -43 11 -41 8 6 1 86 -8 86 -3 0 -5 -20 -3 -45z"/>
<path d="M3270 805 c0 -8 5 -15 10 -15 6 0 10 7 10 15 0 8 -4 15 -10 15 -5 0
-10 -7 -10 -15z"/>
<path d="M2860 1124 c0 -14 4 -23 10 -19 6 3 10 15 10 26 0 10 -4 19 -10 19
-5 0 -10 -12 -10 -26z"/>
<path d="M2730 1121 c0 -6 5 -13 10 -16 6 -3 10 1 10 9 0 9 -4 16 -10 16 -5 0
-10 -4 -10 -9z"/>
<path d="M2802 1100 c0 -14 2 -19 5 -12 2 6 2 18 0 25 -3 6 -5 1 -5 -13z"/>
<path d="M2685 1087 c-4 -10 -5 -21 -1 -24 10 -10 18 4 13 24 -4 17 -4 17 -12
0z"/>
<path d="M2885 977 c-4 -10 -5 -21 -1 -24 10 -10 18 4 13 24 -4 17 -4 17 -12
0z"/>
<path d="M2780 1286 c0 -22 3 -27 11 -19 8 8 8 16 0 30 -9 16 -10 14 -11 -11z"/>
<path d="M4226 1088 c-9 -35 -7 -113 3 -102 12 13 23 124 12 124 -5 0 -11 -10
-15 -22z"/>
<path d="M4203 980 c0 -30 2 -43 4 -27 2 15 2 39 0 55 -2 15 -4 2 -4 -28z"/>
<path d="M4202 830 c-2 -3 -5 -54 -8 -115 -4 -81 -2 -105 6 -93 6 11 9 57 7
115 -1 54 -4 96 -5 93z"/>
<path d="M1442 600 c0 -14 2 -19 5 -12 2 6 2 18 0 25 -3 6 -5 1 -5 -13z"/>
<path d="M522 500 c0 -14 2 -19 5 -12 2 6 2 18 0 25 -3 6 -5 1 -5 -13z"/>
<path d="M650 451 c0 -5 5 -13 10 -16 6 -3 10 -2 10 4 0 5 -4 13 -10 16 -5 3
-10 2 -10 -4z"/>
<path d="M740 379 c0 -11 5 -17 10 -14 6 3 10 13 10 21 0 8 -4 14 -10 14 -5 0
-10 -9 -10 -21z"/>
<path d="M550 380 c0 -5 5 -10 10 -10 6 0 10 5 10 10 0 6 -4 10 -10 10 -5 0
-10 -4 -10 -10z"/>
<path d="M680 358 c0 -9 5 -20 10 -23 13 -8 13 5 0 25 -8 13 -10 13 -10 -2z"/>
<path d="M615 331 c9 -29 -4 -54 -21 -40 -11 9 -14 7 -14 -9 0 -11 7 -22 15
-26 8 -3 15 -12 15 -19 0 -8 7 -20 15 -27 13 -11 14 -3 12 59 -1 47 -6 72 -15
76 -9 3 -11 -1 -7 -14z"/>
<path d="M680 281 c0 -12 6 -21 16 -21 9 0 14 7 12 17 -5 25 -28 28 -28 4z"/>
<path d="M245 359 c-4 -12 -2 -26 3 -31 8 -8 10 -1 10 21 -1 36 -4 39 -13 10z"/>
<path d="M1715 2150 c3 -5 12 -7 20 -3 21 7 19 13 -6 13 -11 0 -18 -4 -14 -10z"/>
<path d="M1026 2065 c-19 -14 -19 -15 7 -15 17 0 27 5 27 15 0 19 -9 19 -34 0z"/>
<path d="M1438 2033 c7 -3 16 -2 19 1 4 3 -2 6 -13 5 -11 0 -14 -3 -6 -6z"/>
<path d="M1532 2012 c2 -13 18 -18 61 -22 117 -11 92 7 -51 36 -8 1 -12 -5
-10 -14z"/>
<path d="M1236 1955 c4 -8 8 -15 10 -15 2 0 4 7 4 15 0 8 -4 15 -10 15 -5 0
-7 -7 -4 -15z"/>
<path d="M1581 1946 c2 -2 33 -6 67 -10 44 -5 62 -4 57 3 -3 6 -34 11 -67 11
-34 0 -59 -2 -57 -4z"/>
<path d="M1374 1890 c0 -16 7 -20 33 -20 21 0 40 -8 50 -20 22 -26 37 -26 23
0 -6 11 -22 23 -35 26 -13 3 -29 12 -36 20 -17 20 -35 17 -35 -6z"/>
<path d="M1610 1900 c-11 -7 -2 -10 29 -10 48 0 51 4 11 13 -14 3 -32 2 -40
-3z"/>
<path d="M1255 1891 c-49 -8 -25 -18 48 -20 34 0 47 3 45 12 -5 14 -38 17 -93
8z"/>
<path d="M1000 1870 c0 -5 5 -10 10 -10 6 0 10 5 10 10 0 6 -4 10 -10 10 -5 0
-10 -4 -10 -10z"/>
<path d="M1665 1829 c-33 -3 -46 -7 -30 -8 17 -1 47 -4 67 -7 20 -2 39 0 42 5
9 14 -13 17 -79 10z"/>
<path d="M1535 1820 c4 -6 11 -8 16 -5 14 9 11 15 -7 15 -8 0 -12 -5 -9 -10z"/>
<path d="M1760 1823 c0 -10 120 -26 129 -17 9 9 -8 14 -67 20 -39 4 -62 3 -62
-3z"/>
<path d="M1482 1798 c5 -15 28 -23 28 -10 0 5 -7 13 -16 16 -10 4 -14 1 -12
-6z"/>
<path d="M1220 1793 c1 -16 28 -43 44 -43 26 0 19 18 -14 35 -16 9 -30 12 -30
8z"/>
<path d="M1610 1786 c0 -2 7 -7 16 -10 8 -3 12 -2 9 4 -6 10 -25 14 -25 6z"/>
<path d="M1820 1774 c35 -15 55 -14 85 3 17 10 8 12 -48 11 -67 -1 -68 -1 -37
-14z"/>
<path d="M1311 1754 c0 -11 3 -14 6 -6 3 7 2 16 -1 19 -3 4 -6 -2 -5 -13z"/>
<path d="M23 112 c-13 -2 -23 -8 -23 -13 0 -13 37 -11 45 2 9 14 5 16 -22 11z"/>
</g>
</svg>
