<?xml version="1.0" standalone="no"?>
<!DOCTYPE svg PUBLIC "-//W3C//DTD SVG 20010904//EN"
 "http://www.w3.org/TR/2001/REC-SVG-20010904/DTD/svg10.dtd">
<svg version="1.0" xmlns="http://www.w3.org/2000/svg"
 width="290.000000pt" height="256.000000pt" viewBox="0 0 290.000000 256.000000"
 preserveAspectRatio="xMidYMid meet">
<metadata>
Created by potrace 1.16, written by Peter Selinger 2001-2019
</metadata>
<g transform="translate(0.000000,256.000000) scale(0.100000,-0.100000)"
fill="#000000" stroke="none">
<path d="M655 2512 c-3 -3 0 -11 6 -18 16 -20 -16 -30 -55 -17 -28 10 -99 17
-151 15 -74 -3 -165 0 -196 7 -29 7 -38 5 -47 -9 -8 -14 -19 -16 -56 -10 -50
7 -56 5 -56 -22 0 -10 -5 -18 -11 -18 -8 0 -10 -23 -6 -79 4 -62 2 -79 -8 -75
-20 8 -25 -23 -9 -56 9 -18 15 -50 13 -78 -1 -26 1 -59 5 -73 4 -14 3 -53 -3
-85 -16 -91 -17 -190 -1 -186 9 2 10 -5 4 -25 -4 -15 -7 -59 -6 -98 4 -162 1
-302 -7 -335 -10 -39 -6 -516 4 -542 4 -9 3 -23 -1 -30 -5 -7 -10 -98 -11
-203 -5 -286 -7 -349 -16 -363 -5 -7 -3 -14 7 -18 8 -3 17 -12 20 -20 3 -9 1
-12 -4 -9 -6 4 -10 -11 -10 -38 0 -42 1 -44 30 -44 29 0 30 2 30 49 0 26 -4
48 -10 48 -14 0 -12 27 3 34 9 5 9 7 0 12 -7 3 -13 10 -13 15 0 6 4 8 8 5 4
-2 8 16 9 42 3 133 2 239 -3 259 -4 13 -3 48 1 79 6 51 8 54 23 41 9 -8 28
-18 42 -21 18 -5 14 0 -16 20 l-42 28 0 93 -1 93 27 0 c15 0 50 7 77 15 28 9
100 29 162 45 61 17 120 33 130 37 12 4 15 3 8 -4 -5 -6 -41 -22 -80 -36 -38
-14 -95 -35 -125 -46 -30 -12 -61 -19 -68 -16 -7 3 -11 1 -7 -4 3 -5 -8 -12
-25 -16 -30 -6 -42 -25 -17 -25 13 0 106 32 247 85 41 16 97 42 124 59 28 17
61 29 76 28 15 -1 37 7 50 18 41 36 54 28 51 -32 -2 -33 2 -53 14 -64 14 -15
14 -17 0 -28 -14 -10 -14 -17 -1 -66 8 -30 19 -68 25 -83 6 -16 11 -41 11 -57
0 -24 5 -29 34 -34 18 -4 41 -4 50 0 9 3 16 1 16 -5 0 -12 72 -51 95 -51 9 0
27 -11 40 -24 38 -38 68 -56 92 -56 12 0 27 -8 32 -19 13 -23 52 -34 83 -22
28 10 51 3 41 -12 -4 -7 -8 -19 -8 -27 0 -10 -15 -17 -45 -21 -25 -4 -89 -18
-142 -33 -76 -20 -103 -24 -124 -16 -15 6 -29 8 -32 6 -5 -5 3 -9 38 -18 17
-5 -157 -60 -260 -82 -41 -9 -98 -16 -126 -16 -69 0 -114 -10 -114 -25 0 -17
-93 -39 -135 -32 -23 4 -38 1 -46 -9 -6 -8 -18 -14 -25 -14 -8 0 -14 -5 -14
-11 0 -14 65 -5 219 30 115 27 120 27 135 9 12 -14 29 -18 68 -17 l53 1 -47
12 c-25 6 -50 14 -54 18 -10 11 33 25 133 44 48 9 125 29 171 46 51 18 94 27
108 24 17 -5 22 -3 18 8 -5 13 21 23 81 32 54 8 132 27 145 35 8 5 22 12 30
16 8 4 21 13 28 20 7 7 20 13 29 13 18 0 -12 -26 -86 -75 -24 -16 -46 -35 -48
-41 -6 -20 38 -23 84 -8 58 20 67 11 13 -12 -24 -11 -39 -23 -36 -31 3 -8 -2
-12 -12 -10 -9 1 -17 -2 -17 -8 -1 -14 20 -7 62 21 36 24 59 31 49 15 -7 -11
87 7 152 29 28 10 52 17 52 15 0 -2 -20 -15 -45 -29 -45 -27 -58 -46 -31 -46
7 0 18 6 25 13 6 8 35 26 66 41 52 27 70 46 43 46 -6 0 -8 3 -5 6 4 4 13 1 21
-5 11 -10 21 -9 45 3 16 9 38 16 48 15 10 0 13 -3 6 -6 -7 -2 -13 -9 -13 -14
0 -14 28 -11 33 4 3 9 7 9 21 -2 15 -13 14 -15 -8 -26 -14 -8 -62 -28 -108
-46 -46 -18 -92 -42 -103 -52 -20 -19 -20 -20 10 -13 16 4 32 11 35 14 11 15
241 102 267 101 21 0 12 -6 -37 -25 -123 -48 -170 -64 -182 -64 -7 0 -29 -14
-48 -30 -19 -16 -31 -30 -26 -30 8 0 64 25 148 65 28 13 97 31 161 40 21 3 35
10 32 16 -5 7 5 11 35 11 3 1 19 -2 35 -5 17 -4 24 -4 18 -1 -22 9 -14 19 16
21 16 1 44 9 62 18 l34 15 -42 -4 c-23 -2 -44 -1 -48 2 -7 7 80 34 112 34 12
0 23 8 26 18 2 10 33 32 67 49 107 55 197 119 214 152 18 35 14 49 -14 49 -16
0 -18 5 -13 30 5 27 3 30 -20 30 -28 0 -42 23 -24 38 7 5 34 13 62 17 27 4 66
15 87 26 20 10 44 19 52 19 18 0 106 52 106 63 0 4 -17 0 -37 -9 -21 -9 -57
-22 -81 -29 -24 -7 -49 -18 -56 -24 -8 -7 -45 -18 -82 -26 -38 -9 -81 -18 -96
-21 -26 -6 -26 -5 -34 62 -5 38 -10 59 -12 47 -2 -13 -7 -23 -12 -23 -13 0
-19 39 -10 69 4 16 4 34 0 42 -5 7 -6 25 -3 40 3 14 -1 39 -9 55 -14 29 -13
74 2 74 4 0 39 -21 76 -47 84 -57 224 -136 231 -129 10 10 -11 28 -70 58 -34
17 -97 55 -139 84 -42 30 -86 54 -97 54 -13 0 -26 12 -36 30 -20 38 -20 71 0
64 8 -4 15 -1 15 5 0 7 -8 15 -17 18 -29 10 -70 55 -55 60 16 6 15 53 -3 77
-7 10 -28 19 -46 21 -31 2 -58 30 -44 43 4 4 10 1 12 -5 6 -18 33 -16 33 1 0
26 -20 67 -29 61 -6 -3 -15 4 -21 16 -9 16 -18 19 -36 15 -20 -5 -26 -2 -34
21 -6 16 -22 37 -35 48 -23 19 -24 25 -18 87 5 62 8 68 35 79 37 15 28 24 -11
11 -25 -9 -32 -8 -39 4 -7 13 -13 12 -39 -10 -17 -14 -33 -39 -36 -56 -7 -33
-27 -41 -27 -11 0 21 -23 45 -33 34 -4 -3 -7 -1 -7 6 0 7 -4 9 -10 6 -5 -3
-10 1 -10 9 0 9 -6 13 -13 10 -13 -4 -45 22 -36 30 2 1 56 24 119 51 63 26
120 51 125 55 6 3 26 13 45 20 32 12 171 73 277 121 23 10 45 23 48 29 9 14
-2 13 -33 -4 -15 -8 -58 -27 -97 -44 -38 -17 -115 -50 -170 -75 -55 -25 -156
-68 -225 -97 -69 -29 -135 -57 -147 -62 -17 -9 -32 -4 -82 27 -34 21 -61 41
-61 46 0 6 79 37 155 59 28 9 29 8 11 -5 -11 -8 -28 -15 -38 -15 -10 0 -18 -5
-18 -11 0 -7 7 -8 18 -4 9 4 27 10 40 12 12 3 22 11 22 18 0 7 15 20 34 29 39
18 56 20 56 6 0 -5 -7 -10 -15 -10 -8 0 -15 -4 -15 -10 0 -5 17 -3 39 5 30 10
41 11 45 2 2 -7 5 -5 5 4 2 27 -42 43 -80 30 -45 -16 -50 -14 -43 13 6 24 -10
44 -21 26 -3 -5 -16 -10 -28 -9 -21 0 -21 1 3 11 l25 11 -23 5 c-29 5 -59 -17
-40 -29 9 -6 7 -9 -8 -9 -24 0 -147 -40 -141 -46 2 -3 42 5 88 16 91 22 110
24 94 12 -5 -4 -10 -13 -10 -21 0 -16 -51 -36 -145 -56 -65 -13 -65 -13 -109
15 -39 25 -42 28 -22 35 12 3 33 17 49 29 15 13 74 42 130 65 l104 41 31 -22
c18 -11 38 -28 45 -37 9 -11 15 -12 23 -4 8 8 3 16 -17 29 -58 37 -70 58 -28
48 18 -5 25 -3 20 4 -3 6 2 15 11 21 26 15 12 13 -37 -4 -52 -19 -61 -19 -54
-1 4 10 -1 12 -19 9 -14 -3 -28 1 -32 8 -5 7 -4 10 1 6 6 -3 16 -1 24 4 11 7
7 9 -15 7 -16 -2 -28 -6 -25 -10 3 -4 -4 -14 -15 -23 -20 -16 -20 -16 2 -10
13 3 30 2 39 -3 13 -7 13 -11 -8 -24 -29 -18 -90 -40 -96 -33 -3 2 8 9 24 15
38 14 75 33 71 36 -9 10 -197 -68 -197 -81 0 -3 18 2 40 11 23 9 43 14 46 11
3 -3 -5 -8 -18 -12 -13 -4 -44 -20 -69 -36 -25 -16 -56 -29 -69 -29 -22 0
-130 66 -130 80 0 3 29 15 64 26 36 11 62 16 59 11 -3 -5 0 -7 8 -5 8 3 13 11
11 17 -2 9 3 9 17 1 11 -5 35 -10 53 -11 31 -1 31 -1 8 -9 -21 -7 -19 -8 16
-9 26 -1 46 5 54 14 18 22 8 27 -50 27 -60 0 -56 7 24 36 44 17 62 19 72 11 7
-6 18 -8 25 -4 8 6 7 10 -2 16 -10 6 -6 9 14 9 15 0 27 4 27 10 0 5 -23 7 -52
5 l-53 -5 63 13 c34 8 68 21 75 29 6 9 23 18 37 22 30 7 56 23 49 30 -2 3 -40
-10 -83 -29 -44 -19 -98 -37 -122 -41 -37 -5 -42 -9 -34 -23 7 -15 5 -17 -21
-13 -16 2 -29 8 -29 12 0 5 -9 6 -20 3 -11 -3 -20 -10 -20 -17 0 -7 -3 -6 -9
2 -6 11 -20 9 -72 -8 -35 -12 -68 -26 -73 -31 -16 -15 26 -11 58 6 15 8 38 15
50 14 20 0 20 -1 -2 -10 -13 -5 -21 -13 -18 -17 11 -19 -139 -76 -163 -62 -13
7 -10 11 18 23 31 13 31 15 11 20 -12 3 -33 2 -47 -4 -17 -6 -31 -5 -49 8
l-25 16 88 42 c48 22 109 50 135 61 48 19 66 37 28 27 -11 -3 -20 -1 -20 5 0
7 -10 8 -31 2 -44 -13 -51 -24 -11 -17 21 4 31 3 27 -3 -3 -6 -11 -10 -17 -10
-6 0 -53 -20 -106 -45 -52 -25 -100 -45 -106 -45 -17 0 -103 60 -86 60 18 1
60 34 60 48 0 5 7 12 15 16 13 5 14 2 4 -16 -10 -19 -9 -20 7 -13 11 4 38 14
62 22 23 8 42 21 42 28 0 15 27 24 101 31 60 6 81 -5 59 -31 -10 -13 -8 -15
16 -15 16 0 46 -14 68 -30 50 -38 71 -39 29 -1 -31 27 -45 50 -22 36 12 -8 49
23 49 42 0 7 -8 13 -17 13 -9 0 -13 -3 -10 -7 12 -12 -15 -33 -42 -33 -16 1
-33 10 -44 25 -14 19 -15 25 -4 25 16 0 77 29 77 37 0 2 -17 2 -39 -2 -45 -7
-61 13 -32 39 16 15 19 15 24 2 4 -9 18 -14 37 -14 36 1 50 -9 30 -22 -11 -7
-9 -9 10 -8 47 3 80 -2 80 -12 0 -5 -8 -10 -19 -10 -21 0 -46 -25 -33 -34 17
-10 83 6 78 19 -3 8 2 12 12 10 9 -1 16 -8 15 -14 -3 -12 29 -15 41 -4 4 4 -3
16 -16 26 l-23 19 39 -6 c22 -3 42 -9 45 -14 3 -5 22 -8 41 -7 19 2 43 -1 52
-6 10 -5 19 -5 23 0 7 13 -6 20 -48 25 -20 2 -44 9 -54 15 -14 8 -3 9 42 5 75
-6 97 -13 89 -26 -4 -6 -1 -14 7 -19 10 -6 6 -11 -14 -18 -16 -6 -36 -11 -45
-11 -12 0 -13 -3 -5 -11 6 -6 9 -18 6 -25 -3 -8 6 -18 21 -25 35 -16 25 -26
-34 -34 -27 -4 -53 -11 -56 -16 -3 -6 4 -8 18 -5 108 23 132 26 142 16 5 -5
15 -10 20 -10 16 0 -51 58 -71 62 -10 2 -19 11 -21 20 -3 14 11 17 85 22 48 4
112 8 141 10 30 3 52 0 52 -5 0 -6 6 -7 13 -2 6 4 33 9 59 10 26 1 77 9 113
18 36 8 76 15 88 15 40 0 -3 -19 -60 -26 -29 -3 -53 -10 -53 -15 0 -4 -20 -11
-45 -15 -45 -6 -73 -24 -39 -24 16 0 16 -1 -2 -15 -17 -13 -13 -13 31 0 57 17
137 21 98 5 -13 -5 -23 -11 -23 -12 0 -2 20 -3 45 -4 24 0 42 3 40 7 -3 4 1
10 7 12 7 3 1 6 -14 6 -37 1 -36 16 2 29 26 9 31 8 40 -9 13 -24 26 -24 74 0
35 18 36 20 17 31 -17 8 -24 7 -42 -11 -11 -11 -23 -18 -27 -15 -12 13 25 36
65 40 22 2 50 7 62 11 12 4 21 2 21 -4 0 -6 7 -11 15 -11 8 0 15 6 15 14 0 11
12 15 40 14 32 0 38 -3 30 -13 -10 -12 -211 -95 -230 -95 -4 0 -25 -7 -46 -17
-38 -16 -38 -16 -14 -24 37 -11 70 -10 70 1 0 5 -7 6 -17 3 -11 -4 -14 -3 -9
5 9 15 61 37 107 47 35 7 150 55 159 65 3 4 13 9 23 13 9 3 17 14 17 22 0 12
6 15 20 10 14 -4 22 -1 27 11 9 25 -24 44 -76 43 -25 -1 -38 -3 -28 -6 9 -2
15 -8 12 -13 -3 -5 -12 -7 -20 -4 -7 3 -23 1 -34 -5 -16 -9 -28 -7 -57 9 -22
13 -43 18 -53 14 -9 -4 -19 -6 -23 -6 -5 1 -8 -2 -8 -8 0 -6 -29 -8 -77 -4
-90 7 -104 8 -235 3 -70 -3 -98 -8 -98 -16 0 -7 -9 -13 -20 -13 -11 0 -20 6
-20 14 0 9 -7 12 -20 9 -11 -3 -26 -1 -33 5 -7 7 -102 13 -232 17 -204 6 -487
15 -510 17 -5 0 -62 -2 -125 -6 -99 -5 -140 -6 -230 -6 -8 0 -28 -2 -45 -5
-16 -3 -65 0 -108 8 -42 7 -79 11 -82 9z m648 -22 c9 0 17 -3 17 -8 0 -4 -18
-6 -40 -4 -22 2 -40 9 -40 14 0 6 10 8 23 4 12 -3 30 -6 40 -6z m243 0 c13 0
24 -4 24 -10 0 -10 -94 -2 -125 12 -13 6 -4 7 29 3 27 -3 59 -5 72 -5z m-803
-13 c3 -7 -6 -13 -23 -14 -16 -1 -27 3 -27 10 0 17 44 20 50 4z m312 -6 c3 -6
-4 -15 -15 -21 -11 -6 -20 -9 -21 -8 -8 29 -5 38 11 38 10 0 21 -4 25 -9z
m608 2 c-7 -2 -19 -2 -25 0 -7 3 -2 5 12 5 14 0 19 -2 13 -5z m165 0 c-10 -2
-28 -2 -40 0 -13 2 -5 4 17 4 22 1 32 -1 23 -4z m-1678 -17 c0 -8 -7 -16 -15
-20 -17 -6 -18 -4 -9 18 8 20 24 21 24 2z m460 3 c0 -5 -4 -8 -8 -5 -4 2 -27
-4 -51 -15 -50 -22 -60 -24 -43 -7 12 12 67 35 90 37 6 0 12 -4 12 -10z m70
-14 c0 -9 -9 -15 -25 -15 -22 0 -24 2 -13 15 17 19 38 19 38 0z m147 -10 c-17
-17 -47 -20 -47 -5 0 6 9 10 19 10 11 0 23 5 26 11 4 6 9 8 12 5 3 -3 -2 -12
-10 -21z m126 5 c-10 -11 -25 -20 -34 -20 -9 0 -33 -11 -53 -25 -22 -15 -36
-20 -36 -12 0 11 36 40 50 42 3 0 11 4 18 8 6 5 16 6 21 3 5 -3 14 1 21 9 7 8
16 15 21 15 5 0 1 -9 -8 -20z m193 5 c-10 -8 -55 -26 -100 -41 -45 -15 -100
-35 -123 -45 -51 -22 -68 -7 -21 17 18 9 35 16 38 16 9 -3 105 31 140 49 19
11 46 19 60 19 24 -1 24 -1 6 -15z m153 -8 c-21 -16 -155 -64 -244 -87 -120
-31 -171 -48 -143 -49 20 -1 14 -27 -8 -35 -9 -3 -12 -1 -9 4 3 6 1 10 -4 10
-6 0 -11 -6 -11 -13 0 -7 -19 -21 -42 -32 -24 -10 -70 -30 -103 -46 -110 -51
-140 -62 -154 -60 -8 1 -17 -3 -21 -9 -8 -13 -100 -42 -100 -32 0 5 5 13 12
20 22 22 1 23 -50 3 -28 -11 -54 -16 -57 -12 -3 5 16 16 42 24 79 25 102 28
122 15 15 -9 22 -8 36 5 9 9 28 17 41 17 14 0 23 4 20 9 -3 5 6 9 20 9 15 0
29 3 33 8 7 10 41 28 86 45 17 6 25 13 18 16 -6 2 -56 -14 -110 -36 -94 -39
-165 -52 -177 -32 -7 11 48 23 68 15 8 -3 23 -1 33 5 15 9 13 10 -9 5 -44 -10
-32 3 19 20 26 9 49 12 52 7 4 -5 17 -4 31 1 20 7 22 11 10 18 -9 6 -10 10 -3
10 6 0 20 3 30 6 15 5 16 4 3 -5 -12 -9 -6 -10 25 -5 47 8 85 21 85 29 0 3
-17 3 -37 0 l-38 -6 35 15 c124 52 225 84 232 73 7 -11 12 -3 9 15 0 3 22 11
50 17 28 6 60 16 71 22 13 7 23 8 27 1 3 -5 15 -6 26 -1 19 7 19 8 -2 8 -43 2
-23 20 25 23 41 3 74 -5 61 -15z m1049 16 c-10 -2 -18 -9 -18 -14 0 -5 -17 -9
-37 -8 l-38 1 33 8 c18 4 36 10 39 14 4 3 13 5 22 5 13 -1 13 -2 -1 -6z m-388
-15 c0 -11 -57 -10 -64 1 -3 5 10 9 29 8 19 -1 35 -5 35 -9z m285 -8 c-3 -5
-15 -10 -26 -10 -10 0 -19 5 -19 10 0 6 12 10 26 10 14 0 23 -4 19 -10z
m-2055 -4 c0 -3 -4 -8 -10 -11 -5 -3 -10 -1 -10 4 0 6 5 11 10 11 6 0 10 -2
10 -4z m404 -17 c-19 -22 -19 -22 6 -15 14 3 7 -3 -15 -13 -22 -11 -47 -20
-55 -20 -8 0 -1 6 15 14 17 7 26 14 20 14 -5 1 1 10 15 21 33 26 38 25 14 -1z
m1536 11 c12 -8 11 -10 -7 -10 -13 0 -23 5 -23 10 0 13 11 13 30 0z m-53 -14
c3 -3 -21 -6 -54 -6 -33 0 -75 -3 -92 -6 -24 -5 -31 -3 -31 9 0 14 13 16 85
13 47 -2 89 -6 92 -10z m-1348 -17 c-13 -10 -56 -28 -95 -40 -48 -16 -74 -29
-80 -43 -8 -19 -67 -53 -121 -70 -17 -6 -23 -3 -23 8 0 9 -7 16 -15 16 -8 0
-15 3 -15 6 0 11 34 33 51 34 9 0 22 6 28 14 7 8 31 18 54 21 23 4 48 11 57
16 39 22 110 47 110 39 0 -6 -5 -10 -12 -10 -6 0 -9 -2 -6 -5 10 -10 37 7 32
19 -3 9 6 13 27 13 l31 0 -23 -18z m-454 2 c6 -11 -33 -26 -43 -16 -4 3 0 10
8 15 19 12 27 12 35 1z m95 -16 c-43 -17 -50 -17 -50 -6 0 5 12 12 28 14 51 8
57 6 22 -8z m427 -1 c-2 -3 -19 -9 -36 -14 -24 -7 -31 -6 -28 3 4 13 47 27 60
19 5 -2 6 -6 4 -8z m-327 -2 c0 -8 -22 -15 -117 -39 -14 -3 -23 -1 -23 6 0 6
10 11 23 11 12 0 42 7 67 14 25 8 46 15 48 15 1 1 2 -3 2 -7z m-263 -18 c-3
-3 -12 -4 -19 -1 -8 3 -5 6 6 6 11 1 17 -2 13 -5z m557 -4 c14 5 26 7 26 5 0
-3 -12 -10 -26 -16 -46 -17 -17 -22 32 -5 28 9 52 12 57 7 8 -8 -88 -48 -105
-43 -4 1 -29 -9 -55 -22 -80 -40 -212 -78 -231 -66 -15 8 -14 9 6 10 12 0 22
5 22 10 0 6 12 10 28 10 34 0 68 19 37 21 -13 0 -8 5 16 14 58 21 123 57 132
72 6 10 12 11 22 3 8 -7 21 -7 39 0z m426 6 c0 -2 -9 -6 -20 -9 -11 -3 -18 -1
-14 4 5 9 34 13 34 5z m-924 -36 c-28 -11 -52 -17 -54 -15 -7 7 60 34 83 34
11 0 -2 -9 -29 -19z m144 5 c-7 -8 -24 -15 -39 -14 -24 0 -24 1 9 14 45 17 44
17 30 0z m-237 -33 c-13 -2 -23 -7 -23 -12 0 -16 70 -22 117 -11 35 9 48 9 57
0 8 -9 7 -11 -4 -7 -8 3 -53 -7 -100 -22 -61 -20 -87 -24 -92 -16 -4 6 -3 12
2 14 5 2 6 18 3 36 -5 32 -5 33 28 27 27 -4 29 -6 12 -9z m127 4 c-41 -15
-106 -29 -98 -21 8 9 91 33 113 33 12 0 5 -5 -15 -12z m690 -1 c16 -19 0 -19
-26 0 -16 12 -16 14 -3 15 9 0 22 -7 29 -15z m31 -64 c55 -36 58 -40 38 -46
-13 -4 -86 -39 -164 -77 -125 -61 -143 -67 -165 -57 l-25 12 39 17 c21 10 33
20 28 24 -12 7 -64 -11 -73 -26 -4 -6 -16 -4 -34 8 -26 17 -27 18 -6 26 23 8
28 24 9 31 -7 3 -3 6 9 6 12 1 25 6 29 12 3 6 18 8 33 5 14 -3 20 -3 13 0 -15
7 -6 24 14 24 9 0 12 -5 8 -12 -5 -8 -2 -9 10 -5 10 4 22 7 27 7 5 0 9 4 9 10
0 5 -8 7 -17 3 -44 -15 7 16 60 37 31 12 60 26 63 31 10 17 35 9 95 -30z
m-671 19 c0 -5 -10 -10 -22 -9 -22 0 -22 1 -3 9 11 5 21 9 23 9 1 1 2 -3 2 -9z
m-75 -20 c-3 -5 -11 -10 -16 -10 -6 0 -7 5 -4 10 3 6 11 10 16 10 6 0 7 -4 4
-10z m135 -24 c10 -13 10 -16 -3 -16 -8 0 -17 6 -20 13 -3 9 -16 8 -53 -7 -27
-10 -60 -21 -74 -24 -14 -3 -36 -13 -49 -23 -13 -11 -30 -19 -37 -19 -8 0 -14
-7 -14 -15 0 -8 -6 -15 -13 -15 -8 0 -14 12 -14 29 0 21 5 29 16 29 9 -1 47
11 85 26 37 14 76 26 86 26 10 0 23 7 30 15 13 16 36 8 60 -19z m-190 4 c-8
-5 -22 -10 -30 -10 -13 0 -13 1 0 10 8 5 22 10 30 10 13 0 13 -1 0 -10z m268
-45 c-2 -2 -23 -8 -47 -14 -48 -10 -47 -2 2 15 28 10 55 9 45 -1z m633 -2 c35
-21 37 -32 5 -26 -37 7 -222 -89 -210 -108 9 -16 46 1 93 42 38 34 62 46 74
37 2 -2 12 4 23 12 18 14 18 14 5 -2 -17 -22 -9 -23 31 -2 21 11 33 13 41 5 7
-7 2 -13 -16 -20 -15 -6 -47 -20 -71 -31 -25 -11 -50 -20 -55 -20 -6 0 -11 -5
-11 -10 0 -7 7 -7 21 0 11 7 23 9 26 6 5 -4 -75 -44 -158 -79 -35 -14 -39 -14
-75 9 -22 13 -32 24 -24 24 9 0 21 -5 27 -11 7 -7 19 -5 41 8 30 18 30 20 13
35 -16 13 -22 13 -65 -4 -26 -10 -52 -16 -57 -13 -11 7 -12 26 -1 23 4 -1 21
5 37 14 17 8 44 18 60 22 17 4 37 14 45 21 17 15 150 84 163 85 5 0 22 -8 38
-17z m-777 -2 c3 -5 -14 -14 -39 -20 -61 -15 -66 -13 -20 8 47 23 52 24 59 12z
m-36 -54 c-39 -15 -35 -28 4 -16 40 11 38 11 38 0 0 -4 -48 -26 -107 -47 -59
-22 -111 -40 -115 -42 -13 -6 -9 16 6 30 11 11 11 15 -3 25 -22 16 -11 23 46
32 26 4 47 11 46 17 0 5 24 10 55 11 51 1 54 0 30 -10z m959 -48 c32 -23 51
-39 42 -36 -9 3 -49 -6 -90 -19 -40 -13 -75 -24 -78 -24 -2 0 14 14 35 31 51
40 50 39 32 39 -8 0 -36 -20 -63 -44 -28 -26 -71 -53 -106 -66 -32 -11 -61
-25 -64 -30 -7 -11 -65 15 -65 28 0 4 53 31 118 61 64 30 127 65 140 78 13 13
27 23 32 23 5 0 35 -19 67 -41z m-617 11 c96 -49 152 -100 109 -100 -6 0 -7 5
-3 11 8 14 -33 5 -81 -16 -16 -7 -70 -29 -120 -49 -49 -19 -91 -39 -93 -44 -1
-5 28 -1 65 9 37 11 82 22 98 25 l30 6 -25 -14 c-14 -7 -58 -26 -97 -42 -40
-15 -73 -31 -73 -35 0 -4 22 -5 48 -1 34 4 61 16 87 38 21 17 42 29 45 27 4
-3 27 5 50 16 31 15 39 23 30 29 -8 5 -1 8 21 7 21 -1 33 2 32 9 -3 15 45 12
72 -4 11 -6 15 -12 8 -12 -6 0 -65 -25 -130 -56 -221 -105 -335 -154 -356
-154 -12 0 -35 9 -51 19 l-29 19 39 7 c21 3 52 12 67 20 16 8 35 15 43 15 8 0
14 5 14 10 0 13 -33 5 -118 -27 -117 -43 -106 -16 13 32 120 48 115 50 -65 29
-27 -3 -50 -2 -50 3 0 4 51 30 113 57 123 55 132 60 123 74 -8 13 -102 -21
-99 -35 1 -6 -32 -26 -74 -44 -76 -33 -133 -72 -133 -90 0 -6 21 -19 46 -31
35 -15 43 -22 33 -29 -11 -7 -11 -9 -1 -9 7 0 10 -4 7 -10 -3 -5 -2 -10 4 -10
16 0 22 18 9 23 -9 4 -7 6 3 6 9 1 22 -6 29 -14 7 -8 18 -15 24 -15 6 0 19 -7
29 -14 16 -13 12 -16 -47 -36 -37 -12 -66 -26 -66 -31 0 -4 6 -7 13 -4 6 2 45
14 86 25 40 12 80 24 87 27 8 3 14 -1 14 -10 0 -8 9 -17 20 -20 15 -4 20 0 20
13 0 11 -7 23 -15 27 -11 6 -2 15 35 32 28 13 48 26 46 28 -2 3 -14 -1 -26 -7
-12 -6 -24 -10 -26 -7 -3 2 10 10 28 18 18 7 108 47 199 89 138 64 169 75 183
65 20 -15 20 -21 -1 -28 -158 -52 -217 -74 -220 -83 -4 -13 56 -6 74 8 6 5 26
10 45 11 18 1 44 10 58 20 13 9 32 17 40 17 9 0 25 6 35 14 17 12 24 11 60
-14 22 -15 63 -39 90 -54 28 -15 75 -44 105 -66 30 -22 60 -40 67 -40 6 0 30
-16 54 -35 55 -46 64 -51 124 -58 l50 -7 -25 20 c-16 13 -34 18 -48 15 -17 -4
-36 6 -75 39 -29 24 -65 48 -80 51 -16 4 -34 16 -40 26 -7 11 -15 19 -20 19
-19 0 -198 113 -194 123 6 20 199 88 282 99 79 11 82 11 119 -14 l37 -26 -33
-5 c-18 -2 -36 0 -39 5 -6 10 -59 -10 -59 -22 0 -4 -18 -10 -40 -14 -43 -7
-55 -26 -16 -26 14 0 38 -14 57 -32 20 -21 34 -28 37 -20 2 6 12 12 22 12 10
0 22 5 25 10 8 13 -11 13 -36 0 -14 -8 -19 -7 -19 2 0 12 140 62 149 53 2 -3
-2 -7 -10 -9 -57 -21 -71 -27 -67 -31 3 -3 30 4 61 14 l56 20 40 -30 c23 -16
45 -29 51 -29 26 0 6 -18 -26 -23 -20 -3 -41 -12 -48 -20 -6 -7 -42 -26 -79
-42 -37 -15 -66 -29 -65 -30 2 -1 15 -5 31 -9 20 -5 27 -3 27 8 0 15 187 99
201 90 5 -3 9 -17 9 -32 0 -15 5 -44 10 -64 l11 -38 -68 -65 c-37 -36 -83 -72
-101 -81 -18 -8 -36 -22 -39 -31 -4 -11 -8 -11 -13 -3 -10 16 -50 3 -50 -16 0
-8 -19 -23 -42 -33 -145 -63 -199 -91 -193 -102 5 -8 10 -8 18 0 6 6 27 11 47
11 22 0 30 3 22 9 -9 5 9 18 58 39 38 18 74 32 78 32 10 -1 52 -37 52 -45 0
-3 -4 -4 -9 -1 -10 7 -150 -43 -239 -84 l-63 -29 -55 36 c-55 37 -69 39 -58
10 7 -19 66 -56 186 -118 49 -24 88 -47 88 -50 0 -4 -28 -10 -62 -13 -35 -4
-79 -11 -98 -16 -134 -32 -181 -42 -186 -37 -3 3 -4 18 -2 33 3 27 4 27 21 10
26 -26 31 -14 7 17 -24 30 -25 46 -5 53 23 9 19 193 -5 254 -10 25 -22 59 -27
75 -6 20 -20 35 -41 44 -23 11 -32 21 -32 38 0 18 -9 28 -32 38 -18 7 -36 17
-40 21 -28 28 -172 -16 -216 -65 -32 -36 -62 -96 -62 -123 0 -13 -7 -36 -16
-53 -8 -16 -13 -37 -11 -46 3 -12 -14 -29 -62 -60 -142 -91 -181 -111 -208
-104 -20 5 -24 3 -20 -9 5 -11 -7 -21 -40 -36 -25 -11 -47 -20 -49 -20 -2 0
-4 13 -4 28 0 27 5 30 63 46 70 19 307 132 307 146 0 5 -44 -12 -97 -39 -103
-50 -190 -85 -235 -95 -37 -8 -41 12 -33 142 3 59 2 126 -3 149 l-9 41 43 7
c52 7 58 22 12 27 l-33 3 -8 109 c-5 59 -5 116 -1 125 12 27 14 51 5 51 -12 0
-1 41 14 57 9 9 15 9 23 1 7 -7 15 -8 19 -4 4 4 1 11 -7 17 -13 8 -13 10 0 19
26 17 42 12 35 -10 -7 -22 6 -26 36 -9 11 6 25 9 31 7 6 -2 -11 -12 -38 -22
-27 -10 -53 -22 -58 -27 -17 -16 -1 -18 29 -4 73 33 129 54 275 104 52 18 101
33 108 33 6 1 12 5 12 10 0 12 6 10 50 -12z m-220 -5 c-37 -21 -180 -68 -187
-61 -4 3 0 6 8 6 12 0 11 2 -1 10 -11 8 -7 9 15 4 20 -4 26 -3 17 4 -11 7 -10
11 4 16 10 4 20 3 22 -3 2 -5 10 -7 18 -4 7 3 11 9 8 14 -3 5 2 6 11 3 8 -4
21 -2 28 4 13 10 41 19 67 20 8 1 4 -5 -10 -13z m305 -105 c-3 -5 -13 -10 -21
-10 -8 0 -14 -8 -14 -17 0 -15 -2 -16 -10 -3 -7 11 -3 18 13 27 27 15 40 16
32 3z m717 -31 c-4 -4 -32 -15 -62 -24 -30 -10 -62 -20 -70 -23 -13 -5 -13 -3
-1 11 7 9 10 17 6 17 -4 0 -3 6 3 13 6 7 35 12 71 12 33 0 57 -3 53 -6z
m-1220 -109 c-2 -7 5 -9 18 -6 11 3 30 9 41 12 36 10 12 -14 -27 -26 -30 -10
-38 -9 -55 6 -15 13 -16 19 -7 26 17 10 34 4 30 -12z m1675 -46 c-3 -4 -2 -15
3 -24 8 -15 6 -17 -9 -13 -20 5 -18 43 2 43 6 0 7 -3 4 -6z m-147 -74 c5 0 10
-13 10 -29 0 -34 15 -48 34 -32 10 8 16 7 26 -3 9 -12 16 -13 31 -3 10 6 19
17 19 23 0 7 7 14 15 18 9 3 15 0 15 -9 0 -7 7 -21 16 -30 10 -10 14 -25 11
-43 -3 -15 -11 -60 -17 -100 l-12 -72 -35 6 c-24 4 -38 2 -43 -6 -4 -7 -5 8
-3 34 4 28 2 46 -5 46 -5 0 -8 9 -5 20 3 11 1 20 -5 20 -6 0 -10 -23 -10 -54
0 -29 -3 -60 -8 -67 -4 -8 -9 -31 -9 -52 -1 -25 -9 -45 -24 -60 l-22 -22 6 50
c4 28 13 72 21 99 8 27 14 57 14 65 -1 36 -28 -20 -34 -71 -15 -110 -44 -179
-47 -110 -1 16 -3 20 -6 10 -2 -10 -9 -18 -14 -18 -6 0 -6 7 1 19 12 24 13 81
1 81 -4 0 -13 -15 -19 -32 -10 -33 -10 -33 -11 -5 -1 28 -21 39 -21 12 0 -8
-4 -15 -10 -15 -5 0 -7 12 -4 28 5 24 1 29 -33 43 -35 16 -38 16 -45 0 -4 -10
-7 -5 -7 17 -1 20 -7 35 -16 39 -14 5 -14 7 2 18 10 7 28 15 40 19 21 7 22 5
17 -23 -4 -20 -2 -31 5 -31 6 0 11 15 11 33 0 26 11 44 50 85 57 59 69 53 14
-8 -20 -22 -32 -40 -26 -40 6 0 13 4 17 10 3 5 20 19 37 32 17 12 28 17 24 10
-4 -7 -2 -12 4 -12 6 0 13 8 16 18 3 9 10 25 15 34 12 23 11 31 -1 23 -6 -4
-10 11 -9 37 0 36 2 39 9 21 5 -13 14 -23 20 -23z m115 -17 c-8 -32 -13 -39
-21 -30 -10 9 5 57 17 57 7 0 9 -10 4 -27z m-69 -9 c-4 -9 -9 -15 -11 -12 -3
3 -3 13 1 22 4 9 9 15 11 12 3 -3 3 -13 -1 -22z m-1027 -13 c21 -13 -43 -70
-72 -65 -14 3 -10 -1 9 -10 52 -25 49 -42 -5 -38 -40 3 -53 -1 -80 -23 -33
-28 -64 -78 -55 -88 3 -3 0 -14 -7 -26 -7 -11 -11 -23 -8 -26 9 -8 39 6 39 19
0 6 9 22 20 36 12 15 18 18 14 8 -10 -29 4 -20 21 12 24 47 57 57 104 34 38
-18 39 -20 45 -83 4 -40 3 -68 -4 -75 -5 -5 -10 -38 -10 -72 0 -35 -5 -66 -10
-69 -6 -4 -8 -15 -5 -26 4 -11 2 -19 -4 -19 -6 0 -11 -16 -11 -35 0 -19 -1
-35 -2 -35 -2 0 -30 -11 -62 -24 l-59 -24 -36 22 c-20 12 -49 27 -64 34 l-29
12 24 19 c12 11 20 22 17 25 -3 4 -18 -3 -32 -14 -25 -20 -28 -20 -58 -4 l-32
16 43 24 c23 13 45 24 49 24 13 0 151 75 151 82 0 10 -23 0 -152 -64 -78 -39
-113 -52 -128 -46 -11 4 -20 11 -19 15 0 8 128 87 294 182 44 25 73 47 65 49
-22 4 -305 -144 -305 -160 0 -16 -80 -61 -98 -55 -6 2 6 12 27 21 22 9 37 19
33 22 -3 3 -27 -4 -53 -15 -72 -32 -73 -10 -2 34 35 21 98 61 140 88 76 49 77
50 83 100 8 57 18 79 54 120 28 30 41 34 41 12 0 -8 9 -15 20 -15 11 0 20 5
20 11 0 5 -4 7 -10 4 -13 -8 -13 11 0 36 6 10 20 19 30 19 11 0 25 9 32 20 14
22 17 23 37 11z m69 -71 c41 -60 19 -106 -35 -72 -18 11 -21 18 -13 32 13 25
13 30 -4 30 -8 0 -17 -6 -19 -12 -3 -7 -6 -4 -6 6 -1 23 28 58 43 53 6 -2 21
-18 34 -37z m1145 -87 c4 -6 -2 -13 -12 -16 -16 -4 -19 -11 -14 -45 6 -41 -4
-56 -26 -43 -11 7 -11 21 0 82 15 87 31 113 40 65 3 -17 8 -37 12 -43z m72 37
c-3 -5 -11 -10 -16 -10 -6 0 -7 5 -4 10 3 6 11 10 16 10 6 0 7 -4 4 -10z
m-1194 -189 c-16 -16 -20 -17 -25 -4 -3 8 -6 26 -6 41 0 25 0 25 16 6 14 -17
15 -18 10 -1 -3 11 -3 24 1 30 4 7 10 -2 15 -21 7 -25 5 -35 -11 -51z m1139
39 c0 -20 -5 -30 -15 -30 -17 0 -18 4 -9 38 9 32 24 27 24 -8z m-116 7 c15
-11 13 -14 -23 -23 -41 -11 -46 -9 -35 20 7 19 34 21 58 3z m-414 -12 c14 -17
15 -16 -20 -32 -14 -6 -73 -35 -131 -64 l-107 -52 -33 20 -32 21 39 20 c21 11
59 27 84 36 25 8 74 26 110 40 80 30 75 29 90 11z m-553 -27 c-3 -7 -5 -2 -5
12 0 14 2 19 5 13 2 -7 2 -19 0 -25z m1033 11 c0 -4 -8 -13 -17 -18 -17 -10
-16 -10 2 -11 18 -1 18 -2 3 -10 -10 -6 -14 -18 -11 -30 4 -16 2 -19 -11 -14
-9 3 -16 15 -16 27 0 18 -2 18 -25 -7 -14 -15 -25 -32 -25 -38 0 -6 -3 -8 -7
-5 -11 12 -32 -27 -33 -60 0 -17 -4 -35 -10 -38 -5 -3 -11 -21 -11 -38 l-1
-32 -7 29 c-7 34 -18 25 -45 -34 -15 -34 -15 -34 -10 -5 5 29 5 29 -11 10 -17
-20 -17 -20 -10 5 4 14 16 40 26 59 13 21 15 32 7 28 -8 -3 -14 4 -14 19 -2
27 13 32 22 9 9 -24 34 2 33 34 0 25 0 25 -9 4 -13 -32 -20 -29 -11 5 6 22 12
26 33 24 19 -2 35 6 59 31 19 19 40 32 47 30 7 -3 12 5 12 20 0 20 4 24 20 20
11 -3 20 -9 20 -14z m-397 -59 c13 0 57 -40 57 -53 0 -5 9 -20 20 -34 16 -21
18 -29 8 -47 -7 -11 -11 -25 -10 -30 4 -14 -30 -46 -49 -46 -9 0 -20 6 -22 13
-4 9 -8 9 -15 -2 -6 -8 -17 -11 -27 -7 -9 3 -24 2 -33 -2 -12 -6 -36 2 -80 29
-35 20 -59 39 -54 43 5 3 39 10 77 16 76 12 135 34 135 50 0 7 -10 5 -27 -4
-16 -7 -48 -17 -73 -21 -25 -4 -67 -13 -94 -21 -46 -13 -51 -12 -82 7 -19 11
-34 24 -34 28 0 10 102 56 165 74 29 8 50 20 50 28 0 26 19 28 48 3 16 -13 34
-24 40 -24z m311 31 c-16 -15 -54 -23 -54 -12 0 6 9 11 19 11 11 0 23 5 26 11
4 6 10 8 13 4 3 -3 1 -9 -4 -14z m-1001 -25 c-16 -22 -33 -26 -33 -8 0 6 23
20 48 31 2 0 -5 -10 -15 -23z m1174 -8 c-3 -8 -6 -5 -6 6 -1 11 2 17 5 13 3
-3 4 -12 1 -19z m87 -29 c14 -27 14 -34 1 -51 -13 -19 -14 -18 -20 18 -4 22
-9 47 -12 58 -8 28 13 11 31 -25z m-1222 -74 c3 -4 0 -29 -8 -58 -13 -51 -10
-102 7 -91 5 3 9 1 9 -5 0 -5 -5 -13 -11 -17 -17 -10 -50 -91 -51 -125 -1 -23
-3 -27 -10 -16 -4 9 -4 27 2 42 5 14 10 31 10 37 0 17 -40 -23 -41 -41 -5 -57
-16 90 -13 159 5 85 23 176 31 153 3 -8 15 0 31 19 l27 32 6 -42 c3 -23 8 -44
11 -47z m1126 40 c1 -13 -4 -28 -11 -32 -14 -8 -31 -43 -28 -56 1 -4 -5 -15
-14 -23 -13 -14 -15 -13 -15 4 0 33 29 92 46 92 11 0 13 6 9 20 -3 11 -3 20 2
20 5 0 10 -11 11 -25z m162 -34 c0 -30 5 -51 12 -53 9 -3 9 -6 0 -12 -14 -8
-26 19 -35 77 -4 28 -2 37 9 37 10 0 14 -13 14 -49z m-131 -15 c-9 -8 -10 -7
-5 7 3 10 7 26 7 35 1 9 4 6 6 -7 3 -13 -1 -28 -8 -35z m-1829 -7 c-8 -5 -32
-14 -52 -19 -21 -6 -38 -15 -38 -20 0 -12 13 -13 26 -2 12 11 86 32 110 32 18
-1 18 -1 -1 -16 -16 -13 -133 -77 -168 -92 -5 -2 -7 15 -5 38 3 41 4 42 68 70
61 26 93 31 60 9z m1613 -4 c-3 -9 -8 -14 -10 -11 -3 3 -2 9 2 15 9 16 15 13
8 -4z m-182 -28 c-8 -8 -11 -7 -11 4 0 20 13 34 18 19 3 -7 -1 -17 -7 -23z
m-1581 13 c0 -5 -2 -10 -4 -10 -3 0 -8 5 -11 10 -3 6 -1 10 4 10 6 0 11 -4 11
-10z m1990 -60 c0 -33 -3 -41 -10 -30 -5 8 -10 35 -10 60 0 33 3 41 10 30 5
-8 10 -35 10 -60z m77 48 c-3 -8 -6 -5 -6 6 -1 11 2 17 5 13 3 -3 4 -12 1 -19z
m-231 -44 c-8 -15 -18 -44 -21 -65 -4 -24 -11 -36 -19 -33 -11 4 -28 -24 -64
-106 -18 -41 -13 1 7 57 10 29 21 50 24 47 3 -4 9 7 13 22 19 86 26 104 39
104 8 0 15 8 15 18 1 15 1 16 10 1 7 -12 5 -26 -4 -45z m-1572 40 c35 -13 19
-23 -174 -98 -57 -23 -84 -27 -68 -10 8 7 211 113 220 113 3 1 13 -2 22 -5z
m1085 -63 c13 -8 12 -11 -1 -25 -21 -20 -38 -21 -38 -1 0 8 -6 15 -14 15 -16
0 -46 -26 -46 -41 0 -15 -53 -66 -77 -73 -12 -4 -20 -13 -17 -19 2 -7 -4 -30
-15 -52 -10 -22 -17 -44 -14 -48 3 -5 -5 -20 -18 -33 -17 -18 -30 -23 -46 -19
-13 3 -23 1 -23 -5 0 -19 -20 -10 -60 26 -55 50 -52 86 4 64 14 -5 26 -7 26
-5 0 8 -98 55 -114 55 -22 0 -28 17 -30 81 -1 50 1 58 15 54 23 -8 219 41 230
57 3 5 29 11 58 15 28 3 54 10 57 14 4 7 37 -9 123 -60z m601 11 c0 -21 -6
-58 -14 -83 -8 -24 -22 -71 -32 -104 -10 -33 -24 -71 -31 -85 l-13 -25 0 33
c0 22 4 31 11 26 9 -5 10 1 5 21 -5 18 -2 31 7 39 18 14 39 87 42 141 3 67 5
75 15 75 6 0 10 -17 10 -38z m-1610 13 c17 -9 30 -18 30 -20 0 -11 -321 -195
-341 -195 -2 0 -6 27 -7 59 l-3 59 83 27 c72 23 116 42 178 76 22 11 28 11 60
-6z m1567 -7 c-3 -8 -6 -5 -6 6 -1 11 2 17 5 13 3 -3 4 -12 1 -19z m-877 3
c-19 -12 -90 -25 -90 -17 0 7 58 24 85 25 16 0 17 -1 5 -8z m850 -11 c0 -5 -5
-10 -11 -10 -5 0 -7 5 -4 10 3 6 8 10 11 10 2 0 4 -4 4 -10z m-1392 -97 c-34
-25 -48 -29 -48 -14 0 6 -19 4 -42 -4 -66 -21 -311 -86 -314 -82 -1 1 40 25
93 52 52 28 123 68 157 90 l61 40 62 -29 62 -29 -31 -24z m1241 65 c-6 -11 -5
-18 4 -21 9 -3 9 -11 0 -39 -7 -19 -13 -43 -13 -53 0 -18 -1 -18 -14 1 -12 15
-17 17 -27 6 -15 -14 -39 -99 -31 -107 6 -6 31 48 38 79 6 34 14 30 14 -7 0
-37 -11 -65 -40 -100 -14 -18 -15 -18 -21 0 -6 15 -8 14 -14 -9 -4 -16 -11
-28 -16 -28 -4 0 0 19 11 43 10 23 21 58 24 77 7 34 6 34 -10 15 -15 -18 -16
-18 -10 -2 3 10 6 26 6 35 0 15 2 15 10 2 9 -13 11 -13 20 0 5 8 15 40 21 71
10 50 14 57 34 55 18 -1 21 -4 14 -18z m341 -4 c0 -14 -4 -23 -9 -20 -5 3 -7
15 -4 26 7 28 13 25 13 -6z m-207 -12 c-3 -12 -10 -22 -15 -22 -5 0 -7 4 -4 9
4 5 0 12 -6 14 -8 3 -6 6 5 6 9 1 17 6 17 13 0 6 2 9 5 7 2 -3 2 -15 -2 -27z
m-233 -35 c0 -7 -7 -22 -15 -33 -13 -17 -14 -16 -4 14 11 33 19 41 19 19z
m-70 -60 c-11 -30 -27 -61 -35 -67 -21 -17 -19 -11 15 66 36 79 50 80 20 1z
m-219 39 c5 3 9 -2 9 -10 0 -9 -6 -13 -13 -10 -15 5 -54 -33 -44 -43 8 -7 -11
-33 -23 -33 -5 0 2 19 13 43 34 64 40 73 45 59 2 -7 8 -10 13 -6z m725 -23
c-10 -10 -19 5 -10 18 6 11 8 11 12 0 2 -7 1 -15 -2 -18z m-566 3 c0 -3 -4 -8
-10 -11 -5 -3 -10 -1 -10 4 0 6 5 11 10 11 6 0 10 -2 10 -4z m-244 -43 c-8
-15 -15 -22 -16 -15 0 14 22 53 28 47 2 -2 -3 -16 -12 -32z m564 -40 c-12 -37
-24 -74 -26 -82 -2 -8 -7 -12 -9 -9 -3 3 6 42 21 87 14 45 29 80 31 77 3 -3
-5 -35 -17 -73z m-607 41 c-10 -15 -19 -22 -21 -15 -2 7 4 19 14 26 26 20 27
19 7 -11z m157 16 c0 -5 -5 -10 -11 -10 -5 0 -7 5 -4 10 3 6 8 10 11 10 2 0 4
-4 4 -10z m-540 -17 c0 -26 132 -214 158 -224 12 -5 22 -13 22 -19 0 -15 -43
-12 -66 5 -10 8 -32 15 -48 15 l-29 0 6 55 c4 42 2 55 -8 55 -7 0 -16 -6 -18
-12 -10 -25 -27 16 -21 50 7 38 -6 42 -30 10 -11 -15 -9 -8 4 20 12 23 18 47
15 52 -3 6 -1 10 4 10 6 0 11 -8 11 -17z m756 -39 c-8 -21 -15 -31 -15 -22 -1
18 20 70 26 65 2 -2 -3 -21 -11 -43z m482 -46 l-13 -23 -3 27 c-2 15 3 37 10
50 l13 23 3 -27 c2 -15 -3 -37 -10 -50z m-1143 52 c3 -5 2 -10 -4 -10 -5 0
-13 5 -16 10 -3 6 -2 10 4 10 5 0 13 -4 16 -10z m493 -37 c-27 -47 -27 -47
-33 -42 -5 5 42 79 50 79 2 0 -5 -17 -17 -37z m202 27 c0 -5 -5 -10 -11 -10
-5 0 -7 5 -4 10 3 6 8 10 11 10 2 0 4 -4 4 -10z m-379 -62 c-11 -18 -21 -29
-21 -25 0 13 33 67 38 62 3 -2 -5 -19 -17 -37z m199 3 c-6 -12 -15 -21 -21
-21 -5 0 -2 15 7 33 10 17 19 27 21 20 2 -7 -1 -21 -7 -32z m58 -6 c-6 -14
-15 -25 -20 -25 -9 0 -4 14 15 38 15 19 18 14 5 -13z m96 -9 c-3 -14 -10 -26
-15 -26 -4 0 -3 14 3 31 12 36 22 33 12 -5z m-254 4 c0 -5 -5 -10 -11 -10 -5
0 -7 5 -4 10 3 6 8 10 11 10 2 0 4 -4 4 -10z m-535 -20 c10 -11 24 -20 32 -20
16 0 17 -14 0 -28 -15 -12 -38 2 -55 35 -21 39 -7 47 23 13z m896 -31 c-11
-24 -20 -41 -20 -37 -1 12 31 89 35 85 3 -2 -4 -24 -15 -48z m-711 10 c19 -17
26 -26 15 -20 -30 15 -71 51 -60 51 6 -1 26 -14 45 -31z m179 -23 c-9 -9 -49
6 -49 18 0 23 12 25 33 6 11 -11 18 -22 16 -24z m145 20 c-3 -9 -10 -16 -15
-16 -6 0 -5 9 1 21 13 24 24 20 14 -5z m195 -14 c-6 -18 -15 -32 -21 -32 -5 0
-7 4 -4 9 3 4 10 21 16 36 14 38 23 26 9 -13z m127 3 c-11 -43 -26 -78 -32
-72 -6 6 25 97 33 97 3 0 2 -11 -1 -25z m141 3 c-3 -8 -6 -5 -6 6 -1 11 2 17
5 13 3 -3 4 -12 1 -19z m-384 -31 c-10 -17 -25 -33 -33 -35 -11 -4 -11 0 3 19
10 13 20 32 24 41 3 10 9 15 15 12 5 -3 1 -19 -9 -37z m459 1 c-6 -6 -7 0 -4
19 5 21 7 23 10 9 2 -10 0 -22 -6 -28z m-642 28 c0 -2 -7 -9 -15 -16 -13 -11
-14 -10 -9 4 5 14 24 23 24 12z m258 -21 c-6 -14 -13 -23 -15 -21 -5 5 15 46
22 46 3 0 -1 -11 -7 -25z m-488 5 c0 -5 -2 -10 -4 -10 -3 0 -8 5 -11 10 -3 6
-1 10 4 10 6 0 11 -4 11 -10z m980 0 c0 -5 -4 -10 -10 -10 -5 0 -10 5 -10 10
0 6 5 10 10 10 6 0 10 -4 10 -10z m-250 -51 c-17 -41 -22 -31 -8 17 6 21 13
33 15 26 3 -7 -1 -26 -7 -43z m-695 31 c3 -6 -1 -7 -9 -4 -18 7 -21 14 -7 14
6 0 13 -4 16 -10z m275 3 c0 -14 -19 -38 -25 -32 -8 8 5 39 16 39 5 0 9 -3 9
-7z m-215 -13 c4 -6 -5 -10 -19 -10 -14 0 -26 5 -26 10 0 6 9 10 19 10 11 0
23 -4 26 -10z m65 0 c0 -5 -4 -10 -10 -10 -5 0 -10 5 -10 10 0 6 5 10 10 10 6
0 10 -4 10 -10z m413 -5 c-3 -9 -8 -14 -10 -11 -3 3 -2 9 2 15 9 16 15 13 8
-4z m567 -10 c0 -8 -4 -15 -10 -15 -5 0 -10 7 -10 15 0 8 5 15 10 15 6 0 10
-7 10 -15z m170 7 c0 -10 -71 -34 -79 -27 -4 5 56 34 72 35 4 0 7 -4 7 -8z
m-537 -32 c-3 -11 -7 -20 -9 -20 -2 0 -4 9 -4 20 0 11 4 20 9 20 5 0 7 -9 4
-20z m-693 -11 c0 -5 -7 -9 -15 -9 -15 0 -20 12 -9 23 8 8 24 -1 24 -14z m370
17 c0 -3 -4 -8 -10 -11 -5 -3 -10 -1 -10 4 0 6 5 11 10 11 6 0 10 -2 10 -4z
m385 -69 c-9 -21 -19 -36 -24 -33 -4 3 1 26 13 51 24 53 34 37 11 -18z m117
31 c-8 -8 -9 -4 -5 13 4 13 8 18 11 10 2 -7 -1 -18 -6 -23z m179 12 c25 -14
25 -30 -1 -23 -14 4 -20 0 -20 -10 0 -16 39 -28 75 -24 15 1 20 -4 19 -20 0
-13 3 -23 8 -23 14 0 9 -26 -9 -42 -19 -17 -103 -31 -103 -18 0 4 18 15 39 23
38 16 63 37 43 37 -6 0 -34 -11 -63 -25 -49 -22 -55 -23 -69 -9 -11 13 -12 18
-2 21 6 3 12 15 12 28 0 12 7 28 15 35 8 6 14 15 13 18 -2 9 13 42 19 42 2 0
13 -5 24 -10z m178 -19 c-46 -31 -53 -33 -44 -10 6 17 42 36 69 38 12 1 3 -10
-25 -28z m-1212 -8 c-15 -15 -37 -11 -37 7 0 10 31 19 43 12 5 -2 2 -11 -6
-19z m-63 1 c4 -10 1 -14 -6 -12 -15 5 -23 28 -10 28 5 0 13 -7 16 -16z m406
7 c0 -6 -4 -13 -10 -16 -5 -3 -10 1 -10 9 0 9 5 16 10 16 6 0 10 -4 10 -9z
m311 -18 c-12 -20 -14 -14 -5 12 4 9 9 14 11 11 3 -2 0 -13 -6 -23z m-78 -3
c-3 -11 -7 -20 -9 -20 -2 0 -4 9 -4 20 0 11 4 20 9 20 5 0 7 -9 4 -20z m29
-27 c-6 -60 -21 -92 -22 -47 0 27 17 94 25 94 1 0 0 -21 -3 -47z m231 -24 c-4
-4 -25 -14 -45 -23 -31 -12 -38 -12 -38 -2 0 8 9 16 21 19 11 3 25 19 31 35
l12 30 13 -26 c8 -14 10 -29 6 -33z m407 43 c0 -14 -89 -62 -96 -51 -8 13 -5
15 42 39 43 21 54 24 54 12z m-936 -56 c-6 -16 -24 -23 -24 -8 0 10 22 33 27
28 2 -2 1 -11 -3 -20z m-106 2 c-3 -7 -13 -15 -24 -17 -10 -2 -23 -9 -27 -17
-10 -18 -53 -18 -60 0 -3 8 -16 17 -29 19 -13 3 2 5 32 4 30 -1 64 4 75 10 26
16 38 16 33 1z m507 -47 c-10 -10 -34 10 -29 24 6 14 8 13 19 -2 8 -10 12 -20
10 -22z m-521 -6 c-7 -17 -20 -20 -28 -6 -4 5 0 12 6 14 23 9 28 7 22 -8z
m435 -11 c-14 -18 -24 -11 -15 11 3 9 11 13 16 10 8 -5 7 -11 -1 -21z m301 0
c0 -8 -9 -14 -20 -14 -22 0 -26 10 -8 28 13 13 28 7 28 -14z m-385 -4 c3 -5 1
-10 -4 -10 -6 0 -11 5 -11 10 0 6 2 10 4 10 3 0 8 -4 11 -10z m135 -3 c0 -8
-7 -14 -15 -14 -16 0 -19 9 -8 20 11 11 23 8 23 -6z m-320 -17 c0 -5 -2 -10
-4 -10 -3 0 -8 5 -11 10 -3 6 -1 10 4 10 6 0 11 -4 11 -10z m23 -27 c26 -3 47
-9 47 -13 0 -17 -17 -19 -56 -5 -23 8 -40 9 -42 4 -6 -16 -81 -50 -153 -69
-75 -19 -79 -13 -17 28 92 62 111 71 142 65 17 -3 52 -8 79 -10z m557 7 c0 -5
-7 -10 -16 -10 -8 0 -12 5 -9 10 3 6 10 10 16 10 5 0 9 -4 9 -10z m-272 -19
c11 -6 10 -9 -5 -13 -10 -3 -24 -3 -32 0 -11 4 -11 6 0 13 17 11 21 11 37 0z
m-288 -26 c0 -8 -62 -37 -67 -31 -4 3 9 12 28 20 39 18 39 17 39 11z m20 -35
c-46 -25 -63 -25 -25 0 17 11 37 20 45 20 8 -1 -1 -9 -20 -20z m-105 -11 c-8
-12 -35 -12 -35 0 0 11 22 20 33 14 4 -2 5 -9 2 -14z"/>
<path d="M850 2260 c-9 -6 -10 -10 -3 -10 6 0 15 5 18 10 8 12 4 12 -15 0z"/>
<path d="M476 2295 c-3 -8 -14 -15 -25 -15 -11 0 -23 -4 -26 -10 -9 -14 9 -12
47 4 18 8 44 19 58 24 24 10 23 11 -11 11 -24 1 -39 -4 -43 -14z"/>
<path d="M700 2309 c0 -5 5 -7 10 -4 6 3 10 8 10 11 0 2 -4 4 -10 4 -5 0 -10
-5 -10 -11z"/>
<path d="M910 2240 c-19 -11 -31 -19 -26 -20 18 0 76 24 76 32 0 12 -11 9 -50
-12z"/>
<path d="M845 2210 c-3 -5 -1 -10 4 -10 6 0 11 5 11 10 0 6 -2 10 -4 10 -3 0
-8 -4 -11 -10z"/>
<path d="M890 2160 c-13 -8 -13 -10 2 -10 9 0 20 5 23 10 8 13 -5 13 -25 0z"/>
<path d="M850 2139 c0 -5 5 -7 10 -4 6 3 10 8 10 11 0 2 -4 4 -10 4 -5 0 -10
-5 -10 -11z"/>
<path d="M795 2120 c-16 -7 -17 -9 -3 -9 9 -1 20 4 23 9 7 11 7 11 -20 0z"/>
<path d="M1043 2085 c-7 -8 -9 -16 -5 -18 11 -7 52 11 52 23 0 15 -33 12 -47
-5z"/>
<path d="M953 2020 c-13 -5 -23 -12 -23 -15 0 -11 47 -4 66 10 19 14 19 14 -1
14 -11 0 -30 -4 -42 -9z"/>
<path d="M218 2078 c-21 -6 -38 -14 -38 -18 0 -4 18 -3 40 2 22 6 40 14 40 19
0 5 -1 9 -2 8 -2 -1 -20 -6 -40 -11z"/>
<path d="M605 2045 c-21 -9 -34 -10 -42 -3 -10 8 -13 6 -13 -5 0 -17 -43 -32
-48 -17 -2 6 -8 10 -13 10 -6 0 -7 -5 -4 -10 4 -6 2 -17 -5 -25 -17 -21 6 -28
33 -10 13 8 26 12 30 9 3 -4 18 3 32 14 14 11 39 24 56 27 16 4 27 11 23 16
-7 11 -12 11 -49 -6z"/>
<path d="M675 2004 c-16 -8 -57 -26 -90 -40 -33 -15 -55 -29 -49 -31 14 -5
184 69 184 80 0 10 -10 8 -45 -9z"/>
<path d="M298 1923 c7 -3 16 -2 19 1 4 3 -2 6 -13 5 -11 0 -14 -3 -6 -6z"/>
<path d="M213 1908 c-24 -5 -43 -13 -43 -19 0 -11 6 -11 53 2 20 5 37 14 37
19 0 6 -1 10 -2 9 -2 -1 -22 -5 -45 -11z"/>
<path d="M1260 1819 c0 -5 5 -7 10 -4 6 3 10 8 10 11 0 2 -4 4 -10 4 -5 0 -10
-5 -10 -11z"/>
<path d="M986 1805 c4 -8 12 -15 20 -15 8 0 14 7 14 15 0 8 -9 15 -20 15 -13
0 -18 -5 -14 -15z"/>
<path d="M630 1779 c0 -5 5 -7 10 -4 6 3 10 8 10 11 0 2 -4 4 -10 4 -5 0 -10
-5 -10 -11z"/>
<path d="M860 1780 c0 -5 9 -10 20 -10 11 0 20 5 20 10 0 6 -9 10 -20 10 -11
0 -20 -4 -20 -10z"/>
<path d="M1408 1783 c7 -3 16 -2 19 1 4 3 -2 6 -13 5 -11 0 -14 -3 -6 -6z"/>
<path d="M1263 1773 c-18 -2 -33 -8 -33 -13 0 -9 52 -4 105 10 l30 8 -35 -1
c-19 0 -50 -2 -67 -4z"/>
<path d="M560 1760 c0 -5 6 -10 14 -10 8 0 18 5 21 10 3 6 -3 10 -14 10 -12 0
-21 -4 -21 -10z"/>
<path d="M755 1720 c-3 -5 -2 -10 4 -10 5 0 13 5 16 10 3 6 2 10 -4 10 -5 0
-13 -4 -16 -10z"/>
<path d="M1355 1720 c-3 -5 -2 -10 4 -10 5 0 13 5 16 10 3 6 2 10 -4 10 -5 0
-13 -4 -16 -10z"/>
<path d="M185 1710 c-3 -5 1 -10 9 -10 8 0 18 5 21 10 3 6 -1 10 -9 10 -8 0
-18 -4 -21 -10z"/>
<path d="M350 1654 c-19 -9 -57 -24 -85 -34 -27 -10 -42 -19 -33 -19 22 -1
146 48 154 60 7 11 6 11 -36 -7z"/>
<path d="M1305 1610 c-3 -5 -2 -10 4 -10 5 0 13 5 16 10 3 6 2 10 -4 10 -5 0
-13 -4 -16 -10z"/>
<path d="M130 1566 c0 -9 5 -16 10 -16 6 0 10 4 10 9 0 6 -4 13 -10 16 -5 3
-10 -1 -10 -9z"/>
<path d="M425 1527 c-11 -8 -33 -17 -48 -21 -25 -6 -26 -8 -12 -22 8 -8 15
-19 15 -23 0 -7 -125 -50 -193 -67 -27 -6 -48 -24 -28 -24 6 0 53 14 104 30
52 17 103 30 115 30 11 0 28 3 37 7 16 5 15 8 -5 23 -22 16 -21 40 1 40 6 0 7
-4 4 -10 -8 -13 2 -13 28 2 12 7 29 12 37 13 8 0 15 7 15 15 0 20 -45 24 -70
7z"/>
<path d="M335 1411 c-3 -5 -1 -12 4 -15 5 -3 11 1 15 9 6 16 -9 21 -19 6z"/>
<path d="M1000 1180 c0 -12 8 -12 35 0 18 8 17 9 -7 9 -16 1 -28 -3 -28 -9z"/>
<path d="M1904 1609 c-12 -20 -32 -147 -24 -158 3 -6 14 28 23 76 16 85 17
107 1 82z"/>
<path d="M1694 1561 c-27 -13 -74 -69 -74 -86 0 -9 51 -5 71 5 10 6 19 21 19
34 0 13 7 29 15 36 16 13 20 31 8 29 -5 -1 -22 -9 -39 -18z"/>
<path d="M1850 1565 c-10 -12 -10 -15 4 -15 9 0 16 7 16 15 0 8 -2 15 -4 15
-2 0 -9 -7 -16 -15z"/>
<path d="M1708 1427 c-5 -10 -8 -31 -8 -45 1 -24 2 -25 11 -9 6 10 9 30 7 45
-2 23 -4 24 -10 9z"/>
<path d="M1771 1374 c0 -11 3 -14 6 -6 3 7 2 16 -1 19 -3 4 -6 -2 -5 -13z"/>
<path d="M689 1173 c-40 -4 -85 -39 -52 -40 38 -1 103 20 103 33 0 8 -3 13 -7
12 -5 -1 -24 -3 -44 -5z"/>
<path d="M870 1190 c0 -5 0 -11 1 -12 1 -9 -35 -84 -44 -89 -11 -8 -2 -39 11
-39 16 0 54 102 43 113 -7 7 -4 15 7 23 16 13 16 13 0 14 -10 0 -18 -4 -18
-10z"/>
<path d="M350 1080 c0 -5 5 -10 11 -10 5 0 7 5 4 10 -3 6 -8 10 -11 10 -2 0
-4 -4 -4 -10z"/>
<path d="M1780 998 c0 -19 2 -20 10 -8 13 19 13 30 0 30 -5 0 -10 -10 -10 -22z"/>
<path d="M2155 550 c-3 -5 1 -10 9 -10 8 0 18 5 21 10 3 6 -1 10 -9 10 -8 0
-18 -4 -21 -10z"/>
<path d="M2830 2474 c0 -8 5 -12 10 -9 6 4 8 11 5 16 -9 14 -15 11 -15 -7z"/>
<path d="M2790 2450 c0 -5 7 -10 15 -10 8 0 15 5 15 10 0 6 -7 10 -15 10 -8 0
-15 -4 -15 -10z"/>
<path d="M2780 2410 c-14 -11 -30 -20 -37 -20 -14 0 -38 -40 -25 -40 5 0 15 7
22 15 7 8 19 15 27 15 13 0 13 -3 2 -16 -10 -13 -10 -17 0 -24 8 -4 9 -10 3
-14 -5 -3 -13 -22 -17 -42 -3 -21 -16 -45 -28 -55 -12 -9 -19 -20 -16 -23 3
-3 15 3 27 14 36 34 45 26 40 -40 -3 -39 -10 -64 -20 -73 -9 -6 -18 -21 -20
-32 -2 -11 -8 -19 -13 -19 -16 3 -85 -35 -85 -46 0 -6 5 -10 10 -10 6 0 10 4
10 9 0 10 61 27 70 20 3 -2 4 -8 2 -13 -4 -13 -2 -475 3 -511 8 -58 9 -250 1
-285 -6 -33 -6 -34 9 -16 12 17 15 17 15 4 0 -9 -3 -24 -6 -33 -6 -13 -9 -14
-16 -3 -5 8 -8 -58 -7 -167 1 -99 -2 -239 -6 -312 -8 -130 -8 -132 -34 -138
-15 -4 -27 -2 -29 4 -6 17 -79 1 -130 -27 -39 -22 -42 -27 -26 -33 18 -7 18
-7 -1 -14 -11 -4 -69 -28 -130 -52 -60 -24 -123 -46 -140 -48 -87 -12 -92 -21
-15 -29 43 -5 68 -3 88 7 15 7 47 24 72 36 25 12 65 33 90 46 64 33 168 71
214 78 l38 6 -6 -107 c-3 -59 -8 -125 -12 -147 l-6 -40 -106 3 c-59 2 -142 -1
-185 -6 -49 -5 -80 -5 -84 1 -6 9 -157 5 -338 -9 -67 -5 -69 -5 -45 11 15 10
18 14 7 11 -10 -3 -25 -6 -34 -6 -10 0 -13 -6 -9 -15 5 -13 -4 -16 -52 -15
-31 1 -118 -3 -192 -10 -118 -10 -386 -30 -415 -31 -5 0 -38 3 -72 7 -43 5
-63 3 -63 -4 0 -6 25 -13 58 -15 31 -2 3 -3 -63 -3 -66 0 -94 1 -62 3 31 2 57
8 57 14 0 10 -111 3 -165 -10 -16 -5 -57 -5 -90 -2 -33 4 -91 6 -130 5 -134
-2 -495 -28 -495 -35 0 -4 -11 -10 -25 -13 -65 -17 7 -42 144 -51 68 -5 91 -4
86 5 -4 6 -15 8 -26 5 -30 -10 -22 3 12 21 45 23 109 23 153 -1 27 -15 40 -17
54 -9 10 7 29 8 47 3 20 -6 34 -4 45 6 14 13 31 15 140 16 215 1 338 2 540 3
182 1 234 4 232 14 -3 17 26 15 44 -3 18 -18 129 -21 140 -4 4 8 29 10 71 6
52 -4 66 -2 70 11 6 13 29 14 187 8 100 -4 192 -8 206 -9 19 -2 24 2 22 16 -3
16 10 17 167 16 141 0 172 -3 179 -16 7 -12 12 -10 26 12 10 15 20 43 23 63 2
20 7 44 10 52 3 8 5 38 6 65 0 37 -3 49 -13 47 -10 -2 -11 11 -4 65 4 37 9
142 9 233 1 167 10 244 26 234 11 -6 10 -17 14 179 2 86 6 160 8 165 3 4 8 77
11 162 12 258 16 315 26 318 11 4 13 582 2 582 -5 0 -13 -30 -19 -67 l-10 -68
-1 52 c-1 28 3 74 10 102 9 40 9 53 -2 66 -16 19 -20 19 -50 -5z m7 -362 c-3
-8 -6 -5 -6 6 -1 11 2 17 5 13 3 -3 4 -12 1 -19z m13 -407 c0 -30 -4 -59 -10
-65 -7 -7 -9 57 -8 205 l1 214 8 -150 c5 -82 9 -174 9 -204z m40 277 c-1 -48
-3 -59 -11 -45 -9 15 -3 107 7 107 2 0 4 -28 4 -62z m-71 -505 c1 -7 -3 -13
-9 -13 -5 0 -10 15 -9 33 0 27 2 29 9 12 5 -11 9 -26 9 -32z m38 -5 c-2 -13
-4 -5 -4 17 -1 22 1 32 4 23 2 -10 2 -28 0 -40z m-20 -110 c-3 -8 -6 -5 -6 6
-1 11 2 17 5 13 3 -3 4 -12 1 -19z m-10 -110 c-3 -7 -5 -2 -5 12 0 14 2 19 5
13 2 -7 2 -19 0 -25z m20 -40 c-3 -7 -5 -2 -5 12 0 14 2 19 5 13 2 -7 2 -19 0
-25z m-117 -953 c0 -9 -6 -12 -15 -9 -8 4 -15 10 -15 15 0 5 7 9 15 9 8 0 15
-7 15 -15z m-665 -17 c-38 -5 -125 -10 -192 -10 -68 0 -123 -4 -123 -7 0 -4
-26 -6 -57 -6 -32 0 -58 5 -58 10 0 12 121 20 340 21 140 1 151 0 90 -8z m240
-8 c17 -7 14 -9 -13 -9 -20 -1 -31 3 -27 9 7 12 13 12 40 0z"/>
<path d="M1680 2410 c0 -5 5 -10 10 -10 6 0 10 5 10 10 0 6 -4 10 -10 10 -5 0
-10 -4 -10 -10z"/>
<path d="M1750 2391 c0 -6 -9 -11 -20 -11 -11 0 -20 -6 -20 -14 0 -10 12 -14
39 -13 33 2 38 4 30 19 -11 21 -29 33 -29 19z"/>
<path d="M1410 2380 c0 -5 7 -10 15 -10 8 0 15 5 15 10 0 6 -7 10 -15 10 -8 0
-15 -4 -15 -10z"/>
<path d="M1535 2360 c-3 -5 3 -10 14 -10 12 0 21 5 21 10 0 6 -6 10 -14 10 -8
0 -18 -4 -21 -10z"/>
<path d="M1590 2363 c0 -5 16 -8 35 -7 19 1 35 0 35 -2 0 -1 -20 -12 -44 -22
-45 -20 -68 -42 -44 -42 8 0 20 6 26 12 7 7 32 20 55 29 23 9 42 21 42 25 0 5
-24 10 -52 12 -29 2 -53 -1 -53 -5z"/>
<path d="M1938 2348 c-45 -10 -66 -28 -32 -28 8 0 12 -4 9 -10 -7 -12 29 -12
65 1 l25 8 -25 -1 c-41 -1 -50 1 -50 12 0 6 15 10 33 11 17 0 41 4 52 9 18 8
18 9 -5 8 -14 0 -46 -5 -72 -10z"/>
<path d="M2646 2335 c-45 -22 -78 -45 -63 -45 14 0 117 55 117 62 0 10 5 11
-54 -17z"/>
<path d="M2090 2334 l-25 -14 27 0 c32 0 58 9 58 21 0 13 -31 9 -60 -7z"/>
<path d="M1770 2310 c0 -5 9 -10 20 -10 11 0 20 5 20 10 0 6 -9 10 -20 10 -11
0 -20 -4 -20 -10z"/>
<path d="M1223 2300 c-13 -5 -23 -12 -23 -15 0 -9 40 1 52 13 14 14 2 15 -29
2z"/>
<path d="M2505 2301 c-11 -5 -23 -7 -27 -4 -5 2 -8 -1 -8 -6 0 -7 14 -9 35 -6
50 6 35 -10 -28 -30 -60 -19 -84 -31 -76 -39 11 -11 164 60 167 77 4 19 -26
22 -63 8z"/>
<path d="M1520 2290 c0 -5 5 -10 11 -10 5 0 7 5 4 10 -3 6 -8 10 -11 10 -2 0
-4 -4 -4 -10z"/>
<path d="M1686 2285 c-3 -8 -13 -15 -23 -15 -11 0 -14 -3 -7 -10 7 -7 21 -5
42 5 42 21 49 35 19 35 -14 0 -27 -7 -31 -15z"/>
<path d="M2130 2291 c0 -4 11 -6 25 -3 14 2 25 6 25 8 0 2 -11 4 -25 4 -14 0
-25 -4 -25 -9z"/>
<path d="M2642 2279 c-36 -24 -37 -38 -1 -18 28 14 54 39 42 39 -4 0 -23 -10
-41 -21z"/>
<path d="M1155 2270 c-3 -5 1 -10 9 -10 8 0 18 5 21 10 3 6 -1 10 -9 10 -8 0
-18 -4 -21 -10z"/>
<path d="M1934 2263 c3 -4 -4 -13 -16 -21 -23 -13 -23 -13 4 -8 29 7 81 -12
72 -25 -3 -5 2 -9 11 -9 9 0 37 -11 63 -25 26 -14 54 -25 62 -25 9 1 6 6 -9
14 -23 13 -23 14 27 27 29 7 52 17 52 21 0 9 -39 2 -85 -16 -24 -10 -35 -9
-55 1 l-25 13 30 1 c32 1 119 26 96 28 -8 1 -43 -4 -77 -10 -60 -10 -64 -10
-101 15 -34 24 -66 36 -49 19z"/>
<path d="M2300 2260 c0 -5 9 -10 19 -10 11 0 23 5 26 10 4 6 -5 10 -19 10 -14
0 -26 -4 -26 -10z"/>
<path d="M1110 2249 c0 -5 5 -7 10 -4 6 3 10 8 10 11 0 2 -4 4 -10 4 -5 0 -10
-5 -10 -11z"/>
<path d="M1740 2240 c-13 -8 -12 -10 3 -10 9 0 17 5 17 10 0 12 -1 12 -20 0z"/>
<path d="M1805 2240 c-3 -5 -2 -10 4 -10 5 0 13 5 16 10 3 6 2 10 -4 10 -5 0
-13 -4 -16 -10z"/>
<path d="M2190 2240 c0 -5 6 -10 14 -10 8 0 18 5 21 10 3 6 -3 10 -14 10 -12
0 -21 -4 -21 -10z"/>
<path d="M2245 2240 c3 -5 -1 -11 -7 -13 -7 -3 -3 -6 9 -6 29 -1 38 15 13 22
-11 3 -18 1 -15 -3z"/>
<path d="M2568 2234 c-30 -16 -35 -24 -15 -24 16 0 54 27 47 33 -3 3 -17 -1
-32 -9z"/>
<path d="M1308 2233 c7 -3 16 -2 19 1 4 3 -2 6 -13 5 -11 0 -14 -3 -6 -6z"/>
<path d="M2369 2213 c-1 -5 -1 -11 0 -15 0 -5 -8 -8 -19 -8 -11 0 -20 -5 -20
-11 0 -15 63 -6 68 10 3 8 0 11 -7 7 -7 -5 -9 -1 -5 8 3 9 1 16 -5 16 -6 0
-12 -3 -12 -7z"/>
<path d="M1855 2189 l-20 -21 28 6 c85 18 84 18 62 26 -31 13 -48 10 -70 -11z"/>
<path d="M2466 2179 c-32 -17 -55 -33 -52 -37 8 -7 116 49 116 61 0 9 4 11
-64 -24z"/>
<path d="M1540 2191 c0 -4 11 -6 25 -3 14 2 25 6 25 8 0 2 -11 4 -25 4 -14 0
-25 -4 -25 -9z"/>
<path d="M2732 2165 c-17 -14 -36 -24 -42 -20 -5 3 -10 -1 -10 -9 0 -9 -25
-32 -55 -52 -30 -20 -55 -41 -55 -46 0 -11 28 4 56 30 24 23 64 45 70 39 2 -2
20 11 40 30 44 41 41 66 -4 28z"/>
<path d="M1788 2168 c9 -9 15 -9 24 0 9 9 7 12 -12 12 -19 0 -21 -3 -12 -12z"/>
<path d="M2175 2170 c-13 -6 -15 -9 -5 -9 8 0 22 4 30 9 18 12 2 12 -25 0z"/>
<path d="M2635 2169 c-12 -19 3 -22 27 -5 l22 16 -21 0 c-12 0 -25 -5 -28 -11z"/>
<path d="M2243 2163 c-13 -2 -23 -8 -23 -13 0 -10 56 -2 80 11 11 6 8 8 -10 7
-14 0 -35 -3 -47 -5z"/>
<path d="M1975 2150 c-3 -5 1 -10 10 -10 9 0 13 5 10 10 -3 6 -8 10 -10 10 -2
0 -7 -4 -10 -10z"/>
<path d="M2575 2125 c-16 -13 -26 -24 -22 -25 14 0 67 33 67 42 0 14 -14 9
-45 -17z"/>
<path d="M1400 2130 c0 -5 5 -10 10 -10 6 0 10 5 10 10 0 6 -4 10 -10 10 -5 0
-10 -4 -10 -10z"/>
<path d="M2385 2130 c3 -5 8 -10 11 -10 2 0 4 5 4 10 0 6 -5 10 -11 10 -5 0
-7 -4 -4 -10z"/>
<path d="M1290 2115 c-7 -8 -8 -15 -2 -15 5 0 15 7 22 15 7 8 8 15 2 15 -5 0
-15 -7 -22 -15z"/>
<path d="M1996 2110 c-26 -10 -51 -22 -55 -26 -6 -7 34 1 65 13 12 4 15 3 10
-5 -9 -14 3 -15 24 -2 13 8 13 10 1 10 -11 0 -9 4 5 15 26 20 9 18 -50 -5z"/>
<path d="M2350 2120 c0 -6 7 -10 15 -10 8 0 15 2 15 4 0 2 -7 6 -15 10 -8 3
-15 1 -15 -4z"/>
<path d="M1832 2113 c-34 -7 -23 -34 26 -64 23 -14 40 -28 38 -30 -3 -3 3 -5
12 -5 9 -1 25 -4 35 -9 9 -4 17 -3 17 3 0 5 -30 25 -66 43 -73 37 -86 49 -55
49 12 0 21 5 21 10 0 6 -1 9 -2 9 -2 -1 -13 -4 -26 -6z"/>
<path d="M2525 2090 c-3 -5 -1 -10 4 -10 6 0 11 5 11 10 0 6 -2 10 -4 10 -3 0
-8 -4 -11 -10z"/>
<path d="M2474 2065 c-10 -8 -14 -15 -8 -15 5 0 19 7 30 15 10 8 14 15 8 15
-5 0 -19 -7 -30 -15z"/>
<path d="M1370 2060 c-13 -8 -13 -10 2 -10 9 0 20 5 23 10 8 13 -5 13 -25 0z"/>
<path d="M2540 2030 c-8 -5 -12 -11 -9 -14 2 -3 11 -1 19 4 8 5 12 11 9 14 -2
3 -11 1 -19 -4z"/>
<path d="M1440 1990 c0 -5 5 -10 10 -10 6 0 10 5 10 10 0 6 -4 10 -10 10 -5 0
-10 -4 -10 -10z"/>
<path d="M1735 1990 c-3 -5 -2 -10 4 -10 5 0 13 5 16 10 3 6 2 10 -4 10 -5 0
-13 -4 -16 -10z"/>
<path d="M2485 1990 c-3 -5 -1 -10 4 -10 6 0 11 5 11 10 0 6 -2 10 -4 10 -3 0
-8 -4 -11 -10z"/>
<path d="M2594 1985 c-10 -8 -14 -14 -9 -15 15 0 40 18 34 24 -3 3 -14 -1 -25
-9z"/>
<path d="M2340 1980 c0 -13 11 -13 30 0 12 8 11 10 -7 10 -13 0 -23 -4 -23
-10z"/>
<path d="M2285 1960 c-8 -13 15 -13 35 0 12 8 11 10 -7 10 -12 0 -25 -4 -28
-10z"/>
<path d="M2418 1953 c7 -3 16 -2 19 1 4 3 -2 6 -13 5 -11 0 -14 -3 -6 -6z"/>
<path d="M2540 1949 c0 -5 5 -7 10 -4 6 3 10 8 10 11 0 2 -4 4 -10 4 -5 0 -10
-5 -10 -11z"/>
<path d="M1651 1939 c-13 -5 -22 -12 -19 -15 3 -3 21 2 39 10 37 16 19 21 -20
5z"/>
<path d="M2208 1933 c-21 -8 -38 -19 -38 -24 0 -5 2 -9 4 -9 10 0 96 40 96 45
0 9 -23 5 -62 -12z"/>
<path d="M2355 1930 c4 -6 11 -8 16 -5 14 9 11 15 -7 15 -8 0 -12 -5 -9 -10z"/>
<path d="M2308 1923 c6 -2 18 -2 25 0 6 3 1 5 -13 5 -14 0 -19 -2 -12 -5z"/>
<path d="M1928 1913 c-32 -8 -19 -19 17 -15 19 2 35 8 35 13 0 9 -22 10 -52 2z"/>
<path d="M2078 1882 c-21 -8 -38 -18 -38 -23 0 -9 60 9 74 22 17 16 2 16 -36
1z"/>
<path d="M1830 1879 c0 -5 5 -7 10 -4 6 3 10 8 10 11 0 2 -4 4 -10 4 -5 0 -10
-5 -10 -11z"/>
<path d="M1885 1860 c-3 -5 -1 -10 4 -10 6 0 11 5 11 10 0 6 -2 10 -4 10 -3 0
-8 -4 -11 -10z"/>
<path d="M2639 1721 c6 -10 17 -24 26 -31 10 -8 21 -24 26 -37 5 -13 13 -23
19 -23 18 0 11 19 -20 50 -16 17 -30 35 -30 39 0 5 -7 11 -15 15 -12 4 -13 2
-6 -13z"/>
<path d="M2160 1650 c0 -14 19 -33 49 -49 38 -21 34 -6 -9 28 -22 17 -40 27
-40 21z"/>
<path d="M2207 1503 c-33 -11 -45 -19 -37 -27 7 -7 26 -2 63 16 58 30 46 35
-26 11z"/>
<path d="M2369 1458 c-7 -13 -18 -27 -25 -31 -23 -13 -16 -36 16 -52 34 -18
40 -18 40 -5 0 6 -11 16 -25 22 l-25 11 30 18 c34 21 35 25 15 45 -12 13 -16
12 -26 -8z"/>
<path d="M2586 1315 c-3 -8 -1 -15 3 -15 5 0 11 7 15 15 3 8 1 15 -3 15 -5 0
-11 -7 -15 -15z"/>
<path d="M2530 1265 c0 -8 6 -15 14 -15 22 0 28 17 10 24 -22 9 -24 8 -24 -9z"/>
<path d="M2660 948 c0 -8 7 -15 15 -15 18 0 15 19 -3 25 -7 2 -12 -3 -12 -10z"/>
<path d="M2451 896 c-33 -48 -36 -56 -22 -56 10 0 64 91 57 97 -2 3 -18 -16
-35 -41z"/>
<path d="M603 837 c-17 -12 -39 -34 -49 -50 -11 -15 -29 -30 -41 -33 -13 -4
-23 -11 -23 -16 0 -6 10 -8 23 -5 109 27 121 29 125 18 5 -16 32 -14 32 3 0
20 -34 29 -76 21 -19 -3 -34 -4 -34 -2 0 2 20 20 45 40 50 38 48 60 -2 24z"/>
<path d="M2493 617 c8 -21 -4 -32 -50 -45 -24 -7 -43 -17 -43 -22 0 -13 13
-13 47 2 15 6 46 12 68 13 51 2 115 25 115 42 0 16 -10 16 -45 3 -29 -11 -78
-3 -69 11 3 5 -2 9 -11 9 -10 0 -15 -6 -12 -13z"/>
<path d="M455 550 c-3 -5 -1 -10 4 -10 6 0 11 5 11 10 0 6 -2 10 -4 10 -3 0
-8 -4 -11 -10z"/>
<path d="M280 360 c0 -5 5 -10 10 -10 6 0 10 5 10 10 0 6 -4 10 -10 10 -5 0
-10 -4 -10 -10z"/>
<path d="M2173 337 c-18 -5 -33 -14 -33 -18 0 -12 19 -10 55 5 37 16 20 26
-22 13z"/>
<path d="M639 321 c-13 -11 -22 -21 -19 -24 7 -7 80 24 80 34 0 16 -37 10 -61
-10z"/>
<path d="M1060 299 c-20 -7 -18 -8 13 -4 21 2 49 0 62 -5 19 -7 23 -6 18 5 -6
17 -53 18 -93 4z"/>
<path d="M2088 303 c-10 -2 -18 -9 -18 -14 0 -15 43 -7 48 9 4 12 0 13 -30 5z"/>
<path d="M885 260 c-23 -26 -4 -26 26 0 18 15 20 19 8 20 -9 0 -24 -9 -34 -20z"/>
<path d="M1998 263 c7 -3 16 -2 19 1 4 3 -2 6 -13 5 -11 0 -14 -3 -6 -6z"/>
<path d="M150 70 c0 -5 12 -10 26 -10 14 0 23 4 19 10 -3 6 -15 10 -26 10 -10
0 -19 -4 -19 -10z"/>
<path d="M116 27 c3 -10 9 -15 12 -12 3 3 0 11 -7 18 -10 9 -11 8 -5 -6z"/>
<path d="M2797 3 c18 -2 50 -2 70 0 21 2 7 4 -32 4 -38 0 -55 -2 -38 -4z"/>
</g>
</svg>
