<?xml version="1.0" standalone="no"?>
<!DOCTYPE svg PUBLIC "-//W3C//DTD SVG 20010904//EN"
 "http://www.w3.org/TR/2001/REC-SVG-20010904/DTD/svg10.dtd">
<svg version="1.0" xmlns="http://www.w3.org/2000/svg"
 width="250.000000pt" height="242.000000pt" viewBox="0 0 250.000000 242.000000"
 preserveAspectRatio="xMidYMid meet">
<metadata>
Created by potrace 1.16, written by Peter Selinger 2001-2019
</metadata>
<g transform="translate(0.000000,242.000000) scale(0.100000,-0.100000)"
fill="#000000" stroke="none">
<path d="M2336 2403 c-4 -4 -218 -8 -475 -9 -258 -1 -474 -5 -480 -8 -6 -4
-131 -11 -278 -17 -148 -5 -344 -13 -438 -16 -170 -7 -243 -7 -408 -5 -104 2
-162 -16 -152 -47 3 -12 0 -21 -10 -25 -9 -3 -13 -11 -10 -16 10 -16 17 -229
21 -665 2 -220 4 -411 5 -425 3 -148 -9 -829 -15 -838 -4 -7 -2 -12 3 -12 7 0
11 -25 11 -62 0 -101 11 -168 27 -168 7 0 16 -6 18 -12 4 -10 29 -12 92 -10
56 2 95 -1 110 -9 17 -9 89 -11 307 -5 225 5 285 4 288 -6 4 -10 84 -13 361
-15 195 0 365 -4 377 -8 11 -4 26 -2 33 3 7 5 28 8 47 6 150 -12 555 0 566 17
3 5 16 9 29 9 26 0 47 35 60 100 4 19 9 213 11 431 2 229 8 415 14 443 6 26 8
52 4 57 -6 10 -21 411 -29 789 -9 367 -13 489 -20 500 -3 5 -15 10 -26 10 -10
0 -19 5 -19 10 0 12 -13 13 -24 3z m-706 -96 c-102 -24 -130 -28 -187 -22 -65
7 -95 24 -46 26 15 1 78 4 138 8 117 7 153 2 95 -12z m423 15 l47 -2 0 -44 c0
-24 9 -75 21 -112 l21 -69 -33 -28 c-19 -15 -45 -30 -59 -34 -14 -3 -29 -9
-35 -13 -5 -4 -23 -11 -40 -15 -16 -4 -39 -9 -50 -12 -11 -3 -132 -7 -268 -8
-222 -3 -255 -6 -320 -26 -80 -25 -190 -79 -224 -111 l-22 -21 -11 29 c-6 16
-16 45 -24 64 -7 19 -24 69 -36 110 -12 41 -35 93 -50 116 -40 57 -105 114
-140 121 -17 3 -30 9 -30 13 0 9 152 20 271 20 l88 0 48 -51 c30 -33 71 -62
111 -80 58 -27 70 -29 155 -26 90 4 94 5 162 49 81 53 103 75 109 109 2 13 5
24 5 24 74 0 269 -2 304 -3z m285 -48 c13 -36 19 -160 9 -171 -8 -8 -94 60
-108 85 -7 12 -13 44 -13 70 l-1 47 40 6 c55 8 57 8 73 -37z m-1738 1 c0 -2
-18 -14 -40 -25 -90 -46 -200 -161 -240 -253 -22 -50 -51 -283 -44 -357 12
-122 101 -293 157 -304 12 -2 47 -10 78 -16 49 -11 60 -10 90 5 65 34 97 66
133 134 35 68 36 71 36 187 0 158 -21 298 -49 327 -12 12 -40 44 -63 71 -42
48 -43 48 -91 43 -110 -14 -143 -61 -140 -199 3 -95 21 -147 71 -200 62 -66
152 0 152 111 0 23 -7 46 -16 55 -19 20 -25 20 -49 2 -13 -10 -21 -32 -26 -80
-3 -37 -10 -70 -14 -74 -13 -13 -53 50 -58 92 -8 53 9 109 42 140 41 39 71 41
113 9 47 -36 57 -60 68 -155 16 -140 -30 -242 -122 -270 -79 -23 -193 43 -243
141 -24 48 -30 135 -15 230 14 89 41 140 117 220 l42 44 80 -6 c44 -3 94 -12
112 -21 18 -9 38 -16 45 -16 8 0 47 -33 88 -72 82 -80 93 -104 122 -263 20
-113 18 -183 -10 -288 -37 -140 -46 -222 -36 -302 16 -119 38 -219 49 -223 6
-2 11 -9 11 -17 0 -27 71 -166 87 -172 10 -4 29 -17 43 -31 34 -33 229 -126
260 -124 14 0 119 1 234 2 165 1 220 -3 264 -16 83 -24 146 -59 196 -108 38
-39 45 -53 55 -110 13 -72 9 -86 -33 -125 -38 -36 -122 -41 -171 -11 -102 63
-113 176 -19 193 34 6 74 -18 74 -44 0 -9 -3 -8 -12 3 -37 46 -96 17 -83 -41
8 -39 42 -81 64 -81 27 0 62 30 77 66 12 29 11 40 -7 98 -22 73 -41 91 -105
102 -37 5 -44 3 -68 -22 -39 -41 -46 -65 -43 -143 4 -80 25 -116 97 -166 38
-26 49 -29 109 -27 70 3 94 14 141 64 54 56 73 181 46 288 -18 70 -42 102 -96
130 -44 22 -191 44 -250 37 -25 -3 -70 -8 -100 -12 l-55 -6 51 26 c63 31 125
96 186 195 38 61 51 95 69 179 33 157 16 289 -50 384 -40 59 -136 146 -169
153 -15 3 -40 10 -56 15 -16 5 -62 9 -102 9 -72 0 -83 -3 -204 -60 -8 -4 -34
-39 -58 -78 -35 -58 -45 -87 -58 -162 -24 -149 0 -245 80 -323 68 -65 186
-112 241 -95 16 6 42 13 56 16 66 17 139 113 139 182 0 41 -32 152 -54 185
-17 26 -90 64 -127 67 -42 2 -139 -23 -139 -36 0 -7 -9 -21 -19 -30 -10 -10
-24 -37 -30 -62 -10 -39 -9 -51 8 -90 24 -54 78 -83 118 -65 33 15 57 71 49
114 -8 44 -29 61 -72 60 -40 -1 -47 23 -15 51 17 16 22 16 48 2 87 -44 135
-208 81 -271 -23 -25 -119 -65 -158 -65 -52 0 -126 66 -159 140 -49 113 -34
192 56 287 55 58 61 62 116 68 65 8 115 3 150 -17 14 -7 43 -23 65 -36 50 -27
91 -66 126 -119 21 -32 27 -55 32 -128 8 -115 -12 -214 -63 -314 -34 -66 -45
-79 -103 -116 -78 -50 -87 -54 -170 -70 -40 -8 -69 -9 -76 -4 -6 5 -18 7 -26
4 -22 -9 -120 38 -164 78 -22 19 -55 44 -74 55 -19 11 -34 25 -32 32 2 7 -6
19 -18 27 -19 13 -93 145 -95 168 0 6 -6 34 -14 64 -28 109 -2 269 66 404 13
26 21 53 17 60 -4 7 -3 9 1 4 11 -10 45 22 45 43 0 19 118 146 127 136 7 -7
62 32 115 82 23 22 48 35 65 36 15 1 27 6 26 11 -1 6 15 11 35 11 21 1 102 7
182 13 80 7 167 10 193 6 46 -5 118 -42 145 -74 34 -42 -11 -151 -63 -151 -34
0 -54 10 -66 32 -9 18 -8 19 11 13 31 -10 68 2 80 25 8 16 7 27 -7 51 -23 39
-54 46 -95 22 -42 -24 -47 -62 -16 -123 28 -55 65 -69 133 -50 60 17 85 49 85
111 0 49 -30 141 -55 169 -13 14 -8 21 36 55 28 22 55 49 61 59 10 18 11 18
20 2 11 -19 85 -58 145 -76 l42 -13 -6 -99 -6 -99 -61 -62 c-47 -48 -74 -89
-118 -177 -91 -185 -116 -305 -99 -463 21 -189 64 -275 212 -422 l90 -90 -5
-167 c-3 -93 -10 -177 -16 -188 -6 -12 -12 -38 -13 -59 -1 -26 -5 -37 -13 -34
-7 2 -22 0 -33 -7 -21 -11 -357 -17 -368 -7 -2 3 -38 3 -79 0 -52 -4 -74 -3
-74 6 0 6 4 11 9 11 14 0 -5 60 -27 84 -11 12 -33 41 -50 66 -35 53 -119 140
-133 140 -6 0 -30 16 -54 35 l-43 36 -114 1 c-62 0 -129 -3 -148 -6 -40 -9
-120 -36 -135 -47 -5 -3 -24 -10 -41 -13 -38 -8 -154 -91 -154 -110 0 -7 -9
-21 -20 -31 -11 -10 -20 -22 -20 -27 0 -5 -12 -36 -27 -69 l-28 -59 -60 4
c-33 3 -167 6 -298 7 -213 2 -238 4 -235 18 2 9 12 15 23 13 143 -20 179 -23
207 -13 16 6 60 13 96 17 37 3 81 10 97 16 50 19 218 135 248 172 30 39 51 84
48 104 -1 6 2 12 7 12 12 0 12 6 19 138 6 133 -15 233 -77 368 -45 98 -91 148
-151 164 -119 32 -271 -47 -345 -180 -81 -147 -93 -202 -66 -310 36 -142 84
-203 169 -215 57 -7 86 3 130 44 82 79 97 267 32 396 -27 54 -89 52 -142 -3
-30 -31 -37 -68 -25 -131 13 -73 63 -107 88 -60 11 20 15 86 8 144 -2 21 2 30
14 33 20 4 36 -23 54 -93 21 -77 18 -106 -16 -139 -17 -16 -30 -35 -30 -41 0
-16 -44 -35 -82 -35 -22 0 -39 10 -64 37 -56 61 -77 117 -78 208 -1 76 1 83
35 135 44 65 76 97 143 139 81 50 163 35 212 -39 37 -55 74 -185 74 -258 0
-68 -26 -176 -58 -239 -38 -73 -165 -154 -271 -173 -76 -13 -109 -7 -173 32
-55 34 -60 42 -95 142 -21 61 -26 99 -33 266 l-9 195 28 22 c36 28 75 122 75
182 0 25 -6 65 -12 88 -13 45 -56 103 -75 103 -9 0 -12 86 -13 326 l-1 325 29
6 c52 10 88 69 124 201 2 7 20 12 41 13 21 0 56 6 78 14 38 12 155 20 155 10z
m1614 -50 c5 -29 4 -36 -3 -25 -6 8 -11 28 -11 44 0 39 6 31 14 -19z m-2010 3
c-17 -58 -54 -66 -54 -13 0 32 2 35 31 35 27 0 30 -3 23 -22z m-24 -92 c0 -3
-4 -8 -10 -11 -5 -3 -10 -1 -10 4 0 6 5 11 10 11 6 0 10 -2 10 -4z m2169 -532
c0 -104 -5 -125 -40 -169 -37 -46 -52 -113 -53 -233 0 -95 4 -128 20 -173 34
-89 48 -113 71 -123 14 -7 23 -22 27 -45 10 -61 7 -101 -7 -101 -36 0 -148
176 -193 302 -52 149 -5 448 90 562 62 75 70 84 78 85 3 1 6 -47 7 -105z m27
-454 c-10 -115 -21 -176 -29 -163 -4 7 -13 48 -19 92 -10 70 -10 86 7 140 l18
62 15 -33 c9 -23 12 -53 8 -98z m-2199 28 c-2 -18 -4 -6 -4 27 0 33 2 48 4 33
2 -15 2 -42 0 -60z m580 -720 c-3 -8 -6 -5 -6 6 -1 11 2 17 5 13 3 -3 4 -12 1
-19z m517 -102 c41 -17 102 -79 127 -129 11 -21 26 -40 34 -44 8 -3 12 -9 9
-14 -3 -6 5 -24 19 -42 l24 -32 -86 1 c-114 1 -108 -2 -129 47 -25 56 -41 67
-105 74 -50 5 -57 3 -105 -32 -30 -21 -52 -45 -52 -55 0 -28 -9 -30 -102 -23
l-86 6 19 34 c10 18 19 39 19 45 0 23 54 95 97 127 24 19 61 38 81 42 66 12
201 10 236 -5z m-929 -206 c7 -12 -2 -12 -30 0 -19 8 -19 9 2 9 12 1 25 -3 28
-9z m765 -14 c0 -2 3 -11 6 -20 5 -13 -1 -16 -30 -16 -29 0 -36 4 -36 20 0 16
7 20 30 20 17 0 30 -2 30 -4z"/>
<path d="M1424 1854 c-18 -14 -18 -15 4 -4 12 6 22 13 22 15 0 8 -5 6 -26 -11z"/>
<path d="M1229 1703 l-24 -28 28 24 c25 23 32 31 24 31 -2 0 -14 -12 -28 -27z"/>
<path d="M1177 1652 c-10 -10 -17 -22 -17 -27 0 -4 9 2 20 15 11 13 20 25 20
27 0 7 -8 2 -23 -15z"/>
<path d="M6 1015 c-3 -9 -5 -44 -5 -78 l1 -62 14 70 c8 39 10 73 5 78 -5 5
-11 1 -15 -8z"/>
</g>
</svg>
