<?xml version="1.0" standalone="no"?>
<!DOCTYPE svg PUBLIC "-//W3C//DTD SVG 20010904//EN"
 "http://www.w3.org/TR/2001/REC-SVG-20010904/DTD/svg10.dtd">
<svg version="1.0" xmlns="http://www.w3.org/2000/svg"
 width="327.000000pt" height="381.000000pt" viewBox="0 0 327.000000 381.000000"
 preserveAspectRatio="xMidYMid meet">
<metadata>
Created by potrace 1.16, written by Peter Selinger 2001-2019
</metadata>
<g transform="translate(0.000000,381.000000) scale(0.100000,-0.100000)"
fill="#000000" stroke="none">
<path d="M236 3791 c-4 -6 -25 -11 -47 -11 -29 0 -41 -5 -45 -17 -3 -10 -10
-27 -14 -38 -5 -11 -11 -92 -14 -180 -3 -88 -8 -207 -11 -265 -13 -264 -15
-334 -25 -625 -5 -170 -12 -359 -14 -420 -3 -60 -10 -294 -17 -520 -6 -225
-15 -415 -19 -420 -5 -6 -5 -75 0 -155 7 -137 6 -407 -4 -708 -3 -74 -1 -144
4 -157 5 -14 5 -37 0 -54 -5 -17 -6 -47 -3 -66 l5 -34 69 -7 c49 -5 69 -11 69
-20 0 -8 5 -14 11 -14 6 0 9 7 5 15 -4 12 3 15 34 15 39 0 48 -11 41 -52 0 -5
4 -8 9 -8 6 0 10 12 10 26 0 27 1 27 53 19 62 -8 39 -8 262 -7 220 1 355 -7
374 -22 11 -8 13 -8 7 1 -6 10 42 13 221 13 125 0 235 1 243 2 98 5 1578 -24
1615 -32 21 -5 35 1 35 14 0 8 6 16 13 18 9 4 13 52 15 189 1 101 7 200 12
219 15 50 38 361 39 520 4 390 18 811 31 920 5 41 12 199 15 350 4 151 8 298
10 325 3 28 6 147 9 265 8 370 15 552 25 630 6 41 11 103 11 138 0 55 -2 62
-20 62 -11 0 -20 4 -20 8 0 15 -334 4 -422 -13 -21 -4 -28 -1 -28 10 0 17 -17
20 -22 4 -4 -13 -359 -17 -578 -6 -85 4 -218 9 -295 10 -132 2 -141 3 -158 25
-23 27 -37 28 -37 3 0 -14 -7 -20 -22 -19 -49 1 -194 20 -218 28 -14 5 -60 11
-103 13 -62 4 -78 3 -74 -7 4 -10 -12 -13 -71 -11 -50 1 -76 5 -75 12 5 22
-68 27 -447 28 -212 1 -397 5 -411 9 -17 5 -29 3 -33 -3z m164 -68 c0 -8 -12
-13 -32 -13 -18 0 -38 -4 -44 -8 -11 -7 -34 -129 -34 -181 0 -16 -4 -32 -8
-35 -4 -2 -7 12 -5 32 2 32 1 34 -6 12 -8 -23 -9 -22 -10 13 -1 21 6 48 14 61
9 13 16 45 17 71 1 52 10 59 73 61 23 0 35 -4 35 -13z m17 -5 c-3 -8 -6 -5 -6
6 -1 11 2 17 5 13 3 -3 4 -12 1 -19z m74 12 c10 -6 19 -17 19 -25 0 -17 -16
-20 -25 -4 -4 6 -13 8 -21 5 -16 -6 -28 9 -19 24 8 13 21 13 46 0z m125 -18
c3 -18 0 -20 -26 -17 -55 7 -69 31 -22 38 39 6 45 3 48 -21z m-402 -24 c-10
-62 -25 -105 -19 -53 3 22 5 52 5 68 0 15 5 27 10 27 6 0 8 -16 4 -42z m52 25
c-3 -10 -10 -64 -17 -121 -7 -56 -14 -100 -16 -98 -8 8 20 236 29 236 5 0 7
-8 4 -17z m442 -1 c30 -32 111 -126 127 -147 8 -11 15 -15 15 -9 0 6 -9 21
-20 34 -11 13 -20 28 -20 34 0 6 27 -18 60 -54 33 -36 60 -68 60 -72 0 -5 6
-8 13 -8 25 0 337 -343 325 -356 -3 -2 -52 43 -108 101 -57 57 -106 103 -108
100 -3 -2 1 -11 8 -20 10 -13 9 -15 -9 -15 -23 0 -103 78 -95 92 3 4 -1 8 -7
8 -7 0 -30 17 -51 37 -39 38 -65 40 -29 2 11 -12 18 -25 16 -29 -7 -12 96
-110 108 -103 6 4 7 1 2 -7 -4 -7 -3 -15 3 -19 25 -15 177 -168 229 -229 31
-37 60 -68 65 -70 11 -5 10 -42 -2 -42 -12 0 -31 35 -23 43 3 4 -3 10 -13 13
-26 9 -134 115 -134 131 0 7 -4 13 -10 13 -12 0 -243 236 -252 258 -4 9 -7 13
-7 7 -1 -5 -39 28 -86 75 -58 58 -81 87 -72 92 8 5 5 8 -9 8 -30 0 -53 28 -33
41 20 13 23 12 49 -16 13 -14 20 -25 16 -25 -4 0 6 -11 22 -25 28 -24 52 -32
52 -19 0 3 -25 33 -55 67 -31 34 -53 67 -51 74 3 8 -2 13 -12 13 -9 0 -23 9
-30 20 -11 18 -10 20 18 20 16 0 38 -8 48 -18z m109 -47 c5 -6 15 -19 22 -30
8 -11 -6 0 -32 24 -25 24 -43 49 -40 54 5 9 15 0 50 -48z m161 49 c41 -5 52
-10 52 -24 0 -10 45 -64 100 -120 55 -55 100 -107 100 -115 0 -8 6 -15 13 -15
19 0 60 -47 52 -59 -3 -7 2 -11 13 -11 11 0 35 -19 55 -42 19 -24 90 -98 156
-166 67 -67 121 -127 121 -132 0 -6 7 -10 15 -10 21 0 19 7 -10 34 -30 28 -32
40 -5 33 30 -8 25 0 -31 53 -33 31 -49 53 -44 61 5 7 4 10 -2 6 -17 -11 -125
73 -121 95 2 7 -4 12 -13 10 -12 -1 -128 99 -129 111 0 1 -37 40 -81 87 -74
77 -79 85 -57 88 34 4 78 -15 78 -33 0 -9 -4 -13 -10 -10 -5 3 -10 -1 -10 -9
0 -11 9 -16 27 -16 14 0 33 -6 42 -14 34 -31 67 -63 82 -82 9 -10 89 -90 177
-178 105 -104 165 -156 173 -151 8 6 10 4 4 -5 -4 -7 -2 -16 6 -21 22 -14 28
-11 22 12 -9 33 -70 89 -91 83 -14 -5 -15 -4 -2 5 13 10 8 15 -12 12 -5 0 -7
2 -7 7 3 20 -2 25 -12 12 -9 -13 -10 -13 -5 2 5 16 -53 79 -143 155 -18 15
-38 34 -45 41 -6 7 -26 28 -43 46 -40 40 -41 44 -5 40 29 -3 87 -59 77 -74 -4
-6 -2 -10 4 -10 6 0 23 -12 39 -27 16 -16 42 -40 58 -55 16 -14 58 -56 93 -92
36 -36 67 -63 70 -61 2 3 -6 17 -20 31 -13 14 -24 31 -24 39 0 15 -71 95 -85
95 -6 0 -10 5 -10 11 0 6 7 9 15 5 8 -3 15 -2 15 2 0 5 -19 12 -42 18 -24 5
-42 14 -41 20 1 6 -16 24 -37 40 -21 16 -44 39 -49 52 -10 21 -9 22 10 12 11
-6 25 -9 32 -7 14 5 -36 27 -62 27 -21 0 -44 23 -34 33 3 4 -1 7 -10 7 -10 0
-17 4 -17 10 0 5 -13 23 -30 38 -16 16 -30 31 -30 34 0 10 84 2 87 -9 2 -6 40
-47 85 -90 44 -43 92 -91 107 -107 14 -16 31 -34 38 -40 77 -72 153 -150 153
-157 0 -4 9 -11 20 -14 11 -3 20 -11 20 -16 0 -5 5 -9 11 -9 8 0 7 5 -1 15 -7
9 -10 18 -6 22 3 4 -12 26 -35 49 -35 35 -40 46 -30 58 10 12 8 16 -8 21 -12
3 -25 3 -31 0 -12 -7 -130 104 -130 122 0 7 -6 13 -14 13 -18 0 -63 36 -55 45
4 3 16 7 28 8 19 1 19 2 4 19 -15 16 -18 17 -33 3 -23 -21 -26 -20 -59 18 -19
20 -26 36 -20 41 5 6 -3 15 -23 23 -22 10 -28 17 -21 24 14 14 70 18 103 8
l25 -7 -25 -1 c-23 -2 -24 -2 -6 -13 15 -9 22 -7 33 8 12 17 13 16 7 -11 -4
-24 0 -35 20 -54 14 -14 26 -29 26 -34 0 -11 272 -277 283 -277 5 0 6 9 2 20
-5 15 -3 18 9 14 27 -10 8 20 -23 39 -33 19 -45 22 -36 7 15 -24 -16 -7 -49
27 -37 38 -42 60 -6 28 18 -17 20 -17 14 -2 -3 9 -10 17 -14 17 -5 0 -12 9
-15 20 -3 11 -12 20 -18 20 -7 0 -38 27 -69 61 -48 51 -57 65 -52 86 6 24 5
25 -25 18 -23 -5 -31 -3 -31 7 0 8 15 14 40 16 29 2 40 -1 40 -12 0 -8 3 -16
8 -18 16 -7 53 -70 48 -83 -3 -8 6 -17 23 -23 22 -8 135 -113 189 -177 7 -8
17 -13 23 -10 5 4 -32 47 -82 96 -88 87 -109 119 -55 84 14 -10 26 -15 26 -12
0 16 -14 37 -25 37 -7 0 -15 7 -19 15 -10 28 43 18 56 -10 6 -14 15 -25 20
-25 5 0 16 -7 25 -16 22 -22 3 -40 -26 -25 -17 10 -21 9 -21 -4 0 -8 5 -15 11
-15 6 0 26 -12 45 -26 19 -15 37 -24 41 -21 3 4 -2 9 -11 13 -9 3 -16 12 -16
20 0 18 28 7 64 -25 l29 -26 -14 25 c-7 14 -12 28 -11 33 1 4 -5 7 -14 7 -14
0 -61 44 -121 115 -28 33 -29 39 -4 32 17 -4 18 -2 11 19 -7 19 -6 24 5 24 8
0 15 -4 15 -10 0 -5 6 -10 13 -10 6 0 23 -16 36 -35 13 -19 30 -35 39 -35 12
0 12 3 2 15 -7 9 -9 19 -5 23 4 4 10 1 12 -5 3 -7 12 -13 20 -13 9 0 13 6 10
14 -3 8 -1 17 6 20 7 2 2 5 -10 5 -38 2 -37 21 1 21 23 0 36 -5 36 -13 0 -15
109 -132 116 -125 7 7 -7 38 -17 38 -5 0 -9 7 -9 15 0 18 16 20 24 3 3 -9 9
-7 17 7 18 29 17 31 -32 34 -14 1 -19 7 -17 18 2 14 17 18 80 20 l77 4 16 -31
c8 -16 19 -30 24 -30 9 0 23 -41 16 -48 -2 -2 -12 1 -23 7 -17 9 -22 7 -31
-19 -12 -36 -21 -37 -51 -5 -13 14 -27 25 -32 25 -17 0 -6 -24 31 -66 35 -40
38 -48 33 -89 -4 -37 -2 -45 12 -45 19 0 20 9 6 45 -9 23 -8 26 4 22 13 -5 13
-1 -1 28 -20 42 -16 47 25 36 20 -6 32 -6 32 0 0 20 21 8 40 -23 21 -35 61
-47 52 -16 -2 10 -11 18 -19 18 -10 0 -13 6 -9 16 3 8 -1 22 -9 30 -13 14 -15
14 -15 -1 0 -9 -4 -13 -10 -10 -5 3 -10 18 -10 32 0 14 -11 41 -25 59 -14 18
-25 39 -25 47 0 18 84 31 110 17 10 -6 34 -10 53 -10 21 0 35 -5 34 -12 -2
-57 5 -118 13 -118 6 0 10 10 10 22 0 21 0 21 26 -3 24 -23 25 -26 18 -113 -6
-73 -4 -88 7 -84 11 4 13 22 10 76 -2 43 1 72 7 72 13 0 22 -60 22 -157 0 -66
3 -83 15 -83 8 0 12 6 9 13 -2 7 0 24 5 38 l10 24 7 -22 c3 -13 10 -21 14 -18
7 5 2 -104 -5 -113 -2 -2 -18 13 -36 32 -18 20 -34 34 -36 32 -3 -2 4 -13 14
-24 35 -36 51 -60 58 -83 7 -23 7 -23 -12 -6 -11 9 -23 17 -27 17 -14 0 13
-36 78 -104 36 -38 66 -64 66 -58 0 6 -4 13 -10 17 -5 3 -6 15 -1 28 6 15 4
29 -4 41 -10 13 -11 25 -4 44 5 14 9 32 8 41 -1 9 -1 39 0 68 1 46 3 52 19 46
16 -7 16 -6 0 11 -25 24 -23 43 2 21 22 -20 27 -45 8 -45 -9 0 -9 -3 0 -12 17
-17 16 -59 -2 -52 -9 4 -13 -3 -13 -20 0 -14 5 -24 11 -23 10 2 12 -77 1 -128
-2 -11 -4 -30 -4 -42 -1 -18 -7 -23 -28 -24 l-28 -2 27 -4 c25 -4 27 -8 30
-61 2 -42 7 -57 18 -57 8 0 17 11 20 24 3 13 14 28 25 32 11 4 14 8 8 8 -7 1
-13 9 -13 19 0 11 -3 13 -8 6 -5 -9 -10 -9 -17 0 -14 15 -18 66 -5 66 5 0 10
-5 10 -11 0 -5 13 -24 30 -42 22 -24 30 -42 30 -69 0 -20 -5 -40 -10 -43 -6
-4 -8 -11 -4 -16 5 -9 16 -74 17 -106 0 -7 5 -13 10 -13 5 0 7 11 5 24 -3 16
0 27 9 30 9 4 11 1 7 -6 -4 -7 -3 -8 5 -4 15 10 9 31 -10 31 -10 0 -14 14 -14
53 -1 29 2 55 5 57 9 5 80 -81 80 -96 0 -8 -7 -6 -19 5 -31 28 -36 0 -7 -35
29 -34 35 -62 11 -53 -17 7 -21 -11 -5 -21 6 -3 10 -15 10 -26 0 -14 -4 -18
-12 -13 -10 6 -10 5 -1 -7 7 -9 14 -37 15 -62 2 -35 6 -46 17 -42 17 7 51 -22
51 -43 0 -12 -5 -10 -20 6 -25 26 -50 30 -28 5 32 -38 30 -45 -6 -18 -20 15
-40 25 -44 21 -4 -4 0 -11 8 -16 20 -12 58 -43 42 -35 -10 5 -12 -3 -8 -34 3
-28 1 -39 -6 -35 -6 4 -9 1 -6 -7 3 -8 13 -14 24 -14 10 0 24 -7 31 -15 6 -8
14 -12 18 -9 3 4 -6 21 -20 38 -24 27 -25 31 -8 31 17 1 17 1 -1 15 -11 8 -16
15 -10 15 18 0 37 -18 39 -37 1 -10 6 -27 12 -38 15 -28 28 -145 16 -145 -5 0
-17 14 -27 31 -10 16 -40 57 -67 90 -28 32 -47 64 -44 69 4 6 -1 17 -9 26 -9
8 -16 12 -16 7 0 -5 5 -14 12 -21 7 -7 8 -12 2 -12 -6 0 -23 14 -39 30 -16 17
-33 30 -37 30 -17 0 16 -46 71 -100 92 -90 150 -165 136 -178 -3 -3 -39 30
-80 73 -52 55 -75 74 -75 61 0 -10 19 -37 42 -60 23 -22 64 -67 90 -100 39
-48 46 -61 36 -73 -10 -13 -13 -12 -19 4 -4 10 -13 24 -21 30 -12 11 -13 6 -4
-32 11 -45 19 -54 31 -35 8 13 35 -6 35 -24 0 -6 -8 -2 -17 9 -14 18 -15 18
-9 2 3 -10 6 -25 6 -33 0 -8 6 -14 14 -14 8 0 16 -14 19 -32 2 -18 10 -59 16
-91 7 -32 11 -77 9 -100 -3 -38 -5 -33 -29 61 -14 56 -22 102 -18 102 17 0 9
26 -18 54 -24 27 -27 28 -33 10 -6 -15 -9 -11 -20 20 -7 22 -16 34 -21 29 -9
-9 -4 -30 26 -112 12 -34 13 -46 4 -58 -9 -10 -15 -11 -23 -3 -8 8 -7 13 2 19
13 8 6 41 -9 41 -5 0 -9 7 -9 15 0 8 -6 15 -12 15 -15 0 -102 95 -173 188 -27
36 -59 70 -69 76 -28 16 -66 57 -61 66 6 10 -33 90 -44 90 -14 0 -7 -52 13
-90 l18 -35 -24 25 c-13 14 -35 41 -48 60 -13 19 -30 41 -38 49 -9 9 -11 26
-7 52 5 27 2 45 -11 64 -27 41 -7 42 29 2 53 -60 51 -42 -3 28 -28 36 -45 65
-39 65 8 0 8 4 -1 15 -7 9 -10 19 -6 22 4 4 26 -15 49 -42 36 -42 70 -79 112
-124 41 -44 97 -92 101 -88 5 5 -48 65 -156 177 -121 127 -152 170 -120 170 6
0 10 -4 10 -10 0 -12 121 -140 132 -140 21 0 1 30 -68 104 -42 45 -90 96 -107
113 -29 31 -32 32 -50 15 -18 -16 -20 -16 -33 2 -13 18 -14 18 -20 -12 -4 -18
-12 -32 -18 -32 -12 0 -66 -72 -66 -89 0 -15 -22 -14 -46 3 -23 16 -134 18
-134 2 0 -4 -12 -5 -26 -2 -23 6 -25 4 -19 -11 12 -29 14 -97 3 -110 -5 -7 -8
-33 -6 -58 2 -25 1 -45 -2 -45 -10 0 -110 105 -110 116 0 19 -27 37 -33 22 -9
-28 -13 0 -8 57 l6 60 17 -24 c10 -14 21 -22 24 -18 4 4 -2 17 -14 30 -12 13
-22 30 -22 38 1 8 9 3 21 -13 11 -16 25 -28 30 -28 18 0 9 22 -21 52 -16 16
-30 40 -30 52 0 12 -6 31 -14 41 -8 11 -12 25 -9 32 3 8 -3 13 -16 13 -11 0
-25 9 -31 20 -31 58 -110 107 -95 59 4 -12 1 -19 -7 -19 -7 0 -21 -14 -31 -32
l-18 -31 -37 34 c-121 111 -123 113 -105 121 17 6 17 7 1 7 -10 1 -24 15 -33
31 -14 27 -14 30 0 30 24 0 74 -50 68 -69 -4 -12 -3 -13 5 -2 7 9 12 10 16 2
4 -6 13 -11 19 -11 7 1 -8 19 -32 40 -24 22 -37 40 -30 41 8 1 3 4 -11 8 -14
4 -24 13 -23 19 2 7 -6 12 -17 12 -14 0 -18 -5 -13 -17 7 -17 6 -17 -11 0 -9
9 -22 17 -27 17 -5 0 -9 5 -9 10 0 7 6 7 20 0 30 -16 24 0 -16 48 -40 46 -59
53 -67 23 -3 -13 0 -18 8 -15 21 9 35 -19 20 -40 -14 -18 -16 -18 -52 10 -60
46 -424 413 -475 480 l-47 61 57 2 c31 1 81 -1 110 -5z m184 -54 c41 -43 45
-50 26 -50 -28 0 -88 22 -88 31 0 5 -11 20 -25 33 -34 32 -31 40 12 33 26 -5
49 -19 75 -47z m134 41 c5 -5 20 -11 34 -13 14 -2 25 -10 25 -18 0 -17 -51
-15 -73 3 -10 8 -16 7 -23 -4 -15 -25 -7 -39 34 -57 15 -6 31 -20 34 -29 4
-10 20 -28 35 -41 35 -30 36 -42 1 -38 -39 5 -40 5 -23 16 12 7 8 11 -17 16
-18 4 -33 13 -33 20 0 8 -6 14 -13 14 -7 0 -24 12 -37 28 -13 15 -36 42 -53
61 -22 26 -26 36 -15 42 18 12 112 11 124 0z m-905 -57 c-3 -39 -6 -44 -28
-44 -19 0 -24 4 -19 16 3 9 6 28 6 42 0 21 5 27 23 28 20 1 22 -2 18 -42z m39
24 c0 -19 -2 -20 -10 -8 -13 19 -13 30 0 30 6 0 10 -10 10 -22z m17 0 c-3 -8
-6 -5 -6 6 -1 11 2 17 5 13 3 -3 4 -12 1 -19z m111 0 c14 -14 16 -48 2 -48 -5
0 -7 -7 -4 -15 4 -8 2 -15 -4 -15 -15 0 -23 28 -9 33 9 3 9 8 0 18 -26 26 -11
53 15 27z m99 -34 c-10 -10 -37 16 -37 34 0 13 4 12 22 -5 12 -13 19 -25 15
-29z m2163 27 c0 -5 -6 -12 -12 -14 -7 -3 8 -6 35 -6 27 -1 47 -6 47 -12 0 -6
-7 -9 -15 -5 -9 3 -15 0 -15 -8 0 -8 5 -16 11 -18 6 -2 9 -19 7 -38 l-3 -35
-25 37 c-15 22 -36 40 -52 43 -32 8 -34 12 -12 43 15 22 34 29 34 13z m-2341
-49 c1 -7 -3 -10 -9 -7 -5 3 -10 18 -9 33 0 24 1 25 9 7 5 -11 9 -26 9 -33z
m1275 29 c17 -18 17 -20 -1 -30 -15 -8 -23 -6 -36 10 -9 10 -17 24 -17 29 0
17 36 11 54 -9z m794 -32 c-10 -6 -10 -11 0 -21 15 -15 16 -28 2 -28 -5 0 -10
6 -10 13 0 8 -9 22 -20 32 -28 25 -25 43 8 47 20 2 28 -2 30 -16 2 -10 -2 -22
-10 -27z m112 26 c0 -9 -8 -12 -25 -9 -30 5 -33 -11 -7 -40 13 -15 17 -29 12
-51 l-7 -30 -7 30 c-13 51 -18 61 -23 48 -8 -21 -33 12 -33 43 0 24 3 26 30
21 16 -4 32 -2 35 3 8 13 25 3 25 -15z m78 -3 c3 -17 -2 -22 -19 -22 -21 0
-21 -1 -6 -18 10 -10 17 -24 17 -31 0 -7 5 -9 10 -6 6 4 10 -8 10 -29 0 -45
-9 -45 -37 -3 -16 24 -23 48 -23 83 0 46 2 51 23 49 14 -1 23 -9 25 -23z m462
8 c0 -5 -5 -10 -11 -10 -5 0 -7 5 -4 10 3 6 8 10 11 10 2 0 4 -4 4 -10z m-443
-22 c-3 -8 -6 -5 -6 6 -1 11 2 17 5 13 3 -3 4 -12 1 -19z m-2530 -35 c-3 -10
-5 -2 -5 17 0 19 2 27 5 18 2 -10 2 -26 0 -35z m98 -44 c-3 -50 -6 -135 -6
-190 -1 -79 -4 -99 -15 -99 -8 0 -17 7 -20 15 -9 23 6 146 17 140 5 -4 9 1 9
9 0 8 -4 17 -8 20 -8 5 -3 59 14 164 10 63 15 31 9 -59z m95 65 c0 -8 -4 -12
-10 -9 -5 3 -10 13 -10 21 0 8 5 12 10 9 6 -3 10 -13 10 -21z m197 -1 c13 -16
119 -124 235 -240 116 -117 209 -216 206 -219 -11 -10 -46 15 -105 77 -105
112 -192 199 -198 199 -11 0 -3 -12 36 -55 29 -31 37 -45 25 -45 -20 0 -21
-14 -1 -30 10 -9 15 -9 15 -1 0 25 26 6 116 -86 95 -99 113 -124 72 -102 -21
11 -22 11 -9 -4 7 -10 24 -17 37 -17 15 0 36 -15 61 -46 21 -25 37 -49 36 -53
-1 -4 29 -38 68 -76 70 -70 84 -99 50 -108 -15 -4 -18 -1 -14 12 4 9 3 13 -1
9 -4 -3 -54 46 -110 110 -103 116 -293 313 -331 342 -21 16 81 -100 145 -165
22 -22 35 -42 29 -44 -6 -2 2 -16 17 -32 l28 -29 -26 0 c-14 0 -29 7 -32 16
-3 8 -10 12 -16 9 -6 -4 -7 -11 -4 -17 5 -7 2 -8 -6 -3 -8 5 -41 9 -74 10 -34
0 -69 4 -78 9 -13 6 -15 4 -11 -13 3 -12 13 -21 23 -21 10 0 23 -7 30 -15 7
-8 17 -15 22 -15 6 0 5 7 -2 15 -18 22 17 20 44 -2 20 -17 20 -17 7 0 -8 10
-9 17 -3 17 6 0 24 -17 39 -37 43 -59 165 -193 174 -193 17 0 8 16 -39 65 -26
28 -69 77 -95 108 -40 47 -45 57 -29 57 11 0 33 -16 49 -35 45 -57 167 -185
175 -185 17 0 6 19 -34 62 -24 25 -65 68 -92 97 -52 55 -55 68 -12 51 31 -11
84 -62 147 -140 67 -82 68 -84 31 -77 -18 4 -34 2 -38 -4 -3 -6 -17 -8 -29 -5
-13 3 -27 2 -30 -4 -3 -5 -13 -10 -21 -10 -23 0 -81 -42 -99 -72 -14 -24 -23
-28 -58 -28 -37 0 -140 32 -279 86 -27 10 -48 24 -48 31 0 9 -20 13 -70 13
-53 0 -70 3 -70 14 0 14 -66 28 -124 27 -17 0 -38 6 -47 15 -11 10 -19 12 -24
5 -3 -6 -13 -11 -21 -11 -10 0 -13 7 -9 23 6 21 3 23 -35 25 -31 2 -46 -2 -56
-15 -12 -16 -13 -14 -14 25 0 23 5 42 10 42 6 0 10 -6 10 -12 0 -10 3 -9 9 1
6 9 11 10 15 2 4 -6 12 -11 17 -11 17 0 -1 21 -27 30 -18 7 -24 17 -24 39 0
16 4 32 8 35 5 3 7 19 4 35 -4 27 -2 29 19 24 15 -4 20 -3 15 5 -5 8 -2 10 8
6 8 -3 18 -15 22 -26 11 -35 21 -6 34 100 7 56 17 102 22 102 4 0 8 -4 8 -10
0 -5 7 -10 15 -10 8 0 15 -7 15 -15 0 -8 5 -15 10 -15 10 0 20 -9 76 -71 59
-66 188 -182 191 -173 2 6 -55 70 -126 143 -122 123 -130 133 -119 156 9 20
14 22 29 14 25 -13 24 2 0 23 -16 14 -18 23 -11 50 5 18 11 61 15 95 4 40 12
64 22 67 8 3 11 11 7 18 -4 7 -3 9 1 5 16 -14 14 -37 -3 -38 -11 0 -12 -2 -4
-6 6 -2 12 -18 12 -34 0 -17 -4 -28 -9 -24 -18 10 -23 -16 -7 -34 9 -10 16
-28 16 -41 0 -22 -1 -23 -20 -5 -23 21 -27 11 -5 -11 10 -10 14 -32 13 -60 -1
-42 -2 -43 -20 -27 -31 28 -30 8 2 -22 22 -21 30 -25 30 -13 0 10 36 -19 86
-68 47 -46 90 -84 96 -84 6 0 -31 39 -81 88 -86 82 -91 89 -90 127 1 22 4 52
8 68 l6 27 30 -32 c17 -18 24 -29 18 -24 -21 12 -15 -10 9 -30 19 -17 21 -17
15 -1 -4 10 -2 17 5 17 7 0 -7 19 -30 43 -38 39 -42 47 -42 92 1 39 3 46 11
32 6 -9 7 -26 4 -37 -7 -22 9 -27 22 -7 4 6 8 25 8 41 0 16 6 31 13 33 6 3 12
-3 12 -12 0 -10 -5 -14 -12 -9 -7 4 3 -9 21 -29 19 -21 39 -37 45 -37 5 0 0
10 -12 23 -25 27 -29 42 -8 34 10 -4 12 1 9 16 -5 18 2 15 35 -17 40 -38 50
-75 11 -40 -29 26 -23 1 6 -26 15 -14 25 -18 25 -11 0 8 8 11 20 8 11 -3 20
-3 20 0 0 3 -24 30 -54 59 -43 43 -54 61 -54 85 1 25 5 30 20 26 22 -6 25 11
3 19 -15 6 -22 44 -8 44 4 0 18 -12 30 -27z m2333 -3 c0 -5 -9 -6 -20 -3 -20
5 -25 15 -13 26 7 8 33 -11 33 -23z m104 15 c-4 -8 -10 -12 -15 -9 -14 8 -10
24 6 24 9 0 12 -6 9 -15z m-47 -17 c-3 -8 -6 -5 -6 6 -1 11 2 17 5 13 3 -3 4
-12 1 -19z m-330 -3 c0 -8 -4 -15 -9 -15 -10 0 -11 14 -1 23 9 10 10 9 10 -8z
m448 -5 c3 -5 1 -10 -4 -10 -6 0 -11 5 -11 10 0 6 2 10 4 10 3 0 8 -4 11 -10z
m-165 -60 c0 -7 -9 -1 -20 13 -11 14 -20 31 -20 37 0 7 9 1 20 -13 11 -14 20
-31 20 -37z m-160 18 c0 -25 -3 -29 -10 -18 -13 20 -13 50 0 50 6 0 10 -15 10
-32z m-2613 -10 c-3 -7 -5 -2 -5 12 0 14 2 19 5 13 2 -7 2 -19 0 -25z m283 5
c0 -22 -2 -25 -10 -13 -13 20 -13 40 0 40 6 0 10 -12 10 -27z m80 1 c0 -8 -4
-12 -10 -9 -5 3 -10 13 -10 21 0 8 5 12 10 9 6 -3 10 -13 10 -21z m-331 -44
c1 -79 -7 -160 -18 -195 -8 -23 -9 -11 -5 50 12 194 23 261 23 145z m151 -2
c0 -26 -2 -29 -15 -18 -8 7 -15 26 -15 42 0 26 2 29 15 18 8 -7 15 -26 15 -42z
m1915 41 c11 -17 -1 -21 -15 -4 -8 9 -8 15 -2 15 6 0 14 -5 17 -11z m615 -16
c0 -19 -3 -24 -10 -17 -6 6 -8 18 -4 27 9 24 14 21 14 -10z m-310 -4 c0 -5 -4
-9 -10 -9 -5 0 -10 7 -10 16 0 8 5 12 10 9 6 -3 10 -10 10 -16z m84 13 c8 -13
-5 -52 -15 -46 -12 7 -12 54 0 54 6 0 12 -4 15 -8z m196 -23 c0 -6 -4 -7 -10
-4 -5 3 -10 11 -10 16 0 6 5 7 10 4 6 -3 10 -11 10 -16z m80 -44 c0 -14 -3
-15 -15 -5 -12 10 -15 10 -15 -3 0 -8 7 -18 16 -21 8 -3 12 -11 9 -17 -4 -6
-14 -8 -21 -5 -13 5 -12 2 1 -16 21 -31 19 -46 -3 -17 -14 19 -17 38 -14 87
l4 62 19 -24 c10 -13 19 -32 19 -41z m-158 5 c3 -17 1 -30 -3 -30 -14 0 -29
28 -27 53 3 34 24 18 30 -23z m68 -8 c0 -9 -7 -6 -20 11 -11 14 -20 31 -20 38
0 6 9 2 20 -11 11 -13 20 -30 20 -38z m148 12 c-4 -3 -12 5 -18 18 -12 22 -12
22 6 6 10 -10 15 -20 12 -24z m182 15 c0 -5 -4 -9 -10 -9 -5 0 -10 7 -10 16 0
8 5 12 10 9 6 -3 10 -10 10 -16z m-2930 -84 c0 -47 -4 -85 -9 -85 -5 0 -11 8
-13 18 -4 18 12 152 18 152 2 0 4 -38 4 -85z m2470 66 c5 -11 10 -32 10 -46
l0 -27 -25 30 c-14 17 -25 37 -25 46 0 22 27 20 40 -3z m-2370 -59 c0 -55 -10
-98 -19 -84 -9 16 0 143 10 136 5 -3 9 -26 9 -52z m2516 -25 c16 -9 19 -57 4
-57 -5 0 -10 6 -10 13 0 7 -13 26 -30 42 -20 19 -30 39 -30 58 l0 30 26 -39
c15 -21 33 -43 40 -47z m-2695 -22 c-5 -50 -9 -64 -10 -39 -1 46 11 145 16
129 1 -6 -1 -46 -6 -90z m2450 74 c7 -13 7 -19 1 -15 -7 4 -12 -9 -15 -31 -3
-32 -4 -29 -5 15 -2 57 1 63 19 31z m375 -36 c-10 -10 -36 18 -36 40 0 18 2
17 21 -7 12 -15 19 -30 15 -33z m-119 25 c-3 -8 -6 -5 -6 6 -1 11 2 17 5 13 3
-3 4 -12 1 -19z m311 -3 c-3 -3 -9 2 -12 12 -6 14 -5 15 5 6 7 -7 10 -15 7
-18z m-408 -53 c0 -24 -1 -25 -20 -7 -11 10 -20 29 -20 43 0 24 1 25 20 7 11
-10 20 -29 20 -43z m-122 18 c3 -7 1 -10 -4 -7 -5 3 -8 -13 -5 -36 3 -39 3
-40 -14 -24 -13 13 -15 26 -10 53 6 34 24 42 33 14z m72 -27 c0 -7 -4 -13 -9
-13 -5 0 -7 -9 -4 -21 5 -19 4 -19 -21 4 -25 23 -37 55 -16 42 6 -3 10 4 10
16 0 21 1 22 20 4 11 -10 20 -24 20 -32z m-1800 6 c0 -6 -4 -7 -10 -4 -5 3
-10 11 -10 16 0 6 5 7 10 4 6 -3 10 -11 10 -16z m2140 -40 c0 -5 -9 -1 -20 8
-11 10 -20 24 -20 33 1 11 6 8 20 -9 11 -13 20 -27 20 -32z m-219 -16 c11 -13
19 -32 17 -45 l-3 -23 -24 25 c-39 42 -54 69 -46 87 6 17 7 17 21 -2 8 -11 23
-30 35 -42z m79 -16 c0 -19 -1 -20 -20 -2 -11 10 -20 27 -20 38 0 19 1 20 20
2 11 -10 20 -27 20 -38z m60 1 c0 -21 -11 -23 -28 -6 -7 7 -12 8 -12 2 0 -6 9
-19 20 -29 11 -10 20 -27 20 -38 0 -20 -1 -19 -26 4 -20 19 -24 30 -19 54 3
16 7 38 8 47 1 16 3 16 19 1 10 -9 18 -24 18 -35z m-275 -93 c-3 -43 -9 -83
-12 -89 -3 -5 -6 -21 -5 -36 0 -23 -3 -27 -19 -23 -12 4 -19 14 -19 30 0 22 2
24 15 13 21 -18 19 2 -3 26 -17 18 -18 28 -10 94 12 103 14 107 39 84 19 -17
20 -26 14 -99z m414 78 c12 -14 19 -28 16 -31 -6 -6 -55 38 -55 50 0 16 19 7
39 -19z m-2894 -82 c-8 -113 -12 -126 -32 -110 -11 10 -13 25 -9 62 4 27 9 54
13 60 3 5 7 22 8 36 4 48 5 52 16 45 8 -4 9 -34 4 -93z m92 67 c-3 -7 -5 -2
-5 12 0 14 2 19 5 13 2 -7 2 -19 0 -25z m872 -103 c112 -113 123 -127 114
-147 -10 -23 -10 -23 -44 12 -81 84 -189 203 -189 209 0 3 -9 12 -20 19 -25
15 -26 32 -2 32 10 0 73 -56 141 -125z m-1018 92 c7 -15 7 -31 0 -47 -9 -23
-10 -21 -12 20 l-2 45 -7 -35 -7 -35 -2 38 c-1 41 14 49 30 14z m1614 3 c3 -5
1 -10 -4 -10 -6 0 -11 5 -11 10 0 6 2 10 4 10 3 0 8 -4 11 -10z m1274 -43 c-2
-3 -15 10 -28 27 l-24 31 28 -27 c16 -15 27 -29 24 -31z m-79 -68 c0 -18 -20
-8 -60 31 -23 22 -40 49 -40 61 0 19 7 15 50 -30 28 -29 50 -57 50 -62z m-126
2 c-8 -8 -74 63 -74 78 0 9 16 -3 39 -29 21 -25 37 -47 35 -49z m-1601 41 c21
-21 34 -41 31 -45 -4 -4 -2 -7 5 -7 16 0 41 -25 41 -41 0 -16 -19 1 -81 72
-57 66 -54 80 4 21z m1592 18 c10 -11 13 -20 7 -20 -6 0 -16 9 -22 20 -6 11
-9 20 -7 20 2 0 12 -9 22 -20z m205 -70 c0 -23 0 -23 -25 4 -14 15 -25 38 -25
52 l0 26 25 -30 c14 -17 25 -40 25 -52z m95 -20 c8 -25 8 -25 -14 -6 -11 11
-21 24 -21 31 0 7 -9 20 -20 30 -11 10 -20 23 -20 29 0 18 67 -57 75 -84z
m-1621 57 c14 -13 37 -32 51 -43 14 -10 25 -25 25 -32 0 -14 -88 58 -103 84
-12 21 -1 17 27 -9z m1280 -2 c16 -24 16 -25 -4 -25 -15 0 -20 7 -20 25 0 14
2 25 4 25 2 0 11 -11 20 -25z m-2639 -24 c-4 -14 -11 -28 -16 -29 -6 -3 -5
-10 2 -18 10 -12 9 -13 -5 -8 -10 4 -15 13 -12 21 3 8 6 28 6 44 0 22 4 27 16
22 11 -4 14 -13 9 -32z m2735 -2 c0 -6 -4 -7 -10 -4 -5 3 -10 11 -10 16 0 6 5
7 10 4 6 -3 10 -11 10 -16z m-1210 -14 c7 -9 8 -15 2 -15 -5 0 -12 7 -16 15
-3 8 -4 15 -2 15 2 0 9 -7 16 -15z m1400 -10 c0 -8 -4 -17 -10 -20 -6 -4 -10
5 -10 20 0 15 4 24 10 20 6 -3 10 -12 10 -20z m-240 0 c19 -23 1 -39 -21 -19
-10 9 -19 21 -19 26 0 13 27 9 40 -7z m200 -70 c0 -18 -2 -18 -23 5 -13 14
-27 39 -31 55 l-6 30 30 -35 c16 -19 30 -44 30 -55z m-1881 -35 c75 -84 98
-116 94 -131 -3 -11 -9 -17 -12 -12 -4 4 -44 49 -89 99 -45 51 -82 96 -82 100
0 5 -10 14 -22 19 -29 13 -35 35 -9 35 13 0 55 -38 120 -110z m1637 88 c15
-19 16 -20 2 -9 -16 12 -18 11 -18 -4 0 -17 35 -74 53 -86 5 -4 -9 -8 -31 -11
-44 -4 -42 -8 -42 70 0 39 5 62 14 62 2 0 11 -10 22 -22z m92 2 c7 -11 10 -20
6 -20 -7 0 -34 27 -34 34 0 13 16 5 28 -14z m-1612 -11 c19 -22 19 -22 -3 -10
-24 12 -39 31 -25 31 5 0 17 -10 28 -21z m1668 -4 c23 -36 20 -42 -9 -15 -26
24 -32 40 -16 40 5 0 16 -11 25 -25z m6 -115 c0 -23 -1 -22 -24 8 -13 18 -33
41 -45 51 -11 10 -21 28 -21 39 0 17 8 13 45 -27 27 -29 45 -58 45 -71z m189
50 c-1 -25 -4 -58 -8 -75 l-6 -29 -22 28 c-15 19 -21 36 -17 55 4 18 0 32 -10
40 -22 18 -20 31 4 31 11 0 20 5 20 10 0 6 8 5 20 -2 16 -10 20 -23 19 -58z
m-309 35 c7 -9 8 -15 2 -15 -5 0 -12 7 -16 15 -3 8 -4 15 -2 15 2 0 9 -7 16
-15z m200 -80 c0 -12 -7 -9 -25 13 -14 17 -25 37 -25 47 0 12 7 9 25 -13 14
-17 25 -37 25 -47z m-80 -64 c0 -8 -1 -12 -3 -10 -2 2 -25 33 -51 69 l-48 65
51 -55 c28 -30 51 -61 51 -69z m-122 29 c-1 -17 -1 -29 -2 -28 -1 2 -12 16
-26 33 -25 29 -25 30 -1 10 l24 -20 -8 24 c-5 15 -4 21 3 17 6 -3 10 -20 10
-36z m81 -17 c45 -53 45 -76 0 -25 -16 18 -29 29 -29 25 0 -5 14 -23 31 -41
17 -18 29 -39 27 -47 -4 -22 -88 85 -88 113 0 33 14 27 59 -25z m121 -38 l0
-27 -25 30 c-14 17 -25 42 -25 57 l0 27 25 -30 c14 -17 25 -42 25 -57z m-1466
22 c49 -44 57 -57 52 -75 -4 -12 -11 -22 -15 -22 -8 0 -111 133 -111 143 0 15
18 4 74 -46z m1509 21 c-8 -14 17 -37 34 -31 11 4 14 2 9 -5 -17 -29 -55 4
-56 48 0 19 2 22 9 10 6 -8 7 -18 4 -22z m-1303 -70 c0 -26 -17 -14 -22 17 -4
20 -3 23 8 14 8 -6 14 -20 14 -31z m993 -7 l-6 -25 -9 23 c-9 25 -1 48 13 34
5 -5 6 -19 2 -32z m-1177 -78 c-3 -3 -13 0 -22 8 -16 13 -16 12 -5 -10 9 -15
9 -27 3 -33 -7 -7 -14 7 -21 39 -6 26 -14 59 -17 73 -5 19 3 13 31 -23 20 -27
34 -51 31 -54z m1514 72 c0 -7 7 -15 15 -19 10 -4 15 -20 15 -52 l0 -47 -29
39 c-20 27 -25 43 -19 51 6 7 8 22 5 33 -3 11 -1 18 4 14 5 -3 9 -11 9 -19z
m-120 -30 c0 21 10 15 14 -8 1 -8 8 -22 15 -30 9 -12 10 -21 2 -34 -9 -16 -11
-14 -25 17 -8 19 -15 28 -16 20 -1 -24 -20 10 -20 35 1 20 1 20 15 1 14 -19
15 -19 15 -1z m40 5 c0 -5 -2 -10 -4 -10 -3 0 -8 5 -11 10 -3 6 -1 10 4 10 6
0 11 -4 11 -10z m27 -32 c-3 -8 -6 -5 -6 6 -1 11 2 17 5 13 3 -3 4 -12 1 -19z
m-2800 -40 c-3 -7 -5 -2 -5 12 0 14 2 19 5 13 2 -7 2 -19 0 -25z m2851 -13
c-7 -8 -38 23 -38 38 0 6 10 2 22 -10 12 -13 19 -25 16 -28z m-48 -23 c0 -21
-2 -24 -10 -12 -13 20 -13 53 0 45 6 -3 10 -18 10 -33z m-653 -14 c2 -31 -3
-41 -28 -58 -33 -24 -61 -23 -36 1 9 10 13 26 10 42 -8 39 3 59 29 55 19 -2
23 -10 25 -40z m604 -10 c7 -13 6 -18 -4 -18 -8 0 -17 9 -20 21 -3 12 -10 18
-16 14 -7 -4 -11 3 -11 16 0 22 0 22 21 3 11 -10 25 -27 30 -36z m85 -25 c-11
-11 -26 10 -26 35 l1 27 15 -28 c9 -16 13 -31 10 -34z m44 -2 c0 -20 3 -54 7
-76 l6 -40 -32 39 c-29 36 -30 40 -14 52 15 10 16 17 7 42 -10 27 -9 29 7 25
14 -4 19 -15 19 -42z m-1643 -23 c-2 -13 -4 -3 -4 22 0 25 2 35 4 23 2 -13 2
-33 0 -45z m1471 -12 c-6 -11 -7 -18 -3 -13 5 4 17 0 27 -10 19 -17 25 -77 9
-87 -12 -8 -41 3 -41 15 0 6 9 5 20 -1 27 -15 25 0 -5 32 -20 21 -24 36 -23
73 2 39 4 44 15 29 9 -12 9 -22 1 -38z m-561 -8 c-3 -8 -6 -5 -6 6 -1 11 2 17
5 13 3 -3 4 -12 1 -19z m653 4 c86 -104 104 -132 83 -132 -10 0 -43 32 -43 43
0 5 -16 32 -35 58 -33 46 -37 70 -5 31z m-755 -72 c0 -39 -1 -70 -3 -70 -8 0
-42 95 -39 109 3 12 7 10 16 -9 11 -24 11 -23 5 8 -4 23 -2 32 8 32 9 0 13
-19 13 -70z m-2110 -35 c15 -27 43 -69 61 -92 19 -23 34 -44 34 -48 0 -10 -34
12 -63 41 -20 20 -27 23 -27 11 0 -9 13 -26 30 -38 16 -12 27 -26 24 -31 -3
-4 2 -8 11 -8 9 0 27 -7 41 -17 19 -12 22 -18 12 -25 -10 -8 -9 -9 3 -5 9 3
22 0 28 -6 8 -8 11 -8 11 2 0 20 30 -7 42 -38 7 -20 11 -22 18 -11 7 11 15 9
44 -13 19 -15 39 -27 44 -27 12 0 36 -28 38 -45 1 -8 12 -24 23 -37 12 -12 19
-28 17 -35 -3 -7 -1 -13 4 -13 6 0 10 -9 10 -20 0 -24 -9 -26 -24 -5 -6 8 -20
16 -31 18 -11 1 -40 23 -64 47 -29 31 -38 36 -27 18 37 -63 9 -64 -58 -3 -49
46 -62 52 -68 36 -2 -5 -18 -4 -38 3 -77 29 -77 29 -57 16 29 -19 19 -31 -15
-18 -18 7 -44 13 -58 13 -20 0 -26 -6 -28 -29 -2 -16 1 -33 7 -39 7 -7 7 -14
0 -23 -7 -8 -7 -19 -1 -31 16 -32 23 -83 10 -83 -6 0 -3 -9 7 -20 10 -11 21
-17 26 -14 10 6 45 -12 73 -37 11 -11 26 -19 33 -19 18 0 137 -60 141 -71 2
-5 7 -7 12 -4 15 9 132 -33 157 -57 17 -16 26 -19 31 -11 5 8 35 -14 87 -64
44 -42 84 -75 88 -74 13 3 228 -219 222 -229 -3 -4 2 -11 11 -14 8 -3 12 -10
9 -16 -3 -5 0 -10 7 -10 17 0 103 -115 111 -148 4 -16 1 -22 -11 -23 -10 -1
-3 -6 15 -11 17 -6 44 -24 60 -40 l28 -30 -50 7 c-27 4 -59 16 -71 26 -20 19
-45 26 -43 12 3 -19 -5 -19 -73 -7 -40 6 -75 11 -76 9 -5 -5 69 -25 90 -25 9
0 19 -4 22 -9 3 -4 17 -6 30 -4 15 3 39 -3 61 -17 37 -23 43 -35 23 -43 -9 -4
-7 -6 3 -6 9 -1 52 -35 95 -76 62 -58 74 -75 58 -75 -12 0 -27 7 -34 15 -7 9
-15 13 -18 10 -3 -3 -11 0 -19 6 -17 14 -17 -3 0 -20 10 -11 8 -12 -8 -8 -47
13 -212 31 -204 23 3 -3 35 -10 72 -15 37 -5 74 -17 83 -25 20 -20 28 -20 20
0 -5 12 -2 15 11 10 10 -4 46 -10 79 -13 68 -6 70 -7 99 -41 l20 -24 -60 5
c-102 9 -179 18 -195 24 -29 10 -126 13 -110 4 9 -5 99 -20 200 -32 116 -14
189 -27 196 -36 6 -7 14 -9 18 -5 9 8 13 9 69 11 33 2 38 4 22 11 -11 5 -41 9
-66 9 -47 1 -76 15 -81 41 -2 9 5 15 17 16 11 1 32 2 48 3 30 1 37 25 11 35
-14 5 -15 4 -4 -9 20 -24 -45 -20 -70 5 -16 16 -20 17 -20 4 0 -13 -4 -13 -30
3 -16 9 -30 22 -30 27 0 5 -7 18 -17 28 -9 10 -11 18 -5 18 6 0 14 -4 17 -10
3 -5 11 -10 16 -10 6 0 7 4 4 10 -4 7 3 7 20 0 15 -6 31 -8 36 -4 5 3 9 1 9
-5 0 -6 12 -8 30 -5 18 4 36 1 46 -7 11 -9 18 -9 22 -2 5 8 26 7 72 -3 36 -7
76 -14 90 -14 14 0 39 -8 56 -18 50 -27 119 -83 116 -93 -1 -5 9 -9 22 -9 13
0 26 -7 30 -15 8 -21 -96 -21 -118 0 -18 18 -27 19 -21 2 4 -9 -10 -12 -56
-10 -83 3 -68 -8 18 -13 187 -10 205 -13 221 -28 10 -8 33 -22 52 -30 19 -8
29 -15 23 -16 -7 0 -13 -5 -13 -11 0 -6 7 -9 15 -6 8 4 17 2 20 -3 4 -6 14
-10 23 -10 9 -1 47 -30 85 -65 l67 -65 -42 -1 c-62 -2 -90 2 -112 13 -12 7
-16 7 -12 0 3 -6 0 -13 -6 -15 -7 -3 2 -6 20 -6 41 -1 89 -30 70 -42 -9 -6 -8
-9 7 -9 11 0 40 -7 64 -16 36 -12 46 -13 52 -2 11 17 -16 31 -48 25 -18 -3
-34 2 -52 19 l-26 24 23 0 c13 0 21 -4 18 -9 -3 -5 1 -11 9 -15 8 -3 14 -2 12
2 -7 22 46 14 73 -11 30 -28 85 -45 77 -25 -2 7 -13 12 -25 11 -26 -3 -50 23
-34 39 8 8 13 7 18 -6 5 -13 9 -14 14 -5 6 9 12 9 24 -4 9 -8 16 -20 16 -25 0
-13 35 -43 42 -36 4 3 9 -4 13 -15 3 -12 11 -21 16 -21 5 0 9 -6 9 -13 0 -8 7
-29 16 -47 22 -44 11 -49 -100 -45 -85 2 -123 -6 -111 -25 3 -5 13 -6 23 -4 9
3 26 -2 37 -10 19 -14 16 -15 -35 -16 -30 0 -65 -3 -77 -6 -15 -4 -25 0 -33
16 -6 12 -8 25 -4 28 4 4 9 1 11 -5 3 -7 12 -13 20 -13 14 0 14 2 0 18 -12 13
-27 17 -51 14 -24 -3 -41 1 -51 12 -9 9 -24 16 -32 16 -14 0 -14 -3 2 -20 18
-20 18 -20 -14 -9 -20 7 -30 16 -27 25 3 7 1 16 -4 19 -6 4 -10 1 -10 -6 0 -7
-9 -5 -26 6 -29 19 -124 30 -124 14 0 -5 18 -9 39 -9 35 0 118 -36 108 -46 -5
-5 -128 -13 -234 -16 l-82 -1 23 -22 c22 -20 35 -22 162 -23 97 -1 132 2 116
8 -13 6 -21 14 -18 18 9 15 79 12 103 -3 25 -17 32 -40 8 -32 -8 4 -17 2 -20
-3 -4 -6 9 -11 27 -11 18 -1 -12 -6 -67 -10 -70 -6 -109 -5 -129 3 -23 9 -31
9 -34 0 -5 -17 -42 -15 -42 3 0 8 -5 15 -11 15 -6 0 -9 -8 -7 -17 3 -16 20
-18 168 -21 158 -2 220 6 220 29 0 5 33 9 73 9 61 0 74 -3 85 -20 7 -11 17
-20 23 -20 6 0 8 9 4 20 -7 23 5 26 24 8 10 -11 14 -10 21 2 6 11 24 15 69 13
33 -1 63 2 66 7 3 5 13 6 22 3 11 -4 14 -2 11 8 -3 8 -15 14 -28 14 -13 0 -25
6 -28 13 -5 16 42 16 55 0 6 -7 13 -24 16 -38 3 -14 13 -34 22 -45 16 -20 16
-19 10 5 -6 24 -5 24 9 6 28 -35 17 -3 -25 74 -22 41 -38 67 -35 58 3 -10 1
-18 -3 -18 -13 0 -23 33 -12 39 5 4 3 20 -5 41 -9 19 -15 37 -15 40 0 3 -7 16
-15 29 -12 17 -13 22 -3 19 21 -7 76 -109 140 -262 34 -80 34 -83 12 -65 -10
8 -14 9 -10 2 4 -6 3 -14 -3 -18 -6 -3 -13 1 -16 9 -5 13 -9 12 -27 -5 -20
-18 -30 -19 -186 -12 -185 9 -440 10 -786 3 -273 -6 -368 3 -408 36 -16 13
-27 24 -25 25 21 5 48 4 48 -3 0 -4 12 -8 27 -8 20 0 24 3 16 11 -6 6 -9 18
-6 25 4 10 -2 13 -18 12 -13 -1 -37 7 -54 18 l-29 19 27 3 c16 2 34 -2 42 -8
8 -6 16 -7 19 -2 7 12 -11 27 -44 40 -19 7 -29 6 -39 -6 -10 -10 -16 -12 -19
-4 -2 7 -10 12 -18 12 -8 0 -17 6 -20 14 -3 8 -24 22 -47 31 -37 15 -39 18
-22 26 16 6 13 8 -15 8 -19 1 -42 5 -49 10 -12 8 -9 11 12 16 15 4 24 11 21
16 -7 12 -44 11 -44 -1 0 -18 -18 -11 -50 19 -30 27 -31 30 -14 40 18 10 18
10 -3 11 -12 0 -29 7 -38 16 -10 10 -26 14 -42 11 -35 -6 -73 11 -73 34 0 11
-14 25 -35 35 -19 9 -35 18 -35 21 0 12 78 -3 99 -19 13 -10 27 -15 32 -12 5
3 9 0 9 -5 0 -6 -8 -11 -17 -11 -17 -1 -17 -1 0 -11 13 -8 21 -6 33 5 18 18
34 21 34 6 0 -5 7 -10 16 -10 12 0 11 5 -7 20 l-24 19 28 1 c38 0 34 13 -14
38 -46 25 -59 28 -41 10 33 -33 1 -37 -45 -5 -39 26 -43 40 -8 31 30 -8 34 10
5 28 -32 20 -23 31 20 25 49 -6 44 4 -30 54 -48 33 -61 49 -39 49 5 0 7 5 4
10 -3 6 -14 10 -24 10 -10 0 -24 7 -31 15 -18 22 -29 18 -23 -7 5 -18 3 -21
-7 -11 -7 6 -19 9 -26 6 -9 -3 -14 2 -14 15 0 12 -9 23 -19 27 -11 3 -22 12
-25 20 -6 17 11 19 67 6 33 -8 37 -7 37 10 0 10 -7 19 -15 19 -8 0 -15 -5 -15
-10 0 -7 -6 -7 -20 0 -10 6 -46 13 -78 16 -50 6 -65 12 -98 43 -21 20 -45 44
-52 53 -12 14 -10 16 10 12 22 -5 22 -5 3 8 -19 12 -25 14 -45 17 -5 0 -14 11
-21 22 -9 17 -8 20 2 14 9 -6 11 0 6 26 l-7 34 21 -25 c12 -14 16 -26 10 -28
-6 -2 -11 -11 -11 -20 0 -12 3 -13 12 -4 7 7 17 8 30 1 22 -12 23 -2 2 22 -8
9 -12 19 -7 22 14 8 53 -12 53 -28 0 -10 -5 -13 -12 -9 -7 4 -9 3 -5 -1 4 -5
20 -11 35 -13 14 -2 32 -8 39 -14 9 -7 13 -7 13 0 0 6 -6 15 -12 19 -17 11
-41 54 -34 60 3 3 8 -2 12 -11 4 -9 19 -23 35 -32 16 -8 28 -19 26 -25 -3 -16
36 -38 56 -30 17 6 16 9 -7 34 -14 15 -30 36 -36 47 -6 11 -16 20 -23 20 -15
0 -67 64 -67 84 0 8 -9 17 -19 21 -11 3 -22 12 -24 20 -4 8 -14 11 -26 8 -12
-3 -21 -1 -21 6 0 5 6 8 14 5 8 -3 17 -1 21 5 3 6 1 11 -5 11 -7 0 -20 10 -31
23 -16 19 -18 20 -19 4 0 -15 -8 -17 -61 -13 -41 3 -65 10 -73 21 -10 14 -12
14 -12 -6 0 -13 7 -31 16 -40 31 -36 38 -46 51 -85 8 -21 20 -43 26 -47 7 -4
13 -20 13 -34 0 -21 -2 -23 -15 -13 -8 7 -22 9 -31 6 -12 -5 -15 -2 -10 10 4
11 -1 24 -14 36 -13 13 -20 15 -21 6 0 -7 -3 -29 -6 -48 -3 -19 -5 -56 -5 -82
0 -40 -2 -46 -16 -40 -16 5 -15 4 1 -21 26 -39 23 -67 -4 -33 -17 22 -22 44
-24 119 -3 83 -6 94 -28 113 -14 12 -28 31 -32 43 -14 44 -25 19 -20 -46 12
-164 13 -233 4 -233 -5 0 -9 35 -9 78 0 43 -7 123 -15 178 -8 54 -15 128 -15
164 -1 49 6 335 10 403 0 4 7 7 15 7 15 0 20 12 9 23 -6 6 -17 147 -15 192 0
11 1 53 1 94 1 40 5 84 10 97 6 14 6 26 0 29 -6 4 -10 44 -10 90 0 71 2 83 15
79 18 -7 20 9 3 24 -7 6 -12 24 -12 41 1 17 2 61 3 97 l1 67 23 -24 c13 -13
36 -46 52 -74z m1989 59 c3 -9 -1 -14 -14 -14 -13 0 -20 7 -20 20 0 22 25 18
34 -6z m170 -28 c8 -19 24 -44 35 -55 26 -26 29 -49 4 -30 -10 7 -4 -1 13 -18
18 -16 35 -45 39 -63 4 -18 15 -35 24 -37 9 -3 40 -43 69 -89 31 -48 58 -81
64 -77 7 3 8 1 4 -5 -4 -7 5 -29 19 -49 28 -42 35 -38 8 5 l-17 27 32 -29 c18
-17 32 -38 32 -48 0 -10 7 -18 15 -18 8 0 45 -39 82 -87 75 -95 104 -126 112
-117 3 3 1 8 -5 12 -11 8 -105 127 -119 152 -19 34 60 -50 100 -105 79 -111
97 -159 99 -257 2 -84 1 -87 -16 -68 -10 11 -18 25 -18 33 0 8 -13 33 -30 55
-16 23 -30 46 -30 51 0 5 -15 21 -32 36 -41 34 -59 61 -34 52 21 -8 22 16 1
33 -12 10 -15 10 -15 -1 0 -8 -6 -5 -15 7 -15 19 -15 19 -9 -1 4 -13 -6 -7
-28 18 -18 20 -37 37 -43 37 -5 0 -23 15 -40 32 l-30 32 38 -22 c37 -21 57
-22 57 -1 0 14 -174 189 -188 189 -7 0 -12 8 -12 17 0 9 -3 14 -6 10 -11 -10
18 -81 44 -109 14 -16 22 -28 16 -28 -12 0 -99 106 -99 122 -1 7 -13 32 -28
55 -36 57 -34 64 8 23 l35 -34 -51 92 c-28 51 -55 92 -59 92 -5 0 -16 24 -26
53 -9 28 -19 58 -22 66 -3 9 -1 12 6 7 8 -4 8 3 1 26 -16 59 -7 67 15 14z m74
7 c-5 -45 -45 -32 -47 15 -1 6 10 12 25 12 22 0 25 -4 22 -27z m652 -47 c0
-14 -6 -17 -25 -14 -27 6 -33 -3 -12 -20 15 -12 57 2 57 19 0 7 8 5 20 -6 23
-21 26 -76 9 -140 l-11 -39 -19 23 c-10 13 -19 31 -19 40 0 10 -13 35 -30 57
-29 38 -36 75 -24 121 l6 23 24 -23 c13 -12 24 -30 24 -41z m-906 24 c16 -6
33 -25 42 -47 9 -21 25 -54 35 -74 11 -21 17 -43 14 -51 -3 -7 4 -31 15 -53
11 -21 20 -45 20 -52 0 -6 8 -18 19 -25 10 -7 21 -22 23 -33 2 -11 10 -19 17
-17 7 1 10 -2 6 -8 -8 -13 72 -123 84 -115 10 5 131 -112 131 -126 0 -5 5 -9
10 -9 10 0 103 -72 159 -123 13 -12 43 -52 67 -88 23 -37 47 -70 52 -73 6 -3
13 -20 17 -36 4 -17 12 -36 19 -43 6 -6 21 -37 33 -67 12 -30 25 -64 29 -75 4
-11 8 -27 9 -35 4 -57 53 -173 82 -197 16 -12 14 -122 -7 -403 -6 -80 -8 -192
-5 -250 l6 -105 -33 65 c-44 85 -60 110 -74 110 -5 0 -25 14 -43 32 -17 17
-40 32 -49 33 -9 1 -30 8 -47 15 -37 16 -40 17 -65 19 -11 0 -20 7 -20 15 0
23 -20 24 -89 3 -64 -19 -194 -26 -251 -13 -73 16 -196 74 -225 106 -10 11
-14 20 -10 20 4 0 -11 14 -34 30 -23 17 -47 28 -53 24 -6 -4 -8 -3 -5 3 4 6
-12 23 -36 39 -23 15 -44 30 -47 32 -2 2 1 7 8 11 9 5 0 18 -28 45 -22 20 -40
44 -41 54 0 26 -49 59 -97 66 -23 3 -51 10 -62 16 -11 6 -20 8 -20 5 0 -3 -9
4 -20 15 -11 11 -27 20 -35 20 -24 0 -73 27 -139 77 -33 24 -65 42 -73 39 -9
-4 -11 -1 -7 5 4 6 0 15 -7 20 -19 12 -29 11 -29 -2 0 -5 5 -7 10 -4 6 3 10
-2 10 -11 0 -16 -2 -15 -22 3 -13 11 -33 24 -44 27 -12 4 -29 15 -38 25 -15
17 -15 21 5 59 25 47 25 47 -54 100 -56 37 -67 39 -67 12 0 -23 -15 -27 -23
-6 -16 42 57 47 116 8 42 -29 130 -72 145 -72 5 0 24 -14 43 -31 76 -68 220
-149 267 -149 13 0 37 -10 54 -22 21 -16 32 -19 35 -11 2 7 12 9 21 6 14 -5
15 -3 5 7 -10 11 -10 17 2 30 14 15 14 19 -1 31 -9 7 -35 13 -57 14 -32 0 -47
6 -67 28 -14 15 -36 30 -49 32 -13 2 -26 7 -30 11 -3 4 2 4 12 1 11 -4 16 -3
12 3 -3 6 -15 10 -25 10 -14 0 -18 5 -13 17 4 11 3 14 -5 9 -8 -5 -10 -2 -6 9
5 12 2 16 -12 13 -11 -2 -18 2 -17 8 1 6 -9 17 -22 24 -14 7 -25 17 -25 22 0
4 -9 8 -20 8 -11 0 -20 7 -20 15 0 8 -5 15 -11 15 -7 0 -20 10 -30 22 -11 11
-19 19 -19 15 0 -3 -21 16 -47 42 -27 25 -59 55 -72 66 l-24 20 5 -21 c4 -16
-8 -8 -41 27 -26 27 -51 49 -57 49 -6 0 -21 11 -34 25 l-23 25 24 0 c29 0 49
17 49 42 0 27 19 22 69 -20 25 -21 69 -53 96 -72 28 -19 77 -55 110 -80 139
-107 171 -130 183 -130 8 0 46 -25 85 -55 68 -53 97 -66 97 -45 0 6 -4 10 -10
10 -5 0 -10 7 -10 15 0 8 -9 19 -20 25 -11 6 -20 17 -20 24 0 7 -9 21 -20 31
-11 10 -17 22 -14 26 3 5 -1 9 -9 9 -7 0 -28 15 -46 33 -19 17 -40 32 -47 32
-15 0 -104 65 -104 77 0 13 -52 68 -64 68 -6 -1 -1 -9 12 -20 12 -10 18 -21
13 -24 -4 -3 -21 7 -37 22 -39 37 -117 92 -129 92 -5 -1 8 -16 30 -35 22 -19
35 -35 30 -35 -21 0 -75 58 -69 74 4 11 0 16 -12 17 -11 1 -23 2 -29 3 -11 1
-81 66 -72 66 4 0 22 -14 42 -31 29 -26 35 -28 35 -13 0 10 -23 39 -51 65
l-52 47 22 42 c13 25 19 50 15 62 -5 17 -3 18 13 10 10 -6 27 -20 38 -32 11
-12 69 -56 130 -98 128 -89 219 -159 256 -199 15 -16 66 -57 115 -91 89 -64
113 -90 114 -127 2 -48 65 -90 147 -97 78 -7 101 27 73 107 -8 22 -13 43 -12
47 3 10 -22 77 -57 151 -17 37 -34 81 -38 97 -3 17 -10 33 -14 36 -5 3 -9 13
-9 23 0 10 -9 47 -20 81 -23 73 -25 105 -7 143 12 27 27 36 27 17 0 -17 18
-11 22 8 6 28 43 -65 57 -143 24 -132 27 -140 42 -137 10 1 30 -27 58 -83 23
-47 49 -85 56 -85 8 0 36 -13 62 -30 26 -16 52 -30 59 -30 6 0 14 -6 17 -13 5
-14 57 -22 57 -8 0 5 -7 14 -15 21 -8 7 -15 19 -15 26 0 8 -4 14 -9 14 -6 0
-35 30 -66 68 -31 37 -67 79 -79 94 -13 15 -29 41 -36 58 -7 17 -21 37 -32 44
-30 21 -121 253 -142 361 l-5 30 13 -28 c6 -15 15 -24 19 -21 4 4 -4 22 -18
40 -14 18 -25 42 -25 53 0 11 -5 23 -10 26 -6 4 -8 11 -5 16 12 19 27 8 42
-31 15 -38 18 -40 60 -40 23 0 46 -1 50 -2 4 -2 9 5 11 14 2 11 -11 23 -42 37
-68 30 -60 67 8 41z m-291 -73 c17 -21 26 -41 21 -48 -5 -9 -2 -10 10 -6 14 6
17 3 12 -8 -3 -9 -2 -14 2 -11 5 3 9 -1 9 -9 0 -8 -4 -15 -8 -15 -11 0 -49 51
-49 66 0 8 -3 14 -7 14 -15 0 -55 69 -47 81 5 8 10 6 18 -8 6 -10 24 -36 39
-56z m84 -28 c43 -39 80 -75 82 -80 1 -6 -5 -16 -15 -23 -15 -12 -22 -9 -51
22 -18 19 -33 36 -33 38 0 2 -16 28 -35 59 -20 30 -33 55 -31 55 3 0 41 -32
83 -71z m466 51 c3 -11 1 -18 -4 -14 -5 3 -9 12 -9 20 0 20 7 17 13 -6z
m-1603 0 c0 -5 -5 -10 -11 -10 -5 0 -7 5 -4 10 3 6 8 10 11 10 2 0 4 -4 4 -10z
m2221 -71 c10 -19 9 -20 -10 -9 -12 6 -21 18 -21 26 0 19 16 10 31 -17z m-707
-5 c3 -8 2 -12 -4 -9 -6 3 -10 10 -10 16 0 14 7 11 14 -7z m-869 -4 c3 -5 1
-10 -4 -10 -6 0 -11 5 -11 10 0 6 2 10 4 10 3 0 8 -4 11 -10z m1614 -90 c13
-13 12 -15 -2 -18 -15 -3 -15 -5 -3 -18 8 -8 20 -14 26 -14 7 0 9 -8 5 -20 -3
-10 -7 -83 -8 -162 l-1 -143 -14 85 c-7 47 -14 110 -15 140 -1 30 -6 58 -11
61 -4 4 -9 27 -11 51 -3 57 -14 90 -26 83 -5 -4 -9 3 -9 15 0 19 3 18 27 -12
16 -18 34 -40 42 -48z m-679 -2 c0 -3 -9 -4 -20 -1 -11 3 -20 11 -20 18 0 8
-3 22 -6 32 -4 11 4 6 20 -12 14 -16 25 -33 26 -37z m-430 1 c0 -5 -7 -9 -15
-9 -15 0 -20 12 -9 23 8 8 24 -1 24 -14z m-545 -29 c3 -5 2 -10 -4 -10 -5 0
-13 5 -16 10 -3 6 -2 10 4 10 5 0 13 -4 16 -10z m-139 -37 c-7 -7 -26 7 -26
19 0 6 6 6 15 -2 9 -7 13 -15 11 -17z m154 -36 c51 -10 117 -46 145 -78 17
-20 26 -26 21 -14 -7 19 -6 19 16 -1 13 -12 38 -30 56 -40 18 -10 36 -30 39
-44 3 -14 13 -35 21 -47 8 -13 11 -23 7 -23 -10 0 -64 38 -114 82 -24 21 -48
35 -54 31 -5 -3 -7 -1 -4 4 4 6 0 16 -8 23 -8 7 -12 17 -8 23 4 6 1 7 -6 3 -8
-5 -14 -1 -17 10 -3 11 -17 25 -31 31 -30 14 -48 7 -21 -8 9 -5 27 -24 40 -42
16 -23 3 -15 -50 32 -63 55 -115 109 -71 74 8 -6 26 -14 39 -16z m510 16 c0
-5 -5 -15 -10 -23 -8 -12 -10 -11 -10 8 0 12 5 22 10 22 6 0 10 -3 10 -7z
m-783 -16 c4 -6 20 -18 35 -26 45 -23 46 -71 3 -70 -15 0 -65 70 -65 91 0 21
15 24 27 5z m1960 -24 c-3 -10 -5 -4 -5 12 0 17 2 24 5 18 2 -7 2 -21 0 -30z
m-1702 -31 c-6 -6 -45 33 -45 44 0 4 11 -3 25 -16 14 -13 23 -26 20 -28z
m-259 -49 c-4 -4 -16 3 -27 16 -28 35 -23 46 8 17 15 -14 23 -29 19 -33z
m1868 27 c-10 -4 -21 -6 -24 -3 -8 7 24 22 34 16 5 -4 1 -10 -10 -13z m-1549
-18 c-3 -3 -11 0 -18 7 -9 10 -8 11 6 5 10 -3 15 -9 12 -12z m-367 -46 c3 -12
-1 -17 -10 -14 -7 3 -15 13 -16 22 -3 12 1 17 10 14 7 -3 15 -13 16 -22z m822
-78 c23 -78 97 -211 128 -231 17 -11 42 -62 42 -87 0 -13 -7 -20 -19 -20 -14
0 -18 5 -14 19 3 11 -3 27 -15 39 -11 11 -21 24 -23 30 -9 24 -69 18 -69 -7 0
-11 -4 -23 -10 -26 -5 -3 -10 3 -10 13 0 11 -6 22 -13 25 -12 5 -47 99 -47
129 0 9 -6 18 -14 21 -16 6 -28 58 -16 72 4 6 10 22 14 38 5 20 13 27 30 27
18 0 25 -8 36 -42z m-160 13 c21 -40 30 -71 20 -71 -6 0 -10 9 -10 20 0 11 -3
20 -7 20 -5 0 -16 12 -26 25 -15 21 -16 25 -3 25 8 0 20 -9 26 -19z m824 -7
c3 -8 2 -12 -4 -9 -6 3 -10 10 -10 16 0 14 7 11 14 -7z m-1439 -2 c28 -20 58
-92 39 -92 -4 0 -18 12 -31 26 -16 17 -31 24 -43 21 -11 -3 -22 -1 -25 3 -8
13 5 39 23 43 26 7 26 7 37 -1z m-995 -33 c0 -6 -4 -7 -10 -4 -5 3 -10 11 -10
16 0 6 5 7 10 4 6 -3 10 -11 10 -16z m2849 -124 c0 -5 -4 -3 -9 5 -5 8 -9 22
-9 30 0 16 17 -16 18 -35z m-40 -22 c6 -10 11 -13 11 -8 0 6 16 -34 34 -87 18
-54 41 -109 50 -124 10 -14 15 -28 12 -32 -3 -3 -7 -3 -9 -1 -48 68 -77 122
-83 154 -3 22 -12 49 -18 60 -19 31 -26 55 -16 55 5 0 14 -8 19 -17z m-1469
-28 c24 -29 5 -24 -25 7 -21 22 -24 28 -9 20 11 -6 27 -18 34 -27z m1538 -55
c0 -9 -3 -7 -8 5 -5 11 -8 29 -8 40 0 16 2 15 8 -5 4 -14 8 -32 8 -40z m-1144
-1 c-3 -5 -10 -7 -15 -3 -5 3 -7 10 -3 15 3 5 10 7 15 3 5 -3 7 -10 3 -15z
m146 -83 c0 -30 -15 -50 -31 -41 -9 6 -11 4 -6 -8 10 -27 -22 -8 -37 22 -15
31 -15 63 0 68 7 2 9 -8 6 -27 -3 -18 0 -30 7 -30 6 0 11 5 11 11 0 6 9 8 20
4 20 -6 28 9 10 20 -5 3 -10 14 -10 23 1 15 2 15 15 -2 8 -11 15 -29 15 -40z
m-775 -16 c3 -5 2 -10 -4 -10 -5 0 -13 5 -16 10 -3 6 -2 10 4 10 5 0 13 -4 16
-10z m-55 -10 c0 -5 -4 -10 -10 -10 -5 0 -10 5 -10 10 0 6 5 10 10 10 6 0 10
-4 10 -10z m130 -15 c7 -8 8 -15 2 -15 -5 0 -15 7 -22 15 -7 8 -8 15 -2 15 5
0 15 -7 22 -15z m-183 -20 c-15 -32 -26 -32 -19 0 2 14 10 25 17 25 10 0 11
-5 2 -25z m1847 -8 c4 -19 3 -26 -4 -22 -5 3 -10 18 -10 32 0 32 5 28 14 -10z
m-880 -12 c-6 -16 -24 -21 -24 -7 0 11 11 22 21 22 5 0 6 -7 3 -15z m846 -37
c0 -39 12 -68 24 -61 6 4 4 -1 -4 -11 -13 -17 -15 -16 -22 15 -5 19 -12 41
-18 50 -9 17 -4 29 12 29 4 0 8 -10 8 -22z m-1455 -7 c-3 -5 3 -12 12 -14 14
-4 13 -5 -4 -6 -23 -1 -30 9 -16 22 9 10 15 8 8 -2z m-255 -36 c27 -20 30 -26
17 -31 -22 -8 -22 -34 1 -35 12 0 13 -2 3 -6 -8 -3 -28 10 -48 33 -36 43 -39
50 -20 57 6 3 12 6 13 6 0 1 15 -10 34 -24z m1847 -82 c-3 -10 -5 -2 -5 17 0
19 2 27 5 18 2 -10 2 -26 0 -35z m-1551 5 l19 -21 -27 18 c-29 18 -34 25 -20
25 5 0 17 -10 28 -22z m-441 -8 c3 -5 2 -10 -4 -10 -5 0 -13 5 -16 10 -3 6 -2
10 4 10 5 0 13 -4 16 -10z m490 -28 c-3 -3 -11 0 -18 7 -9 10 -8 11 6 5 10 -3
15 -9 12 -12z m1455 -81 c0 -24 0 -24 -15 -5 -8 10 -14 33 -14 49 l0 30 14
-25 c8 -14 14 -36 15 -49z m-2690 -6 c5 -14 13 -25 17 -24 22 4 32 -3 39 -23
3 -13 13 -31 22 -41 25 -28 4 -32 -22 -4 -25 27 -60 28 -49 1 3 -8 2 -14 -2
-14 -11 0 -84 84 -85 97 0 19 19 26 35 13 8 -7 20 -10 27 -7 8 4 7 6 -4 6 -22
1 -24 21 -3 21 9 0 20 -11 25 -25z m-220 -115 c6 -11 10 -44 9 -73 -1 -51 6
-136 17 -189 3 -16 2 -28 -3 -28 -23 0 -33 29 -34 100 0 41 -3 105 -8 143 -7
68 -1 84 19 47z m163 -111 c31 -25 37 -27 37 -13 0 15 3 14 17 -6 9 -14 33
-40 53 -58 21 -20 28 -32 17 -28 -10 3 -25 6 -33 6 -8 0 -14 7 -14 16 0 9 -6
14 -12 12 -14 -5 -16 -4 -75 50 -64 57 -56 75 10 21z m904 20 c20 1 41 -7 60
-23 35 -30 22 -47 -19 -23 -34 20 -48 16 -28 -8 7 -8 8 -15 2 -15 -5 0 -12 7
-16 15 -3 8 -11 15 -18 15 -7 0 -22 13 -32 27 -19 26 -19 26 0 18 10 -4 33 -7
51 -6z m203 -39 c0 -5 -2 -10 -4 -10 -3 0 -8 5 -11 10 -3 6 -1 10 4 10 6 0 11
-4 11 -10z m-1123 -71 c2 -35 0 -39 -12 -29 -12 10 -15 9 -15 -3 0 -8 6 -17
14 -20 13 -5 28 -52 18 -61 -2 -3 -13 5 -22 17 -23 29 -31 127 -10 127 11 0
11 3 2 12 -7 7 -12 17 -12 22 0 6 8 3 17 -7 10 -9 18 -35 20 -58z m-207 29 c0
-16 -3 -19 -11 -11 -6 6 -8 16 -5 22 11 17 16 13 16 -11z m1251 -7 l24 -20
-28 3 c-15 1 -30 6 -34 9 -3 4 -14 7 -24 7 -33 0 -28 15 6 17 21 2 42 -4 56
-16z m77 0 c9 -5 33 -14 52 -19 31 -9 28 -10 -31 -8 -54 1 -65 4 -66 19 -2 19
17 22 45 8z m-1046 -41 c4 0 8 -9 8 -20 0 -26 -7 -25 -31 3 -24 29 -25 4 0
-31 24 -34 35 -113 16 -106 -23 9 -42 66 -44 133 l-2 63 22 -21 c13 -12 26
-21 31 -21z m2738 -56 c0 -47 -4 -83 -8 -80 -5 3 -8 15 -6 28 1 13 3 49 3 81
1 31 3 57 6 57 3 0 5 -39 5 -86z m-3036 51 c3 -8 1 -15 -4 -15 -6 0 -10 7 -10
15 0 8 2 15 4 15 2 0 6 -7 10 -15z m159 -72 c6 -38 0 -46 -24 -32 -14 7 -19
21 -19 57 0 46 0 46 19 27 11 -11 22 -34 24 -52z m252 33 c17 -16 29 -35 27
-43 -2 -7 4 -13 13 -13 8 0 15 -5 15 -11 0 -12 -4 -9 -69 39 -17 13 -31 19
-31 13 0 -5 10 -17 23 -26 22 -16 22 -16 -8 -9 -16 4 -35 7 -43 7 -15 0 -27
40 -18 62 9 24 57 14 91 -19z m1382 18 c-3 -3 -12 -4 -19 -1 -8 3 -5 6 6 6 11
1 17 -2 13 -5z m-1787 -55 c0 -19 5 -29 15 -29 8 0 15 -5 15 -11 0 -5 -4 -8
-9 -5 -4 3 -8 -17 -7 -44 1 -27 -2 -46 -6 -44 -4 3 -8 14 -8 24 0 10 -7 23
-15 28 -13 6 -14 19 -9 65 7 58 24 70 24 16z m506 -25 c-8 -22 -19 -12 -22 23
-3 24 -2 25 13 10 9 -9 13 -23 9 -33z m-419 14 c13 -18 17 -148 5 -148 -12 0
-27 84 -18 98 3 6 2 22 -4 36 -10 27 1 35 17 14z m141 -54 c-4 -3 -16 -3 -27
1 -14 4 -21 15 -21 33 l0 27 27 -27 c15 -15 24 -30 21 -34z m106 27 c3 -5 15
-7 26 -4 11 3 27 -1 36 -8 12 -10 17 -10 23 0 6 9 13 5 25 -14 l17 -26 -28 7
c-15 4 -39 12 -53 19 -14 7 -30 10 -36 8 -6 -2 -17 3 -24 12 -8 9 -8 15 -2 15
6 0 13 -4 16 -9z m-274 -28 c0 -19 -3 -24 -10 -17 -6 6 -8 18 -4 27 9 24 14
21 14 -10z m95 -93 c0 -75 -5 -94 -20 -70 -4 6 -8 49 -10 97 -4 82 -3 86 13
70 13 -14 17 -35 17 -97z m345 90 c0 -5 6 -7 13 -5 6 3 18 -4 25 -15 18 -30
-8 -27 -38 5 -13 14 -18 25 -12 25 7 0 12 -4 12 -10z m1496 -18 c-4 -3 -14 2
-24 12 -16 18 -16 18 6 6 13 -6 21 -14 18 -18z m-1404 1 c27 -32 31 -43 11
-36 -18 7 -42 32 -43 46 0 13 16 7 32 -10z m-362 -23 c0 -15 -5 -12 -26 11
-19 22 -19 22 4 10 12 -6 22 -16 22 -21z m114 11 c17 -19 17 -19 -3 -14 -12 3
-21 12 -21 19 0 18 4 18 24 -5z m312 -6 c15 -14 24 -28 21 -31 -8 -8 -56 28
-57 44 0 17 5 15 36 -13z m-261 5 c3 -5 11 -7 18 -5 7 3 18 1 26 -4 12 -8 12
-11 -1 -25 -14 -14 -18 -13 -42 9 -14 13 -26 27 -26 30 0 9 18 6 25 -5z m-107
-12 c7 -7 12 -23 12 -36 0 -21 -1 -22 -16 -8 -8 9 -20 16 -25 16 -5 0 -9 9 -9
20 0 22 20 26 38 8z m1762 -24 c0 -13 -31 0 -40 17 -11 20 -11 20 14 4 14 -10
26 -19 26 -21z m-1562 10 c6 3 18 -2 28 -11 19 -20 6 -28 -29 -19 -14 3 -23
14 -24 28 -2 16 0 19 6 9 5 -7 13 -11 19 -7z m-448 -75 c0 -8 -7 -5 -20 6 -11
10 -23 15 -27 11 -11 -10 12 -41 29 -40 8 1 15 -4 15 -11 0 -6 -14 -11 -34
-11 l-33 1 0 65 0 65 35 -37 c19 -20 35 -42 35 -49z m190 24 c0 -17 -4 -22
-12 -17 -10 6 -9 3 0 -8 14 -17 28 -118 17 -118 -4 0 -14 8 -23 17 -13 12 -17
37 -19 101 -1 82 -1 83 18 66 10 -9 19 -28 19 -41z m105 26 c-4 -5 -2 -9 4 -9
5 0 11 8 13 18 3 9 5 -13 6 -51 l2 -67 -20 20 c-22 22 -26 40 -10 40 6 0 10
-5 10 -12 0 -6 3 -8 7 -5 3 4 -1 15 -10 25 -16 18 -20 65 -5 56 5 -3 6 -10 3
-15z m95 -3 c11 -2 15 -16 16 -49 1 -34 -2 -44 -12 -40 -8 3 -14 9 -14 15 0 5
5 6 10 3 6 -3 10 -1 10 5 0 7 -7 9 -16 6 -8 -3 -22 1 -30 9 -12 12 -12 15 -2
16 10 0 10 2 1 6 -7 2 -13 14 -13 25 0 15 4 18 18 13 9 -4 24 -8 32 -9z m210
-1 c14 -16 10 -18 -14 -9 -9 3 -16 10 -16 15 0 14 16 11 30 -6z m1350 -4 c21
-12 27 -20 18 -24 -16 -6 -72 16 -82 32 -11 18 30 13 64 -8z m113 -10 c24 -18
44 -27 59 -24 17 3 33 -6 58 -33 34 -36 30 -37 -20 -4 -14 9 -37 20 -51 23
-14 4 -41 20 -60 37 -43 38 -33 39 14 1z m-1820 -38 c20 -31 23 -48 19 -94 -3
-49 -6 -56 -22 -52 -10 3 -19 12 -19 21 0 10 -2 50 -5 90 -3 39 -4 72 -1 72 3
0 15 -17 28 -37z m226 27 c10 0 51 -35 51 -44 0 -10 -35 -7 -47 5 -6 6 -16 8
-23 4 -7 -4 -3 -15 14 -32 31 -31 24 -49 -10 -27 -19 13 -24 25 -24 61 0 37 3
44 16 39 9 -3 19 -6 23 -6z m78 -10 c3 -11 11 -20 18 -20 7 0 15 -7 19 -15 12
-33 -43 -9 -68 30 -16 24 -16 25 5 25 12 0 23 -8 26 -20z m2014 10 c30 -17 22
-30 -11 -19 -16 6 -30 15 -30 20 0 12 17 11 41 -1z m-2501 -10 c0 -5 -4 -10
-10 -10 -5 0 -10 5 -10 10 0 6 5 10 10 10 6 0 10 -4 10 -10z m-35 -29 c3 -5 2
-12 -3 -15 -5 -3 -9 1 -9 9 0 17 3 19 12 6z m2253 -8 c12 -3 22 -10 22 -15 0
-5 11 -25 25 -45 13 -20 23 -39 21 -41 -2 -2 -28 19 -56 47 -29 28 -56 51 -61
51 -5 0 -9 5 -9 11 0 7 7 8 18 4 9 -4 27 -10 40 -12z m413 -3 c30 -25 14 -25
-31 0 -28 16 -31 19 -14 20 12 0 32 -9 45 -20z m-2631 -17 c-1 -24 -2 -26 -11
-10 -5 9 -7 22 -4 27 10 17 15 11 15 -17z m2023 -5 c17 -6 35 -25 44 -47 10
-20 19 -39 21 -43 2 -5 -7 -8 -20 -8 -21 0 -138 98 -138 115 0 8 54 -2 93 -17z
m263 1 l23 -21 -6 21 c-3 11 -1 21 5 21 14 0 52 -49 52 -66 0 -21 -16 -17 -29
9 l-12 22 5 -22 c2 -13 3 -23 2 -23 -1 0 -20 18 -41 40 -40 41 -39 57 1 19z
m94 11 c0 -5 32 -44 70 -87 77 -85 94 -120 29 -58 -25 24 -37 31 -31 19 6 -12
27 -33 46 -48 33 -27 93 -122 83 -132 -3 -3 6 -22 19 -41 34 -51 30 -73 -6
-28 -43 54 -72 103 -67 112 3 5 -12 25 -33 46 -37 39 -93 126 -71 113 6 -4 11
-2 11 3 0 6 -9 16 -20 23 -11 7 -20 18 -20 24 0 7 -11 19 -25 28 -30 20 -32
36 -5 36 11 0 20 -4 20 -10z m103 -71 c3 -11 2 -19 -1 -18 -11 0 -72 80 -72
92 0 16 67 -52 73 -74z m-2223 27 c0 -2 -9 -2 -20 1 -12 3 -20 14 -20 26 0 21
0 21 20 -1 11 -12 20 -23 20 -26z m60 29 c30 -16 42 -55 17 -55 -22 0 -57 31
-57 51 0 23 3 23 40 4z m-270 -16 c0 -6 -4 -7 -10 -4 -5 3 -10 11 -10 16 0 6
5 7 10 4 6 -3 10 -11 10 -16z m2555 -81 c21 -27 45 -54 54 -61 30 -22 62 -75
49 -79 -7 -3 -21 6 -32 20 -15 18 -21 21 -28 10 -7 -10 -8 -9 -6 4 2 10 -31
52 -84 106 -49 49 -88 92 -88 95 0 20 103 -52 135 -95z m91 75 c-7 -7 -26 7
-26 19 0 6 6 6 15 -2 9 -7 13 -15 11 -17z m-2786 -22 c0 -8 7 -23 17 -33 9
-10 13 -21 10 -24 -9 -10 -54 44 -59 70 -4 21 -3 23 14 13 10 -7 18 -18 18
-26z m554 13 c4 -10 1 -14 -6 -12 -15 5 -23 28 -10 28 5 0 13 -7 16 -16z
m1711 6 c4 -6 10 -8 14 -6 9 6 61 -41 61 -55 0 -15 -36 7 -44 27 -3 9 -12 14
-20 11 -8 -3 -22 3 -32 14 -15 17 -15 19 -1 19 9 0 19 -5 22 -10z m-1905 -42
c0 -5 -9 -3 -20 4 -11 7 -20 16 -20 20 0 5 9 3 20 -4 11 -7 20 -16 20 -20z
m134 7 c-6 -15 -34 -9 -34 7 0 5 5 6 10 3 6 -3 10 -1 10 5 0 6 4 9 10 5 5 -3
7 -12 4 -20z m-404 -1 c0 -8 -4 -12 -10 -9 -5 3 -10 10 -10 16 0 5 5 9 10 9 6
0 10 -7 10 -16z m337 -40 c-9 -9 -57 20 -57 33 0 11 8 9 31 -7 16 -12 28 -24
26 -26z m1783 4 c-1 -8 -6 -6 -15 6 -20 26 -19 42 0 22 8 -8 15 -21 15 -28z
m17 20 c-3 -8 -6 -5 -6 6 -1 11 2 17 5 13 3 -3 4 -12 1 -19z m652 -53 c17 -33
31 -61 31 -62 0 -2 -18 14 -40 34 -37 36 -58 70 -25 43 12 -10 15 -10 15 3 0
8 -7 20 -15 27 -8 7 -15 17 -15 23 0 18 17 -4 49 -68z m-2535 46 c19 -21 14
-43 -8 -35 -14 6 -29 54 -16 54 4 0 15 -9 24 -19z m2109 7 c49 -52 84 -118 64
-119 -7 0 -20 -2 -30 -4 -15 -3 -18 2 -16 28 3 53 0 65 -21 72 -11 4 -18 10
-15 15 3 5 -1 11 -7 13 -10 4 -10 6 0 6 7 1 19 -5 25 -11z m230 -108 c26 -34
47 -69 47 -77 0 -8 5 -11 12 -7 6 4 8 3 4 -4 -3 -6 -1 -14 5 -17 5 -4 8 -13 5
-21 -3 -9 0 -11 11 -7 12 5 14 1 8 -15 -4 -14 -2 -22 5 -22 6 0 8 5 4 13 -6 9
-3 8 8 -1 9 -8 14 -21 11 -30 -3 -12 -2 -13 4 -4 7 10 14 8 28 -8 18 -20 18
-21 -1 -14 -15 5 -14 2 7 -21 23 -23 30 -25 45 -15 17 10 17 11 1 6 -10 -3
-15 -2 -12 4 6 10 -42 87 -69 109 -20 16 -21 60 -2 67 8 3 35 -16 63 -43 40
-39 50 -55 51 -83 l1 -34 -25 32 c-14 18 -30 32 -36 32 -5 0 4 -18 21 -39 18
-22 29 -46 25 -54 -3 -8 -1 -18 4 -21 6 -3 8 -14 5 -24 -5 -21 -67 -29 -79
-11 -5 8 -8 8 -13 0 -4 -6 -32 -8 -78 -4 -70 6 -72 7 -79 35 -3 17 -15 50 -26
75 -11 24 -18 49 -15 56 3 11 97 -100 97 -115 0 -5 7 -8 15 -8 8 0 15 5 15 12
0 6 7 3 15 -8 8 -10 15 -14 15 -7 0 14 -40 44 -51 37 -4 -2 -11 1 -15 7 -4 8
-3 9 5 5 23 -14 7 58 -21 98 -31 43 -36 61 -14 53 11 -4 11 -1 2 18 -6 13 -15
23 -19 22 -5 -1 -16 9 -25 23 l-16 25 22 -19 c35 -30 26 -5 -18 48 -22 26 -40
55 -40 64 0 11 8 6 23 -14 12 -17 43 -59 70 -94z m64 88 c34 -38 106 -141 96
-137 -11 5 -133 145 -133 153 0 13 18 5 37 -16z m-2231 -9 c3 -5 1 -9 -4 -9
-6 0 -8 -9 -5 -20 7 -27 1 -25 -28 7 -20 22 -21 25 -5 19 16 -5 17 -4 7 8 -10
12 -9 13 9 9 11 -3 23 -9 26 -14z m1805 -25 c5 -1 14 -2 19 -3 6 0 10 -6 10
-13 0 -6 6 -19 14 -27 16 -19 56 -124 56 -148 0 -13 -3 -13 -15 -3 -8 7 -15
18 -15 24 -1 23 -59 131 -60 111 -1 -15 -3 -16 -7 -5 -3 8 -14 26 -23 40 -10
14 -21 36 -25 50 l-7 25 22 -25 c12 -14 26 -26 31 -26z m-2091 16 c0 -5 -2
-10 -4 -10 -3 0 -8 5 -11 10 -3 6 -1 10 4 10 6 0 11 -4 11 -10z m200 -20 c0
-4 -11 -5 -25 -2 -14 2 -25 10 -25 18 0 11 5 11 25 2 14 -6 25 -14 25 -18z
m-434 3 c1 -10 5 -26 9 -37 7 -16 6 -17 -13 -7 -14 7 -22 21 -22 36 0 28 25
35 26 8z m584 -4 c0 -5 -4 -9 -8 -9 -5 0 -9 7 -9 15 0 8 4 12 9 9 4 -3 8 -9 8
-15z m140 -10 c0 -4 16 -13 36 -19 19 -7 40 -20 47 -31 6 -10 20 -19 29 -19
19 0 24 -15 9 -24 -16 -10 -61 12 -55 27 4 10 -5 17 -29 21 -19 4 -40 13 -47
21 -7 8 -18 15 -24 15 -7 0 -12 9 -13 19 -2 18 1 19 23 9 13 -6 24 -15 24 -19z
m1734 15 c4 -10 1 -14 -6 -12 -15 5 -23 28 -10 28 5 0 13 -7 16 -16z m-1794
-41 c0 -2 -4 -2 -9 1 -5 3 -12 -2 -16 -12 -6 -15 -8 -14 -20 8 -7 14 -11 28
-9 32 5 7 54 -19 54 -29z m-590 17 c0 -5 -2 -10 -4 -10 -3 0 -8 5 -11 10 -3 6
-1 10 4 10 6 0 11 -4 11 -10z m280 -6 c0 -2 -7 -4 -15 -4 -8 0 -15 4 -15 10 0
5 7 7 15 4 8 -4 15 -8 15 -10z m211 2 c5 3 9 0 9 -5 0 -13 -27 -15 -34 -2 -3
4 -2 11 2 15 3 4 8 2 10 -3 2 -6 8 -9 13 -5z m2323 -37 c25 -28 46 -60 46 -71
0 -16 -3 -18 -14 -9 -8 7 -16 8 -18 4 -3 -4 -3 -2 -1 6 3 14 -34 81 -45 81 -4
0 -13 9 -20 20 -23 38 6 20 52 -31z m-2797 19 c-3 -8 -6 -5 -6 6 -1 11 2 17 5
13 3 -3 4 -12 1 -19z m56 -37 c-1 -2 -12 4 -24 15 -19 17 -19 19 -2 25 13 4
20 0 24 -15 3 -11 4 -23 2 -25z m287 19 c0 -4 -11 -5 -25 -2 -14 2 -25 10 -25
18 0 11 5 11 25 2 14 -6 25 -14 25 -18z m-150 10 c0 -5 -4 -10 -10 -10 -5 0
-10 5 -10 10 0 6 5 10 10 10 6 0 10 -4 10 -10z m230 -12 c0 -6 -7 -8 -14 -5
-10 4 -13 1 -9 -9 3 -7 0 -14 -6 -14 -6 0 -11 11 -11 24 0 19 4 23 20 19 11
-3 20 -10 20 -15z m-330 -24 c0 -8 -4 -12 -10 -9 -5 3 -10 10 -10 16 0 5 5 9
10 9 6 0 10 -7 10 -16z m2384 -1 c4 -11 1 -11 -14 -3 -24 13 -25 17 -5 17 8 0
16 -6 19 -14z m-2139 -3 c3 -5 -3 -10 -14 -10 -11 0 -23 5 -26 10 -3 6 3 10
14 10 11 0 23 -4 26 -10z m180 1 c3 -5 1 -12 -5 -16 -5 -3 -10 1 -10 9 0 18 6
21 15 7z m49 -7 c9 -3 16 -15 16 -25 0 -20 -15 -26 -25 -9 -4 6 -11 8 -16 5
-5 -4 -9 3 -9 14 0 22 8 25 34 15z m-519 -14 c3 -5 2 -10 -4 -10 -5 0 -13 5
-16 10 -3 6 -2 10 4 10 5 0 13 -4 16 -10z m350 0 c3 -5 1 -10 -4 -10 -6 0 -11
5 -11 10 0 6 2 10 4 10 3 0 8 -4 11 -10z m2095 -60 c18 -25 80 -163 80 -177 0
-3 -7 -3 -15 1 -8 3 -15 1 -15 -3 0 -5 -8 -7 -17 -4 -11 2 -27 29 -40 62 -30
75 -29 84 2 39 14 -20 25 -42 25 -47 0 -6 5 -11 10 -11 13 0 -2 31 -37 76 -12
17 -23 34 -23 37 0 3 -11 23 -25 43 -14 20 -25 41 -25 46 0 15 57 -30 80 -62z
m-2600 34 c0 -8 -4 -14 -10 -14 -5 0 -10 9 -10 21 0 11 5 17 10 14 6 -3 10
-13 10 -21z m250 6 c0 -5 -4 -10 -9 -10 -6 0 -13 5 -16 10 -3 6 1 10 9 10 9 0
16 -4 16 -10z m47 -12 c-3 -8 -6 -5 -6 6 -1 11 2 17 5 13 3 -3 4 -12 1 -19z
m518 1 c17 -7 38 -13 48 -14 10 -2 26 -10 35 -19 15 -15 14 -16 -14 -16 -35 0
-133 27 -151 42 -38 31 15 35 82 7z m-477 -12 c2 -12 -1 -15 -12 -11 -19 7
-22 38 -3 32 6 -3 13 -12 15 -21z m-138 -2 c7 -9 8 -15 2 -15 -5 0 -12 7 -16
15 -3 8 -4 15 -2 15 2 0 9 -7 16 -15z m170 -16 c0 -6 -4 -7 -10 -4 -5 3 -10
11 -10 16 0 6 5 7 10 4 6 -3 10 -11 10 -16z m70 -15 c0 -20 -7 -17 -20 6 -9
16 -8 18 5 14 8 -4 15 -12 15 -20z m589 -4 c11 0 21 -4 21 -10 0 -13 -46 -13
-71 0 -16 9 -17 13 -7 25 11 12 15 12 24 -1 6 -8 21 -14 33 -14z m-1029 4 c0
-8 -4 -12 -10 -9 -5 3 -10 10 -10 16 0 5 5 9 10 9 6 0 10 -7 10 -16z m80 1
c20 -24 6 -28 -15 -5 -10 11 -13 20 -8 20 6 0 16 -7 23 -15z m450 5 c0 -5 -7
-10 -15 -10 -8 0 -15 5 -15 10 0 6 7 10 15 10 8 0 15 -4 15 -10z m60 -25 c0
-28 -15 -34 -24 -9 -10 25 -7 34 9 34 9 0 15 -9 15 -25z m-463 -7 c-3 -8 -6
-5 -6 6 -1 11 2 17 5 13 3 -3 4 -12 1 -19z m240 0 c-3 -8 -6 -5 -6 6 -1 11 2
17 5 13 3 -3 4 -12 1 -19z m108 12 c3 -5 1 -10 -4 -10 -6 0 -11 5 -11 10 0 6
2 10 4 10 3 0 8 -4 11 -10z m155 -16 c0 -31 -23 -28 -28 4 -2 15 2 22 12 22
11 0 16 -9 16 -26z m50 -9 c0 -28 -24 -34 -34 -9 -10 26 -7 34 14 34 15 0 20
-7 20 -25z m-464 -8 c1 -9 -2 -14 -7 -11 -6 3 -16 0 -24 -6 -11 -9 -15 -9 -15
-1 0 6 5 11 10 11 6 0 10 7 10 16 0 21 23 13 26 -9z m127 -1 c3 -6 -4 -13 -14
-13 -13 -1 -19 5 -19 17 0 21 25 18 33 -4z m370 4 c3 -11 1 -23 -4 -26 -5 -3
-9 6 -9 20 0 31 6 34 13 6z m52 -10 c0 -36 -29 -33 -33 3 -3 23 0 28 15 25 12
-2 18 -12 18 -28z m1628 13 c22 -13 0 -23 -48 -23 -41 0 -55 4 -55 14 0 22 69
28 103 9z m-1903 -3 c0 -5 -2 -10 -4 -10 -3 0 -8 5 -11 10 -3 6 -1 10 4 10 6
0 11 -4 11 -10z m513 -20 c4 -14 1 -17 -12 -12 -16 6 -41 27 -41 35 0 13 49
-8 53 -23z m97 18 c0 -7 -13 -13 -30 -14 -19 -1 -30 4 -30 12 0 9 11 14 30 14
17 0 30 -5 30 -12z m713 2 c15 0 27 -4 27 -9 0 -5 -28 -8 -62 -6 -100 3 -109
5 -104 13 3 5 29 7 58 6 29 -2 65 -3 81 -4z m-944 -43 c-5 -7 -16 -21 -23 -32
-13 -18 -15 -17 -30 20 -14 32 -19 37 -27 25 -9 -13 -10 -13 -7 0 6 21 49 29
75 12 15 -9 19 -17 12 -25z m-729 23 c0 -5 -2 -10 -4 -10 -3 0 -8 5 -11 10 -3
6 -1 10 4 10 6 0 11 -4 11 -10z m107 -22 c-3 -8 -6 -5 -6 6 -1 11 2 17 5 13 3
-3 4 -12 1 -19z m428 2 c3 -5 2 -10 -4 -10 -5 0 -13 5 -16 10 -3 6 -2 10 4 10
5 0 13 -4 16 -10z m-530 -10 c3 -5 -1 -10 -9 -10 -9 0 -16 5 -16 10 0 6 4 10
9 10 6 0 13 -4 16 -10z m45 -16 c0 -8 -4 -12 -10 -9 -5 3 -10 13 -10 21 0 8 5
12 10 9 6 -3 10 -13 10 -21z m134 10 c3 -8 2 -12 -4 -9 -6 3 -10 10 -10 16 0
14 7 11 14 -7z m386 6 c0 -5 -2 -10 -4 -10 -3 0 -8 5 -11 10 -3 6 -1 10 4 10
6 0 11 -4 11 -10z m85 -20 c3 -5 -1 -10 -9 -10 -9 0 -16 5 -16 10 0 6 4 10 9
10 6 0 13 -4 16 -10z m-65 -38 c-1 -15 -2 -15 -11 2 -9 15 -13 16 -20 5 -6
-10 -9 -8 -9 9 0 20 3 21 20 12 11 -6 20 -18 20 -28z m373 21 c26 -9 47 -20
47 -24 0 -12 -96 -7 -114 6 -18 14 -14 35 7 35 7 0 33 -8 60 -17z m-203 -3
c13 -8 13 -10 -2 -10 -9 0 -20 5 -23 10 -8 13 5 13 25 0z m-220 -10 c0 -5 -4
-10 -10 -10 -5 0 -10 5 -10 10 0 6 5 10 10 10 6 0 10 -4 10 -10z m116 -5 c18
-14 17 -14 -13 -15 -31 0 -41 9 -26 23 10 10 17 9 39 -8z m170 0 c10 -8 14
-15 7 -15 -19 0 -43 11 -43 21 0 13 14 11 36 -6z m-131 -5 c3 -5 1 -10 -4 -10
-6 0 -11 5 -11 10 0 6 2 10 4 10 3 0 8 -4 11 -10z m80 -10 c4 -6 -6 -10 -24
-10 -16 0 -33 5 -36 10 -4 6 6 10 24 10 16 0 33 -4 36 -10z"/>
<path d="M867 3520 c3 -10 13 -22 22 -25 9 -3 36 -31 61 -61 25 -29 55 -61 68
-70 l23 -15 -17 26 c-9 14 -22 29 -28 33 -6 4 -29 27 -51 52 -21 25 -49 53
-61 62 -21 17 -22 17 -17 -2z"/>
<path d="M800 3510 c0 -13 28 -25 38 -16 3 4 0 11 -8 16 -20 13 -30 12 -30 0z"/>
<path d="M867 3690 c3 -11 9 -20 15 -20 5 0 4 9 -2 20 -6 11 -12 20 -14 20 -2
0 -2 -9 1 -20z"/>
<path d="M930 3669 c0 -12 119 -152 149 -177 9 -7 68 -64 132 -127 63 -63 120
-115 126 -115 6 0 13 9 16 20 4 14 0 20 -11 20 -10 0 -40 22 -69 48 -28 26
-62 56 -75 67 -35 31 -78 83 -78 95 0 5 -6 10 -13 10 -15 0 -81 69 -81 86 -1
13 -75 84 -88 84 -4 0 -8 -5 -8 -11z"/>
<path d="M895 3640 c3 -5 8 -10 11 -10 2 0 4 5 4 10 0 6 -5 10 -11 10 -5 0 -7
-4 -4 -10z"/>
<path d="M1470 3638 c0 -11 38 -10 44 1 3 5 -5 8 -19 7 -14 0 -25 -4 -25 -8z"/>
<path d="M2186 3622 c-2 -4 9 -23 26 -42 16 -19 27 -27 24 -18 -3 10 0 20 6
24 7 4 2 14 -13 25 -26 20 -35 23 -43 11z"/>
<path d="M930 3604 c0 -15 27 -50 34 -43 4 3 -2 17 -13 30 -11 13 -20 19 -21
13z"/>
<path d="M1852 3598 c6 -17 36 -34 45 -24 4 4 -1 14 -11 22 -24 17 -39 18 -34
2z"/>
<path d="M2387 3597 c-3 -9 5 -32 19 -52 13 -20 24 -38 24 -41 0 -9 62 -58 82
-66 16 -6 17 -4 11 20 -8 32 -29 56 -42 48 -5 -4 -15 7 -23 24 -7 16 -18 30
-25 30 -7 0 -19 12 -26 26 -11 21 -15 23 -20 11z"/>
<path d="M1990 3576 c7 -7 13 -7 20 0 6 6 3 10 -10 10 -13 0 -16 -4 -10 -10z"/>
<path d="M1958 3554 c15 -29 65 -61 70 -46 2 8 14 10 30 6 l27 -7 -28 27 c-31
28 -43 32 -49 14 -3 -7 -13 -5 -33 8 -28 18 -28 18 -17 -2z"/>
<path d="M1900 3550 c0 -9 41 -30 58 -30 9 1 -41 39 -50 40 -5 0 -8 -5 -8 -10z"/>
<path d="M2572 3405 c0 -16 2 -22 5 -12 2 9 2 23 0 30 -3 6 -5 -1 -5 -18z"/>
<path d="M2110 3411 c0 -5 7 -11 14 -14 10 -4 13 -1 9 9 -6 15 -23 19 -23 5z"/>
<path d="M2420 3404 c0 -9 10 -25 22 -35 26 -23 23 -23 25 0 1 11 -9 27 -23
36 -22 14 -24 14 -24 -1z"/>
<path d="M2011 3380 c12 -16 29 -32 38 -35 9 -3 0 10 -18 29 -42 44 -49 46
-20 6z"/>
<path d="M2270 3375 c0 -28 32 -96 50 -105 27 -15 20 26 -15 78 -30 46 -35 50
-35 27z m38 -70 c-3 -3 -9 2 -12 12 -6 14 -5 15 5 6 7 -7 10 -15 7 -18z"/>
<path d="M1630 3360 c0 -5 5 -10 11 -10 5 0 7 5 4 10 -3 6 -8 10 -11 10 -2 0
-4 -4 -4 -10z"/>
<path d="M2075 3360 c3 -5 8 -10 11 -10 2 0 4 5 4 10 0 6 -5 10 -11 10 -5 0
-7 -4 -4 -10z"/>
<path d="M2508 3330 c-7 -24 -3 -38 8 -28 3 4 4 17 2 30 l-3 23 -7 -25z"/>
<path d="M1940 3331 c0 -11 50 -44 57 -37 8 8 -7 26 -23 26 -8 0 -14 5 -14 10
0 6 -4 10 -10 10 -5 0 -10 -4 -10 -9z"/>
<path d="M2200 3330 c0 -5 5 -10 10 -10 6 0 10 5 10 10 0 6 -4 10 -10 10 -5 0
-10 -4 -10 -10z"/>
<path d="M1900 3316 c0 -2 8 -10 18 -17 15 -13 16 -12 3 4 -13 16 -21 21 -21
13z"/>
<path d="M2080 3310 c0 -5 5 -10 11 -10 6 0 18 -7 26 -16 13 -13 17 -13 24 -2
6 9 3 14 -9 16 -9 2 -21 8 -26 13 -13 12 -26 11 -26 -1z"/>
<path d="M2255 3267 c11 -35 25 -44 25 -15 0 14 -7 29 -16 32 -12 5 -14 1 -9
-17z"/>
<path d="M1890 3276 c0 -9 65 -66 74 -66 12 0 -33 49 -56 61 -10 5 -18 8 -18
5z"/>
<path d="M2376 3204 c26 -33 35 -38 63 -34 9 1 12 -4 7 -15 -3 -10 -2 -14 5
-10 6 4 8 13 5 20 -2 7 0 17 6 23 8 8 5 9 -9 6 -14 -4 -27 2 -39 18 -11 13
-29 24 -42 25 l-22 2 26 -35z"/>
<path d="M2220 3212 c0 -16 43 -77 67 -95 21 -16 22 -16 20 3 -1 11 -7 20 -14
20 -7 0 -21 17 -30 37 -17 35 -43 56 -43 35z"/>
<path d="M2310 3209 c0 -6 11 -22 25 -35 25 -23 36 -19 13 5 -7 6 -13 17 -13
23 0 6 -6 13 -12 16 -7 2 -13 -2 -13 -9z"/>
<path d="M1730 3206 c0 -2 8 -10 18 -17 15 -13 16 -12 3 4 -13 16 -21 21 -21
13z"/>
<path d="M1865 3160 c3 -5 8 -10 11 -10 2 0 4 5 4 10 0 6 -5 10 -11 10 -5 0
-7 -4 -4 -10z"/>
<path d="M2215 3140 c-7 -11 11 -40 25 -40 10 0 1 38 -11 45 -4 3 -11 1 -14
-5z"/>
<path d="M2387 3113 c12 -35 91 -129 100 -119 7 6 -74 118 -92 129 -11 6 -13
3 -8 -10z"/>
<path d="M2584 3099 c0 -10 6 -19 13 -19 7 0 13 4 13 9 0 5 -6 13 -13 19 -10
8 -13 6 -13 -9z"/>
<path d="M2746 3105 c4 -8 8 -15 10 -15 2 0 4 7 4 15 0 8 -4 15 -10 15 -5 0
-7 -7 -4 -15z"/>
<path d="M2120 3063 c0 -10 16 -31 36 -47 19 -15 43 -40 52 -56 9 -15 31 -39
48 -53 l31 -26 -5 24 c-2 15 0 25 7 25 27 0 7 18 -26 24 -28 4 -45 15 -63 42
-64 90 -80 104 -80 67z"/>
<path d="M1692 3041 c13 -17 29 -30 37 -30 9 -1 4 10 -14 29 -37 39 -54 39
-23 1z"/>
<path d="M2200 3050 c0 -5 5 -10 11 -10 5 0 7 5 4 10 -3 6 -8 10 -11 10 -2 0
-4 -4 -4 -10z"/>
<path d="M2010 3010 c0 -5 5 -10 10 -10 6 0 10 5 10 10 0 6 -4 10 -10 10 -5 0
-10 -4 -10 -10z"/>
<path d="M1680 3000 c0 -5 5 -10 11 -10 5 0 7 5 4 10 -3 6 -8 10 -11 10 -2 0
-4 -4 -4 -10z"/>
<path d="M2127 2983 c3 -10 28 -40 55 -67 26 -27 48 -53 48 -57 0 -5 5 -9 10
-9 19 0 10 18 -30 61 -22 24 -40 47 -40 52 0 10 -30 36 -42 37 -4 0 -5 -8 -1
-17z"/>
<path d="M1602 2978 c2 -6 10 -14 16 -16 7 -2 10 2 6 12 -7 18 -28 22 -22 4z"/>
<path d="M1840 2975 c0 -8 9 -19 20 -25 11 -6 20 -7 20 -3 0 5 -9 16 -20 26
-16 14 -20 14 -20 2z"/>
<path d="M1915 2980 c3 -5 8 -10 11 -10 2 0 4 5 4 10 0 6 -5 10 -11 10 -5 0
-7 -4 -4 -10z"/>
<path d="M1900 2950 c0 -5 5 -10 10 -10 6 0 10 5 10 10 0 6 -4 10 -10 10 -5 0
-10 -4 -10 -10z"/>
<path d="M2010 2934 c0 -17 78 -114 92 -114 15 0 8 29 -10 42 -9 7 -26 30 -37
51 -20 38 -45 50 -45 21z"/>
<path d="M2090 2933 c0 -14 33 -50 74 -83 18 -14 19 -14 6 10 -7 14 -22 35
-34 48 -11 13 -19 26 -16 29 3 4 -3 7 -12 9 -10 1 -18 -4 -18 -13z"/>
<path d="M2630 2941 c0 -5 7 -12 16 -15 14 -5 15 -4 4 9 -14 17 -20 19 -20 6z"/>
<path d="M1926 2871 c-4 -5 10 -27 29 -48 l35 -38 -20 42 c-22 45 -35 59 -44
44z"/>
<path d="M1990 2866 c0 -14 100 -119 108 -112 2 3 -10 22 -27 43 -17 21 -31
43 -31 49 0 6 -11 16 -25 22 -20 9 -25 9 -25 -2z"/>
<path d="M2830 2855 c7 -9 15 -13 17 -11 7 7 -7 26 -19 26 -6 0 -6 -6 2 -15z"/>
<path d="M2460 2826 c0 -7 21 -34 48 -59 26 -25 56 -55 66 -66 11 -12 22 -19
25 -16 2 3 -1 11 -7 17 -15 15 -16 31 -1 22 7 -4 10 -1 7 7 -3 8 -13 13 -22
13 -9 -1 -16 2 -16 7 0 5 -6 9 -14 9 -8 0 -24 15 -35 34 -23 36 -51 54 -51 32z"/>
<path d="M2886 2814 c-9 -23 10 -42 26 -26 10 10 9 16 -4 28 -14 14 -16 14
-22 -2z"/>
<path d="M1890 2809 c0 -17 47 -66 56 -57 3 4 -8 21 -25 40 -20 22 -31 28 -31
17z"/>
<path d="M2004 2786 c4 -36 17 -52 27 -33 11 18 3 43 -16 51 -9 3 -12 -3 -11
-18z"/>
<path d="M2790 2777 c0 -18 28 -42 37 -33 4 3 -3 15 -15 26 -16 15 -22 17 -22
7z"/>
<path d="M1960 2731 c0 -5 5 -13 10 -16 6 -3 10 -2 10 4 0 5 -4 13 -10 16 -5
3 -10 2 -10 -4z"/>
<path d="M2676 2707 c3 -10 9 -15 12 -12 3 3 0 11 -7 18 -10 9 -11 8 -5 -6z"/>
<path d="M2816 2705 c4 -8 10 -12 15 -9 11 6 2 24 -11 24 -5 0 -7 -7 -4 -15z"/>
<path d="M1930 2643 c0 -12 47 -53 61 -53 5 0 9 9 9 20 0 14 -7 20 -23 20 -13
0 -28 5 -35 12 -8 8 -12 9 -12 1z"/>
<path d="M2875 2590 c3 -5 8 -10 11 -10 2 0 4 5 4 10 0 6 -5 10 -11 10 -5 0
-7 -4 -4 -10z"/>
<path d="M2720 2586 c0 -2 7 -9 15 -16 13 -11 14 -10 9 4 -5 14 -24 23 -24 12z"/>
<path d="M2910 2563 c0 -7 4 -14 10 -18 5 -3 7 -12 3 -20 -6 -17 12 -20 23 -4
3 6 -3 21 -15 32 -11 12 -21 16 -21 10z"/>
<path d="M2670 2496 c0 -2 7 -9 15 -16 13 -11 14 -10 9 4 -5 14 -24 23 -24 12z"/>
<path d="M2787 2480 c6 -22 23 -38 23 -21 0 17 -12 41 -20 41 -5 0 -6 -9 -3
-20z"/>
<path d="M2720 2482 c0 -5 7 -15 15 -22 8 -7 15 -8 15 -2 0 5 -7 15 -15 22 -8
7 -15 8 -15 2z"/>
<path d="M2520 2420 c0 -5 5 -10 11 -10 5 0 7 5 4 10 -3 6 -8 10 -11 10 -2 0
-4 -4 -4 -10z"/>
<path d="M2550 2421 c0 -5 7 -14 15 -21 16 -14 18 -10 9 14 -6 17 -24 22 -24
7z"/>
<path d="M2780 2422 c0 -6 5 -14 10 -17 6 -3 10 -11 10 -17 0 -6 -11 -1 -25
12 -14 13 -25 19 -25 13 0 -14 25 -34 46 -37 10 -2 20 -9 23 -17 6 -15 31 -24
31 -11 0 4 -16 25 -35 46 -19 22 -35 35 -35 28z"/>
<path d="M2640 2381 c0 -6 9 -15 20 -21 13 -7 20 -7 20 -1 0 6 -9 15 -20 21
-13 7 -20 7 -20 1z"/>
<path d="M2755 2360 c-3 -5 -2 -10 4 -10 5 0 13 -9 16 -20 6 -20 42 -46 52
-37 2 3 -11 21 -31 41 -19 21 -37 32 -41 26z"/>
<path d="M2560 2356 c0 -2 7 -9 15 -16 13 -11 14 -10 9 4 -5 14 -24 23 -24 12z"/>
<path d="M2701 2324 c0 -11 3 -14 6 -6 3 7 2 16 -1 19 -3 4 -6 -2 -5 -13z"/>
<path d="M2870 2242 c0 -5 7 -15 15 -22 8 -7 15 -8 15 -2 0 5 -7 15 -15 22 -8
7 -15 8 -15 2z"/>
<path d="M2867 2150 c3 -11 9 -20 14 -20 11 0 11 3 3 24 -9 23 -23 20 -17 -4z"/>
<path d="M2939 2148 c9 -24 41 -38 41 -18 0 7 -7 10 -15 6 -10 -4 -15 1 -15
14 0 11 -4 20 -10 20 -6 0 -6 -9 -1 -22z"/>
<path d="M2950 2092 c0 -5 7 -13 16 -16 10 -4 14 -1 12 6 -5 15 -28 23 -28 10z"/>
<path d="M2991 2054 c0 -11 3 -14 6 -6 3 7 2 16 -1 19 -3 4 -6 -2 -5 -13z"/>
<path d="M2920 2026 c0 -2 7 -9 15 -16 9 -7 15 -8 15 -2 0 5 -7 12 -15 16 -8
3 -15 4 -15 2z"/>
<path d="M580 3529 c0 -12 21 -31 55 -51 19 -10 19 -10 5 7 -14 17 -13 18 13
13 31 -6 33 -3 10 20 -12 12 -18 13 -21 4 -5 -17 -31 -15 -38 3 -7 18 -24 20
-24 4z"/>
<path d="M696 3465 c4 -9 16 -21 28 -27 19 -10 19 -9 -3 16 -28 30 -33 32 -25
11z"/>
<path d="M543 3385 c5 -6 32 -37 60 -69 29 -33 68 -76 87 -97 19 -20 61 -64
93 -99 33 -34 62 -58 65 -54 4 4 1 9 -5 11 -20 7 -15 23 7 23 11 0 20 -4 20
-9 0 -5 14 -20 31 -32 l31 -22 -13 22 c-8 11 -17 21 -21 21 -5 0 -8 5 -8 11 0
7 10 9 25 7 21 -4 23 -3 14 9 -7 7 -19 11 -28 8 -10 -3 -26 2 -37 10 -22 17
-38 20 -29 5 8 -13 2 -13 -29 4 -28 14 -116 104 -116 118 0 5 -7 8 -15 8 -8 0
-15 4 -15 8 0 10 -75 90 -105 112 -11 8 -16 10 -12 5z"/>
<path d="M615 3360 c21 -24 26 -25 19 -6 -3 8 -13 17 -22 21 -13 5 -13 2 3
-15z"/>
<path d="M690 3371 c0 -5 7 -12 16 -15 14 -5 15 -4 4 9 -14 17 -20 19 -20 6z"/>
<path d="M746 3316 c6 -17 34 -30 34 -16 0 5 -9 14 -20 20 -16 8 -18 8 -14 -4z"/>
<path d="M440 3291 c0 -5 5 -13 10 -16 6 -3 10 -2 10 4 0 5 -4 13 -10 16 -5 3
-10 2 -10 -4z"/>
<path d="M540 3281 c0 -5 6 -14 14 -21 8 -6 14 -17 12 -23 -1 -7 -1 -9 1 -5 2
4 12 4 21 1 11 -4 6 6 -12 25 -32 34 -36 37 -36 23z"/>
<path d="M700 3270 c0 -5 5 -10 11 -10 5 0 7 5 4 10 -3 6 -8 10 -11 10 -2 0
-4 -4 -4 -10z"/>
<path d="M480 3245 c7 -9 15 -13 17 -11 7 7 -7 26 -19 26 -6 0 -6 -6 2 -15z"/>
<path d="M785 3230 c10 -11 20 -18 23 -16 5 6 -23 36 -34 36 -4 0 1 -9 11 -20z"/>
<path d="M730 3235 c0 -2 10 -10 23 -16 20 -11 21 -11 8 4 -13 16 -31 23 -31
12z"/>
<path d="M540 3185 c19 -20 36 -31 38 -26 4 11 -47 60 -62 61 -6 0 6 -16 24
-35z"/>
<path d="M910 3195 c13 -14 26 -25 28 -25 3 0 -5 11 -18 25 -13 14 -26 25 -28
25 -3 0 5 -11 18 -25z"/>
<path d="M615 3200 c3 -5 8 -10 11 -10 2 0 4 5 4 10 0 6 -5 10 -11 10 -5 0 -7
-4 -4 -10z"/>
<path d="M640 3176 c0 -2 7 -9 15 -16 13 -11 14 -10 9 4 -5 14 -24 23 -24 12z"/>
<path d="M302 3133 c21 -20 40 -34 43 -31 8 7 -53 68 -68 68 -6 0 5 -17 25
-37z"/>
<path d="M965 3140 c10 -11 20 -20 22 -20 2 0 -2 9 -9 20 -7 11 -17 20 -22 20
-5 0 -1 -9 9 -20z"/>
<path d="M360 3080 c0 -5 5 -10 10 -10 6 0 10 5 10 10 0 6 -4 10 -10 10 -5 0
-10 -4 -10 -10z"/>
<path d="M280 3071 c0 -6 5 -13 10 -16 6 -3 10 1 10 9 0 9 -4 16 -10 16 -5 0
-10 -4 -10 -9z"/>
<path d="M390 3060 c0 -17 119 -144 127 -136 9 9 -6 38 -17 31 -5 -3 -10 -1
-10 5 0 5 -22 34 -50 63 -28 29 -50 45 -50 37z"/>
<path d="M750 3062 c0 -12 19 -26 26 -19 2 2 -2 10 -11 17 -9 8 -15 8 -15 2z"/>
<path d="M1065 3040 c3 -5 8 -10 11 -10 2 0 4 5 4 10 0 6 -5 10 -11 10 -5 0
-7 -4 -4 -10z"/>
<path d="M315 3030 c3 -5 8 -10 11 -10 2 0 4 5 4 10 0 6 -5 10 -11 10 -5 0 -7
-4 -4 -10z"/>
<path d="M646 3008 c10 -14 21 -24 23 -22 3 3 -6 15 -18 27 l-24 22 19 -27z"/>
<path d="M257 2974 c9 -15 19 -22 21 -15 2 6 -3 18 -11 26 -24 24 -29 18 -10
-11z"/>
<path d="M380 2972 c0 -5 11 -19 25 -32 14 -13 25 -18 25 -12 0 7 -4 12 -9 12
-5 0 -13 9 -16 20 -6 19 -25 28 -25 12z"/>
<path d="M327 2959 c25 -30 103 -109 103 -104 0 17 -49 75 -79 95 -20 13 -31
17 -24 9z"/>
<path d="M690 2961 c0 -5 5 -13 10 -16 6 -3 10 -2 10 4 0 5 -4 13 -10 16 -5 3
-10 2 -10 -4z"/>
<path d="M620 2925 c7 -9 15 -13 17 -11 7 7 -7 26 -19 26 -6 0 -6 -6 2 -15z"/>
<path d="M725 2920 c3 -5 8 -10 11 -10 2 0 4 5 4 10 0 6 -5 10 -11 10 -5 0 -7
-4 -4 -10z"/>
<path d="M922 2878 c5 -15 28 -23 28 -10 0 5 -7 13 -16 16 -10 4 -14 1 -12 -6z"/>
<path d="M380 2861 c0 -5 5 -13 10 -16 6 -3 10 -2 10 4 0 5 -4 13 -10 16 -5 3
-10 2 -10 -4z"/>
<path d="M680 2863 c0 -13 29 -38 35 -31 3 3 -4 13 -15 23 -11 10 -20 13 -20
8z"/>
<path d="M800 2841 c0 -15 38 -56 45 -49 3 3 1 15 -7 27 -13 22 -38 36 -38 22z"/>
<path d="M862 2769 c2 -7 10 -15 17 -17 8 -3 12 1 9 9 -2 7 -10 15 -17 17 -8
3 -12 -1 -9 -9z"/>
<path d="M1030 2755 c7 -9 15 -13 17 -11 7 7 -7 26 -19 26 -6 0 -6 -6 2 -15z"/>
<path d="M170 2412 c0 -5 7 -16 16 -23 14 -12 16 -11 13 5 -4 20 -29 35 -29
18z"/>
<path d="M190 2360 c0 -5 5 -10 11 -10 5 0 7 5 4 10 -3 6 -8 10 -11 10 -2 0
-4 -4 -4 -10z"/>
<path d="M220 2352 c0 -13 58 -43 64 -33 7 11 1 16 -38 30 -14 6 -26 7 -26 3z"/>
<path d="M185 2210 c-7 -12 2 -12 30 0 19 8 19 9 -2 9 -12 1 -25 -3 -28 -9z"/>
<path d="M420 2201 c0 -11 5 -23 10 -26 6 -4 10 5 10 19 0 14 -4 26 -10 26 -5
0 -10 -9 -10 -19z"/>
<path d="M150 1941 c0 -5 5 -13 10 -16 6 -3 10 -2 10 4 0 5 -4 13 -10 16 -5 3
-10 2 -10 -4z"/>
<path d="M188 1890 c10 -8 24 -28 32 -45 l14 -30 4 28 c4 34 -21 66 -49 64
-19 -1 -19 -2 -1 -17z"/>
<path d="M270 1820 c0 -5 7 -10 16 -10 8 0 12 5 9 10 -3 6 -10 10 -16 10 -5 0
-9 -4 -9 -10z"/>
<path d="M180 1808 c1 -7 9 -29 20 -48 18 -33 19 -33 20 -10 0 23 3 22 39 -20
21 -25 42 -42 45 -39 7 7 -103 129 -116 129 -4 0 -8 -6 -8 -12z"/>
<path d="M250 1803 c0 -14 13 -34 32 -50 17 -16 40 -36 50 -45 30 -30 20 -5
-15 34 -17 20 -40 47 -49 60 l-17 23 -1 -22z"/>
<path d="M166 1755 c4 -8 8 -15 10 -15 2 0 4 7 4 15 0 8 -4 15 -10 15 -5 0 -7
-7 -4 -15z"/>
<path d="M358 1654 c3 -19 7 -22 14 -12 7 10 11 9 23 -6 8 -11 17 -17 20 -14
6 6 -41 58 -53 58 -5 0 -7 -12 -4 -26z"/>
<path d="M732 1630 c2 -8 12 -15 20 -15 8 0 23 -6 32 -14 23 -19 20 2 -4 24
-13 12 -20 14 -20 5 0 -10 -4 -9 -17 1 -14 12 -16 12 -11 -1z"/>
<path d="M210 1615 c7 -9 15 -13 17 -11 7 7 -7 26 -19 26 -6 0 -6 -6 2 -15z"/>
<path d="M291 1595 c-1 -11 13 -35 29 -54 31 -35 38 -47 20 -36 -5 3 -10 1
-10 -6 0 -8 -5 -7 -17 2 -20 17 -81 19 -87 3 -3 -7 15 -29 39 -48 33 -27 44
-32 48 -21 4 8 -2 16 -13 20 -19 6 -35 34 -25 43 3 3 11 0 17 -6 7 -7 24 -12
38 -12 28 0 70 -39 70 -64 0 -8 9 -18 20 -21 11 -3 20 -11 20 -18 0 -7 4 -6
13 2 10 11 10 14 0 18 -7 3 -13 13 -13 23 0 9 -7 23 -15 30 -8 7 -12 16 -9 21
3 5 -9 22 -28 37 -44 37 -60 53 -80 82 -15 23 -17 23 -17 5z"/>
<path d="M165 1563 c4 -10 10 -27 13 -38 2 -11 9 -25 14 -31 5 -8 2 -18 -8
-29 -15 -14 -15 -18 -3 -26 20 -12 31 -11 23 3 -5 8 -2 9 11 4 14 -5 15 -3 7
6 -5 7 -18 39 -27 71 -9 31 -21 57 -27 57 -6 0 -7 -7 -3 -17z"/>
<path d="M816 1566 c3 -9 11 -16 16 -16 13 0 5 23 -10 28 -7 2 -10 -2 -6 -12z"/>
<path d="M250 1555 c7 -8 17 -15 22 -15 6 0 5 7 -2 15 -7 8 -17 15 -22 15 -6
0 -5 -7 2 -15z"/>
<path d="M870 1540 c0 -5 5 -10 11 -10 5 0 7 5 4 10 -3 6 -8 10 -11 10 -2 0
-4 -4 -4 -10z"/>
<path d="M550 1530 c0 -5 5 -10 10 -10 6 0 10 5 10 10 0 6 -4 10 -10 10 -5 0
-10 -4 -10 -10z"/>
<path d="M490 1510 c0 -5 10 -10 23 -10 18 0 19 2 7 10 -19 13 -30 13 -30 0z"/>
<path d="M880 1495 c7 -9 15 -13 17 -11 7 7 -7 26 -19 26 -6 0 -6 -6 2 -15z"/>
<path d="M492 1475 c-11 -13 -10 -15 7 -15 11 0 21 -6 24 -12 2 -7 7 -10 11
-6 7 6 -14 48 -24 48 -3 -1 -11 -7 -18 -15z"/>
<path d="M552 1461 c6 -19 89 -101 101 -101 7 0 -1 13 -18 28 -16 15 -38 40
-48 55 -16 25 -43 39 -35 18z"/>
<path d="M350 1435 c0 -8 4 -15 10 -15 5 0 7 7 4 15 -4 8 -8 15 -10 15 -2 0
-4 -7 -4 -15z"/>
<path d="M895 1440 c3 -5 8 -10 11 -10 2 0 4 5 4 10 0 6 -5 10 -11 10 -5 0 -7
-4 -4 -10z"/>
<path d="M930 1446 c0 -3 7 -12 16 -20 23 -23 40 -19 19 4 -16 18 -35 26 -35
16z"/>
<path d="M540 1423 c0 -13 29 -38 35 -31 3 3 -4 13 -15 23 -11 10 -20 13 -20
8z"/>
<path d="M780 1410 c0 -5 10 -10 23 -10 18 0 19 2 7 10 -19 13 -30 13 -30 0z"/>
<path d="M322 1399 c2 -7 10 -15 17 -17 8 -3 12 1 9 9 -2 7 -10 15 -17 17 -8
3 -12 -1 -9 -9z"/>
<path d="M830 1401 c0 -8 52 -22 58 -16 2 1 -11 7 -27 13 -17 6 -31 7 -31 3z"/>
<path d="M987 1380 c-4 -15 0 -20 14 -20 17 0 18 3 9 20 -6 11 -12 20 -14 20
-2 0 -6 -9 -9 -20z"/>
<path d="M470 1378 c0 -5 5 -18 10 -29 13 -23 45 -26 36 -3 -3 9 -6 19 -6 24
0 4 -9 10 -20 13 -11 3 -20 1 -20 -5z"/>
<path d="M162 1359 c2 -7 10 -15 17 -17 8 -3 12 1 9 9 -2 7 -10 15 -17 17 -8
3 -12 -1 -9 -9z"/>
<path d="M900 1350 c0 -5 5 -10 10 -10 6 0 10 5 10 10 0 6 -4 10 -10 10 -5 0
-10 -4 -10 -10z"/>
<path d="M1030 1295 c7 -9 15 -13 17 -11 7 7 -7 26 -19 26 -6 0 -6 -6 2 -15z"/>
<path d="M790 1290 c8 -5 22 -10 30 -10 13 0 13 1 0 10 -8 5 -22 10 -30 10
-13 0 -13 -1 0 -10z"/>
<path d="M881 1280 c-23 -5 -21 -7 15 -17 70 -21 118 -27 110 -14 -4 6 -17 11
-29 11 -12 0 -33 6 -47 13 -14 7 -36 10 -49 7z"/>
<path d="M200 1267 c0 -8 9 -22 19 -31 11 -10 21 -27 23 -39 4 -29 28 -34 28
-5 0 13 -14 38 -30 56 -33 35 -40 39 -40 19z"/>
<path d="M1025 1243 c6 -6 37 -15 69 -22 71 -13 79 -14 72 -2 -3 4 -26 11 -51
14 -25 4 -57 10 -72 13 -19 4 -25 3 -18 -3z"/>
<path d="M1025 1200 c3 -5 8 -10 11 -10 2 0 4 5 4 10 0 6 -5 10 -11 10 -5 0
-7 -4 -4 -10z"/>
<path d="M1070 1185 c27 -14 36 -13 25 4 -3 6 -16 11 -28 11 -21 -1 -21 -1 3
-15z"/>
<path d="M1125 1180 c3 -5 10 -10 16 -10 5 0 9 5 9 10 0 6 -7 10 -16 10 -8 0
-12 -4 -9 -10z"/>
<path d="M918 1153 c7 -3 16 -2 19 1 4 3 -2 6 -13 5 -11 0 -14 -3 -6 -6z"/>
<path d="M236 1142 c-3 -6 -1 -14 5 -17 15 -10 25 3 12 16 -7 7 -13 7 -17 1z"/>
<path d="M1114 1055 c22 -17 36 -19 36 -6 0 10 -24 21 -43 21 -7 0 -3 -7 7
-15z"/>
<path d="M869 1046 c6 -7 34 -13 62 -15 29 -1 61 -7 72 -12 13 -8 22 -8 29 -1
7 7 0 12 -23 16 -58 9 -103 16 -127 20 -17 3 -21 1 -13 -8z"/>
<path d="M480 1037 c0 -8 9 -22 20 -32 11 -10 20 -13 20 -7 0 7 -5 12 -11 12
-6 0 -9 9 -6 20 3 13 0 20 -9 20 -8 0 -14 -6 -14 -13z"/>
<path d="M527 1043 c-15 -14 -5 -23 26 -22 21 1 25 3 12 6 -11 3 -23 9 -26 14
-3 5 -8 6 -12 2z"/>
<path d="M600 1031 c0 -20 17 -37 27 -28 7 8 -7 47 -18 47 -5 0 -9 -9 -9 -19z"/>
<path d="M666 1021 c-6 -10 31 -51 46 -51 13 0 10 7 -16 35 -14 14 -27 22 -30
16z"/>
<path d="M1080 1021 c0 -10 30 -24 37 -17 3 2 -5 9 -16 16 -12 6 -21 7 -21 1z"/>
<path d="M1195 1000 c-3 -5 1 -13 10 -16 22 -9 29 1 11 15 -10 8 -16 9 -21 1z"/>
<path d="M937 940 c10 -11 90 -25 81 -15 -4 4 -26 11 -48 15 -23 4 -38 4 -33
0z"/>
<path d="M1475 920 c3 -5 8 -10 11 -10 2 0 4 5 4 10 0 6 -5 10 -11 10 -5 0 -7
-4 -4 -10z"/>
<path d="M1575 890 c3 -5 8 -10 11 -10 2 0 4 5 4 10 0 6 -5 10 -11 10 -5 0 -7
-4 -4 -10z"/>
<path d="M1600 871 c0 -9 -9 -12 -25 -9 -14 3 -28 1 -31 -3 -3 -5 7 -9 23 -10
15 0 51 -3 78 -5 35 -3 46 -1 35 6 -8 5 -24 10 -35 10 -12 0 -26 5 -33 12 -9
9 -12 9 -12 -1z"/>
<path d="M1030 850 c0 -5 5 -10 11 -10 5 0 7 5 4 10 -3 6 -8 10 -11 10 -2 0
-4 -4 -4 -10z"/>
<path d="M1702 849 c3 -8 10 -15 16 -15 25 -3 27 -5 14 -13 -10 -6 -8 -10 8
-14 16 -4 20 -2 16 9 -4 10 3 14 27 15 30 1 30 2 -8 9 -22 4 -48 11 -59 15
-14 6 -18 5 -14 -6z"/>
<path d="M1320 840 c20 -13 43 -13 35 0 -3 6 -16 10 -28 10 -18 0 -19 -2 -7
-10z"/>
<path d="M1568 819 c21 -6 39 -6 50 0 13 8 5 10 -33 10 -48 -1 -49 -1 -17 -10z"/>
<path d="M800 816 c0 -2 9 -6 20 -9 11 -3 20 -1 20 4 0 5 -9 9 -20 9 -11 0
-20 -2 -20 -4z"/>
<path d="M1648 813 c7 -3 16 -2 19 1 4 3 -2 6 -13 5 -11 0 -14 -3 -6 -6z"/>
<path d="M1688 813 c7 -3 16 -2 19 1 4 3 -2 6 -13 5 -11 0 -14 -3 -6 -6z"/>
<path d="M1250 792 c0 -12 19 -26 26 -19 2 2 -2 10 -11 17 -9 8 -15 8 -15 2z"/>
<path d="M1628 774 c12 -8 19 -20 16 -26 -4 -6 -3 -9 2 -6 5 2 25 -12 45 -32
l36 -36 -70 8 c-38 4 -75 12 -83 19 -9 7 -14 8 -14 1 0 -6 -8 -9 -17 -8 -10 2
-58 7 -108 11 -73 5 -95 11 -115 29 -25 23 -76 34 -64 15 3 -6 12 -8 20 -5 8
3 11 0 7 -10 -4 -11 -14 -14 -37 -10 -91 16 -178 27 -189 23 -18 -6 84 -26
167 -33 42 -3 81 -12 95 -22 13 -9 35 -25 50 -35 l26 -18 -55 7 c-30 4 -63 7
-73 6 -10 0 -23 8 -30 19 -7 11 -22 19 -37 18 l-25 0 24 -10 c43 -17 14 -21
-64 -8 -46 7 -79 18 -82 26 -7 18 -23 17 -23 -2 0 -8 12 -17 28 -20 15 -4 46
-10 69 -16 23 -5 57 -9 76 -9 18 0 37 -3 41 -7 4 -4 21 -8 39 -9 94 -5 128
-14 157 -44 17 -17 30 -35 30 -39 0 -14 -25 -20 -41 -10 -8 5 -21 8 -29 8 -10
0 -11 -2 -2 -6 6 -2 10 -8 7 -12 -2 -5 25 -11 61 -14 37 -4 73 -12 81 -19 20
-16 53 -18 53 -2 0 7 6 15 13 17 6 3 0 6 -14 6 -15 1 -37 9 -50 20 -13 10 -29
16 -35 14 -6 -2 -29 17 -53 42 -23 25 -47 45 -52 45 -6 0 -8 4 -5 9 3 4 -6 13
-19 19 -26 12 -36 38 -11 29 8 -3 54 -9 103 -13 48 -3 98 -7 111 -9 31 -2 54
-25 27 -25 -15 0 -12 -4 10 -14 17 -8 39 -17 49 -20 39 -13 6 -16 -65 -6 -139
19 -149 20 -149 11 0 -5 27 -12 60 -16 43 -5 60 -11 60 -22 0 -10 -6 -12 -22
-8 -21 7 -22 6 -7 -9 21 -23 52 -11 43 17 -5 17 -3 19 17 14 13 -4 39 -7 56
-7 22 0 43 -10 65 -30 l33 -30 -47 7 c-33 4 -48 2 -48 -6 0 -6 -8 -11 -17 -11
-15 0 -16 -2 -3 -10 11 -7 18 -5 26 5 7 10 18 13 29 8 18 -6 17 -7 -1 -14 -16
-6 -14 -8 11 -9 17 -2 36 -2 43 -1 6 1 12 -2 12 -7 0 -5 61 -9 136 -10 75 0
134 1 132 4 -6 5 -82 13 -140 13 -27 1 -48 6 -48 11 0 6 38 10 95 10 78 0 97
-3 102 -16 8 -23 48 -35 75 -24 22 9 22 10 -4 7 -15 -1 -37 7 -50 18 -45 38
-88 66 -88 57 0 -4 5 -13 12 -20 9 -9 -8 -12 -78 -10 -49 1 -94 -1 -101 -5 -6
-4 -13 3 -17 18 -4 16 -13 25 -27 25 -13 0 -18 4 -13 12 5 7 2 9 -9 5 -9 -3
-27 5 -44 21 l-28 26 25 7 c22 6 20 7 -12 8 -20 1 -40 5 -43 11 -6 10 70 6
107 -6 26 -8 22 15 -7 49 -25 28 -41 36 -30 15 4 -7 1 -6 -7 2 -24 27 -79 70
-91 70 -6 0 -1 -7 11 -16z m150 -261 c-10 -2 -26 -2 -35 0 -10 3 -2 5 17 5 19
0 27 -2 18 -5z"/>
<path d="M1408 749 c21 -6 39 -6 50 0 13 8 5 10 -33 10 -48 -1 -49 -1 -17 -10z"/>
<path d="M1500 750 c0 -5 7 -10 15 -10 8 0 15 -4 15 -10 0 -5 5 -10 11 -10 14
0 2 18 -22 30 -13 7 -19 7 -19 0z"/>
<path d="M1580 750 c0 -5 5 -10 11 -10 5 0 7 5 4 10 -3 6 -8 10 -11 10 -2 0
-4 -4 -4 -10z"/>
<path d="M1740 740 c0 -5 28 -28 63 -51 34 -23 75 -53 90 -66 16 -13 33 -23
38 -23 13 0 -6 19 -51 50 -44 31 -79 60 -99 83 -17 18 -41 23 -41 7z"/>
<path d="M1460 730 c0 -5 5 -10 11 -10 5 0 7 5 4 10 -3 6 -8 10 -11 10 -2 0
-4 -4 -4 -10z"/>
<path d="M1808 733 c7 -3 16 -2 19 1 4 3 -2 6 -13 5 -11 0 -14 -3 -6 -6z"/>
<path d="M1850 720 c0 -5 5 -10 11 -10 5 0 7 5 4 10 -3 6 -8 10 -11 10 -2 0
-4 -4 -4 -10z"/>
<path d="M914 695 c25 -19 37 -19 30 0 -4 8 -16 15 -28 15 -21 -1 -21 -1 -2
-15z"/>
<path d="M1286 685 c4 -8 13 -15 21 -15 13 0 13 3 3 15 -7 8 -16 15 -21 15 -5
0 -6 -7 -3 -15z"/>
<path d="M1488 653 c7 -3 16 -2 19 1 4 3 -2 6 -13 5 -11 0 -14 -3 -6 -6z"/>
<path d="M1798 639 c-8 -6 1 -9 25 -9 20 0 37 2 37 4 0 9 -50 12 -62 5z"/>
<path d="M2010 640 c0 -5 5 -10 11 -10 5 0 7 5 4 10 -3 6 -8 10 -11 10 -2 0
-4 -4 -4 -10z"/>
<path d="M1275 600 c3 -5 11 -10 16 -10 6 0 7 5 4 10 -3 6 -11 10 -16 10 -6 0
-7 -4 -4 -10z"/>
<path d="M1030 592 c0 -16 13 -21 69 -28 62 -7 69 11 8 19 -24 3 -51 9 -60 13
-9 3 -17 1 -17 -4z"/>
<path d="M1180 565 c0 -8 6 -15 14 -15 8 0 16 -6 19 -14 5 -13 47 -42 47 -33
0 6 -68 77 -74 77 -3 0 -6 -7 -6 -15z"/>
<path d="M1320 560 c12 -23 8 -25 -20 -8 -10 7 -23 9 -27 5 -11 -11 17 -27 47
-27 14 0 40 -13 58 -30 39 -35 55 -40 24 -7 -12 13 -22 27 -22 31 0 9 -52 55
-63 56 -4 0 -3 -9 3 -20z"/>
<path d="M2125 560 c3 -5 8 -10 11 -10 2 0 4 5 4 10 0 6 -5 10 -11 10 -5 0 -7
-4 -4 -10z"/>
<path d="M815 550 c3 -5 8 -10 11 -10 2 0 4 5 4 10 0 6 -5 10 -11 10 -5 0 -7
-4 -4 -10z"/>
<path d="M976 542 c-3 -6 -1 -14 5 -17 15 -10 25 3 12 16 -7 7 -13 7 -17 1z"/>
<path d="M1585 540 c3 -5 16 -10 28 -9 21 0 21 1 2 9 -28 12 -37 12 -30 0z"/>
<path d="M1330 510 c0 -5 5 -10 11 -10 5 0 7 5 4 10 -3 6 -8 10 -11 10 -2 0
-4 -4 -4 -10z"/>
<path d="M1010 505 c0 -2 10 -10 23 -16 20 -11 21 -11 8 4 -13 16 -31 23 -31
12z"/>
<path d="M1476 465 c4 -8 18 -15 32 -15 25 0 25 1 6 15 -25 19 -45 19 -38 0z"/>
<path d="M1367 456 c-3 -8 0 -17 8 -19 17 -7 25 1 18 19 -7 18 -19 18 -26 0z"/>
<path d="M1306 452 c-3 -6 1 -13 10 -16 23 -9 28 -2 10 13 -8 7 -17 8 -20 3z"/>
<path d="M1450 447 c0 -8 7 -20 15 -27 12 -10 15 -10 15 3 0 8 -7 20 -15 27
-12 10 -15 10 -15 -3z"/>
<path d="M1770 440 c0 -12 80 -54 87 -46 3 3 -2 9 -12 13 -10 3 -27 15 -37 25
-20 20 -38 24 -38 8z"/>
<path d="M1415 420 c3 -5 8 -10 11 -10 2 0 4 5 4 10 0 6 -5 10 -11 10 -5 0 -7
-4 -4 -10z"/>
<path d="M1348 408 c18 -18 15 -26 -10 -31 -18 -3 -17 -5 7 -6 17 0 43 -8 60
-17 19 -10 31 -11 33 -5 2 6 8 11 13 11 6 0 7 -4 4 -10 -3 -5 -2 -10 3 -10 6
0 13 7 16 16 5 13 9 12 27 -5 12 -11 27 -17 33 -15 7 3 19 -2 26 -11 18 -22
33 -19 20 4 -14 26 -13 36 3 23 17 -14 87 -13 87 2 0 6 -14 12 -30 13 -17 1
-38 9 -46 18 -20 19 -28 19 -20 0 7 -20 -55 -20 -94 0 -22 11 -28 12 -25 2 4
-9 -5 -12 -35 -9 -22 2 -38 8 -35 13 3 4 -3 13 -14 18 -26 15 -38 14 -23 -1z"/>
<path d="M1125 400 c3 -5 8 -10 11 -10 2 0 4 5 4 10 0 6 -5 10 -11 10 -5 0 -7
-4 -4 -10z"/>
<path d="M1202 377 c20 -17 51 -41 70 -51 l33 -19 -22 25 c-13 13 -23 27 -23
31 0 15 23 6 42 -15 16 -19 19 -20 14 -5 -3 10 -6 24 -6 31 0 8 -17 13 -46 15
-25 1 -57 6 -72 11 -25 9 -24 7 10 -23z"/>
<path d="M2135 390 c10 -11 27 -20 38 -20 18 0 17 2 -6 20 -14 11 -31 20 -38
20 -8 0 -6 -7 6 -20z"/>
<path d="M2024 393 c11 -11 76 -13 76 -2 0 5 -19 9 -42 9 -23 0 -38 -3 -34 -7z"/>
<path d="M1684 360 c3 -8 9 -23 12 -32 4 -10 10 -18 15 -18 17 0 9 27 -12 46
-15 13 -20 14 -15 4z"/>
<path d="M1750 350 c0 -5 4 -10 9 -10 6 0 13 5 16 10 3 6 -1 10 -9 10 -9 0
-16 -4 -16 -10z"/>
<path d="M1420 297 c0 -4 5 -5 10 -2 6 3 10 2 10 -2 0 -5 16 -7 36 -5 19 2 32
7 29 10 -9 10 -85 9 -85 -1z"/>
<path d="M1530 288 c0 -7 32 -13 53 -9 5 1 11 -8 14 -20 3 -12 9 -16 12 -10 4
6 20 12 37 14 32 4 41 23 9 20 -11 -1 -27 1 -35 4 -24 9 -90 9 -90 1z"/>
<path d="M1331 259 c8 -5 23 -9 33 -9 33 0 86 -23 86 -37 0 -7 -11 -13 -27
-13 -14 0 -24 -2 -22 -5 3 -2 61 -7 129 -10 69 -3 150 -12 180 -20 118 -30
158 -19 80 22 -25 13 -46 19 -48 14 -2 -5 -10 -7 -19 -4 -11 4 -14 2 -9 -5 10
-17 -15 -15 -28 2 -7 9 -48 20 -108 27 -53 7 -94 17 -92 21 3 5 10 6 15 3 5
-4 9 1 9 9 0 18 -25 22 -35 6 -4 -6 -13 -7 -24 -1 -23 13 -140 13 -120 0z m96
-5 c-3 -3 -12 -4 -19 -1 -8 3 -5 6 6 6 11 1 17 -2 13 -5z m343 -84 c8 -5 11
-10 5 -10 -5 0 -17 5 -25 10 -8 5 -10 10 -5 10 6 0 17 -5 25 -10z"/>
<path d="M1550 255 c7 -8 16 -15 21 -15 5 0 6 7 3 15 -4 8 -13 15 -21 15 -13
0 -13 -3 -3 -15z"/>
<path d="M1675 243 c16 -3 34 -10 38 -16 6 -8 7 -7 4 3 -2 9 -17 16 -38 16
-31 2 -31 1 -4 -3z"/>
<path d="M1352 198 c7 -19 38 -22 38 -4 0 10 -9 16 -21 16 -12 0 -19 -5 -17
-12z"/>
<path d="M2565 180 c3 -5 8 -10 11 -10 2 0 4 5 4 10 0 6 -5 10 -11 10 -5 0 -7
-4 -4 -10z"/>
<path d="M1394 169 c-5 -9 -2 -10 9 -6 10 3 17 2 17 -3 0 -6 7 -10 15 -10 8 0
15 5 15 10 0 6 -4 10 -9 10 -5 0 -16 3 -24 6 -8 3 -18 0 -23 -7z"/>
<path d="M2580 150 c0 -5 5 -10 11 -10 5 0 7 5 4 10 -3 6 -8 10 -11 10 -2 0
-4 -4 -4 -10z"/>
<path d="M2486 2312 c-3 -5 1 -18 9 -28 14 -18 14 -18 15 3 0 23 -15 39 -24
25z"/>
<path d="M2753 1925 c0 -14 4 -28 10 -32 6 -4 7 -1 2 7 -4 7 -2 15 4 20 9 5 8
10 -2 19 -12 9 -14 7 -14 -14z"/>
<path d="M1680 2071 c0 -5 5 -13 10 -16 6 -3 10 -2 10 4 0 5 -4 13 -10 16 -5
3 -10 2 -10 -4z"/>
<path d="M360 1271 c0 -5 7 -12 16 -15 14 -5 15 -4 4 9 -14 17 -20 19 -20 6z"/>
<path d="M2610 461 c0 -6 4 -13 10 -16 6 -3 7 1 4 9 -7 18 -14 21 -14 7z"/>
<path d="M1170 3764 c38 -8 90 -9 90 -2 0 4 -24 7 -52 7 -29 -1 -46 -3 -38 -5z"/>
<path d="M996 61 c-4 -7 -5 -15 -2 -18 9 -9 19 4 14 18 -4 11 -6 11 -12 0z"/>
</g>
</svg>
