<?xml version="1.0" standalone="no"?>
<!DOCTYPE svg PUBLIC "-//W3C//DTD SVG 20010904//EN"
 "http://www.w3.org/TR/2001/REC-SVG-20010904/DTD/svg10.dtd">
<svg version="1.0" xmlns="http://www.w3.org/2000/svg"
 width="390.000000pt" height="220.000000pt" viewBox="0 0 390.000000 220.000000"
 preserveAspectRatio="xMidYMid meet">
<metadata>
Created by potrace 1.16, written by Peter Selinger 2001-2019
</metadata>
<g transform="translate(0.000000,220.000000) scale(0.100000,-0.100000)"
fill="#000000" stroke="none">
<path d="M3744 2113 c3 -49 11 -167 17 -263 25 -403 28 -429 22 -230 -2 102
-4 199 -4 215 -1 17 -3 105 -6 198 -4 139 -8 167 -20 167 -13 0 -14 -14 -9
-87z"/>
<path d="M3399 2185 c-7 -6 -132 -18 -214 -19 -38 -1 -92 -3 -120 -5 -50 -4
-50 -4 -15 -12 29 -7 27 -7 -17 -4 -28 2 -53 0 -55 -4 -4 -11 -58 -23 -58 -14
0 12 -274 6 -500 -11 -336 -25 -547 -31 -565 -16 -11 10 -53 12 -166 8 -82 -3
-152 -1 -155 3 -7 11 -331 3 -429 -11 -44 -7 -105 -9 -135 -6 -30 3 -104 1
-165 -5 -122 -13 -124 -13 -480 -8 -247 3 -251 3 -288 -20 l-37 -23 0 -145 c0
-79 5 -197 10 -261 6 -64 15 -229 20 -367 12 -326 26 -518 44 -635 8 -52 18
-151 21 -220 7 -139 30 -354 40 -370 3 -5 22 -17 41 -26 31 -15 55 -16 187 -9
84 5 211 9 282 10 72 2 155 5 185 9 30 3 210 8 398 11 189 3 360 7 380 10 70
9 237 19 342 20 58 0 150 6 205 13 199 23 397 35 404 25 4 -7 126 -6 366 3
198 8 387 14 420 13 33 -1 97 -1 143 0 74 1 82 3 82 20 0 11 -6 22 -12 24 -10
4 -10 6 0 6 10 1 11 19 6 79 -4 42 -10 82 -15 88 -5 6 -11 58 -13 115 -2 57
-8 134 -12 172 -4 40 -3 67 2 67 6 0 9 228 8 588 -2 323 -3 655 -3 739 l1 152
-28 7 c-18 5 -29 3 -32 -4 -2 -7 -18 -12 -35 -12 -30 1 -31 1 -13 15 20 15 20
15 0 15 -12 0 -23 -2 -25 -5z m46 -120 c0 -14 -5 -25 -11 -25 -8 0 -10 -11 -7
-32 3 -18 7 -123 8 -232 l3 -200 -43 -45 c-99 -107 -126 -139 -115 -146 6 -4
7 -12 0 -24 -7 -14 -4 -23 15 -39 27 -24 52 -20 105 18 16 11 32 20 37 20 4 0
8 -42 9 -92 0 -51 3 -221 5 -378 l4 -285 -40 -45 c-23 -25 -48 -56 -57 -70 -8
-14 -43 -55 -77 -92 -44 -48 -61 -74 -61 -94 0 -15 -7 -35 -16 -45 -21 -23 -2
-33 22 -10 18 16 27 16 129 4 123 -15 135 -18 135 -33 0 -13 -57 -13 -62 0 -2
7 -36 5 -103 -5 -55 -9 -134 -19 -175 -21 -41 -3 -77 -7 -79 -10 -2 -2 -9 3
-16 12 -9 13 -22 15 -68 9 -31 -4 -57 -11 -57 -16 0 -5 -13 -9 -30 -9 -21 0
-28 4 -24 14 8 21 -164 15 -177 -5 -7 -11 -9 -10 -9 4 0 9 -5 17 -11 17 -5 0
-7 6 -3 13 6 9 4 9 -7 0 -7 -7 -29 -13 -48 -13 -31 0 -37 -13 -8 -16 7 0 20
-2 30 -2 9 -1 17 -7 17 -13 0 -20 -85 14 -94 38 -3 8 1 26 10 41 16 27 16 27
-3 6 -15 -17 -22 -19 -44 -10 -14 6 -25 16 -24 21 1 6 0 7 -2 3 -7 -12 -30 -9
-45 5 -7 6 -19 12 -25 13 -39 3 -44 5 -38 14 8 14 -8 13 -22 -1 -6 -6 -33 -11
-60 -12 -26 0 -53 -4 -59 -9 -7 -5 -27 -8 -46 -6 -19 1 -39 -1 -45 -5 -22 -14
-77 28 -90 67 -11 32 -10 42 6 75 32 61 42 66 119 52 88 -15 105 -15 182 -1
127 24 189 87 231 235 29 104 31 213 5 279 -18 48 -18 50 -1 63 11 7 21 10 24
5 8 -10 106 -15 147 -7 52 9 81 84 54 135 -12 23 -75 60 -102 60 -30 0 -110
-54 -152 -101 -30 -35 -38 -39 -55 -29 -24 13 -25 14 -10 43 12 22 12 22 -10
3 -20 -19 -23 -19 -56 -3 -38 18 -41 26 -24 60 10 20 8 19 -16 -4 -26 -25 -28
-25 -61 -10 -37 16 -39 22 -24 52 15 27 -2 24 -23 -5 -15 -20 -26 -23 -87 -23
-51 -1 -80 -6 -110 -22 -43 -22 -46 -21 -29 10 5 11 9 28 7 37 -2 11 -11 3
-26 -26 -12 -23 -22 -47 -22 -53 0 -5 -22 -32 -48 -58 -75 -75 -122 -192 -122
-302 0 -28 -8 -51 -26 -75 -29 -37 -23 -48 6 -11 20 25 20 25 42 -23 15 -34
15 -38 -8 -80 -31 -61 -30 -75 2 -22 24 40 28 43 42 28 14 -13 14 -19 2 -41
-7 -14 -11 -28 -7 -31 3 -3 10 4 16 15 l11 20 25 -21 c28 -25 30 -31 13 -50
-7 -7 -26 -32 -42 -56 -16 -23 -33 -42 -37 -42 -15 0 -49 -78 -49 -111 0 -21
9 -39 29 -58 26 -24 27 -29 15 -46 -24 -33 -17 -53 9 -24 l22 27 50 -24 c33
-16 43 -24 30 -25 -11 -1 -33 -3 -50 -5 -102 -11 -125 -11 -125 3 0 15 -16 17
-25 3 -10 -16 -25 -12 -26 8 0 13 -2 12 -9 -5 -9 -21 -16 -23 -87 -24 -43 0
-108 -3 -145 -5 l-68 -4 17 37 c20 44 53 95 68 105 5 4 43 8 83 8 79 0 76 -3
73 74 -2 47 0 45 -40 50 -66 7 -87 69 -71 214 10 95 19 151 61 362 11 58 71
179 95 193 19 11 18 24 -8 55 -11 15 -18 19 -15 10 9 -26 -82 -95 -177 -133
-22 -8 -40 -14 -42 -13 -1 2 13 29 32 62 19 32 32 61 29 64 -3 3 -6 3 -8 1
-21 -30 -67 -112 -67 -119 0 -5 -13 -17 -29 -26 -22 -13 -30 -27 -34 -53 -5
-40 0 -52 12 -32 14 21 24 -5 11 -29 -12 -23 -25 -27 -16 -5 3 8 1 15 -5 15
-7 0 -9 -10 -5 -24 4 -16 0 -29 -14 -41 -11 -10 -17 -21 -14 -26 3 -5 -3 -20
-12 -34 -9 -14 -14 -28 -11 -31 6 -6 16 9 62 90 20 36 30 45 36 35 11 -17 12
-69 2 -69 -5 0 -21 -21 -37 -48 -17 -26 -36 -57 -44 -69 -8 -13 -10 -23 -4
-23 5 0 25 23 43 51 18 29 35 47 37 40 2 -6 -8 -25 -21 -41 -14 -16 -28 -39
-32 -50 -3 -11 -10 -20 -14 -20 -10 0 -34 -51 -27 -57 2 -3 22 21 42 54 21 32
40 60 41 62 2 2 5 2 8 -1 3 -3 -1 -34 -9 -69 -7 -35 -20 -113 -26 -172 -12
-96 -16 -110 -39 -128 -15 -12 -36 -19 -53 -17 -34 3 -48 -14 -48 -58 0 -36
16 -54 47 -54 28 0 28 0 2 -49 -11 -23 -19 -46 -16 -53 3 -7 15 10 27 39 24
57 39 64 114 56 l43 -5 -31 -62 c-17 -33 -34 -62 -38 -64 -5 -2 -8 -11 -8 -21
0 -12 -9 -17 -31 -19 -17 -1 -28 2 -25 7 10 16 -44 22 -73 8 -20 -10 -43 -12
-82 -7 -30 4 -57 6 -61 4 -3 -3 -18 1 -32 7 -20 9 -54 9 -145 0 -66 -7 -125
-9 -132 -5 -20 12 -123 5 -147 -10 -7 -4 -19 -5 -27 -2 -8 3 -15 2 -15 -2 0
-4 -48 -7 -108 -7 -59 -1 -153 -4 -209 -8 -99 -7 -103 -6 -103 13 0 11 -4 20
-10 20 -5 0 4 23 21 51 16 28 27 54 24 57 -7 7 -7 7 -47 -70 -33 -64 -35 -66
-46 -44 -6 13 -7 27 -2 32 16 16 41 84 31 84 -6 0 -16 -18 -22 -40 -15 -48
-24 -51 -33 -8 -5 23 -2 34 9 41 9 4 13 12 10 17 -3 4 -1 19 3 32 5 12 12 37
15 53 4 21 -1 16 -17 -20 l-24 -50 -6 35 c-11 64 -28 264 -26 320 0 30 6 71
11 90 6 19 14 47 19 63 11 35 -3 35 -19 1 -6 -15 -14 -25 -16 -22 -3 2 -5 79
-6 171 0 94 -4 169 -10 172 -15 10 -4 166 15 205 32 67 46 85 59 82 9 -1 21
16 31 45 9 27 26 68 37 92 11 24 18 45 16 48 -5 4 -38 -51 -76 -127 -13 -24
-33 -56 -45 -71 -11 -15 -30 -42 -41 -60 l-19 -34 -4 33 c-2 23 2 38 14 46 15
11 15 13 1 19 -22 8 -23 195 -1 204 8 3 14 16 14 29 0 25 -15 33 -23 12 -3 -8
-6 -5 -6 5 -1 11 8 30 19 44 27 35 27 67 0 34 l-20 -23 0 23 c0 12 7 30 15 39
9 10 17 27 20 38 2 11 11 32 21 47 9 14 14 28 12 31 -6 5 -36 -36 -55 -76 -11
-22 -12 -14 -10 55 1 60 -1 79 -10 77 -7 -1 -13 1 -13 4 0 11 34 64 42 65 4 1
13 2 18 3 6 0 15 7 20 15 11 18 29 22 110 24 36 1 68 5 71 10 3 4 27 4 53 1
l47 -7 -21 -21 c-15 -17 -17 -25 -8 -34 17 -17 28 -15 28 4 0 8 4 12 10 9 5
-3 12 5 15 18 6 21 15 25 94 35 87 12 218 15 194 5 -30 -11 -11 -25 24 -18 86
16 793 26 947 14 40 -3 63 -1 72 8 19 19 155 16 147 -3 -7 -18 7 -18 21 0 7 9
44 16 108 20 92 7 97 6 91 -11 -6 -17 -5 -17 15 0 18 17 29 18 91 10 39 -5 77
-6 85 -1 9 5 17 4 22 -3 4 -8 9 -7 15 2 7 11 9 11 9 1 0 -9 5 -10 19 -3 10 6
21 7 25 4 3 -3 6 -1 6 6 0 7 3 10 8 8 14 -9 83 -17 78 -9 -2 4 3 8 12 8 9 0
41 3 70 7 37 6 52 4 52 -4 0 -8 4 -8 13 -2 7 6 137 13 301 17 158 3 295 10
304 15 9 5 49 7 91 5 72 -3 74 -4 76 -29z m-2525 -25 c0 -6 -33 -9 -82 -8
l-83 2 80 6 c44 3 81 7 83 8 1 1 2 -2 2 -8z m2527 -47 c-3 -10 -5 -4 -5 12 0
17 2 24 5 18 2 -7 2 -21 0 -30z m-3365 -15 c-7 -7 -12 -8 -12 -2 0 14 12 26
19 19 2 -3 -1 -11 -7 -17z m3379 -279 c-9 -22 -10 -22 -10 -3 -1 11 2 24 6 27
12 12 14 0 4 -24z m54 -229 c3 -5 1 -10 -4 -10 -6 0 -11 5 -11 10 0 6 2 10 4
10 3 0 8 -4 11 -10z m2 -72 c-2 -13 -4 -5 -4 17 -1 22 1 32 4 23 2 -10 2 -28
0 -40z m-1157 -299 c5 -7 15 -14 22 -14 6 0 21 -15 32 -34 16 -27 21 -58 24
-149 3 -66 0 -129 -6 -150 -6 -21 -14 -53 -17 -73 -3 -20 -16 -52 -28 -70 -19
-28 -30 -34 -62 -37 -22 -1 -59 -7 -81 -13 -31 -8 -47 -8 -64 1 -20 11 -20 13
-6 29 25 27 19 37 -7 13 l-24 -22 -11 25 c-14 31 -16 75 -3 75 5 0 12 8 15 17
5 13 1 12 -17 -5 -19 -18 -27 -20 -33 -11 -4 7 -8 69 -8 138 -1 145 9 175 89
257 l44 46 66 -4 c43 -3 69 -9 75 -19z m1127 -94 c-2 -19 -7 -38 -10 -42 -9
-8 -9 6 -1 46 9 42 15 39 11 -4z m-1467 -484 c0 -5 -7 -14 -15 -21 -16 -14
-18 -10 -9 14 6 17 24 22 24 7z m1482 -103 c-9 -9 -12 -7 -12 12 0 19 3 21 12
12 9 -9 9 -15 0 -24z m-232 -243 c10 -12 6 -14 -27 -10 -51 5 -52 6 -23 15 36
11 36 11 50 -5z m-1145 -15 c-3 -5 -10 -10 -16 -10 -5 0 -9 5 -9 10 0 6 7 10
16 10 8 0 12 -4 9 -10z m420 2 c-6 -7 -107 -3 -114 4 -3 3 23 4 57 3 34 -1 60
-4 57 -7z"/>
<path d="M2926 2035 c-10 -14 -16 -29 -13 -31 7 -8 39 35 35 47 -2 7 -12 0
-22 -16z"/>
<path d="M2940 1999 c-29 -33 -50 -62 -47 -65 5 -5 110 101 115 116 9 26 -20
4 -68 -51z"/>
<path d="M3022 2029 c-17 -21 -20 -29 -9 -29 8 0 20 7 27 15 9 11 15 13 20 5
5 -8 9 -7 13 4 4 9 2 16 -4 16 -6 0 -7 5 -4 10 15 24 -22 6 -43 -21z"/>
<path d="M3117 2042 c-18 -19 -23 -42 -9 -42 4 0 16 14 25 30 20 33 10 40 -16
12z"/>
<path d="M3228 2026 c-39 -48 -35 -57 7 -16 19 19 35 38 35 42 0 17 -16 7 -42
-26z"/>
<path d="M2835 2042 c-29 -21 -178 -183 -173 -188 6 -5 198 180 198 191 0 7
-13 6 -25 -3z"/>
<path d="M3246 1986 c-25 -30 -42 -57 -37 -60 8 -5 74 65 95 102 19 32 -16 6
-58 -42z"/>
<path d="M2260 2008 c-12 -22 -12 -22 6 -6 10 10 15 20 12 24 -4 3 -12 -5 -18
-18z"/>
<path d="M2018 2013 c-17 -4 -33 -32 -24 -41 7 -7 56 26 56 38 0 10 -4 11 -32
3z"/>
<path d="M1380 2000 c0 -5 5 -10 10 -10 6 0 10 5 10 10 0 6 -4 10 -10 10 -5 0
-10 -4 -10 -10z"/>
<path d="M2570 1999 c0 -5 5 -7 10 -4 6 3 10 8 10 11 0 2 -4 4 -10 4 -5 0 -10
-5 -10 -11z"/>
<path d="M1763 1988 c-25 -32 -26 -40 -4 -26 12 7 21 18 21 25 0 16 -5 16 -17
1z"/>
<path d="M542 1967 c-12 -13 -22 -28 -22 -34 0 -6 -4 -13 -9 -15 -5 -1 -13
-16 -16 -33 l-7 -30 21 33 c12 18 21 36 21 41 0 5 8 11 18 14 11 2 21 14 25
26 7 27 -4 27 -31 -2z"/>
<path d="M1125 1980 c-3 -5 -3 -15 0 -21 4 -5 0 -18 -8 -27 -9 -9 -24 -38 -35
-63 -18 -40 -25 -47 -59 -54 -21 -5 -42 -7 -46 -6 -5 1 -6 -3 -3 -8 4 -5 -7
-19 -23 -30 -16 -11 -38 -40 -50 -63 -12 -24 -33 -61 -46 -83 -29 -47 -32 -63
-8 -44 15 13 16 11 9 -11 -7 -27 -31 -201 -46 -340 -5 -47 -10 -85 -10 -86 0
-1 -37 -4 -82 -8 -101 -8 -120 -22 -116 -80 l3 -41 65 2 c36 1 76 4 90 7 l25
5 -6 -102 c-4 -56 -10 -151 -13 -212 -4 -60 -9 -141 -12 -180 -10 -114 -43
-168 -112 -180 -44 -7 -50 -17 -48 -75 1 -34 1 -34 51 -35 28 0 126 3 220 8
190 9 209 16 217 82 4 33 3 33 -32 28 -19 -2 -43 -6 -53 -8 -11 -2 -21 5 -27
18 -4 12 -22 35 -39 51 -16 16 -29 32 -27 35 2 3 7 119 10 256 7 253 12 311
26 320 5 3 47 7 95 9 47 2 92 10 100 16 13 11 41 89 33 94 -28 18 -67 24 -124
20 -38 -3 -75 -7 -81 -9 -18 -6 -16 16 6 104 11 42 32 128 46 191 27 119 59
202 89 233 18 18 81 23 103 9 7 -4 19 -24 28 -45 14 -34 14 -39 -5 -72 -19
-34 -30 -76 -12 -48 4 7 8 -14 7 -45 0 -49 4 -62 28 -87 15 -16 27 -33 27 -37
0 -5 7 -8 15 -8 17 0 45 -60 46 -99 0 -14 4 -35 9 -46 14 -29 6 73 -8 105 -11
27 -8 31 47 62 49 27 71 73 71 148 0 73 -30 149 -71 186 -36 32 -133 81 -188
95 l-48 12 23 35 c13 19 24 39 24 44 0 17 -19 -2 -41 -42 -18 -32 -28 -40 -51
-40 -15 0 -28 2 -28 5 0 3 16 37 35 76 19 39 35 75 35 80 0 12 -17 11 -25 -1z"/>
<path d="M1871 1967 c-11 -18 -11 -20 0 -9 7 6 21 12 30 12 26 0 31 15 5 18
-13 1 -27 -7 -35 -21z"/>
<path d="M3322 1932 c-61 -67 -87 -102 -75 -102 13 1 37 23 56 53 11 17 24 26
33 23 12 -5 19 6 12 18 -2 2 5 13 16 24 10 12 16 25 15 31 -2 6 -28 -16 -57
-47z"/>
<path d="M852 1959 c-7 -11 -11 -24 -8 -27 10 -9 28 15 24 32 -2 14 -5 13 -16
-5z"/>
<path d="M1575 1970 c-3 -5 -1 -10 4 -10 6 0 11 5 11 10 0 6 -2 10 -4 10 -3 0
-8 -4 -11 -10z"/>
<path d="M2227 1973 c-4 -3 -7 -11 -7 -17 0 -6 5 -5 12 2 6 6 9 14 7 17 -3 3
-9 2 -12 -2z"/>
<path d="M2326 1971 c-4 -7 -5 -15 -2 -18 9 -9 19 4 14 18 -4 11 -6 11 -12 0z"/>
<path d="M2413 1968 c-23 -30 -24 -41 -2 -21 12 12 20 25 17 28 -3 3 -10 0
-15 -7z"/>
<path d="M325 1960 c-3 -5 -1 -10 4 -10 6 0 11 5 11 10 0 6 -2 10 -4 10 -3 0
-8 -4 -11 -10z"/>
<path d="M946 1941 c-19 -35 -20 -45 -5 -36 12 8 32 56 25 62 -2 3 -12 -9 -20
-26z"/>
<path d="M1036 1935 c-11 -19 -17 -38 -13 -41 3 -3 15 12 27 35 25 50 12 55
-14 6z"/>
<path d="M590 1940 c0 -11 2 -20 4 -20 2 0 6 9 9 20 3 11 1 20 -4 20 -5 0 -9
-9 -9 -20z"/>
<path d="M655 1950 c-3 -5 -1 -10 4 -10 6 0 11 5 11 10 0 6 -2 10 -4 10 -3 0
-8 -4 -11 -10z"/>
<path d="M1212 1948 c-14 -14 -16 -28 -3 -28 9 0 24 30 18 36 -2 2 -9 -2 -15
-8z"/>
<path d="M2505 1898 c-27 -34 -45 -59 -39 -57 12 5 104 104 104 113 0 16 -19
0 -65 -56z"/>
<path d="M2822 1948 c-7 -7 -12 -16 -12 -20 0 -15 15 -8 28 12 13 22 3 27 -16
8z"/>
<path d="M2357 1933 c-4 -3 -7 -11 -7 -17 0 -6 5 -5 12 2 6 6 9 14 7 17 -3 3
-9 2 -12 -2z"/>
<path d="M2927 1923 c-4 -3 -7 -11 -7 -17 0 -6 5 -5 12 2 6 6 9 14 7 17 -3 3
-9 2 -12 -2z"/>
<path d="M3357 1895 c-15 -19 -24 -35 -19 -35 12 0 62 50 62 61 0 18 -16 8
-43 -26z"/>
<path d="M2275 1900 c-10 -11 -16 -22 -14 -24 2 -2 12 7 22 20 22 29 17 32 -8
4z"/>
<path d="M2165 1890 c-16 -17 -16 -20 -3 -15 9 4 19 13 22 21 7 19 2 18 -19
-6z"/>
<path d="M400 1884 c0 -8 5 -12 10 -9 6 3 10 10 10 16 0 5 -4 9 -10 9 -5 0
-10 -7 -10 -16z"/>
<path d="M1500 1861 c-6 -12 -7 -21 -1 -21 10 0 24 30 17 37 -2 3 -9 -5 -16
-16z"/>
<path d="M1816 1853 c-6 -14 -5 -15 5 -6 7 7 10 15 7 18 -3 3 -9 -2 -12 -12z"/>
<path d="M198 1823 l-17 -38 19 24 c17 19 27 51 17 51 -2 0 -10 -17 -19 -37z"/>
<path d="M316 1825 c-20 -30 -21 -41 -2 -26 12 10 29 51 21 51 -1 0 -10 -11
-19 -25z"/>
<path d="M741 1812 c-7 -13 -11 -26 -8 -28 8 -8 29 25 25 38 -3 8 -9 4 -17
-10z"/>
<path d="M2149 1813 c-13 -16 -12 -17 4 -4 9 7 17 15 17 17 0 8 -8 3 -21 -13z"/>
<path d="M2840 1819 c0 -5 5 -7 10 -4 6 3 10 8 10 11 0 2 -4 4 -10 4 -5 0 -10
-5 -10 -11z"/>
<path d="M3379 1793 c-35 -56 -35 -62 0 -23 17 19 31 41 31 48 0 20 -7 14 -31
-25z"/>
<path d="M2250 1785 c-7 -9 -11 -18 -8 -20 3 -3 11 1 18 10 7 9 11 18 8 20 -3
3 -11 -1 -18 -10z"/>
<path d="M2388 1773 c-29 -34 -30 -48 -2 -21 15 15 26 30 23 33 -3 3 -13 -3
-21 -12z"/>
<path d="M2581 1764 c-30 -39 -26 -51 5 -14 15 17 24 33 21 36 -2 3 -14 -7
-26 -22z"/>
<path d="M2992 1778 c-14 -14 -16 -28 -2 -28 5 0 14 9 20 20 12 22 1 27 -18 8z"/>
<path d="M3030 1779 c0 -5 5 -7 10 -4 6 3 10 8 10 11 0 2 -4 4 -10 4 -5 0 -10
-5 -10 -11z"/>
<path d="M539 1753 c-13 -16 -12 -17 4 -4 9 7 17 15 17 17 0 8 -8 3 -21 -13z"/>
<path d="M1435 1760 c-3 -5 -1 -10 4 -10 6 0 11 5 11 10 0 6 -2 10 -4 10 -3 0
-8 -4 -11 -10z"/>
<path d="M2057 1750 c-9 -11 -17 -24 -17 -29 0 -4 -9 -16 -20 -26 -23 -21 -26
-45 -6 -45 19 0 39 27 31 41 -4 6 -4 14 1 18 9 6 36 61 31 61 -1 0 -10 -9 -20
-20z"/>
<path d="M3245 1743 c-14 -15 -25 -32 -25 -37 0 -5 14 6 30 24 17 18 30 35 30
37 0 9 -12 0 -35 -24z"/>
<path d="M838 1738 c-27 -41 -39 -68 -31 -68 10 0 56 80 50 86 -2 3 -11 -6
-19 -18z"/>
<path d="M1527 1753 c-10 -9 -9 -23 2 -23 5 0 11 7 15 15 5 15 -5 20 -17 8z"/>
<path d="M1906 1744 c-9 -24 -7 -28 9 -14 17 14 20 30 6 30 -5 0 -12 -7 -15
-16z"/>
<path d="M3313 1748 c-16 -20 -23 -48 -13 -48 10 0 40 39 40 52 0 12 -16 9
-27 -4z"/>
<path d="M2191 1714 c-15 -21 -27 -31 -31 -24 -4 6 -18 -6 -33 -29 -32 -48
-34 -58 -7 -31 11 11 20 25 20 30 0 6 6 10 13 10 8 0 28 18 46 40 17 22 28 40
24 40 -4 0 -19 -16 -32 -36z"/>
<path d="M2440 1728 c-12 -22 -12 -22 6 -6 10 10 15 20 12 24 -4 3 -12 -5 -18
-18z"/>
<path d="M2755 1672 c-33 -41 -62 -80 -63 -86 -5 -15 71 70 104 117 48 67 21
47 -41 -31z"/>
<path d="M2490 1720 c-6 -11 -8 -20 -6 -20 3 0 10 9 16 20 6 11 8 20 6 20 -3
0 -10 -9 -16 -20z"/>
<path d="M2858 1715 c-22 -30 -24 -58 -2 -30 24 31 36 55 27 55 -4 0 -16 -11
-25 -25z"/>
<path d="M3019 1713 c-13 -16 -12 -17 4 -4 16 13 21 21 13 21 -2 0 -10 -8 -17
-17z"/>
<path d="M3050 1719 c0 -5 5 -7 10 -4 6 3 10 8 10 11 0 2 -4 4 -10 4 -5 0 -10
-5 -10 -11z"/>
<path d="M3383 1705 c-3 -9 -17 -29 -32 -44 -50 -55 -94 -120 -71 -106 5 3 11
1 15 -5 3 -5 2 -10 -3 -10 -5 0 -32 -35 -59 -77 -67 -105 -69 -108 -53 -98 22
13 171 249 166 262 -3 7 0 15 6 19 7 4 8 3 4 -4 -11 -19 9 -14 26 6 20 22 32
72 18 72 -6 0 -13 -7 -17 -15z"/>
<path d="M615 1680 c-16 -16 -24 -30 -19 -30 13 0 54 38 54 50 0 15 -4 13 -35
-20z"/>
<path d="M2290 1665 c-48 -49 -47 -62 2 -17 26 24 54 62 45 62 -1 0 -23 -20
-47 -45z"/>
<path d="M2964 1702 c-5 -4 -20 -22 -33 -39 -29 -42 -3 -34 28 8 23 30 25 44
5 31z"/>
<path d="M2958 1593 c-99 -142 -125 -183 -133 -213 -4 -14 9 1 29 33 19 32 64
97 98 145 81 112 101 142 90 142 -5 0 -43 -48 -84 -107z"/>
<path d="M661 1672 c-17 -31 -13 -40 5 -14 9 13 14 26 11 29 -3 2 -10 -4 -16
-15z"/>
<path d="M1685 1680 c-4 -6 -15 -8 -24 -5 -44 14 -143 -137 -134 -202 3 -19
-2 -41 -13 -58 -14 -22 -15 -27 -4 -23 9 3 22 -6 31 -21 9 -14 32 -35 52 -45
31 -17 41 -18 75 -8 85 26 130 90 141 206 5 54 13 80 32 106 39 52 46 68 20
45 -13 -11 -30 -33 -38 -48 l-14 -28 -27 29 c-15 16 -37 32 -50 36 -12 4 -22
12 -22 17 0 12 -17 12 -25 -1z"/>
<path d="M3094 1667 c-11 -12 -26 -38 -34 -57 -7 -19 -23 -48 -34 -65 -65 -93
-129 -211 -123 -228 5 -15 57 63 57 85 0 10 5 18 10 18 6 0 10 6 10 14 0 7 19
42 43 76 47 69 50 75 66 110 6 14 18 35 27 48 21 29 5 28 -22 -1z"/>
<path d="M414 1647 c-28 -42 -36 -57 -31 -57 7 0 59 81 55 85 -2 2 -13 -11
-24 -28z"/>
<path d="M1162 1660 c-17 -28 -15 -32 8 -13 20 18 26 33 12 33 -4 0 -13 -9
-20 -20z"/>
<path d="M2965 1650 c-10 -11 -16 -22 -13 -25 3 -3 13 4 23 15 10 11 16 22 13
25 -3 3 -13 -4 -23 -15z"/>
<path d="M3185 1660 c-3 -5 -1 -10 4 -10 6 0 11 5 11 10 0 6 -2 10 -4 10 -3 0
-8 -4 -11 -10z"/>
<path d="M2797 1643 c-10 -9 -9 -23 2 -23 5 0 11 7 15 15 5 15 -5 20 -17 8z"/>
<path d="M767 1623 c-4 -3 -7 -13 -7 -22 1 -13 3 -13 11 2 11 19 8 33 -4 20z"/>
<path d="M3150 1611 c-6 -12 -7 -21 -1 -21 10 0 24 30 17 37 -2 3 -9 -5 -16
-16z"/>
<path d="M2646 1604 c-5 -14 -4 -15 9 -4 17 14 19 20 6 20 -5 0 -12 -7 -15
-16z"/>
<path d="M2859 1578 c-46 -58 -89 -117 -89 -123 0 -3 -9 -15 -19 -26 -27 -29
-67 -107 -59 -115 11 -10 60 33 85 74 42 71 44 77 9 37 -20 -22 -36 -46 -36
-53 0 -7 -4 -10 -10 -7 -12 8 46 101 109 175 55 64 66 80 53 80 -5 0 -24 -19
-43 -42z"/>
<path d="M2212 1580 c-14 -23 -16 -40 -4 -40 8 0 32 43 32 55 0 12 -16 3 -28
-15z"/>
<path d="M649 1563 c-7 -16 -15 -31 -17 -36 -2 -4 3 -4 11 -1 14 5 33 52 24
60 -2 2 -10 -8 -18 -23z"/>
<path d="M3180 1579 c0 -5 5 -7 10 -4 6 3 10 8 10 11 0 2 -4 4 -10 4 -5 0 -10
-5 -10 -11z"/>
<path d="M2371 1542 c-23 -36 -23 -36 -1 -17 25 22 45 55 33 55 -4 -1 -19 -18
-32 -38z"/>
<path d="M130 1554 c0 -8 5 -12 10 -9 6 3 10 10 10 16 0 5 -4 9 -10 9 -5 0
-10 -7 -10 -16z"/>
<path d="M338 1526 c-16 -24 -28 -47 -28 -51 0 -4 -15 -28 -33 -54 -49 -69
-99 -161 -94 -174 2 -7 12 2 21 18 67 119 107 187 135 232 18 28 32 56 30 62
-2 6 -16 -9 -31 -33z"/>
<path d="M731 1549 c-7 -12 -10 -23 -8 -26 3 -3 11 5 17 17 15 28 8 35 -9 9z"/>
<path d="M2665 1560 c-3 -5 -1 -10 4 -10 6 0 11 5 11 10 0 6 -2 10 -4 10 -3 0
-8 -4 -11 -10z"/>
<path d="M3182 1540 c-26 -34 -30 -59 -7 -40 18 15 46 70 36 70 -4 0 -17 -13
-29 -30z"/>
<path d="M791 1526 c-23 -37 -30 -73 -8 -41 39 56 48 75 39 75 -6 0 -20 -15
-31 -34z"/>
<path d="M3099 1538 c-7 -13 -19 -33 -27 -45 -25 -39 2 -25 31 16 29 42 32 51
17 51 -5 0 -15 -10 -21 -22z"/>
<path d="M521 1527 c-13 -21 -12 -21 5 -5 10 10 16 20 13 22 -3 3 -11 -5 -18
-17z"/>
<path d="M2743 1539 c-5 -8 -16 -24 -22 -36 -16 -32 4 -30 25 2 18 27 16 57
-3 34z"/>
<path d="M2455 1507 c-10 -15 -16 -30 -13 -32 8 -9 40 33 36 47 -3 8 -11 2
-23 -15z"/>
<path d="M3223 1504 c-44 -64 -97 -115 -115 -111 -11 3 -24 -3 -33 -16 -19
-27 -19 -43 0 -27 8 6 18 9 23 6 6 -3 15 1 22 9 6 7 17 13 23 11 7 -1 9 -1 5
1 -10 6 21 53 36 54 13 0 79 99 66 99 -5 0 -17 -12 -27 -26z"/>
<path d="M2222 1489 c-13 -16 -22 -34 -20 -41 2 -6 14 6 26 27 28 46 25 52 -6
14z"/>
<path d="M1885 1500 c-3 -5 -1 -10 4 -10 6 0 11 5 11 10 0 6 -2 10 -4 10 -3 0
-8 -4 -11 -10z"/>
<path d="M495 1489 c-4 -6 -5 -12 -2 -15 2 -3 7 2 10 11 7 17 1 20 -8 4z"/>
<path d="M2309 1473 c-40 -46 -53 -74 -38 -84 15 -9 52 38 42 54 -3 4 5 19 18
33 12 13 18 24 13 24 -6 0 -21 -12 -35 -27z"/>
<path d="M2675 1490 c-3 -5 -1 -10 4 -10 6 0 11 5 11 10 0 6 -2 10 -4 10 -3 0
-8 -4 -11 -10z"/>
<path d="M1992 1440 c-12 -22 -18 -40 -13 -40 5 0 18 18 30 40 27 52 13 52
-17 0z"/>
<path d="M3134 1466 c-13 -15 -34 -52 -34 -61 0 -13 19 6 39 40 20 34 17 47
-5 21z"/>
<path d="M2586 1451 c-10 -11 -16 -25 -14 -32 2 -7 12 0 22 16 21 32 16 43 -8
16z"/>
<path d="M2680 1438 c-11 -18 -20 -37 -20 -43 1 -14 50 47 50 63 0 20 -9 14
-30 -20z"/>
<path d="M3087 1453 c-16 -16 -19 -16 -27 -3 -5 8 -10 13 -10 10 0 -3 -4 -20
-9 -38 -11 -38 -1 -41 29 -9 21 21 44 57 37 57 -1 0 -11 -8 -20 -17z"/>
<path d="M1839 1416 c-15 -22 -32 -52 -38 -66 -11 -22 -9 -22 13 5 26 30 61
94 54 100 -1 1 -15 -16 -29 -39z"/>
<path d="M2412 1448 c-6 -6 -12 -19 -12 -27 0 -13 2 -13 16 1 9 9 15 21 13 27
-3 9 -8 8 -17 -1z"/>
<path d="M2636 1441 c-10 -11 -16 -26 -14 -33 3 -8 11 -2 23 15 21 33 15 45
-9 18z"/>
<path d="M497 1403 c-4 -3 -7 -11 -7 -17 0 -6 5 -5 12 2 6 6 9 14 7 17 -3 3
-9 2 -12 -2z"/>
<path d="M2361 1367 c-26 -54 -26 -57 2 -57 31 0 62 34 52 57 -6 16 -8 15 -20
-7 -8 -14 -14 -19 -15 -12 0 7 5 22 10 32 6 11 6 21 1 24 -5 4 -19 -13 -30
-37z"/>
<path d="M2853 1371 c-10 -17 -24 -29 -30 -26 -8 2 -13 -4 -13 -15 0 -11 4
-20 9 -20 12 0 65 79 58 87 -4 3 -14 -8 -24 -26z"/>
<path d="M2532 1360 c-18 -29 -15 -36 8 -15 20 18 26 35 12 35 -4 0 -13 -9
-20 -20z"/>
<path d="M689 1353 c-13 -16 -12 -17 4 -4 9 7 17 15 17 17 0 8 -8 3 -21 -13z"/>
<path d="M1480 1355 c-7 -9 -10 -18 -7 -21 3 -3 10 4 17 15 13 25 8 27 -10 6z"/>
<path d="M2628 1345 c-9 -17 -26 -39 -39 -50 l-22 -20 5 23 c4 12 2 20 -3 16
-12 -7 -11 -55 1 -74 8 -12 10 -12 10 -1 0 8 16 34 36 58 19 24 34 51 32 61
-3 13 -7 10 -20 -13z"/>
<path d="M753 1320 c-27 -34 -32 -60 -7 -39 19 15 48 69 37 68 -5 0 -18 -13
-30 -29z"/>
<path d="M3143 1328 c-40 -45 -152 -221 -219 -345 -33 -62 -33 -63 -11 -63 28
0 53 36 37 55 -12 14 59 140 151 270 71 100 89 134 42 83z"/>
<path d="M1777 1313 c-4 -3 -7 -13 -7 -22 1 -13 3 -13 11 2 11 19 8 33 -4 20z"/>
<path d="M3016 1290 c-9 -17 -13 -30 -8 -30 10 0 37 48 31 55 -3 2 -13 -9 -23
-25z"/>
<path d="M3374 1273 c-21 -25 -47 -61 -58 -80 -10 -18 -31 -47 -47 -63 -16
-16 -29 -33 -29 -39 0 -5 -6 -14 -13 -18 -6 -4 -26 -28 -42 -53 -57 -85 -83
-105 -70 -52 5 21 4 24 -6 15 -6 -6 -12 -32 -13 -57 -1 -25 -9 -53 -18 -63 -8
-10 -18 -25 -23 -33 -8 -15 35 31 77 83 13 16 29 34 36 40 7 7 19 18 28 26 8
7 13 18 11 24 -2 7 0 16 5 22 5 5 47 62 94 125 48 63 95 125 106 136 11 12 16
24 11 27 -5 3 -27 -15 -49 -40z"/>
<path d="M2107 1303 c-4 -3 -7 -11 -7 -17 0 -6 5 -5 12 2 6 6 9 14 7 17 -3 3
-9 2 -12 -2z"/>
<path d="M3221 1279 c-11 -19 -23 -38 -28 -44 -21 -26 -113 -180 -113 -190 0
-15 18 -1 29 23 12 26 64 111 119 195 14 20 22 40 19 43 -3 4 -15 -9 -26 -27z"/>
<path d="M1606 1269 c-10 -17 -16 -33 -13 -36 3 -3 13 9 22 27 21 41 14 48 -9
9z"/>
<path d="M2876 1284 c-10 -25 1 -29 14 -5 6 12 7 21 1 21 -5 0 -12 -7 -15 -16z"/>
<path d="M3249 1228 c-47 -67 -72 -108 -65 -108 5 0 126 157 126 165 0 17 -22
-3 -61 -57z"/>
<path d="M2201 1264 c0 -11 3 -14 6 -6 3 7 2 16 -1 19 -3 4 -6 -2 -5 -13z"/>
<path d="M306 1197 c-44 -71 -58 -105 -36 -92 11 7 92 165 85 165 -2 0 -24
-33 -49 -73z"/>
<path d="M1407 1244 c-10 -14 -17 -30 -14 -37 2 -7 12 3 21 21 21 41 18 49 -7
16z"/>
<path d="M2956 1255 c-9 -26 -7 -32 5 -12 6 10 9 21 6 23 -2 3 -7 -2 -11 -11z"/>
<path d="M3170 1259 c0 -5 5 -7 10 -4 6 3 10 8 10 11 0 2 -4 4 -10 4 -5 0 -10
-5 -10 -11z"/>
<path d="M2958 1193 c-42 -69 -70 -123 -64 -123 8 0 108 171 104 176 -3 2 -21
-22 -40 -53z"/>
<path d="M237 1191 c-19 -33 -21 -41 -8 -41 9 0 34 60 28 66 -2 2 -11 -10 -20
-25z"/>
<path d="M2925 1210 c-3 -5 -1 -10 4 -10 6 0 11 5 11 10 0 6 -2 10 -4 10 -3 0
-8 -4 -11 -10z"/>
<path d="M130 1191 c-16 -30 -13 -46 6 -31 26 22 37 50 20 50 -9 0 -20 -9 -26
-19z"/>
<path d="M3098 1166 c-16 -19 -28 -41 -28 -48 0 -7 8 -1 18 15 9 15 20 27 24
27 4 0 12 9 18 20 17 32 -2 23 -32 -14z"/>
<path d="M1342 1153 c-26 -75 -25 -80 2 -48 14 17 26 42 26 58 0 38 -13 34
-28 -10z"/>
<path d="M3005 1169 c-4 -6 -5 -12 -2 -15 2 -3 7 2 10 11 7 17 1 20 -8 4z"/>
<path d="M3381 1151 c-12 -16 -21 -34 -21 -39 0 -6 -8 -13 -17 -15 -16 -4 -16
-5 -1 -6 18 -1 68 53 68 75 0 21 -6 17 -29 -15z"/>
<path d="M170 1150 c0 -5 5 -10 10 -10 6 0 10 5 10 10 0 6 -4 10 -10 10 -5 0
-10 -4 -10 -10z"/>
<path d="M1820 1141 c-7 -15 -7 -21 0 -21 12 0 25 28 17 36 -3 3 -10 -4 -17
-15z"/>
<path d="M1906 1134 c-9 -24 -7 -28 9 -14 17 14 20 30 6 30 -5 0 -12 -7 -15
-16z"/>
<path d="M298 1060 c-24 -46 -49 -94 -56 -107 -7 -13 -12 -29 -9 -36 2 -7 29
39 60 102 66 132 69 163 5 41z"/>
<path d="M401 1107 c-15 -39 -14 -45 5 -19 8 12 13 28 11 35 -3 6 -10 -1 -16
-16z"/>
<path d="M3163 1098 c-19 -25 -24 -38 -14 -38 11 0 35 39 28 46 -2 3 -9 -1
-14 -8z"/>
<path d="M3040 1083 c-40 -47 -70 -91 -70 -103 0 -11 51 55 83 108 12 18 4 15
-13 -5z"/>
<path d="M3381 1058 c-11 -30 -4 -36 14 -12 17 23 19 34 5 34 -6 0 -14 -10
-19 -22z"/>
<path d="M355 1059 c-4 -6 -5 -12 -2 -15 2 -3 7 2 10 11 7 17 1 20 -8 4z"/>
<path d="M1182 1048 c-7 -7 -12 -16 -12 -21 0 -5 7 -1 16 8 9 9 14 18 12 20
-2 3 -10 -1 -16 -7z"/>
<path d="M3279 1013 c-23 -36 -26 -43 -9 -28 31 28 63 75 51 75 -5 0 -24 -21
-42 -47z"/>
<path d="M2906 1027 c-13 -13 -28 -21 -33 -20 -12 4 -32 -46 -26 -64 8 -22 29
-14 42 14 11 23 10 25 -3 13 -12 -9 -16 -10 -16 0 0 6 9 14 20 17 12 3 27 18
36 34 18 35 11 37 -20 6z"/>
<path d="M1407 1009 c-7 -24 -1 -39 14 -39 11 0 12 30 0 48 -6 10 -10 8 -14
-9z"/>
<path d="M1730 1019 c0 -5 5 -7 10 -4 6 3 10 8 10 11 0 2 -4 4 -10 4 -5 0 -10
-5 -10 -11z"/>
<path d="M3086 1008 c-15 -21 -16 -21 -16 -3 -1 14 -7 7 -22 -20 -11 -22 -41
-61 -66 -87 -26 -27 -41 -48 -35 -48 7 0 25 16 40 35 15 19 36 35 46 35 10 0
21 10 26 23 5 13 16 29 26 37 9 7 21 22 26 32 14 26 -6 23 -25 -4z"/>
<path d="M178 967 c-17 -26 -24 -45 -18 -51 11 -11 10 -13 39 38 30 54 12 65
-21 13z"/>
<path d="M1367 993 c-10 -9 -9 -23 2 -23 5 0 11 7 15 15 5 15 -5 20 -17 8z"/>
<path d="M3258 942 c-63 -97 -63 -98 -5 -42 31 30 57 60 57 66 0 23 -31 9 -52
-24z"/>
<path d="M1257 933 c-4 -3 -7 -11 -7 -17 0 -6 5 -5 12 2 6 6 9 14 7 17 -3 3
-9 2 -12 -2z"/>
<path d="M3350 853 c-103 -137 -98 -128 -75 -115 24 13 102 92 91 92 -4 0 8
22 28 49 20 27 36 51 36 55 0 19 -22 -3 -80 -81z"/>
<path d="M406 914 c-8 -22 4 -40 15 -23 11 18 11 39 0 39 -5 0 -12 -7 -15 -16z"/>
<path d="M1816 921 c-4 -7 -5 -15 -2 -18 9 -9 19 4 14 18 -4 11 -6 11 -12 0z"/>
<path d="M272 864 c-16 -33 -44 -99 -61 -149 -18 -49 -39 -102 -47 -117 -15
-29 -19 -78 -5 -78 17 0 58 47 80 93 31 64 20 85 -12 21 -23 -45 -57 -87 -57
-70 0 6 39 103 60 151 5 11 12 31 16 45 4 14 20 54 36 89 37 81 29 92 -10 15z"/>
<path d="M1340 851 c-13 -25 -13 -34 0 -26 16 10 32 45 21 45 -6 0 -15 -9 -21
-19z"/>
<path d="M3141 825 c-28 -42 -44 -45 -35 -9 5 18 3 25 -3 21 -15 -9 -22 -52
-12 -70 6 -9 2 -24 -11 -40 -11 -14 -20 -29 -20 -33 0 -15 49 39 65 72 9 19
20 34 26 34 6 0 8 4 4 9 -3 5 2 16 10 24 16 17 19 27 8 27 -5 0 -19 -16 -32
-35z"/>
<path d="M351 786 c-36 -61 -40 -80 -11 -43 21 26 54 97 46 97 -3 0 -18 -24
-35 -54z"/>
<path d="M425 800 c-3 -5 -1 -18 4 -27 6 -10 11 -13 11 -6 0 6 3 18 6 27 7 17
-11 22 -21 6z"/>
<path d="M3235 789 c-11 -17 1 -21 15 -4 8 9 8 15 2 15 -6 0 -14 -5 -17 -11z"/>
<path d="M1356 774 c-4 -10 -1 -14 6 -12 15 5 23 28 10 28 -5 0 -13 -7 -16
-16z"/>
<path d="M3182 758 c-12 -19 -22 -39 -22 -44 0 -5 -11 -22 -25 -38 -14 -16
-25 -33 -25 -38 0 -4 -4 -8 -9 -8 -6 0 -3 16 5 36 8 20 13 38 11 40 -6 6 -45
-69 -49 -95 -4 -35 18 -37 38 -4 9 15 37 58 62 95 24 36 42 72 40 79 -2 7 -14
-3 -26 -23z"/>
<path d="M190 770 c0 -5 5 -10 11 -10 5 0 7 5 4 10 -3 6 -8 10 -11 10 -2 0 -4
-4 -4 -10z"/>
<path d="M3380 746 c-14 -13 -56 -58 -94 -100 -37 -42 -72 -73 -77 -71 -4 3
-17 -11 -28 -32 -10 -21 -31 -49 -47 -63 -15 -14 -24 -19 -20 -12 5 7 1 12 -9
12 -13 0 -16 -6 -11 -23 5 -23 -8 -50 -46 -91 -10 -11 -18 -25 -18 -30 1 -11
51 42 93 97 80 104 199 239 205 232 4 -4 -94 -159 -145 -228 -15 -21 -29 -33
-31 -28 -7 21 -23 11 -20 -11 2 -14 10 -23 19 -22 13 1 14 -6 6 -48 -10 -51
-5 -70 15 -50 9 9 9 12 -1 12 -12 0 10 32 94 134 72 89 127 146 135 141 4 -3
11 3 15 12 3 10 1 19 -4 21 -6 2 -11 8 -11 14 0 5 9 6 20 3 15 -5 20 -2 19 12
0 11 -3 13 -6 5 -4 -9 -8 -10 -18 -2 -10 9 -16 7 -24 -9 -7 -12 -7 -21 -1 -23
5 -2 -29 -43 -76 -93 -47 -49 -94 -101 -104 -115 -11 -14 -20 -19 -20 -11 0
17 54 116 115 210 31 48 44 76 36 79 -15 5 5 32 25 32 16 0 47 45 42 60 -1 5
-14 -1 -28 -14z"/>
<path d="M1290 740 c0 -5 5 -10 10 -10 6 0 10 5 10 10 0 6 -4 10 -10 10 -5 0
-10 -4 -10 -10z"/>
<path d="M2798 695 c-21 -23 -38 -48 -38 -56 0 -8 10 -2 21 14 11 15 27 27 34
27 11 0 45 41 45 55 0 16 -30 -2 -62 -40z"/>
<path d="M1652 700 c-6 -11 -12 -22 -12 -25 0 -11 20 6 30 26 14 25 -2 25 -18
-1z"/>
<path d="M3229 707 c-18 -14 -43 -57 -33 -57 7 0 28 25 45 53 11 20 10 21 -12
4z"/>
<path d="M386 684 c-10 -25 1 -29 14 -5 6 12 7 21 1 21 -5 0 -12 -7 -15 -16z"/>
<path d="M3151 643 c-48 -88 -71 -142 -61 -148 7 -5 50 74 50 94 0 4 12 30 26
55 15 26 24 49 21 52 -3 3 -19 -21 -36 -53z"/>
<path d="M1219 629 c-13 -23 -32 -53 -41 -68 -9 -14 -17 -34 -17 -43 -1 -9 -7
-21 -15 -25 -13 -8 -46 -65 -46 -80 0 -12 48 62 105 163 30 52 50 94 46 94 -4
0 -18 -19 -32 -41z"/>
<path d="M1775 639 c-4 -6 -5 -12 -2 -15 2 -3 7 2 10 11 7 17 1 20 -8 4z"/>
<path d="M967 633 c-4 -3 -7 -11 -7 -17 0 -6 5 -5 12 2 6 6 9 14 7 17 -3 3 -9
2 -12 -2z"/>
<path d="M1065 605 c-10 -19 -15 -38 -12 -41 3 -3 13 11 22 31 10 19 15 38 12
41 -3 3 -13 -11 -22 -31z"/>
<path d="M1374 632 c-6 -4 -17 -18 -24 -32 -12 -23 -12 -24 4 -11 15 13 41 51
34 51 -2 0 -8 -4 -14 -8z"/>
<path d="M245 589 c-4 -6 -5 -12 -2 -15 2 -3 7 2 10 11 7 17 1 20 -8 4z"/>
<path d="M2798 542 c-57 -58 -98 -125 -98 -162 0 -11 4 -20 10 -20 5 0 14 -10
21 -21 9 -18 7 -27 -11 -51 -26 -36 -17 -53 10 -18 11 14 20 21 20 16 0 -5 6
-4 13 2 7 6 18 7 25 3 21 -13 105 -1 132 18 37 26 71 102 64 140 -8 39 -75
101 -109 101 -27 0 -33 18 -13 38 7 7 8 12 3 11 -6 0 -35 -26 -67 -57z"/>
<path d="M1218 543 c-25 -29 -39 -61 -29 -68 5 -3 13 5 16 17 4 13 14 31 23
41 8 9 13 19 10 22 -3 3 -12 -3 -20 -12z"/>
<path d="M1313 549 c-6 -8 -14 -28 -18 -44 -6 -27 -5 -28 6 -10 7 11 16 23 22
26 5 4 7 14 5 24 -2 15 -5 16 -15 4z"/>
<path d="M1425 550 c-3 -5 -1 -10 4 -10 6 0 11 5 11 10 0 6 -2 10 -4 10 -3 0
-8 -4 -11 -10z"/>
<path d="M1697 533 c-11 -13 -17 -26 -14 -29 2 -3 12 7 21 22 23 33 17 39 -7
7z"/>
<path d="M2610 550 c0 -6 -7 -18 -15 -26 -8 -9 -15 -20 -15 -26 0 -6 1 -9 3
-7 1 2 12 16 25 30 15 17 20 29 13 34 -6 3 -11 1 -11 -5z"/>
<path d="M2616 453 c-37 -57 -66 -108 -64 -114 2 -7 23 18 46 55 23 36 46 66
52 66 5 0 10 7 10 16 0 9 7 22 16 29 9 6 14 20 12 31 -2 14 -22 -9 -72 -83z"/>
<path d="M3131 512 c-17 -31 -13 -40 5 -14 9 13 14 26 11 29 -3 2 -10 -4 -16
-15z"/>
<path d="M182 455 c-16 -34 -15 -34 8 -28 13 3 20 14 20 29 0 31 -14 31 -28
-1z"/>
<path d="M1841 447 c-13 -21 -12 -21 5 -5 10 10 16 20 13 22 -3 3 -11 -5 -18
-17z"/>
<path d="M2217 443 c-4 -3 -7 -11 -7 -17 0 -6 5 -5 12 2 6 6 9 14 7 17 -3 3
-9 2 -12 -2z"/>
<path d="M2280 440 c0 -5 5 -10 10 -10 6 0 10 5 10 10 0 6 -4 10 -10 10 -5 0
-10 -4 -10 -10z"/>
<path d="M3031 432 c-17 -31 -13 -40 5 -14 9 13 14 26 11 29 -3 2 -10 -4 -16
-15z"/>
<path d="M495 419 c-4 -6 -5 -12 -2 -15 2 -3 7 2 10 11 7 17 1 20 -8 4z"/>
<path d="M1347 423 c-4 -3 -7 -11 -7 -17 0 -6 5 -5 12 2 6 6 9 14 7 17 -3 3
-9 2 -12 -2z"/>
<path d="M241 394 c-6 -15 -9 -29 -7 -32 3 -2 10 8 16 23 6 15 9 29 7 31 -2 2
-9 -8 -16 -22z"/>
<path d="M1812 408 c-21 -26 -71 -118 -64 -118 9 0 84 121 79 127 -2 2 -9 -2
-15 -9z"/>
<path d="M1130 384 c0 -8 5 -12 10 -9 6 3 10 10 10 16 0 5 -4 9 -10 9 -5 0
-10 -7 -10 -16z"/>
<path d="M2500 390 c0 -5 5 -10 10 -10 6 0 10 5 10 10 0 6 -4 10 -10 10 -5 0
-10 -4 -10 -10z"/>
<path d="M2331 349 c-13 -17 -21 -33 -18 -35 2 -3 16 11 31 31 15 19 23 35 18
35 -4 0 -18 -14 -31 -31z"/>
<path d="M2979 353 c-22 -46 -22 -50 1 -15 13 18 20 35 18 37 -3 3 -11 -7 -19
-22z"/>
<path d="M411 339 c-6 -18 -9 -34 -7 -36 2 -2 9 10 15 28 6 18 9 34 7 36 -2 2
-9 -10 -15 -28z"/>
<path d="M356 333 c-3 -10 -10 -28 -16 -40 -16 -38 5 -26 23 12 20 41 20 45 8
45 -5 0 -11 -8 -15 -17z"/>
<path d="M2466 341 c-4 -7 -5 -15 -2 -18 9 -9 19 4 14 18 -4 11 -6 11 -12 0z"/>
<path d="M2130 309 c0 -5 5 -7 10 -4 6 3 10 8 10 11 0 2 -4 4 -10 4 -5 0 -10
-5 -10 -11z"/>
<path d="M2654 295 c-11 -27 2 -37 14 -11 7 16 8 26 1 26 -5 0 -12 -7 -15 -15z"/>
<path d="M1105 243 c-9 -20 -14 -44 -13 -53 2 -8 13 9 25 38 12 28 18 52 13
52 -6 0 -17 -17 -25 -37z"/>
<path d="M1725 270 c-3 -5 -1 -10 4 -10 6 0 11 5 11 10 0 6 -2 10 -4 10 -3 0
-8 -4 -11 -10z"/>
<path d="M3000 257 c0 -25 2 -27 20 -17 11 6 20 15 20 21 0 6 -5 7 -11 3 -6
-3 -15 0 -20 7 -6 10 -9 6 -9 -14z"/>
<path d="M1656 241 c-17 -32 -22 -81 -8 -81 11 0 72 69 72 81 0 17 -15 9 -25
-13 -6 -12 -16 -23 -22 -26 -16 -5 -17 30 -1 46 6 6 9 14 6 18 -4 3 -14 -8
-22 -25z"/>
<path d="M2807 263 c-4 -3 -7 -11 -7 -17 0 -6 5 -5 12 2 6 6 9 14 7 17 -3 3
-9 2 -12 -2z"/>
<path d="M3065 239 c-4 -6 -5 -12 -2 -15 2 -3 7 2 10 11 7 17 1 20 -8 4z"/>
<path d="M1010 215 c-7 -9 -10 -18 -7 -21 3 -3 10 4 17 15 13 25 8 27 -10 6z"/>
<path d="M2896 215 c-9 -26 -7 -32 5 -12 6 10 9 21 6 23 -2 3 -7 -2 -11 -11z"/>
<path d="M1796 211 c-4 -7 -5 -15 -2 -18 9 -9 19 4 14 18 -4 11 -6 11 -12 0z"/>
<path d="M2327 923 c-4 -3 -7 -13 -7 -22 1 -13 3 -13 11 2 11 19 8 33 -4 20z"/>
<path d="M995 2110 l-30 -8 35 -1 c19 0 42 4 50 9 12 8 11 10 -5 9 -11 -1 -33
-5 -50 -9z"/>
<path d="M3790 1307 c0 -53 4 -97 8 -97 9 0 6 179 -3 188 -3 3 -5 -38 -5 -91z"/>
<path d="M3803 1145 c0 -22 2 -30 4 -17 2 12 2 30 0 40 -3 9 -5 -1 -4 -23z"/>
<path d="M3803 1015 c0 -33 2 -45 4 -27 2 18 2 45 0 60 -2 15 -4 0 -4 -33z"/>
<path d="M3813 850 c0 -30 2 -43 4 -27 2 15 2 39 0 55 -2 15 -4 2 -4 -28z"/>
<path d="M3824 665 c0 -49 1 -71 3 -48 2 23 2 64 0 90 -2 26 -3 8 -3 -42z"/>
<path d="M3831 544 c0 -11 3 -14 6 -6 3 7 2 16 -1 19 -3 4 -6 -2 -5 -13z"/>
<path d="M3833 445 c0 -22 2 -30 4 -17 2 12 2 30 0 40 -3 9 -5 -1 -4 -23z"/>
<path d="M3867 398 c7 -46 13 -48 13 -5 0 21 -4 37 -9 37 -5 0 -7 -15 -4 -32z"/>
<path d="M3843 330 c0 -25 2 -35 4 -22 2 12 2 32 0 45 -2 12 -4 2 -4 -23z"/>
<path d="M3882 310 c0 -14 2 -19 5 -12 2 6 2 18 0 25 -3 6 -5 1 -5 -13z"/>
<path d="M3841 244 c0 -11 3 -14 6 -6 3 7 2 16 -1 19 -3 4 -6 -2 -5 -13z"/>
<path d="M3847 120 c3 -52 7 -97 9 -99 7 -8 3 104 -6 149 -5 31 -6 15 -3 -50z"/>
<path d="M3883 120 c0 -25 2 -35 4 -22 2 12 2 32 0 45 -2 12 -4 2 -4 -23z"/>
<path d="M3891 24 c0 -11 3 -14 6 -6 3 7 2 16 -1 19 -3 4 -6 -2 -5 -13z"/>
</g>
</svg>
