<?xml version="1.0" standalone="no"?>
<!DOCTYPE svg PUBLIC "-//W3C//DTD SVG 20010904//EN"
 "http://www.w3.org/TR/2001/REC-SVG-20010904/DTD/svg10.dtd">
<svg version="1.0" xmlns="http://www.w3.org/2000/svg"
 width="633.000000pt" height="355.000000pt" viewBox="0 0 633.000000 355.000000"
 preserveAspectRatio="xMidYMid meet">
<metadata>
Created by potrace 1.16, written by Peter Selinger 2001-2019
</metadata>
<g transform="translate(0.000000,355.000000) scale(0.100000,-0.100000)"
fill="#000000" stroke="none">
<path d="M6280 3453 c0 -54 -3 -218 -6 -365 -5 -194 -3 -268 5 -268 8 0 11
103 11 365 0 201 -2 365 -5 365 -3 0 -5 -44 -5 -97z"/>
<path d="M1805 3520 c-3 -5 -3 -26 1 -45 11 -60 85 -61 92 -1 2 18 -3 33 -15
42 -21 16 -69 18 -78 4z"/>
<path d="M100 3405 c-7 -8 -22 -15 -34 -15 -19 -1 -20 -2 -4 -13 11 -9 22 -43
31 -95 8 -46 17 -85 21 -89 17 -18 31 23 31 95 l0 77 80 1 c44 1 172 -3 285
-7 113 -5 331 -11 485 -14 378 -7 420 -12 420 -49 0 -16 -5 -22 -15 -19 -12 4
-12 3 -1 -5 11 -8 11 -18 -4 -61 -9 -28 -23 -95 -30 -148 -8 -54 -28 -165 -45
-248 -34 -164 -54 -303 -76 -515 -3 -25 -11 -110 -19 -190 -24 -226 -16 -206
-83 -214 -31 -4 -118 -9 -192 -12 -74 -4 -142 -9 -150 -14 -21 -10 -90 0 -91
14 -1 6 -1 79 -1 161 1 105 -2 141 -8 121 -5 -17 -10 -91 -11 -165 l-1 -136
-62 2 c-33 1 -114 5 -178 9 -88 5 -118 4 -118 -5 0 -6 7 -14 15 -17 27 -11 5
-23 -38 -20 -59 3 -127 -13 -127 -30 0 -15 16 -20 105 -30 43 -5 54 -9 40 -14
-11 -4 -24 -4 -30 0 -5 4 -19 4 -30 0 -55 -18 -85 -33 -86 -43 0 -7 -5 2 -10
18 -18 58 -27 699 -15 964 4 82 2 125 -8 155 -15 46 -13 122 3 118 6 -1 11 9
11 23 0 15 -5 24 -12 23 -7 -2 -12 5 -10 15 2 9 -3 17 -10 17 -9 0 -9 3 0 12
15 15 16 84 1 94 -6 3 -15 0 -20 -7 -12 -20 1 -262 15 -271 8 -6 8 -10 -1 -16
-8 -5 -12 -59 -13 -172 0 -91 -2 -226 -3 -300 -1 -74 -1 -205 1 -290 1 -85 -3
-202 -8 -260 -5 -58 -10 -224 -10 -370 1 -146 -4 -283 -9 -305 -5 -22 -7 -59
-4 -83 4 -26 1 -52 -7 -66 -8 -16 -11 -56 -8 -125 3 -84 1 -101 -12 -105 -12
-3 -12 -4 2 -5 16 -1 17 -21 17 -228 0 -126 0 -241 1 -258 2 -60 -4 -94 -17
-99 -18 -7 -17 -26 2 -26 8 0 14 -6 12 -13 -2 -13 411 -13 913 -1 129 3 285 7
346 8 119 3 129 5 137 35 4 17 -2 20 -57 26 -33 3 -74 3 -91 1 -16 -3 -38 -5
-48 -5 -10 -1 -15 -5 -12 -11 4 -6 -18 -10 -60 -10 -41 0 -64 4 -60 10 4 6 -2
7 -17 1 -13 -5 -109 -8 -214 -6 -105 2 -211 -1 -235 -5 -24 -4 -112 -11 -195
-14 -130 -5 -153 -4 -164 9 -9 11 -22 14 -42 10 -17 -4 -35 -2 -43 5 -8 7 -29
10 -46 8 -30 -5 -31 -4 -24 26 4 17 9 55 12 83 3 29 9 53 15 53 6 0 8 24 3 68
-3 37 -6 84 -5 104 0 21 -7 50 -16 64 -10 15 -13 29 -8 32 5 4 9 54 9 112 0
58 4 120 8 138 8 29 6 34 -11 39 -18 4 -19 13 -17 116 1 62 6 120 10 129 4 10
21 20 38 22 33 5 166 25 202 31 21 3 298 72 398 99 44 12 63 13 76 4 20 -12
51 -5 51 11 0 6 -12 8 -29 5 -16 -3 -31 -2 -35 4 -4 7 -23 5 -53 -5 -48 -14
-170 -36 -275 -48 -32 -3 -58 -10 -58 -15 0 -5 17 -6 38 -3 20 3 34 3 30 -1
-8 -9 -199 -50 -278 -60 -30 -4 -65 -10 -77 -13 -22 -5 -23 -2 -23 50 0 31 4
58 10 62 6 4 6 15 0 31 -6 14 -7 30 -4 36 4 5 6 58 5 116 -2 100 -1 107 21
125 l23 18 -23 -6 c-20 -6 -23 -4 -20 17 2 19 8 22 33 20 34 -4 46 -13 27 -19
-22 -8 26 -36 67 -39 20 -2 59 -4 86 -5 l50 -1 -40 -8 c-22 -5 -53 -11 -70
-14 -28 -5 -28 -5 -5 4 21 8 19 9 -15 5 -22 -3 -46 -5 -52 -5 -22 0 -14 -27
10 -35 19 -6 16 -8 -23 -20 -33 -10 -38 -13 -20 -14 14 -1 31 -5 37 -9 13 -8
220 19 241 32 6 4 40 9 74 11 89 6 234 22 281 31 15 3 27 1 27 -4 0 -5 -24
-12 -52 -15 -29 -3 -89 -13 -133 -21 -107 -21 -189 -33 -313 -45 -101 -11
-142 -27 -127 -51 10 -17 25 -11 25 9 0 16 9 20 50 23 28 1 51 -1 53 -7 2 -6
18 -5 43 2 56 17 183 28 164 14 -8 -6 -23 -8 -33 -5 -24 8 -57 -5 -57 -22 0
-8 -7 -14 -15 -14 -8 0 -12 6 -9 14 4 10 -2 12 -20 9 -14 -3 -25 -8 -24 -12 2
-18 -3 -22 -16 -12 -18 15 -111 4 -126 -14 -19 -23 38 -27 125 -9 44 9 98 20
120 24 22 4 92 19 155 33 63 14 147 30 185 36 39 6 102 18 140 26 l70 14 -55
-3 c-30 -3 -63 -7 -72 -11 -10 -4 -18 -3 -18 3 0 6 17 16 38 21 48 14 125 14
117 1 -3 -5 3 -10 14 -10 10 0 22 6 24 13 4 9 8 9 15 -2 7 -9 19 -11 41 -6 36
8 42 25 9 25 -13 0 -30 4 -38 10 -13 8 -13 10 0 14 29 10 135 26 172 26 46 0
51 17 6 22 -22 2 -2 8 62 19 52 9 97 15 99 13 2 -2 -18 -13 -45 -24 -83 -35
-134 -64 -134 -77 0 -17 17 -17 23 0 3 7 6 5 6 -5 1 -10 -3 -18 -9 -18 -5 0
-10 -4 -10 -10 0 -14 63 -7 68 8 2 7 -5 12 -17 12 -22 0 -30 16 -8 17 6 0 20
4 30 8 10 4 17 3 17 -5 0 -6 8 -9 18 -6 12 4 27 -10 54 -54 29 -46 48 -65 90
-86 l53 -27 -40 -12 c-22 -6 -45 -8 -51 -4 -10 8 -28 7 -122 -12 -46 -9 -56
-8 -86 10 -34 21 -67 76 -72 119 -2 16 5 26 22 34 13 6 24 15 24 20 0 13 -12
9 -59 -17 -25 -15 -74 -30 -115 -36 -39 -6 -144 -24 -233 -40 -89 -17 -176
-33 -195 -35 -18 -3 -46 -9 -63 -14 -16 -4 -68 -13 -115 -20 -47 -6 -103 -15
-125 -20 -22 -4 -78 -14 -125 -21 -92 -13 -139 -35 -57 -26 26 2 47 1 47 -4 0
-5 -7 -9 -15 -9 -18 0 -20 -20 -2 -21 6 -1 -8 -7 -33 -15 l-45 -14 45 6 c164
19 209 26 245 36 22 6 60 12 85 13 72 3 130 16 123 28 -4 6 2 8 18 3 59 -17
95 -18 111 -2 9 9 24 16 32 16 9 0 16 4 16 10 0 6 -9 6 -26 0 -34 -13 -61 -13
-48 0 6 6 35 13 65 15 40 4 49 3 34 -5 -15 -7 -3 -9 48 -7 40 2 67 -2 67 -8 0
-27 -54 -147 -71 -156 -11 -5 -19 -15 -17 -22 1 -7 -6 -35 -15 -63 -25 -74
-27 -91 -11 -105 21 -17 18 -49 -6 -49 -17 0 -19 -6 -17 -43 1 -23 8 -47 16
-53 11 -8 0 -14 -48 -24 -75 -16 -74 -25 0 -12 60 11 85 2 70 -27 -17 -32 14
-73 114 -149 33 -25 62 -49 65 -53 9 -11 113 -61 170 -81 42 -14 95 -20 220
-24 91 -3 171 -7 178 -9 19 -7 14 -25 -6 -25 -24 0 -32 -8 -26 -25 4 -10 24
-12 77 -9 209 11 317 12 322 4 3 -5 20 -7 36 -3 20 4 34 1 38 -6 5 -8 18 -10
34 -6 15 4 25 11 22 15 -5 9 71 21 146 24 25 0 44 6 47 14 3 10 -6 13 -34 12
-22 -1 -50 -1 -64 -1 -23 1 -23 3 -7 12 11 7 40 9 70 5 99 -12 201 -9 239 8
21 9 55 16 77 16 22 0 43 5 46 10 4 6 -5 10 -20 10 -14 0 -24 4 -21 9 4 5 -11
7 -33 4 -34 -5 -39 -3 -38 13 2 16 -6 19 -53 20 -31 0 -62 4 -70 9 -8 5 -25 8
-37 7 -11 -2 -24 2 -28 7 -3 6 -24 11 -45 11 -41 0 -62 16 -39 31 12 7 11 9
-1 9 -9 0 -21 -5 -27 -11 -10 -10 -66 -10 -253 3 -30 3 -125 -1 -210 -7 -89
-7 -156 -8 -159 -3 -7 18 -82 58 -148 79 -37 11 -82 27 -100 35 -17 8 -38 11
-47 8 -22 -8 -106 61 -106 87 0 19 -26 74 -52 111 -10 13 -9 29 3 74 13 51 17
57 43 60 37 4 46 14 12 14 l-27 0 17 33 c18 35 61 76 82 77 21 0 13 -17 -10
-24 -17 -4 -20 -8 -11 -17 9 -9 24 -6 65 15 30 15 61 28 70 29 8 2 22 10 31
19 9 8 32 19 52 22 20 4 39 14 42 22 7 19 18 18 39 -3 10 -10 21 -18 25 -18 4
0 11 -3 15 -7 11 -11 36 -10 30 1 -4 5 11 7 32 4 21 -3 80 2 132 11 97 17 181
21 130 7 -37 -10 -7 -24 36 -17 30 6 49 26 24 26 -5 0 -10 5 -10 11 0 6 7 9
15 5 8 -3 15 -1 15 5 0 7 -25 8 -75 4 -50 -5 -75 -4 -75 3 0 14 44 23 113 21
53 -2 57 -3 57 -25 0 -22 3 -23 53 -20 28 2 57 5 62 6 22 5 35 -1 35 -15 0 -8
-9 -15 -20 -15 -11 0 -20 -6 -20 -13 0 -9 11 -12 33 -9 35 4 73 -20 62 -39 -4
-5 1 -9 9 -9 14 0 20 -12 17 -32 0 -5 4 -8 9 -8 6 0 16 -11 22 -25 6 -14 17
-25 24 -25 7 0 15 -8 18 -17 6 -17 21 -27 114 -73 25 -13 52 -36 64 -56 11
-19 26 -34 34 -34 8 0 14 -7 14 -15 0 -8 4 -15 9 -15 6 0 22 -11 37 -25 18
-17 34 -23 46 -19 10 3 26 0 34 -7 25 -21 40 5 20 35 -9 14 -16 31 -15 38 0 7
4 4 9 -8 6 -15 18 -21 46 -22 42 -2 74 -22 35 -22 -17 0 -22 -4 -17 -16 3 -9
6 -18 6 -20 0 -2 7 -4 16 -4 13 0 14 3 5 13 -8 10 -7 14 2 15 12 1 207 9 307
12 l55 2 -35 12 c-33 12 -33 13 -13 20 13 4 26 5 30 3 5 -3 17 -1 28 4 12 4
-25 8 -92 8 -95 1 -113 3 -113 17 0 13 -8 14 -47 8 -60 -8 -68 -14 -20 -14 52
0 57 -20 5 -21 -24 -1 -46 -1 -50 0 -5 0 -8 -7 -8 -17 -1 -16 -1 -16 -11 1 -8
13 -18 17 -35 13 -14 -4 -24 -2 -24 4 0 5 13 10 29 10 17 0 33 5 36 10 4 7
-12 8 -48 4 -51 -6 -54 -5 -60 17 -4 13 -2 26 3 27 6 2 10 10 10 18 0 20 13
17 40 -9 l25 -22 -35 -7 c-35 -7 164 -1 211 6 83 13 148 16 154 6 4 -6 -13
-10 -47 -11 -29 0 -62 -5 -73 -10 -14 -6 9 -8 69 -5 56 3 92 10 97 18 4 7 11
9 15 5 4 -4 13 1 20 11 11 15 27 17 119 14 58 -1 111 1 118 5 18 11 167 13
167 2 0 -5 -21 -9 -47 -9 -25 0 -43 -3 -40 -7 12 -11 111 -3 119 10 5 9 10 9
19 0 7 -7 20 -9 33 -3 12 4 43 6 68 3 36 -4 45 -9 41 -20 -4 -11 0 -14 13 -11
10 2 18 10 16 16 -3 17 9 19 103 26 67 4 77 3 62 -8 -20 -15 -22 -26 -4 -26
18 -1 59 -93 45 -101 -6 -4 -17 -5 -25 -2 -7 3 -13 1 -13 -5 0 -16 48 -24 71
-11 11 6 28 8 37 5 15 -5 15 -4 0 8 -22 16 -23 39 -3 56 8 7 15 22 15 33 0 31
18 8 22 -28 2 -20 -1 -29 -9 -28 -19 4 -16 -14 3 -21 10 -4 13 -13 9 -26 -6
-18 -4 -19 27 -8 18 6 34 12 35 12 1 1 -4 20 -12 41 -18 52 -18 65 0 65 8 0
15 7 15 15 0 8 -6 12 -14 9 -11 -4 -17 5 -22 30 -3 20 -12 36 -19 36 -7 0 -17
6 -23 13 -8 10 -1 12 34 12 27 0 48 -5 53 -14 11 -17 51 -5 51 15 0 8 12 19
26 24 17 7 24 15 20 25 -3 8 -1 17 4 20 6 4 10 -3 10 -14 0 -12 5 -21 10 -21
6 0 10 9 10 20 0 23 4 24 29 8 24 -15 53 -4 44 18 -5 14 1 16 38 14 79 -5 111
-1 106 13 -2 7 -21 12 -51 11 -41 -1 -47 2 -52 22 -7 26 -7 26 -46 29 -16 1
-28 -3 -28 -9 0 -6 -11 -12 -25 -12 -14 -1 -25 2 -25 7 0 5 6 9 13 9 21 0 59
70 53 99 -3 14 0 53 7 85 9 47 9 60 -1 64 -6 2 -12 10 -12 17 0 8 -7 35 -16
60 -14 42 -14 49 0 70 20 31 20 32 -4 38 -11 3 -20 11 -20 18 0 10 3 10 11 2
6 -6 18 -9 25 -6 8 3 14 -1 14 -8 0 -11 3 -11 11 1 8 11 12 12 16 3 2 -8 22
-13 44 -13 21 0 39 -4 39 -9 0 -5 7 -12 16 -15 15 -6 15 -4 3 10 -13 16 -11
17 20 11 18 -4 38 -7 43 -7 6 0 8 -7 4 -15 -4 -12 3 -15 29 -15 19 0 35 5 35
10 0 6 -7 10 -15 10 -8 0 -15 4 -15 9 0 13 39 21 46 10 3 -6 15 -9 27 -7 14 2
23 -3 25 -14 2 -11 -3 -18 -13 -18 -9 0 -13 -5 -10 -10 3 -6 15 -10 26 -10 11
0 17 4 14 10 -3 5 -1 19 5 30 9 17 14 19 26 9 11 -9 21 -9 37 -2 16 8 29 8 42
1 15 -9 17 -8 12 6 -5 13 0 16 31 15 30 0 33 -2 17 -9 -11 -5 -18 -9 -15 -11
9 -3 105 -8 165 -8 65 0 73 -9 11 -13 -20 -1 -40 -6 -43 -12 -4 -6 23 -7 72
-3 43 4 89 7 102 7 13 0 22 4 19 9 -7 10 70 31 111 30 27 0 27 -1 6 -9 -13 -5
-23 -12 -23 -16 0 -7 160 5 174 14 5 3 6 0 2 -6 -8 -13 6 -17 17 -5 13 12 168
12 164 0 -2 -7 -25 -12 -52 -13 -27 0 -51 -6 -53 -12 -3 -9 12 -10 101 -3 9 0
17 8 17 16 0 7 8 19 18 24 13 8 8 11 -28 11 -46 2 -46 4 3 14 17 4 25 11 21
18 -7 12 13 9 74 -10 36 -12 44 2 15 24 -17 11 -16 13 10 23 15 6 27 15 27 20
0 6 -7 8 -15 5 -8 -4 -21 -2 -28 4 -6 6 -28 12 -47 15 -21 3 -13 4 22 4 32 0
61 3 65 7 27 26 -123 34 -322 16 -60 -6 -154 -11 -207 -13 l-98 -3 0 61 c0 33
6 78 14 100 9 28 13 86 11 200 -2 88 1 201 6 250 5 50 13 189 20 310 7 132 18
254 29 305 15 67 17 101 10 160 -4 41 -6 79 -3 83 3 5 37 6 75 2 39 -4 172 -7
297 -7 l226 0 0 -164 c0 -140 -2 -159 -12 -131 -11 29 -12 23 -12 -58 2 -165
-2 -223 -12 -195 -5 16 -7 -20 -4 -95 9 -210 7 -397 -5 -490 -7 -57 -9 -125
-4 -185 4 -52 8 -108 7 -125 0 -16 -1 -71 -1 -122 l-2 -92 -77 -4 -78 -3 78
-2 c54 -1 77 -6 77 -14 0 -10 -29 -13 -108 -15 -139 -2 -261 -13 -268 -25 -4
-6 27 -7 82 -3 49 3 108 8 132 9 23 2 42 -1 42 -6 0 -5 6 -6 13 -1 6 4 32 9
58 11 l45 3 2 -358 c1 -197 2 -371 2 -388 0 -16 -1 -50 -3 -75 -5 -52 1 -73
16 -63 7 4 7 -11 1 -48 -5 -30 -9 -152 -9 -272 l0 -219 -35 6 c-19 3 -42 6
-50 6 -13 0 -13 1 0 10 12 7 10 9 -7 7 -12 0 -20 -4 -17 -8 7 -12 -210 -5
-218 6 -5 6 -11 5 -16 -3 -5 -7 -28 -14 -51 -17 -24 -2 -56 -7 -71 -10 -15 -3
-31 -2 -34 3 -3 5 -31 5 -68 0 -73 -10 -92 -6 -59 12 16 8 64 12 140 12 64 0
118 4 122 9 3 5 46 12 95 15 108 6 137 12 129 24 -3 5 -11 7 -18 5 -7 -3 -64
-7 -127 -9 -63 -2 -126 -6 -140 -10 -14 -3 -81 -8 -150 -10 -70 -2 -112 0 -95
4 24 6 18 8 -32 9 -34 0 -65 -3 -68 -9 -3 -5 -11 -10 -16 -10 -6 0 -7 5 -4 10
5 7 -15 9 -62 4 -37 -4 -135 -8 -218 -9 -178 -2 -172 -1 -172 -20 0 -10 6 -13
19 -9 10 3 25 -2 34 -10 8 -9 32 -16 52 -16 20 0 44 -5 52 -10 10 -6 11 -10 3
-10 -7 0 -13 -4 -13 -10 0 -5 23 -10 50 -10 28 0 50 5 50 10 0 6 -14 10 -31
10 -25 0 -29 3 -20 13 11 14 71 11 71 -2 0 -8 191 -4 199 4 2 3 -14 5 -37 5
-23 0 -42 5 -42 10 0 12 0 12 78 14 60 2 84 -10 42 -21 -45 -12 -14 -22 88
-27 157 -9 334 -8 361 2 13 5 48 5 80 0 31 -5 90 -10 133 -12 42 -2 85 -7 96
-10 17 -6 20 0 27 41 5 27 7 87 6 136 -1 48 2 87 6 87 7 0 8 123 3 405 -1 50
0 110 3 135 14 128 19 339 8 390 -7 30 -11 79 -11 108 1 59 -9 87 -21 56 -5
-12 -8 -2 -8 31 0 37 3 45 9 30 10 -23 10 -22 15 25 1 19 -2 56 -8 81 -7 33
-7 60 0 90 l11 44 1 -62 c2 -96 21 -76 21 21 0 56 -4 86 -12 88 -14 5 -32 250
-23 314 3 22 8 146 10 275 2 128 7 263 11 299 4 44 3 62 -4 55 -5 -5 -12 -19
-15 -30 -4 -18 -5 -18 -6 3 0 12 7 34 16 49 9 14 18 44 18 67 11 315 19 443
26 450 16 18 9 44 -13 49 -20 6 -32 -2 -40 -25 -2 -4 -21 -3 -43 2 -38 8 -84
13 -248 25 -73 6 -113 -5 -62 -16 29 -6 29 -7 -7 -8 -21 0 -38 2 -38 7 0 4
-12 8 -27 9 -19 1 -22 -1 -12 -8 10 -6 6 -9 -13 -9 -18 0 -28 5 -28 15 0 18
-72 34 -78 16 -3 -8 -51 -9 -179 -4 -145 5 -176 4 -184 -8 -15 -24 -11 -26 49
-27 31 0 89 -6 127 -13 39 -7 80 -13 93 -13 20 -1 22 -6 24 -61 4 -96 0 -151
-16 -207 -16 -58 -24 -169 -32 -419 -3 -89 -8 -167 -11 -172 -3 -5 -5 -96 -4
-201 1 -146 -2 -203 -14 -241 -8 -27 -15 -76 -15 -107 l0 -57 -104 1 c-57 0
-114 -3 -126 -7 -14 -4 -20 -3 -16 3 9 15 -45 22 -166 22 l-109 0 7 83 c3 45
8 84 10 86 3 3 10 -1 16 -7 7 -7 19 -12 28 -12 9 0 4 7 -12 18 -20 12 -28 25
-28 45 l0 29 24 -29 c25 -29 86 -70 86 -57 0 4 -18 23 -40 42 -46 38 -83 103
-74 126 3 9 1 16 -5 16 -23 0 -10 30 30 67 98 92 119 116 119 132 0 25 -32 51
-61 51 -32 0 -67 24 -51 34 24 15 11 24 -15 11 -15 -8 -29 -13 -30 -11 -2 2 4
22 13 45 11 27 28 48 48 58 23 13 27 18 14 21 -29 6 -55 -15 -78 -63 -12 -25
-26 -43 -31 -39 -14 8 -11 56 6 88 13 24 13 31 3 37 -16 10 -13 101 9 289 8
74 18 180 22 236 4 55 11 105 14 111 4 7 3 14 -2 17 -11 7 -21 -43 -21 -113 0
-32 -5 -84 -11 -117 -15 -80 -16 -85 -29 -279 -8 -103 -18 -181 -27 -198 -7
-15 -11 -32 -8 -37 7 -12 -5 -13 -23 -1 -7 4 -12 14 -10 21 2 9 -14 12 -64 12
-38 -1 -73 -4 -78 -7 -16 -10 -40 14 -33 31 6 15 -23 43 -44 44 -7 0 -13 -9
-13 -21 0 -20 0 -20 -42 3 -24 13 -46 27 -49 31 -3 5 -33 10 -65 12 -32 2 -62
4 -65 4 -4 1 -9 11 -13 24 -3 12 -26 44 -51 71 -28 31 -45 59 -45 74 0 22 9
75 40 237 13 66 18 195 8 195 -4 0 -8 -19 -8 -42 0 -24 -5 -72 -11 -108 -5
-36 -14 -90 -19 -120 -4 -30 -14 -84 -22 -119 l-13 -63 -62 4 c-44 3 -64 0
-67 -9 -3 -7 -1 -15 4 -18 10 -6 2 -75 -10 -89 -5 -5 -33 -1 -63 9 -68 21 -88
18 -107 -20 -14 -29 -18 -31 -70 -28 -30 1 -83 7 -116 14 -46 8 -67 8 -83 0
-22 -12 -143 -7 -164 6 -7 5 15 10 48 13 l60 6 -62 8 c-35 5 -60 12 -58 16 7
11 -32 20 -88 20 -28 0 -64 8 -87 20 -46 24 -99 26 -155 6 -22 -8 -52 -17 -67
-20 -16 -4 -28 -13 -28 -20 0 -9 -18 -15 -57 -18 -32 -3 -67 -9 -77 -13 -13
-6 -17 -5 -13 3 4 6 29 18 55 27 90 32 103 38 99 41 -2 2 -37 -8 -78 -22 -85
-29 -173 -54 -177 -49 -8 7 51 323 83 449 34 136 38 160 18 134 -12 -17 -78
-289 -93 -388 -7 -41 -18 -106 -24 -144 l-12 -69 -53 -29 c-30 -15 -59 -32
-65 -37 -23 -19 -144 -61 -174 -61 -18 0 -32 -5 -32 -11 0 -5 5 -7 11 -3 7 4
10 2 7 -6 -3 -11 -119 -80 -133 -80 -3 0 -5 8 -5 18 0 10 -5 23 -11 29 -13 13
4 71 66 218 23 55 54 134 68 176 38 111 53 279 25 279 -6 0 -8 -11 -5 -26 7
-40 -11 -171 -35 -244 -11 -36 -40 -110 -63 -165 -23 -55 -52 -130 -64 -166
-20 -60 -20 -68 -6 -95 8 -16 15 -35 15 -41 0 -7 -27 -42 -59 -78 -64 -70
-135 -198 -127 -228 6 -23 -104 -189 -145 -219 -16 -12 -29 -27 -29 -33 0 -16
-45 -36 -93 -41 -52 -7 -39 13 19 27 24 6 44 16 44 22 0 5 8 16 18 23 16 12
15 13 -6 14 -13 0 -33 -5 -45 -12 -26 -14 -217 -21 -232 -8 -6 5 -55 5 -109 2
-112 -9 -113 -8 -102 66 10 66 24 193 32 282 4 41 10 85 15 97 4 11 11 47 14
80 19 171 37 298 55 378 11 50 29 147 39 216 11 69 27 153 35 186 9 34 16 70
16 81 0 18 11 20 245 26 134 4 248 5 253 2 5 -3 64 -6 133 -7 68 -1 144 -5
169 -9 36 -7 47 -5 54 7 6 11 17 13 41 9 25 -5 34 -3 39 10 7 19 31 14 31 -7
0 -12 50 -13 330 -11 207 2 369 -1 435 -8 74 -8 106 -8 108 -1 4 12 90 13 170
2 40 -6 57 -4 67 5 9 10 35 12 87 10 40 -3 219 -6 398 -7 179 -1 328 -4 331
-5 10 -5 -19 -120 -47 -188 -14 -34 -32 -88 -40 -121 -8 -33 -24 -84 -35 -113
-23 -63 -26 -132 -5 -132 8 0 16 7 20 15 3 8 1 15 -4 15 -16 0 -11 55 9 102
10 24 22 64 26 88 4 25 25 92 46 150 21 58 39 116 39 130 1 54 14 59 158 57
130 -2 182 8 80 16 -30 2 -11 4 42 4 52 1 89 -1 83 -4 -31 -12 -7 -20 65 -23
138 -5 173 -2 191 15 9 9 25 22 35 29 39 27 -85 29 -2069 29 -643 0 -1390 0
-1660 -1 -269 -1 -492 3 -495 7 -3 4 -115 12 -250 16 -357 12 -355 12 -352 -2
1 -7 -2 -13 -8 -13 -5 0 -10 7 -10 15 0 8 -6 15 -14 15 -7 0 -19 -7 -26 -15z
m2038 -42 c-10 -2 -26 -2 -35 0 -10 3 -2 5 17 5 19 0 27 -2 18 -5z m800 2 c-7
-7 -199 -8 -206 -1 -3 3 43 6 103 6 60 0 106 -2 103 -5z m905 -2 c-7 -2 -19
-2 -25 0 -7 3 -2 5 12 5 14 0 19 -2 13 -5z m1042 -23 c4 -6 -11 -10 -37 -9
-36 1 -39 2 -18 9 36 11 48 11 55 0z m-102 -7 c-7 -2 -19 -2 -25 0 -7 3 -2 5
12 5 14 0 19 -2 13 -5z m1134 -525 c-3 -7 -5 -2 -5 12 0 14 2 19 5 13 2 -7 2
-19 0 -25z m-2862 -52 c19 -14 19 -15 -7 -21 -30 -8 -131 12 -123 24 8 15 110
12 130 -3z m-111 -77 c5 -5 8 -11 5 -13 -6 -6 -112 14 -122 23 -11 11 106 1
117 -10z m114 -12 c6 3 12 0 12 -6 0 -19 -26 -12 -46 12 -19 22 -19 22 1 6 11
-9 26 -14 33 -12z m992 13 c0 -5 -4 -10 -10 -10 -5 0 -10 5 -10 10 0 6 5 10
10 10 6 0 10 -4 10 -10z m-1155 -71 c22 -11 31 -17 20 -14 -11 4 -51 8 -90 11
l-70 4 40 -16 c36 -14 195 -29 195 -18 0 2 -15 13 -32 24 -27 16 -29 20 -12
20 11 0 24 -3 28 -7 4 -4 33 -17 64 -30 31 -12 51 -22 43 -22 -7 -1 -11 -7 -7
-16 3 -9 0 -15 -9 -15 -7 0 -17 -5 -21 -12 -5 -8 4 -10 34 -6 35 5 44 2 64
-20 21 -23 21 -25 3 -18 -11 4 -44 10 -72 13 -29 3 -50 10 -47 14 3 5 -2 9
-10 9 -35 0 -12 -23 52 -53 l67 -31 -50 -9 c-32 -5 -56 -5 -67 2 -11 7 -68 8
-164 4 -135 -6 -147 -5 -141 10 8 22 -25 23 -47 2 -19 -19 -36 -19 -36 0 0 8
-13 23 -30 34 -16 10 -27 21 -23 24 3 4 -2 7 -13 8 -16 0 -15 2 5 10 36 14 22
17 -39 8 -73 -10 -120 -11 -120 -1 0 4 15 16 32 27 26 15 49 18 111 16 54 -2
77 1 72 8 -3 6 -26 11 -51 11 -61 0 -50 13 47 59 l79 38 78 -24 c42 -13 95
-33 117 -44z m-16 49 c40 -15 18 -19 -45 -7 -81 15 -106 32 -34 23 30 -3 66
-11 79 -16z m958 -8 c32 0 83 -33 83 -52 0 -10 5 -18 10 -18 6 0 10 -6 10 -14
0 -21 30 -48 47 -42 19 8 30 -26 29 -86 -1 -26 0 -48 2 -48 2 0 10 7 19 16 11
11 14 27 10 57 l-6 43 39 1 c21 1 56 11 77 23 l38 21 -45 -6 c-42 -6 -44 -5
-26 10 11 8 28 15 38 15 10 0 18 4 18 9 0 6 -12 6 -32 0 -34 -9 -53 -4 -22 7
10 4 34 13 53 20 39 16 51 17 51 5 0 -5 -10 -13 -22 -17 -22 -7 -22 -8 7 -15
20 -6 32 -5 37 4 5 9 14 7 37 -6 16 -9 33 -17 38 -16 11 3 59 -10 120 -32 30
-11 55 -14 58 -9 7 11 55 3 100 -16 36 -15 115 -85 115 -102 0 -6 9 -20 20
-30 l21 -19 -30 -32 c-35 -37 -51 -39 -51 -6 0 16 -6 25 -15 25 -10 0 -15 -10
-15 -30 0 -16 -4 -30 -10 -30 -5 0 -10 14 -10 31 0 28 -2 30 -32 27 -33 -3
-37 -12 -64 -155 -3 -14 -14 -24 -34 -28 -16 -4 -30 -11 -30 -16 0 -6 -4 -7
-10 -4 -11 7 -70 -25 -70 -38 0 -4 -4 -5 -10 -2 -5 3 -10 2 -10 -4 0 -11 -39
-9 -59 4 -16 9 -52 -31 -45 -50 4 -10 -7 -18 -58 -43 -5 -2 -8 3 -8 12 0 19
-27 21 -81 4 -77 -22 -36 -34 43 -12 11 3 18 -2 20 -18 2 -13 9 -22 16 -20 19
4 14 -16 -8 -28 -26 -14 -26 -34 1 -27 32 9 17 -16 -22 -35 -46 -23 -56 -22
-33 3 l19 22 -33 -17 c-26 -13 -33 -22 -29 -37 5 -20 -17 -38 -30 -25 -12 12
31 75 59 87 34 14 40 22 32 44 -5 13 -11 11 -33 -13 -25 -28 -148 -92 -177
-92 -8 0 -14 -4 -14 -10 0 -13 12 -13 44 0 14 5 26 6 26 1 0 -8 -70 -41 -117
-56 -35 -10 -28 -29 7 -21 91 19 97 18 45 -8 l-50 -24 55 -2 55 -1 -59 -30
c-32 -17 -56 -33 -53 -36 5 -5 59 5 145 27 25 6 32 5 32 -6 0 -8 -7 -14 -15
-14 -8 0 -15 -8 -15 -18 0 -10 -25 -46 -55 -79 -59 -65 -63 -73 -41 -73 19 0
27 -70 9 -77 -11 -4 -11 -9 2 -23 12 -13 16 -33 14 -69 -2 -28 0 -54 4 -57 4
-4 7 7 7 24 0 36 17 43 22 10 2 -13 8 -22 14 -21 6 1 18 -15 27 -37 11 -28 26
-44 56 -59 49 -26 52 -36 9 -45 l-33 -7 25 -17 c32 -22 73 -62 68 -67 -2 -2
-26 7 -53 20 -28 14 -65 26 -83 27 -19 1 -36 6 -39 11 -2 4 -22 19 -43 32 -21
13 -47 38 -56 55 -14 22 -23 28 -37 24 -16 -5 -18 -2 -12 15 4 15 -1 28 -19
46 -14 14 -30 25 -36 25 -19 0 -48 42 -42 63 4 14 7 16 13 5 6 -10 11 -10 20
-1 10 10 9 17 -5 32 -10 11 -15 25 -11 30 9 16 -4 53 -16 45 -6 -3 -8 -12 -5
-20 7 -17 5 -17 -30 1 -23 12 -25 15 -11 21 22 8 22 27 0 20 -10 -3 -37 -8
-60 -11 -35 -5 -43 -3 -43 9 0 10 8 15 22 13 17 -2 23 5 29 33 12 51 4 67 -21
45 -25 -23 -29 -19 -39 45 -9 54 -22 74 -58 85 -16 4 -28 0 -43 -17 -79 -92
-87 -98 -126 -98 l-39 0 25 20 c25 19 21 43 -4 25 -61 -45 -68 -48 -93 -39
-45 16 -51 39 -19 73 36 37 30 66 -9 51 -15 -6 -46 -24 -71 -41 -37 -25 -44
-27 -44 -12 0 13 -3 14 -12 5 -7 -7 -19 -12 -28 -12 -9 0 -31 -16 -50 -35 -19
-19 -41 -35 -51 -35 -9 0 -22 -7 -29 -15 -20 -24 -53 -17 -83 16 -27 31 -32
32 -82 14 l-20 -7 20 17 c11 9 26 20 34 24 7 5 11 14 9 22 -4 10 -23 -3 -61
-41 -30 -30 -67 -63 -81 -73 -14 -10 -26 -23 -26 -29 0 -6 10 -2 23 10 26 24
118 72 139 72 8 0 25 -11 38 -25 l24 -25 -32 -31 c-18 -17 -32 -35 -32 -40 0
-13 38 -11 63 3 12 7 30 12 39 12 10 1 44 23 75 49 52 43 175 126 233 157 22
12 22 12 -2 -21 -32 -44 -40 -66 -25 -73 8 -3 7 -8 -4 -15 -9 -6 -54 -42 -100
-80 -57 -48 -94 -71 -119 -75 -20 -3 -50 -13 -68 -21 -42 -21 -92 -35 -92 -26
0 4 19 12 43 19 56 15 75 28 62 41 -7 7 -27 4 -63 -9 -76 -29 -104 -26 -173
20 -33 22 -63 40 -67 40 -15 0 -50 -43 -45 -56 3 -8 -1 -14 -11 -14 -18 0 -23
-49 -6 -66 12 -12 -9 -61 -31 -75 -10 -6 -10 -13 -2 -31 6 -13 15 -33 19 -45
13 -31 100 -93 130 -93 19 0 25 -4 20 -15 -4 -12 3 -15 30 -15 47 0 34 -20
-14 -21 -20 0 -32 -3 -26 -5 7 -3 10 -13 7 -24 -4 -15 -10 -17 -36 -9 -18 5
-36 15 -42 22 -5 8 -23 17 -39 21 -15 4 -30 15 -33 25 -3 12 -11 17 -23 14
-23 -6 -60 13 -60 32 0 7 8 16 18 18 9 3 3 5 -15 6 -38 1 -48 13 -33 41 12 22
1 27 -18 8 -17 -17 -28 0 -14 22 7 11 12 27 12 35 0 8 9 32 20 52 29 55 26 63
-20 59 -34 -3 -40 0 -40 15 0 27 -15 24 -35 -7 -23 -36 -42 -17 -22 22 8 16
19 27 23 24 5 -3 10 3 12 12 5 27 -27 68 -54 68 -12 0 -26 5 -29 10 -3 6 -17
10 -30 10 -32 0 -55 25 -55 61 0 28 -14 37 -45 29 -105 -25 -110 -21 -45 41
31 29 49 53 44 60 -4 8 -3 9 4 5 17 -11 15 9 -3 24 -12 10 -15 9 -15 -4 0 -9
-7 -19 -15 -22 -9 -4 -13 -13 -10 -23 4 -12 -8 -26 -37 -48 -56 -39 -79 -47
-90 -31 -12 20 -9 31 7 25 8 -4 17 -2 21 4 3 5 23 17 45 26 40 15 49 28 27 36
-10 3 -10 8 1 21 8 9 11 19 8 23 -4 3 -29 -17 -57 -45 -37 -35 -57 -48 -71
-45 -11 3 -21 9 -24 12 -4 8 15 67 29 89 12 20 -2 28 -25 13 -26 -16 -34 -9
-20 18 7 13 8 22 1 26 -12 7 8 50 46 94 23 28 24 36 2 32 -11 -2 -10 4 9 44
14 30 15 38 4 45 -9 5 -11 15 -7 26 6 15 9 16 16 4 10 -16 11 -15 30 55 11 41
22 64 75 154 24 42 35 51 55 50 60 -3 115 2 96 10 -26 10 -16 15 72 36 46 11
72 22 72 31 0 8 9 14 19 14 11 0 23 5 26 10 8 13 151 13 176 0 30 -17 23 -29
-21 -36 -26 -4 -40 -12 -40 -21 0 -12 8 -14 38 -8 32 6 228 8 447 3 75 -1 155
10 155 23 0 5 -18 16 -40 25 -23 9 -39 19 -36 21 5 5 109 -27 186 -58 30 -12
66 -26 79 -31 13 -5 22 -11 19 -13 -2 -3 -28 5 -57 16 -30 11 -56 18 -58 15
-7 -7 32 -25 89 -40 l53 -15 -42 0 c-24 -1 -43 -5 -43 -10 0 -15 43 -21 105
-15 l59 5 -60 -45 c-121 -91 -138 -123 -58 -112 24 3 44 2 44 -3 0 -5 -28 -23
-62 -41 -77 -39 -96 -56 -82 -70 11 -11 135 29 204 65 47 24 44 18 -11 -27
-64 -53 -109 -115 -112 -154 -2 -25 2 -29 25 -32 33 -4 115 37 148 74 l25 28
-25 -17 c-83 -57 -160 -82 -160 -54 0 33 89 129 186 200 45 33 56 34 69 5 6
-13 19 -25 30 -27 20 -3 20 -3 1 18 -22 24 -23 24 79 41 39 6 90 10 114 9 28
-2 45 2 52 12 13 20 11 29 -6 29 -8 0 -15 9 -15 19 0 16 10 21 55 26 35 5 54
12 52 19 -4 12 -56 10 -104 -5 -22 -7 -38 -7 -52 0 -31 17 -36 13 -15 -11 12
-13 13 -18 4 -13 -41 23 -62 85 -30 85 20 0 27 14 12 24 -12 7 -12 94 -1 123
14 37 -2 50 -19 17 -9 -16 -17 -24 -19 -16 -3 6 -9 12 -14 12 -5 0 -4 -11 1
-26 10 -26 6 -44 -11 -44 -5 0 -9 18 -9 40 0 23 5 40 11 40 6 0 9 9 6 20 -3
11 -1 20 3 20 5 0 11 -10 13 -22 4 -20 4 -20 6 4 0 14 -4 28 -11 30 -22 8 1
25 27 20 17 -3 25 -11 25 -25 0 -12 12 -34 27 -49 15 -15 21 -28 15 -28 -7 0
-12 5 -12 10 0 16 -17 12 -24 -6 -7 -19 21 -77 34 -69 6 4 10 -3 10 -13 0 -11
-7 -22 -15 -26 -10 -3 -15 -19 -15 -46 0 -34 3 -40 20 -40 34 0 90 28 90 44 0
10 6 13 17 9 13 -5 15 -2 9 12 -4 10 -2 21 4 25 9 5 8 19 -1 49 -10 35 -10 47
0 63 11 17 10 22 -1 29 -7 5 -17 9 -21 9 -18 0 -46 46 -41 66 7 28 -18 37 -53
19 -32 -17 -93 -20 -93 -5 0 13 22 53 35 62 5 4 17 0 26 -8 8 -7 25 -14 36
-14z m-1245 8 c-6 -7 -27 -22 -47 -32 -27 -15 -38 -17 -47 -8 -9 9 0 16 33 31
52 24 77 27 61 9z m591 5 c-7 -2 -21 -2 -30 0 -10 3 -4 5 12 5 17 0 24 -2 18
-5z m-228 -22 c17 -7 15 -9 -13 -13 -22 -3 -32 -1 -32 9 0 14 15 16 45 4z
m101 -38 c-8 -9 -46 18 -40 28 4 6 13 4 25 -7 11 -9 17 -19 15 -21z m504 27
c0 -5 -8 -10 -17 -10 -15 0 -16 2 -3 10 19 12 20 12 20 0z m480 -10 c0 -5 -4
-10 -10 -10 -5 0 -10 5 -10 10 0 6 5 10 10 10 6 0 10 -4 10 -10z m-1550 -19
c0 -5 -32 -25 -70 -46 -39 -20 -76 -45 -83 -56 -6 -10 -17 -19 -24 -19 -7 0
-13 -4 -13 -9 0 -11 -82 -63 -88 -56 -2 2 5 12 16 23 11 11 21 23 23 28 7 16
142 111 198 140 24 13 41 10 41 -5z m857 2 c3 -7 -3 -9 -16 -6 -12 3 -21 10
-21 15 0 13 32 6 37 -9z m-79 -22 c42 2 118 -16 127 -31 3 -6 0 -10 -7 -10 -7
-1 1 -7 17 -14 26 -12 27 -15 12 -21 -28 -12 -112 0 -138 20 -24 17 -24 17 -2
12 13 -3 26 -1 29 4 6 11 -6 12 -63 9 -24 -1 -72 8 -108 20 -66 22 -87 36 -37
26 15 -3 41 -2 57 3 22 6 37 4 53 -6 13 -8 40 -13 60 -12z m707 19 c3 -5 1
-10 -4 -10 -6 0 -11 5 -11 10 0 6 2 10 4 10 3 0 8 -4 11 -10z m84 -11 c-11
-11 -24 -18 -27 -14 -4 4 2 13 12 21 30 21 39 17 15 -7z m-406 -20 c-6 -23
-26 -34 -43 -24 -7 4 -3 14 11 26 29 25 38 24 32 -2z m-78 -28 c26 -13 33 -19
20 -19 -28 -1 -106 36 -80 37 11 0 38 -8 60 -18z m-1270 -11 c-10 -11 -23 -20
-28 -20 -6 0 -21 -10 -34 -22 -16 -15 -23 -17 -23 -7 1 17 67 69 88 69 12 0
12 -4 -3 -20z m1785 11 c0 -9 -41 -23 -48 -16 -2 2 -1 8 3 14 8 13 45 15 45 2z
m-615 -51 c8 -13 -5 -13 -25 0 -13 8 -13 10 2 10 9 0 20 -4 23 -10z m75 0 c13
-8 12 -10 -2 -10 -10 0 -21 -1 -25 -2 -3 -2 -8 3 -10 10 -5 14 16 16 37 2z
m66 -4 c10 -8 16 -17 12 -21 -4 -4 -17 2 -29 14 -26 24 -13 29 17 7z m-1432
-42 c-39 -31 -44 -21 -8 17 18 19 30 25 33 18 2 -7 -9 -23 -25 -35z m1160 20
c27 -8 60 -14 72 -14 12 0 30 -7 38 -16 9 -8 20 -12 26 -9 5 3 10 2 10 -3 0
-14 57 -35 75 -28 8 3 22 3 31 -1 24 -9 -4 -23 -48 -23 -20 0 -59 -5 -86 -11
-45 -11 -52 -10 -72 9 -22 21 -22 21 -1 15 12 -3 21 -1 21 6 0 6 -16 11 -35
11 -19 0 -35 4 -35 9 0 6 -22 22 -50 38 -82 46 -66 51 54 17z m-94 -14 c8 -5
10 -10 4 -10 -7 0 -22 9 -35 21 -19 16 -20 18 -4 10 11 -6 27 -15 35 -21z
m-900 11 c0 -5 -9 -11 -20 -14 -11 -3 -20 -1 -20 3 0 5 8 11 18 13 9 3 18 5
20 6 1 0 2 -3 2 -8z m1317 -23 c-3 -7 -5 -2 -5 12 0 14 2 19 5 13 2 -7 2 -19
0 -25z m-15 -30 c15 -25 8 -29 -22 -11 -16 9 -30 21 -30 25 0 11 43 0 52 -14z
m-1575 -45 c-24 -32 -54 -77 -67 -100 -25 -46 -46 -58 -35 -20 8 27 44 79 62
90 7 4 13 12 13 16 0 12 52 71 63 71 4 0 -12 -26 -36 -57z m1799 0 c-10 -10
-19 5 -10 18 6 11 8 11 12 0 2 -7 1 -15 -2 -18z m-231 -3 c-3 -5 -11 -10 -16
-10 -6 0 -7 5 -4 10 3 6 11 10 16 10 6 0 7 -4 4 -10z m45 -42 c0 -6 9 -22 21
-34 12 -12 18 -27 15 -32 -8 -13 -46 -22 -46 -11 0 5 -10 4 -22 -2 -23 -12
-88 -30 -88 -24 0 2 27 18 60 36 33 17 57 35 54 40 -9 15 -26 11 -93 -21 -36
-17 -71 -28 -79 -25 -8 3 -21 -3 -29 -14 -7 -11 -37 -27 -65 -36 -101 -30
-103 -16 -8 56 39 29 70 56 70 61 0 4 11 3 25 -2 15 -6 25 -6 25 0 0 5 24 11
53 13 28 2 64 4 80 5 15 1 27 -3 27 -10z m908 -40 c-3 -18 0 -41 6 -51 9 -15
7 -21 -8 -33 -39 -28 -40 -23 -15 79 12 45 23 49 17 5z m52 -48 c0 -5 -4 -10
-10 -10 -5 0 -10 5 -10 10 0 6 5 10 10 10 6 0 10 -4 10 -10z m-899 -17 c-11
-5 -11 -7 0 -14 17 -11 -30 -12 -57 -2 -16 6 -16 7 2 14 10 4 30 8 44 8 14 -1
19 -3 11 -6z m942 -80 c4 -6 4 -18 1 -27 -9 -23 -30 -4 -44 40 -9 28 -9 38 2
51 11 14 14 12 23 -18 5 -19 13 -39 18 -46z m-2743 35 c0 -19 -18 -43 -25 -36
-4 3 -2 16 5 27 12 24 20 27 20 9z m2675 -25 c3 -16 19 -44 35 -64 27 -34 28
-39 23 -117 l-6 -81 -64 -7 c-35 -3 -66 -4 -68 -2 -3 3 0 19 6 37 9 26 8 36
-6 57 -20 31 -30 26 -14 -8 9 -20 8 -32 -6 -58 l-17 -32 -99 6 c-54 4 -106 9
-114 12 -21 9 25 73 75 104 22 14 52 44 67 67 15 24 31 43 35 43 4 0 17 9 29
21 l21 21 19 -31 c10 -16 32 -37 48 -46 46 -23 49 -18 8 16 -42 35 -47 61 -14
77 32 16 34 15 42 -15z m-1210 -26 c-22 -15 -82 -37 -99 -37 -19 1 78 49 99
50 19 0 19 0 0 -13z m919 -89 c-29 -57 -78 -122 -82 -110 -2 6 8 26 21 44 14
18 32 48 41 66 9 17 21 32 27 32 5 0 2 -15 -7 -32z m-2414 1 c-7 -11 -14 -18
-17 -15 -3 3 0 12 7 21 18 21 23 19 10 -6z m-76 -143 c-3 -9 -10 -16 -14 -16
-4 0 -19 -12 -34 -26 -14 -15 -26 -23 -26 -18 0 10 72 85 77 80 2 -2 1 -11 -3
-20z m-314 -18 c0 -5 -6 -8 -12 -7 -7 1 -20 0 -28 -4 -8 -3 -72 -8 -142 -11
-103 -4 -128 -2 -128 9 0 10 29 15 118 20 64 3 126 7 137 8 28 4 55 -4 55 -15z
m-1120 -8 c0 -5 -5 -10 -11 -10 -5 0 -7 5 -4 10 3 6 8 10 11 10 2 0 4 -4 4
-10z m790 -6 c0 -8 -4 -12 -10 -9 -5 3 -10 10 -10 16 0 5 5 9 10 9 6 0 10 -7
10 -16z m-697 -1 c-7 -2 -19 -2 -25 0 -7 3 -2 5 12 5 14 0 19 -2 13 -5z m582
-13 c-98 -15 -135 -18 -135 -10 0 9 54 16 135 17 l50 1 -50 -8z m3235 -32 c0
-5 -7 -8 -15 -5 -8 4 -17 1 -21 -5 -4 -6 -12 -2 -20 13 -7 13 -10 27 -8 31 6
9 64 -21 64 -34z m1150 17 c0 -2 -18 -9 -40 -15 -22 -6 -40 -15 -40 -20 0 -6
-7 -10 -16 -10 -14 0 -14 3 -4 15 7 8 9 15 4 15 -5 0 -2 5 6 10 15 10 90 14
90 5z m54 -6 c-5 -8 9 -10 50 -6 31 3 56 1 56 -4 0 -5 -15 -10 -32 -11 -18 0
-44 -3 -58 -5 -14 -2 -45 -5 -70 -8 -45 -4 -45 -4 -6 4 21 5 43 16 48 25 5 9
11 16 14 16 3 0 2 -5 -2 -11z m-3891 -13 c3 -7 -4 -18 -14 -24 -16 -10 -19 -9
-19 3 0 8 -7 15 -15 15 -8 0 -15 4 -15 8 0 14 58 12 63 -2z m3412 4 c4 -6 -12
-10 -39 -10 -25 0 -46 -4 -46 -10 0 -5 7 -10 15 -10 8 0 15 -4 15 -9 0 -16
-287 -34 -296 -19 -6 10 7 11 208 16 49 2 56 5 51 18 -5 14 -16 15 -67 10
-152 -18 -171 -18 -160 -7 5 6 70 15 145 20 73 4 142 9 151 10 9 0 20 -3 23
-9z m104 -6 c10 -9 -65 -3 -78 5 -10 6 1 8 30 4 24 -3 46 -7 48 -9z m-923 -31
c-11 -11 -19 6 -11 24 8 17 8 17 12 0 3 -10 2 -21 -1 -24z m-3569 1 c-8 -7
-237 -10 -237 -3 0 5 21 9 48 10 26 0 70 4 97 7 28 4 60 3 72 -3 12 -5 21 -10
20 -11z m4643 13 c0 -5 6 -5 13 -1 7 4 8 3 4 -2 -5 -5 -14 -9 -20 -10 -7 0
-19 -2 -29 -2 -11 -2 -15 -9 -12 -24 2 -13 2 -18 -1 -13 -3 6 -22 10 -43 8
-32 -2 -33 -1 -12 6 21 8 18 9 -22 10 -38 1 -46 4 -42 16 4 8 14 15 23 15 14
0 14 -2 1 -10 -11 -7 -8 -10 15 -10 17 1 38 7 49 15 19 15 76 16 76 2z m-4923
-13 c-3 -3 -12 -4 -19 -1 -8 3 -5 6 6 6 11 1 17 -2 13 -5z m562 3 c-2 -1 -14
-11 -26 -21 -13 -11 -23 -16 -23 -13 0 10 31 37 42 37 6 0 9 -1 7 -3z m554 -4
c-7 -2 -19 -2 -25 0 -7 3 -2 5 12 5 14 0 19 -2 13 -5z m2547 -8 c-7 -8 -24
-15 -39 -15 l-26 0 25 14 c36 20 56 20 40 1z m1085 -6 l30 -21 -27 5 c-16 2
-28 0 -28 -4 0 -5 -9 -4 -19 3 -20 12 -18 38 3 38 6 0 25 -10 41 -21z m-505 1
c0 -5 -5 -10 -11 -10 -5 0 -7 5 -4 10 3 6 8 10 11 10 2 0 4 -4 4 -10z m405 0
c3 -5 2 -10 -4 -10 -5 0 -13 5 -16 10 -3 6 -2 10 4 10 5 0 13 -4 16 -10z m535
0 c0 -5 -7 -7 -15 -4 -8 4 -15 8 -15 10 0 2 7 4 15 4 8 0 15 -4 15 -10z m117
2 c57 -3 30 -15 -37 -16 -39 -1 -60 2 -60 10 0 6 13 10 30 9 17 -1 47 -2 67
-3z m-4982 -12 c-11 -5 -40 -8 -65 -8 l-45 1 45 7 c25 4 54 7 65 8 l20 1 -20
-9z m142 4 c-3 -3 -12 -4 -19 -1 -8 3 -5 6 6 6 11 1 17 -2 13 -5z m220 0 c-3
-3 -12 -4 -19 -1 -8 3 -5 6 6 6 11 1 17 -2 13 -5z m4263 -3 c0 -5 -7 -11 -14
-14 -10 -4 -13 -1 -9 9 6 15 23 19 23 5z m40 5 c0 -11 -19 -15 -25 -6 -3 5 1
10 9 10 9 0 16 -2 16 -4z m70 -6 c0 -5 -7 -7 -15 -4 -8 4 -15 8 -15 10 0 2 7
4 15 4 8 0 15 -4 15 -10z m-4946 -9 c3 -5 -2 -8 -11 -7 -9 0 -18 -4 -20 -10
-2 -7 9 -9 29 -7 l33 5 -26 -15 c-37 -20 -99 -27 -99 -10 0 7 8 13 19 13 10 0
21 9 24 20 5 20 41 28 51 11z m80 -3 c-3 -4 -20 -8 -37 -7 -24 0 -27 2 -14 8
24 9 57 9 51 -1z m211 2 c-18 -5 -23 -8 -11 -9 11 0 17 -3 15 -6 -3 -2 -23 -1
-45 2 l-39 7 30 7 c17 4 41 7 55 7 22 0 22 -1 -5 -8z m785 0 c-8 -5 -42 -9
-75 -9 -52 1 -55 3 -25 9 55 12 118 12 100 0z m-1265 -9 c-11 -4 -36 -11 -55
-14 -34 -6 -35 -6 -10 8 14 8 39 14 55 14 25 0 27 -2 10 -8z m120 1 c-13 -12
-155 -36 -162 -28 -4 3 2 6 13 6 10 0 37 7 59 15 44 16 105 20 90 7z m1283
-13 c-16 -11 -28 -25 -28 -30 0 -15 23 -10 50 11 32 25 43 25 30 0 -19 -35 16
-36 64 -2 38 28 56 32 56 13 0 -4 -15 -15 -34 -24 -25 -14 -33 -25 -34 -47 -1
-27 1 -28 35 -23 32 5 35 4 30 -11 -4 -10 -2 -26 4 -37 8 -16 17 -19 40 -14
18 4 29 3 29 -4 0 -14 -119 -74 -135 -67 -7 2 -23 -2 -35 -11 -15 -11 -39 -14
-83 -11 -74 4 -126 35 -169 99 -25 38 -26 42 -12 64 8 13 27 31 41 40 21 14
27 15 34 4 5 -8 9 -9 9 -4 1 6 10 -8 22 -30 33 -64 66 -102 103 -119 36 -17
100 -21 109 -7 3 5 -9 9 -28 9 -64 0 -117 43 -151 126 -15 34 -14 35 23 65 20
17 42 30 47 30 6 0 -2 -9 -17 -20z m3375 14 c-7 -2 -19 -2 -25 0 -7 3 -2 5 12
5 14 0 19 -2 13 -5z m407 -2 c0 -12 -28 -22 -34 -12 -3 5 -3 11 1 15 9 9 33 7
33 -3z m-4797 -8 c-7 -2 -21 -2 -30 0 -10 3 -4 5 12 5 17 0 24 -2 18 -5z m220
0 c-7 -2 -21 -2 -30 0 -10 3 -4 5 12 5 17 0 24 -2 18 -5z m3207 3 c0 -3 -4 -8
-10 -11 -5 -3 -10 -1 -10 4 0 6 5 11 10 11 6 0 10 -2 10 -4z m1305 -6 c3 -5 1
-10 -4 -10 -6 0 -11 5 -11 10 0 6 2 10 4 10 3 0 8 -4 11 -10z m-4236 -4 c-2
-2 -35 -6 -74 -10 -48 -4 -65 -3 -55 4 13 9 139 15 129 6z m-294 -29 c-22 -5
-60 -6 -85 -4 -25 3 -67 1 -95 -4 -79 -14 -115 -17 -120 -9 -5 8 76 19 220 29
109 7 143 2 80 -12z m2682 -67 c12 -58 12 -65 -5 -84 -11 -12 -22 -29 -25 -38
-4 -12 -17 -18 -38 -18 -25 0 -29 3 -20 13 6 8 9 16 6 19 -3 3 4 13 15 23 11
10 20 22 20 27 0 12 -38 10 -46 -3 -6 -10 -163 -89 -177 -89 -3 0 -3 9 0 21 3
11 41 47 84 80 44 33 79 66 79 73 0 7 11 25 25 40 24 26 28 27 48 13 15 -10
25 -33 34 -77z m759 36 c65 -61 81 -139 35 -172 -24 -18 -41 14 -48 92 -5 56
-11 71 -39 100 -47 50 -6 34 52 -20z m894 44 c0 -5 -7 -10 -15 -10 -8 0 -15 5
-15 10 0 6 7 10 15 10 8 0 15 -4 15 -10z m-3980 -15 c0 -8 -10 -17 -22 -20
-53 -11 -241 -35 -271 -34 l-32 1 30 9 c17 5 53 13 80 19 56 11 196 38 208 39
4 1 7 -6 7 -14z m2988 -15 c7 -11 8 -20 2 -20 -5 0 -14 9 -20 20 -6 11 -7 20
-3 20 5 0 14 -9 21 -20z m-3243 3 c-11 -3 -24 -9 -30 -13 -11 -9 -166 -39
-230 -46 -43 -4 -31 5 35 25 26 8 28 10 8 7 -16 -2 -25 1 -21 7 3 5 26 7 52 4
25 -2 62 1 81 8 19 7 55 12 80 12 25 0 36 -2 25 -4z m-600 -12 c-22 -4 -51
-10 -65 -14 -20 -5 -19 -4 5 8 17 8 46 14 65 13 l35 -1 -40 -6z m215 -20 c0
-5 -13 -11 -30 -13 -16 -3 -30 -1 -30 3 0 4 12 10 28 12 15 2 28 5 30 6 1 0 2
-3 2 -8z m1535 -11 c3 -6 -1 -13 -9 -16 -9 -3 -16 -10 -16 -16 0 -5 5 -6 10
-3 6 3 10 -2 10 -12 0 -26 -42 -88 -60 -88 -21 1 -40 14 -40 28 0 7 4 6 10 -3
5 -8 10 -10 10 -4 0 7 11 15 25 18 28 7 34 26 8 26 -14 0 -15 2 -1 18 9 9 13
23 10 31 -7 22 31 41 43 21z m-168 -27 c9 -23 -6 -27 -27 -8 -11 10 -20 21
-20 26 0 12 41 -3 47 -18z m2307 11 c9 -24 7 -28 -9 -14 -17 14 -20 30 -6 30
5 0 12 -7 15 -16z m-3286 -6 c-5 -16 -48 -24 -48 -9 0 8 17 16 43 20 5 0 7 -5
5 -11z m-395 -5 c-7 -2 -19 -2 -25 0 -7 3 -2 5 12 5 14 0 19 -2 13 -5z m3509
-15 c-7 -7 -12 -8 -12 -2 0 14 12 26 19 19 2 -3 -1 -11 -7 -17z m-3677 2 c4
-6 -9 -10 -32 -9 -30 0 -34 2 -18 9 27 12 43 12 50 0z m100 0 c-3 -5 -21 -10
-38 -9 -31 1 -31 1 -7 9 36 11 52 11 45 0z m2714 3 c-10 -2 -19 -12 -22 -22
-5 -19 -135 -104 -177 -116 -20 -5 -15 2 24 37 75 66 138 106 166 106 14 0 18
-2 9 -5z m130 -6 c-41 -34 -152 -102 -190 -117 -57 -23 -59 -23 -59 -10 0 5
16 12 35 16 19 3 35 11 35 16 0 5 21 29 48 53 40 38 53 44 91 45 24 0 42 -2
40 -3z m-3042 -13 c-3 -3 -12 -4 -19 -1 -8 3 -5 6 6 6 11 1 17 -2 13 -5z
m3854 -15 c36 -25 38 -43 4 -27 -14 6 -25 17 -25 24 0 7 -6 15 -12 17 -7 3 -9
6 -5 6 5 1 22 -8 38 -20z m-559 -21 c-7 -7 -12 -8 -12 -2 0 14 12 26 19 19 2
-3 -1 -11 -7 -17z m-3463 -20 c0 -18 -4 -42 -9 -53 -6 -15 -9 -6 -9 33 -1 28
4 52 9 52 6 0 10 -15 9 -32z m141 22 c-8 -5 -24 -9 -35 -9 -16 1 -16 2 5 9 35
11 48 11 30 0z m525 4 c-23 -9 -186 -42 -180 -36 12 13 120 40 155 40 19 0 31
-1 25 -4z m1342 -31 c15 -32 13 -36 -21 -27 -28 7 -33 23 -14 42 17 17 21 15
35 -15z m-933 -14 c-6 -10 2 -20 59 -82 35 -38 37 -42 21 -54 -9 -7 -20 -10
-24 -8 -36 22 -192 -131 -183 -179 3 -13 0 -32 -7 -43 -9 -14 -10 -6 -6 41 3
42 11 65 27 82 25 27 10 33 -16 7 -26 -25 -36 -63 -34 -118 l3 -50 -36 -3
c-28 -2 -40 2 -56 22 -11 15 -25 26 -31 26 -14 0 -14 6 5 71 9 30 27 70 40 91
24 34 27 36 60 26 42 -11 126 -7 131 7 2 6 -22 10 -58 11 -67 1 -90 14 -69 39
7 8 22 15 34 15 15 0 17 3 8 9 -9 6 1 20 39 52 28 24 57 49 63 55 12 13 40 -2
30 -17z m2926 22 c0 -5 3 -16 6 -25 5 -13 -3 -16 -47 -16 l-54 0 40 24 c45 27
55 30 55 17z m-3017 -23 c-14 -16 -26 -19 -55 -14 -20 3 -39 2 -42 -3 -7 -11
-153 -32 -224 -31 -13 0 -33 -5 -45 -12 -12 -7 -33 -11 -46 -9 -24 3 -222 -38
-231 -48 -3 -3 -39 -7 -80 -8 -41 -1 -70 0 -65 2 33 14 480 97 539 100 60 4
170 26 181 37 2 2 22 4 45 5 41 1 41 1 23 -19z m1077 -3 c0 -8 -4 -15 -10 -15
-5 0 -10 7 -10 15 0 8 5 15 10 15 6 0 10 -7 10 -15z m1205 5 c-3 -5 -12 -10
-18 -10 -7 0 -6 4 3 10 19 12 23 12 15 0z m625 -10 c-8 -5 -24 -10 -35 -10
-17 0 -17 2 -5 10 8 5 24 10 35 10 17 0 17 -2 5 -10z m-1790 -56 c-7 -19 -15
-33 -18 -30 -3 3 1 25 8 47 8 23 16 37 18 30 2 -6 -2 -27 -8 -47z m1970 46 c0
-5 9 -10 20 -10 20 0 25 -17 21 -62 -1 -10 4 -18 13 -18 18 0 51 -64 41 -80
-4 -6 -1 -17 5 -25 7 -8 9 -15 4 -15 -5 0 -4 -4 3 -8 8 -5 6 -14 -8 -31 -11
-13 -23 -21 -27 -17 -4 4 1 12 11 18 14 8 16 13 6 24 -6 8 -8 14 -5 14 4 0 4
5 0 11 -4 8 -9 7 -15 -2 -6 -10 -9 -8 -9 8 0 12 4 24 9 27 16 10 0 44 -22 50
-12 3 -43 6 -69 6 -27 0 -48 5 -48 10 0 6 11 10 25 10 18 0 25 5 25 20 0 15 7
20 25 20 15 0 25 6 25 15 0 9 -8 14 -22 12 -14 -1 -23 4 -26 16 -2 9 1 17 7
17 6 0 11 -4 11 -10z m-1565 -20 c28 -19 29 -20 7 -20 -30 0 -64 18 -57 31 9
13 16 11 50 -11z m-1596 -37 c-18 -21 -35 -40 -36 -42 -2 -2 -6 -1 -10 3 -4 4
1 22 12 41 13 26 25 35 44 35 l25 0 -35 -37z m2371 29 c0 -4 -16 -12 -35 -18
-38 -12 -49 1 -12 16 28 11 47 12 47 2z m655 -2 c17 -1 15 -4 -8 -14 -29 -13
-87 -10 -87 4 0 10 27 17 55 14 11 -1 29 -3 40 -4z m1822 -67 c-2 -16 -4 -3
-4 27 0 30 2 43 4 28 2 -16 2 -40 0 -55z m-5577 57 c0 -5 -8 -10 -17 -10 -15
0 -16 2 -3 10 19 12 20 12 20 0z m677 4 c-3 -3 -12 -4 -19 -1 -8 3 -5 6 6 6
11 1 17 -2 13 -5z m3340 -16 c-3 -8 -6 -5 -6 6 -1 11 2 17 5 13 3 -3 4 -12 1
-19z m-4210 -10 c-3 -8 -6 -5 -6 6 -1 11 2 17 5 13 3 -3 4 -12 1 -19z m826 15
c-7 -2 -19 -2 -25 0 -7 3 -2 5 12 5 14 0 19 -2 13 -5z m2542 -3 c-3 -5 -10
-10 -16 -10 -5 0 -9 5 -9 10 0 6 7 10 16 10 8 0 12 -4 9 -10z m805 -5 c0 -8
-4 -15 -10 -15 -5 0 -7 7 -4 15 4 8 8 15 10 15 2 0 4 -7 4 -15z m-1712 -17
c18 -18 14 -38 -8 -38 -15 0 -20 7 -20 25 0 27 9 32 28 13z m482 2 c0 -14 -98
-62 -118 -58 -10 2 10 17 48 35 36 17 66 32 68 32 1 1 2 -3 2 -9z m148 -10
c42 1 72 -8 72 -22 0 -7 -31 -9 -90 -6 -72 3 -90 1 -86 -9 6 -14 -29 -18 -59
-7 -35 14 60 57 105 48 14 -3 40 -5 58 -4z m-1148 -15 c0 -8 -6 -15 -14 -15
-17 0 -28 14 -19 24 12 12 33 6 33 -9z m653 -6 c-4 -12 -11 -18 -20 -15 -8 3
-17 6 -19 6 -2 0 -4 4 -4 9 0 8 15 15 42 20 3 0 4 -8 1 -20z m647 11 c12 -8
11 -10 -7 -10 -13 0 -23 5 -23 10 0 13 11 13 30 0z m670 -7 c0 -12 -8 -18 -25
-19 -18 -2 -25 3 -25 17 0 14 7 19 25 19 17 0 25 -5 25 -17z m-1697 -23 c-3
-11 -9 -23 -14 -26 -10 -6 -12 39 -3 49 12 12 22 -3 17 -23z m425 -6 c-4 -3
-12 5 -18 18 -12 22 -12 22 6 6 10 -10 15 -20 12 -24z m-943 5 c-8 -12 -85
-12 -85 0 0 6 17 11 38 13 43 4 55 0 47 -13z m1046 7 c14 9 10 -6 -6 -23 -12
-12 -19 -13 -30 -3 -8 7 -15 16 -15 20 0 11 34 18 38 8 2 -5 8 -6 13 -2z
m1509 8 c0 -11 -34 -64 -42 -64 -10 0 25 69 35 70 4 0 7 -3 7 -6z m-1723 -21
c3 -7 -4 -9 -16 -6 -12 3 -18 9 -15 15 7 11 26 6 31 -9z m994 -3 l24 -19 -47
-1 c-49 0 -57 7 -36 28 17 17 32 15 59 -8z m-3224 4 c-3 -3 -12 -4 -19 -1 -8
3 -5 6 6 6 11 1 17 -2 13 -5z m1288 -4 c-3 -5 -20 -10 -36 -10 -18 0 -28 4
-24 10 3 6 20 10 36 10 18 0 28 -4 24 -10z m-1362 -7 c-7 -2 -21 -2 -30 0 -10
3 -4 5 12 5 17 0 24 -2 18 -5z m1277 3 c0 -3 -4 -8 -10 -11 -5 -3 -10 -1 -10
4 0 6 5 11 10 11 6 0 10 -2 10 -4z m1380 -6 c0 -5 -5 -10 -11 -10 -5 0 -7 5
-4 10 3 6 8 10 11 10 2 0 4 -4 4 -10z m520 0 c-8 -5 -19 -10 -25 -10 -5 0 -3
5 5 10 8 5 20 10 25 10 6 0 3 -5 -5 -10z m-2157 -42 c-21 -10 -49 -17 -63 -16
-22 3 -19 6 25 30 37 19 53 23 63 15 10 -8 5 -15 -25 -29z m1232 22 c3 -5 1
-10 -4 -10 -6 0 -11 5 -11 10 0 6 2 10 4 10 3 0 8 -4 11 -10z m1495 1 c0 -12
-21 -19 -37 -13 -22 8 -14 22 12 22 14 0 25 -4 25 -9z m-1396 -11 c14 -5 26
-14 26 -20 0 -15 -12 -12 -40 10 -28 22 -24 25 14 10z m92 -15 c10 -8 28 -15
39 -15 19 -1 19 -2 -1 -10 -12 -5 -25 -13 -29 -19 -12 -21 -33 -11 -44 20 -6
18 -11 34 -11 35 0 9 28 3 46 -11z m599 5 c18 -8 17 -9 -7 -9 -14 -1 -34 -4
-42 -7 -12 -5 -15 -2 -10 10 7 17 28 20 59 6z m335 -20 c19 -16 31 -30 25 -30
-33 -2 -206 -10 -300 -14 l-110 -4 45 20 c62 27 125 39 295 56 6 1 26 -12 45
-28z m-1100 10 c0 -5 15 -16 33 -24 l32 -14 -45 -2 c-25 -1 -51 -2 -59 -1 -7
2 -10 -3 -6 -9 4 -6 40 -11 88 -11 45 0 97 -1 115 -3 17 -2 32 0 32 5 0 13 47
11 55 -2 4 -6 19 -7 36 -4 16 4 29 3 29 -2 0 -4 21 -7 48 -6 l47 2 -45 -8
c-25 -5 -71 -6 -102 -4 -39 2 -58 0 -58 -8 0 -8 -4 -8 -15 1 -10 8 -15 9 -15
1 0 -7 -8 -8 -25 -1 -14 5 -25 6 -25 2 0 -4 -39 -6 -87 -4 -80 3 -90 6 -106
28 -20 27 -15 44 13 44 10 0 20 7 24 15 6 17 36 21 36 5z m435 0 c13 -5 14 -9
5 -9 -8 0 -24 4 -35 9 -13 5 -14 9 -5 9 8 0 24 -4 35 -9z m-29 -33 c4 -4 1 -7
-7 -7 -19 0 -69 23 -69 31 0 7 66 -14 76 -24z m249 13 c-38 -25 -151 -63 -164
-56 -5 4 -12 2 -16 -4 -3 -5 -14 -10 -23 -9 -14 0 -14 2 -2 6 8 4 20 13 26 21
6 8 49 25 95 37 106 29 121 30 84 5z m853 12 c7 -5 10 -16 7 -24 -5 -12 2 -18
23 -23 17 -3 33 -13 36 -21 3 -8 12 -14 21 -14 8 0 15 -5 15 -11 0 -11 -89 -2
-101 10 -3 3 -13 25 -22 49 -17 43 -10 53 21 34z m-1061 -28 c-3 -3 -12 -4
-19 -1 -8 3 -5 6 6 6 11 1 17 -2 13 -5z m-162 -14 c-3 -5 -11 -10 -16 -10 -6
0 -7 5 -4 10 3 6 11 10 16 10 6 0 7 -4 4 -10z m1155 -10 c0 -5 -4 -10 -10 -10
-5 0 -10 5 -10 10 0 6 5 10 10 10 6 0 10 -4 10 -10z m-430 -10 c0 -5 -7 -10
-16 -10 -8 0 -12 5 -9 10 3 6 10 10 16 10 5 0 9 -4 9 -10z m-1310 -20 c0 -5
-4 -10 -10 -10 -5 0 -10 5 -10 10 0 6 5 10 10 10 6 0 10 -4 10 -10z m972 -9
c-4 -10 8 -12 59 -7 43 4 59 3 49 -4 -13 -9 -13 -10 0 -10 8 0 35 5 60 12 25
6 68 12 95 13 222 9 235 8 235 -16 0 -6 -14 -8 -32 -5 -28 4 -113 0 -351 -18
-29 -2 -43 0 -35 5 18 12 -13 12 -83 0 -30 -5 -99 -12 -154 -14 l-100 -6 70
20 c39 11 90 20 113 20 30 0 42 3 39 12 -3 7 4 12 18 12 15 0 21 -5 17 -14z
m151 12 c-7 -2 -19 -2 -25 0 -7 3 -2 5 12 5 14 0 19 -2 13 -5z m2464 -60 c-2
-16 -4 -5 -4 22 0 28 2 40 4 28 2 -13 2 -35 0 -50z m-2750 51 c-3 -3 -12 -4
-19 -1 -8 3 -5 6 6 6 11 1 17 -2 13 -5z m-272 -24 c-16 -4 -34 -4 -39 -1 -15
7 27 18 49 12 17 -4 15 -6 -10 -11z m93 3 c-10 -2 -28 -2 -40 0 -13 2 -5 4 17
4 22 1 32 -1 23 -4z m88 0 c-4 -4 -15 -8 -24 -8 -9 0 -16 -6 -14 -12 1 -8 -10
-13 -30 -13 -18 0 -64 -3 -102 -7 -45 -4 -67 -2 -63 4 4 6 42 13 84 17 43 4
85 11 93 16 18 11 67 13 56 3z m-381 -13 c3 -5 2 -10 -4 -10 -5 0 -13 5 -16
10 -3 6 -2 10 4 10 5 0 13 -4 16 -10z m1475 0 c0 -5 -9 -10 -20 -10 -11 0 -20
5 -20 10 0 6 9 10 20 10 11 0 20 -4 20 -10z m-3270 -15 c0 -8 -4 -15 -10 -15
-5 0 -7 7 -4 15 4 8 8 15 10 15 2 0 4 -7 4 -15z m2867 9 c-3 -3 -12 -4 -19 -1
-8 3 -5 6 6 6 11 1 17 -2 13 -5z m-207 -16 c0 -4 -9 -8 -20 -8 -11 0 -20 4
-20 8 0 4 9 8 20 8 11 0 20 -4 20 -8z m-145 -7 c-6 -5 -53 -12 -105 -15 -195
-11 -260 -18 -260 -28 0 -9 218 -1 229 8 1 1 15 -2 29 -7 16 -6 27 -6 31 0 8
12 180 17 244 6 26 -4 53 -3 60 2 6 4 32 8 57 7 137 -3 160 -5 160 -14 0 -7
-47 -10 -127 -9 -71 0 -139 -2 -153 -6 -14 -3 -38 -2 -52 4 -28 10 -137 3
-120 -8 6 -3 -35 -4 -89 -3 -67 3 -121 -1 -162 -11 -34 -9 -122 -21 -195 -28
-126 -12 -133 -11 -147 7 -22 29 -19 32 25 28 29 -3 40 0 40 10 0 8 -6 17 -12
19 -7 3 -1 6 13 6 46 2 89 13 83 22 -3 5 7 9 23 8 25 0 26 -1 8 -10 -22 -10
198 -1 227 10 29 10 203 12 193 2z m63 2 c-10 -2 -26 -2 -35 0 -10 3 -2 5 17
5 19 0 27 -2 18 -5z m322 -9 c0 -2 -7 -4 -15 -4 -8 0 -15 4 -15 10 0 5 7 7 15
4 8 -4 15 -8 15 -10z m2087 -16 c-3 -7 -5 -2 -5 12 0 14 2 19 5 13 2 -7 2 -19
0 -25z m-4925 -32 c20 -13 42 -17 67 -13 36 4 37 3 49 -34 7 -21 12 -52 12
-67 0 -16 9 -37 20 -47 20 -18 20 -18 -10 -37 -17 -10 -40 -18 -51 -18 -21 0
-66 42 -79 75 -7 19 -8 19 -15 2 -10 -24 16 -89 64 -162 41 -62 43 -69 20 -60
-21 8 -64 90 -103 199 -35 96 -42 146 -29 196 6 23 7 23 15 4 5 -11 23 -29 40
-38z m3088 -55 c0 -21 -16 -2 -24 29 -7 24 -6 24 8 6 9 -11 16 -27 16 -35z
m-1481 16 c6 -8 8 -17 4 -20 -7 -8 -33 11 -33 24 0 13 16 11 29 -4z m3341 -54
c0 -70 -5 -66 -13 10 -3 34 -2 55 4 52 5 -4 9 -31 9 -62z m-4748 -33 c10 -19
15 -36 13 -38 -9 -9 -34 19 -44 49 -15 42 8 34 31 -11z m1458 26 c0 -2 -7 -6
-15 -10 -8 -3 -15 -1 -15 4 0 6 7 10 15 10 8 0 15 -2 15 -4z m-1716 -30 c3
-13 9 -32 12 -43 4 -13 0 -11 -15 7 -21 26 -28 60 -12 60 5 0 12 -11 15 -24z
m1991 -6 c-28 -12 -45 -12 -45 0 0 6 15 10 33 9 27 0 29 -2 12 -9z m52 4 c-3
-3 -12 -4 -19 -1 -8 3 -5 6 6 6 11 1 17 -2 13 -5z m76 -11 c-7 -2 -21 -2 -30
0 -10 3 -4 5 12 5 17 0 24 -2 18 -5z m-2896 -115 c-2 -13 -4 -3 -4 22 0 25 2
35 4 23 2 -13 2 -33 0 -45z m1032 43 c6 -10 7 -21 4 -25 -11 -10 27 -44 86
-77 71 -40 68 -37 45 -54 -27 -21 -62 -18 -74 5 -15 27 -30 25 -30 -5 0 -45
62 -59 116 -26 31 19 33 19 104 0 40 -10 75 -21 77 -23 12 -11 -43 -27 -73
-21 -36 6 -46 -9 -22 -33 16 -16 10 -15 -86 7 -44 11 -97 22 -117 25 -44 8
-87 48 -145 138 -24 38 -44 71 -44 73 0 3 11 0 25 -7 26 -12 74 2 96 28 16 19
26 18 38 -5z m-215 -17 c9 -24 7 -28 -9 -14 -17 14 -20 30 -6 30 5 0 12 -7 15
-16z m-2 -64 c12 -17 27 -30 34 -30 15 0 29 -19 20 -27 -6 -7 -116 86 -116 99
0 15 39 -11 62 -42z m406 -19 c3 -9 -2 -9 -22 0 -14 7 -26 16 -26 20 0 12 43
-6 48 -20z m-1221 -23 c-3 -8 -6 -5 -6 6 -1 11 2 17 5 13 3 -3 4 -12 1 -19z
m1423 -29 c0 -6 -7 -6 -20 1 -11 6 -20 15 -20 21 0 6 7 6 20 -1 11 -6 20 -15
20 -21z m364 -45 c22 -8 20 -24 -1 -22 -33 4 -143 -14 -143 -23 0 -5 -9 -4
-20 3 -10 7 -18 13 -17 15 2 1 28 9 58 17 59 16 99 19 123 10z m-316 -20 c20
-6 14 -42 -9 -49 -11 -4 -50 -8 -86 -9 -49 -1 -60 1 -47 9 10 5 30 22 44 37
24 25 46 28 98 12z m685 3 c28 -6 55 -15 58 -20 4 -5 21 -11 39 -13 61 -7 56
-18 -13 -28 -44 -7 -49 -6 -54 14 -5 17 -11 20 -30 15 -13 -3 -29 -2 -36 2
-13 8 -29 10 -114 12 -41 1 -53 5 -53 17 0 12 13 15 75 13 41 -1 99 -6 128
-12z m-510 -48 c20 -1 20 -2 -3 -9 -36 -12 -90 -12 -90 0 0 6 14 10 30 10 17
0 30 5 31 13 0 10 2 10 6 0 2 -7 14 -13 26 -14z m143 -56 c-10 -10 -76 -12
-70 -1 3 4 21 8 41 8 20 0 33 -3 29 -7z m-241 -13 c3 -5 1 -10 -4 -10 -6 0
-11 5 -11 10 0 6 2 10 4 10 3 0 8 -4 11 -10z m3463 -307 c-10 -2 -26 -2 -35 0
-10 3 -2 5 17 5 19 0 27 -2 18 -5z m-3838 -23 c0 -5 -4 -10 -10 -10 -5 0 -10
5 -10 10 0 6 5 10 10 10 6 0 10 -4 10 -10z m-350 -21 c0 -12 -69 -20 -170 -18
-55 1 -100 5 -100 10 0 7 58 10 253 14 9 1 17 -2 17 -6z m4040 4 c0 -5 -21 -9
-48 -10 -33 -1 -41 1 -27 7 25 11 75 12 75 3z"/>
<path d="M2695 2621 c3 -6 -2 -14 -11 -19 -25 -14 -9 -31 52 -58 33 -15 52
-28 49 -36 -4 -10 11 -13 55 -14 33 0 60 3 60 8 0 4 -8 8 -17 8 -28 0 -145 53
-133 60 6 4 -1 12 -17 20 l-28 13 25 7 25 6 -25 7 c-34 9 -42 9 -35 -2z"/>
<path d="M2795 2559 c64 -20 105 -27 111 -17 4 7 9 7 13 0 9 -14 51 -25 51
-13 0 17 -34 30 -71 28 -19 -1 -56 2 -84 5 -40 6 -44 5 -20 -3z"/>
<path d="M2646 2545 c-4 -12 -1 -16 11 -13 16 3 18 13 3 23 -4 3 -10 -1 -14
-10z"/>
<path d="M2678 2513 c-32 -8 -20 -26 13 -19 17 3 38 6 45 6 8 0 14 5 14 10 0
10 -40 12 -72 3z"/>
<path d="M2655 2470 c-13 -5 -14 -9 -5 -9 8 0 24 4 35 9 13 5 14 9 5 9 -8 0
-24 -4 -35 -9z"/>
<path d="M2710 2472 c0 -9 80 -23 89 -15 9 7 -9 15 -48 20 -25 3 -41 2 -41 -5z"/>
<path d="M4253 2533 c-19 -7 -16 -20 6 -26 19 -5 36 15 24 27 -7 7 -13 7 -30
-1z"/>
<path d="M4191 2511 c-7 -5 -9 -11 -4 -14 4 -3 17 1 28 9 21 16 0 20 -24 5z"/>
<path d="M4430 2478 c0 -13 -3 -33 -6 -45 -4 -14 -2 -23 5 -23 6 0 11 14 11
30 0 17 4 30 10 30 5 0 7 7 4 15 -9 23 -24 18 -24 -7z"/>
<path d="M4155 2451 c-3 -5 -1 -12 5 -16 5 -3 10 1 10 9 0 18 -6 21 -15 7z"/>
<path d="M4243 2445 c-11 -8 -23 -24 -26 -36 -8 -28 33 -69 70 -70 15 -1 37
-3 48 -4 11 -1 31 2 43 6 19 7 21 13 16 36 -4 16 -11 30 -16 31 -4 2 -8 10 -8
17 0 34 -88 47 -127 20z"/>
<path d="M2360 2366 c0 -9 7 -12 20 -9 11 3 17 9 14 14 -8 14 -34 10 -34 -5z"/>
<path d="M2514 2348 c-3 -5 9 -8 25 -8 17 0 31 4 31 10 0 11 -49 9 -56 -2z"/>
<path d="M2883 2306 c-46 -58 -25 -74 61 -48 63 19 86 42 42 42 -14 0 -26 -4
-26 -9 0 -19 -49 2 -52 22 -3 21 -4 20 -25 -7z"/>
<path d="M3263 2300 c-13 -5 -23 -12 -23 -15 0 -9 16 -5 36 10 22 16 19 18
-13 5z"/>
<path d="M2417 2277 c-3 -8 1 -14 9 -14 8 0 14 6 14 14 0 7 -4 13 -9 13 -5 0
-11 -6 -14 -13z"/>
<path d="M2270 2261 c-14 -4 -26 -15 -28 -24 -3 -14 4 -17 35 -17 31 1 35 2
20 11 -14 8 -16 14 -6 25 6 8 10 14 8 13 -2 -1 -15 -4 -29 -8z"/>
<path d="M2315 2116 c-60 -28 -118 -86 -113 -113 1 -10 -12 -37 -30 -58 -17
-22 -32 -43 -32 -47 0 -12 38 -10 45 2 4 6 -1 7 -11 3 -15 -5 -14 -3 2 23 11
16 26 38 36 49 9 11 31 40 50 65 19 25 52 54 76 65 23 11 42 23 42 28 0 11
-12 8 -65 -17z"/>
<path d="M2480 2070 c-78 -52 -92 -70 -18 -24 26 17 43 23 46 16 2 -7 17 -1
37 15 30 24 37 43 17 43 -4 0 -41 -23 -82 -50z"/>
<path d="M2790 2050 c-8 -5 -11 -12 -7 -16 4 -4 15 0 24 9 18 18 8 23 -17 7z"/>
<path d="M2684 1961 c-72 -78 -98 -116 -89 -131 9 -15 24 -12 52 10 14 11 21
20 16 20 -6 0 -16 -7 -23 -15 -7 -8 -16 -12 -21 -9 -15 9 22 61 84 120 52 50
69 76 50 73 -5 -1 -36 -31 -69 -68z"/>
<path d="M2340 2010 c0 -6 -7 -10 -15 -10 -9 0 -33 -12 -55 -26 -42 -28 -50
-37 -25 -28 33 13 13 -30 -35 -73 -50 -45 -63 -73 -35 -73 8 0 15 8 15 18 0
10 15 32 33 49 48 47 141 127 161 138 15 8 12 10 -13 12 -17 1 -31 -2 -31 -7z"/>
<path d="M4066 1955 c-17 -14 -36 -23 -44 -20 -8 3 -20 1 -26 -4 -6 -5 -37
-16 -69 -24 -61 -16 -74 -23 -65 -33 8 -7 206 53 236 72 12 8 22 19 22 24 0
18 -24 11 -54 -15z"/>
<path d="M2205 1920 c-3 -6 1 -7 9 -4 18 7 21 14 7 14 -6 0 -13 -4 -16 -10z"/>
<path d="M2305 1874 c-17 -9 -35 -26 -42 -39 -10 -23 -10 -24 11 -14 19 10 66
57 66 66 0 4 0 4 -35 -13z"/>
<path d="M2414 1840 c0 -11 4 -20 8 -20 4 0 8 9 8 20 0 11 -4 20 -8 20 -4 0
-8 -9 -8 -20z"/>
<path d="M2320 1820 c-8 -5 -12 -11 -9 -14 3 -3 14 1 25 9 21 16 8 20 -16 5z"/>
<path d="M2865 1610 c-3 -5 -1 -10 4 -10 6 0 11 5 11 10 0 6 -2 10 -4 10 -3 0
-8 -4 -11 -10z"/>
<path d="M2600 1080 c0 -5 5 -10 11 -10 5 0 7 5 4 10 -3 6 -8 10 -11 10 -2 0
-4 -4 -4 -10z"/>
<path d="M4493 1975 c0 -14 3 -25 8 -25 5 0 9 11 9 25 0 14 -4 25 -9 25 -5 0
-8 -11 -8 -25z"/>
<path d="M4322 1608 c5 -15 28 -23 28 -10 0 5 -7 13 -16 16 -10 4 -14 1 -12
-6z"/>
<path d="M3694 1283 c10 -11 36 -12 36 -2 0 5 -10 9 -22 9 -12 0 -18 -3 -14
-7z"/>
<path d="M3570 1272 c0 -4 17 -6 38 -4 64 6 69 10 15 11 -29 0 -53 -3 -53 -7z"/>
<path d="M3488 1263 c7 -3 16 -2 19 1 4 3 -2 6 -13 5 -11 0 -14 -3 -6 -6z"/>
<path d="M2935 1091 l-30 -7 34 -7 c47 -10 51 -9 51 8 0 16 -7 17 -55 6z"/>
<path d="M3010 1085 c0 -17 18 -19 38 -6 11 7 10 10 -3 15 -26 10 -35 7 -35
-9z"/>
<path d="M750 3293 c0 -16 -5 -45 -10 -65 -12 -42 -19 -518 -8 -518 4 0 7 57
7 128 0 116 9 258 27 420 5 44 4 62 -5 62 -6 0 -11 -12 -11 -27z"/>
<path d="M4950 3313 c0 -12 93 -33 103 -23 5 4 5 10 0 13 -16 9 -103 18 -103
10z"/>
<path d="M2016 3236 c-3 -34 -21 -117 -40 -186 -69 -253 -84 -316 -90 -380 -3
-35 -18 -134 -32 -219 -14 -86 -24 -171 -21 -191 2 -19 -2 -75 -10 -123 -8
-49 -13 -91 -10 -93 9 -10 29 101 37 211 8 104 25 232 35 265 2 8 9 58 15 110
11 87 89 429 112 489 5 14 14 51 18 81 5 30 12 64 15 76 5 14 2 21 -8 21 -10
0 -16 -18 -21 -61z"/>
<path d="M2846 3183 c-6 -104 -11 -128 -42 -201 -44 -105 -43 -126 10 -130 21
-2 43 1 48 6 6 6 -5 9 -29 8 -52 -1 -54 21 -8 119 26 55 35 87 32 109 -2 17 1
70 8 118 9 70 9 88 -1 88 -8 0 -14 -34 -18 -117z"/>
<path d="M3357 3221 c-4 -44 -15 -115 -26 -158 -11 -43 -24 -109 -30 -148 -6
-38 -15 -86 -21 -105 -5 -19 -10 -41 -10 -47 0 -14 30 -19 31 -5 6 84 22 182
58 352 21 98 27 190 12 190 -4 0 -11 -36 -14 -79z"/>
<path d="M4570 3290 c0 -5 5 -10 10 -10 6 0 10 5 10 10 0 6 -4 10 -10 10 -5 0
-10 -4 -10 -10z"/>
<path d="M4524 3248 c-51 -70 -165 -259 -191 -313 -26 -56 -33 -165 -10 -165
26 0 61 77 46 101 -7 11 -9 9 -9 -7 0 -25 -26 -62 -36 -51 -26 25 45 174 180
376 58 87 74 136 20 59z"/>
<path d="M940 3259 c0 -18 2 -19 15 -9 15 12 12 30 -6 30 -5 0 -9 -10 -9 -21z"/>
<path d="M5746 3258 c15 -42 4 -89 -42 -196 -91 -209 -94 -216 -93 -267 0 -27
3 -68 7 -90 4 -22 4 -62 -1 -90 -5 -27 -10 -102 -12 -165 -2 -63 -8 -141 -15
-172 -10 -47 -9 -66 4 -111 9 -30 23 -60 32 -68 14 -11 14 -8 -2 26 -26 58
-29 128 -9 202 13 48 15 73 8 102 -7 24 -7 59 0 97 5 32 10 122 11 199 l1 140
61 135 c72 158 87 209 72 251 -5 16 -14 29 -20 29 -5 0 -6 -9 -2 -22z"/>
<path d="M3467 3257 c-2 -7 -5 -61 -6 -121 -1 -68 -9 -140 -22 -193 -11 -47
-19 -99 -17 -116 3 -31 5 -32 44 -30 38 1 41 0 36 -23 -3 -16 1 -26 12 -30 28
-11 88 10 105 36 l16 25 -29 -23 c-38 -29 -86 -30 -86 -2 0 12 6 33 14 48 7
15 34 90 60 166 26 76 58 161 71 189 14 27 24 52 21 54 -10 10 -58 -91 -99
-212 -65 -191 -75 -209 -115 -211 -19 -1 -35 3 -38 10 -2 6 5 47 17 91 14 52
23 125 26 208 5 109 8 127 21 122 12 -4 13 -3 2 10 -15 18 -26 19 -33 2z"/>
<path d="M2466 3213 c-132 -247 -180 -374 -188 -498 -4 -67 19 -72 61 -14 29
39 45 82 18 48 -44 -57 -58 -72 -61 -68 -2 2 -1 28 1 57 5 45 7 50 18 35 11
-15 15 -15 29 -4 18 15 22 41 6 41 -5 0 -10 -4 -10 -10 0 -5 -5 -10 -11 -10
-17 0 -5 101 13 114 7 6 14 21 15 34 1 12 34 88 72 169 39 80 69 148 67 150
-2 3 -16 -17 -30 -44z"/>
<path d="M4870 3238 c0 -13 -3 -41 -6 -63 -4 -27 -2 -35 4 -25 15 24 25 110
13 110 -6 0 -11 -10 -11 -22z"/>
<path d="M2126 3221 c-10 -11 -15 -24 -12 -29 5 -9 -17 -102 -83 -356 -19 -73
-27 -136 -16 -125 5 6 57 203 89 339 13 52 30 112 39 134 26 59 18 76 -17 37z"/>
<path d="M2996 3228 c-2 -7 -14 -64 -25 -125 -12 -62 -29 -129 -38 -148 -13
-27 -15 -40 -7 -53 16 -25 37 -25 52 -1 17 26 7 39 -12 14 -22 -30 -29 0 -12
53 32 104 65 272 52 272 -4 0 -8 -6 -10 -12z"/>
<path d="M1552 3217 c-35 -41 -85 -226 -102 -372 -5 -49 -23 -144 -40 -210
-30 -122 -43 -213 -60 -430 -5 -66 -12 -133 -15 -150 -3 -16 3 -3 14 30 13 40
23 114 31 220 6 88 19 196 29 240 51 220 59 266 65 334 3 41 11 93 17 115 23
90 61 195 75 206 16 14 19 30 5 30 -5 0 -13 -6 -19 -13z"/>
<path d="M3168 3224 c-4 -5 -9 -27 -13 -49 -11 -61 -65 -249 -76 -260 -5 -5
-9 -18 -9 -30 1 -14 7 -9 22 20 21 40 28 62 68 224 19 78 22 119 8 95z"/>
<path d="M5100 3203 c0 -5 -9 -68 -20 -141 -10 -73 -17 -139 -14 -147 3 -8 1
-30 -6 -50 -6 -19 -20 -75 -30 -123 -11 -57 -34 -122 -64 -182 -47 -95 -59
-164 -36 -200 6 -10 5 -22 -5 -36 -17 -27 -11 -34 32 -34 32 0 33 1 32 38 -1
21 -3 29 -6 17 -7 -28 -23 -45 -40 -45 -13 0 -13 3 -2 16 10 12 10 25 0 63
-14 55 -4 94 53 203 19 36 41 101 50 144 27 129 45 182 69 199 18 13 19 17 8
24 -8 5 -20 7 -28 4 -10 -4 -13 1 -9 18 8 32 36 211 36 227 0 6 -4 12 -10 12
-5 0 -10 -3 -10 -7z"/>
<path d="M5500 3186 c0 -8 5 -18 10 -21 6 -3 10 3 10 14 0 12 -4 21 -10 21 -5
0 -10 -6 -10 -14z"/>
<path d="M542 3138 c1 -32 3 -38 9 -23 11 28 11 65 0 65 -6 0 -9 -19 -9 -42z"/>
<path d="M3775 3125 c-3 -11 -13 -34 -20 -52 -17 -39 -48 -154 -42 -159 2 -2
19 -7 38 -11 l34 -6 -29 26 -29 27 32 85 c18 47 31 91 28 98 -3 7 -7 4 -12 -8z"/>
<path d="M5500 3125 c0 -8 2 -15 4 -15 2 0 6 7 10 15 3 8 1 15 -4 15 -6 0 -10
-7 -10 -15z"/>
<path d="M988 3124 c-4 -3 -3 -16 1 -28 4 -11 4 -32 0 -46 -10 -35 -11 -100
-1 -100 5 0 14 35 20 78 9 60 8 80 -2 90 -7 7 -15 10 -18 6z"/>
<path d="M4841 3040 c-1 -64 3 -81 24 -115 31 -51 31 -59 -4 -114 l-29 -46 9
-119 c4 -65 14 -143 20 -173 15 -64 4 -119 -44 -220 -24 -54 -29 -73 -25 -119
3 -30 10 -60 17 -67 11 -10 11 -5 5 23 -15 60 -9 106 19 162 43 85 53 153 38
245 -7 43 -15 121 -16 173 -3 90 -1 98 27 148 l30 52 -27 47 c-20 33 -30 67
-35 122 l-7 76 -2 -75z"/>
<path d="M857 3083 c-4 -3 -7 -11 -7 -17 0 -6 5 -5 12 2 6 6 9 14 7 17 -3 3
-9 2 -12 -2z"/>
<path d="M1790 3065 c-22 -57 -43 -245 -29 -266 6 -9 9 6 9 46 1 66 20 168 38
202 15 27 15 43 2 43 -6 0 -15 -11 -20 -25z"/>
<path d="M5462 3028 c-62 -166 -87 -312 -101 -578 -6 -119 -15 -200 -25 -227
-8 -24 -12 -43 -8 -43 15 0 41 95 46 165 3 39 8 124 11 190 9 195 40 356 95
495 11 28 16 50 11 50 -5 0 -18 -24 -29 -52z"/>
<path d="M1095 2983 c-9 -32 -34 -106 -56 -164 -48 -127 -67 -259 -50 -339 6
-28 12 -86 12 -128 l1 -77 9 50 c6 32 6 83 -1 142 -14 113 -2 208 38 319 82
220 92 254 76 254 -8 0 -20 -24 -29 -57z"/>
<path d="M384 3004 c3 -9 6 -18 6 -20 0 -3 4 -3 10 1 11 7 2 35 -12 35 -6 0
-7 -7 -4 -16z"/>
<path d="M1630 2988 c0 -52 -25 -143 -73 -273 -46 -122 -57 -171 -77 -330 -6
-49 -14 -114 -19 -142 -4 -29 -4 -53 -1 -53 10 0 27 92 40 215 13 114 32 191
90 358 42 122 72 242 62 252 -13 13 -22 2 -22 -27z"/>
<path d="M545 2970 c4 -19 12 -39 17 -45 7 -7 9 1 4 25 -3 19 -11 39 -17 45
-8 7 -9 0 -4 -25z"/>
<path d="M386 2939 c-13 -63 -17 -121 -8 -115 11 7 27 124 19 133 -4 3 -8 -5
-11 -18z"/>
<path d="M2421 2914 c0 -11 3 -14 6 -6 3 7 2 16 -1 19 -3 4 -6 -2 -5 -13z"/>
<path d="M890 2909 c0 -6 8 -13 18 -15 27 -8 57 -84 32 -84 -5 0 -11 10 -11
23 -1 16 -2 18 -6 5 -2 -10 -11 -18 -19 -18 -8 0 -14 -4 -14 -10 0 -5 11 -10
25 -10 46 0 22 -65 -45 -123 -23 -19 -37 -38 -31 -41 15 -10 82 55 102 99 30
65 22 150 -16 177 -15 11 -35 9 -35 -3z"/>
<path d="M495 2789 c-4 -17 -4 -33 -1 -36 3 -4 6 1 6 10 0 9 5 19 11 23 9 5
10 -4 5 -31 -8 -42 8 -41 25 2 7 20 6 30 -7 44 -24 26 -31 24 -39 -12z"/>
<path d="M5810 2797 c0 -13 -4 -37 -9 -53 -5 -16 -12 -60 -15 -99 -7 -87 8
-68 24 30 6 39 13 84 16 101 4 18 1 35 -5 38 -7 5 -11 -2 -11 -17z"/>
<path d="M5548 2735 c3 -28 -6 -78 -21 -132 -14 -49 -28 -106 -32 -128 -4 -22
-20 -101 -36 -175 -17 -74 -32 -147 -34 -161 -4 -35 41 -209 59 -227 13 -13
19 -12 48 13 36 30 54 55 40 55 -6 0 -12 -7 -15 -14 -3 -8 -19 -22 -36 -30
-33 -18 -26 -30 -66 112 l-18 63 27 127 c15 70 34 162 41 204 8 42 25 113 39
158 28 87 35 180 13 180 -8 0 -11 -14 -9 -45z"/>
<path d="M371 2754 c0 -11 3 -14 6 -6 3 7 2 16 -1 19 -3 4 -6 -2 -5 -13z"/>
<path d="M6231 2703 c-1 -24 4 -43 9 -43 12 0 12 37 0 65 -7 15 -9 10 -9 -22z"/>
<path d="M370 2703 c0 -13 5 -23 10 -23 13 0 13 11 0 30 -8 12 -10 11 -10 -7z"/>
<path d="M2000 2660 c0 -16 5 -30 10 -30 6 0 10 14 10 30 0 17 -4 30 -10 30
-5 0 -10 -13 -10 -30z"/>
<path d="M6271 1990 c-1 -349 -3 -940 -4 -1313 -1 -372 1 -677 6 -677 4 0 7
24 7 53 0 28 3 434 6 902 2 468 1 1035 -4 1260 l-9 410 -2 -635z"/>
<path d="M507 2573 c6 -24 27 -31 39 -12 4 7 1 10 -7 7 -8 -3 -19 2 -26 11
-10 14 -11 13 -6 -6z"/>
<path d="M1163 2518 c-6 -7 -14 -29 -18 -48 -4 -19 -22 -84 -41 -144 -29 -93
-36 -133 -20 -115 8 9 98 311 93 315 -2 2 -9 -1 -14 -8z"/>
<path d="M1643 2462 c0 -15 -3 -45 -6 -67 l-7 -40 15 34 c16 36 20 87 7 95 -5
3 -9 -7 -9 -22z"/>
<path d="M5000 2470 c0 -11 2 -20 4 -20 2 0 6 9 9 20 3 11 1 20 -4 20 -5 0 -9
-9 -9 -20z"/>
<path d="M451 2433 c-6 -21 -11 -59 -11 -84 0 -25 -5 -71 -11 -103 -5 -31 -9
-65 -6 -74 5 -27 28 86 34 168 2 41 8 87 13 103 5 16 5 27 0 27 -5 0 -14 -17
-19 -37z"/>
<path d="M917 2443 c-11 -10 -8 -20 6 -26 8 -3 14 3 14 14 2 19 -8 25 -20 12z"/>
<path d="M711 2364 c0 -11 3 -14 6 -6 3 7 2 16 -1 19 -3 4 -6 -2 -5 -13z"/>
<path d="M892 2338 c2 -24 9 -34 23 -36 16 -3 18 -1 8 9 -7 7 -13 23 -13 36 0
13 -5 23 -11 23 -6 0 -9 -14 -7 -32z"/>
<path d="M701 2324 c0 -11 3 -14 6 -6 3 7 2 16 -1 19 -3 4 -6 -2 -5 -13z"/>
<path d="M341 2314 c0 -11 3 -14 6 -6 3 7 2 16 -1 19 -3 4 -6 -2 -5 -13z"/>
<path d="M5160 2300 c0 -5 6 -7 14 -4 10 4 12 -2 9 -23 -4 -22 -2 -25 6 -13
18 25 13 50 -9 50 -11 0 -20 -4 -20 -10z"/>
<path d="M5124 2254 c-9 -21 -18 -61 -20 -89 -3 -49 -45 -177 -66 -203 -6 -7
-9 -15 -6 -17 19 -19 88 144 88 209 0 24 7 63 15 86 19 55 11 66 -11 14z"/>
<path d="M5731 2228 c-28 -63 -60 -169 -62 -203 -2 -49 1 -66 10 -61 4 3 6 16
4 29 -5 26 20 116 60 215 28 69 18 87 -12 20z"/>
<path d="M950 2216 c0 -10 8 -16 22 -16 12 0 19 1 17 3 -2 1 -12 9 -21 16 -15
12 -18 11 -18 -3z"/>
<path d="M1448 2155 c-3 -16 -2 -38 4 -48 15 -28 18 -16 10 34 -8 42 -8 43
-14 14z"/>
<path d="M816 2162 c-13 -21 -25 -141 -19 -194 6 -60 11 -66 31 -46 16 16 15
49 0 46 -18 -4 -19 64 -2 130 8 29 14 57 14 62 0 12 -17 13 -24 2z"/>
<path d="M420 2077 c0 -25 5 -49 11 -52 7 -5 8 8 3 41 -9 64 -14 68 -14 11z"/>
<path d="M5934 2064 c3 -26 6 -80 6 -121 0 -48 4 -72 10 -68 6 4 9 32 6 68 -2
34 -5 86 -5 115 -1 32 -5 52 -12 52 -8 0 -10 -15 -5 -46z"/>
<path d="M902 2028 c1 -24 -2 -53 -6 -65 -4 -14 -3 -23 3 -23 15 0 31 68 24
101 -8 43 -21 35 -21 -13z"/>
<path d="M4914 2038 c3 -18 9 -61 12 -95 7 -65 24 -87 24 -32 0 50 -23 159
-33 159 -5 0 -7 -15 -3 -32z"/>
<path d="M840 1990 c0 -5 5 -10 10 -10 6 0 10 5 10 10 0 6 -4 10 -10 10 -5 0
-10 -4 -10 -10z"/>
<path d="M315 1980 c-3 -5 -1 -10 4 -10 6 0 11 5 11 10 0 6 -2 10 -4 10 -3 0
-8 -4 -11 -10z"/>
<path d="M4831 1679 c-9 -15 -8 -19 3 -19 8 0 17 6 19 13 4 9 8 8 16 -3 9 -13
11 -13 11 1 0 25 -35 30 -49 8z"/>
<path d="M5470 1678 c-29 -11 -25 -13 27 -14 27 0 59 -4 71 -9 22 -7 23 -6 12
11 -13 21 -70 27 -110 12z"/>
<path d="M5013 1673 c9 -2 23 -2 30 0 6 3 -1 5 -18 5 -16 0 -22 -2 -12 -5z"/>
<path d="M5194 1658 c-3 -4 5 -8 18 -9 23 -1 23 -1 -2 -9 l-25 -8 28 -1 c15
-1 27 4 27 9 0 15 97 13 103 -2 4 -10 6 -10 6 -1 1 6 -3 15 -9 18 -15 9 -141
12 -146 3z"/>
<path d="M4468 1653 c6 -2 18 -2 25 0 6 3 1 5 -13 5 -14 0 -19 -2 -12 -5z"/>
<path d="M5053 1643 c9 -2 23 -2 30 0 6 3 -1 5 -18 5 -16 0 -22 -2 -12 -5z"/>
<path d="M5120 1640 c0 -5 6 -10 14 -10 8 0 18 5 21 10 3 6 -3 10 -14 10 -12
0 -21 -4 -21 -10z"/>
<path d="M5430 1640 c0 -5 4 -10 9 -10 6 0 13 5 16 10 3 6 -1 10 -9 10 -9 0
-16 -4 -16 -10z"/>
<path d="M5593 1642 c-8 -5 1 -8 22 -9 19 -1 35 3 35 8 0 11 -40 12 -57 1z"/>
<path d="M4933 1633 c9 -2 23 -2 30 0 6 3 -1 5 -18 5 -16 0 -22 -2 -12 -5z"/>
<path d="M4526 1622 c6 -4 13 -14 16 -22 4 -12 7 -10 17 8 11 20 10 22 -16 22
-15 0 -23 -4 -17 -8z"/>
<path d="M4470 1610 c0 -5 9 -10 20 -10 11 0 20 5 20 10 0 6 -9 10 -20 10 -11
0 -20 -4 -20 -10z"/>
<path d="M5383 1613 c9 -2 23 -2 30 0 6 3 -1 5 -18 5 -16 0 -22 -2 -12 -5z"/>
<path d="M5950 1610 c0 -5 5 -10 10 -10 6 0 10 5 10 10 0 6 -4 10 -10 10 -5 0
-10 -4 -10 -10z"/>
<path d="M4605 1599 c-8 -12 20 -28 34 -19 8 4 29 6 46 3 19 -3 35 0 39 6 5 7
-6 11 -31 12 -21 0 -48 2 -61 3 -13 2 -25 -1 -27 -5z"/>
<path d="M5060 1600 c0 -5 9 -10 20 -10 11 0 20 5 20 10 0 6 -9 10 -20 10 -11
0 -20 -4 -20 -10z"/>
<path d="M190 1580 c0 -5 7 -10 15 -10 8 0 15 5 15 10 0 6 -7 10 -15 10 -8 0
-15 -4 -15 -10z"/>
<path d="M5340 1570 c0 -5 5 -10 10 -10 6 0 10 5 10 10 0 6 -4 10 -10 10 -5 0
-10 -4 -10 -10z"/>
<path d="M5398 1573 c12 -2 30 -2 40 0 9 3 -1 5 -23 4 -22 0 -30 -2 -17 -4z"/>
<path d="M5950 1551 c0 -25 6 -27 13 -6 4 8 2 17 -3 20 -6 4 -10 -3 -10 -14z"/>
<path d="M4710 1548 c0 -5 11 -8 25 -8 14 0 25 3 25 8 0 4 -11 7 -25 7 -14 0
-25 -3 -25 -7z"/>
<path d="M5058 1553 c7 -3 16 -2 19 1 4 3 -2 6 -13 5 -11 0 -14 -3 -6 -6z"/>
<path d="M4535 1540 c3 -5 12 -7 20 -3 21 7 19 13 -6 13 -11 0 -18 -4 -14 -10z"/>
<path d="M5518 1543 c7 -3 16 -2 19 1 4 3 -2 6 -13 5 -11 0 -14 -3 -6 -6z"/>
<path d="M5615 1530 c-25 -11 1 -11 35 0 20 6 21 8 5 8 -11 0 -29 -3 -40 -8z"/>
<path d="M5698 1533 c7 -3 16 -2 19 1 4 3 -2 6 -13 5 -11 0 -14 -3 -6 -6z"/>
<path d="M4795 1510 c-8 -12 71 -12 100 0 14 6 4 9 -37 9 -31 1 -60 -3 -63 -9z"/>
<path d="M5340 1511 c0 -9 34 -21 63 -21 10 0 15 5 12 10 -4 6 -10 8 -15 5 -5
-3 -20 -1 -34 5 -14 5 -26 6 -26 1z"/>
<path d="M5426 1507 c3 -10 9 -15 12 -12 3 3 0 11 -7 18 -10 9 -11 8 -5 -6z"/>
<path d="M5595 1510 c-28 -5 -8 -7 68 -8 59 0 107 4 107 9 0 10 -115 10 -175
-1z"/>
<path d="M214 1495 c21 -16 32 -13 21 4 -3 6 -14 11 -23 11 -15 -1 -15 -2 2
-15z"/>
<path d="M4630 1500 c0 -5 5 -10 11 -10 5 0 7 5 4 10 -3 6 -8 10 -11 10 -2 0
-4 -4 -4 -10z"/>
<path d="M5292 1503 c-15 -6 -6 -23 14 -23 8 0 14 7 14 15 0 15 -6 17 -28 8z"/>
<path d="M5068 1483 c-16 -2 -28 -8 -28 -12 0 -11 82 -2 95 10 9 9 -15 10 -67
2z"/>
<path d="M4948 1463 c7 -3 16 -2 19 1 4 3 -2 6 -13 5 -11 0 -14 -3 -6 -6z"/>
<path d="M5950 1460 c0 -5 5 -10 10 -10 6 0 10 5 10 10 0 6 -4 10 -10 10 -5 0
-10 -4 -10 -10z"/>
<path d="M5178 1433 c7 -3 16 -2 19 1 4 3 -2 6 -13 5 -11 0 -14 -3 -6 -6z"/>
<path d="M5346 1431 c-5 -8 104 -4 113 4 2 3 -21 5 -52 5 -31 0 -58 -4 -61 -9z"/>
<path d="M5485 1431 c16 -7 12 -9 -19 -15 -27 -5 -35 -10 -26 -16 10 -6 8 -9
-6 -13 -14 -3 -12 -5 7 -6 15 0 32 6 39 14 8 10 18 12 29 6 19 -10 119 0 141
14 8 5 43 8 78 6 38 -2 62 1 62 8 0 6 -56 10 -162 10 -90 -1 -154 -4 -143 -8z
m102 -7 c-3 -3 -12 -4 -19 -1 -8 3 -5 6 6 6 11 1 17 -2 13 -5z"/>
<path d="M200 1420 c-12 -8 -11 -10 8 -10 12 0 22 5 22 10 0 13 -11 13 -30 0z"/>
<path d="M4818 1423 c6 -2 18 -2 25 0 6 3 1 5 -13 5 -14 0 -19 -2 -12 -5z"/>
<path d="M5248 1413 c7 -3 16 -2 19 1 4 3 -2 6 -13 5 -11 0 -14 -3 -6 -6z"/>
<path d="M5085 1400 c-3 -5 -1 -10 4 -10 6 0 11 5 11 10 0 6 -2 10 -4 10 -3 0
-8 -4 -11 -10z"/>
<path d="M5138 1403 c12 -2 30 -2 40 0 9 3 -1 5 -23 4 -22 0 -30 -2 -17 -4z"/>
<path d="M5033 1393 c9 -2 23 -2 30 0 6 3 -1 5 -18 5 -16 0 -22 -2 -12 -5z"/>
<path d="M5328 1393 c7 -3 16 -2 19 1 4 3 -2 6 -13 5 -11 0 -14 -3 -6 -6z"/>
<path d="M690 1369 c0 -5 -10 -9 -22 -10 -13 0 -18 -3 -11 -5 6 -3 26 -1 45 4
30 7 31 9 11 14 -13 3 -23 2 -23 -3z"/>
<path d="M5138 1373 c7 -3 16 -2 19 1 4 3 -2 6 -13 5 -11 0 -14 -3 -6 -6z"/>
<path d="M210 1340 c0 -5 5 -10 10 -10 6 0 10 5 10 10 0 6 -4 10 -10 10 -5 0
-10 -4 -10 -10z"/>
<path d="M516 1329 c-22 -5 -42 -12 -45 -15 -8 -8 71 7 89 17 18 10 7 10 -44
-2z"/>
<path d="M430 1310 c-13 -8 -13 -10 2 -10 9 0 20 5 23 10 8 13 -5 13 -25 0z"/>
<path d="M770 1310 c-13 -9 -13 -10 0 -9 8 0 24 4 35 9 l20 9 -20 0 c-11 0
-27 -4 -35 -9z"/>
<path d="M1820 1310 c-19 -5 -66 -11 -105 -15 -38 -3 -90 -10 -115 -15 -54
-12 -112 -18 -162 -19 -48 -1 -55 -31 -8 -31 17 0 30 5 30 13 0 8 4 7 10 -3 5
-8 10 -10 10 -4 0 8 21 11 60 9 70 -3 85 -10 41 -20 -54 -12 -33 -22 27 -14
126 18 162 20 179 9 13 -7 14 -10 3 -9 -8 2 -35 -1 -60 -4 -25 -4 -65 -9 -90
-10 -31 -3 -46 -9 -48 -20 -2 -9 -13 -17 -25 -19 -29 -4 -28 -22 2 -26 15 -2
21 0 17 7 -4 6 -6 11 -4 11 2 0 30 5 63 10 69 12 75 13 300 40 234 29 258 33
263 49 4 11 -8 12 -64 7 -86 -9 -186 -27 -199 -36 -5 -4 -21 -3 -35 1 l-25 7
23 7 c16 6 22 14 20 34 -2 24 -6 26 -30 23 -23 -4 -27 -1 -22 12 7 18 -1 19
-56 6z m-7 -27 c-7 -2 -21 -2 -30 0 -10 3 -4 5 12 5 17 0 24 -2 18 -5z m71
-31 c6 -9 -29 -52 -42 -52 -4 0 -14 4 -22 10 -12 7 -10 12 9 29 25 22 46 27
55 13z"/>
<path d="M5565 1310 c-7 -12 12 -12 40 0 18 8 17 9 -7 9 -15 1 -30 -3 -33 -9z"/>
<path d="M1983 1299 c-41 -12 -45 -37 -5 -32 76 9 116 19 120 31 4 14 -65 15
-115 1z"/>
<path d="M316 1292 c-41 -10 -46 -32 -7 -32 17 0 31 4 31 10 0 5 7 6 17 3 11
-4 14 -3 9 5 -4 7 -1 12 8 12 8 0 16 -3 19 -7 2 -5 3 -3 2 2 -2 12 -40 15 -79
7z"/>
<path d="M5240 1280 c0 -5 5 -10 11 -10 5 0 7 5 4 10 -3 6 -8 10 -11 10 -2 0
-4 -4 -4 -10z"/>
<path d="M5293 1283 c9 -2 23 -2 30 0 6 3 -1 5 -18 5 -16 0 -22 -2 -12 -5z"/>
<path d="M5625 1270 c-4 -7 3 -8 22 -4 38 9 42 14 10 14 -14 0 -29 -5 -32 -10z"/>
<path d="M835 1260 c-11 -17 5 -32 21 -19 8 6 14 15 14 20 0 12 -27 11 -35 -1z"/>
<path d="M4635 1260 c-3 -5 1 -10 9 -10 9 0 16 5 16 10 0 6 -4 10 -9 10 -6 0
-13 -4 -16 -10z"/>
<path d="M5178 1263 c6 -2 18 -2 25 0 6 3 1 5 -13 5 -14 0 -19 -2 -12 -5z"/>
<path d="M5481 1249 c-51 -10 -99 -21 -105 -23 -22 -11 97 6 167 24 94 23 58
23 -62 -1z"/>
<path d="M5047 1248 c-16 -10 30 -9 63 2 22 7 20 8 -13 7 -21 -1 -43 -5 -50
-9z"/>
<path d="M797 1223 c-12 -12 -7 -22 8 -17 8 4 15 10 15 15 0 11 -14 12 -23 2z"/>
<path d="M1464 1194 c3 -9 6 -19 6 -23 0 -3 18 -5 41 -3 50 5 47 11 -11 21 -3
1 2 6 10 11 11 7 7 10 -19 10 -26 0 -32 -3 -27 -16z"/>
<path d="M5235 1200 l-20 -9 20 0 c11 0 27 4 35 9 13 9 13 10 0 9 -8 0 -24 -4
-35 -9z"/>
<path d="M4472 1188 c-6 -6 -12 -16 -12 -20 0 -15 37 -8 51 9 12 15 12 16 -3
10 -9 -3 -18 -1 -20 4 -2 6 -8 5 -16 -3z"/>
<path d="M750 1180 c-11 -7 -12 -12 -4 -20 8 -8 13 -6 17 9 3 12 4 21 4 21 -1
0 -9 -5 -17 -10z"/>
<path d="M1560 1180 c0 -5 5 -10 10 -10 6 0 10 5 10 10 0 6 -4 10 -10 10 -5 0
-10 -4 -10 -10z"/>
<path d="M215 1163 c-16 -3 -34 -9 -40 -15 -12 -12 61 -2 85 13 17 10 12 10
-45 2z"/>
<path d="M1285 1160 c-27 -7 -25 -8 18 -9 26 0 47 4 47 9 0 11 -21 11 -65 0z"/>
<path d="M815 1154 c-5 -1 -22 -5 -37 -8 -43 -10 -34 -28 10 -20 20 4 39 8 41
10 7 6 -4 21 -14 18z"/>
<path d="M1845 1150 c3 -5 13 -10 21 -10 8 0 12 5 9 10 -3 6 -13 10 -21 10 -8
0 -12 -4 -9 -10z"/>
<path d="M330 1140 c0 -5 7 -10 15 -10 8 0 15 5 15 10 0 6 -7 10 -15 10 -8 0
-15 -4 -15 -10z"/>
<path d="M1651 1141 c-32 -4 -45 -11 -47 -23 -2 -16 3 -17 39 -12 23 4 50 11
59 15 9 5 37 9 62 9 25 0 46 5 46 10 0 11 -84 11 -159 1z"/>
<path d="M5540 1130 c-20 -6 -16 -8 23 -9 30 -1 46 3 42 9 -7 11 -29 11 -65 0z"/>
<path d="M5675 1130 c-37 -7 -35 -7 23 -9 40 0 61 3 57 9 -7 11 -19 11 -80 0z"/>
<path d="M5458 1123 c6 -2 18 -2 25 0 6 3 1 5 -13 5 -14 0 -19 -2 -12 -5z"/>
<path d="M610 1100 c0 -13 11 -13 30 0 12 8 11 10 -7 10 -13 0 -23 -4 -23 -10z"/>
<path d="M1530 1090 c0 -11 6 -20 14 -20 9 0 14 9 13 20 -1 11 -7 20 -14 20
-7 0 -13 -9 -13 -20z"/>
<path d="M500 1090 c-85 -15 -102 -19 -108 -25 -3 -3 -1 -5 4 -5 20 0 177 30
182 35 7 7 -21 5 -78 -5z"/>
<path d="M1750 1093 c-25 -3 -49 -8 -54 -13 -12 -12 32 -33 52 -24 9 4 21 6
25 5 5 -1 6 3 3 8 -7 10 60 25 74 16 5 -3 18 -1 27 4 19 11 -28 12 -127 4z"/>
<path d="M1588 1073 c7 -3 16 -2 19 1 4 3 -2 6 -13 5 -11 0 -14 -3 -6 -6z"/>
<path d="M1875 1071 c-3 -6 4 -15 15 -21 22 -12 23 -10 14 14 -7 18 -20 21
-29 7z"/>
<path d="M190 1055 c7 -8 16 -15 21 -15 5 0 6 7 3 15 -4 8 -13 15 -21 15 -13
0 -13 -3 -3 -15z"/>
<path d="M330 1060 c0 -5 5 -10 10 -10 6 0 10 5 10 10 0 6 -4 10 -10 10 -5 0
-10 -4 -10 -10z"/>
<path d="M708 1057 c-32 -5 -58 -13 -58 -18 0 -5 12 -7 28 -3 21 4 24 3 12 -5
-13 -9 -13 -11 1 -11 9 0 20 7 23 16 5 13 15 15 49 11 23 -3 48 -2 56 2 30 19
-25 23 -111 8z"/>
<path d="M5458 1063 c7 -3 16 -2 19 1 4 3 -2 6 -13 5 -11 0 -14 -3 -6 -6z"/>
<path d="M240 1052 c0 -4 18 -6 40 -4 22 2 40 6 40 8 0 2 -18 4 -40 4 -22 0
-40 -3 -40 -8z"/>
<path d="M2257 1053 c-10 -9 -9 -23 2 -23 5 0 11 7 15 15 5 15 -5 20 -17 8z"/>
<path d="M5688 1053 c6 -2 18 -2 25 0 6 3 1 5 -13 5 -14 0 -19 -2 -12 -5z"/>
<path d="M2200 1034 c0 -14 3 -14 15 -4 8 7 15 14 15 16 0 2 -7 4 -15 4 -8 0
-15 -7 -15 -16z"/>
<path d="M5800 1040 c0 -5 7 -10 15 -10 8 0 15 5 15 10 0 6 -7 10 -15 10 -8 0
-15 -4 -15 -10z"/>
<path d="M540 1025 c-38 -9 -46 -13 -25 -13 17 0 53 6 80 13 65 16 17 17 -55
0z"/>
<path d="M3435 1030 c-26 -6 -22 -8 23 -9 33 -1 51 3 47 9 -7 11 -26 11 -70 0z"/>
<path d="M3725 1026 c-10 -7 -27 -11 -37 -8 -10 2 -18 0 -18 -6 0 -6 20 -14
44 -17 51 -8 84 0 49 10 -25 8 -30 21 -10 28 6 3 7 6 1 6 -5 1 -19 -5 -29 -13z"/>
<path d="M3895 1030 l-30 -7 28 -11 c29 -12 82 2 71 19 -6 10 -26 10 -69 -1z"/>
<path d="M2020 1020 c-8 -5 -11 -12 -8 -16 10 -9 78 5 78 16 0 13 -50 13 -70
0z"/>
<path d="M3270 1020 c-24 -8 -23 -8 8 -9 17 -1 32 4 32 9 0 11 -5 11 -40 0z"/>
<path d="M3335 1020 c-3 -6 5 -10 19 -10 14 0 28 5 31 10 3 6 -5 10 -19 10
-14 0 -28 -4 -31 -10z"/>
<path d="M4347 1023 c-4 -3 -7 -11 -7 -17 0 -6 5 -5 12 2 6 6 9 14 7 17 -3 3
-9 2 -12 -2z"/>
<path d="M5648 1023 c7 -3 16 -2 19 1 4 3 -2 6 -13 5 -11 0 -14 -3 -6 -6z"/>
<path d="M2440 1010 c0 -5 12 -10 28 -10 21 0 24 2 12 10 -20 13 -40 13 -40 0z"/>
<path d="M405 1000 c-3 -5 3 -10 14 -10 11 0 23 5 26 10 3 6 -3 10 -14 10 -11
0 -23 -4 -26 -10z"/>
<path d="M3610 1001 c0 -4 11 -6 25 -3 14 2 25 6 25 8 0 2 -11 4 -25 4 -14 0
-25 -4 -25 -9z"/>
<path d="M3945 999 c-4 -6 -5 -13 -1 -16 8 -8 56 6 56 17 0 13 -47 13 -55 -1z"/>
<path d="M5328 1003 c7 -3 16 -2 19 1 4 3 -2 6 -13 5 -11 0 -14 -3 -6 -6z"/>
<path d="M265 986 c-49 -6 -85 -14 -80 -17 14 -9 175 12 175 22 0 5 -1 8 -2 8
-2 -1 -43 -7 -93 -13z"/>
<path d="M3443 993 c-18 -2 -33 -8 -33 -13 0 -11 102 -1 115 11 9 9 -19 10
-82 2z"/>
<path d="M5120 990 c0 -6 7 -10 15 -10 8 0 15 2 15 4 0 2 -7 6 -15 10 -8 3
-15 1 -15 -4z"/>
<path d="M5035 980 c3 -5 12 -10 20 -10 8 0 17 5 20 10 4 6 -5 10 -20 10 -15
0 -24 -4 -20 -10z"/>
<path d="M785 970 c3 -5 15 -10 25 -10 10 0 22 5 25 10 4 6 -7 10 -25 10 -18
0 -29 -4 -25 -10z"/>
<path d="M3328 973 c7 -3 16 -2 19 1 4 3 -2 6 -13 5 -11 0 -14 -3 -6 -6z"/>
<path d="M3368 973 c7 -3 16 -2 19 1 4 3 -2 6 -13 5 -11 0 -14 -3 -6 -6z"/>
<path d="M3798 973 c-24 -6 -23 -24 2 -30 19 -5 20 -6 3 -19 -17 -12 -16 -13
5 -14 12 0 23 3 23 8 10 64 9 66 -33 55z"/>
<path d="M690 960 c-20 -6 -21 -8 -5 -8 11 0 29 3 40 8 25 11 -1 11 -35 0z"/>
<path d="M1900 955 c0 -8 5 -15 10 -15 6 0 10 7 10 15 0 8 -4 15 -10 15 -5 0
-10 -7 -10 -15z"/>
<path d="M2420 952 c0 -18 6 -22 35 -22 19 0 35 5 35 10 0 6 -10 10 -23 10
-13 0 -28 5 -35 12 -9 9 -12 7 -12 -10z"/>
<path d="M3903 963 c-29 -2 -53 -8 -53 -14 0 -15 134 -11 156 6 21 16 18 16
-103 8z"/>
<path d="M5718 963 c7 -3 16 -2 19 1 4 3 -2 6 -13 5 -11 0 -14 -3 -6 -6z"/>
<path d="M615 950 l-30 -8 32 -1 c17 0 35 4 38 9 7 11 3 11 -40 0z"/>
<path d="M2528 953 c6 -2 18 -2 25 0 6 3 1 5 -13 5 -14 0 -19 -2 -12 -5z"/>
<path d="M510 930 c0 -6 11 -8 28 -4 39 10 40 14 4 14 -18 0 -32 -5 -32 -10z"/>
<path d="M3493 933 c9 -2 25 -2 35 0 9 3 1 5 -18 5 -19 0 -27 -2 -17 -5z"/>
<path d="M5745 930 c-3 -5 3 -10 14 -10 11 0 23 5 26 10 3 6 -3 10 -14 10 -11
0 -23 -4 -26 -10z"/>
<path d="M395 923 c-22 -3 -44 -9 -50 -14 -11 -11 79 -2 125 12 24 7 24 7 -5
6 -16 0 -48 -2 -70 -4z"/>
<path d="M3948 923 c7 -3 16 -2 19 1 4 3 -2 6 -13 5 -11 0 -14 -3 -6 -6z"/>
<path d="M1970 910 c0 -5 11 -10 25 -10 14 0 25 5 25 10 0 6 -11 10 -25 10
-14 0 -25 -4 -25 -10z"/>
<path d="M3975 910 c-11 -4 -23 -6 -27 -4 -4 3 -9 0 -13 -6 -4 -6 8 -10 29
-10 19 0 37 4 41 9 8 14 -7 20 -30 11z"/>
<path d="M253 903 c9 -2 23 -2 30 0 6 3 -1 5 -18 5 -16 0 -22 -2 -12 -5z"/>
<path d="M2358 902 c-10 -2 -18 -8 -18 -13 0 -13 27 -11 35 2 9 13 4 16 -17
11z"/>
<path d="M2928 893 c7 -3 16 -2 19 1 4 3 -2 6 -13 5 -11 0 -14 -3 -6 -6z"/>
<path d="M3820 890 c0 -5 20 -10 45 -10 25 0 45 5 45 10 0 6 -20 10 -45 10
-25 0 -45 -4 -45 -10z"/>
<path d="M2828 883 c7 -3 16 -2 19 1 4 3 -2 6 -13 5 -11 0 -14 -3 -6 -6z"/>
<path d="M5665 880 c-3 -5 -1 -10 4 -10 6 0 11 5 11 10 0 6 -2 10 -4 10 -3 0
-8 -4 -11 -10z"/>
<path d="M5810 880 c-11 -7 -6 -10 20 -10 26 0 31 3 20 10 -8 5 -17 10 -20 10
-3 0 -12 -5 -20 -10z"/>
<path d="M728 863 c7 -3 16 -2 19 1 4 3 -2 6 -13 5 -11 0 -14 -3 -6 -6z"/>
<path d="M2380 850 c0 -5 5 -10 11 -10 5 0 7 5 4 10 -3 6 -8 10 -11 10 -2 0
-4 -4 -4 -10z"/>
<path d="M3758 853 c7 -3 16 -2 19 1 4 3 -2 6 -13 5 -11 0 -14 -3 -6 -6z"/>
<path d="M3838 853 c6 -2 18 -2 25 0 6 3 1 5 -13 5 -14 0 -19 -2 -12 -5z"/>
<path d="M571 839 c-24 -5 -47 -11 -50 -15 -8 -8 85 5 113 16 20 8 20 9 1 8
-11 0 -40 -4 -64 -9z"/>
<path d="M4010 825 c0 -8 7 -15 15 -15 8 0 15 7 15 15 0 8 -7 15 -15 15 -8 0
-15 -7 -15 -15z"/>
<path d="M840 820 c-23 -7 -23 -8 -3 -9 12 -1 25 4 28 9 3 6 5 10 3 9 -2 -1
-14 -5 -28 -9z"/>
<path d="M2560 820 c0 -5 5 -10 11 -10 5 0 7 5 4 10 -3 6 -8 10 -11 10 -2 0
-4 -4 -4 -10z"/>
<path d="M3711 820 c9 -5 28 -6 45 0 27 8 26 8 -16 9 -32 0 -40 -2 -29 -9z"/>
<path d="M3797 819 c8 -8 16 -8 30 0 16 9 14 10 -11 11 -22 0 -27 -3 -19 -11z"/>
<path d="M4145 820 c-19 -7 -19 -7 3 -14 26 -9 41 -1 26 13 -5 5 -18 5 -29 1z"/>
<path d="M3285 809 c-16 -6 -14 -8 13 -8 33 -1 41 4 20 12 -7 2 -22 1 -33 -4z"/>
<path d="M3478 813 c6 -2 18 -2 25 0 6 3 1 5 -13 5 -14 0 -19 -2 -12 -5z"/>
<path d="M365 800 c3 -5 10 -10 16 -10 5 0 9 5 9 10 0 6 -7 10 -16 10 -8 0
-12 -4 -9 -10z"/>
<path d="M3105 800 c-4 -6 6 -10 22 -10 22 0 25 2 13 10 -19 12 -27 12 -35 0z"/>
<path d="M3200 800 c20 -13 43 -13 35 0 -3 6 -16 10 -28 10 -18 0 -19 -2 -7
-10z"/>
<path d="M228 793 c7 -3 16 -2 19 1 4 3 -2 6 -13 5 -11 0 -14 -3 -6 -6z"/>
<path d="M298 793 c6 -2 18 -2 25 0 6 3 1 5 -13 5 -14 0 -19 -2 -12 -5z"/>
<path d="M5780 790 c0 -5 4 -10 9 -10 6 0 13 5 16 10 3 6 -1 10 -9 10 -9 0
-16 -4 -16 -10z"/>
<path d="M2550 780 c0 -5 7 -10 16 -10 8 0 12 5 9 10 -3 6 -10 10 -16 10 -5 0
-9 -4 -9 -10z"/>
<path d="M638 773 c7 -3 16 -2 19 1 4 3 -2 6 -13 5 -11 0 -14 -3 -6 -6z"/>
<path d="M2510 748 c0 -9 7 -19 16 -22 15 -6 15 -4 3 11 -7 10 -15 20 -16 22
-2 2 -3 -3 -3 -11z"/>
<path d="M235 730 c-15 -6 -9 -9 25 -9 34 0 40 3 25 9 -11 5 -22 9 -25 9 -3 0
-14 -4 -25 -9z"/>
<path d="M2820 720 c19 -13 30 -13 30 0 0 6 -10 10 -22 10 -19 0 -20 -2 -8
-10z"/>
<path d="M5795 720 c-3 -5 -1 -10 4 -10 6 0 11 5 11 10 0 6 -2 10 -4 10 -3 0
-8 -4 -11 -10z"/>
<path d="M3660 710 c-12 -8 -10 -10 8 -10 13 0 20 4 17 10 -7 12 -6 12 -25 0z"/>
<path d="M5673 713 c9 -2 23 -2 30 0 6 3 -1 5 -18 5 -16 0 -22 -2 -12 -5z"/>
<path d="M3268 693 c7 -3 16 -2 19 1 4 3 -2 6 -13 5 -11 0 -14 -3 -6 -6z"/>
<path d="M2773 683 c9 -2 25 -2 35 0 9 3 1 5 -18 5 -19 0 -27 -2 -17 -5z"/>
<path d="M2998 683 c7 -3 16 -2 19 1 4 3 -2 6 -13 5 -11 0 -14 -3 -6 -6z"/>
<path d="M3070 680 c0 -5 4 -10 9 -10 6 0 13 5 16 10 3 6 -1 10 -9 10 -9 0
-16 -4 -16 -10z"/>
<path d="M5083 683 c9 -2 23 -2 30 0 6 3 -1 5 -18 5 -16 0 -22 -2 -12 -5z"/>
<path d="M3495 670 c-4 -6 20 -10 64 -10 41 0 71 4 71 10 0 6 -28 10 -64 10
-36 0 -68 -4 -71 -10z"/>
<path d="M3688 673 c7 -3 16 -2 19 1 4 3 -2 6 -13 5 -11 0 -14 -3 -6 -6z"/>
<path d="M3730 670 c0 -5 4 -10 9 -10 6 0 13 5 16 10 3 6 -1 10 -9 10 -9 0
-16 -4 -16 -10z"/>
<path d="M3818 673 c6 -2 18 -2 25 0 6 3 1 5 -13 5 -14 0 -19 -2 -12 -5z"/>
<path d="M3938 673 c6 -2 18 -2 25 0 6 3 1 5 -13 5 -14 0 -19 -2 -12 -5z"/>
<path d="M4888 673 c7 -3 16 -2 19 1 4 3 -2 6 -13 5 -11 0 -14 -3 -6 -6z"/>
<path d="M3219 666 c-2 -2 -89 -6 -192 -10 -107 -3 -196 -10 -205 -16 -13 -8
4 -10 63 -6 44 3 144 8 222 12 78 4 140 11 137 15 -5 9 -18 12 -25 5z"/>
<path d="M3334 661 c5 -8 56 -3 56 5 0 2 -14 4 -31 4 -16 0 -28 -4 -25 -9z"/>
<path d="M4170 661 c0 -11 26 -22 34 -14 3 3 3 10 0 14 -7 12 -34 11 -34 0z"/>
<path d="M5695 660 c-3 -5 -1 -10 4 -10 6 0 11 5 11 10 0 6 -2 10 -4 10 -3 0
-8 -4 -11 -10z"/>
<path d="M4035 650 c-3 -5 1 -10 10 -10 9 0 13 5 10 10 -3 6 -8 10 -10 10 -2
0 -7 -4 -10 -10z"/>
<path d="M3855 640 c-28 -7 -27 -8 13 -9 23 0 42 4 42 9 0 11 -11 11 -55 0z"/>
<path d="M2778 633 c7 -3 16 -2 19 1 4 3 -2 6 -13 5 -11 0 -14 -3 -6 -6z"/>
<path d="M3280 630 c12 -7 10 -11 -10 -19 -24 -10 -24 -10 7 -10 38 -1 51 14
24 28 -24 13 -42 14 -21 1z"/>
<path d="M3590 630 c-13 -8 -12 -10 3 -10 9 0 17 5 17 10 0 12 -1 12 -20 0z"/>
<path d="M3678 633 c7 -3 16 -2 19 1 4 3 -2 6 -13 5 -11 0 -14 -3 -6 -6z"/>
<path d="M3773 633 c9 -2 23 -2 30 0 6 3 -1 5 -18 5 -16 0 -22 -2 -12 -5z"/>
<path d="M4116 631 c-3 -5 0 -11 8 -14 15 -6 26 1 26 15 0 11 -27 10 -34 -1z"/>
<path d="M5798 633 c6 -2 18 -2 25 0 6 3 1 5 -13 5 -14 0 -19 -2 -12 -5z"/>
<path d="M1005 620 c-3 -5 -1 -10 4 -10 6 0 11 5 11 10 0 6 -2 10 -4 10 -3 0
-8 -4 -11 -10z"/>
<path d="M3028 623 c7 -3 16 -2 19 1 4 3 -2 6 -13 5 -11 0 -14 -3 -6 -6z"/>
<path d="M3380 619 c-22 -6 -20 -7 13 -8 38 -1 47 3 25 11 -7 3 -24 1 -38 -3z"/>
<path d="M3493 623 c15 -2 37 -2 50 0 12 2 0 4 -28 4 -27 0 -38 -2 -22 -4z"/>
<path d="M2928 613 c6 -2 18 -2 25 0 6 3 1 5 -13 5 -14 0 -19 -2 -12 -5z"/>
<path d="M580 600 c0 -5 5 -10 10 -10 6 0 10 5 10 10 0 6 -4 10 -10 10 -5 0
-10 -4 -10 -10z"/>
<path d="M2828 603 c7 -3 16 -2 19 1 4 3 -2 6 -13 5 -11 0 -14 -3 -6 -6z"/>
<path d="M3198 603 c7 -3 16 -2 19 1 4 3 -2 6 -13 5 -11 0 -14 -3 -6 -6z"/>
<path d="M2695 590 c-4 -6 8 -10 29 -10 19 0 38 5 41 10 4 6 -8 10 -29 10 -19
0 -38 -4 -41 -10z"/>
<path d="M2938 593 c12 -2 30 -2 40 0 9 3 -1 5 -23 4 -22 0 -30 -2 -17 -4z"/>
<path d="M370 580 c0 -5 5 -10 11 -10 5 0 7 5 4 10 -3 6 -8 10 -11 10 -2 0 -4
-4 -4 -10z"/>
<path d="M3133 576 c-4 -7 -15 -16 -23 -19 -10 -3 -7 -6 8 -6 13 -1 21 -5 17
-10 -3 -6 8 -6 27 -1 18 5 77 11 132 14 54 2 101 8 104 11 3 3 -41 5 -99 4
-62 -1 -115 3 -127 10 -26 14 -29 14 -39 -3z"/>
<path d="M3019 576 c-2 -2 -58 -6 -124 -10 -247 -13 -310 -18 -325 -27 -10 -7
37 -7 130 -3 80 4 160 6 178 5 19 -1 32 3 32 10 0 8 19 10 64 7 50 -4 66 -2
70 8 5 12 -14 20 -25 10z"/>
<path d="M3068 573 c6 -2 18 -2 25 0 6 3 1 5 -13 5 -14 0 -19 -2 -12 -5z"/>
<path d="M3443 563 c20 -2 54 -2 75 0 20 2 3 4 -38 4 -41 0 -58 -2 -37 -4z"/>
<path d="M3623 563 c26 -2 67 -2 90 0 23 2 2 3 -48 3 -49 0 -68 -1 -42 -3z"/>
<path d="M3955 559 c-4 -5 13 -9 36 -9 48 0 48 9 0 15 -17 2 -33 -1 -36 -6z"/>
<path d="M5766 555 c-4 -12 -1 -16 11 -13 16 3 18 13 3 23 -4 3 -10 -1 -14
-10z"/>
<path d="M3058 553 c7 -3 16 -2 19 1 4 3 -2 6 -13 5 -11 0 -14 -3 -6 -6z"/>
<path d="M2978 543 c7 -3 16 -2 19 1 4 3 -2 6 -13 5 -11 0 -14 -3 -6 -6z"/>
<path d="M3020 528 c-71 -13 -92 -31 -25 -21 62 8 141 32 105 31 -14 0 -50 -5
-80 -10z"/>
<path d="M2357 523 c-13 -12 -7 -25 6 -14 8 6 17 8 20 4 4 -3 7 -1 7 5 0 13
-22 16 -33 5z"/>
<path d="M3495 520 c-17 -7 -14 -9 13 -9 20 -1 31 3 27 9 -7 12 -13 12 -40 0z"/>
<path d="M3595 520 c-3 -5 1 -10 9 -10 9 0 16 5 16 10 0 6 -4 10 -9 10 -6 0
-13 -4 -16 -10z"/>
<path d="M3630 520 c0 -5 5 -10 10 -10 6 0 10 5 10 10 0 6 -4 10 -10 10 -5 0
-10 -4 -10 -10z"/>
<path d="M1451 511 c-25 -3 -46 -12 -49 -20 -3 -9 0 -12 10 -8 9 3 20 1 25 -4
13 -13 150 -21 157 -10 11 17 -32 44 -59 37 -14 -4 -25 -2 -25 4 0 5 -3 9 -7
8 -5 0 -28 -4 -52 -7z"/>
<path d="M2555 510 c-4 -6 5 -10 19 -10 14 0 26 5 26 10 0 6 -9 10 -19 10 -11
0 -23 -4 -26 -10z"/>
<path d="M3353 513 c9 -2 23 -2 30 0 6 3 -1 5 -18 5 -16 0 -22 -2 -12 -5z"/>
<path d="M1224 498 c-6 -10 -12 -9 72 -13 40 -1 78 1 85 6 16 10 17 10 -84 14
-37 1 -70 -2 -73 -7z"/>
<path d="M2838 498 c-47 -8 -58 -14 -58 -29 0 -15 7 -19 38 -19 l37 1 -30 13
c-30 13 -29 13 38 21 37 4 67 11 67 16 0 10 -15 10 -92 -3z"/>
<path d="M2620 481 c0 -16 28 -20 34 -5 4 9 -1 14 -14 14 -11 0 -20 -4 -20 -9z"/>
<path d="M4190 460 c0 -5 5 -10 10 -10 6 0 10 5 10 10 0 6 -4 10 -10 10 -5 0
-10 -4 -10 -10z"/>
<path d="M5090 460 c0 -5 5 -10 11 -10 5 0 7 5 4 10 -3 6 -8 10 -11 10 -2 0
-4 -4 -4 -10z"/>
<path d="M2160 450 c0 -5 5 -10 10 -10 6 0 10 5 10 10 0 6 -4 10 -10 10 -5 0
-10 -4 -10 -10z"/>
<path d="M2668 453 c6 -2 18 -2 25 0 6 3 1 5 -13 5 -14 0 -19 -2 -12 -5z"/>
<path d="M5218 453 c7 -3 16 -2 19 1 4 3 -2 6 -13 5 -11 0 -14 -3 -6 -6z"/>
<path d="M5258 453 c7 -3 16 -2 19 1 4 3 -2 6 -13 5 -11 0 -14 -3 -6 -6z"/>
<path d="M5638 423 c6 -2 18 -2 25 0 6 3 1 5 -13 5 -14 0 -19 -2 -12 -5z"/>
<path d="M528 413 c7 -3 16 -2 19 1 4 3 -2 6 -13 5 -11 0 -14 -3 -6 -6z"/>
<path d="M5140 412 c0 -5 7 -9 15 -9 8 0 15 4 15 9 0 4 -7 8 -15 8 -8 0 -15
-4 -15 -8z"/>
<path d="M5745 410 c3 -5 23 -10 43 -9 30 0 33 2 17 9 -28 12 -67 12 -60 0z"/>
<path d="M310 400 c-24 -8 -23 -8 8 -9 17 -1 32 4 32 9 0 11 -5 11 -40 0z"/>
<path d="M423 403 c9 -2 23 -2 30 0 6 3 -1 5 -18 5 -16 0 -22 -2 -12 -5z"/>
<path d="M2660 350 c0 -5 14 -10 30 -10 17 0 30 5 30 10 0 6 -13 10 -30 10
-16 0 -30 -4 -30 -10z"/>
<path d="M2978 353 c7 -3 16 -2 19 1 4 3 -2 6 -13 5 -11 0 -14 -3 -6 -6z"/>
<path d="M3188 353 c7 -3 16 -2 19 1 4 3 -2 6 -13 5 -11 0 -14 -3 -6 -6z"/>
<path d="M5780 350 c0 -5 5 -10 11 -10 5 0 7 5 4 10 -3 6 -8 10 -11 10 -2 0
-4 -4 -4 -10z"/>
<path d="M438 343 c7 -3 16 -2 19 1 4 3 -2 6 -13 5 -11 0 -14 -3 -6 -6z"/>
<path d="M2598 343 c6 -2 18 -2 25 0 6 3 1 5 -13 5 -14 0 -19 -2 -12 -5z"/>
<path d="M5840 340 c0 -5 5 -10 10 -10 6 0 10 5 10 10 0 6 -4 10 -10 10 -5 0
-10 -4 -10 -10z"/>
<path d="M3768 333 c6 -2 18 -2 25 0 6 3 1 5 -13 5 -14 0 -19 -2 -12 -5z"/>
<path d="M348 323 c7 -3 16 -2 19 1 4 3 -2 6 -13 5 -11 0 -14 -3 -6 -6z"/>
<path d="M268 313 c-21 -5 -24 -19 -5 -25 14 -6 53 -5 255 7 78 4 142 10 142
14 0 3 -51 3 -112 -1 -162 -9 -267 -9 -243 2 l20 9 -20 -1 c-11 0 -28 -2 -37
-5z"/>
<path d="M713 313 c9 -2 23 -2 30 0 6 3 -1 5 -18 5 -16 0 -22 -2 -12 -5z"/>
<path d="M3420 300 c0 -5 7 -10 16 -10 8 0 12 5 9 10 -3 6 -10 10 -16 10 -5 0
-9 -4 -9 -10z"/>
<path d="M3680 257 c-16 -15 -745 -27 -807 -13 -26 6 -33 4 -33 -7 0 -9 8 -18
18 -20 11 -3 7 -5 -10 -6 -15 0 -30 -6 -33 -12 -5 -7 3 -9 25 -6 22 4 33 1 37
-9 8 -20 -4 -29 -20 -16 -8 7 -17 9 -20 6 -3 -4 -23 -3 -43 1 -28 5 -34 9 -23
16 11 7 9 9 -8 9 -12 0 -25 -5 -28 -10 -11 -17 -37 -11 -42 10 -3 11 -14 20
-25 20 -21 0 -51 -24 -41 -34 4 -3 -3 -6 -15 -6 -11 0 -27 7 -35 15 -13 12
-15 11 -19 -15 -5 -35 -37 -32 287 -29 223 1 262 3 272 12 3 4 -45 7 -107 7
-125 0 -146 11 -27 13 41 1 73 5 70 10 -2 4 1 7 6 7 6 0 11 -4 11 -10 0 -5 16
-10 35 -10 19 0 35 -5 35 -11 0 -8 44 -9 153 -3 210 10 267 10 267 2 0 -13 36
-9 66 7 16 8 47 15 68 15 38 0 39 -1 20 -15 -18 -15 -16 -15 26 -8 25 4 59 6
75 5 92 -7 136 -5 147 6 18 18 45 15 60 -7 8 -11 26 -18 48 -19 19 -1 66 -4
104 -8 l69 -7 -6 36 -5 35 34 -5 c22 -4 34 -2 34 6 0 6 -6 11 -12 11 -92 3
-206 15 -217 23 -13 11 -381 24 -391 14z m-63 -23 c-3 -3 -12 -4 -19 -1 -8 3
-5 6 6 6 11 1 17 -2 13 -5z m-584 -11 c-7 -2 -19 -2 -25 0 -7 3 -2 5 12 5 14
0 19 -2 13 -5z m1042 -13 c4 -6 -9 -10 -32 -9 -38 1 -38 1 -8 9 17 4 31 8 32
9 1 0 5 -3 8 -9z m-952 -7 c-7 -2 -21 -2 -30 0 -10 3 -4 5 12 5 17 0 24 -2 18
-5z m802 -3 c-3 -5 -14 -10 -23 -10 -15 0 -15 2 -2 10 20 13 33 13 25 0z
m-700 -10 c3 -5 -3 -10 -15 -10 -12 0 -18 5 -15 10 3 6 10 10 15 10 5 0 12 -4
15 -10z"/>
<path d="M2653 243 c26 -2 68 -2 95 0 26 2 4 3 -48 3 -52 0 -74 -1 -47 -3z"/>
<path d="M2800 240 c0 -5 7 -10 15 -10 8 0 15 5 15 10 0 6 -7 10 -15 10 -8 0
-15 -4 -15 -10z"/>
<path d="M2286 231 c-48 -5 -60 -10 -62 -25 -1 -10 -8 -22 -14 -26 -6 -4 40
-6 102 -6 62 0 105 2 96 4 -10 2 -18 12 -18 23 0 14 7 19 30 19 23 0 30 -5 30
-19 0 -11 -6 -22 -12 -24 -7 -3 15 -6 50 -6 62 -1 62 -1 62 28 0 24 -4 29 -25
27 -14 0 -27 -7 -30 -14 -4 -11 -7 -11 -19 0 -8 7 -12 16 -9 21 5 8 -89 7
-181 -2z m61 -17 c-3 -3 -12 -4 -19 -1 -8 3 -5 6 6 6 11 1 17 -2 13 -5z"/>
<path d="M1480 220 c0 -10 34 -15 78 -11 12 1 22 -3 22 -9 0 -5 -15 -10 -33
-10 -22 0 -41 -8 -53 -21 l-19 -22 55 8 c93 13 164 14 177 3 8 -6 37 -8 75 -4
35 3 129 9 211 12 197 9 198 32 2 53 -133 14 -515 15 -515 1z m610 -30 c0 -5
-2 -10 -4 -10 -3 0 -8 5 -11 10 -3 6 -1 10 4 10 6 0 11 -4 11 -10z"/>
<path d="M4416 206 c-10 -36 -7 -38 57 -34 54 3 62 1 61 -14 -1 -10 3 -18 10
-18 14 0 80 79 72 87 -3 4 -6 1 -6 -6 0 -9 -18 -12 -67 -10 -38 2 -72 5 -78 8
-23 12 -44 6 -49 -13z"/>
<path d="M2158 173 c7 -3 16 -2 19 1 4 3 -2 6 -13 5 -11 0 -14 -3 -6 -6z"/>
<path d="M4306 155 c-3 -9 0 -15 9 -15 8 0 15 7 15 15 0 8 -4 15 -9 15 -5 0
-11 -7 -15 -15z"/>
<path d="M2495 150 c3 -5 10 -10 16 -10 5 0 9 5 9 10 0 6 -7 10 -16 10 -8 0
-12 -4 -9 -10z"/>
<path d="M3748 143 c6 -2 18 -2 25 0 6 3 1 5 -13 5 -14 0 -19 -2 -12 -5z"/>
<path d="M3878 143 c7 -3 16 -2 19 1 4 3 -2 6 -13 5 -11 0 -14 -3 -6 -6z"/>
</g>
</svg>
