<?xml version="1.0" standalone="no"?>
<!DOCTYPE svg PUBLIC "-//W3C//DTD SVG 20010904//EN"
 "http://www.w3.org/TR/2001/REC-SVG-20010904/DTD/svg10.dtd">
<svg version="1.0" xmlns="http://www.w3.org/2000/svg"
 width="615.000000pt" height="136.000000pt" viewBox="0 0 615.000000 136.000000"
 preserveAspectRatio="xMidYMid meet">
<metadata>
Created by potrace 1.16, written by Peter Selinger 2001-2019
</metadata>
<g transform="translate(0.000000,136.000000) scale(0.100000,-0.100000)"
fill="#000000" stroke="none">
<path d="M2141 1344 c0 -11 3 -14 6 -6 3 7 2 16 -1 19 -3 4 -6 -2 -5 -13z"/>
<path d="M3752 1344 c9 -9 21 -13 27 -9 16 10 3 25 -22 25 -20 0 -20 -1 -5
-16z"/>
<path d="M4452 1348 c7 -19 38 -22 38 -4 0 10 -9 16 -21 16 -12 0 -19 -5 -17
-12z"/>
<path d="M4633 1348 c2 -7 12 -13 22 -13 10 0 20 6 23 13 2 7 -6 12 -23 12
-17 0 -25 -5 -22 -12z"/>
<path d="M3390 1332 c0 -5 7 -13 16 -16 10 -4 14 -1 12 6 -5 15 -28 23 -28 10z"/>
<path d="M3950 1331 c0 -6 5 -13 10 -16 6 -3 10 1 10 9 0 9 -4 16 -10 16 -5 0
-10 -4 -10 -9z"/>
<path d="M3995 1302 c3 -8 5 -16 5 -18 0 -2 9 -4 20 -4 13 0 20 7 20 20 0 15
-6 19 -25 18 -17 -2 -24 -7 -20 -16z"/>
<path d="M4190 1313 c-8 -3 -22 -7 -30 -10 -8 -4 -18 -5 -22 -5 -14 3 -9 -16
9 -33 15 -15 17 -15 25 -1 5 9 15 16 23 16 8 0 16 4 19 8 8 13 -8 29 -24 25z"/>
<path d="M987 1288 c-20 -21 -16 -48 7 -48 15 0 26 21 26 51 0 24 -10 23 -33
-3z"/>
<path d="M1198 1303 c6 -2 18 -2 25 0 6 3 1 5 -13 5 -14 0 -19 -2 -12 -5z"/>
<path d="M3413 1263 c-18 -6 -4 -33 18 -33 10 0 19 4 19 9 0 13 -24 29 -37 24z"/>
<path d="M4680 1250 c0 -5 5 -10 10 -10 6 0 10 5 10 10 0 6 -4 10 -10 10 -5 0
-10 -4 -10 -10z"/>
<path d="M3974 1235 c-4 -8 -3 -22 0 -31 6 -15 8 -15 26 1 11 10 20 24 20 32
0 18 -39 17 -46 -2z"/>
<path d="M3915 1211 c-3 -5 -1 -12 5 -16 5 -3 10 1 10 9 0 18 -6 21 -15 7z"/>
<path d="M4447 1212 c-15 -2 -25 -8 -22 -13 8 -12 65 -12 65 0 0 14 -11 17
-43 13z"/>
<path d="M1643 1183 c-14 -5 -18 -53 -5 -53 20 0 45 28 39 44 -7 16 -13 18
-34 9z"/>
<path d="M4405 1170 c3 -5 11 -10 16 -10 6 0 7 5 4 10 -3 6 -11 10 -16 10 -6
0 -7 -4 -4 -10z"/>
<path d="M3820 1159 c0 -5 5 -7 10 -4 6 3 10 8 10 11 0 2 -4 4 -10 4 -5 0 -10
-5 -10 -11z"/>
<path d="M1461 1151 c-10 -7 -10 -10 -1 -16 6 -4 16 -3 22 3 13 13 -4 23 -21
13z"/>
<path d="M1695 1137 c-13 -10 -15 -16 -6 -22 8 -4 21 1 32 14 23 24 5 30 -26
8z"/>
<path d="M1560 1130 c-8 -5 -12 -12 -9 -15 8 -8 39 5 39 16 0 11 -11 11 -30
-1z"/>
<path d="M2570 1121 c0 -6 5 -13 11 -17 8 -5 8 -8 0 -14 -7 -3 -9 -14 -5 -23
3 -9 10 -15 14 -12 7 5 8 25 1 68 -2 10 -21 9 -21 -2z"/>
<path d="M4660 1121 c0 -5 5 -13 10 -16 6 -3 10 -2 10 4 0 5 -4 13 -10 16 -5
3 -10 2 -10 -4z"/>
<path d="M5320 1120 c0 -5 5 -10 11 -10 5 0 7 5 4 10 -3 6 -8 10 -11 10 -2 0
-4 -4 -4 -10z"/>
<path d="M4370 1100 c0 -5 7 -10 15 -10 8 0 15 5 15 10 0 6 -7 10 -15 10 -8 0
-15 -4 -15 -10z"/>
<path d="M1015 1050 c3 -5 11 -10 16 -10 6 0 7 5 4 10 -3 6 -11 10 -16 10 -6
0 -7 -4 -4 -10z"/>
<path d="M1865 1050 c-3 -5 3 -10 14 -10 12 0 21 5 21 10 0 6 -6 10 -14 10 -8
0 -18 -4 -21 -10z"/>
<path d="M1960 1050 c0 -5 4 -10 9 -10 6 0 13 5 16 10 3 6 -1 10 -9 10 -9 0
-16 -4 -16 -10z"/>
<path d="M5670 1050 c0 -5 5 -10 10 -10 6 0 10 5 10 10 0 6 -4 10 -10 10 -5 0
-10 -4 -10 -10z"/>
<path d="M1943 888 c2 -7 7 -13 12 -13 5 0 10 6 13 13 2 6 -4 12 -13 12 -9 0
-15 -6 -12 -12z"/>
<path d="M5615 875 c-26 -25 -29 -35 -19 -72 9 -32 24 -28 24 6 0 16 6 31 15
35 9 3 14 16 13 31 -3 31 -3 31 -33 0z"/>
<path d="M2015 860 c3 -5 8 -10 11 -10 2 0 4 5 4 10 0 6 -5 10 -11 10 -5 0 -7
-4 -4 -10z"/>
<path d="M790 845 c0 -8 7 -15 15 -15 8 0 15 7 15 15 0 8 -7 15 -15 15 -8 0
-15 -7 -15 -15z"/>
<path d="M1595 846 c-18 -13 -18 -14 3 -20 27 -9 43 0 35 19 -7 19 -14 19 -38
1z"/>
<path d="M1890 850 c0 -5 5 -10 10 -10 6 0 10 5 10 10 0 6 -4 10 -10 10 -5 0
-10 -4 -10 -10z"/>
<path d="M2983 833 c-15 -5 -18 -43 -4 -43 9 0 26 39 19 44 -1 2 -9 1 -15 -1z"/>
<path d="M1455 820 c-3 -5 -1 -10 4 -10 6 0 11 5 11 10 0 6 -2 10 -4 10 -3 0
-8 -4 -11 -10z"/>
<path d="M2151 788 c-22 -23 -41 -47 -41 -55 0 -7 -4 -13 -10 -13 -5 0 -10 -9
-10 -20 0 -45 79 -8 107 50 38 79 15 98 -46 38z"/>
<path d="M414 794 c3 -9 6 -19 6 -22 0 -9 20 21 20 31 0 4 -7 7 -16 7 -11 0
-14 -5 -10 -16z"/>
<path d="M265 780 c-8 -13 -1 -24 14 -19 6 3 7 10 2 18 -6 10 -10 10 -16 1z"/>
<path d="M130 771 c0 -6 5 -13 10 -16 6 -3 10 1 10 9 0 9 -4 16 -10 16 -5 0
-10 -4 -10 -9z"/>
<path d="M102 759 c3 -8 8 -13 11 -11 9 3 7 11 -5 18 -6 4 -8 0 -6 -7z"/>
<path d="M1652 738 c-8 -8 -9 -15 -1 -25 15 -17 27 -16 45 2 13 12 12 15 -5
25 -24 13 -24 13 -39 -2z"/>
<path d="M6020 739 c0 -5 5 -7 10 -4 6 3 10 8 10 11 0 2 -4 4 -10 4 -5 0 -10
-5 -10 -11z"/>
<path d="M898 729 c-24 -13 -23 -29 1 -29 10 0 21 9 24 20 6 22 0 24 -25 9z"/>
<path d="M1910 724 c0 -8 5 -12 10 -9 6 3 10 10 10 16 0 5 -4 9 -10 9 -5 0
-10 -7 -10 -16z"/>
<path d="M725 700 c3 -5 8 -10 11 -10 2 0 4 5 4 10 0 6 -5 10 -11 10 -5 0 -7
-4 -4 -10z"/>
<path d="M1500 699 c0 -6 25 -19 36 -19 2 0 4 6 4 13 0 7 -9 13 -20 13 -11 0
-20 -3 -20 -7z"/>
<path d="M684 667 c-15 -18 -25 -47 -15 -47 5 0 18 -3 28 -7 16 -6 16 -5 4 10
-10 13 -10 17 -1 17 7 0 10 6 7 14 -3 8 -1 17 6 20 7 3 6 5 -3 5 -8 0 -20 -5
-26 -12z"/>
<path d="M971 667 c-8 -10 -7 -14 4 -14 8 0 15 6 15 14 0 7 -2 13 -4 13 -2 0
-9 -6 -15 -13z"/>
<path d="M2286 663 c-10 -24 7 -35 30 -18 16 13 17 16 4 25 -21 14 -27 13 -34
-7z"/>
<path d="M4055 670 c-3 -5 1 -10 10 -10 9 0 13 5 10 10 -3 6 -8 10 -10 10 -2
0 -7 -4 -10 -10z"/>
<path d="M1320 653 c0 -15 2 -15 24 -7 23 9 20 23 -4 21 -11 -1 -20 -7 -20
-14z"/>
<path d="M2055 650 c-3 -5 -1 -10 4 -10 6 0 11 5 11 10 0 6 -2 10 -4 10 -3 0
-8 -4 -11 -10z"/>
<path d="M40 630 c0 -5 7 -10 15 -10 8 0 15 5 15 10 0 6 -7 10 -15 10 -8 0
-15 -4 -15 -10z"/>
<path d="M3982 626 c-25 -12 -24 -29 2 -34 16 -3 45 22 46 41 0 10 -20 7 -48
-7z"/>
<path d="M4045 630 c-3 -5 -1 -10 4 -10 6 0 11 5 11 10 0 6 -2 10 -4 10 -3 0
-8 -4 -11 -10z"/>
<path d="M5142 570 c-6 -11 -12 -25 -12 -32 0 -7 -7 -26 -15 -41 -14 -27 -11
-57 5 -57 4 0 11 12 14 26 5 20 12 25 26 21 11 -3 20 -1 20 4 0 5 -7 9 -15 9
-18 0 -19 12 -3 28 10 10 10 15 -2 22 -13 8 -12 10 2 10 11 0 15 5 12 15 -8
20 -17 19 -32 -5z"/>
<path d="M375 570 c3 -5 8 -10 11 -10 2 0 4 5 4 10 0 6 -5 10 -11 10 -5 0 -7
-4 -4 -10z"/>
<path d="M3030 570 c0 -5 5 -10 10 -10 6 0 10 5 10 10 0 6 -4 10 -10 10 -5 0
-10 -4 -10 -10z"/>
<path d="M2168 543 c7 -3 16 -2 19 1 4 3 -2 6 -13 5 -11 0 -14 -3 -6 -6z"/>
<path d="M3077 533 c-4 -3 -7 -15 -7 -26 0 -15 5 -18 23 -13 12 3 26 6 31 6 6
0 0 9 -12 20 -23 22 -26 23 -35 13z"/>
<path d="M3830 530 c-12 -8 -11 -10 8 -10 12 0 22 5 22 10 0 13 -11 13 -30 0z"/>
<path d="M6001 524 c0 -11 3 -14 6 -6 3 7 2 16 -1 19 -3 4 -6 -2 -5 -13z"/>
<path d="M3785 520 c-3 -5 -2 -10 4 -10 5 0 13 5 16 10 3 6 2 10 -4 10 -5 0
-13 -4 -16 -10z"/>
<path d="M3901 508 c-20 -20 -20 -23 -5 -26 23 -5 52 24 37 39 -8 8 -17 4 -32
-13z"/>
<path d="M57 503 c-12 -12 -7 -33 7 -33 9 0 14 9 13 20 -1 20 -9 25 -20 13z"/>
<path d="M3782 491 c-10 -6 -10 -10 3 -21 8 -7 18 -10 22 -6 3 3 1 6 -7 6 -10
0 -10 3 0 15 13 16 3 20 -18 6z"/>
<path d="M3317 441 c-4 -18 -1 -19 27 -14 49 9 50 17 5 28 -21 5 -27 2 -32
-14z"/>
<path d="M2590 442 c0 -5 -10 -14 -22 -20 l-23 -11 25 2 c18 1 24 -2 22 -14
-1 -9 5 -22 13 -29 10 -9 15 -9 15 -1 0 6 8 11 18 11 14 0 15 2 2 9 -8 6 -18
7 -24 4 -5 -4 -6 -1 0 8 17 28 15 49 -6 49 -11 0 -20 -4 -20 -8z"/>
<path d="M4155 439 c-8 -12 11 -29 33 -29 19 0 10 34 -10 38 -9 2 -19 -2 -23
-9z"/>
<path d="M54 418 c3 -13 6 -33 6 -45 0 -40 18 -24 18 16 1 27 -4 41 -15 45
-12 5 -14 1 -9 -16z"/>
<path d="M5860 415 c-7 -8 -8 -15 -2 -15 5 0 15 7 22 15 7 8 8 15 2 15 -5 0
-15 -7 -22 -15z"/>
<path d="M2721 383 c-1 -14 5 -23 14 -23 9 0 12 -6 9 -17 -5 -14 -4 -15 4 -4
11 15 4 53 -8 46 -5 -3 -11 1 -13 7 -3 7 -6 3 -6 -9z"/>
<path d="M4970 391 c0 -5 5 -13 10 -16 6 -3 10 -2 10 4 0 5 -4 13 -10 16 -5 3
-10 2 -10 -4z"/>
<path d="M3915 381 c-6 -11 9 -23 19 -14 9 9 7 23 -3 23 -6 0 -12 -4 -16 -9z"/>
<path d="M4153 382 c-12 -2 -24 -10 -27 -19 -8 -20 13 -46 31 -39 8 3 17 -2
20 -11 4 -9 1 -19 -5 -21 -7 -2 -12 -10 -12 -18 0 -9 4 -13 9 -9 6 3 14 -2 19
-11 8 -15 11 -14 26 7 9 13 19 23 21 22 3 -2 5 -1 5 2 0 3 0 12 0 21 0 8 -4
13 -9 9 -13 -8 -43 25 -37 41 7 17 -14 31 -41 26z"/>
<path d="M5843 374 c-3 -8 -1 -20 6 -27 6 -6 11 -9 12 -6 0 2 2 14 5 27 4 25
-13 30 -23 6z"/>
<path d="M3240 359 c0 -6 -7 -17 -15 -25 -20 -20 -20 -45 0 -38 8 4 12 10 10
15 -3 5 3 16 14 26 11 9 18 20 15 25 -7 12 -24 10 -24 -3z"/>
<path d="M6100 350 c0 -11 5 -20 10 -20 6 0 10 9 10 20 0 11 -4 20 -10 20 -5
0 -10 -9 -10 -20z"/>
<path d="M1700 350 c0 -5 5 -10 11 -10 5 0 7 5 4 10 -3 6 -8 10 -11 10 -2 0
-4 -4 -4 -10z"/>
<path d="M2637 343 c-12 -11 -7 -57 8 -77 8 -11 15 -31 15 -45 1 -29 65 -105
80 -96 14 9 12 82 -2 91 -6 4 -16 0 -23 -9 -15 -21 -25 -11 -25 24 0 17 -10
38 -26 54 -17 17 -23 32 -19 45 6 20 4 25 -8 13z"/>
<path d="M5080 330 c0 -5 -7 -10 -15 -10 -8 0 -15 -4 -15 -10 0 -5 9 -10 20
-10 13 0 20 7 20 20 0 11 -2 20 -5 20 -3 0 -5 -4 -5 -10z"/>
<path d="M5821 326 c-7 -8 -9 -21 -5 -27 5 -9 10 -5 16 11 10 28 5 36 -11 16z"/>
<path d="M4910 300 c-13 -9 -12 -12 4 -25 28 -21 36 -19 36 10 0 26 -15 32
-40 15z"/>
<path d="M6080 270 c0 -16 -4 -30 -9 -30 -5 0 -9 -18 -9 -40 -1 -23 3 -38 9
-35 5 4 9 1 9 -5 0 -6 -12 -15 -26 -20 -14 -6 -22 -14 -19 -20 9 -14 43 -12
52 3 4 8 16 16 26 20 18 7 22 33 8 56 -7 10 -5 18 5 25 12 9 12 17 2 44 -16
43 -48 44 -48 2z"/>
<path d="M56 274 c-10 -26 -7 -60 8 -88 l14 -27 7 28 c3 15 11 30 16 34 13 8
-10 69 -26 69 -7 0 -16 -7 -19 -16z"/>
<path d="M2702 268 c2 -13 9 -23 17 -23 23 0 23 19 0 33 -19 12 -20 11 -17
-10z"/>
<path d="M3950 275 c0 -8 5 -15 10 -15 6 0 10 7 10 15 0 8 -4 15 -10 15 -5 0
-10 -7 -10 -15z"/>
<path d="M4314 245 c4 -42 12 -53 28 -37 7 7 22 12 35 12 26 0 39 21 28 48 -6
15 -8 15 -15 -4 -9 -24 -50 -40 -50 -19 0 7 -6 18 -14 24 -12 10 -14 6 -12
-24z"/>
<path d="M5276 271 c-9 -14 4 -41 20 -41 9 0 13 8 11 22 -4 24 -22 35 -31 19z"/>
<path d="M4840 241 c0 -6 5 -13 10 -16 6 -3 10 1 10 9 0 9 -4 16 -10 16 -5 0
-10 -4 -10 -9z"/>
<path d="M5396 207 c-16 -12 -16 -14 3 -36 14 -15 21 -19 21 -10 0 8 3 24 6
37 7 25 -4 28 -30 9z"/>
<path d="M3440 195 c-10 -13 -9 -15 9 -15 12 0 21 6 21 15 0 8 -4 15 -9 15 -5
0 -14 -7 -21 -15z"/>
<path d="M4160 186 c0 -9 7 -12 20 -9 11 3 17 9 14 14 -8 14 -34 10 -34 -5z"/>
<path d="M5453 180 c-3 -11 -9 -20 -14 -20 -16 0 -9 -29 9 -39 9 -5 29 -9 45
-9 23 0 27 5 27 29 0 16 -4 29 -10 29 -5 0 -10 7 -10 15 0 23 -41 19 -47 -5z"/>
<path d="M3140 180 c0 -5 5 -10 10 -10 6 0 10 5 10 10 0 6 -4 10 -10 10 -5 0
-10 -4 -10 -10z"/>
<path d="M4840 180 c0 -5 5 -10 10 -10 6 0 10 5 10 10 0 6 -4 10 -10 10 -5 0
-10 -4 -10 -10z"/>
<path d="M570 170 c0 -5 5 -10 11 -10 5 0 7 5 4 10 -3 6 -8 10 -11 10 -2 0 -4
-4 -4 -10z"/>
<path d="M5895 161 c-3 -5 -1 -12 5 -16 5 -3 10 1 10 9 0 18 -6 21 -15 7z"/>
<path d="M1525 150 c-10 -16 7 -31 23 -21 10 6 10 10 -2 20 -10 9 -16 9 -21 1z"/>
<path d="M4973 133 c-14 -30 -13 -35 6 -24 7 5 11 18 9 30 -3 19 -4 19 -15 -6z"/>
<path d="M72 130 c0 -14 2 -19 5 -12 2 6 2 18 0 25 -3 6 -5 1 -5 -13z"/>
<path d="M3004 139 c-42 -10 -59 -33 -47 -65 7 -18 42 -18 49 0 3 8 22 17 42
21 57 10 73 16 67 25 -3 5 -12 7 -19 4 -7 -3 -19 2 -26 11 -7 8 -15 15 -19 14
-3 -1 -25 -5 -47 -10z"/>
<path d="M1940 125 c-7 -8 -11 -15 -9 -16 32 -6 39 -5 39 6 0 21 -16 26 -30
10z"/>
<path d="M5960 133 c-13 -3 -30 -12 -37 -21 -11 -16 -12 -16 -13 1 0 14 -5 16
-27 11 -66 -16 -49 -44 26 -44 24 0 42 3 38 6 -9 9 21 36 33 29 5 -3 10 1 10
9 0 9 -1 15 -2 15 -2 -1 -14 -4 -28 -6z"/>
<path d="M5210 120 c0 -5 5 -10 10 -10 6 0 10 5 10 10 0 6 -4 10 -10 10 -5 0
-10 -4 -10 -10z"/>
<path d="M3420 105 c0 -5 5 -17 10 -25 5 -8 10 -10 10 -5 0 6 -5 17 -10 25 -5
8 -10 11 -10 5z"/>
<path d="M346 83 c-3 -7 2 -14 12 -14 53 -4 78 17 28 23 -23 2 -37 -1 -40 -9z"/>
<path d="M3455 90 c-3 -5 -1 -10 4 -10 6 0 11 5 11 10 0 6 -2 10 -4 10 -3 0
-8 -4 -11 -10z"/>
<path d="M3490 84 c0 -8 5 -12 10 -9 6 3 10 10 10 16 0 5 -4 9 -10 9 -5 0 -10
-7 -10 -16z"/>
<path d="M2710 81 c0 -5 -9 -13 -20 -16 -25 -8 -26 -40 -3 -50 12 -4 24 1 35
14 9 12 21 21 27 21 14 0 14 13 -1 28 -14 14 -38 16 -38 3z"/>
<path d="M3530 80 c0 -5 5 -10 11 -10 5 0 7 5 4 10 -3 6 -8 10 -11 10 -2 0 -4
-4 -4 -10z"/>
<path d="M4070 80 c0 -5 4 -10 9 -10 6 0 13 5 16 10 3 6 -1 10 -9 10 -9 0 -16
-4 -16 -10z"/>
<path d="M130 67 c0 -8 16 -14 41 -16 30 -1 40 2 37 11 -6 17 -78 22 -78 5z"/>
<path d="M237 63 c3 -7 9 -13 14 -13 5 0 12 0 17 0 18 0 5 24 -15 25 -14 1
-19 -3 -16 -12z"/>
<path d="M2590 65 c0 -8 9 -15 20 -15 24 0 27 15 4 24 -22 9 -24 8 -24 -9z"/>
<path d="M3095 60 c-3 -5 -24 -10 -46 -10 -21 0 -39 -4 -39 -10 0 -5 30 -9 68
-9 65 1 98 12 86 30 -7 12 -61 11 -69 -1z"/>
<path d="M5180 60 c0 -5 7 -10 15 -10 8 0 15 5 15 10 0 6 -7 10 -15 10 -8 0
-15 -4 -15 -10z"/>
<path d="M403 53 c9 -2 23 -2 30 0 6 3 -1 5 -18 5 -16 0 -22 -2 -12 -5z"/>
<path d="M450 50 c0 -5 7 -10 15 -10 8 0 15 5 15 10 0 6 -7 10 -15 10 -8 0
-15 -4 -15 -10z"/>
<path d="M2546 31 c-4 -7 -5 -15 -2 -18 9 -9 19 4 14 18 -4 11 -6 11 -12 0z"/>
<path d="M1650 19 c0 -5 9 -9 20 -9 11 0 22 0 25 0 3 0 4 3 3 7 -4 11 -48 13
-48 2z"/>
<path d="M1800 15 c0 -8 5 -15 10 -15 6 0 10 7 10 15 0 8 -4 15 -10 15 -5 0
-10 -7 -10 -15z"/>
<path d="M2245 20 c-3 -5 1 -10 9 -10 9 0 16 5 16 10 0 6 -4 10 -9 10 -6 0
-13 -4 -16 -10z"/>
</g>
</svg>
