<?xml version="1.0" standalone="no"?>
<!DOCTYPE svg PUBLIC "-//W3C//DTD SVG 20010904//EN"
 "http://www.w3.org/TR/2001/REC-SVG-20010904/DTD/svg10.dtd">
<svg version="1.0" xmlns="http://www.w3.org/2000/svg"
 width="300.000000pt" height="199.000000pt" viewBox="0 0 300.000000 199.000000"
 preserveAspectRatio="xMidYMid meet">
<metadata>
Created by potrace 1.16, written by Peter Selinger 2001-2019
</metadata>
<g transform="translate(0.000000,199.000000) scale(0.100000,-0.100000)"
fill="#000000" stroke="none">
<path d="M2250 1983 c0 -5 6 -15 13 -24 10 -13 15 -14 24 -4 7 7 9 16 5 20 -4
4 10 5 31 2 20 -3 37 -2 37 4 0 5 -25 9 -55 9 -30 0 -55 -3 -55 -7z"/>
<path d="M2520 1980 c0 -5 5 -10 10 -10 6 0 10 5 10 10 0 6 -4 10 -10 10 -5 0
-10 -4 -10 -10z"/>
<path d="M2913 1983 c-7 -2 -13 -17 -13 -31 l1 -27 14 25 c15 25 15 25 12 -12
-2 -24 -12 -44 -28 -58 l-24 -21 33 5 c24 3 32 1 32 -12 0 -8 3 -12 7 -9 3 4
5 30 4 59 -1 33 3 54 11 60 10 6 8 8 -4 8 -10 0 -18 5 -18 10 0 11 -7 12 -27
3z"/>
<path d="M2428 1973 c7 -3 16 -2 19 1 4 3 -2 6 -13 5 -11 0 -14 -3 -6 -6z"/>
<path d="M2020 1955 c9 -11 22 -14 39 -10 44 11 42 20 -6 23 -42 3 -45 1 -33
-13z"/>
<path d="M200 1950 c0 -5 5 -10 10 -10 6 0 10 5 10 10 0 6 -4 10 -10 10 -5 0
-10 -4 -10 -10z"/>
<path d="M1155 1951 c-19 -8 -19 -8 2 -19 30 -17 60 -15 60 3 0 8 -4 15 -8 15
-4 0 -13 2 -21 4 -7 3 -22 1 -33 -3z"/>
<path d="M1643 1945 c-14 -11 -14 -12 5 -17 12 -3 23 -1 26 6 3 7 5 7 5 -1 1
-7 6 -13 12 -13 5 0 7 5 4 11 -4 6 -1 9 6 7 8 -1 16 1 19 7 7 14 -57 14 -77 0z"/>
<path d="M1760 1950 c0 -6 28 -10 66 -10 36 0 63 4 60 9 -8 12 -126 13 -126 1z"/>
<path d="M2178 1948 c9 -9 15 -9 24 0 9 9 7 12 -12 12 -19 0 -21 -3 -12 -12z"/>
<path d="M270 1935 c0 -8 2 -15 4 -15 2 0 6 7 10 15 3 8 1 15 -4 15 -6 0 -10
-7 -10 -15z"/>
<path d="M500 1940 c0 -5 6 -10 14 -10 8 0 18 5 21 10 3 6 -3 10 -14 10 -12 0
-21 -4 -21 -10z"/>
<path d="M1258 1943 c18 -2 45 -2 60 0 15 2 0 4 -33 4 -33 0 -45 -2 -27 -4z"/>
<path d="M1966 1938 c3 -5 10 -6 15 -3 13 9 11 12 -6 12 -8 0 -12 -4 -9 -9z"/>
<path d="M2343 1943 c9 -2 23 -2 30 0 6 3 -1 5 -18 5 -16 0 -22 -2 -12 -5z"/>
<path d="M2398 1943 c6 -2 18 -2 25 0 6 3 1 5 -13 5 -14 0 -19 -2 -12 -5z"/>
<path d="M1460 1929 c0 -5 14 -9 32 -9 37 0 34 7 -5 14 -15 2 -27 0 -27 -5z"/>
<path d="M664 1923 c3 -4 19 -8 34 -9 15 -1 32 -3 37 -4 20 -5 55 0 55 8 0 4
-30 8 -67 10 -36 1 -63 -1 -59 -5z"/>
<path d="M2458 1923 c6 -2 18 -2 25 0 6 3 1 5 -13 5 -14 0 -19 -2 -12 -5z"/>
<path d="M185 1910 c3 -5 8 -10 11 -10 2 0 4 5 4 10 0 6 -5 10 -11 10 -5 0 -7
-4 -4 -10z"/>
<path d="M842 1913 c-23 -2 -40 -7 -38 -11 6 -10 96 -2 96 9 0 5 -3 8 -7 7 -5
-1 -27 -3 -51 -5z"/>
<path d="M940 1911 c0 -8 120 -3 129 5 2 2 -26 4 -62 4 -37 0 -67 -4 -67 -9z"/>
<path d="M1875 1910 c3 -5 11 -10 16 -10 6 0 7 5 4 10 -3 6 -11 10 -16 10 -6
0 -7 -4 -4 -10z"/>
<path d="M2312 1904 c9 -9 21 -13 28 -9 14 9 -5 25 -30 25 -12 0 -12 -3 2 -16z"/>
<path d="M301 1894 c11 -10 24 -13 42 -8 41 10 32 24 -15 24 -38 0 -41 -1 -27
-16z"/>
<path d="M1710 1900 c0 -5 7 -10 15 -10 8 0 15 5 15 10 0 6 -7 10 -15 10 -8 0
-15 -4 -15 -10z"/>
<path d="M404 1880 c0 -24 35 -36 63 -22 10 5 26 8 36 7 9 -2 17 1 17 6 0 5
-23 9 -51 9 -31 0 -48 4 -44 10 3 6 0 10 -7 10 -8 0 -14 -9 -14 -20z"/>
<path d="M1093 1893 c9 -2 23 -2 30 0 6 3 -1 5 -18 5 -16 0 -22 -2 -12 -5z"/>
<path d="M1320 1890 c0 -5 5 -10 10 -10 6 0 10 5 10 10 0 6 -4 10 -10 10 -5 0
-10 -4 -10 -10z"/>
<path d="M2130 1886 c0 -8 -6 -16 -14 -19 -7 -3 -16 -20 -20 -39 -8 -42 -8
-41 0 -115 3 -34 3 -70 -2 -80 -5 -12 -10 7 -14 57 -10 111 -14 120 -57 120
-13 0 -32 9 -44 21 -22 22 -19 22 -146 -2 -59 -11 -83 -31 -51 -41 8 -3 3 -10
-11 -17 -23 -13 -24 -12 -19 14 4 21 1 28 -16 35 -11 5 -15 9 -8 9 7 1 10 6 7
11 -3 6 -28 10 -56 10 -27 0 -49 -4 -49 -10 0 -5 12 -10 26 -10 14 0 23 -4 19
-10 -3 -6 7 -22 23 -38 l29 -27 -13 -135 c-7 -74 -17 -157 -22 -185 -9 -46
-10 -41 -11 60 -2 210 -1 228 17 243 9 7 11 11 5 7 -9 -4 -13 2 -13 19 0 22
-5 26 -27 25 -23 0 -25 -2 -12 -11 13 -9 14 -17 5 -49 -5 -22 -15 -39 -20 -39
-13 0 -105 -63 -106 -72 0 -3 8 -9 18 -11 11 -3 8 -5 -9 -6 -24 -1 -26 2 -25
32 2 17 -3 43 -10 57 -6 14 -11 27 -11 30 1 3 -8 22 -20 42 -27 45 -55 54
-221 69 -91 9 -126 8 -136 0 -8 -7 -66 -14 -132 -17 -125 -6 -234 -28 -217
-45 11 -11 50 -13 83 -4 14 3 41 6 60 6 19 -1 105 6 190 14 186 18 334 16 318
-2 -6 -7 -18 -13 -27 -13 -13 0 -12 -4 5 -18 11 -9 27 -32 34 -49 7 -18 16
-30 21 -27 5 3 6 -2 3 -10 -3 -9 -1 -16 5 -16 6 0 11 -9 11 -20 0 -14 -7 -20
-22 -21 -16 -1 -18 -3 -6 -6 9 -2 19 -14 21 -26 l4 -22 8 23 c4 12 11 22 16
22 5 0 6 -6 3 -13 -9 -24 36 -35 85 -20 24 7 52 13 62 13 18 0 18 -6 4 -70 -2
-8 -4 -52 -4 -98 -1 -49 -5 -81 -10 -77 -5 3 -12 1 -16 -5 -3 -5 -5 -10 -3
-11 35 -8 98 -8 103 0 4 7 -4 11 -19 11 -31 0 -35 25 -6 33 14 4 18 10 13 23
-5 14 -3 16 11 11 10 -4 20 -7 22 -7 2 0 5 -12 5 -27 2 -24 2 -25 6 -5 3 14
12 22 26 22 21 1 21 1 4 14 -18 14 -18 14 0 19 30 8 263 5 257 -4 -2 -4 -20
-5 -39 -2 -23 4 -35 2 -35 -6 0 -8 20 -11 59 -10 57 2 86 -5 77 -20 -3 -4 -1
-13 3 -20 5 -7 8 36 8 95 0 73 4 109 11 112 8 2 12 42 12 123 0 101 2 119 16
119 13 0 14 -22 9 -182 -6 -211 -12 -257 -32 -279 -12 -14 -12 -17 2 -22 29
-12 44 3 43 41 0 21 2 105 5 187 4 83 7 160 7 172 0 20 3 21 24 13 14 -5 36
-5 53 0 l28 8 -27 2 c-16 2 -32 4 -38 5 -5 1 -16 3 -24 4 -10 1 -13 15 -12 54
1 42 -3 56 -21 75 -27 26 -33 27 -33 8z m-355 -146 c-3 -5 -11 -10 -16 -10 -6
0 -7 5 -4 10 3 6 11 10 16 10 6 0 7 -4 4 -10z m105 -9 c0 -5 -11 -18 -25 -29
-14 -11 -25 -25 -25 -30 0 -6 -10 -18 -22 -26 -16 -12 -19 -19 -11 -27 8 -8
15 -3 27 20 16 31 17 31 46 16 32 -17 40 -35 15 -35 -8 0 -15 -7 -15 -16 0
-27 -27 -45 -57 -39 l-28 7 23 -19 c21 -17 22 -21 8 -32 -9 -8 -16 -19 -16
-25 1 -6 11 1 23 16 19 24 25 25 45 14 l23 -12 -28 -36 c-27 -35 -77 -55 -89
-36 -3 5 -15 6 -26 2 -16 -5 -20 -3 -15 9 3 9 9 32 13 51 3 20 10 36 14 36 4
0 4 -17 -1 -37 -8 -39 6 -63 26 -41 7 7 6 12 -1 15 -13 4 -8 76 8 105 5 11 4
25 -4 38 -9 15 -10 23 -2 28 6 4 19 21 28 39 20 39 66 70 66 44z m107 3 c-3
-3 -12 -4 -19 -1 -8 3 -5 6 6 6 11 1 17 -2 13 -5z m-37 -39 c0 -2 -7 -11 -16
-20 -23 -23 -8 -32 16 -10 18 16 22 17 38 3 9 -8 26 -18 37 -22 20 -7 20 -8 0
-22 -22 -16 -37 -14 -43 6 -3 7 0 10 7 6 6 -4 11 -3 11 3 0 17 -18 22 -24 6
-3 -8 -12 -15 -21 -15 -15 0 -95 46 -95 55 0 2 10 13 21 24 20 18 23 19 45 4
13 -8 24 -17 24 -18z m70 11 c0 -22 -16 -28 -29 -12 -9 11 -9 15 1 19 22 9 28
8 28 -7z m40 -11 c0 -24 -24 -45 -36 -32 -5 5 24 57 32 57 2 0 4 -11 4 -25z
m-410 -50 c0 -32 -3 -35 -27 -34 -16 1 -39 4 -53 8 -24 8 -23 9 18 26 23 9 42
21 42 26 0 5 5 9 10 9 6 0 10 -16 10 -35z m107 -17 c-3 -8 -6 -5 -6 6 -1 11 2
17 5 13 3 -3 4 -12 1 -19z m188 -18 c3 -5 17 -10 31 -10 14 0 24 -6 24 -14 0
-26 -23 -30 -40 -8 -13 15 -20 18 -29 9 -6 -6 -11 -16 -11 -22 0 -21 -22 -35
-41 -24 -17 9 -17 11 4 44 22 33 50 45 62 25z m95 -35 c0 -36 -5 -41 -29 -26
-11 7 -10 13 5 35 11 14 20 26 22 26 1 0 2 -16 2 -35z m45 -133 c-10 -11 -12
4 -6 73 l6 70 3 -69 c2 -37 0 -71 -3 -74z m-100 101 c38 -18 42 -25 21 -42
-14 -12 -46 -5 -46 10 0 5 -3 8 -7 8 -5 -1 -16 -1 -26 0 -15 1 -16 5 -7 21 13
24 20 25 65 3z m-55 -42 c0 -16 -41 -61 -56 -61 -19 0 -18 7 9 40 21 28 47 39
47 21z m110 -11 c0 -19 -11 -26 -23 -14 -8 8 3 34 14 34 5 0 9 -9 9 -20z m-66
-16 c9 -8 16 -13 16 -9 0 3 9 1 21 -5 17 -10 24 -8 41 12 16 18 20 19 15 5 -4
-10 -7 -24 -7 -31 0 -8 -21 -11 -72 -8 -40 2 -75 6 -77 8 -6 5 30 44 40 44 4
0 15 -7 23 -16z m101 -72 c-3 -3 -11 0 -18 7 -9 10 -8 11 6 5 10 -3 15 -9 12
-12z"/>
<path d="M1836 1608 c3 -4 9 -8 15 -8 5 0 9 4 9 8 0 5 -7 9 -15 9 -8 0 -12 -4
-9 -9z"/>
<path d="M670 1886 c0 -2 11 -6 25 -8 14 -3 25 -1 25 3 0 5 -11 9 -25 9 -14 0
-25 -2 -25 -4z"/>
<path d="M1648 1883 c6 -2 18 -2 25 0 6 3 1 5 -13 5 -14 0 -19 -2 -12 -5z"/>
<path d="M608 1873 c6 -2 18 -2 25 0 6 3 1 5 -13 5 -14 0 -19 -2 -12 -5z"/>
<path d="M210 1844 c0 -8 5 -12 10 -9 6 3 10 10 10 16 0 5 -4 9 -10 9 -5 0
-10 -7 -10 -16z"/>
<path d="M1372 1848 c3 -7 14 -14 26 -16 16 -3 20 1 16 12 -7 19 -48 22 -42 4z"/>
<path d="M1428 1853 c7 -3 16 -2 19 1 4 3 -2 6 -13 5 -11 0 -14 -3 -6 -6z"/>
<path d="M1990 1836 c0 -2 11 -6 25 -8 14 -3 25 -1 25 3 0 5 -11 9 -25 9 -14
0 -25 -2 -25 -4z"/>
<path d="M1518 1823 c6 -2 18 -2 25 0 6 3 1 5 -13 5 -14 0 -19 -2 -12 -5z"/>
<path d="M2837 1804 c3 -8 11 -14 19 -14 21 0 17 17 -5 23 -14 3 -18 1 -14 -9z"/>
<path d="M215 1800 c3 -5 8 -10 11 -10 2 0 4 5 4 10 0 6 -5 10 -11 10 -5 0 -7
-4 -4 -10z"/>
<path d="M1219 1776 c-2 -2 -64 -7 -137 -11 -73 -4 -141 -8 -150 -9 -9 0 -23
-9 -30 -18 -16 -22 -34 -24 -26 -3 4 9 0 15 -10 15 -9 0 -16 -4 -16 -10 0 -5
-16 -17 -36 -25 -25 -10 -34 -20 -31 -30 4 -8 -3 -21 -16 -30 -12 -8 -16 -15
-9 -15 8 0 11 -7 8 -18 -5 -14 3 -23 28 -37 19 -11 33 -23 30 -27 -3 -4 5 -8
17 -8 36 0 95 -21 125 -45 28 -22 28 -24 32 -149 3 -86 1 -131 -7 -139 -8 -8
-11 -1 -12 29 0 21 -4 57 -9 79 -9 38 -9 38 -4 -11 l4 -52 -40 20 c-47 23
-118 33 -139 20 -7 -6 -15 -22 -16 -37 -3 -24 -38 -75 -58 -83 -4 -2 -16 -12
-25 -23 -20 -20 -89 -29 -100 -12 -17 26 -102 63 -144 62 -24 -1 -56 4 -71 10
-37 14 -59 14 -80 -1 -13 -11 -15 -20 -7 -52 4 -21 14 -44 21 -50 9 -8 10 -6
6 12 -6 25 -3 26 24 12 13 -7 19 -7 19 0 0 5 7 10 16 10 8 0 13 -4 10 -9 -7
-11 37 -1 44 10 9 13 50 -20 44 -35 -7 -19 15 -31 29 -16 9 9 8 14 -4 24 -14
9 -14 15 -5 28 10 14 16 14 44 2 30 -12 48 -39 18 -28 -8 3 -17 0 -22 -7 -5
-8 -3 -10 7 -4 8 5 3 -4 -10 -19 -32 -34 -35 -66 -7 -66 30 0 50 -15 41 -30
-5 -9 -4 -11 3 -6 18 11 14 36 -5 36 -14 0 -15 2 -4 9 10 7 10 10 1 13 -8 2 1
18 23 42 36 37 56 43 65 16 3 -8 -1 -11 -10 -7 -11 4 -15 -1 -15 -19 0 -24 1
-25 46 -18 51 7 66 14 33 14 -23 0 -26 20 -8 49 7 11 10 11 18 -3 5 -9 18 -16
28 -16 27 0 25 -9 -7 -42 -15 -15 -22 -28 -17 -28 17 0 52 43 59 72 5 21 3 29
-9 34 -9 3 -13 10 -10 15 9 16 31 10 37 -9 5 -23 47 -37 47 -16 0 12 13 19 24
12 2 -2 14 6 26 17 l23 20 -17 -33 c-26 -50 -15 -48 19 3 32 48 46 57 38 25
-3 -11 0 -20 6 -20 12 0 3 -63 -11 -68 -15 -7 -8 -20 9 -18 11 2 22 17 28 40
6 20 14 34 18 30 4 -4 7 -2 7 5 0 7 5 9 10 6 6 -3 10 4 10 17 0 13 5 30 10 38
7 11 10 7 10 -17 0 -17 5 -35 10 -38 15 -9 12 -27 -2 -20 -7 4 -6 1 2 -7 10
-8 15 -28 14 -55 -2 -31 2 -43 12 -43 7 0 18 -18 24 -40 6 -22 16 -40 21 -40
6 0 9 -7 5 -15 -9 -24 10 -17 21 7 l10 22 19 -22 c25 -30 36 -28 32 5 -2 17
-12 32 -28 40 -30 15 -46 50 -22 50 10 0 23 -8 30 -19 7 -10 18 -18 24 -18 6
0 3 9 -7 20 -14 16 -15 20 -3 20 16 0 53 -46 68 -85 6 -16 15 -23 24 -19 12 5
13 10 5 26 -6 10 -17 22 -25 25 -8 3 -13 13 -12 21 2 9 -3 17 -9 17 -7 0 -12
5 -10 10 1 6 10 10 19 9 9 0 15 3 12 8 -3 4 -11 8 -18 8 -8 0 -20 9 -27 20
-18 26 -59 17 -59 -12 0 -17 -3 -18 -15 -8 -23 19 -17 109 6 94 5 -3 4 7 -1
21 -6 15 -10 36 -10 47 0 20 1 20 20 3 11 -10 17 -22 14 -26 -3 -5 2 -9 11 -9
10 0 13 -5 9 -12 -4 -7 -3 -8 4 -4 6 4 9 13 5 21 -3 8 -1 15 4 15 4 0 19 10
33 23 14 12 40 23 60 24 31 2 33 1 16 -10 -32 -20 -69 -58 -62 -64 3 -4 20 4
37 16 26 19 33 21 41 10 6 -10 7 -7 3 9 -5 15 -2 22 8 22 19 0 30 -27 14 -34
-21 -8 16 -26 42 -19 17 4 22 2 17 -6 -4 -6 -11 -9 -16 -6 -4 3 -11 -2 -14
-11 -6 -14 -3 -14 21 1 16 10 33 26 40 34 10 14 12 14 19 -4 4 -11 14 -26 22
-34 11 -11 11 -15 0 -23 -10 -7 -8 -8 7 -7 35 4 54 -10 49 -37 -5 -26 11 -31
36 -11 17 13 24 57 9 57 -5 0 -9 6 -9 13 0 7 -6 25 -12 40 -13 26 -17 28 -88
31 -20 1 -24 5 -22 25 5 32 -16 79 -39 86 -10 3 -27 1 -39 -5 -16 -9 -24 -7
-41 8 -34 32 -124 36 -190 8 -12 -5 -18 0 -23 25 -12 63 -7 114 15 138 27 29
41 88 27 114 -9 17 -8 19 11 14 12 -3 19 -1 16 3 -3 5 1 10 7 13 20 7 6 14
-40 20 -36 4 -43 3 -38 -10 4 -9 -4 -25 -19 -39 -31 -29 -50 -32 -36 -6 6 11
6 24 0 35 -8 14 -6 17 13 18 21 1 20 2 -6 11 -18 7 -30 7 -35 1 -3 -6 -17 -10
-30 -9 -13 0 -26 -5 -28 -11 -3 -7 4 -13 14 -14 15 0 15 -2 -4 -11 -23 -11
-40 -39 -20 -33 7 2 27 6 45 9 27 5 32 3 32 -14 0 -11 -7 -20 -15 -20 -12 0
-15 -17 -16 -87 l-1 -88 -13 59 c-7 33 -11 66 -8 73 3 7 -2 13 -11 13 -9 0
-16 7 -16 16 0 10 -6 14 -15 10 -8 -3 -15 -1 -15 4 0 6 -7 10 -15 10 -23 0
-18 20 12 46 l27 23 -39 -6 c-49 -7 -51 -9 -35 -28 7 -8 10 -24 7 -34 -4 -15
2 -22 24 -30 16 -5 29 -15 29 -20 0 -15 -22 -13 -46 4 -12 8 -24 11 -28 8 -3
-3 -6 1 -6 10 0 9 -11 19 -24 23 -31 7 -60 39 -51 54 4 7 1 17 -6 22 -11 8
-10 9 3 4 11 -3 19 2 23 14 5 16 59 45 78 41 4 0 24 6 43 14 54 23 171 20 212
-5 17 -11 32 -15 32 -10 0 14 26 12 90 -4 88 -23 136 -46 119 -57 -10 -6 -10
-9 -1 -9 6 0 12 -8 13 -17 0 -15 2 -15 9 2 9 24 -12 62 -32 57 -10 -3 -11 -1
0 9 20 21 14 29 -20 29 -25 0 -29 3 -18 10 11 7 0 10 -37 10 -63 0 -71 17 -10
23 31 3 25 4 -24 5 -36 1 -68 0 -70 -2z m-72 -202 c13 -4 21 -13 20 -25 -1
-21 -23 -26 -30 -6 -3 6 -6 1 -7 -13 l-2 -25 -8 25 c-16 51 -14 55 27 44z
m-117 -220 c0 -41 1 -44 16 -30 22 22 24 21 24 -19 0 -28 -4 -35 -20 -35 -14
0 -20 -7 -21 -22 0 -13 -4 -32 -9 -43 -6 -13 -8 18 -7 87 1 60 5 108 10 108 4
0 7 -21 7 -46z m162 -39 c-12 -23 -3 -65 15 -65 8 0 12 3 10 8 -3 4 5 8 18 8
20 2 22 -1 13 -16 -6 -9 -19 -22 -28 -28 -15 -9 -22 -5 -44 27 -32 45 -32 54
-3 74 26 17 32 15 19 -8z m141 -5 c8 0 8 -3 0 -11 -7 -7 -19 -8 -30 -4 -10 5
-24 7 -30 6 -7 -1 -13 5 -13 13 0 19 31 25 48 9 7 -7 19 -13 25 -13z m107 -10
c0 -5 -7 -10 -15 -10 -8 0 -15 -7 -15 -15 0 -17 -16 -20 -25 -5 -12 19 4 40
30 40 14 0 25 -4 25 -10z m-562 -21 c45 -11 87 -37 78 -47 -3 -2 -23 -6 -46
-7 -35 -3 -39 -1 -29 11 9 11 7 14 -15 14 -15 0 -36 -4 -46 -10 -14 -8 -19 -5
-24 12 -5 21 7 37 27 38 5 0 29 -5 55 -11z m547 -69 c-3 -5 -11 -10 -16 -10
-6 0 -7 5 -4 10 3 6 11 10 16 10 6 0 7 -4 4 -10z m-1040 -21 c25 -6 43 -14 41
-18 -2 -3 -30 -6 -62 -6 -48 0 -59 3 -62 18 -4 20 19 22 83 6z m410 1 c3 -5
-1 -10 -9 -10 -9 0 -16 5 -16 10 0 6 4 10 9 10 6 0 13 -4 16 -10z m755 -23 c0
-5 -4 -5 -10 -2 -5 3 -10 14 -10 23 0 15 2 15 10 2 5 -8 10 -19 10 -23z m-780
-37 c0 -5 -2 -10 -4 -10 -3 0 -8 5 -11 10 -3 6 -1 10 4 10 6 0 11 -4 11 -10z
m-270 -20 c0 -5 -2 -10 -4 -10 -3 0 -8 5 -11 10 -3 6 -1 10 4 10 6 0 11 -4 11
-10z"/>
<path d="M718 1753 c6 -2 18 -2 25 0 6 3 1 5 -13 5 -14 0 -19 -2 -12 -5z"/>
<path d="M298 1733 c6 -2 18 -2 25 0 6 3 1 5 -13 5 -14 0 -19 -2 -12 -5z"/>
<path d="M2639 1719 c-10 -6 -7 -9 14 -9 29 0 35 5 14 13 -8 3 -20 1 -28 -4z"/>
<path d="M2847 1723 c-16 -16 -4 -24 30 -21 48 4 57 28 11 28 -19 0 -38 -3
-41 -7z"/>
<path d="M729 1707 c-9 -7 -19 -24 -22 -39 l-7 -27 23 22 c40 40 51 57 36 57
-8 0 -21 -6 -30 -13z"/>
<path d="M1277 1679 c7 -7 15 -10 18 -7 3 3 -2 9 -12 12 -14 6 -15 5 -6 -5z"/>
<path d="M308 1673 c7 -3 16 -2 19 1 4 3 -2 6 -13 5 -11 0 -14 -3 -6 -6z"/>
<path d="M2774 1659 c-3 -6 -15 -9 -25 -6 -13 3 -19 0 -19 -10 0 -12 7 -14 31
-9 17 3 35 6 40 6 5 0 6 7 3 15 -7 18 -20 19 -30 4z"/>
<path d="M2825 1660 c-3 -5 1 -10 9 -10 8 0 18 5 21 10 3 6 -1 10 -9 10 -8 0
-18 -4 -21 -10z"/>
<path d="M1244 1648 c3 -10 2 -18 -3 -18 -9 0 -22 -32 -27 -65 -1 -11 -6 -31
-10 -43 l-7 -24 34 18 c19 9 48 20 64 24 17 4 29 12 27 19 -2 8 4 10 17 6 11
-3 22 -1 26 4 4 7 -1 8 -11 4 -12 -4 -15 -3 -10 5 9 15 33 15 38 0 3 -7 11 -9
24 -3 17 7 17 8 2 12 -10 3 -18 11 -18 19 0 18 -51 8 -63 -13 -4 -7 -13 -13
-18 -13 -6 0 -7 5 -4 10 9 14 -19 12 -33 -2 -9 -9 -12 -5 -12 18 0 16 -5 36
-11 44 -9 13 -10 12 -5 -2z"/>
<path d="M1375 1640 c-3 -5 -1 -10 4 -10 6 0 11 5 11 10 0 6 -2 10 -4 10 -3 0
-8 -4 -11 -10z"/>
<path d="M2623 1633 c9 -2 23 -2 30 0 6 3 -1 5 -18 5 -16 0 -22 -2 -12 -5z"/>
<path d="M2788 1623 c7 -3 16 -2 19 1 4 3 -2 6 -13 5 -11 0 -14 -3 -6 -6z"/>
<path d="M2828 1623 c7 -3 16 -2 19 1 4 3 -2 6 -13 5 -11 0 -14 -3 -6 -6z"/>
<path d="M280 1610 c0 -13 11 -13 30 0 12 8 11 10 -7 10 -13 0 -23 -4 -23 -10z"/>
<path d="M310 1590 c0 -5 7 -10 15 -10 8 0 15 5 15 10 0 6 -7 10 -15 10 -8 0
-15 -4 -15 -10z"/>
<path d="M730 1576 c0 -13 -6 -27 -12 -29 -7 -3 2 -6 20 -6 19 -1 31 -5 27
-11 -9 -15 8 -12 31 5 17 13 17 14 2 15 -10 0 -18 3 -18 8 0 4 -12 15 -25 25
-25 18 -25 18 -25 -7z"/>
<path d="M284 1507 c11 -8 27 -13 35 -12 9 2 19 4 24 4 4 1 7 5 7 9 0 4 -19 9
-42 11 -40 2 -41 1 -24 -12z"/>
<path d="M2116 1504 c-4 -9 -4 -19 -1 -22 2 -3 7 3 11 12 4 9 4 19 1 22 -2 3
-7 -3 -11 -12z"/>
<path d="M670 1500 c-58 -4 -132 -12 -165 -18 -33 -6 -73 -10 -90 -10 -73 2
-135 -3 -135 -11 0 -16 44 -17 210 -4 91 7 193 13 226 14 34 1 68 5 75 10 8 5
10 9 4 10 -5 0 1 5 15 9 24 8 24 8 -5 7 -16 0 -77 -3 -135 -7z"/>
<path d="M2370 1400 c-12 -8 -11 -10 7 -10 16 0 21 -4 17 -15 -5 -11 -2 -13
10 -9 19 7 20 16 4 32 -14 14 -19 15 -38 2z"/>
<path d="M2510 1399 c0 -5 5 -7 10 -4 6 3 10 8 10 11 0 2 -4 4 -10 4 -5 0 -10
-5 -10 -11z"/>
<path d="M1440 1390 c0 -5 7 -7 15 -4 8 4 15 8 15 10 0 2 -7 4 -15 4 -8 0 -15
-4 -15 -10z"/>
<path d="M212 1365 c0 -16 2 -22 5 -12 2 9 2 23 0 30 -3 6 -5 -1 -5 -18z"/>
<path d="M1494 1382 c4 -6 -6 -13 -21 -15 -17 -3 -13 -4 12 -3 41 1 55 18 21
24 -11 2 -16 0 -12 -6z"/>
<path d="M1810 1379 c0 -5 11 -9 25 -9 14 0 25 2 25 4 0 2 -11 6 -25 8 -14 3
-25 1 -25 -3z"/>
<path d="M2245 1380 c3 -5 8 -10 11 -10 2 0 4 5 4 10 0 6 -5 10 -11 10 -5 0
-7 -4 -4 -10z"/>
<path d="M1966 1369 c6 -11 44 -12 44 -1 0 4 -11 8 -25 8 -14 1 -22 -2 -19 -7z"/>
<path d="M1550 1360 c0 -5 4 -10 9 -10 6 0 13 5 16 10 3 6 -1 10 -9 10 -9 0
-16 -4 -16 -10z"/>
<path d="M2922 1250 c0 -14 2 -19 5 -12 2 6 2 18 0 25 -3 6 -5 1 -5 -13z"/>
<path d="M1495 1240 c4 -6 11 -8 16 -5 14 9 11 15 -7 15 -8 0 -12 -5 -9 -10z"/>
<path d="M2118 1233 c6 -2 18 -2 25 0 6 3 1 5 -13 5 -14 0 -19 -2 -12 -5z"/>
<path d="M248 1190 c2 -16 8 -30 13 -30 10 0 11 7 3 38 -9 33 -21 27 -16 -8z"/>
<path d="M2680 1200 c-25 -4 -70 -10 -99 -14 -53 -6 -69 -12 -60 -20 2 -2 42
0 89 5 69 7 179 10 323 10 9 0 17 4 17 9 0 15 -27 19 -84 11 -30 -4 -61 -4
-68 1 -15 9 -55 9 -118 -2z"/>
<path d="M2030 1176 c15 -15 75 -19 213 -17 104 2 79 19 -33 23 -55 2 -100 0
-100 -4 0 -5 -7 -8 -15 -8 -8 0 -15 5 -15 10 0 6 -5 10 -11 10 -5 0 -7 -4 -4
-10 4 -6 -4 -6 -22 1 -25 9 -26 8 -13 -5z"/>
<path d="M1319 1163 c-13 -17 -13 -17 6 -3 11 8 22 16 24 17 2 2 0 3 -6 3 -6
0 -17 -8 -24 -17z"/>
<path d="M2360 1169 c-31 -6 -28 -7 23 -9 95 -6 100 -5 104 5 3 11 -74 14
-127 4z"/>
<path d="M1677 1140 c-3 -11 -1 -20 4 -20 5 0 9 5 9 10 0 6 9 10 20 10 11 0
20 -5 20 -11 0 -6 -9 -13 -20 -16 -25 -7 -25 -18 0 -46 17 -18 23 -19 30 -8 4
8 6 20 3 28 -8 19 14 16 26 -4 5 -10 12 -15 16 -11 4 3 -1 18 -11 33 -14 21
-15 28 -4 38 10 10 11 9 5 -3 -8 -13 -7 -13 8 -1 9 7 17 15 17 17 0 2 -26 4
-59 4 -50 0 -59 -3 -64 -20z"/>
<path d="M1913 1153 c20 -2 54 -2 75 0 20 2 3 4 -38 4 -41 0 -58 -2 -37 -4z"/>
<path d="M2506 1135 c-3 -8 -1 -15 4 -15 13 0 22 18 11 24 -5 3 -11 -1 -15 -9z"/>
<path d="M2611 1119 c-107 -14 -92 -19 36 -14 138 6 215 24 98 23 -38 0 -99
-4 -134 -9z"/>
<path d="M1825 1099 c8 -25 23 -39 40 -39 6 1 2 5 -7 11 -10 5 -18 16 -18 24
0 8 -5 17 -11 21 -8 4 -9 -1 -4 -17z"/>
<path d="M340 1099 c0 -7 -11 -9 -30 -6 -32 7 -34 5 -44 -36 -4 -19 -3 -26 4
-22 5 3 10 1 10 -4 0 -6 5 -11 11 -11 6 0 8 7 5 16 -5 13 -3 14 6 7 19 -15 48
-12 48 4 0 8 5 11 10 8 6 -4 17 -1 25 5 12 10 18 10 30 0 9 -8 15 -9 15 -2 0
6 -4 13 -10 17 -5 3 -8 11 -6 18 1 7 1 9 -1 5 -3 -4 -16 -3 -29 3 -33 12 -44
11 -44 -2z"/>
<path d="M797 1103 c-4 -3 -7 -11 -7 -17 0 -6 5 -5 12 2 6 6 9 14 7 17 -3 3
-9 2 -12 -2z"/>
<path d="M1021 1110 c-2 -3 -5 -18 -7 -35 -4 -23 -2 -27 6 -19 7 7 10 22 7 35
-2 13 -5 22 -6 19z"/>
<path d="M2487 1103 c-2 -5 4 -15 13 -24 16 -15 18 -15 18 7 0 22 -22 34 -31
17z"/>
<path d="M850 1084 c0 -8 -4 -12 -10 -9 -5 3 -10 1 -10 -4 0 -14 13 -14 28 1
15 15 16 28 2 28 -5 0 -10 -7 -10 -16z"/>
<path d="M1638 1093 c7 -3 16 -2 19 1 4 3 -2 6 -13 5 -11 0 -14 -3 -6 -6z"/>
<path d="M2721 1058 c-6 -253 -6 -258 -42 -258 -11 0 -27 -6 -35 -14 -12 -13
-9 -14 23 -9 21 3 43 10 49 14 6 5 14 6 17 2 4 -3 4 44 0 104 -3 65 -2 122 4
139 10 30 7 54 -7 54 -5 0 -9 -15 -9 -32z"/>
<path d="M2810 1080 c20 -13 83 -13 75 0 -3 6 -25 10 -48 10 -31 0 -38 -3 -27
-10z"/>
<path d="M1611 1064 c0 -11 3 -14 6 -6 3 7 2 16 -1 19 -3 4 -6 -2 -5 -13z"/>
<path d="M910 1050 c0 -5 4 -10 9 -10 6 0 13 5 16 10 3 6 -1 10 -9 10 -9 0
-16 -4 -16 -10z"/>
<path d="M991 1044 c0 -11 3 -14 6 -6 3 7 2 16 -1 19 -3 4 -6 -2 -5 -13z"/>
<path d="M2181 1053 c-1 -6 -4 -20 -7 -30 -5 -17 -5 -17 6 0 6 10 9 23 6 30
-3 9 -5 9 -5 0z"/>
<path d="M2450 1035 c0 -8 5 -15 10 -15 6 0 10 7 10 15 0 8 -4 15 -10 15 -5 0
-10 -7 -10 -15z"/>
<path d="M1375 1020 c-15 -6 -9 -8 22 -7 24 1 43 5 43 10 0 9 -40 8 -65 -3z"/>
<path d="M921 1010 c-1 -8 -22 -32 -47 -52 -24 -20 -39 -40 -34 -43 6 -3 10
-1 10 4 0 6 8 11 18 11 26 0 64 47 59 73 -2 12 -5 15 -6 7z"/>
<path d="M2270 990 c0 -14 -7 -36 -15 -50 -8 -14 -14 -31 -15 -37 0 -20 30
-15 31 5 1 9 6 2 12 -16 5 -18 15 -31 20 -29 15 5 15 117 0 129 -7 6 -13 7
-13 2 0 -5 -5 -2 -10 6 -8 12 -10 10 -10 -10z"/>
<path d="M2600 941 c0 -38 5 -73 10 -76 6 -4 10 20 10 64 0 38 -4 73 -10 76
-6 4 -10 -20 -10 -64z"/>
<path d="M981 978 c-1 -34 15 -45 28 -19 15 27 14 36 -3 22 -11 -10 -15 -8
-19 6 -3 12 -5 9 -6 -9z"/>
<path d="M1753 992 c-12 -2 -24 -10 -27 -19 -5 -11 -2 -14 10 -9 11 4 15 2 11
-8 -8 -20 30 -96 48 -96 8 0 15 5 15 12 0 6 7 4 18 -5 10 -10 23 -17 28 -17 5
0 2 5 -6 10 -11 7 -12 10 -2 10 10 0 10 4 -2 16 -41 40 -4 52 38 12 24 -22 44
-24 22 -2 -22 22 -20 27 8 20 15 -4 26 -1 28 6 3 8 11 7 28 -5 14 -9 20 -17
14 -17 -6 0 -11 -6 -11 -13 0 -9 11 -14 29 -13 20 1 27 5 23 15 -4 10 0 9 14
-3 19 -17 21 -17 36 -2 20 20 26 20 19 1 -4 -8 -2 -15 2 -16 5 0 23 -2 40 -3
l31 -3 -4 46 c-6 62 -11 74 -12 29 -1 -21 -6 -38 -12 -38 -5 0 -7 4 -4 10 3 5
-5 12 -19 16 -14 3 -28 15 -31 25 -9 28 -48 33 -141 19 -45 -6 -91 -9 -102 -6
-11 4 -23 2 -27 -4 -3 -5 -10 -10 -16 -10 -11 0 -12 26 -1 33 4 2 2 2 -5 1 -6
-2 -13 0 -15 4 -2 4 -13 6 -25 4z"/>
<path d="M2156 992 c-9 -15 26 -25 38 -11 8 9 7 10 -3 4 -7 -4 -16 -2 -21 5
-5 8 -10 8 -14 2z"/>
<path d="M2236 985 c-17 -17 -21 -35 -8 -35 9 0 35 40 29 46 -3 3 -12 -2 -21
-11z"/>
<path d="M2560 936 c0 -36 4 -67 9 -70 12 -8 22 65 15 103 -11 53 -24 34 -24
-33z"/>
<path d="M1443 973 c-3 -10 -8 -21 -10 -25 -7 -13 32 5 43 20 6 8 16 12 22 8
7 -4 12 -2 12 3 0 19 -60 13 -67 -6z"/>
<path d="M270 942 c0 -26 9 -50 26 -73 l26 -34 -7 34 c-4 18 -8 39 -10 45 -15
73 -35 89 -35 28z"/>
<path d="M1043 955 c-19 -14 -33 -122 -14 -111 6 4 11 15 11 25 0 10 8 29 18
42 38 49 28 75 -15 44z"/>
<path d="M1540 960 c-8 -5 -10 -10 -5 -10 6 0 -1 -9 -14 -19 -13 -10 -21 -23
-17 -30 10 -15 26 -14 26 2 0 6 14 20 30 29 17 9 30 22 30 28 0 13 -30 13 -50
0z"/>
<path d="M2463 817 c0 -136 6 -180 21 -141 7 17 -2 186 -13 249 -4 24 -7 -19
-8 -108z"/>
<path d="M2692 925 c0 -16 2 -22 5 -12 2 9 2 23 0 30 -3 6 -5 -1 -5 -18z"/>
<path d="M214 905 c17 -13 34 -22 38 -19 13 8 -1 24 -23 24 -10 0 -19 5 -19
10 0 6 -6 10 -12 10 -7 -1 0 -12 16 -25z"/>
<path d="M712 899 c6 -18 82 -37 172 -42 39 -3 64 -3 56 0 -8 3 -28 11 -45 18
-16 7 -58 16 -93 20 -35 3 -70 9 -79 12 -11 4 -14 2 -11 -8z"/>
<path d="M1213 903 c-17 -2 -34 -10 -37 -18 -7 -19 14 -31 25 -14 7 11 9 10 9
-3 0 -21 18 -24 26 -4 7 19 53 29 70 16 15 -14 34 -5 34 16 0 14 -47 17 -127
7z"/>
<path d="M1615 884 c9 -9 14 -23 11 -30 -3 -8 0 -11 10 -7 27 10 8 53 -24 53
-10 0 -10 -4 3 -16z"/>
<path d="M967 884 c-8 -8 1 -24 14 -24 5 0 9 7 9 15 0 15 -12 20 -23 9z"/>
<path d="M1354 875 c-10 -8 -14 -14 -9 -14 6 1 23 -3 39 -10 37 -15 43 -8 17
18 -25 25 -22 25 -47 6z"/>
<path d="M655 860 c3 -5 8 -10 11 -10 2 0 4 5 4 10 0 6 -5 10 -11 10 -5 0 -7
-4 -4 -10z"/>
<path d="M2270 840 c0 -5 5 -10 11 -10 5 0 7 5 4 10 -3 6 -8 10 -11 10 -2 0
-4 -4 -4 -10z"/>
<path d="M2595 830 c3 -11 2 -20 -4 -20 -5 0 -12 8 -14 18 -4 16 -5 16 -6 0 0
-10 -7 -18 -13 -18 -7 -1 -2 -10 11 -21 19 -15 26 -17 32 -7 12 19 11 68 -2
68 -6 0 -8 -9 -4 -20z"/>
<path d="M987 833 c-3 -5 6 -9 20 -10 19 -1 22 1 12 8 -17 11 -26 11 -32 2z"/>
<path d="M1437 829 c7 -7 15 -10 18 -7 3 3 -2 9 -12 12 -14 6 -15 5 -6 -5z"/>
<path d="M1535 829 c-23 -5 -16 -7 28 -8 31 0 57 1 57 3 0 8 -56 11 -85 5z"/>
<path d="M1040 817 c0 -9 -4 -17 -10 -17 -5 0 -10 -4 -10 -10 0 -5 4 -10 9
-10 12 0 25 39 17 47 -3 4 -6 -1 -6 -10z"/>
<path d="M915 810 c3 -5 8 -10 11 -10 2 0 4 5 4 10 0 6 -5 10 -11 10 -5 0 -7
-4 -4 -10z"/>
<path d="M2174 811 c3 -4 -12 -16 -33 -26 -26 -11 -41 -25 -44 -41 -5 -30 6
-38 33 -24 11 6 20 7 20 1 0 -13 -31 -24 -59 -22 -16 2 -22 -2 -19 -11 5 -13
68 -19 68 -5 0 4 5 7 10 7 6 0 10 -9 10 -20 0 -25 8 -25 40 0 l25 20 -28 0
-29 0 24 29 c18 23 31 30 60 30 45 1 52 10 30 42 -17 23 -52 36 -52 18 0 -5
-9 -9 -21 -9 -11 0 -17 5 -14 10 3 6 -1 10 -10 10 -9 0 -14 -4 -11 -9z m96
-31 c11 -7 2 -10 -32 -10 -26 0 -50 5 -53 10 -8 13 65 13 85 0z"/>
<path d="M1910 783 c0 -9 3 -13 7 -10 3 4 15 -1 26 -10 19 -18 19 -17 6 4 -17
29 -39 37 -39 16z"/>
<path d="M2080 790 c-8 -5 -10 -10 -5 -10 6 0 17 5 25 10 8 5 11 10 5 10 -5 0
-17 -5 -25 -10z"/>
<path d="M260 780 c0 -5 5 -10 10 -10 6 0 10 5 10 10 0 6 -4 10 -10 10 -5 0
-10 -4 -10 -10z"/>
<path d="M501 780 c0 -8 4 -22 9 -30 12 -18 12 -2 0 25 -6 13 -9 15 -9 5z"/>
<path d="M970 786 c0 -2 8 -10 18 -17 15 -13 16 -12 3 4 -13 16 -21 21 -21 13z"/>
<path d="M400 771 c0 -5 -3 -18 -6 -28 -5 -17 -5 -17 9 -1 8 10 17 15 21 11 4
-4 4 0 0 10 -6 18 -24 24 -24 8z"/>
<path d="M638 773 c7 -3 16 -2 19 1 4 3 -2 6 -13 5 -11 0 -14 -3 -6 -6z"/>
<path d="M1055 770 c-6 -10 33 -70 47 -70 15 0 8 33 -9 46 -10 7 -13 14 -7 14
6 0 23 -9 38 -21 20 -16 26 -17 26 -6 0 31 -80 62 -95 37z"/>
<path d="M310 746 c0 -4 5 -16 10 -26 7 -13 7 -21 0 -25 -15 -9 -12 -27 3 -19
6 4 9 4 5 -1 -9 -10 10 -47 21 -40 12 7 -8 86 -25 105 -8 8 -14 11 -14 6z"/>
<path d="M361 748 c-1 -4 4 -19 11 -33 11 -24 38 -35 38 -15 0 6 -6 10 -13 10
-8 0 -19 10 -25 23 -6 12 -11 19 -11 15z"/>
<path d="M1340 735 c-7 -9 -11 -17 -9 -20 3 -2 10 5 17 15 14 24 10 26 -8 5z"/>
<path d="M1976 725 c4 -8 11 -15 16 -15 6 0 5 6 -2 15 -7 8 -14 15 -16 15 -2
0 -1 -7 2 -15z"/>
<path d="M232 705 c-10 -21 -9 -25 3 -25 9 0 15 10 15 25 0 14 -2 25 -3 25 -2
0 -9 -11 -15 -25z"/>
<path d="M1206 714 c-5 -12 -13 -14 -34 -9 -26 6 -26 5 -10 -11 14 -15 22 -16
43 -6 14 6 25 18 25 27 0 20 -16 19 -24 -1z"/>
<path d="M288 652 c2 -18 8 -32 13 -32 13 0 11 24 -4 45 -13 16 -14 15 -9 -13z"/>
<path d="M2244 667 c11 -7 28 -20 38 -29 28 -28 49 -21 30 9 -8 13 -56 33 -75
32 -7 0 -3 -6 7 -12z"/>
<path d="M193 639 c18 -14 27 -30 27 -48 0 -18 5 -28 15 -28 10 0 13 7 9 26
-5 24 -4 23 15 -6 11 -18 25 -33 30 -33 17 0 21 -33 6 -50 -8 -9 -15 -23 -15
-31 0 -14 -36 -56 -76 -89 -17 -14 -17 -15 -1 -18 10 -2 24 2 32 8 12 10 15 9
15 -4 0 -9 4 -16 9 -16 6 0 8 10 6 22 -11 56 53 58 103 3 30 -32 31 -37 17
-51 -16 -16 -13 -46 7 -71 12 -15 2 -33 -18 -33 -8 0 -14 -5 -14 -11 0 -8 -4
-8 -14 0 -12 10 -13 8 -9 -9 4 -16 2 -19 -13 -14 -11 4 -25 11 -31 17 -9 6
-13 5 -13 -4 0 -11 -3 -11 -11 1 -9 13 -10 13 -6 0 2 -8 12 -14 22 -12 11 2
14 -1 9 -9 -4 -8 -3 -10 4 -5 14 9 38 -4 25 -13 -5 -3 -16 -18 -25 -33 -10
-14 -42 -38 -73 -52 -30 -15 -55 -28 -55 -30 0 -11 68 9 94 27 25 17 33 19 60
9 26 -10 28 -9 14 2 -22 16 -23 26 -2 26 8 0 12 5 9 10 -8 13 -4 13 41 -5 36
-14 37 -14 19 0 -16 13 -17 17 -6 24 9 6 11 16 6 27 -7 18 -7 18 -14 0 -7 -17
-8 -17 -14 -3 -3 9 3 27 14 40 16 21 27 25 69 24 45 -2 65 6 41 15 -5 2 -11 9
-13 16 -2 9 17 14 70 16 39 2 72 0 72 -5 0 -5 5 -9 10 -9 6 0 10 4 10 9 0 16
-71 34 -116 28 -24 -2 -44 -1 -44 4 0 5 4 9 9 9 5 0 23 28 41 63 18 34 39 70
47 79 8 9 12 22 8 28 -8 12 -13 5 -56 -80 -27 -52 -95 -130 -115 -130 -19 0
-27 36 -13 58 15 23 -13 88 -42 97 -10 4 -19 15 -19 26 0 21 -10 25 -27 8 -6
-6 -16 -8 -22 -5 -17 11 -13 24 6 22 19 -1 28 40 11 50 -4 3 2 14 14 25 l23
19 -26 -6 c-23 -5 -32 1 -62 40 -19 25 -37 43 -39 40 -3 -2 -18 0 -34 6 l-29
10 28 -21z m270 -397 c-22 -5 -27 6 -12 24 12 15 14 14 20 -3 4 -12 1 -19 -8
-21z"/>
<path d="M2005 628 c-14 -11 -24 -26 -22 -32 3 -7 -1 -23 -9 -37 -21 -39 -17
-56 18 -68 32 -11 32 -12 11 -26 -12 -8 -29 -12 -37 -9 -22 9 -86 -5 -86 -18
0 -5 7 -8 15 -4 8 3 15 1 15 -4 0 -6 9 -10 19 -10 11 0 23 -4 26 -10 3 -5 -3
-10 -14 -10 -12 0 -21 -4 -21 -10 0 -14 13 -12 36 5 19 15 19 15 0 30 -10 8
-23 12 -29 8 -6 -3 -7 -1 -3 5 3 6 17 9 30 6 61 -11 109 47 51 62 -30 7 -32
23 -6 53 11 13 17 30 15 39 -5 15 -4 15 6 0 6 -10 18 -18 27 -18 15 0 14 2 -2
13 -18 14 -13 43 6 32 5 -4 9 -2 9 3 0 20 -30 20 -55 0z"/>
<path d="M2668 634 c6 -3 10 -10 6 -15 -3 -5 15 -9 43 -8 26 1 58 -1 71 -5 12
-4 22 -4 22 1 0 4 25 8 55 8 l54 0 4 -35 c3 -31 4 -30 5 10 l2 45 -138 2 c-75
1 -131 0 -124 -3z"/>
<path d="M694 604 c-18 -14 -18 -15 4 -4 12 6 22 13 22 15 0 8 -5 6 -26 -11z"/>
<path d="M2070 610 c0 -5 5 -10 11 -10 5 0 7 5 4 10 -3 6 -8 10 -11 10 -2 0
-4 -4 -4 -10z"/>
<path d="M2587 565 c4 -38 2 -55 -6 -55 -17 0 14 -56 35 -64 22 -8 33 2 14 14
-10 6 -14 25 -12 64 2 51 -12 96 -30 96 -3 0 -4 -25 -1 -55z"/>
<path d="M2321 600 c0 -8 4 -24 9 -35 l9 -20 0 20 c0 11 -4 27 -9 35 -9 13
-10 13 -9 0z"/>
<path d="M475 590 c-3 -5 -2 -10 4 -10 5 0 13 5 16 10 3 6 2 10 -4 10 -5 0
-13 -4 -16 -10z"/>
<path d="M1680 591 c0 -6 4 -13 10 -16 6 -3 7 1 4 9 -7 18 -14 21 -14 7z"/>
<path d="M387 541 c-15 -9 -24 -20 -21 -24 4 -3 13 0 20 8 8 7 19 15 26 18 7
2 11 7 8 10 -3 3 -18 -2 -33 -12z"/>
<path d="M2287 553 c-4 -6 -3 -21 1 -34 6 -16 10 -18 14 -8 7 19 -6 56 -15 42z"/>
<path d="M605 540 c3 -5 8 -10 11 -10 2 0 4 5 4 10 0 6 -5 10 -11 10 -5 0 -7
-4 -4 -10z"/>
<path d="M2690 540 c0 -5 7 -10 15 -10 9 0 24 -13 33 -30 18 -32 32 -39 32
-16 0 15 -55 66 -71 66 -5 0 -9 -4 -9 -10z"/>
<path d="M2831 547 c2 -1 13 -9 24 -17 19 -14 19 -14 6 3 -7 9 -18 17 -24 17
-6 0 -8 -1 -6 -3z"/>
<path d="M1580 530 c0 -5 5 -10 10 -10 6 0 10 5 10 10 0 6 -4 10 -10 10 -5 0
-10 -4 -10 -10z"/>
<path d="M2941 524 c0 -11 3 -14 6 -6 3 7 2 16 -1 19 -3 4 -6 -2 -5 -13z"/>
<path d="M637 505 c-15 -14 -24 -25 -19 -25 5 0 15 7 22 15 7 8 19 15 26 15 8
0 14 5 14 10 0 16 -13 11 -43 -15z"/>
<path d="M1296 468 c-62 -66 -85 -74 -36 -13 40 51 39 65 -5 49 -11 -5 -13 -9
-5 -14 14 -9 -76 -135 -102 -143 -10 -3 -18 -15 -18 -27 0 -12 -11 -31 -25
-42 -14 -11 -23 -24 -20 -29 4 -5 -6 -10 -22 -10 -24 -2 -25 -2 -5 -6 28 -5
76 23 66 39 -5 7 -3 8 5 4 8 -5 14 0 18 13 6 23 39 29 46 9 2 -7 8 -10 12 -6
4 4 -3 16 -16 26 l-23 19 27 32 c15 18 27 30 27 27 0 -4 12 0 28 8 37 20 126
112 114 119 -5 4 -35 -21 -66 -55z"/>
<path d="M1347 459 c-55 -54 -67 -72 -62 -89 4 -11 12 -18 18 -14 7 3 1 -3
-12 -14 -14 -11 -30 -18 -37 -15 -24 9 -24 -16 1 -35 13 -11 21 -22 18 -26 -3
-3 -1 -6 5 -6 17 0 15 20 -3 26 -21 8 -8 24 19 24 31 0 36 7 26 41 -8 28 -7
31 26 45 19 8 39 12 44 9 6 -4 10 1 10 9 0 9 -9 16 -20 16 -11 0 -20 5 -20 10
0 6 4 10 9 10 15 0 71 53 71 67 0 25 -26 9 -93 -58z"/>
<path d="M1906 513 c-6 -14 -5 -15 5 -6 7 7 10 15 7 18 -3 3 -9 -2 -12 -12z"/>
<path d="M2861 494 c0 -11 3 -14 6 -6 3 7 2 16 -1 19 -3 4 -6 -2 -5 -13z"/>
<path d="M230 490 c0 -13 18 -22 24 -11 3 5 -1 11 -9 15 -8 3 -15 1 -15 -4z"/>
<path d="M750 485 c-11 -13 -10 -14 4 -9 9 3 16 10 16 15 0 13 -6 11 -20 -6z"/>
<path d="M2130 475 c0 -9 71 -77 76 -73 2 3 -14 21 -36 42 -22 20 -40 34 -40
31z"/>
<path d="M1751 454 c0 -11 3 -14 6 -6 3 7 2 16 -1 19 -3 4 -6 -2 -5 -13z"/>
<path d="M1811 453 c0 -13 -7 -23 -16 -23 -9 0 -12 -6 -9 -15 5 -11 2 -14 -12
-9 -17 6 -17 5 1 -9 23 -19 51 -22 60 -7 4 6 -1 7 -12 3 -14 -5 -16 -4 -7 8 6
8 7 27 3 44 -5 24 -7 25 -8 8z"/>
<path d="M990 450 c0 -5 4 -10 10 -10 19 0 28 -63 12 -90 l-14 -25 21 24 c26
29 27 72 3 94 -21 19 -32 22 -32 7z"/>
<path d="M2654 438 c-6 -9 12 -11 113 -12 40 -1 73 2 73 7 0 9 -8 10 -103 11
-43 1 -81 -2 -83 -6z"/>
<path d="M1105 412 c3 -11 -3 -29 -15 -45 -22 -28 -25 -37 -11 -37 13 0 51 63
51 84 0 9 -7 16 -16 16 -10 0 -13 -6 -9 -18z"/>
<path d="M1610 410 c0 -9 8 -24 18 -33 21 -19 37 -22 26 -5 -4 7 -3 8 5 4 7
-5 -2 -20 -29 -45 -44 -41 -50 -56 -20 -46 11 4 29 0 42 -9 12 -9 30 -16 40
-16 10 0 18 -6 18 -12 0 -7 5 -5 11 5 11 18 39 24 39 7 0 -5 -5 -10 -12 -10
-6 0 -9 -3 -6 -6 4 -3 18 1 32 8 27 14 69 85 60 99 -3 5 0 9 5 9 6 0 11 -10
11 -23 0 -27 50 -87 71 -87 10 1 9 4 -3 11 -10 5 -18 17 -18 24 0 8 -9 24 -20
35 -12 12 -18 25 -15 30 7 12 -28 22 -50 14 -9 -4 -20 -2 -24 4 -3 6 -12 7
-19 3 -15 -9 -4 -44 12 -38 6 3 12 -7 13 -21 0 -15 -2 -20 -7 -13 -5 10 -9 9
-13 -3 -8 -20 -60 -21 -77 -1 -7 8 -21 15 -31 15 -23 0 -25 16 -4 24 8 3 15
13 15 22 0 11 4 14 13 8 7 -5 4 -1 -6 9 -11 9 -28 17 -38 17 -24 0 -25 17 -1
22 12 3 9 6 -10 10 -22 4 -28 1 -28 -12z"/>
<path d="M448 386 c-19 -14 -23 -26 -10 -26 4 0 13 9 20 20 14 23 13 24 -10 6z"/>
<path d="M311 364 c0 -11 3 -14 6 -6 3 7 2 16 -1 19 -3 4 -6 -2 -5 -13z"/>
<path d="M2810 370 c-36 -4 -122 -8 -192 -9 -95 -1 -128 -4 -128 -13 0 -9 -2
-10 -8 -2 -4 6 -21 9 -39 7 -30 -5 -31 -6 -28 -49 3 -34 0 -44 -11 -44 -8 0
-12 -4 -9 -10 8 -12 16 -12 35 0 13 9 13 11 0 19 -12 9 -12 11 4 17 10 4 21 2
25 -5 6 -9 16 -8 42 2 19 8 40 12 47 10 6 -3 12 1 12 9 1 7 6 5 13 -7 7 -11
19 -22 27 -24 43 -11 100 -10 141 2 44 13 47 13 60 -7 7 -12 12 -25 11 -30 -2
-5 5 -5 15 -1 10 4 27 10 38 13 26 7 63 32 48 32 -7 0 -15 -5 -18 -10 -4 -6
-15 -8 -25 -5 -10 3 -21 1 -25 -5 -4 -7 -14 -1 -26 15 -25 31 -17 45 26 45 19
0 36 4 40 10 10 17 34 -1 40 -32 9 -41 18 -28 10 15 l-7 35 -64 -1 c-35 0 -67
2 -71 6 -3 4 15 7 40 7 26 0 47 5 47 10 0 6 -1 9 -2 8 -2 0 -32 -4 -68 -8z
m-165 -40 c3 -6 -5 -10 -19 -10 -13 0 -26 -3 -29 -7 -2 -5 -2 -3 -1 4 2 6 -2
14 -9 17 -7 2 2 5 20 5 17 1 35 -3 38 -9z m-89 -9 c-7 -11 -56 -21 -56 -10 0
4 12 10 28 12 15 2 28 5 30 6 2 0 1 -3 -2 -8z m-101 -11 c3 -5 2 -10 -4 -10
-5 0 -13 5 -16 10 -3 6 -2 10 4 10 5 0 13 -4 16 -10z m193 -25 c-3 -3 -13 -2
-22 1 -14 5 -15 9 -4 15 13 8 36 -6 26 -16z m87 16 c-6 -5 -26 -12 -45 -16
-31 -7 -33 -6 -21 9 7 9 27 16 44 16 19 0 27 -4 22 -9z"/>
<path d="M2253 363 c-22 -8 -14 -20 11 -16 13 3 26 1 29 -4 3 -5 -13 -9 -35
-8 -35 0 -42 -3 -43 -22 -1 -20 0 -21 19 -7 11 8 27 14 34 14 17 0 83 -56 75
-63 -3 -3 5 -3 18 0 13 4 18 8 11 11 -6 2 -12 13 -12 24 0 15 -4 18 -21 13
-16 -5 -19 -4 -14 5 6 9 4 11 -5 5 -10 -6 -12 -4 -7 7 3 9 -2 23 -12 32 -18
16 -27 18 -48 9z"/>
<path d="M2004 337 c-11 -12 -20 -32 -20 -44 0 -21 1 -21 24 4 19 20 21 28 10
34 -7 5 -11 9 -8 10 42 8 60 8 60 0 0 -5 -5 -11 -10 -13 -6 -2 -2 -8 9 -15 15
-10 22 -9 31 2 9 11 7 13 -12 9 -13 -2 -17 -1 -10 2 10 5 10 9 1 20 -17 21
-53 17 -75 -9z"/>
<path d="M231 324 c0 -11 3 -14 6 -6 3 7 2 16 -1 19 -3 4 -6 -2 -5 -13z"/>
<path d="M267 298 c16 -47 35 -74 29 -41 -5 22 -34 83 -40 83 -2 0 3 -19 11
-42z"/>
<path d="M324 293 c5 -38 25 -78 26 -51 0 9 -5 20 -10 23 -6 4 -8 11 -5 16 4
5 1 17 -5 26 -9 15 -10 12 -6 -14z"/>
<path d="M1915 280 c3 -5 12 -7 20 -3 21 7 19 13 -6 13 -11 0 -18 -4 -14 -10z"/>
<path d="M2190 283 c0 -6 -10 -9 -22 -7 -22 4 -22 4 -3 -6 18 -9 17 -10 -7 -7
-16 3 -28 0 -28 -4 0 -17 58 -10 64 7 4 9 4 19 1 22 -3 3 -5 1 -5 -5z"/>
<path d="M250 270 c0 -8 5 -22 10 -30 9 -13 10 -13 10 0 0 8 -5 22 -10 30 -9
13 -10 13 -10 0z"/>
<path d="M2270 265 c-14 -8 -20 -14 -15 -14 6 0 21 6 35 14 14 8 21 14 15 14
-5 0 -21 -6 -35 -14z"/>
<path d="M1540 246 c-5 -15 -20 -27 -39 -31 -17 -4 -31 -11 -31 -16 0 -6 -5
-7 -12 -3 -6 4 -16 0 -22 -8 -6 -8 -18 -17 -26 -21 -9 -3 -4 -6 12 -6 15 -1
30 4 33 9 4 6 11 8 16 5 5 -4 9 -2 9 3 0 5 11 7 24 5 17 -4 28 1 38 16 7 12
18 21 25 21 7 0 13 5 13 10 0 19 21 10 30 -12 l9 -23 0 23 c1 14 5 21 12 17 6
-4 8 -13 5 -21 -3 -7 -1 -16 5 -19 12 -8 -20 -63 -42 -70 -9 -3 -27 -14 -39
-25 -12 -10 -28 -16 -36 -13 -8 3 -14 0 -14 -6 0 -14 16 -14 41 -1 13 8 19 7
19 0 0 -6 5 -8 11 -4 8 5 8 9 -1 14 -8 5 0 12 24 20 20 6 34 16 31 21 -4 5 0
6 7 4 8 -3 21 8 32 25 16 29 17 33 2 49 -9 10 -16 25 -16 34 0 19 -16 31 -25
18 -6 -11 -45 -10 -45 1 0 20 -41 6 -50 -16z"/>
<path d="M1955 250 c-19 -8 -19 -9 3 -9 12 -1 22 4 22 9 0 6 -1 10 -2 9 -2 0
-12 -4 -23 -9z"/>
<path d="M638 243 c7 -3 16 -2 19 1 4 3 -2 6 -13 5 -11 0 -14 -3 -6 -6z"/>
<path d="M231 204 c0 -11 3 -14 6 -6 3 7 2 16 -1 19 -3 4 -6 -2 -5 -13z"/>
<path d="M1560 186 c0 -7 -7 -19 -15 -26 -9 -7 -14 -15 -11 -17 7 -7 56 39 50
49 -8 13 -24 9 -24 -6z"/>
<path d="M1485 160 c-3 -6 1 -7 9 -4 18 7 21 14 7 14 -6 0 -13 -4 -16 -10z"/>
<path d="M1280 145 c0 -11 7 -15 23 -13 12 2 22 8 22 13 0 6 -10 11 -22 13
-16 2 -23 -2 -23 -13z"/>
<path d="M2885 140 c3 -5 8 -10 11 -10 2 0 4 5 4 10 0 6 -5 10 -11 10 -5 0 -7
-4 -4 -10z"/>
<path d="M1405 109 c-14 -17 -25 -33 -23 -34 2 -2 34 5 72 15 49 12 63 19 50
24 -16 6 -16 8 -4 16 20 13 10 12 -28 -1 -20 -7 -29 -15 -25 -22 3 -7 3 -9 -2
-5 -4 4 -15 2 -23 -5 -11 -9 -11 -4 2 16 24 36 14 34 -19 -4z"/>
<path d="M1959 100 c-20 -16 -21 -19 -6 -20 9 0 17 5 17 11 0 5 5 7 12 3 6 -4
8 -3 4 4 -3 5 0 13 6 15 8 4 9 6 2 6 -7 1 -22 -8 -35 -19z"/>
<path d="M470 86 c0 -2 7 -7 16 -10 8 -3 12 -2 9 4 -6 10 -25 14 -25 6z"/>
<path d="M2030 50 c0 -6 7 -10 15 -10 8 0 15 2 15 4 0 2 -7 6 -15 10 -8 3 -15
1 -15 -4z"/>
<path d="M115 40 c-18 -8 -17 -9 7 -9 15 -1 30 4 33 9 7 12 -12 12 -40 0z"/>
<path d="M258 33 c7 -3 16 -2 19 1 4 3 -2 6 -13 5 -11 0 -14 -3 -6 -6z"/>
<path d="M1808 33 c7 -3 16 -2 19 1 4 3 -2 6 -13 5 -11 0 -14 -3 -6 -6z"/>
<path d="M48 23 c6 -2 18 -2 25 0 6 3 1 5 -13 5 -14 0 -19 -2 -12 -5z"/>
</g>
</svg>
