<?xml version="1.0" standalone="no"?>
<!DOCTYPE svg PUBLIC "-//W3C//DTD SVG 20010904//EN"
 "http://www.w3.org/TR/2001/REC-SVG-20010904/DTD/svg10.dtd">
<svg version="1.0" xmlns="http://www.w3.org/2000/svg"
 width="319.000000pt" height="370.000000pt" viewBox="0 0 319.000000 370.000000"
 preserveAspectRatio="xMidYMid meet">
<metadata>
Created by potrace 1.16, written by Peter Selinger 2001-2019
</metadata>
<g transform="translate(0.000000,370.000000) scale(0.100000,-0.100000)"
fill="#000000" stroke="none">
<path d="M3064 3666 c-4 -11 -12 -12 -35 -4 -20 7 -50 6 -96 -1 -46 -8 -89 -9
-133 -2 -36 5 -132 7 -215 5 -276 -8 -628 -9 -788 -3 -124 5 -161 3 -172 -7
-15 -16 -119 -19 -533 -16 -156 2 -288 -1 -295 -5 -6 -4 -93 -8 -192 -8 -464
-3 -465 -3 -475 -27 -7 -18 -9 -19 -9 -5 -1 23 -30 22 -39 -2 -4 -11 -6 -127
-4 -258 3 -222 2 -457 -1 -768 -1 -71 4 -220 12 -330 18 -248 19 -321 9 -460
-14 -203 -8 -574 11 -655 5 -19 9 -88 10 -152 2 -109 0 -117 -19 -123 -26 -8
-26 -25 0 -32 20 -5 25 -28 14 -69 -5 -19 -11 -21 -44 -17 -49 7 -60 -11 -27
-44 17 -18 31 -24 43 -19 16 6 16 8 4 16 -13 8 -13 10 1 10 9 0 19 -8 21 -17
7 -26 3 -177 -5 -190 -3 -5 -3 -13 1 -17 4 -4 8 -49 8 -99 1 -72 11 -196 24
-307 0 -3 5 2 10 10 8 12 10 12 10 1 0 -11 3 -11 15 -1 11 9 15 9 15 1 0 -8
105 -11 388 -10 726 1 870 0 877 -11 6 -10 170 -7 375 8 58 5 164 7 235 5 72
-1 331 -4 577 -6 l448 -4 22 25 c19 20 23 37 26 100 3 100 3 86 -8 171 -5 41
-6 79 -3 85 15 23 21 523 10 726 -11 176 -19 1079 -11 1100 7 16 6 75 -3 398
-5 186 -4 204 12 216 16 12 17 14 1 38 -13 20 -14 35 -7 74 4 27 5 96 1 154
-3 58 -4 176 -2 263 4 154 -5 217 -29 217 -5 0 -9 14 -9 30 0 31 -16 41 -26
16z m-1279 -86 c11 -5 18 -9 15 -10 -19 -5 -91 -6 -120 -1 l-35 5 40 7 c57 9
77 9 100 -1z m95 0 c0 -5 16 -10 35 -10 30 0 35 -3 35 -24 0 -19 4 -23 19 -19
10 3 22 0 25 -6 4 -6 2 -11 -4 -11 -6 0 -8 -4 -5 -10 3 -5 0 -10 -7 -10 -8 0
-9 -3 -3 -8 6 -4 19 -20 29 -35 23 -37 33 -28 13 12 -10 20 -12 31 -5 31 18 0
47 -31 42 -44 -3 -7 3 -19 13 -27 16 -13 17 -12 5 3 -14 18 -7 43 9 32 5 -3 7
-9 4 -14 -3 -4 3 -10 14 -13 10 -2 21 -14 24 -26 5 -21 3 -22 -44 -20 -34 2
-53 -2 -59 -11 -9 -14 -60 -21 -60 -8 0 4 -19 8 -42 9 -31 0 -37 3 -24 8 15 6
17 9 6 16 -8 5 -18 2 -26 -10 -12 -17 -15 -16 -49 14 -38 33 -51 39 -39 19 5
-9 2 -9 -9 1 -15 12 -17 11 -17 -9 0 -16 4 -20 15 -16 26 10 16 -3 -15 -19
-16 -8 -46 -15 -67 -15 -21 0 -45 -5 -53 -11 -13 -9 -12 -10 3 -5 9 3 17 1 17
-4 0 -6 -6 -10 -12 -11 -7 0 -68 -6 -134 -13 -67 -6 -146 -9 -175 -5 -30 3
-43 7 -29 8 l25 2 -25 11 c-24 11 -23 12 20 18 25 4 61 5 80 3 19 -3 31 -1 25
4 -5 4 -11 13 -12 18 -1 6 -4 17 -8 26 -5 13 3 17 41 23 26 3 56 14 66 23 20
18 45 20 231 25 65 1 121 6 123 10 3 5 10 8 15 8 6 0 8 -4 4 -9 -3 -5 -1 -12
5 -16 5 -3 10 1 10 9 0 9 9 16 21 16 11 0 17 5 14 10 -4 6 -21 8 -38 5 -56
-10 -137 -13 -142 -5 -2 4 28 10 68 13 40 3 80 8 90 12 31 13 18 24 -23 19
-33 -4 -39 -2 -34 11 6 14 -11 21 -38 16 -5 0 -8 4 -8 9 0 6 14 10 30 10 17 0
30 -4 30 -10z m641 0 c98 0 149 -4 149 -11 0 -5 -3 -8 -7 -6 -5 2 -55 0 -113
-5 -99 -8 -159 -10 -182 -5 -6 1 -13 -4 -15 -10 -3 -9 5 -13 23 -13 18 0 40
-11 59 -30 21 -21 34 -27 45 -20 12 8 11 13 -7 32 -21 22 -21 24 -3 24 10 0
16 -4 14 -8 -8 -12 44 -21 97 -16 27 3 49 2 49 -2 0 -5 11 -7 25 -6 14 0 25 4
25 7 0 3 10 4 23 2 25 -5 161 -128 169 -153 4 -13 7 -12 23 3 9 10 24 16 31
13 7 -3 16 0 20 6 5 7 -1 9 -18 6 -25 -5 -25 -5 -24 68 1 46 -4 77 -11 85 -10
10 -11 2 -7 -37 3 -27 1 -62 -5 -78 -11 -28 -12 -28 -31 -11 -14 13 -17 22
-10 29 17 17 11 28 -10 21 -13 -4 -31 2 -50 15 -34 24 -39 41 -12 38 9 -1 34
0 54 0 37 2 37 3 21 22 -10 11 -25 20 -35 20 -9 0 -20 5 -23 10 -4 7 12 8 47
4 30 -3 71 -1 93 5 36 10 42 9 58 -11 22 -26 22 -141 1 -163 -11 -11 -11 -14
2 -19 11 -4 12 -10 4 -25 -14 -26 -13 -31 6 -31 14 0 16 -8 11 -45 -4 -38 -1
-47 14 -56 11 -5 19 -20 19 -35 0 -21 -4 -24 -20 -19 -27 9 -27 -18 0 -36 16
-11 21 -28 25 -76 3 -35 2 -63 -1 -63 -6 0 -77 54 -109 83 -11 9 -58 49 -105
87 -47 39 -95 79 -107 89 -30 25 -47 31 -64 21 -8 -6 -16 -4 -21 2 -5 9 -14 9
-34 -1 l-27 -12 21 -19 c25 -24 32 -25 32 -5 0 22 63 20 84 -4 16 -18 16 -19
-18 -23 -20 -2 -37 0 -39 5 -1 5 -9 2 -16 -7 -12 -14 -11 -16 8 -16 12 0 31
-5 42 -10 12 -7 25 -7 37 -1 14 7 27 5 51 -10 18 -11 31 -22 28 -25 -3 -3 -37
-6 -76 -5 -39 0 -71 -3 -71 -8 0 -16 26 -20 91 -15 49 4 61 2 52 -7 -18 -18
-344 -25 -358 -7 -5 8 -18 17 -28 21 -11 4 -21 16 -24 27 -5 20 -39 37 -51 25
-4 -4 5 -16 21 -27 29 -21 37 -41 12 -32 -8 4 -15 1 -15 -4 0 -7 -11 -8 -31
-2 -20 6 -39 6 -51 -1 -11 -6 -41 -8 -72 -4 -33 4 -56 3 -60 -3 -4 -7 -16 -6
-36 1 -24 9 -33 9 -39 -1 -7 -11 -11 -10 -24 2 -9 9 -20 15 -24 14 -18 -5
-193 14 -189 20 2 4 -22 7 -53 7 -40 0 -62 5 -74 17 -16 15 -15 17 13 23 17 4
30 11 30 16 0 6 -5 7 -11 4 -29 -19 -133 5 -113 25 5 5 50 10 100 11 87 3 166
17 102 18 -42 1 -34 21 8 21 28 0 35 -3 30 -15 -4 -12 3 -15 36 -15 33 0 38
-3 29 -13 -6 -8 -8 -17 -4 -20 3 -4 -2 -9 -11 -13 -9 -3 -16 -13 -16 -21 0
-10 6 -13 16 -9 9 4 22 2 29 -4 6 -5 20 -11 31 -13 10 -1 25 -6 31 -10 9 -5
11 -3 7 6 -3 8 -1 18 5 22 20 12 12 26 -9 15 -15 -8 -20 -8 -20 2 0 9 -3 9
-10 -2 -9 -13 -10 -13 -10 0 0 13 -1 13 -10 0 -8 -12 -10 -12 -16 3 -8 22 -6
24 30 31 36 6 46 16 18 16 -12 0 -22 4 -22 10 0 5 7 7 16 3 13 -5 15 -2 10 13
-13 43 138 91 182 58 20 -16 32 -18 32 -5 0 11 -122 135 -146 149 -28 16 -11
24 22 12 33 -13 152 -130 132 -131 -7 -1 -2 -4 12 -8 35 -11 44 -3 24 20 -9
10 -13 19 -8 20 5 0 -1 4 -14 9 -12 5 -25 18 -29 27 -4 10 -18 28 -32 41 -16
13 -22 25 -16 30 15 11 17 32 3 33 -7 0 -25 3 -40 5 -14 2 -29 0 -33 -6 -3 -5
-21 -10 -38 -10 -27 1 -30 2 -16 13 9 7 14 18 12 25 -3 7 5 12 19 13 13 1 82
4 153 8 72 4 136 6 143 4 8 -2 81 -3 163 -3z m-2346 -10 c3 -5 19 -10 34 -10
16 0 34 -7 41 -15 10 -12 16 -13 26 -4 8 7 83 15 182 20 92 4 195 11 230 15
70 7 124 -8 115 -32 -3 -9 2 -14 16 -14 12 0 21 6 21 15 0 8 7 15 16 15 8 0
12 -4 9 -10 -4 -6 5 -10 19 -10 14 0 26 5 26 10 0 13 32 9 42 -5 4 -5 15 -2
27 9 18 16 21 17 26 4 5 -13 25 -15 123 -11 84 3 113 1 102 -6 -8 -6 -32 -11
-52 -11 -22 0 -38 -5 -38 -11 0 -15 117 -6 133 10 16 16 -10 39 -51 44 -20 3
-3 2 38 0 41 -3 94 -5 118 -4 42 1 58 -13 25 -22 -10 -3 70 -5 177 -5 107 0
200 -1 205 -2 17 -4 -224 -30 -315 -34 -286 -15 -452 -18 -446 -7 4 6 25 11
47 11 22 0 39 5 39 11 0 6 -7 8 -16 5 -9 -3 -45 -6 -81 -6 -52 0 -64 -3 -60
-14 6 -16 -13 -26 -49 -26 -14 0 -23 -4 -19 -9 3 -5 -3 -12 -12 -14 -10 -3 11
-5 47 -6 53 -2 60 -4 41 -12 -13 -5 -22 -11 -20 -13 4 -3 137 7 439 33 61 5
109 5 115 0 6 -6 6 -9 0 -9 -6 0 -37 -4 -70 -9 -127 -20 -224 -31 -320 -36
-81 -4 -86 -5 -80 -15 3 -5 1 -10 -4 -10 -6 0 -11 6 -11 13 0 9 -12 11 -41 9
-24 -3 -36 -7 -29 -12 7 -4 21 -5 33 -2 14 3 18 1 13 -6 -6 -10 2 -15 24 -14
46 2 230 14 278 18 41 4 62 3 62 -5 0 -6 -15 -10 -33 -9 -19 1 -38 -2 -44 -5
-9 -6 -264 -21 -355 -22 -21 0 -38 -4 -38 -10 0 -6 37 -10 90 -10 49 0 90 -3
90 -7 0 -5 -18 -9 -40 -9 -22 -1 -43 -2 -47 -3 -5 -1 -34 -5 -65 -10 -65 -8
-78 -26 -20 -26 25 0 33 -3 23 -9 -20 -13 -6 -44 16 -37 10 3 52 8 93 11 41 3
102 10 135 16 100 16 312 29 336 21 16 -6 -14 -12 -102 -21 -158 -16 -169 -18
-169 -37 0 -12 -4 -13 -20 -4 -21 11 -173 16 -189 6 -5 -3 -73 -8 -152 -11
-142 -5 -281 -15 -511 -36 -64 -6 -137 -12 -162 -12 l-45 -2 2 212 c1 157 5
213 14 213 6 0 15 -4 18 -10z m1435 -2 c0 -4 -7 -8 -15 -8 -8 0 -15 4 -15 8 0
5 7 9 15 9 8 0 15 -4 15 -9z m400 2 c0 -5 -7 -10 -15 -10 -8 0 -15 5 -15 10 0
6 7 10 15 10 8 0 15 -4 15 -10z m750 1 c0 -19 -20 -22 -42 -7 -22 16 -22 16
10 16 17 0 32 -4 32 -9z m-1211 -5 c-11 -10 -109 -16 -109 -6 0 6 24 10 57 10
31 0 54 -2 52 -4z m281 -26 c0 -5 -4 -10 -9 -10 -6 0 -13 5 -16 10 -3 6 1 10
9 10 9 0 16 -4 16 -10z m970 0 c0 -5 -4 -10 -9 -10 -6 0 -13 5 -16 10 -3 6 1
10 9 10 9 0 16 -4 16 -10z m-1025 -200 c-3 -5 -14 -10 -23 -9 -14 0 -13 2 3 9
27 11 27 11 20 0z m-630 -10 c4 -6 -5 -10 -20 -10 -15 0 -24 4 -20 10 3 6 12
10 20 10 8 0 17 -4 20 -10z m695 -10 c0 -5 -7 -10 -16 -10 -8 0 -12 5 -9 10 3
6 10 10 16 10 5 0 9 -4 9 -10z m-47 -16 c-4 -11 -13 -13 -34 -9 -17 4 -29 2
-29 -4 0 -6 -31 -10 -76 -10 -81 0 -96 5 -29 10 22 1 45 6 50 10 6 4 35 9 65
12 30 2 56 4 57 5 1 1 0 -5 -4 -14z m-457 -17 c4 -4 -2 -7 -14 -7 -12 0 -22 4
-22 9 0 10 26 9 36 -2z m590 0 c4 -4 3 -7 -2 -8 -5 0 -17 -2 -26 -4 -10 -2
-15 2 -12 10 5 13 28 14 40 2z m1111 -9 c-3 -8 -6 -5 -6 6 -1 11 2 17 5 13 3
-3 4 -12 1 -19z m-1937 4 c0 -4 -17 -8 -38 -9 -20 -1 -57 -3 -82 -6 -25 -2
-37 -2 -27 0 9 3 17 8 17 13 0 4 29 8 65 8 36 0 65 -3 65 -6z m870 4 c0 -11
-19 -15 -25 -6 -3 5 1 10 9 10 9 0 16 -2 16 -4z m-375 -65 c0 -17 -52 -34 -57
-19 -2 6 -30 10 -62 9 -70 0 -67 8 6 19 74 11 113 8 113 -9z m-295 -21 c0 -5
-4 -10 -10 -10 -5 0 -10 5 -10 10 0 6 5 10 10 10 6 0 10 -4 10 -10z m35 0 c3
-5 -1 -10 -9 -10 -9 0 -16 5 -16 10 0 6 4 10 9 10 6 0 13 -4 16 -10z m-190
-20 c3 -5 -1 -10 -9 -10 -9 0 -16 5 -16 10 0 6 4 10 9 10 6 0 13 -4 16 -10z
m-21 -44 c26 -2 52 -9 56 -16 4 -7 12 -10 18 -6 19 11 22 -26 20 -213 -1 -102
-4 -169 -6 -148 -2 20 -7 37 -13 37 -11 0 -11 -23 1 -75 5 -22 5 -42 0 -45 -4
-3 -4 -25 0 -50 5 -25 7 -85 4 -135 -2 -49 -6 -157 -9 -240 -3 -137 -17 -328
-30 -415 -8 -54 -16 -431 -9 -452 6 -20 53 -25 55 -5 0 6 3 33 5 60 4 39 2 47
-12 47 -15 0 -16 12 -11 103 4 56 7 132 7 170 0 44 4 67 12 67 8 0 9 -27 5
-97 -4 -57 -3 -93 2 -87 5 5 12 90 16 189 4 99 9 183 11 187 3 5 10 6 15 3 15
-10 10 17 -5 29 -11 9 -12 33 -4 141 7 94 7 130 -1 133 -6 2 -11 25 -11 51 0
85 13 201 21 195 5 -3 9 25 9 62 0 95 8 75 13 -29 2 -47 6 -89 10 -93 3 -4 4
-27 2 -53 -4 -44 -4 -45 5 -11 14 49 19 130 9 130 -15 0 -21 87 -12 181 9 106
6 202 -6 194 -5 -3 -11 13 -13 35 -3 38 5 54 15 28 11 -32 17 5 9 56 -6 35 -5
56 1 56 5 0 30 -17 56 -38 25 -22 77 -59 114 -84 41 -28 63 -48 55 -51 -8 -3
-5 -6 7 -6 25 -1 137 -84 242 -178 43 -38 99 -86 124 -105 75 -56 105 -88 93
-96 -6 -4 -10 -20 -9 -37 1 -16 -4 -36 -9 -44 -7 -8 -12 -80 -13 -170 -4 -233
-9 -308 -20 -323 -9 -11 -17 -87 -28 -263 -2 -27 -6 -66 -9 -86 -14 -89 -39
-405 -41 -521 -2 -101 1 -128 11 -128 7 0 18 -9 24 -21 27 -50 134 -128 176
-129 31 0 34 18 23 117 -12 93 4 280 36 443 29 146 45 246 45 288 0 24 7 75
15 115 8 40 17 92 20 117 3 25 11 81 17 125 6 44 12 112 12 150 1 67 0 70 -23
70 -17 0 -29 9 -40 32 -9 18 -25 33 -36 35 -14 2 -19 9 -17 24 2 13 -6 29 -21
40 -12 11 -34 34 -47 52 -13 17 -29 32 -34 32 -6 0 -12 11 -12 25 -1 16 3 25
13 25 20 0 93 -68 151 -139 12 -16 25 -22 36 -18 10 4 14 11 11 17 -14 23 8 7
38 -26 32 -38 49 -62 66 -101 6 -13 14 -23 18 -23 5 0 19 -18 33 -40 13 -22
27 -40 32 -40 4 0 5 -7 2 -15 -4 -8 0 -23 7 -32 21 -25 20 -500 -1 -513 -8 -5
-18 -10 -22 -10 -11 0 -10 89 3 214 8 78 8 111 0 119 -6 6 -11 43 -11 82 0 99
-14 141 -47 148 -41 8 -66 -22 -60 -72 2 -23 1 -44 -3 -46 -5 -3 -12 -40 -15
-83 -4 -42 -9 -88 -12 -102 -2 -14 -8 -68 -13 -120 -5 -52 -13 -124 -19 -160
-8 -55 -16 -218 -12 -270 2 -29 -9 -256 -19 -410 -6 -85 -8 -164 -6 -175 8
-30 92 -119 108 -113 30 12 48 99 52 253 2 83 10 206 19 275 9 69 19 194 23
278 7 143 8 152 27 152 19 0 20 -4 13 -142 -4 -79 -11 -172 -16 -208 -13 -88
-17 -160 -10 -160 3 0 2 -46 -2 -102 -4 -57 -9 -150 -13 -208 -3 -58 -10 -133
-16 -167 -6 -33 -8 -71 -4 -82 8 -26 0 -27 -27 -1 -12 11 -29 18 -39 15 -9 -3
-24 1 -32 9 -13 14 -16 14 -28 0 -11 -14 -10 -18 6 -30 10 -8 22 -14 27 -14 4
0 8 -4 8 -10 0 -9 -29 -16 -115 -24 -27 -3 -113 -15 -190 -26 -77 -12 -162
-20 -190 -17 -27 2 -61 1 -75 -4 -27 -10 -203 -23 -528 -39 -250 -13 -341 -30
-122 -22 297 9 473 8 477 -4 5 -15 -38 -27 -114 -29 -33 -2 -85 -8 -113 -15
-52 -12 -52 -12 -77 16 -13 16 -22 22 -20 14 5 -21 -17 -40 -50 -40 l-28 -1
25 -15 c24 -14 24 -15 3 -11 -13 3 -25 2 -28 -2 -2 -4 -25 -8 -50 -9 -38 0
-45 3 -45 20 0 16 5 19 28 14 20 -5 30 -2 39 13 19 31 24 31 -373 16 l-221 -7
-6 22 c-4 17 -9 20 -24 12 -18 -10 -53 -15 -86 -13 -13 1 -17 8 -15 23 2 16
-6 28 -29 43 -22 13 -32 26 -29 37 5 21 -11 34 -36 30 -9 -2 -23 6 -30 17 -7
12 -18 21 -25 21 -6 0 -13 4 -15 9 -1 5 -10 11 -18 13 -23 5 -30 19 -30 61 0
34 1 36 18 22 94 -82 98 -84 155 -60 20 8 52 15 72 15 21 0 35 5 35 13 0 9 36
12 147 12 82 0 191 6 243 13 52 7 221 15 375 17 154 3 294 7 310 10 17 2 107
9 200 15 94 6 174 16 180 21 15 15 -16 30 -48 23 -86 -18 -134 -20 -133 -6 1
8 -7 19 -17 26 -14 8 -20 8 -27 -4 -5 -8 -7 -17 -4 -21 2 -4 -9 -9 -24 -11
-22 -3 -31 1 -39 18 -9 20 -7 22 50 28 86 9 127 7 127 -4 0 -5 12 -10 26 -10
16 0 24 5 22 13 -6 17 -57 40 -88 40 -563 -6 -988 -18 -1080 -32 -91 -12 -150
-14 -150 -3 0 8 104 34 145 37 11 1 38 5 60 9 47 9 253 23 532 35 111 5 206
12 212 15 5 4 12 2 15 -3 4 -6 -28 -13 -74 -17 -44 -3 -78 -10 -75 -14 6 -10
251 -2 297 10 44 12 54 36 11 25 -25 -6 -26 -5 -10 7 17 13 17 16 -16 51 -32
35 -40 39 -108 46 -41 5 -78 6 -82 4 -4 -3 -42 -1 -85 3 l-77 7 71 12 c96 17
148 35 136 47 -6 6 -32 2 -73 -11 -98 -31 -204 -50 -313 -56 -54 -3 -103 -8
-108 -11 -5 -3 -147 -10 -316 -15 -169 -5 -338 -13 -377 -18 -84 -12 -125 -5
-125 19 0 16 13 18 126 19 69 1 144 5 167 11 43 9 290 18 572 20 88 1 183 6
210 11 28 6 68 11 90 12 34 2 41 6 43 26 6 38 -8 91 -23 91 -8 0 -18 6 -22 13
-4 7 -27 21 -51 31 -43 20 -150 25 -282 13 -196 -16 -236 -21 -245 -27 -11 -8
-244 -33 -340 -36 -33 -1 -99 -5 -147 -9 l-88 -6 0 45 c0 42 14 70 22 44 3 -7
11 -9 24 -3 10 4 33 10 49 12 17 2 64 10 105 18 41 8 104 17 140 20 59 6 157
19 420 59 100 15 225 43 250 56 8 4 16 18 17 31 1 15 0 17 -3 7 -3 -10 -10
-18 -15 -18 -5 0 -11 0 -14 0 -3 0 -4 1 -3 3 1 1 -4 12 -11 25 -14 26 -35 19
-28 -9 4 -16 -1 -19 -36 -20 -23 -1 -64 -3 -92 -4 -27 -2 -142 -8 -255 -13
-113 -6 -241 -15 -285 -20 -44 -6 -124 -13 -179 -16 l-99 -5 7 37 c3 20 6 60
6 87 0 37 3 46 10 34 13 -23 45 -29 114 -21 l60 7 11 65 c7 36 13 90 14 121 1
31 6 69 11 85 l8 29 1 -30 c1 -16 -4 -79 -9 -139 -6 -60 -8 -111 -5 -115 14
-13 21 25 24 117 2 105 15 246 32 357 15 101 15 100 4 105 -10 5 -18 -35 -31
-165 l-8 -70 -9 65 c-9 65 -10 289 -3 560 6 217 -7 617 -20 630 -6 6 -44 13
-83 14 -63 3 -71 1 -71 -15 0 -41 11 -49 65 -49 l52 0 6 -57 c4 -32 9 -151 13
-264 7 -206 7 -207 -15 -218 -12 -7 -40 -13 -61 -14 l-40 -3 0 57 c0 82 5 89
55 89 24 0 46 4 49 8 10 17 -11 30 -49 28 l-40 -1 -3 108 c-3 101 -2 107 17
107 11 0 32 5 46 10 23 9 25 13 15 25 -11 13 -16 13 -34 2 -39 -25 -55 -11
-58 51 -2 46 -7 57 -21 60 -17 4 -18 -4 -11 -120 5 -67 7 -154 6 -193 -1 -38
-4 -306 -7 -595 -3 -289 -8 -540 -11 -557 -8 -52 -21 -38 -20 20 3 143 -4 258
-15 251 -9 -5 -10 12 -4 67 23 227 22 327 -3 322 -8 -2 -12 17 -12 60 0 34 -5
132 -11 217 -11 169 0 613 17 630 10 10 136 27 264 36 41 3 84 9 95 14 11 5
67 12 125 15 299 19 368 22 395 18 17 -2 52 -6 79 -7z m143 -58 c-2 -13 -4 -3
-4 22 0 25 2 35 4 23 2 -13 2 -33 0 -45z m1608 15 c-2 -8 4 -13 15 -13 24 0
68 -39 72 -65 2 -16 -3 -20 -26 -20 -16 0 -31 -6 -34 -13 -3 -10 5 -12 34 -6
22 3 44 7 49 8 6 0 13 5 17 10 12 17 37 -21 35 -55 0 -19 1 -41 4 -49 3 -10
-8 -16 -39 -20 -35 -5 -45 -3 -53 11 -8 15 -4 18 28 21 38 3 40 6 34 48 0 6
-6 10 -12 10 -6 0 -8 -7 -5 -17 6 -15 4 -15 -14 2 -18 16 -20 16 -20 2 0 -10
-6 -17 -12 -18 -7 0 -22 -2 -33 -4 -11 -2 -30 2 -42 10 -19 13 -27 12 -65 -5
l-43 -20 35 0 c19 -1 44 -5 55 -10 15 -7 9 -9 -25 -9 -29 -1 -56 6 -75 19 -16
11 -24 20 -16 20 8 0 12 2 9 5 -3 3 -13 2 -22 -1 -14 -5 -15 -9 -4 -15 11 -8
11 -10 -1 -18 -10 -6 -6 -11 15 -19 l29 -10 -28 -1 c-19 -1 -30 6 -38 22 -6
13 -30 35 -55 50 -24 15 -43 32 -42 39 2 7 -2 12 -9 11 -6 -2 -33 17 -60 42
l-48 44 156 1 c107 0 159 4 167 12 9 9 12 9 12 0 0 -7 5 -12 11 -12 7 0 9 11
5 30 l-6 31 25 -18 c13 -10 22 -24 20 -30z m-495 -23 c3 -1 -6 -6 -20 -10 -20
-6 -16 -8 23 -9 30 -1 46 3 42 9 -16 25 39 6 72 -25 l37 -35 -46 0 c-26 0 -49
4 -52 8 -8 13 -119 8 -124 -6 -2 -6 2 -12 10 -12 10 0 10 -2 -1 -9 -11 -7 -4
-11 25 -16 65 -11 63 -15 -6 -9 -80 7 -111 14 -105 24 3 4 -6 7 -20 6 -14 0
-25 -5 -25 -11 0 -6 -3 -6 -8 1 -4 6 -16 16 -27 21 -14 9 -3 10 48 7 39 -2 67
0 67 6 0 14 -39 32 -56 26 -8 -3 -14 -1 -14 5 0 6 -4 8 -9 5 -5 -4 -20 -2 -33
3 -22 8 -21 9 14 16 20 4 61 5 91 3 30 -1 53 0 51 3 -3 6 52 5 66 -1z m-693
-16 c2 -6 -12 -11 -32 -12 -25 -1 -35 3 -35 14 0 11 8 14 32 11 17 -2 33 -8
35 -13z m196 -4 c10 0 16 -4 13 -9 -7 -10 88 -26 103 -17 12 8 41 -3 41 -16 0
-5 -6 -5 -16 0 -18 10 -64 4 -64 -9 0 -11 -51 -8 -67 4 -7 5 -24 7 -38 5 -14
-3 -25 -1 -25 3 0 5 -10 9 -23 9 -31 0 -39 9 -24 26 8 10 24 13 47 9 19 -2 43
-5 53 -5z m205 -33 c14 4 14 3 2 -5 -16 -12 -30 -7 -29 11 0 9 2 9 5 0 3 -7
13 -9 22 -6z m-391 -35 c7 -9 13 -20 13 -24 0 -5 9 -8 21 -8 11 0 17 5 14 10
-11 17 30 11 51 -7 20 -19 31 -21 164 -23 47 0 142 -12 212 -27 129 -26 199
-24 128 3 -34 12 -33 13 25 7 60 -6 117 -25 65 -22 -14 1 -32 0 -40 -1 -30 -3
24 -19 69 -19 24 -1 41 -4 38 -8 -4 -3 -53 -6 -109 -5 -101 2 -144 -7 -118
-23 7 -4 16 -2 20 5 5 8 9 7 13 -4 4 -9 1 -16 -6 -17 -7 0 -37 -2 -67 -4 -30
-2 -62 1 -70 6 -10 6 -2 8 28 9 23 0 42 4 42 9 0 13 -55 18 -102 10 -25 -4
-38 -2 -38 5 0 8 -3 8 -8 0 -10 -14 -42 -26 -42 -14 0 5 8 11 18 13 9 3 -9 4
-41 3 -36 -2 -65 3 -77 11 -17 12 -20 12 -20 -2 0 -12 -4 -14 -19 -6 -10 6
-30 8 -43 6 -15 -3 -31 1 -38 10 -7 8 -17 15 -23 15 -11 0 -147 108 -147 117
0 12 75 -10 87 -25z m835 -14 c-16 -16 -15 -28 3 -28 8 0 18 -12 21 -27 4 -16
12 -31 18 -35 6 -4 -6 -8 -26 -8 -21 0 -38 5 -38 10 0 6 6 10 13 10 8 0 7 4
-3 10 -10 6 -11 10 -2 10 6 0 12 5 12 10 0 6 -12 10 -27 10 -20 0 -24 3 -16
11 6 6 9 18 6 25 -4 10 3 14 23 14 22 0 25 -3 16 -12z m-628 -7 c3 -5 -1 -11
-9 -14 -9 -4 -12 -1 -8 9 6 16 10 17 17 5z m676 -15 c0 -8 6 -17 13 -19 7 -3
5 -6 -5 -6 -10 -1 -18 5 -18 13 0 8 -6 17 -12 19 -8 3 -6 6 5 6 9 1 17 -5 17
-13z m-633 -2 c-3 -3 -12 -4 -19 -1 -8 3 -5 6 6 6 11 1 17 -2 13 -5z m510 0
c-3 -3 -12 -4 -19 -1 -8 3 -5 6 6 6 11 1 17 -2 13 -5z m53 -93 c0 -8 58 -5 87
4 6 2 19 -3 30 -10 16 -13 13 -14 -31 -15 -27 0 -46 -3 -43 -6 3 -4 42 -6 87
-5 45 1 80 -2 80 -8 0 -5 12 -14 28 -19 25 -10 23 -10 -21 -11 -27 -1 -46 3
-43 8 3 5 -1 12 -10 15 -24 9 -44 7 -44 -4 0 -5 6 -10 14 -10 24 0 26 -15 3
-17 -105 -7 -307 -9 -289 -2 21 8 31 20 15 18 -5 -1 -28 -1 -52 0 -79 2 -36
12 65 15 142 5 144 5 144 15 0 14 -32 18 -95 11 -33 -4 -66 -4 -73 0 -8 4 6 8
30 9 24 2 53 4 65 5 12 0 25 4 29 9 10 10 24 9 24 -2z m-205 -11 c3 -5 -1 -10
-9 -10 -9 0 -16 5 -16 10 0 6 4 10 9 10 6 0 13 -4 16 -10z m488 -6 c-16 -12
-9 -13 57 -14 73 0 88 14 25 23 -16 2 14 5 69 6 89 1 98 -1 92 -16 -5 -15 -4
-15 9 1 15 19 15 19 15 -5 0 -14 -4 -29 -10 -35 -5 -5 -6 -24 0 -49 11 -45 13
-145 4 -145 -3 0 -18 9 -32 20 -15 12 -37 29 -50 38 -19 14 -22 23 -17 44 l7
27 29 -22 c26 -18 31 -19 39 -7 14 21 12 28 -10 50 -21 21 -46 28 -35 10 4 -6
-11 -10 -39 -10 -24 0 -51 -3 -60 -6 -9 -3 -16 -1 -16 5 0 6 9 11 20 11 34 0
90 28 90 44 0 16 -38 42 -47 32 -3 -3 0 -12 7 -21 10 -12 10 -15 -3 -15 -8 0
-18 -6 -21 -12 -5 -10 -7 -10 -12 1 -4 8 -9 10 -13 3 -11 -19 -84 -1 -119 28
l-34 28 37 0 c33 0 34 -1 18 -14z m-916 -10 c-3 -3 -12 -4 -19 -1 -8 3 -5 6 6
6 11 1 17 -2 13 -5z m1210 -36 c-3 -8 -6 -5 -6 6 -1 11 2 17 5 13 3 -3 4 -12
1 -19z m-1107 2 c18 -12 2 -12 -25 0 -13 6 -15 9 -5 9 8 0 22 -4 30 -9z m257
-8 c12 -7 34 -12 49 -12 19 0 25 -3 18 -10 -7 -7 -33 -7 -80 -1 -38 6 -97 11
-132 12 -34 1 -69 7 -77 13 -22 16 193 13 222 -2z m538 -22 c3 -6 -4 -10 -17
-10 -18 0 -20 2 -8 10 19 12 18 12 25 0z m-680 -21 c-5 -7 -21 -9 -41 -6 -38
6 -76 -1 -68 -14 3 -5 1 -9 -3 -9 -5 0 -13 8 -20 19 -11 17 -7 18 64 20 54 1
73 -1 68 -10z m230 -34 c17 -7 37 -15 45 -18 14 -5 -17 -7 -137 -11 -23 0 -45
-5 -50 -10 -7 -7 213 -1 324 9 47 5 140 7 183 5 l35 -2 -35 -9 c-60 -16 -72
-18 -195 -29 -66 -6 -135 -13 -152 -16 -21 -4 -33 -2 -33 5 0 6 -8 11 -17 11
-15 0 -16 -2 -3 -10 11 -7 6 -10 -21 -10 -20 0 -51 -3 -68 -6 -27 -6 -36 -2
-66 31 -24 25 -41 35 -52 31 -14 -6 -11 -10 14 -26 17 -10 34 -23 37 -28 9
-16 -34 -26 -48 -12 -8 10 -5 11 14 5 22 -7 23 -6 11 9 -7 9 -24 16 -37 16
-24 0 -77 48 -68 61 6 10 36 0 46 -15 4 -6 11 -6 20 1 7 6 32 11 55 11 23 1
53 7 68 14 29 16 86 13 130 -7z m150 -6 c-7 -11 -35 -12 -35 -1 0 4 9 8 20 9
11 1 18 -2 15 -8z m-1219 -45 c-4 -14 -9 -24 -12 -21 -3 2 -2 17 2 31 3 15 9
25 11 22 3 -3 2 -17 -1 -32z m1171 30 c-3 -3 -12 -4 -19 -1 -8 3 -5 6 6 6 11
1 17 -2 13 -5z m379 -9 c-8 -8 -19 -15 -25 -15 -6 0 -8 7 -5 15 4 8 15 15 26
15 17 0 18 -2 4 -15z m-51 -45 c-3 -5 -24 -10 -46 -10 -28 0 -39 -4 -37 -12 6
-17 71 -20 131 -5 44 10 49 9 70 -11 l22 -23 -42 7 c-32 5 -46 3 -58 -10 -15
-15 -15 -16 4 -16 23 0 37 -16 19 -23 -7 -2 -28 -2 -47 1 -24 4 -32 2 -27 -6
10 -16 -18 -15 -88 3 -40 11 -63 12 -76 5 -10 -5 -27 -10 -37 -9 -16 0 -16 1
2 9 27 12 24 12 -83 15 -72 2 -95 -1 -99 -11 -3 -8 -9 -14 -15 -14 -5 0 -6 5
-3 10 8 13 -25 26 -34 13 -7 -12 -41 -13 -41 -1 0 17 53 24 195 27 22 0 49 1
60 2 11 1 37 2 58 1 20 0 37 4 37 9 0 5 7 9 15 9 8 0 15 5 15 11 0 9 -25 10
-87 7 -62 -4 -79 -3 -58 3 25 8 111 18 238 28 10 0 15 -3 12 -9z m82 4 c-3 -3
-12 -4 -19 -1 -8 3 -5 6 6 6 11 1 17 -2 13 -5z m100 -16 c31 -29 29 -38 -7
-38 -20 0 -33 7 -41 23 -7 12 -17 25 -23 29 -6 4 2 8 18 8 17 0 40 -9 53 -22z
m-467 -18 c0 -13 -11 -13 -30 0 -12 8 -11 10 8 10 12 0 22 -4 22 -10z m-310
-29 c0 -5 9 -13 20 -16 11 -3 20 -10 20 -15 0 -12 -49 13 -55 28 -2 6 0 12 5
12 6 0 10 -4 10 -9z m833 -11 c7 0 6 -4 -3 -10 -17 -11 -157 -14 -146 -3 9 9
105 22 124 17 8 -2 19 -4 25 -4z m-736 -16 c-3 -3 -12 -4 -19 -1 -8 3 -5 6 6
6 11 1 17 -2 13 -5z m787 -18 c-3 -8 -14 -11 -32 -8 l-27 6 25 7 c37 11 40 10
34 -5z m-4 -59 c0 -43 -9 -52 -27 -27 -11 16 -11 23 -1 40 19 29 28 25 28 -13z
m31 -14 c-9 -16 -10 -14 -11 12 0 21 3 26 11 18 8 -8 8 -16 0 -30z m-671 19
c0 -5 8 -9 18 -9 49 1 73 -4 67 -13 -9 -14 -109 -12 -123 2 -8 8 -15 9 -20 3
-16 -22 -112 -10 -112 15 0 6 34 10 85 10 47 0 85 -4 85 -8z m417 -8 c-3 -3
-12 -4 -19 -1 -8 3 -5 6 6 6 11 1 17 -2 13 -5z m-787 -30 c0 -8 -4 -12 -10 -9
-5 3 -10 13 -10 21 0 8 5 12 10 9 6 -3 10 -13 10 -21z m625 6 c4 -6 -15 -10
-49 -10 -30 0 -58 5 -61 10 -4 6 15 10 49 10 30 0 58 -4 61 -10z m-240 -44
c21 -5 26 -4 15 3 -22 15 -8 22 56 26 36 3 49 2 35 -3 -14 -4 -26 -13 -29 -20
-4 -14 60 -9 128 9 19 5 55 9 80 9 36 -1 41 -3 27 -11 -9 -6 -32 -11 -50 -13
-17 -2 -45 -8 -61 -15 -16 -6 -34 -10 -40 -8 -6 2 -24 0 -40 -4 -21 -6 -33 -5
-39 4 -7 9 -10 9 -14 0 -3 -9 -29 -13 -81 -13 -77 0 -91 15 -22 23 26 3 20 4
-20 6 -50 1 -91 14 -80 24 3 2 19 9 35 14 24 8 34 7 50 -7 11 -10 34 -20 50
-24z m400 24 c-3 -5 -19 -10 -36 -10 -16 0 -29 5 -29 10 0 6 16 10 36 10 21 0
33 -4 29 -10z m132 -36 c15 -16 21 -30 15 -36 -5 -5 -14 -3 -22 7 -11 14 -14
14 -24 -1 -11 -14 -16 -13 -45 12 -30 25 -33 26 -27 7 7 -21 4 -22 -85 -25
-51 -2 -103 2 -118 8 -25 10 -23 11 24 18 28 3 83 10 123 15 40 5 76 11 79 15
15 15 58 4 80 -20z m113 1 c0 -14 -4 -25 -10 -25 -8 0 -8 23 -1 48 4 12 11 -3
11 -23z m-2680 0 c0 -8 -9 -24 -20 -35 -11 -11 -23 -34 -26 -49 -4 -16 -14
-31 -23 -34 -9 -3 -24 -8 -33 -12 -16 -6 -18 0 -18 59 0 71 -3 68 70 79 46 8
50 7 50 -8z m1627 -47 c-3 -8 -6 -5 -6 6 -1 11 2 17 5 13 3 -3 4 -12 1 -19z
m598 12 c8 -13 -5 -13 -25 0 -13 8 -13 10 2 10 9 0 20 -4 23 -10z m-200 -20
c3 -5 -1 -10 -10 -10 -9 0 -13 5 -10 10 3 6 8 10 10 10 2 0 7 -4 10 -10z m350
-9 c-6 -6 -25 -6 -45 -1 l-35 8 45 1 c27 1 40 -3 35 -8z m-645 -41 c7 -22 19
-45 27 -51 14 -12 17 -47 5 -66 -8 -13 -85 -25 -107 -16 -24 9 -17 28 10 29
40 3 85 25 85 41 0 11 -6 13 -22 8 -52 -16 -78 -17 -78 -4 0 44 14 88 29 92
33 9 38 6 51 -33z m916 23 c28 -12 34 -18 21 -21 -10 -2 -24 2 -32 8 -7 6 -27
12 -44 12 -17 1 -31 5 -31 10 0 13 45 9 86 -9z m-551 -23 c4 -6 15 -8 24 -5
15 4 18 0 16 -20 -2 -14 1 -23 6 -19 5 3 9 12 9 21 0 12 3 13 15 3 9 -8 31
-10 62 -6 26 4 82 1 123 -4 41 -6 90 -11 109 -10 18 0 39 -5 47 -10 7 -7 33
-9 65 -5 62 7 70 11 62 30 -3 10 2 15 16 15 18 0 20 -4 15 -27 -4 -16 -7 -32
-8 -38 -1 -12 -36 -29 -55 -26 -8 1 -10 -2 -6 -10 6 -8 -11 -10 -65 -7 -54 3
-74 8 -81 21 -8 13 -23 17 -62 16 l-52 -1 40 -12 c22 -7 47 -11 55 -9 9 3 7 0
-4 -7 -13 -9 -24 -9 -43 -1 -13 6 -33 11 -43 11 -13 0 -18 5 -14 15 7 17 12
16 -111 16 -65 0 -97 4 -114 16 -17 11 -20 17 -11 23 9 5 6 12 -11 24 -18 12
-20 16 -7 16 9 0 20 -5 23 -10z m283 3 c-10 -2 -26 -2 -35 0 -10 3 -2 5 17 5
19 0 27 -2 18 -5z m327 -22 c3 -5 1 -12 -5 -16 -5 -3 -10 1 -10 9 0 18 6 21
15 7z m-2775 -45 c0 -8 -4 -18 -10 -21 -5 -3 -9 -20 -7 -38 1 -23 -3 -32 -15
-35 -16 -3 -18 4 -18 52 0 53 1 56 25 56 15 0 25 -6 25 -14z m1897 -78 c-3 -8
-6 -5 -6 6 -1 11 2 17 5 13 3 -3 4 -12 1 -19z m-2038 -80 c-1 -64 -2 -68 -8
-30 -7 40 -4 102 5 102 2 0 3 -33 3 -72z m1975 15 c-3 -27 -7 -49 -8 -51 -8
-7 -87 -9 -92 -1 -3 5 -17 6 -30 3 -25 -6 -25 -5 -18 32 9 54 12 57 48 52 17
-3 45 -1 61 3 17 3 34 7 38 8 4 0 5 -20 1 -46z m366 37 c0 -5 -4 -10 -10 -10
-5 0 -10 5 -10 10 0 6 5 10 10 10 6 0 10 -4 10 -10z m403 3 c-13 -2 -33 -2
-45 0 -13 2 -3 4 22 4 25 0 35 -2 23 -4z m-566 -45 c15 -3 15 -5 -1 -20 -38
-38 -58 -15 -33 39 11 25 12 26 15 6 2 -12 11 -23 19 -25z m-2052 -28 c0 -48
-3 -55 -20 -58 -19 -3 -21 2 -20 40 3 76 4 80 23 76 14 -3 17 -14 17 -58z
m2710 -20 c6 -1 -6 -6 -25 -11 -37 -9 -74 -3 -65 10 4 7 63 8 90 1z m-105 -4
c0 -11 -19 -15 -25 -6 -3 5 1 10 9 10 9 0 16 -2 16 -4z m-560 -16 c20 -13 18
-362 -3 -468 -12 -59 -12 -78 -3 -97 13 -26 12 -131 -2 -149 -5 -6 -9 -31 -9
-56 -1 -25 -6 -110 -12 -190 -7 -80 -15 -179 -18 -220 -3 -41 -9 -76 -14 -78
-5 -2 -9 -17 -9 -33 0 -32 -6 -36 -29 -15 -13 12 -15 31 -13 95 3 76 5 81 26
81 22 0 23 3 34 188 19 287 26 486 26 729 1 123 3 223 6 223 3 0 12 -4 20 -10z
m198 -29 c10 -6 6 -10 -15 -14 -31 -6 -46 0 -38 14 8 11 36 12 53 0z m52 -1
c0 -5 -5 -10 -11 -10 -5 0 -7 5 -4 10 3 6 8 10 11 10 2 0 4 -4 4 -10z m-512
-13 c-20 -16 -8 -40 15 -31 20 7 22 -20 7 -101 -6 -27 -12 -72 -14 -100 -16
-204 -29 -304 -52 -386 -14 -52 -29 -128 -32 -169 -8 -85 -20 -114 -45 -104
-13 4 -14 10 -7 24 6 10 9 29 9 42 -1 13 4 55 10 93 6 39 14 104 17 145 3 41
10 102 15 135 10 58 23 190 37 363 5 57 12 86 22 92 22 14 38 11 18 -3z m943
-20 c-13 -13 -26 -3 -16 12 3 6 11 8 17 5 6 -4 6 -10 -1 -17z m-2728 -29 c10
-72 0 -383 -12 -406 -15 -28 -14 -52 3 -52 8 0 24 20 36 46 12 25 25 43 27 40
9 -9 -8 -97 -17 -91 -5 3 -11 1 -15 -5 -3 -5 -19 -10 -36 -10 l-29 0 0 73 c1
39 4 90 8 112 5 22 5 105 2 183 -3 79 -3 146 -1 148 15 15 29 -2 34 -38z
m2277 -253 c0 -8 -4 -15 -10 -15 -5 0 -7 7 -4 15 4 8 8 15 10 15 2 0 4 -7 4
-15z m62 -90 c-2 -14 -6 -25 -8 -25 -2 0 -4 11 -4 25 0 14 4 25 9 25 4 0 6
-11 3 -25z m205 3 c-3 -8 -6 -5 -6 6 -1 11 2 17 5 13 3 -3 4 -12 1 -19z m-280
-40 c-3 -8 -6 -5 -6 6 -1 11 2 17 5 13 3 -3 4 -12 1 -19z m-2450 -20 c-3 -7
-5 -2 -5 12 0 14 2 19 5 13 2 -7 2 -19 0 -25z m2743 -2 c0 -3 -4 -8 -10 -11
-5 -3 -10 -1 -10 4 0 6 5 11 10 11 6 0 10 -2 10 -4z m-293 -58 c-3 -8 -6 -5
-6 6 -1 11 2 17 5 13 3 -3 4 -12 1 -19z m274 -70 c-3 -21 -6 -26 -9 -15 -3 17
3 47 11 47 2 0 1 -15 -2 -32z m206 0 c-3 -8 -6 -5 -6 6 -1 11 2 17 5 13 3 -3
4 -12 1 -19z m-490 -50 c-2 -13 -4 -3 -4 22 0 25 2 35 4 23 2 -13 2 -33 0 -45z
m-285 -11 c-9 -18 -21 9 -15 33 l7 25 6 -25 c4 -14 5 -29 2 -33z m425 21 c-3
-7 -5 -2 -5 12 0 14 2 19 5 13 2 -7 2 -19 0 -25z m151 -17 c-15 -24 -28 -27
-28 -6 0 13 31 38 38 30 2 -2 -3 -12 -10 -24z m-873 -3 c-12 -38 -25 -44 -22
-10 1 19 8 32 15 32 9 0 11 -7 7 -22z m669 6 c3 -8 2 -12 -4 -9 -6 3 -10 10
-10 16 0 14 7 11 14 -7z m336 -5 c0 -24 -23 -21 -28 4 -2 10 3 17 12 17 10 0
16 -9 16 -21z m-242 -24 c-2 -12 -6 -11 -16 6 -8 11 -9 18 -3 14 6 -3 11 0 12
7 0 10 2 10 6 1 2 -7 3 -20 1 -28z m-39 3 c-1 -13 -5 -34 -9 -48 -7 -20 -8
-16 -9 23 -1 26 4 47 9 47 6 0 10 -10 9 -22z m199 9 c6 -5 12 -20 11 -35 l-1
-27 -12 29 c-12 25 -14 26 -21 10 -13 -30 -13 -66 0 -119 15 -59 19 -122 8
-128 -5 -3 -18 -1 -31 4 -22 8 -22 12 -16 88 5 56 3 89 -6 111 -10 23 -10 34
-1 43 8 8 11 4 12 -18 1 -26 2 -24 10 12 9 40 20 46 47 30z m159 -9 c-3 -8 -6
-5 -6 6 -1 11 2 17 5 13 3 -3 4 -12 1 -19z m-765 -28 c-5 -35 -22 -30 -22 6 0
13 6 24 13 24 9 0 12 -10 9 -30z m339 -3 c-8 -8 -11 -7 -11 4 0 20 13 34 18
19 3 -7 -1 -17 -7 -23z m-84 1 c-3 -8 -6 -5 -6 6 -1 11 2 17 5 13 3 -3 4 -12
1 -19z m420 0 c-3 -8 -6 -5 -6 6 -1 11 2 17 5 13 3 -3 4 -12 1 -19z m90 -20
c-3 -8 -6 -5 -6 6 -1 11 2 17 5 13 3 -3 4 -12 1 -19z m-256 -19 c-5 -13 -10
-19 -10 -12 -1 15 10 45 15 40 3 -2 0 -15 -5 -28z m-734 -64 c-1 -47 -5 -85
-9 -85 -18 0 -26 38 -17 85 21 112 30 112 26 0z m913 -64 c-17 -60 -30 -72
-30 -27 0 23 7 47 17 58 13 14 14 21 5 30 -13 13 -16 61 -4 72 13 13 23 -94
12 -133z m-346 105 c-6 -16 -34 -30 -34 -18 0 10 22 32 32 32 4 0 5 -6 2 -14z
m123 -48 c-2 -13 -4 -3 -4 22 0 25 2 35 4 23 2 -13 2 -33 0 -45z m-70 30 c-3
-8 -6 -5 -6 6 -1 11 2 17 5 13 3 -3 4 -12 1 -19z m-2270 -4 c-3 -3 -12 -4 -19
-1 -8 3 -5 6 6 6 11 1 17 -2 13 -5z m1520 -49 c-13 -55 -27 -58 -27 -6 0 29 5
41 18 44 9 3 18 5 18 6 1 0 -3 -19 -9 -44z m790 -22 c-2 -16 -4 -5 -4 22 0 28
2 40 4 28 2 -13 2 -35 0 -50z m73 48 c0 -11 -4 -23 -10 -26 -6 -4 -10 5 -10
19 0 14 5 26 10 26 6 0 10 -9 10 -19z m217 -3 c-3 -8 -6 -5 -6 6 -1 11 2 17 5
13 3 -3 4 -12 1 -19z m-377 -42 c0 -38 -26 -74 -42 -58 -6 6 -7 28 -3 51 5 31
11 41 26 41 15 0 19 -7 19 -34z m-90 -17 c0 -11 -4 -17 -10 -14 -5 3 -10 13
-10 21 0 8 5 14 10 14 6 0 10 -9 10 -21z m240 -39 c-4 -8 -11 -34 -15 -58 -11
-67 -17 -42 -9 37 6 61 8 69 19 54 8 -10 10 -24 5 -33z m234 -10 c-9 -51 -28
-65 -20 -15 3 22 6 49 6 60 0 17 2 17 10 5 5 -8 7 -31 4 -50z m-508 13 c-11
-11 -19 6 -11 24 8 17 8 17 12 0 3 -10 2 -21 -1 -24z m-562 -41 c-4 -18 -10
-29 -15 -27 -4 3 -3 19 3 36 13 38 20 32 12 -9z m1163 6 c-3 -8 -6 -5 -6 6 -1
11 2 17 5 13 3 -3 4 -12 1 -19z m-1827 8 c0 -11 -19 -15 -25 -6 -3 5 1 10 9
10 9 0 16 -2 16 -4z m776 -113 c-7 -7 -74 16 -81 28 -10 15 26 65 54 75 26 9
26 9 29 -44 2 -30 1 -56 -2 -59z m501 95 c-3 -8 -6 -5 -6 6 -1 11 2 17 5 13 3
-3 4 -12 1 -19z m61 -33 c-2 -32 -7 -39 -25 -40 -20 -1 -23 3 -23 33 0 22 7
40 18 48 24 18 34 4 30 -41z m-1531 39 c-3 -3 -12 -4 -19 -1 -8 3 -5 6 6 6 11
1 17 -2 13 -5z m243 2 c0 -2 -7 -7 -16 -10 -8 -3 -12 -2 -9 4 6 10 25 14 25 6z
m1174 -14 c-1 -7 -2 -26 -2 -43 -3 -45 -22 -25 -22 22 0 28 4 39 13 37 6 -3
12 -10 11 -16z m321 -29 c-7 -30 1 -29 30 5 13 15 25 22 25 15 0 -6 -7 -19
-16 -28 -9 -8 -14 -22 -11 -29 3 -8 3 -17 0 -20 -9 -9 -43 35 -43 55 0 9 -3
26 -7 36 -6 16 -5 16 11 4 11 -10 15 -22 11 -38z m129 -1 c-4 -18 -11 -32 -16
-32 -5 0 -7 -4 -3 -9 3 -5 0 -13 -6 -17 -13 -8 -3 51 14 78 15 23 18 17 11
-20z m-299 -32 c-4 -28 -9 -49 -12 -46 -3 2 -2 28 2 56 4 28 9 49 12 46 3 -2
2 -28 -2 -56z m-2237 40 c66 0 68 -2 51 -47 -10 -26 -12 -27 -23 -10 -16 20
-54 23 -62 4 -4 -11 -28 -13 -102 -12 -134 3 -125 1 -117 32 10 41 22 45 110
39 44 -3 108 -6 143 -6z m2127 -76 c-3 -30 -10 -54 -14 -54 -4 0 -5 16 -3 36
4 29 2 35 -9 30 -8 -4 -6 -1 4 7 9 8 18 27 18 43 1 19 3 23 6 10 3 -10 2 -43
-2 -72z m-1952 62 c26 -20 20 -36 -14 -36 -29 0 -58 21 -59 43 0 12 54 7 73
-7z m2398 -47 c-9 -22 -10 -22 -10 -3 -1 11 2 24 6 27 12 12 14 0 4 -24z
m-242 -26 c0 -16 -3 -22 -6 -13 -3 8 -10 21 -16 28 -7 8 -5 12 7 12 11 0 16
-8 15 -27z m272 -30 c2 -43 -2 -55 -26 -79 -16 -16 -23 -22 -17 -13 7 9 10 23
7 32 -6 14 24 122 31 114 2 -2 4 -26 5 -54z m-413 22 c0 -14 -4 -25 -8 -25 -4
0 -6 -24 -4 -52 1 -29 0 -41 -2 -26 -3 14 -12 32 -20 38 -26 23 -15 90 16 90
12 0 18 -8 18 -25z m89 -7 c-3 -7 -5 -2 -5 12 0 14 2 19 5 13 2 -7 2 -19 0
-25z m123 2 c0 -24 -20 -37 -21 -13 0 10 -6 2 -13 -16 -9 -26 -15 -31 -21 -21
-5 9 -4 15 3 18 7 2 12 11 12 21 0 20 20 42 32 35 4 -3 8 -14 8 -24z m-310 -2
c0 -45 -21 -153 -31 -159 -5 -3 -7 -14 -3 -24 5 -12 4 -16 -4 -11 -7 4 -13
-10 -17 -41 -11 -83 -15 -71 -11 32 6 111 23 206 40 217 19 13 26 9 26 -14z
m400 -9 c-17 -31 -30 -32 -30 -1 0 25 3 29 20 25 15 -4 17 -9 10 -24z m-1588
-39 l33 -29 -30 -1 c-64 -1 -185 23 -185 37 0 9 15 13 49 13 48 0 75 -13 49
-23 -8 -4 -7 -6 3 -6 9 -1 19 8 22 19 7 27 21 25 59 -10z m236 14 c42 -8 22
-24 -32 -24 -29 0 -75 -3 -102 -6 -46 -6 -48 -5 -29 9 11 9 16 17 10 17 -5 1
-1 5 10 9 18 7 96 5 143 -5z m1285 -4 c-6 -24 -23 -37 -23 -18 0 12 18 38 26
38 1 0 0 -9 -3 -20z m111 1 c11 -12 14 -21 7 -26 -6 -3 -11 -1 -11 6 0 7 -11
-3 -23 -22 -13 -19 -29 -33 -35 -31 -7 1 -12 -5 -12 -13 0 -9 -9 -26 -21 -38
-12 -12 -41 -48 -66 -79 -26 -34 -52 -58 -63 -58 -21 0 -36 -16 -20 -22 6 -2
-5 -22 -25 -46 -44 -51 -33 -56 15 -7 19 19 41 35 50 35 9 0 -32 -48 -94 -110
-101 -101 -136 -127 -136 -100 0 6 -9 10 -20 10 -24 0 -25 4 -3 29 19 23 33
19 33 -9 0 -10 5 -22 10 -25 8 -5 9 9 4 42 -5 41 -3 51 15 67 20 18 22 18 39
3 10 -10 24 -17 30 -17 20 0 13 28 -8 35 -11 3 -20 10 -20 14 0 13 69 87 70
74 0 -7 5 -13 11 -13 6 0 8 8 4 19 -6 21 21 61 42 61 7 0 13 7 13 14 0 8 22
39 49 68 27 29 68 77 92 105 24 29 47 53 50 53 3 0 14 -9 23 -19z m-1869 1
c-6 -5 -35 -16 -65 -24 -30 -9 -63 -19 -72 -23 -14 -5 -18 -2 -18 12 0 16 11
21 63 30 85 14 103 15 92 5z m-204 -45 c-6 -6 -34 -11 -63 -11 -29 -1 -55 -4
-58 -8 -3 -3 -39 -11 -80 -16 -41 -6 -95 -15 -120 -21 -25 -6 -106 -13 -180
-16 -74 -3 -152 -8 -172 -10 -36 -5 -37 -4 -44 30 -10 54 -1 65 53 66 26 0 66
2 88 5 28 3 35 1 24 -5 -8 -6 -37 -12 -64 -16 -53 -6 -60 -9 -52 -22 9 -14
147 9 147 23 0 23 19 25 40 4 11 -11 31 -20 44 -20 16 0 26 -7 29 -21 8 -30
27 -13 27 24 0 18 4 27 8 20 4 -6 23 -14 43 -18 28 -5 38 -3 42 9 9 22 85 22
93 1 8 -20 23 -19 46 2 11 10 44 19 86 22 66 6 85 0 63 -22z m1650 -4 c-9 -16
-10 -14 -11 12 0 21 3 26 11 18 8 -8 8 -16 0 -30z m202 7 c-3 -11 -10 -23 -16
-27 -5 -3 -8 -2 -5 3 3 5 8 17 11 27 9 24 16 22 10 -3z m-2153 0 c0 -5 -4 -10
-10 -10 -5 0 -10 5 -10 10 0 6 5 10 10 10 6 0 10 -4 10 -10z m443 -7 c-7 -2
-19 -2 -25 0 -7 3 -2 5 12 5 14 0 19 -2 13 -5z m552 -13 c27 -7 25 -8 -17 -9
-27 0 -48 4 -48 9 0 11 21 11 65 0z m1082 -22 c-3 -7 -5 -2 -5 12 0 14 2 19 5
13 2 -7 2 -19 0 -25z m284 -31 c-13 -13 -14 5 -3 43 l7 25 3 -29 c2 -16 -1
-33 -7 -39z m-165 18 c-3 -9 -12 -12 -21 -9 -14 6 -14 9 2 26 18 20 30 10 19
-17z m-260 -43 c-11 -10 -14 3 -7 38 l6 35 3 -33 c2 -19 1 -36 -2 -40z m510
52 c-3 -9 -6 -20 -6 -25 0 -5 -6 -9 -13 -9 -8 0 -19 -22 -27 -55 -10 -42 -18
-55 -31 -55 -16 0 -17 4 -8 27 6 15 15 33 21 40 5 7 8 18 5 25 -2 7 7 25 21
41 28 30 47 36 38 11z m-441 -14 c3 -11 3 -30 -1 -42 -10 -33 -43 -78 -57 -78
-8 0 -8 3 1 9 8 4 13 19 12 32 -6 69 0 99 19 99 11 0 23 -9 26 -20z m105 -9
c0 -11 -4 -23 -10 -26 -6 -4 -10 5 -10 19 0 14 5 26 10 26 6 0 10 -9 10 -19z
m57 -22 c9 -9 8 -15 -2 -25 -18 -19 -20 -18 -23 11 -2 27 7 32 25 14z m149
-25 c-4 -10 -12 -14 -22 -10 -13 5 -15 2 -11 -14 3 -11 1 -20 -4 -20 -18 0 -9
39 13 54 25 18 33 14 24 -10z m-2618 -5 c-2 -6 -27 -19 -56 -28 l-52 -18 0 23
c0 17 7 24 28 27 55 8 84 7 80 -4z m807 -9 c-3 -5 0 -10 8 -10 8 0 17 -9 20
-20 4 -16 0 -20 -18 -20 -12 0 -43 -3 -69 -6 -46 -7 -46 -7 -45 22 0 16 3 23
6 17 7 -18 60 -16 66 1 3 8 1 17 -6 20 -7 2 1 5 16 5 16 1 26 -3 22 -9z m245
-21 c0 -15 6 -30 13 -33 6 -3 -26 -4 -73 -1 -47 2 -90 5 -96 5 -11 0 -36 45
-29 52 2 1 44 3 94 4 l91 1 0 -28z m248 5 c3 -18 -4 -22 -44 -28 -26 -3 -71
-6 -101 -6 -51 0 -54 2 -51 23 2 13 -2 21 -9 20 -7 -2 -13 1 -13 6 0 5 48 8
108 7 101 -1 107 -2 110 -22z m1046 -9 c-17 -27 -63 -59 -71 -51 -11 11 7 36
27 36 12 0 25 10 32 25 6 13 15 22 19 19 5 -3 2 -16 -7 -29z m60 20 c-4 -8 -1
-22 5 -29 9 -11 9 -16 -1 -23 -7 -4 -26 -24 -42 -43 -65 -80 -117 -129 -131
-124 -8 4 -15 1 -15 -5 0 -6 5 -11 11 -11 27 0 -14 -28 -46 -32 -45 -5 -47 17
-2 27 31 8 31 8 6 12 -27 4 -26 5 22 50 39 37 52 43 63 34 17 -14 29 0 20 24
-5 12 11 34 52 76 32 32 59 59 61 59 1 0 0 -7 -3 -15z m-1774 -8 c34 -17 39
-47 8 -48 -13 0 -32 -2 -43 -5 -11 -2 -44 -7 -73 -10 l-53 -5 3 28 c2 16 -3
33 -12 40 -21 17 136 17 170 0z m2013 -7 c-3 -11 -9 -17 -14 -15 -10 7 -1 35
11 35 5 0 6 -9 3 -20z m-2510 -20 c3 -12 14 -20 27 -20 17 0 20 4 15 20 -6 17
-2 20 29 20 20 0 36 -4 36 -10 0 -14 40 -13 97 3 37 10 47 10 50 0 3 -7 13
-13 23 -13 18 0 47 -36 37 -46 -2 -3 -35 -4 -73 -3 -38 1 -85 1 -104 0 -82 -1
-160 11 -160 25 0 16 -16 19 -25 4 -3 -5 -19 -10 -34 -10 -16 0 -34 -7 -41
-15 -17 -20 -33 -19 -55 5 -17 19 -17 20 11 32 16 6 56 15 89 18 33 4 63 8 66
8 4 1 9 -7 12 -18z m2427 -3 c0 -17 -68 -83 -76 -74 -10 9 46 87 62 87 8 0 14
-6 14 -13z m24 -29 c-4 -7 -9 -19 -10 -28 -8 -62 -46 -125 -121 -202 -123
-127 -140 -140 -163 -128 -12 7 -20 7 -20 1 0 -5 -8 -11 -17 -14 -15 -3 -14
-6 6 -14 l24 -10 -36 -27 c-38 -29 -51 -55 -19 -37 22 13 151 126 225 199 47
46 57 52 52 32 -19 -66 -91 -148 -119 -137 -9 4 -16 1 -16 -4 0 -18 -59 -80
-65 -69 -11 18 -26 10 -23 -12 2 -19 10 -23 38 -24 19 -1 50 7 68 18 47 29 61
17 16 -14 -35 -24 -72 -32 -129 -29 -15 1 -17 3 -6 10 9 6 10 11 2 15 -6 4
-14 0 -17 -8 -4 -11 -19 -16 -48 -15 -22 0 -35 3 -28 6 17 7 15 23 -3 23 -8 0
-15 7 -15 15 0 8 -7 15 -15 15 -25 0 2 34 52 66 24 15 43 33 43 40 0 17 17 18
22 2 2 -6 10 -8 16 -4 7 4 10 16 7 25 -5 16 0 18 46 13 43 -4 51 -2 47 10 -4
9 4 19 23 27 30 13 37 39 22 78 -6 14 -9 10 -13 -17 -4 -29 -9 -35 -28 -33
-16 2 -22 -2 -22 -17 0 -13 -5 -18 -15 -14 -8 4 -15 1 -15 -5 0 -6 -8 -11 -17
-11 -11 0 11 28 60 77 69 68 80 76 97 65 26 -16 40 -15 40 2 0 7 -10 16 -22
19 -19 5 -16 11 38 70 54 59 78 77 58 45z m46 4 c0 -13 -12 -22 -22 -16 -10 6
-1 24 13 24 5 0 9 -4 9 -8z m-420 -17 c0 -8 -4 -15 -10 -15 -5 0 -7 7 -4 15 4
8 8 15 10 15 2 0 4 -7 4 -15z m445 -4 c3 -5 1 -12 -5 -16 -5 -3 -10 1 -10 9 0
18 6 21 15 7z m-395 -10 c0 -12 -120 -131 -132 -131 -13 0 -9 9 15 35 12 13
37 42 56 64 31 38 61 53 61 32z m477 -38 c-3 -10 -5 -2 -5 17 0 19 2 27 5 18
2 -10 2 -26 0 -35z m-76 -6 c-6 -6 -11 -19 -11 -29 0 -11 -10 -29 -21 -41
l-22 -22 7 30 c10 40 49 102 54 86 2 -7 -1 -18 -7 -24z m-51 4 c0 -5 -7 -14
-15 -21 -16 -14 -18 -10 -9 14 6 17 24 22 24 7z m-2684 -66 c10 -8 14 -15 7
-15 -19 0 -43 11 -43 21 0 13 14 11 36 -6z m2660 -21 c-4 -9 -9 -15 -11 -12
-3 3 -3 13 1 22 4 9 9 15 11 12 3 -3 3 -13 -1 -22z m150 -39 c-4 -18 -14 -36
-23 -39 -24 -9 -27 0 -9 26 9 12 16 32 16 44 0 11 3 24 8 28 10 11 15 -21 8
-59z m-180 -17 c-6 -10 -14 -18 -18 -18 -10 0 -10 1 4 40 10 29 12 31 18 14 4
-10 2 -27 -4 -36z m-567 16 c33 -7 33 -24 -1 -24 -14 0 -18 -5 -14 -15 13 -35
-87 -47 -108 -12 -8 13 -8 20 4 27 8 5 19 6 25 2 6 -4 3 -8 -7 -10 -10 -2 -18
-8 -18 -14 0 -6 10 -8 23 -4 12 3 33 6 47 6 24 1 24 1 5 12 -28 15 -28 15 -20
27 7 13 20 13 64 5z m-184 -46 c-63 -8 -110 -10 -103 -3 8 9 122 22 138 16 8
-3 -7 -9 -35 -13z m378 1 c-12 -13 -28 -19 -37 -16 -27 10 -18 25 17 30 17 2
34 5 37 5 2 1 -5 -8 -17 -19z m-133 1 c0 -5 -4 -10 -10 -10 -5 0 -10 5 -10 10
0 6 5 10 10 10 6 0 10 -4 10 -10z m-537 -16 c-5 -12 -2 -15 13 -11 10 3 33 9
49 12 28 5 28 5 8 -6 -27 -14 -29 -25 -7 -33 8 -3 13 -2 10 3 -11 17 81 21
113 5 34 -17 63 -13 59 8 -2 8 10 14 31 16 21 2 31 0 26 -7 -4 -7 6 -12 27
-12 60 -3 66 -4 72 -10 3 -3 -14 -21 -39 -39 -25 -19 -45 -39 -45 -44 0 -7 -3
-7 -8 0 -4 8 -21 9 -47 5 -38 -7 -39 -7 -12 -14 32 -9 35 -22 8 -37 -26 -13
-31 -13 -31 4 0 18 -40 28 -57 14 -17 -14 -45 18 -39 43 3 14 -5 17 -43 17
-25 0 -54 3 -63 7 -13 5 -18 2 -18 -11 0 -17 -2 -16 -15 3 -8 12 -23 20 -32
18 -10 -2 -24 -4 -32 -4 -10 -1 -11 -4 -2 -15 9 -11 7 -15 -10 -19 -17 -5 -20
-2 -16 14 4 14 1 19 -7 16 -7 -3 -38 -8 -69 -12 -76 -10 -76 10 1 24 132 26
142 30 60 26 -89 -4 -118 1 -118 22 0 13 12 15 73 9 101 -8 116 -11 127 -22
12 -12 70 -6 70 6 0 5 -13 5 -30 0 -35 -10 -47 2 -24 24 20 20 25 20 17 0z
m592 6 c4 -6 -5 -10 -20 -10 -15 0 -24 4 -20 10 3 6 12 10 20 10 8 0 17 -4 20
-10z m-103 -42 c-17 -17 -24 -20 -34 -10 -14 14 -3 28 27 34 30 6 31 0 7 -24z
m708 29 c0 -2 -7 -18 -16 -35 -16 -32 -55 -44 -69 -22 -4 6 -11 8 -16 5 -5 -4
-9 1 -9 9 0 25 18 28 34 5 l15 -22 18 31 c10 18 24 32 31 32 6 0 12 -2 12 -3z
m-609 -27 c24 0 38 -4 34 -10 -3 -5 -19 -10 -36 -10 -19 0 -29 -5 -29 -15 0
-8 5 -15 10 -15 6 0 10 -5 10 -10 0 -7 -6 -7 -19 0 -15 7 -25 5 -43 -10 l-23
-19 28 -1 28 0 -21 -30 c-12 -17 -18 -30 -13 -30 5 0 15 9 23 20 8 11 18 20
22 20 13 0 9 -18 -8 -34 -8 -9 -12 -16 -8 -16 3 0 1 -7 -6 -15 -10 -12 -10
-15 3 -15 9 0 19 5 22 10 3 6 14 10 23 10 13 0 12 -5 -8 -20 -32 -25 -146 -26
-160 -1 -8 15 -10 15 -22 -1 -10 -12 -34 -17 -98 -20 -47 -3 -91 -6 -99 -9 -7
-2 -15 1 -18 8 -10 28 126 69 142 43 10 -15 45 -12 45 5 0 19 -42 43 -48 26
-2 -6 -15 -11 -29 -11 -21 0 -24 2 -13 15 7 8 17 15 22 15 5 0 27 18 50 41 24
24 47 38 55 35 8 -4 19 -6 25 -6 6 0 6 -6 -2 -15 -7 -8 -15 -13 -19 -11 -3 2
-14 -7 -24 -20 -18 -25 -18 -25 6 -19 14 4 35 2 46 -5 30 -16 46 -3 25 21 -14
16 -15 21 -3 36 35 47 65 73 77 68 7 -3 32 -5 53 -5z m142 1 c17 -3 5 -21 -14
-21 -11 0 -18 -4 -15 -9 3 -5 -16 -28 -44 -51 -43 -36 -52 -40 -70 -30 -21 11
-21 12 -4 31 9 10 24 19 32 19 8 0 12 6 9 15 -12 29 50 56 106 46z m279 -33
c-6 -6 -15 -8 -19 -4 -4 4 -1 11 7 16 19 12 27 3 12 -12z m40 -10 c-7 -7 -12
-8 -12 -2 0 14 12 26 19 19 2 -3 -1 -11 -7 -17z m-1324 -7 c18 -11 -18 -21
-77 -21 -67 0 -49 8 59 29 3 0 11 -3 18 -8z m-663 -12 c10 -15 -1 -23 -20 -15
-9 3 -13 10 -10 16 8 13 22 13 30 -1z m115 1 c0 -5 -16 -10 -36 -10 -21 0 -33
4 -29 10 3 6 19 10 36 10 16 0 29 -4 29 -10z m-212 -12 c10 -10 15 -10 22 2 5
8 12 11 16 7 4 -4 3 -12 -3 -18 -14 -14 -95 -7 -101 9 -5 16 50 16 66 0z m529
6 c-3 -3 -12 -4 -19 -1 -8 3 -5 6 6 6 11 1 17 -2 13 -5z m1593 -13 c0 -21 -26
-36 -35 -21 -6 10 14 39 28 40 4 0 7 -9 7 -19z m-1052 -32 c2 -4 18 -5 36 -2
25 4 35 1 40 -12 6 -15 1 -17 -31 -12 -21 2 -63 2 -93 -2 -44 -5 -54 -9 -52
-23 2 -12 -3 -15 -18 -11 -12 3 -18 8 -16 11 8 8 -26 31 -46 32 -26 0 -22 -15
10 -40 22 -18 36 -21 75 -16 27 3 47 1 47 -4 0 -6 -4 -10 -8 -10 -5 0 -14 -10
-20 -22 -8 -18 -11 -19 -11 -5 -1 14 -10 17 -47 17 -29 0 -43 -4 -39 -10 4 -6
15 -10 24 -8 10 2 19 -1 20 -7 4 -14 -62 -6 -71 9 -5 8 -26 10 -70 6 -72 -7
-111 -2 -102 12 10 16 -16 27 -52 21 -38 -6 -84 3 -84 17 0 6 21 10 46 10 35
0 45 3 41 14 -4 11 14 15 81 21 48 4 96 10 107 13 11 3 54 6 97 6 42 1 80 4
84 9 9 8 47 -2 52 -14z m942 2 c0 -5 -7 -11 -15 -15 -9 -3 -15 0 -15 9 0 8 7
15 15 15 8 0 15 -4 15 -9z m-1605 -11 c-3 -5 -10 -10 -16 -10 -5 0 -9 5 -9 10
0 6 7 10 16 10 8 0 12 -4 9 -10z m-915 -10 c0 -5 -7 -10 -15 -10 -8 0 -15 5
-15 10 0 6 7 10 15 10 8 0 15 -4 15 -10z m843 3 c-7 -2 -21 -2 -30 0 -10 3 -4
5 12 5 17 0 24 -2 18 -5z m163 -8 c18 -14 18 -14 -7 -15 -16 0 -26 5 -26 15 0
19 8 19 33 0z m-73 -12 c-7 -2 -19 -2 -25 0 -7 3 -2 5 12 5 14 0 19 -2 13 -5z
m1650 -12 c3 -14 -1 -19 -17 -18 -11 1 -39 -2 -61 -6 -33 -6 -37 -5 -20 4 11
7 22 16 25 19 5 7 32 16 56 19 7 0 14 -7 17 -18z m-905 -4 c11 -13 6 -56 -7
-58 -3 -1 -28 -3 -54 -4 -34 -2 -47 1 -44 10 3 6 -4 17 -14 24 -11 6 -17 16
-14 20 6 11 24 9 44 -3 10 -6 12 -5 7 2 -5 8 2 10 24 6 19 -4 30 -2 30 5 0 15
15 14 28 -2z m981 -13 c2 -2 -9 -4 -26 -4 -18 0 -33 6 -36 14 -5 12 0 13 26 4
18 -6 34 -13 36 -14z m-1973 -7 l11 -24 -93 -1 c-84 -2 -95 0 -104 18 -9 17
-8 20 10 20 12 0 19 -4 16 -9 -6 -10 59 -4 109 9 17 5 32 9 35 9 3 0 10 -10
16 -22z m350 6 c0 -5 -22 -7 -48 -5 -27 2 -48 -1 -48 -6 0 -14 -71 -23 -105
-13 -17 5 -28 10 -25 11 11 5 215 26 221 23 4 -1 6 -6 5 -10z m1734 7 c0 -5
-7 -10 -16 -10 -8 0 -12 5 -9 10 3 6 10 10 16 10 5 0 9 -4 9 -10z m-2000 -4
c0 -2 -3 -11 -6 -20 -9 -23 -24 -20 -24 4 0 11 7 20 15 20 8 0 15 -2 15 -4z
m-735 -16 c4 -6 -6 -10 -24 -10 -16 0 -33 5 -36 10 -4 6 6 10 24 10 16 0 33
-4 36 -10z"/>
<path d="M1585 3430 c-4 -6 8 -10 29 -10 19 0 38 5 41 10 4 6 -8 10 -29 10
-19 0 -38 -4 -41 -10z"/>
<path d="M1965 3410 c-3 -5 -1 -10 4 -10 6 0 11 5 11 10 0 6 -2 10 -4 10 -3 0
-8 -4 -11 -10z"/>
<path d="M1617 3390 c-91 -12 -81 -23 13 -15 94 8 153 24 85 23 -22 0 -66 -4
-98 -8z"/>
<path d="M1500 3360 c0 -5 9 -10 21 -10 11 0 17 5 14 10 -3 6 -13 10 -21 10
-8 0 -14 -4 -14 -10z"/>
<path d="M2296 3553 c-12 -12 -6 -23 13 -23 11 0 22 -6 24 -12 4 -9 6 -8 6 2
1 17 -33 43 -43 33z"/>
<path d="M2920 3551 c0 -5 6 -14 14 -20 12 -10 13 -8 9 8 -5 21 -23 30 -23 12z"/>
<path d="M2205 3531 c-16 -3 -25 -9 -20 -13 15 -9 95 2 95 13 0 10 -30 10 -75
0z"/>
<path d="M2370 3456 c0 -2 7 -7 16 -10 8 -3 12 -2 9 4 -6 10 -25 14 -25 6z"/>
<path d="M2635 3449 c-27 -5 -58 -7 -67 -5 -9 2 -19 -1 -21 -8 -3 -8 -10 -8
-26 2 -25 15 -34 15 -26 2 6 -10 -13 -15 -45 -12 -19 2 -70 -18 -70 -28 0 -4
21 -3 48 2 69 13 117 10 100 -7 -6 -6 -70 -14 -167 -20 -40 -2 -76 -7 -80 -11
-3 -3 59 -3 139 0 142 6 146 6 174 -17 l29 -24 -34 -7 c-27 -5 -37 -3 -50 13
-20 24 -33 16 -18 -10 8 -15 21 -19 67 -19 87 0 160 11 166 25 3 9 -4 11 -27
6 -49 -10 -72 -7 -69 9 2 10 0 11 -10 3 -10 -8 -21 -5 -43 13 -26 21 -27 24
-10 24 54 0 195 33 195 45 0 8 -4 16 -9 20 -18 10 -96 13 -146 4z m119 -18 c6
-9 -112 -31 -168 -31 -68 0 -45 18 31 25 43 3 85 8 93 9 29 7 39 6 44 -3z"/>
<path d="M2948 3347 c-2 -14 -10 -21 -21 -21 -9 1 -17 -5 -17 -14 0 -8 3 -13
6 -9 3 3 18 -8 33 -25 15 -17 33 -28 39 -24 11 7 6 36 -6 34 -17 -2 -19 4 -12
36 5 25 4 36 -6 40 -8 3 -14 -4 -16 -17z"/>
<path d="M2814 3343 c3 -4 -6 -12 -21 -19 -26 -11 -26 -12 -5 -13 32 -1 27
-21 -5 -21 -16 0 -35 -5 -43 -11 -11 -8 -1 -9 39 -6 32 3 59 11 65 19 6 8 17
13 25 10 8 -3 11 0 7 7 -4 6 -13 11 -21 11 -7 0 -15 7 -19 15 -3 8 -11 15 -17
15 -7 0 -9 -3 -5 -7z"/>
<path d="M2263 3325 c-15 -17 -9 -21 42 -30 l40 -6 -30 25 c-35 30 -36 30 -52
11z"/>
<path d="M2217 3306 c-3 -8 1 -17 9 -20 22 -9 23 -8 17 14 -6 23 -19 26 -26 6z"/>
<path d="M2060 3303 c1 -20 19 -31 66 -37 40 -5 53 -3 57 8 7 19 -37 30 -63
16 -24 -13 -26 -13 -44 6 -9 8 -16 12 -16 7z"/>
<path d="M2350 3300 c0 -5 5 -10 11 -10 5 0 7 5 4 10 -3 6 -8 10 -11 10 -2 0
-4 -4 -4 -10z"/>
<path d="M2480 3260 c0 -5 9 -10 20 -10 11 0 20 5 20 10 0 6 -9 10 -20 10 -11
0 -20 -4 -20 -10z"/>
<path d="M2545 3260 c4 -6 11 -8 16 -5 14 9 11 15 -7 15 -8 0 -12 -5 -9 -10z"/>
<path d="M2270 3252 c0 -12 34 -42 48 -42 6 0 14 5 18 12 4 7 3 8 -4 4 -6 -4
-20 2 -32 14 -22 22 -30 25 -30 12z"/>
<path d="M2340 3253 c0 -10 124 -123 129 -117 5 5 -111 124 -121 124 -4 0 -8
-3 -8 -7z"/>
<path d="M2170 3240 c-13 -8 -13 -10 2 -10 9 0 20 5 23 10 8 13 -5 13 -25 0z"/>
<path d="M1848 3223 c7 -3 16 -2 19 1 4 3 -2 6 -13 5 -11 0 -14 -3 -6 -6z"/>
<path d="M2050 3194 c0 -11 5 -14 17 -10 9 4 20 1 25 -6 5 -9 8 -6 8 10 0 17
-6 22 -25 22 -16 0 -25 -6 -25 -16z"/>
<path d="M2575 3160 c11 -12 13 -20 6 -20 -7 0 -9 -4 -6 -10 7 -12 55 -14 55
-2 0 13 -15 29 -37 41 -32 16 -38 14 -18 -9z"/>
<path d="M2942 3123 c-10 -4 -10 -8 -1 -19 6 -8 16 -14 22 -14 5 0 16 -8 23
-17 12 -16 12 -15 7 7 -10 43 -23 54 -51 43z"/>
<path d="M335 3520 c3 -5 11 -10 16 -10 6 0 7 5 4 10 -3 6 -11 10 -16 10 -6 0
-7 -4 -4 -10z"/>
<path d="M187 3497 c-4 -10 -2 -28 4 -39 6 -11 8 -29 6 -40 -4 -12 -1 -18 6
-15 13 4 13 23 0 77 -7 28 -10 31 -16 17z"/>
<path d="M788 3474 c-38 -20 -35 -34 7 -34 19 0 35 4 35 9 0 5 3 16 6 25 8 20
-12 20 -48 0z"/>
<path d="M240 3470 c0 -5 5 -10 10 -10 6 0 10 5 10 10 0 6 -4 10 -10 10 -5 0
-10 -4 -10 -10z"/>
<path d="M540 3445 c-11 -13 -9 -15 15 -15 16 0 25 5 23 12 -7 19 -24 20 -38
3z"/>
<path d="M596 3445 c-3 -9 0 -15 9 -15 16 0 20 16 6 24 -5 3 -11 -1 -15 -9z"/>
<path d="M175 3378 c-10 -32 -11 -198 -1 -195 7 2 12 44 12 105 2 96 -1 119
-11 90z"/>
<path d="M231 3361 c-30 -5 -32 -8 -18 -19 13 -11 19 -11 36 0 12 7 21 16 21
20 0 5 -1 7 -2 7 -2 -1 -18 -4 -37 -8z"/>
<path d="M300 3340 c0 -5 12 -10 26 -10 14 0 23 4 19 10 -3 6 -15 10 -26 10
-10 0 -19 -4 -19 -10z"/>
<path d="M770 3330 c-12 -8 -10 -10 8 -10 13 0 20 4 17 10 -7 12 -6 12 -25 0z"/>
<path d="M850 3330 c0 -5 5 -10 11 -10 5 0 7 5 4 10 -3 6 -8 10 -11 10 -2 0
-4 -4 -4 -10z"/>
<path d="M237 3286 c-6 -15 1 -26 15 -26 11 0 10 27 -1 34 -5 3 -11 0 -14 -8z"/>
<path d="M265 3230 c-11 -4 -24 -5 -29 -2 -5 2 -6 -1 -4 -9 5 -15 66 -14 81 0
12 12 -24 19 -48 11z"/>
<path d="M697 3074 c-2 -3 -31 -6 -63 -7 -59 -2 -59 -2 -65 -37 -4 -19 -13
-49 -20 -67 -10 -25 -11 -63 -2 -185 6 -84 7 -158 2 -163 -4 -6 -4 -16 0 -24
13 -20 14 -338 1 -346 -7 -4 -7 -12 1 -26 13 -25 6 -210 -21 -553 -11 -137
-20 -258 -20 -268 0 -18 5 -19 51 -13 28 4 68 8 88 9 50 3 59 10 65 59 10 76
28 428 31 602 5 333 5 887 0 895 -3 4 2 10 10 14 20 7 19 41 -2 76 -15 26 -46
44 -56 34z m-7 -103 c15 -79 14 -81 -20 -74 -19 3 -30 1 -30 -6 0 -6 -11 -11
-24 -11 -33 0 -40 34 -18 88 13 33 21 42 36 38 12 -3 20 2 23 15 8 30 21 10
33 -50z m20 -263 l0 -93 -57 1 -58 1 -3 91 -3 92 61 0 60 0 0 -92z m-84 -142
c-9 -14 -16 -34 -16 -46 0 -11 -5 -20 -11 -20 -7 0 -9 9 -5 23 3 12 6 32 6 44
0 12 7 23 18 25 25 6 27 1 8 -26z m54 -1096 c0 -18 -26 -35 -34 -22 -2 4 0 17
5 30 10 26 29 21 29 -8z"/>
<path d="M459 3058 c0 -7 -2 -22 -4 -33 -18 -101 -26 -397 -12 -411 10 -10 19
63 15 108 -5 43 6 224 18 306 4 28 3 42 -5 42 -6 0 -11 -6 -12 -12z"/>
<path d="M912 3048 c-19 -19 -14 -56 9 -69 20 -10 21 -9 17 9 -7 25 4 30 63
24 l46 -4 -5 -51 c-2 -29 -6 -54 -8 -56 -2 -2 -13 4 -25 15 -19 17 -19 19 -3
31 13 10 15 16 7 24 -15 15 -50 2 -63 -22 -15 -28 -40 -24 -40 6 0 18 -5 25
-20 25 -19 0 -19 -7 -19 -166 0 -94 -5 -171 -10 -178 -12 -14 -11 -56 1 -73 5
-6 7 -78 4 -160 -3 -81 -8 -299 -11 -483 -3 -184 -10 -371 -15 -415 -13 -103
-14 -97 13 -93 14 2 26 -4 32 -17 7 -13 23 -21 44 -23 31 -3 48 2 101 28 10 5
16 25 17 66 2 32 8 113 14 179 18 201 21 275 13 293 -4 9 -6 78 -6 152 1 74 4
274 6 444 3 308 3 309 26 326 23 17 23 17 2 31 -16 11 -21 29 -25 82 -3 38 -7
70 -8 71 -2 2 -36 6 -74 10 -50 5 -74 3 -83 -6z m38 -200 c0 -6 -7 -7 -16 -4
-9 3 -18 6 -20 6 -3 0 -3 4 1 10 7 11 35 2 35 -12z m90 -80 c0 -85 -6 -98 -41
-88 -34 10 -55 5 -63 -16 -3 -7 -11 -11 -18 -9 -10 4 -12 24 -8 78 l5 72 35 6
c19 4 47 7 63 8 26 1 27 -1 27 -51z m-133 -720 c-3 -7 -5 -2 -5 12 0 14 2 19
5 13 2 -7 2 -19 0 -25z m5 -181 c0 -58 -4 -112 -9 -120 -5 -10 -7 16 -6 66 1
45 3 102 3 126 0 24 3 42 6 39 3 -3 5 -53 6 -111z m-7 -275 c-11 -44 -17 -15
-8 45 7 54 8 55 11 19 2 -22 1 -50 -3 -64z m105 -152 c0 -11 -4 -20 -10 -20
-5 0 -10 9 -10 20 0 11 5 20 10 20 6 0 10 -9 10 -20z"/>
<path d="M786 2986 c-10 -67 -5 -296 7 -303 7 -4 8 29 5 98 -3 57 -2 132 1
167 8 73 -3 105 -13 38z"/>
<path d="M1402 2968 c-7 -7 -12 -27 -12 -45 0 -23 -5 -33 -15 -33 -23 0 -18
-31 6 -37 16 -4 19 -11 15 -32 -14 -65 -36 -262 -36 -321 0 -44 -5 -73 -16
-88 -11 -16 -13 -27 -6 -35 11 -13 -2 -360 -17 -482 -5 -38 -7 -73 -5 -77 3
-4 0 -25 -5 -45 -6 -21 -11 -118 -13 -216 l-2 -177 26 -30 c14 -17 35 -30 47
-30 11 0 25 -9 31 -20 6 -12 16 -17 26 -13 12 4 15 20 13 72 -3 106 0 131 14
131 10 0 16 26 21 98 8 114 17 195 45 432 26 210 36 316 51 515 7 83 16 174
21 204 5 30 9 63 9 73 0 25 -97 100 -120 93 -31 -10 -33 14 -3 27 l28 12 -24
4 c-14 2 -34 10 -46 18 -16 11 -24 11 -33 2z m154 -151 c4 -4 -7 -7 -25 -7
-19 0 -30 -4 -26 -10 3 -5 -3 -10 -14 -10 -10 0 -26 -3 -35 -6 -11 -4 -16 0
-16 14 0 11 6 22 13 25 17 7 95 2 103 -6z m-13 -124 c-3 -38 -10 -78 -14 -91
-10 -26 -46 -42 -96 -42 -34 0 -35 1 -30 30 4 16 9 59 13 94 7 72 8 72 91 75
l42 1 -6 -67z m-13 -150 c0 -5 -6 -15 -13 -24 -10 -14 -16 -15 -30 -4 -27 20
-25 23 36 34 4 0 7 -2 7 -6z m-123 -55 c-3 -7 -5 -2 -5 12 0 14 2 19 5 13 2
-7 2 -19 0 -25z m23 -1148 c0 -5 -4 -10 -10 -10 -5 0 -7 -8 -4 -17 5 -14 4
-15 -4 -4 -11 15 -5 41 9 41 5 0 9 -4 9 -10z"/>
<path d="M274 2886 c-9 -24 12 -44 28 -28 10 10 8 16 -5 29 -15 15 -17 15 -23
-1z"/>
<path d="M1721 2696 c-10 -12 -14 -46 -30 -246 -6 -74 -16 -178 -22 -230 -5
-52 -12 -124 -15 -160 -2 -36 -9 -98 -14 -138 -6 -40 -10 -94 -10 -120 0 -26
-9 -105 -20 -177 -11 -71 -26 -197 -33 -279 l-14 -149 41 -40 c30 -29 50 -40
73 -41 22 -1 33 -6 33 -16 0 -19 37 -53 49 -45 16 10 23 77 9 87 -10 8 -10 9
2 5 19 -5 42 106 29 140 -8 22 -1 55 46 223 8 30 19 66 25 80 20 52 38 200 24
200 -5 0 -10 -21 -11 -47 -1 -25 -18 -96 -37 -157 -42 -133 -85 -302 -96 -371
l-8 -50 -1 48 c0 27 8 92 18 145 11 53 24 138 30 187 7 50 16 119 21 155 5 36
12 108 15 160 8 126 27 268 65 485 17 93 22 165 16 200 -6 32 -18 45 -126 145
-20 19 -46 21 -59 6z m127 -124 c5 -15 -24 -15 -68 1 -34 11 -35 13 -26 44
l10 32 40 -33 c22 -18 42 -38 44 -44z m-72 -47 c-25 -19 -46 -19 -46 0 0 10
10 15 33 15 30 -1 31 -1 13 -15z m94 -5 c0 -5 -4 -10 -10 -10 -5 0 -10 5 -10
10 0 6 5 10 10 10 6 0 10 -4 10 -10z m-10 -82 c-1 -61 -7 -67 -77 -67 l-64 0
3 37 c3 37 3 37 58 43 30 3 61 6 68 7 6 1 12 -8 12 -20z m-15 -110 c2 -7 1
-29 -3 -48 -6 -26 -14 -36 -30 -38 -18 -3 -22 1 -22 25 0 33 -16 53 -42 53
-10 0 -18 5 -18 10 0 15 110 13 115 -2z m-108 -880 c-3 -8 -6 -5 -6 6 -1 11 2
17 5 13 3 -3 4 -12 1 -19z m-120 -160 c-3 -7 -5 -2 -5 12 0 14 2 19 5 13 2 -7
2 -19 0 -25z m78 -16 c-7 -25 -8 -25 -15 -7 -8 17 -9 16 -9 -8 -1 -16 3 -26 8
-23 5 3 13 -17 18 -44 6 -28 8 -50 5 -50 -3 0 -16 10 -29 22 -31 29 -32 93 -1
131 25 31 34 22 23 -21z m92 -34 c-3 -8 -6 -5 -6 6 -1 11 2 17 5 13 3 -3 4
-12 1 -19z m-10 -55 c-3 -10 -5 -4 -5 12 0 17 2 24 5 18 2 -7 2 -21 0 -30z"/>
<path d="M1257 2473 c-11 -10 -8 -63 3 -63 6 0 10 16 10 35 0 36 -2 40 -13 28z"/>
<path d="M1251 2344 c0 -11 3 -14 6 -6 3 7 2 16 -1 19 -3 4 -6 -2 -5 -13z"/>
<path d="M2270 2331 c0 -5 5 -13 10 -16 6 -3 10 -2 10 4 0 5 -4 13 -10 16 -5
3 -10 2 -10 -4z"/>
<path d="M757 1866 c-3 -18 -6 -113 -7 -210 0 -97 -4 -187 -9 -199 -13 -37 -2
-101 15 -84 8 7 19 527 12 527 -3 0 -8 -15 -11 -34z"/>
<path d="M1209 1605 c-4 -59 -3 -98 4 -102 4 -2 7 16 7 41 0 24 3 51 6 60 3 9
1 16 -5 16 -6 0 -11 -7 -12 -15z"/>
<path d="M2400 1443 c0 -5 5 -15 10 -23 8 -12 10 -11 10 8 0 12 -4 22 -10 22
-5 0 -10 -3 -10 -7z"/>
<path d="M1233 1289 c9 -5 17 -18 17 -27 0 -10 16 -26 38 -37 20 -10 44 -24
52 -30 8 -7 24 -15 35 -18 11 -4 -11 22 -50 58 -39 36 -79 65 -90 65 -18 -1
-19 -1 -2 -11z"/>
<path d="M970 1217 c-80 -18 -133 -33 -118 -35 14 -2 59 4 100 13 40 9 101 21
136 27 34 6 62 15 62 19 0 13 -21 10 -180 -24z"/>
<path d="M1390 1152 c0 -12 19 -26 26 -19 2 2 -2 10 -11 17 -9 8 -15 8 -15 2z"/>
<path d="M1445 1120 c3 -5 11 -10 16 -10 6 0 7 5 4 10 -3 6 -11 10 -16 10 -6
0 -7 -4 -4 -10z"/>
<path d="M1635 971 c-3 -5 5 -11 17 -13 13 -2 23 -8 23 -14 0 -13 30 -44 43
-44 6 0 12 -6 15 -12 2 -7 8 -10 11 -6 4 3 -10 23 -31 43 -47 45 -70 58 -78
46z"/>
<path d="M1793 839 c6 -10 15 -19 20 -19 9 0 31 -17 55 -43 19 -21 89 -57 109
-57 7 0 13 -5 13 -11 0 -5 4 -8 9 -4 5 3 12 -3 16 -14 3 -10 20 -25 37 -32 17
-7 26 -15 19 -17 -17 -6 47 -62 70 -62 8 0 21 -6 29 -12 8 -7 2 1 -14 19 -15
17 -34 29 -41 27 -7 -3 -15 2 -19 12 -4 12 -2 15 9 10 26 -10 16 12 -17 37
-18 14 -53 35 -77 47 -24 12 -72 43 -105 69 -81 63 -136 87 -113 50z"/>
<path d="M2040 770 c0 -5 5 -10 11 -10 5 0 7 5 4 10 -3 6 -8 10 -11 10 -2 0
-4 -4 -4 -10z"/>
<path d="M2005 660 c3 -5 14 -10 23 -10 15 0 15 2 2 10 -20 13 -33 13 -25 0z"/>
<path d="M2177 609 c7 -7 15 -10 18 -7 3 3 -2 9 -12 12 -14 6 -15 5 -6 -5z"/>
<path d="M1526 571 c-8 -12 -150 -24 -321 -26 -159 -2 -344 -17 -435 -35 -30
-6 -107 -13 -170 -15 -187 -5 -250 -19 -250 -53 0 -24 35 -60 63 -67 22 -6
341 20 355 29 4 2 63 7 132 10 69 4 229 13 355 21 127 7 282 14 345 14 128 1
412 17 477 27 30 4 44 12 48 25 16 49 -38 61 -260 61 -82 0 -185 -3 -227 -7
-67 -5 -78 -4 -78 9 0 17 -25 22 -34 7z m327 -56 c4 -8 3 -16 -2 -19 -6 -4
-218 -25 -253 -26 -5 0 -8 9 -8 20 0 30 32 39 151 39 85 1 108 -2 112 -14z
m153 5 c35 -14 31 -16 -43 -23 -57 -5 -63 -3 -63 14 0 15 7 19 39 19 22 0 52
-5 67 -10z m-902 -15 c-8 -19 10 -19 29 -1 8 9 19 11 28 6 11 -7 10 -10 -4
-16 -22 -8 -22 -21 1 -26 9 -2 -17 -7 -58 -12 -41 -4 -83 -9 -92 -12 -10 -3
-18 -1 -18 5 0 6 15 11 33 12 17 0 41 5 52 10 14 6 7 7 -24 3 -31 -4 -46 -2
-52 7 -6 10 1 17 29 26 54 17 83 16 76 -2z m221 5 c11 -1 0 -6 -25 -11 -62
-11 -90 -11 -90 0 0 16 39 20 115 11z m230 0 c3 -5 -1 -10 -9 -10 -9 0 -16 -4
-16 -9 0 -12 -89 -22 -108 -12 -20 11 -13 15 53 30 55 12 73 13 80 1z m-660
-50 c8 0 15 -4 15 -9 0 -10 -53 -20 -113 -20 -21 0 -54 -5 -75 -10 -35 -8 -72
-11 -72 -5 0 2 11 14 24 28 24 26 69 35 81 16 11 -18 35 -11 35 11 0 17 4 20
23 16 12 -4 29 -2 37 3 11 7 17 4 22 -10 4 -11 14 -20 23 -20z m5 30 c0 -5 -4
-10 -10 -10 -5 0 -10 5 -10 10 0 6 5 10 10 10 6 0 10 -4 10 -10z m450 -13 c0
-11 -17 -15 -82 -20 -43 -3 -58 0 -58 9 0 8 17 14 43 16 63 6 97 4 97 -5z
m-744 -30 l27 -24 -44 -11 c-49 -12 -58 -9 -39 13 15 19 9 28 -14 19 -9 -3
-16 -15 -16 -25 0 -16 -7 -19 -42 -18 -39 2 -78 21 -78 39 0 10 83 27 137 29
31 1 49 -5 69 -22z m364 2 c0 -11 -37 -12 -43 -1 -3 4 6 8 19 8 13 1 24 -2 24
-7z"/>
<path d="M2205 540 c3 -5 8 -10 11 -10 2 0 4 5 4 10 0 6 -5 10 -11 10 -5 0 -7
-4 -4 -10z"/>
<path d="M605 340 c-16 -5 -43 -13 -60 -19 -26 -9 -24 -10 20 -5 79 8 106 15
99 25 -6 10 -17 10 -59 -1z"/>
<path d="M2710 3050 c0 -5 5 -10 11 -10 5 0 7 5 4 10 -3 6 -8 10 -11 10 -2 0
-4 -4 -4 -10z"/>
<path d="M2840 3050 c0 -5 4 -10 9 -10 6 0 13 5 16 10 3 6 -1 10 -9 10 -9 0
-16 -4 -16 -10z"/>
<path d="M2852 3008 c2 -10 -16 -12 -75 -11 -74 2 -77 2 -67 -17 8 -15 21 -20
55 -20 24 0 51 -3 61 -7 11 -4 15 -3 10 5 -4 6 4 12 21 14 33 4 41 23 13 38
-16 8 -20 8 -18 -2z"/>
<path d="M2640 2990 c0 -10 33 -30 49 -30 22 0 10 18 -19 29 -17 5 -30 6 -30
1z"/>
<path d="M2270 3050 c-9 -6 -10 -10 -3 -10 6 0 15 5 18 10 8 12 4 12 -15 0z"/>
<path d="M2460 3042 c0 -12 19 -26 26 -19 2 2 -2 10 -11 17 -9 8 -15 8 -15 2z"/>
<path d="M2270 2980 c0 -5 7 -10 15 -10 8 0 15 5 15 10 0 6 -7 10 -15 10 -8 0
-15 -4 -15 -10z"/>
<path d="M1779 2932 c12 -23 41 -48 41 -35 0 5 -7 19 -16 31 -19 27 -39 30
-25 4z"/>
<path d="M2635 2570 c-4 -6 7 -10 24 -10 17 0 31 5 31 10 0 6 -11 10 -24 10
-14 0 -28 -4 -31 -10z"/>
<path d="M2700 2574 c0 -3 7 -12 15 -20 13 -14 17 -14 30 0 22 21 19 26 -15
26 -16 0 -30 -3 -30 -6z"/>
<path d="M2915 2390 c-3 -5 -1 -10 4 -10 6 0 11 5 11 10 0 6 -2 10 -4 10 -3 0
-8 -4 -11 -10z"/>
<path d="M2836 2212 c-9 -9 15 -32 33 -32 37 1 41 17 7 27 -19 6 -37 8 -40 5z"/>
<path d="M2970 2200 c-12 -8 -11 -10 8 -10 12 0 22 5 22 10 0 13 -11 13 -30 0z"/>
<path d="M1930 292 c0 -5 7 -13 16 -16 10 -4 14 -1 12 6 -5 15 -28 23 -28 10z"/>
<path d="M1940 236 c0 -10 28 -13 41 -5 10 6 7 9 -13 9 -16 0 -28 -2 -28 -4z"/>
<path d="M1530 170 c-13 -9 -13 -10 0 -10 9 0 26 -8 40 -17 13 -9 37 -18 54
-20 l31 -3 -26 25 c-28 29 -75 40 -99 25z"/>
<path d="M1435 150 c3 -5 8 -10 11 -10 2 0 4 5 4 10 0 6 -5 10 -11 10 -5 0 -7
-4 -4 -10z"/>
</g>
</svg>
