<?xml version="1.0" standalone="no"?>
<!DOCTYPE svg PUBLIC "-//W3C//DTD SVG 20010904//EN"
 "http://www.w3.org/TR/2001/REC-SVG-20010904/DTD/svg10.dtd">
<svg version="1.0" xmlns="http://www.w3.org/2000/svg"
 width="368.000000pt" height="305.000000pt" viewBox="0 0 368.000000 305.000000"
 preserveAspectRatio="xMidYMid meet">
<metadata>
Created by potrace 1.16, written by Peter Selinger 2001-2019
</metadata>
<g transform="translate(0.000000,305.000000) scale(0.100000,-0.100000)"
fill="#000000" stroke="none">
<path d="M2835 3040 c-3 -5 -20 -10 -36 -10 -17 0 -40 -5 -51 -11 -11 -6 -69
-13 -127 -15 -134 -4 -223 -14 -238 -26 -10 -8 -62 -7 -193 3 -23 2 -10 5 35
10 54 5 46 6 -35 3 -58 -3 -123 -9 -145 -14 -22 -6 -96 -13 -163 -17 -99 -5
-126 -3 -132 8 -6 9 -36 14 -107 15 -66 1 -80 -1 -43 -5 l55 -5 -80 -6 c-71
-5 -77 -7 -55 -17 23 -11 21 -12 -25 -13 -27 -1 -63 -3 -80 -4 -16 -1 -50 -3
-75 -5 -35 -2 -41 -4 -25 -11 16 -7 13 -9 -17 -9 -38 -1 -51 12 -23 23 29 11
15 25 -27 28 -212 13 -816 -12 -846 -35 -13 -10 -39 -16 -97 -20 -28 -2 -31
-6 -38 -52 -5 -28 -10 -261 -11 -520 -2 -577 11 -813 56 -1018 8 -38 7 -55 -6
-87 -19 -48 -21 -81 -3 -78 8 2 13 -15 14 -57 3 -96 12 -227 18 -244 8 -27 35
-480 35 -592 0 -83 3 -109 15 -119 10 -9 15 -9 15 -1 0 6 7 11 15 11 11 0 12
-5 5 -25 -5 -14 -8 -25 -7 -26 6 -2 55 -8 77 -10 14 -1 57 3 95 10 39 6 95 12
125 12 331 1 360 0 360 -11 0 -8 11 -11 30 -8 17 3 30 1 30 -3 0 -16 -46 -39
-77 -39 -26 0 -31 -4 -30 -20 1 -12 7 -18 14 -16 7 3 63 12 125 21 240 34 332
49 314 53 -10 2 -38 2 -62 0 -37 -3 -44 0 -44 14 0 19 5 20 188 20 63 1 82 4
82 14 0 16 16 19 25 4 3 -5 19 -10 36 -10 18 0 29 -5 29 -14 0 -11 46 -14 260
-15 223 -1 260 1 260 14 0 18 -14 17 325 19 154 0 286 5 294 10 8 5 28 11 45
13 17 1 37 11 44 21 13 16 14 16 23 0 15 -26 36 -22 44 9 3 15 6 63 6 107 -1
77 -4 108 -34 319 -11 72 -11 87 0 83 10 -4 13 9 13 52 0 74 -27 390 -41 467
-7 38 -7 61 -1 63 6 2 8 65 6 165 -2 89 -4 184 -4 210 0 30 -4 46 -10 42 -5
-3 -10 3 -10 15 0 12 5 18 10 15 6 -4 10 7 10 25 0 17 -4 29 -9 26 -5 -3 -11
5 -13 19 -4 20 -3 23 8 14 11 -9 14 -7 14 10 0 12 -6 21 -15 21 -8 0 -17 10
-19 23 -9 40 -12 177 -4 177 5 0 9 -15 9 -32 1 -18 3 -40 4 -48 1 -8 3 -36 4
-62 0 -27 6 -48 11 -48 6 0 10 8 10 17 0 30 18 0 23 -37 2 -19 5 0 5 43 1 43
-2 76 -7 73 -14 -9 -23 79 -14 132 l8 47 6 -55 c5 -46 6 -40 7 42 1 53 5 103
8 112 4 11 1 16 -10 16 -13 0 -16 14 -17 83 -1 98 -4 138 -18 282 -6 61 -14
175 -17 255 -6 142 -14 176 -40 166 -7 -3 -15 2 -18 10 -6 16 -42 19 -51 4z
m-765 -74 c0 -2 -7 -6 -15 -10 -8 -3 -15 -1 -15 4 0 6 7 10 15 10 8 0 15 -2
15 -4z m-453 -12 c-3 -3 -12 -4 -19 -1 -8 3 -5 6 6 6 11 1 17 -2 13 -5z m1012
-37 l-12 -22 25 23 c13 12 32 22 42 22 14 0 8 -12 -26 -52 -85 -103 -200 -209
-213 -197 -2 3 21 33 51 69 30 35 54 73 54 84 0 19 -1 19 -20 -2 -11 -12 -20
-25 -20 -30 0 -4 -16 -25 -35 -46 -19 -21 -35 -42 -35 -46 0 -13 -68 -60 -86
-60 -16 0 -16 1 2 15 17 13 17 14 2 15 -9 0 -20 -5 -23 -11 -4 -6 -13 -8 -21
-5 -7 3 -17 -1 -21 -8 -11 -17 -73 -47 -84 -40 -5 3 -9 1 -9 -4 0 -17 12 -20
40 -12 16 5 32 4 37 -1 6 -6 15 -4 23 6 7 8 19 15 28 15 11 0 7 -9 -14 -31
-17 -18 -36 -28 -46 -26 -10 3 -28 -3 -41 -14 -13 -10 -48 -28 -78 -39 -30
-12 -78 -35 -107 -51 -69 -38 -88 -37 -31 0 24 16 54 39 66 50 12 12 27 21 33
21 5 0 10 5 10 11 0 17 -16 8 -136 -78 -60 -43 -126 -85 -145 -93 -19 -7 -42
-20 -52 -28 -9 -8 -20 -13 -23 -10 -3 3 12 16 33 29 21 13 40 26 43 30 3 3 19
13 35 22 47 25 101 75 92 84 -5 4 -14 1 -20 -7 -14 -18 -89 -70 -101 -70 -4 0
-32 -21 -62 -46 -30 -26 -57 -45 -59 -42 -3 3 18 25 46 49 29 24 57 49 63 55
6 5 38 30 71 54 33 24 62 46 65 50 3 3 21 16 41 28 20 12 43 30 50 39 9 10 -2
7 -26 -9 -39 -24 -85 -41 -85 -31 0 2 5 13 10 24 13 24 14 24 -46 -5 -60 -28
-108 -41 -99 -26 3 5 20 17 36 25 16 9 27 21 23 26 -4 6 -9 7 -13 3 -8 -12
-95 -54 -110 -54 -7 0 -9 5 -6 10 3 6 2 10 -4 10 -21 0 -22 -22 -2 -27 19 -5
11 -16 -66 -96 -48 -49 -112 -113 -140 -141 -29 -28 -53 -55 -53 -60 0 -6 44
33 98 85 181 175 202 191 242 193 20 1 54 12 75 24 80 48 48 -5 -55 -88 -39
-32 -99 -86 -135 -121 -35 -34 -77 -71 -92 -81 -51 -35 -124 -69 -133 -63 -6
4 -25 -4 -43 -17 l-32 -23 19 30 c19 30 19 30 0 14 -39 -32 -154 -99 -154 -89
0 5 -4 10 -10 10 -5 0 -10 -7 -10 -16 0 -13 7 -15 30 -10 17 3 30 4 30 2 0 -2
-21 -17 -47 -32 -27 -15 -51 -32 -55 -38 -5 -8 -8 -7 -8 2 0 24 -19 11 -49
-35 -37 -55 -41 -81 -6 -38 l25 30 0 -40 c0 -45 -18 -103 -55 -175 l-25 -49
22 -41 c25 -47 30 -39 -54 -86 -50 -28 -81 -68 -73 -94 3 -11 2 -20 -3 -20
-19 0 -72 -95 -65 -118 5 -20 9 -16 29 28 13 27 27 50 33 50 5 0 13 10 17 22
5 17 10 11 26 -36 19 -55 19 -60 4 -99 -18 -47 -15 -63 4 -17 15 35 26 38 33
9 3 -11 -4 -36 -15 -56 l-21 -36 20 12 c12 6 23 16 25 23 5 13 68 -116 68
-138 0 -7 5 -16 11 -19 7 -5 5 -12 -4 -23 -14 -16 -47 -87 -47 -101 0 -3 5 1
11 9 9 13 11 13 16 0 4 -9 13 4 23 35 l17 50 7 -40 c5 -30 2 -50 -14 -82 -23
-48 -25 -69 -8 -79 8 -5 9 0 6 14 -4 12 -2 20 2 17 5 -3 14 11 21 30 l13 35
19 -37 c11 -23 16 -49 13 -66 -4 -17 -2 -26 4 -22 6 3 10 -5 10 -20 0 -14 4
-24 9 -21 5 3 12 -10 15 -28 5 -25 1 -43 -14 -68 -24 -40 -28 -72 -5 -42 15
18 15 16 10 -26 -11 -80 -58 -253 -87 -320 l-29 -65 6 50 c4 28 15 84 26 127
21 86 23 98 10 98 -4 0 -16 -35 -26 -77 -34 -150 -82 -276 -72 -190 3 20 1 37
-3 37 -4 0 -8 -25 -9 -56 -2 -63 -6 -74 -27 -74 -23 0 -16 65 21 190 19 66 30
119 25 124 -8 8 -14 -8 -55 -159 -23 -86 -45 -129 -57 -117 -8 8 -7 22 0 49 6
21 25 85 41 143 17 58 33 116 36 130 l5 25 -11 -25 c-6 -14 -19 -54 -30 -89
-10 -36 -23 -67 -29 -71 -6 -4 -15 -32 -20 -63 -5 -31 -17 -68 -27 -84 l-18
-27 -3 32 c-2 18 10 70 28 120 46 125 61 175 57 187 -3 5 -11 -12 -19 -40 -9
-27 -24 -68 -34 -90 -9 -22 -27 -65 -39 -95 -25 -64 -49 -72 -53 -19 -2 23 6
53 22 86 26 51 79 233 71 241 -5 5 -7 0 -29 -73 -26 -86 -42 -125 -49 -118 -4
3 -7 -3 -7 -14 0 -11 -7 -26 -15 -33 -12 -10 -15 -10 -15 3 0 16 38 88 51 97
10 7 41 130 36 143 -3 7 -8 -1 -12 -18 -11 -44 -64 -147 -83 -162 -24 -18 -31
-16 -38 11 -4 18 4 40 33 83 36 53 111 258 100 270 -3 2 -10 -13 -17 -34 -42
-131 -100 -243 -127 -243 -7 0 -13 -1 -13 -3 0 -22 24 -125 32 -134 11 -14 -3
-103 -26 -157 -19 -46 -41 -49 -32 -3 4 17 14 69 21 115 15 88 12 120 -10 102
-10 -8 -11 -1 -5 32 5 23 14 47 22 52 8 6 20 34 28 61 7 28 17 54 21 59 5 6 9
19 8 30 0 23 -10 6 -49 -91 -13 -31 -29 -53 -41 -56 -18 -5 -19 -2 -13 39 7
47 -2 56 -29 26 -18 -19 -40 -72 -33 -79 2 -3 11 8 20 24 l15 28 1 -29 c0 -33
-53 -224 -75 -266 -8 -15 -11 -30 -8 -34 4 -3 0 -6 -9 -6 -12 0 -14 8 -7 48 4
26 10 56 13 67 33 136 13 103 -25 -41 -31 -121 -38 -139 -46 -116 -4 10 -8 10
-18 2 -8 -6 -11 -18 -8 -26 3 -8 0 -14 -7 -14 -12 0 -6 49 8 60 9 7 53 128 58
160 l4 25 -10 -24 c-6 -13 -17 -40 -26 -60 -53 -124 -67 -146 -74 -126 -7 18
-8 17 -15 -8 -4 -15 -12 -26 -18 -24 -17 5 -18 67 0 105 26 58 26 58 5 33
l-20 -25 5 50 c7 80 24 142 39 148 8 3 20 19 26 36 6 18 16 29 25 28 9 -2 23
12 33 30 15 27 19 30 23 15 3 -12 5 -9 6 10 1 15 7 27 14 27 14 0 42 49 33 57
-2 3 -13 0 -24 -6 -11 -6 -21 -8 -24 -6 -3 3 -11 -14 -18 -37 -13 -45 -40 -92
-40 -70 0 34 45 162 58 162 7 0 18 14 23 30 6 17 18 30 27 30 20 0 52 29 52
47 0 7 4 13 8 13 10 0 86 139 80 146 -3 2 -17 -18 -31 -46 -31 -60 -87 -130
-104 -130 -18 0 -16 13 6 41 10 13 24 35 31 49 l13 25 -22 -19 c-24 -22 -27
-15 -7 17 15 22 33 95 62 252 20 106 24 116 35 88 4 -13 14 -23 21 -23 32 1
40 18 43 100 3 61 8 86 18 92 18 9 69 98 58 98 -4 0 -20 -17 -34 -37 -25 -35
-27 -36 -27 -14 0 14 5 52 11 87 9 53 17 69 55 108 24 26 44 52 44 58 0 7 -16
-5 -35 -25 -19 -20 -39 -37 -44 -37 -10 0 -24 60 -16 69 4 3 10 0 14 -8 6 -9
19 0 46 33 47 57 38 74 -10 20 -19 -21 -35 -34 -35 -29 -1 6 -3 24 -4 40 -7
70 -19 120 -32 133 -23 22 -28 60 -10 77 9 9 16 21 16 26 0 6 4 8 9 5 5 -3 20
12 35 34 33 50 21 52 -19 4 -61 -73 -85 -97 -91 -92 -3 4 -1 15 5 26 14 26 14
32 1 32 -5 0 -10 -5 -10 -11 0 -5 -14 -27 -31 -48 -27 -34 -34 -56 -55 -182
-14 -79 -31 -150 -37 -159 -22 -26 -61 -110 -54 -116 3 -4 16 10 28 30 27 46
37 39 17 -11 -9 -21 -21 -65 -28 -98 -6 -33 -23 -96 -36 -139 -17 -55 -23 -92
-19 -120 3 -23 0 -66 -6 -96 -6 -30 -11 -70 -12 -87 0 -18 -4 -33 -9 -33 -4 0
-8 -18 -8 -41 0 -22 -5 -50 -11 -61 -11 -21 -12 -21 -25 -3 -13 18 -14 17 -14
-7 0 -15 6 -33 13 -40 13 -14 15 -27 22 -142 2 -44 1 -84 -3 -90 -4 -6 -12
-27 -18 -46 l-11 -35 -8 49 c-7 44 -4 99 11 186 4 19 3 32 0 28 -11 -9 -35
-118 -36 -157 0 -19 -3 -32 -6 -28 -3 3 -7 62 -9 132 -3 122 -2 128 26 183 16
31 29 64 28 72 0 8 -11 -7 -25 -34 -15 -27 -29 -45 -34 -40 -5 5 -10 42 -12
82 -2 65 0 74 20 88 12 8 22 21 22 29 0 7 3 15 8 17 9 4 45 118 40 124 -3 2
-15 -22 -28 -54 -56 -135 -73 -134 -68 6 l3 107 -21 -24 -21 -24 0 31 c0 17 4
29 9 26 4 -3 7 39 6 93 -2 70 0 98 9 98 15 0 45 32 60 65 l12 25 1 -30 c1 -30
1 -30 11 -6 5 14 8 30 5 37 -3 7 12 46 32 86 58 115 72 148 64 148 -4 0 -29
-45 -56 -99 -68 -137 -94 -166 -46 -52 22 52 39 96 37 97 -2 2 -25 -40 -53
-93 -27 -53 -54 -98 -60 -100 -6 -2 -11 18 -12 54 -1 53 2 64 41 123 50 76 93
167 84 176 -4 4 -19 -20 -34 -52 -46 -96 -74 -138 -84 -122 -7 10 -9 10 -9 1
0 -7 -4 -13 -10 -13 -16 0 -11 16 13 41 13 13 40 58 62 99 33 65 62 115 167
288 11 18 15 32 9 32 -6 0 -11 10 -11 21 0 17 -3 19 -14 10 -11 -9 -16 -9 -21
0 -6 8 -10 7 -17 -5 -5 -9 -13 -14 -19 -11 -5 4 -9 -5 -9 -19 0 -14 -4 -26
-10 -26 -5 0 -10 -7 -10 -15 0 -24 17 -17 44 18 77 97 -34 -139 -158 -337 -29
-46 -31 -47 -34 -22 -2 15 6 38 17 55 12 16 21 32 21 36 0 4 9 18 20 32 21 27
26 43 12 43 -4 0 -13 -12 -20 -27 -7 -16 -24 -41 -37 -58 l-25 -30 0 44 c0 43
34 121 53 121 4 0 6 9 2 20 -4 14 -2 19 7 17 7 -2 10 -2 6 0 -14 8 -9 23 7 23
8 0 15 7 15 16 0 8 7 22 15 30 17 17 20 34 6 34 -5 0 -22 -21 -37 -47 -15 -27
-34 -54 -41 -61 -7 -7 -13 -18 -13 -23 0 -5 -4 -9 -10 -9 -13 0 -13 37 0 45 6
4 10 44 9 93 -1 94 7 126 40 156 11 10 18 23 15 28 -3 5 -15 2 -25 -8 -33 -30
-33 -6 0 31 43 50 37 59 -12 17 -16 -14 -17 -12 -16 34 1 27 6 57 11 67 5 11
5 17 -1 17 -7 0 -9 29 -7 78 4 81 17 114 71 187 16 22 31 42 32 44 2 3 9 -1
15 -7 15 -15 54 -16 63 -2 6 10 53 8 72 -3 6 -4 24 -2 39 3 15 6 29 8 32 6 2
-3 13 -1 23 4 10 6 20 6 23 1 8 -13 56 -10 56 4 0 6 21 16 46 22 33 8 43 8 35
0 -14 -14 -14 -37 -1 -37 6 0 15 11 20 25 5 14 16 25 24 25 13 0 12 -6 -3 -41
-10 -22 -24 -46 -30 -52 -13 -13 -14 -27 -2 -27 4 0 19 20 32 45 13 25 29 45
36 45 7 0 17 9 23 20 13 24 40 27 40 4 0 -13 5 -12 29 6 17 12 53 23 83 26 29
3 58 12 64 20 12 16 40 19 48 5 3 -5 -1 -14 -9 -21 -11 -9 -15 -9 -15 -1 0 8
-7 7 -22 -3 -13 -9 -43 -16 -69 -16 -34 0 -49 -4 -53 -16 -4 -9 -5 -18 -4 -19
25 -19 44 -21 64 -8 27 17 159 29 149 13 -3 -5 2 -10 14 -10 11 0 24 6 28 14
4 7 19 17 33 21 l25 7 -25 -27 -25 -28 25 16 c14 9 58 18 103 21 43 3 83 8 88
12 5 3 17 0 25 -7 11 -9 18 -8 32 5 20 18 62 22 62 6 0 -5 -6 -10 -14 -10 -7
0 -19 -7 -26 -15 -26 -32 36 -13 83 25 14 11 22 11 36 3 13 -8 23 -7 42 3 13
7 35 13 49 13 24 0 24 0 6 -14 -11 -8 -29 -15 -40 -15 -10 0 -16 -3 -12 -7 13
-14 51 -9 83 10 23 13 43 17 63 14 16 -4 32 -2 35 3 3 6 22 10 42 10 27 0 34
-3 29 -15 -5 -14 -2 -14 24 0 50 26 53 16 6 -22 -24 -21 -45 -42 -45 -47 -1
-5 14 3 32 18 66 53 110 74 146 69 l34 -6 -24 -18 c-19 -15 -21 -19 -7 -19 10
0 25 9 35 19 19 21 77 36 94 25 5 -3 -18 -28 -52 -55 -34 -27 -59 -49 -55 -49
12 0 115 70 123 84 5 9 32 15 78 18 39 2 75 7 80 10 6 3 23 6 39 6 l29 0 -39
-35 c-23 -20 -31 -32 -19 -28 11 4 26 8 33 8 7 0 20 13 30 29 9 15 22 28 29
28 7 0 13 5 13 11 0 5 5 7 10 4 7 -4 6 -14 -1 -28z m116 -10 c-17 -27 -51 -57
-92 -84 l-28 -18 23 32 c12 17 32 35 43 38 11 4 24 18 29 31 5 13 16 24 25 24
14 0 14 -2 0 -23z m-2415 -41 c0 -3 -4 -8 -10 -11 -5 -3 -10 -1 -10 4 0 6 5
11 10 11 6 0 10 -2 10 -4z m90 0 c0 -2 -7 -9 -15 -16 -12 -10 -15 -10 -15 4 0
9 7 16 15 16 8 0 15 -2 15 -4z m2350 -35 c0 -5 -9 -19 -21 -32 l-20 -24 17 33
c19 33 24 38 24 23z m-180 -82 c-57 -51 -89 -73 -95 -67 -3 3 20 25 51 49 31
24 61 49 68 55 6 7 13 10 16 7 3 -2 -15 -22 -40 -44z m117 33 c-10 -10 -17
-23 -17 -29 0 -10 -51 -33 -72 -33 -12 0 83 78 96 79 5 1 2 -7 -7 -17z m129
-139 c4 -49 7 -125 7 -170 -1 -49 3 -83 9 -83 6 0 8 -37 6 -100 -2 -61 0 -100
6 -100 6 0 5 -5 -2 -12 -7 -7 -12 -22 -12 -35 0 -13 -5 -23 -11 -23 -8 0 -8
-4 1 -15 8 -9 10 -35 6 -77 -2 -35 -5 -113 -5 -175 -1 -88 -4 -111 -14 -107
-7 2 -29 -6 -48 -20 -93 -67 -170 -117 -234 -151 -151 -81 -199 -108 -275
-158 -154 -102 -410 -259 -482 -296 -24 -12 -38 -31 -24 -31 23 0 161 70 221
112 58 42 138 93 155 101 8 4 35 22 60 41 59 45 212 138 319 193 100 52 242
136 289 171 l32 24 0 -53 c0 -30 3 -63 6 -75 6 -22 -10 -34 -121 -94 -27 -15
-90 -49 -140 -77 -139 -79 -229 -128 -365 -198 -69 -36 -138 -76 -154 -90 -16
-14 -35 -25 -41 -25 -7 0 -18 -7 -25 -15 -7 -8 -16 -12 -21 -9 -5 3 -9 0 -9
-5 0 -6 -6 -11 -12 -11 -7 0 -35 -18 -63 -40 -27 -22 -56 -40 -62 -40 -7 0
-13 -6 -13 -14 0 -28 22 -28 58 1 57 45 131 95 202 137 36 20 90 52 120 70 31
18 114 63 185 101 236 124 280 147 305 165 14 10 53 32 88 49 l62 31 0 -27 c0
-23 2 -25 11 -13 8 11 9 7 5 -18 -3 -17 -2 -42 3 -55 9 -25 4 -50 -10 -41 -5
3 -9 -2 -9 -10 0 -9 -4 -16 -8 -16 -5 0 -18 -9 -30 -20 -20 -19 -22 -19 -22
-3 0 10 -11 32 -24 48 l-25 30 -43 -41 c-24 -23 -63 -60 -87 -81 -44 -40 -49
-70 -11 -60 11 3 21 -1 24 -9 10 -26 46 -14 93 32 26 25 49 40 51 35 6 -19 26
-12 60 20 27 25 33 28 38 14 4 -9 5 -17 3 -18 -2 -1 -17 -10 -34 -20 -16 -10
-99 -52 -182 -93 -95 -46 -153 -80 -153 -89 0 -8 6 -15 13 -15 16 0 205 92
278 136 65 39 79 42 72 14 -3 -11 3 -32 12 -47 10 -16 14 -25 10 -20 -5 4 -19
0 -32 -8 -13 -9 -23 -12 -23 -8 0 4 -12 -5 -27 -19 -16 -14 -59 -43 -98 -63
-38 -20 -72 -40 -75 -44 -9 -15 -91 -62 -218 -127 -221 -112 -405 -221 -458
-271 -25 -24 -27 -28 -11 -31 11 -2 71 32 145 81 111 74 283 177 296 177 2 0
33 16 68 36 34 20 113 61 173 91 61 31 119 63 129 72 17 14 17 12 -3 -24 -12
-22 -28 -47 -34 -56 -15 -19 -134 -89 -150 -88 -9 0 -9 2 1 6 24 9 12 23 -20
23 -18 0 -44 -9 -58 -20 -14 -11 -30 -20 -37 -20 -6 0 -15 -5 -18 -11 -4 -5
10 -3 32 7 21 9 47 19 58 22 l20 5 -20 -23 c-11 -12 -54 -39 -95 -59 -41 -20
-106 -55 -145 -77 -128 -75 -258 -144 -270 -144 -6 0 -19 -6 -29 -13 -16 -12
-16 -14 -2 -26 12 -10 21 -9 50 4 20 10 34 21 31 25 -3 5 0 12 6 16 8 5 9 3 4
-6 -6 -10 -4 -12 8 -7 31 12 17 -8 -23 -33 -21 -13 -37 -26 -35 -28 8 -9 95
60 89 70 -4 7 -2 8 5 4 15 -9 83 32 75 46 -4 6 1 8 15 3 12 -4 21 -2 21 4 0 6
4 11 10 11 5 0 47 24 93 54 79 51 203 119 290 158 37 17 48 11 24 -14 -16 -15
-40 -58 -33 -58 2 0 20 24 39 53 26 39 50 60 92 82 60 31 75 49 57 67 -8 8
-16 7 -28 -3 -14 -11 -13 -6 4 28 22 42 65 83 87 83 13 0 30 -144 19 -161 -3
-5 -15 -7 -27 -4 -16 4 -34 -6 -67 -38 -25 -24 -65 -55 -90 -69 -25 -14 -63
-35 -85 -48 -22 -12 -85 -45 -140 -72 -115 -56 -127 -62 -255 -135 -79 -45
-114 -68 -199 -129 -2 -2 -1 -11 3 -20 6 -15 8 -15 29 0 71 52 156 106 165
106 6 0 15 6 19 13 4 6 24 20 43 30 19 9 62 32 96 50 156 83 202 93 85 20 -31
-20 -76 -53 -101 -73 -53 -44 -168 -120 -180 -120 -5 0 -10 -4 -12 -8 -1 -4
-20 -20 -40 -36 -21 -16 -35 -33 -32 -41 7 -18 42 -6 152 52 45 24 86 42 91
39 5 -3 15 1 22 10 20 24 122 88 137 86 6 -2 12 2 12 8 0 5 7 10 16 10 14 0
13 -6 -6 -37 -21 -36 -21 -37 -2 -20 11 10 26 31 32 47 10 23 35 40 127 85
111 54 140 62 114 31 -7 -8 -22 -34 -34 -58 -15 -29 -37 -51 -72 -71 -27 -16
-52 -29 -55 -29 -18 0 -102 -52 -119 -74 l-21 -27 0 25 c0 13 5 29 12 36 7 7
9 12 5 12 -3 0 -17 -11 -30 -24 -22 -21 -69 -50 -190 -116 -21 -12 -40 -27
-44 -35 -3 -8 -9 -13 -13 -10 -4 3 -23 -6 -41 -20 -19 -13 -44 -30 -56 -36
-27 -14 -31 -39 -7 -39 9 0 37 15 63 34 50 37 161 96 180 96 7 0 -3 -18 -21
-41 -29 -36 -55 -54 -149 -104 -11 -5 -19 -14 -19 -18 0 -5 26 5 57 22 31 17
62 31 69 31 7 0 32 13 56 29 24 16 64 37 88 47 25 9 49 21 55 26 5 4 16 8 25
8 11 -1 8 -6 -9 -21 -13 -11 -31 -17 -38 -15 -8 3 -11 2 -8 -4 3 -5 -10 -12
-28 -15 -32 -6 -113 -54 -179 -105 -24 -18 -40 -20 -147 -19 -105 1 -121 3
-122 17 0 10 -13 37 -29 62 -16 25 -45 79 -65 120 -20 41 -41 83 -46 92 -14
27 -11 38 12 38 12 0 17 4 13 11 -3 6 -15 8 -26 6 -17 -5 -29 13 -84 127 -65
135 -72 156 -54 156 6 0 10 5 10 11 0 6 -7 9 -15 5 -10 -3 -20 5 -31 26 -15
30 -15 32 2 45 17 12 16 13 -7 13 -21 1 -31 17 -87 140 -35 76 -70 156 -77
177 -69 197 -108 301 -140 373 -21 47 -43 99 -51 115 -50 118 -64 154 -64 164
0 7 -9 31 -20 53 -11 23 -20 43 -20 45 0 20 483 267 700 358 36 15 106 49 156
76 50 27 101 49 114 49 12 0 34 8 48 18 15 11 63 33 107 51 44 18 103 43 130
55 28 13 79 33 115 46 57 20 100 38 210 87 14 7 28 12 32 12 3 1 10 -38 14
-86z m-426 3 c0 -2 -12 -11 -27 -20 l-28 -17 24 20 c23 21 31 25 31 17z m534
-412 c3 -91 3 -104 -4 -54 -17 137 -21 205 -11 189 5 -8 12 -69 15 -135z
m-2625 -87 c0 -27 -2 -29 -9 -12 -12 28 -12 57 0 50 6 -3 10 -21 9 -38z m2564
-182 c3 -94 2 -139 -4 -121 -11 39 -20 306 -10 286 5 -8 11 -82 14 -165z
m-2138 -120 c-13 -97 -20 -241 -8 -162 2 15 9 27 15 27 11 0 4 -54 -14 -107
-15 -43 -38 -32 -38 18 0 86 43 349 55 337 2 -2 -2 -53 -10 -113z m32 93 c-3
-8 -6 -5 -6 6 -1 11 2 17 5 13 3 -3 4 -12 1 -19z m-5 -80 c-7 -7 -12 -8 -12
-2 0 14 12 26 19 19 2 -3 -1 -11 -7 -17z m493 -123 c26 -61 53 -130 62 -155 8
-25 24 -63 34 -85 17 -36 43 -105 101 -264 10 -30 33 -81 51 -115 41 -81 67
-136 62 -136 -6 0 -51 81 -125 225 -70 136 -131 244 -156 275 -18 22 -124 208
-134 236 -6 15 -5 33 3 51 15 34 48 85 53 80 2 -1 24 -52 49 -112z m-505 23
c0 -31 -3 -39 -11 -31 -7 7 -8 24 -4 42 9 43 15 39 15 -11z m2125 -13 c-4 -25
-10 -44 -12 -41 -3 3 -2 26 2 51 3 26 9 45 12 42 2 -3 1 -26 -2 -52z m-2080
-142 c-3 -15 -10 -76 -15 -137 -5 -60 -14 -114 -20 -120 -18 -18 -17 28 6 164
18 109 21 120 30 120 3 0 3 -12 -1 -27z m391 -40 c15 -27 34 -56 42 -66 14
-16 13 -20 -14 -48 -15 -16 -39 -32 -52 -36 -12 -3 -21 -10 -19 -17 7 -22 44
-16 81 13 l38 31 29 -43 c16 -23 29 -47 29 -52 0 -11 -75 -35 -110 -35 -11 0
-20 -6 -20 -14 0 -25 38 -28 86 -7 26 12 51 21 55 21 9 0 49 -58 49 -71 0 -3
-25 -16 -55 -29 -30 -13 -55 -29 -55 -37 0 -19 24 -16 67 7 21 11 45 20 53 20
13 0 67 -78 58 -84 -2 -1 -36 -16 -75 -32 -40 -16 -73 -35 -73 -41 0 -20 21
-16 91 16 l64 30 18 -21 c9 -11 17 -23 17 -27 0 -4 -22 -18 -50 -31 -49 -23
-64 -40 -36 -40 8 0 33 9 57 20 41 18 45 18 57 3 25 -34 14 -49 -58 -82 -38
-18 -75 -29 -81 -26 -7 5 -10 1 -7 -11 3 -13 11 -18 27 -16 23 2 91 30 101 41
3 4 15 12 27 18 18 10 25 10 38 -3 24 -25 18 -34 -40 -60 -30 -14 -53 -30 -50
-35 9 -14 32 -11 77 12 40 20 42 21 55 3 7 -10 13 -23 13 -30 0 -14 -88 -79
-128 -96 -23 -9 -24 -12 -9 -15 24 -6 72 13 121 49 30 21 42 25 48 15 14 -22
9 -35 -19 -50 -57 -29 -93 -52 -93 -59 0 -14 47 -8 60 6 6 8 27 24 46 35 l35
21 20 -47 c11 -25 18 -46 17 -47 -32 -16 -164 -82 -167 -84 -3 -1 1 -8 7 -14
14 -14 73 11 134 54 l38 28 10 -25 c6 -15 15 -35 20 -46 9 -16 7 -21 -12 -29
-13 -6 -45 -24 -73 -41 -27 -16 -62 -34 -77 -40 -33 -13 -45 -39 -18 -39 10 0
21 4 24 9 7 10 129 82 159 94 14 5 21 -1 33 -29 8 -20 13 -43 10 -50 -3 -8 1
-14 8 -14 7 0 18 -11 24 -25 10 -22 9 -25 -13 -31 -14 -3 -25 -10 -25 -14 0
-4 -17 -15 -37 -23 -36 -15 -37 -16 -10 -16 15 -1 42 6 58 15 17 8 37 14 45
12 14 -3 74 -98 74 -117 0 -4 -69 -9 -152 -10 -84 -2 -169 -4 -188 -5 -40 -2
-50 8 -70 74 -8 25 -20 50 -27 55 -8 6 -26 46 -42 90 -16 44 -54 141 -86 215
-79 188 -105 262 -105 299 0 18 -4 30 -10 26 -10 -6 -25 25 -60 130 -12 39
-32 93 -43 120 -39 98 -89 241 -102 295 -14 54 -14 55 13 80 26 25 67 48 89
49 7 1 24 -20 39 -46z m-510 -81 c-3 -15 -1 -34 5 -42 8 -12 10 -10 6 10 -3
14 -1 34 4 45 14 34 2 -71 -21 -180 -12 -55 -25 -123 -30 -151 -10 -66 -19
-94 -30 -94 -4 0 -6 -19 -2 -42 l5 -42 -23 22 -23 21 20 38 c22 42 41 139 22
113 -8 -11 -9 -7 -5 20 3 19 11 71 16 116 6 44 17 106 25 138 8 31 15 59 15
62 0 3 5 2 11 -1 5 -4 8 -19 5 -33z m-339 -39 c-3 -10 -5 -4 -5 12 0 17 2 24
5 18 2 -7 2 -21 0 -30z m2372 -123 c-19 -33 -49 -61 -49 -44 0 6 63 84 68 84
2 0 -7 -18 -19 -40z m198 8 c-3 -7 -5 -2 -5 12 0 14 2 19 5 13 2 -7 2 -19 0
-25z m-25 -108 c2 -22 0 -36 -3 -32 -11 11 -15 72 -5 72 2 0 6 -18 8 -40z m53
-128 l4 -97 -9 75 c-5 41 -11 93 -14 115 -4 31 -2 36 5 22 6 -10 12 -62 14
-115z m-2338 36 c-3 -8 -6 -5 -6 6 -1 11 2 17 5 13 3 -3 4 -12 1 -19z m2303
-58 c0 -16 -2 -30 -4 -30 -2 0 -6 14 -8 30 -3 17 -1 30 4 30 4 0 8 -13 8 -30z
m-2330 -137 c-1 -42 -26 -137 -33 -126 -10 15 12 143 24 143 5 0 9 -8 9 -17z
m2343 -23 c3 -11 1 -20 -4 -20 -5 0 -9 9 -9 20 0 11 2 20 4 20 2 0 6 -9 9 -20z
m-32 -27 c0 -21 3 -50 5 -65 4 -26 -16 -52 -24 -30 -2 7 -10 12 -18 12 -17 0
-17 0 1 43 17 40 19 57 8 57 -14 0 -64 -101 -57 -113 4 -7 4 -9 0 -6 -4 4 -20
-5 -35 -20 -33 -30 -191 -115 -191 -103 0 4 5 13 12 20 6 6 9 15 5 18 -3 4
-14 -6 -23 -22 -22 -39 -134 -111 -154 -99 -5 3 -12 -1 -17 -8 -8 -14 -213
-127 -229 -127 -4 0 2 9 14 20 12 11 25 20 30 20 6 0 37 20 69 44 156 114 204
142 173 99 -7 -10 5 0 26 23 45 48 117 104 133 104 6 0 11 4 11 9 0 5 28 28
63 50 34 22 67 44 73 48 25 19 106 63 117 63 4 0 7 -17 8 -37z m-2521 -33 c0
-5 -4 -10 -10 -10 -5 0 -10 5 -10 10 0 6 5 10 10 10 6 0 10 -4 10 -10z m2580
-70 c0 -11 -2 -20 -4 -20 -2 0 -6 9 -9 20 -3 11 -1 20 4 20 5 0 9 -9 9 -20z
m-89 -30 c-26 -22 -21 -27 9 -8 10 7 22 9 26 5 4 -4 5 -8 3 -10 -2 -2 -32 -27
-66 -56 -35 -29 -63 -50 -63 -46 0 15 32 65 47 74 10 6 12 11 6 11 -22 0 -14
19 15 34 38 21 51 19 23 -4z m-1551 -64 c18 -39 18 -48 6 -92 -24 -86 -28
-106 -16 -99 25 15 -37 -218 -63 -240 -7 -5 -18 -21 -25 -35 l-13 -25 6 25 c3
14 15 59 26 100 19 72 49 218 64 308 4 26 3 42 -3 42 -6 0 -13 -6 -15 -12 -3
-7 -6 -4 -6 7 -1 23 9 65 16 65 2 0 13 -20 23 -44z m1590 -75 c0 -34 -4 -42
-30 -55 -16 -8 -30 -12 -30 -10 0 9 50 104 55 104 3 0 5 -18 5 -39z m-66 5
c-5 -14 -128 -126 -139 -126 -17 0 31 63 63 84 20 13 43 31 51 40 16 20 32 21
25 2z m-1584 -164 c-25 -117 -50 -204 -60 -216 -18 -19 14 143 63 324 22 84
20 -2 -3 -108z m1565 84 c-10 -14 -21 -26 -26 -26 -5 0 0 13 12 30 27 36 38
33 14 -4z m-2083 -68 c-6 -24 -21 -85 -33 -136 -24 -101 -32 -117 -66 -127
-29 -8 -30 9 -2 55 12 19 33 76 46 125 24 88 49 142 60 131 3 -3 1 -25 -5 -48z
m1935 23 c-6 -16 -21 -35 -34 -42 -13 -7 -23 -16 -23 -21 0 -4 -9 -8 -19 -8
-11 0 -22 -4 -26 -10 -3 -5 -12 -7 -19 -4 -7 3 -16 -1 -19 -9 -3 -8 -19 -19
-37 -25 -21 -8 -29 -8 -24 -1 8 14 -20 -1 -65 -35 -19 -14 -36 -24 -38 -22 -9
9 44 76 64 82 13 3 20 11 16 17 -3 6 -1 7 6 3 6 -4 18 -3 26 4 10 8 15 8 20 0
5 -8 14 -6 29 7 31 28 132 91 148 92 3 1 1 -12 -5 -28z m-2236 -38 c-9 -15
-10 -12 -10 17 0 29 1 32 10 18 7 -12 7 -24 0 -35z m2294 27 c-10 -11 -23 -20
-28 -20 -6 0 -2 9 8 20 10 11 23 20 28 20 6 0 2 -9 -8 -20z m102 -7 c-9 -9
-20 -13 -24 -9 -4 4 1 14 11 22 25 18 35 8 13 -13z m-1468 -7 c-1 -12 -5 -32
-9 -46 l-8 -25 -2 25 c-1 14 -17 -33 -36 -104 -35 -134 -51 -173 -39 -96 14
96 66 267 81 267 8 0 14 -9 13 -21z m1541 16 c0 -5 -12 -22 -26 -38 -24 -27
-25 -27 -14 -4 21 41 40 61 40 42z m-1497 -101 c-5 -41 -8 -49 -15 -37 -5 10
-7 40 -3 68 10 68 25 41 18 -31z m1332 34 c-21 -19 -36 -38 -32 -41 13 -13
-24 -63 -68 -90 -25 -16 -45 -32 -45 -36 0 -4 -9 -12 -21 -18 -32 -17 -110
-39 -103 -29 3 5 12 9 20 9 8 0 14 3 14 8 0 4 14 16 30 27 16 11 30 24 30 29
0 5 -9 1 -20 -9 -11 -10 -20 -13 -20 -7 0 13 39 36 47 28 3 -3 20 6 38 19 17
14 36 25 41 25 5 0 20 9 34 20 l25 19 -25 -6 c-23 -6 -24 -5 -10 13 14 18 13
18 -9 -1 -14 -11 -33 -28 -43 -37 -19 -19 -38 -24 -38 -10 0 29 79 90 100 77
5 -3 12 0 15 6 10 15 68 49 74 43 3 -3 -12 -20 -34 -39z m-55 15 c-20 -13 -33
-13 -25 0 3 6 14 10 23 10 15 0 15 -2 2 -10z m-1926 -52 c-4 -29 -13 -68 -20
-88 -14 -34 -14 -33 -9 28 5 56 21 112 32 112 2 0 0 -24 -3 -52z m1846 12
c-14 -11 -29 -20 -34 -20 -4 0 -6 -6 -3 -14 6 -15 -53 -75 -95 -96 -16 -7 -28
-17 -28 -22 0 -5 6 -6 13 -2 7 5 5 -2 -4 -16 -10 -15 -27 -26 -45 -28 l-29 -2
30 17 c17 9 25 18 18 20 -6 2 -20 -4 -31 -13 -21 -17 -68 -27 -84 -18 -5 3 13
17 39 31 27 14 67 38 91 54 24 16 46 29 50 29 14 1 57 39 57 52 0 7 10 17 23
23 12 5 22 13 22 17 0 5 8 8 18 8 14 0 12 -4 -8 -20z m160 -20 c-12 -16 -26
-30 -31 -30 -5 0 0 14 13 30 12 17 26 30 31 30 4 0 -1 -13 -13 -30z m-1920
-107 c6 -24 16 -44 23 -45 7 0 18 -2 26 -2 8 -1 16 -7 19 -14 3 -9 -14 -12
-63 -12 -65 0 -67 1 -61 23 3 12 11 48 18 80 13 63 14 63 38 -30z m514 5 c-6
-70 -16 -99 -30 -85 -6 5 26 157 33 157 2 0 0 -33 -3 -72z m-189 -56 c-4 -18
-9 -22 -17 -14 -8 8 -8 23 3 54 13 41 14 42 17 14 2 -15 1 -40 -3 -54z m-56
24 c-9 -8 -10 -7 -5 7 3 10 7 24 7 30 1 7 3 4 6 -7 3 -10 -1 -23 -8 -30z
m1671 36 c0 -8 -43 -32 -58 -32 -6 0 49 40 56 40 1 0 2 -4 2 -8z m-2070 -42
c0 -10 -4 -22 -10 -25 -6 -4 -10 7 -10 25 0 18 4 29 10 25 6 -3 10 -15 10 -25z
m-117 0 c-3 -11 -9 -20 -14 -20 -11 0 -11 3 -3 24 9 23 23 20 17 -4z m834 -12
c-3 -7 -5 -2 -5 12 0 14 2 19 5 13 2 -7 2 -19 0 -25z m-181 -14 c-4 -9 -9 -15
-11 -12 -3 3 -3 13 1 22 4 9 9 15 11 12 3 -3 3 -13 -1 -22z m1404 6 c-6 -11
-17 -20 -25 -20 -20 0 -19 10 3 26 25 19 34 17 22 -6z m-1696 -5 c3 -9 0 -15
-9 -15 -9 0 -12 6 -9 15 4 8 7 15 9 15 2 0 5 -7 9 -15z m66 6 c0 -6 -4 -13
-10 -16 -5 -3 -10 1 -10 9 0 9 5 16 10 16 6 0 10 -4 10 -9z m470 -15 c0 -16
-27 -29 -42 -20 -6 4 -1 12 13 20 30 17 29 17 29 0z m-370 -6 c0 -5 -4 -10
-10 -10 -5 0 -10 5 -10 10 0 6 5 10 10 10 6 0 10 -4 10 -10z m195 -100 c-3 -5
-22 -10 -41 -10 -21 0 -33 4 -29 10 3 6 22 10 41 10 21 0 33 -4 29 -10z"/>
<path d="M2381 2854 c-34 -26 -60 -48 -57 -51 5 -5 112 63 121 78 16 25 -6 16
-64 -27z"/>
<path d="M2389 2800 c-22 -19 -29 -29 -18 -30 16 0 66 46 58 55 -3 2 -21 -9
-40 -25z"/>
<path d="M2127 2743 c-32 -25 -56 -48 -53 -50 3 -3 29 14 58 38 75 60 73 59
63 59 -6 -1 -36 -21 -68 -47z"/>
<path d="M1765 2743 c-40 -36 -25 -28 28 14 16 13 25 23 20 23 -4 -1 -26 -17
-48 -37z"/>
<path d="M2311 2739 c-13 -11 -22 -21 -20 -23 2 -3 17 7 32 20 15 13 24 24 20
24 -4 -1 -19 -10 -32 -21z"/>
<path d="M1212 2729 c-12 -19 -11 -19 8 -9 11 6 20 15 20 20 0 17 -15 11 -28
-11z"/>
<path d="M1505 2739 c-11 -17 1 -21 15 -4 8 9 8 15 2 15 -6 0 -14 -5 -17 -11z"/>
<path d="M1806 2664 c-44 -30 -85 -54 -93 -54 -7 0 -13 -5 -13 -11 0 -7 7 -8
18 -4 9 4 24 8 32 8 8 0 25 11 38 24 13 13 41 36 63 50 21 14 39 30 39 34 0
12 6 15 -84 -47z"/>
<path d="M940 2688 c-12 -22 -12 -22 6 -6 10 10 15 20 12 24 -4 3 -12 -5 -18
-18z"/>
<path d="M1202 2668 c-32 -33 -33 -33 -38 -10 l-6 22 -35 -26 c-24 -18 -41
-24 -59 -20 -17 5 -24 2 -24 -8 0 -7 -7 -19 -15 -26 -8 -7 -13 -16 -10 -20 3
-5 -9 -20 -27 -34 -18 -14 -30 -27 -28 -30 3 -2 34 20 70 49 71 59 91 69 66
30 -9 -13 -16 -27 -16 -29 0 -3 36 22 80 56 44 34 80 65 80 70 0 12 -3 11 -38
-24z"/>
<path d="M2210 2670 c-25 -16 -55 -30 -67 -30 -13 0 -23 -5 -23 -11 0 -5 -5
-7 -10 -4 -12 7 -81 -65 -74 -77 6 -9 44 13 44 24 0 5 5 8 10 8 20 0 189 119
170 120 -3 0 -25 -14 -50 -30z"/>
<path d="M786 2649 c-34 -39 -48 -67 -26 -54 11 7 73 95 67 95 -3 0 -21 -19
-41 -41z"/>
<path d="M1659 2671 l-24 -20 23 6 c23 5 38 20 29 29 -2 2 -15 -4 -28 -15z"/>
<path d="M1760 2679 c0 -5 5 -7 10 -4 6 3 10 8 10 11 0 2 -4 4 -10 4 -5 0 -10
-5 -10 -11z"/>
<path d="M729 2663 c-8 -10 -24 -32 -36 -50 -19 -27 -20 -32 -7 -37 21 -8 34
1 34 25 0 10 9 24 20 31 11 7 20 21 20 30 0 23 -13 23 -31 1z"/>
<path d="M1725 2666 c-11 -6 -22 -14 -25 -17 -6 -7 -55 -24 -55 -19 0 2 -10
-2 -22 -9 -15 -7 -23 -8 -23 -1 0 5 5 10 10 10 6 0 10 5 10 10 0 7 -6 7 -19 1
-10 -6 -21 -8 -24 -4 -4 3 -13 1 -20 -6 -8 -6 -23 -8 -32 -4 -14 5 -17 3 -12
-10 3 -9 -3 -27 -14 -40 -30 -39 -23 -42 16 -8 27 23 45 31 73 30 45 0 98 18
136 49 32 25 32 36 1 18z"/>
<path d="M845 2651 c-3 -6 -10 -9 -15 -6 -4 3 -10 -2 -14 -10 -3 -8 -2 -17 3
-19 9 -6 45 33 38 41 -3 2 -8 -1 -12 -6z"/>
<path d="M878 2628 c-21 -16 -38 -34 -38 -39 0 -13 44 -11 58 3 15 15 16 32 2
23 -17 -11 -11 7 7 21 10 7 16 15 13 17 -3 3 -22 -8 -42 -25z"/>
<path d="M939 2633 c-13 -16 -12 -17 4 -4 9 7 17 15 17 17 0 8 -8 3 -21 -13z"/>
<path d="M968 2627 c-27 -22 -38 -57 -18 -57 6 0 10 7 10 15 0 9 12 27 28 40
34 31 17 32 -20 2z"/>
<path d="M618 2617 c-29 -24 -40 -58 -21 -64 7 -3 18 8 24 23 5 16 15 32 21
35 6 4 9 11 7 17 -2 6 -16 1 -31 -11z"/>
<path d="M1340 2625 c-8 -9 -8 -15 -2 -15 12 0 26 19 19 26 -2 2 -10 -2 -17
-11z"/>
<path d="M417 2623 c-12 -21 -16 -63 -7 -68 7 -4 7 -13 -1 -26 -9 -19 -9 -19
13 -7 28 16 38 28 38 48 0 11 -3 11 -12 2 -21 -21 -31 -13 -25 23 5 33 3 44
-6 28z"/>
<path d="M1220 2618 c0 -6 -10 -23 -22 -36 l-23 -25 22 12 c12 6 34 11 50 10
l28 0 -22 -16 c-37 -25 -26 -35 11 -11 36 23 61 56 52 66 -3 3 -14 -2 -24 -11
-10 -10 -26 -17 -36 -17 -14 0 -15 4 -6 20 9 17 8 20 -10 20 -11 0 -20 -5 -20
-12z"/>
<path d="M544 2599 c-3 -6 -1 -16 5 -22 8 -8 11 -5 11 11 0 24 -5 28 -16 11z"/>
<path d="M1467 2592 c-25 -27 -21 -35 8 -16 25 16 33 34 17 34 -5 0 -16 -8
-25 -18z"/>
<path d="M1632 2555 c-29 -30 -49 -55 -45 -55 13 0 103 87 103 99 0 16 0 16
-58 -44z"/>
<path d="M781 2580 c-9 -16 -16 -20 -19 -12 -5 16 -32 -3 -32 -23 0 -8 -6 -15
-12 -18 -7 -2 -10 -8 -5 -12 4 -5 13 0 21 10 7 10 18 15 25 11 17 -11 43 20
39 46 l-3 23 -14 -25z"/>
<path d="M1321 2555 c-25 -18 -46 -40 -47 -50 -3 -17 4 -13 53 32 7 6 22 15
33 18 11 3 20 13 20 21 0 20 -9 17 -59 -21z"/>
<path d="M496 2558 c-27 -38 -19 -57 9 -24 14 16 25 33 25 38 0 16 -19 8 -34
-14z"/>
<path d="M1513 2525 c-32 -31 -51 -53 -43 -49 42 22 102 68 107 81 13 33 -10
22 -64 -32z"/>
<path d="M627 2563 c-4 -3 -7 -11 -7 -17 0 -6 5 -5 12 2 6 6 9 14 7 17 -3 3
-9 2 -12 -2z"/>
<path d="M1661 2535 c-35 -41 -39 -50 -13 -36 30 16 72 71 54 71 -6 0 -24 -16
-41 -35z"/>
<path d="M1783 2494 c-26 -20 -78 -64 -114 -98 -37 -33 -84 -74 -104 -91 -61
-48 -76 -65 -57 -65 4 0 23 14 42 31 123 108 152 132 215 174 68 46 85 62 85
78 0 15 -20 6 -67 -29z"/>
<path d="M996 2493 c-6 -14 -5 -15 5 -6 7 7 10 15 7 18 -3 3 -9 -2 -12 -12z"/>
<path d="M1240 2490 c-8 -5 -11 -12 -7 -16 4 -4 13 -2 19 4 6 6 10 14 7 16 -2
3 -11 1 -19 -4z"/>
<path d="M570 2471 c-6 -12 -7 -21 -1 -21 10 0 24 30 17 37 -2 3 -9 -5 -16
-16z"/>
<path d="M1515 2445 c-22 -19 -36 -34 -32 -35 5 0 25 16 45 35 48 45 39 45
-13 0z"/>
<path d="M1575 2450 c-3 -5 -1 -10 4 -10 6 0 11 5 11 10 0 6 -2 10 -4 10 -3 0
-8 -4 -11 -10z"/>
<path d="M759 2413 c-13 -16 -12 -17 4 -4 9 7 17 15 17 17 0 8 -8 3 -21 -13z"/>
<path d="M1540 2417 c-8 -7 -24 -24 -35 -37 -12 -15 -4 -11 18 9 33 31 42 42
35 41 -2 0 -10 -6 -18 -13z"/>
<path d="M677 2272 c-15 -17 -23 -42 -13 -42 2 0 17 7 32 15 19 10 23 15 12
15 -11 0 -15 5 -12 15 8 20 1 19 -19 -3z"/>
<path d="M838 2269 c-10 -5 -18 -14 -18 -19 0 -17 15 -11 28 10 14 23 13 23
-10 9z"/>
<path d="M770 2245 c-7 -9 -10 -18 -7 -21 7 -8 47 14 47 26 0 15 -26 12 -40
-5z"/>
<path d="M631 2234 c0 -11 3 -14 6 -6 3 7 2 16 -1 19 -3 4 -6 -2 -5 -13z"/>
<path d="M1245 2220 c-3 -5 -2 -10 4 -10 5 0 13 5 16 10 3 6 2 10 -4 10 -5 0
-13 -4 -16 -10z"/>
<path d="M1275 2179 c-19 -12 -24 -19 -14 -19 9 0 27 9 40 20 30 25 13 25 -26
-1z"/>
<path d="M380 2175 c0 -15 18 -40 24 -34 3 3 -1 14 -9 25 -8 10 -14 15 -15 9z"/>
<path d="M635 2129 c-17 -33 -23 -50 -14 -47 8 3 19 15 25 27 7 13 17 28 23
34 6 6 11 17 11 24 0 27 -18 11 -45 -38z"/>
<path d="M760 2164 c0 -8 5 -12 10 -9 6 3 10 10 10 16 0 5 -4 9 -10 9 -5 0
-10 -7 -10 -16z"/>
<path d="M827 2158 c-53 -85 -54 -88 -37 -88 6 0 13 8 17 18 3 9 15 27 25 39
11 11 18 29 16 40 -3 15 -6 14 -21 -9z"/>
<path d="M1013 2161 c-9 -11 -22 -17 -29 -14 -8 3 -14 0 -14 -6 0 -6 5 -11 12
-11 6 0 4 -7 -5 -18 -10 -10 -17 -22 -17 -26 0 -4 -14 -20 -32 -36 -23 -21
-29 -33 -22 -40 8 -8 19 1 37 29 15 23 43 57 62 77 19 20 35 42 35 50 0 19 -7
18 -27 -5z"/>
<path d="M1068 2153 c-9 -10 -21 -29 -27 -43 l-12 -25 21 25 c23 27 43 60 37
60 -2 0 -11 -8 -19 -17z"/>
<path d="M1210 2155 c-10 -13 -9 -15 9 -15 11 0 21 4 21 9 0 18 -18 21 -30 6z"/>
<path d="M706 2128 c-8 -18 -17 -41 -20 -51 -3 -10 -10 -15 -16 -12 -5 3 -10
-3 -10 -15 0 -12 -5 -30 -11 -42 -6 -11 -9 -21 -7 -23 2 -3 13 12 23 33 11 20
32 53 47 73 28 37 36 69 18 69 -6 0 -17 -15 -24 -32z"/>
<path d="M1098 2113 c-10 -11 -18 -25 -18 -31 0 -7 -4 -12 -10 -12 -5 0 -10
-4 -10 -8 0 -15 29 -9 46 9 8 9 14 27 12 39 -3 22 -3 22 -20 3z"/>
<path d="M1121 2054 c-18 -30 -31 -58 -28 -61 3 -3 12 8 20 24 9 15 25 36 36
45 20 17 29 48 13 48 -4 0 -22 -25 -41 -56z"/>
<path d="M1002 2068 c-7 -7 -12 -16 -12 -21 0 -9 -78 -107 -94 -119 -5 -3 -15
-4 -21 -2 -13 5 -29 -23 -17 -29 10 -6 72 22 72 32 0 5 21 39 46 76 42 61 54
91 26 63z"/>
<path d="M522 2005 c-7 -15 -11 -30 -8 -32 7 -7 28 36 24 49 -2 6 -9 -2 -16
-17z"/>
<path d="M855 1969 c-4 -6 -5 -12 -2 -15 2 -3 7 2 10 11 7 17 1 20 -8 4z"/>
<path d="M957 1874 c-10 -13 -14 -24 -9 -24 13 0 35 27 30 39 -1 5 -11 -2 -21
-15z"/>
<path d="M1016 1773 c-6 -14 -5 -15 5 -6 7 7 10 15 7 18 -3 3 -9 -2 -12 -12z"/>
<path d="M1005 1639 c-9 -17 -15 -33 -13 -35 3 -2 12 12 21 31 21 43 13 47 -8
4z"/>
<path d="M911 1589 c-7 -12 -10 -23 -8 -26 3 -3 11 5 17 17 15 28 8 35 -9 9z"/>
<path d="M480 1563 c0 -5 -13 -24 -29 -42 -25 -28 -30 -30 -34 -14 -3 12 -5 8
-6 -10 -1 -22 3 -28 16 -25 19 3 69 85 59 95 -3 4 -6 2 -6 -4z"/>
<path d="M941 1535 c-17 -20 -28 -41 -25 -50 9 -22 11 -20 39 35 14 28 23 50
21 50 -2 0 -18 -16 -35 -35z"/>
<path d="M571 1514 c0 -11 3 -14 6 -6 3 7 2 16 -1 19 -3 4 -6 -2 -5 -13z"/>
<path d="M992 1409 c-7 -11 -11 -23 -9 -25 7 -7 29 24 25 36 -2 6 -9 1 -16
-11z"/>
<path d="M826 1334 c-11 -27 -7 -37 9 -24 16 14 20 40 6 40 -5 0 -12 -7 -15
-16z"/>
<path d="M1037 1181 c-15 -27 -27 -55 -27 -62 1 -8 10 4 21 25 14 26 23 35 29
27 5 -9 9 -3 13 16 9 48 -8 46 -36 -6z"/>
<path d="M532 1190 c0 -14 2 -19 5 -12 2 6 2 18 0 25 -3 6 -5 1 -5 -13z"/>
<path d="M1099 1175 c-17 -28 -60 -177 -56 -192 3 -12 5 -8 6 9 0 15 6 30 11
33 6 3 10 14 10 24 0 9 9 36 21 60 11 23 19 50 17 59 -2 9 -6 13 -9 7z"/>
<path d="M1051 1134 c0 -11 3 -14 6 -6 3 7 2 16 -1 19 -3 4 -6 -2 -5 -13z"/>
<path d="M492 1074 c-15 -38 -19 -60 -13 -72 7 -13 11 -8 19 23 15 59 24 105
20 105 -2 0 -13 -25 -26 -56z"/>
<path d="M685 969 c-4 -6 -5 -12 -2 -15 2 -3 7 2 10 11 7 17 1 20 -8 4z"/>
<path d="M995 910 c-4 -12 -5 -24 -2 -27 3 -2 8 5 12 17 4 12 5 24 2 27 -3 2
-8 -5 -12 -17z"/>
<path d="M1195 908 c-2 -7 -13 -38 -24 -68 -18 -51 -37 -150 -28 -140 6 6 77
205 77 214 0 11 -21 6 -25 -6z"/>
<path d="M931 854 c0 -11 3 -14 6 -6 3 7 2 16 -1 19 -3 4 -6 -2 -5 -13z"/>
<path d="M972 831 c-7 -21 -12 -45 -11 -52 0 -8 7 8 15 35 9 26 13 50 11 52
-2 2 -9 -13 -15 -35z"/>
<path d="M1225 780 c-4 -17 -5 -34 -2 -36 2 -3 7 10 11 27 3 18 4 34 2 36 -2
3 -7 -10 -11 -27z"/>
<path d="M761 784 c0 -11 3 -14 6 -6 3 7 2 16 -1 19 -3 4 -6 -2 -5 -13z"/>
<path d="M1211 714 c0 -11 3 -14 6 -6 3 7 2 16 -1 19 -3 4 -6 -2 -5 -13z"/>
<path d="M650 695 c-13 -14 -18 -25 -12 -25 7 0 12 -8 12 -18 0 -24 8 -32 26
-25 19 7 18 23 -1 23 -19 0 -19 11 0 36 30 40 11 47 -25 9z"/>
<path d="M936 694 c-4 -14 -5 -29 -2 -31 3 -3 8 7 12 21 3 15 4 29 1 32 -2 3
-8 -7 -11 -22z"/>
<path d="M1125 648 c-37 -103 -40 -118 -26 -118 6 0 10 8 9 18 0 9 7 38 15 65
8 26 13 47 11 47 -3 0 -7 -6 -9 -12z"/>
<path d="M1192 630 c0 -14 2 -19 5 -12 2 6 2 18 0 25 -3 6 -5 1 -5 -13z"/>
<path d="M1097 435 c-3 -11 -8 -40 -11 -65 -5 -44 -5 -44 9 10 13 51 15 100 2
55z"/>
<path d="M2713 2383 c-34 -13 2 -55 38 -46 22 6 22 8 9 34 -11 19 -23 22 -47
12z"/>
<path d="M2597 2332 c-37 -4 -30 -24 12 -35 40 -10 63 -3 55 17 -6 17 -28 23
-67 18z"/>
<path d="M2695 2288 c-27 -17 -104 -57 -170 -90 -66 -33 -129 -64 -140 -70
-11 -6 -63 -32 -115 -59 -53 -26 -122 -65 -155 -86 -33 -22 -98 -60 -145 -85
-83 -44 -193 -108 -315 -182 -33 -20 -70 -39 -82 -42 -25 -7 -32 -44 -9 -44 8
0 63 29 123 65 59 36 112 65 117 65 5 0 18 8 28 17 24 22 72 50 170 102 42 22
106 60 141 83 35 24 124 72 197 108 313 152 435 217 435 231 0 23 -28 19 -80
-13z"/>
<path d="M2434 2296 c-3 -8 0 -24 6 -36 16 -30 8 -34 -35 -20 -49 16 -68 8
-55 -24 8 -21 5 -28 -17 -46 -27 -21 -53 -26 -53 -11 0 17 -64 4 -116 -23 -29
-14 -57 -26 -63 -26 -6 0 -11 -13 -11 -29 0 -36 -22 -56 -47 -43 -66 34 -71
35 -98 18 -31 -20 -32 -41 -4 -57 21 -11 21 -11 -6 -29 -21 -14 -34 -16 -52
-9 -34 13 -34 12 -27 -18 7 -27 6 -28 -13 -10 -26 23 -43 22 -43 -3 0 -17 -7
-20 -40 -20 -32 0 -47 -6 -70 -30 -17 -17 -30 -39 -30 -48 0 -19 -27 -62 -38
-62 -4 0 -8 12 -9 27 -3 55 -63 66 -63 12 0 -19 -5 -29 -15 -29 -20 0 -19 -20
3 -48 16 -21 22 -22 62 -13 28 6 51 18 60 33 17 26 60 68 107 105 29 22 36 24
67 13 42 -13 56 -7 56 24 0 18 9 26 41 36 23 8 45 24 53 38 11 21 14 22 25 8
23 -28 49 -18 86 32 19 26 35 52 35 57 0 6 13 17 29 27 26 14 32 14 50 2 14
-10 32 -13 56 -8 42 8 111 55 120 83 5 16 16 21 53 23 39 2 48 7 50 24 2 11
-4 27 -13 34 -16 13 -20 30 -7 30 5 0 16 -16 25 -35 11 -24 21 -33 32 -29 21
8 19 43 -2 51 -10 4 -24 15 -31 25 -16 21 -50 24 -58 4z"/>
<path d="M1838 2157 c-81 -37 -56 -86 25 -51 62 26 68 33 56 55 -12 23 -22 23
-81 -4z"/>
<path d="M2597 2050 c-59 -20 -124 -49 -145 -64 -21 -14 -41 -26 -44 -26 -26
0 -374 -180 -419 -217 -8 -7 -22 -13 -30 -13 -15 0 -162 -80 -239 -130 -54
-35 -127 -70 -146 -70 -19 0 -18 -19 2 -27 16 -6 147 58 219 107 22 15 80 47
128 71 118 59 141 71 147 79 16 20 109 72 205 114 61 27 137 61 170 76 33 15
77 33 98 39 20 7 37 17 37 22 0 5 6 9 13 9 12 0 124 53 135 65 12 12 -30 1
-131 -35z"/>
<path d="M1658 2054 c-68 -48 -38 -83 32 -39 26 17 40 32 38 43 -5 26 -30 25
-70 -4z"/>
<path d="M2745 1994 c-29 -22 -133 -74 -148 -74 -18 0 -177 -65 -258 -105
-100 -49 -146 -77 -359 -218 -204 -135 -277 -177 -308 -177 -10 0 -26 -6 -36
-13 -16 -12 -16 -14 -2 -26 12 -10 23 -9 58 7 49 21 243 141 273 169 34 30
219 153 232 153 6 0 13 3 15 8 5 11 50 36 176 98 88 43 121 55 145 51 26 -4
52 6 127 48 95 53 148 95 119 95 -8 0 -23 -7 -34 -16z"/>
<path d="M1447 1937 c-38 -34 -45 -45 -35 -55 17 -17 21 -16 72 19 47 31 50
36 40 63 -9 24 -25 19 -77 -27z"/>
<path d="M2730 1905 c-36 -24 -95 -56 -132 -71 -38 -15 -68 -33 -68 -40 0 -8
-44 -34 -97 -60 -54 -25 -100 -49 -103 -53 -3 -3 -16 -12 -30 -18 -57 -28
-130 -71 -202 -120 -100 -68 -257 -161 -335 -197 -35 -17 -63 -36 -63 -43 0
-7 4 -13 9 -13 36 0 242 117 347 198 45 34 87 62 93 62 6 0 11 4 11 10 0 5 11
12 25 16 14 3 25 10 25 15 0 5 5 9 12 9 6 0 19 6 27 14 25 22 181 99 188 92 4
-3 1 -6 -5 -6 -7 0 -12 -7 -12 -15 0 -21 9 -19 55 15 22 17 55 39 73 51 17 12
32 26 32 33 0 6 30 26 68 44 61 30 181 122 157 121 -5 0 -39 -20 -75 -44z"/>
<path d="M1495 1718 c10 -32 21 -42 40 -34 15 5 14 8 -2 31 -23 32 -47 33 -38
3z"/>
<path d="M2480 1658 c-74 -38 -140 -75 -146 -84 -7 -8 -16 -14 -20 -13 -5 2
-24 -6 -43 -17 -104 -60 -167 -98 -171 -104 -10 -15 -187 -126 -263 -166 -60
-31 -75 -43 -65 -52 24 -19 122 38 417 242 40 28 102 67 136 86 34 19 88 50
120 67 67 38 101 50 91 34 -4 -6 -14 -11 -22 -11 -8 0 -14 -7 -14 -15 0 -9 6
-12 18 -8 26 10 82 54 82 66 0 5 7 15 17 22 9 7 12 14 7 17 -5 3 -70 -26 -144
-64z"/>
<path d="M2135 1083 c-14 -26 -29 -60 -32 -75 -3 -16 -9 -28 -13 -28 -4 0 -13
-13 -20 -30 -7 -16 -16 -30 -21 -30 -4 0 -11 -9 -14 -20 -7 -22 -52 -56 -62
-47 -3 4 17 32 44 64 54 62 68 92 58 123 -5 16 -10 18 -31 8 -13 -6 -24 -15
-24 -19 0 -9 -67 -50 -104 -64 -16 -5 -38 -22 -49 -37 l-20 -26 22 -36 c15
-23 30 -36 44 -36 18 0 15 -4 -16 -26 -31 -20 -36 -28 -27 -40 8 -9 18 -11 29
-5 9 5 28 7 42 4 20 -4 32 3 55 29 31 35 188 133 271 169 59 26 55 23 47 43
-4 10 -15 16 -28 14 -11 -2 -29 5 -38 14 -20 20 -55 13 -63 -12 -3 -10 -12
-21 -20 -23 -11 -5 -11 -1 0 26 18 44 23 99 9 104 -7 2 -24 -18 -39 -44z m75
-103 c-33 -26 -48 -26 -25 0 10 11 25 20 34 20 12 0 9 -6 -9 -20z m-108 -40
c-4 -29 -18 -47 -28 -38 -4 4 24 68 30 68 1 0 1 -14 -2 -30z"/>
<path d="M2356 1051 c-3 -5 1 -14 8 -20 16 -13 32 2 21 19 -8 12 -22 13 -29 1z"/>
<path d="M2683 630 c-32 -40 -28 -47 7 -13 29 27 38 44 23 42 -5 0 -18 -13
-30 -29z"/>
<path d="M2284 428 l-19 -23 23 19 c21 18 27 26 19 26 -2 0 -12 -10 -23 -22z"/>
<path d="M2190 370 c0 -5 5 -10 11 -10 5 0 7 5 4 10 -3 6 -8 10 -11 10 -2 0
-4 -4 -4 -10z"/>
<path d="M1281 444 c0 -11 3 -14 6 -6 3 7 2 16 -1 19 -3 4 -6 -2 -5 -13z"/>
<path d="M3132 2940 c1 -63 7 -176 15 -250 7 -74 18 -180 23 -235 5 -55 9
-232 10 -393 0 -161 5 -336 12 -388 9 -72 9 -97 0 -106 -16 -16 -15 -28 3 -28
13 0 15 -38 14 -302 -2 -193 2 -323 9 -358 13 -62 39 -305 52 -480 10 -143 46
-270 76 -270 6 0 14 -8 17 -19 6 -25 60 -32 198 -25 81 4 110 2 99 -5 -8 -6
-36 -11 -62 -11 -28 0 -48 -5 -48 -11 0 -6 7 -8 16 -5 9 3 38 6 65 6 l49 0 0
93 0 93 -30 11 c-33 12 -39 33 -15 53 18 15 30 6 38 -25 3 -11 5 -1 6 23 1 27
-3 42 -11 42 -9 0 -9 3 0 12 14 14 16 88 3 88 -5 0 -32 -25 -59 -55 -28 -30
-58 -55 -67 -55 -19 0 -75 31 -75 41 0 4 -9 9 -20 12 -29 7 -34 32 -13 61 10
14 21 26 25 26 4 0 31 -18 60 -40 59 -45 63 -46 72 -25 4 10 -2 19 -18 25 -13
5 -40 23 -60 41 -35 30 -36 33 -20 50 22 25 36 24 62 -3 29 -32 88 -62 106
-55 22 9 8 37 -18 37 -12 0 -37 13 -56 29 -35 29 -35 29 -16 50 25 28 34 27
73 -11 30 -29 33 -30 33 -11 0 12 -11 30 -25 41 -30 24 -31 28 -5 35 19 5 37
33 28 43 -8 7 -99 -47 -111 -67 -7 -11 -17 -19 -23 -19 -19 0 -62 -38 -124
-111 l-59 -69 -7 34 c-9 51 1 71 67 127 32 29 57 54 54 57 -2 3 16 21 40 40
25 19 45 38 45 43 0 5 14 16 32 25 17 9 40 25 51 35 12 10 24 19 29 19 4 0 8
12 8 28 0 15 -4 22 -8 17 -4 -6 -20 -19 -37 -29 -46 -29 -142 -112 -221 -191
l-70 -70 2 70 c2 38 3 74 3 78 1 5 5 6 10 2 6 -3 38 20 73 51 65 58 80 70 186
139 45 29 61 46 62 63 0 20 -2 21 -22 10 -13 -7 -25 -16 -28 -19 -3 -3 -18
-13 -35 -22 -16 -8 -41 -27 -54 -41 -14 -14 -30 -26 -36 -26 -6 0 -42 -31 -80
-69 -38 -39 -73 -68 -77 -65 -4 3 -8 27 -8 53 0 41 5 51 39 85 22 21 48 43 59
50 12 6 60 38 108 71 48 33 97 66 110 73 17 9 24 22 24 44 l0 31 -26 -24 c-26
-24 -26 -24 -15 -2 18 36 7 28 -61 -40 -80 -80 -108 -103 -108 -89 0 6 38 50
85 98 46 48 82 91 79 96 -3 4 2 11 11 15 10 3 21 0 26 -8 6 -9 9 2 9 33 l0 47
-35 -21 c-20 -11 -38 -19 -40 -16 -2 2 14 25 36 51 34 39 40 53 37 83 l-3 36
-52 -36 c-29 -20 -50 -30 -47 -23 2 6 27 27 54 46 43 29 50 38 50 67 0 27 -3
32 -17 28 -17 -5 -17 -5 -1 8 15 13 17 54 18 456 l0 442 -25 10 c-47 18 -143
89 -177 131 -18 22 -53 65 -78 94 -64 75 -80 126 -93 293 l-11 143 -73 -2
c-63 -1 -73 -4 -68 -18 11 -37 25 -215 25 -336 0 -88 3 -125 10 -115 7 10 9
-10 9 -65 -2 -78 -2 -79 -10 -30 -16 89 -30 216 -43 395 l-14 175 0 -115z m65
-262 c-3 -8 -6 -5 -6 6 -1 11 2 17 5 13 3 -3 4 -12 1 -19z m60 -980 c-3 -7 -5
-2 -5 12 0 14 2 19 5 13 2 -7 2 -19 0 -25z m351 -101 c-18 -19 -59 -40 -64
-34 -5 5 56 47 69 47 5 0 2 -6 -5 -13z m-163 -28 c-3 -4 -20 -12 -37 -18 -33
-11 -33 -11 -11 7 20 18 57 26 48 11z m30 -44 c-28 -23 -45 -31 -45 -21 0 5
63 46 70 46 3 0 -8 -11 -25 -25z m-115 5 c0 -5 -5 -10 -11 -10 -5 0 -7 5 -4
10 3 6 8 10 11 10 2 0 4 -4 4 -10z m-55 -29 c3 -5 1 -12 -5 -16 -5 -3 -10 1
-10 9 0 18 6 21 15 7z m110 -11 c-3 -5 -11 -10 -16 -10 -6 0 -7 5 -4 10 3 6
11 10 16 10 6 0 7 -4 4 -10z m65 -20 c0 -5 -5 -10 -11 -10 -5 0 -7 5 -4 10 3
6 8 10 11 10 2 0 4 -4 4 -10z m-145 -40 c-4 -12 -9 -19 -12 -17 -3 3 -2 15 2
27 4 12 9 19 12 17 3 -3 2 -15 -2 -27z m118 0 c-3 -12 -18 -27 -34 -35 -38
-20 -41 -19 -27 7 26 45 71 66 61 28z m98 -32 c-13 -10 -28 -18 -35 -18 -6 0
1 8 17 18 15 10 24 22 20 27 -5 4 -2 5 6 0 12 -7 10 -12 -8 -27z m-190 -35
c-12 -20 -14 -14 -5 12 4 9 9 14 11 11 3 -2 0 -13 -6 -23z m-50 -54 c-9 -23
-10 -23 -10 -2 -1 12 2 30 6 40 6 15 8 15 11 2 1 -8 -2 -26 -7 -40z m47 -9 c0
-16 -5 -33 -12 -37 -7 -5 -16 -19 -19 -33 -5 -22 -5 -23 7 -7 19 25 29 21 21
-10 -8 -32 -23 -53 -37 -53 -6 0 -5 7 2 15 9 10 9 15 1 15 -13 0 -15 76 -2 85
5 3 12 19 16 35 8 37 22 31 23 -10z m177 0 c-3 -5 -12 -10 -18 -10 -7 0 -6 4
3 10 19 12 23 12 15 0z m-70 -50 c-10 -11 -20 -18 -23 -15 -7 6 18 35 31 35 5
0 2 -9 -8 -20z m93 -43 c-54 -56 -157 -123 -139 -89 14 25 61 72 71 72 6 0 10
-6 10 -12 1 -7 7 -1 16 14 13 26 83 82 92 74 2 -2 -21 -29 -50 -59z m-48 9 c0
-2 -7 -7 -16 -10 -8 -3 -12 -2 -9 4 6 10 25 14 25 6z m-2 -168 c-92 -92 -130
-123 -150 -124 -26 -2 -26 -1 -8 18 10 11 23 17 29 14 5 -4 24 12 42 33 35 45
187 181 201 181 5 0 -46 -55 -114 -122z m-264 -55 c3 -70 11 -132 16 -137 6
-6 10 -60 9 -121 l-1 -110 -13 85 c-30 190 -35 229 -35 310 -2 110 -1 112 8
106 5 -3 12 -63 16 -133z m136 113 c0 -2 -8 -10 -17 -17 -16 -13 -17 -12 -4 4
13 16 21 21 21 13z m75 -42 c-16 -14 -50 -44 -74 -67 -32 -30 -46 -38 -49 -27
-6 17 71 88 111 102 15 6 27 15 27 21 0 6 3 7 8 3 4 -4 -6 -19 -23 -32z m-107
-194 c-14 -22 -24 -19 -15 5 4 8 11 15 17 15 6 0 6 -7 -2 -20z m-81 -282 c-3
-8 -6 -5 -6 6 -1 11 2 17 5 13 3 -3 4 -12 1 -19z m189 -234 c63 -42 72 -53 53
-65 -9 -6 -18 -3 -25 6 -15 21 -24 19 -24 -5 0 -19 -2 -19 -39 6 -42 27 -62
71 -39 85 18 12 13 13 74 -27z m-35 -82 c27 -22 33 -48 12 -56 -8 -3 -11 -10
-8 -16 3 -5 2 -10 -3 -10 -8 0 -42 75 -42 93 0 12 17 8 41 -11z m193 -27 c21
-21 22 -25 8 -25 -21 0 -42 19 -42 37 0 18 6 16 34 -12z m-44 -15 c0 -16 -7
-20 -32 -20 l-33 1 24 19 c30 25 41 25 41 0z"/>
<path d="M3330 2986 c0 -167 65 -323 182 -439 27 -26 46 -52 43 -57 -4 -6 2
-13 12 -16 29 -9 36 -13 68 -33 17 -11 33 -20 38 -20 4 -1 7 23 7 52 0 42 -4
55 -21 65 l-21 14 21 14 c16 12 21 26 21 60 0 25 -5 44 -11 44 -7 0 -9 13 -5
38 4 20 9 64 11 97 l5 60 -30 -85 c-52 -148 -61 -170 -71 -164 -18 10 -90 115
-106 152 -9 20 -24 64 -33 98 l-16 60 55 -4 c57 -4 138 -16 179 -28 21 -6 22
-4 22 56 0 60 -1 62 -22 56 -13 -4 -36 -9 -53 -12 l-30 -5 35 30 c29 26 31 31
14 31 -11 0 -44 -16 -74 -36 -30 -20 -66 -40 -80 -44 -14 -4 -33 -11 -44 -15
-16 -7 -18 -3 -15 44 l4 51 -42 0 -43 0 0 -64z m320 -340 c0 -3 -4 -8 -10 -11
-5 -3 -10 -1 -10 4 0 6 5 11 10 11 6 0 10 -2 10 -4z"/>
<path d="M2324 2999 c-4 -8 6 -10 35 -6 56 6 64 17 13 17 -22 0 -44 -5 -48
-11z"/>
<path d="M1388 2983 c7 -3 16 -2 19 1 4 3 -2 6 -13 5 -11 0 -14 -3 -6 -6z"/>
<path d="M3544 2825 c-7 -17 4 -37 17 -30 12 8 12 45 -1 45 -6 0 -13 -7 -16
-15z"/>
<path d="M2993 1730 c0 -30 2 -43 4 -27 2 15 2 39 0 55 -2 15 -4 2 -4 -28z"/>
<path d="M5 1230 c1 -239 5 -453 8 -474 3 -22 1 -49 -3 -62 -6 -16 -4 -33 7
-55 12 -24 13 -34 5 -37 -7 -2 -12 -10 -12 -18 0 -9 5 -12 10 -9 6 4 10 -7 10
-27 0 -18 2 -53 5 -78 3 -25 7 -92 9 -150 1 -58 8 -116 14 -130 12 -25 11 113
-3 390 -3 52 -12 250 -21 440 -31 659 -32 668 -29 210z"/>
<path d="M3001 1394 c0 -11 3 -14 6 -6 3 7 2 16 -1 19 -3 4 -6 -2 -5 -13z"/>
<path d="M12 203 c0 -30 2 -34 8 -18 11 26 12 55 2 55 -5 0 -9 -17 -10 -37z"/>
<path d="M73 60 c0 -36 2 -50 4 -32 2 17 2 47 0 65 -2 17 -4 3 -4 -33z"/>
<path d="M1668 93 c6 -2 18 -2 25 0 6 3 1 5 -13 5 -14 0 -19 -2 -12 -5z"/>
</g>
</svg>
