<?xml version="1.0" standalone="no"?>
<!DOCTYPE svg PUBLIC "-//W3C//DTD SVG 20010904//EN"
 "http://www.w3.org/TR/2001/REC-SVG-20010904/DTD/svg10.dtd">
<svg version="1.0" xmlns="http://www.w3.org/2000/svg"
 width="227.000000pt" height="868.000000pt" viewBox="0 0 227.000000 868.000000"
 preserveAspectRatio="xMidYMid meet">
<metadata>
Created by potrace 1.16, written by Peter Selinger 2001-2019
</metadata>
<g transform="translate(0.000000,868.000000) scale(0.100000,-0.100000)"
fill="#000000" stroke="none">
<path d="M1310 8628 c0 -10 -51 -13 -251 -14 -376 -2 -726 -13 -793 -25 -32
-6 -69 -8 -82 -5 -43 11 -41 33 -48 -594 -3 -256 -9 -494 -15 -530 -6 -36 -13
-121 -16 -189 -3 -68 -11 -145 -18 -170 -8 -33 -12 -251 -13 -791 -1 -410 -4
-801 -7 -870 -3 -69 -11 -228 -17 -355 -6 -126 -13 -283 -16 -349 -2 -65 -10
-128 -17 -140 -9 -16 -13 -525 -15 -2262 l-3 -2242 58 -7 c32 -4 132 -9 223
-10 187 -4 412 -14 417 -19 2 -1 45 -1 96 0 51 2 144 0 207 -5 63 -4 126 -4
140 0 17 5 5 8 -40 8 -41 1 -60 5 -51 10 7 5 84 9 170 9 101 0 145 -3 126 -9
-28 -8 63 -4 170 6 94 10 187 8 285 -4 58 -8 123 -15 146 -16 23 -1 45 -5 51
-8 18 -11 33 10 34 49 0 21 0 106 0 188 -1 87 3 153 9 161 6 8 7 39 1 91 -5
43 -7 270 -5 504 5 548 8 633 16 646 5 8 16 440 20 844 2 139 2 556 0 630 -2
54 4 123 12 160 8 36 15 98 16 139 0 41 4 79 7 84 3 5 7 80 8 166 4 201 23
656 31 700 3 19 5 154 4 300 -3 497 1 806 10 886 4 44 11 125 14 180 6 102 12
168 20 240 3 22 8 141 11 265 4 124 11 272 16 330 11 133 12 266 0 288 -5 10
-5 60 0 117 4 55 11 215 13 355 3 140 8 354 12 475 3 121 1 294 -5 385 -6 104
-7 168 -1 174 13 13 13 126 1 145 -7 10 -34 15 -88 18 -43 1 -121 7 -173 13
-52 6 -182 15 -288 20 -106 5 -196 11 -200 14 -4 2 -39 7 -77 10 -39 4 -78 9
-87 12 -11 3 -18 0 -18 -8z m-63 -34 c-3 -3 -12 -4 -19 -1 -8 3 -5 6 6 6 11 1
17 -2 13 -5z m83 -53 c0 -10 -24 -21 -43 -21 -7 0 -3 7 7 15 22 17 36 19 36 6z
m187 -5 c9 -8 -34 -46 -76 -68 -14 -7 -44 -25 -65 -40 -21 -16 -44 -28 -51
-28 -10 0 -75 -89 -75 -103 0 -3 -18 -33 -40 -66 -22 -33 -40 -71 -40 -85 0
-13 -16 -48 -36 -77 -23 -33 -39 -70 -42 -96 -2 -24 -11 -48 -18 -54 -8 -6
-14 -18 -14 -26 0 -8 -11 -33 -24 -56 -40 -70 -56 -187 -25 -187 5 0 9 -9 9
-20 0 -11 -7 -20 -15 -20 -9 0 -12 6 -8 18 6 16 5 16 -14 0 -11 -10 -23 -18
-27 -18 -4 0 -22 -11 -40 -25 -35 -27 -52 -32 -40 -13 8 12 11 30 18 98 1 19
12 53 23 75 11 22 23 56 27 75 3 20 14 47 23 60 26 37 123 232 123 247 0 8 6
16 14 19 7 3 16 23 20 44 8 49 70 142 177 265 l84 96 62 -3 c34 -2 66 -7 70
-12z m278 -46 c-3 -5 -11 -10 -16 -10 -6 0 -7 5 -4 10 3 6 11 10 16 10 6 0 7
-4 4 -10z m-575 -85 c-7 -9 -15 -13 -18 -10 -3 2 1 11 8 20 7 9 15 13 18 10 3
-2 -1 -11 -8 -20z m-700 5 c0 -5 -5 -10 -11 -10 -5 0 -7 5 -4 10 3 6 8 10 11
10 2 0 4 -4 4 -10z m320 -30 c0 -5 -2 -10 -4 -10 -3 0 -8 5 -11 10 -3 6 -1 10
4 10 6 0 11 -4 11 -10z m284 -24 c-3 -9 -13 -16 -22 -16 -13 0 -12 3 3 20 20
23 29 21 19 -4z m651 -88 c-27 -24 -65 -51 -85 -60 -31 -14 -74 -55 -120 -115
-5 -6 -17 -17 -27 -25 -10 -7 -37 -34 -60 -60 -29 -32 -40 -52 -36 -66 3 -14
-5 -31 -26 -54 -17 -18 -38 -47 -46 -65 -19 -39 -35 -51 -27 -21 5 21 4 22
-12 9 -41 -34 -76 -177 -76 -310 0 -55 -8 -117 -20 -167 -28 -108 -31 -115
-41 -79 -31 115 -33 127 -21 146 21 34 54 201 47 245 -6 44 10 94 30 94 7 0
25 26 40 58 15 31 33 64 40 72 7 8 23 40 36 70 12 30 35 71 51 91 15 20 28 40
28 44 0 4 44 49 97 101 67 65 108 97 132 104 20 5 52 13 71 18 70 20 75 14 25
-30z m170 -47 c-3 -6 -11 -11 -17 -11 -6 0 -6 6 2 15 14 17 26 13 15 -4z m195
-104 c0 -2 -9 -12 -20 -22 -17 -16 -20 -16 -20 -2 0 8 8 18 18 20 9 3 18 5 20
6 1 0 2 -1 2 -2z m-1187 -27 c-3 -10 -12 -25 -21 -32 -13 -11 -12 -8 2 20 19
36 27 41 19 12z m224 -22 c-3 -7 -5 -2 -5 12 0 14 2 19 5 13 2 -7 2 -19 0 -25z
m-312 -58 c3 -5 -1 -10 -10 -10 -9 0 -13 5 -10 10 3 6 8 10 10 10 2 0 7 -4 10
-10z m655 1 c0 -12 -20 -25 -27 -18 -7 7 6 27 18 27 5 0 9 -4 9 -9z m377 -23
c-3 -8 -6 -5 -6 6 -1 11 2 17 5 13 3 -3 4 -12 1 -19z m-1190 -50 c-3 -7 -5 -2
-5 12 0 14 2 19 5 13 2 -7 2 -19 0 -25z m1190 -10 c-3 -7 -5 -2 -5 12 0 14 2
19 5 13 2 -7 2 -19 0 -25z m-670 -60 c-3 -8 -6 -5 -6 6 -1 11 2 17 5 13 3 -3
4 -12 1 -19z m-970 -10 c-3 -8 -6 -5 -6 6 -1 11 2 17 5 13 3 -3 4 -12 1 -19z
m174 -135 c-8 -13 -10 4 -9 67 l1 85 9 -67 c6 -45 6 -74 -1 -85z m361 77 c-2
-22 -8 -42 -12 -45 -5 -3 -7 7 -6 22 2 16 4 36 5 46 0 9 4 17 9 17 4 0 6 -18
4 -40z m-335 -32 c-3 -7 -5 -2 -5 12 0 14 2 19 5 13 2 -7 2 -19 0 -25z m617
-3 c-4 -8 -8 -15 -10 -15 -2 0 -4 7 -4 15 0 8 4 15 10 15 5 0 7 -7 4 -15z
m-403 -78 c-13 -13 -15 15 -3 53 7 24 7 23 10 -9 2 -18 -1 -38 -7 -44z m-318
-7 c-7 -28 -13 -25 -13 6 0 14 4 23 9 20 5 -3 7 -15 4 -26z m417 15 c-7 -8
-17 -15 -22 -15 -6 0 -5 7 2 15 7 8 17 15 22 15 6 0 5 -7 -2 -15z m549 -79
c-9 -8 -10 -5 -5 14 3 14 6 32 7 40 1 8 4 2 6 -14 3 -16 -1 -34 -8 -40z m-664
-1 c-3 -26 -9 -45 -12 -42 -2 3 -1 26 2 52 4 25 10 44 12 41 3 -3 2 -26 -2
-51z m-165 23 c0 -18 -2 -20 -9 -8 -6 8 -7 18 -5 22 9 14 14 9 14 -14z m1517
-40 c-3 -8 -6 -5 -6 6 -1 11 2 17 5 13 3 -3 4 -12 1 -19z m-1315 -30 c-9 -9
-12 -7 -12 12 0 19 3 21 12 12 9 -9 9 -15 0 -24z m-216 -36 c-11 -10 -14 3 -8
33 l7 30 3 -28 c2 -16 1 -31 -2 -35z m582 11 c25 -60 29 -75 41 -138 8 -44 8
-48 -5 -31 -8 11 -14 28 -14 37 0 10 -4 21 -10 24 -14 9 -13 -5 5 -55 8 -24
13 -45 11 -47 -8 -9 -33 52 -40 97 -4 25 -8 54 -10 65 -2 11 -4 33 -5 49 -1
24 -3 27 -16 16 -8 -7 -15 -29 -15 -49 -1 -32 -2 -34 -14 -18 -16 20 -36 22
-36 3 0 -7 6 -32 14 -54 10 -29 12 -51 5 -80 -5 -25 -5 -51 0 -65 16 -41 0
-39 -30 3 -16 22 -34 41 -39 42 -6 0 -15 1 -21 2 -15 1 -66 -159 -78 -245 -5
-39 -11 -72 -13 -74 -2 -2 -17 -6 -33 -10 -22 -5 -26 -4 -16 3 8 6 16 23 17
39 1 15 9 81 18 147 10 65 15 121 12 124 -4 3 -6 -2 -6 -12 0 -9 -7 -49 -16
-88 -12 -53 -19 -67 -25 -55 -12 20 -4 68 12 77 7 5 10 24 7 49 -2 22 0 41 5
41 4 0 12 10 17 23 9 22 9 22 10 -3 1 -23 2 -23 11 -7 6 11 8 37 5 61 -7 47
-7 47 124 133 85 57 102 56 128 -4z m-228 -48 c-7 -9 -15 -13 -19 -10 -3 3 1
10 9 15 21 14 24 12 10 -5z m1128 -83 c-4 -2 -8 -15 -8 -29 0 -15 -3 -24 -6
-21 -3 4 -2 28 2 55 6 40 9 44 14 23 3 -14 3 -26 -2 -28z m-828 10 c0 -15 -2
-15 -10 -2 -13 20 -13 33 0 25 6 -3 10 -14 10 -23z m-120 -8 c0 -8 5 -14 10
-14 6 0 10 -11 10 -24 0 -13 7 -30 16 -37 9 -7 27 -37 40 -66 14 -29 30 -53
37 -53 7 0 20 -16 29 -35 15 -31 16 -37 3 -62 -8 -15 -15 -21 -15 -13 0 11 -3
11 -12 2 -9 -9 -19 8 -45 76 -57 149 -72 192 -65 192 4 0 2 4 -4 8 -15 10 -30
57 -15 48 6 -4 11 -14 11 -22z m-292 -6 c-7 -13 -12 -27 -13 -31 0 -5 -8 -14
-17 -21 -10 -7 -18 -18 -18 -23 0 -17 -38 -22 -44 -7 -6 15 20 45 69 81 38 27
38 27 23 1z m1389 -30 c-3 -7 -5 -2 -5 12 0 14 2 19 5 13 2 -7 2 -19 0 -25z
m-975 -10 c-8 -8 -9 -4 -5 13 4 13 8 18 11 10 2 -7 -1 -18 -6 -23z m-652 -33
c0 -8 -4 -15 -10 -15 -5 0 -10 7 -10 15 0 8 5 15 10 15 6 0 10 -7 10 -15z
m681 -41 c4 -22 8 -55 8 -74 0 -28 -4 -21 -19 35 -22 83 -25 104 -9 88 6 -6
15 -28 20 -49z m944 16 c-9 -41 -17 -33 -9 9 4 17 9 30 11 27 3 -2 2 -19 -2
-36z m-1072 -47 c14 -43 35 -100 46 -127 20 -46 20 -93 1 -81 -5 3 -7 -9 -4
-27 4 -27 0 -39 -24 -64 -40 -44 -70 -59 -87 -44 -8 7 -19 9 -24 6 -5 -4 -12
-2 -15 3 -3 4 -18 11 -34 14 -15 3 -48 17 -72 32 l-45 26 35 -4 c19 -2 70 -10
113 -18 88 -15 109 -7 90 33 -36 75 -63 138 -67 160 -2 15 -9 35 -15 46 -6 11
-8 28 -4 38 5 13 3 16 -9 11 -12 -4 -19 3 -27 25 -6 17 -9 33 -7 35 7 8 85
-94 91 -120 4 -15 13 -27 19 -27 7 0 22 -17 34 -38 11 -21 31 -47 43 -58 l22
-19 -13 25 c-7 14 -28 49 -47 79 -27 42 -35 65 -37 112 -1 32 1 59 5 59 4 0
19 -35 32 -77z m87 13 c0 -6 -7 -1 -15 10 -8 10 -15 23 -15 28 0 6 7 1 15 -10
8 -10 15 -23 15 -28z m920 40 c0 -3 -4 -8 -10 -11 -5 -3 -10 -1 -10 4 0 6 5
11 10 11 6 0 10 -2 10 -4z m-1371 -93 c-18 -51 -29 -63 -29 -30 0 27 28 82 37
73 3 -2 -1 -22 -8 -43z m197 22 c-4 -10 2 -19 18 -25 13 -5 28 -21 34 -37 5
-15 26 -66 46 -112 20 -46 30 -79 23 -72 -8 6 -16 9 -19 6 -3 -3 -24 2 -48 10
-23 8 -56 15 -72 15 -27 0 -28 2 -24 38 3 20 5 47 5 59 1 12 8 29 18 38 10 10
12 19 6 23 -10 7 2 72 13 72 4 0 3 -7 0 -15z m-250 -22 c-21 -85 -28 -103 -41
-103 -12 0 -12 5 -1 38 18 49 38 92 44 92 2 0 1 -12 -2 -27z m964 -23 c0 -5
-4 -10 -10 -10 -5 0 -10 5 -10 10 0 6 5 10 10 10 6 0 10 -4 10 -10z m242 -60
c-6 -41 -12 -38 -12 6 0 19 4 33 8 30 5 -3 7 -19 4 -36z m-1405 -12 c-3 -7 -5
-2 -5 12 0 14 2 19 5 13 2 -7 2 -19 0 -25z m239 -68 c8 0 14 -4 14 -10 0 -12
-20 -13 -39 -1 -10 7 -12 18 -5 47 l8 39 4 -37 c2 -25 8 -38 18 -38z m84 26
c0 -13 -7 -27 -16 -30 -8 -3 -12 -10 -9 -16 3 -5 1 -10 -4 -10 -14 0 -14 21
-1 54 12 33 30 34 30 2z m883 -77 c-2 -109 -13 -114 -13 -6 0 48 3 87 8 87 4
0 6 -36 5 -81z m-193 43 c0 -4 -21 -18 -47 -31 -95 -49 -146 -85 -128 -91 13
-5 9 -10 -19 -25 -20 -11 -36 -23 -36 -27 0 -5 -8 -8 -17 -8 -16 0 -16 2 -3
11 13 9 13 10 0 6 -8 -2 -15 -9 -15 -15 0 -12 -34 -41 -49 -42 -5 0 -2 8 5 17
13 15 12 15 -12 0 -22 -15 -27 -15 -45 -2 -19 14 -18 15 6 35 14 10 39 24 55
31 17 6 53 23 80 37 77 40 220 112 223 112 1 0 2 -3 2 -8z m-910 -12 c0 -5 -4
-10 -10 -10 -5 0 -10 5 -10 10 0 6 5 10 10 10 6 0 10 -4 10 -10z m11 -106
c-10 -54 -20 -90 -22 -79 -4 17 10 108 25 165 3 8 5 17 5 19 1 2 3 2 6 -1 3
-2 -4 -49 -14 -104z m-330 61 c17 -19 35 -35 40 -35 14 0 10 26 -6 40 -29 24
-15 29 21 8 19 -11 82 -67 139 -123 109 -109 110 -112 106 -204 -2 -59 -15
-24 -14 42 0 50 -1 54 -6 23 -6 -37 -7 -38 -21 -21 -11 14 -12 19 -2 22 23 8
12 21 -42 52 -30 17 -62 44 -72 60 -10 16 -21 28 -26 25 -4 -3 -16 3 -27 13
-11 10 -44 38 -75 63 -30 25 -55 51 -56 58 0 19 8 14 41 -23z m484 4 c5 -5 16
-9 25 -9 29 1 209 -94 210 -110 0 -21 19 -40 34 -34 23 9 33 -50 27 -151 l-6
-100 -12 77 c-7 42 -10 83 -7 91 3 8 -2 21 -10 30 -9 9 -16 18 -16 22 0 8 -26
35 -34 35 -14 0 -4 -27 19 -54 19 -22 23 -37 20 -62 -2 -19 4 -67 14 -107 26
-100 22 -105 -76 -95 -100 11 -95 8 -98 48 -1 19 -4 40 -5 45 -6 24 1 79 8 68
6 -10 13 -9 29 2 26 18 38 62 22 81 -13 16 -30 9 -23 -10 3 -7 -2 -18 -9 -25
-22 -18 -32 17 -12 40 15 16 15 18 0 26 -9 6 -17 23 -17 41 -1 43 -15 40 -27
-5 -8 -28 -7 -39 2 -45 9 -6 9 -8 0 -8 -14 0 -27 -36 -17 -51 4 -8 9 -7 15 2
6 9 9 -4 9 -36 1 -27 3 -72 4 -100 5 -57 1 -66 -19 -58 -9 3 -15 19 -15 41 0
38 -11 38 -15 0 -1 -13 -3 -26 -4 -30 0 -5 -8 -8 -17 -8 -14 0 -16 14 -12 121
3 66 9 124 15 127 6 4 14 38 18 75 6 65 5 69 -19 94 -20 20 -29 24 -38 15 -19
-19 -28 -14 -28 13 0 23 3 25 28 19 15 -4 31 -11 37 -15z m-584 -164 l-9 -40
-1 45 c0 25 3 70 7 100 l7 55 3 -60 c1 -33 -1 -78 -7 -100z m470 50 c-6 -24
-11 -54 -11 -67 1 -19 3 -18 16 11 8 19 16 32 19 30 4 -5 -21 -92 -36 -124 -9
-19 -9 -18 -5 3 2 12 0 22 -5 22 -10 0 -5 45 13 140 6 30 13 49 15 42 3 -7 0
-33 -6 -57z m67 0 c-3 -14 -1 -28 3 -31 5 -3 9 -14 9 -25 0 -19 -1 -19 -17 -3
-18 17 -22 51 -9 72 12 20 19 14 14 -13z m-148 -45 c0 -5 -4 -10 -10 -10 -5 0
-10 5 -10 10 0 6 5 10 10 10 6 0 10 -4 10 -10z m140 -41 c0 -5 5 -7 10 -4 6 4
10 -9 9 -32 -1 -37 -1 -37 -11 -10 -5 15 -14 25 -19 21 -5 -3 -9 4 -9 15 0 12
5 21 10 21 6 0 10 -5 10 -11z m833 -53 c-15 -18 -40 -41 -54 -50 -15 -9 -60
-47 -100 -84 -99 -92 -194 -157 -246 -168 -15 -3 -25 23 -13 31 6 4 10 1 10
-4 0 -6 4 -11 9 -11 5 0 7 8 4 19 -6 22 53 62 323 224 35 21 44 31 35 40 -8 8
-4 14 17 23 43 20 46 16 15 -20z m-1376 -18 c-3 -7 -5 -2 -5 12 0 14 2 19 5
13 2 -7 2 -19 0 -25z m920 -10 c-3 -7 -5 -2 -5 12 0 14 2 19 5 13 2 -7 2 -19
0 -25z m980 -25 c-3 -10 -5 -2 -5 17 0 19 2 27 5 18 2 -10 2 -26 0 -35z m173
15 c0 -21 -3 -29 -10 -22 -5 5 -7 19 -4 32 9 31 14 27 14 -10z m-800 12 c-8
-5 -19 -10 -25 -10 -5 0 -3 5 5 10 8 5 20 10 25 10 6 0 3 -5 -5 -10z m-320
-20 c0 -5 -5 -10 -11 -10 -5 0 -7 5 -4 10 3 6 8 10 11 10 2 0 4 -4 4 -10z
m235 -20 c-3 -5 -12 -10 -18 -10 -7 0 -6 4 3 10 19 12 23 12 15 0z m-39 -29
c-4 -5 -21 -17 -39 -25 l-32 -16 33 31 c31 28 52 34 38 10z m-1076 -41 c0 -39
0 -39 58 -56 31 -9 79 -22 106 -30 62 -18 96 -17 120 1 11 8 23 15 28 15 15 0
8 -33 -9 -46 -15 -10 -16 -15 -5 -25 6 -7 12 -21 12 -31 0 -10 4 -18 8 -18 4
0 16 -28 26 -62 10 -35 21 -69 24 -77 3 -9 1 -12 -6 -7 -7 4 -19 33 -28 64
-25 88 -40 112 -71 112 -40 0 -179 49 -216 76 -17 13 -40 27 -49 30 -14 5 -17
17 -16 55 1 57 18 56 18 -1z m397 18 c-3 -7 -5 -2 -5 12 0 14 2 19 5 13 2 -7
2 -19 0 -25z m483 8 c0 -3 -4 -8 -10 -11 -5 -3 -10 -1 -10 4 0 6 5 11 10 11 6
0 10 -2 10 -4z m-395 -52 c-5 -61 -15 -69 -15 -12 0 38 5 58 16 58 1 0 1 -21
-1 -46z m1085 36 c0 -5 -55 -59 -122 -119 -68 -60 -160 -149 -206 -196 -82
-85 -82 -85 -107 -69 -31 20 -32 31 -2 45 12 5 32 26 45 45 13 20 26 33 29 30
3 -3 37 24 75 61 61 60 262 212 281 213 4 0 7 -4 7 -10z m-1181 -47 c0 -33 -1
-35 -9 -15 -8 20 -4 52 6 52 2 0 4 -17 3 -37z m61 -13 c0 -20 -5 -30 -15 -30
-18 0 -20 31 -3 48 17 17 18 16 18 -18z m-90 -40 c0 -5 -4 -10 -10 -10 -5 0
-10 5 -10 10 0 6 5 10 10 10 6 0 10 -4 10 -10z m235 0 c8 -13 -5 -13 -25 0
-13 8 -13 10 2 10 9 0 20 -4 23 -10z m-189 -22 c6 -23 20 -54 91 -208 22 -47
39 -97 38 -110 -2 -14 2 -31 8 -38 5 -7 7 -15 4 -18 -5 -5 -30 31 -32 46 0 3
-6 15 -13 26 -6 12 -8 24 -5 28 7 6 -44 113 -58 122 -18 11 -8 -27 26 -102 19
-42 33 -79 31 -81 -7 -7 -73 130 -86 176 -6 25 -23 61 -36 80 -13 20 -24 42
-23 51 0 10 2 11 6 3 8 -21 20 -15 18 10 -4 41 19 53 31 15z m316 10 c16 -10
-36 -9 -77 2 -26 7 -24 8 17 7 27 0 54 -4 60 -9z m-272 -24 c0 -8 -4 -12 -10
-9 -5 3 -10 13 -10 21 0 8 5 12 10 9 6 -3 10 -13 10 -21z m80 7 c0 -5 3 -17 7
-27 5 -13 3 -16 -10 -11 -26 10 -17 -24 19 -73 10 -13 61 -110 109 -207 8 -18
11 -33 6 -33 -5 0 -14 14 -21 30 -7 17 -19 30 -26 30 -8 0 -14 10 -14 23 0 12
-16 49 -35 82 -73 128 -77 137 -66 148 6 6 11 19 11 29 0 10 5 18 10 18 6 0
10 -4 10 -9z m74 -17 c3 -9 6 -24 6 -34 0 -10 6 -25 13 -32 7 -7 23 -35 36
-63 13 -27 28 -58 33 -68 5 -10 6 -23 2 -29 -4 -6 -1 -16 7 -22 12 -10 39 -89
39 -116 0 -16 -31 2 -41 24 -5 11 -13 28 -18 36 -6 8 -25 47 -43 85 -17 39
-42 86 -54 105 -13 21 -22 54 -23 83 -2 40 1 47 17 47 11 0 23 -7 26 -16z m91
-4 c4 -6 15 -8 26 -5 13 4 19 2 19 -9 0 -9 7 -16 15 -16 8 0 15 -5 15 -11 0
-5 5 -7 10 -4 16 10 71 -57 66 -78 -3 -14 -2 -16 9 -7 10 9 21 3 47 -26 18
-21 41 -46 51 -56 15 -16 14 -22 -5 -19 -8 1 -4 -46 5 -55 12 -13 -138 -143
-165 -144 -13 0 -9 48 4 52 6 2 8 10 4 17 -5 7 -14 10 -22 7 -9 -3 -17 8 -24
35 -6 22 -14 47 -17 56 -5 13 -1 15 20 9 15 -3 27 -4 27 -2 0 2 3 11 6 20 4
11 0 16 -15 16 -17 0 -20 4 -14 30 4 23 2 30 -11 30 -9 0 -16 -8 -16 -20 0
-23 -15 -27 -24 -5 -3 8 0 15 7 15 7 1 3 8 -8 18 -31 27 -55 87 -49 122 7 32
-11 44 -19 13 -4 -14 -5 -12 -6 5 -1 18 4 22 28 22 17 0 33 -5 36 -10z m159
-55 c6 3 21 -11 33 -30 12 -19 20 -35 18 -35 -2 0 -21 17 -42 38 -21 20 -34
34 -30 30 5 -3 15 -5 21 -3z m-344 -61 c16 -37 30 -72 30 -78 0 -16 -56 88
-64 118 -11 45 3 28 34 -40z m424 41 c-4 -8 -8 -15 -10 -15 -2 0 -4 7 -4 15 0
8 4 15 10 15 5 0 7 -7 4 -15z m729 -47 c-30 -53 -34 -59 -121 -144 -61 -60
-89 -80 -103 -77 -10 3 -19 9 -19 13 0 5 55 59 123 120 67 61 124 116 126 121
1 6 5 8 8 5 3 -2 -3 -19 -14 -38z m-1274 -48 c0 -8 -6 0 -14 19 -8 18 -15 38
-14 45 1 15 28 -46 28 -64z m-50 -51 c-16 -10 -23 -4 -14 10 3 6 11 8 17 5 6
-4 5 -9 -3 -15z m766 -19 c-3 -5 -10 -10 -16 -10 -5 0 -9 5 -9 10 0 6 7 10 16
10 8 0 12 -4 9 -10z m-741 -16 c9 -8 16 -19 16 -24 0 -11 -27 -20 -44 -14 -8
3 -17 1 -21 -5 -3 -7 -39 -11 -83 -10 l-77 0 83 29 c46 15 86 31 89 34 10 10
21 7 37 -10z m853 -26 c-3 -7 -5 -2 -5 12 0 14 2 19 5 13 2 -7 2 -19 0 -25z
m-70 8 c-4 -10 1 -12 16 -9 17 4 19 3 7 -6 -11 -8 -3 -15 40 -35 30 -14 60
-26 66 -26 5 0 23 -18 40 -40 16 -22 35 -38 42 -35 7 3 15 -2 18 -10 4 -8 12
-15 20 -15 8 0 14 -4 14 -9 0 -5 3 -17 6 -25 5 -12 2 -15 -10 -10 -8 3 -14 11
-13 17 3 13 -41 37 -70 37 -13 0 -31 8 -41 18 -10 10 -39 28 -65 40 -49 23
-63 43 -24 36 22 -4 22 -4 -1 6 -13 5 -29 7 -34 3 -7 -4 -8 -1 -3 7 5 8 1 18
-10 27 -24 16 -28 43 -8 43 9 0 13 -6 10 -14z m696 -1 c-3 -9 -8 -14 -10 -11
-3 3 -2 9 2 15 9 16 15 13 8 -4z m-1203 -55 c23 -44 27 -65 7 -35 -17 26 -38
75 -32 75 3 0 14 -18 25 -40z m1283 17 c-11 -19 -79 -77 -89 -77 -9 0 85 90
93 90 2 0 0 -6 -4 -13z m47 -9 c0 -17 -99 -108 -117 -108 -9 0 2 14 25 33 22
17 48 44 58 59 20 29 34 36 34 16z m-945 -18 c11 -12 22 -17 29 -12 6 5 22 5
36 1 25 -7 25 -7 2 -8 -29 -1 -24 -24 6 -26 12 -1 30 -8 39 -17 10 -8 26 -18
36 -21 11 -4 15 -12 11 -18 -4 -8 -3 -9 4 -5 13 8 60 -16 114 -57 20 -16 42
-26 48 -22 5 3 15 -6 20 -20 14 -37 13 -40 -10 -20 -10 9 -41 28 -68 40 -27
12 -78 43 -115 69 -63 44 -86 53 -100 40 -11 -11 26 -44 38 -34 8 7 24 -2 51
-26 21 -19 55 -42 74 -50 65 -29 165 -83 199 -106 24 -17 24 -18 6 -38 -23
-25 -37 -25 -60 0 -10 11 -23 20 -28 20 -6 0 -35 20 -65 45 -30 25 -58 43 -61
39 -3 -3 8 -17 24 -31 17 -13 54 -47 83 -75 l54 -51 -53 -53 c-38 -39 -56 -51
-65 -43 -9 7 -10 19 -3 41 11 41 2 52 -27 33 -24 -15 -26 -14 -92 40 -37 30
-71 59 -77 63 -83 60 -153 117 -150 121 3 2 28 -10 56 -28 67 -41 75 -33 12
13 -51 38 -110 63 -121 51 -9 -9 86 -95 161 -147 58 -39 163 -128 152 -128 -3
0 -19 7 -34 15 -27 14 -29 13 -24 -5 3 -11 1 -20 -4 -20 -11 0 -109 94 -148
144 -53 66 -97 106 -116 106 -9 0 -23 6 -32 13 -14 11 -9 19 48 70 64 57 65
58 90 41 14 -9 25 -12 25 -6 0 6 -9 16 -20 22 -20 10 -20 12 -3 35 22 30 35
31 58 5z m-1039 -37 c-11 -11 -17 4 -9 23 7 18 8 18 11 1 2 -10 1 -21 -2 -24z
m694 22 c0 -8 -2 -15 -4 -15 -2 0 -6 7 -10 15 -3 8 -1 15 4 15 6 0 10 -7 10
-15z m754 -1 c9 -3 16 -10 16 -15 0 -14 -34 -11 -56 6 -19 14 -19 14 3 15 12
0 28 -3 37 -6z m-287 -26 c-3 -8 -6 -5 -6 6 -1 11 2 17 5 13 3 -3 4 -12 1 -19z
m256 -17 c-4 -3 -11 -10 -15 -14 -3 -5 -11 0 -17 11 -9 17 -7 19 15 14 14 -2
22 -8 17 -11z m123 4 c25 -19 15 -19 -27 0 -25 10 -29 14 -13 15 11 0 29 -7
40 -15z m-316 -11 c0 -2 -7 -4 -15 -4 -8 0 -15 4 -15 10 0 5 7 7 15 4 8 -4 15
-8 15 -10z m-357 -25 c-17 -17 -36 -30 -43 -27 -7 2 5 16 26 30 51 35 55 34
17 -3z m-90 -9 c-3 -11 -9 -20 -14 -20 -10 0 -12 24 -2 33 13 13 21 7 16 -13z
m752 -19 c-7 -12 -55 11 -55 27 0 9 7 9 30 -3 17 -9 28 -20 25 -24z m282 33
c-3 -3 -12 -4 -19 -1 -8 3 -5 6 6 6 11 1 17 -2 13 -5z m-1177 -68 c0 -6 -7 -2
-15 8 -8 11 -15 25 -15 30 0 6 7 2 15 -8 8 -11 15 -25 15 -30z m815 -36 c98
-52 100 -54 81 -69 -13 -11 -21 -7 -48 18 -18 17 -44 34 -58 38 -14 3 -36 16
-50 29 -14 13 -36 33 -50 44 l-25 21 35 -19 c19 -10 71 -38 115 -62z m163 64
c15 -4 16 -40 2 -49 -6 -4 -16 -2 -23 3 -7 5 -27 13 -45 17 -32 7 -33 8 -16
26 16 18 33 18 82 3z m220 5 c-10 -5 -18 -17 -18 -24 0 -8 -4 -15 -10 -15 -14
0 -13 23 2 38 7 7 19 12 28 12 12 -1 12 -2 -2 -11z m-1665 -6 c-7 -2 -19 -2
-25 0 -7 3 -2 5 12 5 14 0 19 -2 13 -5z m1332 -23 c15 0 40 -38 32 -46 -9 -10
-67 58 -60 69 5 8 9 6 11 -5 2 -10 10 -18 17 -18z m235 21 c0 -19 -22 -23 -38
-7 -15 15 -14 16 11 16 15 0 27 -4 27 -9z m-1010 -10 c0 -12 -29 -35 -36 -28
-7 6 17 36 29 37 4 0 7 -4 7 -9z m-225 -31 c3 -5 -1 -10 -10 -10 -9 0 -13 5
-10 10 3 6 8 10 10 10 2 0 7 -4 10 -10z m80 -30 c14 -27 14 -30 -1 -30 -10 0
-14 5 -11 14 4 9 -2 18 -15 22 -16 5 -18 8 -7 15 19 12 16 13 34 -21z m75 4
c0 -8 -4 -12 -10 -9 -5 3 -10 13 -10 21 0 8 5 12 10 9 6 -3 10 -13 10 -21z
m95 16 c3 -5 2 -10 -4 -10 -5 0 -13 5 -16 10 -3 6 -2 10 4 10 5 0 13 -4 16
-10z m-370 -10 c21 -5 6 -8 -50 -8 -56 0 -71 3 -50 8 17 4 39 8 50 8 11 0 34
-4 50 -8z m1205 -11 c0 -5 -4 -9 -10 -9 -5 0 -10 7 -10 16 0 8 5 12 10 9 6 -3
10 -10 10 -16z m-1429 -4 c27 -11 29 -14 12 -15 -28 0 -53 10 -53 21 0 12 2
12 41 -6z m364 -15 c65 -26 -151 -40 -250 -16 -46 12 -40 12 71 8 85 -3 123
-1 128 7 8 13 22 13 51 1z m1117 -1 c26 -14 8 -28 -28 -21 -19 3 -22 7 -13 18
14 17 15 17 41 3z m-851 -26 c13 -17 13 -17 -6 -3 -11 8 -22 16 -24 17 -2 2 0
3 6 3 6 0 17 -8 24 -17z m119 -3 c0 -5 -2 -10 -4 -10 -3 0 -8 5 -11 10 -3 6
-1 10 4 10 6 0 11 -4 11 -10z m-106 -49 c-6 -7 -54 29 -54 40 0 6 13 0 29 -13
15 -13 27 -25 25 -27z m911 23 c34 -32 27 -41 -17 -18 -42 21 -41 21 -33 33
10 16 19 13 50 -15z m-122 9 c12 -11 -15 -33 -41 -33 -24 0 -25 1 -7 20 18 20
36 25 48 13z m226 -27 c-3 -3 -11 5 -18 17 -13 21 -12 21 5 5 10 -10 16 -20
13 -22z m-1509 8 c0 -2 -9 -4 -20 -4 -11 0 -20 4 -20 9 0 5 9 7 20 4 11 -3 20
-7 20 -9z m655 -4 c3 -6 -1 -7 -9 -4 -18 7 -21 14 -7 14 6 0 13 -4 16 -10z
m-315 -10 c0 -5 -2 -10 -4 -10 -3 0 -8 5 -11 10 -3 6 -1 10 4 10 6 0 11 -4 11
-10z m1004 4 c9 -3 16 -12 16 -19 0 -6 27 -34 61 -61 50 -40 57 -49 42 -55
-16 -5 -15 -7 6 -14 17 -5 20 -10 12 -18 -9 -9 -14 -8 -21 3 -5 8 -13 11 -17
6 -4 -5 -2 -11 5 -13 6 -3 10 -9 7 -14 -4 -5 0 -6 8 -3 8 3 21 -2 30 -10 17
-18 32 -21 22 -6 -3 6 -1 10 5 10 21 0 4 -25 -19 -28 -38 -6 -72 7 -70 26 3
34 -1 53 -11 47 -5 -3 -20 1 -32 9 -12 9 -16 16 -9 16 8 0 11 6 7 16 -6 17 6
12 37 -14 19 -17 24 -7 5 11 -27 26 -112 77 -127 77 -9 -1 4 -13 28 -27 24
-15 40 -28 34 -30 -6 -2 -32 11 -59 28 -30 21 -42 35 -33 38 7 2 20 10 27 18
15 15 23 16 46 7z m-964 -15 c0 -6 7 -17 15 -25 8 -8 11 -22 8 -30 -5 -13 -10
-12 -30 8 -15 16 -21 30 -17 41 7 19 24 23 24 6z m242 -29 c21 -14 38 -29 38
-34 0 -5 -8 -3 -17 5 -10 8 -30 21 -45 29 -16 7 -28 20 -28 29 0 9 3 12 8 6 4
-6 24 -21 44 -35z m-115 9 c19 -12 32 -23 29 -26 -2 -3 -22 7 -43 21 -45 31
-35 35 14 5z m-177 -52 c0 -10 5 -15 10 -12 6 3 10 1 10 -4 0 -6 -11 -11 -24
-11 -13 0 -29 -7 -37 -16 -17 -20 -190 -102 -254 -120 -75 -21 -84 -18 -50 14
16 15 33 26 38 24 4 -1 47 16 95 39 169 80 169 80 157 99 -4 6 -17 4 -35 -5
-40 -21 -50 -18 -20 5 14 11 33 20 43 20 10 0 20 7 24 16 5 14 9 13 24 -7 10
-13 19 -32 19 -42z m880 53 c0 -9 -32 -30 -46 -30 -4 0 1 9 11 20 19 21 35 26
35 10z m-662 -82 c18 -15 37 -28 42 -28 5 0 11 -8 15 -17 3 -10 26 -34 50 -53
24 -19 42 -36 40 -38 -2 -2 -24 6 -49 19 -32 15 -42 25 -34 31 9 5 8 8 -5 8
-10 0 -15 4 -12 10 3 5 -15 22 -41 37 -26 16 -59 38 -74 51 -15 12 -32 22 -38
22 -5 0 -12 9 -15 20 -5 20 -3 19 41 -6 26 -15 62 -40 80 -56z m1070 7 c-9 -9
-60 14 -53 24 3 5 1 12 -5 16 -5 3 -10 14 -10 23 0 12 10 6 37 -20 20 -21 34
-40 31 -43z m-294 -8 c24 -23 27 -31 15 -38 -21 -13 -23 -12 -63 31 -20 22
-44 40 -52 40 -15 0 -14 -2 22 -43 11 -13 38 -58 39 -67 0 -3 13 -24 28 -47
15 -24 27 -45 27 -47 0 -3 13 -19 30 -37 16 -18 27 -36 24 -40 -8 -13 7 -38
21 -33 7 3 15 -2 18 -10 4 -9 2 -16 -4 -16 -6 0 -9 -7 -6 -14 8 -20 -21 -9
-48 19 -41 42 -248 186 -276 192 -37 7 -37 -8 -1 -35 15 -11 55 -41 89 -67 69
-51 82 -65 59 -65 -8 0 -19 7 -24 16 -5 8 -16 16 -25 18 -9 1 -37 20 -63 42
-26 21 -60 48 -75 59 -16 11 -29 25 -29 31 0 13 33 42 88 77 23 15 42 32 42
39 0 6 9 3 20 -7 11 -10 20 -24 20 -32 0 -18 68 -88 77 -79 4 3 -7 20 -23 38
-16 17 -23 28 -16 24 23 -14 12 11 -18 37 -37 33 -37 40 -3 66 l26 21 26 -22
c14 -13 38 -36 55 -51z m-664 -22 c0 -10 -16 -4 -40 16 l-25 20 33 -16 c17 -8
32 -18 32 -20z m145 5 c3 -5 1 -10 -4 -10 -6 0 -11 5 -11 10 0 6 2 10 4 10 3
0 8 -4 11 -10z m803 1 c8 -5 14 -24 14 -42 -1 -44 -19 -142 -21 -108 0 14 -8
50 -17 79 -12 41 -13 55 -4 58 9 3 9 7 -1 13 -12 7 -11 9 1 9 8 0 21 -4 28 -9z
m-1508 -11 c-20 -13 -33 -13 -25 0 3 6 14 10 23 10 15 0 15 -2 2 -10z m666
-68 c44 -32 90 -64 103 -71 20 -11 21 -15 10 -27 -12 -11 -21 -11 -59 2 -46
16 -74 33 -66 41 2 3 16 -3 30 -13 15 -9 30 -14 33 -10 9 9 -44 63 -102 102
-27 19 -45 34 -39 34 7 0 47 -26 90 -58z m614 37 c0 -11 -4 -17 -10 -14 -5 3
-10 13 -10 21 0 8 5 14 10 14 6 0 10 -9 10 -21z m-864 -21 l29 -31 -32 23
c-18 13 -33 27 -33 32 0 13 5 10 36 -24z m824 -4 c0 4 9 2 21 -4 11 -7 19 -14
16 -16 -9 -10 -56 8 -62 23 -4 13 -3 14 10 3 8 -7 15 -9 15 -6z m-380 -34
c-21 -13 -44 8 -28 27 10 12 14 12 27 -2 14 -14 14 -17 1 -25z m-713 -23 c-7
-20 -15 -37 -19 -37 -7 0 5 51 17 70 13 21 14 5 2 -33z m276 20 l45 -22 -37
-36 c-20 -19 -53 -48 -73 -63 -21 -16 -38 -35 -38 -43 0 -8 -4 -12 -9 -9 -4 3
-36 -13 -69 -34 -34 -22 -68 -40 -76 -40 -8 0 -18 -4 -21 -10 -3 -5 -19 -10
-34 -10 -15 0 -32 -5 -39 -12 -6 -6 -14 -9 -17 -7 -2 3 32 30 77 60 142 93
226 180 228 232 0 22 10 22 63 -6z m946 -8 c24 -8 30 -16 26 -29 -7 -22 14
-38 25 -19 5 7 6 17 4 21 -3 4 -2 13 2 19 4 8 12 3 20 -12 18 -32 17 -59 0
-59 -27 0 -28 -21 -1 -56 29 -38 45 -103 26 -105 -45 -5 -47 -3 -85 80 -21 45
-20 51 4 21 11 -14 20 -33 20 -42 0 -18 18 -34 27 -25 5 5 -50 113 -66 130
-15 16 -3 -79 17 -135 22 -60 16 -76 -12 -33 -18 28 -21 39 -6 30 20 -12 9 13
-23 56 -18 24 -43 61 -56 82 -12 20 -27 37 -32 37 -5 0 -9 8 -9 18 0 14 2 15
10 2 8 -13 13 -12 32 8 26 25 33 26 77 11z m-443 -36 c-7 -7 -26 7 -26 19 0 6
6 6 15 -2 9 -7 13 -15 11 -17z m621 -5 c-3 -8 -6 -5 -6 6 -1 11 2 17 5 13 3
-3 4 -12 1 -19z m-1587 3 c0 -6 -4 -13 -10 -16 -5 -3 -10 1 -10 9 0 9 5 16 10
16 6 0 10 -4 10 -9z m1228 -86 c88 -71 101 -85 79 -85 -8 0 -36 21 -63 48 -27
26 -65 60 -84 74 -19 15 -30 27 -25 28 6 0 48 -29 93 -65z m-173 -20 c22 -16
45 -34 51 -40 6 -5 32 -29 58 -53 45 -42 67 -85 24 -45 -13 11 -36 32 -53 47
-16 15 -63 52 -102 84 -40 31 -73 63 -73 71 0 10 8 7 28 -10 15 -14 45 -38 67
-54z m491 8 c-3 -3 -12 0 -21 7 -14 11 -13 14 2 26 16 11 18 10 21 -8 2 -11 1
-22 -2 -25z m41 5 c-3 -8 -6 -5 -6 6 -1 11 2 17 5 13 3 -3 4 -12 1 -19z
m-1137 2 c0 -5 -5 -10 -11 -10 -5 0 -7 5 -4 10 3 6 8 10 11 10 2 0 4 -4 4 -10z
m404 -5 c11 -8 15 -15 10 -15 -10 0 -45 -28 -100 -80 -12 -11 -27 -20 -33 -20
-6 0 -33 -16 -61 -36 -27 -20 -80 -47 -117 -60 -37 -13 -74 -30 -82 -38 -25
-20 -103 -48 -112 -39 -5 5 -4 15 1 23 9 13 11 13 19 1 7 -11 15 -10 46 9 21
13 57 40 81 61 25 21 62 44 84 50 22 7 40 16 40 22 0 5 7 6 15 3 10 -4 19 2
24 16 7 20 134 115 156 117 6 0 19 -6 29 -14z m-1067 -87 c-2 -13 -4 -3 -4 22
0 25 2 35 4 23 2 -13 2 -33 0 -45z m374 39 c-10 -9 -11 -8 -5 6 3 10 9 15 12
12 3 -3 0 -11 -7 -18z m1244 -63 c9 -14 15 -27 13 -28 -52 -34 -86 -20 -62 25
18 36 27 36 49 3z m-1398 -26 c-3 -7 -5 -2 -5 12 0 14 2 19 5 13 2 -7 2 -19 0
-25z m1314 -15 c13 -16 12 -17 -3 -4 -10 7 -18 15 -18 17 0 8 8 3 21 -13z
m219 -54 c0 -44 -4 -68 -10 -64 -5 3 -10 1 -10 -4 0 -6 4 -11 10 -11 5 0 12
-16 16 -35 3 -19 10 -38 15 -41 10 -6 2 -71 -11 -89 -12 -17 5 -60 22 -57 12
2 16 -13 21 -74 3 -42 3 -82 0 -90 -4 -10 -26 -14 -86 -14 -75 0 -79 1 -66 18
38 45 42 68 38 224 -4 165 -9 180 -63 194 -37 9 -41 51 -6 69 28 15 46 15 69
1 10 -6 12 -4 7 12 -5 15 -2 22 11 25 42 11 43 9 43 -64z m-299 19 c11 -21 11
-22 -4 -9 -10 7 -17 17 -17 22 0 15 9 10 21 -13z m-1451 -15 c-1 -24 -2 -26
-11 -10 -5 9 -7 22 -4 27 10 17 15 11 15 -17z m1345 -20 l23 -37 -35 -23 c-18
-12 -77 -41 -131 -63 -53 -23 -115 -50 -138 -60 -22 -11 -62 -22 -90 -25 -27
-3 -83 -15 -126 -26 -42 -10 -82 -19 -90 -19 -29 2 107 62 194 86 51 15 98 33
104 40 6 8 17 14 25 14 8 0 33 13 56 29 23 15 71 44 107 62 46 24 66 40 66 53
0 23 6 18 35 -31z m432 -25 c-3 -7 -5 -2 -5 12 0 14 2 19 5 13 2 -7 2 -19 0
-25z m-227 -40 c0 -35 6 -97 14 -138 16 -88 30 -255 16 -200 -4 19 -14 76 -20
125 -7 50 -16 114 -21 144 -12 72 -11 131 1 131 6 0 10 -28 10 -62z m-120 11
c0 -6 -4 -7 -10 -4 -5 3 -10 11 -10 16 0 6 5 7 10 4 6 -3 10 -11 10 -16z m79
-56 c-1 -47 -1 -47 -9 -14 -7 31 -4 61 6 61 2 0 4 -21 3 -47z m268 15 c-3 -7
-5 -2 -5 12 0 14 2 19 5 13 2 -7 2 -19 0 -25z m-912 -68 c3 -5 -1 -10 -9 -10
-9 0 -16 5 -16 10 0 6 4 10 9 10 6 0 13 -4 16 -10z m619 -31 c3 -17 6 -41 5
-53 0 -20 0 -20 -8 -1 -14 35 -21 85 -12 85 5 0 11 -14 15 -31z m44 -27 c10
-55 -1 -84 -12 -31 -7 35 -8 95 -2 88 2 -2 9 -28 14 -57z m-1168 38 c0 -5 -4
-10 -10 -10 -5 0 -10 5 -10 10 0 6 5 10 10 10 6 0 10 -4 10 -10z m-469 -27
c-8 -15 -10 -15 -11 -2 0 17 10 32 18 25 2 -3 -1 -13 -7 -23z m1746 -55 c-3
-8 -6 -5 -6 6 -1 11 2 17 5 13 3 -3 4 -12 1 -19z m-100 -60 c-3 -8 -6 -5 -6 6
-1 11 2 17 5 13 3 -3 4 -12 1 -19z m-94 -26 c3 -15 9 -35 12 -44 4 -11 3 -18
-4 -18 -6 0 -11 7 -11 15 0 19 -19 19 -45 2 -23 -16 -69 -27 -145 -34 -30 -2
-62 -11 -71 -19 -8 -8 -24 -14 -35 -14 -16 0 -17 2 -4 10 11 7 5 10 -24 10
-21 0 -44 -6 -50 -14 -14 -17 -96 -31 -96 -15 0 7 -21 10 -60 7 -66 -3 -81 8
-22 17 20 3 45 10 55 16 33 18 196 46 206 36 7 -7 15 -6 23 0 7 6 51 26 97 45
105 42 166 42 174 0z m106 -34 c-1 -31 -1 -31 -8 -8 -5 14 -6 28 -4 33 9 15
13 6 12 -25z m-29 2 c0 -5 -2 -10 -4 -10 -3 0 -8 5 -11 10 -3 6 -1 10 4 10 6
0 11 -4 11 -10z m-655 -30 c3 -5 -1 -10 -10 -10 -9 0 -13 5 -10 10 3 6 8 10
10 10 2 0 7 -4 10 -10z m-641 -36 c5 -14 4 -15 -9 -4 -17 14 -19 20 -6 20 5 0
12 -7 15 -16z m1336 -14 c0 -11 -2 -20 -4 -20 -2 0 -6 9 -9 20 -3 11 -1 20 4
20 5 0 9 -9 9 -20z m-1040 0 c0 -5 -4 -10 -10 -10 -5 0 -10 5 -10 10 0 6 5 10
10 10 6 0 10 -4 10 -10z m1244 -49 c11 -9 15 -9 18 1 12 34 12 -21 2 -152 -6
-80 -12 -134 -13 -121 0 13 -4 21 -8 18 -3 -4 -19 9 -36 28 -28 34 -31 35 -48
19 -23 -21 -23 -30 0 -125 16 -64 18 -129 5 -129 -1 0 -18 9 -36 19 -18 11
-57 27 -85 36 -29 10 -53 22 -53 28 0 6 13 25 29 42 30 31 171 296 171 321 0
8 -9 14 -20 14 -12 0 -20 -7 -20 -16 0 -16 -27 -43 -42 -44 -5 0 -8 6 -8 14 0
24 -20 29 -41 10 -17 -16 -19 -16 -19 -1 0 10 7 17 15 17 8 0 15 6 15 14 0 8
8 17 18 20 29 8 141 -1 156 -13z m-1039 -11 c-28 -12 -37 -12 -30 0 3 6 16 10
28 9 21 0 21 -1 2 -9z m775 -20 c-6 -11 -13 -20 -15 -20 -3 0 -5 9 -5 20 0 11
7 20 15 20 13 0 14 -4 5 -20z m-1331 -34 c-3 -3 -11 5 -18 17 -13 21 -12 21 5
5 10 -10 16 -20 13 -22z m1344 -20 c-61 -122 -76 -147 -80 -143 -2 3 5 23 16
46 12 22 21 45 21 50 0 15 55 100 58 91 2 -5 -5 -24 -15 -44z m-1173 28 c0 -8
-5 -12 -10 -9 -6 4 -8 11 -5 16 9 14 15 11 15 -7z m1242 -36 c-7 -7 -12 -8
-12 -2 0 14 12 26 19 19 2 -3 -1 -11 -7 -17z m64 -22 c-8 -16 -17 -23 -20 -17
-4 6 1 22 11 37 21 33 29 17 9 -20z m-211 -26 c-4 -17 -9 -29 -12 -26 -3 2 -2
19 2 36 4 17 9 29 12 26 3 -2 2 -19 -2 -36z m-1475 -1 c0 -18 -18 -9 -23 12
-4 16 -3 18 9 8 8 -6 14 -15 14 -20z m1440 21 c-20 -13 -33 -13 -25 0 3 6 14
10 23 10 15 0 15 -2 2 -10z m157 -22 c-19 -46 -59 -117 -52 -93 12 42 50 125
58 125 4 0 1 -15 -6 -32z m-181 -8 c25 10 26 10 20 -27 -3 -21 -5 -41 -6 -45
0 -5 -5 -8 -11 -8 -7 0 -8 11 -4 30 4 17 2 30 -3 30 -5 0 -12 -14 -16 -31 -6
-31 -7 -32 -54 -25 -26 3 -118 6 -205 6 -108 -1 -164 3 -173 11 -8 7 -49 13
-92 14 -108 3 -111 3 -88 17 24 13 216 20 216 7 0 -12 119 -10 190 2 30 5 75
12 100 15 25 4 47 8 49 9 1 2 14 0 27 -5 15 -6 34 -6 50 0z m222 -60 c-18 -33
-34 -56 -36 -50 -4 10 55 110 65 110 2 0 -11 -27 -29 -60z m-1695 9 c-4 -15
-8 -17 -14 -8 -8 14 -3 29 11 29 4 0 6 -9 3 -21z m1804 -45 c-9 -9 -28 6 -21
18 4 6 10 6 17 -1 6 -6 8 -13 4 -17z m-294 -38 c-12 -26 -26 -39 -45 -43 -20
-4 -26 -9 -19 -17 7 -9 0 -24 -24 -52 -34 -38 -101 -134 -143 -204 -12 -19
-22 -30 -22 -24 0 7 34 62 75 124 41 62 84 132 95 156 10 24 25 44 32 44 7 0
24 13 38 29 14 15 26 27 28 26 2 -2 -5 -19 -15 -39z m-1263 24 c0 -5 -2 -10
-4 -10 -3 0 -8 5 -11 10 -3 6 -1 10 4 10 6 0 11 -4 11 -10z m1187 -27 c-3 -10
-5 -4 -5 12 0 17 2 24 5 18 2 -7 2 -21 0 -30z m373 -4 c0 -5 -4 -9 -10 -9 -5
0 -10 7 -10 16 0 8 5 12 10 9 6 -3 10 -10 10 -16z m-1283 -41 c-3 -8 -6 -5 -6
6 -1 11 2 17 5 13 3 -3 4 -12 1 -19z m223 2 c0 -5 -5 -10 -11 -10 -5 0 -7 5
-4 10 3 6 8 10 11 10 2 0 4 -4 4 -10z m850 -20 c0 -12 -28 -20 -45 -13 -14 5
-14 8 1 24 13 14 20 16 31 8 7 -6 13 -15 13 -19z m230 0 c0 -16 -4 -30 -10
-30 -5 0 -10 6 -10 14 0 8 -3 21 -6 30 -4 11 -1 16 10 16 11 0 16 -9 16 -30z
m-1923 -32 c-3 -8 -6 -5 -6 6 -1 11 2 17 5 13 3 -3 4 -12 1 -19z m1958 -41
c-3 -18 -10 -61 -13 -97 l-7 -65 -8 49 c-10 68 -9 108 4 146 10 28 13 30 21
15 6 -9 7 -31 3 -48z m-1022 3 c10 -12 29 -20 49 -20 18 0 49 -5 68 -10 19 -6
77 -12 127 -14 51 -2 99 -8 106 -14 9 -8 31 -9 64 -3 l51 8 -14 -23 c-9 -12
-23 -25 -32 -29 -33 -13 -105 -15 -118 -4 -8 7 -31 15 -52 19 -20 5 -68 15
-107 23 -240 53 -244 54 -200 73 39 17 38 17 58 -6z m702 1 c-3 -6 -11 -11
-17 -11 -6 0 -6 6 2 15 14 17 26 13 15 -4z m103 -37 c28 -25 52 -53 52 -62 0
-22 -34 -129 -43 -138 -4 -4 -7 6 -7 22 0 20 -3 25 -9 15 -6 -10 -13 -11 -29
-2 -29 15 -42 14 -42 -5 0 -10 6 -14 14 -11 8 3 21 -2 30 -12 18 -20 20 -31 6
-31 -5 0 -10 7 -10 15 0 32 -19 13 -25 -25 -7 -42 -24 -51 -45 -25 -20 24 -49
18 -56 -10 -5 -21 13 -108 33 -162 3 -8 -3 -13 -15 -13 -11 0 -22 -6 -25 -12
-3 -9 -14 -4 -34 15 -16 15 -32 27 -36 27 -4 0 -26 12 -50 27 -23 15 -55 33
-70 40 -17 8 -26 17 -21 24 5 8 9 8 14 -1 10 -17 75 -24 99 -10 17 9 21 8 21
-4 0 -19 19 -31 31 -19 6 6 5 22 -2 42 -11 32 -9 37 61 138 39 57 69 107 66
110 -7 7 -56 -24 -73 -46 -7 -9 -13 -12 -13 -8 0 5 15 27 33 50 18 23 44 59
58 79 13 21 26 38 29 38 3 0 29 -21 58 -46z m-973 18 c-3 -3 -11 0 -18 7 -9
10 -8 11 6 5 10 -3 15 -9 12 -12z m1020 -2 c3 -5 2 -10 -4 -10 -5 0 -13 5 -16
10 -3 6 -2 10 4 10 5 0 13 -4 16 -10z m104 -59 c-6 -18 -14 -30 -17 -27 -2 3
1 19 8 36 16 40 23 33 9 -9z m-40 16 c6 -8 8 -17 4 -20 -7 -8 -33 11 -33 24 0
13 16 11 29 -4z m-391 -84 c-59 -89 -65 -98 -109 -165 -45 -70 -54 -58 -11 15
20 34 40 67 44 72 5 6 25 33 45 61 62 83 78 102 81 99 2 -1 -21 -38 -50 -82z
m385 7 c3 -11 1 -20 -4 -20 -5 0 -9 2 -9 4 0 2 -3 11 -6 20 -3 9 -2 16 4 16 5
0 12 -9 15 -20z m70 -20 c-7 -8 -22 24 -16 34 4 5 10 1 13 -10 4 -10 6 -21 3
-24z m-93 -15 c0 -11 -14 -62 -30 -114 -17 -51 -30 -100 -30 -107 0 -21 -17
-17 -23 6 -6 25 13 101 24 95 4 -3 7 7 7 22 -1 45 33 148 43 132 5 -8 9 -23 9
-34z m40 -20 c0 -8 -2 -15 -4 -15 -2 0 -6 7 -10 15 -3 8 -1 15 4 15 6 0 10 -7
10 -15z m-320 -49 c-31 -46 -50 -64 -50 -48 0 10 69 92 77 92 2 0 -10 -20 -27
-44z m362 26 c7 -24 -14 -84 -29 -90 -16 -5 -16 17 -1 68 14 44 23 50 30 22z
m-561 -29 c-8 -15 -10 -15 -11 -2 0 17 10 32 18 25 2 -3 -1 -13 -7 -23z m-412
-1 c8 -15 31 -21 105 -30 52 -7 122 -12 155 -12 65 0 73 -8 40 -38 -22 -21
-37 -20 -131 14 -49 17 -98 12 -68 -6 12 -7 9 -10 -12 -10 -15 0 -33 7 -42 15
-21 21 -66 36 -87 30 -14 -5 -17 -2 -13 9 4 11 0 16 -11 16 -10 0 -14 -5 -9
-12 4 -7 -2 -5 -13 5 -11 9 -28 18 -39 18 -29 2 35 16 78 18 27 1 40 -4 47
-17z m883 -69 c-11 -37 -26 -88 -32 -112 -6 -23 -14 -41 -17 -38 -3 3 10 56
27 117 18 61 35 108 38 106 2 -3 -5 -36 -16 -73z m-398 23 c-9 -14 -21 -26
-26 -26 -6 0 -4 10 4 23 8 12 18 29 23 37 6 9 10 10 12 3 3 -7 -3 -23 -13 -37z
m317 1 c-8 -8 -11 -7 -11 4 0 20 13 34 18 19 3 -7 -1 -17 -7 -23z m105 -53
c-7 -22 -16 -59 -20 -84 -7 -47 -21 -78 -31 -69 -3 3 7 54 22 112 17 66 30
101 35 93 4 -8 2 -31 -6 -52z m-567 12 c-11 -24 -29 -36 -29 -18 0 12 31 54
36 49 3 -2 -1 -16 -7 -31z m392 -48 c9 -22 8 -38 -2 -73 -7 -25 -16 -45 -19
-45 -10 0 -52 179 -44 191 8 13 47 -31 65 -73z m303 38 c2 -14 -1 -26 -5 -26
-5 0 -9 14 -9 32 0 36 10 32 14 -6z m-274 5 c0 -18 -18 -21 -30 -6 -10 13 -9
15 9 15 11 0 21 -4 21 -9z m237 -33 c-3 -7 -5 -2 -5 12 0 14 2 19 5 13 2 -7 2
-19 0 -25z m-220 -20 c-3 -7 -5 -2 -5 12 0 14 2 19 5 13 2 -7 2 -19 0 -25z
m-477 12 c0 -5 -5 -10 -11 -10 -5 0 -7 5 -4 10 3 6 8 10 11 10 2 0 4 -4 4 -10z
m663 -20 c-3 -11 -9 -20 -13 -20 -5 0 -6 9 -3 20 3 11 9 20 13 20 5 0 6 -9 3
-20z m-533 -10 c12 -8 9 -10 -12 -10 -16 0 -28 5 -28 10 0 13 20 13 40 0z
m480 -47 c-11 -17 -11 -17 -6 0 3 10 6 24 7 30 0 9 2 9 5 0 3 -7 0 -20 -6 -30z
m-500 17 c8 -5 12 -10 10 -12 -3 -2 -25 -21 -49 -43 -30 -28 -40 -33 -32 -17
7 12 11 28 10 35 -6 37 28 58 61 37z m101 -5 c16 -9 27 -20 24 -25 -3 -6 -19
0 -36 12 -43 32 -38 38 12 13z m255 -17 c-14 -77 -33 -131 -39 -115 -8 21 23
147 36 147 5 0 7 -14 3 -32z m41 10 c-3 -8 -6 -5 -6 6 -1 11 2 17 5 13 3 -3 4
-12 1 -19z m-303 -31 c25 -20 27 -26 17 -44 -6 -12 -11 -30 -11 -40 1 -12 5
-8 14 12 8 19 15 25 20 17 10 -17 -36 -172 -51 -172 -7 0 -13 6 -14 13 0 6 -4
2 -9 -11 -5 -12 -16 -25 -25 -28 -8 -4 -15 -17 -15 -30 0 -19 -5 -24 -27 -25
l-28 -1 32 -13 c29 -13 31 -17 27 -57 l-4 -43 14 40 c9 23 15 32 15 20 1 -31
-19 -96 -28 -90 -5 2 -11 -4 -14 -15 -3 -11 -11 -20 -17 -20 -7 0 -10 8 -7 20
5 20 -3 26 -17 13 -4 -5 -13 -8 -19 -8 -7 0 -11 -14 -11 -33 1 -17 0 -32 -2
-32 -6 0 -106 73 -136 99 -29 25 -37 47 -15 38 7 -3 22 8 32 23 l19 29 38 -41
c31 -34 39 -38 44 -24 3 9 3 31 0 49 -8 38 13 127 30 127 6 0 14 18 18 41 8
49 25 83 66 128 32 36 39 57 16 48 -10 -4 -12 0 -9 14 7 25 22 24 57 -4z m293
-36 c-4 -25 -11 -63 -17 -84 -10 -35 -13 -37 -24 -21 -11 14 -10 26 2 63 8 25
17 58 19 73 9 47 26 19 20 -31z m-234 9 c-3 -11 -7 -20 -9 -20 -2 0 -4 9 -4
20 0 11 4 20 9 20 5 0 7 -9 4 -20z m117 -20 c0 -12 -3 -12 -16 2 -9 9 -13 21
-9 28 9 14 25 -5 25 -30z m-40 -52 c0 -9 -32 1 -52 16 -11 8 -15 20 -11 36 6
23 7 22 34 -11 16 -19 29 -37 29 -41z m-480 51 c0 -6 -9 -13 -20 -16 -11 -3
-20 -11 -20 -18 0 -40 -178 -63 -303 -40 -33 6 -39 5 -44 -13 -8 -33 -57 -36
-160 -10 -47 12 -57 28 -18 28 37 0 162 20 223 35 39 10 60 11 77 3 17 -8 37
-7 77 5 128 37 188 45 188 26z m677 -56 c-5 -12 -14 -23 -19 -23 -5 0 -3 10 3
23 7 12 12 23 11 25 -1 1 -2 8 -2 15 0 8 3 8 9 -2 6 -9 5 -23 -2 -38z m-497 2
c0 -18 -5 -25 -20 -25 -11 0 -20 -5 -20 -12 0 -6 -3 -9 -6 -5 -5 5 35 67 43
67 2 0 3 -11 3 -25z m-82 -25 c-22 -37 -89 -122 -71 -90 14 27 86 130 90 130
2 0 -7 -18 -19 -40z m386 -35 c-12 -57 -20 -56 -40 4 l-21 59 34 -17 c29 -14
32 -19 27 -46z m246 40 c-7 -9 -15 -13 -18 -10 -3 2 1 11 8 20 7 9 15 13 18
10 3 -2 -1 -11 -8 -20z m-312 -22 c6 -15 12 -33 12 -40 0 -8 6 -24 14 -36 8
-12 12 -34 9 -49 l-5 -28 -27 23 c-19 15 -26 29 -24 47 l3 25 -10 -24 c-7 -16
-14 -21 -20 -15 -10 10 17 124 29 124 3 0 12 -12 19 -27z m140 2 c-3 -3 -9 2
-12 12 -6 14 -5 15 5 6 7 -7 10 -15 7 -18z m122 -45 c0 -5 -2 -10 -4 -10 -3 0
-8 5 -11 10 -3 6 -1 10 4 10 6 0 11 -4 11 -10z m-610 -54 c-11 -26 -20 -52
-20 -58 0 -6 -9 -26 -21 -45 -17 -27 -24 -32 -35 -22 -8 7 -14 18 -12 25 3 15
101 153 106 149 1 -1 -7 -23 -18 -49z m707 8 c17 -13 36 -24 42 -24 14 0 15
-77 2 -85 -6 -3 -14 3 -20 13 -5 10 -29 25 -53 32 -58 19 -102 43 -106 59 -1
7 2 9 9 5 6 -3 15 0 20 7 6 11 9 8 9 -8 0 -36 18 -36 31 1 13 37 15 37 66 0z
m-1160 10 c-3 -3 -12 -4 -19 -1 -8 3 -5 6 6 6 11 1 17 -2 13 -5z m898 -61 c-5
-64 -17 -94 -32 -80 -3 4 -1 17 5 30 6 12 13 43 17 70 9 70 17 57 10 -20z
m-502 32 c-3 -9 -8 -14 -10 -11 -3 3 -2 9 2 15 9 16 15 13 8 -4z m320 -15 c-3
-11 -9 -20 -14 -20 -10 0 -12 24 -2 33 13 13 21 7 16 -13z m37 -7 c0 -24 -23
-83 -32 -83 -13 0 -9 29 8 55 11 17 12 25 5 25 -7 0 -9 5 -6 10 10 16 25 12
25 -7z m58 -78 c-2 -14 -9 -19 -25 -17 -27 4 -30 -6 -7 -23 15 -11 15 -16 -1
-71 l-18 -59 -17 50 c-13 37 -15 58 -7 80 5 17 14 49 20 73 l11 43 23 -28 c13
-15 23 -36 21 -48z m142 71 c0 -3 -4 -8 -10 -11 -5 -3 -10 -1 -10 4 0 6 5 11
10 11 6 0 10 -2 10 -4z m-650 -107 c0 -5 -4 -9 -10 -9 -5 0 -10 7 -10 16 0 8
5 12 10 9 6 -3 10 -10 10 -16z m80 -14 l23 -24 -33 9 c-39 11 -44 15 -35 29
10 16 19 13 45 -14z m-180 -16 c-60 -53 -125 -75 -232 -82 -66 -3 -104 -11
-122 -22 -21 -14 -39 -16 -81 -11 -62 7 -105 21 -105 35 0 14 52 20 71 8 12
-7 40 -6 100 6 46 10 98 17 114 17 50 0 177 30 230 55 65 31 67 30 25 -6z
m505 -24 c2 -14 -1 -27 -6 -31 -5 -3 -9 -13 -9 -22 0 -13 2 -13 14 4 16 21 14
24 36 -49 16 -50 1 -68 -29 -36 -11 13 -21 32 -21 43 0 17 -2 18 -10 6 -14
-21 -12 -50 3 -50 16 0 49 -38 38 -44 -4 -3 -22 5 -39 17 -33 23 -39 48 -22
89 5 13 14 43 20 67 12 46 21 48 25 6z m-365 -10 c-26 -28 -35 -27 -25 4 4 13
15 21 27 21 21 0 21 0 -2 -25z m504 10 c-4 -8 -8 -15 -10 -15 -2 0 -4 7 -4 15
0 8 4 15 10 15 5 0 7 -7 4 -15z m-590 -57 c-3 -38 -12 -69 -21 -78 -14 -13
-15 -12 -9 10 4 14 12 49 18 78 6 28 12 52 14 52 2 0 1 -28 -2 -62z m562 8
c-6 -10 -19 -32 -29 -50 l-18 -31 5 35 c2 19 9 48 15 63 9 23 13 26 25 15 11
-10 11 -17 2 -32z m194 34 c0 -5 -4 -10 -10 -10 -5 0 -10 5 -10 10 0 6 5 10
10 10 6 0 10 -4 10 -10z m-34 -29 c16 -12 40 -37 54 -55 14 -19 40 -44 58 -56
17 -13 32 -26 32 -31 0 -4 16 -25 35 -46 23 -25 35 -48 35 -67 0 -16 -3 -26
-7 -22 -5 4 -8 12 -8 18 0 6 -9 16 -20 22 -11 6 -24 17 -28 24 -4 6 -15 12
-23 12 -8 0 -46 32 -85 70 -38 39 -74 70 -80 70 -6 0 -9 6 -6 13 6 18 -11 47
-28 47 -8 0 -15 -9 -15 -20 0 -11 -7 -20 -15 -20 -13 0 -12 5 2 35 13 28 21
34 43 31 15 -2 40 -13 56 -25z m-505 -3 c53 -40 110 -91 106 -94 -2 -2 -35 6
-74 19 -45 14 -68 26 -66 35 3 6 -3 12 -12 12 -12 0 -15 5 -11 16 3 9 6 20 6
25 0 15 20 10 51 -13z m155 -55 l3 -28 -19 24 c-10 14 -16 31 -13 39 8 20 25
-1 29 -35z m-324 -2 c-118 -201 -132 -221 -132 -184 0 28 32 103 41 97 5 -3 9
-2 9 3 0 4 13 22 29 38 15 17 33 41 40 53 6 12 16 22 21 22 5 0 2 -13 -8 -29z
m216 -38 c12 -3 25 -9 28 -14 3 -5 14 -9 24 -9 20 0 37 -25 35 -50 -1 -8 -3
-23 -3 -33 -1 -10 -6 -16 -11 -13 -5 3 -11 -3 -14 -13 -3 -14 -11 -17 -31 -14
-15 3 -26 1 -26 -6 0 -19 -19 -12 -31 11 -9 18 -9 20 4 15 9 -3 18 1 21 9 6
16 -16 19 -43 4 -13 -6 -17 -17 -14 -35 4 -18 1 -25 -11 -25 -9 0 -16 -7 -16
-16 0 -12 6 -15 23 -10 20 5 25 -1 44 -52 13 -34 20 -71 17 -92 -4 -31 -3 -32
6 -11 14 32 22 22 14 -17 l-6 -31 -43 41 c-29 26 -42 45 -38 56 5 10 3 13 -6
8 -8 -5 -25 4 -47 25 -25 24 -37 30 -45 22 -8 -8 -8 -17 1 -33 6 -12 10 -24 7
-26 -2 -3 -36 11 -74 29 l-70 33 25 47 c13 26 28 47 33 47 5 0 2 -14 -7 -32
-15 -30 -15 -32 2 -45 10 -7 23 -13 29 -13 12 0 52 61 115 175 44 80 50 87 69
79 9 -4 26 -9 39 -11z m142 -64 c0 6 9 2 20 -9 21 -21 24 -39 14 -78 -10 -35
-25 -22 -45 39 -22 66 -22 64 -4 49 10 -9 15 -9 15 -1z m-26 -98 c-6 -8 -24
12 -24 28 0 31 15 34 21 4 3 -15 4 -30 3 -32z m-289 10 c-8 -17 -20 -31 -25
-31 -5 0 1 15 13 34 27 41 34 39 12 -3z m-129 -28 c-14 -20 -26 -35 -26 -31 0
12 42 79 47 74 3 -2 -7 -22 -21 -43z m-111 17 c23 -9 18 -12 -58 -29 -27 -7
-61 -20 -75 -31 -20 -14 -51 -21 -117 -26 -55 -4 -96 -12 -106 -20 -18 -16
-59 -19 -59 -4 0 17 130 70 174 71 22 0 75 11 116 23 84 26 97 28 125 16z
m879 -167 c93 -61 146 -102 146 -114 0 -14 -51 1 -85 25 -16 12 -73 43 -126
69 -100 48 -149 91 -149 130 0 13 9 26 22 32 19 9 29 3 72 -43 27 -29 82 -74
120 -99z m-434 127 c0 -11 -4 -20 -9 -20 -11 0 -22 26 -14 34 12 12 23 5 23
-14z m103 -7 c13 -26 13 -63 0 -63 -11 0 -32 35 -33 55 0 15 -2 17 -9 7 -7
-11 -9 -11 -14 1 -14 37 38 37 56 0z m-32 -119 c-12 -19 -21 -43 -21 -53 0 -9
-6 -25 -13 -35 -12 -16 -14 -16 -30 1 -16 18 -16 23 3 89 29 102 27 99 56 65
l26 -31 -21 -36z m-81 64 c0 -19 -2 -20 -10 -8 -13 19 -13 30 0 30 6 0 10 -10
10 -22z m15 -28 c-9 -41 -17 -33 -9 9 4 17 9 30 11 27 3 -2 2 -19 -2 -36z
m-335 0 c0 -5 -7 -7 -15 -4 -8 4 -12 10 -9 15 6 11 24 2 24 -11z m189 -14 c29
-30 31 -34 12 -29 -20 5 -51 38 -51 55 0 13 4 10 39 -26z m-154 14 c3 -5 1
-10 -4 -10 -6 0 -11 5 -11 10 0 6 2 10 4 10 3 0 8 -4 11 -10z m-53 -30 c28 0
55 -16 45 -26 -4 -4 -12 -3 -18 3 -6 6 -17 9 -24 6 -8 -2 -23 0 -34 7 -18 9
-21 8 -21 -8 0 -10 -9 -27 -20 -37 -20 -18 -20 -18 -4 28 14 41 18 45 34 37
10 -6 29 -10 42 -10z m188 -46 c0 -8 -6 -11 -15 -8 -8 4 -15 15 -15 26 0 17 3
18 15 8 8 -7 15 -19 15 -26z m88 -24 c23 -17 42 -32 42 -35 0 -2 -22 5 -50 17
-27 11 -50 27 -50 34 0 21 13 17 58 -16z m-122 -11 c19 -11 34 -25 34 -30 0
-13 -7 -11 -27 6 -10 8 -27 21 -38 29 -30 23 -7 19 31 -5z m-63 -80 c-3 -16
-9 -29 -14 -29 -22 0 -5 -28 26 -43 34 -16 34 -17 20 -49 -8 -18 -19 -32 -24
-31 -6 2 -16 -7 -22 -20 -16 -30 -15 -30 -37 -18 -12 6 -53 18 -93 26 l-72 15
-28 -32 c-16 -18 -28 -27 -29 -20 0 6 60 73 133 147 126 128 132 133 139 108
4 -14 4 -39 1 -54z m-149 -8 c-44 -44 -81 -74 -83 -69 -4 12 134 148 151 148
5 0 -25 -36 -68 -79z m221 39 c8 -13 -4 -70 -15 -70 -10 0 -30 55 -30 82 0 15
3 17 19 8 11 -5 23 -15 26 -20z m114 19 c17 -6 31 -15 31 -19 0 -4 8 -7 17 -6
24 2 38 -68 22 -116 -12 -37 -12 -37 -25 -15 -24 41 -44 89 -44 104 0 8 -4 11
-10 8 -5 -3 -10 2 -10 12 0 11 -5 24 -12 31 -15 15 -10 15 31 1z m-441 -8 c8
-1 12 -10 10 -23 -3 -21 -7 -23 -62 -20 -38 1 -95 -7 -163 -24 -57 -14 -107
-23 -110 -20 -4 3 0 6 8 6 8 0 43 14 79 31 71 35 161 59 200 54 14 -2 31 -4
38 -4z m408 -49 c20 -49 18 -51 -16 -12 -32 38 -43 83 -14 60 8 -8 22 -29 30
-48z m-336 34 c0 -3 -4 -8 -10 -11 -5 -3 -10 -1 -10 4 0 6 5 11 10 11 6 0 10
-2 10 -4z m312 -60 c19 -24 25 -40 21 -57 -6 -21 -4 -22 9 -12 22 19 27 7 16
-38 -9 -32 -8 -43 6 -58 21 -23 20 -31 -4 -31 -11 0 -20 -5 -20 -11 0 -5 -4
-7 -10 -4 -5 3 -10 25 -10 48 0 30 -3 38 -10 27 -11 -18 -11 -17 -38 47 -26
61 -26 63 -8 63 8 0 17 7 20 16 4 12 2 15 -9 10 -17 -6 -18 -4 -9 18 9 23 16
20 46 -18z m758 8 c0 -14 -3 -14 -15 -4 -8 7 -15 14 -15 16 0 2 7 4 15 4 8 0
15 -7 15 -16z m-492 -34 c24 -12 48 -20 55 -19 7 1 41 -12 77 -29 36 -18 75
-32 88 -32 13 0 22 -6 22 -15 0 -11 -12 -15 -44 -15 -26 0 -48 6 -56 15 -7 8
-27 15 -44 15 -45 0 -139 27 -151 43 -5 8 -16 12 -22 10 -16 -6 -16 2 -3 28
13 24 26 24 78 -1z m-994 -5 c-6 -16 -24 -21 -24 -7 0 11 11 22 21 22 5 0 6
-7 3 -15z m-104 -5 c0 -5 -10 -15 -22 -21 l-23 -12 20 21 c23 24 25 25 25 12z
m789 -95 c13 -25 20 -49 17 -53 -4 -3 -23 2 -42 13 -25 13 -33 23 -28 34 4 9
9 26 11 38 7 30 14 24 42 -32z m141 -6 c0 -13 -7 -19 -24 -19 -23 0 -24 2 -14
30 8 25 13 28 24 19 8 -6 14 -20 14 -30z m510 1 c12 -8 9 -10 -13 -10 -16 0
-26 4 -22 10 8 12 16 12 35 0z m-1026 -8 c2 -4 2 -13 -2 -18 -10 -15 -89 -45
-142 -54 -25 -4 -54 -11 -65 -15 -11 -4 6 9 39 29 32 20 66 36 75 36 9 1 30 7
46 15 36 16 42 17 49 7z m579 -81 c-2 -6 2 -11 7 -11 6 0 10 -5 10 -11 0 -6
23 -36 50 -66 61 -67 65 -86 8 -41 -24 19 -60 42 -81 51 -28 13 -37 22 -33 33
3 9 9 27 12 40 6 24 32 29 27 5z m-813 -16 c0 -2 -10 -9 -22 -15 -22 -11 -22
-10 -4 4 21 17 26 19 26 11z m270 -1 c0 -4 -11 -17 -25 -30 -20 -18 -25 -20
-25 -7 0 9 8 22 18 29 19 15 32 18 32 8z m401 -11 c13 -15 12 -15 -8 -4 -24
12 -29 21 -14 21 5 0 15 -7 22 -17z m-215 -17 c3 -8 12 -12 20 -9 17 6 17 3 1
-36 -13 -30 -14 -30 -29 -14 -19 23 -30 52 -22 64 8 14 24 11 30 -5z m194 -44
c0 -21 -13 -6 -28 33 l-12 30 20 -24 c11 -13 20 -30 20 -39z m-74 34 c19 -14
19 -15 -1 -33 -23 -20 -58 -27 -52 -9 2 6 11 10 21 8 9 -2 16 4 16 13 0 8 -4
15 -10 15 -5 0 -10 5 -10 10 0 14 13 12 36 -4z m34 -36 c0 -5 14 -25 30 -43
17 -19 30 -38 30 -42 0 -3 -13 3 -30 15 -36 26 -40 13 -5 -20 31 -29 31 -37 3
-67 -30 -32 -47 -28 -92 23 -46 52 -39 76 12 47 36 -20 53 -11 29 15 -23 26
-21 41 4 35 19 -5 20 -4 10 15 -14 26 -14 32 -1 32 6 0 10 -4 10 -10z m180 -4
c0 -2 -7 -6 -15 -10 -8 -3 -15 -1 -15 4 0 6 7 10 15 10 8 0 15 -2 15 -4z
m-619 -44 c-14 -27 -14 -35 2 -29 9 3 47 -27 47 -38 0 -2 -49 7 -88 17 -21 5
-84 -20 -151 -59 -48 -28 -69 -37 -56 -23 10 11 36 31 57 42 21 12 45 32 53
45 9 13 21 23 29 23 7 0 21 9 32 21 12 13 27 19 41 16 13 -2 26 0 29 5 11 18
15 -1 5 -20z m39 3 c-7 -9 -15 -13 -18 -10 -3 2 1 11 8 20 7 9 15 13 18 10 3
-2 -1 -11 -8 -20z m221 6 c18 -16 19 -24 11 -55 -11 -37 2 -52 13 -16 6 19 35
29 35 13 0 -5 15 -24 33 -44 17 -20 41 -46 52 -58 l19 -22 -53 7 c-31 4 -63
15 -75 26 -12 11 -33 31 -48 45 -16 15 -32 22 -39 17 -9 -5 -7 -11 6 -20 27
-20 12 -27 -21 -9 -16 8 -32 11 -37 6 -9 -9 -97 15 -97 26 0 2 9 1 20 -2 26
-8 76 23 113 70 32 40 40 42 68 16z m62 -6 c-7 -21 -13 -19 -13 6 0 11 4 18
10 14 5 -3 7 -12 3 -20z m-703 -25 c0 -5 -7 -10 -16 -10 -8 0 -12 5 -9 10 3 6
10 10 16 10 5 0 9 -4 9 -10z m1239 -80 c0 -9 -6 -4 -14 10 -19 33 -19 49 0 24
8 -10 14 -26 14 -34z m-879 10 c0 -5 -5 -10 -11 -10 -5 0 -7 5 -4 10 3 6 8 10
11 10 2 0 4 -4 4 -10z m100 -30 c0 -5 -4 -10 -10 -10 -5 0 -10 5 -10 10 0 6 5
10 10 10 6 0 10 -4 10 -10z m40 -9 c0 -5 -7 -11 -15 -15 -15 -5 -20 5 -8 17 9
10 23 9 23 -2z m-61 -17 c11 -4 8 -9 -9 -21 -17 -12 -25 -13 -28 -5 -2 7 -12
12 -23 12 -19 0 -25 11 -13 23 6 6 38 2 73 -9z m131 8 c0 -5 -7 -17 -15 -28
-8 -10 -14 -14 -13 -7 2 6 -6 19 -17 27 -19 15 -19 15 13 16 17 0 32 -4 32 -8z
m446 -78 c26 -35 52 -64 58 -64 12 0 31 -37 42 -83 3 -15 10 -30 15 -33 5 -3
9 -26 8 -52 0 -38 -2 -43 -9 -24 -5 12 -18 22 -28 22 -18 0 -35 30 -66 117
-27 78 -74 121 -148 137 -36 8 -39 41 -5 41 14 0 24 -6 23 -14 -2 -25 21 -22
28 3 9 36 27 25 82 -50z m-493 52 c3 -8 -1 -17 -9 -20 -9 -4 -14 1 -14 14 0
23 15 27 23 6z m132 6 c6 -4 12 -20 13 -36 4 -27 2 -28 -12 -13 -9 8 -13 22
-10 31 4 11 0 13 -16 9 -12 -3 -24 -13 -27 -22 -3 -9 -11 -29 -17 -46 -7 -16
-24 -65 -37 -107 -13 -43 -27 -78 -32 -78 -5 0 -6 6 -4 13 3 6 23 63 44 126
27 82 44 116 58 122 26 10 28 10 40 1z m-304 -35 c-10 -9 -11 -8 -5 6 3 10 9
15 12 12 3 -3 0 -11 -7 -18z m420 -74 c5 -7 16 -10 24 -7 12 5 11 9 -5 27 -30
32 -16 32 24 0 40 -31 51 -62 15 -43 -23 13 -35 8 -24 -9 3 -6 11 -8 17 -5 7
5 9 2 5 -8 -3 -10 5 -26 24 -42 16 -14 29 -34 29 -44 0 -10 -3 -13 -8 -6 -4 6
-16 14 -27 18 -14 5 -10 -3 14 -28 19 -20 30 -36 23 -36 -7 0 -12 5 -12 11 0
5 -4 7 -10 4 -5 -3 -10 -1 -10 6 0 7 -3 10 -6 7 -8 -9 19 -48 33 -48 6 0 14
-18 18 -40 6 -33 2 -45 -21 -75 -29 -39 -82 -80 -91 -72 -3 3 0 21 5 39 6 18
14 53 17 77 12 72 -16 45 -46 -44 -30 -91 -48 -108 -79 -80 -13 12 -17 21 -10
25 9 6 -50 94 -79 120 -3 3 -13 14 -21 25 -13 17 -11 16 18 -4 17 -12 32 -18
32 -12 0 6 -5 11 -10 11 -7 0 -7 6 -2 18 5 9 15 42 23 72 l13 55 11 -55 c12
-60 17 -58 35 10 15 59 47 110 68 110 15 1 15 2 -1 11 -10 6 -20 9 -21 7 -17
-23 -50 -84 -56 -106 -6 -20 -8 -10 -9 43 0 49 2 66 9 55 9 -13 11 -13 19 -1
7 10 5 18 -6 26 -11 8 -13 17 -7 26 5 8 9 17 10 22 1 4 2 10 3 15 1 6 36 -30
72 -75z m54 57 c3 -6 -1 -7 -9 -4 -18 7 -21 14 -7 14 6 0 13 -4 16 -10z m-175
-60 c-5 -19 -18 -69 -28 -110 l-19 -75 -7 47 c-6 33 -3 67 9 115 21 83 24 88
41 71 10 -9 11 -22 4 -48z m-250 -9 c-13 -25 -30 -36 -30 -20 0 6 8 18 18 25
23 18 24 17 12 -5z m85 -18 c-4 -10 -12 -30 -17 -45 -5 -16 -14 -28 -19 -28
-14 0 -10 29 8 61 19 31 40 40 28 12z m-305 -23 c0 -5 -4 -10 -10 -10 -5 0
-10 5 -10 10 0 6 5 10 10 10 6 0 10 -4 10 -10z m260 -101 c0 -11 -4 -17 -10
-14 -5 3 -10 13 -10 21 0 8 5 14 10 14 6 0 10 -9 10 -21z m149 -53 c1 -5 -5
-3 -13 4 -8 6 -12 19 -9 27 6 14 8 14 14 -3 4 -10 8 -23 8 -28z m-83 -23 c-11
-11 -19 6 -11 24 8 17 8 17 12 0 3 -10 2 -21 -1 -24z m-96 -7 c0 -8 -4 -18
-10 -21 -5 -3 -10 3 -10 14 0 12 5 21 10 21 6 0 10 -6 10 -14z m245 -124 c-5
-5 -115 89 -115 98 0 25 22 13 67 -36 29 -32 51 -60 48 -62z m-838 71 c-3 -10
-5 -4 -5 12 0 17 2 24 5 18 2 -7 2 -21 0 -30z m633 15 c0 -7 -9 -26 -20 -43
-23 -34 -25 -27 -8 22 12 33 28 45 28 21z m50 2 c0 -5 -2 -10 -4 -10 -3 0 -8
5 -11 10 -3 6 -1 10 4 10 6 0 11 -4 11 -10z m-107 -26 c-4 -12 -8 -13 -14 -3
-9 15 -2 32 11 24 5 -3 6 -13 3 -21z m212 -84 c6 -9 2 -8 -7 2 -9 10 -19 14
-22 10 -3 -5 6 -20 20 -33 21 -20 27 -21 34 -9 6 8 7 22 4 30 -3 8 9 2 26 -15
l30 -29 -37 -14 c-21 -7 -46 -18 -56 -23 -14 -7 -20 -4 -29 16 -13 29 -25 32
-30 9 -2 -13 -11 -10 -45 17 -51 41 -55 50 -41 89 7 23 13 28 23 20 6 -5 15
-7 18 -4 4 4 20 -8 37 -26 21 -23 30 -27 30 -16 0 9 -7 19 -15 22 -8 4 -15 15
-15 25 0 15 7 11 33 -18 18 -21 37 -45 42 -53z m555 50 c0 -11 -4 -20 -10 -20
-5 0 -10 9 -10 20 0 11 5 20 10 20 6 0 10 -9 10 -20z m-1436 -60 c-6 -5 -24
21 -24 34 0 6 6 1 14 -10 8 -10 12 -21 10 -24z m510 -51 c-43 -41 -94 -89
-112 -106 -19 -18 -37 -33 -41 -33 -14 0 -43 -39 -37 -49 4 -5 -7 -31 -24 -57
-16 -26 -30 -53 -30 -60 0 -6 -6 -14 -14 -17 -11 -5 -34 -70 -41 -117 -19
-135 -50 -305 -65 -355 -5 -16 -13 -57 -19 -90 -9 -59 -28 -122 -35 -114 -5 7
22 287 39 404 15 100 51 216 80 255 6 8 24 44 40 80 16 36 35 72 42 81 7 8 13
19 13 23 0 3 18 36 41 71 42 68 117 130 154 130 13 0 20 6 19 17 -1 14 4 16
22 12 16 -4 24 -2 24 7 0 9 3 10 11 2 8 -8 -11 -31 -67 -84z m171 71 c3 -5 1
-10 -4 -10 -6 0 -11 5 -11 10 0 6 2 10 4 10 3 0 8 -4 11 -10z m-766 -54 c-9
-8 -10 -7 -5 7 3 10 7 24 7 30 1 7 3 4 6 -7 3 -10 -1 -23 -8 -30z m58 12 c-3
-8 -6 -5 -6 6 -1 11 2 17 5 13 3 -3 4 -12 1 -19z m749 -26 c-22 -5 -30 3 -21
18 5 8 11 7 22 -2 15 -12 14 -13 -1 -16z m816 6 c-7 -7 -12 -8 -12 -2 0 6 3
14 7 17 3 4 9 5 12 2 2 -3 -1 -11 -7 -17z m-122 -23 c14 -16 10 -18 -14 -9 -9
3 -16 10 -16 15 0 14 16 11 30 -6z m-382 -31 c0 -25 -3 -33 -9 -23 -11 18 -12
59 0 59 5 0 9 -16 9 -36z m-38 -29 c8 -30 10 -67 6 -108 -4 -34 -11 -133 -15
-221 -6 -130 -10 -160 -23 -167 -9 -5 -22 -25 -28 -44 -6 -19 -16 -35 -21 -35
-5 0 -9 -8 -9 -18 0 -15 -42 -88 -60 -102 -8 -7 -89 -143 -130 -219 -53 -98
-80 -144 -96 -162 -8 -8 -14 -19 -14 -23 0 -4 -18 -28 -40 -54 -22 -25 -38
-47 -36 -50 5 -4 1 -11 -39 -56 -48 -56 -42 -6 8 55 35 44 71 98 81 124 7 20
88 159 131 225 12 19 44 70 71 114 27 43 58 84 68 92 11 7 17 17 13 20 -3 4 2
19 12 33 43 60 85 341 86 573 0 26 4 44 9 40 5 -3 7 2 3 11 -3 10 -3 17 2 17
5 0 14 -20 21 -45z m767 -27 c-3 -8 -6 -5 -6 6 -1 11 2 17 5 13 3 -3 4 -12 1
-19z m54 -85 c-8 -15 -10 -15 -11 -2 0 17 10 32 18 25 2 -3 -1 -13 -7 -23z
m-274 -25 c-3 -8 -6 -5 -6 6 -1 11 2 17 5 13 3 -3 4 -12 1 -19z m-1490 -40
c-2 -13 -4 -5 -4 17 -1 22 1 32 4 23 2 -10 2 -28 0 -40z m1703 -15 c-11 -17
-11 -17 -6 0 3 10 7 26 7 35 1 15 2 15 6 0 2 -10 -1 -25 -7 -35z m-335 -39
c-30 -57 -40 -69 -26 -31 17 44 42 89 47 84 3 -2 -7 -26 -21 -53z m-1378 -21
c-3 -10 -5 -4 -5 12 0 17 2 24 5 18 2 -7 2 -21 0 -30z m1534 -76 c-10 -9 -11
-8 -5 6 3 10 9 15 12 12 3 -3 0 -11 -7 -18z m-14 -39 c-3 -8 -6 -5 -6 6 -1 11
2 17 5 13 3 -3 4 -12 1 -19z m-94 -8 c-5 -19 -23 -39 -23 -25 0 9 20 45 24 45
2 0 2 -9 -1 -20z m-212 -27 c-8 -15 -10 -15 -11 -2 0 17 10 32 18 25 2 -3 -1
-13 -7 -23z m171 -66 c-11 -24 -25 -48 -32 -52 -14 -9 -14 -7 19 58 30 58 40
54 13 -6z m-1211 -140 c-10 -9 -11 -8 -5 6 3 10 9 15 12 12 3 -3 0 -11 -7 -18z
m1193 -2 c-4 -8 -8 -15 -10 -15 -2 0 -4 7 -4 15 0 8 4 15 10 15 5 0 7 -7 4
-15z m126 -35 c-6 -12 -14 -19 -17 -17 -2 3 1 15 7 27 6 12 14 19 17 17 2 -3
-1 -15 -7 -27z m-1110 13 c0 -5 -10 -19 -21 -33 l-20 -25 16 33 c15 30 25 41
25 25z m1201 -54 c-25 -41 -28 -21 -4 24 9 18 18 27 20 21 2 -7 -5 -27 -16
-45z m132 -49 c-3 -12 -8 -19 -11 -16 -5 6 5 36 12 36 2 0 2 -9 -1 -20z m-553
-30 c0 -5 -2 -10 -4 -10 -3 0 -8 5 -11 10 -3 6 -1 10 4 10 6 0 11 -4 11 -10z
m-1243 -47 c-3 -10 -5 -2 -5 17 0 19 2 27 5 18 2 -10 2 -26 0 -35z m1683 31
c0 -3 -7 -12 -15 -20 -16 -17 -18 -14 -9 10 6 15 24 23 24 10z m-1593 -46 c-3
-7 -5 -2 -5 12 0 14 2 19 5 13 2 -7 2 -19 0 -25z m-100 -50 c-3 -8 -6 -5 -6 6
-1 11 2 17 5 13 3 -3 4 -12 1 -19z m53 -64 c0 -13 -4 -24 -10 -24 -5 0 -10 14
-10 31 0 17 4 28 10 24 6 -3 10 -17 10 -31z m1421 3 c-8 -8 -11 -7 -11 4 0 20
13 34 18 19 3 -7 -1 -17 -7 -23z m329 -18 c0 -16 -4 -28 -9 -25 -8 5 -3 56 5
56 2 0 4 -14 4 -31z m-660 6 c0 -8 -7 -15 -15 -15 -26 0 -18 20 13 29 1 1 2
-6 2 -14z m40 -5 c0 -11 -7 -20 -15 -20 -17 0 -18 2 -9 24 9 23 24 20 24 -4z
m-1050 -90 c-11 -95 -16 -114 -29 -106 -9 6 6 153 20 185 17 41 20 17 9 -79z
m-38 -255 c-6 -34 -12 -32 -12 6 0 16 4 28 9 25 4 -3 6 -17 3 -31z"/>
<path d="M814 7446 c-3 -8 0 -25 7 -38 l12 -23 8 29 c5 16 6 33 3 38 -8 13
-24 10 -30 -6z"/>
<path d="M1061 7289 c-1 -9 7 -23 17 -30 15 -12 16 -12 6 1 -6 8 -14 22 -17
30 -5 13 -6 12 -6 -1z"/>
<path d="M1110 7200 c0 -5 5 -10 11 -10 5 0 7 5 4 10 -3 6 -8 10 -11 10 -2 0
-4 -4 -4 -10z"/>
<path d="M982 7150 c0 -14 2 -19 5 -12 2 6 2 18 0 25 -3 6 -5 1 -5 -13z"/>
<path d="M932 7054 c18 -25 34 -41 36 -34 5 13 -45 80 -59 80 -6 0 5 -21 23
-46z"/>
<path d="M550 6440 c0 -5 4 -18 9 -28 5 -9 12 -26 16 -36 3 -10 8 -16 11 -13
8 7 -14 75 -27 82 -5 4 -9 1 -9 -5z"/>
<path d="M975 6200 c3 -5 8 -10 11 -10 2 0 4 5 4 10 0 6 -5 10 -11 10 -5 0 -7
-4 -4 -10z"/>
<path d="M1006 6176 c3 -9 11 -16 16 -16 13 0 5 23 -10 28 -7 2 -10 -2 -6 -12z"/>
<path d="M1148 6113 c7 -3 16 -2 19 1 4 3 -2 6 -13 5 -11 0 -14 -3 -6 -6z"/>
<path d="M1160 6052 c0 -12 48 -54 89 -78 24 -14 27 -19 17 -39 -12 -26 -13
-25 -68 33 -12 12 -28 22 -35 22 -22 0 25 -57 80 -97 29 -22 46 -41 43 -49 -3
-8 1 -14 9 -14 8 0 15 13 17 32 2 26 9 33 37 43 49 16 55 40 9 31 -39 -7 -63
10 -52 37 7 20 -13 32 -31 17 -11 -9 -19 -7 -37 12 -30 33 -78 63 -78 50z"/>
<path d="M1610 5700 c0 -5 5 -10 11 -10 5 0 7 5 4 10 -3 6 -8 10 -11 10 -2 0
-4 -4 -4 -10z"/>
<path d="M1870 5582 c0 -5 7 -16 16 -23 14 -12 16 -11 13 5 -4 20 -29 35 -29
18z"/>
<path d="M1990 5415 c0 -15 18 -40 24 -34 3 3 -1 14 -9 25 -8 10 -14 15 -15 9z"/>
<path d="M2011 5233 c-1 -12 4 -25 9 -28 12 -7 12 2 0 30 -8 19 -9 19 -9 -2z"/>
<path d="M1381 2834 c0 -11 3 -14 6 -6 3 7 2 16 -1 19 -3 4 -6 -2 -5 -13z"/>
<path d="M1321 2724 c0 -11 3 -14 6 -6 3 7 2 16 -1 19 -3 4 -6 -2 -5 -13z"/>
<path d="M1255 2619 c-4 -6 -5 -12 -2 -15 2 -3 7 2 10 11 7 17 1 20 -8 4z"/>
<path d="M856 1742 c-3 -6 7 -20 24 -32 36 -25 40 -13 6 19 -14 13 -26 18 -30
13z"/>
<path d="M1020 1671 c0 -5 5 -13 10 -16 6 -3 10 -2 10 4 0 5 -4 13 -10 16 -5
3 -10 2 -10 -4z"/>
<path d="M1230 60 c0 -11 14 -11 50 0 22 7 21 8 -12 9 -21 1 -38 -3 -38 -9z"/>
<path d="M1183 53 c9 -2 23 -2 30 0 6 3 -1 5 -18 5 -16 0 -22 -2 -12 -5z"/>
</g>
</svg>
