<?xml version="1.0" standalone="no"?>
<!DOCTYPE svg PUBLIC "-//W3C//DTD SVG 20010904//EN"
 "http://www.w3.org/TR/2001/REC-SVG-20010904/DTD/svg10.dtd">
<svg version="1.0" xmlns="http://www.w3.org/2000/svg"
 width="650.000000pt" height="180.000000pt" viewBox="0 0 650.000000 180.000000"
 preserveAspectRatio="xMidYMid meet">
<metadata>
Created by potrace 1.16, written by Peter Selinger 2001-2019
</metadata>
<g transform="translate(0.000000,180.000000) scale(0.100000,-0.100000)"
fill="#000000" stroke="none">
<path d="M23 1793 c15 -2 37 -2 50 0 12 2 0 4 -28 4 -28 0 -38 -2 -22 -4z"/>
<path d="M175 1790 c45 -12 155 -12 155 0 0 6 -37 10 -92 9 -65 -1 -84 -4 -63
-9z"/>
<path d="M475 1790 c-17 -7 -16 -9 10 -9 17 -1 54 -4 83 -7 44 -6 52 -4 52 10
0 13 -11 16 -62 15 -35 0 -72 -4 -83 -9z"/>
<path d="M1180 1792 c0 -4 5 -13 12 -20 14 -14 118 -16 118 -2 0 6 9 10 21 10
11 0 17 5 14 10 -7 12 -165 14 -165 2z"/>
<path d="M1463 1789 c14 -8 22 -8 30 0 8 8 3 11 -18 11 -26 -1 -28 -2 -12 -11z"/>
<path d="M2510 1792 c0 -10 21 -32 31 -32 4 0 9 9 12 20 4 16 0 20 -19 20 -13
0 -24 -4 -24 -8z"/>
<path d="M3265 1791 c-3 -6 1 -11 9 -11 9 0 16 -4 16 -10 0 -5 9 -10 21 -10
31 0 20 34 -13 38 -14 2 -29 -2 -33 -7z"/>
<path d="M3690 1790 c0 -5 -11 -10 -24 -10 -27 0 -53 -24 -37 -35 6 -3 20 -1
31 5 22 12 44 5 35 -11 -4 -5 -1 -9 6 -9 7 0 21 -7 31 -17 11 -9 18 -11 18 -5
0 7 8 12 18 12 14 0 19 9 20 40 l3 40 -51 0 c-27 0 -50 -4 -50 -10z"/>
<path d="M5533 1787 c-38 -19 -51 -87 -17 -87 8 0 14 -4 14 -8 0 -4 14 -16 30
-26 24 -14 42 -16 87 -10 44 5 54 4 48 -6 -6 -10 -2 -11 16 -6 13 4 44 10 67
13 24 3 46 12 49 19 6 16 69 19 78 4 9 -15 25 -12 25 5 0 8 7 15 16 15 8 0 13
-4 10 -9 -7 -10 17 -21 45 -21 11 0 18 -4 15 -9 -4 -5 3 -7 15 -4 11 3 23 12
26 20 4 11 7 11 17 -2 10 -14 17 -15 54 -3 23 7 42 19 42 25 0 9 17 13 53 13
57 0 70 -6 80 -32 8 -22 27 -23 74 -3 46 20 51 19 55 -7 2 -14 13 -24 30 -29
35 -9 38 -5 38 53 0 47 -1 49 -22 42 -22 -7 -153 -7 -478 -1 -127 2 -150 5
-187 25 -33 17 -65 23 -139 27 -53 3 -99 7 -102 10 -7 6 -12 5 -39 -8z"/>
<path d="M4091 1754 c0 -11 3 -14 6 -6 3 7 2 16 -1 19 -3 4 -6 -2 -5 -13z"/>
<path d="M4247 1750 c-3 -13 0 -20 10 -20 8 0 11 -4 8 -10 -3 -5 0 -10 8 -10
15 0 39 44 30 54 -15 14 -51 5 -56 -14z"/>
<path d="M4530 1755 c0 -8 5 -15 10 -15 6 0 10 7 10 15 0 8 -4 15 -10 15 -5 0
-10 -7 -10 -15z"/>
<path d="M350 1487 c-41 -21 -51 -67 -44 -202 3 -66 -1 -253 -10 -415 -33
-638 -35 -713 -22 -765 l7 -27 372 4 c205 2 401 2 437 2 36 -1 115 -2 175 -2
61 0 369 -3 685 -5 316 -2 580 -1 585 3 6 4 217 4 470 -1 253 -4 694 -6 980
-4 290 2 566 -1 625 -6 58 -6 141 -14 185 -18 65 -6 82 -5 92 7 9 11 25 13 70
8 32 -3 204 -9 382 -11 178 -3 326 -7 330 -10 12 -7 605 -7 629 0 15 5 22 3
22 -6 0 -10 3 -10 12 -1 14 14 25 89 34 224 4 54 9 98 13 98 3 0 5 31 3 69 -3
64 -2 69 20 76 l23 8 -23 4 c-20 4 -23 9 -17 31 4 15 11 29 16 33 6 3 4 16 -4
31 -7 14 -11 44 -9 67 3 34 10 44 33 57 36 18 36 20 2 19 -25 0 -27 3 -26 37
0 21 6 45 13 53 11 13 11 16 0 13 -21 -5 -24 31 -4 53 15 16 15 25 6 57 -7 23
-8 51 -3 74 5 20 7 81 4 135 -2 54 -4 128 -4 166 0 69 -12 85 -39 52 -7 -8
-17 -11 -24 -7 -14 9 -202 14 -426 11 -552 -9 -1507 5 -1715 24 -353 32 -530
37 -1353 42 -458 2 -836 6 -840 9 -6 4 -730 22 -807 20 -16 -1 -48 -2 -70 -2
-22 -1 -202 1 -400 3 -283 4 -365 3 -385 -8z m2958 -86 c12 -11 22 -24 22 -31
0 -7 7 -6 21 4 34 23 717 11 1269 -24 80 -5 200 -9 266 -9 l121 -1 13 -61 c16
-74 8 -241 -15 -318 -9 -30 -15 -67 -13 -82 4 -26 2 -28 -21 -22 -54 12 -178
54 -221 75 -25 11 -74 32 -110 45 -36 14 -69 28 -75 32 -13 10 -71 26 -179 51
-86 21 -110 21 -236 4 -63 -8 -232 -51 -313 -78 -46 -16 -64 -19 -56 -9 10 11
8 12 -5 7 -9 -3 -21 -15 -27 -25 -5 -11 -14 -17 -19 -14 -5 3 -20 0 -32 -7
-13 -7 -36 -18 -53 -24 -16 -7 -67 -28 -112 -47 -51 -21 -83 -31 -86 -24 -2 7
-15 3 -33 -10 -44 -32 -133 -70 -274 -119 -122 -43 -160 -52 -160 -36 1 9 104
72 119 72 6 0 11 5 11 11 0 5 -4 7 -10 4 -5 -3 -19 -8 -29 -10 -11 -2 -38 -16
-60 -31 -34 -22 -44 -24 -56 -14 -13 11 -15 7 -15 -23 0 -35 -2 -37 -52 -52
-75 -22 -89 -19 -53 10 27 21 28 24 10 25 -12 0 -40 -17 -62 -39 -35 -32 -52
-40 -99 -46 -38 -4 -59 -3 -64 4 -5 9 -14 9 -36 1 -45 -17 -128 -16 -157 3
-27 18 -43 73 -26 93 6 7 8 18 4 24 -4 6 -3 19 1 28 8 20 10 29 19 99 7 51 7
52 -31 87 -30 28 -35 36 -20 36 15 0 16 3 6 15 -10 12 -16 13 -27 3 -12 -10
-17 -9 -25 6 -5 9 -22 22 -36 28 l-27 11 35 8 c19 4 43 6 52 3 11 -3 28 5 43
20 13 13 35 26 47 28 14 2 24 11 26 23 3 24 -14 52 -25 42 -4 -5 -1 -12 6 -16
9 -6 6 -10 -12 -15 -13 -3 -27 -15 -30 -25 -5 -20 -15 -23 -119 -36 -32 -4
-48 -11 -48 -21 0 -8 5 -14 10 -14 6 0 10 -4 10 -10 0 -5 -6 -8 -12 -5 -74 24
-332 26 -460 4 -54 -9 -94 -12 -103 -6 -19 10 -49 1 -41 -12 5 -7 -73 -31
-102 -31 -4 0 -7 35 -6 78 2 152 2 152 30 162 14 6 23 14 19 20 -3 5 -12 7
-20 3 -22 -8 -19 20 5 47 12 13 18 30 15 38 -3 8 4 34 14 58 l20 44 103 -5
c57 -3 123 -8 148 -11 115 -13 253 -16 259 -5 5 7 78 13 208 18 l200 6 7 -24
7 -24 9 23 c9 21 13 22 157 21 81 0 184 -4 228 -9 44 -4 85 -4 91 1 12 10 146
0 166 -12 10 -6 9 -11 -7 -23 -16 -12 -18 -17 -7 -27 10 -11 12 -10 12 3 0 9
7 19 16 22 8 3 12 11 9 16 -4 7 2 9 19 4 22 -5 26 -3 26 15 0 26 8 26 38 2z
m2990 -231 c20 0 31 -4 27 -10 -3 -5 -19 -10 -34 -10 -15 0 -31 -4 -36 -9 -6
-4 -31 -15 -57 -24 -46 -15 -47 -15 -35 4 7 11 23 19 39 19 40 0 46 20 6 21
-31 1 -32 1 -8 9 14 5 34 7 45 4 11 -2 35 -4 53 -4z m-138 -15 c0 -2 -25 -12
-55 -20 -54 -16 -87 -38 -43 -28 23 4 23 4 3 -12 -45 -37 -105 -66 -124 -60
-15 5 -19 1 -17 -18 1 -22 4 -23 25 -16 23 9 23 9 -4 -23 -26 -32 -145 -112
-212 -143 -18 -8 -33 -19 -33 -23 0 -5 -16 -16 -35 -25 -41 -20 -40 2 2 24 14
7 29 23 33 35 9 22 127 101 136 91 3 -3 -8 -13 -25 -23 -17 -10 -31 -22 -31
-26 0 -9 30 1 30 11 0 3 18 16 38 29 21 13 43 32 49 41 10 16 8 17 -15 13 -15
-3 -48 -18 -74 -33 -27 -16 -48 -24 -48 -18 0 5 14 18 31 27 17 9 56 36 87 60
41 31 58 39 64 30 7 -12 12 -4 9 15 -1 5 3 6 8 3 5 -3 23 1 40 10 32 16 43 31
15 20 -9 -3 -12 -2 -9 5 16 24 155 74 155 54z m170 -32 c0 -10 -5 -25 -10 -33
-9 -13 -12 -12 -25 5 -14 18 -16 18 -32 2 -16 -16 -16 -17 -1 -17 9 0 20 -5
24 -11 5 -9 -6 -10 -38 -5 -30 5 -60 2 -88 -8 -57 -19 -32 4 30 28 25 10 61
26 80 36 45 24 60 24 60 3z m-240 -42 c0 -5 -7 -12 -16 -15 -14 -5 -15 -4 -4
9 14 17 20 19 20 6z m-1754 -42 c32 -6 63 -15 69 -20 5 -5 26 -9 47 -9 44 0
108 -28 108 -47 0 -9 -16 -13 -57 -12 -78 1 -118 17 -45 18 38 1 52 5 50 13
-5 14 -70 18 -113 6 -50 -14 -157 -20 -150 -8 9 15 -16 12 -29 -4 -12 -15 -90
-30 -81 -15 9 14 -8 11 -33 -6 -30 -22 -130 -56 -169 -59 -18 -2 -41 -10 -51
-19 -19 -18 -62 -23 -62 -9 0 5 22 19 50 32 27 13 48 27 47 32 -1 6 13 11 31
13 20 2 39 11 48 24 14 20 64 30 64 13 0 -4 -30 -23 -66 -42 -37 -19 -62 -36
-57 -37 10 -4 131 61 148 79 7 7 6 12 -2 15 -18 6 -16 23 2 23 8 0 14 -5 13
-12 -4 -18 50 -42 66 -29 7 6 15 8 18 5 8 -8 48 28 48 42 0 24 26 28 106 13z
m1744 -4 c-7 -8 -18 -15 -24 -15 -6 0 -2 7 8 15 25 19 32 19 16 0z m-1870 -3
c0 -5 -11 -14 -24 -21 -26 -14 -72 -11 -69 4 3 18 93 34 93 17z m2116 -19 c7
-10 14 -28 14 -40 0 -19 -4 -22 -29 -17 -33 7 -184 -22 -189 -36 -2 -6 -9 -10
-15 -10 -7 0 -49 -23 -95 -50 -46 -28 -86 -50 -89 -50 -3 0 -31 -17 -62 -38
-31 -21 -94 -53 -141 -71 -47 -18 -107 -44 -135 -58 -27 -13 -78 -30 -113 -38
-86 -20 -341 -21 -452 -1 -92 16 -177 42 -186 57 -3 5 -12 9 -21 9 -21 0 -162
82 -163 95 0 10 -67 35 -92 35 -6 0 -19 6 -27 13 -24 20 -117 44 -196 52 -87
9 -79 10 -149 -9 -32 -9 -61 -15 -63 -12 -16 16 -282 -91 -395 -158 -26 -15
-69 -34 -95 -41 -27 -7 -73 -23 -103 -35 -30 -12 -75 -26 -100 -30 -51 -10
-224 -66 -345 -112 -138 -53 -157 -59 -280 -94 -125 -35 -240 -45 -301 -24
-16 5 -49 14 -73 20 -68 18 -37 35 57 31 60 -2 102 4 192 28 63 16 135 37 160
46 25 9 113 34 195 55 153 38 188 49 310 95 39 15 90 34 115 42 25 9 50 19 55
23 6 5 37 16 70 25 33 9 69 20 80 25 11 5 49 21 85 36 36 15 107 44 157 65
226 92 396 118 533 81 138 -38 250 -80 300 -112 14 -9 41 -22 60 -30 19 -7 60
-24 90 -37 96 -43 132 -51 280 -62 184 -13 348 4 435 43 99 45 157 77 187 101
58 46 263 160 333 185 68 25 183 26 201 3z m-4236 -22 c0 -5 -21 -10 -47 -10
-56 1 -131 -7 -228 -22 -72 -12 -456 -134 -510 -162 -44 -23 -114 -52 -160
-67 -22 -7 -56 -19 -75 -28 -55 -24 -162 -62 -200 -71 -49 -12 -87 -28 -95
-41 -3 -5 -11 -8 -16 -5 -5 4 -9 2 -9 -3 0 -5 -18 -16 -40 -25 -22 -8 -40 -21
-40 -27 0 -7 7 -10 16 -6 8 3 13 2 10 -3 -3 -4 -26 -14 -50 -21 -25 -7 -53
-21 -63 -32 -10 -11 -54 -38 -98 -60 -44 -23 -93 -51 -108 -64 -36 -30 -56
-31 -54 -2 2 29 26 53 80 80 23 12 69 40 102 63 33 23 83 54 112 68 28 15 54
31 58 37 3 5 26 15 50 21 25 6 54 20 66 30 12 11 34 19 49 19 14 0 30 4 35 9
16 16 117 67 160 81 22 7 49 19 60 26 23 15 266 105 343 128 29 8 60 12 68 9
9 -3 19 -1 23 5 6 11 131 40 271 64 97 17 290 23 290 9z m56 -6 c5 -11 11 -12
24 -5 25 13 73 13 68 -1 -2 -6 -27 -12 -55 -13 -43 -3 -52 0 -56 15 -6 22 11
26 19 4z m1833 1 c-7 -7 -123 -35 -127 -31 -5 4 87 33 112 34 11 1 17 -1 15
-3z m-1701 -31 c-2 -3 -20 -7 -39 -10 l-34 -5 35 14 c32 12 50 13 38 1z m2342
-2 c-1 -25 -55 -53 -55 -28 0 6 9 9 20 8 11 -1 14 1 8 3 -20 9 -15 24 7 24 11
0 20 -3 20 -7z m-2475 -30 c28 -8 63 -27 78 -42 l28 -26 -6 -115 c-7 -107 -6
-120 16 -170 12 -30 33 -69 46 -86 13 -17 23 -36 23 -42 0 -6 6 -12 13 -15 6
-2 9 -8 5 -12 -9 -9 -106 81 -123 116 -8 14 -11 36 -8 47 4 15 1 22 -10 22
-12 0 -15 17 -15 93 1 141 -26 180 -132 193 -176 21 -276 3 -538 -95 -293
-111 -399 -163 -667 -331 -57 -36 -180 -90 -204 -90 -6 0 -19 -4 -29 -9 -105
-55 -263 -122 -278 -119 -24 4 -33 58 -10 58 8 0 31 9 51 20 20 11 40 20 44
20 5 0 33 16 62 35 30 19 58 35 64 35 6 0 66 32 134 70 68 39 127 70 131 70 4
0 18 8 31 18 13 11 38 24 54 30 17 6 100 40 185 75 275 113 353 144 465 180
156 51 266 75 375 82 52 4 97 8 99 11 6 6 52 -3 116 -23z m1680 17 c-27 -12
-43 -12 -25 0 8 5 22 9 30 9 10 0 8 -3 -5 -9z m-1488 -16 c-3 -3 -12 -4 -19
-1 -8 3 -5 6 6 6 11 1 17 -2 13 -5z m1498 -12 c-16 -11 -36 -26 -44 -35 -7
-10 -19 -17 -26 -17 -7 0 -19 -7 -26 -17 -13 -15 -12 -15 18 0 21 12 39 14 54
9 19 -7 1 -17 -109 -60 -72 -29 -135 -52 -141 -52 -5 0 -40 -14 -77 -30 -37
-17 -72 -29 -78 -27 -6 3 1 10 17 17 15 7 27 17 27 22 0 4 7 8 16 8 9 0 28 8
42 18 15 10 44 26 65 36 20 9 35 22 31 27 -3 6 0 9 7 8 27 -6 71 12 66 25 -6
16 130 83 173 85 8 1 2 -7 -15 -17z m-1475 -12 c-20 -13 -40 -13 -40 0 0 6 12
10 28 10 21 0 24 -2 12 -10z m1331 -20 c-30 -16 -68 -34 -85 -39 -39 -12 -112
-41 -261 -106 -61 -27 -100 -26 -57 2 20 12 115 49 197 77 28 10 59 21 70 26
167 73 230 92 136 40z m1068 16 c7 -5 10 -14 7 -21 -3 -9 10 -13 50 -13 37 0
66 -7 90 -21 19 -12 45 -21 57 -21 21 -1 21 -1 3 -12 -23 -13 -120 -12 -124 2
-2 5 -17 10 -33 10 -40 0 -72 18 -65 36 3 8 2 13 -2 10 -5 -3 -32 2 -61 11
-38 11 -49 18 -40 24 16 10 100 6 118 -5z m1581 -6 c0 -11 -7 -20 -15 -20 -18
0 -19 12 -3 28 16 16 18 15 18 -8z m-625 1 c-6 -5 -35 -30 -65 -57 -30 -26
-54 -54 -52 -61 1 -6 -11 -19 -27 -28 -33 -16 -61 -20 -61 -7 0 5 -13 7 -30 4
-17 -2 -30 0 -30 6 0 14 95 75 160 103 30 12 64 29 75 36 22 15 45 18 30 4z
m-3325 -16 c0 -23 -38 -39 -56 -24 -13 11 -11 14 13 25 38 17 43 17 43 -1z
m3885 5 c-3 -5 -12 -10 -18 -10 -7 0 -6 4 3 10 19 12 23 12 15 0z m-4385 -29
c0 -12 -20 -25 -27 -18 -7 7 6 27 18 27 5 0 9 -4 9 -9z m75 0 c-3 -6 6 -7 22
-2 16 4 38 5 50 3 18 -3 20 -6 10 -17 -6 -7 -15 -11 -19 -8 -5 2 -8 -1 -8 -6
0 -15 11 -14 46 8 26 16 33 17 49 5 18 -14 18 -14 -1 -14 -26 -1 -58 -26 -49
-40 4 -7 24 -10 46 -8 44 4 52 -6 13 -16 -31 -8 -29 -40 4 -44 12 -2 22 -8 22
-13 0 -5 1 -12 3 -16 1 -5 -11 -8 -26 -8 -22 -1 -29 5 -33 25 -9 38 -47 90
-66 90 -9 0 -20 5 -23 10 -3 6 -17 10 -30 10 -12 0 -26 7 -29 16 -7 18 0 34
15 34 6 0 8 -4 4 -9z m340 -21 c-3 -5 -11 -10 -16 -10 -6 0 -7 5 -4 10 3 6 11
10 16 10 6 0 7 -4 4 -10z m1995 0 c0 -5 -11 -10 -25 -10 -14 0 -25 5 -25 10 0
6 11 10 25 10 14 0 25 -4 25 -10z m60 -6 c0 -2 -7 -4 -15 -4 -8 0 -15 4 -15
10 0 5 7 7 15 4 8 -4 15 -8 15 -10z m-2556 -6 c-5 -8 0 -9 14 -6 12 4 22 2 22
-3 0 -5 8 -9 18 -10 14 0 14 -2 -3 -9 -22 -9 -67 -2 -76 13 -4 5 -9 5 -13 -2
-4 -6 2 -15 15 -19 l23 -9 -22 -5 c-12 -4 -22 -2 -22 4 0 5 -12 7 -30 3 -16
-3 -37 -2 -47 4 -16 9 -14 11 16 24 19 8 40 13 47 10 7 -2 15 0 19 6 3 6 15
11 26 11 13 0 18 -4 13 -12z m586 3 c0 -13 -21 -19 -44 -13 -20 5 -20 5 0 13
27 11 44 11 44 0z m2730 -1 c12 -8 11 -10 -7 -10 -13 0 -23 5 -23 10 0 13 11
13 30 0z m925 -17 c-14 -27 -102 -82 -133 -84 -10 0 -12 -3 -5 -6 10 -4 10 -7
0 -16 -16 -16 -119 -58 -126 -52 -9 9 33 33 76 44 26 7 41 16 38 24 -3 7 20
23 56 40 34 16 58 33 56 40 -2 7 5 17 17 24 32 19 36 16 21 -14z m-4424 -19
c-29 -13 -63 -24 -75 -23 -11 0 8 11 44 24 85 30 99 30 31 -1z m279 22 c0 -3
-4 -8 -10 -11 -5 -3 -10 -1 -10 4 0 6 5 11 10 11 6 0 10 -2 10 -4z m2175 -27
c-33 -17 -71 -43 -85 -59 -25 -28 -70 -49 -70 -33 0 15 171 123 193 123 15 -1
2 -11 -38 -31z m402 23 c8 -5 8 -12 -3 -26 -13 -18 -14 -18 -14 -2 0 15 -6 17
-42 12 -103 -15 -153 -17 -137 -7 8 5 28 12 43 15 16 3 31 8 34 11 8 8 105 6
119 -3z m1853 -22 c0 -27 -6 -33 -52 -54 -29 -13 -89 -40 -133 -61 -44 -21
-109 -49 -145 -62 -36 -13 -94 -38 -130 -55 -155 -73 -270 -108 -455 -139
-203 -33 -380 -16 -565 56 -52 20 -131 47 -175 59 -44 13 -94 30 -112 39 -18
10 -56 24 -85 32 -29 8 -73 21 -98 31 -87 31 -160 13 -455 -111 -158 -67 -416
-151 -615 -200 -58 -14 -118 -30 -135 -35 -16 -5 -73 -23 -125 -39 -52 -16
-115 -33 -140 -36 -25 -4 -67 -13 -95 -21 -65 -18 -239 -31 -290 -22 -74 13
-130 26 -160 37 -16 5 -52 16 -80 22 -80 20 -150 97 -203 224 -23 55 -42 103
-42 106 0 17 -84 90 -110 95 -16 4 -30 11 -30 17 0 6 -25 8 -67 4 -51 -3 -90
-15 -154 -45 -47 -22 -97 -43 -110 -47 -13 -4 -69 -29 -124 -55 -100 -48 -191
-91 -340 -160 -44 -20 -107 -49 -140 -65 -188 -87 -252 -119 -267 -132 -10 -9
-45 -16 -90 -19 -79 -5 -79 -5 22 39 25 11 100 46 167 78 68 33 125 59 127 59
2 0 50 27 107 60 121 72 286 164 349 195 94 47 200 95 210 95 6 0 36 14 67 30
31 17 66 30 80 30 22 0 99 18 184 42 30 8 42 7 75 -10 50 -25 59 -44 84 -167
29 -139 75 -223 148 -268 47 -29 179 -81 258 -101 71 -18 189 -21 266 -5 29 6
98 25 153 43 200 65 250 81 260 81 6 0 12 2 15 5 3 3 59 22 125 44 66 21 128
43 137 47 10 5 25 9 33 9 9 0 33 9 55 20 22 11 56 22 77 25 20 2 51 11 68 20
18 8 56 21 86 29 30 8 91 35 135 60 45 25 88 46 94 46 7 0 41 13 75 29 44 21
85 31 144 37 97 8 154 -2 286 -51 50 -18 113 -41 140 -51 28 -9 82 -32 122
-51 40 -18 79 -33 86 -33 8 0 30 -6 48 -14 61 -25 151 -36 329 -37 96 -1 180
-6 187 -11 7 -6 26 -2 50 11 22 10 57 22 78 26 67 11 105 26 231 86 67 33 125
59 129 59 9 0 84 33 118 51 73 39 104 53 171 73 73 23 76 23 71 5 -4 -13 -2
-19 9 -19 8 0 17 9 21 19 3 11 14 22 23 24 9 3 18 5 20 6 1 0 2 -13 2 -29z
m-2190 -5 c-31 -23 -50 -31 -50 -21 0 6 64 46 74 46 6 0 -5 -11 -24 -25z m953
9 c9 -3 17 -9 17 -14 0 -5 13 -7 29 -4 16 4 32 1 35 -5 8 -13 53 -15 60 -2 3
5 27 12 53 15 27 4 57 9 68 12 17 4 15 1 -7 -20 -18 -16 -45 -27 -75 -31 -27
-3 -73 -11 -104 -16 -31 -6 -67 -8 -80 -3 -13 4 -28 7 -33 6 -18 -5 -46 10
-46 25 0 12 -8 14 -37 10 -37 -6 -74 5 -61 18 19 19 125 24 181 9z m-2713 -4
c0 -5 -7 -10 -15 -10 -18 0 -20 -20 -2 -21 6 0 -8 -7 -33 -15 -56 -17 -64 -17
-25 1 17 8 23 14 15 15 -9 0 -2 8 15 20 34 22 45 25 45 10z m3710 -4 c0 -2 -7
-6 -15 -10 -8 -3 -15 -1 -15 4 0 6 7 10 15 10 8 0 15 -2 15 -4z m-1675 -16
c-6 -9 9 -18 63 -34 16 -6 22 -3 22 8 0 21 74 21 110 1 24 -14 24 -14 -12 -8
-30 4 -38 2 -38 -9 0 -9 10 -22 23 -31 43 -29 10 -26 -73 8 -47 19 -94 35
-105 35 -11 0 -38 7 -60 14 l-40 14 40 4 c22 3 48 5 58 6 10 1 15 -3 12 -8z
m-945 -9 c0 -8 -60 -41 -74 -41 -4 0 -24 -11 -45 -25 -26 -16 -41 -20 -43 -13
-6 17 -28 0 -28 -23 0 -12 -7 -19 -18 -19 -10 0 -22 -3 -25 -7 -4 -3 -29 -14
-57 -24 -35 -12 -50 -14 -50 -6 0 13 48 48 90 67 14 6 41 19 60 30 19 10 37
14 38 9 3 -8 53 13 122 52 20 11 30 11 30 0z m1964 -40 c-11 -12 -164 -14
-164 -2 0 6 17 11 40 11 22 0 57 9 77 20 l38 20 8 -21 c4 -12 5 -25 1 -28z
m-3839 29 c-3 -5 -16 -10 -28 -9 -21 0 -21 1 -2 9 28 12 37 12 30 0z m565 6
c0 -3 -4 -8 -10 -11 -5 -3 -10 -1 -10 4 0 6 5 11 10 11 6 0 10 -2 10 -4z
m-675 -26 c-4 -7 2 -9 19 -4 38 9 32 -3 -11 -23 -21 -9 -41 -19 -45 -21 -5 -2
-8 1 -8 7 0 6 7 11 16 11 8 0 12 5 9 10 -5 8 -11 8 -19 1 -7 -6 -16 -8 -19 -5
-3 4 -13 -1 -22 -9 -19 -20 -19 -28 0 -21 8 4 15 2 15 -3 0 -12 -98 -58 -106
-50 -4 3 4 11 18 17 26 12 53 48 44 58 -7 6 -89 -37 -151 -78 -47 -32 -75 -43
-75 -30 0 14 43 44 91 64 24 10 57 25 73 34 81 42 187 69 171 42z m2386 -10
c-13 -11 -28 -20 -35 -20 -6 1 0 10 13 20 13 11 28 20 35 20 6 -1 0 -10 -13
-20z m-2284 -6 c-15 -8 -33 -12 -40 -7 -8 5 -3 9 13 14 43 12 56 9 27 -7z
m1632 -7 c-13 -5 -37 -16 -52 -24 -19 -10 -32 -12 -38 -6 -11 11 90 54 105 45
6 -3 -1 -10 -15 -15z m3101 3 c0 -5 -5 -10 -11 -10 -5 0 -7 5 -4 10 3 6 8 10
11 10 2 0 4 -4 4 -10z m-3974 -15 c-11 -8 -28 -15 -38 -15 -10 0 -18 -7 -18
-15 0 -10 11 -15 33 -16 32 0 32 0 10 -16 -24 -16 -32 -53 -12 -53 6 0 9 -6 6
-13 -11 -29 8 -40 47 -26 24 9 32 16 23 21 -8 5 -5 8 9 8 11 0 29 -7 40 -16
10 -8 14 -13 9 -11 -6 3 -34 -3 -62 -13 -49 -17 -53 -17 -67 -1 -18 20 -46 93
-52 138 -4 30 -2 32 33 36 21 2 43 4 48 5 6 1 1 -5 -9 -13z m1542 -32 c-2 -10
-26 -30 -53 -45 -61 -34 -85 -36 -32 -4 21 13 46 33 55 45 21 25 35 27 30 4z
m1852 13 c0 -9 -112 -67 -118 -61 -9 9 39 45 60 45 9 0 20 5 23 10 6 10 35 14
35 6z m578 -29 c-1 -30 -5 -34 -60 -55 -33 -13 -62 -21 -65 -18 -5 5 55 46 67
46 3 0 14 14 23 30 23 39 37 38 35 -3z m-1538 -3 c48 -8 110 -30 110 -40 0 -4
-14 -4 -30 0 -19 3 -29 2 -25 -4 3 -6 19 -10 35 -10 30 0 46 -13 36 -29 -3 -5
-27 -1 -53 8 -34 12 -48 23 -46 35 0 11 -4 15 -13 12 -17 -7 -144 31 -144 43
0 5 19 4 43 0 23 -5 62 -12 87 -15z m1480 17 c0 -9 -61 -51 -74 -51 -16 0 -3
20 27 39 35 23 47 26 47 12z m-4803 -7 c-3 -3 -12 -4 -19 -1 -8 3 -5 6 6 6 11
1 17 -2 13 -5z m667 -9 c-4 -8 -8 -15 -10 -15 -2 0 -4 7 -4 15 0 8 4 15 10 15
5 0 7 -7 4 -15z m1701 5 c-3 -5 -12 -10 -18 -10 -7 0 -6 4 3 10 19 12 23 12
15 0z m-942 -72 c-70 -33 -139 -68 -153 -78 -14 -9 -43 -20 -65 -24 -37 -7
-39 -6 -20 8 11 8 24 16 29 16 5 0 38 14 74 31 48 22 62 33 52 39 -8 5 -12 11
-9 15 10 9 203 62 212 57 5 -2 -49 -31 -120 -64z m802 45 c-25 -18 -112 -63
-122 -63 -14 1 39 40 53 40 8 0 14 6 14 13 0 12 59 37 70 29 3 -2 -4 -10 -15
-19z m-1805 7 c0 -5 -6 -10 -14 -10 -22 0 -146 -58 -146 -68 0 -13 -54 -10
-60 3 -3 6 7 11 22 13 14 2 55 19 90 37 62 34 108 45 108 25z m280 0 c0 -5 -5
-10 -11 -10 -5 0 -7 5 -4 10 3 6 8 10 11 10 2 0 4 -4 4 -10z m956 -19 c-27
-28 -128 -62 -143 -48 -9 10 28 36 52 37 11 1 38 10 60 20 56 26 63 24 31 -9z
m647 -2 c-21 -21 -133 -72 -141 -64 -9 9 28 35 84 59 74 30 84 31 57 5z
m-1388 1 c3 -5 -3 -10 -14 -10 -12 0 -21 5 -21 10 0 6 6 10 14 10 8 0 18 -4
21 -10z m3215 -5 c-7 -8 -22 -15 -34 -15 -20 0 -19 1 4 14 34 19 45 19 30 1z
m560 -5 c0 -11 -2 -20 -4 -20 -2 0 -11 -3 -20 -6 -11 -4 -16 0 -16 14 0 18 11
29 33 31 4 1 7 -8 7 -19z m-4860 0 c-19 -13 -30 -13 -30 0 0 6 10 10 23 10 18
0 19 -2 7 -10z m3088 4 c34 -10 26 -19 -28 -33 -27 -7 -50 -17 -50 -22 0 -5
-7 -9 -15 -9 -22 0 -19 7 18 40 34 31 39 33 75 24z m1696 -9 c-4 -8 -10 -15
-16 -15 -5 0 -44 -22 -87 -50 -43 -27 -85 -50 -93 -50 -9 0 -18 -9 -21 -20 -7
-27 -111 -77 -115 -55 -4 16 -22 21 -22 6 0 -15 -74 -60 -110 -67 -29 -6 -33
-4 -22 7 6 7 12 20 12 29 0 20 92 63 102 47 9 -16 38 11 31 29 -3 8 0 14 7 14
11 0 165 65 285 120 50 23 56 24 49 5z m-4940 -27 c-3 -4 -11 -5 -19 -2 -7 3
-39 -13 -69 -35 -30 -23 -58 -41 -62 -41 -4 0 -15 -7 -24 -15 -16 -15 -70 -31
-70 -21 0 5 100 64 140 82 14 7 41 23 60 37 23 16 37 21 42 14 4 -6 5 -14 2
-19z m830 23 c6 -9 -83 -35 -91 -27 -6 5 54 34 74 35 6 1 14 -3 17 -8z m190
-7 c-1 -16 -34 -16 -34 -1 0 9 8 14 18 13 9 -2 17 -7 16 -12z m-499 -4 c-3 -5
-12 -10 -18 -10 -7 0 -6 4 3 10 19 12 23 12 15 0z m2501 -9 c-4 -5 -39 -22
-79 -37 -39 -15 -96 -43 -125 -63 -39 -25 -63 -34 -87 -33 -32 2 -58 -9 -215
-95 -56 -31 -57 -32 -41 -42 8 -5 -9 -14 -48 -23 -34 -9 -63 -13 -66 -9 -2 4
44 31 102 61 58 29 112 60 120 69 9 8 36 22 62 31 77 28 202 79 281 115 75 35
106 43 96 26z m278 -22 c-55 -19 -94 -24 -94 -10 0 11 110 39 129 33 9 -3 -6
-13 -35 -23z m756 14 c0 -8 -14 -13 -34 -13 -19 0 -41 -3 -50 -6 -11 -4 -16 0
-16 15 0 18 5 20 50 18 32 -1 50 -6 50 -14z m1130 -10 c0 -24 -9 -33 -63 -62
-107 -57 -335 -171 -344 -171 -5 0 -63 -18 -129 -39 -66 -22 -133 -42 -149
-44 -17 -3 -68 -13 -115 -22 -115 -23 -253 -32 -320 -22 -30 5 -103 20 -162
33 -58 13 -117 24 -130 24 -47 0 -394 103 -414 123 -4 4 -17 7 -28 7 -11 0
-40 8 -64 17 -81 31 -196 2 -512 -127 -61 -25 -255 -83 -368 -110 -81 -20
-110 -22 -215 -17 -144 7 -142 7 -97 17 88 21 209 52 250 65 25 7 65 17 90 20
44 6 93 19 195 51 28 9 84 33 125 54 68 34 110 51 265 110 178 66 204 64 410
-35 119 -57 232 -94 365 -120 47 -9 108 -21 135 -27 28 -5 133 -10 235 -11
165 0 192 2 255 22 39 12 94 24 123 26 30 3 75 16 100 29 70 36 178 86 186 86
4 0 48 19 99 43 51 24 124 53 162 65 39 12 77 26 85 32 24 16 30 12 30 -17z
m-4835 -53 c-134 -66 -266 -123 -271 -117 -2 1 27 17 64 34 37 18 112 53 167
80 115 54 156 72 170 71 6 0 -53 -31 -130 -68z m3810 60 c-3 -5 -10 -10 -16
-10 -5 0 -9 5 -9 10 0 6 7 10 16 10 8 0 12 -4 9 -10z m-3287 -25 c15 -33 15
-35 -4 -35 -11 0 -14 6 -9 20 5 17 2 20 -22 20 -22 0 -25 2 -13 10 24 16 36
12 48 -15z m722 20 c0 -7 -72 -41 -102 -49 -21 -5 -28 -13 -28 -30 0 -18 -7
-25 -31 -30 -56 -11 -65 -6 -24 13 35 17 37 20 15 21 -22 1 -21 3 15 20 30 15
121 50 153 59 1 1 2 -1 2 -4z m880 0 c0 -8 -40 -26 -123 -56 -108 -39 -86 -20
28 24 105 41 95 38 95 32z m570 -9 c0 -18 -104 -79 -127 -74 -13 3 2 17 46 46
71 46 81 49 81 28z m1221 1 c-6 -8 -8 -17 -4 -20 3 -4 -1 -7 -10 -7 -20 0 -22
11 -5 28 16 16 33 15 19 -1z m729 8 c0 -2 -22 -16 -50 -30 -27 -14 -50 -21
-50 -16 0 5 19 18 43 29 43 22 57 26 57 17z m-4262 -19 c26 10 29 9 25 -6 -3
-11 1 -20 11 -22 10 -2 13 -8 7 -16 -6 -10 -15 -9 -42 7 -19 11 -50 22 -69 24
-47 7 -49 8 -20 16 14 4 33 3 42 -3 12 -7 26 -7 46 0z m312 4 c13 -8 13 -13 2
-31 -13 -20 -12 -21 3 -15 22 8 46 -11 38 -30 -3 -10 0 -12 10 -8 9 3 25 -5
38 -19 13 -14 39 -34 57 -45 l34 -20 -51 -3 c-28 -2 -51 -1 -51 4 0 4 9 7 20
7 11 0 20 5 20 11 0 6 -9 13 -20 16 -11 3 -20 11 -20 18 0 14 -64 30 -81 19
-7 -4 -9 1 -4 15 4 15 2 21 -8 21 -12 0 -37 46 -37 66 0 8 36 3 50 -6z m370 6
c0 -8 -133 -76 -148 -76 -25 0 -1 20 61 50 57 28 87 37 87 26z m2008 -2 c32
-9 27 -22 -12 -30 -19 -3 -36 -12 -38 -20 -2 -11 -11 -9 -38 8 l-35 22 40 12
c48 15 54 15 83 8z m912 -3 c0 -5 -7 -11 -14 -14 -10 -4 -13 -1 -9 9 6 15 23
19 23 5z m37 3 c-3 -3 -12 -4 -19 -1 -8 3 -5 6 6 6 11 1 17 -2 13 -5z m513 -9
c-7 -8 -17 -15 -23 -15 -6 0 -2 7 9 15 25 19 30 19 14 0z m-4863 -19 c-11 -6
-47 -29 -80 -50 -146 -94 -222 -136 -235 -131 -7 2 -11 1 -8 -4 3 -5 0 -11 -8
-14 -9 -4 -13 0 -12 11 2 9 13 19 26 20 13 2 35 11 48 20 14 9 32 17 39 18 8
2 22 10 31 19 25 25 206 135 212 128 3 -3 -3 -10 -13 -17z m2283 18 c0 -7 -91
-47 -96 -41 -3 2 15 14 38 25 45 22 58 26 58 16z m-1750 -13 c0 -5 -10 -11
-22 -14 -13 -3 -54 -15 -92 -26 -114 -34 -113 -34 -96 -22 8 6 45 20 83 31 37
12 67 25 67 30 0 6 14 10 30 10 17 0 30 -4 30 -9z m4310 -23 c11 -3 9 -8 -9
-17 -21 -12 -23 -11 -18 3 4 9 2 16 -4 16 -6 0 -7 5 -3 11 4 7 9 7 13 2 3 -6
13 -12 21 -15z m-3610 8 c0 -3 -4 -8 -10 -11 -5 -3 -10 -1 -10 4 0 6 5 11 10
11 6 0 10 -2 10 -4z m2301 -8 c46 -13 53 -33 8 -23 -20 5 -29 3 -25 -3 3 -5
-1 -15 -10 -22 -8 -7 -13 -19 -10 -27 7 -18 5 -17 -59 14 -35 17 -54 33 -52
43 4 27 85 38 148 18z m-2827 -32 c61 -30 83 -56 123 -143 15 -31 48 -79 75
-106 26 -26 48 -49 48 -50 0 -2 -22 -4 -49 -5 -44 -2 -52 1 -70 26 -11 16 -23
41 -27 58 -4 16 -15 45 -25 65 -36 73 -170 99 -324 65 -100 -23 -257 -67 -295
-83 -19 -8 -56 -21 -81 -29 -25 -8 -76 -27 -112 -44 -40 -18 -86 -31 -114 -32
-44 -1 -45 -2 -10 -5 66 -7 39 -23 -39 -23 -41 0 -73 3 -70 8 4 6 143 79 196
102 8 4 24 11 35 17 27 14 82 33 129 44 22 6 51 16 65 23 24 12 41 19 126 48
17 6 41 16 55 23 14 7 70 25 125 40 55 14 101 28 104 30 10 11 86 -5 135 -29z
m1421 9 c-27 -22 -65 -34 -65 -20 0 6 80 45 90 44 3 0 -8 -11 -25 -24z m-1246
-16 c10 -29 9 -31 -20 -41 -40 -14 -31 -34 15 -30 40 3 45 -4 19 -24 -17 -13
-17 -15 1 -29 11 -8 27 -15 37 -15 9 0 22 -7 29 -16 11 -13 10 -16 -9 -21 -29
-8 -21 -26 15 -34 16 -4 21 -7 12 -8 -10 0 -18 -5 -18 -10 0 -15 51 -43 70
-38 18 5 50 -9 50 -21 0 -4 -18 -6 -39 -4 -32 3 -52 15 -95 56 -48 45 -67 72
-122 175 -16 30 -9 47 24 60 l27 9 -28 1 c-16 1 -37 -3 -47 -9 -13 -7 -21 -5
-31 7 -8 10 -9 14 -2 10 6 -4 14 -3 18 3 3 5 23 10 45 10 33 0 39 -4 49 -31z
m1126 11 c-6 -10 -91 -50 -106 -50 -24 0 -4 17 44 37 59 25 71 27 62 13z m852
-5 c0 -8 -4 -15 -9 -15 -4 0 -36 -13 -70 -30 -34 -16 -64 -30 -67 -30 -8 1
131 90 139 90 4 0 7 -7 7 -15z m2303 1 c0 -7 -14 -16 -32 -19 -18 -3 -42 -8
-53 -11 -11 -4 3 5 30 18 28 14 51 25 53 25 1 1 2 -5 2 -13z m-3850 -6 c0 -5
-7 -10 -15 -10 -8 0 -15 5 -15 10 0 6 7 10 15 10 8 0 15 -4 15 -10z m860 -9
c0 -5 -27 -18 -59 -29 -69 -23 -76 -6 -8 20 50 19 67 21 67 9z m1520 -19 c0
-4 -42 -8 -93 -10 -67 -1 -87 1 -75 8 43 26 168 28 168 2z m-3390 13 c0 -6
-32 -19 -70 -29 -14 -3 -7 3 15 13 42 21 55 24 55 16z m4160 -22 c0 -5 -29
-27 -64 -51 -99 -68 -263 -109 -254 -64 2 10 14 18 30 20 15 2 30 11 33 21 4
12 26 24 63 35 71 20 72 20 72 1 0 -17 2 -18 24 -9 9 3 16 12 16 19 0 6 15 17
33 23 41 13 47 14 47 5z m-2480 -28 c0 -15 -127 -61 -138 -50 -4 4 -2 10 3 12
6 2 35 17 65 32 56 29 70 30 70 6z m695 9 c-35 -27 -184 -96 -197 -91 -14 4
178 105 202 106 11 0 10 -4 -5 -15z m1118 4 c26 -6 47 -13 47 -16 -1 -22 -33
-43 -72 -48 -52 -7 -130 13 -107 27 10 6 4 9 -18 9 -46 0 -41 15 10 27 54 13
81 13 140 1z m1315 -13 c-32 -27 -36 -37 -11 -28 10 4 14 2 9 -5 -11 -19 -176
-114 -189 -109 -6 2 2 10 18 18 17 7 43 24 58 36 16 13 35 23 43 23 9 0 12 5
9 10 -3 6 -1 10 5 10 6 0 8 5 5 11 -8 12 44 59 65 59 10 -1 6 -9 -12 -25z
m-1548 5 c0 -5 -7 -10 -16 -10 -8 0 -12 5 -9 10 3 6 10 10 16 10 5 0 9 -4 9
-10z m-3910 -12 c0 -6 -3 -9 -6 -5 -4 3 -27 -8 -51 -25 -33 -22 -47 -27 -53
-18 -5 8 -24 3 -70 -20 -35 -17 -60 -26 -58 -19 6 17 57 47 83 49 11 1 43 12
70 25 55 27 85 31 85 13z m1450 8 c0 -2 -9 -6 -20 -9 -11 -3 -20 -1 -20 4 0 5
9 9 20 9 11 0 20 -2 20 -4z m3876 -27 c-15 -12 -30 -18 -34 -14 -9 8 26 35 46
35 9 0 4 -8 -12 -21z m-1847 -3 c-4 -4 -173 -65 -204 -73 -16 -5 -18 -3 -7 8
13 14 204 80 211 73 2 -2 2 -6 0 -8z m54 3 c-8 -8 -16 -8 -30 0 -16 9 -14 10
12 11 21 0 26 -3 18 -11z m852 2 c19 -8 19 -8 -2 -19 -12 -7 -33 -12 -47 -12
-14 0 -34 -9 -45 -21 -12 -13 -21 -17 -26 -10 -3 6 -20 11 -36 11 -53 0 -27
24 39 35 34 7 65 15 69 18 8 9 22 8 48 -2z m-3995 -5 c0 -9 -83 -57 -93 -53
-7 2 -31 -7 -54 -20 -53 -31 -56 -25 -5 11 26 17 45 24 57 20 14 -6 16 -4 10
7 -4 8 -5 11 0 7 4 -4 19 2 33 12 22 18 52 27 52 16z m2380 -3 c-1 -11 -100
-53 -100 -43 0 5 19 18 43 29 46 22 57 25 57 14z m235 -3 c-3 -5 -12 -10 -18
-10 -7 0 -6 4 3 10 19 12 23 12 15 0z m-835 -15 c0 -8 -7 -15 -15 -15 -8 0
-23 -4 -33 -9 -9 -6 -45 -19 -80 -30 -80 -27 -127 -27 -52 0 30 10 62 22 70
26 8 3 35 14 60 23 25 10 46 18 48 19 1 0 2 -6 2 -14z m3190 6 c0 -11 -40 -41
-54 -41 -5 0 1 11 14 25 24 26 40 32 40 16z m-4509 -25 c-68 -35 -32 -40 52
-6 42 16 80 30 87 30 21 0 -1 -20 -50 -45 -40 -20 -64 -25 -127 -25 -49 0
-113 -9 -173 -24 -52 -14 -97 -23 -99 -21 -2 2 10 7 25 11 16 3 58 22 93 41
35 18 68 32 75 29 6 -2 3 -5 -6 -5 -10 -1 -18 -5 -18 -11 0 -17 33 -10 90 20
30 15 64 28 75 29 12 0 3 -9 -24 -23z m662 17 c-7 -2 -21 -2 -30 0 -10 3 -4 5
12 5 17 0 24 -2 18 -5z m477 -2 c-26 -15 -66 -24 -55 -13 6 5 19 12 30 15 32
8 41 7 25 -2z m1474 -16 c-22 -16 -34 -19 -34 -7 0 10 43 32 49 26 3 -2 -4
-11 -15 -19z m151 10 c-16 -7 -32 -11 -35 -9 -7 8 24 24 45 23 15 0 13 -4 -10
-14z m64 -16 c-8 -5 -22 -9 -31 -9 -19 0 -24 -15 -9 -24 5 -3 23 -1 41 5 23 9
34 9 43 0 8 -8 4 -11 -17 -11 -15 0 -25 -4 -21 -10 4 -6 -6 -7 -27 -2 -44 10
-165 9 -208 -1 -34 -9 -35 -8 -12 8 12 9 27 13 32 10 6 -4 16 -2 23 3 7 6 32
10 57 10 26 -1 62 8 85 19 38 19 72 20 44 2z m1551 6 c-7 -8 -17 -15 -22 -15
-6 0 -5 7 2 15 7 8 17 15 22 15 6 0 5 -7 -2 -15z m244 -6 c-19 -22 -19 -22 4
-10 13 7 22 8 22 2 0 -13 -38 -34 -49 -27 -5 3 -16 -5 -25 -18 -17 -27 -151
-103 -231 -132 -27 -9 -55 -21 -61 -25 -14 -11 -84 -8 -84 3 0 5 21 18 48 29
61 26 178 77 222 98 19 9 62 35 95 58 66 47 88 55 59 22z m-5484 5 c0 -3 -20
-14 -45 -25 -25 -11 -45 -23 -45 -27 0 -12 -127 -73 -163 -79 -18 -3 -39 -11
-49 -20 -9 -8 -48 -19 -87 -25 -49 -7 -71 -15 -71 -24 0 -8 -9 -14 -20 -14
-22 0 -27 16 -8 22 7 3 13 13 14 24 3 69 4 73 19 68 8 -3 54 13 103 35 96 44
123 51 102 26 -18 -21 -69 -45 -85 -39 -18 7 -29 -14 -15 -31 9 -11 18 -11 53
5 23 11 42 23 42 27 -1 10 46 35 53 29 2 -3 -9 -16 -24 -30 -25 -21 -27 -25
-12 -31 12 -5 50 13 115 54 88 55 123 71 123 55z m1043 -24 c-34 -30 -78 -48
-91 -35 -7 6 2 13 62 48 49 28 65 20 29 -13z m530 23 c-7 -2 -19 -2 -25 0 -7
3 -2 5 12 5 14 0 19 -2 13 -5z m1977 3 c0 -2 -9 -6 -20 -9 -11 -3 -18 -1 -14
4 5 9 34 13 34 5z m-2450 -36 c-8 -5 -21 -10 -29 -10 -11 0 -10 5 4 20 13 15
22 17 29 10 8 -8 6 -14 -4 -20z m695 20 c-3 -5 -16 -10 -28 -9 -20 1 -20 2 3
9 14 4 26 8 28 9 2 1 0 -3 -3 -9z m2676 -7 c2 -5 -17 -9 -43 -11 -57 -4 -66
15 -10 21 39 4 47 2 53 -10z m-4623 -7 c-10 -7 -18 -18 -18 -24 0 -6 -4 -13
-9 -16 -5 -3 -8 2 -7 12 0 9 10 22 21 29 27 16 34 16 13 -1z m2727 -8 c-22
-11 -48 -27 -57 -36 -10 -8 -18 -12 -18 -9 0 3 -30 -8 -66 -24 -36 -17 -69
-28 -72 -25 -3 4 31 23 76 43 45 21 82 43 82 49 0 14 21 21 65 22 30 1 30 1
-10 -20z m-931 3 c4 -5 -3 -7 -14 -4 -23 6 -26 13 -6 13 8 0 17 -4 20 -9z
m3605 -41 c-32 -29 -50 -39 -122 -69 -53 -21 -50 -11 9 33 47 36 61 42 67 30
5 -8 13 -12 18 -9 5 4 6 11 3 17 -9 14 38 50 50 38 5 -5 -6 -22 -25 -40z
m-4691 10 c-52 -33 -58 -35 -58 -20 0 11 68 49 90 49 8 1 -6 -13 -32 -29z
m1145 24 c3 -4 24 -7 47 -8 22 -1 46 -8 53 -15 10 -11 6 -12 -18 -8 -16 3 -49
9 -72 12 -24 4 -43 11 -43 16 0 10 23 12 33 3z m907 -8 c0 -15 -52 -46 -77
-46 -24 0 -12 15 30 37 23 12 43 22 45 22 1 1 2 -5 2 -13z m-1255 -6 c3 -5 1
-10 -4 -10 -6 0 -11 5 -11 10 0 6 2 10 4 10 3 0 8 -4 11 -10z m1879 2 c7 -12
-78 -52 -92 -43 -8 4 4 15 30 29 48 24 55 26 62 14z m636 -2 c0 -5 -19 -10
-42 -10 -32 0 -39 3 -28 10 20 13 70 13 70 0z m-3713 -15 c0 -8 -4 -12 -9 -9
-5 3 -6 10 -3 15 9 13 12 11 12 -6z m38 5 c-3 -5 -12 -10 -18 -10 -7 0 -6 4 3
10 19 12 23 12 15 0z m935 -11 c0 -5 -12 -9 -27 -9 -26 0 -26 1 -8 14 20 14
35 12 35 -5z m775 11 c-11 -5 -29 -9 -40 -9 -17 -1 -17 1 -5 9 8 5 26 9 40 9
23 0 23 -1 5 -9z m510 -6 c-11 -8 -31 -17 -45 -20 -14 -3 -48 -16 -77 -29
l-52 -24 8 22 c5 12 20 24 37 28 16 4 49 14 74 22 61 20 81 21 55 1z m2645 6
c0 -9 -31 -30 -44 -30 -12 0 -6 28 7 33 20 9 37 8 37 -3z m-4117 -27 c20 -9
37 -20 37 -25 0 -13 -58 -9 -97 7 -20 9 -44 13 -52 9 -9 -4 -49 -6 -88 -5 -59
2 -74 0 -79 -13 -3 -9 -17 -16 -29 -16 -13 0 -27 -4 -30 -10 -3 -5 -30 -10
-58 -10 -51 1 -52 1 -25 15 61 34 255 73 333 67 28 -1 67 -10 88 -19z m117 17
c-8 -5 -10 -10 -5 -11 6 0 1 -4 -10 -8 -22 -9 -45 -4 -45 9 0 8 25 16 60 18
13 2 13 1 0 -8z m2750 -3 c8 -1 19 -8 23 -14 4 -7 15 -13 22 -13 8 0 15 -5 15
-11 0 -13 -29 -5 -95 27 -46 22 -47 24 -15 18 19 -3 42 -7 50 -7z m130 4 c0
-9 -60 -24 -68 -16 -5 5 36 23 56 24 6 1 12 -3 12 -8z m-584 -16 c-10 -7 -40
-19 -67 -24 -27 -6 -66 -18 -85 -26 -64 -27 -71 -15 -9 16 39 19 69 28 85 24
15 -3 34 1 45 9 11 9 27 15 35 15 12 0 11 -3 -4 -14z m364 -14 c36 -12 74 -26
85 -31 11 -5 57 -21 103 -36 45 -15 81 -29 79 -30 -10 -10 -196 20 -222 36
-16 9 -55 23 -85 30 -30 6 -79 18 -108 27 -47 13 -55 13 -65 0 -7 -8 -34 -20
-62 -26 -27 -7 -66 -16 -85 -21 -19 -5 -62 -11 -95 -13 -56 -4 -58 -3 -30 9
17 7 38 13 47 14 10 0 57 13 105 29 49 17 97 32 108 34 44 10 164 -2 225 -22z
m1224 -26 c-16 -13 -31 -22 -32 -20 -10 9 12 47 31 54 33 13 34 -8 1 -34z
m-4494 10 c-22 -23 -80 -36 -80 -17 0 12 53 40 79 41 l24 1 -23 -25z m-409 -3
c-35 -24 -101 -52 -101 -43 0 7 107 61 120 60 3 0 -6 -8 -19 -17z m1046 -3
c-15 -12 -24 -26 -20 -32 3 -7 -3 -3 -15 7 -12 11 -22 23 -22 27 0 9 25 16 60
18 l25 0 -28 -20z m2833 6 c-7 -9 -15 -13 -19 -10 -3 3 1 10 9 15 21 14 24 12
10 -5z m180 3 c0 -23 -85 -51 -130 -43 -49 8 -57 19 -25 33 21 10 25 9 25 -3
0 -17 25 -20 35 -5 6 9 56 27 83 29 6 1 12 -5 12 -11z m72 -8 c25 0 22 -25 -5
-43 -27 -18 -87 -32 -87 -20 1 14 27 43 39 43 6 0 11 10 11 22 0 17 3 19 12
10 7 -7 20 -12 30 -12z m873 -1 c-7 -19 -45 -42 -53 -34 -4 4 6 18 22 31 29
26 40 27 31 3z m-3918 -21 c-43 -12 -52 -8 -22 12 22 14 31 16 37 7 5 -8 -1
-14 -15 -19z m1981 21 c-10 -5 -18 -16 -18 -23 0 -16 -22 -26 -58 -26 -25 0
-24 1 14 30 21 16 48 29 59 29 18 0 19 0 3 -10z m1792 6 c0 -9 -43 -55 -52
-55 -14 0 -9 19 12 40 19 19 40 27 40 15z m-3359 -30 l34 -14 -65 1 c-36 0
-57 2 -47 5 9 2 17 9 17 14 0 13 23 11 61 -6z m597 -2 c-11 -10 -39 -18 -75
-21 -69 -5 -67 2 8 22 76 20 88 20 67 -1z m817 5 c-11 -6 -23 -16 -27 -22 -4
-6 -10 -7 -14 -3 -9 9 25 36 46 36 10 0 9 -3 -5 -11z m1315 -18 c0 -10 -7 -23
-15 -30 -14 -11 -19 -7 -16 13 0 4 -6 7 -14 7 -12 0 -13 4 -5 19 12 24 50 17
50 -9z m540 16 c0 -7 -7 -19 -15 -26 -12 -10 -15 -9 -15 7 0 11 3 23 7 26 11
12 23 8 23 -7z m-2590 -1 c0 -9 -44 -23 -54 -17 -5 3 -1 9 10 13 23 9 44 11
44 4z m2473 -12 c19 -6 21 -12 7 -33 -9 -13 -12 -13 -24 3 -17 22 -26 22 -26
-3 0 -11 -6 -20 -13 -20 -23 0 -67 25 -67 38 0 17 39 15 46 -3 10 -24 24 -17
24 11 0 21 3 25 18 19 9 -4 25 -10 35 -12z m277 -7 c0 -18 -8 -27 -30 -34 -36
-13 -53 4 -24 24 10 7 24 18 29 23 17 17 25 12 25 -13z m-620 -6 c0 -5 -14
-10 -31 -10 -17 0 -28 4 -24 10 3 6 17 10 31 10 13 0 24 -4 24 -10z m-3230
-10 c0 -5 -4 -10 -10 -10 -5 0 -10 5 -10 10 0 6 5 10 10 10 6 0 10 -4 10 -10z
m173 3 c-7 -2 -21 -2 -30 0 -10 3 -4 5 12 5 17 0 24 -2 18 -5z m235 0 c-10 -2
-26 -2 -35 0 -10 3 -2 5 17 5 19 0 27 -2 18 -5z m2958 -3 c8 0 14 -4 14 -10 0
-12 -57 -13 -64 -1 -8 12 6 22 22 16 7 -3 20 -5 28 -5z m-1013 -7 c-7 -2 -19
-2 -25 0 -7 3 -2 5 12 5 14 0 19 -2 13 -5z m1411 -8 c-6 -16 -24 -21 -24 -7 0
11 11 22 21 22 5 0 6 -7 3 -15z m-84 -15 c0 -13 -5 -18 -15 -14 -16 7 -19 17
-8 27 12 13 23 7 23 -13z"/>
<path d="M2681 1387 c-12 -15 -5 -27 16 -27 7 0 13 9 13 20 0 23 -13 26 -29 7z"/>
<path d="M1710 1370 c0 -5 7 -10 15 -10 8 0 15 5 15 10 0 6 -7 10 -15 10 -8 0
-15 -4 -15 -10z"/>
<path d="M1807 1363 c-10 -10 -25 -18 -35 -18 -9 0 -18 -9 -20 -20 -4 -17 -2
-18 12 -6 12 10 23 11 47 2 39 -13 39 -13 39 -1 0 6 -7 10 -15 10 -8 0 -15 5
-15 11 0 5 5 7 10 4 6 -3 10 3 10 14 0 26 -10 27 -33 4z"/>
<path d="M2373 1361 c-18 -8 -33 -18 -33 -23 0 -11 18 -10 25 2 10 16 22 12
28 -10 9 -34 27 -23 20 13 -3 17 -6 32 -7 32 -1 1 -16 -6 -33 -14z"/>
<path d="M1990 1356 c0 -10 9 -16 25 -16 14 0 25 5 25 10 0 6 -4 10 -9 10 -5
0 -16 3 -25 6 -11 4 -16 1 -16 -10z"/>
<path d="M2878 1364 c-13 -12 -9 -44 5 -44 6 0 19 5 27 10 13 8 13 10 -2 10
-9 0 -18 7 -20 16 -2 9 -6 12 -10 8z"/>
<path d="M3060 1360 c0 -12 17 -12 45 0 17 7 15 9 -12 9 -18 1 -33 -3 -33 -9z"/>
<path d="M1930 1346 c0 -9 5 -16 10 -16 6 0 10 4 10 9 0 6 -4 13 -10 16 -5 3
-10 -1 -10 -9z"/>
<path d="M2286 1338 c-24 -33 -21 -68 5 -68 18 0 20 2 8 16 -10 13 -10 20 5
45 20 34 5 40 -18 7z"/>
<path d="M2455 1351 c-10 -17 12 -21 25 -6 10 12 10 15 -3 15 -9 0 -18 -4 -22
-9z"/>
<path d="M3030 1349 c0 -5 5 -7 10 -4 6 3 10 8 10 11 0 2 -4 4 -10 4 -5 0 -10
-5 -10 -11z"/>
<path d="M3460 1350 c0 -5 5 -10 10 -10 6 0 10 5 10 10 0 6 -4 10 -10 10 -5 0
-10 -4 -10 -10z"/>
<path d="M3420 1334 c0 -14 3 -14 15 -4 8 7 15 14 15 16 0 2 -7 4 -15 4 -8 0
-15 -7 -15 -16z"/>
<path d="M3588 1343 c-10 -2 -18 -9 -18 -15 0 -6 7 -7 18 -3 9 4 33 11 52 15
l35 8 -35 0 c-19 0 -43 -2 -52 -5z"/>
<path d="M1620 1325 c-10 -12 -9 -15 7 -15 11 0 20 7 20 15 0 8 -4 15 -7 15
-4 0 -13 -7 -20 -15z"/>
<path d="M4416 1331 c-3 -5 1 -11 9 -15 9 -3 15 0 15 9 0 16 -16 20 -24 6z"/>
<path d="M1870 1315 c0 -8 5 -15 10 -15 6 0 10 7 10 15 0 8 -4 15 -10 15 -5 0
-10 -7 -10 -15z"/>
<path d="M2174 1305 c-3 -14 -12 -25 -20 -25 -8 0 -14 -4 -14 -8 0 -5 12 -9
28 -9 24 0 27 4 27 34 0 39 -12 44 -21 8z"/>
<path d="M2572 1318 c-17 -17 -15 -40 5 -36 9 2 18 13 19 26 4 24 -6 28 -24
10z"/>
<path d="M3907 1324 c-4 -4 -7 -14 -7 -23 0 -11 3 -12 11 -4 6 6 10 16 7 23
-2 6 -7 8 -11 4z"/>
<path d="M4030 1321 c0 -5 9 -7 20 -4 11 3 20 7 20 9 0 2 -9 4 -20 4 -11 0
-20 -4 -20 -9z"/>
<path d="M1961 1298 c-13 -14 -26 -18 -40 -13 -12 3 -21 2 -21 -3 0 -15 22
-20 48 -11 14 6 30 4 41 -3 24 -14 50 -4 47 18 -4 29 -53 36 -75 12z"/>
<path d="M2070 1304 c0 -9 5 -14 12 -12 18 6 21 28 4 28 -9 0 -16 -7 -16 -16z"/>
<path d="M3095 1307 c-4 -10 -5 -21 -1 -24 10 -10 18 4 13 24 -4 17 -4 17 -12
0z"/>
<path d="M3303 1308 c-13 -6 -23 -15 -23 -20 0 -15 30 -8 50 12 22 22 9 25
-27 8z"/>
<path d="M3810 1300 c-14 -10 -21 -22 -17 -26 4 -4 13 -1 20 8 6 9 19 18 27
20 8 2 10 7 4 10 -5 4 -21 -2 -34 -12z"/>
<path d="M4170 1310 c-13 -8 -13 -10 2 -10 9 0 20 5 23 10 8 13 -5 13 -25 0z"/>
<path d="M4214 1304 c3 -9 6 -18 6 -20 0 -2 9 -4 20 -4 11 0 20 5 20 10 0 6
-7 10 -15 10 -8 0 -15 5 -15 10 0 6 -5 10 -11 10 -6 0 -8 -7 -5 -16z"/>
<path d="M4570 1310 c-9 -6 -10 -10 -3 -10 6 0 15 5 18 10 8 12 4 12 -15 0z"/>
<path d="M2691 1301 c-7 -5 -11 -14 -7 -19 9 -15 36 -4 36 14 0 16 -9 18 -29
5z"/>
<path d="M2965 1290 c-4 -12 -19 -22 -41 -26 -19 -3 -34 -10 -34 -15 0 -15 57
-10 70 6 7 8 22 16 34 16 18 1 18 2 3 6 -11 3 -16 11 -13 19 3 8 1 14 -4 14
-5 0 -11 -9 -15 -20z"/>
<path d="M3428 1292 c-20 -12 -28 -25 -28 -45 0 -25 -3 -28 -21 -24 -13 3 -19
1 -16 -6 2 -7 24 -12 50 -12 45 -1 61 8 35 18 -16 5 18 47 39 47 7 0 13 5 13
10 0 6 -8 10 -17 8 -10 -2 -17 3 -15 10 3 16 -7 15 -40 -6z"/>
<path d="M4880 1290 c0 -5 5 -10 10 -10 6 0 10 5 10 10 0 6 -4 10 -10 10 -5 0
-10 -4 -10 -10z"/>
<path d="M4960 1290 c0 -5 5 -10 11 -10 5 0 7 5 4 10 -3 6 -8 10 -11 10 -2 0
-4 -4 -4 -10z"/>
<path d="M2100 1261 c-6 -17 -9 -35 -5 -40 8 -14 35 -14 35 -1 0 6 -5 10 -11
10 -6 0 -8 7 -5 15 3 8 9 22 12 30 3 8 2 15 -4 15 -5 0 -15 -13 -22 -29z"/>
<path d="M2740 1275 c-7 -9 -10 -18 -7 -21 6 -7 47 18 47 28 0 14 -27 9 -40
-7z"/>
<path d="M3642 1273 c-7 -3 -24 -16 -37 -29 -13 -13 -29 -24 -35 -24 -5 0 -10
-7 -10 -15 0 -24 15 -18 53 20 19 19 42 35 51 35 9 0 16 5 16 10 0 11 -16 12
-38 3z"/>
<path d="M1645 1260 c-11 -17 5 -32 21 -19 8 6 14 15 14 20 0 12 -27 11 -35
-1z"/>
<path d="M1697 1264 c-23 -23 1 -54 41 -54 14 0 13 3 -4 18 -12 9 -23 23 -26
30 -2 7 -7 10 -11 6z"/>
<path d="M4105 1260 c-4 -6 5 -10 20 -10 15 0 24 4 20 10 -3 6 -12 10 -20 10
-8 0 -17 -4 -20 -10z"/>
<path d="M2290 1240 c-25 -25 -22 -44 8 -48 23 -4 31 13 10 21 -10 3 -10 8 1
21 21 25 6 31 -19 6z"/>
<path d="M4203 1248 c-43 -11 -52 -28 -14 -28 16 0 32 6 35 13 3 6 4 1 3 -13
-1 -14 -9 -25 -17 -26 -40 -3 -44 -4 -34 -14 11 -11 84 -2 84 11 0 5 -4 9 -9
9 -6 0 -11 13 -13 28 -3 27 -5 28 -35 20z"/>
<path d="M4255 1251 c-6 -11 9 -23 19 -14 9 9 7 23 -3 23 -6 0 -12 -4 -16 -9z"/>
<path d="M4930 1250 c0 -5 5 -10 10 -10 6 0 10 5 10 10 0 6 -4 10 -10 10 -5 0
-10 -4 -10 -10z"/>
<path d="M1841 1241 c-11 -7 -10 -13 8 -32 11 -12 24 -19 28 -15 4 4 2 11 -5
15 -7 4 -10 15 -6 24 7 19 -3 22 -25 8z"/>
<path d="M1935 1240 c-3 -5 1 -10 9 -10 9 0 16 5 16 10 0 6 -4 10 -9 10 -6 0
-13 -4 -16 -10z"/>
<path d="M2960 1240 c0 -5 12 -10 26 -10 14 0 23 4 19 10 -3 6 -15 10 -26 10
-10 0 -19 -4 -19 -10z"/>
<path d="M3760 1239 c0 -5 5 -7 10 -4 6 3 10 8 10 11 0 2 -4 4 -10 4 -5 0 -10
-5 -10 -11z"/>
<path d="M2020 1230 c0 -5 9 -10 20 -10 11 0 20 5 20 10 0 6 -9 10 -20 10 -11
0 -20 -4 -20 -10z"/>
<path d="M2450 1233 c-42 -12 -90 -37 -90 -47 0 -6 16 -12 36 -14 21 -1 33 2
29 8 -3 6 1 7 9 4 11 -4 19 3 26 21 12 31 11 34 -10 28z"/>
<path d="M2645 1230 c-11 -5 -31 -9 -44 -9 -20 -1 -71 -41 -71 -57 0 -2 11 -4
25 -4 15 0 25 6 25 15 0 20 32 35 74 35 38 0 56 14 30 24 -9 3 -16 6 -17 5 -1
0 -11 -4 -22 -9z"/>
<path d="M4006 1231 c-5 -8 2 -41 9 -41 1 0 18 7 36 15 19 8 26 14 17 15 -10
0 -18 5 -18 10 0 12 -37 13 -44 1z"/>
<path d="M4358 1232 c-16 -2 -28 -8 -28 -13 0 -13 47 -11 55 2 9 14 5 15 -27
11z"/>
<path d="M4552 1228 c6 -18 28 -21 28 -4 0 9 -7 16 -16 16 -9 0 -14 -5 -12
-12z"/>
<path d="M4440 1220 c-8 -5 -12 -12 -9 -15 4 -3 12 1 19 10 14 17 11 19 -10 5z"/>
<path d="M2806 1199 c-28 -22 -34 -39 -13 -38 14 0 63 59 49 59 -5 0 -21 -9
-36 -21z"/>
<path d="M3320 1210 c0 -5 5 -10 10 -10 6 0 10 5 10 10 0 6 -4 10 -10 10 -5 0
-10 -4 -10 -10z"/>
<path d="M3877 1213 c-13 -12 -7 -23 13 -23 13 0 18 5 14 15 -7 16 -17 19 -27
8z"/>
<path d="M1737 1189 c-16 -12 -36 -19 -48 -16 -65 17 -121 -88 -57 -109 27 -8
35 3 13 20 -21 15 -14 66 10 66 11 0 14 -7 9 -25 -5 -19 -2 -25 11 -25 9 0 13
5 10 10 -4 6 -4 18 -1 27 6 14 9 14 26 -2 18 -16 20 -16 20 -2 0 12 9 17 30
17 17 0 30 5 30 11 0 5 -4 8 -9 4 -5 -3 -12 -1 -15 4 -4 5 -2 12 4 16 12 7 14
25 3 25 -5 0 -21 -10 -36 -21z"/>
<path d="M2210 1195 c0 -13 4 -14 23 -4 33 17 33 19 4 19 -18 0 -27 -5 -27
-15z"/>
<path d="M3057 1203 c-14 -13 -6 -22 28 -33 37 -12 55 -7 55 16 0 19 -10 18
-26 -3 -8 -11 -13 -13 -14 -6 0 7 -7 10 -15 7 -11 -5 -13 -2 -9 10 6 16 -7 22
-19 9z"/>
<path d="M4870 1200 c-8 -5 -11 -12 -7 -16 4 -4 13 -2 19 4 15 15 7 24 -12 12z"/>
<path d="M1960 1191 c0 -5 9 -11 20 -14 13 -3 20 0 20 9 0 8 -9 14 -20 14 -11
0 -20 -4 -20 -9z"/>
<path d="M3188 1193 c7 -3 16 -2 19 1 4 3 -2 6 -13 5 -11 0 -14 -3 -6 -6z"/>
<path d="M4770 1190 c0 -6 11 -8 28 -4 39 10 40 14 4 14 -18 0 -32 -5 -32 -10z"/>
<path d="M3155 1180 c-3 -5 -1 -10 4 -10 6 0 11 5 11 10 0 6 -2 10 -4 10 -3 0
-8 -4 -11 -10z"/>
<path d="M4480 1180 c0 -5 4 -10 9 -10 6 0 13 5 16 10 3 6 -1 10 -9 10 -9 0
-16 -4 -16 -10z"/>
<path d="M1892 1163 c4 -20 58 -32 58 -13 0 6 -4 9 -9 5 -5 -3 -16 2 -24 10
-20 20 -29 19 -25 -2z"/>
<path d="M2596 1171 c-5 -7 4 -11 23 -11 17 0 31 -4 31 -10 0 -5 7 -10 16 -10
14 0 14 -2 3 -16 -11 -14 -10 -18 6 -30 25 -19 56 -18 49 0 -3 8 -12 12 -20 9
-18 -7 -18 8 1 33 20 27 19 31 -12 32 -16 0 -42 4 -59 7 -19 4 -34 3 -38 -4z"/>
<path d="M2980 1170 c0 -5 9 -10 19 -10 11 0 23 5 26 10 4 6 -5 10 -19 10 -14
0 -26 -4 -26 -10z"/>
<path d="M1552 1153 c2 -10 8 -18 13 -18 5 0 11 8 13 18 2 10 -3 17 -13 17
-10 0 -15 -7 -13 -17z"/>
<path d="M3220 1156 c0 -9 5 -16 10 -16 6 0 10 4 10 9 0 6 -4 13 -10 16 -5 3
-10 -1 -10 -9z"/>
<path d="M3633 1163 c-27 -10 -11 -23 27 -23 23 0 40 5 40 11 0 6 -9 9 -20 6
-11 -3 -20 -1 -20 4 0 10 -8 10 -27 2z"/>
<path d="M2788 1148 c-37 -13 -36 -28 1 -28 32 0 44 10 33 26 -5 7 -16 8 -34
2z"/>
<path d="M3030 1150 c0 -5 10 -10 23 -10 18 0 19 2 7 10 -19 13 -30 13 -30 0z"/>
<path d="M3900 1150 c0 -5 24 -10 54 -10 30 0 58 5 61 10 4 6 -17 10 -54 10
-34 0 -61 -4 -61 -10z"/>
<path d="M4318 1153 c-16 -4 -26 -33 -12 -33 13 0 44 21 44 30 0 10 -3 11 -32
3z"/>
<path d="M1975 1130 c-10 -11 -24 -20 -32 -20 -7 0 -13 -4 -13 -9 0 -12 34
-24 38 -13 1 5 22 7 45 5 l42 -4 -27 25 c-15 13 -24 27 -21 30 4 3 2 6 -4 6
-5 0 -18 -9 -28 -20z"/>
<path d="M3770 1140 c-8 -6 -27 -10 -42 -10 -21 0 -28 -5 -28 -20 0 -11 -4
-20 -10 -20 -5 0 -14 -9 -20 -20 -9 -17 -8 -20 10 -20 12 0 19 4 16 9 -8 12
29 42 45 37 8 -3 22 6 32 20 21 28 19 38 -3 24z"/>
<path d="M4948 1143 c-10 -2 -18 -11 -18 -19 0 -20 13 -17 28 6 7 11 11 19 10
19 -2 -1 -11 -3 -20 -6z"/>
<path d="M2035 1130 c-3 -4 2 -11 11 -14 24 -9 34 -7 34 7 0 14 -37 20 -45 7z"/>
<path d="M2141 1131 c-14 -4 -26 -12 -29 -19 -4 -14 24 -16 33 -2 11 17 45 11
45 -7 0 -11 3 -14 8 -7 4 6 24 10 45 9 46 -2 48 7 4 23 -36 13 -68 14 -106 3z"/>
<path d="M2860 1119 c-64 -39 -94 -89 -54 -89 18 0 18 -14 -1 -30 -11 -9 -13
-15 -5 -20 9 -5 8 -13 -1 -28 -16 -26 -12 -30 32 -38 27 -5 32 -4 22 6 -6 7
-9 18 -7 25 3 6 -2 18 -11 25 -14 12 -13 15 6 37 13 12 31 23 41 23 10 0 18 5
18 11 0 8 -15 9 -45 5 -25 -4 -45 -4 -45 -1 0 11 44 44 58 45 6 0 12 5 12 11
0 7 8 18 18 25 28 21 0 16 -38 -7z"/>
<path d="M4127 1133 c-25 -24 18 -32 49 -8 18 14 17 14 -12 15 -17 0 -34 -3
-37 -7z"/>
<path d="M4640 1114 c0 -8 5 -12 10 -9 6 3 10 10 10 16 0 5 -4 9 -10 9 -5 0
-10 -7 -10 -16z"/>
<path d="M1725 1103 l-30 -17 43 -9 c48 -9 68 -2 38 15 -15 8 -16 12 -5 19 26
17 -14 9 -46 -8z"/>
<path d="M1815 1110 c-3 -5 3 -10 14 -10 12 0 21 5 21 10 0 6 -6 10 -14 10 -8
0 -18 -4 -21 -10z"/>
<path d="M3260 1110 c0 -13 20 -13 40 0 12 8 9 10 -12 10 -16 0 -28 -4 -28
-10z"/>
<path d="M3405 1113 c-11 -2 -30 -6 -42 -9 -13 -2 -23 -9 -23 -15 0 -7 12 -8
33 -4 54 11 67 16 67 26 0 9 -2 9 -35 2z"/>
<path d="M4055 1113 c-41 -9 -49 -13 -39 -23 12 -12 74 6 74 21 0 9 -2 10 -35
2z"/>
<path d="M4366 1113 c-15 -15 -3 -23 33 -23 22 0 43 5 47 11 4 7 -4 10 -22 8
-16 -2 -34 0 -40 4 -6 3 -14 4 -18 0z"/>
<path d="M4515 1100 c-3 -5 1 -10 9 -10 9 0 16 5 16 10 0 6 -4 10 -9 10 -6 0
-13 -4 -16 -10z"/>
<path d="M4672 1094 c-10 -12 -10 -14 2 -14 17 0 30 16 19 23 -5 3 -14 -1 -21
-9z"/>
<path d="M2576 1085 c-10 -8 -15 -19 -10 -26 5 -9 2 -10 -9 -6 -19 7 -67 -11
-67 -25 0 -11 21 -10 40 2 9 6 17 5 22 -3 6 -9 13 -6 26 9 9 12 24 24 32 27
12 4 12 6 -2 6 -11 1 -15 6 -12 16 7 18 4 18 -20 0z"/>
<path d="M2975 1089 c-4 -6 -5 -12 -4 -14 7 -7 59 8 59 16 0 13 -47 11 -55 -2z"/>
<path d="M1863 1076 c-13 -6 -23 -14 -23 -18 0 -13 13 -9 40 12 27 21 19 24
-17 6z"/>
<path d="M2208 1060 c-43 -38 -23 -39 22 0 19 16 29 29 23 30 -7 0 -27 -13
-45 -30z"/>
<path d="M3498 1078 c-16 -5 -28 -14 -28 -19 0 -13 13 -11 45 5 33 17 20 27
-17 14z"/>
<path d="M1559 1058 c-10 -18 -8 -24 7 -35 22 -16 26 -16 50 2 18 14 17 14
-13 15 -26 0 -30 3 -26 20 7 26 -3 26 -18 -2z"/>
<path d="M2744 1065 c-10 -8 -14 -15 -7 -15 19 0 43 11 43 21 0 13 -14 11 -36
-6z"/>
<path d="M3905 1070 c-12 -20 11 -33 42 -24 l28 8 -25 4 c-14 2 -28 9 -31 14
-4 7 -9 6 -14 -2z"/>
<path d="M3108 1057 c-16 -6 -28 -15 -28 -20 0 -5 6 -6 13 -3 6 3 20 9 30 12
9 4 17 10 17 15 0 5 -1 9 -2 8 -2 -1 -15 -6 -30 -12z"/>
<path d="M4596 1061 c-4 -7 -5 -15 -2 -18 9 -9 19 4 14 18 -4 11 -6 11 -12 0z"/>
<path d="M3190 1050 c0 -5 5 -10 10 -10 6 0 10 5 10 10 0 6 -4 10 -10 10 -5 0
-10 -4 -10 -10z"/>
<path d="M3238 1044 c-12 -7 -33 -18 -45 -23 -13 -6 -23 -15 -23 -21 0 -5 -9
-19 -21 -31 -11 -11 -18 -23 -16 -26 10 -9 66 27 61 40 -6 16 46 47 80 47 14
0 26 4 26 9 0 16 -38 19 -62 5z"/>
<path d="M2659 1033 c-2 -24 2 -57 7 -62 6 -6 54 21 54 31 0 4 -7 8 -16 8 -9
0 -18 9 -21 20 -7 25 -23 26 -24 3z"/>
<path d="M3562 1038 c-16 -16 -15 -38 1 -38 6 0 21 8 32 16 20 16 20 16 -2 9
-18 -5 -22 -3 -17 9 7 19 2 20 -14 4z"/>
<path d="M3703 1043 c-7 -2 -13 -8 -13 -12 0 -11 49 -1 56 10 5 9 -22 11 -43
2z"/>
<path d="M2460 1031 c0 -6 5 -13 10 -16 6 -3 10 1 10 9 0 9 -4 16 -10 16 -5 0
-10 -4 -10 -9z"/>
<path d="M4705 1030 c4 -6 11 -8 16 -5 14 9 11 15 -7 15 -8 0 -12 -5 -9 -10z"/>
<path d="M3483 1015 c-7 -8 -13 -19 -13 -25 0 -10 -19 -14 -52 -12 -11 1 -18
-5 -18 -14 0 -13 7 -15 31 -10 17 3 43 6 56 6 21 0 23 2 13 15 -6 8 -9 23 -5
35 7 23 5 25 -12 5z"/>
<path d="M4907 1023 c-12 -11 -8 -23 8 -23 8 0 15 7 15 15 0 16 -12 20 -23 8z"/>
<path d="M2573 993 c-41 -8 -24 -20 30 -21 48 -2 50 -1 33 13 -20 15 -24 16
-63 8z"/>
<path d="M2976 978 c-17 -24 -21 -58 -8 -58 4 0 14 15 22 33 7 17 15 35 18 40
9 18 -18 5 -32 -15z"/>
<path d="M3345 980 c3 -5 0 -8 -7 -5 -7 3 -26 -6 -42 -20 -16 -14 -33 -25 -38
-25 -4 0 -8 -4 -8 -9 0 -13 41 -1 69 21 13 10 30 18 37 18 8 0 11 6 8 15 -4 8
-10 15 -16 15 -5 0 -6 -4 -3 -10z"/>
<path d="M2437 962 c-12 -2 -16 -9 -13 -19 3 -8 6 -17 6 -19 0 -2 8 -4 17 -4
9 0 13 3 10 7 -4 3 5 14 19 23 l26 18 -24 -1 c-12 0 -31 -2 -41 -5z"/>
<path d="M2891 959 c-13 -5 -22 -11 -20 -13 7 -7 59 6 59 15 0 11 -8 11 -39
-2z"/>
<path d="M3027 963 c-13 -12 -7 -23 12 -23 14 0 18 -5 14 -19 -6 -24 12 -35
34 -22 17 10 17 10 -1 11 -13 0 -17 5 -13 20 3 13 0 20 -9 20 -8 0 -14 5 -14
10 0 11 -13 13 -23 3z"/>
<path d="M3542 959 c-13 -5 -26 -18 -29 -29 -3 -11 -13 -20 -22 -20 -20 0 -47
-17 -40 -25 8 -7 69 15 69 26 0 5 9 4 20 -3 17 -11 24 -9 47 15 28 28 18 36
-20 16 -22 -12 -22 -12 -3 10 20 23 15 25 -22 10z"/>
<path d="M2570 943 c-11 -8 -20 -24 -20 -36 1 -22 1 -22 16 -2 8 11 28 20 45
21 25 1 29 -1 24 -17 -9 -27 7 -23 28 6 20 28 17 30 -41 38 -18 2 -41 -3 -52
-10z"/>
<path d="M2485 930 c4 -6 11 -8 16 -5 14 9 11 15 -7 15 -8 0 -12 -5 -9 -10z"/>
<path d="M3125 910 c-7 -12 2 -30 16 -30 12 0 12 27 0 35 -5 3 -12 1 -16 -5z"/>
<path d="M2485 901 c-3 -5 4 -13 16 -16 23 -8 34 -1 24 14 -8 13 -32 14 -40 2z"/>
<path d="M2734 896 c23 -18 42 -20 51 -6 3 6 0 10 -7 10 -7 0 -24 3 -38 6 -24
5 -24 5 -6 -10z"/>
<path d="M2906 881 c-16 -17 -16 -19 4 -24 16 -4 20 0 20 19 0 29 -2 29 -24 5z"/>
<path d="M3280 890 c10 -6 11 -10 3 -10 -7 0 -13 -7 -13 -15 0 -18 5 -19 29
-3 18 11 18 13 3 25 -9 7 -21 12 -27 13 -5 0 -3 -5 5 -10z"/>
<path d="M3388 887 c-34 -13 -36 -27 -5 -27 23 0 47 17 47 32 0 10 -7 9 -42
-5z"/>
<path d="M2563 867 c-22 -10 -31 -27 -15 -27 12 0 48 28 42 33 -3 2 -15 0 -27
-6z"/>
<path d="M2978 873 c-37 -6 -36 -23 2 -23 20 0 30 5 30 15 0 8 -1 14 -2 14 -2
-1 -15 -4 -30 -6z"/>
<path d="M3070 860 c-11 -8 -5 -10 23 -8 20 1 37 6 37 10 0 11 -42 10 -60 -2z"/>
<path d="M2490 845 c-10 -12 -9 -16 4 -20 9 -3 23 -7 32 -10 12 -4 15 -1 10
11 -3 8 -6 20 -6 25 0 14 -26 11 -40 -6z"/>
<path d="M2803 848 c2 -7 7 -12 10 -10 4 1 16 2 27 2 11 0 20 5 20 10 0 6 -14
10 -31 10 -20 0 -29 -4 -26 -12z"/>
<path d="M3240 850 c0 -5 5 -10 10 -10 6 0 10 5 10 10 0 6 -4 10 -10 10 -5 0
-10 -4 -10 -10z"/>
<path d="M2587 833 c-16 -16 -4 -23 40 -23 41 0 54 11 19 16 -7 1 -22 5 -33 8
-11 3 -22 3 -26 -1z"/>
<path d="M2720 817 c-25 -12 -47 -22 -49 -24 -1 -1 0 -7 4 -13 5 -8 14 -6 31
5 26 17 33 5 9 -15 -8 -7 -12 -16 -9 -22 3 -5 17 3 31 17 14 14 23 28 20 32
-4 3 -2 12 5 20 18 22 6 22 -42 0z"/>
<path d="M3103 817 c-18 -5 -33 -14 -33 -18 0 -14 38 -10 43 4 3 7 6 5 6 -5 1
-21 14 -23 30 -4 18 22 -8 35 -46 23z"/>
<path d="M3318 820 c-9 -6 -28 -11 -42 -12 -14 -1 -26 -8 -26 -16 0 -8 7 -11
18 -8 9 3 29 8 45 12 15 3 27 12 27 20 0 16 0 16 -22 4z"/>
<path d="M2449 781 c-15 -25 -15 -29 2 -49 20 -26 35 -28 43 -6 9 23 8 24 -13
24 -11 0 -23 5 -27 12 -5 8 0 9 14 6 29 -8 36 5 14 25 -16 15 -19 14 -33 -12z"/>
<path d="M2910 792 c0 -5 13 -18 29 -29 l28 -22 23 31 c18 24 19 30 7 25 -10
-4 -24 -10 -32 -13 -8 -3 -15 -1 -15 5 0 6 -9 11 -20 11 -11 0 -20 -4 -20 -8z"/>
<path d="M2528 779 c-19 -11 -24 -29 -9 -29 5 0 22 5 38 11 22 8 24 12 13 19
-18 12 -21 12 -42 -1z"/>
<path d="M3152 765 c-10 -21 -9 -25 3 -25 9 0 15 10 15 25 0 14 -2 25 -3 25
-2 0 -9 -11 -15 -25z"/>
<path d="M2831 771 c-26 -7 -41 -31 -20 -31 10 0 10 -3 1 -12 -7 -7 -12 -18
-12 -25 0 -25 18 -13 36 25 l18 37 7 -30 c4 -16 7 -25 8 -19 0 7 12 15 26 18
14 4 25 11 25 17 0 6 -6 9 -14 6 -8 -3 -17 1 -20 9 -6 15 -17 16 -55 5z"/>
<path d="M2588 732 c-31 -6 -19 -20 17 -19 19 1 33 1 32 2 -1 0 -9 5 -17 11
-8 6 -23 9 -32 6z"/>
<path d="M2652 699 c-13 -5 -20 -13 -17 -19 8 -13 42 -13 50 0 3 6 1 10 -5 10
-6 0 -8 5 -5 10 7 12 7 12 -23 -1z"/>
<path d="M2724 688 c-8 -13 15 -18 40 -8 14 5 26 12 26 14 0 8 -61 2 -66 -6z"/>
<path d="M2541 680 c-39 -9 -87 -50 -58 -50 9 0 17 5 17 10 0 6 12 10 28 10
15 0 38 9 52 20 27 21 18 23 -39 10z"/>
<path d="M2415 669 c-4 -6 -5 -12 -2 -15 7 -7 37 7 37 17 0 13 -27 11 -35 -2z"/>
<path d="M2685 659 c-4 -6 -5 -13 -2 -16 7 -7 27 6 27 18 0 12 -17 12 -25 -2z"/>
<path d="M2710 635 c-13 -14 -21 -28 -17 -31 7 -7 66 36 66 49 2 16 -27 6 -49
-18z"/>
<path d="M2530 631 c0 -5 5 -13 10 -16 6 -3 10 -2 10 4 0 5 -4 13 -10 16 -5 3
-10 2 -10 -4z"/>
<path d="M5738 872 c-38 -23 -36 -35 2 -14 16 9 30 20 30 25 0 9 -1 9 -32 -11z"/>
<path d="M1140 770 c-20 -12 -5 -24 16 -12 9 5 12 12 7 15 -5 3 -15 2 -23 -3z"/>
<path d="M689 583 c-13 -16 -12 -17 4 -4 16 13 21 21 13 21 -2 0 -10 -8 -17
-17z"/>
<path d="M3695 820 c-3 -6 1 -7 9 -4 18 7 21 14 7 14 -6 0 -13 -4 -16 -10z"/>
<path d="M3650 800 c-8 -5 -12 -11 -9 -14 3 -3 14 1 25 9 21 16 8 20 -16 5z"/>
<path d="M3930 576 c0 -9 5 -16 10 -16 6 0 10 4 10 9 0 6 -4 13 -10 16 -5 3
-10 -1 -10 -9z"/>
<path d="M4510 720 c0 -6 7 -10 15 -10 8 0 15 2 15 4 0 2 -7 6 -15 10 -8 3
-15 1 -15 -4z"/>
<path d="M5820 450 c-8 -5 -10 -10 -5 -10 6 0 17 5 25 10 8 5 11 10 5 10 -5 0
-17 -5 -25 -10z"/>
<path d="M5755 420 c-3 -6 1 -7 9 -4 18 7 21 14 7 14 -6 0 -13 -4 -16 -10z"/>
<path d="M4573 463 c9 -2 23 -2 30 0 6 3 -1 5 -18 5 -16 0 -22 -2 -12 -5z"/>
<path d="M4620 460 c0 -5 9 -10 20 -10 11 0 20 5 20 10 0 6 -9 10 -20 10 -11
0 -20 -4 -20 -10z"/>
<path d="M2005 430 c-18 -8 -17 -9 8 -9 16 -1 26 3 22 9 -3 6 -7 10 -8 9 -1 0
-11 -4 -22 -9z"/>
<path d="M412 179 c-18 -3 -36 -9 -39 -13 -11 -10 5 -19 19 -10 7 4 21 9 30 9
19 2 35 12 27 18 -2 2 -19 0 -37 -4z"/>
</g>
</svg>
