<?xml version="1.0" standalone="no"?>
<!DOCTYPE svg PUBLIC "-//W3C//DTD SVG 20010904//EN"
 "http://www.w3.org/TR/2001/REC-SVG-20010904/DTD/svg10.dtd">
<svg version="1.0" xmlns="http://www.w3.org/2000/svg"
 width="345.000000pt" height="207.000000pt" viewBox="0 0 345.000000 207.000000"
 preserveAspectRatio="xMidYMid meet">
<metadata>
Created by potrace 1.16, written by Peter Selinger 2001-2019
</metadata>
<g transform="translate(0.000000,207.000000) scale(0.100000,-0.100000)"
fill="#000000" stroke="none">
<path d="M3285 2021 c-11 -5 -76 -9 -145 -10 -69 -1 -190 -6 -270 -12 -80 -6
-175 -12 -211 -13 -85 -5 -125 -25 -133 -68 -14 -77 -4 -1300 11 -1353 5 -16
8 -59 7 -95 -1 -36 -3 -114 -5 -175 l-3 -110 376 -2 c206 -1 386 -5 401 -8 35
-9 64 9 72 45 4 16 10 30 14 30 5 0 7 10 5 23 -16 105 -20 154 -13 168 6 12 1
218 -15 584 -2 28 -6 122 -10 210 -3 88 -12 223 -18 300 -12 144 -13 200 -8
367 3 118 -6 138 -55 119z m-265 -210 c47 -34 62 -75 67 -181 5 -107 -11 -204
-38 -231 -38 -38 -44 -62 -42 -174 2 -154 20 -344 43 -450 25 -120 43 -249 42
-304 0 -51 -27 -83 -62 -74 -24 6 -17 23 10 23 24 0 27 19 18 104 -7 66 -17
85 -45 86 -34 0 -50 -140 -20 -177 6 -9 6 -13 -2 -13 -6 0 -18 11 -27 25 -14
22 -16 40 -9 123 12 151 13 342 3 517 -11 183 -21 216 -91 282 -40 38 -45 49
-55 112 -15 88 -15 143 -1 214 8 37 16 54 24 51 7 -3 30 17 52 43 34 39 46 48
72 47 18 0 45 -11 61 -23z"/>
<path d="M2940 1774 c-70 -36 -86 -75 -89 -211 -1 -76 2 -113 9 -113 6 0 15
-12 21 -27 9 -26 11 -26 21 -10 11 20 -7 77 -24 77 -11 0 1 42 15 51 6 4 7 23
4 45 -5 27 -2 40 9 49 10 7 16 29 17 64 3 80 50 94 59 17 1 -16 9 -32 17 -34
11 -4 13 5 8 48 -4 30 -10 56 -14 60 -5 4 -28 -4 -53 -16z"/>
<path d="M2942 1710 c0 -14 2 -19 5 -12 2 6 2 18 0 25 -3 6 -5 1 -5 -13z"/>
<path d="M3017 1674 c-10 -11 -9 -52 3 -59 6 -3 13 1 16 10 8 19 -8 60 -19 49z"/>
<path d="M1940 1980 c-36 -4 -105 -8 -155 -9 -49 -1 -148 -8 -220 -16 -71 -8
-188 -15 -260 -15 -71 0 -195 -7 -275 -16 -145 -16 -183 -18 -640 -28 -256 -6
-320 -12 -320 -27 0 -5 -7 -9 -16 -9 -13 0 -14 -3 -5 -13 7 -10 7 -17 0 -24
-7 -7 -12 -158 -14 -449 -2 -242 -6 -463 -9 -493 -8 -75 9 -746 20 -762 5 -8
9 -33 9 -56 0 -23 3 -44 6 -47 2 -3 72 -1 154 5 83 5 265 13 406 18 140 4 260
10 265 13 5 4 101 9 214 13 113 3 275 11 360 17 85 6 232 12 325 13 223 2 358
12 477 33 l96 17 7 45 c13 94 20 320 13 435 -4 66 -5 212 -3 325 7 342 5 923
-5 964 -11 50 -23 57 -90 54 -30 -1 -59 0 -65 3 -17 11 -207 17 -275 9z m-990
-120 c-66 -5 -97 -1 -67 9 9 3 42 4 74 1 l58 -5 -65 -5z m-180 -6 c0 -2 -21
-4 -47 -3 -32 0 -42 3 -29 8 18 7 76 3 76 -5z m583 4 l67 -10 0 -33 c0 -19 5
-37 11 -41 8 -5 10 6 7 34 l-3 40 105 8 c58 4 161 6 230 4 138 -3 205 -3 265
0 22 1 72 1 110 0 l70 -3 -8 -116 c-13 -202 -13 -254 0 -258 7 -3 13 10 15 34
5 52 14 27 29 -84 7 -51 16 -90 21 -87 4 3 8 -2 8 -10 0 -8 -4 -18 -10 -21 -5
-3 -10 -22 -10 -41 0 -30 -3 -34 -19 -29 -14 4 -25 -1 -37 -19 -9 -14 -20 -24
-24 -21 -5 3 -14 -11 -20 -30 -10 -29 -16 -35 -40 -35 -28 0 -29 2 -33 53 l-3
52 -2 -56 c-2 -62 -14 -97 -51 -146 l-24 -32 -41 21 c-23 12 -52 21 -66 19
-28 -3 -60 -35 -60 -61 0 -10 -6 -23 -14 -29 -12 -10 -17 -7 -28 15 -12 26
-24 35 -58 48 -8 3 -23 12 -33 18 -16 11 -22 9 -45 -20 -15 -18 -33 -32 -39
-32 -7 0 -18 -9 -25 -19 -18 -30 -37 -2 -49 71 -14 85 -23 89 -14 5 6 -58 4
-68 -10 -74 -11 -4 -21 0 -27 10 -11 21 -71 23 -88 2 -7 -8 -16 -12 -21 -10
-16 11 -41 -43 -34 -75 4 -20 3 -30 -5 -30 -6 0 -9 4 -6 9 3 4 -7 22 -22 38
-26 29 -69 44 -132 47 -17 1 -26 9 -31 26 l-7 25 -1 -26 c-1 -15 -7 -29 -15
-32 -14 -6 -24 65 -27 193 -2 56 -3 59 -8 25 -3 -22 -3 -87 0 -145 4 -58 3
-109 -2 -115 -12 -12 -11 -45 1 -45 6 0 10 5 10 12 0 6 3 9 6 6 7 -8 44 28 44
43 0 7 9 9 23 5 12 -3 32 -6 44 -6 26 0 87 -49 62 -50 -9 0 -22 7 -29 15 -17
20 -33 19 -48 -5 -7 -11 -19 -20 -27 -20 -8 0 -14 -3 -14 -7 3 -21 -3 -33 -17
-33 -12 0 -14 -7 -9 -32 10 -52 26 -88 39 -88 7 0 21 7 32 15 29 22 33 18 27
-22 -4 -26 -3 -34 5 -29 20 12 13 -10 -8 -29 -20 -18 -20 -17 -20 8 0 15 -4
27 -10 27 -5 0 -10 -7 -10 -15 0 -8 -4 -15 -10 -15 -5 0 -10 5 -10 10 0 6 -25
10 -55 10 -41 0 -55 4 -55 14 0 8 -3 22 -6 30 -5 12 -2 15 10 10 29 -11 41 37
22 92 -9 26 -16 64 -16 85 0 39 -16 59 -49 62 -12 1 -21 7 -21 14 0 17 -82 13
-95 -5 -9 -11 -14 -10 -29 7 -11 12 -27 21 -37 21 -10 0 -34 16 -54 36 l-36
35 -35 -31 c-41 -36 -69 -36 -69 -1 0 14 -6 26 -13 29 -6 2 -12 14 -12 27 0
13 -12 33 -28 47 -16 13 -27 29 -24 36 3 10 -15 12 -76 9 l-81 -3 5 25 c6 31
-34 75 -79 85 -16 4 -31 16 -36 29 -5 12 -11 21 -15 20 -3 -2 -17 -3 -31 -3
-22 0 -25 3 -19 25 7 28 -11 35 -20 8 -5 -18 -1 40 6 67 1 8 -3 15 -9 16 -7 1
-17 2 -22 3 -5 0 -12 21 -15 46 -4 24 -12 47 -17 51 -6 3 -5 12 3 22 10 12 10
16 1 19 -7 3 -13 14 -13 24 0 11 5 17 10 14 6 -4 10 13 10 45 0 32 4 49 10 45
6 -3 10 -24 10 -46 0 -21 4 -39 10 -39 5 0 11 42 12 93 3 91 3 92 28 92 20 0
26 -6 28 -28 2 -15 7 -25 12 -22 5 3 7 16 4 29 -3 20 1 24 33 29 58 10 323 -4
323 -17 0 -6 5 -3 11 7 6 9 13 16 17 13 8 -4 431 11 481 18 18 3 36 7 39 10 8
9 79 6 155 -6z m-710 -5 c-7 -2 -19 -2 -25 0 -7 3 -2 5 12 5 14 0 19 -2 13 -5z
m1625 0 c-14 -4 -18 -15 -18 -59 0 -30 -4 -54 -10 -54 -11 0 -13 42 -4 89 5
24 12 31 28 30 17 -1 17 -2 4 -6z m-2111 -70 c-3 -10 -5 -4 -5 12 0 17 2 24 5
18 2 -7 2 -21 0 -30z m-70 -65 c-3 -8 -6 -5 -6 6 -1 11 2 17 5 13 3 -3 4 -12
1 -19z m2150 -75 c-3 -10 -5 -4 -5 12 0 17 2 24 5 18 2 -7 2 -21 0 -30z
m-2100 -35 c-3 -8 -6 -5 -6 6 -1 11 2 17 5 13 3 -3 4 -12 1 -19z m2156 -45 c4
-19 2 -33 -3 -33 -6 0 -10 17 -10 37 0 43 5 41 13 -4z m-2148 -16 c4 -21 2
-37 -3 -37 -11 0 -24 58 -16 72 9 14 13 6 19 -35z m2085 33 c0 -5 -2 -10 -4
-10 -3 0 -8 5 -11 10 -3 6 -1 10 4 10 6 0 11 -4 11 -10z m-2130 -96 c6 -38 6
-62 0 -68 -7 -7 -10 2 -10 25 0 19 -4 48 -9 66 -5 17 -7 34 -3 37 9 10 12 1
22 -60z m62 -6 c-7 -7 -12 -8 -12 -2 0 14 12 26 19 19 2 -3 -1 -11 -7 -17z
m2155 -60 c-3 -7 -5 -2 -5 12 0 14 2 19 5 13 2 -7 2 -19 0 -25z m-17 -25 c0
-22 -2 -25 -10 -13 -13 20 -13 40 0 40 6 0 10 -12 10 -27z m-2154 -48 c0 -5 5
-19 9 -29 6 -13 5 -21 -3 -24 -14 -4 -35 -79 -26 -93 3 -6 -1 -18 -9 -27 -8
-9 -17 -24 -20 -32 -3 -8 -5 38 -5 103 l0 118 26 -3 c15 -2 27 -7 28 -13z
m127 -39 c3 -8 3 -23 0 -34 -2 -11 0 -23 6 -26 6 -4 11 -3 11 3 0 6 10 15 21
22 20 10 21 9 16 -11 -4 -16 -2 -20 8 -16 10 3 16 -6 21 -31 5 -25 3 -38 -5
-41 -12 -4 -16 -32 -3 -32 4 0 14 4 22 9 20 14 33 2 18 -16 -10 -12 -9 -17 4
-24 11 -6 15 -20 14 -44 -4 -45 -11 -52 -34 -32 -40 37 -69 7 -42 -44 16 -28
3 -23 -29 13 -31 35 -56 31 -48 -8 2 -14 0 -27 -4 -30 -9 -5 -14 31 -11 69 3
26 -25 32 -48 12 -19 -17 -20 -17 -20 2 0 10 7 28 15 39 30 39 6 77 -25 39 -7
-8 -16 -12 -21 -10 -14 9 2 35 21 35 23 0 42 23 34 43 -3 8 -17 18 -31 22 -17
4 -23 11 -19 21 3 9 6 20 6 24 0 5 13 1 30 -8 16 -9 30 -22 30 -29 0 -12 37
-6 45 8 3 4 -4 17 -16 28 -22 20 -22 21 -4 41 21 24 31 25 38 6z m117 -81 c0
-8 -4 -15 -10 -15 -5 0 -10 7 -10 15 0 8 5 15 10 15 6 0 10 -7 10 -15z m1915
-66 c9 -16 15 -55 15 -91 l0 -63 -20 25 -20 25 0 -22 c0 -13 5 -23 10 -23 18
0 11 -39 -9 -50 -23 -12 -27 -7 -55 65 -22 58 -27 135 -9 157 20 24 71 11 88
-23z m-1755 -45 c0 -15 30 -33 46 -27 18 6 23 -31 10 -71 -12 -38 -33 -43 -29
-7 3 22 3 22 -27 4 -19 -11 -32 -28 -36 -48 -5 -29 -8 -31 -41 -27 -28 4 -34
8 -30 22 3 12 0 17 -8 14 -14 -6 -26 -39 -17 -48 3 -3 20 -6 39 -6 31 0 32 -1
22 -22 -7 -13 -15 -29 -19 -37 -10 -22 -30 -25 -30 -4 -1 27 -47 58 -65 43 -8
-6 -19 -9 -25 -5 -17 10 -11 34 11 46 14 7 19 17 16 30 -4 14 0 19 16 19 27 0
72 65 68 97 -2 17 7 27 36 41 39 21 63 15 63 -14z m1570 -49 c-10 -12 -10 -15
4 -15 9 0 16 -5 16 -11 0 -6 14 -22 30 -36 68 -56 79 -132 27 -173 -24 -19
-29 -21 -24 -7 3 9 2 17 -3 17 -6 0 -10 -7 -10 -15 0 -38 -57 5 -66 50 -3 18
-17 48 -30 66 -13 18 -24 39 -24 46 0 19 52 83 68 83 6 0 12 5 12 12 0 6 3 8
6 5 4 -4 1 -13 -6 -22z m-2023 -27 c-3 -8 -6 -5 -6 6 -1 11 2 17 5 13 3 -3 4
-12 1 -19z m0 -50 c-3 -7 -5 -2 -5 12 0 14 2 19 5 13 2 -7 2 -19 0 -25z m679
18 c8 -8 14 -22 14 -30 0 -9 8 -16 20 -16 11 0 20 -6 21 -12 0 -7 2 -26 3 -43
4 -40 -10 -65 -35 -65 -17 0 -20 -4 -14 -28 11 -50 -52 -94 -80 -56 -6 9 -25
17 -41 18 -39 3 -84 26 -84 43 0 7 -7 13 -16 13 -29 0 -8 25 24 28 21 2 38 12
49 28 14 23 14 26 -2 43 -16 18 -16 20 3 30 17 9 19 8 15 -8 -7 -28 14 -35 28
-9 14 29 60 78 72 78 4 0 15 -6 23 -14z m1119 2 c-5 -13 68 -58 92 -58 7 0 18
-9 25 -20 7 -11 17 -20 23 -20 6 0 16 -14 22 -30 10 -26 9 -33 -7 -48 -10 -9
-19 -26 -22 -37 -2 -15 -12 -21 -41 -23 -30 -3 -38 -8 -43 -28 -3 -13 -10 -24
-15 -24 -14 0 -11 18 8 47 10 15 18 31 19 37 0 6 2 19 2 29 3 24 22 22 22 -3
0 -11 5 -20 10 -20 6 0 10 11 10 25 0 16 -6 25 -15 25 -8 0 -15 5 -15 10 0 6
4 10 10 10 5 0 7 7 4 15 -9 22 -23 18 -36 -10 -6 -14 -14 -25 -18 -25 -14 0
-19 44 -8 57 6 8 8 17 4 20 -12 12 -41 -13 -44 -38 -6 -42 -22 -52 -43 -30
-24 26 -24 31 6 60 14 13 25 27 25 31 0 14 19 60 24 60 3 0 3 -6 1 -12z m-158
-25 c8 -20 -4 -28 -22 -13 -21 17 -29 -7 -17 -51 8 -26 10 -28 11 -11 1 32 21
27 21 -5 0 -22 2 -25 10 -13 5 8 10 27 10 43 0 25 2 26 20 15 14 -9 20 -24 20
-48 0 -20 6 -42 13 -49 10 -10 5 -18 -23 -42 -19 -16 -42 -36 -50 -43 -10 -9
-22 -11 -37 -5 -17 6 -23 5 -23 -5 0 -8 6 -17 13 -19 6 -3 -4 -6 -24 -6 -49
-1 -63 18 -62 86 1 47 6 60 32 87 17 18 31 39 31 47 0 8 7 24 15 36 16 23 53
21 62 -4z m-1560 -76 c2 -59 2 -59 12 -52 5 3 12 1 16 -5 3 -5 -1 -10 -11 -10
-9 0 -23 -8 -30 -17 -11 -15 -13 -6 -14 67 0 67 3 81 12 72 7 -7 14 -32 15
-55z m393 43 c0 -11 6 -19 12 -17 7 1 14 -8 16 -20 3 -19 -1 -21 -42 -21 -33
0 -46 4 -46 14 0 8 4 14 9 14 5 0 12 11 15 25 8 30 36 34 36 5z m-273 -22 c-3
-8 -6 -5 -6 6 -1 11 2 17 5 13 3 -3 4 -12 1 -19z m1206 13 c4 -1 7 -10 7 -20
0 -11 4 -22 9 -25 5 -3 12 -22 15 -41 4 -19 12 -35 17 -35 6 0 2 -16 -10 -36
-12 -19 -21 -43 -21 -53 0 -10 -7 -25 -16 -32 -15 -12 -16 -11 -9 11 l7 25
-26 -24 c-22 -21 -29 -23 -51 -13 -28 13 -30 23 -14 54 10 19 12 19 30 -11 10
-17 20 -31 22 -31 2 0 18 20 35 44 l32 44 -29 31 c-33 35 -40 37 -67 15 -18
-15 -18 -15 5 -10 17 3 29 -2 42 -17 17 -21 17 -23 -4 -45 -24 -26 -42 -11
-25 21 12 24 10 26 -30 20 -29 -5 -33 -9 -28 -29 3 -12 2 -26 -4 -29 -5 -3
-10 -19 -10 -34 0 -22 7 -31 30 -41 17 -7 28 -15 25 -18 -6 -6 -48 14 -88 42
l-27 20 25 23 c20 19 25 34 25 69 0 39 5 50 42 88 26 27 49 42 62 40 12 -1 24
-3 29 -3z m-453 -22 c0 -5 -4 -9 -10 -9 -5 0 -10 7 -10 16 0 8 5 12 10 9 6 -3
10 -10 10 -16z m-52 2 c8 -5 15 -33 17 -70 2 -35 9 -69 15 -76 8 -9 8 -15 0
-20 -5 -3 -10 -15 -10 -25 0 -10 -8 -24 -17 -29 -11 -6 -13 -11 -5 -11 21 0 3
-20 -19 -20 -23 0 -25 25 -3 34 21 8 10 20 -19 21 -20 0 -26 10 -43 73 -2 7
-8 10 -14 7 -14 -9 -13 -98 2 -113 16 -16 -9 -16 -45 1 -36 17 -40 33 -14 58
12 12 15 19 7 15 -9 -5 -9 -2 2 7 10 8 14 18 10 22 -4 5 -2 5 4 2 13 -7 84 93
84 118 0 16 27 20 48 6z m379 -13 c-3 -8 -6 -5 -6 6 -1 11 2 17 5 13 3 -3 4
-12 1 -19z m-1117 -55 c0 -8 5 -11 10 -8 6 3 10 -1 10 -9 0 -9 4 -16 9 -16 5
0 16 -6 23 -12 26 -24 59 -39 71 -31 6 4 18 8 27 9 8 1 23 5 33 9 14 6 16 3
13 -16 -3 -13 -5 -27 -5 -30 -1 -8 -31 -7 -31 2 0 4 -6 9 -12 12 -9 3 -13 -5
-13 -23 0 -24 3 -27 18 -18 34 18 29 0 -10 -35 -39 -37 -41 -54 -3 -42 14 4
19 12 16 22 -5 11 -2 13 10 9 8 -3 20 -6 25 -6 4 0 6 -7 3 -15 -4 -8 -1 -15 5
-15 6 0 11 9 11 20 0 11 7 23 15 27 21 7 32 -4 17 -19 -15 -15 -16 -32 -2 -23
6 3 10 1 10 -4 0 -6 5 -11 10 -11 6 0 10 9 10 20 0 11 5 20 10 20 6 0 10 -28
10 -65 0 -37 4 -65 10 -65 6 0 10 23 10 51 0 31 4 48 10 44 14 -9 13 28 -2 43
-6 6 -8 15 -4 19 4 5 14 0 21 -10 13 -18 10 -40 -10 -89 -9 -22 8 -24 28 -3 8
8 17 11 21 8 3 -4 6 -1 6 5 0 7 5 12 11 12 7 0 9 -10 4 -27 -12 -45 -14 -93
-4 -93 5 0 9 12 9 26 0 29 19 53 38 46 7 -2 12 5 12 17 0 11 4 23 10 26 6 3 7
-1 4 -9 -10 -26 16 -18 28 9 12 27 23 31 33 15 4 -6 -4 -19 -17 -30 -27 -22
-13 -27 16 -5 29 22 45 18 18 -4 -12 -11 -39 -22 -60 -26 -42 -7 -70 -21 -60
-30 3 -4 25 0 49 8 52 18 69 13 69 -19 0 -13 6 -24 13 -24 6 -1 2 -9 -10 -19
-13 -11 -23 -23 -23 -27 0 -4 -14 -22 -31 -40 -17 -17 -26 -34 -21 -38 9 -6
102 98 102 114 0 4 16 15 35 24 19 9 32 22 29 29 -4 11 42 47 60 47 15 0 4
-19 -15 -25 -12 -4 -18 -13 -15 -20 3 -8 -2 -19 -10 -25 -22 -19 -17 -33 11
-28 14 3 25 1 25 -3 0 -18 22 -8 27 11 3 11 12 20 19 20 8 0 14 5 14 11 0 5
-4 8 -9 5 -5 -4 -11 0 -14 6 -6 21 4 48 19 48 17 0 18 -12 2 -28 -19 -19 5
-13 30 7 12 11 22 29 22 40 0 12 4 21 8 21 4 0 6 -15 4 -34 -3 -22 -11 -37
-25 -44 -21 -10 -21 -11 -2 -12 20 -1 20 -1 -1 -18 -29 -24 -59 -72 -45 -72 6
0 11 4 11 10 0 5 13 16 29 25 27 14 30 13 33 -3 2 -10 -11 -30 -35 -51 -47
-42 -62 -68 -40 -68 8 0 33 19 54 41 31 33 38 47 35 74 -2 23 1 32 11 32 9 0
13 -6 9 -15 -3 -8 -3 -15 -1 -15 9 0 67 61 63 66 -3 2 -22 -3 -43 -11 -52 -22
-56 -11 -9 32 21 21 36 34 32 29 -8 -10 53 -46 65 -39 16 10 6 -22 -15 -44
-24 -26 -18 -43 8 -22 15 12 16 11 9 -11 -7 -21 -6 -23 6 -13 8 6 16 24 17 38
2 25 53 85 73 85 14 0 10 -33 -6 -54 -19 -25 -19 -40 0 -32 29 11 15 -25 -25
-64 l-40 -39 0 30 c0 17 -4 28 -9 24 -6 -3 -8 -23 -5 -45 4 -32 1 -41 -16 -50
-11 -6 -20 -16 -20 -22 0 -9 3 -9 12 0 19 19 28 14 28 -18 0 -16 5 -30 10 -30
6 0 10 20 10 45 0 41 5 50 46 91 32 30 45 50 41 63 -2 10 1 38 7 62 l11 44 48
1 c45 1 47 0 47 -28 0 -31 -39 -78 -65 -78 -17 0 -18 4 -9 37 4 13 10 21 14
18 11 -7 35 24 26 32 -4 4 -11 1 -17 -7 -8 -13 -10 -13 -19 0 -8 12 -10 9 -10
-11 0 -15 -6 -32 -14 -39 -27 -22 -7 -43 36 -37 l38 5 -17 -28 c-9 -16 -20
-27 -25 -24 -4 3 -8 -3 -9 -13 0 -16 -1 -16 -9 2 -8 19 -9 19 -9 -2 -1 -12 -4
-30 -7 -40 -3 -10 21 11 55 47 33 36 61 71 61 78 0 7 -4 10 -10 7 -16 -10 -11
11 5 25 11 9 12 15 5 20 -21 13 1 39 31 37 26 -2 29 -5 29 -39 0 -21 5 -38 10
-38 7 0 9 17 5 47 -5 50 12 83 44 83 13 0 13 -2 2 -9 -9 -6 -10 -11 -2 -15 6
-4 15 -5 20 -1 6 3 14 -3 20 -12 9 -16 10 -16 11 5 0 19 5 22 40 22 22 0 40
-4 40 -10 0 -5 6 -7 14 -4 7 3 20 -2 29 -10 19 -20 27 -20 27 -3 0 8 11 19 25
25 l25 12 -13 -33 c-8 -18 -11 -41 -7 -52 4 -11 5 -26 3 -32 -7 -17 14 -17 20
0 3 6 6 -10 6 -37 1 -27 4 -46 8 -42 8 8 15 96 14 163 -1 23 4 45 9 48 7 4 9
-3 5 -22 -4 -25 -3 -24 13 9 13 27 22 34 32 28 8 -5 17 -7 21 -4 4 2 9 -5 12
-16 3 -11 1 -23 -4 -26 -5 -3 -9 2 -9 10 0 19 -20 22 -20 4 -1 -7 -3 -29 -5
-48 -6 -42 10 -74 24 -50 28 47 44 58 68 47 28 -13 32 -10 35 32 1 18 6 35 10
37 11 7 10 -24 -3 -69 -9 -33 -12 -36 -30 -26 -22 11 -54 -5 -43 -22 9 -15 22
-10 27 9 4 14 6 14 12 -5 8 -26 16 -28 32 -12 9 9 11 7 7 -8 -5 -17 19 -83 29
-83 1 0 3 19 4 43 1 23 4 60 8 82 6 38 5 39 -10 20 -15 -18 -15 -15 -11 43 5
66 12 86 26 77 5 -3 16 5 24 17 15 22 16 21 16 -30 0 -28 5 -52 10 -52 6 0 10
11 10 24 0 31 10 56 21 56 5 0 9 -7 9 -15 0 -9 7 -18 15 -21 8 -4 15 -14 14
-23 0 -10 -2 -11 -6 -3 -11 29 -20 8 -19 -48 0 -33 3 -60 6 -60 12 0 39 97 44
154 3 32 7 61 10 63 6 6 14 -31 15 -64 1 -53 4 -74 12 -79 5 -3 9 -1 9 4 0 6
7 12 15 16 12 4 15 -3 15 -32 0 -28 -3 -33 -10 -22 -8 13 -10 12 -10 -2 0 -10
5 -18 10 -18 6 0 10 -21 10 -48 0 -50 -21 -92 -46 -92 -11 0 -13 -6 -9 -19 7
-23 -10 -37 -19 -15 -5 13 -10 13 -35 -5 -16 -12 -34 -21 -41 -21 -6 0 -8 -4
-5 -10 3 -6 3 -15 -1 -22 -5 -8 -11 -6 -20 6 -11 16 -13 16 -27 -5 -19 -27
-37 -17 -37 22 0 16 -4 29 -10 29 -5 0 -10 -2 -10 -4 0 -2 -3 -13 -6 -23 -5
-15 -4 -15 5 -3 8 11 10 1 8 -40 -3 -55 -4 -55 -53 -81 -43 -24 -50 -25 -56
-10 -5 13 -7 12 -7 -4 -1 -15 -14 -25 -48 -38 -25 -9 -48 -15 -50 -13 -3 2 5
7 18 11 16 5 18 9 9 15 -13 8 -21 3 -61 -32 -13 -12 -19 -14 -19 -5 0 8 -2 9
-8 1 -8 -13 -214 -25 -206 -12 3 4 -1 8 -10 8 -8 0 -17 6 -19 13 -3 6 -6 2 -6
-10 -1 -22 -5 -23 -83 -24 -46 -1 -109 -3 -140 -5 -34 -1 -58 2 -58 7 0 6 5 7
10 4 5 -3 10 -1 10 5 0 7 -6 10 -12 7 -60 -22 -66 -20 -48 14 6 10 7 19 2 19
-14 0 -33 -26 -35 -48 -1 -16 -9 -19 -57 -21 -30 0 -67 -4 -82 -7 -31 -6 -35
3 -15 30 8 10 12 29 9 43 -4 22 -5 22 -17 6 -8 -11 -10 -20 -4 -24 6 -3 3 -11
-6 -19 -10 -8 -15 -9 -15 -1 0 6 -4 11 -10 11 -5 0 -10 -7 -10 -15 0 -8 7 -15
15 -15 8 0 15 -4 15 -9 0 -10 -80 -25 -88 -16 -3 3 2 5 10 5 9 0 21 7 28 15
11 13 10 15 -6 9 -14 -4 -11 1 9 20 16 15 27 31 25 37 -2 5 -14 0 -28 -13 -13
-13 -26 -22 -27 -20 -2 1 -12 -7 -23 -18 -11 -11 -15 -20 -10 -20 6 0 10 -4
10 -10 0 -6 -42 -10 -105 -10 -85 0 -107 3 -111 15 -4 8 -10 15 -15 15 -5 0
-9 -7 -9 -15 0 -9 -10 -16 -25 -16 -14 -1 -31 -2 -37 -3 -7 -1 -12 7 -10 17 4
21 -5 22 -25 2 -19 -19 -33 -11 -26 15 4 16 2 19 -11 14 -9 -3 -16 -10 -16
-15 0 -5 -5 -9 -10 -9 -7 0 -7 7 0 21 7 11 9 23 7 26 -3 2 -10 -4 -16 -16
l-11 -20 -47 20 c-26 11 -50 24 -53 28 -3 5 -20 16 -39 26 -19 9 -30 20 -25
24 13 9 16 31 5 31 -6 0 -13 -4 -16 -10 -4 -6 -26 0 -56 15 -27 14 -47 30 -44
35 4 6 -7 13 -23 16 l-29 6 -2 101 c-1 56 -4 110 -7 119 -8 27 -27 22 -20 -4
14 -49 18 -109 12 -152 -6 -37 -10 -43 -21 -33 -7 6 -11 15 -9 19 2 3 -9 9
-26 13 l-30 7 0 84 c0 55 4 84 11 84 6 0 9 -7 5 -15 -3 -8 -1 -15 4 -15 5 0 9
12 8 28 -1 45 5 102 10 97 10 -10 2 -160 -8 -163 -13 -5 -13 -42 -1 -42 23 0
38 41 33 89 -2 28 1 57 7 67 11 17 11 16 6 -6 -6 -24 -6 -25 10 -5 12 14 14
30 10 55 -15 84 -16 120 -6 137 10 17 10 17 11 -3 0 -12 7 -25 16 -28 10 -4
14 -12 10 -22 -4 -9 -1 -23 6 -31 6 -8 14 -58 18 -111 4 -63 9 -91 14 -79 5
10 5 53 1 95 -3 42 -8 100 -10 127 -2 28 -8 71 -13 97 -9 46 -9 46 14 36 13
-6 24 -18 24 -25z m1001 15 c19 -22 19 -35 0 -23 -14 8 -34 45 -25 45 4 0 15
-10 25 -22z m-1161 -8 c0 -11 -4 -20 -10 -20 -5 0 -10 9 -10 20 0 11 5 20 10
20 6 0 10 -9 10 -20z m947 -27 c-3 -10 -5 -4 -5 12 0 17 2 24 5 18 2 -7 2 -21
0 -30z m183 -40 c-16 -50 -26 -59 -45 -43 -19 15 -11 45 19 77 28 30 41 14 26
-34z m110 11 c0 -17 -57 -84 -71 -84 -4 0 -5 9 -2 21 4 14 8 17 13 8 13 -19
43 48 35 78 -5 23 -4 24 10 10 8 -9 15 -24 15 -33z m-70 -19 c-17 -31 -19 -29
-13 13 4 24 9 30 16 23 7 -7 7 -18 -3 -36z m616 8 c31 -23 33 -28 21 -41 -13
-12 -18 -12 -40 3 -27 17 -41 41 -31 56 8 13 12 12 50 -18z m434 -4 c0 -6 -4
-7 -10 -4 -5 3 -10 11 -10 16 0 6 5 7 10 4 6 -3 10 -11 10 -16z m-226 -8 c3
-5 -1 -11 -9 -15 -15 -6 -29 7 -18 18 9 9 21 8 27 -3z m-1574 -52 c0 -5 -4 -9
-10 -9 -5 0 -10 7 -10 16 0 8 5 12 10 9 6 -3 10 -10 10 -16z m1310 6 c10 -12
10 -15 -4 -15 -9 0 -16 7 -16 15 0 8 2 15 4 15 2 0 9 -7 16 -15z m180 -7 c0
-21 -17 -41 -29 -34 -7 5 -7 13 2 26 13 23 27 26 27 8z m30 2 c0 -5 -5 -10
-11 -10 -5 0 -7 5 -4 10 3 6 8 10 11 10 2 0 4 -4 4 -10z m286 -28 c-4 -3 -11
0 -16 8 -15 24 -11 33 6 15 9 -9 13 -19 10 -23z m-526 15 c0 -7 -7 -22 -15
-33 -13 -17 -14 -16 -4 14 11 33 19 41 19 19z m-1310 -7 c0 -5 -6 -10 -14 -10
-8 0 -16 -6 -19 -12 -2 -7 -8 -10 -12 -6 -4 4 -2 14 5 23 14 17 40 20 40 5z
m157 -50 c4 -26 -14 -35 -22 -10 -7 21 3 46 13 35 3 -3 7 -14 9 -25z m-500
-12 c-3 -7 -5 -2 -5 12 0 14 2 19 5 13 2 -7 2 -19 0 -25z m1173 12 c0 -5 -7
-7 -15 -4 -8 4 -15 8 -15 10 0 2 7 4 15 4 8 0 15 -4 15 -10z m700 6 c0 -3 -4
-8 -10 -11 -5 -3 -10 -1 -10 4 0 6 5 11 10 11 6 0 10 -2 10 -4z m-1076 -14 c2
-4 -4 -13 -15 -20 -21 -13 -22 -12 -13 12 7 17 20 21 28 8z m-49 -12 c-3 -5
-11 -10 -16 -10 -6 0 -7 5 -4 10 3 6 11 10 16 10 6 0 7 -4 4 -10z m80 -10 c-3
-5 -12 -10 -18 -10 -7 0 -6 4 3 10 19 12 23 12 15 0z m-98 -57 c-30 -29 -70
-34 -75 -9 -3 13 0 17 11 13 9 -3 19 3 25 18 10 21 14 22 36 12 l25 -12 -22
-22z m220 5 c-3 -8 -6 -5 -6 6 -1 11 2 17 5 13 3 -3 4 -12 1 -19z m948 -438
c-3 -5 -11 -10 -16 -10 -6 0 -7 5 -4 10 3 6 11 10 16 10 6 0 7 -4 4 -10z
m-1715 -30 c0 -5 -7 -7 -15 -4 -8 4 -15 8 -15 10 0 2 7 4 15 4 8 0 15 -4 15
-10z m-137 -37 c-7 -2 -19 -2 -25 0 -7 3 -2 5 12 5 14 0 19 -2 13 -5z"/>
<path d="M1315 1802 c-20 -42 -31 -122 -16 -122 5 0 13 21 16 48 3 26 13 59
21 74 8 15 10 29 6 32 -5 3 -17 -12 -27 -32z"/>
<path d="M1586 1833 c-9 -10 -7 -43 3 -43 11 0 21 39 11 45 -4 2 -10 2 -14 -2z"/>
<path d="M1802 1820 c0 -14 2 -19 5 -12 2 6 2 18 0 25 -3 6 -5 1 -5 -13z"/>
<path d="M970 1815 c0 -8 5 -15 10 -15 6 0 10 7 10 15 0 8 -4 15 -10 15 -5 0
-10 -7 -10 -15z"/>
<path d="M1396 1784 c9 -64 14 -68 14 -11 0 25 -5 49 -11 52 -7 5 -8 -8 -3
-41z"/>
<path d="M1085 1808 c-3 -7 -1 -42 4 -78 l8 -65 2 78 c1 72 -4 93 -14 65z"/>
<path d="M382 1785 c0 -16 2 -22 5 -12 2 9 2 23 0 30 -3 6 -5 -1 -5 -18z"/>
<path d="M1280 1795 c0 -8 2 -15 4 -15 2 0 6 7 10 15 3 8 1 15 -4 15 -6 0 -10
-7 -10 -15z"/>
<path d="M2060 1794 c0 -8 5 -12 10 -9 6 3 10 10 10 16 0 5 -4 9 -10 9 -5 0
-10 -7 -10 -16z"/>
<path d="M340 1784 c0 -8 5 -12 10 -9 6 3 10 10 10 16 0 5 -4 9 -10 9 -5 0
-10 -7 -10 -16z"/>
<path d="M427 1787 c-3 -7 -3 -26 0 -41 7 -34 23 -15 23 27 0 28 -14 37 -23
14z"/>
<path d="M516 1791 c-4 -7 -5 -15 -2 -18 9 -9 19 4 14 18 -4 11 -6 11 -12 0z"/>
<path d="M1891 1784 c0 -11 3 -14 6 -6 3 7 2 16 -1 19 -3 4 -6 -2 -5 -13z"/>
<path d="M236 1707 c1 -104 2 -112 11 -103 9 9 14 143 7 169 -12 39 -19 12
-18 -66z"/>
<path d="M702 1770 c0 -14 2 -19 5 -12 2 6 2 18 0 25 -3 6 -5 1 -5 -13z"/>
<path d="M1963 1736 c1 -30 5 -49 9 -42 11 16 10 96 -1 96 -6 0 -9 -24 -8 -54z"/>
<path d="M820 1744 c0 -21 4 -33 10 -29 6 3 10 19 10 36 0 16 -4 29 -10 29 -5
0 -10 -16 -10 -36z"/>
<path d="M894 1740 c-1 -22 2 -37 7 -34 11 6 12 74 1 74 -4 0 -8 -18 -8 -40z"/>
<path d="M1341 1764 c0 -11 3 -14 6 -6 3 7 2 16 -1 19 -3 4 -6 -2 -5 -13z"/>
<path d="M1031 1679 c1 -52 5 -105 9 -119 5 -14 6 26 3 90 -3 63 -7 117 -9
119 -2 2 -4 -38 -3 -90z"/>
<path d="M1170 1745 c0 -14 5 -25 10 -25 6 0 10 11 10 25 0 14 -4 25 -10 25
-5 0 -10 -11 -10 -25z"/>
<path d="M480 1735 c0 -15 4 -24 10 -20 6 3 10 12 10 20 0 8 -4 17 -10 20 -6
4 -10 -5 -10 -20z"/>
<path d="M1500 1739 c0 -11 5 -17 10 -14 6 3 10 13 10 21 0 8 -4 14 -10 14 -5
0 -10 -9 -10 -21z"/>
<path d="M1892 1730 c0 -14 2 -19 5 -12 2 6 2 18 0 25 -3 6 -5 1 -5 -13z"/>
<path d="M1680 1718 c0 -13 5 -30 10 -38 7 -11 10 -5 10 23 0 20 -4 37 -10 37
-5 0 -10 -10 -10 -22z"/>
<path d="M1365 1720 c-11 -17 4 -60 20 -60 8 0 15 5 15 11 0 5 -5 7 -11 3 -8
-5 -10 1 -5 19 6 26 -7 46 -19 27z"/>
<path d="M1423 1708 c2 -16 -2 -36 -9 -45 -7 -10 -14 -28 -14 -40 0 -27 -10
-53 -20 -53 -4 0 -14 15 -20 33 -12 30 -14 26 -28 -83 -9 -63 -19 -116 -24
-118 -4 -2 -8 -10 -8 -18 0 -25 19 -5 29 29 9 32 9 32 10 -12 1 -24 -2 -42 -5
-38 -3 3 -13 -1 -22 -8 -69 -55 -82 -68 -78 -72 2 -3 13 0 23 5 13 8 22 7 35
-5 19 -17 24 -11 30 37 2 17 9 25 23 25 25 0 35 13 35 48 0 17 4 26 10 22 6
-4 8 -11 5 -16 -9 -14 8 -11 33 7 25 17 28 8 7 -20 -9 -11 -12 -29 -9 -43 5
-18 -1 -32 -21 -53 -15 -16 -25 -33 -21 -38 3 -5 -8 -22 -24 -37 -17 -16 -30
-24 -30 -19 0 6 3 14 7 18 4 4 13 26 20 49 15 50 0 74 -19 31 -16 -36 -48 -69
-49 -51 0 6 -4 1 -10 -11 -12 -32 0 -51 18 -27 10 15 13 15 13 4 0 -8 -6 -21
-12 -27 -17 -17 10 -36 29 -20 10 8 12 7 7 -6 -10 -27 12 -18 27 12 7 15 20
38 28 51 13 21 16 22 21 5 6 -15 9 -14 26 10 10 15 31 42 46 59 l27 32 1 -27
c0 -21 -10 -34 -45 -58 -25 -17 -45 -34 -46 -38 -3 -28 -9 -46 -20 -56 -8 -8
-8 -4 1 14 l13 25 -29 -25 c-33 -29 -44 -42 -44 -53 0 -9 42 2 50 13 3 4 15
13 28 19 22 12 23 11 13 -8 -18 -32 22 -38 55 -8 23 22 24 27 13 46 -9 13 -20
19 -31 15 -31 -9 -19 7 12 17 28 10 41 29 20 29 -5 0 -10 -5 -10 -12 0 -6 -3
-9 -6 -6 -3 4 0 16 6 28 13 25 26 17 33 -20 2 -14 4 44 3 127 -1 105 -5 154
-13 157 -6 3 -13 -5 -16 -16 -4 -13 -10 -17 -18 -12 -10 6 -10 9 -1 12 7 2 12
11 12 19 0 13 -3 13 -15 3 -9 -7 -13 -21 -10 -30 4 -12 -3 -25 -22 -38 -24
-17 -30 -18 -41 -5 -11 12 -11 18 1 36 17 27 17 43 -1 39 -17 -4 -6 44 19 80
21 29 25 104 8 128 -8 12 -10 9 -6 -12z m-66 -140 c-3 -8 -6 -5 -6 6 -1 11 2
17 5 13 3 -3 4 -12 1 -19z m16 -88 c-3 -11 -7 -20 -9 -20 -2 0 -4 9 -4 20 0
11 4 20 9 20 5 0 7 -9 4 -20z m-6 -62 c-3 -7 -5 -2 -5 12 0 14 2 19 5 13 2 -7
2 -19 0 -25z m128 -74 c-13 -14 -15 -13 -15 4 0 11 5 22 12 24 6 2 8 10 4 17
-6 9 -13 8 -28 -6 -23 -20 -22 -13 7 34 l20 33 8 -46 c6 -35 4 -48 -8 -60z
m-62 -87 c-3 -5 -10 -4 -15 1 -6 6 -7 16 -3 22 6 9 9 9 16 -1 4 -7 5 -17 2
-22z"/>
<path d="M1182 1645 c0 -27 3 -70 7 -95 8 -43 9 -41 9 25 0 39 -4 81 -8 95 -6
20 -8 14 -8 -25z"/>
<path d="M1501 1674 c0 -11 3 -14 6 -6 3 7 2 16 -1 19 -3 4 -6 -2 -5 -13z"/>
<path d="M1892 1670 c0 -14 2 -19 5 -12 2 6 2 18 0 25 -3 6 -5 1 -5 -13z"/>
<path d="M765 1671 c-3 -5 -1 -12 5 -16 5 -3 10 1 10 9 0 18 -6 21 -15 7z"/>
<path d="M1590 1661 c0 -25 6 -27 13 -6 4 8 2 17 -3 20 -6 4 -10 -3 -10 -14z"/>
<path d="M1161 1654 c0 -11 3 -14 6 -6 3 7 2 16 -1 19 -3 4 -6 -2 -5 -13z"/>
<path d="M1275 1657 c-4 -10 -5 -21 -1 -24 10 -10 18 4 13 24 -4 17 -4 17 -12
0z"/>
<path d="M1501 1609 c-47 -53 -56 -59 -62 -43 -5 13 -8 14 -8 4 0 -8 3 -21 8
-28 7 -11 13 -9 29 8 11 12 25 19 31 15 6 -3 11 2 11 13 0 10 14 31 30 47 29
28 38 45 22 45 -4 0 -32 -28 -61 -61z"/>
<path d="M811 1644 c0 -11 3 -14 6 -6 3 7 2 16 -1 19 -3 4 -6 -2 -5 -13z"/>
<path d="M1090 1610 c0 -28 4 -49 8 -46 12 7 14 84 2 91 -6 4 -10 -14 -10 -45z"/>
<path d="M2073 1615 c0 -22 2 -30 4 -17 2 12 2 30 0 40 -3 9 -5 -1 -4 -23z"/>
<path d="M971 1624 c0 -11 3 -14 6 -6 3 7 2 16 -1 19 -3 4 -6 -2 -5 -13z"/>
<path d="M1761 1633 c0 -5 4 -17 9 -28 8 -18 9 -17 9 8 1 15 -3 27 -9 27 -5 0
-10 -3 -9 -7z"/>
<path d="M1593 1595 c0 -22 2 -30 4 -17 2 12 2 30 0 40 -3 9 -5 -1 -4 -23z"/>
<path d="M1890 1572 c0 -29 4 -52 9 -52 11 0 9 86 -2 97 -4 3 -7 -17 -7 -45z"/>
<path d="M230 1533 c0 -41 3 -54 10 -43 13 20 13 100 0 100 -6 0 -10 -26 -10
-57z"/>
<path d="M1290 1571 c-12 -24 -14 -59 -1 -45 10 10 24 64 17 64 -3 0 -10 -9
-16 -19z"/>
<path d="M2045 1580 c3 -5 8 -10 11 -10 2 0 4 5 4 10 0 6 -5 10 -11 10 -5 0
-7 -4 -4 -10z"/>
<path d="M2150 1564 c0 -8 5 -12 10 -9 6 4 8 11 5 16 -9 14 -15 11 -15 -7z"/>
<path d="M957 1467 c-8 -91 -5 -119 8 -105 3 3 4 50 3 104 l-3 99 -8 -98z"/>
<path d="M1700 1550 c0 -5 5 -10 11 -10 5 0 7 5 4 10 -3 6 -8 10 -11 10 -2 0
-4 -4 -4 -10z"/>
<path d="M2072 1530 c0 -19 2 -27 5 -17 2 9 2 25 0 35 -3 9 -5 1 -5 -18z"/>
<path d="M1501 1534 c0 -11 3 -14 6 -6 3 7 2 16 -1 19 -3 4 -6 -2 -5 -13z"/>
<path d="M1595 1530 c3 -5 8 -10 11 -10 2 0 4 5 4 10 0 6 -5 10 -11 10 -5 0
-7 -4 -4 -10z"/>
<path d="M831 1514 c0 -11 3 -14 6 -6 3 7 2 16 -1 19 -3 4 -6 -2 -5 -13z"/>
<path d="M1771 1514 c0 -11 3 -14 6 -6 3 7 2 16 -1 19 -3 4 -6 -2 -5 -13z"/>
<path d="M763 1475 c0 -22 2 -30 4 -17 2 12 2 30 0 40 -3 9 -5 -1 -4 -23z"/>
<path d="M1597 1502 c-5 -7 -13 -10 -18 -7 -5 4 -9 1 -9 -4 0 -6 6 -11 13 -11
8 0 13 -29 15 -102 2 -92 6 -120 15 -107 2 2 0 58 -3 124 -3 68 -9 115 -13
107z"/>
<path d="M631 1474 c0 -11 3 -14 6 -6 3 7 2 16 -1 19 -3 4 -6 -2 -5 -13z"/>
<path d="M1203 1382 l2 -113 -33 -20 c-17 -12 -32 -25 -32 -31 0 -5 16 0 35
12 32 20 35 20 35 4 0 -9 3 -14 6 -11 10 9 6 164 -5 222 -8 43 -9 34 -8 -63z"/>
<path d="M2072 1455 c0 -16 2 -22 5 -12 2 9 2 23 0 30 -3 6 -5 -1 -5 -18z"/>
<path d="M1092 1395 c0 -44 3 -100 7 -125 7 -37 9 -26 9 55 0 55 -4 111 -8
125 -5 17 -8 0 -8 -55z"/>
<path d="M1276 1423 c-4 -9 -2 -21 4 -27 7 -7 10 -2 10 17 0 31 -5 34 -14 10z"/>
<path d="M1906 1359 c4 -41 11 -78 16 -84 6 -6 7 14 2 55 -10 90 -9 89 -17 97
-4 4 -5 -27 -1 -68z"/>
<path d="M2161 1414 c0 -11 3 -14 6 -6 3 7 2 16 -1 19 -3 4 -6 -2 -5 -13z"/>
<path d="M762 1400 c0 -14 2 -19 5 -12 2 6 2 18 0 25 -3 6 -5 1 -5 -13z"/>
<path d="M1717 1368 c12 -109 22 -136 18 -48 -3 47 -5 88 -5 93 0 4 -4 7 -10
7 -5 0 -7 -22 -3 -52z"/>
<path d="M2071 1343 c0 -21 4 -47 9 -58 6 -15 9 -6 9 32 1 28 -3 55 -9 58 -6
4 -10 -9 -9 -32z"/>
<path d="M758 1354 c-5 -4 -8 -21 -8 -38 0 -21 3 -27 11 -19 6 6 9 23 7 38 -2
15 -6 23 -10 19z"/>
<path d="M947 1283 c-4 -38 -6 -93 -6 -123 1 -45 2 -49 8 -25 8 33 15 215 8
215 -2 0 -7 -30 -10 -67z"/>
<path d="M1782 1320 c0 -14 2 -19 5 -12 2 6 2 18 0 25 -3 6 -5 1 -5 -13z"/>
<path d="M1040 1286 c0 -14 5 -28 10 -31 6 -4 10 7 10 24 0 17 -4 31 -10 31
-5 0 -10 -11 -10 -24z"/>
<path d="M1786 1281 c-4 -7 -5 -15 -2 -18 9 -9 19 4 14 18 -4 11 -6 11 -12 0z"/>
<path d="M2162 1265 c0 -16 2 -22 5 -12 2 9 2 23 0 30 -3 6 -5 -1 -5 -18z"/>
<path d="M882 1240 c0 -14 2 -19 5 -12 2 6 2 18 0 25 -3 6 -5 1 -5 -13z"/>
<path d="M1245 1200 c-4 -14 -12 -19 -22 -16 -10 4 -13 2 -10 -8 3 -8 -1 -20
-9 -26 -8 -7 -14 -17 -14 -22 0 -7 5 -7 13 0 7 6 18 7 25 3 9 -5 5 -11 -12
-21 -14 -7 -23 -17 -20 -22 3 -4 10 -6 15 -3 5 4 9 0 10 -7 0 -7 7 1 14 17 7
17 11 34 8 39 -3 5 4 17 17 26 21 16 22 19 7 40 l-15 22 -7 -22z"/>
<path d="M1732 1180 c0 -19 2 -27 5 -17 2 9 2 25 0 35 -3 9 -5 1 -5 -18z"/>
<path d="M981 1184 c0 -11 3 -14 6 -6 3 7 2 16 -1 19 -3 4 -6 -2 -5 -13z"/>
<path d="M1830 1163 c0 -5 5 -15 10 -23 8 -12 10 -11 10 8 0 12 -4 22 -10 22
-5 0 -10 -3 -10 -7z"/>
<path d="M1025 1130 c-16 -17 -24 -30 -19 -30 13 0 59 48 52 55 -2 3 -17 -9
-33 -25z"/>
<path d="M751 1134 c0 -11 3 -14 6 -6 3 7 2 16 -1 19 -3 4 -6 -2 -5 -13z"/>
<path d="M1145 1120 c-3 -5 -2 -10 4 -10 5 0 13 5 16 10 3 6 2 10 -4 10 -5 0
-13 -4 -16 -10z"/>
<path d="M1300 1111 c0 -5 5 -13 10 -16 6 -3 10 -2 10 4 0 5 -4 13 -10 16 -5
3 -10 2 -10 -4z"/>
<path d="M1621 1094 c0 -11 3 -14 6 -6 3 7 2 16 -1 19 -3 4 -6 -2 -5 -13z"/>
<path d="M831 1064 c0 -11 3 -14 6 -6 3 7 2 16 -1 19 -3 4 -6 -2 -5 -13z"/>
<path d="M1143 881 c-8 -13 -9 -22 -3 -26 11 -7 24 18 18 35 -2 6 -9 1 -15 -9z"/>
<path d="M246 1166 l-29 -24 22 -27 c11 -15 21 -34 21 -42 0 -18 21 -12 30 8
4 8 12 25 19 37 17 32 4 42 -17 14 -14 -18 -20 -20 -30 -10 -18 18 -15 26 10
30 24 3 39 38 16 38 -7 -1 -26 -11 -42 -24z"/>
<path d="M2246 1118 c-9 -34 -7 -98 3 -98 8 0 19 36 27 93 5 34 -21 38 -30 5z"/>
<path d="M500 1062 c0 -26 -6 -41 -20 -50 -11 -7 -20 -17 -20 -22 0 -18 26
-11 48 13 26 28 31 97 7 97 -11 0 -15 -11 -15 -38z"/>
<path d="M420 1000 c0 -5 5 -10 10 -10 6 0 10 5 10 10 0 6 -4 10 -10 10 -5 0
-10 -4 -10 -10z"/>
<path d="M2102 1017 c-15 -17 -26 -67 -15 -67 5 0 14 5 21 12 9 9 12 9 12 1 0
-7 -4 -15 -10 -18 -19 -12 -11 -38 10 -32 24 6 24 4 4 -35 -10 -20 -12 -34 -6
-40 13 -13 35 0 29 15 -2 7 3 25 12 40 10 18 12 30 5 35 -5 4 -16 26 -22 49
-14 48 -25 59 -40 40z"/>
<path d="M726 945 c-11 -8 -16 -21 -13 -30 4 -10 0 -15 -12 -15 -18 0 -51 -29
-51 -45 0 -5 7 -17 17 -27 9 -10 11 -18 6 -18 -6 0 -16 7 -23 15 -14 17 -40
20 -40 5 0 -5 11 -17 25 -26 27 -17 30 -17 95 16 10 5 15 23 16 54 0 25 4 49
7 53 9 9 9 33 0 33 -5 0 -16 -7 -27 -15z m-2 -82 c8 -19 -8 -38 -23 -29 -16
10 -13 46 3 46 8 0 17 -8 20 -17z"/>
<path d="M1681 848 c-7 -26 -9 -28 -10 -10 -1 26 -21 31 -21 5 0 -32 14 -42
55 -39 25 2 45 11 57 26 23 28 23 35 -2 37 -13 1 -20 -4 -20 -17 0 -16 -18
-30 -39 -30 -4 0 -6 14 -3 30 6 40 -5 38 -17 -2z"/>
<path d="M1480 920 c0 -5 5 -10 11 -10 5 0 7 5 4 10 -3 6 -8 10 -11 10 -2 0
-4 -4 -4 -10z"/>
<path d="M273 780 c-7 -11 -10 -32 -6 -50 6 -31 6 -31 24 -11 20 21 26 47 9
36 -5 -3 -10 -1 -10 4 0 6 5 11 10 11 6 0 10 7 10 15 0 21 -23 19 -37 -5z"/>
<path d="M335 768 c-4 -9 -4 -21 -1 -27 3 -5 0 -11 -6 -14 -7 -2 -11 -7 -8
-10 3 -3 14 1 24 9 16 11 17 18 9 36 -10 20 -12 21 -18 6z"/>
<path d="M290 689 c0 -4 16 -9 35 -11 21 -2 35 0 35 7 0 6 -16 11 -35 11 -19
0 -35 -3 -35 -7z"/>
<path d="M2100 638 c0 -19 2 -20 10 -8 13 19 13 30 0 30 -5 0 -10 -10 -10 -22z"/>
<path d="M340 620 c0 -11 5 -20 10 -20 6 0 10 9 10 20 0 11 -4 20 -10 20 -5 0
-10 -9 -10 -20z"/>
<path d="M202 610 c0 -14 2 -19 5 -12 2 6 2 18 0 25 -3 6 -5 1 -5 -13z"/>
<path d="M448 622 c-22 -4 -22 -9 -3 -28 8 -9 15 -11 15 -5 0 5 9 13 20 16 41
13 15 27 -32 17z"/>
<path d="M1556 614 c-4 -10 -1 -14 6 -12 15 5 23 28 10 28 -5 0 -13 -7 -16
-16z"/>
<path d="M1702 568 c-23 -23 -39 -44 -36 -47 3 -3 14 5 24 19 13 17 20 20 20
10 0 -8 9 0 21 19 29 48 18 48 -29 -1z"/>
<path d="M2277 597 c-11 -29 -9 -53 4 -40 6 6 9 21 7 34 -3 21 -4 22 -11 6z"/>
<path d="M501 584 c0 -11 3 -14 6 -6 3 7 2 16 -1 19 -3 4 -6 -2 -5 -13z"/>
<path d="M1598 577 c-24 -9 -39 -27 -23 -27 10 0 65 30 65 35 0 7 -10 5 -42
-8z"/>
<path d="M1795 560 c3 -5 8 -10 11 -10 2 0 4 5 4 10 0 6 -5 10 -11 10 -5 0 -7
-4 -4 -10z"/>
<path d="M1732 534 c-7 -14 -17 -22 -22 -19 -6 3 -10 1 -10 -4 0 -6 4 -11 9
-11 5 0 16 -2 23 -5 10 -4 14 4 14 30 0 19 -1 35 -1 35 -1 0 -7 -12 -13 -26z"/>
<path d="M1884 545 c-9 -22 1 -29 15 -11 8 10 9 16 1 21 -5 3 -13 -1 -16 -10z"/>
<path d="M490 535 c0 -8 -7 -15 -15 -15 -8 0 -15 -4 -15 -10 0 -5 9 -10 19
-10 11 0 21 -8 23 -17 3 -10 4 1 4 25 0 23 -4 42 -8 42 -5 0 -8 -7 -8 -15z"/>
<path d="M610 535 c-8 -9 -8 -15 -2 -15 12 0 26 19 19 26 -2 2 -10 -2 -17 -11z"/>
<path d="M1577 533 c-4 -3 -7 -11 -7 -17 0 -6 5 -5 12 2 6 6 9 14 7 17 -3 3
-9 2 -12 -2z"/>
<path d="M1775 530 c-3 -5 -1 -10 4 -10 6 0 11 5 11 10 0 6 -2 10 -4 10 -3 0
-8 -4 -11 -10z"/>
<path d="M1940 521 c0 -5 7 -11 15 -15 8 -3 15 -1 15 3 0 5 -7 11 -15 15 -8 3
-15 1 -15 -3z"/>
<path d="M2271 514 c0 -11 3 -14 6 -6 3 7 2 16 -1 19 -3 4 -6 -2 -5 -13z"/>
<path d="M401 470 c0 -33 1 -34 10 -11 6 16 6 28 -1 35 -7 7 -10 -1 -9 -24z"/>
<path d="M555 491 c-3 -5 -1 -12 5 -16 5 -3 10 1 10 9 0 18 -6 21 -15 7z"/>
<path d="M1625 490 c-3 -5 -1 -10 4 -10 6 0 11 5 11 10 0 6 -2 10 -4 10 -3 0
-8 -4 -11 -10z"/>
<path d="M2044 488 c-11 -18 -16 -108 -6 -108 5 0 10 18 10 40 1 22 4 49 7 60
7 22 0 27 -11 8z"/>
<path d="M210 479 c0 -5 5 -7 10 -4 6 3 10 8 10 11 0 2 -4 4 -10 4 -5 0 -10
-5 -10 -11z"/>
<path d="M655 480 c-3 -5 -1 -10 4 -10 6 0 11 5 11 10 0 6 -2 10 -4 10 -3 0
-8 -4 -11 -10z"/>
<path d="M1520 469 c0 -5 5 -7 10 -4 6 3 10 8 10 11 0 2 -4 4 -10 4 -5 0 -10
-5 -10 -11z"/>
<path d="M1815 470 c-9 -14 4 -50 18 -50 8 0 8 3 -1 12 -7 7 -8 17 -1 30 10
19 -4 27 -16 8z"/>
<path d="M1987 456 c-4 -15 -6 -31 -2 -34 10 -10 16 6 13 35 l-3 28 -8 -29z"/>
<path d="M916 454 c-8 -21 -8 -24 4 -24 5 0 14 9 20 20 8 16 8 20 -4 20 -7 0
-17 -7 -20 -16z"/>
<path d="M1114 455 c-3 -8 -3 -19 1 -24 3 -6 -6 -20 -20 -33 -14 -12 -25 -25
-25 -30 0 -17 -100 -109 -111 -102 -8 4 -9 3 -5 -5 4 -6 -2 -23 -13 -36 -17
-23 -20 -24 -24 -8 -3 11 -5 7 -6 -11 -1 -25 1 -27 16 -15 9 8 24 13 35 11 20
-4 25 14 6 20 -7 3 24 40 67 84 44 43 87 88 96 99 9 11 29 30 45 42 27 20 28
22 7 22 -12 1 -25 -3 -28 -9 -3 -5 -13 -10 -21 -10 -8 0 -12 5 -9 10 3 6 4 10
0 10 -3 0 -8 -7 -11 -15z"/>
<path d="M2196 461 c-4 -7 -5 -15 -2 -18 9 -9 19 4 14 18 -4 11 -6 11 -12 0z"/>
<path d="M1737 453 c-4 -3 -7 -11 -7 -17 0 -6 5 -5 12 2 6 6 9 14 7 17 -3 3
-9 2 -12 -2z"/>
<path d="M1938 454 c-5 -4 -8 -23 -9 -43 0 -20 -3 -30 -6 -23 -7 18 -20 15
-20 -5 0 -32 33 -44 40 -15 3 10 5 6 6 -10 0 -16 6 -28 11 -28 6 0 10 29 9 68
0 44 -3 60 -8 47 -8 -19 -9 -19 -12 -2 -2 11 -7 15 -11 11z"/>
<path d="M2140 444 c0 -8 5 -12 10 -9 6 4 8 11 5 16 -9 14 -15 11 -15 -7z"/>
<path d="M416 431 c-11 -12 -16 -24 -12 -28 9 -9 39 22 34 37 -2 7 -10 4 -22
-9z"/>
<path d="M640 439 c0 -5 5 -7 10 -4 6 3 10 8 10 11 0 2 -4 4 -10 4 -5 0 -10
-5 -10 -11z"/>
<path d="M1682 438 c-19 -19 -14 -30 8 -18 11 6 20 15 20 20 0 14 -14 12 -28
-2z"/>
<path d="M1850 429 c0 -5 5 -7 10 -4 6 3 10 8 10 11 0 2 -4 4 -10 4 -5 0 -10
-5 -10 -11z"/>
<path d="M2066 431 c-4 -7 -5 -15 -2 -18 9 -9 19 4 14 18 -4 11 -6 11 -12 0z"/>
<path d="M467 394 c-21 -20 -35 -39 -32 -42 3 -3 25 13 48 36 51 51 37 56 -16
6z"/>
<path d="M1530 395 c-99 -97 -123 -125 -112 -125 7 0 37 25 67 55 l53 55 5
-38 c2 -20 0 -45 -5 -54 -6 -14 -5 -18 7 -18 13 0 15 10 12 58 -2 31 0 65 5
75 12 25 -3 21 -32 -8z"/>
<path d="M1455 400 c-3 -5 -1 -10 4 -10 6 0 11 5 11 10 0 6 -2 10 -4 10 -3 0
-8 -4 -11 -10z"/>
<path d="M690 389 c0 -5 5 -7 10 -4 6 3 10 8 10 11 0 2 -4 4 -10 4 -5 0 -10
-5 -10 -11z"/>
<path d="M1167 385 c-9 -23 11 -28 23 -5 8 16 8 20 -4 20 -7 0 -16 -7 -19 -15z"/>
<path d="M1613 364 c-12 -27 -2 -32 17 -9 8 10 10 19 4 25 -5 5 -14 -1 -21
-16z"/>
<path d="M762 360 c-7 -11 -9 -20 -4 -20 4 0 13 9 20 20 7 11 9 20 4 20 -4 0
-13 -9 -20 -20z"/>
<path d="M1427 373 c-4 -3 -7 -11 -7 -17 0 -6 5 -5 12 2 6 6 9 14 7 17 -3 3
-9 2 -12 -2z"/>
<path d="M1855 370 c-3 -5 -1 -18 4 -27 9 -16 10 -14 11 10 0 28 -5 34 -15 17z"/>
<path d="M982 330 c0 -14 2 -19 5 -12 2 6 2 18 0 25 -3 6 -5 1 -5 -13z"/>
<path d="M635 330 c-3 -6 1 -7 9 -4 18 7 21 14 7 14 -6 0 -13 -4 -16 -10z"/>
<path d="M864 326 c-10 -8 -16 -17 -13 -20 3 -3 14 3 24 14 21 23 17 26 -11 6z"/>
<path d="M1650 333 c0 -5 5 -15 10 -23 8 -12 10 -11 10 8 0 12 -4 22 -10 22
-5 0 -10 -3 -10 -7z"/>
<path d="M1120 320 c0 -5 5 -10 10 -10 6 0 10 5 10 10 0 6 -4 10 -10 10 -5 0
-10 -4 -10 -10z"/>
<path d="M1921 314 c0 -11 3 -14 6 -6 3 7 2 16 -1 19 -3 4 -6 -2 -5 -13z"/>
<path d="M946 304 c-5 -14 -4 -15 9 -4 17 14 19 20 6 20 -5 0 -12 -7 -15 -16z"/>
<path d="M375 300 c-3 -5 -2 -10 4 -10 5 0 13 5 16 10 3 6 2 10 -4 10 -5 0
-13 -4 -16 -10z"/>
<path d="M1960 300 c-2 -8 -2 -18 -1 -22 0 -5 -7 -8 -16 -8 -10 0 -28 -3 -40
-6 -17 -5 -23 -2 -23 10 0 9 -4 16 -9 16 -5 0 -7 -10 -3 -22 3 -13 1 -19 -6
-14 -5 3 -23 1 -39 -5 -15 -6 -46 -13 -68 -15 -22 -3 -41 -9 -43 -15 -2 -5 -9
-9 -15 -9 -7 1 -1 10 12 20 25 22 21 26 -10 10 -20 -11 -25 -35 -9 -45 6 -4
35 3 66 15 31 11 64 18 74 15 9 -3 30 0 46 6 16 7 58 20 93 30 35 9 68 23 75
29 8 9 6 11 -13 5 -16 -5 -21 -4 -17 4 11 17 -10 13 -25 -5 -12 -14 -14 -14
-20 3 -6 13 -8 14 -9 3z"/>
<path d="M758 275 c-25 -34 -22 -38 7 -9 26 26 30 34 18 34 -5 0 -16 -11 -25
-25z"/>
<path d="M1493 270 c-3 -17 -10 -33 -14 -36 -5 -3 -9 -14 -9 -25 0 -14 7 -19
30 -19 17 0 30 5 30 11 0 6 -7 8 -15 5 -13 -5 -15 2 -9 44 7 54 -3 69 -13 20z"/>
<path d="M886 263 c-17 -18 -22 -31 -16 -37 13 -13 39 12 45 42 5 28 1 28 -29
-5z"/>
<path d="M1055 259 c-41 -36 -48 -61 -8 -29 27 21 59 60 49 60 -3 0 -21 -14
-41 -31z"/>
<path d="M1213 274 c-3 -8 -3 -18 0 -21 4 -3 -11 -21 -33 -41 -37 -32 -53 -72
-30 -72 6 0 9 4 8 8 -2 5 14 28 34 51 23 26 35 49 32 59 -5 15 -4 15 6 -1 6
-9 8 -22 5 -27 -3 -6 -1 -10 4 -10 6 0 11 13 11 29 0 32 -27 51 -37 25z"/>
<path d="M806 264 c-9 -24 -7 -27 9 -10 17 17 19 26 6 26 -5 0 -12 -7 -15 -16z"/>
<path d="M1115 260 c-27 -30 -12 -34 15 -5 13 14 19 25 13 25 -5 0 -18 -9 -28
-20z"/>
<path d="M1310 260 c-11 -7 -12 -12 -4 -20 8 -8 13 -6 17 9 3 12 4 21 4 21 -1
0 -9 -5 -17 -10z"/>
<path d="M1605 261 c-3 -5 -1 -12 4 -15 5 -3 11 1 15 9 6 16 -9 21 -19 6z"/>
<path d="M1370 240 c-12 -12 -19 -24 -16 -28 4 -3 16 4 28 16 12 12 19 24 16
28 -4 3 -16 -4 -28 -16z"/>
<path d="M822 230 c0 -14 2 -19 5 -12 2 6 2 18 0 25 -3 6 -5 1 -5 -13z"/>
<path d="M545 230 c-3 -5 -1 -10 4 -10 6 0 11 5 11 10 0 6 -2 10 -4 10 -3 0
-8 -4 -11 -10z"/>
<path d="M576 224 c-9 -23 -2 -28 13 -10 7 8 8 17 3 20 -6 3 -13 -1 -16 -10z"/>
<path d="M1550 230 c0 -5 5 -10 10 -10 6 0 10 5 10 10 0 6 -4 10 -10 10 -5 0
-10 -4 -10 -10z"/>
<path d="M595 196 c-17 -16 -22 -27 -15 -31 9 -6 60 37 60 51 0 11 -21 2 -45
-20z"/>
<path d="M753 190 c0 -18 5 -29 11 -27 14 5 14 49 0 54 -6 2 -11 -10 -11 -27z"/>
<path d="M850 204 c0 -8 5 -12 10 -9 6 3 10 10 10 16 0 5 -4 9 -10 9 -5 0 -10
-7 -10 -16z"/>
<path d="M1117 213 c-4 -3 -7 -11 -7 -17 0 -6 5 -5 12 2 6 6 9 14 7 17 -3 3
-9 2 -12 -2z"/>
<path d="M1600 200 c0 -19 3 -21 12 -12 9 9 9 15 0 24 -9 9 -12 7 -12 -12z"/>
<path d="M1806 211 c-4 -7 -5 -15 -2 -18 9 -9 19 4 14 18 -4 11 -6 11 -12 0z"/>
<path d="M1647 203 c-4 -3 -7 -11 -7 -17 0 -6 5 -5 12 2 6 6 9 14 7 17 -3 3
-9 2 -12 -2z"/>
<path d="M687 180 c3 -11 0 -20 -6 -20 -6 0 -11 -4 -11 -9 0 -5 8 -7 18 -4 14
3 18 11 14 29 -2 13 -8 24 -12 24 -5 0 -6 -9 -3 -20z"/>
<path d="M820 186 c0 -7 -10 -20 -22 -29 -13 -8 -19 -18 -14 -23 5 -5 11 -4
13 4 3 6 11 12 18 12 7 0 15 -6 18 -12 4 -10 7 -10 18 0 9 9 10 12 1 12 -7 0
-12 11 -12 25 0 14 -4 25 -10 25 -5 0 -10 -6 -10 -14z"/>
<path d="M1191 164 c0 -11 3 -14 6 -6 3 7 2 16 -1 19 -3 4 -6 -2 -5 -13z"/>
</g>
</svg>
