<?xml version="1.0" standalone="no"?>
<!DOCTYPE svg PUBLIC "-//W3C//DTD SVG 20010904//EN"
 "http://www.w3.org/TR/2001/REC-SVG-20010904/DTD/svg10.dtd">
<svg version="1.0" xmlns="http://www.w3.org/2000/svg"
 width="418.000000pt" height="224.000000pt" viewBox="0 0 418.000000 224.000000"
 preserveAspectRatio="xMidYMid meet">
<metadata>
Created by potrace 1.16, written by Peter Selinger 2001-2019
</metadata>
<g transform="translate(0.000000,224.000000) scale(0.100000,-0.100000)"
fill="#000000" stroke="none">
<path d="M16 2225 c-11 -8 -17 -17 -14 -20 9 -10 141 -8 318 4 96 7 261 13
367 14 105 1 195 6 199 10 4 4 -186 7 -422 7 -360 -1 -432 -3 -448 -15z"/>
<path d="M3135 2224 c-55 -7 -172 -14 -260 -14 -88 -1 -250 -8 -360 -17 -186
-14 -227 -15 -280 -11 -30 2 -495 -20 -555 -27 -60 -7 -414 -28 -432 -26 -49
5 -95 4 -222 -8 -76 -7 -150 -17 -164 -22 -40 -15 -488 -25 -505 -11 -8 7 -54
13 -103 14 -102 3 -242 -25 -252 -51 -3 -8 0 -17 6 -19 7 -2 12 -8 12 -13 0
-6 -5 -7 -11 -3 -17 10 -2 -998 16 -1103 6 -36 5 -43 -9 -43 -19 0 -19 -4 -6
-50 6 -19 15 -118 21 -220 11 -204 20 -374 21 -405 0 -52 20 -160 30 -166 36
-22 307 -27 583 -9 118 7 143 6 156 -6 13 -12 28 -13 80 -5 81 13 316 21 529
19 249 -2 388 1 465 12 168 23 261 32 695 65 107 8 283 24 390 35 251 27 544
38 554 21 5 -8 12 -9 19 -2 11 8 249 24 385 26 28 0 52 4 52 8 0 5 9 5 20 2
15 -5 20 -2 20 11 0 25 17 5 23 -26 3 -21 5 -19 6 8 1 29 4 33 23 27 l21 -7
-7 263 c-4 145 -9 399 -11 564 -5 305 -13 545 -20 601 -3 24 0 33 13 36 17 5
18 24 15 279 -1 151 -3 277 -3 282 0 4 -20 7 -45 7 -43 0 -44 -1 -39 -28 8
-39 -20 -50 -151 -58 -58 -4 -105 -10 -105 -15 0 -15 37 -19 96 -11 33 5 66 6
72 4 23 -7 12 -22 -17 -22 -17 0 -33 -4 -36 -10 -3 -5 -1 -10 6 -10 7 0 10 -2
7 -5 -7 -8 -104 -24 -176 -31 -108 -9 -118 -24 -12 -18 128 7 139 9 184 28 21
9 41 16 45 16 11 0 32 40 26 50 -4 6 5 11 19 12 14 0 32 1 38 2 15 1 18 -33 4
-51 -4 -7 -20 -14 -35 -14 -21 -1 -22 -2 -5 -6 16 -3 22 -12 22 -31 0 -36 -25
-62 -60 -62 -15 0 -28 -4 -28 -9 0 -13 -57 -31 -100 -31 -22 0 -43 -7 -50 -15
-7 -9 -19 -14 -27 -11 -7 3 -13 -1 -13 -10 0 -11 6 -14 16 -10 9 3 31 6 50 6
19 0 34 4 34 9 0 5 -10 7 -22 4 -19 -4 -20 -3 -8 6 8 6 29 11 46 11 41 0 156
38 170 56 6 7 14 11 17 7 11 -10 8 -283 -2 -283 -5 0 -15 -34 -22 -76 -10 -65
-14 -74 -25 -60 -6 10 -14 14 -17 9 -8 -13 -7 -106 1 -98 4 4 7 16 7 28 0 11
5 22 12 24 8 3 11 -14 9 -59 -5 -94 -8 -107 -16 -63 l-7 40 -2 -37 c0 -21 -5
-38 -10 -38 -5 0 -11 -10 -14 -22 -2 -13 -5 58 -6 157 -1 99 -2 189 -2 200 0
11 0 39 1 63 2 34 -2 46 -23 62 -13 11 -27 29 -30 40 -4 16 0 20 21 20 27 0
61 -15 52 -23 -3 -2 -14 -9 -25 -16 -19 -11 -19 -11 4 -9 36 4 51 34 26 52
-42 32 -116 11 -135 -39 -6 -16 -20 -24 -47 -28 -72 -12 -83 -10 -84 21 l-1
27 -7 -29 c-5 -26 -11 -30 -48 -33 -30 -2 -43 1 -43 9 0 10 -2 10 -8 2 -11
-18 -132 -23 -132 -5 0 9 -9 12 -30 9 -31 -5 -31 -4 -28 36 2 24 9 44 18 48
12 5 12 7 -2 7 -10 1 -18 6 -18 12 0 8 -4 8 -12 1 -7 -5 -22 -12 -33 -15 -18
-4 -18 -5 3 -6 17 -1 22 -7 23 -28 1 -16 1 -32 0 -37 -3 -15 20 -35 35 -29 8
3 14 1 14 -5 0 -6 -34 -8 -87 -6 -85 3 -88 4 -91 27 -3 22 0 25 28 23 37 -3
48 14 32 47 l-11 22 -7 -22 c-3 -13 -14 -23 -25 -23 -29 0 -38 -30 -29 -90 4
-30 8 -45 9 -32 0 12 4 22 9 23 4 0 80 3 170 5 l162 5 1 -23 c1 -23 1 -23 8 2
5 18 14 25 32 26 15 1 61 4 103 8 76 7 77 7 74 -16 -2 -14 -12 -25 -28 -29
-19 -5 -13 -7 23 -8 34 -1 46 -4 41 -13 -5 -8 -2 -9 9 -5 13 5 17 0 18 -21 3
-61 -2 -116 -13 -136 -16 -28 -20 -56 -9 -56 5 0 12 -10 14 -22 4 -20 4 -20 6
4 2 47 21 42 21 -6 0 -58 8 -80 25 -66 9 8 11 4 7 -16 -3 -16 -7 -21 -12 -14
-11 17 -16 -37 -9 -90 l6 -45 1 53 c3 71 20 58 21 -15 1 -72 -7 -102 -21 -82
-6 10 -8 -3 -5 -38 3 -38 0 -53 -10 -57 -12 -5 -13 8 -7 79 7 82 -6 152 -26
140 -5 -3 -6 3 -3 14 3 10 0 22 -6 25 -7 5 -11 -3 -11 -19 0 -21 -4 -26 -16
-21 -9 3 -20 6 -25 6 -5 0 -9 14 -9 31 0 28 -2 30 -16 18 -15 -12 -16 -11 -9
11 4 14 11 29 16 35 18 18 7 85 -13 85 -6 0 -8 -12 -5 -28 3 -15 2 -34 -4 -42
-7 -13 -9 -12 -9 3 0 9 -5 17 -11 17 -8 0 -9 -11 -5 -32 4 -18 9 -49 12 -68
l6 -35 -47 -3 c-72 -5 -81 9 -58 92 3 11 1 16 -5 12 -6 -3 -12 2 -15 11 -4 17
-4 17 -12 -1 -5 -12 -3 -21 6 -27 10 -6 10 -9 2 -9 -8 0 -13 -13 -13 -31 0
-17 -4 -28 -10 -24 -5 3 -10 -3 -10 -14 0 -12 -7 -21 -15 -21 -12 0 -15 17
-15 93 0 55 4 87 9 79 5 -9 8 14 7 57 -1 49 -5 71 -13 71 -10 0 -13 -30 -13
-114 0 -71 -4 -117 -11 -121 -18 -12 -21 1 -20 94 1 50 -3 93 -9 96 -12 7 -11
12 -15 -104 -3 -71 0 -97 11 -108 8 -8 14 -11 15 -6 1 13 18 -31 18 -49 1 -25
-20 -23 -26 2 -7 25 -23 26 -23 1 0 -10 -7 -21 -15 -25 -8 -3 -15 -1 -15 4 0
16 -39 31 -87 35 -48 4 -69 21 -52 41 6 7 6 14 1 18 -13 7 -12 118 0 133 12
15 6 78 -7 78 -5 0 -11 -22 -13 -48 -1 -29 -9 -55 -19 -65 -16 -16 -16 -16 -9
3 5 11 9 39 10 63 2 39 1 42 -23 42 -23 -1 -24 -2 -8 -11 10 -6 16 -18 13 -27
-3 -9 -7 -53 -11 -96 -3 -44 -7 -82 -10 -84 -3 -3 -5 0 -5 7 0 7 -5 9 -10 6
-8 -5 -7 -11 1 -21 16 -19 10 -23 -28 -17 -18 3 -33 11 -33 18 0 8 8 11 20 8
11 -3 20 -1 20 5 0 5 -9 12 -20 15 -17 4 -20 13 -20 54 0 26 4 54 9 62 10 15
3 51 -10 51 -5 0 -9 -32 -9 -72 0 -89 -15 -80 -25 15 -8 70 -5 74 43 68 6 -1
12 3 12 9 0 7 -13 9 -35 6 -28 -5 -35 -3 -35 11 0 15 -2 14 -15 -3 -20 -26
-20 -68 0 -60 11 4 15 -2 15 -23 0 -15 3 -49 6 -75 6 -37 4 -46 -9 -46 -8 0
-18 12 -22 27 -5 21 -8 24 -16 12 -11 -18 -11 -17 -9 114 1 67 -2 107 -9 107
-5 0 -10 -21 -9 -47 1 -78 0 -82 -22 -76 -16 4 -20 0 -20 -17 0 -19 2 -20 15
-10 9 7 18 10 22 6 3 -3 1 -6 -5 -6 -9 0 -9 -4 -1 -18 15 -23 4 -72 -15 -72
-15 0 -17 12 -32 165 -3 33 -7 71 -8 85 -2 14 -7 62 -11 108 l-8 82 27 0 c14
0 26 4 26 10 0 11 -61 6 -105 -8 l-30 -10 28 -1 c27 -1 28 -3 22 -33 -10 -43
-13 -48 -29 -42 -8 3 -17 0 -21 -6 -5 -8 2 -11 21 -8 l29 3 6 -75 c3 -41 1
-83 -4 -94 -6 -12 -5 -21 3 -26 9 -6 11 -29 6 -86 -5 -62 -4 -75 5 -60 8 13
10 69 7 182 -2 90 -2 162 0 159 7 -6 31 -232 32 -292 0 -32 -5 -53 -12 -56 -9
-3 -7 -10 7 -21 20 -15 20 -15 -2 -16 -12 0 -25 5 -28 10 -3 6 -19 10 -35 10
-24 0 -30 6 -41 38 -7 20 -14 46 -15 57 -9 65 -24 203 -30 288 -10 146 -25
118 -17 -33 5 -116 4 -130 -9 -125 -9 4 -19 2 -22 -3 -3 -5 8 -12 24 -16 25
-5 30 -10 30 -34 0 -16 3 -51 7 -77 6 -48 6 -48 -20 -41 -19 4 -29 1 -36 -11
-9 -16 -11 -13 -17 15 -3 17 -11 32 -16 32 -6 0 -7 -11 -4 -25 5 -18 2 -25 -8
-25 -18 0 -30 17 -17 24 15 10 1 44 -17 41 -10 -2 -19 -4 -22 -4 -3 -1 1 -5 9
-10 7 -5 11 -15 9 -22 -3 -9 -13 -2 -27 21 -22 34 -23 34 -18 7 4 -24 2 -27
-17 -21 -11 3 -39 18 -61 32 -22 14 -47 25 -57 24 -22 -4 -28 23 -44 205 -7
71 -17 103 -29 91 -4 -4 0 -41 9 -83 21 -99 20 -144 -1 -168 -17 -19 -17 -20
5 -15 15 4 22 2 22 -8 0 -10 -7 -13 -27 -8 -56 12 -68 17 -85 31 -9 8 -20 13
-25 10 -4 -3 -40 6 -78 19 -39 14 -78 28 -87 31 -10 3 -18 9 -18 14 0 5 -5 9
-11 9 -5 0 -7 -4 -4 -10 9 -15 -8 -12 -33 6 -12 8 -20 19 -18 23 3 4 1 13 -5
21 -6 11 -9 8 -9 -13 0 -17 -4 -26 -11 -22 -6 4 -26 7 -45 7 -19 0 -34 4 -34
8 0 12 -82 31 -134 31 -11 0 -28 4 -38 10 -19 10 -188 32 -195 25 -2 -2 10
-17 26 -34 17 -17 33 -26 36 -22 6 10 65 9 65 -1 0 -3 33 -16 74 -28 41 -11
82 -24 92 -28 12 -4 15 -3 10 5 -5 8 1 12 18 12 14 0 26 -6 26 -13 0 -12 128
-52 138 -42 5 5 2 6 -65 24 -24 7 -43 16 -43 21 0 6 3 10 6 10 14 0 109 -36
115 -43 3 -4 10 -7 15 -6 21 4 28 -2 14 -12 -12 -9 -11 -9 5 -4 37 14 60 11
57 -7 -2 -16 24 -26 85 -34 12 -1 27 -5 32 -9 6 -3 11 -1 11 4 0 6 11 11 25
11 18 0 25 -5 25 -20 0 -19 16 -25 60 -22 8 0 44 -13 79 -29 36 -17 130 -53
209 -80 140 -47 190 -68 127 -54 -22 6 -27 5 -19 -4 6 -6 31 -13 56 -15 25 -2
76 -14 113 -26 42 -14 70 -19 74 -12 10 16 50 -5 63 -33 12 -27 53 -35 61 -12
3 9 9 8 23 -5 37 -32 184 -72 184 -49 0 5 9 7 20 4 11 -3 20 -10 20 -17 0 -23
41 -38 84 -30 36 6 38 8 19 15 -13 5 -23 13 -23 19 0 16 18 12 40 -10 11 -11
25 -20 31 -20 24 0 89 -46 89 -63 0 -10 5 -27 11 -38 8 -15 6 -27 -10 -53 -12
-18 -18 -35 -15 -38 8 -9 -36 -111 -82 -190 -18 -31 -28 -58 -23 -60 15 -5
-43 -151 -101 -256 -29 -51 -50 -95 -47 -98 2 -3 14 10 26 28 31 49 25 25 -9
-35 -16 -30 -30 -63 -30 -75 0 -20 -5 -22 -67 -23 -38 -1 -79 -3 -93 -4 -236
-24 -283 -27 -290 -15 -5 8 -9 7 -13 -4 -4 -9 -17 -16 -29 -15 -25 0 -116 -8
-185 -17 -46 -6 -55 5 -30 35 7 9 21 43 31 76 10 33 25 69 32 80 16 23 18 45
4 45 -11 0 -56 -92 -65 -135 -13 -55 -39 -105 -55 -105 -8 0 -87 -5 -174 -11
-129 -8 -161 -8 -167 3 -6 8 -9 9 -9 1 0 -6 -21 -16 -47 -22 -45 -9 -77 -14
-208 -27 -27 -3 -68 -7 -90 -9 -135 -15 -408 -25 -515 -20 -72 4 -199 2 -298
-5 -95 -7 -175 -10 -177 -8 -3 3 15 45 40 94 24 49 45 96 45 104 1 16 35 78
85 151 36 53 35 52 119 212 37 71 64 132 60 135 -4 4 -8 3 -10 -3 -2 -5 -14
-26 -26 -45 -12 -19 -41 -72 -64 -117 -23 -44 -58 -106 -78 -136 -20 -30 -36
-58 -36 -62 0 -4 -6 -13 -13 -19 -7 -6 -28 -45 -46 -86 -59 -135 -103 -222
-115 -225 -6 -2 -56 -6 -111 -9 -55 -3 -128 -10 -162 -16 -85 -14 -413 -22
-413 -10 0 6 5 10 11 10 5 0 17 17 26 37 8 21 50 110 93 198 42 88 85 185 95
215 10 30 35 88 56 128 22 41 39 80 39 88 0 8 5 14 10 14 6 0 10 6 10 14 0 8
6 21 12 28 7 7 14 24 16 38 2 14 12 37 23 52 10 15 19 32 19 38 0 5 4 10 10
10 9 0 23 54 24 95 2 35 78 178 88 163 6 -10 10 -10 18 2 5 8 8 21 5 28 -3 7
-1 11 4 8 5 -3 12 2 16 11 3 10 1 19 -4 21 -16 5 15 71 43 93 14 11 28 34 31
51 7 29 27 77 56 131 25 47 88 177 105 216 25 60 60 74 162 65 42 -4 90 -13
106 -21 15 -8 38 -12 49 -9 11 3 32 -1 46 -8 14 -7 32 -11 40 -8 8 2 11 0 7
-6 -6 -9 32 -21 84 -25 14 -1 31 -8 38 -14 21 -20 30 -15 24 13 -5 28 -9 30
-62 39 -43 7 -56 11 -118 36 -13 5 -50 9 -82 9 -42 0 -60 4 -60 13 0 8 -14 11
-45 9 -39 -4 -46 -1 -54 19 -8 19 -10 20 -10 6 -1 -15 -7 -17 -36 -11 -47 9
-105 -3 -105 -21 0 -8 7 -15 16 -15 13 0 -7 -21 -56 -58 -2 -1 2 -7 10 -13 13
-8 13 -11 -3 -23 -10 -8 -15 -20 -11 -30 3 -9 1 -16 -5 -16 -6 0 -11 -12 -11
-27 0 -26 -1 -26 -15 -7 -14 19 -14 19 -15 -3 0 -28 -17 -39 -23 -16 -3 11 -5
7 -6 -10 -1 -17 3 -26 9 -22 17 11 11 -13 -17 -65 -31 -57 -42 -60 -19 -5 9
21 16 44 16 52 0 13 -2 13 -17 2 -15 -12 -16 -12 -9 6 4 11 13 48 18 83 11 62
11 62 44 62 19 0 34 5 34 10 0 15 -45 30 -90 30 -31 0 -38 3 -34 15 4 8 17 18
30 21 36 9 28 32 -10 25 -4 -1 -14 6 -22 16 -13 17 -13 17 -14 1 0 -20 -20
-25 -20 -5 0 9 -3 8 -9 -2 -5 -7 -13 -11 -19 -7 -6 3 -13 -2 -15 -11 -4 -14
-5 -13 -6 5 -1 24 -21 31 -21 7 0 -8 -5 -15 -11 -15 -6 0 -8 9 -4 23 8 24 8
23 6 55 0 12 -5 22 -9 22 -13 0 -30 -57 -25 -84 4 -20 1 -26 -12 -26 -14 0
-16 6 -11 34 4 19 2 37 -3 40 -9 6 -21 -16 -21 -41 0 -8 -8 -22 -17 -31 -15
-16 -16 -14 -10 21 5 31 3 37 -11 37 -15 0 -17 10 -17 68 l1 67 44 6 c25 3 86
7 135 8 50 0 146 6 215 11 269 22 749 48 950 50 99 2 412 28 536 45 122 17
213 19 324 10 48 -4 111 -1 175 8 55 8 140 15 189 16 49 1 93 4 97 7 4 2 81 9
171 14 90 5 179 14 198 19 61 17 221 23 238 9 13 -11 14 -11 7 1 -7 12 1 13
43 8 31 -4 52 -2 52 3 0 16 -715 10 -835 -6z m-798 -80 c-3 -3 -12 -4 -19 -1
-8 3 -5 6 6 6 11 1 17 -2 13 -5z m-127 -14 c-93 -15 -220 -22 -220 -11 0 10
72 16 205 18 59 1 59 1 15 -7z m-2017 -47 c-7 -2 -21 -2 -30 0 -10 3 -4 5 12
5 17 0 24 -2 18 -5z m-101 -85 c-7 -7 -12 -8 -12 -2 0 14 12 26 19 19 2 -3 -1
-11 -7 -17z m84 -15 c-3 -21 -6 -73 -6 -116 0 -81 -12 -96 -24 -30 -18 99 -26
165 -20 174 3 5 17 9 31 9 24 0 25 -2 19 -37z m276 24 c6 -9 8 -9 8 1 0 8 19
12 61 12 57 0 60 -1 57 -22 -2 -19 -11 -24 -44 -28 -37 -5 -40 -7 -33 -30 7
-24 7 -24 14 -4 10 31 45 20 46 -15 0 -23 1 -24 9 -6 5 12 9 -33 9 -121 1
-105 -2 -143 -11 -147 -10 -3 -12 7 -9 39 2 26 -1 44 -7 44 -7 0 -9 15 -6 38
4 28 3 33 -5 22 -6 -8 -11 -41 -11 -72 0 -31 -4 -60 -10 -63 -6 -4 -8 24 -4
78 5 73 3 85 -11 91 -26 10 -40 -6 -41 -44 -2 -94 -18 -251 -25 -256 -5 -3 -9
-53 -10 -112 0 -59 -4 -129 -9 -157 l-7 -50 -3 65 c-2 36 -3 134 -1 218 1 134
0 152 -14 152 -14 0 -16 11 -13 72 2 51 -1 72 -9 75 -13 5 -20 -102 -14 -204
2 -33 -1 -43 -13 -43 -9 0 -16 -12 -19 -32 -4 -34 -2 31 7 190 4 57 2 92 -4
92 -16 0 -11 37 6 44 8 3 12 11 9 17 -4 6 -13 8 -20 5 -14 -5 -28 41 -14 50 4
2 6 11 2 20 -3 8 1 20 10 27 13 11 13 14 -4 31 -16 16 -19 17 -19 4 0 -9 -6
-19 -12 -21 -9 -4 -9 -8 -3 -14 7 -5 6 -36 -1 -93 -11 -83 -15 -77 -18 27 0
24 -4 43 -8 43 -4 0 -8 12 -10 28 l-4 27 -13 -27 c-18 -36 -31 -26 -31 22 l0
39 122 0 c85 0 125 -3 130 -12z m-265 -119 c-2 -13 -4 -5 -4 17 -1 22 1 32 4
23 2 -10 2 -28 0 -40z m-130 -30 c-2 -13 -4 -3 -4 22 0 25 2 35 4 23 2 -13 2
-33 0 -45z m184 53 c7 12 9 11 9 -1 0 -8 -9 -21 -20 -28 -17 -10 -20 -10 -20
6 0 23 13 38 19 21 2 -8 6 -7 12 2z m3618 -43 c12 -16 11 -18 -13 -18 -24 0
-26 2 -16 21 7 11 13 19 14 17 1 -1 8 -11 15 -20z m-3249 -8 c0 -5 -5 -10 -11
-10 -5 0 -7 5 -4 10 3 6 8 10 11 10 2 0 4 -4 4 -10z m-411 -43 c0 -21 -1 -21
-9 -2 -12 28 -12 37 0 30 6 -3 10 -16 9 -28z m50 -4 c0 -25 -1 -25 -8 -8 -5
11 -7 23 -4 28 8 14 13 7 12 -20z m3651 -8 c0 -31 -28 -46 -65 -37 -34 9 -44
52 -13 52 10 0 18 -6 18 -14 0 -7 7 -19 15 -26 12 -10 15 -9 16 6 1 11 1 25 0
32 -1 6 5 12 14 12 9 0 15 -9 15 -25z m-3603 -7 c-3 -8 -6 -5 -6 6 -1 11 2 17
5 13 3 -3 4 -12 1 -19z m195 -127 c-2 -73 -8 -128 -12 -121 -7 12 -2 223 6
249 9 29 11 2 6 -128z m147 120 c8 -5 11 -16 8 -26 -4 -9 -10 -103 -13 -208
-4 -106 -10 -194 -14 -197 -5 -3 -11 -48 -15 -100 -4 -52 -11 -102 -16 -110
-4 -9 -6 8 -3 40 14 177 23 524 13 531 -7 4 -5 8 5 12 20 8 21 27 1 27 -13 0
-13 3 -3 20 14 22 17 23 37 11z m46 -38 c-3 -27 -9 -149 -12 -273 -3 -132 -9
-229 -15 -235 -11 -11 -3 467 8 525 10 48 25 35 19 -17z m79 -133 c-2 -63 -13
-171 -25 -240 -30 -189 -32 -183 -14 65 21 302 47 417 39 175z m-452 113 c5
-42 -3 -113 -12 -113 -10 0 -17 60 -12 105 5 42 19 46 24 8z m415 -5 c-3 -8
-6 -5 -6 6 -1 11 2 17 5 13 3 -3 4 -12 1 -19z m89 0 c-3 -13 -6 -38 -6 -56 0
-18 -3 -31 -7 -29 -12 7 -3 107 9 107 6 0 8 -10 4 -22z m59 -5 c-13 -53 -34
-207 -28 -216 2 -4 0 -14 -7 -21 -6 -8 -8 -27 -5 -43 5 -24 4 -25 -4 -7 -5 12
-12 55 -15 95 -3 54 -2 63 4 34 l8 -40 1 45 c1 25 3 59 5 75 2 17 4 47 5 68 1
31 5 37 22 37 18 0 20 -4 14 -27z m3025 -3 c0 -20 -5 -30 -15 -30 -10 0 -15
10 -15 30 0 20 5 30 15 30 10 0 15 -10 15 -30z m-3630 -10 c0 -5 -7 -6 -17 -3
-11 4 -14 3 -9 -5 4 -7 2 -12 -3 -12 -15 0 -14 27 2 33 14 5 27 -1 27 -13z
m1560 -20 c20 -6 21 -8 5 -8 -11 0 -29 3 -40 8 -25 11 1 11 35 0z m2065 -99
c-6 -14 -7 -14 -15 -1 -5 9 -4 31 3 54 l12 38 3 -37 c2 -21 0 -45 -3 -54z
m-3788 37 c-3 -7 -5 -2 -5 12 0 14 2 19 5 13 2 -7 2 -19 0 -25z m143 10 c0
-18 -2 -20 -9 -8 -6 8 -7 18 -5 22 9 14 14 9 14 -14z m556 -35 c-3 -16 -10
-61 -16 -100 -7 -40 -14 -73 -17 -73 -7 0 4 145 13 178 9 32 27 27 20 -5z
m-546 -200 c4 -148 2 -199 -6 -196 -19 7 -26 83 -23 249 2 100 7 153 14 151 6
-2 12 -79 15 -204z m49 150 c0 -27 -4 -68 -8 -93 -7 -39 -9 -32 -10 48 -1 55
3 92 9 92 6 0 10 -21 9 -47z m-192 -10 c-3 -10 -5 -2 -5 17 0 19 2 27 5 18 2
-10 2 -26 0 -35z m2153 31 c0 -2 -7 -4 -15 -4 -8 0 -15 4 -15 10 0 5 7 7 15 4
8 -4 15 -8 15 -10z m-1740 -10 c0 -8 -4 -12 -10 -9 -5 3 -10 10 -10 16 0 5 5
9 10 9 6 0 10 -7 10 -16z m-323 -41 c-3 -10 -5 -2 -5 17 0 19 2 27 5 18 2 -10
2 -26 0 -35z m321 -59 c-2 -26 -8 -49 -14 -51 -11 -4 -12 24 -5 112 3 45 21
-14 19 -61z m-398 24 c0 -18 -2 -20 -9 -8 -6 8 -7 18 -5 22 9 14 14 9 14 -14z
m250 -2 c0 -13 -7 -29 -15 -36 -9 -8 -15 -9 -15 -2 0 6 5 14 11 18 6 3 9 15 6
25 -3 11 -1 19 4 19 5 0 9 -11 9 -24z m186 -137 c-2 -83 -7 -153 -10 -156 -3
-4 -6 67 -6 156 0 108 3 160 10 156 7 -4 9 -61 6 -156z m141 119 c-3 -7 -5 -2
-5 12 0 14 2 19 5 13 2 -7 2 -19 0 -25z m2563 -28 c0 -22 -4 -40 -10 -40 -5 0
-10 18 -10 40 0 22 5 40 10 40 6 0 10 -18 10 -40z m-3063 -17 c-3 -10 -5 -2
-5 17 0 19 2 27 5 18 2 -10 2 -26 0 -35z m273 -101 c-9 -13 -10 -9 -6 23 3 22
7 60 8 85 1 32 3 25 5 -23 2 -38 -1 -75 -7 -85z m-160 -47 c-3 -128 -7 -166
-12 -133 -10 64 3 336 15 317 2 -2 0 -85 -3 -184z m2520 159 c0 -9 -7 -14 -17
-12 -25 5 -28 28 -4 28 12 0 21 -6 21 -16z m-2673 -26 c-3 -7 -5 -2 -5 12 0
14 2 19 5 13 2 -7 2 -19 0 -25z m543 17 c0 -8 -4 -15 -10 -15 -5 0 -10 7 -10
15 0 8 5 15 10 15 6 0 10 -7 10 -15z m-433 -87 c-2 -18 -4 -4 -4 32 0 36 2 50
4 33 2 -18 2 -48 0 -65z m70 45 c-3 -10 -5 -4 -5 12 0 17 2 24 5 18 2 -7 2
-21 0 -30z m2668 7 c3 -5 1 -10 -4 -10 -6 0 -11 5 -11 10 0 6 2 10 4 10 3 0 8
-4 11 -10z m82 3 c-14 -4 -16 -8 -6 -19 9 -11 7 -14 -10 -14 -11 0 -21 6 -21
14 0 15 16 25 40 24 9 0 8 -2 -3 -5z m183 -24 c0 -5 -9 -9 -20 -9 -11 0 -20 6
-20 14 0 9 7 12 20 9 11 -3 20 -9 20 -14z m476 -27 c-12 -11 -18 7 -10 30 l8
23 4 -23 c2 -13 1 -26 -2 -30z m-3549 6 c-3 -7 -5 -2 -5 12 0 14 2 19 5 13 2
-7 2 -19 0 -25z m490 -15 c-3 -10 -5 -4 -5 12 0 17 2 24 5 18 2 -7 2 -21 0
-30z m93 -24 c-16 -28 -22 -19 -14 21 6 25 9 29 16 16 5 -10 5 -24 -2 -37z
m3177 -11 c-2 -13 -4 -3 -4 22 0 25 2 35 4 23 2 -13 2 -33 0 -45z m-3630 15
c-3 -10 -5 -4 -5 12 0 17 2 24 5 18 2 -7 2 -21 0 -30z m2868 17 c3 -5 1 -10
-4 -10 -6 0 -11 5 -11 10 0 6 2 10 4 10 3 0 8 -4 11 -10z m485 -7 c9 -8 -20
-19 -47 -18 -18 0 -29 6 -31 17 -3 14 3 16 35 11 21 -3 40 -8 43 -10z m-3163
-15 c-3 -13 -9 -58 -13 -101 -4 -43 -9 -75 -12 -73 -9 10 10 196 20 196 6 0 8
-10 5 -22z m3053 12 c0 -5 -4 -10 -9 -10 -6 0 -13 5 -16 10 -3 6 1 10 9 10 9
0 16 -4 16 -10z m145 0 c3 -5 1 -10 -4 -10 -6 0 -11 5 -11 10 0 6 2 10 4 10 3
0 8 -4 11 -10z m-538 -26 c-7 -7 -37 7 -37 17 0 6 9 5 21 -1 11 -7 19 -14 16
-16z m590 20 c-3 -3 -12 -4 -19 -1 -8 3 -5 6 6 6 11 1 17 -2 13 -5z m-515 -28
c24 -8 62 -19 86 -26 44 -11 48 -16 33 -39 -7 -11 -10 -9 -16 8 -4 14 -12 20
-21 17 -8 -3 -14 -2 -14 3 0 8 -48 21 -93 26 -21 2 -48 25 -29 25 6 0 31 -6
54 -14z m181 -10 c9 -7 17 -16 17 -20 0 -8 -23 -3 -30 6 -3 4 -17 8 -32 10
-41 6 -46 18 -7 18 19 0 42 -7 52 -14z m135 -15 c-1 -23 -4 -26 -13 -17 -10 8
-10 13 -1 18 7 5 5 8 -6 8 -10 0 -18 5 -18 10 0 6 9 10 19 10 15 0 19 -7 19
-29z m102 19 c0 -5 -4 -10 -10 -10 -5 0 -10 5 -10 10 0 6 5 10 10 10 6 0 10
-4 10 -10z m45 1 c-3 -5 -1 -12 5 -16 15 -9 12 -25 -5 -25 -21 0 -31 30 -14
41 18 11 22 11 14 0z m-545 -22 c0 -4 -7 -6 -15 -3 -8 4 -15 10 -15 15 0 4 7
6 15 3 8 -4 15 -10 15 -15z m455 11 c3 -5 -1 -10 -9 -10 -9 0 -16 5 -16 10 0
6 4 10 9 10 6 0 13 -4 16 -10z m135 -25 c0 -14 -4 -25 -9 -25 -4 0 -6 11 -3
25 2 14 6 25 8 25 2 0 4 -11 4 -25z m41 -28 c-8 -8 -11 -7 -11 4 0 20 13 34
18 19 3 -7 -1 -17 -7 -23z m29 -14 c-11 -17 -11 -17 -6 0 3 10 7 26 7 35 1 15
2 15 6 0 2 -10 -1 -25 -7 -35z m-153 1 c-3 -3 -12 -4 -19 -1 -8 3 -5 6 6 6 11
1 17 -2 13 -5z m223 -54 c0 -33 -4 -60 -10 -60 -7 0 -8 70 0 118 0 1 2 2 5 2
3 0 5 -27 5 -60z m77 -7 c-3 -10 -5 -2 -5 17 0 19 2 27 5 18 2 -10 2 -26 0
-35z m-229 -10 c2 -8 -5 -13 -17 -13 -12 0 -21 6 -21 16 0 18 31 15 38 -3z
m-3171 -25 c-3 -8 -6 -5 -6 6 -1 11 2 17 5 13 3 -3 4 -12 1 -19z m-200 -155
c-3 -10 -5 -4 -5 12 0 17 2 24 5 18 2 -7 2 -21 0 -30z m273 22 c0 -8 -4 -15
-10 -15 -5 0 -7 7 -4 15 4 8 8 15 10 15 2 0 4 -7 4 -15z m-243 -27 c-3 -7 -5
-2 -5 12 0 14 2 19 5 13 2 -7 2 -19 0 -25z m3520 -10 c-3 -7 -5 -2 -5 12 0 14
2 19 5 13 2 -7 2 -19 0 -25z m-88 -90 c0 -31 -1 -31 -10 -10 -5 13 -7 28 -3
33 10 16 14 9 13 -23z m-3442 -20 c-3 -8 -6 -5 -6 6 -1 11 2 17 5 13 3 -3 4
-12 1 -19z m30 -20 c-3 -7 -5 -2 -5 12 0 14 2 19 5 13 2 -7 2 -19 0 -25z
m3377 -104 c3 -82 2 -107 -4 -79 -9 41 -14 212 -5 204 2 -3 7 -59 9 -125z
m173 14 c-3 -7 -5 -2 -5 12 0 14 2 19 5 13 2 -7 2 -19 0 -25z m-100 -15 c-3
-10 -5 -4 -5 12 0 17 2 24 5 18 2 -7 2 -21 0 -30z m-177 -139 c0 -8 -5 -12
-10 -9 -6 4 -8 11 -5 16 9 14 15 11 15 -7z m227 -6 c-3 -8 -6 -5 -6 6 -1 11 2
17 5 13 3 -3 4 -12 1 -19z m-236 -111 c-13 -13 -15 15 -3 53 7 24 7 23 10 -9
2 -18 -1 -38 -7 -44z m199 37 c0 -8 -4 -12 -10 -9 -5 3 -10 13 -10 21 0 8 5
12 10 9 6 -3 10 -13 10 -21z m-290 -14 c0 -5 -4 -10 -10 -10 -5 0 -10 5 -10
10 0 6 5 10 10 10 6 0 10 -4 10 -10z m99 -87 c0 -34 -1 -36 -11 -16 -6 12 -8
29 -5 37 11 27 17 18 16 -21z m-220 -63 c0 -10 -3 -8 -9 5 -5 12 -9 14 -9 6
-1 -8 -3 -12 -6 -9 -3 3 -2 13 1 22 5 14 9 15 15 4 5 -7 8 -20 8 -28z m198
-32 c-3 -7 -5 -2 -5 12 0 14 2 19 5 13 2 -7 2 -19 0 -25z m-1017 -143 c0 -12
-13 -15 -59 -15 -81 0 -88 18 -9 23 35 2 64 4 66 5 1 1 2 -5 2 -13z m-1412
-50 c-9 -10 -198 -31 -210 -24 -19 12 6 18 87 22 39 2 83 4 99 5 16 1 27 0 24
-3z m-345 -22 c-7 -2 -21 -2 -30 0 -10 3 -4 5 12 5 17 0 24 -2 18 -5z m640
-10 c-7 -2 -19 -2 -25 0 -7 3 -2 5 12 5 14 0 19 -2 13 -5z m254 -9 c-3 -3 -12
-4 -19 -1 -8 3 -5 6 6 6 11 1 17 -2 13 -5z m-1485 -25 c-13 -5 -35 -7 -49 -4
-46 8 -37 15 18 14 44 0 50 -2 31 -10z"/>
<path d="M386 1975 c-8 -22 16 -34 54 -26 41 8 47 26 9 27 -15 1 -34 4 -42 7
-8 3 -18 0 -21 -8z"/>
<path d="M443 1915 c-3 -9 -3 -18 -1 -21 3 -3 8 4 11 16 6 23 -1 27 -10 5z"/>
<path d="M361 1904 c0 -11 3 -14 6 -6 3 7 2 16 -1 19 -3 4 -6 -2 -5 -13z"/>
<path d="M500 1886 c0 -22 3 -27 11 -19 8 8 8 16 0 30 -9 16 -10 14 -11 -11z"/>
<path d="M552 1865 c0 -16 2 -22 5 -12 2 9 2 23 0 30 -3 6 -5 -1 -5 -18z"/>
<path d="M410 1870 c0 -5 12 -10 28 -9 24 0 25 1 7 9 -27 12 -35 12 -35 0z"/>
<path d="M360 1834 c0 -14 4 -23 10 -19 6 3 10 15 10 26 0 10 -4 19 -10 19 -5
0 -10 -12 -10 -26z"/>
<path d="M390 1830 c0 -5 14 -10 32 -10 35 0 30 12 -7 17 -14 2 -25 -1 -25 -7z"/>
<path d="M3475 2170 c-3 -5 1 -10 9 -10 9 0 16 5 16 10 0 6 -4 10 -9 10 -6 0
-13 -4 -16 -10z"/>
<path d="M3190 2130 l-25 -8 25 0 c14 0 34 3 45 8 l20 9 -20 -1 c-11 0 -31 -4
-45 -8z"/>
<path d="M3655 2131 c-3 -2 -20 -5 -38 -7 -17 -1 -70 -5 -117 -8 -109 -8 -136
-14 -122 -28 7 -7 26 -7 63 1 32 7 55 8 57 3 2 -6 17 -6 40 0 20 5 46 10 57
12 11 2 36 7 55 11 19 5 38 9 42 9 20 2 13 12 -8 12 -13 0 -27 -2 -29 -5z"/>
<path d="M3130 2120 c0 -5 7 -10 15 -10 8 0 15 5 15 10 0 6 -7 10 -15 10 -8 0
-15 -4 -15 -10z"/>
<path d="M2965 2104 c-26 -13 -27 -14 -5 -10 14 3 37 6 53 6 15 0 27 5 27 10
0 14 -40 11 -75 -6z"/>
<path d="M2765 2090 c-16 -7 -13 -9 15 -9 19 0 44 4 55 9 16 7 13 9 -15 9 -19
0 -44 -4 -55 -9z"/>
<path d="M2892 2078 c3 -7 12 -14 21 -16 12 -2 15 1 11 12 -7 19 -38 22 -32 4z"/>
<path d="M2857 2071 c-17 -6 -17 -8 -3 -20 13 -11 17 -11 22 3 8 21 4 25 -19
17z"/>
<path d="M3040 2070 c0 -5 5 -10 11 -10 5 0 7 5 4 10 -3 6 -8 10 -11 10 -2 0
-4 -4 -4 -10z"/>
<path d="M2150 2051 c0 -5 7 -12 16 -15 22 -8 26 -8 19 3 -3 5 3 12 12 14 10
3 3 5 -14 6 -18 0 -33 -3 -33 -8z"/>
<path d="M2458 2053 c7 -3 16 -2 19 1 4 3 -2 6 -13 5 -11 0 -14 -3 -6 -6z"/>
<path d="M2720 2050 c0 -5 5 -10 10 -10 6 0 10 5 10 10 0 6 -4 10 -10 10 -5 0
-10 -4 -10 -10z"/>
<path d="M1670 2040 c0 -6 17 -10 40 -8 22 1 40 6 40 10 0 4 -18 8 -40 8 -22
0 -40 -5 -40 -10z"/>
<path d="M2230 2040 c0 -12 97 -12 125 0 14 6 -3 9 -52 9 -43 1 -73 -3 -73 -9z"/>
<path d="M2635 2034 c43 -11 52 -11 65 1 12 13 6 15 -50 14 l-65 -1 50 -14z"/>
<path d="M3010 2039 c0 -5 9 -9 20 -9 11 0 20 2 20 4 0 2 -9 6 -20 9 -11 3
-20 1 -20 -4z"/>
<path d="M3405 2040 c3 -5 12 -7 20 -3 21 7 19 13 -6 13 -11 0 -18 -4 -14 -10z"/>
<path d="M3505 2041 c3 -5 -3 -12 -12 -14 -10 -3 1 -5 25 -6 24 0 42 4 42 10
0 6 -9 8 -21 4 -15 -5 -19 -4 -15 4 4 6 0 11 -9 11 -9 0 -14 -4 -10 -9z"/>
<path d="M3575 2040 c3 -5 8 -10 11 -10 2 0 4 5 4 10 0 6 -5 10 -11 10 -5 0
-7 -4 -4 -10z"/>
<path d="M1540 2030 l-55 -7 77 -1 c42 -1 80 2 83 8 7 11 -17 11 -105 0z"/>
<path d="M2828 2033 c7 -3 16 -2 19 1 4 3 -2 6 -13 5 -11 0 -14 -3 -6 -6z"/>
<path d="M3089 2031 c8 -5 20 -7 28 -4 7 3 20 0 28 -7 9 -8 15 -8 15 -2 0 6 8
13 18 15 9 3 -10 5 -43 6 -39 0 -55 -2 -46 -8z"/>
<path d="M1390 2020 c19 -13 30 -13 30 0 0 6 -10 10 -22 10 -19 0 -20 -2 -8
-10z"/>
<path d="M1130 2012 c0 -20 57 -42 89 -36 44 9 49 34 7 34 -18 0 -48 3 -65 6
-20 4 -31 2 -31 -4z"/>
<path d="M1340 2010 c0 -5 5 -10 10 -10 6 0 10 5 10 10 0 6 -4 10 -10 10 -5 0
-10 -4 -10 -10z"/>
<path d="M1840 2008 c0 -4 9 -8 20 -8 11 0 20 4 20 8 0 4 -9 8 -20 8 -11 0
-20 -4 -20 -8z"/>
<path d="M2070 2010 c0 -5 12 -10 26 -10 14 0 23 4 19 10 -3 6 -15 10 -26 10
-10 0 -19 -4 -19 -10z"/>
<path d="M2184 2011 c5 -8 56 -3 56 5 0 2 -14 4 -31 4 -16 0 -28 -4 -25 -9z"/>
<path d="M3230 2010 c0 -5 4 -10 9 -10 6 0 13 5 16 10 3 6 -1 10 -9 10 -9 0
-16 -4 -16 -10z"/>
<path d="M3735 2009 c-74 -17 -151 -23 -338 -28 -17 -1 -26 -5 -22 -12 4 -6
27 -8 58 -5 109 12 278 15 272 6 -3 -6 -16 -10 -28 -10 -29 0 -67 -11 -67 -19
0 -8 100 -5 123 4 9 4 17 15 17 24 0 10 9 17 25 17 36 3 57 12 50 24 -7 12
-34 11 -90 -1z"/>
<path d="M1055 1996 c-32 -7 -45 -14 -37 -19 7 -5 10 -13 7 -18 -4 -5 8 -9 24
-9 17 0 31 5 31 11 0 7 8 18 17 25 27 19 13 22 -42 10z"/>
<path d="M1958 2003 c6 -2 18 -2 25 0 6 3 1 5 -13 5 -14 0 -19 -2 -12 -5z"/>
<path d="M2762 2004 c11 -10 98 -14 98 -4 0 5 -23 10 -52 10 -28 0 -49 -3 -46
-6z"/>
<path d="M980 1994 c0 -5 -23 -7 -51 -5 -62 4 -139 -7 -139 -20 0 -5 43 -9 95
-9 77 0 97 3 102 15 3 9 3 19 -1 22 -3 4 -6 2 -6 -3z"/>
<path d="M2649 1976 c8 -9 23 -11 51 -6 61 11 59 19 -5 19 -45 0 -54 -3 -46
-13z"/>
<path d="M2920 1979 c0 -5 5 -7 10 -4 6 3 10 8 10 11 0 2 -4 4 -10 4 -5 0 -10
-5 -10 -11z"/>
<path d="M2510 1970 c0 -5 11 -10 25 -10 14 0 25 5 25 10 0 6 -11 10 -25 10
-14 0 -25 -4 -25 -10z"/>
<path d="M2990 1970 c-8 -5 -11 -12 -7 -16 4 -4 13 -2 19 4 15 15 7 24 -12 12z"/>
<path d="M3185 1970 c3 -5 8 -10 11 -10 2 0 4 5 4 10 0 6 -5 10 -11 10 -5 0
-7 -4 -4 -10z"/>
<path d="M3255 1970 c3 -5 24 -10 46 -10 21 0 39 5 39 10 0 6 -21 10 -46 10
-27 0 -43 -4 -39 -10z"/>
<path d="M1918 1963 c12 -2 32 -2 45 0 12 2 2 4 -23 4 -25 0 -35 -2 -22 -4z"/>
<path d="M2150 1960 c0 -5 5 -10 10 -10 6 0 10 5 10 10 0 6 -4 10 -10 10 -5 0
-10 -4 -10 -10z"/>
<path d="M2190 1960 c0 -5 5 -10 10 -10 6 0 10 5 10 10 0 6 -4 10 -10 10 -5 0
-10 -4 -10 -10z"/>
<path d="M2800 1950 c0 -5 7 -10 16 -10 8 0 12 5 9 10 -3 6 -10 10 -16 10 -5
0 -9 -4 -9 -10z"/>
<path d="M2948 1953 c7 -3 16 -2 19 1 4 3 -2 6 -13 5 -11 0 -14 -3 -6 -6z"/>
<path d="M3068 1953 c6 -2 18 -2 25 0 6 3 1 5 -13 5 -14 0 -19 -2 -12 -5z"/>
<path d="M3560 1951 c0 -6 -12 -11 -27 -11 -24 -1 -26 -2 -10 -11 24 -14 62
-8 62 10 0 8 -6 16 -12 19 -7 2 -13 -1 -13 -7z"/>
<path d="M1279 1940 c-19 -13 -8 -18 21 -10 19 4 21 7 9 12 -9 3 -22 2 -30 -2z"/>
<path d="M2720 1936 c0 -10 -13 -16 -37 -18 -20 -2 -38 -9 -41 -16 -3 -9 6
-11 36 -6 l40 6 1 -73 c1 -41 -2 -102 -5 -136 -5 -53 -9 -63 -28 -66 -21 -4
-21 -4 2 -12 13 -4 22 -16 23 -29 0 -14 2 -16 6 -6 2 8 7 22 10 30 4 8 7 44 7
80 1 63 2 65 31 71 l30 7 -34 1 -33 1 4 90 c2 50 1 90 -4 90 -4 0 -8 -6 -8
-14z"/>
<path d="M3221 1933 c-6 -12 -21 -17 -53 -16 -23 1 -36 0 -28 -3 8 -3 26 -11
39 -17 19 -9 25 -9 28 1 3 6 13 12 23 12 15 0 30 18 30 36 0 12 -30 2 -39 -13z"/>
<path d="M2558 1928 c6 -6 5 -26 -4 -54 -8 -26 -9 -46 -3 -49 5 -4 9 5 9 19 0
30 18 44 27 21 3 -10 0 -21 -8 -25 -16 -11 -12 -15 23 -24 26 -6 26 -5 26 39
0 25 -4 47 -9 51 -5 3 -9 -12 -9 -32 0 -50 -7 -40 -13 16 -3 38 -7 45 -26 46
-14 1 -19 -2 -13 -8z"/>
<path d="M3458 1905 c-2 -19 0 -35 4 -35 4 0 8 5 8 10 0 6 10 10 23 10 20 1
20 2 5 11 -10 5 -18 17 -18 24 0 30 -18 14 -22 -20z"/>
<path d="M3966 1930 c-19 -6 -19 -7 -1 -13 20 -8 29 -4 24 11 -2 5 -13 6 -23
2z"/>
<path d="M1110 1920 c0 -5 -10 -11 -22 -13 -13 -2 2 -2 32 0 30 3 71 8 90 13
30 7 24 8 -32 8 -38 0 -68 -4 -68 -8z"/>
<path d="M3610 1910 l-35 -7 37 -2 c20 0 40 4 43 9 7 11 7 11 -45 0z"/>
<path d="M830 1894 c0 -8 5 -12 10 -9 6 3 10 10 10 16 0 5 -4 9 -10 9 -5 0
-10 -7 -10 -16z"/>
<path d="M1417 1890 c-3 -10 0 -26 7 -35 9 -13 11 -9 11 20 0 38 -10 47 -18
15z"/>
<path d="M2170 1902 c0 -5 14 -7 30 -4 17 2 30 6 30 8 0 2 -13 4 -30 4 -16 0
-30 -4 -30 -8z"/>
<path d="M2290 1889 c0 -11 4 -18 10 -14 5 3 7 12 3 20 -7 21 -13 19 -13 -6z"/>
<path d="M2343 1866 c5 -34 3 -45 -9 -50 -22 -8 -24 -8 -24 9 0 8 -5 15 -11
15 -5 0 -8 -4 -4 -9 3 -5 1 -12 -4 -15 -14 -9 -145 -11 -158 -3 -9 6 -11 3 -7
-7 7 -18 60 -20 174 -10 l65 6 -3 54 c-2 30 -9 54 -14 54 -7 0 -8 -16 -5 -44z"/>
<path d="M1257 1894 c-4 -4 -5 -10 -2 -14 6 -9 65 0 65 11 0 10 -53 12 -63 3z"/>
<path d="M1658 1893 c7 -3 16 -2 19 1 4 3 -2 6 -13 5 -11 0 -14 -3 -6 -6z"/>
<path d="M1911 1888 c0 -7 4 -22 9 -33 7 -17 9 -15 9 13 1 17 -3 32 -9 32 -5
0 -10 -6 -9 -12z"/>
<path d="M3037 1893 c-12 -20 -16 -93 -8 -148 l8 -60 2 90 c2 92 13 94 24 5
15 -111 20 -140 28 -140 5 0 6 13 3 29 -5 23 -2 30 12 34 17 4 17 5 2 6 -30 2
-20 21 11 21 34 0 60 24 36 34 -9 3 -18 -1 -21 -9 -4 -8 -16 -15 -29 -15 -21
0 -23 6 -31 77 -8 68 -23 99 -37 76z"/>
<path d="M2190 1861 c0 -17 5 -33 10 -36 6 -4 10 8 10 29 0 20 -4 36 -10 36
-5 0 -10 -13 -10 -29z"/>
<path d="M1987 1859 c-8 -30 -2 -38 24 -32 11 3 17 9 11 12 -5 3 -13 14 -19
25 -9 17 -10 17 -16 -5z"/>
<path d="M2120 1855 c0 -14 5 -25 10 -25 6 0 10 11 10 25 0 14 -4 25 -10 25
-5 0 -10 -11 -10 -25z"/>
<path d="M3125 1870 c-3 -5 -2 -18 3 -27 5 -10 7 -24 5 -30 -5 -15 6 -17 25
-4 11 6 10 10 -3 15 -11 4 -15 13 -12 26 6 22 -8 37 -18 20z"/>
<path d="M3710 1870 c0 -5 5 -10 10 -10 6 0 10 5 10 10 0 6 -4 10 -10 10 -5 0
-10 -4 -10 -10z"/>
<path d="M3976 1865 c-3 -8 -1 -17 3 -20 5 -3 11 2 15 10 3 8 1 17 -3 20 -5 3
-11 -2 -15 -10z"/>
<path d="M1790 1856 c0 -9 5 -16 10 -16 6 0 10 4 10 9 0 6 -4 13 -10 16 -5 3
-10 -1 -10 -9z"/>
<path d="M2061 1854 c0 -11 3 -14 6 -6 3 7 2 16 -1 19 -3 4 -6 -2 -5 -13z"/>
<path d="M1851 1844 c0 -11 3 -14 6 -6 3 7 2 16 -1 19 -3 4 -6 -2 -5 -13z"/>
<path d="M950 1840 c0 -15 27 -23 47 -16 15 6 15 8 3 16 -20 13 -50 12 -50 0z"/>
<path d="M2650 1840 c-13 -8 -13 -10 2 -10 9 0 20 5 23 10 8 13 -5 13 -25 0z"/>
<path d="M2498 1823 c7 -3 16 -2 19 1 4 3 -2 6 -13 5 -11 0 -14 -3 -6 -6z"/>
<path d="M4002 1805 c0 -16 2 -22 5 -12 2 9 2 23 0 30 -3 6 -5 -1 -5 -18z"/>
<path d="M1774 1804 c3 -8 6 -18 6 -20 0 -2 5 -4 10 -4 16 0 11 27 -6 34 -12
5 -15 2 -10 -10z"/>
<path d="M3950 1810 c0 -5 5 -10 10 -10 6 0 10 5 10 10 0 6 -4 10 -10 10 -5 0
-10 -4 -10 -10z"/>
<path d="M1988 1793 c6 -2 18 -2 25 0 6 3 1 5 -13 5 -14 0 -19 -2 -12 -5z"/>
<path d="M2618 1689 c3 -76 1 -114 -7 -122 -9 -9 -11 -5 -10 18 2 17 1 71 -1
120 -2 59 -5 74 -7 45 -3 -24 -10 -48 -16 -52 -9 -6 -9 -8 1 -8 8 0 12 -20 12
-67 0 -81 8 -113 26 -113 16 0 28 73 20 126 -3 22 -5 67 -6 102 0 34 -4 62 -8
62 -5 0 -6 -50 -4 -111z"/>
<path d="M2301 1745 c1 -22 5 -51 9 -65 6 -20 8 -15 9 25 0 28 -4 57 -9 65 -7
11 -9 4 -9 -25z"/>
<path d="M2538 1758 c-4 -59 -6 -75 -12 -105 -5 -22 -4 -33 3 -33 6 0 11 15
11 34 0 19 6 37 13 39 6 3 7 6 2 6 -6 1 -9 18 -7 41 2 22 1 40 -2 40 -3 0 -7
-10 -8 -22z"/>
<path d="M3682 1760 c0 -14 2 -19 5 -12 2 6 2 18 0 25 -3 6 -5 1 -5 -13z"/>
<path d="M2361 1731 c-1 -24 7 -62 16 -83 19 -43 38 -53 21 -10 -6 15 -16 52
-23 82 l-13 55 -1 -44z"/>
<path d="M4001 1754 c0 -11 3 -14 6 -6 3 7 2 16 -1 19 -3 4 -6 -2 -5 -13z"/>
<path d="M2135 1750 c3 -5 8 -10 11 -10 2 0 4 5 4 10 0 6 -5 10 -11 10 -5 0
-7 -4 -4 -10z"/>
<path d="M3448 1753 c7 -3 16 -2 19 1 4 3 -2 6 -13 5 -11 0 -14 -3 -6 -6z"/>
<path d="M2206 1734 c-3 -9 -12 -14 -19 -11 -8 3 -20 1 -28 -4 -10 -6 -2 -9
24 -9 30 0 37 4 37 20 0 24 -6 26 -14 4z"/>
<path d="M2500 1740 c0 -5 7 -10 15 -10 8 0 15 5 15 10 0 6 -7 10 -15 10 -8 0
-15 -4 -15 -10z"/>
<path d="M3780 1725 c0 -14 0 -28 1 -32 0 -5 -10 -11 -23 -15 l-23 -6 23 -1
c27 -1 30 -21 3 -21 -33 0 -33 -17 -1 -22 18 -3 30 0 30 6 0 6 10 16 23 21 29
13 29 39 -1 43 -18 3 -21 8 -16 28 4 14 2 24 -5 24 -6 0 -11 -11 -11 -25z"/>
<path d="M3710 1730 c0 -5 7 -10 16 -10 8 0 12 5 9 10 -3 6 -10 10 -16 10 -5
0 -9 -4 -9 -10z"/>
<path d="M3648 1723 c7 -3 16 -2 19 1 4 3 -2 6 -13 5 -11 0 -14 -3 -6 -6z"/>
<path d="M3210 1704 l-25 -14 27 0 c15 0 29 4 33 9 9 16 -9 18 -35 5z"/>
<path d="M3300 1713 c0 -6 -9 -15 -21 -18 -34 -11 -14 -18 30 -10 23 4 39 11
35 16 -3 5 -10 6 -16 3 -6 -4 -14 0 -19 7 -6 9 -9 10 -9 2z"/>
<path d="M3360 1709 c0 -5 5 -7 10 -4 6 3 10 8 10 11 0 2 -4 4 -10 4 -5 0 -10
-5 -10 -11z"/>
<path d="M3503 1709 c14 -8 22 -8 30 0 8 8 3 11 -18 11 -26 -1 -28 -2 -12 -11z"/>
<path d="M911 1684 c0 -11 3 -14 6 -6 3 7 2 16 -1 19 -3 4 -6 -2 -5 -13z"/>
<path d="M2195 1690 c-18 -8 -17 -9 8 -9 16 -1 26 3 22 9 -3 6 -7 10 -8 9 -1
0 -11 -4 -22 -9z"/>
<path d="M2415 1690 c3 -5 8 -10 11 -10 2 0 4 5 4 10 0 6 -5 10 -11 10 -5 0
-7 -4 -4 -10z"/>
<path d="M3381 1683 c-1 -12 4 -25 9 -28 12 -7 12 2 0 30 -8 19 -9 19 -9 -2z"/>
<path d="M3575 1691 c-3 -5 -1 -12 5 -16 5 -3 10 1 10 9 0 18 -6 21 -15 7z"/>
<path d="M3690 1691 c0 -5 -17 -12 -37 -14 l-38 -4 38 -1 c42 -2 49 -18 12
-28 -25 -6 -35 -24 -14 -24 8 0 10 -15 7 -45 -3 -25 -2 -45 2 -45 13 0 23 33
21 68 -2 17 2 32 8 32 6 0 11 -6 11 -12 0 -9 3 -8 10 2 5 9 5 19 -1 26 -5 6
-7 18 -3 27 3 8 1 18 -5 22 -6 3 -11 2 -11 -4z"/>
<path d="M2220 1666 c0 -4 6 -14 14 -21 12 -12 16 -12 25 -1 8 10 9 16 1 21
-5 3 -10 1 -10 -6 0 -8 -4 -8 -15 1 -8 7 -15 9 -15 6z"/>
<path d="M2320 1635 c0 -8 4 -15 10 -15 5 0 7 7 4 15 -4 8 -8 15 -10 15 -2 0
-4 -7 -4 -15z"/>
<path d="M3582 1615 c-1 -62 13 -134 20 -110 12 37 13 82 1 96 -6 8 -13 23
-16 34 -2 11 -5 2 -5 -20z"/>
<path d="M1730 1630 c0 -5 5 -10 11 -10 5 0 7 5 4 10 -3 6 -8 10 -11 10 -2 0
-4 -4 -4 -10z"/>
<path d="M2362 1620 c0 -14 2 -19 5 -12 2 6 2 18 0 25 -3 6 -5 1 -5 -13z"/>
<path d="M1400 1615 c-14 -8 -32 -14 -41 -15 -9 0 -19 -7 -23 -15 -3 -8 -11
-15 -18 -15 -12 0 -65 -26 -196 -95 -36 -20 -51 -33 -47 -43 3 -8 0 -20 -5
-28 -16 -18 17 -34 69 -34 28 0 48 -7 61 -20 11 -11 25 -20 30 -20 15 0 13
-10 -12 -59 -18 -34 -20 -45 -10 -48 17 -6 -24 -32 -73 -48 -8 -2 -15 -16 -15
-30 0 -29 32 -46 90 -49 l35 -1 -3 56 c-3 48 1 63 27 107 18 27 38 53 47 56
20 8 51 -13 58 -38 5 -20 6 -20 30 3 25 24 49 75 39 85 -3 3 -17 3 -32 0 -14
-2 -38 -1 -52 3 l-27 8 47 81 c26 45 51 88 57 95 7 8 14 29 16 47 5 36 -9 41
-52 17z m-63 -134 c-18 -32 -39 -69 -48 -81 -15 -22 -16 -23 -42 -6 -14 10
-30 15 -35 12 -5 -3 -17 1 -27 8 -18 13 -17 14 6 29 42 27 164 96 171 96 3 1
-8 -25 -25 -58z"/>
<path d="M3404 1615 c-4 -9 -2 -21 3 -26 7 -7 12 -3 16 10 6 25 -11 39 -19 16z"/>
<path d="M3820 1620 c0 -5 5 -10 10 -10 6 0 10 5 10 10 0 6 -4 10 -10 10 -5 0
-10 -4 -10 -10z"/>
<path d="M1784 1595 c11 -8 22 -12 25 -9 6 6 -19 24 -34 24 -5 -1 -1 -7 9 -15z"/>
<path d="M2520 1594 c0 -8 5 -12 10 -9 6 3 10 10 10 16 0 5 -4 9 -10 9 -5 0
-10 -7 -10 -16z"/>
<path d="M3758 1604 c-5 -4 -8 -19 -8 -33 0 -18 3 -22 11 -14 6 6 9 21 7 33
-1 12 -6 18 -10 14z"/>
<path d="M3714 1565 c-3 -20 -4 -39 0 -42 3 -4 6 6 6 21 0 16 4 25 10 21 6 -3
10 3 10 14 0 34 -19 24 -26 -14z"/>
<path d="M2798 1574 c-5 -4 -8 -26 -7 -48 0 -37 1 -39 10 -16 11 27 8 76 -3
64z"/>
<path d="M2860 1568 c0 -7 5 -20 10 -28 8 -12 10 -9 10 13 0 15 -4 27 -10 27
-5 0 -10 -6 -10 -12z"/>
<path d="M1912 1554 c-11 -12 -10 -15 2 -20 24 -9 36 -1 23 17 -10 14 -14 14
-25 3z"/>
<path d="M1727 1509 c7 -7 15 -10 18 -7 3 3 -2 9 -12 12 -14 6 -15 5 -6 -5z"/>
<path d="M2115 1510 c3 -5 11 -10 16 -10 6 0 7 5 4 10 -3 6 -11 10 -16 10 -6
0 -7 -4 -4 -10z"/>
<path d="M3400 1510 c0 -5 5 -10 11 -10 5 0 7 5 4 10 -3 6 -8 10 -11 10 -2 0
-4 -4 -4 -10z"/>
<path d="M2290 1465 c30 -7 56 -12 59 -9 9 8 -5 13 -59 18 l-55 5 55 -14z"/>
<path d="M3201 1454 c0 -11 3 -14 6 -6 3 7 2 16 -1 19 -3 4 -6 -2 -5 -13z"/>
<path d="M3388 1461 c-15 -5 -14 -9 8 -28 20 -18 24 -19 24 -5 0 26 -13 40
-32 33z"/>
<path d="M3674 1425 c5 -13 2 -16 -9 -11 -9 3 -13 2 -10 -4 3 -6 15 -10 26
-10 23 0 23 30 0 38 -10 3 -12 0 -7 -13z"/>
<path d="M3318 1419 c-9 -23 2 -39 27 -39 29 0 35 9 24 35 -4 11 -8 14 -8 8
-1 -16 -28 -17 -33 -1 -3 8 -6 7 -10 -3z m45 -26 c-7 -2 -19 -2 -25 0 -7 3 -2
5 12 5 14 0 19 -2 13 -5z"/>
<path d="M2688 1383 c7 -3 16 -2 19 1 4 3 -2 6 -13 5 -11 0 -14 -3 -6 -6z"/>
<path d="M3385 1380 c-3 -5 3 -10 14 -10 11 0 23 5 26 10 3 6 -3 10 -14 10
-11 0 -23 -4 -26 -10z"/>
<path d="M2560 1240 c20 -13 33 -13 25 0 -3 6 -14 10 -23 10 -15 0 -15 -2 -2
-10z"/>
<path d="M2618 1223 c6 -2 18 -2 25 0 6 3 1 5 -13 5 -14 0 -19 -2 -12 -5z"/>
<path d="M1800 1166 c0 -2 7 -6 15 -10 8 -3 15 -1 15 4 0 6 -7 10 -15 10 -8 0
-15 -2 -15 -4z"/>
<path d="M2735 1140 c3 -5 8 -10 11 -10 2 0 4 5 4 10 0 6 -5 10 -11 10 -5 0
-7 -4 -4 -10z"/>
<path d="M1470 1095 c0 -9 9 -15 23 -15 23 0 57 -10 202 -60 50 -18 122 -40
160 -50 64 -16 175 -50 331 -100 34 -11 70 -20 80 -20 20 0 35 -4 178 -50 54
-17 101 -29 104 -26 3 3 3 8 1 9 -11 9 -191 66 -244 77 -33 7 -91 23 -128 36
-38 13 -73 22 -78 18 -5 -3 -9 -1 -9 3 0 5 -33 17 -72 27 -110 28 -320 95
-441 140 -78 30 -107 33 -107 11z"/>
<path d="M1440 1078 c0 -19 2 -20 10 -8 13 19 13 30 0 30 -5 0 -10 -10 -10
-22z"/>
<path d="M930 1072 c-65 -32 -66 -50 -15 -232 8 -30 15 -67 15 -82 0 -15 5
-30 10 -33 6 -3 47 10 93 30 45 20 103 45 129 55 92 35 125 102 86 172 -28 52
-51 57 -101 23 -50 -33 -67 -32 -67 4 0 15 -9 40 -21 55 -25 32 -76 35 -129 8z"/>
<path d="M707 1053 c-4 -3 -7 -11 -7 -17 0 -6 5 -5 12 2 6 6 9 14 7 17 -3 3
-9 2 -12 -2z"/>
<path d="M1405 1015 c-9 -22 -22 -49 -28 -60 -9 -18 -9 -19 7 -6 20 17 48 80
42 95 -2 6 -12 -7 -21 -29z"/>
<path d="M2630 980 c0 -5 5 -10 10 -10 6 0 10 5 10 10 0 6 -4 10 -10 10 -5 0
-10 -4 -10 -10z"/>
<path d="M1357 912 c-2 -9 -8 -26 -13 -37 -7 -17 -6 -18 8 -7 19 15 30 50 18
57 -4 3 -10 -3 -13 -13z"/>
<path d="M1470 886 c-37 -39 -39 -43 -34 -91 3 -27 19 -81 36 -120 52 -121 60
-148 46 -156 -9 -6 -9 -11 1 -23 19 -22 29 -20 60 12 15 15 54 42 87 60 142
78 210 150 200 212 -10 67 -88 99 -149 61 -19 -12 -37 -21 -40 -21 -4 0 -16
19 -28 42 -28 56 -45 67 -97 66 -37 0 -48 -6 -82 -42z"/>
<path d="M3035 891 c-3 -5 -1 -12 5 -16 5 -3 10 1 10 9 0 18 -6 21 -15 7z"/>
<path d="M3056 831 c-4 -7 -5 -15 -2 -18 9 -9 19 4 14 18 -4 11 -6 11 -12 0z"/>
<path d="M3296 795 c-3 -8 -1 -15 4 -15 6 0 10 7 10 15 0 8 -2 15 -4 15 -2 0
-6 -7 -10 -15z"/>
<path d="M3380 761 c0 -11 -3 -28 -6 -38 -5 -12 -4 -15 4 -8 16 15 26 65 13
65 -6 0 -11 -9 -11 -19z"/>
<path d="M2653 744 c8 -8 115 -34 142 -34 31 0 4 16 -47 29 -51 12 -105 15
-95 5z"/>
<path d="M3166 735 c-3 -8 -1 -15 4 -15 6 0 10 7 10 15 0 8 -2 15 -4 15 -2 0
-6 -7 -10 -15z"/>
<path d="M2822 709 c2 -7 10 -15 17 -17 8 -3 12 1 9 9 -2 7 -10 15 -17 17 -8
3 -12 -1 -9 -9z"/>
<path d="M2947 703 c-4 -3 -7 -11 -7 -17 0 -6 5 -5 12 2 6 6 9 14 7 17 -3 3
-9 2 -12 -2z"/>
<path d="M2205 682 c-52 -8 -66 -14 -90 -40 -14 -15 -25 -34 -25 -42 0 -9 -5
-21 -11 -27 -9 -9 -9 -23 0 -58 11 -45 27 -73 90 -162 17 -24 27 -43 23 -43
-4 0 0 -5 8 -10 12 -8 10 -10 -8 -10 -13 0 -20 -4 -17 -10 3 -6 14 -10 23 -10
9 0 29 -7 44 -14 19 -10 30 -11 34 -4 4 6 23 8 45 5 22 -3 39 -1 39 4 0 5 -10
9 -22 10 -22 0 -22 1 6 22 16 12 51 40 77 62 26 22 69 56 94 75 l47 35 -6 55
c-4 43 -11 60 -31 78 -35 30 -97 29 -152 -2 l-41 -24 -12 29 c-15 35 -87 86
-115 81z"/>
<path d="M2842 658 c-30 -50 -60 -116 -67 -148 -5 -23 -3 -30 9 -30 9 0 17 5
17 10 7 55 57 158 81 168 4 2 8 10 8 18 0 25 -28 15 -48 -18z"/>
<path d="M3206 633 c-6 -14 -5 -15 5 -6 7 7 10 15 7 18 -3 3 -9 -2 -12 -12z"/>
<path d="M3345 639 c-4 -6 -5 -12 -2 -15 2 -3 7 2 10 11 7 17 1 20 -8 4z"/>
<path d="M2990 609 c0 -5 5 -7 10 -4 6 3 10 8 10 11 0 2 -4 4 -10 4 -5 0 -10
-5 -10 -11z"/>
<path d="M3280 486 c-15 -41 -10 -56 6 -17 8 18 13 36 10 39 -3 2 -10 -7 -16
-22z"/>
<path d="M2060 341 c0 -10 98 -36 107 -28 3 3 -19 13 -48 21 -62 19 -59 18
-59 7z"/>
<path d="M2782 321 c-9 -25 -8 -29 4 -24 8 3 14 9 14 13 0 5 3 15 6 24 3 9 2
16 -4 16 -6 0 -15 -13 -20 -29z"/>
<path d="M2837 344 c-4 -4 -7 -14 -7 -23 0 -11 3 -12 11 -4 6 6 10 16 7 23 -2
6 -7 8 -11 4z"/>
<path d="M2815 289 c-4 -6 -5 -12 -2 -15 2 -3 7 2 10 11 7 17 1 20 -8 4z"/>
<path d="M2233 183 c9 -2 23 -2 30 0 6 3 -1 5 -18 5 -16 0 -22 -2 -12 -5z"/>
<path d="M706 115 c-3 -8 -1 -15 4 -15 6 0 10 7 10 15 0 8 -2 15 -4 15 -2 0
-6 -7 -10 -15z"/>
<path d="M3915 70 c-38 -10 -128 -23 -200 -29 -71 -6 -148 -14 -170 -17 -22
-4 -141 -10 -265 -13 -169 -6 -96 -7 295 -7 l520 1 3 37 c3 33 0 37 -25 41
-46 9 -84 6 -158 -13z"/>
</g>
</svg>
