<?xml version="1.0" standalone="no"?>
<!DOCTYPE svg PUBLIC "-//W3C//DTD SVG 20010904//EN"
 "http://www.w3.org/TR/2001/REC-SVG-20010904/DTD/svg10.dtd">
<svg version="1.0" xmlns="http://www.w3.org/2000/svg"
 width="296.000000pt" height="106.000000pt" viewBox="0 0 296.000000 106.000000"
 preserveAspectRatio="xMidYMid meet">
<metadata>
Created by potrace 1.16, written by Peter Selinger 2001-2019
</metadata>
<g transform="translate(0.000000,106.000000) scale(0.100000,-0.100000)"
fill="#000000" stroke="none">
<path d="M309 1012 l-185 -2 -18 -41 c-12 -27 -19 -74 -22 -142 -2 -56 -9
-226 -15 -377 -6 -151 -12 -291 -13 -310 -1 -31 2 -35 29 -41 17 -4 102 -7
190 -8 89 0 239 -7 335 -15 199 -16 293 -15 315 4 8 7 15 25 15 40 0 15 7 41
15 57 13 25 16 94 18 389 2 256 7 367 15 388 15 34 2 50 -33 41 -11 -2 -49 0
-85 5 -77 11 -302 16 -561 12z m566 -464 c-4 -216 -8 -394 -9 -395 -1 -1 -38
4 -81 12 -51 9 -152 14 -276 15 -108 0 -237 3 -287 6 l-92 7 0 68 c0 37 5 71
10 74 6 3 10 36 10 73 1 37 5 99 10 137 5 39 12 136 16 217 l7 146 56 8 c79
10 277 20 474 22 l168 3 -6 -393z m-728 95 c-3 -10 -5 -4 -5 12 0 17 2 24 5
18 2 -7 2 -21 0 -30z"/>
<path d="M476 828 c-80 -47 -137 -170 -102 -223 18 -27 41 -31 80 -13 32 14
39 35 34 110 l-3 61 33 9 c37 10 111 -6 113 -25 1 -7 0 -20 -1 -31 -1 -10 4
-22 10 -26 44 -27 -67 -176 -225 -300 -82 -65 -88 -71 -76 -83 6 -6 25 -3 53
7 50 19 72 20 215 10 125 -8 133 -4 133 72 0 47 -3 54 -19 54 -11 0 -21 -5
-23 -10 -2 -6 -37 -14 -78 -19 -41 -5 -84 -12 -95 -16 -11 -4 29 40 89 99 117
115 139 152 125 214 -11 52 -38 82 -90 102 -79 32 -129 34 -173 8z"/>
<path d="M1144 1008 c-3 -4 5 -12 17 -18 29 -16 19 -21 -19 -11 -22 7 -34 6
-42 -4 -7 -8 -12 -88 -15 -212 -2 -109 -8 -297 -14 -418 -5 -121 -8 -222 -5
-224 2 -2 -1 -10 -7 -17 -14 -17 24 -38 51 -29 14 4 20 2 20 -9 0 -21 27 -20
38 1 9 16 26 16 233 4 484 -28 472 -28 500 -14 15 7 32 19 38 27 7 8 12 97 15
244 3 128 7 236 11 241 3 6 7 104 8 220 l3 209 -150 6 c-229 9 -677 12 -682 4z
m652 -73 c17 -1 36 -5 42 -9 5 -3 17 -3 26 0 14 5 16 -11 16 -142 0 -184 -17
-478 -29 -519 -5 -16 -12 -47 -16 -67 -6 -36 -7 -37 -38 -31 -35 7 -163 10
-242 4 -27 -1 -126 -2 -218 -2 l-169 1 2 143 c1 78 -2 169 -7 202 -8 61 -1
400 9 410 20 20 377 26 624 10z"/>
<path d="M1450 785 c-7 -8 -18 -15 -25 -15 -42 0 -135 -167 -135 -241 0 -27
41 -109 75 -150 28 -34 83 -65 128 -73 75 -14 187 65 202 141 8 42 -16 93 -61
133 -38 33 -44 51 -14 43 11 -3 33 0 50 7 22 9 31 21 36 47 8 42 -9 83 -34 83
-10 0 -22 4 -27 9 -11 11 -114 31 -156 31 -14 0 -32 -7 -39 -15z m134 -92 c-3
-37 -7 -70 -9 -74 -3 -3 -27 -9 -55 -11 -31 -3 -65 -15 -91 -33 l-42 -27 7 28
c18 71 93 166 141 177 54 13 55 12 49 -60z m-18 -135 c27 -44 16 -178 -17
-199 -27 -17 -65 -9 -102 22 -43 35 -46 55 -15 108 36 63 113 103 134 69z"/>
<path d="M2125 984 c-10 -8 -26 -12 -36 -9 -14 5 -16 -13 -18 -181 -2 -140 -7
-204 -21 -262 -21 -90 -35 -366 -21 -426 10 -42 27 -59 51 -50 34 12 351 15
455 4 133 -15 300 -13 338 3 43 19 49 67 30 232 -6 44 -7 85 -4 90 3 6 7 80 8
165 1 85 5 199 9 254 4 65 2 113 -6 142 -13 47 -21 52 -39 30 -11 -13 -15 -12
-32 5 -16 16 -28 19 -51 14 -35 -8 -592 -9 -623 -2 -11 3 -29 -1 -40 -9z m700
-106 c-10 -62 -19 -373 -16 -580 2 -176 2 -178 -19 -178 -12 0 -29 4 -38 9 -9
5 -59 6 -112 2 -61 -5 -100 -4 -108 3 -8 5 -59 12 -115 15 -90 5 -102 8 -99
24 4 22 -6 22 -40 -1 -20 -13 -39 -16 -85 -12 l-58 5 2 255 c2 191 7 271 19
318 8 34 12 71 9 82 -9 28 5 89 18 85 7 -3 107 -1 222 4 116 4 259 9 319 9
l109 2 -8 -42z"/>
<path d="M2479 763 c-23 -43 -47 -87 -53 -98 -30 -54 -70 -104 -111 -138 -34
-29 -45 -45 -45 -66 0 -17 7 -31 16 -35 28 -11 89 -6 108 9 23 17 35 18 55 6
12 -8 12 -21 1 -90 -13 -75 -12 -82 5 -101 24 -26 48 -25 81 4 27 23 28 25 16
75 -20 89 -19 93 31 86 34 -5 47 -3 70 15 35 28 39 85 6 95 -12 4 -26 2 -32
-4 -6 -6 -19 -11 -29 -11 -10 0 -18 -4 -18 -10 0 -5 -11 -10 -25 -10 -30 0
-30 3 -10 129 9 52 13 101 10 109 -3 7 0 22 6 33 7 15 7 24 -1 34 -6 7 -9 19
-8 26 2 7 -4 14 -13 16 -12 3 -29 -19 -60 -74z m18 -161 c-8 -107 -9 -110 -69
-114 -31 -2 -52 1 -55 8 -4 10 115 184 126 184 2 0 1 -35 -2 -78z"/>
</g>
</svg>
