<?xml version="1.0" standalone="no"?>
<!DOCTYPE svg PUBLIC "-//W3C//DTD SVG 20010904//EN"
 "http://www.w3.org/TR/2001/REC-SVG-20010904/DTD/svg10.dtd">
<svg version="1.0" xmlns="http://www.w3.org/2000/svg"
 width="344.000000pt" height="148.000000pt" viewBox="0 0 344.000000 148.000000"
 preserveAspectRatio="xMidYMid meet">
<metadata>
Created by potrace 1.16, written by Peter Selinger 2001-2019
</metadata>
<g transform="translate(0.000000,148.000000) scale(0.100000,-0.100000)"
fill="#000000" stroke="none">
<path d="M2475 1458 c-98 -13 -159 -17 -175 -11 -16 6 -135 1 -325 -13 -241
-17 -362 -21 -615 -18 -173 3 -358 0 -410 -4 -52 -5 -99 -6 -105 -2 -12 9
-753 -6 -776 -15 -24 -9 -29 -48 -29 -224 0 -112 -4 -161 -12 -169 -10 -10
-10 -15 -1 -20 18 -11 22 -408 8 -747 -6 -145 -4 -183 6 -197 12 -14 27 -15
119 -8 184 15 251 20 440 30 102 5 210 14 240 18 30 5 133 6 228 3 95 -3 176
-3 181 2 4 4 29 0 55 -9 30 -11 51 -13 57 -7 15 15 509 3 534 -12 23 -13 398
-4 540 14 88 11 163 12 358 4 71 -2 140 -2 153 1 l24 6 -7 164 c-3 90 -3 172
1 182 5 11 10 154 12 319 6 515 14 675 36 718 8 16 -4 17 -189 16 -132 -1
-248 -8 -348 -21z m390 -135 c-6 -71 -6 -76 8 -58 14 18 16 7 18 -125 2 -80 3
-221 2 -315 -1 -93 -1 -283 -2 -421 l-1 -251 -82 -8 c-109 -9 -730 -8 -737 2
-3 5 -103 8 -221 8 l-215 0 3 29 c3 18 0 26 -7 22 -6 -4 -11 -18 -11 -32 0
-23 -2 -24 -80 -24 -78 0 -81 1 -91 27 -7 18 -6 28 1 33 7 4 7 23 0 59 -10 54
-6 95 13 119 12 15 21 101 20 202 0 50 4 79 13 88 15 14 9 36 -7 27 -5 -4 -9
7 -9 22 0 16 -6 35 -12 42 -11 11 -10 13 5 8 18 -7 24 8 6 18 -6 4 -8 13 -5
21 3 8 -3 29 -14 47 -11 17 -20 40 -20 50 0 9 -4 17 -10 17 -5 0 -10 9 -10 20
0 11 -4 20 -9 20 -14 0 1 53 22 82 15 20 26 26 42 22 18 -4 23 0 28 23 3 15
11 42 17 58 11 27 13 28 19 11 7 -17 9 -16 19 13 10 29 10 32 -3 21 -31 -26
-14 2 23 37 20 19 31 32 25 29 -15 -8 -18 10 -3 19 6 3 10 17 10 31 0 23 3 24
63 25 34 0 85 2 114 3 61 3 68 -9 50 -85 -10 -41 -15 -49 -35 -49 -13 0 -20
-4 -17 -10 6 -10 -7 -14 -34 -10 -7 1 -30 -14 -50 -33 -20 -20 -66 -52 -104
-72 -68 -37 -112 -84 -69 -73 12 3 23 1 25 -5 5 -15 57 19 57 36 0 8 18 25 41
40 40 26 40 26 33 4 -7 -22 -36 -53 -56 -59 -6 -2 -9 -10 -7 -17 3 -9 17 -3
42 21 20 19 39 33 42 30 3 -3 13 2 22 10 19 16 53 31 53 22 0 -10 -43 -90 -61
-113 -11 -13 -19 -32 -19 -42 0 -11 -4 -19 -9 -19 -12 0 -44 -88 -38 -103 3
-7 -1 -24 -9 -38 -19 -34 -18 -60 1 -35 13 17 14 14 8 -32 -5 -48 -5 -51 16
-45 11 3 21 10 21 17 0 6 3 22 7 35 4 17 3 22 -5 17 -14 -9 -15 3 -2 24 7 11
10 11 10 2 0 -7 5 -10 10 -7 15 10 12 35 -5 35 -8 0 -15 4 -15 9 0 5 7 14 15
21 8 7 15 22 15 34 1 20 30 69 30 50 1 -14 29 39 30 55 0 8 -6 11 -15 7 -20
-7 -19 -4 15 54 17 28 30 59 30 70 0 19 33 31 90 35 31 1 240 -22 246 -28 7
-6 -52 -126 -72 -148 -9 -10 -24 -19 -32 -19 -12 0 -12 4 2 25 23 35 4 31 -27
-6 -22 -27 -31 -31 -81 -31 -52 -1 -56 -2 -56 -25 0 -28 -49 -78 -63 -64 -5 5
-17 1 -29 -11 -16 -16 -18 -22 -7 -28 7 -5 21 -4 31 1 18 10 18 7 -2 -31 -11
-23 -17 -46 -13 -53 16 -26 11 -68 -9 -76 -16 -6 -17 -9 -6 -18 7 -6 22 -13
33 -15 25 -5 23 -35 -5 -94 -25 -50 -41 -135 -29 -150 4 -5 6 -27 2 -47 -3
-23 -2 -37 5 -37 13 0 26 55 17 71 -4 6 -3 21 3 32 6 12 18 58 26 101 9 44 22
87 31 95 14 15 19 14 48 -3 18 -10 44 -25 60 -33 15 -8 27 -18 27 -22 0 -4 17
-5 37 -3 33 4 35 6 15 13 -12 5 -22 13 -22 19 0 5 -7 10 -15 10 -19 0 -85 32
-85 41 0 3 16 19 36 34 35 27 37 27 50 10 8 -10 14 -22 14 -27 0 -4 23 -10 50
-14 28 -4 50 -10 50 -14 0 -18 58 -17 103 2 36 16 53 31 68 59 10 21 19 44 19
51 0 8 9 21 20 31 18 15 23 15 52 1 31 -14 33 -19 34 -67 0 -48 -2 -54 -33
-74 -19 -13 -45 -26 -59 -29 -13 -3 -28 -12 -32 -19 -4 -8 -32 -17 -62 -21
-51 -7 -54 -6 -41 10 13 16 12 17 -15 10 -42 -10 -46 -14 -33 -30 9 -11 7 -14
-14 -14 -14 0 -29 -5 -32 -11 -5 -7 -22 -8 -49 -3 -22 4 -52 7 -66 6 -20 -1
-22 0 -10 8 13 9 13 10 0 10 -8 0 -25 3 -37 6 -14 4 -23 2 -23 -5 0 -17 67
-43 90 -36 11 3 41 -2 68 -11 51 -18 101 -13 72 7 -11 8 2 9 43 5 31 -4 57 -2
57 3 0 4 23 11 52 14 38 5 60 14 82 35 37 35 100 82 110 82 3 0 1 -9 -6 -20
-7 -11 -16 -20 -21 -20 -4 0 -35 -23 -68 -50 -50 -42 -67 -50 -100 -50 -24 0
-38 -4 -34 -10 6 -9 -34 -13 -148 -14 -15 -1 -25 -5 -24 -11 2 -5 24 -9 49 -7
26 2 49 -1 53 -7 3 -6 -1 -11 -9 -11 -9 0 -16 -4 -16 -10 0 -17 41 -11 76 11
19 11 34 27 34 34 0 10 9 12 35 8 29 -5 38 -1 60 25 14 17 32 29 39 26 8 -3
34 16 61 45 47 50 65 61 65 41 0 -5 -6 -9 -12 -7 -7 1 -12 -6 -12 -15 1 -10
-4 -18 -12 -18 -17 0 -19 -16 -3 -25 29 -18 77 73 64 123 -6 24 -8 25 -19 10
-11 -15 -14 -14 -26 17 -8 20 -17 31 -20 25 -6 -10 -170 145 -170 161 0 25 40
2 78 -47 24 -30 48 -52 53 -48 6 4 2 15 -10 28 -12 12 -21 30 -21 40 0 9 -4
15 -8 12 -5 -3 -14 11 -21 31 -9 24 -16 32 -23 25 -7 -7 -18 -6 -34 5 -22 14
-24 14 -24 -1 0 -20 2 -20 -45 4 -22 11 -56 20 -75 20 -20 0 -39 2 -42 5 -3 3
10 37 29 75 18 39 33 75 33 80 0 13 7 12 58 -5 24 -9 55 -16 70 -17 15 -1 39
-10 54 -20 14 -10 38 -18 51 -18 14 0 29 -4 32 -10 3 -5 -1 -10 -9 -10 -9 0
-13 -6 -10 -13 3 -8 -1 -33 -9 -55 -18 -52 -5 -56 16 -4 18 44 43 79 51 71 3
-3 -1 -38 -10 -79 -12 -58 -12 -75 -3 -81 7 -4 14 -25 15 -46 0 -21 4 -45 7
-53 3 -8 10 -28 16 -45 l11 -30 -4 30 c-2 17 -7 48 -11 70 -5 27 -4 37 2 30 6
-5 15 -50 22 -99 6 -50 15 -94 21 -100 7 -7 10 -6 10 4 0 7 3 10 7 7 3 -4 -1
-15 -9 -24 -17 -20 -31 -66 -17 -57 5 3 16 19 25 36 8 16 18 28 20 25 5 -5
-27 -78 -37 -87 -4 -3 -9 -27 -11 -54 -3 -26 -10 -51 -16 -55 -14 -8 -19 -55
-7 -61 6 -3 11 5 13 18 2 12 6 22 10 22 4 0 8 10 9 23 2 28 26 110 47 160 9
21 12 37 6 37 -5 0 -10 7 -10 15 0 8 -6 15 -14 15 -16 0 -20 15 -37 128 -13
93 -7 117 12 50 15 -48 49 -94 49 -65 0 8 -4 19 -10 22 -5 3 -10 18 -10 33 0
20 3 23 9 13 5 -8 7 -20 4 -28 -3 -7 -1 -13 5 -13 16 0 36 223 23 249 -9 17
-8 29 9 61 19 37 18 44 -2 41 -5 0 -8 5 -8 13 0 19 -25 27 -40 13 -9 -9 -11
-5 -5 22 7 32 6 34 -16 28 -13 -4 -27 -7 -31 -7 -5 0 -8 -7 -8 -16 0 -11 -6
-15 -20 -11 -11 3 -18 1 -14 -4 3 -5 2 -9 -3 -10 -4 0 -21 -2 -38 -4 l-30 -3
30 14 30 14 -35 -5 c-19 -2 -29 -2 -21 1 11 5 11 8 0 16 -10 7 -6 8 14 5 40
-6 33 10 -9 17 -19 4 -38 15 -41 24 -4 9 -15 23 -25 30 -17 12 -17 15 7 50 14
20 25 47 25 59 0 21 5 23 53 24 28 1 77 4 107 9 30 4 106 8 168 9 l114 1 -7
-77z m-535 47 c0 -5 -4 -10 -10 -10 -5 0 -10 5 -10 10 0 6 5 10 10 10 6 0 10
-4 10 -10z m-138 -40 c7 -48 -3 -54 -62 -43 -55 11 -154 -3 -200 -27 -33 -18
-33 -8 0 32 17 20 30 40 29 45 -1 4 -1 11 0 16 0 4 52 7 115 7 l114 0 4 -30z
m88 3 c0 -26 -1 -26 -14 -7 -11 14 -11 21 -3 26 17 11 17 11 17 -19z m-1135
-6 c-7 -17 -42 -29 -50 -17 -7 11 6 20 27 20 10 0 18 5 18 12 0 6 2 9 5 6 3
-3 3 -12 0 -21z m-438 0 c-10 -7 -57 -49 -104 -95 -47 -45 -88 -80 -91 -77 -3
2 30 37 72 77 42 39 75 77 72 84 -3 8 0 11 10 7 7 -3 14 0 14 6 0 6 10 11 23
10 20 0 21 -1 4 -12z m163 3 c0 -5 -4 -10 -9 -10 -6 0 -13 5 -16 10 -3 6 1 10
9 10 9 0 16 -4 16 -10z m114 3 c2 7 5 5 5 -5 1 -9 -3 -20 -9 -23 -5 -3 -10 -2
-10 3 0 6 -9 8 -20 5 -14 -4 -20 0 -20 11 0 12 5 14 24 6 17 -6 26 -5 30 3z
m-574 -7 c0 -2 -17 -14 -37 -26 -28 -16 -33 -17 -23 -5 8 10 23 21 35 25 25
11 25 11 25 6z m160 -11 c-21 -25 -107 -85 -121 -85 -18 0 29 43 70 64 17 9
29 21 26 26 -4 6 4 10 16 10 18 0 19 -2 9 -15z m189 -65 c-41 -38 -78 -73 -83
-77 -4 -4 -39 -42 -77 -83 -37 -41 -68 -72 -69 -69 -1 22 111 145 205 223 26
22 28 27 15 37 -13 10 -13 10 0 6 9 -3 29 6 45 19 59 47 36 12 -36 -56z m641
70 c0 -5 -4 -10 -10 -10 -5 0 -10 5 -10 10 0 6 5 10 10 10 6 0 10 -4 10 -10z
m-965 -19 c-3 -6 -11 -11 -17 -11 -6 0 -6 6 2 15 14 17 26 13 15 -4z m581 -19
c-11 -11 -16 -12 -16 -4 0 18 24 43 29 30 2 -5 -4 -17 -13 -26z m170 -11 c-11
-18 -36 -13 -36 7 0 10 3 22 7 26 10 10 37 -20 29 -33z m-629 -25 c-17 -25
-36 -45 -40 -45 -5 -1 -5 4 -2 9 12 20 -4 9 -38 -25 -19 -19 -41 -35 -48 -34
-8 0 -1 10 14 22 16 12 52 43 80 69 29 26 55 48 59 48 4 0 -7 -20 -25 -44z
m127 11 c-3 -7 -22 -25 -42 -42 l-36 -30 34 46 c19 26 38 45 42 43 4 -3 5 -10
2 -17z m419 -18 c3 -10 4 -19 2 -19 -7 0 -35 32 -35 40 0 17 28 -1 33 -21z
m882 0 c-4 -5 -13 -9 -21 -9 -8 0 -14 -7 -14 -15 0 -8 -4 -15 -10 -15 -19 0
-10 37 13 47 24 11 41 7 32 -8z m-1630 1 c-3 -5 -16 -15 -28 -21 -19 -9 -19
-8 3 10 28 23 34 26 25 11z m450 -10 c-10 -11 -21 -18 -23 -15 -3 3 3 12 14
20 27 20 30 18 9 -5z m160 10 c-3 -5 -1 -10 4 -10 6 0 11 -4 11 -10 0 -5 -7
-7 -15 -4 -9 4 -18 -2 -24 -17 -6 -14 -10 -17 -10 -9 -1 15 26 60 35 60 3 0 2
-4 -1 -10z m71 -17 c-10 -10 -19 5 -10 18 6 11 8 11 12 0 2 -7 1 -15 -2 -18z
m1149 -3 c3 -5 -1 -10 -9 -10 -9 0 -16 5 -16 10 0 6 4 10 9 10 6 0 13 -4 16
-10z m215 -6 c0 -2 -9 -4 -21 -4 -11 0 -18 4 -14 10 5 8 35 3 35 -6z m-2265
-14 c-1 -11 -9 -28 -18 -37 -15 -15 -16 -14 -13 8 4 44 34 71 31 29z m1770 10
c-3 -5 -11 -10 -16 -10 -6 0 -7 5 -4 10 3 6 11 10 16 10 6 0 7 -4 4 -10z
m-1112 -55 c-9 -28 -20 -59 -25 -70 -7 -18 -7 -17 -2 3 3 12 3 22 1 22 -5 0
-84 -106 -133 -178 -26 -38 -118 -101 -130 -89 -6 5 92 128 118 147 56 42 78
63 78 72 0 6 -8 4 -17 -4 -54 -46 -38 -21 37 59 47 49 86 89 87 89 1 -1 -5
-24 -14 -51z m-233 -5 c-29 -37 -50 -51 -50 -32 0 9 74 81 79 76 2 -2 -11 -21
-29 -44z m484 18 c-3 -4 0 -8 5 -8 6 0 11 -5 11 -11 0 -5 -4 -7 -10 -4 -5 3
-7 0 -5 -8 3 -7 1 -24 -4 -38 -8 -19 -10 -11 -10 41 -1 43 2 60 8 50 6 -8 7
-18 5 -22z m816 13 c0 -5 9 -7 20 -4 11 3 20 1 20 -5 0 -5 -10 -12 -22 -16
-33 -8 -40 -7 -33 4 3 6 1 10 -4 10 -6 0 -11 5 -11 10 0 6 7 10 15 10 8 0 15
-4 15 -9z m538 0 c24 -15 -10 -19 -38 -4 l-25 13 25 0 c14 0 31 -4 38 -9z
m-2200 -30 c-18 -16 -35 -27 -37 -25 -7 7 42 53 57 53 7 1 -2 -12 -20 -28z
m1617 20 c-13 -12 -99 -40 -104 -35 -8 8 33 32 45 27 7 -3 21 0 31 6 23 13 41
14 28 2z m262 3 c-3 -3 -12 -4 -19 -1 -8 3 -5 6 6 6 11 1 17 -2 13 -5z m-1712
-14 c-3 -5 -16 -15 -28 -21 -19 -9 -19 -8 3 10 28 23 34 26 25 11z m1768 3
c-7 -2 -19 -2 -25 0 -7 3 -2 5 12 5 14 0 19 -2 13 -5z m-186 -19 c-3 -3 -12
-4 -19 -1 -8 3 -5 6 6 6 11 1 17 -2 13 -5z m454 -3 c-8 -5 -20 -7 -28 -4 -21
8 -15 13 15 13 20 0 23 -3 13 -9z m148 -15 c-2 -2 -15 -7 -29 -10 l-25 -7 25
15 c21 12 42 14 29 2z m-1599 -62 c-18 -62 -25 -47 -9 16 7 29 15 47 17 40 2
-6 -1 -32 -8 -56z m-640 52 c0 -3 -4 -8 -10 -11 -5 -3 -10 -1 -10 4 0 6 5 11
10 11 6 0 10 -2 10 -4z m120 -13 c0 -4 -14 -20 -32 -35 -23 -20 -34 -24 -40
-15 -8 13 17 37 39 37 7 0 13 5 13 10 0 6 5 10 10 10 6 0 10 -3 10 -7z m66
-18 c-11 -8 -24 -15 -30 -15 -5 0 -1 7 10 15 10 8 24 14 29 14 6 0 1 -6 -9
-14z m1685 -12 c-12 -20 -14 -14 -5 12 4 9 9 14 11 11 3 -2 0 -13 -6 -23z
m-1891 -8 c-13 -14 -28 -25 -33 -25 -6 0 0 11 13 25 13 14 28 25 33 25 6 0 0
-11 -13 -25z m1130 15 c0 -5 -5 -10 -11 -10 -5 0 -7 5 -4 10 3 6 8 10 11 10 2
0 4 -4 4 -10z m-1220 -25 c-7 -9 -15 -13 -18 -10 -3 2 1 11 8 20 7 9 15 13 18
10 3 -2 -1 -11 -8 -20z m2420 -6 c-16 -28 -32 -24 -18 6 6 13 15 22 19 19 5
-3 4 -14 -1 -25z m-30 16 c0 -2 -10 -10 -22 -16 -21 -11 -22 -11 -9 4 13 16
31 23 31 12z m-1960 -8 c0 -2 -19 -21 -42 -42 l-43 -40 40 43 c36 39 45 47 45
39z m140 -31 c0 -21 -26 -43 -37 -32 -4 4 28 55 35 56 1 0 2 -11 2 -24z m607
2 c-3 -8 -6 -5 -6 6 -1 11 2 17 5 13 3 -3 4 -12 1 -19z m-1162 -22 c-14 -19
-43 -45 -64 -59 -23 -15 -42 -38 -48 -58 l-11 -34 -1 30 c-1 24 9 41 47 76 41
41 90 79 100 79 2 0 -9 -15 -23 -34z m836 -9 c-8 -8 -11 -3 -11 19 1 25 2 27
11 11 8 -14 8 -22 0 -30z m-944 11 c-3 -8 -6 -5 -6 6 -1 11 2 17 5 13 3 -3 4
-12 1 -19z m2500 -10 c1 -13 -3 -52 -9 -88 -8 -49 -13 -59 -19 -43 -4 12 -2
37 6 59 19 53 19 75 0 50 -8 -11 -15 -33 -15 -49 0 -24 -2 -27 -14 -18 -13 11
-14 4 -9 -43 4 -36 2 -56 -5 -56 -17 0 -19 81 -4 142 12 49 18 57 41 61 14 2
26 5 26 6 1 0 1 -9 2 -21z m-2266 -2 c-9 -10 -9 -15 -1 -18 7 -2 1 -12 -12
-23 -18 -16 -20 -16 -9 -2 19 25 5 34 -19 12 -11 -10 -22 -16 -25 -13 -3 3 12
17 32 31 42 30 51 33 34 13z m2308 -43 l-1 -58 -10 42 c-10 38 -6 73 7 73 3 0
4 -26 4 -57z m-1924 -17 c-9 -14 -25 -28 -36 -31 -11 -4 -16 -11 -13 -18 4 -7
4 -9 -1 -5 -4 4 -14 3 -21 -3 -7 -6 -14 -6 -18 -1 -3 6 1 15 9 22 7 6 12 17 9
25 -3 7 0 16 7 21 9 5 10 2 6 -9 -3 -10 -4 -17 -1 -17 13 0 64 35 64 44 0 5 3
7 6 4 3 -4 -2 -18 -11 -32z m319 28 c25 -9 19 -24 -9 -24 -24 0 -32 10 -18 23
8 8 8 8 27 1z m1081 -14 c-10 -11 -20 -18 -23 -15 -7 6 18 35 31 35 5 0 2 -9
-8 -20z m-798 -27 c-3 -10 -5 -4 -5 12 0 17 2 24 5 18 2 -7 2 -21 0 -30z m70
15 c-3 -8 -6 -5 -6 6 -1 11 2 17 5 13 3 -3 4 -12 1 -19z m-987 -29 c-25 -22
-44 -46 -42 -54 1 -7 -6 -19 -16 -27 -10 -7 -38 -42 -62 -78 -24 -36 -54 -78
-67 -93 -13 -16 -20 -34 -17 -39 5 -7 2 -8 -5 -3 -14 8 -93 -73 -88 -90 8 -22
39 -7 92 44 30 29 55 50 55 46 0 -4 7 -2 15 5 8 6 19 8 26 4 8 -4 2 -12 -17
-22 -16 -8 -24 -17 -17 -19 16 -6 64 27 57 38 -3 5 1 9 9 9 8 0 20 7 28 16 12
15 81 54 95 54 3 0 1 -7 -6 -15 -7 -8 -9 -15 -6 -15 4 0 0 -7 -8 -16 -9 -8
-16 -23 -16 -32 0 -10 -9 -23 -21 -30 -12 -7 -18 -16 -15 -19 11 -11 -41 -42
-61 -37 -14 4 -26 -2 -40 -19 -20 -25 -72 -50 -58 -27 6 9 3 9 -13 1 -29 -15
-36 -41 -11 -41 18 0 16 -5 -16 -47 -28 -37 -34 -53 -30 -74 4 -18 1 -30 -8
-36 -31 -18 -46 -77 -31 -117 10 -26 32 -19 50 15 l16 32 23 -27 c29 -34 39
-33 21 2 -21 41 -52 66 -73 58 -17 -7 -17 -6 0 11 11 11 20 14 25 8 13 -19 27
-13 28 11 1 16 -2 21 -10 17 -6 -4 0 7 14 24 14 18 34 32 45 33 27 1 70 26 58
33 -5 3 -15 2 -23 -4 -8 -5 -19 -9 -25 -9 -16 0 40 48 61 52 10 2 19 11 19 21
0 23 29 40 54 32 14 -4 21 0 26 15 3 11 16 22 29 26 26 6 54 44 34 44 -23 1
25 30 49 30 25 0 30 -19 12 -37 -9 -9 -7 -12 9 -10 11 0 19 4 16 8 -2 5 11 20
31 36 40 32 48 59 13 48 -42 -13 -84 -17 -69 -7 7 5 11 14 8 18 -3 5 17 25 44
44 50 36 62 60 32 61 -13 0 -11 3 6 10 18 7 27 6 34 -3 6 -9 7 -8 3 4 -3 11 2
19 15 23 10 4 19 11 19 16 0 11 -3 11 -34 -1 -26 -9 -26 -9 -10 15 9 14 22 25
30 25 8 0 11 6 7 17 -4 11 -3 14 5 9 8 -4 12 0 12 11 0 10 7 27 15 37 8 11 15
18 15 15 0 -21 -54 -197 -64 -209 -7 -8 -18 -35 -25 -60 -6 -25 -19 -63 -29
-84 -12 -30 -14 -40 -4 -44 18 -6 14 -32 -5 -32 -20 -1 -104 -38 -88 -39 6 -1
26 3 44 9 46 13 52 5 10 -14 -35 -15 -25 -21 29 -16 12 1 22 -3 22 -9 0 -6
-25 -8 -65 -5 -81 6 -108 -8 -196 -106 -98 -110 -119 -153 -77 -163 25 -7 63
29 84 80 18 41 44 73 61 73 17 0 16 -7 -7 -55 -11 -22 -19 -46 -20 -54 0 -7
-6 -11 -15 -7 -10 3 -20 -6 -31 -29 -27 -58 -54 -67 -224 -69 l-55 -1 1 100
c0 55 2 118 4 140 3 35 3 125 0 278 0 39 3 47 17 47 10 0 28 15 41 34 17 24
29 32 42 29 12 -3 32 5 52 22 109 91 145 137 57 72 -40 -30 -42 -30 -24 -6 22
30 145 129 159 129 6 0 -10 -18 -34 -41z m970 10 c0 -5 -4 -9 -10 -9 -5 0 -10
7 -10 16 0 8 5 12 10 9 6 -3 10 -10 10 -16z m-1150 -9 c0 -5 -5 -10 -11 -10
-5 0 -7 5 -4 10 3 6 8 10 11 10 2 0 4 -4 4 -10z m588 -15 c-6 -14 -13 -24 -14
-22 -6 6 9 47 17 47 5 0 3 -11 -3 -25z m69 3 c-3 -8 -6 -5 -6 6 -1 11 2 17 5
13 3 -3 4 -12 1 -19z m1743 -6 c0 -15 -2 -15 -10 -2 -13 20 -13 33 0 25 6 -3
10 -14 10 -23z m-2487 -27 c-20 -25 -39 -45 -41 -45 -3 0 1 7 8 15 6 8 9 19 5
24 -5 8 48 51 63 51 2 0 -14 -20 -35 -45z m696 -9 c-6 -26 -13 -45 -16 -43 -2
3 1 26 8 51 6 26 13 45 16 43 2 -3 -1 -26 -8 -51z m-594 0 c-16 -11 -40 -31
-52 -43 -13 -13 -30 -23 -38 -23 -8 0 -21 -10 -29 -22 -12 -17 -16 -18 -16 -6
0 8 10 23 23 31 17 13 19 18 8 25 -8 6 -9 12 -3 16 6 3 12 1 14 -5 2 -6 17 2
33 19 41 40 67 54 80 40 7 -7 0 -17 -20 -32z m219 32 c-32 -53 -72 -96 -114
-125 -47 -32 -46 -29 33 51 83 86 94 96 81 74z m776 -4 c0 -8 -5 -12 -10 -9
-6 4 -8 11 -5 16 9 14 15 11 15 -7z m461 -15 c-5 -13 -14 -40 -19 -59 -10 -34
-10 -34 -11 -7 -1 16 6 44 15 63 18 38 30 40 15 3z m-681 12 c0 -13 -29 -35
-37 -28 -7 8 15 37 28 37 5 0 9 -4 9 -9z m301 -28 c-9 -16 -10 -14 -11 12 0
21 3 26 11 18 8 -8 8 -16 0 -30z m854 17 c-3 -5 -22 -12 -43 -15 -20 -3 -45
-11 -55 -16 -27 -15 -33 -3 -12 21 13 15 31 20 67 20 29 0 47 -4 43 -10z m125
0 c12 -8 11 -10 -7 -10 -13 0 -23 5 -23 10 0 13 11 13 30 0z m-330 -24 c0 -19
-8 -27 -35 -36 -32 -11 -50 -40 -24 -40 19 0 -2 -20 -42 -39 -29 -14 -39 -16
-39 -6 0 7 7 18 15 25 8 7 15 25 15 40 0 24 8 32 52 54 29 14 53 26 55 26 2 0
3 -11 3 -24z m40 20 c0 -2 -8 -10 -17 -17 -16 -13 -17 -12 -4 4 13 16 21 21
21 13z m233 -3 c-7 -2 -19 -2 -25 0 -7 3 -2 5 12 5 14 0 19 -2 13 -5z m-1763
-10 c0 -10 -32 -43 -42 -43 -5 0 -1 11 9 25 17 23 33 32 33 18z m2131 -40 c-9
-16 -10 -16 -11 -1 0 9 3 25 7 35 7 16 8 17 11 1 2 -10 -1 -25 -7 -35z m-1559
15 c-7 -7 -12 -8 -12 -2 0 14 12 26 19 19 2 -3 -1 -11 -7 -17z m-457 -8 c-3
-5 -11 -10 -16 -10 -6 0 -7 5 -4 10 3 6 11 10 16 10 6 0 7 -4 4 -10z m842 -37
c-11 -10 -26 8 -20 23 5 15 7 14 15 -1 6 -9 7 -19 5 -22z m-918 6 c-7 -14 -17
-19 -30 -16 -11 3 -19 0 -19 -6 0 -7 -14 -20 -30 -29 -35 -20 -39 -10 -7 19
22 21 76 52 90 53 4 0 3 -9 -4 -21z m488 12 c16 14 16 11 2 -32 -10 -33 -15
-45 -38 -103 -9 -21 -9 -31 -1 -36 6 -4 8 -14 4 -23 -4 -12 -1 -17 10 -17 9 0
16 8 16 19 0 30 20 79 36 85 11 4 13 -1 8 -22 -4 -15 -11 -32 -16 -39 -11 -14
7 -27 23 -17 14 8 1 -38 -13 -47 -6 -4 -2 -38 11 -90 11 -46 20 -70 20 -54 -2
62 4 68 11 13 9 -71 22 -88 67 -88 l35 0 -3 -52 c-2 -52 2 -74 22 -111 13 -24
9 -28 -19 -20 -13 3 -23 14 -23 27 -2 20 -2 20 -6 -1 -4 -19 -11 -23 -38 -23
-32 0 -34 2 -40 44 -4 25 -5 49 -1 54 3 5 -8 19 -24 31 -17 12 -30 27 -30 34
0 14 -60 140 -70 147 -4 3 -10 24 -14 48 -5 33 -3 44 9 48 8 4 15 15 15 25 0
11 -5 16 -13 13 -22 -8 -9 102 17 142 9 12 13 31 9 41 -5 15 -3 16 7 6 10 -9
17 -10 27 -2z m-767 -4 c0 -2 -10 -12 -21 -23 -22 -19 -22 -19 -10 4 10 18 31
31 31 19z m820 -19 c0 -18 -2 -20 -9 -8 -6 8 -7 18 -5 22 9 14 14 9 14 -14z
m79 -33 c0 -26 -2 -27 -9 -10 -5 11 -9 31 -9 45 -1 20 1 22 9 10 5 -8 9 -28 9
-45z m-218 22 c-10 -9 -11 -8 -5 6 3 10 9 15 12 12 3 -3 0 -11 -7 -18z m394
-30 c4 -17 8 -50 10 -72 1 -22 5 -50 9 -62 4 -13 5 -23 2 -23 -2 0 -12 23 -21
50 -10 29 -23 50 -31 50 -8 0 -14 9 -14 20 0 11 4 20 9 20 6 0 7 17 4 38 -6
32 -4 35 9 24 9 -7 19 -27 23 -45z m-548 21 c-3 -8 -6 -5 -6 6 -1 11 2 17 5
13 3 -3 4 -12 1 -19z m40 -10 c-3 -7 -5 -2 -5 12 0 14 2 19 5 13 2 -7 2 -19 0
-25z m1410 -15 c1 -60 -21 -106 -47 -98 -10 3 -21 1 -25 -5 -11 -18 -53 -11
-84 16 -33 28 -41 54 -15 54 17 0 38 18 47 40 5 13 6 13 6 -1 1 -8 -6 -24 -14
-35 -19 -25 -19 -50 1 -58 19 -7 47 12 38 26 -4 6 1 6 13 0 46 -25 78 11 53
58 -11 21 -3 50 14 50 7 0 12 -19 13 -47z m-2072 -3 c-16 -16 -31 -28 -33 -25
-4 4 48 54 57 55 3 0 -8 -13 -24 -30z m413 0 c10 -1 2 -9 -18 -20 -19 -11 -31
-19 -26 -20 12 0 -24 -40 -37 -40 -5 0 -5 6 2 13 6 8 8 16 5 20 -3 3 7 20 22
37 16 17 30 27 32 21 2 -6 11 -11 20 -11z m830 -68 c17 -30 8 -40 -14 -18 -9
10 -18 38 -20 64 l-4 47 13 -35 c7 -19 18 -46 25 -58z m593 44 c2 -24 1 -42
-3 -40 -4 3 -21 -10 -38 -27 -34 -37 -50 -32 -30 8 7 16 14 33 16 40 3 15 37
62 45 63 4 0 9 -20 10 -44z m-1054 -18 c-3 -7 -5 -2 -5 12 0 14 2 19 5 13 2
-7 2 -19 0 -25z m293 22 c0 -5 -4 -10 -10 -10 -5 0 -10 5 -10 10 0 6 5 10 10
10 6 0 10 -4 10 -10z m1040 -15 c0 -8 -4 -15 -10 -15 -5 0 -7 7 -4 15 4 8 8
15 10 15 2 0 4 -7 4 -15z m-1379 -42 c-12 -20 -14 -14 -5 12 4 9 9 14 11 11 3
-2 0 -13 -6 -23z m-351 13 c0 -2 -8 -10 -17 -17 -16 -13 -17 -12 -4 4 13 16
21 21 21 13z m1955 -35 c-10 -16 -25 -3 -25 22 0 20 1 20 16 5 9 -9 13 -21 9
-27z m-2185 19 c0 -5 -8 -10 -17 -10 -15 0 -16 2 -3 10 19 12 20 12 20 0z
m950 1 c0 -5 3 -18 6 -28 5 -16 4 -16 -10 1 -18 23 -20 36 -6 36 6 0 10 -4 10
-9z m37 -13 c-3 -8 -6 -5 -6 6 -1 11 2 17 5 13 3 -3 4 -12 1 -19z m70 -30 c-3
-8 -6 -5 -6 6 -1 11 2 17 5 13 3 -3 4 -12 1 -19z m-643 -35 c-11 -75 -25 -97
-18 -28 6 60 11 75 20 75 3 0 2 -21 -2 -47z m198 -3 c4 0 8 -4 8 -10 0 -5 -7
-10 -15 -10 -8 0 -15 7 -15 15 0 8 -4 15 -10 15 -5 0 -6 8 -3 17 6 15 8 14 16
-5 6 -12 14 -22 19 -22z m478 -24 c-1 -20 -2 -20 -15 4 -19 33 -19 46 0 30 8
-7 15 -22 15 -34z m-75 1 c1 -14 5 -30 9 -34 5 -4 6 2 3 14 -3 13 0 26 5 29 7
5 8 -9 4 -41 -5 -30 -4 -45 2 -41 6 3 17 0 25 -8 8 -8 18 -12 22 -8 5 4 5 -1
2 -11 -4 -10 -7 -43 -7 -73 0 -30 -4 -54 -8 -54 -4 0 -13 21 -20 48 -7 26 -22
70 -32 97 -27 69 -34 118 -18 113 7 -3 13 -16 13 -31z m-861 9 c-6 -16 -48
-46 -64 -46 -5 0 -10 5 -10 11 0 5 4 8 9 4 5 -3 12 -1 15 4 4 5 1 11 -6 14 -7
2 -5 3 4 2 9 -2 25 3 35 11 23 17 24 17 17 0z m666 -26 c22 0 28 -16 36 -88 4
-42 3 -53 -5 -42 -6 8 -11 29 -11 47 0 23 -9 40 -31 61 -24 23 -30 34 -24 48
8 17 9 17 12 -3 3 -14 12 -23 23 -23z m330 -10 c-6 -19 -10 -48 -10 -65 0 -16
-5 -37 -11 -45 -8 -11 -9 -2 -5 35 11 95 18 127 27 118 5 -5 5 -24 -1 -43z
m-271 -12 c1 -5 -3 -8 -9 -8 -5 0 -10 12 -9 28 0 24 1 25 9 7 5 -11 9 -23 9
-27z m-252 0 c-3 -8 -6 -5 -6 6 -1 11 2 17 5 13 3 -3 4 -12 1 -19z m-140 -30
c-3 -7 -5 -2 -5 12 0 14 2 19 5 13 2 -7 2 -19 0 -25z m471 -122 c18 -32 32
-73 32 -92 0 -50 20 -42 21 9 1 40 2 38 11 -18 5 -33 14 -65 20 -72 7 -9 6
-14 -5 -19 -24 -9 -52 0 -52 16 -2 31 -18 90 -26 96 -5 3 -7 9 -4 14 8 13 -25
81 -36 74 -6 -3 -10 0 -8 7 1 8 1 25 -1 39 -1 23 -2 24 -11 5 -8 -17 -9 -16
-6 7 2 15 -1 29 -6 31 -6 2 -7 9 -3 16 5 8 13 1 25 -21 10 -18 32 -59 49 -92z
m-948 101 c0 -2 -12 -14 -26 -28 l-27 -24 18 28 c14 22 35 36 35 24z m610 -30
c0 -13 -7 -32 -15 -43 -14 -18 -15 -17 -9 11 12 60 24 76 24 32z m-370 -11 c0
-3 -4 -8 -10 -11 -5 -3 -10 -1 -10 4 0 6 5 11 10 11 6 0 10 -2 10 -4z m108
-108 c16 3 15 -16 -3 -68 -18 -52 -19 -90 -2 -90 6 -1 1 -7 -13 -15 -34 -19
-259 -21 -256 -3 4 26 27 58 41 58 8 0 15 9 15 19 0 27 20 31 42 9 10 -10 28
-18 41 -18 12 0 31 -7 41 -15 11 -8 28 -15 39 -15 17 0 17 2 -5 29 -13 15 -29
26 -36 23 -19 -7 -52 28 -52 55 0 26 -17 31 -26 8 -4 -8 -11 -15 -17 -15 -6 0
0 11 13 25 13 14 29 25 36 25 6 0 17 7 24 15 15 17 7 19 -21 5 -10 -6 -19 -7
-19 -2 0 5 30 24 68 43 l67 34 5 -55 c3 -37 9 -54 18 -52z m469 90 c-3 -8 -6
-5 -6 6 -1 11 2 17 5 13 3 -3 4 -12 1 -19z m-631 -3 c-11 -8 -22 -12 -25 -9
-6 6 19 24 34 24 6 -1 1 -7 -9 -15z m498 -50 l5 -20 -15 20 c-9 11 -18 19 -22
18 -4 -1 -8 10 -9 25 l-1 26 18 -24 c11 -14 21 -34 24 -45z m-217 13 c-3 -8
-6 -5 -6 6 -1 11 2 17 5 13 3 -3 4 -12 1 -19z m-309 -6 c2 -7 -2 -10 -12 -6
-9 3 -16 11 -16 16 0 13 23 5 28 -10z m-48 -22 c0 -5 -5 -10 -11 -10 -5 0 -7
5 -4 10 3 6 8 10 11 10 2 0 4 -4 4 -10z m974 -84 c3 -30 9 -61 12 -70 4 -10 1
-16 -9 -16 -14 0 -27 56 -27 116 0 46 17 23 24 -30z m-707 -8 c-3 -8 -6 -5 -6
6 -1 11 2 17 5 13 3 -3 4 -12 1 -19z m-347 -12 c0 -2 -7 -9 -15 -16 -13 -11
-14 -10 -9 4 5 14 24 23 24 12z m437 -18 c-3 -8 -6 -5 -6 6 -1 11 2 17 5 13 3
-3 4 -12 1 -19z"/>
<path d="M2826 1359 c-3 -13 -7 -76 -9 -139 l-4 -115 13 65 c14 72 21 197 11
206 -3 4 -8 -4 -11 -17z"/>
<path d="M1815 1300 c-3 -5 -1 -10 4 -10 6 0 11 5 11 10 0 6 -2 10 -4 10 -3 0
-8 -4 -11 -10z"/>
<path d="M2040 1078 c-12 -13 -36 -47 -52 -75 -30 -53 -39 -58 -86 -45 l-22 7
26 38 c14 21 23 42 19 45 -7 7 -20 -8 -47 -57 -10 -17 -28 -35 -40 -40 -21 -8
-21 -10 -5 -16 10 -4 23 -3 28 2 6 6 29 7 55 3 39 -6 46 -4 56 14 6 12 31 47
55 79 46 59 54 88 13 45z"/>
<path d="M1971 1061 c-17 -16 -31 -35 -31 -42 0 -6 16 5 36 25 44 45 40 59 -5
17z"/>
<path d="M1813 889 c-32 -12 -28 -17 12 -16 19 1 31 3 27 7 -4 3 -9 8 -12 11
-3 4 -15 3 -27 -2z"/>
<path d="M2665 787 c-7 -28 -10 -114 -5 -165 2 -21 7 -29 13 -23 9 9 12 199 3
208 -3 3 -8 -6 -11 -20z m2 -109 c-3 -8 -6 -5 -6 6 -1 11 2 17 5 13 3 -3 4
-12 1 -19z"/>
<path d="M2725 760 c3 -5 8 -10 11 -10 2 0 4 5 4 10 0 6 -5 10 -11 10 -5 0 -7
-4 -4 -10z"/>
<path d="M2480 738 c0 -9 5 -20 10 -23 13 -8 13 5 0 25 -8 13 -10 13 -10 -2z"/>
<path d="M1732 689 c-15 -24 -15 -42 0 -37 14 5 30 46 20 52 -5 3 -13 -4 -20
-15z"/>
<path d="M1551 634 c0 -11 3 -14 6 -6 3 7 2 16 -1 19 -3 4 -6 -2 -5 -13z"/>
<path d="M1660 576 c0 -8 5 -18 10 -21 6 -3 10 1 10 9 0 8 -4 18 -10 21 -5 3
-10 -1 -10 -9z"/>
<path d="M2652 525 c-8 -27 -20 -57 -27 -65 -18 -20 -38 -73 -25 -65 14 8 13
-5 -5 -54 -9 -28 -11 -49 -5 -64 8 -20 9 -19 9 10 1 18 10 56 21 84 12 28 18
54 15 57 -3 3 -5 0 -5 -6 0 -7 -4 -12 -10 -12 -6 0 -5 10 2 25 6 13 14 22 18
20 13 -8 32 51 28 86 -3 33 -3 33 -16 -16z"/>
<path d="M1590 448 c0 -36 14 -87 21 -82 5 3 9 -16 9 -41 0 -25 4 -44 9 -41
13 9 7 101 -7 99 -8 -2 -12 11 -12 37 0 22 -4 40 -10 40 -5 0 -10 -6 -10 -12z"/>
<path d="M1980 439 c0 -5 3 -10 8 -10 44 -7 68 -7 81 1 14 8 13 10 -4 11 -11
1 -35 2 -52 4 -18 1 -33 -1 -33 -6z"/>
<path d="M2325 409 c-11 -17 1 -21 15 -4 8 9 8 15 2 15 -6 0 -14 -5 -17 -11z"/>
<path d="M2075 392 c-8 -9 6 -22 24 -22 9 0 25 6 35 13 16 12 14 13 -18 13
-20 0 -39 -2 -41 -4z"/>
<path d="M1570 366 c0 -14 5 -28 10 -31 6 -3 10 5 10 19 0 14 -4 28 -10 31 -6
3 -10 -5 -10 -19z"/>
<path d="M1547 343 c-9 -14 2 -91 14 -99 10 -6 10 49 0 86 -4 16 -9 21 -14 13z"/>
<path d="M1643 264 c-3 -8 -1 -25 5 -37 10 -20 11 -18 11 16 1 39 -5 48 -16
21z"/>
<path d="M2606 255 c-3 -9 -10 -13 -16 -10 -6 3 -7 -1 -4 -9 9 -22 21 -20 29
5 8 24 0 37 -9 14z"/>
<path d="M2540 230 c-6 -11 -8 -20 -6 -20 3 0 10 9 16 20 6 11 8 20 6 20 -3 0
-10 -9 -16 -20z"/>
<path d="M2507 233 c-2 -5 -7 -20 -11 -35 -5 -21 -3 -28 9 -28 11 0 15 10 15
35 0 34 -4 43 -13 28z"/>
<path d="M275 540 c-3 -5 -1 -10 4 -10 6 0 11 5 11 10 0 6 -2 10 -4 10 -3 0
-8 -4 -11 -10z"/>
<path d="M510 535 c-10 -12 -10 -21 -2 -38 8 -16 11 -18 11 -5 1 9 6 18 13 20
8 3 8 9 1 22 -9 16 -11 16 -23 1z"/>
<path d="M135 441 c-15 -22 -25 -44 -24 -49 2 -4 18 13 36 40 38 57 28 65 -12
9z"/>
<path d="M181 174 c0 -11 3 -14 6 -6 3 7 2 16 -1 19 -3 4 -6 -2 -5 -13z"/>
<path d="M983 558 c25 -105 43 -156 57 -170 10 -9 21 -14 24 -10 4 3 4 -1 1
-9 -6 -16 12 -75 20 -67 9 9 -8 97 -18 95 -13 -2 -47 88 -47 125 0 15 -7 34
-16 42 -21 22 -27 20 -21 -6z"/>
<path d="M1107 273 c-11 -10 -8 -81 3 -88 6 -3 13 2 16 12 3 10 9 25 14 34 9
18 -20 55 -33 42z"/>
<path d="M2130 650 c-9 -6 -10 -10 -3 -10 6 0 15 5 18 10 8 12 4 12 -15 0z"/>
<path d="M595 330 c-12 -19 -14 -70 -4 -70 6 0 19 -10 30 -22 15 -19 18 -20
19 -6 0 9 -4 20 -10 23 -5 3 -10 21 -10 40 0 35 -14 54 -25 35z"/>
<path d="M3368 748 c-2 -403 -2 -737 0 -741 16 -35 21 96 28 741 6 659 5 732
-9 732 -14 0 -16 -77 -19 -732z"/>
</g>
</svg>
