<?xml version="1.0" standalone="no"?>
<!DOCTYPE svg PUBLIC "-//W3C//DTD SVG 20010904//EN"
 "http://www.w3.org/TR/2001/REC-SVG-20010904/DTD/svg10.dtd">
<svg version="1.0" xmlns="http://www.w3.org/2000/svg"
 width="190.000000pt" height="192.000000pt" viewBox="0 0 190.000000 192.000000"
 preserveAspectRatio="xMidYMid meet">
<metadata>
Created by potrace 1.16, written by Peter Selinger 2001-2019
</metadata>
<g transform="translate(0.000000,192.000000) scale(0.100000,-0.100000)"
fill="#000000" stroke="none">
<path d="M760 1904 c-144 -13 -714 -26 -737 -17 -7 3 -10 9 -7 14 3 5 1 9 -4
9 -9 0 -7 -64 8 -229 6 -58 10 -262 10 -455 0 -193 5 -389 10 -436 11 -86 15
-678 6 -687 -12 -12 16 -41 46 -48 54 -11 487 -7 554 6 35 7 69 9 80 4 11 -5
67 -9 126 -11 59 -1 124 -5 144 -9 31 -5 36 -4 30 10 -5 13 2 16 47 15 232 -2
277 0 277 9 0 7 25 11 60 11 33 0 60 4 60 8 0 5 48 9 108 9 137 0 216 10 242
31 20 16 21 29 26 337 4 281 4 627 0 1245 -1 96 -5 181 -9 188 -11 17 -875 14
-1077 -4z m993 -10 c-2 -6 7 -28 22 -49 18 -28 24 -48 22 -74 l-4 -36 -74 -1
c-41 -1 -104 -5 -141 -8 -66 -6 -130 7 -112 23 17 15 91 31 142 31 28 0 61 4
75 9 13 5 29 6 36 2 18 -11 61 -1 61 14 0 19 -43 26 -97 16 -47 -10 -184 -24
-233 -25 -22 -1 -25 -6 -28 -40 -2 -21 2 -44 8 -50 7 -7 69 -11 180 -11 92 0
171 -3 175 -7 8 -8 9 -168 1 -176 -3 -3 -29 -6 -58 -8 -161 -9 -303 -14 -380
-14 l-87 0 -15 -31 c-13 -27 -14 -46 -5 -125 8 -72 6 -148 -6 -326 -15 -225
-13 -419 6 -449 6 -11 20 -10 76 4 37 10 82 17 98 16 17 0 107 2 202 6 l171 6
4 -61 3 -62 -66 -44 c-37 -24 -85 -50 -107 -58 -34 -12 -314 -34 -349 -28 -20
4 -24 -17 -5 -27 12 -7 41 -7 83 -1 89 13 228 17 222 7 -3 -5 4 -4 15 2 11 6
30 11 42 11 12 0 24 8 27 17 4 16 120 103 136 103 4 0 7 -53 7 -119 0 -92 -3
-121 -15 -131 -9 -8 -61 -13 -144 -15 -72 -2 -136 -7 -142 -10 -6 -4 -108 -11
-227 -15 -119 -5 -226 -11 -237 -13 -55 -12 -156 -19 -440 -28 -171 -5 -341
-12 -380 -15 -56 -4 -74 -2 -90 11 -19 16 -20 23 -11 87 7 51 7 74 -2 89 -7
11 -12 54 -12 107 1 48 -4 204 -9 347 -6 143 -10 437 -9 653 l1 394 26 10 c37
15 119 20 141 8 11 -6 28 -6 47 0 27 9 86 15 463 45 96 7 182 16 190 19 8 3
67 7 130 10 131 7 304 18 307 20 1 0 84 1 186 1 132 0 183 -3 180 -11z m37
-485 l0 -70 -29 20 c-16 12 -33 21 -38 21 -4 -1 -26 -18 -47 -40 l-40 -38 12
-52 c6 -28 21 -60 31 -72 22 -23 69 -32 88 -16 7 6 13 9 14 7 6 -33 2 -89 -7
-89 -14 0 -45 -44 -78 -109 -15 -29 -32 -51 -39 -48 -16 5 -35 64 -48 151 -16
104 -22 116 -62 116 -42 0 -82 -30 -92 -67 -3 -16 -19 -55 -35 -88 -31 -65
-62 -156 -59 -171 4 -22 -2 -33 -16 -28 -21 8 -21 -73 0 -103 14 -20 19 -21
225 -15 l210 5 0 -45 c0 -43 -2 -46 -32 -52 -18 -4 -118 -9 -223 -12 -104 -3
-204 -9 -222 -14 -32 -8 -32 -8 -37 33 -13 109 -14 168 -3 232 7 42 12 174 12
327 l0 258 35 2 c19 0 60 3 90 4 30 2 115 5 188 7 73 2 135 7 139 11 3 3 19 6
35 6 l28 0 0 -71z m-24 -90 c19 -16 19 -113 -1 -129 -8 -7 -26 -9 -44 -5 -24
5 -31 13 -40 52 -10 37 -9 49 2 67 16 24 62 32 83 15z m-198 -191 c6 -14 14
-46 16 -69 6 -62 15 -99 34 -136 31 -62 62 -54 98 27 14 32 37 69 51 82 l26
23 -5 -148 c-3 -81 -8 -150 -11 -153 -3 -3 -94 -7 -202 -8 -153 -1 -199 2
-208 12 -21 26 110 368 150 391 24 14 36 9 51 -21z"/>
<path d="M1055 1795 c-239 -26 -513 -45 -655 -46 -196 -1 -188 1 -188 -64 l1
-53 41 -6 c22 -3 68 -4 101 -2 33 2 159 7 280 11 121 3 269 13 328 21 59 8
131 14 159 14 71 0 108 34 108 97 0 50 14 48 -175 28z m135 -36 c0 -19 -41
-48 -74 -53 -52 -8 -115 -16 -246 -30 -147 -16 -622 -16 -626 -1 -10 31 15 37
157 41 79 2 216 10 304 19 141 15 337 29 448 34 22 0 37 -4 37 -10z"/>
<path d="M1065 1587 c-9 -13 -11 -28 -4 -49 10 -37 7 -34 46 -42 39 -9 46 2
38 58 -6 39 -10 44 -37 48 -21 3 -33 -1 -43 -15z m51 -55 c-9 -8 -26 10 -26
26 1 15 2 15 15 -2 8 -11 13 -21 11 -24z"/>
<path d="M955 1576 c-14 -20 -14 -29 -4 -48 23 -43 40 -47 69 -16 25 27 26 56
3 74 -27 20 -51 17 -68 -10z m51 -17 c3 -6 2 -15 -4 -21 -6 -6 -11 -2 -15 11
-5 22 7 29 19 10z"/>
<path d="M747 1583 c-14 -4 -17 -13 -15 -36 4 -37 18 -41 34 -10 13 26 24 20
24 -14 0 -14 -6 -23 -15 -23 -8 0 -15 -7 -15 -15 0 -18 24 -20 37 -2 14 17 23
71 15 84 -9 13 -42 22 -65 16z"/>
<path d="M843 1574 c-3 -9 -2 -33 3 -53 10 -39 32 -44 67 -14 24 22 21 38 -9
62 -32 25 -52 27 -61 5z"/>
<path d="M668 1564 c-4 -3 -105 -8 -225 -11 -120 -2 -224 -6 -231 -8 -8 -3
-11 -19 -9 -47 l4 -43 49 -8 c27 -4 74 -5 104 -1 30 3 110 6 177 6 139 1 149
6 155 72 2 36 -9 56 -24 40z m-22 -47 c21 -21 -26 -31 -186 -40 -178 -9 -220
-6 -220 17 0 15 43 23 165 30 97 5 233 2 241 -7z"/>
<path d="M1175 1521 c-8 -15 3 -31 21 -31 9 0 14 7 12 17 -4 20 -24 28 -33 14z"/>
<path d="M690 1399 c-165 -18 -245 -24 -442 -28 l-38 -1 0 -56 0 -56 43 6 c85
12 296 27 451 31 131 3 161 7 168 20 8 14 -6 21 -34 16 -5 0 -8 17 -8 39 0 46
4 45 -140 29z m98 -47 c3 -19 -1 -22 -30 -23 -68 -1 -427 -26 -480 -34 -22 -2
-28 1 -28 16 0 21 16 26 110 33 263 18 386 28 390 32 11 12 35 -3 38 -24z"/>
<path d="M1015 1280 c-33 -4 -109 -11 -170 -14 -60 -4 -177 -18 -260 -31 -82
-13 -199 -29 -260 -35 -60 -6 -113 -14 -117 -18 -4 -4 -3 -24 2 -43 9 -31 14
-35 38 -33 36 4 141 19 277 39 100 14 441 39 508 36 16 -1 30 5 33 13 3 8 12
12 20 9 23 -9 44 17 44 53 0 38 0 38 -115 24z m63 -42 c-5 -14 -16 -16 -153
-28 -235 -19 -353 -31 -430 -41 -44 -5 -102 -12 -130 -15 -27 -3 -65 -7 -84
-9 -24 -3 -31 -1 -24 6 6 6 69 19 139 30 71 10 176 25 234 34 108 15 289 31
393 34 41 1 57 -3 55 -11z"/>
<path d="M1008 1085 c-6 -6 -165 -20 -393 -35 -82 -5 -197 -16 -255 -24 -76
-11 -108 -12 -117 -4 -22 18 -36 -6 -34 -58 0 -26 3 -50 5 -52 10 -10 26 11
26 34 0 16 8 27 23 33 35 13 263 40 487 56 246 18 320 19 320 4 0 -7 -11 -9
-31 -5 -17 3 -38 2 -47 -3 -10 -5 -67 -12 -127 -16 -177 -10 -561 -50 -597
-61 -10 -3 -18 -12 -18 -21 0 -17 18 -16 154 11 44 8 82 14 85 14 3 -1 31 1
61 5 97 12 282 22 398 22 61 0 112 3 112 8 0 4 9 7 19 7 21 0 31 19 31 61 0
28 -2 29 -48 29 -27 0 -51 -2 -54 -5z"/>
<path d="M902 895 c-52 -7 -166 -16 -255 -20 -97 -4 -215 -16 -292 -31 -72
-13 -140 -21 -151 -18 -28 7 -35 -19 -19 -66 9 -25 17 -34 31 -32 11 1 51 7
89 13 39 6 102 12 140 14 39 2 97 8 130 14 51 9 209 20 357 25 35 1 68 19 57
31 -7 6 -287 -11 -399 -26 -141 -17 -370 -35 -370 -28 0 17 34 28 145 48 113
20 637 57 654 47 4 -3 6 -19 3 -36 -3 -23 0 -30 12 -30 20 0 36 30 36 68 0 46
-12 48 -168 27z"/>
<path d="M1080 689 c-38 -10 -207 -23 -510 -40 -107 -6 -233 -14 -279 -18
l-84 -6 -3 -30 c-2 -16 3 -38 10 -47 12 -16 32 -17 267 -8 420 15 552 20 595
20 39 0 44 3 63 40 14 27 19 49 15 70 -7 32 -15 34 -74 19z m35 -39 c9 -14 -3
-46 -18 -48 -159 -23 -857 -42 -857 -24 0 5 10 12 23 16 42 11 267 27 589 42
81 3 162 10 180 14 48 11 76 11 83 0z"/>
<path d="M1539 525 c-3 -2 -50 -7 -105 -10 -127 -7 -159 -12 -173 -29 -21 -25
6 -28 75 -11 54 13 196 24 337 25 17 0 27 5 27 15 0 12 -15 15 -78 15 -43 0
-81 -2 -83 -5z"/>
<path d="M440 454 c-74 -8 -140 -17 -147 -19 -16 -5 -6 -175 11 -192 9 -10 30
-11 96 -2 47 6 132 9 190 7 93 -3 105 -1 108 15 2 12 -3 17 -17 17 -12 0 -21
5 -21 11 0 5 10 9 23 7 25 -3 25 -1 13 88 -12 92 -16 93 -256 68z m158 -21
c-21 -2 -57 -2 -80 0 -24 2 -7 4 37 4 44 0 63 -2 43 -4z m-173 -13 c4 -6 -6
-10 -22 -9 -25 0 -26 1 -8 9 11 5 21 9 22 9 1 1 5 -3 8 -9z m-43 -82 c-10 -22
-11 -21 -11 12 -1 26 2 31 11 22 8 -8 8 -17 0 -34z m112 27 c3 -8 1 -15 -4
-15 -6 0 -10 7 -10 15 0 8 2 15 4 15 2 0 6 -7 10 -15z m49 -12 c7 -39 1 -40
-18 -4 -13 26 -13 31 -1 31 7 0 16 -12 19 -27z m97 11 c0 -8 -5 -12 -10 -9 -6
4 -8 11 -5 16 9 14 15 11 15 -7z m-51 -9 c3 -12 -13 -9 -17 4 -2 7 0 11 6 7 5
-3 10 -8 11 -11z m-262 -42 c-3 -10 -5 -2 -5 17 0 19 2 27 5 18 2 -10 2 -26 0
-35z m120 25 c-3 -8 -6 -5 -6 6 -1 11 2 17 5 13 3 -3 4 -12 1 -19z m-91 -63
c18 -15 18 -15 -5 -13 -14 2 -26 9 -29 16 -5 17 10 15 34 -3z"/>
<path d="M853 460 c-64 -7 -104 -27 -82 -40 6 -4 13 -36 16 -71 2 -35 6 -65 8
-67 1 -2 47 1 101 5 l99 8 2 55 c2 40 -2 64 -17 88 -21 34 -20 34 -127 22z
m81 -81 c4 -28 5 -54 2 -56 -3 -3 -25 -7 -50 -9 -52 -4 -66 11 -66 69 0 44 4
47 60 47 l47 0 7 -51z"/>
<path d="M850 406 c0 -7 7 -19 15 -26 13 -10 12 -15 -8 -32 l-22 -19 35 7 c19
3 38 8 43 11 14 8 7 29 -16 51 -26 25 -47 28 -47 8z"/>
<path d="M1495 429 c-22 -4 -82 -8 -132 -8 -80 -1 -93 -3 -93 -17 0 -15 10
-16 88 -9 48 4 132 9 186 11 103 4 121 9 96 24 -18 11 -89 11 -145 -1z"/>
<path d="M1542 298 c-4 -4 -67 -10 -140 -14 -120 -6 -155 -14 -138 -31 3 -3
70 0 148 7 79 7 163 14 187 14 64 1 64 23 1 28 -28 1 -54 0 -58 -4z"/>
</g>
</svg>
