<?xml version="1.0" standalone="no"?>
<!DOCTYPE svg PUBLIC "-//W3C//DTD SVG 20010904//EN"
 "http://www.w3.org/TR/2001/REC-SVG-20010904/DTD/svg10.dtd">
<svg version="1.0" xmlns="http://www.w3.org/2000/svg"
 width="289.000000pt" height="218.000000pt" viewBox="0 0 289.000000 218.000000"
 preserveAspectRatio="xMidYMid meet">
<metadata>
Created by potrace 1.16, written by Peter Selinger 2001-2019
</metadata>
<g transform="translate(0.000000,218.000000) scale(0.100000,-0.100000)"
fill="#000000" stroke="none">
<path d="M6 2155 c-4 -14 -2 -126 4 -248 7 -122 11 -361 9 -532 -2 -360 7
-549 27 -566 11 -9 25 -9 57 0 87 23 202 30 537 36 190 4 377 11 415 16 39 6
142 12 230 14 88 2 205 8 260 14 202 22 469 33 845 36 l385 4 7 28 c5 15 6 37
3 49 -5 23 -7 690 -3 987 l3 187 -827 0 c-637 0 -828 -3 -828 -12 0 -9 -3 -9
-12 0 -9 9 -147 12 -559 12 l-547 0 -6 -25z m657 -25 c-3 -11 -7 -20 -9 -20
-2 0 -4 9 -4 20 0 11 4 20 9 20 5 0 7 -9 4 -20z m24 -60 c-7 -17 -13 -26 -15
-21 -3 10 15 51 22 51 3 0 -1 -14 -7 -30z m413 6 c0 -3 -4 -8 -10 -11 -5 -3
-10 -1 -10 4 0 6 5 11 10 11 6 0 10 -2 10 -4z m343 -23 c-6 -2 -9 -12 -6 -21
2 -9 -3 -26 -11 -37 -12 -16 -15 -17 -16 -4 0 8 5 20 12 27 9 9 9 12 0 12 -7
0 -15 -7 -18 -15 -4 -8 -13 -15 -22 -15 -12 0 -13 3 -4 12 7 7 12 22 12 34 0
17 7 23 28 26 26 3 46 -12 25 -19z m96 20 c0 -8 -35 -67 -117 -202 -24 -39
-49 -69 -55 -68 -5 1 -13 -7 -16 -18 -8 -28 -63 -95 -78 -95 -7 0 -13 -7 -13
-15 0 -10 -10 -15 -31 -15 l-31 0 24 33 c14 17 33 48 43 67 21 42 74 100 92
100 12 0 37 35 39 55 1 11 21 48 66 121 21 33 34 44 53 44 14 0 25 -3 24 -7z
m-279 -13 c0 -5 -4 -10 -10 -10 -5 0 -10 5 -10 10 0 6 5 10 10 10 6 0 10 -4
10 -10z m360 -11 c0 -5 -6 -9 -12 -10 -10 0 -10 -2 0 -6 9 -4 10 -8 2 -18 -18
-22 -21 -55 -4 -48 10 4 12 0 8 -11 -4 -10 -12 -15 -19 -12 -7 2 -18 -1 -24
-7 -21 -21 -23 2 -2 29 24 31 28 56 6 48 -8 -3 -14 -9 -13 -12 5 -20 -17 -54
-42 -67 -18 -9 -27 -21 -24 -29 8 -21 -147 -238 -161 -225 -2 3 16 38 40 77
25 40 45 74 45 77 0 5 81 134 123 196 21 30 30 36 51 32 14 -3 26 -9 26 -14z
m-262 -24 c-13 -19 -27 -35 -31 -35 -13 0 3 44 21 58 29 22 33 13 10 -23z
m-736 3 c-7 -7 -12 -8 -12 -2 0 14 12 26 19 19 2 -3 -1 -11 -7 -17z m1117 -27
c-20 -27 -65 -49 -76 -37 -8 8 8 27 18 20 5 -3 8 -1 7 5 -4 13 33 40 55 41 16
0 16 -3 -4 -29z m66 6 c0 -12 -55 -41 -63 -33 -2 3 8 16 23 31 27 25 40 25 40
2z m468 -49 c-42 -46 -114 -100 -128 -94 -11 4 1 21 45 65 71 72 94 86 98 65
2 -9 -5 -25 -15 -36z m-1373 28 c0 -3 -4 -8 -10 -11 -5 -3 -10 -1 -10 4 0 6 5
11 10 11 6 0 10 -2 10 -4z m241 -43 c-8 -15 -10 -15 -11 -2 0 17 10 32 18 25
2 -3 -1 -13 -7 -23z m1189 18 c0 -11 -58 -61 -71 -61 -5 0 -9 -9 -9 -20 0 -23
-38 -70 -57 -70 -30 0 -9 38 55 96 66 62 82 73 82 55z m-1806 -53 c22 -34 26
-46 17 -60 -24 -39 -9 -38 19 0 41 57 64 59 37 4 -8 -15 -11 -38 -8 -51 6 -23
7 -22 32 15 14 22 33 51 43 67 36 58 50 17 15 -47 -11 -21 -18 -40 -16 -43 5
-4 57 84 57 97 0 4 7 13 15 20 13 10 15 9 15 -10 0 -28 -101 -182 -152 -232
-25 -24 -48 -38 -65 -38 l-25 0 35 39 c19 22 41 50 47 63 16 31 -62 -44 -93
-89 -13 -19 -31 -33 -43 -33 -11 0 -41 -7 -67 -16 -62 -21 -80 -13 -35 14 27
17 35 27 31 42 -3 11 -9 20 -15 20 -5 0 -4 10 2 23 6 12 -3 5 -20 -15 -49 -58
-97 -83 -151 -80 -25 1 -57 -2 -71 -7 -14 -5 -28 -8 -31 -5 -2 3 27 37 64 77
71 74 83 97 50 97 -13 0 -18 7 -17 23 1 12 7 21 13 20 7 -2 20 11 30 27 19 33
36 40 27 13 -4 -14 -1 -13 14 5 11 12 22 22 25 22 3 0 3 -28 0 -61 l-6 -62 37
7 c25 5 36 4 32 -3 -8 -13 51 4 70 20 8 6 14 8 14 4 0 -4 11 9 25 29 14 20 25
41 25 46 0 21 -16 9 -34 -25 -19 -34 -36 -38 -36 -8 0 9 11 31 25 49 28 37 35
64 10 44 -8 -7 -15 -9 -15 -5 0 9 32 43 41 44 3 1 18 -18 33 -41z m36 28 c0
-11 -19 -15 -25 -6 -3 5 1 10 9 10 9 0 16 -2 16 -4z m-200 -16 c0 -5 -5 -10
-11 -10 -5 0 -7 5 -4 10 3 6 8 10 11 10 2 0 4 -4 4 -10z m549 -45 c-29 -42
-42 -45 -33 -7 9 36 35 65 47 53 7 -7 2 -22 -14 -46z m761 45 c0 -5 -12 -10
-27 -9 -25 0 -26 1 -8 9 27 12 35 12 35 0z m-1377 -15 c-3 -9 -8 -14 -10 -11
-3 3 -2 9 2 15 9 16 15 13 8 -4z m887 -3 c0 -10 -16 -34 -36 -53 l-37 -34 7
30 c7 30 42 75 58 75 4 0 8 -8 8 -18z m809 -13 c-11 -7 -11 -11 -2 -17 16 -10
-73 -88 -111 -98 -14 -3 -26 -9 -26 -13 0 -18 14 -18 46 0 41 23 51 24 35 5
-7 -9 -8 -17 -2 -20 11 -7 57 9 66 23 3 6 11 11 17 11 7 0 6 -6 -2 -15 -10
-12 -10 -15 2 -15 15 0 54 40 50 53 -1 4 5 7 13 7 8 0 15 -4 15 -8 0 -13 -83
-72 -102 -72 -11 0 -18 -7 -18 -20 0 -23 -10 -26 -28 -8 -10 10 -49 16 -147
20 -16 1 -55 -2 -85 -6 -47 -5 -52 -5 -33 6 12 7 31 25 43 41 12 15 26 27 32
27 6 0 26 14 45 30 19 17 38 28 43 25 4 -3 20 8 33 25 17 19 31 28 42 24 20
-8 7 -25 -40 -53 -24 -14 -35 -16 -38 -8 -3 7 -8 5 -12 -6 -4 -10 -3 -23 3
-29 9 -9 25 0 62 31 27 23 47 34 43 25 -4 -12 -3 -15 6 -10 7 5 11 16 8 26 -3
12 0 17 8 13 8 -2 19 6 26 19 8 16 14 19 17 9 2 -7 -2 -17 -9 -22z m351 11 c0
-5 -8 -10 -17 -10 -15 0 -16 2 -3 10 19 12 20 12 20 0z m-2105 -10 c-3 -5 -10
-10 -16 -10 -5 0 -9 5 -9 10 0 6 7 10 16 10 8 0 12 -4 9 -10z m1324 -17 c-41
-51 -56 -68 -78 -87 -54 -47 -63 -58 -53 -68 6 -6 16 -5 28 2 16 11 81 89 127
153 9 12 22 18 41 15 l27 -3 -30 -45 c-16 -25 -55 -73 -85 -107 -54 -59 -58
-61 -111 -65 -30 -1 -55 0 -55 5 0 4 22 35 48 70 27 34 59 81 72 105 20 35 29
42 53 42 27 0 28 -2 16 -17z m-339 -32 c0 -34 -8 -47 -65 -107 -57 -60 -64
-64 -50 -34 l16 35 -21 -24 c-11 -13 -24 -30 -29 -38 -4 -8 -22 -16 -40 -18
l-33 -4 26 20 c14 11 46 47 72 80 51 67 74 78 43 22 l-21 -38 22 25 c12 14 33
46 46 72 13 27 27 48 29 48 3 0 5 -17 5 -39z m580 36 c0 -8 -119 -131 -123
-127 -9 10 64 111 86 120 23 9 37 12 37 7z m-1421 -22 c5 -21 -2 -36 -21 -46
-23 -12 -23 -12 -4 9 10 12 16 28 12 37 -3 9 -2 14 3 11 5 -3 9 -8 10 -11z
m534 -32 c-29 -53 -114 -163 -125 -163 -17 0 -6 20 37 66 25 26 45 50 45 53 0
2 11 24 25 48 35 59 51 55 18 -4z m1387 29 c0 -10 -74 -80 -121 -115 -34 -24
-37 -25 -42 -8 -3 13 11 30 54 61 32 24 64 49 70 56 12 15 39 19 39 6z m-1519
-31 c-26 -37 -166 -181 -175 -181 -4 0 7 19 25 43 46 59 51 65 44 45 -14 -37
5 -16 46 52 29 46 50 70 62 70 17 0 17 -2 -2 -29z m163 -6 c-15 -20 -29 -34
-31 -32 -7 8 32 67 45 67 8 0 3 -14 -14 -35z m101 25 c11 -5 16 -9 10 -9 -5
-1 -4 -5 4 -10 10 -7 11 -13 1 -31 -11 -20 -10 -22 5 -16 15 5 16 4 5 -9 -7
-8 -16 -12 -21 -9 -5 3 -7 -1 -4 -8 3 -7 -5 -18 -17 -23 -13 -6 -27 -23 -32
-40 -6 -16 -11 -32 -12 -33 -2 -2 -16 -1 -33 3 l-31 7 65 71 c35 39 62 73 60
76 -3 3 -32 -22 -65 -54 -33 -32 -62 -56 -65 -53 -8 7 88 147 100 147 6 0 19
-4 30 -9z m610 -35 c-28 -25 -54 -45 -60 -45 -6 0 -6 3 1 8 5 4 20 24 33 45
17 28 29 37 49 37 26 0 25 -2 -23 -45z m-1558 -2 c-3 -10 -5 -4 -5 12 0 17 2
24 5 18 2 -7 2 -21 0 -30z m1912 9 c-7 -11 -24 -26 -38 -32 -23 -10 -22 -8 9
23 38 38 49 41 29 9z m597 1 c-14 -7 -26 -18 -26 -23 0 -12 -112 -100 -127
-100 -28 0 -8 28 59 86 56 48 77 60 96 56 l25 -5 -27 -14z m-1840 -83 c-25
-38 -59 -76 -76 -85 -16 -9 -30 -13 -30 -9 0 4 19 30 43 58 23 28 56 69 72 90
48 65 41 20 -9 -54z m483 41 c-28 -51 -66 -97 -73 -90 -11 11 73 128 92 129 2
0 -7 -17 -19 -39z m1381 31 c0 -12 -39 -52 -51 -52 -6 0 2 14 18 30 30 32 33
34 33 22z m-470 -16 c0 -2 -9 -6 -20 -9 -11 -3 -18 -1 -14 4 5 9 34 13 34 5z
m530 -47 l0 -39 -55 0 c-30 0 -55 4 -55 8 0 18 49 54 65 48 12 -4 19 0 22 14
8 32 23 12 23 -31z m-1044 -4 c-13 -36 -19 -41 -66 -53 -29 -7 -55 -11 -57 -8
-10 10 9 26 31 26 12 0 38 17 61 40 21 22 40 38 41 37 2 -2 -3 -20 -10 -42z
m-845 2 l-24 -22 19 27 c10 14 21 24 23 22 3 -3 -6 -15 -18 -27z m1459 24 c0
-5 -7 -12 -16 -15 -24 -9 -28 -7 -14 9 14 17 30 20 30 6z m65 -19 c-32 -27
-85 -62 -94 -62 -6 0 -11 7 -11 15 0 8 6 15 14 15 8 0 24 9 37 20 13 10 33 19
44 20 11 0 15 -3 10 -8z m68 -12 c20 0 19 -2 -8 -20 -18 -12 -32 -15 -36 -9
-3 6 -11 4 -18 -5 -26 -31 20 -42 57 -13 20 16 24 2 5 -15 -17 -15 -82 -23
-143 -19 -23 2 -23 3 -5 11 11 4 38 24 60 44 22 19 46 33 53 31 8 -3 23 -5 35
-5z m-209 -29 c6 -10 -16 -21 -42 -21 -13 0 -12 3 4 15 22 17 31 18 38 6z
m-1309 -21 c-3 -5 -11 -10 -16 -10 -6 0 -7 5 -4 10 3 6 11 10 16 10 6 0 7 -4
4 -10z m445 6 c0 -2 -7 -9 -15 -16 -13 -11 -14 -10 -9 4 5 14 24 23 24 12z
m510 -7 c27 -6 50 -14 50 -18 0 -4 -23 -14 -50 -23 -46 -15 -51 -15 -60 0 -8
15 -9 15 -10 -3 0 -20 -16 -28 -178 -85 -29 -11 -58 -22 -64 -26 -18 -11 -79
-14 -73 -4 4 6 11 10 17 10 21 0 272 94 261 97 -7 3 -35 -3 -64 -11 -29 -9
-54 -14 -57 -12 -2 3 12 9 32 14 20 6 48 20 62 31 15 12 35 19 44 16 11 -3 20
1 24 10 6 18 3 18 66 4z m-680 -13 c0 -3 -4 -8 -10 -11 -5 -3 -10 -1 -10 4 0
6 5 11 10 11 6 0 10 -2 10 -4z m790 -48 c-46 -15 -89 -28 -95 -28 -9 1 14 11
110 50 35 15 50 17 59 12 6 -3 -28 -18 -74 -34z m545 17 c-58 -27 -68 -30 -63
-13 5 13 63 37 93 36 12 0 -1 -10 -30 -23z m-589 0 c-23 -17 -36 -19 -36 -6 0
5 8 12 18 14 32 9 37 6 18 -8z m674 11 c0 -5 -88 -64 -125 -84 -12 -7 -15 -12
-6 -12 8 0 28 10 45 23 35 26 86 50 93 44 11 -12 -201 -119 -221 -111 -8 3
-28 -2 -45 -11 -27 -14 -31 -14 -31 0 0 8 -5 15 -11 15 -5 0 -8 4 -5 9 6 10
100 37 104 30 1 -2 6 1 10 8 4 7 48 30 97 52 98 44 95 43 95 37z m140 -18 c0
-13 3 -32 6 -44 6 -23 -11 -36 -126 -96 -62 -33 -43 -14 49 50 53 36 74 62 51
62 -7 0 -50 -25 -97 -57 -50 -33 -102 -59 -126 -64 -39 -7 -67 -2 -40 8 6 2
33 18 59 36 62 41 207 126 217 126 4 1 7 -9 7 -21z m-1200 -8 c-37 -12 -82
-12 -75 0 3 6 27 10 53 9 38 -1 42 -2 22 -9z m519 -14 c-2 -1 -39 -19 -82 -39
-62 -30 -94 -39 -154 -43 -42 -3 -80 -7 -85 -10 -4 -3 -8 -1 -8 5 0 5 28 16
63 25 34 8 107 30 162 49 55 19 102 30 104 25 1 -5 1 -10 0 -12z m145 17 c4
-4 -13 -13 -36 -20 -59 -17 -67 -16 -39 7 23 20 61 26 75 13z m-344 -18 c-33
-19 -50 -18 -26 0 11 8 27 15 35 15 10 -1 7 -6 -9 -15z m-435 -5 c-16 -4 -39
-8 -50 -9 -16 -1 -17 1 -5 9 8 5 31 9 50 9 l35 -1 -30 -8z m893 1 c18 -11 -38
-32 -183 -67 l-20 -5 20 13 c24 15 146 67 160 67 6 0 16 -3 23 -8z m-1775 -18
c-7 -2 -19 -2 -25 0 -7 3 -2 5 12 5 14 0 19 -2 13 -5z m1482 -23 c-3 -5 -11
-10 -16 -10 -6 0 -7 5 -4 10 3 6 11 10 16 10 6 0 7 -4 4 -10z m-1177 -9 c8 -4
34 -4 59 0 26 5 49 7 52 3 12 -12 -28 -23 -111 -30 -88 -7 -116 -18 -81 -31
15 -6 13 -9 -12 -14 -56 -12 -105 -10 -105 5 0 20 -64 29 -212 30 -71 0 -128
4 -128 8 0 4 12 7 28 7 15 -1 75 1 134 3 73 3 106 1 105 -6 -1 -6 9 -10 23 -8
14 1 43 2 65 3 22 0 63 9 90 19 59 21 75 23 93 11z m400 -7 c-11 -10 -211 -52
-283 -59 -63 -6 -68 -5 -50 8 21 15 42 19 185 38 47 6 87 12 89 15 2 2 18 4
34 4 17 0 28 -3 25 -6z m57 -29 c-40 -17 -126 -30 -105 -16 8 6 29 11 45 11
17 0 37 5 45 10 8 5 22 9 30 9 8 0 2 -6 -15 -14z m335 5 c0 -5 -5 -10 -11 -10
-5 0 -7 5 -4 10 3 6 8 10 11 10 2 0 4 -4 4 -10z m-223 -6 c-3 -3 -12 -4 -19
-1 -8 3 -5 6 6 6 11 1 17 -2 13 -5z m748 -4 c-27 -12 -43 -12 -25 0 8 5 22 9
30 9 10 0 8 -3 -5 -9z m595 -33 c0 -49 -14 -66 -74 -91 -57 -24 -64 -20 -20
12 21 16 45 36 53 45 14 18 8 21 -29 18 -8 -1 1 12 20 29 19 16 38 30 42 30 4
0 8 -20 8 -43z m-480 29 c0 -3 -4 -8 -10 -11 -5 -3 -10 -1 -10 4 0 6 5 11 10
11 6 0 10 -2 10 -4z m-2130 -75 c-12 -23 -35 -28 -43 -8 -2 6 -2 26 0 43 l5
31 25 -23 c20 -19 23 -26 13 -43z m1647 43 c11 -11 22 -10 61 2 38 11 57 12
100 2 31 -7 52 -17 52 -25 0 -19 -84 -18 -100 2 -20 24 -33 18 -25 -12 4 -16
9 -30 11 -32 4 -4 68 -7 207 -10 40 -1 57 -5 56 -13 -3 -27 2 -38 17 -38 10 0
14 -7 12 -22 -3 -24 -57 -65 -97 -75 -14 -3 -34 -12 -43 -21 -10 -8 -32 -15
-50 -16 -18 -1 -35 -3 -38 -6 -3 -3 -17 -11 -32 -17 -19 -8 -26 -17 -22 -28 5
-12 -4 -15 -52 -16 -95 -2 -118 1 -131 18 -11 14 -14 13 -22 -11 -10 -24 -15
-26 -65 -26 -59 0 -80 15 -51 37 11 7 14 13 9 13 -6 0 -21 -11 -34 -25 -44
-47 -12 -54 170 -41 132 9 414 9 503 1 43 -4 67 -3 67 3 0 6 -10 13 -22 15
-13 3 27 5 87 5 61 0 118 3 127 7 16 6 93 3 188 -8 38 -4 48 -2 62 16 17 21
18 19 18 -61 0 -98 -6 -103 -86 -78 -46 15 -69 15 -171 7 -64 -6 -120 -7 -123
-2 -3 4 -50 5 -105 2 -100 -7 -254 -5 -262 3 -6 5 84 24 176 37 70 10 410 16
441 8 8 -2 15 1 15 6 0 16 -453 13 -549 -4 -62 -10 -80 -10 -86 0 -11 18 -40
3 -40 -21 0 -12 7 -20 18 -20 14 0 15 -2 2 -10 -8 -5 -57 -10 -108 -10 -51 0
-91 -4 -88 -9 3 -4 -23 -11 -57 -15 -34 -3 -84 -10 -112 -15 -68 -13 -295 -14
-295 -1 0 6 41 10 104 10 58 0 107 4 110 8 3 5 51 9 107 10 133 3 142 12 12
12 -76 0 -104 4 -113 15 -6 7 -33 17 -58 20 -94 12 -100 15 -95 36 3 10 -1 26
-8 35 -16 20 -16 19 145 94 169 78 183 109 60 135 -63 12 -519 33 -649 28 -95
-3 -190 -16 -197 -27 -6 -8 -8 -8 -8 0 0 8 -42 12 -137 13 -148 1 -263 10
-263 20 0 47 95 57 865 87 33 1 125 6 205 11 234 13 372 12 387 -3z m371 -23
c8 -5 11 -11 6 -14 -15 -8 -104 9 -117 23 -10 10 -1 11 42 6 30 -4 61 -11 69
-15z m-1680 2 c-10 -2 -26 -2 -35 0 -10 3 -2 5 17 5 19 0 27 -2 18 -5z m-222
-44 c-29 -23 -47 -19 -26 6 7 8 22 15 33 15 18 0 17 -2 -7 -21z m2259 -49 c-3
-5 -13 -10 -21 -10 -8 0 -12 5 -9 10 3 6 13 10 21 10 8 0 12 -4 9 -10z m-2097
-36 c17 -3 32 -11 32 -17 0 -5 -18 -27 -40 -48 -24 -23 -35 -39 -27 -43 9 -3
8 -7 -3 -15 -18 -13 -33 -14 -26 -2 6 9 -16 21 -39 21 -15 0 -36 -49 -42 -100
-7 -54 -22 -56 -26 -4 -2 20 -8 29 -19 28 -30 -3 -16 58 24 107 19 24 41 55
48 67 12 25 24 26 118 6z m478 7 c-5 -7 -61 -20 -118 -26 -9 -1 -34 -15 -55
-30 -21 -16 -42 -33 -48 -37 -18 -13 -71 -63 -56 -52 65 46 4 -23 -68 -76 -33
-24 -77 -34 -86 -20 -5 8 35 22 65 24 9 1 14 12 15 33 0 28 10 39 75 88 41 31
81 64 88 73 8 11 36 18 90 22 42 4 83 8 90 8 7 1 11 -2 8 -7z m68 -6 c-10 -8
-23 -14 -29 -14 -5 0 -1 6 9 14 11 8 24 15 30 15 5 0 1 -7 -10 -15z m1596 5
c0 -5 -7 -10 -16 -10 -8 0 -12 5 -9 10 3 6 10 10 16 10 5 0 9 -4 9 -10z
m-1980 -20 c-8 -5 -15 -13 -15 -18 0 -14 -101 -102 -116 -102 -7 0 9 20 36 45
46 41 49 46 33 58 -28 22 -22 27 30 27 33 0 43 -3 32 -10z m90 0 c0 -5 -4 -10
-10 -10 -5 0 -33 -18 -62 -40 -29 -22 -57 -40 -63 -40 -9 1 3 12 80 76 30 25
55 31 55 14z m1910 -34 c0 -2 -7 -7 -16 -10 -8 -3 -12 -2 -9 4 6 10 25 14 25
6z m-1790 -10 c0 -3 -4 -8 -10 -11 -5 -3 -10 -1 -10 4 0 6 5 11 10 11 6 0 10
-2 10 -4z m485 -5 c3 -5 -2 -17 -11 -25 -14 -15 -63 -15 -110 -1 -6 2 -16 0
-23 -4 -10 -6 -9 -12 4 -25 15 -15 15 -17 0 -23 -11 -4 -21 0 -27 10 -11 20
-40 21 -90 3 -37 -13 -38 -13 -38 11 0 23 3 25 31 19 18 -3 45 0 66 9 19 8 54
16 77 16 22 1 55 5 71 9 43 11 43 11 50 1z m1235 -1 c-8 -5 -22 -10 -30 -10
-13 0 -13 1 0 10 8 5 22 10 30 10 13 0 13 -1 0 -10z m170 -15 c-7 -9 -15 -13
-19 -10 -3 3 1 10 9 15 21 14 24 12 10 -5z m-1924 -21 c-3 -8 -2 -12 4 -9 14
9 12 -9 -2 -23 -17 -17 -31 -15 -24 4 6 16 -27 -9 -109 -80 -35 -31 -37 -34
-15 -30 l25 6 -25 -20 c-14 -12 -27 -16 -31 -11 -3 5 -13 7 -22 3 -48 -18 10
42 137 143 44 35 72 43 62 17z m-679 -16 c-3 -8 -6 -5 -6 6 -1 11 2 17 5 13 3
-3 4 -12 1 -19z m893 18 c0 -3 -4 -8 -10 -11 -5 -3 -10 -1 -10 4 0 6 5 11 10
11 6 0 10 -2 10 -4z m1630 -16 c0 -5 -9 -10 -21 -10 -11 0 -17 5 -14 10 3 6
13 10 21 10 8 0 14 -4 14 -10z m-1665 -10 c-3 -5 -13 -10 -22 -10 -26 0 -73
-34 -73 -52 0 -22 -27 -35 -42 -20 -16 16 7 40 67 68 53 25 80 30 70 14z m25
-45 c-7 -8 -20 -15 -29 -15 -12 1 -11 5 8 21 26 22 41 18 21 -6z m-800 6 c0
-6 -4 -13 -10 -16 -5 -3 -10 1 -10 9 0 9 5 16 10 16 6 0 10 -4 10 -9z m1036
-16 c-4 -12 -13 -15 -35 -10 -19 4 -41 0 -60 -9 -37 -20 -52 -20 -45 -2 4 12
133 48 143 40 2 -2 1 -10 -3 -19z m-756 -9 c0 -3 -4 -8 -10 -11 -5 -3 -10 -1
-10 4 0 6 5 11 10 11 6 0 10 -2 10 -4z m-240 -21 c0 -8 -4 -15 -10 -15 -5 0
-7 7 -4 15 4 8 8 15 10 15 2 0 4 -7 4 -15z m1080 -5 c0 -5 8 -10 19 -10 10 0
24 -7 31 -15 10 -12 10 -15 -1 -15 -18 0 -78 49 -61 50 6 0 12 -4 12 -10z
m-329 -20 c-25 -22 -41 -26 -41 -10 0 11 30 29 50 29 10 0 8 -6 -9 -19z m230
0 c34 -19 20 -30 -38 -30 -55 0 -56 0 -38 20 20 22 46 25 76 10z m-411 -17 c0
-9 -52 -35 -57 -29 -2 2 -1 11 3 20 6 16 54 23 54 9z m230 -6 c0 -15 -49 -41
-59 -32 -6 6 38 44 52 45 4 0 7 -6 7 -13z m-233 -33 c-21 -20 -42 -33 -45 -29
-8 7 57 64 73 64 6 0 -7 -16 -28 -35z m-102 16 c-3 -5 -11 -10 -16 -10 -6 0
-7 5 -4 10 3 6 11 10 16 10 6 0 7 -4 4 -10z m230 0 c-3 -5 -11 -10 -16 -10 -6
0 -7 5 -4 10 3 6 11 10 16 10 6 0 7 -4 4 -10z m-749 -24 c9 -20 9 -26 -2 -30
-10 -4 -14 3 -14 22 0 21 -2 24 -10 12 -5 -8 -10 -10 -10 -4 0 12 10 24 19 24
3 0 11 -11 17 -24z m324 16 c0 -9 -40 -35 -46 -29 -6 6 25 37 37 37 5 0 9 -3
9 -8z m68 -27 c1 -1 -15 -14 -37 -29 -29 -20 -46 -26 -63 -21 -22 8 -21 9 16
41 37 32 53 34 84 9z m779 9 c-3 -3 -12 -4 -19 -1 -8 3 -5 6 6 6 11 1 17 -2
13 -5z m-397 -9 c0 -2 -10 -10 -22 -16 -21 -11 -22 -11 -9 4 13 16 31 23 31
12z m1340 -26 c-85 -10 -253 -18 -246 -12 8 8 279 30 291 24 6 -3 -15 -9 -45
-12z m300 -9 c0 -5 -9 -10 -19 -10 -11 0 -23 5 -26 10 -4 6 5 10 19 10 14 0
26 -4 26 -10z m-2174 -15 c-23 -17 -36 -19 -36 -6 0 11 18 19 40 20 11 0 10
-3 -4 -14z m608 0 c4 -11 -2 -15 -27 -15 l-32 1 25 14 c14 8 26 14 26 15 1 0
4 -7 8 -15z m116 1 c0 -9 -30 -14 -35 -6 -4 6 3 10 14 10 12 0 21 -2 21 -4z
m37 -2 c-3 -3 -12 -4 -19 -1 -8 3 -5 6 6 6 11 1 17 -2 13 -5z m-507 -34 c-20
-13 -33 -13 -25 0 3 6 14 10 23 10 15 0 15 -2 2 -10z m-45 -10 c-3 -5 -13 -10
-21 -10 -8 0 -12 5 -9 10 3 6 13 10 21 10 8 0 12 -4 9 -10z m252 -26 c-3 -3
-12 -4 -19 -1 -8 3 -5 6 6 6 11 1 17 -2 13 -5z m140 0 c-3 -3 -12 -4 -19 -1
-8 3 -5 6 6 6 11 1 17 -2 13 -5z"/>
<path d="M1360 1830 c0 -5 5 -10 10 -10 6 0 10 5 10 10 0 6 -4 10 -10 10 -5 0
-10 -4 -10 -10z"/>
<path d="M1297 1753 c-4 -3 -7 -11 -7 -17 0 -6 5 -5 12 2 6 6 9 14 7 17 -3 3
-9 2 -12 -2z"/>
<path d="M623 1798 c-20 -26 -26 -41 -15 -34 12 7 36 46 29 46 -3 0 -9 -6 -14
-12z"/>
<path d="M200 1788 c0 -11 12 -10 30 2 12 7 10 9 -8 7 -12 0 -22 -5 -22 -9z"/>
<path d="M497 1782 c-19 -20 -23 -37 -7 -27 10 6 33 45 27 45 -2 0 -11 -8 -20
-18z"/>
<path d="M412 1679 c-13 -16 -20 -29 -15 -29 5 0 19 14 31 30 29 39 14 38 -16
-1z"/>
<path d="M1745 1769 c-4 -6 -4 -13 -1 -16 8 -8 36 5 36 17 0 13 -27 13 -35 -1z"/>
<path d="M1590 1452 c-36 -2 -69 -7 -74 -13 -6 -5 -29 -9 -52 -9 -41 0 -64
-12 -45 -24 4 -3 38 -2 75 2 55 7 68 6 75 -6 9 -15 57 -25 73 -16 5 3 1 12 -9
19 -15 11 -7 14 57 20 41 4 80 6 85 5 6 -1 23 -2 39 -1 54 2 20 12 -60 17 -44
3 -83 6 -89 7 -5 1 -39 1 -75 -1z"/>
<path d="M1653 1376 c-7 -8 -18 -16 -25 -19 -10 -4 -10 -7 1 -15 20 -14 74 6
67 25 -3 8 -6 17 -6 19 0 9 -26 2 -37 -10z"/>
<path d="M1850 1339 c0 -5 -17 -17 -37 -25 -72 -30 -185 -86 -180 -90 2 -2 35
7 73 22 38 14 88 31 112 39 24 7 49 19 57 25 21 18 18 40 -5 40 -11 0 -20 -5
-20 -11z"/>
<path d="M1980 1320 c0 -5 5 -10 10 -10 6 0 10 5 10 10 0 6 -4 10 -10 10 -5 0
-10 -4 -10 -10z"/>
<path d="M1908 1276 c-39 -12 -60 -26 -38 -26 24 0 90 23 90 32 0 10 -4 9 -52
-6z"/>
<path d="M2390 1120 c0 -5 5 -10 11 -10 5 0 7 5 4 10 -3 6 -8 10 -11 10 -2 0
-4 -4 -4 -10z"/>
<path d="M460 1005 c-8 -9 -8 -15 -2 -15 12 0 26 19 19 26 -2 2 -10 -2 -17
-11z"/>
<path d="M425 980 c-3 -5 -1 -10 4 -10 6 0 11 5 11 10 0 6 -2 10 -4 10 -3 0
-8 -4 -11 -10z"/>
<path d="M2699 815 c-20 -7 -104 -16 -185 -20 -82 -4 -167 -9 -189 -10 -22 -2
-231 -7 -465 -10 -396 -5 -815 -21 -832 -32 -5 -2 -194 -6 -420 -9 -480 -5
-532 -8 -559 -35 -20 -20 -20 -29 0 -191 4 -31 4 -87 -1 -125 -9 -83 -24 -359
-20 -373 5 -13 759 -13 902 0 58 6 193 17 300 25 107 8 240 19 295 25 55 5
156 15 225 21 69 6 136 13 150 14 36 5 127 13 264 25 65 6 122 12 126 15 8 5
40 -31 40 -46 0 -12 32 -8 42 6 4 6 5 18 2 27 -5 16 6 17 113 17 65 0 153 4
197 9 61 6 79 5 83 -5 7 -18 27 -16 46 5 13 14 16 45 16 177 0 88 -5 189 -10
224 -5 35 -12 109 -15 164 -2 56 -6 102 -7 103 -14 9 -70 9 -98 -1z m-64 -55
c-27 -5 -63 -8 -80 -8 -29 1 -29 1 5 8 19 4 55 7 80 7 l45 0 -50 -7z m-940
-29 c3 -6 -77 -9 -202 -9 -130 1 -185 4 -148 8 94 10 343 11 350 1z m1053 -27
c3 -19 -5 -24 -75 -39 -43 -10 -96 -17 -118 -17 -69 2 -79 2 -130 -2 -200 -15
-356 -18 -353 -7 4 17 -35 32 -53 20 -12 -8 -12 -10 1 -18 8 -6 12 -12 10 -14
-16 -16 -327 -20 -995 -15 -33 0 -98 -2 -145 -4 -47 -1 -179 -2 -295 -1 -226
2 -472 -4 -493 -12 -9 -3 -12 3 -10 23 3 26 5 27 83 34 113 11 354 16 458 11
66 -4 87 -8 87 -19 0 -16 5 -16 37 -8 13 4 20 10 17 15 -3 5 3 9 13 10 10 0
61 2 113 5 52 2 156 8 230 13 74 4 218 9 320 10 102 1 273 7 380 13 216 12
598 23 790 23 120 0 125 -1 128 -21z m5 -121 c4 -38 3 -81 -1 -98 l-9 -30 -27
43 c-14 23 -29 56 -33 73 -8 39 -29 47 -56 21 -23 -24 -25 -43 -14 -194 l8
-108 -83 0 c-46 0 -93 -3 -106 -6 l-23 -6 3 127 c3 125 4 128 26 132 14 2 21
-1 17 -7 -3 -5 -1 -10 4 -10 6 0 11 7 11 15 0 8 -7 15 -16 15 -8 0 -13 4 -9
10 3 5 26 9 51 8 29 0 49 5 55 13 14 23 10 31 -11 24 -11 -3 -20 -2 -20 3 0 5
28 12 63 15 34 3 80 10 102 15 22 5 45 10 51 11 7 1 14 -26 17 -66z m-289 22
c-4 -8 -15 -15 -25 -15 -10 0 -19 -6 -19 -12 0 -7 -5 -5 -11 5 -5 9 -15 17
-21 17 -16 0 -58 -41 -58 -55 0 -7 -9 -20 -20 -30 -11 -10 -20 -24 -20 -32 0
-7 -4 -13 -10 -13 -5 0 -10 -7 -10 -15 0 -8 -7 -23 -15 -32 -8 -10 -21 -27
-29 -38 -8 -11 -17 -17 -20 -14 -3 3 -8 48 -10 100 -4 91 -5 94 -27 94 -21 0
-24 -4 -22 -35 1 -19 4 -82 6 -140 3 -85 7 -106 22 -115 13 -8 20 -6 29 9 41
67 54 81 74 80 23 -1 30 12 11 18 -11 4 65 138 78 138 5 0 -5 -179 -13 -222
-5 -24 -11 -27 -57 -32 -113 -11 -201 -15 -190 -8 8 5 12 25 10 53 -2 38 -5
44 -24 43 -19 0 -23 6 -29 43 -3 24 -3 72 1 107 3 35 3 66 -2 69 -5 3 -51 2
-103 -1 l-94 -7 -2 -72 c-3 -75 -24 -137 -50 -147 -10 -4 -13 -13 -9 -26 3
-11 1 -36 -6 -55 -11 -30 -18 -35 -53 -40 -23 -4 -61 -4 -86 -2 -25 3 -54 6
-64 6 -40 2 1 22 51 26 64 4 113 29 113 55 0 23 -15 25 -50 5 -14 -8 -33 -14
-43 -15 -24 0 -77 56 -77 81 0 16 7 19 43 19 23 0 49 -5 57 -10 10 -6 20 -4
32 7 49 44 -7 123 -85 123 -79 -1 -113 -55 -91 -148 7 -29 19 -63 27 -75 14
-22 13 -23 -27 -39 -64 -26 -171 -37 -421 -44 -126 -3 -250 -6 -275 -7 -42 -2
-45 0 -48 25 -3 25 -1 26 43 26 118 -2 175 130 92 212 -27 26 -37 30 -62 25
-16 -4 -44 -7 -62 -8 -17 -1 -35 -6 -39 -10 -5 -4 -10 -65 -11 -135 -2 -69 -7
-130 -11 -134 -10 -10 -143 -12 -232 -4 l-75 8 3 116 c2 65 7 121 12 126 6 6
5 15 -1 23 -8 9 -40 13 -110 13 -83 0 -100 -3 -108 -17 -13 -26 -14 -240 -1
-248 27 -17 36 15 33 110 -3 95 -3 96 24 106 14 5 46 7 69 3 l43 -6 3 -119 c3
-113 2 -119 -17 -119 -44 0 -241 -20 -263 -26 -17 -5 -23 -3 -21 7 4 20 -11
328 -18 367 l-5 32 160 0 c119 0 162 -3 165 -12 4 -10 7 -10 14 -1 11 15 319
26 394 14 28 -5 68 -5 88 0 53 12 93 12 451 4 305 -6 622 2 885 25 50 4 120 8
157 9 56 1 66 -2 62 -14z m-443 -155 c-1 -41 -8 -80 -14 -87 -8 -8 -31 -10
-69 -6 l-57 6 14 35 c8 19 15 45 15 58 0 12 4 34 10 49 9 24 14 26 57 23 l46
-3 -2 -75z m649 36 c0 -6 9 -22 20 -36 11 -14 20 -35 20 -47 0 -14 9 -24 30
-32 23 -7 30 -16 30 -35 0 -20 -5 -26 -22 -26 -13 0 -33 -3 -45 -6 -18 -5 -23
-2 -23 14 0 12 -4 23 -9 27 -5 3 -12 31 -16 63 -3 31 -7 73 -10 92 -4 33 -3
34 10 16 8 -11 15 -25 15 -30z m-1002 -12 c34 -24 26 -34 -28 -34 -38 0 -50 4
-50 15 0 9 10 20 23 25 30 12 30 12 55 -6z m-771 -31 c11 -10 25 -30 31 -45 9
-22 7 -32 -11 -60 -26 -38 -65 -48 -95 -22 -27 23 -19 90 15 122 29 27 35 27
60 5z m1163 -138 c4 -2 10 -15 12 -28 4 -21 1 -24 -36 -25 -23 -1 -75 -5 -116
-10 -41 -5 -76 -9 -77 -8 -1 0 1 13 4 28 8 41 54 59 136 53 38 -3 72 -7 77
-10z m710 -61 c0 -20 -4 -25 -16 -20 -10 4 -25 -1 -36 -10 -21 -20 -145 -33
-323 -34 -60 0 -153 -5 -205 -10 -52 -6 -160 -13 -240 -16 -204 -9 -395 -21
-535 -34 -116 -10 -272 -22 -460 -35 -49 -3 -262 -8 -472 -11 l-383 -5 0 30
c0 19 7 34 19 40 35 19 194 33 419 37 l222 4 0 -30 c0 -16 5 -32 10 -35 16
-10 40 15 40 41 0 23 4 24 63 25 34 0 73 2 87 4 60 9 557 21 675 16 44 -1 145
2 225 8 80 5 219 15 310 22 91 6 179 13 195 15 17 2 95 6 175 9 80 4 147 9
149 11 2 2 22 4 43 4 34 0 38 -3 38 -26z"/>
<path d="M895 540 c3 -5 8 -10 11 -10 2 0 4 5 4 10 0 6 -5 10 -11 10 -5 0 -7
-4 -4 -10z"/>
<path d="M1340 542 c-30 -2 -59 -7 -64 -12 -13 -13 -6 -231 9 -277 8 -23 173
15 205 47 26 26 25 70 0 103 -17 21 -18 30 -9 50 9 19 8 31 -5 54 -17 34 -41
40 -136 35z m94 -53 c16 -15 -3 -38 -41 -48 -63 -18 -83 -15 -83 13 0 40 25
57 73 50 23 -4 46 -10 51 -15z m14 -111 c33 -33 -5 -76 -77 -85 -44 -6 -45 -5
-55 54 -6 36 1 40 75 42 25 0 50 -4 57 -11z"/>
<path d="M1045 486 c-39 -59 -24 -184 27 -226 38 -32 128 -22 142 16 11 28
-10 40 -33 20 -24 -22 -61 -16 -92 15 -36 36 -22 54 49 57 56 3 62 5 68 28 7
26 -14 67 -50 96 -32 27 -92 23 -111 -6z m94 -40 c26 -28 21 -33 -34 -37 -35
-3 -40 -1 -37 16 9 48 37 57 71 21z"/>
<path d="M552 457 c-33 -35 -52 -106 -42 -153 11 -46 38 -71 86 -80 45 -8 114
21 114 48 0 22 -27 23 -54 3 -27 -20 -43 -19 -77 6 -35 25 -41 69 -9 69 11 0
20 -5 20 -11 0 -17 27 -39 49 -39 22 0 29 24 11 35 -18 11 -10 26 10 20 60
-19 79 33 32 86 -39 44 -107 52 -140 16z m106 -35 c20 -25 14 -32 -25 -32 -46
0 -66 11 -57 33 11 29 58 28 82 -1z"/>
<path d="M2370 219 c0 -5 5 -7 10 -4 6 3 10 8 10 11 0 2 -4 4 -10 4 -5 0 -10
-5 -10 -11z"/>
<path d="M940 110 c0 -5 5 -10 11 -10 5 0 7 5 4 10 -3 6 -8 10 -11 10 -2 0 -4
-4 -4 -10z"/>
<path d="M2725 51 c-60 -16 -275 -34 -480 -41 -186 -6 -164 -7 198 -8 352 -2
407 0 407 13 0 28 -73 49 -125 36z"/>
</g>
</svg>
