<?xml version="1.0" standalone="no"?>
<!DOCTYPE svg PUBLIC "-//W3C//DTD SVG 20010904//EN"
 "http://www.w3.org/TR/2001/REC-SVG-20010904/DTD/svg10.dtd">
<svg version="1.0" xmlns="http://www.w3.org/2000/svg"
 width="443.000000pt" height="223.000000pt" viewBox="0 0 443.000000 223.000000"
 preserveAspectRatio="xMidYMid meet">
<metadata>
Created by potrace 1.16, written by Peter Selinger 2001-2019
</metadata>
<g transform="translate(0.000000,223.000000) scale(0.100000,-0.100000)"
fill="#000000" stroke="none">
<path d="M358 2188 c-17 -20 -26 -22 -162 -22 l-145 -1 -16 -58 c-12 -44 -16
-101 -16 -228 0 -94 3 -174 6 -179 17 -27 65 -398 71 -545 3 -66 10 -163 15
-215 6 -52 14 -131 19 -175 4 -44 15 -140 24 -213 9 -72 18 -195 20 -273 1
-77 7 -144 12 -147 5 -4 9 -20 9 -37 0 -21 7 -33 27 -44 23 -13 35 -13 90 -2
59 12 233 25 493 36 63 2 124 6 137 9 13 3 97 8 188 11 91 3 242 10 335 15
530 29 655 33 862 26 120 -4 521 -9 892 -12 473 -2 677 -7 687 -15 7 -6 19 -7
26 -3 7 5 83 7 168 6 103 -2 160 1 170 9 13 9 12 10 -2 5 -13 -4 -18 0 -18 16
0 17 -4 20 -30 15 -16 -4 -32 -2 -35 3 -4 6 9 10 29 10 58 0 86 15 86 48 0 15
6 34 13 41 10 10 9 11 -4 6 -28 -11 -30 11 -4 35 14 13 25 32 25 42 0 23 -23
48 -44 48 -23 0 -19 23 8 49 24 23 34 81 14 81 -5 0 -6 -5 -3 -10 3 -6 0 -10
-8 -10 -12 0 -13 8 -6 41 5 23 7 50 3 61 -4 12 -1 24 7 30 11 7 11 8 -1 6 -19
-4 -20 0 -20 58 0 25 4 43 8 40 4 -3 8 18 7 46 -1 32 -6 53 -14 56 -9 3 -7 9
5 24 11 11 14 22 9 26 -20 14 -16 52 10 98 14 26 24 53 21 61 -3 8 1 30 9 50
8 19 15 39 15 44 0 18 -29 8 -48 -16 -11 -14 -22 -25 -26 -25 -10 0 6 34 27
58 18 20 19 22 3 22 -10 0 -14 5 -10 11 5 8 1 8 -13 0 -14 -7 -23 -7 -31 1 -9
9 -12 5 -12 -17 0 -16 -8 -37 -17 -47 -12 -13 -14 -21 -6 -26 8 -5 5 -14 -8
-30 l-18 -23 3 28 c2 15 10 48 17 73 7 25 14 54 14 65 1 11 2 32 3 46 1 15 9
30 18 33 12 5 14 1 9 -17 -3 -12 -3 -17 2 -11 4 6 17 16 28 23 13 8 14 11 3 7
-22 -7 -29 26 -12 60 8 15 15 44 16 66 1 39 11 52 38 53 11 0 14 9 12 33 -2
17 1 32 6 32 11 0 4 127 -8 149 -4 8 -4 27 0 43 5 15 5 30 1 33 -5 2 -5 26 -1
52 18 109 19 124 7 122 -24 -3 -37 1 -37 12 0 5 6 7 13 4 6 -4 4 0 -6 8 -18
15 -18 15 0 20 16 4 16 5 -2 6 -35 2 -48 16 -36 38 10 19 6 21 -69 27 -206 18
-420 27 -835 35 -247 5 -457 11 -465 14 -15 6 -226 22 -430 32 -63 4 -133 8
-155 10 -22 2 -89 8 -150 14 -160 15 -235 18 -229 9 3 -4 -9 -8 -25 -8 -17 0
-31 4 -31 9 0 5 -10 11 -22 14 -18 5 -338 9 -418 7 -8 -1 -82 1 -165 4 -82 2
-208 0 -280 -4 -283 -19 -275 -19 -275 -4 0 17 -14 18 -42 3 -12 -6 -79 -13
-150 -16 -109 -3 -129 -1 -134 12 -8 21 -26 19 -46 -7z m922 -27 c0 -11 -156
-25 -172 -14 -8 5 13 10 52 14 107 9 120 9 120 0z m-1146 -59 c3 -5 1 -30 -3
-58 l-9 -49 -1 40 c-2 46 -14 71 -30 61 -6 -4 -11 -2 -11 3 0 13 46 15 54 3z
m576 -12 c0 -5 -17 -10 -37 -9 -34 1 -35 2 -13 9 36 11 50 11 50 0z m-95 -10
c-3 -5 -17 -10 -31 -10 -14 0 -22 4 -19 10 3 6 17 10 31 10 14 0 22 -4 19 -10z
m2108 3 c-13 -2 -33 -2 -45 0 -13 2 -3 4 22 4 25 0 35 -2 23 -4z m-340 -10
c-13 -2 -35 -2 -50 0 -16 2 -5 4 22 4 28 0 40 -2 28 -4z m942 -23 c-7 -12 -42
-12 -70 0 -15 6 -8 9 28 9 30 1 46 -3 42 -9z m898 -7 c-7 -2 -19 -2 -25 0 -7
3 -2 5 12 5 14 0 19 -2 13 -5z m-183 -13 c0 -5 -9 -10 -20 -10 -11 0 -20 5
-20 10 0 6 9 10 20 10 11 0 20 -4 20 -10z m53 -7 c-7 -2 -19 -2 -25 0 -7 3 -2
5 12 5 14 0 19 -2 13 -5z m-690 -102 c31 -4 61 -11 67 -17 5 -5 19 -75 32
-154 18 -123 22 -188 22 -425 1 -331 -11 -692 -24 -755 -15 -72 -13 -110 6
-110 13 0 15 -7 10 -32 -8 -39 -5 -37 -43 -31 -37 6 -45 20 -11 19 13 -1 24 6
26 16 3 15 -9 16 -125 13 -147 -5 -336 -21 -408 -34 -28 -5 -97 -12 -155 -16
-119 -8 -125 -9 -199 -24 -65 -13 -70 -13 -51 -1 13 8 13 10 -2 10 -9 0 -19
-4 -22 -9 -7 -10 -46 -22 -44 -12 0 3 0 21 -1 39 -1 40 -21 43 -21 2 0 -28 -3
-30 -37 -31 l-38 -2 40 -7 c44 -8 33 -13 -33 -14 -39 -1 -42 1 -37 19 4 11 10
35 15 53 4 19 17 40 27 48 22 17 66 14 75 -6 5 -12 7 -12 7 3 1 9 6 17 11 17
6 0 11 0 13 0 1 0 24 7 51 15 27 8 61 14 75 14 17 -1 20 -3 9 -6 -19 -5 -25
-23 -8 -23 16 0 123 30 129 36 3 3 -15 5 -41 3 -27 -3 -48 -1 -48 4 0 21 -48
27 -117 14 -66 -13 -73 -12 -73 2 -1 14 -2 13 -11 -1 -6 -11 -22 -18 -39 -18
-19 0 -30 -5 -30 -14 0 -7 -9 -16 -20 -19 -17 -4 -20 0 -20 23 0 16 4 31 10
35 5 3 7 13 4 23 -5 14 -4 15 5 2 8 -12 13 -12 23 -2 19 19 38 14 39 -10 2
-20 2 -21 6 -3 3 18 12 20 71 21 37 0 94 3 127 7 80 8 565 10 597 2 28 -7 47
10 30 27 -7 7 -110 10 -292 9 -252 -2 -282 0 -277 13 8 20 -17 21 -36 1 -8 -8
-17 -11 -21 -8 -3 4 -6 2 -6 -4 0 -11 -225 -11 -237 1 -9 9 17 27 29 20 4 -3
8 0 8 5 0 17 -15 13 -44 -10 l-26 -20 0 29 c0 18 6 32 16 36 15 6 241 -1 364
-11 36 -3 128 -6 205 -8 77 -1 187 -4 245 -5 98 -4 105 -3 108 16 3 19 -5 19
-220 22 -123 1 -268 6 -323 11 -55 5 -136 10 -180 11 -44 0 -89 3 -100 5 -11
2 -28 4 -39 4 -10 1 -16 6 -13 14 2 6 1 21 -4 32 -6 16 -8 12 -8 -17 -1 -31
-4 -36 -18 -31 -10 4 -25 15 -34 25 -16 17 -17 17 -22 -10 -3 -15 -3 -47 0
-69 3 -23 2 -50 -2 -60 -7 -17 -8 -17 -15 2 -7 15 -9 16 -9 4 -1 -9 -8 -22
-16 -29 -13 -11 -15 -7 -15 28 0 25 5 42 14 45 8 3 16 1 19 -6 2 -6 6 -1 9 11
6 23 -15 32 -28 11 -9 -16 -24 9 -24 42 0 18 6 28 20 32 15 4 20 0 20 -16 0
-17 2 -19 9 -8 5 8 7 20 4 27 -6 17 33 39 40 21 4 -8 6 -6 6 4 1 19 35 52 44
42 4 -3 7 0 7 7 0 11 3 11 12 2 7 -7 17 -8 29 -2 10 6 50 10 91 10 113 0 121
-2 129 -30 l7 -25 1 28 c1 19 6 27 19 27 14 0 15 -2 2 -10 -27 -17 -2 -22 30
-5 20 10 30 22 28 33 -3 13 -16 17 -63 19 -106 4 -297 3 -305 -2 -5 -3 -6 -14
-3 -24 6 -24 -35 -41 -48 -20 -14 22 -10 33 6 19 12 -10 15 -10 15 4 0 9 9 21
20 28 11 7 20 21 20 30 0 10 5 18 10 18 6 0 10 -7 10 -17 0 -15 2 -14 20 2 11
10 26 15 36 11 9 -3 22 -2 29 4 9 8 15 8 20 0 3 -6 11 -8 16 -4 6 3 31 3 55
-1 40 -6 44 -8 32 -22 -11 -14 -10 -15 12 -8 14 4 28 12 31 18 10 15 170 26
414 29 l219 3 10 33 c7 26 6 36 -5 43 -13 8 -481 16 -624 10 l-60 -2 25 21 25
21 -27 -12 c-16 -7 -28 -15 -28 -18 0 -11 -39 -15 -140 -14 -87 0 -96 -2 -97
-19 -1 -14 2 -17 10 -10 7 5 41 7 77 5 36 -2 153 -4 260 -3 107 1 274 -2 370
-6 164 -8 170 -9 100 -16 -41 -4 -248 -9 -460 -10 l-385 -3 -1 -40 c-1 -34 -1
-35 3 -7 4 28 7 31 19 21 17 -14 18 -27 2 -43 -26 -25 -47 -26 -51 -3 -3 17
-5 15 -6 -8 -1 -23 -3 -27 -11 -15 -8 13 -10 13 -10 -1 0 -9 -7 -19 -15 -23
-8 -3 -15 -10 -15 -16 0 -6 7 -6 20 2 25 16 44 0 33 -28 -6 -17 -8 -17 -14 6
l-7 25 -1 -26 c-1 -32 -30 -48 -33 -19 -1 11 -3 32 -5 48 -13 110 -15 154 -5
148 6 -3 13 -2 17 4 3 5 31 21 61 35 30 14 54 29 54 35 0 14 -13 12 -36 -5
-10 -8 -22 -15 -25 -15 -7 0 -17 85 -21 173 -1 20 -6 37 -10 37 -4 0 -4 9 0
20 10 26 2 110 -10 110 -13 0 -1 -280 13 -297 9 -9 8 -13 0 -13 -6 0 -11 -7
-11 -16 0 -9 5 -12 11 -8 7 4 10 1 7 -7 -2 -7 -19 -19 -37 -26 l-32 -14 3 48
c2 39 6 47 21 45 10 -2 17 3 17 13 0 11 -6 14 -24 9 l-24 -6 -6 119 c-4 65 -4
147 -2 183 3 36 6 114 7 173 2 86 5 110 18 117 14 8 14 9 -1 10 -16 0 -17 8
-12 72 5 77 6 81 30 84 9 1 46 7 82 13 146 23 255 32 395 35 81 1 150 6 154 9
8 9 412 7 486 -2z m-2954 -62 c28 -34 49 -64 45 -68 -3 -3 -14 4 -24 17 -10
12 -22 22 -28 22 -5 0 -17 11 -28 24 -10 14 -21 23 -26 20 -4 -3 -8 2 -8 10 0
8 -5 18 -11 22 -8 4 -9 -1 -5 -17 6 -20 5 -21 -4 -6 -6 9 -8 22 -5 27 14 23
45 6 94 -51z m31 44 c14 -4 80 -90 80 -104 0 -2 -9 -5 -20 -6 -11 -1 -20 2
-20 7 0 5 -13 22 -29 37 -16 15 -37 41 -47 58 -19 29 -19 29 1 21 11 -5 27
-10 35 -13z m-148 -15 c8 -13 24 -40 37 -60 l23 -38 -40 0 c-35 0 -40 3 -49
34 -11 35 -7 86 7 86 4 0 14 -10 22 -22z m204 14 c10 -6 26 -52 19 -52 -2 0
-13 14 -25 30 -20 29 -18 38 6 22z m47 -27 c-7 -21 -13 -19 -13 6 0 11 4 18
10 14 5 -3 7 -12 3 -20z m101 12 c13 -10 14 -14 5 -14 -8 0 -25 -3 -37 -7 -22
-7 -23 -6 -13 13 14 25 21 26 45 8z m1201 -2 c204 -15 290 -34 300 -64 6 -21
-11 -74 -22 -68 -5 3 -17 1 -28 -4 -16 -6 -12 -8 18 -8 35 -1 37 -3 38 -33 2
-55 -3 -83 -15 -90 -7 -5 -5 -8 7 -8 12 0 17 -8 17 -29 0 -20 -6 -31 -17 -34
-14 -4 -12 -5 5 -6 15 -1 22 -7 22 -21 0 -22 -29 -27 -48 -8 -9 9 -13 7 -18
-6 -5 -13 -9 -14 -20 -5 -11 9 -14 8 -14 -5 0 -9 7 -16 15 -16 8 0 15 -4 15
-10 0 -15 -46 -12 -62 4 -23 23 -213 48 -358 47 -257 -2 -362 -10 -549 -42
-113 -19 -130 -24 -119 -34 6 -6 46 0 243 35 105 19 142 21 305 15 251 -8 440
-31 440 -53 0 -12 -20 -38 -20 -27 0 28 -299 47 -395 25 -22 -5 -92 -11 -155
-15 -63 -3 -129 -8 -146 -11 -17 -2 -65 -7 -105 -10 -67 -6 -127 -11 -138 -13
-3 -1 0 -6 6 -12 7 -7 38 -8 104 0 52 5 163 13 248 16 85 3 158 8 163 11 4 3
74 5 155 5 109 0 159 -4 191 -15 45 -16 75 -39 65 -50 -9 -9 46 -7 90 3 36 9
37 8 36 -18 -1 -31 -17 -76 -18 -50 -1 19 -61 39 -118 39 -22 0 -43 3 -47 8
-8 8 -27 10 -126 15 -44 2 -64 7 -62 15 3 16 -25 16 -30 0 -3 -8 -32 -13 -84
-15 -169 -5 -505 -38 -533 -52 -24 -12 -37 -39 -25 -51 7 -7 18 -5 36 9 14 11
49 23 79 26 30 4 88 13 129 20 41 8 121 14 178 14 57 0 107 3 112 6 15 9 100
-8 100 -20 0 -16 34 -25 90 -23 31 1 36 2 15 5 -16 2 -41 6 -55 10 -23 6 -23
7 10 12 39 7 171 -6 180 -17 3 -4 11 -7 18 -8 6 -1 21 -2 33 -2 18 -2 21 -7
17 -37 -2 -19 -1 -35 3 -35 4 0 9 -20 11 -45 l3 -46 -37 -6 c-21 -3 -38 -9
-38 -12 0 -4 24 -4 53 0 97 14 100 13 91 -23 -6 -30 -6 -55 -1 -127 1 -13 -4
-26 -10 -28 -8 -3 -13 3 -13 14 0 10 -9 26 -20 36 -11 9 -20 12 -20 6 0 -8
-23 -9 -77 -4 -116 12 -153 12 -318 4 -82 -4 -208 -10 -280 -13 -71 -3 -159
-9 -195 -13 -36 -4 -71 -6 -77 -5 -8 2 -10 -3 -6 -14 5 -12 14 -15 42 -10 20
3 166 9 324 12 275 7 288 6 301 -12 12 -16 31 -19 130 -22 67 -3 116 0 116 5
0 5 -46 10 -101 10 -56 1 -106 6 -112 12 -20 20 23 23 140 10 73 -8 109 -15
97 -20 -16 -7 -16 -8 6 -8 20 -1 22 -3 10 -12 -11 -8 -4 -9 28 -5 39 6 42 5
42 -18 0 -20 -6 -25 -37 -29 -21 -2 -43 0 -50 5 -17 13 -83 28 -83 18 0 -4
-19 -4 -42 1 -55 11 -506 9 -623 -2 -49 -5 -100 -10 -112 -11 -24 -3 -31 -23
-10 -31 6 -2 23 0 37 6 27 10 308 16 482 10 76 -3 107 -8 105 -16 -1 -7 12
-13 28 -15 17 -2 35 -8 40 -14 7 -7 -14 -7 -65 -2 -125 13 -254 7 -478 -21
-62 -8 -131 -15 -153 -15 -40 0 -45 -5 -30 -29 7 -11 18 -11 57 -2 104 24 247
36 442 36 129 0 175 -3 181 -13 5 -8 34 -13 84 -13 42 -1 77 -5 77 -10 0 -5
18 -6 41 -3 30 5 43 3 50 -7 7 -11 9 -11 9 3 0 14 36 36 44 26 8 -10 -10 -162
-19 -158 -5 3 -9 8 -8 12 2 5 -1 8 -6 8 -5 0 -11 6 -14 13 -2 6 -2 1 0 -11 2
-15 0 -21 -7 -17 -6 4 -9 1 -8 -6 2 -9 -17 -16 -62 -21 -71 -9 -131 -3 -143
15 -5 9 -10 7 -18 -6 -6 -9 -14 -15 -20 -12 -5 4 -9 -2 -9 -13 0 -16 10 -20
61 -26 34 -3 79 -6 100 -6 21 0 41 -5 45 -11 5 -9 -25 -10 -112 -5 -66 4 -127
10 -136 12 -21 6 -26 -24 -5 -31 6 -2 75 -8 152 -12 l140 -8 3 -25 c3 -24 -1
-27 -56 -38 -71 -15 -132 -16 -132 -2 0 6 5 10 12 10 6 0 8 3 5 6 -4 4 -14 1
-23 -7 -14 -11 -72 -14 -288 -15 -149 0 -300 -3 -336 -7 -36 -4 -93 -9 -127
-13 l-61 -5 -6 53 c-23 222 -29 286 -36 383 -4 61 -6 146 -4 190 4 84 -3 148
-39 355 -22 127 -29 334 -13 412 9 48 27 58 187 97 102 25 148 31 245 32 102
1 309 13 309 17 0 1 86 -5 190 -13z m1671 -64 c3 -20 16 -72 27 -116 19 -72
21 -105 19 -325 -2 -251 -3 -270 -23 -450 -25 -230 -27 -205 -26 245 0 253 -2
480 -5 505 -4 25 -11 77 -17 115 -14 90 -14 90 4 75 8 -7 17 -28 21 -49z
m-3106 -25 c0 -4 -9 -6 -19 -6 -12 0 -23 11 -30 31 -16 46 -14 47 19 12 17
-18 30 -34 30 -37z m178 15 c3 -16 -1 -22 -10 -19 -7 3 -15 15 -16 27 -3 16 1
22 10 19 7 -3 15 -15 16 -27z m-328 -7 c0 -8 -4 -14 -10 -14 -5 0 -10 9 -10
21 0 11 5 17 10 14 6 -3 10 -13 10 -21z m3560 16 c0 -5 -4 -10 -10 -10 -5 0
-10 5 -10 10 0 6 5 10 10 10 6 0 10 -4 10 -10z m-236 -82 c10 -67 -9 -68 -23
-1 -14 73 -14 80 3 63 8 -8 17 -36 20 -62z m526 63 c0 -6 -4 -13 -10 -16 -5
-3 -10 1 -10 9 0 9 5 16 10 16 6 0 10 -4 10 -9z m-3226 -16 c-4 -8 -10 -12
-15 -9 -11 6 -2 24 11 24 5 0 7 -7 4 -15z m-847 -42 c-3 -10 -5 -2 -5 17 0 19
2 27 5 18 2 -10 2 -26 0 -35z m3614 -10 c6 -19 8 -49 5 -68 -4 -20 -2 -35 4
-37 7 -2 7 -47 0 -148 -20 -291 -31 -406 -41 -455 -17 -78 -18 -89 -25 -268
-4 -92 -11 -170 -16 -173 -9 -6 -4 280 7 396 2 25 7 115 10 200 4 85 8 173 10
195 2 22 4 122 4 222 1 155 3 182 16 177 8 -3 19 -21 26 -41z m-3291 5 c0 -4
-14 -3 -30 2 -17 5 -28 5 -26 1 9 -14 -52 -10 -64 4 -9 11 -1 13 41 13 28 1
54 3 57 7 6 5 22 -14 22 -27z m30 -1 c0 -5 -4 -5 -10 -2 -5 3 -10 14 -10 23 0
15 2 15 10 2 5 -8 10 -19 10 -23z m40 16 c0 -14 2 -15 9 -5 6 11 11 10 25 -3
19 -19 15 -32 -6 -19 -7 5 -20 7 -28 6 -8 -1 -21 7 -28 18 -11 18 -10 20 8 20
12 0 20 -7 20 -17z m441 -39 l-9 -39 -1 36 c-1 20 2 39 6 42 12 13 13 0 4 -39z
m-505 -13 c-3 -5 -15 -7 -26 -4 -28 7 -25 13 6 13 14 0 23 -4 20 -9z m49 -1
c3 -5 -1 -10 -9 -10 -9 0 -16 5 -16 10 0 6 4 10 9 10 6 0 13 -4 16 -10z m75
-21 c0 -11 -27 -12 -34 0 -3 4 -3 11 0 14 8 8 34 -3 34 -14z m375 -229 c9 -91
20 -187 25 -215 10 -53 16 -187 25 -600 3 -137 8 -262 11 -278 3 -15 1 -27 -4
-27 -15 0 -30 139 -47 426 -8 148 -20 346 -25 439 -12 209 -18 515 -9 460 4
-22 14 -114 24 -205z m-675 188 c0 -23 -3 -29 -9 -19 -8 12 -4 51 5 51 2 0 4
-15 4 -32z m3607 -55 c-2 -16 -4 -5 -4 22 0 28 2 40 4 28 2 -13 2 -35 0 -50z
m-3175 -5 c12 -11 13 -21 5 -57 -10 -51 -20 -42 -32 27 -7 43 0 51 27 30z
m-555 -20 c-3 -8 -6 -5 -6 6 -1 11 2 17 5 13 3 -3 4 -12 1 -19z m355 0 c-7 -7
-12 -8 -12 -2 0 14 12 26 19 19 2 -3 -1 -11 -7 -17z m-345 -40 c-3 -8 -6 -5
-6 6 -1 11 2 17 5 13 3 -3 4 -12 1 -19z m3720 -75 c-2 -21 -4 -6 -4 32 0 39 2
55 4 38 2 -18 2 -50 0 -70z m-3207 -44 c-10 -38 -12 -40 -25 -23 -13 17 -14
16 -9 -16 4 -21 -1 -53 -11 -80 -9 -25 -24 -65 -32 -89 -13 -34 -18 -40 -25
-27 -9 16 10 136 22 136 3 0 6 17 7 38 1 20 7 51 13 67 11 28 13 29 21 10 l9
-20 -2 20 c-2 22 11 84 20 100 13 21 23 -75 12 -116z m3397 64 c-3 -10 -5 -4
-5 12 0 17 2 24 5 18 2 -7 2 -21 0 -30z m-3475 -15 c-6 -6 -7 0 -4 19 5 21 7
23 10 9 2 -10 0 -22 -6 -28z m1658 13 c0 -17 -4 -33 -10 -36 -6 -4 -10 8 -10
29 0 20 5 36 10 36 6 0 10 -13 10 -29z m-30 9 c0 -5 -2 -10 -4 -10 -3 0 -8 5
-11 10 -3 6 -1 10 4 10 6 0 11 -4 11 -10z m-97 -41 c12 -7 25 -17 29 -23 5 -8
8 -7 8 2 0 6 5 12 10 12 6 0 10 -9 10 -20 0 -17 -5 -19 -32 -14 -53 9 -58 12
-58 34 0 23 3 24 33 9z m88 -42 c-8 -8 -11 -4 -11 14 0 33 14 47 18 19 2 -12
-1 -27 -7 -33z m39 13 c0 -5 -5 -10 -11 -10 -5 0 -7 5 -4 10 3 6 8 10 11 10 2
0 4 -4 4 -10z m-1973 -37 c-3 -10 -5 -4 -5 12 0 17 2 24 5 18 2 -7 2 -21 0
-30z m3602 -40 c-1 -66 -2 -72 -9 -38 -7 36 -3 115 6 115 2 0 3 -35 3 -77z
m-3315 8 c-9 -29 -18 -50 -21 -47 -4 4 2 28 23 95 2 8 6 12 9 10 2 -3 -3 -29
-11 -58z m3203 27 c-3 -8 -6 -5 -6 6 -1 11 2 17 5 13 3 -3 4 -12 1 -19z
m-1526 -29 c-5 -13 -10 -19 -10 -12 -1 15 10 45 15 40 3 -2 0 -15 -5 -28z
m-26 2 c3 -5 1 -12 -5 -16 -5 -3 -10 1 -10 9 0 18 6 21 15 7z m1542 -23 c-3
-7 -5 -2 -5 12 0 14 2 19 5 13 2 -7 2 -19 0 -25z m489 -6 c-11 -11 -16 -12
-16 -4 0 18 24 43 29 30 2 -5 -4 -17 -13 -26z m-3249 -84 c-2 -13 -4 -5 -4 17
-1 22 1 32 4 23 2 -10 2 -28 0 -40z m1233 10 c0 -47 -14 -41 -23 10 -5 24 -3
32 8 32 11 0 15 -12 15 -42z m2012 -12 c-4 -27 -13 -51 -19 -53 -15 -5 -9 47
9 84 16 32 18 25 10 -31z m-2070 -9 c-2 -29 -9 -55 -14 -58 -6 -4 -8 -11 -4
-17 8 -13 -33 -27 -44 -15 -4 4 -10 38 -13 74 l-6 66 43 1 42 1 -4 -52z
m-1636 6 c-11 -11 -19 6 -11 24 8 17 8 17 12 0 3 -10 2 -21 -1 -24z m381 -40
c-3 -10 -5 -4 -5 12 0 17 2 24 5 18 2 -7 2 -21 0 -30z m2857 -2 c-4 -17 -9
-30 -11 -27 -3 2 -2 19 2 36 9 41 17 33 9 -9z m406 -71 c-6 -30 -16 -63 -21
-72 -5 -10 -9 -26 -9 -37 0 -10 -8 -25 -17 -32 -15 -11 -16 -11 -5 1 14 16 16
34 3 25 -6 -3 -8 8 -6 25 2 17 0 28 -4 25 -5 -2 -11 5 -14 16 -4 15 -2 19 9
15 12 -5 15 1 12 23 -2 21 6 42 27 70 27 36 30 37 34 18 1 -12 -2 -47 -9 -77z
m-3670 14 c-18 -53 -24 -33 -9 28 9 37 14 46 17 30 2 -12 -2 -38 -8 -58z
m3825 67 c3 -5 1 -12 -5 -16 -5 -3 -10 1 -10 9 0 18 6 21 15 7z m-3605 -28 c0
-20 -3 -24 -11 -16 -7 7 -9 19 -6 27 10 24 17 19 17 -11z m1491 -16 c-8 -8
-11 -5 -11 9 0 27 14 41 18 19 2 -9 -1 -22 -7 -28z m2002 -7 c-3 -11 -7 -20
-9 -20 -2 0 -4 9 -4 20 0 11 4 20 9 20 5 0 7 -9 4 -20z m-3204 -85 c0 -22 -3
-45 -7 -51 -4 -7 -7 25 -8 70 -1 52 2 70 6 51 4 -16 8 -48 9 -70z m-85 -230
c4 -93 9 -181 11 -195 3 -14 9 -72 15 -130 5 -58 13 -125 16 -150 4 -25 4 -43
1 -40 -9 9 -36 195 -47 335 -14 170 -23 532 -10 425 5 -41 11 -151 14 -245z
m1283 243 c-2 -13 -4 -5 -4 17 -1 22 1 32 4 23 2 -10 2 -28 0 -40z m-1688 -36
c-17 -52 -24 -21 -7 35 9 33 14 40 16 24 2 -12 -2 -38 -9 -59z m146 39 c-4
-17 -10 -29 -15 -26 -5 3 -4 19 2 36 13 38 22 31 13 -10z m-205 -48 c-10 -16
-11 -15 -6 7 3 14 6 32 7 40 1 8 4 5 6 -7 2 -12 -1 -30 -7 -40z m3609 6 c-5
-19 -12 -58 -15 -88 -5 -55 -29 -105 -45 -95 -11 6 -1 74 12 88 5 6 9 19 9 30
0 24 38 111 45 104 3 -2 0 -20 -6 -39z m251 21 c0 -5 -5 -10 -11 -10 -5 0 -7
5 -4 10 3 6 8 10 11 10 2 0 4 -4 4 -10z m-3600 -39 c4 -17 5 -33 0 -36 -10 -6
-32 54 -24 67 8 13 13 6 24 -31z m1487 -23 c-3 -7 -5 -2 -5 12 0 14 2 19 5 13
2 -7 2 -19 0 -25z m-1721 -63 c-4 -17 -13 -40 -21 -51 -9 -12 -13 -13 -11 -4
3 8 10 42 17 75 9 40 14 52 17 36 2 -13 1 -38 -2 -56z m49 25 c-9 -41 -17 -33
-9 9 4 17 9 30 11 27 3 -2 2 -19 -2 -36z m3222 -97 c-2 -21 -4 -4 -4 37 0 41
2 58 4 38 2 -21 2 -55 0 -75z m326 77 c-3 -11 -9 -20 -15 -20 -5 0 -4 9 2 20
6 11 12 20 14 20 2 0 2 -9 -1 -20z m-1790 -98 c2 -35 0 -57 -4 -50 -4 7 -8 38
-9 68 -3 103 6 90 13 -18z m1686 51 c-1 -34 -2 -35 -9 -13 -8 28 -17 15 -22
-34 -2 -16 -8 -31 -15 -33 -17 -6 -27 35 -11 50 7 8 22 26 33 40 11 15 21 27
22 27 2 0 3 -17 2 -37z m-1757 2 c-2 -14 -6 -25 -8 -25 -2 0 -4 11 -4 25 0 14
4 25 9 25 4 0 6 -11 3 -25z m-1539 8 c3 -5 8 -30 12 -58 6 -41 5 -48 -6 -38
-7 7 -14 21 -15 30 -2 10 -6 30 -10 46 -6 25 8 39 19 20z m-257 -49 c-4 -20
-10 -34 -12 -31 -3 3 -2 21 2 41 3 21 9 35 11 32 3 -3 2 -21 -1 -42z m79 6
c-4 -12 -9 -19 -12 -17 -3 3 -2 15 2 27 4 12 9 19 12 17 3 -3 2 -15 -2 -27z
m3560 1 c-3 -12 -10 -21 -15 -21 -4 0 -3 11 3 24 14 29 22 27 12 -3z m-3615
-48 c-11 -17 -11 -17 -6 0 3 10 6 24 7 30 0 9 2 9 5 0 3 -7 0 -20 -6 -30z
m226 -90 c4 -22 3 -33 -5 -33 -6 0 -11 9 -11 19 0 11 -7 26 -15 34 -11 12 -13
27 -8 63 l6 47 14 -49 c7 -27 16 -64 19 -81z m1274 117 c19 -6 12 -8 -30 -9
-30 0 -62 4 -70 9 -19 12 62 12 100 0z m208 -31 c-3 -27 -36 -38 -49 -17 -7
10 -9 9 -9 -4 0 -10 -2 -18 -5 -18 -13 0 -55 25 -55 33 0 5 -6 4 -14 -2 -14
-12 -107 -11 -100 1 2 4 30 10 62 13 31 4 80 13 107 20 55 14 68 9 63 -26z
m62 11 c0 -16 -4 -30 -10 -30 -5 0 -10 14 -10 30 0 17 5 30 10 30 6 0 10 -13
10 -30z m1801 -17 c-8 -15 -10 -15 -11 -2 0 17 10 32 18 25 2 -3 -1 -13 -7
-23z m-3619 -25 c-9 -9 -12 -7 -12 12 0 19 3 21 12 12 9 -9 9 -15 0 -24z m621
-108 c23 -194 29 -322 14 -317 -6 2 -14 17 -18 33 -7 28 -20 429 -14 422 1 -2
10 -64 18 -138z m2602 103 c-8 -55 -16 -226 -15 -311 2 -96 -7 -137 -26 -121
-16 13 -19 39 -4 39 6 0 10 7 10 15 0 8 -4 15 -9 15 -5 0 -7 21 -4 48 8 85 34
306 39 330 7 36 15 25 9 -15z m-1395 -38 c0 -28 -4 -35 -19 -35 -14 0 -19 7
-19 28 0 33 5 42 24 42 9 0 14 -11 14 -35z m-1710 -22 c-11 -17 -11 -17 -6 0
3 10 6 24 7 30 0 9 2 9 5 0 3 -7 0 -20 -6 -30z m1777 -15 c-2 -13 -4 -5 -4 17
-1 22 1 32 4 23 2 -10 2 -28 0 -40z m1978 -20 c-22 -71 -25 -75 -21 -30 4 36
19 72 32 72 1 0 -3 -19 -11 -42z m-3885 2 c0 -29 -17 -33 -22 -5 -3 13 -3 27
0 29 9 10 22 -5 22 -24z m237 8 c-3 -8 -6 -5 -6 6 -1 11 2 17 5 13 3 -3 4 -12
1 -19z m-289 -23 c-2 -46 -18 -57 -18 -12 0 29 6 47 16 47 2 0 3 -16 2 -35z
m1900 -70 c1 -74 -1 -85 -16 -85 -24 0 -47 16 -34 24 6 4 9 16 7 27 -2 11 2
22 10 25 12 5 12 8 0 21 -8 8 -15 28 -15 44 0 24 4 29 23 29 22 0 23 -3 25
-85z m-1619 -10 c10 -53 6 -133 -6 -122 -15 16 -33 118 -27 161 8 59 17 47 33
-39z m29 25 l0 -25 -8 25 c-4 14 -8 34 -8 45 l-1 20 9 -20 c5 -11 8 -31 8 -45z
m1649 -17 c-2 -16 -4 -5 -4 22 0 28 2 40 4 28 2 -13 2 -35 0 -50z m83 -2 c0
-11 -4 -23 -10 -26 -6 -4 -10 5 -10 19 0 14 5 26 10 26 6 0 10 -9 10 -19z
m1720 4 c0 -8 -4 -15 -10 -15 -5 0 -7 7 -4 15 4 8 8 15 10 15 2 0 4 -7 4 -15z
m-1754 -41 c-3 -8 -10 -12 -16 -9 -14 9 -12 42 3 48 14 5 21 -17 13 -39z
m-186 -9 c0 -33 -1 -34 -20 -23 -16 10 -24 10 -41 0 -19 -12 -20 -11 -14 7 3
11 0 23 -7 28 -9 5 -2 10 22 14 60 11 60 11 60 -26z m1492 -12 c-2 -24 -7 -43
-11 -43 -7 0 -4 51 5 79 8 25 11 7 6 -36z m-1285 -30 c-3 -10 -5 -4 -5 12 0
17 2 24 5 18 2 -7 2 -21 0 -30z m-17 2 c0 -14 -4 -25 -10 -25 -11 0 -14 33 -3
43 11 11 13 8 13 -18z m-112 -27 c-2 -17 -11 -24 -30 -26 -19 -2 -28 1 -28 10
0 20 21 38 43 38 13 0 18 -6 15 -22z m-1652 -53 c3 -17 1 -47 -4 -66 l-9 -34
-18 36 c-14 28 -16 48 -10 85 6 45 8 47 21 30 7 -11 16 -34 20 -51z m1568 33
c-4 -13 -7 -31 -6 -41 1 -22 -25 -34 -41 -18 -8 8 -8 11 1 11 8 0 10 9 6 26
-7 27 7 44 34 44 9 0 11 -7 6 -22z m216 -9 c0 -15 -5 -19 -15 -15 -11 4 -15
-1 -15 -19 0 -14 -5 -25 -11 -25 -5 0 -8 -4 -4 -9 3 -5 1 -12 -5 -16 -11 -7
-13 18 -4 64 5 25 10 30 25 26 11 -4 19 -2 19 4 0 6 2 11 5 11 3 0 5 -9 5 -21z
m-1573 -11 c-3 -8 -6 -5 -6 6 -1 11 2 17 5 13 3 -3 4 -12 1 -19z m1428 -8 c-3
-5 -1 -10 4 -10 6 0 11 -12 10 -27 0 -25 -1 -26 -9 -8 -6 13 -9 15 -9 5 -1
-13 -2 -13 -11 0 -15 23 -12 50 6 50 8 0 12 -4 9 -10z m-35 -20 c0 -11 -4 -20
-9 -20 -5 0 -7 9 -4 20 3 11 7 20 9 20 2 0 4 -9 4 -20z m1230 12 c0 -5 -24
-10 -52 -11 -29 -1 -82 -6 -118 -11 -188 -26 -364 -41 -433 -38 -43 3 -72 1
-65 -3 7 -5 -15 -8 -52 -7 -56 1 -58 2 -17 5 26 2 47 8 47 14 0 5 24 9 54 9
30 0 126 9 213 20 240 30 423 39 423 22z m-1052 -29 c-2 -14 -8 -28 -14 -30
-7 -2 -9 8 -6 27 5 37 25 40 20 3z m-288 7 c0 -5 -12 -10 -27 -10 -22 0 -25 2
-13 10 20 13 40 13 40 0z m-215 -25 c151 -6 228 -16 215 -29 -17 -17 -152 -13
-288 8 -86 14 -126 16 -133 9 -8 -8 8 -13 53 -19 l63 -8 -75 -8 c-41 -4 -142
-10 -225 -12 -161 -5 -200 -9 -340 -30 -49 -7 -93 -11 -97 -7 -3 3 -8 15 -10
25 -5 30 43 39 252 45 56 2 69 5 53 11 -13 5 -23 11 -23 13 0 3 44 5 97 6 54
1 99 4 101 5 3 4 151 0 357 -9z m422 -7 c-3 -8 -6 -5 -6 6 -1 11 2 17 5 13 3
-3 4 -12 1 -19z m883 -8 c0 -5 -5 -10 -11 -10 -5 0 -7 5 -4 10 3 6 8 10 11 10
2 0 4 -4 4 -10z m37 4 c-3 -3 -12 -4 -19 -1 -8 3 -5 6 6 6 11 1 17 -2 13 -5z
m333 -4 c0 -5 -3 -11 -7 -11 -5 -1 -17 -3 -28 -6 -79 -16 -228 -13 -210 5 6 6
102 16 208 20 20 1 37 -2 37 -8z m-1361 -4 c-2 -2 -21 -6 -42 -10 -27 -5 -37
-4 -32 3 3 6 22 11 42 11 20 0 34 -2 32 -4z m2153 -16 c-10 -12 -18 -16 -21
-9 -2 6 3 15 10 20 24 15 29 10 11 -11z m-3784 -15 c10 -22 6 -85 -5 -85 -2 0
-11 7 -20 15 -11 11 -13 26 -8 55 8 46 17 50 33 15z m2489 19 c-3 -3 -12 -4
-19 -1 -8 3 -5 6 6 6 11 1 17 -2 13 -5z m-177 -14 c-8 -5 -22 -10 -30 -10 -13
0 -13 1 0 10 8 5 22 10 30 10 13 0 13 -1 0 -10z m63 3 c-7 -2 -19 -2 -25 0 -7
3 -2 5 12 5 14 0 19 -2 13 -5z m-150 -10 c-13 -2 -35 -2 -50 0 -16 2 -5 4 22
4 28 0 40 -2 28 -4z m437 -2 c0 -13 13 -14 210 -15 109 -1 175 -5 175 -11 0
-6 -78 -11 -210 -12 -115 -1 -325 -4 -465 -6 -140 -1 -245 -1 -232 1 12 2 20
7 17 12 -3 5 20 9 52 8 91 -2 325 13 347 22 29 12 106 12 106 1z m-2200 -32
c0 -25 -3 -29 -13 -20 -8 6 -17 8 -20 4 -4 -3 -7 5 -7 18 0 19 2 21 10 9 8
-13 10 -12 10 3 0 9 5 17 10 17 6 0 10 -14 10 -31z m477 -1 c-1 -16 5 -23 23
-28 17 -4 21 -8 12 -14 -7 -4 -19 -5 -27 -2 -31 11 -294 7 -330 -5 -5 -2 -12
1 -15 6 -3 6 13 14 35 20 22 5 43 13 46 18 4 5 46 8 93 5 47 -2 86 -1 86 3 0
4 17 10 38 12 20 2 38 4 39 5 2 1 2 -8 0 -20z m1070 6 c-3 -3 -12 -4 -19 -1
-8 3 -5 6 6 6 11 1 17 -2 13 -5z m-579 -11 c-32 -2 -84 -2 -115 0 -32 2 -6 3
57 3 63 0 89 -1 58 -3z m467 -34 c5 -5 -15 -9 -52 -9 -61 0 -93 6 -93 19 0 9
134 1 145 -10z m1872 -1 c-3 -8 -6 -5 -6 6 -1 11 2 17 5 13 3 -3 4 -12 1 -19z
m-2717 2 c11 -7 7 -10 -17 -10 -17 0 -35 5 -38 10 -8 13 35 13 55 0z m555 -1
c13 -6 -3 -7 -49 -4 -38 3 -72 7 -74 10 -9 9 102 4 123 -6z m445 3 c0 -4 -21
-6 -47 -4 -76 5 -83 10 -15 11 34 0 62 -2 62 -7z m797 -6 c6 -6 -60 -11 -82
-6 -5 1 -27 3 -48 4 -77 6 -47 15 37 12 48 -2 90 -7 93 -10z m-2417 -12 c0
-11 6 -14 20 -9 17 5 20 2 20 -24 0 -22 4 -29 14 -25 8 3 14 17 13 32 -2 23 3
28 25 30 21 3 27 0 22 -11 -9 -24 7 -26 76 -11 65 14 323 18 348 5 1 0 4 0 5
2 2 1 11 -4 20 -12 15 -12 17 -11 17 3 0 10 4 15 10 11 5 -3 39 -6 75 -7 36 0
68 -5 71 -9 3 -5 -3 -10 -13 -10 -10 -1 -27 -3 -38 -5 -24 -4 -141 -11 -295
-18 -63 -3 -173 -8 -243 -12 -114 -5 -131 -4 -148 12 -20 18 -27 74 -9 74 6 0
10 -7 10 -16z m1770 -2 c-61 -3 -63 -4 -40 -17 22 -12 12 -13 -87 -14 -80 0
-120 4 -140 14 l-28 15 27 0 c64 0 251 9 254 13 2 1 20 1 41 -2 32 -5 27 -7
-27 -9z m207 11 c-20 -2 -52 -2 -70 0 -17 2 0 4 38 4 39 0 53 -2 32 -4z m208
-3 c3 -5 -1 -10 -10 -10 -9 0 -13 5 -10 10 3 6 8 10 10 10 2 0 7 -4 10 -10z
m298 3 c-7 -2 -19 -2 -25 0 -7 3 -2 5 12 5 14 0 19 -2 13 -5z m-2968 -12 c3
-5 1 -12 -5 -16 -5 -3 -10 1 -10 9 0 18 6 21 15 7z m3442 3 c-3 -3 -12 -4 -19
-1 -8 3 -5 6 6 6 11 1 17 -2 13 -5z m-1644 -11 c-7 -2 -21 -2 -30 0 -10 3 -4
5 12 5 17 0 24 -2 18 -5z m-513 -13 c0 -5 -9 -10 -20 -10 -11 0 -20 5 -20 10
0 6 9 10 20 10 11 0 20 -4 20 -10z m2390 0 c0 -5 -7 -10 -16 -10 -8 0 -12 5
-9 10 3 6 10 10 16 10 5 0 9 -4 9 -10z m-1393 -6 c-3 -3 -12 -4 -19 -1 -8 3
-5 6 6 6 11 1 17 -2 13 -5z m-2247 -28 c0 -3 -4 -8 -10 -11 -5 -3 -10 -1 -10
4 0 6 5 11 10 11 6 0 10 -2 10 -4z m-115 -35 c-3 -6 -11 -11 -17 -11 -6 0 -6
6 2 15 14 17 26 13 15 -4z"/>
<path d="M3359 1835 c-3 -2 -31 -6 -62 -7 -31 -1 -57 -6 -57 -10 0 -4 3 -8 8
-8 4 -1 38 -3 75 -6 62 -5 68 -4 65 12 -3 17 -20 29 -29 19z"/>
<path d="M2420 1816 c0 -18 -33 -30 -59 -21 -23 7 -26 2 -35 -49 -7 -36 -6
-38 8 -27 16 13 21 6 17 -21 0 -5 4 -8 9 -8 6 0 10 13 10 29 0 20 6 30 20 34
11 3 20 1 20 -5 0 -5 4 -7 9 -4 11 7 21 -17 21 -49 0 -17 -6 -25 -22 -27 -25
-3 -24 4 -13 -200 2 -46 0 -58 -12 -58 -9 0 -13 -7 -11 -17 2 -10 10 -17 16
-15 7 1 15 -5 18 -13 8 -19 24 -19 24 0 0 9 10 16 23 16 76 4 99 3 162 -8 112
-19 144 -17 149 10 10 48 13 287 4 293 -8 5 -269 8 -294 3 -27 -5 -34 4 -34
40 0 36 2 39 34 45 19 4 84 6 146 5 116 -1 143 8 118 39 -11 13 -76 12 -250
-4 -49 -4 -57 -3 -52 11 4 10 0 15 -10 15 -9 0 -16 -6 -16 -14z m320 -192 c6
-14 10 -68 10 -119 0 -93 0 -95 -25 -101 -14 -3 -65 -3 -113 2 -48 4 -106 7
-129 7 -31 -1 -43 3 -43 14 0 8 5 11 10 8 6 -3 14 5 19 18 10 26 29 37 67 37
13 0 24 6 25 13 1 6 2 19 3 27 2 8 3 23 4 33 2 13 11 17 38 17 33 0 36 -2 29
-22 -4 -13 -7 -31 -7 -40 1 -11 -5 -15 -14 -11 -8 3 -14 1 -14 -3 0 -12 87
-94 100 -94 15 0 12 28 -5 37 -13 8 -12 15 7 53 12 25 22 63 22 85 l1 40 -65
1 c-37 0 -74 -5 -87 -13 -29 -17 -28 -17 -47 12 l-16 25 110 0 c109 0 111 0
120 -26z m-278 4 c-14 -14 -17 -72 -3 -64 12 8 8 -45 -6 -69 -12 -19 -12 -19
-14 5 -5 75 6 140 24 140 8 0 8 -3 -1 -12z m218 -92 c-6 -20 -16 -39 -22 -42
-10 -6 -6 11 14 65 14 37 21 17 8 -23z m-155 4 c-3 -5 -11 -10 -16 -10 -6 0
-7 5 -4 10 3 6 11 10 16 10 6 0 7 -4 4 -10z"/>
<path d="M2411 1714 c0 -11 3 -14 6 -6 3 7 2 16 -1 19 -3 4 -6 -2 -5 -13z"/>
<path d="M2316 1628 c-11 -142 -13 -238 -5 -238 5 0 9 15 10 33 0 17 2 43 3
57 15 152 17 208 8 214 -6 4 -12 -21 -16 -66z"/>
<path d="M2928 1667 c-56 -8 -68 -13 -68 -28 0 -11 5 -19 11 -19 7 0 9 -38 7
-112 l-3 -113 -33 -3 c-41 -4 -38 -27 4 -27 19 0 30 -6 32 -17 2 -10 8 -18 14
-18 5 0 8 6 5 14 -4 11 22 15 138 21 80 4 173 3 207 -1 35 -5 68 -8 73 -9 6 0
15 -7 22 -15 6 -8 14 -13 17 -10 9 9 14 224 6 274 -11 72 -20 76 -205 74 -88
0 -190 -5 -227 -11z m62 -47 c-14 -11 -32 -20 -42 -20 -9 0 -19 -6 -22 -12 -3
-7 -4 -2 -3 12 2 24 26 37 72 39 18 0 18 -1 -5 -19z m269 -14 c-7 -14 -17 -22
-25 -19 -26 10 -10 30 33 42 2 1 -2 -10 -8 -23z m-136 -23 c4 -21 2 -42 -3
-47 -7 -7 -10 1 -10 21 0 33 -17 46 -47 37 -10 -3 -7 2 7 10 38 23 47 19 53
-21z m197 28 c0 -5 -7 -12 -16 -15 -24 -9 -28 -7 -14 9 14 17 30 20 30 6z
m-91 -65 c6 -7 9 -20 5 -29 -3 -8 -1 -25 6 -36 8 -16 17 -20 35 -15 24 6 25 4
25 -36 l0 -43 -46 7 c-26 3 -57 6 -69 6 -18 0 -24 7 -29 33 -13 65 -12 72 12
75 16 3 22 10 22 28 0 26 21 32 39 10z m85 -1 c-4 -8 1 -17 10 -21 12 -5 16
-19 15 -58 -1 -51 -1 -51 -11 -16 -12 44 -25 60 -49 60 -24 0 -25 26 -1 39 25
15 42 13 36 -4z m-242 -28 c-3 -21 2 -29 21 -36 28 -11 38 -30 30 -59 -6 -23
-45 -32 -150 -32 -56 0 -73 3 -73 14 0 17 41 29 54 16 16 -16 23 -12 30 20 4
23 11 30 29 30 32 0 38 9 26 32 -14 26 -4 50 18 46 13 -2 17 -11 15 -31z m-77
-8 c-10 -15 -25 -10 -19 6 4 8 10 12 15 9 5 -3 7 -10 4 -15z"/>
<path d="M2351 1643 c0 -25 1 -26 9 -8 12 27 12 35 0 35 -5 0 -10 -12 -9 -27z"/>
<path d="M2453 1342 c-40 -4 -43 -18 -5 -26 51 -10 307 -11 312 -1 9 17 -43
36 -80 29 -32 -6 -87 -6 -165 -1 -16 1 -45 1 -62 -1z"/>
<path d="M2926 1300 c6 -6 91 -17 190 -26 98 -8 187 -17 197 -20 17 -5 36 21
23 33 -3 3 -54 7 -113 9 -60 2 -153 6 -208 9 -72 5 -97 3 -89 -5z"/>
<path d="M2496 1281 c-9 -15 21 -21 100 -21 42 0 73 -3 71 -7 -8 -13 71 -9 84
4 25 25 -4 33 -126 33 -68 0 -126 -4 -129 -9z"/>
<path d="M3035 1242 c-3 -8 -5 -16 -5 -18 0 -2 47 -4 105 -4 102 0 113 3 97
25 -11 17 -190 13 -197 -3z"/>
<path d="M2383 1185 c0 -27 2 -38 4 -22 2 15 2 37 0 50 -2 12 -4 0 -4 -28z"/>
<path d="M2412 1200 c0 -19 2 -27 5 -17 2 9 2 25 0 35 -3 9 -5 1 -5 -18z"/>
<path d="M2715 1180 c-19 -8 -19 -9 2 -9 12 -1 25 4 28 9 7 12 -2 12 -30 0z"/>
<path d="M2415 1150 c3 -5 8 -10 11 -10 2 0 4 5 4 10 0 6 -5 10 -11 10 -5 0
-7 -4 -4 -10z"/>
<path d="M2421 1110 c0 -8 4 -22 9 -30 12 -18 12 -2 0 25 -6 13 -9 15 -9 5z"/>
<path d="M2538 1110 c-70 -5 -99 -13 -87 -25 3 -2 194 -6 424 -9 231 -3 430
-8 442 -12 24 -7 44 19 27 36 -10 10 -683 18 -806 10z"/>
<path d="M2285 1040 c3 -5 8 -10 11 -10 2 0 4 5 4 10 0 6 -5 10 -11 10 -5 0
-7 -4 -4 -10z"/>
<path d="M2338 978 c-30 -11 -33 -15 -18 -38 8 -12 10 -12 11 5 1 17 2 16 9
-5 l8 -25 1 26 c1 16 9 30 24 37 28 14 2 14 -35 0z"/>
<path d="M2820 850 c0 -19 20 -27 33 -13 8 7 -11 33 -24 33 -5 0 -9 -9 -9 -20z"/>
<path d="M2450 755 c0 -8 4 -15 10 -15 5 0 7 7 4 15 -4 8 -8 15 -10 15 -2 0
-4 -7 -4 -15z"/>
<path d="M2695 745 c-32 -14 -17 -18 25 -6 14 4 20 10 15 13 -6 3 -23 0 -40
-7z"/>
<path d="M2736 476 c-21 -25 -63 -55 -51 -37 3 6 2 11 -3 11 -11 0 -24 -41
-16 -49 3 -3 8 0 12 6 4 7 33 24 65 37 41 19 55 30 51 41 -9 22 -36 18 -58 -9z"/>
<path d="M480 1880 c0 -8 5 -22 10 -30 9 -13 10 -13 10 0 0 8 -5 22 -10 30 -9
13 -10 13 -10 0z"/>
<path d="M1448 1794 c-8 -7 -67 -18 -93 -16 -55 4 -99 1 -104 -6 -3 -4 -33 -8
-66 -9 -41 -1 -63 -6 -71 -17 -8 -11 -20 -14 -42 -10 -25 5 -31 2 -37 -16 -11
-36 15 -55 56 -41 18 6 42 20 54 31 17 16 41 20 160 26 149 7 198 21 174 50
-12 15 -22 18 -31 8z"/>
<path d="M2075 1750 c-3 -5 1 -10 10 -10 9 0 13 5 10 10 -3 6 -8 10 -10 10 -2
0 -7 -4 -10 -10z"/>
<path d="M2024 1695 c4 -12 -13 -15 -112 -16 -64 -1 -137 0 -162 1 -218 11
-447 -4 -570 -37 -30 -8 -75 -19 -99 -24 -52 -11 -55 -13 -48 -33 5 -12 13
-13 36 -6 17 5 31 6 31 3 0 -3 6 -1 13 4 26 21 117 42 203 48 49 3 116 10 149
15 77 13 235 3 249 -15 6 -7 22 -16 36 -20 24 -7 24 -6 5 8 -18 14 -7 15 114
16 136 2 161 -4 161 -38 0 -14 -21 -16 -207 -14 -115 2 -245 4 -290 6 -44 3
-105 0 -135 -4 -29 -5 -101 -16 -159 -23 -59 -8 -122 -21 -141 -29 -24 -10
-40 -12 -52 -5 -20 11 -31 5 -21 -11 9 -15 53 -14 106 3 24 8 107 22 184 31
120 15 159 16 265 7 69 -7 180 -12 246 -13 67 -1 141 -5 165 -11 24 -5 66 -12
93 -15 48 -5 49 -5 42 20 -4 19 -1 31 15 46 31 28 11 51 -45 51 -30 0 -37 3
-26 10 12 8 11 10 -7 10 -18 0 -23 6 -23 25 0 14 -5 25 -11 25 -6 0 -9 -7 -5
-15z m83 -105 c2 0 3 -7 3 -15 0 -16 -12 -18 -47 -9 -13 4 -23 14 -23 24 0 16
4 17 32 9 18 -5 34 -9 35 -9z"/>
<path d="M1875 1270 c3 -5 8 -10 11 -10 2 0 4 5 4 10 0 6 -5 10 -11 10 -5 0
-7 -4 -4 -10z"/>
<path d="M1460 1239 c-251 -11 -360 -24 -360 -43 0 -21 11 -25 39 -15 32 13
105 19 279 23 111 2 134 0 142 -13 7 -13 12 -13 44 4 75 40 36 52 -144 44z"/>
<path d="M1775 1220 c-37 -13 18 -30 92 -28 l68 2 -60 3 c-34 2 -64 9 -70 17
-6 8 -18 10 -30 6z"/>
<path d="M1983 1203 c9 -2 23 -2 30 0 6 3 -1 5 -18 5 -16 0 -22 -2 -12 -5z"/>
<path d="M1810 1117 c0 -12 8 -17 29 -17 16 0 36 -3 45 -6 9 -3 16 -1 16 5 0
6 -15 11 -33 11 -18 0 -38 5 -45 12 -9 9 -12 8 -12 -5z"/>
<path d="M1760 1067 c-3 -2 -111 -7 -240 -11 -205 -5 -392 -24 -409 -41 -16
-17 23 -21 89 -10 41 8 176 16 298 19 194 5 228 3 255 -11 27 -13 53 -15 167
-9 90 4 130 3 120 -4 -13 -8 -12 -10 3 -10 9 0 26 9 36 19 16 16 17 22 7 36
-10 14 -37 18 -167 22 -85 2 -157 2 -159 0z m180 -47 c0 -12 -97 -12 -125 0
-14 6 3 9 53 9 42 1 72 -3 72 -9z"/>
<path d="M1283 696 c-97 -7 -123 -12 -123 -23 0 -12 21 -13 138 -7 75 5 173 8
217 7 267 -4 285 -5 285 -18 0 -8 14 -16 30 -20 34 -7 155 3 185 16 12 5 -6 7
-46 3 -61 -6 -67 -4 -72 15 -3 12 -13 21 -22 21 -13 0 -16 -6 -11 -25 7 -26 0
-31 -23 -16 -7 5 -11 13 -8 18 3 5 2 15 -3 23 -7 12 -47 15 -217 15 -114 0
-263 -4 -330 -9z"/>
<path d="M2067 673 c-33 -17 -29 -28 8 -19 14 4 25 13 25 21 0 8 -1 15 -2 14
-2 -1 -16 -8 -31 -16z"/>
<path d="M1988 433 c7 -3 16 -2 19 1 4 3 -2 6 -13 5 -11 0 -14 -3 -6 -6z"/>
<path d="M1926 421 c-4 -5 3 -7 14 -4 23 6 26 13 6 13 -8 0 -17 -4 -20 -9z"/>
<path d="M551 1274 c0 -11 3 -14 6 -6 3 7 2 16 -1 19 -3 4 -6 -2 -5 -13z"/>
<path d="M1405 339 c-35 -4 -31 -6 28 -10 38 -2 71 -2 73 0 3 3 27 4 54 2 31
-1 50 2 50 9 0 11 -124 11 -205 -1z"/>
<path d="M1338 333 c7 -3 16 -2 19 1 4 3 -2 6 -13 5 -11 0 -14 -3 -6 -6z"/>
<path d="M2568 193 c7 -3 16 -2 19 1 4 3 -2 6 -13 5 -11 0 -14 -3 -6 -6z"/>
<path d="M4284 1274 c-18 -14 -18 -15 4 -4 12 6 22 13 22 15 0 8 -5 6 -26 -11z"/>
<path d="M4246 1245 c-3 -8 -1 -17 3 -20 5 -3 11 2 15 10 3 8 1 17 -3 20 -5 3
-11 -2 -15 -10z"/>
<path d="M4306 843 c-6 -14 -5 -15 5 -6 7 7 10 15 7 18 -3 3 -9 -2 -12 -12z"/>
<path d="M4332 740 c0 -19 2 -27 5 -17 2 9 2 25 0 35 -3 9 -5 1 -5 -18z"/>
<path d="M4316 685 c4 -8 8 -15 10 -15 2 0 4 7 4 15 0 8 -4 15 -10 15 -5 0 -7
-7 -4 -15z"/>
<path d="M4360 180 c-9 -6 -10 -10 -3 -10 6 0 15 5 18 10 8 12 4 12 -15 0z"/>
<path d="M1 114 c0 -11 3 -14 6 -6 3 7 2 16 -1 19 -3 4 -6 -2 -5 -13z"/>
</g>
</svg>
