<?xml version="1.0" standalone="no"?>
<!DOCTYPE svg PUBLIC "-//W3C//DTD SVG 20010904//EN"
 "http://www.w3.org/TR/2001/REC-SVG-20010904/DTD/svg10.dtd">
<svg version="1.0" xmlns="http://www.w3.org/2000/svg"
 width="270.000000pt" height="269.000000pt" viewBox="0 0 270.000000 269.000000"
 preserveAspectRatio="xMidYMid meet">
<metadata>
Created by potrace 1.16, written by Peter Selinger 2001-2019
</metadata>
<g transform="translate(0.000000,269.000000) scale(0.100000,-0.100000)"
fill="#000000" stroke="none">
<path d="M1140 2675 c-36 -8 -138 -16 -228 -20 -92 -3 -189 -12 -223 -21 -32
-8 -64 -12 -71 -8 -6 4 -41 9 -77 11 -85 5 -74 5 -236 -2 -77 -3 -161 -5 -187
-5 -26 1 -60 -6 -77 -14 l-29 -15 -7 -123 c-12 -224 5 -924 26 -1068 6 -41 13
-151 15 -245 3 -93 10 -195 15 -225 6 -30 14 -139 18 -241 5 -103 12 -192 16
-199 4 -6 7 -104 6 -217 -1 -212 2 -232 42 -258 23 -15 63 -13 802 26 110 6
235 8 278 4 48 -4 131 -1 215 9 153 17 681 39 842 35 58 -1 115 1 126 4 21 7
28 28 51 140 3 15 9 27 14 27 5 0 9 8 9 18 0 15 -2 15 -11 2 -8 -11 -9 -7 -5
18 13 74 6 490 -10 642 -16 153 -18 201 -18 670 0 129 0 296 0 370 -1 100 9
484 16 650 0 3 0 15 -1 28 l-1 22 -622 -1 c-467 -1 -639 -5 -688 -14z m279
-314 c190 -41 382 -157 518 -314 35 -40 63 -75 63 -79 0 -5 15 -29 34 -55 86
-121 144 -352 134 -526 -5 -86 -2 -111 13 -101 11 7 11 3 -6 -71 -7 -33 -14
-49 -14 -35 -2 36 -14 13 -49 -98 -22 -68 -43 -110 -84 -164 -30 -40 -64 -86
-75 -103 -35 -49 -174 -182 -226 -215 -103 -65 -184 -107 -242 -124 -33 -10
-81 -25 -106 -33 -27 -10 -54 -13 -65 -8 -12 4 -14 9 -7 12 7 2 9 11 6 20 -4
10 -2 14 4 10 5 -4 23 -2 39 3 16 5 63 19 104 32 104 31 221 99 301 173 9 8
21 15 27 15 7 0 12 5 12 10 0 6 6 10 13 10 18 0 70 56 73 77 2 10 9 22 16 28
7 5 24 33 38 60 39 79 59 105 75 99 9 -4 17 1 21 12 4 11 20 48 37 83 17 36
34 95 40 137 8 51 15 74 25 74 7 0 10 5 7 10 -4 6 -11 8 -16 5 -5 -4 -9 42 -9
112 0 127 -16 213 -52 273 -11 19 -33 68 -49 108 -16 40 -37 85 -48 100 -10
15 -31 47 -47 72 -15 25 -42 62 -59 82 -16 21 -48 60 -70 87 -22 27 -47 50
-57 50 -9 1 -18 5 -20 10 -5 12 -85 61 -102 61 -7 0 -19 7 -26 15 -7 8 -21 15
-32 15 -10 0 -46 9 -79 20 -61 21 -308 62 -321 54 -4 -3 -37 -7 -74 -10 -185
-13 -435 -132 -526 -250 -13 -16 -40 -44 -60 -63 -21 -19 -38 -38 -38 -43 0
-8 -47 -76 -79 -114 -8 -10 -73 -144 -91 -189 -18 -43 -40 -120 -40 -137 0
-10 -4 -18 -8 -18 -12 0 2 94 26 170 26 83 84 200 134 270 52 73 183 207 211
216 12 4 38 20 57 37 60 53 220 117 353 143 95 18 275 11 396 -15z m746 -29
c-3 -3 -11 0 -18 7 -9 10 -8 11 6 5 10 -3 15 -9 12 -12z m-863 -13 c9 -5 45
-13 80 -18 60 -9 109 -28 228 -91 30 -16 67 -31 83 -35 32 -6 80 -53 156 -152
78 -102 122 -180 156 -280 18 -51 19 -67 5 -58 -5 3 -10 -2 -10 -12 -1 -15 -5
-13 -23 10 -13 15 -28 27 -34 27 -7 0 -15 5 -18 11 -4 6 4 9 22 7 23 -2 29 1
31 20 2 12 -1 22 -7 22 -6 0 -11 -8 -11 -17 -1 -15 -4 -14 -20 6 -11 13 -20
29 -20 37 0 8 -10 14 -22 15 -21 1 -21 2 5 12 26 10 39 47 16 47 -5 0 -7 -4
-4 -10 3 -5 1 -10 -5 -10 -6 0 -16 11 -22 25 -12 27 -23 31 -33 14 -4 -6 1
-16 11 -24 15 -11 16 -16 7 -26 -10 -9 -29 4 -90 64 -78 76 -152 117 -208 117
-30 0 -31 -4 -4 -46 20 -33 34 -132 23 -166 -13 -41 -52 -5 -95 88 -25 54 -38
154 -20 154 19 0 12 18 -10 25 -15 5 -17 10 -9 20 13 16 -12 45 -41 45 -10 0
-19 5 -19 10 0 6 6 10 12 10 7 0 3 7 -9 15 -12 8 -24 29 -28 45 -4 17 -10 30
-15 30 -5 0 -15 3 -24 6 -11 4 -16 1 -16 -10 0 -9 7 -16 15 -16 9 0 19 -10 24
-22 7 -18 4 -25 -12 -31 -26 -10 -49 -2 -76 27 -26 28 -20 56 7 33 33 -28 45
-31 33 -9 -16 29 -14 42 7 42 12 1 9 5 -11 16 -31 17 -49 11 -40 -13 5 -12 3
-14 -6 -8 -8 4 -17 2 -21 -5 -11 -19 -32 -1 -25 21 5 14 0 21 -17 28 -14 5
-25 5 -29 -2 -4 -5 -14 -7 -23 -4 -10 4 -16 1 -16 -8 0 -8 -6 -15 -13 -15 -18
0 -67 -24 -67 -32 0 -8 22 -11 37 -5 5 1 7 9 5 17 -2 8 8 -3 20 -24 23 -40 54
-63 42 -32 -3 9 -10 16 -15 16 -5 0 -9 5 -9 10 0 6 9 10 19 10 11 0 21 6 24
13 3 9 9 7 24 -5 11 -10 24 -18 29 -19 5 0 19 -13 31 -28 15 -19 19 -32 12
-42 -8 -11 -17 -5 -49 31 -21 24 -42 42 -45 39 -3 -3 11 -23 30 -43 32 -34 35
-43 34 -89 -1 -71 -7 -87 -26 -80 -13 5 -15 1 -9 -23 4 -16 11 -31 16 -34 10
-6 13 -37 10 -120 -1 -46 -4 -59 -10 -45 -5 11 -9 36 -9 56 -1 20 -7 54 -15
75 -7 22 -11 44 -9 50 2 6 -4 17 -13 25 -16 13 -17 11 -9 -16 11 -42 23 -101
35 -165 5 -30 14 -56 20 -58 12 -4 14 -72 2 -72 -4 0 -12 4 -17 9 -6 5 -26 11
-45 13 l-35 3 0 67 c0 36 3 64 8 61 4 -2 7 0 7 6 0 5 -4 13 -10 16 -5 3 -10
11 -10 16 0 6 4 8 9 4 5 -3 9 9 8 27 0 18 3 81 7 139 9 119 6 125 -49 115 -29
-6 -36 -13 -44 -43 -6 -20 -8 -40 -5 -44 2 -4 -5 -10 -16 -14 -20 -6 -28 -25
-10 -25 14 0 28 -68 25 -120 -1 -25 -3 -62 -4 -84 l-1 -39 -30 34 c-16 19 -30
30 -30 24 0 -14 40 -78 54 -87 8 -5 7 -11 -2 -20 -10 -10 -15 -6 -24 20 -7 18
-16 32 -20 32 -12 0 -9 -18 8 -51 17 -34 14 -45 -11 -35 -15 5 -16 26 -11 188
3 108 9 184 15 186 5 2 8 9 6 15 -2 7 -6 24 -9 39 -5 20 -11 26 -24 22 -15 -5
-15 -4 -2 6 11 8 12 13 3 16 -7 3 -9 12 -6 21 4 11 2 14 -5 9 -6 -4 -18 4 -28
19 -17 27 -37 34 -28 11 9 -24 -14 -28 -35 -7 -19 19 -19 21 -3 29 9 5 29 12
45 16 21 5 27 3 27 -9 0 -9 19 -34 42 -55 43 -41 64 -54 34 -21 -16 17 -16 19
1 25 13 5 26 -2 45 -25 15 -18 30 -30 33 -28 3 3 -11 25 -31 48 -31 36 -41 41
-64 36 -29 -6 -54 13 -42 31 12 19 80 36 159 40 42 2 78 6 81 9 8 7 92 -5 114
-16z m-438 -109 c22 -22 36 -43 33 -47 -4 -3 -7 -1 -7 6 0 7 -6 11 -14 8 -7
-3 -30 12 -52 34 -31 32 -35 39 -19 39 11 0 38 -18 59 -40z m1 -50 c9 0 13 -5
10 -11 -4 -6 -14 -8 -22 -5 -10 4 -13 2 -10 -8 4 -10 -13 -27 -49 -51 -44 -30
-58 -34 -69 -25 -12 10 -15 10 -16 -1 -1 -8 -2 -18 -3 -24 -1 -10 -61 -80
-103 -121 -13 -12 -23 -25 -23 -30 0 -5 -7 -17 -15 -27 -13 -18 -14 -17 -27 8
-13 23 -16 25 -27 11 -11 -13 -8 -21 20 -49 38 -38 79 -63 79 -48 0 5 -5 13
-11 16 -7 5 -3 14 10 26 23 21 114 27 141 8 13 -9 13 -12 -4 -22 -10 -7 -32
-23 -49 -36 -28 -24 -30 -24 -43 -6 -13 17 -14 17 -20 1 -4 -10 -2 -21 5 -26
15 -8 -34 -20 -84 -20 -27 0 -41 10 -85 60 -29 32 -57 57 -62 54 -4 -3 -5 -11
-1 -17 4 -7 8 -19 8 -27 0 -9 7 -14 18 -12 23 4 84 -61 62 -66 -8 -2 -15 -8
-15 -13 0 -14 -28 -11 -33 4 -2 6 -8 8 -13 4 -5 -5 -1 -13 9 -19 14 -8 16 -13
6 -24 -6 -8 -18 -14 -25 -14 -8 0 -14 -9 -14 -20 0 -12 -7 -20 -17 -20 -15 0
-15 -1 2 -13 10 -8 15 -19 11 -25 -12 -20 -36 -13 -46 13 -10 27 -40 35 -40
10 0 -8 11 -25 24 -38 30 -30 96 -69 96 -57 0 16 36 12 50 -5 7 -9 20 -13 29
-11 9 3 33 -10 56 -29 36 -31 37 -35 18 -35 -13 0 -23 5 -23 10 0 6 -5 10 -11
10 -5 0 -7 -4 -4 -10 14 -23 -35 0 -66 31 -10 10 -24 19 -31 19 -6 0 6 -16 28
-35 l39 -34 -67 -1 c-39 0 -70 -5 -74 -11 -8 -13 -38 20 -54 59 -10 24 -25 29
-36 11 -4 -7 15 -33 45 -61 28 -28 51 -58 51 -67 0 -9 6 -26 14 -37 12 -15 17
-17 27 -6 18 17 60 15 89 -5 22 -15 23 -15 17 0 -6 15 8 16 156 11 154 -5 186
-12 171 -36 -3 -4 -80 -8 -172 -7 -170 0 -269 -4 -278 -14 -3 -3 2 -19 10 -36
20 -37 20 -48 2 -48 -8 0 -12 6 -9 14 3 7 -2 16 -11 19 -9 3 -16 11 -16 17 0
13 -64 110 -85 127 -13 11 -18 11 -24 1 -5 -8 -10 6 -14 36 -6 56 -4 61 18 39
9 -9 19 -16 21 -16 6 0 -15 41 -31 60 -12 15 -9 80 4 80 3 0 19 -14 35 -31 22
-23 31 -27 37 -17 10 17 -28 58 -54 58 -16 0 -18 5 -13 28 4 15 14 32 22 38 8
6 12 19 8 28 -3 9 -2 16 4 16 5 0 12 -6 15 -14 3 -7 15 -16 26 -19 12 -3 19
-1 15 4 -3 6 0 17 8 26 11 14 10 16 -14 11 -44 -8 -53 13 -29 66 13 28 26 43
34 40 9 -3 13 6 13 30 0 32 58 135 77 136 4 0 12 -11 17 -25 5 -14 14 -25 21
-25 6 0 8 6 5 13 -3 6 -9 20 -12 30 -4 9 -10 17 -15 17 -15 0 -10 14 17 44 25
28 25 28 42 8 9 -11 25 -35 36 -54 11 -20 21 -28 23 -20 3 7 -4 24 -16 36 -12
12 -21 27 -21 33 0 6 -6 16 -14 22 -12 10 -8 19 22 52 20 22 38 36 40 30 2 -6
8 -11 14 -11 5 0 7 9 3 19 -9 30 11 34 29 6 15 -23 15 -27 1 -41 -8 -8 -15
-20 -15 -25 0 -17 20 -9 35 15 15 22 14 26 -4 57 l-20 33 31 23 c31 22 31 22
48 3 25 -29 35 -25 15 6 -18 27 -13 46 7 26 17 -17 33 -15 19 1 -6 8 -8 17 -4
21 4 3 23 -12 44 -34 21 -22 45 -40 54 -40z m70 22 c-2 -3 -12 -1 -22 2 -15 6
-15 9 -3 16 13 8 35 -8 25 -18z m-15 -41 c0 -5 -7 -12 -16 -15 -14 -5 -15 -4
-4 9 14 17 20 19 20 6z m195 -28 c-5 -16 -11 -123 -14 -240 l-6 -211 50 -7
c31 -4 66 -1 90 7 l40 13 6 85 c4 47 10 133 14 192 6 83 11 105 21 101 19 -7
17 0 -6 27 -32 37 -23 43 23 15 24 -14 57 -25 74 -25 l31 0 4 -67 c3 -42 12
-85 26 -112 12 -25 22 -49 22 -55 0 -16 64 -106 75 -106 51 2 87 123 60 201
-14 40 -14 40 8 34 12 -3 41 -26 64 -51 23 -24 45 -44 50 -44 5 0 16 -15 24
-32 9 -18 30 -60 47 -93 32 -62 35 -74 33 -112 -1 -22 -4 -22 -68 -18 -38 3
-120 8 -183 10 -124 5 -146 10 -172 32 -26 23 -38 7 -38 -52 0 -43 5 -58 22
-75 24 -22 11 -21 410 -23 51 -1 57 -3 63 -24 3 -13 3 -28 1 -32 -7 -11 -317
-3 -386 10 -103 19 -95 24 -95 -65 0 -73 2 -80 25 -98 29 -21 127 -34 315 -42
80 -4 121 -9 124 -17 2 -7 -4 -27 -14 -46 -18 -32 -20 -33 -79 -33 -64 0 -147
-30 -175 -63 -7 -10 -18 -17 -24 -17 -6 0 -23 -14 -39 -32 -28 -32 -36 -58
-18 -58 6 0 10 -7 10 -16 0 -13 13 -15 85 -13 55 2 90 8 97 16 14 17 48 17 48
-1 0 -16 -139 -146 -156 -146 -6 0 -18 -7 -25 -17 -8 -9 -32 -24 -55 -34 -22
-10 -49 -27 -59 -39 -38 -42 -55 -21 -54 68 0 31 3 50 6 42 12 -31 34 -46 74
-48 51 -3 69 11 69 53 0 47 -8 64 -41 81 -33 17 -61 7 -90 -29 -16 -19 -17
-14 -13 86 2 79 0 113 -11 134 -8 15 -15 33 -15 39 0 12 -42 34 -64 34 -26 0
-42 -42 -35 -90 4 -25 8 -132 8 -238 l1 -193 -27 3 -28 3 -1 95 c0 52 -4 157
-9 234 -5 102 -4 140 4 145 13 9 5 37 -13 44 -6 3 -44 2 -85 -1 -66 -4 -73 -7
-82 -30 -5 -13 -7 -40 -3 -58 4 -21 2 -40 -6 -49 -10 -12 -10 -18 0 -30 7 -9
9 -26 5 -46 -7 -32 -7 -87 -1 -194 2 -33 2 -63 0 -67 -8 -12 -45 4 -40 18 4
11 -4 12 -39 7 l-45 -6 11 32 c7 19 8 54 4 86 -7 62 -60 175 -80 175 -8 0 -18
6 -22 13 -4 8 -23 24 -41 38 -33 23 -34 23 -47 5 -27 -36 -36 -116 -22 -183
13 -60 13 -61 -6 -51 -11 5 -49 38 -86 73 -62 60 -101 120 -136 208 -8 21 -19
36 -25 32 -5 -3 -10 1 -10 9 0 29 38 35 221 36 172 1 185 3 207 22 37 36 24
109 -14 77 -13 -10 -17 -10 -24 2 -7 11 -49 15 -210 17 -166 3 -200 6 -200 18
0 8 7 17 15 20 8 3 110 2 227 -3 117 -5 215 -7 218 -5 11 8 4 142 -8 154 -10
10 -14 10 -21 -1 -7 -10 -13 -11 -30 -2 -13 7 -70 11 -148 10 -142 -2 -209 6
-236 26 -17 12 -17 17 -5 41 10 22 20 29 48 30 42 2 141 44 181 78 16 14 39
28 51 32 28 8 90 73 85 88 -8 25 -63 41 -140 41 -59 0 -74 3 -62 11 8 6 15 19
15 28 0 9 5 16 10 16 6 0 10 6 10 14 0 17 97 103 143 128 68 35 100 48 125 48
l25 0 -6 -117 c-4 -64 -11 -121 -17 -127 -5 -5 -10 -47 -10 -93 0 -82 1 -84
28 -94 15 -6 39 -9 54 -7 17 3 29 -1 33 -10 4 -11 9 -11 19 -3 10 8 13 49 14
164 1 149 10 295 19 310 2 4 11 7 20 7 12 0 14 -6 8 -27z m2 -115 c-3 -8 -6
-5 -6 6 -1 11 2 17 5 13 3 -3 4 -12 1 -19z m1160 -10 c-3 -8 -6 -5 -6 6 -1 11
2 17 5 13 3 -3 4 -12 1 -19z m-368 -255 c1 -12 13 -31 28 -43 21 -16 27 -29
25 -51 -2 -16 1 -29 7 -29 6 0 11 7 11 15 0 8 6 15 14 15 8 0 21 2 29 5 16 7
39 -47 56 -133 14 -68 14 -95 0 -86 -8 4 -8 0 0 -15 7 -11 8 -21 3 -21 -16 0
-37 32 -37 54 0 16 -7 21 -26 22 -17 1 -43 17 -70 42 -41 40 -72 52 -83 33
-10 -16 -69 -19 -171 -10 -74 7 -103 14 -112 26 -20 26 -16 33 22 33 19 0 35
-5 35 -11 0 -6 -9 -9 -20 -6 -11 3 -20 2 -20 -3 0 -8 34 -20 58 -20 6 0 12 7
12 17 0 9 3 13 7 10 3 -4 12 -2 18 3 14 12 75 2 75 -12 0 -6 -13 -8 -32 -4
-22 4 -29 3 -22 -4 5 -5 25 -13 43 -16 31 -7 34 -5 29 14 -6 21 -2 22 47 22
48 0 54 2 58 23 3 21 4 21 15 -5 12 -29 29 -40 18 -13 -3 8 -1 15 4 15 19 0
10 21 -15 32 -17 7 -30 27 -41 62 -9 27 -31 75 -47 106 l-30 55 55 -50 c33
-30 56 -59 57 -72z m-1629 77 c-6 -11 -13 -20 -16 -20 -2 0 0 9 6 20 6 11 13
20 16 20 2 0 0 -9 -6 -20z m-100 -44 c0 -3 -4 -8 -10 -11 -5 -3 -10 -1 -10 4
0 6 5 11 10 11 6 0 10 -2 10 -4z m1365 -207 c5 -5 1 -9 -13 -9 -29 0 -38 3
-34 14 2 5 -9 6 -23 4 -24 -5 -34 9 -19 25 7 7 73 -18 89 -34z m-1101 -24 c-4
-8 -12 -15 -20 -15 -20 0 -17 18 4 23 9 3 18 5 19 6 1 0 0 -6 -3 -14z m-186
-280 c6 -27 29 -102 52 -165 45 -125 118 -245 216 -354 54 -59 184 -152 246
-175 18 -7 51 -21 73 -31 22 -10 85 -28 140 -40 55 -13 105 -26 110 -31 6 -4
30 -3 55 1 75 15 140 12 140 -5 0 -8 -10 -16 -22 -16 -102 -7 -170 -6 -208 3
-262 59 -430 147 -563 296 -76 85 -160 212 -187 282 -7 19 -17 40 -21 45 -6 9
-33 120 -58 243 -13 62 -14 136 -3 172 5 17 9 -8 13 -75 3 -55 11 -122 17
-150z m444 198 c42 -28 46 -33 26 -33 -13 0 -29 5 -36 12 -9 9 -12 9 -12 0 0
-22 -30 -13 -76 22 -75 58 13 57 98 -1z m88 35 c59 -3 70 -10 70 -45 0 -12 8
-26 17 -32 10 -5 15 -13 10 -17 -4 -4 -15 0 -25 9 -10 10 -28 17 -40 17 -12 0
-22 4 -22 9 0 5 -8 7 -17 5 -19 -5 -103 44 -103 59 0 5 12 6 28 3 15 -3 52 -6
82 -8z m1220 -56 c0 -4 19 -18 41 -32 l40 -24 -3 -81 c-3 -74 -5 -80 -23 -76
-19 3 -19 2 -3 -16 12 -13 14 -23 8 -33 -5 -8 -10 -26 -11 -40 0 -22 -1 -23
-8 -5 -7 17 -9 15 -20 -17 -18 -54 -74 -154 -79 -140 -2 7 -8 12 -14 12 -7 0
-6 -5 1 -14 10 -12 5 -26 -22 -69 -20 -30 -52 -68 -72 -83 -21 -16 -51 -44
-69 -63 -17 -19 -53 -51 -80 -73 -41 -32 -51 -36 -64 -26 -13 11 -15 10 -10
-9 6 -21 -14 -39 -36 -34 -4 1 -13 -5 -20 -13 -6 -8 -29 -17 -51 -21 -37 -5
-42 -4 -58 25 -10 17 -23 28 -28 25 -14 -9 -11 -25 5 -25 7 0 16 -9 19 -20 5
-19 -12 -27 -46 -21 -4 1 -23 -5 -42 -14 -20 -8 -58 -17 -85 -20 -40 -4 -51
-2 -60 12 -10 15 -11 15 -6 1 6 -20 -17 -31 -33 -15 -8 8 -14 8 -19 1 -16 -23
-122 -8 -122 17 0 5 -7 9 -16 9 -14 0 -14 -2 -3 -16 12 -15 11 -16 -16 -10
-17 3 -47 8 -67 11 -20 4 -59 18 -85 32 -26 14 -67 36 -90 49 -69 38 -92 55
-98 74 -7 22 -81 100 -95 100 -6 0 -8 -5 -5 -10 13 -22 -8 -8 -45 29 -52 52
-51 61 2 19 l43 -33 -37 50 c-51 69 -78 96 -87 90 -5 -2 -14 10 -21 28 -6 17
-16 41 -22 52 -8 13 -8 20 0 23 8 2 6 12 -5 30 -11 17 -12 22 -3 15 19 -18 27
-16 33 7 6 23 -23 54 -31 32 -3 -10 -8 -9 -23 4 -18 16 -19 16 -20 -2 -1 -39
-68 141 -69 185 0 11 3 11 15 1 8 -7 15 -20 15 -30 0 -9 9 -25 21 -36 14 -12
18 -25 14 -41 -4 -16 -1 -23 9 -23 7 0 16 -10 20 -22 4 -15 9 -19 13 -12 5 6
15 9 23 5 26 -11 60 -36 60 -44 0 -14 61 -99 124 -173 44 -50 81 -81 129 -108
38 -21 71 -35 74 -32 3 3 -4 37 -17 75 -18 56 -21 81 -15 130 4 34 11 61 16
61 5 0 9 -5 9 -11 0 -6 20 -31 46 -55 25 -24 43 -48 40 -52 -2 -4 -1 -14 5
-22 7 -12 9 -11 10 5 0 11 7 -11 15 -49 9 -49 10 -74 3 -88 -8 -15 -14 -17
-22 -9 -15 15 -27 14 -27 -2 0 -7 13 -26 30 -42 16 -16 30 -23 30 -16 0 7 5 9
11 6 6 -4 8 -14 5 -22 -3 -8 -2 -11 3 -8 5 3 12 1 16 -5 3 -5 16 -15 27 -21
18 -10 20 -9 15 5 -6 14 -3 16 16 10 12 -3 27 -10 32 -14 13 -9 45 -20 45 -15
0 2 -7 11 -16 20 -18 18 -12 45 10 45 9 0 21 -10 27 -22 9 -19 9 -21 -2 -10
-22 21 -31 13 -12 -12 10 -13 21 -22 26 -19 14 9 7 54 -13 70 -11 10 -20 24
-20 32 0 11 4 10 20 -4 25 -23 26 -11 1 21 -12 15 -18 40 -18 71 0 27 2 40 4
31 2 -10 9 -18 14 -18 13 0 11 11 -6 30 -13 14 -17 81 -13 243 1 27 21 37 33
17 3 -5 19 -10 35 -10 16 0 31 -4 35 -9 3 -5 7 -117 9 -248 l4 -238 23 -1 c13
-1 32 -5 42 -9 10 -4 17 -3 17 4 0 15 33 14 48 -1 9 -9 12 -8 12 4 0 9 -4 20
-10 23 -14 8 -13 55 1 55 6 0 13 -9 16 -20 6 -22 61 -37 90 -25 10 5 26 7 35
6 11 -1 16 3 13 11 -4 9 7 19 29 28 19 7 37 19 40 27 3 7 15 13 26 13 11 0 20
6 20 14 0 25 48 48 83 40 31 -6 31 -6 15 13 -16 18 -16 19 3 31 11 7 24 10 29
7 6 -4 10 0 10 8 0 8 7 20 15 27 8 7 15 20 15 29 0 9 13 36 28 61 l28 44 -20
23 c-24 28 -41 30 -26 3 6 -11 7 -21 3 -22 -4 0 -12 -2 -18 -2 -5 -1 -20 -8
-33 -15 -18 -10 -26 -10 -38 0 -11 9 -14 8 -14 -6 0 -13 -6 -11 -30 12 -33 31
-37 43 -16 43 8 0 17 7 20 15 3 9 22 23 42 31 33 14 37 14 49 -3 7 -10 17 -15
21 -11 4 4 1 15 -6 23 -12 14 -9 16 28 11 58 -7 110 16 127 56 7 18 10 39 7
47 -3 9 -1 12 6 7 21 -13 13 10 -10 31 -33 29 -49 37 -46 21 2 -8 -5 -12 -17
-10 -11 2 -27 3 -35 3 -98 -3 -133 0 -164 13 -20 8 -36 11 -36 5 0 -12 -13
-11 -47 2 -15 7 -40 11 -56 10 -15 -2 -41 0 -58 4 -29 7 -29 8 -15 30 8 12 12
32 9 43 -4 18 1 21 42 28 63 9 153 -1 174 -20 10 -9 24 -16 31 -16 9 0 7 5 -6
15 -18 15 -18 16 11 11 49 -9 158 -9 193 -1 32 7 33 10 29 46 l-4 39 38 -31
c22 -17 39 -34 39 -37z m-632 -453 c1 -88 -2 -138 -8 -134 -6 3 -10 -1 -10
-11 0 -13 -3 -14 -15 -4 -12 10 -15 41 -15 161 l0 149 23 -11 c23 -10 24 -14
25 -150z m772 116 c-16 -47 -23 -40 -9 9 6 21 13 36 16 33 3 -3 0 -22 -7 -42z
m-509 -75 c21 -17 22 -19 6 -20 -10 0 -25 6 -33 14 -30 31 -8 36 27 6z m726
-102 c-3 -8 -6 -5 -6 6 -1 11 2 17 5 13 3 -3 4 -12 1 -19z m-836 -8 c15 0 10
-44 -7 -68 -22 -31 -55 -25 -67 12 -8 25 -7 32 13 48 13 10 30 16 37 13 8 -3
19 -5 24 -5z m-1051 -30 c0 -5 -4 -10 -10 -10 -5 0 -10 5 -10 10 0 6 5 10 10
10 6 0 10 -4 10 -10z m1881 -121 c-8 -51 -9 -52 -10 -14 -1 42 10 97 16 79 2
-6 -1 -35 -6 -65z m-978 16 c-4 -11 -7 -28 -7 -37 0 -10 -5 -18 -11 -18 -21 0
-35 24 -35 61 0 37 0 37 30 26 24 -9 29 -15 23 -32z m571 -20 c-4 -8 -11 -15
-16 -15 -6 0 -5 6 2 15 7 8 14 15 16 15 2 0 1 -7 -2 -15z m379 -275 c3 -11 1
-18 -4 -14 -5 3 -9 12 -9 20 0 20 7 17 13 -6z m108 -111 c-6 -37 -9 -44 -10
-23 -1 37 11 104 16 88 2 -5 -1 -35 -6 -65z m-211 -193 c0 -2 -9 -6 -20 -9
-11 -3 -18 -1 -14 4 5 9 34 13 34 5z m-800 -86 c0 -5 -17 -10 -37 -10 -21 0
-48 -3 -60 -6 -14 -4 -23 -2 -23 4 0 6 24 13 53 15 28 2 55 4 60 5 4 1 7 -2 7
-8z"/>
<path d="M2157 1246 c-4 -10 -5 -21 -2 -24 9 -9 17 6 13 25 -3 17 -4 17 -11
-1z"/>
<path d="M1483 2246 c-28 -13 -29 -37 -4 -60 25 -23 45 -13 31 15 -6 10 -7 19
-2 19 17 0 47 -42 44 -61 -2 -14 3 -19 20 -19 13 0 42 -18 67 -41 24 -22 46
-38 49 -34 3 3 -3 12 -14 20 -14 11 -16 17 -7 23 18 12 -1 36 -22 28 -19 -7
-55 18 -55 38 -1 15 -30 48 -60 66 -19 12 -31 13 -47 6z"/>
<path d="M1400 2215 c0 -8 7 -15 15 -15 8 0 15 7 15 15 0 8 -7 15 -15 15 -8 0
-15 -7 -15 -15z"/>
<path d="M1030 2191 c0 -6 4 -13 10 -16 6 -3 7 1 4 9 -7 18 -14 21 -14 7z"/>
<path d="M1181 2113 c0 -5 4 -17 9 -28 8 -18 9 -17 9 8 1 15 -3 27 -9 27 -5 0
-10 -3 -9 -7z"/>
<path d="M1616 2078 c6 -17 129 -108 145 -108 19 0 -16 34 -82 79 -65 45 -71
47 -63 29z"/>
<path d="M1711 2076 c-12 -14 -5 -26 16 -26 15 0 18 26 4 34 -5 3 -14 0 -20
-8z"/>
<path d="M1767 2013 c-13 -12 -7 -23 13 -23 13 0 18 5 14 15 -7 16 -17 19 -27
8z"/>
<path d="M1540 1961 c0 -5 7 -15 17 -22 15 -13 15 -12 4 9 -12 23 -21 28 -21
13z"/>
<path d="M1780 1961 l-25 -7 25 -14 c14 -7 29 -19 33 -26 11 -20 34 -17 39 4
4 15 1 18 -18 14 -14 -2 -24 0 -24 7 0 6 5 11 10 11 6 0 10 5 10 10 0 11 -13
11 -50 1z"/>
<path d="M1528 1889 c18 -16 37 -27 42 -24 13 8 13 45 0 45 -5 0 -10 -5 -10
-11 0 -7 -10 -5 -25 5 -39 26 -43 18 -7 -15z"/>
<path d="M1191 1754 c0 -11 3 -14 6 -6 3 7 2 16 -1 19 -3 4 -6 -2 -5 -13z"/>
<path d="M1970 1711 c0 -5 5 -13 10 -16 6 -3 10 -2 10 4 0 5 -4 13 -10 16 -5
3 -10 2 -10 -4z"/>
<path d="M787 2173 c-12 -11 -8 -21 13 -26 15 -4 20 0 20 14 0 18 -20 26 -33
12z"/>
<path d="M670 2142 c0 -13 39 -52 52 -52 5 0 6 5 3 10 -3 6 1 10 9 10 9 0 16
9 16 20 0 24 -28 27 -37 5 -5 -14 -8 -14 -24 1 -11 9 -19 12 -19 6z"/>
<path d="M770 2122 c0 -12 19 -26 26 -19 2 2 -2 10 -11 17 -9 8 -15 8 -15 2z"/>
<path d="M560 2035 c0 -15 34 -55 46 -55 23 0 16 26 -11 44 -25 17 -35 20 -35
11z"/>
<path d="M503 1950 c0 -22 5 -30 19 -30 20 0 23 12 8 41 -15 28 -27 23 -27
-11z"/>
<path d="M452 1869 c-19 -7 -21 -12 -12 -28 5 -11 19 -23 30 -26 11 -3 20 -13
20 -20 0 -14 37 -45 54 -45 5 0 0 9 -12 20 -34 32 -55 68 -49 85 8 19 -3 24
-31 14z"/>
<path d="M386 1743 c-9 -22 12 -43 23 -24 10 15 4 41 -9 41 -4 0 -11 -8 -14
-17z"/>
<path d="M370 1450 c0 -5 5 -10 10 -10 6 0 10 5 10 10 0 6 -4 10 -10 10 -5 0
-10 -4 -10 -10z"/>
<path d="M310 1359 c0 -24 23 -21 28 4 2 10 -3 17 -12 17 -10 0 -16 -9 -16
-21z"/>
<path d="M817 2052 c-48 -29 -53 -92 -11 -129 28 -25 82 -31 102 -11 18 18 14
68 -8 108 -11 19 -19 31 -20 25 0 -5 -5 -2 -11 8 -12 21 -17 21 -52 -1z m71
-55 c2 -16 8 -25 14 -21 5 4 2 -6 -8 -22 -10 -16 -19 -30 -20 -32 -1 -2 -13 0
-27 3 -37 10 -42 44 -10 77 32 33 47 32 51 -5z"/>
<path d="M842 1988 c-18 -18 -14 -38 8 -38 13 0 20 7 20 19 0 25 -13 34 -28
19z"/>
<path d="M710 1976 c0 -9 5 -16 10 -16 6 0 10 4 10 9 0 6 -4 13 -10 16 -5 3
-10 -1 -10 -9z"/>
<path d="M1670 1782 c-19 -9 -36 -25 -38 -35 -5 -26 19 -82 28 -67 5 8 12 6
22 -8 8 -12 31 -23 53 -27 27 -4 35 -3 26 3 -15 11 -6 36 10 27 5 -4 9 13 9
38 0 33 -6 49 -23 65 -28 27 -42 27 -87 4z m84 -28 c15 -40 -26 -98 -52 -72
-18 18 -14 30 8 23 15 -5 20 -2 20 14 0 25 -18 37 -26 17 -12 -31 -25 -2 -15
32 4 10 60 -1 65 -14z"/>
<path d="M1103 1533 c-7 -2 -15 -20 -19 -39 -3 -19 -10 -37 -15 -40 -5 -3 -9
-22 -9 -42 0 -45 36 -108 72 -126 24 -13 29 -12 43 4 12 13 26 17 44 14 53
-11 117 116 79 154 -10 10 -10 15 2 22 12 7 11 10 -5 15 -11 4 -39 15 -63 26
-40 18 -101 24 -129 12z m142 -33 c3 -5 1 -10 -4 -10 -6 0 -11 5 -11 10 0 6 2
10 4 10 3 0 8 -4 11 -10z m-128 -22 c-3 -8 -6 -5 -6 6 -1 11 2 17 5 13 3 -3 4
-12 1 -19z m83 2 c0 -5 9 -10 20 -10 14 0 20 -7 20 -24 0 -34 -24 -39 -51 -10
-30 32 -37 23 -10 -15 30 -42 11 -47 -28 -7 -21 21 -29 36 -22 40 6 4 11 1 11
-6 1 -7 8 -1 16 15 14 26 44 38 44 17z m-93 -57 c-3 -10 -5 -4 -5 12 0 17 2
24 5 18 2 -7 2 -21 0 -30z m153 -33 c-16 -31 -23 -18 -8 15 7 15 14 23 16 17
2 -6 -2 -21 -8 -32z m-115 0 c3 -5 1 -10 -4 -10 -6 0 -11 5 -11 10 0 6 2 10 4
10 3 0 8 -4 11 -10z"/>
<path d="M551 1193 c-54 -44 -6 -143 69 -143 42 0 50 10 50 64 0 42 -5 57 -23
74 -28 27 -67 28 -96 5z m99 -38 c12 -22 11 -30 -4 -61 -16 -34 -18 -35 -39
-21 -30 20 -35 47 -8 40 15 -4 21 -1 21 12 0 12 -6 16 -20 12 -22 -6 -27 12
-8 31 19 19 44 14 58 -13z"/>
<path d="M1956 1575 c3 -8 10 -15 15 -15 5 0 9 -8 9 -19 0 -15 8 -19 40 -19
28 -1 40 4 40 13 0 8 -4 17 -10 20 -5 3 -10 1 -10 -5 0 -7 -19 -1 -45 14 -32
19 -43 22 -39 11z"/>
<path d="M1546 1405 c-21 -16 -22 -16 47 -20 31 -2 36 0 25 10 -22 21 -52 25
-72 10z"/>
<path d="M1485 1390 c3 -5 10 -10 16 -10 5 0 9 5 9 10 0 6 -7 10 -16 10 -8 0
-12 -4 -9 -10z"/>
<path d="M1800 1373 c0 -11 63 -53 69 -47 3 3 -8 16 -24 29 -31 25 -45 31 -45
18z"/>
<path d="M1930 1365 c7 -9 15 -13 17 -11 7 7 -7 26 -19 26 -6 0 -6 -6 2 -15z"/>
<path d="M1550 1366 c0 -12 42 -47 52 -44 6 2 -3 14 -20 27 -18 12 -32 20 -32
17z"/>
<path d="M1745 1350 c3 -6 21 -17 38 -26 l32 -17 -24 27 c-23 25 -59 37 -46
16z"/>
<path d="M2025 1349 c-10 -15 1 -23 20 -15 9 3 13 10 10 16 -8 13 -22 13 -30
-1z"/>
<path d="M1984 1311 c11 -11 23 -21 28 -21 14 0 -1 19 -25 31 -22 12 -22 12
-3 -10z"/>
<path d="M2042 1265 c-37 -20 -37 -25 2 -23 37 1 41 5 28 24 -5 7 -14 7 -30
-1z"/>
<path d="M1990 1160 c0 -11 4 -20 10 -20 5 0 14 9 20 20 9 17 8 20 -10 20 -13
0 -20 -7 -20 -20z"/>
<path d="M1936 1151 c-4 -7 -5 -15 -2 -18 9 -9 19 4 14 18 -4 11 -6 11 -12 0z"/>
<path d="M1965 1110 c-8 -13 12 -40 31 -40 19 0 18 7 -5 31 -13 14 -21 17 -26
9z"/>
<path d="M1713 1078 c2 -7 10 -13 17 -13 7 0 15 6 18 13 2 7 -5 12 -18 12 -13
0 -20 -5 -17 -12z"/>
<path d="M430 1025 c0 -17 5 -25 13 -22 6 2 12 12 12 22 0 10 -6 20 -12 23 -8
2 -13 -6 -13 -23z"/>
<path d="M1917 1026 c-6 -15 1 -26 15 -26 11 0 10 27 -1 34 -5 3 -11 0 -14 -8z"/>
<path d="M1143 1015 c0 -8 4 -15 9 -15 4 0 8 4 8 9 0 6 -4 12 -8 15 -5 3 -9
-1 -9 -9z"/>
<path d="M1120 971 c0 -5 5 -13 10 -16 6 -3 10 -2 10 4 0 5 -4 13 -10 16 -5 3
-10 2 -10 -4z"/>
<path d="M463 948 c2 -7 10 -13 17 -13 7 0 15 6 18 13 2 7 -5 12 -18 12 -13 0
-20 -5 -17 -12z"/>
<path d="M1857 925 c-5 -10 0 -15 14 -15 12 0 19 5 17 12 -6 18 -25 20 -31 3z"/>
<path d="M526 884 c-7 -19 2 -37 15 -28 6 3 19 -2 30 -12 34 -30 29 -10 -5 24
-28 27 -35 30 -40 16z"/>
<path d="M1780 846 c0 -9 7 -16 16 -16 9 0 14 5 12 12 -6 18 -28 21 -28 4z"/>
<path d="M607 813 c-12 -11 -8 -21 13 -26 15 -4 20 0 20 14 0 18 -20 26 -33
12z"/>
<path d="M825 810 c-3 -5 1 -10 9 -10 9 0 16 5 16 10 0 6 -4 10 -9 10 -6 0
-13 -4 -16 -10z"/>
<path d="M1640 796 c0 -2 16 -20 35 -40 23 -24 35 -32 35 -22 0 9 5 16 10 16
6 0 10 7 10 16 0 12 -6 15 -21 11 -12 -3 -28 0 -36 9 -13 13 -33 19 -33 10z"/>
<path d="M780 770 c0 -9 61 -63 66 -57 2 1 1 13 -2 24 -6 21 -64 51 -64 33z"/>
<path d="M672 743 c5 -25 28 -28 28 -4 0 12 -6 21 -16 21 -9 0 -14 -7 -12 -17z"/>
<path d="M1150 721 c0 -5 5 -13 10 -16 6 -3 10 -2 10 4 0 5 -4 13 -10 16 -5 3
-10 2 -10 -4z"/>
<path d="M754 699 c-3 -6 -1 -16 4 -21 13 -13 45 8 36 23 -7 12 -31 11 -40 -2z"/>
<path d="M1593 694 c-9 -25 13 -40 26 -16 10 19 6 32 -11 32 -5 0 -11 -7 -15
-16z"/>
<path d="M862 675 c-24 -25 -29 -45 -9 -45 19 0 34 13 41 37 10 31 -6 35 -32
8z"/>
<path d="M910 660 c0 -5 5 -10 11 -10 5 0 7 5 4 10 -3 6 -8 10 -11 10 -2 0 -4
-4 -4 -10z"/>
<path d="M1512 643 c2 -10 8 -18 13 -18 5 0 11 8 13 18 2 10 -3 17 -13 17 -10
0 -15 -7 -13 -17z"/>
<path d="M926 630 c-19 -20 -19 -20 15 -17 22 2 34 8 34 17 0 22 -27 22 -49 0z"/>
<path d="M1190 632 c0 -12 19 -26 26 -19 2 2 -2 10 -11 17 -9 8 -15 8 -15 2z"/>
<path d="M1026 601 c-6 -9 41 -57 49 -49 3 2 -1 16 -8 31 -12 27 -31 35 -41
18z"/>
<path d="M1327 603 c-4 -3 -7 -12 -7 -20 0 -15 26 -18 34 -4 7 11 -18 33 -27
24z"/>
<path d="M1225 590 c-7 -11 2 -30 15 -30 4 0 10 6 13 14 6 16 -19 30 -28 16z"/>
<path d="M1132 578 c5 -15 37 -18 41 -3 1 6 -9 12 -22 13 -16 3 -22 -1 -19
-10z"/>
<path d="M1270 571 c0 -12 5 -21 10 -21 6 0 10 6 10 14 0 8 -4 18 -10 21 -5 3
-10 -3 -10 -14z"/>
<path d="M1470 875 c0 -8 7 -15 15 -15 8 0 15 7 15 15 0 8 -7 15 -15 15 -8 0
-15 -7 -15 -15z"/>
<path d="M2640 2014 c0 -8 5 -12 10 -9 6 3 10 10 10 16 0 5 -4 9 -10 9 -5 0
-10 -7 -10 -16z"/>
<path d="M2499 395 c-1 -3 -2 -8 -3 -12 -1 -5 -6 -19 -10 -32 -5 -13 -4 -27 2
-33 6 -6 12 0 16 19 4 15 9 36 12 46 3 9 1 17 -5 17 -6 0 -12 -2 -12 -5z"/>
<path d="M1 153 c1 -34 2 -35 9 -13 11 36 11 50 0 50 -5 0 -10 -17 -9 -37z"/>
</g>
</svg>
