<?xml version="1.0" standalone="no"?>
<!DOCTYPE svg PUBLIC "-//W3C//DTD SVG 20010904//EN"
 "http://www.w3.org/TR/2001/REC-SVG-20010904/DTD/svg10.dtd">
<svg version="1.0" xmlns="http://www.w3.org/2000/svg"
 width="257.000000pt" height="127.000000pt" viewBox="0 0 257.000000 127.000000"
 preserveAspectRatio="xMidYMid meet">
<metadata>
Created by potrace 1.16, written by Peter Selinger 2001-2019
</metadata>
<g transform="translate(0.000000,127.000000) scale(0.100000,-0.100000)"
fill="#000000" stroke="none">
<path d="M59 1209 c5 -35 6 -397 1 -484 -1 -11 -1 -31 0 -45 1 -14 -1 -106 -3
-204 -4 -145 -2 -184 9 -202 8 -12 14 -39 12 -60 -5 -90 2 -142 19 -149 10 -3
19 -1 21 4 2 6 8 11 14 11 6 0 8 -6 5 -14 -7 -17 69 -25 153 -15 30 3 111 5
180 3 69 -1 150 -1 180 -1 30 1 127 0 215 -2 427 -11 804 -6 1040 14 97 8 169
8 235 2 52 -6 147 -11 210 -11 64 -1 118 -5 122 -11 5 -6 12 -5 20 3 21 21 37
533 22 692 -7 69 -12 189 -12 268 0 78 -2 146 -6 149 -3 3 -1 12 5 19 8 9 1
17 -25 29 -20 10 -36 22 -36 27 0 5 -12 7 -27 4 -27 -6 -181 -7 -688 -6 -132
0 -343 0 -470 -1 -126 -1 -313 -2 -415 -1 -102 0 -228 1 -280 1 -170 -1 -424
8 -466 16 l-41 7 6 -43z m706 -204 c121 -6 161 -16 157 -38 -1 -8 7 -18 18
-22 13 -4 20 -15 20 -31 0 -18 5 -25 18 -23 32 3 44 -1 40 -13 -11 -31 -212
-7 -344 42 -11 5 -27 4 -35 0 -8 -5 -19 -5 -26 1 -7 6 -17 8 -22 4 -17 -10
-68 22 -74 47 -4 12 -4 24 -1 27 7 8 95 18 124 15 14 -2 70 -6 125 -9z m1062
-17 c16 -8 26 -8 35 0 13 10 74 6 218 -17 36 -6 86 -11 113 -11 35 0 47 -4 47
-15 0 -11 12 -15 46 -15 27 0 43 -4 39 -10 -4 -6 20 -10 64 -10 41 0 71 -4 71
-10 0 -5 -12 -10 -27 -10 l-28 -1 25 -12 25 -12 3 -225 c2 -124 6 -249 9 -277
5 -45 3 -53 -11 -53 -9 0 -16 7 -16 16 0 12 -5 14 -17 8 -38 -16 -92 -16 -108
0 -17 17 -35 13 -35 -7 0 -7 -16 -13 -36 -14 -20 -1 -42 -7 -47 -12 -13 -13
-54 -14 -61 -2 -4 5 0 12 6 14 7 3 -8 6 -34 6 -27 1 -48 5 -48 10 0 5 7 8 16
7 9 0 18 4 20 9 3 6 -18 8 -53 6 -32 -3 -49 -6 -38 -9 31 -6 42 -22 16 -22
-12 0 -19 -4 -16 -10 4 -6 -7 -10 -24 -10 -24 0 -31 4 -31 20 0 12 7 20 17 20
24 0 12 8 -20 14 -21 4 -27 1 -27 -13 0 -14 -7 -16 -35 -13 -20 2 -35 10 -35
17 0 10 -22 16 -70 21 -65 6 -69 8 -64 28 5 20 2 22 -33 18 -21 -3 -41 -9 -45
-15 -9 -15 -111 -38 -122 -27 -5 5 -20 4 -34 -1 -18 -7 -31 -5 -48 6 -18 12
-29 13 -43 5 -11 -5 -30 -10 -43 -9 -13 0 -68 -2 -123 -4 -55 -3 -124 0 -152
6 -53 12 -71 27 -32 27 16 0 19 4 14 18 -4 9 -10 25 -12 35 -10 33 -60 19 -54
-16 1 -4 -6 -10 -14 -13 -20 -8 -9 -24 16 -24 12 0 17 -4 13 -11 -8 -13 -84
-5 -93 10 -9 14 -71 24 -71 10 0 -12 -42 -2 -51 14 -4 5 -18 10 -33 10 -14 0
-26 4 -26 9 0 5 -4 7 -8 4 -11 -7 -144 75 -150 92 -2 8 2 10 14 5 11 -4 15 -3
11 4 -4 6 -19 14 -34 18 -34 8 -53 23 -53 42 0 11 4 11 20 3 11 -6 24 -8 29
-6 5 3 11 -1 15 -9 7 -19 26 -20 26 -1 0 8 -17 20 -37 26 -63 20 -101 39 -107
56 -10 26 -7 34 11 27 13 -5 15 -2 11 15 -4 12 -2 22 3 22 5 0 9 5 9 10 0 6
-7 10 -15 10 -15 0 -31 61 -20 79 11 18 -5 34 -21 20 -11 -9 -14 -8 -14 8 0
11 3 23 7 27 5 4 15 28 23 53 16 50 41 71 33 28 -3 -14 -1 -25 4 -25 5 0 23
-13 41 -30 20 -18 44 -30 61 -30 15 0 33 -6 39 -12 10 -10 15 -10 20 -1 6 9
26 7 82 -8 96 -26 351 -33 372 -10 9 10 10 12 1 7 -8 -4 -13 -1 -13 8 0 8 5
16 11 18 6 2 5 14 -5 32 -19 38 -13 46 28 39 19 -3 56 0 83 6 46 11 185 20
380 24 50 1 94 4 96 7 9 9 121 -1 144 -12z m-790 -23 c9 -25 -2 -27 -22 -5
-17 18 -17 20 -1 20 9 0 19 -7 23 -15z m29 -49 c21 -21 17 -46 -6 -46 -16 0
-20 7 -20 30 0 34 5 37 26 16z m-626 -123 c0 -7 -4 -13 -10 -13 -5 0 -10 12
-10 28 0 21 2 24 10 12 5 -8 10 -21 10 -27z m14 -49 c5 -14 4 -15 -9 -4 -17
14 -19 20 -6 20 5 0 12 -7 15 -16z m1616 -444 c0 -5 -7 -7 -15 -4 -8 4 -15 8
-15 10 0 2 7 4 15 4 8 0 15 -4 15 -10z m40 0 c0 -5 -2 -10 -4 -10 -3 0 -8 5
-11 10 -3 6 -1 10 4 10 6 0 11 -4 11 -10z"/>
<path d="M1760 945 c0 -14 5 -25 10 -25 6 0 10 11 10 25 0 14 -4 25 -10 25 -5
0 -10 -11 -10 -25z"/>
<path d="M1833 943 c-20 -3 -34 -11 -38 -23 -3 -11 -25 -33 -48 -51 -50 -37
-41 -35 27 6 44 27 109 76 96 73 -3 -1 -19 -3 -37 -5z"/>
<path d="M1846 875 c-26 -24 -34 -45 -17 -45 6 0 18 13 27 29 10 17 21 28 26
25 4 -3 8 0 8 5 0 18 -15 13 -44 -14z"/>
<path d="M513 813 c-7 -3 -13 -11 -13 -19 0 -8 -5 -14 -11 -14 -18 0 8 -27 42
-44 34 -17 33 -17 15 20 -13 24 -13 29 1 39 14 11 14 12 -3 17 -10 3 -25 3
-31 1z"/>
<path d="M570 772 c0 -5 11 -12 25 -15 16 -3 24 0 22 7 -4 14 -47 21 -47 8z"/>
<path d="M590 716 c0 -7 7 -19 15 -26 16 -13 21 -40 7 -40 -4 0 -13 5 -20 12
-8 8 -12 8 -12 1 0 -6 7 -16 15 -23 8 -7 15 -9 15 -6 0 4 9 2 21 -5 19 -10 20
-9 14 13 -17 59 -55 111 -55 74z"/>
<path d="M500 687 c8 -8 28 -18 44 -21 25 -6 27 -5 13 8 -8 8 -28 18 -43 22
-26 6 -27 5 -14 -9z"/>
<path d="M665 630 c-7 -11 34 -31 48 -23 5 3 11 -4 14 -16 3 -12 12 -21 19
-21 16 0 19 16 4 25 -6 4 -9 14 -8 23 2 13 -6 18 -34 20 -20 2 -39 -2 -43 -8z"/>
<path d="M610 600 c0 -5 5 -10 10 -10 6 0 10 5 10 10 0 6 -4 10 -10 10 -5 0
-10 -4 -10 -10z"/>
<path d="M880 599 c0 -5 5 -7 10 -4 6 3 10 8 10 11 0 2 -4 4 -10 4 -5 0 -10
-5 -10 -11z"/>
<path d="M810 553 c0 -17 9 -41 21 -54 11 -13 17 -17 12 -9 -4 8 -8 28 -9 43
-2 42 -24 60 -24 20z"/>
<path d="M764 526 c1 -35 4 -40 29 -43 30 -4 34 4 12 33 -12 16 -16 17 -24 5
-7 -11 -10 -8 -14 15 -3 21 -4 18 -3 -10z"/>
<path d="M901 528 c0 -13 3 -17 6 -10 2 6 12 12 21 12 15 0 15 2 2 10 -23 15
-30 12 -29 -12z"/>
<path d="M650 531 c0 -5 5 -13 10 -16 6 -3 10 -2 10 4 0 5 -4 13 -10 16 -5 3
-10 2 -10 -4z"/>
<path d="M860 491 c0 -10 7 -24 15 -31 8 -7 15 -19 15 -26 0 -8 10 -14 22 -14
19 0 20 1 6 18 -9 9 -19 27 -22 39 -9 28 -36 39 -36 14z"/>
<path d="M720 466 c0 -2 7 -6 15 -10 8 -3 15 -1 15 4 0 6 -7 10 -15 10 -8 0
-15 -2 -15 -4z"/>
<path d="M1654 459 c-7 -12 -5 -15 23 -23 12 -4 24 -2 28 4 3 6 11 8 16 5 5
-4 9 0 9 7 0 16 -67 21 -76 7z"/>
<path d="M1805 460 c-18 -7 -18 -8 7 -15 37 -10 59 -2 33 12 -11 6 -29 7 -40
3z"/>
<path d="M1875 450 c-3 -5 1 -10 9 -10 9 0 16 5 16 10 0 6 -4 10 -9 10 -6 0
-13 -4 -16 -10z"/>
<path d="M1988 443 c12 -2 30 -2 40 0 9 3 -1 5 -23 4 -22 0 -30 -2 -17 -4z"/>
<path d="M2215 440 c-3 -5 1 -10 9 -10 9 0 16 5 16 10 0 6 -4 10 -9 10 -6 0
-13 -4 -16 -10z"/>
<path d="M2296 441 c-3 -5 15 -11 40 -13 49 -4 68 6 31 16 -32 9 -65 7 -71 -3z"/>
<path d="M1150 430 c0 -5 5 -10 10 -10 6 0 10 5 10 10 0 6 -4 10 -10 10 -5 0
-10 -4 -10 -10z"/>
<path d="M1258 433 c7 -3 16 -2 19 1 4 3 -2 6 -13 5 -11 0 -14 -3 -6 -6z"/>
<path d="M1921 404 c0 -11 3 -14 6 -6 3 7 2 16 -1 19 -3 4 -6 -2 -5 -13z"/>
<path d="M1842 401 c-21 -13 11 -21 45 -11 15 4 20 9 11 9 -9 1 -22 3 -30 6
-7 3 -19 1 -26 -4z"/>
<path d="M1941 396 c12 -10 59 -15 59 -6 0 5 -14 10 -32 10 -17 0 -29 -2 -27
-4z"/>
<path d="M2056 389 c3 -5 47 -9 97 -8 110 1 104 6 -15 12 -50 3 -85 1 -82 -4z"/>
<path d="M2320 380 c0 -5 7 -10 16 -10 8 0 12 5 9 10 -3 6 -10 10 -16 10 -5 0
-9 -4 -9 -10z"/>
<path d="M2315 350 c3 -5 13 -10 21 -10 8 0 14 5 14 10 0 6 -9 10 -21 10 -11
0 -17 -4 -14 -10z"/>
<path d="M2208 333 c7 -3 16 -2 19 1 4 3 -2 6 -13 5 -11 0 -14 -3 -6 -6z"/>
</g>
</svg>
