<?xml version="1.0" standalone="no"?>
<!DOCTYPE svg PUBLIC "-//W3C//DTD SVG 20010904//EN"
 "http://www.w3.org/TR/2001/REC-SVG-20010904/DTD/svg10.dtd">
<svg version="1.0" xmlns="http://www.w3.org/2000/svg"
 width="273.000000pt" height="269.000000pt" viewBox="0 0 273.000000 269.000000"
 preserveAspectRatio="xMidYMid meet">
<metadata>
Created by potrace 1.16, written by Peter Selinger 2001-2019
</metadata>
<g transform="translate(0.000000,269.000000) scale(0.100000,-0.100000)"
fill="#000000" stroke="none">
<path d="M2210 2676 c0 -10 -15 -14 -57 -15 -32 0 -96 -8 -143 -16 -47 -9
-107 -20 -134 -24 -27 -5 -211 -9 -409 -10 -198 -1 -403 -6 -456 -11 -159 -16
-281 -13 -303 7 -17 15 -20 15 -41 -4 -25 -24 -73 -28 -389 -39 -149 -5 -188
-10 -188 -20 0 -9 -11 -14 -30 -14 -23 0 -31 -5 -36 -25 -3 -13 -1 -118 5
-232 6 -115 13 -359 16 -543 10 -570 14 -712 24 -810 7 -58 8 -202 3 -370 -8
-328 -8 -411 2 -467 l8 -41 67 1 c36 1 69 6 72 10 3 5 48 8 100 7 52 -1 101
-1 109 0 8 1 206 3 440 3 234 1 431 6 439 11 23 15 292 11 301 -4 6 -9 10 -8
18 6 9 17 29 18 279 19 147 0 271 4 274 8 4 5 94 11 200 14 133 3 203 9 222
18 25 12 29 12 46 -7 32 -33 56 -17 58 39 1 26 -2 52 -7 58 -12 15 -17 167
-29 835 -5 322 -6 603 -1 625 12 57 7 684 -5 693 -5 4 -11 57 -13 117 -3 121
-17 175 -43 175 -10 0 -19 -6 -22 -12 -3 -9 -9 -8 -19 6 -14 17 -18 17 -104 3
-107 -19 -246 -13 -237 9 3 8 0 14 -6 14 -6 0 -11 -6 -11 -14z m-270 -123 c0
-5 -4 -14 -9 -21 -6 -10 -10 -9 -14 7 -3 14 0 21 9 21 8 0 14 -3 14 -7z m-710
-33 c0 -5 -4 -10 -10 -10 -5 0 -10 5 -10 10 0 6 5 10 10 10 6 0 10 -4 10 -10z
m-260 -15 c0 -9 -6 -12 -16 -8 -13 5 -13 7 -2 14 17 11 18 11 18 -6z m-210
-19 c0 -2 -8 -10 -17 -17 -16 -13 -17 -12 -4 4 13 16 21 21 21 13z m1102 -18
c-7 -7 -12 -8 -12 -2 0 6 3 14 7 17 3 4 9 5 12 2 2 -3 -1 -11 -7 -17z m338 12
c0 -5 -2 -10 -4 -10 -3 0 -8 5 -11 10 -3 6 -1 10 4 10 6 0 11 -4 11 -10z
m-2090 -10 c0 -5 -4 -10 -10 -10 -5 0 -10 5 -10 10 0 6 5 10 10 10 6 0 10 -4
10 -10z m1990 -12 c0 -19 -2 -20 -10 -8 -13 19 -13 30 0 30 6 0 10 -10 10 -22z
m-1190 -9 c-7 -11 -14 -18 -17 -15 -3 3 0 12 7 21 18 21 23 19 10 -6z m810
-20 c0 -6 -4 -7 -10 -4 -5 3 -10 11 -10 16 0 6 5 7 10 4 6 -3 10 -11 10 -16z
m107 -11 c-3 -8 -6 -5 -6 6 -1 11 2 17 5 13 3 -3 4 -12 1 -19z m62 -5 c0 -25
-1 -26 -9 -8 -12 27 -12 35 0 35 6 0 10 -12 9 -27z m318 5 c-3 -8 -6 -5 -6 6
-1 11 2 17 5 13 3 -3 4 -12 1 -19z m-234 -18 c3 -11 1 -18 -4 -14 -5 3 -9 12
-9 20 0 20 7 17 13 -6z m-316 4 c-3 -3 -12 -4 -19 -1 -8 3 -5 6 6 6 11 1 17
-2 13 -5z m-1314 -24 c-3 -11 -9 -20 -14 -20 -11 0 -11 3 -3 24 9 23 23 20 17
-4z m1507 -13 c0 -20 0 -20 -14 -2 -8 11 -12 23 -9 28 8 13 23 -3 23 -26z
m-1721 -47 c1 -26 -2 -31 -9 -20 -5 8 -9 33 -9 55 0 31 2 36 9 20 5 -11 9 -36
9 -55z m1531 49 c0 -6 -4 -7 -10 -4 -5 3 -10 11 -10 16 0 6 5 7 10 4 6 -3 10
-11 10 -16z m-1010 -13 c0 -8 -4 -18 -10 -21 -5 -3 -10 3 -10 14 0 12 5 21 10
21 6 0 10 -6 10 -14z m1940 -16 c0 -11 -4 -20 -10 -20 -5 0 -10 9 -10 20 0 11
5 20 10 20 6 0 10 -9 10 -20z m-910 -9 c0 -4 -7 -8 -15 -8 -16 0 -20 9 -9 20
8 8 24 -1 24 -12z m-392 -11 c-7 -11 -15 -15 -17 -9 -2 6 3 15 10 20 20 12 21
11 7 -11z m47 10 c3 -5 1 -10 -4 -10 -6 0 -11 5 -11 10 0 6 2 10 4 10 3 0 8
-4 11 -10z m53 -18 c2 -7 -6 -12 -17 -12 -21 0 -27 11 -14 24 9 9 26 2 31 -12z
m642 2 c0 -8 -4 -12 -10 -9 -5 3 -10 10 -10 16 0 5 5 9 10 9 6 0 10 -7 10 -16z
m-521 -20 c-17 -21 -31 -17 -19 6 6 11 15 18 21 14 6 -4 6 -11 -2 -20z m126
16 c3 -5 -1 -10 -10 -10 -9 0 -13 5 -10 10 3 6 8 10 10 10 2 0 7 -4 10 -10z
m155 0 c0 -5 -5 -10 -11 -10 -5 0 -7 5 -4 10 3 6 8 10 11 10 2 0 4 -4 4 -10z
m447 -32 c-3 -7 -5 -2 -5 12 0 14 2 19 5 13 2 -7 2 -19 0 -25z m-983 7 c-4 -8
-9 -15 -13 -15 -4 0 -17 -9 -29 -20 -32 -30 -27 -10 6 22 30 30 44 35 36 13z
m326 -15 c35 -35 37 -40 10 -33 -11 3 -20 9 -20 14 0 5 -9 9 -20 9 -22 0 -23
1 -14 24 8 21 8 21 44 -14z m270 26 c0 -3 -4 -8 -10 -11 -5 -3 -10 -1 -10 4 0
6 5 11 10 11 6 0 10 -2 10 -4z m630 -26 c0 -5 -2 -10 -4 -10 -3 0 -8 5 -11 10
-3 6 -1 10 4 10 6 0 11 -4 11 -10z m-823 -14 c-6 -14 27 -56 43 -56 6 0 10 7
10 16 0 14 3 14 15 4 17 -14 20 -56 4 -66 -6 -3 -31 15 -56 40 -37 38 -43 49
-33 61 16 19 24 19 17 1z m1000 -63 c-2 -16 -4 -3 -4 27 0 30 2 43 4 28 2 -16
2 -40 0 -55z m-2537 5 c0 -62 -5 -60 -13 5 -4 28 -3 47 3 47 6 0 10 -23 10
-52z m1304 23 c3 -5 15 -7 26 -4 11 3 28 2 37 -2 10 -5 21 -7 26 -7 4 1 7 -6
7 -15 0 -12 3 -14 8 -7 10 16 88 -16 122 -49 14 -15 42 -33 61 -41 41 -17 80
-72 99 -136 7 -25 16 -56 21 -70 24 -66 26 -354 3 -482 -6 -38 -18 -49 -27
-25 -8 23 -17 0 -19 -49 -1 -27 -6 -55 -11 -61 -5 -7 -7 -18 -4 -26 12 -32
-39 -209 -70 -243 -13 -14 -27 -33 -33 -44 -6 -11 -17 -20 -24 -20 -8 0 -17
-10 -20 -22 -3 -13 -35 -54 -71 -92 -36 -38 -65 -75 -65 -81 0 -14 -48 -40
-80 -44 -20 -2 -116 -109 -152 -170 -22 -35 -48 -65 -62 -71 -13 -5 -32 -23
-42 -39 -22 -37 -34 -39 -35 -8 -1 20 -2 20 -6 2 -9 -37 -24 -47 -39 -28 -7
10 -14 13 -14 6 0 -11 -8 -12 -69 -13 -34 0 -36 4 -18 47 11 27 16 32 17 18 1
-13 5 -8 11 14 8 26 14 32 30 28 49 -13 45 96 -6 146 -24 24 -52 10 -52 -25 0
-19 -8 -37 -20 -48 -25 -20 -63 -92 -63 -120 0 -29 -14 -25 -60 17 l-41 36 2
71 c2 40 -1 78 -7 86 -5 8 -9 49 -9 90 0 67 -2 75 -19 75 -23 0 -47 -70 -35
-102 4 -11 3 -26 -2 -34 -5 -9 -9 -10 -9 -2 0 6 -5 24 -11 40 -8 20 -12 24
-19 14 -5 -9 -1 -31 11 -58 11 -27 19 -68 19 -103 0 -39 5 -62 15 -70 8 -7 15
-22 15 -34 0 -11 9 -35 20 -53 11 -19 15 -35 10 -38 -6 -4 -10 -18 -10 -33 l1
-27 16 30 c14 24 18 26 21 13 4 -19 32 -25 32 -7 0 6 10 9 23 7 15 -2 23 -11
25 -28 7 -70 36 -170 48 -170 8 0 14 -5 14 -10 0 -7 -66 -11 -192 -10 -106 0
-215 0 -243 -1 -77 -2 -85 0 -85 19 0 14 2 15 10 2 7 -10 12 -12 18 -4 4 6 17
16 30 23 12 7 20 16 17 22 -4 5 -1 9 5 9 6 0 13 -13 17 -30 5 -29 13 -36 25
-24 10 10 -15 75 -28 70 -12 -5 -24 55 -24 120 0 18 -4 34 -9 36 -4 2 -12 13
-15 26 -6 16 -3 22 8 22 11 0 14 7 10 28 -2 15 0 41 5 57 9 25 10 19 10 -40
-2 -101 0 -115 11 -115 7 0 8 40 5 111 -4 81 -2 109 6 103 6 -3 15 0 20 7 12
19 11 42 -1 34 -13 -8 -12 186 1 270 5 33 9 78 9 100 0 30 2 36 10 25 7 -12
10 -8 10 17 0 17 -4 33 -8 35 -5 2 -4 79 0 173 8 149 12 175 34 222 34 72 49
69 40 -8 -3 -34 -6 -75 -6 -91 0 -16 -4 -27 -8 -24 -24 15 -34 -16 -37 -115
-1 -62 1 -91 5 -71 12 54 23 51 18 -5 -3 -29 -2 -53 3 -53 4 0 10 39 14 88 9
113 28 202 59 277 14 33 26 70 26 82 0 25 16 39 23 21 3 -7 5 7 4 32 -1 25 7
60 16 79 9 19 17 43 17 54 0 26 41 97 55 97 12 0 35 42 35 63 0 7 -7 4 -14 -6
-9 -11 -17 -14 -21 -8 -3 6 -1 16 5 23 6 7 18 22 26 33 15 20 15 20 9 -2 -4
-14 -2 -23 5 -23 7 0 14 9 17 20 6 22 18 26 28 10 11 -19 44 -10 62 16 10 14
42 52 71 84 29 31 59 66 67 76 13 16 16 17 24 4 8 -11 12 -9 20 13 6 16 11 33
11 38 0 5 8 9 18 9 10 0 27 7 38 15 27 20 44 18 44 -5 0 -12 7 -20 17 -20 13
0 14 3 5 12 -19 19 -14 36 16 46 35 13 109 15 116 3z m343 -13 c-3 -8 -6 -5
-6 6 -1 11 2 17 5 13 3 -3 4 -12 1 -19z m82 -38 c0 -13 -1 -13 -8 0 -5 8 -12
26 -15 40 l-7 25 15 -25 c9 -14 15 -32 15 -40z m18 38 c-3 -8 -6 -5 -6 6 -1
11 2 17 5 13 3 -3 4 -12 1 -19z m253 3 c0 -5 -7 -11 -15 -15 -15 -5 -20 5 -8
17 9 10 23 9 23 -2z m-1803 -23 c-3 -8 -6 -5 -6 6 -1 11 2 17 5 13 3 -3 4 -12
1 -19z m1488 12 c-3 -5 -11 -10 -16 -10 -6 0 -7 5 -4 10 3 6 11 10 16 10 6 0
7 -4 4 -10z m-1555 -26 c0 -8 -5 -12 -10 -9 -6 4 -8 11 -5 16 9 14 15 11 15
-7z m595 -4 c3 -5 1 -10 -4 -10 -6 0 -11 5 -11 10 0 6 2 10 4 10 3 0 8 -4 11
-10z m-57 -20 c-7 -11 -16 -20 -20 -20 -5 0 -3 9 4 20 7 11 16 20 20 20 5 0 3
-9 -4 -20z m-348 0 c0 -5 -4 -10 -10 -10 -5 0 -10 5 -10 10 0 6 5 10 10 10 6
0 10 -4 10 -10z m1717 -32 c-3 -8 -6 -5 -6 6 -1 11 2 17 5 13 3 -3 4 -12 1
-19z m-1233 -3 c-4 -8 -12 -15 -20 -15 -8 0 -14 7 -14 15 0 8 9 15 20 15 13 0
18 -5 14 -15z m916 -62 c0 -22 -12 -9 -39 42 l-22 40 31 -33 c16 -18 30 -40
30 -49z m-1024 23 c1 -18 -2 -22 -17 -19 -22 6 -24 14 -7 31 17 17 23 15 24
-12z m81 -23 c-3 -10 -5 -4 -5 12 0 17 2 24 5 18 2 -7 2 -21 0 -30z m1092 -3
c0 -10 -3 -8 -9 5 -12 27 -12 43 0 25 5 -8 9 -22 9 -30z m-83 -7 c-10 -10 -19
5 -10 18 6 11 8 11 12 0 2 -7 1 -15 -2 -18z m24 -23 c0 -5 -2 -10 -4 -10 -3 0
-8 5 -11 10 -3 6 -1 10 4 10 6 0 11 -4 11 -10z m55 -40 c5 -23 4 -32 -3 -25
-5 6 -13 26 -17 45 -5 23 -4 32 3 25 5 -5 13 -26 17 -45z m-36 -2 c-1 -35 -2
-38 -8 -18 -7 23 -4 60 5 60 2 0 4 -19 3 -42z m258 20 c-3 -8 -6 -5 -6 6 -1
11 2 17 5 13 3 -3 4 -12 1 -19z m-2046 -35 c-9 -16 -10 -16 -11 -1 0 9 3 25 7
35 7 16 8 17 11 1 2 -10 -1 -25 -7 -35z m449 -24 c-8 -30 -15 -38 -22 -31 -8
8 -8 15 0 25 7 8 9 16 7 19 -3 3 0 18 7 34 18 38 23 8 8 -47z m155 41 c-4 -12
-9 -19 -12 -17 -3 3 -2 15 2 27 4 12 9 19 12 17 3 -3 2 -15 -2 -27z m1372 8
c-3 -8 -6 -5 -6 6 -1 11 2 17 5 13 3 -3 4 -12 1 -19z m-63 -6 c-1 -7 -2 -33
-2 -59 -2 -62 -11 -51 -16 21 -3 40 0 56 8 53 6 -2 11 -9 10 -15z m-1847 -14
c-3 -8 -6 -5 -6 6 -1 11 2 17 5 13 3 -3 4 -12 1 -19z m-91 -45 c-4 -4 -11 -1
-16 7 -16 25 -11 35 7 17 9 -9 13 -20 9 -24z m491 -55 c-3 -8 -6 -5 -6 6 -1
11 2 17 5 13 3 -3 4 -12 1 -19z m1357 -31 c4 -19 3 -26 -4 -22 -5 3 -10 18
-10 32 0 32 5 28 14 -10z m245 -17 c0 -9 -4 -8 -9 5 -5 11 -9 27 -9 35 0 9 4
8 9 -5 5 -11 9 -27 9 -35z m-2050 -18 c1 -7 -3 -11 -7 -8 -4 2 -8 19 -9 38 -1
30 -1 31 7 8 4 -14 8 -31 9 -38z m438 -2 c-14 -37 -19 -33 -11 8 4 18 10 29
14 27 5 -3 3 -18 -3 -35z m121 -5 c-6 -14 -13 -23 -15 -21 -5 5 15 46 22 46 3
0 -1 -11 -7 -25z m1502 -5 c0 -5 -5 -10 -11 -10 -5 0 -7 5 -4 10 3 6 8 10 11
10 2 0 4 -4 4 -10z m-1763 -47 c-3 -10 -5 -4 -5 12 0 17 2 24 5 18 2 -7 2 -21
0 -30z m164 1 c-5 -16 -10 -21 -10 -12 -1 18 10 51 15 45 2 -1 -1 -16 -5 -33z
m1446 14 c-3 -8 -6 -5 -6 6 -1 11 2 17 5 13 3 -3 4 -12 1 -19z m190 -10 c-3
-8 -6 -5 -6 6 -1 11 2 17 5 13 3 -3 4 -12 1 -19z m-2037 -12 c0 -3 -4 -8 -10
-11 -5 -3 -10 -1 -10 4 0 6 5 11 10 11 6 0 10 -2 10 -4z m2240 -26 c0 -5 -2
-10 -4 -10 -3 0 -8 5 -11 10 -3 6 -1 10 4 10 6 0 11 -4 11 -10z m-1880 -9 c0
-6 -4 -13 -10 -16 -5 -3 -10 1 -10 9 0 9 5 16 10 16 6 0 10 -4 10 -9z m1370
-1 c0 -5 -4 -10 -10 -10 -5 0 -10 5 -10 10 0 6 5 10 10 10 6 0 10 -4 10 -10z
m210 -45 c0 -8 -4 -15 -10 -15 -5 0 -10 7 -10 15 0 8 5 15 10 15 6 0 10 -7 10
-15z m-1479 -60 c-5 -29 -9 -35 -14 -22 -8 21 3 81 13 70 5 -4 5 -26 1 -48z
m1461 -21 c2 -19 0 -37 -4 -40 -4 -3 -8 13 -8 35 0 51 6 53 12 5z m-1825 -41
c-3 -10 -5 -2 -5 17 0 19 2 27 5 18 2 -10 2 -26 0 -35z m1714 -118 c-6 -81
-12 -150 -15 -153 -6 -5 3 228 10 277 12 75 14 15 5 -124z m-1461 131 c0 -3
-4 -8 -10 -11 -5 -3 -10 -1 -10 4 0 6 5 11 10 11 6 0 10 -2 10 -4z m-129 -33
c-8 -15 -10 -15 -11 -2 0 17 10 32 18 25 2 -3 -1 -13 -7 -23z m220 -6 c-8 -8
-11 -7 -11 4 0 20 13 34 18 19 3 -7 -1 -17 -7 -23z m1262 -53 c2 -91 -2 -198
-9 -191 -3 3 -7 65 -9 137 -1 77 1 128 7 122 5 -5 9 -35 11 -68z m634 14 c-3
-7 -5 -2 -5 12 0 14 2 19 5 13 2 -7 2 -19 0 -25z m-2314 -13 c-3 -9 -8 -14
-10 -11 -3 3 -2 9 2 15 9 16 15 13 8 -4z m2327 -20 c0 -8 -4 -15 -10 -15 -5 0
-10 7 -10 15 0 8 5 15 10 15 6 0 10 -7 10 -15z m-2130 -30 c0 -5 -5 -3 -10 5
-5 8 -10 20 -10 25 0 6 5 3 10 -5 5 -8 10 -19 10 -25z m1627 -7 c-3 -8 -6 -5
-6 6 -1 11 2 17 5 13 3 -3 4 -12 1 -19z m114 -113 l-9 -40 -1 40 c0 22 3 58 7
80 l7 40 3 -40 c2 -22 -1 -58 -7 -80z m-1676 96 c3 -5 1 -12 -5 -16 -5 -3 -10
1 -10 9 0 18 6 21 15 7z m1560 -53 c-3 -24 -9 -96 -15 -161 -5 -64 -14 -125
-19 -135 -9 -15 -10 -15 -11 5 0 12 4 33 9 46 5 13 11 77 12 143 3 125 5 144
20 144 5 0 7 -19 4 -42z m-218 -75 c-2 -21 -4 -4 -4 37 0 41 2 58 4 38 2 -21
2 -55 0 -75z m300 75 c-3 -7 -5 -2 -5 12 0 14 2 19 5 13 2 -7 2 -19 0 -25z
m-1650 -15 c-3 -10 -5 -4 -5 12 0 17 2 24 5 18 2 -7 2 -21 0 -30z m-240 -10
c-3 -10 -5 -4 -5 12 0 17 2 24 5 18 2 -7 2 -21 0 -30z m207 -35 c-8 -90 -24
-113 -24 -36 0 54 13 108 25 108 4 0 3 -33 -1 -72z m1756 42 c0 -16 -4 -30 -8
-30 -5 0 -9 14 -9 30 0 17 4 30 9 30 4 0 8 -13 8 -30z m117 -17 c-3 -10 -5 -2
-5 17 0 19 2 27 5 18 2 -10 2 -26 0 -35z m-70 -30 c-3 -10 -5 -2 -5 17 0 19 2
27 5 18 2 -10 2 -26 0 -35z m-157 13 c0 -14 -4 -27 -9 -30 -4 -3 -6 -29 -4
-58 3 -44 1 -49 -7 -29 -15 33 -9 141 8 141 6 0 12 -11 12 -24z m297 -68 c-2
-18 -4 -4 -4 32 0 36 2 50 4 33 2 -18 2 -48 0 -65z m-2043 -66 c-4 -70 -11
-131 -17 -137 -7 -7 -8 -4 -4 8 4 9 7 73 8 142 0 73 5 123 10 119 5 -3 7 -58
3 -132z m1623 -4 l0 -143 -6 135 c-6 126 -5 150 4 150 2 0 3 -64 2 -142z m223
105 c0 -19 -3 -24 -10 -17 -6 6 -8 18 -4 27 9 24 14 21 14 -10z m-310 -55 c0
-64 -5 -60 -14 10 -5 37 -4 52 4 47 5 -3 10 -29 10 -57z m-1415 4 c-4 -20 -9
-48 -12 -62 -5 -23 -6 -24 -13 -5 -12 28 -12 37 0 30 6 -4 10 12 10 40 0 29 4
44 10 40 6 -4 8 -22 5 -43z m1467 -70 c-7 -26 -15 -81 -18 -122 -3 -41 -10
-81 -16 -87 -7 -9 -7 -13 1 -13 11 0 5 -49 -8 -60 -3 -3 -6 -38 -6 -77 0 -40
2 -69 6 -65 4 4 12 56 19 117 6 60 14 112 17 115 8 7 -4 -175 -20 -300 -11
-90 -14 -99 -19 -66 -4 21 -4 52 -1 70 6 28 5 30 -11 17 -16 -13 -17 -12 -10
13 5 19 2 31 -7 37 -10 6 -10 9 -2 9 9 0 11 13 6 45 -3 27 -2 45 4 45 6 0 10
12 10 28 0 74 28 290 37 285 5 -4 7 1 3 11 -4 9 -4 38 0 64 l7 47 10 -33 c6
-23 6 -48 -2 -80z m-1715 -14 c-2 -18 -4 -6 -4 27 0 33 2 48 4 33 2 -15 2 -42
0 -60z m1960 60 c-3 -8 -6 -5 -6 6 -1 11 2 17 5 13 3 -3 4 -12 1 -19z m120
-40 c-2 -13 -4 -5 -4 17 -1 22 1 32 4 23 2 -10 2 -28 0 -40z m-57 38 c0 -3 -4
-8 -10 -11 -5 -3 -10 -1 -10 4 0 6 5 11 10 11 6 0 10 -2 10 -4z m147 -33 c-3
-10 -5 -4 -5 12 0 17 2 24 5 18 2 -7 2 -21 0 -30z m-2283 -195 c3 -108 2 -199
-2 -202 -11 -6 -24 315 -15 367 3 21 7 36 8 35 1 -2 5 -92 9 -200z m1673 170
c-3 -7 -5 -2 -5 12 0 14 2 19 5 13 2 -7 2 -19 0 -25z m643 -43 c0 -42 -4 -75
-10 -75 -10 0 -12 73 -3 123 8 47 13 30 13 -48z m-351 15 c0 -9 -4 -8 -9 5 -5
11 -9 27 -9 35 0 9 4 8 9 -5 5 -11 9 -27 9 -35z m98 -12 c-3 -7 -5 -2 -5 12 0
14 2 19 5 13 2 -7 2 -19 0 -25z m-1734 -20 c-3 -20 -11 -39 -19 -42 -18 -7
-18 6 1 51 18 43 24 41 18 -9z m1324 20 c-3 -8 -6 -5 -6 6 -1 11 2 17 5 13 3
-3 4 -12 1 -19z m543 2 c0 -11 -4 -20 -10 -20 -5 0 -10 9 -10 20 0 11 5 20 10
20 6 0 10 -9 10 -20z m-1838 -32 c-2 -21 -8 -38 -14 -38 -5 0 -6 10 -3 23 4
12 9 30 12 40 8 29 11 16 5 -25z m1395 5 c-3 -10 -5 -4 -5 12 0 17 2 24 5 18
2 -7 2 -21 0 -30z m-30 -50 c-2 -16 -4 -5 -4 22 0 28 2 40 4 28 2 -13 2 -35 0
-50z m298 -91 c-4 -57 -11 -100 -15 -95 -5 4 -3 64 3 133 14 144 22 115 12
-38z m56 78 c-7 -59 -9 -65 -10 -29 -1 44 8 113 15 107 1 -2 -1 -37 -5 -78z
m-2054 48 c-3 -8 -6 -5 -6 6 -1 11 2 17 5 13 3 -3 4 -12 1 -19z m1632 -100
c-18 -45 -21 -27 -7 53 l13 74 3 -49 c2 -27 -2 -62 -9 -78z m287 -10 c-2 -73
-7 -149 -11 -169 -4 -23 -3 -39 4 -43 17 -11 13 -26 -4 -20 -17 7 -22 99 -6
108 5 3 7 24 4 45 -5 39 5 211 13 211 2 0 2 -60 0 -132z m280 85 c-11 -11 -19
6 -11 24 8 17 8 17 12 0 3 -10 2 -21 -1 -24z m-39 -20 c-3 -10 -5 -2 -5 17 0
19 2 27 5 18 2 -10 2 -26 0 -35z m-447 -50 c-11 -17 -11 -17 -6 0 3 10 7 35 8
55 l1 37 4 -37 c2 -21 -1 -46 -7 -55z m-1500 4 c0 -10 -4 -15 -10 -12 -5 3
-10 18 -10 33 0 21 2 24 10 12 5 -8 10 -23 10 -33z m1377 -19 c-2 -13 -4 -3
-4 22 0 25 2 35 4 23 2 -13 2 -33 0 -45z m294 20 c-3 -21 -6 -26 -9 -15 -3 17
3 47 11 47 2 0 1 -15 -2 -32z m-1511 7 c0 -8 -4 -15 -10 -15 -5 0 -7 7 -4 15
4 8 8 15 10 15 2 0 4 -7 4 -15z m1309 -62 c-1 -43 -4 -68 -7 -55 -7 23 -3 132
4 132 2 0 4 -35 3 -77z m268 -5 c-2 -18 -4 -6 -4 27 0 33 2 48 4 33 2 -15 2
-42 0 -60z m-387 22 c0 -28 -4 -40 -14 -40 -11 0 -13 -10 -9 -42 5 -36 4 -40
-10 -35 -14 5 -17 -1 -17 -36 0 -24 -7 -52 -15 -63 -14 -19 -14 -19 -15 2 0
11 6 41 14 67 7 25 11 57 8 72 -2 15 -1 30 4 34 5 3 17 23 26 44 10 20 20 37
23 37 3 0 5 -18 5 -40z m636 13 c-3 -8 -6 -44 -6 -80 0 -37 -3 -63 -7 -60 -3
4 -7 42 -7 86 -1 61 2 77 12 73 7 -2 11 -11 8 -19z m-1856 5 c0 -4 -4 -8 -9
-8 -6 0 -7 -15 -4 -33 3 -23 0 -37 -11 -46 -9 -7 -16 -26 -16 -42 0 -15 -4
-30 -9 -33 -4 -3 -7 -18 -4 -33 3 -26 3 -27 -7 -5 -6 14 -6 31 0 48 6 14 10
48 10 75 0 28 4 58 9 68 10 18 41 25 41 9z m1497 -25 c-3 -10 -5 -4 -5 12 0
17 2 24 5 18 2 -7 2 -21 0 -30z m253 -21 c0 -28 -3 -33 -10 -22 -13 20 -13 73
0 65 6 -3 10 -23 10 -43z m129 -36 c-9 -8 -10 -7 -5 7 3 10 7 28 7 40 2 16 3
14 6 -7 3 -16 -1 -34 -8 -40z m-102 17 c-3 -10 -5 -4 -5 12 0 17 2 24 5 18 2
-7 2 -21 0 -30z m200 -70 c-2 -21 -4 -4 -4 37 0 41 2 58 4 38 2 -21 2 -55 0
-75z m-50 35 c-2 -13 -4 -5 -4 17 -1 22 1 32 4 23 2 -10 2 -28 0 -40z m-2259
11 c-3 -8 -7 -3 -11 10 -4 17 -3 21 5 13 5 -5 8 -16 6 -23z m2003 -59 c-4 -41
-9 -59 -10 -39 -1 42 11 139 16 124 1 -6 -1 -44 -6 -85z m-143 -48 c-11 -21
-10 -26 9 -42 21 -17 22 -21 12 -81 -12 -75 -15 -80 -21 -39 -3 17 -1 33 4 36
12 7 10 64 -2 64 -5 0 -10 -11 -10 -25 0 -14 -4 -25 -10 -25 -5 0 -10 -26 -10
-57 -1 -62 -27 -196 -30 -153 -1 14 -3 34 -5 45 -2 10 0 24 4 30 8 9 32 180
31 217 -1 8 -6 6 -15 -6 -14 -18 -15 -17 -15 23 0 25 4 40 10 36 6 -3 10 -13
10 -20 0 -12 4 -11 20 2 15 13 20 31 22 73 l2 55 3 -55 c3 -32 -1 -64 -9 -78z
m-268 97 c0 -11 -4 -17 -10 -14 -5 3 -10 13 -10 21 0 8 5 14 10 14 6 0 10 -9
10 -21z m51 -8 c6 10 9 8 9 -9 0 -13 -4 -20 -10 -17 -13 8 -13 -55 -1 -88 6
-14 6 -38 2 -54 -7 -25 -8 -22 -14 27 -8 62 -7 175 0 146 4 -15 7 -16 14 -5z
m386 -13 c-3 -7 -5 -2 -5 12 0 14 2 19 5 13 2 -7 2 -19 0 -25z m40 10 c-3 -8
-6 -5 -6 6 -1 11 2 17 5 13 3 -3 4 -12 1 -19z m-611 -74 c-4 -14 -13 -24 -24
-23 -10 0 -12 3 -4 6 6 2 12 22 12 42 0 21 3 41 8 45 9 10 15 -40 8 -70z m764
40 c0 -21 -4 -33 -10 -29 -5 3 -10 19 -10 36 0 16 5 29 10 29 6 0 10 -16 10
-36z m-273 -31 c-3 -10 -5 -2 -5 17 0 19 2 27 5 18 2 -10 2 -26 0 -35z m25
-14 l-10 -44 -1 55 c-1 39 2 51 10 43 7 -7 8 -24 1 -54z m125 19 c-3 -7 -5 -2
-5 12 0 14 2 19 5 13 2 -7 2 -19 0 -25z m-696 -49 c-5 -30 -9 -43 -10 -29 -1
20 -3 22 -11 10 -5 -8 -9 -51 -8 -95 1 -50 3 -63 5 -35 6 70 20 68 17 -2 l-2
-63 9 75 c19 144 19 144 33 129 8 -8 16 -36 20 -62 5 -45 4 -48 -14 -42 -18 6
-19 4 -10 -21 6 -15 8 -29 5 -32 -3 -3 -5 1 -6 9 -1 8 -4 3 -8 -11 -4 -14 -4
-31 2 -37 5 -7 7 -44 5 -83 -2 -44 0 -66 6 -60 5 5 9 28 8 52 -2 49 5 78 19
78 6 0 8 -4 4 -10 -3 -5 -1 -17 4 -27 30 -58 63 -166 60 -195 -2 -27 9 -58 22
-58 5 0 7 19 4 43 l-6 42 20 -45 c27 -61 26 -67 -9 -66 -17 1 -30 7 -30 14 0
6 -3 11 -7 11 -23 -4 -33 3 -33 21 0 11 -4 20 -10 20 -5 0 -7 -8 -3 -17 3 -10
2 -15 -2 -10 -5 4 -9 17 -10 30 -2 25 -35 38 -35 13 0 -9 -4 -16 -10 -16 -5 0
-10 6 -10 13 0 19 -20 36 -36 30 -8 -3 -14 -20 -14 -40 0 -20 -4 -32 -10 -28
-6 3 -10 -4 -10 -18 0 -22 -5 -25 -56 -31 -42 -5 -59 -3 -70 8 -9 9 -10 17 -4
21 6 4 8 11 5 16 -4 5 -1 9 5 9 6 0 13 -7 16 -15 4 -8 14 -15 25 -15 13 0 20
10 25 35 3 19 9 33 13 31 3 -2 12 2 19 10 7 8 9 14 4 14 -5 0 -9 36 -9 81 0
84 16 92 18 9 1 -65 17 -99 19 -40 1 35 3 40 10 25 7 -17 9 -17 9 -2 1 27 1
27 -4 25 -14 -7 -23 30 -24 91 0 36 -3 99 -7 138 -7 75 0 123 16 123 5 0 6
-17 4 -37 -4 -29 -3 -34 5 -23 6 8 11 26 11 40 0 20 2 22 10 10 8 -13 10 -13
11 3 1 9 3 22 4 27 1 6 3 16 5 23 1 7 3 8 6 1 2 -5 0 -35 -5 -65z m-1314 39
c-3 -8 -6 -5 -6 6 -1 11 2 17 5 13 3 -3 4 -12 1 -19z m-90 -20 c-3 -7 -5 -2
-5 12 0 14 2 19 5 13 2 -7 2 -19 0 -25z m1684 -35 c-9 -15 -10 -12 -11 18 0
20 3 39 8 43 11 12 14 -42 3 -61z m-1594 -10 c-3 -10 -5 -2 -5 17 0 19 2 27 5
18 2 -10 2 -26 0 -35z m1520 -5 c-2 -13 -4 -5 -4 17 -1 22 1 32 4 23 2 -10 2
-28 0 -40z m335 7 c-2 -19 -6 -35 -8 -35 -2 0 -4 16 -4 35 0 19 4 35 8 35 4 0
6 -16 4 -35z m-1703 -19 c-9 -8 -10 -7 -5 7 3 10 7 24 7 30 1 7 3 4 6 -7 3
-10 -1 -23 -8 -30z m1939 -66 c0 -50 -2 -58 -8 -35 -11 42 -11 158 0 125 4
-14 8 -54 8 -90z m-2021 63 c-3 -10 -5 -4 -5 12 0 17 2 24 5 18 2 -7 2 -21 0
-30z m110 15 c-3 -8 -6 -5 -6 6 -1 11 2 17 5 13 3 -3 4 -12 1 -19z m1033 -161
c-7 -89 -12 -168 -11 -174 0 -7 1 -19 1 -25 1 -19 -10 -92 -14 -95 -2 -2 -17
4 -33 13 -43 25 -63 14 -53 -30 9 -42 6 -46 -36 -46 l-32 0 2 52 c2 29 8 54
15 56 17 6 14 89 -4 96 -8 3 -15 13 -15 23 1 16 2 16 13 3 14 -18 53 -21 50
-4 -1 6 5 11 13 11 8 0 14 -3 15 -6 0 -3 3 -26 6 -51 2 -25 6 -47 9 -49 3 -4
8 94 7 136 -1 7 3 10 8 7 5 -3 9 1 9 10 0 8 5 16 11 18 9 3 29 114 30 168 1
32 12 74 17 62 2 -8 -1 -87 -8 -175z m277 146 c-4 -21 -2 -42 5 -50 7 -8 7
-13 0 -13 -16 0 -23 30 -16 66 9 46 18 43 11 -3z m514 -6 c-13 -13 -15 1 -4
30 7 17 8 17 11 -1 2 -10 -1 -23 -7 -29z m126 6 c-3 -10 -5 -4 -5 12 0 17 2
24 5 18 2 -7 2 -21 0 -30z m-2160 -5 c-3 -7 -5 -2 -5 12 0 14 2 19 5 13 2 -7
2 -19 0 -25z m2064 -21 c-8 -8 -11 -5 -11 9 0 27 14 41 18 19 2 -9 -1 -22 -7
-28z m-2093 8 c-3 -3 -9 2 -12 12 -6 14 -5 15 5 6 7 -7 10 -15 7 -18z m159 3
c-3 -8 -6 -5 -6 6 -1 11 2 17 5 13 3 -3 4 -12 1 -19z m1338 -42 c-4 -31 -11
-54 -15 -51 -5 3 -11 -3 -13 -12 -3 -10 -5 -3 -6 15 0 17 4 32 10 32 5 0 7 5
4 11 -7 11 14 73 22 65 3 -2 2 -29 -2 -60z m445 33 c0 -5 -4 -9 -10 -9 -5 0
-10 7 -10 16 0 8 5 12 10 9 6 -3 10 -10 10 -16z m340 -31 c0 -16 -4 -28 -10
-28 -5 0 -10 19 -10 43 0 31 3 38 10 27 5 -8 10 -27 10 -42z m105 -178 c6 -27
5 -32 -4 -24 -14 12 -34 232 -23 248 4 6 10 -34 13 -89 4 -55 10 -116 14 -135z
m-2317 103 l-1 -118 -8 95 c-6 85 -4 140 7 140 2 0 3 -53 2 -117z m1166 91
c-5 -19 -4 -25 5 -20 8 5 8 1 2 -16 -5 -13 -12 -47 -16 -75 -4 -29 -11 -53
-15 -53 -5 0 -16 -7 -24 -16 -15 -14 -16 -14 -16 6 0 11 6 23 13 26 7 2 14 19
15 37 2 17 7 34 12 35 6 2 10 15 10 28 0 31 -30 33 -31 2 -1 -18 -2 -19 -6 -5
-4 14 -8 16 -19 6 -30 -24 -12 3 23 36 44 42 56 44 47 9z m425 -24 c4 0 12 5
19 12 9 9 12 5 11 -17 0 -17 -3 -24 -6 -16 -4 11 -7 11 -14 0 -11 -18 -18 -9
-23 27 -2 16 -1 21 1 12 2 -10 8 -18 12 -18z m-1714 20 c3 -5 1 -10 -4 -10 -6
0 -11 5 -11 10 0 6 2 10 4 10 3 0 8 -4 11 -10z m48 -50 c8 0 13 -20 14 -53 2
-37 0 -46 -7 -32 -6 14 -9 16 -11 5 -3 -22 -17 79 -17 115 1 30 1 30 5 -2 2
-18 10 -33 16 -33z m1870 -21 c-5 -5 -6 11 -3 34 4 41 5 41 8 8 2 -18 0 -37
-5 -42z m-1819 -41 c5 -59 3 -88 -4 -88 -6 0 -11 28 -11 68 -1 37 -2 79 -3 94
-1 16 1 25 5 20 4 -4 10 -46 13 -94z m1853 40 c-2 -13 -4 -3 -4 22 0 25 2 35
4 23 2 -13 2 -33 0 -45z m-1710 10 c-3 -8 -6 -5 -6 6 -1 11 2 17 5 13 3 -3 4
-12 1 -19z m80 0 c-3 -8 -6 -5 -6 6 -1 11 2 17 5 13 3 -3 4 -12 1 -19z m1363
-3 c0 -14 -4 -25 -9 -25 -4 0 -6 11 -3 25 2 14 6 25 8 25 2 0 4 -11 4 -25z
m114 -87 c-3 -57 -10 -107 -15 -112 -13 -14 -22 40 -10 62 6 12 10 38 10 59
l-2 38 -6 -40 c-8 -47 -19 -68 -32 -60 -5 4 -10 -2 -10 -12 -1 -10 -5 7 -10
37 -4 32 -4 59 2 65 5 5 9 -5 9 -29 0 -33 2 -37 15 -26 8 7 15 23 15 36 0 12
7 29 15 38 8 8 15 22 15 30 0 9 2 16 5 16 3 0 3 -46 -1 -102z m203 65 c-3 -10
-5 -4 -5 12 0 17 2 24 5 18 2 -7 2 -21 0 -30z m60 -15 c-3 -7 -5 -2 -5 12 0
14 2 19 5 13 2 -7 2 -19 0 -25z m-865 -27 c-5 -3 -12 -15 -14 -26 -4 -17 -6
-16 -13 8 -6 21 -3 32 11 46 18 17 19 17 22 -2 2 -11 -1 -22 -6 -26z m704 -76
c-10 -66 -14 -79 -16 -50 -1 32 -3 36 -10 20 -8 -18 -9 -17 -9 7 -1 15 6 33
14 41 8 8 18 35 22 59 4 23 8 36 10 28 2 -8 -3 -55 -11 -105z m499 85 c1 -11
-2 -20 -7 -20 -4 0 -8 12 -8 27 0 30 13 24 15 -7z m-1591 -17 c-33 -49 -34
-50 -34 -25 0 12 9 31 20 42 33 33 41 23 14 -17z m539 5 c-8 -46 -13 -48 -13
-5 0 21 4 37 10 37 5 0 7 -14 3 -32z m301 -43 c4 -41 3 -55 -4 -45 -9 13 -15
119 -6 109 2 -2 6 -31 10 -64z m343 3 c-2 -13 -4 -3 -4 22 0 25 2 35 4 23 2
-13 2 -33 0 -45z m123 52 c0 -5 -2 -10 -4 -10 -3 0 -8 5 -11 10 -3 6 -1 10 4
10 6 0 11 -4 11 -10z m-1830 -32 c0 -19 -2 -20 -10 -8 -13 19 -13 30 0 30 6 0
10 -10 10 -22z m1967 -12 c-6 -17 -21 -13 -25 6 -3 13 1 16 13 12 9 -4 14 -12
12 -18z m-2057 -19 c0 -23 -2 -22 -19 10 -10 19 -9 22 4 17 8 -4 15 -15 15
-27z m921 -18 c-10 -23 -10 -23 -10 7 -1 17 2 34 7 38 11 12 14 -18 3 -45z
m476 29 c-3 -8 -6 -5 -6 6 -1 11 2 17 5 13 3 -3 4 -12 1 -19z m-30 -25 c-3
-10 -5 -4 -5 12 0 17 2 24 5 18 2 -7 2 -21 0 -30z m-1396 -63 c5 0 14 -12 19
-26 12 -31 -2 -54 -31 -54 -19 0 -26 20 -12 34 5 4 8 33 7 64 -1 33 1 41 3 20
2 -21 9 -38 14 -38z m2226 58 c-3 -8 -6 -5 -6 6 -1 11 2 17 5 13 3 -3 4 -12 1
-19z m-2317 -14 c0 -8 7 -14 15 -14 9 0 12 -6 9 -15 -4 -8 -10 -12 -15 -9 -12
7 -7 -19 5 -27 13 -10 20 -92 7 -84 -6 3 -11 1 -11 -4 0 -6 4 -11 9 -11 5 0
12 -7 15 -16 5 -12 2 -15 -10 -10 -10 4 -15 0 -13 -12 4 -46 0 -52 -41 -52
-38 0 -40 2 -40 30 0 27 2 30 19 20 36 -19 41 -12 40 58 -1 52 -3 60 -9 37 -9
-35 -11 -33 -15 18 -3 27 0 37 11 37 11 0 12 4 5 18 -6 10 -6 24 -1 32 5 8 6
18 3 24 -3 5 -1 6 5 2 7 -4 12 -14 12 -22z m1540 6 c0 -4 -7 -10 -15 -14 -10
-4 -15 1 -15 14 0 13 5 18 15 14 8 -4 15 -10 15 -14z m636 3 c12 -29 16 -153
4 -153 -5 0 -10 16 -10 35 0 19 -4 35 -10 35 -5 0 -10 23 -10 50 0 50 11 65
26 33z m-2249 -41 c1 -20 -1 -48 -4 -62 -5 -20 -8 -13 -13 30 -7 54 -3 86 8
75 3 -3 7 -22 9 -43z m2130 16 c-3 -7 -5 -2 -5 12 0 14 2 19 5 13 2 -7 2 -19
0 -25z m64 -46 l-5 -37 -6 35 c-3 19 -4 44 -1 54 8 34 18 -9 12 -52z m-1131
26 c0 -36 -4 -35 -14 5 -4 16 -2 27 4 27 5 0 10 -14 10 -32z m887 -34 c-3 -36
-9 -69 -13 -73 -3 -3 -4 9 -2 27 3 18 1 35 -3 37 -7 5 10 75 19 75 2 0 2 -30
-1 -66z m453 4 c0 -59 -16 -45 -18 14 -1 36 2 48 8 38 5 -8 10 -32 10 -52z
m-1272 22 c-3 -17 -1 -33 4 -36 13 -8 9 -61 -6 -73 -11 -9 -14 -3 -19 35 -4
39 9 104 21 104 2 0 2 -14 0 -30z m-110 -45 c0 -16 -2 -15 -8 5 -4 14 -8 34
-8 45 0 16 2 15 8 -5 4 -14 8 -34 8 -45z m-701 -27 c5 -37 6 -73 1 -80 -9 -15
-11 -6 -8 38 1 18 -3 35 -9 39 -6 3 -11 25 -11 48 0 60 16 34 27 -45z m1313
55 c0 -22 2 -25 10 -13 8 12 10 10 10 -8 0 -13 -4 -20 -10 -17 -5 3 -10 -3
-10 -15 0 -12 -4 -18 -11 -15 -6 4 -8 13 -5 20 2 7 0 17 -4 21 -11 11 -2 54
11 54 5 0 9 -12 9 -27z m183 7 c3 -11 1 -20 -4 -20 -5 0 -9 9 -9 20 0 11 2 20
4 20 2 0 6 -9 9 -20z m-1583 -5 c0 -8 -4 -15 -10 -15 -5 0 -7 7 -4 15 4 8 8
15 10 15 2 0 4 -7 4 -15z m689 -40 c0 -18 -1 -18 -9 3 -14 33 -17 27 -11 -20
6 -45 30 -65 32 -26 1 13 7 -2 14 -31 8 -30 11 -59 9 -63 -9 -14 -24 -9 -24 9
0 15 -2 15 -19 -1 -36 -33 -82 15 -107 108 -16 59 -12 70 11 27 16 -32 29 -43
18 -16 -7 19 28 49 38 33 4 -6 10 -1 14 11 6 21 7 22 21 4 7 -10 13 -27 13
-38z m48 23 c-3 -7 -5 -2 -5 12 0 14 2 19 5 13 2 -7 2 -19 0 -25z m594 6 c5
-15 8 -29 5 -31 -2 -2 -8 10 -14 26 -13 38 -5 41 9 5z m-1282 -56 c-1 -62 -2
-63 -9 -18 -6 41 -3 80 6 80 2 0 3 -28 3 -62z m491 41 c0 -6 -4 -7 -10 -4 -5
3 -10 11 -10 16 0 6 5 7 10 4 6 -3 10 -11 10 -16z m930 -10 c0 -5 -4 -9 -8 -9
-5 0 -9 7 -9 15 0 8 4 12 9 9 4 -3 8 -9 8 -15z m80 -21 c0 -4 -9 1 -20 12 -11
11 -20 23 -20 27 0 3 9 -2 20 -12 11 -10 20 -22 20 -27z m87 10 c-3 -8 -6 -5
-6 6 -1 11 2 17 5 13 3 -3 4 -12 1 -19z m173 1 c0 -11 -4 -18 -10 -14 -5 3 -7
12 -3 20 7 21 13 19 13 -6z m279 -22 c1 -5 -3 -5 -9 -2 -5 3 -10 16 -9 28 0
21 1 21 9 2 5 -11 9 -24 9 -28z m-1251 -9 c-5 -41 -45 -124 -55 -114 -3 3 6
29 21 57 14 29 26 63 26 76 0 13 3 23 6 23 4 0 4 -19 2 -42z m836 27 c-4 -8
-10 -12 -15 -9 -11 6 -2 24 11 24 5 0 7 -7 4 -15z m283 -17 c-3 -8 -6 -5 -6 6
-1 11 2 17 5 13 3 -3 4 -12 1 -19z m-374 -3 c-3 -9 -8 -14 -10 -11 -3 3 -2 9
2 15 9 16 15 13 8 -4z m597 -11 c0 -8 -4 -12 -10 -9 -5 3 -10 13 -10 21 0 8 5
12 10 9 6 -3 10 -13 10 -21z m-1415 -11 c-11 -46 -25 -51 -25 -10 0 27 4 37
16 37 13 0 15 -6 9 -27z m1235 23 c0 -2 -7 -7 -16 -10 -8 -3 -12 -2 -9 4 6 10
25 14 25 6z m-2089 -33 c-8 -15 -10 -15 -11 -2 0 17 10 32 18 25 2 -3 -1 -13
-7 -23z m59 -26 c0 -20 23 -47 39 -47 23 0 10 -25 -14 -26 -14 -1 -23 2 -20 6
3 5 1 11 -5 15 -5 3 -10 14 -10 24 0 11 -7 18 -16 17 -9 0 -18 7 -20 17 -2 13
2 16 17 12 15 -5 18 -3 13 12 -5 15 -4 16 5 3 6 -8 11 -23 11 -33z m1920 18
c0 -8 -4 -15 -10 -15 -5 0 -7 7 -4 15 4 8 8 15 10 15 2 0 4 -7 4 -15z m270
-27 c0 -5 -4 -8 -10 -8 -5 0 -10 5 -10 10 0 6 -7 10 -15 10 -8 0 -15 7 -15 15
0 14 3 13 25 -2 13 -10 25 -21 25 -25z m-410 22 c0 -5 -7 -10 -15 -10 -8 0
-15 5 -15 10 0 6 7 10 15 10 8 0 15 -4 15 -10z m-854 -22 c-3 -13 -6 -30 -6
-40 0 -11 -6 -15 -20 -11 -24 6 -24 3 -4 41 18 37 39 43 30 10z m1104 12 c0
-5 -7 -10 -16 -10 -8 0 -12 5 -9 10 3 6 10 10 16 10 5 0 9 -4 9 -10z m-778
-17 c26 -24 22 -32 -16 -29 -43 2 -52 10 -35 30 18 20 28 20 51 -1z m188 -26
c0 -5 -4 -5 -10 -2 -5 3 -10 14 -10 23 0 15 2 15 10 2 5 -8 10 -19 10 -23z
m395 15 c-3 -3 -11 0 -18 7 -9 10 -8 11 6 5 10 -3 15 -9 12 -12z m-1901 -44
c-5 -8 -10 -5 -14 8 -10 25 0 41 12 20 5 -9 6 -21 2 -28z m35 18 c7 -8 8 -17
3 -19 -4 -3 -13 3 -20 14 -14 22 0 26 17 5z m34 -63 c-7 -2 -19 -2 -25 0 -7 3
-2 5 12 5 14 0 19 -2 13 -5z"/>
<path d="M1380 2194 c0 -8 5 -12 10 -9 6 4 8 11 5 16 -9 14 -15 11 -15 -7z"/>
<path d="M1348 2046 c-37 -6 -77 -19 -87 -28 -13 -11 -21 -13 -24 -5 -4 12
-67 -9 -67 -23 0 -4 -12 -19 -26 -33 -14 -15 -24 -32 -22 -39 3 -7 -4 -37 -14
-65 -10 -29 -18 -61 -18 -72 0 -14 -5 -19 -15 -15 -8 4 -15 5 -15 3 0 -26 33
-166 44 -187 23 -41 61 -72 84 -67 11 2 23 -3 26 -11 9 -23 26 -16 38 16 8 24
13 28 24 19 20 -16 36 -2 24 21 -14 26 -12 40 5 40 8 0 15 4 15 9 0 14 -23 19
-41 10 -26 -13 -44 14 -28 43 11 20 14 20 17 6 2 -10 7 -18 12 -18 4 0 6 10 3
23 -4 16 1 12 17 -13 13 -19 31 -41 41 -48 23 -16 25 -32 4 -32 -8 0 -15 -5
-15 -11 0 -7 11 -9 27 -6 21 4 33 -1 52 -21 23 -25 23 -30 17 -115 -5 -77 -4
-88 9 -83 9 3 15 0 15 -9 0 -21 19 -28 36 -14 17 14 13 70 -11 129 -7 19 -16
51 -20 71 -3 20 -14 44 -25 54 -11 10 -20 23 -20 29 0 6 -16 22 -35 35 -19 13
-44 39 -56 57 -11 19 -25 34 -30 34 -20 0 -49 85 -49 145 0 66 4 76 36 93 20
10 22 8 28 -26 3 -20 6 -55 6 -78 0 -22 7 -49 16 -60 15 -18 15 -18 9 6 -3 14
-9 41 -12 60 -6 32 -5 34 10 21 10 -7 17 -21 17 -30 0 -9 7 -29 15 -45 8 -15
15 -36 15 -45 0 -9 9 -29 20 -46 25 -37 25 -35 0 45 -11 36 -20 66 -20 68 0 1
7 2 16 2 10 0 13 -6 10 -18 -4 -11 2 -22 14 -30 19 -12 20 -10 15 30 l-5 43
19 -51 c23 -64 51 -117 57 -111 3 2 -4 28 -16 56 -23 59 -23 61 -11 61 5 0 19
-31 32 -70 12 -38 26 -70 31 -70 11 0 11 -2 -12 65 -21 61 -27 116 -11 100 5
-6 19 -47 31 -93 12 -45 26 -85 31 -88 13 -8 11 13 -12 101 -29 106 -35 150
-20 141 6 -4 11 -14 11 -22 0 -8 7 -14 15 -14 9 0 15 -10 15 -26 0 -14 -4 -23
-8 -20 -9 5 19 -112 30 -130 4 -6 12 -32 18 -57 15 -68 -21 -339 -61 -454 -17
-49 -34 -101 -40 -118 -13 -42 -46 -77 -103 -105 -27 -14 -51 -33 -53 -42 -3
-10 -8 -18 -12 -18 -3 0 -7 -18 -7 -40 -1 -22 0 -40 2 -40 9 0 134 102 134
109 0 4 20 34 45 66 25 32 44 64 41 72 -3 7 -1 26 5 41 6 15 14 45 19 67 4 22
16 67 26 100 9 33 18 74 19 90 11 136 28 261 35 270 5 6 10 38 12 71 1 32 5
64 10 70 12 16 -14 126 -32 132 -8 3 -34 22 -57 43 -49 45 -102 69 -150 69
-26 0 -33 4 -31 16 4 22 -5 23 -84 10z m41 -113 c0 -10 -5 -27 -10 -38 -7 -16
-8 -14 -5 12 3 19 1 33 -7 37 -7 2 -4 5 6 5 10 1 17 -6 16 -16z m-44 -3 c-3
-5 -10 -10 -16 -10 -5 0 -9 5 -9 10 0 6 7 10 16 10 8 0 12 -4 9 -10z m145 -40
c0 -5 -4 -10 -10 -10 -5 0 -10 5 -10 10 0 6 5 10 10 10 6 0 10 -4 10 -10z
m167 -42 c-3 -8 -6 -5 -6 6 -1 11 2 17 5 13 3 -3 4 -12 1 -19z m-490 -140 c-3
-7 -5 -2 -5 12 0 14 2 19 5 13 2 -7 2 -19 0 -25z m53 -16 c0 -15 -2 -15 -10
-2 -13 20 -13 33 0 25 6 -3 10 -14 10 -23z m3 -59 c-7 -3 -13 -9 -13 -15 0 -5
-7 -16 -15 -25 -9 -9 -13 -23 -10 -34 9 -29 -8 -23 -33 11 -27 37 -28 49 -2
25 19 -18 20 -17 20 3 0 12 5 22 10 22 6 0 10 6 10 14 0 18 22 27 35 14 7 -7
6 -12 -2 -15z m37 -63 c0 -4 -9 -10 -20 -13 -14 -4 -20 0 -20 12 0 10 3 21 7
24 7 7 33 -11 33 -23z"/>
<path d="M1260 1903 c0 -43 34 -142 45 -132 2 3 -3 25 -12 49 -8 25 -16 64
-17 87 -1 59 -16 54 -16 -4z"/>
<path d="M1010 1840 c0 -13 -5 -18 -15 -14 -17 7 -19 -9 -5 -37 18 -33 35 -22
38 26 2 26 -2 45 -8 45 -5 0 -10 -9 -10 -20z"/>
<path d="M889 1843 c-3 -21 4 -69 11 -76 10 -11 22 40 15 64 -6 19 -24 27 -26
12z"/>
<path d="M867 1743 c-4 -3 -8 -36 -8 -72 -1 -36 -3 -58 -6 -48 -2 9 -9 17 -15
17 -10 0 -7 -91 5 -150 3 -14 8 -47 12 -75 3 -27 9 -61 12 -75 4 -20 2 -22 -6
-10 -9 13 -11 12 -11 -5 0 -11 4 -26 9 -34 17 -27 24 74 10 146 -8 37 -12 91
-9 118 l5 50 9 -69 c4 -38 10 -75 13 -83 6 -16 24 -7 18 10 -7 19 -34 241 -30
245 2 2 10 -9 19 -25 18 -34 20 -24 4 28 -11 38 -18 46 -31 32z"/>
<path d="M911 1732 c-2 -25 21 -102 30 -102 5 0 6 12 3 28 -9 38 -32 90 -33
74z"/>
<path d="M910 1623 c0 -13 5 -23 10 -23 13 0 13 11 0 30 -8 12 -10 11 -10 -7z"/>
<path d="M947 1603 c-9 -33 -16 -78 -10 -64 7 17 33 -40 33 -73 0 -17 2 -18
10 -6 7 11 11 8 21 -15 13 -34 13 -113 0 -129 -4 -6 -11 -30 -15 -54 -10 -66
-39 -104 -49 -64 -5 17 -12 -92 -10 -155 0 -18 -4 -30 -9 -27 -20 13 20 -117
41 -133 25 -19 138 -13 163 9 12 10 25 18 29 18 5 0 21 25 35 55 30 62 17 58
139 39 47 -7 106 15 129 48 20 28 20 38 2 38 -11 0 -10 11 5 57 23 67 24 83 5
83 -8 0 -20 -26 -31 -65 -16 -59 -21 -67 -52 -80 -20 -8 -43 -15 -53 -15 -10
0 -23 -6 -29 -14 -15 -18 -59 -26 -64 -12 -3 6 7 26 20 44 26 35 25 54 -2 32
-35 -29 -5 38 38 85 27 29 40 55 27 55 -5 0 -23 -19 -40 -42 -17 -24 -38 -54
-48 -67 -23 -32 -34 -61 -22 -61 18 0 10 -31 -13 -53 -13 -12 -27 -31 -32 -42
-7 -18 -9 -18 -12 -3 -3 10 2 27 11 39 8 12 12 27 10 34 -3 7 4 31 15 54 12
22 21 52 21 66 0 14 5 25 10 25 6 0 10 8 10 18 -1 13 -6 11 -24 -12 -16 -19
-25 -24 -28 -15 -4 13 28 83 50 107 6 7 12 20 12 29 0 23 -24 0 -55 -54 -15
-24 -29 -43 -31 -40 -3 3 9 28 25 56 22 36 26 51 16 51 -7 0 -16 -9 -20 -19
-3 -11 -17 -36 -31 -56 -14 -20 -22 -44 -20 -53 3 -10 2 -23 -3 -31 -7 -11
-11 -5 -16 23 -6 31 -4 42 17 64 43 48 50 61 43 82 -9 29 -22 17 -50 -47 -14
-31 -29 -52 -35 -48 -6 3 -7 12 -3 18 3 7 17 28 29 48 30 48 36 95 12 91 -21
-3 -22 2 -6 28 16 26 4 36 -27 22 -24 -11 -25 -10 -25 20 0 30 -37 78 -61 78
-5 0 -9 11 -9 25 0 30 -36 36 -43 8z m143 -198 c0 -9 -6 -12 -15 -9 -8 4 -15
10 -15 15 0 5 7 9 15 9 8 0 15 -7 15 -15z m-33 -227 c-3 -8 -6 -5 -6 6 -1 11
2 17 5 13 3 -3 4 -12 1 -19z m78 -48 c-4 -12 -9 -19 -12 -17 -3 3 -2 15 2 27
4 12 9 19 12 17 3 -3 2 -15 -2 -27z m6 -77 c-8 -15 -10 -15 -11 -2 0 17 10 32
18 25 2 -3 -1 -13 -7 -23z m-121 -18 c0 -8 -4 -15 -10 -15 -5 0 -7 7 -4 15 4
8 8 15 10 15 2 0 4 -7 4 -15z m60 -46 c-7 -11 -14 -19 -16 -16 -7 7 7 37 17
37 6 0 5 -9 -1 -21z"/>
<path d="M789 1563 c-3 -36 2 -80 16 -143 l14 -65 -6 70 c-7 76 -7 85 -3 100
1 6 2 20 1 33 -1 26 -20 30 -22 5z"/>
<path d="M1300 1485 c0 -19 5 -35 11 -35 6 0 8 9 4 20 -4 11 -2 20 4 20 6 0
11 7 11 15 0 8 -7 15 -15 15 -10 0 -15 -11 -15 -35z"/>
<path d="M760 1481 c0 -16 5 -33 10 -36 6 -4 10 6 10 24 0 16 -4 33 -10 36 -6
4 -10 -6 -10 -24z"/>
<path d="M940 1496 c0 -8 4 -17 9 -20 5 -4 7 3 4 14 -6 23 -13 26 -13 6z"/>
<path d="M1360 1495 c0 -8 5 -15 10 -15 6 0 10 7 10 15 0 8 -4 15 -10 15 -5 0
-10 -7 -10 -15z"/>
<path d="M820 1456 c0 -8 5 -18 10 -21 6 -3 10 1 10 9 0 8 -4 18 -10 21 -5 3
-10 -1 -10 -9z"/>
<path d="M1150 1430 c0 -5 5 -10 10 -10 6 0 10 5 10 10 0 6 -4 10 -10 10 -5 0
-10 -4 -10 -10z"/>
<path d="M748 1414 c-9 -13 9 -115 22 -128 8 -8 9 4 4 44 -8 64 -18 97 -26 84z"/>
<path d="M907 1375 c-4 -8 -2 -17 3 -20 6 -4 10 3 10 14 0 25 -6 27 -13 6z"/>
<path d="M720 1323 c0 -17 7 -37 16 -44 15 -12 16 -10 9 21 -10 48 -25 62 -25
23z"/>
<path d="M684 1258 c6 -48 21 -119 32 -157 3 -8 7 -12 10 -9 2 3 0 39 -6 79
-6 41 -13 89 -16 107 -8 56 -27 37 -20 -20z"/>
<path d="M650 1168 c0 -7 5 -20 10 -28 8 -12 10 -9 10 13 0 15 -4 27 -10 27
-5 0 -10 -6 -10 -12z"/>
<path d="M1344 1145 c-22 -34 -13 -41 15 -11 14 15 18 26 12 30 -5 4 -18 -5
-27 -19z"/>
<path d="M1476 1155 c-3 -8 -1 -15 4 -15 6 0 10 7 10 15 0 8 -2 15 -4 15 -2 0
-6 -7 -10 -15z"/>
<path d="M890 1123 c0 -4 5 -15 10 -23 8 -13 10 -13 10 2 0 9 -4 20 -10 23 -5
3 -10 3 -10 -2z"/>
<path d="M800 1100 c0 -8 5 -22 10 -30 9 -13 10 -13 10 0 0 8 -5 22 -10 30 -9
13 -10 13 -10 0z"/>
<path d="M720 1046 c0 -8 5 -18 10 -21 6 -3 10 1 10 9 0 8 -4 18 -10 21 -5 3
-10 -1 -10 -9z"/>
<path d="M564 954 c8 -50 16 -56 16 -11 0 20 -5 39 -11 42 -7 5 -9 -5 -5 -31z"/>
<path d="M821 969 c-1 -38 24 -95 34 -78 5 7 4 14 -3 17 -7 2 -12 13 -13 25 0
12 -4 31 -9 42 -8 18 -9 17 -9 -6z"/>
<path d="M665 930 c-3 -5 -3 -15 1 -21 3 -6 2 -14 -4 -18 -17 -10 0 -57 28
-79 l26 -20 2 30 c1 17 -4 41 -13 54 -8 13 -15 32 -15 44 0 21 -14 27 -25 10z"/>
<path d="M1290 889 c0 -5 5 -7 10 -4 6 3 10 8 10 11 0 2 -4 4 -10 4 -5 0 -10
-5 -10 -11z"/>
<path d="M1319 856 c-52 -52 -64 -80 -32 -74 16 3 69 85 60 94 -2 2 -15 -7
-28 -20z"/>
<path d="M577 834 c-4 -4 -5 -24 -2 -43 4 -30 4 -32 -4 -13 -14 30 -22 28 -16
-5 3 -16 7 -50 9 -78 5 -63 6 -64 16 -40 l9 20 0 -20 c1 -11 8 -33 17 -50 9
-16 26 -48 37 -70 10 -22 26 -48 34 -57 9 -10 17 -34 18 -53 1 -22 11 -45 24
-58 l21 -21 0 40 c0 29 -11 58 -40 107 -22 36 -40 71 -40 77 0 6 -13 37 -29
69 -15 31 -31 75 -35 97 l-6 39 20 -24 c19 -22 20 -22 20 -3 0 12 -9 27 -19
34 -10 8 -21 24 -23 37 -1 12 -6 19 -11 15z m13 -116 c0 -5 -4 -8 -10 -8 -5 0
-10 10 -10 23 0 18 2 19 10 7 5 -8 10 -18 10 -22z"/>
<path d="M610 810 c0 -5 4 -10 8 -10 5 0 14 -15 22 -34 12 -31 14 -32 31 -18
28 24 23 41 -16 58 -41 17 -45 17 -45 4z"/>
<path d="M1193 780 c-28 -11 -30 -26 -5 -32 21 -6 52 13 52 31 0 13 -16 13
-47 1z"/>
<path d="M880 559 c0 -16 4 -28 9 -25 8 5 3 56 -5 56 -2 0 -4 -14 -4 -31z"/>
<path d="M800 536 c0 -20 11 -46 19 -46 4 0 6 14 3 30 -4 30 -22 43 -22 16z"/>
<path d="M526 532 c-2 -4 -1 -14 5 -22 7 -12 9 -10 9 8 0 23 -5 28 -14 14z"/>
<path d="M582 501 c2 -19 9 -36 16 -39 9 -3 11 4 6 25 -10 44 -26 54 -22 14z"/>
<path d="M1040 455 c0 -8 4 -15 10 -15 5 0 7 7 4 15 -4 8 -8 15 -10 15 -2 0
-4 -7 -4 -15z"/>
<path d="M650 401 c0 -19 17 -38 25 -29 7 7 -7 48 -16 48 -5 0 -9 -9 -9 -19z"/>
<path d="M671 348 c0 -7 4 -22 8 -32 7 -19 8 -18 14 4 3 13 4 27 1 32 -8 12
-24 10 -23 -4z"/>
<path d="M540 336 c0 -9 5 -16 10 -16 6 0 10 4 10 9 0 6 -4 13 -10 16 -5 3
-10 -1 -10 -9z"/>
<path d="M511 294 c0 -11 3 -14 6 -6 3 7 2 16 -1 19 -3 4 -6 -2 -5 -13z"/>
<path d="M754 299 c-5 -8 -3 -9 6 -4 9 6 10 2 5 -15 -5 -15 -4 -20 4 -16 13 9
14 33 2 41 -5 3 -13 0 -17 -6z"/>
<path d="M696 285 c-17 -13 -17 -18 -6 -45 13 -32 36 -42 27 -12 -11 41 -11
47 1 45 6 -2 12 1 12 6 0 17 -15 20 -34 6z"/>
<path d="M845 270 c-6 -10 1 -14 19 -11 5 1 6 -8 3 -20 -6 -23 11 -69 25 -69
14 0 -13 93 -31 104 -5 4 -12 2 -16 -4z"/>
<path d="M770 231 c0 -11 5 -23 10 -26 6 -3 10 3 10 14 0 11 -4 23 -10 26 -5
3 -10 -3 -10 -14z"/>
<path d="M755 180 c4 -6 11 -8 16 -5 14 9 11 15 -7 15 -8 0 -12 -5 -9 -10z"/>
<path d="M1670 304 c0 -10 5 -26 10 -34 8 -11 9 -8 6 14 -6 34 -16 47 -16 20z"/>
<path d="M1433 375 c-7 -8 -13 -19 -13 -25 0 -16 27 -12 34 6 13 35 1 45 -21
19z"/>
<path d="M1360 304 c0 -8 5 -12 10 -9 6 3 10 10 10 16 0 5 -4 9 -10 9 -5 0
-10 -7 -10 -16z"/>
<path d="M1041 264 c0 -11 3 -14 6 -6 3 7 2 16 -1 19 -3 4 -6 -2 -5 -13z"/>
<path d="M1040 220 c0 -11 4 -20 9 -20 5 0 7 9 4 20 -3 11 -7 20 -9 20 -2 0
-4 -9 -4 -20z"/>
<path d="M2710 2511 c-13 -25 -13 -31 3 -31 6 0 12 11 12 25 0 30 -1 31 -15 6z"/>
</g>
</svg>
