<?xml version="1.0" standalone="no"?>
<!DOCTYPE svg PUBLIC "-//W3C//DTD SVG 20010904//EN"
 "http://www.w3.org/TR/2001/REC-SVG-20010904/DTD/svg10.dtd">
<svg version="1.0" xmlns="http://www.w3.org/2000/svg"
 width="370.000000pt" height="150.000000pt" viewBox="0 0 370.000000 150.000000"
 preserveAspectRatio="xMidYMid meet">
<metadata>
Created by potrace 1.16, written by Peter Selinger 2001-2019
</metadata>
<g transform="translate(0.000000,150.000000) scale(0.100000,-0.100000)"
fill="#000000" stroke="none">
<path d="M3016 1460 c-39 -4 -347 -8 -685 -10 -339 -1 -690 -4 -781 -6 -368
-9 -1276 -12 -1285 -4 -6 5 -34 11 -64 15 -47 5 -53 4 -58 -15 -3 -11 -12 -20
-19 -20 -8 0 -14 -1 -14 -3 0 -1 -4 -38 -10 -82 -31 -254 -40 -454 -54 -1230
l-1 -40 50 -5 c28 -3 56 -9 63 -13 7 -5 12 -3 12 4 0 9 32 10 125 7 69 -3 128
-1 131 4 3 4 53 8 112 9 59 0 131 4 160 8 29 4 54 5 57 3 6 -6 480 -17 615
-14 58 2 123 8 145 14 22 5 99 10 170 9 72 0 207 4 300 9 259 16 415 19 421 8
3 -5 84 -8 187 -7 100 2 172 5 159 8 -42 11 -28 26 27 29 44 3 58 0 68 -15 13
-16 32 -18 201 -20 103 -1 207 -3 232 -3 25 -1 86 1 135 4 50 2 104 5 122 5
35 1 73 33 73 62 0 10 7 22 15 26 13 8 16 47 20 238 3 127 9 291 15 365 9 119
24 520 24 607 0 18 -4 36 -8 40 -4 4 -125 8 -269 10 -144 1 -275 4 -292 6 -16
2 -61 1 -99 -3z m-3 -492 c-13 -6 -23 -15 -23 -20 0 -5 13 -2 29 7 23 11 32
12 37 3 4 -6 2 -14 -4 -16 -24 -8 16 -33 43 -26 26 6 36 -9 13 -20 -7 -3 0 -4
17 -3 40 3 45 -25 8 -41 -25 -11 -26 -11 -3 -6 48 10 54 9 64 -18 20 -55 -32
-123 -163 -212 l-72 -49 -186 -9 c-134 -7 -197 -7 -223 1 -39 11 -172 15 -183
5 -8 -9 -294 -6 -557 5 -129 6 -302 13 -385 16 -124 5 -276 12 -332 14 -14 1
-43 97 -43 145 0 66 16 72 191 74 85 1 196 9 246 18 51 8 97 13 102 10 5 -4
38 1 73 9 77 18 122 20 112 3 -5 -7 -3 -8 5 -3 14 8 53 13 171 21 58 4 72 2
60 -6 -12 -10 -12 -11 5 -5 31 11 89 25 105 24 11 0 10 -3 -4 -14 -11 -8 -30
-15 -43 -15 -13 0 -23 -5 -23 -11 0 -15 89 -5 122 12 30 17 92 23 83 9 -3 -6
3 -10 15 -10 16 0 20 5 16 15 -4 11 1 15 19 15 14 0 25 -4 25 -10 0 -5 -7 -7
-15 -4 -10 4 -15 0 -15 -11 0 -11 7 -15 23 -13 12 2 22 10 22 18 0 17 156 63
190 55 11 -2 58 7 104 20 59 17 87 22 92 14 4 -8 27 -8 80 0 71 11 128 16 194
19 29 1 29 0 8 -10z m634 -110 c-3 -8 -6 -5 -6 6 -1 11 2 17 5 13 3 -3 4 -12
1 -19z m-235 -40 c18 -29 9 -41 -24 -33 -18 4 -42 9 -53 10 -27 3 -72 22 -78
32 -3 5 29 7 71 6 48 -2 78 -7 84 -15z m-2425 -74 c-1 -54 -3 -58 -51 -101
-42 -38 -55 -44 -79 -39 -16 3 -48 6 -71 6 l-41 1 38 34 c20 20 37 43 37 53 0
13 -6 10 -25 -13 -19 -23 -24 -26 -25 -12 0 23 -3 22 -47 -18 -41 -38 -75 -54
-80 -38 -2 6 -19 9 -38 7 -19 -1 -35 1 -35 6 0 5 -13 3 -30 -3 -44 -17 -56 0
-44 60 9 47 10 48 64 66 68 23 227 44 342 46 l86 1 -1 -56z m2303 46 c0 -5 -4
-10 -10 -10 -5 0 -10 5 -10 10 0 6 5 10 10 10 6 0 10 -4 10 -10z m-2290 -134
c0 -8 -7 -17 -16 -20 -9 -4 -14 -13 -10 -21 4 -11 -2 -15 -21 -15 -23 0 -24 2
-12 18 42 55 59 66 59 38z m10 -50 c0 -3 -4 -8 -10 -11 -5 -3 -10 -1 -10 4 0
6 5 11 10 11 6 0 10 -2 10 -4z m10 -116 c0 -5 -7 -7 -15 -4 -8 4 -15 8 -15 10
0 2 7 4 15 4 8 0 15 -4 15 -10z m100 6 c0 -2 -7 -6 -15 -10 -8 -3 -15 -1 -15
4 0 6 7 10 15 10 8 0 15 -2 15 -4z m435 -6 c-3 -5 -12 -10 -18 -10 -7 0 -6 4
3 10 19 12 23 12 15 0z m2072 -32 c-3 -7 -5 -2 -5 12 0 14 2 19 5 13 2 -7 2
-19 0 -25z m-3207 18 c0 -3 -4 -8 -10 -11 -5 -3 -10 -1 -10 4 0 6 5 11 10 11
6 0 10 -2 10 -4z m1251 -62 c-17 -27 -31 -43 -31 -36 0 14 53 93 58 87 2 -2
-10 -25 -27 -51z m-277 -47 c-24 -47 -50 -90 -57 -94 -7 -4 -5 4 4 18 9 13 33
57 53 98 21 40 39 71 41 69 2 -2 -16 -43 -41 -91z m76 24 c-18 -28 -34 -51
-36 -51 -6 0 35 80 49 95 23 25 17 6 -13 -44z m-993 -15 c-12 -18 -23 -30 -25
-25 -4 10 28 59 39 59 4 0 -2 -15 -14 -34z m1017 -29 c-14 -26 -30 -50 -36
-53 -6 -4 4 21 23 55 19 34 35 58 37 53 1 -5 -9 -30 -24 -55z m-826 13 c-12
-16 -23 -30 -25 -30 -2 0 4 14 14 30 9 17 21 30 25 30 5 0 -1 -13 -14 -30z
m251 -7 c-28 -47 -29 -48 -29 -37 0 12 38 74 46 74 3 0 -5 -17 -17 -37z m91 3
c0 -3 -4 -8 -10 -11 -5 -3 -10 -1 -10 4 0 6 5 11 10 11 6 0 10 -2 10 -4z
m-212 -41 c-6 -14 -13 -23 -15 -21 -5 5 15 46 22 46 3 0 -1 -11 -7 -25z m812
-13 c0 -5 -7 -17 -15 -28 -14 -18 -14 -17 -4 9 12 27 19 34 19 19z m1910 -2
c0 -5 -7 -10 -16 -10 -8 0 -12 5 -9 10 3 6 10 10 16 10 5 0 9 -4 9 -10z
m-1977 -41 c-10 -17 -24 -36 -32 -42 -17 -14 -11 -1 21 46 26 37 33 34 11 -4z
m130 16 c-3 -9 -8 -14 -10 -11 -3 3 -2 9 2 15 9 16 15 13 8 -4z m-1032 -38
c-10 -9 -11 -8 -5 6 3 10 9 15 12 12 3 -3 0 -11 -7 -18z m2429 3 c0 -5 -5 -10
-11 -10 -5 0 -7 5 -4 10 3 6 8 10 11 10 2 0 4 -4 4 -10z m-2040 -40 c0 -5 -7
-10 -16 -10 -8 0 -12 5 -9 10 3 6 10 10 16 10 5 0 9 -4 9 -10z m2455 -10 c3
-5 -1 -10 -9 -10 -8 0 -18 5 -21 10 -3 6 1 10 9 10 8 0 18 -4 21 -10z m-3375
-31 c0 -5 -4 -9 -10 -9 -5 0 -10 7 -10 16 0 8 5 12 10 9 6 -3 10 -10 10 -16z"/>
<path d="M2823 943 c-18 -2 -33 -9 -33 -15 0 -7 14 -8 38 -4 20 3 53 6 72 7
29 0 31 2 15 9 -21 9 -38 9 -92 3z"/>
<path d="M1805 850 c-3 -6 1 -7 9 -4 18 7 21 14 7 14 -6 0 -13 -4 -16 -10z"/>
<path d="M1942 849 c-12 -5 -53 -14 -90 -20 -75 -13 -113 -34 -47 -26 69 8
170 29 178 37 13 12 -16 18 -41 9z"/>
<path d="M1555 830 c-8 -13 5 -13 25 0 13 8 13 10 -2 10 -9 0 -20 -4 -23 -10z"/>
<path d="M2350 805 c0 -16 16 -20 24 -6 3 5 -1 11 -9 15 -9 3 -15 0 -15 -9z"/>
<path d="M3000 805 c-36 -13 -57 -41 -24 -32 11 3 38 11 61 18 23 7 40 16 37
20 -7 12 -31 10 -74 -6z"/>
<path d="M1618 804 c-3 -3 -20 -6 -37 -6 -17 -1 -36 -7 -42 -15 -9 -10 -3 -13
34 -13 28 0 49 5 54 14 4 7 15 16 23 19 11 4 9 6 -6 6 -11 1 -23 -2 -26 -5z"/>
<path d="M2273 803 c-18 -2 -33 -8 -33 -14 0 -13 40 -10 75 6 32 14 23 16 -42
8z"/>
<path d="M2840 800 c0 -5 7 -10 15 -10 8 0 15 5 15 10 0 6 -7 10 -15 10 -8 0
-15 -4 -15 -10z"/>
<path d="M1413 776 c-23 -6 -45 -14 -49 -19 -15 -14 42 -6 81 12 45 22 32 24
-32 7z"/>
<path d="M1945 770 c27 -12 35 -12 35 0 0 6 -12 10 -27 9 -25 0 -26 -1 -8 -9z"/>
<path d="M1305 760 c-3 -5 -1 -10 4 -10 6 0 11 5 11 10 0 6 -2 10 -4 10 -3 0
-8 -4 -11 -10z"/>
<path d="M3065 699 c-76 -51 -88 -63 -50 -49 41 15 135 72 135 82 0 17 -27 6
-85 -33z"/>
<path d="M1730 710 c0 -5 5 -10 10 -10 6 0 10 5 10 10 0 6 -4 10 -10 10 -5 0
-10 -4 -10 -10z"/>
<path d="M2934 643 c-12 -2 -58 -17 -104 -32 -79 -28 -81 -29 -45 -33 38 -4
141 11 161 24 13 8 26 49 16 47 -4 -1 -16 -4 -28 -6z"/>
<path d="M535 699 c-16 -16 -25 -29 -19 -29 6 0 17 7 24 15 17 20 30 19 30 -2
0 -10 5 -25 10 -33 7 -12 12 -12 22 -2 10 10 10 14 1 20 -7 4 -14 19 -16 32
-5 33 -17 33 -52 -1z"/>
<path d="M620 695 c0 -8 2 -15 4 -15 2 0 6 7 10 15 3 8 1 15 -4 15 -6 0 -10
-7 -10 -15z"/>
<path d="M718 693 c-29 -34 -30 -48 -2 -21 15 15 26 30 23 33 -3 3 -13 -3 -21
-12z"/>
<path d="M2818 113 c7 -3 16 -2 19 1 4 3 -2 6 -13 5 -11 0 -14 -3 -6 -6z"/>
<path d="M3367 74 c-8 -8 1 -24 14 -24 5 0 9 7 9 15 0 15 -12 20 -23 9z"/>
</g>
</svg>
