<?xml version="1.0" standalone="no"?>
<!DOCTYPE svg PUBLIC "-//W3C//DTD SVG 20010904//EN"
 "http://www.w3.org/TR/2001/REC-SVG-20010904/DTD/svg10.dtd">
<svg version="1.0" xmlns="http://www.w3.org/2000/svg"
 width="606.000000pt" height="237.000000pt" viewBox="0 0 606.000000 237.000000"
 preserveAspectRatio="xMidYMid meet">
<metadata>
Created by potrace 1.16, written by Peter Selinger 2001-2019
</metadata>
<g transform="translate(0.000000,237.000000) scale(0.100000,-0.100000)"
fill="#000000" stroke="none">
<path d="M2987 2303 c-35 -59 -34 -58 -51 -44 -18 15 -160 17 -446 7 -160 -6
-173 -6 -150 8 23 15 10 15 -156 10 -137 -5 -186 -4 -204 6 -18 9 -25 10 -28
1 -2 -7 -38 -11 -106 -11 -67 0 -106 -4 -114 -12 -9 -9 -77 -13 -251 -13 -132
0 -243 -3 -247 -7 -12 -13 -92 -9 -97 5 -3 9 -10 7 -25 -6 -18 -17 -38 -19
-184 -17 -135 1 -252 2 -508 3 -89 1 -240 -12 -258 -22 -18 -10 -22 -9 -22 3
0 20 -39 24 -72 8 -16 -7 -28 -16 -28 -18 0 -3 12 -31 27 -62 l27 -57 -1 -260
c0 -143 -5 -280 -11 -305 -6 -27 -7 -84 -2 -140 4 -52 8 -81 10 -65 1 19 4 23
7 13 5 -21 22 -24 25 -5 1 6 2 39 3 72 2 155 5 196 16 190 5 -4 19 1 30 11 31
28 33 9 3 -35 -26 -40 -26 -74 1 -38 13 18 14 17 17 -5 4 -23 4 -23 17 4 8 15
20 29 27 32 24 9 16 -37 -16 -88 -59 -92 -100 -175 -91 -181 10 -5 22 13 59
91 18 38 52 92 123 194 19 28 30 35 52 33 18 -1 27 3 27 13 0 10 -12 14 -45
14 -25 0 -45 4 -45 10 0 12 87 133 200 280 45 58 99 131 121 162 79 115 61
107 268 113 100 3 181 1 181 -4 0 -5 -6 -14 -14 -20 -8 -7 -38 -47 -67 -89
-50 -72 -219 -295 -241 -317 -11 -10 -4 163 8 233 8 41 -3 40 -54 -3 l-41 -36
-3 -101 -3 -100 -45 -15 c-81 -26 -77 -23 -59 -34 11 -6 29 -4 53 6 45 19 56
19 56 0 0 -8 7 -15 15 -15 11 0 15 12 16 48 3 201 6 232 27 232 9 0 7 -230 -2
-258 -5 -14 -1 -27 13 -41 26 -26 27 -26 26 6 0 22 6 28 32 35 18 5 35 13 39
19 4 7 0 9 -12 5 -11 -3 -25 -2 -33 3 -10 7 0 26 46 82 32 41 73 94 91 119
168 233 171 237 210 244 78 12 77 11 -22 -129 -39 -55 -98 -140 -131 -190 -33
-50 -70 -103 -83 -119 l-22 -29 0 32 c0 52 -17 35 -22 -22 -3 -37 -12 -64 -30
-88 -35 -46 -68 -110 -62 -120 2 -5 11 -6 19 -3 8 4 12 10 9 15 -5 9 42 99 52
99 7 0 -6 -43 -15 -50 -7 -6 -11 -70 -5 -70 3 0 9 11 14 25 6 15 15 23 24 19
11 -4 12 -11 3 -33 -6 -16 -7 -36 -3 -46 6 -16 18 -17 134 -11 70 3 155 8 189
12 76 8 133 -1 133 -21 0 -8 -5 -15 -11 -15 -7 0 -9 -11 -6 -30 4 -17 2 -30
-3 -30 -6 0 -10 -7 -10 -15 0 -12 -19 -15 -115 -15 -69 0 -115 -4 -115 -10 0
-6 19 -7 48 -3 64 8 48 -6 -19 -16 -47 -8 -55 -6 -67 10 -17 24 -32 24 -25 0
3 -11 -2 -21 -11 -24 -22 -9 -21 -54 2 -61 9 -2 83 -8 164 -11 82 -4 146 -11
143 -15 -3 -4 -71 -8 -152 -9 -82 -1 -181 -8 -222 -15 l-74 -13 6 134 c4 105
3 133 -8 133 -16 0 -20 -23 -24 -138 -3 -90 -4 -95 -34 -123 -39 -38 -57 -34
-71 16 -7 25 -15 35 -19 28 -9 -15 2 -65 17 -76 8 -6 7 -10 -1 -14 -9 -3 -13
-28 -13 -74 0 -62 -2 -69 -20 -69 -16 0 -20 7 -20 30 0 51 -17 33 -30 -32 -6
-35 -14 -69 -16 -75 -2 -8 -20 -13 -45 -13 l-41 0 8 337 c10 440 11 418 -1
418 -6 0 -10 -58 -10 -155 0 -85 -4 -255 -9 -377 l-9 -223 -36 -5 c-20 -3 -48
-8 -63 -10 -26 -4 -28 -2 -29 28 0 17 -1 166 -2 329 -1 163 -5 300 -9 304 -16
16 -47 -32 -138 -215 -52 -104 -98 -188 -102 -185 -4 3 -8 0 -8 -6 0 -6 -4 -9
-9 -6 -9 6 -25 -54 -16 -62 3 -3 5 1 6 9 0 8 4 6 9 -6 6 -16 18 2 64 100 65
138 85 177 135 260 35 58 36 59 39 30 2 -17 -2 -33 -10 -40 -17 -12 -76 -113
-147 -250 -65 -127 -78 -145 -91 -125 -7 11 -10 6 -11 -20 -2 -35 -3 -43 -14
-133 -4 -34 -1 -54 10 -70 13 -18 15 -19 15 -4 0 16 37 92 78 162 6 11 32 64
57 118 41 89 66 126 50 77 -17 -54 -169 -354 -189 -375 -25 -25 -45 -95 -26
-95 13 0 13 -76 -1 -102 -8 -15 -8 -23 1 -32 17 -16 37 14 136 212 86 170 127
236 79 128 -77 -174 -194 -383 -205 -366 -9 15 -32 -93 -25 -121 3 -13 7 -114
10 -224 2 -110 4 -203 5 -207 0 -4 13 5 28 20 118 113 149 135 193 139 l44 4
-40 -28 c-22 -15 -59 -41 -83 -57 -45 -31 -57 -44 -49 -53 3 -3 36 19 74 49
37 30 86 65 108 78 l40 24 -45 -50 c-25 -27 -57 -61 -71 -75 -14 -14 -28 -31
-30 -38 -3 -7 -30 -15 -64 -18 -33 -3 -62 -7 -64 -9 -13 -12 494 6 594 21 36
5 369 25 507 30 54 2 102 6 107 9 5 3 65 8 133 11 67 3 166 7 218 9 58 3 87 1
75 -4 -19 -8 -19 -9 2 -9 12 -1 23 5 25 12 5 12 17 13 423 16 97 1 135 4 125
11 -8 6 -44 8 -80 6 -56 -4 -59 -4 -25 4 22 5 72 9 110 8 191 -3 286 -1 460
10 105 6 289 11 410 11 121 0 282 3 358 7 111 6 137 4 137 -7 0 -10 3 -10 12
-1 14 14 100 16 113 3 6 -5 74 -11 153 -13 104 -3 145 -7 151 -17 6 -9 18 -11
40 -6 41 9 41 30 0 21 -22 -4 -29 -2 -26 7 2 7 23 12 55 12 51 0 59 10 12 17
-38 6 225 17 308 14 68 -3 116 -16 61 -16 -19 0 -21 -2 -9 -10 8 -5 26 -10 39
-10 18 0 22 4 18 19 -6 26 16 31 128 30 82 -1 86 -2 45 -10 -25 -5 -55 -7 -67
-4 -13 3 -23 1 -23 -5 0 -5 -11 -10 -25 -10 -14 0 -25 -4 -25 -10 0 -5 13 -10
29 -10 16 0 38 -3 48 -6 14 -5 15 -4 4 4 -22 16 49 26 117 17 32 -4 113 -7
182 -8 114 -1 126 1 135 19 6 11 18 18 28 16 21 -4 23 -22 2 -22 -8 0 -15 -4
-15 -10 0 -14 16 -12 32 3 7 7 35 14 62 16 28 1 54 5 59 8 5 3 50 7 98 8 74 3
91 0 98 -13 7 -12 27 -17 78 -18 97 -4 110 -5 96 -11 -34 -13 -1 -20 119 -26
136 -6 159 -2 178 33 9 16 8 18 -6 13 -14 -5 -15 3 -9 83 4 49 9 97 11 106 4
11 0 18 -9 18 -18 0 -29 101 -12 112 6 5 5 8 -3 8 -8 0 -13 13 -13 33 0 17 -2
118 -4 222 -3 154 -2 174 6 105 23 -215 27 -275 18 -278 -6 -2 -5 -10 1 -17 7
-9 10 -45 8 -94 -2 -45 0 -81 3 -81 12 0 20 161 25 530 3 206 9 430 14 498 6
68 10 163 10 212 0 78 -2 89 -16 83 -14 -5 -16 0 -11 33 2 21 8 50 12 64 5 19
4 21 -3 10 -11 -14 -10 18 4 274 4 67 2 112 -4 118 -7 7 -12 -7 -16 -43 -23
-210 -24 -217 -19 -69 2 80 7 153 9 163 4 11 0 17 -10 17 -9 0 -16 -4 -16 -10
0 -5 -7 -10 -15 -10 -8 0 -15 -8 -16 -17 -2 -47 4 -128 17 -228 17 -136 18
-267 2 -283 -20 -20 -27 -14 -22 21 8 56 -20 71 -108 57 -26 -3 -45 -4 -43 0
3 4 29 24 60 45 36 26 52 42 46 48 -9 9 -138 -50 -196 -89 -11 -8 -28 -14 -38
-14 -17 0 -18 2 -6 16 7 9 46 39 86 66 41 27 71 53 68 58 -7 12 -53 -10 -115
-55 -52 -38 -161 -89 -154 -72 7 16 118 107 174 143 54 35 74 53 67 60 -11 12
-47 -9 -142 -81 -89 -67 -141 -96 -133 -76 2 5 42 41 91 81 48 40 87 76 87 81
0 19 -28 7 -91 -38 -80 -59 -136 -89 -145 -80 -10 9 31 52 84 89 42 29 60 68
25 53 -10 -4 -28 -7 -41 -6 -13 0 -39 -6 -59 -14 -48 -20 -65 -18 -28 3 29 16
30 17 6 20 -13 2 -28 -1 -34 -7 -17 -17 -31 -13 -17 4 23 27 -16 28 -95 2 -85
-29 -91 -24 -16 13 51 25 67 50 33 50 -10 0 -42 -7 -71 -16 -29 -8 -55 -14
-57 -11 -2 2 23 16 56 32 100 48 72 71 -39 31 -57 -21 -100 -21 -52 -1 18 8
62 35 97 59 58 41 71 46 161 58 54 7 158 12 233 10 158 -4 300 6 300 20 0 9
-101 4 -158 -8 -14 -3 -21 -1 -18 5 10 16 -23 20 -179 21 -456 1 -435 2 -435
-15 0 -14 -39 -22 -80 -16 -8 2 -152 4 -320 5 -168 2 -376 7 -462 11 -131 6
-158 5 -158 -6 0 -12 -2 -12 -9 0 -9 14 -172 19 -276 7 -27 -3 -126 -8 -218
-11 -93 -2 -172 -7 -176 -10 -5 -2 -17 2 -27 10 -22 17 -60 19 -69 5 -4 -6
-23 -10 -43 -10 -20 1 -93 -1 -161 -5 l-123 -7 7 31 c8 38 -5 40 -28 4z
m-1087 -43 c11 -7 -1 -10 -40 -9 -40 0 -49 3 -35 9 27 12 57 12 75 0z m2453
-4 c266 -4 367 -2 367 6 0 6 8 4 18 -5 13 -12 37 -17 80 -17 34 0 62 -4 62 -9
0 -15 -67 -60 -76 -51 -5 5 -27 16 -49 25 l-40 16 30 -23 c51 -39 75 -66 70
-80 -5 -14 -84 -52 -91 -45 -3 2 2 10 11 17 16 13 21 40 7 40 -4 0 -23 -16
-42 -35 -21 -22 -43 -35 -59 -35 -23 0 -24 1 -6 13 13 10 15 16 6 21 -9 6 -7
11 6 21 33 25 -10 28 -51 4 -20 -12 -39 -19 -41 -17 -3 3 6 11 20 18 14 7 25
17 25 22 0 11 -31 10 -50 -2 -9 -6 -17 -5 -22 3 -6 9 -19 6 -50 -11 -25 -13
-44 -19 -46 -12 -6 18 -21 11 -88 -40 -36 -27 -69 -50 -74 -50 -5 0 -11 -8
-14 -17 -3 -10 -3 1 -1 25 3 23 1 42 -3 42 -5 0 -23 -33 -41 -73 -56 -128
-112 -174 -181 -149 -24 9 -23 10 31 41 57 32 101 71 81 71 -7 0 -43 -20 -81
-44 -38 -25 -71 -42 -74 -40 -3 3 17 28 44 56 27 28 49 55 49 60 0 15 -31 8
-37 -9 -6 -15 -8 -14 -13 6 -3 13 -14 29 -25 35 -11 6 -26 19 -33 29 -16 21
-74 23 -132 2 -23 -8 -55 -15 -70 -15 -15 0 -54 -14 -86 -30 l-59 -31 63 59
c63 61 76 79 45 68 -13 -6 -12 -1 5 17 19 20 21 26 8 36 -11 9 -20 7 -42 -12
-45 -37 -114 -79 -126 -75 -6 2 6 15 26 28 36 25 46 40 25 40 -6 0 -54 -21
-106 -46 -52 -25 -96 -44 -98 -42 -2 2 25 22 60 43 35 22 64 46 65 53 0 21
-20 13 -67 -25 -26 -21 -44 -32 -42 -24 3 8 14 19 24 25 10 6 28 19 39 29 11
9 24 17 30 17 6 0 5 5 -2 12 -9 9 -16 8 -29 -4 -43 -38 -120 -61 -85 -26 7 7
12 24 12 40 0 17 7 31 20 38 11 6 94 11 197 11 214 1 302 4 309 12 3 3 11 4
17 2 7 -2 177 -6 380 -9z m917 10 c0 -11 -19 -15 -25 -6 -3 5 1 10 9 10 9 0
16 -2 16 -4z m-3213 -12 c-3 -3 -12 -4 -19 -1 -8 3 -5 6 6 6 11 1 17 -2 13 -5z
m93 -4 c-22 -7 -20 -8 15 -10 66 -2 278 -6 466 -8 l175 -2 17 -35 c36 -76 15
-160 -49 -190 -39 -18 -66 -17 -179 7 -65 14 -73 29 -23 41 18 4 42 12 53 17
11 5 43 18 70 29 74 29 20 26 -62 -4 -37 -13 -69 -22 -71 -20 -3 2 12 14 32
26 36 21 47 39 23 39 -7 0 -22 -7 -34 -15 -11 -8 -33 -19 -48 -25 -24 -9 -26
-9 -16 4 26 31 -11 26 -63 -8 -30 -20 -58 -36 -62 -36 -4 0 -15 -6 -24 -12 -9
-7 1 3 22 23 21 20 38 39 38 43 0 14 -26 4 -64 -27 -45 -36 -179 -117 -194
-117 -5 0 -16 8 -25 18 -13 14 -14 21 -5 30 20 20 -9 39 -105 71 -108 36 -132
39 -122 14 16 -40 16 -54 1 -101 -20 -58 -64 -103 -129 -131 -66 -28 -72 -27
-44 12 54 73 34 74 -23 2 -31 -40 -39 -45 -76 -45 -47 0 -61 12 -66 55 -2 24
-8 31 -30 33 -14 2 -31 9 -38 16 -8 11 -3 18 25 35 19 11 35 16 35 11 0 -5 -4
-12 -10 -15 -5 -3 -10 -11 -10 -17 0 -10 15 -8 55 8 19 7 19 7 3 -13 -25 -28
-22 -46 10 -65 27 -16 31 -16 67 3 21 12 45 27 52 35 8 8 30 26 49 40 19 15
34 30 34 35 0 11 -40 5 -67 -9 -19 -11 -21 -10 -18 6 1 10 26 61 54 114 36 67
48 97 39 101 -13 4 163 19 192 15 72 -7 138 15 73 25 -16 2 -3 4 27 5 41 0 49
-2 30 -8z m3025 -9 c-12 -10 -121 -52 -198 -76 -53 -17 -60 -17 -74 -2 -15 14
-14 16 13 23 16 3 76 19 134 34 112 31 140 35 125 21z m-2225 -10 c0 -12 -80
-151 -87 -151 -2 0 -2 13 2 29 4 17 0 44 -9 66 -9 21 -16 41 -16 46 0 4 21 10
48 12 26 2 50 4 55 5 4 1 7 -2 7 -7z m335 -9 c-3 -7 -5 -26 -5 -42 0 -22 -6
-30 -30 -39 -16 -5 -30 -14 -30 -19 0 -22 30 -80 45 -85 8 -4 15 -10 15 -15 0
-23 -159 -293 -214 -365 -16 -20 -30 -18 -96 11 -77 34 -85 55 -42 117 51 75
276 370 284 373 11 5 10 32 0 32 -11 0 -50 -49 -200 -250 -68 -91 -130 -167
-139 -168 -20 -5 -20 -5 61 118 87 132 186 297 186 310 0 6 -6 10 -12 10 -7 0
-30 -32 -51 -72 -52 -97 -203 -331 -228 -354 -19 -17 -22 -17 -49 -2 -24 14
-29 14 -34 2 -3 -8 -19 -14 -38 -14 l-32 0 25 28 c71 77 191 260 242 367 36
75 32 74 198 72 124 0 149 -3 144 -15z m75 10 c0 -4 -13 -13 -30 -19 -33 -12
-33 -12 -24 11 6 16 54 23 54 8z m1605 -11 c-77 -19 -88 -18 -59 4 12 9 40 14
74 14 l55 -1 -70 -17z m992 -3 c-3 -8 -6 -5 -6 6 -1 11 2 17 5 13 3 -3 4 -12
1 -19z m-4363 -11 c20 -20 37 -116 26 -138 -9 -16 -7 -19 9 -19 11 0 29 10 41
22 26 28 26 15 -1 -29 -11 -18 -34 -40 -49 -48 -34 -18 -44 -19 -35 -5 3 6 1
10 -4 10 -6 0 -11 9 -11 20 0 12 -9 22 -24 26 -15 3 -23 11 -20 19 4 10 -12
12 -80 8 -93 -6 -105 1 -59 36 14 12 23 24 19 28 -3 4 -20 -6 -36 -22 -16 -16
-33 -26 -36 -22 -10 10 49 77 74 83 29 8 28 24 -1 24 -39 0 -101 -78 -91 -116
3 -13 -20 -51 -72 -119 -42 -55 -117 -156 -166 -225 -50 -69 -94 -128 -98
-133 -3 -4 -35 -10 -69 -14 l-62 -6 6 39 c4 22 15 51 24 66 27 46 93 143 165
245 38 54 95 137 128 184 32 48 64 89 71 92 8 3 65 6 127 6 63 1 116 4 119 7
9 9 93 -7 105 -19z m176 8 c0 -7 -78 -45 -94 -45 -7 0 -17 -12 -21 -27 -9 -37
-25 -12 -25 40 l0 37 70 0 c39 0 70 -2 70 -5z m3410 -16 c-34 -23 -130 -69
-145 -69 -36 0 -10 20 63 49 80 31 108 38 82 20z m-4790 -7 c0 -4 -14 -16 -31
-26 -20 -12 -27 -21 -20 -26 9 -5 9 -14 1 -35 -9 -23 -13 -26 -20 -15 -7 12
-10 9 -10 -11 0 -15 -7 -32 -15 -39 -19 -16 -32 -6 -17 12 12 15 10 91 -3 98
-8 5 -21 -13 -61 -84 -9 -16 -14 -40 -11 -54 7 -38 -1 -50 -30 -44 l-26 5 6
99 c5 88 3 98 -10 86 -13 -10 -15 -9 -12 7 4 17 15 20 99 23 52 2 97 6 99 8 8
7 61 4 61 -4z m254 -4 c-5 -8 -2 -9 9 -5 10 3 17 4 17 1 0 -2 -48 -70 -107
-150 -117 -158 -182 -248 -243 -335 -32 -46 -46 -58 -76 -63 -20 -4 -38 -5
-40 -3 -5 5 77 135 103 162 39 42 72 91 73 107 0 9 14 42 31 72 37 68 25 74
-16 8 -68 -109 -208 -319 -228 -339 -11 -13 -24 -23 -29 -23 -13 0 -7 260 7
287 7 14 15 19 21 13 17 -17 54 0 54 24 0 13 11 33 24 45 l25 23 12 -21 c12
-19 15 -19 31 -4 24 22 23 1 -2 -28 -15 -18 -22 -21 -28 -11 -6 9 -13 7 -29
-10 -11 -13 -23 -32 -27 -43 -7 -18 -5 -18 17 3 13 12 27 22 32 22 4 0 23 11
40 25 33 25 46 61 45 130 0 17 9 40 20 53 11 11 20 26 20 31 0 5 5 13 12 17 8
5 9 0 5 -15 -9 -35 18 -36 60 -2 22 18 39 27 42 20 2 -6 -1 -14 -6 -18 -14
-10 -43 -59 -43 -73 0 -7 19 16 43 50 42 61 42 62 90 62 34 0 46 -3 41 -12z
m2754 -21 c-6 -12 -12 -24 -12 -27 -1 -7 -19 -1 -30 11 -6 6 -6 9 2 9 7 0 12
6 12 14 0 15 20 26 33 19 4 -2 2 -14 -5 -26z m-1645 -54 c-27 -42 -54 -78 -61
-81 -8 -2 2 18 21 45 19 27 42 64 51 81 9 18 21 32 26 32 6 0 -11 -35 -37 -77z
m1582 57 c-3 -5 -13 -10 -21 -10 -8 0 -14 5 -14 10 0 6 9 10 21 10 11 0 17 -4
14 -10z m-1611 -12 c-13 -23 -37 -48 -46 -48 -19 0 -6 30 20 44 34 19 35 19
26 4z m3158 -5 c10 -9 18 -23 18 -31 0 -10 7 -12 27 -7 22 5 14 -5 -40 -56
-37 -34 -73 -71 -79 -83 -10 -19 35 19 126 106 17 15 34 28 39 28 10 0 1 -12
-88 -121 -33 -41 -76 -95 -95 -121 -65 -86 -99 -118 -125 -118 -29 0 -33 -15
-7 -29 16 -9 16 -11 0 -27 -23 -24 -198 -35 -198 -13 0 8 52 88 115 179 63 91
115 168 115 172 0 4 19 12 43 18 69 18 97 32 98 49 2 22 6 54 7 64 3 12 25 8
44 -10z m-1576 -40 c19 -26 19 -49 -1 -33 -12 10 -18 10 -30 0 -12 -10 -16 -9
-21 4 -15 40 26 63 52 29z m1884 12 c0 -9 -92 -46 -104 -42 -6 2 14 13 44 25
65 25 60 23 60 17z m-1815 -35 c-3 -5 -11 -10 -16 -10 -6 0 -7 5 -4 10 3 6 11
10 16 10 6 0 7 -4 4 -10z m-1323 -26 c40 -15 75 -28 77 -30 2 -2 -2 -11 -9
-19 -12 -14 -9 -21 21 -49 30 -30 99 -60 85 -38 -6 10 39 34 48 25 11 -11 6
-24 -6 -17 -9 5 -10 4 -3 -4 6 -7 24 -14 41 -18 28 -5 32 -3 45 31 l14 37 115
3 c63 2 148 -2 187 -8 63 -9 77 -9 108 6 19 9 35 14 35 12 0 -7 -134 -186
-158 -211 -25 -26 -142 -40 -172 -22 -15 10 -23 9 -39 -6 -17 -15 -23 -16 -36
-6 -13 10 -15 9 -15 -9 0 -11 5 -21 11 -21 6 0 8 -7 5 -16 -4 -9 -1 -23 5 -30
9 -11 8 -20 -4 -38 -26 -39 -254 -119 -390 -136 -40 -5 -92 -12 -117 -15 -25
-4 -40 -3 -35 2 13 10 11 40 -4 76 -6 16 -11 33 -11 38 0 12 10 11 -180 18
l-165 6 90 95 c80 85 96 97 145 111 133 37 199 108 203 216 2 52 8 53 109 17z
m443 6 c-8 -14 -105 -63 -112 -56 -5 4 11 16 77 53 36 21 47 22 35 3z m2105
15 c0 -3 -16 -12 -36 -20 -40 -16 -114 -20 -114 -6 0 14 48 23 68 12 12 -6 25
-5 42 5 26 14 40 17 40 9z m457 -28 c-1 -15 6 -22 33 -29 31 -9 33 -11 17 -23
-27 -20 -21 -38 11 -31 15 3 43 9 62 13 35 6 35 6 17 -15 -18 -20 -18 -21 0
-30 10 -5 24 -7 32 -4 21 7 10 -11 -41 -67 -53 -59 -27 -52 -268 -67 -86 -5
-133 -12 -149 -23 -23 -15 -24 -15 -12 7 18 34 202 262 211 262 4 0 10 8 12
18 4 15 13 17 41 14 30 -3 36 -8 34 -25z m-1539 9 c-10 -7 -15 -15 -12 -18 3
-4 0 -9 -7 -14 -8 -4 -10 -3 -5 4 13 21 -10 13 -51 -17 l-41 -30 -21 23 -21
23 28 -5 c18 -2 47 6 78 22 53 27 80 34 52 12z m1718 6 c-11 -18 -85 -44 -103
-37 -13 5 -4 11 36 21 30 8 57 17 60 19 7 8 13 6 7 -3z m-3771 -38 c12 -9 31
-12 52 -8 44 8 43 -11 -2 -37 -35 -21 -44 -42 -25 -54 26 -16 5 -53 -129 -225
-41 -52 -75 -96 -76 -97 0 -1 -63 -5 -139 -9 l-138 -7 11 22 c14 25 142 202
246 341 l72 95 54 -4 c30 -2 63 -10 74 -17z m2488 -6 c-2 -28 19 -39 32 -18
11 18 25 10 25 -14 0 -30 -37 -77 -58 -74 -9 2 -17 -2 -17 -9 0 -6 -3 -15 -7
-19 -14 -13 -9 -26 7 -20 8 3 31 -6 51 -19 47 -32 114 -34 155 -4 16 11 43 47
59 79 29 57 31 59 64 53 45 -7 134 15 148 37 9 13 21 16 59 12 26 -2 60 0 76
5 15 6 42 8 60 6 28 -5 31 -8 28 -33 -2 -16 -21 -53 -42 -82 -21 -29 -68 -97
-103 -150 -65 -99 -79 -109 -124 -92 -12 5 -13 11 -5 27 9 20 9 20 -4 5 -8
-10 -19 -18 -25 -18 -17 0 -44 58 -37 80 4 14 2 20 -9 20 -9 0 -16 -6 -16 -12
0 -9 -3 -8 -10 2 -15 24 0 62 42 102 34 34 50 69 31 68 -7 -1 -126 -141 -141
-166 -10 -16 -73 -32 -163 -40 -60 -5 -82 -3 -107 10 -40 21 -45 20 -37 -5 5
-15 4 -19 -5 -14 -6 4 -10 21 -8 38 2 26 -1 32 -16 32 -28 0 -60 -48 -65 -97
-1 -5 -9 -8 -19 -8 -15 0 -18 8 -18 40 0 49 -4 53 -45 43 -37 -10 -46 -30 -48
-100 l-1 -41 -69 -16 c-39 -9 -72 -16 -75 -16 -12 0 -5 17 14 37 25 28 175
237 222 311 31 49 44 61 85 74 26 9 64 16 83 15 32 -2 35 -5 33 -29z m435 5
c-2 -11 -18 -20 -43 -25 -62 -13 -75 -4 -25 19 56 26 72 28 68 6z m922 2 c0
-9 -59 -35 -77 -34 -10 0 2 9 27 19 53 22 50 21 50 15z m-2810 -20 c11 -13 7
-15 -29 -15 -46 0 -52 6 -18 20 31 12 33 12 47 -5z m895 -42 c13 -16 22 -34
19 -42 -4 -12 -2 -12 13 0 9 8 14 10 11 4 -4 -5 -53 -80 -110 -165 -88 -132
-107 -155 -128 -155 -32 1 -120 16 -120 21 0 2 17 26 38 54 22 28 48 68 59 88
78 142 117 209 130 224 19 21 54 10 88 -29z m208 12 c-29 -36 -39 -41 -61 -26
-10 6 -2 15 30 34 58 35 64 34 31 -8z m116 -27 c-28 -44 -129 -183 -234 -322
-18 -24 -27 -27 -110 -32 -49 -3 -96 -1 -103 4 -11 7 9 45 91 170 58 88 109
162 114 165 4 3 29 1 55 -5 43 -10 49 -9 98 21 28 17 56 28 62 25 6 -4 8 -3 4
4 -3 6 -2 13 4 17 5 3 10 0 10 -7 0 -8 5 -7 17 5 30 30 26 9 -8 -45z m1726 32
c-27 -16 -61 -29 -75 -29 -19 0 -11 7 35 29 79 37 103 37 40 0z m-3749 -5 c-3
-8 0 -15 6 -15 17 0 1 -14 -45 -39 -45 -25 -47 -25 -47 -7 0 8 12 24 28 35 15
11 32 25 37 30 15 15 28 13 21 -4z m642 0 c1 -1 -2 -15 -8 -31 l-11 -29 -21
28 c-11 15 -27 27 -36 27 -15 0 -15 2 -2 10 12 8 67 5 78 -5z m1117 -5 c-3 -5
-14 -10 -23 -9 -14 0 -13 2 3 9 27 11 27 11 20 0z m1887 -52 c-28 -28 -10 -34
41 -13 12 5 17 3 17 -8 0 -8 11 -22 25 -31 20 -13 24 -22 19 -41 -4 -18 -2
-25 9 -25 16 0 27 -29 27 -72 0 -37 15 -36 28 1 12 33 73 73 80 52 2 -7 15
-16 29 -22 24 -9 28 -36 8 -52 -25 -18 -117 -38 -204 -43 -53 -3 -101 -7 -106
-9 -25 -7 -185 15 -214 29 -46 24 -30 36 50 36 62 0 69 2 69 20 0 16 6 20 32
18 29 -3 33 0 35 22 1 14 0 18 -3 8 -6 -20 -7 -20 -27 -12 -9 3 -12 14 -9 30
5 28 -17 34 -25 6 -3 -11 -20 -21 -49 -28 l-44 -10 65 64 c35 35 62 68 60 72
-6 10 18 17 65 19 26 1 31 -2 22 -11z m157 -37 c-13 -10 -28 -17 -32 -14 -5 3
4 13 20 23 36 22 43 17 12 -9z m-3939 -10 c0 -34 19 -52 65 -60 l34 -6 -93
-100 -93 -99 -77 -4 c-43 -3 -76 0 -76 5 0 5 25 41 55 79 31 38 77 101 103
141 51 78 82 95 82 44z m3960 -55 c0 -2 -7 -7 -16 -10 -8 -3 -12 -2 -9 4 6 10
25 14 25 6z m-420 -36 c11 -7 4 -10 -25 -10 -23 0 -46 -5 -53 -12 -9 -9 -12
-8 -12 4 0 26 59 38 90 18z m590 -5 c-7 -8 -20 -15 -29 -15 -11 1 -8 5 9 15
32 18 35 18 20 0z m213 6 c15 -2 6 -49 -10 -55 -15 -6 -15 -8 -3 -17 23 -14
-6 -29 -60 -29 -43 0 -121 28 -133 47 -13 20 120 64 173 58 14 -2 28 -4 33 -4z
m-2185 -73 c-4 -68 -28 -79 -28 -13 0 28 4 44 10 40 6 -3 7 1 4 9 -3 9 -1 16
5 16 8 0 11 -17 9 -52z m-1101 15 c-9 -8 -129 -25 -135 -18 -11 11 10 18 70
24 65 7 76 6 65 -6z m73 13 c0 -2 -7 -6 -15 -10 -8 -3 -15 -1 -15 4 0 6 7 10
15 10 8 0 15 -2 15 -4z m1463 -16 c-8 -29 -91 -53 -169 -48 -70 4 -71 5 -76
32 -3 17 3 19 67 18 39 -1 90 3 115 7 68 13 69 13 63 -9z m-1363 3 c-1 -14
-71 -105 -77 -100 -3 3 -16 2 -29 -3 -18 -7 -24 -6 -24 5 0 7 4 16 9 19 5 3 7
15 4 27 -4 12 0 25 8 30 21 13 29 11 23 -8 -5 -14 -2 -13 13 4 15 18 33 27 66
32 4 0 7 -2 7 -6z m43 -34 c-35 -44 -64 -71 -70 -65 -8 7 45 84 66 96 23 13
25 -5 4 -31z m2053 9 c-3 -17 -8 -33 -10 -36 -3 -2 -47 -7 -98 -10 -93 -7 -93
-7 -96 -35 -5 -39 21 -56 82 -57 l49 0 -19 -21 c-63 -70 -205 -120 -254 -89
-12 7 -12 12 0 34 7 14 20 34 29 43 9 10 36 46 60 81 24 34 50 62 57 62 7 0
37 11 66 24 73 32 79 34 112 35 27 1 28 -1 22 -31z m-126 17 c0 -5 -55 -35
-65 -35 -15 0 -2 22 18 30 25 10 47 12 47 5z m220 -2 c0 -29 -23 -83 -35 -83
-20 0 -19 36 3 65 17 24 32 32 32 18z m60 -7 c0 -3 -4 -8 -10 -11 -5 -3 -10
-1 -10 4 0 6 5 11 10 11 6 0 10 -2 10 -4z m684 -25 c27 -13 64 -23 82 -24 37
-1 45 -11 17 -20 -10 -3 -46 -17 -81 -32 -86 -36 -199 -47 -347 -35 -66 6
-129 12 -140 14 -11 2 -28 4 -37 5 -10 0 -24 13 -32 29 l-14 27 100 -3 c134
-5 283 14 345 43 26 13 50 22 53 21 3 -1 27 -12 54 -25z m-2738 -53 c45 -13
55 -27 30 -47 -29 -24 -146 61 -146 106 0 11 11 6 36 -16 19 -17 55 -37 80
-43z m1211 49 c-6 -17 -67 -62 -67 -50 0 5 14 24 31 42 29 32 47 36 36 8z
m1747 -21 c-65 -38 -209 -97 -250 -101 l-49 -6 68 25 c38 14 108 47 155 74 66
36 88 44 91 33 1 -8 -5 -19 -15 -25z m-3414 25 c0 -11 -82 -53 -89 -46 -11 11
32 38 87 54 1 1 2 -3 2 -8z m2584 -44 c-8 -5 -23 -1 -39 10 -40 29 -30 44 14
20 30 -17 36 -24 25 -30z m-756 24 c46 -13 48 -17 27 -45 -12 -16 -17 -17 -30
-6 -19 16 -63 76 -49 68 5 -3 28 -11 52 -17z m652 9 c0 -5 -4 -10 -10 -10 -5
0 -10 5 -10 10 0 6 5 10 10 10 6 0 10 -4 10 -10z m-2422 -32 c-2 -25 -9 -33
-30 -39 -33 -8 -32 -9 -14 36 20 46 49 48 44 3z m1376 11 c27 -7 55 -5 98 6
33 8 62 15 64 15 3 0 -7 -18 -23 -39 -31 -44 -46 -51 -116 -51 -38 0 -53 5
-72 25 -30 29 -35 71 -7 60 9 -4 34 -11 56 -16z m2050 -71 c-3 -51 -8 -95 -10
-97 -7 -8 -12 4 -18 44 -4 30 -3 34 3 15 7 -19 9 -5 10 53 1 47 5 77 12 77 7
0 8 -29 3 -92z m-3374 75 c0 -5 -5 -15 -10 -23 -8 -12 -10 -11 -10 8 0 12 5
22 10 22 6 0 10 -3 10 -7z m220 -1 c0 -18 74 -81 101 -87 35 -8 36 -15 5 -44
-25 -23 -25 -23 -53 -4 -15 11 -43 25 -60 32 -29 12 -33 18 -33 50 0 35 14 61
32 61 4 0 8 -4 8 -8z m925 -2 c-3 -5 -14 -10 -23 -10 -15 0 -15 2 -2 10 20 13
33 13 25 0z m119 -69 c19 -18 36 -22 85 -23 l61 -1 -22 -36 c-12 -20 -29 -47
-37 -61 -8 -14 -16 -27 -18 -29 -6 -8 -33 22 -33 38 0 20 -36 45 -69 48 -13 1
-25 3 -27 5 -1 2 2 34 9 72 10 60 12 65 19 39 4 -16 18 -39 32 -52z m420 32
c29 -32 29 -32 11 -59 l-18 -27 -18 34 c-17 32 -27 113 -11 94 4 -6 20 -24 36
-42z m244 -55 c-34 -46 -63 -85 -64 -86 -5 -8 -35 16 -74 61 l-42 47 26 35 26
34 86 -1 c47 0 89 3 92 7 4 3 8 2 10 -4 2 -5 -25 -47 -60 -93z m-732 65 c-10
-10 -19 5 -10 18 6 11 8 11 12 0 2 -7 1 -15 -2 -18z m362 -107 c-5 -149 -14
-176 -67 -194 -24 -9 -34 -8 -45 4 -19 19 -23 18 -29 -6 -7 -27 -59 -29 -56
-2 3 38 0 45 -16 32 -13 -10 -15 -9 -15 9 0 13 10 26 25 33 14 6 25 16 25 21
0 5 -8 3 -17 -4 -15 -12 -16 -12 -9 6 4 11 28 52 53 90 32 50 60 79 94 100 27
16 49 33 49 37 0 4 3 8 6 8 4 0 5 -60 2 -134z m-1688 117 c0 -14 -17 -34 -26
-32 -5 2 -19 0 -31 -5 -30 -10 -32 -56 -3 -56 28 0 26 -34 -2 -52 -39 -26
-324 -171 -313 -161 6 6 56 48 113 93 56 45 118 102 137 128 42 54 125 111
125 85z m1203 -23 c-3 -11 -9 -23 -14 -26 -10 -6 -12 39 -3 49 12 12 22 -3 17
-23z m537 -67 c0 -39 -6 -84 -12 -100 -12 -27 -13 -27 -16 22 -2 28 -1 79 3
114 9 84 25 61 25 -36z m1704 -140 c-3 -131 -7 -253 -10 -272 l-5 -33 -142 7
c-78 5 -162 9 -187 10 -119 4 -128 9 -30 14 61 4 150 1 213 -7 78 -9 113 -9
125 -2 14 9 13 11 -10 7 -15 -2 -33 0 -40 4 -8 6 1 9 25 9 20 0 37 5 37 10 0
6 -17 10 -37 11 -34 1 -35 2 -13 9 23 7 22 8 -10 9 -70 3 -575 -33 -578 -41
-2 -4 -13 -8 -25 -8 -12 0 -29 -4 -37 -10 -9 -5 -19 -5 -27 2 -9 7 -17 7 -26
0 -7 -6 -18 -7 -26 -3 -18 12 -51 2 -51 -15 0 -8 8 -15 18 -16 9 0 24 -2 32
-2 17 -1 16 -28 -6 -87 -33 -96 -27 -179 14 -179 11 0 13 3 5 8 -23 15 -23 59
0 147 l23 90 60 -3 c321 -15 424 -19 454 -16 69 6 229 6 239 -1 6 -3 11 -26
11 -51 0 -28 -4 -43 -10 -39 -11 7 -17 -148 -12 -297 l3 -88 -28 -1 c-15 0
-53 -2 -83 -4 -62 -4 -313 -11 -780 -21 -173 -3 -319 -10 -325 -14 -18 -14
-88 -16 -93 -2 -2 8 -25 12 -70 11 -57 -1 -62 -3 -32 -9 35 -8 35 -8 -10 -8
-25 0 -92 -3 -150 -6 -69 -5 -100 -4 -90 3 8 5 54 11 102 13 49 1 88 7 88 11
0 8 -64 5 -198 -9 -29 -3 -50 -10 -47 -15 4 -5 -42 -9 -112 -10 -65 0 -145 -2
-178 -5 -36 -2 -62 1 -66 7 -5 8 -13 8 -28 0 -12 -7 -52 -11 -94 -9 l-72 3 32
20 c18 11 33 26 33 33 0 6 5 12 10 12 6 0 10 7 10 15 0 10 -11 15 -32 16 -18
1 -44 5 -58 9 -18 6 -4 9 50 9 41 1 120 3 174 6 61 3 104 1 112 -6 8 -7 14 -7
19 1 3 5 39 10 78 10 40 0 111 5 157 12 47 6 117 12 155 12 57 1 69 4 66 16
-2 8 -6 47 -8 86 l-5 71 48 16 c27 9 65 19 84 22 19 3 37 9 40 12 6 7 -104 -4
-137 -13 -22 -6 -22 -5 -16 64 4 49 2 71 -6 77 -7 4 -54 8 -106 8 l-93 2 -1
205 c-2 200 -1 206 22 237 l23 32 48 -50 c26 -27 54 -49 62 -49 18 0 18 -10
-1 -37 -8 -12 -27 -44 -41 -72 -20 -40 -30 -51 -50 -51 -27 0 -31 -12 -9 -30
8 -7 15 -8 15 -3 0 5 15 7 34 5 27 -3 33 -7 29 -23 -3 -10 -10 -19 -15 -19 -5
0 -7 -4 -4 -8 3 -5 -2 -21 -10 -36 -18 -36 -18 -36 6 -36 13 0 21 8 25 25 21
102 19 100 115 100 119 0 93 19 -34 25 l-107 5 40 65 c29 48 44 64 58 61 58
-12 178 -11 225 2 29 8 70 13 90 10 l37 -5 -4 -112 c-2 -94 -5 -111 -19 -110
-9 1 -65 2 -126 3 -91 1 -110 4 -110 16 0 8 -4 15 -9 15 -5 0 -11 -7 -15 -15
-3 -8 -17 -15 -31 -15 -25 0 -35 -23 -15 -35 6 -3 10 -1 10 4 0 6 5 11 10 11
14 0 12 -28 -5 -75 -16 -45 -19 -95 -7 -95 5 0 9 12 10 28 0 15 9 52 19 82
l18 55 135 0 134 0 2 -35 c1 -19 0 -39 -3 -44 -8 -12 -23 15 -23 42 0 12 -5
22 -10 22 -17 0 -22 -27 -10 -49 10 -20 8 -21 -33 -21 l-43 0 4 35 c5 45 -5
45 -24 0 -11 -27 -20 -35 -39 -35 -14 0 -25 -4 -25 -10 0 -5 12 -10 26 -10 19
0 25 -4 21 -14 -12 -31 -19 -85 -12 -96 5 -7 15 5 26 30 20 45 25 64 9 40 -11
-17 -13 -1 -4 24 7 19 26 20 72 4 28 -11 36 -11 39 0 8 21 23 2 23 -29 0 -29
-1 -29 -54 -29 -30 0 -58 -4 -61 -10 -4 -6 15 -10 49 -10 l56 0 0 -50 c0 -38
-4 -50 -15 -50 -20 0 -19 -17 2 -28 39 -22 9 -109 -35 -100 -14 3 -17 14 -17
60 0 31 -3 60 -7 64 -5 4 -44 9 -88 12 -76 4 -80 4 -80 -17 0 -11 -5 -21 -11
-21 -5 0 -7 -5 -4 -10 3 -6 32 -10 63 -10 53 -1 56 -2 37 -16 -11 -8 -26 -12
-33 -9 -17 6 -52 -18 -69 -47 -10 -20 -12 -15 -10 39 1 70 -8 88 -30 58 -11
-16 -13 -38 -8 -107 5 -62 4 -88 -4 -88 -6 0 -11 -7 -11 -15 0 -8 7 -15 15
-15 8 0 15 -4 15 -10 0 -5 7 -10 15 -10 8 0 15 5 15 11 0 5 5 7 10 4 6 -3 33
-10 61 -14 64 -10 83 5 93 73 6 41 9 45 26 36 10 -5 23 -24 29 -41 10 -28 14
-31 38 -25 16 4 41 8 56 9 15 1 31 8 36 15 7 11 9 11 14 -2 9 -24 32 -19 45 9
16 35 14 44 -3 21 -8 -11 -16 -18 -17 -15 -2 2 -1 67 2 144 l5 140 30 0 c44 0
46 19 3 23 -33 3 -38 7 -38 28 0 27 14 30 68 15 24 -7 32 -7 32 3 0 8 -19 16
-50 20 l-50 7 0 49 c0 28 2 50 5 50 2 0 27 -5 55 -11 40 -9 50 -15 50 -31 0
-20 1 -21 20 -3 11 10 19 24 18 31 -2 7 19 42 45 77 43 57 51 63 78 59 22 -3
27 -8 20 -15 -23 -23 -9 -26 20 -5 27 21 42 23 135 23 57 0 104 3 104 7 0 8
123 17 305 22 109 3 140 7 140 18 0 10 -36 12 -190 9 -156 -2 -188 -1 -177 10
6 7 12 29 12 49 0 19 5 42 10 50 8 12 10 11 10 -7 0 -31 33 -48 51 -26 8 9 38
34 68 56 56 41 71 40 71 -10 0 -12 14 -39 32 -60 18 -21 34 -40 35 -42 2 -2 6
-2 9 2 4 3 -8 27 -25 53 -17 26 -31 57 -31 69 0 23 -17 45 -36 45 -7 0 -42
-22 -78 -49 -35 -27 -67 -47 -70 -43 -10 10 -6 49 9 85 16 38 28 43 127 54 58
6 62 5 49 -10 -17 -22 -2 -22 28 0 14 9 40 16 62 15 21 -1 40 2 44 7 8 13 -32
24 -85 23 l-45 -1 70 34 c39 19 71 34 72 34 1 1 0 -106 -3 -236z m-1230 213
c-5 -12 6 -14 55 -12 34 1 61 -1 61 -5 0 -11 -102 -19 -121 -8 -22 12 -25 39
-4 39 8 0 12 -6 9 -14z m-1066 -23 c-3 -30 -18 -35 -140 -52 -102 -14 -65 39
43 63 96 21 101 20 97 -11z m-973 -19 c-28 -21 -41 -3 -14 18 17 14 25 16 28
7 2 -7 -4 -18 -14 -25z m487 16 c43 0 47 -9 17 -36 -13 -12 -34 -18 -62 -17
-30 1 -33 0 -12 -4 17 -2 34 -9 39 -14 13 -12 -32 -59 -58 -60 -17 -1 -18 -2
-3 -6 24 -6 21 -18 -10 -43 -24 -18 -35 -20 -97 -14 -39 4 -73 8 -75 10 -1 1
6 13 18 25 12 13 21 27 21 32 0 6 20 7 48 4 42 -5 44 -4 17 5 -40 14 -40 13
-18 42 13 18 28 26 53 27 24 1 28 3 13 6 -27 5 -29 20 -7 44 12 14 22 15 47 8
18 -5 49 -9 69 -9z m1778 7 c0 -8 -10 -22 -22 -33 -21 -19 -21 -19 -14 1 5 11
9 26 9 33 1 16 27 16 27 -1z m-2320 -23 c0 -8 -5 -12 -10 -9 -6 4 -8 11 -5 16
9 14 15 11 15 -7z m806 -17 c-14 -21 -27 -25 -91 -30 -72 -7 -135 -1 -135 12
0 3 6 14 14 23 10 14 32 18 117 20 57 2 105 2 107 1 2 -1 -4 -12 -12 -26z
m390 -34 c-3 -3 -13 -2 -23 1 -17 7 -17 8 0 17 9 6 15 14 12 20 -4 5 -3 15 2
22 5 8 9 0 11 -21 2 -19 1 -36 -2 -39z m-2018 40 c-3 -16 -12 -17 -63 -13
-103 9 -689 0 -699 -10 -6 -6 -31 -10 -57 -10 -26 0 -50 -4 -54 -10 -3 -5 53
-7 152 -3 87 3 156 3 153 0 -3 -3 -73 -11 -155 -18 -216 -17 -209 -17 -213 6
l-4 20 16 -20 c15 -19 15 -19 26 12 12 34 29 46 50 33 8 -5 23 -4 34 3 25 13
240 23 574 25 227 2 243 1 240 -15z m752 6 c0 -5 -9 -9 -20 -9 -11 0 -20 4
-20 8 0 4 9 8 20 9 11 1 20 -2 20 -8z m1219 -10 c-16 -10 -23 -4 -14 10 3 6
11 8 17 5 6 -4 5 -9 -3 -15z m1285 -4 c20 -14 42 -25 47 -25 6 0 25 -6 42 -14
75 -33 117 -43 192 -45 44 -2 82 -5 85 -7 2 -3 -1 -14 -8 -24 -15 -24 -16 -70
-2 -70 6 0 10 9 10 19 0 36 17 31 30 -9 7 -22 17 -40 22 -40 11 0 10 9 -4 69
-7 32 -8 55 -2 60 14 13 74 22 74 11 0 -6 -8 -10 -19 -10 -31 0 -34 -56 -6
-122 4 -11 3 -18 -4 -18 -6 0 -11 -6 -11 -14 0 -26 -82 -37 -122 -15 -14 8
-23 8 -27 1 -3 -6 -36 -10 -73 -10 -63 1 -66 3 -57 21 16 29 4 31 -19 3 -16
-20 -29 -26 -61 -26 -48 0 -55 -17 -9 -22 l32 -3 -31 -35 c-16 -19 -42 -53
-56 -76 l-25 -41 -57 10 -58 11 8 75 c4 42 8 99 9 126 6 111 18 175 34 175 13
0 12 3 -3 20 -15 16 -15 22 -5 35 17 21 31 19 74 -10z m-3220 -37 c6 -40 5
-47 -7 -42 -19 7 -26 44 -15 74 11 30 14 25 22 -32z m515 35 c-65 -83 -290
-253 -361 -273 -36 -11 -190 -13 -226 -4 -19 6 -22 11 -16 38 8 48 -23 59
-112 40 -38 -8 -91 -14 -117 -14 -54 0 -63 11 -53 64 6 31 10 34 50 39 25 4
74 0 113 -8 90 -19 105 -19 101 3 -3 15 5 17 57 15 141 -4 384 42 505 96 59
26 77 27 59 4z m560 -69 c13 -11 12 -14 -2 -20 -9 -3 -17 -12 -17 -19 0 -19
-30 -40 -59 -41 -14 -1 -62 -3 -106 -5 l-80 -4 -3 73 c-3 63 -1 72 15 74 33 2
38 3 52 12 8 5 12 5 9 0 -39 -81 -49 -108 -43 -122 5 -13 10 -8 20 21 7 21 25
55 40 77 l26 38 67 -35 c37 -20 73 -42 81 -49z m799 59 c2 -12 -3 -20 -13 -20
-9 0 -15 9 -15 25 0 29 24 25 28 -5z m32 -10 c0 -7 -4 -13 -10 -13 -5 0 -10
12 -10 28 0 21 2 24 10 12 5 -8 10 -21 10 -27z m685 -31 c45 -49 47 -54 35
-77 -7 -14 -16 -25 -20 -25 -14 0 -99 81 -105 100 -6 20 25 74 36 62 3 -4 27
-31 54 -60z m415 -11 c-8 -30 -21 -48 -48 -65 -35 -22 -39 -23 -72 -9 -54 22
-56 30 -15 47 21 9 61 38 89 64 46 43 51 45 54 25 2 -12 -2 -40 -8 -62z m320
69 c26 3 114 0 135 -4 11 -3 45 -5 75 -5 69 -2 49 -21 -22 -21 -26 0 -50 -4
-53 -10 -5 -9 15 -15 38 -11 4 0 7 -4 7 -10 0 -18 -93 -2 -163 27 -66 27 -101
52 -57 40 14 -4 32 -7 40 -6z m-885 -72 c-14 -22 -15 -20 -15 27 l1 50 15 -28
c13 -24 13 -30 -1 -49z m660 -98 c-17 -205 -24 -250 -41 -250 -21 0 -22 10 -8
120 7 58 14 135 15 172 1 46 8 78 21 99 11 17 21 30 22 28 2 -2 -2 -78 -9
-169z m690 160 c-3 -5 -13 -10 -21 -10 -8 0 -14 5 -14 10 0 6 9 10 21 10 11 0
17 -4 14 -10z m-1971 -15 c-6 -16 -20 -19 -67 -16 -28 1 -29 0 -23 -41 4 -31
3 -37 -3 -23 -5 11 -10 31 -10 44 -1 18 -4 21 -14 12 -8 -6 -17 -8 -20 -4 -4
3 -12 1 -19 -4 -17 -14 -88 -24 -88 -13 0 16 24 25 115 41 121 22 136 23 129
4z m1909 8 c-7 -2 -19 -2 -25 0 -7 3 -2 5 12 5 14 0 19 -2 13 -5z m-2985 -85
l3 -77 -48 -6 c-26 -3 -67 -10 -90 -14 -44 -9 -54 -2 -29 19 8 6 23 32 32 56
11 29 31 55 58 74 61 45 70 39 74 -52z m39 -40 c-2 -24 -4 -5 -4 42 0 47 2 66
4 43 2 -24 2 -62 0 -85z m-1264 105 c-13 -2 -33 -2 -45 0 -13 2 -3 4 22 4 25
0 35 -2 23 -4z m385 -5 c-6 -18 -28 -21 -28 -4 0 9 7 16 16 16 9 0 14 -5 12
-12z m1662 -10 c0 -24 -37 -36 -135 -43 -59 -4 -109 -5 -111 -2 -3 3 1 16 10
29 14 22 21 23 126 23 60 0 110 -3 110 -7z m2135 2 c3 -5 -3 -10 -14 -10 -10
0 -26 -3 -35 -6 -9 -3 -16 -1 -16 4 0 6 10 13 23 15 12 2 25 5 29 6 4 0 10 -3
13 -9z m-3892 -7 c-7 -2 -19 -2 -25 0 -7 3 -2 5 12 5 14 0 19 -2 13 -5z m2235
-6 c15 0 15 -6 -2 -54 -7 -21 -16 -59 -19 -83 -3 -25 -6 -46 -6 -47 -1 -2 -8
-3 -16 -3 -11 0 -14 9 -10 35 3 26 0 35 -10 35 -8 0 -15 -4 -15 -8 0 -5 -7
-17 -15 -28 -15 -18 -15 -18 -9 9 8 35 -9 35 -41 1 -20 -22 -25 -23 -25 -10 0
13 -5 16 -19 11 -16 -5 -18 -2 -14 15 4 15 1 20 -14 20 -10 0 -24 -5 -31 -12
-15 -15 -18 -11 -26 35 -5 27 -4 37 3 32 6 -3 11 0 11 9 0 8 -6 16 -12 19 -7
2 -10 8 -6 12 15 16 85 23 173 18 50 -3 96 -6 103 -6z m1542 3 c0 -5 -12 -10
-27 -10 -22 0 -25 2 -13 10 20 13 40 13 40 0z m-4000 -6 c0 -4 -8 -13 -17 -20
-17 -13 -17 -13 0 -14 23 0 22 -8 -4 -29 -18 -14 -20 -21 -11 -37 17 -31 -1
-49 -23 -24 -22 24 -27 47 -14 56 5 3 9 -1 9 -8 1 -7 7 -2 14 12 8 14 12 28 9
33 -2 4 1 14 7 22 13 15 30 20 30 9z m57 0 c-3 -3 -12 -4 -19 -1 -8 3 -5 6 6
6 11 1 17 -2 13 -5z m4107 -16 c-24 -80 -36 -88 -27 -20 4 27 11 42 20 42 10
0 12 -6 7 -22z m-3894 -13 c7 -9 10 -18 7 -21 -8 -9 -147 18 -147 28 0 15 127
9 140 -7z m1805 9 c17 -4 20 -12 17 -40 -4 -30 -22 -60 -22 -36 0 5 -83 7
-195 5 -107 -3 -195 -2 -195 1 0 3 8 14 19 25 15 15 39 19 139 23 78 3 125 1
131 -5 8 -8 11 -6 11 5 0 15 9 19 65 26 6 1 19 -1 30 -4z m-2174 -37 c-8 -8
-11 -7 -11 4 0 9 3 19 7 23 4 4 9 2 11 -4 3 -7 -1 -17 -7 -23z m4669 -87 l-7
-105 -1 115 c-1 64 2 110 7 105 4 -6 5 -57 1 -115z m-5895 101 c3 -5 1 -12 -5
-16 -5 -3 -10 1 -10 9 0 18 6 21 15 7z m2335 1 c0 -4 -14 -27 -31 -51 -35 -46
-62 -61 -114 -61 -40 0 -51 -12 -29 -31 12 -10 20 -10 35 -1 42 27 34 9 -25
-52 -64 -67 -133 -126 -147 -126 -15 0 -10 38 6 44 8 3 15 10 15 17 0 6 -7 9
-15 5 -11 -4 -15 2 -15 25 0 39 -24 34 -28 -5 -3 -20 -8 -26 -18 -22 -9 3 -24
1 -35 -5 -11 -5 -45 -9 -77 -7 l-57 3 70 42 c39 23 95 51 125 63 61 24 278
134 307 155 21 16 33 19 33 7z m2230 -23 c0 -3 11 -11 25 -17 28 -13 32 -27
10 -36 -36 -13 -155 -17 -189 -6 -40 13 -42 17 -22 45 12 17 25 20 95 20 44 0
81 -3 81 -6z m167 -34 c-4 -8 -14 -11 -28 -8 l-22 6 24 19 c24 20 36 12 26
-17z m700 13 c-3 -8 -6 -5 -6 6 -1 11 2 17 5 13 3 -3 4 -12 1 -19z m-638 5 c0
-5 -7 -37 -14 -73 -13 -58 -14 -59 -10 -16 3 27 5 59 5 72 0 13 5 24 10 24 6
0 10 -3 9 -7z m-4550 -134 c-2 -35 -9 -54 -31 -78 -33 -37 -36 -26 -8 31 22
46 25 68 10 68 -11 0 -64 -80 -100 -150 -13 -25 -29 -49 -36 -55 -7 -5 -31
-44 -53 -85 -40 -74 -41 -74 -41 -38 0 21 6 41 14 45 13 8 36 47 141 248 84
160 78 153 93 103 7 -24 12 -64 11 -89z m2491 97 c0 -7 -7 -19 -15 -26 -9 -7
-13 -20 -10 -30 5 -15 -4 -16 -77 -15 l-83 1 -3 32 c-3 31 -2 32 35 33 37 1
95 8 100 12 1 2 13 3 27 5 16 1 26 -3 26 -12z m1397 -48 c-2 -13 -4 -3 -4 22
0 25 2 35 4 23 2 -13 2 -33 0 -45z m-880 46 c-3 -3 -12 -4 -19 -1 -8 3 -5 6 6
6 11 1 17 -2 13 -5z m79 -10 c-3 -9 -6 -24 -6 -35 0 -16 -7 -19 -47 -19 l-48
0 -2 -143 c-2 -78 -3 -146 -3 -152 0 -5 -4 -3 -10 5 -8 12 -10 12 -16 -3 -8
-21 -50 -23 -58 -2 -7 20 -26 19 -26 0 0 -24 -31 -31 -46 -10 -11 14 -16 16
-28 6 -11 -10 -18 -8 -35 10 -25 27 -30 24 -33 -24 -3 -31 -7 -37 -25 -37 -12
0 -25 -4 -28 -10 -4 -6 6 -10 22 -10 l28 -1 -27 -16 c-15 -9 -29 -25 -31 -35
-3 -11 -12 -16 -26 -13 -13 2 -22 -3 -26 -16 -9 -27 13 -79 30 -73 9 4 14 -14
18 -63 3 -37 4 -68 4 -69 -1 -1 -26 -4 -55 -7 -51 -6 -53 -5 -52 16 1 12 2 67
1 122 -2 98 -2 99 -18 70 -11 -20 -16 -57 -17 -118 l-1 -89 -70 7 c-38 4 -72
9 -75 12 -3 2 -5 64 -6 136 l-1 131 -26 7 c-37 10 -82 -31 -70 -64 4 -12 8
-68 8 -124 l0 -102 -30 2 c-55 4 -55 6 -51 164 4 184 -4 176 161 167 179 -10
211 -8 209 14 -2 28 -5 32 -19 32 -8 0 -15 4 -15 9 0 6 -15 11 -32 13 -31 3
-33 6 -36 46 -3 33 -7 42 -22 42 -10 0 -22 -4 -25 -10 -10 -15 -25 -12 -25 6
0 32 -25 7 -34 -34 -9 -36 -13 -41 -30 -36 -12 4 -21 7 -22 8 -3 3 -13 96 -11
97 1 0 25 3 52 6 74 8 78 22 7 20 l-62 -2 0 41 c0 50 5 52 128 52 98 -1 122
-11 122 -50 0 -26 -3 -28 -40 -28 -29 0 -40 -4 -40 -15 0 -12 9 -15 37 -13 34
3 38 1 43 -27 8 -43 21 -17 27 56 5 54 8 59 29 59 19 0 24 -5 24 -24 0 -30 23
-50 50 -41 24 8 27 47 4 69 -9 9 -32 16 -55 16 -31 0 -39 4 -39 19 0 13 10 20
31 25 52 10 61 8 54 -14 -8 -26 7 -26 23 1 13 21 18 21 168 14 85 -3 163 -4
174 0 24 8 27 27 4 23 -10 -2 -19 3 -21 10 -3 8 7 12 32 12 30 0 36 -3 31 -16z
m59 -13 l-6 -30 77 4 c65 2 79 6 85 21 7 17 8 17 8 2 1 -9 9 -22 19 -27 12 -8
-13 -11 -95 -10 l-113 1 0 27 c0 29 7 41 22 41 5 0 7 -13 3 -29z m72 7 c-3 -8
-6 -5 -6 6 -1 11 2 17 5 13 3 -3 4 -12 1 -19z m-2237 2 c0 -5 -5 -10 -11 -10
-5 0 -7 5 -4 10 3 6 8 10 11 10 2 0 4 -4 4 -10z m1560 0 c0 -5 -5 -10 -11 -10
-5 0 -7 5 -4 10 3 6 8 10 11 10 2 0 4 -4 4 -10z m-292 -31 c3 -25 0 -26 -109
-47 -61 -13 -112 -21 -113 -20 -1 2 -6 13 -13 24 -10 18 -8 23 10 32 12 6 58
15 101 21 44 7 82 14 85 17 13 12 36 -4 39 -27z m29 -16 c-3 -10 -5 -2 -5 17
0 19 2 27 5 18 2 -10 2 -26 0 -35z m-887 25 c-1 -23 -27 -49 -43 -43 -13 5
-12 10 7 30 24 26 36 31 36 13z m1165 -28 c0 -18 -16 -22 -35 -10 -13 9 -13
11 0 20 19 12 35 8 35 -10z m855 6 c0 -3 -4 -8 -10 -11 -5 -3 -10 -1 -10 4 0
6 5 11 10 11 6 0 10 -2 10 -4z m-2475 -16 c-3 -5 -48 -10 -98 -10 -65 -1 -98
-5 -111 -15 -27 -21 -53 -19 -59 4 -4 17 1 20 42 24 107 8 232 7 226 -3z m351
-1 c-27 -16 -152 -17 -167 -1 -10 10 7 12 87 12 76 -1 95 -3 80 -11z m2595
-99 c5 0 9 -4 9 -10 0 -5 -7 -7 -15 -4 -11 5 -15 20 -13 63 l2 56 3 -52 c2
-29 8 -53 14 -53z m-3241 74 c0 -8 -4 -12 -10 -9 -5 3 -10 10 -10 16 0 5 5 9
10 9 6 0 10 -7 10 -16z m3146 -18 c8 -3 14 1 14 9 0 8 2 15 4 15 2 0 11 3 20
6 13 5 15 -13 15 -129 0 -114 -3 -136 -16 -141 -9 -4 -24 1 -34 10 -18 16 -19
16 -19 1 0 -13 -9 -17 -36 -17 l-37 0 7 78 c15 171 18 183 40 192 14 5 22 3
24 -5 2 -7 10 -16 18 -19z m-2646 14 c0 -5 -4 -10 -10 -10 -5 0 -10 5 -10 10
0 6 5 10 10 10 6 0 10 -4 10 -10z m846 -27 c-2 -21 -4 -58 -5 -83 -1 -44 -2
-45 -48 -62 -35 -13 -51 -14 -67 -6 -15 8 -21 8 -24 -2 -3 -7 -14 -22 -25 -33
-18 -18 -19 -21 -4 -32 12 -9 17 -27 17 -61 0 -27 4 -65 10 -83 13 -46 2 -57
-63 -65 -98 -13 -117 -18 -117 -33 0 -10 6 -13 18 -8 20 8 116 24 120 20 2 -1
-21 -25 -50 -53 -29 -28 -49 -54 -45 -59 5 -4 16 1 25 12 10 11 26 27 37 35
11 8 5 -2 -14 -23 -33 -35 -86 -67 -111 -67 -9 0 -11 12 -6 43 4 23 11 73 16
110 5 46 14 73 26 81 17 13 11 42 -7 31 -17 -11 -9 15 13 45 19 26 28 30 70
30 26 0 48 5 48 10 0 6 -21 10 -46 10 -42 0 -45 1 -38 23 8 26 23 47 35 47 4
0 56 47 116 105 59 57 111 105 115 105 4 0 6 -17 4 -37z m264 -7 l0 -45 -52
-5 c-132 -13 -177 -15 -182 -8 -10 17 6 50 27 56 30 8 190 44 200 45 4 1 7
-19 7 -43z m1415 23 c6 -6 6 -19 -1 -37 -5 -15 -11 -148 -13 -297 -1 -148 -3
-271 -5 -272 -1 -1 -49 -3 -106 -4 l-105 -1 2 38 c1 22 4 111 6 199 2 88 10
179 17 203 12 38 16 42 46 42 18 0 35 -6 37 -12 10 -23 28 15 24 49 -3 29 -1
32 19 27 25 -6 41 11 22 22 -7 5 -107 7 -222 6 -190 -2 -244 -7 -208 -19 6 -3
12 -9 12 -14 0 -6 -5 -7 -11 -3 -7 4 -9 0 -6 -12 4 -11 9 -31 13 -46 6 -29 34
-39 34 -13 0 10 10 15 30 15 29 0 30 -2 32 -47 0 -27 3 -59 5 -73 5 -39 6
-106 3 -230 -2 -111 -3 -116 -27 -127 -34 -16 -37 -2 -27 130 13 183 12 200
-12 212 -12 6 -29 17 -37 24 -12 9 -21 10 -35 2 -17 -9 -23 -6 -37 15 -9 14
-14 32 -11 40 7 19 -3 44 -19 44 -15 0 -29 74 -15 78 6 2 10 18 10 36 0 18 2
35 5 38 10 10 570 -3 580 -13z m-2730 1 c8 -13 -115 -13 -135 0 -10 7 7 10 57
10 39 0 75 -4 78 -10z m402 1 c-10 -3 46 -8 124 -9 79 -2 144 -4 146 -5 1 -2
-23 -17 -53 -35 -38 -22 -69 -32 -96 -32 -52 0 -237 -27 -306 -45 -52 -13 -53
-13 -47 8 4 12 9 30 11 39 5 16 18 21 103 34 24 3 51 14 61 24 20 20 38 28 60
29 10 0 9 -3 -3 -8z m3566 2 c-7 -2 -21 -2 -30 0 -10 3 -4 5 12 5 17 0 24 -2
18 -5z m-3663 -23 c-8 -5 -31 -9 -50 -9 l-35 1 30 8 c17 4 39 8 50 9 16 1 17
-1 5 -9z m1782 -14 c7 26 38 28 38 2 0 -11 -5 -16 -11 -12 -7 4 -10 -9 -8 -40
2 -25 0 -48 -4 -52 -4 -4 -7 3 -7 16 0 22 -1 23 -13 6 -12 -16 -13 -10 -14 45
-1 41 2 55 6 39 7 -24 7 -24 13 -4z m1508 9 c0 -8 -4 -15 -10 -15 -5 0 -10 7
-10 15 0 8 5 15 10 15 6 0 10 -7 10 -15z m1113 -285 l5 -115 -13 115 c-8 63
-13 156 -13 205 l1 90 7 -90 c4 -49 10 -142 13 -205z m-1120 245 c-3 -9 -8
-14 -10 -11 -3 3 -2 9 2 15 9 16 15 13 8 -4z m-1017 -12 c-3 -8 -6 -19 -6 -24
0 -13 -94 -3 -98 11 -5 13 -32 13 -32 0 0 -5 -10 -9 -22 -9 -18 1 -19 2 -5 6
20 5 13 23 -9 23 -8 0 -14 -8 -14 -17 0 -15 -2 -16 -10 -3 -8 13 -10 13 -10
-1 0 -23 -64 -10 -68 14 -3 16 8 18 138 16 121 -1 141 -3 136 -16z m-3523 -42
c-5 -3 -26 -46 -47 -96 -42 -101 -118 -247 -166 -321 l-32 -49 5 41 c7 62 151
363 211 439 29 37 31 38 34 16 2 -13 0 -26 -5 -30z m902 39 c-3 -5 3 -10 15
-10 34 0 14 -17 -43 -35 -28 -10 -56 -21 -61 -26 -14 -12 -66 -11 -66 1 0 6
-26 10 -59 10 -100 0 -181 12 -181 26 0 14 23 20 130 33 97 12 272 13 265 1z
m205 -35 c0 -14 -4 -25 -9 -25 -4 0 -6 11 -3 25 2 14 6 25 8 25 2 0 4 -11 4
-25z m1150 -54 c-11 -41 -11 -41 -58 -41 -26 0 -55 -7 -64 -14 -19 -14 -23
-52 -9 -75 8 -12 12 -12 26 2 33 34 46 22 40 -35 -4 -29 -8 -58 -10 -64 -2 -7
-42 -14 -97 -18 -51 -4 -117 -9 -146 -12 l-52 -6 3 41 c2 22 0 42 -5 43 -12 4
-17 99 -6 121 5 9 13 17 19 17 6 0 31 10 57 21 31 14 47 18 50 10 2 -6 8 -11
14 -11 6 0 8 6 5 14 -4 10 12 19 55 31 33 9 67 14 75 11 23 -9 90 12 99 32 13
30 17 -21 4 -67z m-835 39 c-39 -22 -64 -29 -113 -31 -37 -1 -67 2 -74 9 -6 6
-10 13 -7 15 6 6 179 34 214 36 28 1 27 -1 -20 -29z m269 16 c-3 -9 1 -13 13
-13 15 2 18 -5 18 -37 0 -58 -32 -79 -108 -70 -31 4 -54 11 -51 16 3 5 -2 8
-12 6 -13 -2 -19 3 -19 16 0 14 10 22 34 29 53 13 22 32 -52 30 l-62 -1 35 18
c46 23 213 28 204 6z m426 9 c0 -2 -15 -8 -32 -13 -18 -6 -41 -13 -51 -17 -12
-5 -17 -3 -15 6 2 8 21 17 43 20 22 3 43 7 48 7 4 1 7 0 7 -3z m1780 -25 c0
-16 -4 -30 -10 -30 -5 0 -10 14 -10 30 0 17 5 30 10 30 6 0 10 -13 10 -30z
m-3406 5 c3 -8 1 -15 -4 -15 -6 0 -10 7 -10 15 0 8 2 15 4 15 2 0 6 -7 10 -15z
m1265 -39 c-9 -8 -10 -7 -5 7 3 10 7 26 7 35 1 9 4 6 6 -7 3 -13 -1 -28 -8
-35z m-1300 32 c0 -7 -4 -22 -8 -33 -8 -19 -8 -19 -15 2 -8 24 -1 43 15 43 5
0 9 -6 8 -12z m-38 -54 c26 -55 44 -56 53 -4 8 48 26 44 26 -6 0 -19 5 -34 10
-34 6 0 10 17 10 38 0 35 2 38 28 36 41 -2 42 -3 40 -16 -2 -10 21 -12 100 -9
70 2 102 0 102 -8 0 -6 9 -11 21 -11 15 0 19 5 15 15 -4 10 6 20 31 30 45 19
73 19 73 0 0 -8 -5 -15 -11 -15 -6 0 -8 -8 -4 -19 7 -24 -4 -28 -90 -30 -38
-1 -115 -6 -170 -12 -55 -5 -139 -12 -187 -15 l-88 -6 0 62 c0 70 10 71 41 4z
m4164 47 c3 -6 2 -28 -1 -51 -5 -30 -11 -40 -23 -38 -24 5 -17 98 8 98 5 0 12
-4 16 -9z m-3629 -69 c-12 -11 -16 6 -9 39 l8 34 3 -33 c2 -19 1 -36 -2 -40z
m258 55 c-6 -16 36 -37 73 -37 18 0 -4 -15 -73 -50 -54 -27 -100 -50 -101 -50
-2 0 -1 10 1 23 3 12 5 37 5 55 1 26 5 32 24 33 21 0 21 1 2 8 -18 8 -16 10
15 19 49 14 60 14 54 -1z m3883 1 c48 -17 44 -43 -4 -34 -21 3 -75 6 -120 6
-49 0 -83 4 -83 10 0 6 17 10 38 11 20 0 55 4 77 8 57 12 55 12 92 -1z m-5091
-44 c-3 -8 -10 -14 -15 -14 -5 0 -4 13 2 31 8 21 13 26 15 14 2 -9 1 -23 -2
-31z m667 29 c-7 -2 -21 -2 -30 0 -10 3 -4 5 12 5 17 0 24 -2 18 -5z m840 -25
c2 -18 3 -36 0 -40 -2 -5 -28 -8 -56 -8 -29 0 -89 -9 -135 -20 -158 -38 -151
-24 28 58 71 33 91 39 131 41 23 1 27 -4 32 -31z m1592 -3 c-8 -20 -10 -33 -5
-30 6 3 10 -1 10 -9 0 -22 -30 -20 -31 2 0 14 -2 14 -9 -3 -6 -15 -8 -9 -8 25
0 25 2 37 5 28 6 -24 23 -23 23 2 0 11 7 20 15 20 14 0 14 -4 0 -35z m315 20
c0 -8 -4 -15 -10 -15 -5 0 -7 7 -4 15 4 8 8 15 10 15 2 0 4 -7 4 -15z m2125
-5 c25 -5 -35 -8 -162 -9 -180 -1 -216 3 -198 20 7 7 315 -2 360 -11z m-4509
-45 c1 -27 -3 -49 -11 -55 -15 -12 -25 -2 -21 21 20 102 28 111 32 34z m2860
-23 c-11 -10 -14 3 -7 38 l6 35 3 -33 c2 -19 1 -36 -2 -40z m-2799 36 c-3 -8
-6 -5 -6 6 -1 11 2 17 5 13 3 -3 4 -12 1 -19z m2317 -367 c-2 -2 -6 -2 -8 0
-8 8 -15 333 -8 358 4 15 10 -56 13 -164 3 -104 4 -192 3 -194z m-1186 342
c-10 -2 -26 -2 -35 0 -10 3 -2 5 17 5 19 0 27 -2 18 -5z m306 -8 c-4 -8 -15
-15 -25 -15 -27 0 -24 18 4 23 12 2 23 5 24 6 1 0 0 -6 -3 -14z m-1576 -13
c-3 -15 -24 -18 -151 -26 -81 -5 -147 -12 -147 -17 0 -5 10 -9 22 -9 12 0 36
-14 54 -31 37 -36 65 -31 54 10 -5 21 -7 22 -21 9 -12 -12 -17 -13 -26 -2 -14
14 8 19 141 30 l79 7 -6 -24 c-4 -13 -7 -31 -7 -40 0 -26 -57 -43 -154 -45
-50 -1 -95 -2 -100 -3 -5 -1 0 -11 12 -24 27 -29 18 -42 -14 -20 -27 18 -99
20 -224 9 l-85 -8 -12 28 c-13 27 -17 64 -9 64 20 0 36 -16 36 -37 0 -34 24
-24 28 11 5 38 41 49 122 40 51 -6 60 -9 40 -15 -14 -4 -44 -7 -67 -8 -38 -1
-73 -20 -41 -22 59 -5 208 28 208 46 0 18 -183 27 -271 13 -45 -7 -46 -7 -41
17 3 18 13 26 36 30 54 11 337 31 444 33 93 1 103 -1 100 -16z m135 5 c3 -8 1
-20 -4 -28 -6 -10 -9 -7 -9 14 0 29 5 35 13 14z m3485 -25 c3 -29 1 -32 -22
-32 -22 0 -26 5 -26 28 0 33 8 44 30 40 9 -2 16 -16 18 -36z m-2980 21 c-21
-2 -55 -2 -75 0 -21 2 -4 4 37 4 41 0 58 -2 38 -4z m-1602 -31 c-18 -16 -18
-16 -6 6 6 13 14 21 18 18 3 -4 -2 -14 -12 -24z m3104 19 c0 -11 -31 -24 -39
-16 -3 3 1 10 9 15 19 12 30 12 30 1z m-82 -13 c-3 -7 -8 -13 -13 -13 -5 0
-10 6 -12 13 -3 6 3 12 12 12 9 0 15 -6 13 -12z m149 6 c-3 -3 -12 -4 -19 -1
-8 3 -5 6 6 6 11 1 17 -2 13 -5z m62 -16 c13 -21 13 -22 -1 -10 -13 10 -17 10
-21 0 -2 -7 -8 -10 -12 -6 -9 8 1 38 12 38 5 0 14 -10 22 -22z m-2869 -7 c0
-11 -4 -23 -10 -26 -6 -4 -10 5 -10 19 0 14 5 26 10 26 6 0 10 -9 10 -19z
m1310 6 c0 -18 -42 -40 -66 -35 -15 3 -12 7 16 25 41 26 50 28 50 10z m1290 3
c0 -5 -10 -10 -22 -10 -19 0 -20 2 -8 10 19 13 30 13 30 0z m407 -102 c-2 -24
-4 -7 -4 37 0 44 2 63 4 43 2 -21 2 -57 0 -80z m603 102 c0 -5 7 -10 16 -10 8
0 12 5 9 10 -4 6 17 10 56 10 l62 0 -6 -97 c-4 -54 -7 -123 -7 -154 l0 -56
-32 0 c-37 1 -147 -10 -195 -19 l-32 -6 6 38 c3 22 10 47 14 56 19 36 -17 64
-72 56 -48 -7 -50 -133 -2 -133 12 0 25 -3 29 -7 4 -5 -23 -8 -60 -8 l-68 0 6
43 c4 23 9 92 12 154 l6 112 42 5 c121 16 216 19 216 6z m-2790 -46 c0 -19 -5
-34 -11 -34 -5 0 -17 -17 -25 -37 -14 -31 -17 -34 -26 -20 -5 9 -8 38 -6 64 2
39 8 50 27 60 33 16 41 9 41 -33z m420 41 c0 -3 -19 -14 -42 -25 -28 -13 -91
-24 -183 -34 -77 -8 -148 -17 -157 -21 -15 -6 -18 -2 -18 23 0 31 12 39 85 55
28 6 315 8 315 2z m1280 1 c0 -9 -30 -14 -35 -6 -4 6 3 10 14 10 12 0 21 -2
21 -4z m280 -6 c0 -5 -5 -10 -11 -10 -5 0 -7 5 -4 10 3 6 8 10 11 10 2 0 4 -4
4 -10z m-2137 -14 c6 -15 -1 -26 -15 -26 -4 0 -8 9 -8 20 0 23 15 27 23 6z
m1787 -16 c0 -5 -7 -10 -15 -10 -8 0 -15 5 -15 10 0 6 7 10 15 10 8 0 15 -4
15 -10z m-2831 -47 c-46 -141 -223 -452 -245 -431 -2 3 10 22 27 44 28 35 72
120 184 357 38 81 57 97 34 30z m3241 -105 c-8 -89 -19 -151 -28 -163 l-14
-20 6 20 c3 11 8 53 11 94 3 40 10 92 15 115 5 22 10 56 10 75 0 19 3 31 6 28
4 -4 1 -71 -6 -149z m1362 38 c-2 -63 -9 -123 -17 -140 l-13 -31 -1 33 c-1 32
-15 44 -24 20 -2 -7 -8 -10 -12 -6 -4 4 -3 13 3 20 11 14 12 22 12 132 0 79 4
88 33 84 21 -3 22 -7 19 -112z m-3495 57 c-3 -10 -5 -4 -5 12 0 17 2 24 5 18
2 -7 2 -21 0 -30z m2113 25 c0 -5 -6 -8 -14 -8 -9 0 -17 -32 -28 -114 -9 -66
-21 -121 -29 -129 -19 -19 -344 -33 -355 -16 -10 16 -15 144 -8 206 l6 51 108
-1 c62 -1 113 2 119 8 11 11 201 14 201 3z m2457 -173 l0 -80 -7 65 c-4 36 -8
97 -7 135 l0 70 7 -55 c5 -30 8 -91 7 -135z m-4628 82 c1 -50 -2 -58 -16 -55
-14 2 -16 14 -14 68 1 35 5 69 9 74 10 17 21 -27 21 -87z m1709 52 c1 -19 -1
-74 -6 -124 l-9 -90 -4 128 c-3 82 0 126 6 124 6 -2 11 -19 13 -38z m-2457 -7
c5 -23 2 -35 -8 -41 -9 -5 -18 -32 -23 -67 -4 -36 -8 -46 -9 -26 0 17 -6 32
-12 32 -5 0 -16 -15 -24 -32 -7 -18 -23 -41 -34 -51 -17 -14 -20 -24 -15 -55
7 -45 -12 -180 -28 -199 -16 -20 -25 -7 -20 29 3 23 1 30 -6 23 -6 -5 -14 -43
-18 -82 -6 -67 -5 -73 13 -73 22 0 51 31 45 48 -2 7 1 12 8 12 6 0 9 4 5 9 -3
6 0 42 7 82 8 54 13 67 19 51 8 -20 5 -212 -3 -222 -5 -6 -168 -17 -168 -11 0
2 11 14 25 27 25 23 35 74 15 74 -5 0 -10 -5 -10 -11 0 -5 -3 -8 -7 -6 -7 5
-9 109 -5 255 l2 52 57 0 c31 0 53 3 49 7 -4 4 -28 8 -54 8 l-47 0 3 85 c2 47
7 88 11 93 4 4 31 10 60 14 40 4 55 3 62 -8 8 -12 11 -11 20 4 8 13 20 17 47
15 32 -3 37 -7 43 -36z m38 -19 c1 -13 -3 -23 -8 -23 -11 0 -23 59 -14 73 8
13 21 -18 22 -50z m1135 37 c-11 -4 -47 -11 -80 -15 -82 -9 -106 -14 -100 -24
3 -4 29 -4 58 0 29 4 64 8 78 8 25 1 24 1 -6 -18 -41 -25 -147 -44 -140 -25 9
23 -8 15 -28 -13 l-19 -26 39 8 c57 11 59 11 59 0 0 -12 -162 -115 -169 -107
-3 3 -6 30 -6 61 l0 56 19 -24 c25 -33 51 -22 51 21 l-1 33 -14 -25 -14 -25
-1 32 c0 17 -3 40 -6 50 -6 15 -4 16 7 6 18 -17 29 -16 29 2 0 19 29 32 39 18
4 -7 26 -6 66 2 69 15 173 19 139 5z m182 -27 c-2 -21 -3 -77 -4 -125 l-2 -88
-35 -14 c-20 -9 -51 -18 -70 -22 l-34 -6 5 33 c20 118 19 120 -34 93 -30 -15
-212 -33 -212 -21 0 3 22 19 49 35 36 23 63 31 109 34 43 2 62 -1 64 -9 2 -10
8 -10 28 0 18 9 26 22 28 45 4 36 -3 38 -55 17 -53 -22 -58 -18 -20 15 23 20
46 30 68 31 19 1 45 5 59 9 51 16 58 13 56 -27z m-1636 -8 c-10 -12 -11 -18
-2 -23 12 -8 -7 -54 -57 -133 -16 -25 -35 -63 -42 -85 -8 -21 -18 -43 -22 -49
-4 -5 -31 -50 -60 -99 -44 -76 -52 -85 -55 -63 -2 18 9 42 37 79 33 45 191
328 191 344 0 3 -5 2 -12 -2 -8 -5 -9 -2 -4 12 5 10 11 27 13 37 4 13 9 15 16
8 7 -7 6 -15 -3 -26z m950 25 c0 -5 -4 -10 -10 -10 -5 0 -10 5 -10 10 0 6 5
10 10 10 6 0 10 -4 10 -10z m-600 -70 c0 -33 -3 -60 -7 -60 -5 0 -6 27 -5 60
5 77 12 77 12 0z m450 46 c0 -2 -9 -6 -20 -9 -11 -3 -20 -1 -20 4 0 5 9 9 20
9 11 0 20 -2 20 -4z m117 -12 c5 -14 -53 -22 -88 -13 l-24 6 25 11 c31 14 82
11 87 -4z m173 -16 c0 -36 -10 -32 -14 6 -2 14 1 26 5 26 5 0 9 -14 9 -32z
m2247 10 c-3 -8 -6 -5 -6 6 -1 11 2 17 5 13 3 -3 4 -12 1 -19z m-1236 -2 c-9
-11 -9 -16 0 -21 6 -4 14 -4 18 1 3 5 18 15 34 21 25 12 27 11 27 -10 0 -12
-3 -39 -7 -60 -5 -32 -9 -38 -26 -33 -31 8 -125 -15 -143 -35 -22 -25 1 -26
34 -3 28 20 39 13 15 -8 -10 -9 -90 -30 -178 -48 -223 -46 -237 -46 -100 0 65
22 126 40 134 40 8 0 12 3 8 6 -7 7 -148 -26 -165 -39 -7 -5 -15 -7 -19 -3 -3
3 -4 7 -2 9 2 1 38 32 79 68 113 97 148 117 216 122 33 2 65 4 73 5 10 2 11
-1 2 -12z m2209 4 c0 -5 -9 -10 -21 -10 -11 0 -17 5 -14 10 3 6 13 10 21 10 8
0 14 -4 14 -10z m-3670 -10 c21 -6 22 -8 8 -14 -43 -15 -52 -16 -92 -4 l-41
11 30 8 c39 9 64 9 95 -1z m2547 -22 c-3 -7 -5 -2 -5 12 0 14 2 19 5 13 2 -7
2 -19 0 -25z m-1287 19 c0 -2 -9 -12 -20 -22 -24 -21 -27 -14 -4 9 15 15 24
20 24 13z m-1386 -19 c22 -6 45 -14 49 -18 4 -4 -38 -17 -93 -30 -56 -12 -103
-20 -106 -17 -11 11 8 66 24 70 33 9 85 7 126 -5z m434 -18 c-3 -22 -9 -25
-43 -27 -22 -2 -71 -7 -110 -13 -38 -5 -99 -12 -135 -15 -36 -3 -114 -12 -173
-20 -130 -18 -127 -18 -127 -2 0 8 49 22 143 41 78 16 160 35 181 43 27 9 43
10 50 3 14 -14 36 -13 31 3 -4 9 18 12 90 12 l96 0 -3 -25z m2882 -5 c0 -13
-4 -14 -20 -5 -11 6 -20 13 -20 15 0 3 9 5 20 5 11 0 20 -7 20 -15z m-653 -32
c-3 -10 -5 -4 -5 12 0 17 2 24 5 18 2 -7 2 -21 0 -30z m-2863 3 c-3 -13 -1
-27 5 -30 20 -13 11 -26 -18 -26 -42 0 -45 13 -13 48 33 37 34 37 26 8z m626
-15 c0 -8 -79 -21 -134 -21 -43 0 -27 8 35 19 73 12 99 13 99 2z m85 -40 c-8
-42 -10 -45 -24 -36 -10 6 -13 60 -4 77 2 4 11 4 19 1 12 -4 14 -14 9 -42z
m92 -33 c-2 -13 -4 -3 -4 22 0 25 2 35 4 23 2 -13 2 -33 0 -45z m3227 35 c-8
-33 -18 -47 -33 -42 -7 3 -3 16 9 37 24 39 32 41 24 5z m-3664 13 c0 -3 -4 -8
-10 -11 -5 -3 -10 -1 -10 4 0 6 5 11 10 11 6 0 10 -2 10 -4z m1498 -31 c-4
-31 -1 -36 20 -42 14 -3 79 -1 146 5 122 12 190 8 214 -11 7 -5 38 -10 70 -10
36 0 61 -5 67 -13 12 -17 44 -19 110 -8 73 12 344 7 360 -6 8 -7 19 -8 26 -4
7 4 25 7 40 6 21 0 29 4 29 16 0 13 2 14 9 4 4 -7 33 -16 64 -19 32 -3 57 -9
57 -14 0 -4 -23 -22 -51 -39 l-52 -32 -261 -5 c-316 -6 -379 -5 -412 7 -34 13
-44 13 -44 -3 0 -9 -20 -13 -67 -15 -38 -1 -102 -4 -143 -7 -41 -3 -149 -10
-240 -15 -91 -6 -229 -16 -307 -23 -78 -7 -141 -11 -140 -11 13 12 214 108
252 120 27 9 59 23 70 30 23 16 16 18 -19 4 -14 -5 -26 -6 -26 -1 0 13 94 51
125 51 21 0 25 4 21 18 -5 14 2 23 26 35 52 25 61 22 56 -18z m-1238 0 c0 -20
-6 -25 -35 -31 -19 -3 -66 -5 -104 -2 -50 2 -71 0 -82 -11 -10 -11 -10 -16 -1
-19 7 -2 9 -8 6 -14 -13 -20 20 -26 117 -21 93 4 99 4 99 -15 0 -27 -30 -33
-136 -26 -70 5 -93 3 -108 -9 -18 -13 -13 -14 54 -9 53 3 71 2 66 -7 -4 -6
-20 -11 -35 -11 -15 0 -36 -7 -47 -15 -18 -14 -17 -14 16 -15 l35 -1 -26 -14
c-18 -10 -36 -12 -55 -6 -26 7 -299 6 -379 -1 -16 -1 -39 -11 -49 -20 -11 -10
-26 -18 -33 -18 -7 0 -13 -5 -13 -11 0 -7 10 -9 25 -7 14 3 33 -1 42 -8 24
-18 33 -17 33 2 0 11 5 14 16 10 9 -3 64 -6 122 -6 l107 -1 -75 -24 c-41 -14
-113 -32 -160 -40 -47 -9 -94 -18 -105 -21 -23 -6 -22 -22 -10 211 4 72 8 132
10 134 10 10 183 21 423 27 144 4 262 11 262 16 0 4 5 8 10 8 6 0 10 -11 10
-25z m3550 -11 c0 -14 -4 -23 -10 -19 -5 3 -10 15 -10 26 0 10 5 19 10 19 6 0
10 -12 10 -26z m-3048 4 c26 1 33 -19 9 -25 -12 -3 -21 -9 -21 -13 0 -9 -48
-18 -130 -27 -30 -3 -58 -10 -62 -16 -10 -16 70 -39 92 -27 19 10 83 9 72 -1
-4 -4 -62 -21 -129 -39 -67 -18 -120 -37 -117 -41 2 -4 23 -1 46 7 73 26 65
14 -12 -16 -41 -17 -78 -30 -81 -30 -3 0 -5 10 -3 23 1 12 3 50 3 84 1 61 1
61 49 98 l47 36 110 -7 c61 -4 118 -6 127 -6z m-1530 -131 c-27 -50 -70 -126
-95 -167 -47 -76 -51 -98 -16 -79 18 9 19 9 7 -10 -7 -12 -20 -21 -28 -21 -8
-1 -1 -7 16 -14 20 -9 46 -11 78 -6 42 6 46 5 33 -8 -8 -8 -30 -16 -48 -18
-37 -5 -57 -26 -33 -34 12 -5 5 -13 -25 -33 -22 -15 -43 -27 -45 -27 -3 0 -5
23 -4 51 0 29 -5 55 -11 58 -13 8 -12 89 1 97 4 3 8 -3 8 -13 0 -20 -3 -24 55
76 17 29 49 82 73 119 23 37 50 84 59 105 10 21 19 34 21 28 2 -6 -19 -53 -46
-104z m1028 78 c0 -12 -17 -15 -97 -15 -142 0 -104 24 45 28 40 2 52 -1 52
-13z m995 2 c-25 -17 -127 -58 -132 -54 -14 14 88 66 132 67 19 0 19 0 0 -13z
m1175 3 c0 -5 -24 -10 -54 -10 -30 0 -58 5 -61 10 -4 6 17 10 54 10 34 0 61
-4 61 -10z m-2090 -15 c0 -8 -4 -15 -9 -15 -13 0 -22 16 -14 24 11 11 23 6 23
-9z m3310 5 c0 -5 -14 -10 -31 -10 -17 0 -28 4 -24 10 3 6 17 10 31 10 13 0
24 -4 24 -10z m-4327 -42 c-3 -16 -9 -28 -14 -28 -11 0 -11 3 1 36 13 33 20
29 13 -8z m-33 4 c0 -5 -7 -17 -15 -28 -14 -18 -14 -17 -4 9 12 27 19 34 19
19z m1545 -11 c-6 -5 -41 -18 -80 -30 -38 -12 -83 -31 -98 -42 -26 -19 -27
-19 -16 -2 6 11 50 33 98 51 92 33 111 38 96 23z m140 -13 c-22 -12 -56 -28
-75 -36 l-35 -14 27 25 c29 27 70 45 103 46 13 0 7 -7 -20 -21z m-635 -2 c0
-8 -4 -18 -10 -21 -5 -3 -10 3 -10 14 0 12 5 21 10 21 6 0 10 -6 10 -14z m765
4 c-3 -5 -12 -10 -18 -10 -7 0 -6 4 3 10 19 12 23 12 15 0z m3809 -2 c-3 -4 0
-8 5 -8 6 0 11 -9 11 -20 0 -13 -9 -22 -27 -26 -48 -10 -49 -12 -10 -13 42 -1
50 -21 15 -40 -22 -11 -22 -11 5 -6 25 5 27 3 27 -29 0 -19 -4 -38 -10 -41 -5
-3 -10 -21 -10 -39 0 -37 -24 -51 -63 -37 -17 7 -18 8 -4 14 25 10 20 26 -5
19 -22 -5 -22 -4 -5 15 9 11 17 23 17 26 0 10 -58 8 -64 -2 -3 -5 -18 -12 -33
-16 -16 -3 -41 -13 -58 -20 -28 -13 -239 -28 -249 -17 -3 2 -69 3 -148 3 -78
-1 -140 0 -138 2 16 15 321 167 334 167 9 0 16 5 16 10 0 6 19 10 43 11 31 0
37 2 22 8 -35 14 -135 22 -135 11 0 -5 5 -10 12 -10 21 0 -5 -17 -55 -35 -27
-10 -43 -21 -37 -25 6 -4 -53 -40 -132 -80 -79 -40 -148 -76 -154 -81 -6 -5
-20 -7 -32 -4 -12 2 -24 0 -26 -4 -3 -4 -31 -4 -63 1 -70 11 -76 11 -133 0
-25 -4 -106 -9 -180 -10 l-135 -2 135 51 c74 28 180 64 235 80 154 45 261 82
249 86 -5 2 -53 -10 -105 -26 -52 -15 -110 -32 -129 -36 -19 -4 -99 -32 -178
-61 -79 -30 -146 -54 -150 -54 -4 0 76 42 178 93 178 90 190 94 285 106 55 7
124 16 153 20 47 6 52 5 52 -12 0 -15 -5 -18 -22 -14 -37 10 -70 -2 -63 -23 5
-15 -7 -25 -57 -49 -96 -45 -168 -72 -179 -66 -5 4 -9 2 -9 -4 0 -6 -26 -18
-58 -28 -32 -10 -58 -22 -58 -28 1 -13 7 -12 95 20 40 14 80 24 87 21 8 -3 14
0 14 7 0 7 37 30 81 52 45 22 104 52 132 67 39 20 67 27 112 28 43 0 56 3 45
10 -8 5 -30 10 -47 10 -18 0 -33 5 -33 10 0 9 62 11 407 14 56 1 104 3 107 6
8 9 125 7 120 -2z m-3854 -39 c0 -5 -4 -9 -10 -9 -5 0 -10 5 -10 11 0 7 -10 5
-26 -6 -14 -9 -28 -14 -31 -12 -3 3 8 12 23 20 28 15 54 13 54 -4z m-1830 -58
c-18 -34 -36 -64 -42 -67 -5 -3 8 25 29 64 46 86 57 88 13 3z m950 60 c0 -5
-7 -12 -16 -15 -24 -9 -28 -7 -14 9 14 17 30 20 30 6z m-923 -79 c-42 -84 -87
-156 -93 -150 -2 3 24 55 58 116 68 123 90 144 35 34z m1003 68 c0 -5 -17 -10
-37 -10 -28 0 -34 3 -23 10 20 13 60 13 60 0z m80 0 c0 -5 -2 -10 -4 -10 -3 0
-8 5 -11 10 -3 6 -1 10 4 10 6 0 11 -4 11 -10z m430 1 c0 -5 -6 -11 -12 -14
-7 -2 -10 -7 -6 -11 3 -4 17 -2 30 5 22 12 23 11 6 -8 -10 -11 -18 -24 -18
-30 0 -14 -62 -43 -91 -43 -21 0 -21 1 -5 19 29 32 -13 38 -52 8 -11 -8 -11
-12 0 -20 9 -6 8 -7 -5 -3 -10 3 -26 2 -35 -3 -9 -4 -47 -11 -84 -14 -92 -8
-89 10 5 46 92 35 107 34 37 -3 -31 -16 -47 -29 -36 -30 10 0 35 9 55 20 41
23 192 89 204 90 4 0 7 -4 7 -9z m3114 -2 c3 -3 -9 -14 -27 -24 -27 -16 -30
-16 -18 -2 19 23 0 22 -50 -4 -23 -11 -103 -42 -178 -68 -75 -27 -199 -71
-276 -99 -82 -29 -167 -52 -205 -56 -36 -4 -83 -9 -105 -11 -39 -5 -39 -4 -10
6 17 6 99 38 183 71 84 32 157 56 162 53 6 -3 10 -2 10 3 0 5 57 29 128 52 70
24 129 44 131 46 33 29 -176 -37 -458 -145 -74 -28 -136 -49 -139 -47 -3 3 6
10 19 15 13 5 49 20 79 34 31 14 78 34 105 45 51 20 227 101 234 108 2 2 1 7
-2 10 -4 4 -68 -21 -144 -55 -76 -35 -147 -67 -158 -72 -11 -4 -81 -36 -155
-69 -129 -58 -138 -61 -205 -58 l-70 3 40 14 c49 17 318 137 441 197 l92 44
188 8 c221 8 380 9 388 1z m-4564 -19 c0 -11 -7 -20 -15 -20 -13 0 -14 4 -5
20 6 11 13 20 15 20 3 0 5 -9 5 -20z m3677 -5 c1 -5 -30 -27 -70 -47 -128 -65
-321 -155 -359 -167 -38 -13 -51 -31 -23 -31 23 0 422 193 475 230 33 23 70
34 70 21 0 -5 -12 -16 -27 -24 -16 -8 -57 -31 -93 -51 -54 -32 -231 -120 -355
-177 -21 -10 -70 -14 -157 -14 -71 0 -128 1 -128 1 0 1 39 21 88 45 48 23 116
60 151 81 34 21 65 38 67 38 2 0 34 20 72 44 54 35 82 46 137 54 84 12 147 11
152 -3z m253 9 c0 -3 -26 -17 -57 -31 -32 -14 -134 -60 -228 -103 -202 -92
-284 -124 -291 -117 -3 2 19 15 48 28 97 42 279 139 347 183 58 39 73 45 124
45 31 1 57 -1 57 -5z m-1260 -14 c-1 -20 -29 -28 -130 -34 -63 -4 -131 -9
-150 -10 -19 -2 -41 2 -47 7 -9 6 -18 5 -28 -3 -10 -9 -15 -9 -15 -1 0 14 -37
14 -42 0 -2 -6 -27 -12 -55 -13 -41 -1 -53 2 -56 15 -4 14 17 18 157 30 158
14 366 19 366 9z m308 3 c-16 -2 -40 -2 -55 0 -16 2 -3 4 27 4 30 0 43 -2 28
-4z m100 0 c-10 -2 -26 -2 -35 0 -10 3 -2 5 17 5 19 0 27 -2 18 -5z m262 -2
c0 -22 -312 -185 -369 -193 -30 -4 -41 -28 -13 -28 24 0 202 87 334 164 96 55
158 77 107 38 -38 -30 -309 -179 -359 -198 -25 -9 -49 -21 -54 -26 -6 -4 -27
-8 -47 -8 -21 0 -39 -4 -41 -10 -1 -5 -30 -12 -63 -16 -33 -4 -62 -10 -65 -15
-7 -10 -113 11 -122 25 -4 7 -15 6 -33 -2 -14 -7 -38 -12 -52 -12 -21 0 -23 2
-13 15 11 13 6 13 -36 -1 -41 -12 -144 -34 -165 -34 -3 0 -6 7 -6 15 0 8 6 15
13 15 7 0 16 4 19 10 6 10 4 9 -78 -28 -52 -24 -168 -31 -197 -12 -10 6 -11
10 -2 10 6 0 12 4 12 9 0 5 -27 -1 -60 -15 -63 -25 -80 -29 -80 -16 0 4 16 14
36 21 43 16 168 88 285 164 l87 57 123 5 c68 3 151 8 184 11 l60 5 -24 -20
c-29 -26 -21 -26 27 -2 32 15 192 38 192 27 0 -2 -24 -16 -52 -31 -80 -41
-162 -87 -168 -93 -20 -20 67 19 157 70 84 48 119 62 161 66 28 2 52 1 51 -4
0 -8 -144 -81 -326 -167 -63 -29 -74 -40 -50 -50 16 -6 117 31 117 44 0 12 -6
11 -40 -6 -17 -9 -30 -13 -30 -10 0 2 18 14 40 25 37 19 44 18 41 -2 -2 -15
102 34 307 144 50 27 92 45 92 40 0 -6 -6 -13 -12 -15 -7 -3 -4 -6 8 -6 12 -1
36 10 55 23 37 27 49 31 49 17z m-2400 -22 c0 -17 -4 -20 -22 -15 -13 3 -52 6
-88 6 -50 1 -61 3 -47 11 10 6 25 8 33 5 8 -3 14 -1 14 4 0 6 25 10 55 10 49
0 55 -2 55 -21z m80 -26 c0 -55 -5 -54 -14 5 -4 26 -2 42 4 42 5 0 10 -21 10
-47z m2183 40 c-7 -2 -19 -2 -25 0 -7 3 -2 5 12 5 14 0 19 -2 13 -5z m-116 -9
c-3 -3 -12 -4 -19 -1 -8 3 -5 6 6 6 11 1 17 -2 13 -5z m1403 0 c0 -8 -250
-126 -335 -158 -38 -15 -79 -32 -91 -37 -19 -10 -80 -7 -90 4 -3 2 28 16 68
30 187 65 376 135 403 150 32 17 45 21 45 11z m-1331 -17 c-11 -10 -144 -77
-152 -77 -5 0 -28 -13 -52 -30 -44 -30 -65 -37 -65 -22 0 5 39 28 88 51 48 23
107 53 131 66 25 14 47 22 50 20 2 -3 2 -7 0 -8z m-2555 -12 c5 -13 -14 -15
-134 -15 -81 0 -140 4 -140 9 0 12 46 17 171 19 78 2 98 -1 103 -13z m981 5
c-3 -5 -16 -10 -28 -9 -21 0 -21 1 -2 9 28 12 37 12 30 0z m-907 -11 c-12 -7
-24 -7 -35 0 -15 9 -12 10 17 10 29 0 32 -1 18 -10z m242 -5 c23 -6 24 -7 5
-14 -17 -7 -17 -9 -2 -9 9 -1 17 -7 17 -15 0 -15 -72 -27 -279 -46 -85 -8
-116 -8 -121 0 -5 9 -16 8 -38 -4 -17 -9 -50 -16 -74 -15 -37 0 -28 5 71 34
63 18 120 31 127 28 8 -3 14 -1 14 4 0 12 59 33 112 39 23 3 44 7 46 9 4 4 91
-4 122 -11z m560 6 c0 -5 -8 -10 -17 -10 -15 0 -16 2 -3 10 19 12 20 12 20 0z
m595 1 c35 -8 31 -9 -35 -9 -50 0 -68 2 -55 8 25 11 40 11 90 1z m-138 -7 c-3
-3 -12 -4 -19 -1 -8 3 -5 6 6 6 11 1 17 -2 13 -5z m-1986 -63 c-25 -48 -25
-51 -6 -51 8 0 22 15 30 33 l15 32 -4 -39 c-3 -21 -7 -40 -8 -42 -2 -2 -23 -6
-46 -10 -48 -7 -53 1 -23 44 10 15 26 40 35 55 26 42 31 25 7 -22z m1889 29
c0 -5 -12 -10 -26 -10 -14 0 -23 4 -19 10 3 6 15 10 26 10 10 0 19 -4 19 -10z
m117 4 c-11 -12 -79 -15 -72 -4 3 5 22 10 42 10 20 0 33 -3 30 -6z m363 -9
c-7 -8 -18 -15 -25 -15 -7 0 -23 -8 -36 -19 -43 -34 -186 -111 -205 -111 -8 0
-14 -4 -14 -9 0 -4 -21 -16 -47 -26 -27 -10 -53 -23 -59 -31 -12 -15 -128 -18
-118 -2 4 6 -1 6 -14 -1 -11 -6 -31 -11 -43 -11 -38 0 100 98 248 177 92 48
138 59 257 62 60 1 67 -1 56 -14z m-622 -16 c-21 -11 -38 -24 -38 -30 0 -12
-84 -49 -111 -49 -10 0 -19 -4 -19 -8 0 -4 -17 -14 -37 -21 -81 -29 -172 -74
-167 -82 3 -5 18 -9 34 -9 34 0 250 81 380 143 66 31 119 48 173 57 43 6 81 9
84 7 6 -7 -96 -73 -127 -82 -14 -4 -59 -24 -100 -45 -41 -20 -92 -43 -112 -49
-44 -14 -52 -37 -10 -27 15 4 55 21 89 38 35 17 65 29 67 27 6 -6 -88 -69
-110 -73 -11 -2 -82 -8 -159 -12 -104 -6 -127 -10 -90 -14 34 -4 2 -7 -100
-12 -82 -4 -159 -9 -170 -13 l-20 -7 20 17 c11 9 70 43 130 77 61 34 149 85
196 115 65 40 96 53 125 53 21 0 46 5 54 10 8 5 24 10 35 9 14 0 9 -5 -17 -20z
m-278 -30 c-19 -12 -59 -33 -90 -47 -56 -27 -86 -49 -78 -58 8 -7 90 33 169
81 78 48 145 66 79 21 -39 -26 -315 -183 -369 -209 -48 -24 -57 -8 -22 40 22
30 57 56 138 99 59 32 122 66 138 76 17 9 39 17 50 17 15 1 11 -4 -15 -20z
m345 6 c-20 -16 -86 -37 -93 -30 -5 5 79 43 98 44 11 0 10 -3 -5 -14z m-1934
-18 c-10 -9 -11 -8 -5 6 3 10 9 15 12 12 3 -3 0 -11 -7 -18z m1432 -10 c-46
-23 -66 -28 -74 -20 -14 14 20 34 76 44 63 10 63 10 -2 -24z m4221 -11 c-6
-25 -10 -27 -43 -24 -20 3 -53 1 -75 -4 -41 -9 -106 5 -106 24 0 6 9 7 23 3
12 -4 33 -6 47 -6 30 1 121 30 135 42 15 15 27 -6 19 -35z m-4356 4 c-11 -18
-28 -27 -28 -16 0 16 14 36 26 36 12 0 12 -4 2 -20z m-188 3 c0 -5 -11 -8 -25
-8 -14 0 -25 3 -25 8 0 4 11 7 25 7 14 0 25 -3 25 -7z m100 -22 c0 -11 5 -23
10 -26 13 -8 3 -25 -14 -25 -8 0 -13 14 -14 35 -1 19 3 35 8 35 6 0 10 -9 10
-19z m1837 13 c-3 -3 -12 -4 -19 -1 -8 3 -5 6 6 6 11 1 17 -2 13 -5z m-2484
-11 c-7 -2 -19 -2 -25 0 -7 3 -2 5 12 5 14 0 19 -2 13 -5z m304 1 c-3 -3 -12
-4 -19 -1 -8 3 -5 6 6 6 11 1 17 -2 13 -5z m106 -1 c-13 -2 -35 -2 -50 0 -16
2 -5 4 22 4 28 0 40 -2 28 -4z m-288 -13 c-3 -5 -18 -10 -33 -9 -24 0 -25 1
-7 9 28 12 47 12 40 0z m103 3 c-10 -2 -26 -2 -35 0 -10 3 -2 5 17 5 19 0 27
-2 18 -5z m307 -9 c-11 -8 -74 -45 -140 -81 -66 -36 -125 -71 -131 -79 -12
-15 -94 -31 -94 -18 1 10 87 73 159 117 74 44 124 66 161 70 66 7 66 7 45 -9z
m251 0 c-3 -9 -6 -19 -6 -23 0 -4 -13 -15 -30 -24 -29 -18 -30 -18 -30 2 0 11
12 29 26 40 32 25 48 27 40 5z m345 -35 c-73 -27 -136 -48 -138 -45 -7 6 49
30 157 67 139 47 126 32 -19 -22z m-1294 29 c-2 -9 -28 -14 -73 -15 -38 -2
-91 -6 -119 -9 -47 -5 -49 -5 -29 10 19 13 46 17 187 24 27 1 37 -2 34 -10z
m193 3 c-21 -12 -104 -21 -94 -11 10 9 44 17 84 18 18 1 21 -1 10 -7z m4730
-2 c0 -14 -36 -22 -105 -24 -87 -2 -115 3 -115 22 0 11 20 13 110 12 61 -2
110 -6 110 -10z m460 -8 c0 -11 3 -27 6 -35 7 -18 -13 -13 -53 14 -29 19 -29
30 -1 22 14 -3 19 -2 14 6 -5 8 0 12 13 12 14 0 21 -6 21 -19z m-4854 -4
c-132 -84 -246 -166 -246 -177 0 -6 -25 -10 -56 -10 -30 0 -53 4 -50 9 3 5 38
27 77 51 39 23 68 44 65 47 -3 3 -27 -7 -53 -22 -26 -15 -67 -39 -91 -53 -24
-13 -45 -22 -48 -20 -2 3 37 40 86 84 70 61 99 79 123 80 18 1 46 5 62 8 27 7
28 6 10 -5 -11 -7 -22 -15 -25 -19 -3 -4 -13 -11 -24 -17 -10 -6 -14 -13 -9
-16 6 -4 37 11 69 32 40 27 70 40 94 40 31 0 33 -2 16 -12z m3930 5 c50 -2 51
-3 50 -32 -1 -26 -5 -30 -31 -30 -23 0 -26 3 -15 10 37 23 -12 28 -210 18
-349 -16 -505 -20 -498 -13 8 8 108 22 283 38 115 11 266 14 421 9z m-4717 -5
c-2 -1 -12 -9 -21 -16 -15 -12 -18 -11 -18 3 0 10 8 16 22 16 12 0 19 -1 17
-3z m304 -4 c-7 -2 -19 -2 -25 0 -7 3 -2 5 12 5 14 0 19 -2 13 -5z m3387 -9
c0 -2 -12 -4 -27 -4 -21 0 -24 3 -14 9 13 8 41 5 41 -5z m-2712 -24 c2 -25 -4
-33 -43 -55 -25 -15 -45 -31 -45 -36 0 -13 9 -11 46 12 l34 21 0 -27 c0 -25
-2 -26 -57 -26 -32 0 -96 -2 -143 -5 l-85 -5 130 74 c72 42 137 76 145 76 10
1 17 -9 18 -29z m3916 15 c-4 -8 -10 -15 -15 -15 -4 0 -6 7 -3 15 4 8 10 15
15 15 4 0 6 -7 3 -15z m456 11 c0 -11 -19 -15 -25 -6 -3 5 1 10 9 10 9 0 16
-2 16 -4z m-4875 -15 c-6 -4 -46 -34 -90 -66 -44 -32 -93 -73 -110 -91 l-30
-34 -132 -5 c-132 -5 -157 1 -110 26 12 7 66 43 120 81 54 37 105 68 115 68
12 0 10 -4 -8 -17 -14 -9 -30 -22 -37 -28 -6 -7 -43 -31 -82 -56 -39 -24 -71
-48 -71 -53 0 -14 21 -2 120 69 103 72 133 88 195 99 48 9 46 7 -65 -69 -102
-70 -108 -75 -90 -75 8 0 66 36 129 80 62 44 123 80 134 80 13 0 17 -4 12 -9z
m18 -23 c-21 -17 -63 -56 -94 -86 -41 -39 -63 -53 -80 -50 -19 2 -5 17 87 85
109 83 158 111 87 51z m3387 11 c-41 -5 -99 -12 -128 -15 -41 -4 -52 -9 -48
-20 4 -11 -3 -14 -32 -13 -30 2 -32 3 -9 6 15 2 27 8 27 12 0 4 -72 6 -160 3
-89 -3 -160 -1 -160 4 0 5 46 10 103 11 56 1 109 4 117 7 18 6 101 10 255 12
l110 2 -75 -9z m-3750 -52 c-36 -23 -89 -60 -118 -80 -30 -21 -56 -37 -58 -34
-2 2 32 38 75 80 73 72 82 77 122 77 l43 0 -64 -43z m2919 39 c-11 -9 -69 -14
-69 -6 0 6 17 10 37 10 20 0 34 -2 32 -4z m1646 -6 c-7 -12 -99 -12 -135 0
-17 5 1 8 58 9 53 1 81 -3 77 -9z m684 -5 c2 -3 -19 -5 -47 -5 -28 0 -54 5
-58 11 -5 8 8 10 47 5 29 -4 55 -9 58 -11z m-2422 -1 c-3 -3 -12 -4 -19 -1 -8
3 -5 6 6 6 11 1 17 -2 13 -5z m-1872 -14 c-3 -5 -10 -10 -16 -10 -5 0 -9 5 -9
10 0 6 7 10 16 10 8 0 12 -4 9 -10z m-1265 -65 c-24 -25 -45 -45 -47 -45 -2 0
-3 9 -3 20 0 11 6 20 13 20 6 0 26 11 42 25 46 37 44 30 -5 -20z m1270 20 c0
-20 -5 -25 -25 -25 -31 0 -32 14 -3 34 29 20 28 21 28 -9z m537 -2 c-20 -2
-52 -2 -70 0 -17 2 0 4 38 4 39 0 53 -2 32 -4z"/>
<path d="M2292 2198 c-18 -18 -14 -41 13 -67 14 -13 25 -19 25 -13 0 5 30 15
66 22 48 9 68 18 71 30 3 10 14 22 26 28 l22 11 -22 0 c-12 1 -30 -10 -40 -23
-30 -40 -153 -47 -153 -10 0 8 5 12 10 9 6 -3 10 1 10 9 0 19 -11 21 -28 4z"/>
<path d="M2275 2082 c-16 -9 -35 -22 -41 -28 -7 -6 -26 -17 -43 -24 -19 -8
-31 -20 -31 -31 0 -11 3 -19 7 -19 5 0 132 80 152 97 3 2 0 7 -5 13 -5 5 -20
2 -39 -8z"/>
<path d="M1778 2043 c-15 -10 -30 -24 -33 -32 -4 -10 -2 -11 7 -4 7 5 26 19
42 31 34 26 23 29 -16 5z"/>
<path d="M590 2137 c-54 -50 -154 -160 -180 -198 -13 -19 12 4 55 51 44 47
102 106 128 132 55 54 52 66 -3 15z"/>
<path d="M196 1853 c-6 -14 -5 -15 5 -6 7 7 10 15 7 18 -3 3 -9 -2 -12 -12z"/>
<path d="M4764 1928 l-19 -23 23 19 c12 11 22 21 22 23 0 8 -8 2 -26 -19z"/>
<path d="M4720 1885 c-7 -9 -8 -15 -2 -15 5 0 12 7 16 15 3 8 4 15 2 15 -2 0
-9 -7 -16 -15z"/>
<path d="M4604 1764 c3 -8 6 -25 6 -36 0 -29 15 -12 15 18 1 13 -5 26 -13 29
-10 4 -12 0 -8 -11z"/>
<path d="M2000 2000 c-8 -5 -11 -12 -7 -16 4 -4 13 -2 19 4 15 15 7 24 -12 12z"/>
<path d="M1705 1670 c-3 -5 -1 -10 4 -10 6 0 11 5 11 10 0 6 -2 10 -4 10 -3 0
-8 -4 -11 -10z"/>
<path d="M1900 1560 c0 -5 5 -10 10 -10 6 0 10 5 10 10 0 6 -4 10 -10 10 -5 0
-10 -4 -10 -10z"/>
<path d="M1364 1917 c-40 -45 -45 -50 -104 -127 -19 -25 -51 -65 -72 -89 -34
-39 -48 -71 -32 -71 15 0 44 22 39 30 -4 7 113 169 145 200 3 3 22 26 43 53
48 59 33 62 -19 4z"/>
<path d="M4602 1984 c-5 -9 -33 -41 -63 -73 -30 -31 -67 -72 -84 -91 -28 -33
-28 -33 13 5 64 59 166 175 154 175 -6 0 -15 -7 -20 -16z"/>
<path d="M4395 1760 c-3 -6 1 -7 9 -4 18 7 21 14 7 14 -6 0 -13 -4 -16 -10z"/>
<path d="M5335 1704 c9 -9 19 -13 23 -10 3 4 0 11 -8 16 -24 15 -33 11 -15 -6z"/>
<path d="M4080 1483 c0 -12 -6 -24 -12 -26 -8 -3 -7 -6 4 -6 23 -1 31 15 19
36 -9 16 -10 16 -11 -4z"/>
<path d="M4090 1422 c0 -4 9 -17 18 -30 16 -21 20 -22 31 -8 9 11 10 16 2 16
-6 0 -11 6 -11 13 0 7 -9 13 -20 14 -11 1 -20 -1 -20 -5z"/>
<path d="M4667 1292 c-19 -21 -24 -43 -5 -24 22 22 29 12 22 -33 -4 -30 -3
-45 5 -45 6 0 11 6 11 14 0 7 3 26 6 42 3 17 0 36 -8 47 -13 18 -14 18 -31 -1z"/>
<path d="M4560 1282 c0 -12 24 -22 52 -22 11 0 18 5 16 13 -5 14 -68 23 -68 9z"/>
<path d="M5300 1245 c0 -8 72 -35 94 -35 12 1 1 9 -29 20 -51 21 -65 24 -65
15z"/>
<path d="M5318 1026 c-7 -7 -20 -23 -28 -35 -8 -11 -19 -21 -24 -21 -5 0 -2 8
7 18 23 25 22 29 -13 34 -20 3 -30 0 -30 -9 0 -7 4 -13 9 -13 6 0 3 -17 -6
-37 -36 -85 -18 -152 32 -119 23 15 24 15 18 -1 -6 -16 -5 -16 11 -3 16 13 18
12 14 -10 -2 -20 -9 -25 -30 -25 -33 1 -38 -15 -5 -16 45 -1 82 -11 89 -22 6
-9 10 -9 17 2 7 11 21 11 72 3 35 -6 98 -14 139 -18 41 -3 105 -12 141 -19 54
-10 69 -10 84 1 10 8 27 14 37 14 18 0 24 11 12 23 -4 3 -25 -1 -47 -10 -35
-14 -52 -15 -121 -5 -45 6 -132 17 -193 23 -82 9 -113 16 -113 26 0 7 4 13 9
13 17 0 30 122 17 152 -7 15 -3 16 27 11 52 -8 56 14 5 27 -24 6 -56 15 -72
20 -38 13 -42 13 -58 -4z m78 -27 c6 -11 -92 -111 -129 -131 -16 -8 -18 -7 -9
7 18 34 107 134 119 134 6 1 15 -4 19 -10z m-11 -122 c-16 -57 -36 -83 -54
-73 -13 8 3 53 28 81 10 11 21 29 25 39 3 10 9 16 12 14 3 -3 -2 -31 -11 -61z"/>
<path d="M5513 1018 c-4 -7 -6 -23 -5 -35 2 -11 -2 -24 -7 -28 -6 -3 -11 -11
-11 -16 0 -6 5 -7 11 -4 6 4 16 0 22 -9 10 -14 18 -14 47 -5 19 7 44 16 54 21
15 8 23 5 36 -12 15 -19 22 -21 60 -15 29 5 44 13 47 26 3 10 9 19 14 19 5 0
9 5 9 11 0 5 -4 7 -10 4 -5 -3 -10 -2 -10 3 0 5 -14 15 -31 22 -24 10 -35 10
-55 0 -13 -7 -24 -19 -24 -27 0 -27 -27 -12 -53 30 -13 21 -25 27 -52 27 -18
0 -37 -6 -42 -12z m81 -24 c6 -15 -28 -53 -47 -54 -14 0 -19 28 -7 49 13 25
45 28 54 5z m136 -17 c-3 -4 2 -12 10 -17 18 -11 13 -15 -23 -24 -32 -8 -47
15 -27 40 13 15 50 16 40 1z"/>
<path d="M5843 1003 c-18 -7 -16 -20 2 -20 8 0 15 6 15 14 0 7 -1 13 -2 12 -2
0 -9 -3 -15 -6z"/>
<path d="M5890 940 c0 -15 -7 -20 -28 -20 -15 0 -33 5 -39 11 -7 7 -13 7 -17
1 -10 -17 22 -33 61 -30 33 3 38 7 41 31 2 15 -1 27 -7 27 -6 0 -11 -9 -11
-20z"/>
<path d="M4962 808 c3 -7 14 -14 26 -16 15 -2 22 -11 23 -25 l0 -22 9 23 c10
25 48 30 69 10 10 -11 12 -10 9 2 -2 12 12 16 72 20 l75 5 -85 7 c-132 12
-202 10 -198 -4z"/>
<path d="M5035 759 c-4 -6 -5 -13 -2 -16 7 -7 27 6 27 18 0 12 -17 12 -25 -2z"/>
<path d="M5028 715 c-4 -4 -4 -20 -1 -36 7 -36 -2 -37 -20 -3 -8 16 -17 22
-21 16 -7 -12 39 -70 49 -61 3 4 5 26 3 49 -2 23 -6 39 -10 35z"/>
<path d="M5295 1434 c-88 -11 -174 -28 -170 -34 4 -6 38 -3 188 15 53 7 60 -2
20 -28 l-28 -18 30 6 c34 7 69 35 58 46 -11 10 -63 17 -98 13z"/>
<path d="M5090 1345 c0 -8 2 -15 4 -15 2 0 6 7 10 15 3 8 1 15 -4 15 -6 0 -10
-7 -10 -15z"/>
<path d="M3131 1306 c-7 -8 -11 -32 -9 -53 2 -31 7 -39 25 -41 17 -3 21 0 17
12 -3 9 -1 16 6 16 7 0 10 14 8 37 -3 41 -26 55 -47 29z"/>
<path d="M3207 1265 c-9 -20 -17 -37 -17 -38 0 -7 63 2 71 10 17 17 6 58 -16
61 -15 2 -25 -7 -38 -33z"/>
<path d="M3295 1281 c-3 -5 -1 -12 5 -16 5 -3 10 1 10 9 0 18 -6 21 -15 7z"/>
<path d="M3282 1235 c0 -16 2 -22 5 -12 2 9 2 23 0 30 -3 6 -5 -1 -5 -18z"/>
<path d="M2975 1169 c-4 -6 -5 -12 -2 -15 2 -3 7 2 10 11 7 17 1 20 -8 4z"/>
<path d="M3006 1157 c-26 -19 -19 -81 11 -85 16 -2 26 5 37 26 13 26 13 31 0
51 -18 25 -24 26 -48 8z"/>
<path d="M3114 1156 c-12 -30 1 -71 22 -74 24 -3 35 21 27 62 -6 28 -40 37
-49 12z"/>
<path d="M3210 1141 c-23 -45 -5 -76 39 -66 24 5 31 12 31 30 0 13 -10 31 -22
39 -29 21 -35 20 -48 -3z"/>
<path d="M2964 1029 c-11 -19 -15 -97 -5 -103 17 -11 52 46 49 78 -3 32 -30
47 -44 25z"/>
<path d="M2797 942 c-13 -14 -18 -45 -21 -125 -4 -101 -4 -108 16 -118 18 -9
24 -8 35 7 16 22 17 36 2 51 -8 8 -8 17 0 30 7 15 6 26 -6 43 -9 13 -12 25 -6
29 23 15 26 101 4 101 -4 0 -15 -8 -24 -18z"/>
<path d="M3869 1033 c-5 -15 -9 -36 -7 -47 5 -32 48 -28 67 6 14 24 14 28 -3
47 -26 28 -44 26 -57 -6z"/>
<path d="M3874 886 c-11 -29 1 -51 26 -51 19 0 26 6 28 24 5 35 -42 58 -54 27z"/>
<path d="M3866 764 c-16 -42 6 -80 38 -68 22 8 31 50 16 69 -16 20 -46 19 -54
-1z"/>
<path d="M1018 1143 c12 -2 32 -2 45 0 12 2 2 4 -23 4 -25 0 -35 -2 -22 -4z"/>
<path d="M2520 1106 c0 -8 5 -18 10 -21 6 -3 10 1 10 9 0 8 -4 18 -10 21 -5 3
-10 -1 -10 -9z"/>
<path d="M2360 1065 c-7 -8 -18 -15 -25 -15 -16 0 -30 -169 -16 -183 7 -7 12
-5 16 4 4 11 19 15 49 14 33 -2 43 1 39 12 -3 7 -9 13 -13 13 -19 0 -22 63 -5
101 10 21 15 45 12 53 -8 20 -41 21 -57 1z m30 -28 c0 -20 -26 -52 -33 -40 -3
5 1 20 11 31 20 25 22 26 22 9z"/>
<path d="M4332 963 c-7 -3 -18 -17 -24 -32 -10 -26 -10 -26 -18 -4 -8 19 -12
20 -34 10 -14 -7 -28 -18 -31 -24 -14 -37 37 -65 58 -32 17 27 25 24 29 -13
l4 -33 11 25 c7 14 12 21 12 17 2 -20 41 16 41 38 0 18 -24 58 -33 54 -1 0 -8
-3 -15 -6z m28 -43 c0 -5 -5 -10 -11 -10 -5 0 -7 5 -4 10 3 6 8 10 11 10 2 0
4 -4 4 -10z"/>
<path d="M4118 939 c-25 -14 -22 -55 4 -73 20 -14 24 -14 40 1 23 20 23 52 1
69 -22 16 -23 16 -45 3z"/>
<path d="M4222 828 c-21 -21 -14 -57 13 -70 34 -15 45 -2 36 42 -7 37 -28 49
-49 28z"/>
<path d="M4298 824 c-15 -14 -8 -64 8 -71 21 -8 46 24 42 51 -5 32 -28 31 -29
-1 l-1 -28 -7 28 c-3 16 -9 25 -13 21z"/>
<path d="M3160 830 c0 -27 22 -71 33 -67 6 2 12 22 14 45 4 39 2 42 -21 42
-19 0 -26 -5 -26 -20z"/>
<path d="M3270 821 c0 -33 9 -44 29 -32 18 12 10 55 -11 59 -14 3 -18 -3 -18
-27z"/>
<path d="M3356 834 c-11 -28 -6 -54 9 -54 18 0 38 37 31 56 -7 19 -32 18 -40
-2z"/>
<path d="M3256 735 c-12 -32 -7 -46 17 -43 16 2 22 10 22 28 0 29 -29 40 -39
15z"/>
<path d="M3352 737 c-14 -16 -6 -27 20 -27 13 0 18 6 16 17 -4 22 -22 27 -36
10z"/>
<path d="M3168 733 c-22 -6 -23 -29 -2 -37 21 -8 34 1 34 25 0 19 -2 20 -32
12z"/>
<path d="M1820 850 c-8 -5 -10 -10 -5 -10 6 0 17 5 25 10 8 5 11 10 5 10 -5 0
-17 -5 -25 -10z"/>
<path d="M1905 780 c-3 -5 1 -10 9 -10 9 0 16 5 16 10 0 6 -4 10 -9 10 -6 0
-13 -4 -16 -10z"/>
<path d="M795 638 c-171 -8 -195 -15 -195 -60 0 -56 11 -61 61 -35 47 26 110
36 224 38 79 2 91 5 75 24 -8 9 -6 14 5 19 22 8 18 21 -7 21 -13 0 -86 -3
-163 -7z m84 -39 c-104 -15 -249 -20 -249 -10 0 15 33 22 156 30 71 4 114 3
123 -4 11 -8 4 -11 -30 -16z"/>
<path d="M741 528 c-80 -9 -161 -34 -161 -50 0 -5 10 -8 23 -8 13 0 29 -6 35
-12 10 -10 15 -10 22 2 7 12 35 15 132 17 130 1 203 17 203 43 0 19 -126 23
-254 8z m215 -17 c-9 -14 -113 -22 -184 -14 l-67 8 50 6 c80 9 207 10 201 0z"/>
<path d="M108 173 c7 -3 16 -2 19 1 4 3 -2 6 -13 5 -11 0 -14 -3 -6 -6z"/>
<path d="M5804 528 c-3 -4 -11 -5 -19 -1 -8 3 -15 1 -15 -5 0 -13 44 -24 48
-12 2 6 16 10 30 11 15 0 36 4 47 9 14 7 5 9 -33 7 -30 -1 -56 -5 -58 -9z"/>
<path d="M5693 513 c9 -2 25 -2 35 0 9 3 1 5 -18 5 -19 0 -27 -2 -17 -5z"/>
<path d="M5828 463 c-27 -7 -21 -23 7 -23 14 0 25 4 25 9 0 13 -12 18 -32 14z"/>
<path d="M5200 389 c0 -5 5 -7 10 -4 6 3 10 8 10 11 0 2 -4 4 -10 4 -5 0 -10
-5 -10 -11z"/>
<path d="M5075 352 c-108 -37 -112 -39 -102 -48 8 -9 207 66 207 77 0 5 -1 8
-2 8 -2 -1 -48 -17 -103 -37z"/>
<path d="M2839 383 c-13 -15 -12 -15 9 -4 23 12 28 21 13 21 -5 0 -15 -7 -22
-17z"/>
<path d="M2840 360 c-13 -9 -13 -10 0 -10 8 0 22 5 30 10 13 9 13 10 0 10 -8
0 -22 -5 -30 -10z"/>
<path d="M2863 295 c-36 -32 -26 -32 17 0 19 14 29 25 23 25 -7 0 -25 -11 -40
-25z"/>
<path d="M3016 285 c-11 -8 -15 -15 -9 -15 6 0 16 7 23 15 16 19 11 19 -14 0z"/>
<path d="M2598 266 c-26 -13 -45 -25 -43 -28 3 -3 -6 -13 -20 -22 -26 -17 -33
-36 -14 -36 17 0 131 56 154 75 12 10 5 8 -17 -5 -21 -12 -43 -18 -49 -14 -8
4 -9 3 -5 -4 5 -8 -1 -12 -15 -12 -18 0 -15 5 19 30 23 17 42 32 42 35 0 6 4
8 -52 -19z"/>
<path d="M2965 260 c-3 -5 -2 -10 4 -10 5 0 13 5 16 10 3 6 2 10 -4 10 -5 0
-13 -4 -16 -10z"/>
<path d="M160 1469 c-6 -11 -10 -25 -8 -30 2 -5 8 4 15 21 13 34 9 40 -7 9z"/>
<path d="M51 1114 c0 -11 3 -14 6 -6 3 7 2 16 -1 19 -3 4 -6 -2 -5 -13z"/>
<path d="M60 830 c0 -5 5 -10 11 -10 5 0 7 5 4 10 -3 6 -8 10 -11 10 -2 0 -4
-4 -4 -10z"/>
<path d="M4306 162 c-7 -12 22 -38 31 -28 4 3 0 14 -9 22 -9 10 -18 12 -22 6z"/>
<path d="M4750 140 c20 -13 53 -13 45 0 -3 6 -18 10 -33 10 -21 0 -24 -2 -12
-10z"/>
<path d="M4868 143 c7 -3 16 -2 19 1 4 3 -2 6 -13 5 -11 0 -14 -3 -6 -6z"/>
<path d="M4578 133 c7 -3 16 -2 19 1 4 3 -2 6 -13 5 -11 0 -14 -3 -6 -6z"/>
<path d="M1640 50 c0 -5 5 -10 11 -10 5 0 7 5 4 10 -3 6 -8 10 -11 10 -2 0 -4
-4 -4 -10z"/>
</g>
</svg>
