<?xml version="1.0" standalone="no"?>
<!DOCTYPE svg PUBLIC "-//W3C//DTD SVG 20010904//EN"
 "http://www.w3.org/TR/2001/REC-SVG-20010904/DTD/svg10.dtd">
<svg version="1.0" xmlns="http://www.w3.org/2000/svg"
 width="304.000000pt" height="149.000000pt" viewBox="0 0 304.000000 149.000000"
 preserveAspectRatio="xMidYMid meet">
<metadata>
Created by potrace 1.16, written by Peter Selinger 2001-2019
</metadata>
<g transform="translate(0.000000,149.000000) scale(0.100000,-0.100000)"
fill="#000000" stroke="none">
<path d="M1905 1484 c-11 -2 -157 -13 -325 -24 -168 -11 -334 -25 -370 -30
-272 -41 -564 -60 -932 -61 -10 0 -20 -4 -23 -10 -4 -5 -19 -9 -34 -9 -32 0
-48 -12 -86 -62 -27 -37 -27 -40 -20 -125 11 -133 8 -815 -5 -918 -17 -141
-18 -145 -48 -145 -15 0 -33 -4 -41 -9 -22 -14 -3 -31 34 -31 29 0 34 -4 37
-27 4 -38 30 -36 47 5 14 30 18 32 65 32 28 0 57 -4 64 -9 7 -4 32 -4 55 0
141 28 310 49 432 54 77 3 199 10 270 15 72 5 204 12 295 16 91 4 173 11 183
16 9 5 90 13 180 18 89 5 198 14 242 19 131 15 229 24 250 21 36 -4 59 -2 120
8 73 13 184 24 285 27 41 1 91 5 110 8 40 7 158 19 210 21 20 1 45 -5 59 -16
13 -10 27 -16 31 -13 5 3 -2 89 -11 132 -1 4 1 15 5 24 8 18 0 785 -9 920 -6
78 -9 88 -31 99 -16 9 -20 16 -13 21 7 4 9 14 6 23 -6 15 -53 16 -509 15 -277
-1 -512 -4 -523 -5z m1012 -101 c-3 -10 -5 -4 -5 12 0 17 2 24 5 18 2 -7 2
-21 0 -30z m-1562 -78 c2 -44 6 -109 8 -143 3 -51 0 -69 -16 -88 -49 -63 -73
0 -63 170 7 124 16 149 48 144 17 -3 20 -14 23 -83z m-380 36 c-3 -6 -11 -11
-17 -11 -6 0 -6 6 2 15 14 17 26 13 15 -4z m1219 -30 c16 -16 27 -34 25 -40
-4 -12 -79 45 -79 60 0 18 27 8 54 -20z m356 10 c0 -28 -37 -164 -57 -211
l-24 -55 6 85 c6 101 21 160 43 178 19 14 32 16 32 3z m-210 -141 c26 -38 100
-199 100 -219 0 -9 4 -21 10 -27 16 -16 49 -160 60 -259 6 -49 17 -113 25
-141 8 -28 17 -80 20 -115 3 -35 8 -74 11 -87 4 -19 0 -22 -31 -22 l-35 0 0
73 c-1 119 -18 257 -45 347 -14 47 -36 141 -51 210 -20 97 -36 147 -75 224
-48 96 -70 160 -28 81 12 -22 29 -51 39 -65z m-1290 30 c0 -5 -2 -10 -4 -10
-3 0 -8 5 -11 10 -3 6 -1 10 4 10 6 0 11 -4 11 -10z m8 -132 c29 -59 34 -81
39 -169 4 -78 2 -100 -7 -97 -34 11 -110 223 -110 306 0 29 3 33 23 30 16 -2
31 -21 55 -70z m1159 60 c43 -18 83 -59 83 -85 0 -20 3 -22 19 -13 11 5 22 10
25 10 10 0 7 -58 -3 -64 -5 -3 -40 10 -78 29 -50 26 -75 47 -95 77 -15 23 -24
46 -22 50 7 12 39 10 71 -4z m113 -52 c0 -5 -7 -3 -15 4 -8 7 -15 22 -15 34 1
20 2 20 15 -4 8 -14 14 -29 15 -34z m-629 17 c16 -10 28 -22 26 -28 -3 -9
-170 -29 -190 -22 -5 1 11 17 35 34 49 36 86 41 129 16z m-179 -11 c-76 -57
-102 -79 -147 -120 -28 -26 -68 -61 -88 -79 -39 -34 -181 -186 -209 -225 -81
-109 -109 -146 -125 -163 -11 -11 -35 -43 -54 -70 -19 -28 -60 -85 -92 -127
-31 -43 -57 -81 -57 -84 0 -21 -44 -64 -66 -64 -25 0 -25 0 -7 25 10 13 23 23
30 22 6 -1 40 39 75 90 35 50 98 143 140 205 43 62 103 142 134 177 30 35 63
76 72 90 9 14 35 42 57 61 22 19 58 53 80 75 57 57 141 127 205 169 55 36 95
50 52 18z m1206 -28 c16 -33 0 -96 -36 -146 -15 -20 -45 -62 -67 -94 -22 -31
-50 -68 -62 -83 l-22 -26 -1 28 c0 15 4 27 8 27 4 0 13 37 20 83 27 171 122
296 160 211z m-1371 -30 c-3 -3 -12 -4 -19 -1 -8 3 -5 6 6 6 11 1 17 -2 13 -5z
m-47 -34 c0 -5 -4 -10 -10 -10 -5 0 -10 5 -10 10 0 6 5 10 10 10 6 0 10 -4 10
-10z m537 -62 c-3 -8 -6 -5 -6 6 -1 11 2 17 5 13 3 -3 4 -12 1 -19z m-1067 -7
c0 -11 17 -41 38 -68 53 -68 66 -91 85 -147 16 -48 23 -116 11 -116 -3 0 -22
10 -43 22 -62 35 -144 204 -127 260 3 7 7 25 10 41 7 31 26 37 26 8z m1482
-80 c29 -17 71 -46 92 -66 21 -19 40 -35 42 -35 2 0 1 15 -3 33 -3 17 -3 29 1
25 8 -6 36 -131 31 -136 -3 -3 -99 43 -140 67 -16 10 -31 28 -33 40 -3 17 -9
22 -23 18 -10 -3 -19 -1 -19 4 0 5 -5 9 -11 9 -15 0 -48 42 -49 61 0 35 20 32
112 -20z m-698 20 c11 -12 16 -31 14 -51 -3 -28 -9 -34 -47 -47 -38 -13 -54
-13 -105 -2 -34 7 -64 17 -68 23 -5 8 -8 7 -8 -1 0 -24 -18 -13 -29 17 -9 26
-8 32 7 37 9 3 31 11 47 18 52 22 59 23 116 24 43 1 60 -3 73 -18z m1112 -39
c-18 -16 -18 -16 -6 6 6 13 14 21 18 18 3 -4 -2 -14 -12 -24z m181 6 c-3 -8
-6 -5 -6 6 -1 11 2 17 5 13 3 -3 4 -12 1 -19z m-2221 -152 c10 -22 29 -61 43
-86 32 -56 81 -178 77 -193 -2 -7 -1 -8 2 -4 2 5 10 -1 18 -12 13 -17 11 -26
-18 -80 -18 -34 -35 -61 -40 -61 -9 0 11 58 23 66 22 13 6 44 -42 80 -55 43
-97 100 -152 213 -38 76 -47 134 -27 172 10 18 13 17 55 -17 24 -20 51 -55 61
-78z m2159 57 c-3 -27 -17 -71 -29 -98 -26 -57 -93 -155 -107 -155 -5 0 -22
-19 -39 -42 l-30 -41 0 39 c0 21 -3 49 -6 62 -5 15 -2 22 9 22 12 0 57 83 57
105 0 17 87 128 109 140 40 22 44 18 36 -32z m-1410 -93 c53 -26 56 -56 5 -78
-19 -8 -52 -14 -73 -13 -66 2 -181 32 -205 54 l-22 21 32 13 c18 8 44 11 60 8
15 -4 35 -2 45 4 30 17 113 13 158 -9z m-405 -19 c0 -12 -20 -25 -27 -18 -7 7
6 27 18 27 5 0 9 -4 9 -9z m1320 -71 c60 -31 117 -78 123 -102 4 -12 10 -17
17 -13 7 4 9 18 6 31 -4 14 -2 24 4 24 6 0 10 -27 10 -64 0 -58 -2 -64 -22
-70 -15 -4 -46 6 -88 26 -70 34 -190 123 -190 140 0 6 -7 16 -17 23 -54 40 80
44 157 5z m-1904 -69 c50 -49 111 -115 135 -147 24 -33 49 -62 55 -66 6 -4 19
-25 29 -48 21 -46 30 -50 40 -17 3 12 9 17 11 10 3 -6 -2 -23 -12 -37 -20 -31
-49 -35 -41 -6 4 15 0 20 -13 20 -11 0 -45 24 -77 53 -32 29 -93 79 -136 111
-121 91 -148 131 -131 194 11 41 45 25 140 -67z m887 -50 c15 -6 48 -28 73
-48 40 -34 43 -39 27 -50 -26 -20 -65 -16 -165 17 -50 17 -102 30 -117 30 -14
0 -39 7 -55 15 -15 8 -35 15 -44 15 -24 0 -2 17 38 29 42 13 203 7 243 -8z
m-200 -216 c49 -10 56 -23 15 -30 -39 -6 -332 -25 -336 -21 -11 12 17 36 48
41 126 21 204 24 273 10z"/>
<path d="M2740 51 c-81 -18 -133 -21 -555 -37 -93 -3 -172 -8 -174 -10 -2 -2
208 -4 467 -4 413 0 472 2 472 15 0 8 7 15 15 15 8 0 15 8 15 18 0 16 -10 18
-77 20 -45 0 -115 -7 -163 -17z"/>
<path d="M1968 3 c7 -3 16 -2 19 1 4 3 -2 6 -13 5 -11 0 -14 -3 -6 -6z"/>
</g>
</svg>
