<?xml version="1.0" standalone="no"?>
<!DOCTYPE svg PUBLIC "-//W3C//DTD SVG 20010904//EN"
 "http://www.w3.org/TR/2001/REC-SVG-20010904/DTD/svg10.dtd">
<svg version="1.0" xmlns="http://www.w3.org/2000/svg"
 width="250.000000pt" height="312.000000pt" viewBox="0 0 250.000000 312.000000"
 preserveAspectRatio="xMidYMid meet">
<metadata>
Created by potrace 1.16, written by Peter Selinger 2001-2019
</metadata>
<g transform="translate(0.000000,312.000000) scale(0.100000,-0.100000)"
fill="#000000" stroke="none">
<path d="M1779 3106 c-2 -3 -45 -7 -94 -10 -207 -11 -290 -28 -236 -48 43 -16
20 -27 -50 -23 -79 3 -107 15 -36 15 25 0 49 5 52 10 10 16 -195 13 -226 -4
-14 -7 -41 -12 -60 -11 -45 3 -80 -5 -73 -16 3 -5 2 -9 -3 -9 -4 0 -7 -21 -6
-47 3 -49 -1 -49 -11 0 -8 32 -26 27 -26 -8 0 -13 -4 -26 -8 -29 -4 -2 -7 -33
-5 -68 2 -65 -4 -101 -15 -94 -4 2 -8 -17 -9 -43 -3 -62 -36 -194 -41 -162 -2
13 1 42 7 65 17 70 26 200 13 192 -7 -4 -12 -26 -12 -49 0 -31 -3 -38 -10 -27
-13 20 -13 137 0 145 6 4 10 -5 10 -19 0 -16 6 -26 14 -26 8 0 17 -6 19 -12 3
-7 6 1 6 19 1 17 -5 34 -11 36 -10 4 -10 8 1 15 10 7 12 22 8 56 -7 46 -7 46
24 46 35 0 59 40 30 52 -25 10 -81 9 -81 -2 0 -6 -12 -10 -27 -9 -41 2 -242
-10 -363 -22 -58 -6 -203 -12 -323 -13 -137 -2 -222 -7 -229 -14 -14 -14 -2
-32 22 -32 14 0 20 -10 25 -41 11 -64 15 -136 14 -242 0 -72 4 -105 15 -122
14 -21 13 -25 -4 -46 -22 -24 -29 -96 -8 -83 8 5 9 -2 5 -25 -4 -18 -3 -30 2
-27 5 3 14 -47 20 -112 7 -64 14 -129 16 -144 3 -16 1 -28 -4 -28 -12 0 -10
-204 3 -212 12 -8 17 -288 6 -323 -9 -30 0 -131 11 -114 6 10 9 6 9 -13 0 -16
-4 -28 -10 -28 -5 0 -7 -12 -4 -27 5 -31 11 -85 19 -186 4 -38 11 -80 16 -95
7 -17 6 -29 -1 -36 -16 -16 -12 -86 5 -92 8 -4 16 -18 16 -33 1 -26 1 -26 9 4
4 17 8 48 9 70 1 22 13 67 27 100 14 33 22 47 19 30 -4 -16 -10 -52 -15 -80
-5 -27 -13 -63 -19 -78 -16 -42 -14 -77 5 -77 10 0 14 5 10 15 -3 8 -1 28 5
43 15 39 49 172 49 193 0 10 6 22 14 26 8 4 19 26 25 48 11 46 53 162 80 220
10 22 35 85 56 140 20 55 52 129 70 165 18 36 45 90 60 120 14 30 35 69 45 85
27 44 61 117 56 122 -5 5 -40 -49 -66 -100 -23 -45 -23 -15 0 34 29 64 57 111
77 128 12 11 14 11 5 2 -16 -19 -15 -41 1 -41 7 0 24 19 37 43 27 49 91 141
102 145 4 2 29 36 55 75 26 40 61 88 78 108 16 20 41 51 55 70 14 18 32 40 40
48 9 9 27 32 42 51 14 19 59 70 100 113 74 77 75 78 115 71 32 -5 40 -3 40 10
0 11 -8 15 -21 14 -34 -5 -32 15 5 40 29 20 97 74 134 107 17 16 54 35 66 35
7 0 17 6 23 14 6 8 32 18 59 21 42 7 47 5 41 -10 -6 -14 -1 -16 26 -13 36 3
54 27 23 30 -10 1 7 4 37 7 30 3 55 10 55 16 0 10 -28 19 -36 11z m-254 -46
c4 -6 -6 -10 -22 -9 -25 0 -26 1 -8 9 11 5 21 9 22 9 1 1 5 -3 8 -9z m-379
-83 c-3 -16 -6 -42 -6 -58 0 -16 -4 -29 -10 -29 -6 0 -10 26 -10 58 0 47 3 59
16 59 12 0 14 -7 10 -30z m49 13 c8 -24 -3 -88 -22 -120 -13 -23 -13 -21 -7
30 3 30 12 58 18 62 8 6 7 8 -1 8 -7 0 -13 9 -13 20 0 26 17 26 25 0z m-101
-37 c-3 -69 -3 -73 -11 -73 -5 0 -6 27 -5 60 4 71 18 82 16 13z m-306 -45 l-2
-83 -3 78 c-6 135 -23 86 -24 -70 -1 -106 -4 -137 -10 -108 -4 22 -8 57 -8 78
-1 26 -5 36 -13 31 -8 -5 -9 6 -5 41 4 26 7 63 7 81 0 31 3 34 30 34 l30 0 -2
-82z m62 69 c0 -8 -3 -17 -7 -21 -4 -3 -6 -29 -4 -56 1 -31 -2 -50 -8 -50 -6
0 -11 11 -11 24 0 13 -3 44 -6 70 -6 42 -5 46 15 46 11 0 21 -6 21 -13z m90
-26 c0 -22 -4 -43 -10 -46 -6 -4 -10 8 -10 29 0 20 -4 36 -10 36 -12 0 -12
-11 -12 -145 1 -91 0 -97 -12 -71 -9 20 -15 25 -19 15 -3 -8 -6 21 -6 64 -1
45 3 77 9 77 6 0 10 18 10 40 0 38 2 40 30 40 28 0 30 -2 30 -39z m277 -62
l-15 -34 5 45 c2 25 7 56 11 70 6 22 7 21 10 -11 2 -20 -3 -52 -11 -70z m-659
21 c2 -44 6 -60 12 -50 7 11 10 6 10 -18 0 -18 4 -31 8 -28 5 3 6 25 3 48 -9
61 -2 120 12 115 8 -3 11 -29 9 -85 -2 -49 1 -82 7 -82 9 0 18 43 24 125 3 37
5 40 35 43 l33 3 -7 -118 c-4 -65 -8 -120 -10 -122 -2 -2 -4 34 -4 80 0 91 -7
132 -21 123 -5 -3 -6 -52 -2 -109 6 -108 -5 -176 -17 -100 -6 39 -7 40 -18 15
l-12 -25 5 28 c3 15 1 27 -5 27 -5 0 -10 -12 -11 -27 0 -16 -3 -21 -6 -13 -2
8 -7 22 -9 30 -5 13 -6 13 -14 0 -13 -20 -13 -140 0 -140 6 0 10 11 10 24 0
14 5 28 10 31 12 7 13 -14 4 -78 -4 -26 -11 -44 -15 -41 -5 3 -7 9 -4 14 3 5
1 11 -4 15 -6 3 -13 -10 -17 -30 -5 -27 -2 -41 12 -57 16 -17 19 -35 17 -113
-2 -76 1 -92 13 -92 11 0 14 7 10 23 -9 36 4 84 24 84 33 0 17 -141 -19 -170
-4 -3 -12 -16 -18 -30 -14 -31 -16 -7 -4 37 12 43 -4 52 -18 11 -15 -42 -15
-101 0 -92 7 4 9 2 5 -7 -3 -8 -9 -22 -12 -31 -4 -10 -11 -18 -17 -18 -6 0 -7
22 -3 63 21 178 24 355 5 326 -6 -9 -9 4 -9 36 0 28 -5 57 -10 65 -7 11 -10
-3 -10 -47 0 -38 -4 -63 -12 -65 -7 -3 -14 -37 -17 -85 -8 -105 -21 -118 -21
-22 0 41 5 80 10 85 6 6 14 43 19 83 7 51 15 77 28 86 17 13 17 14 1 15 -19 0
-26 30 -8 30 6 0 10 13 10 28 0 15 4 32 9 37 5 6 12 21 16 33 6 21 4 23 -17
17 -12 -3 -18 -3 -12 2 12 8 17 114 8 146 -10 33 -24 6 -24 -46 0 -69 -10
-128 -21 -121 -5 3 -9 43 -9 90 0 134 -16 89 -24 -67 -9 -170 -24 -224 -27
-99 -3 105 -3 105 8 160 9 50 6 90 -7 90 -5 0 -11 -17 -13 -37 -3 -35 -4 -35
-5 9 l-2 47 48 4 c90 7 87 9 90 -63z m-321 25 c6 -19 9 -45 6 -57 -3 -13 -3
-20 0 -17 4 3 11 23 16 45 l9 39 1 -37 c1 -53 21 -47 21 6 0 42 1 44 38 50 78
13 76 15 68 -67 -7 -79 -10 -95 -24 -142 -10 -32 0 -75 18 -75 5 0 10 16 10
36 0 22 4 33 11 29 6 -4 9 -24 8 -44 -2 -20 0 -41 3 -46 3 -6 0 -23 -7 -40 -8
-17 -14 -23 -14 -13 -1 11 -7 15 -21 11 -15 -4 -18 -9 -10 -18 5 -6 7 -15 3
-18 -14 -15 -23 -6 -23 24 0 17 -4 28 -10 24 -6 -3 -10 3 -10 14 0 10 4 21 9
23 11 4 21 87 11 93 -11 7 -27 -41 -35 -102 -4 -41 -3 -53 8 -53 9 0 14 -14
15 -40 1 -22 -3 -40 -8 -40 -6 0 -9 3 -9 8 1 4 0 14 -1 22 -2 8 -6 -5 -9 -29
-8 -62 -31 -67 -31 -7 0 25 3 46 8 46 9 0 13 83 6 128 -8 51 -24 37 -24 -21 0
-30 -3 -88 -6 -130 l-7 -77 -33 0 c-24 0 -34 5 -34 15 0 12 4 13 19 5 11 -5
22 -10 24 -10 2 0 7 60 10 132 4 76 11 134 17 136 5 2 10 17 10 34 l0 31 -20
-26 c-15 -19 -20 -42 -21 -94 -1 -73 -15 -212 -17 -177 -1 13 -11 24 -24 28
-17 4 -20 8 -10 15 24 15 45 161 23 161 -14 0 -21 -28 -21 -88 0 -36 -4 -52
-9 -43 -5 7 -6 22 -3 34 3 13 1 18 -6 13 -13 -8 -6 44 9 59 14 14 11 25 -6 25
-10 0 -16 11 -17 30 -1 17 -2 42 -4 58 -4 52 -6 127 -4 137 5 21 18 -52 19
-103 1 -33 5 -51 11 -47 6 4 8 10 5 16 -3 5 -1 36 5 70 10 55 10 63 -5 72 -14
8 -15 11 -4 18 31 19 55 10 66 -26z m1073 -12 c0 -5 -5 -15 -10 -23 -8 -12
-10 -11 -10 8 0 12 5 22 10 22 6 0 10 -3 10 -7z m-263 -90 c0 -38 -1 -59 -4
-48 -2 11 -9 37 -15 58 -10 32 -9 40 3 48 8 5 14 9 15 9 1 0 1 -30 1 -67z m86
17 c-7 -28 -13 -25 -13 6 0 14 4 23 9 20 5 -3 7 -15 4 -26z m138 7 c-10 -9
-11 -8 -5 6 3 10 9 15 12 12 3 -3 0 -11 -7 -18z m-854 -34 c-3 -10 -5 -2 -5
17 0 19 2 27 5 18 2 -10 2 -26 0 -35z m664 -16 c-13 -13 -15 11 -4 40 7 16 8
15 11 -6 2 -13 -1 -28 -7 -34z m163 19 c-21 -15 -30 -14 -19 3 3 6 14 11 23
11 13 0 13 -2 -4 -14z m-404 -31 c0 -21 -6 -37 -16 -43 -10 -6 -14 -14 -9 -22
6 -9 9 -9 16 1 6 10 9 8 9 -8 0 -13 -4 -23 -9 -23 -4 0 -11 -41 -14 -91 -3
-50 -10 -96 -16 -103 -12 -15 -18 -127 -8 -176 4 -19 4 -29 1 -22 -8 17 -22
15 -28 -5 -3 -10 -3 -4 0 12 3 17 5 48 3 70 -3 61 -2 86 6 130 5 28 4 37 -3
30 -6 -5 -12 -21 -15 -35 -2 -14 -5 10 -6 52 -1 62 3 84 19 110 22 36 23 33
11 -30 -7 -37 -6 -44 12 -53 20 -11 20 -9 13 94 -5 71 -4 113 4 126 16 31 30
25 30 -14z m190 -80 c6 -17 -11 -74 -24 -82 -8 -5 -17 -19 -21 -32 -5 -16 -4
-21 4 -17 15 10 14 1 -4 -33 -8 -16 -12 -31 -9 -34 3 -3 -7 -24 -23 -47 -15
-24 -36 -54 -45 -69 -12 -17 -18 -20 -18 -11 0 9 4 20 9 25 24 25 73 140 75
176 2 23 9 44 15 48 7 4 15 47 19 97 6 84 7 86 13 39 3 -27 7 -54 9 -60z m180
74 c0 -7 -11 -22 -25 -35 -14 -13 -25 -19 -25 -15 0 5 7 14 15 21 9 7 13 15
10 18 -3 3 -14 -3 -25 -13 -19 -18 -20 -17 -20 2 0 11 3 23 7 26 11 12 63 8
63 -4z m-479 -65 c1 -16 -4 -48 -11 -72 -14 -43 -7 -68 11 -42 7 11 9 -11 6
-72 -2 -55 -8 -93 -18 -104 -8 -10 -14 -40 -14 -75 0 -35 -6 -64 -13 -71 -11
-11 -13 1 -9 64 3 42 8 81 12 87 3 6 12 42 19 81 10 52 11 70 2 67 -6 -2 -14
-17 -18 -33 -7 -29 -6 2 8 160 7 78 18 82 25 10z m389 26 c0 -5 -4 -10 -10
-10 -5 0 -10 5 -10 10 0 6 5 10 10 10 6 0 10 -4 10 -10z m-253 -62 c-5 -64 5
-118 17 -88 3 8 12 42 21 75 14 57 14 58 11 15 -5 -69 -29 -214 -35 -220 -4
-3 -12 -16 -18 -30 -10 -21 -11 -16 -7 35 5 57 4 59 -9 30 l-14 -30 3 45 c11
139 23 230 32 230 2 0 2 -28 -1 -62z m-351 30 c-3 -13 -8 -45 -12 -73 -5 -27
-9 -54 -10 -60 -1 -5 -2 -17 -3 -25 -2 -23 -48 -41 -61 -24 -15 17 -9 56 9 62
9 3 11 -2 6 -17 -3 -11 -2 -21 3 -21 10 0 38 120 36 158 -1 15 5 22 18 22 14
0 17 -6 14 -22z m584 -9 c-7 -11 -14 -18 -17 -15 -3 3 0 12 7 21 18 21 23 19
10 -6z m-988 -56 c0 -15 5 -37 10 -48 6 -11 7 -17 3 -13 -5 4 -14 3 -20 -2 -9
-8 -12 5 -13 51 -1 44 2 59 10 51 6 -6 10 -23 10 -39z m520 -5 c-6 -6 -7 0 -4
19 5 21 7 23 10 9 2 -10 0 -22 -6 -28z m34 -60 c-4 -35 -10 -80 -13 -102 l-6
-39 -18 37 c-13 28 -16 50 -12 92 6 53 7 55 19 33 l13 -24 1 26 c0 24 7 39 18
39 3 0 2 -28 -2 -62z m389 33 c-21 -42 -37 -50 -29 -14 9 38 13 43 30 43 13 0
13 -4 -1 -29z m-897 -121 c6 -19 11 -62 11 -95 1 -33 4 -71 7 -85 10 -44 1
-196 -13 -210 -2 -3 -3 38 0 90 2 52 0 107 -6 123 -5 15 -10 46 -11 70 -1 28
-5 41 -13 40 -12 -3 -20 45 -13 72 2 6 5 23 8 40 5 33 8 30 30 -45z m755 -11
c-6 -6 -7 3 -4 23 4 28 6 29 9 9 2 -13 0 -27 -5 -32z m-533 31 c0 -5 -5 -10
-11 -10 -5 0 -7 5 -4 10 3 6 8 10 11 10 2 0 4 -4 4 -10z m1 -104 c5 -6 9 0 9
17 0 15 5 27 10 27 6 0 10 -43 10 -110 0 -95 -2 -109 -16 -103 -13 5 -15 20
-12 79 2 41 0 74 -4 74 -10 0 -9 8 -14 -92 -3 -52 -1 -88 4 -88 13 0 22 -39
11 -46 -5 -3 -9 0 -9 5 0 16 -24 9 -31 -9 -4 -8 -4 57 -1 145 3 100 9 163 16
167 7 5 12 -4 14 -25 2 -17 8 -36 13 -41z m169 -31 c0 -88 -18 -225 -31 -241
-8 -9 -9 -29 -4 -57 11 -64 8 -103 -10 -131 -19 -29 -35 -34 -35 -10 0 8 5 12
10 9 6 -3 15 6 20 20 13 34 13 78 0 70 -5 -3 -10 -22 -10 -41 0 -19 -4 -34 -9
-34 -4 0 -7 15 -5 34 2 35 31 277 39 331 3 17 8 54 11 83 9 69 24 48 24 -33z
m-232 19 c5 -57 -9 -225 -18 -219 -4 2 -5 16 -2 30 2 14 0 25 -7 25 -6 0 -9
16 -6 43 6 59 -10 81 -18 25 -3 -24 -9 -52 -13 -61 -4 -11 -1 -17 9 -17 18 0
28 -79 15 -125 -4 -16 -8 -60 -8 -97 0 -43 -4 -68 -11 -68 -7 0 -10 21 -9 58
1 31 2 64 1 72 -1 18 -18 2 -24 -25 -2 -11 -3 -4 -1 16 2 20 7 89 10 155 4 65
12 133 20 149 8 19 13 24 13 13 1 -10 6 -18 11 -18 6 0 10 21 10 46 0 57 23
56 28 -2z m134 5 c-3 -24 0 -44 7 -48 7 -5 4 -19 -10 -47 l-20 -39 5 85 c5 99
4 90 14 90 4 0 6 -19 4 -41z m284 -80 l-16 -34 6 45 c3 25 8 54 12 65 6 16 7
14 10 -11 2 -17 -4 -47 -12 -65z m-626 34 c-11 -17 -11 -17 -6 0 3 10 7 26 7
35 1 15 2 15 6 0 2 -10 -1 -25 -7 -35z m720 10 c-11 -17 -11 -17 -6 0 3 10 6
24 7 30 0 9 2 9 5 0 3 -7 0 -20 -6 -30z m-600 -45 c0 -90 -21 -220 -38 -238
-13 -13 -14 -12 -9 10 14 60 29 204 25 245 -2 31 1 45 9 45 9 0 13 -19 13 -62z
m247 -108 c-11 -59 -22 -58 -18 2 2 46 8 61 20 53 5 -2 4 -27 -2 -55z m230 38
c-3 -8 -6 -5 -6 6 -1 11 2 17 5 13 3 -3 4 -12 1 -19z m43 -32 c0 -22 -39 -51
-51 -39 -8 8 -5 14 10 22 12 7 21 19 21 27 0 8 5 12 10 9 6 -3 10 -12 10 -19z
m-310 -6 c0 -5 -4 -10 -10 -10 -5 0 -10 5 -10 10 0 6 5 10 10 10 6 0 10 -4 10
-10z m-59 -103 c-8 -8 -11 -5 -11 9 0 27 14 41 18 19 2 -9 -1 -22 -7 -28z m84
33 c-3 -5 -7 -43 -7 -85 -1 -41 -6 -75 -10 -75 -4 0 -8 16 -8 35 0 19 -4 35
-10 35 -5 0 -10 7 -10 15 0 8 4 15 9 15 5 0 12 16 15 35 4 19 11 35 17 35 6 0
7 -4 4 -10z m174 -34 c-9 -8 -10 -7 -5 7 3 10 7 24 7 30 1 7 3 4 6 -7 3 -10
-1 -23 -8 -30z m-313 -18 c-3 -29 -6 -71 -7 -93 -1 -22 -3 -32 -6 -22 -2 9 -9
17 -14 17 -11 0 -12 37 0 44 4 3 11 28 15 56 9 67 20 65 12 -2z m244 -57 c-6
-12 -15 -21 -21 -21 -6 0 -2 14 8 30 19 33 31 24 13 -9z m-194 7 c-3 -13 -7
-48 -11 -78 -10 -91 -17 -119 -29 -117 -14 3 -28 49 -17 57 5 3 9 7 9 10 -2
31 17 137 26 142 20 13 27 9 22 -14z m-187 -43 l0 -20 -9 20 c-5 11 -9 29 -9
40 l0 20 9 -20 c5 -11 9 -29 9 -40z m27 -229 c-7 -28 -14 -58 -14 -66 0 -46
-16 -201 -21 -204 -3 -2 -6 49 -6 113 0 87 4 122 14 135 16 19 23 117 10 138
-6 8 -9 -1 -10 -27 0 -22 -5 -51 -9 -65 -6 -18 -8 -6 -9 45 l-1 70 -21 -25
-21 -25 5 25 c2 14 8 34 12 44 6 14 5 17 -3 12 -7 -4 -12 -1 -12 9 0 9 5 13
10 10 6 -3 10 2 10 12 0 14 2 15 9 4 5 -7 13 -11 19 -7 6 3 8 -1 5 -12 -2 -10
3 -24 11 -31 14 -12 16 -9 16 26 0 22 3 43 8 47 14 15 13 -175 -2 -228z m65
-106 c-9 -54 -9 -54 -10 36 0 50 2 133 7 185 l7 94 3 -130 c1 -72 -2 -155 -7
-185z m141 135 l-6 -30 -6 35 c-3 19 -3 55 -1 80 l5 45 7 -50 c3 -27 4 -63 1
-80z m83 96 c-3 -12 -10 -21 -15 -21 -5 0 -4 11 2 25 13 29 23 26 13 -4z
m-118 -23 c-3 -7 -5 -2 -5 12 0 14 2 19 5 13 2 -7 2 -19 0 -25z m-130 -35 c-3
-10 -5 -4 -5 12 0 17 2 24 5 18 2 -7 2 -21 0 -30z m81 -112 c-4 -36 -12 -69
-18 -75 -5 -5 -11 -19 -11 -30 -1 -17 -2 -17 -6 -4 -2 9 1 27 8 40 7 14 12 55
11 103 -2 71 -1 77 11 55 9 -18 11 -43 5 -89z m-91 37 c-3 -8 -6 -5 -6 6 -1
11 2 17 5 13 3 -3 4 -12 1 -19z m133 -54 c0 -8 -5 -12 -10 -9 -6 4 -8 11 -5
16 9 14 15 11 15 -7z m-155 -109 l-14 -50 4 60 c2 33 8 71 12 85 16 49 14 -41
-2 -95z m192 80 c-15 -16 -22 -11 -13 10 3 9 10 13 16 10 6 -4 5 -11 -3 -20z
m-52 -24 c3 -5 1 -12 -5 -16 -5 -3 -10 1 -10 9 0 18 6 21 15 7z m-98 -73 c-3
-8 -6 -5 -6 6 -1 11 2 17 5 13 3 -3 4 -12 1 -19z m49 -10 c-10 -5 -17 -24 -17
-46 -2 -32 -3 -33 -6 -8 -7 44 4 76 23 69 15 -5 15 -7 0 -15z m105 -16 c-6
-12 -11 -30 -11 -41 0 -11 -4 -23 -10 -26 -6 -4 -7 6 -3 27 7 38 22 72 30 65
2 -3 0 -14 -6 -25z m-216 -160 c-13 -13 -16 12 -8 75 l8 68 3 -69 c2 -37 0
-71 -3 -74z m90 46 c-10 -70 -27 -139 -32 -134 -3 3 0 27 6 53 9 41 17 84 20
116 1 4 4 7 7 7 3 0 3 -19 -1 -42z m57 -51 c-17 -34 -33 -69 -36 -77 -3 -8 -3
-1 0 15 4 17 10 45 13 64 3 19 11 32 16 30 6 -2 15 11 20 30 6 21 11 28 13 17
2 -9 -10 -44 -26 -79z m-88 -129 c4 -17 2 -28 -4 -28 -5 0 -10 14 -10 32 0 36
4 35 14 -4z"/>
<path d="M871 2874 c0 -11 3 -14 6 -6 3 7 2 16 -1 19 -3 4 -6 -2 -5 -13z"/>
<path d="M361 2915 l1 -50 9 39 c6 26 6 43 -1 50 -7 7 -10 -6 -9 -39z"/>
<path d="M315 2940 c-9 -14 6 -81 16 -74 12 7 12 71 0 79 -5 3 -12 1 -16 -5z"/>
<path d="M205 2898 c-3 -9 -1 -27 6 -40 10 -17 14 -19 16 -7 2 8 0 26 -6 40
-7 20 -10 21 -16 7z"/>
<path d="M348 2815 c-5 -25 3 -40 16 -28 9 10 7 53 -3 53 -5 0 -11 -11 -13
-25z"/>
<path d="M241 2814 c0 -11 3 -14 6 -6 3 7 2 16 -1 19 -3 4 -6 -2 -5 -13z"/>
<path d="M290 2746 c0 -8 5 -18 10 -21 6 -3 10 3 10 14 0 12 -4 21 -10 21 -5
0 -10 -6 -10 -14z"/>
<path d="M160 2740 c0 -5 5 -10 11 -10 5 0 7 5 4 10 -3 6 -8 10 -11 10 -2 0
-4 -4 -4 -10z"/>
<path d="M861 2564 c0 -11 3 -14 6 -6 3 7 2 16 -1 19 -3 4 -6 -2 -5 -13z"/>
<path d="M127 2507 c-3 -8 -1 -20 4 -28 6 -10 9 -7 9 14 0 29 -5 35 -13 14z"/>
<path d="M250 2149 c0 -31 4 -48 10 -44 6 3 10 26 10 51 0 24 -4 44 -10 44 -5
0 -10 -23 -10 -51z"/>
<path d="M1880 3101 c-21 -4 -34 -12 -32 -20 2 -8 -4 -10 -18 -6 -11 4 -20 2
-20 -4 0 -6 -11 -11 -25 -11 -32 0 -32 -12 0 -27 14 -6 25 -8 25 -3 0 4 27 7
59 6 50 -1 59 -4 58 -18 -1 -10 -6 -18 -12 -18 -5 0 -65 -53 -133 -118 -67
-64 -122 -116 -122 -114 0 2 5 13 11 25 6 12 -2 7 -19 -13 -17 -19 -31 -40
-32 -46 0 -6 -18 -23 -40 -38 -22 -14 -40 -30 -40 -34 0 -14 -94 -104 -119
-113 -16 -6 -21 -14 -17 -25 4 -10 -3 -25 -16 -38 -46 -44 -205 -244 -228
-286 -12 -22 -15 -22 -18 -7 -5 26 -23 16 -55 -31 -16 -23 -33 -42 -38 -42 -6
0 -7 5 -4 10 12 19 -7 10 -26 -12 l-20 -23 6 25 c6 24 6 25 -10 5 -9 -12 -14
-29 -10 -43 3 -14 -2 -33 -13 -50 -11 -15 -23 -37 -26 -49 -11 -35 16 -19 38
22 11 19 23 35 28 35 12 0 10 -5 -13 -44 -11 -19 -18 -40 -15 -45 3 -5 -1 -11
-9 -15 -8 -3 -15 -14 -15 -26 0 -11 -15 -47 -34 -80 -26 -49 -34 -57 -39 -41
-3 12 1 22 9 25 8 3 14 14 14 23 0 10 9 26 20 36 20 17 27 37 12 37 -5 0 -15
-11 -22 -25 -14 -27 -36 -35 -26 -10 9 24 -8 18 -36 -12 -14 -16 -39 -39 -57
-53 -33 -26 -42 -46 -16 -36 20 7 19 -14 -1 -42 -8 -12 -13 -28 -11 -35 3 -6
11 3 18 21 8 17 17 32 21 32 4 0 8 6 8 13 0 15 50 90 56 84 3 -2 0 -16 -6 -31
-7 -20 -7 -25 2 -20 8 5 9 2 3 -12 -4 -10 -11 -36 -15 -57 -10 -49 -20 -59
-20 -18 0 19 -4 30 -10 26 -6 -3 -8 -27 -5 -53 4 -31 2 -42 -4 -33 -7 11 -13
6 -25 -23 -9 -21 -13 -42 -11 -47 3 -4 -3 -17 -15 -29 -11 -11 -20 -30 -20
-43 0 -13 -5 -28 -11 -34 -7 -7 -15 -29 -19 -50 -7 -36 -7 -37 -17 -14 -8 20
-11 21 -16 8 -4 -10 -2 -17 3 -17 13 0 3 -61 -16 -103 l-15 -32 7 35 6 35 -31
-35 -31 -35 25 59 c28 66 29 70 15 61 -13 -8 -45 -78 -56 -120 -5 -21 -8 -25
-11 -13 -5 22 -23 24 -23 2 0 -8 -4 -13 -9 -9 -10 5 -24 -25 -27 -60 -7 -65
-26 -160 -40 -197 -8 -24 -18 -51 -21 -60 -3 -9 -11 -14 -19 -11 -9 3 -14 -2
-14 -14 0 -10 -9 -26 -20 -36 -23 -20 -27 -42 -5 -33 20 7 21 -49 1 -61 -7 -4
-18 -18 -25 -30 -10 -20 -9 -23 6 -23 13 0 14 -3 5 -12 -7 -7 -12 -20 -12 -30
0 -10 -7 -18 -16 -18 -8 0 -22 -16 -30 -35 -18 -45 -18 -48 6 -42 16 4 20 0
20 -19 0 -15 -6 -24 -15 -24 -8 0 -15 -6 -15 -14 0 -9 7 -12 19 -9 19 5 33 28
67 111 9 23 18 41 20 40 1 -2 -6 -39 -16 -83 -23 -105 -52 -262 -55 -300 -1
-17 -6 -45 -10 -63 -6 -30 -10 -32 -47 -32 -32 0 -47 6 -69 30 -24 25 -29 38
-29 81 0 182 -9 479 -15 503 -5 19 -4 27 3 23 5 -4 12 0 16 8 3 8 0 15 -6 15
-7 0 -3 6 8 14 11 8 15 18 10 23 -5 4 -11 3 -13 -4 -2 -7 -11 -9 -18 -6 -11 3
-16 -6 -21 -36 -4 -23 -11 -41 -16 -41 -5 0 -7 -17 -4 -37 3 -21 5 -46 5 -56
1 -10 5 -16 10 -12 6 3 6 -8 1 -27 -12 -43 -15 -126 -6 -158 4 -14 11 -63 15
-110 6 -67 5 -91 -7 -115 -22 -43 -25 -104 -6 -112 11 -4 12 -9 3 -19 -30 -36
46 -65 155 -59 221 12 302 19 326 26 22 8 -77 4 -185 -6 -16 -2 -39 -1 -50 3
-17 5 -16 7 10 13 17 4 65 7 107 8 62 1 79 4 87 19 9 16 10 16 16 -1 7 -17 36
-17 97 -1 13 4 15 0 11 -18 l-5 -23 17 24 c15 20 23 22 59 16 60 -10 116 -12
116 -4 0 4 -6 9 -12 12 -7 2 21 2 62 0 68 -5 73 -4 61 11 -8 9 -11 20 -7 24 4
4 14 -2 22 -12 13 -18 15 -18 26 -4 11 14 46 17 221 23 203 6 208 5 198 -13
-14 -26 -5 -32 47 -32 35 0 43 3 38 15 -4 10 1 15 15 15 11 0 22 -7 25 -15 4
-10 15 -12 36 -8 22 4 33 2 40 -10 13 -23 45 -21 51 3 4 16 14 20 45 20 l41 0
-6 -37 c-4 -26 -3 -34 5 -29 7 4 12 20 12 36 0 36 3 38 81 46 35 4 66 9 69 13
3 3 27 6 55 6 40 0 50 3 53 19 3 16 -2 18 -42 15 -38 -3 -46 -1 -46 13 0 9 -6
19 -12 22 -7 3 2 3 20 0 31 -5 44 7 22 21 -5 3 -10 11 -10 16 0 6 5 7 12 3 7
-4 23 -9 36 -10 31 -4 33 -6 41 -45 7 -34 28 -50 35 -27 3 7 7 31 11 52 4 24
10 35 14 27 10 -15 41 -4 41 15 0 8 5 14 10 14 6 0 10 10 10 22 0 17 -3 19
-12 10 -18 -18 -28 -15 -28 8 0 27 -18 25 -23 -2 -4 -22 -4 -22 -6 2 -1 20 -3
22 -11 10 -8 -12 -10 -11 -10 6 0 13 -8 24 -19 27 -15 3 -24 -3 -35 -27 -24
-48 -20 -4 5 66 23 62 35 74 19 18 -5 -19 -7 -36 -4 -39 8 -8 24 21 25 49 2
24 2 24 6 3 2 -13 9 -23 15 -23 8 0 9 26 5 82 -4 46 -7 98 -7 116 0 22 -4 31
-11 26 -8 -5 -10 21 -5 92 3 55 2 113 -3 129 -8 26 -10 21 -11 -35 -1 -36 -4
-57 -7 -47 -2 9 -9 17 -13 17 -9 0 -6 55 6 108 2 12 -1 41 -8 63 -9 32 -9 42
0 48 13 8 32 174 31 261 -1 37 -2 41 -9 20 -4 -14 -9 -50 -10 -80 -5 -129 -18
-107 -19 33 -1 96 -5 146 -11 142 -6 -4 -10 -90 -10 -223 -1 -151 -4 -212 -11
-200 -5 10 -11 44 -14 75 -2 32 -6 65 -8 73 -10 30 -16 163 -8 179 12 22 20
162 10 155 -5 -3 -9 -28 -9 -56 0 -28 -3 -49 -6 -45 -4 3 -7 41 -7 84 0 43 -2
70 -4 61 -6 -23 -22 -23 -18 0 12 60 13 82 5 82 -6 0 -10 -11 -10 -25 0 -14
-5 -25 -11 -25 -7 0 -9 -9 -6 -22 7 -23 -15 -158 -31 -198 -10 -24 -11 -24
-12 10 0 44 -10 81 -19 76 -4 -3 -3 37 2 87 4 51 6 109 4 130 -3 20 -1 37 5
37 5 0 7 -4 3 -9 -6 -11 23 -43 35 -36 4 2 10 18 13 35 10 46 26 36 20 -12 -4
-29 -3 -39 5 -34 7 4 12 33 12 69 0 44 3 58 10 47 8 -12 10 -9 10 13 0 15 4
27 10 27 6 0 8 -23 5 -57 -13 -163 -14 -212 -5 -218 6 -3 11 6 11 22 l1 28 7
-29 c8 -40 27 -43 35 -5 7 36 -2 58 -15 38 -5 -9 -9 14 -9 58 0 39 -5 75 -10
78 -6 4 -7 13 -1 23 4 9 14 54 21 99 8 46 15 81 18 79 2 -2 5 -53 7 -113 3
-59 10 -147 16 -194 6 -48 10 -114 7 -148 -3 -38 0 -62 6 -64 7 -2 11 -42 10
-107 0 -57 1 -99 4 -92 2 7 8 10 13 6 13 -7 11 -62 -2 -66 -7 -2 -8 -14 -1
-38 7 -23 11 -28 12 -15 l1 20 9 -20 c5 -11 9 -54 10 -95 0 -51 4 -70 10 -59
5 9 5 66 -1 145 -24 304 -26 378 -13 398 12 17 13 17 17 -5 2 -13 5 63 6 169
1 137 -2 191 -10 186 -7 -4 -8 -27 -4 -66 10 -80 -9 -69 -24 14 -12 64 -22
506 -21 833 2 234 -25 465 -52 465 -6 0 -17 8 -25 18 -10 12 -16 14 -19 5 -7
-15 -70 -17 -79 -3 -7 11 -59 11 -115 1z m10 -35 c0 -2 -7 -6 -15 -10 -8 -3
-15 -1 -15 4 0 6 7 10 15 10 8 0 15 -2 15 -4z m185 -111 c0 -53 -4 -75 -12
-75 -10 0 -11 -18 -7 -72 l6 -73 -46 -34 c-25 -19 -46 -38 -46 -41 0 -4 -28
-36 -62 -71 -95 -98 -256 -277 -299 -334 -20 -27 -61 -75 -90 -105 -151 -158
-311 -421 -489 -802 -9 -21 -20 -35 -23 -32 -5 6 -50 -126 -62 -186 -4 -19
-11 -41 -15 -50 -8 -14 -39 -96 -100 -264 -16 -44 -33 -82 -38 -85 -5 -3 -12
-19 -16 -35 -4 -17 -15 -41 -25 -55 -28 -43 -44 -84 -29 -79 7 3 15 15 19 29
4 13 7 17 8 8 1 -9 -6 -36 -14 -60 -9 -24 -25 -91 -37 -149 -11 -58 -25 -110
-30 -117 -5 -7 -7 -17 -3 -23 4 -6 4 -23 0 -38 -5 -24 -13 -29 -58 -40 -64
-15 -124 -16 -129 -2 -2 6 -25 12 -50 14 -26 1 -50 5 -53 8 -3 2 0 27 6 54 5
27 10 62 9 78 -1 43 9 66 30 66 10 0 21 7 24 16 8 22 -3 33 -14 14 -15 -24
-23 -4 -9 22 7 12 14 25 14 28 0 3 6 15 13 28 15 26 5 29 -15 5 -13 -17 -14
-16 -8 7 3 14 15 63 26 110 30 131 38 158 76 255 60 157 86 220 100 236 7 8
13 25 13 36 0 12 15 54 34 94 18 41 41 92 51 114 25 59 68 153 153 335 9 19
22 41 29 48 7 7 13 19 13 26 0 7 14 33 30 60 17 26 47 77 67 114 38 70 98 159
198 296 33 45 68 93 77 108 18 27 72 85 311 331 67 69 135 142 151 162 15 20
41 41 57 47 16 5 29 14 29 18 0 5 19 22 43 39 23 16 57 43 75 60 18 17 41 31
50 31 9 0 24 5 32 10 25 16 35 -7 35 -85z m75 -167 c-1 -34 -3 -39 -11 -26 -8
15 -3 68 7 68 2 0 4 -19 4 -42z m-73 10 c-3 -8 -6 -5 -6 6 -1 11 2 17 5 13 3
-3 4 -12 1 -19z m13 -48 c0 -11 -2 -20 -4 -20 -2 0 -6 9 -9 20 -3 11 -1 20 4
20 5 0 9 -9 9 -20z m-20 -62 c1 -7 3 -39 6 -70 5 -44 2 -62 -11 -80 l-17 -23
8 25 c6 22 5 23 -10 11 -9 -7 -16 -17 -16 -21 0 -15 33 -21 42 -8 4 7 8 8 8 2
0 -15 -45 -56 -53 -47 -4 3 -7 0 -7 -7 0 -14 -32 -50 -192 -218 -53 -56 -106
-121 -118 -145 -30 -62 -52 -94 -82 -117 -16 -12 -28 -29 -28 -38 0 -9 -15
-39 -34 -67 -70 -103 -188 -289 -194 -304 -15 -39 -70 -122 -76 -113 -7 12 2
40 19 62 11 13 65 143 65 155 0 3 -4 5 -9 5 -9 0 -131 -241 -131 -259 0 -7 5
-9 10 -6 6 4 10 -5 10 -19 0 -14 0 -29 0 -33 0 -5 -5 -10 -10 -11 -7 -3 -8 6
-4 23 6 25 5 26 -14 16 -11 -6 -28 -32 -38 -58 -10 -27 -21 -53 -26 -60 -24
-30 -102 -193 -94 -193 7 0 94 146 121 203 39 81 43 64 6 -21 -17 -39 -31 -83
-32 -99 0 -15 -4 -37 -9 -48 l-9 -20 -1 20 c-1 19 -1 19 -11 2 -6 -10 -8 -28
-5 -40 3 -13 -11 -60 -35 -117 -45 -105 -74 -185 -113 -305 -53 -165 -83 -241
-89 -220 -2 12 -5 5 -5 -15 0 -35 -37 -188 -48 -199 -3 -3 -3 5 0 19 3 14 12
60 21 103 9 43 15 81 12 83 -2 2 -14 -23 -26 -56 -12 -34 -29 -77 -37 -96 -15
-36 -15 -36 -33 -15 -21 24 -31 18 -31 -17 0 -21 2 -22 15 -12 11 9 15 10 15
1 0 -17 22 -38 46 -44 10 -2 -9 -4 -42 -4 -61 1 -62 1 -51 24 15 34 -7 55 -28
27 -14 -18 -14 -18 -15 -1 0 11 9 21 20 24 21 6 50 60 50 94 0 11 5 19 10 19
6 0 10 7 10 16 0 29 -26 -2 -39 -48 -9 -30 -15 -37 -21 -27 -6 8 -4 19 6 30
16 18 19 33 4 24 -15 -9 -12 1 10 42 11 21 20 44 20 51 0 7 10 32 21 55 12 23
21 42 20 42 -3 0 4 18 37 100 l20 50 -1 -41 c-1 -23 -5 -40 -8 -38 -8 4 -21
-27 -45 -106 -9 -30 -21 -59 -25 -64 -5 -6 -9 -19 -9 -30 0 -17 2 -18 10 -6 7
11 10 7 10 -17 0 -18 4 -33 8 -33 11 0 32 45 32 66 0 8 4 13 10 9 5 -3 1 -24
-10 -50 -11 -25 -15 -45 -10 -45 9 0 45 88 55 137 l7 28 -21 -25 -20 -25 5 25
c3 14 15 58 26 97 18 64 22 71 34 55 13 -16 13 -16 14 3 0 16 2 17 9 6 12 -18
45 45 82 154 33 100 64 171 78 179 6 4 11 20 11 36 0 16 4 40 10 54 6 17 6 26
0 26 -6 0 -10 -6 -10 -12 -1 -19 -100 -216 -100 -198 0 8 16 46 35 84 20 38
34 76 32 85 -2 10 -12 -2 -26 -31 -12 -26 -26 -50 -31 -53 -15 -9 -12 0 9 38
23 41 81 210 81 236 0 22 -20 40 -21 19 0 -7 -4 -4 -9 7 -10 22 -11 19 -14
-45 -3 -50 -49 -140 -72 -140 -8 0 -14 -5 -14 -11 0 -5 5 -7 10 -4 13 8 13 -5
0 -25 -5 -8 -10 -10 -10 -5 0 6 -7 -1 -15 -15 -8 -14 -14 -20 -15 -15 0 12 27
98 46 143 8 18 14 38 14 45 0 15 126 289 162 350 15 26 28 53 28 59 0 15 42
86 138 231 29 43 52 82 52 87 0 5 5 12 10 15 7 4 9 -2 5 -18 -4 -14 -2 -34 4
-45 10 -20 12 -19 42 9 34 31 50 31 42 -1 -8 -31 7 -24 49 22 33 36 38 47 32
73 -8 38 -10 40 -27 27 -8 -7 -16 -10 -19 -7 -3 3 -11 -1 -18 -10 -22 -26 -30
-16 -24 28 6 41 47 96 67 89 15 -4 37 19 37 39 0 17 108 161 133 176 7 5 20
19 29 33 9 14 35 45 57 70 23 25 41 49 41 53 0 10 35 42 63 58 17 9 17 8 7
-11 -7 -13 -21 -25 -31 -27 -15 -4 -26 -34 -17 -45 1 -2 -10 -21 -25 -42 -30
-46 -28 -56 7 -33 14 9 31 37 40 65 10 29 36 69 66 102 28 30 50 62 50 72 0
17 47 68 62 68 5 0 8 -6 8 -12z m64 -40 c-7 -32 -8 -32 -14 -8 -8 32 -1 65 12
52 6 -6 7 -24 2 -44z m-31 17 c4 -8 2 -17 -3 -20 -6 -4 -10 3 -10 14 0 25 6
27 13 6z m7 -100 c0 -14 -2 -25 -4 -25 -2 0 -6 11 -8 25 -3 14 -1 25 3 25 5 0
9 -11 9 -25z m8 -125 c0 -22 -1 -22 -8 5 -4 17 -8 39 -8 50 0 16 2 15 8 -5 4
-14 8 -36 8 -50z m-47 2 c-26 -37 -28 -63 -2 -31 l19 24 12 -45 c6 -25 16 -53
21 -62 6 -11 6 -18 -1 -18 -12 0 -129 -113 -169 -164 -17 -21 -31 -33 -31 -25
0 8 -8 0 -18 -17 -33 -59 -57 -97 -88 -138 -16 -22 -43 -65 -59 -94 -16 -29
-39 -64 -52 -78 -13 -14 -23 -28 -23 -31 0 -3 -11 -21 -25 -39 -14 -18 -25
-35 -25 -38 0 -15 -63 -95 -71 -91 -5 4 -9 -5 -9 -18 0 -13 -11 -39 -25 -58
-14 -19 -30 -46 -36 -61 -6 -14 -21 -29 -35 -32 -16 -4 -24 -14 -24 -27 0 -31
-18 -59 -35 -53 -8 4 -15 2 -15 -4 0 -6 -3 -19 -7 -29 -6 -16 -5 -16 10 -4 9
7 17 10 17 7 0 -7 -49 -133 -76 -194 -8 -18 -14 -37 -14 -42 0 -8 -97 -244
-127 -310 -9 -19 -17 -40 -19 -46 -1 -7 -17 -52 -35 -100 -49 -134 -100 -304
-106 -349 -7 -61 -10 -65 -48 -65 l-36 0 22 31 c15 22 18 33 10 38 -8 5 -5 13
9 26 11 10 20 22 20 27 0 11 -23 6 -32 -7 -4 -6 -8 -2 -8 8 0 30 -18 18 -24
-18 -4 -19 -14 -39 -24 -44 -13 -7 -14 -13 -5 -21 8 -9 15 -5 27 16 18 34 20
29 6 -13 -11 -30 -54 -62 -66 -50 -10 10 40 188 106 377 34 96 70 200 80 230
9 30 28 78 40 105 12 28 42 100 65 160 85 216 108 268 212 465 67 127 259 418
297 449 9 7 16 17 16 22 0 8 22 42 113 172 16 22 65 75 110 119 45 43 85 82
89 86 4 4 24 26 44 50 41 47 58 50 25 4z m66 -209 c-1 -16 3 -41 8 -57 6 -22
5 -28 -6 -24 -16 5 -23 49 -15 84 8 32 13 30 13 -3z m-64 -23 c-6 -21 12 -28
20 -7 2 6 9 -15 14 -48 7 -37 7 -62 1 -66 -5 -3 -11 -48 -14 -100 -5 -90 -21
-139 -44 -139 -6 0 -10 31 -10 70 0 56 3 70 15 70 8 0 15 2 15 4 0 2 3 13 6
23 6 16 5 16 -9 -2 -13 -18 -15 -10 -14 90 0 69 4 113 11 117 15 10 15 11 9
-12z m-43 -49 c0 -17 -6 -31 -15 -35 -12 -4 -13 -2 -6 13 6 10 8 21 5 24 -6 6
3 27 12 27 2 0 4 -13 4 -29z m-50 -41 c0 -10 -10 -24 -21 -31 -21 -11 -21 -11
-3 20 21 36 24 38 24 11z m-897 -33 c-11 -12 -26 -33 -33 -46 -10 -19 -14 -21
-21 -10 -12 19 -11 32 1 24 6 -3 10 -1 10 5 0 15 50 64 57 56 4 -3 -3 -16 -14
-29z m943 -19 c-2 -29 -5 -57 -5 -63 -2 -21 -21 21 -21 48 0 27 15 67 25 67 3
0 3 -24 1 -52z m-112 -35 c-7 -40 -20 -63 -35 -63 -16 0 -10 28 14 64 12 19
23 35 25 36 2 0 0 -17 -4 -37z m225 20 c0 -10 3 -43 6 -73 4 -49 4 -51 -5 -20
-6 19 -16 45 -22 57 -8 16 -7 25 3 37 18 19 18 19 18 -1z m-165 -71 c0 -31 -6
-72 -12 -89 -6 -19 -7 -33 -1 -33 5 0 9 8 9 18 0 12 3 13 8 5 4 -7 5 -45 1
-85 -4 -40 -8 -82 -9 -93 l-1 -20 -9 20 c-5 11 -9 32 -9 48 -1 15 -5 27 -10
27 -11 0 -24 -35 -56 -145 -13 -44 -24 -69 -24 -55 -1 31 15 128 25 154 6 15
4 17 -6 11 -10 -6 -11 -2 -6 20 16 62 18 85 9 85 -5 0 -10 22 -11 49 -1 44 1
49 24 54 22 4 24 1 24 -39 0 -56 16 -57 23 -1 2 23 8 51 13 61 5 14 4 17 -4
12 -8 -5 -12 1 -12 18 0 21 9 32 30 35 3 1 5 -25 4 -57z m-542 -34 c-7 -7 -12
-8 -12 -2 0 6 3 14 7 17 3 4 9 5 12 2 2 -3 -1 -11 -7 -17z m592 -40 c-5 -95
-5 -95 -15 -58 -11 41 0 120 16 120 1 0 1 -28 -1 -62z m-182 30 c-7 -7 -12 -8
-12 -2 0 6 3 14 7 17 3 4 9 5 12 2 2 -3 -1 -11 -7 -17z m4 -103 c6 -35 1 -105
-12 -174 -5 -23 -3 -32 4 -27 7 4 9 -6 5 -31 -6 -41 -10 -49 -18 -41 -8 8 -9
130 -1 165 6 26 5 32 -6 28 -10 -4 -14 7 -16 41 -3 73 32 103 44 39z m-112
-101 c-4 -17 -3 -25 3 -21 14 9 14 -53 0 -85 -12 -29 -27 -37 -27 -15 1 6 7
23 15 37 20 35 18 43 -5 30 -18 -9 -20 -8 -20 15 0 14 8 34 18 44 23 26 23 25
16 -5z m-45 -46 c-1 -7 -5 -24 -9 -38 -7 -22 -8 -21 -9 13 -1 20 4 37 9 37 6
0 10 -6 9 -12z m103 -114 l-10 -49 -1 60 c-1 41 2 56 9 49 8 -8 8 -27 2 -60z
m-103 4 c0 -7 -4 -22 -9 -33 -7 -17 -9 -15 -9 13 -1 17 4 32 9 32 6 0 10 -6 9
-12z m71 -52 c0 -83 -24 -105 -36 -31 -4 30 -2 50 6 60 21 25 30 17 30 -29z
m147 22 c-3 -8 -6 -5 -6 6 -1 11 2 17 5 13 3 -3 4 -12 1 -19z m-101 -88 c-14
-27 -21 -50 -16 -50 5 0 14 9 20 21 16 30 24 16 12 -20 -7 -19 -8 -52 -2 -92
7 -45 5 -70 -4 -93 l-13 -31 -8 35 c-11 50 -18 58 -27 30 -5 -17 -6 -12 -2 15
2 22 6 74 7 115 2 63 6 79 25 98 12 12 23 30 23 40 1 16 2 16 6 0 2 -10 -7
-40 -21 -68z m105 -17 c-1 -43 -6 -105 -10 -138 l-7 -60 -8 57 c-5 31 -5 61
-1 67 3 6 1 11 -4 11 -13 0 -15 77 -2 85 5 3 12 19 16 36 11 50 18 25 16 -58z
m91 -220 c-11 -34 -16 -67 -12 -74 6 -8 9 -7 13 7 3 10 4 -12 2 -51 -3 -38 -5
-95 -5 -125 0 -68 -15 -50 -24 30 -13 108 -9 243 8 295 15 47 19 75 27 185 2
25 5 -12 6 -81 3 -101 0 -137 -15 -186z m-352 212 c0 -68 -3 -85 -15 -85 -8 0
-21 -13 -30 -30 -9 -16 -11 -30 -6 -30 5 0 12 6 15 13 3 6 3 -10 -1 -38 -7
-59 -11 -68 -25 -59 -8 5 -9 1 -4 -12 24 -57 6 -222 -29 -279 -6 -11 -14 -31
-17 -45 -3 -14 -9 -34 -13 -44 -6 -13 -5 -17 2 -13 7 5 13 -10 15 -41 3 -26 3
-49 1 -51 -6 -8 -13 6 -16 35 -2 16 -9 40 -16 52 -7 13 -15 66 -18 117 -5 87
-4 94 17 116 l23 24 -6 -30 c-3 -18 0 -38 9 -49 17 -23 17 -22 19 69 2 80 11
138 24 164 6 10 6 23 0 32 -10 16 -12 129 -3 153 9 23 23 20 36 -9 19 -42 28
-28 21 34 -5 55 -1 91 12 91 3 0 5 -38 5 -85z m45 -22 c-10 -53 -26 -39 -20
18 3 28 8 56 12 62 11 16 16 -38 8 -80z m160 -29 c3 -49 8 -112 11 -140 4 -39
0 -68 -20 -124 -14 -41 -23 -76 -21 -78 2 -3 9 8 15 24 24 67 30 70 26 14 -3
-30 -8 -68 -12 -85 -7 -28 -6 -29 9 -13 10 9 18 23 18 30 1 7 7 -14 15 -47 7
-33 16 -73 20 -89 5 -21 3 -32 -9 -41 -12 -8 -16 -36 -20 -118 -3 -81 -8 -112
-21 -125 -9 -10 -16 -25 -17 -33 -1 -34 -18 30 -18 73 -1 25 -8 74 -17 108 -8
33 -13 68 -11 78 2 9 8 -7 12 -36 4 -29 16 -63 26 -75 l17 -22 6 25 c20 87 23
294 3 247 -4 -10 -7 -38 -7 -62 0 -24 -5 -56 -12 -70 -8 -18 -9 -29 -1 -33 6
-4 7 -16 3 -27 -6 -18 -7 -17 -13 5 -12 49 -47 290 -47 325 0 22 -4 34 -10 30
-6 -4 -10 14 -9 47 1 52 1 53 11 18 12 -45 22 -63 35 -67 18 -6 23 36 23 201
0 88 2 157 5 155 2 -3 7 -45 10 -95z m83 -24 c1 -23 0 -23 -8 -5 -5 11 -8 34
-8 50 0 29 0 29 8 5 4 -14 8 -36 8 -50z m-198 25 c0 -13 -8 -44 -17 -67 l-17
-43 -7 33 c-4 21 -1 44 9 67 19 41 32 45 32 10z m-193 -142 c-6 -118 -5 -111
-17 -93 -14 22 -13 133 2 124 8 -5 9 0 5 15 -5 22 0 51 10 51 3 0 3 -44 0 -97z
m202 -7 c1 -34 -19 -106 -29 -106 -16 0 -17 105 -2 138 14 28 17 31 23 15 4
-10 8 -31 8 -47z m192 -13 c0 -43 1 -89 2 -103 1 -14 -2 -41 -6 -60 -5 -24 -4
-30 3 -20 7 11 10 -4 9 -50 -1 -95 -12 -115 -28 -49 -17 76 -26 256 -13 271 6
7 13 30 17 51 4 20 9 37 11 37 2 0 4 -35 5 -77z m-280 8 c-14 -19 -21 -44 -20
-73 l0 -43 19 40 19 40 0 -47 c1 -26 -3 -50 -9 -53 -5 -3 -9 -18 -9 -33 1 -17
3 -21 6 -9 9 35 20 6 13 -34 -4 -22 -6 -51 -3 -62 10 -47 -17 10 -32 69 -8 32
-20 61 -26 65 -8 5 -8 12 0 28 7 12 9 26 6 31 -3 5 -3 33 1 62 4 29 9 47 12
40 5 -17 32 4 33 27 1 14 2 13 6 -1 2 -10 -5 -31 -16 -47z m-241 29 c0 -5 -5
-10 -11 -10 -5 0 -7 5 -4 10 3 6 8 10 11 10 2 0 4 -4 4 -10z m80 -34 c0 -8 -4
-18 -10 -21 -5 -3 -10 3 -10 14 0 12 5 21 10 21 6 0 10 -6 10 -14z m-878 -38
c-7 -7 -12 -8 -12 -2 0 14 12 26 19 19 2 -3 -1 -11 -7 -17z m1415 -136 c-2
-88 -10 -168 -16 -180 -6 -11 -11 -29 -11 -39 0 -15 2 -16 10 -3 11 15 9 -13
-10 -140 l-8 -55 -1 63 c-1 45 -4 61 -13 56 -6 -4 -8 -3 -5 3 4 6 9 32 11 59
3 27 10 72 15 99 6 28 12 104 15 170 6 140 5 125 12 125 4 0 4 -71 1 -158z
m-634 98 c-3 -11 -7 -20 -9 -20 -2 0 -4 9 -4 20 0 11 4 20 9 20 5 0 7 -9 4
-20z m-813 -41 c-5 -19 -17 -44 -25 -54 -11 -14 -10 -5 5 33 11 29 20 56 20
59 0 3 2 4 5 2 2 -3 0 -21 -5 -40z m1168 -33 c-3 -83 -15 -87 -25 -8 -4 35 -2
57 7 67 7 8 14 15 17 15 2 0 2 -34 1 -74z m-298 54 c0 -5 -4 -10 -10 -10 -5 0
-10 5 -10 10 0 6 5 10 10 10 6 0 10 -4 10 -10z m-86 -55 c-4 -8 -8 -15 -10
-15 -2 0 -4 7 -4 15 0 8 4 15 10 15 5 0 7 -7 4 -15z m336 5 c0 -5 -2 -10 -4
-10 -3 0 -8 5 -11 10 -3 6 -1 10 4 10 6 0 11 -4 11 -10z m-282 -12 c-3 -7 -8
-13 -13 -13 -5 0 -10 6 -12 13 -3 6 3 12 12 12 9 0 15 -6 13 -12z m296 -56 c3
-15 -1 -45 -9 -67 l-14 -40 -1 73 c0 72 13 90 24 34z m-257 -6 c-1 -20 -6 -31
-11 -26 -8 8 -1 60 8 60 3 0 4 -15 3 -34z m163 -1 c0 -36 32 -98 42 -83 5 8 6
2 2 -13 -6 -29 13 -50 26 -29 14 22 -1 -123 -16 -164 -15 -39 -11 -63 6 -36 6
9 9 -15 8 -68 0 -50 -4 -80 -10 -76 -5 3 -7 13 -4 21 3 8 -1 24 -9 36 -14 21
-15 18 -10 -38 3 -36 12 -65 20 -71 9 -7 13 -19 9 -28 -3 -9 -1 -16 5 -16 6 0
12 5 12 10 4 31 8 129 9 228 1 71 5 112 12 112 7 0 9 -20 6 -55 -3 -39 -1 -52
6 -45 7 7 13 2 21 -17 10 -23 8 -30 -11 -48 -22 -20 -41 -115 -23 -115 14 0
10 -34 -7 -69 -17 -33 -11 -57 7 -31 7 11 9 -5 7 -52 -2 -38 0 -68 4 -68 4 0
8 -11 8 -24 0 -15 -7 -26 -20 -29 -24 -6 -26 -4 -35 51 -4 28 -11 40 -18 35
-8 -4 -7 -1 1 9 7 8 10 22 6 31 -3 8 0 25 6 37 10 18 9 24 -1 31 -18 11 -29 2
-29 -24 -1 -22 -26 -64 -34 -56 -12 11 -17 59 -7 59 6 0 11 -4 11 -10 0 -5 5
-10 10 -10 6 0 10 13 10 29 0 17 5 33 11 37 6 3 8 16 4 28 -13 42 -21 181 -11
188 7 5 6 34 -2 90 -7 46 -12 96 -12 111 0 15 -5 27 -11 27 -6 0 -8 9 -4 21 5
15 3 20 -6 17 -8 -3 -18 -19 -23 -36 -9 -31 -26 -44 -26 -19 0 25 23 92 27 80
11 -30 20 -9 15 33 -3 34 -2 45 7 40 6 -4 11 -18 11 -31z m-655 -35 c-22 -67
-30 -59 -9 9 8 29 18 51 21 48 3 -3 -3 -29 -12 -57z m1120 -106 c-4 -141 -12
-189 -31 -173 -12 10 -14 2 -13 -42 0 -30 3 -48 6 -41 24 59 23 -99 -1 -208
l-12 -54 -17 33 c-11 22 -12 31 -4 28 9 -3 11 27 9 127 -3 146 6 239 19 196
l7 -25 1 28 c1 15 8 44 16 63 15 36 12 60 -6 49 -5 -4 -9 -15 -9 -26 0 -10 -5
-19 -11 -19 -8 0 -9 11 -4 33 17 75 23 124 17 151 l-5 29 20 -20 c19 -19 21
-31 18 -129z m-1563 104 c-7 -7 -12 -8 -12 -2 0 14 12 26 19 19 2 -3 -1 -11
-7 -17z m892 7 c-4 -8 -10 -15 -15 -15 -5 0 -9 7 -9 15 0 8 7 15 15 15 9 0 12
-6 9 -15z m342 -44 c-15 -14 -18 -14 -26 -1 -15 24 -12 32 10 25 16 -5 20 -2
21 17 l2 23 4 -24 c3 -14 -2 -30 -11 -40z m-371 20 c3 -5 1 -12 -5 -16 -5 -3
-10 1 -10 9 0 18 6 21 15 7z m-465 -47 c-18 -59 -39 -109 -40 -95 0 17 41 133
46 128 2 -2 -1 -17 -6 -33z m490 -1 c-11 -17 -11 -17 -6 0 3 10 6 24 7 30 0 9
2 9 5 0 3 -7 0 -20 -6 -30z m56 -35 c-2 -16 2 -34 8 -41 14 -15 19 -60 6 -52
-6 4 -10 -14 -10 -47 0 -35 3 -48 9 -39 5 8 7 20 4 28 -3 7 0 13 6 13 7 0 17
-14 23 -31 7 -19 15 -28 24 -25 17 7 17 2 0 -37 -21 -48 -26 -79 -13 -74 7 2
13 13 15 25 2 12 7 22 11 22 12 0 6 -72 -7 -97 -7 -12 -12 -30 -12 -40 1 -17
2 -17 15 1 15 19 15 19 15 -2 0 -12 -4 -30 -9 -40 -5 -9 -13 -26 -17 -37 -9
-25 -36 147 -30 186 3 14 1 30 -4 35 -4 5 -10 18 -13 29 -3 13 -5 9 -6 -12 -2
-60 -41 -115 -41 -59 0 14 -4 28 -10 31 -5 3 -10 -3 -10 -15 0 -12 -5 -31 -12
-43 -7 -12 -13 -27 -14 -33 -1 -6 -5 -22 -9 -35 -7 -21 -6 -22 9 -10 9 7 16
21 16 30 0 9 4 22 9 30 6 9 9 -9 10 -52 0 -37 -4 -67 -9 -67 -6 0 -10 12 -10
26 0 14 -4 23 -9 20 -4 -3 -6 -17 -3 -31 2 -15 0 -25 -7 -25 -6 0 -11 12 -11
26 0 36 -17 21 -30 -26 -6 -22 -16 -40 -21 -40 -6 0 -9 6 -6 14 3 8 1 16 -5
18 -12 4 -13 81 -3 171 7 60 -7 79 -25 35 -8 -22 -9 -22 -9 4 -1 43 18 76 40
71 20 -6 22 1 19 49 -2 34 8 68 20 68 6 0 6 -10 1 -23 -5 -13 -6 -28 -3 -34 4
-6 5 -35 3 -64 l-3 -53 -19 23 c-11 13 -22 21 -26 18 -3 -4 -1 -12 4 -19 6 -7
15 -41 22 -74 9 -48 9 -68 0 -88 -14 -31 -6 -44 16 -26 9 8 14 27 13 49 -1 20
2 74 7 121 6 65 10 79 17 61 4 -13 6 -32 3 -42 -4 -11 -1 -19 5 -19 7 0 11 18
10 48 -1 26 -1 61 0 77 1 25 3 27 9 11 7 -18 9 -16 19 12 6 19 7 32 1 32 -5 0
-9 -4 -9 -9 0 -6 -9 -9 -20 -8 -25 2 -36 27 -11 27 20 0 31 26 31 71 0 14 3
29 7 32 13 14 32 -16 29 -45z m475 -61 c-10 -23 -23 -51 -27 -62 -6 -15 -9 -8
-12 28 -3 42 1 52 22 72 15 13 27 37 28 52 1 21 2 18 5 -10 3 -24 -3 -53 -16
-80z m-1453 61 c-8 -13 -20 -45 -28 -71 -7 -27 -19 -51 -26 -54 -8 -3 -11 -9
-8 -15 3 -5 -3 -4 -15 4 -13 8 -17 14 -9 17 21 7 47 45 54 79 3 18 10 35 15
38 5 3 9 15 9 27 0 16 3 18 11 10 9 -9 8 -18 -3 -35z m1281 -55 c-5 -14 -5
-23 1 -23 6 0 10 -28 9 -62 l-1 -63 -18 70 c-11 39 -19 80 -19 93 -1 31 -19
28 -24 -5 -4 -26 -4 -26 -6 5 -1 29 6 37 31 33 4 0 11 11 15 27 7 26 7 25 14
-13 4 -22 3 -50 -2 -62z m-1332 52 c-4 -8 -11 -15 -17 -15 -6 0 -6 7 2 20 14
22 24 19 15 -5z m919 -31 c-4 -13 -10 -24 -14 -24 -11 0 -10 64 2 72 14 9 20
-16 12 -48z m-502 -13 c-9 -29 -18 -50 -20 -48 -3 2 3 27 12 56 10 28 19 49
21 47 2 -2 -3 -27 -13 -55z m136 41 c0 -9 -3 -12 -7 -9 -3 4 -12 2 -20 -4 -9
-9 -13 -8 -13 0 0 6 5 11 11 11 5 0 8 4 5 8 -3 5 1 9 9 9 8 0 15 -7 15 -15z
m306 -8 c-4 -9 -1 -23 5 -31 9 -10 9 -26 -1 -68 -7 -30 -16 -52 -20 -50 -15 9
1 165 17 165 3 0 2 -7 -1 -16z m267 -64 l5 -55 -13 40 c-16 47 -19 93 -6 80 5
-6 11 -35 14 -65z m36 18 c-8 -16 -14 -19 -17 -9 -2 7 2 24 9 39 11 19 15 21
17 9 2 -9 -2 -26 -9 -39z m-644 -12 c-3 -12 -10 -36 -15 -54 -4 -19 -11 -37
-15 -40 -4 -4 -4 9 1 28 4 19 8 47 9 61 0 14 6 26 13 26 9 0 11 -7 7 -21z
m1172 -33 c-3 -10 -5 -2 -5 17 0 19 2 27 5 18 2 -10 2 -26 0 -35z m-880 -10
c-9 -21 -13 -23 -15 -9 -5 24 6 49 18 41 6 -3 5 -16 -3 -32z m363 -59 c-15
-54 -30 -66 -30 -25 0 16 -3 36 -6 45 -4 12 0 16 15 16 15 0 21 7 22 23 1 18
2 19 6 3 3 -10 -1 -38 -7 -62z m-744 40 c-4 -9 -9 -15 -11 -12 -3 3 -3 13 1
22 4 9 9 15 11 12 3 -3 3 -13 -1 -22z m1080 -46 c-6 -92 -16 -148 -27 -148 -5
0 -9 12 -9 26 0 14 -4 23 -10 19 -6 -4 -10 5 -10 20 0 15 4 24 10 20 6 -3 10
0 10 7 0 14 33 128 37 128 2 0 1 -33 -1 -72z m-746 52 c0 -5 -5 -10 -11 -10
-5 0 -7 5 -4 10 3 6 8 10 11 10 2 0 4 -4 4 -10z m920 -45 c4 -5 4 -19 -1 -30
-4 -11 -8 -36 -9 -55 -1 -38 -22 -125 -32 -135 -8 -9 1 71 13 111 6 18 6 41 1
55 -5 14 -4 43 2 69 8 36 11 40 14 20 2 -14 7 -29 12 -35z m-1309 8 c-6 -10
-20 -49 -31 -86 -12 -38 -24 -66 -27 -63 -9 9 46 166 58 166 5 0 5 -8 0 -17z
m439 -9 c0 -8 -4 -12 -10 -9 -5 3 -10 10 -10 16 0 5 5 9 10 9 6 0 10 -7 10
-16z m724 -106 c-4 -13 -1 -16 10 -12 16 6 16 -25 1 -186 -4 -42 -23 -95 -24
-67 -1 10 4 27 9 38 7 11 7 19 1 19 -5 0 -12 -6 -15 -12 -6 -13 -2 8 10 55 4
15 3 18 -4 9 -14 -21 -22 20 -11 65 5 21 9 74 10 118 1 73 2 76 9 35 5 -25 6
-53 4 -62z m-723 45 c-4 -28 -6 -32 -9 -15 -3 22 3 52 11 52 1 0 1 -17 -2 -37z
m365 -66 c-8 -22 -8 -30 3 -37 11 -6 12 -15 4 -42 l-11 -33 -1 37 c-1 20 -5
40 -11 43 -14 8 -13 41 3 83 l12 35 5 -29 c3 -16 1 -42 -4 -57z m182 4 c2 -36
-2 -61 -13 -77 -8 -13 -15 -31 -15 -39 0 -35 -23 -7 -26 30 -3 47 24 147 40
142 5 -2 12 -27 14 -56z m-661 -3 c-3 -8 -6 -5 -6 6 -1 11 2 17 5 13 3 -3 4
-12 1 -19z m84 -83 c-5 -17 -6 -18 -9 -2 -2 9 -7 17 -12 17 -8 0 -4 29 8 60 7
20 19 -48 13 -75z m-38 60 c-3 -9 -8 -14 -10 -11 -3 3 -2 9 2 15 9 16 15 13 8
-4z m401 -28 c4 -19 3 -26 -4 -22 -5 3 -10 18 -10 32 0 32 5 28 14 -10z m280
1 c-4 -13 -7 -35 -5 -50 2 -27 -20 -82 -39 -93 -6 -4 -10 9 -9 32 1 21 3 30 6
21 6 -25 20 -22 27 5 9 34 7 59 -4 52 -16 -10 -12 11 5 25 8 7 15 19 15 28 0
8 3 13 6 9 3 -3 2 -16 -2 -29z m31 -24 c-5 -36 -4 -44 6 -38 9 5 10 2 5 -12
-5 -10 -10 -39 -11 -63 -2 -24 -9 -49 -14 -54 -14 -14 -14 -6 -1 27 5 14 6 26
1 26 -8 0 -6 99 4 138 10 40 17 23 10 -24z m-615 21 c0 -8 -4 -15 -10 -15 -5
0 -10 7 -10 15 0 8 5 15 10 15 6 0 10 -7 10 -15z m204 -17 c-9 -14 -23 2 -17
18 4 12 8 13 14 3 4 -7 5 -17 3 -21z m-371 -39 c-3 -10 -9 -19 -13 -19 -5 0
-11 -14 -15 -31 -4 -17 -9 -28 -12 -25 -3 2 3 30 12 62 11 37 19 53 25 45 4
-7 5 -22 3 -32z m175 -27 c2 -45 26 -162 40 -188 9 -16 7 -19 -14 -19 -21 0
-24 3 -18 28 3 16 1 27 -5 27 -6 0 -11 -5 -11 -11 0 -5 -5 -7 -11 -3 -12 7 -8
73 7 108 4 12 4 17 -2 13 -6 -3 -10 14 -11 43 0 35 3 47 12 44 7 -3 13 -22 13
-42z m-143 8 c3 -5 1 -10 -4 -10 -6 0 -11 5 -11 10 0 6 2 10 4 10 3 0 8 -4 11
-10z m41 -48 c-12 -11 -17 7 -9 34 l8 29 3 -28 c2 -16 1 -31 -2 -35z m301 -29
c-1 -50 -4 -63 -15 -58 -9 3 -12 -2 -10 -17 5 -32 26 -33 38 -2 12 31 15 30
24 -10 l7 -29 -51 6 c-43 5 -51 4 -46 -8 4 -12 -4 -15 -40 -15 -42 0 -44 1
-33 21 6 12 9 39 7 60 -2 21 -1 39 2 39 12 0 29 -40 24 -55 -3 -8 -1 -15 6
-15 6 0 9 -4 5 -9 -3 -5 -1 -12 4 -15 13 -8 21 48 14 99 -6 48 1 56 24 28 13
-16 14 -14 10 24 -5 38 -3 41 13 31 13 -9 17 -24 17 -75z m104 54 c-8 -8 -11
-7 -11 4 0 20 13 34 18 19 3 -7 -1 -17 -7 -23z m183 -19 c-9 -18 -19 -28 -21
-21 -5 13 27 67 34 59 3 -2 -3 -19 -13 -38z m-624 2 c0 -5 -5 -10 -11 -10 -5
0 -7 5 -4 10 3 6 8 10 11 10 2 0 4 -4 4 -10z m773 -41 c-6 -6 -7 3 -4 23 4 28
6 29 9 9 2 -13 0 -27 -5 -32z m-684 -17 c-1 -31 3 -67 9 -79 15 -27 15 -43 2
-43 -5 0 -10 7 -10 15 0 8 -7 15 -15 15 -9 0 -18 -7 -21 -15 -7 -18 -44 -20
-44 -2 0 7 10 17 22 22 17 8 26 26 37 78 8 37 17 67 19 67 2 0 2 -26 1 -58z
m546 18 c-4 -12 -9 -19 -12 -17 -3 3 -2 15 2 27 4 12 9 19 12 17 3 -3 2 -15
-2 -27z m336 -1 c-5 -13 -10 -19 -10 -12 -1 15 10 45 15 40 3 -2 0 -15 -5 -28z
m-941 -26 c-4 -42 -5 -44 -8 -15 -3 30 2 62 10 62 2 0 1 -21 -2 -47z m382 -12
c-2 -23 -8 -41 -12 -41 -12 0 -19 64 -8 77 17 21 24 7 20 -36z m-421 9 c5 0 9
-4 9 -10 0 -5 -6 -10 -14 -10 -12 0 -13 -7 -5 -32 7 -25 5 -36 -6 -47 -13 -14
-15 -11 -15 26 0 50 13 115 18 91 2 -10 8 -18 13 -18z m699 13 c0 -8 -4 -11
-10 -8 -6 4 -10 -8 -10 -29 0 -20 5 -37 10 -37 6 -1 14 -2 19 -3 5 0 12 -4 16
-8 4 -4 14 -4 23 0 16 5 16 5 0 -11 -9 -9 -18 -22 -20 -29 -6 -17 -28 0 -28
21 0 16 -6 18 -45 13 -34 -3 -45 -1 -45 9 0 19 12 34 33 42 9 3 17 15 17 25 0
23 5 29 25 29 8 0 15 -7 15 -14z m-253 -35 c-3 -8 -6 -5 -6 6 -1 11 2 17 5 13
3 -3 4 -12 1 -19z m56 -15 c-2 -35 -1 -36 5 -8 l8 30 7 -25 c8 -28 8 -72 0
-52 -2 6 -13 12 -24 12 -15 0 -19 7 -19 33 0 32 6 47 20 47 3 0 5 -17 3 -37z
m301 12 c4 -14 11 -25 17 -25 6 0 7 -4 4 -10 -8 -12 -45 -13 -64 -1 -12 8 -12
13 3 35 21 33 32 33 40 1z m-594 -15 c0 -5 -5 -10 -11 -10 -5 0 -7 5 -4 10 3
6 8 10 11 10 2 0 4 -4 4 -10z m250 -30 c0 -5 -5 -10 -11 -10 -5 0 -7 5 -4 10
3 6 8 10 11 10 2 0 4 -4 4 -10z m-561 -41 c-18 -11 -19 -8 -12 20 5 21 7 21
16 6 6 -12 5 -20 -4 -26z m941 1 c0 -5 -2 -10 -4 -10 -3 0 -8 5 -11 10 -3 6
-1 10 4 10 6 0 11 -4 11 -10z m-415 -10 c3 -5 1 -10 -4 -10 -6 0 -11 5 -11 10
0 6 2 10 4 10 3 0 8 -4 11 -10z m115 -5 c0 -8 -7 -15 -15 -15 -8 0 -15 7 -15
15 0 8 7 15 15 15 8 0 15 -7 15 -15z m48 -3 c2 -7 -3 -12 -12 -12 -9 0 -16 7
-16 16 0 17 22 14 28 -4z m92 8 c0 -5 -17 -9 -37 -9 l-38 2 35 7 c19 4 36 8
38 9 1 0 2 -3 2 -9z m-1495 -50 c-3 -5 -1 -10 5 -10 6 0 8 -5 5 -11 -5 -7 -12
-6 -23 4 -10 8 -24 17 -32 20 -8 3 0 6 18 6 20 1 31 -3 27 -9z"/>
<path d="M1936 2931 c-3 -5 1 -12 10 -15 20 -8 29 -1 19 13 -8 13 -22 14 -29
2z"/>
<path d="M1997 2880 c-27 -22 -79 -68 -115 -104 -174 -169 -248 -236 -257
-236 -6 0 -16 -12 -23 -27 -6 -16 -30 -48 -52 -73 -63 -69 -82 -96 -225 -307
-31 -46 -61 -88 -68 -95 -14 -15 -110 -160 -151 -228 -15 -25 -31 -52 -36 -60
-42 -66 -101 -177 -125 -235 -16 -38 -42 -90 -57 -114 -15 -25 -28 -49 -28
-54 0 -5 -11 -35 -24 -66 -13 -31 -37 -87 -52 -126 -15 -38 -31 -74 -36 -79
-4 -6 -8 -20 -8 -32 0 -11 -16 -41 -35 -65 -19 -25 -30 -46 -24 -50 6 -4 2
-33 -11 -80 -29 -106 -81 -297 -91 -343 -6 -21 -14 -47 -20 -58 -6 -11 -12
-34 -15 -51 -4 -33 -48 -107 -64 -107 -6 0 -10 9 -10 20 0 11 -4 20 -10 20 -5
0 -10 -13 -10 -30 0 -16 2 -30 5 -30 12 0 55 24 55 32 0 4 4 8 10 8 6 0 6 -9
0 -26 -13 -32 -13 -84 -1 -84 5 0 12 9 16 19 3 11 15 23 26 26 10 4 19 13 19
22 0 9 -6 13 -15 9 -20 -7 -20 34 1 105 16 54 51 181 80 294 44 170 100 336
116 346 6 4 14 26 18 50 5 24 29 88 54 141 25 53 46 105 46 115 0 10 11 34 24
53 13 19 40 73 60 120 39 89 136 264 192 342 18 25 42 63 53 85 12 21 41 65
66 98 44 60 69 95 162 231 26 39 56 79 66 89 10 10 42 48 71 84 30 36 136 145
237 241 101 96 196 187 211 202 15 14 28 31 28 37 0 15 1 16 -53 -29z"/>
<path d="M2008 2839 c-22 -12 -24 -33 -3 -25 8 3 15 1 15 -5 0 -6 5 -7 10 -4
12 7 14 45 3 45 -5 0 -16 -5 -25 -11z"/>
<path d="M1941 2719 c-20 -33 -26 -49 -17 -49 9 0 48 71 43 77 -3 3 -15 -10
-26 -28z"/>
<path d="M1864 2686 c-32 -27 -30 -38 4 -30 20 6 40 40 29 50 -3 3 -18 -6 -33
-20z"/>
<path d="M1841 2614 c0 -11 3 -14 6 -6 3 7 2 16 -1 19 -3 4 -6 -2 -5 -13z"/>
<path d="M1742 2588 c-16 -16 -15 -28 2 -28 16 0 29 27 17 34 -4 3 -13 0 -19
-6z"/>
<path d="M1642 2468 c-14 -14 -16 -28 -3 -28 9 0 24 30 18 36 -2 2 -9 -2 -15
-8z"/>
<path d="M1390 2370 c-7 -13 -7 -20 -1 -20 6 0 15 9 21 20 7 13 7 20 1 20 -6
0 -15 -9 -21 -20z"/>
<path d="M1366 2325 c-9 -26 -7 -32 5 -12 6 10 9 21 6 23 -2 3 -7 -2 -11 -11z"/>
<path d="M1486 2304 c-4 -10 -1 -14 6 -12 15 5 23 28 10 28 -5 0 -13 -7 -16
-16z"/>
<path d="M1306 2240 c-24 -29 -33 -50 -22 -50 9 0 59 71 54 76 -3 3 -17 -9
-32 -26z"/>
<path d="M1256 2161 c-4 -7 -5 -15 -2 -18 9 -9 19 4 14 18 -4 11 -6 11 -12 0z"/>
<path d="M1430 2160 c-9 -6 -10 -10 -3 -10 6 0 15 5 18 10 8 12 4 12 -15 0z"/>
<path d="M1162 2053 c5 -25 28 -28 28 -4 0 12 -6 21 -16 21 -9 0 -14 -7 -12
-17z"/>
<path d="M1141 1972 c-7 -13 -11 -26 -8 -28 8 -8 29 25 25 38 -3 8 -9 4 -17
-10z"/>
<path d="M1247 1914 c-4 -4 -7 -14 -7 -23 0 -11 3 -12 11 -4 6 6 10 16 7 23
-2 6 -7 8 -11 4z"/>
<path d="M1095 1879 c-4 -6 -5 -12 -2 -15 2 -3 7 2 10 11 7 17 1 20 -8 4z"/>
<path d="M935 1740 c-9 -19 -25 -51 -36 -70 -19 -35 -26 -90 -11 -90 4 0 17
28 30 63 13 34 28 72 34 84 6 11 8 27 5 35 -3 8 -11 0 -22 -22z"/>
<path d="M1100 1720 c0 -5 5 -10 10 -10 6 0 10 5 10 10 0 6 -4 10 -10 10 -5 0
-10 -4 -10 -10z"/>
<path d="M1155 1720 c-3 -5 -1 -10 4 -10 6 0 11 5 11 10 0 6 -2 10 -4 10 -3 0
-8 -4 -11 -10z"/>
<path d="M1111 1691 c-7 -5 -12 -14 -9 -21 2 -7 10 -4 22 9 19 21 12 28 -13
12z"/>
<path d="M1072 1617 c-14 -15 -24 -40 -27 -73 -2 -27 -1 -41 3 -32 4 10 11 16
16 15 12 -3 47 96 38 105 -5 5 -18 -2 -30 -15z"/>
<path d="M852 1527 c-12 -27 -25 -59 -28 -72 -3 -13 -12 -26 -20 -29 -8 -3
-14 -12 -14 -19 0 -8 -9 -36 -21 -62 -11 -25 -18 -49 -15 -52 10 -11 35 18 42
50 3 17 24 69 46 116 21 46 37 91 35 100 -2 10 -12 -3 -25 -32z"/>
<path d="M917 1523 c-10 -9 -9 -23 2 -23 5 0 11 7 15 15 5 15 -5 20 -17 8z"/>
<path d="M820 1340 c-6 -12 -9 -24 -7 -27 3 -2 11 5 17 17 6 12 9 24 7 27 -3
2 -11 -5 -17 -17z"/>
<path d="M966 1328 c-11 -44 -5 -65 9 -28 17 43 17 50 6 50 -5 0 -11 -10 -15
-22z"/>
<path d="M795 1290 c-3 -5 -1 -10 4 -10 6 0 11 5 11 10 0 6 -2 10 -4 10 -3 0
-8 -4 -11 -10z"/>
<path d="M740 1254 c0 -8 5 -12 10 -9 6 3 10 10 10 16 0 5 -4 9 -10 9 -5 0
-10 -7 -10 -16z"/>
<path d="M765 1231 c-8 -17 -12 -31 -7 -31 12 0 37 48 29 56 -3 3 -13 -8 -22
-25z"/>
<path d="M870 1233 c-25 -24 -49 -61 -50 -75 0 -15 21 -8 27 10 9 22 29 42 42
42 6 0 11 11 11 25 0 14 -1 25 -2 24 -2 -1 -14 -12 -28 -26z"/>
<path d="M916 1188 c-18 -25 -20 -38 -8 -38 10 0 35 50 28 57 -2 2 -11 -6 -20
-19z"/>
<path d="M691 1131 c-11 -27 -21 -54 -21 -60 0 -20 30 -11 39 12 8 22 14 97 7
97 -2 0 -13 -22 -25 -49z m12 -41 c-3 -12 -8 -19 -11 -16 -5 6 5 36 12 36 2 0
2 -9 -1 -20z"/>
<path d="M877 1173 c-3 -5 -10 -27 -17 -51 -6 -24 -20 -58 -31 -75 -20 -32
-20 -32 -13 -4 3 15 3 27 0 27 -10 0 -47 -92 -40 -99 4 -3 9 0 11 7 3 6 11 12
18 12 8 0 17 10 21 23 7 21 7 21 15 2 l9 -20 -1 20 c-2 39 1 47 16 41 19 -7
43 73 25 84 -6 4 -8 14 -4 23 6 17 -1 24 -9 10z"/>
<path d="M735 1160 c-3 -5 -1 -10 4 -10 6 0 11 5 11 10 0 6 -2 10 -4 10 -3 0
-8 -4 -11 -10z"/>
<path d="M646 1034 c-9 -22 3 -32 14 -14 12 19 12 30 1 30 -5 0 -12 -7 -15
-16z"/>
<path d="M637 993 c-4 -3 -7 -15 -7 -26 0 -11 -7 -29 -17 -39 -9 -10 -24 -39
-33 -65 -9 -27 -20 -56 -25 -65 -4 -10 -3 -18 2 -18 11 0 78 144 87 188 8 32
6 38 -7 25z"/>
<path d="M746 895 c-3 -8 -1 -15 4 -15 6 0 10 7 10 15 0 8 -2 15 -4 15 -2 0
-6 -7 -10 -15z"/>
<path d="M627 876 c-4 -10 -5 -21 -2 -24 9 -9 17 6 13 25 -3 17 -4 17 -11 -1z"/>
<path d="M795 819 c-4 -11 -4 -23 0 -27 7 -7 25 17 25 36 0 20 -18 14 -25 -9z"/>
<path d="M610 805 c0 -8 5 -15 10 -15 6 0 10 7 10 15 0 8 -4 15 -10 15 -5 0
-10 -7 -10 -15z"/>
<path d="M713 772 c-7 -4 -15 -26 -18 -47 -4 -22 -9 -49 -12 -59 -4 -15 -2
-18 13 -11 11 4 25 8 32 8 16 0 15 5 -3 24 -14 14 -14 17 0 33 18 20 8 64 -12
52z"/>
<path d="M555 730 c-3 -5 -4 -10 -1 -10 3 0 -1 -19 -9 -41 -17 -46 -19 -69 -7
-69 11 0 36 70 37 103 0 27 -9 35 -20 17z"/>
<path d="M520 709 c0 -5 5 -7 10 -4 6 3 10 8 10 11 0 2 -4 4 -10 4 -5 0 -10
-5 -10 -11z"/>
<path d="M488 625 c-3 -13 -2 -22 2 -20 11 7 20 45 10 45 -4 0 -10 -11 -12
-25z"/>
<path d="M466 571 c-4 -7 -5 -15 -2 -18 9 -9 19 4 14 18 -4 11 -6 11 -12 0z"/>
<path d="M495 561 c-3 -5 -1 -12 5 -16 5 -3 10 1 10 9 0 18 -6 21 -15 7z"/>
<path d="M631 523 c-6 -22 -7 -42 -1 -52 8 -14 10 -14 10 -1 1 8 3 32 6 53 6
47 -2 48 -15 0z"/>
<path d="M470 499 c0 -5 5 -7 10 -4 6 3 10 8 10 11 0 2 -4 4 -10 4 -5 0 -10
-5 -10 -11z"/>
<path d="M660 461 c-5 -11 -10 -30 -10 -43 1 -22 1 -22 12 -4 11 20 20 66 12
66 -2 0 -8 -9 -14 -19z"/>
<path d="M596 434 c-12 -31 3 -34 22 -4 10 16 10 20 -2 20 -8 0 -17 -7 -20
-16z"/>
<path d="M582 380 c0 -14 2 -19 5 -12 2 6 2 18 0 25 -3 6 -5 1 -5 -13z"/>
<path d="M630 375 c0 -8 5 -15 10 -15 6 0 10 7 10 15 0 8 -4 15 -10 15 -5 0
-10 -7 -10 -15z"/>
<path d="M624 323 c3 -6 1 -13 -6 -15 -7 -3 -8 -10 -3 -17 6 -11 10 -10 17 4
7 12 6 21 -2 28 -10 9 -11 9 -6 0z"/>
<path d="M567 203 c-4 -3 -7 -11 -7 -17 0 -6 5 -5 12 2 6 6 9 14 7 17 -3 3 -9
2 -12 -2z"/>
<path d="M2041 2671 c-8 -5 -16 -17 -17 -26 -1 -9 -21 -40 -43 -70 -23 -30
-40 -64 -40 -77 1 -17 3 -18 6 -6 2 10 22 27 44 40 21 12 39 28 39 35 0 8 -4
11 -10 8 -18 -11 -11 7 16 42 27 36 30 69 5 54z"/>
<path d="M1745 2298 c-22 -29 -50 -64 -62 -78 -13 -14 -28 -31 -33 -38 -6 -7
-15 -10 -20 -7 -5 3 -14 -5 -21 -17 -11 -21 -11 -22 5 -9 9 8 20 11 23 7 4 -4
1 -11 -7 -16 -8 -5 -11 -12 -7 -17 9 -8 44 28 103 107 54 73 74 103 74 112 0
19 -19 4 -55 -44z"/>
<path d="M1586 2074 c-4 -9 -4 -19 -1 -22 2 -3 7 3 11 12 4 9 4 19 1 22 -2 3
-7 -3 -11 -12z"/>
<path d="M1432 1868 c-10 -14 -11 -72 -1 -83 4 -3 12 9 20 27 9 23 10 33 2 35
-7 3 -9 11 -6 19 6 17 -1 18 -15 2z"/>
<path d="M1338 1828 c-14 -18 -28 -45 -31 -60 -4 -15 -13 -33 -21 -41 -25 -25
-59 -115 -52 -141 5 -19 1 -26 -13 -31 -20 -6 -87 -110 -97 -151 -14 -56 35
-2 77 85 20 39 32 28 19 -18 -6 -21 -5 -29 2 -25 16 10 38 71 32 89 -4 8 -1
22 6 30 7 8 10 22 6 30 -6 16 2 40 37 113 21 44 37 62 37 43 0 -23 19 -10 29
20 14 41 14 42 -4 36 -11 -5 -12 -1 -4 20 14 38 5 38 -23 1z"/>
<path d="M1391 1844 c0 -11 3 -14 6 -6 3 7 2 16 -1 19 -3 4 -6 -2 -5 -13z"/>
<path d="M1387 1786 c-6 -16 2 -28 14 -20 12 7 11 34 0 34 -5 0 -11 -6 -14
-14z"/>
<path d="M1156 1374 c-3 -9 -4 -19 -1 -24 2 -4 -4 -15 -15 -25 -20 -18 -27
-45 -12 -45 6 0 62 94 62 105 0 12 -29 3 -34 -11z"/>
<path d="M1077 1353 c-6 -33 7 -53 24 -36 13 13 4 63 -10 63 -5 0 -11 -12 -14
-27z"/>
<path d="M1008 1190 c-9 -14 -16 -38 -16 -55 1 -29 2 -28 20 14 22 51 19 77
-4 41z"/>
<path d="M926 581 c-4 -7 -5 -15 -2 -18 9 -9 19 4 14 18 -4 11 -6 11 -12 0z"/>
<path d="M887 573 c-4 -3 -7 -11 -7 -17 0 -6 5 -5 12 2 6 6 9 14 7 17 -3 3 -9
2 -12 -2z"/>
<path d="M1994 2328 c-13 -21 -14 -60 -1 -55 7 2 13 18 14 35 1 34 -2 39 -13
20z"/>
<path d="M1797 2140 c-3 -11 -1 -20 4 -20 5 0 9 2 9 4 0 2 3 11 6 20 3 9 2 16
-4 16 -5 0 -12 -9 -15 -20z"/>
<path d="M1668 1914 c-5 -4 -8 -19 -8 -33 1 -23 2 -24 11 -8 11 19 9 53 -3 41z"/>
<path d="M1617 1803 c-4 -3 -7 -11 -7 -17 0 -6 5 -5 12 2 6 6 9 14 7 17 -3 3
-9 2 -12 -2z"/>
<path d="M1584 1745 c-15 -23 -15 -28 -3 -36 11 -6 16 -1 21 24 8 42 4 45 -18
12z"/>
<path d="M1525 1671 c-3 -5 -1 -12 5 -16 5 -3 10 1 10 9 0 18 -6 21 -15 7z"/>
<path d="M1480 1585 c0 -9 6 -12 15 -9 8 4 12 10 9 15 -8 14 -24 10 -24 -6z"/>
<path d="M1490 1529 c0 -11 5 -17 10 -14 6 3 10 13 10 21 0 8 -4 14 -10 14 -5
0 -10 -9 -10 -21z"/>
<path d="M1318 1364 c-5 -4 -8 -19 -8 -34 0 -14 -5 -31 -12 -38 -8 -8 -8 -15
0 -25 7 -8 9 -17 5 -20 -3 -4 -1 -7 6 -7 19 0 31 46 23 90 -4 23 -10 38 -14
34z"/>
<path d="M1221 1189 c-13 -39 -14 -42 -2 -35 13 8 32 66 21 66 -4 0 -13 -14
-19 -31z"/>
<path d="M1251 1167 c-7 -20 -11 -43 -8 -50 2 -6 9 5 16 26 7 20 11 43 8 50
-2 6 -9 -5 -16 -26z"/>
<path d="M1207 1013 c-4 -3 -7 -11 -7 -17 0 -6 5 -5 12 2 6 6 9 14 7 17 -3 3
-9 2 -12 -2z"/>
<path d="M1181 914 c0 -11 3 -14 6 -6 3 7 2 16 -1 19 -3 4 -6 -2 -5 -13z"/>
<path d="M1120 876 c-22 -52 -24 -66 -12 -66 9 0 43 102 36 109 -2 2 -13 -17
-24 -43z"/>
<path d="M1160 875 c0 -8 2 -15 4 -15 2 0 6 7 10 15 3 8 1 15 -4 15 -6 0 -10
-7 -10 -15z"/>
<path d="M1136 824 c-9 -23 -2 -28 13 -10 7 8 8 17 3 20 -6 3 -13 -1 -16 -10z"/>
<path d="M1110 735 c0 -8 5 -15 10 -15 6 0 10 7 10 15 0 8 -4 15 -10 15 -5 0
-10 -7 -10 -15z"/>
<path d="M1091 655 c-24 -54 -24 -55 -12 -55 10 0 45 89 38 96 -3 3 -15 -16
-26 -41z"/>
<path d="M1020 477 c-13 -26 -20 -50 -16 -54 4 -4 9 3 13 15 3 12 9 19 14 16
10 -6 23 39 17 58 -3 7 -15 -9 -28 -35z"/>
<path d="M2060 1916 c-6 -9 -10 -21 -8 -28 3 -8 9 -4 17 10 15 28 9 39 -9 18z"/>
<path d="M1738 1540 c-7 -24 -3 -38 8 -28 3 4 4 17 2 30 l-3 23 -7 -25z"/>
<path d="M1796 1332 c-4 -13 -5 -26 -2 -29 10 -11 18 4 14 29 l-4 23 -8 -23z"/>
<path d="M1572 1080 c0 -14 2 -19 5 -12 2 6 2 18 0 25 -3 6 -5 1 -5 -13z"/>
<path d="M1837 953 c-4 -3 -7 -13 -7 -22 1 -13 3 -13 11 2 11 19 8 33 -4 20z"/>
<path d="M1854 645 c-16 -40 -17 -45 -5 -45 5 0 13 18 19 40 12 49 6 52 -14 5z"/>
<path d="M1721 1214 c0 -11 3 -14 6 -6 3 7 2 16 -1 19 -3 4 -6 -2 -5 -13z"/>
<path d="M1521 644 c0 -11 3 -14 6 -6 3 7 2 16 -1 19 -3 4 -6 -2 -5 -13z"/>
<path d="M1628 3041 c-7 -10 -22 -21 -33 -24 -11 -2 -2 -5 20 -6 22 0 47 4 55
10 12 8 9 10 -12 6 -16 -2 -28 0 -28 4 0 5 7 9 15 9 8 0 15 5 15 10 0 16 -18
11 -32 -9z"/>
<path d="M1735 3010 c-4 -6 5 -10 19 -10 14 0 26 5 26 10 0 6 -9 10 -19 10
-11 0 -23 -4 -26 -10z"/>
<path d="M1560 2884 c-69 -64 -146 -134 -172 -157 -26 -23 -48 -47 -48 -53 0
-6 -10 -16 -22 -23 -13 -7 -65 -63 -115 -124 -51 -62 -109 -130 -129 -152 -20
-22 -46 -54 -58 -71 -82 -121 -137 -205 -156 -241 -12 -24 -26 -41 -30 -38 -5
3 -12 -10 -16 -30 -3 -19 -10 -35 -14 -35 -5 0 -12 -10 -17 -22 -4 -13 -28
-61 -52 -107 -37 -69 -46 -81 -53 -65 -7 15 -8 14 -4 -5 3 -14 -7 -49 -23 -85
-16 -34 -36 -78 -44 -98 -9 -21 -20 -38 -26 -38 -5 0 -9 -12 -9 -28 1 -15 -15
-68 -34 -117 -19 -50 -43 -111 -52 -136 -9 -26 -22 -46 -29 -46 -36 1 -45 -5
-51 -35 -8 -40 0 -48 15 -15 6 14 17 28 24 31 18 6 9 -22 -37 -129 -22 -49
-43 -106 -47 -125 -4 -19 -21 -73 -38 -120 -46 -126 -77 -276 -90 -427 -4 -54
-3 -63 12 -63 12 0 15 5 10 20 -9 29 12 193 39 300 28 112 53 188 95 289 17
41 31 79 31 86 0 7 18 49 40 93 22 44 40 87 40 95 0 20 99 288 111 302 5 5 9
17 9 28 0 10 5 28 11 40 l12 21 8 -22 c9 -23 9 -23 34 -5 13 10 25 21 25 26 0
11 -25 8 -39 -5 -9 -9 -8 -3 2 18 9 17 14 34 11 37 -3 3 -1 22 6 43 8 24 15
32 20 24 6 -9 13 -4 24 18 9 17 11 32 6 34 -5 2 0 22 12 45 12 24 24 40 27 38
7 -7 61 88 55 97 -3 4 6 23 20 40 13 18 28 47 32 63 3 17 17 44 30 62 13 17
24 35 24 40 0 5 9 15 20 23 11 8 20 18 20 23 0 29 182 248 203 244 6 -1 13 9
16 23 3 14 24 45 46 69 82 89 293 301 299 301 4 0 28 20 53 45 25 25 58 53 73
61 15 9 32 25 38 35 10 16 9 19 -5 18 -10 0 -74 -52 -143 -115z"/>
<path d="M1795 2980 c-3 -5 -17 -10 -31 -10 -28 0 -31 -8 -9 -24 13 -9 11 -16
-16 -48 -17 -21 -26 -38 -21 -38 14 0 62 59 62 76 0 8 6 17 14 20 17 6 30 34
16 34 -5 0 -12 -4 -15 -10z"/>
<path d="M1500 2920 c0 -5 5 -10 10 -10 6 0 10 5 10 10 0 6 -4 10 -10 10 -5 0
-10 -4 -10 -10z"/>
<path d="M1436 2881 c-3 -5 3 -11 14 -14 13 -3 20 0 20 9 0 15 -26 19 -34 5z"/>
<path d="M1621 2848 c-17 -15 -20 -23 -12 -26 16 -5 45 22 40 37 -3 7 -14 3
-28 -11z"/>
<path d="M1462 2738 c-16 -16 -15 -28 3 -28 8 0 15 2 15 4 0 2 3 11 6 20 7 19
-7 21 -24 4z"/>
<path d="M1545 2730 c-3 -5 -1 -10 4 -10 6 0 11 5 11 10 0 6 -2 10 -4 10 -3 0
-8 -4 -11 -10z"/>
<path d="M1500 2675 c-7 -9 -8 -15 -2 -15 5 0 12 7 16 15 3 8 4 15 2 15 -2 0
-9 -7 -16 -15z"/>
<path d="M1215 2640 c-3 -5 -2 -10 4 -10 5 0 13 5 16 10 3 6 2 10 -4 10 -5 0
-13 -4 -16 -10z"/>
<path d="M1467 2632 c-18 -20 -22 -32 -9 -32 4 0 12 11 19 25 13 30 12 31 -10
7z"/>
<path d="M1391 2604 c0 -11 3 -14 6 -6 3 7 2 16 -1 19 -3 4 -6 -2 -5 -13z"/>
<path d="M1337 2563 c-2 -5 -7 -20 -11 -35 -3 -16 -11 -28 -16 -28 -6 0 -10
-10 -10 -22 0 -20 1 -21 20 -3 11 10 20 26 20 35 0 10 7 20 15 24 8 3 12 12 9
21 -7 16 -20 20 -27 8z"/>
<path d="M2483 2530 c0 -25 2 -35 4 -22 2 12 2 32 0 45 -2 12 -4 2 -4 -23z"/>
<path d="M1238 2513 c-15 -17 -14 -43 1 -43 7 0 31 43 31 55 0 11 -18 4 -32
-12z"/>
<path d="M1011 2482 c-7 -13 -10 -31 -8 -40 3 -13 7 -10 16 12 15 37 9 59 -8
28z"/>
<path d="M1210 2439 c-7 -11 -8 -24 -4 -27 4 -4 9 -2 11 5 2 7 11 9 20 6 13
-5 14 -3 4 15 -14 27 -18 27 -31 1z"/>
<path d="M1213 2403 c-18 -7 -16 -23 2 -23 8 0 15 7 15 15 0 8 -1 15 -2 14 -2
0 -9 -3 -15 -6z"/>
<path d="M975 2379 c-4 -11 -4 -23 0 -27 7 -7 25 17 25 36 0 20 -18 14 -25 -9z"/>
<path d="M2493 2345 c0 -33 2 -45 4 -27 2 18 2 45 0 60 -2 15 -4 0 -4 -33z"/>
<path d="M1120 2342 c0 -6 -7 -18 -16 -27 -9 -9 -14 -18 -11 -21 3 -3 13 6 23
20 9 15 14 29 10 33 -3 3 -6 1 -6 -5z"/>
<path d="M1141 2284 c-20 -25 -20 -44 0 -44 5 0 9 7 9 15 0 9 7 18 15 21 16 7
21 34 6 34 -5 0 -19 -12 -30 -26z"/>
<path d="M82 2275 c0 -16 2 -22 5 -12 2 9 2 23 0 30 -3 6 -5 -1 -5 -18z"/>
<path d="M1042 2206 c-17 -37 -15 -45 4 -18 8 12 14 27 12 33 -2 6 -9 -1 -16
-15z"/>
<path d="M846 2104 c-8 -21 -8 -24 3 -24 5 0 11 9 14 20 6 24 -8 27 -17 4z"/>
<path d="M797 2063 c-4 -3 -7 -13 -7 -22 1 -13 3 -13 11 2 11 19 8 33 -4 20z"/>
<path d="M932 2020 c-30 -51 -37 -70 -28 -70 8 0 66 104 63 114 -2 6 -18 -14
-35 -44z"/>
<path d="M676 1941 c-4 -7 -5 -15 -2 -18 9 -9 19 4 14 18 -4 11 -6 11 -12 0z"/>
<path d="M2200 1899 c0 -23 3 -40 6 -36 9 9 11 68 2 73 -4 3 -8 -14 -8 -37z"/>
<path d="M670 1872 c-23 -35 -34 -82 -19 -82 13 0 20 18 9 25 -6 4 5 25 26 51
22 26 31 44 23 44 -8 0 -25 -17 -39 -38z"/>
<path d="M683 1845 c-3 -9 -3 -18 0 -21 9 -9 27 6 27 22 0 19 -19 18 -27 -1z"/>
<path d="M102 1715 c0 -16 2 -22 5 -12 2 9 2 23 0 30 -3 6 -5 -1 -5 -18z"/>
<path d="M559 1673 c-39 -47 -42 -53 -28 -53 8 0 22 14 32 31 20 36 18 48 -4
22z"/>
<path d="M732 1648 c-14 -14 -16 -28 -3 -28 9 0 24 30 18 36 -2 2 -9 -2 -15
-8z"/>
<path d="M752 1633 c-7 -12 -12 -30 -12 -40 1 -13 5 -11 16 10 8 16 13 34 11
40 -2 7 -9 3 -15 -10z"/>
<path d="M720 1499 c-13 -24 -4 -41 10 -19 10 16 13 40 5 40 -2 0 -9 -9 -15
-21z"/>
<path d="M630 1469 c-7 -11 -9 -24 -5 -27 7 -7 35 25 35 40 0 16 -19 8 -30
-13z"/>
<path d="M595 1440 c-3 -5 -1 -10 4 -10 6 0 11 5 11 10 0 6 -2 10 -4 10 -3 0
-8 -4 -11 -10z"/>
<path d="M605 1387 c-8 -20 -15 -40 -15 -44 0 -5 -9 -16 -20 -26 -12 -10 -18
-22 -15 -28 10 -15 41 25 61 77 20 54 11 72 -11 21z"/>
<path d="M117 1240 c-3 -11 -1 -20 4 -20 5 0 9 9 9 20 0 11 -2 20 -4 20 -2 0
-6 -9 -9 -20z"/>
<path d="M405 1240 c-3 -5 -1 -10 4 -10 6 0 11 5 11 10 0 6 -2 10 -4 10 -3 0
-8 -4 -11 -10z"/>
<path d="M363 1052 c-29 -64 -37 -92 -24 -92 6 0 11 6 11 14 0 8 8 29 17 48
31 62 33 67 25 72 -4 3 -18 -16 -29 -42z"/>
<path d="M2180 991 c0 -40 4 -70 8 -67 9 5 5 126 -3 135 -3 2 -5 -28 -5 -68z"/>
<path d="M456 1021 c-4 -5 -3 -16 0 -24 3 -8 1 -18 -5 -22 -6 -3 -11 -11 -11
-18 0 -16 26 24 33 51 5 22 -6 31 -17 13z"/>
<path d="M310 914 c0 -8 5 -12 10 -9 6 3 10 10 10 16 0 5 -4 9 -10 9 -5 0 -10
-7 -10 -16z"/>
<path d="M110 893 c0 -12 5 -25 10 -28 13 -8 13 15 0 35 -8 12 -10 11 -10 -7z"/>
<path d="M2220 819 c0 -16 4 -28 9 -25 8 5 3 56 -5 56 -2 0 -4 -14 -4 -31z"/>
<path d="M221 813 c-13 -13 -20 -23 -14 -23 15 0 46 26 42 36 -2 5 -15 -1 -28
-13z"/>
<path d="M2172 790 c0 -14 2 -19 5 -12 2 6 2 18 0 25 -3 6 -5 1 -5 -13z"/>
<path d="M120 723 c0 -5 5 -15 10 -23 8 -12 10 -11 10 8 0 12 -4 22 -10 22 -5
0 -10 -3 -10 -7z"/>
<path d="M2200 650 c0 -25 4 -39 10 -35 6 3 10 19 10 35 0 16 -4 32 -10 35 -6
4 -10 -10 -10 -35z"/>
<path d="M130 658 c0 -16 5 -28 10 -28 13 0 13 20 0 40 -8 12 -10 9 -10 -12z"/>
<path d="M2196 563 c-6 -14 -5 -15 5 -6 7 7 10 15 7 18 -3 3 -9 -2 -12 -12z"/>
<path d="M294 555 c-16 -13 -17 -16 -4 -25 12 -8 13 -13 3 -29 -8 -13 -9 -22
-3 -26 11 -7 13 -1 29 58 10 40 5 45 -25 22z"/>
<path d="M337 495 c-14 -10 -15 -14 -5 -18 8 -4 7 -6 -4 -6 -12 -1 -18 -9 -18
-26 0 -43 28 -27 49 27 12 32 3 41 -22 23z"/>
<path d="M292 398 c-7 -7 -12 -20 -12 -29 0 -10 -12 -31 -26 -48 -24 -29 -24
-31 -6 -31 11 0 26 7 33 16 12 15 39 80 39 97 0 11 -15 8 -28 -5z"/>
<path d="M1235 181 c4 -7 -4 -9 -23 -5 -18 4 -32 1 -40 -9 -11 -13 -5 -16 35
-25 26 -6 62 -9 78 -7 17 2 33 4 38 4 4 1 7 8 7 17 0 12 4 14 13 7 6 -5 23 -6
37 -2 28 8 18 11 -52 14 -27 2 -60 6 -74 9 -16 4 -23 3 -19 -3z"/>
<path d="M1096 161 c-4 -5 1 -8 9 -7 21 3 31 16 12 16 -9 0 -18 -4 -21 -9z"/>
<path d="M1435 150 c-3 -5 3 -10 15 -10 12 0 18 5 15 10 -3 6 -10 10 -15 10
-5 0 -12 -4 -15 -10z"/>
<path d="M773 133 c-7 -3 -13 -12 -13 -21 0 -15 2 -15 17 1 18 18 16 27 -4 20z"/>
<path d="M387 42 c-19 -20 -23 -37 -7 -27 10 6 33 45 27 45 -2 0 -11 -8 -20
-18z"/>
</g>
</svg>
