<?xml version="1.0" standalone="no"?>
<!DOCTYPE svg PUBLIC "-//W3C//DTD SVG 20010904//EN"
 "http://www.w3.org/TR/2001/REC-SVG-20010904/DTD/svg10.dtd">
<svg version="1.0" xmlns="http://www.w3.org/2000/svg"
 width="343.000000pt" height="335.000000pt" viewBox="0 0 343.000000 335.000000"
 preserveAspectRatio="xMidYMid meet">
<metadata>
Created by potrace 1.16, written by Peter Selinger 2001-2019
</metadata>
<g transform="translate(0.000000,335.000000) scale(0.100000,-0.100000)"
fill="#000000" stroke="none">
<path d="M3120 3340 c-47 -7 -128 -16 -340 -36 -70 -7 -126 -16 -157 -24 -20
-5 -33 -4 -35 2 -3 7 -20 6 -53 -2 -51 -13 -104 -16 -185 -11 -25 1 -58 0 -75
-4 -20 -4 -26 -3 -16 3 23 16 -4 22 -33 6 -16 -7 -45 -14 -66 -14 -21 0 -40
-5 -42 -10 -5 -15 -108 -26 -108 -11 0 7 -21 10 -64 9 -35 -2 -64 -5 -63 -8 3
-7 -9 -10 -43 -10 -23 0 -30 5 -30 19 0 16 9 21 45 27 28 4 45 11 45 20 0 15
-51 20 -64 7 -8 -8 -1 -7 -196 -26 -165 -17 -251 -24 -395 -33 -49 -3 -106 -9
-126 -15 -45 -11 -120 -9 -137 4 -8 7 -25 6 -51 -2 -85 -25 -134 -30 -149 -15
-9 10 -21 12 -36 7 -27 -10 -582 -9 -618 1 -24 7 -28 5 -28 -12 0 -18 -5 -20
-42 -15 -32 3 -39 2 -28 -6 13 -9 12 -12 -5 -25 -20 -15 -20 -15 2 -31 23 -16
31 -45 13 -45 -13 0 -13 -205 1 -290 5 -36 9 -171 9 -300 0 -129 4 -314 10
-410 6 -96 13 -249 15 -338 2 -90 6 -166 9 -170 10 -10 6 -82 -4 -82 -5 0 -10
-13 -10 -30 0 -16 4 -30 10 -30 11 0 14 -132 7 -325 -3 -93 15 -458 28 -569
18 -148 19 -248 3 -264 -6 -6 -11 -41 -11 -82 1 -38 -3 -70 -8 -70 -5 0 -9
-17 -9 -39 0 -36 2 -39 35 -45 20 -4 39 -5 43 -2 4 2 75 7 157 10 83 4 166 9
185 13 19 3 109 9 200 13 91 5 208 13 260 19 52 6 160 13 240 15 80 2 237 9
350 16 113 7 286 14 385 15 99 1 182 4 185 5 3 1 41 3 85 5 44 2 134 8 200 15
66 6 165 15 220 20 55 5 125 14 155 19 30 6 123 15 205 21 83 6 173 13 200 16
45 4 129 7 163 5 6 -1 12 -8 12 -16 0 -8 4 -15 9 -15 11 0 24 100 25 190 1 36
5 71 10 79 8 12 4 160 -10 375 -2 38 -9 75 -15 82 -6 7 -8 17 -5 22 3 5 1 45
-4 88 -17 142 -21 207 -12 213 9 6 -2 208 -12 218 -3 3 -1 15 4 28 6 16 4 29
-6 44 -9 13 -17 55 -20 113 -5 103 -11 131 -25 123 -5 -4 -9 3 -9 14 0 11 5
23 10 26 7 4 7 12 0 24 -5 10 -7 20 -5 23 3 3 0 42 -6 87 -8 61 -8 86 0 94 16
16 14 60 -3 54 -10 -4 -12 4 -9 36 6 62 4 142 -7 332 -19 313 -32 599 -32 695
1 70 -3 105 -16 132 -18 41 -19 41 -112 28z m-726 -116 c9 -3 14 -10 11 -15
-7 -10 -35 0 -35 12 0 11 3 11 24 3z m-1759 -34 c3 -5 -3 -10 -14 -10 -12 0
-21 5 -21 10 0 6 6 10 14 10 8 0 18 -4 21 -10z m615 1 c0 -6 -4 -13 -10 -16
-5 -3 -10 1 -10 9 0 9 5 16 10 16 6 0 10 -4 10 -9z m-553 -32 c-14 -8 -22 -8
-30 0 -8 8 -3 11 19 11 25 -1 27 -2 11 -11z m3 -79 c0 -5 -4 -10 -10 -10 -5 0
-10 5 -10 10 0 6 5 10 10 10 6 0 10 -4 10 -10z m-623 -22 c-3 -8 -6 -5 -6 6
-1 11 2 17 5 13 3 -3 4 -12 1 -19z m1748 3 c40 -9 33 -12 -33 -14 -31 -1 -52
9 -52 24 0 5 10 7 23 4 12 -3 40 -9 62 -14z m-145 -11 c0 -5 -4 -10 -10 -10
-5 0 -10 5 -10 10 0 6 5 10 10 10 6 0 10 -4 10 -10z m-1577 -42 c6 -39 -7 -53
-16 -18 -5 18 2 65 8 58 1 -2 5 -20 8 -40z m1539 1 c74 17 95 14 103 -11 6
-18 8 -20 12 -7 5 19 54 19 77 0 10 -8 16 -9 21 -1 8 13 45 13 45 0 0 -5 16
-10 36 -10 30 0 37 -4 49 -34 16 -37 37 -48 100 -50 48 -2 68 -13 61 -32 -3
-8 -2 -14 3 -14 5 0 33 -22 62 -50 30 -27 59 -48 66 -45 7 2 21 -8 33 -22 11
-14 56 -64 100 -110 44 -46 80 -89 80 -95 0 -17 -53 35 -138 137 -42 50 -73
82 -70 73 4 -9 46 -64 94 -123 63 -77 94 -107 114 -112 21 -4 39 -21 64 -60
20 -31 36 -64 36 -75 0 -10 5 -16 10 -13 6 3 14 -4 19 -17 36 -92 44 -103 51
-83 7 18 8 17 15 -10 3 -16 10 -39 15 -50 4 -12 14 -54 21 -94 8 -40 19 -76
26 -78 7 -3 13 -20 13 -39 0 -19 4 -34 10 -34 5 0 8 21 6 48 -2 26 -1 36 1 22
3 -14 10 -28 16 -32 7 -4 12 -31 13 -60 1 -29 5 -63 9 -75 5 -17 3 -23 -8 -23
-8 0 -18 6 -20 13 -3 6 -6 -13 -6 -43 0 -49 14 -90 33 -90 3 0 6 15 6 33 1 25
3 29 10 15 7 -11 7 -26 0 -43 -12 -31 -10 -95 2 -95 13 0 -3 -113 -18 -131
-16 -18 -18 -39 -4 -39 6 0 10 -20 10 -43 0 -31 -6 -49 -20 -62 -11 -10 -20
-26 -20 -35 0 -9 -11 -31 -25 -50 l-25 -34 0 27 c0 15 7 38 15 50 8 13 16 39
17 59 2 20 6 34 11 31 4 -2 7 3 7 12 0 31 -25 9 -28 -25 -2 -18 -9 -42 -17
-54 -7 -12 -16 -36 -20 -54 -4 -18 -9 -31 -13 -28 -8 8 19 116 30 116 4 0 8
19 8 43 l-1 42 -14 -40 c-8 -22 -15 -48 -15 -58 0 -15 -2 -16 -14 -5 -7 7 -11
20 -8 28 5 13 4 13 -12 0 -11 -8 -14 -16 -7 -18 6 -2 11 -15 11 -28 0 -29 -36
-104 -50 -104 -6 0 -10 -9 -10 -20 0 -21 -26 -80 -35 -80 -3 0 -2 12 1 26 6
23 4 25 -17 22 -20 -2 -25 -10 -27 -40 -2 -22 1 -38 7 -38 6 0 11 5 11 12 0 6
3 9 6 5 9 -8 -38 -67 -53 -67 -8 0 -13 -6 -12 -12 4 -20 -23 -68 -37 -68 -7 0
-19 -12 -26 -27 -12 -24 -43 -47 -36 -26 2 4 -1 8 -7 8 -5 0 -9 -12 -7 -26 2
-20 -5 -32 -32 -52 -45 -35 -64 -35 -42 -2 9 13 16 32 17 42 0 16 1 16 9 -2 7
-15 9 -9 9 25 0 43 0 44 -13 21 -17 -31 -29 -12 -20 34 5 27 3 35 -9 35 -21 0
-29 -60 -10 -82 10 -11 11 -18 4 -23 -6 -3 -11 -26 -11 -50 0 -38 -6 -50 -36
-80 -45 -46 -77 -59 -85 -36 -5 13 -9 10 -18 -12 -6 -15 -19 -30 -28 -34 -10
-4 -31 -17 -48 -29 -16 -12 -58 -31 -92 -41 -58 -17 -77 -33 -53 -48 5 -3 26
2 47 12 21 10 50 18 66 17 17 -1 27 4 27 13 0 8 5 11 10 8 6 -4 24 1 42 9 17
9 33 14 36 12 7 -8 -72 -54 -103 -61 -16 -4 -48 -14 -70 -22 -45 -18 -95 -24
-95 -12 0 4 -10 5 -22 2 -13 -3 -43 -8 -66 -10 -37 -4 -43 -8 -39 -24 3 -12 0
-19 -10 -19 -8 0 -11 5 -8 10 3 6 -4 10 -17 11 -13 0 -33 2 -45 5 -13 2 -23 0
-23 -5 0 -5 -7 -12 -16 -15 -18 -7 -57 11 -49 24 3 4 -7 11 -22 14 -78 14
-102 16 -107 8 -6 -11 40 -22 87 -22 l30 0 -23 -20 c-13 -11 -23 -20 -24 -20
-1 0 -26 7 -56 15 -72 19 -90 19 -90 -2 -1 -17 -1 -17 -10 -1 -6 9 -38 31 -73
48 -34 18 -70 39 -81 48 -18 16 -18 16 -12 -5 4 -12 3 -24 -2 -27 -13 -8 -38
24 -26 32 25 17 46 152 24 152 -5 0 -10 -16 -10 -35 0 -19 -4 -35 -10 -35 -5
0 -10 -11 -10 -23 0 -43 -9 -42 -61 6 -10 9 -19 14 -19 11 0 -3 -13 4 -30 16
-16 12 -30 18 -31 13 0 -4 -5 3 -10 16 -6 16 -6 28 1 35 13 13 13 56 0 56 -6
0 -13 -14 -17 -30 -3 -17 -14 -35 -23 -40 -15 -8 -24 -2 -49 28 -56 68 -82 91
-97 85 -8 -3 -14 -1 -14 5 0 5 -16 26 -35 46 -19 21 -35 46 -35 57 0 10 -7 19
-15 19 -8 0 -15 6 -15 13 0 8 -9 22 -20 32 -12 11 -18 26 -15 35 6 20 -19 45
-35 35 -6 -4 -10 6 -10 24 0 42 19 32 71 -36 37 -49 43 -54 54 -40 14 19 25
12 25 -15 0 -11 -4 -16 -10 -13 -5 3 -10 2 -10 -4 0 -21 21 -21 29 1 9 22 10
22 10 -5 1 -18 5 -26 12 -21 6 3 8 15 5 27 -3 11 0 29 5 39 5 10 6 24 2 31 -8
12 -9 17 -12 38 0 6 -6 9 -13 7 -20 -7 -61 50 -59 80 11 160 5 316 -11 306 -5
-4 -9 4 -7 17 2 28 -17 79 -30 79 -5 0 -7 -48 -4 -112 3 -62 2 -110 -2 -107
-3 4 -7 21 -7 37 -1 23 -5 29 -17 25 -10 -3 -12 -2 -5 4 21 16 24 57 5 82
l-19 24 -11 -21 c-6 -12 -17 -22 -24 -22 -8 0 -7 4 3 10 12 8 12 11 -3 28 -9
10 -17 24 -17 30 0 7 -4 12 -10 12 -5 0 -10 -5 -10 -11 0 -5 -4 -7 -10 -4 -5
3 -10 17 -10 31 0 24 -1 24 -25 8 -14 -9 -25 -25 -25 -35 0 -12 -5 -16 -15
-13 -19 8 -19 0 0 -36 8 -16 23 -31 33 -34 24 -8 55 -63 49 -87 -3 -12 0 -19
9 -19 10 0 14 -12 14 -40 l0 -41 30 23 c33 24 38 38 15 38 -8 0 -15 7 -15 15
0 11 5 12 23 4 19 -9 22 -16 19 -57 -2 -33 0 -43 7 -33 13 20 22 -18 18 -81
-2 -50 -17 -66 -39 -45 -7 7 -22 16 -32 20 -16 6 -17 5 -7 -7 7 -8 11 -30 9
-48 -3 -33 -3 -33 -59 47 -75 108 -84 126 -69 135 10 6 9 13 -4 31 -9 13 -16
33 -16 45 0 52 -24 71 -40 32 -8 -21 -9 -22 -11 -3 -1 11 -1 24 0 29 1 4 -4
14 -10 22 -9 11 -9 14 1 14 8 0 9 6 5 18 -4 9 -10 37 -12 61 -4 43 -30 101
-45 101 -12 0 -10 -25 4 -55 9 -21 9 -29 -4 -41 -13 -14 -16 -10 -21 34 -5 47
7 122 20 122 3 0 3 -9 0 -19 -3 -12 4 -27 19 -40 13 -12 26 -21 28 -21 5 0
-21 87 -30 102 -4 6 -8 47 -10 92 -5 109 -13 154 -25 135 -6 -10 -9 -5 -9 19
0 29 19 48 21 20 1 -30 18 31 18 69 1 57 78 287 113 339 30 44 58 63 58 39 0
-7 5 -17 12 -21 8 -5 9 2 5 26 -5 21 -2 39 5 48 10 13 10 14 0 8 -13 -8 -16 3
-6 29 6 14 9 14 29 -5 l22 -21 12 31 c6 16 16 44 22 60 6 17 17 30 24 30 6 0
19 18 28 40 11 28 20 38 30 34 10 -3 20 3 27 16 6 12 14 20 16 17 3 -2 35 11
72 30 279 144 369 182 356 149 -3 -8 -1 -17 5 -21 7 -4 11 5 12 22 0 15 3 22
6 16 5 -14 39 -1 58 23 12 14 66 25 160 30 38 2 71 8 73 13 2 6 16 5 34 -1 22
-8 44 -8 80 1z m-1256 -30 c3 -6 2 -15 -4 -21 -6 -6 -11 -2 -15 11 -5 22 7 29
19 10z m414 -17 c0 -13 -39 -46 -46 -39 -3 3 3 14 13 25 19 22 33 27 33 14z
m1287 -27 c20 -8 34 -18 31 -21 -7 -6 -78 22 -78 30 0 9 7 7 47 -9z m-1677
-30 c0 -8 -4 -15 -10 -15 -5 0 -10 7 -10 15 0 8 5 15 10 15 6 0 10 -7 10 -15z
m-350 -28 c0 -18 -2 -19 -10 -7 -13 20 -13 43 0 35 6 -3 10 -16 10 -28z m48
-33 c-3 -27 -4 -26 -9 8 -3 22 -1 34 4 29 5 -5 7 -21 5 -37z m868 17 c-18 -20
-56 -35 -56 -22 0 6 55 38 69 40 2 1 -4 -8 -13 -18z m1266 3 c30 -14 103 -97
103 -117 0 -5 11 -17 25 -27 14 -11 19 -20 12 -20 -20 0 -72 39 -72 55 0 7 -4
15 -9 17 -16 5 -101 89 -101 99 0 12 4 12 42 -7z m294 -21 c20 -27 16 -35 -6
-13 -11 11 -20 22 -20 25 0 11 13 4 26 -12z m321 -65 c-3 -8 -6 -5 -6 6 -1 11
2 17 5 13 3 -3 4 -12 1 -19z m163 -123 c0 -17 -2 -17 -10 -5 -5 8 -10 24 -10
35 0 17 2 17 10 5 5 -8 10 -24 10 -35z m-578 -2 c15 -15 28 -30 28 -34 0 -13
-69 35 -70 49 0 19 11 15 42 -15z m-2365 -160 c-3 -10 -5 -2 -5 17 0 19 2 27
5 18 2 -10 2 -26 0 -35z m2463 32 c0 -8 -2 -15 -4 -15 -2 0 -6 7 -10 15 -3 8
-1 15 4 15 6 0 10 -7 10 -15z m-2134 -282 c-11 -11 -19 6 -11 24 8 17 8 17 12
0 3 -10 2 -21 -1 -24z m-299 -85 c-3 -7 -5 -2 -5 12 0 14 2 19 5 13 2 -7 2
-19 0 -25z m3040 -270 c-3 -8 -6 -5 -6 6 -1 11 2 17 5 13 3 -3 4 -12 1 -19z
m-2797 -153 c0 -8 -4 -15 -10 -15 -5 0 -10 7 -10 15 0 8 5 15 10 15 6 0 10 -7
10 -15z m2552 -100 c3 -14 1 -25 -3 -25 -5 0 -9 11 -9 25 0 14 2 25 4 25 2 0
6 -11 8 -25z m-5 -67 c-3 -8 -6 -5 -6 6 -1 11 2 17 5 13 3 -3 4 -12 1 -19z
m-2730 -40 c-3 -7 -5 -2 -5 12 0 14 2 19 5 13 2 -7 2 -19 0 -25z m243 6 c0
-28 -15 -25 -23 6 -3 13 0 20 9 20 8 0 14 -10 14 -26z m185 -10 c-20 -15 -19
-21 4 -27 12 -3 21 -17 25 -41 4 -20 11 -34 17 -31 5 4 9 0 9 -8 0 -8 -6 -17
-13 -20 -9 -3 -25 16 -45 56 -39 75 -39 82 -7 82 21 0 23 -2 10 -11z m2311 5
c3 -6 2 -15 -4 -21 -6 -6 -11 -2 -15 11 -5 22 7 29 19 10z m-2759 -31 c-3 -8
-6 -5 -6 6 -1 11 2 17 5 13 3 -3 4 -12 1 -19z m63 -9 c0 -11 -4 -18 -10 -14
-5 3 -7 12 -3 20 7 21 13 19 13 -6z m517 -51 c-3 -8 -6 -5 -6 6 -1 11 2 17 5
13 3 -3 4 -12 1 -19z m12 -115 c1 -53 2 -99 3 -102 0 -3 -1 -13 -3 -21 -1 -8
-5 35 -9 95 -5 101 -4 125 4 125 2 0 4 -43 5 -97z m-32 -5 c-3 -7 -5 -2 -5 12
0 14 2 19 5 13 2 -7 2 -19 0 -25z m1987 -135 c-10 -8 -24 -17 -29 -21 -6 -4
-21 -20 -33 -36 -12 -16 -22 -26 -22 -22 0 10 33 68 55 97 17 23 21 24 34 11
13 -13 13 -16 -5 -29z m-2534 -41 c0 -21 -2 -24 -10 -12 -13 20 -13 53 0 45 6
-3 10 -18 10 -33z m565 -22 c9 -16 12 -30 8 -30 -13 1 -48 30 -35 30 6 0 9 7
6 15 -11 27 5 16 21 -15z m-595 -52 c0 -62 -5 -60 -14 5 -5 31 -4 47 3 47 7 0
11 -22 11 -52z m2561 29 c-10 -9 -11 -8 -5 6 3 10 9 15 12 12 3 -3 0 -11 -7
-18z m-2081 -22 c7 -9 8 -15 2 -15 -5 0 -12 7 -16 15 -3 8 -4 15 -2 15 2 0 9
-7 16 -15z m190 0 c7 -9 8 -15 2 -15 -5 0 -12 7 -16 15 -3 8 -4 15 -2 15 2 0
9 -7 16 -15z m-41 -10 c3 -12 -13 -9 -17 4 -2 7 0 11 6 7 5 -3 10 -8 11 -11z
m1897 -10 c-2 -17 -56 -69 -56 -54 0 8 48 66 57 69 1 0 0 -7 -1 -15z m-88 -30
c-10 -23 -28 -34 -28 -18 0 7 31 43 36 43 2 0 -2 -11 -8 -25z m-1888 -37 c0
-6 -7 -5 -15 2 -8 7 -15 17 -15 22 0 6 7 5 15 -2 8 -7 15 -17 15 -22z m2597
-30 c-3 -8 -6 -5 -6 6 -1 11 2 17 5 13 3 -3 4 -12 1 -19z m-708 -15 c-13 -16
-25 -30 -26 -32 -2 -2 -6 -2 -9 1 -5 5 45 58 55 58 3 0 -6 -12 -20 -27z
m-2432 -5 c-3 -8 -6 -5 -6 6 -1 11 2 17 5 13 3 -3 4 -12 1 -19z m621 -44 c2
-1 0 -4 -5 -7 -4 -2 -19 10 -32 27 l-25 31 30 -25 c16 -14 30 -26 32 -26z
m2419 -11 c-3 -10 -5 -4 -5 12 0 17 2 24 5 18 2 -7 2 -21 0 -30z m213 -36 c0
-19 2 -70 5 -113 4 -58 3 -74 -5 -59 -8 16 -9 12 -6 -20 2 -22 7 -48 11 -57 4
-10 3 -18 -3 -18 -17 0 -31 88 -21 124 6 17 7 64 4 104 -5 49 -3 72 4 72 6 0
11 -15 11 -33z m-3190 -56 c0 -6 -4 -13 -10 -16 -5 -3 -10 1 -10 9 0 9 5 16
10 16 6 0 10 -4 10 -9z m717 -47 c-8 -8 -47 10 -47 22 0 12 5 11 25 -2 14 -9
24 -18 22 -20z m1463 26 c0 -12 -62 -69 -95 -86 -23 -12 -24 -11 -15 5 5 10
17 21 25 25 9 3 13 10 10 16 -3 5 2 10 12 10 10 0 26 9 36 20 19 22 27 25 27
10z m-1426 -65 c9 -14 23 -25 31 -25 8 0 15 -7 15 -15 0 -8 -3 -15 -7 -14 -13
1 -76 79 -65 79 5 0 17 -11 26 -25z m-798 -22 c-11 -11 -17 4 -9 23 7 18 8 18
11 1 2 -10 1 -21 -2 -24z m3 -141 c0 -30 -2 -33 -9 -17 -12 28 -12 67 0 60 6
-3 10 -23 9 -43z m1011 38 c0 -5 -2 -10 -4 -10 -3 0 -8 5 -11 10 -3 6 -1 10 4
10 6 0 11 -4 11 -10z m2067 -27 c-3 -10 -5 -4 -5 12 0 17 2 24 5 18 2 -7 2
-21 0 -30z m163 -24 c0 -11 -4 -17 -10 -14 -5 3 -10 13 -10 21 0 8 5 14 10 14
6 0 10 -9 10 -21z m-1520 -19 c0 -5 -4 -10 -9 -10 -6 0 -13 5 -16 10 -3 6 1
10 9 10 9 0 16 -4 16 -10z m-811 -97 c0 -5 -3 -9 -9 -11 -5 -2 -10 4 -10 13 0
16 16 14 19 -2z m2318 -25 c-3 -8 -6 -5 -6 6 -1 11 2 17 5 13 3 -3 4 -12 1
-19z m-3196 -65 c-10 -17 -10 -16 -11 3 0 23 13 41 18 25 2 -6 -1 -18 -7 -28z
m579 17 c0 -5 -4 -10 -10 -10 -5 0 -10 5 -10 10 0 6 5 10 10 10 6 0 10 -4 10
-10z m1290 0 c0 -12 -17 -12 -45 0 -17 7 -15 9 13 9 17 1 32 -3 32 -9z m1316
-27 c-11 -11 -19 6 -11 24 8 17 8 17 12 0 3 -10 2 -21 -1 -24z m-3169 -35 c-3
-8 -6 -5 -6 6 -1 11 2 17 5 13 3 -3 4 -12 1 -19z"/>
<path d="M1800 2923 c0 -17 5 -35 10 -38 13 -8 13 35 0 55 -7 11 -10 7 -10
-17z"/>
<path d="M1865 2859 c4 -30 11 -64 16 -77 6 -15 5 -21 -1 -17 -16 10 -12 -21
5 -35 8 -7 19 -26 23 -43 4 -17 13 -32 20 -35 18 -6 14 19 -7 55 -13 20 -16
33 -9 35 7 3 5 14 -7 31 -28 43 -11 42 18 -1 17 -23 29 -57 32 -87 3 -27 9
-53 15 -59 5 -5 10 -18 10 -27 0 -10 5 -21 11 -24 7 -5 8 4 4 27 -3 18 -7 51
-9 73 -2 22 -7 49 -11 60 -7 20 -6 20 9 1 9 -11 16 -23 16 -28 0 -4 4 -8 9 -8
5 0 12 16 15 36 4 19 10 43 12 52 5 14 3 13 -10 -2 -15 -18 -17 -18 -34 -3
-10 10 -21 14 -24 11 -4 -3 -9 8 -13 25 -10 45 -29 39 -21 -6 5 -33 5 -35 -6
-18 -6 11 -20 26 -30 33 -10 8 -18 25 -18 42 0 16 -5 32 -11 36 -8 5 -9 -9 -4
-47z"/>
<path d="M1401 2884 c0 -11 3 -14 6 -6 3 7 2 16 -1 19 -3 4 -6 -2 -5 -13z"/>
<path d="M1682 2880 c0 -14 2 -19 5 -12 2 6 2 18 0 25 -3 6 -5 1 -5 -13z"/>
<path d="M1332 2860 c0 -19 2 -27 5 -17 2 9 2 25 0 35 -3 9 -5 1 -5 -18z"/>
<path d="M1140 2850 c0 -11 4 -20 9 -20 5 0 7 9 4 20 -3 11 -7 20 -9 20 -2 0
-4 -9 -4 -20z"/>
<path d="M1490 2856 c0 -8 5 -18 10 -21 6 -3 10 1 10 9 0 8 -4 18 -10 21 -5 3
-10 -1 -10 -9z"/>
<path d="M1030 2843 c0 -10 5 -25 10 -33 8 -12 10 -9 10 12 0 15 -4 30 -10 33
-5 3 -10 -2 -10 -12z"/>
<path d="M1990 2816 c0 -9 5 -16 10 -16 6 0 10 4 10 9 0 6 -4 13 -10 16 -5 3
-10 -1 -10 -9z"/>
<path d="M938 2770 c2 -16 6 -30 8 -30 2 0 4 14 4 30 0 17 -4 30 -8 30 -5 0
-7 -13 -4 -30z"/>
<path d="M1840 2744 c0 -12 7 -24 15 -28 19 -7 19 5 0 30 -14 19 -14 19 -15
-2z"/>
<path d="M2210 2717 c0 -7 5 -18 12 -25 9 -9 9 -12 1 -12 -7 0 -15 5 -18 10
-8 13 -35 13 -35 1 0 -6 20 -24 45 -42 25 -18 45 -37 45 -44 0 -26 162 -161
180 -150 16 10 12 21 -21 70 -33 49 -55 65 -92 65 -19 0 -31 13 -62 70 -36 67
-55 86 -55 57z"/>
<path d="M767 2702 c-24 -27 -21 -36 4 -11 11 11 19 23 16 25 -2 2 -11 -4 -20
-14z"/>
<path d="M850 2688 c0 -15 5 -30 10 -33 13 -8 13 25 0 45 -8 12 -10 9 -10 -12z"/>
<path d="M740 2608 c0 -9 5 -20 10 -23 13 -8 13 5 0 25 -8 13 -10 13 -10 -2z"/>
<path d="M1930 2603 c0 -10 5 -25 10 -33 8 -12 10 -9 10 12 0 15 -4 30 -10 33
-5 3 -10 -2 -10 -12z"/>
<path d="M2117 2613 c-11 -10 -8 -53 3 -53 6 0 10 -7 10 -15 0 -11 -10 -9 -45
9 -25 14 -45 21 -45 18 0 -4 18 -24 40 -45 22 -20 40 -46 40 -57 0 -21 -15
-27 -25 -10 -3 6 -13 10 -21 10 -12 0 -12 -4 -2 -22 18 -31 51 -57 63 -50 5 4
19 5 31 4 18 -3 20 1 17 30 -3 27 -2 30 7 15 6 -9 10 -25 9 -35 -2 -9 1 -38 5
-64 6 -37 11 -48 26 -48 21 0 27 13 36 82 4 29 10 58 14 63 4 6 10 18 13 28 5
13 2 17 -11 15 -12 -2 -18 5 -20 22 -6 44 -22 47 -22 5 0 -49 -9 -85 -22 -85
-5 0 -9 17 -8 38 0 51 -10 111 -21 118 -5 3 -9 -11 -9 -31 0 -22 -4 -34 -10
-30 -5 3 -10 17 -10 31 0 43 -25 76 -43 57z m54 -134 c-9 -22 -10 -22 -10 -3
-1 11 2 24 6 27 12 12 14 0 4 -24z m69 -100 c0 -48 -16 -44 -22 6 -3 24 0 35
9 35 9 0 13 -14 13 -41z"/>
<path d="M1540 2463 c0 -10 5 -25 10 -33 7 -12 12 -12 22 -2 9 9 10 17 2 29
-15 24 -34 28 -34 6z"/>
<path d="M882 2450 c0 -14 2 -19 5 -12 2 6 2 18 0 25 -3 6 -5 1 -5 -13z"/>
<path d="M1662 2450 c1 -14 -1 -30 -4 -35 -7 -12 10 -105 19 -105 3 0 3 16 0
36 -6 38 8 43 27 8 21 -37 56 -76 56 -61 0 8 -9 22 -20 32 -15 13 -20 31 -20
66 0 26 -4 51 -10 54 -5 3 -10 1 -10 -6 0 -6 -9 -1 -20 12 l-21 24 3 -25z m36
-55 c-3 -3 -9 2 -12 12 -6 14 -5 15 5 6 7 -7 10 -15 7 -18z"/>
<path d="M2480 2446 c0 -14 5 -28 10 -31 6 -4 10 7 10 24 0 17 -4 31 -10 31
-5 0 -10 -11 -10 -24z"/>
<path d="M2297 2433 c-3 -5 3 -15 14 -22 18 -11 20 -10 17 5 -3 19 -23 30 -31
17z"/>
<path d="M890 2390 c0 -11 4 -20 9 -20 5 0 7 9 4 20 -3 11 -7 20 -9 20 -2 0
-4 -9 -4 -20z"/>
<path d="M1570 2365 c-15 -39 -12 -60 10 -80 16 -15 20 -29 18 -73 -2 -37 2
-57 10 -60 13 -4 17 -32 5 -32 -5 0 -21 16 -36 35 -29 37 -47 45 -47 20 0 -8
18 -29 40 -46 30 -24 40 -40 40 -61 0 -25 3 -28 24 -22 33 8 76 -21 76 -52 0
-31 17 -40 23 -12 2 13 5 3 5 -22 1 -32 -1 -41 -8 -30 -8 13 -10 12 -10 -2 0
-10 7 -18 15 -18 8 0 16 -6 16 -12 1 -7 5 8 8 34 8 55 -7 218 -21 233 -6 6 -7
-21 -2 -75 8 -94 12 -91 -52 -36 -25 20 -50 73 -41 83 4 3 13 0 22 -7 9 -8 15
-9 15 -2 0 6 -6 15 -13 19 -7 4 -18 21 -25 36 -7 15 -16 26 -21 23 -4 -3 -6 7
-3 21 l5 27 21 -25 c12 -13 30 -31 40 -39 16 -13 18 -12 14 10 -1 14 -9 25
-17 25 -27 0 -75 73 -77 117 -2 49 -20 61 -34 23z"/>
<path d="M2300 2370 c11 -20 30 -28 30 -12 0 11 -22 32 -32 32 -5 0 -4 -9 2
-20z"/>
<path d="M2420 2370 c0 -11 5 -20 10 -20 6 0 10 9 10 20 0 11 -4 20 -10 20 -5
0 -10 -9 -10 -20z"/>
<path d="M1776 2283 c4 -43 8 -103 10 -133 3 -74 3 -72 14 -65 5 3 7 18 5 33
-2 15 -7 75 -11 135 -3 60 -10 107 -16 107 -6 0 -7 -28 -2 -77z"/>
<path d="M2027 2330 c-3 -8 -8 -55 -11 -104 -4 -49 -9 -100 -13 -114 -4 -17
-2 -23 6 -18 6 4 11 25 11 47 0 35 2 40 19 34 11 -3 22 -1 26 5 12 19 24 10
25 -17 2 -78 4 -93 11 -93 10 0 12 -51 3 -74 -8 -21 -34 -21 -34 1 0 9 -3 13
-7 10 -3 -4 -12 -2 -20 4 -10 9 -13 7 -13 -10 0 -11 5 -21 10 -21 6 0 10 -6
10 -14 0 -10 11 -14 35 -13 33 1 35 2 46 55 8 39 8 57 0 65 -6 6 -11 27 -11
47 0 26 -3 31 -10 20 -8 -13 -10 -12 -10 4 0 13 5 16 18 11 32 -12 35 -10 47
43 13 54 25 78 25 48 0 -26 30 -77 41 -70 6 4 6 11 -1 20 -7 7 -18 33 -25 56
-14 50 -38 57 -43 13 -6 -52 -22 -53 -22 -2 0 26 -4 47 -10 47 -6 0 -10 -29
-10 -66 0 -41 -4 -63 -10 -59 -5 3 -10 40 -10 81 0 87 -16 98 -25 19 -4 -30
-11 -55 -16 -55 -4 0 -11 21 -14 48 -8 61 -12 70 -18 52z"/>
<path d="M1490 2317 c0 -19 36 -64 45 -55 9 9 -17 60 -32 66 -7 2 -13 -3 -13
-11z"/>
<path d="M2470 2306 c0 -31 6 -34 13 -6 3 11 1 23 -4 26 -5 3 -9 -6 -9 -20z"/>
<path d="M560 2310 c0 -5 5 -10 11 -10 5 0 7 5 4 10 -3 6 -8 10 -11 10 -2 0
-4 -4 -4 -10z"/>
<path d="M1131 2283 c-1 -18 4 -33 9 -33 12 0 12 17 0 45 -7 17 -9 15 -9 -12z"/>
<path d="M1717 2268 c3 -24 10 -47 16 -53 6 -7 8 -2 3 15 -3 14 -6 37 -6 53 0
15 -4 27 -9 27 -5 0 -7 -19 -4 -42z"/>
<path d="M500 2283 c0 -13 5 -23 10 -23 13 0 13 11 0 30 -8 12 -10 11 -10 -7z"/>
<path d="M1980 2258 c0 -36 4 -35 14 5 4 16 2 27 -4 27 -5 0 -10 -14 -10 -32z"/>
<path d="M950 2273 c0 -4 5 -15 10 -23 8 -13 10 -13 10 2 0 9 -4 20 -10 23 -5
3 -10 3 -10 -2z"/>
<path d="M460 2260 c0 -5 5 -10 10 -10 6 0 10 5 10 10 0 6 -4 10 -10 10 -5 0
-10 -4 -10 -10z"/>
<path d="M776 2259 c-4 -9 -3 -39 1 -65 5 -27 7 -71 5 -97 -3 -38 -7 -45 -17
-37 -20 16 -30 -6 -31 -69 0 -42 2 -50 11 -38 26 36 53 -63 31 -115 -6 -16
-14 -28 -18 -28 -3 0 -4 -10 0 -22 4 -15 2 -19 -7 -13 -7 4 -11 18 -8 31 2 14
0 27 -4 30 -5 3 -9 11 -9 17 0 7 4 6 10 -3 7 -11 10 -7 10 17 0 17 3 40 7 50
6 16 5 16 -10 4 -9 -7 -17 -23 -18 -35 0 -18 -2 -17 -11 7 -21 57 -29 27 -23
-85 4 -62 8 -119 10 -125 3 -7 0 -13 -5 -13 -6 0 -5 -11 2 -25 6 -14 15 -25
19 -25 9 0 3 165 -6 180 -3 6 -1 10 4 10 6 0 11 -6 11 -13 0 -7 7 -37 15 -65
16 -54 35 -69 35 -29 0 28 19 60 21 37 1 -8 4 -26 6 -40 12 -87 13 -134 3
-120 -8 12 -12 12 -18 2 -5 -7 -14 -12 -21 -10 -8 2 -14 -10 -16 -29 -1 -18 1
-30 6 -27 5 3 9 14 9 25 0 12 4 17 11 14 7 -5 8 -26 5 -59 -5 -39 -4 -45 4
-28 14 33 26 20 28 -30 1 -23 4 -51 7 -63 3 -11 2 -14 -1 -7 -3 6 -10 12 -15
12 -10 0 -11 -162 -2 -212 8 -43 27 -34 20 9 -8 45 2 145 14 138 4 -3 9 1 11
9 4 19 78 -42 78 -64 0 -11 3 -11 12 -2 9 9 -1 25 -41 67 -48 50 -53 60 -47
88 4 18 11 34 16 35 14 5 12 18 -5 36 -8 8 -18 30 -20 48 -5 32 -5 32 6 8 l12
-25 7 35 6 35 8 -40 c11 -56 14 -65 24 -65 12 0 4 68 -18 151 -10 41 -14 74
-9 87 5 13 4 22 -1 22 -6 0 -10 -6 -11 -12 0 -7 -5 1 -11 17 -6 17 -19 41 -28
55 -19 29 -32 70 -21 70 4 0 18 -21 31 -46 30 -58 37 -61 45 -23 6 26 2 35
-27 62 -18 18 -44 57 -58 87 -14 30 -30 59 -37 63 -7 4 -13 16 -13 25 1 13 6
10 21 -11 11 -15 25 -25 30 -21 5 3 17 -8 27 -25 9 -17 20 -31 25 -31 11 0
-21 60 -46 88 -11 12 -16 22 -10 22 6 0 13 -7 17 -15 3 -8 10 -15 16 -15 5 0
1 17 -10 37 -11 21 -20 53 -20 71 0 30 1 32 16 18 8 -9 22 -16 30 -16 8 0 20
-11 26 -25 6 -14 15 -25 20 -25 5 0 2 10 -6 22 -22 32 -20 45 4 23 29 -27 33
-14 6 20 -20 25 -26 28 -40 16 -9 -7 -16 -9 -16 -4 0 5 -11 15 -24 21 -19 8
-26 20 -28 49 -3 27 -6 33 -12 22z m60 -530 c7 -52 7 -62 4 -89 -2 -17 -5 -11
-10 20 -4 25 -10 63 -15 85 -6 31 -5 37 4 29 7 -6 14 -26 17 -45z"/>
<path d="M2626 2250 c4 -14 7 -34 7 -45 0 -11 4 -38 9 -60 10 -38 11 -39 19
-16 10 25 -13 115 -33 136 -7 7 -8 2 -2 -15z"/>
<path d="M685 2241 c-3 -10 -1 -30 5 -45 13 -34 13 -39 0 -31 -6 4 -10 -7 -10
-25 0 -18 4 -29 10 -25 6 3 10 15 10 25 0 10 3 21 8 23 6 4 7 22 3 85 -1 19
-19 14 -26 -7z"/>
<path d="M1557 2225 c18 -25 33 -32 33 -17 0 10 -33 42 -44 42 -4 0 1 -11 11
-25z"/>
<path d="M737 2223 c-11 -10 -8 -91 3 -98 6 -4 10 15 10 49 0 57 -1 61 -13 49z"/>
<path d="M2310 2211 c0 -11 5 -23 10 -26 6 -4 10 5 10 19 0 14 -4 26 -10 26
-5 0 -10 -9 -10 -19z"/>
<path d="M2470 2204 c0 -28 16 -65 34 -76 7 -5 4 -8 -7 -8 -10 0 -16 -4 -13
-9 8 -12 63 -19 77 -10 14 8 5 39 -11 39 -6 0 -8 -4 -5 -10 3 -5 2 -10 -4 -10
-5 0 -13 9 -16 20 -3 11 -10 20 -15 20 -5 0 -12 16 -16 35 -7 41 -24 47 -24 9z"/>
<path d="M2355 2170 c-6 -9 2 -15 52 -41 24 -12 33 -13 37 -4 5 14 -81 57 -89
45z"/>
<path d="M658 2155 c-6 -18 -13 -233 -9 -292 2 -33 21 -28 21 5 0 30 26 92 39
92 4 0 7 8 7 18 1 9 4 44 7 77 7 57 6 59 -8 30 -8 -16 -14 -41 -15 -54 0 -13
-3 -21 -7 -17 -4 4 -7 24 -6 44 1 29 0 31 -5 12 -5 -18 -8 -6 -12 40 -3 43 -7
58 -12 45z"/>
<path d="M761 2134 c0 -11 3 -14 6 -6 3 7 2 16 -1 19 -3 4 -6 -2 -5 -13z"/>
<path d="M1480 2133 c0 -11 102 -103 114 -103 6 0 -14 25 -44 55 -51 52 -70
65 -70 48z"/>
<path d="M2611 2126 c-8 -9 -11 -19 -7 -23 9 -9 29 13 24 27 -2 8 -8 7 -17 -4z"/>
<path d="M952 2108 c5 -15 28 -23 28 -10 0 5 -7 13 -16 16 -10 4 -14 1 -12 -6z"/>
<path d="M1000 2096 c0 -32 48 -119 61 -111 8 6 -34 111 -52 130 -5 5 -9 -1
-9 -19z"/>
<path d="M1077 2109 c-24 -14 -22 -26 13 -68 17 -20 35 -41 40 -48 12 -14 13
-53 3 -53 -5 0 -19 9 -32 19 -25 19 -65 17 -55 -3 4 -6 -5 3 -20 19 -14 17
-25 38 -26 47 0 9 -5 20 -11 24 -9 5 -10 -1 -5 -22 5 -16 9 -53 10 -82 2 -45
0 -52 -14 -47 -21 7 -35 -32 -18 -52 6 -8 8 -16 5 -20 -4 -3 -12 6 -18 20 -6
14 -17 28 -25 31 -16 6 -27 -23 -14 -39 6 -7 6 -15 0 -21 -7 -7 -7 -35 0 -85
6 -41 13 -99 17 -129 8 -78 13 -75 13 9 0 60 3 72 15 68 11 -5 12 -1 5 17 -8
21 -6 23 22 20 23 -3 28 -1 21 9 -5 6 -9 19 -8 27 1 8 3 26 4 40 1 17 4 21 9
12 6 -9 16 -10 34 -3 14 5 29 7 32 4 3 -3 12 0 21 7 8 7 15 9 16 4 0 -5 3 -1
7 8 6 13 10 14 23 5 13 -10 17 -39 22 -145 6 -135 10 -157 29 -146 7 4 8 42 4
110 -3 59 -2 105 3 109 16 10 22 -47 15 -160 -11 -173 -11 -180 6 -181 8 0 20
-2 25 -4 6 -1 17 -3 25 -4 24 -2 20 -45 -6 -63 -31 -20 -19 -43 35 -71 40 -21
65 -14 54 14 -4 10 3 14 21 14 35 0 33 14 -9 57 -19 20 -35 43 -35 51 0 8 -6
12 -15 9 -27 -11 -29 16 -2 37 26 21 26 24 21 109 -3 55 -1 87 6 87 5 0 10 -8
10 -17 0 -16 2 -16 11 -3 10 15 7 -48 -7 -161 -4 -31 -2 -49 6 -54 18 -11 22
0 22 69 0 52 3 66 15 66 13 0 14 -11 9 -64 -6 -47 -3 -73 8 -101 9 -21 16 -50
16 -65 0 -15 7 -30 15 -33 12 -5 13 2 8 36 -5 37 -4 40 11 28 19 -16 19 -18 1
43 -10 34 -12 53 -5 61 6 7 10 17 8 21 -5 20 14 53 28 47 7 -3 14 0 14 6 0 6
7 11 16 11 11 0 14 8 12 27 -2 22 -9 27 -36 30 -26 3 -34 0 -41 -19 -5 -13 -6
-30 -3 -38 3 -9 -2 -6 -11 5 -19 23 -22 62 -6 67 6 2 2 14 -10 28 -11 14 -20
19 -21 13 0 -7 -5 -13 -11 -13 -6 0 -10 10 -9 23 5 50 1 58 -26 55 -15 -2 -29
2 -31 9 -3 7 3 9 17 6 16 -4 19 -2 14 11 -6 15 -2 14 30 -3 80 -45 108 -4 34
49 -44 33 -62 33 -33 0 30 -33 7 -23 -30 14 -19 18 -35 41 -35 50 0 10 -6 16
-12 13 -7 -2 -21 2 -30 10 -19 17 -38 10 -38 -13 0 -9 -6 -14 -12 -11 -7 2
-11 8 -9 13 2 5 6 17 9 27 2 9 10 17 18 17 9 0 2 23 -23 73 -44 88 -40 84 -63
69 -17 -10 -20 -10 -20 4 0 8 -5 12 -11 9 -6 -4 -8 -14 -4 -22 4 -13 3 -14
-10 -3 -9 7 -13 21 -9 34 7 29 -15 48 -39 35z m93 -139 c0 -13 -1 -13 -10 0
-5 8 -10 22 -10 30 0 13 1 13 10 0 5 -8 10 -22 10 -30z m-101 -115 c0 -5 -6
-1 -14 9 -8 11 -15 24 -15 30 0 5 7 1 15 -10 8 -10 14 -23 14 -29z m-49 -4
c-5 -10 -6 -21 -3 -25 3 -3 1 -6 -4 -6 -6 0 -13 6 -16 13 -6 17 12 49 24 42 6
-4 5 -13 -1 -24z m172 2 c11 -9 18 -29 17 -47 l-1 -31 -11 35 c-6 19 -18 40
-26 47 -9 7 -12 13 -7 13 5 0 18 -7 28 -17z m-87 -3 c3 -5 1 -10 -4 -10 -6 0
-11 5 -11 10 0 6 2 10 4 10 3 0 8 -4 11 -10z m215 -71 c0 -31 -19 -51 -21 -22
-1 10 -1 23 0 29 1 6 -8 19 -19 29 -31 28 -24 38 10 13 21 -15 30 -30 30 -49z
m-360 11 c0 -11 -4 -20 -10 -20 -5 0 -10 9 -10 20 0 11 5 20 10 20 6 0 10 -9
10 -20z m19 -32 c0 -31 -3 -37 -8 -24 -7 18 -3 66 5 66 2 0 4 -19 3 -42z m304
-81 c-3 -15 -9 -27 -14 -27 -5 0 -9 -11 -9 -25 0 -14 -4 -25 -10 -25 -5 0 -10
14 -10 31 0 16 4 28 9 24 17 -10 24 18 8 30 -10 7 -17 25 -17 41 l0 29 24 -26
c17 -18 22 -33 19 -52z"/>
<path d="M1696 2098 c8 -28 12 -33 20 -25 9 8 -6 47 -17 47 -6 0 -7 -10 -3
-22z"/>
<path d="M2398 2083 c12 -8 22 -20 22 -26 0 -5 -9 -2 -19 7 -12 11 -21 14 -26
7 -3 -6 5 -16 19 -23 14 -6 26 -14 26 -17 0 -3 3 -16 6 -28 5 -17 2 -23 -11
-23 -9 0 -19 9 -22 20 -10 37 -26 22 -18 -17 42 -223 48 -248 62 -281 8 -18
12 -40 9 -49 -4 -9 -2 -21 3 -27 5 -6 13 -36 17 -66 7 -51 6 -54 -9 -41 -20
16 -21 12 -7 -23 12 -32 50 -36 50 -7 0 11 4 22 9 25 17 11 19 59 5 119 -14
60 -13 108 1 55 4 -16 12 -28 17 -28 6 0 7 7 4 16 -3 9 -6 24 -6 35 0 12 -5
16 -15 13 -8 -4 -15 -1 -15 5 0 6 -5 11 -11 11 -8 0 -10 -16 -6 -52 l6 -53
-14 34 c-8 18 -15 42 -15 52 0 10 -8 45 -19 76 -26 83 -43 155 -36 161 10 10
35 -24 40 -54 18 -108 28 -144 41 -144 8 0 14 -4 14 -10 0 -5 5 -10 10 -10 13
0 13 31 -1 50 -9 13 -11 13 -17 0 -3 -8 -12 21 -19 64 -7 43 -11 82 -7 85 3 3
14 -4 24 -17 27 -33 87 -312 70 -322 -5 -3 -5 -12 0 -20 7 -12 12 -12 21 -3
10 10 7 40 -15 140 -16 71 -35 164 -43 208 -8 44 -18 82 -23 85 -8 5 -10 50
-2 50 2 0 8 -13 13 -30 6 -16 15 -30 20 -30 15 0 11 15 -14 51 -37 55 -77 46
-47 -11 7 -13 7 -21 -1 -25 -15 -10 -22 1 -21 32 0 21 -6 31 -26 41 -36 17
-52 14 -24 -5z m88 -121 c-10 -10 -29 15 -21 28 6 9 10 8 17 -4 6 -10 7 -20 4
-24z"/>
<path d="M820 2082 c0 -5 11 -19 25 -32 30 -28 34 -13 5 18 -22 23 -30 27 -30
14z"/>
<path d="M935 2055 c4 -22 11 -44 17 -50 13 -14 4 47 -12 72 -9 15 -10 11 -5
-22z"/>
<path d="M1849 2075 c-7 -6 -1 -146 5 -153 7 -7 9 15 7 93 -2 60 -4 69 -12 60z"/>
<path d="M1966 2064 c-9 -22 -8 -24 9 -24 8 0 15 6 15 14 0 22 -17 28 -24 10z"/>
<path d="M2165 2057 c-8 -19 -2 -31 13 -26 5 2 6 13 2 24 -7 19 -8 19 -15 2z"/>
<path d="M2230 2060 c0 -5 9 -14 20 -20 22 -12 27 -1 8 18 -14 14 -28 16 -28
2z"/>
<path d="M471 2044 c-1 -6 6 -17 14 -24 8 -7 15 -23 15 -36 0 -27 19 -42 30
-24 10 17 -21 81 -37 75 -6 -2 -14 1 -17 8 -3 8 -5 8 -5 1z"/>
<path d="M540 2023 c0 -28 10 -53 21 -53 11 0 1 50 -12 65 -5 5 -9 0 -9 -12z"/>
<path d="M1510 2017 c0 -8 21 -30 48 -49 39 -29 47 -40 47 -66 0 -18 -3 -32
-7 -32 -4 0 -4 -16 -1 -35 4 -22 2 -35 -5 -35 -6 0 -9 -6 -6 -14 3 -8 0 -24
-6 -36 -6 -12 -8 -26 -3 -33 5 -7 7 -34 6 -62 -1 -27 -2 -61 -3 -75 0 -20 -2
-22 -10 -10 -9 13 -10 13 -10 -1 0 -8 4 -19 10 -25 6 -6 6 -22 0 -44 -6 -19
-10 -43 -10 -52 0 -30 17 -20 24 13 3 17 10 28 15 24 6 -3 8 -12 5 -19 -3 -8
-1 -17 5 -21 7 -4 12 15 13 57 1 35 3 90 4 123 2 62 21 159 23 118 0 -13 7
-23 15 -23 8 0 16 -3 19 -7 2 -5 1 -1 -1 7 -3 8 -5 25 -4 38 4 55 4 71 0 142
-4 76 -11 100 -29 100 -6 0 -8 -4 -4 -10 8 -13 -5 -60 -17 -60 -6 0 -8 9 -5
20 3 11 1 22 -3 25 -5 3 -10 -2 -12 -11 -2 -14 -7 -13 -28 7 -58 55 -70 63
-70 46z m130 -133 c0 -13 5 -24 10 -24 6 0 10 -10 10 -22 0 -19 -2 -20 -14 -8
-18 19 -34 96 -17 86 6 -4 11 -18 11 -32z m-33 -356 c-3 -7 -5 -2 -5 12 0 14
2 19 5 13 2 -7 2 -19 0 -25z"/>
<path d="M1988 1998 c-3 -30 -4 -31 -20 -15 -23 23 -28 21 -28 -10 0 -26 -1
-27 -14 -8 -7 11 -16 29 -19 40 -4 19 -5 18 -6 -2 0 -12 -5 -24 -9 -27 -5 -3
-9 -26 -10 -53 -1 -26 -5 -60 -8 -75 -3 -14 -1 -29 4 -32 5 -3 12 12 16 34 10
61 29 51 21 -11 -5 -37 -4 -50 4 -45 6 4 11 17 11 29 0 12 4 28 9 36 12 18 3
41 -15 41 -16 0 -19 26 -4 35 6 3 10 1 10 -5 0 -6 5 -8 10 -5 6 3 10 0 10 -7
0 -9 3 -9 10 2 8 13 11 12 16 -6 4 -15 12 -20 24 -17 11 3 24 -4 34 -18 l16
-23 0 22 c0 13 -6 22 -15 22 -12 0 -15 14 -15 65 0 50 -3 65 -14 65 -9 0 -16
-12 -18 -32z"/>
<path d="M1610 2011 c0 -5 5 -13 10 -16 6 -3 10 -2 10 4 0 5 -4 13 -10 16 -5
3 -10 2 -10 -4z"/>
<path d="M2206 2004 c-3 -9 -6 -33 -6 -55 l0 -40 -32 17 -33 16 32 -30 c29
-27 31 -34 26 -69 -6 -33 -4 -36 9 -25 11 9 15 27 13 63 -1 27 3 55 9 62 6 7
10 19 10 27 -1 8 -2 23 -3 33 -1 21 -17 22 -25 1z"/>
<path d="M2325 1973 c3 -27 10 -61 15 -78 5 -16 11 -50 13 -75 4 -48 21 -90
37 -90 12 0 12 6 1 28 -11 18 -36 135 -47 215 -3 26 -10 47 -16 47 -5 0 -6
-21 -3 -47z"/>
<path d="M2641 1994 c-7 -8 -10 -18 -6 -22 3 -3 10 0 16 8 14 23 27 -4 34 -70
3 -30 11 -64 16 -74 6 -10 13 -64 15 -120 2 -56 6 -135 9 -176 2 -41 5 -78 5
-82 0 -15 38 -8 44 8 3 9 6 37 6 62 -1 46 -1 46 -15 22 -16 -28 -17 -25 -19
40 -5 133 -20 262 -37 315 -10 33 -19 67 -19 76 0 9 -7 20 -16 23 -19 7 -16 8
-33 -10z"/>
<path d="M2153 1979 c-1 -12 3 -19 10 -16 17 5 21 37 5 37 -8 0 -14 -9 -15
-21z"/>
<path d="M2260 1981 c0 -10 30 -24 37 -17 3 2 -5 9 -16 16 -12 6 -21 7 -21 1z"/>
<path d="M2538 1975 c-4 -4 -3 -18 2 -31 6 -14 12 -35 14 -47 2 -12 9 -42 15
-67 6 -25 11 -60 11 -77 0 -18 5 -33 11 -33 8 0 10 19 5 63 -7 69 -48 202 -58
192z"/>
<path d="M1510 1962 c0 -5 14 -18 30 -30 35 -27 40 -15 7 16 -24 23 -37 28
-37 14z"/>
<path d="M914 1945 c1 -8 5 -18 9 -21 4 -4 7 -16 7 -26 0 -10 5 -18 10 -18 13
0 13 4 -4 45 -16 36 -26 46 -22 20z"/>
<path d="M450 1926 c0 -7 9 -16 20 -19 23 -6 26 3 8 21 -16 16 -28 15 -28 -2z"/>
<path d="M500 1935 c0 -15 34 -69 37 -59 5 16 -15 64 -27 64 -5 0 -10 -2 -10
-5z"/>
<path d="M586 1907 c3 -10 9 -15 12 -12 3 3 0 11 -7 18 -10 9 -11 8 -5 -6z"/>
<path d="M866 1907 c3 -10 9 -15 12 -12 3 3 0 11 -7 18 -10 9 -11 8 -5 -6z"/>
<path d="M2100 1891 c0 -12 5 -21 10 -21 6 0 10 6 10 14 0 8 -4 18 -10 21 -5
3 -10 -3 -10 -14z"/>
<path d="M2140 1894 c0 -8 5 -12 10 -9 6 3 10 10 10 16 0 5 -4 9 -10 9 -5 0
-10 -7 -10 -16z"/>
<path d="M1779 1860 c-6 -45 -4 -58 7 -48 3 3 4 26 2 49 l-3 44 -6 -45z"/>
<path d="M490 1876 c0 -9 5 -16 10 -16 6 0 10 4 10 9 0 6 -4 13 -10 16 -5 3
-10 -1 -10 -9z"/>
<path d="M2226 1882 c-3 -5 3 -17 14 -27 11 -10 20 -26 20 -36 0 -9 5 -19 11
-21 14 -5 30 -88 16 -88 -5 0 -25 9 -43 21 -27 16 -33 17 -28 5 3 -9 9 -16 13
-16 3 0 22 -15 42 -33 31 -28 36 -39 38 -81 1 -28 4 -53 7 -58 3 -4 3 -8 -1
-8 -3 0 -10 11 -15 25 -5 14 -15 25 -21 25 -6 0 -9 -7 -6 -15 33 -85 60 -284
37 -270 -7 4 -9 -3 -5 -22 6 -25 5 -26 -8 -11 -8 10 -17 15 -20 11 -11 -10 -8
-43 3 -43 6 0 10 -11 10 -25 0 -25 5 -35 45 -79 11 -13 21 -36 22 -51 1 -16 7
-33 14 -39 9 -8 10 -3 5 22 -3 21 -2 31 4 27 13 -8 13 -4 -4 35 -12 30 -14 31
-24 14 -10 -17 -11 -15 -12 14 0 17 5 32 10 32 6 0 10 -5 10 -12 0 -9 3 -9 12
0 14 14 7 22 -19 26 -14 3 -17 11 -15 42 1 21 3 88 4 147 0 59 4 104 8 100 3
-4 12 -33 19 -63 7 -30 16 -66 21 -80 4 -14 11 -33 14 -43 9 -29 45 -5 39 26
-3 14 0 27 5 31 7 4 6 15 -1 31 -16 34 -27 31 -27 -7 0 -47 -18 -23 -31 42 -6
30 -15 73 -19 94 -4 22 -15 45 -25 52 -9 7 -12 15 -6 18 7 5 8 61 1 61 -1 0
-7 26 -14 58 -7 31 -9 57 -4 57 17 0 7 50 -11 60 -11 5 -23 19 -26 30 -4 11
-11 18 -16 14 -6 -3 -16 -1 -24 6 -7 6 -16 7 -19 2z m94 -86 c0 -3 -4 -8 -10
-11 -5 -3 -10 -1 -10 4 0 6 5 11 10 11 6 0 10 -2 10 -4z"/>
<path d="M2060 1878 c0 -2 8 -20 19 -40 14 -28 21 -34 30 -25 8 8 11 6 11 -10
0 -30 16 -37 24 -10 9 34 8 37 -14 37 -11 0 -20 3 -20 8 -1 7 -50 47 -50 40z"/>
<path d="M1733 1830 c0 -16 4 -30 9 -30 10 0 10 31 0 48 -6 8 -9 2 -9 -18z"/>
<path d="M490 1841 c0 -17 41 -136 50 -145 6 -6 10 -6 10 -2 0 21 -46 156 -52
156 -5 0 -8 -4 -8 -9z"/>
<path d="M520 1846 c0 -3 11 -26 25 -52 14 -26 25 -52 25 -57 0 -6 7 -18 16
-28 8 -9 17 -23 18 -31 15 -73 21 -90 37 -99 23 -12 24 -7 3 33 -13 25 -14 32
-2 39 10 7 7 19 -15 63 -16 30 -29 61 -31 69 -4 28 -37 67 -56 67 -11 0 -20
-2 -20 -4z"/>
<path d="M615 1840 c3 -5 11 -10 16 -10 6 0 7 5 4 10 -3 6 -11 10 -16 10 -6 0
-7 -4 -4 -10z"/>
<path d="M1971 1822 c-13 -25 -14 -32 -2 -32 9 0 23 41 16 48 -2 2 -8 -5 -14
-16z"/>
<path d="M1830 1822 c0 -5 9 -17 19 -26 11 -10 17 -25 14 -37 -6 -22 3 -25 22
-5 12 12 10 18 -15 45 -31 32 -40 37 -40 23z"/>
<path d="M2020 1789 c0 -24 4 -38 10 -34 6 3 10 22 10 41 0 19 -4 34 -10 34
-5 0 -10 -18 -10 -41z"/>
<path d="M2626 1814 c-9 -22 3 -32 14 -14 12 19 12 30 1 30 -5 0 -12 -7 -15
-16z"/>
<path d="M2750 1778 c0 -42 8 -68 21 -68 11 0 0 81 -12 95 -5 5 -9 -6 -9 -27z"/>
<path d="M1112 1716 c5 -78 4 -83 -13 -79 -14 4 -19 15 -20 42 0 20 -4 45 -8
55 -13 33 -18 -2 -12 -71 5 -50 4 -60 -6 -51 -7 6 -13 16 -13 22 0 13 -41 56
-53 56 -3 0 -4 -10 -1 -22 2 -13 12 -78 21 -145 18 -133 38 -166 31 -53 -2 39
-1 70 2 70 15 0 30 -27 30 -55 0 -41 10 -75 22 -75 6 0 8 24 6 55 -3 52 6 72
18 40 4 -8 10 -15 15 -15 14 0 28 43 19 55 -5 6 -8 52 -8 103 0 102 -8 152
-24 152 -7 0 -9 -28 -6 -84z m-2 -96 c8 -5 12 -11 9 -14 -3 -3 -14 1 -25 9
-21 16 -8 20 16 5z m-4 -32 c7 -12 14 -48 8 -48 -1 0 -15 7 -30 15 -28 14 -28
15 -5 15 20 0 21 2 11 15 -8 9 -9 15 -2 15 6 0 14 -6 18 -12z"/>
<path d="M2657 1793 c-4 -3 -7 -15 -7 -25 0 -26 24 -17 28 10 3 21 -8 29 -21
15z"/>
<path d="M1930 1783 c0 -7 5 -15 10 -18 6 -3 10 -15 10 -26 0 -31 24 -17 28
16 3 21 0 26 -11 22 -8 -3 -20 0 -26 6 -8 8 -11 8 -11 0z"/>
<path d="M1028 1774 c-5 -4 -8 -19 -8 -33 0 -18 3 -22 11 -14 6 6 9 21 7 33
-1 12 -6 18 -10 14z"/>
<path d="M624 1754 c9 -8 19 -26 22 -40 3 -13 13 -24 20 -24 12 0 12 4 4 21
-16 29 -43 59 -53 59 -5 0 -1 -7 7 -16z"/>
<path d="M1823 1745 c0 -14 3 -25 8 -25 5 0 9 11 9 25 0 14 -4 25 -9 25 -5 0
-8 -11 -8 -25z"/>
<path d="M1735 1750 c3 -5 11 -10 16 -10 6 0 7 5 4 10 -3 6 -11 10 -16 10 -6
0 -7 -4 -4 -10z"/>
<path d="M2181 1703 c0 -25 1 -26 9 -8 12 27 12 35 0 35 -5 0 -10 -12 -9 -27z"/>
<path d="M1540 1707 c0 -8 7 -17 15 -21 8 -3 15 -2 15 3 0 5 -7 14 -15 21 -12
10 -15 10 -15 -3z"/>
<path d="M2077 1714 c-9 -9 -9 -48 -1 -57 7 -6 44 35 44 48 0 4 -6 5 -14 2 -8
-3 -16 -1 -18 4 -2 6 -7 7 -11 3z"/>
<path d="M2384 1703 c18 -61 27 -118 29 -185 1 -55 6 -78 15 -78 11 0 9 55 -3
97 -3 7 -1 12 3 10 15 -5 13 21 -9 96 -12 42 -26 77 -31 77 -5 0 -7 -8 -4 -17z"/>
<path d="M2660 1681 c0 -16 5 -33 10 -36 6 -4 10 6 10 24 0 16 -4 33 -10 36
-6 4 -10 -6 -10 -24z"/>
<path d="M560 1681 c0 -16 12 -41 20 -41 4 0 5 11 2 25 -4 23 -22 36 -22 16z"/>
<path d="M1460 1683 c0 -17 27 -46 33 -36 4 6 -2 18 -13 28 -11 10 -20 14 -20
8z"/>
<path d="M1516 1676 c3 -9 11 -16 16 -16 13 0 5 23 -10 28 -7 2 -10 -2 -6 -12z"/>
<path d="M2770 1668 c0 -15 -5 -39 -10 -53 -9 -23 -8 -26 7 -23 21 4 31 74 14
91 -8 8 -11 3 -11 -15z"/>
<path d="M475 1670 c3 -5 8 -10 11 -10 2 0 4 5 4 10 0 6 -5 10 -11 10 -5 0 -7
-4 -4 -10z"/>
<path d="M508 1657 c-3 -14 -2 -24 3 -22 4 3 10 1 14 -5 8 -12 25 -13 25 -1 0
5 -8 19 -19 32 l-18 22 -5 -26z"/>
<path d="M2242 1655 c4 -17 1 -25 -9 -25 -8 0 -12 -6 -9 -12 3 -7 9 -21 12
-30 4 -10 10 -18 14 -18 10 0 23 87 15 100 -12 20 -27 10 -23 -15z"/>
<path d="M950 1631 c0 -17 5 -51 10 -74 11 -46 28 -197 22 -197 -11 0 -35 34
-26 37 13 4 -4 93 -18 93 -10 0 -10 -3 1 -33 13 -34 3 -41 -19 -14 -15 18 -19
19 -23 7 -11 -34 -15 -90 -6 -90 5 0 9 10 9 23 0 22 1 22 13 -3 7 -14 9 -26 5
-28 -14 -6 -9 -28 10 -45 10 -10 21 -15 23 -13 3 3 13 -8 24 -25 11 -16 26
-29 33 -29 15 0 16 -17 1 -22 -5 -2 -7 -11 -4 -21 4 -9 11 -14 16 -11 5 3 6
-3 2 -13 -3 -10 -3 -15 2 -11 4 4 26 -9 49 -28 28 -24 47 -33 61 -30 13 3 27
-2 38 -14 16 -19 37 -27 37 -14 0 8 -96 104 -104 104 -3 0 -6 -7 -6 -15 0 -8
4 -15 9 -15 5 0 12 -7 15 -16 6 -15 4 -15 -11 -3 -67 55 -119 139 -99 159 7 7
3 10 -14 8 -15 -2 -25 3 -27 12 -2 10 5 15 22 15 14 0 25 -3 25 -6 0 -4 6 -9
13 -12 19 -7 9 41 -14 72 -11 13 -19 38 -19 55 0 17 -7 72 -16 121 -16 94 -34
134 -34 76z m10 -294 c0 -5 -4 -5 -10 -2 -5 3 -10 14 -10 23 0 15 2 15 10 2 5
-8 10 -19 10 -23z"/>
<path d="M2122 1635 c0 -16 2 -22 5 -12 2 9 2 23 0 30 -3 6 -5 -1 -5 -18z"/>
<path d="M2178 1631 c9 -16 20 -27 24 -25 9 6 -22 53 -34 54 -4 0 0 -13 10
-29z"/>
<path d="M2535 1641 c-3 -5 -1 -12 5 -16 5 -3 10 1 10 9 0 18 -6 21 -15 7z"/>
<path d="M450 1621 c0 -5 5 -13 10 -16 6 -3 10 -2 10 4 0 5 -4 13 -10 16 -5 3
-10 2 -10 -4z"/>
<path d="M1650 1591 c0 -5 5 -13 10 -16 6 -3 10 -2 10 4 0 5 -4 13 -10 16 -5
3 -10 2 -10 -4z"/>
<path d="M2017 1593 c-12 -12 -7 -22 8 -17 8 4 15 10 15 15 0 11 -14 12 -23 2z"/>
<path d="M2134 1586 c-4 -11 3 -25 22 -41 26 -23 28 -27 17 -56 -10 -25 -10
-30 2 -25 9 3 15 -4 17 -22 4 -26 4 -26 21 12 14 33 19 37 32 26 9 -7 18 -10
22 -7 3 4 -6 16 -20 28 -15 11 -27 28 -27 37 0 9 -5 24 -10 32 -8 12 -12 13
-19 2 -7 -11 -13 -9 -29 9 -19 20 -22 20 -28 5z"/>
<path d="M2622 1580 c0 -14 2 -19 5 -12 2 6 2 18 0 25 -3 6 -5 1 -5 -13z"/>
<path d="M2645 1580 c-3 -5 -1 -10 4 -10 6 0 11 5 11 10 0 6 -2 10 -4 10 -3 0
-8 -4 -11 -10z"/>
<path d="M2790 1553 c0 -35 1 -36 15 -17 19 25 19 54 0 54 -11 0 -15 -11 -15
-37z"/>
<path d="M2082 1569 c2 -7 10 -15 17 -17 8 -3 12 1 9 9 -2 7 -10 15 -17 17 -8
3 -12 -1 -9 -9z"/>
<path d="M2025 1557 c-4 -10 -5 -21 -1 -24 10 -10 18 4 13 24 -4 17 -4 17 -12
0z"/>
<path d="M2620 1543 c0 -4 5 -15 10 -23 8 -13 10 -13 10 2 0 9 -4 20 -10 23
-5 3 -10 3 -10 -2z"/>
<path d="M2087 1506 c4 -17 12 -23 28 -23 23 0 23 1 8 23 -8 13 -21 24 -28 24
-7 0 -11 -9 -8 -24z"/>
<path d="M2146 1512 c-3 -6 -1 -14 5 -17 15 -10 25 3 12 16 -7 7 -13 7 -17 1z"/>
<path d="M1510 1487 c-8 -14 -15 -59 -16 -117 -3 -83 -6 -96 -25 -111 -17 -12
-20 -22 -15 -43 3 -14 11 -26 16 -26 6 0 8 11 4 26 -6 22 -4 25 20 22 14 -2
32 -12 39 -23 13 -17 14 -17 21 9 7 29 0 50 -14 41 -8 -5 -20 17 -20 38 0 8 4
7 12 -1 17 -17 28 -15 29 6 0 14 3 13 16 -5 19 -28 45 -31 36 -5 -6 15 -5 15
10 3 15 -12 17 -11 17 8 0 11 -4 21 -10 21 -5 0 -10 9 -10 20 0 11 5 20 10 20
6 0 10 5 10 10 0 6 -7 10 -16 10 -9 0 -29 8 -45 17 -24 14 -29 24 -29 54 0 43
-20 56 -40 26z m44 -118 c-13 -21 -24 -6 -24 34 l1 42 14 -34 c8 -18 12 -37 9
-42z m43 -23 c-6 -17 -21 -13 -25 6 -3 13 1 16 13 12 9 -4 14 -12 12 -18z"/>
<path d="M2521 1494 c0 -11 3 -14 6 -6 3 7 2 16 -1 19 -3 4 -6 -2 -5 -13z"/>
<path d="M2575 1490 c3 -5 8 -10 11 -10 2 0 4 5 4 10 0 6 -5 10 -11 10 -5 0
-7 -4 -4 -10z"/>
<path d="M1731 1471 c-8 -6 -9 -11 -3 -15 6 -3 14 -1 17 5 9 14 2 20 -14 10z"/>
<path d="M490 1462 c0 -14 39 -46 47 -39 3 4 -2 16 -12 27 -19 21 -35 26 -35
12z"/>
<path d="M2580 1428 c0 -20 -3 -43 -6 -52 -3 -9 -2 -16 4 -16 13 0 23 83 11
95 -5 5 -9 -4 -9 -27z"/>
<path d="M788 1420 c-7 -24 -3 -38 8 -28 3 4 4 17 2 30 l-3 23 -7 -25z"/>
<path d="M1670 1431 c0 -5 5 -13 10 -16 6 -3 10 -2 10 4 0 5 -4 13 -10 16 -5
3 -10 2 -10 -4z"/>
<path d="M2090 1415 c1 -18 49 -65 67 -65 27 0 48 -16 34 -25 -7 -4 -19 -1
-27 6 -17 14 -27 8 -19 -14 6 -13 31 -27 60 -31 6 -1 20 -7 33 -14 21 -12 22
-11 22 26 0 25 -6 45 -17 53 -15 12 -16 12 -11 -6 3 -11 9 -28 13 -39 6 -14 4
-18 -6 -14 -8 2 -15 19 -17 36 -2 20 -9 32 -18 32 -18 0 -96 40 -106 55 -5 7
-8 7 -8 0z"/>
<path d="M2532 1400 c0 -14 2 -19 5 -12 2 6 2 18 0 25 -3 6 -5 1 -5 -13z"/>
<path d="M2630 1395 c-6 -15 -8 -30 -6 -33 3 -3 10 8 16 23 6 15 8 30 6 33 -3
3 -10 -8 -16 -23z"/>
<path d="M1662 1360 c-16 -26 -15 -40 1 -40 8 0 14 12 14 30 0 17 -1 30 -1 30
-1 0 -7 -9 -14 -20z"/>
<path d="M2534 1335 c-4 -24 -2 -40 6 -48 10 -10 12 -7 7 11 -3 12 -2 22 2 22
10 0 11 39 1 45 -5 3 -12 -11 -16 -30z"/>
<path d="M2290 1334 c0 -8 5 -12 10 -9 6 3 10 10 10 16 0 5 -4 9 -10 9 -5 0
-10 -7 -10 -16z"/>
<path d="M1800 1328 c0 -32 13 -88 20 -88 5 0 8 23 8 50 1 37 -3 50 -14 50 -8
0 -14 -6 -14 -12z"/>
<path d="M2480 1333 c0 -7 4 -14 9 -17 5 -3 7 -27 5 -53 l-3 -48 10 49 c8 41
7 52 -5 65 -10 9 -16 11 -16 4z"/>
<path d="M1060 1313 c0 -12 38 -48 45 -41 3 2 -6 15 -20 28 -14 13 -25 19 -25
13z"/>
<path d="M1170 1311 c0 -6 5 -13 10 -16 6 -3 10 1 10 9 0 9 -4 16 -10 16 -5 0
-10 -4 -10 -9z"/>
<path d="M648 1304 c-5 -4 -8 -23 -8 -43 0 -25 3 -32 11 -24 6 6 9 25 7 43 -2
17 -6 28 -10 24z"/>
<path d="M1037 1274 c3 -8 11 -14 19 -14 21 0 17 17 -5 23 -14 3 -18 1 -14 -9z"/>
<path d="M2140 1263 c0 -22 2 -25 10 -13 13 20 13 40 0 40 -5 0 -10 -12 -10
-27z"/>
<path d="M2420 1280 c0 -5 5 -10 10 -10 6 0 10 5 10 10 0 6 -4 10 -10 10 -5 0
-10 -4 -10 -10z"/>
<path d="M550 1272 c0 -5 7 -13 16 -16 10 -4 14 -1 12 6 -5 15 -28 23 -28 10z"/>
<path d="M1740 1239 c0 -17 4 -28 10 -24 6 3 10 17 10 31 0 13 -4 24 -10 24
-5 0 -10 -14 -10 -31z"/>
<path d="M1120 1244 c0 -8 5 -12 10 -9 6 4 8 11 5 16 -9 14 -15 11 -15 -7z"/>
<path d="M2375 1250 c3 -5 8 -10 11 -10 2 0 4 5 4 10 0 6 -5 10 -11 10 -5 0
-7 -4 -4 -10z"/>
<path d="M956 1243 c-3 -3 -6 -17 -6 -30 0 -13 -4 -22 -9 -19 -9 6 -12 -93 -3
-108 3 -6 5 -61 5 -123 -1 -101 6 -136 20 -100 3 6 3 -5 0 -27 -5 -30 -3 -38
8 -34 17 5 25 68 10 77 -9 6 -14 97 -12 216 l1 40 24 -30 c14 -16 25 -35 26
-42 0 -7 7 -10 15 -7 13 5 14 -7 11 -82 -2 -49 -7 -101 -11 -116 -5 -18 -3
-28 4 -28 6 0 11 8 11 17 0 9 5 33 11 52 7 20 14 43 16 51 3 12 6 12 13 1 6
-11 9 -10 13 5 2 10 5 -9 6 -42 1 -42 5 -64 15 -67 11 -4 13 11 9 81 -4 97 -8
116 -23 107 -6 -4 -10 7 -10 26 0 22 -9 42 -27 61 -25 26 -55 38 -52 21 3 -20
-2 -34 -10 -28 -5 3 -9 19 -9 35 1 17 -7 39 -16 49 -10 11 -15 24 -12 30 7 11
-8 24 -18 14z m113 -149 c6 -15 9 -29 6 -32 -9 -10 -44 30 -38 44 8 21 18 17
32 -12z m8 -106 c-3 -7 -5 -2 -5 12 0 14 2 19 5 13 2 -7 2 -19 0 -25z"/>
<path d="M1401 1232 c-14 -26 -7 -42 10 -25 6 6 9 19 7 29 -3 17 -5 17 -17 -4z"/>
<path d="M2537 1218 c-7 -27 2 -45 14 -27 11 18 11 49 0 49 -5 0 -11 -10 -14
-22z"/>
<path d="M670 1210 c0 -19 3 -21 12 -12 9 9 9 15 0 24 -9 9 -12 7 -12 -12z"/>
<path d="M2460 1196 c0 -18 -4 -24 -15 -20 -12 5 -15 -2 -15 -30 0 -20 5 -36
10 -36 6 0 10 6 11 13 0 6 4 3 9 -8 8 -19 9 -19 9 3 1 12 5 22 9 22 13 0 8 73
-5 77 -8 3 -13 -5 -13 -21z"/>
<path d="M1210 1196 c0 -8 5 -18 10 -21 6 -3 10 -12 10 -18 0 -7 -7 -4 -15 7
-7 10 -19 16 -25 14 -7 -2 -3 -14 11 -32 l22 -28 -22 13 c-11 8 -24 22 -27 31
-5 18 -34 26 -34 10 0 -4 27 -31 60 -60 50 -44 60 -50 60 -33 0 12 5 21 10 21
6 0 10 9 10 19 0 11 -4 23 -10 26 -5 3 -10 17 -10 30 0 21 -17 35 -41 35 -5 0
-9 -6 -9 -14z"/>
<path d="M895 1099 c6 -83 5 -101 -6 -97 -7 2 -16 15 -20 29 -8 29 -14 15 -23
-48 -4 -26 -2 -43 4 -43 5 0 10 5 10 11 0 5 5 7 11 3 8 -4 9 1 4 17 -7 23 -7
24 9 4 8 -11 16 -37 16 -58 l0 -38 -22 21 c-31 29 -43 25 -19 -6 12 -15 21
-32 21 -39 0 -12 53 -75 63 -75 15 0 6 42 -14 69 -18 24 -19 33 -10 66 8 30 7
40 -4 52 -17 17 -19 29 -6 38 5 3 12 -3 15 -12 3 -10 3 25 0 77 -6 106 -10
130 -26 130 -7 0 -8 -33 -3 -101z"/>
<path d="M1561 1160 c12 -34 24 -38 33 -13 5 11 1 22 -10 30 -28 20 -34 15
-23 -17z"/>
<path d="M2101 1174 c0 -11 3 -14 6 -6 3 7 2 16 -1 19 -3 4 -6 -2 -5 -13z"/>
<path d="M2160 1182 c0 -13 39 -46 46 -39 3 3 3 10 -1 16 -9 15 -45 33 -45 23z"/>
<path d="M1421 1149 c-14 -42 -14 -48 2 -24 19 29 28 55 18 55 -5 0 -14 -14
-20 -31z"/>
<path d="M2220 1172 c0 -4 14 -21 30 -37 28 -27 45 -24 18 3 -7 7 -8 12 -3 12
5 0 25 -17 43 -37 l34 -38 -16 33 c-10 18 -26 42 -37 53 -20 20 -45 26 -33 8
4 -8 0 -8 -15 0 -11 7 -21 8 -21 3z"/>
<path d="M2002 1112 c-14 -64 -14 -62 -3 -62 11 0 26 82 19 102 -3 7 -10 -11
-16 -40z"/>
<path d="M2160 1141 c0 -5 5 -13 10 -16 6 -3 10 -2 10 4 0 5 -4 13 -10 16 -5
3 -10 2 -10 -4z"/>
<path d="M2403 1095 c-6 -27 -10 -51 -8 -53 9 -9 26 43 23 71 -3 29 -4 28 -15
-18z"/>
<path d="M1497 1123 c-12 -12 -7 -22 8 -17 8 4 15 10 15 15 0 11 -14 12 -23 2z"/>
<path d="M2297 1057 c2 -59 2 -59 13 -52 6 3 10 15 10 26 0 10 5 19 10 19 6 0
10 -6 10 -13 0 -7 9 -18 20 -25 11 -7 20 -9 20 -6 0 13 -35 64 -44 64 -5 0
-17 6 -25 14 -14 13 -16 10 -14 -27z"/>
<path d="M1134 1075 c-7 -16 3 -35 17 -35 6 0 7 5 4 10 -11 18 9 10 54 -20 24
-17 50 -30 57 -30 14 0 28 35 19 49 -5 9 -15 11 -77 12 -14 0 -32 6 -38 14
-16 19 -29 19 -36 0z m91 -25 c3 -5 1 -10 -4 -10 -6 0 -11 5 -11 10 0 6 2 10
4 10 3 0 8 -4 11 -10z"/>
<path d="M2165 1080 c3 -5 8 -10 11 -10 2 0 4 5 4 10 0 6 -5 10 -11 10 -5 0
-7 -4 -4 -10z"/>
<path d="M2210 1060 c0 -9 31 -30 44 -30 3 0 6 7 6 16 0 8 -4 13 -9 9 -5 -3
-12 -1 -16 5 -8 13 -25 13 -25 0z"/>
<path d="M1000 1026 c0 -15 18 -31 26 -23 7 7 -7 37 -17 37 -5 0 -9 -6 -9 -14z"/>
<path d="M1306 1024 c-4 -9 -4 -19 -1 -22 6 -6 35 18 35 29 0 16 -28 10 -34
-7z"/>
<path d="M1536 1032 c-7 -11 0 -26 49 -107 14 -22 25 -47 25 -56 0 -9 7 -22
15 -29 18 -15 20 -44 3 -34 -7 4 -2 -5 11 -19 19 -21 27 -24 38 -15 18 14 9
38 -39 109 -22 32 -38 64 -35 72 7 18 -57 94 -67 79z"/>
<path d="M2122 1003 c0 -31 4 -40 14 -36 10 3 12 13 8 27 -14 47 -23 51 -22 9z"/>
<path d="M2475 1030 c-4 -6 -10 -8 -14 -5 -7 4 -8 -9 -2 -49 2 -17 18 7 25 37
6 27 2 35 -9 17z"/>
<path d="M1150 981 c0 -27 5 -53 10 -56 6 -4 10 13 10 44 0 27 -4 53 -10 56
-6 4 -10 -13 -10 -44z"/>
<path d="M2230 998 c0 -16 5 -28 10 -28 13 0 13 20 0 40 -8 12 -10 9 -10 -12z"/>
<path d="M2010 996 c0 -8 5 -18 10 -21 6 -3 10 1 10 9 0 8 -4 18 -10 21 -5 3
-10 -1 -10 -9z"/>
<path d="M2417 976 c-5 -21 -6 -41 -3 -44 12 -11 17 7 14 44 l-3 39 -8 -39z"/>
<path d="M1191 983 c0 -5 4 -17 9 -28 8 -18 9 -17 9 8 1 15 -3 27 -9 27 -5 0
-10 -3 -9 -7z"/>
<path d="M1516 974 c-3 -9 -6 -27 -6 -40 l0 -25 -29 20 c-49 35 -69 24 -30
-18 23 -24 32 -82 19 -115 -7 -16 -9 -9 -9 29 -1 46 -5 55 -41 90 -22 21 -42
36 -45 34 -2 -3 4 -22 14 -43 12 -23 22 -33 27 -25 11 18 24 -13 17 -40 -6
-22 -7 -21 -44 15 -21 20 -43 50 -50 65 -6 16 -15 29 -20 29 -11 0 -12 -27 -1
-34 7 -4 8 -25 3 -56 -1 -3 -11 11 -23 30 -12 19 -21 38 -20 42 1 4 -7 12 -18
18 -16 9 -20 8 -21 -7 -3 -38 3 -148 8 -157 11 -17 21 18 16 52 -5 25 -3 33 5
28 7 -4 12 -32 12 -67 0 -48 3 -59 16 -59 13 0 15 7 11 30 -4 16 -4 36 -1 45
5 13 8 13 20 0 10 -10 13 -25 9 -49 -4 -20 -2 -36 4 -40 6 -4 11 -6 11 -4 4
42 13 114 16 117 7 7 15 -6 19 -31 15 -86 34 -138 52 -138 7 0 13 -4 13 -10 0
-5 7 -10 16 -10 11 0 15 6 11 19 -3 14 -1 18 9 14 8 -3 14 0 14 7 0 7 7 10 15
7 8 -4 17 -2 20 3 10 17 22 11 30 -12 4 -15 8 -18 12 -10 3 7 1 18 -4 25 -15
19 -10 62 6 59 20 -4 31 19 20 40 -6 12 -6 18 1 18 21 0 8 16 -34 43 l-45 28
6 50 c6 49 1 64 -11 33z m26 -215 l-19 -44 -7 42 c-9 50 9 81 32 58 12 -10 11
-20 -6 -56z m-42 16 c0 -8 -4 -15 -10 -15 -5 0 -10 7 -10 15 0 8 5 15 10 15 6
0 10 -7 10 -15z m-60 -15 c0 -5 -2 -10 -4 -10 -3 0 -8 5 -11 10 -3 6 -1 10 4
10 6 0 11 -4 11 -10z m30 -5 c0 -8 5 -15 10 -15 6 0 10 -9 10 -21 0 -15 -4
-19 -16 -15 -9 3 -18 6 -20 6 -2 0 -4 14 -4 30 0 17 5 30 10 30 6 0 10 -7 10
-15z"/>
<path d="M1530 800 c0 -5 5 -10 11 -10 5 0 7 5 4 10 -3 6 -8 10 -11 10 -2 0
-4 -4 -4 -10z"/>
<path d="M995 950 c3 -5 8 -10 11 -10 2 0 4 5 4 10 0 6 -5 10 -11 10 -5 0 -7
-4 -4 -10z"/>
<path d="M2196 933 c4 -16 11 -33 15 -39 5 -6 10 -23 11 -38 1 -14 6 -26 10
-26 11 0 5 114 -7 122 -23 17 -35 8 -29 -19z"/>
<path d="M1640 915 c7 -9 15 -13 17 -11 7 7 -7 26 -19 26 -6 0 -6 -6 2 -15z"/>
<path d="M1859 926 c-8 -9 1 -55 12 -62 10 -6 10 10 0 44 -3 13 -9 21 -12 18z"/>
<path d="M1880 921 c0 -5 5 -13 10 -16 6 -3 10 -2 10 4 0 5 -4 13 -10 16 -5 3
-10 2 -10 -4z"/>
<path d="M2090 913 c0 -23 17 -49 26 -41 9 10 -4 58 -16 58 -6 0 -10 -8 -10
-17z"/>
<path d="M1680 914 c0 -3 7 -12 15 -20 16 -17 18 -14 9 10 -6 15 -24 23 -24
10z"/>
<path d="M820 890 c0 -5 5 -10 11 -10 5 0 7 5 4 10 -3 6 -8 10 -11 10 -2 0 -4
-4 -4 -10z"/>
<path d="M1680 874 c1 -14 23 -39 53 -58 24 -16 27 -17 27 -2 0 9 -5 16 -12
16 -7 0 -25 12 -40 27 -15 15 -28 23 -28 17z"/>
<path d="M1080 858 c0 -7 5 -20 10 -28 8 -12 10 -9 10 13 0 15 -4 27 -10 27
-5 0 -10 -6 -10 -12z"/>
<path d="M2001 854 c0 -11 3 -14 6 -6 3 7 2 16 -1 19 -3 4 -6 -2 -5 -13z"/>
<path d="M1820 840 c0 -5 5 -10 11 -10 5 0 7 5 4 10 -3 6 -8 10 -11 10 -2 0
-4 -4 -4 -10z"/>
<path d="M1908 834 c-5 -4 -8 -16 -8 -28 0 -14 3 -17 11 -9 6 6 9 19 7 28 -1
9 -6 13 -10 9z"/>
<path d="M2200 810 c-8 -5 -11 -12 -7 -16 4 -4 13 -2 19 4 15 15 7 24 -12 12z"/>
<path d="M1933 780 c-6 -16 -8 -30 -3 -30 4 0 13 14 19 30 5 17 7 30 3 30 -4
0 -13 -13 -19 -30z"/>
<path d="M990 779 c0 -5 5 -7 10 -4 6 3 10 8 10 11 0 2 -4 4 -10 4 -5 0 -10
-5 -10 -11z"/>
<path d="M1068 765 c-3 -14 -1 -25 3 -25 5 0 9 11 9 25 0 14 -2 25 -4 25 -2 0
-6 -11 -8 -25z"/>
<path d="M1096 754 c-4 -15 -4 -29 -1 -32 8 -8 25 19 25 41 0 26 -17 20 -24
-9z"/>
<path d="M1810 762 c0 -5 7 -15 15 -22 8 -7 15 -8 15 -2 0 5 -7 15 -15 22 -8
7 -15 8 -15 2z"/>
<path d="M1850 760 c0 -21 16 -44 23 -33 4 6 0 19 -8 29 -11 15 -14 16 -15 4z"/>
<path d="M2040 750 c-6 -10 -17 -17 -24 -14 -8 3 -17 0 -21 -6 -4 -7 -1 -10 6
-9 8 2 24 -2 37 -9 18 -10 22 -10 22 0 0 7 3 23 6 36 8 27 -11 30 -26 2z"/>
<path d="M1761 750 c0 -16 22 -50 33 -50 11 0 6 14 -14 40 -13 16 -20 20 -19
10z"/>
<path d="M1148 740 c-4 -8 -9 -32 -13 -52 -7 -42 11 -54 21 -14 7 30 0 87 -8
66z"/>
<path d="M2107 743 c-4 -6 -3 -14 2 -17 5 -3 7 -16 4 -29 -4 -21 -4 -22 11 -3
17 22 21 41 7 31 -5 -3 -11 3 -13 12 -2 12 -6 14 -11 6z"/>
<path d="M1240 683 c1 -44 2 -46 15 -29 14 18 15 18 25 -9 6 -15 12 -26 14
-24 8 8 -7 98 -15 93 -4 -2 -6 -11 -2 -19 3 -8 0 -15 -6 -15 -6 0 -11 11 -11
25 0 14 -4 25 -10 25 -5 0 -10 -21 -10 -47z"/>
<path d="M1320 674 c-12 -22 -12 -27 0 -34 17 -11 30 5 30 38 0 29 -13 28 -30
-4z"/>
<path d="M1690 686 c0 -8 5 -18 10 -21 6 -3 10 1 10 9 0 8 -4 18 -10 21 -5 3
-10 -1 -10 -9z"/>
<path d="M1390 656 c0 -13 -4 -26 -10 -28 -5 -2 -6 -9 -1 -17 5 -7 14 -10 20
-7 14 9 15 76 1 76 -5 0 -10 -11 -10 -24z"/>
<path d="M1650 659 c7 -11 14 -19 16 -16 7 7 -7 37 -17 37 -6 0 -5 -9 1 -21z"/>
<path d="M2000 660 c-8 -5 -12 -11 -9 -14 2 -3 11 -1 19 4 8 5 12 11 9 14 -2
3 -11 1 -19 -4z"/>
<path d="M1737 654 c-4 -4 -7 -14 -7 -23 0 -11 3 -12 11 -4 6 6 10 16 7 23 -2
6 -7 8 -11 4z"/>
<path d="M1860 584 c0 -8 9 -14 20 -14 11 0 20 4 20 9 0 5 -9 11 -20 14 -13 3
-20 0 -20 -9z"/>
<path d="M1283 568 c2 -7 12 -13 23 -14 10 0 27 -4 36 -8 10 -4 23 -6 30 -3
14 5 -52 37 -78 37 -8 0 -14 -6 -11 -12z"/>
<path d="M1636 521 c-4 -7 -5 -15 -2 -18 9 -9 19 4 14 18 -4 11 -6 11 -12 0z"/>
<path d="M2538 3303 c6 -2 18 -2 25 0 6 3 1 5 -13 5 -14 0 -19 -2 -12 -5z"/>
<path d="M2030 3250 c0 -5 4 -10 9 -10 6 0 13 5 16 10 3 6 -1 10 -9 10 -9 0
-16 -4 -16 -10z"/>
<path d="M3392 1130 c0 -45 1 -50 8 -27 5 15 5 39 0 55 -7 22 -8 17 -8 -28z"/>
<path d="M3403 1005 c0 -22 2 -30 4 -17 2 12 2 30 0 40 -3 9 -5 -1 -4 -23z"/>
</g>
</svg>
