<?xml version="1.0" standalone="no"?>
<!DOCTYPE svg PUBLIC "-//W3C//DTD SVG 20010904//EN"
 "http://www.w3.org/TR/2001/REC-SVG-20010904/DTD/svg10.dtd">
<svg version="1.0" xmlns="http://www.w3.org/2000/svg"
 width="301.000000pt" height="191.000000pt" viewBox="0 0 301.000000 191.000000"
 preserveAspectRatio="xMidYMid meet">
<metadata>
Created by potrace 1.16, written by Peter Selinger 2001-2019
</metadata>
<g transform="translate(0.000000,191.000000) scale(0.100000,-0.100000)"
fill="#000000" stroke="none">
<path d="M2899 1865 c-3 -2 -311 -7 -685 -10 -373 -2 -794 -9 -934 -15 -140
-6 -356 -14 -480 -19 -341 -13 -640 -30 -690 -39 -28 -5 -44 -13 -42 -21 1 -7
-3 -20 -10 -29 -10 -12 -13 -168 -12 -766 1 -677 -1 -752 -15 -763 -15 -11
-14 -12 1 -13 14 0 18 -12 20 -62 l3 -63 40 -9 c47 -10 192 -9 605 3 168 5
541 12 830 15 496 5 929 18 948 30 4 3 87 8 183 12 210 8 207 7 242 22 16 7
32 12 36 12 21 0 31 57 22 130 -5 41 -9 307 -9 590 1 283 -2 559 -7 614 -4 57
-4 101 1 105 6 3 7 62 4 134 -4 98 -8 130 -20 137 -17 11 -25 12 -31 5z m-23
-65 c18 0 18 -25 -1 -44 -17 -17 -20 -30 -5 -21 6 3 10 2 10 -3 0 -6 -7 -13
-16 -16 -8 -3 -12 -2 -9 4 16 25 -21 6 -51 -27 -19 -20 -37 -33 -41 -29 -4 4
-1 12 7 17 11 8 7 9 -15 6 -21 -4 -56 6 -115 32 -47 21 -113 44 -147 51 -101
22 -76 34 60 27 67 -3 158 -2 202 2 44 4 86 6 93 4 8 -1 20 -3 28 -3z m-594
-42 c-78 -37 -152 -41 -229 -13 -29 11 -53 23 -53 27 0 3 71 7 157 7 86 1 159
4 162 6 2 3 9 5 15 4 6 0 -17 -14 -52 -31z m-557 2 c-27 -12 -35 -12 -35 0 0
6 12 10 28 9 24 0 25 -1 7 -9z m262 -20 c75 -27 133 -65 133 -86 0 -5 -11 -16
-24 -24 -12 -8 -44 -30 -69 -49 -67 -50 -189 -101 -242 -101 -24 0 -45 -5 -47
-11 -3 -8 -13 -7 -33 4 -17 8 -55 18 -85 22 -30 4 -64 12 -75 16 -20 9 8 8
133 -7 34 -5 52 -3 52 4 0 6 -26 14 -57 18 -95 11 -105 24 -15 18 70 -5 82 -3
82 10 0 12 -12 16 -52 17 -29 1 -60 3 -68 4 -8 1 -22 3 -30 4 -36 5 33 20 101
22 84 2 109 6 109 20 0 5 -30 10 -67 10 l-68 2 75 11 c55 8 75 15 75 26 0 9
-8 14 -20 12 -89 -13 -97 -13 -91 -4 14 24 102 72 130 72 17 0 38 5 46 10 20
13 16 14 107 -20z m-1047 11 c0 -9 -28 -38 -84 -85 -16 -13 -54 -32 -85 -42
-99 -33 -281 -21 -281 18 0 5 4 7 9 3 18 -10 161 -31 161 -23 0 4 -3 8 -7 9
-5 0 -18 2 -30 5 -13 2 -32 5 -43 7 -50 8 -26 17 43 17 42 0 77 4 77 8 0 5
-31 7 -70 4 -47 -3 -70 0 -70 7 0 10 106 17 163 12 9 -1 17 3 17 9 0 7 -15 9
-45 6 -26 -3 -45 -2 -45 4 0 6 9 10 20 10 12 0 20 7 20 18 0 14 2 14 9 3 8
-12 22 -13 93 -3 45 7 97 14 113 16 17 1 31 4 33 5 1 0 2 -3 2 -8z m680 -3 c0
-5 -30 -23 -67 -39 -58 -27 -84 -32 -176 -36 -59 -3 -110 -9 -112 -14 -3 -4
-36 3 -73 16 -37 13 -97 31 -135 40 -53 14 -65 20 -57 30 9 11 77 13 316 13
178 0 304 -4 304 -10z m907 -18 c125 -37 203 -75 203 -99 0 -24 -49 -68 -85
-76 -16 -4 -39 -13 -50 -20 -11 -6 -45 -18 -75 -25 -30 -7 -60 -17 -67 -22 -7
-6 -28 -1 -60 15 -27 14 -69 31 -93 38 l-45 13 110 6 c111 6 155 20 155 49 0
11 -16 13 -82 9 -46 -3 -96 -3 -113 1 l-30 6 45 14 c25 8 81 18 125 21 56 5
73 9 58 15 -13 4 -23 16 -23 26 0 11 -3 19 -7 20 -5 0 -17 2 -28 5 -11 2 -50
5 -87 6 -58 3 -64 4 -45 15 35 20 87 15 194 -17z m-2257 0 c0 -5 -21 -10 -47
-9 -39 1 -43 2 -23 9 36 12 70 12 70 0z m340 -4 c0 -8 -13 -16 -30 -18 -24 -4
-30 -1 -30 14 0 13 8 18 30 18 19 0 30 -5 30 -14z m1110 -4 c0 -24 -131 -69
-185 -63 -5 1 6 9 25 19 30 15 54 23 135 47 18 6 25 5 25 -3z m-1444 -37 c66
-11 112 -27 179 -61 95 -48 155 -89 155 -104 0 -16 -61 -80 -76 -80 -8 0 -14
-6 -14 -14 0 -16 -59 -56 -84 -56 -9 0 -24 -9 -34 -21 -18 -22 -29 -27 -137
-66 -101 -37 -144 -44 -154 -26 -14 27 11 63 43 63 33 0 109 47 100 61 -6 11
4 10 31 0 14 -6 24 -3 33 8 12 14 13 14 8 -1 -3 -11 0 -18 9 -18 38 0 16 44
-27 52 -15 3 -29 0 -31 -6 -2 -6 -12 -11 -23 -11 -10 0 -18 -5 -17 -12 2 -7
-16 -15 -43 -19 -53 -8 -72 2 -21 11 25 5 34 11 30 21 -4 10 3 14 26 14 17 0
31 5 31 11 0 7 -24 10 -72 8 -72 -4 -73 -4 -73 21 0 27 0 27 110 30 33 0 69
-1 80 -4 11 -2 26 -5 33 -5 7 -1 10 -6 6 -12 -3 -6 -16 -8 -28 -5 -61 15 -114
16 -125 2 -11 -13 0 -15 75 -15 102 0 137 6 130 24 -2 7 1 18 7 24 13 13 17
13 -119 11 -89 -1 -113 2 -123 14 -8 9 -22 16 -32 16 -11 0 -19 5 -19 10 0 16
48 11 58 -6 6 -11 21 -14 58 -12 64 4 63 21 -3 32 -62 10 -70 26 -14 26 22 0
43 5 46 10 12 19 35 10 35 -14 0 -13 7 -27 16 -30 8 -3 12 -11 9 -16 -5 -8 17
-10 67 -9 66 2 87 9 88 32 0 12 -37 8 -48 -6 -25 -30 -92 -12 -92 25 0 7 -8
23 -18 35 -15 19 -22 21 -55 13 -32 -7 -42 -5 -57 10 -11 11 -27 16 -44 13
-23 -5 -26 -2 -26 21 0 32 16 33 146 11z m812 -11 c53 -14 101 -30 107 -35 5
-5 19 -9 31 -9 12 0 27 -7 34 -15 7 -8 23 -15 36 -15 26 0 32 -18 12 -38 -9
-9 -15 -7 -25 6 -13 15 -14 14 -10 -13 4 -26 0 -34 -36 -61 -72 -53 -129 -81
-207 -103 -41 -11 -80 -27 -86 -35 -9 -13 -15 -12 -45 6 -45 28 -104 48 -159
55 -74 9 -93 22 -33 22 28 1 53 6 55 12 4 12 75 28 129 29 20 0 42 7 49 15 7
8 27 15 46 15 18 0 36 5 39 10 4 6 21 8 41 4 20 -4 34 -2 34 4 0 15 -16 17
-120 17 -52 0 -98 3 -101 8 -3 4 -21 1 -41 -7 -19 -9 -38 -12 -42 -9 -15 15
-3 34 30 48 42 17 68 20 59 5 -8 -13 11 -13 37 1 17 9 23 8 30 -5 12 -22 24
-20 92 14 32 17 65 30 72 30 8 0 14 5 14 10 0 6 -6 10 -12 10 -23 0 -88 -21
-88 -28 0 -9 -56 -9 -66 1 -4 4 0 7 9 7 10 0 17 7 17 15 0 19 -8 19 -66 -1
-58 -19 -65 -14 -19 17 19 13 35 27 35 32 0 13 49 7 148 -19z m-573 6 c3 -5
-1 -10 -9 -10 -9 0 -16 5 -16 10 0 6 4 10 9 10 6 0 13 -4 16 -10z m1708 -7
c-7 -2 -19 -2 -25 0 -7 3 -2 5 12 5 14 0 19 -2 13 -5z m-56 -25 c-3 -8 -6 -5
-6 6 -1 11 2 17 5 13 3 -3 4 -12 1 -19z m-750 -23 c0 -8 -4 -15 -9 -15 -4 0
-8 4 -8 9 0 5 -8 12 -17 14 -12 3 -9 5 8 6 17 1 26 -4 26 -14z m236 8 c-7 -2
-19 -2 -25 0 -7 3 -2 5 12 5 14 0 19 -2 13 -5z m597 -3 c0 -5 -9 -10 -20 -10
-11 0 -20 5 -20 10 0 6 9 10 20 10 11 0 20 -4 20 -10z m-86 -15 c3 -8 0 -15
-7 -15 -7 0 -23 -3 -37 -6 l-25 -6 25 21 c30 25 36 26 44 6z m205 -31 c2 -2
-23 -4 -57 -4 -35 0 -62 4 -62 10 0 9 108 3 119 -6z m38 0 c-3 -3 -12 -4 -19
-1 -8 3 -5 6 6 6 11 1 17 -2 13 -5z m348 -4 c3 -5 1 -10 -4 -10 -6 0 -11 5
-11 10 0 6 2 10 4 10 3 0 8 -4 11 -10z m-2125 -16 c0 -14 -3 -14 -15 -4 -8 7
-15 14 -15 16 0 2 7 4 15 4 8 0 15 -7 15 -16z m2236 -32 c-12 -11 -18 7 -10
30 l8 23 4 -23 c2 -13 1 -26 -2 -30z m-76 28 c0 -5 -2 -10 -4 -10 -3 0 -8 5
-11 10 -3 6 -1 10 4 10 6 0 11 -4 11 -10z m-540 -36 c109 -38 186 -79 204
-106 8 -13 5 -21 -13 -37 -13 -12 -28 -21 -33 -21 -5 0 -23 -13 -39 -29 -28
-28 -170 -91 -205 -91 -9 0 -18 -9 -21 -20 -7 -26 -7 -26 -65 11 -48 31 -59
42 -35 37 7 -2 15 2 17 7 3 6 -23 12 -65 15 -69 5 -70 20 -2 20 18 0 48 5 67
10 19 6 51 11 70 12 19 0 45 5 58 9 45 17 11 27 -82 26 -84 -2 -118 4 -105 17
5 6 173 35 219 39 18 1 35 8 38 15 3 10 -13 12 -74 8 -44 -3 -95 -8 -114 -11
-27 -4 -30 -3 -15 4 11 5 37 12 58 16 56 9 47 29 -10 21 -27 -4 -74 -10 -105
-15 -84 -11 -91 4 -8 18 73 13 112 37 47 29 -20 -2 -33 0 -31 4 3 4 13 8 22 9
11 0 13 2 4 6 -10 4 -9 8 5 19 31 24 105 16 213 -22z m-1530 16 c0 -5 -12 -10
-27 -9 -25 0 -26 1 -8 9 27 12 35 12 35 0z m2090 -44 c58 -44 67 -63 69 -138
1 -56 -25 -91 -90 -120 -51 -22 -85 -23 -124 -2 -16 9 -46 25 -65 35 -35 17
-35 17 -10 23 14 3 56 7 94 8 89 4 103 26 19 30 -44 2 -58 7 -58 18 0 10 12
16 33 18 35 4 41 16 15 31 -17 10 -17 12 -1 24 10 8 19 25 20 38 3 22 -1 24
-44 27 -65 4 -62 26 7 50 42 14 72 5 135 -42z m-1912 17 c-9 -8 -21 -12 -27
-8 -16 9 -6 20 20 22 20 2 21 1 7 -14z m612 -24 c63 -11 133 -27 156 -35 41
-15 124 -64 124 -74 -1 -10 -112 -96 -168 -129 -81 -48 -207 -91 -269 -91 -29
0 -74 7 -100 16 -51 17 -69 22 -92 23 -8 1 -11 4 -8 7 4 4 38 6 77 5 43 -1 70
2 70 9 0 5 -15 10 -32 11 -31 0 -31 1 -10 10 13 5 55 12 92 15 68 7 100 17 88
29 -3 4 -59 1 -123 -5 -126 -13 -160 -9 -68 8 32 6 102 19 155 29 63 11 98 23
98 31 0 9 -12 11 -42 7 -41 -5 -42 -4 -10 5 17 6 32 15 32 20 0 13 -47 13 -55
0 -3 -5 -30 -10 -58 -9 l-52 1 64 20 c48 15 61 22 52 31 -11 11 -44 4 -208
-44 -32 -10 -46 -10 -54 -2 -8 8 11 18 72 36 46 14 101 28 122 31 28 5 37 12
37 26 0 26 -16 25 -92 -4 -106 -40 -106 -40 -78 -20 14 9 40 30 58 46 37 31
30 31 222 -3z m1360 11 c0 -5 -4 -10 -10 -10 -5 0 -10 5 -10 10 0 6 5 10 10
10 6 0 10 -4 10 -10z m-2070 -5 c0 -2 -9 -9 -20 -15 -16 -9 -18 -8 -14 5 5 13
34 22 34 10z m-125 -35 c-6 -10 -75 -19 -75 -10 0 13 12 18 46 18 19 0 32 -4
29 -8z m1355 -50 c0 -5 -17 -10 -37 -10 -28 0 -34 3 -23 10 20 13 60 13 60 0z
m37 4 c-3 -3 -12 -4 -19 -1 -8 3 -5 6 6 6 11 1 17 -2 13 -5z m-1401 -18 c59 9
294 -81 294 -113 0 -22 -171 -145 -233 -169 -13 -5 -16 -2 -10 12 5 13 3 16
-9 12 -9 -4 -20 -2 -25 3 -7 7 -18 7 -34 0 -13 -5 -32 -12 -43 -15 -26 -9 -3
-36 24 -29 11 3 20 0 20 -6 0 -19 -34 -12 -61 13 -14 13 -44 33 -67 45 -50 26
-61 41 -29 41 14 0 28 -7 31 -16 4 -9 13 -14 21 -10 9 3 15 0 15 -8 0 -16 19
-25 38 -19 9 4 10 8 2 18 -9 11 0 12 50 8 53 -5 60 -4 60 12 0 12 -6 16 -20
12 -11 -3 -20 -1 -20 5 0 24 -31 40 -65 34 -20 -4 -35 -3 -35 3 0 16 22 19 89
13 52 -4 63 -3 59 9 -3 8 -19 14 -41 15 -19 0 -46 8 -59 17 l-23 16 33 0 c23
1 32 5 29 14 -2 6 -16 11 -31 9 -30 -3 -35 13 -6 21 26 7 28 47 3 42 -10 -2
-22 -4 -27 -4 -5 -1 -3 -7 3 -15 9 -11 8 -15 -5 -20 -11 -4 -18 0 -21 14 -4
13 -9 17 -17 12 -6 -5 -19 -9 -28 -9 -14 0 -15 3 -6 15 19 22 48 29 88 22 20
-4 45 -5 56 -4z m744 -44 c0 -8 -74 -25 -162 -38 -33 -4 -48 -3 -48 5 0 16 14
20 115 30 50 4 91 9 93 10 1 0 2 -3 2 -7z m-890 -12 c-8 -5 -19 -10 -25 -10
-5 0 -3 5 5 10 8 5 20 10 25 10 6 0 3 -5 -5 -10z m470 6 c0 -2 -7 -9 -15 -16
-12 -10 -15 -10 -15 4 0 9 7 16 15 16 8 0 15 -2 15 -4z m1063 -13 c-7 -2 -21
-2 -30 0 -10 3 -4 5 12 5 17 0 24 -2 18 -5z m-1570 -23 c19 0 20 -2 6 -15 -16
-17 -109 -28 -109 -13 0 4 7 8 15 8 9 0 26 9 38 20 12 12 23 16 25 10 2 -5 13
-10 25 -10z m1392 11 c35 -8 36 -9 10 -9 -16 -1 -48 3 -70 7 -35 8 -36 9 -10
9 17 1 48 -3 70 -7z m685 -1 c17 -11 16 -11 -65 -15 -64 -2 -79 1 -70 16 8 12
116 11 135 -1z m-796 -28 c5 -8 -55 -42 -72 -42 -9 1 50 50 60 50 4 0 9 -4 12
-8z m-1249 -12 c-3 -5 -11 -10 -16 -10 -6 0 -7 5 -4 10 3 6 11 10 16 10 6 0 7
-4 4 -10z m1403 -26 c7 -8 29 -14 48 -14 34 0 64 -13 142 -63 49 -32 58 -67
16 -67 -15 0 -23 -4 -19 -10 4 -6 1 -18 -7 -27 -16 -20 -197 -106 -259 -124
-24 -7 -49 -16 -54 -20 -6 -4 -28 5 -50 20 -22 15 -56 33 -75 40 -45 18 -63
34 -30 27 14 -3 41 -8 60 -10 19 -2 59 -7 88 -11 35 -5 52 -4 52 3 0 6 -17 14
-37 17 -21 3 -51 10 -68 14 -24 7 -18 9 38 10 91 1 86 21 -5 23 -40 0 -77 2
-83 3 -5 2 -31 3 -57 4 -27 0 -48 5 -48 9 0 13 176 44 232 40 29 -1 56 1 58 7
9 18 -79 24 -165 11 -85 -12 -121 -5 -70 14 14 6 33 10 42 10 27 0 152 40 159
51 12 20 -5 21 -56 4 -40 -13 -55 -14 -63 -5 -15 15 12 36 65 51 21 5 38 14
38 18 0 13 92 -9 108 -25z m528 22 c28 -3 63 -10 78 -16 15 -5 30 -9 34 -8 19
4 107 -39 144 -70 37 -31 35 -56 -4 -94 -38 -35 -182 -108 -213 -108 -12 0
-26 -5 -33 -12 -8 -8 -15 -8 -24 -1 -7 6 -30 16 -50 22 -45 15 -51 35 -8 29
20 -3 30 0 30 9 0 7 11 13 26 13 40 0 18 18 -31 26 -25 3 -45 10 -45 14 0 5
24 12 53 16 l52 9 -55 5 c-58 6 -51 12 33 25 56 9 45 25 -18 25 -77 0 -69 17
13 25 105 10 121 25 19 18 -49 -3 -94 -6 -100 -7 -7 0 -12 4 -12 9 0 6 9 10
20 11 11 0 27 3 35 7 8 3 31 8 50 9 19 2 33 7 30 12 -6 10 -101 12 -150 3 -31
-6 -30 -5 15 16 28 14 52 23 55 22 3 -2 28 -6 56 -9z m-1446 -26 c0 -5 -4 -10
-10 -10 -5 0 -10 5 -10 10 0 6 5 10 10 10 6 0 10 -4 10 -10z m-670 -10 c0 -5
-5 -10 -11 -10 -5 0 -7 5 -4 10 3 6 8 10 11 10 2 0 4 -4 4 -10z m2550 -5 c0
-8 -9 -15 -20 -15 -22 0 -27 15 -7 23 21 9 27 7 27 -8z m-2320 -21 c0 -8 -4
-12 -10 -9 -5 3 -10 10 -10 16 0 5 5 9 10 9 6 0 10 -7 10 -16z m1125 -4 c-2
-28 -5 -30 -67 -35 -31 -2 -67 -9 -82 -15 -14 -5 -26 -6 -26 -1 0 5 8 11 18
14 9 3 46 17 82 30 80 31 77 31 75 7z m-1191 1 c-32 -14 -87 -17 -91 -6 -2 6
22 11 55 12 40 2 51 0 36 -6z m561 -11 c62 -11 193 -56 220 -75 63 -45 63 -44
35 -66 -57 -46 -174 -119 -190 -119 -10 0 -20 -5 -22 -11 -2 -5 -18 -11 -36
-11 -36 -1 -52 -15 -28 -24 9 -3 16 -16 16 -28 0 -14 -3 -17 -8 -9 -9 14 -123
63 -146 63 -7 0 -16 9 -19 20 -5 19 0 20 85 20 61 0 88 4 86 11 -2 7 -49 13
-123 16 -70 2 -122 8 -126 15 -4 6 -13 7 -20 3 -11 -6 -11 -5 -2 5 6 7 51 19
100 27 48 7 115 18 148 24 33 6 75 10 93 10 22 0 32 5 32 16 0 11 -6 14 -27 8
-67 -17 -114 -22 -119 -13 -3 5 -21 7 -39 4 -34 -6 -55 7 -34 20 6 3 28 9 48
11 36 5 59 18 50 28 -3 3 -59 -6 -123 -20 -65 -14 -121 -25 -124 -25 -3 0 20
16 52 35 31 19 71 46 87 60 22 18 38 24 57 20 15 -3 50 -10 77 -15z m-724 -8
c104 -27 218 -85 234 -120 5 -12 15 -22 21 -22 17 0 46 -49 40 -66 -3 -8 -15
-14 -26 -14 -17 0 -20 -4 -15 -21 7 -22 -18 -59 -42 -59 -7 0 -30 -16 -52 -35
-28 -25 -51 -37 -85 -41 -25 -4 -46 -11 -46 -15 0 -5 -6 -9 -14 -9 -7 0 -19
-7 -26 -15 -7 -8 -28 -17 -49 -21 -20 -3 -60 -12 -89 -19 l-53 -13 3 31 c3 27
7 32 31 33 16 1 32 6 36 12 3 6 22 12 41 14 47 4 35 23 -14 23 -32 0 -39 4
-42 22 -3 19 2 23 34 29 20 4 31 9 25 11 -7 3 -13 11 -13 18 0 7 -8 16 -17 19
-10 3 -6 4 10 2 18 -2 27 1 27 10 0 10 12 14 38 13 20 0 31 -3 25 -6 -27 -10
-11 -21 18 -13 17 5 34 9 38 8 3 -1 39 2 79 7 53 6 72 11 72 22 0 11 -5 13
-17 8 -32 -13 -106 -19 -100 -8 4 6 27 13 52 16 25 2 49 7 52 11 15 14 -9 16
-69 6 -43 -8 -72 -8 -90 -1 -14 5 -28 8 -31 5 -2 -3 -7 4 -10 15 -4 17 -2 19
20 10 18 -6 30 -6 39 2 8 6 14 7 14 2 0 -6 29 -8 73 -6 84 5 104 10 91 22 -5
5 -34 5 -68 0 -43 -7 -66 -6 -87 3 -28 12 -40 38 -19 38 6 0 10 6 10 14 0 19
-37 9 -53 -14 -7 -9 -34 -22 -62 -27 -49 -10 -49 -11 -12 -12 25 -1 37 -6 37
-15 0 -20 -26 -26 -89 -21 -65 6 -75 13 -32 21 41 8 50 24 14 24 -38 0 -73 10
-73 21 0 5 9 9 20 9 11 0 20 4 20 9 0 12 47 20 58 9 10 -10 72 1 72 14 0 5
-16 6 -36 2 -33 -6 -35 -5 -32 17 2 19 -2 25 -19 27 -13 2 -23 7 -23 12 0 5
-12 11 -27 13 -16 2 13 3 62 1 50 -2 106 -7 126 -12z m315 -5 c14 -14 -56 -10
-70 4 -6 5 6 7 27 6 20 -2 40 -6 43 -10z m2244 -7 c0 -5 -4 -10 -10 -10 -5 0
-10 5 -10 10 0 6 5 10 10 10 6 0 10 -4 10 -10z m-540 -14 c0 -3 -4 -8 -10 -11
-5 -3 -10 -1 -10 4 0 6 5 11 10 11 6 0 10 -2 10 -4z m-900 -36 c0 -5 -10 -10
-22 -11 -13 0 -34 -2 -48 -4 -30 -3 -43 3 -35 16 8 12 105 12 105 -1z m63 3
c-7 -2 -19 -2 -25 0 -7 3 -2 5 12 5 14 0 19 -2 13 -5z m-843 -13 c-19 -13 -30
-13 -30 0 0 6 10 10 23 10 18 0 19 -2 7 -10z m1534 -39 c6 -9 -35 -24 -43 -15
-6 5 18 24 31 24 4 0 9 -4 12 -9z m644 -14 c6 -5 12 -23 12 -39 l0 -29 -29 20
c-15 11 -40 25 -55 31 -34 12 -33 28 2 32 30 4 51 0 70 -15z m-1973 3 c-27
-12 -35 -12 -35 0 0 6 12 10 28 9 24 0 25 -1 7 -9z m-758 -31 c-1 -3 4 -13 12
-22 10 -13 31 -17 94 -17 44 0 77 -3 73 -7 -4 -4 -50 -7 -102 -8 l-95 0 5 30
c6 40 5 39 10 34 2 -2 4 -7 3 -10z m646 -9 c-3 -11 -7 -20 -9 -20 -2 0 -4 9
-4 20 0 11 4 20 9 20 5 0 7 -9 4 -20z m2055 -34 c48 -37 52 -44 52 -82 0 -22
3 -75 6 -117 l7 -76 -49 -22 c-27 -13 -52 -27 -56 -33 -4 -6 -19 -4 -40 6 -18
9 -82 33 -143 52 -104 35 -148 56 -114 56 24 0 183 -28 202 -35 10 -4 17 -3
17 4 0 6 -3 11 -7 11 -17 0 -75 58 -64 64 6 4 54 2 108 -3 53 -6 99 -8 102 -5
2 2 -4 10 -14 18 -20 14 -83 26 -141 26 -19 0 -34 5 -34 10 0 6 7 10 16 10 11
0 14 5 10 16 -3 9 -6 24 -6 35 0 15 -7 19 -34 19 -19 0 -37 4 -40 9 -7 11 27
21 74 21 46 0 80 10 80 22 0 6 -7 7 -16 4 -9 -3 -33 -9 -55 -12 -49 -8 -52 8
-7 36 42 26 80 17 146 -34z m-613 14 c22 -11 48 -20 60 -20 41 0 50 -15 37
-58 -7 -22 -12 -50 -12 -63 0 -18 -3 -20 -12 -11 -17 17 -41 15 -35 -2 4 -11
-11 -15 -69 -21 -92 -8 -110 0 -22 10 78 9 86 14 53 31 -22 11 -38 11 -102 -1
-79 -15 -106 -13 -59 5 15 5 29 17 32 25 4 8 18 15 34 15 40 0 83 18 75 31 -4
6 -13 8 -20 5 -7 -2 -15 4 -18 16 -5 19 -11 20 -59 15 -29 -4 -66 -9 -83 -12
-21 -4 -11 3 30 24 72 35 117 38 170 11z m-623 -25 c37 -13 93 -40 124 -61 55
-36 56 -38 51 -76 -9 -66 -53 -98 -137 -99 -51 -2 -64 -11 -32 -24 28 -11 -42
-41 -149 -65 -50 -11 -95 -23 -99 -25 -4 -3 -22 0 -40 6 -21 8 -28 14 -20 19
7 4 9 13 6 19 -5 8 15 11 68 11 44 0 76 4 76 10 0 6 -31 10 -72 10 -86 0 -148
9 -148 21 0 5 32 9 70 9 55 0 70 3 70 15 0 11 -10 13 -51 8 -42 -5 -51 -3 -47
8 3 10 27 15 86 17 48 2 82 7 82 13 0 6 12 9 27 7 33 -4 41 15 11 29 -20 9
-14 11 40 18 44 5 62 11 62 22 0 9 -7 13 -17 10 -10 -3 -82 -15 -160 -28 -128
-21 -169 -22 -150 -2 9 8 201 43 240 43 15 0 27 5 27 11 0 12 -12 11 -197 -15
-51 -7 -93 -9 -93 -4 0 4 10 8 23 8 12 0 54 7 92 15 39 9 85 18 103 22 17 3
32 12 32 19 0 8 -1 14 -2 14 -2 0 -41 -7 -88 -15 -111 -20 -130 -18 -52 4 74
22 94 36 37 28 -40 -6 -40 -6 10 12 61 23 123 19 217 -14z m-877 -5 c3 -5 -1
-10 -9 -10 -8 0 -18 5 -21 10 -3 6 1 10 9 10 8 0 18 -4 21 -10z m75 -6 c0 -2
-9 -4 -21 -4 -11 0 -18 4 -14 10 5 8 35 3 35 -6z m1615 -24 c17 -11 39 -20 51
-20 26 0 65 -41 47 -47 -7 -3 -13 -11 -13 -18 0 -16 -46 -52 -121 -94 -74 -41
-83 -41 -75 7 12 75 33 169 40 181 11 17 37 13 71 -9z m-1617 -7 c-10 -2 -28
-2 -40 0 -13 2 -5 4 17 4 22 1 32 -1 23 -4z m-94 -36 c-3 -8 2 -14 11 -14 8 0
15 6 15 13 0 14 103 9 160 -8 63 -19 180 -71 180 -79 0 -5 -31 -41 -69 -79
-54 -55 -86 -78 -147 -106 -44 -19 -97 -44 -120 -55 -27 -14 -52 -19 -74 -15
-57 9 -66 37 -15 49 15 4 13 5 -7 6 -27 1 -40 20 -15 22 10 0 10 2 0 6 -29 11
-8 21 72 32 102 14 115 19 115 38 0 35 -26 43 -119 39 -49 -2 -95 -7 -101 -11
-5 -3 -10 -1 -10 4 0 6 10 12 23 12 18 1 19 2 3 6 -10 3 -23 0 -29 -6 -6 -6
-27 -10 -47 -10 -23 1 -27 3 -12 6 21 4 32 23 13 23 -5 0 -4 11 2 24 12 24 67
68 83 65 23 -4 45 2 39 11 -3 5 -12 7 -20 3 -18 -6 -20 8 -3 25 17 17 79 16
72 -1z m1206 9 c0 -3 -4 -8 -10 -11 -5 -3 -10 -1 -10 4 0 6 5 11 10 11 6 0 10
-2 10 -4z m-42 -13 c-10 -2 -18 -11 -18 -19 0 -8 -7 -14 -15 -14 -8 0 -15 6
-15 14 0 14 20 24 50 24 10 0 9 -2 -2 -5z m-432 -78 c-16 -16 -52 -20 -60 -6
-9 14 5 21 41 21 31 0 33 -2 19 -15z m657 -2 c-7 -2 -21 -2 -30 0 -10 3 -4 5
12 5 17 0 24 -2 18 -5z m194 -54 c-1 -35 -4 -40 -36 -50 -20 -6 -40 -15 -45
-20 -6 -5 -18 -9 -28 -9 -10 0 -18 -7 -18 -15 0 -8 -9 -15 -19 -15 -23 0 -161
49 -176 62 -5 4 27 8 72 8 85 0 146 15 140 34 -2 7 -35 10 -103 8 -138 -5
-111 14 40 28 66 6 121 12 123 14 2 2 14 1 27 -1 20 -4 24 -11 23 -44z m-400
-21 c-27 -7 -45 -7 -60 0 -18 9 -11 11 38 10 59 0 60 0 22 -10z m611 -7 c140
-41 261 -91 283 -118 6 -7 9 -18 6 -25 -7 -17 -120 -74 -294 -149 -66 -28 -97
-25 -223 23 -36 14 -8 28 58 28 37 0 57 5 70 18 21 21 35 24 110 22 36 -1 52
3 52 12 0 10 -26 12 -117 10 -78 -2 -115 0 -108 6 6 6 35 14 65 18 30 4 64 8
75 10 11 1 37 3 58 3 20 1 37 5 37 9 0 5 -15 8 -32 8 -44 -1 -52 18 -10 22 17
2 32 7 32 12 0 5 -12 7 -27 5 -54 -10 -227 -24 -232 -20 -10 10 11 18 79 28
53 9 70 15 68 26 -2 9 -17 16 -38 18 -26 3 -31 1 -20 -7 9 -6 10 -10 3 -10 -6
0 -14 4 -18 10 -3 5 -13 6 -23 3 -13 -4 -14 -3 -6 6 9 9 71 48 82 50 1 1 33
-8 70 -18z m-1794 -12 c-5 -9 -74 -17 -74 -9 0 4 2 9 5 12 7 7 74 4 69 -3z
m1081 -7 c-3 -3 -11 0 -18 7 -9 10 -8 11 6 5 10 -3 15 -9 12 -12z m-1165 -3
c0 -6 -4 -7 -10 -4 -5 3 -10 -3 -10 -15 0 -12 -4 -18 -10 -15 -18 11 -11 41
10 42 11 1 20 -3 20 -8z m450 -3 c0 -9 -7 -12 -20 -9 -11 3 -17 9 -14 14 8 14
34 10 34 -5z m133 -13 c-7 -2 -19 -2 -25 0 -7 3 -2 5 12 5 14 0 19 -2 13 -5z
m798 -34 c65 -25 76 -33 72 -49 -5 -17 0 -20 34 -20 38 0 63 -14 63 -34 -1
-25 -235 -162 -315 -183 -117 -32 -117 -32 -139 -18 -11 7 -40 19 -63 25 -24
8 -43 20 -46 30 -3 13 0 16 15 12 13 -3 16 -7 8 -12 -15 -9 38 -20 98 -20 53
0 48 10 -11 27 -24 6 -33 11 -21 12 15 1 23 9 26 26 3 14 1 25 -6 25 -6 0 -3
5 6 10 9 6 64 13 123 17 77 4 108 10 112 20 8 20 -4 28 -20 14 -8 -6 -42 -14
-76 -17 -48 -4 -61 -2 -61 9 0 11 -19 13 -97 10 -127 -4 -95 12 54 27 145 16
158 19 145 32 -8 8 -30 8 -80 -1 -37 -7 -86 -12 -107 -12 -22 1 -59 -2 -82 -5
-28 -4 -43 -2 -43 5 0 11 19 15 58 12 12 -1 22 3 22 8 0 9 51 18 168 30 6 0
12 8 12 17 0 12 -6 15 -25 10 -35 -9 -225 -36 -250 -36 -32 1 5 19 44 22 17 1
31 6 31 11 0 5 6 7 13 4 6 -2 23 0 37 6 40 15 131 26 180 20 25 -3 79 -18 121
-34z m-1601 21 c0 -5 -8 -10 -17 -10 -15 0 -16 2 -3 10 19 12 20 12 20 0z
m299 6 c-10 -9 -79 -14 -74 -5 4 5 22 9 42 9 20 0 34 -2 32 -4z m-418 -28 c4
-7 14 -6 28 2 15 7 26 8 34 2 7 -6 38 -18 70 -27 40 -12 56 -20 49 -27 -18
-18 9 -37 35 -25 18 8 31 4 73 -23 51 -33 80 -72 80 -108 0 -68 -378 -276
-472 -260 -22 4 -22 5 -3 12 52 20 62 29 58 47 -5 18 11 24 65 22 6 -1 12 6
12 14 0 11 -5 13 -17 7 -24 -10 -74 -7 -87 6 -12 12 -8 15 26 24 20 4 27 2 30
-10 2 -13 7 -12 26 7 13 12 53 30 89 41 46 14 62 23 52 28 -7 5 -16 5 -19 1
-3 -5 -16 -12 -30 -16 -24 -7 -24 -7 -5 8 20 15 20 16 -5 26 -24 9 -23 10 12
10 20 1 40 -4 44 -10 4 -8 9 -7 15 2 12 20 1 29 -37 29 -32 0 -34 2 -24 21 20
36 7 46 -50 39 -28 -4 -53 -3 -56 2 -3 5 -10 6 -15 3 -5 -4 -9 -1 -9 5 0 7 9
14 20 17 22 6 27 23 8 23 -9 0 -8 4 2 10 12 8 10 10 -10 11 -23 1 -23 2 4 8
36 7 31 27 -5 24 -16 -2 -29 3 -33 12 -3 8 -15 15 -26 15 -11 0 -23 7 -27 16
-3 8 -12 13 -19 10 -13 -5 -19 5 -10 15 8 8 121 -3 127 -13z m819 1 c19 -5 51
-9 70 -9 44 -1 121 -35 118 -52 -2 -9 8 -13 30 -12 25 2 32 -2 32 -17 0 -10 5
-19 10 -19 24 0 6 -31 -37 -67 -116 -96 -229 -152 -321 -159 -29 -2 -80 3
-115 10 -34 8 -77 14 -96 14 -18 1 -36 3 -39 6 -3 3 9 6 27 6 20 0 30 4 26 11
-5 7 15 10 61 9 105 -2 124 -1 124 9 0 5 -36 9 -81 9 -44 0 -83 3 -87 6 -3 3
17 6 44 6 93 0 214 13 214 23 0 6 -50 7 -135 3 -93 -5 -135 -4 -135 3 0 10 21
16 43 12 5 -1 47 6 95 16 48 9 115 17 150 17 44 0 62 3 62 13 0 9 -17 13 -60
13 -33 0 -60 4 -60 10 0 6 7 10 15 10 8 0 15 9 15 20 0 16 -7 20 -30 20 -41 0
-122 -22 -138 -37 -7 -7 -17 -13 -22 -13 -5 0 -17 -3 -27 -6 -10 -4 -1 5 20
20 21 14 42 26 47 26 9 0 141 59 150 67 2 2 -1 8 -9 12 -18 11 -252 -78 -286
-109 -16 -15 -22 -16 -32 -5 -9 10 6 19 73 46 47 19 106 50 132 70 50 38 66
40 152 18z m1758 -18 c-27 -24 -34 -27 -41 -14 -10 16 -11 15 23 30 44 20 51
14 18 -16z m-2258 3 c0 -8 -5 -12 -10 -9 -6 4 -8 11 -5 16 9 14 15 11 15 -7z
m-20 -30 c0 -2 -7 -4 -15 -4 -8 0 -15 4 -15 10 0 5 7 7 15 4 8 -4 15 -8 15
-10z m1635 6 c-3 -5 -14 -10 -23 -10 -15 0 -15 2 -2 10 20 13 33 13 25 0z
m-2045 -20 c-19 -12 -30 -12 -30 -1 0 10 31 20 40 14 2 -2 -2 -8 -10 -13z
m1275 0 c3 -5 -3 -10 -14 -10 -12 0 -21 5 -21 10 0 6 6 10 14 10 8 0 18 -4 21
-10z m1465 1 c0 -6 -4 -13 -10 -16 -5 -3 -10 1 -10 9 0 9 5 16 10 16 6 0 10
-4 10 -9z m-1990 -25 c-14 -7 -36 -16 -50 -20 -14 -3 -7 3 15 14 45 22 74 27
35 6z m1920 -31 c0 -8 -7 -15 -15 -15 -8 0 -15 7 -15 15 0 8 7 15 15 15 8 0
15 -7 15 -15z m-1810 -5 c0 -17 -53 -38 -133 -50 -43 -7 -80 -10 -83 -8 -7 8
135 50 146 43 5 -3 15 1 22 9 15 17 48 21 48 6z m420 0 c0 -5 -2 -10 -4 -10
-3 0 -8 5 -11 10 -3 6 -1 10 4 10 6 0 11 -4 11 -10z m-730 -15 c0 -3 -9 -14
-20 -25 -11 -11 -20 -18 -20 -16 0 2 -3 11 -6 19 -3 10 2 17 13 20 27 7 33 7
33 2z m1035 -5 c4 -6 -9 -10 -32 -9 -38 1 -38 1 -8 9 17 4 31 8 32 9 1 0 5 -3
8 -9z m1118 -23 c34 -15 37 -19 37 -56 0 -22 4 -42 9 -46 6 -3 4 -19 -5 -40
-8 -19 -14 -48 -14 -64 0 -16 -6 -33 -12 -38 -21 -13 -81 -34 -111 -39 -37 -5
-157 34 -157 51 0 7 18 20 40 29 22 9 39 22 38 28 -2 8 8 13 27 13 35 1 41 18
8 23 -25 4 -32 22 -9 22 8 0 18 5 21 10 4 6 1 9 -7 8 -8 -2 -13 7 -13 22 -1
19 -6 24 -20 23 -127 -16 -140 -16 -125 0 8 8 47 29 85 46 78 35 139 37 208 8z
m-1453 -7 c0 -11 -3 -20 -7 -20 -5 0 -19 -3 -32 -7 l-24 -6 19 26 c23 31 44
35 44 7z m268 2 c2 -8 -10 -12 -35 -12 -47 0 -83 9 -83 21 0 14 113 5 118 -9z
m506 -11 c-7 -8 -35 9 -29 19 4 6 11 5 20 -3 7 -6 11 -14 9 -16z m-2024 9 c0
-5 -7 -10 -16 -10 -8 0 -12 5 -9 10 3 6 10 10 16 10 5 0 9 -4 9 -10z m63 3
c-7 -2 -19 -2 -25 0 -7 3 -2 5 12 5 14 0 19 -2 13 -5z m125 -12 c10 -6 10 -10
-1 -19 -19 -16 -104 -25 -112 -12 -3 5 -1 10 4 10 16 0 23 2 51 17 29 15 40
16 58 4z m1877 -1 c3 -5 1 -10 -4 -10 -6 0 -11 5 -11 10 0 6 2 10 4 10 3 0 8
-4 11 -10z m-20 -36 c8 -4 15 -12 15 -20 0 -11 4 -12 19 -2 15 9 31 6 87 -17
38 -16 73 -32 79 -37 5 -4 16 -8 25 -8 8 0 22 -5 30 -10 23 -15 -25 -50 -159
-115 -128 -63 -187 -76 -241 -52 l-35 15 50 3 c28 1 60 2 73 1 13 0 22 5 22
14 0 9 -11 14 -34 14 -30 0 -33 2 -32 30 1 31 30 47 66 35 22 -7 66 30 49 41
-6 4 -4 13 7 25 21 23 5 50 -18 32 -7 -6 -56 -16 -108 -22 -52 -7 -108 -14
-125 -17 -24 -3 -26 -3 -10 5 11 5 52 14 90 21 107 18 115 21 115 37 0 9 -6
12 -17 9 -19 -5 -141 -26 -157 -26 -5 0 15 13 45 30 46 25 61 29 102 25 26 -3
54 -8 62 -11z m-763 -34 c121 -28 269 -83 327 -121 28 -19 51 -37 51 -41 0 -4
-34 -30 -76 -58 l-77 -50 -181 2 c-99 1 -155 3 -123 5 31 2 57 9 57 14 0 8
-35 9 -107 4 -60 -4 -106 -5 -103 -2 5 5 120 23 288 44 27 4 42 11 42 19 0 10
-8 13 -22 10 -105 -22 -318 -41 -318 -28 0 5 35 12 78 16 106 8 282 39 282 48
0 13 -73 6 -222 -20 -39 -7 -49 -6 -63 10 -8 10 -13 23 -10 28 5 8 -7 12 -35
12 -3 0 -31 -3 -64 -7 -41 -5 -56 -3 -52 4 4 6 23 11 42 11 19 0 91 11 160 25
69 14 128 25 130 25 2 0 4 5 4 11 0 13 -54 5 -159 -23 -41 -11 -87 -21 -103
-22 -52 -4 -28 12 45 29 103 24 107 25 107 35 0 6 -10 6 -25 0 -16 -6 -25 -6
-25 0 0 6 14 13 30 17 17 3 30 9 30 14 0 12 -4 12 92 -11z m-1192 0 c-20 -13
-40 -13 -40 0 0 6 12 10 28 10 21 0 24 -2 12 -10z m2240 -15 c0 -9 -6 -12 -15
-9 -8 4 -15 10 -15 15 0 5 7 9 15 9 8 0 15 -7 15 -15z m-2190 -4 c0 -9 -71
-41 -92 -41 -21 0 7 21 48 35 48 17 44 17 44 6z m380 -23 c0 -6 -7 -7 -16 -4
-9 3 -20 6 -25 6 -6 0 -8 4 -5 9 8 12 46 2 46 -11z m47 -4 c-3 -3 -12 -4 -19
-1 -8 3 -5 6 6 6 11 1 17 -2 13 -5z m1471 -16 c-3 -9 -28 -14 -69 -15 l-64 -1
50 13 c66 17 88 18 83 3z m-1428 -23 c36 -3 100 -16 143 -28 67 -18 83 -27
108 -58 l30 -38 -47 -35 -47 -36 -151 2 c-89 0 -131 4 -101 7 30 4 45 9 38 14
-7 4 -39 5 -72 1 -46 -5 -64 -3 -81 9 -22 15 -20 16 31 16 82 0 208 9 219 16
6 3 10 11 10 17 0 10 -31 7 -79 -8 -18 -5 -22 -4 -16 5 5 9 -1 12 -21 11 -46
-3 -61 1 -34 10 14 4 46 8 71 9 25 1 49 4 52 7 17 17 -9 19 -98 8 -103 -13
-133 -10 -115 11 13 16 -10 37 -45 39 -33 1 -32 14 3 22 15 3 32 7 37 10 6 2
30 1 55 -1 25 -2 74 -7 110 -10z m1020 -5 c0 -5 -2 -10 -4 -10 -3 0 -8 5 -11
10 -3 6 -1 10 4 10 6 0 11 -4 11 -10z m219 6 c-11 -9 -69 -14 -69 -6 0 6 17
10 37 10 20 0 34 -2 32 -4z m523 -23 c28 -25 22 -35 -19 -27 -47 8 -49 10 -33
29 16 19 29 19 52 -2z m-2385 -17 c-6 -17 -21 -13 -25 6 -3 13 1 16 13 12 9
-4 14 -12 12 -18z m953 14 c0 -5 -17 -10 -37 -9 -31 0 -34 2 -18 9 28 12 55
12 55 0z m89 -34 c-8 -8 -78 -10 -85 -3 -4 4 14 7 41 7 27 0 46 -2 44 -4z
m798 -2 c-3 -3 -12 -4 -19 -1 -8 3 -5 6 6 6 11 1 17 -2 13 -5z m601 -28 c56
-15 102 -40 102 -55 0 -11 -85 -19 -297 -27 -101 -4 -163 -2 -163 3 0 6 19 18
43 28 23 10 67 31 97 47 48 25 62 28 110 23 30 -3 79 -12 108 -19z m-555 2
c-16 -8 -32 -8 -55 0 -32 9 -31 10 22 10 46 1 52 -1 33 -10z m-1383 -13 c5 3
10 1 10 -4 0 -6 -11 -11 -24 -11 -14 0 -37 -5 -52 -10 -26 -10 -43 -2 -44 22
0 10 73 14 87 5 7 -5 17 -6 23 -2z m2230 -35 c-9 -17 -19 -21 -52 -18 -44 3
-67 28 -26 28 13 1 37 7 53 14 34 14 42 7 25 -24z m-2525 0 c-3 -5 -10 -10
-16 -10 -5 0 -9 5 -9 10 0 6 7 10 16 10 8 0 12 -4 9 -10z m815 -6 c0 -2 -16
-4 -35 -4 -19 0 -35 4 -35 8 0 4 16 6 35 4 19 -2 35 -6 35 -8z m800 -6 c38 -7
70 -16 70 -20 0 -4 -30 -9 -67 -10 -38 0 -110 -2 -160 -4 -51 -1 -93 -1 -93 1
0 3 17 13 38 24 44 24 111 26 212 9z m-1413 -14 c-3 -3 -12 -4 -19 -1 -8 3 -5
6 6 6 11 1 17 -2 13 -5z m512 -18 c-2 -2 -15 -7 -29 -11 -25 -8 -25 -8 -6 14
13 14 23 18 30 11 5 -5 8 -11 5 -14z m-756 -17 c57 -13 55 -20 -10 -25 -26 -2
-78 -6 -115 -9 l-68 -5 0 30 0 30 73 -5 c39 -3 94 -10 120 -16z m332 1 c4 -6
-7 -10 -27 -10 -25 0 -29 3 -18 10 19 13 37 13 45 0z m1235 -20 c0 -5 -4 -10
-10 -10 -5 0 -10 5 -10 10 0 6 5 10 10 10 6 0 10 -4 10 -10z"/>
<path d="M2568 1662 c33 -10 32 -22 -3 -38 -25 -12 -26 -13 -5 -8 14 3 36 8
50 11 27 6 42 22 34 35 -3 4 -26 8 -52 7 -33 -1 -40 -3 -24 -7z"/>
<path d="M498 1506 c-49 -12 -50 -31 -2 -23 40 7 48 11 43 24 -2 5 -21 4 -41
-1z"/>
<path d="M885 1420 c3 -5 11 -10 16 -10 6 0 7 5 4 10 -3 6 -11 10 -16 10 -6 0
-7 -4 -4 -10z"/>
<path d="M2080 1510 c0 -5 11 -10 25 -10 14 0 25 5 25 10 0 6 -11 10 -25 10
-14 0 -25 -4 -25 -10z"/>
<path d="M2768 1454 c6 -3 12 -15 12 -26 0 -11 5 -18 13 -15 23 7 14 42 -13
44 -14 1 -19 0 -12 -3z"/>
<path d="M2780 1350 c0 -16 5 -21 23 -18 12 2 22 10 22 18 0 8 -10 16 -22 18
-18 3 -23 -2 -23 -18z"/>
<path d="M668 1373 c-10 -2 -18 -9 -18 -14 0 -15 53 -6 58 9 4 12 -8 14 -40 5z"/>
<path d="M733 1306 c-6 -8 -10 -16 -7 -19 7 -7 64 16 64 25 0 13 -44 8 -57 -6z"/>
<path d="M780 1200 c0 -5 5 -10 10 -10 6 0 10 5 10 10 0 6 -4 10 -10 10 -5 0
-10 -4 -10 -10z"/>
<path d="M2505 1160 c-3 -6 5 -10 19 -10 14 0 28 5 31 10 3 6 -5 10 -19 10
-14 0 -28 -4 -31 -10z"/>
<path d="M2510 1110 c-22 -7 -21 -8 13 -9 23 -1 36 3 32 9 -7 11 -10 11 -45 0z"/>
<path d="M896 1023 c-99 -15 -113 -28 -21 -19 108 10 145 17 145 27 0 10 -15
9 -124 -8z"/>
<path d="M305 1130 c-3 -5 -2 -10 4 -10 5 0 13 5 16 10 3 6 2 10 -4 10 -5 0
-13 -4 -16 -10z"/>
<path d="M398 923 c-10 -2 -18 -9 -18 -14 0 -14 34 -11 56 6 19 14 19 14 -1
14 -11 -1 -28 -3 -37 -6z"/>
<path d="M280 899 c-19 -6 -14 -7 19 -4 24 3 46 7 49 10 8 8 -40 4 -68 -6z"/>
<path d="M255 870 c-27 -7 -25 -8 18 -9 26 0 47 4 47 9 0 11 -21 11 -65 0z"/>
<path d="M2764 948 c-3 -4 6 -8 20 -8 14 0 26 4 26 9 0 11 -39 10 -46 -1z"/>
<path d="M2670 791 c0 -5 14 -11 30 -13 18 -3 29 0 27 5 -4 13 -57 21 -57 8z"/>
<path d="M654 857 c1 -13 -6 -23 -18 -25 -11 -2 -26 -10 -34 -18 -7 -8 -22
-14 -33 -14 -10 0 -19 -4 -19 -9 0 -6 12 -6 31 -1 23 7 35 6 46 -5 8 -9 25
-13 39 -10 13 3 35 7 49 10 48 10 25 22 -27 14 -53 -9 -81 -3 -39 8 13 3 20
11 17 19 -3 7 -1 16 4 19 14 9 12 22 -3 28 -9 3 -13 -3 -13 -16z"/>
<path d="M720 850 c0 -5 -9 -10 -20 -10 -11 0 -20 -5 -20 -10 0 -7 18 -9 47
-5 54 6 64 12 43 25 -20 13 -50 13 -50 0z"/>
<path d="M750 800 c0 -5 7 -10 15 -10 8 0 15 5 15 10 0 6 -7 10 -15 10 -8 0
-15 -4 -15 -10z"/>
<path d="M672 646 c4 -5 0 -15 -10 -23 -16 -14 -16 -14 1 -9 10 3 30 6 43 6
13 0 24 5 24 11 0 6 -7 8 -16 5 -9 -4 -24 -1 -33 6 -9 7 -13 8 -9 4z"/>
<path d="M335 615 l-30 -13 43 -1 c30 -1 42 3 40 11 -6 18 -20 19 -53 3z"/>
<path d="M332 558 c6 -18 28 -21 28 -4 0 9 -7 16 -16 16 -9 0 -14 -5 -12 -12z"/>
<path d="M407 526 c-15 -12 -13 -13 20 -12 33 1 38 -2 37 -21 0 -19 5 -23 28
-23 18 0 28 5 28 15 0 8 -7 15 -16 15 -8 0 -12 5 -8 11 16 27 -57 39 -89 15z"/>
<path d="M400 470 c0 -5 6 -10 14 -10 8 0 18 5 21 10 3 6 -3 10 -14 10 -12 0
-21 -4 -21 -10z"/>
<path d="M473 433 c-23 -4 -30 -17 -15 -27 13 -8 65 9 70 22 4 12 -12 13 -55
5z"/>
<path d="M2805 470 c-3 -5 -2 -10 4 -10 5 0 13 5 16 10 3 6 2 10 -4 10 -5 0
-13 -4 -16 -10z"/>
<path d="M2776 371 c-4 -7 -5 -15 -2 -18 9 -9 19 4 14 18 -4 11 -6 11 -12 0z"/>
<path d="M2240 340 c-12 -8 -10 -10 8 -10 13 0 20 4 17 10 -7 12 -6 12 -25 0z"/>
<path d="M2165 280 c-11 -17 -3 -19 35 -10 19 4 27 8 18 9 -9 1 -23 4 -31 7
-8 3 -18 0 -22 -6z"/>
<path d="M656 305 c-19 -14 -18 -15 10 -15 17 0 39 7 50 15 18 14 18 14 -11
14 -16 0 -39 -6 -49 -14z"/>
</g>
</svg>
