<?xml version="1.0" standalone="no"?>
<!DOCTYPE svg PUBLIC "-//W3C//DTD SVG 20010904//EN"
 "http://www.w3.org/TR/2001/REC-SVG-20010904/DTD/svg10.dtd">
<svg version="1.0" xmlns="http://www.w3.org/2000/svg"
 width="418.000000pt" height="231.000000pt" viewBox="0 0 418.000000 231.000000"
 preserveAspectRatio="xMidYMid meet">
<metadata>
Created by potrace 1.16, written by Peter Selinger 2001-2019
</metadata>
<g transform="translate(0.000000,231.000000) scale(0.100000,-0.100000)"
fill="#000000" stroke="none">
<path d="M2690 2299 c-30 -4 -122 -13 -205 -19 -82 -5 -184 -15 -225 -20 -121
-15 -474 -29 -486 -19 -6 5 -15 4 -21 -2 -6 -6 -39 -14 -73 -18 -61 -7 -61 -7
-39 10 13 10 21 20 18 23 -3 3 -21 -5 -39 -19 -36 -27 -76 -33 -83 -12 -3 9
-9 7 -23 -5 -18 -15 -57 -18 -339 -24 -176 -4 -329 -11 -340 -15 -17 -8 -15
-9 8 -6 15 3 29 1 32 -3 2 -4 -33 -10 -78 -14 -45 -4 -109 -10 -142 -13 -68
-6 -68 13 0 20 22 3 3 3 -42 1 -64 -2 -82 0 -87 12 -6 17 -46 19 -46 2 0 -6
-3 -9 -6 -6 -3 4 -19 2 -36 -3 -17 -4 -85 -9 -152 -10 -101 -1 -125 -4 -147
-20 -15 -10 -37 -19 -48 -19 -12 0 -21 -4 -21 -10 0 -5 4 -10 8 -10 14 0 4
-322 -13 -426 -35 -212 -28 -452 21 -743 13 -76 16 -147 12 -357 -2 -145 0
-260 4 -258 7 5 9 -14 13 -110 1 -16 6 -31 13 -34 7 -2 12 -12 12 -22 0 -23
20 -37 30 -20 5 8 9 4 14 -13 4 -18 16 -27 48 -35 75 -19 99 -20 242 -10 221
15 268 17 473 25 106 5 205 6 220 3 16 -3 100 -2 188 2 88 3 239 9 335 12 298
10 525 22 660 37 47 5 119 9 160 9 41 0 91 4 110 9 19 5 161 12 315 15 196 4
295 10 330 20 28 8 100 17 160 20 61 4 144 11 185 16 41 5 109 11 152 12 70 3
75 2 67 -14 -14 -27 17 -23 55 5 29 23 35 23 115 15 62 -7 86 -6 91 3 4 6 6
50 3 98 -2 47 -5 185 -7 306 -2 121 -8 281 -14 355 -14 175 -16 383 -8 765 6
306 13 459 22 502 l4 23 -672 -1 c-370 -1 -698 -5 -728 -10z m1198 -45 c18
-25 30 -49 27 -55 -4 -5 0 -9 8 -9 9 0 17 -14 21 -32 9 -52 5 -236 -8 -318
l-11 -75 -19 49 c-14 37 -16 50 -6 56 9 6 5 20 -14 55 -26 45 -26 48 -9 61 15
12 16 13 1 8 -19 -7 -61 13 -53 25 3 5 -2 11 -10 15 -9 3 -15 18 -15 37 0 18
-2 30 -5 27 -7 -7 -110 94 -125 122 -6 11 -17 20 -24 20 -7 0 -21 9 -31 20
-24 26 -15 29 120 33 61 1 113 4 116 5 3 1 20 -19 37 -44z m-588 -15 c0 -21
30 -27 30 -6 1 9 40 -59 40 -69 0 -2 -9 -2 -20 -1 -12 1 -23 10 -26 23 -5 19
-10 21 -27 14 -12 -4 -21 -14 -19 -21 2 -7 -3 -16 -10 -21 -10 -7 -9 -11 5
-22 9 -7 17 -18 17 -25 0 -6 6 -11 14 -11 26 0 30 -40 7 -71 -12 -16 -19 -33
-16 -38 3 -5 -1 -12 -7 -14 -7 -3 -4 -6 7 -6 11 0 31 6 45 14 14 8 19 14 13
15 -16 0 -17 30 -2 30 6 0 9 7 5 15 -3 8 -1 15 4 15 5 0 7 7 4 15 -3 8 -11 13
-17 12 -6 -1 -12 5 -14 14 -8 37 33 10 107 -68 73 -77 93 -105 73 -102 -26 4
-35 -2 -24 -15 9 -11 7 -15 -10 -19 -27 -7 -15 -27 17 -27 16 0 27 7 33 22 8
21 10 19 34 -28 19 -38 23 -54 14 -63 -8 -8 -7 -11 5 -11 9 0 18 -6 21 -12 3
-8 9 -3 16 12 11 23 11 22 5 -10 -3 -19 -10 -52 -14 -74 -4 -21 -4 -50 0 -65
8 -26 8 -25 9 7 1 32 27 47 36 20 15 -44 10 -52 -40 -67 -27 -9 -55 -19 -62
-24 -6 -4 -14 -3 -18 2 -3 5 2 14 10 19 14 7 13 14 -10 53 -25 41 -27 35 -8
-23 9 -30 -15 -20 -32 12 -21 41 -29 38 -11 -5 13 -31 13 -35 -1 -35 -9 0 -22
-8 -30 -17 -13 -17 -14 -16 -10 5 6 28 -2 28 -30 -2 -31 -32 -29 -39 10 -31
30 7 31 6 12 -9 -17 -13 -18 -17 -5 -26 10 -6 11 -10 3 -10 -7 0 -13 -6 -13
-14 0 -9 7 -12 20 -9 29 8 24 -6 -7 -18 -20 -7 -28 -6 -35 3 -5 9 -8 3 -9 -17
-3 -48 -17 83 -18 168 -1 44 -5 77 -11 77 -5 0 -10 -10 -10 -22 0 -35 -24 -4
-27 35 -2 17 -4 49 -6 70 -2 29 -12 46 -40 72 -20 19 -37 42 -37 52 1 16 2 16
13 2 7 -9 22 -21 34 -27 12 -7 36 -37 54 -68 28 -50 30 -58 15 -66 -24 -13
-19 -26 8 -21 29 6 58 -33 33 -43 -8 -3 -14 -16 -14 -30 0 -20 4 -24 29 -24
19 0 27 4 22 11 -3 6 -2 14 4 18 6 3 14 19 18 35 5 21 4 27 -5 22 -14 -9 -54
32 -82 86 -23 46 -23 45 1 51 32 8 24 27 -9 21 -26 -5 -33 -1 -61 37 -18 24
-35 43 -39 42 -5 -1 -6 8 -4 20 3 15 -3 30 -18 42 -20 18 -22 18 -16 3 10 -28
-1 -21 -18 12 -22 43 -19 69 10 82 32 14 32 28 0 28 -19 0 -25 5 -23 16 2 10
-3 19 -9 21 -7 3 -13 0 -13 -6 0 -6 -9 -11 -20 -11 -11 0 -20 7 -20 16 0 11
-8 14 -27 12 -38 -4 -39 -24 -4 -43 17 -8 31 -22 31 -30 0 -22 -21 -18 -27 4
-3 11 -10 18 -17 15 -6 -2 -29 14 -51 36 -23 24 -48 40 -62 40 -13 0 -23 5
-23 10 0 14 73 13 87 -1 8 -8 20 -6 43 6 18 9 42 18 54 20 12 2 36 6 53 10 26
6 34 4 39 -10 5 -12 1 -23 -11 -31 -11 -8 -15 -19 -11 -30 6 -16 8 -16 21 2
12 15 16 16 23 6 7 -10 12 -6 21 18 10 30 9 32 -9 27 -22 -6 -22 -5 -14 16 8
21 54 9 54 -14z m199 5 c17 -38 6 -42 -14 -5 -8 17 -12 31 -7 31 5 0 14 -12
21 -26z m61 16 c8 -5 11 -12 7 -16 -4 -4 -15 0 -24 9 -18 18 -8 23 17 7z
m-654 -30 c61 -66 112 -113 137 -126 15 -8 27 -19 27 -24 0 -6 6 -10 13 -11
13 0 53 -47 63 -74 13 -32 -32 1 -46 35 -7 16 -16 30 -21 30 -29 0 22 -73 65
-94 20 -9 36 -20 36 -24 0 -4 15 -31 34 -59 19 -29 37 -66 41 -82 4 -17 13
-35 21 -39 11 -6 18 -37 24 -102 7 -70 14 -101 30 -123 28 -38 32 -87 10 -150
-26 -75 -31 -114 -18 -142 6 -13 14 -23 17 -20 10 6 -5 -104 -23 -169 -9 -33
-14 -66 -11 -74 3 -7 -4 -25 -15 -39 -11 -14 -20 -35 -20 -45 0 -11 -21 -47
-46 -81 -26 -34 -48 -70 -49 -82 -1 -11 -3 -23 -4 -26 0 -4 -10 -9 -21 -12
-12 -3 -18 -11 -15 -19 6 -14 -50 -88 -67 -88 -5 0 5 18 22 40 30 38 37 58 15
42 -14 -9 -65 -89 -65 -101 0 -7 -21 -28 -115 -116 -29 -28 -78 -67 -105 -85
-12 -8 -31 -23 -43 -33 -11 -9 -36 -21 -56 -27 -20 -5 -45 -16 -57 -24 -14
-10 -62 -17 -150 -21 -113 -6 -139 -4 -209 15 -48 13 -132 24 -210 29 -127 8
-132 9 -205 49 -41 22 -93 44 -114 48 -45 8 -152 62 -202 102 -20 16 -35 38
-39 59 -3 18 -11 35 -17 39 -7 4 -8 3 -4 -4 4 -7 4 -12 -1 -12 -14 1 -39 43
-59 100 -10 30 -23 58 -29 62 -5 4 -7 8 -2 8 4 0 1 12 -7 28 -7 15 -19 89 -25
167 -12 145 -8 197 33 385 27 129 165 380 208 380 5 0 32 17 61 38 77 58 214
127 293 150 103 30 172 29 233 -3 27 -15 81 -33 118 -40 136 -28 173 -44 173
-76 0 -11 7 -19 15 -19 8 0 15 -4 15 -9 0 -5 16 -19 35 -32 19 -13 45 -42 56
-64 29 -55 91 -135 105 -135 14 0 6 49 -12 70 -7 8 -16 28 -20 45 -4 16 -15
36 -25 45 -21 17 -63 120 -50 120 12 0 42 -60 36 -70 -3 -4 6 -15 20 -24 14
-9 29 -34 36 -58 7 -24 19 -48 27 -55 8 -7 18 -29 23 -50 14 -68 58 -225 63
-231 11 -10 56 21 56 39 0 9 -10 19 -21 22 -17 5 -20 11 -15 31 4 15 2 26 -4
26 -5 0 -10 5 -10 11 0 6 7 9 15 5 9 -3 15 0 15 10 0 8 7 17 16 21 12 4 14 14
9 44 -7 39 9 56 21 24 9 -22 24 -18 24 6 0 47 18 5 23 -56 7 -76 -1 -142 -14
-110 -6 16 -8 13 -8 -12 -1 -18 4 -33 9 -33 14 0 13 -23 -2 -38 -8 -8 -15 -8
-24 -1 -16 13 -26 -3 -10 -16 6 -5 18 -10 26 -10 10 0 15 -10 15 -33 0 -49
-14 -64 -16 -17 -1 22 -3 32 -6 23 -5 -20 -9 -21 -38 -8 -11 5 -15 9 -8 9 17
1 4 31 -13 31 -8 0 -14 6 -14 13 0 8 -4 7 -10 -3 -6 -8 -7 -28 -4 -43 4 -21 1
-32 -13 -42 -17 -14 -17 -14 0 -15 14 0 17 -5 12 -20 -5 -14 -2 -20 9 -20 19
0 19 -1 7 -33 -8 -19 -6 -27 5 -31 12 -4 12 -10 4 -26 -6 -11 -7 -20 -3 -20 4
0 -2 -6 -13 -14 -18 -14 -18 -15 4 -13 12 1 22 4 22 8 0 4 9 9 19 12 14 3 20
-2 24 -20 10 -55 -19 -84 -45 -44 -10 16 -15 17 -32 7 -25 -13 -37 -28 -33
-41 2 -5 -6 -20 -17 -33 -22 -25 -38 -72 -37 -109 1 -18 -5 -23 -24 -23 -30 0
-31 14 -5 64 10 22 17 43 14 47 -2 4 5 35 16 68 24 71 24 81 6 81 -8 0 -18
-22 -26 -59 -10 -49 -15 -58 -30 -54 -14 4 -18 0 -14 -14 4 -19 -136 -173
-188 -206 -27 -17 -28 -17 -28 0 0 15 -3 14 -16 -5 -8 -12 -19 -20 -23 -17 -5
2 -16 -2 -27 -9 -13 -10 -24 -11 -41 -3 -16 7 -26 7 -37 -2 -11 -10 -17 -8
-25 6 -10 17 -12 17 -30 -4 -19 -23 -21 -23 -131 -8 -118 16 -194 57 -270 142
-54 62 -93 142 -78 160 8 11 6 23 -10 52 -12 22 -24 61 -27 87 l-5 49 14 -53
c16 -62 33 -85 20 -27 -15 67 -10 186 8 220 9 17 28 53 41 80 71 143 212 194
383 140 64 -20 96 -37 131 -69 102 -92 113 -106 113 -145 1 -20 7 -47 15 -61
16 -28 19 -71 7 -85 -5 -6 -16 -31 -26 -57 -9 -25 -33 -63 -51 -83 -19 -20
-35 -41 -35 -46 0 -16 -78 -49 -117 -49 -49 0 -129 22 -172 46 -18 10 -42 23
-52 29 -29 15 -79 144 -79 203 0 45 4 53 50 100 28 29 57 52 65 52 7 0 20 6
28 14 9 9 19 11 28 5 12 -7 12 -9 -1 -9 -13 0 -13 -1 0 -10 22 -14 30 -12 24
8 -4 13 -2 12 7 -3 16 -26 29 -35 55 -35 12 0 25 -8 28 -17 10 -29 32 -63 49
-76 17 -13 28 -75 15 -83 -4 -3 -15 -20 -22 -38 -12 -28 -22 -35 -64 -46 -29
-6 -61 -8 -74 -4 -13 4 -26 7 -31 6 -4 -1 -13 9 -19 23 -6 14 -17 25 -23 25
-17 0 -10 116 7 133 20 20 46 27 76 21 35 -7 54 -36 46 -68 -8 -32 -30 -40
-57 -21 -31 22 -47 18 -47 -10 0 -31 62 -75 105 -75 23 0 35 8 53 35 12 19 22
41 22 49 0 24 -30 87 -39 81 -5 -2 -12 2 -15 11 -3 8 -10 13 -15 9 -5 -3 -12
-1 -16 4 -3 6 -12 8 -20 4 -9 -3 -15 1 -15 11 0 13 -10 16 -47 14 -40 -1 -54
-7 -81 -34 -19 -19 -31 -38 -28 -43 4 -5 2 -12 -4 -16 -23 -14 6 -118 46 -168
33 -40 102 -72 165 -75 47 -3 59 1 81 21 15 14 29 23 32 20 2 -3 23 12 44 33
30 29 45 56 61 108 21 68 21 71 4 120 -10 28 -24 55 -32 60 -8 5 -26 21 -39
35 -13 14 -28 27 -33 27 -5 1 -13 2 -18 3 -5 0 -23 12 -39 26 -28 24 -85 47
-148 60 -42 8 -147 -40 -190 -86 -39 -43 -81 -121 -92 -175 -13 -57 -4 -151
18 -204 10 -25 26 -66 36 -92 9 -28 24 -50 35 -53 11 -4 19 -14 19 -24 0 -13
9 -18 33 -18 57 -2 82 -8 93 -22 13 -16 74 -38 130 -47 31 -4 45 -2 57 11 16
15 17 15 17 -9 0 -31 15 -35 23 -6 4 16 14 20 45 20 47 0 182 73 182 99 0 9
16 39 36 66 47 66 71 120 95 212 21 84 25 159 8 165 -5 2 -13 22 -16 46 -3 23
-9 39 -13 37 -5 -3 -21 20 -36 50 -16 30 -35 57 -44 60 -16 5 -40 49 -40 73 0
7 -4 11 -9 8 -4 -3 -19 6 -31 19 -28 30 -112 85 -129 85 -6 0 -24 9 -39 19
-15 11 -44 22 -64 25 -25 5 -35 11 -32 20 4 11 -21 13 -128 11 -118 -3 -140
-6 -196 -29 -35 -15 -71 -24 -81 -21 -33 10 -215 -204 -205 -242 3 -11 -1 -27
-11 -36 -22 -23 -62 -133 -96 -267 -32 -128 -36 -168 -15 -176 9 -3 16 -32 21
-86 7 -81 46 -188 70 -188 5 0 16 -13 23 -29 7 -16 23 -40 35 -54 12 -14 30
-37 40 -52 11 -14 22 -24 25 -20 4 3 0 10 -8 15 -8 5 -12 11 -9 14 5 5 85 -45
180 -113 32 -23 62 -35 95 -38 27 -3 54 -9 60 -14 5 -4 19 -6 31 -3 11 3 35
-1 54 -8 26 -11 78 -14 214 -11 208 3 237 6 285 29 19 9 54 26 78 37 24 12 47
28 52 37 5 8 34 33 64 55 35 25 54 45 51 54 -6 15 23 66 32 57 3 -3 -2 -12
-11 -21 -17 -18 -21 -35 -8 -35 11 0 110 104 140 147 16 22 19 32 10 35 -9 3
-8 9 4 21 9 10 20 26 23 38 4 12 13 18 20 15 10 -3 17 11 26 52 6 31 17 68 24
82 14 28 30 138 45 318 10 117 9 128 -15 217 -14 52 -25 115 -25 140 0 35 -3
43 -14 39 -10 -4 -18 4 -23 23 -13 47 -86 153 -105 153 -24 0 -32 38 -25 116
7 75 -9 97 -19 24 -7 -55 -23 -64 -44 -25 -9 17 -17 22 -24 15 -8 -6 -18 0
-30 18 -10 15 -36 41 -57 57 -21 17 -38 35 -39 41 0 17 -48 36 -53 21 -3 -8
-10 -5 -21 8 -8 11 -16 23 -16 26 0 6 114 25 200 33 19 1 38 4 41 4 3 1 14 -7
25 -18z m-386 -14 c-19 -7 -66 -16 -105 -20 -38 -4 -86 -10 -105 -13 -20 -3
-31 -2 -27 3 11 12 171 42 227 42 l45 1 -35 -13z m77 8 c-3 -3 -12 -4 -19 -1
-8 3 -5 6 6 6 11 1 17 -2 13 -5z m868 -68 c14 -29 25 -57 25 -62 -1 -17 -30
30 -30 48 0 10 -9 23 -20 30 -11 7 -20 21 -20 31 0 29 18 10 45 -47z m128 40
c4 -10 1 -13 -9 -9 -7 3 -14 9 -14 14 0 14 17 10 23 -5z m-1593 -17 c18 -6 11
-7 -28 -5 -29 2 -55 0 -58 -5 -7 -12 -24 -12 -24 0 0 19 67 25 110 10z m545
-5 c24 -25 10 -29 -16 -5 -13 12 -18 21 -12 21 7 0 19 -7 28 -16z m461 -5 c19
-22 19 -22 -3 -10 -13 6 -23 16 -23 21 0 15 5 12 26 -11z m302 -10 c-3 -8 -7
-3 -11 10 -4 17 -3 21 5 13 5 -5 8 -16 6 -23z m-2008 12 c-24 -13 -80 -21 -80
-11 0 8 25 13 80 18 13 1 13 0 0 -7z m1144 3 c18 -7 22 -49 6 -59 -6 -4 -10 5
-10 19 0 21 -5 26 -24 26 -24 0 -36 -16 -36 -50 0 -10 -4 -21 -9 -25 -17 -10
0 69 17 83 18 13 32 15 56 6z m-670 -42 c-4 -18 -10 -32 -15 -32 -5 0 -9 -9
-9 -19 0 -11 -4 -23 -10 -26 -20 -12 -1 73 23 103 14 18 18 10 11 -26z m351 8
c-8 -16 -22 -33 -31 -38 -8 -5 -16 -15 -17 -23 -4 -21 -17 -39 -28 -39 -13 0
-1 42 15 52 6 4 11 13 12 20 0 7 2 21 2 30 2 15 18 24 50 27 9 1 9 -6 -3 -29z
m35 1 c-6 -12 -15 -21 -21 -21 -10 0 -5 13 14 38 15 19 20 7 7 -17z m48 21
c17 -11 4 -45 -15 -38 -10 4 -13 0 -10 -12 5 -22 -21 -74 -33 -67 -15 9 -12
35 5 41 8 4 15 17 15 29 0 27 9 55 19 55 3 0 12 -4 19 -8z m132 -2 c0 -5 -4
-10 -9 -10 -6 0 -13 5 -16 10 -3 6 1 10 9 10 9 0 16 -4 16 -10z m-1180 -10 c0
-5 -10 -10 -22 -10 -19 0 -20 2 -8 10 19 13 30 13 30 0z m430 0 c0 -5 -7 -10
-16 -10 -8 0 -12 5 -9 10 3 6 10 10 16 10 5 0 9 -4 9 -10z m37 4 c-3 -3 -12
-4 -19 -1 -8 3 -5 6 6 6 11 1 17 -2 13 -5z m97 -3 c7 -11 -20 -48 -29 -39 -9
8 4 48 15 48 5 0 11 -4 14 -9z m-44 -10 c0 -5 -7 -12 -16 -15 -24 -9 -28 -7
-14 9 14 17 30 20 30 6z m350 -1 c0 -5 -15 -10 -32 -10 -25 0 -29 3 -18 10 20
13 50 13 50 0z m230 0 c0 -5 -5 -10 -11 -10 -5 0 -7 5 -4 10 3 6 8 10 11 10 2
0 4 -4 4 -10z m290 -16 c0 -8 -4 -14 -9 -14 -4 0 -5 -19 -1 -42 5 -24 7 -45 5
-46 -2 -2 5 -19 16 -38 10 -19 18 -45 18 -57 -1 -17 -2 -18 -6 -4 -2 9 -12 17
-21 17 -10 0 -22 10 -27 23 -11 25 -31 21 -27 -5 2 -10 -2 -18 -7 -18 -6 0
-11 3 -11 8 -1 4 -3 24 -6 45 -6 38 3 46 24 25 19 -19 24 14 8 53 -9 19 -15
26 -16 17 0 -10 -5 -18 -11 -18 -6 0 -9 12 -7 28 2 22 7 26 26 24 14 -2 22 2
22 12 0 10 6 13 15 10 8 -4 15 -12 15 -20z m980 5 c0 -6 -4 -7 -10 -4 -5 3
-10 11 -10 16 0 6 5 7 10 4 6 -3 10 -11 10 -16z m-2160 5 c0 -3 -25 -34 -56
-67 -66 -73 -83 -97 -89 -126 -3 -18 -55 -118 -90 -176 -7 -11 -16 -33 -19
-49 -7 -27 -6 -28 10 -15 16 13 16 12 5 -6 -6 -11 -18 -38 -25 -60 -8 -22 -15
-32 -15 -23 -1 9 3 28 9 42 15 39 1 31 -16 -9 -18 -44 -46 -162 -46 -195 0
-33 -15 -60 -33 -60 -8 0 -15 -5 -15 -11 0 -5 5 -7 10 -4 6 3 10 1 10 -5 0 -6
-7 -13 -15 -16 -8 -4 -15 -10 -15 -15 0 -5 7 -9 15 -9 16 0 19 -18 8 -47 -6
-15 -8 -13 -13 12 -3 17 -9 -37 -13 -120 -5 -89 -4 -151 1 -153 5 -1 8 -24 6
-50 -3 -38 -2 -41 5 -17 7 25 9 27 16 12 5 -12 2 -24 -9 -36 -20 -22 -16 -70
16 -221 11 -52 22 -106 23 -120 4 -35 49 -130 101 -208 24 -37 44 -71 44 -76
0 -13 93 -96 109 -96 8 0 3 -9 -13 -21 -18 -15 -36 -19 -63 -16 l-38 4 42 1
c23 1 45 7 48 12 7 12 -4 14 -63 10 -35 -1 -41 1 -36 14 3 9 2 16 -4 16 -6 0
-12 -5 -14 -11 -5 -15 -48 -2 -48 15 0 7 -21 31 -46 54 -30 27 -44 47 -40 57
3 10 0 15 -11 15 -25 0 -63 48 -63 81 0 16 -7 40 -15 53 -9 13 -17 37 -19 53
-2 17 -11 50 -19 74 -9 28 -17 111 -21 229 -4 101 -12 191 -17 200 -8 14 -4
-175 6 -275 3 -29 2 -35 -5 -20 -5 11 -9 43 -9 72 -1 28 -6 53 -11 55 -9 3
-16 116 -9 143 2 6 -1 25 -5 44 -6 25 -4 37 8 49 15 15 16 15 16 -5 0 -23 15
-39 23 -26 3 5 8 39 11 76 3 38 8 85 11 105 4 30 3 33 -5 17 -8 -15 -9 -8 -5
30 3 35 2 45 -5 35 -8 -12 -10 -11 -10 8 0 13 4 21 9 18 5 -4 7 4 3 16 -3 13
-1 19 5 15 11 -7 18 14 49 148 9 39 20 75 24 80 5 6 18 35 29 65 12 30 26 64
31 75 5 11 19 45 32 75 24 59 68 135 124 215 35 49 37 50 107 61 92 15 97 15
97 8z m150 -4 c0 -5 -8 -10 -17 -10 -15 0 -16 2 -3 10 19 12 20 12 20 0z m313
-10 c-6 -21 -28 -27 -38 -10 -9 15 3 30 25 30 13 0 17 -5 13 -20z m107 0 c-6
-11 -12 -20 -14 -20 -2 0 -2 9 1 20 3 11 9 20 15 20 5 0 4 -9 -2 -20z m1233 0
c-3 -12 -8 -19 -11 -16 -5 6 5 36 12 36 2 0 2 -9 -1 -20z m477 10 c0 -5 -4
-10 -10 -10 -5 0 -10 5 -10 10 0 6 5 10 10 10 6 0 10 -4 10 -10z m-2235 -10
c-3 -5 -11 -10 -16 -10 -6 0 -7 5 -4 10 3 6 11 10 16 10 6 0 7 -4 4 -10z m483
-19 c3 -10 -1 -10 -14 -3 -11 5 -25 7 -32 5 -7 -3 -10 1 -6 11 7 17 45 7 52
-13z m1524 15 c3 3 8 -2 11 -10 8 -21 -20 -28 -38 -10 -21 22 -19 37 4 25 10
-6 21 -8 23 -5z m-2312 -6 c0 -11 -42 -77 -66 -104 -12 -14 -13 -20 -4 -26 8
-5 3 -9 -13 -14 -14 -3 -28 -13 -31 -22 -5 -13 -2 -15 14 -11 12 3 20 2 18 -2
-40 -100 -91 -183 -75 -121 3 11 1 18 -3 15 -5 -3 -11 1 -14 7 -3 7 -3 2 0
-11 5 -17 3 -21 -7 -16 -9 6 -11 2 -7 -13 4 -12 2 -22 -3 -22 -4 0 -6 -6 -3
-14 3 -8 -3 -23 -13 -33 -11 -11 -17 -29 -15 -47 2 -16 -1 -33 -7 -39 -6 -6
-11 -21 -11 -34 0 -21 -4 -23 -50 -23 -57 0 -63 -9 -21 -28 21 -9 28 -18 25
-30 -5 -15 -4 -15 6 1 18 28 25 20 26 -31 1 -27 -2 -39 -6 -28 -5 14 -12 1
-29 -52 -14 -43 -29 -72 -37 -72 -15 0 -18 -18 -8 -44 3 -9 10 -13 16 -10 8 5
6 -24 -7 -91 -2 -11 -19 -29 -36 -39 -32 -19 -32 -19 -27 2 4 13 0 23 -9 27
-12 4 -14 15 -9 45 6 38 5 40 -18 40 -29 0 -44 -18 -22 -26 12 -5 16 -21 16
-69 0 -68 -8 -82 -39 -66 -16 9 -19 6 -25 -29 -3 -22 -11 -40 -17 -40 -5 0 -7
-5 -4 -11 4 -6 13 -8 20 -5 7 2 21 -2 32 -9 10 -9 13 -14 6 -15 -7 0 -13 -10
-13 -22 0 -13 -5 -30 -10 -38 -8 -12 -10 -12 -11 5 0 13 -3 15 -6 6 -4 -11 -7
-11 -13 0 -7 10 -14 10 -34 1 -21 -9 -26 -18 -26 -49 0 -28 3 -34 10 -23 5 8
10 23 10 33 0 21 18 23 26 3 3 -8 -4 -24 -15 -35 -12 -12 -21 -25 -21 -29 0
-17 -60 0 -61 17 -1 14 -2 13 -6 -1 -5 -20 -23 -24 -23 -5 0 14 20 47 20 33 0
-5 7 -2 17 5 9 8 19 13 22 11 8 -3 23 57 18 71 -3 7 -9 -4 -15 -23 -6 -19 -11
-30 -11 -23 -1 6 -15 10 -36 8 -42 -4 -55 -11 -55 -31 0 -8 -4 -14 -10 -14
-14 0 -13 16 2 41 11 17 10 22 -5 33 -16 12 -16 14 -1 27 10 8 20 13 23 12 3
-2 6 3 6 10 0 6 -8 11 -17 9 -13 -2 -18 4 -18 19 0 14 5 19 15 15 8 -3 19 2
24 12 9 14 11 12 12 -13 l1 -30 9 32 c8 28 12 31 31 24 27 -10 36 -31 14 -31
-9 0 -16 -8 -16 -20 0 -11 -7 -20 -15 -20 -19 0 -19 -7 0 -26 9 -9 15 -11 15
-4 0 6 8 10 18 8 11 -2 18 4 20 20 2 12 9 22 16 22 7 0 19 18 26 39 8 26 17
38 26 34 10 -4 14 3 14 21 0 14 -5 26 -11 26 -6 0 -8 8 -5 18 5 14 -2 21 -29
31 -35 12 -60 8 -50 -10 4 -5 15 -9 26 -9 22 0 26 -15 5 -23 -9 -4 -12 -14 -9
-26 4 -16 1 -21 -15 -21 -16 0 -22 9 -27 41 -5 29 -10 38 -16 28 -6 -10 -9 -8
-9 10 0 16 4 21 14 18 17 -7 27 14 19 42 -4 15 -1 21 11 21 11 0 16 -9 17 -27
1 -17 3 -21 6 -10 5 18 33 24 33 7 0 -12 37 -13 44 -1 12 19 -5 38 -30 33 -16
-3 -29 1 -38 13 -9 13 -20 16 -39 11 -15 -3 -27 -2 -27 3 0 14 37 23 57 14 28
-12 86 -9 90 5 3 6 -2 12 -10 12 -9 0 -23 7 -32 16 -9 9 -25 14 -35 11 -11 -3
-20 -2 -20 3 0 4 9 10 21 13 12 3 18 10 14 16 -9 15 -45 14 -46 -1 -1 -7 -2
-20 -3 -28 -1 -17 -66 -28 -66 -11 0 6 6 11 14 11 24 0 30 21 7 27 -12 3 -21
11 -21 18 0 8 8 11 20 8 11 -3 20 -10 20 -15 0 -5 4 -6 10 -3 6 3 10 17 10 31
0 18 -4 23 -12 17 -44 -27 -53 1 -27 82 22 69 19 89 -12 80 -14 -5 -17 -3 -13
9 3 9 10 16 15 16 28 0 48 24 50 60 1 17 3 20 6 7 2 -9 9 -15 14 -12 5 4 9 1
9 -5 0 -6 6 -10 13 -8 6 2 13 -2 15 -7 1 -6 -2 -11 -8 -11 -5 -1 -14 -2 -20
-3 -5 0 -10 -8 -10 -16 0 -9 6 -12 15 -9 8 4 22 3 31 0 15 -6 14 -10 -6 -31
-13 -14 -29 -25 -37 -25 -7 0 -13 -5 -13 -11 0 -6 7 -9 15 -5 9 3 24 -3 35
-14 26 -26 28 -25 24 10 -3 27 -1 30 22 28 22 -2 25 -6 22 -30 -3 -16 -1 -28
4 -28 4 0 8 -7 8 -15 0 -9 -9 -15 -25 -15 -26 0 -34 -14 -12 -23 23 -9 100 2
108 15 6 9 9 8 9 -6 0 -16 3 -17 12 -8 7 7 20 12 31 12 13 0 17 6 15 21 -2 16
-11 23 -33 25 -16 2 -31 8 -33 13 -2 7 -10 6 -22 -1 -14 -9 -22 -9 -34 1 -24
20 -8 33 35 28 42 -5 63 7 28 16 -12 3 -18 10 -15 15 3 6 15 8 26 5 11 -3 28
-2 37 2 10 5 21 7 26 7 4 -1 7 4 7 12 0 19 -33 26 -54 10 -10 -7 -24 -10 -32
-7 -8 3 -22 -1 -31 -8 -12 -11 -17 -11 -20 -2 -5 14 -35 5 -46 -14 -14 -22
-29 -3 -22 28 4 19 3 29 -5 29 -7 0 -10 7 -7 15 4 10 -3 16 -27 21 l-34 6 16
39 c8 21 18 39 23 39 4 0 5 8 3 18 -6 20 21 61 32 49 5 -4 1 -27 -8 -51 -9
-25 -14 -47 -11 -50 13 -12 22 -5 28 23 4 21 12 29 26 28 10 -1 19 -5 19 -9 0
-4 14 -15 30 -25 30 -17 43 -47 16 -37 -8 3 -17 1 -21 -5 -4 -7 6 -11 27 -11
19 0 40 -6 46 -12 10 -10 14 -8 18 10 4 12 13 22 20 22 8 0 14 5 14 10 0 6 -9
10 -21 10 -15 0 -19 5 -15 15 3 8 1 15 -5 15 -6 0 -25 6 -42 14 -18 8 -41 16
-52 18 -12 2 -21 12 -23 26 -2 12 -8 22 -13 22 -5 0 -9 7 -9 16 0 14 -3 14
-15 4 -12 -10 -15 -10 -15 1 0 18 20 49 20 32 0 -7 7 -13 16 -13 14 0 16 8 11
41 -5 39 -3 42 24 52 33 13 40 28 9 20 -11 -3 -20 -1 -20 4 0 10 32 37 49 41
23 5 43 -20 36 -45 -5 -20 -2 -23 25 -23 32 0 37 -9 18 -28 -9 -9 -9 -12 0
-12 6 0 15 6 19 13 4 8 15 16 24 19 24 9 30 47 11 66 -23 23 -21 46 3 54 32
10 265 9 265 -2z m880 -12 c0 -5 -7 -22 -15 -38 -9 -17 -12 -30 -8 -30 4 0 2
-5 -5 -12 -17 -17 -15 -28 6 -29 9 0 -1 -9 -23 -19 -46 -21 -59 -24 -50 -10 3
6 1 10 -4 10 -6 0 -11 8 -11 17 0 15 2 14 14 -3 20 -27 30 -11 27 42 -2 36 2
51 19 69 21 22 50 24 50 3z m306 -17 c-16 -17 -15 -18 7 -14 14 3 38 -2 55
-11 32 -16 54 -40 29 -30 -11 4 -16 -8 -21 -45 -4 -28 -11 -51 -17 -51 -6 0
-8 8 -5 18 13 49 17 102 7 102 -7 0 -14 -7 -17 -15 -5 -11 -10 -13 -19 -5 -9
7 -15 6 -22 -2 -14 -19 -26 -51 -24 -65 1 -8 -8 -10 -26 -7 -42 7 -53 12 -53
26 0 9 3 9 11 1 23 -23 68 13 69 55 0 30 32 91 38 74 2 -7 -3 -21 -12 -31z
m294 13 c0 -8 -4 -12 -10 -9 -5 3 -10 10 -10 16 0 5 5 9 10 9 6 0 10 -7 10
-16z m977 -14 c6 -16 8 -32 3 -35 -9 -5 -22 19 -25 48 -3 27 9 20 22 -13z
m-2790 14 c-3 -3 -12 -4 -19 -1 -8 3 -5 6 6 6 11 1 17 -2 13 -5z m878 -21 c-2
-16 -4 -34 -4 -40 -1 -7 -7 -13 -15 -13 -14 0 -14 30 -1 68 8 23 24 12 20 -15z
m365 17 c5 8 9 7 13 -5 4 -9 3 -14 -2 -11 -5 3 -12 -2 -15 -11 -6 -14 -9 -15
-16 -4 -4 8 -5 21 -2 30 4 11 7 12 10 2 3 -10 6 -10 12 -1z m424 -24 c-3 -8
-1 -17 5 -21 6 -3 11 -26 11 -50 0 -38 -2 -43 -20 -38 -12 3 -19 11 -17 17 2
6 -2 29 -8 51 -10 35 -11 49 -6 70 0 3 10 1 21 -5 10 -6 17 -17 14 -24z
m-1854 15 c0 -6 -4 -13 -10 -16 -5 -3 -10 1 -10 9 0 9 5 16 10 16 6 0 10 -4
10 -9z m50 -3 c0 6 7 12 15 12 18 0 18 1 4 -39 -8 -23 -14 -29 -24 -21 -6 5
-14 7 -17 4 -3 -3 -9 -1 -13 5 -3 6 -1 11 5 11 7 0 10 6 7 14 -7 19 5 30 15
14 6 -10 8 -10 8 0z m1060 2 c0 -5 -4 -10 -10 -10 -5 0 -10 5 -10 10 0 6 5 10
10 10 6 0 10 -4 10 -10z m430 0 c0 -5 -2 -10 -4 -10 -3 0 -8 5 -11 10 -3 6 -1
10 4 10 6 0 11 -4 11 -10z m110 6 c0 -16 -14 -36 -26 -36 -14 0 -19 22 -7 33
7 8 33 10 33 3z m-440 -20 c0 -16 -18 -31 -27 -22 -8 8 5 36 17 36 5 0 10 -6
10 -14z m-190 -5 c0 -5 -12 -14 -27 -19 -18 -7 -22 -11 -10 -11 24 -1 21 -17
-5 -26 -17 -5 -19 -8 -7 -11 17 -5 24 -70 8 -80 -5 -3 -9 -1 -9 5 0 6 -7 8
-15 5 -11 -5 -14 2 -13 30 1 20 5 39 10 42 4 3 8 15 8 26 0 21 26 47 48 48 6
0 12 -4 12 -9z m1170 -17 c0 -8 -4 -12 -10 -9 -5 3 -10 13 -10 21 0 8 5 12 10
9 6 -3 10 -13 10 -21z m-2370 11 c0 -14 -33 -85 -40 -85 -5 0 -11 -13 -15 -29
-3 -16 -17 -39 -31 -51 -13 -13 -24 -33 -24 -45 0 -12 -11 -31 -24 -42 -22
-19 -44 -88 -32 -101 3 -3 6 4 6 16 0 12 4 22 9 22 6 0 6 -13 0 -32 -18 -60
-39 -197 -33 -212 3 -9 1 -16 -4 -16 -22 0 -36 81 -34 198 2 92 11 135 49 232
41 105 60 134 91 141 34 8 82 11 82 4z m1100 -25 c-13 -24 -13 -53 0 -45 11 7
13 -24 4 -50 -6 -14 -8 -14 -20 4 -11 16 -12 30 -3 70 6 28 15 49 20 45 5 -3
5 -13 -1 -24z m597 13 c-9 -9 -19 -14 -23 -11 -10 10 6 28 24 28 15 0 15 -1
-1 -17z m547 -25 c3 -15 2 -29 -3 -32 -11 -7 -21 17 -21 52 0 31 15 19 24 -20z
m-2181 4 c-3 -12 -9 -22 -14 -22 -12 0 -11 7 3 30 15 24 19 21 11 -8z m367 8
c0 -24 -28 -27 -56 -5 -18 15 -18 15 7 9 15 -3 30 -1 33 5 11 16 16 13 16 -9z
m850 1 c0 -19 -17 -38 -25 -29 -7 7 7 48 16 48 5 0 9 -9 9 -19z m1964 3 c11
-28 6 -38 -9 -18 -8 10 -15 22 -15 27 0 13 18 7 24 -9z m-124 -14 c9 -16 8
-18 -5 -14 -8 4 -15 12 -15 20 0 20 7 17 20 -6z m-1806 -14 c-3 -9 -10 -16
-15 -16 -6 0 -5 9 1 21 13 24 24 20 14 -5z m406 -6 c-12 -23 -36 -40 -26 -19
3 8 9 22 12 31 4 10 10 15 15 12 5 -3 5 -13 -1 -24z m45 -8 c-10 -10 -16 -12
-13 -7 3 6 8 19 13 30 5 14 9 16 12 7 3 -8 -3 -21 -12 -30z m55 23 c0 -8 -4
-15 -10 -15 -5 0 -7 7 -4 15 4 8 8 15 10 15 2 0 4 -7 4 -15z m386 -26 c1 -65
44 -152 44 -89 0 26 15 26 17 1 1 -11 -4 -22 -11 -24 -9 -4 -12 -15 -8 -33 l5
-27 -25 19 c-19 14 -28 34 -36 79 -13 80 -13 117 2 112 6 -2 11 -19 12 -38z
m181 9 c-3 -7 -5 -2 -5 12 0 14 2 19 5 13 2 -7 2 -19 0 -25z m-2197 -24 c0
-11 -7 -29 -15 -40 -13 -18 -14 -18 -15 -1 0 11 -5 15 -11 11 -7 -4 -10 -3 -7
2 2 5 11 23 18 41 15 34 30 27 30 -13z m1230 6 c10 -30 16 -37 26 -29 8 7 14
7 19 -1 3 -5 -2 -13 -12 -16 -21 -7 -44 -18 -93 -44 -19 -10 -44 -16 -55 -13
-26 7 -26 7 -19 27 4 11 19 16 49 16 24 0 47 5 50 10 3 6 -1 10 -9 10 -23 0
-25 33 -3 58 11 12 23 22 27 22 4 0 13 -18 20 -40z m216 25 c-3 -8 -1 -15 4
-15 6 0 10 5 10 11 0 8 5 8 15 -1 8 -7 12 -16 9 -21 -7 -13 -38 -11 -51 2 -13
13 -6 39 9 39 6 0 8 -7 4 -15z m-36 -5 c0 -5 -5 -10 -11 -10 -5 0 -7 5 -4 10
3 6 8 10 11 10 2 0 4 -4 4 -10z m700 0 c0 -5 -4 -10 -10 -10 -5 0 -10 5 -10
10 0 6 5 10 10 10 6 0 10 -4 10 -10z m167 -47 c10 -25 -4 -24 -36 4 -42 37
-42 62 0 32 17 -12 33 -28 36 -36z m-1246 14 c-13 -13 -26 -3 -16 12 3 6 11 8
17 5 6 -4 6 -10 -1 -17z m102 8 c-3 -9 -8 -14 -10 -11 -3 3 -2 9 2 15 9 16 15
13 8 -4z m667 -6 c0 -6 -4 -7 -10 -4 -5 3 -10 11 -10 16 0 6 5 7 10 4 6 -3 10
-11 10 -16z m-730 7 c0 -3 -4 -8 -10 -11 -5 -3 -10 -1 -10 4 0 6 5 11 10 11 6
0 10 -2 10 -4z m653 -16 c-3 -11 -7 -20 -9 -20 -2 0 -4 9 -4 20 0 11 4 20 9
20 5 0 7 -9 4 -20z m425 -7 c3 -23 -12 -31 -23 -13 -3 6 -15 10 -26 10 -10 0
-19 6 -19 13 0 7 13 12 33 12 26 0 33 -4 35 -22z m-2222 -31 c-4 -3 -11 -1
-18 6 -8 8 -8 15 3 28 13 16 14 16 17 -5 2 -13 1 -25 -2 -29z m3056 31 c19
-22 32 -56 18 -48 -6 3 -10 12 -10 19 0 8 -7 19 -16 27 -13 10 -17 10 -25 -2
-7 -11 -9 -11 -9 4 0 9 6 17 13 17 8 0 21 -8 29 -17z m48 -37 c0 -18 -17 8
-24 34 l-7 25 15 -25 c9 -14 15 -29 16 -34z m-2219 21 c-10 -9 -11 -8 -5 6 3
10 9 15 12 12 3 -3 0 -11 -7 -18z m-71 0 c0 -7 -7 -22 -15 -33 -12 -16 -14
-17 -15 -2 0 23 11 48 21 48 5 0 9 -6 9 -13z m123 -7 c-3 -12 -8 -19 -11 -16
-5 6 5 36 12 36 2 0 2 -9 -1 -20z m937 -14 c0 -5 -7 -3 -15 4 -8 7 -12 17 -9
22 7 10 24 -9 24 -26z m-790 -26 c-16 -39 -23 -32 -14 15 4 25 10 33 17 26 7
-7 6 -20 -3 -41z m2185 -17 c9 -57 -9 -56 -24 1 -15 61 -15 74 3 56 8 -8 17
-34 21 -57z m-2295 5 c0 -10 -6 -18 -13 -18 -9 0 -12 10 -9 31 3 22 7 27 13
18 5 -8 9 -22 9 -31z m163 22 c-3 -12 -8 -19 -11 -16 -5 6 5 36 12 36 2 0 2
-9 -1 -20z m847 -10 c0 -10 3 -25 6 -34 9 -23 -19 -20 -40 3 -14 16 -15 22 -5
39 15 23 39 18 39 -8z m204 -1 c-8 -13 -24 -1 -24 18 0 13 3 13 15 3 8 -7 12
-16 9 -21z m1022 -20 c4 -22 10 -42 15 -45 4 -2 5 -12 2 -21 -4 -11 -12 1 -24
38 -21 63 -23 83 -9 74 5 -3 13 -24 16 -46z m-965 24 c12 -15 12 -16 -4 -10
-10 4 -23 7 -28 7 -6 0 -7 5 -4 10 9 15 21 12 36 -7z m133 1 c10 -25 -1 -29
-14 -5 -6 12 -7 21 -1 21 5 0 12 -7 15 -16z m-1659 -4 c3 -5 1 -10 -4 -10 -6
0 -11 5 -11 10 0 6 2 10 4 10 3 0 8 -4 11 -10z m211 -17 c-10 -10 -19 5 -10
18 6 11 8 11 12 0 2 -7 1 -15 -2 -18z m176 5 c-7 -7 -12 -8 -12 -2 0 6 3 14 7
17 3 4 9 5 12 2 2 -3 -1 -11 -7 -17z m-1072 -23 c-9 -23 -13 -25 -25 -15 -19
16 -20 41 -1 34 8 -3 17 0 21 6 12 20 16 4 5 -25z m812 13 c-7 -7 -12 -8 -12
-2 0 6 3 14 7 17 3 4 9 5 12 2 2 -3 -1 -11 -7 -17z m188 12 c0 -5 -8 -10 -17
-10 -17 -1 -17 -2 0 -14 15 -12 16 -18 8 -35 -6 -11 -11 -28 -11 -38 0 -10
-10 -24 -21 -32 -21 -12 -21 -11 -15 16 7 28 11 58 14 101 2 15 8 22 22 22 11
0 20 -4 20 -10z m986 -5 c8 -21 -6 -41 -17 -24 -12 19 -11 39 1 39 6 0 13 -7
16 -15z m-1267 -39 c-9 -8 -10 -7 -5 7 3 10 7 24 7 30 1 7 3 4 6 -7 3 -10 -1
-23 -8 -30z m542 24 c-25 -21 -51 -26 -51 -10 0 5 15 14 33 19 45 13 45 13 18
-9z m981 -18 c-4 -13 -7 -12 -12 3 -12 35 -19 -21 -8 -59 6 -19 8 -41 5 -50
-6 -14 -9 -14 -37 2 -35 20 -39 32 -10 32 27 0 25 26 -2 41 -13 7 -26 17 -30
23 -12 18 2 27 24 15 17 -9 24 -7 41 10 22 22 40 11 29 -17z m-1139 -4 c7 -4
-2 -20 -21 -39 -18 -18 -32 -28 -32 -22 0 6 7 16 15 23 8 6 14 15 13 18 0 4 1
18 2 32 1 16 4 20 7 10 3 -8 11 -18 16 -22z m1027 -4 c0 -8 -4 -14 -10 -14 -5
0 -10 9 -10 21 0 11 5 17 10 14 6 -3 10 -13 10 -21z m137 4 c-3 -8 -6 -5 -6 6
-1 11 2 17 5 13 3 -3 4 -12 1 -19z m160 6 c3 -8 0 -21 -7 -27 -10 -9 -11 -9
-6 0 3 6 2 14 -4 18 -13 8 -13 25 0 25 6 0 13 -7 17 -16z m623 -28 c0 -5 -7
-1 -15 10 -8 10 -14 24 -14 29 0 6 6 1 14 -9 8 -11 15 -24 15 -30z m-2246 -14
c-4 -15 -8 -31 -9 -37 0 -5 -4 -17 -7 -25 -4 -8 -8 -21 -10 -28 -2 -8 -9 -6
-21 8 -17 20 -16 21 8 44 18 16 22 25 13 28 -10 4 -8 9 5 22 9 10 17 23 18 29
0 8 2 8 6 -1 3 -7 2 -25 -3 -40z m92 33 c-3 -9 1 -18 9 -21 8 -4 12 -11 9 -16
-4 -6 -10 -5 -15 3 -7 11 -9 10 -9 -3 0 -10 -7 -18 -15 -18 -19 0 -19 9 0 34
8 10 12 23 9 27 -3 5 0 9 6 9 7 0 9 -7 6 -15z m1431 -57 c-2 -7 -11 1 -20 19
-24 45 -21 64 4 26 11 -18 19 -38 16 -45z m810 50 c-3 -8 -6 -5 -6 6 -1 11 2
17 5 13 3 -3 4 -12 1 -19z m-3159 -13 c-8 -8 -48 8 -42 16 3 5 14 4 25 -2 12
-6 19 -12 17 -14z m1052 16 c0 -6 -4 -13 -10 -16 -5 -3 -10 1 -10 9 0 9 5 16
10 16 6 0 10 -4 10 -9z m2247 -23 c-3 -7 -5 -2 -5 12 0 14 2 19 5 13 2 -7 2
-19 0 -25z m-2423 1 c-3 -5 -10 -7 -15 -3 -5 3 -7 10 -3 15 3 5 10 7 15 3 5
-3 7 -10 3 -15z m286 2 c-11 -21 -30 -37 -30 -25 0 8 30 44 37 44 2 0 -1 -9
-7 -19z m1588 0 c3 -8 -1 -12 -9 -9 -7 2 -15 10 -17 17 -3 8 1 12 9 9 7 -2 15
-10 17 -17z m-2008 -1 c0 -5 -4 -10 -10 -10 -5 0 -10 5 -10 10 0 6 5 10 10 10
6 0 10 -4 10 -10z m1317 -22 c-4 -12 -1 -28 5 -35 8 -10 7 -13 -5 -13 -23 0
-31 18 -15 37 11 15 11 16 -4 10 -20 -7 -25 9 -5 16 24 10 29 7 24 -15z m1223
-9 c0 -10 -4 -19 -10 -19 -5 0 -10 12 -10 26 0 14 4 23 10 19 6 -3 10 -15 10
-26z m-2410 -3 c0 -8 -4 -18 -10 -21 -5 -3 -10 3 -10 14 0 12 5 21 10 21 6 0
10 -6 10 -14z m1417 2 c5 -7 15 -35 21 -62 10 -37 10 -52 1 -63 -9 -10 -9 -17
-1 -25 18 -18 14 -38 -8 -38 -14 0 -20 7 -22 23 0 12 -2 36 -3 52 -1 17 -7 51
-12 78 -8 36 -8 47 2 47 7 0 17 -6 22 -12z m147 6 c9 -3 16 -11 16 -16 0 -6
-6 -6 -14 1 -13 11 -13 7 -5 -24 6 -20 8 -39 5 -43 -3 -3 -9 9 -12 27 -4 17
-11 34 -15 37 -12 7 -11 24 0 24 5 0 16 -3 25 -6z m696 -14 c0 -4 -7 -10 -15
-14 -10 -4 -15 1 -15 14 0 13 5 18 15 14 8 -4 15 -10 15 -14z m-2421 -12 c-9
-16 -14 -19 -17 -9 -2 7 2 17 9 22 20 13 21 11 8 -13z m-498 -21 c-8 -8 -11
-7 -11 4 0 20 13 34 18 19 3 -7 -1 -17 -7 -23z m709 7 c0 -3 -4 -2 -10 1 -5 3
-10 -1 -10 -9 0 -25 19 -19 30 9 13 34 22 32 14 -2 -4 -15 -7 -33 -7 -40 0
-10 -6 -9 -23 2 -13 8 -36 15 -51 16 -27 0 -27 1 -5 9 12 5 22 16 22 25 0 13
4 14 20 5 11 -6 20 -13 20 -16z m-974 -46 c-13 -18 -16 -19 -16 -6 0 9 5 29
12 45 11 27 12 27 15 6 3 -13 -3 -33 -11 -45z m1109 52 c-3 -5 -12 -10 -18
-10 -7 0 -6 4 3 10 19 12 23 12 15 0z m2334 -32 c-1 -42 -1 -42 -10 -13 -5 17
-7 36 -4 43 9 24 15 11 14 -30z m-2972 10 c-3 -8 -6 -5 -6 6 -1 11 2 17 5 13
3 -3 4 -12 1 -19z m1186 6 c10 -10 -12 -44 -28 -44 -18 0 -28 17 -21 35 5 15
37 20 49 9z m1597 -43 c-1 -10 -6 -7 -15 9 -19 33 -18 50 0 26 8 -11 15 -27
15 -35z m-3419 8 c-9 -22 -10 -22 -10 -3 -1 11 2 24 6 27 12 12 14 0 4 -24z
m119 11 c0 -11 -4 -20 -9 -20 -5 0 -7 9 -4 20 3 11 7 20 9 20 2 0 4 -9 4 -20z
m1560 10 c0 -5 -10 -10 -23 -10 -29 0 -40 -10 -27 -25 7 -8 5 -12 -5 -12 -18
0 -20 28 -3 45 15 15 58 16 58 2z m1080 -12 c0 -6 -6 -5 -15 2 -8 7 -15 14
-15 16 0 2 7 1 15 -2 8 -4 15 -11 15 -16z m590 12 c0 -5 -5 -10 -11 -10 -5 0
-7 5 -4 10 3 6 8 10 11 10 2 0 4 -4 4 -10z m-2150 -4 c0 -15 -14 -35 -21 -30
-15 9 -10 34 6 34 8 0 15 -2 15 -4z m35 -6 c-3 -5 -11 -10 -16 -10 -6 0 -7 5
-4 10 3 6 11 10 16 10 6 0 7 -4 4 -10z m1337 -7 c20 -18 24 -48 8 -58 -14 -9
-12 -21 5 -38 13 -13 13 -16 0 -21 -10 -4 -17 6 -24 32 -27 105 -25 118 11 85z
m-1708 -48 c-29 -67 -30 -85 -4 -85 11 0 20 -4 20 -10 0 -5 -4 -10 -9 -10 -5
0 -7 -10 -3 -22 5 -20 3 -21 -10 -10 -13 10 -17 10 -22 0 -3 -7 -3 -2 0 11 3
13 1 27 -5 30 -17 11 34 151 55 151 1 0 -8 -25 -22 -55z m996 11 c0 -39 -2
-44 -20 -39 -21 6 -29 -12 -8 -19 8 -3 8 -9 0 -23 -9 -17 -11 -15 -18 20 -4
25 -3 40 4 43 6 2 8 10 5 18 -4 12 20 42 35 44 1 0 2 -20 2 -44z m-767 18 c4
-1 18 -2 32 -3 16 -1 25 -7 25 -17 0 -13 -7 -15 -32 -10 -33 7 -58 23 -58 38
0 5 6 6 13 1 6 -4 15 -8 20 -9z m502 6 c3 -5 -3 -10 -14 -10 -12 0 -21 5 -21
10 0 6 6 10 14 10 8 0 18 -4 21 -10z m1806 -17 c5 -14 7 -33 4 -42 -4 -11 -9
-8 -20 13 -8 16 -15 35 -15 42 0 24 20 15 31 -13z m82 14 c3 -8 -1 -14 -9 -14
-15 0 -18 9 -7 20 9 9 10 9 16 -6z m-1763 -9 c0 -7 -9 -24 -20 -38 -23 -29
-25 -46 -7 -53 7 -3 2 -9 -13 -15 -27 -10 -50 -6 -50 10 0 6 6 8 13 5 13 -5
39 35 52 81 7 23 25 31 25 10z m1040 -28 c0 -13 -1 -13 -10 0 -5 8 -10 22 -10
30 0 13 1 13 10 0 5 -8 10 -22 10 -30z m-1246 -21 c-9 -10 -22 -19 -28 -19 -6
0 0 9 13 19 14 10 19 21 13 24 -5 4 -15 0 -22 -8 -14 -17 -30 -20 -30 -6 0 5
15 16 33 24 29 14 32 15 35 1 2 -9 -4 -24 -14 -35z m264 -3 c-3 -27 -7 -31
-33 -31 -26 0 -30 3 -27 25 1 13 7 29 12 34 5 5 7 0 3 -14 -4 -17 -2 -21 8
-18 8 3 13 17 12 32 -2 24 0 26 13 15 9 -7 14 -25 12 -43z m-1720 13 c-6 -16
-12 -29 -13 -27 -6 6 8 58 16 58 4 0 3 -14 -3 -31z m1122 -5 c-11 -49 -20 -54
-20 -12 0 34 6 48 21 48 4 0 3 -16 -1 -36z m742 19 c7 -30 -3 -54 -20 -51 -23
4 -29 38 -7 38 11 0 15 5 11 15 -3 8 -2 15 3 15 5 0 11 -8 13 -17z m66 -12 c2
-15 0 -21 -7 -17 -6 4 -11 2 -11 -3 0 -6 -4 -11 -9 -11 -13 0 -24 37 -16 50
12 19 40 6 43 -19z m492 -1 c0 -11 -4 -20 -9 -20 -14 0 -23 18 -16 30 10 17
25 11 25 -10z m229 -35 l0 -20 -9 20 c-5 11 -9 29 -9 40 l0 20 9 -20 c5 -11 9
-29 9 -40z m778 25 c-2 -35 -17 -41 -17 -7 0 21 7 37 16 37 2 0 2 -13 1 -30z
m-3417 -57 c-10 -16 -11 -15 -6 7 3 14 7 36 7 50 2 19 3 18 6 -7 2 -18 -1 -41
-7 -50z m880 69 c0 -13 -12 -22 -22 -16 -10 6 -1 24 13 24 5 0 9 -4 9 -8z m35
-21 c-3 -12 -11 -19 -16 -16 -5 4 -5 14 2 26 13 26 23 18 14 -10z m118 22
c-21 -8 -15 -23 12 -33 30 -11 33 -40 5 -40 -11 0 -20 5 -20 10 0 6 5 10 12
10 19 0 -1 13 -25 16 -12 1 -25 3 -29 3 -13 2 3 30 20 34 24 6 40 6 25 0z
m-73 -7 c0 -11 -19 -15 -25 -6 -3 5 1 10 9 10 9 0 16 -2 16 -4z m559 -13 c0
-10 -4 -27 -9 -38 -8 -19 -9 -18 -9 4 -1 13 -4 21 -8 17 -10 -10 -33 -80 -28
-85 3 -2 5 1 5 7 0 7 9 12 20 12 12 0 20 -7 20 -17 0 -19 -88 -118 -97 -109
-3 2 7 17 21 33 30 32 33 53 9 53 -13 0 -14 3 -5 12 7 7 12 26 12 44 0 17 7
37 15 44 8 7 15 19 15 26 0 8 9 14 20 14 13 0 20 -6 19 -17z m1858 -5 c-3 -8
-6 -5 -6 6 -1 11 2 17 5 13 3 -3 4 -12 1 -19z m-3690 -10 c-3 -8 -6 -5 -6 6
-1 11 2 17 5 13 3 -3 4 -12 1 -19z m1865 -2 c-5 -6 -12 -18 -15 -26 -3 -8 -6
-1 -6 17 -1 25 2 31 14 27 10 -4 12 -10 7 -18z m438 20 c0 -2 3 -11 6 -20 4
-11 1 -16 -10 -16 -9 0 -16 2 -16 4 0 2 -3 11 -6 20 -4 11 -1 16 10 16 9 0 16
-2 16 -4z m68 -21 c-3 -3 -9 2 -12 12 -6 14 -5 15 5 6 7 -7 10 -15 7 -18z
m-688 12 c0 -2 -9 -12 -20 -22 -24 -21 -27 -14 -4 9 15 15 24 20 24 13z m2100
-8 c0 -5 -4 -7 -10 -4 -6 4 -7 -1 -3 -10 3 -10 0 -21 -8 -26 -19 -12 -39 -11
-39 1 0 6 6 9 13 8 7 -2 12 7 11 20 0 15 5 22 18 22 10 0 18 -5 18 -11z
m-2600 -8 c0 -6 -4 -13 -10 -16 -5 -3 -10 1 -10 9 0 9 5 16 10 16 6 0 10 -4
10 -9z m1834 -23 c-4 -6 -10 -5 -15 3 -14 22 -10 33 6 19 8 -7 12 -17 9 -22z
m-786 -13 c3 -26 2 -27 -12 -12 -19 19 -21 50 -3 45 6 -3 13 -17 15 -33z
m1414 5 c-4 -27 -6 -29 -21 -18 -9 7 -19 17 -23 23 -6 9 -78 -58 -78 -73 0 -2
-8 -11 -17 -18 -17 -12 -16 -13 7 -14 15 0 32 6 39 13 10 10 12 6 9 -17 -2
-19 -9 -30 -20 -32 -10 -1 -18 2 -18 7 0 6 -9 5 -21 -1 -11 -6 -33 -9 -49 -5
-28 6 -50 -8 -30 -20 10 -6 -10 -35 -24 -35 -10 0 -6 53 8 113 15 62 23 77 34
62 4 -6 22 -15 39 -22 31 -11 34 -10 50 17 10 18 30 32 52 38 62 17 68 15 63
-18z m34 23 c-3 -4 4 -13 16 -20 16 -8 18 -12 7 -13 -9 0 -16 -6 -17 -12 0 -7
-4 -23 -7 -35 -6 -18 -3 -23 12 -23 16 0 19 -5 15 -32 -4 -32 -3 -32 12 -13
11 15 15 16 15 5 0 -8 -13 -28 -29 -44 l-30 -30 6 35 c3 19 7 39 9 46 2 7 0
15 -4 18 -5 3 -12 -17 -16 -45 -4 -27 -11 -53 -17 -56 -12 -8 -1 136 12 150 5
4 6 24 3 42 -4 24 -2 34 7 34 7 0 10 -3 6 -7z m161 -30 c-3 -10 -5 -4 -5 12 0
17 2 24 5 18 2 -7 2 -21 0 -30z m-3840 -10 c-3 -10 -5 -4 -5 12 0 17 2 24 5
18 2 -7 2 -21 0 -30z m1273 27 c0 -5 -8 -14 -17 -19 -15 -9 -16 -12 -3 -20 8
-5 18 -7 22 -5 4 3 6 -5 4 -18 -3 -13 -5 -27 -5 -31 -1 -5 -5 -6 -10 -3 -5 4
-14 -6 -19 -21 -7 -18 -11 -22 -11 -10 -1 9 -8 17 -16 17 -8 0 -15 5 -15 10 0
6 9 10 19 10 23 0 40 22 23 28 -16 5 -15 59 1 65 20 8 27 8 27 -3z m54 -14
c-3 -9 -10 -13 -16 -10 -5 3 -4 12 3 20 15 18 22 13 13 -10z m-944 -17 c0 -16
-4 -28 -9 -25 -5 4 -8 14 -6 24 2 9 4 20 4 25 1 4 3 7 6 7 3 0 5 -14 5 -31z
m431 -16 c-9 -16 -10 -16 -11 -1 0 9 3 25 7 35 7 16 8 17 11 1 2 -10 -1 -25
-7 -35z m869 29 c0 -22 -32 -62 -49 -62 -16 0 -13 20 4 26 10 4 13 13 10 24
-4 12 0 20 12 23 10 3 19 5 21 6 1 0 2 -7 2 -17z m1048 1 c-2 -10 -8 -18 -13
-18 -5 0 -11 8 -13 18 -2 10 3 17 13 17 10 0 15 -7 13 -17z m1079 -35 c-2 -13
-4 -5 -4 17 -1 22 1 32 4 23 2 -10 2 -28 0 -40z m-2603 26 c3 -8 -4 -19 -16
-25 -18 -10 -20 -9 -14 7 6 18 5 18 -9 0 -15 -20 -20 -11 -10 16 7 18 42 20
49 2z m178 -6 c-9 -9 -15 -9 -24 0 -9 9 -7 12 12 12 19 0 21 -3 12 -12z m947
-19 c13 -39 14 -79 2 -79 -13 0 -22 30 -16 51 3 9 1 20 -5 24 -12 8 -13 35 -1
35 5 0 14 -14 20 -31z m-595 -13 c-6 -27 -28 -35 -40 -14 -4 6 3 19 16 30 28
22 33 19 24 -16z m121 24 c-3 -5 -12 -10 -18 -10 -7 0 -6 4 3 10 19 12 23 12
15 0z m935 0 c0 -5 -4 -10 -10 -10 -5 0 -10 5 -10 10 0 6 5 10 10 10 6 0 10
-4 10 -10z m-2529 -17 c8 -9 9 -14 3 -10 -6 3 -18 -8 -28 -24 -10 -17 -20 -28
-23 -26 -4 5 26 77 32 77 1 0 9 -8 16 -17z m2019 -4 c0 -11 -4 -17 -10 -14 -5
3 -10 13 -10 21 0 8 5 14 10 14 6 0 10 -9 10 -21z m102 -20 c2 -22 1 -42 -1
-45 -7 -7 -28 59 -23 74 8 25 20 11 24 -29z m655 19 c-3 -8 -6 -5 -6 6 -1 11
2 17 5 13 3 -3 4 -12 1 -19z m-3046 -103 c-9 -35 -10 -30 -6 35 5 89 7 98 12
45 2 -22 -1 -58 -6 -80z m1323 84 c-11 -18 -32 -9 -27 11 4 16 8 18 19 9 8 -6
11 -15 8 -20z m1126 16 c7 -9 10 -18 7 -22 -8 -7 -37 15 -37 28 0 14 16 11 30
-6z m1310 5 c0 -5 -4 -10 -10 -10 -5 0 -10 5 -10 10 0 6 5 10 10 10 6 0 10 -4
10 -10z m-2406 -25 c-6 -16 -24 -21 -24 -7 0 11 11 22 21 22 5 0 6 -7 3 -15z
m1396 5 c0 -5 -4 -10 -10 -10 -5 0 -10 5 -10 10 0 6 5 10 10 10 6 0 10 -4 10
-10z m887 -40 c-6 -34 -15 -51 -28 -55 -11 -4 -19 -9 -19 -13 0 -4 -3 -17 -6
-29 -4 -14 -2 -23 5 -23 6 0 11 9 11 20 0 11 4 20 9 20 13 0 2 -143 -12 -152
-8 -5 -14 1 -18 15 -6 22 -6 22 -10 -2 -2 -14 -9 -26 -15 -28 -8 -3 -9 9 -3
39 4 24 8 52 9 62 0 35 -11 9 -18 -40 -4 -26 -13 -49 -20 -52 -8 -2 -10 2 -6
13 6 16 5 16 -25 1 -37 -20 -32 -36 10 -36 22 0 29 -5 29 -19 0 -11 -4 -23
-10 -26 -15 -9 -12 -25 5 -25 10 0 15 10 15 30 0 17 5 30 11 30 8 0 9 -12 4
-37 -4 -21 -8 -44 -8 -50 -1 -20 -17 -15 -17 5 -1 16 -1 16 -11 0 -12 -22 -33
-24 -25 -3 3 8 1 15 -4 15 -6 0 -10 -8 -11 -17 -1 -33 -7 -54 -19 -68 -14 -17
-45 -21 -35 -5 3 6 3 10 -2 10 -4 0 -19 -16 -32 -35 -28 -41 -39 -39 -33 8 3
30 7 33 28 29 19 -3 26 1 34 23 13 34 6 43 -15 21 -19 -18 -25 -20 -25 -6 0 5
15 17 33 27 24 13 28 18 15 21 -16 3 -16 6 -3 31 8 16 13 41 12 57 -2 23 2 28
16 26 11 -2 17 4 17 17 0 11 9 22 20 26 26 8 26 23 0 21 -11 0 -40 -23 -64
-51 -39 -43 -45 -47 -46 -28 0 15 10 28 33 39 17 10 26 19 20 21 -7 3 -13 18
-13 35 0 21 6 31 20 35 11 3 20 9 20 13 0 10 63 40 84 40 11 0 16 -9 16 -27 1
-24 2 -25 11 -11 5 10 9 24 8 30 -4 31 2 58 17 72 8 9 12 20 9 26 -3 6 4 10
18 10 24 0 24 -1 14 -50z m186 8 c-3 -16 -9 -28 -14 -28 -4 0 -3 14 3 31 12
36 18 35 11 -3z m-2703 -5 c0 -21 -3 -24 -9 -14 -5 8 -7 20 -4 28 8 21 13 15
13 -14z m-34 6 c3 -6 2 -14 -4 -18 -13 -8 -23 -99 -11 -107 5 -3 6 -10 3 -16
-4 -7 -10 -5 -16 5 -5 9 -15 14 -23 10 -11 -4 -14 0 -9 13 4 11 11 24 16 30 5
7 8 16 7 20 -1 5 2 24 6 42 8 33 19 40 31 21z m594 -11 c0 -15 3 -17 19 -8 31
16 32 13 10 -42 -12 -29 -23 -69 -24 -88 -2 -19 -8 -57 -14 -85 -7 -27 -13
-93 -14 -145 -1 -52 -6 -98 -12 -102 -6 -5 -5 -11 3 -16 7 -5 12 -26 12 -48
-3 -61 -21 -174 -28 -170 -4 2 -5 45 -2 96 3 51 3 93 -1 95 -5 4 -9 47 -13
128 -1 20 2 37 6 37 11 0 10 28 -1 32 -5 2 -14 33 -19 70 -7 55 -6 68 6 73 10
4 11 9 4 18 -12 16 -25 88 -15 86 20 -3 25 2 13 16 -7 8 -9 26 -5 44 6 27 10
30 41 29 26 -1 34 -6 34 -20z m760 -52 c0 -37 -3 -47 -11 -39 -11 11 -19 99
-10 109 11 10 21 -24 21 -70z m-2285 54 c3 -5 1 -10 -4 -10 -6 0 -11 5 -11 10
0 6 2 10 4 10 3 0 8 -4 11 -10z m2842 -12 c-3 -8 -6 -5 -6 6 -1 11 2 17 5 13
3 -3 4 -12 1 -19z m83 -7 c0 -42 -16 -47 -17 -5 -1 19 3 34 8 34 5 0 9 -13 9
-29z m-2893 -3 c-3 -8 -6 -5 -6 6 -1 11 2 17 5 13 3 -3 4 -12 1 -19z m1033 12
c0 -5 -5 -10 -11 -10 -5 0 -7 5 -4 10 3 6 8 10 11 10 2 0 4 -4 4 -10z m820 6
c0 -3 -4 -8 -10 -11 -5 -3 -10 -1 -10 4 0 6 5 11 10 11 6 0 10 -2 10 -4z
m1330 -86 c-15 -77 -24 -90 -47 -67 -12 11 -12 19 -4 35 6 11 11 32 11 45 0
16 7 26 20 30 11 3 20 9 19 14 -3 16 1 26 8 20 3 -4 0 -39 -7 -77z m-2593 38
c-3 -7 -5 -2 -5 12 0 14 2 19 5 13 2 -7 2 -19 0 -25z m1278 11 c-6 -17 -45
-43 -45 -31 0 11 41 54 46 49 3 -2 2 -11 -1 -18z m902 -11 c-3 -7 -5 -2 -5 12
0 14 2 19 5 13 2 -7 2 -19 0 -25z m-2707 12 c0 -5 -4 -10 -10 -10 -5 0 -10 5
-10 10 0 6 5 10 10 10 6 0 10 -4 10 -10z m849 -41 c-21 -12 -24 -2 -8 28 14
26 14 26 17 3 2 -12 -2 -26 -9 -31z m121 12 c0 -6 -8 -11 -19 -11 -14 0 -17 6
-14 25 4 21 7 22 19 10 8 -7 14 -18 14 -24z m1784 -18 c-2 -25 -6 -48 -8 -50
-7 -7 -17 87 -11 97 14 22 23 -2 19 -47z m-2714 37 c0 -5 -5 -10 -11 -10 -5 0
-7 5 -4 10 3 6 8 10 11 10 2 0 4 -4 4 -10z m67 -12 c-3 -8 -6 -5 -6 6 -1 11 2
17 5 13 3 -3 4 -12 1 -19z m1639 15 c-13 -4 -15 -7 -7 -13 9 -5 1 -14 -23 -30
-20 -12 -41 -31 -47 -42 -15 -29 -21 -16 -8 19 7 23 15 30 28 26 13 -3 20 3
25 21 5 19 13 26 29 25 19 -1 19 -2 3 -6z m128 -8 c13 -6 21 -4 24 3 2 7 8 10
12 7 5 -3 7 -12 3 -20 -6 -17 -39 -20 -48 -4 -4 6 -14 8 -22 5 -17 -7 -36 2
-29 13 6 9 33 7 60 -4z m646 -12 c0 -22 -2 -25 -10 -13 -13 20 -13 40 0 40 6
0 10 -12 10 -27z m-1600 8 c0 -6 -4 -13 -10 -16 -5 -3 -10 1 -10 9 0 9 5 16
10 16 6 0 10 -4 10 -9z m81 -13 c1 -22 1 -22 9 2 l8 25 1 -27 c1 -22 -4 -28
-19 -28 -15 0 -20 7 -20 25 0 31 20 33 21 3z m63 0 c-4 -13 -7 -34 -8 -48 -1
-24 -36 -44 -36 -21 0 6 4 11 9 11 6 0 7 15 4 34 -4 28 -2 35 13 39 11 3 20 5
22 6 2 0 0 -9 -4 -21z m260 -17 c-4 -17 -9 -30 -11 -27 -3 2 -2 19 2 36 4 17
9 30 11 27 2 -2 1 -18 -2 -36z m653 -61 c4 -13 5 -13 13 0 9 13 10 13 10 0 0
-8 -5 -22 -10 -30 -6 -9 -10 -10 -10 -3 0 6 -13 25 -30 41 -30 31 -38 52 -20
52 6 0 10 -7 10 -15 0 -8 5 -15 10 -15 6 0 8 12 5 28 -4 24 0 12 22 -58z m730
8 c-2 -13 -4 -3 -4 22 0 25 2 35 4 23 2 -13 2 -33 0 -45z m329 36 c-3 -9 -9
-33 -12 -55 -4 -21 -10 -37 -14 -34 -10 6 11 105 22 105 6 0 7 -7 4 -16z
m-1781 -37 c-3 -24 -9 -55 -15 -68 -9 -21 -10 -20 -5 11 3 19 7 46 9 60 4 36
5 40 10 40 3 0 3 -19 1 -43z m765 22 c0 -4 -7 -6 -15 -3 -8 4 -15 10 -15 15 0
4 7 6 15 3 8 -4 15 -10 15 -15z m254 -42 c-4 -31 -10 -54 -14 -52 -8 5 -3 74
6 104 10 30 14 1 8 -52z m1309 2 c-5 -5 -7 7 -4 29 5 34 6 35 9 8 2 -16 0 -32
-5 -37z m-3592 10 l-10 -24 0 26 c-1 14 2 29 6 33 12 12 14 -9 4 -35z m879 31
c0 -5 -2 -10 -4 -10 -3 0 -8 5 -11 10 -3 6 -1 10 4 10 6 0 11 -4 11 -10z m42
-2 c-6 -7 -11 -16 -11 -20 -2 -19 -16 -11 -17 10 -1 16 4 22 19 22 14 0 17 -3
9 -12z m48 -14 c0 -31 -23 -28 -28 4 -2 15 2 22 12 22 11 0 16 -9 16 -26z
m2486 10 c-3 -8 -1 -14 4 -14 6 0 10 7 10 15 0 8 4 15 9 15 4 0 3 -21 -3 -47
-9 -40 -11 -43 -16 -23 -6 24 -7 23 -13 -7 -5 -23 -12 -33 -25 -33 -14 0 -21
-9 -26 -31 -9 -47 -6 -69 5 -31 5 17 13 32 18 32 9 0 4 -96 -6 -120 -4 -8 -7
-26 -7 -40 -1 -19 -6 -24 -21 -22 -29 5 -31 9 -15 45 7 18 14 55 15 82 3 107
4 112 27 118 12 4 19 9 15 13 -4 4 -2 13 4 20 14 17 3 35 -18 27 -10 -4 -14
-2 -10 4 10 16 59 13 53 -3z m-3407 -10 c13 9 14 -13 1 -34 -11 -18 -15 -13
-24 25 -4 20 -3 25 3 16 5 -7 14 -10 20 -7z m1591 6 c0 -5 -5 -10 -11 -10 -5
0 -7 5 -4 10 3 6 8 10 11 10 2 0 4 -4 4 -10z m-1544 -23 c1 -9 -1 -15 -6 -12
-5 3 -10 -1 -13 -7 -7 -22 -17 -4 -10 20 6 26 25 25 29 -1z m54 2 c0 -5 -4 -9
-10 -9 -5 0 -10 7 -10 16 0 8 5 12 10 9 6 -3 10 -10 10 -16z m2089 -66 l-2
-88 -7 70 c-6 63 -4 105 6 105 2 0 3 -39 3 -87z m-1723 -3 c-1 -44 -4 -80 -8
-80 -9 0 -10 105 -2 138 4 12 7 22 9 22 1 0 1 -36 1 -80z m2654 60 c0 -5 -2
-10 -4 -10 -3 0 -8 5 -11 10 -3 6 -1 10 4 10 6 0 11 -4 11 -10z m-3283 -22
c-3 -8 -6 -5 -6 6 -1 11 2 17 5 13 3 -3 4 -12 1 -19z m821 -64 c-9 -54 -14
-69 -16 -49 -4 30 16 140 24 132 2 -2 -1 -40 -8 -83z m617 69 c-13 -62 -17
-73 -25 -68 -5 3 -6 15 0 28 4 12 11 30 14 40 3 9 7 17 10 17 2 0 3 -8 1 -17z
m1005 -4 c0 -5 -4 -9 -10 -9 -5 0 -10 7 -10 16 0 8 5 12 10 9 6 -3 10 -10 10
-16z m-1490 -10 c0 -11 -4 -18 -10 -14 -5 3 -7 12 -3 20 7 21 13 19 13 -6z
m175 11 c-3 -5 -14 -10 -23 -10 -15 0 -15 2 -2 10 20 13 33 13 25 0z m35 -5
c0 -8 -7 -15 -16 -15 -14 0 -14 3 -4 15 7 8 14 15 16 15 2 0 4 -7 4 -15z
m1497 -7 c-3 -8 -6 -5 -6 6 -1 11 2 17 5 13 3 -3 4 -12 1 -19z m250 0 c-3 -8
-6 -5 -6 6 -1 11 2 17 5 13 3 -3 4 -12 1 -19z m-2647 0 c0 -4 -9 -12 -20 -18
-17 -9 -20 -8 -20 9 0 14 6 19 20 18 11 -1 20 -5 20 -9z m816 -36 c0 -28 -4
-42 -13 -42 -7 0 -10 6 -7 15 4 10 0 15 -10 15 -14 0 -15 4 -6 20 6 11 8 25 4
31 -4 7 1 10 12 7 15 -2 19 -13 20 -46z m-976 28 c0 -5 -2 -10 -4 -10 -3 0 -8
5 -11 10 -3 6 -1 10 4 10 6 0 11 -4 11 -10z m1600 -54 c-11 -69 -24 -90 -15
-26 9 65 15 93 20 88 3 -2 0 -30 -5 -62z m447 42 c-3 -8 -6 -5 -6 6 -1 11 2
17 5 13 3 -3 4 -12 1 -19z m643 3 c0 -11 -4 -23 -10 -26 -6 -4 -10 5 -10 19 0
14 5 26 10 26 6 0 10 -9 10 -19z m890 -1 c0 -5 -5 -10 -11 -10 -5 0 -7 5 -4
10 3 6 8 10 11 10 2 0 4 -4 4 -10z m-2662 -17 c-5 -25 -28 -28 -28 -4 0 12 6
21 16 21 9 0 14 -7 12 -17z m423 -46 c-13 -13 -14 5 -3 43 l7 25 3 -29 c2 -16
-1 -33 -7 -39z m1770 -10 c-8 -8 -11 -1 -11 24 0 46 14 60 18 19 2 -18 -1 -37
-7 -43z m-771 51 c0 6 5 12 10 12 17 0 11 -30 -7 -37 -10 -4 -23 -14 -30 -22
-10 -13 -11 -12 -7 9 12 52 14 56 24 40 7 -10 10 -11 10 -2z m-1507 -18 c-19
-22 -29 -19 -20 5 4 8 13 15 22 15 13 0 12 -3 -2 -20z m202 0 c-3 -5 -14 -10
-23 -9 -14 0 -13 2 3 9 27 11 27 11 20 0z m1592 -38 c-17 -21 -31 3 -16 29 12
23 12 23 19 4 4 -11 3 -26 -3 -33z m170 -14 c-2 -13 -4 -3 -4 22 0 25 2 35 4
23 2 -13 2 -33 0 -45z m-2856 5 c-9 -16 -10 -16 -11 -1 0 9 3 25 7 35 7 16 8
17 11 1 2 -10 -1 -25 -7 -35z m209 -4 c0 -36 -4 -49 -12 -47 -7 3 -19 -2 -27
-9 -7 -8 -16 -12 -19 -9 -6 7 19 69 32 78 6 4 12 12 12 18 2 17 4 20 9 20 3 0
5 -23 5 -51z m1958 16 c1 -20 -2 -33 -7 -31 -5 3 -14 -7 -20 -22 -12 -27 -56
-56 -73 -46 -5 3 6 15 24 28 18 12 34 32 36 44 2 12 8 22 14 22 5 0 8 6 5 14
-6 14 0 26 13 26 4 0 7 -16 8 -35z m1375 20 c-3 -9 -8 -14 -10 -11 -3 3 -2 9
2 15 9 16 15 13 8 -4z m-3693 -16 c0 -11 -4 -17 -10 -14 -5 3 -10 13 -10 21 0
8 5 14 10 14 6 0 10 -9 10 -21z m194 6 c-4 -8 -10 -12 -15 -9 -11 6 -2 24 11
24 5 0 7 -7 4 -15z m951 5 c3 -5 1 -10 -4 -10 -6 0 -11 5 -11 10 0 6 2 10 4
10 3 0 8 -4 11 -10z m1749 -28 c-4 -18 -10 -32 -14 -32 -7 0 -5 24 6 59 8 26
14 4 8 -27z m496 28 c0 -13 -29 -70 -35 -70 -3 0 -5 18 -5 40 0 33 3 40 20 40
11 0 20 -5 20 -10z m185 -34 c-4 -20 -11 -36 -15 -36 -11 0 -9 53 3 68 15 19
19 8 12 -32z m-2804 -3 c-12 -20 -14 -14 -5 12 4 9 9 14 11 11 3 -2 0 -13 -6
-23z m349 2 c0 -17 2 -18 11 -5 8 12 10 12 7 -5 -2 -12 -12 -21 -26 -23 -16
-3 -20 0 -16 12 5 13 -1 16 -30 16 -20 0 -36 4 -36 9 0 12 13 16 55 16 28 0
35 -4 35 -20z m130 8 c0 -7 -7 -13 -16 -13 -14 0 -14 -3 -4 -15 10 -13 9 -15
-8 -15 -12 0 -24 5 -27 10 -3 6 -1 10 5 10 7 0 9 8 5 19 -5 15 -1 19 20 17 14
0 25 -7 25 -13z m2547 -35 c-2 -13 -4 -5 -4 17 -1 22 1 32 4 23 2 -10 2 -28 0
-40z m-2282 33 c3 -5 1 -12 -5 -16 -5 -3 -10 1 -10 9 0 18 6 21 15 7z m51 -22
c1 -13 5 -35 8 -49 7 -31 -3 -65 -15 -53 -5 5 -12 37 -16 72 -5 52 -4 63 8 59
8 -3 15 -16 15 -29z m2111 -1 c-3 -7 -5 -2 -5 12 0 14 2 19 5 13 2 -7 2 -19 0
-25z m-358 -16 c-2 -21 0 -43 4 -49 4 -6 2 -15 -4 -19 -8 -4 -9 -3 -5 4 4 7 3
12 -3 12 -10 0 -13 66 -4 83 10 17 14 5 12 -31z m-786 -4 c-7 -41 -23 -61 -23
-30 0 19 19 62 27 62 1 0 0 -15 -4 -32z m-1560 2 c-3 -11 -7 -20 -9 -20 -2 0
-4 9 -4 20 0 11 4 20 9 20 5 0 7 -9 4 -20z m192 -13 c1 -12 4 -28 6 -36 2 -7
-2 -16 -8 -18 -9 -3 -13 9 -13 43 0 46 12 56 15 11z m1242 11 c-3 -8 -6 -5 -6
6 -1 11 2 17 5 13 3 -3 4 -12 1 -19z m423 12 c10 -6 12 -12 5 -19 -7 -7 -14
-4 -23 9 -13 21 -6 25 18 10z m-2160 -16 c0 -9 -5 -14 -12 -12 -18 6 -21 28
-4 28 9 0 16 -7 16 -16z m392 -17 c-4 -28 -35 -53 -52 -42 -16 10 -12 25 5 19
8 -4 15 -2 15 4 0 5 -7 12 -15 16 -29 11 -16 33 18 32 30 -1 32 -3 29 -29z
m423 23 c-3 -5 -1 -10 4 -10 6 0 11 6 12 13 0 6 4 2 9 -9 8 -21 15 -127 10
-174 -4 -44 -32 59 -30 113 0 27 -3 47 -10 47 -5 0 -10 -21 -11 -47 l-1 -48
-10 38 c-12 45 -3 87 18 87 8 0 12 -4 9 -10z m-58 -22 c-3 -8 -6 -5 -6 6 -1
11 2 17 5 13 3 -3 4 -12 1 -19z m1010 -15 c-3 -10 -5 -4 -5 12 0 17 2 24 5 18
2 -7 2 -21 0 -30z m1245 14 c-4 -14 -7 -16 -13 -5 -12 19 -11 25 5 25 8 0 11
-8 8 -20z m-2552 -20 c0 -18 -2 -19 -10 -7 -8 12 -10 11 -10 -7 0 -12 -4 -24
-9 -27 -12 -8 -11 46 1 61 14 17 28 7 28 -20z m2640 1 c0 -23 -3 -29 -9 -19
-8 12 -4 51 5 51 2 0 4 -15 4 -32z m-3607 -8 c-7 -28 -13 -25 -13 6 0 14 4 23
9 20 5 -3 7 -15 4 -26z m27 15 c0 -8 -4 -15 -10 -15 -5 0 -7 7 -4 15 4 8 8 15
10 15 2 0 4 -7 4 -15z m412 -25 c4 -34 -14 -41 -29 -10 -9 18 -9 28 -1 38 14
16 26 5 30 -28z m2654 14 c-4 -9 -9 -15 -11 -12 -3 3 -3 13 1 22 4 9 9 15 11
12 3 -3 3 -13 -1 -22z m305 -11 c-5 -29 -11 -38 -26 -38 -18 0 -21 -6 -16 -35
0 -5 8 -7 16 -4 19 8 20 -16 0 -42 -14 -18 -14 -18 -15 6 0 20 -2 22 -10 10
-6 -10 -10 -11 -10 -2 0 19 -35 14 -61 -9 l-24 -21 23 5 c17 4 22 1 22 -14 0
-18 -4 -21 -32 -23 -7 -1 -16 -5 -20 -11 -10 -13 11 -35 27 -29 10 4 12 -3 5
-33 -14 -67 -18 -123 -10 -123 5 0 10 6 13 13 2 6 2 1 0 -13 -6 -30 -9 -34
-22 -25 -6 3 -12 23 -12 43 -1 27 -3 30 -6 12 -2 -14 -10 -30 -17 -35 -8 -6
-23 -26 -35 -45 -12 -20 -21 -28 -21 -19 0 13 -6 15 -32 10 -41 -8 -49 -31
-11 -31 20 0 24 -3 14 -9 -8 -5 -20 -7 -28 -4 -7 3 -13 -2 -13 -11 0 -9 -4
-16 -10 -16 -20 0 -9 43 18 68 16 15 32 40 36 55 3 15 12 27 19 26 23 -3 37 1
37 11 0 6 -10 10 -22 10 -29 0 -11 17 22 22 15 2 26 11 28 23 3 16 1 18 -9 8
-17 -17 -37 -17 -21 -1 17 17 15 33 -3 18 -12 -10 -15 -10 -15 3 0 9 10 17 22
19 12 2 23 10 26 18 4 12 2 13 -9 3 -18 -18 -29 -16 -29 3 0 14 -3 14 -15 4
-13 -11 -14 -10 -9 4 3 9 15 16 25 16 15 0 19 6 17 28 -1 15 1 33 6 40 4 7 2
12 -4 12 -25 0 3 20 36 26 20 4 38 13 41 21 3 8 12 12 21 8 12 -4 13 1 8 25
-5 26 -3 31 12 28 9 -1 22 1 29 5 7 5 9 1 6 -13 -3 -11 0 -20 6 -20 6 0 11 14
11 30 0 18 5 30 13 30 10 0 12 -10 8 -37z m-2932 -11 c0 -24 -1 -25 -9 -7 -12
28 -12 47 0 40 6 -3 10 -18 9 -33z m44 -4 c9 -69 -15 -65 -27 5 -5 28 -4 37 7
37 9 0 16 -15 20 -42z m590 -18 c4 -37 3 -41 -6 -22 -13 27 -27 29 -27 2 0
-10 -10 -24 -21 -31 -20 -10 -21 -9 -16 10 3 11 1 21 -3 21 -4 0 -6 9 -3 20 4
14 12 20 27 18 13 -2 22 3 22 12 3 33 4 34 13 25 5 -6 11 -30 14 -55z m713 33
c-10 -10 -19 5 -10 18 6 11 8 11 12 0 2 -7 1 -15 -2 -18z m951 5 c-3 -8 -6 -5
-6 6 -1 11 2 17 5 13 3 -3 4 -12 1 -19z m-1018 -43 c0 -5 -6 1 -14 15 -8 14
-14 30 -14 35 0 6 6 -1 14 -15 8 -14 14 -29 14 -35z m-1349 35 c0 -5 -4 -10
-10 -10 -5 0 -10 5 -10 10 0 6 5 10 10 10 6 0 10 -4 10 -10z m850 0 c0 -5 -4
-10 -10 -10 -5 0 -10 5 -10 10 0 6 5 10 10 10 6 0 10 -4 10 -10z m1000 -17 c1
-25 2 -26 14 -11 16 22 26 13 25 -21 0 -24 -1 -24 -9 -6 -7 16 -9 17 -9 3 -1
-9 -7 -19 -13 -21 -10 -4 -10 -8 1 -15 12 -9 12 -14 -3 -36 -24 -37 -40 -33
-31 7 3 17 6 53 5 80 0 26 4 47 10 47 5 0 10 -12 10 -27z m-573 -5 c-3 -8 -6
-5 -6 6 -1 11 2 17 5 13 3 -3 4 -12 1 -19z m390 7 c0 -8 -6 -15 -14 -15 -17 0
-17 17 0 23 6 3 12 6 13 6 0 1 1 -6 1 -14z m283 5 c0 -5 -5 -10 -11 -10 -5 0
-7 5 -4 10 3 6 8 10 11 10 2 0 4 -4 4 -10z m779 -46 c-13 -51 -49 -129 -49
-105 0 18 52 162 57 157 2 -2 -2 -25 -8 -52z m374 13 c-3 -20 -10 -37 -14 -37
-12 0 -11 10 2 49 14 41 20 35 12 -12z m-1187 -15 c-11 -10 -15 4 -8 28 l7 25
3 -23 c2 -13 1 -26 -2 -30z m773 41 c0 -5 -4 -17 -9 -28 -8 -18 -9 -17 -9 8
-1 15 4 27 9 27 6 0 10 -3 9 -7z m-1383 -55 c2 -28 -1 -37 -7 -27 -10 16 -12
86 -2 75 4 -4 8 -25 9 -48z m1031 30 c-3 -8 -6 -5 -6 6 -1 11 2 17 5 13 3 -3
4 -12 1 -19z m-2187 -31 c0 -10 -4 -15 -10 -12 -5 3 -10 18 -10 33 0 21 2 24
10 12 5 -8 10 -23 10 -33z m237 1 c-3 -7 -5 -2 -5 12 0 14 2 19 5 13 2 -7 2
-19 0 -25z m83 22 c0 -5 -4 -10 -10 -10 -5 0 -10 5 -10 10 0 6 5 10 10 10 6 0
10 -4 10 -10z m28 -15 c-2 -25 -28 -36 -28 -12 0 11 19 37 27 37 1 0 2 -11 1
-25z m108 3 c-3 -13 -6 -29 -6 -35 0 -7 -7 -13 -16 -13 -11 0 -14 5 -10 16 3
9 6 24 6 35 0 11 7 19 16 19 12 0 15 -6 10 -22z m2550 -53 c-27 -60 -52 -77
-33 -22 7 17 16 35 21 38 5 4 6 13 4 20 -5 15 25 43 30 28 2 -5 -8 -34 -22
-64z m-2715 40 c5 3 6 -1 3 -9 -10 -26 -24 -18 -23 12 1 17 3 20 6 9 2 -9 9
-15 14 -12z m453 10 c3 -8 1 -15 -4 -15 -6 0 -10 7 -10 15 0 8 2 15 4 15 2 0
6 -7 10 -15z m126 -25 c0 -30 -4 -40 -16 -40 -11 0 -15 6 -11 20 3 10 1 20 -5
22 -14 5 2 38 18 38 10 0 14 -12 14 -40z m128 5 c-3 -3 -9 2 -12 12 -6 14 -5
15 5 6 7 -7 10 -15 7 -18z m1906 -2 c-10 -49 -13 -53 -34 -53 -22 0 -23 3 -14
49 5 24 12 31 30 31 21 0 24 -3 18 -27z m-3453 -35 c-3 -62 -11 -60 -11 2 0
29 3 50 7 46 4 -3 6 -25 4 -48z m493 9 c5 -21 3 -28 -6 -25 -7 3 -14 20 -16
39 -4 40 12 30 22 -14z m34 -27 c0 -23 -1 -23 -14 7 -7 18 -11 40 -7 50 6 16
8 15 14 -7 4 -14 7 -36 7 -50z m535 36 c10 4 16 -6 21 -33 3 -21 9 -48 12 -61
5 -16 3 -22 -7 -20 -21 4 -29 21 -23 42 5 15 3 18 -11 13 -9 -4 -23 -7 -31 -7
-8 0 -11 -6 -8 -15 4 -8 1 -15 -5 -15 -6 0 -11 9 -11 20 0 11 6 20 14 20 7 0
19 7 26 16 11 13 10 16 -8 21 -15 3 -22 13 -22 29 0 24 0 24 20 4 11 -11 26
-17 33 -14z m2554 -25 c2 -33 -1 -62 -5 -65 -5 -3 -9 24 -10 59 -1 81 12 86
15 6z m-3194 19 c3 -11 1 -20 -4 -20 -5 0 -9 4 -9 9 0 5 -3 17 -7 27 -4 11 -3
15 4 11 6 -4 13 -16 16 -27z m32 -27 c-6 -16 -8 -15 -16 6 -6 14 -7 32 -3 40
5 13 8 12 16 -6 6 -12 7 -30 3 -40z m655 3 c0 -26 -6 -18 -14 19 -5 22 -4 26
4 15 5 -8 10 -24 10 -34z m1077 22 c-3 -8 -6 -5 -6 6 -1 11 2 17 5 13 3 -3 4
-12 1 -19z m563 18 c0 -3 -4 -8 -10 -11 -5 -3 -10 -1 -10 4 0 6 5 11 10 11 6
0 10 -2 10 -4z m-2850 -68 c0 -34 -2 -59 -4 -57 -8 10 -14 119 -5 119 5 0 9
-28 9 -62z m1423 -19 c-7 -7 -12 -3 -16 10 -3 12 -2 21 3 21 4 0 6 12 4 28 -2
17 1 12 7 -11 8 -25 8 -42 2 -48z m1313 56 c0 -14 -4 -25 -7 -25 -4 0 -9 -18
-12 -40 -6 -49 -47 -96 -47 -55 0 8 -5 15 -10 15 -6 0 -9 10 -6 23 6 31 28 77
37 77 5 0 6 7 3 15 -5 11 1 15 19 15 20 0 25 -5 23 -25z m-2503 -25 c8 0 8 -3
-1 -8 -16 -10 -5 -42 14 -42 8 0 14 -4 14 -10 0 -15 -12 -12 -37 9 -19 16 -21
25 -15 57 5 28 7 33 10 17 2 -13 9 -23 15 -23z m1646 -5 c6 -3 11 -13 11 -21
0 -12 -4 -12 -20 -4 -14 7 -20 21 -19 43 0 28 1 29 9 11 5 -12 13 -25 19 -29z
m-1753 8 c-10 -10 -19 5 -10 18 6 11 8 11 12 0 2 -7 1 -15 -2 -18z m34 17 c0
-5 -2 -10 -4 -10 -3 0 -8 5 -11 10 -3 6 -1 10 4 10 6 0 11 -4 11 -10z m3067
-15 c-4 -8 -11 -15 -17 -15 -6 0 -6 7 2 20 14 22 24 19 15 -5z m216 -6 c-5
-18 -3 -20 16 -14 11 3 21 2 21 -3 0 -5 -11 -12 -25 -14 -21 -4 -25 -1 -25 19
0 14 -4 21 -10 18 -5 -3 -10 -2 -10 4 0 10 21 20 32 15 3 -2 4 -14 1 -25z
m-3393 0 c0 -5 -4 -9 -10 -9 -5 0 -10 7 -10 16 0 8 5 12 10 9 6 -3 10 -10 10
-16z m1000 -3 c-5 -13 -6 -27 -3 -30 4 -3 1 -6 -5 -6 -7 0 -12 6 -12 14 0 8
-6 17 -12 19 -10 4 -9 8 2 16 27 19 40 13 30 -13z m1200 -2 c0 -22 -2 -24 -15
-14 -11 9 -12 15 -2 25 16 19 17 19 17 -11z m-1765 -16 l14 -33 1 28 c0 15 4
27 8 27 18 0 62 -26 62 -37 0 -20 -18 -24 -23 -6 -4 14 -5 13 -6 -4 0 -13 -7
-23 -14 -23 -9 0 -13 -16 -13 -54 1 -62 -2 -67 -32 -59 -24 6 -30 29 -10 35
10 4 10 16 0 57 -13 55 -16 101 -7 101 3 0 12 -15 20 -32z m435 -5 c0 -18 -17
-16 -24 3 -8 22 4 40 15 23 5 -8 9 -20 9 -26z m70 21 c0 -8 -4 -12 -10 -9 -5
3 -10 10 -10 16 0 5 5 9 10 9 6 0 10 -7 10 -16z m1287 -6 c-3 -8 -6 -5 -6 6
-1 11 2 17 5 13 3 -3 4 -12 1 -19z m533 0 c0 -34 -11 -68 -21 -68 -5 0 -9 7
-9 15 0 8 5 15 11 15 7 0 10 12 7 30 -3 17 -1 30 4 30 4 0 8 -10 8 -22z
m-1306 -44 c-7 -31 -15 -58 -18 -61 -9 -9 -18 65 -10 79 5 7 9 16 10 21 1 4 2
9 3 12 0 3 7 5 15 5 11 0 11 -9 0 -56z m118 44 c0 -7 2 -18 2 -24 2 -17 30
-56 76 -103 30 -32 41 -50 38 -66 -4 -21 -2 -22 23 -15 15 5 29 6 32 4 2 -3 0
-26 -4 -51 -6 -29 -5 -51 0 -56 10 -10 17 11 23 63 2 17 9 25 23 25 13 0 19
-5 16 -15 -1 -8 -4 -41 -5 -72 -3 -57 6 -90 18 -70 9 15 46 2 39 -14 -3 -8 -1
-14 3 -14 5 0 20 -10 34 -21 l25 -20 -25 6 c-14 4 -36 14 -50 23 -14 9 -29 16
-35 17 -5 0 -23 8 -38 19 -25 17 -26 20 -12 36 20 22 19 29 -5 27 -11 -1 -20
-7 -20 -14 0 -18 -17 -16 -24 3 -3 8 -2 12 4 9 6 -3 10 1 10 9 0 9 -4 16 -8
16 -5 0 -13 17 -20 38 -10 36 -11 36 -5 -15 3 -35 1 -53 -6 -53 -11 0 -15 13
-12 38 1 6 -3 12 -9 12 -5 0 -10 10 -10 23 0 12 -4 28 -9 36 -7 11 -10 9 -16
-9 -4 -12 -3 -25 3 -29 13 -9 25 -51 14 -51 -5 0 -22 10 -38 23 -16 12 -30 21
-31 20 -15 -14 -21 12 -22 98 -1 57 2 98 7 95 5 -3 10 -38 11 -78 1 -39 7 -79
12 -87 9 -14 10 -14 5 2 -3 9 -1 17 4 17 6 0 10 7 10 15 0 8 -4 15 -10 15 -5
0 -10 15 -10 33 1 26 2 29 11 15 5 -10 17 -18 24 -18 8 0 15 -9 15 -20 0 -11
7 -20 15 -20 25 0 17 30 -15 58 -16 15 -30 32 -30 39 0 7 -4 13 -10 13 -5 0
-10 7 -10 15 0 8 -7 15 -15 15 -10 0 -15 11 -15 35 0 32 18 51 22 23z m-245
-20 c-3 -8 -6 -5 -6 6 -1 11 2 17 5 13 3 -3 4 -12 1 -19z m157 -20 c-1 -24 -2
-68 -3 -98 -1 -53 -1 -54 -17 -31 -14 19 -14 25 -3 33 9 6 10 11 3 14 -8 4 1
80 15 122 4 12 7 -6 5 -40z m419 13 c-6 -3 -13 -13 -16 -21 -4 -11 -6 -9 -6 6
-1 24 22 51 28 33 2 -6 -1 -14 -6 -18z m87 -3 c-1 -28 -2 -30 -11 -15 -6 10
-8 25 -5 33 9 24 16 16 16 -18z m1530 28 c0 -3 -4 -8 -10 -11 -5 -3 -10 -1
-10 4 0 6 5 11 10 11 6 0 10 -2 10 -4z m-2952 -38 l10 -33 2 35 c2 35 2 34 15
-14 19 -68 23 -138 8 -143 -8 -3 -10 6 -6 30 3 20 1 37 -6 41 -7 5 -11 -5 -10
-31 2 -58 13 -88 32 -85 17 3 22 -12 18 -55 -2 -28 15 -63 32 -63 17 0 38 -48
23 -53 -7 -3 -6 -15 7 -41 17 -36 17 -37 0 -36 -10 1 -24 2 -30 1 -16 -1 -17
-41 -2 -41 5 0 7 -5 3 -11 -9 -14 -19 3 -29 49 -5 25 -3 32 9 32 19 0 21 37 4
75 -14 30 -32 34 -23 4 5 -14 3 -20 -4 -18 -6 2 -11 9 -12 14 0 6 -7 26 -15
44 -8 19 -12 41 -9 49 3 8 0 21 -6 29 -7 8 -13 39 -13 69 -1 29 -3 54 -6 54
-3 0 -7 21 -8 47 -1 27 -6 49 -12 51 -15 5 -12 32 4 32 7 0 18 -15 24 -32z
m1512 24 c0 -4 -9 -13 -20 -20 -18 -11 -20 -10 -20 8 0 13 7 20 20 20 11 0 20
-3 20 -8z m1281 -35 c-8 -8 -11 -5 -11 9 0 27 14 41 18 19 2 -9 -1 -22 -7 -28z
m-3244 -4 c-3 -10 -5 -4 -5 12 0 17 2 24 5 18 2 -7 2 -21 0 -30z m1993 17 c0
-11 -4 -20 -10 -20 -5 0 -10 9 -10 20 0 11 5 20 10 20 6 0 10 -9 10 -20z m477
-12 c-3 -7 -5 -2 -5 12 0 14 2 19 5 13 2 -7 2 -19 0 -25z m203 17 c0 -8 -4
-15 -10 -15 -5 0 -7 7 -4 15 4 8 8 15 10 15 2 0 4 -7 4 -15z m-2390 -11 c0 -8
-5 -12 -10 -9 -6 4 -8 11 -5 16 9 14 15 11 15 -7z m1794 1 c3 -8 -3 -19 -13
-24 -24 -13 -33 -4 -18 20 14 23 23 24 31 4z m304 -28 c-6 -17 -22 -62 -35
-98 -24 -63 -26 -66 -43 -50 -15 15 -15 20 -2 56 8 22 23 47 33 56 10 9 16 19
13 22 -8 7 29 56 38 51 3 -2 2 -19 -4 -37z m-2498 18 c4 3 6 -4 3 -15 -7 -25
-23 -16 -22 13 0 12 3 16 6 9 2 -6 8 -10 13 -7z m84 7 c2 -4 -4 -13 -15 -20
-16 -11 -19 -9 -19 8 0 19 24 28 34 12z m1265 -24 c10 -30 9 -31 -4 -14 -8 11
-15 26 -15 33 0 22 8 14 19 -19z m679 20 c-6 -18 -28 -21 -28 -4 0 9 7 16 16
16 9 0 14 -5 12 -12z m1102 -13 c-7 -9 -15 -13 -18 -10 -3 2 1 11 8 20 7 9 15
13 18 10 3 -2 -1 -11 -8 -20z m440 21 c0 -3 -4 -8 -10 -11 -5 -3 -10 -1 -10 4
0 6 5 11 10 11 6 0 10 -2 10 -4z m-105 -23 c-4 -10 -10 -26 -12 -35 -4 -15
-23 -26 -23 -14 0 16 24 66 32 66 6 0 7 -8 3 -17z m152 -20 c-3 -10 -5 -4 -5
12 0 17 2 24 5 18 2 -7 2 -21 0 -30z m-2510 -18 c16 -47 11 -71 -7 -33 -10 22
-16 25 -31 18 -10 -6 -29 -10 -43 -10 -35 0 -35 33 -1 48 21 10 25 9 25 -3 0
-8 7 -15 16 -15 12 0 15 6 11 21 -10 36 16 15 30 -26z m-916 -2 c-9 -16 -10
-14 -11 12 0 21 3 26 11 18 8 -8 8 -16 0 -30z m-14 -23 c9 -30 9 -47 2 -59 -9
-14 -10 -14 -5 2 3 9 1 17 -3 17 -10 0 -31 54 -31 77 0 30 25 5 37 -37z m353
40 c0 -5 -2 -10 -4 -10 -3 0 -8 5 -11 10 -3 6 -1 10 4 10 6 0 11 -4 11 -10z
m622 -5 c13 -17 9 -35 -7 -35 -8 0 -15 4 -15 9 0 5 -3 17 -6 26 -7 17 15 18
28 0z m2012 -12 c-14 -60 -34 -97 -46 -85 -8 8 -8 15 0 25 7 8 9 17 5 20 -3 4
-1 7 5 7 7 0 11 3 10 8 -2 7 24 52 30 52 1 0 -1 -12 -4 -27z m43 -5 c-3 -7 -5
-2 -5 12 0 14 2 19 5 13 2 -7 2 -19 0 -25z m175 7 c-2 -14 -8 -25 -13 -25 -5
0 -9 11 -9 25 0 14 6 25 14 25 9 0 12 -8 8 -25z m-3029 -33 c5 -7 7 -16 3 -19
-4 -4 -11 -1 -16 7 -5 8 -17 15 -26 15 -10 0 -19 6 -22 14 -3 10 0 12 12 8 11
-4 19 -1 24 11 6 15 7 15 10 -3 2 -11 9 -26 15 -33z m2337 36 c0 -19 -18 -43
-25 -36 -9 9 4 48 16 48 5 0 9 -6 9 -12z m-2586 -7 c4 -5 2 -20 -3 -33 l-10
-23 -1 25 c0 20 -2 22 -10 10 -8 -13 -10 -13 -10 1 0 26 22 39 34 20z m2987
-14 c-10 -9 -11 -8 -5 6 3 10 9 15 12 12 3 -3 0 -11 -7 -18z m471 6 c-10 -17
-52 -26 -52 -11 0 4 9 8 19 8 11 0 23 5 26 10 11 17 17 11 7 -7z m-3605 -25
c-3 -7 -5 -2 -5 12 0 14 2 19 5 13 2 -7 2 -19 0 -25z m3515 10 c-7 -7 -12 -8
-12 -2 0 14 12 26 19 19 2 -3 -1 -11 -7 -17z m201 15 c3 -5 -1 -48 -9 -98 -7
-49 -13 -100 -14 -113 0 -33 24 -23 28 11 6 53 19 26 14 -30 -4 -53 -10 -65
-70 -143 -36 -47 -71 -89 -77 -93 -5 -4 -28 -5 -50 -1 -22 4 -52 7 -67 7 -16
0 -28 5 -28 11 0 16 53 99 80 126 12 12 44 72 71 132 49 110 98 197 111 198 4
0 9 -3 11 -7z m72 -99 c-4 -46 -11 -87 -17 -90 -6 -4 -8 1 -5 12 3 11 9 57 13
104 4 47 9 79 12 72 2 -8 1 -52 -3 -98z m-2377 71 c-3 -3 -9 2 -12 12 -6 14
-5 15 5 6 7 -7 10 -15 7 -18z m172 -7 c0 -21 -3 -29 -10 -22 -5 5 -7 19 -4 32
9 31 14 27 14 -10z m866 -12 c-17 -36 -33 -52 -42 -43 -7 6 11 41 34 67 23 28
27 16 8 -24z m171 22 c-3 -8 -6 -5 -6 6 -1 11 2 17 5 13 3 -3 4 -12 1 -19z
m-57 -4 c0 -9 5 -12 12 -8 8 5 9 2 5 -10 -4 -10 -7 -22 -7 -27 0 -11 -11 -11
-28 0 -9 5 -11 17 -6 34 7 29 24 37 24 11z m-2292 -12 c2 -7 -3 -12 -12 -12
-9 0 -16 7 -16 16 0 17 22 14 28 -4z m2485 8 c-13 -5 -23 -15 -23 -21 0 -7 -3
-9 -6 -6 -10 10 16 37 35 36 11 0 9 -3 -6 -9z m-1498 -61 c17 -31 36 -64 44
-73 12 -14 11 -16 -12 -16 -25 0 -37 16 -37 51 0 10 -7 19 -15 19 -8 0 -15 6
-15 13 0 6 -7 25 -15 40 -13 26 -13 28 3 25 9 -2 31 -28 47 -59z m1875 30 c0
-5 -8 -9 -17 -10 -15 0 -15 -2 2 -8 17 -7 15 -9 -12 -13 -28 -4 -31 -2 -22 14
5 10 17 18 27 19 10 0 12 3 5 6 -7 2 -13 9 -13 15 0 6 6 6 15 -2 8 -7 15 -16
15 -21z m-512 3 c-10 -2 -18 -11 -19 -20 0 -11 -2 -13 -6 -4 -9 22 5 42 24 35
17 -7 17 -8 1 -11z m842 3 c-7 -9 -15 -13 -17 -11 -7 7 7 26 19 26 6 0 6 -6
-2 -15z m35 -14 c-3 -12 -10 -21 -15 -21 -5 0 -4 11 2 25 13 29 23 26 13 -4z
m-3155 -7 c0 -8 -4 -14 -10 -14 -5 0 -10 9 -10 21 0 11 5 17 10 14 6 -3 10
-13 10 -21z m75 16 c3 -5 1 -10 -4 -10 -6 0 -11 5 -11 10 0 6 2 10 4 10 3 0 8
-4 11 -10z m135 -35 c5 -11 11 -33 12 -50 2 -24 7 -30 26 -28 17 2 22 -2 22
-19 0 -12 -3 -19 -6 -15 -4 3 -14 -4 -24 -15 -14 -17 -27 -22 -59 -20 -23 2
-41 -2 -41 -8 0 -15 35 -48 57 -52 25 -5 31 -48 6 -48 -11 0 -25 -6 -32 -12
-11 -11 -11 -9 0 9 11 18 11 25 1 35 -21 21 -33 -3 -22 -42 15 -51 13 -73 -5
-66 -8 3 -15 1 -15 -5 0 -6 9 -13 20 -16 43 -11 17 -23 -32 -14 -5 0 -8 11 -8
23 l0 22 -21 -23 c-14 -15 -18 -26 -11 -30 6 -3 14 -20 18 -36 8 -35 4 -33
-31 19 -17 24 -23 42 -17 48 13 13 3 48 -14 48 -8 0 -14 7 -14 15 0 22 27 19
40 -4 5 -11 10 -30 10 -42 0 -15 3 -20 10 -13 7 7 5 29 -5 67 -18 70 -18 67
-1 67 8 0 22 -20 33 -45 19 -48 33 -58 33 -25 0 11 -4 20 -9 20 -16 0 -23 40
-11 55 11 14 7 19 -12 16 -5 0 -8 5 -8 12 0 7 -9 18 -20 24 -13 9 -21 29 -26
63 -4 27 -10 47 -14 45 -5 -3 -11 1 -13 7 -4 8 -6 7 -6 -4 -1 -9 11 -44 26
-78 19 -44 23 -64 15 -72 -8 -8 -13 -3 -17 18 -4 16 -13 45 -20 64 -25 66 -26
85 -3 99 19 12 23 11 35 -5 7 -10 11 -25 8 -33 -8 -21 24 -51 56 -51 16 0 32
-7 38 -17 6 -10 11 -13 11 -6 0 6 -4 15 -10 18 -14 8 -13 42 2 51 14 9 38 -23
38 -53 0 -13 5 -23 10 -23 6 0 8 17 4 43 -9 65 -11 69 -33 58 -21 -12 -31 -5
-31 19 0 21 43 54 48 36 2 -6 7 -20 12 -31z m724 29 c3 -8 2 -12 -4 -9 -6 3
-10 10 -10 16 0 14 7 11 14 -7z m228 -29 c11 -20 11 -20 -11 -1 -11 11 -21 26
-21 35 0 14 2 14 10 1 6 -8 16 -24 22 -35z m-362 10 c-3 -6 -14 -10 -25 -11
-11 0 -26 -3 -33 -8 -8 -5 -12 -1 -12 12 0 10 2 21 5 24 9 9 70 -7 65 -17z
m405 4 c-4 -5 -1 -9 4 -9 6 0 11 5 11 10 0 6 5 10 10 10 11 0 13 -30 4 -54 -5
-13 -9 -12 -25 8 -20 25 -26 62 -9 51 6 -4 8 -11 5 -16z m-1406 -44 l0 -20 -9
20 c-5 11 -9 29 -9 40 l0 20 9 -20 c5 -11 9 -29 9 -40z m130 -52 c1 -8 -6 -6
-17 5 -10 10 -18 35 -19 62 l-2 45 19 -50 c10 -27 19 -56 19 -62z m211 68 c0
-22 -4 -27 -26 -26 -23 0 -58 35 -35 35 5 0 12 -6 14 -12 4 -9 6 -8 6 3 1 19
21 40 33 33 4 -3 8 -17 8 -33z m-183 15 c-5 -16 -27 -19 -27 -3 0 7 7 14 15
14 9 0 14 -5 12 -11z m2083 -42 c-12 -57 -41 -124 -54 -124 -12 0 3 68 24 109
11 20 22 45 25 55 11 38 15 7 5 -40z m174 37 c5 -1 6 -19 3 -41 -3 -25 -1 -40
6 -40 6 0 8 -3 4 -6 -3 -3 -15 -3 -27 1 -15 5 -18 10 -11 19 13 15 4 27 -14
20 -17 -7 -28 12 -20 36 4 14 13 18 28 16 12 -3 26 -5 31 -5z m1183 -28 c-3
-10 -5 -4 -5 12 0 17 2 24 5 18 2 -7 2 -21 0 -30z m-2757 11 c0 -8 -5 -12 -10
-9 -6 4 -8 11 -5 16 9 14 15 11 15 -7z m1360 9 c-1 -26 -30 -98 -39 -95 -6 1
-11 -2 -11 -8 0 -5 5 -10 10 -10 7 0 7 -6 2 -17 -5 -10 -7 -24 -5 -31 8 -21
-6 -62 -22 -62 -8 0 -19 8 -24 18 -8 13 -10 14 -11 2 0 -11 -13 -16 -45 -18
-52 -3 -54 3 -25 67 11 24 20 50 20 58 0 27 -24 7 -33 -28 -5 -19 -13 -38 -18
-43 -5 -6 -9 -20 -9 -33 0 -14 -6 -23 -15 -23 -10 0 -14 7 -11 23 3 12 5 34 5
50 1 17 6 27 16 27 10 0 15 10 15 30 0 34 1 34 -34 20 -15 -5 -26 -6 -26 -1 0
5 -3 16 -6 25 -5 12 -1 14 23 7 29 -8 35 -8 93 4 19 4 49 8 66 9 17 1 39 9 48
19 18 18 36 23 36 10z m800 -12 c-14 -26 -13 -31 6 -31 11 0 14 -5 10 -16 -3
-9 -6 -24 -6 -35 0 -15 -6 -19 -27 -17 -21 2 -28 -2 -34 -22 -4 -14 -7 -18 -8
-11 -1 12 -4 12 -13 3 -7 -7 -21 -12 -32 -12 -18 0 -18 2 5 26 l24 27 -27 -5
c-16 -3 -28 -1 -28 3 0 5 17 9 38 9 20 0 43 4 51 9 18 12 6 45 -14 37 -24 -9
-18 6 13 31 35 29 57 31 42 4z m-2203 -13 c-3 -8 -6 -5 -6 6 -1 11 2 17 5 13
3 -3 4 -12 1 -19z m211 -4 c-9 -9 -21 -13 -28 -9 -9 6 -6 12 11 21 29 15 38 9
17 -12z m2405 6 c-3 -11 -10 -23 -16 -27 -5 -3 -8 -2 -5 3 3 5 8 17 11 27 9
24 16 22 10 -3z m-1122 -82 c-13 -40 -28 -79 -33 -85 -18 -22 -28 -14 -21 17
3 18 1 30 -5 30 -5 0 -8 9 -5 20 3 11 8 18 12 16 19 -12 67 65 55 87 -5 9 -4
9 7 0 11 -11 9 -25 -10 -85z m1009 77 c0 -8 -4 -15 -9 -15 -5 0 -11 7 -15 15
-3 9 0 15 9 15 8 0 15 -7 15 -15z m-2217 -22 c-4 -10 -2 -14 5 -9 6 3 13 2 17
-4 10 -16 -21 -12 -35 5 -9 11 -9 15 -1 15 7 0 9 5 5 12 -4 7 -3 8 4 4 6 -4 8
-14 5 -23z m687 -8 c0 -26 -3 -33 -15 -29 -9 4 -15 0 -15 -10 0 -9 7 -16 16
-16 8 0 12 -4 9 -10 -3 -5 -18 -10 -32 -10 -24 0 -25 3 -20 34 5 32 32 73 50
75 4 1 7 -15 7 -34z m53 23 c4 -10 7 -10 14 -1 12 17 38 -1 27 -18 -5 -8 -9
-28 -10 -45 -1 -49 -24 -97 -39 -84 -22 18 -25 49 -5 55 10 3 21 12 24 20 4
11 -1 13 -24 8 -27 -5 -30 -3 -30 20 0 14 3 32 6 41 7 19 30 21 37 4z m-1750
-13 c4 -8 2 -17 -2 -20 -5 -2 -11 4 -14 15 -6 23 8 27 16 5z m721 -10 c3 -8 1
-15 -4 -15 -6 0 -10 7 -10 15 0 8 2 15 4 15 2 0 6 -7 10 -15z m176 5 c0 -5 6
-9 13 -7 7 1 12 -9 13 -25 1 -19 -4 -28 -14 -28 -13 0 -13 3 -4 12 16 16 15
28 -2 28 -8 0 -16 7 -20 15 -3 8 -1 15 4 15 6 0 10 -4 10 -10z m931 -33 c-17
-17 -24 -1 -9 22 11 18 14 19 16 5 2 -9 -1 -21 -7 -27z m1289 22 c0 -5 -4 -9
-10 -9 -5 0 -10 7 -10 16 0 8 5 12 10 9 6 -3 10 -10 10 -16z m-3004 -33 c5
-22 4 -28 -7 -24 -7 2 -15 20 -17 39 -4 40 13 30 24 -15z m858 35 c7 -11 -3
-41 -14 -41 -10 0 -20 37 -12 44 8 9 20 7 26 -3z m1826 4 c0 -8 -52 -56 -57
-52 -5 6 38 54 50 56 4 1 7 -1 7 -4z m279 -39 c-9 -8 -10 -7 -5 7 3 10 7 24 7
30 1 7 3 4 6 -7 3 -10 -1 -23 -8 -30z m214 9 c-9 -19 -19 -33 -21 -30 -7 7 19
65 29 65 5 0 1 -16 -8 -35z m-3388 -143 c-2 -2 6 -25 19 -51 12 -25 33 -74 45
-108 13 -34 31 -69 42 -79 10 -9 19 -20 19 -23 0 -3 -30 -5 -67 -4 -60 1 -69
4 -80 25 -20 38 -25 60 -27 118 -2 30 -6 109 -10 175 l-7 120 35 -84 c20 -47
34 -87 31 -89z m3236 131 c-12 -20 -14 -14 -5 12 4 9 9 14 11 11 3 -2 0 -13
-6 -23z m69 21 c0 -13 -42 -74 -50 -74 -5 0 -1 18 7 40 9 22 22 40 30 40 7 0
13 -3 13 -6z m-3244 -21 c-4 -10 2 -25 15 -40 25 -26 22 -40 -4 -20 -21 15
-35 77 -17 77 7 0 10 -7 6 -17z m919 -24 c4 -10 11 -19 17 -19 6 0 8 -3 5 -6
-7 -7 -57 36 -57 48 0 15 29 -5 35 -23z m155 20 c0 -5 4 -8 9 -5 10 6 25 -24
16 -32 -3 -3 -5 0 -5 7 0 7 -4 10 -9 6 -6 -3 -15 4 -21 15 -7 13 -7 20 0 20 5
0 10 -5 10 -11z m80 -4 c0 -8 5 -15 10 -15 6 0 10 -4 10 -8 0 -5 -13 -7 -30
-4 -30 4 -41 26 -17 35 21 9 27 7 27 -8z m769 -22 c-5 -21 -11 -51 -14 -66 -7
-34 -29 -31 -32 4 0 13 -1 28 -2 33 -2 17 -30 -16 -36 -44 -4 -18 -12 -27 -23
-26 -21 3 -28 26 -8 26 11 0 18 13 22 40 7 44 32 65 64 55 10 -3 21 -1 25 5
11 18 12 11 4 -27z m-1839 -20 c0 -7 7 -13 15 -13 17 0 18 -2 9 -25 -5 -13
-12 -8 -30 22 -27 43 -33 81 -9 49 8 -11 15 -26 15 -33z m30 31 c0 -9 -5 -14
-12 -12 -18 6 -21 28 -4 28 9 0 16 -7 16 -16z m-142 -29 c-3 -3 -9 2 -12 12
-6 14 -5 15 5 6 7 -7 10 -15 7 -18z m3062 15 c0 -5 -4 -10 -10 -10 -5 0 -10 5
-10 10 0 6 5 10 10 10 6 0 10 -4 10 -10z m-2050 -15 c0 -8 -4 -15 -9 -15 -5 0
-11 7 -15 15 -3 9 0 15 9 15 8 0 15 -7 15 -15z m-794 -30 c17 -42 17 -42 0
-48 -20 -8 -49 53 -34 70 15 18 17 17 34 -22z m2755 21 c5 3 9 -3 9 -13 1 -17
1 -17 11 0 11 18 29 23 29 7 0 -15 -43 -35 -48 -21 -2 6 -10 11 -18 11 -8 0
-11 6 -7 17 4 11 8 13 11 5 2 -7 8 -10 13 -6z m-2563 -8 c-6 -18 -28 -21 -28
-4 0 9 7 16 16 16 9 0 14 -5 12 -12z m737 2 c3 -5 1 -10 -4 -10 -6 0 -11 5
-11 10 0 6 2 10 4 10 3 0 8 -4 11 -10z m-975 -53 c-3 -37 0 -48 10 -42 6 4 10
-8 10 -28 0 -21 7 -41 20 -52 11 -10 20 -23 20 -29 -1 -17 -39 34 -65 84 -16
32 -21 56 -17 84 4 31 6 35 14 22 5 -9 9 -27 8 -39z m1064 38 c6 -17 4 -18
-18 -9 -20 8 -21 24 -2 24 8 0 16 -7 20 -15z m979 -15 c-5 -19 -12 -23 -30
-18 -11 3 -3 32 10 40 17 10 26 0 20 -22z m682 -27 c-17 -73 -45 -130 -55
-113 -5 8 -10 8 -14 2 -3 -5 1 -12 9 -16 32 -12 15 -28 -22 -22 -21 4 -48 8
-60 9 -13 1 -23 3 -23 4 0 1 3 9 6 18 6 13 9 14 16 3 7 -10 11 -9 23 5 7 11
12 24 11 30 -2 7 -1 9 1 5 8 -15 73 -9 73 6 0 10 -7 12 -22 8 -24 -6 -20 7 15
46 20 22 11 32 -10 11 -18 -18 -32 -7 -22 19 6 16 16 22 38 22 16 0 33 5 36
10 13 21 13 8 0 -47z m172 14 c-7 -20 -15 -37 -19 -37 -11 0 -10 8 8 46 21 44
26 40 11 -9z m53 18 c-13 -14 -27 -25 -32 -25 -4 0 -2 11 4 25 6 15 20 25 31
25 20 0 19 -1 -3 -25z m-2023 -2 c3 -7 -4 -9 -16 -6 -12 3 -18 9 -15 15 7 11
26 6 31 -9z m-273 -9 c3 -8 2 -12 -4 -9 -6 3 -10 10 -10 16 0 14 7 11 14 -7z
m1926 -4 c-6 -11 -16 -20 -22 -20 -6 0 -3 9 7 20 10 11 20 20 22 20 2 0 -1 -9
-7 -20z m-2294 -27 c4 -21 9 -32 11 -25 5 14 33 16 33 2 0 -5 -4 -10 -10 -10
-5 0 -10 -13 -10 -30 0 -34 -7 -38 -26 -12 -11 13 -15 14 -22 4 -9 -13 -42 -7
-42 8 0 4 15 10 33 14 20 4 28 9 20 14 -7 5 -16 22 -19 40 -5 25 -3 32 9 32
11 0 19 -13 23 -37z m2707 -3 c-16 -40 -33 -53 -33 -25 0 8 4 15 9 15 5 0 12
11 15 25 4 14 10 25 15 25 5 0 2 -18 -6 -40z m-3058 -11 c19 -36 12 -52 -10
-23 -14 18 -21 54 -10 54 2 0 12 -14 20 -31z m920 21 c3 -5 1 -10 -4 -10 -6 0
-11 5 -11 10 0 6 2 10 4 10 3 0 8 -4 11 -10z m1976 -29 c-11 -20 -51 -19 -51
2 0 6 3 8 6 4 3 -3 16 3 27 14 24 22 34 11 18 -20z m-1809 -1 c5 -12 6 -25 3
-29 -3 -3 -8 5 -12 18 -3 12 -11 20 -18 17 -8 -3 -16 1 -18 8 -3 8 3 12 16 11
11 -1 24 -12 29 -25z m89 13 c12 -15 12 -16 -4 -10 -10 4 -25 7 -33 7 -8 0
-14 5 -14 10 0 16 36 11 51 -7z m49 -8 c10 -12 10 -15 -3 -15 -8 0 -17 7 -21
15 -3 8 -2 15 3 15 5 0 14 -7 21 -15z m1602 3 c-5 -7 -12 -22 -15 -33 -4 -16
-5 -15 -6 6 -1 27 6 39 22 39 6 0 5 -5 -1 -12z m-309 -23 c-3 -9 -8 -14 -10
-11 -3 3 -2 9 2 15 9 16 15 13 8 -4z m62 5 c-3 -5 -11 -10 -16 -10 -6 0 -7 5
-4 10 3 6 11 10 16 10 6 0 7 -4 4 -10z m-1780 -41 c9 -17 15 -33 13 -35 -3 -2
-12 12 -21 31 -21 43 -13 47 8 4z m219 15 c3 -8 2 -12 -4 -9 -6 3 -10 10 -10
16 0 14 7 11 14 -7z m184 -1 c-2 -15 4 -18 34 -18 20 0 40 -4 45 -9 4 -5 -1
-6 -14 -2 -12 4 -24 2 -28 -4 -6 -10 -53 -4 -69 10 -4 5 -2 15 5 24 19 21 31
20 27 -1z m112 7 c8 -5 11 -10 5 -10 -5 0 -17 5 -25 10 -8 5 -10 10 -5 10 6 0
17 -5 25 -10z m1610 -6 c0 -3 -9 -17 -20 -31 -22 -29 -25 -26 -10 11 8 23 30
37 30 20z m-2510 -28 c0 -13 -6 -26 -12 -29 -19 -7 23 -37 47 -34 12 1 19 9
19 20 -1 9 4 17 12 17 8 0 14 5 14 10 0 18 29 11 40 -9 14 -28 13 -31 -14 -31
-33 0 -57 -10 -50 -21 3 -5 -2 -9 -10 -9 -18 0 -19 -2 -10 -24 7 -20 30 -21
37 -3 3 8 19 14 38 13 26 -1 33 -5 34 -23 2 -27 -37 -48 -108 -58 -42 -7 -50
-5 -68 16 l-20 24 30 7 c38 10 49 28 22 35 -23 6 -28 29 -8 36 6 2 -3 7 -20
11 -35 8 -55 26 -28 26 8 0 21 11 27 25 14 32 28 32 28 1z m730 3 c0 -6 -4 -7
-10 -4 -5 3 -10 11 -10 16 0 6 5 7 10 4 6 -3 10 -11 10 -16z m283 4 c18 -9 26
-18 19 -20 -7 -3 -27 5 -45 16 -38 25 -19 28 26 4z m1144 -5 c-15 -8 -16 -12
-6 -24 9 -11 9 -18 1 -26 -14 -14 -23 -16 -121 -25 -55 -4 -72 -3 -67 5 4 7 1
12 -6 12 -7 1 3 14 22 30 19 17 39 30 45 30 5 0 -3 -12 -18 -25 -29 -26 -29
-49 1 -38 9 4 31 17 47 29 31 23 106 53 115 46 3 -2 -3 -8 -13 -14z m1003 12
c0 -5 -2 -10 -4 -10 -3 0 -8 5 -11 10 -3 6 -1 10 4 10 6 0 11 -4 11 -10z
m-3517 -24 c3 3 3 -3 0 -14 -5 -19 -33 -21 -33 -2 0 5 -3 17 -7 27 -6 17 -6
17 14 0 11 -9 22 -14 26 -11z m1003 -14 c-9 -8 -26 10 -26 26 1 15 2 15 15 -2
8 -11 13 -21 11 -24z m1414 23 c-7 -9 -15 -13 -17 -11 -7 7 7 26 19 26 6 0 6
-6 -2 -15z m150 11 c0 -2 -7 -6 -15 -10 -8 -3 -15 -1 -15 4 0 6 7 10 15 10 8
0 15 -2 15 -4z m191 -27 c-11 -12 -17 -29 -14 -40 5 -16 0 -19 -31 -19 -22 0
-35 4 -31 10 3 6 17 10 30 10 18 0 23 4 18 15 -6 18 25 58 38 49 5 -3 0 -14
-10 -25z m-1481 -14 c14 -16 10 -18 -14 -9 -9 3 -16 10 -16 15 0 14 16 11 30
-6z m76 0 c10 -8 15 -14 9 -14 -5 0 -19 6 -29 14 -11 8 -15 15 -10 15 6 0 19
-7 30 -15z m-192 -1 c9 -3 14 -10 11 -14 -7 -12 25 -41 36 -34 5 3 7 15 4 27
-2 12 -2 16 1 10 3 -7 13 -13 22 -14 11 0 12 -2 5 -6 -18 -7 -16 -20 4 -27 11
-5 24 2 40 20 21 25 25 26 55 14 47 -19 56 -30 25 -30 -35 0 -35 -18 0 -26 18
-5 30 -2 38 10 17 23 23 20 17 -9 -4 -23 -8 -25 -61 -24 -31 1 -48 3 -38 6 14
4 16 8 6 19 -22 27 -74 9 -62 -22 3 -8 -1 -14 -11 -14 -9 0 -16 5 -16 10 0 6
-6 10 -14 10 -7 0 -19 7 -26 15 -7 8 -21 15 -31 15 -11 0 -19 5 -19 11 0 6 6
7 13 2 6 -4 4 5 -5 20 -25 37 -24 43 6 31z m-280 -20 c4 -10 1 -14 -6 -12 -15
5 -23 28 -10 28 5 0 13 -7 16 -16z m1931 -13 c-3 -6 -11 -11 -17 -11 -6 0 -6
6 2 15 14 17 26 13 15 -4z m-2550 -1 c3 -5 19 -10 36 -10 21 0 29 -5 29 -17 0
-11 -3 -14 -8 -7 -9 14 -61 24 -68 13 -7 -12 -65 -11 -84 1 -8 5 -13 10 -10
11 3 0 18 2 34 4 15 2 31 6 34 9 9 9 30 7 37 -4z m869 -31 c-3 -5 2 -17 12
-26 13 -13 14 -18 4 -21 -16 -6 -40 25 -40 51 0 10 -4 15 -10 12 -11 -7 -14 8
-3 18 9 9 44 -23 37 -34z m293 35 c-3 -3 -12 -4 -19 -1 -8 3 -5 6 6 6 11 1 17
-2 13 -5z m862 3 c-2 -1 -13 -9 -24 -17 -19 -14 -19 -14 -6 3 7 9 18 17 24 17
6 0 8 -1 6 -3z m-2289 -60 c0 -5 -4 -5 -10 -2 -5 3 -10 14 -10 23 0 15 2 15
10 2 5 -8 10 -19 10 -23z m1050 -3 c0 -17 17 -18 23 -1 3 9 7 9 20 -2 26 -21
20 -31 -17 -31 -26 0 -36 5 -41 20 -3 11 -11 20 -16 20 -5 0 -9 4 -9 9 0 5 9
7 20 4 11 -3 20 -12 20 -19z m560 6 c0 -5 -4 -10 -10 -10 -5 0 -10 5 -10 10 0
6 5 10 10 10 6 0 10 -4 10 -10z m-1510 -10 c0 -5 -9 -10 -21 -10 -11 0 -17 5
-14 10 3 6 13 10 21 10 8 0 14 -4 14 -10z m110 -1 c0 10 9 12 38 6 51 -9 61
-22 29 -36 -15 -7 -27 -18 -27 -26 0 -15 -26 -18 -35 -3 -4 7 -11 7 -18 2 -13
-10 -167 -4 -167 7 0 3 25 7 55 7 46 1 60 6 82 28 20 20 28 24 35 14 6 -10 8
-10 8 1z m397 -25 c-3 -3 -12 -4 -19 -1 -8 3 -5 6 6 6 11 1 17 -2 13 -5z
m-652 -114 c4 -6 -15 -10 -50 -10 -35 0 -54 4 -50 10 3 6 26 10 50 10 24 0 47
-4 50 -10z"/>
<path d="M3150 2210 c0 -5 4 -10 9 -10 6 0 13 5 16 10 3 6 -1 10 -9 10 -9 0
-16 -4 -16 -10z"/>
<path d="M3230 2061 c0 -13 39 -21 47 -9 3 6 1 8 -5 4 -6 -3 -13 -2 -17 4 -8
12 -25 13 -25 1z"/>
<path d="M3383 2025 c7 -14 20 -28 29 -31 10 -3 15 -11 11 -20 -6 -17 -30 -19
-36 -1 -4 8 -6 7 -6 -4 -2 -34 24 -69 51 -69 20 0 26 4 22 15 -5 11 -11 12
-25 4 -29 -15 -25 15 5 34 17 12 26 13 35 4 6 -6 11 -7 11 -1 0 5 -9 16 -20
24 -11 8 -20 20 -20 28 0 7 -4 10 -10 7 -5 -3 -15 3 -22 15 -19 30 -39 27 -25
-5z"/>
<path d="M3345 1929 c-4 -6 -5 -13 -2 -16 7 -7 27 6 27 18 0 12 -17 12 -25 -2z"/>
<path d="M3398 1840 c-13 -23 -14 -30 -4 -30 8 0 16 7 20 15 3 8 10 15 16 15
16 0 12 -22 -7 -36 -17 -13 -17 -13 1 -14 14 0 17 -6 14 -24 -3 -16 -1 -23 7
-19 7 2 15 17 19 34 3 18 12 29 22 29 13 0 14 -3 5 -14 -18 -21 37 -32 58 -12
10 11 11 16 3 16 -7 0 -12 5 -12 10 0 19 -24 37 -42 32 -10 -2 -18 -8 -18 -13
0 -21 -30 -7 -36 16 -8 33 -25 31 -46 -5z"/>
<path d="M3480 1739 c0 -34 25 -44 56 -24 31 20 30 29 -2 21 -19 -5 -30 -2
-40 11 -12 17 -13 16 -14 -8z"/>
<path d="M3591 1744 c0 -11 3 -14 6 -6 3 7 2 16 -1 19 -3 4 -6 -2 -5 -13z"/>
<path d="M3565 1709 c-4 -6 -4 -13 -1 -16 8 -8 36 5 36 17 0 13 -27 13 -35 -1z"/>
<path d="M3570 1661 c0 -5 5 -13 10 -16 6 -3 10 -2 10 4 0 5 -4 13 -10 16 -5
3 -10 2 -10 -4z"/>
<path d="M3390 1509 c0 -5 5 -7 10 -4 6 3 10 8 10 11 0 2 -4 4 -10 4 -5 0 -10
-5 -10 -11z"/>
<path d="M1597 1683 c-12 -11 -8 -23 8 -23 8 0 15 7 15 15 0 16 -12 20 -23 8z"/>
<path d="M1588 1568 c9 -9 15 -9 24 0 9 9 7 12 -12 12 -19 0 -21 -3 -12 -12z"/>
<path d="M2750 1476 c0 -14 4 -27 9 -30 4 -3 11 -29 15 -58 10 -75 17 -98 28
-98 14 0 5 79 -17 154 -17 58 -35 74 -35 32z"/>
<path d="M2922 1473 c2 -10 8 -18 13 -18 5 0 11 8 13 18 2 10 -3 17 -13 17
-10 0 -15 -7 -13 -17z"/>
<path d="M1500 1464 c0 -8 5 -12 10 -9 6 3 10 10 10 16 0 5 -4 9 -10 9 -5 0
-10 -7 -10 -16z"/>
<path d="M2881 1454 c-12 -14 -12 -17 0 -25 23 -14 29 -11 29 16 0 29 -9 31
-29 9z"/>
<path d="M2900 1388 c0 -30 15 -54 24 -40 8 14 -3 62 -15 62 -5 0 -9 -10 -9
-22z"/>
<path d="M2796 1255 c4 -8 8 -15 10 -15 2 0 4 7 4 15 0 8 -4 15 -10 15 -5 0
-7 -7 -4 -15z"/>
<path d="M2789 1110 c-9 -33 -12 -60 -8 -60 5 0 11 12 14 28 4 15 11 35 16 45
5 10 6 24 2 32 -6 10 -13 -4 -24 -45z"/>
<path d="M2790 1010 c0 -5 7 -7 15 -4 8 4 15 8 15 10 0 2 -7 4 -15 4 -8 0 -15
-4 -15 -10z"/>
<path d="M2767 943 c-9 -25 -15 -48 -13 -50 2 -2 12 16 21 42 10 25 16 47 13
50 -2 2 -12 -17 -21 -42z"/>
<path d="M988 2075 c2 -14 7 -25 11 -25 3 0 16 -3 29 -6 16 -5 22 -2 22 10 0
9 -7 19 -15 22 -8 4 -12 10 -9 15 3 5 -6 9 -19 9 -20 0 -23 -4 -19 -25z"/>
<path d="M887 2047 c-9 -14 -17 -37 -17 -49 0 -17 3 -19 9 -9 6 9 16 11 27 7
18 -7 18 -8 0 -22 -17 -12 -18 -14 -3 -14 9 0 17 -6 17 -12 0 -7 7 -3 15 9 13
19 13 26 3 43 -11 17 -11 22 2 30 12 8 11 10 -7 10 -12 0 -23 7 -25 17 -2 14
-6 12 -21 -10z"/>
<path d="M970 1990 c0 -5 5 -10 10 -10 6 0 10 5 10 10 0 6 -4 10 -10 10 -5 0
-10 -4 -10 -10z"/>
<path d="M666 1954 c-4 -14 -5 -29 -2 -31 3 -3 8 7 12 21 3 15 4 29 1 32 -2 3
-8 -7 -11 -22z"/>
<path d="M709 1963 c-22 -5 -32 -53 -13 -59 8 -2 22 -7 32 -11 9 -3 21 -5 26
-4 4 1 5 -10 2 -24 -6 -22 -3 -25 19 -25 14 0 25 5 25 10 0 6 -7 10 -15 10
-18 0 -20 19 -2 25 16 7 19 55 2 55 -7 0 -18 7 -25 15 -12 15 -21 16 -51 8z"/>
<path d="M943 1890 c-1 -11 0 -20 2 -20 2 0 9 9 15 20 8 15 8 20 -3 20 -7 0
-13 -9 -14 -20z"/>
<path d="M860 1785 c0 -8 7 -15 15 -15 8 0 15 7 15 15 0 8 -7 15 -15 15 -8 0
-15 -7 -15 -15z"/>
<path d="M640 1701 c0 -6 6 -11 14 -11 8 0 22 -10 31 -22 10 -15 18 -19 23
-12 4 6 14 13 22 16 12 4 11 7 -5 15 -33 18 -85 26 -85 14z"/>
<path d="M798 1696 c-10 -7 -18 -16 -18 -20 0 -11 35 -7 48 6 27 27 2 39 -30
14z"/>
<path d="M862 1690 c0 -14 2 -19 5 -12 2 6 2 18 0 25 -3 6 -5 1 -5 -13z"/>
<path d="M480 1506 c0 -24 16 -28 54 -11 17 7 17 9 -5 21 -35 20 -49 17 -49
-10z"/>
<path d="M756 1465 c-3 -9 -11 -13 -17 -9 -7 4 -9 -1 -7 -12 3 -13 11 -18 28
-16 32 3 34 7 17 32 -12 18 -15 19 -21 5z"/>
<path d="M670 1435 c0 -8 -9 -16 -20 -16 -11 -1 -24 -3 -30 -4 -5 -1 -14 -3
-20 -4 -5 0 -10 -8 -10 -17 0 -8 4 -13 9 -9 6 3 14 -2 19 -11 9 -15 10 -15 16
4 8 24 26 30 26 10 0 -9 4 -8 10 2 8 13 10 12 10 -3 0 -25 28 -54 34 -35 18
58 17 68 -10 68 -19 0 -25 4 -20 15 3 8 1 15 -4 15 -6 0 -10 -7 -10 -15z"/>
<path d="M761 1364 c0 -11 3 -14 6 -6 3 7 2 16 -1 19 -3 4 -6 -2 -5 -13z"/>
<path d="M732 1322 c-17 -15 -22 -27 -17 -41 6 -20 7 -20 26 -2 12 11 19 28
17 41 l-3 22 -23 -20z"/>
<path d="M742 1240 c-11 -17 -10 -23 4 -37 13 -14 17 -14 25 -2 11 18 12 52 0
45 -5 -4 -11 -2 -13 4 -2 6 -9 1 -16 -10z"/>
<path d="M614 1186 c-3 -9 1 -23 10 -31 15 -15 16 -14 16 9 0 29 -18 44 -26
22z"/>
<path d="M471 1054 c0 -11 3 -14 6 -6 3 7 2 16 -1 19 -3 4 -6 -2 -5 -13z"/>
<path d="M572 1010 c0 -14 2 -19 5 -12 2 6 2 18 0 25 -3 6 -5 1 -5 -13z"/>
<path d="M215 1600 c-4 -17 -5 -34 -2 -36 3 -3 8 9 12 26 4 17 5 34 2 36 -3 3
-8 -9 -12 -26z"/>
<path d="M3551 1504 c0 -11 3 -14 6 -6 3 7 2 16 -1 19 -3 4 -6 -2 -5 -13z"/>
<path d="M3555 1364 c-10 -7 -23 -15 -29 -17 -7 -3 -7 -9 3 -18 9 -10 15 -10
18 -3 2 6 14 9 27 7 31 -6 40 9 17 29 -15 13 -21 13 -36 2z"/>
<path d="M3652 1290 c0 -14 2 -19 5 -12 2 6 2 18 0 25 -3 6 -5 1 -5 -13z"/>
<path d="M1734 1414 c3 -9 6 -21 6 -27 0 -6 6 -2 14 8 16 22 12 35 -11 35 -10
0 -13 -6 -9 -16z"/>
<path d="M1701 1404 c0 -11 3 -14 6 -6 3 7 2 16 -1 19 -3 4 -6 -2 -5 -13z"/>
<path d="M1714 1326 c4 -16 0 -29 -14 -41 -13 -11 -19 -29 -18 -52 1 -26 4
-31 10 -19 5 9 16 16 23 16 8 0 15 5 15 10 0 6 -5 10 -12 10 -9 0 -9 3 -1 11
6 6 9 18 6 26 -3 7 -2 13 3 11 12 -4 14 3 8 30 -4 12 -11 22 -16 22 -6 0 -8
-11 -4 -24z"/>
<path d="M1641 1104 c0 -11 3 -14 6 -6 3 7 2 16 -1 19 -3 4 -6 -2 -5 -13z"/>
<path d="M3584 1036 c-3 -8 -4 -23 -2 -33 3 -11 6 -6 9 15 6 34 2 42 -7 18z"/>
<path d="M3490 821 c0 -17 4 -32 9 -35 5 -4 7 4 3 16 -3 14 -2 19 6 14 14 -8
15 -4 6 18 -10 26 -24 18 -24 -13z"/>
<path d="M2841 901 c-9 -6 -11 -16 -7 -27 7 -18 8 -18 17 -1 14 23 8 39 -10
28z"/>
<path d="M582 558 c3 -7 15 -12 28 -12 13 0 25 5 28 12 2 8 -7 12 -28 12 -21
0 -30 -4 -28 -12z"/>
<path d="M2415 603 c0 -16 -6 -45 -13 -67 -14 -41 -13 -49 4 -38 14 9 46 105
33 96 -6 -3 -9 2 -7 11 2 10 -2 20 -7 22 -6 2 -11 -9 -10 -24z"/>
<path d="M2360 514 c0 -17 22 -14 28 4 2 7 -3 12 -12 12 -9 0 -16 -7 -16 -16z"/>
<path d="M2430 491 c-6 -12 -7 -21 -1 -21 10 0 24 30 17 37 -2 3 -9 -5 -16
-16z"/>
<path d="M3287 613 c-4 -3 -7 -16 -6 -27 0 -19 1 -19 10 3 10 24 8 36 -4 24z"/>
<path d="M2550 524 c0 -8 5 -12 10 -9 6 3 10 10 10 16 0 5 -4 9 -10 9 -5 0
-10 -7 -10 -16z"/>
<path d="M672 198 c6 -18 28 -21 28 -4 0 9 -7 16 -16 16 -9 0 -14 -5 -12 -12z"/>
<path d="M715 2170 c-3 -5 1 -10 9 -10 9 0 16 5 16 10 0 6 -4 10 -9 10 -6 0
-13 -4 -16 -10z"/>
<path d="M778 2173 c7 -3 16 -2 19 1 4 3 -2 6 -13 5 -11 0 -14 -3 -6 -6z"/>
<path d="M1 274 c0 -11 3 -14 6 -6 3 7 2 16 -1 19 -3 4 -6 -2 -5 -13z"/>
<path d="M1 194 c0 -11 3 -14 6 -6 3 7 2 16 -1 19 -3 4 -6 -2 -5 -13z"/>
</g>
</svg>
