<?xml version="1.0" standalone="no"?>
<!DOCTYPE svg PUBLIC "-//W3C//DTD SVG 20010904//EN"
 "http://www.w3.org/TR/2001/REC-SVG-20010904/DTD/svg10.dtd">
<svg version="1.0" xmlns="http://www.w3.org/2000/svg"
 width="613.000000pt" height="177.000000pt" viewBox="0 0 613.000000 177.000000"
 preserveAspectRatio="xMidYMid meet">
<metadata>
Created by potrace 1.16, written by Peter Selinger 2001-2019
</metadata>
<g transform="translate(0.000000,177.000000) scale(0.100000,-0.100000)"
fill="#000000" stroke="none">
<path d="M5356 1713 c-6 -14 -5 -15 5 -6 7 7 10 15 7 18 -3 3 -9 -2 -12 -12z"/>
<path d="M4292 1678 c6 -15 32 -14 -1317 -22 -44 0 -119 3 -167 8 -61 5 -88 4
-88 -3 0 -6 19 -11 42 -11 23 0 39 -2 37 -5 -8 -8 -218 -15 -223 -7 -6 10
-865 0 -1046 -13 -41 -3 -327 -8 -635 -10 -308 -3 -600 -10 -650 -15 -49 -6
-103 -11 -120 -13 -22 -1 -31 -8 -33 -23 -2 -12 -12 -24 -23 -27 -17 -4 -19
-11 -13 -44 8 -54 11 -783 3 -893 -3 -45 -3 -121 0 -238 2 -62 -1 -98 -9 -107
-9 -11 -9 -15 -1 -15 7 0 11 -25 11 -70 l0 -70 48 -23 c26 -12 50 -26 54 -31
4 -6 12 -5 20 2 9 7 48 10 106 8 51 -1 141 1 200 6 161 12 658 17 638 6 -10
-6 -44 -11 -77 -13 -94 -4 -83 -16 13 -14 47 1 91 -1 97 -5 6 -4 19 -3 29 3
10 5 82 11 160 13 111 2 141 0 137 -10 -2 -6 0 -12 4 -12 5 0 11 5 13 11 2 6
111 16 293 25 160 8 310 19 333 25 32 7 48 7 57 -1 10 -8 20 -8 36 1 22 11 36
11 334 -9 61 -4 204 -6 319 -4 163 2 211 0 217 -10 7 -10 11 -10 21 0 14 14
211 16 343 3 44 -4 84 -4 90 1 5 5 1 8 -10 8 -11 0 -27 5 -35 11 -11 8 7 9 65
4 44 -3 173 -6 288 -5 136 0 207 -3 207 -10 0 -13 27 -13 32 0 2 6 165 11 455
13 249 1 453 5 453 10 0 4 16 7 35 7 19 0 35 -4 35 -10 0 -14 30 -12 35 2 4
10 62 13 238 15 127 0 250 2 272 2 22 1 114 -1 204 -3 125 -4 167 -8 178 -19
12 -11 21 -12 43 -4 36 14 42 47 39 237 -2 80 -3 406 -3 725 -1 573 -1 580
-21 581 -11 1 -22 2 -25 3 -7 4 -94 12 -145 14 -22 1 -87 -3 -145 -8 -58 -5
-114 -8 -125 -8 -11 1 -47 2 -79 3 -47 2 -63 7 -77 24 -10 11 -18 15 -19 9 0
-7 5 -13 10 -13 6 0 10 -4 10 -9 0 -10 -68 -8 -112 4 -16 4 -28 11 -28 16 0 5
-5 9 -11 9 -5 0 -7 -4 -4 -10 3 -5 -3 -10 -14 -10 -12 0 -21 5 -21 11 0 5 -5
7 -11 3 -17 -10 -234 -7 -309 5 -66 10 -445 6 -475 -5 -17 -7 -112 0 -159 12
-23 6 -28 4 -24 -8z m328 -52 c0 -7 -4 -16 -9 -21 -6 -6 -16 -46 -24 -90 -8
-44 -15 -72 -16 -63 -2 35 -23 118 -29 118 -4 0 -14 -45 -23 -100 -17 -106
-24 -124 -39 -100 -5 8 -14 15 -20 15 -6 0 -14 5 -18 11 -7 11 -65 44 -77 44
-3 0 -5 -6 -5 -12 1 -15 68 -68 86 -68 25 0 36 -147 24 -329 -4 -74 -4 -144 0
-155 7 -17 9 -14 11 19 1 22 2 49 1 60 -2 37 20 326 26 349 6 19 11 22 30 15
22 -8 22 -9 22 -231 0 -158 3 -219 11 -211 6 6 11 56 12 116 0 59 5 101 9 94
4 -6 8 -25 9 -42 l1 -30 7 30 c13 61 21 -6 21 -185 0 -159 -2 -179 -17 -182
-15 -3 -15 -4 1 -21 21 -21 16 -31 -12 -23 -15 5 -19 15 -18 36 1 19 -3 30
-11 30 -7 0 -10 -6 -6 -16 4 -10 -1 -17 -16 -21 -11 -3 -21 -12 -21 -20 0 -8
-4 -11 -10 -8 -5 3 -10 1 -10 -4 0 -16 21 -13 40 4 15 14 17 12 18 -20 1 -37
-22 -70 -44 -61 -7 3 -15 0 -18 -7 -2 -7 -5 1 -5 16 l-1 29 -67 -2 c-93 -3
-105 -2 -98 11 4 6 13 8 21 5 21 -8 61 9 45 19 -7 4 -16 3 -20 -2 -6 -10 -45
-10 -71 0 -8 3 -33 5 -55 5 -22 0 -89 1 -150 1 -66 1 -111 -3 -113 -9 -2 -5
-15 -10 -28 -10 -15 0 -24 -6 -24 -15 0 -12 -15 -15 -77 -15 -82 0 -89 -12
-20 -36 l32 -11 -39 -8 c-25 -5 -46 -4 -57 4 -11 6 -34 11 -53 11 -19 0 -38 5
-41 10 -3 6 -19 10 -34 10 -15 0 -31 3 -35 8 -4 4 -33 12 -64 18 l-57 11 45 3
c25 2 52 4 60 6 8 1 34 2 58 3 52 1 57 21 5 21 -73 0 -68 17 6 25 39 4 71 11
71 16 0 5 -7 9 -17 9 -9 0 -14 2 -11 5 3 4 17 3 31 0 18 -5 24 -12 20 -22 -5
-13 0 -15 28 -11 19 3 40 7 48 9 7 2 15 -1 18 -7 4 -13 -51 -26 -109 -25 -21
0 -38 -4 -38 -9 0 -6 9 -10 20 -10 11 0 20 -6 20 -12 0 -10 2 -10 8 -1 10 15
152 29 161 15 4 -7 13 -5 26 4 16 12 17 16 6 23 -24 15 3 18 142 16 112 -3
137 -1 137 11 0 11 -20 14 -93 14 -80 0 -97 3 -111 19 -12 13 -14 21 -6 26 17
10 1 25 -27 25 -18 0 -24 -4 -19 -15 3 -9 0 -15 -9 -15 -9 0 -12 6 -9 15 5 12
-3 15 -36 15 -25 0 -39 4 -35 10 3 5 19 10 36 10 16 0 29 4 29 9 0 19 -154 29
-165 11 -4 -6 6 -10 24 -10 35 0 50 -17 24 -27 -10 -4 -21 -11 -25 -17 -4 -6
-14 -4 -27 8 -30 28 -102 23 -74 -5 12 -12 110 -30 163 -31 31 0 32 -1 10 -7
-14 -4 -24 -10 -22 -14 1 -4 0 -7 -3 -7 -3 0 -21 0 -41 0 -19 0 -33 4 -30 9 3
5 -1 12 -10 15 -26 10 -132 7 -139 -4 -3 -5 -17 -10 -30 -10 -13 0 -26 -4 -30
-9 -6 -11 -60 4 -84 23 -11 8 -13 8 -7 -1 9 -15 -12 -16 -66 -4 -20 5 -40 5
-45 1 -4 -5 -17 -10 -28 -13 -11 -3 4 -5 33 -6 32 -1 51 -5 47 -11 -3 -5 -32
-9 -63 -9 -88 2 -466 -12 -474 -18 -5 -2 -8 1 -8 6 0 11 2 12 59 17 18 1 38 7
44 13 6 6 18 11 27 10 10 0 9 -3 -5 -9 -15 -6 271 -7 307 -1 4 0 5 8 2 16 -4
10 -10 12 -18 6 -6 -5 -42 -9 -80 -10 -38 0 -79 -4 -90 -7 -19 -6 -20 -5 -3 7
15 12 11 14 -33 15 -27 1 -56 6 -64 13 -8 7 -27 16 -43 21 -30 9 27 12 217 11
52 0 104 3 115 6 41 14 -39 20 -200 15 -88 -3 -157 -1 -153 3 4 4 70 12 145
16 142 8 253 26 253 42 0 5 -17 6 -37 3 -21 -3 -93 -5 -160 -6 -103 0 -123 -3
-123 -15 0 -11 -11 -15 -40 -15 -36 0 -40 3 -40 24 0 23 3 24 98 31 53 4 129
11 167 15 l70 9 -73 -3 c-50 -2 -72 0 -69 8 2 6 49 15 115 20 62 5 112 13 112
18 0 6 -23 7 -57 3 -134 -15 -259 -21 -270 -13 -6 5 -12 5 -15 -1 -1 -5 -36
-12 -76 -15 l-72 -5 2 94 c1 88 2 93 20 84 19 -10 38 -5 38 10 0 5 -14 11 -31
15 -17 3 -28 10 -24 15 3 5 1 12 -5 16 -5 3 -10 1 -10 -6 0 -8 -4 -8 -15 1
-20 16 -19 25 4 58 24 33 31 74 14 79 -9 3 -13 -6 -13 -26 0 -16 -5 -33 -11
-36 -7 -5 -8 7 -4 39 4 25 5 46 2 46 -7 0 -28 -123 -34 -200 -3 -36 -8 -68
-12 -73 -12 -13 -61 17 -61 38 -1 16 -4 13 -15 -10 -7 -16 -14 -26 -14 -22 -1
5 -6 5 -13 1 -8 -5 -5 -10 9 -15 16 -6 19 -15 17 -46 -1 -21 -2 -51 -3 -68 -1
-17 -5 -25 -9 -19 -8 14 -82 24 -82 11 0 -4 -4 -5 -10 -2 -5 3 -10 19 -10 34
0 31 18 41 73 41 15 0 27 5 27 11 0 5 -5 7 -10 4 -6 -4 -28 -4 -50 0 -37 6
-39 8 -43 48 l-4 42 -1 -46 -2 -46 -52 5 c-29 2 -69 13 -88 22 -20 10 -56 18
-83 17 -35 0 -53 5 -70 21 -13 12 -29 22 -35 22 -8 0 -12 17 -12 46 0 28 -4
43 -10 39 -6 -4 -10 -12 -9 -18 4 -33 -2 -36 -36 -16 -34 20 -34 21 -20 49 8
16 15 47 15 70 0 22 5 40 10 40 6 0 10 5 10 10 0 6 -5 10 -10 10 -15 0 -47
-79 -55 -133 -7 -43 -6 -44 32 -67 21 -12 42 -28 46 -36 4 -8 12 -14 17 -14 5
0 26 -11 46 -25 21 -14 51 -25 70 -25 l34 0 2 -192 c3 -173 -3 -239 -21 -238
-3 0 -15 8 -26 16 -14 11 -16 18 -7 21 6 3 12 13 12 24 0 14 -6 18 -22 15 -15
-2 -22 -9 -20 -20 4 -21 -14 -21 -22 1 -6 15 -8 14 -20 -2 -12 -17 -13 -17
-19 5 -3 13 -11 20 -19 17 -7 -2 -20 0 -30 4 -16 9 -17 11 -4 134 3 28 3 42 0
33 -10 -35 -22 -17 -21 29 1 27 -3 48 -9 50 -8 3 -10 -16 -7 -59 2 -35 6 -68
8 -75 2 -7 0 -26 -6 -42 -8 -22 -18 -31 -45 -35 -19 -4 -34 -11 -34 -16 0 -4
8 -6 18 -4 22 6 38 -6 47 -34 6 -20 4 -23 -15 -20 -15 2 -27 -4 -34 -17 -6
-11 -12 -22 -14 -25 -2 -3 -10 3 -17 14 -12 16 -11 21 8 37 l22 18 -25 2 c-14
1 -31 1 -37 0 -22 -3 -14 34 12 57 26 23 32 46 15 57 -5 3 -10 -3 -10 -14 0
-36 -30 -25 -31 12 l-1 32 -11 -35 c-6 -19 -16 -40 -21 -46 -14 -15 -46 -5
-46 13 0 11 -7 13 -30 8 -16 -4 -30 -4 -30 -2 0 15 51 111 62 118 8 5 -17 9
-60 9 -46 0 -71 4 -67 10 3 5 23 10 43 10 27 0 33 3 22 10 -13 8 -137 4 -167
-5 -7 -3 -13 -1 -13 4 0 5 10 12 23 16 18 6 19 8 5 12 -14 4 -17 13 -14 51 1
26 7 46 12 45 5 -1 50 -17 99 -36 50 -19 104 -37 120 -39 17 -3 24 -3 17 -1
-8 3 -10 12 -7 24 4 10 2 19 -3 19 -6 0 -12 -5 -14 -11 -4 -13 -66 6 -161 48
-52 24 -57 29 -53 52 3 14 8 54 11 89 8 68 16 75 59 41 23 -18 38 -20 124 -18
80 2 101 6 120 23 12 11 22 27 22 36 0 25 -55 60 -92 59 l-33 -1 31 -11 c17
-7 41 -19 53 -27 19 -13 20 -18 9 -33 -7 -10 -31 -19 -53 -22 -22 -2 -33 -2
-24 1 10 3 20 13 23 22 3 9 9 23 12 30 3 7 -1 12 -9 12 -9 0 -19 -9 -22 -20
-8 -26 -25 -26 -25 0 0 22 -12 25 -41 10 -27 -15 -24 -37 9 -48 26 -10 26 -10
-13 -11 -23 -1 -61 9 -88 21 l-48 23 7 100 c11 160 12 185 5 190 -15 9 -32
-15 -58 -85 -20 -51 -36 -78 -51 -85 -28 -13 -29 -25 0 -17 18 4 20 2 15 -19
-4 -13 -12 -50 -19 -81 -7 -32 -16 -58 -21 -58 -4 0 -5 4 -2 10 3 5 1 10 -4
10 -6 0 -11 -16 -11 -35 0 -19 -1 -35 -3 -35 -2 0 -25 20 -50 45 l-47 45 20
39 c10 22 32 49 47 62 25 20 22 21 -21 3 -12 -5 -12 2 1 43 8 26 17 59 20 73
3 21 1 19 -16 -10 -11 -19 -20 -44 -21 -55 0 -11 -6 -38 -12 -60 -12 -40 -12
-40 -18 46 -6 99 -21 130 -51 103 -10 -9 -21 -30 -25 -48 -3 -17 -11 -42 -17
-56 -12 -30 -19 -95 -9 -85 4 3 16 41 28 83 26 99 48 109 59 27 6 -52 5 -58
-17 -73 -12 -9 -33 -27 -44 -39 -12 -13 -26 -23 -33 -23 -6 0 -11 -4 -11 -8 0
-11 -24 -39 -93 -112 -29 -30 -67 -72 -84 -92 -21 -25 -41 -38 -57 -38 -59 0
-40 48 84 214 57 76 103 148 104 160 1 12 8 20 15 18 7 -1 19 3 27 9 16 13 19
39 3 39 -18 0 -100 -83 -98 -99 2 -28 -1 -37 -19 -57 -9 -10 -35 -44 -57 -74
-21 -30 -50 -68 -63 -84 l-23 -29 7 29 c4 16 39 66 77 112 38 45 67 85 65 88
-3 3 -28 -21 -54 -53 -27 -32 -51 -60 -54 -63 -42 -43 -54 -64 -52 -93 2 -22
-6 -44 -23 -67 l-26 -35 3 33 c1 18 10 40 20 49 10 9 18 21 18 27 -1 6 -19 -9
-40 -34 -22 -25 -40 -41 -40 -37 0 13 37 64 101 141 14 17 45 58 69 91 24 33
50 66 57 73 7 8 18 23 24 34 10 18 9 18 -10 8 -28 -15 -27 1 2 20 22 14 27 16
47 19 13 1 13 31 1 31 -5 0 -12 -6 -15 -12 -3 -7 -4 1 0 17 3 17 13 41 22 55
17 25 17 25 21 -35 2 -35 6 -53 10 -42 3 10 4 41 1 70 -7 69 -32 76 -53 15
-11 -29 -16 -36 -16 -20 -1 20 -11 27 -33 23 -16 -2 -7 16 19 41 26 24 34 26
108 25 77 -2 80 -3 78 -24 -2 -13 2 -23 7 -23 6 0 10 11 10 24 l0 24 162 7
c155 7 674 10 1043 6 94 0 206 4 250 9 75 10 387 14 465 6 19 -2 100 0 180 5
323 18 520 17 678 -5 27 -4 33 -2 28 9 -8 21 11 18 23 -3 10 -19 24 -101 23
-139 0 -13 4 -23 9 -23 18 0 7 107 -16 162 -6 15 2 17 62 20 115 5 213 -2 213
-16z m552 13 c-25 -4 -60 -4 -80 0 -31 8 -23 9 43 9 72 0 75 -1 37 -9z m-258
-12 c17 -8 47 -13 66 -12 41 4 80 -4 80 -15 0 -5 -10 -10 -22 -12 -12 -2 -24
-9 -26 -17 -3 -10 0 -12 14 -7 33 13 38 11 42 -13 2 -13 12 -37 23 -55 19 -31
19 -31 19 -6 0 15 -4 30 -9 35 -5 6 -12 29 -16 52 l-7 42 77 0 c71 0 77 -2 72
-20 -3 -10 -1 -19 4 -19 5 0 9 9 9 21 0 18 4 20 33 14 17 -4 38 -12 45 -17 6
-6 12 -7 12 -2 0 5 7 0 15 -10 15 -19 15 -19 15 3 0 16 5 21 17 19 16 -3 25
-17 52 -78 10 -21 10 -18 6 23 -5 37 -3 47 8 47 19 0 28 -25 15 -38 -6 -6 -8
-18 -5 -26 7 -17 37 -22 37 -6 0 6 6 10 13 10 15 0 40 -37 32 -49 -3 -5 2 -11
10 -15 10 -3 15 -19 15 -46 0 -22 4 -40 10 -40 6 0 8 26 5 66 -3 36 -1 74 5
84 7 14 5 19 -9 23 -11 2 -24 0 -29 -5 -15 -15 -62 2 -62 23 0 14 7 19 28 19
15 0 80 2 144 4 65 2 115 -1 112 -5 -3 -5 -18 -9 -35 -9 -16 0 -29 -5 -29 -12
0 -6 -10 -22 -22 -35 -26 -28 -16 -43 12 -18 19 17 21 17 41 -1 19 -17 20 -26
14 -88 -4 -47 -3 -66 4 -61 6 3 11 22 11 41 0 24 4 33 12 28 18 -11 2 65 -18
87 -15 17 -13 24 9 20 4 0 7 4 7 9 0 6 4 10 9 10 9 0 34 -54 34 -76 0 -7 4
-11 9 -8 13 8 9 32 -13 75 -11 23 -18 43 -15 46 11 11 37 -7 48 -34 7 -15 17
-31 22 -34 5 -4 6 -11 3 -16 -3 -5 -1 -15 4 -23 8 -11 9 -2 5 29 -4 27 -2 49
5 57 14 17 -2 19 -19 2 -9 -9 -12 -7 -12 10 0 18 5 22 33 21 17 0 41 -4 52 -8
11 -5 30 -5 41 0 12 4 31 5 42 2 17 -4 21 -12 19 -43 -1 -31 -4 -37 -14 -28
-10 8 -13 6 -13 -6 0 -9 5 -16 10 -16 7 0 10 -37 10 -102 -2 -154 -11 -272
-21 -257 -4 7 -11 11 -14 8 -8 -9 6 -40 15 -34 12 7 17 -49 16 -178 -1 -88 -4
-120 -15 -126 -9 -6 -10 -10 -2 -16 7 -4 11 -30 10 -63 -1 -32 2 -64 6 -73 3
-10 1 -20 -6 -25 -9 -5 -10 -2 -6 10 6 16 0 17 -61 12 -37 -3 -71 -5 -77 -6
-5 0 -3 -5 5 -10 9 -6 10 -10 3 -10 -6 0 -15 5 -18 10 -6 10 -79 5 -97 -6 -5
-3 -11 3 -15 13 -4 10 -14 24 -22 30 -13 11 -8 12 29 10 25 -1 48 -6 52 -12 5
-6 8 -4 9 5 0 10 3 8 9 -5 7 -18 9 -18 15 -4 4 11 -4 27 -24 48 -21 21 -31 27
-31 16 0 -8 5 -15 10 -15 6 0 10 -4 10 -10 0 -5 -14 -10 -30 -10 -19 0 -30 5
-29 13 4 30 -3 121 -8 107 -3 -8 -11 -18 -16 -22 -7 -4 -7 -11 0 -20 16 -20
13 -77 -4 -71 -7 3 -13 11 -13 19 0 16 -9 18 -30 4 -10 -6 -11 -10 -2 -10 6 0
12 -10 12 -22 0 -19 -2 -20 -11 -8 -9 12 -10 11 -6 -7 7 -32 -7 -29 -20 5 -11
27 -11 27 -12 -11 -1 -36 0 -37 27 -31 21 4 24 3 12 -5 -8 -6 -32 -11 -52 -11
-34 0 -37 -2 -35 -28 2 -24 -2 -27 -28 -27 -16 -1 -28 -5 -25 -10 5 -10 13
-12 95 -15 28 -1 41 -5 30 -7 -11 -3 -24 -12 -30 -20 -7 -10 -25 -13 -55 -11
-43 4 -44 4 -20 16 23 11 21 12 -17 6 l-41 -5 2 53 c1 38 6 53 16 55 84 11 90
13 89 41 -1 20 -3 22 -6 6 -3 -17 -10 -20 -46 -17 -67 5 -127 -6 -127 -23 0
-12 4 -12 20 -2 23 14 27 11 32 -22 2 -19 -1 -25 -17 -25 -11 0 -19 6 -18 13
3 14 -14 17 -19 3 -1 -5 -22 -12 -45 -16 -42 -7 -43 -6 -43 20 0 23 3 26 21
22 28 -8 49 2 42 19 -3 9 2 14 16 14 24 0 28 15 6 24 -24 9 -17 26 10 26 19 0
26 7 31 28 10 46 11 48 22 22 10 -23 11 -24 17 -5 5 17 13 20 56 17 31 -3 49
0 49 7 0 6 -4 11 -9 11 -5 0 -11 11 -13 24 -3 16 -1 23 7 20 7 -3 15 4 18 15
3 12 1 21 -3 21 -4 0 -6 9 -3 21 5 17 2 20 -13 17 -14 -2 -20 -13 -22 -46 -2
-23 -8 -42 -13 -42 -6 0 -8 -8 -4 -19 4 -15 1 -18 -18 -14 -19 4 -23 11 -24
39 -1 23 4 34 13 34 8 0 14 5 14 10 0 6 -7 10 -16 10 -8 0 -13 4 -10 8 2 4 1
14 -5 22 -7 12 -9 10 -9 -7 0 -12 -4 -25 -10 -28 -5 -3 -10 -17 -10 -30 0 -24
-20 -35 -53 -27 -14 4 -17 13 -16 48 2 24 0 47 -4 50 -4 4 -7 -1 -7 -10 0 -12
-5 -16 -15 -12 -8 3 -28 3 -44 0 -22 -5 -27 -10 -24 -25 6 -23 26 -25 43 -5 6
8 18 12 26 9 19 -7 18 -23 -2 -23 -10 0 -13 -6 -10 -18 5 -14 -1 -17 -32 -18
-50 -1 -61 17 -60 103 0 39 -3 77 -7 82 -3 7 2 11 14 11 19 0 21 -6 21 -55 0
-30 4 -55 9 -55 12 0 20 59 9 66 -12 8 11 34 28 34 10 0 14 -13 14 -44 0 -25
5 -48 10 -51 6 -4 8 8 5 32 -2 21 -2 32 1 26 9 -20 24 -15 24 7 0 11 5 20 10
20 6 0 10 -8 10 -17 0 -13 2 -15 8 -5 10 16 62 -1 62 -19 0 -7 8 -5 19 5 11
10 30 17 43 16 60 -5 158 1 158 10 0 6 -19 10 -42 10 -39 0 -47 11 -10 15 9 1
25 6 35 10 14 6 16 10 6 16 -8 4 -20 3 -28 -4 -8 -7 -16 -11 -18 -9 -11 8 -33
0 -33 -13 0 -24 -26 -17 -27 8 -1 12 -5 32 -7 43 -5 19 -1 22 39 22 35 1 45
-2 45 -15 0 -11 4 -13 13 -5 6 5 35 13 64 17 48 6 52 5 55 -17 l4 -23 11 26
c12 27 52 46 54 26 0 -7 5 -3 10 8 6 13 8 -32 6 -129 l-2 -150 29 -7 c25 -7
27 -5 23 12 -3 10 -1 22 4 25 13 7 11 84 -1 84 -6 0 -10 -6 -9 -12 5 -40 -2
-78 -15 -78 -8 0 -16 7 -20 15 -3 8 -2 15 3 15 14 0 7 328 -7 342 -15 15 -17
-9 -3 -46 11 -29 2 -40 -44 -50 -16 -4 -25 -3 -19 1 6 4 14 26 17 48 4 27 3
35 -3 25 -8 -12 -10 -12 -10 -1 0 11 -10 12 -45 8 -25 -4 -45 -3 -45 2 0 4
-11 6 -25 3 -15 -2 -25 0 -25 7 0 9 61 17 73 9 1 0 16 6 33 15 17 9 34 13 38
10 3 -4 6 3 6 15 0 27 -8 31 -71 37 -64 7 -69 10 -69 43 -1 31 -25 69 -34 53
-4 -5 1 -14 10 -19 10 -6 14 -19 12 -38 -2 -23 -10 -30 -40 -39 -50 -14 -60
-27 -18 -24 19 2 35 -1 35 -6 0 -11 -26 -12 -74 -2 -32 7 -33 6 -28 -19 3 -19
1 -24 -10 -20 -8 3 -23 6 -34 6 -12 0 -19 7 -19 20 0 24 -25 27 -34 4 -3 -8 0
-25 6 -37 7 -12 13 -35 14 -50 1 -24 -1 -27 -20 -22 -17 5 -18 4 -6 -5 13 -9
12 -12 -5 -26 -20 -15 -20 -13 -26 83 l-5 98 -2 -95 c-2 -94 -10 -120 -39
-120 -8 0 -14 14 -15 38 l-1 37 -4 -35 c-5 -37 -23 -56 -35 -37 -4 7 -8 33 -8
60 0 40 3 47 20 47 11 0 20 -6 20 -12 0 -9 3 -9 9 1 7 11 10 9 14 -10 2 -13 2
-6 -1 16 -3 22 -4 82 -3 133 l3 92 -61 -5 -60 -6 5 58 c7 74 -12 51 -20 -25
l-6 -53 28 3 27 3 3 -88 c2 -80 1 -88 -15 -85 -15 3 -18 16 -21 81 -4 102 -24
100 -26 -3 -1 -63 -4 -75 -18 -78 -15 -3 -18 4 -18 43 0 28 -4 44 -10 40 -6
-4 -10 -56 -10 -125 0 -113 -1 -118 -20 -113 -17 5 -20 14 -20 59 0 30 -4 54
-10 54 -5 0 -10 -23 -10 -51 l0 -50 -40 4 c-22 2 -42 6 -43 8 -1 2 -12 22 -24
44 l-21 40 24 30 c14 17 40 46 57 65 18 20 38 45 44 55 12 18 12 17 7 -7 -4
-18 -2 -28 5 -28 16 0 13 49 -4 66 -8 9 -15 26 -15 40 0 13 -5 24 -11 24 -6 0
-8 -13 -5 -30 5 -32 -33 -113 -59 -127 -7 -5 -25 -25 -40 -47 -24 -35 -25 -42
-13 -70 7 -17 10 -31 8 -31 -3 0 3 -11 13 -25 13 -19 17 -45 17 -117 0 -51 -4
-93 -9 -93 -5 0 -16 -3 -24 -6 -10 -3 -17 2 -20 13 -4 17 -7 -10 -10 -119 -2
-36 -6 -48 -18 -48 -13 0 -15 14 -12 98 1 53 3 104 4 112 3 50 -5 150 -12 143
-5 -5 -9 -85 -10 -178 0 -95 -5 -175 -10 -181 -7 -8 -6 -14 1 -19 11 -7 14
-45 3 -45 -26 1 -34 20 -31 78 1 38 -2 66 -10 74 -15 15 -17 92 -2 83 6 -3 10
-1 10 4 0 6 -4 11 -9 11 -4 0 -5 21 -1 48 4 26 8 83 9 127 1 44 6 115 12 157
11 76 7 136 -4 68 -20 -117 -21 -118 -27 -10 -3 58 -5 131 -4 163 0 31 -2 57
-6 57 -4 0 -10 14 -14 32 -8 41 -23 58 -51 58 -18 0 -26 -11 -43 -57 -11 -32
-25 -88 -31 -124 -11 -66 -15 -217 -6 -207 3 3 9 58 15 124 7 99 34 223 45
212 2 -2 -3 -120 -11 -263 -7 -143 -14 -338 -14 -434 0 -96 -3 -172 -6 -168
-3 3 -6 108 -7 234 -1 172 -2 202 -7 123 -6 -111 -12 -85 -14 67 0 50 -4 86
-9 80 -4 -7 -6 -135 -5 -285 2 -230 0 -275 -12 -282 -22 -14 -33 -12 -26 6 3
9 3 21 -1 27 -4 7 -9 33 -11 60 -2 36 1 49 12 53 9 3 13 10 10 15 -3 5 -9 7
-14 4 -7 -4 -6 219 1 400 3 54 -4 71 -38 96 -24 18 -32 32 -33 54 0 46 28 190
44 230 23 54 43 44 38 -20 -2 -17 0 -17 8 -5 9 13 11 13 20 0 7 -11 10 -8 10
17 0 17 -4 35 -10 38 -24 15 -3 20 91 23 73 2 110 -1 133 -11z m-79 -172 c-12
-82 -14 -115 -5 -115 6 0 10 -5 10 -11 0 -5 -4 -7 -10 -4 -6 4 -10 -34 -9
-107 1 -84 3 -103 9 -73 4 22 6 63 3 91 -4 33 -1 54 6 58 8 5 11 -18 10 -81 0
-82 -15 -200 -18 -144 0 13 -4 22 -7 18 -3 -3 -5 -96 -5 -206 2 -188 1 -200
-16 -195 -17 5 -17 5 0 -9 20 -16 23 -47 5 -47 -8 -1 -6 -6 4 -14 22 -16 13
-26 -23 -26 -34 0 -48 17 -17 22 l23 3 -22 23 c-20 19 -21 22 -5 22 14 0 14 2
3 9 -28 18 -8 842 21 878 5 7 7 17 3 23 -3 5 -3 16 1 22 11 18 45 -100 39
-137z m-3792 124 c111 2 127 1 127 -13 0 -20 19 -21 26 -1 4 9 19 15 42 15
l35 0 -20 -22 c-11 -13 -25 -32 -31 -43 -10 -18 -11 -17 -12 10 -1 29 -2 28
-70 -45 l-70 -74 0 41 c0 33 5 45 27 61 18 13 24 25 20 36 -6 14 -10 15 -29 4
-22 -12 -28 -14 -55 -17 -7 0 -17 -19 -23 -42 -9 -34 -14 -38 -26 -29 -8 7
-14 19 -14 26 0 30 -7 23 -113 -101 l-26 -30 6 50 c6 52 19 79 34 69 5 -3 9 2
9 10 0 8 8 19 17 25 14 8 15 12 4 25 -18 21 -31 20 -31 -2 0 -10 -15 -33 -34
-51 -19 -19 -34 -41 -34 -50 1 -21 -21 -133 -27 -139 -3 -3 -5 19 -5 48 0 37
6 60 18 73 16 19 16 20 0 14 -29 -10 -22 33 12 80 17 23 26 44 21 47 -5 3 -14
-1 -21 -9 -19 -22 -30 -18 -21 8 7 18 18 23 62 27 30 3 59 3 64 0 6 -2 67 -3
138 -1z m-407 -21 c-22 -31 -20 -45 4 -23 19 18 20 17 20 -4 0 -14 4 -20 12
-15 7 5 9 2 6 -8 -4 -8 -3 -20 2 -27 4 -7 3 -29 -2 -50 -5 -20 -10 -61 -11
-92 -1 -31 -7 -62 -14 -70 -12 -15 -7 -59 6 -59 4 0 5 -16 3 -35 -3 -21 -8
-32 -15 -28 -5 3 -7 1 -4 -4 4 -6 -2 -22 -13 -34 l-19 -24 -1 33 c0 20 -4 31
-10 27 -5 -3 -10 -21 -10 -38 0 -18 -5 -39 -10 -47 -7 -11 -10 -7 -10 19 0 19
-2 32 -5 29 -4 -4 -12 -52 -14 -84 -1 -6 -14 -28 -31 -49 l-30 -38 0 39 c-1
39 -1 39 -14 14 -10 -17 -11 -30 -5 -42 10 -19 -1 -42 -55 -110 -28 -37 -31
-58 -4 -42 16 10 48 13 48 5 0 -4 -7 -17 -16 -29 -12 -17 -24 -22 -50 -20 -19
1 -34 6 -34 10 0 4 -11 8 -25 8 -14 0 -25 -4 -25 -10 0 -5 7 -10 15 -10 9 0
12 -6 9 -15 -7 -18 7 -20 24 -3 9 9 12 8 12 -7 0 -18 0 -18 13 0 8 10 16 14
19 9 3 -5 -7 -25 -23 -44 -16 -19 -29 -29 -29 -22 0 7 -5 12 -11 12 -8 0 -8
-5 1 -15 17 -21 37 -19 43 5 3 14 14 20 31 20 23 0 25 -3 17 -17 -6 -10 -27
-36 -48 -58 -65 -70 -93 -112 -86 -130 5 -13 2 -16 -13 -12 -51 15 -104 18
-124 7 -15 -8 -25 -9 -33 -1 -15 15 -20 131 -6 131 8 0 8 4 -1 15 -9 11 -11
32 -6 70 3 30 2 55 -2 55 -5 0 -5 26 0 57 6 39 5 65 -3 84 -6 15 -8 40 -5 56
3 15 7 52 8 82 2 49 4 55 39 78 42 28 49 40 39 67 -5 14 -9 16 -14 7 -5 -7 -5
-15 -2 -18 5 -6 -37 -43 -49 -43 -3 0 -5 10 -3 23 2 12 9 21 15 20 6 -1 14 9
17 22 4 14 10 25 15 25 13 0 142 132 136 139 -4 3 -11 -1 -16 -9 -8 -11 -12
-12 -16 -2 -8 19 -23 14 -23 -9 0 -22 -36 -58 -57 -59 -7 0 -13 -6 -14 -12 0
-7 -16 -26 -34 -41 l-34 -28 3 38 c2 21 4 48 5 61 0 14 8 22 19 22 9 1 30 12
47 25 27 22 29 29 30 97 0 40 5 86 10 103 7 26 9 27 15 10 4 -11 3 -28 -2 -39
-7 -13 -6 -21 3 -27 8 -5 10 -9 4 -9 -5 0 -4 -4 4 -9 12 -8 12 -12 -2 -26 -18
-18 -24 -50 -7 -40 6 3 10 -3 10 -14 0 -39 28 -10 35 36 5 34 3 49 -10 62 -14
17 -14 19 0 31 9 8 14 21 12 31 -3 12 3 19 20 24 33 8 40 0 20 -23 -23 -25
-21 -32 8 -32 17 0 25 5 25 18 0 19 18 42 32 42 5 0 4 -9 -2 -19 -13 -25 -13
-64 0 -56 6 3 10 17 10 29 0 35 23 50 64 40 l35 -9 -20 -24 c-16 -19 -19 -20
-19 -6 0 14 -3 15 -15 5 -12 -10 -15 -10 -15 1 0 10 -3 10 -12 1 -10 -10 -10
-17 -1 -31 10 -15 8 -22 -13 -40 -13 -11 -24 -29 -24 -38 0 -13 7 -10 28 13
15 17 32 38 37 47 11 17 55 33 55 19 0 -4 -12 -23 -27 -40 -16 -17 -37 -43
-48 -56 -11 -14 -25 -25 -32 -26 -7 0 -17 -9 -23 -21 -21 -39 -1 -31 42 16 24
26 55 59 71 73 15 14 27 34 27 44 0 11 4 17 9 13 15 -9 24 15 11 30 -15 18 -5
35 21 35 17 0 18 -3 9 -21 -19 -34 -1 -35 33 -1 38 38 67 45 43 10z m114 -4
c-6 -14 -10 -33 -10 -42 0 -15 2 -15 10 -2 9 13 10 13 11 0 6 -86 -18 -174
-32 -119 -5 20 -7 17 -16 -21 -12 -54 -7 -62 17 -32 10 12 21 22 23 22 3 0 4
-22 2 -50 -3 -38 -12 -60 -39 -96 l-36 -47 6 79 c3 43 7 119 9 168 3 68 7 91
19 98 21 12 21 42 1 34 -10 -4 -15 1 -15 14 0 15 7 20 30 20 28 0 29 -2 20
-26z m4977 4 c-3 -8 -6 -5 -6 6 -1 11 2 17 5 13 3 -3 4 -12 1 -19z m-5547 -8
c0 -11 -4 -20 -9 -20 -11 0 -22 26 -14 34 12 12 23 5 23 -14z m4374 -112 c7
-96 5 -106 -23 -89 -11 7 -11 23 0 99 7 51 14 91 15 89 1 -1 4 -46 8 -99z
m-3252 32 c6 -32 2 -39 -40 -83 -26 -27 -55 -53 -65 -58 -17 -9 -18 -7 -11 28
3 21 20 64 37 95 24 43 36 57 52 55 14 -1 22 -12 27 -37z m-169 -63 c-22 -29
-45 -63 -52 -75 -7 -13 -15 -21 -18 -18 -11 11 7 52 39 88 18 20 40 46 48 58
8 11 16 16 18 10 2 -6 -14 -34 -35 -63z m-170 15 c-18 -18 -36 -53 -30 -58 2
-3 16 9 31 26 14 17 26 28 26 24 0 -6 -71 -114 -75 -114 -1 0 1 28 3 61 3 44
11 69 26 86 18 22 21 22 27 6 3 -10 0 -24 -8 -31z m230 21 c-11 -17 -18 -48
-19 -85 -2 -57 -3 -60 -64 -125 -34 -36 -80 -90 -103 -120 -23 -29 -44 -48
-46 -42 -2 6 6 20 16 32 11 12 27 33 36 47 9 14 31 45 48 70 98 139 112 161
106 166 -3 3 -33 -34 -66 -83 -98 -141 -130 -186 -138 -192 -4 -3 -21 -25 -37
-49 -16 -23 -31 -40 -34 -37 -3 2 0 10 6 17 5 7 8 34 6 60 -3 44 0 52 44 105
26 32 59 74 72 93 20 28 25 31 28 17 2 -10 -4 -29 -13 -43 -9 -14 -14 -28 -11
-31 7 -7 46 35 46 49 0 12 73 108 82 108 4 0 8 5 8 12 0 10 38 58 47 58 2 0
-4 -12 -14 -27z m-1048 -31 c1 -21 5 -43 8 -49 8 -13 -20 -39 -30 -29 -8 8 -6
104 3 118 10 16 17 0 19 -40z m1621 -18 c-4 -13 -13 -24 -21 -24 -19 0 -19 12
2 58 15 34 17 35 21 13 2 -12 1 -34 -2 -47z m-716 22 c0 -27 -10 -44 -50 -86
-29 -31 -49 -59 -46 -67 3 -8 2 -12 -3 -9 -11 7 -35 -20 -28 -32 3 -4 2 -14
-2 -20 -5 -8 -8 3 -9 26 -1 29 6 49 30 82 27 37 33 40 39 24 5 -15 9 -9 19 25
10 37 37 89 48 91 1 0 2 -15 2 -34z m4318 -86 c-2 -68 -6 -85 -19 -88 -9 -1
-16 3 -16 10 0 7 -3 45 -6 84 -7 77 -5 83 24 81 18 -1 19 -8 17 -87z m-4488
19 c-4 -23 -14 -48 -22 -56 -28 -27 -29 21 -2 61 14 20 26 36 28 36 2 0 0 -18
-4 -41z m-69 -16 c-9 -16 -10 -16 -11 -1 0 9 3 25 7 35 7 16 8 17 11 1 2 -10
-1 -25 -7 -35z m459 32 c0 -9 -131 -189 -150 -205 -3 -3 -21 -25 -39 -50 -30
-40 -33 -42 -29 -17 3 15 1 27 -3 27 -5 0 -9 -15 -9 -33 0 -37 -54 -116 -80
-118 -8 0 -23 -2 -32 -4 -10 -2 -18 -1 -18 1 0 18 129 170 262 309 43 44 78
83 78 88 0 4 5 7 10 7 6 0 10 -2 10 -5z m487 -67 c-3 -35 -7 -72 -10 -83 -3
-11 -8 -59 -12 -107 -4 -49 -10 -88 -13 -88 -13 0 -72 43 -72 52 0 38 64 265
78 276 29 22 34 13 29 -50z m-417 27 c-7 -9 -15 -13 -18 -10 -3 2 1 11 8 20 7
9 15 13 18 10 3 -2 -1 -11 -8 -20z m3147 -52 c-2 -16 -4 -5 -4 22 0 28 2 40 4
28 2 -13 2 -35 0 -50z m-3677 -33 c-11 -21 -30 -27 -30 -10 0 6 8 27 17 48 17
37 17 37 20 10 3 -15 -1 -36 -7 -48z m4983 63 c11 -10 -49 -32 -72 -26 -12 3
-18 9 -15 14 3 5 16 6 30 3 14 -4 24 -2 24 5 0 12 23 15 33 4z m-1193 -25 c0
-5 9 -23 21 -39 23 -32 19 -83 -7 -93 -8 -3 -14 -12 -14 -21 0 -8 -4 -15 -8
-15 -5 0 -10 43 -11 96 -1 65 1 94 8 89 6 -3 11 -11 11 -17z m-3745 -57 c-8
-17 -19 -31 -23 -31 -4 0 -18 -18 -32 -40 -28 -47 -39 -51 -32 -12 7 38 32 74
48 68 7 -3 16 5 20 17 3 12 11 28 17 36 18 22 20 -5 2 -38z m665 36 c0 -7 -7
-22 -15 -33 -18 -24 -19 -50 -1 -57 20 -8 9 -45 -22 -79 -14 -16 -30 -24 -40
-21 -10 4 -13 2 -10 -8 7 -19 -10 -49 -27 -49 -8 0 -15 3 -15 6 0 8 52 76 78
102 42 41 17 47 -28 6 -37 -34 -42 -36 -35 -15 5 16 4 21 -4 17 -6 -4 -11 -3
-11 3 0 5 3 11 8 13 4 2 29 31 56 66 48 61 66 74 66 49z m-850 -7 c0 -5 -5
-10 -11 -10 -5 0 -7 5 -4 10 3 6 8 10 11 10 2 0 4 -4 4 -10z m4990 0 c0 -12
-27 -12 -55 0 -16 7 -13 9 18 9 20 1 37 -3 37 -9z m27 -12 c-3 -8 -6 -5 -6 6
-1 11 2 17 5 13 3 -3 4 -12 1 -19z m-4797 -23 c0 -14 -4 -25 -9 -25 -4 0 -6
11 -3 25 2 14 6 25 8 25 2 0 4 -11 4 -25z m4420 -61 c0 -50 -3 -64 -15 -64 -8
0 -15 6 -16 13 0 6 -4 2 -10 -11 -6 -17 -15 -22 -31 -20 -21 3 -23 9 -26 69
-2 55 0 68 14 73 22 8 22 9 26 -43 2 -25 9 -46 15 -48 9 -3 11 11 8 50 -4 51
-3 55 15 50 17 -5 20 -14 20 -69z m373 60 c31 -4 57 -10 57 -15 0 -5 6 -7 13
-5 49 16 67 16 67 1 0 -9 -7 -27 -16 -40 -20 -30 -54 -34 -54 -6 0 35 -20 34
-21 -1 -1 -31 -1 -32 -9 -8 -8 24 -8 24 -9 2 -1 -19 -5 -22 -28 -17 -16 4 -56
6 -90 5 -34 0 -64 4 -68 10 -3 5 -2 10 3 10 5 0 19 9 32 20 13 11 30 20 39 20
10 0 12 3 4 11 -7 7 -20 4 -44 -10 -45 -27 -49 -27 -49 10 l0 31 58 -6 c31 -3
83 -8 115 -12z m-4952 -68 c-12 -19 -28 -39 -36 -46 -13 -11 -15 -8 -15 18 0
17 4 32 8 34 4 2 19 19 32 38 23 33 25 34 28 12 2 -12 -6 -37 -17 -56z m115
-8 c-13 -19 -16 -19 -16 -5 0 9 6 26 13 37 9 16 13 17 15 6 2 -9 -4 -26 -12
-38z m547 20 c-108 -136 -149 -184 -161 -186 -8 -2 -13 1 -11 6 6 16 173 201
178 197 2 -3 -1 -10 -6 -17z m-533 -38 c-12 -16 -24 -30 -26 -30 -3 0 4 14 16
30 12 17 24 30 26 30 3 0 -4 -13 -16 -30z m722 -9 c22 -23 38 -49 38 -63 0
-18 -2 -20 -10 -8 -8 12 -15 9 -43 -18 -54 -53 -57 -46 -41 86 3 23 8 42 11
42 3 0 23 -18 45 -39z m-786 -30 c-32 -32 -35 -10 -3 28 16 20 23 24 25 13 2
-8 -8 -26 -22 -41z m-46 26 c0 -13 -18 -48 -40 -77 -39 -52 -40 -53 -40 -24 0
30 16 60 53 102 25 27 27 27 27 -1z m136 -18 c-3 -17 -15 -44 -27 -60 -11 -16
-19 -35 -16 -42 3 -6 10 2 17 18 10 24 14 26 17 12 7 -27 -43 -87 -73 -87 -13
0 -24 -5 -24 -11 0 -6 7 -9 15 -5 9 3 15 0 15 -9 0 -9 -10 -15 -25 -15 -22 0
-25 4 -25 33 0 33 41 103 53 91 3 -4 3 -19 0 -35 -3 -18 -1 -29 5 -29 17 0 20
13 13 55 -6 35 -3 45 22 78 35 45 41 46 33 6z m502 3 c-2 -15 -17 -46 -33 -69
-23 -33 -36 -43 -59 -43 l-28 0 28 33 c16 19 42 50 58 70 15 20 30 37 33 37 2
0 3 -12 1 -28z m4086 19 c3 -5 -2 -11 -12 -14 -9 -2 -25 -8 -34 -12 -13 -5
-18 -2 -18 10 0 11 5 15 15 11 8 -3 15 -1 15 4 0 12 27 13 34 1z m-4816 -30
c-1 -16 -15 -44 -30 -63 -27 -33 -27 -33 -28 -8 0 26 7 40 37 77 23 28 24 28
21 -6z m4920 -16 c-2 -42 -4 -45 -31 -45 -16 0 -26 4 -22 10 3 6 0 10 -9 10
-8 0 -16 -5 -18 -11 -2 -6 -14 -8 -31 -4 -21 6 -27 13 -25 28 2 11 9 22 16 25
7 2 10 -2 6 -11 -3 -8 -1 -18 5 -21 6 -4 13 5 17 19 7 30 29 44 66 45 26 0 27
-2 26 -45z m-2698 -76 l0 -100 -31 17 c-25 13 -30 20 -24 37 4 12 7 33 7 47 0
14 2 44 4 66 4 36 8 41 24 37 18 -5 20 -15 20 -104z m2520 90 c0 -5 -4 -9 -10
-9 -5 0 -10 7 -10 16 0 8 5 12 10 9 6 -3 10 -10 10 -16z m-30 -4 c0 -8 -9 -15
-20 -15 -13 0 -18 5 -14 15 4 8 12 15 20 15 8 0 14 -7 14 -15z m-3902 -48
c-18 -25 -39 -46 -47 -46 -11 -1 -11 3 2 17 10 10 17 22 17 26 0 8 54 56 58
51 2 -2 -12 -23 -30 -48z m3650 41 c16 1 22 -4 22 -18 0 -10 5 -22 11 -26 8
-5 10 1 7 20 -6 29 -6 28 16 20 11 -4 16 -19 16 -48 0 -41 18 -88 21 -56 1 8
1 32 0 53 -2 32 0 37 18 37 28 0 29 -6 34 -122 3 -97 3 -98 -20 -98 -20 0 -23
5 -23 40 0 23 -5 40 -11 40 -7 0 -10 -12 -7 -30 4 -24 1 -30 -14 -30 -12 0
-18 8 -19 23 -2 22 -2 22 -6 1 -4 -21 -29 -34 -63 -34 -13 0 -13 1 0 10 9 6
10 10 3 10 -8 0 -12 26 -12 87 0 52 -5 90 -12 97 -8 8 -10 -20 -7 -116 l5
-128 -41 6 c-31 4 -37 3 -26 -5 13 -10 13 -12 0 -20 -22 -15 -30 -3 -30 45 0
31 4 44 14 44 8 0 22 3 31 6 9 4 15 3 14 -2 -4 -25 2 -54 11 -49 6 4 8 10 6
14 -3 4 -7 61 -10 125 l-5 118 27 -7 c15 -4 37 -7 50 -7z m-4308 -6 c0 -4 -11
-23 -25 -42 -14 -19 -25 -27 -25 -19 0 8 10 26 23 41 24 30 27 32 27 20z
m4620 -13 c0 -5 -4 -9 -10 -9 -5 0 -10 7 -10 16 0 8 5 12 10 9 6 -3 10 -10 10
-16z m-4510 -38 c-20 -30 -40 -44 -23 -18 27 42 38 56 41 52 2 -2 -6 -18 -18
-34z m3917 -3 c-3 -7 -5 -2 -5 12 0 14 2 19 5 13 2 -7 2 -19 0 -25z m-4129
-42 c-43 -58 -49 -40 -7 20 19 25 35 41 37 34 2 -6 -11 -30 -30 -54z m357 1
c-8 -20 -17 -37 -20 -37 -8 0 8 75 19 86 18 20 19 -7 1 -49z m428 43 c-5 -20
-21 -36 -28 -28 -5 4 23 48 30 48 2 0 1 -9 -2 -20z m192 3 c27 -13 35 -23 35
-44 0 -14 -7 -33 -17 -40 -9 -8 -22 -29 -30 -46 -9 -22 -20 -33 -33 -33 -17 0
-19 4 -14 28 4 15 14 35 22 45 8 9 11 17 6 17 -5 0 -3 4 4 9 11 7 11 11 -2 24
-14 14 -23 57 -11 57 2 0 20 -8 40 -17z m-1105 -29 c0 -30 -2 -34 -14 -25 -11
9 -11 17 -2 36 6 14 12 25 14 25 1 0 2 -16 2 -36z m553 16 c-3 -11 -9 -17 -14
-15 -10 7 -1 35 11 35 5 0 6 -9 3 -20z m477 -39 c-6 -12 -17 -21 -24 -21 -20
0 -42 -48 -28 -62 10 -10 18 -5 10 5 -5 5 33 40 37 35 10 -10 -42 -68 -60 -68
-17 0 -18 -2 -5 -11 12 -8 10 -9 -10 -7 -17 2 -26 10 -28 26 -2 12 2 22 8 22
6 0 9 4 5 9 -3 5 -1 13 5 16 6 4 29 32 53 63 36 49 42 54 45 35 2 -12 -2 -31
-8 -42z m-982 -37 c-28 -41 -38 -43 -38 -8 0 25 23 58 33 48 2 -3 8 8 13 23
l8 28 4 -28 c2 -18 -5 -41 -20 -63z m367 31 c-39 -49 -42 -77 -2 -32 29 34 39
34 35 0 -3 -24 -8 -28 -40 -31 -43 -4 -50 11 -20 44 9 10 25 32 35 47 10 16
21 26 24 23 3 -3 -11 -26 -32 -51z m400 45 c3 -6 -1 -13 -10 -16 -19 -8 -30 0
-20 15 8 14 22 14 30 1z m1149 -56 c35 -1 61 -7 60 -13 -1 -6 -2 -20 -2 -31
-2 -15 -9 -20 -32 -20 -18 0 -33 6 -36 15 -4 8 -10 15 -16 15 -5 0 -7 -4 -3
-9 3 -6 -3 -14 -12 -20 -10 -6 -13 -11 -6 -11 15 0 15 -148 0 -167 -6 -8 -6
-13 0 -13 14 0 17 -127 3 -135 -5 -3 -10 0 -10 7 0 9 -3 9 -10 -2 -5 -8 -10
-10 -10 -3 0 6 -9 9 -21 6 -18 -5 -20 -3 -14 16 3 11 2 21 -3 21 -7 0 -10 353
-3 379 1 2 13 -4 27 -14 16 -10 52 -19 88 -21z m254 27 c7 -1 12 -14 12 -32 0
-28 -3 -31 -25 -27 -14 3 -25 1 -25 -3 0 -5 12 -9 26 -9 14 0 23 -4 19 -10 -3
-5 -17 -10 -31 -10 -22 0 -24 4 -24 49 0 42 3 49 18 46 9 -2 23 -4 30 -4z
m2039 -103 c-2 -24 -4 -7 -4 37 0 44 2 63 4 43 2 -21 2 -57 0 -80z m-4128 43
c-34 -51 -60 -70 -38 -28 19 36 61 88 67 83 3 -3 -10 -28 -29 -55z m-155 34
c3 -8 2 -15 -3 -15 -5 0 -12 -11 -15 -25 -6 -25 -26 -29 -54 -12 -9 7 -9 12 3
23 8 9 20 12 26 8 9 -5 10 0 7 14 -5 17 -2 22 12 22 10 0 20 -7 24 -15z m572
-12 c-2 -16 -5 -31 -5 -35 -1 -5 -16 -8 -35 -8 -29 0 -33 -3 -29 -20 3 -11 0
-20 -6 -20 -16 0 -14 43 4 66 14 19 14 19 15 -1 1 -11 4 -14 7 -7 2 6 9 10 14
6 5 -3 9 0 9 5 0 6 -4 11 -10 11 -20 0 -10 19 13 23 12 2 23 5 25 6 1 0 1 -11
-2 -26z m38 6 c-8 -14 -24 -10 -24 6 0 9 6 12 15 9 8 -4 12 -10 9 -15z m139 1
c-10 -11 -25 -20 -34 -20 -9 0 -19 -7 -23 -15 -5 -15 -36 -22 -36 -8 0 15 66
63 87 63 22 0 22 -1 6 -20z m48 2 c-13 -25 -40 -46 -48 -38 -7 7 36 56 49 56
5 0 4 -8 -1 -18z m62 11 c-7 -2 -19 -2 -25 0 -7 3 -2 5 12 5 14 0 19 -2 13 -5z
m66 -23 c-10 -26 -16 -30 -48 -30 -48 0 -54 30 -7 31 17 0 25 3 19 6 -24 9
-13 23 16 23 29 0 30 -1 20 -30z m-529 10 c0 -5 -4 -10 -9 -10 -5 0 -13 -9
-16 -20 -3 -11 -13 -20 -21 -20 -19 0 -18 10 4 26 16 13 16 13 0 14 -31 0 -19
20 12 20 17 0 30 -4 30 -10z m258 -20 c-12 -16 -30 -30 -40 -30 -17 0 -17 2 4
30 12 17 30 30 40 30 17 0 17 -2 -4 -30z m316 15 c-4 -8 -8 -15 -10 -15 -2 0
-4 7 -4 15 0 8 4 15 10 15 5 0 7 -7 4 -15z m-144 -18 c0 -7 -9 -13 -21 -14
-17 -2 -18 1 -9 13 15 17 30 18 30 1z m-807 -27 c-3 -11 -7 -20 -9 -20 -2 0
-4 9 -4 20 0 11 4 20 9 20 5 0 7 -9 4 -20z m297 10 c0 -5 -5 -10 -11 -10 -5 0
-7 5 -4 10 3 6 8 10 11 10 2 0 4 -4 4 -10z m483 -31 c-6 -6 -19 -9 -29 -6 -17
3 -16 5 6 14 28 12 39 8 23 -8z m1787 11 c0 -6 -37 -10 -92 -9 -65 1 -84 4
-63 9 45 12 155 12 155 0z m-2406 -21 c-3 -5 -14 -9 -26 -9 -17 0 -18 3 -8 14
12 15 44 10 34 -5z m261 0 c-8 -12 -45 -12 -45 0 0 10 30 20 43 14 4 -3 5 -9
2 -14z m108 6 c-5 -16 -33 -15 -33 1 0 7 9 12 19 11 10 0 17 -6 14 -12z m67 5
c0 -5 -6 -13 -14 -17 -7 -4 -16 -15 -19 -23 -3 -9 -6 -5 -6 11 -1 14 2 29 6
32 10 10 33 8 33 -3z m76 1 c-7 -10 -66 -20 -66 -11 0 13 14 20 42 20 16 0 27
-4 24 -9z m44 -1 c0 -5 -4 -10 -10 -10 -5 0 -10 5 -10 10 0 6 5 10 10 10 6 0
10 -4 10 -10z m140 6 c0 -9 -39 -13 -51 -5 -10 6 -4 9 19 9 17 0 32 -2 32 -4z
m1520 -3 c0 -5 -26 -9 -58 -10 -40 -2 -52 0 -42 7 18 11 100 13 100 3z m-2175
-13 c-3 -5 -11 -10 -16 -10 -6 0 -7 5 -4 10 3 6 11 10 16 10 6 0 7 -4 4 -10z
m95 0 c0 -5 -12 -10 -26 -10 -14 0 -23 4 -19 10 3 6 15 10 26 10 10 0 19 -4
19 -10z m60 0 c0 -5 -7 -10 -16 -10 -8 0 -12 5 -9 10 3 6 10 10 16 10 5 0 9
-4 9 -10z m780 6 c0 -3 -4 -8 -10 -11 -5 -3 -10 -1 -10 4 0 6 5 11 10 11 6 0
10 -2 10 -4z m863 -19 c4 3 7 1 7 -5 0 -7 -5 -12 -12 -12 -9 0 -9 -3 0 -12 10
-10 15 -10 22 2 8 12 10 11 10 -6 0 -18 -7 -23 -40 -26 -39 -3 -40 -3 -36 29
6 47 16 60 31 40 7 -9 15 -14 18 -10z m-2070 2 c-8 -8 -16 -8 -30 0 -16 9 -14
10 12 11 21 0 26 -3 18 -11z m2363 -15 c-3 -7 0 -16 6 -20 12 -8 -9 -24 -34
-24 -12 0 -16 9 -15 33 1 30 4 33 25 29 14 -3 21 -10 18 -18z m-2326 -9 c0
-14 -3 -25 -7 -25 -5 0 -16 -14 -25 -30 -9 -17 -22 -30 -28 -30 -17 0 -11 38
9 52 10 7 19 15 19 18 0 3 4 13 7 23 10 25 25 21 25 -8z m59 -1 c-15 -18 -22
-13 -13 10 3 9 10 13 16 10 5 -3 4 -12 -3 -20z m616 5 c-8 -12 -55 -12 -55 0
0 10 39 20 53 13 4 -2 5 -8 2 -13z m45 11 c0 -5 -5 -10 -11 -10 -5 0 -7 5 -4
10 3 6 8 10 11 10 2 0 4 -4 4 -10z m75 0 c-3 -5 -17 -10 -31 -10 -14 0 -22 4
-19 10 3 6 17 10 31 10 14 0 22 -4 19 -10z m45 0 c0 -5 -7 -10 -15 -10 -8 0
-15 5 -15 10 0 6 7 10 15 10 8 0 15 -4 15 -10z m430 -6 c0 -2 -21 -4 -47 -4
-27 0 -43 4 -36 8 12 8 83 4 83 -4z m817 -6 c-3 -8 -6 -5 -6 6 -1 11 2 17 5
13 3 -3 4 -12 1 -19z m103 -8 c0 -19 -19 -30 -51 -30 -12 0 -19 7 -19 20 0 11
-6 20 -12 20 -10 0 -10 2 -1 8 7 4 29 6 48 4 25 -3 35 -9 35 -22z m215 21 c3
-5 -5 -11 -17 -14 l-23 -4 25 -11 c17 -7 19 -11 8 -11 -9 -1 -23 -4 -32 -7
-13 -5 -16 1 -16 25 0 26 4 31 24 31 14 0 27 -4 31 -9z m-2485 -11 c0 -5 -4
-10 -10 -10 -5 0 -10 5 -10 10 0 6 5 10 10 10 6 0 10 -4 10 -10z m174 -14 c-3
-9 -10 -16 -15 -16 -6 0 -5 9 1 21 13 24 24 20 14 -5z m116 11 c0 -5 -9 -11
-21 -14 -16 -4 -17 -8 -7 -14 8 -6 0 -9 -24 -9 -41 0 -43 2 -28 31 8 14 20 18
45 16 19 -1 35 -6 35 -10z m89 7 c13 -3 21 -8 17 -11 -9 -9 -86 -14 -86 -5 0
19 25 25 69 16z m91 -10 c0 -6 -11 -11 -25 -11 -23 0 -31 7 -20 18 9 10 45 4
45 -7z m34 1 c-6 -16 -24 -21 -24 -7 0 11 11 22 21 22 5 0 6 -7 3 -15z m56 0
c0 -9 -9 -15 -21 -15 -18 0 -19 2 -9 15 7 8 16 15 21 15 5 0 9 -7 9 -15z m38
3 c-3 -7 -8 -13 -13 -13 -5 0 -10 6 -12 13 -3 6 3 12 12 12 9 0 15 -6 13 -12z
m56 -3 c-4 -8 -10 -12 -15 -9 -11 6 -2 24 11 24 5 0 7 -7 4 -15z m533 9 c-3
-3 -12 -4 -19 -1 -8 3 -5 6 6 6 11 1 17 -2 13 -5z m60 0 c-3 -3 -12 -4 -19 -1
-8 3 -5 6 6 6 11 1 17 -2 13 -5z m3498 -4 c-3 -5 -18 -10 -33 -9 l-27 1 25 8
c35 11 42 11 35 0z m-79 -17 c-1 -14 7 -18 39 -19 40 -1 50 -18 22 -36 -17
-11 -39 -10 -32 2 3 6 1 10 -4 10 -6 0 -11 -5 -11 -11 0 -5 -4 -7 -10 -4 -6 3
-7 -1 -4 -9 3 -9 16 -16 28 -16 17 0 18 -2 6 -10 -12 -8 -11 -10 7 -10 12 0
23 7 25 16 2 11 7 6 14 -13 l11 -28 -56 -2 c-60 -2 -76 9 -60 40 6 10 7 26 3
35 -9 21 -13 55 -7 65 8 14 31 7 29 -10z m258 -1 c-2 -28 -5 -32 -24 -32 -11
0 -20 -4 -20 -10 0 -5 -7 -10 -15 -10 -8 0 -14 -3 -14 -7 3 -19 -2 -33 -11
-33 -5 0 -10 10 -9 23 0 12 -1 31 -3 42 -3 17 2 20 31 17 26 -3 32 0 28 10 -3
10 2 14 16 13 12 -1 22 -7 21 -13z m-3971 -9 c-9 -7 -23 -13 -30 -13 -7 0 -13
-4 -13 -10 0 -6 -10 -5 -25 2 -47 21 -28 40 37 36 42 -3 46 -5 31 -15z m57 2
c0 -8 -4 -15 -9 -15 -13 0 -22 16 -14 24 11 11 23 6 23 -9z m65 5 c-3 -5 -15
-10 -26 -10 -10 0 -19 5 -19 10 0 6 12 10 26 10 14 0 23 -4 19 -10z m55 0 c0
-5 -9 -10 -21 -10 -11 0 -17 5 -14 10 3 6 13 10 21 10 8 0 14 -4 14 -10z m105
0 c3 -5 1 -10 -4 -10 -6 0 -11 5 -11 10 0 6 2 10 4 10 3 0 8 -4 11 -10z m149
-16 c-26 -11 -27 -12 -6 -13 19 -1 21 -3 10 -21 -15 -24 -4 -37 17 -20 21 17
29 7 15 -19 -14 -28 -48 -27 -59 2 -5 12 -6 26 -4 30 3 5 -3 14 -13 21 -16 13
-16 15 11 29 16 8 36 12 43 9 10 -3 5 -9 -14 -18z m86 16 c0 -5 -2 -10 -4 -10
-3 0 -8 5 -11 10 -3 6 -1 10 4 10 6 0 11 -4 11 -10z m870 -6 c0 -8 -4 -12 -10
-9 -5 3 -10 10 -10 16 0 5 5 9 10 9 6 0 10 -7 10 -16z m400 12 c0 -2 -11 -6
-25 -8 -14 -3 -25 -1 -25 3 0 5 11 9 25 9 14 0 25 -2 25 -4z m1667 -43 c-3
-10 -5 -2 -5 17 0 19 2 27 5 18 2 -10 2 -26 0 -35z m-3677 22 c-15 -18 -60
-16 -60 2 0 8 13 13 36 13 31 0 35 -2 24 -15z m114 6 c-12 -11 -94 -21 -94
-12 0 14 9 17 56 19 27 1 44 -2 38 -7z m476 -11 c-8 -15 -19 -20 -38 -17 -32
4 -32 19 0 29 43 12 50 10 38 -12z m860 10 c0 -5 -7 -10 -15 -10 -8 0 -15 5
-15 10 0 6 7 10 15 10 8 0 15 -4 15 -10z m487 4 c-3 -3 -12 -4 -19 -1 -8 3 -5
6 6 6 11 1 17 -2 13 -5z m2143 -19 c0 -20 -5 -25 -24 -25 -18 0 -23 5 -21 18
2 9 4 20 4 25 1 4 10 7 21 7 15 0 20 -7 20 -25z m189 -9 c-1 -17 -2 -17 -6 -3
-6 23 -23 22 -23 -3 0 -11 -4 -20 -10 -20 -10 0 -14 43 -4 52 13 13 44 -5 43
-26z m-4662 17 c-4 -3 -2 -12 4 -20 9 -10 4 -13 -25 -13 -22 0 -35 4 -31 10 3
6 14 10 23 10 15 0 15 2 2 10 -12 8 -10 10 9 10 13 0 21 -3 18 -7z m133 -3 c0
-5 -9 -10 -20 -10 -11 0 -20 5 -20 10 0 6 9 10 20 10 11 0 20 -4 20 -10z m90
3 c-1 -26 -17 -31 -40 -13 l-25 20 33 0 c17 0 32 -3 32 -7z m85 -3 c-3 -5 -13
-10 -21 -10 -8 0 -14 5 -14 10 0 6 9 10 21 10 11 0 17 -4 14 -10z m589 -11
c-3 -5 -20 -9 -37 -9 -29 1 -30 2 -14 14 19 15 61 10 51 -5z m-109 1 c4 -6 -7
-10 -25 -10 -18 0 -29 4 -25 10 3 6 15 10 25 10 10 0 22 -4 25 -10z m-1030
-10 c-3 -5 -12 -10 -18 -10 -7 0 -6 4 3 10 19 12 23 12 15 0z m50 0 c-3 -5
-10 -10 -16 -10 -5 0 -9 5 -9 10 0 6 7 10 16 10 8 0 12 -4 9 -10z m100 0 c-3
-5 -15 -10 -26 -10 -10 0 -19 5 -19 10 0 6 12 10 26 10 14 0 23 -4 19 -10z
m680 -12 c-6 -16 -105 -22 -105 -6 0 5 21 8 47 6 30 -1 48 2 51 11 2 7 6 10 8
8 3 -2 2 -11 -1 -19z m1478 15 c-7 -2 -19 -2 -25 0 -7 3 -2 5 12 5 14 0 19 -2
13 -5z m75 0 c-10 -2 -26 -2 -35 0 -10 3 -2 5 17 5 19 0 27 -2 18 -5z m-2071
-9 c-3 -3 -12 -4 -19 -1 -8 3 -5 6 6 6 11 1 17 -2 13 -5z m584 -4 c5 0 9 -11
9 -25 0 -18 -5 -25 -20 -25 -14 0 -18 5 -13 18 6 16 5 16 -14 -1 -11 -9 -22
-14 -26 -11 -10 10 27 54 41 49 8 -3 18 -5 23 -5z m352 -16 c4 -20 -1 -27 -21
-35 -13 -5 -26 -8 -28 -7 -3 4 36 68 41 68 1 0 5 -12 8 -26z m781 20 c9 -3 16
-17 16 -30 0 -19 -7 -26 -31 -31 -21 -4 -28 -10 -25 -20 4 -8 6 -22 6 -31 1
-15 2 -15 11 1 5 9 17 17 25 17 9 0 12 -5 8 -12 -4 -6 -7 -26 -6 -45 1 -19 -3
-31 -8 -28 -5 3 -17 -3 -27 -15 -10 -11 -21 -20 -25 -20 -11 0 -10 108 1 115
6 3 6 18 0 38 -14 48 -15 47 38 66 1 1 8 -2 17 -5z m56 -4 c0 -5 -4 -10 -10
-10 -5 0 -10 5 -10 10 0 6 5 10 10 10 6 0 10 -4 10 -10z m84 -13 c8 -12 5 -20
-12 -35 -19 -17 -28 -18 -62 -10 -22 6 -40 14 -40 18 0 10 30 21 40 15 4 -3 6
4 3 16 -5 18 -2 20 27 17 19 -2 38 -12 44 -21z m-2634 -1 c0 -8 -4 -18 -10
-21 -5 -3 -10 3 -10 14 0 12 5 21 10 21 6 0 10 -6 10 -14z m536 -13 c-10 -10
-19 5 -10 18 6 11 8 11 12 0 2 -7 1 -15 -2 -18z m639 17 c4 -6 -14 -9 -47 -8
l-53 1 45 7 c25 4 46 8 47 8 1 1 5 -2 8 -8z m312 -12 c-8 -13 -22 -22 -31 -20
-10 2 -14 -2 -10 -11 4 -10 -3 -13 -25 -9 -19 3 -28 9 -24 16 18 33 39 46 71
46 34 0 34 -1 19 -22z m108 12 c3 -5 3 -21 -1 -35 -5 -19 -12 -25 -34 -25 -29
0 -40 18 -32 51 4 17 58 24 67 9z m65 5 c0 -10 -32 -55 -39 -55 -4 0 -6 14 -3
30 3 21 10 30 23 30 11 0 19 -2 19 -5z m3253 -17 l4 -23 8 23 c8 24 24 30 26
10 0 -10 2 -10 6 0 2 6 12 12 21 11 11 0 12 -2 4 -6 -6 -2 -10 -9 -6 -14 3 -5
-2 -9 -10 -9 -9 0 -16 -7 -16 -16 0 -11 -5 -14 -16 -10 -9 3 -22 6 -29 6 -7 0
-12 10 -11 25 1 31 13 33 19 3z m389 10 c-6 -7 -10 -17 -10 -23 -1 -16 -30
-31 -41 -20 -17 18 6 55 35 55 20 0 24 -3 16 -12z m-4874 -28 c-20 -28 -38
-39 -38 -23 0 10 42 53 52 53 5 0 -1 -13 -14 -30z m162 20 c0 -5 -4 -10 -10
-10 -5 0 -10 5 -10 10 0 6 5 10 10 10 6 0 10 -4 10 -10z m40 1 c0 -5 -7 -12
-16 -15 -14 -5 -15 -4 -4 9 14 17 20 19 20 6z m70 -1 c0 -5 -9 -10 -20 -10
-11 0 -23 -1 -27 -2 -3 -2 -8 3 -10 10 -3 8 6 12 26 12 17 0 31 -4 31 -10z
m100 2 c0 -4 -13 -9 -30 -10 -16 -1 -30 2 -30 8 0 5 14 10 30 10 17 0 30 -4
30 -8z m98 -2 c-1 -5 -6 -10 -10 -10 -5 0 -15 0 -23 0 -8 0 -15 5 -15 10 0 6
12 10 26 10 14 0 24 -4 22 -10z m62 0 c0 -5 -4 -10 -9 -10 -6 0 -13 5 -16 10
-3 6 1 10 9 10 9 0 16 -4 16 -10z m1819 -17 c-1 -23 -2 -24 -6 -6 -2 12 -12
24 -21 26 -12 3 -10 5 6 6 18 1 22 -4 21 -26z m76 17 c-6 -10 7 -14 33 -11 6
1 12 -3 12 -9 0 -5 -3 -10 -7 -11 -86 -11 -126 -4 -92 17 8 4 7 9 -2 15 -9 6
-1 9 24 9 23 0 36 -4 32 -10z m1925 -27 c0 -20 -3 -33 -7 -30 -9 10 -10 67 0
67 4 0 7 -16 7 -37z m-4411 0 c-8 -9 -16 -10 -22 -4 -13 13 0 31 19 24 11 -4
12 -8 3 -20z m2327 17 c9 0 13 -4 10 -9 -4 -5 -14 -8 -24 -6 -9 2 -20 4 -24 4
-5 1 -8 6 -8 12 0 6 7 8 16 5 9 -3 22 -6 30 -6z m-2226 -20 c0 -5 -2 -10 -4
-10 -2 0 -12 -3 -20 -6 -12 -5 -15 -2 -10 10 7 17 34 22 34 6z m60 -5 c0 -8
-9 -15 -20 -15 -11 0 -20 7 -20 15 0 8 9 15 20 15 11 0 20 -7 20 -15z m116 4
c4 -8 9 -7 15 2 6 10 9 10 9 2 0 -16 -10 -21 -57 -26 -32 -4 -40 -2 -36 8 2 8
11 11 18 9 7 -3 16 -1 20 5 8 14 22 14 31 0z m274 0 c0 -4 -10 -9 -23 -11 -28
-5 -54 2 -39 11 13 8 62 8 62 0z m29 -10 c-16 -10 -23 -4 -14 10 3 6 11 8 17
5 6 -4 5 -9 -3 -15z m61 11 c0 -5 -7 -10 -16 -10 -8 0 -12 5 -9 10 3 6 10 10
16 10 5 0 9 -4 9 -10z m80 0 c0 -5 -9 -10 -21 -10 -11 0 -17 5 -14 10 3 6 13
10 21 10 8 0 14 -4 14 -10z m3788 -18 c2 -14 -2 -22 -11 -22 -15 0 -29 34 -19
45 11 11 27 -2 30 -23z m-4104 7 c-3 -5 -25 -9 -50 -9 -25 0 -43 4 -40 9 4 5
26 9 51 9 25 0 43 -4 39 -9z m61 1 c-3 -5 -13 -10 -21 -10 -8 0 -12 5 -9 10 3
6 13 10 21 10 8 0 12 -4 9 -10z m4155 -5 c0 -8 -4 -15 -10 -15 -5 0 -10 7 -10
15 0 8 5 15 10 15 6 0 10 -7 10 -15z m190 -11 c0 -2 -9 -4 -20 -4 -11 0 -20 4
-20 9 0 5 9 7 20 4 11 -3 20 -7 20 -9z m-4050 0 c0 -11 -41 -43 -66 -52 -29
-10 -29 -10 -4 -12 22 0 23 -2 9 -13 -9 -7 -19 -22 -23 -34 -7 -22 -6 -23 53
-16 66 6 80 -1 29 -16 -33 -9 -33 -9 -5 -10 17 -1 26 -5 22 -11 -4 -7 -20 -8
-38 -4 -18 4 -62 9 -99 11 -68 5 -98 22 -33 19 31 -1 35 1 35 24 0 18 -3 21
-9 11 -5 -7 -22 -15 -37 -17 -26 -2 -27 -1 -11 10 9 7 17 18 17 23 0 5 9 18
20 28 20 18 21 18 14 0 -5 -13 -4 -16 4 -11 7 4 12 17 12 30 0 33 16 43 66 43
24 0 44 -1 44 -3z m56 -10 c-3 -9 -6 -20 -6 -25 0 -5 -12 -9 -26 -9 -15 0 -23
-4 -19 -10 4 -6 16 -8 27 -4 14 4 19 2 16 -6 -2 -7 -22 -13 -46 -14 -33 -1
-39 1 -27 10 8 6 15 17 15 24 0 21 31 50 53 50 13 0 17 -5 13 -16z m68 7 c3
-4 24 -6 47 -4 38 4 41 3 29 -12 -8 -10 -23 -14 -39 -11 -53 8 -81 18 -75 27
7 11 31 12 38 0z m2626 -7 c0 -2 -16 -4 -36 -4 -19 0 -33 4 -30 8 5 8 66 4 66
-4z m1356 -24 c-1 -33 -5 -40 -21 -41 -11 0 -32 -2 -47 -4 -25 -3 -28 -1 -28
26 0 24 4 29 25 29 16 0 25 -5 23 -12 -2 -7 2 -13 7 -13 5 0 9 6 7 13 -2 6 2
12 8 12 5 0 10 7 10 15 0 8 4 15 8 15 5 0 8 -18 8 -40z m64 36 c0 -2 -9 -6
-20 -9 -11 -3 -18 -1 -14 4 5 9 34 13 34 5z m-4880 -36 c-20 -29 -40 -39 -40
-22 0 12 39 52 51 52 6 0 1 -13 -11 -30z m284 15 c-4 -10 0 -15 11 -15 17 0
17 -1 0 -20 -33 -36 -88 -15 -60 23 10 14 14 15 18 5 4 -10 9 -9 17 5 13 21
21 22 14 2z m115 -11 c-6 -8 -9 -17 -6 -21 4 -3 16 6 28 20 14 18 30 27 50 27
16 0 29 -3 29 -8 0 -4 -16 -25 -35 -47 -19 -22 -35 -43 -35 -47 0 -5 -10 -8
-22 -8 -13 -1 -33 -9 -45 -19 -26 -22 -30 -36 -8 -27 8 3 15 1 15 -4 0 -6 -7
-10 -15 -10 -9 0 -12 -6 -9 -15 5 -12 -3 -15 -36 -15 -35 0 -41 2 -31 14 8 9
8 16 2 20 -5 4 -12 2 -16 -4 -14 -23 -23 -8 -10 17 12 22 22 28 57 30 51 4 58
10 51 46 -6 32 -20 36 -25 5 -2 -13 -12 -22 -26 -25 -22 -3 -21 -1 10 38 32
40 65 61 81 52 4 -3 3 -11 -4 -19z m137 -2 c-8 -9 -19 -13 -22 -9 -10 9 16 38
28 31 6 -4 4 -13 -6 -22z m44 19 c0 -5 -7 -14 -15 -21 -16 -14 -18 -10 -9 14
6 17 24 22 24 7z m433 1 c-6 -4 -12 -11 -13 -17 -6 -25 -13 -35 -27 -35 -9 0
-13 6 -9 15 3 8 1 15 -4 15 -5 0 -7 7 -4 15 4 9 19 15 38 15 17 0 26 -4 19 -8z
m47 -7 c0 -8 -7 -15 -16 -15 -14 0 -14 3 -4 15 7 8 14 15 16 15 2 0 4 -7 4
-15z m99 -1 c8 -7 -30 -16 -44 -10 -27 10 -17 27 13 20 15 -4 29 -8 31 -10z
m1041 6 c21 0 22 -2 8 -10 -22 -13 -68 -9 -68 6 0 7 8 11 18 9 9 -2 28 -4 42
-5z m2027 -22 c-3 -7 -5 -2 -5 12 0 14 2 19 5 13 2 -7 2 -19 0 -25z m-4286
-10 c-20 -33 -41 -48 -41 -30 0 14 40 62 52 62 5 0 1 -15 -11 -32z m106 -5
c-3 -10 -5 -4 -5 12 0 17 2 24 5 18 2 -7 2 -21 0 -30z m53 31 c0 -3 -7 -12
-15 -20 -13 -14 -15 -13 -15 5 0 12 6 21 15 21 8 0 15 -3 15 -6z m102 -1 c-6
-2 -10 -8 -7 -13 12 -20 -45 -45 -92 -41 -25 2 -13 19 18 26 20 5 29 11 25 21
-4 11 4 14 32 13 20 0 31 -3 24 -6z m1133 -3 c-3 -5 -27 -10 -53 -10 -34 0
-43 3 -32 10 20 13 93 13 85 0z m925 6 c0 -3 -4 -8 -10 -11 -5 -3 -10 -1 -10
4 0 6 5 11 10 11 6 0 10 -2 10 -4z m30 -6 c0 -5 -4 -10 -10 -10 -5 0 -10 5
-10 10 0 6 5 10 10 10 6 0 10 -4 10 -10z m60 0 c0 -5 -9 -10 -19 -10 -11 0
-23 5 -26 10 -4 6 5 10 19 10 14 0 26 -4 26 -10z m630 -11 c0 -24 -23 -21 -28
4 -2 10 3 17 12 17 10 0 16 -9 16 -21z m1635 11 c3 -5 1 -10 -4 -10 -6 0 -11
5 -11 10 0 6 2 10 4 10 3 0 8 -4 11 -10z m585 -5 c0 -8 -4 -15 -10 -15 -5 0
-7 7 -4 15 4 8 8 15 10 15 2 0 4 -7 4 -15z m-3705 -21 c16 6 28 -21 14 -30 -6
-3 -7 -19 -4 -35 8 -33 14 -32 -107 -33 l-88 -1 0 28 c0 21 5 27 23 28 16 1
18 2 5 6 -10 2 -18 8 -18 13 0 11 49 19 56 9 3 -5 -1 -9 -8 -9 -8 0 -6 -5 5
-11 24 -14 22 -32 -4 -24 -13 5 -19 3 -15 -3 8 -13 69 -24 89 -16 14 5 16 17
8 67 0 4 -13 4 -27 1 -20 -5 -25 -3 -22 7 3 8 12 13 21 11 8 -1 18 2 22 8 4 6
12 4 22 -5 9 -9 21 -14 28 -11z m1565 15 c0 -5 -4 -7 -10 -4 -5 3 -15 3 -22
-1 -8 -5 -6 -10 8 -15 17 -7 17 -8 -3 -8 -14 -1 -23 5 -23 13 0 8 -6 17 -12
19 -7 3 4 6 25 6 20 1 37 -4 37 -10z m355 1 c-3 -5 -14 -10 -23 -9 -14 0 -13
2 3 9 27 11 27 11 20 0z m995 -36 c0 -44 -25 -46 -34 -3 -7 37 -1 50 19 42 9
-3 15 -18 15 -39z m35 6 c-11 -17 -23 -1 -18 21 5 19 7 19 15 5 5 -9 6 -21 3
-26z m265 19 c0 -5 -4 -9 -10 -9 -5 0 -10 7 -10 16 0 8 5 12 10 9 6 -3 10 -10
10 -16z m714 9 c-3 -4 -11 -5 -19 -1 -21 7 -19 12 4 10 11 0 18 -5 15 -9z
m-4560 -7 c27 -5 28 -7 12 -20 -13 -11 -20 -11 -28 -3 -7 7 -24 12 -39 12 -15
0 -31 5 -34 10 -7 11 41 12 89 1z m3496 -21 c0 -18 -5 -30 -13 -30 -9 0 -12
10 -9 30 2 17 8 30 13 30 5 0 9 -13 9 -30z m125 20 c-3 -5 1 -10 10 -10 9 0
13 5 9 11 -4 7 1 10 11 7 12 -2 19 -13 19 -29 1 -25 -2 -27 -44 -32 -26 -3
-49 -1 -55 5 -7 8 -5 9 8 5 11 -4 17 -1 18 8 1 8 3 20 4 25 1 6 3 12 4 15 0 3
6 5 12 5 5 0 7 -4 4 -10z m85 1 c0 -6 -4 -13 -10 -16 -5 -3 -10 1 -10 9 0 9 5
16 10 16 6 0 10 -4 10 -9z m100 -6 c0 -8 -4 -15 -10 -15 -5 0 -10 7 -10 15 0
8 5 15 10 15 6 0 10 -7 10 -15z m-4654 -22 c-10 -10 -19 5 -10 18 6 11 8 11
12 0 2 -7 1 -15 -2 -18z m909 8 c-3 -6 -11 -8 -17 -5 -6 4 -5 9 3 15 16 10 23
4 14 -10z m1865 10 c0 -12 -95 -17 -196 -12 -70 4 -74 6 -34 11 77 9 230 10
230 1z m-2255 -12 c3 -3 -4 -14 -15 -24 -20 -18 -20 -18 -18 7 2 23 18 31 33
17z m495 -4 c11 -13 8 -15 -15 -15 -23 0 -26 2 -15 15 7 8 14 15 15 15 1 0 8
-7 15 -15z m260 -6 c0 -10 -53 -12 -87 -3 -13 4 -21 9 -19 13 6 9 106 0 106
-10z m2890 1 c0 -19 -20 -27 -33 -13 -8 7 11 33 24 33 5 0 9 -9 9 -20z m46
-17 c-11 -11 -19 6 -11 24 8 17 8 17 12 0 3 -10 2 -21 -1 -24z m999 27 c3 -6
0 -11 -7 -11 -7 -1 -26 -3 -43 -5 -16 -1 -34 -3 -40 -4 -20 -5 -32 0 -32 13 0
16 113 22 122 7z m-4388 -6 c-3 -3 -12 -4 -19 -1 -8 3 -5 6 6 6 11 1 17 -2 13
-5z m1276 -19 c-7 -21 -13 -19 -13 6 0 11 4 18 10 14 5 -3 7 -12 3 -20z m417
5 c27 0 51 -4 55 -9 3 -6 27 -8 53 -5 26 2 56 5 67 6 11 1 45 0 75 -2 51 -2
52 -3 20 -10 l-35 -7 28 -11 c33 -14 36 -25 4 -17 -29 8 -106 -23 -87 -35 7
-4 18 -7 24 -5 6 2 27 6 46 9 32 6 33 5 15 -8 -26 -20 -175 -22 -175 -3 0 9
-2 9 -8 0 -4 -6 -34 -14 -67 -18 -33 -3 -70 -8 -82 -11 -13 -2 -23 0 -23 6 0
5 6 10 13 11 9 0 9 2 -1 6 -23 9 -3 19 32 15 20 -2 33 -8 30 -13 -3 -5 0 -9 5
-9 6 0 11 8 11 18 0 13 -9 17 -40 17 -37 1 -59 9 -49 20 9 8 264 10 277 2 7
-5 12 -4 12 2 0 6 7 11 16 11 8 0 13 4 10 8 -5 8 -136 7 -221 -2 -48 -6 -49
-5 -25 9 24 14 24 14 -25 16 -27 1 -42 3 -32 6 9 2 17 10 18 16 0 8 2 8 6 0 3
-8 24 -13 53 -13z m423 13 c-7 -2 -19 -2 -25 0 -7 3 -2 5 12 5 14 0 19 -2 13
-5z m1167 -4 c0 -4 -6 -12 -14 -18 -10 -8 -16 -8 -25 2 -6 8 -8 16 -5 20 8 8
44 5 44 -4z m585 1 c3 -5 1 -10 -4 -10 -6 0 -11 5 -11 10 0 6 2 10 4 10 3 0 8
-4 11 -10z m-4222 -20 c-6 -22 -43 -48 -43 -30 0 5 4 10 9 10 5 0 13 9 16 20
8 26 25 26 18 0z m1249 -4 c3 -16 0 -27 -9 -30 -16 -7 -28 17 -19 39 8 23 23
18 28 -9z m450 6 c9 -9 8 -12 -4 -12 -24 0 -48 11 -48 21 0 12 37 6 52 -9z
m34 -9 c-10 -10 -19 5 -10 18 6 11 8 11 12 0 2 -7 1 -15 -2 -18z m44 12 c0 -8
-4 -15 -9 -15 -13 0 -22 16 -14 24 11 11 23 6 23 -9z m650 5 c0 -13 -50 -13
-70 0 -11 7 -4 10 28 10 23 0 42 -4 42 -10z m815 -21 c11 -3 18 -9 15 -14 -7
-14 -52 -7 -70 11 -13 13 -13 16 0 24 10 7 18 5 25 -4 6 -8 19 -15 30 -17z
m-3781 0 c-3 -5 -10 -7 -15 -3 -5 3 -7 10 -3 15 3 5 10 7 15 3 5 -3 7 -10 3
-15z m791 11 c4 -6 -9 -10 -32 -9 -38 1 -38 1 -8 9 17 4 31 8 32 9 1 0 5 -3 8
-9z m92 4 c-3 -3 -12 -4 -19 -1 -8 3 -5 6 6 6 11 1 17 -2 13 -5z m93 -19 c-5
-6 -7 -15 -3 -18 3 -4 -11 -7 -33 -7 -29 0 -35 3 -24 10 8 5 23 10 34 10 12 0
16 5 13 14 -4 10 -1 13 9 9 10 -4 12 -9 4 -18z m1370 21 c0 -3 -4 -8 -10 -11
-5 -3 -10 -1 -10 4 0 6 5 11 10 11 6 0 10 -2 10 -4z m140 -6 c0 -5 -12 -10
-27 -11 l-28 -1 25 -8 25 -8 -24 -1 c-13 -1 -30 7 -37 17 -13 16 -13 16 -14 0
0 -10 -5 -18 -11 -18 -5 0 -7 5 -4 10 3 6 -3 10 -14 10 -12 0 -21 5 -21 10 0
6 28 10 65 10 37 0 65 -4 65 -10z m1216 -7 c-4 -9 -2 -11 6 -7 7 5 9 2 5 -9
-3 -9 -1 -18 6 -20 7 -2 8 -8 4 -13 -5 -5 -16 1 -25 13 -11 13 -26 20 -42 18
-42 -4 -46 -7 -21 -14 14 -4 26 -12 28 -18 3 -8 -12 -10 -54 -6 -54 5 -100 23
-59 23 9 0 14 5 11 10 -4 6 5 10 20 10 15 0 33 6 40 14 20 20 88 19 81 -1z
m-3761 -23 c0 -16 -4 -29 -9 -27 -11 4 -17 37 -10 49 11 17 19 7 19 -22z m130
20 c-3 -5 -15 -10 -26 -10 -11 0 -17 5 -14 10 3 6 15 10 26 10 11 0 17 -4 14
-10z m212 4 c-3 -3 -12 -4 -19 -1 -8 3 -5 6 6 6 11 1 17 -2 13 -5z m33 2 c0
-3 -4 -8 -10 -11 -5 -3 -10 -1 -10 4 0 6 5 11 10 11 6 0 10 -2 10 -4z m400 -6
c0 -5 -5 -10 -11 -10 -5 0 -7 5 -4 10 3 6 8 10 11 10 2 0 4 -4 4 -10z m594
-25 c-21 -28 -33 -35 -61 -35 -30 0 -33 2 -23 19 5 11 20 22 32 24 20 4 19 4
-4 6 -53 2 -28 21 28 21 l55 0 -27 -35z m3428 5 c6 0 9 -3 6 -6 -4 -3 -16 0
-28 6 -18 10 -20 14 -9 21 9 6 15 4 17 -6 2 -8 8 -15 14 -15z m298 5 c0 -8 -3
-15 -6 -15 -3 0 -12 7 -20 15 -14 13 -13 15 5 15 12 0 21 -6 21 -15z m250 -5
c-7 -4 -21 -5 -32 -2 -13 3 -16 7 -8 12 7 4 21 5 32 2 13 -3 16 -7 8 -12z
m-2763 4 c-3 -3 -12 -4 -19 -1 -8 3 -5 6 6 6 11 1 17 -2 13 -5z m1402 -10
c-14 -18 -37 -17 -69 1 -24 14 -23 14 28 13 43 0 50 -3 41 -14z m624 9 c-7 -2
-19 -2 -25 0 -7 3 -2 5 12 5 14 0 19 -2 13 -5z m-4497 -18 c-10 -8 -23 -12
-28 -9 -14 9 2 24 25 24 21 -1 21 -1 3 -15z m228 9 c14 -5 12 -9 -7 -23 -21
-17 -67 -34 -67 -25 0 5 51 54 56 54 1 0 9 -3 18 -6z m584 -16 c-15 -23 -77
-41 -63 -19 3 6 18 11 32 11 21 0 24 2 13 15 -10 13 -9 15 10 15 21 0 21 -1 8
-22z m179 16 c-3 -3 -12 -4 -19 -1 -8 3 -5 6 6 6 11 1 17 -2 13 -5z m313 -15
c0 -5 -7 -9 -15 -9 -9 0 -12 6 -9 15 6 15 24 11 24 -6z m3447 15 c-3 -3 -12
-4 -19 -1 -8 3 -5 6 6 6 11 1 17 -2 13 -5z m710 0 c-3 -3 -12 -4 -19 -1 -8 3
-5 6 6 6 11 1 17 -2 13 -5z m-4313 -18 c-6 -16 -34 -30 -42 -21 -6 5 28 34 40
35 4 0 5 -6 2 -14z m1076 -7 c0 -12 -8 -15 -32 -12 -48 6 -60 12 -53 23 11 17
85 8 85 -11z m203 5 c-3 -8 -12 -13 -20 -10 -8 3 -21 6 -29 6 -8 0 -14 5 -14
10 0 6 16 10 35 10 27 0 33 -3 28 -16z m505 9 c-10 -2 -26 -2 -35 0 -10 3 -2
5 17 5 19 0 27 -2 18 -5z m62 -3 c0 -13 -11 -13 -30 0 -12 8 -11 10 8 10 12 0
22 -4 22 -10z m127 4 c-3 -3 -12 -4 -19 -1 -8 3 -5 6 6 6 11 1 17 -2 13 -5z
m308 -3 c3 -5 1 -12 -4 -15 -5 -3 -11 1 -15 9 -6 16 9 21 19 6z m-2391 -16
c-7 -17 -17 -18 -54 -8 l-25 7 25 7 c43 12 60 10 54 -6z m44 3 c-6 -18 -28
-21 -28 -4 0 9 7 16 16 16 9 0 14 -5 12 -12z m1265 5 c-7 -2 -21 -2 -30 0 -10
3 -4 5 12 5 17 0 24 -2 18 -5z m1407 -3 c8 -5 11 -12 7 -17 -5 -4 -12 -1 -16
6 -5 7 -14 10 -20 7 -6 -4 -19 -2 -28 3 -15 9 -13 10 12 11 17 0 37 -4 45 -10z
m659 -5 c3 -12 -13 -9 -17 4 -2 7 0 11 6 7 5 -3 10 -8 11 -11z m106 5 c3 -5
-1 -10 -9 -10 -8 0 -18 5 -21 10 -3 6 1 10 9 10 8 0 18 -4 21 -10z m675 0 c0
-5 -5 -10 -11 -10 -5 0 -7 5 -4 10 3 6 8 10 11 10 2 0 4 -4 4 -10z m166 -5
c18 -14 17 -14 -13 -15 -23 0 -33 5 -33 15 0 19 21 19 46 0z m-5273 -2 c-7 -2
-13 -11 -13 -19 0 -16 -9 -18 -29 -5 -20 13 -4 31 27 30 15 0 21 -3 15 -6z
m827 2 c0 -3 -12 -10 -27 -16 -21 -8 -30 -6 -42 6 -14 13 -11 15 27 15 23 0
42 -2 42 -5z m3196 -10 c-3 -8 -1 -15 4 -15 6 0 10 -4 10 -10 0 -11 -33 -14
-43 -4 -9 9 11 44 24 44 6 0 9 -7 5 -15z m54 -10 c0 -14 -4 -25 -10 -25 -5 0
-10 11 -10 25 0 14 5 25 10 25 6 0 10 -11 10 -25z m523 18 c-13 -2 -35 -2 -50
0 -16 2 -5 4 22 4 28 0 40 -2 28 -4z m607 -3 c0 -5 -7 -10 -15 -10 -8 0 -15 5
-15 10 0 6 7 10 15 10 8 0 15 -4 15 -10z m-5305 -10 c3 -5 15 -10 25 -10 10 0
22 -5 26 -11 5 -9 -7 -10 -42 -4 -56 8 -64 12 -44 25 19 12 27 12 35 0z m3070
-1 c13 -1 9 -4 -10 -8 -41 -10 -112 -2 -94 11 8 5 30 6 49 3 19 -2 44 -5 55
-6z m930 -9 c-8 13 -6 13 8 2 9 -8 21 -11 27 -7 5 3 10 -1 10 -9 0 -21 -23
-20 -67 0 -24 12 -31 19 -21 25 7 5 20 1 32 -9 14 -13 17 -13 11 -2z m323 -2
c-3 -24 -48 -40 -48 -18 0 6 5 8 10 5 6 -3 10 -1 10 4 0 6 -6 11 -12 12 -7 0
-4 4 7 9 31 14 37 12 33 -12z m659 16 c-3 -3 -12 -4 -19 -1 -8 3 -5 6 6 6 11
1 17 -2 13 -5z m-3552 -14 c3 -5 -1 -10 -9 -10 -9 0 -16 5 -16 10 0 6 4 10 9
10 6 0 13 -4 16 -10z m928 -10 c-3 -11 -14 -20 -24 -20 -21 0 -22 1 -13 24 9
25 43 21 37 -4z m87 0 c0 -17 -7 -20 -39 -20 -34 0 -38 3 -34 20 4 15 14 20
39 20 27 0 34 -4 34 -20z m427 14 c-3 -3 -12 -4 -19 -1 -8 3 -5 6 6 6 11 1 17
-2 13 -5z m294 -4 c16 0 29 -4 29 -10 0 -17 -60 -11 -78 7 -16 16 -16 16 1 10
10 -4 32 -7 48 -7z m907 -21 c-3 -8 -7 -3 -11 10 -4 17 -3 21 5 13 5 -5 8 -16
6 -23z m652 11 c10 -19 8 -20 -40 -20 -32 0 -49 4 -45 10 3 6 20 10 36 10 18
0 28 4 24 10 -3 6 -2 10 4 10 6 0 15 -9 21 -20z m-4833 -3 c0 -9 -9 -12 -26
-9 -23 5 -24 6 -6 13 29 11 32 11 32 -4z m690 7 c-3 -3 -12 -4 -19 -1 -8 3 -5
6 6 6 11 1 17 -2 13 -5z m1230 -14 c31 0 26 -24 -6 -28 -30 -5 -46 11 -36 35
5 12 9 14 12 6 3 -7 16 -13 30 -13z m449 -7 c-10 -10 -19 5 -10 18 6 11 8 11
12 0 2 -7 1 -15 -2 -18z m1304 10 c0 -7 -12 -10 -32 -8 -18 2 -43 4 -56 4 -13
1 -21 5 -18 9 8 13 106 9 106 -5z m1425 7 c-3 -5 -36 -9 -73 -9 -56 1 -61 3
-32 9 54 11 112 11 105 0z m-4835 -10 c0 -6 12 -8 28 -5 22 4 24 4 7 -4 -11
-5 -36 -10 -55 -10 -33 0 -34 1 -16 14 23 17 36 19 36 5z m1835 -6 c0 -5 -12
-10 -27 -12 -26 -3 -36 7 -22 21 9 9 49 2 49 -9z m1303 9 c-10 -2 -28 -2 -40
0 -13 2 -5 4 17 4 22 1 32 -1 23 -4z m152 3 c0 -3 -4 -8 -10 -11 -5 -3 -10 -1
-10 4 0 6 5 11 10 11 6 0 10 -2 10 -4z m270 -6 c0 -5 -4 -10 -10 -10 -5 0 -10
5 -10 10 0 6 5 10 10 10 6 0 10 -4 10 -10z m665 0 c3 -5 -1 -10 -9 -10 -9 0
-16 5 -16 10 0 6 4 10 9 10 6 0 13 -4 16 -10z m175 -6 c0 -2 -21 -3 -47 -3
-46 2 -47 2 -13 8 33 7 60 4 60 -5z m277 10 c-3 -3 -12 -4 -19 -1 -8 3 -5 6 6
6 11 1 17 -2 13 -5z m-404 -11 c-7 -2 -19 -2 -25 0 -7 3 -2 5 12 5 14 0 19 -2
13 -5z m174 1 c-3 -3 -12 -4 -19 -1 -8 3 -5 6 6 6 11 1 17 -2 13 -5z m-4594
-11 c-7 -2 -19 -2 -25 0 -7 3 -2 5 12 5 14 0 19 -2 13 -5z m587 -15 c0 -4 -7
-8 -15 -8 -8 0 -18 -1 -22 -2 -3 -2 -8 3 -10 9 -3 9 4 12 21 11 14 -1 26 -6
26 -10z m595 -5 c18 -18 54 -20 123 -8 34 6 42 5 42 -7 0 -22 -26 -43 -33 -26
-3 8 -6 6 -6 -5 -1 -28 -26 -48 -40 -34 -8 8 -11 7 -11 -5 0 -8 -25 -41 -55
-73 -30 -32 -52 -62 -49 -67 4 -5 19 5 35 24 26 31 28 31 29 11 0 -28 20 -30
27 -3 3 11 14 20 25 20 16 0 8 -13 -39 -69 -52 -62 -62 -69 -100 -72 -24 -2
-43 -3 -43 -2 0 2 9 12 21 24 25 25 23 29 -13 22 -18 -3 -28 -12 -28 -23 0
-19 -19 -30 -52 -30 -17 0 -18 3 -8 15 7 8 18 15 26 15 7 0 15 9 19 19 3 11
13 25 22 33 15 11 16 11 10 -5 -5 -13 -3 -17 5 -15 7 3 14 10 14 16 1 7 3 14
4 17 3 6 7 22 9 34 2 15 56 68 66 65 18 -6 65 45 65 70 0 20 -40 -1 -77 -40
-33 -37 -43 -42 -43 -27 0 10 8 28 19 39 19 21 41 58 41 70 0 3 -9 4 -20 1
-22 -6 -23 -5 -14 17 8 20 9 20 29 -1z m500 7 c-3 -5 -12 -10 -20 -10 -8 0
-17 5 -20 10 -4 6 5 10 20 10 15 0 24 -4 20 -10z m955 0 c30 -19 -5 -26 -69
-14 -24 5 -32 3 -27 -5 4 -6 14 -11 22 -11 8 0 14 -5 14 -11 0 -6 9 -8 20 -4
25 8 25 0 -1 -37 -12 -16 -19 -32 -15 -35 3 -3 8 2 12 11 10 25 24 19 24 -11
0 -38 13 -19 17 24 3 45 57 103 76 84 14 -14 30 -15 22 -1 -9 14 30 20 134 17
81 -2 94 -4 97 -19 1 -10 -2 -18 -7 -18 -5 0 -9 -5 -9 -12 0 -7 -55 -66 -122
-131 -68 -65 -122 -122 -121 -126 2 -9 -118 -21 -199 -21 -26 0 -48 5 -48 10
0 6 5 10 11 10 6 0 24 9 39 20 l29 20 6 -20 c10 -30 25 -14 25 26 0 24 -4 33
-12 28 -8 -5 -9 -2 -5 9 3 10 2 17 -4 17 -6 0 -9 -10 -7 -22 2 -17 -5 -27 -29
-40 -44 -24 -46 -24 -40 22 6 52 -9 52 -18 -1 -4 -22 -13 -43 -21 -46 -8 -3
-11 -9 -8 -14 3 -5 -6 -9 -20 -9 -14 0 -28 5 -32 11 -4 8 -9 8 -17 0 -6 -6
-20 -11 -30 -11 -15 0 -17 3 -9 13 6 7 14 37 17 67 4 30 9 62 12 70 7 17 14
79 14 127 0 30 2 32 40 31 39 0 40 -1 34 -29 -4 -18 -2 -29 4 -29 10 0 15 20
12 48 -1 7 9 12 24 12 25 0 25 -1 9 -25 -21 -32 -8 -33 17 -1 11 14 29 27 42
29 41 8 82 7 97 -3z m695 3 c116 3 324 1 423 -5 51 -2 95 -2 97 2 7 11 116 2
131 -11 9 -7 14 -8 14 -1 0 6 25 10 63 10 l63 -1 2 -81 2 -81 -40 -29 c-22
-16 -49 -30 -61 -31 -18 -2 -20 2 -16 31 7 43 -15 51 -32 12 -9 -20 -16 -26
-21 -18 -10 16 -31 4 -24 -13 3 -8 -11 -20 -32 -30 -20 -10 -34 -20 -32 -23
10 -9 63 18 94 47 l32 31 5 -34 c2 -18 1 -34 -4 -36 -5 -2 -9 -8 -9 -13 0 -11
33 9 100 60 37 28 46 31 48 17 2 -9 8 -13 13 -10 6 3 5 -3 -2 -14 -17 -27 -47
-35 -52 -13 -3 9 -5 1 -6 -16 -1 -42 9 -41 52 2 19 19 39 35 45 35 5 0 20 8
33 19 l24 19 0 -42 c0 -28 -6 -45 -19 -55 -13 -10 -15 -15 -5 -21 8 -5 4 -8
-12 -9 -13 0 -60 -4 -104 -7 -44 -4 -127 -9 -185 -11 -99 -4 -104 -3 -82 12
39 28 24 37 -20 11 -24 -14 -52 -23 -63 -21 -11 2 -24 4 -28 4 -5 1 -5 6 -2
12 4 6 13 8 20 5 7 -2 18 7 24 21 l12 26 -28 -18 c-15 -9 -33 -23 -39 -31 -16
-20 -217 -16 -209 4 4 11 1 12 -12 6 -10 -4 -45 -9 -78 -11 l-60 -4 60 40 c33
23 64 42 69 44 11 4 -2 47 -15 47 -5 0 -9 -10 -9 -22 0 -17 -15 -32 -60 -57
-33 -19 -60 -39 -60 -43 0 -4 -9 -8 -19 -8 -11 0 -23 -5 -27 -11 -7 -12 -170
-6 -183 6 -3 4 3 13 14 20 88 61 97 70 76 73 -12 2 -19 8 -16 13 4 5 1 9 -4 9
-6 0 -11 -9 -11 -20 0 -13 -21 -33 -60 -59 -56 -37 -65 -40 -128 -39 -47 1
-59 3 -42 8 14 5 21 8 17 9 -5 1 6 13 23 27 51 43 25 40 -32 -4 -42 -32 -61
-40 -90 -39 -45 1 -46 6 -13 37 24 23 35 47 15 35 -6 -4 -10 8 -10 28 0 29 8
43 49 79 27 25 61 62 76 83 14 22 32 43 38 48 7 4 66 5 132 3 66 -3 152 -4
190 -3z m1715 -2 c0 -5 -3 -11 -7 -13 -21 -9 -56 -75 -57 -107 0 -20 -4 -41
-9 -48 -4 -6 -3 -14 3 -18 17 -11 11 -25 -11 -25 -18 0 -20 4 -14 23 14 44 17
87 6 87 -7 0 -11 20 -11 49 l0 50 43 4 c23 2 45 4 50 5 4 1 7 -2 7 -7z m151
-5 c-6 -7 -20 -12 -29 -9 -26 6 -63 -31 -66 -65 -1 -17 -8 -37 -16 -46 -9 -12
-10 -20 -3 -27 13 -13 52 22 58 52 2 10 7 24 11 31 5 8 2 9 -12 4 -15 -6 -14
-3 6 19 17 18 26 22 31 13 6 -9 15 -6 33 12 l26 23 0 -24 c0 -13 -5 -31 -10
-39 -8 -13 -10 -12 -10 3 0 9 -4 17 -8 17 -4 0 -8 -16 -8 -35 0 -19 4 -35 8
-35 4 0 8 5 8 10 0 6 4 10 9 10 6 0 6 -12 0 -32 -11 -40 -11 -41 0 -33 5 3 12
-5 14 -17 4 -20 4 -19 6 5 0 15 8 30 17 34 15 6 15 7 0 19 -13 9 -16 22 -12
56 2 23 5 49 5 56 1 6 9 12 18 12 13 0 14 -3 5 -12 -17 -17 -15 -33 3 -18 13
11 15 7 15 -29 0 -22 -4 -41 -10 -41 -5 0 -10 -5 -10 -11 0 -5 5 -7 10 -4 6 4
10 -9 10 -31 0 -46 9 -41 11 7 3 40 38 87 51 67 5 -9 8 -8 8 5 0 9 5 17 10 17
20 0 9 -32 -20 -62 -35 -34 -35 -35 -14 -35 18 0 57 51 47 61 -4 4 0 4 10 0
10 -3 17 -1 17 5 0 11 77 71 92 71 11 0 10 -68 -2 -75 -5 -3 -10 -1 -10 5 0
21 -26 40 -39 27 -16 -16 -14 -50 2 -44 10 4 13 -2 9 -19 -4 -24 -32 -55 -32
-36 0 6 5 14 10 17 15 9 12 25 -5 25 -15 0 -19 -10 -16 -42 1 -10 -3 -18 -8
-18 -6 0 -11 5 -11 12 0 6 -3 8 -6 5 -10 -9 16 -38 28 -31 5 3 4 -3 -4 -15 -7
-12 -16 -21 -19 -21 -3 0 -19 -11 -34 -24 -26 -23 -55 -25 -55 -5 0 5 -5 9
-11 9 -6 0 -8 -8 -5 -17 3 -10 2 -23 -2 -28 -10 -14 -234 -16 -225 -2 4 7 0 8
-13 2 -10 -5 -53 -9 -96 -11 -42 -1 -80 -4 -85 -6 -18 -11 -243 -6 -243 5 0 8
-4 7 -12 -1 -7 -7 -20 -12 -30 -12 -25 0 -25 47 0 54 10 4 27 14 38 24 11 9
34 27 52 40 l32 23 10 -26 c5 -14 14 -25 19 -25 13 0 24 34 12 38 -13 4 -15
42 -3 42 5 0 22 11 38 25 16 14 34 25 39 25 6 -1 -5 -13 -23 -29 -32 -27 -32
-30 -23 -72 6 -28 6 -48 0 -53 -5 -6 -9 -14 -9 -18 0 -9 44 17 74 44 11 10 26
18 33 18 15 0 17 -28 3 -50 -7 -11 -2 -17 18 -26 39 -16 58 -7 36 17 -10 11
-14 22 -10 26 4 4 11 1 16 -6 4 -8 15 -11 24 -8 11 4 16 1 16 -12 0 -49 37
-31 45 22 4 23 10 46 12 51 3 4 7 29 9 55 3 46 3 46 -12 19 -19 -35 -44 -37
-44 -3 0 16 6 25 15 25 8 0 15 5 15 11 0 6 15 25 32 43 29 29 39 33 92 35 50
1 57 0 47 -13z m179 1 c0 -8 -11 -20 -25 -27 -14 -7 -25 -17 -25 -22 0 -4 -4
-8 -9 -8 -11 0 -1 53 13 62 18 12 46 9 46 -5z m80 6 c0 -1 -14 -17 -31 -35
-19 -20 -29 -26 -25 -15 3 10 6 26 6 35 0 11 8 17 25 17 14 0 25 -1 25 -2z
m-5160 -13 c-36 -11 -52 -11 -45 0 3 6 21 10 38 9 31 -1 31 -1 7 -9z m1790 0
c0 -5 -5 -10 -11 -10 -19 0 -36 -25 -29 -44 6 -18 7 -18 13 -3 8 22 27 22 27
-1 0 -21 -27 -62 -41 -62 -5 0 -9 10 -10 23 -1 12 -6 2 -12 -23 l-12 -45 -3
55 c-2 34 1 56 8 58 8 3 8 8 0 18 -14 16 -3 37 14 31 7 -3 19 -1 27 4 19 12
29 11 29 -1z m170 -15 c0 -14 -4 -25 -10 -25 -11 0 -14 33 -3 43 11 11 13 8
13 -18z m81 15 c18 0 9 -29 -13 -41 -20 -11 -20 -13 -5 -24 9 -7 17 -21 17
-31 0 -21 -34 -77 -41 -69 -3 2 -2 37 2 77 3 40 4 79 1 87 -4 10 -1 13 12 8
10 -4 22 -7 27 -7z m1826 -20 c-4 -16 -2 -30 3 -30 5 0 11 10 13 23 3 12 3 0
1 -27 -4 -61 5 -54 14 11 9 59 36 69 38 13 1 -25 -6 -43 -25 -64 l-26 -29 28
18 c27 17 27 17 27 -7 0 -15 -12 -35 -30 -51 -34 -31 -45 -34 -36 -11 4 9 3
32 0 52 l-7 35 -13 -29 c-12 -28 -12 -27 -13 29 -1 34 3 57 10 57 6 0 8 9 4
20 -4 12 -2 20 6 20 7 0 9 -10 6 -30z m153 26 c0 -3 -13 -11 -30 -20 -28 -14
-30 -13 -30 5 0 14 7 19 30 19 17 0 30 -2 30 -4z m60 -11 c0 -8 -4 -15 -10
-15 -5 0 -19 -9 -30 -20 -19 -19 -20 -19 -20 -1 0 11 3 26 6 35 8 21 54 21 54
1z m48 -30 c-2 -30 1 -45 9 -45 6 0 13 6 16 13 2 6 7 9 11 6 7 -7 -52 -69 -65
-69 -13 0 -6 100 7 111 8 6 11 15 8 20 -3 5 0 9 6 9 8 0 11 -15 8 -45z m122
25 c0 -12 5 -18 10 -15 6 4 8 11 5 16 -4 5 4 9 17 9 19 0 14 -8 -37 -60 -33
-33 -61 -60 -63 -60 -2 0 0 25 4 56 6 55 6 56 -15 45 -11 -7 -21 -8 -21 -3 0
17 20 27 60 30 35 2 40 0 40 -18z m331 6 c-9 -10 -8 -15 3 -19 8 -3 20 1 26 9
7 8 15 14 19 14 8 0 5 -106 -4 -119 -3 -6 -2 -11 3 -11 16 0 12 -58 -4 -64
-12 -5 -15 1 -14 27 1 17 1 43 1 57 l-1 25 -19 -24 c-10 -13 -23 -21 -30 -17
-6 4 -11 3 -11 -2 0 -16 27 -21 40 -9 10 9 11 9 5 -3 -5 -8 -18 -22 -29 -30
-60 -42 -91 14 -36 64 37 32 36 60 -2 64 -20 2 -32 -4 -49 -27 -13 -17 -26
-31 -29 -31 -4 0 -8 25 -9 55 l-2 55 77 0 c64 0 75 -2 65 -14z m-3448 -5 c14
-2 7 -18 -27 -54 -39 -43 -47 -39 -39 20 6 43 6 43 66 34z m357 -7 c0 -14 -43
-64 -55 -64 -2 0 -6 8 -8 18 -3 11 -5 9 -6 -8 -1 -23 -25 -54 -141 -182 -22
-23 -48 -40 -65 -43 -17 -3 -45 -7 -62 -10 -27 -5 -32 -3 -27 10 5 11 2 14
-10 9 -9 -3 -16 -11 -16 -16 0 -9 -48 -3 -58 7 -5 4 41 65 80 108 17 19 32 28
42 24 24 -10 19 -48 -11 -79 -38 -39 -16 -35 32 7 45 39 50 41 59 20 16 -42
61 3 78 77 10 47 62 110 83 101 8 -2 23 5 34 16 25 25 51 27 51 5z m36 5 c4
-8 9 -8 17 0 16 16 57 14 57 -3 0 -29 -22 -72 -47 -90 l-26 -19 7 41 c7 46 -8
58 -19 15 -3 -15 -11 -31 -17 -34 -5 -4 -13 -22 -17 -40 -4 -20 -13 -34 -21
-34 -27 0 -22 40 10 79 17 23 30 51 30 67 0 29 13 38 26 18z m169 -25 c-3 -20
-18 -47 -31 -61 -14 -14 -22 -28 -19 -32 4 -3 14 4 22 17 26 38 33 25 27 -53
-3 -48 -2 -75 5 -75 13 0 31 33 31 55 0 16 37 54 52 55 4 0 5 -20 1 -45 -4
-31 -2 -45 6 -45 12 0 14 15 11 67 -1 19 9 47 24 72 18 27 22 41 13 41 -7 0
-18 -5 -25 -12 -9 -9 -12 -5 -12 18 0 29 0 29 65 32 59 2 65 1 65 -18 0 -15
-7 -20 -27 -21 -16 -1 -31 -1 -35 0 -5 0 -8 -4 -8 -9 0 -7 13 -8 36 -4 l36 7
-5 -77 c-3 -67 -2 -76 13 -76 18 0 30 36 30 94 0 17 4 37 9 45 6 9 7 -17 4
-65 -3 -43 -9 -83 -14 -88 -12 -13 -12 -29 0 -22 5 3 11 -5 13 -19 3 -13 2
-22 -3 -20 -4 3 -9 0 -11 -6 -2 -6 -42 -12 -93 -15 -78 -3 -88 -2 -72 10 17
13 16 14 -2 19 -14 3 -22 -1 -26 -14 -9 -27 -79 -24 -72 2 6 21 -21 19 -37 -2
-13 -17 -56 -23 -56 -7 0 6 -10 7 -27 3 -45 -12 -193 -14 -193 -3 0 18 58 68
79 68 12 0 28 12 38 28 21 33 74 92 84 92 10 0 -1 -72 -14 -87 -7 -9 -5 -13 6
-13 22 0 41 39 38 77 -3 43 7 73 25 73 8 0 14 7 14 15 0 8 -7 15 -15 15 -8 0
-15 5 -15 10 0 6 16 10 36 10 36 0 36 0 29 -36z m2701 21 c-3 -9 0 -15 8 -15
8 0 17 6 19 13 3 6 6 -7 6 -30 1 -24 -3 -43 -9 -43 -5 0 -9 -10 -7 -22 1 -17
-14 -33 -68 -70 -70 -49 -90 -49 -64 -2 9 17 18 22 31 18 14 -4 18 0 18 19 0
13 11 33 25 45 26 22 33 42 15 42 -5 0 -10 -4 -10 -8 0 -17 -79 -94 -89 -87
-6 3 -11 0 -11 -9 0 -14 -45 -53 -104 -92 l-29 -18 12 21 c18 34 13 51 -8 24
-18 -23 -18 -23 -23 -3 -7 23 8 42 33 42 10 0 20 9 24 20 6 19 133 137 170
158 30 17 68 15 61 -3z m-5049 -1 c-3 -3 -12 -4 -19 -1 -8 3 -5 6 6 6 11 1 17
-2 13 -5z m63 -4 c0 -5 -4 -10 -10 -10 -5 0 -10 5 -10 10 0 6 5 10 10 10 6 0
10 -4 10 -10z m1180 -4 c0 -18 -27 -39 -40 -31 -5 3 -10 -2 -10 -12 0 -11 -26
-44 -58 -75 -51 -49 -60 -54 -70 -39 -9 13 -11 8 -9 -27 2 -35 6 -44 24 -48
22 -6 22 -6 -6 -30 -34 -28 -66 -33 -57 -8 5 12 2 15 -10 10 -14 -5 -15 -4 -5
8 7 8 14 25 15 38 7 46 28 89 42 84 9 -3 16 4 20 19 3 14 12 25 20 25 8 0 14
7 14 15 0 8 5 15 10 15 6 0 10 -6 9 -12 -3 -26 1 -39 11 -33 6 3 10 14 10 23
0 26 51 92 71 92 11 0 19 -6 19 -14z m65 -7 c5 -16 -1 -30 -26 -55 -18 -18
-34 -32 -35 -31 -2 2 4 26 12 55 16 54 38 68 49 31z m115 18 c0 -2 -9 -12 -19
-21 -19 -17 -19 -17 -14 3 3 12 12 21 19 21 8 0 14 -2 14 -3z m70 -11 c0 -8
-7 -17 -16 -20 -9 -4 -13 -2 -8 5 4 6 0 15 -7 20 -10 6 -8 9 9 9 12 0 22 -6
22 -14z m420 -1 c0 -8 -4 -15 -10 -15 -5 0 -10 7 -10 15 0 8 5 15 10 15 6 0
10 -7 10 -15z m114 -7 c-10 -13 -30 -33 -44 -44 -15 -14 -25 -33 -26 -53 -2
-36 -30 -84 -45 -75 -5 3 -7 13 -4 23 3 9 -2 26 -11 37 -12 14 -14 15 -11 3 6
-18 -18 -59 -34 -59 -14 0 -11 38 7 72 12 24 18 28 25 17 7 -12 9 -11 9 2 0 9
9 24 20 34 11 10 20 29 20 42 0 21 4 23 57 23 l56 0 -19 -22z m-1069 2 c3 -5
1 -10 -4 -10 -6 0 -11 5 -11 10 0 6 2 10 4 10 3 0 8 -4 11 -10z m93 -12 c-7
-13 -22 -34 -33 -48 -11 -14 -13 -19 -5 -12 8 6 17 12 21 12 13 0 3 -47 -15
-75 -10 -15 -16 -29 -13 -31 2 -2 -4 -28 -14 -57 -15 -45 -21 -52 -47 -55 -26
-3 -29 0 -27 22 2 18 -2 26 -12 26 -9 0 -13 -6 -10 -14 3 -8 -1 -20 -9 -26 -8
-7 -14 -9 -14 -6 0 4 -6 4 -12 0 -7 -5 -31 -10 -54 -12 -39 -3 -41 -2 -37 21
5 28 -23 45 -41 26 -8 -8 -8 -13 2 -16 6 -3 12 -12 12 -20 0 -13 -3 -13 -15
-3 -9 7 -26 10 -42 6 -25 -6 -26 -5 -10 7 9 8 17 26 17 40 0 29 -19 48 -21 20
-1 -10 -2 -25 -3 -33 0 -8 -17 -22 -36 -31 l-35 -17 -6 26 c-6 25 -13 13 -10
-16 1 -7 -10 -12 -26 -12 -15 0 -39 -3 -53 -7 -22 -6 -24 -5 -11 10 12 15 11
17 -3 17 -9 0 -16 -7 -16 -15 0 -8 -6 -15 -12 -16 -7 0 -35 -3 -62 -5 -44 -4
-47 -3 -32 11 9 9 15 26 15 38 -2 22 -2 22 -6 0 -3 -14 -12 -23 -23 -23 -10 0
-22 -5 -25 -10 -3 -6 -14 -10 -23 -10 -13 0 -13 2 4 14 10 8 16 18 12 22 -4 4
-15 1 -25 -7 -15 -12 -16 -12 -10 3 9 26 -5 29 -33 6 -20 -16 -21 -21 -9 -29
10 -6 5 -9 -18 -9 -26 0 -33 4 -33 20 0 24 -13 26 -30 5 -7 -8 -19 -15 -27
-15 -11 0 -10 6 5 25 28 35 15 84 -15 54 -7 -7 -12 3 -16 34 -5 33 -1 55 13
85 11 23 20 47 20 54 0 8 4 6 11 -4 7 -13 5 -24 -7 -43 -16 -24 -15 -25 5 -25
12 0 21 6 21 16 0 8 5 12 10 9 6 -4 10 -3 9 2 -5 22 22 63 42 63 20 0 21 -2 7
-17 -23 -29 -40 -73 -25 -67 11 4 23 17 61 70 7 9 22 14 36 12 23 -3 24 -3 4
-22 -10 -11 -17 -22 -14 -24 3 -3 -4 -8 -14 -12 -12 -4 -16 -9 -9 -13 13 -8
43 1 43 13 0 14 54 70 67 70 7 0 13 -2 13 -5 0 -9 -25 -50 -35 -57 -6 -5 -3
-8 6 -8 17 0 42 25 52 53 4 11 17 17 37 17 24 0 30 -4 30 -22 l0 -21 23 20
c16 15 40 22 92 26 43 4 62 3 49 -3 -12 -4 -24 -16 -28 -26 -5 -13 -4 -15 7
-6 19 16 27 5 27 -40 0 -21 5 -38 10 -38 6 0 10 10 10 23 0 12 5 39 11 60 10
36 11 37 59 37 28 0 50 -3 50 -7 0 -3 -12 -21 -26 -40 -27 -36 -26 -57 1 -29
23 22 26 20 15 -10 -6 -14 -9 -40 -9 -57 1 -18 3 -24 6 -14 2 9 9 17 14 17 6
0 7 5 4 10 -3 6 -3 16 1 22 5 7 9 19 9 28 1 8 5 30 9 48 6 27 12 32 37 32 l29
0 -27 -47 -26 -48 29 25 c16 14 32 29 36 34 13 19 38 15 38 -6 0 -18 5 -15 28
15 21 28 34 36 60 37 30 0 32 -1 20 -22z m76 12 c36 29 24 0 -18 -46 -25 -27
-47 -46 -50 -43 -3 3 4 26 17 51 12 25 25 41 29 35 4 -7 12 -7 22 3z m737 -7
c-5 -10 -14 -30 -20 -45 -15 -38 -33 -35 -29 4 2 23 11 36 28 45 32 16 32 16
21 -4z m2794 -21 c-3 -17 -15 -38 -26 -48 -18 -17 -19 -16 -19 15 0 22 8 39
23 51 27 22 31 20 22 -18z m-3285 15 c0 -7 -6 -19 -12 -25 -10 -10 -10 -15 0
-21 11 -6 10 -10 -5 -16 -10 -5 -22 -9 -28 -9 -5 -1 -10 -5 -10 -11 0 -5 -19
-29 -42 -52 -24 -24 -43 -37 -43 -30 0 7 6 19 13 26 10 10 8 11 -7 5 -13 -5
-17 -4 -12 4 4 7 15 12 24 12 15 0 15 2 2 10 -12 8 -11 10 6 10 12 0 38 18 59
41 34 38 35 41 18 55 -17 12 -16 13 10 14 16 0 27 -5 27 -13z m3360 -51 c0
-52 -2 -56 -42 -89 -59 -48 -83 -54 -83 -22 0 14 7 26 18 29 9 2 17 -1 17 -7
0 -7 4 -6 9 3 6 8 8 17 5 21 -2 4 0 18 5 31 5 13 13 32 17 43 6 17 9 15 14
-15 l7 -35 2 42 c1 35 7 45 29 52 1 1 2 -23 2 -53z m-4615 34 c-3 -5 -11 -10
-16 -10 -6 0 -7 5 -4 10 3 6 11 10 16 10 6 0 7 -4 4 -10z m1329 -14 c-3 -7
-28 -37 -55 -65 -44 -46 -48 -48 -33 -19 9 18 33 47 53 65 42 37 42 37 35 19z
m32 -13 c-3 -10 -8 -35 -12 -55 -6 -38 -34 -75 -34 -46 0 8 5 19 12 26 9 9 9
12 0 12 -6 0 -17 -18 -23 -40 -17 -56 -55 -96 -74 -80 -8 7 -15 9 -16 4 -1 -5
-2 -18 -3 -29 -1 -16 -9 -21 -41 -23 -39 -3 -40 -3 -17 13 12 9 22 25 22 36 0
12 7 19 19 19 10 0 27 12 37 27 21 33 23 36 74 93 22 25 40 48 40 52 0 5 5 8
11 8 6 0 8 -8 5 -17z m311 -13 c11 -16 10 -18 -4 -13 -13 5 -15 2 -10 -16 4
-17 -9 -39 -59 -98 -65 -76 -65 -76 -120 -80 l-56 -4 47 48 c26 26 54 58 63
71 8 13 21 21 29 18 16 -6 35 36 27 58 -4 10 2 12 20 9 18 -4 28 0 32 11 8 21
17 20 31 -4z m822 8 c0 -7 -4 -22 -9 -33 -7 -17 -9 -15 -9 13 -1 17 4 32 9 32
6 0 10 -6 9 -12z m3260 -90 c-1 -45 -3 -87 -6 -95 -3 -8 -21 -13 -44 -13 l-40
0 16 31 c19 36 12 48 -16 30 -35 -21 -36 -1 -1 30 17 16 32 32 32 36 0 5 10
13 23 18 13 6 22 18 21 32 0 12 3 20 8 17 4 -3 7 -42 7 -86z m-5832 60 c-3 -8
-6 -5 -6 6 -1 11 2 17 5 13 3 -3 4 -12 1 -19z m4752 -34 c-14 -15 -31 -23 -41
-21 -12 4 -18 -1 -18 -13 0 -10 -7 -20 -15 -24 -23 -9 -18 -32 13 -55 l27 -20
-49 -1 c-49 0 -49 0 -31 20 28 30 12 34 -23 5 -43 -36 -73 -34 -35 3 48 46
120 102 126 96 3 -3 8 4 12 15 3 12 15 21 26 21 11 0 19 7 20 18 1 15 2 15 6
-1 3 -11 -5 -29 -18 -43z m-3579 33 c-8 -7 -16 -18 -18 -25 -3 -17 -44 -72
-53 -72 -4 0 -10 -7 -13 -16 -6 -15 -4 -15 18 0 29 18 40 21 31 6 -3 -5 -1
-10 4 -10 6 0 11 5 11 12 0 9 3 9 12 0 10 -10 7 -17 -10 -34 -13 -13 -22 -17
-22 -10 0 9 -5 10 -19 2 -27 -14 -41 -13 -41 3 0 28 31 117 41 117 6 0 22 9
36 20 14 11 28 20 32 20 3 0 -1 -6 -9 -13z m3430 -7 c-6 -11 -16 -20 -22 -20
-6 0 -3 9 7 20 10 11 20 20 22 20 2 0 -1 -9 -7 -20z m-4575 -50 c0 -52 -9 -65
-18 -28 -6 21 -7 21 -26 4 -19 -17 -19 -17 -3 18 8 19 19 33 24 30 4 -3 11 2
14 10 3 9 7 16 8 16 0 0 1 -22 1 -50z m2015 22 c0 -9 3 -26 6 -38 8 -29 -89
-104 -134 -104 -37 0 -38 2 -14 31 58 72 74 87 88 82 10 -3 14 2 14 19 0 17 6
24 20 25 13 1 20 -4 20 -15z m3296 -17 c-7 -18 -26 -20 -26 -2 0 18 24 41 28
27 2 -6 1 -17 -2 -25z m-4070 -28 c-13 -23 -33 -44 -45 -48 -31 -12 -27 7 12
50 44 50 64 49 33 -2z m-1306 24 c0 -5 -6 -14 -14 -20 -12 -10 -13 -8 -9 8 5
21 23 30 23 12z m2672 -16 c-6 -34 -22 -42 -22 -11 0 13 6 27 13 29 6 3 13 6
13 6 1 1 -1 -10 -4 -24z m-1568 -23 c-4 -18 -10 -32 -15 -32 -12 0 -11 11 3
42 16 33 20 30 12 -10z m2054 -51 c-30 -27 -78 -42 -78 -24 0 4 24 31 53 61
l52 53 3 -30 c3 -24 -4 -37 -30 -60z m1751 37 c-2 -13 0 -29 5 -36 9 -16 8
-17 -21 -26 -17 -6 -23 -3 -23 9 0 13 -4 14 -20 5 -11 -6 -25 -8 -30 -5 -5 3
-11 1 -15 -5 -8 -13 -35 -13 -35 0 0 6 7 10 15 10 14 0 71 35 85 51 4 5 25 15
38 18 2 1 2 -9 1 -21z m-4867 -15 c0 -16 2 -32 3 -38 2 -5 3 -14 4 -18 0 -4
12 4 26 19 27 29 42 27 31 -3 -4 -10 -8 -20 -9 -23 -1 -5 -46 -30 -53 -30 -2
0 -4 7 -4 17 0 14 -2 14 -20 -2 -17 -16 -24 -16 -48 -5 -15 7 -22 15 -14 17 6
3 12 11 12 19 0 8 7 14 15 14 9 0 12 -6 9 -15 -7 -18 7 -20 24 -3 19 19 14 37
-8 31 -24 -6 -24 15 0 34 23 19 30 16 32 -14z m5714 -12 c9 7 14 8 14 1 0 -17
-16 -22 -49 -16 -28 6 -30 8 -14 20 15 10 19 10 26 -2 7 -12 12 -13 23 -3z
m-4515 -40 c-16 -16 -71 -35 -71 -24 0 2 12 17 28 32 20 22 31 26 44 20 17 -9
16 -11 -1 -28z m-102 -6 c-9 -9 -23 -13 -32 -9 -24 9 -11 24 21 24 24 0 25 -2
11 -15z m2599 -2 c-16 -2 -40 -2 -55 0 -16 2 -3 4 27 4 30 0 43 -2 28 -4z
m1955 0 c-7 -2 -19 -2 -25 0 -7 3 -2 5 12 5 14 0 19 -2 13 -5z m-2378 -38 c6
-2 -14 -4 -43 -4 -29 -1 -51 3 -48 7 4 7 67 5 91 -3z m-658 -1 c-3 -3 -12 -4
-19 -1 -8 3 -5 6 6 6 11 1 17 -2 13 -5z m91 -1 c-16 -2 -40 -2 -55 0 -16 2 -3
4 27 4 30 0 43 -2 28 -4z m-1422 -11 c-2 -4 -62 -8 -133 -9 -82 -2 -121 1
-108 7 24 11 248 13 241 2z m-279 -8 c-3 -3 -12 -4 -19 -1 -8 3 -5 6 6 6 11 1
17 -2 13 -5z"/>
<path d="M3866 1611 c-3 -5 5 -8 19 -8 14 0 22 3 19 8 -3 5 -11 9 -19 9 -8 0
-16 -4 -19 -9z"/>
<path d="M3910 1569 c0 -11 5 -19 10 -19 6 0 10 4 10 9 0 5 8 11 18 13 12 3 9
6 -10 10 -23 4 -28 2 -28 -13z"/>
<path d="M4217 1573 c-4 -3 -7 -11 -7 -17 0 -6 5 -5 12 2 6 6 9 14 7 17 -3 3
-9 2 -12 -2z"/>
<path d="M2416 1551 c-4 -7 -5 -15 -2 -18 9 -9 19 4 14 18 -4 11 -6 11 -12 0z"/>
<path d="M4166 1546 c3 -9 1 -16 -5 -16 -19 0 -12 -22 9 -27 11 -3 20 -10 20
-15 0 -5 5 -6 10 -3 15 9 12 25 -5 25 -8 0 -15 9 -15 19 0 11 -4 23 -10 26 -6
3 -7 -1 -4 -9z"/>
<path d="M4290 1518 c0 -21 5 -38 10 -38 13 0 13 40 0 60 -7 11 -10 5 -10 -22z"/>
<path d="M1957 1533 c-10 -9 -9 -23 2 -23 5 0 11 7 15 15 5 15 -5 20 -17 8z"/>
<path d="M2104 1519 c-15 -16 -74 -49 -90 -49 -1 0 -5 12 -7 28 -4 26 -4 26
-6 -4 -1 -32 -1 -32 -85 -68 -53 -23 -38 -32 20 -12 25 8 51 13 56 10 5 -4 16
3 23 13 8 11 31 25 53 31 25 8 42 19 45 32 3 14 14 20 31 20 14 0 26 5 26 10
0 18 -47 10 -66 -11z"/>
<path d="M1407 1524 c-4 -4 -4 -10 -1 -15 6 -10 34 0 34 12 0 10 -24 12 -33 3z"/>
<path d="M2796 1504 c-10 -37 -2 -39 11 -4 6 17 8 30 3 30 -4 0 -11 -12 -14
-26z"/>
<path d="M3230 1520 c0 -5 5 -10 10 -10 6 0 10 5 10 10 0 6 -4 10 -10 10 -5 0
-10 -4 -10 -10z"/>
<path d="M3569 1514 c-12 -14 -11 -16 5 -13 11 2 21 10 24 17 5 17 -13 15 -29
-4z"/>
<path d="M3957 1509 c-4 -13 -2 -28 3 -33 14 -14 24 19 12 40 -8 14 -10 13
-15 -7z"/>
<path d="M1860 1508 c0 -25 12 -58 19 -53 10 6 1 65 -10 65 -5 0 -9 -6 -9 -12z"/>
<path d="M3196 1504 c-5 -14 -4 -15 9 -4 17 14 19 20 6 20 -5 0 -12 -7 -15
-16z"/>
<path d="M2157 1504 c-9 -9 -7 -71 2 -104 6 -20 9 -14 15 34 7 54 -1 86 -17
70z"/>
<path d="M3096 1485 c-3 -8 -1 -15 3 -15 5 0 11 7 15 15 3 8 1 15 -3 15 -5 0
-11 -7 -15 -15z"/>
<path d="M3293 1486 c-40 -15 -47 -21 -38 -36 6 -9 10 -9 15 1 5 7 28 14 52
15 66 2 68 3 68 19 0 18 -49 19 -97 1z"/>
<path d="M3915 1490 c-3 -5 1 -10 9 -10 9 0 16 5 16 10 0 6 -4 10 -9 10 -6 0
-13 -4 -16 -10z"/>
<path d="M1615 1469 c-11 -17 -2 -18 19 -3 17 12 17 14 4 14 -9 0 -20 -5 -23
-11z"/>
<path d="M2566 1471 c-4 -7 -5 -15 -2 -18 9 -9 19 4 14 18 -4 11 -6 11 -12 0z"/>
<path d="M2750 1459 c0 -5 -4 -8 -9 -4 -5 3 -12 1 -15 -4 -4 -5 -24 -12 -46
-16 -46 -8 -53 -15 -34 -33 12 -11 14 -10 14 3 0 10 10 15 29 15 42 0 81 17
81 35 0 8 -4 15 -10 15 -5 0 -10 -5 -10 -11z"/>
<path d="M3080 1439 c0 -11 5 -17 10 -14 6 3 10 13 10 21 0 8 -4 14 -10 14 -5
0 -10 -9 -10 -21z"/>
<path d="M3193 1453 c-23 -9 -14 -20 12 -15 14 2 25 8 25 13 0 10 -17 11 -37
2z"/>
<path d="M2110 1435 c0 -9 5 -15 10 -13 12 4 11 16 -1 24 -5 3 -9 -2 -9 -11z"/>
<path d="M4309 1443 c0 -5 -3 -27 -5 -50 -3 -23 0 -44 6 -48 6 -4 10 13 10 49
0 31 -2 56 -5 56 -3 0 -5 -3 -6 -7z"/>
<path d="M2774 1406 c-3 -21 -4 -39 -1 -42 3 -4 9 10 13 30 3 21 4 39 1 42 -3
4 -9 -10 -13 -30z"/>
<path d="M3480 1426 c-159 -18 -177 -23 -235 -66 -79 -59 -131 -124 -153 -189
-11 -32 -10 -35 23 -65 29 -27 35 -39 35 -74 0 -37 4 -44 26 -52 42 -16 209
-26 200 -12 -4 7 -24 11 -44 11 -49 -2 -155 20 -164 35 -4 6 -8 28 -8 49 0 30
-5 40 -25 49 -34 15 -33 52 4 109 33 53 95 116 122 124 11 4 19 10 19 14 0 18
59 32 193 47 163 18 240 14 294 -14 82 -43 209 -102 221 -102 16 0 82 -32 82
-41 0 -4 -10 -10 -22 -14 -20 -6 -21 -8 -5 -12 36 -9 11 -36 -73 -79 -47 -24
-91 -49 -99 -56 -18 -15 -51 -18 -51 -4 0 6 -4 5 -9 -2 -11 -18 -375 -11 -438
8 -57 17 -81 44 -65 70 19 31 14 45 -8 25 -29 -27 -26 -70 8 -93 15 -10 36
-22 47 -26 22 -9 146 -20 215 -20 25 0 48 -4 51 -9 4 -5 15 -5 27 2 26 14 54
15 33 2 -7 -5 -10 -14 -6 -21 5 -9 9 -9 14 -1 10 15 71 33 71 20 0 -5 -5 -9
-11 -9 -5 0 -7 -5 -4 -10 4 -7 18 -4 38 9 40 24 117 37 127 21 8 -13 70 15
130 59 19 14 36 26 38 27 9 5 19 112 11 125 -4 9 -34 26 -66 38 -32 13 -108
47 -169 77 -98 49 -119 55 -185 59 -41 2 -126 -2 -189 -9z m560 -291 c-31 -33
-81 -55 -122 -54 -31 0 -29 3 36 34 38 19 74 39 79 44 21 21 27 -2 7 -24z"/>
<path d="M2572 1405 c0 -16 2 -22 5 -12 2 9 2 23 0 30 -3 6 -5 -1 -5 -18z"/>
<path d="M3120 1420 c-13 -8 -12 -10 3 -10 9 0 17 5 17 10 0 12 -1 12 -20 0z"/>
<path d="M2871 1364 c-7 -30 -11 -58 -8 -60 2 -3 7 9 11 26 3 17 9 29 14 26 4
-2 6 11 4 30 -2 19 -5 34 -7 34 -1 0 -7 -25 -14 -56z"/>
<path d="M3045 1391 c-32 -20 -81 -69 -74 -74 2 -2 32 18 67 45 62 47 66 66 7
29z"/>
<path d="M3511 1344 c-19 -8 -32 -16 -30 -18 8 -6 139 7 139 14 0 8 -36 20
-60 19 -8 0 -30 -6 -49 -15z"/>
<path d="M2192 1320 c0 -14 2 -19 5 -12 2 6 2 18 0 25 -3 6 -5 1 -5 -13z"/>
<path d="M2756 1277 c-6 -47 -10 -58 -17 -44 -6 9 -17 17 -26 17 -15 0 -15 -2
0 -18 10 -10 17 -30 17 -45 0 -22 -6 -28 -42 -38 -24 -6 -58 -11 -75 -11 -18
1 -33 -2 -33 -7 0 -15 78 -19 117 -6 l38 13 5 -36 c5 -35 6 -36 14 -12 5 14 8
45 7 70 -1 25 2 73 7 108 5 34 6 65 2 67 -4 3 -11 -23 -14 -58z"/>
<path d="M4312 1310 c0 -14 2 -19 5 -12 2 6 2 18 0 25 -3 6 -5 1 -5 -13z"/>
<path d="M4417 1323 c-4 -3 -7 -11 -7 -17 0 -6 5 -5 12 2 6 6 9 14 7 17 -3 3
-9 2 -12 -2z"/>
<path d="M2880 1298 c0 -19 2 -20 10 -8 13 19 13 30 0 30 -5 0 -10 -10 -10
-22z"/>
<path d="M2630 1286 c0 -9 5 -16 10 -16 6 0 10 4 10 9 0 6 -4 13 -10 16 -5 3
-10 -1 -10 -9z"/>
<path d="M3710 1294 c8 -3 40 -12 70 -22 30 -9 56 -17 58 -18 2 -1 5 -18 8
-38 6 -49 -17 -59 -152 -64 -108 -4 -184 7 -184 29 0 11 52 38 70 36 8 -1 32
3 53 7 26 6 52 4 86 -8 55 -18 80 -21 66 -7 -23 20 -116 41 -157 35 -154 -21
-210 -87 -95 -112 54 -12 191 -17 240 -9 15 2 46 12 67 22 37 17 40 21 40 59
0 57 -9 66 -76 82 -54 12 -130 19 -94 8z"/>
<path d="M3400 1260 c0 -5 4 -10 9 -10 6 0 13 5 16 10 3 6 -1 10 -9 10 -9 0
-16 -4 -16 -10z"/>
<path d="M4310 1254 c0 -8 5 -12 10 -9 6 3 10 10 10 16 0 5 -4 9 -10 9 -5 0
-10 -7 -10 -16z"/>
<path d="M4411 1254 c0 -11 3 -14 6 -6 3 7 2 16 -1 19 -3 4 -6 -2 -5 -13z"/>
<path d="M2272 1250 c-1 -8 -5 -33 -8 -55 -5 -31 -4 -37 5 -29 7 7 11 29 8 55
-2 24 -4 37 -5 29z"/>
<path d="M2523 1239 c9 -5 17 -19 17 -31 0 -15 -4 -18 -17 -13 -10 5 -33 10
-50 13 -18 2 -33 8 -33 13 0 5 -10 -1 -21 -12 -18 -18 -20 -25 -10 -41 15 -25
-4 -32 -70 -26 -34 4 -49 2 -46 -6 2 -6 31 -12 65 -14 53 -3 61 -6 65 -25 4
-22 4 -22 6 -1 1 26 25 33 94 29 26 -1 47 2 47 6 0 8 -67 14 -117 9 -13 -1
-23 3 -23 9 0 6 13 11 29 11 83 0 124 29 99 70 -7 11 -22 20 -33 20 -18 -1
-19 -1 -2 -11z"/>
<path d="M4000 1209 c0 -5 5 -7 10 -4 6 3 10 8 10 11 0 2 -4 4 -10 4 -5 0 -10
-5 -10 -11z"/>
<path d="M4353 1202 c22 -25 22 -28 -13 -82 -31 -48 -47 -59 -140 -92 -78 -27
-400 -51 -692 -50 -32 0 -58 -3 -58 -7 0 -15 84 -20 151 -10 37 6 159 8 272 6
113 -2 204 0 202 4 -6 9 21 19 54 19 30 0 153 38 161 49 3 4 13 10 22 14 23 8
78 96 78 124 0 12 -9 27 -19 33 -29 15 -36 12 -18 -8z"/>
<path d="M3595 1182 c-22 -23 58 -28 114 -8 32 11 30 12 -38 12 -40 0 -74 -2
-76 -4z"/>
<path d="M4201 1174 c0 -11 3 -14 6 -6 3 7 2 16 -1 19 -3 4 -6 -2 -5 -13z"/>
<path d="M4220 1145 l0 -47 -85 7 c-52 4 -85 3 -85 -3 0 -10 78 -22 147 -22
l41 0 -5 53 c-7 67 -13 73 -13 12z"/>
<path d="M1812 1100 c0 -14 2 -19 5 -12 2 6 2 18 0 25 -3 6 -5 1 -5 -13z"/>
<path d="M2567 1093 c-11 -10 -8 -43 3 -43 6 0 10 11 10 25 0 26 -2 29 -13 18z"/>
<path d="M3045 1090 c-3 -5 -1 -10 4 -10 6 0 11 5 11 10 0 6 -2 10 -4 10 -3 0
-8 -4 -11 -10z"/>
<path d="M2033 1000 c0 -47 2 -66 4 -42 2 23 2 61 0 85 -2 23 -4 4 -4 -43z"/>
<path d="M2957 1055 c-4 -8 -2 -17 3 -20 6 -4 10 3 10 14 0 25 -6 27 -13 6z"/>
<path d="M3040 1035 c0 -8 5 -15 10 -15 6 0 10 7 10 15 0 8 -4 15 -10 15 -5 0
-10 -7 -10 -15z"/>
<path d="M2958 1014 c-5 -4 -8 -21 -8 -38 1 -26 2 -28 11 -13 11 19 8 63 -3
51z"/>
<path d="M4336 982 c-3 -6 11 -13 35 -17 38 -7 59 -2 47 10 -11 12 -76 17 -82
7z"/>
<path d="M1920 966 c0 -9 5 -16 10 -16 6 0 10 4 10 9 0 6 -4 13 -10 16 -5 3
-10 -1 -10 -9z"/>
<path d="M2177 973 c-3 -5 -1 -17 4 -28 7 -17 8 -17 8 8 1 27 -4 34 -12 20z"/>
<path d="M3415 970 c3 -5 8 -10 11 -10 2 0 4 5 4 10 0 6 -5 10 -11 10 -5 0 -7
-4 -4 -10z"/>
<path d="M4231 954 c0 -11 3 -14 6 -6 3 7 2 16 -1 19 -3 4 -6 -2 -5 -13z"/>
<path d="M2645 910 c3 -5 8 -10 11 -10 2 0 4 5 4 10 0 6 -5 10 -11 10 -5 0 -7
-4 -4 -10z"/>
<path d="M2030 891 c0 -5 -13 -12 -30 -16 -16 -4 -30 -11 -30 -16 0 -4 14 -6
30 -2 29 5 30 5 24 -26 -4 -20 -3 -31 5 -31 7 0 11 20 11 50 0 28 -2 50 -5 50
-3 0 -5 -4 -5 -9z"/>
<path d="M4050 890 c0 -5 9 -10 20 -10 11 0 20 5 20 10 0 6 -9 10 -20 10 -11
0 -20 -4 -20 -10z"/>
<path d="M3305 880 c-3 -5 1 -10 9 -10 9 0 16 5 16 10 0 6 -4 10 -9 10 -6 0
-13 -4 -16 -10z"/>
<path d="M3340 880 c0 -5 7 -10 15 -10 8 0 15 5 15 10 0 6 -7 10 -15 10 -8 0
-15 -4 -15 -10z"/>
<path d="M4188 883 c7 -3 16 -2 19 1 4 3 -2 6 -13 5 -11 0 -14 -3 -6 -6z"/>
<path d="M3910 865 c-36 -7 -99 -14 -140 -15 -80 -2 -111 -9 -107 -25 1 -5
-15 -11 -35 -13 -21 -2 -38 -8 -38 -13 0 -14 71 1 88 18 13 12 41 16 107 14
56 -2 198 24 203 37 2 6 0 11 -5 11 -4 -1 -37 -7 -73 -14z"/>
<path d="M4240 870 c0 -5 11 -10 25 -10 14 0 25 5 25 10 0 6 -11 10 -25 10
-14 0 -25 -4 -25 -10z"/>
<path d="M1930 860 c0 -5 5 -10 10 -10 6 0 10 5 10 10 0 6 -4 10 -10 10 -5 0
-10 -4 -10 -10z"/>
<path d="M4090 842 c-20 -9 -21 -34 -2 -52 13 -12 14 -10 10 13 -4 19 -1 27 8
27 8 0 14 5 14 10 0 11 -8 12 -30 2z"/>
<path d="M4321 805 c1 -22 3 -24 6 -9 3 16 9 20 24 17 10 -3 19 -9 19 -14 0
-5 4 -9 10 -9 5 0 7 7 4 15 -7 18 7 20 24 3 9 -9 12 -8 12 4 0 12 -12 17 -50
20 -50 3 -50 3 -49 -27z"/>
<path d="M4565 820 c3 -5 8 -10 11 -10 2 0 4 5 4 10 0 6 -5 10 -11 10 -5 0 -7
-4 -4 -10z"/>
<path d="M3528 773 c7 -3 16 -2 19 1 4 3 -2 6 -13 5 -11 0 -14 -3 -6 -6z"/>
<path d="M4150 760 c0 -11 6 -20 14 -20 8 0 16 -7 20 -15 5 -13 36 -22 36 -11
0 6 -60 66 -66 66 -2 0 -4 -9 -4 -20z"/>
<path d="M4572 750 c0 -19 2 -27 5 -17 2 9 2 25 0 35 -3 9 -5 1 -5 -18z"/>
<path d="M3422 749 c18 -7 33 -7 45 0 14 8 9 10 -27 10 -42 -1 -43 -1 -18 -10z"/>
<path d="M3530 740 c-11 -7 -6 -10 20 -10 26 0 31 3 20 10 -8 5 -17 10 -20 10
-3 0 -12 -5 -20 -10z"/>
<path d="M4082 729 c1 -12 9 -24 16 -27 9 -3 13 3 10 19 -1 12 -9 24 -16 27
-9 3 -13 -3 -10 -19z"/>
<path d="M4253 736 c21 -17 22 -26 0 -26 -14 0 -14 -2 2 -20 14 -16 20 -17 27
-8 13 21 9 55 -8 62 -27 10 -40 6 -21 -8z"/>
<path d="M3080 730 c0 -5 5 -10 11 -10 5 0 7 5 4 10 -3 6 -8 10 -11 10 -2 0
-4 -4 -4 -10z"/>
<path d="M3160 729 c0 -5 5 -7 10 -4 6 3 10 8 10 11 0 2 -4 4 -10 4 -5 0 -10
-5 -10 -11z"/>
<path d="M3280 730 c9 -4 31 -5 50 0 34 8 33 8 -15 9 -34 0 -45 -3 -35 -9z"/>
<path d="M4043 715 c-8 -22 6 -33 17 -15 13 20 12 30 0 30 -6 0 -13 -7 -17
-15z"/>
<path d="M4316 703 c-14 -15 -5 -43 14 -43 11 0 20 5 20 11 0 15 -26 39 -34
32z"/>
<path d="M2222 673 c2 -11 12 -17 28 -17 16 0 26 6 28 17 3 13 -4 17 -28 17
-24 0 -31 -4 -28 -17z"/>
<path d="M3678 583 c7 -3 16 -2 19 1 4 3 -2 6 -13 5 -11 0 -14 -3 -6 -6z"/>
<path d="M3710 565 c0 -18 46 -17 62 2 8 10 2 13 -26 13 -25 0 -36 -4 -36 -15z"/>
<path d="M3788 533 c6 -2 18 -2 25 0 6 3 1 5 -13 5 -14 0 -19 -2 -12 -5z"/>
<path d="M5900 1601 c0 -6 4 -13 10 -16 6 -3 7 1 4 9 -7 18 -14 21 -14 7z"/>
<path d="M5970 1590 c-8 -5 -12 -12 -9 -15 4 -3 12 1 19 10 14 17 11 19 -10 5z"/>
<path d="M4898 1583 c-16 -3 -28 -11 -28 -19 0 -10 7 -13 25 -8 28 7 30 1 15
-61 -16 -65 -22 -127 -12 -121 5 3 12 29 16 57 4 29 14 68 22 87 17 42 18 72
2 71 -7 -1 -25 -4 -40 -6z"/>
<path d="M5156 1581 c-3 -5 0 -14 8 -20 11 -9 15 -8 20 5 3 8 6 18 6 20 0 8
-29 4 -34 -5z"/>
<path d="M5207 1554 c4 -10 -2 -17 -16 -21 -11 -3 -21 -10 -21 -15 0 -6 9 -8
21 -5 20 5 20 3 14 -44 -4 -29 -3 -49 3 -49 5 0 12 19 15 41 3 23 11 45 17 49
9 6 9 13 -1 28 -16 26 -41 38 -32 16z"/>
<path d="M5397 1550 c3 -11 7 -20 9 -20 2 0 4 9 4 20 0 11 -4 20 -9 20 -5 0
-7 -9 -4 -20z"/>
<path d="M5319 1558 c-9 -45 -9 -88 0 -88 6 0 11 19 11 45 0 25 -2 45 -5 45
-3 0 -5 -1 -6 -2z"/>
<path d="M5356 1542 c-8 -13 4 -72 14 -72 4 0 6 17 3 38 -6 42 -8 47 -17 34z"/>
<path d="M5927 1533 c-12 -12 -7 -22 8 -17 8 4 15 10 15 15 0 11 -14 12 -23 2z"/>
<path d="M5960 1531 c0 -5 5 -13 10 -16 6 -3 10 -2 10 4 0 5 -4 13 -10 16 -5
3 -10 2 -10 -4z"/>
<path d="M5033 1440 c0 -41 2 -58 4 -37 2 20 2 54 0 75 -2 20 -4 3 -4 -38z"/>
<path d="M4658 1475 c-3 -14 -1 -28 3 -31 5 -3 9 9 9 25 0 38 -6 40 -12 6z"/>
<path d="M5435 1468 c8 -42 8 -67 -1 -100 -4 -18 -2 -28 5 -28 6 0 11 -8 11
-17 0 -12 3 -14 10 -7 13 13 3 44 -14 44 -7 0 -6 4 3 9 10 7 12 23 6 70 -4 33
-11 61 -16 61 -6 0 -7 -14 -4 -32z"/>
<path d="M5835 1487 c-4 -10 -5 -21 -1 -24 10 -10 18 4 13 24 -4 17 -4 17 -12
0z"/>
<path d="M5986 1487 c3 -10 9 -15 12 -12 3 3 0 11 -7 18 -10 9 -11 8 -5 -6z"/>
<path d="M4967 1458 c-2 -18 -11 -80 -20 -138 -22 -146 -26 -200 -16 -200 5 0
9 8 10 18 0 9 4 49 10 87 5 39 12 95 14 125 3 30 10 59 15 64 12 12 13 76 1
76 -5 0 -11 -15 -14 -32z"/>
<path d="M5181 1454 c0 -11 3 -14 6 -6 3 7 2 16 -1 19 -3 4 -6 -2 -5 -13z"/>
<path d="M5487 1463 c-11 -10 -8 -123 3 -123 6 0 10 28 10 65 0 65 -1 71 -13
58z"/>
<path d="M5530 1410 c0 -5 5 -10 10 -10 6 0 10 5 10 10 0 6 -4 10 -10 10 -5 0
-10 -4 -10 -10z"/>
<path d="M5941 1404 c0 -11 3 -14 6 -6 3 7 2 16 -1 19 -3 4 -6 -2 -5 -13z"/>
<path d="M5827 1380 c3 -11 7 -20 9 -20 2 0 4 9 4 20 0 11 -4 20 -9 20 -5 0
-7 -9 -4 -20z"/>
<path d="M4649 1378 c-1 -7 -3 -25 -5 -40 -1 -16 1 -28 7 -28 5 0 9 18 9 40 0
36 -8 57 -11 28z"/>
<path d="M5961 1374 c0 -11 3 -14 6 -6 3 7 2 16 -1 19 -3 4 -6 -2 -5 -13z"/>
<path d="M4992 1350 c0 -19 2 -27 5 -17 2 9 2 25 0 35 -3 9 -5 1 -5 -18z"/>
<path d="M5570 1335 c0 -16 16 -20 24 -6 3 5 -1 11 -9 15 -9 3 -15 0 -15 -9z"/>
<path d="M5020 1328 c0 -7 5 -20 10 -28 8 -12 10 -9 10 13 0 15 -4 27 -10 27
-5 0 -10 -6 -10 -12z"/>
<path d="M5530 1300 c0 -11 5 -20 10 -20 6 0 10 9 10 20 0 11 -4 20 -10 20 -5
0 -10 -9 -10 -20z"/>
<path d="M5950 1311 c0 -6 5 -13 10 -16 6 -3 10 1 10 9 0 9 -4 16 -10 16 -5 0
-10 -4 -10 -9z"/>
<path d="M5890 1283 c0 -22 2 -25 10 -13 13 20 13 40 0 40 -5 0 -10 -12 -10
-27z"/>
<path d="M5088 1232 c-2 -26 -1 -49 2 -52 4 -3 10 -12 13 -20 3 -8 6 13 6 47
1 74 -15 93 -21 25z"/>
<path d="M6006 1253 c-6 -14 -5 -15 5 -6 7 7 10 15 7 18 -3 3 -9 -2 -12 -12z"/>
<path d="M5950 1224 c0 -8 5 -12 10 -9 6 3 10 10 10 16 0 5 -4 9 -10 9 -5 0
-10 -7 -10 -16z"/>
<path d="M5950 1150 c0 -19 3 -21 12 -12 9 9 9 15 0 24 -9 9 -12 7 -12 -12z"/>
<path d="M5390 1140 c0 -5 5 -10 10 -10 6 0 10 5 10 10 0 6 -4 10 -10 10 -5 0
-10 -4 -10 -10z"/>
<path d="M4966 1111 c-4 -7 -5 -15 -2 -18 9 -9 19 4 14 18 -4 11 -6 11 -12 0z"/>
<path d="M5836 1084 c-3 -9 -2 -23 4 -32 7 -14 9 -10 10 16 0 35 -5 41 -14 16z"/>
<path d="M5731 983 c2 -117 12 -144 19 -53 5 63 6 64 38 71 26 5 35 3 47 -14
13 -19 15 -19 15 -4 0 14 5 17 20 12 14 -4 20 -2 20 8 0 24 -23 37 -42 23 -9
-6 -34 -10 -57 -8 -38 4 -41 6 -41 33 0 16 -5 29 -11 29 -6 0 -9 -35 -8 -97z"/>
<path d="M5949 1040 c-7 -35 -4 -48 7 -38 3 4 4 21 2 40 l-3 33 -6 -35z"/>
<path d="M5800 1050 c0 -5 5 -10 10 -10 6 0 10 5 10 10 0 6 -4 10 -10 10 -5 0
-10 -4 -10 -10z"/>
<path d="M4967 1026 c-4 -10 -5 -21 -2 -24 9 -9 17 6 13 25 -3 17 -4 17 -11
-1z"/>
<path d="M5630 939 c0 -11 4 -18 10 -14 5 3 7 12 3 20 -7 21 -13 19 -13 -6z"/>
<path d="M5665 941 c-3 -5 -1 -12 5 -16 5 -3 10 -1 10 6 0 7 8 5 20 -6 19 -18
20 -17 20 3 0 17 -6 22 -24 22 -14 0 -27 -4 -31 -9z"/>
<path d="M5810 934 c0 -8 5 -12 10 -9 6 4 8 11 5 16 -9 14 -15 11 -15 -7z"/>
<path d="M5680 891 c8 -6 11 -11 7 -11 -12 0 12 -40 24 -40 6 0 9 12 7 28 -2
20 -9 28 -28 30 -20 2 -22 1 -10 -7z"/>
<path d="M4872 865 c0 -16 2 -22 5 -12 2 9 2 23 0 30 -3 6 -5 -1 -5 -18z"/>
<path d="M5838 855 c2 -14 6 -25 7 -25 1 0 5 11 7 25 3 16 1 25 -7 25 -8 0
-10 -9 -7 -25z"/>
<path d="M5812 850 c0 -14 2 -19 5 -12 2 6 2 18 0 25 -3 6 -5 1 -5 -13z"/>
<path d="M5668 803 c6 -2 18 -2 25 0 6 3 1 5 -13 5 -14 0 -19 -2 -12 -5z"/>
<path d="M5835 770 c0 -22 3 -40 7 -40 5 0 8 14 8 30 0 17 5 30 13 30 8 0 7 4
-3 10 -23 15 -25 13 -25 -30z"/>
<path d="M5890 790 c12 -8 12 -12 2 -18 -9 -6 -11 -18 -6 -36 8 -35 24 -43 24
-12 0 13 -5 26 -11 28 -7 2 -4 10 7 18 11 9 15 10 10 3 -5 -9 -1 -13 13 -13
24 0 36 16 20 26 -7 4 -26 8 -43 10 -23 3 -27 1 -16 -6z"/>
<path d="M5580 776 c0 -8 -6 -16 -12 -19 -10 -4 -10 -7 -1 -18 9 -9 10 -16 2
-26 -9 -10 -8 -13 4 -13 12 0 15 11 15 45 0 25 -2 45 -4 45 -2 0 -4 -6 -4 -14z"/>
<path d="M5600 750 c0 -5 5 -10 10 -10 6 0 10 5 10 10 0 6 -4 10 -10 10 -5 0
-10 -4 -10 -10z"/>
<path d="M5935 720 c10 -11 22 -20 27 -20 15 0 9 28 -8 34 -30 11 -37 6 -19
-14z"/>
<path d="M5446 715 c4 -8 15 -15 25 -15 23 0 25 16 3 24 -25 10 -34 7 -28 -9z"/>
<path d="M5540 638 c0 -6 3 -8 7 -5 3 4 12 2 20 -4 10 -9 13 -8 13 5 0 9 -8
16 -20 16 -11 0 -20 -5 -20 -12z"/>
<path d="M309 1484 c-12 -14 -11 -16 5 -13 11 2 21 10 24 17 5 17 -13 15 -29
-4z"/>
<path d="M637 1465 c-10 -14 -14 -25 -9 -25 10 0 42 33 42 43 0 14 -16 5 -33
-18z"/>
<path d="M540 1465 c0 -11 -5 -15 -15 -11 -10 3 -17 -3 -22 -22 -3 -15 -27
-49 -52 -75 -49 -51 -59 -67 -43 -67 13 0 105 106 114 131 4 10 12 19 17 19
13 0 22 28 11 35 -6 4 -10 -1 -10 -10z"/>
<path d="M600 1415 c-7 -9 -8 -15 -2 -15 5 0 12 7 16 15 3 8 4 15 2 15 -2 0
-9 -7 -16 -15z"/>
<path d="M647 1423 c-4 -3 -7 -13 -7 -22 1 -13 3 -13 11 2 11 19 8 33 -4 20z"/>
<path d="M350 1404 c0 -8 5 -12 10 -9 6 3 10 10 10 16 0 5 -4 9 -10 9 -5 0
-10 -7 -10 -16z"/>
<path d="M555 1410 c-3 -5 -3 -15 0 -20 7 -12 -30 -65 -78 -115 -41 -42 -61
-74 -52 -83 4 -4 10 -1 12 5 3 7 13 23 23 35 l19 23 1 -39 c0 -52 10 -40 15
18 3 37 11 56 39 86 21 23 37 34 40 27 2 -7 5 5 5 25 1 37 -12 57 -24 38z"/>
<path d="M327 1394 c-4 -4 -7 -14 -7 -23 0 -11 3 -12 11 -4 6 6 10 16 7 23 -2
6 -7 8 -11 4z"/>
<path d="M615 1334 c-21 -26 -56 -70 -76 -98 -21 -28 -48 -62 -59 -75 -12 -13
-19 -30 -16 -38 4 -8 6 -21 6 -29 0 -8 5 -14 11 -14 7 0 9 10 6 26 -4 22 28
86 52 104 4 3 18 21 31 40 14 19 33 44 43 55 28 30 50 65 45 71 -3 2 -22 -16
-43 -42z"/>
<path d="M291 1275 c-24 -24 -47 -42 -52 -40 -8 6 -40 -51 -32 -59 8 -8 43 18
43 31 0 7 5 13 11 13 10 0 47 39 77 82 24 33 -2 18 -47 -27z"/>
<path d="M146 1285 c-3 -9 -6 -22 -5 -28 0 -7 5 -1 10 12 5 13 8 26 5 28 -2 2
-6 -3 -10 -12z"/>
<path d="M617 1280 c-3 -11 -1 -23 4 -26 5 -3 9 6 9 20 0 31 -6 34 -13 6z"/>
<path d="M346 1245 c-9 -14 -13 -25 -8 -25 5 0 19 11 32 25 18 19 20 25 8 25
-9 0 -23 -11 -32 -25z"/>
<path d="M610 1225 c0 -8 -11 -22 -25 -31 -14 -9 -25 -21 -25 -26 0 -6 -14
-29 -32 -52 -86 -111 -120 -143 -157 -150 -29 -5 -32 -4 -21 9 7 8 16 12 21 9
5 -3 7 1 4 8 -3 7 11 30 30 52 19 21 35 42 35 47 0 18 -16 8 -40 -27 -14 -19
-37 -49 -52 -67 -35 -40 -35 -44 2 -52 17 -4 30 -10 30 -13 0 -4 -15 -23 -33
-43 -17 -20 -54 -62 -80 -93 -27 -31 -55 -56 -63 -56 -8 0 -14 -8 -14 -19 0
-10 -11 -26 -25 -35 -28 -18 -33 -36 -11 -36 14 0 51 39 58 61 2 5 13 11 26
12 16 1 22 8 22 24 0 30 18 39 23 11 3 -16 4 -15 2 4 -1 19 8 36 27 55 15 15
28 31 28 36 0 14 27 37 44 37 10 0 16 9 16 25 0 14 5 25 10 25 6 0 14 8 17 18
4 9 20 31 35 47 15 17 31 38 34 48 3 9 11 17 17 17 7 0 18 14 25 30 8 17 18
28 23 24 5 -3 14 8 20 25 6 17 17 31 24 31 7 0 15 10 19 23 8 31 7 37 -4 37
-5 0 -10 -7 -10 -15z"/>
<path d="M310 1195 c-7 -9 -8 -15 -2 -15 5 0 12 7 16 15 3 8 4 15 2 15 -2 0
-9 -7 -16 -15z"/>
<path d="M371 1154 c-11 -15 -18 -31 -14 -38 5 -7 11 0 17 17 5 15 16 27 23
27 7 0 13 5 13 10 0 18 -18 11 -39 -16z"/>
<path d="M220 1110 c0 -6 -18 -27 -40 -47 -41 -38 -52 -60 -25 -49 8 3 15 1
15 -5 0 -6 4 -8 10 -4 5 3 7 11 5 18 -3 7 8 28 25 47 31 37 37 50 20 50 -5 0
-10 -5 -10 -10z"/>
<path d="M291 1070 c-62 -69 -67 -96 -5 -35 19 19 41 35 48 35 9 0 12 7 9 20
-7 27 -12 25 -52 -20z"/>
<path d="M220 1033 c0 -13 5 -23 10 -23 13 0 13 11 0 30 -8 12 -10 11 -10 -7z"/>
<path d="M326 1025 c4 -8 10 -12 15 -9 11 6 2 24 -11 24 -5 0 -7 -7 -4 -15z"/>
<path d="M210 975 c-8 -14 -24 -28 -36 -31 -30 -8 -33 -20 -25 -107 1 -5 5 -5
11 -2 5 3 7 19 4 34 -7 36 12 50 32 25 14 -18 15 -17 10 13 -4 23 -2 31 7 27
9 -3 13 7 14 31 1 19 0 35 -1 35 -2 0 -9 -11 -16 -25z"/>
<path d="M295 980 c-3 -11 -3 -24 0 -30 3 -5 -6 -24 -22 -40 -68 -74 -97 -100
-110 -100 -7 0 -13 -6 -13 -14 0 -8 -3 -21 -6 -30 -4 -11 0 -16 12 -16 12 0
26 15 38 40 20 41 45 58 57 39 4 -7 10 1 14 19 3 17 17 42 31 57 16 18 22 31
16 38 -5 7 -8 22 -6 35 5 27 -2 29 -11 2z"/>
<path d="M291 874 c0 -11 3 -14 6 -6 3 7 2 16 -1 19 -3 4 -6 -2 -5 -13z"/>
<path d="M276 707 c-5 -10 -6 -21 -2 -24 3 -3 1 -12 -6 -20 -6 -7 -8 -17 -4
-21 4 -4 21 8 38 26 16 19 26 37 23 40 -4 4 -13 -1 -20 -11 -13 -18 -14 -17
-17 5 -4 20 -5 21 -12 5z"/>
<path d="M220 643 c0 -15 -4 -33 -8 -40 -11 -17 -52 -5 -45 13 3 8 0 14 -6 14
-6 0 -11 -4 -11 -9 0 -5 -3 -17 -7 -26 -5 -14 -2 -16 18 -11 23 7 23 6 5 -8
-11 -9 -26 -16 -34 -16 -11 0 -11 -3 2 -15 31 -31 70 -14 113 51 13 20 14 29
5 32 -6 2 -12 10 -12 17 0 8 -4 17 -10 20 -6 4 -10 -6 -10 -22z"/>
<path d="M330 630 c0 -6 -8 -10 -17 -8 -11 2 -17 -2 -15 -11 3 -16 -26 -51
-43 -51 -7 0 -15 -9 -18 -20 -5 -21 16 -29 28 -10 3 6 15 10 26 10 13 0 19 7
19 23 0 12 9 29 20 37 21 15 27 40 10 40 -5 0 -10 -5 -10 -10z"/>
<path d="M722 1468 c-14 -14 -16 -35 -3 -42 5 -3 14 8 20 24 10 31 4 39 -17
18z"/>
<path d="M5676 1181 c-9 -9 -16 -20 -16 -23 0 -12 39 4 44 18 8 21 -10 25 -28
5z"/>
<path d="M5100 1020 c0 -5 5 -10 10 -10 6 0 10 5 10 10 0 6 -4 10 -10 10 -5 0
-10 -4 -10 -10z"/>
<path d="M1518 863 c6 -2 18 -2 25 0 6 3 1 5 -13 5 -14 0 -19 -2 -12 -5z"/>
<path d="M2670 818 c0 -11 38 -10 44 1 3 5 -5 8 -19 7 -14 0 -25 -4 -25 -8z"/>
<path d="M2915 730 c3 -5 8 -10 11 -10 2 0 4 5 4 10 0 6 -5 10 -11 10 -5 0 -7
-4 -4 -10z"/>
<path d="M1128 643 c7 -3 16 -2 19 1 4 3 -2 6 -13 5 -11 0 -14 -3 -6 -6z"/>
<path d="M3119 529 c-10 -6 -7 -9 14 -9 29 0 35 5 14 13 -8 3 -20 1 -28 -4z"/>
<path d="M3218 371 c-71 -70 -88 -96 -40 -63 76 56 145 134 115 131 -5 0 -38
-30 -75 -68z"/>
<path d="M3340 382 c-25 -26 -72 -71 -104 -100 -32 -29 -57 -54 -55 -57 11
-10 59 9 59 24 0 9 38 48 85 86 78 65 102 96 73 94 -7 0 -33 -22 -58 -47z"/>
<path d="M3005 410 c-3 -5 -1 -10 4 -10 6 0 11 5 11 10 0 6 -2 10 -4 10 -3 0
-8 -4 -11 -10z"/>
<path d="M3031 409 c-1 -9 -8 -22 -16 -29 -16 -13 -20 -40 -6 -40 13 0 61 48
61 61 0 6 -6 9 -14 6 -8 -3 -17 -1 -20 6 -2 7 -5 5 -5 -4z"/>
<path d="M2900 399 c0 -5 5 -7 10 -4 6 3 10 8 10 11 0 2 -4 4 -10 4 -5 0 -10
-5 -10 -11z"/>
<path d="M2931 358 c-5 -13 -5 -33 0 -45 5 -15 4 -23 -7 -27 -8 -3 -14 -13
-14 -23 0 -15 2 -16 10 -3 6 10 7 -2 3 -37 -4 -37 -2 -53 6 -53 7 0 11 21 11
58 1 34 6 65 15 76 13 17 15 18 15 3 0 -9 5 -17 10 -17 6 0 10 14 10 30 0 35
-6 37 -33 13 -19 -18 -19 -17 -12 15 8 37 -1 43 -14 10z"/>
<path d="M3045 301 c-3 -5 -1 -12 5 -16 5 -3 10 1 10 9 0 18 -6 21 -15 7z"/>
<path d="M3128 273 c7 -3 16 -2 19 1 4 3 -2 6 -13 5 -11 0 -14 -3 -6 -6z"/>
<path d="M2870 215 c-7 -9 -8 -15 -2 -15 5 0 12 7 16 15 3 8 4 15 2 15 -2 0
-9 -7 -16 -15z"/>
<path d="M3528 443 c6 -2 18 -2 25 0 6 3 1 5 -13 5 -14 0 -19 -2 -12 -5z"/>
<path d="M3864 424 c-15 -12 -16 -15 -2 -10 10 3 18 -1 21 -12 4 -15 5 -15 12
1 11 27 -7 40 -31 21z"/>
<path d="M4140 421 c0 -10 30 -24 37 -17 3 3 2 9 -2 15 -8 13 -35 15 -35 2z"/>
<path d="M4578 405 c2 -14 6 -25 8 -25 2 0 4 11 4 25 0 14 -4 25 -9 25 -4 0
-6 -11 -3 -25z"/>
<path d="M4029 399 l-24 -20 25 7 c31 8 45 20 32 28 -5 3 -21 -3 -33 -15z"/>
<path d="M4520 410 c0 -5 5 -10 10 -10 6 0 10 5 10 10 0 6 -4 10 -10 10 -5 0
-10 -4 -10 -10z"/>
<path d="M4413 398 c2 -7 7 -13 12 -13 5 0 10 6 13 13 2 6 -4 12 -13 12 -9 0
-15 -6 -12 -12z"/>
<path d="M3500 353 c-52 -43 -73 -73 -52 -73 6 0 13 6 16 13 5 10 7 10 12 0
10 -21 24 -15 24 11 0 15 13 36 35 55 19 17 35 33 35 36 0 12 -18 1 -70 -42z"/>
<path d="M3695 391 c-3 -5 -1 -12 5 -16 5 -3 10 1 10 9 0 18 -6 21 -15 7z"/>
<path d="M3760 350 c0 -11 5 -20 10 -20 6 0 10 9 10 20 0 11 -4 20 -10 20 -5
0 -10 -9 -10 -20z"/>
<path d="M3873 363 c-15 -5 -17 -23 -4 -23 5 0 11 7 15 15 3 8 4 15 3 14 -1 0
-8 -3 -14 -6z"/>
<path d="M4466 355 c-3 -8 -1 -15 4 -15 6 0 10 7 10 15 0 8 -2 15 -4 15 -2 0
-6 -7 -10 -15z"/>
<path d="M4580 350 c0 -5 5 -10 10 -10 6 0 10 5 10 10 0 6 -4 10 -10 10 -5 0
-10 -4 -10 -10z"/>
<path d="M3676 342 c-2 -4 -1 -14 5 -22 7 -12 9 -10 9 8 0 23 -5 28 -14 14z"/>
<path d="M3616 325 c-8 -8 -22 -15 -30 -15 -9 0 -16 -5 -16 -12 0 -7 -12 -25
-27 -40 -21 -22 -23 -28 -10 -28 9 0 17 4 17 9 0 5 9 13 20 16 11 3 20 15 20
26 0 10 3 18 8 17 10 -3 52 25 52 34 0 13 -18 9 -34 -7z"/>
<path d="M3845 274 c-44 -30 -81 -59 -83 -64 -2 -6 -9 -10 -17 -10 -7 0 -19
-8 -26 -17 -12 -15 -12 -16 4 -10 27 10 141 89 150 104 4 7 14 13 21 13 7 0
21 9 31 20 29 32 5 21 -80 -36z"/>
<path d="M4260 310 c0 -5 5 -10 10 -10 6 0 10 5 10 10 0 6 -4 10 -10 10 -5 0
-10 -4 -10 -10z"/>
<path d="M4413 303 c-15 -5 -17 -23 -4 -23 5 0 11 7 15 15 3 8 4 15 3 14 -1 0
-8 -3 -14 -6z"/>
<path d="M4014 275 c-11 -8 -14 -15 -6 -15 6 0 12 -7 12 -15 0 -8 5 -15 10
-15 6 0 10 14 10 30 0 35 0 35 -26 15z"/>
<path d="M4125 264 c-16 -13 -36 -29 -42 -35 -22 -17 -14 -30 10 -17 12 7 24
16 27 19 3 3 13 8 23 12 9 3 17 16 17 27 0 25 2 25 -35 -6z"/>
<path d="M3392 258 c-14 -14 -16 -28 -2 -28 5 0 14 9 20 20 12 22 1 27 -18 8z"/>
<path d="M4212 235 c-45 -31 -66 -55 -46 -55 11 0 104 74 104 82 0 12 0 11
-58 -27z"/>
<path d="M4317 232 c-26 -16 -36 -32 -19 -32 12 1 57 38 52 44 -3 2 -18 -3
-33 -12z"/>
<path d="M4125 179 c-4 -6 -5 -13 -2 -16 7 -7 27 6 27 18 0 12 -17 12 -25 -2z"/>
<path d="M4450 165 c-7 -9 -11 -18 -8 -20 3 -3 11 1 18 10 7 9 11 18 8 20 -3
3 -11 -1 -18 -10z"/>
<path d="M3675 160 c-3 -5 -2 -10 4 -10 5 0 13 5 16 10 3 6 2 10 -4 10 -5 0
-13 -4 -16 -10z"/>
<path d="M5672 328 c-6 -16 -16 -28 -22 -28 -6 0 -8 -5 -5 -11 4 -6 14 -8 22
-5 12 5 14 1 10 -14 -6 -24 12 -38 24 -19 12 19 11 52 0 44 -5 -3 -11 9 -13
27 l-4 33 -12 -27z"/>
<path d="M5831 285 c5 -26 33 -26 36 0 2 11 0 14 -3 7 -5 -10 -9 -10 -21 0
-13 10 -15 9 -12 -7z"/>
<path d="M5744 245 c-16 -17 -18 -25 -9 -29 15 -5 59 37 48 47 -10 10 -16 7
-39 -18z"/>
<path d="M5806 261 c-4 -7 -5 -15 -2 -18 9 -9 19 4 14 18 -4 11 -6 11 -12 0z"/>
<path d="M5840 235 c0 -9 6 -12 15 -9 8 4 15 7 15 9 0 2 -7 5 -15 9 -9 3 -15
0 -15 -9z"/>
<path d="M5620 220 c0 -5 4 -10 9 -10 6 0 13 5 16 10 3 6 -1 10 -9 10 -9 0
-16 -4 -16 -10z"/>
<path d="M5230 180 c0 -5 7 -7 15 -4 8 4 15 8 15 10 0 2 -7 4 -15 4 -8 0 -15
-4 -15 -10z"/>
<path d="M5770 180 c0 -5 5 -10 11 -10 5 0 7 5 4 10 -3 6 -8 10 -11 10 -2 0
-4 -4 -4 -10z"/>
<path d="M5318 163 c7 -3 16 -2 19 1 4 3 -2 6 -13 5 -11 0 -14 -3 -6 -6z"/>
<path d="M5280 426 c0 -9 5 -16 10 -16 6 0 10 4 10 9 0 6 -4 13 -10 16 -5 3
-10 -1 -10 -9z"/>
<path d="M2681 304 c0 -11 3 -14 6 -6 3 7 2 16 -1 19 -3 4 -6 -2 -5 -13z"/>
<path d="M2339 213 c-13 -16 -12 -17 4 -4 16 13 21 21 13 21 -2 0 -10 -8 -17
-17z"/>
<path d="M2415 180 c-3 -5 -2 -10 4 -10 5 0 13 5 16 10 3 6 2 10 -4 10 -5 0
-13 -4 -16 -10z"/>
<path d="M5101 374 c0 -11 3 -14 6 -6 3 7 2 16 -1 19 -3 4 -6 -2 -5 -13z"/>
<path d="M5205 380 c-3 -5 -1 -10 4 -10 6 0 11 5 11 10 0 6 -2 10 -4 10 -3 0
-8 -4 -11 -10z"/>
<path d="M5100 339 c0 -5 5 -7 10 -4 6 3 10 8 10 11 0 2 -4 4 -10 4 -5 0 -10
-5 -10 -11z"/>
<path d="M2060 341 c-7 -14 -7 -22 1 -26 6 -4 8 -13 5 -21 -8 -22 12 -17 24 6
8 16 8 20 -2 18 -8 -2 -12 6 -11 20 3 27 -3 28 -17 3z"/>
<path d="M1171 394 c0 -11 3 -14 6 -6 3 7 2 16 -1 19 -3 4 -6 -2 -5 -13z"/>
<path d="M873 393 c-7 -3 -13 -12 -13 -21 0 -15 2 -15 17 1 18 18 16 27 -4 20z"/>
<path d="M679 339 c-16 -17 -29 -41 -29 -52 0 -20 1 -20 17 3 9 14 19 27 22
30 3 3 15 15 25 28 30 35 -1 27 -35 -9z"/>
<path d="M1060 343 c0 -12 -4 -25 -10 -28 -16 -10 -12 -35 4 -29 19 7 30 54
17 67 -8 8 -11 5 -11 -10z"/>
<path d="M1030 340 c0 -5 5 -10 10 -10 6 0 10 5 10 10 0 6 -4 10 -10 10 -5 0
-10 -4 -10 -10z"/>
<path d="M710 310 c0 -5 5 -10 11 -10 5 0 7 5 4 10 -3 6 -8 10 -11 10 -2 0 -4
-4 -4 -10z"/>
<path d="M1107 303 c-4 -3 -7 -11 -7 -17 0 -6 5 -5 12 2 6 6 9 14 7 17 -3 3
-9 2 -12 -2z"/>
<path d="M690 290 c0 -13 18 -22 24 -11 3 5 -1 11 -9 15 -8 3 -15 1 -15 -4z"/>
<path d="M328 283 c-2 -5 -3 -26 -3 -48 0 -33 4 -41 22 -43 13 -2 26 4 32 16
15 28 1 35 -20 9 -18 -22 -18 -22 -14 26 2 26 0 47 -5 47 -5 0 -10 -3 -12 -7z"/>
<path d="M377 269 c-5 -20 -5 -20 14 -3 23 20 23 24 5 24 -7 0 -16 -9 -19 -21z"/>
<path d="M843 265 c-3 -9 -3 -19 1 -22 3 -4 6 -1 6 6 0 7 4 10 9 7 5 -3 11 1
15 9 3 9 0 15 -10 15 -8 0 -17 -7 -21 -15z"/>
<path d="M720 260 c0 -5 5 -10 10 -10 6 0 10 5 10 10 0 6 -4 10 -10 10 -5 0
-10 -4 -10 -10z"/>
<path d="M1045 260 c-3 -5 -1 -10 4 -10 6 0 11 5 11 10 0 6 -2 10 -4 10 -3 0
-8 -4 -11 -10z"/>
<path d="M560 235 c-23 -25 -23 -25 -2 -25 12 0 23 8 27 21 10 31 1 32 -25 4z"/>
<path d="M1125 241 c-3 -5 -1 -12 5 -16 5 -3 10 1 10 9 0 18 -6 21 -15 7z"/>
<path d="M1033 230 c-13 -5 -23 -14 -23 -19 0 -5 -9 -7 -20 -4 -11 3 -20 0
-20 -6 0 -6 8 -8 18 -4 15 6 15 5 3 -10 -8 -10 -16 -15 -19 -13 -5 5 -32 -19
-32 -28 0 -18 32 -1 61 34 28 32 35 36 40 23 4 -13 7 -11 11 10 3 15 5 27 4
26 0 0 -11 -4 -23 -9z"/>
<path d="M400 220 c0 -5 5 -10 11 -10 5 0 7 5 4 10 -3 6 -8 10 -11 10 -2 0 -4
-4 -4 -10z"/>
<path d="M905 212 c2 -9 4 -21 4 -26 1 -13 14 2 17 19 1 7 -4 16 -11 19 -8 3
-12 -2 -10 -12z"/>
<path d="M790 210 c0 -5 5 -10 10 -10 6 0 10 5 10 10 0 6 -4 10 -10 10 -5 0
-10 -4 -10 -10z"/>
<path d="M687 189 c-4 -16 -10 -19 -29 -14 -18 6 -21 5 -11 -6 16 -16 60 2 60
25 0 23 -14 20 -20 -5z"/>
<path d="M380 190 c0 -5 -11 -10 -25 -10 -14 0 -25 -5 -25 -11 0 -5 5 -7 10
-4 6 3 10 2 10 -3 0 -12 43 -3 52 12 4 5 4 14 2 18 -7 11 -24 10 -24 -2z"/>
<path d="M785 170 c-3 -5 -1 -10 4 -10 6 0 11 5 11 10 0 6 -2 10 -4 10 -3 0
-8 -4 -11 -10z"/>
<path d="M1586 315 c-3 -8 -1 -15 4 -15 6 0 10 7 10 15 0 8 -2 15 -4 15 -2 0
-6 -7 -10 -15z"/>
<path d="M81 51 c-8 -6 -9 -11 -3 -15 6 -3 14 -1 17 5 9 14 2 20 -14 10z"/>
</g>
</svg>
