<?xml version="1.0" standalone="no"?>
<!DOCTYPE svg PUBLIC "-//W3C//DTD SVG 20010904//EN"
 "http://www.w3.org/TR/2001/REC-SVG-20010904/DTD/svg10.dtd">
<svg version="1.0" xmlns="http://www.w3.org/2000/svg"
 width="315.000000pt" height="195.000000pt" viewBox="0 0 315.000000 195.000000"
 preserveAspectRatio="xMidYMid meet">
<metadata>
Created by potrace 1.16, written by Peter Selinger 2001-2019
</metadata>
<g transform="translate(0.000000,195.000000) scale(0.100000,-0.100000)"
fill="#000000" stroke="none">
<path d="M3079 1923 c-2 -56 -7 -173 -18 -417 -8 -171 -8 -253 -1 -260 7 -7
10 -5 10 7 0 36 22 117 32 117 6 0 9 -3 5 -6 -6 -6 29 -84 38 -84 3 0 5 50 5
111 0 74 -3 108 -10 104 -6 -4 -8 -16 -5 -28 5 -18 4 -19 -4 -7 -7 8 -9 32 -5
53 3 21 2 43 -4 50 -5 7 -6 31 -2 57 7 43 8 44 9 10 1 -19 6 -53 10 -75 6 -26
9 34 10 178 l1 217 -35 0 c-31 0 -35 -3 -36 -27z m55 -115 c-4 -13 -7 -31 -5
-40 1 -10 -2 -24 -6 -32 -5 -9 -8 12 -8 53 0 56 2 65 13 54 9 -8 11 -21 6 -35z
m-34 -238 c6 0 10 -7 10 -15 0 -8 -4 -15 -9 -15 -5 0 -12 -10 -14 -22 -2 -13
-4 20 -4 72 1 56 2 71 4 38 2 -32 8 -58 13 -58z m7 -152 c2 -42 -11 -51 -21
-15 -9 35 -7 54 7 54 8 0 13 -15 14 -39z"/>
<path d="M180 1920 c0 -5 4 -10 9 -10 6 0 13 5 16 10 3 6 -1 10 -9 10 -9 0
-16 -4 -16 -10z"/>
<path d="M383 1923 c9 -2 23 -2 30 0 6 3 -1 5 -18 5 -16 0 -22 -2 -12 -5z"/>
<path d="M1289 1926 c-3 -4 -189 -6 -412 -6 -361 -1 -448 -6 -405 -23 7 -3
-63 -6 -157 -6 -191 -1 -218 -8 -222 -56 -1 -16 -7 -31 -13 -33 -5 -2 -10 -12
-10 -22 0 -10 -4 -21 -9 -24 -10 -7 -24 -123 -16 -136 4 -7 13 -7 25 0 19 10
19 7 14 -67 -7 -117 -21 -242 -23 -211 0 15 -6 30 -11 33 -11 7 -4 -79 9 -120
4 -11 6 -54 4 -95 -2 -41 -3 -104 -3 -140 1 -86 -18 -197 -37 -216 -14 -13
-13 -17 5 -37 26 -29 32 -82 20 -192 -5 -49 -10 -136 -11 -193 l-2 -102 58 0
c54 0 63 -5 58 -32 0 -5 11 -8 26 -8 26 0 26 1 7 15 -18 14 -17 14 14 15 17 0
32 -4 32 -10 0 -12 336 -7 364 5 10 4 21 4 25 -1 5 -8 55 -11 79 -4 4 1 -6 8
-23 16 -29 14 -28 14 30 10 33 -3 98 -8 145 -11 47 -3 106 -8 133 -11 29 -4
47 -2 47 4 0 6 -15 13 -32 15 -20 2 -11 4 25 5 31 1 57 -2 57 -7 0 -5 34 -9
75 -8 55 2 78 -2 84 -12 7 -10 13 -11 27 -2 17 9 17 10 2 11 -10 0 -18 5 -18
11 0 13 63 4 68 -10 1 -4 42 -6 91 -3 57 2 91 0 95 -7 4 -6 37 -11 73 -11 55
0 71 -4 90 -22 13 -12 26 -18 30 -15 3 4 -2 14 -13 22 -18 14 -17 15 19 13 20
-1 37 -6 37 -11 0 -5 7 -4 14 3 17 13 126 4 126 -11 0 -5 28 -9 63 -8 195 6
508 -11 530 -29 7 -5 72 -13 145 -17 132 -7 134 -8 145 -34 11 -25 12 -24 15
19 4 54 22 80 22 32 0 -18 5 -32 10 -32 14 0 11 87 -3 127 -8 23 -10 84 -6
205 3 105 2 178 -4 186 -5 6 -10 75 -11 152 -1 77 -5 143 -9 146 -4 4 -7 -2
-7 -14 0 -11 -4 -23 -9 -26 -13 -8 -19 37 -11 81 5 22 8 28 9 16 0 -13 6 -23
11 -23 6 0 10 28 10 65 0 47 3 63 13 60 9 -4 12 68 12 340 0 300 -2 345 -15
345 -11 0 -12 2 -3 8 7 4 10 17 6 30 -5 20 -12 23 -52 22 -25 -1 -93 4 -151 9
-128 13 -379 20 -850 25 -196 2 -376 7 -400 11 -25 4 -48 4 -51 1z m-613 -27
c7 -12 -67 -12 -85 0 -10 6 1 9 32 9 26 0 49 -4 53 -9z m104 -9 c0 -5 -5 -10
-11 -10 -5 0 -7 5 -4 10 3 6 8 10 11 10 2 0 4 -4 4 -10z m74 2 c2 -4 -4 -9
-15 -9 -10 -1 -19 2 -19 8 0 11 27 12 34 1z m196 -2 c0 -5 -10 -10 -22 -10
-19 0 -20 2 -8 10 19 13 30 13 30 0z m393 3 c-7 -2 -19 -2 -25 0 -7 3 -2 5 12
5 14 0 19 -2 13 -5z m-485 -10 c-15 -2 -42 -2 -60 0 -18 2 -6 4 27 4 33 0 48
-2 33 -4z m250 0 c-15 -2 -42 -2 -60 0 -18 2 -6 4 27 4 33 0 48 -2 33 -4z
m882 -14 c0 -8 -27 -9 -90 -4 -63 5 -90 4 -90 -4 0 -7 -31 -11 -90 -11 -61 0
-90 4 -90 11 0 8 20 10 68 6 37 -3 76 -2 87 3 31 13 205 12 205 -1z m-1526 -9
c45 0 42 -9 -6 -20 -26 -6 -17 -8 42 -9 44 0 70 3 62 8 -10 6 -8 10 10 14 35
10 58 8 58 -4 0 -5 -4 -7 -10 -4 -5 3 -18 1 -27 -4 -24 -14 111 -15 137 -1 15
8 25 2 55 -33 20 -23 64 -71 98 -107 96 -100 200 -220 196 -225 -3 -2 -63 48
-135 110 -73 63 -134 112 -137 109 -2 -3 -22 15 -42 40 -21 26 -44 46 -51 46
-20 0 -17 -10 8 -31 11 -11 18 -22 15 -26 -4 -3 -18 4 -31 16 -14 13 -29 21
-33 18 -5 -3 -17 7 -26 23 -15 24 -24 29 -57 28 -25 0 -41 -6 -44 -15 -4 -10
-2 -13 7 -10 8 3 26 -11 43 -31 16 -21 45 -53 65 -72 20 -19 49 -55 64 -80 15
-25 21 -39 14 -32 -20 19 -31 14 -17 -8 10 -16 10 -22 1 -28 -21 -13 -39 -65
-168 -474 -26 -82 -51 -148 -55 -148 -4 0 -13 -17 -19 -37 -10 -37 -10 -36 -4
12 3 28 7 75 8 105 1 30 13 96 27 145 37 128 51 195 44 202 -12 12 -19 -7 -32
-83 -14 -78 -83 -308 -91 -300 -2 2 3 28 11 57 11 37 13 55 5 60 -8 4 -4 32
11 94 20 81 21 111 1 89 -5 -5 -16 -52 -26 -104 -9 -52 -21 -108 -25 -125 -5
-16 -16 -65 -25 -108 -9 -42 -21 -75 -26 -72 -16 11 -10 78 17 168 24 83 26
113 4 91 -5 -5 -12 -27 -16 -48 -10 -66 -24 -87 -17 -26 6 56 46 282 59 334 5
22 4 28 -7 24 -8 -3 -26 -56 -45 -137 -17 -72 -34 -134 -37 -137 -3 -3 -8 25
-12 63 -10 91 -10 92 -17 98 -6 6 36 153 53 187 11 21 12 74 2 64 -4 -3 -17
-43 -30 -89 -13 -45 -35 -104 -49 -132 -14 -27 -28 -71 -31 -97 -3 -27 -9 -48
-13 -48 -20 0 -15 77 13 200 16 74 32 151 35 170 6 43 29 80 46 74 9 -3 13 7
14 33 0 34 -1 36 -10 15 -6 -12 -18 -21 -27 -20 -16 3 -40 -58 -88 -217 -17
-58 -18 -59 -21 -24 -2 20 9 71 26 122 22 66 26 87 16 87 -8 0 -14 6 -14 13 0
8 -4 7 -10 -3 -6 -8 -8 -26 -5 -40 7 -35 -17 -115 -35 -115 -10 0 -14 -8 -12
-23 2 -16 -1 -20 -11 -16 -18 6 -23 -8 -33 -88 -3 -32 -11 -58 -16 -58 -6 0
-7 19 -3 50 4 28 3 50 -2 50 -11 0 -33 -58 -33 -86 0 -10 -4 -25 -9 -33 -15
-23 -4 186 13 267 19 88 19 82 3 82 -9 0 -12 23 -10 87 2 83 10 153 18 153 19
0 35 -17 36 -39 0 -25 1 -25 11 -4 14 29 34 33 162 33 l109 0 -19 22 -19 21
40 -6 c22 -4 58 -7 79 -7z m1009 -2 c-2 -5 16 -8 41 -8 25 0 46 5 46 10 0 13
37 13 45 1 9 -15 -4 -18 -120 -25 -60 -3 -140 -9 -177 -12 -59 -6 -68 -4 -68
10 0 18 -18 21 -40 6 -13 -9 -12 -12 4 -25 11 -8 16 -15 12 -15 -5 0 3 -9 17
-20 14 -11 28 -20 31 -20 4 0 39 -24 79 -53 40 -30 92 -68 116 -85 l45 -32
-45 2 c-24 0 -54 8 -67 16 -18 12 -21 12 -17 1 3 -9 -10 -20 -40 -32 l-45 -19
-100 101 c-56 56 -96 101 -89 101 6 0 0 9 -14 20 -27 21 -47 26 -47 11 0 -6
47 -56 105 -112 58 -57 105 -107 105 -112 0 -9 -74 50 -135 106 -16 15 -54 44
-82 64 -29 20 -53 40 -53 44 0 4 -7 10 -16 13 -12 5 -15 2 -10 -11 5 -13 0
-11 -19 7 -44 41 -30 55 55 57 41 0 121 4 178 8 72 5 102 4 102 -4 0 -6 12
-11 26 -11 14 0 23 4 19 10 -3 6 -1 10 4 10 6 0 11 -5 11 -10 0 -12 49 -5 63
9 12 12 87 10 80 -1z m-633 -18 c10 0 58 -41 107 -92 48 -50 99 -102 112 -115
13 -13 21 -26 18 -29 -3 -4 -50 34 -104 82 -54 49 -119 106 -143 127 -25 21
-37 36 -27 33 10 -3 27 -6 37 -6z m1230 -23 c0 -7 9 -31 19 -53 11 -21 15 -41
10 -42 -5 -2 -38 19 -74 47 -35 28 -70 51 -77 51 -13 0 28 -40 96 -93 38 -30
44 -42 23 -50 -17 -6 -157 126 -157 148 0 3 36 5 80 5 60 0 80 -3 80 -13z
m115 -36 c23 -16 26 -21 12 -21 -10 0 -25 -7 -33 -15 -22 -22 -26 -19 -52 25
-38 67 -15 70 73 11z m437 40 c13 -1 15 -9 11 -43 -3 -24 -7 -44 -8 -46 -2 -2
-29 4 -61 12 -33 8 -75 13 -94 12 -19 -2 -57 3 -84 11 -31 9 -65 12 -93 8 -35
-5 -51 -2 -78 15 -19 12 -35 25 -35 29 0 5 381 8 442 2z m-724 -17 c4 -6 26
-33 50 -59 23 -26 41 -50 38 -52 -5 -5 -71 40 -91 61 -18 19 -74 56 -84 56
-28 0 -16 -26 41 -87 35 -38 74 -82 88 -98 l25 -29 -40 29 c-88 63 -110 80
-115 85 -34 35 -123 91 -136 86 -9 -3 -21 -3 -27 1 -19 12 49 21 151 20 60 -1
96 -5 100 -13z m-495 -86 c92 -91 111 -118 50 -70 -21 16 -74 55 -118 87 -105
76 -102 72 -58 70 33 -2 49 -13 126 -87z m4 79 c9 -14 196 -176 253 -219 45
-33 99 -83 80 -72 -8 4 -39 26 -69 48 -30 23 -79 58 -110 79 -31 22 -75 54
-98 73 -23 19 -47 34 -55 34 -7 0 -23 16 -36 35 l-22 35 24 0 c14 0 29 -6 33
-13z m248 -29 c23 -24 72 -67 109 -97 36 -30 66 -59 66 -64 0 -9 1 -10 -148
106 -55 42 -105 77 -111 77 -26 0 -7 -32 45 -77 31 -26 72 -63 91 -80 19 -18
38 -33 42 -33 3 0 12 -9 19 -20 7 -11 10 -20 7 -20 -5 0 -147 100 -155 109 -3
3 -16 12 -31 19 -14 7 -38 26 -55 41 -16 15 -42 36 -59 47 l-29 19 39 5 c117
15 124 14 170 -32z m188 -111 c81 -65 96 -81 86 -93 -10 -12 -24 -3 -88 58
-42 41 -97 92 -123 115 -27 22 -48 44 -48 47 0 9 45 -25 173 -127z m-1212 101
c11 -21 11 -22 -4 -9 -10 7 -17 17 -17 22 0 15 9 10 21 -13z m303 -59 c22 -20
34 -39 28 -42 -5 -4 -32 19 -58 51 -50 58 -39 55 30 -9z m110 4 c34 -26 63
-50 66 -53 3 -3 33 -29 68 -58 l63 -52 -26 -12 c-25 -11 -30 -10 -62 27 -20
22 -70 75 -111 118 -42 42 -72 77 -67 77 5 0 36 -21 69 -47z m930 -36 c17 -14
26 -29 22 -35 -12 -20 -20 -14 -82 55 l-59 68 45 -33 c25 -17 58 -43 74 -55z
m-1095 -82 c-8 -7 -119 102 -119 116 0 8 28 -14 62 -49 33 -34 59 -64 57 -67z
m1571 106 c36 -6 83 -17 105 -25 l40 -14 0 -79 c1 -43 4 -84 9 -91 4 -7 2 -12
-4 -12 -8 0 -10 -13 -5 -41 5 -29 3 -45 -8 -57 -8 -9 -27 -44 -42 -77 -15 -33
-34 -64 -41 -68 -22 -13 -16 -33 18 -62 22 -19 38 -25 55 -20 20 5 23 2 23
-26 0 -30 -1 -31 -32 -24 -18 4 -49 10 -68 14 -19 4 -49 15 -67 24 -18 9 -41
17 -52 17 -36 0 -129 47 -142 72 -6 12 -31 41 -54 63 -49 47 -111 140 -119
178 -3 15 -8 38 -11 52 -3 14 -12 25 -20 25 -19 0 -19 15 1 45 9 13 22 21 30
18 8 -3 17 5 23 20 11 29 34 44 101 68 50 18 153 18 260 0z m-1371 -127 c48
-46 77 -82 74 -90 -10 -26 -28 -14 -99 64 -84 92 -91 102 -69 102 8 0 51 -34
94 -76z m517 9 c-7 -7 -66 36 -66 48 0 6 16 -2 35 -17 20 -15 33 -29 31 -31z
m163 -31 c13 -11 20 -22 15 -25 -5 -3 -36 20 -69 50 -55 51 -56 52 -15 24 25
-17 56 -39 69 -49z m-709 -83 c0 -20 -20 -6 -76 51 -83 85 -81 97 4 21 40 -34
72 -67 72 -72z m864 30 c-10 -17 -24 -9 -66 37 -63 67 -59 74 10 19 34 -26 59
-52 56 -56z m-1024 9 c29 -37 57 -65 62 -62 10 6 -16 44 -62 92 -17 19 -30 35
-28 37 5 5 148 -135 148 -145 0 -4 -15 -19 -33 -33 l-34 -26 -36 49 c-21 27
-37 54 -37 59 0 5 -7 12 -16 15 -9 4 -14 9 -11 12 3 3 -1 21 -9 39 -8 19 -14
38 -14 42 0 8 1 7 70 -79z m489 57 c-18 -18 -63 -25 -67 -10 -3 10 28 22 63
24 17 1 18 -1 4 -14z m181 -11 c0 -2 -7 -4 -15 -4 -8 0 -15 4 -15 10 0 5 7 7
15 4 8 -4 15 -8 15 -10z m-759 -73 c0 -19 -5 -37 -11 -41 -6 -4 -21 -47 -34
-96 -26 -94 -63 -190 -71 -182 -6 5 11 64 26 92 18 33 39 109 49 181 6 39 13
84 16 100 l7 30 9 -25 c6 -14 10 -40 9 -59z m907 30 c23 -16 32 -30 29 -43 -6
-21 12 -36 22 -19 12 19 41 1 41 -25 0 -12 9 -29 21 -38 15 -10 19 -19 12 -31
-8 -13 -18 -7 -61 39 -29 30 -52 64 -52 75 0 13 -13 25 -40 37 -40 18 -46 25
-34 37 8 7 16 3 62 -32z m-434 10 c7 -11 -52 -36 -62 -27 -8 9 26 36 44 36 7
0 15 -4 18 -9z m246 -21 c19 -19 19 -23 6 -55 -8 -19 -28 -52 -43 -72 l-28
-36 -5 29 c-6 29 -15 33 -55 20 -18 -6 -17 -5 3 10 29 22 28 50 -2 58 -15 4
-26 14 -28 29 l-3 22 -20 -24 c-11 -13 -27 -31 -35 -40 -9 -9 -26 -35 -39 -56
-13 -22 -42 -59 -63 -81 -23 -24 -36 -44 -30 -48 12 -7 -20 -88 -37 -94 -15
-5 -14 4 4 38 17 33 10 40 -11 13 -18 -24 -18 -3 0 44 7 21 19 57 26 81 16 51
46 83 34 36 -4 -16 -11 -40 -16 -53 -16 -43 -2 -32 35 28 46 73 47 91 8 91
-17 0 -33 -4 -36 -10 -3 -5 -12 -10 -18 -10 -18 1 23 30 73 52 115 50 245 63
280 28z m303 2 c10 -10 14 -22 10 -25 -7 -8 -43 21 -43 35 0 14 16 9 33 -10z
m-1111 -85 c-5 -7 -20 -72 -33 -144 -19 -108 -27 -133 -40 -133 -11 0 -25 -19
-39 -55 -42 -103 -45 -65 -4 50 9 27 26 58 36 69 19 21 25 56 8 56 -6 0 -6 8
-1 23 5 12 24 69 43 127 32 100 33 102 36 61 2 -23 -1 -48 -6 -54z m1968 23
c-9 -16 -9 -25 1 -36 8 -10 8 -14 0 -14 -6 0 -11 -12 -12 -27 l-1 -28 -10 28
c-12 34 8 125 24 109 6 -6 6 -18 -2 -32z m-1940 -46 c-7 -30 -14 -53 -16 -51
-3 3 1 33 8 67 7 34 14 57 16 51 2 -6 -2 -36 -8 -67z m942 44 c-9 -9 -12 -7
-12 12 0 19 3 21 12 12 9 -9 9 -15 0 -24z m206 16 c-9 -9 -21 -13 -27 -10 -20
13 -11 26 16 26 25 0 26 -1 11 -16z m-997 -55 l32 -51 -35 -34 -35 -35 -2 85
c-1 47 0 86 3 86 2 0 19 -23 37 -51z m171 21 c-30 -29 -40 -25 -12 5 13 14 26
23 28 20 3 -3 -4 -14 -16 -25z m498 25 c0 -15 -24 -53 -31 -49 -5 3 -9 -3 -9
-14 0 -18 -38 -67 -46 -59 -3 2 11 28 31 58 19 29 35 57 35 61 0 5 5 8 10 8 6
0 10 -2 10 -5z m-1333 -27 c-3 -8 -6 -5 -6 6 -1 11 2 17 5 13 3 -3 4 -12 1
-19z m1145 17 c15 -15 -22 -81 -67 -121 -27 -24 -60 -54 -73 -66 -39 -38 -34
-13 11 48 24 32 54 78 67 102 21 37 46 52 62 37z m695 -89 c28 -34 72 -76 97
-94 25 -18 46 -38 46 -43 0 -6 -7 -4 -15 5 -9 8 -35 29 -58 46 -23 16 -50 40
-60 53 -9 12 -33 42 -52 65 -19 24 -35 49 -34 55 0 7 6 4 12 -7 7 -10 35 -46
64 -80z m-338 29 l0 -20 -9 20 c-5 11 -9 29 -9 40 l0 20 9 -20 c5 -11 9 -29 9
-40z m-64 35 c4 -6 -19 -36 -51 -68 -31 -31 -50 -46 -41 -32 76 117 79 121 92
100z m-1529 -87 c-18 -59 -21 -34 -4 39 8 33 13 45 16 31 2 -11 -4 -43 -12
-70z m1719 76 c11 -17 -1 -21 -15 -4 -8 9 -8 15 -2 15 6 0 14 -5 17 -11z
m-1641 -41 c-7 -44 -23 -85 -24 -60 0 18 21 102 26 102 2 0 1 -19 -2 -42z
m930 33 c3 -5 -3 -35 -13 -67 -10 -33 -22 -72 -25 -87 -9 -38 -29 -29 -40 16
-9 34 -26 52 -26 27 0 -5 -12 -10 -27 -10 -40 0 -56 -14 -49 -38 5 -14 1 -24
-10 -30 -13 -7 -16 -18 -12 -50 6 -38 4 -42 -31 -65 -67 -45 -111 -69 -111
-60 0 4 23 40 50 78 28 39 57 84 65 101 19 41 190 194 217 194 4 0 9 -4 12 -9z
m706 -118 l19 -33 -29 0 c-37 0 -80 58 -80 108 l0 33 35 -38 c20 -21 44 -53
55 -70z m-1060 81 c0 -8 -4 -12 -10 -9 -5 3 -10 10 -10 16 0 5 5 9 10 9 6 0
10 -7 10 -16z m230 -9 c-13 -14 -26 -23 -28 -20 -4 4 38 44 47 45 3 0 -6 -11
-19 -25z m639 2 c-8 -7 -24 -24 -33 -39 -10 -15 -23 -25 -28 -22 -5 4 7 24 28
45 21 21 40 36 43 33 3 -3 -1 -11 -10 -17z m267 -4 c-10 -10 -19 5 -10 18 6
11 8 11 12 0 2 -7 1 -15 -2 -18z m-504 -20 c14 -17 -45 -78 -89 -91 -21 -6
-56 -20 -78 -31 -79 -38 -56 -5 60 88 58 47 91 68 94 59 2 -7 8 -18 13 -25z
m457 0 c0 -34 -1 -36 -11 -16 -6 12 -8 29 -5 37 11 27 17 18 16 -21z m194 -37
c37 -35 67 -70 68 -77 0 -8 3 -9 5 -3 3 7 26 0 62 -18 59 -30 84 -56 41 -43
-22 7 -23 6 -9 -9 10 -10 39 -18 75 -21 76 -6 115 -15 141 -32 11 -7 24 -10
27 -6 4 3 32 0 63 -7 l56 -14 -6 -35 c-3 -20 -6 -49 -6 -64 0 -24 -2 -26 -19
-17 -13 6 -17 16 -14 30 4 16 0 23 -16 27 -27 7 -28 23 -1 23 30 0 24 17 -12
36 -31 16 -32 16 -18 -1 13 -15 12 -19 -5 -32 -20 -14 -20 -14 -1 -29 29 -20
11 -30 -34 -17 -53 14 -42 0 17 -22 65 -24 75 -35 29 -32 -22 1 -40 -3 -43 -8
-2 -7 20 -11 57 -10 41 0 60 -4 60 -12 0 -16 -42 -27 -75 -21 -26 5 -34 -6
-12 -16 6 -3 -1 -4 -17 0 -28 5 -74 50 -68 67 1 4 -6 10 -15 14 -10 3 -27 13
-37 22 -16 13 -18 13 -11 1 4 -8 15 -23 23 -33 22 -25 9 -31 -27 -13 -33 17
-61 21 -61 8 0 -9 92 -42 116 -42 7 0 18 -9 24 -20 8 -14 8 -20 0 -20 -6 0 -9
-4 -6 -9 8 -12 -37 -1 -45 12 -4 5 -28 10 -54 12 -44 3 -47 2 -42 -20 7 -41
-6 -50 -57 -38 -41 9 -46 8 -46 -7 0 -20 -25 -44 -38 -37 -4 3 -14 2 -22 -3
-18 -11 -50 6 -50 26 0 8 7 26 17 40 15 24 15 27 -6 65 -23 39 -20 72 3 35 24
-39 45 -61 52 -53 4 4 -2 21 -15 37 -12 17 -20 34 -17 39 3 5 -4 21 -15 35
-12 15 -18 34 -15 42 3 9 -1 22 -9 31 -16 15 -11 38 6 28 5 -4 9 1 9 9 0 8 -9
18 -20 21 -11 3 -20 11 -20 16 0 6 5 7 11 3 15 -9 -17 50 -35 65 -9 8 -16 19
-16 25 1 6 9 1 19 -11 18 -21 41 -31 41 -17 0 3 -8 18 -18 32 -36 52 -34 56 6
12 22 -25 43 -42 47 -38 4 4 -6 23 -24 43 -28 32 -77 115 -68 115 2 0 34 -29
70 -64z m520 -58 c17 -10 -5 -43 -28 -43 -33 0 -38 27 -13 80 l23 50 3 -40 c2
-22 9 -43 15 -47z m-1681 25 c-49 -58 -102 -110 -106 -103 -12 19 -175 -239
-183 -287 -4 -24 -8 -30 -14 -21 -7 11 -9 10 -9 -1 0 -8 -2 -12 -5 -9 -13 13
118 239 155 268 4 3 13 20 21 37 7 18 26 38 41 44 16 6 28 18 28 26 0 8 4 11
10 8 5 -3 7 0 4 8 -3 8 2 17 11 21 10 4 14 2 9 -6 -4 -7 -3 -8 4 -4 7 4 12 15
12 25 0 16 30 38 53 40 5 1 -9 -20 -31 -46z m851 0 c13 4 36 -21 37 -38 0 -6
-9 -11 -20 -11 -13 0 -19 5 -15 14 2 7 -2 15 -10 18 -9 4 -14 17 -14 33 2 24
2 24 6 3 3 -13 10 -21 16 -19z m-103 -44 c-31 -53 -169 -239 -177 -239 -6 0
12 31 55 97 22 32 42 71 46 86 6 24 9 27 21 17 12 -10 16 -9 20 1 20 57 26 69
34 69 5 0 13 10 17 23 4 12 9 17 11 11 2 -7 -10 -36 -27 -65z m257 49 c-3 -8
-6 -5 -6 6 -1 11 2 17 5 13 3 -3 4 -12 1 -19z m-1776 -35 c-6 -21 -11 -50 -11
-65 0 -16 -4 -28 -10 -28 -5 0 -10 7 -10 16 0 24 31 126 37 121 2 -3 0 -22 -6
-44z m-58 -70 c-3 -18 -9 -30 -14 -27 -11 6 -12 95 -2 121 10 25 23 -51 16
-94z m1342 61 c-55 -46 -64 -43 -12 5 23 22 44 37 47 34 3 -3 -13 -20 -35 -39z
m-1161 -79 c-8 -11 -14 -40 -15 -65 0 -40 -2 -42 -11 -22 -9 17 -7 43 8 110
l18 87 7 -45 c4 -31 2 -51 -7 -65z m1466 76 c0 -11 -4 -23 -10 -26 -5 -3 -10
-13 -10 -21 0 -8 5 -12 10 -9 7 4 8 -3 4 -22 -10 -41 -17 -49 -24 -27 -6 15
-9 12 -18 -20 -6 -22 -9 -50 -6 -62 4 -16 -2 -29 -20 -45 -16 -13 -24 -29 -21
-39 3 -9 -9 -32 -30 -54 -19 -21 -35 -41 -35 -45 0 -3 -16 -24 -35 -46 -34
-39 -35 -39 -25 -10 15 42 123 254 160 311 30 48 38 74 21 74 -5 0 -18 -15
-30 -32 -11 -18 -29 -45 -38 -59 -26 -37 -99 -119 -107 -119 -9 0 49 82 83
119 13 14 37 46 54 71 55 82 77 99 77 61z m155 -1 c3 -5 1 -10 -4 -10 -6 0
-11 5 -11 10 0 6 2 10 4 10 3 0 8 -4 11 -10z m-1710 -47 c-8 -54 -25 -82 -25
-41 0 42 12 88 22 88 6 0 8 -18 3 -47z m562 25 c-1 -13 -9 -32 -19 -42 -22
-24 -22 -19 -3 28 18 41 24 46 22 14z m303 -3 c0 -7 5 -15 12 -17 7 -3 -9 -11
-35 -20 -50 -16 -57 -15 -57 14 0 12 12 24 32 33 35 14 48 12 48 -10z m-1013
-37 c-2 -13 -4 -5 -4 17 -1 22 1 32 4 23 2 -10 2 -28 0 -40z m1259 3 c-26 -27
-60 -55 -74 -62 -15 -8 -30 -18 -34 -24 -4 -5 -10 -6 -14 -3 -3 4 1 14 10 23
9 9 16 21 16 26 0 5 9 9 19 9 11 0 27 10 35 22 13 19 69 56 86 58 2 0 -17 -22
-44 -49z m650 12 c-4 -4 -11 -1 -16 7 -16 25 -11 35 7 17 9 -9 13 -20 9 -24z
m-1052 15 c-4 -7 -22 -33 -39 -58 -46 -66 -115 -194 -115 -213 0 -10 -4 -17
-9 -17 -14 0 -22 30 -15 54 11 37 166 246 181 246 3 0 1 -6 -3 -12z m906 -18
c0 -4 -7 -10 -15 -14 -11 -4 -15 2 -15 21 0 21 2 24 15 13 8 -7 15 -16 15 -20z
m-437 -80 c-57 -55 -103 -105 -103 -110 0 -31 50 2 145 94 58 57 115 106 126
109 25 7 24 0 -3 -25 -13 -11 -17 -17 -10 -13 7 4 12 -1 12 -13 0 -10 -25 -45
-55 -77 -30 -33 -55 -61 -55 -62 0 -12 43 17 74 51 l39 41 -23 -40 c-13 -22
-32 -51 -42 -64 -23 -30 -23 -41 0 -41 10 0 23 -5 30 -12 9 -9 19 -5 43 18 17
16 40 44 51 62 42 68 25 22 -37 -98 -35 -69 -64 -133 -65 -142 0 -23 18 -32
35 -18 17 15 20 -1 4 -17 -8 -8 -16 -9 -29 -1 -12 8 -29 7 -63 -5 -37 -12 -51
-13 -71 -4 l-25 12 32 27 32 27 -26 1 c-14 0 -34 -9 -45 -21 -30 -33 -50 -40
-78 -28 -20 10 -34 9 -69 -5 -56 -21 -68 -20 -37 4 38 29 16 36 -38 12 -147
-65 -177 -48 -57 32 54 36 84 63 81 71 -2 7 2 16 10 19 17 7 19 26 2 26 -7 0
-38 -16 -70 -35 -44 -27 -63 -34 -84 -29 l-26 7 33 20 c73 45 204 131 209 137
3 4 17 13 31 21 33 17 179 130 198 153 7 9 16 16 20 16 3 0 -40 -45 -96 -100z
m-238 76 c12 -12 11 -14 -8 -18 -17 -3 -23 0 -23 14 0 22 12 23 31 4z m85 4
c8 -5 11 -10 5 -10 -5 0 -17 5 -25 10 -8 5 -10 10 -5 10 6 0 17 -5 25 -10z
m668 -33 c5 -24 -15 -21 -28 4 -10 18 -9 20 7 17 10 -2 19 -11 21 -21z m-1668
-49 c0 -41 -22 -128 -32 -122 -12 8 -10 54 3 54 5 0 7 5 4 10 -4 6 -4 34 0 62
7 52 25 50 25 -4z m955 42 c3 -5 -1 -10 -9 -10 -10 0 -16 -9 -16 -24 0 -22
-32 -56 -52 -56 -11 0 4 33 32 68 27 33 35 38 45 22z m688 -34 c31 -50 37 -83
8 -48 -11 12 -24 22 -30 22 -6 0 -11 9 -11 19 0 11 -3 26 -6 35 -12 32 12 14
39 -28z m-1500 2 c-3 -18 -10 -37 -15 -43 -10 -10 -2 50 9 68 9 16 12 5 6 -25z
m-282 -55 c-17 -37 -25 -21 -16 34 7 47 8 47 17 20 7 -20 7 -37 -1 -54z m984
66 c-12 -19 -96 -93 -138 -121 -38 -27 -117 -40 -117 -20 0 17 103 93 190 139
30 16 74 18 65 2z m-936 -37 c0 -24 -1 -25 -9 -7 -12 28 -12 47 0 40 6 -3 10
-18 9 -33z m171 -96 c-12 -41 -30 -35 -24 7 15 96 27 123 32 72 2 -22 -2 -58
-8 -79z m-133 72 c-3 -7 -5 -2 -5 12 0 14 2 19 5 13 2 -7 2 -19 0 -25z m1634
10 c10 -13 18 -32 18 -43 0 -19 0 -19 -13 -2 -7 9 -18 17 -24 17 -5 0 -9 11
-8 25 1 31 3 31 27 3z m-1173 -76 c-13 -45 -26 -72 -35 -72 -10 0 -12 6 -7 23
3 12 10 23 15 25 4 2 15 26 24 53 26 76 28 52 3 -29z m1376 62 c23 -23 19 -40
-4 -19 -11 10 -20 22 -20 27 0 12 7 10 24 -8z m-925 -44 c17 0 61 23 61 32 0
4 5 8 11 8 41 0 -132 -122 -206 -146 -59 -18 -167 -26 -180 -12 -4 4 -5 18 -1
32 6 24 10 25 69 23 55 -2 62 -4 62 -22 0 -34 26 -18 94 57 59 64 65 68 73 49
4 -11 12 -21 17 -21z m-598 -69 c-9 -49 -19 -93 -23 -97 -14 -13 -8 61 8 112
9 27 17 55 20 62 11 36 8 2 -5 -77z m-371 43 c0 -13 -4 -24 -10 -24 -5 0 -10
14 -10 31 0 17 4 28 10 24 6 -3 10 -17 10 -31z m134 11 c3 -8 1 -15 -4 -15 -6
0 -10 7 -10 15 0 8 2 15 4 15 2 0 6 -7 10 -15z m1806 0 c11 -13 10 -14 -4 -9
-9 3 -16 10 -16 15 0 13 6 11 20 -6z m-1490 -79 c-11 -38 -22 -71 -25 -75 -10
-9 7 82 21 118 23 55 24 32 4 -43z m1440 59 c14 -16 10 -18 -14 -9 -9 3 -16
10 -16 15 0 14 16 11 30 -6z m-1860 -26 c-14 -26 -18 -24 -12 6 2 14 8 22 13
19 5 -3 5 -14 -1 -25z m192 -50 c-5 -46 -17 -51 -25 -9 -6 28 -4 39 10 80 9
24 19 -26 15 -71z m1438 39 c0 -5 -7 -8 -15 -8 -15 0 -20 21 -8 33 7 7 23 -11
23 -25z m-1530 14 c0 -5 -7 -17 -16 -28 -15 -18 -15 -18 -5 2 6 12 7 24 4 28
-3 3 -1 6 5 6 7 0 12 -4 12 -8z m1650 -1 c0 -16 -19 -23 -43 -15 l-22 8 25 7
c36 10 40 10 40 0z m-1188 -30 c2 -17 1 -28 -4 -25 -8 5 -12 54 -4 54 2 0 6
-13 8 -29z m-543 -57 c-11 -25 -13 -26 -16 -8 -2 11 2 34 8 50 11 25 13 26 16
8 2 -11 -2 -34 -8 -50z m108 14 c-3 -7 -5 -2 -5 12 0 14 2 19 5 13 2 -7 2 -19
0 -25z m1663 22 c0 -5 -4 -10 -10 -10 -5 0 -10 5 -10 10 0 6 5 10 10 10 6 0
10 -4 10 -10z m55 0 c3 -5 -1 -10 -9 -10 -9 0 -16 5 -16 10 0 6 4 10 9 10 6 0
13 -4 16 -10z m-242 -17 c-7 -2 -19 -2 -25 0 -7 3 -2 5 12 5 14 0 19 -2 13 -5z
m319 -38 c-5 -27 -17 -31 -42 -15 -13 9 -11 13 10 29 30 24 39 20 32 -14z
m-1162 15 c0 -13 -74 -32 -96 -23 -14 5 -6 10 31 19 66 15 65 15 65 4z m811
-31 c-8 -21 -10 -22 -16 -6 -10 23 2 54 16 40 6 -6 6 -18 0 -34z m788 24 c0
-5 -3 -9 -9 -11 -5 -2 -10 4 -10 13 0 16 16 14 19 -2z m-2388 -25 c-3 -21 -6
-26 -9 -15 -3 17 3 47 11 47 2 0 1 -15 -2 -32z m240 -21 c-13 -13 -15 11 -4
40 7 16 8 15 11 -6 2 -13 -1 -28 -7 -34z m404 43 c8 -13 -15 -13 -35 0 -12 8
-11 10 7 10 12 0 25 -4 28 -10z m1055 -12 c0 -13 -23 -5 -28 10 -2 7 2 10 12
6 9 -3 16 -11 16 -16z m-224 -35 c-14 -20 -26 -34 -26 -28 0 11 43 75 48 70 2
-2 -8 -21 -22 -42z m314 37 c0 -5 -2 -10 -4 -10 -3 0 -8 5 -11 10 -3 6 -1 10
4 10 6 0 11 -4 11 -10z m-1610 -33 c0 -34 -7 -50 -19 -42 -10 6 0 75 10 75 5
0 9 -15 9 -33z m380 17 c0 -2 -7 -4 -15 -4 -8 0 -15 4 -15 10 0 5 7 7 15 4 8
-4 15 -8 15 -10z m1215 -13 c-6 -5 -25 10 -25 20 0 5 6 4 14 -3 8 -7 12 -15
11 -17z m-265 -2 c-9 -16 -8 -30 4 -60 15 -38 15 -39 -4 -39 -11 0 -20 7 -20
15 0 8 -9 15 -20 15 -18 0 -17 4 12 45 34 48 46 58 28 24z m-1052 3 c16 12 16
11 1 -12 -9 -14 -30 -33 -48 -43 -31 -19 -31 -19 -31 2 0 13 10 26 25 33 14 6
25 16 26 22 0 6 3 5 6 -2 4 -10 8 -10 21 0z m366 -13 c-10 -4 -28 -8 -39 -8
-15 0 -12 3 10 13 17 7 34 11 39 8 5 -3 1 -9 -10 -13z m-475 -43 c-13 -15 -18
-4 -11 29 6 30 6 30 12 5 4 -14 3 -29 -1 -34z m276 44 c3 -5 1 -10 -4 -10 -6
0 -11 5 -11 10 0 6 2 10 4 10 3 0 8 -4 11 -10z m-507 -12 c-2 -6 -10 -14 -16
-16 -7 -2 -10 2 -6 12 7 18 28 22 22 4z m616 -13 c-25 -19 -34 -19 -34 0 0 10
10 15 27 15 26 0 26 -1 7 -15z m919 -11 c-4 -12 -8 -13 -14 -3 -9 15 -2 32 11
24 5 -3 6 -13 3 -21z m923 -30 c-4 -14 -11 -22 -15 -19 -5 3 -4 19 2 35 13 35
22 23 13 -16z m-886 21 c-7 -9 -15 -13 -17 -11 -7 7 7 26 19 26 6 0 6 -6 -2
-15z m-1450 -20 c0 -14 -4 -25 -10 -25 -5 0 -10 11 -10 25 0 14 5 25 10 25 6
0 10 -11 10 -25z m1930 16 c0 -11 -39 -59 -40 -49 0 14 23 58 32 58 4 0 8 -4
8 -9z m-2136 -22 c-3 -5 -10 -7 -15 -3 -5 3 -7 10 -3 15 3 5 10 7 15 3 5 -3 7
-10 3 -15z m254 9 c-6 -18 -28 -21 -28 -4 0 9 7 16 16 16 9 0 14 -5 12 -12z
m-98 -14 c0 -8 -5 -12 -10 -9 -6 4 -8 11 -5 16 9 14 15 11 15 -7z m422 -6 c-7
-7 -12 -8 -12 -2 0 14 12 26 19 19 2 -3 -1 -11 -7 -17z m165 16 c-3 -3 -12 -4
-19 -1 -8 3 -5 6 6 6 11 1 17 -2 13 -5z m-313 -18 c-6 -16 -44 -29 -44 -16 0
9 29 29 42 30 4 0 5 -6 2 -14z m2030 -10 c-7 -18 -20 -21 -29 -6 -3 6 1 10 9
10 9 0 16 5 16 12 0 6 2 9 5 6 3 -3 3 -13 -1 -22z m-1534 -1 c0 -10 -11 -15
-35 -15 -44 0 -46 17 -2 23 17 2 33 5 35 5 1 1 2 -5 2 -13z m650 5 c0 -5 -5
-10 -11 -10 -5 0 -7 5 -4 10 3 6 8 10 11 10 2 0 4 -4 4 -10z m-750 -25 c7 -9
8 -15 2 -15 -5 0 -12 7 -16 15 -3 8 -4 15 -2 15 2 0 9 -7 16 -15z m308 -4 c11
-7 10 -10 -3 -15 -20 -7 -38 1 -30 15 7 11 16 11 33 0z m1108 -6 c16 -12 16
-14 3 -15 -9 0 -22 7 -29 15 -16 19 0 19 26 0z m-2196 -15 c0 -5 -7 -7 -15 -4
-8 4 -12 10 -9 15 6 11 24 2 24 -11z m601 10 c10 0 19 -4 19 -10 0 -5 -18 -10
-40 -10 -38 0 -49 8 -33 24 4 3 13 4 21 1 7 -3 22 -5 33 -5z m1404 0 c-3 -5
-11 -10 -16 -10 -6 0 -7 5 -4 10 3 6 11 10 16 10 6 0 7 -4 4 -10z m115 -5 c-7
-9 -15 -13 -17 -11 -7 7 7 26 19 26 6 0 6 -6 -2 -15z m180 3 c0 -15 -18 -17
-30 -3 -9 11 -8 14 9 12 12 -1 21 -5 21 -9z m-1870 -8 c0 -5 -4 -10 -10 -10
-5 0 -10 5 -10 10 0 6 5 10 10 10 6 0 10 -4 10 -10z m468 3 c-10 -2 -28 -2
-40 0 -13 2 -5 4 17 4 22 1 32 -1 23 -4z m1445 -13 c-6 -22 -18 -26 -28 -10
-8 13 3 30 20 30 8 0 11 -7 8 -20z m-1065 -12 c-2 -19 -10 -23 -43 -24 l-40
-2 40 7 40 6 -33 12 c-18 7 -39 10 -47 7 -8 -4 -15 -1 -15 5 0 7 20 11 51 11
47 0 50 -2 47 -22z m-1374 -67 c-2 -2 -13 7 -24 20 -11 13 -24 29 -30 36 -5 7
-10 16 -10 20 0 4 16 -10 34 -32 19 -22 32 -42 30 -44z m1116 75 c0 -2 -9 -6
-20 -9 -11 -3 -18 -1 -14 4 5 9 34 13 34 5z m300 -17 c0 -6 -4 -7 -10 -4 -5 3
-10 11 -10 16 0 6 5 7 10 4 6 -3 10 -11 10 -16z m326 -6 c-8 -8 -36 5 -36 17
0 7 6 7 21 0 11 -7 18 -14 15 -17z m742 9 c2 -7 -2 -10 -12 -6 -9 3 -16 11
-16 16 0 13 23 5 28 -10z m-680 -11 c3 -8 -1 -12 -9 -9 -7 2 -15 10 -17 17 -3
8 1 12 9 9 7 -2 15 -10 17 -17z m572 5 c0 -3 -4 -8 -10 -11 -5 -3 -10 -1 -10
4 0 6 5 11 10 11 6 0 10 -2 10 -4z m-2311 -9 c-2 -1 -11 -8 -20 -15 -13 -10
-19 -9 -29 3 -11 13 -8 15 20 15 19 0 31 -1 29 -3z m1928 -3 c-3 -3 -12 -4
-19 -1 -8 3 -5 6 6 6 11 1 17 -2 13 -5z m-1627 -14 c0 -5 -12 -10 -26 -10 -14
0 -23 4 -19 10 3 6 15 10 26 10 10 0 19 -4 19 -10z m110 6 c0 -3 -4 -8 -10
-11 -5 -3 -10 -1 -10 4 0 6 5 11 10 11 6 0 10 -2 10 -4z m115 -15 c-3 -6 -14
-11 -23 -11 -15 1 -15 2 2 15 21 16 32 13 21 -4z m600 9 c-27 -12 -35 -12 -35
0 0 6 12 10 28 9 24 0 25 -1 7 -9z m595 -10 c0 -5 -2 -10 -4 -10 -3 0 -8 5
-11 10 -3 6 -1 10 4 10 6 0 11 -4 11 -10z m550 -30 c-11 -21 -13 -21 -28 -6
-16 16 -16 18 2 32 26 19 42 3 26 -26z m-2384 13 c-3 -3 4 -15 15 -26 13 -15
16 -24 8 -31 -7 -8 -15 -5 -25 8 -16 23 -19 70 -3 61 6 -4 8 -9 5 -12z m1048
2 c3 -9 0 -15 -9 -15 -8 0 -15 7 -15 15 0 8 4 15 9 15 5 0 11 -7 15 -15z m863
9 c-3 -3 -12 -4 -19 -1 -8 3 -5 6 6 6 11 1 17 -2 13 -5z m-487 -14 c0 -5 -4
-10 -10 -10 -5 0 -10 5 -10 10 0 6 5 10 10 10 6 0 10 -4 10 -10z m185 -10 c4
-6 -7 -10 -27 -9 -27 0 -30 2 -13 9 27 12 33 12 40 0z m50 0 c3 -5 2 -10 -4
-10 -5 0 -13 5 -16 10 -3 6 -2 10 4 10 5 0 13 -4 16 -10z m450 0 c3 -5 -1 -10
-9 -10 -8 0 -18 5 -21 10 -3 6 1 10 9 10 8 0 18 -4 21 -10z m325 4 c0 -3 -6
-12 -14 -19 -17 -17 -30 -7 -15 12 12 13 29 18 29 7z m-2280 -18 c0 -11 -19
-15 -25 -6 -3 5 1 10 9 10 9 0 16 -2 16 -4z m183 -13 c-7 -2 -19 -2 -25 0 -7
3 -2 5 12 5 14 0 19 -2 13 -5z m2017 -13 c0 -5 -2 -10 -4 -10 -3 0 -8 5 -11
10 -3 6 -1 10 4 10 6 0 11 -4 11 -10z m-1600 -31 c0 -11 -3 -11 -24 -3 -23 9
-20 23 4 17 11 -3 20 -9 20 -14z m1736 -16 c-8 -15 -15 -25 -16 -21 0 12 23
58 27 54 3 -2 -2 -17 -11 -33z m-938 10 c-10 -2 -26 -2 -35 0 -10 3 -2 5 17 5
19 0 27 -2 18 -5z m105 0 c-7 -2 -19 -2 -25 0 -7 3 -2 5 12 5 14 0 19 -2 13
-5z m187 -3 c0 -5 -4 -10 -9 -10 -6 0 -13 5 -16 10 -3 6 1 10 9 10 9 0 16 -4
16 -10z m368 -2 c-3 -7 -8 -13 -13 -13 -5 0 -10 6 -12 13 -3 6 3 12 12 12 9 0
15 -6 13 -12z m-271 -4 c-3 -3 -12 -4 -19 -1 -8 3 -5 6 6 6 11 1 17 -2 13 -5z
m-1012 -26 c6 -4 2 -8 -7 -8 -10 0 -18 7 -18 17 0 9 3 12 8 7 4 -5 12 -12 17
-16z m255 13 c0 -5 -12 -11 -27 -14 -26 -5 -26 -4 -8 9 22 16 35 18 35 5z
m1351 -28 c-10 -17 -10 -16 -11 3 0 23 13 41 18 25 2 -6 -1 -18 -7 -28z
m-2402 18 c18 -12 0 -21 -28 -14 -17 4 -19 8 -9 14 16 11 20 11 37 0z m936 -1
c4 -6 -7 -10 -27 -9 -27 0 -30 2 -13 9 27 12 33 12 40 0z m162 4 c-3 -3 -12
-4 -19 -1 -8 3 -5 6 6 6 11 1 17 -2 13 -5z m1053 -14 c0 -5 -2 -10 -4 -10 -3
0 -8 5 -11 10 -3 6 -1 10 4 10 6 0 11 -4 11 -10z m-755 -10 c3 -6 -5 -10 -19
-10 -14 0 -28 5 -31 10 -3 6 5 10 19 10 14 0 28 -4 31 -10z m-1222 -7 c-7 -2
-19 -2 -25 0 -7 3 -2 5 12 5 14 0 19 -2 13 -5z m1077 -23 c0 -13 -11 -13 -30
0 -12 8 -11 10 8 10 12 0 22 -4 22 -10z m-1197 -7 c-7 -2 -21 -2 -30 0 -10 3
-4 5 12 5 17 0 24 -2 18 -5z m225 0 c-10 -2 -26 -2 -35 0 -10 3 -2 5 17 5 19
0 27 -2 18 -5z m299 -9 c-3 -3 -12 -4 -19 -1 -8 3 -5 6 6 6 11 1 17 -2 13 -5z
m-562 -27 c7 -6 -1 -8 -24 -3 -18 3 -41 6 -50 6 -14 0 -14 2 -1 10 16 10 59 3
75 -13z m652 17 c-3 -3 -12 -4 -19 -1 -8 3 -5 6 6 6 11 1 17 -2 13 -5z m1783
2 c0 -3 -4 -8 -10 -11 -5 -3 -10 -1 -10 4 0 6 5 11 10 11 6 0 10 -2 10 -4z
m-1618 -17 c-4 -4 -26 -9 -50 -11 -37 -3 -41 -2 -26 9 17 13 89 14 76 2z m68
1 c-20 -13 -43 -13 -35 0 3 6 16 10 28 10 18 0 19 -2 7 -10z m223 3 c-7 -2
-19 -2 -25 0 -7 3 -2 5 12 5 14 0 19 -2 13 -5z m60 0 c-7 -2 -19 -2 -25 0 -7
3 -2 5 12 5 14 0 19 -2 13 -5z m-1043 -13 c-30 -5 -61 -4 -70 1 -10 5 10 8 55
7 l70 0 -55 -8z m367 4 c-3 -3 -12 -4 -19 -1 -8 3 -5 6 6 6 11 1 17 -2 13 -5z
m1023 -5 c12 -9 10 -10 -8 -6 -13 3 -31 3 -40 0 -13 -6 -13 -8 4 -14 17 -7 17
-8 -4 -8 -12 -1 -30 3 -40 8 -9 5 -28 14 -42 19 -21 9 -13 11 45 11 39 0 77
-4 85 -10z m238 -9 c12 0 22 -4 22 -10 0 -16 -145 -13 -159 4 -10 12 -2 13 51
10 35 -2 73 -4 86 -4z m92 -10 c0 -5 -4 -10 -9 -10 -6 0 -13 5 -16 10 -3 6 1
10 9 10 9 0 16 -4 16 -10z m257 -6 c-3 -3 -12 -4 -19 -1 -8 3 -5 6 6 6 11 1
17 -2 13 -5z m323 -9 c20 -24 6 -28 -15 -5 -10 11 -13 20 -8 20 6 0 16 -7 23
-15z m-500 -31 c0 -2 -9 -4 -20 -4 -11 0 -20 4 -20 9 0 5 9 7 20 4 11 -3 20
-7 20 -9z"/>
<path d="M587 1784 c-4 -4 -7 -14 -7 -23 0 -11 3 -12 11 -4 6 6 10 16 7 23 -2
6 -7 8 -11 4z"/>
<path d="M216 1744 c-3 -9 -6 -23 -6 -32 1 -15 3 -14 15 2 17 22 20 46 6 46
-5 0 -12 -7 -15 -16z"/>
<path d="M426 1744 c-4 -9 -4 -19 -2 -21 8 -8 26 8 26 23 0 19 -16 18 -24 -2z"/>
<path d="M276 1724 c-8 -21 -8 -24 3 -24 12 0 22 28 12 35 -5 3 -12 -2 -15
-11z"/>
<path d="M318 1713 c-3 -10 -9 -27 -14 -37 -5 -14 -4 -17 4 -12 19 12 31 41
23 55 -6 9 -10 8 -13 -6z"/>
<path d="M696 1704 c-11 -28 -6 -39 9 -20 10 13 15 15 15 6 0 -7 2 -11 5 -8 7
7 -5 38 -15 38 -4 0 -11 -7 -14 -16z"/>
<path d="M170 1673 l1 -38 14 34 c18 41 18 41 0 41 -11 0 -15 -11 -15 -37z"/>
<path d="M580 1664 c0 -8 5 -12 10 -9 6 3 10 10 10 16 0 5 -4 9 -10 9 -5 0
-10 -7 -10 -16z"/>
<path d="M660 1636 c0 -8 5 -18 10 -21 6 -3 10 3 10 14 0 12 -4 21 -10 21 -5
0 -10 -6 -10 -14z"/>
<path d="M760 1605 c0 -33 12 -65 21 -59 5 3 6 17 3 32 -8 35 -24 52 -24 27z"/>
<path d="M2365 1662 c-13 -14 -1 -30 38 -51 115 -63 227 -143 227 -162 0 -5
-9 -9 -20 -9 -14 0 -20 -7 -20 -23 0 -13 -6 -24 -12 -24 -19 -1 -228 -24 -265
-29 -47 -7 -43 -36 10 -72 69 -47 136 -82 159 -82 40 0 97 32 109 62 6 16 25
39 40 53 16 13 29 33 29 44 0 12 7 21 15 21 22 0 18 28 -5 35 -24 8 -26 21 -5
33 14 7 10 18 -25 69 -22 33 -40 69 -40 80 0 43 -35 57 -136 59 -52 0 -96 -2
-99 -4z m191 -43 c13 -12 24 -27 24 -33 0 -6 11 -28 25 -48 31 -46 32 -58 3
-31 -13 12 -58 42 -101 68 -42 26 -75 50 -73 54 3 4 26 8 52 10 37 2 52 -3 70
-20z m53 -266 c-2 -26 -69 -98 -101 -109 -35 -12 -38 -11 -113 37 -43 28 -75
52 -72 55 12 12 287 28 286 17z"/>
<path d="M2200 1585 c-26 -43 -30 -99 -8 -121 11 -11 47 -18 119 -24 58 -5
141 -12 187 -15 l82 -7 -1 28 c0 27 -10 34 -137 96 -75 36 -156 69 -178 73
-40 6 -43 5 -64 -30z m120 -16 c25 -7 74 -32 110 -54 36 -23 74 -44 84 -48 42
-16 2 -17 -129 -2 -75 8 -141 15 -145 15 -10 0 -40 29 -40 38 0 4 9 22 20 40
14 23 26 32 38 28 9 -2 37 -10 62 -17z"/>
<path d="M2270 1111 c0 -10 30 -24 37 -17 3 3 2 9 -2 15 -8 13 -35 15 -35 2z"/>
<path d="M2330 1094 c0 -8 10 -14 26 -14 28 0 25 15 -6 23 -13 3 -20 0 -20 -9z"/>
<path d="M2542 1028 c3 -7 13 -15 24 -17 16 -3 17 -1 5 13 -16 19 -34 21 -29
4z"/>
<path d="M2379 1012 c21 -15 71 -25 71 -14 0 5 -69 32 -82 31 -7 0 -2 -8 11
-17z"/>
<path d="M2210 1001 c0 -5 7 -14 15 -21 8 -7 15 -21 15 -30 0 -10 4 -20 10
-22 5 -1 29 -31 53 -65 24 -35 47 -60 50 -57 8 8 -3 35 -22 57 -12 14 -12 20
-3 26 9 5 4 15 -18 34 -16 15 -30 32 -30 37 0 6 -7 10 -15 10 -8 0 -20 9 -27
20 -13 21 -28 27 -28 11z"/>
<path d="M2485 980 c3 -5 13 -10 21 -10 8 0 12 5 9 10 -3 6 -13 10 -21 10 -8
0 -12 -4 -9 -10z"/>
<path d="M2360 961 c0 -6 9 -11 19 -11 11 0 23 -4 26 -10 3 -5 16 -10 28 -10
19 0 20 2 7 15 -20 19 -80 32 -80 16z"/>
<path d="M1521 1052 c-35 -35 -51 -57 -43 -60 7 -2 40 23 73 55 36 37 53 60
43 60 -9 0 -42 -25 -73 -55z"/>
<path d="M3047 1903 c5 -12 2 -15 -10 -10 -9 3 -17 2 -17 -3 0 -6 5 -10 10
-10 6 0 10 -8 11 -17 1 -12 4 -10 9 7 11 36 11 50 0 50 -5 0 -6 -8 -3 -17z"/>
<path d="M3021 1654 c0 -11 3 -14 6 -6 3 7 2 16 -1 19 -3 4 -6 -2 -5 -13z"/>
<path d="M3026 1514 c-10 -25 -7 -49 7 -68 11 -16 13 -11 13 33 0 51 -8 65
-20 35z"/>
<path d="M30 1491 c0 -11 5 -23 10 -26 6 -3 10 3 10 14 0 11 -4 23 -10 26 -5
3 -10 -3 -10 -14z"/>
<path d="M3026 1395 c4 -8 8 -15 10 -15 2 0 4 7 4 15 0 8 -4 15 -10 15 -5 0
-7 -7 -4 -15z"/>
<path d="M3020 1345 c0 -15 4 -24 10 -20 6 3 10 12 10 20 0 8 -4 17 -10 20 -6
4 -10 -5 -10 -20z"/>
<path d="M3100 1275 c0 -8 5 -15 10 -15 6 0 10 7 10 15 0 8 -4 15 -10 15 -5 0
-10 -7 -10 -15z"/>
<path d="M3102 1237 c-7 -8 -10 -35 -7 -63 2 -27 4 -56 5 -63 0 -12 3 -12 12
-3 10 10 14 129 5 139 -2 2 -9 -3 -15 -10z"/>
<path d="M3050 1151 c0 -49 -5 -74 -15 -85 -17 -16 -21 -116 -5 -116 6 0 5
-10 -2 -26 -9 -20 -9 -27 1 -33 7 -5 11 -14 10 -22 -4 -20 12 -111 19 -105 5
6 11 39 19 104 5 39 6 41 19 25 12 -16 13 -15 14 13 0 37 -25 66 -33 37 -3
-10 -5 -2 -5 17 -1 19 5 46 14 60 l15 25 -6 -32 c-4 -18 -2 -34 4 -38 7 -4 11
15 10 57 0 44 -3 57 -9 43 -8 -18 -9 -17 -11 8 -1 15 -2 30 -3 35 -2 4 -6 28
-10 55 -12 69 -26 57 -26 -22z m0 -125 c0 -14 -3 -27 -7 -29 -5 -3 -8 8 -8 24
0 16 3 29 8 29 4 0 7 -11 7 -24z"/>
<path d="M3088 840 c-3 -16 -1 -35 3 -41 3 -6 8 7 11 30 4 47 -7 56 -14 11z"/>
<path d="M3062 746 c-22 -10 -23 -16 -19 -76 2 -36 6 -72 9 -80 3 -8 3 -12 1
-7 -14 24 -22 -4 -21 -80 2 -167 -3 -247 -14 -254 -9 -6 -8 -12 1 -23 11 -13
11 -22 1 -46 -7 -17 -11 -32 -9 -34 2 -2 34 -6 72 -9 l67 -6 0 29 c0 17 -5 30
-12 30 -9 0 -8 4 2 10 12 8 11 10 -7 10 -13 0 -23 -4 -23 -10 0 -5 -7 -10 -16
-10 -11 0 -14 5 -10 16 3 9 6 22 6 30 0 8 9 14 20 14 18 0 17 2 -6 27 -27 29
-26 57 3 121 8 18 12 40 9 48 -3 9 -9 54 -12 101 -4 53 -12 92 -20 101 -21 21
-27 58 -13 83 12 23 12 23 20 4 7 -19 8 -19 8 3 1 24 -3 25 -37 8z m25 -288
c-3 -8 -6 -5 -6 6 -1 11 2 17 5 13 3 -3 4 -12 1 -19z"/>
<path d="M3127 403 c-10 -18 -17 -40 -17 -50 1 -11 9 -3 21 20 11 21 18 44 16
50 -2 7 -11 -2 -20 -20z"/>
<path d="M1141 194 c0 -11 3 -14 6 -6 3 7 2 16 -1 19 -3 4 -6 -2 -5 -13z"/>
<path d="M1067 63 c-4 -3 -7 -11 -7 -17 0 -6 5 -5 12 2 6 6 9 14 7 17 -3 3 -9
2 -12 -2z"/>
</g>
</svg>
