<?xml version="1.0" standalone="no"?>
<!DOCTYPE svg PUBLIC "-//W3C//DTD SVG 20010904//EN"
 "http://www.w3.org/TR/2001/REC-SVG-20010904/DTD/svg10.dtd">
<svg version="1.0" xmlns="http://www.w3.org/2000/svg"
 width="199.000000pt" height="168.000000pt" viewBox="0 0 199.000000 168.000000"
 preserveAspectRatio="xMidYMid meet">
<metadata>
Created by potrace 1.16, written by Peter Selinger 2001-2019
</metadata>
<g transform="translate(0.000000,168.000000) scale(0.100000,-0.100000)"
fill="#000000" stroke="none">
<path d="M258 1646 c-23 -23 -58 -30 -58 -12 0 23 -16 20 -55 -9 -18 -14 -39
-24 -46 -23 -10 2 -15 -11 -17 -47 -2 -27 -7 -54 -11 -60 -17 -21 -30 -484
-17 -570 9 -53 7 -266 -3 -390 -5 -66 -10 -188 -11 -272 -1 -141 1 -154 20
-173 13 -13 34 -20 62 -21 24 -1 35 -3 26 -6 -35 -9 -18 -25 20 -19 20 3 47 6
60 6 15 0 21 4 16 11 -5 9 4 10 32 4 60 -12 157 -6 169 9 8 10 16 11 29 4 12
-7 21 -7 29 1 15 15 157 15 157 0 0 -8 35 -9 123 -4 164 10 404 6 445 -6 22
-7 89 -7 220 1 175 11 408 11 442 0 10 -3 15 2 15 15 0 11 -6 19 -12 18 -7 -2
-19 -4 -25 -5 -9 -2 -13 15 -15 52 -3 50 -2 53 12 36 8 -11 15 -31 15 -44 0
-36 41 -26 52 13 9 34 -7 59 -22 35 -7 -11 -10 -5 -10 23 0 24 5 40 15 43 9 4
15 19 15 35 0 30 -14 39 -24 17 -4 -7 -3 3 0 22 3 19 5 58 3 85 -2 28 -3 88
-1 135 1 47 4 162 6 255 2 94 9 202 15 240 6 39 10 98 11 133 0 34 4 62 8 62
5 0 6 86 4 190 -4 154 -2 190 9 190 10 0 10 3 1 12 -23 23 -555 29 -1032 13
-347 -12 -460 -11 -488 4 -30 16 -167 14 -184 -3z m1039 -48 c13 -6 43 -8 72
-5 41 5 62 1 106 -18 31 -14 70 -25 88 -25 18 0 38 -5 44 -11 7 -7 37 -13 68
-15 47 -3 59 0 78 19 39 39 84 65 125 72 22 3 42 3 45 -2 2 -4 -4 -57 -14
-118 -10 -60 -20 -162 -22 -225 -2 -63 -10 -212 -18 -330 -8 -118 -13 -314
-12 -435 1 -192 -1 -216 -13 -194 -7 15 -20 29 -28 32 -8 3 -27 30 -42 59 -33
66 -27 60 -71 67 -28 5 -43 15 -60 41 -36 55 -42 60 -74 60 -33 0 -49 27 -49
85 0 62 -87 109 -131 69 -16 -14 -18 -13 -23 13 -3 15 -8 57 -12 93 -9 86 -17
106 -49 114 -60 15 -156 -66 -172 -145 -9 -46 -20 -23 -27 59 -6 61 -5 72 8
72 9 0 16 6 16 14 0 7 10 25 21 40 32 41 12 46 -22 6 l-29 -34 0 51 c0 35 6
58 20 76 11 14 20 28 20 31 0 13 -30 5 -38 -11 -9 -14 -10 -14 -16 5 -7 22 8
61 28 74 8 5 7 11 -1 19 -14 14 -14 15 -40 -27 -16 -28 -21 -30 -36 -19 -17
13 -17 16 9 57 15 23 33 47 40 51 16 9 18 33 5 41 -5 4 -29 -25 -53 -63 -36
-58 -48 -70 -75 -73 -21 -3 -29 0 -25 7 4 6 40 57 80 114 41 56 71 105 67 109
-4 4 -12 -2 -19 -12 -6 -11 -25 -36 -42 -55 -16 -20 -48 -61 -70 -91 -21 -30
-56 -74 -77 -98 -29 -34 -37 -50 -33 -71 3 -14 0 -39 -8 -56 -12 -29 -13 -26
-19 55 -4 47 -9 101 -13 121 -6 33 0 42 85 149 50 62 91 116 91 119 0 3 14 15
30 26 29 19 40 45 21 45 -11 0 -17 -6 -86 -87 -27 -32 -65 -73 -83 -92 -18
-19 -39 -43 -47 -55 -15 -20 -15 -19 -15 11 0 17 6 38 13 45 7 7 30 36 51 63
48 63 137 157 168 177 14 9 35 18 49 20 46 6 194 -3 216 -14z m-507 6 c0 -10
-66 -90 -140 -170 -41 -44 -85 -98 -97 -120 -74 -134 -106 -196 -129 -254 -15
-36 -35 -81 -45 -101 -21 -41 -59 -182 -95 -349 -19 -89 -26 -158 -31 -304
l-6 -189 41 7 c26 4 42 2 42 -4 0 -5 -15 -10 -34 -10 -18 0 -46 -2 -62 -4 -16
-2 -23 -1 -16 1 14 5 16 23 2 23 -13 0 -13 247 0 365 16 139 37 252 63 340 29
96 98 280 132 352 14 29 30 64 35 78 12 30 91 147 128 187 14 15 22 31 19 35
-4 4 -30 -18 -58 -48 -40 -41 -50 -48 -44 -29 4 14 8 41 9 61 1 27 11 48 41
80 34 38 45 44 80 44 23 0 45 -6 51 -14 9 -12 14 -11 30 5 17 17 84 31 84 18z
m200 -2 c0 -4 -17 -26 -38 -49 -131 -143 -211 -258 -193 -276 6 -6 11 -22 11
-37 0 -14 7 -83 16 -155 22 -180 34 -199 64 -103 31 99 104 191 126 157 3 -5
11 -8 17 -6 7 2 24 -2 38 -10 29 -18 45 -77 54 -208 8 -110 18 -149 37 -153
11 -2 21 9 29 32 7 20 16 36 19 36 4 0 11 10 17 23 6 12 32 33 58 46 45 22 49
23 60 7 7 -9 18 -54 24 -99 13 -92 29 -147 41 -147 5 0 17 12 28 26 27 37 68
27 88 -22 8 -19 13 -38 10 -42 -2 -4 3 -23 13 -42 13 -28 23 -36 48 -38 27 -3
35 -11 53 -48 21 -42 29 -48 85 -56 12 -2 32 -24 50 -55 17 -29 38 -55 48 -58
9 -4 17 -12 17 -19 0 -7 11 -25 25 -40 30 -33 31 -36 4 -36 -36 0 -59 19 -59
49 0 42 -41 75 -90 73 -34 -2 -40 0 -40 16 0 11 -7 36 -15 56 -15 35 -49 54
-78 43 -21 -8 -55 37 -67 88 -15 66 -37 105 -60 105 -15 0 -23 -13 -36 -56 -8
-30 -20 -54 -25 -52 -5 2 -9 8 -10 13 0 6 -6 17 -14 25 -25 29 -33 70 -34 171
-1 51 -5 70 -21 87 -18 19 -24 20 -43 11 -12 -7 -27 -18 -34 -24 -23 -23 -86
-192 -77 -207 3 -4 3 -8 0 -8 -3 0 -14 17 -25 38 -26 52 -51 187 -51 281 0 98
-13 123 -69 135 -41 9 -44 8 -73 -23 -21 -23 -35 -52 -45 -99 -18 -78 -31
-105 -71 -150 l-30 -33 -13 68 c-8 39 -14 136 -14 225 0 87 -3 158 -7 158 -4
0 -12 -8 -17 -17 -9 -15 -10 -13 -11 12 l-1 30 -20 -25 c-27 -32 -112 -201
-143 -282 -20 -55 -43 -147 -103 -413 -9 -40 -18 -141 -21 -238 l-5 -167 -23
0 c-32 0 -37 26 -31 167 11 232 44 393 127 620 83 230 251 495 387 613 34 30
63 60 63 67 0 6 10 14 23 16 12 2 23 5 25 6 1 0 2 -2 2 -7z m-80 -10 c0 -16
-92 -97 -97 -84 -9 22 -41 12 -65 -20 -28 -39 -45 -68 -53 -88 -9 -22 -25 -50
-80 -141 -44 -72 -50 -79 -55 -58 -6 23 -7 23 -17 4 -5 -11 -20 -48 -32 -82
-15 -40 -29 -63 -42 -66 -10 -3 -19 -2 -19 1 0 7 68 134 121 229 14 25 31 43
42 43 9 0 17 5 17 11 0 5 -5 7 -12 3 -34 -21 53 88 142 179 68 68 81 77 113
77 21 0 37 -4 37 -8z m-380 -10 c0 -4 -31 -42 -68 -84 -71 -79 -74 -85 -145
-238 -52 -113 -70 -165 -96 -285 -11 -49 -29 -119 -40 -155 -22 -73 -40 -184
-44 -275 -2 -33 -4 -13 -5 45 -2 122 14 275 33 304 13 20 19 44 30 116 18 112
139 422 183 468 7 8 20 28 28 45 9 18 23 39 30 48 14 16 94 26 94 11z m-42
-112 c-7 -11 -17 -20 -22 -20 -5 0 -1 9 9 20 10 11 20 20 22 20 2 0 -2 -9 -9
-20z m282 -25 c-7 -8 -18 -15 -24 -15 -6 0 -2 7 8 15 25 19 32 19 16 0z m-320
-66 c0 -26 -28 -79 -41 -79 -8 0 -7 -5 1 -15 11 -13 9 -24 -10 -66 -13 -28
-27 -45 -30 -38 -5 6 -16 -4 -29 -25 -13 -20 -27 -34 -31 -31 -5 3 -13 -3 -19
-12 -6 -10 -11 -14 -11 -10 0 14 22 52 36 60 9 5 11 18 7 37 -3 18 -1 30 5 30
6 0 12 -8 14 -17 2 -10 11 5 20 35 10 28 29 64 43 80 14 15 23 33 20 40 -6 17
5 43 16 36 5 -3 9 -14 9 -25z m-373 -71 c-3 -7 -5 -2 -5 12 0 14 2 19 5 13 2
-7 2 -19 0 -25z m20 -90 c-3 -7 -5 -2 -5 12 0 14 2 19 5 13 2 -7 2 -19 0 -25z
m449 -115 c-15 -30 -25 -41 -26 -29 0 19 41 88 48 81 2 -2 -8 -25 -22 -52z
m170 -117 c-10 -29 -27 53 -20 99 l8 50 8 -69 c5 -39 7 -75 4 -80z m-439 62
c-6 -24 -13 -36 -15 -27 -3 15 14 69 22 69 2 0 -1 -19 -7 -42z m343 -53 c-6
-15 -13 -25 -16 -22 -3 3 0 22 8 43 7 20 14 30 16 22 2 -8 -2 -27 -8 -43z
m398 43 c7 -7 12 -18 12 -25 0 -11 -4 -11 -20 -1 -11 7 -20 18 -20 25 0 16 12
17 28 1z m-572 -24 c-4 -9 -9 -15 -11 -12 -3 3 -3 13 1 22 4 9 9 15 11 12 3
-3 3 -13 -1 -22z m44 -16 c0 -16 -3 -19 -11 -11 -6 6 -8 16 -5 22 11 17 16 13
16 -11z m-63 -53 c-6 -19 -14 -35 -18 -35 -4 0 -14 -19 -23 -41 -9 -23 -19
-39 -22 -36 -9 9 57 157 68 151 3 -2 1 -20 -5 -39z m-350 -12 c-3 -10 -5 -4
-5 12 0 17 2 24 5 18 2 -7 2 -21 0 -30z m190 15 c-3 -8 -6 -5 -6 6 -1 11 2 17
5 13 3 -3 4 -12 1 -19z m1620 -15 c-3 -10 -5 -4 -5 12 0 17 2 24 5 18 2 -7 2
-21 0 -30z m-1221 -62 c-3 -36 -6 -76 -6 -88 0 -13 -4 -23 -8 -23 -4 0 -7 28
-6 63 1 34 -2 64 -6 67 -5 3 -6 17 -3 32 4 19 10 25 20 21 13 -5 14 -18 9 -72z
m278 30 c-4 -23 -9 -40 -11 -37 -3 3 -2 23 2 46 4 23 9 39 11 37 3 -2 2 -23
-2 -46z m63 -8 c-4 -21 -9 -96 -13 -168 -3 -71 -9 -131 -13 -133 -4 -1 -5 -17
-3 -36 5 -44 -8 -50 -43 -20 -19 16 -25 28 -18 32 6 4 12 30 13 57 3 76 0 76
-21 -5 -10 -41 -24 -79 -29 -84 -6 -6 -10 -21 -10 -35 0 -22 -2 -23 -14 -11
-12 13 -12 30 -2 110 7 52 11 101 8 108 -2 6 4 12 13 12 15 0 16 -6 11 -45 -8
-51 8 -63 17 -12 19 102 59 201 48 118 -2 -7 2 -10 8 -6 6 3 11 16 11 27 0 17
7 50 26 116 8 28 16 9 11 -25z m-554 -10 c-9 -21 -26 -76 -39 -122 -25 -89
-40 -119 -31 -61 9 58 23 104 50 164 29 62 45 78 20 19z m262 -53 c3 -30 9
-63 11 -72 3 -10 1 -18 -5 -18 -13 0 -19 22 -26 105 -7 83 9 70 20 -15z m-604
-25 c-5 -39 -9 -59 -11 -45 -3 33 0 81 6 103 11 36 13 11 5 -58z m469 -40 c-6
-15 -13 -25 -17 -22 -3 4 0 21 8 38 16 39 24 24 9 -16z m-42 1 c0 -18 -4 -39
-9 -47 -10 -17 -12 23 -3 59 9 31 12 28 12 -12z m750 -7 c-3 -20 -5 -19 -9 9
-3 20 -2 29 4 23 5 -5 7 -19 5 -32z m-604 -16 c-7 -39 -14 -42 -14 -5 0 18 4
32 9 32 5 0 7 -12 5 -27z m43 -55 c-3 -7 -5 -2 -5 12 0 14 2 19 5 13 2 -7 2
-19 0 -25z m325 -22 c0 -20 4 -36 9 -36 5 0 9 -17 9 -37 0 -28 -3 -34 -10 -23
-11 18 -13 9 -10 -52 1 -23 -3 -38 -10 -38 -11 0 -11 25 0 224 1 26 12 -8 12
-38z m-462 24 c0 -5 -5 -10 -11 -10 -5 0 -7 5 -4 10 3 6 8 10 11 10 2 0 4 -4
4 -10z m85 -17 c-4 -16 -9 -62 -10 -103 -2 -41 -10 -91 -18 -110 -8 -19 -18
-78 -22 -130 -13 -153 -12 -174 6 -178 21 -4 36 32 54 138 17 97 18 120 7 120
-5 0 -14 -32 -21 -71 -19 -103 -25 -76 -10 40 12 93 14 99 25 73 12 -27 15
-25 18 13 5 57 19 126 28 131 6 4 7 -17 4 -55 -3 -34 -8 -89 -12 -123 -3 -35
-14 -101 -25 -147 -18 -80 -18 -84 -2 -97 13 -10 14 -13 4 -14 -8 0 -19 -7
-25 -16 -9 -11 -28 -16 -65 -16 -29 1 -55 3 -58 5 -2 3 5 22 16 43 12 21 21
55 21 74 -1 33 -1 34 -16 15 -8 -11 -18 -32 -21 -47 -10 -50 -18 -29 -16 40 2
37 5 126 7 197 2 72 8 141 14 155 l11 25 1 -25 c1 -14 3 -32 4 -40 2 -8 3 -25
4 -37 2 -27 22 -31 22 -5 0 14 2 15 10 2 17 -27 25 1 24 81 0 43 1 79 3 79 2
0 8 -10 12 -22 9 -23 9 -23 16 5 4 15 9 27 12 27 3 0 2 -12 -2 -27z m35 2 c0
-8 -4 -15 -10 -15 -5 0 -7 7 -4 15 4 8 8 15 10 15 2 0 4 -7 4 -15z m126 -17
c-4 -13 -11 -68 -17 -123 -5 -55 -12 -104 -14 -110 -5 -12 4 172 11 202 2 12
-1 25 -7 29 -8 4 -7 9 2 15 23 15 32 10 25 -13z m-259 -10 c-3 -8 -6 -5 -6 6
-1 11 2 17 5 13 3 -3 4 -12 1 -19z m-200 -10 c-3 -8 -6 -5 -6 6 -1 11 2 17 5
13 3 -3 4 -12 1 -19z m128 -37 c-4 -28 -11 -51 -17 -51 -10 0 -5 46 8 93 11
35 16 8 9 -42z m116 16 c-12 -31 -36 -36 -28 -6 4 13 7 30 7 38 0 11 3 11 14
1 10 -8 12 -18 7 -33z m96 11 c-3 -8 -6 -5 -6 6 -1 11 2 17 5 13 3 -3 4 -12 1
-19z m68 2 c-3 -5 -12 -85 -21 -177 -8 -92 -17 -175 -21 -183 -3 -8 -5 -25 -4
-37 1 -11 -3 -24 -10 -28 -12 -8 -10 34 11 165 5 36 13 106 15 155 7 101 10
115 25 115 6 0 9 -4 5 -10z m415 -21 c0 -5 -4 -9 -10 -9 -5 0 -10 7 -10 16 0
8 5 12 10 9 6 -3 10 -10 10 -16z m240 5 c0 -8 -4 -12 -10 -9 -5 3 -10 10 -10
16 0 5 5 9 10 9 6 0 10 -7 10 -16z m-420 -16 c0 -16 -3 -19 -11 -11 -6 6 -8
16 -5 22 11 17 16 13 16 -11z m857 -80 c-2 -18 -4 -6 -4 27 0 33 2 48 4 33 2
-15 2 -42 0 -60z m-747 51 c0 -14 -17 -10 -23 5 -4 10 -1 13 9 9 7 -3 14 -9
14 -14z m74 5 c11 -4 16 -18 16 -43 -1 -32 -2 -34 -14 -18 -7 9 -18 17 -25 17
-12 0 -15 32 -4 43 8 8 8 8 27 1z m-192 -34 c-2 -16 -6 -30 -8 -30 -2 0 -4 14
-4 30 0 17 4 30 8 30 5 0 7 -13 4 -30z m-906 -68 c1 -42 4 -140 7 -217 4 -97
3 -120 -3 -75 -12 99 -23 386 -14 377 4 -4 9 -42 10 -85z m383 25 c-5 -17 -9
-33 -9 -34 0 -2 -5 -3 -11 -3 -10 0 -4 52 8 73 11 19 21 -7 12 -36z m198 6
c-3 -10 -5 -4 -5 12 0 17 2 24 5 18 2 -7 2 -21 0 -30z m453 -25 c0 -10 -33 3
-42 16 -4 6 -8 20 -8 31 0 17 3 16 25 -10 13 -16 24 -33 25 -37z m-798 -88
c-9 -74 -19 -122 -20 -105 -5 39 24 252 33 243 2 -2 -4 -64 -13 -138z m575 93
c-3 -10 -5 -4 -5 12 0 17 2 24 5 18 2 -7 2 -21 0 -30z m-130 5 c-3 -8 -6 -5
-6 6 -1 11 2 17 5 13 3 -3 4 -12 1 -19z m167 16 c25 -9 21 -43 -4 -37 -11 3
-20 14 -20 24 0 21 1 22 24 13z m226 -15 c0 -6 -4 -7 -10 -4 -5 3 -10 11 -10
16 0 6 5 7 10 4 6 -3 10 -11 10 -16z m140 0 c0 -5 -4 -9 -10 -9 -5 0 -10 7
-10 16 0 8 5 12 10 9 6 -3 10 -10 10 -16z m-247 -9 c-5 -19 -23 -29 -23 -12 0
7 20 32 26 32 1 0 0 -9 -3 -20z m-936 -32 c-3 -7 -5 -2 -5 12 0 14 2 19 5 13
2 -7 2 -19 0 -25z m160 0 c-3 -7 -5 -2 -5 12 0 14 2 19 5 13 2 -7 2 -19 0 -25z
m565 1 c-2 -7 -5 -26 -7 -41 -5 -41 -27 -142 -32 -151 -2 -4 -8 -5 -12 -2 -5
2 -2 35 4 72 7 37 16 85 19 106 5 23 12 37 19 34 7 -3 11 -11 9 -18z m170 -1
c-7 -7 -12 -8 -12 -2 0 14 12 26 19 19 2 -3 -1 -11 -7 -17z m-122 -8 c0 -11
-7 -20 -15 -20 -8 0 -15 9 -15 20 0 11 7 20 15 20 8 0 15 -9 15 -20z m220 0
c0 -16 -4 -18 -22 -11 -32 12 -34 31 -4 31 19 0 26 -5 26 -20z m267 -12 c-3
-8 -6 -5 -6 6 -1 11 2 17 5 13 3 -3 4 -12 1 -19z m-397 -8 c0 -11 -6 -20 -14
-20 -7 0 -16 9 -19 20 -4 15 0 20 14 20 12 0 19 -7 19 -20z m170 5 c0 -8 -4
-15 -10 -15 -5 0 -10 7 -10 15 0 8 5 15 10 15 6 0 10 -7 10 -15z m333 -26 c-3
-10 -9 -22 -13 -24 -5 -3 -4 -21 1 -41 14 -48 6 -79 -9 -41 -13 30 -16 105 -6
131 9 24 33 1 27 -25z m-294 -14 c0 -5 -4 -3 -9 5 -5 8 -9 22 -9 30 0 16 17
-16 18 -35z m328 -7 c-2 -13 -4 -5 -4 17 -1 22 1 32 4 23 2 -10 2 -28 0 -40z
m-491 33 c11 9 15 8 20 -5 8 -22 3 -26 -24 -19 -12 3 -22 13 -21 22 0 11 2 12
6 3 4 -10 8 -10 19 -1z m-546 -11 c0 -5 -4 -10 -10 -10 -5 0 -10 5 -10 10 0 6
5 10 10 10 6 0 10 -4 10 -10z m616 -17 c-7 -7 -26 7 -26 19 0 6 6 6 15 -2 9
-7 13 -15 11 -17z m321 -5 c-3 -7 -5 -2 -5 12 0 14 2 19 5 13 2 -7 2 -19 0
-25z m-638 -36 c-9 -60 -28 -132 -35 -132 -2 0 -2 10 0 23 3 12 10 55 16 95 7
39 15 70 19 67 5 -2 5 -26 0 -53z m101 32 c0 -8 -3 -14 -7 -14 -5 0 -9 -21
-10 -47 -2 -30 -8 -52 -18 -59 -10 -8 -12 -15 -6 -18 6 -4 8 -13 4 -21 -7 -20
7 -19 24 3 10 12 16 14 19 5 10 -23 21 -14 32 26 14 46 15 61 3 61 -5 0 -11
-13 -14 -30 -4 -18 -13 -30 -22 -30 -12 0 -14 6 -9 28 14 55 29 91 39 92 10 0
11 -4 14 -36 2 -22 21 -7 21 17 0 10 5 19 10 19 6 0 10 -6 10 -12 0 -28 -31
-142 -42 -155 -8 -10 -6 -13 11 -13 12 0 21 6 21 15 0 8 5 15 10 15 12 0 14
-37 2 -44 -4 -2 -43 -6 -86 -7 -43 -1 -97 -6 -120 -10 -57 -10 -81 5 -32 21
25 8 38 19 42 36 3 13 11 24 16 24 6 0 7 -11 4 -25 -4 -14 -2 -25 2 -25 5 0
20 47 32 104 17 76 27 103 37 99 7 -3 13 -11 13 -19z m265 16 c3 -5 1 -10 -4
-10 -6 0 -11 5 -11 10 0 6 2 10 4 10 3 0 8 -4 11 -10z m451 -46 c-13 -42 -21
-27 -11 23 4 23 9 32 14 24 4 -6 3 -27 -3 -47z m-1099 4 c-3 -8 -6 -5 -6 6 -1
11 2 17 5 13 3 -3 4 -12 1 -19z m538 2 c16 -6 17 -9 5 -13 -26 -9 -50 -4 -50
10 0 15 15 16 45 3z m105 -11 c0 -5 -4 -9 -10 -9 -5 0 -10 7 -10 16 0 8 5 12
10 9 6 -3 10 -10 10 -16z m375 -8 c3 -5 1 -12 -5 -16 -5 -3 -10 1 -10 9 0 18
6 21 15 7z m189 -9 c2 -4 -4 -13 -14 -19 -15 -10 -17 -9 -13 8 5 20 18 25 27
11z m-1547 -109 c-2 -21 -4 -4 -4 37 0 41 2 58 4 38 2 -21 2 -55 0 -75z m872
75 c0 -13 -7 -39 -14 -58 l-13 -35 1 57 c1 39 6 58 15 58 6 0 12 -10 11 -22z
m-39 -28 c0 -16 -4 -30 -10 -30 -11 0 -14 43 -3 53 11 12 13 8 13 -23z m83 8
c-4 -13 -12 -32 -20 -43 -11 -16 -13 -17 -13 -3 0 25 18 68 29 68 5 0 7 -10 4
-22z m185 3 c3 -8 -1 -12 -9 -9 -7 2 -15 10 -17 17 -3 8 1 12 9 9 7 -2 15 -10
17 -17z m328 -18 c-11 -11 -17 4 -9 23 7 18 8 18 11 1 2 -10 1 -21 -2 -24z
m-1094 -5 c-9 -9 -12 -7 -12 12 0 19 3 21 12 12 9 -9 9 -15 0 -24z m1015 0
c-3 -7 -5 -2 -5 12 0 14 2 19 5 13 2 -7 2 -19 0 -25z m-387 -9 c0 -6 -7 -17
-15 -25 -13 -14 -15 -14 -15 -1 0 25 11 47 21 41 5 -3 9 -10 9 -15z m497 -11
c-3 -8 -6 -5 -6 6 -1 11 2 17 5 13 3 -3 4 -12 1 -19z m-470 -20 c-3 -8 -6 -5
-6 6 -1 11 2 17 5 13 3 -3 4 -12 1 -19z m95 0 c-6 -6 -15 -8 -19 -4 -4 4 -1
11 7 16 19 12 27 3 12 -12z m548 -18 c0 -11 -4 -20 -10 -20 -5 0 -10 9 -10 20
0 11 5 20 10 20 6 0 10 -9 10 -20z m-1304 -62 c-44 -13 -56 -9 -56 19 0 21 3
24 12 15 18 -18 48 -15 49 6 1 11 4 8 8 -8 6 -20 3 -26 -13 -32z m717 35 c-7
-2 -19 -2 -25 0 -7 3 -2 5 12 5 14 0 19 -2 13 -5z m-56 -19 c-3 -3 -12 -4 -19
-1 -8 3 -5 6 6 6 11 1 17 -2 13 -5z m81 -1 c-10 -2 -28 -2 -40 0 -13 2 -5 4
17 4 22 1 32 -1 23 -4z m287 -13 c8 -12 -92 -13 -150 -1 -33 7 -24 9 52 10 52
0 95 -3 98 -9z m283 -15 c-3 -3 -13 -2 -22 1 -14 5 -15 9 -4 15 13 8 36 -6 26
-16z m-560 -2 c-10 -2 -26 -2 -35 0 -10 3 -2 5 17 5 19 0 27 -2 18 -5z m-430
-10 c-10 -2 -28 -2 -40 0 -13 2 -5 4 17 4 22 1 32 -1 23 -4z m80 0 c-10 -2
-28 -2 -40 0 -13 2 -5 4 17 4 22 1 32 -1 23 -4z m-568 -17 c0 -9 -50 -12 -62
-5 -8 6 1 9 25 9 20 0 37 -2 37 -4z"/>
<path d="M1345 1491 c-56 -25 -122 -102 -140 -164 -35 -119 -7 -237 56 -232
19 2 23 7 21 26 -1 13 -5 47 -8 74 -8 70 9 123 56 175 22 24 40 48 40 52 0 4
13 8 28 8 16 0 37 9 47 20 17 19 17 21 0 40 -22 25 -48 25 -100 1z m23 -37
c-27 -13 -48 -29 -48 -35 0 -5 -11 -22 -25 -37 -40 -42 -57 -101 -53 -175 3
-69 -5 -78 -21 -22 -14 52 11 156 52 213 33 48 86 82 122 82 13 -1 3 -10 -27
-26z"/>
<path d="M1604 1456 c-8 -21 13 -46 32 -39 20 8 13 47 -9 51 -9 2 -20 -4 -23
-12z"/>
<path d="M1009 1404 c-18 -26 -47 -60 -64 -75 -32 -28 -115 -144 -115 -161 0
-4 7 -8 15 -8 8 0 15 5 15 10 0 17 61 102 113 160 48 52 83 108 74 117 -3 2
-20 -17 -38 -43z"/>
<path d="M1516 1403 c-4 -5 -32 -8 -61 -9 -65 -1 -77 -10 -110 -82 -19 -40
-24 -64 -19 -89 3 -18 10 -33 15 -33 5 0 9 -6 9 -13 0 -7 14 -26 30 -42 26
-25 38 -29 88 -29 31 0 67 4 80 8 22 8 22 7 22 -70 0 -55 3 -74 10 -64 5 8 10
30 10 48 0 17 4 32 9 32 5 0 12 10 16 23 6 17 10 8 14 -38 l6 -60 13 90 c7 50
10 106 6 125 l-6 35 21 -30 c28 -41 26 -13 -3 49 -15 31 -46 70 -79 99 -30 26
-57 50 -59 52 -3 3 -8 2 -12 -2z m22 -81 c29 -54 37 -114 18 -150 -18 -35 -33
-42 -88 -42 -33 0 -46 6 -73 34 -39 41 -53 85 -32 101 7 5 16 17 20 25 3 8 6
-2 6 -22 1 -50 20 -87 47 -94 39 -10 77 0 95 26 26 35 11 95 -31 130 -36 30
-38 39 -6 33 14 -3 31 -19 44 -41z m-93 -51 c3 -5 1 -12 -5 -16 -5 -3 -10 1
-10 9 0 18 6 21 15 7z m60 -60 c-3 -6 -11 -11 -17 -11 -6 0 -6 6 2 15 14 17
26 13 15 -4z"/>
<path d="M1676 1382 c-3 -5 8 -20 23 -35 44 -41 54 -96 61 -317 3 -75 3 -75
10 -25 14 84 11 228 -4 280 -9 28 -28 60 -46 77 -34 31 -36 32 -44 20z"/>
<path d="M1336 1073 c-11 -11 -6 -40 9 -53 13 -11 15 -8 15 18 0 31 -11 47
-24 35z"/>
<path d="M1446 935 c3 -60 8 -112 11 -115 21 -22 15 140 -7 200 -7 17 -8 -11
-4 -85z"/>
<path d="M1180 967 c-54 -47 -79 -107 -45 -107 9 0 15 9 15 21 0 12 16 37 35
56 50 50 46 75 -5 30z"/>
<path d="M1619 960 c0 -3 -1 -85 -2 -183 -2 -162 2 -211 17 -196 12 11 9 360
-3 372 -6 6 -11 9 -12 7z"/>
<path d="M1538 888 c8 -90 17 -133 27 -128 18 9 0 180 -19 180 -10 0 -12 -14
-8 -52z"/>
<path d="M1763 640 c0 -47 2 -66 4 -42 2 23 2 61 0 85 -2 23 -4 4 -4 -43z"/>
<path d="M1690 621 c0 -5 5 -13 10 -16 6 -3 10 -2 10 4 0 5 -4 13 -10 16 -5 3
-10 2 -10 -4z"/>
<path d="M947 724 c-8 -8 1 -24 14 -24 5 0 9 7 9 15 0 15 -12 20 -23 9z"/>
<path d="M960 676 c0 -9 5 -16 10 -16 6 0 10 4 10 9 0 6 -4 13 -10 16 -5 3
-10 -1 -10 -9z"/>
<path d="M575 469 c-4 -12 -2 -26 4 -32 8 -8 11 -2 11 21 0 37 -6 41 -15 11z"/>
<path d="M597 408 c-8 -35 -16 -54 -17 -43 -2 17 -3 16 -10 -5 -4 -14 -8 -38
-8 -55 l0 -30 13 30 13 30 4 -25 c2 -14 10 15 17 63 16 105 9 124 -12 35z"/>
<path d="M585 60 c3 -5 13 -10 21 -10 8 0 14 5 14 10 0 6 -9 10 -21 10 -11 0
-17 -4 -14 -10z"/>
</g>
</svg>
