<?xml version="1.0" standalone="no"?>
<!DOCTYPE svg PUBLIC "-//W3C//DTD SVG 20010904//EN"
 "http://www.w3.org/TR/2001/REC-SVG-20010904/DTD/svg10.dtd">
<svg version="1.0" xmlns="http://www.w3.org/2000/svg"
 width="293.000000pt" height="180.000000pt" viewBox="0 0 293.000000 180.000000"
 preserveAspectRatio="xMidYMid meet">
<metadata>
Created by potrace 1.16, written by Peter Selinger 2001-2019
</metadata>
<g transform="translate(0.000000,180.000000) scale(0.100000,-0.100000)"
fill="#000000" stroke="none">
<path d="M2513 1746 c-4 -5 -166 -7 -391 -3 -223 3 -437 1 -511 -5 -69 -5
-232 -11 -361 -13 -129 -2 -280 -8 -335 -14 -56 -5 -230 -10 -387 -11 -158 0
-294 -3 -303 -6 -8 -4 -22 -1 -29 5 -15 12 -38 4 -77 -26 -8 -7 -25 -11 -37
-8 -14 2 -22 -1 -22 -11 0 -8 5 -14 10 -14 6 0 10 -5 10 -11 0 -5 -4 -8 -9 -5
-16 10 -24 -184 -14 -349 9 -147 7 -216 -12 -395 -6 -60 -5 -64 9 -46 9 11 16
37 16 57 0 21 4 41 10 44 6 4 10 -59 10 -172 0 -98 4 -216 9 -263 5 -47 10
-142 10 -212 1 -69 6 -141 11 -158 15 -51 49 -76 111 -79 190 -10 742 -2 1114
16 77 4 156 7 175 6 19 -1 39 2 45 7 9 7 63 12 300 25 50 3 128 7 175 10 47 3
177 7 290 11 113 3 210 10 216 15 7 5 56 12 110 14 55 2 116 7 137 11 27 4 37
2 37 -7 0 -8 12 -2 28 14 23 23 27 36 27 80 -1 168 -15 619 -25 779 -9 137 -9
232 -1 355 12 187 6 283 -16 283 -9 0 -13 11 -11 35 1 19 0 36 -2 39 -10 9
-312 11 -317 2z m-216 -82 c-3 -3 -12 -4 -19 -1 -8 3 -5 6 6 6 11 1 17 -2 13
-5z m35 -16 c-7 -7 -12 -8 -12 -2 0 6 3 14 7 17 3 4 9 5 12 2 2 -3 -1 -11 -7
-17z m-851 -21 c-10 -9 -11 -8 -5 6 3 10 9 15 12 12 3 -3 0 -11 -7 -18z m-165
-20 c-14 -15 -26 -23 -26 -18 0 11 41 53 47 48 2 -3 -7 -16 -21 -30z m-416 12
c0 -6 -6 -9 -12 -6 -7 2 -22 -3 -32 -12 -18 -15 -18 -15 -7 7 12 22 51 31 51
11z m253 -68 c-44 -81 -67 -97 -27 -18 33 65 55 99 61 93 2 -2 -13 -36 -34
-75z m1155 54 c-6 -14 -15 -25 -20 -25 -5 0 -1 11 8 25 9 14 18 25 20 25 2 0
-2 -11 -8 -25z m-1921 -7 c-3 -8 -6 -5 -6 6 -1 11 2 17 5 13 3 -3 4 -12 1 -19z
m202 -4 c-14 -18 -24 -11 -15 11 3 9 11 13 16 10 8 -5 7 -11 -1 -21z m91 11
c-7 -8 -16 -15 -21 -15 -5 0 -6 7 -3 15 4 8 13 15 21 15 13 0 13 -3 3 -15z
m74 0 c-4 -8 -8 -15 -10 -15 -2 0 -4 7 -4 15 0 8 4 15 10 15 5 0 7 -7 4 -15z
m229 -72 c-25 -49 -50 -92 -56 -98 -7 -7 -8 -7 -5 0 2 6 17 37 33 70 27 57 62
115 70 115 2 0 -17 -39 -42 -87z m97 79 c0 -5 -7 -17 -15 -28 -14 -18 -14 -17
-4 9 12 27 19 34 19 19z m-899 -25 c-10 -9 -11 -8 -5 6 3 10 9 15 12 12 3 -3
0 -11 -7 -18z m159 13 c0 -5 -4 -10 -10 -10 -5 0 -10 5 -10 10 0 6 5 10 10 10
6 0 10 -4 10 -10z m-96 -104 c-20 -53 -39 -94 -41 -92 -3 3 8 40 25 83 16 43
32 87 36 97 3 10 9 17 11 14 3 -3 -11 -48 -31 -102z m-83 47 c-12 -20 -14 -14
-5 12 4 9 9 14 11 11 3 -2 0 -13 -6 -23z m674 -54 c-20 -41 -45 -85 -56 -99
-11 -14 3 21 31 78 29 57 54 102 56 99 3 -2 -11 -38 -31 -78z m1433 46 c-6
-14 -13 -23 -15 -21 -5 5 15 46 22 46 3 0 -1 -11 -7 -25z m-1213 -85 c-25 -51
-48 -90 -51 -87 -5 5 49 121 76 164 30 47 18 12 -25 -77z m-912 50 c-3 -12 -8
-19 -11 -16 -5 6 5 36 12 36 2 0 2 -9 -1 -20z m1017 -1 c-7 -11 -14 -18 -17
-15 -3 3 0 12 7 21 18 21 23 19 10 -6z m1141 -16 c-12 -20 -14 -14 -5 12 4 9
9 14 11 11 3 -2 0 -13 -6 -23z m-1295 -15 c-18 -26 -22 -17 -5 14 6 11 13 17
16 15 3 -3 -2 -16 -11 -29z m80 -122 c-30 -64 -58 -116 -61 -116 -3 0 1 16 9
35 25 59 100 204 104 201 2 -2 -22 -56 -52 -120z m224 116 c0 -5 -7 -17 -15
-28 -14 -18 -14 -17 -4 9 12 27 19 34 19 19z m-222 -29 c-16 -39 -32 -54 -18
-19 12 33 19 46 25 46 3 0 -1 -12 -7 -27z m728 -1 c-17 -16 -18 -16 -5 5 7 12
15 20 18 17 3 -2 -3 -12 -13 -22z m981 6 c-3 -8 -6 -5 -6 6 -1 11 2 17 5 13 3
-3 4 -12 1 -19z m-137 -7 c-11 -21 -30 -37 -30 -25 0 8 30 44 37 44 2 0 -1 -9
-7 -19z m-446 -9 c6 -10 -17 -31 -54 -50 -34 -18 -84 -62 -77 -68 3 -3 24 6
47 21 l42 27 -27 -35 c-26 -32 -33 -35 -99 -40 -39 -3 -73 -3 -75 -1 -7 7 31
44 40 38 4 -2 13 4 19 15 6 12 16 18 25 15 9 -4 15 0 15 9 0 20 45 52 90 65
46 13 48 13 54 4z m-1308 -30 c-17 -16 -18 -16 -5 5 7 12 15 20 18 17 3 -2 -3
-12 -13 -22z m365 -9 c-12 -20 -14 -14 -5 12 4 9 9 14 11 11 3 -2 0 -13 -6
-23z m971 -5 c-7 -7 -12 -8 -12 -2 0 6 3 14 7 17 3 4 9 5 12 2 2 -3 -1 -11 -7
-17z m-291 -22 c-12 -12 -21 -27 -21 -33 0 -5 -48 -54 -107 -109 -150 -138
-192 -185 -193 -213 0 -17 -4 -22 -16 -17 -21 8 -68 -18 -123 -68 -50 -47
-167 -138 -191 -149 -70 -34 -187 -139 -206 -183 -8 -20 -25 -36 -46 -43 -97
-37 -151 -74 -171 -120 l-11 -26 -4 23 c-8 50 61 118 257 252 107 73 179 130
262 206 47 43 139 126 205 184 65 57 155 141 199 184 85 85 165 147 178 139 5
-3 -1 -15 -12 -27z m-1661 -13 c-11 -17 -11 -17 -6 0 3 10 6 24 7 30 0 9 2 9
5 0 3 -7 0 -20 -6 -30z m761 14 c-10 -9 -11 -8 -5 6 3 10 9 15 12 12 3 -3 0
-11 -7 -18z m-564 -9 c-3 -8 -6 -5 -6 6 -1 11 2 17 5 13 3 -3 4 -12 1 -19z
m1773 -7 c0 -11 -62 -61 -75 -61 -5 0 6 16 25 35 34 35 50 43 50 26z m149 -44
c1 -5 -3 -5 -9 -2 -5 3 -10 16 -9 28 0 21 1 21 9 2 5 -11 9 -24 9 -28z m-2292
-9 c-3 -7 -5 -2 -5 12 0 14 2 19 5 13 2 -7 2 -19 0 -25z m2680 -20 c-2 -13 -4
-5 -4 17 -1 22 1 32 4 23 2 -10 2 -28 0 -40z m-480 20 c-3 -8 -6 -5 -6 6 -1
11 2 17 5 13 3 -3 4 -12 1 -19z m-106 -31 c-16 -16 -26 0 -10 19 9 11 15 12
17 4 2 -6 -1 -17 -7 -23z m-257 -2 c3 -8 3 -21 0 -29 -4 -10 2 -12 22 -8 19 3
25 1 20 -7 -4 -6 -20 -11 -35 -11 -15 0 -42 -5 -60 -11 -48 -17 -50 -3 -6 41
45 44 50 46 59 25z m416 -120 c6 4 10 19 10 36 0 22 5 29 20 29 21 0 27 -19
10 -36 -7 -7 -7 -21 1 -42 13 -38 -10 -119 -41 -147 -11 -10 -17 -22 -14 -27
3 -5 -8 -24 -25 -44 -17 -19 -31 -40 -31 -45 0 -6 -6 -9 -14 -6 -7 3 -26 -8
-42 -24 -15 -16 -30 -27 -32 -24 -3 2 -20 -8 -38 -23 -84 -69 -265 -204 -427
-317 -70 -50 -140 -99 -155 -110 -103 -77 -171 -123 -206 -140 -51 -25 -63
-59 -17 -45 24 7 31 6 31 -6 0 -8 -3 -14 -7 -14 -77 -2 -231 -14 -272 -21 -29
-5 -96 -12 -147 -15 -85 -6 -94 -5 -88 10 4 11 18 16 45 16 l39 0 1 43 c1 23
1 46 0 50 -3 20 22 47 44 47 14 0 25 6 25 13 0 7 13 21 30 30 28 17 30 17 30
1 0 -10 -7 -24 -15 -33 -74 -81 -87 -101 -69 -101 3 0 41 28 83 63 42 34 89
71 106 81 16 11 86 65 157 122 91 74 132 101 146 97 15 -3 44 17 108 77 49 45
118 103 154 128 135 96 416 311 439 336 14 14 22 29 18 32 -4 4 -15 -4 -26
-17 -11 -13 -20 -18 -21 -11 0 7 15 28 33 48 17 19 46 50 62 68 17 18 37 30
44 28 8 -3 19 4 25 14 9 15 12 5 14 -54 2 -43 7 -70 12 -67z m-887 105 c-5
-19 -23 -29 -23 -12 0 7 20 32 26 32 1 0 0 -9 -3 -20z m675 -6 c18 -7 35 -20
38 -29 8 -21 -13 -44 -35 -38 -10 3 -22 0 -25 -6 -4 -6 -18 -11 -32 -11 -23 0
-25 3 -22 37 3 35 1 38 -32 49 -33 11 -34 12 -10 16 32 6 76 -1 118 -18z
m-739 -25 c-20 -12 -22 -4 -8 23 12 21 13 21 17 4 2 -10 -2 -22 -9 -27z
m-1245 -6 c-7 -30 -24 -55 -24 -36 0 17 18 63 25 63 3 0 2 -12 -1 -27z m512
-15 c-11 -15 -16 -18 -16 -7 0 16 21 42 28 34 2 -2 -3 -14 -12 -27z m127 22
c9 0 17 -4 17 -9 0 -11 -71 -81 -82 -81 -4 0 -10 16 -14 35 -8 42 10 69 40 61
12 -3 29 -6 39 -6z m195 -28 c2 -7 -2 -10 -12 -6 -9 3 -16 11 -16 16 0 13 23
5 28 -10z m175 3 c-3 -9 -8 -14 -10 -11 -3 3 -2 9 2 15 9 16 15 13 8 -4z
m-266 -8 c22 -12 22 -12 3 -37 -22 -29 -27 -26 -36 18 -7 35 -1 38 33 19z
m222 -2 c6 -24 -2 -35 -24 -35 -29 0 -34 24 -7 39 16 10 28 8 31 -4z m166 -6
c-8 -12 -65 -12 -65 0 0 10 49 20 63 13 4 -2 5 -8 2 -13z m248 2 c17 -6 17 -8
-2 -25 -16 -14 -24 -16 -34 -7 -16 12 -68 -21 -121 -77 -16 -17 -33 -29 -37
-26 -11 7 1 106 15 122 25 27 122 34 179 13z m497 5 c-21 -19 -76 -36 -119
-36 -34 0 -104 -20 -143 -41 -25 -13 -25 12 0 28 35 21 181 57 252 62 21 1 22
-1 10 -13z m-1331 -43 c10 -34 8 -39 -22 -73 -18 -20 -37 -45 -43 -56 -10 -17
-13 -13 -19 29 -7 43 -5 51 17 75 14 15 28 35 31 45 10 28 25 20 36 -20z m153
0 c4 -33 -1 -43 -40 -85 -25 -27 -48 -48 -53 -48 -5 0 -13 19 -20 42 l-11 43
48 42 c27 23 54 43 60 43 7 0 14 -17 16 -37z m110 -22 c-2 -19 2 -37 9 -41 17
-11 3 -40 -20 -40 -11 0 -29 -10 -41 -22 -11 -12 -20 -20 -21 -17 -12 90 -11
101 17 130 37 39 60 35 56 -10z m297 10 c11 -7 8 -16 -17 -42 -36 -39 -47 -34
-38 16 7 36 25 45 55 26z m7 -170 c-56 -56 -56 -56 -56 -27 0 17 10 41 23 54
l22 25 -23 -6 c-34 -8 -25 11 33 76 l50 55 3 -61 3 -61 -55 -55z m784 154
c-13 -14 -29 -25 -36 -25 -6 0 -17 -7 -24 -15 -14 -17 -30 -20 -30 -6 0 5 13
14 29 21 16 6 37 20 47 31 9 10 22 19 27 19 6 0 0 -11 -13 -25z m430 21 c0 -3
-4 -8 -10 -11 -5 -3 -10 -1 -10 4 0 6 5 11 10 11 6 0 10 -2 10 -4z m-1425 -15
c3 -5 -4 -12 -15 -16 -11 -3 -20 -11 -20 -17 0 -6 -3 -9 -6 -6 -7 8 14 48 26
48 5 0 11 -4 15 -9z m400 -27 c-51 -45 -91 -68 -50 -28 29 29 75 62 85 63 3 0
-13 -16 -35 -35z m464 27 c16 -10 6 -31 -15 -31 -8 0 -14 -9 -14 -20 0 -23 29
-27 48 -8 7 7 12 8 12 2 0 -23 -23 -29 -106 -24 -55 3 -89 9 -91 17 -6 16 39
44 95 59 58 16 54 15 71 5z m-734 -65 c-5 -25 -19 -45 -45 -66 -21 -17 -41
-30 -44 -30 -4 0 -6 21 -4 47 3 42 7 50 43 74 47 32 59 26 50 -25z m-835 20
c0 -3 -4 -8 -10 -11 -5 -3 -10 -1 -10 4 0 6 5 11 10 11 6 0 10 -2 10 -4z m378
-44 c10 -41 9 -42 -36 -84 l-46 -42 -9 29 c-7 21 -5 35 8 59 18 32 66 88 71
83 2 -1 7 -21 12 -45z m142 -7 c0 -44 -2 -46 -45 -67 -25 -12 -45 -26 -45 -31
0 -5 7 -7 15 -3 18 6 21 -29 4 -40 -15 -9 -25 10 -34 60 -6 40 -5 42 42 84 26
23 51 42 55 42 5 0 8 -20 8 -45z m-275 -55 c-19 -20 -22 -51 -3 -32 18 18 25
15 31 -15 5 -26 -14 -64 -51 -102 -17 -17 -22 -12 -29 32 -3 23 0 47 11 68 9
17 16 38 16 45 0 7 5 25 12 39 12 27 12 27 20 4 6 -15 4 -27 -7 -39z m471 36
c1 -7 5 -27 8 -43 5 -23 2 -34 -18 -52 l-25 -23 -7 37 c-5 28 -2 47 11 72 18
33 27 35 31 9z m649 14 c3 -6 -6 -15 -20 -20 -37 -14 -40 -13 -20 10 20 22 31
25 40 10z m255 -5 c0 -8 -4 -15 -10 -15 -5 0 -10 7 -10 15 0 8 5 15 10 15 6 0
10 -7 10 -15z m-95 -8 c17 -1 31 -6 32 -12 4 -14 -114 -54 -160 -55 -21 0 -74
-12 -119 -27 -96 -33 -118 -56 -98 -103 7 -17 10 -33 8 -36 -7 -6 -68 54 -68
66 0 21 163 113 248 140 23 7 47 18 52 25 5 6 24 10 42 8 18 -2 47 -5 63 -6z
m-685 -16 c0 -5 -16 -19 -35 -32 -19 -13 -35 -27 -35 -31 0 -5 -5 -8 -12 -8
-7 0 6 18 27 40 38 39 55 49 55 31z m-438 -67 c13 -49 3 -90 -31 -129 -18 -20
-35 -35 -38 -32 -3 4 -11 32 -19 64 l-13 58 36 38 c21 20 42 36 47 34 5 -2 13
-17 18 -33z m1654 0 c-10 -14 -20 -23 -23 -20 -3 3 2 17 11 32 10 14 20 23 23
20 3 -3 -2 -17 -11 -32z m-1394 -11 c4 -35 1 -42 -41 -80 -47 -44 -61 -51 -61
-33 0 24 76 150 90 150 4 0 10 -17 12 -37z m868 28 c0 -8 -54 -46 -83 -59 -5
-3 -7 6 -5 19 2 16 14 26 43 35 22 6 41 12 43 13 1 1 2 -3 2 -8z m907 -124
c-2 -23 -3 -1 -3 48 0 50 1 68 3 42 2 -26 2 -67 0 -90z m-1597 99 c0 -19 -22
-43 -87 -98 -130 -108 -131 -109 -74 -35 41 52 58 66 72 62 15 -5 19 -1 19 16
0 22 45 79 62 79 4 0 8 -11 8 -24z m100 19 c0 -12 -100 -95 -197 -164 -44 -30
-45 -31 -18 -5 17 16 52 47 79 69 27 21 65 54 85 72 33 31 51 40 51 28z m440
-31 c0 -3 -16 -12 -36 -20 -20 -8 -54 -26 -75 -40 -44 -27 -69 -31 -69 -9 0
16 34 38 43 28 4 -3 14 0 23 8 34 28 114 52 114 33z m630 -23 c0 -5 -15 -20
-32 -32 l-33 -22 29 31 c32 34 36 37 36 23z m-590 -11 c0 -5 -4 -10 -10 -10
-5 0 -10 5 -10 10 0 6 5 10 10 10 6 0 10 -4 10 -10z m-1121 -47 c22 -91 23
-87 -18 -127 l-38 -37 -11 44 c-7 24 -14 51 -17 59 -5 13 52 98 67 98 4 0 11
-17 17 -37z m191 32 c0 -12 -33 -55 -41 -55 -13 0 -11 34 3 48 12 12 38 17 38
7z m1786 -42 c-10 -26 -18 -8 -9 23 5 21 8 24 11 11 2 -10 1 -25 -2 -34z
m-896 22 c0 -8 -9 -19 -20 -25 -21 -11 -25 -4 -14 24 8 20 34 21 34 1z m-1210
-68 c-19 -19 -22 -19 -16 -4 3 11 9 31 13 45 l6 26 10 -22 c9 -19 6 -27 -13
-45z m1830 53 c0 -5 -5 -10 -11 -10 -5 0 -7 5 -4 10 3 6 8 10 11 10 2 0 4 -4
4 -10z m87 -12 c-3 -8 -6 -5 -6 6 -1 11 2 17 5 13 3 -3 4 -12 1 -19z m-1478
-27 c-44 -42 -51 -39 -9 4 18 19 35 33 38 31 2 -2 -11 -18 -29 -35z m704 19
c-7 -28 -29 -44 -39 -29 -4 7 2 20 16 31 28 23 29 23 23 -2z m-888 -18 c-5
-28 -22 -65 -44 -96 l-20 -30 -10 28 c-14 36 -16 32 25 82 36 43 56 50 49 16z
m115 13 c0 -17 -71 -85 -82 -79 -19 12 -5 43 30 66 44 31 52 33 52 13z m588
-22 c2 -10 -7 -28 -19 -39 l-21 -19 3 30 c3 24 0 30 -15 30 -11 0 -21 -6 -24
-14 -3 -8 0 -11 7 -7 6 4 11 1 11 -8 0 -9 -4 -16 -10 -16 -5 0 -10 -7 -10 -15
0 -9 9 -15 23 -15 12 0 38 -10 57 -21 33 -20 33 -22 15 -35 -18 -13 -21 -12
-28 11 -10 28 -28 32 -48 9 -11 -14 -13 -14 -21 0 -6 10 -21 16 -41 15 -18 -1
-24 -3 -14 -6 9 -2 17 -9 17 -14 0 -11 -91 -78 -107 -79 -19 0 -16 18 6 32 10
6 17 17 14 24 -2 6 21 33 51 60 31 26 56 53 56 60 0 7 12 22 26 33 30 23 67
15 72 -16z m912 33 c0 -3 -4 -8 -10 -11 -5 -3 -10 -1 -10 4 0 6 5 11 10 11 6
0 10 -2 10 -4z m-786 -77 c-3 -5 -9 -9 -15 -9 -11 0 -12 43 -2 54 9 9 25 -33
17 -45z m756 29 c0 -18 -2 -20 -10 -8 -16 26 -22 3 -12 -51 l10 -54 -49 -52
c-27 -28 -50 -49 -51 -45 -1 4 -2 27 -2 51 -1 27 -6 46 -14 49 -11 3 -13 -10
-10 -63 l3 -67 -39 -34 c-22 -19 -43 -34 -48 -34 -5 0 -6 24 -2 53 5 42 12 58
41 85 19 19 32 36 30 39 -3 2 -25 -5 -49 -17 -23 -11 -35 -14 -24 -6 10 8 49
43 87 76 125 112 139 120 139 78z m-1795 -54 c16 -56 16 -57 -6 -80 -31 -33
-39 -30 -39 16 0 22 -5 40 -10 40 -7 0 -9 -20 -4 -60 6 -59 6 -61 -30 -100
-20 -22 -36 -34 -36 -27 0 7 12 58 26 112 18 70 33 108 52 128 14 15 27 27 28
27 1 0 10 -25 19 -56z m441 -10 c-20 -21 -38 -35 -42 -32 -3 4 12 22 33 41 49
46 55 40 9 -9z m-106 33 c0 -2 -9 -12 -20 -22 -24 -21 -27 -14 -4 9 15 15 24
20 24 13z m1510 -8 c0 -3 -11 -16 -25 -29 l-25 -23 0 29 c0 24 4 29 25 29 14
0 25 -3 25 -6z m-1620 -18 c0 -19 -56 -81 -72 -81 -13 0 -9 10 22 56 33 47 50
56 50 25z m747 -8 c-15 -16 -17 -16 -17 -1 0 9 6 18 13 21 20 7 22 -2 4 -20z
m927 -42 c7 -52 5 -66 -8 -79 -13 -13 -19 -14 -40 -3 -14 8 -30 27 -37 42 -10
26 -9 32 22 68 19 22 39 38 44 37 6 -2 14 -31 19 -65z m-1778 20 c10 -24 7
-35 -20 -79 -17 -28 -33 -52 -36 -52 -3 0 -12 21 -18 47 -13 47 -13 47 20 79
18 18 35 32 38 33 3 1 10 -12 16 -28z m1412 -4 c-9 -6 -40 -32 -69 -57 -178
-153 -244 -207 -272 -223 l-32 -19 25 22 c14 11 42 35 63 53 20 17 37 38 37
47 0 8 18 24 40 34 22 11 40 23 40 28 0 4 5 8 12 8 7 0 28 15 48 34 42 42 113
95 119 90 3 -3 -3 -10 -11 -17z m409 4 c3 -11 13 -21 24 -24 16 -4 19 -14 19
-61 0 -59 -25 -109 -42 -83 -16 24 -8 80 14 104 21 23 13 34 -10 11 -15 -15
-18 -11 -25 35 -6 38 11 54 20 18z m243 -25 c-6 -20 -15 -38 -20 -41 -5 -3 -2
15 7 40 8 25 17 44 20 41 3 -2 0 -21 -7 -40z m-2316 -35 c-9 -23 -18 -40 -21
-38 -2 3 4 23 13 46 9 23 18 40 21 38 2 -3 -4 -23 -13 -46z m1016 15 c0 -5 -7
-3 -15 4 -8 7 -12 17 -9 22 7 10 24 -9 24 -26z m-284 -13 c-1 -30 3 -38 19
-41 49 -10 62 -64 23 -98 -16 -13 -19 -14 -10 -2 21 27 4 68 -34 84 -19 8 -34
19 -34 25 0 7 -10 9 -25 5 -34 -9 -31 3 8 36 43 37 55 35 53 -9z m84 33 c0 -3
-7 -12 -16 -20 -23 -23 -40 -19 -19 4 16 18 35 26 35 16z m180 -47 c0 -9 -42
-40 -47 -35 -2 2 1 15 6 29 7 18 15 25 26 21 8 -3 15 -10 15 -15z m-831 -26
c14 -50 14 -53 -6 -75 -25 -28 -41 -21 -48 22 -5 30 -2 47 9 65 23 34 33 31
45 -12z m111 34 c0 -2 -12 -14 -27 -28 -24 -22 -24 -13 0 19 8 11 27 17 27 9z
m1641 -59 c-9 -24 -38 -44 -49 -34 -2 3 6 21 18 41 25 40 47 35 31 -7z m462
27 c4 -8 2 -17 -3 -20 -6 -4 -10 3 -10 14 0 25 6 27 13 6z m-1488 -15 c10 -11
16 -22 14 -23 -20 -16 -68 -47 -72 -47 -10 0 -1 58 12 74 17 21 24 20 46 -4z
m946 -51 c-14 -23 -21 -28 -21 -16 0 22 33 74 38 59 1 -5 -6 -25 -17 -43z
m130 8 c-8 -8 -11 -7 -11 4 0 20 13 34 18 19 3 -7 -1 -17 -7 -23z m-1247 17
c25 -9 19 -51 -8 -69 -14 -9 -60 -23 -103 -30 -43 -8 -87 -17 -97 -21 -34 -13
-8 15 34 36 21 11 45 28 52 37 31 42 83 62 122 47z m958 -58 c-6 -50 -12 -62
-39 -84 l-33 -25 0 56 c0 52 2 58 37 86 20 17 38 29 40 28 1 -2 -1 -30 -5 -61z
m362 48 c25 -24 19 -52 -21 -94 -40 -44 -53 -49 -53 -22 0 10 15 26 35 36 21
11 35 27 35 38 0 21 -4 22 -31 8 -13 -8 -19 -7 -19 0 0 6 7 13 16 17 8 3 13
12 10 19 -7 19 9 18 28 -2z m-1764 -4 c0 -5 -5 -10 -11 -10 -5 0 -7 5 -4 10 3
6 8 10 11 10 2 0 4 -4 4 -10z m1927 -12 c7 -6 23 -3 44 7 28 15 38 15 71 4 44
-14 46 -21 16 -46 -13 -10 -34 -31 -49 -48 -14 -16 -30 -31 -37 -33 -16 -3
-16 85 0 90 6 2 9 10 7 16 -3 8 -32 -15 -70 -53 -37 -36 -71 -65 -76 -65 -12
0 -23 33 -23 69 0 38 47 82 79 74 14 -3 31 -10 38 -15z m-2099 -35 c9 -42 8
-50 -11 -74 -12 -15 -27 -28 -33 -28 -6 -1 -16 22 -22 51 -12 48 -11 53 10 75
32 34 45 28 56 -24z m288 25 c-9 -12 -16 -32 -16 -44 0 -12 -11 -29 -25 -38
-31 -21 -35 -20 -35 4 0 10 18 37 41 60 45 45 58 51 35 18z m-146 -17 c0 -14
-18 -23 -30 -16 -6 4 -8 11 -5 16 8 12 35 12 35 0z m1550 -11 c0 -10 -16 -32
-35 -47 -22 -18 -33 -34 -30 -44 3 -9 -1 -22 -9 -28 -12 -10 -16 -7 -22 23 -6
34 -3 39 37 76 50 45 59 48 59 20z m-235 -18 c-27 -24 -97 -81 -148 -121 -15
-12 -17 -12 -12 0 4 8 45 44 92 82 87 68 122 89 68 39z m825 -27 c0 -42 -3
-55 -15 -55 -11 0 -15 12 -15 48 0 27 3 52 7 55 16 17 23 3 23 -48z m-2190 26
c0 -6 -5 -13 -11 -16 -5 -4 -15 -19 -21 -33 -9 -22 -12 -24 -15 -9 -3 10 3 29
11 42 16 25 36 33 36 16z m2005 -38 c-26 -18 -32 -7 -9 18 12 14 20 17 23 8 2
-7 -4 -18 -14 -26z m138 5 c-6 -34 -18 -48 -40 -48 -21 0 -15 22 14 52 15 15
28 28 30 28 1 0 0 -15 -4 -32z m-2313 -30 c11 -46 11 -53 -4 -64 -10 -7 -29
-27 -42 -45 -13 -18 -24 -29 -24 -25 0 26 43 186 50 186 4 0 14 -23 20 -52z
m2044 30 c11 -42 6 -58 -25 -89 -37 -36 -53 -33 -57 8 -2 23 5 39 30 65 40 43
44 44 52 16z m-504 -93 c-25 -40 -35 -39 -44 7 -5 27 -1 37 26 66 l33 33 3
-36 c2 -23 -4 -47 -18 -70z m-965 60 c-16 -14 -35 -25 -42 -25 -32 0 -63 -24
-63 -49 0 -33 -14 -56 -29 -47 -6 4 -11 0 -11 -9 0 -9 -6 -15 -12 -12 -7 2
-13 12 -13 23 0 10 -8 20 -18 22 -21 4 -21 11 -2 39 24 34 137 81 195 82 l25
0 -30 -24z m1351 3 c5 -17 -3 -30 -41 -66 -49 -47 -64 -46 -65 4 0 28 56 79
92 83 4 1 10 -9 14 -21z m-266 -44 c0 -22 -8 -36 -30 -52 -16 -12 -31 -22 -34
-22 -2 0 -7 14 -11 31 -6 26 -2 36 26 64 37 36 49 31 49 -21z m-1581 -10 c-12
-13 -26 -24 -31 -24 -17 0 -7 28 19 56 24 25 28 27 31 11 2 -11 -6 -30 -19
-43z m1265 35 c-25 -28 -154 -121 -154 -112 0 8 24 29 113 96 54 42 69 47 41
16z m-989 -9 c4 -6 -1 -22 -10 -36 -9 -13 -13 -29 -10 -34 7 -12 -20 -42 -29
-33 -3 3 -10 -6 -15 -20 -6 -14 -20 -31 -32 -38 -20 -10 -21 -9 -14 7 4 11 7
32 6 48 -1 23 9 40 41 73 44 45 53 50 63 33z m202 -25 c-7 -14 -19 -25 -28
-25 -8 0 -21 -6 -28 -12 -10 -11 -12 -9 -9 6 1 11 17 27 33 37 41 24 45 23 32
-6z m1242 -20 c7 -25 11 -51 8 -59 -11 -27 -53 -46 -115 -52 -71 -8 -77 1 -37
44 24 25 27 26 36 10 12 -22 39 -24 39 -3 0 8 -7 15 -15 15 -8 0 -15 3 -15 8
0 7 71 79 80 81 3 1 12 -19 19 -44z m559 -20 c-10 -10 -42 -8 -45 3 -3 6 3 12
12 12 11 0 15 5 12 14 -3 8 -1 17 6 19 10 3 24 -39 15 -48z m-875 9 c5 -29 1
-43 -18 -69 -14 -17 -25 -37 -25 -43 0 -7 -13 -12 -30 -12 -47 0 -37 22 34 78
36 28 25 43 -15 19 -17 -9 -37 -17 -45 -17 -9 0 -13 -4 -10 -9 6 -10 -24 -25
-32 -16 -3 3 0 5 6 5 6 0 9 6 6 14 -3 8 8 19 28 29 18 9 44 26 58 37 34 27 36
26 43 -16z m462 15 c9 -29 -19 -55 -70 -63 l-40 -7 45 44 c53 52 57 53 65 26z
m-1825 2 c0 -5 -7 -14 -15 -21 -8 -7 -15 -18 -14 -24 5 -39 -15 -50 -26 -15
-5 14 0 28 16 45 23 25 39 31 39 15z m1467 -80 c16 -38 4 -63 -20 -42 -12 9
-16 8 -21 -4 -9 -25 -23 -9 -28 32 -4 28 1 45 16 64 21 26 21 26 30 5 4 -11
15 -36 23 -55z m-1542 23 c13 -34 14 -49 6 -57 -17 -17 -13 -31 11 -42 31 -14
36 -38 7 -33 -18 2 -29 16 -46 58 -12 30 -26 56 -32 58 -10 3 -3 -18 36 -115
3 -8 -14 -12 -61 -12 -36 0 -70 -3 -76 -6 -5 -3 -10 -1 -10 4 0 6 4 11 10 11
5 0 13 13 17 29 7 28 101 151 114 151 4 0 14 -21 24 -46z m1585 -12 c0 -13
-12 -22 -22 -16 -10 6 -1 24 13 24 5 0 9 -4 9 -8z m713 -20 c19 -17 23 -37 5
-25 -7 4 -35 10 -62 13 -27 3 -51 10 -53 17 -9 26 78 22 110 -5z m-273 -7 c0
-3 -17 -5 -37 -5 -35 1 -37 2 -19 15 13 10 24 11 37 4 11 -5 19 -12 19 -14z
m144 10 c4 -12 -3 -15 -32 -15 l-37 1 25 14 c32 18 37 18 44 0z m-1108 -6 c3
-6 -7 -24 -23 -41 -27 -27 -34 -29 -89 -26 -54 3 -57 4 -36 16 17 10 27 10 36
3 10 -9 23 -3 52 24 41 38 49 41 60 24z m60 -4 c-26 -19 -42 -19 -26 0 7 8 20
15 29 15 13 -1 13 -3 -3 -15z m-786 0 c0 -9 -52 -85 -59 -85 -3 0 -17 -3 -30
-7 -17 -4 -22 -3 -17 5 4 7 0 15 -9 18 -12 5 -6 13 27 33 24 14 46 26 50 26 3
0 10 3 14 8 8 8 24 10 24 2z m990 -24 c0 -12 -9 -20 -25 -23 -29 -6 -31 -1 -8
24 21 23 33 23 33 -1z m130 -6 c0 -8 -7 -15 -15 -15 -8 0 -15 7 -15 15 0 8 7
15 15 15 8 0 15 -7 15 -15z m-1047 -10 c-3 -9 -8 -14 -10 -11 -3 3 -2 9 2 15
9 16 15 13 8 -4z m816 -1 c-10 -12 -119 -24 -119 -13 0 10 54 24 92 24 27 0
34 -3 27 -11z m-1579 -21 c0 -21 -3 -24 -9 -14 -5 8 -7 20 -4 28 8 21 13 15
13 -14z m531 -53 c-10 -10 -44 -17 -109 -20 -109 -6 -134 5 -35 15 91 9 106
14 99 32 -11 28 5 33 33 11 24 -20 26 -25 12 -38z m-381 25 c0 -8 -4 -15 -10
-15 -5 0 -7 7 -4 15 4 8 8 15 10 15 2 0 4 -7 4 -15z m940 -24 c0 -5 -17 -12
-37 -16 -61 -12 -143 -15 -143 -5 0 8 35 15 120 23 19 2 41 5 48 5 6 1 12 -2
12 -7z"/>
<path d="M2305 1167 c-28 -58 -28 -57 -17 -57 11 0 46 74 41 88 -2 5 -13 -9
-24 -31z"/>
<path d="M2250 1150 c0 -5 5 -10 10 -10 6 0 10 5 10 10 0 6 -4 10 -10 10 -5 0
-10 -4 -10 -10z"/>
<path d="M2351 1084 c0 -11 3 -14 6 -6 3 7 2 16 -1 19 -3 4 -6 -2 -5 -13z"/>
<path d="M2285 1020 c3 -5 8 -10 11 -10 2 0 4 5 4 10 0 6 -5 10 -11 10 -5 0
-7 -4 -4 -10z"/>
<path d="M2090 924 c0 -8 5 -12 10 -9 6 3 10 10 10 16 0 5 -4 9 -10 9 -5 0
-10 -7 -10 -16z"/>
<path d="M2040 875 c0 -9 5 -15 10 -13 12 4 11 16 -1 24 -5 3 -9 -2 -9 -11z"/>
<path d="M2140 800 c0 -5 5 -10 10 -10 6 0 10 5 10 10 0 6 -4 10 -10 10 -5 0
-10 -4 -10 -10z"/>
<path d="M1950 725 c0 -8 5 -15 10 -15 6 0 10 7 10 15 0 8 -4 15 -10 15 -5 0
-10 -7 -10 -15z"/>
<path d="M1826 713 c-11 -11 -6 -23 9 -23 8 0 15 4 15 9 0 13 -16 22 -24 14z"/>
<path d="M1912 673 c2 -9 9 -18 16 -21 18 -6 15 25 -4 32 -11 4 -14 1 -12 -11z"/>
<path d="M1827 636 c-3 -8 -2 -18 3 -21 13 -8 24 15 12 27 -6 6 -11 4 -15 -6z"/>
<path d="M1697 623 c-12 -11 -8 -23 8 -23 8 0 15 7 15 15 0 16 -12 20 -23 8z"/>
<path d="M1695 519 c-4 -6 -5 -13 -2 -16 7 -7 27 6 27 18 0 12 -17 12 -25 -2z"/>
<path d="M1556 495 c-3 -8 -1 -15 4 -15 6 0 10 7 10 15 0 8 -2 15 -4 15 -2 0
-6 -7 -10 -15z"/>
<path d="M1456 464 c-8 -22 1 -31 16 -16 9 9 9 15 1 23 -7 7 -12 5 -17 -7z"/>
<path d="M1612 468 c3 -7 13 -15 22 -16 12 -3 17 1 14 10 -3 7 -13 15 -22 16
-12 3 -17 -1 -14 -10z"/>
<path d="M1533 375 c-3 -9 -3 -18 0 -21 9 -9 27 6 27 22 0 19 -19 18 -27 -1z"/>
<path d="M1387 324 c-8 -8 1 -24 14 -24 5 0 9 7 9 15 0 15 -12 20 -23 9z"/>
<path d="M1240 295 c0 -9 5 -15 10 -13 12 4 11 16 -1 24 -5 3 -9 -2 -9 -11z"/>
<path d="M1305 230 c-4 -6 -3 -16 3 -22 6 -6 12 -6 17 2 4 6 3 16 -3 22 -6 6
-12 6 -17 -2z"/>
<path d="M2225 280 c-3 -5 -2 -10 4 -10 5 0 13 5 16 10 3 6 2 10 -4 10 -5 0
-13 -4 -16 -10z"/>
</g>
</svg>
