<?xml version="1.0" standalone="no"?>
<!DOCTYPE svg PUBLIC "-//W3C//DTD SVG 20010904//EN"
 "http://www.w3.org/TR/2001/REC-SVG-20010904/DTD/svg10.dtd">
<svg version="1.0" xmlns="http://www.w3.org/2000/svg"
 width="261.000000pt" height="201.000000pt" viewBox="0 0 261.000000 201.000000"
 preserveAspectRatio="xMidYMid meet">
<metadata>
Created by potrace 1.16, written by Peter Selinger 2001-2019
</metadata>
<g transform="translate(0.000000,201.000000) scale(0.100000,-0.100000)"
fill="#000000" stroke="none">
<path d="M799 2006 c-2 -2 -109 -6 -237 -10 -128 -3 -254 -11 -280 -17 -26 -6
-77 -9 -114 -7 -76 3 -100 -12 -111 -68 -2 -16 -12 -59 -20 -97 -12 -52 -13
-86 -6 -155 30 -286 34 -995 8 -1332 -7 -85 -13 -175 -13 -200 l-1 -45 250 4
c138 2 253 5 258 8 4 2 89 6 190 8 100 3 259 12 352 21 94 8 224 18 290 20
139 5 294 20 346 34 20 6 51 21 70 35 32 23 69 43 114 60 11 4 38 8 60 9 22 2
99 8 170 14 386 36 368 35 381 18 15 -21 24 -20 24 3 0 11 5 23 10 26 13 8 13
45 1 45 -6 0 -7 11 -1 28 14 44 20 131 9 137 -5 4 -6 12 -2 18 10 15 9 -12 17
780 l7 667 -45 0 c-40 0 -46 -3 -60 -30 -8 -16 -12 -30 -10 -30 16 0 44 23 44
35 0 8 4 15 10 15 5 0 8 -14 6 -32 -2 -25 -10 -34 -39 -46 -21 -8 -34 -19 -31
-24 4 -6 0 -14 -7 -19 -7 -4 -10 -11 -6 -15 4 -4 22 7 41 25 31 30 34 31 39
12 4 -15 -3 -26 -27 -40 -31 -20 -31 -21 -6 -21 l25 -1 -23 -19 c-12 -10 -18
-21 -13 -24 5 -4 12 -2 16 4 17 28 24 1 22 -87 -1 -74 -5 -97 -15 -95 -7 1
-27 -5 -44 -14 -22 -11 -27 -18 -18 -24 10 -6 8 -11 -9 -21 -21 -14 -28 -29
-12 -29 5 0 26 16 47 35 44 40 54 43 54 15 0 -11 -6 -20 -14 -20 -7 0 -19 -7
-26 -15 -10 -12 -9 -15 6 -15 14 0 11 -7 -16 -35 -37 -38 -29 -47 13 -15 14
11 28 20 33 20 4 0 4 -33 0 -72 -4 -40 -8 -80 -8 -88 0 -8 -5 -21 -11 -27 -6
-9 -6 -13 2 -13 19 0 12 -38 -9 -45 -28 -9 -25 -25 5 -25 30 0 35 -33 8 -49
-16 -9 -16 -10 -1 -11 13 0 16 -7 12 -37 -6 -49 -6 -46 -4 -126 2 -56 -1 -70
-16 -82 -15 -11 -17 -16 -6 -26 10 -11 12 -10 12 1 0 10 3 11 11 3 7 -7 8 -31
4 -67 -8 -63 -26 -78 -20 -16 4 48 -3 54 -40 34 -15 -8 -30 -12 -33 -10 -2 3
-16 -3 -30 -14 -13 -11 -29 -17 -34 -14 -5 3 -17 -1 -26 -9 -21 -18 -82 -39
-82 -28 0 4 17 16 38 25 20 9 55 33 77 53 22 20 29 29 15 19 -46 -31 -145 -76
-166 -76 -12 0 -27 -7 -34 -15 -7 -8 -16 -13 -20 -10 -8 5 -6 67 3 82 4 5 2
26 -4 45 -6 24 -6 45 1 62 6 17 6 26 0 26 -14 0 -12 44 2 58 10 10 10 15 0 21
-8 5 -13 23 -11 42 1 19 -2 42 -6 52 -4 9 -5 29 -3 42 3 14 1 25 -3 25 -15 0
-10 67 6 80 17 14 21 35 5 25 -5 -3 -10 3 -10 14 0 11 5 23 11 27 8 4 7 9 -2
15 -12 8 -11 11 1 19 8 5 21 8 27 5 15 -5 71 40 61 50 -12 12 -50 -6 -44 -21
3 -8 1 -14 -4 -14 -6 0 -10 5 -10 10 0 7 -7 7 -21 0 -24 -13 -38 -5 -21 12 15
15 16 31 1 22 -12 -7 -9 23 6 59 6 13 4 16 -9 11 -13 -5 -16 0 -16 24 0 17 5
34 10 37 6 3 7 17 4 31 -5 18 0 32 17 51 l24 25 -22 -6 c-31 -10 -31 19 0 44
l22 19 -22 -6 c-22 -5 -22 -4 -20 106 1 81 5 111 15 111 6 0 12 7 12 15 0 26
-88 20 -113 -7 l-19 -23 7 23 c6 22 5 23 -54 21 -62 -2 -88 -19 -29 -19 30 0
31 -1 12 -15 -19 -14 -18 -14 4 -15 20 0 22 -5 23 -52 0 -29 3 -62 5 -73 3
-11 7 -33 9 -50 1 -16 5 -37 8 -45 3 -8 7 -54 10 -102 3 -73 1 -86 -10 -76 -8
6 -12 16 -10 22 2 6 0 22 -5 35 -6 17 -5 27 4 33 11 6 10 10 0 17 -9 5 -16 48
-22 135 -5 70 -11 130 -14 133 -3 4 -6 -1 -6 -10 0 -9 -5 -19 -12 -23 -7 -5
-9 0 -6 14 7 25 -13 45 -34 37 -13 -5 -15 -32 -11 -171 l4 -165 -28 3 c-19 2
-29 10 -33 27 -6 25 -44 39 -55 21 -15 -24 -25 7 -26 78 0 69 -14 173 -19 147
-1 -5 -1 -62 0 -126 1 -94 -1 -117 -13 -122 -18 -7 -24 27 -33 204 -6 122 -6
126 14 131 18 5 21 1 25 -36 l4 -41 1 47 c2 35 6 48 20 51 9 3 -199 5 -464 6
-264 0 -483 -1 -485 -3z m1208 -38 c-3 -8 -6 -5 -6 6 -1 11 2 17 5 13 3 -3 4
-12 1 -19z m-343 -40 c5 -37 9 -221 7 -285 -1 -13 -5 -23 -11 -23 -6 0 -11 49
-12 123 -1 113 -2 117 -8 47 -6 -67 -7 -70 -9 -25 -1 28 -6 70 -11 95 -7 37
-4 -119 4 -228 1 -11 -7 -17 -19 -17 -18 0 -20 6 -17 50 1 28 -2 64 -7 80 -8
24 -9 16 -10 -47 -1 -43 -5 -78 -10 -78 -9 0 -19 110 -24 259 -1 52 2 75 11
78 7 3 12 -4 12 -16 0 -12 5 -21 11 -21 6 0 8 9 4 20 -5 14 -2 20 9 20 9 0 16
-7 16 -15 0 -8 4 -15 10 -15 5 0 7 6 4 14 -5 12 5 19 37 25 4 0 9 -18 13 -41z
m-659 12 c-4 -6 -10 -8 -15 -5 -5 3 -11 1 -15 -5 -10 -16 -25 -12 -19 5 4 8
17 15 31 15 14 0 22 -4 18 -10z m105 0 c0 -5 -4 -10 -8 -10 -5 0 -19 -9 -32
-20 -13 -12 -30 -18 -37 -15 -8 2 -12 1 -9 -4 8 -13 -18 -21 -35 -11 -10 7 -5
13 21 25 19 9 46 23 60 30 30 17 40 19 40 5z m100 -9 c0 -11 -4 -21 -10 -23
-5 -2 -6 -18 0 -43 5 -22 10 -111 13 -198 2 -121 0 -160 -10 -169 -10 -8 -13
1 -14 48 -1 33 -3 75 -4 94 -2 19 -6 80 -9 135 -4 55 -10 117 -13 138 -5 35
-4 37 21 37 19 0 26 -5 26 -19z m53 7 c12 3 17 -4 18 -25 l2 -28 5 30 5 30 7
-30 8 -30 1 28 c0 15 7 27 14 28 6 0 39 3 71 5 41 3 62 1 68 -8 4 -7 8 -52 8
-100 0 -49 4 -88 9 -88 5 0 6 45 4 100 -5 97 -5 100 16 100 23 0 24 -6 25
-235 1 -89 -1 -100 -17 -103 -16 -3 -18 3 -16 57 1 33 -1 64 -4 68 -8 8 -9 -3
-7 -79 1 -47 -2 -58 -14 -58 -13 0 -16 13 -17 68 -1 52 -3 60 -9 37 l-8 -30
-1 30 c-1 19 -4 26 -11 19 -6 -6 -6 -30 0 -69 9 -54 4 -89 -8 -56 -4 11 -6 11
-13 0 -16 -26 -21 1 -26 133 -3 73 -6 144 -7 158 0 14 -8 26 -17 28 -12 2 -18
-8 -23 -44 -9 -67 -7 -127 4 -144 7 -10 10 11 11 70 1 108 6 93 12 -33 3 -80
2 -97 -9 -93 -19 7 -18 -9 1 -28 10 -10 12 -17 4 -21 -12 -8 -11 -8 -26 25
-10 22 -12 18 -12 -36 -1 -99 -37 -107 -42 -9 -2 28 -2 28 -7 5 -8 -38 -40
171 -41 263 -1 60 2 76 12 70 6 -4 20 -6 30 -5z m-523 -2 c0 -3 -4 -8 -10 -11
-5 -3 -10 -1 -10 4 0 6 5 11 10 11 6 0 10 -2 10 -4z m-210 -16 c0 -5 -7 -10
-16 -10 -8 0 -12 5 -9 10 3 6 10 10 16 10 5 0 9 -4 9 -10z m126 1 c-3 -5 2
-12 11 -15 14 -6 13 -9 -7 -31 -13 -13 -28 -21 -34 -18 -25 16 -46 9 -55 -18
-9 -26 -47 -56 -57 -46 -3 2 7 18 21 35 14 16 25 36 25 43 1 8 20 24 43 36 46
24 61 28 53 14z m1269 -85 c5 -63 4 -86 -4 -82 -15 10 -14 -6 4 -40 14 -28 15
-24 16 71 1 90 2 95 9 45 4 -30 10 -92 14 -137 6 -91 -2 -103 -41 -60 -16 18
-20 38 -22 105 -1 46 2 81 7 78 4 -2 6 23 4 57 -2 34 -2 60 1 57 2 -3 8 -45
12 -94z m-1134 51 c-10 -9 -11 -8 -5 6 3 10 9 15 12 12 3 -3 0 -11 -7 -18z
m89 19 c0 -2 -16 -14 -35 -26 -26 -16 -34 -27 -30 -40 4 -12 -6 -30 -30 -54
-19 -20 -35 -41 -35 -48 0 -24 -68 -98 -113 -123 l-48 -27 6 36 c5 24 3 36 -4
36 -6 0 -11 -6 -11 -13 0 -32 -90 -121 -106 -104 -6 6 55 87 66 87 6 0 10 7
10 14 0 8 23 43 52 77 37 45 51 70 51 93 0 17 2 25 5 19 2 -7 11 -13 20 -13
12 0 13 -3 4 -12 -7 -7 -12 -20 -12 -30 0 -10 -7 -21 -15 -24 -8 -4 -15 -14
-15 -24 0 -11 -4 -22 -10 -25 -15 -9 -12 -25 5 -25 8 0 15 5 15 11 0 18 63 79
81 79 20 0 45 27 35 37 -4 4 -11 2 -15 -5 -6 -10 -11 -10 -21 3 -11 13 -9 15
9 15 11 0 21 6 21 13 0 9 3 8 9 -2 5 -7 14 -10 20 -6 9 5 9 10 1 20 -8 10 -1
19 32 38 43 25 58 31 58 23z m-550 -11 c0 -2 -18 -14 -40 -25 -22 -11 -40 -17
-40 -12 0 5 15 16 33 25 34 17 47 20 47 12z m100 -5 c0 -5 -4 -10 -10 -10 -5
0 -10 5 -10 10 0 6 5 10 10 10 6 0 10 -4 10 -10z m540 -10 c3 0 -3 -5 -13 -11
-9 -6 -15 -14 -12 -20 4 -5 -1 -12 -9 -15 -9 -3 -16 -10 -16 -16 0 -8 18 -5
58 9 6 3 12 -2 12 -11 0 -9 -5 -16 -11 -16 -6 0 -18 -7 -26 -16 -12 -12 -18
-13 -24 -3 -6 10 -11 10 -23 0 -9 -7 -13 -17 -10 -22 3 -5 0 -9 -6 -9 -7 0
-23 -9 -37 -20 -14 -11 -30 -20 -36 -20 -6 0 -2 9 8 20 10 11 24 20 32 20 7 0
13 9 13 19 0 11 4 22 10 26 5 3 7 11 4 18 -2 7 5 22 16 34 11 12 20 27 20 33
0 8 12 8 50 0z m1064 -6 c9 -23 7 -64 -3 -64 -9 0 -21 34 -21 63 0 21 16 22
24 1z m-1584 -29 c-7 -9 -15 -13 -18 -10 -3 2 1 11 8 20 7 9 15 13 18 10 3 -2
-1 -11 -8 -20z m75 -4 c-3 -6 -11 -11 -17 -11 -6 0 -6 6 2 15 14 17 26 13 15
-4z m535 3 c-15 -17 -17 -17 -23 -1 -3 8 3 14 15 14 16 2 17 -1 8 -13z m-664
-20 c-4 -9 -9 -15 -11 -12 -3 3 -3 13 1 22 4 9 9 15 11 12 3 -3 3 -13 -1 -22z
m223 -26 c-5 -18 -20 -42 -34 -53 -14 -12 -25 -26 -25 -32 0 -6 -13 -21 -30
-33 -16 -12 -30 -27 -30 -34 0 -7 -9 -21 -20 -31 -11 -10 -20 -24 -20 -32 0
-8 -12 -13 -30 -13 -27 0 -29 2 -21 19 6 10 22 22 36 25 15 4 25 13 25 25 0
10 7 24 15 31 8 7 12 16 9 22 -8 12 62 77 92 84 13 3 24 10 24 16 0 5 -4 7 -9
3 -5 -3 -12 -1 -16 4 -5 9 20 30 37 31 4 0 2 -15 -3 -32z m-193 -3 c-9 -9 -13
-21 -10 -26 3 -6 -8 -23 -24 -39 -17 -16 -28 -31 -25 -34 3 -3 0 -12 -6 -20
-7 -8 -10 -20 -6 -25 8 -15 45 9 45 29 0 25 25 55 34 42 4 -7 2 -12 -3 -12 -6
0 -11 -11 -11 -23 0 -27 -31 -60 -59 -62 -10 0 -30 -9 -44 -18 -38 -24 -44
-21 -16 9 13 14 24 31 24 37 2 27 25 64 48 80 19 12 25 25 24 44 -1 15 3 28
10 28 6 0 15 3 19 8 4 4 9 5 12 2 2 -2 -3 -11 -12 -20z m-76 12 c0 -11 -33
-67 -45 -77 -7 -6 -12 -17 -10 -23 6 -16 -37 -89 -56 -95 -12 -5 -12 -3 -1 11
8 9 11 21 7 26 -3 6 5 20 18 32 15 12 23 28 20 39 -3 10 5 26 18 39 13 11 19
21 15 21 -5 0 -3 7 4 15 11 13 30 21 30 12z m714 -64 c-23 -17 -30 -2 -13 28
11 21 12 21 22 4 7 -14 6 -21 -9 -32z m-276 -25 c-12 -24 -46 -54 -53 -46 -2
2 10 20 28 40 36 42 42 43 25 6z m172 13 c0 -5 3 -16 6 -24 3 -9 -3 -16 -15
-20 -24 -6 -27 3 -8 22 10 12 9 13 -7 7 -16 -5 -17 -4 -6 9 14 17 30 20 30 6z
m-730 -31 c0 -6 -7 -13 -15 -16 -8 -4 -15 -12 -15 -19 0 -8 -4 -17 -10 -20
-16 -10 -11 32 6 49 18 18 34 21 34 6z m680 3 c-1 -18 -18 -31 -75 -57 -33
-15 -67 -34 -77 -43 -10 -9 -21 -13 -24 -10 -9 9 15 37 41 49 11 5 43 22 70
38 52 31 65 35 65 23z m-760 -24 c-17 -14 -26 -17 -28 -9 -5 14 16 30 38 30
10 -1 7 -7 -10 -21z m930 9 c0 -7 -25 -26 -55 -43 -53 -28 -69 -45 -42 -45 6
0 26 9 42 20 17 11 36 20 43 20 20 0 14 -28 -8 -35 -11 -3 -20 -11 -20 -16 0
-6 8 -8 19 -4 29 9 32 -12 26 -183 -3 -87 -7 -212 -9 -280 -3 -112 -6 -125
-25 -138 -25 -18 -28 -36 -4 -32 22 4 33 -40 27 -108 -3 -29 -7 -134 -8 -231
-2 -98 -4 -198 -5 -222 -1 -36 -4 -42 -17 -37 -9 4 -37 -3 -61 -15 -31 -15
-55 -20 -79 -16 -25 4 -45 -1 -79 -20 -25 -14 -52 -22 -60 -19 -8 3 -17 1 -20
-4 -6 -10 -31 -17 -195 -60 -47 -12 -92 -25 -100 -28 -8 -3 -18 -6 -22 -6 -3
-1 -10 -4 -14 -9 -4 -4 -14 -7 -22 -7 -7 0 -26 -9 -40 -21 -19 -14 -38 -20
-67 -18 -22 2 -46 -1 -53 -5 -7 -4 -12 -2 -12 5 0 10 -3 10 -12 1 -8 -8 -15
-8 -24 -1 -7 5 -15 6 -18 1 -3 -5 -19 -7 -36 -4 -33 5 -37 17 -19 72 8 23 12
159 13 395 2 408 9 505 38 513 24 6 23 22 -2 22 -18 0 -20 7 -20 59 0 38 4 61
13 64 8 4 9 8 1 14 -13 10 -25 78 -17 99 7 19 23 18 23 -1 0 -8 3 -15 6 -15
10 0 34 28 34 39 0 6 10 11 23 11 20 -1 18 -4 -18 -35 -22 -19 -43 -35 -47
-35 -5 0 -8 -9 -8 -20 0 -25 5 -24 56 3 198 106 270 141 354 172 41 15 82 34
91 41 8 8 23 14 32 14 9 0 18 4 22 9 3 5 29 17 58 27 28 9 82 32 119 51 36 18
72 33 79 33 16 0 79 20 99 31 20 11 20 11 20 -3z m962 -38 c3 -17 1 -33 -4
-36 -4 -3 -8 11 -8 30 0 44 6 47 12 6z m-225 -16 c2 -6 -10 -8 -33 -6 -25 3
-32 7 -23 13 18 11 51 7 56 -7z m-1111 -56 c-6 -4 -20 -8 -30 -8 -18 0 -18 1
-2 19 14 16 21 17 31 8 9 -9 10 -14 1 -19z m641 0 c-3 -7 -5 -2 -5 12 0 14 2
19 5 13 2 -7 2 -19 0 -25z m434 15 c5 -9 -121 -26 -129 -18 -10 10 7 17 60 25
53 7 62 6 69 -7z m275 -20 c-11 -11 -19 6 -11 24 8 17 8 17 12 0 3 -10 2 -21
-1 -24z m-1811 17 c-3 -5 -10 -10 -16 -10 -5 0 -9 5 -9 10 0 6 7 10 16 10 8 0
12 -4 9 -10z m128 3 c-10 -4 -10 -9 -1 -26 7 -12 11 -25 10 -29 -3 -12 6 -10
33 8 36 24 30 3 -8 -27 -38 -30 -77 -52 -77 -43 0 3 9 17 20 31 11 14 20 33
20 41 0 13 -2 13 -17 0 -10 -9 -28 -19 -41 -23 -20 -6 -22 -4 -13 12 5 10 12
26 15 35 2 9 15 18 28 21 32 6 45 6 31 0z m1517 -3 c0 -13 -11 -13 -30 0 -12
8 -11 10 8 10 12 0 22 -4 22 -10z m60 -31 c0 -16 -5 -29 -11 -29 -5 0 -7 5 -4
11 4 6 -1 16 -11 23 -20 15 -11 38 11 29 9 -3 15 -18 15 -34z m-1814 4 c-10
-10 -19 5 -10 18 6 11 8 11 12 0 2 -7 1 -15 -2 -18z m1487 10 c-7 -2 -19 -2
-25 0 -7 3 -2 5 12 5 14 0 19 -2 13 -5z m-1033 -18 c0 -9 -9 -15 -21 -15 -18
0 -19 2 -9 15 7 8 16 15 21 15 5 0 9 -7 9 -15z m1200 7 c0 -4 25 -5 55 -2 49
5 55 4 55 -13 0 -10 5 -15 10 -12 6 4 10 -26 10 -84 0 -49 4 -92 9 -96 6 -3
10 25 10 67 0 95 0 95 10 80 4 -7 6 -57 3 -110 -3 -75 0 -104 12 -127 8 -16
12 -32 8 -35 -14 -9 -21 -244 -11 -382 3 -43 2 -78 -3 -78 -4 0 -8 6 -8 13 0
19 -189 15 -232 -6 -18 -8 -54 -18 -80 -22 -31 -5 -48 -12 -48 -21 0 -17 -5
-17 -29 -2 -15 9 -26 7 -59 -10 l-41 -21 -4 22 c-4 18 -5 17 -6 -5 -1 -19 -7
-28 -17 -28 -12 0 -14 3 -6 13 6 7 7 18 2 26 -6 11 16 69 35 89 9 10 43 -11
39 -23 -8 -19 12 -27 26 -10 7 8 19 15 26 15 8 0 14 9 14 20 0 13 7 20 19 20
11 0 23 5 26 10 3 5 14 10 23 10 12 -1 8 -9 -17 -30 -18 -15 -30 -33 -27 -39
18 -28 85 3 114 54 25 41 42 45 42 11 0 -36 18 -41 51 -17 15 11 37 21 48 21
24 0 41 28 41 65 0 32 -25 43 -49 21 -10 -9 -24 -16 -32 -16 -8 0 -19 -4 -24
-9 -6 -5 -25 -11 -44 -13 -30 -3 -36 -8 -50 -45 -8 -24 -19 -43 -23 -43 -11 0
-10 18 2 25 6 3 10 15 10 27 0 18 -4 20 -32 13 -18 -5 -49 -9 -68 -9 -25 -1
-36 -6 -38 -19 -4 -22 -52 -24 -52 -1 0 11 -8 15 -28 13 -15 -2 -33 1 -41 6
-11 6 -13 4 -9 -7 9 -22 -6 -40 -26 -32 -11 4 -17 18 -17 43 -1 20 -2 86 -2
148 -1 61 -5 115 -9 119 -5 4 -8 43 -8 86 0 63 3 80 16 85 19 7 38 -18 22 -28
-6 -4 -10 -20 -9 -35 1 -16 4 -99 7 -184 3 -85 10 -160 15 -166 14 -17 57 -23
63 -9 2 7 22 15 44 18 23 2 85 17 139 32 78 23 103 34 125 59 27 31 27 31 28
194 l0 162 -24 0 c-14 0 -36 -4 -50 -10 -16 -6 -26 -6 -26 0 0 13 34 30 62 30
13 0 32 7 42 15 11 8 28 15 37 15 18 0 35 17 26 26 -2 2 -44 -5 -92 -18 -58
-14 -89 -27 -92 -37 -3 -13 -18 -15 -87 -13 -57 3 -97 -1 -130 -12 -59 -20
-56 -21 -56 13 0 36 42 57 83 42 17 -7 46 -7 89 1 35 5 82 11 105 12 25 2 51
10 63 21 13 11 43 20 82 24 68 6 81 20 34 32 -36 10 -101 -3 -125 -25 -10 -9
-30 -16 -46 -16 -27 0 -28 1 -11 19 22 24 18 51 -4 30 -9 -8 -33 -13 -55 -12
-22 0 -48 -3 -57 -8 -10 -5 -41 -14 -70 -19 -29 -6 -61 -13 -70 -16 -13 -4
-18 0 -18 13 0 14 -2 15 -9 5 -7 -11 -10 -10 -15 3 -9 25 -7 55 4 55 6 0 10
-10 11 -22 0 -15 2 -18 6 -8 16 44 30 48 156 50 67 1 142 5 167 10 25 4 48 8
53 9 4 0 7 -3 7 -7z m270 -23 c0 -18 -2 -20 -15 -9 -13 11 -13 15 -3 21 18 12
18 12 18 -12z m-1983 -36 c-3 -10 -5 -2 -5 17 0 19 2 27 5 18 2 -10 2 -26 0
-35z m94 27 c-13 -11 -31 -20 -40 -20 -12 1 -11 5 8 20 13 11 31 20 40 20 12
-1 11 -5 -8 -20z m22 -32 c-11 -13 -24 -33 -27 -45 -4 -11 -13 -27 -21 -33
-13 -11 -15 -6 -15 28 0 44 25 72 64 72 19 0 19 -1 -1 -22z m79 10 c-16 -16
-15 -28 3 -28 7 0 19 8 24 18 9 14 10 14 11 1 0 -8 -6 -22 -12 -31 -17 -20
-75 -57 -65 -40 5 7 3 12 -7 12 -8 0 -19 -7 -24 -16 -5 -9 -15 -15 -22 -12
-13 4 77 107 95 108 5 0 4 -5 -3 -12z m213 2 c-3 -5 -11 -10 -16 -10 -6 0 -7
5 -4 10 3 6 11 10 16 10 6 0 7 -4 4 -10z m1555 -20 c5 0 11 6 13 13 3 6 6 2 6
-9 1 -12 -6 -25 -15 -28 -8 -3 -13 -2 -10 3 3 5 -1 14 -9 21 -8 7 -12 17 -8
24 5 7 9 5 11 -6 2 -10 7 -18 12 -18z m-1600 -4 c0 -6 -61 -36 -72 -36 -12 0
13 25 32 33 18 7 40 8 40 3z m841 -37 c-9 -23 -10 -22 -10 11 -1 23 2 31 9 24
7 -7 7 -19 1 -35z m-24 -1 c-3 -7 -5 -2 -5 12 0 14 2 19 5 13 2 -7 2 -19 0
-25z m93 -22 c-7 -7 -10 1 -9 25 0 32 1 33 10 10 6 -16 6 -28 -1 -35z m285 35
c-16 -14 -76 -31 -108 -31 -39 0 -27 12 26 26 53 14 94 17 82 5z m-407 -68
l-1 -58 -6 50 c-6 48 -5 65 5 65 2 0 3 -26 2 -57z m822 38 c-5 -11 -11 -64
-12 -118 l-2 -98 -5 110 c-6 104 -2 124 22 125 4 0 3 -9 -3 -19z m-1743 -28
c-9 -9 -20 -13 -24 -9 -4 4 -1 11 7 16 25 16 35 11 17 -7z m1083 -33 c0 -4 -9
-10 -20 -13 -21 -5 -35 7 -26 22 7 10 46 3 46 -9z m667 -2 c-3 -8 -6 -5 -6 6
-1 11 2 17 5 13 3 -3 4 -12 1 -19z m-1802 2 c-3 -5 -11 -10 -16 -10 -6 0 -7 5
-4 10 3 6 11 10 16 10 6 0 7 -4 4 -10z m1284 -29 c3 -1 -4 -7 -15 -15 -10 -8
-16 -18 -11 -22 4 -4 13 -2 19 4 7 7 20 12 30 12 10 0 18 4 18 9 0 13 44 19
71 8 22 -8 20 -10 -31 -28 -32 -12 -87 -21 -133 -22 -69 -2 -77 0 -77 17 0 16
5 18 35 13 27 -5 37 -2 45 13 5 10 18 17 27 15 10 -2 20 -4 22 -4z m230 -44
c-5 -21 -8 -41 -5 -45 4 -8 9 -156 7 -204 -1 -12 -9 -18 -25 -18 -13 0 -26 -6
-29 -13 -7 -20 -114 -47 -183 -47 -32 0 -71 -6 -85 -14 l-26 -13 -7 154 c-4
85 -5 157 -3 160 3 2 19 -3 37 -12 25 -13 31 -21 26 -39 -5 -20 2 -26 44 -47
27 -13 49 -30 50 -36 0 -7 -4 -13 -8 -13 -5 0 -13 -16 -19 -35 -11 -33 -10
-35 24 -55 42 -25 57 -21 78 20 11 21 13 39 7 62 -7 27 -4 36 18 57 23 22 64
121 65 156 0 8 35 25 42 20 1 0 -2 -18 -8 -38z m-602 -9 c-3 -7 -5 -2 -5 12 0
14 2 19 5 13 2 -7 2 -19 0 -25z m813 22 c0 -5 -5 -10 -11 -10 -5 0 -7 5 -4 10
3 6 8 10 11 10 2 0 4 -4 4 -10z m-793 -37 c-3 -10 -5 -4 -5 12 0 17 2 24 5 18
2 -7 2 -21 0 -30z m115 -20 c-7 -24 -8 -39 -2 -41 6 -2 9 -20 9 -40 -2 -33 -2
-34 -6 -8 -3 16 -12 41 -21 55 -10 14 -12 22 -4 18 7 -5 12 -3 12 3 0 5 -6 19
-12 30 -11 17 -10 22 2 30 25 15 35 -6 22 -47z m373 47 c-3 -5 -12 -10 -18
-10 -7 0 -6 4 3 10 19 12 23 12 15 0z m-496 -85 c0 -26 -2 -27 -9 -10 -5 11
-9 31 -9 45 -1 20 1 22 9 10 5 -8 9 -28 9 -45z m853 -35 c-2 -16 -6 -30 -8
-30 -2 0 -4 14 -4 30 0 17 4 30 8 30 5 0 7 -13 4 -30z m-785 -97 c-2 -16 -4
-3 -4 27 0 30 2 43 4 28 2 -16 2 -40 0 -55z m829 38 c2 -17 -1 -33 -6 -36 -5
-3 -8 13 -8 35 0 46 9 46 14 1z m-776 -1 c0 -5 -4 -10 -10 -10 -5 0 -10 5 -10
10 0 6 5 10 10 10 6 0 10 -4 10 -10z m752 -200 c3 -34 -3 -61 -12 -55 -6 4 -9
56 -9 128 l2 122 8 -90 c5 -49 10 -97 11 -105z m15 98 c-3 -8 -6 -5 -6 6 -1
11 2 17 5 13 3 -3 4 -12 1 -19z m-895 -161 c-10 -22 -16 8 -12 60 l4 58 6 -55
c3 -30 4 -58 2 -63z m25 71 c-3 -7 -5 -2 -5 12 0 14 2 19 5 13 2 -7 2 -19 0
-25z m599 -66 c-18 -16 -18 -16 -6 6 6 13 14 21 18 18 3 -4 -2 -14 -12 -24z
m-522 -64 c4 -24 3 -38 -4 -38 -5 0 -10 19 -10 42 0 49 5 47 14 -4z m778 -66
c1 -45 5 -82 9 -82 4 0 1 -13 -7 -30 -9 -16 -17 -30 -20 -30 -6 0 -3 201 3
217 10 25 13 8 15 -75z m428 78 c0 -5 -5 -10 -11 -10 -5 0 -7 5 -4 10 3 6 8
10 11 10 2 0 4 -4 4 -10z m-80 -10 c0 -5 -10 -10 -22 -9 -22 0 -22 1 -3 9 11
5 21 9 23 9 1 1 2 -3 2 -9z m-660 -60 c-52 -18 -110 -27 -98 -14 9 9 100 32
128 33 15 0 4 -7 -30 -19z m277 -12 c-3 -7 -5 -2 -5 12 0 14 2 19 5 13 2 -7 2
-19 0 -25z m303 17 c-7 -8 -27 -15 -44 -14 l-31 1 35 13 c47 18 55 18 40 0z
m86 0 c-21 -16 -32 -13 -21 4 3 6 14 11 23 11 15 -1 15 -2 -2 -15z m-999 -57
c-2 -13 -4 -3 -4 22 0 25 2 35 4 23 2 -13 2 -33 0 -45z m513 52 c0 -5 6 -10
14 -10 8 0 18 -5 22 -11 11 -19 5 -211 -10 -272 -7 -32 -10 -60 -5 -63 10 -6
16 7 22 46 2 14 5 2 6 -27 1 -58 1 -58 -51 -67 l-37 -7 5 38 c4 29 3 34 -5 23
-6 -8 -11 -25 -11 -36 0 -20 -49 -65 -50 -47 -5 92 3 411 11 424 7 14 21 19
49 19 22 0 40 -4 40 -10z m91 -60 l6 35 1 -37 c1 -21 -2 -38 -7 -38 -6 0 -8
-9 -6 -20 2 -11 -1 -20 -6 -20 -6 0 -7 -4 -4 -10 3 -5 1 -10 -4 -10 -13 0 -15
152 -3 164 4 4 9 -16 12 -46 6 -49 6 -50 11 -18z m359 61 c0 -5 -7 -14 -15
-21 -29 -24 -14 -31 21 -10 19 12 38 20 41 17 3 -4 -6 -12 -21 -18 -27 -13
-35 -29 -14 -29 15 0 -31 -40 -59 -51 -13 -5 -23 -14 -23 -20 0 -7 7 -8 18 -4
21 9 72 18 55 9 -7 -3 -13 -10 -13 -15 0 -15 18 -10 39 12 13 14 28 19 47 17
l29 -4 -30 -14 c-39 -19 -94 -70 -74 -70 9 0 5 -8 -11 -20 -32 -25 -43 -25
-30 0 6 11 7 20 2 20 -14 0 -33 -26 -25 -34 4 -3 -2 -13 -13 -22 -18 -14 -18
-15 6 -8 52 14 94 43 95 65 0 10 29 34 43 35 6 1 19 2 27 3 9 0 15 8 13 17 -2
10 2 19 7 21 7 2 11 -22 12 -64 0 -38 -1 -54 -4 -38 -7 53 -10 56 -38 43 -14
-6 -25 -19 -25 -30 0 -10 -4 -18 -10 -18 -5 0 -10 -5 -10 -10 0 -6 8 -10 18
-8 13 2 18 -5 20 -30 3 -28 6 -32 23 -27 17 6 20 3 17 -17 -2 -17 -10 -24 -30
-26 -25 -3 -28 0 -28 25 l-1 28 -16 -27 c-18 -29 -73 -45 -73 -21 0 9 -6 7
-19 -6 -25 -25 -61 -18 -54 10 3 12 11 18 19 15 7 -3 23 4 36 14 l23 19 -34
-9 c-48 -13 -87 -40 -71 -50 8 -5 5 -9 -9 -13 -18 -4 -20 -1 -17 19 3 13 14
36 25 50 12 15 21 37 21 50 0 39 11 55 51 71 22 8 39 22 39 30 0 11 -6 10 -29
-6 -36 -26 -41 -26 -41 -1 0 18 -3 19 -21 9 -17 -9 -19 -13 -8 -20 17 -10 5
-24 -31 -34 -22 -7 -23 -6 -12 8 8 9 11 25 7 36 -4 14 0 21 14 26 20 6 37 35
21 35 -5 0 -1 15 9 33 13 24 25 32 46 32 16 1 33 8 39 18 12 18 26 23 26 8z
m138 -45 c3 -20 -2 -28 -23 -36 -37 -14 -48 -3 -24 21 15 15 18 24 10 32 -18
18 -12 27 12 18 14 -5 23 -18 25 -35z m-1232 -64 c-3 -47 -8 -87 -11 -90 -3
-3 -5 38 -4 91 1 63 5 95 11 91 7 -4 8 -38 4 -92z m510 -124 l-1 -222 -35 -9
c-19 -5 -47 -11 -61 -14 l-26 -5 -8 171 c-4 94 -11 171 -16 171 -5 0 -9 22 -9
49 l0 49 63 15 c105 25 95 47 93 -205z m429 197 c-16 -14 -33 -25 -37 -25 -5
0 -8 -4 -8 -10 0 -5 8 -7 18 -3 16 6 16 5 1 -13 -9 -10 -19 -26 -21 -34 -3 -8
-7 3 -10 24 -4 35 -1 41 24 55 15 9 28 19 28 24 0 4 8 7 18 7 13 -1 10 -6 -13
-25z m-591 -105 c4 -47 9 -112 13 -145 6 -60 6 -60 -14 -42 -16 13 -22 35 -27
85 -3 37 -9 95 -14 129 -6 52 -5 63 8 66 24 6 27 -3 34 -93z m-50 -60 l7 -115
-26 -1 c-20 -2 -25 3 -25 21 0 12 -6 35 -14 51 -8 16 -17 54 -21 85 -7 56 -7
56 27 76 22 13 35 16 39 9 4 -6 9 -63 13 -126z m-103 37 c-8 -8 -11 2 -10 34
l1 44 10 -34 c6 -23 6 -37 -1 -44z m606 31 c-3 -8 -6 -5 -6 6 -1 11 2 17 5 13
3 -3 4 -12 1 -19z m-744 -120 c-5 -107 -8 -127 -17 -117 -7 9 7 229 15 229 5
0 6 -51 2 -112z m867 104 c0 -5 -9 -17 -20 -27 -16 -14 -20 -15 -20 -4 0 16
19 39 32 39 4 0 8 -4 8 -8z m-105 -73 c8 -12 6 -12 -8 0 -10 8 -17 26 -16 45
l1 31 7 -31 c4 -17 12 -37 16 -45z m-875 -4 c6 14 9 2 10 -40 1 -33 3 -82 5
-110 3 -44 2 -46 -5 -15 -22 97 -30 146 -28 188 l1 47 5 -45 c3 -35 6 -41 12
-25z m790 39 c0 -8 -6 -11 -15 -8 -8 4 -15 9 -15 13 0 4 7 8 15 8 8 0 15 -6
15 -13z m28 -61 c-2 -39 1 -58 10 -60 7 -3 12 5 13 19 0 22 1 22 9 3 15 -35
12 -95 -5 -95 -8 0 -15 5 -15 12 0 6 -6 4 -13 -6 -7 -10 -22 -16 -33 -14 -17
3 -18 9 -13 53 l6 50 1 -48 c3 -74 22 -46 22 31 0 65 7 112 17 112 3 0 3 -25
1 -57z m-648 -12 c0 -33 3 -66 6 -75 3 -9 1 -16 -5 -16 -6 0 -12 15 -12 33 -2
31 -2 31 -9 -8 -6 -32 -7 -24 -9 43 -1 67 2 82 14 82 12 0 15 -13 15 -59z
m790 50 c0 -5 -7 -12 -16 -15 -14 -5 -15 -4 -4 9 14 17 20 19 20 6z m-203 -23
c-3 -8 -6 -5 -6 6 -1 11 2 17 5 13 3 -3 4 -12 1 -19z m503 18 c0 -2 -7 -6 -15
-10 -8 -3 -15 -1 -15 4 0 6 7 10 15 10 8 0 15 -2 15 -4z m-1010 -63 c0 -31 -4
-53 -8 -47 -8 9 -4 104 4 104 2 0 4 -26 4 -57z m760 35 c-6 -13 -13 -30 -16
-39 -4 -10 -13 -15 -25 -12 -17 5 -17 7 8 39 29 39 47 45 33 12z m-1070 -42
c0 -75 -15 -79 -18 -5 -2 35 2 59 8 59 5 0 10 -24 10 -54z m847 17 c-3 -10 -5
-4 -5 12 0 17 2 24 5 18 2 -7 2 -21 0 -30z m-809 -118 c-1 -53 -3 -70 -8 -50
-4 17 -5 53 -2 81 2 29 -1 60 -7 73 -7 12 -9 27 -4 34 12 19 22 -49 21 -138z
m80 53 c-3 -26 -6 -29 -12 -15 -5 9 -5 39 0 65 8 43 8 45 12 15 2 -18 2 -48 0
-65z m837 83 c3 -5 1 -12 -5 -16 -5 -3 -10 1 -10 9 0 18 6 21 15 7z m-135 -22
c0 -5 -4 -9 -10 -9 -5 0 -10 7 -10 16 0 8 5 12 10 9 6 -3 10 -10 10 -16z m216
-54 c-8 -8 -18 -24 -21 -35 -6 -19 -25 -19 -25 1 0 12 38 49 51 49 6 0 4 -7
-5 -15z m-622 -31 c13 -5 14 -9 5 -20 -12 -15 -6 -29 14 -29 5 0 12 -6 15 -12
2 -7 -4 -13 -13 -13 -12 0 -16 -6 -12 -17 15 -53 29 -47 -176 -78 -60 -9 -110
-15 -111 -13 -2 2 -6 19 -10 38 -4 22 -3 30 3 21 5 -7 14 -10 20 -7 6 4 11 1
11 -8 0 -21 15 -28 44 -20 20 5 25 14 31 54 5 36 10 47 21 43 9 -3 14 3 15 18
2 24 2 24 6 2 2 -13 9 -23 15 -23 6 0 8 -10 4 -25 -4 -14 -2 -25 3 -25 11 0
17 16 26 72 5 27 13 38 29 41 36 7 44 7 60 1z m-107 -36 c-3 -7 -5 -2 -5 12 0
14 2 19 5 13 2 -7 2 -19 0 -25z m-73 -13 c-4 -8 -8 -15 -10 -15 -2 0 -4 7 -4
15 0 8 4 15 10 15 5 0 7 -7 4 -15z m-334 -15 c0 -5 -5 -10 -11 -10 -5 0 -7 5
-4 10 3 6 8 10 11 10 2 0 4 -4 4 -10z m268 -25 c-3 -30 -22 -28 -26 3 -2 15 2
22 12 22 11 0 15 -8 14 -25z m-328 2 c0 -7 -16 -32 -35 -54 -19 -23 -35 -48
-35 -56 0 -15 -76 -27 -179 -27 -47 0 -53 2 -41 14 19 17 80 29 80 16 0 -22
29 -7 110 55 90 68 100 73 100 52z m170 -4 c0 -5 -5 -15 -10 -23 -8 -12 -10
-11 -10 8 0 12 5 22 10 22 6 0 10 -3 10 -7z m98 -48 c-1 -49 -18 -64 -18 -16
0 28 8 61 16 61 2 0 3 -20 2 -45z m99 8 c-3 -10 -5 -4 -5 12 0 17 2 24 5 18 2
-7 2 -21 0 -30z m-349 -32 c-30 -36 -58 -52 -58 -34 0 13 85 90 88 81 2 -5
-11 -26 -30 -47z m-188 18 c-7 -11 -14 -18 -17 -15 -8 8 5 36 17 36 7 0 7 -6
0 -21z m407 -11 c-3 -7 -5 -2 -5 12 0 14 2 19 5 13 2 -7 2 -19 0 -25z m-80
-30 c-3 -7 -5 -2 -5 12 0 14 2 19 5 13 2 -7 2 -19 0 -25z m-517 -32 c0 -3 -4
-8 -10 -11 -5 -3 -10 -1 -10 4 0 6 5 11 10 11 6 0 10 -2 10 -4z"/>
<path d="M1572 1890 c0 -14 2 -19 5 -12 2 6 2 18 0 25 -3 6 -5 1 -5 -13z"/>
<path d="M1560 1853 c0 -5 5 -15 10 -23 8 -12 10 -11 10 8 0 12 -4 22 -10 22
-5 0 -10 -3 -10 -7z"/>
<path d="M1240 1909 c0 -5 5 -7 10 -4 6 3 10 8 10 11 0 2 -4 4 -10 4 -5 0 -10
-5 -10 -11z"/>
<path d="M1386 1882 c-7 -43 -8 -87 -2 -81 9 9 23 110 16 114 -4 3 -10 -12
-14 -33z"/>
<path d="M1301 1864 c0 -11 3 -14 6 -6 3 7 2 16 -1 19 -3 4 -6 -2 -5 -13z"/>
<path d="M1301 1824 c0 -11 3 -14 6 -6 3 7 2 16 -1 19 -3 4 -6 -2 -5 -13z"/>
<path d="M1431 1786 c-1 -34 2 -47 9 -40 7 7 7 24 1 50 l-9 39 -1 -49z"/>
<path d="M1250 1760 c0 -5 5 -10 11 -10 5 0 7 5 4 10 -3 6 -8 10 -11 10 -2 0
-4 -4 -4 -10z"/>
<path d="M1302 1740 c0 -14 2 -19 5 -12 2 6 2 18 0 25 -3 6 -5 1 -5 -13z"/>
<path d="M1381 1684 c0 -11 3 -14 6 -6 3 7 2 16 -1 19 -3 4 -6 -2 -5 -13z"/>
<path d="M620 1885 c0 -9 5 -15 10 -13 12 4 11 16 -1 24 -5 3 -9 -2 -9 -11z"/>
<path d="M700 1732 c-20 -22 -41 -62 -32 -62 8 0 62 65 62 74 0 11 -15 5 -30
-12z"/>
<path d="M876 1601 c-11 -12 -27 -21 -37 -21 -10 0 -20 -4 -23 -9 -7 -11 43 0
68 15 10 6 17 17 15 23 -3 8 -11 6 -23 -8z"/>
<path d="M973 1558 c-25 -12 -32 -34 -8 -24 8 3 15 1 15 -4 0 -6 -5 -10 -12
-10 -6 0 -9 -3 -6 -6 4 -3 20 2 37 11 32 16 43 32 15 21 -14 -5 -15 -4 -4 9
15 18 -2 20 -37 3z"/>
<path d="M742 1533 c-24 -14 -41 -28 -38 -30 7 -7 86 36 86 47 0 13 2 14 -48
-17z"/>
<path d="M645 1480 c-3 -5 -1 -10 4 -10 6 0 11 5 11 10 0 6 -2 10 -4 10 -3 0
-8 -4 -11 -10z"/>
<path d="M1055 1430 c-3 -5 -1 -10 4 -10 6 0 11 5 11 10 0 6 -2 10 -4 10 -3 0
-8 -4 -11 -10z"/>
<path d="M566 1391 c-4 -7 -5 -15 -2 -18 9 -9 19 4 14 18 -4 11 -6 11 -12 0z"/>
<path d="M337 1343 c-15 -14 -6 -24 20 -21 34 4 43 28 11 28 -14 0 -28 -3 -31
-7z"/>
<path d="M263 1312 c-28 -11 -43 -22 -43 -34 0 -16 2 -16 35 2 20 11 42 20 50
20 8 0 15 7 15 15 0 18 -2 18 -57 -3z"/>
<path d="M330 1290 c-19 -11 -42 -19 -51 -20 -9 0 -19 -7 -23 -15 -4 -12 0
-14 22 -9 50 12 103 46 91 59 -2 2 -20 -5 -39 -15z"/>
<path d="M190 1235 c-21 -25 -1 -31 23 -7 17 18 18 22 5 22 -8 0 -21 -7 -28
-15z"/>
<path d="M155 1190 c-3 -5 -2 -10 4 -10 5 0 13 5 16 10 3 6 2 10 -4 10 -5 0
-13 -4 -16 -10z"/>
<path d="M238 1173 c7 -3 16 -2 19 1 4 3 -2 6 -13 5 -11 0 -14 -3 -6 -6z"/>
<path d="M170 1020 c0 -5 5 -10 11 -10 5 0 7 5 4 10 -3 6 -8 10 -11 10 -2 0
-4 -4 -4 -10z"/>
<path d="M810 1020 c0 -5 5 -10 10 -10 6 0 10 5 10 10 0 6 -4 10 -10 10 -5 0
-10 -4 -10 -10z"/>
<path d="M220 960 c-9 -6 -10 -10 -3 -10 6 0 15 5 18 10 8 12 4 12 -15 0z"/>
<path d="M703 847 c-9 -15 1 -16 27 -2 l25 14 -23 -2 c-13 -1 -26 -5 -29 -10z"/>
<path d="M815 850 c-3 -5 3 -10 14 -10 12 0 21 5 21 10 0 6 -6 10 -14 10 -8 0
-18 -4 -21 -10z"/>
<path d="M651 831 c-9 -6 -10 -11 -2 -15 13 -8 31 1 31 15 0 11 -11 11 -29 0z"/>
<path d="M585 799 c-12 -19 5 -23 22 -6 16 16 16 17 1 17 -9 0 -20 -5 -23 -11z"/>
<path d="M660 765 c-8 -9 -8 -15 -2 -15 12 0 26 19 19 26 -2 2 -10 -2 -17 -11z"/>
<path d="M540 751 c0 -6 4 -13 10 -16 6 -3 7 1 4 9 -7 18 -14 21 -14 7z"/>
<path d="M952 449 c-26 -10 -21 -29 8 -29 10 0 20 -6 23 -12 4 -10 7 -10 18 0
9 9 10 12 1 12 -7 0 -12 6 -12 14 0 21 -11 25 -38 15z"/>
<path d="M938 372 c-16 -2 -28 -7 -28 -11 0 -9 66 -8 75 1 9 8 -16 14 -47 10z"/>
<path d="M415 210 c-3 -5 -1 -10 4 -10 6 0 11 5 11 10 0 6 -2 10 -4 10 -3 0
-8 -4 -11 -10z"/>
<path d="M163 180 c-13 -5 -23 -11 -23 -13 0 -8 52 1 62 11 15 15 -5 15 -39 2z"/>
<path d="M1921 1279 c-1 -36 -4 -127 -8 -202 -4 -93 -3 -137 4 -137 7 0 11 43
11 116 1 65 4 135 7 158 3 23 2 61 -4 86 l-9 45 -1 -66z"/>
<path d="M1857 1083 c-2 -5 -1 -30 3 -58 l7 -50 2 58 c1 54 -2 67 -12 50z"/>
<path d="M1371 1004 c0 -11 3 -14 6 -6 3 7 2 16 -1 19 -3 4 -6 -2 -5 -13z"/>
<path d="M1932 640 c0 -19 2 -27 5 -17 2 9 2 25 0 35 -3 9 -5 1 -5 -18z"/>
<path d="M1887 542 c-5 -57 -6 -106 -4 -109 8 -7 19 116 15 167 -2 31 -6 12
-11 -58z"/>
<path d="M1931 550 c0 -43 2 -51 10 -37 7 12 8 30 1 55 -10 37 -10 37 -11 -18z"/>
<path d="M2357 473 c-4 -3 -7 -11 -7 -17 0 -6 5 -5 12 2 6 6 9 14 7 17 -3 3
-9 2 -12 -2z"/>
<path d="M1709 538 c0 -2 -2 -55 -4 -118 -3 -81 -1 -116 8 -122 15 -9 27 10
26 42 0 23 -1 23 -9 5 -6 -13 -8 18 -6 83 1 57 -2 105 -6 108 -4 3 -8 4 -9 2z"/>
<path d="M1745 310 c-4 -6 3 -10 14 -10 25 0 27 6 6 13 -8 4 -17 2 -20 -3z"/>
<path d="M1848 1993 c-2 -10 -1 -29 2 -43 6 -21 7 -18 11 18 4 41 -5 59 -13
25z"/>
<path d="M2220 2000 c0 -5 4 -10 9 -10 6 0 13 5 16 10 3 6 -1 10 -9 10 -9 0
-16 -4 -16 -10z"/>
<path d="M2374 2002 c-11 -7 -15 -42 -5 -42 7 0 41 38 41 45 0 7 -24 6 -36 -3z"/>
<path d="M2328 1936 c-20 -15 -23 -26 -8 -26 5 0 14 9 20 20 12 23 11 24 -12
6z"/>
<path d="M1771 1895 c1 -40 1 -40 10 -10 5 18 5 33 -1 39 -7 7 -10 -4 -9 -29z"/>
<path d="M1811 1854 c0 -11 3 -14 6 -6 3 7 2 16 -1 19 -3 4 -6 -2 -5 -13z"/>
<path d="M1781 1804 c0 -11 3 -14 6 -6 3 7 2 16 -1 19 -3 4 -6 -2 -5 -13z"/>
<path d="M2430 1767 c-41 -19 -161 -122 -146 -125 8 -2 29 11 47 28 56 52 99
83 106 76 4 -3 -9 -20 -27 -36 -18 -16 -31 -32 -29 -35 3 -3 26 14 52 37 64
56 62 85 -3 55z"/>
<path d="M1780 1745 c0 -14 4 -25 9 -25 4 0 6 11 3 25 -2 14 -6 25 -8 25 -2 0
-4 -11 -4 -25z"/>
<path d="M2450 1690 c-12 -8 -10 -10 8 -10 13 0 20 4 17 10 -7 12 -6 12 -25 0z"/>
<path d="M2140 1629 c0 -5 5 -7 10 -4 6 3 10 8 10 11 0 2 -4 4 -10 4 -5 0 -10
-5 -10 -11z"/>
<path d="M2310 1589 c0 -5 5 -7 10 -4 6 3 10 8 10 11 0 2 -4 4 -10 4 -5 0 -10
-5 -10 -11z"/>
<path d="M2260 1560 c0 -5 5 -10 10 -10 6 0 10 5 10 10 0 6 -4 10 -10 10 -5 0
-10 -4 -10 -10z"/>
<path d="M2450 1280 c0 -5 5 -10 10 -10 6 0 10 5 10 10 0 6 -4 10 -10 10 -5 0
-10 -4 -10 -10z"/>
<path d="M2470 1124 c0 -8 5 -12 10 -9 6 3 10 10 10 16 0 5 -4 9 -10 9 -5 0
-10 -7 -10 -16z"/>
<path d="M2432 960 c-17 -7 -130 -79 -151 -97 -2 -1 -2 -6 2 -9 3 -3 36 11 72
32 50 28 69 34 75 24 6 -9 13 -7 29 9 39 39 24 61 -27 41z"/>
<path d="M2420 75 c-30 -8 -116 -19 -190 -25 -429 -35 -460 -49 -107 -48 152
0 277 3 277 7 0 4 12 6 28 5 15 -2 48 -5 75 -7 l47 -5 0 39 c0 30 -4 38 -17
37 -10 -1 -27 1 -38 4 -11 4 -45 0 -75 -7z"/>
</g>
</svg>
