<?xml version="1.0" standalone="no"?>
<!DOCTYPE svg PUBLIC "-//W3C//DTD SVG 20010904//EN"
 "http://www.w3.org/TR/2001/REC-SVG-20010904/DTD/svg10.dtd">
<svg version="1.0" xmlns="http://www.w3.org/2000/svg"
 width="395.000000pt" height="215.000000pt" viewBox="0 0 395.000000 215.000000"
 preserveAspectRatio="xMidYMid meet">
<metadata>
Created by potrace 1.16, written by Peter Selinger 2001-2019
</metadata>
<g transform="translate(0.000000,215.000000) scale(0.100000,-0.100000)"
fill="#000000" stroke="none">
<path d="M3680 2113 c0 -7 -9 -13 -19 -13 -32 0 -34 -19 -4 -26 50 -11 49 -12
-9 -13 -53 -1 -76 10 -45 22 6 3 -3 6 -21 6 -18 1 -31 -3 -28 -7 2 -4 -41 -9
-97 -10 -76 -2 -103 -6 -109 -17 -5 -8 -15 -12 -22 -9 -9 3 -15 -4 -18 -20 -5
-23 -2 -26 21 -25 14 0 20 3 14 6 -7 2 -13 9 -13 14 0 6 5 7 11 3 6 -3 22 0
36 7 20 11 26 11 32 0 10 -15 171 -17 181 -1 3 5 38 9 81 7 l74 -2 0 -30 0
-30 -123 -2 c-68 -1 -126 -4 -129 -7 -4 -3 0 -6 8 -7 8 0 6 -4 -6 -9 -14 -6 4
-9 56 -8 42 0 82 -3 90 -7 25 -16 -24 -23 -131 -18 -73 3 -102 1 -95 -6 6 -6
77 -12 170 -14 103 -3 160 -8 163 -15 2 -8 -71 -10 -255 -9 -142 1 -280 -1
-308 -6 -47 -7 -48 -6 -20 6 40 18 17 31 -38 21 -51 -9 -52 -9 -149 -19 -96
-9 -103 -21 -11 -17 38 2 65 1 62 -2 -6 -6 -56 -14 -97 -15 -7 -1 -11 -5 -8
-10 3 -5 27 -6 53 -3 93 10 36 -6 -92 -26 -279 -44 -567 -56 -610 -26 -11 8
-19 17 -17 19 7 15 -1 25 -22 25 -32 0 -44 -20 -17 -27 23 -6 29 -41 9 -61
-15 -15 -128 -16 -128 -1 0 6 -8 8 -19 4 -10 -3 -24 1 -31 10 -13 15 -111 22
-109 8 3 -19 -2 -33 -11 -33 -5 0 -10 6 -10 14 0 20 -15 23 -74 15 -28 -4 -93
-8 -143 -8 -97 -1 -120 11 -62 31 37 13 25 31 -21 30 -38 -1 -41 25 -3 30 47
5 40 28 -10 28 -36 0 -46 4 -50 20 -3 11 -1 23 4 26 5 3 9 11 9 19 0 23 -139
31 -209 11 -31 -9 -72 -16 -89 -16 -25 0 -32 -4 -32 -20 0 -18 7 -19 110 -18
60 1 113 -2 117 -6 9 -9 -24 -36 -44 -36 -15 0 -18 -26 -4 -35 5 -3 12 -1 16
5 4 7 14 5 28 -5 12 -8 34 -15 49 -15 16 0 28 -4 28 -10 0 -6 -33 -10 -79 -10
-82 0 -115 -6 -106 -20 6 -10 -120 -28 -258 -36 -59 -4 -107 -11 -107 -16 0
-5 4 -7 9 -3 5 3 12 1 15 -4 3 -5 -10 -12 -29 -15 -19 -4 -35 -11 -35 -15 0
-5 -21 -12 -48 -16 -80 -11 -90 -15 -85 -34 3 -13 -7 -20 -46 -30 -28 -7 -53
-17 -57 -22 -3 -5 -20 -9 -39 -9 -19 0 -37 -5 -40 -10 -8 -12 -35 -13 -35 -1
0 5 9 11 20 14 11 3 20 13 20 22 0 20 -38 12 -59 -14 -13 -15 -13 -15 -8 2 10
27 -12 20 -23 -8 -6 -15 -17 -25 -29 -25 -11 0 -22 -6 -25 -12 -3 -7 -4 -2 -3
12 1 14 8 31 15 38 6 7 12 18 12 24 0 16 -80 -2 -101 -23 -18 -18 -37 -23 -65
-20 -6 1 -18 -6 -25 -16 -13 -15 -11 -16 15 -9 78 19 90 20 83 3 -4 -11 1 -17
16 -19 12 -2 21 -7 19 -13 -4 -14 -55 -26 -62 -14 -4 6 -32 2 -74 -11 -66 -21
-106 -21 -52 -1 14 6 26 13 26 16 0 4 -69 1 -87 -4 -1 -1 0 -7 2 -13 3 -7 -11
-23 -30 -36 -20 -12 -33 -27 -30 -32 6 -10 -44 -35 -52 -26 -3 3 10 19 29 37
18 17 25 26 16 19 -10 -7 -18 -9 -18 -5 0 4 -7 2 -15 -5 -8 -7 -15 -9 -16 -4
-9 74 -11 70 60 89 36 10 78 20 93 22 16 3 28 10 28 15 0 5 -10 6 -22 2 -78
-25 -107 -32 -112 -26 -4 3 26 16 66 28 40 12 72 27 71 33 -2 6 3 11 11 11 8
0 18 4 21 10 6 10 -35 9 -152 -5 -59 -7 -63 -7 -63 13 0 11 7 22 15 26 12 4
15 24 15 89 0 122 6 144 41 151 45 9 34 26 -17 26 -28 0 -51 -6 -61 -15 -14
-14 -14 -18 1 -34 9 -10 16 -31 16 -47 l0 -28 -16 22 c-8 12 -13 26 -9 31 3 5
1 12 -4 15 -14 9 -19 -33 -26 -194 -14 -386 -18 -635 -16 -965 2 -198 4 -424
5 -503 1 -130 5 -158 20 -133 4 5 39 10 79 10 39 0 87 5 106 11 19 5 37 7 41
5 4 -2 34 0 66 5 32 5 91 12 129 15 39 4 71 8 72 9 1 1 -3 21 -9 45 -8 31 -18
45 -36 52 -20 8 -23 14 -17 37 13 51 9 85 -14 100 -16 11 -21 25 -21 58 0 24
-5 44 -11 44 -5 0 -15 14 -21 30 -7 22 -18 33 -39 37 -16 3 -31 14 -34 24 -3
10 -20 30 -38 45 -18 15 -36 41 -42 58 -9 27 -15 31 -44 32 -19 0 -36 5 -39
12 -7 22 -50 13 -71 -14 l-21 -27 0 51 c0 77 10 93 84 132 36 19 66 39 66 44
0 5 -8 33 -17 63 -19 59 -15 67 33 76 28 5 33 3 44 -23 6 -15 19 -30 29 -33
10 -2 24 -27 35 -63 44 -141 100 -265 138 -309 39 -45 40 -46 23 -71 -15 -23
-15 -28 -2 -42 18 -20 63 -116 107 -230 18 -45 40 -87 49 -92 10 -6 12 -10 4
-11 -7 -1 -17 -3 -23 -4 -5 -1 -31 -3 -57 -4 -38 -1 -44 -4 -30 -12 11 -6 73
-8 165 -5 81 2 168 5 195 5 26 1 47 6 47 12 0 5 -4 8 -9 4 -5 -3 -13 0 -16 6
-5 7 -43 8 -126 4 -116 -7 -119 -7 -119 13 0 11 5 22 12 24 7 3 -6 40 -35 106
-26 56 -47 105 -47 110 0 4 -9 27 -20 49 -11 22 -22 60 -26 83 -5 30 -13 44
-26 48 -10 2 -21 16 -25 31 -3 14 -12 35 -19 46 -20 32 -80 175 -114 277 -49
143 -61 166 -87 171 -13 2 -26 0 -29 -4 -3 -5 -26 -20 -52 -33 l-46 -23 -16
20 c-16 19 -19 20 -62 5 l-46 -15 -6 76 c-9 102 -6 241 6 241 5 0 6 -4 3 -10
-9 -15 1 -12 53 14 79 40 85 15 8 -28 -36 -20 -66 -41 -66 -47 0 -6 17 -8 40
-5 22 2 40 3 40 1 0 -2 -16 -13 -35 -25 -36 -22 -49 -47 -18 -36 9 4 20 2 23
-4 5 -8 30 -2 81 20 40 17 76 34 79 38 36 49 190 96 190 58 0 -9 7 -19 15 -22
10 -4 13 -17 10 -50 -4 -39 -2 -44 15 -44 26 0 57 -47 41 -63 -16 -16 -14 -30
3 -24 19 8 53 -24 48 -44 -2 -10 -12 -19 -24 -22 -11 -3 -17 -10 -13 -16 3 -6
10 -9 14 -7 4 3 24 -20 44 -51 20 -31 37 -50 37 -43 0 7 8 10 20 7 11 -3 20
-1 20 4 0 5 10 14 23 19 12 6 29 14 37 19 21 12 115 41 133 41 8 0 20 7 27 15
7 9 15 13 18 10 3 -3 11 0 19 6 10 9 13 8 13 -1 0 -8 10 -10 33 -7 17 3 41 2
52 -3 20 -9 20 -9 -2 -15 -12 -4 -19 -13 -17 -20 5 -13 -36 -25 -84 -25 -14 0
-41 -5 -59 -12 -27 -10 -38 -10 -54 0 -20 13 -59 8 -59 -7 0 -5 -13 -11 -28
-14 -16 -3 -39 -15 -53 -26 -20 -17 -22 -23 -12 -40 9 -14 9 -21 1 -23 -7 -3
-8 -10 -4 -17 6 -9 11 -8 22 6 11 14 14 14 12 3 -1 -8 1 -24 4 -35 14 -45 19
-115 9 -115 -6 0 -11 4 -11 9 0 18 -21 64 -26 58 -3 -3 4 -27 15 -52 12 -26
21 -55 21 -64 1 -41 48 -148 87 -195 13 -16 21 -31 18 -34 -3 -4 -10 0 -15 8
-8 13 -10 12 -10 -2 0 -9 6 -21 13 -25 22 -14 49 -71 35 -75 -23 -8 67 -188
95 -188 5 0 7 9 4 20 -5 18 -2 18 37 -5 24 -14 50 -25 59 -25 10 0 17 -5 17
-11 0 -6 -9 -9 -20 -6 -12 3 -20 0 -20 -7 0 -9 17 -11 60 -8 40 3 60 1 60 -7
0 -15 50 -14 51 2 1 6 0 25 -1 40 -1 15 3 34 9 41 8 10 7 20 -3 40 -16 31 -13
121 5 142 9 11 8 14 -1 14 -9 0 -11 21 -6 87 4 52 3 100 -4 118 -10 29 -10 29
-6 3 2 -15 -1 -25 -5 -22 -5 3 -9 26 -8 52 0 35 3 42 9 27 8 -18 9 -18 9 5 1
15 -4 31 -10 37 -8 8 -9 38 -4 100 4 48 9 102 10 118 1 17 5 38 9 48 5 11 4
23 -3 30 -17 17 -13 34 12 42 19 6 19 8 4 12 -16 4 -18 22 -18 211 0 114 -1
248 -2 299 l-2 92 175 6 c96 3 193 7 215 10 161 15 468 30 603 29 45 -1 82 3
82 8 0 5 7 11 15 14 18 7 60 -38 82 -86 22 -49 43 -206 29 -220 -5 -5 -12 -40
-14 -77 -2 -38 -8 -71 -15 -75 -9 -6 -9 -10 -1 -15 6 -5 15 -28 19 -51 8 -48
18 -46 34 8 l11 35 -4 -37 c-6 -50 3 -79 23 -76 10 2 15 -3 13 -14 -2 -11 3
-18 13 -18 26 0 17 -15 -17 -28 -24 -9 -34 -9 -39 0 -4 7 -9 4 -12 -8 -4 -15
-5 -14 -7 6 -1 14 -2 30 -1 37 1 6 -3 14 -9 18 -7 5 -10 -37 -8 -134 2 -97 6
-137 13 -129 15 19 35 20 35 3 0 -11 7 -14 23 -10 26 7 81 -11 73 -24 -3 -4
-24 -7 -46 -6 -33 2 -40 -1 -40 -16 0 -30 -18 -22 -22 9 -3 26 -4 26 -15 6 -8
-15 -13 -108 -15 -305 l-3 -284 23 -3 c20 -3 22 -9 20 -40 l-3 -37 52 -3 c49
-3 53 -2 50 19 -1 16 5 24 28 32 17 5 40 19 53 31 l24 21 -4 -35 c-2 -28 -8
-36 -26 -38 -27 -4 -24 -27 4 -27 10 0 24 -3 30 -7 8 -5 13 6 17 33 3 22 13
49 22 59 9 10 18 36 20 57 1 21 12 56 24 78 11 21 21 47 21 57 0 9 4 19 9 22
4 3 11 20 15 38 3 17 14 40 23 50 9 10 25 44 36 76 10 31 34 90 53 130 19 40
34 77 34 82 0 5 10 30 22 55 12 24 18 48 14 52 -8 8 -45 -35 -46 -53 0 -6 -7
-17 -15 -24 -8 -7 -15 -21 -15 -31 0 -11 -4 -19 -10 -19 -5 0 -10 -9 -10 -20
0 -11 -4 -20 -9 -20 -13 0 -1 40 25 80 13 19 26 48 30 63 4 20 16 32 35 39 16
5 29 16 29 24 0 7 13 28 30 47 16 19 33 52 38 74 5 23 17 51 26 64 9 13 16 34
16 46 0 25 89 204 119 240 l19 23 55 -19 c30 -11 67 -27 81 -36 14 -10 26 -14
26 -11 0 3 16 0 35 -8 19 -8 35 -13 35 -10 0 3 9 0 20 -6 11 -6 18 -15 15 -20
-4 -6 1 -7 11 -3 10 4 15 2 11 -4 -7 -10 165 -92 253 -121 53 -16 55 -18 53
-50 0 -18 -4 -36 -7 -39 -3 -3 -44 13 -91 35 -48 23 -88 42 -90 42 -2 0 -63
32 -135 71 -82 43 -153 74 -186 80 -53 10 -54 10 -83 -23 -17 -18 -37 -51 -45
-73 -62 -169 -116 -332 -116 -348 0 -10 -4 -16 -9 -13 -15 9 -106 -225 -97
-249 3 -9 0 -15 -8 -15 -8 0 -22 -21 -32 -48 -9 -26 -28 -73 -41 -105 -13 -32
-21 -63 -17 -69 4 -6 3 -8 -3 -5 -6 4 -24 -26 -41 -71 -74 -183 -76 -187 -96
-184 -11 3 -16 0 -12 -7 10 -15 61 -14 73 2 5 6 20 43 32 80 13 38 39 99 58
135 19 37 47 101 63 142 26 70 84 214 116 288 8 18 14 42 14 54 0 12 7 29 14
37 16 18 76 158 76 178 0 7 20 58 43 114 38 88 48 103 77 115 39 17 38 17 205
-56 72 -31 175 -75 230 -99 76 -32 101 -47 102 -62 1 -10 -3 -19 -9 -19 -26 0
-244 74 -254 86 -16 20 -32 17 -45 -8 -7 -13 -15 -25 -19 -28 -4 -3 -15 -21
-23 -41 -13 -32 -19 -36 -41 -32 -31 6 -35 -13 -6 -22 12 -4 19 -14 18 -23 -2
-12 5 -17 27 -19 69 -6 88 -11 144 -39 33 -16 62 -36 64 -46 4 -15 2 -16 -14
-7 -11 5 -19 6 -19 0 0 -12 76 -42 93 -35 7 2 26 -7 41 -21 33 -30 46 -32 46
-5 0 26 17 26 25 -1 6 -18 -6 -278 -20 -434 -2 -32 1 -59 10 -75 13 -23 14
-18 15 61 0 61 4 88 13 92 9 3 13 51 15 187 2 100 5 204 7 230 1 28 -3 60 -11
75 -17 34 -17 35 1 35 20 0 19 30 -2 45 -10 8 -18 32 -21 70 -4 55 -4 57 16
46 47 -25 54 -12 18 32 -22 26 -36 55 -36 73 -1 16 -2 50 -2 77 0 26 -3 47 -7
47 -3 0 -7 37 -8 83 -4 159 -7 212 -15 217 -13 10 -22 266 -9 274 15 10 14 26
-3 26 -9 0 -12 8 -8 25 3 18 11 25 28 25 28 0 29 7 9 34 -12 16 -12 22 -2 28
8 5 7 8 -5 8 -10 0 -15 6 -13 13 4 9 -12 12 -60 13 -48 0 -65 -3 -65 -13z
m110 -23 c12 -8 11 -10 -7 -10 -12 0 -25 5 -28 10 -8 13 15 13 35 0z m-40
-140 c0 -12 -8 -12 -35 0 -18 8 -17 9 8 9 15 1 27 -3 27 -9z m-230 -94 c19 -1
-18 -3 -82 -4 -65 -1 -118 1 -118 6 0 6 118 6 200 -2z m-158 -29 c59 -1 110
-6 114 -10 4 -4 -78 -6 -182 -5 -170 2 -184 3 -134 13 30 7 64 10 75 8 11 -2
68 -5 127 -6z m360 3 c-18 -4 -56 -4 -85 0 -48 7 -45 8 33 8 62 0 76 -2 52 -8z
m28 -37 c2 -2 -2 -8 -10 -13 -14 -9 -400 -3 -409 6 -2 2 54 4 125 5 71 0 138
4 149 9 19 8 135 3 145 -7z m25 -33 c0 -22 -3 -40 -7 -40 -5 0 -8 18 -8 40 0
22 3 40 8 40 4 0 7 -18 7 -40z m-631 15 c0 -9 -62 -23 -174 -39 -28 -4 -40 -3
-31 3 28 18 -7 18 -79 -1 -41 -11 -117 -25 -168 -32 -52 -6 -91 -13 -89 -16 3
-3 -15 -6 -40 -7 -58 -2 -73 -16 -48 -43 18 -20 18 -20 -4 -20 -12 0 -31 -5
-42 -10 -17 -10 -19 -7 -19 34 0 50 2 51 83 61 32 4 57 11 57 15 0 5 8 6 18 3
10 -2 38 3 62 12 25 10 64 18 86 20 23 1 79 8 125 14 158 22 265 24 263 6z
m116 5 c-8 -5 -35 -10 -60 -10 -33 0 -41 3 -30 10 8 5 35 10 60 10 33 0 41 -3
30 -10z m50 -20 c0 -5 -15 -10 -32 -9 -31 1 -32 1 -8 9 35 11 40 11 40 0z
m-652 -11 c-12 -7 -24 -7 -35 0 -15 9 -12 10 17 10 29 0 32 -1 18 -10z m975 4
c59 -3 107 -9 107 -12 0 -3 -79 -5 -177 -3 -116 2 -180 -1 -187 -8 -8 -8 6
-10 47 -9 31 1 60 -1 64 -4 3 -4 -42 -7 -101 -7 -82 0 -107 -3 -104 -12 3 -8
26 -14 54 -16 27 -2 54 -8 59 -13 7 -7 -16 -9 -70 -6 -44 2 -111 -2 -150 -9
-94 -17 -99 -17 -84 -1 7 6 35 13 63 14 71 3 116 12 116 24 0 7 -30 9 -82 5
-46 -2 -72 -2 -59 1 13 2 31 11 38 19 16 15 43 19 43 5 0 -4 10 -7 23 -5 12 2
43 6 70 9 31 4 47 11 47 21 0 16 98 19 283 7z m-2092 -34 c16 -16 14 -17 -57
-18 -57 -1 -74 3 -74 13 0 35 97 39 131 5z m1019 21 c0 -5 -4 -10 -10 -10 -5
0 -10 5 -10 10 0 6 5 10 10 10 6 0 10 -4 10 -10z m-172 -22 c7 -7 12 -19 12
-27 0 -10 -3 -12 -8 -6 -4 6 -14 10 -22 10 -8 0 -16 8 -18 18 -4 20 18 23 36
5z m57 2 c3 -5 1 -10 -4 -10 -6 0 -11 5 -11 10 0 6 2 10 4 10 3 0 8 -4 11 -10z
m595 -11 c-83 -20 -321 -51 -337 -44 -19 8 95 28 232 40 38 3 72 8 74 11 2 2
18 4 35 3 l31 -1 -35 -9z m635 1 c49 4 65 2 65 -7 0 -13 -90 -19 -210 -14 -73
4 -78 11 -7 11 31 0 59 5 63 11 3 6 10 7 15 2 5 -5 38 -6 74 -3z m-2538 -35
c-12 -13 -24 -20 -25 -14 -2 5 -20 7 -40 4 -28 -5 -33 -4 -22 4 8 6 11 11 5
12 -19 2 40 17 72 18 l31 1 -21 -25z m1931 -25 c-2 -9 -21 -17 -47 -22 -57
-10 -64 -18 -15 -18 55 -1 24 -16 -50 -25 -59 -7 -112 -22 -105 -29 6 -6 141
11 163 20 12 4 17 4 13 -2 -3 -6 19 -9 56 -7 52 1 56 0 27 -7 -19 -4 -64 -10
-100 -13 -96 -8 -153 -18 -168 -30 -7 -6 -66 -12 -130 -14 -64 -2 -124 -6
-132 -10 -8 -3 -33 -7 -55 -9 l-40 -3 50 16 c28 8 84 21 125 28 50 8 63 13 40
14 -19 0 -69 -5 -110 -13 -41 -8 -76 -13 -78 -11 -9 9 40 24 91 29 134 13 337
52 352 68 7 7 2 9 -17 4 -23 -5 -26 -3 -21 10 5 14 1 15 -26 9 -72 -16 -217
-32 -224 -25 -8 7 125 29 224 37 32 2 69 7 83 11 47 13 97 9 94 -8z m562 10
c23 -7 22 -8 -11 -9 -20 -1 -56 -3 -80 -5 -24 -2 -36 -2 -26 1 9 2 15 9 12 14
-7 11 70 10 105 -1z m151 -37 c0 -27 2 -60 4 -75 2 -16 -1 -28 -6 -28 -6 0 -8
4 -4 9 3 5 1 12 -5 16 -13 8 -13 125 0 125 6 0 10 -21 11 -47z m-1203 30 c-10
-2 -26 -2 -35 0 -10 3 -2 5 17 5 19 0 27 -2 18 -5z m1158 -10 c-10 -11 -37
-12 -30 -2 3 5 12 9 21 9 9 0 13 -3 9 -7z m-3657 -95 c-1 -46 -5 -75 -9 -67
-8 13 -2 149 6 149 2 0 4 -37 3 -82z m3216 72 c15 -6 7 -9 -30 -9 -36 -1 -46
2 -35 9 18 12 38 12 65 0z m-2320 -10 c5 -8 -15 -16 -97 -36 -18 -4 -28 -13
-28 -25 0 -24 -1 -24 93 5 44 14 77 20 77 14 0 -6 8 -7 18 -3 30 13 82 17 82
7 0 -5 -18 -12 -40 -16 -24 -4 -39 -11 -37 -19 1 -7 -11 -13 -28 -15 -16 -2
-35 -10 -42 -19 -7 -9 -33 -17 -60 -20 -45 -4 -47 -3 -29 11 11 9 26 16 33 16
7 0 13 4 13 9 0 8 -28 3 -77 -14 -29 -10 -37 -33 -12 -40 25 -8 24 -31 -1 -45
-16 -8 -20 -8 -18 2 2 8 -5 12 -17 10 -11 -2 -38 -4 -60 -6 -22 -2 -56 -10
-75 -19 -45 -20 -150 -33 -150 -19 0 6 -8 12 -17 14 -28 6 37 43 102 57 31 7
55 18 55 25 0 7 17 21 38 31 20 10 45 22 54 26 10 5 32 9 50 10 27 0 29 2 13
9 -18 7 -17 8 10 15 17 4 35 11 40 15 10 9 71 28 92 29 6 1 14 -3 18 -9z m73
-2 c-3 -7 -8 -13 -13 -13 -5 0 -10 6 -12 13 -3 6 3 12 12 12 9 0 15 -6 13 -12z
m1596 4 c3 -5 -19 -13 -49 -19 -62 -11 -75 0 -17 15 49 13 60 14 66 4z m1074
-9 c-10 -2 -26 -2 -35 0 -10 3 -2 5 17 5 19 0 27 -2 18 -5z m-958 -13 c0 -5
-6 -10 -14 -10 -7 0 -29 -3 -47 -6 -24 -5 -31 -3 -24 4 9 9 35 17 73 21 6 0
12 -3 12 -9z m430 3 c0 -5 -28 -9 -63 -9 -50 -1 -55 0 -27 6 49 10 90 11 90 3z
m345 -2 c-6 -4 -32 -5 -60 -1 l-50 7 60 2 c34 0 55 -3 50 -8z m-3290 -10 c-16
-13 -73 -30 -80 -23 -4 4 10 12 32 19 48 14 60 16 48 4z m-148 -38 c-3 -10 -5
-4 -5 12 0 17 2 24 5 18 2 -7 2 -21 0 -30z m53 12 c0 -8 -9 -15 -20 -15 -11 0
-20 7 -20 15 0 8 9 15 20 15 11 0 20 -7 20 -15z m3116 -10 c4 -8 15 -15 26
-15 10 0 17 -4 13 -9 -3 -5 9 -12 27 -14 18 -2 8 -4 -22 -4 -37 0 -68 7 -94
21 l-39 21 34 6 c19 4 38 7 42 8 4 0 10 -6 13 -14z m111 9 c-3 -3 -12 -4 -19
-1 -8 3 -5 6 6 6 11 1 17 -2 13 -5z m116 -1 c-7 -2 -19 -2 -25 0 -7 3 -2 5 12
5 14 0 19 -2 13 -5z m54 1 c-3 -3 -12 -4 -19 -1 -8 3 -5 6 6 6 11 1 17 -2 13
-5z m-384 -28 c4 -10 -7 -17 -41 -25 -148 -33 -292 -45 -299 -25 -2 7 12 15
34 18 21 4 49 10 62 13 17 4 22 2 17 -6 -9 -14 -10 -14 109 14 122 29 112 28
118 11z m-1992 -29 c-10 -9 -11 -8 -5 6 3 10 9 15 12 12 3 -3 0 -11 -7 -18z
m1300 -43 c10 -13 2 -44 -12 -44 -5 0 -8 26 -8 58 1 33 4 45 6 27 3 -16 9 -35
14 -41z m1059 50 c0 -14 -3 -14 -15 -4 -8 7 -15 14 -15 16 0 2 7 4 15 4 8 0
15 -7 15 -16z m225 6 c8 -13 -115 -13 -135 0 -10 7 7 10 57 10 39 0 75 -4 78
-10z m-2635 -24 c0 -18 -5 -23 -27 -24 -39 -1 -98 -9 -124 -17 -15 -5 -20 -3
-17 6 3 8 18 15 34 17 68 6 94 13 94 27 0 8 9 15 20 15 14 0 20 -7 20 -24z
m-525 4 c-3 -5 -16 -10 -28 -10 -18 0 -19 2 -7 10 20 13 43 13 35 0z m2215
-25 c0 -10 -11 -15 -37 -16 -97 -4 -128 -18 -42 -20 69 -2 48 -7 -68 -17 -51
-4 -93 -4 -93 0 0 4 17 8 38 8 20 0 44 5 52 10 11 7 -6 9 -54 8 -48 -2 -70 1
-73 10 -3 8 9 12 39 13 24 0 63 4 88 8 81 15 150 13 150 -4z m-2314 -10 c-11
-8 -33 -15 -50 -15 -36 0 -29 10 16 20 49 12 55 11 34 -5z m2916 -6 c21 -11
67 -22 101 -23 9 0 17 -3 17 -7 0 -4 14 -12 31 -18 17 -6 28 -15 25 -20 -3 -5
-32 2 -63 15 -32 13 -65 24 -73 24 -8 0 -28 9 -45 20 -32 21 -27 27 7 9z
m-3072 -3 c0 -4 -68 -46 -76 -46 -2 0 -4 6 -4 14 0 8 12 19 28 24 29 11 52 14
52 8z m2540 -6 c-14 -4 -32 -8 -40 -9 -13 -1 -13 0 0 9 8 5 26 9 40 9 l25 -1
-25 -8z m215 0 c-3 -5 -10 -10 -16 -10 -5 0 -9 5 -9 10 0 6 7 10 16 10 8 0 12
-4 9 -10z m-2010 -9 c-12 -12 -65 -26 -65 -17 0 3 15 10 33 15 43 12 42 12 32
2z m-181 -34 c-32 -10 -60 -23 -62 -28 -2 -4 -20 -11 -40 -14 -20 -4 -48 -8
-61 -11 -18 -4 -22 -2 -18 10 8 20 5 20 -40 1 -42 -18 -53 -19 -53 -5 0 5 11
12 25 16 14 3 25 9 25 13 0 4 10 7 23 9 23 1 135 19 202 31 64 12 64 -1 -1
-22z m106 23 c0 -5 -7 -10 -16 -10 -8 0 -12 5 -9 10 3 6 10 10 16 10 5 0 9 -4
9 -10z m-773 -6 c-3 -3 -12 -4 -19 -1 -8 3 -5 6 6 6 11 1 17 -2 13 -5z m498
-4 c-3 -5 -12 -10 -18 -10 -7 0 -6 4 3 10 19 12 23 12 15 0z m385 -20 c0 -28
-3 -30 -36 -30 -31 0 -35 2 -24 15 7 8 21 15 31 15 11 0 19 7 19 15 0 8 2 15
5 15 3 0 5 -13 5 -30z m2634 21 c4 -5 -3 -7 -14 -4 -23 6 -26 13 -6 13 8 0 17
-4 20 -9z m-1254 -26 c10 -13 9 -15 -8 -15 -15 0 -20 5 -16 15 4 8 7 15 9 15
1 0 8 -7 15 -15z m325 5 c-16 -4 -55 -8 -85 -8 -45 0 -49 2 -25 8 17 4 55 8
85 8 45 0 49 -2 25 -8z m102 4 c-3 -3 -12 -4 -19 -1 -8 3 -5 6 6 6 11 1 17 -2
13 -5z m146 -18 c4 -10 -17 -16 -96 -25 -120 -13 -149 -20 -141 -32 3 -5 -2
-9 -10 -9 -10 0 -13 6 -10 15 4 8 1 15 -6 15 -6 0 -8 5 -5 10 3 6 17 10 31 10
14 0 22 4 19 10 -8 12 6 13 38 1 16 -6 44 -5 83 4 80 17 91 17 97 1z m-393 -5
c0 -11 -71 -21 -85 -12 -5 3 6 9 25 12 54 10 60 10 60 0z m-155 -41 c-9 -10
-13 -20 -8 -23 8 -5 27 -2 148 22 64 13 132 14 120 2 -11 -10 -273 -53 -283
-47 -5 3 -7 63 -3 73 1 0 10 -1 21 -4 19 -5 20 -7 5 -23z m52 24 c-3 -3 -12
-4 -19 -1 -8 3 -5 6 6 6 11 1 17 -2 13 -5z m-1510 -14 c15 0 23 -3 19 -7 -4
-5 -8 -6 -9 -4 -1 2 -19 -4 -41 -13 -21 -9 -46 -16 -56 -16 -10 0 -23 -7 -30
-15 -16 -19 -2 -19 87 -4 48 8 63 15 59 25 -3 8 1 14 9 14 8 0 15 -6 15 -14 0
-16 -68 -43 -132 -52 -26 -4 -45 -10 -42 -15 2 -4 -13 -13 -35 -19 -49 -13
-66 -33 -25 -28 30 3 34 0 34 -28 0 -10 -6 -13 -18 -10 -10 4 -39 2 -65 -3
-53 -9 -63 1 -17 18 33 11 41 31 13 31 -22 0 -147 -18 -185 -26 -16 -3 -28 -1
-28 4 0 6 14 13 30 17 44 10 37 27 -7 20 l-38 -6 29 17 c22 12 42 15 83 10 43
-5 53 -3 53 9 0 9 9 15 22 15 22 0 33 3 156 42 52 16 71 27 67 36 -4 10 0 12
11 8 8 -3 27 -6 41 -6z m1413 -19 c0 -3 -7 -14 -14 -24 -11 -14 -15 -15 -19
-5 -4 8 -6 7 -6 -4 -1 -27 -18 -22 -23 7 -3 13 -4 26 -2 28 6 6 64 4 64 -2z
m-1900 -11 c0 -5 -5 -10 -11 -10 -5 0 -7 5 -4 10 3 6 8 10 11 10 2 0 4 -4 4
-10z m3148 -5 c4 -5 -1 -5 -10 -2 -39 14 -15 -3 39 -27 31 -15 54 -29 51 -32
-6 -6 -158 62 -158 71 0 8 69 -1 78 -10z m-708 -24 c-12 -23 -15 -24 -45 -11
-20 8 -19 9 1 9 12 1 27 8 34 16 17 21 24 12 10 -14z m-2275 10 c-6 -4 -40
-17 -77 -28 -55 -17 -70 -18 -78 -8 -9 11 -1 17 37 28 53 17 133 22 118 8z
m1880 -31 c-45 -12 -97 -12 -90 0 3 6 32 9 63 9 47 -1 52 -3 27 -9z m179 -10
c-6 -6 -42 -12 -80 -15 l-69 -4 70 13 c92 18 91 18 79 6z m-1654 -20 c0 -11
-4 -20 -10 -20 -5 0 -10 5 -10 10 0 6 -8 10 -17 10 -15 0 -16 2 -3 10 24 16
40 12 40 -10z m1710 0 c-14 -4 -41 -8 -60 -8 -32 0 -33 1 -10 8 14 4 41 8 60
8 32 0 33 -1 10 -8z m144 -5 c-4 -8 -18 -15 -34 -15 -15 0 -49 -2 -76 -5 -46
-4 -45 -3 21 14 88 24 96 25 89 6z m-524 -5 c0 -5 -4 -10 -10 -10 -5 0 -10 5
-10 10 0 6 5 10 10 10 6 0 10 -4 10 -10z m44 1 c3 -5 -1 -12 -10 -15 -20 -8
-29 -1 -19 13 8 13 22 14 29 2z m104 0 c9 -6 0 -12 -32 -20 -58 -14 -67 -14
-60 3 3 8 20 17 37 19 18 2 34 4 37 5 3 1 11 -2 18 -7z m391 -45 c-12 -25 -24
-44 -26 -42 -2 2 6 24 18 50 13 25 25 44 27 41 2 -2 -6 -24 -19 -49z m-319 30
c0 -9 -30 -14 -35 -6 -4 6 3 10 14 10 12 0 21 -2 21 -4z m274 -41 c-6 -13 -41
-21 -84 -17 -8 1 -22 -1 -30 -4 -13 -4 -13 -6 0 -14 11 -7 4 -10 -24 -10 -58
0 -32 21 52 41 87 22 92 22 86 4z m-1879 -5 c-3 -5 -25 -9 -48 -9 -40 1 -40 2
-12 9 44 11 67 11 60 0z m-405 -15 c-14 -17 -46 -20 -55 -6 -5 10 15 18 49 20
15 1 16 -2 6 -14z m310 -10 c0 -7 -21 -18 -47 -25 -27 -6 -59 -16 -72 -21 -13
-6 -53 -13 -88 -16 -43 -4 -63 -10 -63 -19 0 -8 -6 -14 -14 -14 -8 0 -16 -6
-19 -12 -2 -8 -10 -1 -17 15 -16 34 -8 44 45 53 22 3 48 11 59 16 10 6 54 13
98 15 55 4 78 9 74 18 -3 8 4 10 20 7 13 -2 24 -10 24 -17z m1580 15 c0 -6 25
-8 63 -5 41 3 54 2 37 -4 -37 -12 -126 -24 -118 -15 4 4 0 13 -10 20 -16 12
-15 13 6 14 12 0 22 -4 22 -10z m-1425 -30 c8 -13 -5 -74 -13 -65 -4 4 -7 12
-7 18 0 7 -11 14 -25 15 -14 2 -31 9 -39 15 -12 10 -9 13 15 18 45 10 62 10
69 -1z m-480 -20 c-3 -5 -10 -10 -16 -10 -5 0 -9 5 -9 10 0 6 7 10 16 10 8 0
12 -4 9 -10z m2050 -10 c4 -6 -9 -8 -39 -4 -24 4 -58 2 -75 -4 -24 -9 -31 -8
-31 2 0 16 135 22 145 6z m935 -21 c19 -9 47 -33 62 -52 15 -19 48 -45 73 -57
41 -20 45 -25 45 -57 0 -35 0 -35 -36 -28 -20 3 -44 10 -53 15 -9 5 -68 32
-131 61 -63 29 -119 56 -124 60 -9 8 -2 45 12 67 7 10 15 10 43 -2 34 -15 32
-20 -7 -17 -34 3 -38 -28 -6 -41 15 -7 38 -20 51 -30 13 -10 33 -18 45 -18 11
0 30 -7 40 -15 11 -8 28 -15 38 -15 10 0 18 -4 18 -10 0 -15 27 -12 33 4 7 19
-12 36 -40 36 -14 0 -23 6 -23 15 0 11 -11 15 -40 15 -44 0 -52 16 -24 44 14
15 14 17 -3 22 -10 3 -31 12 -48 20 l-30 14 35 -6 c19 -4 51 -15 70 -25z
m-720 11 c0 -13 -11 -13 -30 0 -12 8 -11 10 8 10 12 0 22 -4 22 -10z m-278
-32 c-15 -15 -141 -25 -127 -10 6 6 37 13 70 15 33 2 62 4 65 5 2 1 -1 -3 -8
-10z m304 -26 c-18 -16 -18 -16 -6 6 6 13 14 21 18 18 3 -4 -2 -14 -12 -24z
m789 10 c-3 -3 -11 0 -18 7 -9 10 -8 11 6 5 10 -3 15 -9 12 -12z m-3568 -88
c19 -62 14 -80 -25 -89 -17 -3 -33 -13 -36 -21 -8 -21 -21 -17 -34 11 -16 35
-15 46 4 38 9 -3 14 -13 11 -24 -3 -11 -2 -21 3 -24 4 -2 10 10 14 28 4 17 2
33 -3 35 -5 2 -1 12 9 22 11 11 17 26 14 35 -7 18 -35 20 -52 3 -9 -9 -12 -5
-12 20 0 27 5 33 33 40 39 11 50 0 74 -74z m483 53 c0 -5 -4 -5 -10 -2 -5 3
-10 14 -10 23 0 15 2 15 10 2 5 -8 10 -19 10 -23z m3150 23 c0 -5 -4 -10 -10
-10 -5 0 -10 5 -10 10 0 6 5 10 10 10 6 0 10 -4 10 -10z m-2670 -19 c0 -16 -9
-20 -51 -23 -28 -1 -56 0 -62 4 -14 9 -14 9 42 13 24 2 48 8 54 14 15 15 17
14 17 -8z m1585 9 c-3 -5 -14 -10 -23 -10 -15 0 -15 2 -2 10 20 13 33 13 25 0z
m-226 -20 c47 0 64 -17 24 -25 -15 -3 -43 -10 -60 -14 -23 -7 -33 -6 -33 2 0
7 -3 23 -7 36 -5 21 -4 22 15 12 11 -6 39 -11 61 -11z m-2446 -111 c-2 -57 -6
-105 -8 -108 -3 -2 -5 46 -5 108 0 62 4 110 8 107 5 -3 7 -51 5 -107z m2832
91 c-3 -5 -25 -9 -48 -9 -40 1 -40 2 -12 9 44 11 67 11 60 0z m-175 -20 c0 -5
8 -10 17 -10 9 0 13 -3 9 -7 -10 -11 -172 -30 -191 -23 -13 5 -13 9 5 28 18
19 31 22 90 22 40 0 70 -4 70 -10z m-1894 -9 c-8 -12 -46 -21 -46 -11 0 9 18
18 38 19 7 1 11 -3 8 -8z m320 -47 c-6 -15 -66 -20 -66 -5 0 5 14 14 30 21 17
7 31 18 31 24 1 6 3 3 6 -7 3 -10 2 -25 -1 -33z m1724 27 c0 -10 -49 -21 -93
-21 -41 0 -30 9 24 19 61 12 69 12 69 2z m-2094 -48 c-8 -8 -36 5 -36 17 0 7
6 7 21 0 11 -7 18 -14 15 -17z m219 3 l-30 -11 40 -5 40 -6 -50 -8 c-27 -4
-59 -11 -70 -16 -33 -15 -79 -20 -92 -12 -9 5 -1 12 23 21 28 10 33 16 24 26
-13 16 11 21 95 22 48 0 49 0 20 -11z m1575 -21 c0 -8 -9 -15 -20 -15 -25 0
-26 17 -2 23 9 3 18 5 20 6 1 0 2 -6 2 -14z m-1495 -25 c-11 -5 -27 -9 -35 -9
-9 0 -8 4 5 9 11 5 27 9 35 9 9 0 8 -4 -5 -9z m75 -15 c0 -20 -5 -25 -27 -25
l-26 0 23 25 c13 14 25 25 27 25 2 0 3 -11 3 -25z m1585 15 c-46 -12 -103 -12
-85 0 8 5 38 9 65 9 44 -1 46 -2 20 -9z m70 -49 c-3 -6 -16 -11 -28 -11 -21 1
-21 1 3 15 27 14 36 13 25 -4z m-1773 -12 c-23 -4 -48 -11 -55 -14 -6 -4 -3 1
7 9 11 9 36 16 55 15 l36 -1 -43 -9z m-212 -3 c0 -3 -4 -8 -10 -11 -5 -3 -10
-1 -10 4 0 6 5 11 10 11 6 0 10 -2 10 -4z m330 -16 c0 -11 -7 -20 -15 -20 -18
0 -19 12 -3 28 16 16 18 15 18 -8z m1410 10 c0 -5 -9 -10 -19 -10 -11 0 -23 5
-26 10 -4 6 5 10 19 10 14 0 26 -4 26 -10z m-64 -29 c-10 -16 -36 -13 -36 3 0
17 21 27 34 16 4 -5 5 -13 2 -19z m229 19 c4 -6 -9 -10 -32 -9 -34 1 -35 2
-13 9 35 11 38 11 45 0z m-275 -16 c0 -8 -5 -12 -10 -9 -6 4 -8 11 -5 16 9 14
15 11 15 -7z m400 12 c0 -3 -4 -8 -10 -11 -5 -3 -10 -1 -10 4 0 6 5 11 10 11
6 0 10 -2 10 -4z m-67 -13 c-7 -2 -21 -2 -30 0 -10 3 -4 5 12 5 17 0 24 -2 18
-5z m-1823 -12 c0 -5 -9 -13 -20 -16 -11 -4 -18 -10 -15 -15 6 -10 -58 -22
-79 -14 -9 3 -16 12 -16 19 0 14 29 29 38 20 3 -3 0 -5 -6 -5 -7 0 -12 -4 -12
-9 0 -6 24 -1 53 9 28 10 53 19 55 19 1 1 2 -3 2 -8z m-186 -27 c4 -10 1 -14
-6 -12 -15 5 -23 28 -10 28 5 0 13 -7 16 -16z m341 6 c4 -7 -16 -10 -58 -8
-36 2 -63 6 -60 11 7 11 111 8 118 -3z m1391 -18 c5 2 11 -1 14 -7 6 -11 -25
-19 -45 -11 -9 3 -12 12 -9 21 5 11 10 13 19 5 7 -6 17 -9 21 -8z m-2326 -82
c5 0 14 9 20 20 16 30 50 26 50 -5 0 -14 -6 -25 -12 -26 -36 -2 -63 -11 -120
-40 -16 -8 -18 -4 -18 26 0 19 5 36 10 36 6 1 14 2 19 3 15 2 26 16 12 16 -7
0 -5 9 6 27 l18 27 3 -42 c2 -23 7 -42 12 -42z m847 72 c6 -4 -31 -15 -84 -25
-52 -11 -97 -16 -101 -12 -9 8 18 24 32 19 7 -3 29 2 51 10 45 16 84 19 102 8z
m1673 -2 c-66 -15 -113 -19 -104 -10 11 11 47 17 99 18 l40 0 -35 -8z m101
-33 c-16 -16 -20 -5 -8 23 9 22 11 23 14 6 3 -10 0 -23 -6 -29z m-1651 13 c0
-5 -19 -10 -42 -10 -32 0 -39 3 -28 10 20 13 70 13 70 0z m1302 -52 c-9 -9
-12 -7 -12 12 0 19 3 21 12 12 9 -9 9 -15 0 -24z m-1527 7 c-22 -8 -41 -15
-42 -15 -2 0 -3 -5 -3 -11 0 -7 11 -9 30 -5 17 3 30 1 30 -4 0 -6 -16 -10 -35
-10 -24 0 -37 6 -45 19 -12 24 -13 34 -2 27 5 -3 22 -1 38 4 48 14 72 10 29
-5z m1856 -32 c-21 -53 -59 -147 -71 -178 -7 -16 -9 -17 -9 -3 -1 9 13 53 29
98 17 45 30 90 30 100 0 16 12 27 32 29 5 1 -1 -20 -11 -46z m-1722 13 c-10
-8 -89 -13 -83 -5 3 5 24 9 46 9 23 0 39 -2 37 -4z m86 -17 c-4 -5 -15 -9 -26
-9 -26 0 -17 15 10 17 12 1 19 -2 16 -8z m1370 1 c4 -6 2 -17 -4 -24 -14 -16
5 -26 50 -26 57 0 28 -16 -32 -17 -60 -2 -61 -2 -55 22 3 13 1 27 -4 30 -6 4
-8 11 -5 16 8 12 42 12 50 -1z m-2275 -11 c0 -4 -6 -12 -14 -18 -10 -8 -16 -8
-25 2 -6 8 -9 16 -6 18 7 7 45 5 45 -2z m600 -32 c0 -18 -2 -19 -10 -7 -13 20
-13 43 0 35 6 -3 10 -16 10 -28z m170 23 c-8 -5 -28 -9 -45 -9 -29 1 -29 1 -5
9 14 4 34 8 45 9 16 1 17 -1 5 -9z m-820 -36 c0 -8 -4 -12 -10 -9 -5 3 -10 13
-10 21 0 8 5 12 10 9 6 -3 10 -13 10 -21z m72 -6 c-6 -6 -16 -8 -22 -6 -9 3
-7 9 6 22 13 13 19 15 22 6 2 -6 0 -16 -6 -22z m58 -8 c-22 -14 -30 -12 -30 8
0 28 12 34 29 17 14 -14 14 -17 1 -25z m727 17 c-22 -6 -37 -15 -37 -24 0 -10
-6 -13 -16 -9 -9 3 -25 6 -37 6 -22 1 -22 1 -2 12 29 17 108 37 120 30 5 -4
-7 -10 -28 -15z m-887 -54 c0 -7 -5 -13 -10 -13 -12 0 -30 41 -23 53 6 10 32
-23 33 -40z m-10 -30 c35 -7 37 -14 10 -31 -11 -7 -20 -22 -21 -35 -1 -21 -1
-21 -9 3 -8 23 -8 22 -8 -10 0 -57 -14 -140 -24 -140 -5 0 -8 61 -7 143 2 129
4 139 16 109 10 -24 21 -34 43 -39z m715 46 c10 -30 2 -32 -12 -3 -6 13 -7 24
-3 24 5 0 12 -9 15 -21z m-649 0 c3 -6 17 -8 29 -5 22 6 23 4 12 -24 -18 -46
-63 -28 -66 28 -1 15 15 16 25 1z m179 -36 c-6 -32 -4 -34 17 -31 25 3 38 -26
20 -44 -14 -14 -52 26 -52 55 0 12 -4 29 -9 37 -13 19 -4 31 15 23 12 -4 14
-14 9 -40z m-75 18 c0 -12 -29 -35 -36 -28 -11 10 5 37 21 37 8 0 15 -4 15 -9z
m2198 -2 c-10 -5 -18 -19 -18 -29 0 -11 -4 -20 -10 -20 -5 0 -10 14 -10 30 0
26 4 30 28 30 23 -1 24 -2 10 -11z m-2176 -41 c-7 -7 -12 -8 -12 -2 0 6 3 14
7 17 3 4 9 5 12 2 2 -3 -1 -11 -7 -17z m673 -3 c-35 -16 -54 -20 -62 -13 -23
18 -14 27 30 31 79 7 82 5 32 -18z m95 -3 c0 -4 -9 -8 -20 -9 -11 -1 -18 2
-15 8 7 11 35 12 35 1z m-786 -19 c3 -7 14 -13 24 -13 11 0 25 -6 31 -14 14
-17 3 -49 -15 -42 -15 6 -18 -3 -8 -28 9 -24 40 -19 62 9 11 14 23 25 26 25
14 0 4 -31 -17 -55 -18 -21 -28 -25 -50 -20 -15 4 -27 13 -27 21 0 7 -8 17
-17 23 -12 6 -18 22 -18 42 0 25 -6 36 -23 45 -16 8 -19 13 -10 16 23 8 37 5
42 -9z m-257 -15 c-3 -8 -6 -5 -6 6 -1 11 2 17 5 13 3 -3 4 -12 1 -19z m173
15 c0 -4 -10 -27 -22 -52 l-22 -45 -7 28 c-10 35 8 76 33 76 10 0 18 -3 18 -7z
m710 -67 c0 -16 -48 35 -54 56 -3 16 3 12 24 -13 16 -19 29 -38 30 -43z m115
64 c3 -5 3 -10 -2 -10 -4 0 -19 -3 -33 -6 -24 -5 -24 -5 -6 10 23 19 32 20 41
6z m-70 -20 c-3 -5 -10 -10 -16 -10 -5 0 -9 5 -9 10 0 6 7 10 16 10 8 0 12 -4
9 -10z m1625 -8 c0 -5 -8 -16 -17 -25 -15 -13 -22 -13 -48 -2 -31 13 -27 18
20 28 34 8 45 7 45 -1z m-2327 -9 c9 -15 -12 -50 -32 -56 -25 -6 -25 -4 -6 33
15 29 29 38 38 23z m817 -23 c0 -5 -5 -10 -11 -10 -5 0 -7 5 -4 10 3 6 8 10
11 10 2 0 4 -4 4 -10z m-950 -58 c-10 -38 -26 -60 -36 -50 -2 3 3 28 12 58 10
35 19 49 25 43 7 -7 7 -24 -1 -51z m2510 40 c0 -25 -25 -58 -34 -44 -7 12 13
62 26 62 4 0 8 -8 8 -18z m-2186 -35 c-7 -18 -24 -23 -24 -8 0 22 13 42 22 33
5 -5 6 -16 2 -25z m556 29 c0 -3 -4 -8 -10 -11 -5 -3 -10 -1 -10 4 0 6 5 11
10 11 6 0 10 -2 10 -4z m7 -38 c-3 -8 -6 -5 -6 6 -1 11 2 17 5 13 3 -3 4 -12
1 -19z m-827 -7 c0 -10 -12 -26 -26 -36 -26 -16 -26 -16 -19 7 14 45 45 66 45
29z m105 9 c11 -18 -5 -30 -25 -18 -10 7 -16 16 -14 20 7 11 32 10 39 -2z
m684 -59 c0 -14 -1 -14 -6 -1 -3 8 -10 24 -15 35 -9 20 -9 20 6 1 9 -11 16
-27 15 -35z m-731 12 c-2 -9 -15 -18 -30 -20 -31 -4 -37 11 -10 26 26 16 44
13 40 -6z m172 7 c0 -5 -10 -10 -22 -10 -19 0 -20 2 -8 10 19 13 30 13 30 0z
m-90 -7 c0 -10 -32 -43 -42 -43 -5 0 -1 11 8 25 15 23 34 33 34 18z m735 -13
c3 -5 1 -10 -4 -10 -6 0 -11 5 -11 10 0 6 2 10 4 10 3 0 8 -4 11 -10z m1395
-4 c0 -3 -4 -8 -10 -11 -5 -3 -10 -1 -10 4 0 6 5 11 10 11 6 0 10 -2 10 -4z
m-2064 -28 c9 -15 -18 -29 -43 -23 -12 3 -23 0 -26 -8 -2 -6 -7 -9 -11 -5 -4
3 0 17 8 31 12 18 23 23 41 19 14 -2 28 -9 31 -14z m-281 2 c3 -5 1 -10 -4
-10 -6 0 -11 5 -11 10 0 6 2 10 4 10 3 0 8 -4 11 -10z m86 -20 c3 -14 1 -31
-4 -38 -8 -11 -4 -12 19 -7 16 3 39 8 51 11 12 2 32 0 45 -5 13 -6 19 -10 13
-11 -5 0 -42 -3 -82 -6 l-72 -5 -10 38 c-15 52 -14 55 11 51 14 -2 25 -12 29
-28z m42 13 c9 -9 -13 -34 -24 -27 -14 8 -11 34 4 34 8 0 17 -3 20 -7z m240
-33 c3 -11 2 -20 -1 -21 -4 0 -25 -3 -46 -5 -37 -5 -38 -4 -25 13 30 39 64 45
72 13z m-399 -51 c-9 -15 -44 -11 -38 5 3 8 13 12 25 9 10 -3 16 -9 13 -14z"/>
<path d="M2810 1550 c0 -5 5 -10 11 -10 5 0 7 5 4 10 -3 6 -8 10 -11 10 -2 0
-4 -4 -4 -10z"/>
<path d="M2755 1540 c-3 -5 -1 -10 4 -10 6 0 11 5 11 10 0 6 -2 10 -4 10 -3 0
-8 -4 -11 -10z"/>
<path d="M957 1543 c-11 -10 -8 -33 4 -33 5 0 7 5 4 10 -3 6 -1 10 4 10 6 0
11 5 11 10 0 11 -13 13 -23 3z"/>
<path d="M730 1480 c0 -5 5 -10 10 -10 6 0 10 5 10 10 0 6 -4 10 -10 10 -5 0
-10 -4 -10 -10z"/>
<path d="M776 1454 c-17 -12 -17 -14 -4 -14 9 0 20 5 23 11 11 17 2 18 -19 3z"/>
<path d="M858 1233 c7 -3 16 -2 19 1 4 3 -2 6 -13 5 -11 0 -14 -3 -6 -6z"/>
<path d="M2630 940 c-13 -9 -13 -10 0 -10 8 0 22 5 30 10 13 9 13 10 0 10 -8
0 -22 -5 -30 -10z"/>
<path d="M915 870 c-17 -7 -15 -9 13 -9 17 -1 32 4 32 9 0 12 -17 12 -45 0z"/>
<path d="M3230 2060 c-12 -7 -8 -10 15 -10 30 -1 30 -1 6 -11 -14 -5 -30 -8
-37 -5 -18 7 -25 -5 -13 -21 15 -18 68 -17 75 2 4 8 11 12 17 8 6 -4 8 0 4 11
-5 12 0 19 16 26 18 7 14 9 -23 9 -25 0 -52 -4 -60 -9z"/>
<path d="M3095 2051 c-6 -11 71 -8 82 2 3 4 -12 7 -35 7 -22 0 -43 -4 -47 -9z"/>
<path d="M2627 2012 c-82 -3 -140 -24 -104 -38 10 -3 30 -3 45 1 32 7 43 7 97
0 29 -5 36 -3 25 4 -13 9 -12 11 2 16 9 4 33 5 54 3 38 -4 38 -4 14 -15 -20
-9 -7 -11 70 -9 60 0 93 5 90 11 -3 6 -26 10 -51 10 -33 0 -45 4 -42 13 4 9
-10 12 -57 10 -34 -2 -98 -4 -143 -6z"/>
<path d="M3108 2013 c7 -3 16 -2 19 1 4 3 -2 6 -13 5 -11 0 -14 -3 -6 -6z"/>
<path d="M3615 2009 c-22 -4 -67 -8 -99 -8 -33 -1 -57 -4 -53 -7 8 -8 255 -10
263 -2 3 4 3 11 -1 17 -7 12 -51 13 -110 0z"/>
<path d="M2324 1999 c-6 -10 2 -12 29 -10 10 2 17 -5 17 -16 0 -16 8 -19 55
-19 40 -1 55 2 55 12 0 8 -5 14 -12 14 -6 0 -20 8 -30 17 -16 14 -23 15 -39 5
-10 -7 -19 -9 -19 -5 0 11 -49 13 -56 2z"/>
<path d="M2223 1993 c-33 -6 -29 -31 5 -29 38 2 59 16 41 27 -8 5 -16 8 -19 7
-3 0 -15 -3 -27 -5z"/>
<path d="M3160 1979 c0 -5 5 -7 10 -4 6 3 10 1 10 -4 0 -6 -13 -11 -29 -11
-16 0 -43 -3 -60 -6 -24 -5 -31 -3 -31 10 0 20 -9 20 -40 -1 -20 -14 -54 -17
-226 -18 -112 0 -206 -4 -210 -8 -4 -3 4 -11 17 -16 17 -7 8 -8 -33 -4 -37 4
-58 2 -58 -5 0 -5 -11 -13 -25 -16 -38 -10 -30 -24 15 -24 22 -1 38 3 35 8 -5
9 10 12 99 24 22 3 43 11 48 18 7 12 9 11 12 -12 0 -6 8 -15 16 -20 8 -5 11
-10 5 -11 -5 -1 -25 -3 -44 -5 -36 -4 -48 -10 -39 -20 8 -7 39 -7 67 2 17 5
22 4 17 -4 -5 -8 3 -12 23 -12 16 0 33 5 36 10 3 6 -3 10 -14 10 -12 0 -21 5
-21 10 0 6 10 8 23 5 12 -3 42 -1 67 4 l45 9 -62 1 c-34 1 -65 6 -68 12 -10
16 -3 19 46 20 24 1 48 4 52 7 15 8 212 9 233 1 16 -6 15 -8 -8 -8 -15 -1 -30
-6 -33 -12 -5 -7 18 -8 77 -3 45 4 117 7 158 6 51 -1 70 2 60 8 -8 5 -26 10
-40 11 -22 0 -23 1 -5 8 19 8 19 8 -4 20 -13 7 -39 11 -57 9 -23 -3 -34 0 -34
9 0 7 -7 13 -15 13 -8 0 -15 -5 -15 -11z"/>
<path d="M3357 1980 c16 -17 123 -27 123 -11 0 6 -18 11 -42 11 -24 0 -54 3
-68 6 -20 6 -23 4 -13 -6z"/>
<path d="M1043 1953 c-26 -10 -12 -19 22 -15 19 2 32 8 29 13 -6 10 -31 11
-51 2z"/>
<path d="M1120 1950 c0 -6 28 -10 65 -10 36 0 65 4 65 9 0 5 -29 9 -65 10 -38
1 -65 -3 -65 -9z"/>
<path d="M840 1940 c0 -11 60 -11 105 0 23 6 15 8 -37 9 -40 1 -68 -3 -68 -9z"/>
<path d="M2027 1937 c-3 -8 3 -14 15 -14 16 -2 17 1 8 13 -15 17 -17 17 -23 1z"/>
<path d="M1766 1931 c-4 -7 -5 -15 -2 -18 9 -9 19 4 14 18 -4 11 -6 11 -12 0z"/>
<path d="M370 1915 c-34 -11 -54 -12 -87 -4 -35 9 -45 8 -58 -4 -8 -9 -15 -17
-15 -19 0 -11 170 -2 182 10 17 17 33 15 18 -3 -10 -12 -10 -15 3 -15 8 0 17
-7 21 -15 3 -8 17 -15 31 -15 48 0 16 -17 -42 -23 -184 -19 -290 -45 -190 -46
32 -1 67 3 77 9 14 8 19 5 24 -12 6 -24 -8 -38 -39 -38 -27 0 -47 -14 -43 -30
2 -8 -5 -16 -16 -18 -11 -2 -16 0 -12 7 5 7 -2 11 -18 11 -29 0 -36 -20 -8
-21 10 0 12 -3 5 -6 -7 -2 -13 -12 -13 -20 0 -13 8 -14 42 -9 23 4 47 11 53
15 5 5 26 11 45 14 19 3 50 9 68 13 21 4 32 2 32 -5 0 -17 68 -13 78 5 5 10
28 17 67 19 62 5 74 10 59 25 -5 5 -60 4 -144 -4 -74 -7 -139 -10 -144 -8 -24
13 70 34 169 38 185 8 203 24 22 20 -156 -4 -199 6 -89 20 74 10 73 10 100 19
12 4 22 13 22 20 0 15 60 24 89 13 12 -4 21 -14 21 -23 0 -8 5 -15 11 -15 5 0
7 -4 4 -10 -4 -6 12 -10 42 -9 47 0 47 1 26 16 -13 8 -23 23 -23 31 0 12 3 13
12 4 7 -7 38 -12 70 -12 32 0 67 -5 77 -12 23 -14 51 -4 51 18 0 13 -6 15 -31
10 -31 -6 -31 -5 -25 24 6 33 -4 38 -29 13 -13 -13 -18 -14 -25 -3 -6 10 -26
11 -85 6 -112 -10 -315 3 -315 20 0 17 -12 17 -70 -1z"/>
<path d="M1610 1920 c-12 -8 -11 -10 8 -10 12 0 22 5 22 10 0 13 -11 13 -30 0z"/>
<path d="M1041 1896 c-11 -14 -11 -16 4 -16 11 0 15 -5 11 -15 -3 -9 0 -15 9
-15 8 0 15 5 15 11 0 6 18 10 43 9 66 -3 77 -1 77 13 0 7 -8 14 -17 15 -10 1
-43 4 -73 8 -45 5 -58 3 -69 -10z"/>
<path d="M2940 1900 c-12 -8 -12 -10 5 -9 11 0 29 4 40 9 18 8 18 9 -5 9 -14
0 -32 -4 -40 -9z"/>
<path d="M920 1890 c0 -5 5 -10 10 -10 6 0 10 5 10 10 0 6 -4 10 -10 10 -5 0
-10 -4 -10 -10z"/>
<path d="M2065 1889 c-4 -5 -12 -9 -18 -8 -30 4 -39 -2 -34 -21 3 -12 0 -20
-7 -20 -20 0 -27 12 -15 27 9 10 7 13 -10 13 -14 0 -21 -6 -21 -19 0 -20 -34
-31 -102 -31 -23 0 -46 -7 -55 -16 -15 -14 -7 -15 83 -8 54 4 114 6 132 6 52
-3 109 66 67 81 -8 4 -17 2 -20 -4z"/>
<path d="M2170 1893 c-49 -5 -63 -12 -52 -29 4 -7 61 -13 147 -17 97 -3 149
-10 169 -20 32 -17 56 -13 56 10 0 12 -3 13 -14 4 -10 -9 -15 -8 -20 4 -3 8
-13 15 -21 15 -12 0 -15 6 -10 20 6 19 2 20 -102 18 -59 -1 -128 -3 -153 -5z"/>
<path d="M224 1859 c-9 -15 13 -28 37 -22 11 3 19 0 19 -7 0 -10 3 -10 15 0
21 18 19 33 -5 27 -11 -3 -23 -1 -26 4 -7 13 -31 11 -40 -2z"/>
<path d="M2520 1845 c-19 -21 -21 -25 -7 -25 9 0 17 5 17 11 0 8 4 8 13 1 16
-14 79 -1 69 14 -4 6 -21 14 -37 18 -25 5 -35 2 -55 -19z"/>
<path d="M360 1850 c0 -5 7 -10 16 -10 8 0 12 5 9 10 -3 6 -10 10 -16 10 -5 0
-9 -4 -9 -10z"/>
<path d="M2823 1853 c9 -2 23 -2 30 0 6 3 -1 5 -18 5 -16 0 -22 -2 -12 -5z"/>
<path d="M2728 1821 c-87 -10 -161 -21 -165 -24 -9 -10 38 -9 158 3 142 14
179 20 179 31 0 5 -3 8 -7 8 -5 -1 -79 -9 -165 -18z"/>
<path d="M180 1820 c0 -5 4 -10 9 -10 6 0 13 5 16 10 3 6 -1 10 -9 10 -9 0
-16 -4 -16 -10z"/>
<path d="M643 1823 c9 -2 14 -9 11 -15 -4 -7 -2 -8 5 -4 15 10 4 26 -17 25
-15 -1 -15 -2 1 -6z"/>
<path d="M1725 1811 c-3 -5 -1 -12 5 -16 13 -8 50 3 50 16 0 12 -47 12 -55 0z"/>
<path d="M2327 1813 c-4 -3 -7 -10 -7 -15 0 -12 73 -6 77 7 3 11 -60 19 -70 8z"/>
<path d="M815 1786 c-75 -14 -87 -21 -83 -54 3 -25 0 -27 -34 -30 -23 -2 -38
-8 -38 -16 0 -10 29 -12 131 -10 126 2 177 14 129 29 -17 6 -19 9 -9 22 11 13
6 14 -42 12 -49 -3 -55 0 -46 22 1 4 36 9 77 12 41 4 77 6 80 7 3 0 -2 5 -10
10 -19 12 -76 11 -155 -4z"/>
<path d="M1148 1783 c6 -2 18 -2 25 0 6 3 1 5 -13 5 -14 0 -19 -2 -12 -5z"/>
<path d="M2416 1782 c-3 -5 21 -7 52 -5 81 6 87 11 15 12 -34 1 -64 -3 -67 -7z"/>
<path d="M155 1750 c-3 -5 1 -10 9 -10 9 0 16 5 16 10 0 6 -4 10 -9 10 -6 0
-13 -4 -16 -10z"/>
<path d="M690 1750 c0 -5 5 -10 11 -10 5 0 7 5 4 10 -3 6 -8 10 -11 10 -2 0
-4 -4 -4 -10z"/>
<path d="M1180 1748 c0 -4 12 -8 26 -8 14 0 23 4 19 9 -6 11 -45 10 -45 -1z"/>
<path d="M1070 1740 c0 -5 5 -10 10 -10 6 0 10 5 10 10 0 6 -4 10 -10 10 -5 0
-10 -4 -10 -10z"/>
<path d="M1100 1740 c0 -13 11 -13 30 0 12 8 11 10 -7 10 -13 0 -23 -4 -23
-10z"/>
<path d="M600 1650 c0 -5 5 -10 10 -10 6 0 10 5 10 10 0 6 -4 10 -10 10 -5 0
-10 -4 -10 -10z"/>
<path d="M413 1643 c-50 -6 -39 -23 15 -23 57 0 94 9 86 21 -5 9 -39 9 -101 2z"/>
<path d="M225 1630 c-8 -13 35 -13 55 0 11 7 7 10 -17 10 -17 0 -35 -4 -38
-10z"/>
<path d="M2005 1631 l20 -8 -20 -5 c-15 -4 -13 -6 8 -7 16 0 26 3 22 8 -3 5 3
12 12 14 10 3 0 5 -22 5 -30 0 -35 -1 -20 -7z"/>
<path d="M2175 1629 c-4 -6 -1 -10 6 -8 60 8 70 -25 76 -246 3 -99 9 -185 14
-191 5 -7 11 -171 13 -365 4 -409 3 -382 16 -374 6 3 10 -5 10 -19 0 -13 -5
-26 -10 -28 -6 -2 -13 -42 -16 -89 -4 -75 -2 -87 14 -102 11 -10 26 -15 36
-11 18 7 22 39 6 49 -6 4 -7 -1 -3 -11 4 -12 2 -15 -8 -12 -19 6 -24 38 -6 38
19 0 27 44 16 82 -18 65 -27 914 -10 1033 12 82 3 214 -15 232 -30 30 -125 45
-139 22z"/>
<path d="M1860 1615 c0 -8 9 -15 20 -15 24 0 27 15 4 24 -22 9 -24 8 -24 -9z"/>
<path d="M1730 1605 c-10 -12 -9 -15 8 -15 11 0 22 7 26 15 3 9 0 15 -8 15 -7
0 -19 -7 -26 -15z"/>
<path d="M1420 1600 c-80 -4 -146 -8 -146 -9 -11 -10 -11 -77 1 -226 8 -99 17
-215 20 -259 5 -77 17 -118 28 -99 6 10 6 19 2 220 -2 73 -6 136 -9 142 -4 5
-6 48 -5 95 1 46 -2 89 -6 95 -6 11 101 16 257 11 86 -2 118 5 118 26 0 16 -8
16 -260 4z"/>
<path d="M2016 1550 c-14 -4 -16 -9 -8 -14 17 -11 15 -57 -5 -78 -12 -14 -19
-49 -25 -141 -10 -151 -15 -172 -18 -82 -1 39 -4 91 -5 118 -2 29 2 47 9 47 6
0 5 4 -3 9 -7 5 -21 7 -30 6 -9 -2 -28 -4 -43 -4 -24 -1 -28 -5 -28 -31 0 -25
-4 -30 -24 -30 -18 0 -27 8 -35 30 -12 35 -47 44 -36 9 7 -22 -21 -99 -37 -99
-4 0 -7 20 -6 45 2 29 8 45 16 45 7 0 10 5 6 11 -4 7 -38 9 -105 4 l-99 -7 0
35 c0 20 -3 42 -6 50 -6 15 52 27 166 32 133 7 275 17 279 21 2 2 -8 8 -23 14
-36 13 -100 12 -216 -4 -52 -7 -119 -11 -147 -8 -37 3 -53 0 -53 -8 0 -8 -11
-11 -31 -8 -29 5 -30 4 -27 -31 l3 -36 -45 -3 c-72 -5 -74 -8 -66 -157 6 -106
12 -139 31 -180 l24 -50 -19 -55 c-15 -45 -18 -72 -13 -150 3 -52 9 -99 14
-104 4 -5 1 -19 -8 -32 -13 -20 -13 -29 -3 -54 25 -61 79 -21 65 49 -12 67
-14 86 -16 156 -2 74 8 112 35 135 16 12 16 3 10 -118 -5 -97 -4 -132 5 -132
11 0 12 5 15 82 2 51 16 79 16 32 0 -16 5 -36 10 -44 12 -19 12 -23 13 93 2
79 -1 96 -12 92 -10 -4 -12 2 -8 24 4 20 2 31 -7 34 -10 4 -14 29 -14 89 -1
85 1 94 29 116 15 11 16 5 12 -73 -5 -85 10 -180 27 -170 5 3 4 22 -2 42 -12
45 -6 165 9 170 14 5 4 43 -11 43 -6 0 -18 5 -26 10 -13 9 -13 11 -1 19 12 8
13 12 1 25 -16 20 -14 23 31 31 32 6 37 4 43 -17 7 -22 8 -21 17 11 10 31 11
32 24 15 8 -11 14 -14 15 -6 0 6 5 12 10 12 26 0 -13 -130 -39 -130 -9 0 -24
-12 -35 -26 -16 -22 -17 -37 -11 -115 4 -52 11 -86 17 -83 5 3 6 19 3 34 -3
15 -2 31 3 34 5 3 12 -8 16 -25 3 -19 11 -29 18 -26 13 4 14 28 2 104 -5 34
-2 50 15 75 20 32 21 32 21 8 0 -14 3 -36 7 -49 4 -17 3 -22 -5 -17 -8 4 -12
0 -12 -12 0 -28 9 -32 45 -16 30 12 35 12 42 -1 31 -54 53 87 25 158 -17 44
-12 54 17 36 17 -11 24 -10 49 8 17 12 32 20 35 17 5 -6 -3 -316 -9 -323 -2
-2 -27 10 -57 27 l-54 31 -32 -20 c-17 -10 -31 -26 -31 -34 0 -8 -3 -14 -7
-14 -55 9 -73 -11 -112 -121 -28 -81 -34 -131 -14 -128 18 4 26 -37 14 -79
l-8 -28 -12 28 c-13 32 -34 31 -39 -1 -4 -29 -22 -18 -22 13 0 13 -4 26 -9 29
-4 3 -8 -30 -8 -74 0 -44 4 -77 8 -74 5 3 9 17 9 31 l0 27 20 -22 c26 -27 28
-27 40 0 7 16 9 -23 6 -122 -4 -165 -17 -221 -28 -125 -4 33 -8 65 -9 70 -1 6
1 20 5 32 7 21 5 22 -16 14 -18 -6 -23 -16 -23 -42 -1 -19 -4 -40 -9 -47 -4
-7 -10 -60 -12 -118 -4 -89 -2 -105 12 -111 20 -8 32 11 40 65 3 23 10 42 14
42 9 0 20 -35 20 -64 0 -11 7 -28 17 -38 13 -14 13 -18 2 -18 -40 -1 -155 -13
-159 -18 -3 -2 1 -7 8 -9 6 -3 10 -9 7 -13 -9 -14 -34 0 -28 16 4 11 -3 13
-35 9 l-41 -5 0 62 c1 575 -3 674 -21 663 -4 -3 -10 11 -12 31 -3 24 1 38 10
43 13 7 13 11 0 30 -21 29 -30 14 -33 -53 -2 -52 9 -177 20 -231 6 -27 5 -28
-8 -12 -8 9 -17 17 -21 17 -7 0 1 -57 10 -72 3 -4 0 -8 -6 -8 -12 0 -10 -31 4
-105 6 -28 6 -28 -5 -8 -18 34 -33 28 -25 -8 3 -17 6 -37 6 -43 0 -6 4 -4 10
4 17 27 21 3 6 -33 -15 -36 -11 -82 5 -71 5 3 9 0 9 -5 0 -6 -6 -11 -14 -11
-19 0 -19 -122 0 -159 13 -24 12 -26 -7 -31 -33 -8 -27 -21 16 -36 29 -10 64
-12 127 -8 60 5 92 3 102 -5 15 -12 46 -5 46 11 0 6 14 8 36 3 27 -5 41 -2 54
10 10 9 24 14 30 10 8 -5 3 -13 -15 -25 -23 -15 -24 -18 -9 -24 10 -4 20 -3
23 2 3 5 24 13 46 18 36 7 37 8 13 12 -29 3 -40 32 -13 32 8 0 15 -4 15 -10 0
-5 15 -10 33 -10 23 0 28 3 17 9 -8 6 -17 8 -21 5 -4 -2 -10 -1 -13 4 -3 5 20
10 52 11 31 1 57 3 58 4 1 1 -3 35 -8 75 -9 65 -8 75 7 86 10 7 16 21 14 32
-3 15 -14 20 -47 22 -43 3 -55 -11 -31 -35 6 -6 12 -47 13 -90 l1 -78 -45 -3
-45 -3 -17 60 c-10 33 -18 81 -18 106 0 49 -4 53 -32 28 -10 -9 -29 -18 -40
-20 l-22 -3 21 22 c11 13 24 33 28 46 3 12 13 22 21 22 8 0 14 8 14 17 0 14 3
13 16 -5 11 -16 25 -22 54 -22 21 0 40 5 42 11 5 16 79 14 89 -2 11 -19 24
-114 22 -176 0 -29 4 -53 9 -53 6 0 8 -9 5 -20 -5 -18 0 -20 61 -21 58 -1 62
-2 32 -9 -19 -5 -38 -6 -43 -3 -14 8 -77 -7 -77 -19 0 -7 24 -9 78 -4 42 4 85
7 94 7 10 0 20 5 24 10 4 6 11 6 19 -1 10 -8 15 -8 20 0 14 23 -15 34 -90 32
l-75 -1 0 44 c0 57 -19 178 -36 234 -13 41 -12 45 6 58 36 25 38 123 3 123
-12 0 -13 6 -7 28 5 15 8 69 8 120 0 50 4 92 8 92 4 0 8 8 9 18 2 32 17 -31
18 -75 1 -47 21 -61 21 -15 0 15 -8 69 -17 121 -14 75 -22 96 -40 108 -23 16
-30 51 -14 69 5 5 11 23 14 39 l4 30 2 -32 c0 -21 6 -33 15 -33 14 0 20 23 29
120 2 19 5 -2 5 -48 1 -57 6 -82 13 -80 8 3 12 60 12 183 l1 180 5 -170 c6
-183 21 -176 21 9 0 96 14 166 33 166 5 0 7 -19 3 -42 -9 -63 -36 -301 -36
-317 0 -10 3 -11 9 -5 6 5 15 66 22 136 14 135 29 168 21 45 -3 -49 -1 -77 7
-81 8 -5 11 31 11 128 0 74 4 137 9 140 4 3 11 -61 13 -142 6 -159 -3 -209
-41 -219 -27 -7 -35 -33 -15 -48 16 -11 17 -36 11 -273 -3 -149 -2 -262 3
-264 5 -2 12 -40 16 -85 4 -46 11 -83 15 -83 5 0 9 71 10 158 1 117 3 149 10
124 8 -26 14 -33 32 -30 17 2 23 11 25 36 2 23 -1 32 -12 32 -12 0 -15 21 -15
128 0 70 -5 154 -11 187 -14 82 -13 93 7 91 24 -2 37 75 22 134 -9 35 -9 62 0
111 15 87 14 124 -4 159 -13 26 -21 29 -67 32 -44 2 -55 7 -63 25 -12 27 -23
33 -49 23z m-506 -150 c13 -8 11 -12 -8 -30 -12 -11 -25 -32 -28 -46 -11 -43
2 -206 20 -248 14 -34 14 -37 0 -26 -45 38 -67 185 -39 261 10 24 19 56 22 72
6 29 10 32 33 17z m427 -187 c-3 -10 -5 -4 -5 12 0 17 2 24 5 18 2 -7 2 -21 0
-30z m-139 -42 c4 -26 1 -26 -38 -3 -21 13 -27 21 -19 29 17 17 53 0 57 -26z
m38 -172 c35 -13 54 -39 54 -75 0 -25 4 -34 16 -34 25 0 14 -95 -14 -123 -20
-19 -22 -19 -28 -3 -4 10 -3 21 2 25 25 17 36 41 26 54 -6 7 -13 25 -16 40
-13 75 -40 54 -31 -24 4 -33 3 -59 -2 -59 -4 0 -16 26 -27 58 -10 31 -23 63
-28 69 -14 18 -28 6 -28 -21 0 -13 -8 -42 -18 -65 -14 -31 -21 -38 -30 -29
-15 15 -16 84 -2 93 20 12 10 31 -17 30 -22 0 -29 -7 -41 -43 -12 -38 -12 -45
1 -55 22 -18 27 -44 11 -58 -8 -6 -15 -10 -17 -8 -1 2 -10 20 -20 40 l-19 37
37 75 c32 67 40 75 55 67 32 -17 60 -12 60 10 0 21 18 21 76 -1z m313 -188 c0
-74 -2 -131 -6 -127 -4 4 -8 31 -10 59 -1 29 -5 91 -9 139 -7 92 3 149 16 93
4 -16 8 -90 9 -164z m-357 -39 c-21 -7 -13 -22 13 -22 24 0 25 -2 19 -40 -7
-44 1 -49 50 -30 19 7 26 6 26 -3 -1 -17 -40 -65 -40 -48 0 8 -7 11 -20 8 -25
-6 -36 8 -45 61 -7 43 -35 61 -35 23 0 -11 -4 -23 -10 -26 -5 -3 -10 -16 -10
-28 0 -12 -9 -28 -20 -35 -15 -9 -18 -17 -11 -30 18 -33 42 -105 37 -110 -3
-2 -11 7 -17 22 -7 14 -16 26 -21 26 -4 0 -8 8 -8 18 0 9 -12 41 -25 71 -18
39 -23 57 -15 65 8 8 13 7 19 -3 11 -17 40 -7 47 16 3 10 10 25 15 33 5 8 16
31 25 50 l16 35 11 -24 c9 -19 9 -25 -1 -29z m80 -212 c17 0 18 -2 8 -15 -7
-8 -21 -15 -31 -15 -20 0 -24 16 -12 47 7 17 8 17 11 1 2 -10 12 -18 24 -18z
m-255 -82 c-3 -8 -6 -5 -6 6 -1 11 2 17 5 13 3 -3 4 -12 1 -19z m-300 -85 c-3
-10 -5 -4 -5 12 0 17 2 24 5 18 2 -7 2 -21 0 -30z m303 -134 c0 -11 -4 -17
-10 -14 -5 3 -10 13 -10 21 0 8 5 14 10 14 6 0 10 -9 10 -21z m10 -60 c0 -18
-2 -19 -15 -9 -15 12 -12 30 6 30 5 0 9 -10 9 -21z m17 -66 c-12 -12 -167 -15
-167 -3 0 6 33 10 87 10 47 0 83 -3 80 -7z"/>
<path d="M378 1503 c7 -3 16 -2 19 1 4 3 -2 6 -13 5 -11 0 -14 -3 -6 -6z"/>
<path d="M1923 1483 c-18 -2 -33 -8 -33 -14 0 -11 -37 -12 -44 0 -3 4 -47 6
-98 4 -51 -2 -110 -4 -130 -3 -34 0 -38 -2 -38 -25 0 -33 25 -42 59 -23 36 21
105 28 172 19 66 -9 149 10 149 34 0 8 -1 14 -2 13 -2 0 -18 -3 -35 -5z"/>
<path d="M1220 1351 c0 -27 11 -52 19 -46 10 6 1 65 -10 65 -5 0 -9 -9 -9 -19z"/>
<path d="M3445 1360 c-3 -5 -1 -10 4 -10 6 0 11 5 11 10 0 6 -2 10 -4 10 -3 0
-8 -4 -11 -10z"/>
<path d="M1843 1178 c1 -46 0 -89 -3 -97 -10 -27 17 -21 28 6 27 71 19 173
-13 173 -11 0 -14 -17 -12 -82z"/>
<path d="M415 1241 c-3 -6 -15 -11 -25 -11 -17 0 -89 -25 -185 -65 -16 -7 -45
-16 -63 -20 -28 -6 -61 -39 -50 -50 7 -7 97 24 179 60 110 50 127 50 144 0 8
-22 17 -59 21 -82 4 -26 12 -43 21 -45 16 -3 86 -170 97 -232 4 -19 15 -45 25
-57 10 -13 18 -37 18 -54 1 -16 16 -57 34 -89 27 -50 34 -57 40 -40 6 15 8 13
8 -11 1 -16 10 -48 20 -70 11 -22 28 -71 39 -110 11 -38 26 -90 33 -114 13
-44 54 -100 65 -89 7 8 -16 88 -33 113 -7 11 -13 29 -13 41 0 12 -6 27 -14 33
-7 6 -11 22 -9 35 3 16 -2 31 -16 45 -12 12 -21 30 -21 42 0 11 -9 37 -20 57
-11 20 -29 65 -41 100 -13 38 -25 58 -29 51 -11 -17 -27 18 -28 61 -2 41 -40
155 -86 256 -30 65 -52 127 -73 213 -9 35 -26 50 -38 32z"/>
<path d="M2320 1181 c0 -6 5 -13 10 -16 6 -3 10 1 10 9 0 9 -4 16 -10 16 -5 0
-10 -4 -10 -9z"/>
<path d="M3323 1178 c-44 -70 -183 -345 -183 -363 0 -8 -4 -15 -9 -15 -15 0
-54 -141 -55 -197 -1 -47 -4 -54 -27 -63 -29 -12 -63 -63 -66 -100 -1 -14 -25
-69 -53 -122 -54 -105 -65 -154 -30 -145 11 3 20 1 20 -3 0 -5 15 -7 33 -5 17
2 50 6 72 9 28 4 35 2 25 -4 -13 -8 -12 -10 4 -10 10 0 25 8 32 18 12 15 15
15 23 2 12 -17 26 -7 18 13 -4 10 -17 14 -44 11 -61 -5 -144 -6 -148 -2 -3 2
6 20 18 39 13 19 36 66 52 104 16 39 37 81 47 94 10 13 18 30 18 38 0 7 13 16
29 19 28 6 29 8 28 63 -1 79 12 132 40 160 13 13 26 36 30 50 3 14 28 70 54
124 27 54 48 101 47 105 -2 4 6 28 17 54 l19 46 51 -5 c39 -4 54 -2 64 10 17
22 8 33 -49 62 -56 28 -66 30 -77 13z"/>
<path d="M2440 1090 c0 -11 4 -20 8 -20 4 0 8 9 9 20 1 11 -2 20 -8 20 -5 0
-9 -9 -9 -20z"/>
<path d="M2030 1049 c0 -11 5 -17 10 -14 6 3 10 13 10 21 0 8 -4 14 -10 14 -5
0 -10 -9 -10 -21z"/>
<path d="M1993 964 c4 -16 12 -59 18 -96 7 -38 16 -68 20 -68 11 0 11 4 -4
104 -8 51 -17 81 -26 84 -11 4 -12 -2 -8 -24z"/>
<path d="M2042 950 c0 -14 2 -19 5 -12 2 6 2 18 0 25 -3 6 -5 1 -5 -13z"/>
<path d="M605 921 c-3 -5 -1 -12 5 -16 5 -3 10 1 10 9 0 18 -6 21 -15 7z"/>
<path d="M660 865 c0 -14 32 -66 37 -61 8 7 -17 66 -28 66 -5 0 -9 -2 -9 -5z"/>
<path d="M3483 807 c4 -10 -5 -14 -30 -15 -20 -1 -44 -4 -54 -7 -33 -11 -21
-23 19 -20 30 2 32 2 8 -4 -16 -3 -31 -12 -34 -19 -2 -7 2 -10 12 -6 20 8 20
0 1 -20 -20 -20 -90 -39 -115 -31 -10 3 -21 14 -23 23 -3 9 -5 3 -6 -15 -1
-29 3 -33 32 -41 31 -8 32 -10 35 -65 2 -33 -1 -57 -7 -57 -12 0 -94 -55 -109
-73 -16 -18 -25 -90 -11 -81 6 3 9 14 6 24 -6 24 39 66 81 75 17 4 32 11 32
16 0 5 5 9 10 9 6 0 10 -13 10 -29 0 -20 -6 -30 -19 -34 -21 -5 -81 -92 -81
-118 0 -9 -7 -30 -15 -45 -18 -35 -19 -54 -2 -54 16 0 37 46 37 80 0 32 54
110 75 110 24 0 18 -54 -10 -96 -25 -37 -34 -84 -16 -84 11 0 25 19 27 38 4
25 14 26 39 2 14 -13 26 -22 28 -19 15 18 37 55 37 61 0 4 -7 5 -15 2 -9 -4
-15 0 -15 10 0 10 9 16 24 16 23 0 24 -3 19 -42 l-6 -43 22 19 c11 11 23 17
25 15 10 -11 23 -79 15 -79 -5 0 -9 5 -9 10 0 6 -20 10 -45 10 -48 0 -72 -23
-44 -41 20 -12 122 -12 114 1 -3 6 3 10 14 10 15 0 21 6 21 21 0 18 -2 19 -15
9 -13 -11 -15 -7 -15 28 0 23 -5 44 -11 47 -11 7 16 45 32 45 4 0 13 -25 20
-55 7 -30 16 -52 22 -48 9 5 5 64 -8 116 -4 15 0 31 12 45 16 19 20 20 36 8
22 -17 40 -124 25 -144 -8 -9 -6 -12 6 -12 9 0 16 -4 16 -10 0 -5 7 -10 16
-10 10 0 14 -6 10 -15 -3 -10 1 -15 12 -16 9 0 31 -2 47 -3 48 -5 87 5 76 18
-6 7 -8 22 -5 34 8 27 -26 37 -90 28 -43 -7 -44 -6 -51 23 -3 16 -8 48 -10 71
-2 23 -11 52 -19 65 -14 22 -14 25 0 40 12 12 27 14 64 9 42 -6 49 -4 54 14 4
10 2 32 -4 47 -6 15 -10 39 -9 53 1 15 -3 39 -9 53 -11 27 -61 69 -81 69 -14
0 -33 -46 -33 -80 0 -23 -33 -100 -43 -100 -2 0 -20 9 -39 21 -29 17 -45 20
-86 14 -57 -8 -58 -6 -37 63 7 23 24 50 37 59 14 10 30 22 37 29 15 14 13 55
-3 72 -17 16 -37 15 -31 -1z m258 -167 c-5 -3 -8 -27 -6 -55 3 -46 2 -49 -11
-30 -9 11 -19 19 -23 18 -11 -3 -11 70 1 100 l11 28 18 -28 c10 -15 14 -30 10
-33z m-325 22 c-2 -4 -9 -61 -16 -126 -11 -112 -27 -191 -30 -141 0 11 -3 71
-7 134 -5 103 -4 115 13 128 19 14 48 18 40 5z m264 -119 c0 -7 -6 -13 -14
-13 -8 0 -25 -12 -38 -27 -13 -16 -32 -34 -42 -42 -15 -13 -15 -10 3 21 12 19
30 43 41 53 11 10 20 28 20 39 1 21 1 21 15 2 8 -11 15 -26 15 -33z m-123 -6
l32 -23 -38 -60 c-21 -32 -50 -70 -64 -82 -22 -21 -28 -22 -49 -11 -12 7 -25
13 -28 13 -3 1 -4 15 -3 31 10 121 28 155 86 155 19 0 47 -10 64 -23z m218
-297 c4 -6 -7 -10 -27 -9 -27 0 -30 2 -13 9 27 12 33 12 40 0z m-298 -36 c-3
-3 -12 -4 -19 -1 -8 3 -5 6 6 6 11 1 17 -2 13 -5z"/>
<path d="M3436 465 c-17 -17 -11 -45 9 -45 7 0 15 6 18 14 3 9 15 12 31 9 34
-7 34 14 0 27 -34 13 -40 13 -58 -5z"/>
<path d="M647 783 c-3 -5 -1 -17 4 -28 7 -17 8 -17 8 8 1 27 -4 34 -12 20z"/>
<path d="M2024 718 c7 -61 12 -76 20 -67 9 8 -7 129 -17 129 -6 0 -7 -23 -3
-62z"/>
<path d="M3560 760 c0 -5 5 -10 10 -10 6 0 10 5 10 10 0 6 -4 10 -10 10 -5 0
-10 -4 -10 -10z"/>
<path d="M2060 711 c0 -28 5 -53 10 -56 6 -4 10 15 10 49 0 31 -4 56 -10 56
-5 0 -10 -22 -10 -49z"/>
<path d="M1969 693 c-15 -39 -8 -68 16 -68 17 0 20 8 23 48 2 37 0 47 -13 47
-8 0 -20 -12 -26 -27z"/>
<path d="M1397 593 c-11 -10 -8 -43 3 -43 22 0 31 -51 15 -83 -8 -16 -15 -46
-15 -66 -1 -20 -7 -65 -15 -101 -8 -36 -14 -82 -15 -103 0 -31 3 -38 18 -35 9
2 15 5 13 8 -2 3 2 16 9 30 8 14 15 58 15 102 1 55 6 83 17 95 9 10 21 34 26
53 l10 35 1 -34 c1 -50 19 -26 22 29 3 37 0 45 -14 44 -12 -1 -17 6 -17 21 0
39 -50 72 -73 48z"/>
<path d="M1981 568 c0 -13 4 -32 9 -43 7 -15 9 -10 9 23 1 23 -3 42 -9 42 -5
0 -10 -10 -9 -22z"/>
<path d="M2031 554 c0 -11 3 -14 6 -6 3 7 2 16 -1 19 -3 4 -6 -2 -5 -13z"/>
<path d="M2160 503 c0 -27 7 -86 15 -133 8 -47 15 -110 15 -141 0 -43 5 -60
20 -74 19 -18 20 -17 20 6 0 56 -21 247 -31 277 -9 27 -8 37 5 51 9 10 16 27
16 39 0 18 -6 22 -30 22 -29 0 -30 -1 -30 -47z"/>
<path d="M1680 390 c0 -5 7 -10 15 -10 8 0 15 5 15 10 0 6 -7 10 -15 10 -8 0
-15 -4 -15 -10z"/>
<path d="M2051 384 c0 -11 3 -14 6 -6 3 7 2 16 -1 19 -3 4 -6 -2 -5 -13z"/>
<path d="M3153 348 c-26 -33 -45 -137 -22 -123 5 4 8 12 6 18 -2 7 4 34 14 61
19 51 20 66 2 44z"/>
<path d="M1720 324 c0 -8 5 -12 10 -9 6 3 10 10 10 16 0 5 -4 9 -10 9 -5 0
-10 -7 -10 -16z"/>
<path d="M3585 220 c-3 -5 3 -10 15 -10 12 0 18 5 15 10 -3 6 -10 10 -15 10
-5 0 -12 -4 -15 -10z"/>
<path d="M3315 212 c-70 -6 -100 -14 -85 -22 33 -18 118 -16 145 4 17 12 17
13 -6 17 -13 2 -37 3 -54 1z"/>
<path d="M3560 190 c-17 -5 3 -8 58 -8 49 -1 80 3 77 9 -7 11 -99 10 -135 -1z"/>
<path d="M2820 165 c-11 -13 -8 -15 20 -15 21 0 30 4 28 13 -7 18 -33 20 -48
2z"/>
<path d="M3170 169 c0 -5 5 -7 10 -4 6 3 10 8 10 11 0 2 -4 4 -10 4 -5 0 -10
-5 -10 -11z"/>
<path d="M2380 150 c0 -7 24 -20 36 -20 13 0 1 19 -16 23 -11 3 -20 2 -20 -3z"/>
<path d="M2280 140 c0 -5 9 -10 19 -10 11 0 23 5 26 10 4 6 -5 10 -19 10 -14
0 -26 -4 -26 -10z"/>
<path d="M2988 143 c7 -3 16 -2 19 1 4 3 -2 6 -13 5 -11 0 -14 -3 -6 -6z"/>
<path d="M1840 110 c0 -5 5 -10 10 -10 6 0 10 5 10 10 0 6 -4 10 -10 10 -5 0
-10 -4 -10 -10z"/>
</g>
</svg>
