<?xml version="1.0" standalone="no"?>
<!DOCTYPE svg PUBLIC "-//W3C//DTD SVG 20010904//EN"
 "http://www.w3.org/TR/2001/REC-SVG-20010904/DTD/svg10.dtd">
<svg version="1.0" xmlns="http://www.w3.org/2000/svg"
 width="257.000000pt" height="116.000000pt" viewBox="0 0 257.000000 116.000000"
 preserveAspectRatio="xMidYMid meet">
<metadata>
Created by potrace 1.16, written by Peter Selinger 2001-2019
</metadata>
<g transform="translate(0.000000,116.000000) scale(0.100000,-0.100000)"
fill="#000000" stroke="none">
<path d="M0 1149 c0 -9 168 -3 179 7 2 2 -37 4 -87 4 -58 0 -92 -4 -92 -11z"/>
<path d="M320 1150 c36 -11 102 -11 120 0 10 7 -10 9 -65 9 -55 -1 -72 -3 -55
-9z"/>
<path d="M2139 1076 c-7 -7 -193 -36 -334 -52 -66 -7 -188 -13 -272 -14 -147
0 -253 -14 -253 -33 0 -5 -10 -23 -22 -39 -20 -29 -21 -43 -25 -332 -3 -165
-5 -336 -4 -378 0 -61 -3 -78 -15 -78 -8 0 -14 -4 -14 -10 0 -5 7 -10 15 -10
11 0 15 -11 15 -38 0 -47 22 -81 41 -65 20 16 109 5 109 -14 0 -9 7 -12 18 -9
83 24 408 70 423 60 5 -3 82 4 172 15 89 11 214 23 277 26 156 9 251 23 270
40 13 11 16 32 14 97 -2 92 -11 256 -20 363 -8 99 -8 163 1 298 6 90 5 121 -4
126 -7 5 -14 17 -15 27 -3 18 -15 19 -188 22 -101 1 -186 0 -189 -2z m114 -57
c-4 -15 -8 -17 -14 -8 -8 14 -3 29 11 29 4 0 6 -9 3 -21z m104 -1 c-3 -8 -6
-5 -6 6 -1 11 2 17 5 13 3 -3 4 -12 1 -19z m-199 -48 c-1 -16 -5 -27 -10 -24
-11 7 -10 54 1 54 5 0 9 -13 9 -30z m-828 -10 c0 -5 -4 -10 -10 -10 -5 0 -10
5 -10 10 0 6 5 10 10 10 6 0 10 -4 10 -10z m151 -73 c-10 -9 -11 -8 -5 6 3 10
9 15 12 12 3 -3 0 -11 -7 -18z m246 -34 c-3 -10 -5 -4 -5 12 0 17 2 24 5 18 2
-7 2 -21 0 -30z m-372 -2 c3 -5 1 -12 -5 -16 -5 -3 -10 1 -10 9 0 18 6 21 15
7z m601 -201 c36 -67 40 -79 30 -106 -6 -17 -19 -38 -28 -47 -9 -9 -22 -33
-28 -52 -6 -19 -15 -35 -20 -35 -8 0 -54 43 -77 73 -7 9 -13 23 -13 32 0 8 -4
15 -9 15 -5 0 -18 19 -29 41 l-21 42 40 59 c21 33 39 63 39 66 0 4 7 18 16 30
l16 23 22 -33 c12 -18 40 -67 62 -108z m-609 58 c-3 -7 -5 -2 -5 12 0 14 2 19
5 13 2 -7 2 -19 0 -25z m290 -270 c-3 -7 -5 -2 -5 12 0 14 2 19 5 13 2 -7 2
-19 0 -25z m-200 -10 c-3 -8 -6 -5 -6 6 -1 11 2 17 5 13 3 -3 4 -12 1 -19z
m243 -238 c0 -5 -4 -10 -10 -10 -5 0 -10 5 -10 10 0 6 5 10 10 10 6 0 10 -4
10 -10z m-350 -70 c0 -5 -5 -10 -11 -10 -5 0 -7 5 -4 10 3 6 8 10 11 10 2 0 4
-4 4 -10z"/>
<path d="M730 946 c-80 -5 -277 -8 -438 -7 l-292 3 1 -79 c1 -48 4 -68 8 -53
6 23 26 31 26 11 0 -22 21 -22 162 -2 81 11 238 27 348 36 272 21 299 24 303
35 4 12 32 13 32 1 0 -4 23 -11 52 -14 39 -5 56 -3 68 8 16 14 18 5 26 -112 5
-71 9 -245 10 -388 l0 -260 22 2 c27 3 29 -13 3 -22 -11 -3 -100 -3 -198 0
-185 5 -244 1 -240 -19 1 -7 -23 -12 -73 -13 -80 -3 -81 11 -1 21 23 2 46 8
49 12 10 10 -406 -4 -468 -16 -28 -5 -58 -17 -67 -25 -20 -20 -36 -15 -43 14
-3 12 -4 107 -3 209 0 103 -3 194 -8 202 -5 9 -9 -88 -9 -238 l0 -252 541 2
c530 3 542 3 553 23 6 11 13 22 16 25 3 3 5 25 6 50 1 25 3 61 4 80 3 33 3 49
-1 130 -1 19 -1 164 -1 323 1 158 -3 287 -7 287 -5 0 -11 9 -14 20 -5 18 -13
19 -113 17 -60 -1 -174 -6 -254 -11z m-560 -56 c-20 -13 -73 -13 -65 0 3 6 23
10 43 10 28 0 33 -3 22 -10z m180 -812 c0 -4 -12 -8 -26 -8 -14 0 -23 4 -20 8
2 4 14 8 25 8 12 0 21 -4 21 -8z m715 -38 c3 -5 -1 -10 -10 -10 -9 0 -13 5
-10 10 3 6 8 10 10 10 2 0 7 -4 10 -10z m-462 -27 c-7 -2 -19 -2 -25 0 -7 3
-2 5 12 5 14 0 19 -2 13 -5z"/>
<path d="M394 767 c-20 -24 -27 -46 -26 -87 0 -3 3 -15 7 -27 5 -20 3 -23 -19
-23 -14 0 -42 -14 -63 -32 l-38 -33 18 28 c23 36 12 50 -13 17 -26 -34 -52
-139 -43 -171 12 -37 47 -77 79 -90 17 -6 51 -8 82 -4 69 9 68 -5 -3 -87 -30
-34 -55 -66 -55 -70 0 -8 354 -9 388 -1 27 6 29 39 2 48 -18 6 -100 95 -100
110 0 4 8 4 17 1 24 -10 119 23 149 51 23 21 26 30 22 68 -7 55 -60 130 -110
156 -28 15 -38 26 -38 44 0 14 -7 42 -16 64 -20 50 -68 71 -155 68 -54 -2 -64
-6 -85 -30z"/>
</g>
</svg>
