<?xml version="1.0" standalone="no"?>
<!DOCTYPE svg PUBLIC "-//W3C//DTD SVG 20010904//EN"
 "http://www.w3.org/TR/2001/REC-SVG-20010904/DTD/svg10.dtd">
<svg version="1.0" xmlns="http://www.w3.org/2000/svg"
 width="302.000000pt" height="306.000000pt" viewBox="0 0 302.000000 306.000000"
 preserveAspectRatio="xMidYMid meet">
<metadata>
Created by potrace 1.16, written by Peter Selinger 2001-2019
</metadata>
<g transform="translate(0.000000,306.000000) scale(0.100000,-0.100000)"
fill="#000000" stroke="none">
<path d="M40 2973 c-22 -47 -23 -102 -6 -243 28 -225 37 -453 37 -870 0 -250
-3 -489 -6 -530 -3 -41 -7 -114 -10 -162 -2 -48 -7 -98 -11 -112 -3 -15 -2
-32 4 -39 23 -28 32 -139 37 -432 3 -171 8 -335 12 -366 l6 -56 66 -12 c68
-11 496 -10 1131 5 173 4 509 8 745 9 635 4 885 14 885 36 0 5 -5 9 -11 9 -7
0 0 9 15 21 l26 21 1 326 c0 180 2 399 4 487 1 88 -1 192 -5 230 -15 131 -24
424 -12 437 11 14 21 118 11 118 -4 0 -9 93 -13 208 -10 345 -10 397 0 397 5
0 9 -11 10 -25 0 -14 1 -106 2 -205 2 -99 6 -173 10 -165 10 21 -3 679 -16
774 -6 43 -16 82 -22 86 -7 4 -8 18 -5 33 4 14 4 35 0 46 -6 21 -10 21 -249
16 -134 -2 -294 -9 -356 -15 -62 -6 -132 -8 -155 -4 -31 4 -46 2 -57 -10 -16
-15 -78 -16 -273 -1 -38 2 -236 6 -440 7 -203 1 -374 4 -378 6 -5 2 -196 6
-425 7 -230 2 -443 6 -474 9 l-57 7 -21 -48z m2308 -20 c-10 -2 -26 -2 -35 0
-10 3 -2 5 17 5 19 0 27 -2 18 -5z m-1773 -43 c28 -4 67 -11 88 -15 32 -5 37
-9 26 -21 -6 -8 -9 -17 -5 -21 3 -3 6 -1 6 6 0 7 4 10 9 6 5 -3 7 -22 5 -43
-4 -31 -3 -34 6 -19 7 10 10 33 8 50 l-3 32 695 0 c382 0 758 -4 836 -9 102
-6 146 -5 162 3 31 17 182 3 175 -15 -3 -8 -1 -14 3 -14 14 0 32 14 32 25 0 6
29 11 64 12 34 2 74 7 88 12 14 5 37 12 53 15 23 6 27 3 27 -16 0 -13 3 -62 7
-111 5 -75 3 -90 -12 -107 -16 -18 -16 -20 -2 -20 14 0 16 -9 12 -57 -5 -61
-14 -197 -15 -224 0 -9 -10 -20 -22 -24 -23 -7 -23 -8 -2 -12 20 -4 21 -10 24
-191 5 -275 3 -608 -5 -768 -6 -102 -5 -143 4 -148 6 -4 11 -33 11 -67 0 -46
-3 -59 -15 -59 -8 0 -15 -5 -15 -11 0 -6 -8 -8 -19 -4 -11 3 -22 1 -26 -5 -4
-6 7 -10 29 -10 20 0 36 5 36 11 0 5 5 7 11 3 6 -3 8 -16 5 -28 -3 -12 -6
-163 -6 -336 0 -173 -3 -341 -7 -373 l-6 -57 -246 0 c-135 0 -294 -2 -352 -6
-76 -4 -108 -3 -114 5 -4 8 -11 9 -18 3 -7 -5 -70 -12 -142 -16 -71 -4 -158
-9 -192 -13 -61 -6 -62 -5 -56 17 4 17 2 21 -8 18 -8 -3 -14 -13 -14 -24 0
-18 -9 -19 -123 -20 l-123 0 -20 40 c-10 22 -19 50 -19 63 0 36 -37 31 -45 -7
-9 -41 4 -59 21 -29 13 23 13 23 14 3 0 -12 -7 -27 -15 -34 -17 -14 -21 -35
-5 -25 5 3 10 2 10 -3 0 -21 -179 -29 -198 -10 -10 10 -15 10 -22 -1 -4 -8
-20 -15 -35 -16 -24 -1 -26 2 -23 32 3 37 -8 54 -19 27 -4 -10 -13 -24 -21
-30 -8 -6 -12 -16 -9 -22 8 -11 -63 -24 -128 -22 -22 1 -112 -2 -199 -6 -146
-7 -159 -6 -153 9 4 11 1 17 -8 17 -8 0 -15 -6 -15 -14 0 -11 -36 -14 -187
-15 -102 -1 -189 -4 -193 -6 -6 -4 -12 159 -11 300 2 247 8 433 15 444 5 8 4
16 -1 20 -6 3 -12 18 -15 34 -5 24 -3 27 15 21 14 -4 18 -2 15 7 -3 8 -13 13
-22 13 -12 -1 -16 7 -16 36 0 22 5 40 13 43 9 3 9 8 -2 21 -11 13 -15 54 -17
167 -1 129 0 151 15 159 13 8 13 9 1 10 -23 0 -24 70 -1 70 9 0 22 -5 29 -12
17 -17 15 3 -3 29 -9 12 -22 20 -29 17 -8 -3 -16 4 -20 18 -11 43 -6 69 18 93
19 19 22 26 11 32 -18 10 -6 170 14 182 9 6 10 11 2 15 -14 9 -15 113 -1 121
14 9 12 43 -2 47 -9 3 -8 11 4 30 15 22 15 27 3 32 -19 7 -20 77 -3 94 9 9 10
15 2 20 -7 4 -13 64 -16 160 -4 123 -2 152 9 152 7 0 13 5 13 10 0 6 -7 10
-15 10 -10 0 -15 11 -15 35 0 24 5 35 15 35 8 0 15 5 15 10 0 6 -6 10 -14 10
-19 0 -33 85 -17 104 9 10 8 15 -4 20 -8 3 -15 12 -15 20 0 8 -5 16 -11 18 -7
2 -9 15 -5 34 l7 31 192 -4 c106 -2 215 -8 242 -13z m2342 -762 c-3 -8 -6 -5
-6 6 -1 11 2 17 5 13 3 -3 4 -12 1 -19z m-1487 -1878 c0 -5 -4 -10 -10 -10 -5
0 -10 5 -10 10 0 6 5 10 10 10 6 0 10 -4 10 -10z m867 -86 c-3 -3 -12 -4 -19
-1 -8 3 -5 6 6 6 11 1 17 -2 13 -5z"/>
<path d="M354 2856 c-8 -22 3 -33 18 -18 9 9 9 15 0 24 -9 9 -13 7 -18 -6z"/>
<path d="M626 2855 c-11 -8 -15 -15 -9 -15 6 0 16 7 23 15 16 19 11 19 -14 0z"/>
<path d="M1650 2855 c0 -8 2 -15 4 -15 2 0 11 -3 20 -6 12 -4 16 0 16 15 0 14
-6 21 -20 21 -11 0 -20 -7 -20 -15z"/>
<path d="M468 2828 c-4 -70 3 -103 27 -127 24 -24 25 -24 45 -6 11 10 18 21
15 24 -4 3 -10 -1 -15 -9 -7 -12 -12 -11 -29 4 -12 11 -21 27 -21 37 0 9 -5
19 -11 21 -7 2 -7 12 0 31 14 35 14 57 1 57 -5 0 -11 -15 -12 -32z"/>
<path d="M518 2853 c7 -3 16 -2 19 1 4 3 -2 6 -13 5 -11 0 -14 -3 -6 -6z"/>
<path d="M834 2824 c-4 -17 -2 -29 7 -35 21 -13 33 -11 20 5 -6 7 -9 20 -5 29
3 8 1 18 -5 21 -6 4 -13 -5 -17 -20z"/>
<path d="M1253 2835 c-3 -9 -3 -19 1 -22 7 -7 36 16 36 28 0 15 -30 10 -37 -6z"/>
<path d="M1380 2824 c-16 -41 -12 -62 13 -67 l22 -4 -22 -8 c-13 -4 -23 -11
-23 -16 0 -12 17 -11 25 1 4 6 11 8 16 5 13 -9 11 9 -6 41 -9 17 -11 30 -5 32
13 5 13 42 0 42 -6 0 -15 -12 -20 -26z"/>
<path d="M1923 2835 c-7 -8 -13 -22 -13 -31 0 -16 2 -16 20 1 20 18 27 45 13
45 -5 -1 -14 -7 -20 -15z"/>
<path d="M190 2825 c0 -8 5 -15 10 -15 6 0 10 7 10 15 0 8 -4 15 -10 15 -5 0
-10 -7 -10 -15z"/>
<path d="M540 2815 c-20 -21 -21 -25 -6 -25 9 0 19 7 22 15 4 8 12 15 20 15 8
0 14 5 14 10 0 18 -26 10 -50 -15z"/>
<path d="M1837 2833 c-13 -13 -7 -21 13 -16 11 3 20 9 20 14 0 10 -24 12 -33
2z"/>
<path d="M2090 2810 c-12 -17 -19 -34 -16 -37 3 -4 7 -4 9 -2 1 2 12 16 25 30
14 16 19 29 14 33 -6 3 -20 -8 -32 -24z"/>
<path d="M2740 2830 c0 -5 7 -10 15 -10 8 0 15 5 15 10 0 6 -7 10 -15 10 -8 0
-15 -4 -15 -10z"/>
<path d="M1021 2810 c0 -14 4 -32 9 -40 8 -12 10 -12 9 5 0 11 -4 29 -9 40 -8
18 -9 18 -9 -5z"/>
<path d="M1506 2823 c-9 -10 -7 -43 3 -43 11 0 21 39 11 45 -4 2 -10 2 -14 -2z"/>
<path d="M320 2806 c0 -8 5 -18 10 -21 6 -3 10 3 10 14 0 12 -4 21 -10 21 -5
0 -10 -6 -10 -14z"/>
<path d="M613 2804 c-6 -17 15 -64 29 -64 5 0 6 5 2 12 -5 7 -7 25 -6 40 2 30
-15 38 -25 12z"/>
<path d="M2355 2810 c-3 -5 3 -10 14 -10 12 0 21 5 21 10 0 6 -6 10 -14 10 -8
0 -18 -4 -21 -10z"/>
<path d="M2500 2804 c0 -8 5 -12 10 -9 6 3 10 10 10 16 0 5 -4 9 -10 9 -5 0
-10 -7 -10 -16z"/>
<path d="M925 2800 c3 -5 8 -10 11 -10 2 0 4 5 4 10 0 6 -5 10 -11 10 -5 0 -7
-4 -4 -10z"/>
<path d="M1647 2788 c-7 -24 12 -66 22 -51 3 6 14 9 24 7 9 -1 17 4 17 12 0 8
7 14 15 14 8 0 15 5 15 10 0 6 -16 8 -42 4 -41 -6 -42 -5 -23 10 20 15 20 15
-1 16 -14 0 -24 -8 -27 -22z"/>
<path d="M2716 2801 c-4 -7 -5 -15 -2 -18 9 -9 19 4 14 18 -4 11 -6 11 -12 0z"/>
<path d="M2818 2803 c7 -3 16 -2 19 1 4 3 -2 6 -13 5 -11 0 -14 -3 -6 -6z"/>
<path d="M1310 2779 c0 -11 5 -17 10 -14 6 3 10 13 10 21 0 8 -4 14 -10 14 -5
0 -10 -9 -10 -21z"/>
<path d="M895 2780 c-19 -8 -19 -9 3 -9 12 -1 22 4 22 9 0 6 -1 10 -2 9 -2 0
-12 -4 -23 -9z"/>
<path d="M1100 2775 c-18 -21 -3 -32 16 -13 10 9 12 18 6 22 -5 3 -15 -1 -22
-9z"/>
<path d="M2006 2775 c-11 -8 -16 -18 -11 -22 4 -5 10 -2 12 5 3 6 13 12 24 12
10 0 19 5 19 10 0 14 -22 12 -44 -5z"/>
<path d="M230 2770 c0 -5 5 -10 10 -10 6 0 10 5 10 10 0 6 -4 10 -10 10 -5 0
-10 -4 -10 -10z"/>
<path d="M2280 2760 c-6 -11 -7 -20 -2 -20 10 0 32 21 32 32 0 16 -19 8 -30
-12z"/>
<path d="M677 2753 c-13 -13 -7 -35 8 -29 10 4 18 -6 26 -35 13 -43 39 -74 39
-46 0 9 -6 22 -14 30 -8 8 -12 24 -9 40 4 20 1 27 -11 27 -9 0 -16 5 -16 10 0
11 -13 13 -23 3z"/>
<path d="M1527 2740 c3 -11 11 -19 17 -17 17 6 13 31 -6 35 -12 2 -15 -2 -11
-18z"/>
<path d="M1467 2743 c-11 -10 -8 -20 8 -27 10 -4 15 1 15 14 0 20 -11 26 -23
13z"/>
<path d="M1831 2724 c-17 -20 -20 -28 -10 -34 21 -14 39 1 39 31 0 16 -1 29
-3 29 -2 0 -14 -12 -26 -26z"/>
<path d="M2695 2740 c-3 -5 3 -10 15 -10 12 0 18 5 15 10 -3 6 -10 10 -15 10
-5 0 -12 -4 -15 -10z"/>
<path d="M1045 2727 c-17 -13 -17 -14 6 -22 20 -6 21 -8 7 -12 -22 -6 -23 -26
-3 -43 18 -15 19 -42 3 -58 -6 -6 -9 -14 -6 -17 7 -8 58 42 58 57 0 5 -7 7
-16 4 -13 -5 -15 2 -14 37 3 74 0 79 -35 54z"/>
<path d="M1246 2726 c21 -15 30 -14 19 3 -3 6 -14 11 -23 11 -13 0 -13 -2 4
-14z"/>
<path d="M2166 2725 c-3 -8 -1 -15 3 -15 5 0 11 7 15 15 3 8 1 15 -3 15 -5 0
-11 -7 -15 -15z"/>
<path d="M820 2720 c-12 -7 -12 -12 -3 -21 15 -15 26 -7 21 15 -2 11 -7 13
-18 6z"/>
<path d="M1615 2720 c-3 -5 -1 -10 4 -10 22 0 10 -25 -30 -66 -26 -27 -47 -40
-57 -37 -8 4 -21 -1 -27 -11 -7 -9 -16 -13 -19 -8 -6 11 30 72 44 72 5 0 9 11
8 25 -2 16 -8 25 -19 25 -19 0 -35 -30 -16 -30 7 -1 0 -11 -14 -23 -25 -21
-47 -86 -33 -100 3 -3 17 1 31 10 19 13 26 14 33 4 4 -7 19 -14 34 -14 26 -2
38 -17 14 -17 -7 0 -19 -4 -27 -9 -12 -8 -13 -12 -1 -25 11 -14 10 -16 -6 -10
-16 5 -16 4 -4 -5 22 -16 29 -14 42 15 l12 25 16 -21 16 -22 18 26 c15 23 15
27 1 32 -8 3 -12 10 -9 16 4 5 -4 8 -17 6 -18 -2 -24 2 -24 17 0 11 6 19 13
18 6 -2 12 2 12 7 0 6 -6 10 -12 10 -7 1 -1 8 15 16 15 8 27 20 27 27 0 7 9
18 20 25 11 7 20 17 20 23 0 6 -9 9 -20 6 -11 -3 -20 -1 -20 4 0 12 -17 11
-25 -1z"/>
<path d="M2027 2712 c-25 -27 -21 -35 8 -16 25 16 33 34 17 34 -5 0 -16 -8
-25 -18z"/>
<path d="M1740 2710 c-12 -7 -12 -12 -3 -21 10 -10 14 -9 19 5 8 22 2 27 -16
16z"/>
<path d="M1880 2710 c0 -6 7 -10 15 -10 8 0 15 2 15 4 0 2 -7 6 -15 10 -8 3
-15 1 -15 -4z"/>
<path d="M2670 2701 c-13 -26 -13 -31 5 -31 9 0 15 9 15 25 0 30 -6 32 -20 6z"/>
<path d="M2730 2710 c0 -5 9 -10 21 -10 11 0 17 5 14 10 -3 6 -13 10 -21 10
-8 0 -14 -4 -14 -10z"/>
<path d="M903 2703 c-9 -3 -9 -10 3 -28 16 -24 7 -39 -18 -30 -8 3 -23 -7 -36
-25 -22 -30 -18 -42 6 -18 10 10 14 10 20 1 6 -9 12 -7 22 7 14 20 37 29 25
10 -3 -5 -2 -10 3 -10 10 0 22 23 22 41 0 5 -7 9 -16 9 -9 0 -14 6 -11 13 7
18 -5 35 -20 30z"/>
<path d="M1356 2701 c-4 -7 -5 -15 -2 -18 9 -9 19 4 14 18 -4 11 -6 11 -12 0z"/>
<path d="M2450 2690 c0 -23 10 -26 28 -8 18 18 15 28 -8 28 -13 0 -20 -7 -20
-20z"/>
<path d="M356 2692 c6 -4 17 -18 23 -31 9 -17 16 -20 24 -12 13 13 -18 51 -42
51 -10 0 -12 -3 -5 -8z"/>
<path d="M992 2683 c-17 -30 -15 -37 4 -19 8 9 14 22 11 29 -2 7 -8 4 -15 -10z"/>
<path d="M1273 2693 c-14 -5 -18 -43 -5 -43 5 0 15 -11 22 -25 18 -34 30 -31
30 6 0 17 4 28 10 24 15 -9 12 11 -2 22 -19 14 -41 21 -55 16z"/>
<path d="M1465 2690 c-3 -5 -1 -10 4 -10 6 0 11 5 11 10 0 6 -2 10 -4 10 -3 0
-8 -4 -11 -10z"/>
<path d="M2302 2688 c-18 -18 -15 -27 8 -21 11 3 20 12 20 19 0 17 -12 18 -28
2z"/>
<path d="M1195 2649 c-4 -22 -13 -43 -20 -46 -8 -2 -11 -12 -8 -21 5 -14 3
-15 -7 -5 -11 10 -11 15 0 28 7 8 8 15 2 15 -19 0 -34 -30 -28 -55 8 -31 -9
-34 -18 -2 -6 22 -7 21 -36 -11 -22 -24 -29 -39 -24 -56 4 -16 1 -25 -10 -29
-9 -4 -16 -13 -16 -22 0 -13 -3 -13 -20 -3 -26 17 -41 1 -47 -49 l-3 -38 15
30 c20 37 35 53 35 38 0 -7 -4 -15 -10 -18 -15 -9 -12 -22 6 -22 9 0 21 13 26
29 6 15 14 26 18 23 14 -9 -14 -55 -37 -61 -13 -4 -20 -11 -16 -20 7 -19 15
-18 40 5 16 15 23 17 33 8 10 -9 11 -9 5 3 -6 12 -5 12 5 3 18 -16 5 -43 -17
-37 -14 4 -25 -6 -41 -35 -13 -23 -20 -41 -16 -41 4 0 -1 -6 -11 -14 -19 -14
-19 -15 9 -42 l28 -28 -26 -9 c-14 -5 -26 -13 -26 -18 0 -6 -4 -8 -9 -4 -5 3
-12 1 -15 -4 -3 -5 -15 -7 -26 -4 -12 3 -20 0 -20 -7 0 -7 -8 -9 -20 -5 -12 4
-27 1 -35 -5 -21 -17 -20 6 0 26 17 17 20 34 6 34 -5 0 -12 -8 -14 -17 -4 -17
-5 -17 -6 0 -1 18 -21 25 -21 7 0 -19 -17 -10 -29 17 -8 18 -9 29 -1 37 13 13
13 36 -1 36 -6 0 -13 -9 -16 -20 -3 -11 -10 -17 -15 -14 -5 3 -7 13 -4 21 3 8
-2 25 -11 39 -15 24 -15 25 5 31 26 6 28 18 6 27 -26 10 -36 7 -30 -10 4 -11
1 -14 -12 -10 -11 4 -22 -1 -29 -14 -13 -20 -2 -37 17 -25 21 13 40 -17 40
-61 0 -37 3 -44 20 -44 15 0 20 -7 20 -25 0 -25 18 -30 32 -10 5 6 8 3 8 -7 0
-9 -5 -20 -11 -24 -6 -3 -8 -17 -5 -29 7 -28 -2 -36 -33 -28 -18 5 -21 11 -16
30 4 16 0 30 -11 41 -16 16 -17 15 -10 -12 6 -23 4 -27 -8 -23 -20 8 -20 -2
-1 -27 8 -11 15 -25 15 -30 0 -6 -9 0 -20 14 l-19 25 -10 -28 c-15 -39 -14
-54 1 -39 19 19 30 14 18 -9 -10 -18 -9 -20 12 -17 13 2 29 9 36 16 17 16 37
15 51 -2 9 -11 7 -15 -9 -19 -12 -3 -20 -13 -20 -25 0 -28 -20 -39 -35 -19
-11 16 -35 24 -35 12 0 -12 33 -55 41 -55 6 0 23 -13 39 -30 16 -16 33 -30 37
-30 9 -1 47 -50 38 -50 -3 0 -17 7 -30 16 -27 18 -47 11 -38 -13 4 -11 2 -14
-8 -11 -8 3 -13 14 -11 26 2 15 -2 22 -13 22 -13 0 -14 4 -4 21 12 23 -3 51
-15 30 -10 -16 -26 -13 -26 4 0 8 -4 15 -10 15 -5 0 -10 7 -10 16 0 8 -4 13
-9 10 -4 -3 -13 6 -19 19 -7 16 -8 26 -1 30 5 4 6 11 3 17 -4 6 -10 5 -15 -3
-6 -10 -9 -3 -9 19 0 23 4 31 12 26 8 -5 9 -2 5 9 -3 9 -2 19 3 22 15 9 12 25
-5 25 -8 0 -15 5 -15 10 0 6 -11 10 -25 10 -14 0 -25 -4 -25 -10 0 -18 -25
-10 -39 12 -12 19 -11 23 3 33 9 7 16 17 16 23 0 5 7 12 15 16 23 9 18 28 -7
24 -19 -2 -22 1 -20 22 l4 25 -25 -23 c-21 -20 -24 -30 -20 -62 3 -22 2 -47
-3 -57 -6 -14 -9 -7 -13 27 -5 36 -10 45 -31 51 l-25 7 23 7 c12 4 22 11 22
14 0 17 -13 18 -38 5 -16 -8 -28 -10 -30 -4 -2 6 -11 10 -19 10 -11 0 -14 -6
-9 -22 3 -13 6 -26 6 -30 0 -5 7 -8 15 -8 8 0 15 -6 15 -14 0 -9 -7 -12 -19
-9 -16 4 -30 36 -35 85 -3 20 -17 17 -27 -6 -14 -29 -24 -33 -33 -11 -3 8 -12
15 -21 15 -19 0 -19 -36 0 -70 l14 -25 1 29 0 30 20 -22 c11 -12 20 -26 20
-32 0 -6 6 -19 12 -30 11 -17 9 -23 -8 -41 -18 -18 -25 -19 -44 -9 -28 15 -50
6 -50 -21 0 -18 2 -19 15 -9 9 7 18 10 21 7 9 -9 -19 -67 -32 -67 -7 0 -15 -7
-18 -16 -3 -8 -2 -12 4 -9 6 3 10 1 10 -4 0 -6 9 -11 21 -11 16 0 19 4 14 20
-3 11 0 29 8 40 14 20 14 20 38 1 17 -14 29 -17 41 -10 23 12 24 33 2 25 -19
-7 -44 10 -44 30 0 8 7 14 15 14 8 0 15 -7 15 -16 0 -8 5 -12 11 -9 6 4 10 21
9 39 -3 46 -1 49 16 32 17 -18 44 -21 44 -6 0 6 -7 13 -15 16 -8 4 -15 11 -15
16 0 15 53 -1 63 -18 5 -9 16 -12 26 -9 21 6 37 -9 47 -49 5 -20 9 -24 15 -14
5 7 19 13 33 13 22 1 24 -2 18 -35 -3 -19 -9 -37 -14 -38 -4 -2 -13 -13 -19
-24 -9 -17 -8 -19 9 -14 15 5 21 1 26 -16 10 -39 7 -46 -25 -53 -35 -8 -47
-30 -31 -56 7 -10 12 -26 12 -34 0 -8 4 -15 9 -15 16 0 29 25 26 51 -2 14 1
32 6 40 7 11 9 11 9 1 0 -7 4 -11 8 -8 5 3 15 -6 22 -19 9 -17 19 -23 31 -20
21 7 33 -10 23 -33 -17 -40 -11 -55 14 -30 14 14 27 4 19 -15 -6 -15 -73 -30
-89 -21 -5 3 -7 13 -4 21 8 19 -18 45 -37 37 -24 -9 -29 -35 -11 -49 14 -9 14
-14 4 -20 -17 -11 -40 21 -40 55 0 19 -6 26 -20 27 -11 1 -20 -4 -20 -13 0 -8
-7 -14 -15 -14 -16 0 -17 -11 -5 -50 7 -23 8 -23 9 -3 1 27 41 28 41 1 0 -10
-6 -17 -12 -15 -7 1 -14 -9 -16 -22 -2 -15 0 -21 7 -17 13 9 14 -4 2 -23 -10
-16 -31 -6 -31 14 0 19 -23 25 -43 10 -18 -13 -25 -61 -7 -50 18 11 11 -17 -7
-31 -17 -13 -17 -13 0 -14 18 0 25 -20 7 -20 -5 0 -10 -7 -10 -15 0 -8 -6 -24
-12 -35 -11 -17 -10 -22 1 -29 9 -6 10 -14 3 -27 -14 -29 -23 -86 -12 -79 6 3
10 -1 10 -11 0 -13 3 -14 15 -4 17 14 37 4 34 -18 -3 -36 1 -44 21 -39 26 7
32 -4 14 -27 -12 -17 -14 -17 -20 -3 -3 10 -17 17 -30 17 -21 0 -24 -5 -24
-35 0 -37 8 -43 28 -23 17 17 61 -37 62 -75 0 -57 -41 -91 -55 -46 -10 30 -44
61 -61 55 -16 -6 -20 -56 -4 -56 6 0 10 5 10 10 0 6 5 10 11 10 6 0 9 -7 5
-15 -3 -9 0 -15 9 -15 8 0 15 -4 15 -10 0 -5 7 -10 15 -10 8 0 14 -3 14 -8 -3
-20 2 -59 10 -71 8 -12 12 -12 25 -2 21 18 53 5 52 -21 -1 -11 5 -23 12 -25 9
-4 11 2 7 20 -8 30 2 67 17 67 6 0 8 -11 4 -27 l-6 -28 25 30 c14 17 25 26 25
20 0 -5 5 -3 10 5 6 9 10 10 10 3 0 -6 -4 -15 -10 -18 -6 -3 -10 -14 -10 -23
1 -14 4 -13 20 7 16 18 20 20 20 7 0 -13 4 -15 19 -6 26 13 31 13 31 -4 0 -14
67 -32 78 -21 4 4 7 27 8 52 2 41 14 62 36 63 4 0 11 -12 14 -27 4 -16 15 -36
26 -47 11 -10 17 -25 14 -33 -5 -11 -1 -13 16 -7 17 5 20 3 15 -10 -4 -9 -2
-16 3 -16 6 0 10 -4 10 -9 0 -5 -14 -3 -30 5 -17 9 -30 19 -30 24 0 4 -9 10
-20 13 -15 4 -20 14 -20 36 0 21 -5 31 -15 31 -19 0 -19 -4 0 -39 13 -26 13
-30 -5 -46 -24 -21 -26 -40 -5 -31 8 3 22 9 30 12 11 5 13 2 9 -10 -7 -18 6
-22 21 -7 13 13 60 -22 51 -38 -4 -6 -18 -11 -31 -11 -16 0 -25 -7 -29 -26 -9
-33 -3 -39 23 -24 19 9 21 8 21 -14 0 -23 -24 -46 -48 -46 -5 0 -13 16 -16 35
-8 39 -9 40 -37 25 -11 -7 -19 -7 -19 -1 0 5 -3 16 -6 25 -4 12 0 14 20 10 19
-3 26 0 26 12 0 10 5 14 15 11 8 -4 17 -2 20 4 4 5 -1 12 -10 15 -15 6 -94
-38 -96 -54 -4 -35 -7 -50 -14 -71 l-7 -24 -19 24 c-16 21 -20 22 -32 9 -8 -8
-18 -25 -22 -37 -5 -19 -2 -23 14 -23 12 0 21 6 21 14 0 10 13 13 49 11 41 -2
50 1 54 16 7 27 36 23 43 -5 4 -18 11 -23 22 -19 14 5 14 2 -3 -16 -27 -31 -2
-47 34 -22 15 10 44 25 66 33 32 13 36 18 22 23 -19 8 -77 -12 -77 -26 0 -5
-5 -9 -10 -9 -17 0 -7 23 22 52 18 18 34 26 45 22 14 -4 13 -1 -4 14 -25 22
-30 42 -11 42 6 0 9 3 5 6 -3 3 2 15 12 25 18 19 51 17 51 -3 0 -6 -7 -7 -16
-4 -14 5 -15 4 -4 -9 7 -8 19 -15 27 -15 12 0 13 -3 3 -15 -10 -12 -7 -15 15
-21 19 -5 23 -9 14 -15 -10 -6 -10 -13 -1 -33 9 -19 8 -24 -1 -20 -13 5 -57
-71 -57 -98 0 -11 -8 -18 -19 -18 -26 0 -47 -56 -24 -64 21 -9 23 -8 17 9 -4
9 -1 15 8 15 7 0 19 9 26 20 14 23 37 26 46 8 5 -11 7 -11 12 0 7 15 34 16 34
1 0 -5 5 -7 10 -4 6 4 8 10 6 14 -3 4 0 13 5 21 8 13 11 12 20 -2 5 -10 17
-18 24 -18 8 0 15 -7 15 -15 0 -10 10 -15 26 -15 25 0 26 1 11 22 -9 14 -24
22 -36 21 -28 -4 -27 15 2 26 13 5 32 17 41 26 16 17 19 16 48 -11 l31 -29 -7
27 c-5 22 -3 25 14 21 11 -3 20 -12 20 -20 0 -9 6 -13 15 -9 8 3 15 1 15 -3 0
-11 -25 -21 -49 -21 -22 0 -46 -47 -28 -53 9 -3 9 -8 -2 -20 -20 -24 4 -22 29
3 16 16 17 20 5 20 -8 0 -15 7 -15 16 0 9 6 14 12 12 7 -3 19 2 27 9 7 8 20
12 28 9 23 -9 36 5 17 18 -13 10 -15 17 -6 32 7 11 12 13 12 6 0 -7 5 -10 10
-7 6 3 18 -1 27 -10 14 -14 14 -18 2 -26 -10 -6 -7 -9 14 -9 15 0 27 5 27 11
0 6 7 9 15 6 8 -4 17 -2 20 3 8 13 64 -12 58 -27 -3 -7 -1 -13 5 -13 11 0 22
23 22 47 0 9 -6 13 -14 10 -7 -3 -18 -1 -24 5 -7 7 -17 6 -31 -1 -17 -10 -21
-9 -21 3 0 8 8 17 18 20 9 3 23 16 31 28 12 20 11 24 -13 44 -25 23 -36 41
-16 29 6 -4 19 4 30 17 l19 23 -6 -23 c-5 -21 -3 -22 23 -16 l29 7 -25 -21
c-23 -20 -24 -21 -5 -22 19 -1 19 -1 2 -11 -25 -14 -11 -32 15 -18 32 17 39
-2 18 -49 -17 -37 -17 -42 -3 -42 14 0 14 -2 -1 -19 -15 -17 -15 -19 -1 -25 9
-3 13 -10 10 -16 -3 -5 -1 -10 4 -10 6 0 11 7 11 15 0 8 6 15 13 16 6 0 29 2
50 5 28 4 37 1 37 -11 0 -8 5 -15 11 -15 6 0 9 10 7 23 -2 17 -11 23 -37 25
-18 2 -38 -1 -44 -7 -15 -15 -28 -14 -25 2 6 26 128 92 128 68 0 -6 -6 -11
-14 -11 -8 0 -17 -7 -20 -16 -9 -22 -8 -24 9 -24 8 0 15 -4 15 -10 0 -5 4 -10
10 -10 5 0 9 10 7 22 -1 16 5 23 29 30 18 4 35 16 38 25 4 10 4 14 0 10 -4 -4
-18 2 -30 14 -20 19 -26 20 -58 9 -20 -6 -36 -16 -36 -21 0 -5 -5 -9 -12 -9
-7 0 -23 -11 -37 -25 l-26 -24 -2 52 c-1 33 -7 55 -17 63 -20 14 -21 54 -2 54
8 0 13 -8 12 -17 -1 -16 8 -18 64 -16 36 1 65 3 65 3 0 1 17 2 38 4 38 3 53
-16 22 -28 -17 -6 -19 -15 -5 -36 8 -12 14 -11 40 9 37 27 51 22 21 -8 -25
-25 -28 -53 -6 -45 8 4 15 10 15 15 0 5 7 9 15 9 13 0 15 7 9 36 -6 34 -5 36
16 29 16 -5 21 -4 18 6 -3 8 -12 13 -21 11 -8 -1 -18 2 -22 8 -3 5 2 10 12 10
10 0 31 11 47 25 16 14 35 25 41 25 17 0 71 51 68 65 -2 7 10 9 32 7 19 -2 35
0 35 5 0 18 -12 22 -36 13 -15 -6 -24 -6 -24 1 0 5 7 12 15 15 22 9 18 21 -7
28 -23 6 -22 6 6 21 37 20 47 19 39 -2 -5 -16 -4 -16 10 -3 9 8 18 26 19 40 3
24 2 25 -59 24 -35 -1 -63 2 -63 7 0 15 -32 10 -52 -8 -10 -9 -26 -18 -36 -19
-9 -1 -27 -5 -39 -9 -18 -6 -21 -4 -17 12 4 13 14 19 32 18 15 0 26 5 25 11
-1 7 8 9 23 6 20 -3 26 0 31 17 6 25 50 29 59 6 8 -19 82 -20 107 -1 23 18 22
35 -3 29 -11 -3 -20 -9 -20 -14 0 -15 -28 -10 -34 6 -4 11 -13 14 -31 9 -14
-3 -25 -2 -25 3 0 22 32 73 46 73 12 0 12 -4 -2 -25 -19 -29 -11 -44 14 -29
10 7 26 8 39 3 28 -10 38 4 23 32 -15 26 -14 27 37 21 43 -4 51 -22 10 -22
-18 0 -22 -6 -23 -35 0 -21 3 -30 7 -23 4 7 11 9 15 5 4 -3 2 -13 -5 -21 -9
-11 -7 -13 14 -14 17 0 24 5 21 13 -3 8 6 25 19 40 32 33 30 75 -2 75 -13 0
-23 5 -23 10 0 6 17 10 39 10 34 0 40 4 51 31 20 46 0 59 -40 25 -34 -28 -51
-32 -78 -15 -23 14 -97 -5 -106 -27 -4 -11 -14 -13 -43 -8 -47 8 -46 6 -33 39
10 25 12 26 23 11 19 -26 109 -11 121 20 7 19 26 18 26 -2 0 -10 4 -12 13 -7
6 4 25 8 42 9 16 1 31 6 33 12 1 5 14 23 27 38 16 18 20 31 13 35 -6 4 -8 13
-6 20 5 14 -33 39 -58 39 -8 0 -14 -7 -14 -15 0 -8 7 -15 15 -15 9 0 12 -6 9
-15 -4 -10 -10 -12 -18 -7 -6 6 -24 4 -44 -5 -26 -10 -32 -18 -27 -32 8 -28
-12 -35 -26 -10 -12 22 -10 25 34 50 23 13 21 28 -5 39 -13 5 -18 9 -13 10 36
5 48 11 66 31 15 18 17 25 7 37 -10 11 -9 17 6 27 25 19 12 37 -19 25 -25 -10
-31 -4 -17 16 10 15 42 25 42 14 0 -6 7 -10 16 -10 8 0 12 -4 9 -10 -3 -5 -2
-10 2 -10 14 0 31 36 23 49 -5 9 -18 11 -40 6 -30 -7 -32 -5 -27 14 6 24 -10
38 -26 22 -8 -8 -8 -11 1 -11 7 0 12 -4 12 -9 0 -5 -9 -7 -20 -4 -20 5 -63
-23 -68 -46 -1 -7 3 -19 9 -27 6 -8 8 -14 3 -15 -5 -1 2 -4 16 -9 l25 -7 -29
-12 c-31 -13 -90 -5 -80 10 3 5 14 9 25 9 10 0 19 5 19 10 0 6 -7 10 -15 10
-8 0 -15 9 -15 20 0 25 -15 25 -47 0 -36 -28 -41 -17 -9 20 14 17 26 41 26 53
1 22 1 22 20 -2 17 -19 26 -22 56 -17 35 7 44 32 10 30 -10 -1 -16 6 -16 19 0
19 -1 20 -20 2 -14 -12 -20 -14 -20 -5 0 7 -7 18 -16 24 -13 10 -13 14 7 36
13 15 23 20 26 14 2 -7 13 -9 24 -7 15 4 19 11 15 27 -3 11 -6 26 -6 32 0 6
-14 11 -31 11 -18 0 -37 7 -44 16 -10 14 -15 14 -30 3 -13 -10 -24 -10 -41 -2
-25 12 -32 26 -13 26 8 0 8 5 -1 15 -11 13 -8 15 19 15 19 0 31 -5 31 -13 0
-7 9 -13 20 -13 11 0 20 6 20 13 0 7 5 13 10 13 6 0 10 -8 10 -19 0 -24 26
-47 33 -29 2 7 0 21 -5 31 -5 10 -8 30 -6 45 2 21 8 27 27 27 13 0 26 6 29 14
3 9 0 12 -10 8 -9 -3 -20 -1 -25 4 -14 14 -43 0 -43 -22 0 -22 -8 -23 -32 -5
-20 15 -25 31 -7 20 9 -5 10 1 5 21 -6 22 -4 26 7 22 8 -3 20 0 26 6 8 8 11 7
11 -4 0 -12 2 -12 10 1 7 11 5 18 -6 27 -10 8 -12 13 -4 18 8 5 5 11 -7 21
-13 9 -14 13 -4 14 11 0 11 3 1 15 -10 12 -10 15 2 15 8 0 20 -6 27 -12 11
-11 13 -10 7 5 -3 10 -6 21 -6 23 0 9 -69 3 -75 -6 -9 -15 -35 -12 -35 4 0 22
-17 28 -41 16 -26 -14 -36 -6 -19 15 15 18 -1 21 -30 5 -13 -7 -28 -6 -47 1
l-28 11 25 10 c14 5 29 16 33 24 7 11 12 12 22 4 10 -8 19 -8 34 2 12 7 21 16
21 19 0 12 -59 16 -64 5 -2 -6 -5 2 -5 18 -1 21 3 27 14 22 13 -4 13 -2 5 14
-11 21 -37 18 -57 -8 -18 -22 -16 -33 5 -25 16 7 16 6 1 -17 -12 -18 -24 -24
-43 -22 -24 3 -26 0 -20 -23 4 -17 2 -25 -7 -25 -8 0 -4 -8 9 -20 14 -13 19
-26 15 -38 -6 -15 -5 -15 10 -3 19 15 23 1 5 -17 -9 -9 -7 -13 5 -18 9 -3 14
-10 11 -15 -3 -5 -13 -5 -24 1 -26 14 -57 13 -63 -2 -3 -7 -6 -3 -6 8 -1 15 7
24 24 28 39 10 32 35 -10 32 -19 -2 -36 2 -38 8 -2 6 -12 11 -23 11 -10 0 -20
8 -22 18 -3 17 11 20 79 21 21 0 18 19 -6 46 -11 13 -18 32 -17 46 2 13 -1 24
-7 24 -16 0 -63 -48 -57 -59 3 -5 -2 -7 -13 -4 -10 3 -22 0 -25 -5 -9 -15 -46
-2 -39 14 3 8 -1 14 -11 14 -23 0 -20 17 5 23 15 4 18 10 13 19 -5 7 -13 31
-19 53 -11 45 -43 61 -52 27 -3 -14 -15 -21 -39 -24 -37 -4 -47 6 -14 15 11 3
20 12 20 21 0 9 5 16 10 16 6 0 10 7 10 15 0 27 -29 16 -52 -20 -13 -19 -29
-35 -37 -35 -8 0 -20 -8 -28 -17 -10 -13 -16 -15 -19 -5 -10 22 -44 14 -44
-10 -1 -28 -25 -62 -38 -54 -5 3 -17 -3 -26 -13 -14 -15 -15 -24 -7 -40 6 -11
11 -31 11 -44 0 -13 9 -32 19 -41 11 -10 17 -25 14 -34 -5 -12 -8 -11 -14 6
-5 12 -15 22 -24 22 -9 0 -15 6 -14 13 4 23 -13 47 -33 47 -11 0 -22 8 -25 20
-6 24 -21 26 -29 5 -9 -22 -34 1 -34 31 0 35 -17 38 -37 7 -38 -60 -93 -95
-93 -58 0 9 -9 15 -25 15 -14 0 -29 8 -35 19 -14 27 -13 34 6 27 9 -4 23 -1
30 5 11 9 19 8 32 -5 23 -20 36 -21 28 -1 -3 9 0 15 8 15 8 0 16 3 18 8 2 4
17 15 35 24 l31 18 29 -34 c23 -29 33 -34 56 -29 18 4 27 12 27 25 0 13 5 18
14 15 18 -7 36 12 36 36 0 17 2 18 17 6 15 -13 16 -11 10 10 -3 14 -2 30 4 37
7 8 6 14 -1 19 -13 8 -42 -14 -34 -26 3 -5 0 -9 -5 -9 -20 0 -26 5 -29 25 -6
41 -52 36 -52 -7 0 -15 5 -18 20 -13 14 5 20 2 20 -10 0 -12 -8 -16 -32 -13
-26 2 -34 8 -36 26 -3 17 -8 21 -22 17 -12 -4 -24 2 -34 16 -21 31 -44 11 -40
-37 2 -31 0 -35 -19 -32 -17 2 -21 9 -19 31 2 21 -1 27 -18 27 -11 0 -20 -5
-20 -12 0 -6 -2 -9 -5 -6 -3 3 2 22 10 42 10 24 22 37 33 35 43 -4 52 1 52 30
0 16 7 37 16 45 8 9 11 16 5 16 -6 0 -11 6 -11 13 0 6 12 -1 25 -16 26 -29 32
-47 16 -47 -5 0 -12 -7 -15 -16 -5 -12 0 -15 19 -12 15 2 29 -4 38 -16 13 -18
14 -18 35 0 12 10 22 24 22 31 0 16 -22 17 -37 2 -8 -8 -16 -3 -29 17 -9 16
-29 47 -43 69 -14 22 -24 46 -23 53 2 6 -1 12 -7 12 -5 0 -12 -18 -16 -41z
m-101 -177 c-20 -19 -24 -13 -12 18 7 19 11 21 18 11 5 -9 3 -20 -6 -29z m181
-110 c-8 -8 -25 10 -25 26 0 13 2 13 14 -4 8 -10 13 -21 11 -22z m-138 6 c-3
-8 -6 -5 -6 6 -1 11 2 17 5 13 3 -3 4 -12 1 -19z m503 1 c0 -7 6 -17 14 -23
11 -8 12 -17 4 -36 -9 -21 -12 -22 -15 -7 -6 23 -26 22 -48 -3 -19 -21 -65
-28 -65 -10 0 6 5 10 11 10 7 0 9 11 5 28 -3 15 -3 22 0 15 7 -16 54 5 54 24
0 7 9 13 20 13 11 0 20 -5 20 -11z m-140 -38 c-16 -30 -30 -35 -48 -17 -16 16
-16 17 1 10 9 -3 17 -1 17 4 0 6 8 13 18 15 9 3 18 5 20 6 1 0 -2 -8 -8 -18z
m-81 -82 c-17 -10 -24 4 -14 29 6 16 7 16 17 -2 8 -14 7 -21 -3 -27z m231 20
c0 -5 -5 -9 -11 -9 -5 0 -8 -4 -5 -9 4 -5 0 -12 -6 -14 -10 -4 -9 -8 2 -16 12
-8 8 -11 -19 -11 -28 0 -32 -2 -21 -15 6 -8 9 -19 5 -25 -10 -16 -23 -12 -21
7 0 11 -7 19 -21 21 -29 4 -19 32 12 32 19 0 22 4 18 23 -5 18 -3 20 8 10 19
-18 29 -16 29 7 0 13 5 18 15 14 8 -4 15 -10 15 -15z m-175 -8 c-3 -6 -11 -8
-17 -5 -6 4 -5 9 3 15 16 10 23 4 14 -10z m345 -7 c0 -8 -5 -12 -10 -9 -6 4
-8 11 -5 16 9 14 15 11 15 -7z m-50 -4 c0 -5 -4 -10 -9 -10 -6 0 -13 5 -16 10
-3 6 1 10 9 10 9 0 16 -4 16 -10z m-720 -4 c0 -11 -19 -15 -25 -6 -3 5 1 10 9
10 9 0 16 -2 16 -4z m461 -19 c-13 -13 -26 -3 -16 12 3 6 11 8 17 5 6 -4 6
-10 -1 -17z m171 13 c2 -5 15 -11 31 -12 42 -4 32 -18 -13 -18 -33 0 -40 3
-40 20 0 21 16 28 22 10z m-385 -36 c1 -20 0 -22 -4 -6 -2 12 -9 22 -14 22 -5
0 -9 5 -9 11 0 25 25 0 27 -27z m-72 15 c11 -17 -1 -21 -15 -4 -8 9 -8 15 -2
15 6 0 14 -5 17 -11z m232 -25 c-2 -13 0 -25 4 -25 5 -1 13 -2 18 -3 23 -3 21
-16 -3 -22 -16 -4 -26 -13 -26 -24 0 -11 -5 -22 -11 -26 -9 -5 -10 9 -5 55 5
47 4 61 -6 61 -10 0 -9 3 2 9 20 14 33 2 27 -25z m-216 -14 c26 0 24 -17 -3
-26 -16 -5 -27 0 -41 17 -15 19 -21 21 -38 11 -26 -16 -39 -15 -39 4 0 8 5 12
10 9 6 -3 17 1 26 9 14 15 18 14 41 -4 14 -11 34 -20 44 -20z m514 3 c-13 -34
-16 -73 -6 -73 18 0 12 -29 -8 -39 -24 -13 -54 15 -31 29 7 4 10 15 7 24 -4 9
-2 16 4 16 6 0 9 6 6 13 -2 6 -15 11 -28 9 l-24 -3 25 20 c32 26 65 28 55 4z
m-659 -49 c-4 -10 -13 -12 -31 -8 -17 4 -32 1 -44 -10 -17 -16 -19 -16 -24 4
-3 13 0 20 9 20 7 0 23 10 36 23 22 22 23 22 41 4 10 -10 16 -25 13 -33z m864
46 c0 -5 -4 -10 -10 -10 -5 0 -10 5 -10 10 0 6 5 10 10 10 6 0 10 -4 10 -10z
m-770 -29 c15 -30 12 -33 -15 -15 -14 9 -22 20 -19 25 9 15 23 10 34 -10z
m630 15 c0 -3 -4 -8 -10 -11 -5 -3 -10 -1 -10 4 0 6 5 11 10 11 6 0 10 -2 10
-4z m180 -44 c-1 -20 -44 -52 -72 -52 -7 0 -2 6 12 13 17 9 25 21 25 39 -1 22
2 25 17 17 10 -5 18 -13 18 -17z m-344 9 c-3 -5 2 -12 12 -16 16 -6 16 -7 0
-16 -10 -6 -26 -6 -41 0 -16 6 -28 6 -35 -1 -6 -6 -12 -6 -17 1 -8 14 19 25
45 18 13 -3 20 0 20 9 0 8 5 14 11 14 5 0 8 -4 5 -9z m184 -1 c0 -5 -4 -10 -9
-10 -5 0 -7 -9 -4 -20 7 -28 -16 -25 -26 3 -6 16 -4 24 8 29 23 10 31 9 31 -2z
m230 -19 c0 22 5 25 35 26 45 1 53 -13 21 -38 -14 -11 -26 -27 -26 -35 0 -8
-7 -15 -15 -15 -55 -5 -75 -3 -75 8 0 6 -8 13 -17 16 -14 3 -13 6 9 15 14 6
30 21 34 34 7 23 7 23 20 -7 13 -30 13 -30 14 -4z m-742 -18 c-9 -11 -13 -10
-23 4 -18 24 -9 35 15 21 14 -9 16 -15 8 -25z m-48 18 c-1 -14 -19 -33 -27
-28 -5 3 -21 0 -35 -7 -23 -12 -25 -12 -21 5 3 11 14 19 24 19 10 0 20 4 23 8
6 10 36 12 36 3z m-438 -76 c-5 -46 -27 -31 -27 20 0 27 3 31 16 25 11 -6 14
-19 11 -45z m129 41 c7 4 10 2 7 -7 -3 -8 -16 -13 -28 -11 -13 1 -27 -3 -32
-10 -6 -10 -8 -9 -8 3 0 24 21 41 36 28 7 -6 18 -7 25 -3z m68 -10 c6 -7 9
-21 5 -30 -3 -9 -1 -23 6 -31 17 -20 0 -19 -26 3 -27 22 -36 46 -21 61 14 14
22 14 36 -3z m251 -6 c0 -5 -4 -10 -10 -10 -5 0 -10 5 -10 10 0 6 5 10 10 10
6 0 10 -4 10 -10z m494 -25 c-14 -19 -34 -34 -43 -34 -14 1 -13 2 2 6 9 2 18
9 18 14 1 5 2 14 3 19 1 11 25 30 39 30 4 0 -4 -16 -19 -35z m-670 1 c-3 -9
-10 -16 -15 -16 -5 0 -4 9 3 20 14 22 21 20 12 -4z m286 14 c0 -5 -2 -10 -4
-10 -3 0 -8 5 -11 10 -3 6 -1 10 4 10 6 0 11 -4 11 -10z m80 3 c-1 -17 -58
-64 -65 -54 -3 6 1 11 9 11 9 0 16 8 16 19 0 17 11 28 33 30 4 1 7 -2 7 -6z
m448 -10 c-9 -2 -20 -13 -23 -24 -7 -21 -20 -25 -31 -7 -9 14 24 38 50 37 17
-1 17 -2 4 -6z m-971 -28 c8 -9 12 -19 9 -23 -4 -3 -10 -2 -14 4 -4 6 -15 13
-24 17 -14 5 -20 -1 -26 -26 -6 -20 -5 -37 1 -44 6 -9 6 -13 -2 -13 -39 0 -62
81 -26 88 17 4 18 2 6 -12 -10 -12 -10 -16 -1 -16 6 0 14 9 17 20 6 24 38 26
60 5z m343 -21 c0 -17 -28 -44 -46 -44 -23 0 -16 16 14 30 21 10 23 14 10 17
-10 3 -15 10 -11 19 4 11 9 12 19 3 8 -6 14 -17 14 -25z m316 11 c0 -28 -8
-32 -25 -12 -8 10 -7 17 1 25 18 18 24 15 24 -13z m364 11 c0 -7 -11 -16 -25
-18 -28 -6 -30 -3 -12 17 16 18 37 19 37 1z m-420 0 c0 -3 -4 -8 -10 -11 -5
-3 -10 -1 -10 4 0 6 5 11 10 11 6 0 10 -2 10 -4z m285 -5 c3 -5 1 -12 -5 -16
-5 -3 -10 1 -10 9 0 18 6 21 15 7z m265 -1 c0 -5 -6 -10 -14 -10 -8 0 -18 5
-21 10 -3 6 3 10 14 10 12 0 21 -4 21 -10z m-950 -31 c0 -20 -4 -29 -12 -26
-7 2 -22 0 -33 -6 -17 -9 -18 -8 -7 5 7 9 10 22 6 31 -5 14 6 21 39 26 4 0 7
-13 7 -30z m191 8 c-10 -9 -11 -8 -5 6 3 10 9 15 12 12 3 -3 0 -11 -7 -18z
m692 -4 c-16 -13 -15 -14 15 -9 18 3 32 1 32 -4 0 -6 -3 -9 -7 -9 -17 4 -72
-24 -70 -34 1 -6 -8 -16 -20 -22 -13 -5 -23 -16 -23 -24 0 -10 -6 -9 -27 4
-19 13 -28 15 -31 6 -3 -9 -9 -8 -22 4 -15 14 -22 14 -41 5 -19 -11 -21 -10
-16 5 4 9 7 21 7 26 0 14 26 11 40 -6 13 -16 82 -17 72 -1 -3 5 5 7 16 4 12
-4 22 -2 22 3 0 5 -4 9 -10 9 -5 0 -10 5 -10 10 0 6 9 10 21 10 16 0 19 4 14
19 -4 14 0 21 12 23 32 7 46 -3 26 -19z m-297 -6 c4 -4 -1 -9 -10 -13 -9 -3
-14 -10 -11 -14 3 -5 -9 -3 -25 3 -26 10 -28 13 -16 23 16 11 51 12 62 1z
m-800 -12 c-23 -17 -36 -19 -36 -6 0 11 18 19 40 20 11 0 10 -3 -4 -14z m594
1 c0 -2 -9 -6 -20 -9 -11 -3 -18 -1 -14 4 5 9 34 13 34 5z m590 -11 c10 -12
10 -15 -4 -15 -9 0 -16 7 -16 15 0 8 2 15 4 15 2 0 9 -7 16 -15z m-1100 1 c0
-2 -7 -7 -16 -10 -8 -3 -12 -2 -9 4 6 10 25 14 25 6z m597 -2 c-3 -3 -12 -4
-19 -1 -8 3 -5 6 6 6 11 1 17 -2 13 -5z m-680 -22 c8 -5 9 -12 2 -22 -8 -13
-10 -13 -19 0 -18 27 -9 39 17 22z m113 -6 c0 -8 -14 -16 -32 -19 -43 -6 -46
-2 -11 17 35 19 43 20 43 2z m140 -19 c0 -5 -4 -5 -10 -2 -5 3 -10 14 -10 23
0 15 2 15 10 2 5 -8 10 -19 10 -23z m-409 0 c-10 -9 -11 -8 -5 6 3 10 9 15 12
12 3 -3 0 -11 -7 -18z m312 16 c-7 -2 -19 -2 -25 0 -7 3 -2 5 12 5 14 0 19 -2
13 -5z m692 -6 c10 3 12 -2 8 -16 -6 -24 -23 -28 -23 -6 0 8 -4 15 -10 15 -5
0 -10 5 -10 12 0 9 3 9 11 1 6 -6 17 -9 24 -6z m-1115 -27 c0 -5 -4 -10 -10
-10 -5 0 -10 5 -10 10 0 6 5 10 10 10 6 0 10 -4 10 -10z m151 1 c7 11 11 11
21 1 10 -10 10 -15 -2 -22 -20 -13 -47 -12 -56 1 -3 6 0 15 7 20 9 5 15 4 18
-2 2 -7 7 -6 12 2z m88 -26 c19 6 48 -19 33 -29 -11 -7 -68 -1 -64 8 1 3 3 16
3 29 1 17 2 18 6 4 3 -12 11 -16 22 -12z m161 4 c0 -7 7 -17 17 -24 11 -8 13
-14 5 -19 -7 -4 -12 -2 -12 4 0 8 -9 10 -27 5 -26 -6 -27 -6 -10 13 9 10 14
22 10 25 -3 4 -1 7 5 7 7 0 12 -5 12 -11z m480 -6 c41 -7 63 -20 153 -91 37
-29 67 -61 67 -70 0 -9 9 -31 19 -49 14 -22 22 -60 27 -126 l7 -95 -41 -85
c-35 -72 -49 -89 -89 -115 -92 -58 -206 -73 -308 -40 -77 25 -108 44 -118 71
-3 9 -15 17 -26 17 -24 0 -84 100 -75 124 4 11 1 16 -10 16 -29 0 -50 93 -23
103 9 4 8 8 -3 16 -12 8 -12 13 -2 23 6 6 12 19 12 29 0 21 69 159 79 159 5 0
43 23 87 52 59 39 90 52 126 56 26 2 48 9 48 14 0 6 8 7 18 3 9 -4 33 -9 52
-12z m-560 -2 c0 -6 -4 -13 -10 -16 -5 -3 -10 1 -10 9 0 9 5 16 10 16 6 0 10
-4 10 -9z m935 -1 c3 -5 2 -10 -4 -10 -5 0 -13 5 -16 10 -3 6 -2 10 4 10 5 0
13 -4 16 -10z m-85 -15 c0 -8 -2 -15 -4 -15 -2 0 -6 7 -10 15 -3 8 -1 15 4 15
6 0 10 -7 10 -15z m219 -6 c-12 -23 -16 -24 -28 -1 -7 14 -5 17 15 18 20 2 22
-1 13 -17z m-91 -19 c-13 -20 -28 -27 -28 -12 0 10 22 32 32 32 5 0 3 -9 -4
-20z m-38 -14 c0 -3 -4 -8 -10 -11 -5 -3 -10 -1 -10 4 0 6 5 11 10 11 6 0 10
-2 10 -4z m-960 -19 c0 -4 -5 -18 -11 -29 -9 -17 -13 -18 -20 -7 -15 24 -10
45 11 45 11 0 20 -4 20 -9z m38 -16 c-8 -12 -18 -18 -21 -14 -4 3 0 15 10 25
21 24 29 15 11 -11z m1112 25 c0 -3 -4 -8 -10 -11 -5 -3 -10 -1 -10 4 0 6 5
11 10 11 6 0 10 -2 10 -4z m-1256 -47 c-3 -5 -10 -7 -15 -3 -5 3 -7 10 -3 15
3 5 10 7 15 3 5 -3 7 -10 3 -15z m209 -13 c4 -10 1 -13 -9 -9 -7 3 -14 9 -14
14 0 14 17 10 23 -5z m937 0 c0 -15 -18 -31 -26 -23 -7 7 7 37 17 37 5 0 9 -6
9 -14z m77 -3 c-8 -9 -20 -12 -26 -9 -19 12 -12 21 15 23 24 1 25 -1 11 -14z
m-1226 -14 c13 -6 18 -16 15 -26 -5 -11 -1 -14 13 -10 18 4 39 -19 27 -30 -8
-8 -61 13 -61 24 0 6 -11 20 -25 32 -21 17 -22 20 -7 21 10 0 27 -5 38 -11z
m-48 -40 c-9 -9 -8 -18 5 -36 15 -24 15 -25 -4 -21 -15 3 -19 13 -21 52 -1 45
0 48 15 32 12 -12 13 -19 5 -27z m160 34 c-7 -2 -13 -11 -13 -19 0 -8 -4 -14
-10 -14 -5 0 -10 4 -10 8 0 12 22 32 35 31 5 0 4 -3 -2 -6z m1074 -10 c5 3 9
-3 9 -13 0 -29 -25 -33 -35 -7 -10 25 -3 46 9 27 4 -7 12 -10 17 -7z m-1392
-63 c8 7 19 8 26 4 8 -5 7 -9 -5 -16 -21 -12 -21 -28 0 -28 11 0 14 -5 10 -16
-3 -9 -6 -20 -6 -25 0 -16 -29 3 -36 23 -4 13 -12 18 -25 15 -16 -4 -19 0 -19
29 0 26 3 32 15 28 11 -4 15 1 17 17 1 16 3 12 5 -9 4 -27 7 -31 18 -22z m75
30 c0 -6 12 -16 28 -22 21 -9 23 -12 10 -15 -24 -6 -23 -30 2 -43 26 -14 25
-24 -5 -54 -29 -29 -32 -46 -7 -46 18 0 46 -55 36 -71 -10 -16 -20 -9 -31 21
-8 20 -18 30 -32 30 -30 0 -35 -3 -36 -23 -1 -13 3 -16 19 -11 21 7 21 6 2
-15 -27 -30 -46 -27 -46 7 0 18 -10 38 -25 52 -14 13 -23 30 -21 37 6 15 -10
18 -19 3 -3 -5 -17 -10 -30 -10 -27 0 -38 -13 -40 -48 0 -13 -10 -31 -20 -39
-14 -11 -16 -17 -7 -20 6 -3 12 -11 12 -20 0 -26 25 -8 30 23 5 24 7 26 13 10
5 -12 14 -17 27 -13 15 4 20 0 20 -13 0 -14 7 -18 28 -17 23 2 27 -2 26 -23
-1 -14 -5 -33 -9 -44 -7 -15 -5 -17 13 -12 21 7 62 -18 62 -37 0 -5 -7 -4 -15
3 -23 19 -48 -6 -40 -39 6 -25 5 -25 -11 -9 -12 12 -18 34 -18 68 -1 30 -6 50
-12 50 -15 0 -28 -64 -14 -68 6 -2 3 -10 -7 -18 -26 -20 -34 -17 -27 10 5 20
1 24 -25 28 -17 2 -35 0 -41 -6 -16 -16 -23 0 -10 24 10 18 7 26 -19 56 -38
43 -43 110 -11 139 11 10 22 26 26 37 5 15 13 19 35 16 24 -4 29 -1 29 16 0
20 1 20 16 -2 12 -18 19 -20 29 -12 11 9 20 4 43 -19 31 -33 48 -40 39 -17 -3
8 1 22 8 33 11 14 16 16 26 6 17 -17 26 -16 32 2 4 9 -4 19 -20 27 -22 11 -27
20 -29 56 -1 23 2 42 7 42 5 0 9 -5 9 -10z m230 -10 c0 -5 -2 -10 -4 -10 -3 0
-8 5 -11 10 -3 6 -1 10 4 10 6 0 11 -4 11 -10z m-370 -31 c0 -6 -4 -7 -10 -4
-5 3 -10 11 -10 16 0 6 5 7 10 4 6 -3 10 -11 10 -16z m1487 -14 c-4 -8 -17
-15 -29 -15 l-23 0 25 20 c27 20 36 19 27 -5z m-1045 -25 c-17 -18 -20 -19
-25 -6 -4 10 -1 16 7 16 8 0 17 8 21 18 5 11 9 13 12 5 2 -7 -4 -22 -15 -33z
m-518 -5 c3 -8 1 -15 -4 -15 -6 0 -10 7 -10 15 0 8 2 15 4 15 2 0 6 -7 10 -15z
m35 -24 c-15 -5 -22 6 -14 19 6 9 10 9 16 -1 5 -8 4 -15 -2 -18z m301 19 c0
-5 -4 -10 -8 -10 -5 0 -9 -16 -10 -35 -1 -21 3 -33 8 -30 6 3 10 1 10 -4 0 -6
-4 -11 -9 -11 -16 0 -31 27 -25 44 3 9 2 16 -4 16 -6 0 -8 9 -5 20 5 20 43 29
43 10z m24 -25 c-4 -17 -10 -23 -16 -17 -6 6 -6 18 2 32 15 28 23 20 14 -15z
m1416 -15 c0 -20 -76 -44 -78 -25 -1 6 13 15 31 22 41 15 47 15 47 3z m-1390
-24 c0 -2 -7 -6 -15 -10 -8 -3 -15 -1 -15 4 0 6 7 10 15 10 8 0 15 -2 15 -4z
m157 -48 c-3 -8 -6 -5 -6 6 -1 11 2 17 5 13 3 -3 4 -12 1 -19z m983 13 c0 -5
-7 -11 -15 -15 -15 -5 -20 5 -8 17 9 10 23 9 23 -2z m-1408 -36 c-3 -20 -7
-23 -18 -14 -10 8 -11 15 -2 29 16 25 27 17 20 -15z m264 -10 c0 -36 -3 -45
-15 -43 -19 4 -28 48 -11 48 7 0 10 8 7 20 -3 12 0 20 7 20 9 0 13 -16 12 -45z
m1288 14 c-14 -16 -15 -23 -6 -26 16 -6 15 -23 -2 -23 -25 0 -28 32 -5 57 28
29 39 21 13 -8z m-1167 -11 c-3 -8 -6 -5 -6 6 -1 11 2 17 5 13 3 -3 4 -12 1
-19z m-47 -42 c0 -6 -5 -5 -12 2 -17 17 -28 15 -28 -6 0 -10 -7 -27 -16 -38
-15 -19 -16 -19 -9 1 7 19 12 47 14 73 1 15 50 -16 51 -32z m1030 18 c0 -8 -5
-12 -10 -9 -6 4 -8 11 -5 16 9 14 15 11 15 -7z m380 -1 c-1 -5 -19 -22 -42
-40 -38 -28 -43 -30 -54 -15 -10 14 -9 19 4 26 9 5 19 12 22 16 12 16 70 27
70 13z m-1571 -52 c-15 -5 -22 6 -14 19 6 9 10 9 16 -1 5 -8 4 -15 -2 -18z
m203 -25 c-3 -5 -9 -1 -13 10 -5 11 -8 13 -8 5 -1 -8 -4 -12 -7 -8 -3 3 -3 16
1 28 l7 22 13 -24 c7 -13 11 -28 7 -33z m-165 12 c-3 -7 -5 -2 -5 12 0 14 2
19 5 13 2 -7 2 -19 0 -25z m1283 12 c0 -19 -11 -26 -23 -14 -8 8 3 34 14 34 5
0 9 -9 9 -20z m-1395 0 c-3 -5 -1 -10 4 -10 6 0 11 5 11 12 0 8 3 9 11 1 7 -7
1 -20 -20 -44 -17 -18 -32 -29 -32 -24 -9 65 -6 75 17 75 8 0 12 -4 9 -10z
m235 0 c0 -5 -2 -10 -4 -10 -3 0 -8 5 -11 10 -3 6 -1 10 4 10 6 0 11 -4 11
-10z m985 -19 c3 -5 1 -12 -4 -15 -5 -3 -11 1 -15 9 -6 16 9 21 19 6z m-1139
-55 c20 -8 34 1 35 22 1 10 4 7 8 -8 8 -27 -3 -50 -25 -50 -8 0 -14 -10 -14
-22 -1 -22 -1 -23 -15 -4 -9 12 -14 39 -14 65 1 25 4 36 6 24 2 -12 11 -24 19
-27z m102 -11 c32 6 27 -11 -8 -29 l-30 -14 0 31 c0 19 3 27 8 20 4 -7 18 -11
30 -8z m99 9 c-3 -3 -12 -4 -19 -1 -8 3 -5 6 6 6 11 1 17 -2 13 -5z m1233 -14
c0 -5 10 -10 22 -10 35 0 13 -11 -31 -16 -43 -5 -54 7 -23 25 22 13 32 14 32
1z m-1230 -20 c0 -5 -5 -10 -11 -10 -5 0 -7 5 -4 10 3 6 8 10 11 10 2 0 4 -4
4 -10z m-263 -18 c-25 -27 -21 -40 9 -34 18 3 25 1 20 -6 -4 -6 -22 -14 -41
-18 -28 -5 -35 -11 -35 -30 0 -27 -6 -30 -24 -11 -14 13 -10 37 6 37 13 0 38
26 38 39 0 6 -4 11 -10 11 -5 0 -10 4 -10 9 0 8 15 14 54 20 5 0 2 -7 -7 -17z
m312 -42 c-1 -16 -3 -19 -6 -8 -2 10 -10 15 -19 11 -17 -6 -18 1 -2 27 15 23
28 8 27 -30z m89 30 c7 -11 10 -20 6 -20 -7 0 -34 27 -34 34 0 13 16 5 28 -14z
m-158 -29 c0 -11 -4 -10 -13 4 -8 10 -19 15 -25 11 -7 -4 -12 -3 -12 3 0 14
34 19 42 6 4 -5 8 -16 8 -24z m-96 4 c-5 -12 1 -14 27 -10 l34 5 -33 -12 c-35
-12 -61 0 -48 21 11 17 26 13 20 -4z m897 -16 c-9 -22 -10 -22 -10 -3 -1 11 2
24 6 27 12 12 14 0 4 -24z m159 11 c0 -5 -2 -10 -4 -10 -3 0 -8 5 -11 10 -3 6
-1 10 4 10 6 0 11 -4 11 -10z m-1390 -26 c0 -16 -16 -19 -25 -4 -8 13 4 32 16
25 5 -4 9 -13 9 -21z m40 9 c13 -11 20 -30 20 -53 1 -33 2 -34 15 -16 12 16
17 17 30 6 8 -7 15 -23 15 -36 0 -13 5 -24 10 -24 6 0 10 9 10 21 0 11 4 17
10 14 10 -6 2 -65 -11 -79 -6 -6 -9 -6 -9 2 0 19 -44 53 -61 49 -29 -8 -43 7
-30 32 7 12 8 21 2 21 -5 0 -12 -6 -14 -12 -3 -7 -5 5 -5 28 1 22 -2 46 -6 52
-10 17 1 15 24 -5z m420 -3 c0 -6 -7 -13 -15 -16 -8 -4 -12 -10 -9 -15 3 -5 0
-9 -5 -9 -14 0 -14 6 -1 31 11 20 30 26 30 9z m210 0 c0 -5 -7 -10 -15 -10 -8
0 -15 5 -15 10 0 6 7 10 15 10 8 0 15 -4 15 -10z m680 -16 c0 -2 -9 -4 -21 -4
-11 0 -18 4 -14 10 5 8 35 3 35 -6z m-1140 -6 c0 -5 9 -4 20 2 24 13 27 -2 4
-24 -18 -19 -20 -19 -44 -6 -11 6 -17 16 -14 23 5 15 34 19 34 5z m312 -50
c-6 -6 -11 -4 -15 6 -4 9 -1 16 5 16 7 0 7 4 -1 13 -6 8 -8 17 -4 21 4 4 12
-5 16 -19 6 -17 5 -31 -1 -37z m-352 11 c0 -6 -4 -7 -10 -4 -5 3 -10 11 -10
16 0 6 5 7 10 4 6 -3 10 -11 10 -16z m434 12 c3 -5 -9 -11 -27 -14 -40 -6 -47
0 -16 12 31 13 37 13 43 2z m723 1 c8 -5 9 -13 3 -22 -6 -9 -10 -10 -10 -3 0
6 -9 9 -20 6 -22 -6 -28 12 -7 20 18 8 21 8 34 -1z m-987 -12 c11 -6 17 -17
14 -25 -7 -17 -20 -12 -34 16 -12 21 -7 24 20 9z m910 -11 c-6 -11 -17 -18
-23 -16 -7 2 -22 1 -33 -4 -17 -6 -23 -3 -27 11 -4 15 0 17 34 13 25 -4 39 -2
39 6 0 6 5 11 10 11 7 0 7 -7 0 -21z m-783 -26 c-9 -8 -58 17 -52 27 4 6 16 4
31 -6 13 -9 23 -18 21 -21z m603 28 c0 -5 8 -12 18 -14 12 -4 11 -5 -6 -6 -12
0 -25 -8 -28 -16 -4 -8 -11 -15 -17 -15 -7 0 -7 4 1 12 7 7 12 20 12 30 0 10
5 18 10 18 6 0 10 -4 10 -9z m310 -7 c0 -2 -7 -4 -15 -4 -8 0 -15 4 -15 10 0
5 7 7 15 4 8 -4 15 -8 15 -10z m-1100 -4 c0 -5 -5 -10 -11 -10 -5 0 -7 5 -4
10 3 6 8 10 11 10 2 0 4 -4 4 -10z m-260 -22 c0 -7 3 -22 5 -33 3 -11 1 -26
-4 -34 -8 -12 -12 -13 -25 -1 -14 11 -20 10 -36 -5 -18 -16 -20 -16 -20 -2 0
10 7 17 15 17 12 0 14 7 9 27 -6 23 -4 25 15 20 14 -3 21 -1 21 9 0 8 5 14 10
14 6 0 10 -6 10 -12z m196 -63 c-3 -8 -13 -11 -25 -8 -20 5 -30 23 -13 23 5 0
15 12 23 27 l14 27 3 -28 c2 -15 1 -34 -2 -41z m534 55 c0 -5 -8 -10 -17 -10
-15 0 -16 2 -3 10 19 12 20 12 20 0z m-680 -30 c0 -5 -7 -7 -15 -4 -8 4 -15 8
-15 10 0 2 7 4 15 4 8 0 15 -4 15 -10z m900 -12 c0 -7 -4 -19 -9 -26 -6 -11
-9 -9 -14 7 -2 11 -2 22 1 25 10 10 22 6 22 -6z m361 3 c-12 -8 -12 -12 2 -26
21 -20 22 -35 2 -35 -8 0 -15 7 -15 16 0 11 -6 14 -20 9 -15 -5 -20 -2 -20 14
0 18 15 27 50 30 13 1 13 -1 1 -8z m189 -5 c0 -8 -4 -18 -10 -21 -5 -3 -10 1
-10 9 0 17 -17 21 -38 7 -11 -6 -10 -10 4 -15 13 -5 15 -9 6 -18 -9 -9 -16 -8
-29 4 -13 14 -14 20 -3 32 16 21 80 21 80 2z m-1074 -24 c6 -8 9 -26 6 -39 -4
-22 -2 -23 24 -18 l29 6 -29 -17 c-28 -16 -30 -16 -47 7 -10 13 -19 33 -19 45
0 11 -6 26 -12 33 -11 11 -8 12 12 6 14 -4 30 -15 36 -23z m657 4 c-3 -16 -10
-23 -19 -19 -20 7 -17 31 4 36 9 3 18 5 18 6 1 0 -1 -10 -3 -23z m-377 -13
c-10 -11 -57 -10 -53 1 3 6 10 10 16 9 6 -2 11 2 11 8 0 8 5 7 15 -1 9 -7 14
-15 11 -17z m324 23 c0 -3 -4 -8 -10 -11 -5 -3 -10 -1 -10 4 0 6 5 11 10 11 6
0 10 -2 10 -4z m207 -2 c-3 -3 -12 -4 -19 -1 -8 3 -5 6 6 6 11 1 17 -2 13 -5z
m-652 -23 c-3 -6 -20 -11 -37 -11 -35 0 -33 8 2 15 12 2 25 7 28 10 9 8 15 -3
7 -14z m-337 -9 c2 -7 -2 -10 -12 -6 -9 3 -16 11 -16 16 0 13 23 5 28 -10z
m382 -1 c0 -17 -18 -21 -24 -6 -3 9 0 15 9 15 8 0 15 -4 15 -9z m224 -4 c17
-12 17 -14 1 -27 -14 -12 -18 -12 -26 1 -21 34 -7 49 25 26z m-350 -13 c5 -14
4 -15 -9 -4 -17 14 -19 20 -6 20 5 0 12 -7 15 -16z m226 7 c0 -6 -5 -13 -11
-16 -6 -4 -8 -13 -5 -21 3 -8 1 -14 -3 -14 -13 0 -21 27 -15 45 7 16 34 21 34
6z m303 -8 c-7 -2 -19 -2 -25 0 -7 3 -2 5 12 5 14 0 19 -2 13 -5z m404 -18
c-25 -18 -21 -23 13 -21 43 3 60 23 29 35 -22 8 -20 9 14 9 20 0 37 -3 37 -6
-1 -11 -30 -47 -30 -37 0 5 -6 1 -13 -9 -7 -10 -32 -20 -55 -23 -29 -4 -42
-10 -38 -19 6 -14 -18 -26 -38 -18 -8 3 -21 -4 -29 -16 -14 -20 -17 -21 -37
-7 -20 14 -20 16 -4 25 10 6 15 16 11 25 -3 9 -2 17 3 19 6 2 11 15 12 31 2
23 7 27 35 27 18 0 33 -4 33 -10 0 -15 26 -12 40 5 7 8 17 12 23 8 6 -4 4 -11
-6 -18z m-847 5 c0 -5 -5 -10 -11 -10 -5 0 -7 5 -4 10 3 6 8 10 11 10 2 0 4
-4 4 -10z m530 -5 c10 -12 10 -15 -4 -15 -9 0 -16 7 -16 15 0 8 2 15 4 15 2 0
9 -7 16 -15z m60 -6 c0 -5 7 -9 17 -9 14 0 14 -3 -3 -21 -19 -22 -19 -22 7
-16 18 5 29 2 32 -6 4 -10 -15 -13 -79 -14 -47 -1 -81 3 -78 8 3 5 17 9 32 10
15 0 36 4 47 9 17 7 18 9 4 15 -21 8 -13 46 7 38 8 -3 14 -9 14 -14z m-251
-15 c-23 -28 1 -27 26 1 31 32 34 31 28 -11 -5 -29 -8 -32 -41 -32 -19 0 -42
6 -49 14 -12 12 -12 14 1 14 8 0 18 9 21 20 4 11 11 18 16 14 6 -4 6 -11 -2
-20z m146 6 c-10 -11 -15 -20 -11 -20 4 0 4 -5 0 -11 -4 -8 -9 -7 -15 2 -13
21 -11 29 14 39 32 13 32 12 12 -10z m218 0 c-3 -11 -9 -20 -14 -20 -10 0 -12
24 -2 33 13 13 21 7 16 -13z m-268 0 c3 -5 4 -10 1 -10 -2 0 -12 -3 -20 -6
-12 -5 -15 -2 -10 10 7 18 20 21 29 6z m-471 -14 c-3 -7 2 -16 11 -20 12 -4
15 -13 11 -34 -4 -16 -1 -35 7 -45 11 -16 17 -17 39 -6 16 7 24 17 21 25 -4
10 -10 11 -24 4 -15 -8 -17 -7 -13 5 4 8 15 15 25 15 10 0 19 4 19 9 0 10 40
22 52 15 4 -3 0 -17 -9 -32 -17 -26 -17 -26 0 -13 24 19 29 11 15 -26 -10 -28
-13 -29 -39 -20 -19 8 -35 8 -52 0 -32 -15 -91 19 -82 48 3 10 -1 32 -9 48
-21 39 -20 41 9 41 16 0 23 -4 19 -14z m-64 -17 c0 -5 -4 -9 -10 -9 -5 0 -10
7 -10 16 0 8 5 12 10 9 6 -3 10 -10 10 -16z m165 12 c3 -5 1 -12 -5 -16 -5 -3
-10 1 -10 9 0 18 6 21 15 7z m180 -22 c4 -6 5 -12 2 -15 -7 -7 -37 7 -37 17 0
13 27 11 35 -2z m-97 -24 c-3 -3 -9 2 -12 12 -6 14 -5 15 5 6 7 -7 10 -15 7
-18z m199 -47 c-2 -8 -20 -13 -43 -13 -31 0 -39 -4 -38 -17 1 -10 -2 -18 -7
-18 -20 0 -7 -18 16 -24 18 -5 25 -13 24 -29 l0 -22 -9 23 c-9 22 -44 30 -54
13 -7 -10 -66 -21 -66 -11 0 3 5 11 11 17 9 9 8 16 -4 27 -20 20 -27 20 -27 0
0 -17 -21 -15 -27 2 -5 14 41 34 77 34 23 0 28 4 23 16 -5 13 -2 15 15 10 11
-4 23 -2 27 4 3 6 10 8 14 6 4 -3 21 -2 37 3 29 8 39 1 31 -21z m273 22 c0 -5
-14 -10 -31 -10 -17 0 -28 4 -24 10 3 6 17 10 31 10 13 0 24 -4 24 -10z m120
-59 c0 -12 -20 -25 -27 -18 -7 7 6 27 18 27 5 0 9 -4 9 -9z m-385 -21 c14 -16
20 -17 27 -8 6 10 8 9 8 -2 0 -37 -16 -42 -48 -15 -18 15 -32 31 -32 36 0 16
26 10 45 -11z m-342 -22 l-6 -23 25 23 c25 23 36 21 32 -5 -1 -7 -2 -17 -3
-23 0 -5 -12 -10 -25 -10 -14 0 -28 -4 -31 -10 -10 -16 -73 -42 -85 -35 -6 3
-8 11 -4 16 3 5 0 16 -6 24 -10 12 -9 16 6 20 11 3 35 15 54 25 45 25 49 24
43 -2z m114 -4 c-3 -3 -12 -4 -19 -1 -8 3 -5 6 6 6 11 1 17 -2 13 -5z"/>
<path d="M566 1374 c-18 -17 -18 -19 -3 -22 9 -2 17 -12 17 -23 0 -24 11 -24
33 1 22 26 21 30 -2 30 -11 0 -21 8 -23 17 -3 15 -5 15 -22 -3z"/>
<path d="M810 1270 c0 -5 5 -10 11 -10 5 0 7 5 4 10 -3 6 -8 10 -11 10 -2 0
-4 -4 -4 -10z"/>
<path d="M1945 900 c-16 -17 -16 -20 -2 -20 26 0 47 11 47 26 0 20 -24 17 -45
-6z"/>
<path d="M1927 863 c-4 -3 -7 -11 -7 -17 0 -6 5 -5 12 2 6 6 9 14 7 17 -3 3
-9 2 -12 -2z"/>
<path d="M275 2670 c3 -5 8 -10 11 -10 2 0 4 5 4 10 0 6 -5 10 -11 10 -5 0 -7
-4 -4 -10z"/>
<path d="M530 2669 c-13 -9 -12 -10 3 -5 12 4 17 0 17 -13 0 -10 9 -21 20 -24
22 -6 25 5 10 34 -12 21 -28 24 -50 8z"/>
<path d="M1888 2666 c-10 -7 -18 -21 -18 -31 0 -15 4 -14 25 6 37 35 31 54 -7
25z"/>
<path d="M2173 2668 c-5 -7 -13 -22 -17 -33 -7 -18 -5 -18 17 3 13 12 27 19
32 15 4 -5 6 -2 3 6 -6 20 -23 24 -35 9z"/>
<path d="M2717 2674 c-4 -4 -4 -10 -1 -15 6 -10 34 0 34 12 0 10 -24 12 -33 3z"/>
<path d="M1353 2645 c-19 -14 -11 -80 12 -89 18 -7 29 28 16 52 -10 19 -6 32
11 32 4 0 8 -10 8 -22 1 -22 1 -23 15 -4 8 11 15 25 15 32 0 16 -55 15 -77 -1z"/>
<path d="M2524 2635 c-6 -24 0 -44 10 -34 11 11 17 59 7 59 -6 0 -13 -11 -17
-25z"/>
<path d="M2670 2635 c0 -8 2 -15 4 -15 2 0 6 7 10 15 3 8 1 15 -4 15 -6 0 -10
-7 -10 -15z"/>
<path d="M690 2631 c0 -5 5 -13 10 -16 6 -3 10 -2 10 4 0 5 -4 13 -10 16 -5 3
-10 2 -10 -4z"/>
<path d="M2375 2629 c-4 -6 -5 -13 -2 -16 7 -7 27 6 27 18 0 12 -17 12 -25 -2z"/>
<path d="M2410 2630 c0 -5 5 -10 10 -10 6 0 10 5 10 10 0 6 -4 10 -10 10 -5 0
-10 -4 -10 -10z"/>
<path d="M455 2611 c-3 -5 -1 -12 5 -16 5 -3 10 1 10 9 0 18 -6 21 -15 7z"/>
<path d="M1755 2611 c-3 -5 -1 -12 5 -16 12 -7 30 2 30 16 0 12 -27 12 -35 0z"/>
<path d="M1802 2608 c-20 -20 -14 -28 23 -28 26 0 35 4 35 17 0 13 -3 14 -12
5 -17 -17 -29 -15 -22 3 7 18 -7 20 -24 3z"/>
<path d="M2199 2604 c-15 -19 -4 -30 15 -15 11 9 15 8 20 -4 9 -23 26 -18 26
9 0 18 -5 24 -25 24 -13 0 -30 -7 -36 -14z"/>
<path d="M650 2596 c0 -8 7 -16 15 -20 10 -4 15 1 15 14 0 11 -7 20 -15 20 -8
0 -15 -6 -15 -14z"/>
<path d="M1910 2600 c0 -5 7 -10 15 -10 8 0 15 5 15 10 0 6 -7 10 -15 10 -8 0
-15 -4 -15 -10z"/>
<path d="M331 2569 c-22 -30 -25 -45 -6 -31 13 9 37 53 32 58 -2 2 -14 -10
-26 -27z"/>
<path d="M755 2579 c-10 -15 3 -25 16 -12 7 7 7 13 1 17 -6 3 -14 1 -17 -5z"/>
<path d="M526 2565 c4 -8 9 -15 13 -15 4 0 8 7 8 15 0 8 -6 15 -13 15 -8 0
-11 -6 -8 -15z"/>
<path d="M583 2573 c-20 -7 -15 -19 7 -19 11 0 20 4 20 8 0 10 -13 16 -27 11z"/>
<path d="M1000 2565 c-9 -11 -9 -22 0 -51 12 -35 14 -36 26 -19 8 11 12 27 8
37 -3 10 0 18 7 18 9 0 8 4 -1 15 -16 19 -24 19 -40 0z"/>
<path d="M1880 2561 c-14 -27 -4 -46 24 -49 24 -2 47 29 27 36 -6 2 -11 10
-11 18 0 21 -28 17 -40 -5z"/>
<path d="M1981 2567 c-6 -8 -8 -17 -4 -20 3 -4 0 -13 -7 -22 -13 -15 -3 -20
15 -7 10 7 35 48 35 57 0 10 -28 4 -39 -8z"/>
<path d="M2335 2569 c-4 -6 -5 -13 -2 -16 7 -7 27 6 27 18 0 12 -17 12 -25 -2z"/>
<path d="M2715 2570 c-3 -5 1 -10 9 -10 9 0 16 5 16 10 0 6 -4 10 -9 10 -6 0
-13 -4 -16 -10z"/>
<path d="M1750 2560 c0 -5 9 -10 20 -10 11 0 20 5 20 10 0 6 -9 10 -20 10 -11
0 -20 -4 -20 -10z"/>
<path d="M216 2538 c-11 -43 -6 -53 13 -23 18 29 18 45 2 45 -5 0 -11 -10 -15
-22z"/>
<path d="M456 2545 c-3 -8 -1 -15 4 -15 13 0 22 18 11 24 -5 3 -11 -1 -15 -9z"/>
<path d="M700 2546 c0 -9 5 -16 10 -16 6 0 10 4 10 9 0 6 -4 13 -10 16 -5 3
-10 -1 -10 -9z"/>
<path d="M855 2550 c-4 -6 -23 -9 -43 -8 -35 3 -37 1 -37 -27 0 -24 5 -31 23
-33 28 -4 59 17 42 28 -7 5 -2 10 14 14 14 3 26 13 26 21 0 17 -16 20 -25 5z"/>
<path d="M889 2524 c-22 -24 -23 -26 -4 -23 11 2 26 0 33 -4 7 -5 12 -3 12 4
0 7 3 10 6 7 3 -4 1 -16 -6 -27 -12 -23 1 -29 19 -7 14 16 -4 76 -23 76 -7 0
-23 -12 -37 -26z"/>
<path d="M1375 2520 c-34 -35 -29 -46 11 -26 25 14 30 14 46 -1 25 -23 22 -3
-5 30 l-23 27 -29 -30z"/>
<path d="M1460 2535 c-10 -12 -10 -15 4 -15 19 0 20 -4 5 -31 -10 -19 -9 -20
11 -9 29 15 35 36 17 55 -19 19 -22 19 -37 0z"/>
<path d="M1822 2537 c-7 -8 -28 -12 -56 -10 -25 2 -47 -1 -51 -7 -3 -5 3 -10
14 -10 11 0 23 -5 26 -10 6 -10 54 -3 69 11 5 4 15 5 22 2 9 -3 14 2 14 16 0
23 -22 28 -38 8z"/>
<path d="M420 2530 c0 -5 5 -10 10 -10 6 0 10 5 10 10 0 6 -4 10 -10 10 -5 0
-10 -4 -10 -10z"/>
<path d="M590 2536 c0 -2 7 -6 15 -10 8 -3 15 -1 15 4 0 6 -7 10 -15 10 -8 0
-15 -2 -15 -4z"/>
<path d="M2680 2525 c-10 -12 -10 -15 4 -15 9 0 16 7 16 15 0 8 -2 15 -4 15
-2 0 -9 -7 -16 -15z"/>
<path d="M323 2515 c-3 -9 3 -25 12 -35 17 -19 17 -20 0 -20 -12 0 -16 -6 -12
-20 4 -15 1 -20 -11 -18 -10 2 -20 8 -24 13 -5 6 -8 5 -8 -3 0 -7 7 -15 15
-18 10 -4 13 -13 9 -26 -10 -32 13 -12 36 30 10 20 19 31 20 24 0 -7 4 -11 9
-8 5 3 11 -1 15 -9 5 -15 37 -21 49 -9 11 11 -14 46 -29 40 -10 -4 -19 7 -30
34 -17 41 -40 52 -51 25z"/>
<path d="M2460 2510 c0 -5 5 -10 10 -10 6 0 10 5 10 10 0 6 -4 10 -10 10 -5 0
-10 -4 -10 -10z"/>
<path d="M457 2504 c-7 -7 14 -44 25 -44 4 0 5 7 2 15 -4 8 -1 15 6 15 6 0 8
5 5 10 -7 11 -28 13 -38 4z"/>
<path d="M614 2489 c-10 -13 -14 -19 -7 -16 6 4 20 -5 31 -20 l20 -27 -3 32
c-3 47 -17 57 -41 31z"/>
<path d="M2210 2499 c0 -5 5 -7 10 -4 6 3 10 8 10 11 0 2 -4 4 -10 4 -5 0 -10
-5 -10 -11z"/>
<path d="M2765 2499 c-11 -17 1 -21 15 -4 8 9 8 15 2 15 -6 0 -14 -5 -17 -11z"/>
<path d="M1680 2481 c-14 -28 -13 -31 13 -31 22 0 57 27 57 43 0 17 -60 6 -70
-12z"/>
<path d="M2066 2483 c-7 -20 -46 -49 -46 -33 0 13 -47 13 -55 0 -3 -5 -1 -10
5 -10 6 0 8 -4 5 -10 -3 -5 -2 -10 3 -10 5 0 12 -10 16 -22 4 -17 8 -20 17
-11 6 6 17 9 24 6 10 -3 12 2 8 19 -6 21 -5 22 12 8 17 -14 18 -13 11 14 -5
22 -4 27 6 23 14 -5 56 19 47 27 -2 2 -14 7 -26 10 -16 5 -23 2 -27 -11z"/>
<path d="M2705 2491 c-6 -11 9 -23 19 -14 9 9 7 23 -3 23 -6 0 -12 -4 -16 -9z"/>
<path d="M2136 2481 c-4 -7 -5 -15 -2 -18 9 -9 19 4 14 18 -4 11 -6 11 -12 0z"/>
<path d="M2573 2475 c-8 -22 6 -33 17 -15 13 20 12 30 0 30 -6 0 -13 -7 -17
-15z"/>
<path d="M564 2458 c3 -13 6 -31 6 -40 0 -10 5 -18 10 -18 6 0 10 18 10 40 0
30 -4 40 -16 40 -12 0 -15 -6 -10 -22z"/>
<path d="M2420 2461 c-16 -31 -12 -37 10 -13 22 23 25 32 10 32 -5 0 -14 -9
-20 -19z"/>
<path d="M670 2449 c0 -16 5 -20 20 -16 13 3 20 0 20 -9 0 -8 -5 -14 -11 -14
-5 0 -7 -4 -4 -10 3 -5 3 -10 -2 -10 -4 0 -19 -10 -33 -21 l-25 -20 35 6 c19
4 45 18 58 31 l22 25 -27 30 c-33 34 -53 37 -53 8z"/>
<path d="M1500 2455 c0 -8 9 -15 20 -15 13 0 18 5 14 15 -4 8 -12 15 -20 15
-8 0 -14 -7 -14 -15z"/>
<path d="M1758 2450 c-15 -16 -15 -19 -1 -24 13 -5 13 -9 2 -23 -8 -9 -14 -19
-14 -22 0 -3 -9 -5 -19 -6 -25 0 -33 -23 -11 -31 15 -6 15 -8 0 -24 -21 -23
-4 -33 23 -14 12 8 19 21 15 29 -3 10 -1 13 9 10 18 -7 41 38 27 52 -6 6 -4
10 5 10 8 0 17 -11 20 -23 5 -17 16 -25 41 -30 19 -3 32 -10 29 -15 -3 -5 -1
-9 5 -9 10 0 32 61 25 69 -2 2 -12 -3 -22 -12 -23 -21 -36 -21 -53 -1 -12 15
-11 16 9 10 13 -5 22 -3 22 3 0 6 14 20 31 30 28 17 29 20 11 25 -22 7 -52 -2
-52 -15 0 -16 -20 -10 -37 11 -21 24 -43 24 -65 0z"/>
<path d="M2188 2463 c-1 -5 -20 -16 -40 -25 -47 -22 -50 -40 -5 -31 27 5 77
43 77 59 0 7 -28 4 -32 -3z"/>
<path d="M842 2439 c-6 -15 -5 -30 2 -41 10 -17 11 -16 18 3 6 17 10 18 22 7
17 -16 12 -26 -22 -39 -18 -7 -27 -6 -33 2 -10 18 -40 3 -33 -16 4 -9 13 -14
20 -11 8 3 14 -1 14 -9 0 -18 -17 -29 -22 -13 -3 9 -6 9 -12 0 -4 -7 -2 -12 3
-12 6 0 11 -16 11 -35 0 -19 5 -35 10 -35 6 0 10 6 10 14 0 17 27 29 35 16 3
-5 -2 -22 -12 -37 -12 -19 -14 -25 -4 -18 11 6 13 4 8 -8 -4 -11 -1 -17 8 -17
18 0 19 12 3 28 -9 9 -9 12 0 12 7 0 12 -4 12 -10 0 -19 18 -10 24 13 l7 22
10 -24 c5 -13 8 -24 7 -25 -25 -10 -44 -27 -46 -45 -4 -25 10 -28 28 -6 9 11
16 13 24 5 19 -19 29 -10 23 20 -4 16 -2 32 3 35 15 9 12 25 -5 25 -8 0 -15 7
-15 15 0 11 -7 14 -23 10 -18 -5 -26 -1 -35 19 -6 14 -16 26 -22 26 -5 0 -10
7 -10 16 0 12 6 15 24 10 15 -4 26 -1 29 7 5 11 11 -26 8 -45 0 -5 3 -8 8 -8
16 0 20 45 6 67 -19 28 -19 44 -1 37 9 -3 17 3 21 16 10 30 -7 45 -33 29 -18
-11 -24 -10 -41 5 -20 18 -21 18 -29 -5z"/>
<path d="M2095 2440 c-3 -5 -2 -10 4 -10 5 0 13 5 16 10 3 6 2 10 -4 10 -5 0
-13 -4 -16 -10z"/>
<path d="M773 2425 c-3 -9 -3 -18 0 -22 10 -10 37 6 37 22 0 20 -29 20 -37 0z"/>
<path d="M2558 2435 c-8 -8 2 -45 13 -45 10 0 10 8 0 33 -3 10 -9 15 -13 12z"/>
<path d="M460 2426 c0 -2 7 -16 15 -32 12 -23 15 -25 21 -11 8 23 -2 47 -21
47 -8 0 -15 -2 -15 -4z"/>
<path d="M2207 2423 c-10 -9 -9 -73 1 -73 11 0 52 67 45 74 -8 8 -38 8 -46 -1z"/>
<path d="M2462 2398 c-6 -17 -11 -33 -9 -34 1 -1 13 2 26 7 20 8 21 12 10 25
-10 13 -10 17 2 25 12 7 12 9 -1 9 -9 0 -21 -14 -28 -32z"/>
<path d="M235 2411 c-3 -6 4 -15 15 -21 22 -12 23 -10 14 14 -7 18 -20 21 -29
7z"/>
<path d="M2375 2410 c3 -5 8 -10 11 -10 2 0 4 5 4 10 0 6 -5 10 -11 10 -5 0
-7 -4 -4 -10z"/>
<path d="M190 2396 c0 -9 5 -16 10 -16 6 0 10 4 10 9 0 6 -4 13 -10 16 -5 3
-10 -1 -10 -9z"/>
<path d="M1925 2389 c-4 -6 -1 -15 6 -20 21 -13 31 -11 27 8 -4 20 -24 28 -33
12z"/>
<path d="M2656 2379 c-10 -12 -16 -22 -14 -24 6 -6 48 15 48 24 0 20 -17 19
-34 0z"/>
<path d="M2765 2390 c3 -5 8 -10 11 -10 2 0 4 5 4 10 0 6 -5 10 -11 10 -5 0
-7 -4 -4 -10z"/>
<path d="M503 2357 c-6 -13 -7 -30 -3 -38 5 -8 5 -21 1 -28 -6 -10 -10 -9 -15
4 -5 14 -9 15 -21 5 -19 -16 -19 -31 -1 -24 8 3 16 -2 18 -11 3 -15 6 -14 31
5 27 21 32 44 21 88 -8 28 -18 28 -31 -1z"/>
<path d="M2074 2335 c-3 -8 -3 -19 0 -24 10 -15 56 8 49 25 -7 18 -42 18 -49
-1z"/>
<path d="M2265 2334 c-11 -12 -13 -19 -5 -24 6 -4 8 -14 4 -23 -4 -13 -1 -17
15 -17 19 0 21 5 19 36 -3 43 -11 50 -33 28z"/>
<path d="M2557 2330 c-3 -11 -1 -20 4 -20 5 0 9 2 9 4 0 2 3 11 6 20 3 9 2 16
-4 16 -5 0 -12 -9 -15 -20z"/>
<path d="M360 2310 c0 -10 12 -31 26 -45 19 -19 24 -21 20 -8 -3 10 -8 30 -12
46 -7 31 -34 37 -34 7z"/>
<path d="M2172 2323 c-6 -2 -10 -8 -7 -13 3 -4 -11 -11 -30 -14 -25 -5 -35
-12 -35 -25 0 -10 -12 -23 -26 -30 l-27 -12 39 -19 c48 -25 47 -25 40 5 -5 20
0 31 20 50 30 27 40 30 49 15 5 -8 11 -7 21 1 16 13 19 39 5 39 -5 0 -15 2
-23 4 -7 3 -19 2 -26 -1z"/>
<path d="M2040 2309 c0 -5 5 -7 10 -4 6 3 10 8 10 11 0 2 -4 4 -10 4 -5 0 -10
-5 -10 -11z"/>
<path d="M2350 2304 c0 -8 -4 -13 -9 -9 -15 8 -33 -32 -29 -63 3 -24 6 -21 28
27 13 30 26 49 28 43 5 -17 22 -15 22 3 0 8 -9 15 -20 15 -11 0 -20 -7 -20
-16z"/>
<path d="M2640 2305 c0 -8 4 -15 9 -15 5 0 11 7 15 15 3 9 0 15 -9 15 -8 0
-15 -7 -15 -15z"/>
<path d="M281 2292 c14 -22 59 -25 59 -4 0 6 -3 12 -7 13 -5 0 -21 3 -36 5
-25 4 -27 3 -16 -14z"/>
<path d="M1860 2295 c0 -10 8 -14 22 -12 32 5 35 27 4 27 -16 0 -26 -6 -26
-15z"/>
<path d="M599 2300 c-9 -34 -4 -78 11 -92 10 -9 20 -23 23 -30 3 -9 9 -8 21 7
13 17 17 18 26 5 5 -8 10 -26 10 -40 1 -22 2 -23 11 -7 6 9 15 15 21 11 7 -4
8 2 3 17 -11 36 -45 60 -76 53 -23 -4 -26 -2 -22 18 3 19 -23 74 -28 58z"/>
<path d="M2800 2290 c0 -5 5 -10 10 -10 6 0 10 5 10 10 0 6 -4 10 -10 10 -5 0
-10 -4 -10 -10z"/>
<path d="M247 2268 c-4 -12 -4 -24 -1 -27 6 -7 24 20 24 37 0 21 -17 13 -23
-10z"/>
<path d="M960 2274 c0 -17 22 -14 28 4 2 7 -3 12 -12 12 -9 0 -16 -7 -16 -16z"/>
<path d="M2368 2259 c-17 -18 -11 -28 6 -11 4 4 13 7 19 7 5 0 12 6 15 13 6
18 -21 13 -40 -9z"/>
<path d="M281 2244 c0 -11 3 -14 6 -6 3 7 2 16 -1 19 -3 4 -6 -2 -5 -13z"/>
<path d="M300 2250 c0 -5 5 -10 10 -10 6 0 10 5 10 10 0 6 -4 10 -10 10 -5 0
-10 -4 -10 -10z"/>
<path d="M2524 2236 c-16 -13 -26 -27 -23 -31 4 -3 19 5 34 20 37 33 26 44
-11 11z"/>
<path d="M2730 2250 c0 -5 5 -10 10 -10 6 0 10 5 10 10 0 6 -4 10 -10 10 -5 0
-10 -4 -10 -10z"/>
<path d="M2215 2228 c-10 -15 -11 -24 -5 -26 11 -4 39 25 40 41 0 15 -19 6
-35 -15z"/>
<path d="M2406 2221 c-4 -7 -5 -15 -2 -18 9 -9 19 4 14 18 -4 11 -6 11 -12 0z"/>
<path d="M2470 2210 c0 -5 5 -10 10 -10 6 0 10 5 10 10 0 6 -4 10 -10 10 -5 0
-10 -4 -10 -10z"/>
<path d="M2650 2190 c0 -5 5 -10 10 -10 6 0 10 5 10 10 0 6 -4 10 -10 10 -5 0
-10 -4 -10 -10z"/>
<path d="M2756 2191 c-4 -7 -5 -15 -2 -18 9 -9 19 4 14 18 -4 11 -6 11 -12 0z"/>
<path d="M2404 2149 c-1 -26 2 -36 7 -28 4 8 11 13 14 12 3 -2 12 -3 22 -3 15
0 15 2 -1 19 -10 11 -15 25 -11 30 3 6 -2 11 -12 11 -15 0 -19 -8 -19 -41z"/>
<path d="M230 2166 c0 -9 7 -12 20 -9 11 3 20 9 20 14 0 5 -9 9 -20 9 -11 0
-20 -6 -20 -14z"/>
<path d="M2235 2160 c3 -5 13 -10 21 -10 8 0 14 5 14 10 0 6 -9 10 -21 10 -11
0 -17 -4 -14 -10z"/>
<path d="M2480 2154 c0 -9 5 -14 12 -12 18 6 21 28 4 28 -9 0 -16 -7 -16 -16z"/>
<path d="M2715 2150 c3 -5 11 -10 16 -10 6 0 7 5 4 10 -3 6 -11 10 -16 10 -6
0 -7 -4 -4 -10z"/>
<path d="M2660 2141 c0 -6 -7 -11 -16 -11 -8 0 -12 -5 -9 -10 4 -6 10 -8 15
-5 13 8 38 -5 44 -23 2 -10 4 -1 3 18 -1 24 -7 36 -19 38 -10 2 -18 -1 -18 -7z"/>
<path d="M2252 2117 c-24 -25 -28 -37 -12 -37 13 0 60 41 60 52 0 16 -27 8
-48 -15z"/>
<path d="M256 2113 c-4 -9 -2 -21 4 -27 12 -12 15 -8 24 22 9 27 -18 32 -28 5z"/>
<path d="M2320 2120 c0 -5 7 -10 15 -10 8 0 15 5 15 10 0 6 -7 10 -15 10 -8 0
-15 -4 -15 -10z"/>
<path d="M2475 2110 c-3 -5 -1 -10 4 -10 6 0 11 5 11 10 0 6 -2 10 -4 10 -3 0
-8 -4 -11 -10z"/>
<path d="M2507 2093 c-12 -11 -8 -23 8 -23 8 0 15 7 15 15 0 16 -12 20 -23 8z"/>
<path d="M2280 2075 c-7 -9 -11 -18 -8 -20 9 -10 38 7 38 21 0 18 -14 18 -30
-1z"/>
<path d="M2370 2060 c-6 -11 -18 -20 -26 -20 -8 0 -13 -4 -9 -10 3 -5 12 -7
20 -3 22 8 18 -5 -10 -39 -28 -33 -29 -37 -16 -57 13 -19 45 -5 39 17 -3 10 0
23 6 29 30 32 36 44 29 56 -4 6 -6 20 -5 30 4 23 -15 22 -28 -3z"/>
<path d="M225 2048 c-10 -23 0 -48 20 -48 8 0 15 7 15 15 0 8 -4 15 -9 15 -5
0 -11 8 -14 18 -4 16 -4 16 -12 0z"/>
<path d="M2480 2044 c0 -8 5 -12 10 -9 6 4 8 11 5 16 -9 14 -15 11 -15 -7z"/>
<path d="M2577 2043 c-10 -9 -9 -23 2 -23 5 0 11 7 15 15 5 15 -5 20 -17 8z"/>
<path d="M2598 2019 c-18 -19 -24 -39 -12 -39 9 0 54 44 54 53 0 13 -25 5 -42
-14z"/>
<path d="M415 2020 c-8 -12 12 -40 28 -40 5 0 15 -8 22 -17 12 -16 15 -14 34
17 22 37 26 50 14 50 -16 0 -31 -16 -35 -35 -4 -18 -6 -17 -18 8 -14 28 -34
35 -45 17z"/>
<path d="M2278 2022 c-21 -4 -24 -32 -4 -32 8 0 17 7 20 16 8 20 6 21 -16 16z"/>
<path d="M2454 2005 c-19 -14 -18 -14 4 -15 13 0 22 6 22 15 0 19 -1 19 -26 0z"/>
<path d="M2515 2000 c-9 -15 -1 -23 21 -18 15 3 16 4 1 16 -11 9 -17 10 -22 2z"/>
<path d="M2406 1992 c-3 -6 -1 -14 5 -17 15 -10 25 3 12 16 -7 7 -13 7 -17 1z"/>
<path d="M570 1971 c0 -11 -3 -28 -6 -38 -3 -11 4 -7 20 11 25 31 26 46 0 46
-8 0 -14 -9 -14 -19z"/>
<path d="M2258 1973 c-10 -3 -18 -12 -18 -20 0 -9 -8 -22 -17 -29 -10 -7 -15
-16 -11 -19 12 -12 40 4 45 25 3 11 9 18 13 15 12 -7 24 15 14 24 -5 4 -17 6
-26 4z"/>
<path d="M405 1928 c3 -24 11 -56 17 -71 12 -32 5 -45 -16 -28 -8 7 -19 10
-25 7 -5 -3 -11 1 -15 9 -3 8 -15 15 -26 15 -16 0 -21 -5 -18 -22 2 -13 10
-24 18 -24 8 -1 23 -2 34 -3 12 -1 16 -6 12 -17 -4 -12 -2 -15 9 -10 8 3 15 1
15 -4 0 -17 28 -11 34 8 3 9 7 36 8 59 2 24 7 43 12 43 4 0 6 -9 3 -20 -3 -12
0 -20 8 -20 7 0 15 -9 18 -20 3 -13 0 -20 -9 -20 -8 0 -14 -10 -14 -25 0 -31
16 -33 25 -4 6 17 9 19 16 8 7 -9 8 -4 3 16 -4 22 -3 26 4 16 6 -8 18 -16 27
-17 13 -2 15 3 11 22 -4 14 -2 24 4 24 5 0 10 7 10 16 0 14 3 14 15 4 18 -15
20 1 3 18 -16 16 -55 15 -61 -2 -3 -7 0 -19 6 -25 6 -6 7 -11 2 -11 -14 0 -75
74 -75 91 0 17 -19 29 -47 29 -12 0 -13 -8 -8 -42z"/>
<path d="M2380 1958 c0 -18 18 -34 28 -24 3 4 -2 14 -11 23 -16 16 -17 16 -17
1z"/>
<path d="M508 1948 c-7 -19 2 -38 18 -38 8 0 14 10 14 25 0 26 -24 35 -32 13z"/>
<path d="M2658 1935 c-6 -14 -18 -25 -25 -25 -8 0 -11 -4 -8 -10 3 -5 10 -10
14 -10 13 0 51 41 51 55 0 24 -19 17 -32 -10z"/>
<path d="M2431 1917 c-20 -25 18 -37 49 -17 13 9 13 11 0 20 -21 13 -36 12
-49 -3z"/>
<path d="M205 1910 c-3 -5 1 -10 9 -10 9 0 16 5 16 10 0 6 -4 10 -9 10 -6 0
-13 -4 -16 -10z"/>
<path d="M2581 1904 c0 -11 3 -14 6 -6 3 7 2 16 -1 19 -3 4 -6 -2 -5 -13z"/>
<path d="M330 1900 c0 -5 4 -10 9 -10 6 0 13 5 16 10 3 6 -1 10 -9 10 -9 0
-16 -4 -16 -10z"/>
<path d="M2482 1869 c-18 -16 -30 -34 -27 -39 3 -5 17 2 32 16 14 13 32 24 39
24 8 0 14 7 14 15 0 23 -22 17 -58 -16z"/>
<path d="M2317 1879 c-9 -6 -17 -7 -17 -4 0 3 -13 -1 -30 -10 -16 -9 -30 -22
-30 -30 0 -19 8 -19 26 0 9 8 21 15 27 15 7 -1 -3 -13 -20 -29 -36 -30 -41
-41 -18 -41 8 0 15 4 15 8 0 13 48 32 64 26 12 -5 15 2 12 30 -4 44 -6 47 -29
35z"/>
<path d="M230 1865 c0 -9 7 -18 15 -21 12 -5 12 -8 0 -20 -7 -8 -18 -14 -24
-14 -13 0 -14 -20 -3 -38 6 -9 16 -10 32 -4 15 6 19 11 12 16 -19 12 -14 36 8
36 26 0 27 36 1 50 -28 14 -41 13 -41 -5z"/>
<path d="M2745 1871 c-3 -5 -1 -12 5 -16 5 -3 10 1 10 9 0 18 -6 21 -15 7z"/>
<path d="M2517 1843 c-15 -14 -6 -31 12 -26 26 7 36 33 12 33 -10 0 -21 -3
-24 -7z"/>
<path d="M2670 1830 c0 -5 5 -10 10 -10 6 0 10 5 10 10 0 6 -4 10 -10 10 -5 0
-10 -4 -10 -10z"/>
<path d="M2400 1810 c-12 -7 -11 -10 5 -16 11 -4 23 -12 27 -18 4 -6 10 -3 14
8 4 11 2 21 -7 27 -17 11 -21 11 -39 -1z"/>
<path d="M2576 1804 c-4 -10 -1 -14 6 -12 15 5 23 28 10 28 -5 0 -13 -7 -16
-16z"/>
<path d="M320 1790 c0 -5 5 -10 10 -10 6 0 10 5 10 10 0 6 -4 10 -10 10 -5 0
-10 -4 -10 -10z"/>
<path d="M2615 1792 c-9 -9 -5 -33 4 -28 5 4 11 0 14 -6 6 -17 41 2 45 24 2
10 -6 15 -28 15 -16 0 -32 -3 -35 -5z"/>
<path d="M2292 1778 c-16 -16 -15 -26 1 -24 22 2 22 -19 0 -22 -15 -2 -23 2
-23 12 0 8 -4 17 -8 20 -12 7 -52 -4 -52 -15 0 -5 7 -6 15 -3 9 4 15 0 15 -9
0 -41 64 -36 100 8 11 13 10 18 -6 30 -23 18 -27 18 -42 3z"/>
<path d="M2463 1779 c-6 -6 -9 -18 -6 -25 3 -8 -1 -14 -11 -14 -15 0 -56 -54
-56 -73 0 -10 49 16 78 41 14 12 20 26 16 36 -3 9 -1 16 5 16 6 0 11 7 11 15
0 18 -21 20 -37 4z"/>
<path d="M277 1754 c-3 -3 1 -13 9 -21 8 -9 18 -12 21 -9 4 4 0 13 -8 21 -8 9
-18 13 -22 9z"/>
<path d="M352 1728 c3 -37 27 -64 41 -45 6 9 10 9 13 1 3 -6 11 -20 19 -30 13
-18 14 -17 15 14 0 18 -4 31 -9 27 -5 -3 -12 -1 -16 5 -4 6 -10 8 -15 5 -4 -3
-13 9 -19 25 -13 40 -32 38 -29 -2z"/>
<path d="M2551 1739 c-26 -29 -26 -36 0 -34 25 2 46 32 31 47 -6 6 -17 2 -31
-13z"/>
<path d="M2380 1740 c0 -5 7 -10 15 -10 8 0 15 5 15 10 0 6 -7 10 -15 10 -8 0
-15 -4 -15 -10z"/>
<path d="M2337 1720 c-3 -13 0 -20 9 -20 8 0 14 9 14 20 0 11 -4 20 -9 20 -5
0 -11 -9 -14 -20z"/>
<path d="M2738 1733 c7 -3 16 -2 19 1 4 3 -2 6 -13 5 -11 0 -14 -3 -6 -6z"/>
<path d="M220 1705 c0 -14 -11 -19 -37 -16 -19 3 -16 -9 9 -28 12 -10 29 -16
39 -14 21 6 32 42 17 60 -14 17 -28 16 -28 -2z"/>
<path d="M461 1711 c-9 -6 -10 -11 -3 -15 6 -4 9 -14 6 -24 -5 -14 -3 -14 10
2 27 34 19 57 -13 37z"/>
<path d="M2597 1714 c-10 -11 3 -24 23 -24 10 0 22 5 26 12 5 8 2 9 -9 5 -10
-3 -17 -2 -17 3 0 11 -13 13 -23 4z"/>
<path d="M307 1684 c-8 -8 1 -24 14 -24 5 0 9 7 9 15 0 15 -12 20 -23 9z"/>
<path d="M2665 1677 c-17 -13 -17 -14 4 -20 16 -4 21 -1 21 14 0 23 -1 23 -25
6z"/>
<path d="M2548 1669 c-26 -15 -22 -27 7 -21 14 2 25 11 25 18 0 16 -8 17 -32
3z"/>
<path d="M2435 1656 c-24 -10 -26 -13 -12 -19 22 -8 47 1 47 19 0 8 -1 14 -2
14 -2 -1 -16 -7 -33 -14z"/>
<path d="M272 1626 c-25 -32 -30 -56 -7 -33 8 9 20 17 26 19 6 2 10 12 8 23
-4 17 -6 16 -27 -9z"/>
<path d="M330 1640 c0 -5 5 -10 10 -10 6 0 10 5 10 10 0 6 -4 10 -10 10 -5 0
-10 -4 -10 -10z"/>
<path d="M373 1633 c-17 -6 -16 -33 2 -57 15 -20 15 -20 15 0 0 10 14 -8 30
-41 19 -38 28 -49 25 -31 -3 15 -9 42 -12 59 -7 36 -42 77 -60 70z"/>
<path d="M200 1610 c0 -5 5 -10 10 -10 6 0 10 5 10 10 0 6 -4 10 -10 10 -5 0
-10 -4 -10 -10z"/>
<path d="M2370 1590 c-17 -13 -19 -19 -9 -22 11 -4 10 -10 -4 -31 l-17 -27 29
0 c16 0 33 -5 37 -11 4 -7 10 -7 16 -1 6 6 16 8 23 6 7 -3 24 9 39 26 26 31
34 60 17 60 -13 0 -33 -28 -28 -38 3 -4 -3 -14 -15 -21 -18 -11 -19 -10 -12
11 4 13 14 28 22 34 11 8 12 13 3 19 -8 4 -28 -5 -52 -24 -28 -23 -37 -27 -32
-14 3 10 12 23 20 29 24 20 -10 24 -37 4z"/>
<path d="M2676 1574 c-10 -25 -1 -27 25 -5 24 20 24 20 3 21 -12 0 -25 -7 -28
-16z"/>
<path d="M2765 1580 c3 -5 8 -10 11 -10 2 0 4 5 4 10 0 6 -5 10 -11 10 -5 0
-7 -4 -4 -10z"/>
<path d="M227 1574 c-4 -4 -7 -14 -7 -23 0 -11 3 -12 11 -4 6 6 10 16 7 23 -2
6 -7 8 -11 4z"/>
<path d="M265 1560 c3 -5 8 -10 11 -10 2 0 4 5 4 10 0 6 -5 10 -11 10 -5 0 -7
-4 -4 -10z"/>
<path d="M300 1555 c0 -8 2 -15 4 -15 2 0 6 7 10 15 3 8 1 15 -4 15 -6 0 -10
-7 -10 -15z"/>
<path d="M2532 1548 c-18 -18 -14 -30 7 -19 10 6 21 7 25 4 3 -3 6 1 6 10 0
20 -21 22 -38 5z"/>
<path d="M330 1540 c0 -5 5 -10 10 -10 6 0 10 5 10 10 0 6 -4 10 -10 10 -5 0
-10 -4 -10 -10z"/>
<path d="M2602 1531 c-11 -7 -11 -9 2 -14 10 -4 16 -1 16 8 0 17 -1 17 -18 6z"/>
<path d="M2696 1521 c-16 -18 -12 -31 10 -31 13 0 26 38 14 45 -4 2 -15 -4
-24 -14z"/>
<path d="M283 1518 c2 -7 10 -13 17 -13 7 0 15 6 18 13 2 7 -5 12 -18 12 -13
0 -20 -5 -17 -12z"/>
<path d="M2475 1500 c-4 -11 -11 -18 -16 -15 -5 4 -9 -3 -9 -14 0 -12 -4 -21
-9 -21 -5 0 -11 -6 -14 -14 -4 -10 0 -14 14 -13 10 1 19 5 19 10 0 4 12 19 28
32 15 14 21 25 13 25 -7 0 -11 6 -7 15 3 8 1 15 -4 15 -5 0 -12 -9 -15 -20z"/>
<path d="M2525 1510 c-3 -5 1 -10 9 -10 8 0 18 5 21 10 3 6 -1 10 -9 10 -8 0
-18 -4 -21 -10z"/>
<path d="M247 1503 c-4 -3 -7 -11 -7 -17 0 -6 5 -5 12 2 6 6 9 14 7 17 -3 3
-9 2 -12 -2z"/>
<path d="M320 1490 c0 -5 -7 -10 -16 -10 -11 0 -14 -8 -12 -27 2 -16 7 -26 11
-23 4 3 22 -19 39 -48 33 -57 49 -63 27 -10 -10 24 -10 33 -1 36 7 2 12 13 12
25 0 18 2 19 10 7 5 -8 10 -10 10 -5 0 6 3 21 7 34 6 22 4 23 -25 19 -18 -2
-32 -1 -32 4 0 4 -7 8 -15 8 -8 0 -15 -4 -15 -10z m32 -52 c-15 -15 -26 -4
-18 18 5 13 9 15 18 6 9 -9 9 -15 0 -24z"/>
<path d="M225 1460 c-4 -6 -11 -8 -16 -5 -15 10 -22 -24 -9 -40 11 -14 7 -19
-13 -16 -4 1 -10 -6 -14 -15 -4 -11 2 -24 18 -36 26 -21 40 -8 19 17 -8 10 -9
15 -2 15 6 0 12 7 14 17 3 15 4 15 17 -1 11 -13 11 -16 1 -14 -7 2 -15 -3 -17
-10 -5 -14 28 -5 38 11 3 4 14 1 23 -8 9 -10 20 -15 23 -11 10 10 -27 45 -51
48 -16 2 -20 9 -18 31 3 28 -2 35 -13 17z"/>
<path d="M2534 1459 c-3 -6 -1 -16 5 -22 8 -8 11 -5 11 11 0 24 -5 28 -16 11z"/>
<path d="M2583 1423 c-18 -6 -16 -23 1 -23 17 0 30 16 19 23 -5 2 -14 2 -20 0z"/>
<path d="M2519 1395 c-9 -9 -29 -17 -45 -19 -16 -2 -33 -4 -37 -5 -5 0 -5 -6
-1 -12 3 -6 0 -15 -7 -20 -11 -7 -10 -9 4 -9 9 0 17 7 17 16 0 8 5 12 10 9 6
-4 8 -16 4 -28 -5 -17 2 -13 30 16 20 20 43 37 51 37 8 0 15 7 15 15 0 19 -21
19 -41 0z"/>
<path d="M2665 1363 c-4 -12 -15 -22 -24 -21 -35 3 -51 -3 -51 -18 0 -18 37
-16 57 3 7 6 18 13 24 15 6 2 9 13 6 23 -5 19 -5 19 -12 -2z"/>
<path d="M2513 1334 c-14 -14 -23 -27 -20 -30 6 -7 77 36 77 47 0 18 -31 9
-57 -17z"/>
<path d="M270 1305 c0 -24 -26 -28 -55 -9 -29 19 -50 9 -39 -20 5 -13 9 -14
14 -6 10 17 31 3 24 -15 -4 -8 1 -18 10 -21 9 -3 15 -13 14 -22 -2 -8 3 -17
11 -20 10 -3 13 3 9 27 -5 33 1 38 20 19 9 -9 12 -6 12 16 0 15 4 25 10 21 11
-7 13 6 4 29 -8 20 -34 21 -34 1z"/>
<path d="M324 1289 c-6 -10 12 -29 29 -29 9 0 9 4 1 24 -7 19 -20 21 -30 5z"/>
<path d="M413 1285 c-15 -11 -16 -14 -1 -29 15 -14 18 -14 42 5 14 11 26 23
26 27 0 12 -49 10 -67 -3z"/>
<path d="M2543 1265 c2 -36 6 -39 44 -29 27 7 21 24 -9 24 -15 0 -19 5 -15 20
3 13 0 20 -9 20 -10 0 -13 -10 -11 -35z"/>
<path d="M2403 1254 c-17 -13 -17 -13 3 -14 11 0 25 -5 32 -12 7 -7 12 -10 13
-7 0 2 2 11 4 21 4 22 -29 30 -52 12z"/>
<path d="M305 1239 c-4 -5 -4 -27 1 -47 5 -25 9 -31 12 -18 3 15 10 12 43 -23
44 -45 49 -43 18 9 -14 22 -17 36 -10 38 6 2 8 8 5 14 -4 6 2 8 16 3 16 -5 21
-4 18 6 -3 8 -14 14 -25 15 -11 1 -32 4 -46 8 -15 3 -29 1 -32 -5z"/>
<path d="M2647 1233 c-3 -5 1 -14 9 -21 12 -11 14 -9 14 8 0 20 -14 27 -23 13z"/>
<path d="M2390 1200 c0 -12 6 -20 13 -19 30 4 57 -2 57 -12 0 -7 -10 -9 -24
-5 -14 3 -27 2 -30 -2 -9 -14 6 -52 19 -52 13 0 95 73 95 84 0 3 -21 5 -47 4
-27 0 -49 4 -51 11 -6 19 -32 12 -32 -9z"/>
<path d="M245 1160 c3 -5 8 -10 11 -10 2 0 4 5 4 10 0 6 -5 10 -11 10 -5 0 -7
-4 -4 -10z"/>
<path d="M2670 1155 c-7 -9 -10 -18 -6 -22 3 -3 6 0 7 8 1 8 5 3 9 -11 8 -24
8 -23 9 8 1 36 -1 38 -19 17z"/>
<path d="M2367 1139 c-3 -12 -3 -35 0 -51 5 -28 6 -28 20 -9 9 14 11 26 5 38
-5 10 -7 24 -5 31 3 6 0 12 -5 12 -5 0 -12 -10 -15 -21z"/>
<path d="M204 1127 c-3 -9 0 -26 7 -39 12 -20 14 -21 17 -5 2 11 10 16 17 13
11 -4 12 0 6 17 -10 26 -39 35 -47 14z"/>
<path d="M296 1114 c-7 -19 1 -34 19 -34 8 0 17 -5 21 -12 5 -8 2 -9 -10 -5
-10 4 -21 5 -26 2 -13 -8 13 -53 33 -59 17 -4 17 -6 2 -35 -8 -17 -11 -31 -6
-31 5 0 12 7 15 16 4 11 12 13 28 8 20 -6 21 -5 10 9 -8 10 -12 35 -11 64 2
40 0 48 -14 45 -11 -2 -19 6 -23 23 -7 28 -29 33 -38 9z"/>
<path d="M2476 1121 c-4 -5 -2 -12 3 -15 5 -4 12 -2 15 3 4 5 2 12 -3 15 -5 4
-12 2 -15 -3z"/>
<path d="M2526 1105 c-8 -22 -8 -22 12 -27 18 -5 60 17 51 26 -2 2 -16 7 -30
11 -19 5 -28 2 -33 -10z"/>
<path d="M2261 1091 c-8 -5 -16 -15 -17 -23 -1 -7 -5 -21 -9 -30 -6 -16 -5
-16 24 -2 17 9 37 14 44 11 7 -3 5 -8 -8 -13 -11 -4 -23 -12 -27 -18 -4 -6
-17 -11 -29 -11 -12 0 -24 -6 -27 -14 -3 -8 0 -11 6 -7 6 4 16 -3 22 -14 12
-22 -2 -59 -23 -61 -7 0 -4 -4 6 -8 17 -6 16 -8 -7 -21 -14 -7 -26 -20 -26
-28 0 -9 -3 -12 -6 -9 -9 8 -44 -11 -44 -23 0 -19 55 -10 70 10 17 24 50 27
50 5 0 -9 -6 -15 -12 -14 -22 4 -68 -24 -68 -41 0 -9 -5 -21 -12 -28 -8 -8 -9
-12 -1 -12 6 0 18 -3 26 -6 11 -4 17 4 22 25 4 17 11 34 17 37 7 5 9 0 6 -14
-4 -12 -3 -24 2 -27 12 -7 55 35 52 51 -2 8 2 14 8 14 5 0 10 5 10 10 0 6 -8
10 -19 10 -20 0 -31 25 -31 73 0 20 5 27 19 27 17 0 31 18 31 41 0 5 -7 9 -15
9 -8 0 -15 5 -15 10 0 6 11 10 25 10 14 0 25 -5 25 -10 0 -16 36 6 44 26 5 13
1 15 -19 12 -22 -5 -25 -2 -25 23 0 18 -5 29 -14 29 -8 0 -20 2 -28 5 -7 3
-19 1 -27 -4z"/>
<path d="M2437 1093 c-14 -13 -6 -25 13 -20 15 4 22 -1 26 -19 8 -31 24 -31
24 -1 0 16 -9 28 -25 35 -30 14 -30 14 -38 5z"/>
<path d="M2626 1065 c-4 -10 1 -15 14 -15 11 0 20 7 20 15 0 8 -6 15 -14 15
-8 0 -16 -7 -20 -15z"/>
<path d="M250 1050 c0 -5 7 -10 15 -10 8 0 15 5 15 10 0 6 -7 10 -15 10 -8 0
-15 -4 -15 -10z"/>
<path d="M2515 1050 c-9 -15 19 -40 35 -30 11 7 11 11 1 24 -15 18 -27 20 -36
6z"/>
<path d="M2693 1053 c-14 -5 -18 -23 -5 -23 5 0 17 7 28 15 14 11 15 14 4 14
-8 0 -21 -3 -27 -6z"/>
<path d="M2390 1035 c0 -8 5 -15 10 -15 6 0 10 7 10 15 0 8 -4 15 -10 15 -5 0
-10 -7 -10 -15z"/>
<path d="M2422 1018 c-7 -7 -26 -17 -44 -22 -47 -16 -45 -32 4 -40 23 -4 50
-14 60 -23 10 -9 21 -13 26 -8 4 4 1 10 -5 12 -7 3 -13 11 -13 18 0 7 -6 15
-12 18 -10 3 -8 9 5 24 9 11 17 23 17 26 0 11 -25 8 -38 -5z"/>
<path d="M460 1000 c0 -13 5 -20 13 -17 6 2 12 10 12 17 0 7 -6 15 -12 18 -8
2 -13 -5 -13 -18z"/>
<path d="M2600 1005 c0 -8 5 -15 10 -15 6 0 10 7 10 15 0 8 -4 15 -10 15 -5 0
-10 -7 -10 -15z"/>
<path d="M220 996 c0 -8 5 -18 10 -21 6 -3 10 1 10 10 0 10 5 13 12 9 7 -4 8
-3 4 4 -10 17 -36 15 -36 -2z"/>
<path d="M2525 976 c-18 -13 -18 -14 2 -25 17 -9 22 -7 27 6 10 24 -7 35 -29
19z"/>
<path d="M2668 963 c7 -3 16 -2 19 1 4 3 -2 6 -13 5 -11 0 -14 -3 -6 -6z"/>
<path d="M2816 961 c-4 -7 -5 -15 -2 -18 9 -9 19 4 14 18 -4 11 -6 11 -12 0z"/>
<path d="M234 946 c-3 -8 -4 -24 -2 -37 3 -19 4 -18 15 10 6 18 7 33 2 37 -5
3 -12 -1 -15 -10z"/>
<path d="M442 949 c2 -7 10 -15 17 -17 8 -3 12 1 9 9 -2 7 -10 15 -17 17 -8 3
-12 -1 -9 -9z"/>
<path d="M397 909 c-3 -24 0 -53 8 -72 8 -18 14 -27 15 -21 0 5 10 20 21 33
21 23 21 23 3 62 -24 50 -40 49 -47 -2z"/>
<path d="M722 938 c-5 -7 -13 -23 -16 -35 -6 -18 -4 -22 8 -17 18 7 22 -11 5
-21 -14 -9 -22 0 -24 28 -1 16 -9 23 -29 25 -24 3 -27 1 -22 -16 4 -13 1 -22
-9 -26 -9 -3 -13 -11 -10 -17 5 -8 10 -8 18 0 27 27 38 -1 12 -30 -14 -15 -14
-18 0 -32 8 -9 15 -20 15 -26 0 -6 7 -11 15 -11 12 0 13 4 5 19 -5 11 -10 30
-10 42 0 22 1 22 13 4 13 -17 14 -17 21 6 l6 24 20 -25 20 -25 1 50 c0 28 3
44 6 37 2 -6 9 -10 13 -7 17 10 -16 65 -38 65 -5 0 -14 -6 -20 -12z"/>
<path d="M2696 934 c-4 -10 -1 -14 6 -12 15 5 23 28 10 28 -5 0 -13 -7 -16
-16z"/>
<path d="M492 928 c6 -18 28 -21 28 -4 0 9 -7 16 -16 16 -9 0 -14 -5 -12 -12z"/>
<path d="M2605 930 c-19 -7 -19 -8 -2 -15 19 -8 31 -2 26 13 -2 5 -13 6 -24 2z"/>
<path d="M2650 930 c0 -5 7 -10 16 -10 8 0 12 5 9 10 -3 6 -10 10 -16 10 -5 0
-9 -4 -9 -10z"/>
<path d="M530 896 c-11 -35 -4 -106 10 -106 5 0 11 10 13 23 l4 22 8 -22 c8
-25 13 -27 33 -14 10 6 10 17 -4 57 -27 83 -46 94 -64 40z"/>
<path d="M2301 914 c0 -11 3 -14 6 -6 3 7 2 16 -1 19 -3 4 -6 -2 -5 -13z"/>
<path d="M2330 920 c0 -5 5 -10 10 -10 6 0 10 5 10 10 0 6 -4 10 -10 10 -5 0
-10 -4 -10 -10z"/>
<path d="M334 906 c-10 -8 -16 -17 -12 -21 7 -7 48 16 48 27 0 12 -14 9 -36
-6z"/>
<path d="M2361 891 l-21 -29 23 -6 c14 -3 26 0 33 9 13 18 24 19 24 4 0 -6 6
-17 14 -24 12 -12 15 -12 20 0 5 15 -44 75 -62 75 -6 0 -20 -13 -31 -29z"/>
<path d="M2114 878 c-4 -6 -2 -14 5 -16 20 -7 -7 -31 -29 -25 -11 3 -20 0 -20
-6 0 -6 -9 -11 -20 -11 -11 0 -20 -4 -20 -10 0 -5 5 -10 10 -10 6 0 10 -5 10
-12 0 -6 -3 -8 -7 -5 -7 8 -32 -22 -33 -39 0 -7 11 -9 27 -6 21 4 25 2 20 -10
-3 -10 3 -20 20 -27 31 -14 32 -14 35 30 3 30 0 34 -19 32 -12 -1 -24 5 -28
14 -3 10 -3 14 1 10 4 -4 13 2 21 13 8 11 20 17 28 14 9 -4 15 0 16 7 1 8 3
26 5 42 3 28 -9 36 -22 15z"/>
<path d="M2711 873 c-7 -15 -5 -18 15 -18 13 0 24 1 24 2 0 1 -3 8 -6 17 -8
21 -21 20 -33 -1z"/>
<path d="M230 850 c-6 -11 -7 -20 -2 -20 10 0 32 21 32 32 0 16 -19 8 -30 -12z"/>
<path d="M2626 854 c-4 -10 -1 -14 6 -12 15 5 23 28 10 28 -5 0 -13 -7 -16
-16z"/>
<path d="M2500 833 c0 -9 -3 -14 -6 -10 -6 6 -34 -16 -34 -27 0 -14 44 -4 56
12 18 23 17 42 -1 42 -8 0 -15 -7 -15 -17z"/>
<path d="M2650 815 c0 -8 5 -15 10 -15 6 0 10 7 10 15 0 8 -4 15 -10 15 -5 0
-10 -7 -10 -15z"/>
<path d="M347 804 c-8 -8 1 -24 14 -24 5 0 9 7 9 15 0 15 -12 20 -23 9z"/>
<path d="M2325 800 c-3 -5 -4 -10 -1 -10 2 0 11 -3 20 -6 11 -4 16 -1 16 10 0
18 -25 22 -35 6z"/>
<path d="M210 789 c0 -5 5 -7 10 -4 6 3 10 8 10 11 0 2 -4 4 -10 4 -5 0 -10
-5 -10 -11z"/>
<path d="M267 794 c-8 -8 24 -64 36 -64 5 0 6 7 3 16 -3 9 -6 24 -6 35 0 18
-20 26 -33 13z"/>
<path d="M2406 791 c-3 -5 0 -14 8 -20 10 -9 15 -8 19 3 9 22 -15 37 -27 17z"/>
<path d="M2583 783 c-18 -7 -16 -43 2 -43 8 0 15 5 15 10 0 6 -6 10 -12 10 -9
0 -8 3 2 10 16 10 11 20 -7 13z"/>
<path d="M1738 768 c-12 -11 -13 -17 -3 -36 10 -19 14 -20 18 -8 4 9 18 16 32
16 23 0 24 2 13 20 -15 23 -37 26 -60 8z"/>
<path d="M1835 760 c-3 -5 1 -10 10 -10 9 0 13 5 10 10 -3 6 -8 10 -10 10 -2
0 -7 -4 -10 -10z"/>
<path d="M2304 759 c-8 -14 11 -33 25 -25 16 10 13 36 -3 36 -8 0 -18 -5 -22
-11z"/>
<path d="M572 749 c2 -7 10 -15 17 -17 8 -3 12 1 9 9 -2 7 -10 15 -17 17 -8 3
-12 -1 -9 -9z"/>
<path d="M200 735 c0 -8 7 -15 15 -15 8 0 15 7 15 15 0 8 -7 15 -15 15 -8 0
-15 -7 -15 -15z"/>
<path d="M2530 741 c0 -5 7 -11 14 -14 10 -4 13 -1 9 9 -6 15 -23 19 -23 5z"/>
<path d="M2600 735 c-7 -9 -11 -17 -9 -19 7 -7 49 13 49 24 0 15 -26 12 -40
-5z"/>
<path d="M2390 729 c0 -5 5 -7 10 -4 6 3 10 8 10 11 0 2 -4 4 -10 4 -5 0 -10
-5 -10 -11z"/>
<path d="M2450 720 c0 -11 5 -20 10 -20 6 0 10 9 10 20 0 11 -4 20 -10 20 -5
0 -10 -9 -10 -20z"/>
<path d="M491 714 c0 -11 3 -14 6 -6 3 7 2 16 -1 19 -3 4 -6 -2 -5 -13z"/>
<path d="M620 722 c0 -5 7 -13 16 -16 22 -8 24 -8 24 6 0 6 -3 8 -7 5 -3 -4
-12 -2 -20 4 -8 7 -13 8 -13 1z"/>
<path d="M2480 715 c0 -8 5 -15 10 -15 6 0 10 7 10 15 0 8 -4 15 -10 15 -5 0
-10 -7 -10 -15z"/>
<path d="M377 713 c-4 -3 -7 -11 -7 -17 0 -6 5 -5 12 2 6 6 9 14 7 17 -3 3 -9
2 -12 -2z"/>
<path d="M2130 709 c0 -5 5 -7 10 -4 6 3 10 8 10 11 0 2 -4 4 -10 4 -5 0 -10
-5 -10 -11z"/>
<path d="M2330 710 c0 -5 5 -10 10 -10 6 0 10 5 10 10 0 6 -4 10 -10 10 -5 0
-10 -4 -10 -10z"/>
<path d="M870 700 c0 -5 5 -10 10 -10 6 0 10 5 10 10 0 6 -4 10 -10 10 -5 0
-10 -4 -10 -10z"/>
<path d="M1030 690 c0 -11 4 -20 9 -20 13 0 32 26 24 33 -13 14 -33 6 -33 -13z"/>
<path d="M1990 695 c0 -8 -3 -15 -8 -15 -14 0 -31 -38 -25 -59 6 -25 23 -18
23 10 0 11 9 29 20 41 19 20 19 38 -1 38 -5 0 -9 -7 -9 -15z"/>
<path d="M2426 688 c8 -28 12 -33 20 -25 9 8 -6 47 -17 47 -6 0 -7 -10 -3 -22z"/>
<path d="M2765 699 c-12 -19 3 -22 27 -5 l22 16 -21 0 c-12 0 -25 -5 -28 -11z"/>
<path d="M775 689 c-7 -10 10 -28 28 -29 12 0 8 17 -7 29 -11 9 -16 9 -21 0z"/>
<path d="M450 667 c0 -14 9 -35 21 -48 18 -21 20 -21 14 -4 -4 11 -10 30 -12
43 -7 32 -23 38 -23 9z"/>
<path d="M621 677 c-17 -21 -4 -44 24 -44 14 0 22 3 19 8 -3 5 2 9 11 9 10 0
15 7 13 18 -4 22 -51 28 -67 9z"/>
<path d="M2047 683 c-4 -3 -7 -12 -7 -19 0 -15 69 -8 85 9 7 6 3 8 -12 4 -13
-3 -26 -1 -29 4 -6 11 -28 12 -37 2z"/>
<path d="M2240 675 c-7 -8 -16 -12 -22 -9 -10 7 -38 -14 -38 -28 0 -5 5 -6 11
-2 8 4 9 0 4 -15 -3 -12 -2 -21 4 -21 5 0 13 9 16 20 7 22 40 44 54 36 5 -3
11 0 14 8 11 28 -22 36 -43 11z"/>
<path d="M2690 679 c0 -5 5 -7 10 -4 6 3 10 8 10 11 0 2 -4 4 -10 4 -5 0 -10
-5 -10 -11z"/>
<path d="M379 676 c-3 -14 -4 -66 -1 -66 12 0 33 33 30 47 -3 16 -27 31 -29
19z"/>
<path d="M551 671 c-10 -7 -11 -13 -2 -27 6 -11 11 -15 11 -10 0 5 7 3 15 -4
18 -15 19 -3 2 27 -8 15 -17 19 -26 14z"/>
<path d="M295 661 c-10 -17 12 -21 25 -6 10 12 10 15 -3 15 -9 0 -18 -4 -22
-9z"/>
<path d="M970 654 c0 -14 -3 -14 -15 -4 -9 8 -15 8 -15 2 0 -6 6 -12 13 -15 9
-3 9 -7 -2 -20 -7 -10 -9 -17 -3 -17 11 0 42 44 42 60 0 5 -4 10 -10 10 -5 0
-10 -7 -10 -16z"/>
<path d="M2525 654 c-12 -12 -13 -20 -5 -28 13 -13 44 4 48 28 4 21 -22 21
-43 0z"/>
<path d="M2311 637 c-8 -11 -5 -14 19 -14 18 0 30 6 30 14 0 7 -8 13 -19 13
-10 0 -24 -6 -30 -13z"/>
<path d="M2414 635 c-18 -15 -18 -15 5 -13 14 2 26 9 29 16 5 17 -10 15 -34
-3z"/>
<path d="M430 630 c0 -5 5 -10 10 -10 6 0 10 5 10 10 0 6 -4 10 -10 10 -5 0
-10 -4 -10 -10z"/>
<path d="M1886 625 c-4 -12 3 -15 29 -15 19 0 35 5 35 11 0 6 -7 9 -15 5 -8
-3 -15 -1 -15 4 0 16 -27 11 -34 -5z"/>
<path d="M2074 629 c-13 -4 -24 -20 -28 -41 -5 -23 -10 -28 -14 -18 -9 19 -34
20 -40 1 -3 -8 0 -11 7 -7 16 10 14 -1 -6 -31 -17 -26 -17 -26 2 -16 14 8 24
7 42 -4 27 -18 42 -10 27 15 -6 10 -8 26 -3 37 7 18 8 18 8 -4 1 -35 25 -10
26 27 0 19 5 27 18 26 9 -1 17 2 17 6 0 12 -34 18 -56 9z"/>
<path d="M720 620 c0 -5 5 -10 10 -10 6 0 10 5 10 10 0 6 -4 10 -10 10 -5 0
-10 -4 -10 -10z"/>
<path d="M236 604 c-11 -28 -6 -39 9 -20 8 11 15 23 15 28 0 14 -18 9 -24 -8z"/>
<path d="M1554 605 c-4 -8 -3 -23 1 -32 7 -17 8 -16 15 2 5 11 9 26 9 33 1 17
-18 15 -25 -3z"/>
<path d="M795 599 c-4 -6 -5 -13 -2 -16 7 -7 27 6 27 18 0 12 -17 12 -25 -2z"/>
<path d="M1490 602 c0 -5 9 -17 21 -28 21 -19 21 -19 18 6 -4 23 -39 43 -39
22z"/>
<path d="M1822 577 l-22 -32 41 -3 c23 -2 43 -1 46 2 7 6 -20 59 -32 63 -5 1
-20 -12 -33 -30z"/>
<path d="M2700 605 c0 -3 7 -14 16 -23 15 -14 16 -14 13 3 -4 17 -29 35 -29
20z"/>
<path d="M637 593 c-4 -3 -7 -11 -7 -17 0 -6 5 -5 12 2 6 6 9 14 7 17 -3 3 -9
2 -12 -2z"/>
<path d="M870 586 c0 -9 -7 -12 -20 -9 -15 4 -20 0 -20 -16 0 -17 5 -21 25
-17 25 5 37 -18 13 -26 -7 -3 -9 -14 -4 -31 8 -32 26 -36 26 -6 0 15 5 19 15
15 18 -6 20 5 3 22 -8 8 -8 15 0 24 7 10 5 19 -8 36 -21 25 -30 28 -30 8z"/>
<path d="M1440 591 c0 -6 5 -11 10 -11 6 0 10 -4 10 -10 0 -5 -3 -9 -7 -9 -5
1 -17 1 -28 0 -18 -2 -17 -4 5 -14 14 -6 31 -18 39 -25 10 -9 17 -10 24 -3 6
6 21 11 34 11 13 0 23 5 23 10 0 13 -21 13 -54 0 -25 -9 -26 -8 -24 22 2 24
-2 33 -14 36 -10 2 -18 -1 -18 -7z"/>
<path d="M2277 594 c-11 -11 -8 -44 3 -44 15 0 24 30 13 41 -5 5 -12 6 -16 3z"/>
<path d="M2550 585 c0 -9 5 -15 10 -13 12 4 11 16 -1 24 -5 3 -9 -2 -9 -11z"/>
<path d="M671 571 c-7 -13 -8 -22 -1 -26 5 -3 10 -1 10 6 0 8 4 8 15 -1 19
-16 19 -1 0 23 -13 18 -14 18 -24 -2z"/>
<path d="M1610 570 c0 -19 3 -20 49 -11 2 1 -2 8 -9 16 -18 21 -40 19 -40 -5z"/>
<path d="M2125 579 c-8 -13 -6 -15 23 -23 18 -6 22 -3 22 13 0 23 -33 30 -45
10z"/>
<path d="M2377 584 c-12 -13 -8 -22 14 -27 15 -4 19 -1 17 10 -3 18 -21 27
-31 17z"/>
<path d="M950 562 c0 -10 7 -27 15 -38 13 -18 14 -17 15 19 0 26 -4 37 -15 37
-8 0 -15 -8 -15 -18z"/>
<path d="M1110 570 c0 -5 5 -10 10 -10 6 0 10 5 10 10 0 6 -4 10 -10 10 -5 0
-10 -4 -10 -10z"/>
<path d="M1174 572 c-6 -4 -13 -15 -17 -25 -6 -15 -4 -16 13 -7 26 14 30 13
23 -7 -5 -13 -2 -15 11 -10 10 4 22 7 27 7 5 0 3 11 -3 25 -11 25 -33 32 -54
17z"/>
<path d="M1725 573 c-34 -8 -42 -24 -9 -17 22 4 36 1 47 -11 16 -15 17 -15 17
3 0 15 -24 37 -33 31 -1 -1 -11 -3 -22 -6z"/>
<path d="M2605 570 c-3 -5 1 -10 9 -10 9 0 16 5 16 10 0 6 -4 10 -9 10 -6 0
-13 -4 -16 -10z"/>
<path d="M2197 530 c-16 -33 -23 -39 -54 -42 -20 -2 -38 -8 -40 -15 -3 -8 8
-10 38 -6 52 7 134 77 109 93 -25 16 -34 11 -53 -30z"/>
<path d="M2306 554 c-9 -24 -8 -24 19 -12 14 6 25 15 25 20 0 15 -38 8 -44 -8z"/>
<path d="M426 535 c-18 -28 -21 -45 -6 -45 6 0 10 6 10 14 0 7 7 19 15 26 8 7
15 16 15 21 0 17 -18 9 -34 -16z"/>
<path d="M1920 550 c0 -5 5 -10 11 -10 5 0 7 5 4 10 -3 6 -8 10 -11 10 -2 0
-4 -4 -4 -10z"/>
<path d="M1942 540 c-11 -17 -10 -20 7 -20 19 0 35 23 24 34 -10 10 -18 7 -31
-14z"/>
<path d="M533 543 c-7 -3 -13 -11 -13 -19 0 -18 8 -18 26 0 15 16 7 26 -13 19z"/>
<path d="M1365 540 c3 -5 10 -10 16 -10 5 0 9 5 9 10 0 6 -7 10 -16 10 -8 0
-12 -4 -9 -10z"/>
<path d="M800 528 c1 -21 27 -50 35 -39 3 6 1 11 -4 11 -6 0 -11 9 -11 20 0
11 -4 20 -10 20 -5 0 -10 -6 -10 -12z"/>
<path d="M1681 526 c-9 -11 -5 -15 25 -21 36 -6 60 7 48 27 -8 13 -61 9 -73
-6z"/>
<path d="M1885 530 c-3 -5 1 -10 9 -10 9 0 16 5 16 10 0 6 -4 10 -9 10 -6 0
-13 -4 -16 -10z"/>
<path d="M2348 533 c7 -3 16 -2 19 1 4 3 -2 6 -13 5 -11 0 -14 -3 -6 -6z"/>
<path d="M347 523 c-4 -3 -7 -11 -7 -17 0 -6 5 -5 12 2 6 6 9 14 7 17 -3 3 -9
2 -12 -2z"/>
<path d="M1025 521 c-3 -5 -1 -12 5 -16 5 -3 10 1 10 9 0 18 -6 21 -15 7z"/>
<path d="M1602 521 c-13 -3 -23 -9 -23 -13 3 -30 -2 -38 -23 -44 -13 -3 -27
-15 -30 -27 -8 -32 3 -35 25 -7 11 14 23 20 25 14 6 -14 66 -5 61 10 -2 6 -12
11 -23 11 -10 0 -17 5 -14 10 3 6 15 9 28 8 18 -2 23 2 20 19 -3 24 -13 29
-46 19z"/>
<path d="M2443 523 c-15 -5 -17 -33 -3 -33 5 0 7 -6 4 -14 -4 -11 0 -13 15 -9
12 3 21 11 21 17 0 19 -24 44 -37 39z"/>
<path d="M225 510 c-3 -5 -1 -10 4 -10 6 0 11 5 11 10 0 6 -2 10 -4 10 -3 0
-8 -4 -11 -10z"/>
<path d="M715 510 c-3 -5 5 -19 19 -31 13 -12 22 -28 19 -35 -3 -8 0 -14 6
-14 15 0 14 21 -5 58 -16 33 -28 40 -39 22z"/>
<path d="M1260 500 c0 -11 7 -20 15 -20 8 0 15 9 15 20 0 11 -7 20 -15 20 -8
0 -15 -9 -15 -20z"/>
<path d="M1419 499 c-9 -17 -9 -24 0 -27 6 -2 8 -8 5 -14 -4 -6 -1 -9 7 -6 17
6 24 47 11 60 -7 7 -14 2 -23 -13z"/>
<path d="M1483 495 c-7 -8 -13 -22 -13 -32 0 -15 2 -16 10 -3 6 10 10 11 10 3
0 -7 5 -13 10 -13 6 0 10 8 10 18 0 10 5 23 12 30 9 9 8 12 -7 12 -11 -1 -26
-7 -32 -15z"/>
<path d="M2252 498 c-14 -14 -16 -68 -2 -68 5 0 16 14 25 30 9 17 20 30 25 30
6 0 10 5 10 10 0 14 -43 13 -58 -2z"/>
<path d="M2517 503 c-12 -12 -7 -22 8 -17 8 4 15 10 15 15 0 11 -14 12 -23 2z"/>
<path d="M2640 500 c0 -5 5 -10 10 -10 6 0 10 5 10 10 0 6 -4 10 -10 10 -5 0
-10 -4 -10 -10z"/>
<path d="M1790 474 c-19 -19 -22 -27 -11 -33 9 -6 10 -11 2 -15 -6 -4 -11 -2
-11 3 0 14 -27 14 -35 1 -6 -10 24 -70 36 -70 10 0 21 32 13 39 -4 3 -9 0 -11
-7 -3 -6 -9 -10 -14 -6 -14 8 0 24 22 24 14 0 21 9 25 29 4 17 12 32 20 35 8
3 14 10 14 16 0 18 -26 10 -50 -16z"/>
<path d="M2301 466 c-14 -15 -19 -26 -12 -30 14 -9 61 22 61 40 0 22 -24 17
-49 -10z"/>
<path d="M1345 470 c-3 -6 0 -17 9 -25 17 -17 31 -4 22 20 -6 17 -22 20 -31 5z"/>
<path d="M1115 450 c3 -10 1 -28 -5 -39 -8 -15 -7 -28 5 -53 13 -29 15 -30 10
-6 -6 31 30 65 50 48 7 -5 15 -7 18 -3 4 3 13 0 22 -7 13 -11 15 -8 15 22 0
19 5 39 12 46 9 9 7 12 -10 12 -13 0 -22 -6 -22 -15 0 -8 -4 -15 -9 -15 -5 0
-14 7 -21 15 -7 8 -26 15 -42 15 -25 0 -28 -3 -23 -20z"/>
<path d="M938 421 c3 -33 1 -39 -14 -38 -13 2 -19 -5 -20 -21 -1 -12 3 -25 7
-28 5 -3 9 0 9 6 0 6 6 8 13 4 6 -4 9 -4 5 1 -4 4 1 23 13 41 16 26 18 37 9
54 -17 31 -26 24 -22 -19z"/>
<path d="M998 453 c-19 -5 -23 -20 -9 -42 13 -21 50 -5 44 20 -6 23 -12 27
-35 22z"/>
<path d="M1040 450 c0 -5 7 -10 15 -10 8 0 15 5 15 10 0 6 -7 10 -15 10 -8 0
-15 -4 -15 -10z"/>
<path d="M2373 443 c-29 -20 -29 -33 -2 -33 20 0 48 25 49 43 0 12 -23 7 -47
-10z"/>
<path d="M2613 453 c-7 -2 -13 -12 -13 -20 0 -12 3 -13 15 -3 8 6 19 9 25 5 5
-3 10 1 10 9 0 16 -13 19 -37 9z"/>
<path d="M1394 435 c-9 -22 1 -29 15 -11 8 10 9 16 1 21 -5 3 -13 -1 -16 -10z"/>
<path d="M1437 433 c-4 -3 -7 -11 -7 -17 0 -6 5 -5 12 2 6 6 9 14 7 17 -3 3
-9 2 -12 -2z"/>
<path d="M2046 425 c-3 -8 -12 -15 -19 -15 -8 0 -17 -14 -21 -32 -7 -34 4 -48
37 -48 14 0 16 4 7 19 -5 11 -15 21 -22 24 -17 5 8 37 28 37 8 0 14 7 14 15 0
8 -4 15 -9 15 -5 0 -11 -7 -15 -15z"/>
<path d="M380 415 c0 -9 5 -15 10 -13 12 4 11 16 -1 24 -5 3 -9 -2 -9 -11z"/>
<path d="M1869 422 c-19 -2 -28 -10 -32 -28 -5 -29 -3 -29 33 -4 15 11 30 17
34 13 3 -3 6 -1 6 5 0 15 -10 18 -41 14z"/>
<path d="M690 397 c0 -19 5 -24 29 -24 27 0 28 2 18 24 -5 13 -18 23 -29 23
-12 0 -18 -7 -18 -23z"/>
<path d="M1550 399 c0 -18 2 -19 15 -9 8 7 15 16 15 21 0 5 -7 9 -15 9 -9 0
-15 -9 -15 -21z"/>
<path d="M1939 411 c7 -5 17 -15 22 -22 6 -10 9 -8 9 9 0 16 -6 22 -22 22 -17
0 -19 -3 -9 -9z"/>
<path d="M553 398 c2 -7 7 -13 12 -13 5 0 10 6 13 13 2 6 -4 12 -13 12 -9 0
-15 -6 -12 -12z"/>
<path d="M1255 400 c-7 -12 12 -40 27 -40 13 0 6 43 -9 47 -6 2 -14 -1 -18 -7z"/>
<path d="M1594 386 c6 -25 -17 -45 -29 -26 -10 16 -25 11 -19 -5 4 -8 14 -15
23 -15 13 0 14 -2 2 -9 -10 -7 -19 -4 -26 6 -15 21 -48 9 -43 -14 2 -10 10
-18 18 -19 8 -1 20 -2 25 -4 6 -1 19 -1 31 -1 11 1 27 -5 34 -13 7 -9 20 -16
29 -16 14 1 14 2 1 13 -38 31 -44 46 -25 67 11 13 14 20 6 20 -8 0 -10 7 -6
20 5 15 2 20 -10 20 -13 0 -16 -6 -11 -24z"/>
<path d="M2250 389 c0 -11 4 -18 9 -14 5 3 12 1 15 -4 3 -5 -4 -11 -16 -14
-31 -9 -19 -16 15 -10 21 4 26 10 22 24 -4 13 -1 19 9 19 8 0 17 4 20 9 3 5
-12 9 -34 9 -33 1 -40 -3 -40 -19z"/>
<path d="M1510 380 c0 -11 5 -20 10 -20 6 0 10 9 10 20 0 11 -4 20 -10 20 -5
0 -10 -9 -10 -20z"/>
<path d="M1640 391 c0 -5 5 -22 12 -38 6 -15 10 -34 9 -40 -1 -7 3 -13 8 -13
19 0 22 20 6 44 -11 16 -13 26 -5 31 6 3 8 11 5 16 -8 12 -35 12 -35 0z"/>
<path d="M2405 389 c-4 -6 -5 -13 -2 -16 7 -7 27 6 27 18 0 12 -17 12 -25 -2z"/>
<path d="M2207 383 c-4 -3 -7 -13 -7 -21 0 -12 3 -12 15 -2 8 7 15 16 15 21 0
11 -14 12 -23 2z"/>
<path d="M314 365 c-4 -8 -3 -23 1 -32 7 -17 8 -16 15 2 5 11 9 26 9 33 1 17
-18 15 -25 -3z"/>
<path d="M1710 371 c0 -6 5 -13 10 -16 6 -4 8 -11 5 -16 -4 -5 1 -9 9 -9 19 0
20 5 6 31 -11 20 -30 26 -30 10z"/>
<path d="M1034 349 c-16 -10 -25 -19 -20 -19 5 0 3 -7 -5 -16 -11 -14 -10 -15
7 -12 10 1 24 8 29 13 44 44 37 66 -11 34z"/>
<path d="M2495 350 c-3 -5 1 -10 9 -10 9 0 16 5 16 10 0 6 -4 10 -9 10 -6 0
-13 -4 -16 -10z"/>
<path d="M200 335 c0 -8 2 -15 4 -15 2 0 6 7 10 15 3 8 1 15 -4 15 -6 0 -10
-7 -10 -15z"/>
<path d="M1457 331 c-5 -22 1 -33 14 -25 12 7 12 44 0 44 -5 0 -11 -9 -14 -19z"/>
<path d="M1910 335 c0 -8 5 -15 10 -15 6 0 10 7 10 15 0 8 -4 15 -10 15 -5 0
-10 -7 -10 -15z"/>
<path d="M2140 340 c0 -5 5 -10 10 -10 6 0 10 5 10 10 0 6 -4 10 -10 10 -5 0
-10 -4 -10 -10z"/>
<path d="M430 330 c-8 -5 -11 -12 -7 -16 4 -4 13 -2 19 4 15 15 7 24 -12 12z"/>
<path d="M1274 329 c-3 -6 0 -15 7 -20 13 -7 28 5 29 24 0 11 -28 8 -36 -4z"/>
<path d="M620 305 c-18 -21 -3 -32 16 -13 10 9 12 18 6 22 -5 3 -15 -1 -22 -9z"/>
<path d="M1750 309 c0 -5 5 -7 10 -4 6 3 10 8 10 11 0 2 -4 4 -10 4 -5 0 -10
-5 -10 -11z"/>
<path d="M885 300 c-3 -5 3 -10 15 -10 12 0 18 5 15 10 -3 6 -10 10 -15 10 -5
0 -12 -4 -15 -10z"/>
<path d="M240 276 c0 -18 10 -25 26 -19 20 7 17 20 -6 26 -12 3 -20 0 -20 -7z"/>
<path d="M290 254 c0 -8 5 -12 10 -9 6 4 8 11 5 16 -9 14 -15 11 -15 -7z"/>
<path d="M770 254 c0 -8 5 -12 10 -9 6 3 10 10 10 16 0 5 -4 9 -10 9 -5 0 -10
-7 -10 -16z"/>
<path d="M2960 2030 c0 -5 5 -10 10 -10 6 0 10 5 10 10 0 6 -4 10 -10 10 -5 0
-10 -4 -10 -10z"/>
</g>
</svg>
