<?xml version="1.0" standalone="no"?>
<!DOCTYPE svg PUBLIC "-//W3C//DTD SVG 20010904//EN"
 "http://www.w3.org/TR/2001/REC-SVG-20010904/DTD/svg10.dtd">
<svg version="1.0" xmlns="http://www.w3.org/2000/svg"
 width="285.000000pt" height="389.000000pt" viewBox="0 0 285.000000 389.000000"
 preserveAspectRatio="xMidYMid meet">
<metadata>
Created by potrace 1.16, written by Peter Selinger 2001-2019
</metadata>
<g transform="translate(0.000000,389.000000) scale(0.100000,-0.100000)"
fill="#000000" stroke="none">
<path d="M144 3848 c-5 -8 -19 -20 -31 -27 -23 -12 -32 -51 -12 -51 11 0 39
-25 39 -35 0 -3 -9 -3 -20 0 -24 8 -27 -20 -5 -49 10 -13 13 -40 10 -100 -4
-91 -25 -297 -31 -308 -2 -3 1 -8 7 -10 5 -2 11 -18 11 -35 1 -18 4 -32 7 -31
21 2 29 -5 29 -27 0 -14 -4 -25 -9 -25 -5 0 -9 7 -9 15 0 30 -19 14 -26 -21
-5 -25 -9 -32 -15 -22 -6 9 -9 3 -9 -17 0 -24 2 -27 11 -15 7 11 9 -1 5 -41
-3 -31 -3 -59 1 -62 8 -8 33 19 33 36 0 22 12 28 24 11 9 -11 12 33 13 178 1
106 4 214 6 241 3 26 1 47 -4 47 -14 0 -11 38 4 43 9 3 9 7 -2 20 -9 12 -12
35 -9 79 3 35 1 74 -4 87 -11 29 5 43 39 34 13 -3 23 -1 23 4 0 12 -4 11 240
12 101 0 187 -3 190 -8 3 -4 77 -7 165 -6 88 1 165 -2 171 -7 6 -5 110 -11
230 -14 121 -3 244 -6 274 -7 30 -1 211 1 402 5 243 5 348 4 350 -4 4 -11 68
-18 151 -18 45 1 48 0 38 -19 -15 -27 -14 -31 4 -25 8 4 15 15 15 27 0 19 4
19 72 13 39 -3 74 -9 77 -11 7 -8 -50 -65 -92 -92 -53 -33 -61 -19 -14 24 21
19 36 37 33 41 -3 3 -16 -4 -29 -16 -28 -26 -37 -28 -37 -5 0 24 -11 9 -14
-19 -1 -13 -10 -35 -19 -48 -13 -19 -22 -22 -51 -17 -34 5 -35 5 -23 -20 10
-23 8 -28 -16 -49 -30 -25 -47 -31 -47 -14 0 6 -7 10 -15 10 -8 0 -15 -7 -15
-15 0 -15 -38 -55 -52 -55 -4 0 -8 7 -8 15 0 17 -19 21 -21 5 -6 -42 -4 -77 4
-87 20 -27 -41 -65 -68 -43 -12 10 -15 9 -15 -8 0 -21 23 -46 33 -35 4 3 7 -1
7 -10 0 -20 -22 -35 -28 -19 -4 14 -32 16 -32 3 0 -6 5 -13 10 -16 17 -11 11
-21 -26 -47 -21 -15 -31 -29 -25 -32 6 -4 16 -4 22 0 8 4 7 0 -1 -15 -16 -30
-31 -34 -81 -20 -24 6 -64 13 -89 16 -24 2 -65 10 -91 17 -39 12 -61 12 -135
1 -49 -7 -97 -17 -106 -20 -11 -5 -18 -2 -18 5 0 15 -55 6 -78 -12 -16 -14
-156 -57 -185 -58 -11 0 -31 -7 -45 -15 -27 -14 -127 -60 -198 -90 -20 -8 -39
-13 -41 -11 -3 2 5 7 16 11 12 3 21 11 21 16 0 18 -28 8 -71 -26 -55 -44 -72
-45 -33 -3 l29 32 -44 -32 c-59 -42 -76 -41 -101 8 -22 43 -40 52 -40 21 0
-25 -15 -34 -41 -26 -13 4 -18 12 -15 22 8 20 -4 93 -15 93 -5 0 -9 -24 -9
-53 0 -54 19 -87 49 -87 7 0 -1 -17 -18 -37 -31 -38 -41 -73 -20 -73 7 0 36
20 65 45 29 25 55 41 59 36 3 -6 13 -7 22 -4 9 4 -1 -10 -23 -30 -30 -29 -36
-39 -25 -46 11 -7 8 -10 -10 -16 -29 -9 -79 -54 -79 -72 0 -7 -4 -13 -10 -13
-5 0 -10 -11 -10 -24 0 -27 -13 -39 -45 -41 -80 -5 -81 -5 -63 -19 11 -8 15
-21 12 -37 -4 -17 -3 -20 4 -10 7 10 11 10 17 1 4 -6 -1 -20 -11 -31 -9 -10
-14 -22 -10 -26 4 -4 11 -1 16 7 5 8 15 15 22 15 7 0 12 8 12 18 -1 9 2 17 6
17 4 0 10 9 13 21 5 18 8 19 20 8 13 -12 12 -17 -4 -41 -11 -14 -33 -38 -49
-52 -17 -13 -30 -32 -30 -42 0 -14 -3 -14 -15 -4 -20 16 -32 5 -16 -14 13 -15
1 -29 -15 -18 -17 12 -14 53 7 75 21 23 25 37 9 37 -5 0 -7 14 -4 33 l6 32
-21 -32 c-11 -18 -26 -33 -31 -33 -6 0 -9 4 -5 9 3 5 -2 16 -10 25 -15 14 -18
13 -41 -12 l-25 -27 -16 23 c-9 12 -26 22 -40 22 -32 0 -40 27 -19 63 12 22
14 33 6 41 -8 8 -15 6 -26 -8 -8 -11 -14 -16 -14 -10 1 5 10 20 21 33 16 20
22 22 29 11 11 -18 54 0 69 29 9 16 6 25 -17 48 -16 15 -31 36 -35 46 -8 20
-27 23 -27 4 0 -8 -10 -19 -23 -26 -12 -7 -28 -24 -35 -39 -6 -15 -30 -47 -53
-72 -48 -53 -41 -40 56 115 47 75 64 95 82 95 13 0 23 5 23 10 0 6 -16 8 -42
4 l-43 -7 19 22 c11 11 14 21 8 21 -6 0 -14 -4 -17 -10 -9 -15 -45 -12 -45 4
0 8 -6 16 -12 19 -9 3 -6 11 10 26 27 26 28 41 4 41 -20 0 -52 -29 -52 -47 0
-6 -18 -27 -40 -47 -22 -20 -40 -38 -40 -41 0 -12 19 -3 45 21 32 30 47 24 19
-9 -30 -34 -66 -106 -61 -121 3 -7 1 -19 -4 -27 -5 -9 -9 17 -9 71 0 92 -7
130 -22 130 -6 0 -7 -7 -4 -16 4 -11 2 -15 -6 -11 -12 4 -14 -9 -9 -70 1 -16
3 -16 11 -3 9 13 10 13 11 0 1 -8 3 -25 4 -37 1 -14 -2 -20 -10 -16 -9 3 -13
-9 -12 -44 0 -26 -2 -88 -5 -136 -2 -48 -2 -90 2 -92 9 -6 -1 -75 -11 -75 -5
0 -7 16 -4 35 3 23 0 33 -6 29 -6 -3 -9 0 -8 7 1 8 0 21 -4 29 -3 8 -7 22 -10
30 -8 26 -5 -243 3 -290 l7 -45 2 47 c0 26 5 49 9 52 5 3 7 20 5 38 -3 23 -1
29 5 19 8 -11 10 -11 15 0 4 10 6 9 6 -3 1 -10 -2 -18 -7 -18 -10 0 -2 -79 9
-86 5 -3 9 12 9 33 0 28 3 34 10 23 11 -17 10 -20 15 67 3 46 9 58 51 107 26
31 49 56 51 56 2 0 -4 -17 -13 -37 -9 -21 -23 -55 -31 -76 -7 -22 -22 -55 -32
-75 -30 -59 -35 -82 -17 -82 13 0 12 -5 -2 -39 -13 -31 -19 -36 -29 -25 -7 7
-13 19 -13 26 0 10 -3 9 -10 -2 -8 -12 -10 -12 -11 5 0 11 -3 15 -5 8 -3 -6
-1 -28 5 -47 7 -26 5 -50 -5 -88 -17 -64 -18 -88 -3 -88 5 0 8 4 5 8 -2 4 0
14 5 22 8 11 9 4 5 -25 -3 -22 -6 -58 -7 -80 0 -32 -2 -36 -9 -20 -6 15 -8 6
-8 -30 0 -43 1 -46 8 -20 7 28 8 27 9 -13 1 -27 -3 -41 -9 -37 -6 4 -10 -6
-10 -22 0 -17 -10 -36 -27 -51 l-28 -23 26 5 c46 10 49 -10 46 -375 -1 -254 1
-340 10 -351 8 -9 12 -40 11 -81 -2 -72 3 -87 27 -67 12 10 15 36 15 122 0 60
-5 118 -10 128 -7 12 -7 34 -2 58 6 24 6 46 0 57 -13 23 -20 172 -18 423 1
107 4 134 15 139 8 3 15 16 15 30 0 13 -4 22 -9 18 -13 -7 -19 158 -6 167 9 7
43 1 54 -8 2 -2 -4 -15 -13 -28 -23 -36 -20 -56 8 -56 13 0 26 -6 29 -12 3
-10 13 -9 40 4 31 15 37 15 37 3 0 -17 -37 -43 -87 -60 -21 -7 -39 -18 -41
-24 -4 -12 25 -10 46 2 23 15 12 -3 -24 -37 -20 -19 -33 -39 -30 -45 4 -6 0
-21 -9 -35 -19 -28 -6 -42 25 -26 19 10 19 9 8 -17 -7 -15 -18 -36 -26 -45
-13 -15 -13 -18 -1 -18 22 0 38 14 36 30 -2 26 34 100 46 93 6 -4 8 0 4 10 -7
19 28 57 52 56 11 0 8 -4 -7 -12 -16 -7 -22 -17 -19 -29 3 -10 1 -18 -4 -18
-5 0 -9 -4 -9 -10 0 -15 26 -12 40 5 7 8 17 15 23 15 16 0 -20 -35 -58 -56
-19 -10 -35 -25 -35 -32 0 -12 5 -11 26 2 45 30 49 11 5 -30 -99 -91 -104 -96
-91 -104 15 -9 56 7 84 32 23 21 14 37 -9 18 -9 -7 -17 -11 -19 -9 -2 2 39 42
90 89 51 47 93 92 94 101 0 8 20 29 45 47 25 17 45 38 45 47 0 8 6 16 13 16 6
1 27 3 45 5 30 4 32 2 21 -17 -6 -12 -20 -24 -30 -26 -21 -6 -25 -18 -9 -28
18 -11 10 -20 -60 -65 -50 -32 -72 -53 -76 -71 -4 -19 -15 -29 -37 -35 -17 -5
-33 -16 -35 -23 -3 -10 0 -12 12 -8 26 10 20 1 -39 -54 -59 -56 -66 -69 -36
-69 27 0 51 10 51 22 0 6 -7 7 -16 4 -22 -8 -7 13 35 49 19 17 56 52 83 79 27
27 51 46 55 42 4 -3 -8 -27 -26 -52 -30 -43 -30 -45 -9 -39 16 4 5 -11 -37
-51 -178 -170 -185 -178 -175 -188 7 -7 17 -7 31 2 24 15 39 8 39 -19 0 -22
78 -99 128 -126 34 -19 39 -37 18 -66 -11 -14 -19 -16 -33 -9 -38 19 -73 23
-73 8 0 -8 7 -19 16 -24 15 -8 15 -13 -6 -50 -12 -22 -21 -45 -18 -52 2 -6 15
11 28 38 14 28 30 48 37 45 6 -3 9 -12 6 -21 -5 -11 -2 -14 11 -9 10 4 32 -3
56 -19 l38 -26 -20 -34 c-12 -20 -15 -34 -9 -34 6 0 16 11 21 24 14 37 31 42
54 15 19 -22 27 -24 96 -21 41 1 94 -3 116 -9 31 -8 56 -8 96 0 64 14 79 10
95 -24 9 -20 8 -25 -3 -25 -8 0 -14 5 -14 11 0 7 -21 8 -65 4 -44 -5 -70 -4
-79 4 -10 8 -66 10 -202 5 -104 -4 -214 -7 -246 -7 -44 0 -55 -4 -51 -15 5
-11 -4 -13 -38 -11 -34 3 -45 0 -47 -12 -4 -22 23 -27 123 -25 44 1 92 -1 107
-5 14 -4 28 -5 31 -3 2 3 53 7 113 9 113 5 122 5 152 3 21 -2 333 13 382 18
19 2 136 6 260 9 241 6 290 10 290 25 0 6 9 10 20 10 25 0 26 -16 3 -29 -10
-6 -12 -11 -5 -11 6 0 12 -7 12 -15 0 -9 7 -18 15 -21 22 -9 44 13 38 36 -5
18 0 20 36 20 49 0 52 -6 9 -24 l-31 -14 32 -7 c23 -5 59 2 129 24 77 24 125
32 230 38 73 5 140 4 148 0 9 -5 21 -4 30 4 17 14 333 4 348 -11 5 -5 21 -6
36 -3 15 3 31 0 34 -6 4 -6 11 -11 16 -11 5 0 1 15 -10 33 -17 30 -37 173 -33
235 1 12 -2 22 -7 22 -6 0 -10 -16 -10 -36 0 -30 -2 -34 -14 -25 -16 14 -23 8
-76 -62 -63 -84 -63 -63 1 92 22 52 36 97 33 100 -4 3 -11 -2 -18 -12 -49 -81
-136 -198 -136 -183 0 9 5 26 10 36 6 11 6 21 1 24 -8 5 -22 -22 -36 -71 -3
-12 -1 -24 5 -28 16 -10 45 20 80 82 37 64 49 65 21 2 -11 -24 -23 -61 -26
-81 -7 -38 -7 -38 26 -38 36 0 35 -8 -2 -15 -13 -3 -26 -1 -29 4 -3 5 -47 4
-103 -1 -54 -6 -101 -8 -104 -5 -3 4 9 18 26 33 39 32 62 70 37 61 -22 -9 -21
-5 18 69 32 60 55 72 41 21 -5 -19 -4 -19 5 -5 6 10 26 20 45 24 38 7 44 13
61 62 14 40 2 52 -15 14 l-13 -27 -14 25 c-14 26 -11 69 9 108 8 18 8 27 -1
40 -22 30 -25 43 -14 54 14 14 82 -35 90 -64 6 -24 19 -23 27 2 5 16 12 19 28
14 12 -4 25 -12 29 -18 8 -11 13 -89 10 -138 -2 -28 12 -38 21 -15 3 6 6 -10
6 -36 1 -66 22 -187 32 -187 5 0 9 17 9 37 0 35 1 36 15 17 20 -26 22 -4 10
91 -6 46 -8 48 -21 30 -13 -18 -14 -17 -14 8 0 16 5 26 13 24 6 -1 11 4 9 12
-1 7 -6 94 -9 192 -3 99 -10 179 -15 179 -4 0 -8 18 -8 40 0 22 5 40 11 40 7
0 10 28 9 78 -1 42 2 100 5 128 7 47 6 52 -15 57 -22 6 -23 8 -18 116 3 60 2
113 -3 118 -10 10 5 943 16 986 6 21 4 27 -9 27 -9 0 -16 5 -16 10 0 6 -4 10
-9 10 -5 0 -7 -28 -5 -62 3 -47 2 -57 -5 -40 -6 12 -8 29 -5 37 4 8 1 15 -5
15 -6 0 -11 16 -11 36 0 19 4 33 8 30 5 -3 9 46 10 107 1 62 5 160 8 220 6 92
4 107 -9 107 -8 0 -17 6 -20 13 -4 11 -19 12 -68 5 -34 -4 -64 -6 -67 -3 -11
11 10 19 63 23 30 2 55 8 55 11 0 17 -116 35 -235 37 -71 1 -163 4 -202 7 -58
4 -73 2 -73 -9 0 -8 -7 -14 -15 -14 -8 0 -15 5 -15 10 0 11 -123 6 -140 -5 -5
-3 -11 -1 -14 4 -8 13 -156 11 -156 -1 0 -7 -4 -7 -12 0 -14 11 -21 11 -848
14 -300 1 -555 -2 -566 -6 -15 -4 -23 -2 -28 9 -5 14 -20 15 -106 9 -90 -6
-102 -5 -114 11 -11 16 -14 16 -22 3z m-12 -60 c-7 -7 -12 -8 -12 -2 0 14 12
26 19 19 2 -3 -1 -11 -7 -17z m1486 5 c-16 -2 -40 -2 -55 0 -16 2 -3 4 27 4
30 0 43 -2 28 -4z m155 -15 c-15 -7 -37 -7 -70 0 l-48 10 70 0 c56 1 66 -1 48
-10z m897 -61 c0 -7 -4 -17 -10 -23 -5 -5 -6 -15 0 -23 7 -12 11 -12 24 -2 14
12 16 10 16 -12 0 -14 -4 -28 -10 -32 -5 -3 -7 -12 -3 -20 3 -10 -1 -15 -13
-16 -11 0 -14 -3 -6 -6 6 -2 12 -9 12 -14 0 -4 -7 -6 -15 -3 -9 4 -15 0 -15
-8 0 -8 -13 -32 -30 -54 -29 -38 -40 -71 -20 -59 6 3 10 1 10 -5 0 -7 -9 -14
-20 -17 -11 -3 -23 -16 -26 -29 -3 -13 -12 -24 -19 -24 -17 0 -57 -77 -45 -85
6 -3 10 -2 10 3 0 9 68 96 118 152 12 14 22 29 22 35 0 5 -7 1 -15 -9 -28 -37
-26 -8 2 33 30 43 56 58 29 16 -15 -22 -15 -28 -3 -40 18 -17 22 -146 7 -175
-8 -14 -8 -20 0 -20 13 0 9 -163 -4 -195 l-9 -20 16 20 c15 19 16 13 17 -85 0
-78 -4 -111 -15 -127 -8 -11 -19 -34 -25 -50 -8 -23 -7 -25 3 -10 6 10 17 25
22 33 7 10 11 -12 12 -74 l2 -87 -37 -12 c-36 -11 -57 -9 -36 5 13 9 49 100
42 107 -3 3 -15 -18 -27 -46 -12 -29 -24 -50 -27 -46 -3 3 0 16 6 29 8 15 -1
9 -26 -17 -22 -22 -35 -43 -31 -46 11 -8 -17 -36 -44 -44 -28 -9 -35 1 -16 23
10 10 17 23 17 29 0 6 16 46 36 89 19 43 42 94 51 113 37 82 72 174 59 158 -8
-10 -16 -14 -18 -10 -3 4 -3 2 -1 -6 2 -7 -8 -36 -21 -65 -14 -28 -47 -100
-73 -161 -50 -112 -81 -147 -109 -124 -9 7 -16 4 -25 -13 -12 -23 -13 -23 -30
17 -11 23 -19 64 -19 98 0 35 -4 57 -11 57 -7 0 -9 9 -6 23 5 20 5 20 -7 5
-17 -23 -26 -12 -19 23 4 22 2 29 -11 29 -9 0 -16 8 -16 20 0 11 -4 20 -9 20
-5 0 -15 15 -22 34 -7 19 -21 37 -30 39 -17 5 -17 3 1 -34 11 -21 20 -49 19
-61 0 -16 -8 -8 -25 31 -19 41 -27 51 -38 42 -9 -8 -21 -4 -46 14 -18 13 -56
29 -85 35 -59 12 -83 37 -33 34 33 -2 115 -31 135 -47 16 -11 47 -1 38 13 -8
14 23 51 158 190 154 158 242 258 233 267 -9 9 -24 -6 -143 -140 -65 -73 -144
-157 -175 -187 -32 -31 -58 -60 -58 -66 0 -6 -9 -19 -21 -30 -21 -19 -21 -18
-39 4 -10 12 -23 22 -29 22 -6 0 -11 3 -11 6 0 10 63 74 73 74 15 0 6 -38 -13
-55 -24 -22 -26 -45 -4 -45 10 0 14 6 11 14 -3 8 6 27 20 43 14 15 51 55 82
89 90 97 101 116 18 31 -43 -43 -77 -74 -77 -67 0 6 -4 9 -9 5 -22 -13 -21 19
0 42 13 15 18 23 11 18 -28 -15 5 29 47 64 22 18 45 47 50 64 16 44 13 45 -15
12 -26 -30 -24 -22 4 23 11 16 17 20 23 11 4 -8 12 -1 23 20 9 17 14 36 11 41
-10 17 18 60 40 60 11 0 26 5 33 12 6 6 14 9 17 6 3 -3 -11 -23 -30 -44 -54
-58 -100 -133 -88 -145 6 -6 18 1 34 18 l24 28 -27 -24 c-16 -14 -28 -20 -28
-14 0 12 45 55 52 48 6 -7 73 73 73 89 0 11 126 126 139 126 17 0 -50 -95
-106 -151 -38 -36 -68 -72 -68 -79 0 -8 -10 -24 -22 -37 -12 -13 -16 -23 -10
-23 6 0 39 33 74 73 35 39 90 98 123 130 33 31 56 57 51 57 -5 0 -18 -7 -28
-17 -28 -26 -30 -11 -3 29 14 21 22 44 19 52 -3 9 -4 23 0 31 7 18 36 20 36 2z
m-2513 -269 c-3 -8 -6 -5 -6 6 -1 11 2 17 5 13 3 -3 4 -12 1 -19z m2141 -5
c-29 -32 -61 -70 -82 -98 -15 -19 -15 -18 -16 21 0 31 5 43 18 48 9 3 35 17
57 31 51 32 54 31 23 -2z m-136 -165 c-7 -7 -12 -8 -12 -2 0 14 12 26 19 19 2
-3 -1 -11 -7 -17z m-395 -144 c-3 -3 -12 -4 -19 -1 -8 3 -5 6 6 6 11 1 17 -2
13 -5z m333 -29 c0 -5 -5 -3 -10 5 -5 8 -10 20 -10 25 0 6 5 3 10 -5 5 -8 10
-19 10 -25z m-395 16 c16 -7 9 -10 -30 -16 -84 -13 -97 -22 -43 -30 31 -5 63
-2 101 9 68 20 96 21 79 4 -10 -10 -3 -15 30 -25 24 -7 58 -13 76 -13 17 0 32
-4 32 -9 0 -10 -81 -23 -155 -25 -27 -1 -83 -11 -122 -23 -40 -12 -73 -18 -73
-13 0 4 11 11 25 14 14 4 25 11 25 17 0 7 -10 9 -22 6 -13 -3 -34 -8 -48 -11
-14 -3 -27 -1 -31 6 -6 9 -21 6 -56 -11 -27 -12 -64 -23 -83 -23 -23 -1 -47
-11 -70 -29 -40 -33 -76 -41 -39 -8 l24 20 -25 -7 -25 -6 23 21 c12 12 22 24
22 27 0 6 -22 -10 -108 -81 -69 -57 -143 -106 -122 -80 12 15 11 16 -16 9 -23
-5 -16 3 34 39 78 56 87 65 44 43 -19 -10 -36 -16 -38 -13 -4 4 3 8 119 61 43
20 83 34 88 30 6 -3 19 2 30 12 23 21 108 53 164 63 23 4 47 11 55 17 45 28
100 39 135 25z m202 -27 c-3 -3 -12 -4 -19 -1 -8 3 -5 6 6 6 11 1 17 -2 13 -5z
m73 -10 c0 -2 -13 -4 -30 -4 -16 0 -30 4 -30 8 0 5 14 7 30 4 17 -2 30 -6 30
-8z m-750 -69 c0 -8 -82 -47 -87 -41 -3 3 14 15 38 26 49 22 49 22 49 15z
m710 -10 c-17 -20 4 -28 45 -17 25 7 34 5 53 -15 27 -30 28 -38 2 -40 -13 -1
-18 2 -14 9 5 8 1 9 -12 3 -22 -10 -128 -10 -191 1 -80 13 -36 51 53 45 30 -2
43 2 47 13 4 9 12 16 18 16 8 0 8 -4 -1 -15z m128 -4 c9 -6 29 -12 45 -16 34
-7 34 -17 0 -32 -30 -14 -53 -3 -53 27 0 10 -6 21 -12 23 -7 3 -10 6 -5 6 4 1
15 -3 25 -8z m678 -28 c-11 -11 -17 4 -9 23 7 18 8 18 11 1 2 -10 1 -21 -2
-24z m-978 -14 c-2 -7 -49 -24 -103 -40 -115 -33 -112 -32 -99 -20 8 9 179 70
197 71 5 0 7 -5 5 -11z m-383 -20 c-38 -25 -102 -59 -112 -59 -14 0 111 78
127 79 8 1 2 -8 -15 -20z m-623 -54 c-53 -50 -71 -52 -25 -2 16 17 33 40 37
51 5 14 9 16 20 6 12 -9 7 -19 -32 -55z m1436 39 c11 6 42 -63 42 -92 0 -10
-9 -36 -20 -58 l-21 -39 6 52 c5 51 4 53 -20 51 -14 -1 -25 -8 -25 -14 0 -19
-23 -32 -43 -25 -17 6 -17 8 2 26 14 12 19 25 15 37 -3 10 0 25 6 33 10 13 8
15 -14 15 -34 0 -33 16 2 28 20 7 31 6 44 -5 9 -8 21 -12 26 -9z m-1867 -12
c-5 -10 -18 -25 -28 -33 -12 -10 -11 -5 6 19 24 35 38 43 22 14z m753 -20
c-45 -39 -124 -101 -147 -115 -15 -10 -25 -22 -22 -27 3 -5 -9 -18 -27 -30
l-33 -22 30 26 c17 14 27 26 24 26 -17 0 -109 -58 -146 -92 -43 -38 -66 -51
-43 -23 6 8 10 20 7 27 -4 8 -6 7 -6 -4 -1 -10 -8 -18 -16 -18 -12 0 -9 11 14
44 44 63 102 126 118 126 7 0 13 5 13 11 0 5 5 7 11 3 6 -3 31 8 55 26 29 21
44 27 44 17 0 -7 -25 -26 -55 -42 -31 -15 -58 -32 -61 -36 -12 -19 20 -7 89
35 90 55 151 85 156 80 3 -2 0 -8 -5 -12z m149 -12 c-29 -17 -58 -30 -65 -30
-18 0 83 59 102 59 8 1 -8 -13 -37 -29z m607 16 c0 -8 -21 -21 -47 -30 -58
-20 -69 -20 -53 -1 7 8 18 15 25 15 7 0 18 7 25 15 16 19 50 20 50 1z m-106
-24 c-16 -15 -34 -26 -41 -24 -13 4 -78 -29 -143 -74 -41 -28 -80 -48 -80 -40
0 1 33 24 73 51 39 27 85 57 100 67 26 18 91 46 111 47 5 1 -4 -12 -20 -27z
m-99 9 c-14 -12 -218 -92 -223 -87 -5 6 53 36 69 36 7 0 20 7 29 15 9 8 34 21
56 29 45 17 83 21 69 7z m410 -1 c-3 -5 -14 -10 -23 -10 -15 0 -15 2 -2 10 20
13 33 13 25 0z m-555 -10 c0 -5 -15 -10 -32 -10 -18 0 -53 -12 -77 -25 -26
-15 -39 -19 -31 -10 19 23 50 38 95 46 22 3 41 7 43 8 1 0 2 -3 2 -9z m-630
-15 c-7 -8 -17 -15 -22 -15 -6 0 -5 7 2 15 7 8 17 15 22 15 6 0 5 -7 -2 -15z
m1876 -63 c-13 -12 -18 9 -10 45 l8 38 4 -39 c2 -21 1 -41 -2 -44z m-1291 48
c-28 -12 -37 -12 -30 0 3 6 16 10 28 9 21 0 21 -1 2 -9z m-1069 -57 c-11 -11
-17 4 -9 23 7 18 8 18 11 1 2 -10 1 -21 -2 -24z m1522 26 c-18 -10 -106 -39
-121 -39 -5 0 -5 4 -2 10 7 11 90 38 120 39 18 0 19 0 3 -10z m172 1 c0 -16
-42 -38 -85 -45 l-40 -7 33 21 c18 12 39 21 47 21 7 0 17 5 20 10 8 13 25 13
25 0z m-386 -15 c-22 -16 -44 -19 -44 -6 0 8 16 14 54 20 6 0 1 -6 -10 -14z
m-424 0 c0 -8 -110 -78 -115 -73 -3 2 19 21 48 41 49 35 67 43 67 32z m-833
-11 c-3 -3 -12 -4 -19 -1 -8 3 -5 6 6 6 11 1 17 -2 13 -5z m1023 2 c0 -3 -13
-11 -30 -20 -16 -8 -30 -11 -30 -6 0 7 23 18 58 29 1 1 2 -1 2 -3z m-1212 -33
c-8 -10 -27 -39 -42 -65 -15 -27 -29 -48 -31 -48 -3 0 -5 23 -5 51 0 45 2 50
20 44 13 -4 26 2 41 19 13 14 25 24 27 21 3 -3 -2 -13 -10 -22z m1047 -14
c-85 -57 -114 -71 -111 -56 3 22 17 37 27 31 6 -3 20 3 32 14 22 20 82 51 102
52 6 0 -17 -18 -50 -41z m-935 26 c0 -9 -81 -116 -108 -145 l-24 -25 12 25
c35 70 120 173 120 145z m976 -30 c-11 -8 -24 -15 -30 -15 -5 0 -1 7 10 15 10
8 24 14 29 14 6 0 1 -6 -9 -14z m284 11 c0 -2 -7 -7 -16 -10 -8 -3 -12 -2 -9
4 6 10 25 14 25 6z m-610 -21 c0 -8 -141 -97 -146 -92 -7 7 111 86 144 96 1 1
2 -1 2 -4z m411 -32 c-25 -19 -32 -15 -20 11 9 19 14 22 24 13 10 -9 9 -14 -4
-24z m514 27 c-3 -5 -18 -10 -33 -10 -21 0 -24 2 -12 10 20 13 53 13 45 0z
m275 -4 c0 -7 -30 -76 -34 -76 -3 0 3 46 9 68 4 11 25 18 25 8z m-1170 -36
c-19 -17 -38 -30 -43 -30 -4 0 -21 -10 -37 -22 -16 -12 -33 -19 -37 -15 -3 4
-4 9 -2 11 8 8 144 86 149 85 3 0 -11 -13 -30 -29z m755 4 c-11 -9 -33 -22
-48 -30 -27 -14 -28 -14 -25 3 4 20 43 43 73 43 l20 -1 -20 -15z m-285 -9 c0
-7 -80 -52 -125 -70 -59 -25 -30 -2 50 39 76 38 75 38 75 31z m-401 -18 c-2
-1 -23 -16 -46 -31 -24 -16 -43 -32 -43 -37 0 -5 -13 -15 -30 -24 -39 -20 -38
-4 3 35 33 31 107 73 116 65 2 -3 2 -6 0 -8z m1496 3 c3 -5 -1 -10 -10 -10 -9
0 -13 5 -10 10 3 6 8 10 10 10 2 0 7 -4 10 -10z m-2289 -37 c-8 -15 -15 -25
-16 -21 0 12 23 58 27 54 3 -2 -2 -17 -11 -33z m1634 33 c0 -3 -4 -8 -10 -11
-5 -3 -10 -1 -10 4 0 6 5 11 10 11 6 0 10 -2 10 -4z m389 -96 c1 -15 5 -30 10
-35 5 -6 11 -30 15 -55 5 -40 4 -43 -8 -27 -13 17 -47 174 -45 207 2 22 27
-61 28 -90z m361 80 c0 -19 -27 -38 -85 -60 -40 -15 -30 9 10 26 20 8 33 19
30 24 -9 15 4 30 26 30 12 0 19 -7 19 -20z m-1032 5 c-8 -8 -68 -25 -68 -19 0
6 41 23 59 23 8 1 12 -1 9 -4z m642 -102 c5 -27 16 -70 25 -98 l15 -50 -21 25
-20 25 7 -25 c3 -14 12 -36 19 -50 7 -14 17 -43 21 -64 7 -38 6 -39 -19 -32
-14 3 -27 3 -30 -2 -2 -4 -3 -2 -1 4 1 6 -2 16 -7 21 -6 6 -14 46 -19 89 -4
43 -13 94 -20 111 -21 57 -5 58 20 2 12 -30 25 -48 27 -42 3 7 -9 42 -26 78
-26 55 -29 68 -19 85 12 19 13 19 26 -5 7 -14 17 -46 22 -72z m170 84 c0 -7
-6 -22 -14 -33 -14 -18 -15 -18 -22 -1 -4 12 0 23 12 32 24 18 24 18 24 2z
m-1295 -7 c-3 -5 -11 -10 -16 -10 -6 0 -7 5 -4 10 3 6 11 10 16 10 6 0 7 -4 4
-10z m575 -9 c0 -9 -38 -26 -82 -35 -44 -10 -33 11 15 27 50 18 67 20 67 8z
m115 -18 c-19 -13 -35 -17 -35 -9 0 12 33 35 42 30 7 -5 4 -12 -7 -21z m545
-48 c4 2 7 -13 6 -35 0 -22 -3 -40 -6 -40 -9 0 -28 61 -34 110 l-6 45 16 -43
c9 -23 19 -40 24 -37z m-2227 38 c-9 -16 -18 -30 -20 -32 -2 -2 -3 10 -3 27 0
25 4 32 20 32 20 0 20 -1 3 -27z m1622 17 c-9 -15 -45 -32 -45 -22 0 5 10 14
23 20 29 14 29 14 22 2z m602 -12 c-3 -8 -6 -5 -6 6 -1 11 2 17 5 13 3 -3 4
-12 1 -19z m-1543 -14 c-14 -20 -15 -27 -5 -33 9 -6 8 -10 -5 -15 -9 -3 -19
-4 -22 -1 -8 8 26 75 38 75 6 0 3 -12 -6 -26z m-487 8 c17 -11 -1 -36 -21 -29
-9 4 -16 13 -16 22 0 16 17 20 37 7z m119 -8 c-3 -9 -6 -18 -6 -20 0 -2 -5 -4
-11 -4 -8 0 -9 4 0 13 6 8 8 17 4 20 -3 4 -1 7 6 7 8 0 11 -6 7 -16z m-182 -6
c-40 -66 -115 -178 -119 -178 -11 0 63 122 104 173 16 20 26 23 15 5z m109
-46 c-5 -22 -43 -32 -43 -12 0 6 7 10 16 10 11 0 14 5 10 16 -3 9 -3 20 0 26
10 17 24 -15 17 -40z m637 44 c0 -3 -4 -8 -10 -11 -5 -3 -10 -1 -10 4 0 6 5
11 10 11 6 0 10 -2 10 -4z m95 -6 c-3 -5 -11 -10 -16 -10 -6 0 -7 5 -4 10 3 6
11 10 16 10 6 0 7 -4 4 -10z m1495 -10 c-11 -21 -110 -76 -110 -61 0 5 7 14
15 21 8 6 14 15 13 18 -2 19 3 26 11 14 6 -10 13 -8 32 7 33 27 53 28 39 1z
m45 -111 c5 -125 0 -173 -15 -149 -4 7 -5 30 -3 51 7 49 -9 51 -26 2 -7 -20
-32 -56 -55 -81 -22 -25 -35 -42 -28 -38 16 10 15 -22 -2 -53 -15 -27 -21 -21
-31 31 -9 49 2 101 21 94 11 -4 13 0 8 18 -6 26 12 61 54 108 13 14 21 31 18
37 -7 11 42 116 50 108 3 -2 7 -60 9 -128z m-1895 81 c-12 -17 -24 -29 -27
-26 -3 3 5 19 17 36 12 17 24 29 27 26 3 -3 -5 -19 -17 -36z m-260 4 c-8 -8
-14 -24 -15 -34 -1 -10 -9 -25 -18 -35 -18 -18 -22 -41 -8 -49 14 -9 23 -66
21 -130 -1 -37 3 -62 11 -66 6 -5 13 -22 14 -39 2 -17 -1 -28 -6 -25 -5 3 -9
16 -9 29 0 26 -29 42 -42 23 -6 -10 -8 -10 -8 1 0 10 -8 12 -30 7 -29 -5 -30
-4 -19 17 7 12 15 24 18 27 4 3 12 18 19 33 24 54 -11 24 -43 -36 -16 -31 -33
-57 -37 -57 -5 0 9 33 29 73 65 126 66 129 40 125 -15 -2 -22 -10 -22 -24 0
-27 -56 -145 -66 -139 -4 3 -10 -2 -13 -11 -3 -8 -2 -12 4 -9 6 3 10 1 10 -4
0 -9 -90 -61 -105 -61 -4 0 2 15 13 33 11 17 41 75 67 127 56 112 54 108 65
90 7 -11 10 -4 10 24 0 21 10 56 22 77 18 33 27 39 54 39 18 0 36 5 39 11 4 6
9 8 12 5 3 -3 0 -13 -7 -22z m463 11 c-3 -9 -8 -14 -10 -11 -3 3 -2 9 2 15 9
16 15 13 8 -4z m-663 -36 c0 -20 -109 -186 -144 -218 -14 -14 -26 -22 -26 -18
0 15 74 156 112 215 29 45 44 59 49 50 5 -7 9 -20 9 -29z m425 31 c-3 -5 -11
-10 -16 -10 -6 0 -7 5 -4 10 3 6 11 10 16 10 6 0 7 -4 4 -10z m1454 -45 c1
-19 0 -18 -14 2 -8 12 -12 29 -8 39 6 16 7 16 14 -2 4 -10 8 -28 8 -39z m251
38 c0 -10 -4 -24 -9 -31 -6 -10 -10 -8 -14 9 -3 12 -4 26 -1 31 9 14 24 9 24
-9z m-763 1 c-3 -3 -12 -4 -19 -1 -8 3 -5 6 6 6 11 1 17 -2 13 -5z m-757 -19
c-7 -9 -15 -13 -17 -11 -7 7 7 26 19 26 6 0 6 -6 -2 -15z m1561 -5 c-30 -26
-49 -26 -26 0 10 11 25 20 34 20 12 -1 10 -5 -8 -20z m-1811 -6 c0 -14 -36
-33 -60 -33 -24 0 -24 0 -6 14 10 8 22 12 27 10 4 -3 10 -1 14 5 7 11 25 14
25 4z m210 -4 c0 -5 -5 -10 -11 -10 -5 0 -7 5 -4 10 3 6 8 10 11 10 2 0 4 -4
4 -10z m1259 -27 c-1 -38 -1 -38 -9 -9 -8 27 -6 46 6 46 2 0 4 -17 3 -37z
m-1776 21 c3 -4 1 -16 -5 -28 -6 -11 -12 -33 -13 -47 -2 -39 -136 -280 -160
-289 -11 -4 -31 -10 -45 -13 -24 -6 -25 -5 -23 43 2 79 2 80 17 80 8 0 22 10
32 23 18 24 17 21 -9 -45 -20 -50 4 -43 58 17 30 33 54 63 55 68 1 18 -19 3
-54 -43 -21 -28 -41 -49 -43 -47 -4 5 12 34 74 137 22 36 50 84 63 108 22 39
38 50 53 36z m429 -16 c-20 -20 -13 -32 8 -13 11 10 20 14 20 9 0 -14 -22 -34
-37 -34 -17 0 -17 47 0 53 18 6 23 -1 9 -15z m1773 -11 c-9 -14 -23 -28 -31
-31 -8 -3 -14 -13 -14 -23 0 -10 -8 -27 -16 -38 -15 -19 -16 -18 -8 20 4 22 7
51 7 64 -1 16 2 20 7 11 6 -10 14 -9 37 8 34 25 40 22 18 -11z m-1555 20 c0
-2 -17 -19 -37 -38 -21 -18 -30 -25 -20 -13 9 11 17 26 17 32 0 6 8 13 18 15
9 3 18 5 20 6 1 0 2 0 2 -2z m109 0 c-2 -1 -12 -9 -22 -16 -15 -12 -17 -12
-11 3 3 9 13 16 22 16 8 0 13 -1 11 -3z m446 -7 c-3 -5 -12 -10 -18 -10 -7 0
-6 4 3 10 19 12 23 12 15 0z m559 -87 c4 -29 3 -54 -1 -54 -57 -10 -59 -8 -50
46 5 27 14 60 20 73 10 21 12 22 18 5 3 -10 9 -42 13 -70z m83 -25 c5 -25 3
-28 -21 -28 -26 0 -26 1 -25 73 l0 72 20 -45 c11 -25 23 -57 26 -72z m-1526
75 c-12 -20 -14 -14 -5 12 4 9 9 14 11 11 3 -2 0 -13 -6 -23z m349 -13 c-16
-18 -30 -27 -30 -21 0 11 52 63 57 57 2 -2 -10 -18 -27 -36z m-435 19 c10 -15
-1 -22 -24 -14 -12 3 -19 11 -16 16 8 12 32 11 40 -2z m1825 -41 c0 -16 -4
-28 -10 -28 -13 0 -30 34 -30 59 0 19 2 20 20 9 12 -8 20 -24 20 -40z m-1780
-45 c-1 -43 -1 -86 0 -95 2 -22 20 -34 20 -14 0 9 6 16 13 16 7 0 13 -11 13
-25 0 -17 -4 -24 -13 -21 -7 3 -13 1 -13 -5 0 -24 -19 5 -37 58 -27 77 -29
131 -6 149 10 7 19 14 21 14 2 0 3 -35 2 -77z m419 37 c-37 -31 -51 -37 -43
-17 5 14 67 57 73 51 3 -3 -11 -18 -30 -34z m-191 -10 c-7 -10 -14 -17 -17
-15 -4 4 18 35 25 35 2 0 -1 -9 -8 -20z m1162 -73 c-23 -51 -34 -65 -50 -64
-26 2 -25 9 3 44 13 15 34 46 47 67 35 58 35 30 0 -47z m-16 51 c-4 -7 -18
-27 -30 -45 -13 -17 -24 -34 -24 -38 0 -11 -44 -65 -52 -65 -8 0 -125 -93
-138 -109 -8 -10 -63 -35 -80 -36 -8 -1 -24 -5 -35 -9 -11 -4 -26 -10 -32 -12
-22 -6 -14 -57 14 -99 40 -60 64 -79 100 -81 24 0 43 -10 64 -32 31 -31 53
-40 63 -24 6 10 74 3 82 -9 3 -5 26 -9 50 -9 l46 0 -6 -32 c-6 -31 -5 -30 14
10 12 25 26 42 36 42 10 0 25 7 35 16 17 15 19 14 25 -11 4 -15 2 -80 -3 -144
-10 -115 -9 -137 6 -113 10 17 23 255 15 286 -4 16 -1 25 10 29 11 5 16 0 16
-15 0 -17 2 -18 15 -8 13 11 15 6 16 -36 1 -27 1 -65 0 -84 -1 -55 15 -8 23
68 5 41 3 62 -4 62 -5 0 -10 5 -10 10 0 6 -10 24 -22 40 -16 22 -19 33 -11 41
14 14 36 2 29 -16 -8 -22 5 -25 32 -7 25 16 25 16 19 -8 -3 -14 -8 -52 -11
-85 l-5 -60 13 65 c8 36 14 59 15 52 0 -7 6 -10 11 -7 6 3 10 28 10 55 0 44 3
50 29 61 17 8 34 23 40 34 8 16 10 11 10 -27 1 -26 -3 -50 -9 -53 -5 -3 -10 0
-10 7 -1 9 -5 8 -13 -4 -7 -9 -19 -64 -27 -123 -10 -79 -16 -102 -23 -90 -5
10 -7 40 -4 66 3 27 2 49 -2 49 -4 0 -11 -53 -15 -117 l-7 -118 -49 -45 c-58
-54 -115 -100 -124 -100 -10 0 -7 41 9 115 8 39 14 99 14 135 -1 74 -3 70 -21
-55 l-12 -90 -7 89 c-12 149 -26 121 -21 -42 5 -145 4 -149 -19 -173 -66 -69
-138 -99 -89 -37 15 20 17 31 10 54 l-8 29 -1 -32 c-1 -18 -6 -33 -11 -33 -6
0 -26 -25 -45 -55 -20 -30 -39 -55 -43 -55 -4 0 -18 -3 -31 -7 -21 -5 -22 -4
-12 14 16 30 1 36 -27 11 l-25 -23 6 62 c3 38 1 66 -5 69 -15 10 -58 -42 -57
-68 1 -20 3 -19 15 10 18 42 39 43 30 1 -3 -17 -6 -41 -6 -53 0 -29 -69 -53
-77 -27 -14 45 -23 55 -17 17 4 -31 3 -38 -9 -33 -10 4 -17 -2 -20 -15 -5 -17
-11 -20 -36 -15 -16 3 -42 2 -58 -2 -17 -5 -57 -12 -90 -16 -60 -7 -60 -6 -67
21 -4 15 -14 37 -23 48 -15 21 -15 21 -8 -4 4 -14 9 -37 12 -52 l5 -28 -61 0
c-60 0 -66 4 -62 37 1 6 -3 14 -9 18 -5 3 -10 13 -10 22 0 8 -8 27 -18 41 -10
15 -25 48 -32 75 -7 26 -17 50 -22 54 -6 3 -8 -4 -4 -18 6 -19 5 -21 -3 -7 -6
9 -10 27 -9 40 2 23 -18 95 -32 113 -12 16 -100 286 -100 307 0 10 -4 18 -10
18 -17 0 -11 -31 36 -165 67 -195 64 -185 49 -185 -14 0 -54 78 -56 107 0 14
-2 15 -6 3 -3 -8 -10 -18 -15 -21 -5 -3 2 -42 17 -88 15 -45 29 -80 32 -78 4
4 -8 51 -32 122 -3 11 3 4 14 -15 11 -19 20 -43 21 -53 0 -13 6 -17 22 -15 18
2 23 -2 24 -22 1 -14 8 -38 17 -55 9 -16 17 -40 17 -52 0 -13 6 -23 13 -23 12
0 57 -71 57 -91 0 -4 -8 -6 -17 -2 -13 4 -10 -3 10 -24 39 -42 36 -56 -10 -39
-21 8 -55 17 -75 21 -30 5 -38 10 -38 27 0 18 2 19 17 7 15 -13 16 -11 10 11
-3 14 -2 32 3 40 10 16 11 14 14 -30 1 -8 4 -14 9 -12 4 1 14 2 22 2 17 0 20
46 5 70 -8 12 -10 10 -10 -10 -1 -22 -3 -20 -21 15 -11 22 -27 64 -34 94 -18
65 -21 69 -29 38 -3 -14 3 -50 14 -82 35 -101 21 -130 -15 -33 -9 26 -23 49
-30 51 -11 5 -27 30 -101 162 -12 23 -34 81 -49 130 -77 261 -73 236 -44 232
17 -3 29 -28 66 -138 48 -141 50 -146 59 -137 3 3 -2 23 -10 43 -24 57 -18 66
10 15 28 -49 27 -46 -5 53 -13 37 -27 67 -32 67 -12 0 -39 55 -39 80 0 11 5
20 10 20 6 0 10 -13 10 -28 0 -16 8 -38 18 -50 10 -11 31 -53 46 -92 44 -113
43 -73 -2 47 -59 160 -58 148 -14 150 36 2 36 1 10 -9 -16 -5 -28 -14 -28 -20
0 -11 47 -4 93 14 31 12 50 3 27 -13 -11 -8 -7 -9 15 -4 63 14 75 15 75 4 0
-12 68 -158 83 -177 6 -8 13 -9 16 -3 6 9 37 -50 90 -169 24 -54 64 -125 83
-148 8 -9 24 -39 37 -67 39 -82 91 -125 91 -75 0 23 -58 156 -65 149 -2 -3 7
-33 21 -68 40 -98 24 -101 -25 -4 -25 48 -50 95 -57 103 -6 8 -47 83 -90 165
-42 83 -97 186 -121 229 -24 43 -42 81 -40 82 2 2 17 7 34 10 29 6 30 5 35
-38 5 -45 90 -227 173 -373 68 -119 59 -76 -11 53 -36 64 -70 132 -76 150 -7
17 -16 32 -20 32 -4 0 -8 6 -8 13 0 8 -7 28 -16 46 -9 17 -13 39 -10 47 3 8
-1 29 -9 45 -25 48 -7 59 65 38 34 -10 40 -19 95 -131 32 -65 62 -121 66 -124
11 -7 -12 47 -59 136 -50 97 -58 120 -38 120 8 0 18 5 22 11 4 7 -2 9 -16 7
-13 -2 -25 3 -27 10 -3 6 1 12 9 13 71 4 86 3 85 -5 -1 -5 10 -14 25 -19 23
-9 40 -3 128 46 55 31 106 57 113 57 8 0 26 14 42 30 16 17 34 30 40 30 7 0
25 12 41 27 33 32 167 143 172 143 2 0 0 -6 -4 -12z m383 -60 c0 -13 3 -41 7
-63 8 -38 7 -39 -7 -20 -21 26 -42 118 -33 141 6 16 9 15 20 -8 8 -15 14 -37
13 -50z m123 42 c-6 -12 -14 -20 -17 -17 -2 3 1 14 8 26 17 26 24 19 9 -9z
m-1972 -15 c0 -13 -4 -22 -9 -19 -5 3 -9 14 -9 25 0 10 4 19 9 19 5 0 9 -11 9
-25z m140 -5 c4 -23 -15 -43 -30 -34 -10 6 -11 48 -1 58 12 12 28 0 31 -24z
m102 5 c0 -8 -2 -15 -4 -15 -2 0 -6 7 -10 15 -3 8 -1 15 4 15 6 0 10 -7 10
-15z m1650 -29 c0 -26 -6 -18 -14 19 -5 22 -4 26 4 15 5 -8 10 -24 10 -34z
m-1683 -8 c-3 -8 -6 -5 -6 6 -1 11 2 17 5 13 3 -3 4 -12 1 -19z m1473 -9 c0
-6 -4 -7 -10 -4 -5 3 -10 11 -10 16 0 6 5 7 10 4 6 -3 10 -11 10 -16z m-1665
-22 c1 -31 -13 -22 -20 12 -3 14 0 21 8 18 7 -2 12 -16 12 -30z m1165 -2 c-18
-14 -36 -22 -39 -19 -8 7 40 44 58 44 8 0 0 -11 -19 -25z m-720 11 c0 -8 -61
-48 -66 -43 -3 2 10 14 28 26 35 22 38 23 38 17z m1420 0 c0 -3 -4 -8 -10 -11
-5 -3 -10 -1 -10 4 0 6 5 11 10 11 6 0 10 -2 10 -4z m-290 -14 c0 -13 -71 -75
-78 -68 -3 4 10 22 28 41 33 34 50 43 50 27z m450 4 c0 -3 -4 -8 -10 -11 -5
-3 -10 -1 -10 4 0 6 5 11 10 11 6 0 10 -2 10 -4z m-1240 -20 c0 -2 -7 -7 -16
-10 -8 -3 -12 -2 -9 4 6 10 25 14 25 6z m795 -42 c-38 -33 -45 -21 -9 15 16
16 31 25 33 19 2 -6 -9 -21 -24 -34z m-485 22 c0 -2 -7 -7 -16 -10 -8 -3 -12
-2 -9 4 6 10 25 14 25 6z m370 -24 c0 -10 -151 -129 -175 -138 -26 -11 -16 12
13 27 37 19 124 82 141 102 15 19 21 21 21 9z m570 -8 c0 -8 -5 -12 -10 -9 -6
4 -8 11 -5 16 9 14 15 11 15 -7z m-1955 -148 c9 -44 19 -94 22 -110 4 -20 2
-27 -6 -22 -6 4 -11 17 -11 28 0 38 -32 137 -44 135 -6 -1 -9 7 -7 18 2 11 4
40 4 65 l0 45 13 -39 c8 -21 21 -75 29 -120z m1733 141 c24 1 29 -16 10 -35
-7 -7 -16 -8 -23 -2 -8 6 -30 -10 -70 -51 -33 -33 -72 -70 -87 -81 -50 -35
-30 -1 37 63 65 62 83 89 45 69 -29 -16 -25 1 8 27 15 13 33 20 42 16 8 -3 25
-6 38 -6z m59 -9 c-3 -8 -6 -5 -6 6 -1 11 2 17 5 13 3 -3 4 -12 1 -19z m-1733
-2 c-3 -8 5 -21 17 -30 13 -8 20 -19 16 -23 -4 -4 -24 10 -45 30 l-37 37 27 0
c19 0 26 -4 22 -14z m1966 -11 c0 -14 -4 -25 -10 -25 -5 0 -10 11 -10 25 0 14
5 25 10 25 6 0 10 -11 10 -25z m-2190 5 c-20 -13 -33 -13 -25 0 3 6 14 10 23
10 15 0 15 -2 2 -10z m1704 -5 c4 -10 -1 -15 -14 -15 -20 0 -26 11 -13 23 10
11 20 8 27 -8z m-1794 -9 c0 -2 -7 -7 -16 -10 -8 -3 -12 -2 -9 4 6 10 25 14
25 6z m675 -16 c-3 -5 -14 -10 -23 -10 -15 0 -15 2 -2 10 20 13 33 13 25 0z
m-529 -57 c5 -36 3 -43 -16 -53 -20 -11 -21 -10 -14 12 5 12 9 40 8 60 0 48
13 36 22 -19z m-151 37 c-3 -5 -11 -10 -16 -10 -6 0 -7 5 -4 10 3 6 11 10 16
10 6 0 7 -4 4 -10z m-145 -5 c0 -2 -10 -9 -22 -15 -22 -11 -22 -10 -4 4 21 17
26 19 26 11z m1270 -4 c0 -11 -31 -24 -39 -16 -3 3 1 10 9 15 19 12 30 12 30
1z m566 -18 c-10 -10 -19 5 -10 18 6 11 8 11 12 0 2 -7 1 -15 -2 -18z m414
-12 c0 -22 -4 -42 -9 -45 -10 -6 -21 52 -14 72 10 26 23 10 23 -27z m-292 20
c-1 -5 -34 -34 -73 -65 -38 -31 -75 -61 -82 -66 -18 -15 -45 -12 -41 3 6 25
149 137 175 137 14 0 23 -4 21 -9z m-1507 -11 c2 -11 5 -25 9 -37 1 -5 2 -11
1 -15 0 -4 8 -31 18 -60 10 -29 24 -82 31 -118 7 -36 17 -72 22 -80 6 -10 6
-2 2 20 -9 49 5 31 21 -26 7 -27 16 -58 21 -69 7 -18 6 -19 -11 -5 -17 14 -18
13 -11 -20 6 -30 5 -33 -7 -20 -8 8 -27 69 -42 135 -14 66 -33 140 -40 165
-22 73 -33 140 -24 140 5 0 10 -4 10 -10z m109 6 c0 -3 -4 -8 -10 -11 -5 -3
-10 -1 -10 4 0 6 5 11 10 11 6 0 10 -2 10 -4z m207 -7 c-24 -14 -57 -20 -57
-9 0 8 26 16 60 18 11 1 11 -1 -3 -9z m-517 -10 c-23 -15 -129 -69 -136 -69
-15 0 42 53 71 66 37 16 88 19 65 3z m339 -13 c10 -12 8 -13 -8 -9 -12 3 -21
9 -21 14 0 14 16 11 29 -5z m337 -11 c19 -14 19 -14 -2 -15 -12 0 -24 7 -28
15 -7 19 5 19 30 0z m1424 -22 c-11 -17 -11 -17 -6 0 3 10 6 24 7 30 0 9 2 9
5 0 3 -7 0 -20 -6 -30z m80 22 c0 -8 -4 -15 -10 -15 -5 0 -7 7 -4 15 4 8 8 15
10 15 2 0 4 -7 4 -15z m-2468 -17 c-6 -6 -15 -8 -19 -4 -4 4 -1 11 7 16 19 12
27 3 12 -12z m410 -10 c3 -18 3 -41 0 -52 -5 -20 -6 -19 -13 4 -10 37 -10 80
0 80 5 0 11 -14 13 -32z m738 28 c0 -3 -4 -8 -10 -11 -5 -3 -10 -1 -10 4 0 6
5 11 10 11 6 0 10 -2 10 -4z m480 -8 c0 -6 -10 -22 -22 -35 -18 -20 -19 -23
-5 -23 19 0 22 -21 6 -37 -7 -7 -7 -13 -1 -17 5 -3 17 5 26 19 18 28 36 33 36
10 0 -8 -4 -15 -9 -15 -5 0 -12 -7 -15 -16 -4 -11 -1 -14 13 -9 26 8 37 -35
14 -52 -18 -14 -43 -1 -43 21 0 14 -98 59 -115 52 -8 -3 -19 2 -26 11 -11 13
-10 18 10 34 26 21 51 25 51 7 0 -6 9 -3 20 7 11 10 20 24 20 31 0 11 14 21
33 23 4 1 7 -4 7 -11z m-1026 -147 c30 -59 61 -148 78 -226 6 -27 16 -59 23
-70 7 -11 15 -38 18 -60 5 -33 4 -36 -5 -20 -6 11 -15 22 -19 25 -4 3 -21 46
-38 95 -27 78 -28 87 -11 65 20 -24 20 -23 -1 20 -12 25 -25 47 -30 50 -15 10
-79 203 -79 239 l1 36 18 -50 c10 -27 30 -74 45 -104z m-241 118 c5 -17 -3
-24 -40 -40 -24 -10 -50 -19 -56 -19 -16 0 44 49 61 50 7 0 15 7 18 15 8 20
11 19 17 -6z m225 -30 c-3 -8 -7 -3 -11 10 -4 17 -3 21 5 13 5 -5 8 -16 6 -23z
m-338 16 c0 -2 -13 -11 -30 -20 -16 -9 -30 -12 -30 -7 0 5 10 14 23 20 25 12
37 14 37 7z m2287 -17 c-3 -8 -6 -5 -6 6 -1 11 2 17 5 13 3 -3 4 -12 1 -19z
m-123 -20 c-10 -39 -10 -95 -1 -105 4 -3 14 2 22 13 8 10 15 14 15 7 0 -6 -10
-19 -22 -27 -20 -14 -22 -13 -35 11 -16 31 -16 45 -1 94 14 47 33 53 22 7z
m106 22 c0 -5 -5 -10 -11 -10 -5 0 -7 5 -4 10 3 6 8 10 11 10 2 0 4 -4 4 -10z
m-2370 -14 c-16 -20 -80 -57 -80 -47 0 12 32 39 60 50 34 13 34 13 20 -3z
m1594 -24 c-20 -35 -57 -62 -47 -35 6 16 51 63 60 63 2 0 -3 -13 -13 -28z
m588 -52 c-2 -3 -7 1 -9 8 -3 6 -9 10 -14 6 -11 -6 -12 39 -2 50 4 4 13 -8 19
-26 6 -18 9 -35 6 -38z m-568 -1 c-15 -16 -23 -29 -17 -29 5 0 18 9 28 20 26
28 41 25 21 -5 -26 -40 -15 -49 20 -17 10 10 36 30 57 46 34 26 37 27 37 8 0
-27 -95 -96 -118 -86 -21 10 -30 11 -64 13 -40 1 -35 24 15 70 31 30 43 36 45
24 2 -8 -9 -28 -24 -44z m707 28 c-8 -8 -11 -7 -11 4 0 20 13 34 18 19 3 -7
-1 -17 -7 -23z m-2266 -2 c-39 -32 -55 -32 -25 0 13 14 31 25 39 25 11 -1 6
-9 -14 -25z m205 -195 c-14 -26 -12 -33 5 -26 35 13 42 -56 11 -98 -14 -18
-16 -17 -48 5 -18 13 -39 30 -45 39 -18 22 -5 70 28 101 16 15 29 30 29 33 0
14 -29 4 -56 -19 -33 -28 -59 -33 -50 -9 3 9 6 23 6 32 0 13 2 14 9 4 6 -10
14 -2 30 27 11 23 20 45 19 49 -1 4 5 21 12 37 12 30 13 29 36 -64 17 -66 21
-98 14 -111z m1128 175 c-3 -3 -13 -2 -22 1 -14 5 -15 9 -4 15 13 8 36 -6 26
-16z m-1041 -7 c-3 -8 -6 -5 -6 6 -1 11 2 17 5 13 3 -3 4 -12 1 -19z m-67 -23
c0 -5 -5 -3 -10 5 -5 8 -10 20 -10 25 0 6 5 3 10 -5 5 -8 10 -19 10 -25z
m-252 -2 c-9 -10 -14 -22 -12 -28 1 -5 -10 -20 -25 -32 l-27 -21 4 30 c3 20
15 36 36 49 38 23 43 24 24 2z m296 1 c9 -24 2 -26 -12 -4 -7 11 -8 20 -3 20
5 0 12 -7 15 -16z m-344 2 c0 -2 -7 -6 -15 -10 -8 -3 -15 -1 -15 4 0 6 7 10
15 10 8 0 15 -2 15 -4z m368 -91 c0 -16 -2 -15 -8 5 -6 20 -8 21 -9 6 -1 -17
-3 -18 -13 -7 -10 11 -10 14 0 18 6 3 12 12 13 21 1 25 18 -17 17 -43z m1716
12 c-22 -38 -77 -106 -83 -103 -10 6 -1 86 10 86 5 0 9 -7 9 -15 0 -28 29 -15
41 19 7 19 16 33 21 30 5 -3 5 -11 2 -17z m182 -14 c-8 -15 -15 -25 -16 -21 0
12 23 58 27 54 3 -2 -2 -17 -11 -33z m81 15 c-3 -8 -6 -5 -6 6 -1 11 2 17 5
13 3 -3 4 -12 1 -19z m-1928 -87 c1 -35 -5 -22 -12 24 -5 28 -4 34 3 20 5 -11
9 -31 9 -44z m-39 29 c0 -11 -2 -20 -4 -20 -2 0 -6 9 -9 20 -3 11 -1 20 4 20
5 0 9 -9 9 -20z m1970 -70 c0 -49 -4 -90 -9 -90 -13 0 -21 53 -10 67 7 7 6 14
-1 18 -9 6 -7 26 7 78 9 35 13 15 13 -73z m33 -19 c-3 -10 0 -28 6 -39 11 -21
5 -52 -10 -52 -10 0 -12 93 -2 103 10 11 11 8 6 -12z m-1855 -70 c33 -82 27
-107 -9 -37 -17 32 -28 60 -25 63 2 3 0 17 -5 32 -20 52 17 -1 39 -58z m-338
29 c0 -5 -2 -10 -4 -10 -3 0 -8 5 -11 10 -3 6 -1 10 4 10 6 0 11 -4 11 -10z
m-51 -126 c21 -27 18 -59 -6 -50 -8 3 -18 6 -22 6 -13 0 -62 52 -78 84 -15 29
-15 31 18 59 l33 30 17 -52 c10 -28 27 -63 38 -77z m310 21 c1 -36 -16 6 -22
55 l-5 45 13 -40 c7 -22 14 -49 14 -60z m35 45 c10 -13 9 -13 -6 -1 -10 7 -17
23 -17 35 1 20 2 20 6 1 3 -11 10 -27 17 -35z m1592 -9 c-17 -33 -32 -58 -34
-56 -6 6 53 115 63 115 1 0 -12 -27 -29 -59z m-1679 -3 c-3 -8 -6 -5 -6 6 -1
11 2 17 5 13 3 -3 4 -12 1 -19z m1950 -20 c-3 -7 -5 -2 -5 12 0 14 2 19 5 13
2 -7 2 -19 0 -25z m-1687 -43 c38 -58 41 -69 32 -90 -10 -21 -9 -25 4 -25 8 0
12 -5 9 -10 -4 -6 -2 -17 5 -25 8 -10 8 -15 0 -20 -6 -4 -12 -5 -13 -4 -44 84
-61 132 -34 94 9 -11 16 -14 21 -7 3 5 -8 23 -24 39 -17 15 -35 44 -40 63 -19
68 -15 66 40 -15z m-650 -12 c0 -18 -11 -16 -39 6 -23 18 -23 19 -5 38 19 19
19 19 31 -6 7 -14 12 -32 13 -38z m158 31 c-4 -3 -12 5 -18 18 -12 22 -12 22
6 6 10 -10 15 -20 12 -24z m431 -29 c27 -58 36 -135 15 -135 -16 0 -18 9 -5
28 5 8 -1 40 -15 80 -26 73 -26 72 -20 72 2 0 13 -20 25 -45z m-53 -28 c-6
-25 24 -79 41 -73 7 3 13 1 13 -4 0 -12 -30 -13 -45 -2 -19 13 -37 65 -25 72
6 4 8 15 4 25 -5 13 -4 16 5 11 7 -5 10 -18 7 -29z m1567 18 c-3 -9 -8 -14
-10 -11 -3 3 -2 9 2 15 9 16 15 13 8 -4z m-1933 -25 c0 -5 -2 -10 -4 -10 -3 0
-8 5 -11 10 -3 6 -1 10 4 10 6 0 11 -4 11 -10z m1613 -31 c-11 -42 -37 -54
-27 -12 7 29 24 56 31 49 2 -2 0 -19 -4 -37z m-1654 -94 c3 -12 -13 -9 -17 4
-2 7 0 11 6 7 5 -3 10 -8 11 -11z m1908 -7 c-3 -8 -6 -5 -6 6 -1 11 2 17 5 13
3 -3 4 -12 1 -19z m-43 3 c3 -4 -1 -17 -9 -27 -14 -18 -14 -18 -15 9 0 26 13
36 24 18z m-1784 -11 c0 -5 -7 -10 -15 -10 -8 0 -15 5 -15 10 0 6 7 10 15 10
8 0 15 -4 15 -10z m1860 -2 c0 -19 -18 -43 -25 -36 -9 9 4 48 16 48 5 0 9 -6
9 -12z m-1890 -44 c46 -19 50 -31 16 -44 -26 -9 -108 -10 -103 0 1 3 9 17 16
33 17 32 18 32 71 11z m1750 6 c0 -5 -5 -10 -11 -10 -5 0 -7 5 -4 10 3 6 8 10
11 10 2 0 4 -4 4 -10z m-685 -10 c-3 -5 -13 -10 -21 -10 -8 0 -12 5 -9 10 3 6
13 10 21 10 8 0 12 -4 9 -10z m-984 -38 c-13 -25 -50 -56 -58 -49 -6 7 45 63
60 66 4 0 3 -7 -2 -17z m659 8 c0 -5 -2 -10 -4 -10 -3 0 -8 5 -11 10 -3 6 -1
10 4 10 6 0 11 -4 11 -10z m1006 -16 c-4 -9 -9 -15 -11 -12 -3 3 -3 13 1 22 4
9 9 15 11 12 3 -3 3 -13 -1 -22z m-100 -11 c-10 -10 -19 5 -10 18 6 11 8 11
12 0 2 -7 1 -15 -2 -18z m473 -37 c-12 -20 -30 -41 -41 -47 -19 -10 -19 -10
-2 18 22 35 56 74 61 69 2 -2 -6 -20 -18 -40z m51 -21 l0 -65 -32 0 c-30 0
-31 1 -14 19 10 11 15 24 12 30 -6 8 22 81 31 81 2 0 3 -29 3 -65z m-568 -33
c-7 -2 -12 -10 -12 -18 0 -8 -9 -14 -19 -14 -11 0 -23 -4 -26 -10 -8 -13 -25
-13 -25 1 0 5 17 30 37 55 l38 45 9 -28 c6 -19 5 -28 -2 -31z m-1532 28 c0 -5
-4 -10 -10 -10 -5 0 -10 5 -10 10 0 6 5 10 10 10 6 0 10 -4 10 -10z m1727 -12
c-3 -8 -6 -5 -6 6 -1 11 2 17 5 13 3 -3 4 -12 1 -19z m-590 -10 c-3 -8 -6 -5
-6 6 -1 11 2 17 5 13 3 -3 4 -12 1 -19z m165 -10 c-15 -15 -24 -6 -16 16 5 12
10 14 17 7 8 -8 8 -14 -1 -23z m42 -37 c-11 -12 -22 17 -16 44 l6 30 7 -35 c4
-19 5 -37 3 -39z m66 19 c0 -20 -5 -30 -15 -30 -16 0 -19 17 -9 44 10 26 24
18 24 -14z m300 -1 c0 -10 -7 -19 -15 -19 -16 0 -19 9 -9 34 8 20 24 11 24
-15z m-1660 11 c0 -5 -9 -10 -20 -10 -11 0 -20 5 -20 10 0 6 9 10 20 10 11 0
20 -4 20 -10z m1170 -11 c0 -5 -7 -9 -15 -9 -15 0 -20 12 -9 23 8 8 24 -1 24
-14z m-231 -10 c-16 -10 -23 -4 -14 10 3 6 11 8 17 5 6 -4 5 -9 -3 -15z m635
11 c38 -14 33 -33 -6 -25 -39 9 -42 11 -33 24 8 13 8 13 39 1z m-1225 -54
c-28 -13 -36 1 -13 23 17 16 20 16 25 2 4 -10 0 -19 -12 -25z m111 9 c0 -8 -7
-15 -15 -15 -16 0 -20 12 -8 23 11 12 23 8 23 -8z m70 -10 c0 -8 -4 -15 -9
-15 -13 0 -22 16 -14 24 11 11 23 6 23 -9z m205 5 c3 -5 -3 -10 -14 -10 -12 0
-21 5 -21 10 0 6 6 10 14 10 8 0 18 -4 21 -10z m-815 -50 c0 -5 -4 -10 -10
-10 -5 0 -10 5 -10 10 0 6 5 10 10 10 6 0 10 -4 10 -10z"/>
<path d="M2622 3348 c-68 -122 -103 -191 -83 -168 11 14 21 28 21 31 0 3 23
46 50 94 28 48 49 89 47 92 -3 2 -18 -20 -35 -49z"/>
<path d="M2415 3219 c-56 -65 -76 -99 -59 -99 9 0 44 41 44 51 0 4 18 29 40
54 33 38 50 68 38 64 -2 0 -30 -32 -63 -70z"/>
<path d="M2632 3234 c-30 -46 -97 -172 -85 -159 14 14 114 187 111 191 -2 1
-13 -13 -26 -32z"/>
<path d="M2494 3179 c-14 -22 -24 -43 -22 -44 2 -2 16 16 31 40 33 56 26 59
-9 4z"/>
<path d="M2433 3161 c-11 -21 -33 -60 -49 -86 -15 -27 -23 -46 -17 -42 14 9
97 157 91 162 -3 3 -14 -12 -25 -34z"/>
<path d="M2553 3035 c-34 -66 -27 -79 7 -16 33 59 33 61 23 61 -5 0 -18 -21
-30 -45z"/>
<path d="M2270 3015 c-7 -9 -8 -15 -2 -15 5 0 12 7 16 15 3 8 4 15 2 15 -2 0
-9 -7 -16 -15z"/>
<path d="M2390 3015 c-7 -9 -11 -17 -9 -20 3 -2 10 5 17 15 14 24 10 26 -8 5z"/>
<path d="M2332 2985 c-6 -14 -10 -25 -8 -25 2 0 11 11 20 25 9 14 13 25 8 25
-5 0 -14 -11 -20 -25z"/>
<path d="M2392 2945 c-6 -14 -8 -25 -4 -25 4 0 12 11 19 25 6 14 8 25 4 25 -4
0 -13 -11 -19 -25z"/>
<path d="M2335 2940 c-10 -11 -22 -17 -28 -13 -6 3 -7 1 -3 -5 9 -15 41 0 50
23 7 20 3 19 -19 -5z"/>
<path d="M2546 2871 c-23 -43 -20 -52 5 -12 11 18 18 35 15 38 -2 3 -12 -9
-20 -26z"/>
<path d="M2463 2843 c-18 -38 -8 -41 12 -4 8 17 12 31 8 31 -5 0 -14 -12 -20
-27z"/>
<path d="M2496 2780 c-14 -22 -26 -43 -26 -47 0 -4 6 1 13 12 33 48 49 75 44
75 -2 0 -16 -18 -31 -40z"/>
<path d="M2435 2789 c-4 -6 -5 -12 -2 -15 2 -3 7 2 10 11 7 17 1 20 -8 4z"/>
<path d="M2415 2749 c-4 -6 -5 -12 -2 -15 2 -3 7 2 10 11 7 17 1 20 -8 4z"/>
<path d="M332 2365 c-34 -48 -37 -55 -24 -55 9 0 66 89 60 95 -2 3 -19 -16
-36 -40z"/>
<path d="M1308 1912 c20 -49 87 -171 90 -163 3 9 -86 181 -94 181 -2 0 0 -8 4
-18z"/>
<path d="M1115 1865 c18 -108 89 -305 113 -313 9 -3 10 3 2 23 -5 14 -10 38
-10 52 0 14 -16 57 -36 97 -38 74 -45 91 -63 141 l-11 30 5 -30z"/>
<path d="M1520 1733 c1 -11 50 -90 50 -80 0 11 -39 87 -45 87 -3 0 -5 -3 -5
-7z"/>
<path d="M1427 1683 c4 -10 23 -45 43 -78 20 -33 51 -85 68 -115 17 -30 32
-51 32 -46 0 4 -21 45 -46 90 -26 44 -55 98 -65 118 -20 39 -44 62 -32 31z"/>
<path d="M2252 1673 c-1 -6 -13 -25 -27 -41 -23 -28 -23 -30 -5 -25 15 4 20 0
20 -13 0 -13 3 -15 11 -7 5 5 9 30 6 54 -2 24 -4 39 -5 32z"/>
<path d="M993 1653 c2 -10 8 -27 12 -38 7 -20 6 -20 -9 -1 -9 11 -16 26 -16
33 0 7 -4 13 -10 13 -15 0 -12 -15 8 -41 10 -13 32 -51 47 -83 16 -33 30 -55
32 -49 4 12 -56 183 -64 183 -3 0 -3 -8 0 -17z"/>
<path d="M1150 1629 c12 -23 24 -39 26 -36 5 5 -35 77 -42 77 -3 0 5 -18 16
-41z"/>
<path d="M1566 1624 c-4 -9 0 -24 7 -33 7 -9 22 -36 32 -59 17 -39 20 -42 27
-22 6 15 -1 36 -23 75 -17 30 -32 55 -34 55 -2 0 -6 -7 -9 -16z"/>
<path d="M1976 1624 c-8 -22 -8 -26 4 -19 6 4 10 -12 10 -40 0 -28 4 -44 10
-40 16 10 13 115 -4 115 -8 0 -17 -7 -20 -16z"/>
<path d="M1180 1574 c0 -3 12 -26 27 -51 14 -25 32 -61 39 -81 7 -21 17 -36
22 -35 6 1 16 -18 23 -42 7 -25 19 -45 26 -45 18 0 17 5 -11 59 -13 25 -30 62
-37 81 -14 34 -15 40 -18 60 0 5 -7 7 -15 4 -9 -4 -20 6 -31 25 -14 29 -25 39
-25 25z"/>
<path d="M1260 1550 c0 -18 63 -130 73 -130 4 0 -8 30 -28 68 -41 75 -45 81
-45 62z"/>
<path d="M1386 1495 c22 -64 67 -181 70 -184 30 -34 -31 147 -62 185 -15 19
-16 19 -8 -1z"/>
<path d="M1680 1441 c0 -5 9 -19 20 -32 l21 -24 -16 33 c-15 31 -25 41 -25 23z"/>
<path d="M1610 1371 c0 -6 4 -13 10 -16 6 -3 7 1 4 9 -7 18 -14 21 -14 7z"/>
<path d="M535 3760 c3 -5 12 -10 20 -10 8 0 17 5 20 10 4 6 -5 10 -20 10 -15
0 -24 -4 -20 -10z"/>
<path d="M2090 3644 c0 -26 -35 -68 -75 -89 -37 -19 -37 -19 -51 0 -13 17 -16
18 -24 5 -5 -8 -10 -20 -10 -26 0 -5 -16 -25 -35 -44 -32 -31 -38 -33 -56 -22
-19 12 -20 11 -14 -7 5 -17 2 -21 -14 -21 -12 0 -21 5 -21 12 0 6 -3 9 -6 5
-11 -11 7 -47 24 -48 11 0 13 -2 4 -6 -7 -3 -19 0 -26 6 -10 8 -17 6 -31 -9
-21 -23 -45 -26 -64 -7 -11 10 -13 9 -9 -3 3 -9 21 -17 48 -20 l43 -5 -56 -59
c-39 -41 -53 -63 -47 -71 15 -18 102 -16 122 2 9 8 21 12 27 9 6 -4 18 -2 28
3 10 6 34 18 53 27 l34 17 -47 -53 c-26 -29 -46 -58 -44 -64 6 -16 68 -10 86
8 13 14 12 15 -19 6 -18 -5 -36 -8 -38 -5 -2 2 12 23 32 46 20 24 36 47 36 51
0 5 9 6 21 3 14 -5 39 2 73 20 66 36 96 63 96 89 0 18 -4 16 -26 -12 -15 -18
-49 -44 -77 -58 -61 -29 -57 -28 -57 -5 0 11 -14 31 -31 45 -24 21 -30 32 -27
57 2 17 -1 32 -7 33 -5 0 -11 -11 -13 -26 -2 -17 -19 -40 -50 -65 -26 -21 -58
-50 -72 -64 -14 -14 -36 -32 -50 -38 -14 -7 12 24 58 69 45 44 82 87 82 94 0
7 13 23 29 35 16 13 35 36 41 52 10 24 15 27 32 18 14 -8 24 -7 35 3 9 7 18
12 20 11 14 -11 63 27 82 64 14 27 14 53 1 53 -5 0 -10 -7 -10 -16z m-174
-289 c4 -8 12 -15 20 -15 32 0 10 -28 -38 -48 l-53 -22 33 30 c28 27 41 50 27
50 -3 0 -35 -25 -72 -55 -37 -30 -69 -52 -72 -49 -8 8 120 123 137 124 7 0 15
-7 18 -15z"/>
<path d="M1640 3616 c0 -2 9 -6 20 -9 11 -3 18 -1 14 4 -5 9 -34 13 -34 5z"/>
<path d="M1272 3588 c-7 -7 -12 -25 -12 -40 0 -25 -3 -28 -24 -22 -13 3 -27 1
-30 -5 -4 -6 1 -11 11 -12 10 0 39 -2 66 -4 41 -4 50 0 72 22 29 32 26 44 -4
14 -20 -20 -61 -29 -61 -13 0 4 4 22 9 40 10 34 -3 44 -27 20z"/>
<path d="M950 3530 c0 -11 -9 -34 -20 -52 -26 -43 -25 -62 5 -86 32 -26 32
-43 -5 -94 -56 -78 -26 -117 41 -52 36 35 47 62 14 34 -8 -7 -15 -8 -15 -3 0
4 18 24 41 43 22 19 47 46 54 60 13 23 14 23 15 4 0 -11 -16 -35 -35 -54 -19
-18 -32 -37 -29 -42 3 -4 -4 -22 -16 -38 -12 -17 -20 -38 -18 -47 2 -13 8 -12
35 11 28 23 31 24 26 6 -8 -31 18 -25 68 17 24 21 46 41 47 45 2 5 8 8 13 8
14 0 69 42 69 52 0 5 -4 6 -10 3 -22 -14 -8 16 31 65 22 28 38 55 34 58 -7 8
-25 -13 -95 -114 -42 -60 -140 -150 -140 -129 0 9 65 106 87 130 10 11 29 37
42 57 12 21 30 42 39 48 12 7 13 9 3 10 -7 0 -24 -11 -37 -25 l-24 -26 6 33
c3 18 8 39 10 46 2 8 -2 12 -8 10 -7 -3 -14 -17 -16 -32 -2 -14 -15 -38 -28
-51 -29 -29 -34 -30 -34 -10 0 24 -19 18 -51 -17 -23 -26 -32 -30 -38 -19 -5
7 -13 11 -19 7 -6 -3 -23 4 -38 17 -20 18 -25 28 -19 46 5 18 10 20 21 10 32
-26 59 14 29 45 -8 8 -15 22 -15 30 0 9 -4 16 -10 16 -5 0 -10 -9 -10 -20z
m171 -177 c-38 -56 -121 -145 -121 -130 0 20 139 184 158 187 1 0 -15 -26 -37
-57z m-148 -38 c-15 -19 -29 -32 -31 -30 -6 6 38 65 49 65 5 0 -3 -16 -18 -35z"/>
<path d="M1577 3477 c-53 -54 -56 -72 -7 -35 28 20 67 76 58 82 -2 1 -25 -20
-51 -47z"/>
<path d="M405 3510 c-3 -5 -1 -10 5 -10 6 0 8 -5 5 -10 -4 -6 -14 -9 -23 -8
-13 2 -18 -6 -20 -36 -3 -36 1 -43 35 -72 34 -29 37 -35 26 -53 -18 -28 -16
-33 7 -26 32 10 23 -9 -21 -49 -23 -20 -39 -40 -35 -43 3 -4 22 9 42 28 l36
34 -21 -42 c-39 -78 -19 -98 39 -38 19 19 39 35 46 35 6 0 20 12 30 27 9 15
46 56 81 91 53 53 63 69 63 98 0 19 -5 34 -11 34 -7 0 -9 -10 -7 -25 4 -16 1
-25 -7 -25 -7 0 -25 -14 -40 -31 -25 -31 -26 -31 -32 -10 -8 30 -28 20 -28
-14 0 -34 -20 -45 -28 -15 -4 17 -10 20 -31 14 -16 -4 -26 -2 -26 5 0 6 -12
11 -26 11 -21 0 -24 4 -19 20 4 14 2 20 -9 20 -8 0 -18 -5 -21 -10 -9 -14 -21
-5 -28 20 -4 15 3 25 24 37 16 10 29 25 29 35 0 19 -25 25 -35 8z m155 -212
c0 -12 -110 -121 -117 -115 -5 6 50 101 67 114 19 16 50 16 50 1z"/>
<path d="M1495 3350 c-16 -16 -35 -30 -42 -30 -7 0 -13 -4 -13 -10 0 -5 5 -10
10 -10 33 0 -37 -91 -80 -105 -34 -11 -68 2 -73 28 -3 20 -4 20 -11 4 -11 -24
19 -57 52 -57 57 0 142 76 142 126 0 7 6 19 13 26 15 14 40 58 34 58 -2 0 -16
-13 -32 -30z"/>
<path d="M86 3181 c-4 -7 -5 -15 -2 -18 9 -9 19 4 14 18 -4 11 -6 11 -12 0z"/>
<path d="M375 3000 c-3 -5 -2 -10 4 -10 5 0 13 5 16 10 3 6 2 10 -4 10 -5 0
-13 -4 -16 -10z"/>
<path d="M70 2976 c0 -8 4 -17 8 -20 13 -8 12 -70 -1 -78 -15 -9 -9 -77 9 -95
12 -12 14 -11 14 11 0 14 -4 26 -9 26 -5 0 -8 11 -8 25 0 13 4 22 9 19 5 -3 8
20 6 57 -2 39 -8 64 -15 67 -7 2 -13 -3 -13 -12z"/>
<path d="M165 2981 c-3 -5 -1 -12 5 -16 5 -3 10 1 10 9 0 18 -6 21 -15 7z"/>
<path d="M61 2934 c0 -11 3 -14 6 -6 3 7 2 16 -1 19 -3 4 -6 -2 -5 -13z"/>
<path d="M82 2731 c-8 -4 -12 -18 -10 -29 2 -15 7 -19 16 -13 8 4 12 18 10 29
-2 15 -7 19 -16 13z"/>
<path d="M80 2665 c-11 -13 -10 -14 4 -9 9 3 16 10 16 15 0 13 -6 11 -20 -6z"/>
<path d="M91 2254 c0 -11 3 -14 6 -6 3 7 2 16 -1 19 -3 4 -6 -2 -5 -13z"/>
<path d="M91 2214 c0 -11 3 -14 6 -6 3 7 2 16 -1 19 -3 4 -6 -2 -5 -13z"/>
<path d="M2782 1710 c0 -14 2 -19 5 -12 2 6 2 18 0 25 -3 6 -5 1 -5 -13z"/>
<path d="M354 1606 c-21 -16 -16 -30 9 -20 16 6 32 34 19 34 -5 0 -17 -6 -28
-14z"/>
<path d="M225 1590 c-3 -5 -1 -10 4 -10 6 0 11 5 11 10 0 6 -2 10 -4 10 -3 0
-8 -4 -11 -10z"/>
<path d="M2531 1224 c0 -11 3 -14 6 -6 3 7 2 16 -1 19 -3 4 -6 -2 -5 -13z"/>
<path d="M340 1009 c0 -5 5 -7 10 -4 6 3 10 8 10 11 0 2 -4 4 -10 4 -5 0 -10
-5 -10 -11z"/>
<path d="M2550 782 c-25 -1 -52 -5 -60 -9 -8 -3 -66 -5 -128 -4 -80 2 -117 -1
-128 -10 -13 -10 -17 -10 -24 1 -7 11 -41 11 -202 1 -107 -7 -263 -12 -348
-12 -630 -1 -899 -7 -985 -22 -87 -16 -293 -32 -284 -22 3 2 51 12 107 21 68
11 102 21 102 30 0 21 -17 25 -60 14 -22 -6 -72 -10 -112 -10 -370 3 -348 4
-348 -19 0 -10 9 -21 20 -24 20 -5 28 -42 11 -49 -6 -1 -19 -57 -31 -123 -18
-104 -19 -141 -13 -280 8 -151 9 -160 28 -163 12 -2 25 -15 31 -30 10 -27 47
-41 59 -23 2 5 25 6 49 4 25 -3 53 -2 63 2 46 19 424 30 475 14 27 -9 41 -9
51 -1 7 7 18 7 27 2 8 -5 17 -7 21 -4 5 2 113 7 241 10 128 3 234 7 237 9 2 3
9 -2 15 -9 9 -11 26 -12 91 -4 93 12 289 19 493 18 85 0 142 3 142 9 0 10 -31
23 -46 20 -5 -1 -22 3 -37 9 -16 7 -32 10 -37 7 -5 -3 -15 2 -24 10 -17 18
-28 18 -38 2 -4 -7 -54 -11 -142 -11 -75 0 -136 -3 -136 -6 0 -4 -133 -6 -295
-6 l-295 0 0 23 c0 26 -11 28 -86 14 -58 -11 -146 -18 -309 -26 -272 -13 -306
-15 -323 -24 -30 -15 -92 -23 -92 -11 0 6 -9 5 -23 -4 -12 -8 -31 -17 -42 -20
-20 -6 -20 0 -22 282 -3 283 1 342 25 350 7 2 10 -2 6 -11 -4 -12 10 -16 73
-22 43 -4 97 -4 119 -1 22 4 142 8 265 11 123 2 240 7 260 10 22 4 40 2 44 -4
3 -6 31 -11 61 -11 58 0 60 -1 42 -29 -6 -10 -8 -27 -4 -37 7 -18 9 -17 21 6
8 14 14 35 15 48 0 13 6 22 15 22 19 0 19 -7 0 -60 -23 -65 -16 -81 11 -25 13
28 22 57 20 67 -3 14 10 17 89 23 51 4 98 4 104 1 8 -5 6 -18 -4 -43 -8 -20
-13 -38 -11 -40 6 -6 36 53 36 70 0 12 29 17 148 23 257 14 780 1 794 -19 4
-7 11 -7 20 1 13 10 120 32 161 32 14 0 16 -4 7 -19 -18 -35 -10 -37 16 -3 24
30 29 32 90 32 l64 0 0 -32 1 -33 17 35 c15 30 25 36 66 45 82 18 68 33 -31
37 -48 2 -108 2 -133 0z m-2423 -339 c-2 -21 -4 -6 -4 32 0 39 2 55 4 38 2
-18 2 -50 0 -70z m-7 -268 c0 -53 -14 -73 -27 -39 -5 15 13 94 22 94 3 0 5
-25 5 -55z m765 -55 c3 -5 -1 -10 -9 -10 -9 0 -16 5 -16 10 0 6 4 10 9 10 6 0
13 -4 16 -10z"/>
<path d="M2760 701 c0 -4 -11 -6 -24 -4 -20 4 -24 0 -29 -34 -4 -21 -7 -94 -7
-163 0 -112 -3 -130 -25 -175 -27 -56 -29 -65 -15 -65 6 0 10 6 10 13 1 6 7
26 14 42 l13 30 13 -45 c6 -25 16 -48 22 -51 14 -9 -2 -131 -16 -126 -6 3 -10
9 -9 15 2 6 -4 9 -13 5 -9 -3 -24 3 -35 16 -21 22 -87 30 -164 18 -5 -1 -9 5
-7 13 3 10 -3 9 -18 -5 l-22 -20 46 -3 c63 -4 48 -22 -18 -22 -29 0 -55 -2
-58 -5 -3 -3 -51 -7 -107 -8 -95 -2 -102 -1 -97 16 3 14 0 17 -17 11 -12 -4
-24 -10 -27 -15 -3 -5 -19 -7 -35 -6 -24 2 -31 -2 -33 -19 -3 -20 2 -22 115
-27 65 -4 222 -8 348 -9 l230 -3 -3 38 c-3 34 -1 37 23 37 32 0 31 10 -2 68
l-28 47 2 223 c2 188 0 222 -13 222 -8 0 -14 -4 -14 -9z m-29 -348 c-9 -16
-10 -14 -11 12 0 21 3 26 11 18 8 -8 8 -16 0 -30z m-156 -203 c-3 -5 -10 -10
-16 -10 -5 0 -9 5 -9 10 0 6 7 10 16 10 8 0 12 -4 9 -10z"/>
<path d="M2354 665 c-10 -26 -20 -35 -37 -35 -23 0 -47 -17 -47 -33 0 -5 9 -7
20 -4 14 4 20 0 20 -11 1 -15 2 -15 15 2 13 18 14 17 20 -7 10 -38 -11 -65
-69 -91 -53 -23 -54 -25 -61 -74 -8 -60 0 -93 21 -85 9 3 14 19 14 45 0 56 12
72 75 103 73 35 91 62 75 110 -6 19 -16 35 -22 35 -6 0 -8 9 -4 20 3 11 9 29
12 40 11 35 -16 22 -32 -15z"/>
<path d="M897 646 c-20 -45 -20 -46 -7 -46 13 0 32 48 27 69 -2 10 -10 1 -20
-23z"/>
<path d="M1391 654 c-13 -29 -6 -47 9 -24 9 14 14 50 7 50 -2 0 -9 -12 -16
-26z"/>
<path d="M1476 671 c-4 -7 -5 -15 -2 -18 9 -9 19 4 14 18 -4 11 -6 11 -12 0z"/>
<path d="M1346 646 c-3 -13 -9 -31 -12 -40 -3 -9 -1 -16 4 -16 6 0 14 16 18
35 7 41 0 58 -10 21z"/>
<path d="M1563 633 c-15 -50 -8 -55 11 -8 18 43 19 45 8 45 -4 0 -12 -17 -19
-37z"/>
<path d="M2672 649 c-20 -54 -24 -71 -14 -65 13 8 36 75 28 83 -3 3 -9 -5 -14
-18z"/>
<path d="M227 653 c-13 -12 -7 -33 8 -33 8 0 15 9 15 20 0 20 -11 26 -23 13z"/>
<path d="M370 644 c0 -8 5 -12 10 -9 6 3 10 10 10 16 0 5 -4 9 -10 9 -5 0 -10
-7 -10 -16z"/>
<path d="M955 648 c-8 -27 -23 -113 -20 -116 7 -7 26 39 34 83 5 26 5 45 -1
45 -5 0 -10 -6 -13 -12z"/>
<path d="M1982 640 c-6 -11 -12 -27 -12 -36 0 -18 -38 -10 -56 12 -10 13 -12
12 -18 -1 -3 -8 -17 -15 -31 -15 -27 0 -48 -31 -27 -38 7 -2 12 -13 12 -25 0
-12 4 -17 8 -12 4 6 19 18 34 27 22 14 27 15 32 3 8 -21 -29 -61 -73 -78 -22
-9 -42 -20 -45 -25 -9 -16 21 -97 38 -100 11 -2 16 3 16 18 0 27 38 110 50
110 6 0 10 -4 10 -10 0 -5 7 -10 15 -10 20 0 45 51 45 92 1 18 7 44 15 58 25
44 13 72 -13 30z"/>
<path d="M577 643 c-4 -3 -7 -11 -7 -17 0 -6 5 -5 12 2 6 6 9 14 7 17 -3 3 -9
2 -12 -2z"/>
<path d="M757 644 c-4 -4 -7 -19 -6 -33 l0 -26 10 24 c10 26 8 47 -4 35z"/>
<path d="M1736 634 c-4 -9 -4 -19 -1 -22 2 -3 7 3 11 12 4 9 4 19 1 22 -2 3
-7 -3 -11 -12z"/>
<path d="M2175 638 c-4 -9 -15 -13 -33 -10 -15 2 -43 0 -61 -5 -31 -8 -33 -11
-36 -58 l-3 -49 19 25 c10 13 19 30 19 37 0 6 4 12 9 12 5 0 16 3 25 6 12 5
16 -1 16 -23 0 -31 -26 -77 -39 -68 -11 6 -37 -24 -54 -64 -11 -26 -12 -40 -3
-62 16 -44 36 -37 36 13 0 23 3 38 6 35 4 -4 14 7 23 23 9 16 35 43 59 60 42
30 43 32 39 81 -4 53 -13 71 -22 47z"/>
<path d="M663 620 c-16 -39 -23 -90 -14 -90 11 0 35 85 28 102 -3 8 -8 4 -14
-12z"/>
<path d="M818 635 c-3 -6 -9 -28 -13 -50 l-6 -40 16 28 c15 26 18 84 3 62z"/>
<path d="M1617 620 c-3 -11 -2 -20 3 -20 12 0 21 28 11 35 -5 2 -11 -4 -14
-15z"/>
<path d="M278 605 c-3 -14 -1 -25 3 -25 5 0 9 4 9 9 0 5 3 16 6 25 3 9 2 16
-4 16 -5 0 -12 -11 -14 -25z"/>
<path d="M1176 615 c-15 -15 -23 -65 -10 -65 7 0 36 71 31 77 -3 2 -12 -3 -21
-12z"/>
<path d="M2496 614 c-9 -22 3 -32 14 -14 12 19 12 30 1 30 -5 0 -12 -7 -15
-16z"/>
<path d="M310 583 c0 -22 2 -25 10 -13 13 20 13 40 0 40 -5 0 -10 -12 -10 -27z"/>
<path d="M397 597 c-11 -29 -9 -43 4 -30 6 6 9 19 7 29 -3 18 -4 18 -11 1z"/>
<path d="M2226 592 c-4 -13 -5 -26 -2 -29 10 -11 18 4 14 29 l-4 23 -8 -23z"/>
<path d="M436 574 c-6 -24 -2 -43 8 -33 11 10 17 59 8 59 -5 0 -13 -12 -16
-26z"/>
<path d="M490 574 c-6 -14 -10 -33 -10 -43 0 -10 -6 -24 -14 -30 -8 -7 -17
-23 -20 -37 -5 -20 -10 -23 -21 -14 -9 7 -15 8 -20 0 -3 -5 -17 -10 -30 -10
-23 0 -35 -17 -35 -51 0 -15 7 -19 34 -19 19 0 38 -5 41 -10 4 -7 14 -5 28 5
12 8 37 15 57 15 19 0 50 4 69 10 39 11 297 17 307 7 4 -3 14 -2 24 3 24 13
110 20 110 10 0 -5 14 -4 30 1 33 12 36 28 16 74 l-13 30 -8 -28 c-6 -22 -10
-25 -21 -16 -11 9 -14 9 -14 0 0 -8 -14 -11 -37 -9 -33 3 -38 6 -35 26 2 12
-2 22 -7 22 -6 0 -11 -11 -11 -25 0 -21 -5 -25 -28 -25 -15 0 -34 6 -40 12
-10 10 -15 10 -20 1 -10 -16 -227 -24 -242 -9 -7 7 -13 7 -18 1 -4 -6 -26 -11
-49 -11 -42 -2 -43 -1 -37 25 4 14 10 31 14 36 11 14 24 85 16 85 -4 0 -11
-12 -16 -26z"/>
<path d="M608 594 c-5 -4 -8 -21 -8 -38 1 -26 2 -28 11 -13 11 19 8 63 -3 51z"/>
<path d="M377 525 c-4 -8 -2 -17 3 -20 6 -4 10 3 10 14 0 25 -6 27 -13 6z"/>
<path d="M2460 515 c0 -8 2 -15 4 -15 2 0 6 7 10 15 3 8 1 15 -4 15 -6 0 -10
-7 -10 -15z"/>
<path d="M1982 420 c-8 -13 -8 -20 -2 -20 6 0 13 7 17 15 9 24 -1 27 -15 5z"/>
<path d="M1075 380 c-3 -5 -1 -10 4 -10 6 0 11 5 11 10 0 6 -2 10 -4 10 -3 0
-8 -4 -11 -10z"/>
<path d="M1419 364 c-37 -19 -42 -40 -16 -70 22 -25 22 -25 45 -6 17 15 21 26
16 51 -8 40 -13 42 -45 25z"/>
<path d="M1592 364 c-27 -19 -29 -60 -3 -74 29 -15 37 -13 50 16 10 22 9 31
-4 50 -18 28 -15 28 -43 8z"/>
<path d="M2373 345 c-26 -39 -28 -56 -11 -73 31 -31 83 12 71 59 -6 21 -26 49
-35 49 -2 0 -13 -16 -25 -35z"/>
<path d="M1202 340 c-8 -13 -10 -34 -6 -55 l6 -34 34 31 c39 35 42 53 15 68
-28 14 -34 13 -49 -10z"/>
<path d="M1809 308 c-10 -18 -8 -24 10 -37 12 -9 33 -18 47 -19 37 -3 28 36
-13 59 -32 18 -33 18 -44 -3z"/>
<path d="M2012 300 c-19 -30 -15 -49 12 -56 57 -14 83 16 49 55 -22 26 -45 27
-61 1z"/>
<path d="M2170 305 c0 -17 35 -55 50 -55 16 0 38 36 28 44 -7 7 -78 17 -78 11z"/>
<path d="M981 264 c0 -11 3 -14 6 -6 3 7 2 16 -1 19 -3 4 -6 -2 -5 -13z"/>
<path d="M400 250 c0 -5 4 -10 9 -10 6 0 13 5 16 10 3 6 -1 10 -9 10 -9 0 -16
-4 -16 -10z"/>
<path d="M811 244 c0 -11 3 -14 6 -6 3 7 2 16 -1 19 -3 4 -6 -2 -5 -13z"/>
<path d="M358 239 c-19 -11 -24 -29 -8 -29 5 0 14 9 20 20 12 23 12 23 -12 9z"/>
<path d="M1080 218 c-12 -22 -12 -22 6 -6 10 10 15 20 12 24 -4 3 -12 -5 -18
-18z"/>
<path d="M295 190 c-3 -5 -2 -10 4 -10 5 0 13 5 16 10 3 6 2 10 -4 10 -5 0
-13 -4 -16 -10z"/>
</g>
</svg>
