<?xml version="1.0" standalone="no"?>
<!DOCTYPE svg PUBLIC "-//W3C//DTD SVG 20010904//EN"
 "http://www.w3.org/TR/2001/REC-SVG-20010904/DTD/svg10.dtd">
<svg version="1.0" xmlns="http://www.w3.org/2000/svg"
 width="231.000000pt" height="213.000000pt" viewBox="0 0 231.000000 213.000000"
 preserveAspectRatio="xMidYMid meet">
<metadata>
Created by potrace 1.16, written by Peter Selinger 2001-2019
</metadata>
<g transform="translate(0.000000,213.000000) scale(0.100000,-0.100000)"
fill="#000000" stroke="none">
<path d="M2214 1573 c0 -421 -2 -563 -11 -579 -10 -18 -10 -24 2 -34 13 -11
15 -61 15 -320 0 -169 3 -382 7 -473 6 -158 7 -167 26 -167 20 0 20 4 14 728
-4 400 -7 879 -7 1065 l0 337 -24 0 -23 0 1 -557z"/>
<path d="M130 2101 c-71 -5 -89 -10 -108 -29 l-23 -23 3 -650 c3 -550 5 -651
17 -659 12 -7 15 -58 18 -273 3 -177 0 -268 -7 -272 -17 -10 6 -41 42 -56 46
-19 1420 -19 1643 1 83 7 152 14 154 16 1 1 10 36 18 76 10 51 16 161 20 363
2 160 6 335 8 390 3 55 7 293 10 528 5 384 4 433 -11 472 -9 24 -26 52 -38 63
-23 22 -30 22 -751 38 -465 9 -678 14 -710 16 -16 1 -55 0 -85 -2 -30 -2 -68
-1 -85 2 -16 2 -68 2 -115 -1z m434 -86 c8 -8 17 -15 20 -15 3 0 6 7 6 15 0 8
4 15 9 15 16 0 61 -65 61 -88 0 -28 10 -52 22 -52 6 0 8 11 6 24 -4 21 -2 23
32 20 27 -2 42 2 54 15 19 21 64 17 84 -7 11 -14 12 -14 12 1 0 30 15 18 50
-40 19 -32 61 -85 92 -117 32 -33 58 -63 58 -68 0 -4 13 -22 29 -40 16 -18 37
-50 48 -70 11 -21 23 -35 27 -31 3 3 6 -5 7 -18 l1 -24 7 24 c4 15 17 27 32
32 23 6 25 4 21 -16 -3 -17 2 -25 17 -30 11 -3 28 -13 36 -21 13 -14 15 -13
15 5 0 11 -4 22 -10 26 -5 3 -7 12 -4 20 5 12 11 12 34 -5 l28 -20 5 22 c5 18
8 19 21 8 17 -14 22 -35 6 -25 -5 3 -9 -9 -8 -30 1 -20 7 -39 14 -43 7 -4 12
-9 12 -12 -2 -9 33 -72 38 -68 2 3 -7 31 -20 64 -17 43 -21 61 -13 66 18 12
22 10 39 -19 27 -46 68 -90 68 -73 0 9 9 3 24 -15 18 -22 23 -38 19 -57 -3
-17 -1 -28 5 -28 6 0 9 7 5 16 -4 12 -2 15 8 12 8 -3 15 -12 17 -21 2 -8 19
-32 38 -52 19 -20 34 -41 34 -46 0 -6 9 -29 20 -51 11 -23 20 -50 20 -60 0
-10 7 -18 15 -18 12 0 9 13 -14 63 -55 118 -57 154 -9 110 11 -10 18 -13 17
-8 -2 6 6 25 18 43 15 24 23 30 29 21 4 -8 1 -17 -8 -23 -13 -8 -14 -14 -5
-33 5 -13 14 -23 19 -23 5 0 20 -11 33 -24 18 -18 24 -35 23 -60 -1 -21 -6
-36 -13 -36 -17 0 -13 -39 5 -50 8 -5 12 -11 9 -14 -3 -3 -15 3 -27 14 -23 22
-50 17 -102 -20 -25 -18 -27 -24 -26 -90 1 -49 -3 -70 -11 -70 -18 0 -123 111
-123 130 0 9 -27 58 -59 110 -92 147 -132 218 -129 232 2 7 -3 12 -9 11 -7 -2
-13 4 -13 12 0 9 -9 15 -24 15 -15 0 -33 11 -46 28 l-21 27 6 -27 c3 -16 1
-28 -5 -28 -5 0 -10 3 -10 8 0 4 -11 8 -25 8 -14 1 -25 -2 -25 -7 0 -5 5 -9
11 -9 13 0 3 -52 -12 -61 -5 -3 -7 -14 -3 -25 5 -14 -1 -12 -25 11 -17 16 -29
35 -27 42 3 7 2 21 -1 30 -6 15 -7 14 -13 -3 -10 -25 5 -64 36 -92 27 -25 33
-58 9 -48 -9 3 -15 0 -15 -9 0 -8 5 -15 11 -15 8 0 8 -5 -1 -15 -7 -8 -19 -15
-27 -15 -37 0 -123 97 -123 138 0 10 -6 24 -12 31 -11 10 -9 11 7 5 19 -8 19
-7 3 16 -9 14 -21 24 -27 23 -5 -2 -9 5 -9 15 2 28 -12 73 -21 68 -9 -6 -55
88 -66 135 -19 77 -118 126 -160 79 -12 -13 -20 -39 -22 -68 -1 -26 -2 -50 -2
-54 -1 -12 -49 -10 -56 2 -3 6 -15 10 -26 10 -10 0 -19 6 -19 14 0 8 -8 13
-17 11 -25 -4 -43 13 -43 42 0 14 -4 21 -10 18 -5 -3 -10 -2 -10 4 0 5 -18 31
-40 56 -33 38 -40 53 -40 89 0 43 -32 102 -50 91 -10 -6 -25 13 -34 43 -6 17
-3 22 11 22 11 0 24 -5 31 -12 9 -9 12 -9 12 -1 0 8 22 12 61 12 33 0 63 2 67
5 9 10 20 7 36 -9z m530 -31 c3 -8 1 -14 -4 -14 -10 0 -50 36 -50 45 0 10 49
-18 54 -31z m213 11 c-14 -15 -27 -10 -27 10 0 8 7 11 19 8 16 -4 17 -8 8 -18z
m-187 0 c7 -9 8 -15 2 -15 -5 0 -12 7 -16 15 -3 8 -4 15 -2 15 2 0 9 -7 16
-15z m-85 -55 c2 0 2 8 -1 18 -5 14 -3 14 10 -2 9 -11 16 -26 16 -33 0 -7 6
-13 13 -13 12 0 21 -13 45 -63 6 -12 -44 -3 -62 12 -18 15 -22 1 -4 -17 9 -9
9 -12 -1 -12 -7 0 -20 18 -29 40 -9 22 -22 40 -28 40 -6 0 -16 12 -23 28 l-11
27 20 -24 c24 -28 25 -23 5 27 l-16 37 31 -32 c17 -18 33 -33 35 -33z m-845
43 c0 -5 -5 -15 -10 -23 -8 -12 -10 -11 -10 8 0 12 5 22 10 22 6 0 10 -3 10
-7z m1154 -75 c-3 -5 -12 -1 -20 9 -20 27 -17 39 6 18 11 -10 17 -22 14 -27z
m-39 0 l16 -33 -20 25 c-20 24 -26 40 -16 40 2 0 12 -15 20 -32z m-134 5 c13
-16 12 -17 -3 -4 -10 7 -18 15 -18 17 0 8 8 3 21 -13z m-956 -3 c-3 -5 -11
-10 -16 -10 -6 0 -7 5 -4 10 3 6 11 10 16 10 6 0 7 -4 4 -10z m1072 -19 c10
-15 9 -20 -2 -24 -7 -3 -16 1 -19 9 -14 37 1 47 21 15z m132 -33 c14 -41 -1
-34 -25 11 -20 36 -20 39 -3 28 10 -6 23 -24 28 -39z m28 30 c-3 -8 -6 -5 -6
6 -1 11 2 17 5 13 3 -3 4 -12 1 -19z m-1307 -65 c0 -13 4 -23 8 -23 5 0 14 10
21 23 10 19 11 16 6 -20 -6 -49 4 -54 31 -18 22 29 39 32 48 9 4 -10 12 -14
22 -10 12 4 14 1 9 -13 -6 -19 9 -29 53 -35 8 -2 17 -11 18 -22 1 -10 6 -29 9
-41 5 -14 3 -23 -3 -23 -6 0 -12 -10 -14 -22 -2 -16 -9 -22 -21 -20 -12 2 -21
-4 -24 -19 -6 -21 -7 -22 -13 -4 -6 18 -8 18 -20 -5 -9 -17 -10 -25 -1 -28 16
-5 14 -22 -4 -22 -9 0 -15 -9 -15 -21 0 -13 5 -19 13 -15 6 3 20 9 30 12 12 4
17 13 14 25 -3 12 0 19 9 19 8 0 19 9 26 20 20 31 38 24 38 -15 0 -25 4 -33
14 -29 15 6 28 -18 30 -56 1 -19 6 -24 21 -22 24 5 22 3 27 27 1 11 -2 20 -9
20 -22 0 -25 13 -8 38 19 29 5 45 -18 22 -22 -21 -24 -19 -19 15 3 25 1 29
-12 24 -18 -7 -21 8 -6 37 8 15 7 23 -5 35 -19 19 -15 27 9 18 9 -3 16 -16 16
-28 0 -15 11 -26 40 -39 23 -9 43 -24 46 -32 4 -8 14 -15 23 -15 21 0 41 -19
41 -39 0 -12 -3 -11 -18 2 -10 10 -22 17 -26 17 -12 0 -25 -47 -19 -69 6 -24
43 -29 43 -6 0 8 -4 15 -10 15 -5 0 -10 5 -10 11 0 6 6 9 13 6 6 -2 20 3 30
11 15 13 23 14 51 4 47 -17 61 -15 96 14 17 15 32 25 33 23 20 -37 28 -44 46
-43 11 0 21 -2 21 -5 0 -8 -62 -66 -72 -67 -4 -1 -12 -2 -18 -3 -5 0 -10 -6
-10 -12 0 -19 53 1 84 32 15 16 32 27 36 24 11 -7 -13 -55 -27 -55 -7 0 -18
-9 -25 -19 -9 -15 -16 -17 -30 -10 -15 8 -18 6 -18 -16 0 -14 2 -25 5 -25 14
0 80 32 88 43 6 8 7 4 4 -10 -3 -13 -1 -26 4 -29 5 -3 9 -25 9 -49 0 -41 -2
-44 -42 -61 -24 -9 -50 -16 -59 -15 -9 1 -23 -11 -31 -30 -10 -19 -18 -27 -23
-20 -4 7 9 27 30 46 31 30 33 35 16 35 -11 0 -25 -10 -32 -21 -8 -16 -13 -18
-19 -9 -9 14 -30 5 -30 -13 0 -11 -59 -57 -73 -57 -4 0 -7 8 -7 19 0 13 9 20
30 25 27 5 43 26 21 26 -5 0 -9 15 -9 32 1 30 2 31 11 10 10 -23 37 -31 37
-11 0 6 7 8 16 5 18 -7 54 10 54 26 0 7 -13 9 -35 5 -33 -5 -47 5 -25 18 20
12 10 26 -10 15 -15 -8 -20 -8 -20 1 0 8 -5 7 -17 -2 -14 -12 -15 -12 -10 1 4
8 10 23 13 33 4 9 10 17 16 17 20 0 57 32 51 46 -7 19 -22 18 -45 -3 -14 -13
-21 -14 -30 -5 -18 18 -28 14 -28 -9 0 -17 5 -20 21 -16 l21 6 -21 -23 c-11
-12 -21 -29 -21 -38 0 -11 -6 -15 -20 -11 -11 3 -20 9 -20 13 0 4 -12 5 -26 2
-21 -4 -24 -9 -20 -27 4 -17 2 -22 -12 -21 -23 1 -23 -38 1 -42 12 -3 21 6 28
28 10 28 13 30 28 15 10 -8 21 -12 24 -8 4 3 7 -1 7 -10 0 -16 -11 -21 -37
-18 -7 1 -13 -5 -13 -14 0 -17 -13 -19 -40 -5 -13 7 -21 7 -25 0 -8 -12 -45
-13 -45 -1 0 4 9 20 20 34 11 14 21 42 22 62 1 20 5 38 10 41 4 3 8 11 8 17 0
14 -58 16 -78 4 -7 -5 -19 -6 -27 -3 -17 6 -26 -6 -16 -22 5 -9 14 -9 39 0 28
11 34 10 42 -2 6 -10 4 -18 -8 -24 -9 -5 -20 -14 -24 -20 -6 -8 -11 -7 -17 3
-12 19 -33 3 -29 -23 1 -13 -5 -31 -15 -40 -15 -16 -19 -16 -32 -2 -22 21 -19
27 10 20 19 -5 25 -2 25 9 0 9 -4 19 -10 22 -5 3 -10 14 -10 24 0 21 -29 23
-49 4 -8 -8 -14 -28 -13 -44 0 -16 -3 -27 -8 -24 -5 3 -12 -4 -15 -16 -6 -17
-9 -19 -16 -8 -4 8 -12 12 -16 10 -4 -3 -10 8 -13 24 -3 16 -9 27 -15 24 -5
-2 -16 8 -23 24 -17 35 -30 27 -30 -19 0 -26 4 -34 14 -30 11 4 13 -1 8 -19
-4 -15 -2 -25 5 -25 6 0 11 6 12 13 0 6 5 1 10 -12 6 -15 6 -27 0 -30 -5 -3
-11 -17 -14 -31 -3 -19 -5 -15 -6 13 -1 25 -6 37 -15 37 -16 0 -31 -34 -21
-50 3 -5 -1 -10 -9 -10 -23 0 -24 225 -1 234 8 3 15 10 15 17 0 6 -7 9 -15 5
-13 -4 -15 10 -15 92 0 53 -2 113 -4 132 -2 19 -1 27 1 18 4 -15 43 -27 43
-14 0 2 3 13 7 23 6 16 5 16 -10 4 -15 -12 -17 -11 -17 2 0 9 4 19 10 22 15 9
12 61 -4 74 -11 10 -15 8 -19 -6 -3 -10 -5 11 -5 47 -1 61 0 64 13 40 8 -14
14 -35 15 -47z m144 43 c-3 -9 -10 -16 -15 -16 -6 0 -5 9 1 21 13 24 24 20 14
-5z m971 -6 c3 -5 1 -10 -4 -10 -6 0 -11 5 -11 10 0 6 2 10 4 10 3 0 8 -4 11
-10z m-1030 -20 c-10 -11 -21 -17 -24 -14 -3 3 3 12 13 20 28 20 32 17 11 -6z
m965 -23 c0 -5 -7 -4 -15 3 -8 7 -15 20 -15 29 1 13 3 13 15 -3 8 -11 15 -24
15 -29z m315 12 c9 -17 14 -38 12 -47 -3 -12 -9 -6 -20 20 -27 60 -20 82 8 27z
m-111 5 c3 -8 2 -12 -4 -9 -6 3 -10 10 -10 16 0 14 7 11 14 -7z m-288 -24 c8
0 14 -4 14 -10 0 -5 -5 -10 -11 -10 -5 0 -7 -4 -4 -10 3 -5 2 -10 -3 -10 -12
0 -22 25 -21 48 0 11 2 12 6 5 2 -7 11 -13 19 -13z m247 -5 c9 -13 13 -26 8
-30 -5 -3 -17 5 -25 17 -29 42 -13 54 17 13z m87 -48 c0 -4 -7 -2 -15 7 -8 8
-15 21 -15 28 1 14 30 -20 30 -35z m120 -30 c0 -10 -4 -15 -10 -12 -5 3 -10
18 -10 33 0 21 2 24 10 12 5 -8 10 -23 10 -33z m-90 -22 c0 -17 -2 -17 -10 -5
-5 8 -10 24 -10 35 0 17 2 17 10 5 5 -8 10 -24 10 -35z m-713 -32 c-3 -10 -5
-4 -5 12 0 17 2 24 5 18 2 -7 2 -21 0 -30z m813 -22 c0 -4 16 -28 35 -52 19
-24 35 -51 35 -59 -1 -10 -9 -5 -23 13 -13 15 -26 27 -31 27 -4 0 1 -12 12
-27 45 -63 61 -138 17 -80 -16 21 -16 21 -1 -5 21 -36 21 -58 0 -37 -8 9 -17
32 -18 51 -2 19 -6 40 -9 45 -4 6 -9 30 -12 54 -3 24 -10 48 -15 53 -13 13
-13 26 0 26 6 0 10 -4 10 -9z m60 -17 c0 -8 -4 -12 -10 -9 -5 3 -10 13 -10 21
0 8 5 12 10 9 6 -3 10 -13 10 -21z m65 -9 c19 -19 36 -48 40 -65 4 -16 10 -30
15 -30 9 0 35 -59 28 -65 -8 -9 -50 56 -62 98 -7 23 -18 41 -24 40 -6 -2 -20
11 -32 27 -30 42 -5 38 35 -5z m-495 15 c0 -5 -4 -10 -10 -10 -5 0 -10 5 -10
10 0 6 5 10 10 10 6 0 10 -4 10 -10z m633 -45 c6 -49 6 -49 -9 -23 -8 17 -12
38 -8 53 8 33 10 30 17 -30z m-1073 14 c0 -16 -4 -28 -9 -25 -5 4 -8 14 -6 24
2 9 4 20 4 25 1 4 3 7 6 7 3 0 5 -14 5 -31z m78 -21 c9 -25 9 -34 -1 -40 -20
-13 -27 -9 -27 12 0 11 -3 19 -7 19 -22 -4 -24 3 -8 21 24 27 29 25 43 -12z
m861 -66 c19 -29 31 -55 28 -58 -9 -9 -87 118 -87 140 0 19 1 18 13 -4 8 -14
28 -49 46 -78z m65 82 c9 -24 7 -28 -9 -14 -17 14 -20 30 -6 30 5 0 12 -7 15
-16z m26 -69 c0 -5 -5 -3 -10 5 -5 8 -10 20 -10 25 0 6 5 3 10 -5 5 -8 10 -19
10 -25z m-1115 15 c-3 -5 -10 -10 -16 -10 -5 0 -9 5 -9 10 0 6 7 10 16 10 8 0
12 -4 9 -10z m185 -30 c0 -5 -7 -10 -16 -10 -8 0 -12 5 -9 10 3 6 10 10 16 10
5 0 9 -4 9 -10z m840 -78 c-1 -15 -40 41 -40 57 0 9 8 3 20 -17 11 -18 20 -36
20 -40z m-446 -54 c-4 -7 -7 -27 -6 -45 2 -18 -2 -33 -8 -33 -14 0 -13 63 2
78 15 15 21 15 12 0z m567 -59 c14 -28 19 -68 8 -75 -5 -3 -9 2 -9 11 0 9 -7
29 -15 44 -8 16 -11 31 -8 35 9 9 11 8 24 -15z m-941 -53 l-22 -36 24 0 c22 0
24 -4 24 -52 0 -28 -2 -46 -4 -40 -5 17 -22 15 -22 -2 0 -7 -6 -19 -14 -25
-11 -9 -13 -6 -12 16 1 16 5 34 10 42 6 9 3 17 -8 23 -22 12 -20 41 4 63 11
10 22 26 26 37 3 11 8 17 11 14 3 -3 -5 -21 -17 -40z m320 9 c0 -5 -5 -3 -10
5 -5 8 -10 20 -10 25 0 6 5 3 10 -5 5 -8 10 -19 10 -25z m-1123 -62 c-2 -16
-4 -5 -4 22 0 28 2 40 4 28 2 -13 2 -35 0 -50z m324 34 c-6 -6 -11 -20 -11
-30 0 -16 -2 -17 -15 -7 -13 11 -18 10 -30 -6 -8 -10 -13 -24 -11 -29 2 -6 -3
-20 -11 -30 -13 -18 -14 -17 -8 18 8 41 -2 48 -29 18 -14 -15 -15 -24 -7 -40
9 -17 8 -22 -9 -31 -13 -7 -20 -7 -20 0 0 5 -7 10 -15 10 -27 0 -16 32 26 72
25 25 46 37 57 34 10 -3 32 7 52 24 19 16 37 24 39 19 2 -6 -2 -16 -8 -22z
m899 19 c0 -7 -13 -19 -30 -26 -19 -8 -30 -20 -30 -32 0 -13 5 -18 13 -15 18
7 42 -32 28 -46 -7 -7 -12 -5 -17 6 -8 23 -34 21 -34 -2 0 -10 -7 -21 -15 -25
-8 -3 -15 -15 -15 -27 0 -15 -5 -19 -15 -15 -8 3 -15 1 -15 -4 0 -6 -12 -10
-26 -10 -26 0 -26 1 -10 24 15 24 15 25 -12 21 -15 -2 -31 -4 -36 -4 -4 -1 -6
-10 -3 -21 3 -13 -1 -24 -14 -30 -21 -12 -26 -40 -6 -40 7 0 18 5 24 11 6 6
32 12 58 14 34 2 51 8 58 21 21 38 59 64 83 58 19 -5 24 -2 24 12 1 18 1 18
11 1 8 -14 8 -22 0 -30 -18 -18 -13 -27 14 -27 28 0 29 -3 14 -32 -13 -23 -8
-31 15 -22 9 3 16 14 16 24 0 29 17 33 23 5 2 -14 0 -28 -4 -31 -19 -11 -8
-26 16 -22 13 3 22 2 20 -3 -11 -16 8 -41 27 -36 14 4 18 1 15 -11 -2 -9 -9
-16 -15 -14 -20 4 -52 -17 -52 -33 0 -8 5 -15 10 -15 6 0 10 -7 10 -15 0 -24
23 -17 52 15 32 37 43 38 60 3 7 -15 27 -34 43 -44 33 -19 90 -25 100 -9 11
18 23 10 30 -20 6 -26 10 -30 28 -24 49 14 63 63 17 56 -18 -3 -30 0 -30 7 0
6 10 11 21 11 17 0 20 5 17 25 -3 13 -2 24 1 23 34 -4 42 3 37 30 -3 15 -2 33
3 40 21 34 22 3 6 -568 -2 -85 -4 -167 -5 -182 0 -27 -2 -28 -49 -28 l-50 0
14 34 c10 23 11 37 5 41 -9 6 -21 -16 -43 -75 -3 -8 -6 0 -6 19 -1 19 -4 31
-8 27 -8 -8 -9 -13 -12 -41 -1 -12 -20 -15 -107 -15 -72 0 -103 3 -99 11 4 6
14 8 22 5 16 -7 43 10 43 26 0 5 -6 8 -12 7 -30 -4 -49 2 -46 14 2 7 -1 15 -7
17 -5 3 -14 -12 -19 -32 -6 -26 -15 -38 -27 -38 -9 0 -17 6 -16 13 1 32 -4 48
-13 42 -5 -3 -10 -18 -10 -33 0 -27 -1 -28 -76 -30 -73 -3 -75 -3 -65 17 16
29 14 54 -4 47 -8 -3 -15 -1 -15 4 0 6 -4 10 -10 10 -5 0 -10 -9 -10 -20 0
-11 -7 -20 -15 -20 -18 0 -20 17 -3 22 6 2 11 18 10 36 -1 32 12 44 21 20 3
-10 9 -10 26 0 20 11 21 10 21 -18 0 -16 5 -30 10 -30 6 0 10 -13 10 -30 0
-30 13 -40 26 -19 5 8 8 8 14 0 15 -25 48 7 55 54 1 6 3 12 5 15 1 3 3 20 5
38 2 30 0 33 -18 28 -12 -3 -27 0 -34 6 -11 9 -9 15 9 35 l23 25 -30 -4 c-22
-2 -31 -9 -33 -26 -2 -12 1 -22 7 -22 14 0 14 -47 1 -55 -6 -4 -9 -1 -8 7 2 7
-3 12 -10 10 -22 -4 -52 18 -52 38 0 25 -6 25 -38 -1 -29 -22 -40 -12 -23 20
7 13 17 17 31 14 12 -3 20 0 20 7 0 9 6 7 19 -4 21 -19 41 -14 41 9 0 7 -8 16
-17 18 -14 4 -12 5 5 6 15 1 26 10 33 27 11 30 3 46 -11 24 -8 -12 -10 -11
-10 6 0 12 10 28 22 36 20 13 21 17 9 32 -11 13 -11 19 0 33 11 13 11 17 2 20
-17 6 -16 28 2 43 19 16 10 30 -15 23 -12 -3 -20 -14 -20 -26 0 -19 -1 -19
-21 4 -19 22 -19 24 -3 36 14 11 15 16 5 26 -10 10 -15 9 -25 -5 -9 -12 -16
-14 -23 -7 -8 8 -17 7 -33 -1 -20 -10 -21 -10 -16 8 7 21 -14 35 -38 26 -8 -3
-16 4 -19 18 -6 22 -7 22 -21 3 -9 -11 -16 -35 -16 -52 0 -18 -5 -33 -11 -33
-5 0 -9 8 -7 18 1 9 -1 23 -5 30 -5 7 -4 12 2 12 6 0 11 7 11 15 0 8 10 20 23
26 12 7 25 16 28 21 4 6 15 5 27 -3 17 -11 25 -11 47 1 23 12 28 12 35 0 7
-12 18 -5 55 32 25 26 45 54 45 62 0 20 -16 21 -27 2 -4 -7 -18 -17 -30 -20
-27 -9 -30 9 -8 38 8 11 15 29 15 39 0 19 -1 19 -19 3 -11 -10 -25 -30 -31
-46 -7 -18 -17 -27 -26 -23 -8 3 -14 -1 -14 -10 0 -22 -21 -32 -31 -16 -7 11
-11 10 -23 -6 -20 -26 -20 -14 -1 32 8 19 15 36 15 37 0 1 -9 2 -20 3 -11 1
-20 -4 -20 -13 0 -17 -16 -19 -26 -3 -10 16 -22 -1 -29 -43 -7 -36 7 -55 18
-25 4 7 6 6 6 -4 1 -17 -22 -32 -33 -22 -3 4 -6 26 -6 49 0 32 5 46 19 54 19
10 19 50 0 50 -5 0 -9 6 -9 14 0 7 -10 16 -22 19 -21 6 -21 7 -5 25 9 10 17
24 17 30 0 7 5 12 10 12 6 0 10 6 10 13 0 24 38 49 87 58 54 10 93 45 93 85 0
14 6 24 14 24 7 0 19 7 26 15 16 19 30 19 30 1z m-816 -115 c-7 -44 -14 -49
-37 -26 -12 11 -17 12 -20 2 -4 -8 -6 -8 -6 -1 -1 14 58 79 65 72 2 -3 2 -24
-2 -47z m325 12 c19 -13 31 -24 27 -24 -39 -8 -66 -2 -66 14 0 21 -8 22 -32 0
-17 -15 -18 -15 -18 5 0 23 28 44 45 34 5 -3 25 -16 44 -29z m-379 17 c0 -5
-7 -10 -15 -10 -8 0 -15 5 -15 10 0 6 7 10 15 10 8 0 15 -4 15 -10z m535 0
c-3 -5 -11 -10 -16 -10 -6 0 -7 5 -4 10 3 6 11 10 16 10 6 0 7 -4 4 -10z
m-425 -19 c0 -5 -7 -14 -15 -21 -12 -10 -15 -10 -15 2 0 8 3 18 7 21 9 10 23
9 23 -2z m109 -8 c0 -5 -4 -17 -9 -28 -8 -18 -9 -17 -9 8 -1 15 4 27 9 27 6 0
10 -3 9 -7z m382 -20 c-8 -15 -10 -15 -11 -2 0 17 10 32 18 25 2 -3 -1 -13 -7
-23z m-41 7 c0 -5 -2 -10 -4 -10 -3 0 -8 5 -11 10 -3 6 -1 10 4 10 6 0 11 -4
11 -10z m-291 -44 c-14 -15 -22 0 -13 26 7 22 7 22 14 3 4 -11 4 -24 -1 -29z
m267 -40 c-4 -22 -13 -36 -22 -36 -11 0 -12 4 -4 19 14 27 13 31 -8 31 -10 0
-18 8 -19 19 -1 13 3 18 13 14 8 -3 17 3 21 13 6 16 7 16 16 -3 5 -12 6 -38 3
-57z m-796 42 c0 -5 -5 -6 -10 -3 -6 3 -13 -1 -16 -9 -8 -20 -24 -11 -24 13 0
14 6 17 25 13 14 -2 25 -9 25 -14z m27 0 c-3 -8 -6 -5 -6 6 -1 11 2 17 5 13 3
-3 4 -12 1 -19z m148 -53 c-15 -20 -31 -48 -35 -63 -8 -25 -8 -25 -9 -4 -1 27
16 64 35 75 8 4 14 18 14 29 0 17 3 19 12 10 8 -8 4 -20 -17 -47z m402 29 c-2
-2 -12 -1 -22 3 -18 6 -18 7 1 13 17 7 33 -5 21 -16z m53 -25 c0 -5 -9 -4 -19
3 -11 7 -17 16 -14 20 5 10 33 -10 33 -23z m-570 10 c0 -5 -4 -8 -9 -5 -16 10
-22 -56 -7 -73 12 -13 12 -18 1 -28 -11 -10 -15 -9 -20 8 -11 33 4 109 21 109
8 0 14 -5 14 -11z m1525 -11 c-16 -4 -31 -5 -33 -3 -8 7 42 23 53 17 5 -3 -4
-9 -20 -14z m-1005 -8 c0 -5 -7 -10 -15 -10 -8 0 -15 5 -15 10 0 6 7 10 15 10
8 0 15 -4 15 -10z m119 -40 c0 -8 -5 -4 -13 10 -7 14 -10 29 -8 34 6 11 20
-20 21 -44z m-422 5 c-4 -8 -11 -15 -17 -15 -6 0 -6 7 2 20 14 22 24 19 15 -5z
m-330 -7 c-3 -8 -6 -5 -6 6 -1 11 2 17 5 13 3 -3 4 -12 1 -19z m43 -6 c0 -15
-2 -15 -10 -2 -13 20 -13 33 0 25 6 -3 10 -14 10 -23z m219 1 c0 -5 -4 -17 -9
-28 -8 -18 -9 -17 -9 8 -1 15 4 27 9 27 6 0 10 -3 9 -7z m561 -13 c0 -11 -7
-20 -15 -20 -15 0 -21 21 -8 33 12 13 23 7 23 -13z m604 4 c9 -24 7 -28 -9
-14 -17 14 -20 30 -6 30 5 0 12 -7 15 -16z m-732 -16 c-7 -7 -12 -8 -12 -2 0
14 12 26 19 19 2 -3 -1 -11 -7 -17z m-197 -20 c55 -14 129 -70 150 -115 22
-46 17 -171 -9 -223 -24 -47 -74 -89 -114 -96 -80 -15 -193 21 -212 67 -7 16
-16 29 -20 29 -33 0 -41 180 -11 238 20 38 75 96 101 105 22 8 69 6 115 -5z
m959 -3 c3 -8 1 -15 -4 -15 -6 0 -10 7 -10 15 0 8 2 15 4 15 2 0 6 -7 10 -15z
m-819 -5 c3 -5 2 -10 -4 -10 -5 0 -13 5 -16 10 -3 6 -2 10 4 10 5 0 13 -4 16
-10z m250 -10 c3 -5 1 -10 -4 -10 -6 0 -11 5 -11 10 0 6 2 10 4 10 3 0 8 -4
11 -10z m-765 -8 c0 -2 -5 -12 -10 -23 -13 -24 -30 -25 -30 -1 0 14 -2 15 -10
2 -10 -17 -25 -7 -18 12 5 11 68 20 68 10z m722 -42 c-12 -12 -22 -26 -22 -32
0 -6 -2 -9 -5 -6 -11 11 15 58 32 58 14 0 14 -3 -5 -20z m-811 -35 c7 5 10 3
7 -6 -3 -8 -15 -13 -26 -12 -12 2 -22 -4 -25 -15 -3 -10 -5 -7 -6 10 0 14 -4
35 -8 45 -5 15 -2 14 20 -6 15 -13 31 -20 38 -16z m1509 25 c0 -5 -4 -10 -9
-10 -6 0 -13 5 -16 10 -3 6 1 10 9 10 9 0 16 -4 16 -10z m-465 -30 c-3 -5 -11
-10 -16 -10 -6 0 -7 5 -4 10 3 6 11 10 16 10 6 0 7 -4 4 -10z m-195 -15 c-8
-9 -10 -25 -5 -42 11 -39 12 -93 3 -93 -4 0 -8 7 -8 15 0 7 -8 18 -17 23 -15
9 -16 14 -3 53 8 24 19 47 25 51 16 12 18 9 5 -7z m-849 -38 c-10 -9 -11 -8
-5 6 3 10 9 15 12 12 3 -3 0 -11 -7 -18z m29 -22 c0 -8 -2 -15 -4 -15 -2 0 -6
7 -10 15 -3 8 -1 15 4 15 6 0 10 -7 10 -15z m87 -7 c-3 -8 -6 -5 -6 6 -1 11 2
17 5 13 3 -3 4 -12 1 -19z m-146 -127 c-9 -28 -18 13 -13 54 l6 40 6 -40 c3
-22 4 -46 1 -54z m1002 69 c-4 -15 0 -20 16 -20 12 0 19 -4 16 -10 -3 -5 -1
-10 4 -10 6 0 11 -6 11 -14 0 -23 19 -29 36 -12 18 18 34 21 34 6 0 -5 7 -10
15 -10 8 0 15 -9 15 -20 0 -13 -5 -18 -15 -14 -8 4 -15 10 -15 15 0 15 -19 10
-40 -11 -21 -21 -40 -19 -40 5 0 7 -7 15 -15 19 -8 3 -15 12 -15 21 0 8 -4 15
-10 15 -5 0 -10 -7 -10 -16 0 -13 -3 -14 -14 -4 -13 10 -13 16 1 46 18 37 34
46 26 14z m-943 -35 c0 -13 -4 -27 -10 -30 -5 -3 -10 3 -10 14 0 10 -3 27 -6
35 -5 12 -2 15 10 10 9 -3 16 -17 16 -29z m750 31 c0 -3 -4 -8 -10 -11 -5 -3
-10 -1 -10 4 0 6 5 11 10 11 6 0 10 -2 10 -4z m27 -93 c-2 -16 -4 -5 -4 22 0
28 2 40 4 28 2 -13 2 -35 0 -50z m106 47 c-14 -14 -56 -16 -60 -3 -2 7 8 13
24 15 33 4 48 -1 36 -12z m-139 -45 c3 -8 1 -15 -4 -15 -6 0 -10 7 -10 15 0 8
2 15 4 15 2 0 6 -7 10 -15z m136 -5 c0 -5 -2 -10 -4 -10 -3 0 -8 5 -11 10 -3
6 -1 10 4 10 6 0 11 -4 11 -10z m-930 -20 c0 -11 -4 -20 -10 -20 -5 0 -10 9
-10 20 0 11 5 20 10 20 6 0 10 -9 10 -20z m59 -23 c1 -5 -3 -5 -9 -2 -5 3 -10
16 -9 28 0 21 1 21 9 2 5 -11 9 -24 9 -28z m711 9 c0 -23 -6 -31 -45 -64 -13
-11 -15 -10 -15 9 0 15 5 19 15 15 8 -3 16 -1 16 4 1 6 3 15 4 20 1 6 3 17 4
25 2 25 21 17 21 -9z m170 4 c0 -5 -5 -10 -11 -10 -5 0 -7 5 -4 10 3 6 8 10
11 10 2 0 4 -4 4 -10z m210 -10 c0 -11 -4 -20 -8 -20 -4 0 -8 9 -9 20 -1 11 2
20 8 20 5 0 9 -9 9 -20z m-70 -11 c0 -11 -4 -18 -10 -14 -5 3 -7 12 -3 20 7
21 13 19 13 -6z m-89 -19 c10 -1 9 -3 -3 -10 -22 -14 -78 -20 -78 -9 0 5 6 9
14 9 8 0 18 10 22 22 6 20 8 20 19 5 7 -9 18 -17 26 -17z m-979 -51 c-6 -39
-8 -35 -16 26 -6 45 -5 48 7 27 7 -13 11 -37 9 -53z m888 51 c-20 -13 -33 -13
-25 0 3 6 14 10 23 10 15 0 15 -2 2 -10z m210 -25 c0 -16 -6 -25 -15 -25 -16
0 -19 9 -9 34 9 25 24 19 24 -9z m-950 5 c0 -5 -6 -10 -14 -10 -8 0 -16 -8
-18 -17 -2 -12 -6 -14 -11 -6 -4 6 0 19 9 27 18 18 34 21 34 6z m880 0 c12 -8
11 -10 -7 -10 -13 0 -23 5 -23 10 0 13 11 13 30 0z m-360 -25 c0 -8 -4 -15
-10 -15 -5 0 -10 7 -10 15 0 8 5 15 10 15 6 0 10 -7 10 -15z m-602 -2 c-2 -5
1 -8 5 -8 16 0 33 -50 26 -77 -8 -31 -3 -39 19 -31 14 5 15 3 5 -8 -17 -17
-16 -29 2 -29 7 0 18 8 24 17 5 10 12 15 16 12 8 -9 -56 -79 -72 -79 -7 0 -13
-9 -13 -19 0 -11 -5 -23 -12 -27 -7 -5 -9 -2 -5 8 26 69 30 99 16 125 -11 20
-11 27 -1 30 19 7 14 40 -8 46 -20 5 -29 47 -10 47 6 0 9 -3 8 -7z m766 -8
c-4 -8 -8 -15 -10 -15 -2 0 -4 7 -4 15 0 8 4 15 10 15 5 0 7 -7 4 -15z m93
-31 c25 -16 27 -16 40 2 12 17 13 17 13 -2 0 -11 -7 -29 -15 -40 -13 -17 -14
-17 -15 -1 0 25 -40 23 -40 -3 0 -11 -7 -20 -15 -20 -8 0 -15 5 -15 10 0 6 5
10 11 10 6 0 8 17 5 48 -3 26 -3 39 0 30 3 -9 17 -24 31 -34z m127 5 c-11 -18
-24 -8 -24 19 1 26 1 26 15 8 8 -10 12 -23 9 -27z m-438 -38 c-18 -19 -59 -26
-53 -8 2 7 16 18 30 25 15 7 28 21 28 30 1 10 4 7 6 -6 3 -13 -2 -31 -11 -41z
m-216 29 c-6 -11 -12 -20 -14 -20 -2 0 -6 9 -9 20 -4 15 0 20 14 20 17 0 18
-3 9 -20z m290 16 c0 -3 -4 -8 -10 -11 -5 -3 -10 -1 -10 4 0 6 5 11 10 11 6 0
10 -2 10 -4z m-489 -38 c11 -21 11 -22 -4 -9 -10 7 -17 17 -17 22 0 15 9 10
21 -13z m536 -14 c-10 -33 -12 -34 -19 -14 -6 17 -4 26 9 36 10 7 19 14 20 14
0 0 -4 -16 -10 -36z m123 20 c0 -8 -4 -12 -10 -9 -5 3 -10 10 -10 16 0 5 5 9
10 9 6 0 10 -7 10 -16z m-810 -20 c0 -8 -4 -14 -10 -14 -5 0 -10 9 -10 21 0
11 5 17 10 14 6 -3 10 -13 10 -21z m228 14 c-3 -7 -8 -13 -13 -13 -5 0 -10 6
-12 13 -3 6 3 12 12 12 9 0 15 -6 13 -12z m522 2 c0 -5 -5 -10 -11 -10 -5 0
-7 5 -4 10 3 6 8 10 11 10 2 0 4 -4 4 -10z m-476 -32 c6 -4 7 -10 3 -15 -10
-9 -27 16 -26 37 1 13 1 13 6 0 3 -8 11 -18 17 -22z m356 1 c0 -18 -2 -20 -15
-9 -13 11 -13 15 -3 21 18 12 18 12 18 -12z m-665 -16 c8 4 14 -8 18 -36 5
-33 2 -45 -11 -55 -15 -11 -18 -10 -23 15 -8 32 -9 117 -2 90 3 -10 11 -16 18
-14z m602 -4 c-9 -6 -17 -17 -17 -24 0 -8 -4 -15 -10 -15 -5 0 -10 5 -10 10 0
15 41 53 48 45 4 -4 -1 -11 -11 -16z m-377 -21 c0 -18 -2 -20 -9 -8 -6 8 -7
18 -5 22 9 14 14 9 14 -14z m62 -10 c-7 -7 -12 -8 -12 -2 0 6 3 14 7 17 3 4 9
5 12 2 2 -3 -1 -11 -7 -17z m517 -12 c-9 -19 -15 -23 -20 -14 -7 10 -12 9 -25
-4 -18 -18 -10 -42 12 -34 8 3 11 0 7 -10 -4 -10 -13 -14 -29 -10 -16 4 -24 1
-27 -11 -4 -15 -5 -15 -6 2 0 11 6 29 14 39 8 11 15 27 15 36 0 9 9 16 21 17
12 1 27 7 32 12 17 17 19 6 6 -23z m181 30 c0 -3 -7 -12 -16 -20 -20 -20 -12
-62 21 -110 28 -42 23 -44 -70 -36 -39 4 -53 8 -33 8 26 2 42 9 53 24 15 22
14 23 -15 31 -42 11 -38 35 14 87 18 18 46 27 46 16z m-370 -46 c0 -13 -5 -18
-16 -13 -10 4 -14 1 -12 -8 4 -17 -14 -28 -19 -12 -4 11 30 53 42 53 3 0 5 -9
5 -20z m-170 -12 c0 -5 0 -12 0 -18 0 -5 -7 -10 -16 -10 -8 0 -12 5 -9 10 4 6
-5 10 -21 10 -22 0 -24 3 -15 14 12 14 60 9 61 -6z m418 13 c11 -7 11 -9 -1
-14 -16 -6 -27 0 -27 15 0 10 11 10 28 -1z m-662 -13 c-3 -7 -9 -21 -12 -31
-4 -11 -15 -17 -27 -15 -16 2 -23 -5 -30 -28 -9 -30 -14 -33 -64 -39 -61 -7
-69 -4 -58 22 8 17 8 17 12 1 5 -22 17 -23 33 -4 6 8 18 12 26 9 8 -3 21 0 29
7 17 14 21 45 5 35 -12 -7 -12 2 0 30 5 11 9 14 9 8 1 -18 48 -16 55 2 3 8 10
15 17 15 6 0 8 -6 5 -12z m984 -16 c0 -5 -6 -16 -13 -27 -16 -20 -33 -5 -23
20 6 16 36 21 36 7z m-898 -34 c-9 -9 -12 -7 -12 12 0 19 3 21 12 12 9 -9 9
-15 0 -24z m208 16 c0 -8 -5 -12 -10 -9 -6 4 -8 11 -5 16 9 14 15 11 15 -7z
m-256 -42 c-4 -9 -6 -20 -6 -24 1 -5 -14 -8 -33 -8 -24 0 -35 5 -35 15 0 11 8
13 30 9 27 -6 30 -4 30 18 0 14 3 28 8 32 10 11 15 -22 6 -42z m104 19 c-7
-12 -18 -21 -25 -21 -6 0 -2 11 10 24 26 29 34 27 15 -3z m277 10 c3 -5 2 -12
-3 -15 -5 -3 -9 1 -9 9 0 17 3 19 12 6z m-229 -25 c21 -22 17 -36 -12 -36 -22
0 -24 2 -14 15 6 8 9 19 5 25 -9 15 4 12 21 -4z m166 -11 c5 -22 2 -25 -25
-25 l-30 0 24 24 c13 13 25 24 25 25 1 1 4 -10 6 -24z m105 -10 c-7 -18 -43
-20 -53 -3 -5 8 -2 9 9 5 9 -3 23 0 29 7 16 17 23 12 15 -9z m143 5 c0 -17 -7
-20 -39 -20 -32 0 -38 3 -35 18 4 11 17 18 40 19 28 3 34 0 34 -17z m34 5 c-4
-8 -8 -15 -10 -15 -2 0 -4 7 -4 15 0 8 4 15 10 15 5 0 7 -7 4 -15z m-364 -15
c0 -5 -8 -10 -17 -10 -15 0 -16 2 -3 10 19 12 20 12 20 0z"/>
<path d="M540 1976 c0 -8 5 -18 10 -21 6 -3 10 3 10 14 0 12 -4 21 -10 21 -5
0 -10 -6 -10 -14z"/>
<path d="M445 1970 c3 -5 8 -10 11 -10 2 0 4 5 4 10 0 6 -5 10 -11 10 -5 0 -7
-4 -4 -10z"/>
<path d="M510 1959 c0 -17 20 -49 31 -49 5 0 3 14 -6 30 -16 31 -25 38 -25 19z"/>
<path d="M440 1925 c0 -8 4 -15 10 -15 5 0 7 7 4 15 -4 8 -8 15 -10 15 -2 0
-4 -7 -4 -15z"/>
<path d="M800 1930 c-11 -7 -12 -14 -4 -27 15 -24 34 -28 34 -6 1 12 5 9 15
-12 10 -23 14 -26 14 -10 0 11 -2 31 -6 43 -4 18 -8 20 -14 10 -7 -10 -9 -10
-9 0 0 14 -10 15 -30 2z"/>
<path d="M771 1914 c0 -11 3 -14 6 -6 3 7 2 16 -1 19 -3 4 -6 -2 -5 -13z"/>
<path d="M735 1890 c3 -5 8 -10 11 -10 2 0 4 5 4 10 0 6 -5 10 -11 10 -5 0 -7
-4 -4 -10z"/>
<path d="M954 1800 c3 -8 9 -23 12 -32 4 -10 10 -18 15 -18 14 0 10 13 -12 40
-11 14 -18 18 -15 10z"/>
<path d="M530 1766 c0 -8 5 -18 10 -21 6 -3 10 1 10 9 0 8 -4 18 -10 21 -5 3
-10 -1 -10 -9z"/>
<path d="M1035 1700 c-3 -5 -1 -10 4 -10 6 0 11 5 11 10 0 6 -2 10 -4 10 -3 0
-8 -4 -11 -10z"/>
<path d="M936 1665 c4 -8 8 -15 10 -15 2 0 4 7 4 15 0 8 -4 15 -10 15 -5 0 -7
-7 -4 -15z"/>
<path d="M1030 1671 c0 -6 4 -13 10 -16 6 -3 7 1 4 9 -7 18 -14 21 -14 7z"/>
<path d="M1010 1531 c0 -5 5 -13 10 -16 6 -3 10 -2 10 4 0 5 -4 13 -10 16 -5
3 -10 2 -10 -4z"/>
<path d="M991 1510 c0 -14 6 -34 14 -44 8 -11 15 -30 15 -43 0 -13 7 -26 15
-29 8 -4 15 -13 15 -22 0 -13 -3 -12 -20 3 -12 11 -20 13 -20 6 0 -13 88 -111
100 -111 12 0 20 44 10 54 -7 7 -10 3 -10 -9 0 -17 -2 -17 -14 -5 -18 20 -32
65 -17 56 6 -4 11 -1 11 6 0 17 -13 36 -23 35 -8 -2 -37 49 -37 67 0 6 -9 22
-20 36 l-20 25 1 -25z"/>
<path d="M1187 1516 c-4 -10 -5 -21 -2 -24 9 -9 17 6 13 25 -3 17 -4 17 -11
-1z"/>
<path d="M1070 1500 c0 -5 5 -10 11 -10 5 0 7 5 4 10 -3 6 -8 10 -11 10 -2 0
-4 -4 -4 -10z"/>
<path d="M1430 1502 c0 -14 30 -71 41 -77 22 -14 0 41 -28 73 -7 7 -13 9 -13
4z"/>
<path d="M1320 1487 c0 -8 7 -20 16 -27 22 -19 44 -77 37 -97 -5 -12 -2 -15
10 -10 9 3 17 3 17 -1 0 -5 7 -17 15 -28 13 -17 14 -17 15 -1 0 9 -8 25 -17
35 -10 10 -31 44 -46 75 -29 58 -47 79 -47 54z"/>
<path d="M1145 1480 c3 -5 8 -10 11 -10 2 0 4 5 4 10 0 6 -5 10 -11 10 -5 0
-7 -4 -4 -10z"/>
<path d="M1290 1465 c0 -8 5 -15 10 -15 6 0 10 7 10 15 0 8 -4 15 -10 15 -5 0
-10 -7 -10 -15z"/>
<path d="M1481 1324 c0 -11 3 -14 6 -6 3 7 2 16 -1 19 -3 4 -6 -2 -5 -13z"/>
<path d="M1440 1290 c0 -22 16 -43 28 -39 7 3 3 14 -8 29 -13 17 -20 20 -20
10z"/>
<path d="M1502 1268 c12 -35 38 -71 46 -63 6 6 -41 95 -50 95 -4 0 -2 -15 4
-32z"/>
<path d="M1586 1285 c4 -8 11 -15 16 -15 6 0 5 6 -2 15 -7 8 -14 15 -16 15 -2
0 -1 -7 2 -15z"/>
<path d="M1771 1244 c0 -11 3 -14 6 -6 3 7 2 16 -1 19 -3 4 -6 -2 -5 -13z"/>
<path d="M1739 1198 c10 -24 26 -45 36 -46 15 -3 14 2 -9 39 -34 58 -51 62
-27 7z"/>
<path d="M1790 1201 c0 -11 5 -23 10 -26 6 -4 10 5 10 19 0 14 -4 26 -10 26
-5 0 -10 -9 -10 -19z"/>
<path d="M1504 1194 c3 -9 6 -22 6 -30 0 -8 7 -14 15 -14 14 0 14 3 0 30 -16
31 -32 42 -21 14z"/>
<path d="M1623 1176 c4 -10 7 -22 7 -27 0 -5 5 -9 11 -9 15 0 7 43 -10 48 -10
3 -12 0 -8 -12z"/>
<path d="M1556 1157 c9 -31 14 -34 24 -17 14 22 12 27 -10 33 -18 4 -20 2 -14
-16z"/>
<path d="M1580 1069 c0 -17 4 -28 10 -24 6 3 10 17 10 31 0 13 -4 24 -10 24
-5 0 -10 -14 -10 -31z"/>
<path d="M1632 1020 c0 -14 2 -19 5 -12 2 6 2 18 0 25 -3 6 -5 1 -5 -13z"/>
<path d="M190 1745 c-16 -19 -3 -40 16 -24 15 13 19 39 5 39 -5 0 -14 -7 -21
-15z"/>
<path d="M217 1721 c-9 -15 -14 -31 -10 -34 3 -4 -7 -11 -22 -17 -21 -8 -25
-13 -16 -24 6 -7 9 -21 5 -30 -3 -9 -2 -16 4 -16 13 0 36 29 29 37 -6 6 29 62
45 74 9 6 0 39 -11 39 -4 0 -14 -13 -24 -29z"/>
<path d="M290 1706 c0 -7 -9 -16 -21 -19 -17 -5 -19 -11 -14 -39 5 -25 2 -38
-9 -47 -14 -11 -16 -11 -16 3 0 15 -2 15 -25 -1 -17 -12 -24 -25 -22 -40 3
-13 -2 -24 -11 -28 -11 -4 -12 -9 -5 -16 14 -14 32 -3 43 27 6 15 15 22 24 18
15 -6 46 41 46 70 0 8 4 16 8 18 13 5 23 68 12 68 -6 0 -10 -6 -10 -14z"/>
<path d="M325 1698 c-11 -27 -2 -49 14 -38 12 7 12 14 4 32 -9 20 -12 21 -18
6z"/>
<path d="M135 1610 c-8 -14 3 -30 21 -30 16 0 16 2 8 24 -7 18 -20 21 -29 6z"/>
<path d="M336 1538 c-11 -18 -15 -33 -9 -45 10 -22 10 -54 -1 -71 -9 -16 -2
-27 12 -18 10 6 52 86 52 99 0 4 -5 6 -12 5 -7 -2 -15 11 -18 27 l-6 30 -18
-27z"/>
<path d="M150 1480 c0 -21 4 -30 13 -27 6 2 12 14 12 27 0 13 -6 25 -12 28 -9
2 -13 -7 -13 -28z"/>
<path d="M590 1495 c0 -10 7 -15 17 -13 22 4 23 22 1 26 -11 2 -18 -3 -18 -13z"/>
<path d="M697 1504 c-8 -8 15 -44 29 -44 6 0 17 7 25 16 10 13 10 17 -2 25
-16 10 -43 12 -52 3z"/>
<path d="M200 1460 c-11 -11 -20 -25 -20 -31 0 -17 31 -6 47 18 20 29 0 40
-27 13z"/>
<path d="M610 1460 c-13 -8 -13 -10 2 -10 9 0 20 5 23 10 8 13 -5 13 -25 0z"/>
<path d="M257 1433 c-21 -6 -17 -27 6 -31 8 -2 21 6 27 17 11 22 6 24 -33 14z"/>
<path d="M543 1426 c-13 -7 -20 -15 -17 -19 8 -7 54 14 54 25 0 10 -10 9 -37
-6z"/>
<path d="M142 1408 c-16 -16 -15 -28 2 -28 19 0 27 13 17 28 -5 9 -10 9 -19 0z"/>
<path d="M198 1392 c-21 -4 -24 -32 -4 -32 8 0 17 7 20 16 8 20 6 21 -16 16z"/>
<path d="M227 1376 c-3 -8 0 -17 8 -19 15 -7 25 1 25 20 0 17 -26 17 -33 -1z"/>
<path d="M507 1383 c-10 -9 -9 -23 1 -23 5 0 17 7 28 15 19 14 19 14 -2 15
-11 0 -24 -3 -27 -7z"/>
<path d="M748 1343 c-14 -17 -1 -46 17 -39 9 3 15 0 15 -9 0 -24 26 -17 38 10
17 36 15 41 -8 20 -11 -10 -20 -13 -20 -7 0 6 5 14 10 17 18 11 11 20 -16 20
-14 0 -30 -6 -36 -12z"/>
<path d="M220 1326 c0 -9 7 -16 16 -16 9 0 14 5 12 12 -6 18 -28 21 -28 4z"/>
<path d="M1263 1073 c-18 -6 -16 -23 1 -23 17 0 30 16 19 23 -5 2 -14 2 -20 0z"/>
<path d="M1303 1043 c-17 -6 -16 -33 1 -33 7 0 16 9 19 20 5 20 2 22 -20 13z"/>
<path d="M1085 1021 c-8 -15 3 -31 21 -31 9 0 14 7 12 17 -4 20 -24 28 -33 14z"/>
<path d="M1206 1003 c-38 -38 -17 -55 23 -17 27 25 32 44 12 44 -5 0 -20 -12
-35 -27z"/>
<path d="M1122 984 c-12 -8 -27 -12 -32 -9 -6 3 -10 -1 -10 -10 0 -13 7 -15
38 -9 43 7 57 18 48 33 -9 15 -17 14 -44 -5z"/>
<path d="M1386 974 c-19 -18 -20 -30 -5 -40 14 -8 32 10 36 36 3 24 -10 26
-31 4z"/>
<path d="M1308 972 c-22 -4 -24 -32 -3 -32 9 0 18 7 22 15 7 19 3 22 -19 17z"/>
<path d="M1356 854 c-4 -11 0 -15 16 -12 12 2 23 9 26 16 6 18 -35 15 -42 -4z"/>
<path d="M1480 824 c0 -29 16 -40 35 -24 22 19 18 37 -10 42 -21 4 -25 1 -25
-18z"/>
<path d="M1556 842 c-9 -14 6 -52 20 -52 20 0 26 17 12 40 -14 21 -24 25 -32
12z"/>
<path d="M1435 830 c-11 -17 5 -32 21 -19 7 6 11 15 8 20 -7 12 -21 11 -29 -1z"/>
<path d="M1320 790 c0 -11 -7 -20 -15 -20 -8 0 -15 -3 -16 -7 0 -5 -2 -18 -5
-30 -3 -17 1 -23 14 -23 10 0 22 4 28 8 5 5 28 14 52 21 42 12 52 24 31 36 -6
4 -16 -1 -23 -11 -12 -16 -14 -14 -24 14 -12 35 -42 44 -42 12z"/>
<path d="M1183 793 c-29 -11 -8 -53 27 -53 13 0 18 38 7 49 -12 12 -15 12 -34
4z"/>
<path d="M1610 786 c0 -8 4 -17 8 -20 13 -8 35 11 28 23 -10 16 -36 14 -36 -3z"/>
<path d="M1240 774 c0 -9 7 -14 17 -12 25 5 28 28 4 28 -12 0 -21 -6 -21 -16z"/>
<path d="M1710 773 c-17 -6 -40 -32 -40 -46 0 -13 62 3 82 20 29 26 2 42 -42
26z"/>
<path d="M1520 730 c0 -11 -4 -20 -10 -20 -11 0 -34 -39 -27 -47 9 -8 47 17
47 32 0 8 9 19 20 25 28 15 25 30 -5 30 -18 0 -25 -5 -25 -20z"/>
<path d="M1392 728 c-18 -18 -15 -40 6 -36 9 2 18 13 20 26 4 24 -7 29 -26 10z"/>
<path d="M1605 710 c-3 -11 -11 -20 -16 -20 -5 0 -9 -13 -9 -30 0 -32 14 -40
24 -15 3 8 0 15 -6 15 -6 0 -8 3 -4 7 4 4 15 8 24 8 11 0 18 10 20 28 4 32
-23 38 -33 7z"/>
<path d="M1750 711 c0 -19 17 -38 25 -29 7 7 -7 48 -16 48 -5 0 -9 -9 -9 -19z"/>
<path d="M1436 704 c-8 -21 -3 -26 18 -18 9 3 16 12 16 20 0 19 -26 18 -34 -2z"/>
<path d="M1657 663 c-12 -11 -8 -23 8 -23 8 0 15 7 15 15 0 16 -12 20 -23 8z"/>
<path d="M1727 663 c-4 -3 -7 -16 -7 -29 0 -12 -6 -24 -12 -27 -10 -3 -10 -9
0 -26 7 -12 10 -26 7 -31 -4 -6 -1 -10 5 -10 12 0 29 40 28 67 -1 10 2 28 6
41 5 16 3 22 -7 22 -7 0 -17 -3 -20 -7z"/>
<path d="M1353 650 c-32 -13 -29 -27 8 -35 36 -8 40 -6 32 23 -6 24 -8 25 -40
12z"/>
<path d="M1507 653 c-19 -19 13 -73 43 -73 6 0 10 -11 10 -25 0 -31 15 -32 31
-3 10 18 8 24 -9 39 -12 9 -18 20 -14 24 4 4 -3 4 -15 1 -20 -6 -23 -4 -23 18
0 25 -10 33 -23 19z"/>
<path d="M1620 614 c0 -20 19 -27 35 -14 22 18 18 28 -10 28 -14 0 -25 -6 -25
-14z"/>
<path d="M1443 606 c-13 -6 -23 -16 -23 -23 0 -22 27 -14 44 12 18 27 14 29
-21 11z"/>
<path d="M1330 581 c0 -28 21 -37 37 -16 19 27 16 35 -12 35 -18 0 -25 -5 -25
-19z"/>
<path d="M1774 576 c4 -17 1 -26 -10 -30 -13 -5 -14 -9 -4 -21 10 -12 10 -18
0 -30 -15 -18 -7 -30 14 -22 9 4 15 17 15 29 0 13 2 40 6 61 7 31 5 37 -10 37
-13 0 -16 -6 -11 -24z"/>
<path d="M1410 546 c0 -7 -9 -16 -20 -19 -21 -5 -37 -33 -25 -45 3 -4 12 1 19
11 7 9 23 17 34 17 28 0 37 17 18 35 -18 19 -26 19 -26 1z"/>
<path d="M1488 539 c-26 -19 -26 -20 -10 -52 8 -17 19 -34 23 -37 4 -3 4 -12
-1 -20 -7 -10 -10 -11 -10 -2 0 6 -8 12 -18 12 -23 0 -32 -8 -26 -24 7 -19 74
-14 86 7 12 22 1 57 -18 57 -17 0 -18 23 -3 52 15 28 8 30 -23 7z"/>
<path d="M1660 527 c0 -21 12 -28 27 -16 19 16 16 29 -7 29 -11 0 -20 -6 -20
-13z"/>
<path d="M1610 506 c0 -17 5 -26 16 -26 10 0 14 7 12 22 -5 32 -28 35 -28 4z"/>
<path d="M1405 460 c-3 -5 -1 -10 4 -10 6 0 11 5 11 10 0 6 -2 10 -4 10 -3 0
-8 -4 -11 -10z"/>
<path d="M1603 445 c-3 -9 -3 -19 1 -22 8 -9 37 18 30 28 -8 14 -24 11 -31 -6z"/>
<path d="M1670 443 c0 -18 27 -16 33 1 4 10 0 14 -14 13 -10 -1 -19 -7 -19
-14z"/>
<path d="M1736 428 c-8 -18 -12 -37 -9 -44 2 -7 0 -15 -6 -19 -14 -8 -14 -35
-1 -35 15 0 28 32 34 83 7 55 0 60 -18 15z"/>
<path d="M1380 415 c-7 -9 -11 -18 -8 -20 3 -3 11 1 18 10 7 9 11 18 8 20 -3
3 -11 -1 -18 -10z"/>
<path d="M1600 385 c0 -27 9 -32 27 -14 14 14 6 39 -13 39 -8 0 -14 -10 -14
-25z"/>
<path d="M1771 371 c-14 -26 -14 -31 3 -31 16 0 29 37 16 45 -5 3 -14 -3 -19
-14z"/>
<path d="M1420 361 c0 -11 -3 -27 -6 -35 -5 -13 0 -16 27 -14 19 1 36 5 39 10
3 4 17 2 31 -6 29 -15 49 -11 49 10 0 10 -5 12 -12 8 -10 -6 -10 -5 -1 7 10
12 8 17 -7 27 -15 9 -22 9 -34 -3 -19 -19 -26 -19 -26 0 0 8 -4 15 -10 15 -5
0 -10 -9 -10 -20 0 -11 -4 -20 -10 -20 -5 0 -10 9 -10 20 0 11 -4 20 -10 20
-5 0 -10 -9 -10 -19z"/>
<path d="M1647 353 c-4 -3 -7 -15 -7 -25 0 -26 24 -17 28 10 3 21 -8 29 -21
15z"/>
<path d="M1596 324 c-9 -22 -8 -24 9 -24 8 0 15 9 15 20 0 24 -15 27 -24 4z"/>
<path d="M1755 301 c-7 -24 1 -41 20 -41 11 0 31 30 23 34 -2 1 -10 7 -20 14
-14 11 -17 10 -23 -7z"/>
<path d="M1560 264 c0 -18 5 -25 17 -22 24 5 26 21 3 36 -18 11 -20 10 -20
-14z"/>
<path d="M1 184 c0 -11 3 -14 6 -6 3 7 2 16 -1 19 -3 4 -6 -2 -5 -13z"/>
</g>
</svg>
