<?xml version="1.0" standalone="no"?>
<!DOCTYPE svg PUBLIC "-//W3C//DTD SVG 20010904//EN"
 "http://www.w3.org/TR/2001/REC-SVG-20010904/DTD/svg10.dtd">
<svg version="1.0" xmlns="http://www.w3.org/2000/svg"
 width="341.000000pt" height="290.000000pt" viewBox="0 0 341.000000 290.000000"
 preserveAspectRatio="xMidYMid meet">
<metadata>
Created by potrace 1.16, written by Peter Selinger 2001-2019
</metadata>
<g transform="translate(0.000000,290.000000) scale(0.100000,-0.100000)"
fill="#000000" stroke="none">
<path d="M98 2869 c-13 -23 -23 -29 -37 -24 -11 3 -22 1 -25 -4 -4 -6 -13 -8
-20 -5 -10 4 -12 -109 -10 -624 2 -346 7 -646 12 -668 5 -22 8 -105 6 -184 -2
-80 2 -194 7 -255 6 -60 12 -202 15 -314 2 -112 8 -220 14 -240 9 -34 27 -230
35 -367 3 -68 11 -88 49 -123 25 -24 27 -24 108 -13 46 7 108 12 138 12 30 0
89 6 130 14 41 8 121 14 176 14 56 0 111 5 122 11 27 14 42 14 42 -1 0 -10 21
-12 82 -9 54 2 74 6 58 11 -24 6 -24 7 -4 13 12 4 34 7 50 7 114 0 179 6 176
18 -4 21 15 13 21 -9 5 -20 10 -20 149 -16 79 3 195 5 258 6 63 0 160 5 215
11 318 34 546 43 538 23 -6 -16 8 -16 41 -2 14 7 23 16 20 20 -3 5 -1 9 5 9 5
0 11 -4 13 -9 3 -8 95 -23 128 -21 8 1 40 1 70 1 31 -1 107 5 170 14 142 18
141 18 134 0 -4 -9 0 -15 10 -15 9 0 16 8 16 20 0 23 -3 23 96 9 49 -7 82 -16
89 -26 16 -22 75 -10 105 22 17 18 27 22 36 14 15 -12 29 5 18 22 -3 6 -1 15
5 19 9 5 10 32 2 111 -11 102 -33 510 -29 526 1 4 -2 28 -5 53 -4 25 -9 149
-13 275 -9 352 -10 449 -3 465 3 8 2 47 -2 85 -11 86 -19 297 -23 595 -2 124
-7 237 -11 252 -4 16 -4 36 0 45 7 15 9 12 14 -12 3 -16 11 -28 16 -25 6 3 8
10 6 15 -16 41 -42 208 -38 243 l5 43 -1032 -5 c-1011 -5 -1152 -7 -1308 -22
-44 -4 -78 -3 -78 2 0 12 -298 18 -313 6 -7 -5 -70 -15 -142 -21 -71 -7 -139
-14 -149 -18 -15 -4 -18 -2 -13 12 6 14 0 16 -51 14 -48 -2 -57 0 -56 14 3 27
-20 19 -38 -14z m549 -91 c-3 -8 -6 -5 -6 6 -1 11 2 17 5 13 3 -3 4 -12 1 -19z
m0 -125 c-2 -21 -4 -4 -4 37 0 41 2 58 4 38 2 -21 2 -55 0 -75z m353 -57 c0
-2 -7 -7 -16 -10 -8 -3 -12 -2 -9 4 6 10 25 14 25 6z m1130 -131 c14 -17 50
-20 50 -4 0 5 5 7 10 4 6 -3 10 -1 10 4 0 21 40 11 49 -12 5 -13 16 -29 25
-36 14 -11 16 -11 16 3 0 25 103 -51 141 -103 16 -23 33 -41 38 -41 5 0 23
-22 40 -50 54 -88 -9 -49 -69 42 -14 21 -28 38 -32 38 -3 0 -25 18 -47 40 -32
31 -45 39 -58 32 -14 -8 -12 -11 12 -23 16 -8 46 -39 67 -69 21 -30 44 -55 50
-55 13 0 108 -151 108 -170 0 -5 -5 -3 -10 5 -5 8 -10 10 -10 4 0 -6 10 -19
23 -31 13 -11 36 -51 51 -89 16 -38 39 -96 53 -129 18 -43 26 -86 30 -150 2
-49 9 -105 15 -123 5 -18 10 -53 10 -77 0 -25 4 -45 9 -45 14 0 10 108 -6 175
-17 71 -18 78 -6 70 12 -7 2 66 -10 80 -5 5 -9 16 -9 25 0 14 -17 76 -61 214
-22 70 -2 58 24 -14 19 -55 49 -158 54 -185 2 -11 10 -58 19 -103 9 -46 13
-86 10 -89 -2 -3 -1 -15 4 -27 4 -13 9 -117 11 -232 3 -208 -4 -291 -22 -263
-6 10 -9 11 -9 2 0 -7 -9 -13 -21 -13 -12 0 -19 -5 -16 -12 2 -7 11 -12 20
-10 14 2 14 -2 -3 -40 -24 -55 -100 -112 -148 -111 -25 1 -32 -3 -28 -13 3 -8
-1 -14 -10 -14 -25 0 -54 19 -48 33 3 8 -15 26 -43 44 -68 43 -68 43 -83 33
-10 -6 -7 -14 16 -34 16 -15 41 -33 57 -41 15 -9 27 -20 27 -25 0 -11 -48 8
-68 27 -7 7 -22 13 -33 13 -10 0 -19 6 -19 14 0 8 -32 24 -77 40 -43 15 -87
31 -98 35 -35 14 -197 49 -307 67 -87 14 -109 20 -113 35 -7 22 -21 25 -28 7
-3 -8 -6 -6 -6 5 -1 24 -21 22 -21 -3 0 -21 -16 -26 -39 -11 -15 10 -39 68
-48 114 -3 15 -9 30 -14 33 -14 8 -11 -44 5 -74 21 -42 28 -72 18 -72 -6 0
-15 12 -20 28 -10 25 -10 25 -11 4 -2 -44 -20 -12 -37 66 -16 70 -23 294 -12
392 2 14 -1 27 -7 30 -6 3 -13 -21 -18 -55 -11 -78 -2 -324 12 -338 14 -14 14
-87 0 -107 -6 -8 -12 -11 -15 -5 -12 28 -26 40 -31 28 -17 -43 -50 20 -41 78
3 20 6 17 18 -19 19 -62 23 -45 5 29 -8 35 -15 88 -15 117 0 30 -4 52 -11 52
-6 0 -3 7 5 16 9 8 13 20 10 26 -4 6 -10 5 -15 -3 -6 -10 -9 -5 -11 16 -1 17
-4 -1 -8 -40 l-6 -70 -2 73 c-1 42 2 72 8 72 6 0 10 18 10 40 0 38 -13 54 -23
28 -4 -10 -8 -10 -15 1 -16 22 -29 5 -43 -59 -11 -50 -15 -57 -21 -39 -14 36
-31 7 -34 -58 l-3 -58 14 40 13 40 1 -43 c1 -29 -4 -44 -14 -48 -17 -7 -21
-68 -6 -106 5 -13 6 -38 4 -55 -6 -41 -33 -45 -33 -5 0 15 -6 47 -14 72 -15
51 -19 180 -5 180 5 0 9 -16 9 -37 0 -55 12 -31 14 27 1 31 -4 56 -11 62 -9 7
-14 6 -17 -3 -2 -8 -9 -29 -15 -48 -14 -44 -14 -114 0 -182 11 -52 13 -98 5
-106 -2 -2 -16 -5 -32 -6 -16 -1 -32 -6 -36 -12 -5 -6 -8 -5 -8 4 0 10 -3 11
-13 2 -8 -6 -17 -8 -20 -4 -4 3 -7 -1 -7 -10 0 -10 -4 -17 -9 -17 -8 0 -8 19
-1 40 5 14 -3 97 -10 110 -6 9 -9 -11 -8 -53 1 -49 -3 -72 -13 -78 -24 -15
-39 -10 -40 14 0 21 -1 21 -11 -3 -12 -27 -10 -34 -35 120 -4 29 -7 32 -13 15
-7 -19 -8 -19 -16 5 -4 14 -8 70 -9 125 0 100 -7 131 -27 119 -6 -4 -14 0 -19
7 -7 11 -9 11 -9 -3 0 -9 -6 -23 -13 -30 -8 -7 -17 -27 -22 -43 -8 -27 -9 -28
-13 -7 -2 12 10 47 27 79 17 31 29 59 26 61 -2 3 -12 -10 -22 -27 -37 -67 -40
-69 -50 -31 -9 33 -10 34 -21 14 -14 -27 -4 -67 15 -59 12 4 14 0 9 -21 -4
-14 -2 -32 4 -38 7 -9 6 -25 -3 -51 -13 -36 -14 -37 -20 -15 -3 13 -2 30 3 39
12 23 2 66 -22 90 -19 21 -19 22 1 55 12 18 21 37 21 41 0 15 -38 -41 -68
-102 -17 -33 -36 -63 -41 -65 -6 -2 -7 -9 -2 -17 7 -11 14 -7 30 20 l21 34 1
-30 1 -30 9 32 c14 49 29 50 30 1 0 -24 2 -61 5 -84 3 -22 0 -51 -5 -65 -9
-22 -10 -21 -10 14 -1 20 -5 37 -11 37 -12 0 -13 -16 -1 -58 11 -35 -4 -96
-20 -86 -5 3 -9 -14 -10 -38 0 -38 -1 -40 -10 -19 -10 26 -2 88 12 97 5 3 9
15 8 27 -1 21 -1 20 -12 -4 -7 -14 -18 -24 -24 -22 -7 3 -13 0 -13 -6 0 -6 5
-11 10 -11 6 0 7 -6 1 -18 -5 -9 -13 -28 -18 -42 -8 -19 -10 -6 -8 53 0 42 -3
77 -8 77 -9 0 -7 15 8 70 7 24 7 24 -8 5 -16 -20 -16 -19 -10 4 4 17 3 22 -5
17 -7 -4 -12 -25 -12 -47 0 -24 -5 -39 -12 -39 -9 -1 -7 -5 3 -13 9 -7 19 -21
22 -32 3 -11 8 -30 12 -42 5 -18 3 -22 -9 -17 -12 5 -16 -1 -16 -22 0 -35 -15
-21 -25 24 -4 20 -3 32 4 32 6 0 11 -5 11 -12 0 -6 2 -9 5 -6 8 8 -7 68 -17
68 -5 0 -7 -4 -4 -9 3 -5 -6 -17 -21 -26 l-26 -18 22 32 c12 17 20 31 16 31
-3 0 -2 8 3 18 16 30 23 72 12 72 -5 0 -10 -9 -10 -19 0 -11 -4 -23 -10 -26
-5 -3 -10 -17 -10 -30 0 -13 -4 -27 -10 -30 -5 -3 -10 -1 -10 5 0 6 -5 8 -12
4 -8 -5 -9 -2 -3 12 4 10 8 30 8 43 -1 16 2 20 7 11 11 -18 30 -3 30 26 0 13
5 24 10 24 6 0 10 11 10 25 0 14 7 37 16 51 9 13 14 27 11 30 -3 3 -8 -4 -12
-15 -3 -12 -11 -21 -18 -21 -8 0 -8 3 1 12 16 16 15 55 0 61 -10 4 -10 8 0 15
8 5 12 20 10 33 -2 20 -9 13 -40 -43 -21 -36 -38 -77 -38 -91 0 -13 -6 -30
-14 -36 -11 -10 -13 -2 -10 45 1 32 7 60 13 63 6 4 15 30 21 59 7 29 14 52 16
52 3 0 9 -10 14 -22 8 -20 9 -21 9 -4 1 23 29 56 48 56 7 0 31 18 53 41 l40
41 97 3 c54 1 92 0 86 -2 -22 -8 -14 -22 10 -17 12 3 54 10 92 14 39 5 90 14
115 19 25 6 48 10 53 11 4 0 7 6 7 13 0 15 88 63 97 53 10 -9 44 14 37 26 -4
5 0 14 7 19 8 4 16 4 20 -2 7 -13 47 6 130 61 38 25 65 36 80 33 30 -5 66 24
130 104 27 35 49 64 49 65 0 2 29 34 65 73 73 77 89 72 22 -8 -24 -29 -48 -64
-55 -79 -7 -18 -19 -28 -32 -28 -11 0 -20 -7 -20 -15 0 -26 23 -17 68 28 39
37 44 39 38 17 -4 -14 -10 -36 -13 -50 l-6 -25 20 22 c12 13 23 44 26 74 4 28
16 65 28 82 11 18 18 23 13 12 -4 -11 -9 -36 -12 -55 -2 -19 -9 -41 -15 -48
-8 -10 -7 -16 1 -21 8 -5 11 -31 8 -82 -5 -98 -17 -189 -25 -189 -3 0 -6 -40
-6 -89 0 -49 -3 -87 -7 -84 -5 2 -8 0 -8 -6 0 -16 23 -26 28 -12 2 7 10 1 18
-15 18 -33 10 -43 -15 -20 -18 16 -19 16 -17 -12 1 -16 9 -36 18 -45 9 -10 20
-26 23 -37 3 -11 10 -20 15 -20 13 0 50 -87 62 -147 10 -49 21 -61 63 -67 9
-1 26 -25 74 -104 25 -42 161 -192 173 -192 4 0 -1 16 -12 35 l-19 34 29 73
c32 78 35 93 21 84 -5 -4 -21 -37 -36 -75 l-28 -69 -26 31 c-14 18 -32 36 -39
40 -9 6 -11 19 -7 40 7 31 6 31 -9 12 -11 -15 -15 -16 -15 -5 0 8 6 23 14 34
10 13 11 25 4 43 -14 36 -11 46 11 40 11 -3 20 0 20 6 0 8 4 7 9 -2 6 -9 11
-10 15 -2 4 6 14 11 23 11 13 0 14 -3 1 -22 -7 -13 -19 -36 -26 -53 l-12 -30
25 30 c14 17 28 40 31 53 7 25 6 24 28 16 8 -3 12 -12 9 -20 -7 -19 7 -18 21
2 6 8 26 16 43 16 26 1 33 6 35 24 2 16 7 21 16 15 10 -6 8 -18 -8 -56 -11
-26 -19 -53 -16 -59 2 -6 12 8 22 32 17 43 18 43 30 20 15 -25 17 -15 5 17 -6
14 3 51 26 115 18 52 43 122 55 155 11 33 26 66 32 74 9 11 8 13 -4 9 -14 -4
-28 -35 -94 -213 l-27 -70 5 59 c3 32 0 83 -5 114 -9 46 -8 57 5 71 15 14 16
14 17 -4 0 -11 9 7 20 40 18 57 16 86 -3 55 -5 -8 -20 -33 -33 -55 l-24 -40
-1 33 c0 42 -45 204 -72 258 -22 46 -83 88 -96 67 -4 -6 -19 -13 -32 -15 -14
-2 -35 -11 -48 -20 -26 -18 -62 -13 -62 8 0 8 5 14 10 14 6 0 10 -5 10 -10 0
-7 7 -7 21 0 11 6 18 17 16 23 -2 7 3 20 11 30 12 14 13 20 3 30 -9 9 -16 8
-29 -9 -19 -24 -59 -37 -68 -23 -3 5 2 16 10 25 18 18 21 34 6 34 -5 0 -10 -5
-10 -11 0 -5 -5 -7 -10 -4 -6 3 -13 -2 -17 -12 -4 -10 -9 -20 -13 -23 -3 -3
-10 -15 -15 -27 -7 -17 -14 -20 -25 -13 -12 8 -11 13 7 39 13 16 18 31 13 33
-6 2 -4 27 5 63 14 62 13 71 -4 60 -6 -3 -8 -17 -5 -29 6 -25 -17 -56 -41 -56
-8 0 -21 -12 -30 -27 l-16 -28 6 35 c4 19 10 58 15 85 5 28 14 79 20 114 13
73 27 101 52 101 10 0 18 7 18 16 0 9 -5 12 -11 8 -20 -12 4 21 41 58 39 39
61 45 80 23z m-1559 -28 c-10 -9 -11 -8 -5 6 3 10 9 15 12 12 3 -3 0 -11 -7
-18z m1988 -297 c11 -24 11 -24 -3 -6 -9 11 -16 24 -16 30 0 12 5 7 19 -24z
m298 -72 c-3 -8 -6 -5 -6 6 -1 11 2 17 5 13 3 -3 4 -12 1 -19z m-2007 -68 c0
-5 -5 -10 -11 -10 -5 0 -7 5 -4 10 3 6 8 10 11 10 2 0 4 -4 4 -10z m725 -10
c-3 -5 -12 -10 -18 -10 -7 0 -6 4 3 10 19 12 23 12 15 0z m710 -92 c9 -24 21
-46 27 -49 9 -6 18 -77 19 -141 0 -16 4 -28 9 -28 6 0 10 -8 10 -18 0 -10 5
-23 11 -29 6 -6 14 -37 18 -69 6 -45 5 -64 -6 -80 -8 -14 -10 -25 -4 -28 5 -3
12 0 14 6 4 9 6 8 6 -2 0 -8 -8 -33 -19 -55 -11 -23 -19 -32 -20 -22 0 14 -5
17 -20 12 -16 -5 -20 -2 -20 17 0 13 5 29 12 36 9 9 9 15 0 24 -7 7 -12 28
-12 48 0 20 -7 45 -15 56 -13 16 -16 17 -25 4 -15 -22 -12 -34 5 -20 13 11 14
7 12 -29 -7 -126 -70 60 -81 239 -6 93 -19 131 -32 96 -13 -35 12 -286 33
-325 7 -15 13 -33 13 -42 0 -8 4 -19 9 -25 7 -6 71 -124 71 -129 0 0 -28 2
-62 6 -67 6 -98 16 -98 30 0 4 -16 1 -35 -7 -21 -8 -35 -10 -35 -4 0 5 -5 10
-11 10 -6 0 -8 -7 -5 -16 3 -8 2 -12 -4 -9 -6 3 -10 27 -11 53 0 35 -3 42 -9
27 -8 -18 -9 -18 -9 6 -1 14 -6 30 -13 37 -9 9 -9 12 0 12 7 0 12 14 11 33 0
32 0 32 -11 7 -10 -23 -11 -23 -15 -5 -3 11 -11 40 -19 64 -10 30 -11 47 -4
56 15 18 26 110 12 101 -7 -4 -12 -19 -12 -34 0 -15 -5 -34 -10 -42 -14 -21
-13 75 0 101 14 26 2 24 -21 -3 l-18 -23 -1 28 c0 15 9 36 20 47 11 11 20 17
20 13 0 -3 8 1 18 9 25 23 62 32 63 16 0 -7 4 -4 9 7 5 14 25 25 59 34 28 7
53 17 57 22 9 16 34 10 34 -8 0 -14 3 -13 18 5 27 34 48 27 67 -20z m425 -36
c0 -15 -2 -15 -10 -2 -13 20 -13 33 0 25 6 -3 10 -14 10 -23z m-770 -7 c0 -8
-4 -15 -10 -15 -5 0 -10 7 -10 15 0 8 5 15 10 15 6 0 10 -7 10 -15z m780 -25
c0 -5 -4 -10 -10 -10 -5 0 -10 5 -10 10 0 6 5 10 10 10 6 0 10 -4 10 -10z
m-1836 -26 c9 -3 16 -15 16 -26 0 -17 -5 -19 -47 -13 -65 9 -73 12 -73 30 0
11 11 15 44 15 24 0 51 -3 60 -6z m-147 -60 c-3 -3 -12 -4 -19 -1 -8 3 -5 6 6
6 11 1 17 -2 13 -5z m-84 -39 c-3 -8 -9 -15 -14 -15 -10 0 -12 24 -3 33 11 11
24 -3 17 -18z m-46 -17 c-3 -8 -6 -5 -6 6 -1 11 2 17 5 13 3 -3 4 -12 1 -19z
m2260 -70 c-3 -8 -6 -5 -6 6 -1 11 2 17 5 13 3 -3 4 -12 1 -19z m-977 -59 c0
-5 -4 -9 -10 -9 -5 0 -10 7 -10 16 0 8 5 12 10 9 6 -3 10 -10 10 -16z m25 1
c3 -5 1 -10 -4 -10 -6 0 -11 5 -11 10 0 6 2 10 4 10 3 0 8 -4 11 -10z m-566
-182 c0 -128 -3 -159 -12 -143 -13 22 -23 241 -13 280 4 14 11 25 16 25 5 0 9
-67 9 -162z m1518 140 c-3 -8 -6 -5 -6 6 -1 11 2 17 5 13 3 -3 4 -12 1 -19z
m-2283 -33 c-4 -8 -8 -15 -10 -15 -2 0 -4 7 -4 15 0 8 4 15 10 15 5 0 7 -7 4
-15z m290 -100 c-10 -99 -11 -116 -5 -107 4 6 20 -16 35 -49 16 -32 33 -59 37
-59 5 0 7 -13 6 -30 -2 -24 -7 -30 -24 -30 -13 0 -23 6 -23 13 -1 6 -7 26 -16
42 l-14 30 4 -30 c2 -16 0 -39 -4 -50 -8 -18 -9 -18 -10 5 l-2 25 -7 -25 c-7
-22 -11 -15 -31 48 -13 39 -28 72 -32 72 -11 0 -11 1 16 -79 13 -39 20 -69 16
-66 -5 3 -16 27 -25 53 -10 26 -22 57 -27 69 -11 22 -3 47 11 38 5 -2 11 11
14 31 7 43 29 94 40 94 5 0 5 9 2 20 -5 14 -2 20 9 20 12 0 16 11 17 43 l1 42
8 -40 c4 -22 6 -58 4 -80z m-332 -18 c-6 -6 -12 -28 -14 -47 l-4 -35 -11 35
c-8 29 -8 37 5 48 20 16 38 16 24 -1z m778 -148 c7 -20 10 -45 6 -55 -7 -18
-8 -18 -22 0 -10 14 -14 46 -13 110 2 84 2 87 9 36 4 -30 13 -71 20 -91z m71
101 c5 0 9 -13 9 -30 0 -16 -4 -30 -9 -30 -5 0 -7 -10 -3 -22 3 -14 2 -19 -6
-14 -7 4 -12 32 -11 69 1 34 3 54 6 45 2 -10 9 -18 14 -18z m737 -65 c0 -14
-4 -25 -9 -25 -10 0 -12 34 -2 43 10 10 11 9 11 -18z m-1354 -104 c20 -61 20
-61 -1 -61 -36 0 -42 13 -31 63 5 26 11 47 13 47 1 0 10 -22 19 -49z m523 -28
c-11 -10 -26 8 -20 23 5 15 7 14 15 -1 6 -9 7 -19 5 -22z m83 17 c8 -5 12 -11
9 -14 -7 -8 -49 5 -49 15 0 12 21 11 40 -1z m-147 -37 c-7 -2 -19 -2 -25 0 -7
3 -2 5 12 5 14 0 19 -2 13 -5z m229 1 c4 -3 -9 -36 -29 -74 l-37 -70 12 -86
c6 -48 9 -90 7 -95 -3 -4 -19 -14 -35 -22 l-29 -15 5 31 c3 18 7 37 9 44 2 6
-3 19 -10 30 -20 25 -20 50 -1 34 12 -10 17 -8 26 9 7 12 9 31 6 43 -3 12 -2
26 3 31 10 14 21 56 14 56 -11 0 -52 -50 -59 -72 l-8 -23 -6 25 c-4 15 0 41
11 65 10 22 20 48 23 58 8 25 26 21 26 -7 0 -36 18 -41 32 -10 10 22 10 28 -5
39 -16 11 -15 13 10 13 16 0 31 -2 35 -4z m-172 -9 c0 -2 -20 -13 -44 -24 -32
-15 -45 -27 -49 -48 -3 -15 -9 -37 -12 -48 -7 -20 -6 -20 9 -1 9 11 16 28 16
39 0 10 4 16 9 13 5 -3 15 2 22 11 13 14 15 13 20 -13 6 -33 -9 -74 -20 -55
-9 15 -36 -14 -45 -49 l-7 -25 20 24 c18 20 22 21 27 7 3 -9 4 -23 0 -31 -3
-8 -1 -15 4 -15 6 0 10 -5 10 -11 0 -5 -4 -7 -10 -4 -5 3 -10 -3 -10 -14 0
-13 -8 -21 -22 -23 -27 -4 -38 -38 -13 -38 14 0 38 21 72 63 13 17 46 12 63
-8 6 -8 10 -31 8 -52 -5 -46 -52 -95 -128 -133 -25 -12 -57 -35 -72 -51 -22
-24 -33 -28 -54 -23 -24 6 -25 5 -15 -14 8 -16 7 -21 -5 -26 -12 -5 -13 -10
-3 -28 11 -21 12 -21 25 8 l14 29 -5 -30 c-3 -16 -8 -38 -12 -49 -3 -11 -1
-16 5 -12 6 3 14 21 18 39 7 32 7 32 16 7 6 -15 5 -26 0 -28 -6 -2 -8 -12 -5
-23 3 -10 0 -32 -6 -47 -6 -15 -12 -44 -13 -65 -1 -26 -4 -35 -12 -27 -5 5
-14 10 -20 10 -11 0 25 -29 37 -30 4 0 7 9 7 19 0 11 5 23 12 27 8 5 9 0 4
-17 -17 -60 -19 -82 -8 -75 8 5 12 -3 12 -23 0 -16 -5 -33 -11 -37 -22 -13
-134 -22 -141 -10 -6 8 -10 8 -15 0 -12 -18 -71 -23 -78 -7 -2 8 -1 12 4 8 19
-11 41 8 40 34 -1 26 -1 26 -8 2 -5 -19 -8 -21 -17 -10 -17 21 -25 67 -13 71
7 2 7 12 0 32 -6 15 -12 55 -14 89 -2 54 1 67 26 98 15 20 27 42 27 48 0 7 8
25 18 39 27 39 45 89 37 102 -9 15 23 50 45 50 9 0 25 9 35 20 10 11 28 20 39
20 12 0 44 21 71 46 l50 46 -49 -26 c-27 -14 -51 -26 -55 -26 -4 0 -5 17 -3
38 2 23 -7 73 -22 123 -30 100 -31 109 -10 109 10 0 14 -5 10 -15 -9 -23 5
-76 22 -82 8 -4 21 2 28 12 8 10 14 15 14 9 1 -5 9 9 19 31 16 32 25 40 53 43
18 2 35 6 37 8 6 6 21 5 21 -1z m40 -7 c-1 -7 -15 -29 -32 -48 -17 -19 -27
-28 -23 -20 5 8 15 23 23 32 8 10 12 24 9 33 -4 9 -1 15 8 15 8 0 15 -6 15
-12z m1567 -45 c-3 -10 -5 -2 -5 17 0 19 2 27 5 18 2 -10 2 -26 0 -35z m0 -85
c-3 -7 -5 -2 -5 12 0 14 2 19 5 13 2 -7 2 -19 0 -25z m-1607 -36 c0 -4 -9 -13
-21 -20 -19 -12 -19 -11 -9 8 10 19 30 28 30 12z m40 -17 c0 -8 -4 -15 -10
-15 -5 0 -7 7 -4 15 4 8 8 15 10 15 2 0 4 -7 4 -15z m-1057 -45 c-3 -12 -8
-19 -11 -16 -5 6 5 36 12 36 2 0 2 -9 -1 -20z m1644 -42 c-3 -8 -6 -5 -6 6 -1
11 2 17 5 13 3 -3 4 -12 1 -19z m-367 -43 c9 -11 10 -29 4 -67 -8 -47 -12 -54
-39 -62 -37 -11 -55 -18 -129 -50 -32 -14 -69 -26 -81 -26 -20 0 -24 6 -27 48
-5 56 1 67 61 93 25 11 73 33 105 50 66 33 88 36 106 14z m-973 -57 c-3 -8 -6
-5 -6 6 -1 11 2 17 5 13 3 -3 4 -12 1 -19z m675 -85 c-2 -16 -9 -33 -14 -40
-6 -7 -3 -15 9 -22 10 -6 13 -11 7 -11 -5 0 -18 6 -28 13 -28 21 -10 86 25 87
3 0 4 -12 1 -27z m1605 -5 c-3 -8 -6 -5 -6 6 -1 11 2 17 5 13 3 -3 4 -12 1
-19z m-1293 -29 c11 -57 7 -92 -16 -116 -30 -32 -64 -30 -73 4 -3 15 -2 29 2
30 15 5 2 63 -13 63 -8 0 -11 -7 -8 -17 5 -16 3 -15 -10 1 -9 11 -19 16 -23
12 -10 -9 -4 -78 8 -90 5 -6 9 -15 9 -21 0 -14 -78 -35 -131 -35 -37 0 -40 2
-34 23 11 36 11 41 -5 44 -20 4 -45 -48 -28 -58 7 -5 10 -10 7 -14 -3 -3 -15
3 -27 13 -21 18 -21 19 -2 49 23 38 57 63 86 63 12 0 39 7 60 17 58 24 167 63
180 63 6 0 14 -14 18 -31z m-383 -32 c-8 -8 -11 -3 -11 19 1 25 2 27 11 11 8
-14 8 -22 0 -30z m39 -22 c10 -12 10 -15 -4 -15 -9 0 -16 7 -16 15 0 8 2 15 4
15 2 0 9 -7 16 -15z m370 -146 c17 -63 7 -89 -35 -89 -24 0 -35 5 -35 15 0 8
-7 15 -15 15 -8 0 -15 7 -15 16 0 9 -8 23 -17 30 -11 8 -13 13 -5 14 6 0 12 5
12 11 0 5 -6 7 -12 3 -9 -5 -9 -2 1 9 9 12 28 17 62 17 48 0 48 0 59 -41z
m-143 -14 c-6 -38 -4 -46 13 -55 11 -6 25 -8 30 -5 6 3 10 2 10 -3 0 -5 -8
-12 -17 -14 -31 -8 -153 -9 -209 -2 -47 5 -51 8 -39 21 16 16 20 63 6 63 -5 0
-21 -15 -36 -32 l-26 -33 3 39 3 39 100 3 c55 2 114 8 130 13 17 5 32 10 34
10 2 1 1 -19 -2 -44z m660 13 c-3 -7 -5 -2 -5 12 0 14 2 19 5 13 2 -7 2 -19 0
-25z m-1407 12 c0 -5 -5 -10 -11 -10 -5 0 -7 5 -4 10 3 6 8 10 11 10 2 0 4 -4
4 -10z m2227 -32 c-3 -7 -5 -2 -5 12 0 14 2 19 5 13 2 -7 2 -19 0 -25z m-1090
-10 c-3 -8 -6 -5 -6 6 -1 11 2 17 5 13 3 -3 4 -12 1 -19z m-671 -55 c-10 -10
-19 5 -10 18 6 11 8 11 12 0 2 -7 1 -15 -2 -18z m871 5 c-3 -8 -6 -5 -6 6 -1
11 2 17 5 13 3 -3 4 -12 1 -19z m-802 -37 c10 -17 -12 -21 -25 -6 -10 12 -10
15 3 15 9 0 18 -4 22 -9z m265 3 c12 12 24 -18 16 -39 -3 -9 -17 -15 -33 -14
-48 2 -200 -20 -265 -38 -31 -8 -20 20 23 57 l41 35 104 -5 c58 -3 109 -1 114
4z m1530 -4 c0 -5 -5 -10 -11 -10 -5 0 -7 5 -4 10 3 6 8 10 11 10 2 0 4 -4 4
-10z m-986 -16 c3 -8 2 -12 -4 -9 -6 3 -10 10 -10 16 0 14 7 11 14 -7z m-893
-37 c-10 -9 -11 -8 -5 6 3 10 9 15 12 12 3 -3 0 -11 -7 -18z m2119 -27 c0 -5
-4 -10 -10 -10 -5 0 -10 5 -10 10 0 6 5 10 10 10 6 0 10 -4 10 -10z m-1840
-41 c-25 -4 -65 -7 -90 -7 l-45 1 45 7 c25 4 65 7 90 7 l45 0 -45 -8z m-1163
-15 c-3 -3 -12 -4 -19 -1 -8 3 -5 6 6 6 11 1 17 -2 13 -5z m156 -31 c-7 -2
-19 -2 -25 0 -7 3 -2 5 12 5 14 0 19 -2 13 -5z m290 -10 c-7 -2 -19 -2 -25 0
-7 3 -2 5 12 5 14 0 19 -2 13 -5z"/>
<path d="M2210 2421 c0 -13 26 -32 33 -24 8 7 -11 33 -24 33 -5 0 -9 -4 -9 -9z"/>
<path d="M1977 2254 c-13 -13 -7 -44 8 -44 16 0 17 5 6 33 -3 10 -10 15 -14
11z"/>
<path d="M2087 2224 c-4 -4 -7 -14 -7 -23 0 -11 3 -12 11 -4 6 6 10 16 7 23
-2 6 -7 8 -11 4z"/>
<path d="M2021 2204 c0 -11 3 -14 6 -6 3 7 2 16 -1 19 -3 4 -6 -2 -5 -13z"/>
<path d="M2440 2197 c0 -11 29 -67 35 -67 3 0 5 6 5 13 0 13 -39 67 -40 54z"/>
<path d="M2046 2181 c-8 -12 4 -71 14 -71 16 0 21 51 6 65 -8 9 -17 11 -20 6z"/>
<path d="M2192 2172 c-16 -28 -12 -45 6 -33 8 5 12 19 10 32 l-3 24 -13 -23z"/>
<path d="M2107 2173 c-4 -3 -7 -11 -7 -17 0 -6 5 -5 12 2 6 6 9 14 7 17 -3 3
-9 2 -12 -2z"/>
<path d="M2277 2173 c-10 -10 -8 -45 2 -39 11 7 21 46 12 46 -4 0 -11 -3 -14
-7z"/>
<path d="M2280 2078 c-12 -22 -12 -22 6 -6 10 10 15 20 12 24 -4 3 -12 -5 -18
-18z"/>
<path d="M2186 2003 c-6 -14 -5 -15 5 -6 7 7 10 15 7 18 -3 3 -9 -2 -12 -12z"/>
<path d="M1809 1985 c-12 -30 -15 -103 -4 -113 11 -11 19 10 25 63 7 67 -4 92
-21 50z"/>
<path d="M2417 1890 c-9 -14 -17 -35 -17 -47 0 -14 -6 -23 -16 -23 -8 0 -13
-4 -9 -10 10 -16 29 0 48 40 22 48 18 74 -6 40z"/>
<path d="M2366 1874 c-4 -9 -4 -19 -1 -22 2 -3 7 3 11 12 4 9 4 19 1 22 -2 3
-7 -3 -11 -12z"/>
<path d="M2457 1859 c-9 -6 -17 -17 -17 -24 0 -20 6 -19 30 5 22 22 14 34 -13
19z"/>
<path d="M2413 1777 c-30 -44 -29 -57 6 -57 21 0 30 6 34 22 8 29 -1 37 -17
15 -20 -26 -29 -20 -10 8 25 38 12 49 -13 12z"/>
<path d="M707 1694 c-19 -25 -23 -54 -7 -54 6 0 11 8 11 18 1 9 4 4 8 -13 7
-33 18 -35 120 -21 50 7 61 12 61 30 0 38 -84 65 -131 42 -10 -4 -22 -2 -30 7
-13 12 -17 11 -32 -9z m150 -30 c4 -12 -84 -30 -94 -20 -3 3 0 13 7 21 15 18
81 17 87 -1z"/>
<path d="M940 1673 c-15 -17 -25 -40 -25 -58 0 -16 -8 -38 -17 -47 -10 -10
-18 -25 -18 -33 0 -26 39 2 46 33 4 15 18 40 31 55 22 27 32 77 15 77 -4 0
-18 -12 -32 -27z"/>
<path d="M1320 1640 c13 -23 20 -26 20 -6 0 8 -7 16 -15 20 -13 4 -14 2 -5
-14z"/>
<path d="M1670 1636 c0 -14 5 -28 10 -31 6 -3 10 5 10 19 0 14 -4 28 -10 31
-6 3 -10 -5 -10 -19z"/>
<path d="M637 1636 c-17 -13 -23 -36 -9 -36 8 0 35 40 30 45 -2 2 -11 -2 -21
-9z"/>
<path d="M1527 1643 c-17 -17 8 -373 26 -373 6 0 6 29 2 73 -5 39 -9 123 -10
184 -2 110 -5 130 -18 116z"/>
<path d="M1595 1631 c-8 -15 -9 -197 0 -268 5 -46 11 -63 22 -63 10 0 13 6 8
18 -4 9 -8 69 -11 132 -2 74 0 106 5 90 5 -14 9 -44 10 -67 1 -23 6 -45 11
-48 7 -4 8 26 4 92 -4 54 -8 100 -10 102 -2 2 -10 -2 -18 -8 -12 -10 -14 -9
-9 8 5 22 -1 28 -12 12z"/>
<path d="M2520 1584 c-12 -31 -12 -34 -2 -34 4 0 13 14 19 30 6 17 7 30 2 30
-5 0 -14 -12 -19 -26z"/>
<path d="M710 1582 c0 -5 -8 -17 -18 -28 -21 -22 -44 -94 -31 -94 5 0 9 5 9
10 0 6 7 10 15 10 10 0 15 10 15 28 0 15 7 39 14 55 8 15 11 27 5 27 -5 0 -9
-4 -9 -8z"/>
<path d="M2562 1573 c-7 -12 -12 -30 -12 -40 1 -13 5 -11 16 10 8 16 13 34 11
40 -2 7 -9 3 -15 -10z"/>
<path d="M1741 1554 c0 -11 3 -14 6 -6 3 7 2 16 -1 19 -3 4 -6 -2 -5 -13z"/>
<path d="M1421 1525 c-20 -52 -21 -55 -6 -55 16 0 29 38 22 67 -3 14 -6 12
-16 -12z"/>
<path d="M1037 1522 c-9 -13 5 -63 16 -59 10 3 12 20 8 57 -1 12 -18 13 -24 2z"/>
<path d="M1741 1503 c0 -10 4 -27 9 -38 7 -16 9 -13 9 18 1 20 -3 37 -9 37 -5
0 -10 -8 -9 -17z"/>
<path d="M1129 1503 c-4 -36 -8 -266 -5 -262 2 2 7 31 11 64 3 33 10 89 14
125 9 66 7 80 -10 80 -5 0 -9 -3 -10 -7z"/>
<path d="M2580 1484 c0 -8 5 -12 10 -9 6 4 8 11 5 16 -9 14 -15 11 -15 -7z"/>
<path d="M1688 1465 c-7 -7 14 -115 22 -115 6 0 -7 110 -14 117 -1 2 -5 1 -8
-2z"/>
<path d="M990 1418 c0 -39 1 -40 15 -22 19 25 19 64 0 64 -11 0 -15 -11 -15
-42z"/>
<path d="M642 1424 c-1 -13 0 -24 2 -24 7 0 14 40 7 44 -4 3 -8 -6 -9 -20z"/>
<path d="M2504 1414 c-1 -42 1 -42 14 -5 8 22 7 31 -1 34 -8 3 -12 -8 -13 -29z"/>
<path d="M2682 1400 c0 -14 2 -19 5 -12 2 6 2 18 0 25 -3 6 -5 1 -5 -13z"/>
<path d="M2699 1385 c-1 -16 -3 -57 -4 -90 -1 -33 -5 -69 -10 -80 -28 -76 -39
-135 -25 -135 6 0 10 7 10 16 0 8 4 13 9 10 4 -3 6 5 4 17 -3 13 2 39 11 58
14 31 15 32 11 6 -2 -15 -7 -37 -11 -49 -6 -21 -6 -21 10 -5 18 18 19 28 16
156 -2 88 -17 156 -21 96z"/>
<path d="M2595 1380 c3 -5 8 -10 11 -10 2 0 4 5 4 10 0 6 -5 10 -11 10 -5 0
-7 -4 -4 -10z"/>
<path d="M681 1338 c-18 -37 -20 -51 -11 -65 7 -11 10 -12 7 -3 -2 8 4 32 15
53 11 21 17 44 15 50 -2 7 -14 -9 -26 -35z"/>
<path d="M2477 1373 c-4 -3 -7 -13 -7 -22 1 -13 3 -13 11 2 11 19 8 33 -4 20z"/>
<path d="M2522 1350 c0 -14 2 -19 5 -12 2 6 2 18 0 25 -3 6 -5 1 -5 -13z"/>
<path d="M2482 1323 c-16 -40 -42 -134 -42 -150 0 -7 6 -13 14 -13 8 0 16 -8
18 -17 3 -16 6 -15 26 5 12 12 27 22 32 22 11 0 14 23 3 33 -3 4 -12 2 -20 -4
-16 -14 -18 1 -4 29 19 38 29 82 20 88 -5 3 -9 -3 -9 -13 0 -14 -2 -15 -9 -5
-6 10 -11 2 -16 -25 -5 -21 -8 -41 -7 -45 1 -5 -2 -8 -8 -8 -13 0 -13 -2 5 66
16 62 14 82 -3 37z"/>
<path d="M1661 1314 c0 -11 3 -14 6 -6 3 7 2 16 -1 19 -3 4 -6 -2 -5 -13z"/>
<path d="M1721 1288 c-1 -15 4 -30 9 -33 12 -7 12 12 0 40 -8 18 -9 17 -9 -7z"/>
<path d="M2167 1284 c-4 -4 -7 -14 -7 -23 0 -11 3 -12 11 -4 6 6 10 16 7 23
-2 6 -7 8 -11 4z"/>
<path d="M2397 1263 c-14 -50 -17 -73 -9 -73 5 0 12 19 15 42 6 45 2 63 -6 31z"/>
<path d="M2337 1263 c-4 -3 -7 -11 -7 -17 0 -6 5 -5 12 2 6 6 9 14 7 17 -3 3
-9 2 -12 -2z"/>
<path d="M1664 1244 c3 -9 6 -21 6 -27 0 -8 3 -8 10 -1 12 12 3 44 -12 44 -6
0 -7 -7 -4 -16z"/>
<path d="M2431 1224 c0 -11 3 -14 6 -6 3 7 2 16 -1 19 -3 4 -6 -2 -5 -13z"/>
<path d="M1122 1190 c0 -19 2 -27 5 -17 2 9 2 25 0 35 -3 9 -5 1 -5 -18z"/>
<path d="M2306 1205 c-3 -9 0 -15 9 -15 8 0 15 7 15 15 0 8 -4 15 -9 15 -5 0
-11 -7 -15 -15z"/>
<path d="M1681 1184 c0 -11 3 -14 6 -6 3 7 2 16 -1 19 -3 4 -6 -2 -5 -13z"/>
<path d="M1750 1194 c0 -5 7 -19 15 -30 8 -10 15 -14 15 -8 0 5 -7 19 -15 30
-8 10 -15 14 -15 8z"/>
<path d="M2411 1164 c0 -11 3 -14 6 -6 3 7 2 16 -1 19 -3 4 -6 -2 -5 -13z"/>
<path d="M2370 1149 c0 -5 5 -7 10 -4 6 3 10 8 10 11 0 2 -4 4 -10 4 -5 0 -10
-5 -10 -11z"/>
<path d="M2334 1098 c-7 -22 -7 -22 -14 -3 -7 19 -8 19 -15 2 -10 -25 9 -44
28 -28 17 14 29 51 17 51 -5 0 -12 -10 -16 -22z"/>
<path d="M2266 1033 c-5 -6 18 -33 28 -33 3 0 6 6 6 14 0 15 -24 28 -34 19z"/>
<path d="M2599 995 c-12 -19 -25 -32 -30 -29 -5 3 -9 -2 -9 -11 0 -9 3 -14 8
-12 24 13 50 20 70 18 20 -2 23 1 17 18 -4 12 -2 21 4 21 6 0 11 7 11 15 0 9
-9 15 -25 15 -19 0 -31 -10 -46 -35z"/>
<path d="M2060 1809 c0 -24 4 -38 10 -34 6 3 10 22 10 41 0 19 -4 34 -10 34
-5 0 -10 -18 -10 -41z"/>
<path d="M2135 1719 c-4 -12 -2 -26 4 -32 8 -8 11 -2 11 21 0 37 -6 41 -15 11z"/>
<path d="M2079 1664 c-14 -38 -3 -41 16 -5 9 18 11 31 5 31 -6 0 -15 -12 -21
-26z"/>
<path d="M2117 1663 c-4 -3 -7 -16 -6 -27 0 -19 1 -19 10 3 10 24 8 36 -4 24z"/>
<path d="M2017 1613 c-3 -16 -3 -30 -1 -33 7 -7 24 23 24 43 0 27 -17 20 -23
-10z"/>
<path d="M2346 1595 c4 -8 1 -15 -5 -15 -6 0 -11 -10 -11 -21 0 -18 2 -19 15
-9 17 14 21 60 5 60 -5 0 -7 -7 -4 -15z"/>
<path d="M1991 1584 c0 -11 3 -14 6 -6 3 7 2 16 -1 19 -3 4 -6 -2 -5 -13z"/>
<path d="M2071 1574 c0 -11 3 -14 6 -6 3 7 2 16 -1 19 -3 4 -6 -2 -5 -13z"/>
<path d="M2100 1535 c0 -8 2 -15 4 -15 2 0 6 7 10 15 3 8 1 15 -4 15 -6 0 -10
-7 -10 -15z"/>
<path d="M820 1286 c0 -14 5 -26 10 -26 6 0 10 9 10 19 0 11 -4 23 -10 26 -6
4 -10 -5 -10 -19z"/>
<path d="M1166 895 c4 -8 10 -15 15 -15 4 0 6 7 3 15 -4 8 -10 15 -15 15 -4 0
-6 -7 -3 -15z"/>
<path d="M946 525 c4 -8 8 -15 10 -15 2 0 4 7 4 15 0 8 -4 15 -10 15 -5 0 -7
-7 -4 -15z"/>
<path d="M915 490 c3 -5 1 -10 -4 -10 -14 0 -14 -57 -1 -65 6 -4 10 5 9 22 -1
15 2 36 6 46 4 10 3 17 -5 17 -6 0 -8 -4 -5 -10z"/>
<path d="M970 493 c0 -4 5 -15 10 -23 8 -13 10 -13 10 2 0 9 -4 20 -10 23 -5
3 -10 3 -10 -2z"/>
<path d="M1040 486 c0 -9 5 -16 10 -16 6 0 10 4 10 9 0 6 -4 13 -10 16 -5 3
-10 -1 -10 -9z"/>
<path d="M1077 435 c-4 -8 -2 -17 3 -20 6 -4 10 3 10 14 0 25 -6 27 -13 6z"/>
<path d="M950 386 c0 -8 5 -18 10 -21 6 -3 10 1 10 9 0 8 -4 18 -10 21 -5 3
-10 -1 -10 -9z"/>
<path d="M920 374 c0 -8 5 -12 10 -9 6 3 10 10 10 16 0 5 -4 9 -10 9 -5 0 -10
-7 -10 -16z"/>
<path d="M956 225 c-3 -8 -1 -15 4 -15 6 0 10 7 10 15 0 8 -2 15 -4 15 -2 0
-6 -7 -10 -15z"/>
<path d="M1437 713 c-10 -10 -8 -43 2 -43 9 0 21 24 21 41 0 11 -14 12 -23 2z"/>
<path d="M1514 574 c3 -9 6 -21 7 -27 0 -7 4 -3 8 8 9 22 5 35 -11 35 -5 0 -7
-7 -4 -16z"/>
<path d="M1380 516 c0 -9 5 -16 10 -16 6 0 10 4 10 9 0 6 -4 13 -10 16 -5 3
-10 -1 -10 -9z"/>
<path d="M1522 510 c0 -14 2 -19 5 -12 2 6 2 18 0 25 -3 6 -5 1 -5 -13z"/>
<path d="M1315 450 c3 -5 8 -10 11 -10 2 0 4 5 4 10 0 6 -5 10 -11 10 -5 0 -7
-4 -4 -10z"/>
<path d="M1490 421 c0 -6 4 -13 10 -16 6 -3 7 1 4 9 -7 18 -14 21 -14 7z"/>
<path d="M1280 360 c0 -5 7 -10 15 -10 8 0 15 5 15 10 0 6 -7 10 -15 10 -8 0
-15 -4 -15 -10z"/>
<path d="M3320 2400 c-4 -38 0 -74 11 -84 11 -12 10 35 -1 79 -7 29 -8 29 -10
5z"/>
<path d="M2355 140 c3 -5 8 -10 11 -10 2 0 4 5 4 10 0 6 -5 10 -11 10 -5 0 -7
-4 -4 -10z"/>
<path d="M1535 99 c-11 -16 -6 -17 85 -11 63 4 77 8 55 13 -48 11 -133 10
-140 -2z"/>
</g>
</svg>
