<?xml version="1.0" standalone="no"?>
<!DOCTYPE svg PUBLIC "-//W3C//DTD SVG 20010904//EN"
 "http://www.w3.org/TR/2001/REC-SVG-20010904/DTD/svg10.dtd">
<svg version="1.0" xmlns="http://www.w3.org/2000/svg"
 width="263.000000pt" height="322.000000pt" viewBox="0 0 263.000000 322.000000"
 preserveAspectRatio="xMidYMid meet">
<metadata>
Created by potrace 1.16, written by Peter Selinger 2001-2019
</metadata>
<g transform="translate(0.000000,322.000000) scale(0.100000,-0.100000)"
fill="#000000" stroke="none">
<path d="M42 3177 l-24 -11 0 -240 c-2 -436 -1 -490 10 -591 13 -116 21 -864
9 -882 -4 -6 -6 -175 -5 -375 1 -200 2 -504 2 -676 0 -255 2 -312 13 -308 7 3
13 2 13 -3 0 -5 116 -11 258 -15 141 -4 365 -10 497 -13 241 -7 379 -8 774 -5
152 1 217 -1 222 -9 7 -12 164 -9 584 9 94 5 172 4 173 0 6 -14 22 -9 22 7 0
8 7 15 15 15 17 0 20 25 5 35 -12 7 -13 55 -2 55 5 0 5 28 0 62 -5 35 -6 173
-3 310 4 136 4 251 1 256 -3 5 -7 160 -10 346 -3 185 -12 396 -20 469 -8 72
-17 201 -20 286 -3 85 -11 160 -16 166 -6 7 -10 54 -9 106 1 52 -5 150 -13
219 -9 69 -15 136 -16 150 0 14 -1 123 -2 242 -1 119 1 221 5 227 10 17 -5 94
-24 119 -16 22 -18 22 -60 7 -48 -17 -145 -19 -206 -5 -25 6 -56 5 -85 -1 -55
-13 -399 -12 -414 1 -16 12 -139 19 -441 24 -143 2 -278 8 -300 12 -31 6 -662
9 -820 4 -52 -1 -69 1 -80 9 -5 5 -20 4 -33 -2z m381 -92 c-1 -16 -5 -97 -9
-180 -4 -82 -10 -161 -14 -175 -7 -26 -24 155 -25 260 0 59 -10 68 -61 56 -24
-6 -25 -9 -18 -63 l7 -56 -22 22 c-11 11 -21 32 -21 46 0 14 -4 25 -10 25 -5
0 -10 -15 -10 -32 0 -18 -9 -44 -20 -58 -23 -29 -26 -55 -7 -47 14 5 12 -13
-13 -123 -7 -32 -13 131 -11 295 0 37 -2 45 -9 30 -5 -11 -9 -48 -9 -82 -1
-43 -5 -64 -16 -70 -9 -6 -15 -31 -18 -78 -2 -39 -3 -1 -2 83 1 83 -1 152 -6
152 -5 0 -9 -9 -9 -21 0 -33 -25 -16 -28 19 l-3 31 63 3 c35 2 110 1 168 -2
l105 -5 -2 -30z m82 -7 c-3 -13 -7 -48 -9 -78 -5 -64 9 -34 19 43 7 50 29 72
46 46 7 -11 11 -11 17 -1 13 19 75 4 67 -17 -12 -30 -35 -136 -35 -160 0 -36
18 -13 23 29 3 19 2 -16 0 -79 -5 -88 -3 -115 8 -121 18 -12 29 -3 29 23 0 12
5 29 10 37 7 11 9 2 5 -30 -3 -34 -2 -39 4 -20 9 24 9 23 10 -9 1 -26 -2 -32
-14 -27 -8 3 -15 1 -15 -4 0 -6 -7 -10 -15 -10 -7 0 -19 -8 -25 -17 -8 -14 -9
-10 -4 18 4 28 2 38 -10 42 -12 5 -14 14 -10 37 5 23 3 30 -9 30 -9 0 -18 -11
-20 -27 -3 -16 -4 36 -4 114 1 78 -2 145 -6 149 -9 9 -10 -2 -7 -111 1 -49 -3
-101 -8 -115 -8 -18 -9 1 -6 70 3 93 3 94 -9 43 -14 -61 -27 -78 -28 -37 0 27
-1 27 -20 -14 -12 -29 -20 -70 -21 -120 -1 -43 -8 -88 -15 -102 -7 -14 -13
-35 -13 -47 0 -12 -5 -25 -12 -29 -8 -5 -9 13 -3 72 4 43 10 141 14 217 5 119
9 141 24 152 15 10 17 21 12 44 -6 27 -4 31 14 31 17 0 20 -5 16 -22z m229
-25 c10 -65 8 -93 -8 -87 -11 4 -18 -7 -27 -38 -53 -193 -57 -190 -32 20 16
134 18 142 39 142 17 0 23 -8 28 -37z m146 13 c0 -36 -40 -300 -47 -306 -3 -3
-2 23 2 58 5 47 4 62 -6 62 -9 0 -11 21 -6 85 4 50 2 85 -3 85 -12 0 -17 -20
-39 -173 -10 -70 -20 -130 -23 -132 -6 -7 -7 131 -2 243 l6 102 59 0 c56 0 59
-1 59 -24z m75 8 c-1 -19 -17 -120 -22 -138 -4 -13 -1 -16 7 -11 17 10 4 -174
-16 -224 l-14 -36 4 45 c3 25 8 62 12 84 6 31 4 38 -7 34 -7 -2 -17 -15 -21
-29 -4 -13 -5 41 -2 121 3 80 7 150 9 156 4 13 50 11 50 -2z m128 -24 c-6 -90
-13 -150 -18 -173 -5 -17 -3 -27 4 -27 6 0 11 -10 11 -22 0 -12 -3 -18 -7 -14
-4 3 -13 -4 -20 -16 -11 -20 -12 -21 -13 -4 0 31 -27 1 -34 -40 -7 -35 -26
-38 -26 -3 0 10 -5 19 -11 19 -8 0 -9 39 -3 133 4 72 7 142 7 155 -1 22 2 23
56 20 53 -3 56 -4 54 -28z m80 1 c-2 -6 2 -11 7 -11 6 0 10 5 10 10 0 6 11 10
24 10 22 0 23 -3 20 -47 -3 -33 -2 -42 4 -28 5 11 7 26 4 34 -3 9 -1 12 6 7 8
-5 12 0 12 14 0 17 5 20 28 17 25 -4 27 -7 24 -48 -2 -33 0 -40 8 -29 7 11 9
-2 5 -45 -10 -104 -14 -131 -28 -164 -12 -29 -13 -25 -13 55 1 88 -7 113 -23
72 -6 -13 -10 -17 -10 -9 -2 33 -16 -5 -23 -57 -6 -48 -6 -44 -3 22 3 74 -8
126 -27 126 -4 0 -9 -12 -9 -27 -1 -16 -2 -32 -4 -38 -1 -5 -3 -21 -4 -35 -2
-14 -5 -19 -8 -12 -13 32 -31 7 -43 -60 -14 -70 -14 -71 -23 -38 -5 19 -7 58
-5 88 3 29 1 55 -3 57 -7 5 15 137 26 155 8 12 51 -5 48 -19z m1113 12 c-10
-25 -46 -262 -46 -300 0 -17 -5 -35 -11 -39 -13 -8 -6 146 11 266 5 36 10 71
10 78 0 6 9 12 21 12 16 0 19 -4 15 -17z m-180 -30 c-3 -21 -6 -50 -6 -64 0
-23 -4 -26 -25 -21 -22 4 -28 -2 -45 -39 -11 -24 -20 -53 -21 -64 -1 -11 -5
18 -10 65 -5 52 -4 89 1 94 6 6 10 20 10 33 0 16 6 23 20 23 13 0 18 -5 14
-15 -4 -8 -1 -15 5 -15 6 0 11 -12 11 -27 0 -34 9 -25 13 13 4 35 14 54 29 54
7 0 8 -14 4 -37z m50 -10 c-4 -27 -9 -74 -13 -106 l-6 -58 -17 29 c-16 26 -16
33 -1 105 10 52 20 77 30 77 11 0 12 -10 7 -47z m64 40 c0 -5 -7 -73 -15 -152
-15 -139 -25 -189 -25 -123 0 18 -4 32 -10 32 -17 0 -9 107 16 228 4 20 34 33
34 15z m134 -20 c-4 -16 -13 -31 -20 -36 -7 -4 -16 -34 -20 -67 -4 -33 -11
-60 -15 -60 -11 0 -11 -1 1 85 14 94 18 105 41 105 16 0 18 -5 13 -27z m-765
5 c0 -7 -8 -58 -18 -113 -16 -91 -18 -97 -24 -60 -10 65 -12 138 -3 163 8 23
46 32 45 10z m65 -25 c-4 -21 -11 -63 -15 -93 l-7 -55 1 55 c1 30 -2 61 -7 68
-12 19 2 62 20 62 12 0 14 -7 8 -37z m76 23 c0 -39 -23 -172 -31 -180 -5 -6
-9 -25 -9 -42 0 -18 -5 -36 -11 -40 -9 -5 -10 24 -5 107 4 77 3 109 -4 99 -19
-29 -10 3 11 36 21 35 49 46 49 20z m60 -13 c-1 -52 -28 -218 -40 -245 -18
-38 -30 -26 -20 19 5 21 11 65 14 98 8 79 17 138 23 148 10 17 23 5 23 -20z
m86 11 c-3 -9 -9 -41 -12 -72 -4 -32 -13 -69 -21 -84 -7 -16 -11 -28 -8 -28 2
0 -4 -15 -15 -32 -11 -18 -20 -41 -20 -51 0 -10 -5 -15 -10 -12 -6 4 -8 10 -6
14 3 4 7 41 10 81 6 72 23 177 33 193 2 4 16 7 30 7 19 0 24 -4 19 -16z m41
-76 c-6 -103 -24 -191 -38 -182 -5 3 -7 9 -4 13 5 8 17 158 18 224 1 25 6 37
15 37 12 0 14 -16 9 -92z m57 67 c-3 -13 -9 -57 -14 -97 -5 -51 -8 -60 -9 -31
0 23 -6 43 -12 45 -7 2 -8 22 -3 56 5 42 10 52 25 52 16 0 18 -5 13 -25z
m-579 -2 c-4 -10 -13 -61 -21 -113 -20 -136 -23 -149 -35 -128 -5 10 -6 60 -1
125 6 67 5 113 -1 121 -7 9 0 12 28 12 31 0 36 -3 30 -17z m44 -102 c-5 -96
-10 -123 -24 -137 -17 -17 -17 -15 -10 71 8 97 -2 110 -16 23 l-8 -53 4 50 c9
121 23 165 49 165 8 0 9 -34 5 -119z m77 25 c0 -52 -4 -92 -8 -89 -5 2 -8 20
-8 39 0 34 -23 49 -33 22 -3 -7 -4 15 -4 49 1 34 5 59 9 57 4 -3 8 0 8 5 0 6
8 11 19 11 17 0 18 -8 17 -94z m902 52 c5 -24 5 -47 1 -53 -4 -5 -10 -27 -14
-47 -4 -20 -13 -54 -20 -74 l-12 -37 -5 39 c-5 35 7 170 17 202 9 25 24 11 33
-30z m-2297 -150 l-5 -153 -6 140 c-4 77 -5 146 -2 153 13 37 17 -4 13 -140z
m1474 67 c-4 -25 -10 -44 -12 -41 -3 3 -2 26 2 51 3 26 9 45 12 42 2 -3 1 -26
-2 -52z m-1305 -20 c0 -7 5 -15 11 -17 13 -4 30 -76 18 -80 -4 -2 -17 -68 -29
-147 -11 -79 -22 -146 -25 -149 -3 -3 -5 60 -5 140 0 108 3 148 13 151 9 3 9
9 -1 26 -13 23 -6 105 9 95 5 -3 9 -11 9 -19z m453 -14 c3 -14 0 -17 -14 -14
-10 3 -15 11 -12 19 7 20 20 17 26 -5z m64 -183 c-2 -35 -3 -7 -3 62 0 69 1
97 3 63 2 -35 2 -91 0 -125z m688 10 c5 -18 3 -28 -4 -28 -6 0 -11 15 -12 33
0 17 -3 26 -6 19 -11 -28 -23 3 -23 59 0 38 4 58 10 54 6 -3 11 4 12 17 1 13
5 -11 9 -52 4 -41 10 -87 14 -102z m573 107 c-1 -19 1 -37 5 -41 10 -10 9 -26
-2 -20 -5 3 -11 -3 -14 -14 -6 -22 8 -28 16 -7 4 9 8 8 16 -3 8 -12 4 -17 -20
-23 -39 -10 -42 -7 -29 27 5 15 8 47 6 71 -3 24 -2 46 1 49 13 13 24 -8 21
-39z m-821 3 c-3 -7 -5 -2 -5 12 0 14 2 19 5 13 2 -7 2 -19 0 -25z m328 -30
c-5 -29 -10 -47 -13 -40 -5 17 8 106 15 99 3 -3 2 -30 -2 -59z m-1048 20 c-3
-8 -6 -5 -6 6 -1 11 2 17 5 13 3 -3 4 -12 1 -19z m210 -35 c-3 -10 -5 -2 -5
17 0 19 2 27 5 18 2 -10 2 -26 0 -35z m640 25 c-3 -8 -6 -5 -6 6 -1 11 2 17 5
13 3 -3 4 -12 1 -19z m554 -81 c-15 -15 -19 6 -13 58 l6 50 8 -50 c4 -27 3
-54 -1 -58z m-330 6 c-9 -16 -10 -15 -11 7 0 14 4 36 8 50 7 24 7 24 10 -7 2
-18 -1 -41 -7 -50z m-530 34 c-10 -9 -11 -8 -5 6 3 10 9 15 12 12 3 -3 0 -11
-7 -18z m1293 -73 c-4 -30 -11 -54 -15 -54 -11 0 -11 59 -2 114 6 35 7 37 15
17 4 -12 5 -47 2 -77z m-2039 -49 c-7 -59 -17 -110 -21 -114 -4 -3 -3 23 1 59
8 66 11 97 14 160 1 27 4 31 11 19 6 -10 4 -55 -5 -124z m554 88 c-1 -37 -3
-42 -8 -23 -7 24 -3 70 5 70 2 0 4 -21 3 -47z m976 10 c5 -19 2 -23 -14 -23
-15 0 -21 6 -21 23 0 45 21 44 35 0z m-678 5 c-3 -8 -6 -5 -6 6 -1 11 2 17 5
13 3 -3 4 -12 1 -19z m1080 0 c-3 -8 -6 -5 -6 6 -1 11 2 17 5 13 3 -3 4 -12 1
-19z m-1192 -8 c3 -5 1 -10 -4 -10 -6 0 -11 5 -11 10 0 6 2 10 4 10 3 0 8 -4
11 -10z m905 -10 c0 -5 -4 -10 -10 -10 -5 0 -10 5 -10 10 0 6 5 10 10 10 6 0
10 -4 10 -10z m-598 -25 c3 -13 1 -22 -3 -19 -9 5 -13 44 -5 44 2 0 6 -11 8
-25z m328 15 c0 -5 -5 -10 -11 -10 -5 0 -7 5 -4 10 3 6 8 10 11 10 2 0 4 -4 4
-10z m463 -20 c-7 -28 -13 -25 -13 6 0 14 4 23 9 20 5 -3 7 -15 4 -26z m-1956
-17 c-3 -10 -5 -4 -5 12 0 17 2 24 5 18 2 -7 2 -21 0 -30z m330 15 c-3 -8 -6
-5 -6 6 -1 11 2 17 5 13 3 -3 4 -12 1 -19z m1103 18 c0 -3 -4 -8 -10 -11 -5
-3 -10 -1 -10 4 0 6 5 11 10 11 6 0 10 -2 10 -4z m-430 -26 c9 -16 8 -20 -5
-20 -8 0 -15 9 -15 20 0 11 2 20 5 20 2 0 9 -9 15 -20z m350 16 c0 -3 -4 -8
-10 -11 -5 -3 -10 -1 -10 4 0 6 5 11 10 11 6 0 10 -2 10 -4z m-410 -21 c0 -8
-4 -15 -10 -15 -5 0 -7 7 -4 15 4 8 8 15 10 15 2 0 4 -7 4 -15z m150 -2 c0 -7
-9 -13 -20 -13 -11 0 -20 6 -20 13 0 7 9 13 20 13 11 0 20 -6 20 -13z m817 0
c15 -12 16 -15 3 -23 -17 -10 -15 -13 24 -25 31 -10 48 -35 24 -35 -8 0 -32
-13 -54 -28 -60 -43 -141 -70 -229 -76 -44 -4 -105 -10 -135 -15 -30 -5 -104
-10 -165 -11 -71 -1 -101 -5 -85 -10 l25 -8 -26 -1 c-14 -1 -54 -4 -89 -8 -51
-5 -62 -4 -55 7 6 10 -2 12 -38 8 -25 -3 -50 -1 -55 4 -7 7 -45 6 -109 0 -100
-11 -429 -9 -440 2 -3 3 1 14 10 24 10 10 17 22 17 26 0 4 18 24 40 45 23 21
40 47 40 59 0 12 6 22 13 23 28 3 62 -4 65 -12 5 -13 26 -11 41 4 8 8 60 12
179 13 92 1 194 4 227 7 33 4 139 13 235 22 96 9 177 18 179 20 2 3 79 4 171
3 123 -1 173 -6 187 -15z m-1340 -25 c-3 -7 -5 -2 -5 12 0 14 2 19 5 13 2 -7
2 -19 0 -25z m-570 -95 c-2 -16 -4 -3 -4 27 0 30 2 43 4 28 2 -16 2 -40 0 -55z
m573 47 c0 -12 -20 -43 -45 -69 -30 -32 -43 -54 -39 -65 5 -14 -2 -16 -48 -16
-30 0 -83 -3 -117 -6 -74 -8 -77 0 -24 64 24 30 37 54 35 69 -2 13 2 23 8 23
6 0 10 -10 8 -22 -4 -30 15 -33 43 -4 30 30 116 46 130 25 7 -12 11 -11 26 4
22 22 23 21 23 -3z m-403 -32 c-3 -7 -5 -2 -5 12 0 14 2 19 5 13 2 -7 2 -19 0
-25z m2003 -20 c0 -51 -5 -47 -14 10 -4 29 -3 41 4 37 5 -3 10 -25 10 -47z
m47 20 c-3 -7 -5 -2 -5 12 0 14 2 19 5 13 2 -7 2 -19 0 -25z m-242 -44 c1 -16
5 -50 9 -75 l8 -46 -59 1 -58 1 3 49 c2 51 20 82 57 97 30 12 38 6 40 -27z
m82 -41 c-3 -10 -5 -2 -5 17 0 19 2 27 5 18 2 -10 2 -26 0 -35z m-1970 5 c-3
-8 -6 -5 -6 6 -1 11 2 17 5 13 3 -3 4 -12 1 -19z m140 -5 c-15 -16 -17 -16
-17 -1 0 9 6 18 13 21 20 7 22 -2 4 -20z m1890 -5 c-3 -8 -6 -5 -6 6 -1 11 2
17 5 13 3 -3 4 -12 1 -19z m73 -58 c0 -33 -4 -60 -9 -60 -7 0 -8 25 -2 108 1
6 3 12 6 12 3 0 5 -27 5 -60z m-1977 25 c4 -8 2 -17 -3 -20 -6 -4 -10 3 -10
14 0 25 6 27 13 6z m1563 -11 c0 -10 11 -21 29 -27 17 -5 31 -11 33 -12 1 -1
13 -78 27 -172 13 -94 27 -177 30 -184 6 -18 23 -163 36 -304 5 -60 12 -123
14 -140 3 -16 8 -74 11 -127 5 -87 4 -98 -14 -116 -22 -22 -84 -33 -182 -31
-80 1 -314 -19 -355 -31 -50 -15 -165 -19 -515 -21 -228 -1 -360 -5 -414 -14
-76 -13 -81 -13 -117 8 -54 30 -79 118 -63 214 l8 48 7 -45 c4 -25 8 -74 8
-110 1 -45 4 -60 11 -50 12 19 6 166 -9 204 -9 23 -14 26 -26 16 -18 -15 -22
11 -30 204 -3 82 -10 169 -15 195 -5 25 -11 141 -12 258 l-3 211 54 7 c64 8
318 8 330 0 28 -17 601 -20 704 -3 40 6 92 12 117 14 25 2 77 7 115 12 39 5
104 10 146 11 66 1 77 -1 75 -15z m-773 -1 c-13 -2 -33 -2 -45 0 -13 2 -3 4
22 4 25 0 35 -2 23 -4z m831 -8 c7 -19 -3 -19 -28 0 -19 15 -19 15 1 15 11 0
23 -7 27 -15z m204 -125 l0 -35 -8 30 c-4 17 -8 46 -8 65 l0 35 8 -30 c4 -16
8 -46 8 -65z m-78 44 c6 -14 10 -62 10 -107 0 -45 7 -104 14 -132 13 -47 13
-41 10 100 -3 98 -1 143 5 130 5 -11 27 -111 48 -222 31 -159 37 -205 27 -215
-9 -10 -9 -26 1 -73 10 -46 14 -52 14 -27 1 18 5 31 10 28 12 -8 20 -192 11
-246 -4 -25 -11 -65 -15 -89 -7 -39 -6 -44 8 -38 10 4 17 2 17 -3 0 -6 -5 -10
-11 -10 -6 0 -17 -7 -26 -15 -19 -20 -30 -11 -13 10 7 9 10 18 7 22 -4 3 -9
-1 -13 -10 -3 -9 -21 -28 -40 -42 l-34 -26 0 50 c0 42 3 51 18 51 16 1 16 2 1
13 -18 14 -39 123 -39 206 l0 50 38 3 37 3 3 65 c3 82 -5 94 -60 95 l-43 0 -3
43 c-3 37 0 44 17 49 24 6 18 23 -8 23 -21 0 -34 53 -51 202 -6 48 -13 93 -15
100 -5 13 26 34 53 37 7 0 17 -11 22 -25z m157 -66 c-2 -13 -4 -5 -4 17 -1 22
1 32 4 23 2 -10 2 -28 0 -40z m-70 -50 c-3 -7 -5 -2 -5 12 0 14 2 19 5 13 2
-7 2 -19 0 -25z m-1846 -8 c5 0 9 -51 9 -112 0 -62 7 -171 15 -243 8 -71 12
-131 10 -134 -3 -2 -16 21 -31 52 -21 47 -30 57 -50 57 -15 0 -24 6 -24 15 0
8 7 15 16 15 13 0 15 7 10 31 -3 17 -6 56 -6 85 0 40 -4 54 -14 54 -24 0 -30
21 -7 27 12 3 21 13 21 25 0 11 7 35 16 53 12 25 13 38 5 54 -15 27 -14 34 5
27 9 -3 20 -6 25 -6z m1906 -22 c-3 -8 -6 -5 -6 6 -1 11 2 17 5 13 3 -3 4 -12
1 -19z m170 -235 c-3 -10 -5 -4 -5 12 0 17 2 24 5 18 2 -7 2 -21 0 -30z m-252
-145 l7 -48 -36 0 c-33 0 -36 3 -36 28 0 15 -3 37 -6 49 -5 18 -1 25 17 32 32
12 46 -3 54 -61z m-2048 10 c-3 -8 -6 -5 -6 6 -1 11 2 17 5 13 3 -3 4 -12 1
-19z m2260 -110 c-3 -8 -6 -5 -6 6 -1 11 2 17 5 13 3 -3 4 -12 1 -19z m-1990
-220 c-3 -8 -6 -5 -6 6 -1 11 2 17 5 13 3 -3 4 -12 1 -19z m1773 -139 c0 -5
-5 -7 -10 -4 -6 3 -14 -5 -19 -18 -12 -30 -31 -44 -31 -23 0 18 34 56 50 56 6
0 10 -5 10 -11z m-1864 -36 c-11 -11 -19 6 -11 24 8 17 8 17 12 0 3 -10 2 -21
-1 -24z m21 -5 c-3 -7 -5 -2 -5 12 0 14 2 19 5 13 2 -7 2 -19 0 -25z m1830
-45 c-3 -10 -5 -4 -5 12 0 17 2 24 5 18 2 -7 2 -21 0 -30z m-195 10 c4 -2 4
-13 -1 -25 -12 -33 -92 -47 -276 -48 -88 0 -178 -5 -200 -10 -65 -14 -257 -24
-445 -21 -96 1 -213 -2 -259 -8 -100 -13 -127 -8 -146 29 -13 25 -13 29 2 34
8 4 207 9 442 11 234 3 453 10 486 16 169 29 365 41 397 22z m123 7 c3 -5 1
-10 -5 -10 -12 0 -71 -39 -82 -55 -5 -7 -8 -7 -9 0 0 6 -2 18 -4 28 -2 9 3 24
12 32 16 17 79 20 88 5z m17 -55 c7 -8 -70 -84 -114 -112 l-38 -23 0 29 c0 40
-9 61 -26 61 -13 0 -13 -19 1 -66 13 -46 -81 -54 -625 -57 -36 -1 -128 3 -205
7 -99 6 -162 5 -215 -4 -72 -11 -112 -14 -155 -11 -23 1 -62 58 -49 71 25 23
190 29 509 19 56 -2 279 13 298 20 21 7 101 12 287 15 47 1 101 7 121 14 26 9
44 10 62 3 21 -8 34 -6 62 10 19 12 42 18 50 15 8 -3 15 -1 15 4 0 11 13 13
22 5z m-1592 -15 c0 -5 -4 -10 -10 -10 -5 0 -10 5 -10 10 0 6 5 10 10 10 6 0
10 -4 10 -10z m1810 -30 c6 -10 17 -17 24 -14 8 3 30 -11 50 -30 19 -20 42
-36 50 -36 11 0 15 -23 20 -107 10 -184 19 -811 12 -847 -6 -29 -10 -33 -31
-28 -14 2 -25 8 -25 12 0 4 -19 4 -42 -1 -24 -4 -54 -8 -68 -8 -27 1 -22 4 23
13 48 11 20 29 -34 22 -34 -5 -49 -3 -49 5 0 6 -7 9 -15 5 -9 -3 -15 0 -15 10
0 8 7 17 15 20 23 9 18 27 -15 49 -27 18 -51 54 -64 98 -8 25 -26 12 -26 -18
0 -13 -4 -27 -10 -30 -11 -7 -15 119 -12 345 2 149 -1 180 -22 180 -19 0 -24
-19 -15 -55 8 -31 7 -621 -1 -628 -3 -2 -27 -7 -54 -11 -38 -5 -47 -3 -43 7
16 42 -38 165 -90 207 -55 45 -151 62 -230 41 -97 -26 -194 -146 -197 -242
l-1 -41 -80 7 c-44 3 -235 8 -425 11 -303 5 -408 8 -471 13 -15 1 -18 26 -24
198 -3 109 -10 221 -14 250 -4 28 -3 79 2 113 8 51 13 61 33 66 13 3 28 3 34
-1 6 -4 73 -6 148 -4 207 5 433 -1 451 -10 8 -5 22 -6 31 -1 8 4 92 10 185 14
213 8 323 24 538 77 105 26 192 35 201 20 4 -6 20 -11 36 -11 36 0 128 -35
155 -59 11 -10 40 -24 64 -31 23 -8 50 -24 58 -37 10 -15 25 -23 44 -23 41 0
37 24 -8 43 -21 9 -56 28 -78 41 -22 14 -47 28 -55 32 -8 4 -42 19 -75 34 -33
15 -77 33 -98 40 -31 10 -38 16 -34 32 5 18 4 19 -12 4 -34 -31 -33 -16 1 27
19 23 40 53 47 65 19 35 22 22 6 -23 -21 -63 -6 -62 26 2 25 50 28 53 23 23
-4 -19 -14 -50 -22 -67 -9 -18 -12 -36 -8 -40 11 -11 40 12 48 38 4 13 15 53
24 88 10 36 29 76 41 89 23 25 29 47 16 55 -13 8 -108 -49 -108 -64 0 -17 -30
-49 -47 -49 -6 0 -8 -3 -5 -7 4 -3 -3 -11 -15 -17 -13 -7 -32 -37 -48 -76 -24
-59 -29 -65 -56 -66 -17 0 -36 -4 -43 -8 -7 -4 -14 -6 -16 -4 -6 5 81 127 115
163 29 30 39 55 21 55 -10 0 -46 -52 -43 -62 1 -3 -12 -12 -28 -20 -17 -7 -30
-19 -30 -27 0 -14 -76 -121 -86 -121 -3 0 -2 5 1 10 3 6 -1 10 -10 10 -21 0
25 67 84 125 23 21 41 44 41 50 0 12 84 75 99 75 5 0 15 10 23 21 11 17 27 22
78 26 36 3 67 7 69 9 12 12 52 1 61 -16z m-1930 -76 c0 -14 -4 -23 -9 -19 -11
6 -10 45 1 45 4 0 8 -12 8 -26z m263 -27 c5 -32 4 -37 -8 -27 -20 16 -51 -18
-65 -72 -7 -24 -14 -46 -17 -50 -2 -5 -1 -8 4 -8 4 0 21 23 36 51 47 83 41 49
-8 -48 -51 -101 -53 -113 -25 -113 14 0 20 7 20 23 0 25 47 140 71 174 12 18
23 22 55 18 21 -2 40 -4 41 -4 1 -1 -18 -44 -43 -97 -45 -97 -50 -114 -36
-114 4 0 25 37 46 83 44 97 64 126 91 131 11 2 51 9 88 16 37 7 70 10 73 7 3
-3 1 -14 -5 -25 -6 -12 -11 -29 -11 -39 1 -12 8 -6 23 19 l22 38 90 0 c50 0
117 -5 150 -10 41 -7 90 -7 158 1 53 6 108 8 122 5 22 -6 24 -9 15 -27 -19
-35 -5 -44 19 -11 32 45 45 40 21 -9 l-21 -40 21 11 c12 7 29 25 38 41 12 20
25 29 44 29 14 0 35 3 45 7 17 6 17 5 2 -13 -9 -10 -19 -27 -22 -37 -4 -11
-12 -15 -18 -11 -8 4 -9 3 -5 -5 4 -6 -7 -28 -27 -51 -18 -22 -42 -57 -53 -79
-23 -48 -32 -51 -189 -61 -128 -7 -145 -6 -145 16 0 19 48 104 81 142 30 33
36 52 20 52 -12 0 -81 -102 -81 -119 0 -6 -4 -11 -8 -11 -14 0 -33 -51 -27
-71 6 -17 1 -19 -45 -19 l-52 0 27 46 c37 63 25 66 -15 4 -21 -33 -39 -50 -52
-50 -15 0 -19 5 -15 20 7 26 -10 26 -18 0 -5 -15 -13 -19 -33 -17 -16 3 -26
10 -24 18 7 30 64 145 88 177 14 18 24 38 21 45 -5 16 -71 -88 -109 -170 l-28
-63 -75 0 c-40 0 -76 4 -79 8 -2 4 4 27 15 51 10 24 19 47 19 52 0 5 16 32 35
59 36 51 43 70 25 70 -12 0 -48 -64 -91 -162 -32 -74 -36 -78 -66 -78 -18 0
-33 3 -33 6 0 12 70 156 90 183 12 18 16 32 10 36 -13 8 -63 -73 -98 -157
l-27 -68 -42 0 c-29 0 -43 4 -43 13 0 7 18 56 40 107 22 51 40 95 40 97 0 2
-6 3 -14 3 -13 0 -37 -40 -51 -90 -4 -14 -16 -48 -27 -76 l-19 -52 -79 2 c-44
0 -80 2 -80 3 0 10 40 86 62 120 16 23 28 46 28 51 0 5 11 22 25 38 14 16 25
39 25 50 0 16 8 23 30 28 25 4 30 10 30 33 0 38 16 17 23 -30z m-103 22 c0
-13 -30 -19 -53 -10 -12 4 -29 6 -37 4 -11 -3 -11 -2 -3 4 15 11 93 13 93 2z
m1630 -27 c0 -4 -9 -13 -20 -20 -24 -15 -26 -9 -4 12 17 18 24 20 24 8z
m-1655 -59 c-14 -26 -48 -82 -75 -123 -27 -41 -49 -83 -49 -93 -1 -9 -19 -30
-42 -45 -22 -15 -64 -46 -94 -69 -51 -40 -53 -41 -59 -20 -5 18 -8 20 -16 7
-5 -8 -10 -25 -10 -37 0 -12 -9 -27 -20 -33 -16 -9 -20 -8 -20 5 0 8 -4 15
-10 15 -5 0 -10 -7 -10 -15 0 -26 -2 -29 -34 -53 l-31 -23 -3 78 c-1 43 1 121
5 173 7 81 11 95 27 98 11 3 16 0 12 -7 -4 -6 -4 -11 1 -11 4 0 19 16 32 35
13 19 32 37 42 40 10 4 19 11 19 16 0 6 -8 6 -20 -1 -13 -7 -20 -7 -20 -1 0
13 38 34 49 27 5 -3 39 8 75 24 71 32 254 75 274 64 2 -1 -8 -24 -23 -51z
m1387 17 c-24 -17 -39 -35 -36 -43 3 -8 -5 -25 -16 -38 -16 -18 -20 -19 -16
-6 4 11 2 16 -5 12 -6 -4 -8 -13 -5 -21 7 -18 -43 -91 -67 -97 -14 -4 -17 -1
-11 16 6 22 6 22 -19 -2 -14 -13 -31 -21 -37 -19 -10 3 48 88 127 186 15 19
58 34 117 41 5 1 -10 -12 -32 -29z m-135 -18 c-10 -10 -17 -23 -17 -28 0 -6
-8 -19 -17 -30 -23 -25 -50 -70 -69 -111 -11 -25 -20 -33 -41 -33 l-27 0 29
30 c27 29 24 44 -4 18 -23 -21 -3 9 62 95 40 51 66 77 80 77 19 0 19 -1 4 -18z
m-1357 -300 c0 -15 -2 -15 -10 -2 -13 20 -13 33 0 25 6 -3 10 -14 10 -23z
m-86 -93 c-8 -46 -22 -117 -29 -157 -10 -51 -22 -82 -41 -105 l-27 -32 6 60
c4 33 10 105 13 160 4 55 11 106 18 114 12 16 68 52 73 47 2 -1 -4 -40 -13
-87z m43 59 c-3 -7 -5 -2 -5 12 0 14 2 19 5 13 2 -7 2 -19 0 -25z m-141 -115
c-18 -193 -35 -295 -48 -287 -5 3 -7 18 -4 32 3 15 8 83 11 152 6 115 19 170
41 170 4 0 4 -30 0 -67z m151 -30 c-2 -16 -4 -3 -4 27 0 30 2 43 4 28 2 -16 2
-40 0 -55z m-223 -10 c-3 -27 -12 -82 -20 -123 -8 -41 -14 -81 -14 -89 0 -25
15 -1 27 42 l11 42 1 -66 c1 -48 -3 -70 -14 -79 -13 -11 -15 -8 -15 14 0 14
-5 26 -11 26 -7 0 -8 39 -4 128 6 98 11 130 23 140 22 17 22 17 16 -35z m205
-53 c-1 -48 -3 -58 -9 -40 -12 38 -12 139 0 120 5 -8 9 -44 9 -80z m-264 6
c-7 -44 -25 -65 -25 -29 0 20 22 84 28 79 2 -2 0 -25 -3 -50z m312 -68 c-2
-18 -4 -4 -4 32 0 36 2 50 4 33 2 -18 2 -48 0 -65z m-331 -73 l-11 -70 -3 58
c-2 35 2 64 9 73 6 8 13 13 14 12 2 -2 -2 -34 -9 -73z m264 28 c0 -20 -3 -24
-11 -16 -7 7 -9 19 -6 27 10 24 17 19 17 -11z m1443 -14 c44 -12 102 -59 123
-101 9 -17 19 -52 23 -79 l8 -49 -88 0 c-80 0 -88 2 -94 21 -4 13 -1 27 9 38
22 24 20 50 -6 78 -44 47 -95 21 -84 -44 9 -47 10 -92 4 -98 -10 -11 -100 -17
-151 -11 l-54 7 3 34 c4 61 47 128 109 171 60 42 126 53 198 33z m-1363 -99
c0 -10 -4 -22 -10 -25 -6 -4 -10 7 -10 25 0 18 4 29 10 25 6 -3 10 -15 10 -25z
m1710 -68 c0 -5 -7 -17 -15 -28 -14 -18 -14 -17 -4 9 12 27 19 34 19 19z
m-1740 -42 c0 -5 -5 -10 -11 -10 -5 0 -7 5 -4 10 3 6 8 10 11 10 2 0 4 -4 4
-10z m2120 -20 c0 -5 -5 -10 -11 -10 -5 0 -7 5 -4 10 3 6 8 10 11 10 2 0 4 -4
4 -10z m-602 -77 c-10 -2 -26 -2 -35 0 -10 3 -2 5 17 5 19 0 27 -2 18 -5z"/>
<path d="M721 3004 c0 -11 3 -14 6 -6 3 7 2 16 -1 19 -3 4 -6 -2 -5 -13z"/>
<path d="M1025 2979 c-12 -54 -13 -74 -4 -85 6 -8 8 -25 5 -38 -3 -14 -2 -28
4 -31 6 -4 11 13 12 42 4 121 5 139 12 161 4 13 3 22 -3 22 -5 0 -17 -32 -26
-71z"/>
<path d="M991 2814 c0 -11 3 -14 6 -6 3 7 2 16 -1 19 -3 4 -6 -2 -5 -13z"/>
<path d="M1146 2998 c-9 -34 -7 -60 3 -54 11 7 20 76 10 76 -4 0 -9 -10 -13
-22z"/>
<path d="M1287 2893 c-4 -3 -7 -11 -7 -17 0 -6 5 -5 12 2 6 6 9 14 7 17 -3 3
-9 2 -12 -2z"/>
<path d="M2072 2980 c0 -14 2 -19 5 -12 2 6 2 18 0 25 -3 6 -5 1 -5 -13z"/>
<path d="M1798 2651 c-53 -9 -99 -19 -102 -21 -13 -13 12 -76 34 -88 36 -19
263 -9 297 13 35 23 29 69 -9 73 -16 2 -28 9 -28 18 0 9 -11 14 -34 14 -19 0
-40 2 -48 4 -7 2 -57 -3 -110 -13z m172 -29 c22 -9 23 -11 7 -17 -21 -9 -204
-1 -214 9 -11 11 1 15 67 24 63 8 87 5 140 -16z m-55 -52 c-45 -11 -163 -11
-170 0 -4 6 30 10 97 9 69 -1 93 -4 73 -9z"/>
<path d="M924 2602 c-12 -9 -27 -28 -34 -42 -7 -13 -24 -33 -37 -43 -27 -22
-31 -50 -6 -45 10 2 24 17 32 33 7 17 27 44 43 62 34 35 35 62 2 35z"/>
<path d="M986 2598 c-57 -81 -76 -118 -60 -118 15 0 44 22 39 30 -3 6 8 28 26
50 23 29 30 43 22 51 -8 8 -16 4 -27 -13z"/>
<path d="M1057 2598 c-7 -13 -28 -45 -45 -73 -17 -27 -30 -51 -28 -52 8 -8 36
11 36 23 0 8 9 25 21 37 30 32 51 75 39 82 -5 3 -15 -5 -23 -17z"/>
<path d="M1105 2568 c-38 -57 -43 -78 -20 -78 8 0 15 8 15 18 0 10 14 31 30
47 29 28 40 65 20 65 -5 0 -25 -24 -45 -52z"/>
<path d="M1210 2612 c0 -4 -16 -31 -35 -61 -39 -58 -42 -71 -20 -71 9 0 21 12
27 28 7 15 23 40 35 55 26 33 30 57 8 57 -8 0 -15 -3 -15 -8z"/>
<path d="M1262 2568 c-30 -53 -32 -68 -9 -68 12 1 57 85 57 108 0 26 -19 10
-48 -40z"/>
<path d="M833 2603 c-7 -2 -13 -9 -13 -15 0 -6 -13 -32 -30 -59 -16 -27 -26
-51 -21 -53 11 -7 21 4 21 24 0 9 16 31 35 50 44 43 48 70 8 53z"/>
<path d="M1388 2453 c6 -2 18 -2 25 0 6 3 1 5 -13 5 -14 0 -19 -2 -12 -5z"/>
<path d="M624 2572 c-30 -25 -47 -59 -34 -67 13 -8 80 54 80 73 0 17 -21 14
-46 -6z"/>
<path d="M672 2540 c-43 -52 -22 -65 23 -13 37 41 42 53 23 53 -7 0 -28 -18
-46 -40z"/>
<path d="M1728 2348 c-35 -10 -87 -18 -116 -18 -30 0 -79 -8 -110 -17 -46 -13
-99 -16 -277 -16 -121 0 -251 5 -290 11 -38 6 -129 13 -202 15 -169 6 -165 11
-157 -165 5 -109 19 -221 30 -240 2 -3 29 0 60 7 31 7 74 10 95 8 31 -4 43 -2
53 12 11 15 25 16 147 10 210 -12 374 -8 497 10 64 9 198 18 310 20 108 2 200
4 205 4 17 2 -3 163 -24 186 -5 5 -9 29 -9 53 0 24 -9 65 -20 91 l-21 47 -54
0 c-30 0 -82 -8 -117 -18z m133 -39 c15 -11 30 -27 33 -37 10 -32 46 -202 46
-214 -1 -31 -19 -37 -125 -44 l-110 -6 -12 41 c-7 22 -13 49 -13 59 0 22 -42
47 -64 39 -25 -10 -19 -46 9 -57 14 -5 30 -21 35 -35 13 -35 13 -37 -9 -30
-11 3 -22 2 -25 -3 -3 -5 -43 -13 -88 -16 -46 -4 -103 -12 -128 -18 -27 -7
-176 -12 -367 -13 l-323 -1 0 24 c0 25 -27 220 -35 259 -3 14 -10 20 -19 17
-17 -6 -13 -68 10 -198 18 -99 19 -93 -15 -88 -28 4 -28 5 -35 90 -4 48 -9
106 -12 130 -4 23 -3 53 0 67 l6 25 153 -6 c83 -3 166 -10 182 -16 17 -5 122
-11 234 -14 160 -3 221 0 275 12 39 9 113 20 165 25 52 5 99 13 105 18 31 25
84 21 127 -10z m-1254 -281 c-3 -7 -5 -2 -5 12 0 14 2 19 5 13 2 -7 2 -19 0
-25z"/>
<path d="M1526 2189 c8 -90 18 -119 40 -119 15 0 15 2 -2 21 -15 17 -19 36
-19 92 0 49 -4 72 -13 75 -11 3 -12 -11 -6 -69z"/>
<path d="M734 2199 c-3 -6 -2 -15 4 -21 6 -6 11 -2 15 11 5 22 -7 29 -19 10z"/>
<path d="M1160 2137 c0 -80 14 -113 43 -101 22 8 33 50 17 69 -14 17 -40 20
-40 5 0 -5 5 -10 10 -10 6 0 10 -7 10 -15 0 -18 -17 -20 -23 -2 -2 6 -2 38 1
70 3 39 1 57 -7 57 -7 0 -11 -25 -11 -73z"/>
<path d="M767 2155 c2 -7 0 -16 -6 -20 -16 -9 -13 -37 8 -64 15 -19 23 -22 49
-16 37 8 35 25 -2 18 -20 -4 -26 0 -31 20 -9 34 0 46 26 40 16 -4 20 -2 17 8
-2 7 -18 16 -35 20 -23 4 -30 3 -26 -6z"/>
<path d="M1117 2164 c-8 -8 1 -24 14 -24 5 0 9 7 9 15 0 15 -12 20 -23 9z"/>
<path d="M892 2149 c-26 -10 -28 -31 -7 -49 21 -17 19 -30 -6 -30 -11 0 -18
-4 -15 -8 8 -13 66 -2 66 13 0 6 -9 20 -20 30 -22 20 -18 35 11 35 10 0 19 4
19 8 0 11 -20 11 -48 1z"/>
<path d="M1718 2149 c-10 -5 -18 -21 -18 -34 0 -42 70 -62 90 -26 14 27 13 37
-6 55 -18 18 -41 20 -66 5z m42 -34 c0 -8 -7 -15 -15 -15 -16 0 -20 12 -8 23
11 12 23 8 23 -8z"/>
<path d="M1279 2143 c-21 -5 -43 -47 -36 -67 9 -22 54 -49 72 -42 22 8 19 26
-4 26 -28 0 -35 17 -11 25 12 4 20 15 20 30 0 24 -14 34 -41 28z"/>
<path d="M967 2125 c-24 -24 -7 -69 27 -73 20 -3 27 0 24 10 -3 7 -11 13 -19
13 -23 0 -23 36 0 42 12 3 21 9 21 14 0 14 -37 10 -53 -6z"/>
<path d="M1428 2129 c-21 -12 -24 -42 -5 -57 18 -16 107 -12 107 5 0 7 -4 13
-10 13 -5 0 -12 11 -16 25 -5 19 -13 25 -33 25 -14 0 -34 -5 -43 -11z m31 -35
c-15 -18 -22 -13 -13 10 3 9 10 13 16 10 5 -3 4 -12 -3 -20z"/>
<path d="M1037 2123 c-7 -11 31 -98 39 -90 9 9 12 87 3 87 -4 0 -14 3 -22 6
-8 3 -17 1 -20 -3z"/>
<path d="M1114 2105 c-10 -24 5 -65 22 -65 11 0 14 5 10 16 -3 9 -6 27 -6 40
0 27 -17 33 -26 9z"/>
<path d="M1890 1881 c-28 -15 -36 -25 -38 -53 -6 -72 76 -121 131 -78 29 23
33 44 16 103 -9 35 -13 38 -36 32 -15 -3 -29 -2 -33 4 -4 7 -18 4 -40 -8z m86
-58 c8 -44 -12 -69 -50 -59 -33 8 -55 50 -40 74 12 18 51 31 71 24 7 -2 15
-20 19 -39z"/>
<path d="M1518 1874 c-5 -4 -205 -12 -428 -15 -52 -1 -57 -7 -52 -53 4 -31 7
-34 46 -40 23 -4 64 -2 92 3 41 8 190 20 299 25 19 1 31 7 33 18 3 15 -4 16
-55 12 -32 -2 -101 -7 -153 -10 -52 -3 -117 -9 -145 -13 -56 -8 -85 -4 -85 10
0 5 17 9 38 9 20 0 64 6 97 14 42 9 98 11 190 7 125 -6 130 -7 127 -27 -2 -13
4 -24 13 -28 21 -8 37 2 28 17 -4 6 -6 26 -4 44 2 27 -1 33 -17 33 -10 0 -21
-3 -24 -6z"/>
<path d="M684 1829 c-22 -8 -64 -62 -64 -82 0 -30 41 -67 73 -67 47 1 97 49
97 94 0 36 -66 70 -106 55z m56 -27 c30 -25 21 -60 -22 -88 -31 -19 -34 -20
-50 -4 -25 23 -22 57 7 85 29 30 36 31 65 7z"/>
<path d="M1749 1755 c-3 -3 -55 -12 -115 -20 -60 -8 -116 -18 -124 -21 -17 -7
-236 -22 -445 -30 -162 -6 -185 -9 -185 -28 0 -11 9 -12 38 -6 20 4 111 11
202 14 91 3 191 8 223 11 66 6 80 -11 15 -19 -173 -20 -246 -27 -338 -32 -143
-8 -145 -9 -149 -29 -2 -12 2 -16 11 -12 15 5 217 22 230 19 10 -3 258 27 277
33 9 2 99 9 200 15 177 9 217 18 195 40 -6 6 -22 6 -44 0 -46 -14 -282 -22
-255 -9 11 5 83 17 160 27 107 14 140 21 140 32 0 15 -26 26 -36 15z"/>
<path d="M1570 1600 c-96 -4 -197 -13 -225 -20 -44 -10 -164 -16 -412 -19 -58
-1 -73 -4 -73 -16 0 -12 8 -14 40 -9 45 7 105 8 291 5 78 -1 137 3 155 10 17
7 113 14 229 18 168 5 200 8 200 21 0 18 5 18 -205 10z"/>
<path d="M1645 1534 c-38 -7 -115 -18 -170 -24 -55 -7 -111 -14 -125 -16 -14
-3 -123 -5 -242 -6 -120 0 -218 -4 -218 -9 0 -14 38 -20 82 -14 24 3 63 2 88
-3 56 -10 248 0 395 22 157 23 283 33 299 24 12 -7 45 17 35 26 -13 11 -84 11
-144 0z"/>
<path d="M1615 1443 c-232 -30 -296 -34 -497 -28 -124 4 -208 2 -208 -3 0 -5
89 -13 198 -17 243 -11 224 -11 417 9 88 9 182 18 210 19 38 1 51 6 53 19 4
20 -31 20 -173 1z"/>
<path d="M2240 1705 c0 -21 -5 -25 -30 -25 -23 0 -30 -4 -30 -20 0 -11 5 -20
10 -20 6 0 10 5 10 11 0 6 5 9 11 7 18 -6 41 -89 36 -126 -5 -30 -4 -32 10
-21 12 11 14 25 7 74 -4 33 -6 79 -5 103 1 24 -3 42 -9 42 -5 0 -10 -11 -10
-25z"/>
<path d="M1977 727 c-19 -39 -13 -74 15 -82 24 -8 65 18 80 50 9 20 8 29 -7
45 -10 11 -30 20 -45 20 -21 0 -31 -8 -43 -33z m78 -28 c-4 -5 -15 -14 -26
-20 -20 -10 -20 -10 -4 15 15 23 44 28 30 5z"/>
<path d="M557 682 c-27 -29 -22 -82 10 -109 36 -31 46 -29 66 12 21 44 21 61
2 69 -8 3 -15 12 -15 21 0 8 -4 15 -9 15 -5 0 -16 2 -23 5 -8 3 -22 -3 -31
-13z m16 -37 c-3 -9 -8 -14 -10 -11 -3 3 -2 9 2 15 9 16 15 13 8 -4z m41 -43
c-4 -12 -13 -22 -20 -22 -17 0 -18 14 -3 42 14 25 30 11 23 -20z"/>
<path d="M727 473 c-12 -11 -7 -67 7 -85 11 -15 25 -16 119 -10 96 7 213 3
430 -12 72 -5 77 -4 77 15 0 18 -6 20 -62 19 -128 -1 -543 7 -542 11 7 34 5
34 297 34 275 0 287 -1 301 -20 17 -24 34 -13 38 25 2 20 -1 24 -17 22 -11 -1
-27 -2 -35 -2 -451 8 -608 9 -613 3z"/>
<path d="M1091 319 c-92 -11 -104 -19 -87 -61 18 -41 34 -49 82 -38 21 5 58
10 82 10 l43 0 -3 48 c-3 55 -3 54 -117 41z m69 -59 c0 -8 -101 -20 -110 -13
-2 2 1 8 8 12 17 10 102 11 102 1z"/>
<path d="M750 314 c0 -2 5 -26 11 -54 10 -49 21 -61 35 -39 4 6 29 9 62 7 l55
-3 13 39 c8 21 11 42 8 47 -5 8 -184 11 -184 3z m138 -41 c3 -23 -19 -31 -70
-24 -57 7 -19 49 42 47 18 -1 26 -7 28 -23z"/>
<path d="M1479 1022 c-9 -9 -24 -33 -34 -52 -10 -18 -24 -40 -32 -48 -19 -19
-46 -73 -39 -79 3 -3 13 9 23 26 10 18 39 61 66 96 26 35 47 66 47 69 0 11
-15 5 -31 -12z"/>
<path d="M1085 1022 c-11 -8 -59 -92 -52 -92 6 0 69 91 65 95 -2 2 -8 1 -13
-3z"/>
<path d="M1220 988 c-11 -18 -20 -37 -20 -43 1 -13 60 52 60 65 0 21 -21 9
-40 -22z"/>
<path d="M1291 981 c-27 -37 -27 -64 0 -31 30 38 41 60 30 60 -5 0 -19 -13
-30 -29z"/>
<path d="M1547 972 c-16 -17 -47 -83 -47 -99 0 -4 16 19 36 50 36 58 42 83 11
49z"/>
<path d="M1147 863 c-4 -3 -7 -11 -7 -17 0 -6 5 -5 12 2 6 6 9 14 7 17 -3 3
-9 2 -12 -2z"/>
<path d="M500 1044 c-8 -8 -15 -41 -16 -72 l-4 -57 27 45 c14 25 32 52 39 61
8 8 14 21 14 27 0 17 -45 15 -60 -4z"/>
</g>
</svg>
