<?xml version="1.0" standalone="no"?>
<!DOCTYPE svg PUBLIC "-//W3C//DTD SVG 20010904//EN"
 "http://www.w3.org/TR/2001/REC-SVG-20010904/DTD/svg10.dtd">
<svg version="1.0" xmlns="http://www.w3.org/2000/svg"
 width="230.000000pt" height="477.000000pt" viewBox="0 0 230.000000 477.000000"
 preserveAspectRatio="xMidYMid meet">
<metadata>
Created by potrace 1.16, written by Peter Selinger 2001-2019
</metadata>
<g transform="translate(0.000000,477.000000) scale(0.100000,-0.100000)"
fill="#000000" stroke="none">
<path d="M1403 4754 c-10 -26 58 -84 99 -85 144 -4 181 0 202 21 19 19 20 22
6 48 l-16 27 -142 3 c-126 2 -143 1 -149 -14z"/>
<path d="M166 4753 c-11 -11 -6 -23 9 -23 8 0 15 4 15 9 0 13 -16 22 -24 14z"/>
<path d="M2210 4715 c-9 -11 -10 -19 -3 -26 7 -7 14 -5 23 6 9 11 10 19 3 26
-7 7 -14 5 -23 -6z"/>
<path d="M1985 4710 c-3 -5 1 -10 9 -10 9 0 16 5 16 10 0 6 -4 10 -9 10 -6 0
-13 -4 -16 -10z"/>
<path d="M1080 4368 c-379 -23 -525 -29 -739 -33 -151 -2 -237 -7 -244 -14 -6
-6 -19 -11 -30 -11 -11 0 -24 -13 -33 -37 -13 -31 -16 -96 -15 -417 1 -210 5
-399 10 -421 6 -21 6 -44 2 -50 -4 -5 -4 -57 0 -115 3 -58 4 -198 1 -312 -3
-113 0 -309 6 -435 11 -224 28 -984 24 -1053 -11 -151 -12 -418 -3 -585 6
-110 12 -325 13 -478 0 -153 5 -280 10 -283 5 -3 6 -14 3 -24 -12 -38 19 -50
133 -51 59 -1 127 -3 152 -4 25 -1 90 2 145 7 242 22 584 30 1140 25 181 -2
348 1 385 7 36 5 88 10 115 10 30 1 57 7 66 16 15 13 14 18 -7 51 -21 34 -24
79 -5 79 20 0 33 368 26 710 -11 530 -10 693 4 1045 8 176 15 428 17 560 2
132 9 402 15 600 18 562 15 1184 -6 1186 -5 1 -16 1 -23 0 -8 -1 -24 4 -36 12
-13 9 -38 13 -66 11 -79 -7 -419 -3 -595 6 -191 11 -270 10 -465 -2z m158 -15
c-10 -2 -28 -2 -40 0 -13 2 -5 4 17 4 22 1 32 -1 23 -4z m135 0 c-13 -2 -35
-2 -50 0 -16 2 -5 4 22 4 28 0 40 -2 28 -4z m-230 -10 c-7 -2 -19 -2 -25 0 -7
3 -2 5 12 5 14 0 19 -2 13 -5z m986 -120 c6 -31 11 -65 11 -75 0 -11 6 -26 14
-33 9 -9 17 -49 21 -107 10 -133 7 -1028 -4 -1313 -5 -132 -12 -323 -15 -425
-10 -304 -28 -580 -38 -580 -5 0 -4 -10 3 -22 8 -14 9 -52 5 -112 -3 -50 -9
-198 -12 -329 -5 -151 -11 -240 -18 -246 -6 -5 -47 -11 -91 -14 -176 -12 -220
-17 -223 -27 -2 -5 -8 -10 -13 -10 -12 0 -4 62 11 90 6 10 10 29 10 42 0 13 6
32 14 43 7 11 16 46 20 77 7 51 12 62 48 93 27 23 36 35 25 35 -14 0 -15 5 -7
26 6 14 9 39 9 57 -2 36 18 184 26 197 10 15 -20 66 -61 103 -28 25 -54 38
-85 43 -24 4 -51 12 -59 18 -19 15 -74 33 -125 41 -22 4 -71 13 -110 22 -38 8
-116 15 -171 15 l-102 0 -15 55 c-14 47 -14 59 -3 82 8 14 17 45 21 69 5 29
15 48 31 59 27 18 32 48 8 57 -18 7 -29 2 -60 -26 l-22 -19 -4 68 c-5 79 3
118 32 145 11 10 20 30 20 43 0 13 4 26 9 29 14 9 73 10 108 1 29 -7 32 -5 35
21 2 18 11 33 26 39 39 17 26 58 -23 68 -16 4 -45 9 -62 13 -20 4 -33 2 -33
-4 0 -5 -14 -15 -31 -22 -16 -7 -28 -18 -25 -25 2 -7 -5 -28 -16 -46 -19 -30
-22 -32 -28 -14 -7 19 -7 19 -18 0 -9 -15 -11 -16 -12 -4 0 8 7 24 15 35 9 12
14 14 15 6 0 -7 4 -11 10 -7 5 3 7 12 3 20 -3 8 -1 15 4 15 6 0 15 11 21 25 7
16 20 25 34 26 l23 0 -24 10 c-13 5 -25 8 -26 7 -1 -2 -12 -20 -25 -41 -31
-52 -42 -37 -42 62 0 77 10 111 33 111 14 0 49 39 49 55 0 19 57 49 62 33 3
-7 10 -8 17 -3 9 5 12 21 7 51 -3 24 -1 46 4 49 16 10 11 22 -11 28 -11 3 -23
15 -26 26 -7 27 -13 26 -73 -6 -48 -27 -68 -63 -34 -63 11 0 14 -6 8 -22 -20
-69 -45 -55 -37 20 3 31 5 108 4 170 -3 94 -1 112 12 112 10 0 13 -7 10 -20
-7 -25 -4 -25 82 4 56 18 71 27 73 45 2 12 21 33 43 48 40 26 49 42 27 44 -24
2 -53 -3 -63 -11 -5 -4 -21 -10 -34 -12 -14 -1 -26 -9 -29 -16 -3 -9 3 -10 23
-2 66 25 54 0 -15 -31 -41 -18 -41 -18 -35 1 4 11 8 39 10 63 2 23 9 57 17 75
12 32 12 35 -15 54 -15 11 -24 24 -21 30 8 13 -25 48 -48 48 -10 0 -18 -7 -18
-15 0 -8 7 -15 15 -15 22 0 18 -18 -5 -25 -21 -7 -27 -21 -11 -27 5 -1 12 -17
15 -34 6 -24 3 -33 -10 -38 -9 -4 -19 -4 -23 -1 -6 7 -21 258 -15 264 3 3 37
6 77 8 82 4 187 38 187 60 0 9 -7 12 -17 9 -46 -13 -93 -17 -93 -8 0 10 58 34
128 52 32 8 42 15 40 28 -5 27 -87 29 -107 3 -17 -22 -91 -57 -91 -43 0 5 27
30 60 55 41 32 70 47 90 47 43 0 39 27 -4 35 -39 8 -78 -9 -70 -29 3 -8 -3
-19 -14 -25 -17 -9 -19 -7 -19 14 0 14 3 25 8 25 16 0 10 18 -21 68 -16 27
-30 56 -30 64 0 9 -12 24 -27 34 -16 10 -23 19 -15 22 17 5 15 27 -3 42 -8 7
-15 23 -15 36 0 12 -4 25 -9 28 -10 7 -21 -16 -21 -44 0 -9 -7 -23 -15 -30
-12 -10 -15 -10 -15 4 0 9 5 16 11 16 7 0 9 11 6 29 -4 20 -2 31 8 35 23 9 18
29 -6 23 -25 -7 -37 18 -21 43 11 19 7 30 -14 30 -6 0 -14 -10 -17 -22 -13
-53 -37 -105 -71 -150 -20 -27 -36 -58 -36 -69 0 -11 -6 -22 -14 -25 -8 -3
-17 -23 -21 -45 -8 -49 -20 -50 -36 -1 -14 45 -40 92 -51 92 -13 0 -8 -34 7
-54 8 -11 15 -31 15 -45 0 -25 0 -25 -29 9 -34 40 -46 35 -56 -22 -7 -35 -5
-39 24 -55 35 -20 41 -39 11 -39 -11 0 -20 4 -20 8 0 15 -31 8 -37 -8 -7 -18
55 -77 74 -70 6 3 17 -8 23 -24 7 -16 21 -32 31 -35 10 -4 19 -10 19 -15 0 -5
19 -18 43 -29 74 -35 89 -53 94 -108 4 -41 1 -55 -21 -87 -14 -21 -26 -43 -26
-47 0 -5 -7 -9 -15 -9 -8 0 -15 -7 -15 -16 0 -8 -4 -12 -10 -9 -25 16 6 100
33 90 11 -5 42 44 33 52 -2 2 -24 -10 -50 -27 -39 -27 -46 -36 -46 -65 0 -19
-4 -37 -10 -40 -6 -3 -10 -19 -10 -36 0 -16 -3 -29 -6 -29 -16 0 -34 33 -34
64 0 25 -6 38 -19 46 -31 16 -33 13 -27 -37 17 -151 33 -186 87 -197 19 -3 33
-13 36 -25 3 -11 12 -22 20 -25 11 -4 13 -1 8 14 -5 16 -2 20 14 20 12 0 21
-6 21 -14 0 -22 19 -30 35 -16 12 10 18 10 30 0 18 -15 10 -31 -11 -23 -14 5
-15 -7 -14 -88 3 -141 1 -161 -11 -153 -6 3 -8 17 -5 30 5 17 1 26 -13 34 -26
13 -42 13 -39 -1 2 -6 -3 -14 -9 -16 -8 -3 -13 3 -13 14 -1 17 -1 17 -11 -1
-9 -15 -7 -22 15 -41 28 -24 34 -45 14 -45 -25 1 -48 28 -49 56 0 29 0 29 -12
-6 -8 -24 -18 -35 -32 -35 -25 0 -33 35 -11 47 9 5 16 16 16 25 0 15 -2 15
-18 0 -17 -15 -19 -14 -31 27 -7 25 -18 43 -27 43 -18 0 -18 -23 0 -30 19 -8
32 -73 18 -90 -15 -17 -2 -34 30 -42 19 -5 28 -14 30 -33 3 -23 9 -28 43 -32
34 -4 40 -8 39 -28 -1 -18 4 -22 18 -19 13 4 18 0 18 -14 0 -12 7 -19 20 -19
18 0 20 -7 20 -60 0 -33 4 -60 10 -60 6 0 10 7 10 15 0 8 4 15 8 15 4 0 8 -82
8 -182 0 -101 3 -226 7 -278 4 -52 4 -91 0 -87 -16 16 -32 150 -23 192 8 40 1
74 -11 54 -12 -20 -25 -1 -33 49 -6 38 -4 42 14 42 19 0 21 5 17 53 -2 28 0
60 5 71 7 12 6 22 -1 29 -8 8 -11 5 -11 -11 0 -30 -18 -28 -32 3 -13 30 -38
33 -45 6 -3 -11 -13 -21 -24 -24 -12 -3 -19 -14 -19 -29 1 -22 1 -22 15 -4 11
14 15 16 15 5 0 -8 -10 -25 -21 -39 -18 -23 -20 -23 -14 -4 4 17 0 23 -18 28
-14 3 -32 17 -41 31 l-16 25 -38 -21 c-56 -32 -63 -40 -60 -68 3 -22 10 -27
48 -34 25 -4 57 -8 73 -8 16 0 27 -5 27 -13 0 -7 9 -21 20 -31 11 -10 20 -26
20 -37 0 -19 25 -25 35 -7 10 16 45 -20 45 -46 0 -11 5 -26 10 -31 6 -6 14
-44 17 -84 l6 -72 -22 12 c-34 18 -71 5 -71 -24 0 -31 55 -94 98 -111 29 -13
32 -18 32 -54 l0 -41 -69 0 c-39 0 -73 -4 -76 -10 -3 -5 -24 -10 -46 -10 -21
0 -39 -4 -39 -10 0 -8 148 -17 183 -11 4 1 15 -5 23 -14 13 -13 13 -19 -2 -50
-9 -19 -14 -44 -11 -55 6 -24 -11 -38 -19 -16 -3 9 -12 16 -19 16 -7 0 -15 7
-19 15 -5 14 -9 14 -42 0 -19 -8 -66 -18 -102 -21 -37 -4 -76 -13 -87 -20 -25
-18 -35 -18 -35 1 0 8 -2 15 -4 15 -18 0 -166 -53 -171 -60 -9 -14 5 -12 75
10 74 24 81 24 55 7 -20 -14 -44 -24 -144 -58 -64 -23 -67 -23 -74 -6 -4 10 4
14 24 14 16 0 35 5 42 12 10 10 2 11 -35 6 -58 -9 -61 2 -13 42 34 28 219 93
265 93 16 0 21 5 18 23 -2 18 2 23 29 25 38 4 64 28 40 38 -8 3 -29 -2 -46
-10 -20 -11 -32 -12 -36 -5 -5 7 -15 5 -30 -5 -13 -8 -53 -21 -89 -27 -36 -7
-66 -17 -66 -23 0 -6 -26 -23 -58 -38 -116 -54 -130 -78 -132 -233 -1 -110 7
-165 26 -165 8 0 14 -6 14 -14 0 -8 11 -24 24 -37 19 -18 22 -27 14 -37 -12
-14 8 -158 38 -273 8 -30 14 -60 14 -65 0 -5 -39 -10 -87 -11 -67 -2 -84 0
-75 9 15 15 16 38 2 38 -6 0 -13 -13 -16 -30 -6 -29 -8 -30 -68 -30 -33 -1
-80 -5 -104 -9 l-43 -9 6 172 c4 94 9 177 11 185 2 7 0 19 -5 25 -5 6 -12 117
-15 246 -2 129 -10 316 -16 415 -7 106 -9 289 -5 445 8 376 7 544 -5 710 -11
136 -6 470 7 533 4 20 1 27 -10 27 -15 0 -16 34 -14 323 l2 322 140 2 c77 2
153 6 170 9 27 6 28 5 16 -10 -11 -13 -11 -19 -1 -31 20 -24 32 -18 26 13 -6
24 -3 27 21 29 50 5 530 12 913 13 206 1 427 5 490 9 63 3 140 7 171 9 l56 2
12 -57z m-998 -166 c-13 -13 -15 11 -4 40 7 16 8 15 11 -6 2 -13 -1 -28 -7
-34z m73 -59 c-5 -7 -9 -24 -10 -38 0 -14 -4 -33 -8 -42 -6 -14 -3 -18 13 -18
15 0 21 -5 19 -17 -2 -10 4 -19 15 -21 24 -5 22 25 -3 40 -18 12 -29 58 -13
58 14 0 43 -34 43 -52 0 -10 4 -18 9 -18 5 0 14 -13 21 -30 13 -31 7 -80 -10
-80 -6 0 -10 -11 -10 -24 0 -14 -4 -28 -10 -31 -5 -3 -10 -16 -10 -28 0 -11
-12 -34 -27 -49 -26 -27 -51 -39 -38 -17 4 5 8 22 10 36 1 14 12 33 23 42 11
9 30 39 43 66 12 28 24 53 26 58 2 4 0 7 -5 7 -5 0 -15 -13 -22 -30 -17 -40
-38 -38 -46 5 -5 27 -10 34 -23 30 -14 -4 -17 5 -20 69 -2 77 12 127 31 108 6
-6 7 -16 2 -24z m-143 -15 c-10 -17 -10 -16 -11 3 0 23 13 41 18 25 2 -6 -1
-18 -7 -28z m52 17 c-6 -22 -23 -38 -23 -21 0 17 12 41 20 41 5 0 6 -9 3 -20z
m27 -39 c0 -11 -5 -32 -10 -46 -12 -31 -2 -85 11 -63 7 10 9 10 9 -3 0 -42
-14 -108 -22 -103 -5 3 -6 15 -3 27 6 21 5 21 -9 4 -22 -27 -29 -3 -10 34 12
24 13 34 4 39 -6 4 -10 18 -8 30 1 13 -3 25 -9 27 -7 3 -13 0 -13 -6 0 -6 -4
-11 -10 -11 -5 0 -10 9 -10 21 0 11 4 18 8 15 5 -3 19 8 32 25 29 34 40 37 40
10z m-256 -139 c-8 -2 -21 2 -29 8 -11 9 -11 17 -3 36 l12 25 17 -33 c15 -28
15 -33 3 -36z m175 54 c9 -11 7 -15 -9 -19 -22 -6 -35 7 -25 23 9 14 20 13 34
-4z m31 -50 c0 -2 -7 -20 -15 -40 -16 -38 -32 -46 -42 -20 -8 22 17 64 39 64
10 0 18 -2 18 -4z m-90 -40 c0 -5 -7 -3 -15 4 -8 7 -12 17 -9 22 7 10 24 -9
24 -26z m184 -2 c14 -5 14 -9 0 -35 -19 -38 -24 -37 -24 6 0 38 0 38 24 29z
m-210 -20 c9 -24 7 -52 -5 -59 -14 -9 -16 -6 -24 38 -6 29 -4 37 8 37 8 0 18
-7 21 -16z m-63 -52 c-16 -5 -63 27 -56 39 4 5 20 0 37 -13 18 -12 26 -24 19
-26z m217 -74 c-1 -76 -3 -87 -11 -61 -6 21 -17 33 -30 35 -13 2 -24 14 -28
32 -11 41 -2 49 24 23 l21 -21 9 42 c4 23 10 42 12 42 3 0 4 -42 3 -92z m-148
22 c0 -5 -4 -10 -10 -10 -5 0 -10 5 -10 10 0 6 5 10 10 10 6 0 10 -4 10 -10z
m150 -234 c0 -25 -5 -48 -11 -51 -17 -11 -24 4 -12 24 6 9 9 29 6 44 -3 16 -1
27 6 27 6 0 11 -18 11 -44z m-51 -132 c-6 -38 -15 -74 -20 -80 -5 -6 -4 -15 3
-22 6 -6 9 -15 5 -18 -3 -4 -13 1 -22 9 -17 17 -21 67 -5 67 15 0 34 54 21 58
-6 2 -11 9 -11 14 0 11 32 48 38 43 2 -2 -2 -34 -9 -71z m183 31 c-6 -14 -16
-25 -22 -25 -13 0 -13 12 0 46 8 20 14 24 22 16 9 -9 9 -18 0 -37z m-127 -25
c3 -13 -2 -42 -10 -65 -7 -23 -11 -51 -9 -63 3 -11 1 -23 -4 -26 -7 -4 -13 16
-18 51 -5 46 -4 58 9 68 9 7 14 15 11 18 -3 3 -3 15 1 27 8 25 14 22 20 -10z
m-99 -37 c-10 -10 -19 5 -10 18 6 11 8 11 12 0 2 -7 1 -15 -2 -18z m138 -52
c-10 -50 -23 -36 -21 24 1 52 2 54 14 31 7 -14 10 -37 7 -55z m60 12 c-12 -66
-45 -85 -36 -21 3 27 24 58 39 58 2 0 1 -17 -3 -37z m-101 -286 c-6 -91 -24
-104 -23 -17 1 25 -2 60 -6 79 -5 23 -3 36 7 42 23 14 27 -10 22 -104z m145
-51 c6 -13 8 -27 4 -31 -3 -3 -7 -16 -7 -28 0 -15 -5 -21 -17 -19 -11 2 -18
-3 -18 -12 0 -8 -4 -18 -10 -21 -6 -4 -10 9 -10 30 0 29 5 38 21 42 16 5 19
11 14 34 -8 35 8 38 23 5z m-61 -8 c-3 -8 -6 -5 -6 6 -1 11 2 17 5 13 3 -3 4
-12 1 -19z m-170 -20 c-3 -7 -5 -2 -5 12 0 14 2 19 5 13 2 -7 2 -19 0 -25z
m-990 -40 c-3 -8 -6 -5 -6 6 -1 11 2 17 5 13 3 -3 4 -12 1 -19z m1023 -55 c0
-7 -7 -10 -17 -7 -12 4 -10 -1 6 -14 16 -13 22 -25 17 -37 -6 -16 -8 -15 -25
7 -17 21 -20 47 -12 103 2 13 30 -36 31 -52z m-1015 -57 c-5 -76 -15 -66 -14
15 0 50 3 67 9 53 4 -11 6 -42 5 -68z m945 63 c0 -5 -4 -9 -10 -9 -5 0 -10 7
-10 16 0 8 5 12 10 9 6 -3 10 -10 10 -16z m176 -19 c19 0 18 -16 -2 -24 -23
-9 -24 -8 -23 22 0 15 3 21 6 15 2 -7 11 -13 19 -13z m-59 -45 c-2 -66 -14
-72 -19 -10 -3 49 -1 65 12 65 5 0 8 -25 7 -55z m-2 -104 c3 -5 1 -12 -5 -16
-5 -3 -10 1 -10 9 0 18 6 21 15 7z m-81 -108 c5 -17 3 -29 -6 -34 -13 -9 -4
-24 15 -24 12 0 12 -5 8 -42 -2 -14 -4 -13 -12 6 -7 17 -15 22 -29 18 -24 -6
-24 -4 -6 32 8 15 12 38 9 49 -3 12 -1 22 5 22 5 0 13 -12 16 -27z m271 17
c-12 -19 5 -28 40 -20 26 6 35 5 32 -3 -2 -7 -16 -13 -31 -15 -21 -3 -26 -7
-21 -23 4 -11 2 -19 -5 -19 -6 0 -8 5 -5 10 4 7 -8 9 -34 5 -24 -3 -41 -1 -41
5 0 6 7 10 15 10 8 0 15 9 15 20 0 10 8 24 18 29 22 13 25 13 17 1z m-417 -82
c-7 -13 -14 -25 -15 -27 -2 -2 -9 2 -18 9 -12 10 -18 10 -30 0 -12 -10 -15
-10 -15 2 0 23 22 38 57 38 31 0 33 -1 21 -22z m32 -28 c0 -11 -4 -20 -10 -20
-5 0 -10 9 -10 20 0 11 5 20 10 20 6 0 10 -9 10 -20z m54 -45 c3 -8 1 -15 -4
-15 -6 0 -10 7 -10 15 0 8 2 15 4 15 2 0 6 -7 10 -15z m217 -268 c-6 -6 -11
-19 -11 -29 0 -10 -4 -18 -10 -18 -5 0 -10 7 -10 16 0 24 20 55 31 48 7 -4 7
-10 0 -17z m-122 -97 c6 0 11 -4 11 -10 0 -5 -3 -10 -7 -10 -11 0 -43 33 -43
44 0 6 7 3 14 -6 7 -10 18 -18 25 -18z m90 -140 c0 -9 -4 -8 -9 5 -5 11 -9 27
-9 35 0 9 4 8 9 -5 5 -11 9 -27 9 -35z m156 -59 c77 -29 311 -56 319 -37 3 7
9 4 16 -7 9 -13 19 -17 36 -13 30 8 61 -7 69 -34 4 -13 14 -20 24 -18 10 2 25
-3 35 -11 15 -13 15 -15 -1 -27 -16 -13 -17 -15 -2 -27 15 -11 14 -16 -8 -50
-21 -33 -25 -36 -43 -25 -11 7 -18 18 -16 24 2 6 -6 16 -20 23 -19 8 -24 8
-24 -3 0 -8 -6 -16 -14 -19 -8 -3 -16 -18 -18 -34 -2 -15 -7 -26 -13 -23 -5 3
-9 9 -7 14 2 5 -2 13 -9 17 -8 4 -1 12 20 23 35 18 35 20 21 46 -20 37 -132
57 -420 73 -41 2 -57 -28 -18 -36 20 -4 20 -4 -5 -6 -28 -1 -28 0 -13 -61 0
-3 -3 -5 -9 -5 -6 0 -10 42 -10 105 l0 105 28 -3 c15 -2 27 0 26 5 -2 10 0 23
4 23 1 0 25 -9 52 -19z m-665 -87 c0 -2 -7 -4 -15 -4 -8 0 -15 4 -15 10 0 5 7
7 15 4 8 -4 15 -8 15 -10z m525 -51 c2 -37 -2 -51 -19 -65 -25 -21 -37 -23
-33 -5 1 6 -5 10 -13 8 -8 -3 -31 -4 -50 -3 -19 1 -79 -9 -132 -22 -54 -13
-98 -20 -98 -17 0 5 136 43 203 56 10 2 28 7 39 11 15 4 18 3 13 -6 -5 -8 -3
-11 6 -8 7 2 16 19 20 37 10 49 19 49 19 2 0 -64 24 -48 28 18 4 64 15 60 17
-6z m125 -43 c0 -5 -7 -10 -16 -10 -9 0 -14 -7 -12 -17 2 -13 16 -20 48 -24
l45 -6 -57 -1 c-61 -2 -69 7 -52 52 7 17 44 22 44 6z m597 -22 c-3 -8 -6 -5
-6 6 -1 11 2 17 5 13 3 -3 4 -12 1 -19z m-1082 -37 c6 -11 -10 -16 -70 -25
l-40 -6 45 19 c55 23 57 23 65 12z m265 0 c0 -10 -51 -21 -89 -20 -20 1 -16 4
19 14 56 16 70 17 70 6z m794 -20 c-4 -9 -10 -38 -15 -66 -5 -27 -10 -61 -13
-75 -2 -14 -5 -30 -5 -37 -1 -6 -14 -14 -30 -18 -15 -3 -41 -19 -57 -34 -31
-30 -119 -75 -169 -86 -73 -17 -480 -31 -497 -18 -18 15 -98 23 -273 27 -150
4 -221 15 -197 30 7 4 18 6 25 3 7 -2 21 -1 32 4 18 7 18 8 -5 9 -14 0 -47 7
-75 15 l-50 14 55 -1 c94 0 150 4 150 10 0 4 -21 8 -48 10 -26 1 -56 4 -67 7
-11 2 -39 4 -63 4 -38 1 -43 3 -37 20 5 15 1 18 -20 13 -16 -3 -25 -11 -25
-23 0 -11 -7 -19 -15 -19 -16 0 -18 12 -8 49 6 24 7 24 105 18 101 -6 127 3
61 22 l-38 10 40 -5 c22 -2 81 -9 130 -14 50 -5 115 -12 145 -15 64 -7 178 -7
235 -1 22 3 80 8 129 11 48 4 99 10 111 15 13 5 63 11 112 14 77 5 83 4 46 -6
-47 -12 -61 -34 -15 -24 84 19 207 36 223 31 22 -7 25 -25 4 -25 -8 0 -12 -6
-9 -14 4 -10 -11 -19 -48 -32 -29 -9 -48 -19 -42 -21 19 -6 119 32 117 44 -2
7 11 16 29 21 17 4 34 14 36 21 3 10 0 11 -9 5 -25 -15 -49 -15 -43 0 4 11 0
13 -18 9 l-23 -6 25 22 c22 19 22 21 5 17 -11 -3 -33 -8 -50 -11 l-30 -5 30
14 c17 9 36 15 43 16 6 0 12 4 12 8 0 5 12 15 28 22 15 7 22 15 15 17 -21 7
-15 21 10 25 33 6 49 -2 41 -21z m-1301 -11 c-4 -15 -14 -20 -39 -20 -43 0
-44 14 -1 28 45 14 46 14 40 -8z m562 10 c-3 -5 -15 -10 -26 -10 -11 0 -17 5
-14 10 3 6 15 10 26 10 11 0 17 -4 14 -10z m376 -9 c-16 -11 -81 -12 -81 -2 0
4 21 8 48 9 31 2 42 -1 33 -7z m-814 -7 c-3 -3 -12 -4 -19 -1 -8 3 -5 6 6 6
11 1 17 -2 13 -5z m690 0 c-3 -3 -12 -4 -19 -1 -8 3 -5 6 6 6 11 1 17 -2 13
-5z m13 -24 c-30 -5 -84 -8 -120 -7 l-65 1 75 6 c41 4 95 7 120 7 44 0 44 0
-10 -7z m208 3 c-10 -2 -28 -2 -40 0 -13 2 -5 4 17 4 22 1 32 -1 23 -4z
m-1053 -14 c10 -15 2 -19 -23 -12 -12 3 -19 9 -16 14 7 12 31 11 39 -2z m268
-16 c-7 -2 -19 -2 -25 0 -7 3 -2 5 12 5 14 0 19 -2 13 -5z m817 -3 c-19 -13
-30 -13 -30 0 0 6 10 10 23 10 18 0 19 -2 7 -10z m-1115 -20 c7 -12 -2 -12
-30 0 -19 8 -19 9 2 9 12 1 25 -3 28 -9z m963 3 c-10 -2 -26 -2 -35 0 -10 3
-2 5 17 5 19 0 27 -2 18 -5z m172 -3 c12 -8 11 -10 -7 -10 -13 0 -23 5 -23 10
0 13 11 13 30 0z m-565 -10 c-11 -5 -38 -8 -60 -8 l-40 1 40 7 c22 4 49 7 60
8 l20 1 -20 -9z m213 -7 c-10 -2 -28 -2 -40 0 -13 2 -5 4 17 4 22 1 32 -1 23
-4z m-788 -12 c0 -5 -9 -7 -20 -4 -11 3 -20 7 -20 9 0 2 9 4 20 4 11 0 20 -4
20 -9z m713 2 c-7 -2 -19 -2 -25 0 -7 3 -2 5 12 5 14 0 19 -2 13 -5z m-650
-10 c-7 -2 -19 -2 -25 0 -7 3 -2 5 12 5 14 0 19 -2 13 -5z m1584 -65 c-3 -8
-6 -5 -6 6 -1 11 2 17 5 13 3 -3 4 -12 1 -19z m-1595 -70 c-9 -9 -42 -1 -42
12 0 4 12 5 26 2 15 -3 22 -8 16 -14z m-502 -40 c0 -45 -15 -32 -17 14 -1 28
2 37 8 27 5 -8 9 -26 9 -41z m525 -38 c3 -5 -3 -10 -14 -10 -11 0 -23 5 -26
10 -3 6 3 10 14 10 11 0 23 -4 26 -10z m-538 -32 c-3 -8 -6 -5 -6 6 -1 11 2
17 5 13 3 -3 4 -12 1 -19z m528 2 c3 -5 -1 -10 -9 -10 -9 0 -16 5 -16 10 0 6
4 10 9 10 6 0 13 -4 16 -10z m120 0 c-3 -6 6 -11 22 -12 15 -1 39 -3 53 -4 14
-1 35 -2 48 -3 12 0 22 -5 22 -9 0 -4 -30 -5 -67 -1 -38 5 -73 8 -79 8 -18 1
-26 31 -8 31 8 0 12 -4 9 -10z m255 6 c0 -8 -51 -13 -56 -5 -3 5 9 9 25 9 17
0 31 -2 31 -4z m607 -2 c-3 -3 -12 -4 -19 -1 -8 3 -5 6 6 6 11 1 17 -2 13 -5z
m155 -4 c6 0 7 -13 3 -31 -12 -52 -13 -63 -14 -86 -1 -16 -7 -23 -20 -23 -29
0 -37 -20 -9 -21 26 -2 -31 -9 -257 -34 -88 -9 -164 -21 -169 -26 -17 -16 25
-22 63 -9 20 6 71 13 114 13 42 1 77 5 77 8 0 8 191 31 198 24 10 -10 -4 -14
-60 -16 -38 -2 -55 -6 -52 -14 3 -8 -14 -14 -53 -19 -180 -21 -297 -42 -301
-55 -4 -11 2 -12 24 -7 33 7 326 55 392 63 34 5 42 3 42 -11 0 -10 -8 -16 -24
-16 -13 0 -26 -4 -28 -10 -1 -5 -68 -19 -148 -30 -201 -27 -212 -29 -207 -43
4 -13 68 -11 77 2 3 4 72 16 153 26 128 16 150 16 158 4 10 -16 -28 -25 -211
-54 -58 -9 -109 -21 -114 -26 -14 -13 -5 -12 134 11 67 12 125 18 128 15 3 -3
-4 -5 -16 -5 -12 0 -22 -4 -22 -9 0 -5 -36 -14 -81 -21 -45 -6 -87 -14 -95
-17 -23 -9 -16 -26 9 -19 42 12 251 45 256 40 13 -13 -23 -23 -114 -34 -55 -7
-102 -14 -104 -16 -18 -17 49 -13 180 12 25 5 26 3 20 -27 -6 -32 -9 -33 -81
-46 -92 -17 -103 -20 -95 -32 3 -6 16 -6 33 0 54 18 123 27 119 15 -2 -6 -11
-10 -21 -8 -9 2 -16 -2 -16 -8 0 -5 -7 -10 -16 -10 -26 0 -94 -22 -94 -31 0
-4 26 -9 58 -11 l57 -3 -27 -18 c-14 -10 -46 -20 -71 -22 -24 -2 -63 -13 -86
-24 -22 -12 -61 -24 -86 -28 -39 -5 -45 -9 -40 -24 6 -18 0 -19 -79 -19 -57 0
-85 4 -83 11 1 6 -13 13 -32 15 -46 6 -53 14 -12 14 50 0 33 23 -27 36 -28 7
-105 15 -170 19 -170 10 -182 28 -14 21 82 -3 132 -2 132 4 0 6 -10 11 -22 11
-17 1 -19 2 -5 6 56 15 -32 41 -178 53 -107 8 -88 12 48 10 56 -1 97 2 97 8 0
13 -60 22 -160 23 -47 0 -94 5 -105 10 -13 6 25 7 105 3 183 -10 185 -10 190
1 4 9 -84 16 -284 24 -16 0 -26 4 -22 9 4 4 60 7 124 7 167 0 161 18 -8 26
-169 8 -160 7 -160 19 0 5 24 8 58 5 31 -2 94 -7 140 -10 70 -6 82 -4 82 9 0
13 -16 16 -97 17 -116 1 -205 12 -182 23 9 4 70 3 136 -1 123 -8 153 -7 153 6
0 11 -77 21 -159 21 -88 0 -142 10 -148 27 -8 20 2 26 24 14 19 -11 232 -32
246 -24 24 14 -3 23 -71 23 -88 0 -194 18 -186 31 3 5 29 7 57 4 127 -11 247
-15 247 -7 0 5 -62 16 -137 25 -146 18 -184 20 -143 7 23 -7 21 -8 -12 -9 -32
-1 -36 1 -31 20 5 19 11 21 57 15 28 -3 97 -9 154 -12 91 -6 102 -5 102 9 0
15 -15 17 -117 18 -133 1 -208 9 -208 24 0 15 108 18 218 5 53 -6 103 -8 110
-3 17 11 -189 33 -242 26 -34 -4 -43 -3 -39 8 5 16 21 16 182 5 68 -5 106 -5
103 1 -4 6 -49 13 -101 16 -112 8 -227 26 -241 40 -11 10 92 3 190 -13 77 -13
145 -13 145 0 0 6 -25 11 -55 11 -30 1 -58 2 -62 3 -5 1 -38 6 -75 10 -107 12
-137 27 -43 21 44 -3 94 -7 110 -10 93 -13 115 -14 115 -4 0 6 7 8 16 5 9 -4
23 -1 31 6 9 7 71 12 181 14 92 2 195 6 228 9 43 4 64 3 69 -5 7 -11 27 -11
155 6 19 2 51 8 70 13 19 5 41 7 48 5 8 -2 18 -4 24 -4z m-1112 -100 c12 -8
11 -10 -7 -10 -12 0 -25 5 -28 10 -8 13 15 13 35 0z m1527 -82 c-3 -7 -5 -2
-5 12 0 14 2 19 5 13 2 -7 2 -19 0 -25z m70 -20 c-2 -13 -4 -5 -4 17 -1 22 1
32 4 23 2 -10 2 -28 0 -40z m-217 -8 c0 -5 -4 -10 -10 -10 -5 0 -10 5 -10 10
0 6 5 10 10 10 6 0 10 -4 10 -10z m50 -9 c0 -10 -26 -9 -36 2 -4 4 2 7 14 7
12 0 22 -4 22 -9z m50 -1 c0 -5 -7 -10 -15 -10 -8 0 -15 5 -15 10 0 6 7 10 15
10 8 0 15 -4 15 -10z m10 -50 c0 -12 -28 -25 -36 -17 -9 9 6 27 22 27 8 0 14
-5 14 -10z m-100 -40 c0 -5 -10 -10 -22 -9 -22 0 -22 1 -3 9 11 5 21 9 23 9 1
1 2 -3 2 -9z m-100 -10 c0 -5 -12 -10 -27 -9 l-28 1 25 8 c14 4 26 8 28 9 1 1
2 -3 2 -9z m180 -10 c-34 -11 -60 -11 -35 0 11 5 29 8 40 8 16 0 15 -2 -5 -8z
m-120 -20 c-8 -5 -46 -9 -85 -8 l-70 1 55 7 c91 11 117 11 100 0z m-287 -7
c-7 -2 -19 -2 -25 0 -7 3 -2 5 12 5 14 0 19 -2 13 -5z m427 -1 c0 -13 -12 -22
-22 -16 -10 6 -1 24 13 24 5 0 9 -4 9 -8z m-283 -38 c-3 -3 -12 -4 -19 -1 -8
3 -5 6 6 6 11 1 17 -2 13 -5z m128 -14 c-28 -12 -55 -12 -55 0 0 6 17 10 38 9
30 0 33 -2 17 -9z m-1768 -16 c-3 -3 -12 -4 -19 -1 -8 3 -5 6 6 6 11 1 17 -2
13 -5z m471 -3 c11 -7 11 -9 -1 -14 -23 -9 -7 -61 21 -65 22 -3 21 -32 -2 -32
-17 0 -46 58 -46 91 0 30 6 34 28 20z m1078 -28 c-10 -10 -19 5 -10 18 6 11 8
11 12 0 2 -7 1 -15 -2 -18z m374 -13 c0 -5 -4 -10 -10 -10 -5 0 -10 5 -10 10
0 6 5 10 10 10 6 0 10 -4 10 -10z m-1913 -15 c0 -8 -6 -15 -14 -15 -17 0 -17
17 0 23 6 3 12 6 13 6 0 1 1 -6 1 -14z m1663 -5 c0 -5 -4 -10 -9 -10 -6 0 -13
5 -16 10 -3 6 1 10 9 10 9 0 16 -4 16 -10z m157 -16 c-4 -4 -37 -10 -74 -14
-38 -4 -77 -10 -88 -14 -15 -5 -14 -3 3 5 12 7 22 16 22 21 0 4 32 8 72 8 39
0 68 -3 65 -6z m-1714 -21 c-7 -2 -21 -2 -30 0 -10 3 -4 5 12 5 17 0 24 -2 18
-5z m261 -12 c7 -10 -64 -18 -188 -20 -112 -3 -109 7 3 13 46 3 86 7 89 11 9
8 90 6 96 -4z m1066 -21 c0 -5 -12 -10 -27 -9 -25 0 -26 1 -8 9 27 12 35 12
35 0z m480 -5 c0 -8 -1 -15 -2 -15 -2 0 -61 -3 -132 -7 -108 -5 -128 -4 -124
8 3 10 31 14 117 15 62 1 115 4 118 8 11 11 23 6 23 -9z m-1933 -27 c-3 -7 -5
-2 -5 12 0 14 2 19 5 13 2 -7 2 -19 0 -25z m723 13 l45 -8 -50 -1 c-27 0 -77
4 -110 8 l-60 7 65 1 c36 0 85 -3 110 -7z m-543 -7 c-3 -3 -12 -4 -19 -1 -8 3
-5 6 6 6 11 1 17 -2 13 -5z m-109 -11 c-10 -2 -26 -2 -35 0 -10 3 -2 5 17 5
19 0 27 -2 18 -5z m472 3 c0 -3 -4 -8 -10 -11 -5 -3 -10 -1 -10 4 0 6 5 11 10
11 6 0 10 -2 10 -4z m970 -10 c0 -3 -4 -8 -10 -11 -5 -3 -10 -1 -10 4 0 6 5
11 10 11 6 0 10 -2 10 -4z m107 -2 c-3 -3 -12 -4 -19 -1 -8 3 -5 6 6 6 11 1
17 -2 13 -5z m313 -14 c0 -21 -8 -24 -49 -20 -13 1 -27 -3 -31 -9 -7 -12 -103
-31 -158 -31 -40 0 -34 20 6 21 24 0 25 1 7 9 -17 8 -18 9 -2 11 9 1 22 3 27
4 6 1 48 3 95 4 68 1 85 4 85 16 0 8 5 15 10 15 6 0 10 -9 10 -20z m-1460 -21
c0 -5 -25 -10 -55 -11 -30 -1 -70 -3 -87 -4 -18 -1 -71 0 -118 4 -62 5 -75 8
-50 12 60 9 310 8 310 -1z m294 -29 c38 -6 77 -15 85 -21 16 -10 16 -10 -81 6
-24 4 -38 2 -38 -5 0 -5 11 -10 25 -10 14 0 25 -5 25 -11 0 -7 -7 -8 -17 -4
-10 3 -37 10 -61 15 -24 4 -46 11 -50 14 -3 4 6 5 21 2 16 -3 25 -1 22 5 -4 5
-24 9 -46 9 -22 0 -39 5 -39 11 0 12 27 10 154 -11z m566 1 c0 -11 -69 -35
-77 -27 -4 3 8 9 26 12 17 4 34 11 37 15 7 12 14 11 14 0z m-1305 -11 c3 -5
-3 -10 -14 -10 -12 0 -21 5 -21 10 0 6 6 10 14 10 8 0 18 -4 21 -10z m426 -1
c-21 -8 -157 -14 -206 -9 -43 5 54 17 140 18 66 1 84 -2 66 -9z m1476 -21 c-6
-21 -13 -23 -72 -25 -36 -2 -65 1 -65 6 0 10 49 21 96 21 25 0 34 4 34 17 0 9
3 14 6 10 4 -3 4 -16 1 -29z m-1837 2 c12 -8 11 -10 -7 -10 -13 0 -23 5 -23
10 0 13 11 13 30 0z m70 6 c0 -2 -9 -6 -20 -9 -11 -3 -18 -1 -14 4 5 9 34 13
34 5z m-129 -23 c2 -5 -7 -10 -20 -11 -20 -3 -22 -2 -10 12 14 15 22 14 30 -1z
m499 -3 c0 -5 -5 -10 -11 -10 -5 0 -7 5 -4 10 3 6 8 10 11 10 2 0 4 -4 4 -10z
m363 0 c9 0 17 -4 17 -9 0 -11 -92 -1 -105 12 -7 6 3 8 30 3 22 -3 48 -6 58
-6z m-467 -8 c-2 -4 -53 -8 -113 -9 -77 -1 -95 1 -63 7 62 10 182 12 176 2z
m67 1 c-7 -2 -21 -2 -30 0 -10 3 -4 5 12 5 17 0 24 -2 18 -5z m1082 -13 c-16
-4 -39 -8 -50 -8 l-20 -1 20 9 c11 5 34 8 50 8 l30 0 -30 -8z m-1510 -10 c-26
-11 -65 -12 -65 -2 0 4 19 9 43 10 32 1 37 -1 22 -8z m85 -5 c11 -13 8 -15
-14 -15 -16 0 -26 5 -26 15 0 8 6 15 14 15 7 0 19 -7 26 -15z m1349 11 c-2 -2
-26 -6 -54 -9 -32 -4 -43 -3 -30 3 19 8 93 14 84 6z m-1459 -30 c0 -2 -11 -6
-25 -8 -14 -3 -25 -1 -25 3 0 5 11 9 25 9 14 0 25 -2 25 -4z m1890 -6 c0 -12
-28 -25 -36 -17 -9 9 6 27 22 27 8 0 14 -5 14 -10z m-1797 -12 c12 -1 -5 -4
-38 -7 -33 -4 -64 -4 -70 -1 -12 6 55 19 73 14 8 -2 23 -5 35 -6z m212 -18
c-3 -5 -21 -9 -38 -9 l-32 1 30 8 c43 11 47 11 40 0z m1419 2 c7 -11 -160 -21
-439 -27 -172 -3 -202 -2 -140 6 182 21 570 35 579 21z m-1706 -18 c26 3 85 8
132 11 80 4 83 4 60 -11 l-25 -15 35 6 c60 10 245 18 238 10 -3 -4 -26 -9 -50
-11 -24 -2 -119 -11 -213 -19 -217 -19 -233 -23 -203 -53 9 -9 8 -12 -5 -12
-9 0 -17 -7 -17 -15 0 -8 -4 -15 -10 -15 -5 0 -10 20 -10 44 l0 45 58 5 c152
16 175 23 59 18 -111 -5 -117 -4 -110 13 4 12 8 14 11 7 2 -8 19 -11 50 -8z
m782 -5 c0 -8 12 -10 35 -6 19 3 37 1 40 -4 8 -12 10 -12 -210 -12 -156 0
-172 -1 -90 -6 l100 -7 -107 -2 c-85 -2 -108 1 -108 12 0 10 30 16 118 23 173
14 222 15 222 2z m1090 -9 c0 -15 -7 -20 -29 -20 -24 0 -28 3 -24 20 3 13 14
20 29 20 17 0 24 -6 24 -20z m-1502 -17 c-10 -2 -28 -2 -40 0 -13 2 -5 4 17 4
22 1 32 -1 23 -4z m932 -5 c0 -4 10 -8 23 -9 22 0 22 0 -2 -10 -17 -7 -27 -6
-31 2 -5 7 -32 9 -84 5 -46 -4 -76 -2 -76 3 0 6 26 12 58 14 84 5 112 4 112
-5z m-1012 -5 c-10 -2 -28 -2 -40 0 -13 2 -5 4 17 4 22 1 32 -1 23 -4z m1432
-15 c-31 -19 -50 -22 -165 -23 -71 -1 -175 -5 -230 -8 -122 -8 -70 4 125 27
164 20 191 22 255 24 l50 2 -35 -22z m-1565 2 c-33 -4 -78 -8 -100 -7 l-40 0
40 7 c22 4 67 7 100 7 l60 0 -60 -7z m825 -16 c-57 -14 -630 -25 -630 -13 0 8
331 24 530 25 149 1 153 0 100 -12z m-787 -1 c-13 -2 -33 -2 -45 0 -13 2 -3 4
22 4 25 0 35 -2 23 -4z m990 0 c-7 -2 -19 -2 -25 0 -7 3 -2 5 12 5 14 0 19 -2
13 -5z m-126 -9 c-3 -3 -12 -4 -19 -1 -8 3 -5 6 6 6 11 1 17 -2 13 -5z m813
-15 c0 -11 -27 -12 -34 0 -3 4 -3 11 0 14 8 8 34 -3 34 -14z m-1727 -6 c-18
-2 -48 -2 -65 0 -18 2 -4 4 32 4 36 0 50 -2 33 -4z m1045 0 c-15 -2 -42 -2
-60 0 -18 2 -6 4 27 4 33 0 48 -2 33 -4z"/>
<path d="M714 4169 c-3 -6 -1 -16 5 -22 8 -8 11 -5 11 11 0 24 -5 28 -16 11z"/>
<path d="M1670 4160 c0 -5 5 -10 10 -10 6 0 10 5 10 10 0 6 -4 10 -10 10 -5 0
-10 -4 -10 -10z"/>
<path d="M1526 4123 c-11 -11 -6 -23 9 -23 8 0 15 4 15 9 0 13 -16 22 -24 14z"/>
<path d="M590 4110 c0 -5 5 -10 10 -10 6 0 10 5 10 10 0 6 -4 10 -10 10 -5 0
-10 -4 -10 -10z"/>
<path d="M631 4106 c-9 -10 -9 -16 -1 -21 17 -10 37 12 24 25 -8 8 -15 6 -23
-4z"/>
<path d="M279 4108 c-1 -2 -3 -19 -4 -38 -1 -19 -5 -45 -9 -57 -4 -13 -3 -23
2 -23 5 0 13 17 17 37 4 21 11 41 16 44 11 7 1 39 -12 39 -5 0 -10 -1 -10 -2z"/>
<path d="M1845 4100 c4 -6 11 -8 16 -5 14 9 11 15 -7 15 -8 0 -12 -5 -9 -10z"/>
<path d="M1422 4068 c6 -18 28 -21 28 -4 0 9 -7 16 -16 16 -9 0 -14 -5 -12
-12z"/>
<path d="M722 4058 c6 -18 28 -21 28 -4 0 9 -7 16 -16 16 -9 0 -14 -5 -12 -12z"/>
<path d="M1745 4030 c-3 -5 -1 -10 4 -10 6 0 11 5 11 10 0 6 -2 10 -4 10 -3 0
-8 -4 -11 -10z"/>
<path d="M1982 4013 c2 -10 8 -18 13 -18 5 0 11 8 13 18 2 10 -3 17 -13 17
-10 0 -15 -7 -13 -17z"/>
<path d="M415 3991 c-3 -5 -1 -12 5 -16 5 -3 10 1 10 9 0 18 -6 21 -15 7z"/>
<path d="M172 3918 c4 -30 23 -33 24 -3 1 16 -3 25 -13 25 -9 0 -13 -8 -11
-22z"/>
<path d="M1540 3894 c0 -8 5 -12 10 -9 6 3 10 10 10 16 0 5 -4 9 -10 9 -5 0
-10 -7 -10 -16z"/>
<path d="M185 3870 c-3 -5 1 -10 9 -10 9 0 16 5 16 10 0 6 -4 10 -9 10 -6 0
-13 -4 -16 -10z"/>
<path d="M533 3858 c2 -7 7 -13 12 -13 5 0 10 6 13 13 2 6 -4 12 -13 12 -9 0
-15 -6 -12 -12z"/>
<path d="M357 3813 c-4 -3 -7 -15 -7 -26 0 -16 3 -17 15 -7 8 7 15 19 15 26 0
15 -12 19 -23 7z"/>
<path d="M2002 3798 c2 -6 10 -14 16 -16 7 -2 10 2 6 12 -7 18 -28 22 -22 4z"/>
<path d="M1690 3781 c0 -12 5 -21 10 -21 6 0 10 6 10 14 0 8 -4 18 -10 21 -5
3 -10 -3 -10 -14z"/>
<path d="M1920 3792 c0 -5 6 -16 13 -25 11 -16 12 -15 13 8 1 15 -3 25 -12 25
-8 0 -14 -4 -14 -8z"/>
<path d="M502 3724 c1 -9 9 -19 16 -22 9 -3 13 2 10 14 -1 9 -9 19 -16 22 -9
3 -13 -2 -10 -14z"/>
<path d="M1823 3718 c2 -7 7 -13 12 -13 5 0 10 6 13 13 2 6 -4 12 -13 12 -9 0
-15 -6 -12 -12z"/>
<path d="M230 3685 c0 -14 5 -25 10 -25 6 0 10 11 10 25 0 14 -4 25 -10 25 -5
0 -10 -11 -10 -25z"/>
<path d="M1640 3660 c0 -5 5 -10 10 -10 6 0 10 5 10 10 0 6 -4 10 -10 10 -5 0
-10 -4 -10 -10z"/>
<path d="M793 3623 c-18 -7 -16 -23 2 -23 8 0 15 7 15 15 0 8 -1 15 -2 14 -2
0 -9 -3 -15 -6z"/>
<path d="M565 3611 c-6 -11 9 -23 19 -14 9 9 7 23 -3 23 -6 0 -12 -4 -16 -9z"/>
<path d="M157 3583 c-14 -13 -7 -29 13 -29 11 0 20 1 20 2 0 1 -3 9 -6 18 -7
17 -16 20 -27 9z"/>
<path d="M337 3553 c-10 -10 -8 -43 2 -43 9 0 21 24 21 41 0 11 -14 12 -23 2z"/>
<path d="M1980 3550 c0 -5 10 -14 22 -21 18 -10 20 -9 15 6 -4 9 -7 19 -7 21
0 2 -7 4 -15 4 -8 0 -15 -4 -15 -10z"/>
<path d="M1540 3520 c0 -5 5 -10 10 -10 6 0 10 5 10 10 0 6 -4 10 -10 10 -5 0
-10 -4 -10 -10z"/>
<path d="M2080 3495 c0 -8 5 -15 10 -15 6 0 10 7 10 15 0 8 -4 15 -10 15 -5 0
-10 -7 -10 -15z"/>
<path d="M1410 3490 c0 -5 5 -10 10 -10 6 0 10 5 10 10 0 6 -4 10 -10 10 -5 0
-10 -4 -10 -10z"/>
<path d="M885 3461 c-6 -11 9 -23 19 -14 9 9 7 23 -3 23 -6 0 -12 -4 -16 -9z"/>
<path d="M627 3453 c-10 -10 -8 -33 3 -33 5 0 14 9 20 20 8 15 8 20 -3 20 -8
0 -17 -3 -20 -7z"/>
<path d="M1750 3445 c0 -8 5 -15 10 -15 6 0 10 7 10 15 0 8 -4 15 -10 15 -5 0
-10 -7 -10 -15z"/>
<path d="M260 3428 c0 -19 2 -20 10 -8 13 19 13 30 0 30 -5 0 -10 -10 -10 -22z"/>
<path d="M1850 3426 c0 -8 5 -18 10 -21 6 -3 10 3 10 14 0 12 -4 21 -10 21 -5
0 -10 -6 -10 -14z"/>
<path d="M486 3391 c-3 -4 3 -16 14 -26 20 -18 25 -11 14 19 -7 18 -20 21 -28
7z"/>
<path d="M1750 3391 c0 -6 5 -13 10 -16 6 -3 10 1 10 9 0 9 -4 16 -10 16 -5 0
-10 -4 -10 -9z"/>
<path d="M1950 3344 c0 -8 5 -12 10 -9 6 3 10 10 10 16 0 5 -4 9 -10 9 -5 0
-10 -7 -10 -16z"/>
<path d="M2030 3351 c0 -6 5 -13 10 -16 6 -3 10 1 10 9 0 9 -4 16 -10 16 -5 0
-10 -4 -10 -9z"/>
<path d="M170 3320 c0 -11 7 -20 15 -20 8 0 15 9 15 20 0 11 -7 20 -15 20 -8
0 -15 -9 -15 -20z"/>
<path d="M1954 3295 c-7 -17 4 -37 17 -30 12 8 12 45 -1 45 -6 0 -13 -7 -16
-15z"/>
<path d="M680 3274 c-9 -10 -10 -18 -3 -25 8 -8 14 -5 22 9 13 25 -2 38 -19
16z"/>
<path d="M533 3225 c-3 -9 -3 -19 1 -22 7 -7 36 16 36 28 0 15 -30 10 -37 -6z"/>
<path d="M297 3204 c-3 -19 -1 -24 10 -20 8 3 17 6 19 6 2 0 4 9 4 20 0 29
-27 25 -33 -6z"/>
<path d="M1590 3185 c0 -8 5 -15 10 -15 6 0 10 7 10 15 0 8 -4 15 -10 15 -5 0
-10 -7 -10 -15z"/>
<path d="M1774 3186 c-3 -8 -1 -23 5 -33 9 -16 10 -16 11 -1 0 9 3 23 6 32 3
9 1 16 -5 16 -7 0 -14 -6 -17 -14z"/>
<path d="M237 3163 c-10 -9 -9 -53 1 -53 4 0 9 14 10 30 2 31 0 35 -11 23z"/>
<path d="M1840 3130 c0 -5 5 -10 10 -10 6 0 10 5 10 10 0 6 -4 10 -10 10 -5 0
-10 -4 -10 -10z"/>
<path d="M547 3089 c-14 -16 -16 -24 -6 -35 17 -21 28 -17 22 7 -5 19 -3 20
18 14 24 -8 24 -8 5 14 -11 11 -20 21 -20 21 -1 0 -10 -9 -19 -21z"/>
<path d="M1510 3076 c0 -14 5 -28 10 -31 6 -4 10 7 10 24 0 17 -4 31 -10 31
-5 0 -10 -11 -10 -24z"/>
<path d="M361 3062 c-10 -19 -6 -32 10 -32 10 0 18 39 9 45 -5 3 -14 -3 -19
-13z"/>
<path d="M2085 3070 c-3 -5 1 -10 9 -10 9 0 16 5 16 10 0 6 -4 10 -9 10 -6 0
-13 -4 -16 -10z"/>
<path d="M790 3056 c0 -7 7 -19 15 -26 13 -11 15 -8 15 14 0 16 -5 26 -15 26
-8 0 -15 -6 -15 -14z"/>
<path d="M1380 3030 c0 -5 5 -10 10 -10 6 0 10 5 10 10 0 6 -4 10 -10 10 -5 0
-10 -4 -10 -10z"/>
<path d="M1710 3016 c0 -9 5 -16 10 -16 6 0 10 4 10 9 0 6 -4 13 -10 16 -5 3
-10 -1 -10 -9z"/>
<path d="M166 3004 c-4 -9 -4 -19 -2 -21 8 -8 26 8 26 23 0 19 -16 18 -24 -2z"/>
<path d="M1307 3004 c-6 -10 9 -42 16 -34 3 3 1 14 -3 24 -3 11 -9 15 -13 10z"/>
<path d="M336 2984 c-11 -27 -7 -37 9 -24 16 14 20 40 6 40 -5 0 -12 -7 -15
-16z"/>
<path d="M1690 2965 c0 -8 5 -15 10 -15 6 0 10 7 10 15 0 8 -4 15 -10 15 -5 0
-10 -7 -10 -15z"/>
<path d="M1475 2960 c3 -5 10 -10 16 -10 5 0 9 5 9 10 0 6 -7 10 -16 10 -8 0
-12 -4 -9 -10z"/>
<path d="M361 2876 c-11 -13 -11 -20 -3 -28 15 -15 24 -5 20 23 -3 21 -4 21
-17 5z"/>
<path d="M1900 2875 c0 -8 5 -15 10 -15 6 0 10 7 10 15 0 8 -4 15 -10 15 -5 0
-10 -7 -10 -15z"/>
<path d="M1395 2871 c-3 -5 -1 -12 5 -16 5 -3 10 1 10 9 0 18 -6 21 -15 7z"/>
<path d="M1810 2851 c0 -6 5 -13 10 -16 6 -3 10 1 10 9 0 9 -4 16 -10 16 -5 0
-10 -4 -10 -9z"/>
<path d="M1560 2830 c0 -5 5 -10 10 -10 6 0 10 5 10 10 0 6 -4 10 -10 10 -5 0
-10 -4 -10 -10z"/>
<path d="M480 2812 c0 -18 12 -42 21 -42 13 0 4 43 -9 48 -7 2 -12 -1 -12 -6z"/>
<path d="M663 2805 c-3 -9 -3 -18 0 -21 9 -9 27 6 27 22 0 19 -19 18 -27 -1z"/>
<path d="M196 2795 c-6 -17 2 -45 14 -45 4 0 10 14 12 30 5 32 -15 43 -26 15z"/>
<path d="M1990 2800 c0 -5 5 -10 10 -10 6 0 10 5 10 10 0 6 -4 10 -10 10 -5 0
-10 -4 -10 -10z"/>
<path d="M1746 2763 c-11 -11 -6 -23 9 -23 8 0 15 4 15 9 0 13 -16 22 -24 14z"/>
<path d="M1950 2756 c0 -8 5 -18 10 -21 6 -3 10 3 10 14 0 12 -4 21 -10 21 -5
0 -10 -6 -10 -14z"/>
<path d="M887 2734 c-4 -4 -7 -16 -7 -27 0 -11 3 -17 7 -13 4 3 13 -6 20 -21
12 -27 12 -27 10 16 -2 42 -15 60 -30 45z"/>
<path d="M2112 2729 c3 -8 8 -13 11 -11 9 3 7 11 -5 18 -6 4 -8 0 -6 -7z"/>
<path d="M1420 2685 c0 -8 5 -15 10 -15 6 0 10 7 10 15 0 8 -4 15 -10 15 -5 0
-10 -7 -10 -15z"/>
<path d="M1510 2680 c0 -11 5 -20 10 -20 6 0 10 9 10 20 0 11 -4 20 -10 20 -5
0 -10 -9 -10 -20z"/>
<path d="M437 2684 c-4 -4 -7 -14 -7 -22 0 -11 3 -12 14 -3 11 9 15 9 20 -1 3
-7 5 -4 3 6 -2 21 -19 31 -30 20z"/>
<path d="M1250 2660 c0 -5 5 -10 10 -10 6 0 10 5 10 10 0 6 -4 10 -10 10 -5 0
-10 -4 -10 -10z"/>
<path d="M1835 2661 c-3 -5 -1 -12 5 -16 5 -3 10 1 10 9 0 18 -6 21 -15 7z"/>
<path d="M241 2636 c-8 -9 -10 -24 -6 -37 7 -22 8 -22 22 5 17 32 4 57 -16 32z"/>
<path d="M1630 2635 c0 -8 5 -15 10 -15 6 0 10 7 10 15 0 8 -4 15 -10 15 -5 0
-10 -7 -10 -15z"/>
<path d="M1990 2634 c0 -8 5 -12 10 -9 6 3 10 10 10 16 0 5 -4 9 -10 9 -5 0
-10 -7 -10 -16z"/>
<path d="M1300 2625 c0 -8 5 -15 10 -15 6 0 10 7 10 15 0 8 -4 15 -10 15 -5 0
-10 -7 -10 -15z"/>
<path d="M735 2620 c-4 -7 0 -19 9 -28 13 -14 16 -14 16 -2 0 25 -16 44 -25
30z"/>
<path d="M363 2575 c-3 -9 -3 -18 0 -21 9 -9 27 6 27 22 0 19 -19 18 -27 -1z"/>
<path d="M1790 2576 c0 -9 5 -16 10 -16 6 0 10 4 10 9 0 6 -4 13 -10 16 -5 3
-10 -1 -10 -9z"/>
<path d="M975 2559 c-10 -15 3 -25 16 -12 7 7 7 13 1 17 -6 3 -14 1 -17 -5z"/>
<path d="M1725 2560 c3 -5 8 -10 11 -10 2 0 4 5 4 10 0 6 -5 10 -11 10 -5 0
-7 -4 -4 -10z"/>
<path d="M1945 2559 c-10 -15 3 -25 16 -12 7 7 7 13 1 17 -6 3 -14 1 -17 -5z"/>
<path d="M600 2535 c-7 -9 -10 -18 -7 -21 10 -11 37 5 37 21 0 19 -14 19 -30
0z"/>
<path d="M330 2500 c0 -22 5 -40 10 -40 6 0 10 18 10 40 0 22 -4 40 -10 40 -5
0 -10 -18 -10 -40z"/>
<path d="M880 2525 c0 -8 7 -15 15 -15 8 0 15 7 15 15 0 8 -7 15 -15 15 -8 0
-15 -7 -15 -15z"/>
<path d="M1446 2522 c-2 -4 -1 -14 5 -22 7 -12 9 -10 9 8 0 23 -5 28 -14 14z"/>
<path d="M250 2466 c0 -8 5 -18 10 -21 6 -3 10 3 10 14 0 12 -4 21 -10 21 -5
0 -10 -6 -10 -14z"/>
<path d="M1980 2470 c0 -5 5 -10 10 -10 6 0 10 5 10 10 0 6 -4 10 -10 10 -5 0
-10 -4 -10 -10z"/>
<path d="M405 2438 c12 -39 25 -44 25 -10 0 22 -5 32 -16 32 -11 0 -14 -6 -9
-22z"/>
<path d="M1860 2430 c0 -5 5 -10 10 -10 6 0 10 5 10 10 0 6 -4 10 -10 10 -5 0
-10 -4 -10 -10z"/>
<path d="M2070 2429 c0 -5 5 -7 10 -4 6 3 10 8 10 11 0 2 -4 4 -10 4 -5 0 -10
-5 -10 -11z"/>
<path d="M1082 2333 c4 -24 24 -27 24 -3 0 11 -6 20 -14 20 -7 0 -12 -8 -10
-17z"/>
<path d="M1460 2330 c0 -11 5 -20 10 -20 6 0 10 9 10 20 0 11 -4 20 -10 20 -5
0 -10 -9 -10 -20z"/>
<path d="M1535 2340 c-7 -12 2 -30 16 -30 5 0 9 9 9 20 0 21 -15 27 -25 10z"/>
<path d="M2096 2323 c-11 -11 -6 -23 9 -23 8 0 15 4 15 9 0 13 -16 22 -24 14z"/>
<path d="M167 2313 c-12 -11 -8 -23 8 -23 8 0 15 7 15 15 0 16 -12 20 -23 8z"/>
<path d="M440 2295 c0 -14 5 -25 10 -25 6 0 10 4 10 9 0 5 3 16 6 25 4 11 1
16 -10 16 -10 0 -16 -9 -16 -25z"/>
<path d="M1740 2301 c0 -6 5 -13 10 -16 6 -3 10 1 10 9 0 9 -4 16 -10 16 -5 0
-10 -4 -10 -9z"/>
<path d="M2000 2296 c0 -8 5 -18 10 -21 6 -3 10 3 10 14 0 12 -4 21 -10 21 -5
0 -10 -6 -10 -14z"/>
<path d="M326 2274 c-10 -25 -7 -30 14 -30 11 0 20 3 20 7 0 15 -12 39 -20 39
-4 0 -11 -7 -14 -16z"/>
<path d="M530 2255 c0 -8 4 -15 9 -15 5 0 11 7 15 15 3 9 0 15 -9 15 -8 0 -15
-7 -15 -15z"/>
<path d="M1350 2245 c0 -14 5 -25 10 -25 6 0 10 11 10 25 0 14 -4 25 -10 25
-5 0 -10 -11 -10 -25z"/>
<path d="M1400 2256 c0 -8 5 -18 10 -21 6 -3 10 3 10 14 0 12 -4 21 -10 21 -5
0 -10 -6 -10 -14z"/>
<path d="M674 2239 c-3 -6 -1 -16 5 -22 8 -8 11 -5 11 11 0 24 -5 28 -16 11z"/>
<path d="M1245 2240 c-7 -12 2 -30 16 -30 5 0 9 9 9 20 0 21 -15 27 -25 10z"/>
<path d="M750 2220 c0 -11 6 -20 13 -20 7 0 13 9 14 20 1 11 -4 20 -13 20 -8
0 -14 -9 -14 -20z"/>
<path d="M1920 2205 c0 -8 5 -15 10 -15 6 0 10 7 10 15 0 8 -4 15 -10 15 -5 0
-10 -7 -10 -15z"/>
<path d="M227 2173 c-12 -11 -8 -23 8 -23 8 0 15 7 15 15 0 16 -12 20 -23 8z"/>
<path d="M1560 2151 c0 -12 5 -21 10 -21 6 0 10 6 10 14 0 8 -4 18 -10 21 -5
3 -10 -3 -10 -14z"/>
<path d="M585 2150 c-7 -12 2 -30 16 -30 5 0 9 9 9 20 0 21 -15 27 -25 10z"/>
<path d="M1730 2136 c0 -9 5 -16 10 -16 6 0 10 4 10 9 0 6 -4 13 -10 16 -5 3
-10 -1 -10 -9z"/>
<path d="M504 2109 c-8 -14 11 -33 25 -25 6 4 11 14 11 22 0 16 -26 19 -36 3z"/>
<path d="M1466 2111 c-8 -12 3 -41 15 -41 12 0 12 37 0 45 -5 3 -12 1 -15 -4z"/>
<path d="M333 2084 c-3 -8 -1 -25 5 -37 10 -20 11 -18 11 16 1 39 -5 48 -16
21z"/>
<path d="M910 2093 c0 -14 19 -38 25 -32 8 8 -5 39 -16 39 -5 0 -9 -3 -9 -7z"/>
<path d="M1960 2085 c0 -8 5 -15 10 -15 6 0 10 7 10 15 0 8 -4 15 -10 15 -5 0
-10 -7 -10 -15z"/>
<path d="M1317 2074 c-8 -8 3 -34 14 -34 5 0 9 9 9 20 0 19 -11 26 -23 14z"/>
<path d="M1750 2060 c0 -5 5 -10 10 -10 6 0 10 5 10 10 0 6 -4 10 -10 10 -5 0
-10 -4 -10 -10z"/>
<path d="M660 2039 c-13 -23 -4 -41 9 -20 7 11 10 11 14 0 4 -12 7 -11 16 1
17 23 13 40 -9 40 -10 0 -24 -9 -30 -21z"/>
<path d="M1640 2041 c0 -6 5 -13 10 -16 6 -3 10 1 10 9 0 9 -4 16 -10 16 -5 0
-10 -4 -10 -9z"/>
<path d="M1895 2010 c-8 -13 4 -32 16 -25 12 8 12 35 0 35 -6 0 -13 -4 -16
-10z"/>
<path d="M180 1988 c0 -12 -7 -30 -17 -40 -18 -20 -14 -32 9 -23 31 12 50 85
23 85 -9 0 -15 -9 -15 -22z"/>
<path d="M429 1973 c-15 -39 6 -53 25 -15 15 28 13 42 -6 42 -5 0 -13 -12 -19
-27z"/>
<path d="M1660 1975 c0 -8 5 -15 10 -15 6 0 10 7 10 15 0 8 -4 15 -10 15 -5 0
-10 -7 -10 -15z"/>
<path d="M2050 1974 c0 -9 5 -14 12 -12 18 6 21 28 4 28 -9 0 -16 -7 -16 -16z"/>
<path d="M890 1965 c0 -8 4 -15 9 -15 5 0 11 7 15 15 3 9 0 15 -9 15 -8 0 -15
-7 -15 -15z"/>
<path d="M1490 1965 c0 -8 5 -15 10 -15 6 0 10 7 10 15 0 8 -4 15 -10 15 -5 0
-10 -7 -10 -15z"/>
<path d="M1580 1920 c0 -19 3 -21 12 -12 9 9 9 15 0 24 -9 9 -12 7 -12 -12z"/>
<path d="M700 1914 c-11 -12 -10 -18 3 -32 16 -15 17 -14 17 16 0 36 -2 38
-20 16z"/>
<path d="M1720 1895 c0 -8 5 -15 10 -15 6 0 10 7 10 15 0 8 -4 15 -10 15 -5 0
-10 -7 -10 -15z"/>
<path d="M1850 1895 c0 -8 5 -15 10 -15 6 0 10 7 10 15 0 8 -4 15 -10 15 -5 0
-10 -7 -10 -15z"/>
<path d="M1090 1890 c0 -5 5 -10 10 -10 6 0 10 5 10 10 0 6 -4 10 -10 10 -5 0
-10 -4 -10 -10z"/>
<path d="M285 1880 c-7 -12 2 -30 16 -30 12 0 12 27 0 35 -5 3 -12 1 -16 -5z"/>
<path d="M227 1833 c-13 -13 -7 -32 8 -27 8 4 15 12 15 20 0 15 -12 19 -23 7z"/>
<path d="M1930 1811 c0 -6 5 -13 10 -16 6 -3 10 1 10 9 0 9 -4 16 -10 16 -5 0
-10 -4 -10 -9z"/>
<path d="M283 1795 c-3 -9 -3 -18 0 -21 9 -9 27 6 27 22 0 19 -19 18 -27 -1z"/>
<path d="M603 1788 c2 -7 7 -13 12 -13 5 0 10 6 13 13 2 6 -4 12 -13 12 -9 0
-15 -6 -12 -12z"/>
<path d="M1880 1785 c0 -8 5 -15 10 -15 6 0 10 7 10 15 0 8 -4 15 -10 15 -5 0
-10 -7 -10 -15z"/>
<path d="M400 1716 c0 -15 18 -31 26 -23 7 7 -7 37 -17 37 -5 0 -9 -6 -9 -14z"/>
<path d="M680 1671 c-113 -29 -177 -57 -108 -46 20 3 65 15 99 26 53 18 79 23
147 28 6 1 12 6 12 11 0 16 -37 11 -150 -19z"/>
<path d="M250 1610 c0 -11 7 -20 15 -20 8 0 15 9 15 20 0 11 -7 20 -15 20 -8
0 -15 -9 -15 -20z"/>
<path d="M304 1506 c-3 -8 -4 -25 -2 -38 3 -22 4 -21 21 9 9 18 17 34 17 38 0
12 -31 4 -36 -9z"/>
<path d="M2050 1429 c0 -11 5 -17 10 -14 6 3 10 13 10 21 0 8 -4 14 -10 14 -5
0 -10 -9 -10 -21z"/>
<path d="M190 1420 c0 -5 7 -10 15 -10 8 0 15 5 15 10 0 6 -7 10 -15 10 -8 0
-15 -4 -15 -10z"/>
<path d="M1950 1415 c0 -8 5 -15 10 -15 6 0 10 7 10 15 0 8 -4 15 -10 15 -5 0
-10 -7 -10 -15z"/>
<path d="M2017 1354 c-12 -13 -8 -22 14 -27 15 -4 19 -1 17 10 -3 18 -21 27
-31 17z"/>
<path d="M226 1334 c-8 -22 -8 -24 7 -24 7 0 18 9 25 20 11 17 10 20 -7 20
-10 0 -22 -7 -25 -16z"/>
<path d="M275 1300 c-6 -10 15 -50 27 -50 9 0 10 8 2 38 -7 23 -19 29 -29 12z"/>
<path d="M320 1288 c0 -20 1 -21 20 -3 11 10 20 20 20 22 0 1 -9 3 -20 3 -14
0 -20 -7 -20 -22z"/>
<path d="M2018 1214 c-5 -4 -8 -16 -8 -28 0 -14 3 -17 11 -9 6 6 9 19 7 28 -1
9 -6 13 -10 9z"/>
<path d="M2060 1199 c0 -24 23 -21 28 4 2 10 -3 17 -12 17 -10 0 -16 -9 -16
-21z"/>
<path d="M1925 1200 c-7 -12 2 -30 16 -30 12 0 12 27 0 35 -5 3 -12 1 -16 -5z"/>
<path d="M1857 1154 c-7 -8 3 -34 13 -34 4 0 10 9 13 20 5 19 -12 28 -26 14z"/>
<path d="M323 1143 c-21 -8 -14 -25 7 -18 14 5 20 2 20 -9 0 -9 5 -16 10 -16
6 0 10 11 10 25 0 25 -16 31 -47 18z"/>
<path d="M192 1094 c2 -11 11 -20 22 -22 13 -3 17 1 14 14 -2 11 -11 20 -22
22 -13 3 -17 -1 -14 -14z"/>
<path d="M1900 1055 c0 -8 7 -15 15 -15 8 0 15 7 15 15 0 8 -7 15 -15 15 -8 0
-15 -7 -15 -15z"/>
<path d="M420 1025 c-18 -21 -3 -32 16 -13 10 9 12 18 6 22 -5 3 -15 -1 -22
-9z"/>
<path d="M1850 1010 c0 -11 5 -20 10 -20 6 0 10 9 10 20 0 11 -4 20 -10 20 -5
0 -10 -9 -10 -20z"/>
<path d="M197 973 c-11 -10 -8 -20 8 -27 10 -4 15 1 15 14 0 20 -11 26 -23 13z"/>
<path d="M327 914 c-8 -8 1 -24 14 -24 5 0 9 7 9 15 0 15 -12 20 -23 9z"/>
<path d="M1820 1445 c-8 -9 -8 -15 -2 -15 12 0 26 19 19 26 -2 2 -10 -2 -17
-11z"/>
<path d="M1665 1380 c-16 -4 -78 -16 -137 -26 -75 -12 -108 -21 -108 -31 0
-17 11 -16 52 1 18 8 82 22 143 31 60 9 114 20 119 25 12 12 -25 12 -69 0z"/>
<path d="M566 1367 c5 -14 74 -18 74 -4 0 4 -3 8 -7 8 -57 9 -72 8 -67 -4z"/>
<path d="M828 1363 c6 -2 18 -2 25 0 6 3 1 5 -13 5 -14 0 -19 -2 -12 -5z"/>
<path d="M870 1361 c0 -6 6 -11 13 -12 6 0 22 -2 35 -3 12 -2 22 1 22 6 0 4
-9 8 -19 8 -11 0 -26 3 -35 6 -9 3 -16 1 -16 -5z"/>
<path d="M967 1344 c-14 -14 -6 -25 16 -22 12 2 22 7 22 13 0 12 -28 18 -38 9z"/>
<path d="M1620 1330 c-13 -8 -12 -10 3 -10 9 0 17 5 17 10 0 12 -1 12 -20 0z"/>
<path d="M770 1311 c0 -5 9 -11 20 -14 11 -3 20 -1 20 3 0 5 12 11 28 13 16 2
9 5 -20 6 -27 0 -48 -3 -48 -8z"/>
<path d="M1725 1310 c-3 -5 -1 -10 4 -10 6 0 11 5 11 10 0 6 -2 10 -4 10 -3 0
-8 -4 -11 -10z"/>
<path d="M1407 1299 c-69 -8 -86 -13 -74 -26 6 -6 43 0 152 26 49 11 16 11
-78 0z"/>
<path d="M920 1290 c-12 -8 -11 -10 7 -10 12 0 25 5 28 10 8 13 -15 13 -35 0z"/>
<path d="M1625 1280 c-3 -5 1 -10 9 -10 9 0 16 5 16 10 0 6 -4 10 -9 10 -6 0
-13 -4 -16 -10z"/>
<path d="M1530 1265 c-36 -7 -101 -16 -145 -20 -44 -4 -84 -10 -90 -13 -17
-10 39 -19 65 -11 14 5 41 10 60 12 78 9 190 31 190 39 0 9 3 10 -80 -7z"/>
<path d="M800 1259 c0 -11 29 -19 66 -19 23 0 34 5 34 14 0 11 -12 14 -50 13
-27 -1 -50 -5 -50 -8z"/>
<path d="M758 1253 c6 -2 18 -2 25 0 6 3 1 5 -13 5 -14 0 -19 -2 -12 -5z"/>
<path d="M1070 1230 c0 -5 5 -10 10 -10 6 0 10 5 10 10 0 6 -4 10 -10 10 -5 0
-10 -4 -10 -10z"/>
<path d="M1415 1135 c-5 -2 -32 -6 -58 -10 -35 -5 -47 -10 -43 -20 3 -10 -5
-15 -27 -17 -18 -2 -31 -7 -29 -13 2 -12 -5 -12 150 -1 87 6 127 5 135 -3 7
-7 1 -10 -24 -10 -36 1 -295 -29 -317 -36 -7 -3 -11 -9 -8 -13 3 -5 36 -3 73
4 37 7 104 15 149 19 44 3 90 7 102 10 28 5 62 24 44 25 -30 0 1 18 38 22 39
3 53 -5 28 -15 -7 -3 8 -5 35 -5 53 1 65 17 15 19 -18 1 -25 3 -15 6 25 7 21
24 -5 18 -23 -5 -45 -7 -223 -21 -83 -7 -89 -6 -76 9 7 10 26 17 42 17 16 0
29 5 29 10 0 6 -1 10 -2 9 -2 0 -7 -2 -13 -4z"/>
<path d="M1600 1039 c-70 -10 -110 -15 -240 -29 -58 -6 -109 -15 -114 -21 -18
-17 4 -22 41 -11 21 6 99 19 173 27 74 9 160 22 190 29 61 15 34 18 -50 5z"/>
</g>
</svg>
