<?xml version="1.0" standalone="no"?>
<!DOCTYPE svg PUBLIC "-//W3C//DTD SVG 20010904//EN"
 "http://www.w3.org/TR/2001/REC-SVG-20010904/DTD/svg10.dtd">
<svg version="1.0" xmlns="http://www.w3.org/2000/svg"
 width="393.000000pt" height="230.000000pt" viewBox="0 0 393.000000 230.000000"
 preserveAspectRatio="xMidYMid meet">
<metadata>
Created by potrace 1.16, written by Peter Selinger 2001-2019
</metadata>
<g transform="translate(0.000000,230.000000) scale(0.100000,-0.100000)"
fill="#000000" stroke="none">
<path d="M3586 2273 c-22 -3 -45 -11 -50 -18 -10 -13 -106 -21 -286 -25 -25
-1 -131 -10 -236 -21 -105 -10 -215 -20 -245 -20 -30 -1 -44 -4 -31 -6 41 -8
23 -23 -28 -23 -27 0 -50 -4 -50 -9 0 -5 -10 -11 -22 -14 -13 -2 68 -5 180 -5
112 -1 208 -5 214 -8 6 -4 9 -1 6 7 -4 11 -31 14 -121 14 -113 -1 -147 7 -89
19 50 11 371 16 397 6 20 -8 25 -6 25 6 0 12 11 15 53 14 28 -1 104 3 167 9
113 10 139 8 110 -9 -37 -23 -44 -29 -37 -36 4 -4 22 6 40 23 27 27 42 33 103
38 62 6 72 5 78 -10 3 -10 2 -23 -4 -30 -6 -7 -7 -32 -4 -59 l7 -47 -26 12
c-15 7 -24 16 -21 20 3 5 -7 14 -23 21 -33 13 -430 17 -538 5 -275 -31 -420
-49 -424 -52 -9 -9 57 -5 337 22 263 25 286 26 315 11 47 -24 66 -28 72 -18 4
6 -1 10 -9 10 -9 0 -16 5 -16 10 0 6 33 9 83 9 45 -1 71 -4 57 -6 -14 -3 -29
-9 -35 -14 -13 -13 42 -12 66 2 25 13 109 2 88 -12 -11 -7 -10 -9 4 -9 9 0 17
-6 17 -14 0 -12 -6 -13 -32 -5 -37 11 -273 14 -393 6 -79 -6 -66 0 40 19 22 3
34 9 27 11 -19 7 -172 -16 -207 -32 -32 -14 -105 -21 -352 -31 -84 -4 -153
-10 -153 -14 0 -14 30 -20 75 -13 24 3 52 2 62 -2 24 -10 135 -6 149 6 28 23
684 47 756 26 19 -5 30 -16 34 -35 3 -15 8 -36 11 -46 5 -18 1 -19 -53 -12
-78 10 -393 13 -396 4 -2 -4 -67 -9 -146 -12 -101 -3 -140 -1 -136 6 5 7 2 8
-6 3 -7 -4 -56 -10 -109 -12 -53 -3 -103 -9 -111 -14 -21 -12 254 -11 463 1
145 8 172 8 190 -5 12 -8 28 -15 37 -15 9 1 6 6 -10 16 -23 14 -12 15 123 11
82 -3 150 -7 152 -9 3 -2 6 -14 7 -26 3 -21 0 -22 -175 -26 -98 -3 -224 -7
-280 -10 -64 -3 -93 -2 -77 3 16 6 -23 9 -115 9 -77 1 -131 -3 -120 -7 11 -4
41 -7 67 -6 25 0 44 -3 42 -7 -3 -5 -53 -8 -112 -7 -84 1 -100 3 -74 10 17 5
32 11 32 13 0 10 -116 3 -145 -10 -29 -12 -43 -12 -73 -3 -42 12 -97 9 -97 -6
0 -5 20 -11 45 -13 25 -2 47 -8 48 -13 2 -5 10 -9 18 -9 9 0 12 5 8 11 -4 8
-1 8 12 1 11 -5 39 -8 64 -6 252 14 284 15 270 4 -12 -10 -11 -11 5 -4 11 4
49 9 85 11 36 2 128 8 204 14 111 8 141 7 147 -3 7 -10 12 -11 29 0 22 13 74
17 66 4 -6 -10 40 -10 50 1 4 4 24 7 45 7 38 0 38 0 45 -47 7 -60 7 -67 -8
-72 -6 -2 -9 2 -5 11 3 10 -5 25 -21 39 -22 19 -39 24 -89 25 -35 1 -60 -2
-57 -7 3 -5 -7 -9 -21 -9 -14 0 -24 -4 -20 -9 3 -5 20 -7 39 -4 19 3 36 1 40
-6 4 -6 29 -11 56 -11 50 0 75 -14 41 -23 -10 -2 -36 -1 -57 2 -21 4 -70 3
-109 -1 -120 -13 -582 -48 -634 -48 -47 0 -76 -13 -48 -22 16 -5 198 6 407 25
91 9 208 18 260 22 86 5 93 4 76 -10 -24 -18 -4 -20 27 -2 12 6 48 12 79 12
51 0 58 -2 58 -20 0 -11 3 -30 6 -42 6 -21 3 -21 -86 -21 -54 0 -96 -4 -103
-11 -8 -8 13 -11 79 -11 99 0 114 -7 114 -53 l0 -30 -72 8 c-40 4 -80 6 -88 4
-23 -3 -241 -2 -277 2 -18 2 -33 7 -33 10 0 4 -121 7 -270 7 -156 0 -270 -4
-270 -9 0 -5 37 -9 82 -9 45 0 79 -2 77 -4 -2 -2 -42 -7 -89 -11 -47 -3 -103
-10 -125 -15 -30 -7 -20 -8 45 -4 100 6 148 10 212 18 38 4 49 2 57 -12 11
-20 93 -21 434 -6 173 7 216 6 212 -3 -5 -15 11 -17 20 -3 7 11 45 13 69 4 19
-7 21 -55 4 -72 -8 -8 -8 -12 -1 -12 6 0 11 -12 11 -26 0 -25 -2 -26 -44 -20
-42 5 -64 -8 -26 -17 9 -2 -28 -7 -83 -11 -124 -9 -148 -13 -139 -28 4 -7 24
-8 58 -3 46 6 60 7 99 5 6 -1 19 0 27 1 8 1 39 1 68 1 44 -2 52 -5 52 -21 0
-28 -111 -42 -194 -25 -146 30 -621 45 -697 22 l-44 -13 48 -3 c47 -3 63 -16
30 -25 -10 -3 18 -2 62 0 44 3 88 10 97 14 23 12 208 11 208 0 0 -6 13 -6 31
1 22 8 41 8 63 1 17 -6 54 -11 81 -12 28 -1 54 -6 59 -12 6 -5 21 -9 35 -10
24 0 24 -1 6 -9 -11 -5 -212 -6 -446 -3 -317 5 -428 3 -433 -5 -5 -9 19 -12
91 -13 54 -1 110 -3 124 -4 15 -2 172 -5 351 -7 178 -3 328 -7 334 -10 5 -3
38 -9 74 -13 80 -9 116 -26 50 -24 -70 3 -92 0 -85 -11 3 -5 24 -10 46 -10 21
0 39 -5 39 -11 0 -5 3 -8 8 -6 4 3 16 1 27 -4 16 -6 14 -8 -13 -8 -25 -1 -35
-6 -39 -21 -4 -14 -11 -19 -23 -15 -21 7 -50 -3 -50 -17 0 -6 7 -8 15 -4 8 3
18 -1 22 -8 5 -7 22 -18 38 -24 30 -11 29 -11 -12 -10 -24 1 -48 -3 -55 -10
-9 -9 -7 -12 13 -13 22 0 22 -1 4 -8 -19 -8 -19 -8 3 -15 33 -11 27 -33 -15
-53 -28 -13 -33 -19 -20 -21 14 -3 16 -7 6 -18 -9 -12 -6 -14 22 -14 l34 -1
-27 -20 c-16 -11 -28 -27 -28 -34 0 -7 12 -18 28 -23 30 -10 35 -7 -60 -32
-74 -19 -65 -40 24 -56 21 -3 35 -10 32 -15 -3 -5 2 -9 11 -9 10 0 15 -7 13
-17 -2 -13 -12 -18 -33 -17 -17 0 -29 6 -27 12 3 16 -39 14 -62 -3 -23 -18
-11 -38 20 -32 14 2 27 0 30 -4 3 -5 -2 -9 -11 -9 -9 0 -14 -4 -11 -9 3 -4 17
-6 31 -4 33 7 103 -26 84 -38 -21 -13 -49 -11 -65 6 -9 8 -28 15 -44 15 -16 0
-35 3 -44 6 -11 4 -16 1 -16 -10 0 -11 10 -16 33 -17 l32 -1 -30 -13 c-36 -16
-19 -27 34 -23 19 2 36 -2 38 -7 2 -7 -23 -10 -73 -8 -55 2 -74 -1 -71 -10 2
-8 36 -14 93 -18 97 -6 102 -8 34 -15 -25 -3 -50 -10 -57 -16 -9 -7 -13 -7
-13 1 0 6 -4 11 -10 11 -5 0 -10 -7 -10 -15 0 -9 -9 -15 -24 -15 -13 0 -43 -7
-66 -15 -23 -8 -55 -15 -71 -15 -15 0 -31 -4 -34 -10 -3 -5 -1 -10 6 -10 7 0
9 -3 5 -7 -4 -5 -42 -9 -84 -9 -43 -1 -138 -5 -212 -10 -74 -4 -163 -7 -197
-6 -43 2 -63 -1 -63 -9 0 -11 223 -9 550 5 51 3 77 1 65 -4 -11 -5 -36 -9 -55
-9 -19 -1 -42 -6 -50 -12 -11 -8 2 -9 48 -6 40 3 70 12 82 22 21 19 88 17 270
-7 88 -11 100 -17 100 -56 0 -20 -4 -23 -27 -18 -16 3 -52 8 -80 11 -29 4 -53
10 -53 13 0 10 -60 35 -67 28 -4 -3 1 -6 10 -6 9 0 19 -5 22 -11 5 -7 -7 -9
-37 -5 -23 2 -53 5 -66 5 -13 1 -20 5 -17 11 3 6 -4 10 -17 10 -13 0 -29 -9
-36 -20 -11 -18 -10 -20 19 -20 17 0 28 -4 24 -10 -3 -6 -23 -8 -43 -5 -20 3
-59 1 -87 -4 -44 -7 -35 -9 68 -10 77 -1 117 3 117 10 0 6 -9 8 -22 4 -17 -6
-20 -4 -12 4 9 9 35 8 110 -4 54 -9 120 -16 146 -17 38 -1 47 -5 51 -22 2 -12
8 -29 12 -39 7 -17 -3 -17 -186 -12 -219 7 -285 17 -169 25 58 4 75 8 75 20 0
10 -7 13 -20 10 -26 -6 -109 -3 -163 6 -27 4 -57 2 -80 -5 -21 -7 -53 -11 -72
-9 -32 4 -31 5 18 12 29 5 55 13 59 19 8 13 -200 2 -227 -13 -11 -6 -41 -10
-68 -10 -98 3 -178 0 -216 -6 -27 -5 -41 -3 -47 7 -10 17 -21 7 -14 -13 4 -10
22 -14 63 -15 230 -2 381 -2 467 2 62 2 88 0 70 -5 -16 -4 -60 -8 -97 -9 -38
0 -68 -5 -68 -11 0 -5 -5 -10 -11 -10 -5 0 -7 5 -4 10 9 14 -8 13 -23 -2 -6
-6 -33 -11 -59 -10 -26 0 -71 -4 -100 -9 -28 -6 -60 -10 -70 -10 -10 0 -139 0
-288 0 -148 1 -335 -1 -415 -5 -163 -7 -175 -7 -210 -4 -246 23 -669 29 -715
10 -36 -15 -205 -24 -205 -11 0 5 7 12 16 15 9 4 13 2 8 -5 -4 -7 -1 -10 7 -7
23 8 23 38 0 38 -12 0 -24 1 -28 2 -5 1 -13 -8 -19 -21 -7 -13 -13 -18 -16
-11 -5 15 -88 26 -88 12 0 -18 30 -34 55 -30 14 3 25 1 25 -3 0 -5 9 -9 19 -9
11 0 22 -4 25 -9 3 -5 26 -5 53 0 26 5 71 7 101 3 29 -3 59 -1 65 4 24 19 84
19 172 1 49 -10 91 -16 94 -14 2 3 10 0 17 -6 8 -6 23 -7 36 -3 13 4 41 6 62
5 36 -3 38 -1 27 13 -12 14 -7 16 50 14 l64 -1 -50 -7 c-34 -4 -45 -9 -34 -14
9 -4 27 -6 40 -5 13 1 37 1 53 1 24 -2 27 -4 16 -17 -11 -13 -7 -15 26 -15 35
1 37 2 22 14 -10 7 -18 16 -18 19 0 11 94 -6 107 -18 13 -13 76 -8 67 6 -3 5
25 10 63 10 37 1 111 2 163 3 52 1 102 -1 111 -6 9 -4 42 -4 73 -1 44 5 54 8
41 16 -9 5 -28 7 -41 4 -14 -2 -27 -1 -29 3 -5 7 66 20 111 20 30 0 31 -15 2
-25 l-23 -7 25 -8 c38 -12 160 -12 160 1 0 5 -8 9 -17 8 -33 -3 -44 1 -37 12
5 8 26 9 68 4 72 -8 80 -8 171 -5 39 1 92 -1 119 -5 42 -6 48 -5 43 8 -8 22
46 32 83 17 19 -8 58 -10 108 -7 44 3 84 1 88 -3 5 -5 37 -5 74 0 88 13 182
12 294 -1 83 -11 96 -10 117 5 30 21 36 20 42 -4 3 -11 9 -20 15 -20 13 0 25
156 13 179 -9 16 -14 446 -9 721 1 47 -1 118 -5 158 -5 59 -4 74 8 79 19 7 19
23 0 23 -29 0 -15 29 17 38 43 11 49 38 10 47 -34 7 -52 39 -52 91 0 30 3 34
23 32 30 -4 37 16 6 22 -24 5 -24 6 -24 118 0 100 2 112 18 112 23 0 22 16 -3
23 -19 5 -20 14 -20 231 0 144 -4 226 -10 226 -5 0 -10 9 -10 20 0 11 5 20 11
20 6 0 1 14 -11 30 -21 29 -24 30 -93 28 -40 -1 -90 -3 -111 -5z m183 -256
c-1 -31 -1 -31 -9 -7 -11 36 -11 52 0 45 6 -3 10 -21 9 -38z m-15 -46 c-7 -8
-14 6 -19 40 l-5 34 14 -35 c7 -19 12 -37 10 -39z m30 -96 c4 -14 2 -33 -3
-43 -9 -15 -10 -13 -11 8 0 14 -3 36 -7 49 -4 16 -2 22 4 18 6 -4 14 -18 17
-32z m-625 -345 c-47 -4 -92 -11 -100 -15 -12 -8 -12 -6 0 8 11 14 30 17 100
16 l86 -2 -86 -7z m148 -6 c-3 -3 -12 -4 -19 -1 -8 3 -5 6 6 6 11 1 17 -2 13
-5z m538 -224 c-3 -5 -10 -10 -16 -10 -5 0 -9 5 -9 10 0 6 7 10 16 10 8 0 12
-4 9 -10z m-72 -47 c-7 -2 -19 -2 -25 0 -7 3 -2 5 12 5 14 0 19 -2 13 -5z
m-93 -23 c0 11 33 13 79 4 26 -6 31 -11 31 -35 0 -27 -2 -29 -27 -24 -69 15
-111 30 -107 37 3 4 -2 8 -10 8 -9 0 -16 4 -16 10 0 6 9 6 25 0 16 -6 25 -6
25 0z m114 -101 c-3 -5 -10 -7 -15 -3 -5 3 -7 10 -3 15 3 5 10 7 15 3 5 -3 7
-10 3 -15z m1 -49 c3 -5 1 -10 -4 -10 -6 0 -11 5 -11 10 0 6 2 10 4 10 3 0 8
-4 11 -10z m5 -56 c0 -11 -5 -14 -16 -10 -9 3 -23 6 -32 7 -14 0 -13 2 3 9 31
13 45 11 45 -6z m-6 -101 c-3 -27 -9 -51 -13 -55 -3 -3 -28 -1 -56 7 l-50 13
48 12 c54 14 69 29 38 37 -33 8 -26 33 10 33 l30 0 -7 -47z m-8 -170 c-2 -43
-5 -93 -5 -111 -1 -30 -3 -33 -23 -26 -20 6 -48 27 -48 37 0 2 10 3 23 3 20
-1 22 4 23 47 0 26 4 50 8 54 3 4 -6 17 -21 30 -27 23 -27 24 -4 17 19 -5 23
-3 18 10 -5 11 -1 16 13 16 19 0 20 -6 16 -77z m-86 57 c0 -5 -10 -10 -22 -10
-19 0 -20 2 -8 10 19 13 30 13 30 0z m-30 -95 l24 -25 -35 6 c-47 9 -67 26
-42 35 27 11 28 11 53 -16z m55 10 c0 -17 -32 -17 -39 0 -4 13 -1 16 17 13 12
-2 22 -7 22 -13z m57 -198 c-1 -93 -2 -97 -12 -97 -17 0 -50 34 -50 50 0 9 -5
21 -12 28 -9 9 -4 12 25 12 20 0 37 5 37 10 0 6 -8 10 -19 10 -10 0 -21 9 -24
19 -6 25 -4 27 29 26 26 -2 26 -4 26 -58z m-59 -114 c33 -3 57 -10 57 -16 0
-9 -46 -12 -158 -14 -118 -1 -147 1 -117 8 22 6 54 14 70 18 35 10 69 11 148
4z m2 -56 c39 -2 50 -6 53 -20 3 -14 -1 -17 -20 -13 -40 9 -149 17 -247 17
-52 0 -99 3 -105 7 -12 7 228 21 254 14 8 -2 37 -5 65 -5z m-345 -1 c0 -2 -7
-6 -15 -10 -8 -3 -15 -1 -15 4 0 6 7 10 15 10 8 0 15 -2 15 -4z"/>
<path d="M2355 2169 c-55 -4 -201 -9 -325 -12 -124 -2 -411 -11 -638 -21 -227
-9 -416 -14 -421 -12 -11 7 -513 -11 -534 -20 -10 -3 -16 -13 -13 -20 4 -12
-21 -14 -139 -14 -122 0 -145 2 -145 15 0 22 -21 18 -27 -5 -6 -22 -29 -27
-36 -7 -3 6 -6 2 -6 -10 -1 -13 -7 -23 -16 -23 -8 0 -15 -5 -15 -11 0 -7 10
-9 25 -7 23 5 25 2 25 -34 0 -24 -4 -37 -10 -33 -6 4 -10 -14 -9 -47 1 -43 3
-48 9 -28 5 14 7 -91 4 -240 -5 -252 8 -521 25 -528 4 -1 5 -18 3 -37 -5 -46
7 -125 19 -125 5 0 9 15 9 34 0 40 26 58 33 23 2 -12 5 -3 6 20 1 30 6 43 18
46 15 4 16 5 2 6 -21 1 -33 41 -13 41 8 0 14 5 14 10 0 6 -5 9 -12 8 -9 -2
-12 23 -12 94 0 85 3 100 20 113 17 13 17 14 2 15 -13 0 -18 8 -18 30 0 27 2
30 19 20 11 -5 32 -10 48 -9 28 1 28 1 -5 10 -55 16 -27 26 50 18 108 -12 139
-19 132 -30 -4 -6 -22 -8 -47 -3 -38 6 -40 5 -27 -11 13 -15 11 -16 -22 -10
-22 4 -38 3 -42 -4 -4 -6 -22 -11 -39 -12 l-32 -1 33 -11 c23 -7 39 -7 57 1
15 7 25 8 25 2 0 -6 16 -10 35 -10 19 0 35 -4 35 -10 0 -11 -24 -14 -85 -10
-31 1 -37 -1 -28 -10 6 -7 32 -13 57 -14 24 0 47 -4 51 -8 12 -12 -6 -48 -23
-48 -12 0 -9 -7 13 -24 l30 -25 -38 9 c-20 4 -39 5 -42 0 -8 -13 8 -20 47 -20
21 0 38 -3 38 -6 0 -13 -30 -34 -52 -35 -23 -1 -23 -1 2 -8 16 -5 24 -13 22
-24 -2 -13 5 -17 30 -18 26 0 29 -2 13 -8 -19 -8 -19 -8 0 -19 11 -6 16 -12
10 -12 -5 0 5 -9 23 -20 22 -13 32 -26 28 -35 -3 -9 0 -15 8 -15 7 0 23 -11
35 -24 l23 -24 -58 -28 c-72 -33 -69 -31 -56 -46 5 -7 13 -31 17 -53 8 -45 23
-76 39 -87 7 -5 4 -12 -9 -22 -19 -15 -19 -15 12 -16 17 0 35 -4 38 -10 3 -5
24 -14 45 -20 28 -7 44 -20 55 -39 8 -16 11 -31 8 -35 -4 -4 3 -9 15 -13 24
-6 29 -19 10 -26 -23 -7 -48 5 -48 24 0 12 -9 21 -28 24 -15 4 -34 10 -42 14
-18 10 -42 3 -34 -10 3 -5 15 -9 27 -9 12 0 31 -7 41 -15 19 -14 18 -15 -14
-15 -53 0 -23 -16 54 -29 38 -7 87 -18 109 -26 22 -8 44 -12 49 -9 4 3 19 -3
33 -12 14 -9 25 -12 25 -6 0 15 -22 29 -60 37 -19 4 -40 12 -47 17 -7 5 -17 7
-22 4 -5 -4 -12 -2 -15 3 -4 5 -2 12 4 16 18 11 133 13 150 2 11 -6 28 -7 46
-2 l29 9 -40 7 c-39 7 -39 7 10 5 38 -1 49 -5 48 -16 -3 -17 52 -21 76 -6 8 5
47 9 87 8 43 -2 75 2 79 8 5 8 11 7 21 -1 16 -13 128 -3 119 12 -4 5 1 9 9 9
8 0 18 -4 21 -10 10 -16 65 -12 65 5 0 8 7 15 15 15 10 0 15 -7 13 -17 -2 -11
3 -18 14 -18 9 0 20 -4 24 -8 4 -4 12 -3 18 2 18 15 99 18 103 4 3 -8 -4 -13
-16 -13 -12 0 -21 -5 -21 -11 0 -8 12 -10 35 -6 19 3 35 2 35 -4 0 -5 4 -9 10
-9 5 0 7 7 4 15 -8 20 15 48 30 36 6 -4 75 -7 154 -5 132 3 142 2 142 -15 0
-15 8 -18 47 -17 58 1 73 26 16 27 l-38 1 40 9 c42 10 65 6 65 -11 0 -6 -4 -8
-10 -5 -5 3 -10 -1 -10 -10 0 -15 4 -14 36 4 22 13 51 21 77 20 23 -1 54 3 68
9 14 6 44 9 68 8 23 -1 44 1 47 5 2 4 17 4 32 0 28 -7 246 -6 618 4 178 4 254
10 320 26 5 1 17 -1 26 -5 9 -4 25 -3 35 3 16 9 16 10 -4 11 -13 0 -23 6 -23
14 0 8 -5 16 -12 18 -26 9 5 26 40 23 32 -4 33 -3 7 3 l-30 7 30 30 c17 17 30
36 31 43 1 6 2 28 3 47 1 32 4 35 32 35 17 0 28 4 24 10 -3 6 -17 10 -31 10
-28 0 -34 33 -8 48 15 8 15 10 -1 16 -14 5 -15 9 -5 21 7 8 8 15 3 15 -8 0
-33 55 -33 73 0 4 11 7 25 7 14 0 25 5 25 11 0 7 -12 9 -31 7 -25 -4 -34 0
-47 21 -37 59 -57 76 -92 78 -19 2 -51 4 -70 6 -19 2 -52 0 -73 -4 -31 -5 -37
-4 -32 8 4 13 -1 14 -32 8 -21 -4 -42 -10 -48 -14 -15 -12 -555 -12 -555 -1 0
6 -7 10 -16 10 -8 0 -12 -4 -9 -10 3 -5 -1 -10 -9 -10 -8 0 -18 5 -22 11 -5 8
-31 10 -83 6 -42 -3 -70 -3 -63 0 19 7 14 23 -8 23 -12 0 -17 -5 -14 -14 3 -9
-5 -15 -23 -18 -48 -9 -161 -9 -166 -1 -6 10 -29 9 -157 -6 -47 -5 -143 -12
-215 -15 -71 -3 -156 -10 -188 -16 -41 -8 -62 -8 -71 -1 -8 7 -16 7 -23 0 -15
-15 -245 -31 -343 -24 -47 4 -121 9 -165 12 -117 7 -110 18 13 20 59 1 127 2
151 2 34 1 42 4 37 16 -3 10 1 15 13 15 26 0 51 10 51 21 0 5 -12 4 -26 -1
-14 -6 -40 -10 -59 -10 -19 0 -46 -5 -62 -11 -15 -6 -59 -10 -98 -9 -81 2
-116 20 -40 20 93 1 238 11 249 18 6 3 -2 10 -19 13 l-30 7 35 1 c19 0 48 -6
63 -14 22 -11 34 -12 49 -4 10 6 34 9 51 8 18 -2 38 0 45 5 7 4 80 7 163 7
108 -1 149 1 149 10 0 9 -24 10 -92 5 -59 -5 -89 -4 -83 2 13 13 269 32 426
32 68 0 131 5 139 10 10 7 -16 10 -82 10 -113 0 -141 14 -33 16 96 2 129 15
60 24 -27 4 -58 3 -67 -1 -9 -5 -47 -9 -85 -8 -47 0 -62 3 -48 9 15 6 6 9 -32
9 -29 1 -53 -2 -53 -6 1 -18 17 -32 45 -36 17 -2 2 -5 -32 -6 -39 0 -63 3 -63
10 0 6 9 8 20 4 11 -4 20 -2 20 4 0 12 -47 15 -230 11 -69 -1 -129 -6 -134
-11 -6 -5 -24 -8 -40 -8 -31 2 -31 2 -3 6 39 6 33 22 -7 20 -33 -2 -64 -17
-36 -17 7 0 11 -2 8 -5 -3 -3 -47 -7 -99 -10 -52 -2 -86 -2 -76 1 21 7 23 24
3 24 -8 0 -18 5 -22 12 -4 6 -3 8 4 5 16 -11 42 3 42 23 0 15 17 18 161 24
109 4 166 3 174 -4 9 -8 15 -8 20 0 3 5 0 11 -7 11 -7 1 14 5 47 9 33 4 64 3
70 -2 5 -4 20 -8 35 -9 25 -1 25 -1 -5 -14 -16 -8 -51 -14 -77 -15 -27 0 -48
-4 -48 -8 0 -12 219 -3 252 10 15 5 25 15 22 23 -4 8 9 14 42 18 25 2 49 9 53
13 3 5 31 9 61 10 122 1 331 21 342 32 9 9 3 11 -23 7 -70 -9 -148 -14 -289
-20 -80 -3 -161 -8 -180 -10 -32 -4 -33 -4 -10 6 14 6 57 11 97 10 55 -1 76 3
89 16 18 19 24 20 142 29 45 4 85 11 88 15 3 5 -6 9 -20 9 -14 0 -26 4 -26 9
0 14 56 21 168 22 93 1 102 3 102 20 0 15 7 19 34 19 18 0 39 -6 45 -14 10
-12 7 -15 -21 -18 -18 -2 12 -4 66 -5 93 -1 98 0 73 14 -15 8 -25 18 -22 23 4
6 -5 10 -19 10 -14 0 -26 4 -26 9 0 10 -68 20 -88 13 -11 -4 -11 -6 0 -14 8
-5 -34 -8 -107 -7 -148 1 -144 1 -121 -16 19 -15 19 -15 -5 -17 -112 -8 -122
-5 -55 16 28 9 11 19 -30 18 -42 -2 -42 7 -1 10 15 1 27 5 27 9 0 4 18 5 40 2
21 -3 47 -2 57 2 16 7 15 9 -7 15 -14 4 -24 12 -22 18 1 7 -5 12 -14 12 -9 0
-12 5 -8 12 5 8 0 9 -14 6 -12 -4 -22 -2 -22 2 0 5 -2 14 -5 22 -4 10 6 12 46
9 31 -2 52 -8 56 -17 3 -8 13 -14 23 -14 10 0 20 -7 22 -15 5 -24 25 -3 32 35
l6 35 -93 -1 c-70 0 -102 4 -132 18 -63 29 -97 49 -92 54 8 9 57 -8 51 -17 -3
-5 45 -9 110 -9 71 0 116 4 116 10 0 6 -5 10 -11 10 -5 0 -8 4 -5 9 7 10 60
22 99 21 17 0 26 4 22 10 -3 6 -11 7 -17 4 -5 -4 -23 3 -39 15 -15 11 -41 21
-56 22 l-28 1 26 11 c37 17 65 47 51 56 -7 4 -8 12 -1 21 8 13 10 13 18 0 8
-11 27 -14 85 -11 61 2 76 0 76 -12 0 -18 98 -33 113 -18 6 6 8 12 4 12 -4 1
-11 3 -17 4 -5 1 -18 3 -29 4 -27 2 -25 50 3 60 20 8 20 8 1 14 -11 4 -46 8
-79 9 -49 2 -59 6 -66 24 -11 29 -63 22 -78 -11 -14 -31 -47 -40 -93 -25 -28
10 -45 10 -70 1 -37 -13 -89 -15 -89 -3 0 4 16 8 36 8 23 0 41 6 49 17 9 12
27 17 63 17 61 0 72 11 29 30 l-32 14 32 13 c20 8 81 13 160 14 128 1 129 1
131 25 2 23 0 24 -71 22 -39 -1 -117 -5 -172 -9z m-261 -48 c7 -11 -28 -21
-76 -21 -37 0 -51 13 -25 23 21 9 96 7 101 -2z m121 -1 c-3 -5 -14 -10 -23 -9
-14 0 -13 2 3 9 27 11 27 11 20 0z m-348 -14 c4 -3 4 -8 2 -10 -2 -2 -123 -7
-269 -11 -146 -4 -267 -8 -270 -10 -3 -2 -87 -6 -185 -9 -99 -4 -204 -9 -232
-12 -37 -4 -53 -2 -53 6 0 8 -7 9 -17 5 -10 -4 -40 -11 -67 -16 -27 -5 -52
-12 -55 -17 -13 -19 -54 -23 -280 -28 -130 -3 -243 -8 -251 -10 -13 -5 -13 -6
0 -14 8 -6 26 -10 39 -10 23 0 24 -1 6 -20 -26 -29 -13 -34 48 -22 33 6 68 7
92 2 20 -5 44 -6 52 -3 8 3 25 0 37 -7 16 -8 44 -10 82 -6 33 4 174 9 314 11
140 3 345 12 455 21 217 17 302 14 398 -17 34 -11 67 -17 74 -15 7 3 13 2 13
-3 0 -19 -1437 -34 -1575 -16 -44 5 -55 10 -55 25 0 25 -10 50 -20 50 -5 0
-11 -17 -13 -37 -3 -31 -4 -29 -5 15 -2 48 10 70 21 40 3 -10 8 -9 18 3 17 20
80 32 224 44 33 3 75 6 94 8 21 2 35 -2 38 -11 5 -11 22 -12 87 -7 112 8 137
34 37 39 -28 2 -54 6 -58 9 -6 7 49 12 77 8 84 -14 130 -16 130 -5 0 26 93 33
117 9 10 -11 22 -13 37 -8 11 4 72 8 134 7 61 0 112 4 112 8 0 5 69 8 153 7
157 -2 418 9 427 18 6 6 80 -3 87 -11z m-1314 -33 c-18 -2 -48 -2 -65 0 -18 2
-4 4 32 4 36 0 50 -2 33 -4z m1022 -13 c-27 -4 -53 -5 -57 -3 -5 2 -8 -3 -8
-13 0 -16 14 -16 168 -11 92 3 199 11 237 17 126 19 139 20 129 10 -13 -13
-197 -37 -384 -50 -241 -17 -693 -25 -716 -12 -16 9 -9 11 39 12 42 0 57 4 57
14 0 20 14 23 125 26 55 1 156 5 225 9 69 5 150 8 180 8 l55 0 -50 -7z m-665
-36 c-41 -8 -82 -11 -90 -7 -21 9 40 20 110 21 l55 0 -75 -14z m-106 -29 c113
-4 121 -6 103 -16 -9 -6 -66 -13 -125 -16 -99 -6 -106 -5 -93 10 7 10 10 18 5
18 -5 1 7 5 26 8 19 4 39 5 44 2 6 -2 24 -5 40 -6z m1206 5 c-20 -13 -33 -13
-25 0 3 6 14 10 23 10 15 0 15 -2 2 -10z m-1403 -17 c-15 -2 -25 -8 -22 -13 3
-5 -47 -9 -117 -8 -68 1 -130 0 -138 -3 -8 -2 -17 1 -20 6 -3 6 25 12 70 15
93 7 265 9 227 3z m401 -10 c-10 -2 -28 -2 -40 0 -13 2 -5 4 17 4 22 1 32 -1
23 -4z m897 -9 c-44 -15 -158 -20 -220 -10 -70 12 -70 12 80 13 83 0 146 -1
140 -3z m135 -9 c0 -12 -54 -25 -74 -18 -17 6 -14 8 19 14 22 3 43 7 48 8 4 0
7 -1 7 -4z m215 -5 c-3 -5 -24 -10 -45 -10 -29 0 -42 -5 -50 -19 -7 -14 -7
-20 2 -23 17 -6 0 -28 -22 -28 -10 0 -22 5 -25 11 -5 7 -14 3 -26 -10 -13 -14
-32 -21 -56 -21 -20 0 -33 3 -29 8 8 7 13 8 42 11 8 0 12 6 9 11 -4 7 -44 8
-111 5 -71 -5 -104 -3 -104 4 0 6 14 11 30 11 17 0 30 4 30 9 0 4 38 8 84 7
72 -1 86 2 89 16 5 17 34 23 135 26 33 1 51 -2 47 -8z m-45 -60 c0 -5 -2 -10
-4 -10 -3 0 -8 5 -11 10 -3 6 -1 10 4 10 6 0 11 -4 11 -10z m-1900 -32 c9 -5
0 -6 -24 -2 -34 6 -38 5 -33 -10 4 -10 1 -16 -7 -16 -7 0 -28 -3 -45 -6 -24
-5 -31 -3 -31 9 0 8 6 18 13 20 9 4 8 8 -3 16 -19 13 107 3 130 -11z m1015 6
c-93 -12 -637 -19 -609 -8 10 4 505 20 664 21 25 0 0 -5 -55 -13z m334 12 c-2
-3 -36 -7 -74 -9 -42 -3 -60 -2 -45 3 26 8 126 13 119 6z m138 -2 c-3 -3 -12
-4 -19 -1 -8 3 -5 6 6 6 11 1 17 -2 13 -5z m-1350 -10 c-3 -3 -12 -4 -19 -1
-8 3 -5 6 6 6 11 1 17 -2 13 -5z m1489 -9 c-32 -17 -56 -19 -56 -6 0 12 19 19
55 20 l30 1 -29 -15z m-1799 -27 c-3 -7 -5 -2 -5 12 0 14 2 19 5 13 2 -7 2
-19 0 -25z m2073 17 c0 -15 -46 -32 -58 -21 -3 4 4 9 16 13 12 3 22 9 22 14 0
5 5 9 10 9 6 0 10 -7 10 -15z m-737 -2 c-7 -2 -21 -2 -30 0 -10 3 -4 5 12 5
17 0 24 -2 18 -5z m170 0 c-24 -2 -62 -2 -85 0 -24 2 -5 4 42 4 47 0 66 -2 43
-4z m-47 -25 c3 -4 -23 -9 -58 -9 -297 -7 -478 -7 -563 -1 l-100 7 100 6 c143
8 616 6 621 -3z m-871 -8 c4 -6 -7 -10 -26 -10 -24 0 -30 -3 -22 -11 7 -7 28
-9 55 -5 68 11 144 16 130 10 -6 -3 -10 -10 -6 -15 7 -12 -277 -11 -296 1 -11
7 -1 10 34 10 59 0 58 7 -3 14 -75 8 -58 16 37 16 50 0 94 -4 97 -10z m955 0
c11 -7 4 -10 -25 -10 -29 0 -36 3 -25 10 8 5 20 10 25 10 6 0 17 -5 25 -10z
m73 3 c-7 -2 -21 -2 -30 0 -10 3 -4 5 12 5 17 0 24 -2 18 -5z m-1453 -13 c0
-5 -4 -10 -10 -10 -5 0 -10 5 -10 10 0 6 5 10 10 10 6 0 10 -4 10 -10z m1843
3 c-7 -2 -19 -2 -25 0 -7 3 -2 5 12 5 14 0 19 -2 13 -5z m-1725 -10 c-10 -2
-28 -2 -40 0 -13 2 -5 4 17 4 22 1 32 -1 23 -4z m706 -3 c60 0 107 -2 104 -5
-10 -11 -318 -6 -336 5 -13 9 0 10 53 6 39 -3 119 -6 179 -6z m-1007 -22 c-3
-8 -6 -5 -6 6 -1 11 2 17 5 13 3 -3 4 -12 1 -19z m1160 16 c-3 -3 -12 -4 -19
-1 -8 3 -5 6 6 6 11 1 17 -2 13 -5z m650 -7 c4 -4 -190 -26 -292 -32 -44 -3
-110 -8 -146 -11 -37 -4 -122 0 -190 7 l-124 14 85 7 c47 4 183 9 302 10 119
2 220 6 224 10 6 7 133 2 141 -5z m143 -34 c13 -12 8 -14 -39 -11 -56 3 -81
23 -39 31 30 5 60 -2 78 -20z m-1577 1 c15 -3 25 -10 21 -15 -3 -5 6 -9 20 -9
14 0 26 -4 26 -9 0 -14 252 -27 635 -31 l100 -1 -55 -19 c-30 -11 -66 -19 -80
-18 -14 1 -45 -2 -70 -5 -40 -6 -42 -5 -17 5 28 12 39 35 11 24 -9 -3 -28 -6
-44 -6 -16 0 -36 -7 -45 -16 -14 -14 -36 -15 -185 -9 -133 6 -170 10 -170 21
0 8 -29 22 -75 35 -41 12 -72 25 -70 29 5 7 -88 19 -159 21 -23 0 -50 5 -61
10 -20 9 162 3 218 -7z m552 6 c33 -5 -12 -7 -135 -7 -124 0 -162 3 -115 7
100 9 192 9 250 0z m-400 -9 l40 -9 -35 0 c-19 0 -46 4 -60 8 -20 6 -21 8 -5
8 11 1 38 -3 60 -7z m634 -17 c2 -2 -23 -4 -57 -4 -33 0 -64 4 -67 10 -5 9
114 3 124 -6z m477 -6 c-9 -5 -29 -8 -44 -6 -26 4 -26 4 8 15 39 11 62 6 36
-9z m-1599 -20 c-3 -7 -5 -2 -5 12 0 14 2 19 5 13 2 -7 2 -19 0 -25z m933 21
c13 -9 12 -10 -2 -5 -10 3 -18 1 -18 -5 0 -7 -28 -9 -82 -5 -46 2 -128 6 -183
7 -92 2 -95 3 -40 9 102 11 309 11 325 -1z m588 -4 c16 -16 -30 -20 -230 -18
-224 2 -317 12 -127 14 57 1 145 5 194 9 89 8 152 6 163 -5z m-1368 -5 c0 -5
-9 -10 -19 -10 -11 0 -23 5 -26 10 -4 6 5 10 19 10 14 0 26 -4 26 -10z m1807
-9 c-9 -3 -40 -4 -69 -1 l-53 4 55 6 c60 6 96 1 67 -9z m-1597 -17 c41 -9 80
-21 85 -26 7 -7 2 -9 -15 -4 -14 4 -61 12 -104 17 -44 5 -82 11 -84 14 -9 9
11 25 26 21 10 -3 51 -13 92 -22z m1280 -4 c-54 -17 -292 -40 -255 -24 10 4
235 31 265 32 8 0 4 -3 -10 -8z m-341 -4 c-2 -2 -33 -6 -67 -10 -44 -5 -62 -4
-57 3 3 6 34 11 67 11 34 0 59 -2 57 -4z m-1064 -17 c13 -6 -11 -7 -70 -4 -49
3 -91 8 -94 10 -9 9 144 4 164 -6z m1555 -3 c0 -2 -9 -6 -20 -9 -11 -3 -20 -1
-20 4 0 5 9 9 20 9 11 0 20 -2 20 -4z m135 -6 c-3 -5 -10 -10 -16 -10 -5 0 -9
5 -9 10 0 6 7 10 16 10 8 0 12 -4 9 -10z m125 -23 c10 -4 7 -6 -7 -6 -13 -1
-23 1 -23 3 0 2 -3 13 -6 23 -6 16 -5 17 7 2 8 -9 21 -19 29 -22z m-702 16
c-16 -2 -40 -2 -55 0 -16 2 -3 4 27 4 30 0 43 -2 28 -4z m-1288 -19 c0 -2 -12
-4 -26 -4 -14 0 -23 4 -20 9 6 8 46 4 46 -5z m1619 12 c-10 -9 -79 -14 -79 -5
0 5 19 9 42 9 23 0 39 -2 37 -4z m-294 -16 c-11 -5 -33 -8 -50 -8 -29 0 -29 0
-5 8 14 4 36 8 50 8 23 1 23 0 5 -8z m78 3 c-7 -2 -19 -2 -25 0 -7 3 -2 5 12
5 14 0 19 -2 13 -5z m-203 -20 c-22 -16 -55 -18 -239 -21 -137 -2 -217 0 -224
7 -7 7 48 10 174 10 101 0 198 4 214 10 17 5 46 10 65 10 l34 1 -24 -17z m283
10 c-7 -2 -21 -2 -30 0 -10 3 -4 5 12 5 17 0 24 -2 18 -5z m-1428 -33 c1 -8 7
-13 15 -11 8 2 43 6 78 9 58 4 87 0 172 -29 14 -5 -37 -6 -120 -3 -186 8 -193
8 -198 22 -2 7 -12 12 -23 12 -10 0 -19 5 -19 11 0 17 95 7 95 -11z m368 5
c-1 -5 3 -16 9 -22 8 -10 2 -13 -26 -13 -20 0 -36 5 -36 10 0 6 9 10 20 10 25
0 26 17 3 24 -11 3 -7 4 7 3 14 -1 24 -6 23 -12z m1447 -11 c12 -12 10 -14
-22 -14 -53 0 -70 8 -55 26 14 16 55 10 77 -12z m-1152 0 c67 -4 122 -10 122
-13 0 -11 -325 -11 -341 0 -10 7 -1 8 29 4 40 -6 59 6 30 19 -7 3 -2 4 12 2
14 -3 80 -8 148 -12z m710 6 c-15 -4 -84 -11 -155 -14 -70 -4 -152 -9 -182
-12 -37 -4 -51 -2 -47 5 4 7 46 11 104 12 53 1 124 5 157 9 33 4 80 7 105 8
38 0 41 -1 18 -8z m737 -20 c3 -5 1 -10 -4 -10 -6 0 -11 5 -11 10 0 6 2 10 4
10 3 0 8 -4 11 -10z m-638 -6 c-3 -3 -12 -4 -19 -1 -8 3 -5 6 6 6 11 1 17 -2
13 -5z m-317 -14 c-8 -5 -23 -10 -33 -10 -10 0 -15 -4 -12 -10 3 -5 18 -10 32
-10 15 0 24 -2 21 -5 -2 -3 -184 -7 -404 -10 -350 -4 -395 -3 -364 9 19 8 29
15 23 15 -7 1 -13 6 -13 12 0 6 12 9 28 7 15 -2 26 -8 24 -15 -2 -15 29 -17
44 -4 11 12 444 19 444 8 0 -9 118 1 159 14 14 4 35 8 46 8 16 1 17 -1 5 -9z
m100 0 c-36 -12 -62 -12 -55 0 3 6 23 10 43 9 33 -1 34 -2 12 -9z m442 -23
c-29 -5 -50 -12 -47 -17 8 -12 -168 -50 -232 -49 l-58 1 85 18 c47 10 103 22
125 26 l40 8 -40 7 c-38 7 -37 7 15 6 30 0 62 3 70 6 22 9 73 14 85 8 6 -3
-14 -9 -43 -14z m-342 3 c12 -8 11 -10 -7 -10 -13 0 -23 5 -23 10 0 13 11 13
30 0z m-1335 -20 c-8 -13 51 -17 127 -8 40 5 89 7 108 5 31 -3 32 -5 13 -12
-13 -4 -23 -11 -23 -15 0 -15 -31 -19 -82 -10 -29 5 -71 11 -93 14 -68 10 -80
13 -77 19 1 4 2 11 2 17 0 5 7 7 15 4 8 -4 13 -10 10 -14z m1228 13 c-13 -2
-33 -2 -45 0 -13 2 -3 4 22 4 25 0 35 -2 23 -4z m-130 -31 c-14 -9 -14 -25 -1
-33 6 -4 -3 -10 -21 -14 -34 -7 -89 1 -108 17 -9 7 -17 7 -27 -1 -10 -8 -23
-7 -52 3 l-39 14 45 6 c96 13 219 18 203 8z m136 4 c-2 -2 -22 -6 -44 -10 -29
-5 -36 -4 -25 3 13 10 79 16 69 7z m-1260 -12 c17 -4 31 -10 31 -15 0 -15 -57
-10 -70 6 -14 17 -8 18 39 9z m521 -24 c45 -6 32 -7 -70 -8 -130 -2 -176 8
-124 25 17 6 49 6 83 0 31 -5 81 -12 111 -17z m287 5 c2 -7 -34 -8 -109 -3
-170 11 -178 15 -29 14 82 -1 136 -5 138 -11z m870 9 c-3 -3 -12 -4 -19 -1 -8
3 -5 6 6 6 11 1 17 -2 13 -5z m-414 -31 c-7 -2 -19 -2 -25 0 -7 3 -2 5 12 5
14 0 19 -2 13 -5z m-718 -14 c59 -2 51 -3 -50 -9 -123 -8 -169 -4 -159 11 3 5
35 7 72 5 37 -2 99 -5 137 -7z m-650 -29 c-4 -12 -9 -19 -12 -17 -3 3 -2 15 2
27 4 12 9 19 12 17 3 -3 2 -15 -2 -27z m395 20 c0 -12 -17 -12 -45 0 -17 7
-15 9 13 9 17 1 32 -3 32 -9z m419 -14 c-9 -8 -191 -16 -202 -9 -7 5 35 10 93
13 102 5 118 4 109 -4z m702 -5 c-12 -8 -51 -4 -51 5 0 2 15 4 33 4 22 0 28
-3 18 -9z m49 -1 c-20 -13 -33 -13 -25 0 3 6 14 10 23 10 15 0 15 -2 2 -10z
m-1064 -17 c16 -6 16 -7 -2 -14 -11 -5 8 -8 51 -8 39 -1 77 -6 85 -11 14 -9 4
-11 -110 -12 -47 -1 -95 4 -79 9 10 2 19 13 22 24 6 21 8 22 33 12z m-46 -13
c0 -5 -7 -10 -16 -10 -8 0 -12 5 -9 10 3 6 10 10 16 10 5 0 9 -4 9 -10z m97 4
c-3 -3 -12 -4 -19 -1 -8 3 -5 6 6 6 11 1 17 -2 13 -5z m135 -1 c-6 -2 -10 -9
-6 -14 3 -5 4 -9 2 -9 -2 1 -25 7 -53 15 l-50 14 60 0 c33 -1 54 -3 47 -6z
m218 -2 c20 -1 22 -3 10 -11 -17 -11 -61 -13 -84 -4 -24 9 -11 20 21 18 15 -1
39 -2 53 -3z m-615 -21 c3 -5 -1 -10 -10 -10 -9 0 -13 5 -10 10 3 6 8 10 10
10 2 0 7 -4 10 -10z m510 -10 c3 -6 -1 -7 -9 -4 -18 7 -21 14 -7 14 6 0 13 -4
16 -10z m-837 -41 c-3 -8 -7 -3 -11 10 -4 17 -3 21 5 13 5 -5 8 -16 6 -23z
m722 11 c13 -9 13 -10 0 -11 -55 -4 -197 4 -204 12 -13 12 185 12 204 -1z
m1010 -4 c0 -2 -9 -6 -20 -9 -11 -3 -20 -1 -20 4 0 5 9 9 20 9 11 0 20 -2 20
-4z m-781 -10 c-12 -10 -79 -16 -79 -6 0 5 19 10 42 10 23 0 39 -2 37 -4z
m381 -10 c-25 -7 -49 -11 -54 -8 -15 8 25 21 64 20 35 0 35 0 -10 -12z m203
-2 c-3 -9 -20 -14 -48 -14 -24 0 -49 -2 -57 -3 -7 -2 -10 -2 -5 0 4 3 7 10 7
17 0 8 19 12 54 13 44 1 54 -1 49 -13z m-302 -5 c-49 -15 -29 -24 47 -21 44 1
60 -1 47 -7 -11 -4 -74 -9 -140 -10 -66 -1 -127 -2 -135 -3 -8 -1 -37 0 -65 1
-36 1 -46 4 -35 11 8 5 10 10 5 10 -6 0 -16 -5 -22 -11 -9 -9 -16 -8 -28 5
-15 15 -12 16 48 16 36 0 67 -4 69 -9 2 -6 35 -7 82 -4 56 4 73 9 61 15 -9 6
-25 8 -36 5 -10 -3 -19 -1 -19 4 0 5 35 9 78 8 67 -1 73 -2 43 -10z m-566 -20
c-4 -5 -17 -9 -31 -9 -27 0 -29 -3 -12 -30 7 -10 9 -22 6 -26 -8 -8 -175 -11
-245 -4 -84 8 -61 20 38 20 53 0 88 4 84 9 -5 9 -20 11 -102 14 -18 0 -33 4
-33 9 0 14 48 20 70 8 24 -13 55 -6 45 10 -3 5 29 10 82 12 95 3 106 2 98 -13z
m-645 -6 c1 -10 3 -43 6 -73 3 -40 1 -51 -7 -43 -6 6 -11 33 -11 59 -1 27 -5
55 -11 62 -7 8 -5 12 7 12 9 0 16 -8 16 -17z m790 9 c0 -4 -16 -6 -35 -4 -19
2 -35 6 -35 8 0 2 16 4 35 4 19 0 35 -4 35 -8z m577 2 c-3 -3 -12 -4 -19 -1
-8 3 -5 6 6 6 11 1 17 -2 13 -5z m-1057 -14 c0 -5 -2 -10 -4 -10 -3 0 -8 5
-11 10 -3 6 -1 10 4 10 6 0 11 -4 11 -10z m525 -33 c141 1 107 -16 -44 -23
-78 -3 -107 -1 -113 8 -14 23 -9 29 20 21 15 -5 77 -7 137 -6z m-208 -93 c-3
-3 -12 -4 -19 -1 -8 3 -5 6 6 6 11 1 17 -2 13 -5z m2022 -23 c-8 -8 -79 -11
-79 -3 0 13 74 29 79 17 2 -5 2 -12 0 -14z m229 14 c3 -3 -16 -5 -42 -5 -26 0
-45 4 -42 8 5 9 75 6 84 -3z m-2415 -2 c-7 -2 -19 -2 -25 0 -7 3 -2 5 12 5 14
0 19 -2 13 -5z m1420 0 c-7 -2 -19 -2 -25 0 -7 3 -2 5 12 5 14 0 19 -2 13 -5z
m125 -17 c2 -9 8 -16 14 -16 5 0 8 7 4 15 -6 17 9 21 20 4 8 -14 -8 -30 -35
-32 -11 -1 -21 -5 -21 -10 0 -10 189 -6 196 5 3 4 -18 8 -45 8 -43 0 -51 3
-51 19 0 21 48 31 135 28 58 -3 75 -11 75 -37 0 -10 9 -22 21 -25 30 -10 64
-90 51 -119 -6 -14 -6 -28 0 -39 5 -10 7 -21 4 -26 -3 -5 1 -11 9 -15 11 -4
14 -17 11 -48 -2 -24 -5 -45 -6 -48 -2 -3 -3 -14 -4 -25 -1 -14 -17 -28 -51
-45 -34 -17 -44 -26 -32 -28 10 -2 24 1 32 8 8 6 16 7 19 2 6 -10 -13 -21 -44
-29 -15 -3 -85 -3 -210 -1 -36 1 -119 0 -185 -2 -66 -2 -154 -3 -195 -2 -41 0
-252 0 -467 -2 -216 -1 -393 -1 -393 1 0 1 10 14 22 28 20 23 23 24 40 9 16
-15 18 -15 24 0 3 9 17 16 31 16 13 0 31 7 39 15 14 13 14 15 0 15 -9 0 -16
-6 -16 -12 0 -7 -6 -4 -12 6 -8 14 -8 24 0 37 8 12 7 22 -3 35 -12 17 -14 16
-28 -16 l-16 -35 4 49 c2 26 8 53 13 58 7 7 10 4 9 -7 -3 -24 20 -31 25 -8 4
20 -22 83 -34 83 -4 0 -8 5 -8 12 0 6 -9 31 -21 55 -23 48 -20 73 11 73 11 0
20 5 20 11 0 6 10 9 23 7 32 -4 27 -32 -7 -38 -25 -4 -27 -7 -13 -18 8 -7 18
-9 21 -4 5 9 49 12 144 12 29 0 41 3 37 11 -4 6 -24 10 -44 8 -62 -3 -88 0
-72 10 11 7 10 10 -5 13 -10 3 19 5 66 4 115 -1 239 7 234 16 -2 4 0 9 6 13 5
3 10 1 10 -4 0 -7 48 -11 140 -11 87 0 140 4 140 10 0 12 22 9 32 -4 4 -6 37
-6 87 0 44 5 93 6 108 2 16 -5 33 -3 42 5 10 8 13 8 8 1 -4 -7 0 -15 9 -18 24
-9 54 -7 54 4 0 6 -9 10 -20 10 -13 0 -17 5 -14 14 8 20 58 13 62 -8z m767 14
c7 -12 -2 -12 -30 0 -19 8 -19 9 2 9 12 1 25 -3 28 -9z m404 -19 c29 -40 26
-65 -4 -43 -9 6 -35 56 -35 67 0 14 21 1 39 -24z m-809 4 c-7 -8 -16 -15 -20
-15 -4 0 -10 7 -14 15 -4 11 2 15 21 15 21 0 24 -2 13 -15z m518 -45 c12 0 22
-3 22 -8 0 -4 -49 -7 -110 -7 -60 0 -110 3 -110 8 0 4 8 7 18 8 70 2 104 7
114 17 9 9 16 8 28 -3 9 -8 26 -15 38 -15z m-2243 10 c-3 -5 -13 -10 -21 -10
-8 0 -12 5 -9 10 3 6 13 10 21 10 8 0 12 -4 9 -10z m2462 4 c-3 -3 -12 -4 -19
-1 -8 3 -5 6 6 6 11 1 17 -2 13 -5z m-2315 -42 c38 -35 26 -41 -16 -8 -19 14
-39 26 -45 26 -6 0 -11 5 -11 11 0 16 42 0 72 -29z m-322 8 c0 -5 -4 -10 -10
-10 -5 0 -10 5 -10 10 0 6 5 10 10 10 6 0 10 -4 10 -10z m253 -25 c10 -14 13
-25 8 -25 -12 0 -51 40 -51 52 0 13 24 -2 43 -27z m1851 26 c3 -5 0 -11 -8
-14 -15 -6 -26 1 -26 15 0 11 27 10 34 -1z m100 -23 c-4 -7 39 -4 96 6 19 3
82 8 139 11 57 3 113 7 125 10 11 3 35 1 51 -4 26 -8 22 -9 -31 -10 -57 -1
-114 -17 -114 -33 0 -13 68 -9 73 5 4 10 7 10 18 0 7 -7 27 -13 44 -14 16 0
23 -3 15 -6 -8 -3 -18 -10 -21 -16 -4 -5 -13 -6 -20 -1 -21 12 -108 14 -153 2
-32 -8 -42 -7 -55 7 -15 15 -14 16 9 10 15 -4 38 0 55 10 29 15 28 16 -56 13
-62 -2 -85 -6 -82 -15 3 -6 14 -14 26 -16 12 -2 1 -5 -24 -6 -32 -1 -49 -6
-53 -17 -3 -8 -11 -12 -17 -9 -7 5 -8 10 0 18 12 12 -42 67 -68 68 -12 0 -12
2 4 8 19 8 47 -7 39 -21z m-1796 -34 c13 -43 16 -102 6 -91 -3 3 -7 21 -9 40
-2 19 -10 48 -19 65 -8 16 -12 32 -9 36 10 9 18 -4 31 -50z m1565 49 c-7 -2
-19 -2 -25 0 -7 3 -2 5 12 5 14 0 19 -2 13 -5z m744 1 c22 -4 31 -14 40 -42 6
-20 10 -39 7 -41 -8 -8 -74 -7 -74 1 0 4 11 8 24 8 18 0 24 5 24 25 0 22 -5
25 -42 26 -22 0 -35 3 -27 6 11 5 11 7 0 14 -17 11 3 12 48 3z m83 -27 c0 -5
-4 -5 -10 -2 -5 3 -10 14 -10 23 0 15 2 15 10 2 5 -8 10 -19 10 -23z m-2610 2
c0 -6 -4 -7 -10 -4 -5 3 -10 11 -10 16 0 6 5 7 10 4 6 -3 10 -11 10 -16z m-30
-10 c0 -6 -4 -7 -10 -4 -5 3 -10 11 -10 16 0 6 5 7 10 4 6 -3 10 -11 10 -16z
m1960 1 c11 -7 6 -10 -21 -10 -33 0 -37 -3 -35 -25 1 -27 15 -32 34 -13 9 9
12 9 12 -4 0 -11 7 -14 25 -10 26 5 34 27 13 35 -7 3 -4 6 6 6 11 1 30 -9 43
-21 19 -18 34 -21 103 -20 43 0 84 3 90 7 5 3 33 5 62 4 34 -2 53 1 56 10 3 8
8 9 16 2 20 -17 100 -31 107 -19 4 6 14 3 27 -10 19 -19 19 -21 4 -25 -22 -5
29 -27 64 -27 33 0 31 18 -3 22 -32 4 -44 28 -14 28 12 0 21 -4 21 -10 0 -5
11 -10 25 -10 21 0 25 -5 25 -30 0 -25 -4 -30 -25 -30 -25 0 -36 -19 -12 -21
27 -1 -30 -18 -65 -18 -25 -1 -38 4 -38 12 0 9 -11 12 -35 9 -19 -2 -35 -8
-35 -13 0 -5 -11 -9 -24 -9 -14 0 -28 -5 -31 -10 -4 -7 19 -9 68 -6 41 2 80 1
86 -4 21 -12 -83 -21 -304 -26 -145 -4 -212 -9 -217 -17 -11 -18 12 -27 70
-27 50 0 52 -1 36 -17 -15 -16 -15 -17 2 -24 28 -11 46 -10 39 1 -7 11 0 12
33 4 27 -8 29 -24 3 -24 -11 0 -22 -4 -25 -9 -3 -5 -42 -9 -85 -10 -59 -1 -83
3 -94 14 -9 8 -24 15 -34 15 -17 1 -17 1 0 15 17 12 12 14 -52 21 -93 9 -92
26 2 23 60 -2 73 0 75 14 2 12 -3 17 -20 17 -13 0 -30 5 -38 10 -12 7 -10 11
10 18 l24 9 -23 12 c-26 14 -53 -1 -44 -25 9 -25 -13 -15 -36 16 -12 17 -21
41 -20 53 1 12 0 29 -3 37 -31 93 -31 90 21 90 20 0 45 7 55 15 23 17 54 19
76 5z m595 -10 c-3 -5 -15 -10 -25 -10 -10 0 -22 5 -25 10 -4 6 7 10 25 10 18
0 29 -4 25 -10z m-2571 -16 c8 -22 8 -24 -8 -24 -18 0 -29 16 -21 30 9 15 22
12 29 -6z m57 -95 c11 -11 18 -23 15 -26 -3 -3 -12 2 -21 11 -9 9 -21 16 -26
16 -5 0 -9 5 -9 10 0 16 19 11 41 -11z m173 5 c9 -23 7 -36 -3 -30 -12 8 -21
46 -11 46 4 0 11 -7 14 -16z m-233 -11 c16 -10 29 -24 29 -32 0 -10 -8 -8 -27
10 -16 13 -32 27 -37 31 -18 15 6 8 35 -9z m-171 -3 c0 -5 -4 -10 -10 -10 -5
0 -10 5 -10 10 0 6 5 10 10 10 6 0 10 -4 10 -10z m50 -56 c-15 -17 -30 -9 -30
17 0 17 3 18 21 9 16 -9 18 -14 9 -26z m-57 19 c-7 -2 -19 -2 -25 0 -7 3 -2 5
12 5 14 0 19 -2 13 -5z m492 -35 c5 -18 3 -28 -4 -28 -6 0 -11 6 -11 13 0 6
-3 23 -6 37 -5 17 -4 22 4 15 6 -5 14 -22 17 -37z m-555 7 c0 -8 -4 -15 -10
-15 -5 0 -10 7 -10 15 0 8 5 15 10 15 6 0 10 -7 10 -15z m390 -1 c0 -8 -4 -12
-10 -9 -5 3 -10 10 -10 16 0 5 5 9 10 9 6 0 10 -7 10 -16z m110 -39 c0 -10
-10 -15 -27 -15 l-28 1 25 14 c31 18 30 18 30 0z m-455 -5 c3 -5 1 -10 -4 -10
-6 0 -11 5 -11 10 0 6 2 10 4 10 3 0 8 -4 11 -10z m245 -16 c0 -8 -5 -12 -10
-9 -6 4 -8 11 -5 16 9 14 15 11 15 -7z m148 -8 c1 -19 -4 -25 -26 -29 -15 -3
-27 -5 -28 -4 -1 1 -4 14 -8 30 -6 25 -4 27 27 27 27 0 33 -4 35 -24z m2175
-3 c-7 -2 -21 -2 -30 0 -10 3 -4 5 12 5 17 0 24 -2 18 -5z m187 -13 c-8 -16
-17 -19 -33 -14 -12 3 -24 8 -27 11 -8 7 24 23 48 23 20 0 21 -3 12 -20z
m-2296 -14 c-3 -9 -10 -13 -16 -10 -5 3 -4 12 3 20 15 18 22 13 13 -10z m2061
12 l30 2 -25 -20 c-26 -21 -56 -27 -45 -10 3 6 -1 13 -9 16 -9 3 -13 10 -10
15 3 5 11 6 17 2 6 -4 25 -6 42 -5z m-2200 -18 c-3 -5 -10 -10 -16 -10 -5 0
-9 5 -9 10 0 6 7 10 16 10 8 0 12 -4 9 -10z m2362 4 c-3 -3 -12 -4 -19 -1 -8
3 -5 6 6 6 11 1 17 -2 13 -5z m-2493 -19 c-4 -8 -8 -15 -10 -15 -2 0 -4 7 -4
15 0 8 4 15 10 15 5 0 7 -7 4 -15z m176 -40 c-11 -13 -15 -13 -21 -3 -5 8 -2
15 9 19 23 9 27 3 12 -16z m2080 5 c12 -8 9 -10 -13 -10 -16 0 -26 4 -22 10 8
12 16 12 35 0z m-1452 -51 c-12 -7 -24 -7 -35 0 -15 9 -12 10 17 10 29 0 32
-1 18 -10z"/>
<path d="M198 1953 c7 -3 16 -2 19 1 4 3 -2 6 -13 5 -11 0 -14 -3 -6 -6z"/>
<path d="M208 1853 c7 -3 16 -2 19 1 4 3 -2 6 -13 5 -11 0 -14 -3 -6 -6z"/>
<path d="M1118 1513 c6 -2 18 -2 25 0 6 3 1 5 -13 5 -14 0 -19 -2 -12 -5z"/>
<path d="M1048 1503 c12 -2 30 -2 40 0 9 3 -1 5 -23 4 -22 0 -30 -2 -17 -4z"/>
<path d="M1300 1460 c-12 -8 -9 -10 12 -10 15 0 30 5 33 10 8 13 -25 13 -45 0z"/>
<path d="M1575 1050 c-3 -5 1 -10 9 -10 9 0 16 5 16 10 0 6 -4 10 -9 10 -6 0
-13 -4 -16 -10z"/>
<path d="M1907 1034 c-16 -9 -27 -10 -27 -4 0 16 -47 12 -54 -5 -4 -12 3 -15
32 -14 20 0 55 3 77 8 36 6 38 8 20 18 -15 8 -27 8 -48 -3z"/>
<path d="M1365 1020 c3 -5 13 -10 21 -10 8 0 14 5 14 10 0 6 -9 10 -21 10 -11
0 -17 -4 -14 -10z"/>
<path d="M1508 1023 c7 -3 16 -2 19 1 4 3 -2 6 -13 5 -11 0 -14 -3 -6 -6z"/>
<path d="M1608 1023 c6 -2 18 -2 25 0 6 3 1 5 -13 5 -14 0 -19 -2 -12 -5z"/>
<path d="M1713 1023 c9 -2 25 -2 35 0 9 3 1 5 -18 5 -19 0 -27 -2 -17 -5z"/>
<path d="M1585 990 c4 -6 11 -8 16 -5 14 9 11 15 -7 15 -8 0 -12 -5 -9 -10z"/>
<path d="M1245 980 c-3 -5 1 -10 10 -10 9 0 13 5 10 10 -3 6 -8 10 -10 10 -2
0 -7 -4 -10 -10z"/>
<path d="M1428 983 c7 -3 16 -2 19 1 4 3 -2 6 -13 5 -11 0 -14 -3 -6 -6z"/>
<path d="M1098 973 c7 -3 16 -2 19 1 4 3 -2 6 -13 5 -11 0 -14 -3 -6 -6z"/>
<path d="M1173 973 c9 -2 23 -2 30 0 6 3 -1 5 -18 5 -16 0 -22 -2 -12 -5z"/>
<path d="M2140 970 c0 -5 6 -10 14 -10 8 0 18 5 21 10 3 6 -3 10 -14 10 -12 0
-21 -4 -21 -10z"/>
<path d="M1930 950 c0 -5 5 -10 11 -10 5 0 7 5 4 10 -3 6 -8 10 -11 10 -2 0
-4 -4 -4 -10z"/>
<path d="M1868 943 c7 -3 16 -2 19 1 4 3 -2 6 -13 5 -11 0 -14 -3 -6 -6z"/>
<path d="M1625 929 c-5 -7 8 -8 41 -3 64 9 68 14 11 14 -25 0 -49 -5 -52 -11z"/>
<path d="M1738 933 c7 -3 16 -2 19 1 4 3 -2 6 -13 5 -11 0 -14 -3 -6 -6z"/>
<path d="M1548 923 c6 -2 18 -2 25 0 6 3 1 5 -13 5 -14 0 -19 -2 -12 -5z"/>
<path d="M1500 909 c0 -5 5 -7 10 -4 6 3 10 8 10 11 0 2 -4 4 -10 4 -5 0 -10
-5 -10 -11z"/>
<path d="M1370 906 c0 -2 7 -7 16 -10 8 -3 12 -2 9 4 -6 10 -25 14 -25 6z"/>
<path d="M2140 891 c0 -5 9 -7 20 -4 11 3 20 7 20 9 0 2 -9 4 -20 4 -11 0 -20
-4 -20 -9z"/>
<path d="M1978 743 c7 -3 16 -2 19 1 4 3 -2 6 -13 5 -11 0 -14 -3 -6 -6z"/>
<path d="M1634 728 c-7 -10 26 -9 51 2 16 7 14 9 -13 7 -19 -1 -36 -5 -38 -9z"/>
<path d="M1748 733 c7 -3 16 -2 19 1 4 3 -2 6 -13 5 -11 0 -14 -3 -6 -6z"/>
<path d="M1788 733 c6 -2 18 -2 25 0 6 3 1 5 -13 5 -14 0 -19 -2 -12 -5z"/>
<path d="M1367 710 c3 -11 9 -20 15 -20 5 0 4 9 -2 20 -6 11 -12 20 -14 20 -2
0 -2 -9 1 -20z"/>
<path d="M1438 723 c7 -3 16 -2 19 1 4 3 -2 6 -13 5 -11 0 -14 -3 -6 -6z"/>
<path d="M1518 723 c6 -2 18 -2 25 0 6 3 1 5 -13 5 -14 0 -19 -2 -12 -5z"/>
<path d="M1260 710 c0 -5 4 -10 9 -10 6 0 13 5 16 10 3 6 -1 10 -9 10 -9 0
-16 -4 -16 -10z"/>
<path d="M2145 700 c3 -5 10 -10 16 -10 5 0 9 5 9 10 0 6 -7 10 -16 10 -8 0
-12 -4 -9 -10z"/>
<path d="M1718 693 c7 -3 16 -2 19 1 4 3 -2 6 -13 5 -11 0 -14 -3 -6 -6z"/>
<path d="M1808 693 c6 -2 18 -2 25 0 6 3 1 5 -13 5 -14 0 -19 -2 -12 -5z"/>
<path d="M1790 664 l-25 -14 33 0 c22 0 32 5 32 15 0 18 -7 18 -40 -1z"/>
<path d="M2083 663 c9 -2 25 -2 35 0 9 3 1 5 -18 5 -19 0 -27 -2 -17 -5z"/>
<path d="M1548 653 c7 -3 16 -2 19 1 4 3 -2 6 -13 5 -11 0 -14 -3 -6 -6z"/>
<path d="M1608 653 c7 -3 16 -2 19 1 4 3 -2 6 -13 5 -11 0 -14 -3 -6 -6z"/>
<path d="M2860 901 c0 -5 5 -13 10 -16 6 -3 10 -2 10 4 0 5 -4 13 -10 16 -5 3
-10 2 -10 -4z"/>
<path d="M3060 900 c0 -5 5 -10 11 -10 5 0 7 5 4 10 -3 6 -8 10 -11 10 -2 0
-4 -4 -4 -10z"/>
<path d="M3096 901 c-3 -5 6 -8 19 -8 14 0 25 3 25 8 0 5 -9 9 -19 9 -11 0
-22 -4 -25 -9z"/>
<path d="M3191 893 c12 -15 12 -16 -3 -10 -12 4 -18 2 -18 -8 0 -8 4 -15 10
-15 5 0 7 -7 4 -15 -5 -11 0 -14 22 -12 43 5 63 17 57 32 -4 11 -9 12 -23 2
-25 -15 -40 1 -17 18 16 12 16 13 -5 19 -36 9 -41 7 -27 -11z"/>
<path d="M2970 890 c-13 -9 -13 -10 0 -11 10 0 8 -3 -5 -9 -16 -7 -13 -9 18
-9 35 -1 36 0 25 19 -15 23 -17 23 -38 10z"/>
<path d="M3018 893 c7 -3 16 -2 19 1 4 3 -2 6 -13 5 -11 0 -14 -3 -6 -6z"/>
<path d="M2625 869 c-10 -15 1 -23 20 -15 9 3 13 10 10 16 -8 13 -22 13 -30
-1z"/>
<path d="M2790 867 c0 -9 11 -14 30 -14 37 0 34 21 -3 25 -18 2 -27 -1 -27
-11z"/>
<path d="M3075 870 c-4 -6 7 -10 25 -10 18 0 29 4 25 10 -3 6 -15 10 -25 10
-10 0 -22 -4 -25 -10z"/>
<path d="M3125 830 c-3 -5 1 -10 10 -10 9 0 13 5 10 10 -3 6 -8 10 -10 10 -2
0 -7 -4 -10 -10z"/>
<path d="M3050 820 c0 -13 11 -13 30 0 12 8 11 10 -7 10 -13 0 -23 -4 -23 -10z"/>
<path d="M3285 817 c-16 -13 -15 -14 13 -9 18 2 29 8 26 13 -7 12 -17 11 -39
-4z"/>
<path d="M2958 813 c6 -2 18 -2 25 0 6 3 1 5 -13 5 -14 0 -19 -2 -12 -5z"/>
<path d="M2620 790 c0 -5 5 -10 10 -10 6 0 10 5 10 10 0 6 -4 10 -10 10 -5 0
-10 -4 -10 -10z"/>
<path d="M2815 790 c-4 -6 15 -10 52 -9 48 1 53 3 28 9 -44 11 -73 11 -80 0z"/>
<path d="M2982 788 c-9 -4 16 -6 56 -6 39 0 72 4 72 9 0 10 -100 8 -128 -3z"/>
<path d="M2765 670 c3 -5 11 -10 16 -10 6 0 7 5 4 10 -3 6 -11 10 -16 10 -6 0
-7 -4 -4 -10z"/>
<path d="M590 2150 c0 -5 5 -10 10 -10 6 0 10 5 10 10 0 6 -4 10 -10 10 -5 0
-10 -4 -10 -10z"/>
<path d="M3689 2135 c33 -15 56 -12 46 6 -4 5 -23 9 -43 9 l-37 -1 34 -14z"/>
<path d="M2518 2103 c6 -2 18 -2 25 0 6 3 1 5 -13 5 -14 0 -19 -2 -12 -5z"/>
<path d="M2610 2070 c0 -5 5 -10 10 -10 6 0 10 5 10 10 0 6 -4 10 -10 10 -5 0
-10 -4 -10 -10z"/>
<path d="M2680 2071 c0 -5 9 -7 20 -4 11 3 20 7 20 9 0 2 -9 4 -20 4 -11 0
-20 -4 -20 -9z"/>
<path d="M3415 2030 c-17 -7 -17 -9 -2 -9 9 -1 17 -6 17 -12 0 -6 -6 -9 -12
-7 -7 3 -46 1 -86 -3 -82 -9 -160 -15 -312 -25 -58 -4 -96 -10 -85 -14 19 -6
418 13 494 24 20 3 44 5 53 6 16 0 15 3 -4 25 -23 27 -31 29 -63 15z m45 -22
c0 -6 -6 -5 -15 2 -8 7 -15 14 -15 16 0 2 7 1 15 -2 8 -4 15 -11 15 -16z"/>
<path d="M3618 2013 c-31 -5 -39 -23 -10 -23 28 0 62 12 62 21 0 9 -4 9 -52 2z"/>
<path d="M3532 1988 c5 -15 48 -24 48 -10 0 10 -23 22 -42 22 -5 0 -8 -6 -6
-12z"/>
<path d="M2630 1980 c0 -6 7 -10 15 -10 8 0 15 2 15 4 0 2 -7 6 -15 10 -8 3
-15 1 -15 -4z"/>
<path d="M2815 1960 c-23 -6 -16 -8 33 -9 35 0 61 3 58 7 -6 11 -51 11 -91 2z"/>
<path d="M2666 1934 c-10 -26 -7 -34 12 -34 25 0 31 7 25 31 -6 23 -28 25 -37
3z"/>
<path d="M2468 1903 c10 -4 9 -8 -5 -19 -19 -14 -7 -19 21 -8 24 9 19 34 -6
33 -13 0 -17 -3 -10 -6z"/>
<path d="M3230 1890 c0 -5 4 -10 9 -10 6 0 13 5 16 10 3 6 -1 10 -9 10 -9 0
-16 -4 -16 -10z"/>
<path d="M3500 1890 c0 -5 7 -10 15 -10 8 0 15 5 15 10 0 6 -7 10 -15 10 -8 0
-15 -4 -15 -10z"/>
<path d="M3460 1820 c0 -13 11 -13 30 0 12 8 11 10 -7 10 -13 0 -23 -4 -23
-10z"/>
<path d="M2353 1793 c-14 -3 -20 -9 -16 -19 7 -18 42 -18 67 1 11 8 15 15 9
15 -6 0 -17 2 -25 4 -7 2 -23 1 -35 -1z"/>
<path d="M3035 1773 c-200 -15 -291 -26 -299 -33 -17 -16 32 -20 68 -5 21 9
41 14 44 11 3 -3 0 -6 -6 -6 -7 0 -12 -5 -12 -12 0 -7 6 -5 18 4 12 11 53 18
142 23 69 4 135 7 147 7 12 -1 25 3 28 8 6 10 -38 11 -130 3z"/>
<path d="M2456 1755 c4 -8 -1 -17 -10 -21 -29 -11 -17 -24 22 -24 21 0 47 -7
58 -15 26 -20 65 -20 58 0 -7 18 3 21 81 30 96 11 41 28 -71 22 -77 -4 -94 -3
-94 9 0 8 -10 14 -25 14 -17 0 -23 -4 -19 -15z"/>
<path d="M3555 1760 c-3 -5 1 -10 9 -10 8 0 18 5 21 10 3 6 -1 10 -9 10 -8 0
-18 -4 -21 -10z"/>
<path d="M3280 1750 c0 -11 19 -14 70 -11 64 5 57 21 -8 21 -35 0 -62 -4 -62
-10z"/>
<path d="M3410 1749 c0 -5 5 -7 10 -4 6 3 10 8 10 11 0 2 -4 4 -10 4 -5 0 -10
-5 -10 -11z"/>
<path d="M3088 1739 c-10 -5 -18 -15 -18 -21 0 -14 83 -3 88 12 3 7 17 8 39 4
26 -5 34 -4 29 5 -9 14 -114 14 -138 0z"/>
<path d="M3665 1670 c3 -5 13 -10 21 -10 8 0 14 -5 14 -12 0 -9 3 -9 11 -1 16
16 2 33 -27 33 -14 0 -22 -4 -19 -10z"/>
<path d="M3230 1660 c-12 -8 -12 -10 5 -9 11 0 29 4 40 9 18 8 18 9 -5 9 -14
0 -32 -4 -40 -9z"/>
<path d="M3579 1666 c-4 -4 -67 -9 -273 -22 -76 -4 -105 -9 -93 -16 10 -5 61
-5 134 1 65 6 144 11 176 11 32 0 57 4 57 10 0 6 11 8 25 4 15 -4 25 -2 25 5
0 10 -42 16 -51 7z"/>
<path d="M2660 1650 c0 -5 5 -10 10 -10 6 0 10 5 10 10 0 6 -4 10 -10 10 -5 0
-10 -4 -10 -10z"/>
<path d="M3059 1626 c-3 -3 -45 -8 -94 -11 -50 -4 -137 -10 -195 -15 -57 -5
-108 -6 -112 -4 -5 3 -16 -2 -25 -12 -16 -16 -15 -16 22 -10 22 3 73 6 114 5
51 0 71 3 66 11 -5 7 2 9 22 3 15 -4 35 -7 43 -6 8 0 33 1 55 2 22 1 60 -3 85
-8 25 -6 56 -10 70 -9 20 0 18 2 -10 9 -33 7 -33 7 12 6 25 -1 44 1 41 6 -2 4
10 7 26 7 43 0 39 16 -6 24 -44 7 -108 8 -114 2z"/>
<path d="M3500 1610 c0 -5 9 -10 19 -10 11 0 23 5 26 10 4 6 -5 10 -19 10 -14
0 -26 -4 -26 -10z"/>
<path d="M3390 1606 c0 -8 48 -12 66 -5 13 5 7 8 -23 8 -24 1 -43 -1 -43 -3z"/>
<path d="M3691 1581 c-23 -15 3 -19 39 -5 l35 12 -30 1 c-16 0 -36 -3 -44 -8z"/>
<path d="M3638 1563 c7 -3 16 -2 19 1 4 3 -2 6 -13 5 -11 0 -14 -3 -6 -6z"/>
<path d="M3358 1553 c6 -2 18 -2 25 0 6 3 1 5 -13 5 -14 0 -19 -2 -12 -5z"/>
<path d="M2713 1543 c9 -2 23 -2 30 0 6 3 -1 5 -18 5 -16 0 -22 -2 -12 -5z"/>
<path d="M2325 1500 c-38 -3 -79 -11 -90 -17 -22 -14 -14 -16 43 -13 22 1 32
-3 30 -12 -3 -13 7 -14 122 -8 25 2 46 -2 48 -8 2 -8 10 -8 27 0 13 6 21 16
18 24 -3 8 7 15 31 20 20 3 36 10 36 16 0 9 -124 8 -265 -2z m159 -31 c-3 -5
-14 -9 -26 -9 -17 0 -18 3 -8 14 12 15 44 10 34 -5z"/>
<path d="M2925 1500 c-28 -7 -28 -8 12 -9 23 0 45 4 48 9 7 11 -16 11 -60 0z"/>
<path d="M2830 1490 c-13 -9 -13 -10 0 -9 8 0 24 4 35 9 l20 9 -20 0 c-11 0
-27 -4 -35 -9z"/>
<path d="M3580 1490 c22 -7 20 -8 -14 -9 -25 -1 -36 -5 -30 -10 11 -11 45 -14
149 -11 71 2 75 3 40 11 -22 4 -58 8 -80 9 -30 0 -36 3 -25 10 11 7 4 9 -25 9
-35 -1 -37 -2 -15 -9z"/>
<path d="M2135 1470 c-16 -7 -13 -9 17 -9 20 -1 40 4 43 9 7 12 -32 12 -60 0z"/>
<path d="M3280 1470 c-120 -9 -110 -7 -110 -21 0 -11 165 -6 233 7 29 6 28 25
-1 22 -9 -1 -64 -5 -122 -8z"/>
<path d="M3130 1450 c-12 -8 -11 -10 8 -10 12 0 22 5 22 10 0 13 -11 13 -30 0z"/>
<path d="M2785 1441 c11 -5 34 -10 50 -10 21 -1 26 -4 16 -10 -20 -13 2 -21
35 -12 38 10 37 23 -1 27 -16 1 -50 5 -75 8 -31 4 -39 3 -25 -3z"/>
<path d="M3040 1440 c0 -5 6 -10 14 -10 8 0 18 5 21 10 3 6 -3 10 -14 10 -12
0 -21 -4 -21 -10z"/>
<path d="M3060 1409 c0 -4 8 -10 18 -12 9 -3 -5 -5 -31 -6 -28 -1 -46 -5 -42
-11 3 -5 35 -7 73 -4 69 6 80 9 69 20 -10 10 -87 22 -87 13z"/>
<path d="M3497 1409 c15 -5 15 -6 -1 -12 -10 -4 -38 -7 -62 -7 -76 0 -48 -18
34 -22 82 -4 102 -1 81 13 -10 6 -2 9 21 9 47 0 110 11 110 19 0 3 -45 6 -100
6 -55 0 -92 -3 -83 -6z"/>
<path d="M3305 1400 c-19 -8 -19 -9 2 -9 12 -1 25 4 28 9 7 12 -2 12 -30 0z"/>
<path d="M3398 1403 c7 -3 16 -2 19 1 4 3 -2 6 -13 5 -11 0 -14 -3 -6 -6z"/>
<path d="M3710 1400 c0 -6 7 -10 15 -10 8 0 15 2 15 4 0 2 -7 6 -15 10 -8 3
-15 1 -15 -4z"/>
<path d="M2168 1393 c7 -3 16 -2 19 1 4 3 -2 6 -13 5 -11 0 -14 -3 -6 -6z"/>
<path d="M3193 1393 c15 -2 37 -2 50 0 12 2 0 4 -28 4 -27 0 -38 -2 -22 -4z"/>
<path d="M2029 1386 c-3 -3 -40 -6 -84 -7 -62 -2 -84 -6 -99 -20 -19 -19 -19
-19 10 -20 29 -1 29 -1 4 -9 -23 -7 -22 -8 10 -9 36 0 70 18 70 38 0 7 21 11
55 11 30 0 55 5 55 10 0 10 -13 14 -21 6z"/>
<path d="M2894 1380 c-13 -5 -14 -9 -6 -14 15 -9 72 2 72 15 0 9 -37 9 -66 -1z"/>
<path d="M1518 1373 c7 -3 16 -2 19 1 4 3 -2 6 -13 5 -11 0 -14 -3 -6 -6z"/>
<path d="M2168 1363 c-11 -14 -1 -15 99 -12 69 3 117 9 124 16 9 9 -13 12 -99
12 -87 0 -113 -4 -124 -16z"/>
<path d="M2410 1376 c0 -9 30 -14 35 -6 4 6 -3 10 -14 10 -12 0 -21 -2 -21 -4z"/>
<path d="M2480 1371 c0 -16 30 -41 50 -41 11 0 19 9 22 25 5 23 2 25 -33 25
-22 0 -39 -4 -39 -9z"/>
<path d="M2575 1370 c4 -6 11 -8 16 -5 14 9 11 15 -7 15 -8 0 -12 -5 -9 -10z"/>
<path d="M3575 1370 c3 -5 26 -10 51 -10 28 0 43 4 39 10 -3 6 -26 10 -51 10
-28 0 -43 -4 -39 -10z"/>
<path d="M1380 1355 c-11 -13 -8 -15 21 -16 28 0 31 -2 14 -9 -18 -8 -17 -9 8
-9 15 -1 27 3 27 8 0 5 8 12 18 14 9 3 -1 6 -23 7 -35 2 -37 3 -15 10 24 8 24
8 -6 9 -17 1 -37 -6 -44 -14z"/>
<path d="M1950 1346 c0 -11 7 -12 28 -7 15 4 34 3 43 -2 18 -11 49 -3 49 13 0
14 -37 12 -43 -2 -4 -10 -6 -10 -6 0 -1 18 -71 16 -71 -2z"/>
<path d="M1140 1339 c0 -11 111 -10 155 1 20 5 0 8 -62 8 -51 0 -93 -4 -93 -9z"/>
<path d="M2270 1330 c-17 -4 -21 -8 -13 -13 16 -10 134 3 127 14 -5 9 -76 9
-114 -1z"/>
<path d="M2150 1320 c-11 -7 0 -10 38 -10 28 0 52 5 52 10 0 13 -70 13 -90 0z"/>
<path d="M3425 1320 c-3 -5 1 -10 10 -10 9 0 13 5 10 10 -3 6 -8 10 -10 10 -2
0 -7 -4 -10 -10z"/>
<path d="M1153 1307 c5 -14 65 -13 79 1 5 5 -9 9 -37 10 -31 0 -45 -4 -42 -11z"/>
<path d="M2090 1310 c0 -5 5 -10 10 -10 6 0 10 5 10 10 0 6 -4 10 -10 10 -5 0
-10 -4 -10 -10z"/>
<path d="M2738 1283 c7 -3 16 -2 19 1 4 3 -2 6 -13 5 -11 0 -14 -3 -6 -6z"/>
<path d="M2510 1250 c-8 -5 -30 -10 -48 -10 -22 0 -32 -4 -30 -12 6 -18 68
-31 93 -20 12 6 48 8 80 5 37 -3 55 -2 51 5 -3 6 -14 8 -24 5 -10 -2 -26 5
-36 16 -20 22 -61 27 -86 11z"/>
<path d="M2682 1253 c37 -2 100 -2 140 0 40 1 10 3 -67 3 -77 0 -110 -1 -73
-3z"/>
<path d="M1985 1240 c-3 -5 3 -10 15 -10 12 0 18 5 15 10 -3 6 -10 10 -15 10
-5 0 -12 -4 -15 -10z"/>
<path d="M278 1233 c7 -3 16 -2 19 1 4 3 -2 6 -13 5 -11 0 -14 -3 -6 -6z"/>
<path d="M2080 1215 c0 -9 9 -15 21 -15 18 0 19 2 9 15 -7 8 -16 15 -21 15 -5
0 -9 -7 -9 -15z"/>
<path d="M2143 1224 c-24 -10 -13 -24 20 -24 33 0 78 19 47 20 -8 0 -24 2 -35
5 -11 2 -26 2 -32 -1z"/>
<path d="M2240 1220 c0 -5 14 -10 30 -10 17 0 30 5 30 10 0 6 -13 10 -30 10
-16 0 -30 -4 -30 -10z"/>
<path d="M1813 1213 c9 -2 23 -2 30 0 6 3 -1 5 -18 5 -16 0 -22 -2 -12 -5z"/>
<path d="M1875 1211 c3 -6 -16 -12 -42 -14 -27 -2 -7 -4 42 -4 55 -1 80 2 65
7 -24 7 -23 7 10 12 26 4 20 5 -23 6 -34 1 -56 -2 -52 -7z"/>
<path d="M2023 1213 c-14 -5 -18 -23 -5 -23 5 0 17 7 28 15 14 11 15 14 4 14
-8 0 -21 -3 -27 -6z"/>
<path d="M1398 1193 c6 -2 18 -2 25 0 6 3 1 5 -13 5 -14 0 -19 -2 -12 -5z"/>
<path d="M1563 1193 c9 -2 25 -2 35 0 9 3 1 5 -18 5 -19 0 -27 -2 -17 -5z"/>
<path d="M1626 1189 c7 -12 124 -11 124 1 0 5 -29 9 -65 8 -35 0 -62 -5 -59
-9z"/>
<path d="M1269 1164 l-21 -11 22 -6 c13 -3 35 -4 49 -2 46 8 144 14 229 14 49
1 82 5 82 11 0 15 -334 9 -361 -6z"/>
<path d="M2130 1170 c-11 -7 -6 -10 22 -10 20 0 40 5 43 10 8 13 -45 13 -65 0z"/>
<path d="M243 1158 c2 -7 14 -12 25 -10 12 2 22 -2 22 -7 0 -6 12 -11 26 -11
14 0 23 4 19 10 -3 6 -15 10 -26 10 -10 0 -19 5 -19 10 0 6 -12 10 -26 10 -16
0 -24 -5 -21 -12z"/>
<path d="M1195 1145 c-23 -10 -25 -13 -10 -13 28 -1 61 13 49 20 -5 3 -22 0
-39 -7z"/>
<path d="M1808 1153 c7 -3 16 -2 19 1 4 3 -2 6 -13 5 -11 0 -14 -3 -6 -6z"/>
<path d="M1315 1120 c3 -5 13 -10 21 -10 8 0 14 5 14 10 0 6 -9 10 -21 10 -11
0 -17 -4 -14 -10z"/>
<path d="M320 1089 c0 -5 4 -9 9 -9 5 0 16 -3 25 -6 9 -3 16 -2 16 4 0 5 -11
12 -25 14 -14 3 -25 1 -25 -3z"/>
<path d="M3458 1093 c7 -3 16 -2 19 1 4 3 -2 6 -13 5 -11 0 -14 -3 -6 -6z"/>
<path d="M410 1035 c0 -19 22 -29 47 -22 16 4 15 6 -4 12 -13 4 -23 11 -23 16
0 5 -4 9 -10 9 -5 0 -10 -7 -10 -15z"/>
<path d="M3565 1040 c3 -5 13 -10 21 -10 8 0 14 5 14 10 0 6 -9 10 -21 10 -11
0 -17 -4 -14 -10z"/>
<path d="M338 1033 c7 -3 16 -2 19 1 4 3 -2 6 -13 5 -11 0 -14 -3 -6 -6z"/>
<path d="M230 1001 c0 -10 87 -31 123 -30 18 0 16 3 -10 12 -17 7 -35 15 -39
20 -11 10 -74 9 -74 -2z"/>
<path d="M390 990 c0 -5 7 -7 15 -4 8 4 15 8 15 10 0 2 -7 4 -15 4 -8 0 -15
-4 -15 -10z"/>
<path d="M398 963 c7 -3 16 -2 19 1 4 3 -2 6 -13 5 -11 0 -14 -3 -6 -6z"/>
<path d="M443 956 c7 -17 -16 -28 -38 -20 -8 4 -15 1 -15 -5 0 -6 -12 -11 -27
-11 -22 0 -25 -2 -13 -10 20 -13 70 -13 70 0 0 6 16 10 36 10 27 0 35 4 32 16
-2 9 -14 21 -27 25 -18 7 -22 6 -18 -5z"/>
<path d="M190 955 c0 -12 49 -23 71 -17 l24 6 -25 7 c-31 9 -70 11 -70 4z"/>
<path d="M3510 950 c0 -12 8 -12 35 0 18 8 17 9 -7 9 -16 1 -28 -3 -28 -9z"/>
<path d="M170 915 c0 -8 2 -15 4 -15 2 0 6 7 10 15 3 8 1 15 -4 15 -6 0 -10
-7 -10 -15z"/>
<path d="M128 880 c-3 -19 -1 -41 5 -48 13 -16 16 -95 7 -174 -3 -32 -3 -61 1
-65 13 -14 13 -177 0 -201 -8 -15 -11 -57 -9 -128 2 -78 0 -104 -9 -104 -7 0
-13 -4 -13 -10 0 -15 27 -12 44 5 14 14 16 14 21 -7 6 -24 10 -25 96 -32 26
-2 56 -7 68 -11 13 -4 21 -2 21 6 0 8 11 10 33 6 43 -7 94 3 75 14 -11 7 -11
9 0 9 7 0 20 -7 29 -16 9 -8 25 -14 37 -13 11 0 30 1 41 0 17 -1 18 -3 5 -11
-11 -8 8 -10 63 -8 79 2 86 5 65 26 -20 20 0 25 39 9 21 -9 31 -16 23 -17 -10
0 -11 -3 -4 -8 7 -4 40 -5 73 -4 50 3 60 6 51 17 -8 10 -7 14 2 18 7 3 -6 6
-29 6 -23 1 -43 6 -45 13 -3 8 -31 15 -69 19 l-64 6 85 1 c79 2 86 4 86 22 0
24 -27 34 -58 24 -13 -4 -36 -9 -53 -11 -108 -10 -145 -11 -150 -2 -4 5 -3 9
2 8 4 -1 13 0 18 1 6 2 19 3 29 4 11 1 21 7 23 14 4 9 -28 12 -135 12 -118 0
-141 2 -146 16 -9 25 -8 25 37 20 78 -10 332 -19 325 -11 -4 4 -44 9 -90 11
-46 2 -108 7 -138 11 -52 6 -53 7 -20 13 l35 6 -39 19 c-29 14 -41 16 -44 7
-5 -16 -29 -15 -34 0 -3 7 -18 11 -37 10 -18 -1 -30 2 -27 7 3 5 56 7 121 4
78 -3 115 -1 115 6 0 6 -21 11 -51 11 -31 0 -48 4 -44 10 3 5 32 9 63 8 31 -1
65 1 75 6 13 6 16 5 12 -5 -4 -11 14 -14 97 -12 57 1 120 3 141 3 34 0 54 18
25 21 -44 5 -61 7 -97 13 -25 4 -41 2 -41 -4 0 -5 -9 -10 -19 -10 -11 0 -22
-6 -24 -12 -3 -8 -6 -6 -6 4 -1 11 -14 21 -38 27 -21 5 -54 14 -73 19 l-35 10
33 1 c49 1 38 21 -12 21 -36 0 -44 -3 -42 -17 0 -10 12 -23 26 -29 20 -9 4
-10 -75 -8 -55 1 -113 7 -130 12 -16 5 -35 7 -42 5 -7 -3 -20 0 -30 6 -16 9
-15 10 7 10 14 0 44 -3 67 -8 46 -9 103 9 103 31 -1 19 -91 62 -100 47 -5 -7
-13 -8 -26 -1 -11 5 -32 7 -47 5 -20 -3 -27 0 -22 7 4 7 16 10 26 7 11 -3 19
0 19 5 0 7 14 8 35 5 19 -3 37 -1 41 5 4 6 9 6 13 1 9 -14 101 -25 101 -13 0
9 -36 15 -67 11 -6 -1 -14 3 -18 9 -3 6 4 10 17 10 47 0 -6 19 -72 25 -88 8
-110 13 -110 26 0 15 123 2 169 -17 39 -16 71 -18 71 -4 0 6 -4 10 -10 10 -5
0 -10 7 -10 15 0 8 -18 24 -40 35 -22 11 -40 26 -40 34 0 7 -25 21 -57 31 -63
19 -89 35 -57 35 35 0 47 15 39 49 -4 21 -12 31 -25 31 -13 0 -17 5 -14 15 4
10 0 15 -16 15 -11 0 -18 5 -15 10 4 6 -7 10 -27 9 -18 0 -28 -3 -21 -5 18 -8
93 -85 93 -96 0 -5 -26 -8 -57 -6 -55 3 -58 4 -64 33 -6 25 -7 22 -8 -18 0
-27 3 -46 7 -43 4 2 14 0 22 -5 12 -8 11 -9 -5 -7 -24 4 -32 -33 -16 -72 9
-23 10 -21 10 16 1 34 5 43 22 47 12 3 31 2 42 -3 20 -7 20 -9 5 -15 -10 -4
-25 -5 -33 -1 -8 3 -15 1 -15 -5 0 -6 9 -13 20 -16 11 -3 20 -9 20 -14 0 -5
17 -8 38 -7 37 1 148 -30 138 -39 -2 -3 -36 2 -75 11 -92 21 -102 20 -143 -8
l-36 -24 -6 46 c-3 24 -7 75 -7 111 -1 63 -15 143 -19 111 -1 -11 -4 -9 -9 5
-7 17 -9 14 -13 -15z m172 -295 c24 -14 24 -14 4 -15 -12 0 -37 7 -55 15 l-34
14 30 0 c17 0 41 -6 55 -14z m-34 -59 c21 -22 17 -28 -18 -24 -22 2 -34 9 -36
21 -4 21 33 24 54 3z m124 -41 c0 -19 -58 -21 -84 -2 -16 12 -12 14 33 16 40
2 51 -1 51 -14z m-69 -60 c28 -4 54 -14 65 -26 16 -18 16 -19 1 -13 -9 3 -17
10 -17 15 0 5 -29 9 -65 9 -43 0 -64 -4 -62 -11 1 -6 -4 -14 -10 -16 -9 -3
-13 7 -13 30 0 34 1 35 28 26 15 -5 48 -11 73 -14z m-131 -53 c-7 -13 -9 -8
-9 23 0 35 1 37 10 17 6 -15 5 -30 -1 -40z m150 -22 c0 -5 -6 -10 -14 -10 -8
0 -18 5 -21 10 -3 6 3 10 14 10 12 0 21 -4 21 -10z m65 -20 c3 -5 -1 -10 -10
-10 -9 0 -13 5 -10 10 3 6 8 10 10 10 2 0 7 -4 10 -10z m-82 -30 c5 -4 -6 -7
-24 -6 -18 0 -34 -4 -36 -11 -5 -15 59 -36 82 -27 12 5 16 4 12 -3 -8 -13 -75
-24 -103 -17 -26 7 -39 63 -17 71 7 3 11 9 8 13 -6 10 66 -8 78 -20z m-118
-65 c-2 -22 -4 -47 -4 -54 -2 -24 -18 0 -26 37 -4 20 -3 32 4 32 6 0 11 17 12
38 1 33 2 34 8 12 5 -14 7 -44 6 -65z m-38 33 c-3 -8 -6 -5 -6 6 -1 11 2 17 5
13 3 -3 4 -12 1 -19z m190 -54 c-3 -3 -12 -4 -19 -1 -8 3 -5 6 6 6 11 1 17 -2
13 -5z m258 -34 c46 -7 43 -7 -37 -9 -53 0 -88 3 -88 9 0 12 53 12 125 0z
m-259 -25 c-14 -10 -37 -14 -80 -11 -75 5 -75 6 -53 15 11 4 49 8 85 9 61 2
65 1 48 -13z m292 -35 c-13 -21 -48 -28 -48 -10 0 6 10 15 23 20 34 13 38 12
25 -10z m177 0 c3 -5 1 -10 -4 -10 -6 0 -11 5 -11 10 0 6 2 10 4 10 3 0 8 -4
11 -10z"/>
<path d="M320 889 c0 -5 9 -9 20 -9 11 0 20 2 20 4 0 2 -9 6 -20 9 -11 3 -20
1 -20 -4z"/>
<path d="M408 853 c7 -3 16 -2 19 1 4 3 -2 6 -13 5 -11 0 -14 -3 -6 -6z"/>
<path d="M100 650 c0 -5 5 -10 10 -10 6 0 10 5 10 10 0 6 -4 10 -10 10 -5 0
-10 -4 -10 -10z"/>
<path d="M3286 581 c-6 -10 43 -26 52 -16 7 7 2 11 -25 19 -12 4 -24 3 -27 -3z"/>
<path d="M2630 541 c0 -5 14 -11 30 -13 20 -3 30 0 30 9 0 8 -12 13 -30 13
-16 0 -30 -4 -30 -9z"/>
<path d="M3428 538 c9 -9 15 -9 24 0 9 9 7 12 -12 12 -19 0 -21 -3 -12 -12z"/>
<path d="M1825 530 c27 -11 88 -12 81 -1 -3 5 -27 9 -53 9 -35 0 -43 -2 -28
-8z"/>
<path d="M2253 533 c-20 -8 -15 -23 7 -23 11 0 20 7 20 15 0 15 -6 17 -27 8z"/>
<path d="M2317 534 c-4 -4 -4 -10 -1 -15 6 -10 34 0 34 12 0 10 -24 12 -33 3z"/>
<path d="M925 520 c-3 -5 -1 -10 4 -10 6 0 11 5 11 10 0 6 -2 10 -4 10 -3 0
-8 -4 -11 -10z"/>
<path d="M1095 521 c4 -7 56 -11 136 -11 72 0 128 4 125 8 -3 5 -64 9 -136 11
-91 1 -130 -1 -125 -8z"/>
<path d="M1395 520 c3 -5 17 -10 31 -10 13 0 24 5 24 10 0 6 -14 10 -31 10
-17 0 -28 -4 -24 -10z"/>
<path d="M475 512 c12 -12 81 -19 91 -9 4 4 -6 7 -22 7 -16 0 -40 3 -54 6 -17
5 -22 3 -15 -4z"/>
<path d="M3353 503 c-13 -2 -23 -8 -23 -11 0 -10 96 -9 106 1 4 4 1 7 -7 7 -8
0 -23 2 -34 4 -11 2 -30 2 -42 -1z"/>
<path d="M1772 495 c2 -3 27 -7 54 -10 35 -4 45 -3 34 5 -15 10 -98 15 -88 5z"/>
<path d="M1955 480 c-3 -5 1 -10 10 -10 9 0 13 5 10 10 -3 6 -8 10 -10 10 -2
0 -7 -4 -10 -10z"/>
<path d="M3190 480 c0 -5 7 -10 15 -10 8 0 15 5 15 10 0 6 -7 10 -15 10 -8 0
-15 -4 -15 -10z"/>
<path d="M2975 470 c-19 -8 -19 -9 3 -9 12 -1 22 4 22 9 0 6 -1 10 -2 9 -2 0
-12 -4 -23 -9z"/>
<path d="M1120 459 c-34 -6 -33 -6 13 -8 46 -1 59 3 35 11 -7 2 -29 1 -48 -3z"/>
<path d="M1445 460 c3 -5 13 -10 21 -10 8 0 14 5 14 10 0 6 -9 10 -21 10 -11
0 -17 -4 -14 -10z"/>
<path d="M1550 460 c0 -5 7 -10 16 -10 8 0 12 5 9 10 -3 6 -10 10 -16 10 -5 0
-9 -4 -9 -10z"/>
<path d="M1645 460 c-4 -6 6 -10 24 -10 16 0 31 -6 34 -12 3 -10 7 -10 19 0
10 8 26 10 42 6 15 -3 26 -2 26 4 0 14 -57 21 -70 8 -7 -7 -10 -6 -10 2 0 14
-56 16 -65 2z"/>
<path d="M748 443 c7 -3 16 -2 19 1 4 3 -2 6 -13 5 -11 0 -14 -3 -6 -6z"/>
<path d="M1283 443 c9 -2 25 -2 35 0 9 3 1 5 -18 5 -19 0 -27 -2 -17 -5z"/>
<path d="M1917 439 c8 -8 22 -8 50 -1 l38 10 -49 1 c-37 1 -47 -2 -39 -10z"/>
<path d="M2163 443 c9 -2 23 -2 30 0 6 3 -1 5 -18 5 -16 0 -22 -2 -12 -5z"/>
<path d="M1417 433 c18 -2 50 -2 70 0 21 2 7 4 -32 4 -38 0 -55 -2 -38 -4z"/>
<path d="M1573 433 c15 -2 37 -2 50 0 12 2 0 4 -28 4 -27 0 -38 -2 -22 -4z"/>
<path d="M3395 429 c-22 -5 -57 -8 -77 -8 -21 -1 -38 -6 -38 -12 0 -8 21 -9
68 -5 123 12 163 18 157 24 -9 9 -63 9 -110 1z"/>
<path d="M1748 408 c-3 -7 -23 -10 -59 -9 -60 4 -84 4 -181 -1 -38 -2 -68 -6
-68 -10 0 -10 268 -7 304 3 16 5 34 5 40 1 18 -11 45 -12 51 -2 3 6 -1 10 -9
10 -9 0 -16 5 -16 10 0 14 -57 13 -62 -2z"/>
<path d="M3075 410 c-55 -10 -10 -19 71 -15 43 3 85 5 92 5 6 0 12 3 12 8 0 8
-129 10 -175 2z"/>
<path d="M3010 400 c0 -5 7 -10 15 -10 8 0 15 5 15 10 0 6 -7 10 -15 10 -8 0
-15 -4 -15 -10z"/>
<path d="M1202 394 c8 -7 88 -8 95 0 4 3 -18 6 -47 6 -29 0 -51 -3 -48 -6z"/>
<path d="M1343 388 c28 -7 42 -7 50 1 8 8 -2 11 -38 10 l-50 -1 38 -10z"/>
<path d="M1860 396 c0 -8 48 -12 66 -5 13 5 7 8 -23 8 -24 1 -43 -1 -43 -3z"/>
<path d="M2000 391 c0 -5 11 -8 25 -8 14 0 25 3 25 8 0 5 -11 9 -25 9 -14 0
-25 -4 -25 -9z"/>
<path d="M2075 390 c4 -6 11 -8 16 -5 14 9 11 15 -7 15 -8 0 -12 -5 -9 -10z"/>
<path d="M2110 391 c0 -9 158 -24 171 -15 5 3 7 10 4 15 -8 11 -175 12 -175 0z"/>
<path d="M2950 390 c0 -5 5 -10 11 -10 5 0 7 5 4 10 -3 6 -8 10 -11 10 -2 0
-4 -4 -4 -10z"/>
<path d="M1025 382 c-13 -14 -2 -22 31 -22 19 0 33 4 30 9 -7 10 -53 20 -61
13z"/>
<path d="M646 363 c-10 -10 5 -23 27 -23 12 0 29 -5 37 -11 11 -8 7 -9 -17 -5
-24 4 -33 2 -33 -8 0 -9 23 -15 77 -19 43 -3 79 -5 80 -3 1 1 -1 15 -6 32 -7
28 -10 29 -72 31 -35 2 -69 5 -76 7 -6 3 -14 2 -17 -1z"/>
<path d="M1218 350 c34 -14 26 -19 -23 -14 -28 3 -45 1 -45 -5 0 -6 10 -11 23
-11 12 0 47 -2 77 -5 47 -5 51 -4 30 6 -15 7 -20 13 -12 16 27 10 10 23 -30
22 -36 0 -39 -2 -20 -9z"/>
<path d="M1313 345 c0 -9 10 -15 26 -15 24 0 24 1 5 15 -24 18 -31 19 -31 0z"/>
<path d="M1498 353 c7 -3 16 -2 19 1 4 3 -2 6 -13 5 -11 0 -14 -3 -6 -6z"/>
<path d="M1567 350 c12 -11 137 -20 152 -11 9 6 1 11 -25 15 -49 8 -137 5
-127 -4z"/>
<path d="M2200 349 c-28 -8 -27 -10 13 -15 15 -1 27 1 27 6 0 14 -13 17 -40 9z"/>
<path d="M2290 351 c0 -5 9 -11 20 -14 24 -6 27 8 4 17 -21 8 -24 8 -24 -3z"/>
<path d="M1776 334 c-5 -12 0 -15 21 -12 14 2 28 9 31 16 6 18 -45 15 -52 -4z"/>
<path d="M1840 346 c0 -9 40 -13 46 -5 3 5 -6 9 -20 9 -14 0 -26 -2 -26 -4z"/>
<path d="M1993 343 c9 -2 23 -2 30 0 6 3 -1 5 -18 5 -16 0 -22 -2 -12 -5z"/>
<path d="M2063 343 c15 -2 37 -2 50 0 12 2 0 4 -28 4 -27 0 -38 -2 -22 -4z"/>
<path d="M2430 340 c0 -5 5 -10 10 -10 6 0 10 5 10 10 0 6 -4 10 -10 10 -5 0
-10 -4 -10 -10z"/>
<path d="M2640 340 c0 -5 12 -10 26 -10 14 0 23 4 19 10 -3 6 -15 10 -26 10
-10 0 -19 -4 -19 -10z"/>
<path d="M2700 340 c0 -5 4 -10 9 -10 6 0 13 5 16 10 3 6 -1 10 -9 10 -9 0
-16 -4 -16 -10z"/>
<path d="M585 330 c3 -5 15 -10 26 -10 10 0 19 5 19 10 0 6 -12 10 -26 10 -14
0 -23 -4 -19 -10z"/>
<path d="M905 299 c-64 -6 -61 -7 64 -15 63 -4 64 -14 1 -14 -59 0 -64 -10 -6
-12 20 -1 36 -6 36 -11 0 -5 8 -16 18 -24 15 -13 14 -14 -13 -8 -16 4 -31 11
-33 16 -2 5 -8 9 -13 9 -6 0 -8 -4 -5 -9 7 -11 -37 -23 -57 -15 -8 3 -18 1
-22 -5 -11 -19 48 -33 156 -36 59 -2 116 -6 128 -10 14 -4 21 -2 21 7 0 8 -8
14 -17 15 -44 3 -63 8 -63 15 0 4 15 8 33 8 37 0 65 14 49 24 -6 3 -13 2 -17
-4 -7 -11 -35 11 -35 28 0 4 -13 7 -30 4 -18 -3 -30 0 -30 7 0 6 7 11 15 11 8
0 15 5 15 11 0 7 -14 9 -39 5 -22 -3 -52 -2 -68 2 -15 4 -55 4 -88 1z m150
-29 c3 -5 1 -10 -4 -10 -6 0 -11 5 -11 10 0 6 2 10 4 10 3 0 8 -4 11 -10z"/>
<path d="M1590 300 c0 -5 8 -10 18 -10 10 0 28 -7 40 -16 12 -8 22 -12 22 -8
0 3 7 1 15 -6 17 -14 39 -4 31 16 -3 8 -2 13 2 11 4 -1 9 3 11 8 7 15 -29 18
-54 5 -17 -9 -28 -9 -43 -1 -26 14 -42 14 -42 1z"/>
<path d="M1446 275 c-3 -8 -3 -15 0 -15 3 0 12 7 20 15 13 13 13 15 1 15 -8 0
-17 -7 -21 -15z"/>
<path d="M2216 281 c-4 -5 -2 -12 3 -15 5 -4 12 -2 15 3 4 5 2 12 -3 15 -5 4
-12 2 -15 -3z"/>
<path d="M2267 283 c-15 -14 -6 -19 28 -15 19 2 35 8 35 13 0 10 -53 12 -63 2z"/>
<path d="M765 270 c3 -5 27 -10 53 -9 35 0 42 3 27 9 -28 12 -88 12 -80 0z"/>
<path d="M2760 270 c0 -5 5 -10 10 -10 6 0 10 5 10 10 0 6 -4 10 -10 10 -5 0
-10 -4 -10 -10z"/>
<path d="M1245 260 c36 -9 101 -12 93 -4 -4 3 -33 7 -65 9 -42 3 -50 1 -28 -5z"/>
<path d="M1790 260 c0 -5 5 -10 10 -10 6 0 10 5 10 10 0 6 -4 10 -10 10 -5 0
-10 -4 -10 -10z"/>
<path d="M2540 266 c0 -2 7 -6 15 -10 8 -3 15 -1 15 4 0 6 -7 10 -15 10 -8 0
-15 -2 -15 -4z"/>
<path d="M2872 258 c7 -19 42 -21 285 -13 147 5 221 11 217 17 -5 7 -56 8
-153 3 -223 -12 -271 -13 -277 -3 -9 14 -76 10 -72 -4z"/>
<path d="M1640 245 c-10 -13 -9 -15 9 -15 11 0 21 4 21 9 0 18 -18 21 -30 6z"/>
<path d="M1380 240 c0 -5 5 -10 10 -10 6 0 10 5 10 10 0 6 -4 10 -10 10 -5 0
-10 -4 -10 -10z"/>
<path d="M1434 238 c-3 -4 18 -8 45 -8 28 0 51 4 51 8 0 5 -20 9 -45 9 -25 0
-48 -4 -51 -9z"/>
<path d="M1230 220 c0 -5 6 -11 13 -13 7 -3 5 -6 -5 -6 -10 -1 -18 -7 -18 -15
0 -11 21 -14 93 -15 50 -1 130 -6 177 -11 47 -5 129 -9 183 -8 80 0 97 3 93
14 -3 8 -1 14 3 14 5 0 11 -4 13 -9 4 -12 78 -21 78 -10 0 5 -7 9 -16 9 -8 0
-13 4 -10 9 9 14 -86 24 -115 12 -32 -12 -139 -7 -167 8 -27 14 -72 14 -72 0
0 -7 -19 -9 -57 -5 -32 3 -79 6 -105 6 -27 0 -48 4 -48 9 0 5 -9 11 -20 14
-11 3 -20 1 -20 -3z"/>
<path d="M1565 220 c3 -5 13 -10 21 -10 8 0 12 5 9 10 -3 6 -13 10 -21 10 -8
0 -12 -4 -9 -10z"/>
<path d="M1420 209 c0 -5 9 -9 20 -9 11 0 20 2 20 4 0 2 -9 6 -20 9 -11 3 -20
1 -20 -4z"/>
<path d="M1618 213 c7 -3 16 -2 19 1 4 3 -2 6 -13 5 -11 0 -14 -3 -6 -6z"/>
<path d="M2525 210 c-3 -5 6 -12 20 -16 14 -3 25 -10 25 -15 0 -5 14 -9 30 -9
23 0 30 5 30 19 0 14 -10 20 -37 25 -52 8 -61 8 -68 -4z"/>
<path d="M3633 213 c-23 -8 -1 -33 29 -33 17 0 27 -4 23 -10 -7 -11 18 -13 64
-4 40 8 40 29 0 32 -18 1 -48 6 -68 11 -20 4 -41 6 -48 4z"/>
<path d="M3566 201 c-3 -5 5 -11 19 -13 20 -4 23 -3 14 8 -13 16 -25 18 -33 5z"/>
<path d="M1923 183 c9 -2 23 -2 30 0 6 3 -1 5 -18 5 -16 0 -22 -2 -12 -5z"/>
<path d="M2050 180 c0 -5 5 -10 10 -10 6 0 10 5 10 10 0 6 -4 10 -10 10 -5 0
-10 -4 -10 -10z"/>
<path d="M1885 160 c3 -5 14 -10 23 -10 15 0 15 2 2 10 -20 13 -33 13 -25 0z"/>
<path d="M1990 160 c0 -6 7 -10 15 -10 8 0 15 2 15 4 0 2 -7 6 -15 10 -8 3
-15 1 -15 -4z"/>
<path d="M1102 132 c-8 -6 -2 -9 17 -9 17 0 28 4 25 9 -7 10 -25 10 -42 0z"/>
<path d="M128 113 c7 -3 16 -2 19 1 4 3 -2 6 -13 5 -11 0 -14 -3 -6 -6z"/>
<path d="M3021 86 c9 -8 138 -13 133 -5 -3 5 -35 9 -71 9 -37 0 -64 -2 -62 -4z"/>
<path d="M1648 43 c12 -2 30 -2 40 0 9 3 -1 5 -23 4 -22 0 -30 -2 -17 -4z"/>
<path d="M1718 43 c7 -3 16 -2 19 1 4 3 -2 6 -13 5 -11 0 -14 -3 -6 -6z"/>
</g>
</svg>
