<?xml version="1.0" standalone="no"?>
<!DOCTYPE svg PUBLIC "-//W3C//DTD SVG 20010904//EN"
 "http://www.w3.org/TR/2001/REC-SVG-20010904/DTD/svg10.dtd">
<svg version="1.0" xmlns="http://www.w3.org/2000/svg"
 width="177.000000pt" height="218.000000pt" viewBox="0 0 177.000000 218.000000"
 preserveAspectRatio="xMidYMid meet">
<metadata>
Created by potrace 1.16, written by Peter Selinger 2001-2019
</metadata>
<g transform="translate(0.000000,218.000000) scale(0.100000,-0.100000)"
fill="#000000" stroke="none">
<path d="M812 2128 c-7 -7 -12 -20 -12 -30 0 -12 -8 -18 -22 -19 -13 -1 -41
-4 -63 -6 -22 -2 -111 -5 -198 -5 -123 -1 -161 2 -167 12 -7 11 -12 11 -23 2
-11 -9 -99 -18 -219 -21 -11 -1 -18 -9 -18 -21 0 -11 -7 -20 -15 -20 -9 0 -15
-9 -15 -25 0 -14 -4 -25 -10 -25 -5 0 -10 -25 -10 -55 0 -44 -3 -55 -16 -55
-15 0 -16 -13 -8 -137 9 -140 10 -224 6 -623 -2 -197 6 -409 24 -618 5 -49 9
-62 20 -58 8 3 14 1 14 -5 0 -5 -7 -12 -15 -15 -13 -5 -14 -24 -9 -123 4 -64
13 -134 20 -156 18 -53 18 -53 -11 -47 -27 5 -33 -9 -12 -27 22 -17 319 -4
333 15 8 11 50 17 150 25 77 5 191 14 254 19 63 5 201 9 305 9 105 0 197 2
205 5 13 4 130 17 295 32 81 7 96 13 94 32 -2 9 2 33 9 52 7 24 11 130 10 325
-1 208 2 306 11 346 9 35 11 86 8 140 -3 46 -8 113 -10 149 -2 36 -8 101 -12
145 -10 94 -10 102 -1 136 4 14 0 123 -8 243 -9 119 -16 248 -16 287 0 52 -3
70 -12 67 -7 -3 -16 -18 -19 -34 l-7 -29 -1 32 c-1 40 -6 43 -100 59 -57 10
-104 11 -191 4 -209 -17 -290 -18 -290 -3 0 7 -4 13 -10 13 -5 0 -10 -7 -10
-15 0 -18 -31 -20 -48 -3 -10 10 -14 10 -21 0 -5 -8 -22 -12 -42 -10 -29 3
-34 6 -31 27 3 16 -1 22 -10 19 -7 -3 -14 -14 -16 -25 -4 -24 -52 -39 -52 -17
0 7 5 16 10 19 12 7 13 25 2 25 -4 0 -13 -5 -20 -12z m696 -45 c-10 -2 -28 -2
-40 0 -13 2 -5 4 17 4 22 1 32 -1 23 -4z m-278 -88 c-7 -8 -21 -15 -31 -15
-12 0 -16 5 -13 15 4 8 17 15 31 15 22 0 24 -2 13 -15z m70 5 c0 -5 -5 -10
-11 -10 -5 0 -7 5 -4 10 3 6 8 10 11 10 2 0 4 -4 4 -10z m-713 -25 c-4 -8 -14
-15 -23 -15 -16 0 -16 2 1 20 20 22 31 20 22 -5z m83 18 c0 -5 -5 -15 -10 -23
-7 -12 -9 -10 -7 8 1 19 17 33 17 15z m860 -3 c0 -5 -2 -10 -4 -10 -3 0 -8 5
-11 10 -3 6 -1 10 4 10 6 0 11 -4 11 -10z m-800 -4 c0 -2 -7 -6 -15 -10 -8 -3
-15 -1 -15 4 0 6 7 10 15 10 8 0 15 -2 15 -4z m330 -12 c0 -2 -9 -4 -21 -4
-11 0 -18 4 -14 10 5 8 35 3 35 -6z m529 -28 c-2 -30 -2 -30 -6 -3 -2 15 -9
25 -14 22 -5 -4 -9 1 -9 9 0 10 6 13 15 10 9 -4 14 -18 14 -38z m-1469 -1 c0
-14 -4 -25 -9 -25 -4 0 -6 11 -3 25 2 14 6 25 8 25 2 0 4 -11 4 -25z m840 15
c0 -5 -5 -10 -11 -10 -5 0 -7 5 -4 10 3 6 8 10 11 10 2 0 4 -4 4 -10z m70 -4
c0 -3 -4 -8 -10 -11 -5 -3 -10 -1 -10 4 0 6 5 11 10 11 6 0 10 -2 10 -4z
m-150 -26 c0 -12 -7 -20 -17 -20 -15 0 -16 -2 -3 -10 12 -8 12 -10 -3 -16 -9
-3 -23 -4 -31 -1 -7 3 -19 0 -25 -6 -9 -9 -11 -8 -6 6 4 9 11 17 16 17 5 0 9
9 9 19 0 18 6 21 53 30 4 0 7 -8 7 -19z m-250 -4 c0 -3 -4 -8 -10 -11 -5 -3
-10 -1 -10 4 0 6 5 11 10 11 6 0 10 -2 10 -4z m90 -32 c0 -8 -6 -11 -15 -8 -8
4 -15 2 -15 -4 0 -5 -7 -12 -15 -16 -9 -3 -15 0 -15 10 0 9 9 18 19 21 13 3
18 10 13 21 -5 15 -4 15 11 3 9 -7 17 -20 17 -27z m220 24 c0 -17 -18 -44 -24
-37 -8 7 5 49 15 49 5 0 9 -6 9 -12z m335 2 c-3 -5 -11 -10 -16 -10 -6 0 -7 5
-4 10 3 6 11 10 16 10 6 0 7 -4 4 -10z m292 -37 c-3 -10 -5 -2 -5 17 0 19 2
27 5 18 2 -10 2 -26 0 -35z m-1306 0 c-10 -17 -10 -16 -11 3 0 23 13 41 18 25
2 -6 -1 -18 -7 -28z m183 -3 c-17 -32 -34 -48 -34 -30 0 20 31 71 40 65 4 -3
2 -19 -6 -35z m326 30 c0 -5 -4 -10 -10 -10 -5 0 -10 5 -10 10 0 6 5 10 10 10
6 0 10 -4 10 -10z m197 -32 c-3 -7 -5 -2 -5 12 0 14 2 19 5 13 2 -7 2 -19 0
-25z m-604 -20 c-4 -29 -3 -39 5 -34 18 11 15 -39 -3 -54 -8 -7 -15 -18 -15
-24 0 -12 -39 -40 -46 -33 -2 2 0 17 6 33 8 24 13 52 19 116 1 7 30 38 36 38
2 0 1 -19 -2 -42z m-53 13 c0 -5 -7 -14 -15 -21 -16 -14 -18 -10 -9 14 6 17
24 22 24 7z m230 -20 c-6 -12 -15 -21 -21 -21 -5 0 -2 11 7 25 20 30 31 26 14
-4z m74 -12 c-8 -22 -12 -45 -9 -50 4 -5 -1 -9 -9 -9 -10 0 -16 9 -16 25 0 32
20 75 35 75 10 0 9 -10 -1 -41z m396 31 c0 -5 -5 -10 -11 -10 -5 0 -7 5 -4 10
3 6 8 10 11 10 2 0 4 -4 4 -10z m250 -10 c0 -5 -8 -10 -17 -10 -15 0 -16 2 -3
10 19 12 20 12 20 0z m-420 -14 c0 -8 -8 -13 -17 -11 -10 2 -22 4 -26 4 -5 1
-5 6 -2 11 9 15 45 12 45 -4z m116 -23 c-10 -10 -19 5 -10 18 6 11 8 11 12 0
2 -7 1 -15 -2 -18z m54 18 c0 -13 -26 -32 -33 -24 -8 7 11 33 24 33 5 0 9 -4
9 -9z m-458 -23 c-7 -7 -12 -8 -12 -2 0 14 12 26 19 19 2 -3 -1 -11 -7 -17z
m-257 -20 c-8 -36 -12 -44 -20 -36 -8 8 7 68 17 68 6 0 7 -14 3 -32z m795 28
c0 -2 -9 -6 -20 -9 -11 -3 -20 -1 -20 4 0 5 9 9 20 9 11 0 20 -2 20 -4z m120
-6 c-13 -8 -13 -10 2 -10 9 0 20 -5 23 -10 4 -6 -5 -10 -24 -8 -41 3 -42 38
-2 38 14 0 14 -2 1 -10z m247 -37 c-3 -10 -5 -4 -5 12 0 17 2 24 5 18 2 -7 2
-21 0 -30z m-1276 -16 c-13 -13 -15 1 -4 30 7 17 8 17 11 -1 2 -10 -1 -23 -7
-29z m239 7 c-18 -21 -24 -10 -9 18 8 14 14 18 17 10 2 -7 -2 -19 -8 -28z
m106 -19 c-17 -26 -36 -33 -36 -13 0 17 44 61 48 48 2 -6 -3 -22 -12 -35z
m504 35 c0 -5 -8 -10 -17 -10 -15 0 -16 2 -3 10 19 12 20 12 20 0z m30 -9 c0
-10 -7 -22 -16 -25 -8 -3 -13 -2 -11 2 2 4 7 15 10 25 8 23 17 22 17 -2z m67
13 c-3 -3 -12 -4 -19 -1 -8 3 -5 6 6 6 11 1 17 -2 13 -5z m363 -11 c0 -10 -5
-25 -10 -33 -7 -11 -10 -7 -10 18 0 17 5 32 10 32 6 0 10 -8 10 -17z m-360
-17 c0 -9 7 -12 20 -9 11 3 20 9 20 14 0 13 48 11 56 -3 5 -8 0 -9 -14 -6 -22
6 -30 -6 -12 -17 5 -3 8 -47 6 -104 -3 -77 -8 -105 -22 -124 -22 -29 -91 -61
-100 -46 -3 6 -14 3 -26 -8 -14 -11 -3 15 28 74 27 50 52 87 55 81 4 -5 11 3
17 19 5 15 13 36 17 46 5 11 2 17 -8 17 -8 0 -37 -42 -67 -100 -29 -55 -54
-99 -56 -97 -2 2 14 53 36 113 42 115 44 124 33 124 -5 0 -17 -21 -27 -48 -20
-48 -84 -163 -96 -172 -4 -3 -10 -13 -13 -24 -10 -26 -35 -4 -43 40 -5 25 -1
40 16 64 12 16 26 28 30 25 5 -3 12 7 16 22 3 15 7 34 10 41 2 6 0 12 -5 12
-10 0 -2 48 10 56 5 3 9 -5 10 -18 0 -13 3 -17 6 -10 2 6 13 12 23 12 19 0 19
-1 -1 -46 -11 -26 -17 -49 -14 -52 8 -8 14 2 33 56 19 52 38 82 53 82 5 0 9
-6 9 -14z m-341 -28 c-30 -44 -29 -43 -29 -31 0 11 38 63 46 63 3 0 -5 -15
-17 -32z m812 -158 l-7 -65 -6 95 c-4 52 -4 109 0 125 10 49 21 -77 13 -155z
m-1325 138 c-29 -140 -13 -165 43 -68 37 64 56 77 45 33 -9 -36 -66 -132 -79
-133 -6 0 -15 -16 -21 -35 -10 -31 -9 -33 4 -22 8 6 28 32 43 57 16 25 29 38
29 30 0 -8 -18 -41 -40 -74 -22 -32 -40 -66 -40 -76 0 -9 -9 -25 -20 -35 -20
-18 -20 -17 -20 9 0 15 6 42 14 60 18 43 31 127 17 106 -13 -18 -14 11 -4 113
4 50 10 67 21 67 11 0 13 -7 8 -32z m129 2 c-4 -12 -9 -19 -12 -17 -3 3 -2 15
2 27 4 12 9 19 12 17 3 -3 2 -15 -2 -27z m487 -26 c-4 -40 -2 -46 17 -51 16
-4 20 -10 15 -22 -4 -9 -6 -24 -6 -33 1 -15 -2 -16 -19 -5 -10 6 -17 17 -15
24 3 7 -2 26 -11 43 -12 26 -13 36 -3 61 18 43 28 35 22 -17z m388 36 c0 -5
-5 -10 -11 -10 -5 0 -7 5 -4 10 3 6 8 10 11 10 2 0 4 -4 4 -10z m-456 -31
c-21 -41 -59 -79 -78 -79 -26 0 -5 35 44 73 25 20 46 36 48 36 1 1 -5 -13 -14
-30z m512 5 c-4 -9 -9 -15 -11 -12 -3 3 -3 13 1 22 4 9 9 15 11 12 3 -3 3 -13
-1 -22z m191 -16 c-3 -7 -5 -2 -5 12 0 14 2 19 5 13 2 -7 2 -19 0 -25z m-1207
5 c0 -5 -9 -21 -20 -38 -21 -32 -26 -23 -10 19 9 24 30 37 30 19z m1141 -74
l-9 -34 -1 30 c0 17 2 41 6 55 7 23 8 24 11 4 2 -12 -1 -37 -7 -55z m-1354 -1
c-3 -7 -5 -2 -5 12 0 14 2 19 5 13 2 -7 2 -19 0 -25z m561 7 c-6 -14 -17 -25
-25 -25 -11 0 -10 6 4 25 23 32 36 32 21 0z m-107 -56 c-27 -77 -50 -127 -51
-108 0 8 11 44 25 79 14 35 25 73 25 84 0 13 3 17 10 10 7 -7 4 -28 -9 -65z
m39 -12 c-21 -31 -21 -32 -16 -5 4 15 11 40 18 55 11 27 12 27 16 5 2 -13 -6
-37 -18 -55z m906 31 c-8 -55 -16 -61 -16 -11 0 36 6 53 18 53 2 0 1 -19 -2
-42z m49 -55 c-4 -41 -9 -72 -12 -69 -3 3 -2 42 2 88 5 46 10 77 13 70 2 -8 1
-47 -3 -89z m92 50 c-3 -10 -5 -4 -5 12 0 17 2 24 5 18 2 -7 2 -21 0 -30z
m-1454 -20 c-5 -53 -23 -146 -28 -141 -2 2 -3 6 -2 9 1 3 -4 14 -12 23 -14 16
-16 14 -28 -26 -7 -24 -13 -47 -13 -53 0 -14 17 7 24 30 3 11 3 -1 1 -27 -5
-50 10 -66 21 -23 3 14 11 25 16 25 6 0 7 -7 4 -16 -3 -9 -6 -29 -6 -45 0 -21
-4 -27 -14 -23 -12 5 -15 -12 -14 -103 1 -59 3 -99 6 -88 11 53 20 28 17 -52
-7 -212 -8 -370 -1 -381 12 -20 23 -13 24 16 1 35 18 131 28 157 6 15 11 8 23
-35 10 -38 15 -97 15 -185 -1 -129 5 -133 24 -15 8 50 9 53 16 25 20 -87 40
-138 61 -163 13 -15 25 -22 25 -15 0 6 -5 15 -10 18 -13 8 -53 95 -47 102 3 2
13 -9 23 -26 10 -17 21 -31 24 -31 3 0 14 -16 24 -35 11 -19 25 -34 32 -33 7
2 37 -22 66 -52 29 -31 69 -63 89 -73 40 -18 139 -32 139 -18 0 5 17 0 37 -10
44 -23 108 -24 177 -5 28 8 71 19 96 24 25 5 83 24 130 41 105 38 155 87 219
217 25 49 54 105 66 124 24 39 43 107 44 160 1 47 11 92 23 108 7 8 7 26 -1
55 -7 23 -11 63 -8 87 l4 45 1 -48 c3 -71 22 -48 22 27 0 34 5 89 10 122 6 32
13 75 16 94 5 30 7 32 16 16 7 -12 7 -21 -1 -29 -14 -14 -14 -67 0 -67 5 0 8
-3 6 -7 -3 -5 -7 -60 -11 -123 -3 -70 -2 -105 3 -88 5 14 12 77 16 139 5 88 4
114 -7 120 -10 7 -10 11 -1 17 7 4 10 27 8 60 -3 34 0 50 6 46 6 -3 8 -12 5
-19 -2 -7 -1 -53 4 -101 7 -80 2 -185 -14 -314 -4 -32 -3 -38 3 -20 5 15 8
-39 6 -140 -2 -91 1 -176 5 -190 5 -15 9 48 11 155 l3 180 3 -142 c2 -88 7
-143 14 -143 6 0 6 -8 -2 -21 -14 -28 -8 -191 8 -196 6 -2 9 -19 7 -41 -2 -20
-6 -68 -10 -105 l-6 -68 -31 6 c-39 7 -77 -12 -94 -44 -7 -15 -22 -26 -40 -28
-75 -10 -609 -17 -621 -9 -18 13 -231 18 -251 6 -13 -8 -11 -10 9 -11 14 -1
-9 -5 -50 -9 -109 -11 -279 -20 -250 -14 14 3 30 10 35 16 10 10 -58 6 -142
-9 -31 -5 -33 -3 -33 23 0 16 -4 45 -10 63 -6 23 -6 39 1 47 6 8 8 46 3 106
-4 51 -8 120 -8 153 -1 33 -5 66 -9 72 -11 18 -28 435 -21 510 4 34 4 70 0 79
-4 10 -9 82 -12 161 -5 123 -4 142 9 137 9 -3 13 -13 10 -25 -4 -15 -2 -18 11
-13 9 3 22 28 30 55 25 83 36 91 29 22z m577 42 c0 -13 -38 -64 -43 -58 -13
12 -7 42 11 52 19 11 32 14 32 6z m560 -15 c0 -5 -5 -10 -11 -10 -5 0 -7 5 -4
10 3 6 8 10 11 10 2 0 4 -4 4 -10z m-632 -64 c1 -44 -3 -68 -12 -75 -25 -21
-29 7 -10 75 9 35 18 64 18 64 1 0 3 -29 4 -64z m829 -33 c-2 -21 -4 -6 -4 32
0 39 2 55 4 38 2 -18 2 -50 0 -70z m-1320 55 c-3 -7 -5 -2 -5 12 0 14 2 19 5
13 2 -7 2 -19 0 -25z m173 13 c-10 -20 -30 -37 -30 -26 0 11 25 45 33 45 4 0
3 -9 -3 -19z m1054 -33 c-4 -29 -13 -69 -20 -88 -13 -33 -14 -34 -9 -5 9 65
27 145 31 145 3 0 2 -24 -2 -52z m-58 16 c-4 -9 -9 -15 -11 -12 -3 3 -3 13 1
22 4 9 9 15 11 12 3 -3 3 -13 -1 -22z m93 -64 c-7 -49 -15 -77 -19 -69 -5 8
-7 28 -6 44 3 35 27 117 33 111 3 -2 -1 -41 -8 -86z m-689 40 c0 -43 -23 -57
-33 -19 -4 16 17 59 30 59 2 0 3 -18 3 -40z m254 16 c-3 -9 -10 -16 -15 -16
-5 0 -4 9 3 20 14 22 21 20 12 -4z m-379 -16 c-7 -22 -26 -23 -33 0 -3 7 0 10
7 6 6 -4 14 0 17 9 9 23 17 10 9 -15z m-155 -14 c0 -7 -8 -24 -19 -37 -10 -13
-22 -40 -26 -59 -4 -19 -24 -66 -44 -105 -20 -38 -35 -78 -34 -87 2 -12 -2
-15 -12 -11 -9 3 -22 0 -30 -7 -13 -11 -15 -6 -15 33 0 25 5 49 11 53 9 5 10
-1 5 -20 -4 -17 -3 -25 3 -22 5 4 11 -2 14 -11 3 -13 6 -9 12 12 17 67 110
275 122 275 7 0 13 -6 13 -14z m90 -21 c0 -18 -5 -25 -20 -25 -24 0 -25 8 -3
32 21 23 23 23 23 -7z m920 -34 c0 -32 -6 -24 -14 19 -4 25 -3 31 4 20 5 -8
10 -26 10 -39z m-500 23 c0 -8 -4 -12 -10 -9 -5 3 -10 10 -10 16 0 5 5 9 10 9
6 0 10 -7 10 -16z m-386 -45 c-11 -18 -21 1 -16 28 5 27 5 27 14 4 4 -13 5
-27 2 -32z m-212 18 c8 4 9 0 4 -13 -5 -10 -10 -26 -13 -35 -3 -11 -13 -14
-34 -11 -16 2 -36 -1 -44 -8 -12 -10 -15 -9 -15 4 0 10 8 16 23 16 24 0 62 32
51 43 -3 3 -2 12 2 19 7 10 9 9 12 -5 2 -9 8 -14 14 -10z m1155 -24 c-3 -10
-5 -2 -5 17 0 19 2 27 5 18 2 -10 2 -26 0 -35z m80 -40 c-2 -16 -4 -3 -4 27 0
30 2 43 4 28 2 -16 2 -40 0 -55z m-1357 57 c0 -5 -5 -10 -11 -10 -5 0 -7 5 -4
10 3 6 8 10 11 10 2 0 4 -4 4 -10z m274 -5 c7 -19 -31 -85 -50 -85 -8 0 -14
-10 -14 -22 0 -18 -2 -20 -9 -9 -11 17 11 80 34 97 8 6 15 16 15 23 0 16 17
14 24 -4z m700 -12 c4 -9 9 -42 13 -73 5 -55 4 -59 -30 -95 -21 -22 -37 -33
-41 -26 -10 16 -41 13 -56 -4 -7 -8 -19 -15 -27 -15 -15 0 -13 36 3 93 3 9 1
17 -4 17 -10 0 -22 -35 -27 -78 -5 -33 -12 -37 -20 -12 -4 12 -2 27 4 33 6 6
11 21 11 34 0 27 65 103 89 103 9 0 27 9 41 20 31 24 36 24 44 3z m-244 -22
c-13 -25 -41 -35 -52 -19 -14 22 -9 36 11 31 10 -3 22 0 26 6 11 19 26 2 15
-18z m60 23 c0 -11 -45 -84 -52 -84 -10 0 -10 4 1 32 5 13 12 31 15 41 5 15
36 25 36 11z m304 -31 c-7 -42 -11 -49 -20 -40 -10 9 5 77 17 77 6 0 7 -15 3
-37z m125 -85 c-1 -111 -1 -112 -16 -78 -16 36 -25 170 -11 170 4 0 9 -33 11
-72 l3 -73 2 83 c1 45 4 82 7 82 3 0 5 -51 4 -112z m18 40 c-2 -13 -4 -3 -4
22 0 25 2 35 4 23 2 -13 2 -33 0 -45z m-672 32 c3 -5 1 -10 -4 -10 -6 0 -11 5
-11 10 0 6 2 10 4 10 3 0 8 -4 11 -10z m575 -16 c0 -14 -4 -23 -9 -20 -5 3 -7
15 -4 26 7 28 13 25 13 -6z m-837 -35 c-13 -13 -48 -16 -48 -4 0 6 6 9 13 8 7
0 19 11 25 25 l12 26 3 -23 c2 -13 0 -27 -5 -32z m-378 -100 c-14 -75 -15 -97
-5 -140 9 -37 10 -56 1 -72 -6 -12 -12 -47 -14 -77 -2 -30 -4 17 -5 104 -2
178 16 348 31 301 7 -19 4 -56 -8 -116z m165 127 c0 -13 -20 -36 -31 -36 -7 0
-19 37 -13 42 9 10 44 5 44 -6z m624 -11 c-4 -8 -10 -15 -15 -15 -5 0 -9 7 -9
15 0 8 7 15 15 15 9 0 12 -6 9 -15z m453 -17 c-3 -7 -5 -2 -5 12 0 14 2 19 5
13 2 -7 2 -19 0 -25z m-616 -35 c-12 -20 -14 -14 -5 12 4 9 9 14 11 11 3 -2 0
-13 -6 -23z m529 12 c0 -8 -2 -15 -4 -15 -2 0 -6 7 -10 15 -3 8 -1 15 4 15 6
0 10 -7 10 -15z m-899 -52 c-9 -16 -10 -15 -11 8 0 14 3 29 8 33 12 12 14 -22
3 -41z m834 1 c-7 -8 -16 -22 -19 -32 -7 -19 -54 -45 -68 -36 -12 8 74 92 89
87 9 -4 9 -8 -2 -19z m-1025 -34 c-18 -33 -25 -15 -9 22 9 23 15 28 17 16 2
-9 -2 -27 -8 -38z m153 30 c-3 -12 -8 -19 -11 -16 -5 6 5 36 12 36 2 0 2 -9
-1 -20z m1024 -2 c-3 -8 -6 -5 -6 6 -1 11 2 17 5 13 3 -3 4 -12 1 -19z m-1290
-20 c-3 -8 -6 -5 -6 6 -1 11 2 17 5 13 3 -3 4 -12 1 -19z m343 -4 c0 -17 -22
-14 -28 4 -2 7 3 12 12 12 9 0 16 -7 16 -16z m-99 -51 c-9 -33 -51 -90 -51
-70 0 12 54 117 58 113 2 -2 -1 -22 -7 -43z m129 26 c0 -6 -4 -7 -10 -4 -5 3
-10 11 -10 16 0 6 5 7 10 4 6 -3 10 -11 10 -16z m367 -16 c-3 -10 -5 -4 -5 12
0 17 2 24 5 18 2 -7 2 -21 0 -30z m563 -20 c-11 -17 -11 -17 -6 0 3 10 6 24 7
30 0 9 2 9 5 0 3 -7 0 -20 -6 -30z m37 5 c-3 -8 -6 -5 -6 6 -1 11 2 17 5 13 3
-3 4 -12 1 -19z m-1027 -4 c0 -8 -5 -12 -10 -9 -6 4 -8 11 -5 16 9 14 15 11
15 -7z m-220 -15 c0 -6 -4 -7 -10 -4 -5 3 -10 11 -10 16 0 6 5 7 10 4 6 -3 10
-11 10 -16z m280 11 c0 -5 -4 -10 -10 -10 -5 0 -10 5 -10 10 0 6 5 10 10 10 6
0 10 -4 10 -10z m357 -32 c-3 -7 -5 -2 -5 12 0 14 2 19 5 13 2 -7 2 -19 0 -25z
m-387 12 c0 -5 -4 -10 -10 -10 -5 0 -10 5 -10 10 0 6 5 10 10 10 6 0 10 -4 10
-10z m-160 -7 c-1 -18 -18 -35 -24 -24 -4 6 -4 16 -1 21 7 12 25 13 25 3z
m256 -30 c-11 -11 -19 6 -11 24 8 17 8 17 12 0 3 -10 2 -21 -1 -24z m864 20
c0 -10 -5 -25 -10 -33 -7 -11 -10 -7 -10 18 0 17 5 32 10 32 6 0 10 -8 10 -17z
m-1024 -30 c-11 -11 -19 6 -11 24 8 17 8 17 12 0 3 -10 2 -21 -1 -24z m874 17
c0 -11 -7 -20 -15 -20 -15 0 -21 21 -8 33 12 13 23 7 23 -13z m-1027 -20 c3
-11 1 -20 -4 -20 -5 0 -9 2 -9 4 0 2 -3 11 -6 20 -3 9 -2 16 4 16 5 0 12 -9
15 -20z m197 10 c0 -5 0 -13 0 -17 0 -8 -50 -25 -50 -17 0 7 35 42 43 43 4 1
7 -3 7 -9z m728 -38 c-5 -27 -28 -26 -28 2 0 19 4 24 15 19 9 -3 15 -12 13
-21z m-808 -1 c0 -9 -24 -21 -41 -21 -5 0 -9 7 -9 15 0 9 9 15 25 15 14 0 25
-4 25 -9z m160 -21 c0 -5 -2 -10 -4 -10 -3 0 -8 5 -11 10 -3 6 -1 10 4 10 6 0
11 -4 11 -10z m-100 -4 c0 -3 -4 -8 -10 -11 -5 -3 -10 -1 -10 4 0 6 5 11 10
11 6 0 10 -2 10 -4z m26 -33 c-10 -10 -19 5 -10 18 6 11 8 11 12 0 2 -7 1 -15
-2 -18z m804 -2 c0 -16 -8 -35 -17 -42 -15 -12 -16 -12 -10 4 4 10 7 30 7 43
0 13 5 24 10 24 6 0 10 -13 10 -29z m-790 -30 c0 -10 -30 -24 -37 -17 -3 3 -2
9 2 15 8 13 35 15 35 2z m648 -16 c-3 -3 -9 2 -12 12 -6 14 -5 15 5 6 7 -7 10
-15 7 -18z m47 -32 c-7 -57 -11 -71 -19 -62 -8 9 7 119 16 119 7 0 8 -21 3
-57z m-785 14 c0 -15 -58 -52 -67 -43 -4 3 -4 7 -2 9 2 2 17 13 33 25 33 26
36 26 36 9z m85 -27 c-5 -23 -3 -30 9 -30 22 0 20 -23 -3 -44 -19 -17 -20 -17
-30 3 -15 26 -14 74 1 89 21 21 30 13 23 -18z m503 -9 c-7 -12 -16 -21 -20
-21 -10 0 3 33 16 42 17 11 18 2 4 -21z m-568 -23 c0 -7 -4 -19 -9 -27 -11
-17 -25 3 -17 24 7 18 26 20 26 3z m690 -36 c0 -13 -4 -20 -10 -17 -5 3 -10
21 -10 38 0 24 3 28 10 17 5 -8 10 -25 10 -38z m-538 -14 c-7 -7 -12 -8 -12
-2 0 14 12 26 19 19 2 -3 -1 -11 -7 -17z m-402 -30 c0 -49 -8 -47 -14 5 -3 20
-1 37 4 37 6 0 10 -19 10 -42z m777 20 c-3 -8 -6 -5 -6 6 -1 11 2 17 5 13 3
-3 4 -12 1 -19z m-456 -97 c11 -28 27 -56 35 -62 21 -17 17 -31 -6 -19 -10 6
-28 30 -39 55 -22 51 -31 55 -55 23 l-17 -23 7 25 c4 14 6 39 6 55 -2 75 20
58 69 -54z m633 83 c9 -3 16 -10 16 -16 0 -5 -5 -6 -11 -2 -9 5 -10 -1 -5 -20
4 -15 2 -26 -4 -26 -5 0 -19 -9 -31 -21 -26 -26 -37 -17 -17 13 8 13 18 35 22
51 7 30 7 30 30 21z m153 -26 c-3 -8 -6 -5 -6 6 -1 11 2 17 5 13 3 -3 4 -12 1
-19z m-269 -5 c-5 -25 -28 -28 -28 -4 0 12 6 21 16 21 9 0 14 -7 12 -17z
m-383 -3 c-27 -12 -35 -12 -35 0 0 6 12 10 28 9 24 0 25 -1 7 -9z m-68 -26
c-9 -9 -28 6 -21 18 4 6 10 6 17 -1 6 -6 8 -13 4 -17z m320 -6 c-3 -8 -6 -5
-6 6 -1 11 2 17 5 13 3 -3 4 -12 1 -19z m363 -4 c0 -8 -4 -12 -10 -9 -5 3 -10
13 -10 21 0 8 5 12 10 9 6 -3 10 -13 10 -21z m-561 7 c10 -7 11 -13 1 -31 -9
-17 -17 -20 -37 -15 -32 8 -74 35 -68 44 6 11 88 12 104 2z m361 -35 c0 -28
-17 -44 -59 -56 -38 -11 -44 -2 -28 39 11 30 27 42 27 21 0 -16 27 -12 34 5 9
23 26 18 26 -9z m-215 -26 c3 0 10 10 15 23 8 20 9 19 9 -10 1 -18 6 -33 12
-33 11 0 44 -29 38 -34 -8 -7 -48 -26 -55 -26 -3 0 -1 7 6 15 19 22 4 31 -30
18 -17 -6 -30 -7 -30 -3 0 5 9 12 20 15 22 7 27 25 8 25 -7 0 -32 -7 -55 -16
-72 -28 -66 2 8 44 33 18 34 18 41 1 4 -11 10 -19 13 -19z m52 8 c-3 -7 -5 -2
-5 12 0 14 2 19 5 13 2 -7 2 -19 0 -25z m-417 -24 c-21 -24 -30 -16 -18 17 9
27 12 29 20 15 6 -11 6 -22 -2 -32z m750 32 c0 -3 -4 -8 -10 -11 -5 -3 -10 -1
-10 4 0 6 5 11 10 11 6 0 10 -2 10 -4z m-564 -54 c-7 -7 -46 9 -46 18 0 5 11
4 25 -2 14 -6 23 -13 21 -16z m594 24 c0 -3 -4 -8 -10 -11 -5 -3 -10 -1 -10 4
0 6 5 11 10 11 6 0 10 -2 10 -4z m-57 -36 c-3 -11 -10 -20 -15 -20 -6 0 -7 7
-4 16 3 9 6 20 6 25 0 6 4 8 9 5 5 -3 7 -15 4 -26z m-698 -40 c-10 -11 -22
-20 -27 -20 -14 0 -9 34 9 60 l17 24 9 -22 c8 -17 6 -27 -8 -42z m123 20 c13
-17 20 -35 17 -41 -4 -6 -17 3 -31 22 -39 54 -27 70 14 19z m-28 -37 c0 -17
-4 -21 -17 -16 -12 5 -15 2 -11 -8 3 -8 0 -23 -8 -34 -24 -32 -27 -8 -5 35 26
50 26 46 -1 54 -22 7 -22 7 -3 15 24 9 44 -12 45 -46z m-210 8 c-1 -13 -3 -13
-15 3 -19 26 -19 42 0 26 8 -7 15 -20 15 -29z m309 20 c14 -25 1 -35 -15 -13
-16 20 -17 32 -4 32 5 0 14 -8 19 -19z m273 -41 c-12 -16 -22 -34 -22 -40 0
-5 -4 -10 -10 -10 -5 0 -10 9 -10 20 0 34 -18 22 -45 -27 -14 -27 -23 -37 -20
-23 4 14 7 31 8 39 3 23 43 61 63 61 11 0 26 4 34 10 24 15 25 2 2 -30z m-142
20 c18 -12 2 -12 -25 0 -13 6 -15 9 -5 9 8 0 22 -4 30 -9z m340 -4 c0 -8 -4
-18 -10 -21 -5 -3 -10 3 -10 14 0 12 5 21 10 21 6 0 10 -6 10 -14z m-345 -26
c3 -5 -3 -10 -14 -10 -12 0 -21 5 -21 10 0 6 6 10 14 10 8 0 18 -4 21 -10z
m255 -11 c-7 -11 -14 -18 -17 -15 -3 3 0 12 7 21 18 21 23 19 10 -6z m-280
-26 c0 -5 -9 -19 -20 -33 -21 -26 -27 -12 -10 21 10 19 30 26 30 12z m210 -33
c-24 -15 -37 -11 -16 5 11 8 22 12 25 9 3 -3 -1 -9 -9 -14z m-520 -15 c0 -8
-4 -15 -9 -15 -5 0 -11 7 -15 15 -3 9 0 15 9 15 8 0 15 -7 15 -15z m633 -18
c9 -1 17 -5 17 -9 0 -5 -20 -7 -45 -6 -25 2 -45 6 -45 9 0 13 16 20 35 14 11
-4 28 -7 38 -8z m-1026 -229 c-3 -7 -5 -2 -5 12 0 14 2 19 5 13 2 -7 2 -19 0
-25z"/>
<path d="M1150 1556 c-12 -20 -20 -41 -18 -47 2 -6 14 8 27 31 29 51 21 64 -9
16z"/>
<path d="M946 1571 c-4 -7 -5 -15 -2 -18 9 -9 19 4 14 18 -4 11 -6 11 -12 0z"/>
<path d="M1532 950 c-5 -22 -6 -40 -1 -40 9 0 24 68 17 76 -3 3 -10 -13 -16
-36z"/>
<path d="M1530 760 c0 -5 5 -10 10 -10 6 0 10 5 10 10 0 6 -4 10 -10 10 -5 0
-10 -4 -10 -10z"/>
<path d="M310 456 c0 -9 5 -16 10 -16 6 0 10 4 10 9 0 6 -4 13 -10 16 -5 3
-10 -1 -10 -9z"/>
<path d="M1437 463 c-4 -3 -7 -11 -7 -17 0 -6 5 -5 12 2 6 6 9 14 7 17 -3 3
-9 2 -12 -2z"/>
<path d="M1273 351 c-9 -14 -9 -22 -2 -27 15 -9 21 1 17 26 -3 21 -3 21 -15 1z"/>
<path d="M1360 355 c-7 -9 -11 -18 -8 -20 3 -3 11 1 18 10 7 9 11 18 8 20 -3
3 -11 -1 -18 -10z"/>
<path d="M1480 345 c-10 -12 -10 -15 4 -15 9 0 16 7 16 15 0 8 -2 15 -4 15 -2
0 -9 -7 -16 -15z"/>
<path d="M451 254 c0 -11 3 -14 6 -6 3 7 2 16 -1 19 -3 4 -6 -2 -5 -13z"/>
<path d="M1210 224 c0 -14 3 -14 15 -4 8 7 15 14 15 16 0 2 -7 4 -15 4 -8 0
-15 -7 -15 -16z"/>
<path d="M483 193 c15 -2 37 -2 50 0 12 2 0 4 -28 4 -27 0 -38 -2 -22 -4z"/>
<path d="M1195 2120 c-3 -5 -1 -10 4 -10 6 0 11 5 11 10 0 6 -2 10 -4 10 -3 0
-8 -4 -11 -10z"/>
</g>
</svg>
