<?xml version="1.0" standalone="no"?>
<!DOCTYPE svg PUBLIC "-//W3C//DTD SVG 20010904//EN"
 "http://www.w3.org/TR/2001/REC-SVG-20010904/DTD/svg10.dtd">
<svg version="1.0" xmlns="http://www.w3.org/2000/svg"
 width="305.000000pt" height="224.000000pt" viewBox="0 0 305.000000 224.000000"
 preserveAspectRatio="xMidYMid meet">
<metadata>
Created by potrace 1.16, written by Peter Selinger 2001-2019
</metadata>
<g transform="translate(0.000000,224.000000) scale(0.100000,-0.100000)"
fill="#000000" stroke="none">
<path d="M1998 2215 c-2 -2 -239 -6 -527 -9 -288 -4 -529 -10 -535 -14 -6 -4
-174 -7 -373 -7 -238 0 -366 -4 -372 -10 -23 -23 -31 -276 -27 -876 2 -340 7
-622 10 -628 4 -6 11 -124 16 -263 11 -301 17 -351 36 -344 8 3 14 -1 14 -11
0 -13 8 -15 52 -9 51 6 102 9 418 21 222 8 1649 5 1875 -4 111 -4 210 -13 220
-18 29 -15 165 -24 187 -12 10 5 18 18 18 29 0 10 5 22 11 26 6 3 8 17 5 30
-4 14 -9 136 -12 272 -2 138 -9 251 -14 256 -6 6 -10 41 -10 78 0 39 -4 68
-10 68 -6 0 -8 20 -4 55 5 38 3 55 -5 55 -14 0 -15 37 0 46 6 3 8 17 4 33 -11
44 -13 331 -2 331 6 0 7 25 3 68 -5 37 -7 78 -5 92 11 98 -9 702 -23 711 -10
6 -196 19 -343 24 -222 6 -604 13 -607 10z m899 -136 c-2 -31 -5 -33 -81 -55
-62 -19 -88 -33 -127 -69 -26 -25 -55 -45 -64 -45 -8 0 -15 -5 -15 -11 0 -6 9
-8 22 -3 22 7 22 6 -4 -28 -39 -51 -72 -193 -63 -271 l6 -60 -31 27 c-17 14
-36 26 -42 26 -6 0 -5 6 2 15 7 9 10 19 6 23 -4 4 -12 -1 -17 -11 -6 -9 -14
-15 -20 -12 -5 4 -9 2 -9 -2 0 -5 -9 -10 -20 -11 -11 -1 -29 -3 -39 -4 -11 -1
-18 -5 -15 -9 2 -3 -5 -17 -16 -29 -11 -12 -22 -32 -26 -44 -4 -11 -10 -23
-15 -26 -9 -6 18 -67 41 -91 8 -9 25 -22 38 -28 26 -14 33 -75 7 -65 -8 4 -15
12 -15 19 0 7 -22 39 -49 71 -55 64 -61 96 -27 150 12 21 8 17 -17 -11 -19
-22 -33 -44 -29 -49 3 -5 0 -6 -6 -2 -7 4 -12 4 -12 1 0 -9 51 -76 81 -106 15
-14 30 -36 33 -47 4 -12 22 -30 41 -42 18 -11 38 -34 43 -49 6 -16 24 -39 41
-52 22 -16 31 -31 31 -51 0 -15 4 -28 8 -28 5 0 22 -13 38 -30 16 -16 39 -30
52 -30 13 0 22 -6 22 -16 0 -13 7 -15 38 -10 20 4 53 8 72 9 91 8 96 10 40 17
-30 4 -66 3 -79 -2 -15 -5 -28 -5 -35 2 -5 5 -18 10 -28 10 -10 0 -18 5 -18
10 0 6 13 10 28 10 15 0 32 4 38 10 7 7 23 3 49 -10 25 -13 53 -19 77 -17 27
3 35 0 31 -10 -3 -7 -1 -13 5 -13 15 0 24 32 11 41 -8 4 -6 10 7 18 11 6 14
11 8 11 -5 0 -19 -7 -30 -15 -45 -34 -107 -10 -130 51 -14 36 -14 46 -2 70 19
39 67 66 107 58 17 -4 31 -13 31 -21 0 -10 6 -12 21 -8 21 7 22 5 16 -56 -3
-34 -2 -57 3 -50 21 34 28 -63 12 -151 -7 -38 -6 -48 5 -48 10 0 9 -5 -4 -19
-16 -17 -36 -20 -164 -23 -142 -3 -147 -2 -163 20 -9 12 -15 26 -12 31 6 9
-108 145 -204 246 -32 33 -102 112 -156 175 -55 63 -116 131 -136 150 -66 62
-116 104 -127 108 -17 6 -13 22 5 22 10 0 13 6 10 18 -5 14 33 57 156 178 89
87 177 174 195 191 18 18 38 34 45 35 7 2 18 10 25 18 18 23 27 5 14 -31 -9
-26 -9 -29 3 -20 8 7 17 23 20 37 5 20 12 25 34 22 20 -2 26 -8 25 -23 -2 -18
-1 -17 9 3 10 20 19 23 77 23 36 0 99 2 139 5 76 7 82 2 66 -40 -7 -18 -54
-22 -71 -5 -6 6 -17 9 -25 6 -9 -3 -7 -7 7 -13 11 -4 22 -11 25 -15 3 -4 21
-4 40 0 27 5 36 12 38 31 5 42 8 45 56 48 l46 3 -3 -32z m-2550 2 c2 -3 28 -4
58 -3 54 4 55 4 116 -54 59 -57 60 -59 40 -73 -12 -7 -21 -22 -21 -32 0 -36
-18 -28 -24 12 -7 42 -26 45 -26 5 0 -27 -36 -42 -57 -24 -7 6 -13 7 -13 2 0
-15 91 -94 101 -88 5 3 21 -4 35 -15 30 -24 53 -28 35 -7 -8 10 -8 23 2 52
l14 38 6 -33 c4 -19 7 -46 7 -62 0 -23 -3 -27 -17 -22 -17 6 -17 5 0 -14 18
-21 23 -63 7 -63 -5 0 -10 -8 -10 -19 0 -10 -11 -44 -25 -76 -14 -32 -23 -60
-20 -63 2 -3 -4 -12 -16 -20 -11 -8 -24 -25 -29 -38 -5 -13 -16 -24 -25 -24
-8 0 -15 -6 -15 -13 0 -37 -114 -237 -150 -264 -8 -6 -17 -25 -18 -42 -1 -17
-9 -39 -17 -49 -8 -9 -21 -26 -29 -37 -12 -16 -14 22 -14 290 -1 171 3 348 8
395 5 47 10 147 11 222 l2 138 41 -7 c22 -3 42 -9 43 -12z m1910 -3 c-2 -7 -9
-12 -15 -11 -5 1 -38 -27 -72 -63 -34 -36 -64 -63 -67 -61 -7 8 16 57 27 57 6
0 20 20 31 45 19 43 22 45 60 45 28 0 39 -4 36 -12z m97 -2 c-6 -16 -34 -30
-34 -18 0 5 5 13 12 20 16 16 29 15 22 -2z m-214 -5 c0 -5 -6 -16 -13 -23 -7
-7 -24 -33 -37 -58 -14 -25 -39 -62 -57 -83 -30 -34 -33 -35 -33 -14 0 27 109
187 128 187 6 0 12 -4 12 -9z m-1486 -33 c8 -42 3 -44 -33 -12 -39 34 -39 44
-2 44 24 0 29 -5 35 -32z m33 0 c-3 -7 -5 -2 -5 12 0 14 2 19 5 13 2 -7 2 -19
0 -25z m413 0 c27 -42 92 -107 129 -130 32 -20 50 -23 146 -23 103 0 113 2
160 29 59 34 121 90 141 128 l14 27 190 1 c105 0 190 -4 190 -8 0 -4 -21 -28
-47 -54 -64 -63 -76 -78 -63 -78 6 0 4 -10 -5 -24 -8 -13 -13 -30 -9 -39 6
-17 -24 -66 -42 -67 -5 0 -23 -13 -39 -30 -16 -16 -34 -30 -39 -30 -6 0 -33
-12 -60 -26 -37 -19 -51 -23 -56 -14 -6 10 -18 10 -56 1 -32 -8 -165 -14 -386
-16 -186 -2 -341 -6 -346 -9 -5 -3 -19 4 -30 15 -22 20 -30 35 -14 25 8 -4 58
-16 87 -19 6 -1 45 2 88 7 107 11 101 29 -8 22 -71 -5 -85 -4 -85 9 0 10 -10
15 -28 15 -26 0 -62 29 -62 50 0 6 -4 10 -9 10 -5 0 -11 9 -14 20 -5 20 -33
37 -43 27 -7 -6 17 -49 33 -60 21 -13 43 -38 43 -48 0 -38 -92 42 -95 83 -1
11 -6 23 -12 26 -6 4 -14 26 -18 49 l-7 42 31 -15 c17 -9 43 -30 56 -49 18
-22 42 -38 78 -50 29 -9 66 -28 84 -41 17 -13 42 -23 55 -23 20 1 21 2 3 6
-11 3 -33 18 -49 34 -17 16 -35 30 -40 30 -24 3 -32 5 -66 20 -19 9 -41 28
-49 43 -8 14 -33 37 -57 51 -37 22 -64 62 -64 96 0 8 224 18 310 13 34 -2 48
-7 60 -26z m205 2 c31 -32 78 -60 102 -60 17 0 64 31 97 65 18 18 34 23 70 23
29 -1 46 -6 46 -13 0 -21 -82 -94 -130 -116 -41 -20 -52 -21 -115 -12 -95 14
-143 35 -156 70 -6 15 -20 38 -31 51 l-21 22 54 0 c48 0 59 -4 84 -30z m95 15
c10 -12 10 -15 -3 -15 -8 0 -20 7 -27 15 -10 12 -10 15 3 15 8 0 20 -7 27 -15z
m1503 -92 c3 -27 4 -49 2 -51 -1 -1 -14 2 -29 8 -40 15 -73 2 -104 -39 -15
-20 -30 -38 -33 -41 -26 -22 -36 -134 -15 -169 18 -28 70 -43 130 -39 l61 5 0
-161 0 -161 -27 -3 c-21 -3 -37 8 -78 50 -77 78 -123 138 -144 188 -10 25 -23
54 -29 65 -19 35 -9 153 18 209 27 58 82 119 97 109 6 -3 18 3 27 15 17 21 87
62 107 62 6 0 14 -21 17 -47z m-2179 -29 c3 -8 2 -12 -4 -9 -6 3 -10 10 -10
16 0 14 7 11 14 -7z m-61 -83 c-10 -44 -21 -45 -28 -4 -3 22 -13 53 -21 69
l-15 29 35 -34 c28 -28 34 -40 29 -60z m2247 39 c0 -5 -4 -10 -10 -10 -5 0
-10 5 -10 10 0 6 5 10 10 10 6 0 10 -4 10 -10z m-2414 -27 c-10 -10 -19 5 -10
18 6 11 8 11 12 0 2 -7 1 -15 -2 -18z m57 -1 c-3 -12 -9 -19 -14 -16 -5 3 -4
14 2 25 13 26 20 21 12 -9z m2334 -34 c19 -18 23 -32 23 -84 0 -63 -9 -82 -32
-67 -7 4 -25 6 -39 4 -34 -3 -59 30 -59 79 0 40 5 50 40 73 32 22 39 21 67 -5z
m-2161 -34 c-10 -26 -23 -14 -18 17 4 26 6 29 14 15 5 -10 7 -24 4 -32z m-42
-16 c-4 -24 -15 -59 -26 -78 l-19 -35 6 47 c6 43 30 108 41 108 2 0 1 -19 -2
-42z m1236 -13 c-13 -15 -62 -45 -75 -45 -3 0 -5 5 -5 10 0 6 8 10 18 10 10 0
29 11 42 25 25 27 42 26 20 0z m-1703 -7 c-3 -8 -6 -5 -6 6 -1 11 2 17 5 13 3
-3 4 -12 1 -19z m589 -57 c-8 -9 -18 -29 -22 -44 -6 -26 -28 -46 -39 -35 -2 2
0 22 5 43 5 22 12 53 15 69 l6 29 24 -23 c22 -21 23 -25 11 -39z m1110 11
c-36 -36 -46 -19 -10 19 16 17 30 25 33 18 2 -6 -8 -23 -23 -37z m-1188 -17
c-14 -43 -38 -59 -38 -26 0 12 4 21 9 21 5 0 14 15 21 33 17 44 24 19 8 -28z
m-109 -61 c-12 -15 -11 -16 9 -10 12 4 22 3 22 -1 0 -13 -69 -78 -75 -71 -5 5
28 88 41 101 14 14 17 -3 3 -19z m962 -32 c-6 -2 -17 -9 -24 -16 -17 -16 -65
-36 -87 -36 -14 0 -20 7 -20 24 0 24 23 51 37 43 4 -2 28 -2 53 2 26 4 47 2
49 -3 2 -6 -1 -12 -8 -14z m79 -2 c-8 -5 -12 -11 -9 -14 3 -3 27 6 54 20 43
21 53 23 73 12 19 -10 25 -10 33 2 8 13 10 13 19 0 9 -13 10 -13 10 0 0 13 1
13 11 0 8 -11 12 -12 16 -2 5 14 73 17 73 3 0 -5 27 -37 60 -72 32 -35 59 -71
60 -80 0 -8 51 -70 114 -137 63 -67 131 -145 150 -174 19 -29 59 -78 88 -109
38 -40 57 -70 66 -104 14 -54 9 -71 -9 -31 -7 14 -15 26 -19 26 -4 0 -23 25
-41 55 -18 30 -37 55 -41 55 -4 0 -8 6 -8 14 0 8 -5 18 -11 21 -5 4 -3 -10 6
-32 9 -21 20 -39 25 -41 6 -2 10 -11 10 -20 0 -9 12 -33 26 -54 26 -37 26 -39
14 -105 -16 -86 -48 -192 -66 -218 -20 -29 -18 -14 22 127 40 146 41 175 2
197 -44 26 -178 201 -178 233 0 15 -9 45 -20 66 -17 32 -25 38 -45 34 -17 -3
-31 4 -50 24 l-27 29 20 -30 c11 -17 32 -37 46 -45 25 -13 36 -40 16 -40 -5 0
-10 -13 -10 -30 0 -22 5 -30 18 -30 13 0 30 -26 62 -95 24 -52 55 -106 69
-119 25 -24 78 -51 94 -48 12 3 8 -27 -6 -35 -7 -4 -21 -21 -31 -38 -11 -16
-30 -41 -43 -54 -12 -13 -23 -34 -23 -46 0 -12 -11 -34 -25 -49 -14 -15 -25
-31 -25 -36 0 -5 -10 -21 -23 -37 -13 -15 -27 -36 -30 -46 -4 -10 -26 -27 -50
-37 -45 -20 -61 -43 -72 -104 -5 -22 -13 -36 -22 -36 -21 0 -52 -41 -53 -69 0
-30 -37 -71 -63 -71 -16 0 -18 -6 -14 -35 l5 -36 -34 7 c-26 5 -40 2 -54 -11
-16 -15 -39 -18 -132 -18 -62 0 -145 2 -185 5 -40 3 -72 2 -71 -1 2 -18 -5
-19 -37 -5 -42 17 -66 18 -62 2 2 -13 -13 -14 -88 -4 -22 3 -68 8 -103 10 -50
3 -66 9 -82 28 -11 12 -19 28 -20 34 0 6 -7 17 -15 24 -10 8 -15 30 -15 61 0
27 -4 49 -9 49 -4 0 -20 17 -33 38 -14 20 -51 64 -82 96 -31 33 -56 65 -56 71
0 13 -25 70 -41 95 -5 8 -17 28 -27 43 -9 16 -38 52 -64 80 -58 63 -65 82 -42
108 16 18 16 19 1 13 -23 -9 -21 9 3 31 18 16 20 16 20 2 0 -10 3 -17 8 -17 4
0 7 29 7 65 0 38 5 69 13 77 6 6 12 19 12 27 -1 9 -7 4 -16 -12 -8 -15 -19
-25 -25 -22 -11 8 27 65 44 65 14 0 37 45 37 72 0 10 9 32 20 50 24 40 25 52
4 44 -12 -5 -15 -2 -10 10 3 9 9 27 12 40 3 13 10 24 14 24 5 0 14 16 20 36
11 31 13 33 24 18 9 -12 15 -14 20 -5 4 6 12 8 18 5 7 -5 8 -2 4 5 -9 13 22
54 34 46 4 -3 11 7 15 23 3 15 18 39 33 55 28 30 55 38 29 9 -10 -10 -17 -24
-17 -30 0 -7 -11 -29 -23 -50 -31 -48 -49 -82 -44 -82 2 0 30 40 62 89 54 83
60 89 79 78 36 -20 58 -18 82 7 32 31 104 35 111 6 7 -27 105 -65 131 -51 11
6 27 8 35 5 8 -2 37 4 66 16 56 22 101 26 117 10 11 -11 54 -2 54 12 0 5 -6 8
-12 7 -29 -3 -46 2 -52 16 -7 20 64 69 79 54 7 -7 5 -13 -5 -19z m-270 11 c0
-5 -7 -11 -15 -15 -8 -3 -15 -10 -15 -15 0 -7 9 -6 25 1 37 17 40 4 7 -31 -35
-38 -63 -36 -106 10 -15 16 -32 29 -37 29 -5 0 -9 4 -9 9 0 9 36 15 118 19 17
1 32 -2 32 -7z m-506 -13 c-4 -7 -12 -20 -19 -28 -7 -8 -15 -28 -18 -45 -3
-16 -9 -39 -13 -50 -6 -18 23 20 79 102 l22 33 113 0 c61 0 112 -2 112 -5 0
-3 -18 -17 -40 -31 -38 -26 -41 -26 -66 -9 -39 25 -87 13 -120 -31 -18 -23
-30 -31 -35 -23 -5 8 -10 5 -18 -10 -7 -12 -9 -26 -6 -31 3 -5 0 -7 -8 -4 -8
3 -18 0 -22 -5 -3 -6 -10 -9 -15 -6 -10 6 -60 -59 -60 -78 0 -8 -6 -20 -14
-26 -16 -14 -40 -75 -26 -66 13 8 28 -25 22 -49 -8 -31 -51 -96 -68 -103 -8
-3 -23 -22 -34 -42 -10 -20 -31 -47 -46 -61 -23 -21 -20 -11 24 75 27 55 59
111 71 124 12 13 21 28 21 32 0 17 -27 -3 -45 -34 -10 -18 -36 -59 -58 -92
-31 -48 -37 -54 -32 -30 3 17 19 50 34 75 57 92 85 146 87 167 3 29 83 145 94
138 6 -3 7 1 4 9 -4 10 -1 16 9 16 9 0 19 5 23 12 5 7 3 8 -6 3 -15 -9 -11 -1
24 52 20 31 46 48 30 21z m-214 -29 c-7 -11 -14 -18 -17 -15 -3 3 0 12 7 21
18 21 23 19 10 -6z m1828 -9 c7 -12 16 -18 21 -15 11 6 26 -13 36 -44 10 -31
-20 -96 -51 -110 -41 -18 -88 -13 -111 12 -27 29 -43 61 -43 84 0 28 51 73 82
73 15 0 30 5 33 10 9 15 19 12 33 -10z m-1785 -22 c-3 -13 -15 -36 -28 -53
-23 -28 -24 -28 -18 -5 5 20 42 80 48 80 1 0 0 -10 -2 -22z m-124 -83 c-36
-87 -49 -94 -21 -11 10 31 16 56 12 56 -4 0 -27 -43 -51 -95 -45 -97 -59 -114
-59 -71 0 24 71 160 94 181 22 19 51 33 54 24 2 -4 -11 -42 -29 -84z m71 59
c0 -14 -54 -104 -62 -104 -5 0 2 19 14 43 12 23 23 45 24 50 1 4 2 9 3 12 2 7
21 6 21 -1z m1936 -78 c4 -24 1 -42 -10 -58 -20 -28 -21 -97 -1 -124 13 -19
12 -22 -10 -34 -14 -7 -25 -19 -25 -27 0 -19 -27 -16 -50 7 -28 28 -25 38 11
42 43 4 56 27 40 66 -12 30 -45 51 -59 38 -3 -4 7 -19 21 -34 35 -36 34 -52
-2 -52 -65 0 -70 70 -7 105 39 22 65 56 66 88 0 30 19 18 26 -17z m-2046 -86
c-6 -11 -12 -20 -14 -20 -2 0 -2 9 1 20 3 11 9 20 15 20 5 0 4 -9 -2 -20z
m2129 -44 c32 -17 32 -18 15 -37 -12 -13 -28 -19 -48 -17 -25 2 -33 9 -42 38
-8 24 -9 41 -2 54 11 19 11 19 27 -1 10 -11 32 -28 50 -37z m-1995 27 c4 -10
4 -14 0 -10 -4 4 -25 -20 -45 -53 -21 -33 -41 -60 -45 -60 -3 0 3 15 15 33 11
17 29 49 41 70 23 42 25 43 34 20z m-161 -28 c-3 -9 -8 -14 -10 -11 -3 3 -2 9
2 15 9 16 15 13 8 -4z m-88 -35 c-20 -38 -50 -43 -33 -5 6 13 18 26 27 28 9 3
17 5 19 6 1 0 -4 -12 -13 -29z m74 -22 c-6 -12 -20 -34 -30 -47 -15 -18 -19
-20 -19 -7 0 9 5 16 10 16 6 0 10 5 10 11 0 12 33 59 38 54 2 -2 -2 -14 -9
-27z m2219 -8 c-14 -16 -27 -24 -32 -19 -12 10 33 61 46 53 4 -3 -2 -18 -14
-34z m-78 -35 c6 -15 17 -25 29 -25 14 0 20 -9 24 -32 7 -51 0 -59 -50 -56
-30 1 -47 7 -51 17 -2 9 -14 23 -25 32 -20 16 -20 18 -3 44 21 33 36 29 58
-16 10 -19 18 -28 18 -21 0 7 -7 26 -15 41 -8 16 -11 31 -8 35 10 10 13 7 23
-19z m-2270 -44 c-18 -36 -40 -54 -40 -33 0 12 51 84 57 79 2 -3 -5 -23 -17
-46z m-41 -73 c-2 -28 -56 -103 -72 -100 -22 4 -22 -7 1 -24 15 -12 15 -13 -9
-14 -23 0 -26 3 -21 28 3 15 11 36 18 47 14 19 14 19 15 0 0 -15 5 -10 17 15
23 48 32 60 43 60 5 0 9 -6 8 -12z m34 -13 c-3 -9 -8 -14 -10 -11 -3 3 -2 9 2
15 9 16 15 13 8 -4z m151 -50 c-10 -16 -20 -23 -22 -16 -4 12 28 55 35 47 3
-2 -3 -17 -13 -31z m25 -33 c-6 -18 -15 -29 -20 -26 -5 3 -2 19 7 35 20 39 28
33 13 -9z m33 -63 c-2 -19 -8 -38 -14 -44 -7 -7 -8 -2 -3 14 5 15 3 26 -5 31
-16 10 -5 43 13 37 7 -2 11 -17 9 -38z m-122 -16 c-11 -17 -11 -17 -6 0 3 10
7 26 7 35 1 15 2 15 6 0 2 -10 -1 -25 -7 -35z m-170 -23 c-19 -13 -30 -13 -30
0 0 6 10 10 23 10 18 0 19 -2 7 -10z m195 -30 c-4 -12 -9 -19 -12 -17 -3 3 -2
15 2 27 4 12 9 19 12 17 3 -3 2 -15 -2 -27z m1987 -25 c-4 -5 -13 -26 -19 -45
l-13 -35 5 48 c6 57 14 75 26 56 4 -7 5 -18 1 -24z m-2212 0 c0 -14 3 -13 25
1 31 21 32 8 2 -54 -32 -67 -38 -84 -27 -77 5 3 7 -7 5 -25 -2 -17 0 -28 6
-25 5 4 9 15 9 25 0 10 6 23 14 27 7 4 22 35 33 68 18 55 21 58 31 38 10 -17
7 -29 -14 -67 -14 -25 -22 -46 -18 -46 4 0 -3 -11 -15 -24 -16 -17 -21 -31
-16 -45 3 -12 11 -18 17 -15 7 5 9 -2 4 -20 -5 -20 -3 -26 9 -26 12 0 14 -8 9
-40 -7 -43 -4 -46 27 -29 20 10 20 9 5 -20 -21 -40 -3 -51 31 -20 l25 24 -19
-40 c-28 -56 -36 -85 -24 -85 14 0 51 41 62 69 5 13 12 22 14 19 3 -3 -4 -26
-16 -52 -40 -91 -34 -125 10 -61 25 37 40 41 21 6 -6 -12 -7 -21 -2 -21 4 0
21 26 37 58 33 67 60 104 69 95 3 -3 -3 -20 -13 -37 -28 -47 -81 -147 -81
-152 0 -3 4 -3 10 1 5 3 3 -16 -5 -42 -8 -26 -13 -48 -11 -50 3 -3 40 79 87
189 13 32 28 56 33 55 17 -6 25 -55 11 -74 -31 -45 -69 -129 -67 -149 1 -13
-6 -42 -16 -65 l-18 -42 -95 2 c-131 2 -155 11 -163 61 -3 22 -9 184 -12 360
-6 290 -5 320 10 320 9 0 16 -7 16 -15z m330 -35 c0 -13 -1 -13 -10 0 -5 8
-10 22 -10 30 0 13 1 13 10 0 5 -8 10 -22 10 -30z m2020 22 c0 -5 -9 -17 -20
-27 -22 -20 -26 -14 -10 16 11 19 30 26 30 11z m205 -26 c-17 -19 -39 -49 -48
-68 -21 -42 -67 -97 -67 -80 0 7 18 44 40 83 44 78 44 79 30 79 -5 0 -10 -6
-10 -14 0 -8 -7 -21 -15 -30 -8 -8 -19 -23 -23 -33 -19 -47 -84 -165 -88 -161
-11 12 58 173 100 231 17 23 27 27 67 27 l46 0 -32 -34z m102 16 c1 -10 -11
-25 -27 -34 -29 -17 -69 -78 -51 -78 6 0 8 -7 5 -15 -5 -11 -2 -13 10 -9 13 5
16 -1 16 -31 0 -50 17 -35 25 23 6 49 25 93 25 62 0 -9 2 -65 5 -125 11 -265
14 -451 6 -463 -8 -14 -28 -15 -389 -13 -79 0 -160 -2 -179 -5 -30 -5 -35 -3
-30 10 4 9 2 16 -3 16 -19 0 -10 41 26 113 37 76 94 226 94 249 0 23 -19 -13
-36 -72 -9 -30 -20 -60 -25 -66 -5 -6 -6 -14 -2 -17 3 -4 2 -7 -4 -7 -6 0 -23
-28 -38 -62 -16 -35 -30 -57 -33 -50 -4 13 49 147 76 189 7 12 12 32 10 45 -2
18 -11 7 -38 -49 -32 -67 -60 -99 -45 -53 4 13 2 20 -7 20 -10 1 -9 4 2 13 9
7 35 39 58 71 23 33 42 55 42 50 0 -5 8 7 18 26 24 44 45 52 37 13 -6 -25 -5
-26 6 -9 6 11 12 29 13 40 1 12 7 21 14 21 7 0 23 20 35 45 13 25 28 44 35 43
6 -2 19 13 28 32 20 44 35 55 24 18 -23 -73 -54 -159 -60 -168 -4 -5 -20 -50
-35 -100 -16 -49 -34 -96 -42 -103 -7 -7 -13 -18 -13 -23 0 -5 -4 -9 -9 -9 -5
0 9 48 31 108 46 122 63 204 22 102 -14 -36 -39 -101 -55 -145 -49 -137 -67
-180 -75 -180 -11 0 -47 -65 -40 -72 11 -12 38 9 51 39 7 18 21 33 30 33 18 0
29 18 80 128 20 42 40 77 45 77 5 0 16 14 25 30 9 17 21 30 28 30 6 0 23 12
37 26 41 44 88 75 106 72 13 -2 26 11 43 42 18 32 20 41 8 31 -23 -18 -22 1 2
31 11 13 30 47 42 76 19 44 27 52 49 52 17 0 26 -6 27 -18z m-2359 -17 c-3 -3
-9 2 -12 12 -6 14 -5 15 5 6 7 -7 10 -15 7 -18z m1933 -26 c-9 -23 -10 -23
-10 -2 -1 12 2 30 6 40 6 15 8 15 11 2 1 -8 -2 -26 -7 -40z m-1966 10 c6 -19
0 -38 -9 -28 -10 12 -16 49 -7 49 5 0 13 -9 16 -21z m1845 -26 c-7 -21 -17
-42 -23 -48 -11 -11 -10 -9 14 57 17 49 25 41 9 -9z m-1709 -4 c26 -29 46 -67
64 -123 31 -93 74 -176 93 -176 6 0 12 -4 12 -9 0 -6 12 -16 27 -23 15 -7 37
-33 49 -57 12 -25 29 -50 36 -55 8 -6 18 -37 22 -70 3 -32 9 -62 12 -67 3 -5
23 -13 44 -19 49 -13 52 -30 5 -31 -19 -1 -45 -2 -57 -2 -22 -1 -25 2 -51 64
-8 20 -22 36 -31 36 -13 0 -13 -4 2 -31 9 -17 21 -34 26 -37 12 -9 -2 -29 -20
-29 -8 0 -14 9 -14 21 0 17 -37 76 -81 127 -6 7 -8 19 -5 27 6 17 -64 146 -75
139 -15 -9 -40 43 -34 68 6 23 -32 134 -77 221 -20 40 -18 67 4 67 6 0 29 -19
49 -41z m-94 9 c-3 -8 -6 -5 -6 6 -1 11 2 17 5 13 3 -3 4 -12 1 -19z m1974
-25 c-12 -20 -14 -14 -5 12 4 9 9 14 11 11 3 -2 0 -13 -6 -23z m-1994 -5 c-3
-8 -6 -5 -6 6 -1 11 2 17 5 13 3 -3 4 -12 1 -19z m1786 2 c-3 -12 -8 -19 -11
-16 -5 6 5 36 12 36 2 0 2 -9 -1 -20z m113 -37 c-8 -15 -26 -41 -40 -58 l-25
-30 11 37 c6 21 14 35 18 33 10 -6 40 39 41 62 1 16 2 16 6 1 2 -9 -3 -29 -11
-45z m-1828 -23 c17 -38 32 -75 32 -82 0 -8 4 -18 9 -24 14 -14 23 -54 13 -54
-5 0 -17 19 -27 43 -10 23 -28 65 -40 92 -30 67 -38 95 -28 95 4 0 23 -32 41
-70z m-210 22 c-8 -9 -26 -36 -38 -59 -27 -50 -49 -59 -24 -10 35 66 67 112
72 99 2 -7 -2 -21 -10 -30z m188 -58 c39 -84 41 -108 4 -42 -13 23 -25 37 -28
30 -2 -7 4 -25 13 -40 17 -26 17 -26 -1 -9 -11 10 -19 33 -20 55 -1 20 -5 47
-9 60 -16 49 8 18 41 -54z m1714 -5 c-7 -35 -15 -68 -20 -74 -4 -5 -17 -36
-28 -69 -24 -68 -75 -155 -115 -199 -42 -46 -87 -113 -87 -131 0 -13 -13 -16
-69 -16 l-69 0 1 33 c1 31 4 35 46 47 50 15 53 17 95 72 18 25 34 35 46 33 11
-2 19 -1 18 3 -2 13 20 57 40 78 12 12 18 25 15 28 -12 12 -24 6 -35 -19 -6
-14 -15 -25 -20 -25 -5 0 -4 9 2 20 16 30 -5 24 -26 -7 -9 -15 -26 -36 -35
-47 -18 -19 -18 -19 -14 3 2 13 8 28 13 35 5 6 15 27 21 48 8 24 20 38 35 42
31 8 116 84 116 104 0 10 9 28 20 42 18 23 20 23 20 5 0 -11 -9 -39 -20 -62
-10 -24 -15 -43 -11 -43 8 0 44 89 57 143 12 52 15 19 4 -44z m-1877 -3 c-38
-60 -75 -107 -80 -102 -5 5 40 94 70 139 32 46 40 11 10 -37z m47 -5 c0 -6 -4
-13 -10 -16 -5 -3 -10 1 -10 9 0 9 5 16 10 16 6 0 10 -4 10 -9z m1856 -44 c-1
-18 -12 -46 -25 -63 -15 -19 -20 -22 -15 -9 4 11 14 39 22 63 8 23 15 42 17
42 1 0 1 -15 1 -33z m-1867 -77 c-48 -70 -60 -74 -25 -7 43 79 61 103 64 85 2
-9 -16 -44 -39 -78z m71 21 c0 -10 -16 -42 -35 -71 -42 -62 -45 -49 -7 31 28
60 42 73 42 40z m129 -95 c28 -40 47 -77 44 -80 -6 -6 -16 8 -82 117 -39 65
-14 40 38 -37z m1627 -81 c-12 -39 -26 -46 -26 -15 0 20 18 49 31 50 3 0 1
-16 -5 -35z m-1326 -26 c0 -14 -12 -10 -26 9 -22 29 -16 51 6 23 11 -13 20
-27 20 -32z m-320 31 c0 -6 -10 -27 -23 -48 -40 -64 -56 -106 -50 -134 3 -16
8 -28 12 -28 11 0 47 53 55 80 5 18 5 21 -3 10 -22 -31 -21 0 2 51 l23 54 15
-30 c10 -22 13 -44 7 -80 -8 -59 6 -86 31 -59 12 12 13 18 4 21 -14 5 -18 43
-5 43 5 0 17 -18 27 -39 9 -22 26 -41 36 -44 61 -16 -45 -38 -186 -39 -70 0
-70 0 -53 20 22 25 29 50 15 55 -8 2 3 33 32 90 41 79 61 105 61 77z m1377
-45 c-4 -8 -11 -15 -17 -15 -7 0 -7 6 0 21 13 23 26 19 17 -6z m430 -15 c-10
-27 -27 -41 -27 -22 1 24 14 52 25 52 11 0 11 -6 2 -30z m-249 -103 c4 -48 24
-48 52 0 l21 37 13 -25 c6 -13 10 -35 8 -47 -4 -22 -8 -24 -56 -18 -28 3 -71
6 -95 6 l-44 0 36 37 c21 20 37 40 37 46 0 5 6 7 13 5 6 -3 13 -21 15 -41z
m-333 -37 c4 -6 -6 -10 -22 -10 -22 0 -25 2 -13 10 19 12 27 12 35 0z m-1395
-69 c0 -7 -23 -11 -55 -11 -30 0 -55 4 -55 8 0 5 25 10 55 11 33 1 55 -2 55
-8z"/>
<path d="M2636 2053 c-2 -10 -7 -33 -11 -51 -4 -18 -15 -37 -26 -42 -20 -12
-26 -54 -8 -66 7 -4 9 2 7 14 -2 11 7 31 18 44 12 13 24 43 27 71 7 47 3 63
-7 30z"/>
<path d="M2403 1943 c-3 -10 -8 -21 -10 -25 -2 -5 3 -8 11 -8 9 0 16 9 16 20
0 14 7 20 24 20 29 0 42 -37 22 -60 -8 -8 -17 -29 -21 -47 -5 -23 -14 -34 -37
-42 -45 -16 -51 -14 -44 14 4 14 3 25 -1 25 -20 -1 -31 -18 -36 -54 -3 -21 -9
-42 -14 -47 -12 -12 -43 -1 -43 16 0 8 -8 11 -21 8 -19 -5 -20 -4 -10 15 14
27 37 42 28 19 -3 -10 -3 -17 1 -17 10 0 51 92 58 132 l6 33 -21 -33 c-12 -18
-21 -35 -21 -38 0 -3 -9 -18 -21 -32 -59 -76 -77 -98 -111 -133 -36 -36 -37
-40 -31 -85 3 -26 13 -56 22 -67 21 -25 87 -67 106 -67 25 0 17 17 -15 30 -34
14 -56 37 -46 47 4 4 12 1 17 -7 8 -11 9 -8 4 10 -4 14 -16 35 -27 47 -26 28
-18 59 27 96 33 27 35 28 66 12 32 -17 48 -10 49 21 0 11 30 28 68 39 20 6 23
4 20 -12 -2 -10 -13 -19 -24 -21 -24 -3 -35 -38 -33 -106 l1 -41 10 53 c5 29
13 50 17 48 4 -3 15 11 26 29 10 19 26 37 36 40 20 7 25 21 10 27 -6 2 -6 17
-1 38 4 19 8 29 9 23 2 -22 21 -14 31 12 11 30 40 33 47 5 3 -11 9 -20 14 -20
15 0 10 -37 -7 -51 -12 -10 -20 -10 -34 -1 -16 10 -18 9 -14 -3 7 -18 45 -20
62 -3 28 28 2 96 -39 105 -15 3 -32 16 -40 29 -16 30 -76 35 -86 7z"/>
<path d="M2545 1940 c-3 -5 -1 -10 4 -10 6 0 11 5 11 10 0 6 -2 10 -4 10 -3 0
-8 -4 -11 -10z"/>
<path d="M2370 1870 c0 -5 5 -10 10 -10 6 0 10 5 10 10 0 6 -4 10 -10 10 -5 0
-10 -4 -10 -10z"/>
<path d="M2496 1743 c9 -25 13 -54 10 -68 -4 -14 -2 -25 4 -25 19 0 11 84 -11
110 l-20 25 17 -42z"/>
<path d="M2313 1666 c7 -14 13 -23 15 -21 7 6 -9 45 -18 45 -4 0 -3 -11 3 -24z"/>
<path d="M2332 1600 c0 -19 2 -27 5 -17 2 9 2 25 0 35 -3 9 -5 1 -5 -18z"/>
<path d="M361 2034 c-1 -16 5 -39 13 -50 23 -31 25 -13 5 36 -17 43 -18 44
-18 14z"/>
<path d="M575 1732 c-5 -4 -17 -16 -25 -27 -11 -15 -7 -14 13 4 24 22 32 31
25 31 -2 0 -7 -4 -13 -8z"/>
<path d="M515 1660 c-10 -11 -16 -22 -14 -24 2 -2 12 7 22 20 22 29 17 32 -8
4z"/>
<path d="M273 1323 c-7 -3 -13 -12 -13 -20 0 -10 6 -13 16 -9 9 3 20 6 25 6 5
0 9 6 9 13 0 14 -14 17 -37 10z"/>
<path d="M250 1145 c0 -8 2 -15 4 -15 2 0 6 7 10 15 3 8 1 15 -4 15 -6 0 -10
-7 -10 -15z"/>
<path d="M1895 1890 c-3 -5 -1 -10 4 -10 6 0 11 5 11 10 0 6 -2 10 -4 10 -3 0
-8 -4 -11 -10z"/>
<path d="M1859 1853 c-8 -10 -20 -29 -28 -43 l-14 -25 23 20 c24 22 44 54 37
61 -2 2 -10 -4 -18 -13z"/>
<path d="M2791 1498 c-13 -33 -5 -39 49 -36 38 2 50 7 54 22 8 30 -1 36 -50
36 -37 0 -46 -4 -53 -22z"/>
<path d="M1850 1585 c0 -18 -50 -45 -85 -45 -16 0 -25 -6 -25 -15 0 -16 12
-20 23 -8 4 4 34 7 68 8 67 2 77 -7 88 -74 3 -19 9 -32 13 -30 4 2 23 -12 42
-30 20 -19 36 -30 36 -24 0 6 -11 21 -25 34 -13 13 -25 30 -25 37 0 7 -7 15
-15 18 -8 4 -15 14 -15 23 0 26 -25 66 -40 63 -8 -2 -11 5 -6 22 4 17 1 26
-10 30 -22 8 -24 8 -24 -9z"/>
<path d="M1470 1445 c0 -8 7 -15 15 -15 8 0 15 4 15 9 0 5 -7 11 -15 15 -9 3
-15 0 -15 -9z"/>
<path d="M1080 1435 c0 -8 7 -15 15 -15 8 0 15 4 15 9 0 5 -7 11 -15 15 -9 3
-15 0 -15 -9z"/>
<path d="M1840 1430 c0 -5 5 -10 10 -10 6 0 10 5 10 10 0 6 -4 10 -10 10 -5 0
-10 -4 -10 -10z"/>
<path d="M1590 1385 c0 -8 7 -15 15 -15 8 0 15 7 15 15 0 8 -7 15 -15 15 -8 0
-15 -7 -15 -15z"/>
<path d="M1220 1364 c0 -8 5 -12 10 -9 6 3 10 10 10 16 0 5 -4 9 -10 9 -5 0
-10 -7 -10 -16z"/>
<path d="M876 1326 c-14 -19 -26 -37 -26 -41 0 -3 -16 -27 -35 -52 -19 -25
-35 -53 -35 -61 0 -10 6 -7 18 9 23 30 113 179 108 179 -2 0 -15 -15 -30 -34z"/>
<path d="M2030 1351 c0 -5 7 -12 16 -15 14 -5 15 -4 4 9 -14 17 -20 19 -20 6z"/>
<path d="M1720 1330 c0 -5 7 -10 15 -10 8 0 15 5 15 10 0 6 -7 10 -15 10 -8 0
-15 -4 -15 -10z"/>
<path d="M2141 1314 c0 -11 3 -14 6 -6 3 7 2 16 -1 19 -3 4 -6 -2 -5 -13z"/>
<path d="M1323 1290 c-81 -40 -175 -139 -213 -224 -39 -86 -64 -228 -57 -329
4 -65 10 -85 37 -127 93 -145 261 -197 435 -134 39 14 75 25 82 26 6 1 17 12
24 25 7 13 16 23 21 23 14 0 107 151 129 209 12 32 23 91 26 139 6 78 4 86
-27 155 -18 39 -37 75 -42 78 -5 3 -23 28 -41 55 -27 40 -47 56 -115 92 -107
54 -168 57 -259 12z m206 -27 c57 -22 97 -59 146 -131 56 -84 85 -165 85 -236
0 -197 -218 -402 -405 -383 -58 6 -139 44 -176 83 -29 31 -55 110 -69 211 -9
70 -8 91 6 140 24 85 39 109 123 201 111 123 192 154 290 115z"/>
<path d="M1425 1108 c-22 -5 -50 -12 -63 -14 -34 -7 -63 -40 -57 -67 3 -12 7
-46 8 -75 2 -29 6 -55 10 -58 3 -3 27 2 54 12 66 23 98 14 118 -33 13 -31 14
-46 5 -84 -16 -66 -41 -89 -94 -89 -48 0 -63 12 -72 59 -8 37 -22 49 -35 30
-17 -28 -9 -67 21 -99 30 -32 31 -32 98 -25 106 11 130 30 162 128 10 31 10
48 -1 84 -15 57 -54 77 -149 78 -61 0 -65 2 -68 24 -2 12 -1 33 2 46 5 20 13
23 93 29 70 5 89 4 95 -8 5 -8 16 -12 29 -9 16 5 19 11 14 32 -4 14 -10 30
-15 35 -13 14 -109 16 -155 4z m111 -334 c-4 -14 -9 -24 -12 -21 -3 2 -2 17 2
31 3 15 9 25 11 22 3 -3 2 -17 -1 -32z"/>
<path d="M930 1241 c0 -5 7 -11 15 -15 9 -3 15 0 15 9 0 8 -7 15 -15 15 -8 0
-15 -4 -15 -9z"/>
<path d="M2060 1240 c0 -5 7 -10 15 -10 8 0 15 5 15 10 0 6 -7 10 -15 10 -8 0
-15 -4 -15 -10z"/>
<path d="M1051 1201 c-7 -5 -10 -14 -6 -20 5 -9 10 -9 21 0 26 22 14 38 -15
20z"/>
<path d="M1900 1080 c0 -11 33 -30 52 -30 7 1 3 9 -11 20 -25 22 -41 26 -41
10z"/>
<path d="M880 1035 c0 -9 6 -12 15 -9 8 4 15 10 15 15 0 5 -7 9 -15 9 -8 0
-15 -7 -15 -15z"/>
<path d="M974 986 c-8 -22 3 -33 18 -18 9 9 9 15 0 24 -9 9 -13 7 -18 -6z"/>
<path d="M700 866 c0 -13 29 -31 37 -23 2 2 1 12 -3 21 -8 20 -34 21 -34 2z"/>
<path d="M883 778 c2 -7 7 -13 12 -13 5 0 10 6 13 13 2 6 -4 12 -13 12 -9 0
-15 -6 -12 -12z"/>
<path d="M1910 760 c0 -5 14 -10 31 -10 17 0 28 4 24 10 -3 6 -17 10 -31 10
-13 0 -24 -4 -24 -10z"/>
<path d="M2140 737 c-27 -17 -31 -22 -17 -25 20 -4 67 23 67 38 0 14 -10 11
-50 -13z"/>
<path d="M1820 691 c0 -11 50 -24 58 -16 8 8 -19 25 -40 25 -10 0 -18 -4 -18
-9z"/>
<path d="M1030 613 c0 -22 2 -25 10 -13 13 20 13 40 0 40 -5 0 -10 -12 -10
-27z"/>
<path d="M952 579 c3 -8 8 -13 11 -11 9 3 7 11 -5 18 -6 4 -8 0 -6 -7z"/>
<path d="M1000 425 c0 -10 7 -15 17 -13 22 4 23 22 1 26 -11 2 -18 -3 -18 -13z"/>
<path d="M1310 410 c0 -11 5 -20 10 -20 6 0 10 9 10 20 0 11 -4 20 -10 20 -5
0 -10 -9 -10 -20z"/>
<path d="M1950 385 c0 -16 9 -19 34 -9 25 9 19 24 -9 24 -16 0 -25 -6 -25 -15z"/>
<path d="M1226 351 c-4 -7 -5 -15 -2 -18 9 -9 19 4 14 18 -4 11 -6 11 -12 0z"/>
<path d="M1660 327 c0 -14 44 -39 53 -30 8 7 -25 43 -40 43 -7 0 -13 -6 -13
-13z"/>
<path d="M1645 279 c-4 -6 -4 -13 -1 -16 8 -8 36 5 36 17 0 13 -27 13 -35 -1z"/>
<path d="M1185 230 c-3 -5 3 -10 14 -10 12 0 21 5 21 10 0 6 -6 10 -14 10 -8
0 -18 -4 -21 -10z"/>
<path d="M2479 1536 c-1 -14 -2 -30 -3 -36 -2 -23 18 -13 25 12 5 18 3 31 -7
39 -11 9 -14 7 -15 -15z"/>
<path d="M260 625 c0 -8 5 -15 10 -15 6 0 10 7 10 15 0 8 -4 15 -10 15 -5 0
-10 -7 -10 -15z"/>
<path d="M436 267 c-24 -64 -20 -77 14 -39 32 34 42 64 14 41 -13 -11 -14 -9
-9 14 11 41 0 32 -19 -16z"/>
<path d="M482 164 c-7 -8 -8 -14 -3 -14 10 0 25 19 20 25 -2 1 -10 -3 -17 -11z"/>
<path d="M710 585 c0 -5 5 -17 10 -25 5 -8 10 -10 10 -5 0 6 -5 17 -10 25 -5
8 -10 11 -10 5z"/>
<path d="M751 495 c0 -5 9 -28 20 -50 10 -22 16 -29 13 -15 -7 28 -33 80 -33
65z"/>
<path d="M823 367 c4 -10 7 -27 7 -38 0 -10 4 -19 9 -19 10 0 -3 58 -15 69 -4
3 -4 -2 -1 -12z"/>
<path d="M2197 472 c-19 -21 -22 -32 -7 -32 10 0 34 39 27 46 -2 2 -11 -4 -20
-14z"/>
<path d="M2063 254 c-10 -22 -9 -25 5 -22 9 2 18 13 20 26 5 30 -10 28 -25 -4z"/>
<path d="M656 263 c-6 -14 -5 -15 5 -6 7 7 10 15 7 18 -3 3 -9 -2 -12 -12z"/>
<path d="M1 2003 c1 -118 3 -130 10 -83 33 202 33 220 3 220 -12 0 -14 -24
-13 -137z"/>
<path d="M2983 1250 c0 -25 2 -35 4 -22 2 12 2 32 0 45 -2 12 -4 2 -4 -23z"/>
<path d="M0 557 c0 -516 0 -517 21 -517 28 0 59 18 59 34 0 17 35 48 43 39 4
-3 7 3 7 15 0 12 -6 22 -14 22 -10 0 -17 30 -26 113 -6 61 -18 144 -27 182
-15 73 -21 435 -8 494 8 37 -9 92 -35 116 -20 18 -20 14 -20 -498z"/>
<path d="M3003 895 c0 -22 2 -30 4 -17 2 12 2 30 0 40 -3 9 -5 -1 -4 -23z"/>
<path d="M3003 690 c0 -25 2 -35 4 -22 2 12 2 32 0 45 -2 12 -4 2 -4 -23z"/>
</g>
</svg>
