<?xml version="1.0" standalone="no"?>
<!DOCTYPE svg PUBLIC "-//W3C//DTD SVG 20010904//EN"
 "http://www.w3.org/TR/2001/REC-SVG-20010904/DTD/svg10.dtd">
<svg version="1.0" xmlns="http://www.w3.org/2000/svg"
 width="337.000000pt" height="312.000000pt" viewBox="0 0 337.000000 312.000000"
 preserveAspectRatio="xMidYMid meet">
<metadata>
Created by potrace 1.16, written by Peter Selinger 2001-2019
</metadata>
<g transform="translate(0.000000,312.000000) scale(0.100000,-0.100000)"
fill="#000000" stroke="none">
<path d="M259 3087 c-50 -42 -50 -47 -48 -1098 2 -811 0 -981 -11 -994 -10
-12 -11 -18 -2 -24 6 -4 14 -49 18 -104 l7 -97 -29 0 c-22 0 -25 -3 -14 -9 8
-6 18 -7 23 -4 21 13 26 -34 26 -262 0 -132 5 -266 10 -298 6 -32 8 -64 4 -72
-4 -12 6 -15 48 -16 39 -1 47 -3 29 -8 -39 -11 -31 -35 15 -42 22 -3 30 -7 18
-8 -35 -2 -27 -19 12 -27 31 -5 169 0 340 13 33 3 148 6 255 8 107 2 227 4
265 6 39 1 95 -1 125 -5 184 -22 635 -33 850 -21 41 2 143 7 225 10 83 3 157
8 165 10 27 6 423 20 526 18 60 -1 119 -8 145 -17 24 -9 47 -16 51 -16 25 0
18 204 -14 410 -16 111 -19 185 -17 490 0 162 1 313 1 335 0 22 -5 65 -11 95
-17 85 -25 720 -12 922 24 371 27 398 51 567 21 141 26 261 11 261 -5 0 -14
-6 -20 -14 -25 -30 -262 -36 -986 -27 -170 2 -389 8 -485 13 -366 19 -962 24
-1300 11 -152 -7 -198 -5 -208 4 -19 18 -33 16 -63 -10z m1020 -63 c2 -2 -25
-4 -62 -4 -36 0 -72 -3 -81 -6 -9 -3 -16 -1 -16 4 0 17 141 21 159 6z m294
-11 c19 -6 22 -24 6 -40 -11 -11 -61 8 -87 33 -10 10 -8 13 10 17 13 2 30 2
38 -1 8 -2 23 -7 33 -9z m1584 1 c-3 -3 -12 -4 -19 -1 -8 3 -5 6 6 6 11 1 17
-2 13 -5z m-1824 -20 c-5 -15 0 -16 50 -10 57 7 131 -6 143 -25 4 -7 -18 -10
-67 -8 -41 1 -137 -1 -214 -4 -88 -4 -133 -3 -120 2 19 9 19 10 -2 10 -16 1
-20 6 -16 20 6 22 29 27 155 29 68 2 77 0 71 -14z m400 -9 c-10 -13 -28 -25
-41 -25 -23 0 -23 0 5 25 38 33 60 33 36 0z m377 5 c0 -5 -4 -10 -10 -10 -5 0
-10 5 -10 10 0 6 5 10 10 10 6 0 10 -4 10 -10z m398 -56 c-23 -39 -23 -39 -32
-1 -5 23 -3 29 16 36 35 13 39 4 16 -35z m316 37 c3 -4 3 -11 0 -14 -8 -8 -34
3 -34 14 0 11 27 12 34 0z m86 0 c0 -5 -7 -11 -15 -15 -15 -5 -20 5 -8 17 9
10 23 9 23 -2z m105 -1 c-3 -5 -13 -10 -21 -10 -8 0 -14 5 -14 10 0 6 9 10 21
10 11 0 17 -4 14 -10z m-1385 -10 c0 -5 -8 -10 -17 -10 -15 0 -16 2 -3 10 19
12 20 12 20 0z m955 0 c3 -5 -3 -10 -14 -10 -12 0 -21 5 -21 10 0 6 6 10 14
10 8 0 18 -4 21 -10z m-132 -17 c-3 -10 -11 -24 -16 -31 -9 -11 -12 -10 -19 2
-14 26 -27 18 -34 -19 -8 -47 -24 -45 -18 3 9 60 11 62 53 62 34 0 39 -3 34
-17z m311 4 c10 -9 8 -14 -13 -25 -22 -11 -27 -11 -37 2 -6 9 -25 16 -43 16
-17 0 -31 3 -31 8 0 12 111 12 124 -1z m-574 -17 c0 -5 -4 -10 -9 -10 -5 0
-16 -3 -25 -6 -11 -4 -16 -1 -16 10 0 10 9 16 25 16 14 0 25 -4 25 -10z m-817
-15 c26 -11 20 -33 -10 -37 -16 -2 -26 -7 -23 -13 3 -5 9 -9 15 -7 32 11 143
13 149 3 4 -6 17 -11 29 -11 43 0 1 -18 -48 -21 -92 -5 -167 -40 -142 -66 5
-4 12 -2 16 5 7 11 101 32 141 32 13 -1 13 -2 0 -10 -13 -7 -58 -15 -112 -19
-5 -1 -8 -8 -8 -16 0 -16 26 -21 32 -6 2 5 16 13 32 17 47 11 27 -17 -35 -49
-30 -16 -55 -32 -57 -38 -6 -14 3 -11 73 26 60 33 76 35 57 10 -4 -6 -19 -16
-34 -22 -16 -7 -28 -17 -28 -22 0 -12 49 -21 56 -10 3 5 12 9 21 9 14 0 14 -3
-2 -20 -10 -11 -25 -20 -33 -20 -11 0 -12 -3 -3 -14 10 -11 8 -16 -7 -21 -15
-4 -19 -14 -18 -38 2 -20 -6 -46 -21 -69 -17 -28 -20 -38 -9 -38 15 0 79 93
79 116 0 8 4 14 9 14 5 0 6 5 3 10 -3 6 2 10 12 10 11 0 14 3 7 8 -8 5 -5 16
7 36 l18 30 -4 -41 c-2 -23 -11 -53 -20 -67 -9 -14 -15 -31 -12 -38 4 -12 22
22 48 90 9 23 24 29 33 13 6 -8 -46 -96 -75 -130 -11 -12 -14 -11 -20 5 -6 17
-8 16 -14 -8 -4 -14 -5 -35 -3 -45 3 -16 6 -15 26 7 13 14 30 33 39 43 9 9 22
17 30 17 20 0 16 -54 -7 -81 -17 -21 -21 -22 -30 -9 -8 13 -10 13 -10 -2 0 -9
5 -40 11 -68 8 -38 8 -55 0 -63 -8 -8 -14 -2 -22 21 -6 18 -17 32 -25 32 -11
0 -11 -6 -3 -27 6 -15 15 -33 21 -41 15 -18 -5 -36 -62 -56 l-45 -15 39 -1
c33 0 37 -2 26 -15 -7 -8 -27 -15 -46 -15 -18 0 -56 -9 -84 -20 -55 -22 -80
-26 -65 -11 6 5 21 11 35 14 24 4 24 4 -2 6 -30 1 -39 21 -10 21 13 0 14 2 4
9 -11 6 -12 21 -5 69 11 73 5 83 -45 71 -50 -11 -52 -11 -52 6 0 8 6 15 13 15
9 0 9 2 0 8 -7 4 -10 17 -6 30 4 17 13 22 42 24 l36 1 -37 4 c-27 3 -35 8 -31
19 3 7 9 11 14 9 5 -3 19 1 33 10 25 17 25 35 -1 85 -9 18 -13 20 -13 7 0 -14
-8 -17 -49 -16 -44 2 -48 4 -43 23 3 12 13 33 24 48 23 34 23 36 -9 40 -45 5
-40 28 6 28 23 0 41 5 41 10 0 6 -21 10 -46 10 -38 0 -45 3 -40 16 3 9 6 31 6
50 0 30 3 34 28 35 15 0 36 4 47 9 16 7 11 9 -22 9 -23 1 -44 5 -47 10 -3 4
-17 6 -32 3 -20 -4 -25 -1 -20 9 3 8 9 22 12 32 5 13 18 17 63 18 63 0 46 16
-24 20 -28 2 -19 4 30 8 87 7 184 5 208 -4z m730 -37 c-3 -29 -7 -55 -9 -57
-1 -2 -15 -1 -29 3 -34 9 -33 47 2 81 15 14 31 25 35 25 3 0 4 -24 1 -52z
m457 27 c0 -8 -7 -15 -15 -15 -17 0 -21 -26 -5 -32 11 -3 -20 -88 -32 -88 -11
0 -28 69 -21 86 3 8 14 19 24 25 11 5 19 16 19 24 0 8 7 15 15 15 8 0 15 -7
15 -15z m-960 -6 c0 -7 8 -18 18 -25 9 -7 12 -14 5 -14 -14 0 -43 27 -43 41 0
5 5 9 10 9 6 0 10 -5 10 -11z m573 -13 c21 -16 22 -36 2 -36 -17 0 -20 -16 -5
-25 11 -7 -8 -55 -22 -55 -5 0 -8 19 -7 43 1 23 -1 52 -5 65 -8 25 8 29 37 8z
m147 6 c0 -5 -6 -17 -14 -28 -13 -17 -15 -17 -21 -2 -4 9 -13 14 -21 11 -8 -3
-14 1 -14 11 0 12 10 16 35 16 19 0 35 -4 35 -8z m100 -7 c0 -17 -32 -65 -40
-60 -9 6 20 65 33 65 4 0 7 -2 7 -5z m-761 -22 c0 -5 -3 -9 -7 -11 -5 -1 -9 4
-9 13 0 15 13 13 16 -2z m351 13 c0 -3 -4 -8 -10 -11 -5 -3 -10 -1 -10 4 0 6
5 11 10 11 6 0 10 -2 10 -4z m337 -28 c-3 -7 -5 -2 -5 12 0 14 2 19 5 13 2 -7
2 -19 0 -25z m473 24 c0 -5 -10 -28 -21 -53 -21 -42 -22 -43 -31 -20 -5 14 -6
32 -2 40 4 9 6 22 5 29 -1 7 9 12 24 12 14 0 25 -4 25 -8z m160 -43 c0 -5 -11
-2 -24 6 -24 16 -24 16 -19 -7 3 -13 10 -29 16 -36 5 -7 7 -15 4 -18 -10 -10
-27 6 -27 26 0 10 -4 22 -10 25 -16 10 -11 43 8 48 17 4 52 -26 52 -44z m30
26 c0 -8 -4 -15 -10 -15 -5 0 -10 7 -10 15 0 8 5 15 10 15 6 0 10 -7 10 -15z
m-160 -27 c-1 -13 -12 -36 -25 -53 -29 -35 -31 -27 -9 32 18 47 34 56 34 21z
m-1060 -22 c-14 -14 -32 3 -17 18 9 10 14 11 19 2 4 -6 3 -15 -2 -20z m-163
18 c-3 -3 -12 -4 -19 -1 -8 3 -5 6 6 6 11 1 17 -2 13 -5z m987 -31 c-7 -30
-24 -55 -24 -35 0 12 21 62 27 62 2 0 0 -12 -3 -27z m-549 7 c3 -5 -1 -10 -9
-10 -8 0 -18 5 -21 10 -3 6 1 10 9 10 8 0 18 -4 21 -10z m-55 -33 c0 -5 -4 -5
-10 -2 -5 3 -10 14 -10 23 0 15 2 15 10 2 5 -8 10 -19 10 -23z m117 11 c-3 -8
-6 -5 -6 6 -1 11 2 17 5 13 3 -3 4 -12 1 -19z m90 -10 c-3 -7 -5 -2 -5 12 0
14 2 19 5 13 2 -7 2 -19 0 -25z m56 7 c-3 -8 -9 -15 -14 -15 -10 0 -12 24 -3
33 11 11 24 -3 17 -18z m857 9 c0 -8 -4 -12 -10 -9 -5 3 -10 10 -10 16 0 5 5
9 10 9 6 0 10 -7 10 -16z m-1350 -4 c0 -12 -28 -25 -36 -17 -9 9 6 27 22 27 8
0 14 -5 14 -10z m874 -18 c-14 -9 -27 -45 -14 -37 16 10 12 -8 -15 -61 -27
-55 -71 -111 -80 -103 -3 3 4 17 15 32 11 14 20 29 20 34 0 4 9 19 20 33 11
14 20 31 20 39 0 11 -4 9 -15 -5 -22 -30 -18 -9 11 48 19 38 28 48 37 39 8 -8
9 -14 1 -19z m269 1 c3 -19 -2 -34 -19 -52 -27 -29 -30 -19 -12 39 15 47 24
50 31 13z m-609 8 c9 -14 -2 -35 -25 -49 -28 -18 -31 -12 -17 26 12 31 31 41
42 23z m444 -14 c2 -9 -6 -25 -17 -36 -12 -12 -21 -24 -21 -27 0 -4 -11 -17
-24 -29 -13 -12 -25 -28 -28 -36 -3 -8 -8 -11 -12 -7 -11 9 32 88 48 88 8 0
17 15 20 36 7 35 28 43 34 11z m-898 4 c0 -12 -20 -25 -27 -18 -7 7 6 27 18
27 5 0 9 -4 9 -9z m-317 -8 c4 -3 -2 -13 -14 -21 -11 -8 -18 -20 -15 -28 3 -8
-1 -14 -9 -14 -19 0 -19 4 0 40 15 30 26 36 38 23z m347 -3 c0 -5 -4 -10 -10
-10 -5 0 -10 5 -10 10 0 6 5 10 10 10 6 0 10 -4 10 -10z m560 -9 c0 -11 -10
-37 -22 -58 -19 -31 -23 -34 -26 -19 -3 11 3 25 12 31 9 7 13 15 10 18 -8 8 6
47 17 47 5 0 9 -9 9 -19z m-350 -1 c0 -5 -4 -10 -10 -10 -5 0 -10 5 -10 10 0
6 5 10 10 10 6 0 10 -4 10 -10z m140 -4 c0 -8 -4 -18 -10 -21 -5 -3 -10 3 -10
14 0 12 5 21 10 21 6 0 10 -6 10 -14z m-505 -6 c3 -5 1 -10 -4 -10 -6 0 -11 5
-11 10 0 6 2 10 4 10 3 0 8 -4 11 -10z m254 -7 c0 -5 -3 -9 -9 -11 -5 -2 -10
4 -10 13 0 16 16 14 19 -2z m1010 -28 c-7 -7 -13 -5 -19 5 -15 24 -11 31 10
18 13 -9 16 -16 9 -23z m-205 1 c-6 -15 -24 -23 -24 -11 0 8 24 34 28 30 1 -1
0 -10 -4 -19z m-854 -15 c0 -16 -6 -31 -15 -35 -18 -7 -20 5 -3 22 9 9 9 12 0
12 -7 0 -12 7 -12 15 0 8 7 15 15 15 10 0 15 -10 15 -29z m-149 -19 c-6 -2 -9
-8 -5 -13 3 -5 1 -9 -5 -9 -19 0 -20 17 -3 41 16 22 17 23 20 4 3 -10 -1 -21
-7 -23z m54 29 c3 -5 1 -12 -5 -16 -5 -3 -10 1 -10 9 0 18 6 21 15 7z m239 -4
c15 -11 17 -17 7 -35 -6 -12 -16 -22 -22 -22 -12 0 -28 41 -22 58 6 15 15 15
37 -1z m-460 -28 c-13 -14 -21 -16 -28 -9 -8 8 -6 15 8 25 26 20 41 7 20 -16z
m371 12 c-3 -6 -11 -11 -17 -11 -6 0 -6 6 2 15 14 17 26 13 15 -4z m975 -19
c0 -7 -4 -10 -10 -7 -5 3 -10 16 -10 28 0 18 2 19 10 7 5 -8 10 -21 10 -28z
m243 26 c7 -20 -4 -78 -14 -72 -5 3 -6 16 -3 29 3 12 1 26 -5 30 -12 7 -6 25
9 25 4 0 10 -6 13 -12z m-1536 -20 c-3 -8 -6 -5 -6 6 -1 11 2 17 5 13 3 -3 4
-12 1 -19z m223 -14 c0 -14 -4 -22 -10 -19 -5 3 -10 17 -10 31 0 14 4 22 10
19 6 -3 10 -17 10 -31z m940 16 c0 -5 -4 -10 -10 -10 -5 0 -10 5 -10 10 0 6 5
10 10 10 6 0 10 -4 10 -10z m313 -63 c-8 -13 -21 19 -22 53 0 23 1 22 14 -9 8
-18 12 -38 8 -44z m-2038 53 c3 -5 1 -10 -4 -10 -6 0 -11 5 -11 10 0 6 2 10 4
10 3 0 8 -4 11 -10z m1792 -12 c-3 -8 -6 -5 -6 6 -1 11 2 17 5 13 3 -3 4 -12
1 -19z m-657 8 c0 -3 -4 -8 -10 -11 -5 -3 -10 -1 -10 4 0 6 5 11 10 11 6 0 10
-2 10 -4z m-481 -37 c-13 -26 -19 -24 -19 6 0 17 4 23 15 19 11 -5 12 -11 4
-25z m381 21 c0 -5 -5 -10 -11 -10 -5 0 -7 5 -4 10 3 6 8 10 11 10 2 0 4 -4 4
-10z m640 2 c0 -5 -10 -17 -22 -28 -12 -10 -19 -14 -16 -9 3 6 8 18 11 28 6
17 27 24 27 9z m333 -55 c-7 -11 -17 6 -28 43 -6 24 -5 23 14 -4 11 -17 17
-34 14 -39z m-1259 23 c0 -13 -5 -25 -11 -27 -7 -3 -11 7 -11 27 1 35 22 36
22 0z m86 20 c0 -5 -4 -10 -10 -10 -5 0 -10 5 -10 10 0 6 5 10 10 10 6 0 10
-4 10 -10z m90 -6 c0 -8 -5 -12 -10 -9 -6 4 -8 11 -5 16 9 14 15 11 15 -7z
m675 -1 c-4 -10 -10 -26 -12 -35 -3 -10 -12 -18 -19 -18 -18 0 -18 6 3 41 19
31 40 40 28 12z m355 11 c0 -3 -7 -12 -15 -20 -13 -14 -15 -13 -15 5 0 12 6
21 15 21 8 0 15 -3 15 -6z m-1450 -24 c0 -5 -5 -10 -11 -10 -5 0 -7 5 -4 10 3
6 8 10 11 10 2 0 4 -4 4 -10z m1196 -58 c-20 -33 -36 -66 -36 -75 0 -25 31
-29 51 -6 20 24 48 17 28 -7 -9 -11 -8 -14 5 -14 9 0 15 3 15 8 -3 20 3 22 18
6 10 -9 16 -28 15 -41 -4 -27 5 -29 36 -8 19 14 25 14 54 -1 43 -22 41 -19 29
-42 -11 -21 0 -40 36 -60 10 -6 13 -16 9 -30 l-7 -22 -32 23 c-37 26 -48 38
-41 49 3 4 -6 8 -20 8 -14 0 -48 13 -76 30 -27 16 -50 28 -50 25 0 -2 -12 7
-26 20 -15 14 -30 22 -35 19 -17 -10 -9 -19 33 -38 23 -11 48 -26 57 -35 9 -9
30 -22 46 -29 45 -20 135 -82 135 -93 0 -5 -15 -9 -32 -10 l-33 -1 28 -10 c34
-12 26 -30 -11 -23 -15 3 -20 2 -12 -1 8 -4 20 -13 27 -21 9 -12 14 -11 30 5
26 28 63 38 63 18 0 -9 5 -16 10 -16 13 0 13 -27 -1 -35 -5 -4 -19 1 -30 11
-10 9 -21 15 -24 12 -3 -3 6 -13 20 -22 35 -23 34 -50 -2 -41 -15 3 -30 10
-33 14 -14 19 -140 66 -140 51 0 -4 9 -10 20 -13 24 -6 27 -37 3 -37 -20 0
-11 -10 14 -15 10 -2 18 -4 18 -5 0 -1 16 -3 35 -5 19 -2 59 -7 88 -10 46 -6
51 -5 45 10 -6 16 -4 16 20 0 23 -15 27 -24 27 -66 0 -62 -20 -65 -67 -12 -18
20 -33 33 -33 28 0 -5 7 -17 17 -27 15 -17 15 -18 -18 -12 -32 6 -33 6 -14 -9
11 -9 28 -17 37 -17 9 0 20 -5 23 -10 4 -6 15 -8 26 -5 22 7 22 5 9 -30 -5
-14 -14 -24 -19 -21 -5 4 -12 0 -14 -6 -3 -8 -6 -6 -6 5 -1 9 -6 17 -11 17 -6
0 -9 -6 -8 -12 2 -8 -9 -14 -24 -16 -25 -3 -28 0 -28 28 0 30 0 30 -27 16 -16
-8 -46 -31 -67 -50 -22 -20 -43 -36 -48 -36 -16 0 -7 20 14 31 28 15 108 89
108 101 0 4 -6 8 -14 8 -8 0 -16 8 -18 18 -2 14 -8 17 -28 11 l-25 -7 23 -7
c12 -4 22 -13 22 -20 0 -19 -112 -116 -127 -111 -7 3 -13 -2 -13 -10 0 -9 -6
-14 -12 -12 -12 4 -20 0 -51 -28 -7 -6 -18 -9 -26 -6 -7 2 -18 -2 -23 -9 -8
-11 -8 -10 -4 4 3 10 6 23 6 28 0 5 7 9 15 9 8 0 15 5 15 10 0 6 -4 10 -9 10
-5 0 -7 10 -3 22 5 21 5 21 28 -5 13 -15 25 -23 29 -18 3 5 1 12 -5 16 -5 3
-10 11 -10 17 0 6 6 6 15 -2 9 -7 18 -11 20 -8 3 2 -16 20 -43 38 -26 18 -49
35 -51 36 -2 2 2 10 9 19 24 29 2 26 -28 -4 -17 -16 -41 -32 -54 -35 -13 -3
-17 -3 -10 0 6 3 12 10 12 15 0 5 12 27 26 49 15 22 24 43 22 46 -7 6 -58 -43
-58 -56 0 -5 -7 -7 -15 -4 -8 4 -15 1 -15 -5 0 -6 4 -11 10 -11 13 0 6 -63 -7
-67 -5 -2 -27 12 -48 31 -28 26 -36 40 -32 56 4 15 1 20 -11 18 -12 -2 -17 5
-19 22 0 14 -1 31 -2 38 -1 14 -31 17 -31 2 0 -5 7 -10 15 -10 14 0 14 -3 0
-24 -15 -22 -14 -25 19 -61 20 -21 33 -41 31 -46 -6 -9 -45 1 -45 12 0 5 -9 4
-20 -3 -17 -11 -17 -14 -4 -21 8 -5 22 -6 29 -3 11 4 14 -1 12 -16 -3 -13 -12
-23 -27 -25 -13 -2 -30 -12 -37 -23 -8 -11 -19 -20 -25 -20 -6 0 1 15 16 34
17 22 22 37 15 41 -12 8 -51 -24 -43 -36 3 -5 -7 -14 -21 -19 -21 -8 -25 -15
-20 -33 4 -15 3 -18 -3 -9 -7 10 -19 1 -51 -39 -44 -56 -60 -42 -16 15 25 33
32 56 17 56 -5 0 -15 -11 -22 -25 -7 -14 -17 -25 -22 -25 -4 0 -8 -5 -8 -11 0
-5 -11 -27 -25 -47 -14 -20 -25 -31 -25 -24 0 7 12 30 26 52 29 43 28 59 -3
40 -21 -13 -38 -41 -90 -140 -57 -108 -64 -115 -122 -113 -31 2 -51 -2 -51 -8
0 -6 6 -9 13 -6 7 2 30 2 52 -2 l40 -7 -26 -26 c-21 -21 -24 -28 -12 -32 10
-4 11 -10 3 -25 -16 -30 -12 -41 14 -41 17 0 23 5 22 18 -1 12 7 17 24 18 43
1 48 3 53 22 3 12 5 11 6 -6 1 -18 5 -21 19 -14 29 14 45 8 69 -27 26 -38 40
-100 26 -110 -5 -3 -9 -23 -8 -43 1 -30 -2 -38 -16 -38 -9 0 -20 6 -23 13 -3
6 -5 -6 -5 -28 3 -158 -1 -215 -16 -215 -8 0 -15 -4 -15 -10 0 -5 5 -10 10
-10 6 0 10 -7 10 -15 0 -8 5 -15 10 -15 6 0 10 5 10 10 0 6 24 11 53 12 50 1
50 2 10 5 -52 5 -68 28 -55 76 5 18 7 63 5 100 -3 46 -1 67 7 67 7 0 14 -9 17
-20 6 -24 23 -27 23 -4 0 14 8 16 56 11 51 -5 56 -4 64 18 8 21 11 22 57 13
26 -6 76 -12 111 -13 34 -1 64 -4 67 -7 3 -2 0 -19 -5 -38 -13 -44 -3 -53 11
-10 10 27 13 30 21 16 6 -10 7 -28 4 -42 -9 -34 16 -31 47 6 30 35 37 37 37
12 0 -10 6 -24 13 -31 9 -10 9 -15 1 -18 -11 -4 -7 -43 5 -53 19 -15 40 -61
35 -74 -4 -9 -1 -16 6 -16 8 0 10 -9 6 -26 -5 -17 -3 -23 4 -19 5 3 10 -2 10
-13 0 -11 7 -23 16 -26 12 -5 14 -1 7 17 -11 34 -8 70 11 108 10 19 19 43 22
53 2 11 9 23 16 27 7 5 12 11 11 14 -8 15 -2 35 8 29 6 -3 9 -19 7 -35 -3 -16
-1 -29 4 -29 16 0 23 5 20 15 -2 5 2 5 9 -2 9 -9 9 -15 0 -27 -6 -7 -11 -18
-10 -22 4 -18 -13 -64 -29 -76 -13 -11 -15 -11 -10 2 3 8 8 26 12 40 l6 25
-12 -25 c-7 -14 -15 -27 -19 -30 -4 -3 -6 -39 -6 -81 1 -61 4 -76 15 -71 10 4
13 17 9 48 -2 25 0 47 7 54 6 6 12 14 12 18 5 25 18 52 24 52 10 0 20 -37 20
-72 0 -22 -5 -28 -21 -28 -11 0 -18 -4 -14 -10 3 -5 13 -6 23 -3 14 5 15 4 6
-8 -17 -21 -25 -91 -12 -106 7 -9 7 -17 -2 -28 -7 -8 -8 -15 -4 -15 5 0 15 9
22 21 l13 20 19 -23 19 -23 1 28 c0 17 5 27 15 27 26 0 18 -57 -11 -83 -15
-12 -30 -26 -35 -32 -4 -5 -24 -29 -43 -51 -52 -60 -44 -64 16 -8 28 26 53 43
55 37 6 -18 -17 -54 -29 -47 -8 5 -9 1 -5 -10 4 -10 4 -23 0 -29 -4 -7 -8 -17
-9 -23 -5 -33 -37 -82 -50 -77 -8 3 -11 9 -8 14 3 5 -8 9 -25 9 -43 0 -39 36
6 52 28 10 30 14 17 21 -12 7 -19 5 -26 -7 -5 -9 -14 -16 -21 -16 -7 0 -18 -9
-25 -21 -10 -16 -16 -18 -27 -9 -7 6 -28 12 -46 14 -76 8 -114 29 -71 39 15 3
14 5 -5 13 l-22 9 27 42 c16 24 33 40 40 38 9 -3 12 1 9 13 -2 9 3 29 10 45
31 63 -8 11 -62 -82 -35 -60 -49 -53 -43 20 3 35 4 56 1 46 -2 -9 -8 -15 -13
-12 -4 3 -6 -4 -3 -15 9 -33 -5 -66 -32 -78 -14 -7 -28 -12 -30 -12 -2 0 11
32 30 72 35 72 43 108 26 108 -5 0 -14 -14 -21 -30 -7 -17 -15 -29 -17 -26
-10 10 27 76 44 76 14 0 15 2 5 9 -11 7 -9 17 12 50 15 22 32 41 38 41 8 0 7
6 -4 16 -14 14 -19 14 -54 -5 -22 -12 -32 -20 -24 -19 20 4 23 -11 9 -45 -10
-23 -17 -27 -58 -29 -37 -1 -40 -2 -13 -5 44 -6 36 -23 -21 -47 -56 -23 -67
-16 -43 25 10 17 15 33 12 36 -3 4 1 17 9 30 14 21 14 23 0 23 -8 0 -21 -11
-27 -25 -6 -14 -15 -25 -20 -25 -5 0 -8 -6 -7 -12 1 -7 -4 -26 -11 -41 -12
-25 -18 -28 -47 -23 -18 3 -48 9 -67 12 -24 4 -33 10 -29 20 3 10 -5 16 -26
20 -41 8 -40 24 2 25 17 0 41 4 52 9 27 12 11 12 -60 0 -41 -7 -70 -6 -96 2
-20 6 -49 8 -64 4 l-26 -7 21 -17 c20 -16 19 -17 -47 -18 -37 0 -99 -5 -138
-11 -66 -10 -67 -11 -25 -13 25 -1 48 -2 53 -1 4 1 5 -10 1 -24 -4 -15 -2 -25
5 -25 6 0 11 -7 11 -15 0 -8 11 -17 25 -21 23 -6 23 -7 9 -30 -14 -20 -22 -23
-56 -18 -49 6 -58 10 -58 30 0 16 -29 20 -31 4 -6 -53 -5 -55 54 -73 31 -10
57 -24 57 -31 0 -8 16 -12 51 -12 35 1 54 -4 62 -14 7 -10 29 -17 55 -17 23
-1 47 -5 52 -8 15 -10 12 -23 -7 -28 -14 -4 -13 -5 4 -6 12 0 27 7 33 17 8 12
13 13 16 5 3 -7 17 -13 30 -13 35 0 30 -15 -12 -35 -26 -12 -39 -14 -47 -6 -8
8 -5 11 11 11 12 0 22 5 22 11 0 6 -9 8 -22 3 -13 -4 -29 -6 -35 -5 -15 3 -63
2 -143 -1 -36 -2 -54 1 -53 8 3 15 -145 84 -179 84 -15 0 -30 -4 -33 -10 -11
-18 -35 -10 -45 14 -5 13 -13 27 -18 30 -6 3 -23 34 -40 68 -34 70 -34 118 -1
118 11 0 19 5 19 11 0 5 -4 7 -10 4 -5 -3 -15 -3 -21 1 -12 7 7 17 103 54 31
12 61 19 67 16 5 -4 12 -2 16 4 7 12 106 60 123 60 7 0 12 11 12 24 0 29 -30
44 -42 21 -5 -8 -16 -15 -24 -15 -12 0 -12 4 -4 20 14 25 -5 27 -32 3 -13 -11
-22 -13 -29 -6 -11 11 -49 -3 -132 -48 -21 -11 -42 -17 -47 -14 -9 5 -21 29
-48 98 -9 20 -19 27 -37 27 -15 0 -24 4 -21 9 3 5 -3 11 -14 14 -11 3 -24 17
-30 31 -14 37 -47 35 -55 -4 l-7 -30 -101 -2 -102 -2 102 -3 c94 -3 104 -6
115 -26 7 -12 13 -26 15 -32 12 -45 30 -85 38 -85 5 0 18 -19 29 -41 15 -34
22 -40 42 -36 28 5 52 -17 32 -30 -7 -4 -40 -13 -73 -20 l-60 -12 61 5 62 5
-22 -43 c-34 -69 -49 -88 -71 -88 -11 0 -40 -9 -64 -20 -45 -21 -86 -27 -76
-11 6 11 -12 17 -85 27 -30 3 -64 13 -75 20 -19 14 -19 14 5 15 l25 0 -24 10
c-13 5 -41 10 -62 11 -39 1 -57 18 -20 18 11 0 23 5 26 10 3 6 1 10 -4 10 -19
0 -12 18 9 25 11 3 20 13 20 20 0 11 11 13 48 9 71 -9 75 -10 62 -34 -10 -19
-9 -20 32 -14 24 4 48 11 53 16 6 6 0 7 -17 3 -18 -5 -28 -3 -28 4 0 6 17 11
38 11 20 0 43 4 51 9 20 13 3 33 -27 31 -65 -5 -142 1 -142 9 0 5 7 16 15 24
13 14 9 17 -38 27 -28 6 -71 14 -94 17 -24 3 -40 10 -37 14 3 5 -6 9 -20 9
-42 0 -76 18 -76 40 0 14 6 20 18 18 11 -2 17 3 16 15 -2 24 8 22 144 -23 111
-37 123 -39 148 -25 25 13 26 15 8 21 -10 3 -30 10 -44 15 -14 4 -55 13 -93
20 -87 14 -95 29 -17 29 38 0 59 4 55 10 -3 6 -50 10 -106 10 -63 0 -99 4 -99
11 0 25 22 49 47 49 21 0 23 3 14 14 -10 12 -8 17 7 25 13 7 22 7 30 -1 9 -9
16 -8 29 4 27 23 84 29 105 11 16 -14 18 -14 24 2 10 24 -13 39 -82 54 -47 11
-58 11 -65 0 -7 -12 -9 -11 -9 0 0 13 -2 12 -12 0 -25 -30 -64 -49 -77 -36 -6
6 -11 15 -11 21 0 20 34 46 60 46 14 0 32 6 39 13 8 6 11 7 8 1 -3 -6 0 -11 8
-11 8 0 12 4 9 9 -3 4 0 8 5 8 6 0 11 4 11 9 0 5 -15 5 -36 1 -36 -8 -64 -4
-64 9 0 4 14 20 30 34 27 25 39 47 24 47 -12 0 -94 -62 -108 -82 -22 -31 -30
-16 -18 31 12 50 5 58 -25 29 -28 -26 -30 -13 -3 27 21 32 26 65 10 65 -5 0
-14 -8 -19 -17 -10 -17 -10 -17 -11 0 0 23 -9 22 -37 -5 -25 -23 -33 -9 -9 15
23 23 47 87 33 87 -17 0 -32 -12 -45 -35 -8 -14 -11 -15 -11 -5 0 8 6 26 14
40 20 34 20 71 0 64 -9 -4 -15 0 -15 9 0 14 20 36 30 34 3 0 14 4 25 11 l20
11 -20 2 c-23 2 -32 3 -63 14 -23 8 -23 8 -3 26 14 13 35 19 67 19 65 0 52 8
-19 12 -31 1 -57 6 -57 10 0 3 11 16 25 27 l26 20 -23 4 -23 4 25 11 c16 7 19
11 9 11 -26 1 -10 62 19 72 18 7 22 5 22 -11 0 -12 7 -20 16 -20 10 0 14 6 11
14 -9 24 17 38 39 21 18 -14 18 -14 -6 -16 -17 -1 -12 -4 14 -8 37 -6 39 -7
23 -22 -9 -9 -14 -19 -11 -21 2 -3 33 -3 69 0 61 4 64 4 58 -17 -4 -15 -12
-21 -26 -19 -11 2 -22 -3 -24 -9 -3 -8 5 -13 20 -13 24 0 25 -2 17 -31 -6 -19
-6 -38 0 -49 5 -10 6 -21 2 -25 -4 -5 -2 -5 5 -1 7 4 10 13 7 21 -3 7 -1 22 5
32 9 14 10 2 6 -52 -8 -96 -13 -115 -30 -115 -8 0 -15 -4 -15 -10 0 -5 7 -7
15 -4 9 4 15 0 15 -10 0 -9 -4 -16 -10 -16 -5 0 -10 -7 -10 -15 0 -26 15 -17
29 18 7 17 12 51 11 75 l-2 44 22 -22 c13 -13 23 -34 22 -47 0 -20 4 -24 21
-19 12 3 26 1 33 -5 8 -7 14 -7 19 1 3 5 19 10 36 10 16 0 29 4 29 9 0 4 -11
6 -24 4 -18 -4 -25 1 -29 19 -9 33 -8 48 3 48 6 0 10 -7 10 -15 0 -12 28 -35
44 -35 3 0 6 12 6 26 0 21 3 24 20 19 12 -4 28 -1 36 6 15 12 214 27 214 16 0
-3 -6 -12 -12 -19 -23 -24 -77 -118 -68 -118 4 0 22 19 39 42 46 62 38 38 -25
-81 -65 -122 -92 -161 -111 -161 -19 0 -17 6 17 56 17 24 26 44 20 44 -5 0
-10 -4 -10 -8 0 -4 -17 -26 -37 -49 -38 -41 -39 -42 -133 -51 l-95 -10 83 1
c45 0 85 -3 89 -6 3 -4 -6 -22 -21 -42 -15 -20 -26 -41 -24 -47 3 -7 13 1 24
16 37 54 72 91 80 84 4 -4 2 -13 -3 -20 -15 -20 -23 -48 -14 -48 5 0 19 16 31
35 13 20 30 35 41 35 25 0 24 -13 -6 -48 -30 -36 -31 -46 -5 -39 11 3 27 -2
35 -10 9 -9 23 -12 33 -8 15 6 14 9 -10 28 l-26 22 22 28 c12 15 27 27 34 27
6 0 9 7 6 15 -4 9 0 15 9 15 8 0 17 13 20 28 3 16 20 44 38 63 17 19 31 36 31
39 0 3 9 21 20 41 15 28 25 35 40 31 17 -4 19 -1 13 16 -4 13 0 30 9 44 9 12
16 30 16 40 0 15 8 18 43 18 l42 -1 -30 -24 c-16 -13 -26 -27 -23 -31 7 -6 41
24 67 58 11 15 8 16 -29 15 l-42 -2 -23 62 c-13 34 -26 77 -29 97 -3 19 -15
62 -27 96 -24 69 -22 87 5 67 12 -9 20 -30 24 -65 3 -35 8 -49 17 -46 7 3 15
-4 18 -15 6 -25 27 -28 27 -5 0 8 7 22 15 30 8 8 21 25 30 36 19 29 27 19 16
-19 -11 -39 -3 -48 21 -27 20 19 134 32 123 15 -3 -6 -3 -16 0 -22 13 -20 53
14 165 140 25 28 48 51 52 51 3 0 34 -16 68 -35 34 -19 64 -35 67 -35 14 0
-13 20 -61 45 -52 27 -70 45 -46 45 6 0 10 7 10 15 0 8 6 15 13 15 7 0 18 9
25 20 13 21 47 27 57 10 4 -6 11 -7 17 -4 6 4 -1 12 -16 18 l-27 11 55 43 c30
23 59 42 65 42 6 0 11 6 11 13 0 7 9 20 20 30 36 31 22 50 -17 22 -12 -8 -28
-12 -37 -9 -20 8 -21 6 9 50 28 41 33 82 10 90 -11 5 -12 11 -4 25 8 17 13 17
32 7 12 -7 25 -11 30 -10 15 4 6 -21 -18 -50 -25 -30 -33 -58 -16 -58 16 0 95
64 151 123 34 36 58 53 68 49 10 -3 13 -1 8 6 -4 7 -2 17 3 24 6 7 23 28 37
46 40 50 40 30 0 -36z m-1076 44 c0 -8 -4 -18 -10 -21 -5 -3 -10 3 -10 14 0
12 5 21 10 21 6 0 10 -6 10 -14z m87 -23 c-3 -10 -5 -4 -5 12 0 17 2 24 5 18
2 -7 2 -21 0 -30z m189 21 c-3 -9 -6 -18 -6 -20 0 -2 -4 -4 -9 -4 -5 0 -7 9
-4 20 3 11 10 20 15 20 6 0 7 -7 4 -16z m77 -12 c-3 -12 -9 -19 -14 -16 -5 3
-4 14 2 25 13 26 20 21 12 -9z m992 -30 c-11 -11 -36 25 -29 42 5 14 9 13 20
-10 8 -15 12 -29 9 -32z m-1456 -18 c-15 -18 -28 -18 -35 0 -3 8 5 25 18 37
l23 24 3 -23 c2 -13 -2 -30 -9 -38z m1263 44 c-7 -7 -12 -8 -12 -2 0 6 3 14 7
17 3 4 9 5 12 2 2 -3 -1 -11 -7 -17z m-982 3 c0 -6 -4 -13 -10 -16 -5 -3 -10
1 -10 9 0 9 5 16 10 16 6 0 10 -4 10 -9z m246 -37 c-8 -29 -30 -27 -33 2 -3
18 -3 18 5 -1 8 -16 10 -14 16 15 4 19 10 29 13 22 3 -7 2 -24 -1 -38z m689
-4 c-9 -18 -19 -29 -22 -26 -4 3 2 22 13 41 10 20 20 31 22 26 2 -5 -4 -24
-13 -41z m-1035 15 c0 -14 -6 -25 -13 -25 -21 0 -27 11 -16 31 14 27 29 23 29
-6z m590 21 c0 -3 -4 -8 -10 -11 -5 -3 -10 -1 -10 4 0 6 5 11 10 11 6 0 10 -2
10 -4z m777 -12 c3 -8 -2 -23 -11 -32 -15 -15 -16 -15 -16 1 0 10 -4 16 -9 12
-5 -3 -12 -1 -16 4 -3 5 3 14 12 20 25 14 33 13 40 -5z m-677 -6 c0 -19 -18
-43 -25 -36 -4 3 -2 16 5 27 12 24 20 27 20 9z m-628 -30 c-15 -15 -26 -4 -18
18 5 13 9 15 18 6 9 -9 9 -15 0 -24z m808 23 c0 -13 -26 -32 -33 -25 -4 4 -11
-5 -16 -19 -5 -14 -20 -32 -33 -41 -18 -13 -25 -14 -36 -3 -18 18 -8 37 36 69
36 26 82 37 82 19z m-364 -27 c-4 -9 -9 -15 -11 -12 -3 3 -3 13 1 22 4 9 9 15
11 12 3 -3 3 -13 -1 -22z m734 10 c0 -8 -5 -12 -10 -9 -6 4 -8 11 -5 16 9 14
15 11 15 -7z m-1130 -3 c0 -12 -20 -25 -27 -18 -7 7 6 27 18 27 5 0 9 -4 9 -9z
m140 -35 c0 -26 -6 -18 -14 19 -5 22 -4 26 4 15 5 -8 10 -24 10 -34z m861 3
c-25 -24 -27 -17 -4 18 10 15 19 21 21 14 2 -7 -5 -21 -17 -32z m-893 1 c-2
-16 0 -31 5 -33 7 -2 6 -10 -1 -22 -9 -17 -11 -15 -17 18 -7 36 -2 67 11 67 3
0 4 -13 2 -30z m512 22 c0 -11 -22 -32 -32 -32 -5 0 -4 9 2 20 11 20 30 28 30
12z m171 -16 c-7 -8 -19 -12 -27 -9 -8 3 -14 -1 -14 -9 0 -8 -9 -23 -20 -33
-25 -22 -26 -5 -2 24 17 22 63 50 71 45 2 -2 -2 -10 -8 -18z m169 9 c0 -8 -4
-15 -10 -15 -5 0 -7 7 -4 15 4 8 8 15 10 15 2 0 4 -7 4 -15z m146 4 c9 -16
-18 -30 -33 -17 -7 6 -13 14 -13 19 0 13 38 11 46 -2z m-709 -76 c-42 -42 -80
-74 -83 -71 -3 3 1 12 9 19 7 8 27 32 43 54 16 22 36 41 44 43 8 2 22 10 30
18 8 8 19 14 24 14 6 0 -24 -34 -67 -77z m655 21 c-22 -16 -23 -14 -16 26 7
32 7 32 19 9 11 -20 10 -25 -3 -35z m-1216 17 c-12 -19 -24 -12 -19 10 4 13 9
17 15 11 6 -6 7 -15 4 -21z m339 -11 c-4 -17 -9 -29 -12 -26 -3 2 -2 19 2 36
4 17 9 29 12 26 3 -2 2 -19 -2 -36z m1023 9 c2 -23 2 -23 -13 -5 -18 24 -20
39 -2 34 6 -3 13 -15 15 -29z m-1436 -1 c-7 -7 -12 -8 -12 -2 0 6 3 14 7 17 3
4 9 5 12 2 2 -3 -1 -11 -7 -17z m138 -4 c0 -8 -9 -14 -20 -14 -17 0 -19 3 -8
19 13 21 28 19 28 -5z m57 4 c-3 -8 -6 -5 -6 6 -1 11 2 17 5 13 3 -3 4 -12 1
-19z m559 -31 c-15 -25 -25 -49 -24 -54 2 -5 -14 -24 -34 -42 -21 -18 -38 -39
-38 -47 0 -8 -5 -14 -11 -14 -5 0 -7 5 -3 11 4 8 1 8 -12 1 -11 -5 -25 -7 -32
-5 -7 3 -20 -1 -30 -9 -15 -12 -16 -11 -4 4 10 12 10 17 1 20 -8 3 3 21 28 47
23 25 43 39 47 33 3 -6 2 -13 -4 -17 -13 -8 -13 -25 0 -25 15 0 62 49 99 103
41 60 52 55 17 -6z m639 43 c3 -5 1 -10 -4 -10 -6 0 -11 5 -11 10 0 6 2 10 4
10 3 0 8 -4 11 -10z m-1885 -20 c0 -11 -40 -34 -47 -26 -3 3 -3 12 0 21 7 16
47 21 47 5z m457 -40 l-14 -21 -6 21 c-3 13 0 20 9 20 8 0 14 6 15 13 0 9 2 9
6 0 2 -7 -2 -22 -10 -33z m1417 24 c5 -14 4 -15 -9 -4 -17 14 -19 20 -6 20 5
0 12 -7 15 -16z m-1360 -9 c-4 -8 -10 -15 -15 -15 -4 0 -6 7 -3 15 4 8 10 15
15 15 4 0 6 -7 3 -15z m156 -16 c0 -11 -4 -17 -10 -14 -5 3 -10 13 -10 21 0 8
5 14 10 14 6 0 10 -9 10 -21z m-87 -1 c2 -7 0 -22 -6 -33 -10 -19 -10 -18 -19
4 -8 23 -3 41 12 41 4 0 10 -6 13 -12z m370 -3 c-3 -9 -8 -14 -10 -11 -3 3 -2
9 2 15 9 16 15 13 8 -4z m-315 -27 c-2 -26 -7 -32 -22 -30 -10 2 -15 -1 -12
-7 6 -10 -13 -51 -24 -51 -10 0 -9 43 1 62 6 10 14 16 18 13 5 -3 12 6 15 20
9 36 28 31 24 -7z m1392 22 c0 -5 -4 -10 -10 -10 -5 0 -10 5 -10 10 0 6 5 10
10 10 6 0 10 -4 10 -10z m-2068 -25 c-17 -14 -32 -25 -35 -25 -2 0 -2 11 1 25
3 20 10 25 34 25 l30 0 -30 -25z m772 0 c-4 -8 -8 -15 -10 -15 -2 0 -4 7 -4
15 0 8 4 15 10 15 5 0 7 -7 4 -15z m-1087 -32 c-3 -10 -5 -4 -5 12 0 17 2 24
5 18 2 -7 2 -21 0 -30z m763 28 c0 -5 -7 -14 -15 -21 -16 -14 -18 -10 -9 14 6
17 24 22 24 7z m133 -11 c3 -10 -1 -27 -8 -36 -11 -15 -13 -14 -23 14 -6 16
-8 33 -5 36 13 12 31 5 36 -14z m217 10 c0 -5 -5 -10 -11 -10 -5 0 -7 5 -4 10
3 6 8 10 11 10 2 0 4 -4 4 -10z m57 -12 c-3 -8 -6 -5 -6 6 -1 11 2 17 5 13 3
-3 4 -12 1 -19z m144 -33 c-15 -31 -27 -45 -41 -45 -11 0 -20 4 -20 9 0 11 28
41 39 41 4 0 13 12 20 26 6 15 14 24 18 21 3 -4 -4 -27 -16 -52z m-251 18 c0
-22 -2 -25 -10 -13 -13 20 -13 40 0 40 6 0 10 -12 10 -27z m618 17 c-2 -3 -12
-24 -22 -48 -11 -23 -22 -42 -25 -42 -3 1 -16 9 -29 20 -27 23 -22 60 8 60 10
0 21 4 24 8 5 9 48 11 44 2z m-2281 -22 c-3 -8 -6 -5 -6 6 -1 11 2 17 5 13 3
-3 4 -12 1 -19z m1448 -18 c-1 -17 -5 -33 -10 -38 -4 -4 -5 1 -2 10 3 9 1 18
-4 20 -11 4 -1 38 10 38 4 0 7 -14 6 -30z m-565 10 c0 -5 -5 -10 -11 -10 -5 0
-7 5 -4 10 3 6 8 10 11 10 2 0 4 -4 4 -10z m754 -31 c-9 -15 -24 10 -17 29 5
12 7 12 15 -2 5 -9 6 -21 2 -27z m107 14 c-8 -15 -10 -15 -11 -2 0 17 10 32
18 25 2 -3 -1 -13 -7 -23z m1098 12 c0 -3 -1 -5 -4 -5 -40 0 -40 0 -25 10 14
9 26 7 29 -5z m-2006 -3 c-6 -4 -12 -11 -13 -17 -2 -13 -40 -27 -40 -15 0 6 7
10 15 10 8 0 15 7 15 15 0 8 8 15 18 15 11 0 13 -3 5 -8z m192 -39 c-6 -57
-26 -133 -36 -133 -11 0 -11 3 1 34 6 17 6 26 0 26 -6 0 -10 13 -10 29 0 16
-7 34 -15 41 -24 20 -18 29 23 33 20 2 38 4 39 5 0 1 -1 -15 -2 -35z m-105 12
c0 -16 -27 -32 -37 -21 -7 7 16 36 28 36 5 0 9 -7 9 -15z m590 -10 c0 -12 -29
-35 -44 -35 -3 0 2 13 12 29 16 29 32 32 32 6z m197 1 c-7 -13 -15 -22 -19
-20 -10 6 9 44 21 44 5 0 4 -11 -2 -24z m-286 -16 c6 0 7 -5 3 -11 -8 -14 -24
8 -23 31 1 11 3 10 6 -2 2 -10 9 -18 14 -18z m768 11 c16 -12 22 -24 18 -35
-4 -10 -11 -15 -16 -12 -5 4 -30 -1 -56 -9 -57 -20 -73 -16 -45 10 11 11 30
30 42 43 26 26 27 27 57 3z m707 -14 c1 -9 -4 -17 -11 -17 -8 0 -13 9 -12 20
2 24 19 21 23 -3z m-2063 -11 c3 -8 -3 -23 -14 -34 -10 -12 -19 -25 -19 -30 0
-8 -42 -32 -55 -32 -16 0 -1 21 18 25 32 8 35 52 4 58 -22 4 -22 4 3 15 35 15
57 14 63 -2z m557 -1 c0 -8 -7 -15 -15 -15 -9 0 -12 6 -9 15 4 8 10 15 15 15
5 0 9 -7 9 -15z m286 -10 c1 -8 -2 -15 -7 -15 -5 0 -9 10 -9 22 0 23 12 17 16
-7z m-751 -25 c-3 -49 -12 -61 -20 -27 -6 21 8 67 19 67 2 0 2 -18 1 -40z
m1075 24 c0 -2 -9 -4 -21 -4 -11 0 -18 4 -14 10 5 8 35 3 35 -6z m-1120 -2 c0
-5 -9 -19 -19 -31 -11 -13 -17 -30 -14 -39 4 -9 3 -14 -2 -10 -4 4 -16 3 -26
-3 -23 -12 -25 3 -3 22 8 7 22 25 30 41 14 26 34 38 34 20z m974 -7 c-4 -8
-12 -15 -20 -15 -8 0 -11 6 -8 15 4 8 12 15 20 15 8 0 11 -6 8 -15z m395 -11
c-14 -18 -24 -11 -15 11 3 9 11 13 16 10 8 -5 7 -11 -1 -21z m-608 -27 c-8 -8
-11 -5 -11 9 0 27 14 41 18 19 2 -9 -1 -22 -7 -28z m1247 31 c-3 -7 -11 -13
-18 -13 -7 0 -15 6 -17 13 -3 7 4 12 17 12 13 0 20 -5 18 -12z m72 -23 c0 -13
-4 -26 -9 -29 -5 -3 -11 -16 -14 -28 -6 -22 -5 -22 8 -4 16 22 18 15 9 -32 -6
-27 -9 -30 -26 -21 -20 11 -20 21 3 112 11 40 29 42 29 2z m-2833 3 c-3 -8 -6
-5 -6 6 -1 11 2 17 5 13 3 -3 4 -12 1 -19z m1679 -5 c-10 -10 -19 5 -10 18 6
11 8 11 12 0 2 -7 1 -15 -2 -18z m-516 -2 c0 -6 -5 -13 -10 -16 -15 -9 -1 -27
16 -21 7 3 16 1 19 -4 7 -11 -18 -12 -53 -2 -21 7 -22 8 -7 30 16 22 35 29 35
13z m50 -6 c0 -9 -6 -12 -15 -9 -8 4 -15 10 -15 15 0 5 7 9 15 9 8 0 15 -7 15
-15z m250 11 c0 -2 -7 -7 -16 -10 -8 -3 -12 -2 -9 4 6 10 25 14 25 6z m-700
-31 c0 -8 -7 -15 -16 -15 -14 0 -14 3 -4 15 7 8 14 15 16 15 2 0 4 -7 4 -15z
m834 -12 c-13 -10 -20 -10 -23 -2 -4 14 19 30 33 22 5 -3 1 -12 -10 -20z m136
21 c0 -10 -55 -84 -62 -84 -13 0 -9 17 7 30 8 7 15 18 15 24 0 7 5 17 12 24
13 13 28 16 28 6z m-440 -34 c0 -5 -2 -10 -4 -10 -3 0 -8 5 -11 10 -3 6 -1 10
4 10 6 0 11 -4 11 -10z m-250 -20 c16 -10 12 -12 -42 -24 -34 -8 -37 7 -5 22
28 14 29 14 47 2z m80 -11 c0 -5 -13 -9 -30 -9 -39 0 -39 15 0 16 17 1 30 -3
30 -7z m410 -4 c-7 -9 -15 -13 -17 -11 -7 7 7 26 19 26 6 0 6 -6 -2 -15z m45
-4 c-3 -6 -11 -11 -17 -11 -6 0 -6 6 2 15 14 17 26 13 15 -4z m70 0 c-3 -6
-11 -11 -17 -11 -6 0 -6 6 2 15 14 17 26 13 15 -4z m-822 -34 c-9 -16 -24 9
-17 28 7 18 8 18 14 -1 4 -10 5 -23 3 -27z m527 22 c-7 -11 -14 -19 -16 -16
-7 7 7 37 17 37 6 0 5 -9 -1 -21z m-137 4 c-7 -2 -19 -2 -25 0 -7 3 -2 5 12 5
14 0 19 -2 13 -5z m732 -12 c-3 -6 -16 -11 -28 -11 -21 1 -21 1 3 15 27 14 36
13 25 -4z m-265 -31 c-11 -21 -22 -25 -33 -13 -7 6 21 32 36 33 4 0 3 -9 -3
-20z m80 17 c0 -2 -10 -12 -21 -23 -22 -19 -22 -19 -10 4 10 18 31 31 31 19z
m13 -31 c-40 -49 -61 -54 -23 -6 17 22 36 40 42 40 5 0 -3 -15 -19 -34z m-158
14 c-3 -5 -11 -10 -16 -10 -6 0 -7 5 -4 10 3 6 11 10 16 10 6 0 7 -4 4 -10z
m260 -9 c-7 -12 -85 -54 -85 -47 0 7 84 65 89 61 1 -2 0 -9 -4 -14z m-305 -1
c0 -5 -4 -10 -10 -10 -5 0 -10 5 -10 10 0 6 5 10 10 10 6 0 10 -4 10 -10z
m-926 -22 c-5 -9 -2 -9 9 1 25 20 21 5 -13 -45 -30 -42 -55 -60 -44 -29 4 8 1
15 -5 15 -7 0 1 16 16 35 27 33 53 49 37 23z m54 -29 c-28 -50 -96 -128 -77
-89 7 14 15 27 18 30 4 3 20 26 36 52 37 59 55 64 23 7z m167 31 c-3 -5 -11
-10 -16 -10 -6 0 -7 5 -4 10 3 6 11 10 16 10 6 0 7 -4 4 -10z m979 -60 c-59
-59 -59 -60 -116 -60 -32 0 -58 4 -58 9 0 15 47 40 57 30 10 -10 61 15 128 61
22 16 42 26 44 24 3 -2 -22 -31 -55 -64z m-1244 50 c0 -5 -5 -10 -11 -10 -5 0
-7 5 -4 10 3 6 8 10 11 10 2 0 4 -4 4 -10z m1010 -30 c-6 -11 -8 -25 -5 -30 3
-6 0 -10 -7 -10 -8 0 -22 -9 -31 -21 -22 -25 -33 -19 -17 10 6 12 18 21 27 21
13 0 14 3 5 12 -9 9 -7 17 10 36 25 26 36 15 18 -18z m60 38 c-1 -9 -59 -121
-60 -114 -1 25 35 116 47 116 7 0 13 -1 13 -2z m-694 -47 c0 -11 -5 -17 -13
-14 -7 3 -13 11 -13 19 0 8 6 14 13 14 7 0 13 -8 13 -19z m387 -1 c6 -24 -11
-26 -39 -4 -18 15 -18 15 4 9 13 -4 22 -2 22 4 0 18 7 12 13 -9z m-613 -40
c-32 -24 -42 -14 -11 11 13 11 27 17 30 14 3 -4 -5 -15 -19 -25z m430 -29 c0
-11 -74 -3 -78 9 -2 5 -8 8 -13 4 -13 -8 -11 4 3 19 9 10 19 9 50 -6 21 -11
38 -22 38 -26z m-210 36 c0 -2 -10 -12 -22 -23 l-23 -19 19 23 c18 21 26 27
26 19z m-104 -24 c-3 -18 -46 -52 -46 -36 0 13 30 53 40 53 4 0 7 -8 6 -17z
m734 8 c0 -6 -4 -13 -10 -16 -5 -3 -10 1 -10 9 0 9 5 16 10 16 6 0 10 -4 10
-9z m769 -34 c-26 -21 -36 -9 -19 23 10 18 14 19 27 9 13 -12 12 -15 -8 -32z
m459 -17 c-2 -14 -7 -17 -17 -11 -12 8 -12 14 0 43 12 29 14 31 17 11 2 -13 2
-32 0 -43z m-2283 10 c-10 -11 -23 -20 -28 -20 -6 0 0 11 13 25 27 29 42 25
15 -5z m476 6 c-7 -8 -11 -32 -10 -53 2 -21 -1 -44 -5 -51 -5 -8 0 -12 15 -12
18 0 19 -2 9 -15 -12 -14 -16 -13 -38 7 -45 43 -46 64 -5 108 21 21 39 37 42
35 2 -3 -1 -11 -8 -19z m-439 -18 c-7 -7 -12 -8 -12 -2 0 14 12 26 19 19 2 -3
-1 -11 -7 -17z m1178 7 c-8 -10 -31 -15 -68 -15 -84 0 -46 26 42 29 33 1 37
-1 26 -14z m904 -22 c-3 -21 -6 -50 -7 -65 -1 -32 -12 -35 -47 -11 l-25 16 24
-27 c27 -29 35 -53 20 -62 -13 -7 -11 -34 2 -34 6 0 13 9 16 20 6 23 23 27 23
6 0 -19 -27 -46 -46 -46 -13 0 -19 -24 -15 -57 1 -7 -4 -13 -10 -13 -7 0 -9
-3 -6 -6 3 -4 2 -15 -4 -26 -9 -16 -13 -17 -25 -7 -14 11 -13 15 5 28 29 23
19 63 -13 51 -47 -18 -105 43 -92 96 8 32 24 30 70 -11 21 -19 43 -35 50 -35
6 1 1 9 -11 19 -13 11 -23 23 -23 28 0 5 -11 16 -25 23 -28 15 -28 36 -1 34
10 -1 15 1 12 4 -11 10 15 31 31 25 10 -4 14 -2 10 4 -3 5 7 21 24 34 16 13
35 29 42 36 21 21 27 14 21 -24z m-1134 12 c-7 -8 -17 -15 -22 -15 -11 0 14
29 26 30 5 0 3 -7 -4 -15z m-205 -5 c3 -6 -1 -7 -9 -4 -18 7 -21 14 -7 14 6 0
13 -4 16 -10z m889 -5 c-7 -16 -74 -58 -82 -51 -7 8 60 66 75 66 7 0 10 -7 7
-15z m534 -8 c21 -17 13 -37 -15 -38 -27 -1 -26 -2 7 -12 38 -12 50 -23 50
-49 0 -15 -9 -18 -60 -18 -58 0 -67 5 -60 35 1 6 3 15 4 20 15 67 18 74 39 73
12 -1 28 -6 35 -11z m66 -3 c25 -10 19 -34 -9 -34 -18 0 -25 5 -25 20 0 21 8
24 34 14z m-1964 -18 c0 -18 -37 -27 -44 -11 -5 14 7 23 32 24 6 1 12 -5 12
-13z m-67 -2 c3 -3 3 -12 0 -20 -4 -11 -9 -12 -19 -3 -8 6 -14 15 -14 20 0 10
24 12 33 3z m646 -79 c1 -15 -1 -17 -8 -6 -7 11 -9 11 -13 0 -3 -8 -5 9 -5 36
0 50 1 50 13 20 7 -16 13 -39 13 -50z m889 57 c2 -7 -2 -10 -12 -6 -9 3 -16
11 -16 16 0 13 23 5 28 -10z m212 14 c0 -3 -4 -8 -10 -11 -5 -3 -10 -1 -10 4
0 6 5 11 10 11 6 0 10 -2 10 -4z m-1630 -59 c0 -18 -2 -19 -10 -7 -13 20 -13
43 0 35 6 -3 10 -16 10 -28z m439 -26 c-14 -31 -34 -40 -103 -47 -35 -4 -37
-3 -25 12 8 9 36 34 64 54 42 32 52 36 64 25 11 -11 11 -18 0 -44z m1488 24
c-7 -42 -36 -83 -57 -78 -9 2 -10 1 -2 -3 19 -9 15 -19 -25 -58 -42 -41 -53
-43 -76 -18 -14 15 -14 20 3 57 11 22 19 46 20 54 0 10 14 12 59 9 l59 -4 -6
38 c-4 32 -2 38 13 38 15 0 17 -6 12 -35z m-401 -2 c-10 -10 -19 5 -10 18 6
11 8 11 12 0 2 -7 1 -15 -2 -18z m-153 -23 c3 -11 1 -20 -4 -20 -5 0 -9 9 -9
20 0 11 2 20 4 20 2 0 6 -9 9 -20z m-1371 -54 c-6 -11 -15 -34 -20 -51 -9 -27
-10 -25 -10 25 0 30 2 47 5 37 6 -25 23 -11 24 21 1 19 3 22 6 8 3 -10 0 -28
-5 -40z m27 -31 c-2 -47 -7 -85 -12 -85 -6 0 -7 24 -3 61 3 34 6 73 6 85 0 13
2 24 5 24 4 0 5 -38 4 -85z m65 13 c6 -4 4 -9 -7 -14 -23 -9 -28 -3 -20 26 4
17 8 20 11 10 3 -8 10 -18 16 -22z m1840 -18 c8 -61 -4 -79 -38 -57 -28 19
-26 47 4 47 10 0 18 6 17 13 -1 24 3 50 7 46 2 -2 6 -24 10 -49z m-1481 3 c-3
-7 -10 -13 -15 -13 -6 0 -7 7 -4 16 6 17 -6 12 -36 -14 -16 -13 -18 -13 -18 0
0 19 62 49 72 35 3 -6 4 -16 1 -24z m62 7 c-4 -12 -9 -19 -12 -17 -3 3 -2 15
2 27 4 12 9 19 12 17 3 -3 2 -15 -2 -27z m-865 10 c0 -5 -7 -10 -15 -10 -8 0
-15 5 -15 10 0 6 7 10 15 10 8 0 15 -4 15 -10z m919 -32 c1 -5 -3 -8 -9 -8 -5
0 -10 12 -9 28 0 24 1 25 9 7 5 -11 9 -23 9 -27z m555 20 c-48 -55 -54 -59
-54 -41 0 21 39 63 58 63 12 0 11 -4 -4 -22z m-980 4 c2 -4 -4 -19 -15 -32
l-19 -25 0 33 c0 30 21 45 34 24z m1026 -15 c0 -8 -25 -39 -55 -70 -30 -31
-55 -49 -55 -41 0 8 3 14 8 14 4 0 27 25 51 55 47 59 51 62 51 42z m189 -21
c16 -17 19 -26 10 -31 -6 -5 -15 -1 -20 7 -6 11 -24 15 -69 13 -95 -3 -62 27
36 34 11 0 31 -10 43 -23z m-1139 -2 c0 -2 -9 -4 -20 -4 -11 0 -20 4 -20 9 0
5 9 7 20 4 11 -3 20 -7 20 -9z m1410 -24 c0 -5 -4 -10 -10 -10 -5 0 -10 5 -10
10 0 6 5 10 10 10 6 0 10 -4 10 -10z m148 -35 c-10 -10 -68 -17 -68 -8 0 5 7
19 16 32 l16 23 21 -21 c12 -11 18 -23 15 -26z m132 -2 c0 -2 -13 -24 -30 -48
-30 -44 -41 -83 -18 -69 7 5 8 3 3 -5 -10 -17 -27 1 -30 33 -2 14 -6 30 -10
36 -5 9 -1 10 14 5 20 -6 21 -5 10 14 -11 16 -11 24 0 45 13 23 15 24 37 9 13
-8 24 -17 24 -20z m-760 -43 c-7 -27 -10 -57 -7 -64 3 -8 -1 -20 -9 -26 -8 -8
-14 -8 -14 -2 0 5 -7 9 -16 8 -10 0 -21 10 -26 26 -8 24 -5 33 33 73 23 25 44
43 47 41 2 -3 -1 -28 -8 -56z m80 43 c0 -14 -19 -38 -25 -32 -8 8 5 39 16 39
5 0 9 -3 9 -7z m256 -30 c-11 -11 -19 6 -11 24 8 17 8 17 12 0 3 -10 2 -21 -1
-24z m-1016 -52 c-41 -68 -56 -88 -44 -56 12 30 -6 14 -26 -22 -43 -80 -67
-117 -82 -127 -29 -18 -34 5 -7 27 15 12 42 51 61 87 50 96 88 151 98 145 5
-3 15 1 22 9 27 29 19 5 -22 -63z m472 57 c-7 -7 -12 -8 -12 -2 0 6 3 14 7 17
3 4 9 5 12 2 2 -3 -1 -11 -7 -17z m848 -8 c-8 -5 -13 -12 -10 -16 3 -4 -1 -9
-7 -11 -7 -3 -13 1 -13 8 0 13 32 40 40 33 2 -3 -2 -9 -10 -14z m-2208 -40
c26 0 27 -34 1 -53 -12 -10 -23 -13 -23 -7 0 5 5 10 10 10 6 0 5 8 -2 19 -7
11 -15 18 -19 16 -3 -3 -14 4 -23 14 -13 15 -14 20 -4 24 7 2 20 -2 29 -9 8
-8 23 -14 31 -14z m48 -2 c0 -5 -4 -8 -10 -8 -5 0 -10 10 -10 23 0 18 2 19 10
7 5 -8 10 -18 10 -22z m1293 17 c-3 -9 -8 -14 -10 -11 -3 3 -2 9 2 15 9 16 15
13 8 -4z m43 -11 c-4 -9 -9 -15 -11 -12 -3 3 -3 13 1 22 4 9 9 15 11 12 3 -3
3 -13 -1 -22z m522 -4 c-13 -20 -38 -35 -38 -23 0 10 32 43 42 43 4 0 3 -9 -4
-20z m438 -46 c-9 -33 -24 -31 -18 2 4 20 2 25 -8 19 -6 -4 -4 5 6 21 19 28
19 28 22 5 2 -13 1 -34 -2 -47z m-418 3 c-38 -38 -109 -90 -113 -85 -8 8 45
70 89 107 34 27 42 30 44 17 2 -10 -7 -27 -20 -39z m312 5 c0 -24 -1 -25 -14
-7 -8 11 -12 25 -9 32 8 20 23 4 23 -25z m-2374 4 c7 -8 19 -16 26 -19 10 -4
10 -7 -1 -18 -11 -11 -14 -11 -18 -1 -3 7 -11 19 -19 26 -8 8 -14 17 -14 20 0
10 11 7 26 -8z m-139 -2 c-3 -3 -12 -4 -19 -1 -8 3 -5 6 6 6 11 1 17 -2 13 -5z
m2219 -40 c-9 -8 -16 -18 -16 -22 0 -3 5 -1 12 6 18 18 32 14 45 -13 10 -22 8
-29 -11 -51 -21 -26 -118 -59 -124 -44 -2 4 -12 6 -22 3 -30 -8 -27 40 4 60
13 9 45 35 72 58 26 23 50 37 52 30 2 -6 -4 -18 -12 -27z m261 14 c-3 -8 -6
-5 -6 6 -1 11 2 17 5 13 3 -3 4 -12 1 -19z m-2279 -18 c-14 -22 -24 -19 -15 5
4 8 11 15 17 15 6 0 6 -7 -2 -20z m2092 -11 c0 -6 -4 -7 -10 -4 -5 3 -10 11
-10 16 0 6 5 7 10 4 6 -3 10 -11 10 -16z m-1999 -12 c-10 -9 -11 -8 -5 6 3 10
9 15 12 12 3 -3 0 -11 -7 -18z m-54 -29 c-3 -7 -5 -2 -5 12 0 14 2 19 5 13 2
-7 2 -19 0 -25z m-190 -24 c-4 -4 -14 1 -22 12 -22 29 -18 41 7 17 12 -13 19
-26 15 -29z m233 18 c0 -15 -2 -15 -10 -2 -13 20 -13 33 0 25 6 -3 10 -14 10
-23z m-60 9 c0 -6 -4 -13 -10 -16 -5 -3 -10 1 -10 9 0 9 5 16 10 16 6 0 10 -4
10 -9z m104 -6 c3 -8 1 -15 -4 -15 -6 0 -10 7 -10 15 0 8 2 15 4 15 2 0 6 -7
10 -15z m2108 -36 c7 -1 22 -1 33 0 18 1 19 1 2 -9 -9 -6 -21 -8 -27 -5 -5 3
-17 -11 -26 -32 -14 -34 -17 -36 -24 -18 -5 13 -3 24 7 31 10 9 11 13 2 16 -8
3 -10 13 -5 34 8 28 8 28 17 7 4 -13 14 -24 21 -24z m-2478 -2 c15 -19 26 -42
26 -53 -1 -14 -5 -12 -17 11 -8 17 -25 40 -36 53 -11 12 -15 22 -9 22 6 0 22
-15 36 -33z m1815 -22 c0 -5 -4 -3 -9 5 -5 8 -9 22 -9 30 0 16 17 -16 18 -35z
m-1609 15 c0 -5 -5 -10 -11 -10 -5 0 -7 5 -4 10 3 6 8 10 11 10 2 0 4 -4 4
-10z m150 -11 c0 -5 -4 -9 -10 -9 -5 0 -10 7 -10 16 0 8 5 12 10 9 6 -3 10
-10 10 -16z m1723 4 c-7 -2 -19 -2 -25 0 -7 3 -2 5 12 5 14 0 19 -2 13 -5z
m307 -3 c0 -5 -4 -10 -10 -10 -5 0 -10 5 -10 10 0 6 5 10 10 10 6 0 10 -4 10
-10z m200 -5 c0 -8 -4 -15 -10 -15 -5 0 -7 7 -4 15 4 8 8 15 10 15 2 0 4 -7 4
-15z m30 0 c0 -8 -4 -15 -10 -15 -5 0 -7 7 -4 15 4 8 8 15 10 15 2 0 4 -7 4
-15z m-2720 -5 c0 -6 9 -23 19 -38 28 -39 37 -74 17 -66 -9 3 -16 11 -16 18 0
6 -6 22 -13 36 -22 42 -27 60 -17 60 6 0 10 -5 10 -10z m2601 -12 c1 -7 1 -17
0 -21 -1 -5 3 -6 9 -2 6 3 8 11 5 16 -4 5 -2 9 3 9 15 0 23 -30 9 -31 -7 0
-22 -2 -34 -5 -13 -2 -23 1 -23 6 0 6 4 10 10 10 5 0 7 7 4 15 -4 8 -1 15 5
15 6 0 12 -6 12 -12z m-2237 -84 c6 -24 5 -26 -8 -15 -9 8 -16 18 -16 23 0 5
-9 18 -20 30 -31 34 -23 50 9 18 16 -16 32 -41 35 -56z m1632 49 l4 -33 -48 0
c-52 0 -72 12 -72 44 0 20 0 20 15 0 14 -18 14 -18 15 4 0 21 4 23 41 20 39
-3 42 -5 45 -35z m489 27 c-3 -5 -1 -10 4 -10 6 0 11 -5 11 -11 0 -5 -5 -7
-10 -4 -6 4 -18 1 -26 -6 -19 -15 -25 -9 -17 19 3 13 13 22 25 22 10 0 16 -4
13 -10z m-2211 -24 c30 -27 34 -49 9 -39 -16 6 -16 5 -4 -10 7 -9 17 -15 21
-12 5 3 12 0 16 -6 4 -8 3 -9 -4 -5 -24 14 -11 -13 23 -50 38 -41 43 -54 21
-54 -19 0 -96 126 -89 146 2 6 -3 17 -12 24 -14 12 -21 30 -11 30 3 0 16 -11
30 -24z m151 14 c8 -13 -5 -13 -25 0 -13 8 -13 10 2 10 9 0 20 -4 23 -10z m73
-35 c0 -14 -4 -25 -9 -25 -14 0 -31 40 -25 57 9 23 34 -1 34 -32z m2257 25
c-10 -11 -20 -18 -23 -15 -7 6 18 35 31 35 5 0 2 -9 -8 -20z m-2539 -7 c-4 -9
-3 -19 1 -22 16 -12 103 -131 103 -141 0 -17 -27 -11 -34 8 -6 20 -25 50 -43
70 -7 7 -13 20 -13 28 0 8 -3 14 -8 14 -12 0 -33 40 -27 50 10 17 27 11 21 -7z
m2566 -100 c3 -54 2 -100 -2 -103 -4 -3 -10 -12 -13 -20 -3 -8 -6 -1 -6 17 -1
17 -7 33 -13 36 -10 3 -10 7 1 20 12 15 11 17 -8 17 -11 0 -21 5 -21 10 0 6 9
10 20 10 11 0 20 5 20 10 0 6 -11 10 -24 10 -23 0 -24 2 -13 23 22 39 42 67
48 67 4 0 9 -44 11 -97z m-484 56 c4 -24 3 -24 -12 -4 -19 24 -20 38 -3 33 6
-3 13 -15 15 -29z m47 24 c-11 -3 -23 -10 -27 -17 -5 -7 -8 -5 -8 7 0 12 7 17
28 16 21 -1 22 -2 7 -6z m-1675 -8 c0 -2 -13 -26 -30 -52 -34 -54 -41 -40 -8
18 18 33 38 51 38 34z m1910 -7 c0 -9 3 -9 12 0 29 29 39 1 11 -30 -9 -10 -22
-18 -29 -18 -15 0 -28 35 -19 50 9 14 25 13 25 -2z m-57 -20 c8 -28 6 -29 -17
-13 -10 8 -15 18 -11 24 10 17 22 13 28 -11z m-1977 -25 c22 -29 15 -40 -8
-13 l-21 25 7 -28 c5 -22 3 -28 -6 -25 -18 6 -23 39 -6 49 18 12 19 11 34 -8z
m1877 -8 c-7 -21 -13 -19 -13 6 0 11 4 18 10 14 5 -3 7 -12 3 -20z m77 -3 c-7
-3 -19 3 -28 13 -16 15 -15 16 12 4 15 -7 23 -15 16 -17z m-2053 -14 c-3 -8
-6 -5 -6 6 -1 11 2 17 5 13 3 -3 4 -12 1 -19z m-317 -37 c0 -8 10 -25 22 -38
12 -13 17 -23 12 -23 -19 0 -64 76 -64 108 0 13 29 -34 30 -47z m80 18 c0 -6
-4 -7 -10 -4 -5 3 -10 11 -10 16 0 6 5 7 10 4 6 -3 10 -11 10 -16z m2235 -27
c-2 -20 -2 -31 1 -24 3 6 11 12 18 12 10 0 11 -10 6 -40 -11 -61 -32 -70 -32
-15 0 14 -4 28 -9 31 -10 6 -12 45 -3 68 11 28 24 6 19 -32z m54 39 c16 -10 8
-41 -12 -41 -7 0 -14 11 -15 25 -2 27 4 30 27 16z m97 -15 c0 -13 -4 -22 -8
-19 -11 6 -10 43 1 43 5 0 8 -11 7 -24z m-2016 -16 c0 -5 -4 -10 -10 -10 -5 0
-10 5 -10 10 0 6 5 10 10 10 6 0 10 -4 10 -10z m-130 -25 c14 -19 14 -19 -2
-6 -10 7 -18 18 -18 24 0 6 1 8 3 6 1 -2 9 -13 17 -24z m86 -2 c-3 -8 -6 -17
-6 -19 0 -3 -4 -2 -10 1 -17 11 -12 45 6 38 8 -3 13 -12 10 -20z m-366 7 c0
-5 -2 -10 -4 -10 -3 0 -8 5 -11 10 -3 6 -1 10 4 10 6 0 11 -4 11 -10z m2463
-37 c-3 -27 -10 -49 -15 -51 -4 -2 -8 -18 -9 -35 0 -27 -2 -29 -9 -12 -14 32
-11 79 6 113 23 46 35 39 27 -15z m87 33 c0 -8 -4 -18 -10 -21 -5 -3 -10 3
-10 14 0 12 5 21 10 21 6 0 10 -6 10 -14z m-2625 -21 c-9 28 8 7 24 -29 l12
-29 -33 25 c-18 14 -35 34 -37 44 -3 16 1 15 19 -6 18 -21 21 -22 15 -5z
m2595 -10 c0 -8 -4 -15 -10 -15 -5 0 -7 7 -4 15 4 8 8 15 10 15 2 0 4 -7 4
-15z m42 -42 c-9 -14 -10 -14 -16 5 -9 29 3 51 16 28 5 -10 5 -23 0 -33z
m-2852 16 c0 -6 -4 -7 -10 -4 -5 3 -10 11 -10 16 0 6 5 7 10 4 6 -3 10 -11 10
-16z m482 4 c18 -22 31 -43 25 -43 -6 0 -57 48 -57 55 0 11 17 4 32 -12z m-48
-9 c3 -8 2 -12 -4 -9 -6 3 -10 10 -10 16 0 14 7 11 14 -7z m86 0 c0 -8 -4 -12
-10 -9 -5 3 -10 10 -10 16 0 5 5 9 10 9 6 0 10 -7 10 -16z m2260 6 c0 -5 -4
-10 -10 -10 -5 0 -10 5 -10 10 0 6 5 10 10 10 6 0 10 -4 10 -10z m44 -15 c3
-8 1 -15 -4 -15 -6 0 -10 7 -10 15 0 8 2 15 4 15 2 0 6 -7 10 -15z m-2148 -10
c6 -14 -3 -52 -10 -44 -2 2 -6 16 -10 32 -7 29 10 39 20 12z m-186 -37 c0 -5
-9 -4 -20 2 -11 6 -20 18 -20 27 0 14 2 14 20 -2 11 -10 20 -22 20 -27z m2291
13 c10 16 13 -49 3 -75 -12 -31 -27 -16 -21 22 5 36 -2 27 -17 -22 -4 -10 -9
-17 -11 -14 -3 2 3 31 13 64 12 43 18 53 20 35 3 -19 6 -21 13 -10z m53 0 c4
-5 2 -20 -3 -33 -7 -16 -10 -18 -10 -6 -1 9 -4 23 -7 32 -6 17 11 23 20 7z
m33 -53 c-2 -13 -4 -3 -4 22 0 25 2 35 4 23 2 -13 2 -33 0 -45z m-2627 20 c0
-6 -7 -5 -15 2 -8 7 -15 17 -15 22 0 6 7 5 15 -2 8 -7 15 -17 15 -22z m477 10
c-3 -8 -6 -5 -6 6 -1 11 2 17 5 13 3 -3 4 -12 1 -19z m2193 12 c0 -5 -5 -10
-11 -10 -5 0 -7 5 -4 10 3 6 8 10 11 10 2 0 4 -4 4 -10z m-100 -56 c0 -14 -4
-23 -9 -20 -5 3 -7 15 -4 26 7 28 13 25 13 -6z m-2349 -16 c11 -21 11 -22 -4
-9 -10 7 -17 17 -17 22 0 15 9 10 21 -13z m-147 -3 c3 -8 1 -15 -4 -15 -6 0
-10 7 -10 15 0 8 2 15 4 15 2 0 6 -7 10 -15z m56 -59 c0 -6 -7 -1 -15 10 -8
10 -14 26 -14 34 0 16 28 -28 29 -44z m208 8 c-4 -3 -12 5 -18 18 -12 22 -12
22 6 6 10 -10 15 -20 12 -24z m2186 2 c-6 -16 -8 -17 -16 -2 -11 19 0 42 13
29 6 -6 7 -18 3 -27z m51 -18 c-6 -37 -10 -44 -31 -46 -16 -1 -24 3 -24 14 0
15 51 86 58 79 2 -2 1 -23 -3 -47z m-1980 32 c16 -7 12 -9 -18 -9 -23 -1 -36
3 -32 9 7 12 23 12 50 0z m2022 -12 c-3 -8 -6 -5 -6 6 -1 11 2 17 5 13 3 -3 4
-12 1 -19z m-2457 -18 c0 -5 -4 -10 -10 -10 -5 0 -10 5 -10 10 0 6 5 10 10 10
6 0 10 -4 10 -10z m2477 -12 c-3 -8 -6 -5 -6 6 -1 11 2 17 5 13 3 -3 4 -12 1
-19z m-1919 -1 c6 0 12 -3 12 -7 0 -5 -74 -5 -90 1 -3 1 -8 1 -12 0 -5 0 -8 4
-8 10 0 7 14 8 43 3 23 -4 48 -7 55 -7z m1769 -19 c-3 -7 -5 -2 -5 12 0 14 2
19 5 13 2 -7 2 -19 0 -25z m-2277 -19 c0 -6 -4 -7 -10 -4 -5 3 -10 11 -10 16
0 6 5 7 10 4 6 -3 10 -11 10 -16z m170 0 c0 -6 -4 -7 -10 -4 -5 3 -10 11 -10
16 0 6 5 7 10 4 6 -3 10 -11 10 -16z m66 -17 c-9 -8 -26 10 -26 26 1 15 2 15
15 -2 8 -11 13 -21 11 -24z m123 24 c13 -1 26 -7 29 -13 4 -15 -14 -17 -23 -3
-4 6 -13 5 -24 -2 -23 -14 -51 -4 -51 17 0 12 6 15 23 9 12 -4 33 -7 46 -8z
m111 -1 c0 -10 -11 -15 -35 -15 -19 0 -35 5 -35 11 0 7 12 10 30 7 17 -3 30
-1 30 4 0 4 2 8 5 8 3 0 5 -7 5 -15z m-610 -16 c0 -6 -4 -7 -10 -4 -5 3 -10
11 -10 16 0 6 5 7 10 4 6 -3 10 -11 10 -16z m2510 -69 l-11 -25 6 25 c2 14 5
36 6 50 l2 25 4 -25 c2 -14 -1 -37 -7 -50z m-952 26 c77 -9 144 -16 147 -16 3
0 4 -4 1 -9 -7 -10 -125 -23 -138 -15 -6 4 -26 8 -45 9 -19 1 -39 8 -44 16 -5
8 -9 10 -9 4 0 -5 -15 -10 -34 -10 -28 0 -33 3 -32 22 0 11 4 20 7 18 3 -2 69
-11 147 -19z m-1001 -8 c-3 -8 -6 -5 -6 6 -1 11 2 17 5 13 3 -3 4 -12 1 -19z
m2027 -56 c-4 -39 -10 -70 -14 -67 -3 2 -2 36 3 75 13 90 19 85 11 -8z m-2937
31 c-3 -10 -5 -4 -5 12 0 17 2 24 5 18 2 -7 2 -21 0 -30z m317 21 c3 -8 2 -12
-4 -9 -6 3 -10 10 -10 16 0 14 7 11 14 -7z m96 -16 c0 -6 -7 -5 -15 2 -8 7
-15 17 -15 22 0 6 7 5 15 -2 8 -7 15 -17 15 -22z m460 22 c0 -5 -13 -10 -29
-10 -17 0 -33 5 -36 10 -4 6 8 10 29 10 20 0 36 -4 36 -10z m1476 -16 c-5 -14
-9 -15 -19 -5 -9 9 -9 14 3 21 18 11 24 6 16 -16z m-138 -19 c9 -7 -12 -33
-23 -29 -7 3 -16 1 -20 -5 -3 -6 1 -11 9 -11 9 0 16 -5 16 -11 0 -8 -11 -9
-32 -4 -18 4 -37 7 -43 8 -5 0 -11 13 -12 28 -2 22 3 29 20 32 19 3 77 -2 85
-8z m-146 -17 c-6 -6 -16 -7 -22 -3 -9 6 -9 9 1 16 17 10 34 0 21 -13z m263
-14 c-8 -13 -15 -34 -15 -47 0 -35 -40 -35 -41 1 0 27 0 27 -15 6 -10 -14 -22
-20 -35 -17 -23 6 -23 5 -5 48 15 35 34 43 94 36 32 -3 32 -4 17 -27z m-1479
11 c4 -8 3 -23 -1 -32 -7 -17 -8 -16 -15 2 -5 11 -9 26 -9 33 -1 17 18 15 25
-3z m20 -41 c-8 -21 -15 -31 -15 -22 -1 21 18 72 24 66 3 -3 -1 -22 -9 -44z
m69 23 c25 -15 27 -51 3 -66 -15 -9 -18 -8 -18 10 0 19 -1 19 -16 5 -20 -21
-38 -21 -30 0 3 9 9 27 12 40 7 27 19 29 49 11z m935 -6 c0 -9 -57 -61 -67
-61 -4 0 -14 4 -22 9 -11 7 -10 14 7 38 17 24 27 29 51 25 17 -2 31 -7 31 -11z
m71 -1 c25 0 25 -20 -1 -27 -11 -3 -20 -12 -20 -19 0 -8 -7 -14 -16 -14 -14 0
-15 -2 -3 -17 13 -15 11 -16 -20 -10 -48 10 -50 15 -16 45 17 14 29 32 27 40
-2 10 2 13 13 8 9 -3 25 -6 36 -6z m73 -19 c3 -5 15 -7 26 -4 13 4 20 0 20 -9
0 -10 8 -13 30 -10 16 2 38 1 47 -3 10 -5 21 -7 26 -7 11 3 -16 -37 -30 -42
-6 -3 -28 -2 -48 1 -27 4 -35 10 -30 21 5 13 3 13 -13 -1 -15 -14 -27 -16 -58
-9 l-39 9 50 16 50 16 -42 -5 c-38 -5 -41 -4 -36 15 5 21 37 29 47 12z m-988
-28 c12 -7 28 -11 35 -8 8 3 23 -2 34 -10 19 -16 19 -16 -5 -9 -20 5 -23 4
-13 -6 7 -7 36 -13 65 -14 29 -1 56 -5 60 -11 6 -9 37 -3 143 29 15 4 25 -2
43 -30 12 -19 22 -40 22 -45 0 -13 18 -11 23 4 3 9 13 7 38 -7 142 -78 179
-95 192 -90 8 3 29 -2 45 -10 17 -9 44 -17 61 -18 17 -1 31 -4 31 -6 0 -11
-107 -92 -121 -92 -5 0 -6 7 -3 15 4 9 0 15 -10 15 -9 0 -16 -6 -16 -14 0 -25
-20 -29 -123 -27 -106 2 -257 36 -330 73 -40 20 -43 39 -4 32 l22 -5 -22 12
c-14 7 -23 21 -23 36 0 12 -4 23 -8 23 -5 0 -17 7 -28 16 -18 15 -18 15 9 11
15 -2 27 0 27 4 0 5 -10 9 -22 9 -13 0 -34 3 -47 7 -20 5 -23 3 -18 -10 5 -13
1 -17 -16 -17 -16 0 -19 3 -8 9 11 7 9 10 -7 15 -18 6 -36 45 -37 81 0 6 -10
18 -22 28 -45 36 -19 43 33 10z m-798 -18 c-3 -3 -9 2 -12 12 -6 14 -5 15 5 6
7 -7 10 -15 7 -18z m132 -18 c0 -5 -7 -4 -15 3 -8 7 -15 20 -15 29 1 13 3 13
15 -3 8 -11 15 -24 15 -29z m1879 7 c6 -5 -54 -87 -68 -92 -11 -4 -12 0 -6 14
4 11 7 32 6 47 -2 39 6 48 37 41 15 -4 29 -8 31 -10z m-2152 -16 c-3 -8 -6 -5
-6 6 -1 11 2 17 5 13 3 -3 4 -12 1 -19z m61 -19 c-3 -8 -7 -3 -11 10 -4 17 -3
21 5 13 5 -5 8 -16 6 -23z m341 8 c12 -15 12 -17 -3 -11 -9 3 -16 13 -16 22 0
8 1 13 3 11 1 -2 9 -12 16 -22z m466 13 c3 -5 -1 -10 -9 -10 -19 0 -21 -11 -4
-28 7 -7 8 -12 2 -12 -16 0 -34 22 -34 42 0 19 34 25 45 8z m1042 -10 c12 0
13 -3 4 -14 -10 -11 -19 -12 -42 -4 -43 15 -50 33 -9 25 18 -4 39 -7 47 -7z
m111 -29 c-3 -12 -13 -15 -43 -13 -47 4 -51 7 -37 25 17 20 84 10 80 -12z
m268 4 c3 -8 -3 -27 -14 -42 -16 -22 -28 -28 -61 -28 -23 0 -41 2 -41 5 0 2
17 21 37 42 39 40 70 49 79 23z m474 -14 c0 -17 -4 -33 -10 -36 -6 -4 -10 8
-10 29 0 20 5 36 10 36 6 0 10 -13 10 -29z m-2742 -4 c2 -10 -3 -17 -12 -17
-10 0 -16 9 -16 21 0 24 23 21 28 -4z m716 7 c9 -22 -3 -32 -14 -14 -12 19
-12 30 -1 30 5 0 12 -7 15 -16z m2121 10 c10 -4 13 -9 6 -13 -6 -4 -11 -21
-13 -38 -3 -44 -18 -30 -18 18 0 42 0 42 25 33z m-1955 -14 c0 -5 -2 -10 -4
-10 -3 0 -8 5 -11 10 -3 6 -1 10 4 10 6 0 11 -4 11 -10z m649 -5 c31 -5 101
-36 101 -45 0 -8 -15 -7 -109 9 -72 12 -76 14 -67 37 4 12 13 14 29 9 12 -3
33 -8 46 -10z m819 4 c61 -15 67 -21 42 -44 -24 -21 -79 -29 -97 -13 -9 7 -13
7 -13 -1 0 -6 -7 -11 -15 -11 -8 0 -15 2 -15 5 0 7 44 75 48 75 2 0 24 -5 50
-11z m368 -46 c7 -18 9 -33 3 -33 -5 0 -9 8 -9 18 -1 16 -1 16 -11 0 -5 -10
-14 -18 -19 -18 -16 0 -11 30 6 37 12 4 13 8 3 13 -7 5 -9 15 -4 26 6 16 8 16
12 4 3 -8 12 -30 19 -47z m-2777 -1 c0 -24 -1 -25 -9 -7 -12 28 -12 47 0 40 6
-3 10 -18 9 -33z m865 23 c3 -8 1 -15 -4 -15 -11 0 -1 -32 14 -42 6 -4 7 -10
4 -14 -9 -8 -36 18 -38 37 -6 43 11 68 24 34z m96 -21 c0 -8 -4 -12 -10 -9 -5
3 -10 10 -10 16 0 5 5 9 10 9 6 0 10 -7 10 -16z m-786 -20 c8 -21 -12 -17 -24
6 -8 16 -8 18 4 14 8 -3 17 -12 20 -20z m382 -11 c-7 -7 -26 7 -26 19 0 6 6 6
15 -2 9 -7 13 -15 11 -17z m1539 17 c-3 -5 -11 -10 -16 -10 -6 0 -7 5 -4 10 3
6 11 10 16 10 6 0 7 -4 4 -10z m515 0 c13 -8 12 -10 -2 -10 -10 0 -21 -1 -25
-2 -3 -2 -8 3 -10 10 -5 14 16 16 37 2z m-2355 -10 c3 -6 -1 -7 -9 -4 -18 7
-21 14 -7 14 6 0 13 -4 16 -10z m387 -12 c-7 -7 -12 -8 -12 -2 0 14 12 26 19
19 2 -3 -1 -11 -7 -17z m108 -18 c0 -14 -14 -12 -28 2 -19 19 -14 30 8 18 11
-6 20 -15 20 -20z m240 0 c0 -10 9 -22 20 -25 11 -3 20 -13 20 -21 0 -8 7 -14
15 -14 8 0 15 -4 15 -9 0 -5 16 -16 35 -25 57 -27 53 -41 -12 -39 -6 0 -9 -6
-6 -13 3 -8 0 -14 -6 -14 -6 0 -11 11 -11 25 0 14 -6 25 -12 26 -10 0 -10 2
-1 5 8 4 7 11 -4 24 -9 10 -20 17 -25 14 -4 -3 -8 2 -8 10 0 8 -6 19 -14 23
-7 4 -15 20 -18 35 -3 15 -1 25 3 22 5 -3 9 -14 9 -24z m87 20 c13 0 13 -3 3
-15 -9 -11 -17 -12 -31 -4 -23 12 -26 34 -3 25 9 -3 23 -6 31 -6z m1166 0 c42
0 32 -15 -36 -54 -59 -33 -68 -35 -140 -32 -43 2 -80 6 -84 10 -3 3 6 6 20 6
15 0 27 5 27 11 0 7 9 9 22 6 11 -3 34 1 49 9 15 7 43 15 61 15 23 1 27 3 11
6 -13 2 -23 8 -23 13 0 12 22 20 45 15 11 -3 32 -5 48 -5z m-323 -10 c13 -8
13 -10 -2 -10 -9 0 -20 5 -23 10 -8 13 5 13 25 0z m-1362 -30 c7 -11 9 -20 4
-20 -8 0 -42 36 -42 45 0 10 26 -7 38 -25z m389 10 c11 -16 10 -18 -2 -14 -10
4 -14 1 -12 -7 2 -8 2 -11 0 -6 -3 4 -11 7 -18 7 -20 0 -30 21 -14 31 21 13
33 11 46 -11z m763 5 c-7 -8 -17 -12 -22 -9 -6 4 -5 10 3 15 22 14 33 10 19
-6z m937 1 c3 -3 0 -13 -7 -21 -9 -11 -16 -13 -24 -5 -5 5 -23 10 -38 10 -27
0 -35 9 -21 24 7 7 81 1 90 -8z m93 -21 c-8 -10 -9 -15 -1 -15 6 0 11 -4 11
-10 0 -20 -28 -10 -33 12 -7 26 11 54 26 39 7 -7 6 -15 -3 -26z m150 0 c0 -19
-4 -35 -10 -35 -5 0 -9 16 -8 35 1 19 5 35 10 35 4 0 8 -16 8 -35z m-2685 -3
c0 -11 4 -24 8 -28 4 -4 7 -14 7 -21 0 -17 -24 -12 -26 5 -1 7 -3 13 -4 15 -1
1 -4 15 -6 30 -2 19 1 27 9 24 7 -2 12 -13 12 -25z m2130 18 c-3 -5 -10 -10
-16 -10 -5 0 -9 5 -9 10 0 6 7 10 16 10 8 0 12 -4 9 -10z m365 3 c0 -5 -5 -15
-10 -23 -8 -12 -10 -11 -10 8 0 12 5 22 10 22 6 0 10 -3 10 -7z m85 -3 c3 -5
-1 -10 -9 -10 -9 0 -16 5 -16 10 0 6 4 10 9 10 6 0 13 -4 16 -10z m-2048 -27
c-8 -7 -37 9 -31 19 3 5 12 4 20 -3 8 -6 13 -14 11 -16z m1110 13 c3 -3 -12
-6 -35 -6 -23 0 -42 4 -42 8 0 10 67 8 77 -2z m563 9 c0 -3 -7 -17 -16 -30
-18 -27 -49 -33 -57 -12 -8 20 7 39 25 32 9 -4 19 -2 23 4 6 11 25 15 25 6z
m-405 -15 c4 -6 -9 -10 -32 -9 -38 1 -38 1 -8 9 17 4 31 8 32 9 1 0 5 -3 8 -9z
m290 0 c-3 -5 -13 -10 -21 -10 -8 0 -12 5 -9 10 3 6 13 10 21 10 8 0 12 -4 9
-10z m-1411 -62 c-8 -13 -53 34 -47 50 4 10 12 7 29 -13 13 -15 21 -32 18 -37z
m1626 53 c0 -12 -26 -32 -33 -25 -6 7 14 33 26 34 4 0 7 -4 7 -9z m267 -6 c0
-8 -4 -15 -9 -15 -10 0 -11 14 -1 23 9 10 10 9 10 -8z m-2452 -15 c0 -8 -8
-14 -17 -14 -10 1 -14 -4 -11 -12 3 -8 1 -14 -5 -14 -14 0 -23 28 -11 35 5 4
7 11 3 17 -4 6 3 8 17 6 13 -1 24 -10 24 -18z m573 -5 c-3 -3 -9 2 -12 12 -6
14 -5 15 5 6 7 -7 10 -15 7 -18z m973 11 c25 -8 76 -17 112 -21 72 -8 91 -25
30 -26 -21 0 -56 -3 -78 -7 -36 -7 -38 -9 -15 -15 19 -5 22 -9 13 -18 -17 -17
-66 -2 -59 17 4 10 1 14 -6 11 -7 -2 -12 -10 -10 -16 2 -12 -40 -16 -51 -4 -4
3 -2 12 5 20 6 7 11 27 10 43 0 17 0 30 1 30 1 0 23 -6 48 -14z m369 7 c-1
-18 -19 -35 -29 -28 -9 5 -9 10 0 21 12 15 29 19 29 7z m-1505 -13 c3 -5 -1
-10 -9 -10 -9 0 -16 5 -16 10 0 6 4 10 9 10 6 0 13 -4 16 -10z m1580 -11 c-4
-5 -16 -9 -28 -9 -21 1 -21 1 -3 15 20 15 41 11 31 -6z m-2175 1 c0 -5 -2 -10
-4 -10 -3 0 -8 5 -11 10 -3 6 -1 10 4 10 6 0 11 -4 11 -10z m786 -36 c-7 -26
-26 -28 -34 -4 -3 9 1 11 13 6 14 -5 16 -4 7 7 -9 10 -8 17 1 26 15 15 21 -1
13 -35z m-521 6 c3 -6 0 -10 -7 -10 -7 0 -19 9 -26 21 -12 19 -11 19 7 10 11
-6 23 -16 26 -21z m2205 15 c-7 -8 -19 -15 -26 -15 -8 0 -14 -7 -14 -15 0 -15
-48 -45 -73 -45 -8 0 -26 -11 -39 -25 -23 -22 -26 -23 -32 -9 -6 16 -8 15 -21
-2 -13 -17 -14 -17 -15 -2 0 10 11 25 25 34 14 9 23 20 20 24 -3 4 3 14 13 21
9 7 14 10 10 5 -11 -13 15 -36 28 -25 7 5 17 8 24 7 6 -2 17 6 23 17 15 25 29
35 39 29 4 -3 16 0 25 5 25 14 27 13 13 -4z m-1935 -16 c15 -15 -17 -10 -45 7
l-25 15 30 -6 c17 -4 34 -11 40 -16z m95 5 c0 -8 -4 -12 -10 -9 -5 3 -10 10
-10 16 0 5 5 9 10 9 6 0 10 -7 10 -16z m204 1 c-4 -8 -10 -15 -14 -15 -5 0 -6
-9 -3 -20 3 -11 0 -20 -6 -20 -16 0 -13 36 5 54 19 20 25 20 18 1z m1370 -24
c-5 -21 -4 -24 7 -13 27 25 30 11 4 -20 -34 -41 -61 -59 -52 -33 15 38 20 68
10 62 -6 -4 -13 -20 -16 -37 -5 -24 -12 -30 -34 -31 -17 -1 -21 -3 -10 -6 21
-5 20 -2 2 -46 -22 -52 -1 -57 46 -11 35 34 39 36 39 16 0 -14 -13 -31 -38
-47 -36 -24 -51 -26 -203 -33 -194 -10 -347 -7 -409 6 l-45 9 37 16 c21 10 59
18 85 18 34 2 39 3 18 6 -47 7 -52 21 -7 20 26 -1 38 1 32 7 -13 13 -13 29 0
21 5 -3 26 1 46 10 53 22 73 20 44 -5 -13 -11 -33 -20 -45 -20 -16 0 -26 -10
-38 -40 -13 -34 -13 -40 -1 -40 8 0 14 4 14 9 0 6 15 11 33 13 26 2 32 7 31
26 0 12 3 22 7 22 4 0 14 6 21 14 8 7 34 24 58 37 25 14 64 37 87 52 51 32 58
33 114 7 48 -21 79 -25 79 -10 0 6 -7 10 -15 10 -8 0 -19 9 -25 19 -9 18 -6
19 60 19 l70 0 -6 -27z m-1524 5 c0 -8 -7 -16 -15 -20 -15 -5 -21 14 -8 27 11
12 23 8 23 -7z m1954 -33 c-8 -33 -12 -39 -20 -30 -9 9 5 57 16 57 6 0 8 -11
4 -27z m-2601 10 c-7 -2 -19 -2 -25 0 -7 3 -2 5 12 5 14 0 19 -2 13 -5z m502
-3 c8 -13 -5 -13 -25 0 -13 8 -13 10 2 10 9 0 20 -4 23 -10z m229 -19 c-7 -8
-35 9 -29 19 4 6 11 5 20 -3 7 -6 11 -14 9 -16z m1073 23 c-3 -3 -12 -4 -19
-1 -8 3 -5 6 6 6 11 1 17 -2 13 -5z m666 -60 c-21 -25 -43 -55 -50 -67 -14
-25 -55 -36 -93 -27 l-25 6 28 7 c15 4 27 12 27 18 0 6 4 8 9 4 6 -3 22 18 36
47 34 68 49 84 40 41 -4 -19 -3 -33 3 -33 12 0 37 30 47 55 5 13 9 16 12 7 3
-7 -12 -33 -34 -58z m-2633 47 c0 -6 -4 -13 -10 -16 -5 -3 -10 1 -10 9 0 9 5
16 10 16 6 0 10 -4 10 -9z m337 3 c-3 -3 -12 -4 -19 -1 -8 3 -5 6 6 6 11 1 17
-2 13 -5z m870 -8 c4 -7 15 -16 23 -19 9 -3 4 -6 -11 -6 -16 -1 -29 6 -33 15
-3 8 -10 13 -15 9 -5 -3 -12 -1 -16 5 -4 6 4 10 19 10 14 0 29 -6 33 -14z
m156 -17 c57 -13 77 -29 35 -29 -48 1 -107 18 -125 35 -17 18 -17 18 7 13 14
-4 51 -12 83 -19z m120 14 c-7 -2 -19 -2 -25 0 -7 3 -2 5 12 5 14 0 19 -2 13
-5z m352 -2 l40 -7 -40 -18 c-22 -10 -52 -24 -67 -32 -14 -8 -33 -14 -41 -14
-9 0 -17 -5 -19 -11 -2 -7 -17 -7 -43 -2 -22 5 -58 6 -80 2 l-40 -6 38 -2 c21
0 36 -5 33 -10 -3 -4 5 -6 18 -4 38 8 38 -12 -1 -26 -26 -10 -38 -10 -46 -2
-9 9 -8 14 3 21 11 7 6 10 -21 10 -20 0 -38 3 -42 6 -3 3 -30 8 -59 11 -48 4
-82 7 -143 13 -17 2 -16 3 5 9 14 4 45 3 70 -2 50 -11 160 5 193 28 10 7 34
11 53 9 19 -2 34 0 34 6 0 5 11 10 24 10 14 0 28 5 31 10 7 12 43 12 100 1z
m864 -27 c-6 -16 -13 -24 -16 -17 -5 13 16 58 23 50 3 -2 -1 -17 -7 -33z
m-2669 6 c0 -15 -7 -20 -27 -20 -25 0 -26 0 -8 20 10 11 22 20 27 20 4 0 8 -9
8 -20z m2830 5 c0 -8 -4 -15 -10 -15 -5 0 -10 7 -10 15 0 8 5 15 10 15 6 0 10
-7 10 -15z m-2730 -5 c0 -5 -5 -10 -11 -10 -5 0 -7 5 -4 10 3 6 8 10 11 10 2
0 4 -4 4 -10z m1047 4 c-3 -3 -12 -4 -19 -1 -8 3 -5 6 6 6 11 1 17 -2 13 -5z
m383 -7 c0 -7 -9 -13 -21 -13 -19 0 -19 1 -3 13 10 7 19 13 21 13 2 0 3 -6 3
-13z m-1470 -17 c0 -5 -4 -10 -10 -10 -5 0 -10 5 -10 10 0 6 5 10 10 10 6 0
10 -4 10 -10z m285 0 c3 -5 2 -10 -4 -10 -5 0 -13 5 -16 10 -3 6 -2 10 4 10 5
0 13 -4 16 -10z m2145 5 c0 -5 -71 -75 -76 -75 -2 0 -1 7 3 16 9 24 -19 13
-32 -13 -6 -11 -16 -18 -23 -15 -6 2 -12 -1 -12 -6 0 -5 -11 -12 -25 -14 -28
-6 -32 3 -10 22 8 7 15 9 15 4 0 -4 10 2 23 13 34 31 137 83 137 68z m140 -14
c0 -10 -9 -21 -20 -24 -25 -6 -25 1 -2 24 22 23 22 23 22 0z m222 -13 c-7 -7
-12 -8 -12 -2 0 14 12 26 19 19 2 -3 -1 -11 -7 -17z m-2362 -3 c16 -19 0 -19
-26 0 -16 12 -16 14 -3 15 9 0 22 -7 29 -15z m99 0 c32 -3 57 -23 44 -35 -3
-3 -8 1 -10 8 -3 7 -21 12 -43 12 -23 0 -43 6 -51 17 -12 15 -12 16 6 9 11 -5
35 -10 54 -11z m-269 -5 c13 -8 13 -10 -2 -10 -9 0 -20 5 -23 10 -8 13 5 13
25 0z m2030 6 c0 -3 -4 -8 -10 -11 -5 -3 -10 -1 -10 4 0 6 5 11 10 11 6 0 10
-2 10 -4z m-2365 -16 c3 -5 -1 -10 -9 -10 -9 0 -16 5 -16 10 0 6 4 10 9 10 6
0 13 -4 16 -10z m838 3 c-7 -2 -19 -2 -25 0 -7 3 -2 5 12 5 14 0 19 -2 13 -5z
m352 -3 c3 -5 -1 -10 -9 -10 -9 0 -16 5 -16 10 0 6 4 10 9 10 6 0 13 -4 16
-10z m75 -5 c17 -9 30 -18 30 -20 0 -10 -55 7 -70 21 -20 19 2 18 40 -1z
m-1090 -4 c0 -5 -9 -7 -20 -4 -11 3 -20 7 -20 9 0 2 9 4 20 4 11 0 20 -4 20
-9z m585 -1 c4 -6 -14 -10 -47 -10 -38 0 -49 3 -38 10 20 13 77 13 85 0z
m-485 -10 c11 -7 8 -10 -15 -9 -16 0 -39 4 -50 9 -16 7 -14 9 15 9 19 0 42 -4
50 -9z m85 0 c-44 -11 -65 -11 -65 0 0 6 21 9 48 9 42 -1 44 -2 17 -9z m525
-2 c31 -10 32 -12 12 -19 -12 -5 -32 -4 -44 1 -13 5 -18 9 -13 10 6 0 3 5 -5
10 -13 8 -13 10 1 10 9 0 31 -5 49 -12z m1909 3 c9 -6 4 -10 -18 -13 -50 -7
-50 11 -1 21 3 0 11 -3 19 -8z m83 -3 c-9 -9 -15 -9 -24 0 -9 9 -7 12 12 12
19 0 21 -3 12 -12z m-1373 -20 c13 -5 21 -11 19 -14 -8 -7 -130 14 -140 24
-11 11 87 3 121 -10z m-369 -14 c41 -8 76 -17 79 -20 11 -11 -11 -11 -91 1
-121 18 -148 25 -148 37 0 10 34 7 160 -18z m-835 -34 c-3 -5 -34 -10 -68 -10
-44 0 -58 3 -47 10 20 13 123 13 115 0z m518 3 c-7 -2 -21 -2 -30 0 -10 3 -4
5 12 5 17 0 24 -2 18 -5z m717 -3 c0 -5 -2 -10 -4 -10 -3 0 -8 5 -11 10 -3 6
-1 10 4 10 6 0 11 -4 11 -10z m90 1 c0 -5 -11 -8 -25 -7 -33 1 -33 16 0 16 14
0 25 -4 25 -9z"/>
<path d="M1183 2563 c9 -2 23 -2 30 0 6 3 -1 5 -18 5 -16 0 -22 -2 -12 -5z"/>
<path d="M2505 2819 c-4 -6 -5 -12 -2 -15 2 -3 7 2 10 11 7 17 1 20 -8 4z"/>
<path d="M2735 2437 c7 -16 37 -19 32 -3 -2 6 -11 12 -20 14 -11 2 -15 -1 -12
-11z"/>
<path d="M2731 2384 c-6 -15 -9 -35 -5 -46 6 -20 6 -20 25 1 10 11 19 28 18
38 0 11 -3 13 -6 6 -8 -21 -25 -14 -18 7 9 29 0 25 -14 -6z"/>
<path d="M2976 2376 c10 -8 21 -12 24 -10 5 6 -21 24 -34 24 -6 0 -1 -6 10
-14z"/>
<path d="M2680 2260 c0 -5 5 -10 10 -10 6 0 10 5 10 10 0 6 -4 10 -10 10 -5 0
-10 -4 -10 -10z"/>
<path d="M2944 2220 c9 -47 29 -67 22 -21 -2 18 -10 39 -17 45 -9 8 -10 3 -5
-24z"/>
<path d="M2550 2214 c0 -11 34 -33 50 -33 9 0 6 5 -8 12 -12 7 -19 16 -16 20
4 4 0 7 -9 7 -9 0 -17 -3 -17 -6z"/>
<path d="M2860 2190 c20 -13 47 -13 55 0 4 6 -9 10 -32 10 -28 0 -34 -3 -23
-10z"/>
<path d="M2486 2113 c-3 -10 -9 -25 -12 -33 -3 -8 4 -4 15 10 22 27 26 40 12
40 -5 0 -11 -8 -15 -17z"/>
<path d="M2530 2122 c0 -5 7 -15 15 -22 9 -7 14 -19 11 -27 -3 -7 1 -13 9 -13
8 0 24 -9 36 -21 17 -17 23 -18 33 -9 8 10 8 11 -3 5 -9 -5 -12 -3 -9 6 3 8
-9 27 -26 42 -38 35 -66 51 -66 39z"/>
<path d="M2920 2041 c0 -5 7 -11 15 -15 8 -3 15 -1 15 3 0 5 -7 11 -15 15 -8
3 -15 1 -15 -3z"/>
<path d="M2481 1984 c0 -11 3 -14 6 -6 3 7 2 16 -1 19 -3 4 -6 -2 -5 -13z"/>
<path d="M2018 1793 c18 -2 45 -2 60 0 15 2 0 4 -33 4 -33 0 -45 -2 -27 -4z"/>
<path d="M1089 1778 c-11 -39 -8 -44 26 -40 30 4 33 6 24 23 -11 22 -24 26
-16 6 3 -8 -1 -14 -9 -14 -8 0 -13 6 -10 14 3 7 1 13 -4 13 -6 0 -10 -1 -11
-2z"/>
<path d="M1890 1730 c-8 -5 -12 -12 -9 -15 4 -3 12 1 19 10 14 17 11 19 -10 5z"/>
<path d="M1914 1716 c-3 -9 -12 -16 -20 -16 -8 0 -14 -4 -14 -10 0 -5 4 -10 8
-10 14 0 46 39 39 46 -4 4 -9 -1 -13 -10z"/>
<path d="M1980 1720 c0 -9 109 -4 119 5 2 3 -23 5 -57 5 -34 0 -62 -4 -62 -10z"/>
<path d="M1957 1609 c-43 -46 -45 -65 -3 -22 24 24 52 64 44 63 -2 -1 -20 -19
-41 -41z"/>
<path d="M1089 1608 c0 -18 -2 -52 -5 -75 -5 -35 -3 -43 10 -43 13 0 16 13 16
75 0 43 -4 75 -10 75 -5 0 -10 -15 -11 -32z"/>
<path d="M1128 1633 c6 -2 18 -2 25 0 6 3 1 5 -13 5 -14 0 -19 -2 -12 -5z"/>
<path d="M1150 1553 c0 -35 -3 -44 -10 -33 -8 11 -10 6 -8 -20 1 -20 -2 -41
-6 -48 -5 -8 -2 -10 8 -6 20 8 35 59 33 112 -2 58 -17 53 -17 -5z"/>
<path d="M1825 1520 c3 -5 10 -10 16 -10 5 0 9 5 9 10 0 6 -7 10 -16 10 -8 0
-12 -4 -9 -10z"/>
<path d="M1880 1514 c0 -8 5 -12 10 -9 6 4 8 11 5 16 -9 14 -15 11 -15 -7z"/>
<path d="M2004 1492 c-6 -4 -17 -18 -23 -30 -7 -13 -15 -21 -18 -19 -2 3 0 15
7 26 10 19 8 21 -15 21 -23 0 -25 -2 -15 -21 7 -11 9 -27 6 -35 -10 -26 21
-14 52 21 18 19 32 37 32 40 0 7 -13 6 -26 -3z"/>
<path d="M1089 1478 c-7 -12 -4 -77 2 -71 15 15 23 73 10 73 -6 0 -12 -1 -12
-2z"/>
<path d="M1408 1473 c7 -3 16 -2 19 1 4 3 -2 6 -13 5 -11 0 -14 -3 -6 -6z"/>
<path d="M2010 1436 c0 -9 5 -16 10 -16 6 0 10 4 10 9 0 6 -4 13 -10 16 -5 3
-10 -1 -10 -9z"/>
<path d="M1120 1414 c0 -8 5 -12 10 -9 6 4 8 11 5 16 -9 14 -15 11 -15 -7z"/>
<path d="M2145 1420 c-24 -6 -17 -8 33 -9 35 0 62 3 62 9 0 11 -50 11 -95 0z"/>
<path d="M1511 1410 c-11 -6 -51 -78 -51 -90 1 -12 40 46 40 60 0 12 2 12 9 2
6 -10 10 -10 21 3 7 9 19 14 26 11 7 -3 16 -1 19 4 4 6 3 11 -2 11 -33 6 -53
5 -62 -1z"/>
<path d="M1408 1393 c7 -3 16 -2 19 1 4 3 -2 6 -13 5 -11 0 -14 -3 -6 -6z"/>
<path d="M1398 1363 c6 -2 18 -2 25 0 6 3 1 5 -13 5 -14 0 -19 -2 -12 -5z"/>
<path d="M2130 1360 c36 -12 110 -12 110 0 0 6 -29 10 -67 9 -50 -1 -61 -3
-43 -9z"/>
<path d="M2041 1336 c-8 -10 -9 -16 -1 -21 7 -4 7 -12 0 -26 -8 -15 -7 -19 3
-19 8 0 17 11 19 25 3 14 1 22 -5 18 -5 -3 -6 3 -2 16 7 24 2 27 -14 7z"/>
<path d="M2291 1334 c0 -11 3 -14 6 -6 3 7 2 16 -1 19 -3 4 -6 -2 -5 -13z"/>
<path d="M2125 1300 c-3 -5 -1 -10 4 -10 6 0 11 5 11 10 0 6 -2 10 -4 10 -3 0
-8 -4 -11 -10z"/>
<path d="M1863 1293 c15 -2 37 -2 50 0 12 2 0 4 -28 4 -27 0 -38 -2 -22 -4z"/>
<path d="M1703 1283 c15 -2 37 -2 50 0 12 2 0 4 -28 4 -27 0 -38 -2 -22 -4z"/>
<path d="M2181 1222 c0 -13 -6 -33 -12 -45 -9 -16 -9 -22 0 -25 7 -2 11 -39
11 -109 0 -79 3 -104 13 -100 9 3 11 31 9 103 -3 94 -18 226 -21 176z"/>
<path d="M2045 1201 c-3 -5 -1 -12 5 -16 5 -3 10 1 10 9 0 18 -6 21 -15 7z"/>
<path d="M2530 1171 c0 -11 49 -21 69 -13 12 4 11 7 -5 13 -27 11 -64 11 -64
0z"/>
<path d="M1670 1150 c-11 -7 -5 -10 23 -10 23 0 36 4 32 10 -8 13 -35 13 -55
0z"/>
<path d="M1910 1152 c0 -4 9 -13 20 -20 22 -13 27 -3 8 16 -14 14 -28 16 -28
4z"/>
<path d="M1640 1120 c-22 -7 -20 -8 16 -9 23 -1 55 -6 73 -12 40 -14 54 -3 15
11 -43 17 -76 20 -104 10z"/>
<path d="M1905 1090 c10 -11 30 -20 44 -20 25 1 25 2 -9 20 -45 25 -58 25 -35
0z"/>
<path d="M2356 1091 c-8 -13 32 -21 99 -19 42 1 49 3 23 5 -21 2 -38 8 -38 14
0 12 -77 12 -84 0z"/>
<path d="M2040 1075 c0 -8 5 -15 10 -15 6 0 10 7 10 15 0 8 -4 15 -10 15 -5 0
-10 -7 -10 -15z"/>
<path d="M1850 1062 c0 -4 14 -16 30 -25 17 -10 30 -15 30 -10 0 4 -14 16 -30
25 -17 9 -30 14 -30 10z"/>
<path d="M2056 1028 c3 -5 10 -6 15 -3 13 9 11 12 -6 12 -8 0 -12 -4 -9 -9z"/>
<path d="M2921 994 c0 -11 3 -14 6 -6 3 7 2 16 -1 19 -3 4 -6 -2 -5 -13z"/>
<path d="M2825 917 c-9 -32 -5 -39 15 -27 11 7 11 14 3 32 l-11 23 -7 -28z"/>
<path d="M2230 910 c0 -5 17 -12 38 -16 20 -4 46 -9 57 -11 37 -8 95 -8 95 0
0 4 -8 7 -17 7 -36 1 -99 12 -115 21 -22 12 -58 11 -58 -1z"/>
<path d="M1377 903 c-13 -12 -7 -33 8 -33 8 0 15 9 15 20 0 20 -11 26 -23 13z"/>
<path d="M1460 835 c0 -9 5 -15 10 -13 12 4 11 16 -1 24 -5 3 -9 -2 -9 -11z"/>
<path d="M1865 790 c-23 -5 16 -6 90 -4 71 3 131 7 134 10 7 7 -181 2 -224 -6z"/>
<path d="M2912 775 c-17 -37 -14 -45 4 -12 9 16 14 31 11 33 -2 2 -9 -7 -15
-21z"/>
<path d="M1758 773 c12 -2 32 -2 45 0 12 2 2 4 -23 4 -25 0 -35 -2 -22 -4z"/>
<path d="M1478 752 c-30 -4 -33 -9 -18 -32 8 -13 11 -13 22 2 7 9 22 18 33 20
30 5 -3 14 -37 10z"/>
<path d="M1898 733 c7 -3 16 -2 19 1 4 3 -2 6 -13 5 -11 0 -14 -3 -6 -6z"/>
<path d="M1235 719 c-5 -7 8 -8 41 -3 64 9 68 14 11 14 -25 0 -49 -5 -52 -11z"/>
<path d="M2865 662 c-7 -19 -6 -19 27 -13 l28 6 -25 11 c-19 9 -25 9 -30 -4z"/>
<path d="M2937 658 c-7 -4 9 -8 36 -8 26 0 47 2 47 4 0 8 -71 12 -83 4z"/>
<path d="M2917 563 c-4 -3 -7 -11 -7 -17 0 -6 5 -5 12 2 6 6 9 14 7 17 -3 3
-9 2 -12 -2z"/>
<path d="M1623 483 c9 -2 25 -2 35 0 9 3 1 5 -18 5 -19 0 -27 -2 -17 -5z"/>
<path d="M2436 241 c-3 -5 -16 -7 -29 -5 -20 4 -21 4 -2 -5 29 -14 42 -13 49
4 6 16 -9 21 -18 6z"/>
<path d="M2515 200 c-3 -5 3 -10 14 -10 12 0 21 5 21 10 0 6 -6 10 -14 10 -8
0 -18 -4 -21 -10z"/>
<path d="M120 750 c-13 -9 -13 -10 0 -10 8 0 22 5 30 10 13 9 13 10 0 10 -8 0
-22 -5 -30 -10z"/>
</g>
</svg>
