<?xml version="1.0" standalone="no"?>
<!DOCTYPE svg PUBLIC "-//W3C//DTD SVG 20010904//EN"
 "http://www.w3.org/TR/2001/REC-SVG-20010904/DTD/svg10.dtd">
<svg version="1.0" xmlns="http://www.w3.org/2000/svg"
 width="176.000000pt" height="196.000000pt" viewBox="0 0 176.000000 196.000000"
 preserveAspectRatio="xMidYMid meet">
<metadata>
Created by potrace 1.16, written by Peter Selinger 2001-2019
</metadata>
<g transform="translate(0.000000,196.000000) scale(0.100000,-0.100000)"
fill="#000000" stroke="none">
<path d="M1235 1909 c-591 -25 -796 -32 -946 -34 -212 -2 -215 -3 -222 -57 -9
-62 -19 -480 -22 -888 -1 -213 -8 -425 -17 -530 -12 -135 -13 -180 -4 -195 8
-13 9 -39 5 -74 -9 -69 -4 -81 35 -81 18 0 36 -4 41 -8 6 -5 42 -6 80 -2 39 4
129 5 200 2 79 -3 151 0 183 7 39 8 138 8 379 0 259 -8 328 -8 334 2 6 10 11
10 23 0 12 -10 40 -12 109 -8 50 2 100 8 110 12 12 5 17 2 17 -11 0 -14 6 -12
33 14 18 18 42 32 54 32 28 0 35 22 23 77 -6 24 -8 91 -5 146 2 56 7 183 10
282 3 99 10 230 15 290 6 61 15 162 20 225 10 128 1 720 -11 720 -4 0 -7 12
-6 27 2 21 -3 28 -23 33 -14 4 -32 4 -40 0 -16 -8 -322 -31 -380 -29 -41 2 76
15 210 24 96 6 151 25 75 25 -22 0 -49 2 -60 4 -11 2 -110 -1 -220 -5z m-31
-81 c46 2 61 -1 72 -15 10 -15 10 -21 -2 -34 -13 -14 -11 -16 18 -17 38 -1 58
13 58 39 0 11 -2 19 -4 19 -2 0 -11 3 -20 6 -9 3 -16 1 -16 -5 0 -6 7 -11 15
-11 19 0 20 -16 1 -23 -10 -4 -18 2 -22 16 -4 12 -12 25 -18 29 -6 4 25 8 69
8 57 0 87 -5 103 -15 15 -11 20 -12 17 -3 -4 10 10 13 57 13 l63 0 -2 -495
c-1 -272 -7 -556 -13 -630 -8 -106 -21 -472 -20 -562 0 -22 -69 -46 -80 -28
-4 6 -23 10 -41 9 -19 -2 -43 2 -54 8 -20 11 -20 12 1 35 32 34 86 133 123
221 45 109 44 107 33 107 -5 0 -17 -21 -27 -47 -22 -57 -101 -213 -136 -265
-18 -28 -31 -37 -51 -38 -28 0 -28 0 30 78 57 78 126 212 137 267 5 30 5 29
-12 -5 -9 -19 -28 -60 -42 -90 -49 -106 -170 -274 -186 -258 -4 3 18 40 48 81
60 81 117 186 117 214 0 10 -21 -20 -46 -67 -25 -47 -68 -115 -96 -152 -49
-64 -52 -66 -94 -66 -36 0 -42 2 -37 16 5 14 3 14 -15 -2 -12 -11 -24 -17 -26
-15 -2 2 18 40 45 84 71 117 94 162 139 274 43 110 44 111 32 111 -4 0 -18
-30 -31 -68 -42 -118 -130 -281 -200 -369 -24 -30 -31 -33 -83 -33 -32 0 -58
3 -58 8 0 12 44 36 62 34 9 -2 23 7 32 19 22 32 11 37 -19 9 -14 -13 -25 -18
-25 -12 0 6 6 15 13 19 19 12 91 111 115 159 27 53 92 252 92 278 -1 12 -19
-32 -40 -98 -44 -129 -75 -194 -131 -271 -47 -63 -133 -148 -123 -120 7 19 6
18 -18 -3 -15 -13 -37 -22 -59 -22 -19 0 -52 -5 -74 -10 -52 -12 -56 -6 -10
16 46 22 168 142 219 217 22 31 37 59 35 62 -3 2 -33 -32 -67 -75 -83 -105
-233 -233 -267 -228 -23 3 -20 7 36 53 33 28 68 52 77 53 42 9 174 169 212
258 33 75 50 127 49 149 0 11 -11 -10 -23 -46 -26 -76 -62 -141 -123 -221 -54
-71 -81 -90 -32 -23 39 53 73 115 64 115 -3 0 -13 -13 -23 -28 -9 -16 -29 -44
-44 -63 -15 -19 -34 -43 -42 -54 -21 -29 18 82 50 142 14 26 18 39 9 28 -16
-19 -17 -19 -10 15 13 68 26 109 35 115 12 7 32 51 61 130 40 113 42 126 29
188 -11 53 -13 57 -26 40 -12 -17 -13 -16 -14 7 0 15 -5 31 -10 36 -7 7 -8 38
-3 85 l7 74 13 -50 c7 -27 13 -66 13 -85 0 -25 3 -31 9 -20 26 41 -79 394
-111 374 -5 -4 -4 -13 4 -22 21 -26 40 -64 35 -68 -5 -6 -57 61 -57 74 0 4
-22 29 -50 55 -28 26 -50 51 -50 56 0 11 56 -15 65 -30 4 -5 19 -9 36 -9 21 0
40 -11 69 -40 33 -33 39 -45 34 -68 -4 -21 -3 -24 5 -12 6 8 11 22 11 31 0 26
-24 64 -40 64 -8 0 -23 17 -33 38 -11 25 -34 47 -64 65 -56 33 -112 82 -94 82
23 0 6 22 -34 44 -51 27 -105 67 -105 78 0 5 10 6 23 3 12 -2 45 -7 74 -9 66
-7 142 -49 216 -121 31 -30 59 -55 62 -55 30 0 -125 142 -190 174 -33 17 -77
41 -98 54 -46 28 -59 23 -24 -10 l25 -23 -39 3 c-23 3 -39 9 -39 17 0 16 -22
25 -63 25 -18 0 -39 5 -47 10 -10 7 12 10 75 10 50 -1 112 -1 140 -1 48 1 52
-2 110 -58 33 -33 96 -90 140 -127 44 -38 97 -86 117 -106 41 -42 48 -45 48
-23 0 8 -5 14 -11 12 -6 -1 -14 4 -17 12 -3 10 0 11 9 5 11 -6 10 -3 -1 11
-29 38 -86 87 -160 140 -70 50 -142 115 -127 115 7 0 170 -93 205 -117 12 -9
22 -11 22 -5 0 6 -42 36 -92 68 -145 89 -140 84 -85 84 43 0 47 -2 47 -24 0
-14 10 -30 25 -40 19 -13 25 -13 25 -3 0 7 -5 18 -11 24 -15 15 -3 33 22 33
65 0 305 -237 373 -367 9 -18 19 -33 21 -33 13 0 0 26 -54 107 -59 88 -257
293 -283 293 -9 0 -9 3 2 10 8 5 31 6 50 2 19 -4 61 -6 94 -4z m-836 -28 c7
-12 23 -20 39 -20 14 0 49 -7 77 -15 28 -8 62 -17 76 -20 14 -3 41 -19 60 -36
19 -18 30 -29 24 -26 -6 4 -65 20 -130 37 -65 17 -157 43 -204 58 l-85 27 55
6 c30 3 60 6 65 7 6 1 16 -7 23 -18z m65 13 c-7 -2 -19 -2 -25 0 -7 3 -2 5 12
5 14 0 19 -2 13 -5z m-253 -18 c0 -9 9 -15 23 -15 12 0 65 -14 117 -31 52 -16
133 -39 180 -49 127 -29 132 -31 126 -47 -4 -9 7 -22 29 -34 42 -25 47 -46 5
-24 -34 18 -50 19 -50 5 0 -6 12 -15 26 -21 15 -5 24 -12 21 -15 -6 -6 -67 26
-116 61 -19 14 -48 25 -66 25 -18 0 -43 8 -56 19 -13 10 -35 19 -49 19 -14 0
-43 4 -65 10 -90 24 -155 24 -155 0 0 -6 9 -8 21 -5 12 3 19 1 16 -6 -2 -6 6
-19 17 -28 12 -10 18 -21 14 -25 -5 -4 -16 0 -27 10 -15 14 -19 14 -24 3 -4
-11 8 -17 48 -25 68 -14 125 -38 125 -53 0 -6 7 -9 15 -5 16 6 75 -12 75 -23
0 -18 -15 -20 -32 -4 -10 9 -21 13 -24 10 -4 -4 4 -15 17 -26 27 -23 39 -26
39 -11 0 34 45 -6 134 -118 34 -43 8 -35 -36 11 -24 25 -79 66 -123 90 -44 24
-97 54 -118 66 -21 11 -53 21 -72 21 -30 0 -35 4 -35 23 -1 18 -3 16 -15 -12
-8 -18 -15 -41 -15 -51 0 -10 -7 -23 -15 -30 -13 -11 -15 -5 -14 51 1 35 5 69
9 74 5 6 4 30 -1 55 -5 25 -12 62 -16 83 l-6 37 37 0 c25 0 36 -4 36 -15z
m337 -11 c-3 -3 -12 -4 -19 -1 -8 3 -5 6 6 6 11 1 17 -2 13 -5z m-200 -113
c39 -10 87 -28 107 -40 53 -33 44 -38 -10 -6 -37 22 -54 26 -85 21 -31 -5 -50
-1 -87 19 -40 21 -43 25 -21 25 14 0 57 -8 96 -19z m220 -84 c8 22 91 -44 98
-78 10 -43 -1 -47 -24 -8 -17 28 -31 37 -78 49 -38 10 -59 21 -61 32 -3 15 1
15 29 5 25 -9 33 -9 36 0z m263 -40 c67 -34 107 -63 98 -72 -3 -3 -29 5 -57
19 -28 14 -57 26 -66 26 -8 0 -15 6 -15 14 0 8 -7 16 -15 20 -8 3 -15 10 -15
17 0 12 -3 13 70 -24z m-540 -8 c0 -14 -26 -11 -39 5 -9 11 -6 12 14 8 14 -2
25 -8 25 -13z m360 -106 c27 -40 44 -73 37 -73 -6 0 -22 18 -35 41 -13 22 -39
58 -58 79 -39 43 -43 56 -14 38 12 -7 43 -46 70 -85z m148 24 c39 -40 72 -78
72 -85 0 -15 -2 -15 -36 3 -36 19 -54 19 -54 1 0 -8 11 -17 25 -20 28 -7 51
-37 60 -81 l7 -30 -17 23 c-9 13 -23 21 -30 18 -8 -3 -16 5 -19 19 -3 13 -29
54 -56 90 -59 78 -72 100 -62 109 3 4 0 11 -8 16 -11 7 -7 10 15 10 24 0 44
-15 103 -73z m-166 -60 c19 -37 -13 -5 -66 66 l-48 62 51 -53 c28 -30 56 -63
63 -75z m-122 24 c14 -12 -14 -2 -65 25 -49 25 -92 50 -94 56 -4 13 128 -55
159 -81z m-328 57 c-7 -7 -12 -8 -12 -2 0 14 12 26 19 19 2 -3 -1 -11 -7 -17z
m96 -6 c-10 -2 -18 -7 -18 -11 0 -4 -14 -8 -31 -9 -19 0 -29 4 -26 11 2 7 15
12 30 12 14 0 29 3 33 7 4 4 12 4 18 0 7 -4 5 -8 -6 -10z m46 -13 c-5 -8 1
-10 18 -6 19 5 36 -1 68 -24 50 -37 47 -48 -7 -21 -21 11 -56 24 -78 28 -35 6
-37 8 -20 20 23 17 28 18 19 3z m456 -147 c0 -15 -33 23 -69 78 -18 28 -14 25
23 -15 25 -27 46 -56 46 -63z m-195 10 c-6 -7 -34 29 -34 43 0 6 9 -1 20 -14
11 -13 17 -26 14 -29z m-425 23 c10 -12 10 -15 -4 -15 -9 0 -16 7 -16 15 0 8
2 15 4 15 2 0 9 -7 16 -15z m256 0 c4 -8 15 -15 26 -15 27 0 105 -77 123 -122
20 -50 13 -48 -18 5 -33 54 -79 98 -119 112 -17 5 -33 16 -36 23 -5 17 17 15
24 -3z m524 -60 c0 -9 -4 -13 -10 -10 -5 3 -10 -1 -10 -10 0 -20 32 -33 38
-15 3 7 10 1 17 -16 10 -23 9 -48 -1 -119 -7 -50 -16 -116 -19 -148 -12 -110
-14 -52 -3 81 10 120 10 135 -6 150 -15 15 -16 13 -10 -33 10 -72 -4 -50 -26
42 -10 44 -25 92 -31 107 -11 22 -10 29 1 36 15 9 60 -38 60 -65z m-224 -46
c19 -31 34 -68 34 -81 0 -13 5 -29 11 -35 17 -17 23 -165 10 -235 -16 -86 -51
-198 -63 -198 -5 0 -7 8 -4 18 20 68 28 114 32 171 4 77 11 143 19 188 6 31
-20 103 -37 103 -4 0 -8 9 -8 20 0 11 -4 20 -10 20 -5 0 -10 -9 -10 -20 0 -11
-4 -20 -10 -20 -5 0 -10 7 -10 15 0 8 -3 15 -8 15 -4 0 -13 9 -20 21 -12 19
-11 19 8 9 25 -13 50 -7 50 13 0 7 -16 28 -35 47 -26 25 -35 30 -35 17 0 -9 4
-17 9 -17 5 0 12 -8 15 -17 6 -15 5 -15 -13 1 -11 10 -24 15 -30 12 -5 -4 -12
-2 -16 4 -3 5 1 10 9 10 11 0 16 9 16 27 l0 27 31 -30 c17 -16 46 -54 65 -85z
m-3 74 c2 -5 7 -21 11 -38 l6 -30 -16 30 c-9 17 -22 33 -28 37 -7 5 -5 8 6 8
9 0 19 -3 21 -7z m-292 -34 c43 -30 35 -43 -11 -17 -39 23 -51 38 -29 38 6 0
24 -9 40 -21z m356 -78 c-3 -14 -9 2 -33 87 -2 9 5 -3 16 -27 11 -25 19 -52
17 -60z m-183 34 c21 -42 29 -85 16 -85 -5 0 -12 14 -15 32 -4 17 -16 47 -27
66 -12 22 -14 33 -6 30 7 -2 22 -21 32 -43z m260 1 c24 -52 21 -287 -4 -247
-3 6 -19 -30 -34 -80 -15 -50 -29 -90 -31 -88 -2 3 3 36 12 74 16 77 12 310
-7 346 -8 13 -7 19 1 19 6 0 16 -13 22 -30 6 -16 15 -30 20 -30 7 0 4 19 -10
58 -11 28 16 9 31 -22z m-664 14 c0 -5 -7 -10 -15 -10 -8 0 -15 -5 -15 -11 0
-7 14 -8 40 -4 61 10 134 -18 190 -74 64 -64 84 -119 78 -220 -6 -111 -38
-171 -120 -232 -83 -61 -96 -67 -154 -74 l-50 -7 0 313 c1 201 4 317 11 321
15 11 35 10 35 -2z m473 -110 c3 -11 2 -22 -3 -25 -4 -3 -10 8 -12 25 -5 32 6
32 15 0z m70 -30 c3 -11 1 -20 -4 -20 -5 0 -9 9 -9 20 0 11 2 20 4 20 2 0 6
-9 9 -20z m-153 -21 c0 -5 -4 -9 -10 -9 -5 0 -10 7 -10 16 0 8 5 12 10 9 6 -3
10 -10 10 -16z m64 -4 c3 -8 1 -15 -4 -15 -6 0 -10 7 -10 15 0 8 2 15 4 15 2
0 6 -7 10 -15z m246 -111 c-17 -80 -20 -63 -6 36 7 55 12 73 14 52 2 -18 -2
-58 -8 -88z m-285 86 c-9 -15 4 -50 20 -50 7 0 16 8 18 18 3 9 5 2 6 -15 0
-18 -2 -33 -7 -33 -4 0 -12 -10 -17 -22 -15 -34 -30 -19 -29 29 1 27 -3 44
-12 47 -17 7 -7 36 13 36 8 0 11 -5 8 -10z m106 -46 c7 -56 -12 -152 -32 -165
-7 -4 -14 -7 -16 -6 -1 2 7 31 18 66 19 63 18 124 -2 137 -15 9 -10 22 9 20
12 -2 19 -16 23 -52z m204 -100 c-3 -30 -11 -54 -16 -54 -5 0 -9 -9 -9 -19 0
-25 -50 -141 -61 -141 -12 0 2 73 17 90 15 18 64 159 65 192 1 19 2 20 6 4 3
-10 2 -43 -2 -72z m75 48 c0 -50 -23 -192 -31 -192 -8 0 -7 31 6 157 7 68 25
93 25 35z m-422 -24 c-9 -44 -69 -161 -77 -153 -2 3 1 17 8 33 7 15 19 41 26
57 48 117 59 132 43 63z m443 -59 c-7 -44 -9 -47 -10 -19 -1 36 9 84 15 77 3
-2 0 -28 -5 -58z m-401 37 c0 -3 -4 -8 -10 -11 -5 -3 -10 -1 -10 4 0 6 5 11
10 11 6 0 10 -2 10 -4z m219 -66 c-5 -25 -15 -67 -21 -95 -6 -27 -13 -54 -17
-60 -3 -5 -6 -21 -6 -33 -1 -22 0 -22 12 -6 12 17 13 17 13 0 0 -11 4 -14 12
-10 7 4 -1 -15 -16 -42 -40 -70 -87 -144 -92 -144 -7 0 10 36 32 65 12 17 27
40 33 53 10 19 9 22 -9 22 -13 0 -20 -7 -20 -19 0 -21 -143 -216 -165 -225
-14 -5 40 78 81 124 12 14 25 36 29 50 4 14 17 38 29 55 30 43 46 75 37 75 -5
0 9 54 32 120 41 124 53 148 36 70z m-229 10 c0 -10 -11 -27 -24 -37 -13 -10
-26 -28 -30 -38 -9 -26 -66 -93 -66 -77 0 7 15 33 33 59 18 27 42 65 52 85 19
38 35 41 35 8z m26 -26 c-4 -9 -9 -15 -11 -12 -3 3 -3 13 1 22 4 9 9 15 11 12
3 -3 3 -13 -1 -22z m371 -36 c-3 -8 -6 -5 -6 6 -1 11 2 17 5 13 3 -3 4 -12 1
-19z m-387 -19 c-7 -11 -14 -19 -16 -16 -7 7 7 37 17 37 6 0 5 -9 -1 -21z
m344 -58 c-3 -14 -8 -32 -10 -40 -4 -11 -2 -12 11 -1 13 11 14 10 9 -4 -3 -9
-10 -16 -15 -16 -5 0 -9 -4 -9 -9 0 -5 -19 -37 -42 -71 -54 -77 -61 -56 -14
36 19 38 37 86 41 106 5 26 11 35 21 31 9 -3 12 -14 8 -32z m-490 4 c-8 -13
-13 -28 -10 -34 8 -13 -25 -48 -54 -56 l-25 -7 23 21 c12 12 22 26 22 31 0 9
49 70 56 70 3 0 -3 -11 -12 -25z m160 -54 c-35 -67 -64 -98 -45 -47 13 32 72
128 77 123 3 -2 -12 -36 -32 -76z m118 17 c-8 -8 -9 -4 -5 13 4 13 8 18 11 10
2 -7 -1 -18 -6 -23z m-57 -47 c-21 -43 -29 -39 -8 4 9 19 18 33 21 31 2 -2 -4
-18 -13 -35z m155 -46 c-42 -93 -104 -176 -165 -218 -29 -19 -29 -19 6 19 46
50 109 129 109 137 0 8 70 127 75 127 2 0 -9 -29 -25 -65z m-480 10 c-7 -9
-15 -13 -17 -11 -7 7 7 26 19 26 6 0 6 -6 -2 -15z m-124 -20 c-11 -8 -31 -15
-44 -15 -14 0 -31 -8 -38 -17 -12 -16 -13 -16 -14 9 0 24 4 27 43 31 23 2 49
4 57 5 11 1 10 -3 -4 -13z m274 -2 c-1 -13 -40 -56 -46 -50 -3 3 5 17 17 31
24 27 29 31 29 19z m-113 -20 c-9 -9 -20 -13 -24 -9 -4 4 -1 11 7 16 25 16 35
11 17 -7z m-87 -13 c-8 -5 -19 -10 -25 -10 -5 0 -3 5 5 10 8 5 20 10 25 10 6
0 3 -5 -5 -10z m92 -17 c-11 -16 -35 -36 -54 -46 -29 -16 -27 -13 16 27 57 53
65 57 38 19z m39 4 c-10 -9 -11 -8 -5 6 3 10 9 15 12 12 3 -3 0 -11 -7 -18z
m456 -18 c-6 -19 -14 -36 -17 -39 -3 -3 -21 -30 -40 -60 -37 -59 -105 -135
-137 -153 -11 -7 -32 -20 -47 -31 -15 -10 -28 -17 -30 -15 -2 2 36 51 86 109
49 58 96 118 104 133 8 15 19 25 24 22 5 -3 21 13 36 35 32 47 39 47 21 -1z
m-227 17 c0 -29 -190 -232 -201 -215 -4 7 -12 1 -20 -16 -8 -15 -25 -35 -39
-43 -18 -12 -22 -12 -12 -2 16 19 15 30 -3 30 -29 0 -15 18 30 39 25 12 49 21
54 21 6 0 13 5 17 11 4 8 -1 9 -17 5 -24 -7 -24 -7 3 18 16 15 35 22 46 19 19
-5 85 61 120 119 18 32 22 34 22 14z m-326 -10 c-21 -15 -30 -14 -19 3 3 6 14
11 23 11 13 0 13 -2 -4 -14z m186 -2 c0 -2 -8 -12 -18 -22 -19 -19 -62 -35
-62 -24 0 15 54 60 66 55 8 -3 14 -7 14 -9z m-372 -16 c-2 -6 -10 -14 -16 -16
-7 -2 -10 2 -6 12 7 18 28 22 22 4z m152 2 c0 -13 -121 -92 -129 -84 -3 4 -1
8 4 10 6 2 35 22 65 44 62 44 60 43 60 30z m120 -30 c-12 -22 -216 -124 -267
-134 -29 -5 -33 -3 -33 15 0 18 4 20 29 14 20 -4 41 0 67 14 21 12 42 21 46
21 19 0 116 51 132 69 24 27 40 27 26 1z m-248 -22 c-13 -13 -52 -19 -52 -7 0
9 19 17 45 18 15 1 16 -2 7 -11z m258 -12 c0 -6 -188 -146 -205 -152 -31 -12
-13 6 53 52 37 26 69 50 72 54 22 26 80 59 80 46z m-270 -26 c0 -5 -5 -10 -11
-10 -5 0 -7 5 -4 10 3 6 8 10 11 10 2 0 4 -4 4 -10z m218 -67 c-13 -16 -77
-47 -84 -41 -2 2 15 18 38 36 41 31 71 34 46 5z m-132 -2 c-3 -5 -31 -23 -61
-40 -30 -17 -55 -36 -55 -41 0 -13 17 -13 25 0 3 5 12 7 21 3 13 -5 12 -8 -3
-25 -10 -11 -26 -24 -35 -29 -16 -9 -18 -4 -18 43 l0 53 58 21 c68 25 75 27
68 15z m424 -6 c-7 -9 -15 -13 -19 -10 -3 3 1 10 9 15 21 14 24 12 10 -5z
m135 -44 c-19 -38 -47 -68 -106 -115 -82 -65 -113 -77 -173 -66 -26 5 -22 9
65 63 83 51 90 54 64 26 -16 -18 -39 -41 -50 -50 -11 -10 -17 -20 -13 -24 4
-4 58 45 120 108 62 63 114 114 116 112 2 -2 -8 -26 -23 -54z m822 27 c-3 -8
-6 -5 -6 6 -1 11 2 17 5 13 3 -3 4 -12 1 -19z m-1105 -48 c-18 -17 -37 -30
-44 -30 -14 0 -8 6 34 36 45 32 49 29 10 -6z m73 -3 c-16 -12 -41 -32 -55 -45
l-25 -23 27 4 c24 4 26 2 17 -15 -10 -19 -66 -58 -83 -58 -5 0 -1 9 9 20 32
36 9 31 -26 -5 -33 -34 -89 -49 -89 -25 0 11 7 15 50 24 14 3 50 31 80 61 58
59 110 98 120 89 3 -3 -8 -15 -25 -27z m-306 10 c-14 -13 -69 -34 -69 -28 0 9
39 29 59 30 8 1 12 -1 10 -2z m31 -29 c-1 -23 -25 -42 -98 -80 l-72 -37 0 25
c0 14 4 23 9 20 5 -3 40 14 78 39 73 48 83 52 83 33z m40 3 c0 -13 -31 -43
-38 -37 -3 3 3 15 13 26 20 22 25 24 25 11z m25 -56 c-49 -41 -113 -77 -131
-73 -10 2 17 22 67 50 98 54 104 57 64 23z m29 -20 c-10 -8 -23 -15 -28 -15
-6 0 -1 7 10 15 10 8 23 15 28 15 6 0 1 -7 -10 -15z m-164 -15 c0 -5 -5 -10
-11 -10 -5 0 -7 5 -4 10 3 6 8 10 11 10 2 0 4 -4 4 -10z m-80 -50 c0 -5 -5
-10 -11 -10 -5 0 -7 5 -4 10 3 6 8 10 11 10 2 0 4 -4 4 -10z m1058 -30 c-10
-6 -25 -7 -40 -1 -20 9 -18 10 17 10 31 0 36 -2 23 -9z"/>
<path d="M1450 1779 c7 -11 14 -19 16 -16 7 7 -7 37 -17 37 -6 0 -5 -9 1 -21z"/>
<path d="M1345 1730 c10 -11 20 -20 22 -20 2 0 -1 9 -7 20 -6 11 -16 20 -22
20 -6 0 -3 -9 7 -20z"/>
<path d="M1484 1723 c16 -33 36 -52 36 -34 0 5 -11 23 -26 38 l-25 28 15 -32z"/>
<path d="M1300 1722 c0 -5 7 -13 16 -16 10 -4 14 -1 12 6 -5 15 -28 23 -28 10z"/>
<path d="M780 1696 c0 -12 44 -62 108 -125 93 -90 115 -119 153 -193 24 -49
47 -88 52 -88 4 0 -11 36 -33 80 -22 45 -38 85 -35 90 3 4 2 10 -3 12 -4 1
-29 30 -56 63 -26 33 -62 68 -79 77 -18 10 -49 37 -69 60 -29 33 -37 39 -38
24z"/>
<path d="M1546 1625 c3 -27 10 -57 15 -65 14 -25 9 41 -7 80 l-14 35 6 -50z"/>
<path d="M1176 1599 c12 -13 20 -16 22 -9 3 7 -2 16 -9 21 -25 16 -32 9 -13
-12z"/>
<path d="M1361 1610 c-1 -19 23 -87 34 -97 4 -5 5 5 1 21 -10 41 -34 94 -35
76z"/>
<path d="M1440 1599 c7 -11 14 -19 16 -16 7 7 -7 37 -17 37 -6 0 -5 -9 1 -21z"/>
<path d="M1470 1554 c0 -5 13 -41 30 -79 31 -73 42 -67 13 7 -18 47 -43 89
-43 72z"/>
<path d="M1160 1496 c0 -2 8 -10 18 -17 15 -13 16 -12 3 4 -13 16 -21 21 -21
13z"/>
<path d="M1044 1457 c2 -13 14 -39 26 -58 23 -37 21 -17 -6 48 -16 38 -26 43
-20 10z"/>
<path d="M1090 1466 c0 -14 39 -67 40 -53 0 11 -29 67 -35 67 -3 0 -5 -6 -5
-14z"/>
<path d="M1280 1431 c0 -17 12 -41 20 -41 10 0 1 38 -11 46 -5 3 -9 1 -9 -5z"/>
<path d="M1420 1428 c0 -9 5 -20 10 -23 13 -8 13 5 0 25 -8 13 -10 13 -10 -2z"/>
<path d="M1180 1383 c0 -28 43 -101 61 -106 10 -3 23 -23 30 -46 6 -22 16 -38
20 -35 5 2 -2 33 -14 67 -17 48 -27 63 -45 65 -14 2 -22 10 -22 22 0 25 -10
50 -21 50 -5 0 -9 -8 -9 -17z"/>
<path d="M1412 1370 c0 -14 2 -19 5 -12 2 6 2 18 0 25 -3 6 -5 1 -5 -13z"/>
<path d="M1149 1362 c6 -12 16 -24 22 -28 8 -4 8 -1 0 14 -6 12 -16 24 -22 28
-8 4 -8 1 0 -14z"/>
<path d="M1154 1303 c41 -63 58 -153 54 -280 -2 -61 0 -106 4 -98 17 29 16
214 -2 279 -17 65 -54 136 -71 136 -5 0 2 -17 15 -37z"/>
<path d="M1425 1279 c5 -30 11 -110 14 -179 7 -125 7 -125 15 -58 9 73 -10
274 -27 285 -7 4 -7 -13 -2 -48z"/>
<path d="M1470 1298 c0 -9 5 -20 10 -23 13 -8 13 5 0 25 -8 13 -10 13 -10 -2z"/>
<path d="M1124 1255 c3 -16 12 -61 20 -100 9 -38 16 -105 16 -148 0 -50 4 -76
10 -72 24 15 -3 244 -39 325 -11 24 -11 24 -7 -5z"/>
<path d="M1365 1263 c4 -10 15 -37 23 -60 8 -24 18 -43 23 -43 5 0 9 2 9 5 0
12 -50 115 -56 115 -3 0 -3 -8 1 -17z"/>
<path d="M1044 1075 c0 -71 3 -119 7 -105 4 14 7 61 7 105 0 44 -3 91 -7 105
-4 14 -7 -33 -7 -105z"/>
<path d="M1083 1146 c4 -10 7 -22 7 -27 0 -5 4 -9 9 -9 12 0 2 38 -12 47 -7 4
-8 0 -4 -11z"/>
<path d="M1100 1083 c0 -13 5 -23 10 -23 13 0 13 11 0 30 -8 12 -10 11 -10 -7z"/>
<path d="M1304 937 c-1 -126 -5 -155 -33 -261 -18 -66 -30 -126 -29 -135 4
-16 27 59 54 174 25 108 36 365 15 365 -3 0 -7 -64 -7 -143z"/>
<path d="M1107 1036 c-3 -8 -2 -18 2 -20 10 -7 -28 -216 -55 -306 -7 -22 -5
-23 8 -12 16 13 38 84 38 124 0 13 9 31 20 41 13 11 20 28 19 49 l-1 33 -8
-33 c-4 -18 -11 -36 -15 -40 -9 -10 5 71 15 82 9 9 2 76 -10 89 -4 5 -10 1
-13 -7z"/>
<path d="M1470 1010 c-11 -7 -11 -10 -2 -10 29 0 6 -235 -36 -368 -9 -28 -9
-32 3 -22 29 24 70 282 58 362 -7 39 -11 46 -23 38z"/>
<path d="M1436 894 c-4 -14 -5 -28 -3 -31 3 -2 8 8 11 23 4 14 5 28 3 31 -3 2
-8 -8 -11 -23z"/>
<path d="M1197 785 c-12 -58 -44 -148 -88 -244 -21 -46 -36 -87 -33 -92 5 -9
-82 -185 -97 -194 -5 -4 -9 -11 -9 -17 0 -19 50 44 77 97 14 27 57 130 95 229
53 139 68 189 66 220 l-4 41 -7 -40z"/>
<path d="M1366 619 c-15 -56 -62 -189 -73 -211 -7 -16 -9 -28 -4 -28 17 0 101
234 88 247 -4 3 -8 0 -11 -8z"/>
<path d="M982 534 c-13 -20 -22 -40 -20 -45 2 -6 14 8 27 31 29 51 24 61 -7
14z"/>
<path d="M1436 514 c-4 -9 -4 -19 -1 -22 2 -3 7 3 11 12 4 9 4 19 1 22 -2 3
-7 -3 -11 -12z"/>
<path d="M1290 328 c-12 -24 -41 -67 -62 -96 -22 -29 -38 -58 -36 -64 2 -6 20
11 40 38 47 65 102 164 91 164 -5 0 -20 -19 -33 -42z"/>
<path d="M1236 298 c-20 -28 -21 -44 -2 -29 13 11 29 51 21 51 -2 0 -11 -10
-19 -22z"/>
<path d="M1485 200 c-3 -5 -1 -10 4 -10 6 0 11 5 11 10 0 6 -2 10 -4 10 -3 0
-8 -4 -11 -10z"/>
<path d="M760 630 c-8 -5 -12 -12 -9 -15 4 -3 12 1 19 10 14 17 11 19 -10 5z"/>
<path d="M1695 790 c3 -5 11 -10 16 -10 6 0 7 5 4 10 -3 6 -11 10 -16 10 -6 0
-7 -4 -4 -10z"/>
</g>
</svg>
