<?xml version="1.0" standalone="no"?>
<!DOCTYPE svg PUBLIC "-//W3C//DTD SVG 20010904//EN"
 "http://www.w3.org/TR/2001/REC-SVG-20010904/DTD/svg10.dtd">
<svg version="1.0" xmlns="http://www.w3.org/2000/svg"
 width="293.000000pt" height="498.000000pt" viewBox="0 0 293.000000 498.000000"
 preserveAspectRatio="xMidYMid meet">
<metadata>
Created by potrace 1.16, written by Peter Selinger 2001-2019
</metadata>
<g transform="translate(0.000000,498.000000) scale(0.100000,-0.100000)"
fill="#000000" stroke="none">
<path d="M2245 4951 c-23 -9 -154 -24 -205 -24 -19 1 -102 -3 -185 -8 -82 -5
-235 -11 -340 -14 -104 -2 -230 -9 -280 -15 -127 -14 -128 -14 -120 10 4 11 2
20 -4 20 -6 0 -11 -6 -11 -13 0 -11 -38 -15 -167 -21 -93 -4 -219 -10 -281
-14 -100 -6 -112 -5 -112 9 0 24 -27 31 -53 14 -12 -8 -65 -19 -117 -26 -52
-6 -98 -13 -102 -16 -5 -2 -8 5 -8 15 0 14 -9 21 -31 26 -44 8 -129 8 -129 -1
0 -5 -22 -6 -50 -5 -50 4 -50 4 -50 -26 0 -17 6 -32 15 -36 11 -4 15 -19 14
-53 -1 -42 -2 -44 -9 -18 -13 56 -20 3 -16 -125 2 -69 5 -142 5 -163 1 -21 5
-36 10 -32 14 8 22 -27 22 -92 -1 -146 6 -349 12 -363 8 -17 20 -432 21 -742
1 -113 4 -209 7 -212 3 -4 5 -65 3 -136 -1 -72 1 -130 5 -130 4 0 12 5 19 12
9 9 12 8 12 -4 0 -9 -5 -20 -10 -23 -6 -4 -8 -53 -3 -136 5 -102 3 -129 -6
-127 -13 3 -16 -121 -6 -297 17 -310 26 -627 21 -723 -5 -78 -3 -118 4 -127
14 -16 14 -18 6 -320 -8 -306 -8 -288 -7 -435 0 -69 -4 -129 -9 -134 -6 -6
-10 -35 -11 -66 0 -30 -4 -77 -8 -105 -9 -51 1 -91 20 -80 5 4 9 19 9 35 0 16
4 32 10 35 18 11 11 -49 -10 -90 -11 -22 -20 -49 -20 -61 0 -14 8 -25 20 -29
11 -3 20 -10 20 -14 0 -4 43 -7 95 -7 72 1 98 -2 104 -13 8 -12 14 -12 41 -1
22 9 54 11 108 6 134 -12 882 -17 997 -6 61 5 290 12 510 15 220 3 421 8 448
11 38 4 47 2 47 -11 0 -13 20 -15 153 -13 127 3 152 5 152 18 0 8 6 16 13 16
29 3 32 4 32 14 0 6 -8 10 -17 11 -11 0 -13 3 -5 6 7 3 12 25 12 61 0 31 4 52
8 45 4 -6 5 27 3 73 -2 50 1 84 7 84 11 0 9 426 -2 451 -5 13 0 20 21 28 26
10 26 11 3 6 l-26 -4 1 115 c0 79 -4 117 -12 122 -8 5 -13 52 -14 152 -1 80
-5 172 -9 205 -13 98 -21 527 -10 539 5 7 9 124 10 276 2 465 1 525 -9 514 -6
-5 -11 -34 -13 -64 -2 -30 -5 68 -6 218 -2 204 1 277 10 292 9 14 10 23 3 28
-6 4 -10 107 -10 272 0 146 -2 490 -3 765 -3 462 -2 534 13 606 7 31 -21 62
-35 40 -4 -8 -16 -11 -28 -7 -11 4 -115 7 -231 8 -116 1 -208 5 -205 10 6 10
-24 10 -51 -1z m-298 -67 c-3 -3 -12 -4 -19 -1 -8 3 -5 6 6 6 11 1 17 -2 13
-5z m783 -68 c0 -40 -4 -95 -9 -122 -5 -27 -11 -165 -13 -306 -3 -238 -4 -258
-20 -258 -10 0 -18 5 -18 10 0 6 -4 10 -10 10 -5 0 -10 -11 -10 -25 0 -20 -20
-58 -57 -111 -27 -37 -53 -97 -53 -122 0 -20 -8 -35 -24 -45 -13 -9 -26 -29
-29 -46 -4 -20 -32 -56 -81 -105 -57 -56 -76 -83 -82 -111 -6 -33 -3 -40 22
-60 65 -52 66 -55 59 -93 -4 -21 -11 -41 -16 -47 -11 -11 -12 -52 -1 -57 4 -2
20 -18 37 -36 24 -27 27 -35 15 -42 -12 -7 -11 -10 5 -16 26 -9 65 -44 65 -58
0 -6 24 -21 54 -34 43 -19 57 -31 71 -62 10 -22 26 -42 35 -45 47 -15 49 -28
55 -281 3 -131 8 -304 12 -384 4 -80 7 -176 6 -215 0 -79 14 -392 23 -472 5
-46 3 -52 -16 -58 -11 -3 -18 -11 -14 -16 3 -6 12 -8 20 -5 11 4 14 -11 14
-82 0 -48 3 -97 6 -109 5 -18 2 -23 -12 -23 -18 -1 -18 -1 -1 -14 23 -17 22
-24 -5 -28 -16 -2 -22 -10 -23 -31 -1 -25 2 -27 26 -22 l27 6 -5 -98 c-6 -110
-13 -123 -80 -153 -24 -10 -43 -24 -43 -31 0 -8 4 -8 15 1 13 10 15 9 15 -8 0
-19 2 -20 30 -6 31 16 52 38 26 28 -9 -3 -16 -1 -16 5 0 6 9 11 20 11 11 0 20
-3 20 -7 0 -16 19 -126 25 -144 5 -16 1 -19 -29 -19 -24 0 -36 5 -36 14 0 9
-8 12 -27 8 -25 -5 -26 -6 -6 -13 12 -4 24 -17 28 -28 4 -15 15 -21 36 -21 16
0 29 -1 30 -2 1 -4 19 -280 20 -293 0 -5 -5 -68 -11 -140 -13 -161 -12 -140
-4 -206 l6 -56 -33 -14 c-25 -10 -76 -14 -189 -13 -85 0 -162 2 -170 3 -8 2
-82 -2 -165 -8 -101 -8 -151 -8 -153 -1 -2 6 -8 7 -14 4 -20 -13 -726 -21
-956 -11 -116 5 -143 3 -139 -7 8 -19 -112 -27 -318 -21 -202 6 -226 10 -218
33 3 9 13 25 21 34 8 10 12 25 8 34 -8 21 32 305 45 319 6 5 9 4 9 -4 0 -18
97 -9 225 20 89 21 176 21 314 3 24 -4 46 -2 50 3 9 14 71 25 71 13 0 -14 72
-12 165 5 44 7 98 11 120 8 33 -4 317 30 555 66 30 5 64 5 75 0 18 -7 18 -8
-5 -8 -62 -2 -340 -45 -329 -51 6 -5 52 -7 102 -6 50 1 82 0 72 -4 -15 -5 -13
-9 14 -20 24 -10 35 -10 44 -1 8 8 6 11 -11 11 -12 0 -22 5 -22 10 0 6 5 10
11 10 5 0 8 4 5 9 -3 5 16 11 42 14 26 3 112 15 192 26 175 25 190 26 190 6 0
-17 9 -19 29 -6 11 7 10 11 -5 19 -16 9 -16 10 6 9 14 0 54 3 90 8 45 5 62 4
55 -3 -10 -10 -65 -24 -97 -23 -10 0 -20 -4 -23 -8 -5 -9 12 -8 113 8 37 5 74
9 82 9 35 -3 96 60 77 78 -3 3 -27 9 -54 14 l-48 8 60 2 c33 1 66 2 74 1 7 -2
11 4 9 11 -3 8 -17 12 -36 10 -36 -4 -41 4 -14 24 15 11 13 13 -19 11 -19 -1
-48 -10 -62 -20 -16 -11 -27 -13 -27 -6 0 6 -6 9 -12 6 -47 -17 -54 -17 -54 3
0 14 8 22 23 25 13 3 34 7 47 10 18 4 26 13 28 33 2 19 9 27 23 27 11 0 20 5
20 10 0 6 -10 10 -22 9 -12 -1 -20 3 -17 7 3 5 -4 9 -15 9 -11 0 -23 -4 -26
-10 -3 -5 -1 -10 4 -10 6 0 11 -5 11 -12 0 -6 -3 -8 -7 -5 -3 4 -12 2 -20 -5
-19 -15 -29 -2 -13 17 12 15 8 16 -41 10 -30 -3 -64 -8 -76 -11 -13 -2 -23 -1
-23 4 0 4 39 14 88 21 165 24 222 42 175 54 -10 3 -3 5 15 6 25 1 32 5 32 22
0 12 -4 17 -11 14 -13 -9 -88 -13 -87 -6 1 16 -5 18 -44 9 -59 -12 -260 -38
-333 -42 -51 -3 -55 -2 -30 6 17 6 35 15 42 20 6 5 78 13 159 18 81 6 152 14
157 19 15 15 -3 32 -25 25 -33 -10 -68 -14 -166 -18 -52 -3 -96 -7 -100 -10
-3 -3 -21 -6 -39 -6 -31 0 -33 1 -19 16 22 22 20 25 -9 12 -13 -6 -23 -15 -22
-21 1 -5 -4 -12 -12 -15 -8 -3 -11 0 -7 7 10 15 -4 14 -23 -3 -9 -7 -28 -16
-43 -20 -23 -5 -26 -3 -21 10 6 16 -1 17 -72 11 -82 -7 -98 -13 -76 -26 14 -9
51 -3 51 8 0 4 17 5 38 2 35 -4 34 -5 -28 -18 -64 -14 -261 -15 -282 -2 -6 4
-3 14 11 28 11 11 18 27 15 36 -8 19 -34 20 -34 0 0 -8 -6 -15 -12 -16 -7 0
-22 -2 -33 -4 -55 -11 -74 35 -35 85 19 24 28 66 12 56 -13 -8 3 91 17 108 7
8 20 12 29 9 14 -4 14 -3 3 5 -22 15 -7 37 27 40 17 1 41 7 54 12 19 8 14 10
-24 6 -41 -3 -48 -1 -48 14 0 10 -5 20 -12 22 -6 2 -8 10 -4 16 10 16 26 15
26 -2 0 -31 53 -25 94 11 15 13 31 23 36 23 6 0 10 4 10 10 0 5 -7 7 -15 4 -8
-4 -15 -1 -15 5 0 6 -7 11 -15 11 -8 0 -15 -6 -15 -14 0 -15 -45 -27 -67 -19
-8 3 -11 14 -7 27 3 14 -3 32 -15 48 -12 14 -21 31 -21 37 0 23 -34 81 -48 81
-8 0 -12 6 -9 14 4 11 -3 13 -33 9 -53 -7 -110 4 -110 22 0 12 -22 15 -120 15
-107 0 -120 2 -121 18 0 9 -3 28 -5 42 -9 49 -4 74 20 99 62 67 116 121 120
121 3 0 0 -14 -6 -31 -7 -22 -7 -34 0 -41 8 -8 13 -2 18 18 4 16 10 34 14 39
5 6 16 37 25 70 10 33 26 87 37 119 15 45 17 65 9 82 -8 17 -5 38 11 84 11 34
17 64 14 68 -10 10 -133 -58 -168 -92 -73 -71 -135 -162 -147 -213 -7 -29 -14
-53 -16 -53 -2 0 -2 63 0 141 2 115 6 143 20 159 11 12 20 48 26 102 5 46 15
101 23 123 8 22 17 59 21 83 7 44 13 50 33 30 9 -9 12 -7 12 11 0 28 35 89 64
113 15 12 18 20 10 28 -13 13 -68 -45 -90 -94 -7 -17 -14 -26 -14 -21 0 6 -7
1 -15 -9 -14 -19 -15 -18 -15 17 0 26 4 37 15 37 8 0 20 9 27 20 7 11 16 20
20 20 8 0 56 49 84 85 14 19 15 16 11 -37 -2 -32 0 -58 5 -58 4 0 8 5 8 10 0
6 1 13 2 18 1 4 7 30 14 57 7 28 16 61 20 74 7 23 6 23 -45 17 -28 -3 -74 -9
-101 -12 -28 -3 -48 -10 -44 -15 3 -5 -8 -25 -23 -46 -26 -34 -28 -42 -27
-127 l2 -91 -20 55 c-10 30 -22 63 -25 73 -3 9 -9 17 -14 17 -9 0 -11 -7 -13
-40 -2 -27 -19 -26 -27 2 -4 15 -4 28 1 30 4 2 10 13 14 24 5 17 1 24 -23 34
-16 6 -44 23 -62 36 -22 16 -35 20 -40 13 -5 -8 -9 -7 -15 3 -13 23 -75 51
-86 40 -25 -25 42 -220 77 -222 6 0 48 -39 95 -85 84 -84 104 -97 113 -72 3 7
6 4 6 -6 1 -10 6 -15 11 -12 6 3 10 1 10 -5 0 -7 -6 -10 -14 -7 -16 6 -28 -16
-20 -37 3 -8 1 -17 -5 -20 -5 -4 -15 -31 -21 -61 -6 -30 -15 -55 -20 -55 -13
0 -39 76 -33 99 4 15 -1 29 -16 42 -11 11 -21 23 -21 27 0 4 -13 13 -29 20
-21 9 -31 22 -35 47 -4 21 -13 35 -21 35 -8 0 -15 4 -15 8 0 5 -19 19 -41 32
-23 12 -50 31 -60 41 -11 11 -19 15 -19 9 0 -5 -7 -10 -15 -10 -8 0 -15 -7
-15 -15 0 -8 5 -15 10 -15 20 0 9 -19 -12 -22 -32 -4 -28 -28 7 -48 26 -14 31
-24 36 -71 8 -70 33 -131 67 -161 45 -41 156 -169 171 -197 8 -14 14 -46 12
-71 -1 -33 1 -41 8 -30 6 8 11 25 11 37 0 12 3 24 8 26 11 7 5 -265 -8 -363
-15 -112 -22 -126 -31 -61 -7 55 -20 78 -38 67 -6 -4 -5 -20 5 -48 21 -62 19
-78 -13 -79 -16 0 -37 -4 -48 -8 -11 -5 -25 -4 -33 2 -9 7 -18 4 -33 -9 -14
-12 -32 -17 -59 -15 -44 3 -125 -42 -116 -65 3 -7 1 -16 -4 -19 -6 -4 -10 1
-10 9 0 23 -17 20 -31 -5 -10 -20 -8 -90 6 -157 5 -21 3 -32 -4 -32 -19 0 -12
-27 9 -33 11 -3 20 -13 20 -24 0 -10 5 -25 10 -33 9 -13 12 -13 24 3 10 12 16
15 21 7 4 -6 4 -14 1 -17 -3 -3 -2 -11 3 -17 9 -11 30 -102 38 -169 4 -29 2
-37 -11 -37 -13 0 -15 7 -11 38 5 32 1 42 -30 75 -20 21 -41 37 -47 35 -5 -2
7 -21 27 -43 35 -39 36 -40 13 -43 -36 -6 -44 -19 -23 -42 19 -20 18 -21 -3
-27 -12 -3 -22 -9 -22 -14 0 -5 -11 -4 -24 2 -20 9 -24 20 -30 77 -10 112 -8
178 6 164 13 -13 38 -16 38 -4 0 4 -10 12 -22 17 -19 8 -24 19 -26 60 -2 27
-10 57 -18 66 -11 12 -15 50 -17 157 -1 78 -5 142 -10 142 -4 0 -5 26 -2 57 3
41 2 51 -4 33 -7 -20 -9 -15 -10 30 -1 30 -4 93 -8 139 -5 69 -8 81 -18 67
-10 -14 -13 -7 -19 41 -4 32 -9 73 -11 92 -3 23 0 38 11 45 13 10 13 15 -2 44
-15 32 -15 36 1 72 11 24 15 49 11 64 -4 17 -2 26 5 26 11 0 9 30 -7 79 -5 18
-4 22 5 17 9 -6 12 23 10 122 0 72 2 135 6 141 3 6 1 11 -4 11 -7 0 -11 29
-11 75 0 43 -4 75 -10 75 -5 0 -11 -12 -11 -27 -1 -16 -6 3 -10 41 -5 39 -7
75 -5 80 2 6 5 -4 5 -21 1 -18 6 -33 12 -33 6 0 8 8 5 18 -14 50 -16 81 -7 87
6 3 11 11 11 16 0 6 -5 7 -11 3 -9 -5 -11 17 -7 84 4 71 2 94 -8 103 -16 13
-19 55 -4 64 6 4 8 11 5 16 -4 5 -2 9 4 9 6 0 10 31 9 78 0 42 2 97 5 122 3
25 9 82 13 128 4 45 11 85 15 88 5 3 9 10 9 15 0 6 -4 7 -10 4 -5 -3 -10 -1
-10 4 0 6 4 11 8 11 5 0 6 17 3 38 -5 26 0 56 16 102 13 36 27 92 33 125 21
126 38 185 53 190 7 1 21 7 32 11 20 7 19 8 -1 11 -20 4 -21 7 -11 39 6 21 27
48 49 66 l39 30 -23 -38 c-25 -42 -31 -94 -10 -94 6 0 12 9 12 20 0 23 0 23
34 10 14 -5 26 -16 26 -23 0 -8 9 -22 20 -32 11 -10 20 -26 20 -37 0 -10 4
-18 8 -18 10 0 62 -77 62 -91 0 -5 14 -9 30 -9 17 0 30 -4 30 -9 0 -5 13 -14
29 -21 37 -15 108 -5 136 20 11 9 29 23 40 29 18 11 18 12 -7 7 -15 -3 -38 -2
-52 3 -18 7 -28 6 -36 -5 -13 -15 -9 -17 30 -15 l25 1 -25 -14 c-14 -9 -39
-15 -56 -16 -25 0 -30 4 -30 23 1 19 -5 22 -44 25 -42 3 -48 7 -78 50 -17 26
-32 53 -32 59 0 7 -8 16 -17 22 -10 5 -17 21 -18 37 0 23 -5 29 -31 35 -68 13
-69 15 -34 59 42 53 31 66 -29 31 l-48 -29 -1 31 c0 17 4 38 11 45 6 8 12 21
13 29 2 8 12 24 23 34 12 11 21 25 21 32 0 31 49 99 126 174 85 84 123 105
149 83 8 -6 19 -9 24 -5 6 3 100 13 208 21 355 27 522 34 544 23 9 -5 43 -4
75 0 67 10 238 22 212 14 -10 -2 -25 -20 -34 -39 -19 -41 -80 -85 -155 -114
-78 -30 -99 -42 -99 -57 0 -18 7 -16 37 7 14 11 32 20 40 20 51 0 203 100 203
133 0 7 26 24 58 37 51 22 75 25 232 28 96 2 177 6 179 8 2 2 24 4 48 4 l43 0
0 -74z m-1770 6 c0 -13 -23 -32 -40 -32 -8 0 -21 -9 -28 -20 -12 -20 -62 -28
-62 -10 0 6 5 9 12 8 6 -2 14 5 16 16 2 11 0 16 -7 12 -6 -4 -11 -3 -11 3 0 5
8 15 18 20 20 12 102 15 102 3z m-822 -27 c8 -8 -10 -45 -23 -45 -13 0 -25
-29 -25 -62 0 -10 6 -18 14 -18 26 0 39 -26 24 -50 -10 -16 -10 -22 -1 -28 11
-7 -8 -77 -43 -157 -6 -13 -11 46 -14 165 -4 111 -2 190 4 198 8 12 52 9 64
-3z m443 -70 c-17 -38 -27 -72 -24 -75 3 -3 8 1 10 8 3 7 11 19 19 26 8 8 14
21 14 30 0 8 8 30 17 49 l18 34 37 -30 c33 -26 36 -32 27 -55 -6 -15 -15 -30
-21 -33 -6 -4 -12 -25 -14 -46 -1 -21 -5 -48 -9 -61 -6 -17 -4 -21 7 -17 11 5
14 -2 13 -25 -1 -17 2 -33 6 -36 10 -6 0 -34 -12 -34 -4 0 -6 7 -3 15 9 23
-13 18 -30 -7 -9 -12 -19 -19 -23 -15 -3 4 -1 13 5 19 7 7 12 23 12 37 0 15
-4 21 -9 16 -13 -14 -31 -86 -20 -80 12 8 11 2 -4 -27 -7 -14 -17 -23 -23 -21
-6 2 -16 -8 -23 -23 -10 -22 -9 -26 3 -21 10 4 13 1 10 -8 -3 -8 -1 -22 4 -31
9 -15 13 -12 30 27 11 24 24 58 28 74 7 26 8 27 11 8 3 -12 -3 -35 -11 -52
-20 -38 -20 -67 -1 -75 8 -3 15 -17 15 -31 0 -15 -4 -24 -10 -20 -5 3 -10 15
-10 26 0 37 -16 19 -29 -33 -19 -74 -33 -94 -27 -38 3 25 8 55 12 68 3 12 2
22 -4 22 -5 0 -15 -30 -22 -67 -6 -38 -14 -78 -17 -90 -3 -14 -1 -23 6 -23 6
0 11 6 11 13 0 8 7 14 15 14 17 0 19 -46 6 -112 -7 -31 -9 -34 -10 -13 -1 34
-11 58 -22 58 -5 0 -9 -9 -9 -21 0 -15 -5 -19 -15 -15 -11 4 -15 -1 -15 -17
l-1 -22 -18 22 c-15 18 -20 20 -24 9 -9 -23 -57 3 -57 32 0 12 4 22 8 22 8 0
32 57 32 75 0 5 -7 -1 -16 -13 -8 -12 -21 -21 -27 -20 -7 1 -22 -6 -34 -17
l-22 -19 21 -10 c12 -6 24 -18 26 -26 5 -13 3 -13 -11 -1 -10 7 -17 11 -17 8
0 -6 -38 4 -92 25 -15 5 -29 16 -32 24 -4 11 -2 12 14 4 11 -6 21 -6 24 -1 7
10 -3 43 -16 52 -4 3 -3 20 2 39 5 18 8 35 6 38 -3 3 -25 -51 -51 -125 -2 -7
-9 -13 -15 -13 -6 0 -8 24 -5 63 4 47 3 55 -4 34 -5 -16 -15 -35 -22 -43 -6
-8 -8 -14 -4 -14 4 0 2 -7 -6 -16 -10 -12 -14 -13 -20 -2 -10 18 6 165 24 213
7 22 20 56 26 75 7 19 14 58 15 85 1 28 10 66 19 85 10 18 14 42 11 53 -4 11
-2 17 4 13 12 -7 35 20 52 62 15 39 23 40 37 5 l11 -28 1 32 c1 17 -3 34 -8
37 -20 13 1 43 30 44 29 1 38 -11 19 -23 -16 -10 -12 -35 5 -35 9 0 19 8 22
18 9 22 32 46 39 39 7 -7 -45 -90 -62 -100 -16 -9 -19 -37 -4 -37 6 0 14 8 18
18 5 14 7 12 12 -10 l5 -27 25 20 c17 14 21 22 13 26 -21 8 -15 20 12 27 23 6
25 10 19 46 -6 38 -5 40 20 40 14 0 26 -6 27 -12 0 -10 2 -10 6 0 2 6 11 12
19 12 11 0 11 -5 3 -27 -38 -95 -56 -144 -104 -283 -65 -190 -70 -208 -57
-195 6 6 19 39 30 75 29 93 71 210 88 247 7 17 14 34 14 38 0 22 64 155 71
148 5 -5 -4 -39 -20 -78z m162 65 c-4 -16 -9 -18 -24 -9 -23 12 -16 29 11 29
13 0 17 -5 13 -20z m37 0 c0 -20 2 -25 12 -31 6 -4 7 -9 1 -12 -17 -10 -45 17
-37 36 7 18 24 23 24 7z m-562 -20 c-14 -11 -33 -38 -42 -60 -21 -53 -37 -52
-25 1 15 64 26 79 61 79 l31 0 -25 -20z m612 -41 c0 -5 -4 -9 -10 -9 -5 0 -10
7 -10 16 0 8 5 12 10 9 6 -3 10 -10 10 -16z m-80 -19 c16 24 12 5 -10 -45 -30
-71 -26 -87 14 -44 18 20 35 42 38 49 3 9 10 11 24 5 17 -7 17 -8 2 -12 -10
-3 -18 -11 -18 -18 0 -8 -9 -20 -21 -28 -11 -8 -19 -23 -17 -34 1 -10 -1 -18
-5 -18 -5 0 -13 -8 -18 -17 -14 -26 -32 -23 -19 2 8 16 8 24 -4 35 -9 10 -17
11 -21 5 -4 -6 -11 -8 -16 -5 -5 3 2 28 16 55 14 27 25 57 25 67 0 15 2 16 10
3 9 -13 11 -13 20 0z m56 -146 c-1 -8 -7 -19 -12 -22 -5 -4 -15 -18 -21 -32
-9 -20 -12 -21 -12 -7 -1 16 34 77 44 77 2 0 2 -7 1 -16z m-638 -74 c-11 -41
-24 -84 -29 -95 -10 -23 -27 -157 -31 -234 l-2 -55 54 -13 c30 -8 62 -17 70
-20 16 -6 26 -9 48 -11 7 -1 10 -6 7 -12 -3 -5 -27 -8 -53 -5 -26 2 -39 2 -29
-1 19 -6 22 -15 6 -31 -13 -13 -59 -4 -59 12 0 8 -8 16 -17 18 -15 4 -15 6 4
12 28 9 20 25 -13 25 -21 0 -23 -4 -18 -24 3 -13 1 -26 -4 -30 -12 -7 -23 196
-11 209 12 12 12 48 0 41 -13 -8 -20 39 -8 59 7 14 11 15 17 4 6 -9 10 -4 15
17 3 16 10 43 16 59 6 17 14 48 18 70 7 39 29 90 36 83 2 -2 -6 -37 -17 -78z
m552 -101 c-14 -28 -19 -34 -16 -17 9 42 28 84 32 72 3 -6 -5 -31 -16 -55z
m-20 -79 c-6 -11 -16 -20 -22 -20 -6 0 -3 9 7 20 10 11 20 20 22 20 2 0 -1 -9
-7 -20z m-33 -78 c-8 -9 -17 -24 -21 -32 -3 -8 -3 -2 0 15 7 36 26 63 32 46 2
-7 -3 -20 -11 -29z m30 -4 c-3 -7 -5 -2 -5 12 0 14 2 19 5 13 2 -7 2 -19 0
-25z m-77 -20 c0 -2 -7 -21 -15 -43 -12 -35 -14 -36 -15 -13 0 32 9 58 21 58
5 0 9 -1 9 -2z m31 -103 c5 4 9 -1 9 -9 0 -9 -5 -15 -12 -13 -6 1 -15 -9 -19
-23 -7 -20 -8 -19 -4 9 3 18 6 43 6 55 2 20 2 20 6 -2 2 -12 9 -20 14 -17z
m2077 -287 l1 -247 -37 21 c-53 29 -70 47 -74 76 -4 31 -28 42 -28 12 0 -28
27 -80 43 -80 6 0 -5 -16 -25 -35 -21 -19 -40 -46 -44 -60 -3 -14 -10 -28 -15
-31 -15 -9 -10 -24 9 -24 17 1 52 22 52 33 0 3 -7 7 -16 9 -13 2 -12 6 6 23
12 11 32 30 44 43 25 23 56 21 56 -4 0 -8 9 -14 20 -14 11 0 20 -7 20 -15 0
-9 -6 -12 -15 -9 -11 4 -15 -1 -15 -17 0 -14 -17 -41 -42 -67 -37 -38 -39 -42
-13 -26 17 10 35 26 42 34 6 8 15 12 18 8 4 -4 9 -82 12 -174 3 -147 2 -166
-12 -160 -13 4 -14 -1 -9 -34 6 -39 0 -48 -21 -32 -17 12 -45 60 -45 77 0 8
-8 15 -19 15 -10 0 -24 7 -31 15 -7 8 -23 15 -35 15 -25 0 -38 21 -29 45 4 10
0 15 -12 15 -12 0 -28 16 -42 40 -12 22 -26 40 -31 40 -5 0 -16 12 -26 26 -14
22 -15 28 -2 42 38 44 25 135 -21 147 -13 3 -33 14 -44 24 -19 19 -19 19 6 59
13 22 41 50 61 62 42 26 95 94 95 121 0 10 10 25 22 33 15 11 23 28 24 52 3
45 62 144 118 199 l41 40 6 -25 c3 -14 6 -136 7 -272z m-2412 207 c-3 -9 -11
-13 -16 -10 -8 5 -7 11 1 21 14 18 24 11 15 -11z m37 -10 c-7 -21 -13 -19 -13
6 0 11 4 18 10 14 5 -3 7 -12 3 -20z m-97 -13 c-22 -5 -30 3 -21 18 5 8 11 7
22 -2 15 -12 14 -13 -1 -16z m184 -12 c0 -5 -4 -10 -10 -10 -5 0 -10 5 -10 10
0 6 5 10 10 10 6 0 10 -4 10 -10z m147 -22 c-3 -7 -5 -2 -5 12 0 14 2 19 5 13
2 -7 2 -19 0 -25z m-382 3 c2 -4 0 -36 -5 -72 -13 -94 -20 -230 -11 -194 5 17
9 52 10 79 1 67 21 176 31 176 17 0 18 -16 9 -100 -4 -47 -11 -213 -15 -370
-3 -157 -8 -287 -10 -289 -2 -2 -10 -1 -19 2 -12 5 -15 23 -15 86 0 66 -15
386 -24 521 -2 19 -3 61 -4 93 -1 35 -6 57 -14 57 -8 0 -10 -96 -5 -380 3
-223 1 -382 -4 -386 -8 -5 -11 23 -15 176 0 30 -4 175 -8 322 l-8 267 26 7
c14 3 26 10 26 14 0 9 48 1 55 -9z m90 -9 c-3 -3 -11 0 -18 7 -9 10 -8 11 6 5
10 -3 15 -9 12 -12z m55 -2 c0 -5 -4 -10 -9 -10 -6 0 -13 5 -16 10 -3 6 1 10
9 10 9 0 16 -4 16 -10z m64 -15 c3 -9 0 -15 -9 -15 -8 0 -15 7 -15 15 0 8 4
15 9 15 5 0 11 -7 15 -15z m-111 -21 c2 -14 1 -58 -3 -97 -8 -68 -6 -87 5 -76
2 3 9 42 14 88 5 45 12 85 16 89 12 11 -5 -190 -18 -213 -6 -11 -11 -79 -12
-160 -1 -215 11 -234 16 -25 4 133 9 192 19 210 8 14 13 28 12 33 -1 4 2 7 6
7 4 0 6 -81 4 -180 -2 -99 -1 -192 3 -207 l8 -28 7 25 c5 20 8 12 14 -35 4
-35 3 -70 -3 -85 -8 -21 -10 -16 -12 35 -1 33 -4 49 -6 35 -3 -14 -13 -33 -24
-43 -20 -19 -25 -52 -9 -62 6 -3 10 3 10 14 0 12 5 21 10 21 16 0 12 -47 -5
-53 -8 -4 -17 -2 -21 4 -4 7 -10 6 -19 -1 -9 -8 -14 -5 -20 12 -21 62 -23 63
-24 22 -1 -27 -6 -44 -16 -47 -17 -7 -30 9 -15 18 6 4 8 57 5 143 -3 75 -1
189 4 252 8 110 8 106 10 -102 0 -120 4 -218 9 -218 4 0 7 132 7 294 0 162 -3
292 -6 291 -3 -2 -4 6 -3 18 1 12 3 28 3 35 2 23 29 12 34 -14z m142 6 c3 -5
1 -10 -4 -10 -6 0 -11 5 -11 10 0 6 2 10 4 10 3 0 8 -4 11 -10z m35 -10 c0
-11 -4 -20 -9 -20 -5 0 -7 9 -4 20 3 11 7 20 9 20 2 0 4 -9 4 -20z m70 -20 c0
-11 -4 -20 -9 -20 -5 0 -7 9 -4 20 3 11 7 20 9 20 2 0 4 -9 4 -20z m-114 -4
c1 0 0 -24 -3 -53 -4 -38 -9 -50 -19 -46 -9 3 -14 -1 -14 -12 0 -9 5 -13 10
-10 18 11 21 -20 12 -96 l-9 -74 -2 74 c-1 68 -2 73 -16 55 -14 -18 -14 -18
-15 11 0 17 3 60 7 98 5 63 7 67 27 61 12 -4 22 -7 22 -8z m30 -47 c-4 -40
-16 -67 -16 -37 0 23 12 78 17 78 2 0 2 -18 -1 -41z m108 -11 c-2 -18 -1 -25
2 -15 6 19 6 19 28 11 24 -9 19 -27 -14 -46 l-30 -17 -8 32 c-5 18 -5 34 0 35
4 2 8 10 8 18 0 8 4 14 8 14 5 0 7 -15 6 -32z m-117 -80 c-3 -7 -5 -2 -5 12 0
14 2 19 5 13 2 -7 2 -19 0 -25z m77 -44 c-4 -15 -1 -37 7 -51 11 -21 11 -27 2
-30 -7 -3 -13 -11 -13 -19 0 -8 -4 -14 -9 -14 -5 0 -7 28 -4 63 3 34 5 67 6
74 0 7 4 10 9 7 4 -3 5 -17 2 -30z m-84 -137 c-5 -21 -8 0 -8 63 1 91 1 93 8
32 4 -35 4 -78 0 -95z m-50 -37 c4 19 8 10 15 -33 10 -52 9 -57 -6 -52 -11 4
-19 -1 -22 -12 -9 -34 -12 78 -6 197 2 46 4 40 8 -35 4 -49 8 -79 11 -65z
m150 28 c0 -10 -4 -27 -10 -38 -5 -11 -14 -28 -19 -38 -5 -11 -5 -25 1 -36 7
-13 6 -22 -5 -33 -13 -13 -14 -5 -14 69 0 45 2 86 4 90 8 15 43 3 43 -14z
m-77 -23 c-3 -9 -8 -14 -10 -11 -3 3 -2 9 2 15 9 16 15 13 8 -4z m89 -45 c6 0
7 -16 3 -42 -3 -24 -8 -60 -11 -80 -4 -29 -9 -36 -22 -31 -15 6 -15 4 2 -15
10 -11 16 -27 14 -34 -6 -17 -38 49 -38 78 0 13 5 26 11 30 8 4 9 0 4 -15 -4
-12 -2 -21 4 -21 7 0 11 31 12 83 1 45 3 74 6 65 2 -10 9 -18 15 -18z m-115
-2 c-3 -8 -6 -5 -6 6 -1 11 2 17 5 13 3 -3 4 -12 1 -19z m43 2 c0 -5 -2 -10
-4 -10 -3 0 -8 5 -11 10 -3 6 -1 10 4 10 6 0 11 -4 11 -10z m-333 -47 c-3 -10
-5 -2 -5 17 0 19 2 27 5 18 2 -10 2 -26 0 -35z m329 -63 c-4 -36 -3 -60 3 -60
5 0 9 -21 9 -47 l1 -48 -45 -2 -44 -2 0 44 c0 24 4 46 9 50 5 3 9 -8 9 -25 -1
-17 2 -33 5 -37 4 -3 7 24 7 60 0 37 4 67 9 67 5 0 9 -26 10 -57 0 -39 5 -61
17 -72 15 -15 16 -14 10 13 -16 68 -18 88 -12 131 10 67 20 55 12 -15z m-26
24 c0 -8 -4 -14 -10 -14 -5 0 -10 9 -10 21 0 11 5 17 10 14 6 -3 10 -13 10
-21z m-303 -36 c-2 -13 -4 -5 -4 17 -1 22 1 32 4 23 2 -10 2 -28 0 -40z m6
-110 c2 -38 1 -68 -4 -68 -5 0 -9 32 -9 72 0 88 6 86 13 -4z m379 -14 c-3 -15
-8 -22 -14 -16 -9 9 -1 42 12 42 4 0 5 -12 2 -26z m-272 -84 c0 -5 -11 -10
-24 -10 -13 0 -31 -3 -40 -6 -9 -3 -16 -1 -16 4 0 9 17 14 68 21 6 0 12 -3 12
-9z m88 3 c-10 -2 -28 -2 -40 0 -13 2 -5 4 17 4 22 1 32 -1 23 -4z m-207 -34
c-23 -25 -27 -39 -11 -39 6 0 11 -43 11 -107 1 -63 4 -93 8 -73 3 19 10 33 15
30 6 -3 10 29 10 79 1 62 5 85 15 89 11 4 12 -13 6 -97 -5 -72 -4 -101 4 -101
7 0 11 29 11 83 0 70 3 85 20 100 24 20 23 24 21 -93 0 -52 2 -69 9 -55 6 14
9 -2 9 -54 1 -110 14 -77 16 41 1 57 5 113 9 126 6 17 3 27 -10 36 -16 12 -15
14 11 20 19 5 31 3 36 -6 7 -11 9 -10 9 1 0 7 6 11 15 8 8 -4 17 -2 20 3 9 14
85 13 85 -1 0 -6 7 -9 15 -5 11 4 15 -2 15 -25 0 -18 4 -28 10 -24 6 3 10 -1
10 -9 0 -9 -6 -15 -12 -13 -14 2 -23 -37 -13 -61 6 -15 8 -15 21 2 13 18 14
15 16 -35 2 -81 3 -87 11 -95 4 -4 7 -25 7 -47 0 -47 -8 -46 -12 1 -3 37 -23
38 -23 1 0 -26 -26 -34 -30 -9 -2 8 -4 20 -5 25 -1 6 -2 28 -1 50 1 30 4 36
11 25 8 -13 10 -12 10 3 0 9 -4 17 -10 17 -5 0 -10 9 -10 21 0 12 -4 17 -11
14 -6 -4 -9 -21 -8 -39 3 -49 0 -90 -7 -83 -4 4 -7 48 -6 99 0 92 0 92 -9 33
-12 -79 -8 -662 4 -699 7 -21 6 -30 -4 -37 -11 -6 -15 -2 -16 19 -24 312 -34
555 -24 565 15 15 15 60 0 51 -8 -5 -10 4 -7 30 2 20 0 36 -5 36 -10 0 -8
-272 5 -404 12 -134 16 -256 8 -286 -5 -20 -12 -25 -35 -25 -27 0 -30 3 -27
28 2 15 -2 35 -7 45 -6 9 -11 12 -11 5 0 -7 -4 -13 -10 -13 -18 0 -10 45 10
58 18 11 20 10 20 -10 0 -13 5 -30 11 -38 8 -11 9 -5 5 25 -3 22 -6 72 -6 110
0 41 -4 65 -9 57 -4 -7 -6 -35 -3 -63 5 -53 2 -57 -22 -33 -14 14 -15 12 -10
-14 4 -17 1 -32 -5 -36 -16 -10 -13 -65 4 -82 18 -19 20 -47 3 -41 -7 2 -23 0
-35 -4 -12 -5 -24 -5 -27 -1 -2 4 -6 49 -7 100 -2 51 -6 92 -11 92 -4 0 -8 -4
-8 -9 0 -5 -2 -24 -5 -42 -4 -26 -3 -30 4 -14 7 15 10 -1 10 -57 1 -72 -1 -78
-19 -78 -18 0 -20 7 -22 93 l-2 92 -6 -95 c-4 -68 -7 -85 -11 -60 -4 23 -5 15
-4 -22 2 -32 -1 -58 -5 -58 -9 0 -3 360 6 369 2 2 4 -23 4 -57 0 -34 3 -62 8
-62 4 0 6 35 3 77 -2 56 -8 81 -19 89 -14 10 -19 50 -29 221 -6 114 -12 243
-12 285 -1 72 0 77 22 80 31 5 32 2 8 -23z m396 -71 c-3 -7 -5 -2 -5 12 0 14
2 19 5 13 2 -7 2 -19 0 -25z m13 -56 c0 -7 -4 -10 -10 -7 -5 3 -10 16 -10 28
0 18 2 19 10 7 5 -8 10 -21 10 -28z m440 -196 c0 -6 -7 -2 -15 8 -8 11 -15 25
-15 30 0 6 7 2 15 -8 8 -11 15 -25 15 -30z m-538 -84 c-3 -7 -6 -12 -7 -10 -7
7 -13 97 -7 103 8 8 20 -74 14 -93z m645 67 c22 -13 20 -61 -2 -79 -10 -8 -20
2 -43 42 -17 29 -28 56 -26 60 5 8 41 -3 71 -23z m225 -19 c-30 -44 -48 -53
-28 -14 11 20 42 52 53 54 2 0 -10 -18 -25 -40z m-722 -60 c0 -16 -4 -32 -10
-35 -6 -4 -10 10 -10 35 0 25 4 39 10 35 6 -3 10 -19 10 -35z m-110 -19 c0 -9
5 -22 12 -29 16 -16 -2 -15 -24 2 -20 15 -21 56 -1 49 7 -3 13 -13 13 -22z
m47 -3 c-3 -8 -6 -5 -6 6 -1 11 2 17 5 13 3 -3 4 -12 1 -19z m23 -112 c-7 -6
-11 -7 -10 -1 2 6 2 21 1 35 -1 18 -4 21 -10 12 -7 -11 -10 -10 -15 3 -8 22 2
38 20 31 8 -3 15 0 16 7 1 7 3 -8 5 -32 3 -25 -1 -49 -7 -55z m40 58 c0 -8 -4
-12 -10 -9 -5 3 -10 13 -10 21 0 8 5 12 10 9 6 -3 10 -13 10 -21z m-101 -51
c1 -7 -3 -13 -8 -13 -11 0 -21 51 -13 65 6 9 19 -23 21 -52z m61 -43 c0 -5 -5
-10 -11 -10 -5 0 -7 5 -4 10 3 6 8 10 11 10 2 0 4 -4 4 -10z m431 -30 c22 0
44 -8 57 -20 26 -24 28 -35 7 -26 -17 6 -21 -19 -5 -29 6 -3 10 -15 10 -26 0
-28 -19 -14 -36 27 -20 48 -51 45 -45 -5 4 -27 -20 2 -44 55 -31 67 -31 73 -2
46 15 -14 36 -22 58 -22z m-421 -50 c0 -39 -3 -50 -16 -50 -11 0 -14 5 -10 16
3 9 6 31 6 50 0 19 5 34 10 34 6 0 10 -22 10 -50z m414 -90 c-6 -5 -24 21 -24
34 0 6 6 1 14 -10 8 -10 12 -21 10 -24z m106 -22 c0 -5 -4 -8 -10 -8 -5 0 -10
10 -10 23 0 18 2 19 10 7 5 -8 10 -18 10 -22z m-633 -65 c-2 -16 -4 -5 -4 22
0 28 2 40 4 28 2 -13 2 -35 0 -50z m-338 10 c1 -7 -3 -13 -9 -13 -5 0 -10 15
-9 33 0 27 2 29 9 12 5 -11 9 -26 9 -32z m1017 -45 c2 -31 0 -37 -6 -23 -10
23 -13 81 -4 72 4 -3 8 -26 10 -49z m-636 -97 c0 -34 -12 -18 -15 20 -2 22 0
27 6 18 5 -8 9 -25 9 -38z m943 26 c2 -7 3 -30 2 -52 -1 -22 1 -44 5 -50 3 -5
1 -28 -5 -49 -6 -22 -14 -35 -18 -29 -12 19 -17 92 -7 98 6 3 10 13 10 21 0
26 -37 -3 -66 -52 -29 -49 -46 -48 -49 3 -2 29 19 75 33 71 4 -2 19 10 34 25
29 29 53 35 61 14z m-1067 -29 c-1 -32 -51 -39 -53 -8 -2 22 12 27 20 8 3 -8
6 -6 6 5 1 9 7 17 15 17 7 0 13 -10 12 -22z m59 2 c3 -5 1 -10 -4 -10 -6 0
-11 5 -11 10 0 6 2 10 4 10 3 0 8 -4 11 -10z m-165 -14 c0 -18 -31 -30 -40
-16 -9 14 -40 1 -40 -17 0 -8 -4 -12 -9 -8 -5 3 -12 1 -16 -5 -11 -18 -23 -2
-18 24 4 19 13 26 37 29 68 8 86 7 86 -7z m40 4 c0 -5 -4 -10 -10 -10 -5 0
-10 5 -10 10 0 6 5 10 10 10 6 0 10 -4 10 -10z m208 -42 c14 -14 16 -116 3
-136 -5 -9 -10 10 -14 50 -3 35 -8 71 -12 81 -8 20 5 23 23 5z m-147 -18 c-9
-32 4 -697 15 -752 4 -21 2 -28 -10 -28 -13 0 -16 12 -16 58 0 31 -7 143 -14
247 -12 153 -22 450 -17 488 0 5 11 7 24 5 14 -2 20 -9 18 -18z m-97 -67 c0
-43 3 -195 9 -338 6 -184 6 -265 -2 -277 -6 -10 -11 -40 -11 -68 0 -27 -4 -50
-10 -50 -8 0 -13 209 -12 580 0 54 -1 59 -8 30 -5 -24 -8 1 -9 83 -1 115 -1
117 22 117 21 0 22 -4 21 -77z m36 -36 c0 -62 6 -195 14 -297 27 -341 29 -390
17 -390 -6 0 -12 10 -12 23 l-2 22 -4 -22 c-10 -51 -20 -17 -19 65 1 48 -3
228 -8 400 -7 232 -6 312 3 312 7 0 11 -35 11 -113z m-89 -104 c5 -109 12
-287 15 -395 l7 -198 -27 0 -26 0 -1 123 c-1 67 -5 163 -9 212 -6 68 -7 41 -5
-111 1 -111 -1 -207 -5 -214 -11 -17 -19 135 -26 473 l-6 287 34 14 c18 8 35
12 37 10 2 -2 8 -93 12 -201z m349 197 c0 -5 -5 -10 -11 -10 -5 0 -7 5 -4 10
3 6 8 10 11 10 2 0 4 -4 4 -10z m-130 -157 c0 -167 0 -161 11 -303 6 -73 5
-127 -3 -177 -12 -75 -23 -94 -24 -45 -3 170 -18 429 -25 436 -4 5 -4 16 0 25
5 9 11 56 15 105 6 82 11 106 21 106 3 0 5 -66 5 -147z m139 -43 c-1 -55 1
-103 4 -107 4 -3 7 13 7 37 0 79 8 37 20 -110 14 -162 14 -169 7 -225 -3 -22
-5 -44 -6 -50 -1 -5 -8 0 -16 12 -9 14 -16 56 -20 124 -3 69 -1 99 5 89 7 -11
10 -7 10 17 0 25 -4 31 -15 27 -10 -4 -16 0 -17 12 0 11 -2 30 -3 44 -1 14 -6
49 -10 78 -6 44 -5 51 7 47 10 -4 15 0 15 12 -1 47 4 93 8 93 3 0 5 -45 4
-100z m-98 27 c-8 -8 -11 -5 -11 9 0 27 14 41 18 19 2 -9 -1 -22 -7 -28z m733
-9 c-3 -29 -10 -72 -16 -94 -5 -23 -7 -50 -4 -60 3 -11 1 -26 -4 -34 -8 -12
-10 -10 -11 10 0 14 -2 36 -4 50 -1 14 3 34 9 45 7 11 12 40 11 65 -3 48 2 70
16 70 4 0 6 -24 3 -52z m57 -1 c-13 -13 -15 1 -4 30 7 17 8 17 11 -1 2 -10 -1
-23 -7 -29z m-794 -59 c-3 -7 -5 -2 -5 12 0 14 2 19 5 13 2 -7 2 -19 0 -25z
m28 -140 c4 -61 5 -158 3 -216 -2 -77 0 -106 9 -109 10 -4 9 -9 -3 -20 -8 -8
-16 -14 -18 -12 -7 9 -26 283 -26 376 0 83 3 101 14 97 10 -4 16 -36 21 -116z
m22 40 c-3 -8 -6 -5 -6 6 -1 11 2 17 5 13 3 -3 4 -12 1 -19z m13 -83 c0 -19
-4 -37 -10 -40 -6 -4 -10 12 -10 40 0 28 4 44 10 40 6 -3 10 -21 10 -40z m573
-72 c-6 -16 -42 -37 -50 -30 -2 3 5 10 16 17 12 6 19 15 16 21 -4 5 -3 14 1
20 9 15 24 -9 17 -28z m170 24 c3 -7 -1 -21 -9 -32 -13 -17 -14 -17 -14 13 0
32 14 43 23 19z m67 -3 c0 -2 -9 -4 -21 -4 -11 0 -18 4 -14 10 5 8 35 3 35 -6z
m105 -24 c-3 -5 -19 -10 -36 -10 -16 0 -29 5 -29 10 0 6 16 10 36 10 21 0 33
-4 29 -10z m-900 -167 c-8 -28 -8 -28 -16 12 -10 52 -11 140 -1 149 11 12 26
-128 17 -161z m815 143 c0 -2 -7 -7 -16 -10 -8 -3 -12 -2 -9 4 6 10 25 14 25
6z m200 0 c0 -3 -27 -13 -60 -22 -63 -18 -100 -44 -62 -44 12 0 24 -4 27 -10
3 -5 1 -10 -4 -10 -6 0 -11 -9 -11 -19 0 -17 -94 -111 -111 -111 -4 0 -14 -12
-24 -26 l-17 -26 64 7 c34 4 71 9 81 11 9 1 17 -1 17 -6 0 -13 -61 -30 -101
-29 -19 1 -51 -2 -72 -6 -31 -6 -36 -5 -32 7 5 13 0 14 -27 10 -37 -6 -129 -4
-136 3 -3 2 1 11 8 20 10 12 10 15 -4 15 -22 0 -20 10 14 50 34 38 37 50 15
50 -8 0 -15 -6 -15 -13 0 -19 -69 -97 -86 -97 -24 0 -16 16 26 50 22 18 40 39
40 46 0 22 -11 17 -52 -23 -39 -38 -51 -31 -22 13 9 13 13 28 9 32 -4 4 -10 2
-12 -4 -7 -22 -66 -95 -71 -90 -3 3 8 24 23 46 30 44 25 70 -6 31 -13 -16 -19
-19 -19 -8 0 8 5 17 12 19 6 2 8 10 4 16 -4 7 -16 10 -26 7 -12 -4 -19 1 -24
17 -13 50 -15 49 124 42 122 -7 130 -6 130 11 0 18 0 18 13 1 13 -18 18 -18
108 -2 52 9 117 22 144 30 48 14 135 21 135 12z m-253 -22 c-3 -3 -12 -4 -19
-1 -8 3 -5 6 6 6 11 1 17 -2 13 -5z m323 -20 c0 -8 -5 -12 -10 -9 -6 4 -8 11
-5 16 9 14 15 11 15 -7z m-750 1 c0 -9 -25 -50 -35 -57 -15 -11 -27 31 -12 47
11 14 47 21 47 10z m8 -64 c-15 -5 -19 4 -11 24 6 18 7 18 13 -1 4 -10 3 -21
-2 -23z m757 19 c8 -13 -5 -13 -25 0 -13 8 -13 10 2 10 9 0 20 -4 23 -10z m52
-32 c-3 -8 -6 -5 -6 6 -1 11 2 17 5 13 3 -3 4 -12 1 -19z m-259 -66 c-25 -33
-53 -58 -66 -60 -12 -2 -22 0 -22 4 0 9 49 54 59 54 4 0 20 18 37 39 16 22 31
35 33 30 2 -6 -17 -36 -41 -67z m-822 12 c-19 -18 -20 -6 -4 33 11 27 12 27
15 5 3 -12 -3 -29 -11 -38z m241 34 c-3 -8 -6 -5 -6 6 -1 11 2 17 5 13 3 -3 4
-12 1 -19z m807 0 c6 -27 -7 -44 -26 -32 -7 5 -16 9 -20 10 -5 1 -11 2 -15 3
-9 2 38 40 48 41 4 0 9 -10 13 -22z m-835 -40 c1 -5 -3 -8 -9 -8 -5 0 -10 12
-9 28 0 24 1 25 9 7 5 -11 9 -23 9 -27z m681 11 c-6 -11 -18 -23 -26 -26 -22
-8 -17 -23 9 -23 18 0 19 -2 7 -10 -20 -13 -70 -13 -70 1 0 5 5 7 10 4 6 -3
10 -3 10 2 0 19 41 73 55 73 13 0 14 -4 5 -21z m26 -25 c-4 -9 -9 -15 -11 -12
-3 3 -3 13 1 22 4 9 9 15 11 12 3 -3 3 -13 -1 -22z m-621 2 c10 4 12 0 8 -15
-3 -14 -13 -21 -29 -21 -27 0 -28 3 -12 33 6 13 13 17 15 10 3 -7 10 -10 18
-7z m675 11 c0 -2 -10 -12 -22 -23 l-23 -19 19 23 c18 21 26 27 26 19z m-970
-31 c0 -3 -4 -8 -10 -11 -5 -3 -10 -1 -10 4 0 6 5 11 10 11 6 0 10 -2 10 -4z
m-198 -28 c-7 -7 -12 -8 -12 -2 0 14 12 26 19 19 2 -3 -1 -11 -7 -17z m1208 4
c0 -5 -11 -14 -25 -20 -14 -6 -25 -8 -25 -4 0 6 9 12 48 31 1 0 2 -3 2 -7z
m-1110 -37 c0 -8 -9 -15 -20 -15 -11 0 -20 7 -20 15 0 8 9 15 20 15 11 0 20
-7 20 -15z m-55 -5 c3 -5 1 -10 -4 -10 -6 0 -11 5 -11 10 0 6 2 10 4 10 3 0 8
-4 11 -10z m185 -5 c0 -8 -2 -15 -4 -15 -2 0 -6 7 -10 15 -3 8 -1 15 4 15 6 0
10 -7 10 -15z m-260 -11 c0 -16 -83 -26 -92 -11 -5 8 3 14 25 18 47 8 67 6 67
-7z m40 6 c0 -5 -7 -10 -16 -10 -8 0 -12 5 -9 10 3 6 10 10 16 10 5 0 9 -4 9
-10z m1193 -5 c4 -8 -5 -23 -20 -35 -33 -26 -56 -26 -24 0 13 12 21 26 17 35
-3 9 0 15 8 15 8 0 16 -7 19 -15z m-723 -4 c0 -6 -4 -13 -10 -16 -5 -3 -10 1
-10 9 0 9 5 16 10 16 6 0 10 -4 10 -9z m141 -7 c10 -12 24 -14 70 -9 32 4 92
4 133 0 74 -7 76 -8 70 -32 -5 -19 -2 -25 15 -30 17 -4 20 -10 15 -27 -4 -11
-11 -27 -16 -33 -16 -19 6 -16 49 7 51 27 77 25 33 -2 -36 -23 -50 -37 -50
-52 0 -5 7 -3 15 4 12 10 15 9 15 -4 0 -9 -11 -21 -25 -26 -14 -5 -25 -15 -25
-22 0 -9 3 -8 10 2 5 8 10 11 10 7 0 -5 6 -5 13 0 22 14 37 12 37 -5 0 -10
-20 -26 -49 -40 -37 -18 -48 -27 -44 -41 3 -13 -9 -27 -43 -50 -26 -17 -44
-31 -40 -31 11 0 69 31 86 45 8 8 20 14 25 14 6 1 10 6 10 12 0 7 9 17 20 23
11 6 31 17 45 26 14 8 27 15 30 15 3 0 19 9 35 21 46 32 55 36 55 25 0 -6 -14
-18 -32 -27 -17 -9 -43 -27 -57 -41 -14 -13 -48 -39 -76 -58 -27 -18 -60 -43
-72 -54 -12 -12 -27 -21 -33 -21 -7 0 -10 -6 -7 -12 3 -12 7 -14 43 -17 11 -1
8 -7 -11 -25 -15 -14 -24 -30 -20 -35 3 -6 0 -11 -7 -11 -10 0 -10 -2 1 -9 7
-5 23 -6 34 -3 12 3 16 7 9 10 -16 5 -5 22 14 22 10 0 13 -6 9 -19 -5 -16 -1
-18 23 -17 16 1 37 8 47 16 17 14 17 13 7 -7 -9 -15 -30 -25 -79 -37 -43 -9
-70 -11 -74 -5 -3 5 -13 7 -22 3 -10 -3 -23 -1 -30 4 -7 6 -19 7 -26 3 -7 -5
-29 -1 -51 10 -47 23 -54 23 -46 4 6 -16 -9 -21 -18 -7 -6 10 26 48 46 54 9 3
8 9 -6 23 -16 17 -20 17 -30 4 -18 -25 -74 -41 -98 -28 -20 11 -20 11 3 35 14
15 31 23 42 20 10 -2 21 2 24 10 3 8 11 14 18 14 7 0 15 11 17 25 7 33 -3 32
-58 -11 -34 -25 -50 -32 -58 -24 -8 8 -2 19 23 40 18 17 39 30 46 30 17 0 38
27 30 39 -7 12 -44 -8 -87 -48 -16 -13 -28 -19 -28 -12 0 15 41 71 53 71 4 0
24 12 43 27 23 17 32 29 25 36 -7 7 -30 -8 -70 -42 -33 -28 -62 -47 -65 -42
-8 12 12 32 59 61 34 21 47 50 23 50 -6 0 -2 9 10 20 27 26 28 37 1 45 -13 5
-18 12 -15 22 4 9 -3 36 -15 60 -19 38 -25 44 -45 39 -19 -5 -24 -2 -24 14 0
17 7 20 49 20 32 0 53 -5 62 -16z m-786 -13 c-8 -13 -35 -15 -35 -2 0 5 8 11
18 13 21 5 26 2 17 -11z m358 -101 c3 -44 1 -93 -3 -108 -7 -22 -9 -17 -10 28
-4 157 -5 165 -17 163 -8 -2 -13 7 -13 20 l1 22 18 -22 c13 -15 20 -45 24
-103z m-403 101 c0 -13 -24 -31 -41 -31 -12 0 -16 6 -12 19 3 12 14 19 29 19
13 0 24 -4 24 -7z m316 -306 c-3 -135 -2 -180 4 -140 5 33 10 127 11 209 3
215 17 244 19 41 1 -93 3 -183 5 -200 2 -16 6 -55 9 -85 l6 -55 -35 -2 -35 -3
1 273 c1 191 4 256 10 217 5 -30 7 -145 5 -255z m-101 80 c-3 -161 5 -238 21
-222 3 3 6 44 6 91 0 48 5 86 10 86 6 0 8 -58 6 -145 -2 -80 0 -145 5 -145 4
0 7 93 7 207 0 113 2 204 4 202 4 -4 10 -285 7 -371 -1 -48 -1 -48 -36 -48
-27 0 -33 -3 -28 -16 5 -13 17 -15 64 -12 40 3 60 0 63 -8 9 -23 -20 -34 -78
-30 -31 2 -56 0 -56 -5 0 -5 -6 -9 -13 -9 -7 0 -19 -16 -26 -35 -7 -19 -18
-35 -25 -35 -14 0 -17 38 -37 475 -6 132 -6 106 -3 -115 3 -157 6 -312 7 -346
2 -56 0 -63 -28 -86 -16 -15 -27 -30 -22 -34 4 -4 14 1 22 12 14 18 15 17 9
-11 -4 -16 -12 -35 -18 -42 -17 -18 -129 -34 -138 -19 -6 8 -11 7 -18 -4 -7
-11 -10 -6 -9 20 0 19 3 29 6 23 2 -7 8 -13 13 -13 16 0 18 28 3 56 -16 31
-20 113 -6 123 4 3 9 140 10 303 1 164 4 302 7 307 3 5 15 7 26 4 20 -5 20
-14 20 -392 1 -270 4 -381 11 -368 6 9 14 15 19 12 5 -3 11 -1 15 5 3 5 -3 10
-14 10 -21 0 -21 2 -18 368 2 300 4 367 16 367 11 0 13 -54 12 -302 -1 -167 2
-303 6 -303 4 0 7 109 7 242 -1 258 5 373 21 373 5 0 12 -11 16 -25 l6 -25 4
24 c3 17 13 27 32 32 l28 8 -3 -320 c-2 -175 0 -319 5 -319 7 0 10 72 11 350
1 91 5 171 9 178 5 8 3 19 -5 29 -10 12 -10 17 -1 20 7 3 10 17 6 40 -4 26 -3
34 6 29 6 -4 14 0 18 10 15 39 21 -25 18 -201z m35 -13 c-8 -13 -10 8 -6 78 9
155 10 160 13 47 2 -65 -1 -114 -7 -125z m201 181 c22 -46 23 -49 6 -35 -14
12 -16 9 -19 -25 -3 -30 -5 -25 -8 25 -5 68 0 76 21 35z m234 -53 c-5 -14 -2
-20 9 -20 9 0 16 4 16 9 0 5 7 11 15 15 22 8 18 -2 -11 -29 -15 -14 -22 -25
-15 -25 6 0 20 9 31 20 11 11 28 20 38 19 14 0 13 -3 -5 -16 -13 -8 -23 -22
-23 -30 0 -13 3 -13 16 -2 13 11 14 9 8 -17 -8 -35 -31 -74 -44 -74 -5 0 -12
10 -16 23 -3 12 -13 30 -21 39 -9 10 -12 25 -8 39 4 12 2 24 -4 29 -7 3 -9 14
-5 23 9 24 27 21 19 -3z m645 5 c-7 -8 -17 -15 -22 -15 -6 0 -5 7 2 15 7 8 17
15 22 15 6 0 5 -7 -2 -15z m42 -57 c-6 -6 -15 -8 -19 -4 -4 4 -1 11 7 16 19
12 27 3 12 -12z m-904 -45 c-3 -15 -4 -15 -20 1 -10 10 -18 21 -18 26 0 5 8
10 18 12 18 4 26 -11 20 -39z m2129 5 c-3 -8 -6 -5 -6 6 -1 11 2 17 5 13 3 -3
4 -12 1 -19z m-1214 -13 c-3 -9 -8 -14 -10 -11 -3 3 -2 9 2 15 9 16 15 13 8
-4z m-926 -37 c-3 -8 -6 -5 -6 6 -1 11 2 17 5 13 3 -3 4 -12 1 -19z m203 -28
c0 -20 -5 -30 -15 -30 -8 0 -15 7 -15 15 0 9 -8 19 -17 22 -15 6 -14 8 7 14
39 11 40 11 40 -21z m840 25 c0 -15 -14 -34 -21 -29 -6 3 -16 0 -24 -6 -11 -9
-15 -9 -15 -1 0 6 -7 11 -15 11 -8 0 -15 -7 -15 -16 0 -13 -3 -14 -15 -4 -19
16 -10 30 20 30 13 0 26 3 28 8 5 7 57 13 57 7z m-1070 -71 c0 -24 4 -44 8
-44 4 0 8 -16 9 -35 1 -24 -3 -35 -13 -35 -10 0 -14 16 -14 63 0 34 -3 73 -7
86 -4 17 -3 22 5 17 7 -4 12 -27 12 -52z m1556 41 c-30 -16 -43 -14 -31 4 3 6
18 11 33 11 l27 0 -29 -15z m-1519 -52 c-3 -10 -5 -4 -5 12 0 17 2 24 5 18 2
-7 2 -21 0 -30z m1976 30 c-7 -2 -19 -2 -25 0 -7 3 -2 5 12 5 14 0 19 -2 13
-5z m-1790 -22 c4 -1 7 -11 7 -22 0 -17 -4 -20 -22 -15 -13 3 -26 6 -30 6 -5
0 -8 8 -8 18 0 13 6 18 23 16 12 -1 25 -3 30 -3z m66 -38 c1 -21 -17 -15 -24
7 -9 27 6 50 16 24 4 -10 8 -25 8 -31z m1451 32 c0 -11 -37 -40 -53 -41 -21
-2 -21 1 1 25 15 17 52 28 52 16z m53 -2 c-7 -2 -19 -2 -25 0 -7 3 -2 5 12 5
14 0 19 -2 13 -5z m-672 -22 c-7 -5 -45 -9 -83 -10 -45 -1 -77 -7 -93 -17 -31
-20 -33 -2 -2 19 16 11 46 16 107 16 52 1 80 -3 71 -8z m516 3 c-5 -6 -12 -7
-122 -19 -32 -4 -70 -11 -83 -16 -13 -5 -31 -9 -40 -8 -10 0 -6 5 11 11 15 5
27 14 27 20 0 6 10 8 23 5 12 -3 31 -2 42 2 23 9 150 13 142 5z m-1547 -24 c0
-5 -2 -10 -4 -10 -3 0 -8 5 -11 10 -3 6 -1 10 4 10 6 0 11 -4 11 -10z m714 -5
c-7 -16 -24 -21 -24 -6 0 8 7 13 27 20 1 1 0 -6 -3 -14z m-839 -17 c3 -7 1
-35 -4 -63 l-8 -50 -4 63 c-4 56 5 82 16 50z m1238 -5 c-7 -2 -19 -2 -25 0 -7
3 -2 5 12 5 14 0 19 -2 13 -5z m307 -3 c12 -8 11 -10 -7 -10 -13 0 -23 5 -23
10 0 13 11 13 30 0z m97 4 c-3 -3 -12 -4 -19 -1 -8 3 -5 6 6 6 11 1 17 -2 13
-5z m279 -3 c-4 -5 -1 -11 6 -13 7 -3 -2 -9 -19 -15 -27 -10 -32 -9 -36 7 -3
13 0 16 13 13 10 -3 21 0 24 6 4 6 9 11 12 11 3 0 3 -4 0 -9z m-1786 -26 c0
-12 15 -15 74 -15 42 0 78 -5 81 -11 10 -16 2 -20 -59 -26 -38 -4 -56 -10 -56
-19 0 -18 101 -19 119 -1 10 10 11 9 6 -5 -4 -9 -16 -19 -28 -22 -37 -10 -187
-7 -187 4 0 19 -55 11 -68 -10 -20 -33 -31 -22 -13 15 19 40 41 52 57 30 10
-13 12 -11 17 14 9 44 57 84 57 46z m1630 7 c0 -5 -18 -14 -40 -21 -22 -6 -40
-16 -40 -21 0 -14 -104 -12 -118 2 -9 9 -15 9 -24 0 -7 -7 -32 -11 -57 -10
-41 1 -42 2 -11 5 19 3 39 8 45 13 12 10 39 13 80 10 l30 -2 -30 -8 -30 -8 37
-1 c20 0 43 5 50 12 26 25 108 47 108 29z m-970 -12 c-20 -13 -33 -13 -25 0 3
6 14 10 23 10 15 0 15 -2 2 -10z m490 0 c0 -5 -4 -10 -9 -10 -6 0 -13 5 -16
10 -3 6 1 10 9 10 9 0 16 -4 16 -10z m-5 -30 c3 -5 -1 -10 -9 -10 -9 0 -16 5
-16 10 0 6 4 10 9 10 6 0 13 -4 16 -10z m630 -22 c4 4 6 0 3 -8 -8 -25 -38
-25 -38 0 0 18 3 20 13 11 8 -6 17 -7 22 -3z m-66 -18 c12 -7 3 -10 -29 -11
-88 -3 -118 -6 -134 -12 -11 -4 -16 -1 -16 11 0 15 12 17 82 19 45 1 89 -2 97
-7z m91 -30 c-36 -11 -50 -11 -50 0 0 6 17 10 38 9 33 -1 34 -2 12 -9z m-70
-10 c0 -5 -3 -10 -7 -10 -40 -3 -132 -12 -193 -20 -153 -19 -175 -20 -214 -6
-37 13 -31 14 125 25 90 7 171 14 179 15 36 8 110 5 110 -4z m-1925 -10 c-3
-5 -11 -10 -16 -10 -6 0 -7 5 -4 10 3 6 11 10 16 10 6 0 7 -4 4 -10z m1445
-20 c0 -5 -17 -11 -37 -12 -21 0 -42 -2 -48 -3 -5 -1 -73 -5 -150 -10 -84 -4
-143 -12 -147 -19 -5 -8 -8 -7 -8 2 0 10 -13 12 -55 7 -31 -4 -129 -9 -218
-10 -197 -3 -346 -13 -409 -26 -66 -15 -318 -16 -343 -1 -18 10 -17 11 10 10
17 0 89 7 160 17 72 10 197 19 279 21 87 2 153 7 159 13 14 14 70 14 83 1 8
-8 19 -7 39 0 19 7 31 7 40 0 7 -6 20 -8 29 -4 9 3 23 1 31 -6 9 -8 32 -10 62
-6 81 9 202 18 353 26 80 4 151 7 158 8 6 1 12 -2 12 -8z m-1372 -25 c10 -10
-4 -14 -26 -8 -28 7 -29 23 -1 18 12 -3 24 -7 27 -10z m1595 -12 c-7 -2 -19
-2 -25 0 -7 3 -2 5 12 5 14 0 19 -2 13 -5z m-1693 -75 c0 -5 -7 -8 -15 -8 -8
0 -15 2 -15 4 0 2 -3 12 -6 21 -6 15 -4 15 15 4 11 -8 21 -17 21 -21z m-105
-85 c-2 -46 -13 -80 -53 -165 -46 -96 -72 -136 -72 -110 0 17 29 80 41 87 6 4
9 23 8 44 -1 20 7 56 17 81 10 25 18 48 16 53 -1 4 3 7 9 7 5 0 15 14 20 30 6
17 12 30 13 30 2 0 2 -26 1 -57z m7 -195 c2 -93 -1 -121 -13 -133 -6 -6 -7 3
-3 24 7 31 5 34 -14 29 -26 -7 -26 -10 -3 43 12 27 17 54 14 76 -4 21 -2 33 6
33 7 0 12 -26 13 -72z m-252 52 c0 -5 -5 -10 -11 -10 -5 0 -7 5 -4 10 3 6 8
10 11 10 2 0 4 -4 4 -10z m103 -27 c-7 -2 -19 -2 -25 0 -7 3 -2 5 12 5 14 0
19 -2 13 -5z m-2 -64 c-8 -74 -4 -109 13 -109 7 0 20 -7 27 -17 13 -15 10 -16
-35 -10 -27 4 -57 7 -66 7 -10 0 -28 11 -41 24 -22 21 -24 31 -21 93 l3 69 62
-11 62 -11 -4 -35z m99 -101 c0 -7 -5 -20 -10 -28 -9 -13 -12 -12 -25 4 -8 10
-12 23 -9 27 8 14 44 10 44 -3z m703 -55 c-13 -2 -35 -2 -50 0 -16 2 -5 4 22
4 28 0 40 -2 28 -4z"/>
<path d="M986 4725 c-9 -14 -13 -25 -8 -25 10 0 42 33 42 43 0 15 -19 5 -34
-18z"/>
<path d="M1465 4710 c-10 -11 -16 -22 -14 -25 7 -6 49 24 49 36 0 15 -16 10
-35 -11z"/>
<path d="M1590 4719 c0 -5 5 -7 10 -4 6 3 10 8 10 11 0 2 -4 4 -10 4 -5 0 -10
-5 -10 -11z"/>
<path d="M1454 4650 c-102 -89 -108 -97 -90 -107 14 -7 16 -12 16 -30 0 -4 7
2 16 13 8 10 12 13 8 5 -3 -7 -1 -17 5 -21 9 -5 6 -17 -9 -43 -20 -33 -20 -36
-3 -45 14 -8 22 -4 40 23 13 19 21 40 18 47 -2 7 9 29 25 48 16 19 30 30 30
24 0 -6 -12 -24 -27 -39 -22 -23 -24 -27 -8 -21 11 5 28 11 38 13 9 3 17 10
17 15 0 5 -6 6 -12 1 -7 -4 3 13 22 37 19 24 29 40 21 35 -11 -6 -13 -4 -8 8
4 10 2 17 -5 17 -15 0 -78 -49 -78 -61 0 -5 -10 -20 -21 -32 -13 -13 -20 -16
-17 -7 3 8 1 27 -3 43 -4 15 -4 25 1 22 5 -3 23 10 40 28 17 19 46 43 65 53
26 14 32 21 23 31 -6 7 -14 13 -18 13 -4 0 -43 -31 -86 -70z m-44 -74 c0 -2
-8 -10 -17 -17 -16 -13 -17 -12 -4 4 13 16 21 21 21 13z"/>
<path d="M1010 4690 c-7 -13 -7 -20 -1 -20 6 0 15 9 21 20 7 13 7 20 1 20 -6
0 -15 -9 -21 -20z"/>
<path d="M1401 4694 c0 -11 3 -14 6 -6 3 7 2 16 -1 19 -3 4 -6 -2 -5 -13z"/>
<path d="M1420 4659 c0 -5 5 -7 10 -4 6 3 10 8 10 11 0 2 -4 4 -10 4 -5 0 -10
-5 -10 -11z"/>
<path d="M1815 4638 c-16 -6 -37 -20 -45 -32 -19 -28 -73 -84 -65 -68 11 20
-20 13 -35 -9 -8 -11 -34 -29 -57 -39 -47 -21 -56 -31 -20 -23 21 4 21 3 -3
-10 -14 -9 -27 -14 -30 -12 -3 2 -19 -16 -35 -38 l-30 -42 29 23 c16 12 34 22
40 22 6 0 0 -7 -12 -16 -12 -8 -22 -24 -22 -35 0 -12 -5 -17 -10 -14 -6 4 -18
1 -27 -7 -12 -9 -15 -9 -9 0 12 20 -12 14 -36 -10 -12 -12 -28 -23 -36 -24
-19 -3 -42 -25 -42 -40 0 -8 -9 -14 -20 -14 -11 0 -20 -7 -20 -15 0 -20 32
-19 61 3 13 9 34 23 47 30 20 11 22 10 22 -8 0 -11 4 -20 9 -20 5 0 9 12 9 27
0 28 37 64 58 56 14 -5 66 55 58 68 -7 12 25 63 33 55 4 -3 -2 -15 -12 -26
-10 -11 -15 -23 -12 -27 4 -3 8 -4 10 -2 2 2 15 21 30 41 15 20 27 42 27 48 0
7 7 9 16 6 24 -9 52 11 59 43 7 32 70 101 92 101 7 0 13 5 13 10 0 6 -1 10 -2
9 -2 0 -16 -5 -33 -11z m-248 -274 c-3 -3 -12 -4 -19 -1 -8 3 -5 6 6 6 11 1
17 -2 13 -5z"/>
<path d="M940 4620 c-7 -4 -10 -12 -7 -17 3 -5 -12 -27 -33 -50 -26 -29 -34
-45 -27 -52 11 -11 87 42 87 61 0 6 -6 5 -15 -2 -13 -11 -14 -10 -10 3 8 20
45 30 45 11 0 -20 13 -17 28 6 11 17 10 20 -7 20 -11 0 -26 6 -34 14 -8 8 -19
11 -27 6z"/>
<path d="M1061 4586 c-8 -9 -11 -19 -7 -23 9 -9 29 13 24 27 -2 8 -8 7 -17 -4z"/>
<path d="M1805 4560 c-3 -5 1 -10 10 -10 9 0 13 5 10 10 -3 6 -8 10 -10 10 -2
0 -7 -4 -10 -10z"/>
<path d="M1003 4518 c-16 -21 -23 -48 -13 -48 5 0 16 14 25 30 15 30 7 42 -12
18z"/>
<path d="M944 4510 c-27 -11 -40 -30 -21 -30 8 0 22 9 32 20 20 22 19 23 -11
10z"/>
<path d="M1276 4489 c-29 -18 -73 -95 -61 -107 9 -10 46 38 39 50 -3 5 2 12
12 15 23 6 68 60 51 60 -7 0 -25 -8 -41 -18z"/>
<path d="M1785 4500 c-3 -5 1 -10 10 -10 9 0 13 5 10 10 -3 6 -8 10 -10 10 -2
0 -7 -4 -10 -10z"/>
<path d="M1306 4465 c-20 -20 -21 -36 -2 -29 15 6 30 34 22 41 -2 2 -11 -3
-20 -12z"/>
<path d="M1339 4442 c-31 -33 -43 -52 -32 -52 13 0 73 57 73 69 0 18 -13 12
-41 -17z"/>
<path d="M813 4448 c-23 -30 -24 -41 -2 -21 12 12 20 25 17 28 -3 3 -10 0 -15
-7z"/>
<path d="M1805 4450 c-3 -5 3 -10 15 -10 12 0 18 5 15 10 -3 6 -10 10 -15 10
-5 0 -12 -4 -15 -10z"/>
<path d="M2465 4450 c3 -5 10 -10 16 -10 5 0 9 5 9 10 0 6 -7 10 -16 10 -8 0
-12 -4 -9 -10z"/>
<path d="M1452 4415 c-13 -15 -22 -28 -20 -30 7 -7 50 35 46 45 -2 6 -14 -1
-26 -15z"/>
<path d="M1720 4410 c-24 -15 -7 -18 20 -3 14 7 18 13 10 13 -8 0 -22 -4 -30
-10z"/>
<path d="M1204 4355 c-10 -8 -14 -15 -7 -15 19 0 43 11 43 21 0 13 -14 11 -36
-6z"/>
<path d="M1448 4363 c6 -2 18 -2 25 0 6 3 1 5 -13 5 -14 0 -19 -2 -12 -5z"/>
<path d="M1510 4300 c-8 -5 -12 -12 -9 -15 4 -3 12 1 19 10 14 17 11 19 -10 5z"/>
<path d="M1640 4280 c0 -5 5 -10 11 -10 5 0 7 5 4 10 -3 6 -8 10 -11 10 -2 0
-4 -4 -4 -10z"/>
<path d="M1273 4201 c-38 -32 -41 -41 -13 -34 11 3 20 0 20 -6 0 -23 28 -10
40 18 11 28 8 52 -8 51 -4 -1 -22 -13 -39 -29z"/>
<path d="M1370 4205 c-7 -9 -10 -18 -7 -22 8 -7 37 15 37 28 0 14 -16 11 -30
-6z"/>
<path d="M1541 4194 c0 -11 3 -14 6 -6 3 7 2 16 -1 19 -3 4 -6 -2 -5 -13z"/>
<path d="M2580 4164 c0 -8 5 -12 10 -9 6 4 8 11 5 16 -9 14 -15 11 -15 -7z"/>
<path d="M804 4095 c-27 -19 -43 -35 -36 -35 13 0 102 57 102 65 0 12 -20 2
-66 -30z"/>
<path d="M1230 4065 c-7 -8 -8 -15 -2 -15 5 0 15 7 22 15 7 8 8 15 2 15 -5 0
-15 -7 -22 -15z"/>
<path d="M1180 3990 c-18 -12 -2 -12 25 0 13 6 15 9 5 9 -8 0 -22 -4 -30 -9z"/>
<path d="M1035 3980 c-19 -7 -19 -8 -2 -15 12 -5 24 -2 35 9 13 13 14 16 2 15
-8 0 -24 -4 -35 -9z"/>
<path d="M1270 3962 c0 -4 9 -8 20 -9 11 -1 18 2 15 8 -7 11 -35 12 -35 1z"/>
<path d="M1410 3960 c0 -5 5 -10 10 -10 6 0 10 5 10 10 0 6 -4 10 -10 10 -5 0
-10 -4 -10 -10z"/>
<path d="M1256 3904 c-5 -12 -2 -15 10 -10 8 3 20 6 25 6 5 0 9 5 9 10 0 16
-37 11 -44 -6z"/>
<path d="M948 3903 c7 -3 16 -2 19 1 4 3 -2 6 -13 5 -11 0 -14 -3 -6 -6z"/>
<path d="M1025 3860 c-3 -5 1 -10 10 -10 9 0 13 5 10 10 -3 6 -8 10 -10 10 -2
0 -7 -4 -10 -10z"/>
<path d="M925 3843 c-44 -11 -40 -25 5 -18 66 11 94 24 50 23 -19 0 -44 -2
-55 -5z"/>
<path d="M855 3820 c-3 -5 -1 -10 4 -10 6 0 11 5 11 10 0 6 -2 10 -4 10 -3 0
-8 -4 -11 -10z"/>
<path d="M785 3813 c-11 -3 -24 -9 -30 -15 -13 -12 66 1 80 13 10 10 -15 10
-50 2z"/>
<path d="M680 3779 c0 -5 5 -7 10 -4 6 3 10 8 10 11 0 2 -4 4 -10 4 -5 0 -10
-5 -10 -11z"/>
<path d="M1185 3780 c-8 -13 15 -13 35 0 12 8 11 10 -7 10 -12 0 -25 -4 -28
-10z"/>
<path d="M2366 3765 c4 -8 7 -15 9 -15 2 0 5 7 9 15 3 9 0 15 -9 15 -9 0 -12
-6 -9 -15z"/>
<path d="M1330 3738 l-25 -11 23 -5 c28 -4 52 4 52 18 0 13 -18 12 -50 -2z"/>
<path d="M1068 3733 c7 -3 16 -2 19 1 4 3 -2 6 -13 5 -11 0 -14 -3 -6 -6z"/>
<path d="M1398 3708 c9 -9 15 -9 24 0 9 9 7 12 -12 12 -19 0 -21 -3 -12 -12z"/>
<path d="M940 3699 c0 -5 5 -7 10 -4 6 3 10 8 10 11 0 2 -4 4 -10 4 -5 0 -10
-5 -10 -11z"/>
<path d="M1205 3700 l-20 -9 20 0 c11 0 27 4 35 9 13 9 13 10 0 9 -8 0 -24 -4
-35 -9z"/>
<path d="M2055 3644 c-72 -25 -103 -44 -73 -44 9 0 19 4 22 8 3 5 32 17 66 27
33 10 60 22 60 27 0 10 8 12 -75 -18z"/>
<path d="M1468 3613 c7 -3 16 -2 19 1 4 3 -2 6 -13 5 -11 0 -14 -3 -6 -6z"/>
<path d="M1280 3600 c-8 -4 -26 -13 -40 -19 -21 -9 -19 -9 19 -5 25 2 47 7 50
9 10 10 -14 23 -29 15z"/>
<path d="M1330 3600 c0 -5 7 -10 15 -10 8 0 15 5 15 10 0 6 -7 10 -15 10 -8 0
-15 -4 -15 -10z"/>
<path d="M1935 3600 c-3 -5 -2 -10 4 -10 5 0 13 5 16 10 3 6 2 10 -4 10 -5 0
-13 -4 -16 -10z"/>
<path d="M778 3563 c6 -2 18 -2 25 0 6 3 1 5 -13 5 -14 0 -19 -2 -12 -5z"/>
<path d="M1080 3550 c0 -13 30 -13 50 0 11 7 7 10 -17 10 -18 0 -33 -4 -33
-10z"/>
<path d="M900 3540 c0 -5 5 -10 10 -10 6 0 10 5 10 10 0 6 -4 10 -10 10 -5 0
-10 -4 -10 -10z"/>
<path d="M861 3476 c-19 -7 -31 -15 -25 -18 10 -6 74 17 74 27 0 7 -10 5 -49
-9z"/>
<path d="M873 3377 c-24 -12 -43 -25 -43 -30 0 -4 23 4 50 18 28 14 50 28 50
30 0 8 -13 4 -57 -18z"/>
<path d="M1272 3360 c-1 -17 3 -30 9 -30 6 0 9 7 6 15 -4 8 -2 17 4 20 5 4 7
11 4 16 -11 17 -21 9 -23 -21z"/>
<path d="M1363 3353 c9 -2 23 -2 30 0 6 3 -1 5 -18 5 -16 0 -22 -2 -12 -5z"/>
<path d="M1230 3340 c0 -5 4 -10 9 -10 6 0 13 5 16 10 3 6 -1 10 -9 10 -9 0
-16 -4 -16 -10z"/>
<path d="M1025 3320 c-3 -5 -2 -10 4 -10 5 0 13 5 16 10 3 6 2 10 -4 10 -5 0
-13 -4 -16 -10z"/>
<path d="M960 3300 c-13 -8 -13 -10 2 -10 9 0 20 5 23 10 8 13 -5 13 -25 0z"/>
<path d="M1150 3300 c-13 -8 -13 -10 2 -10 9 0 20 5 23 10 8 13 -5 13 -25 0z"/>
<path d="M895 3280 c-16 -7 -17 -9 -3 -9 9 -1 20 4 23 9 7 11 7 11 -20 0z"/>
<path d="M1138 3263 c7 -3 16 -2 19 1 4 3 -2 6 -13 5 -11 0 -14 -3 -6 -6z"/>
<path d="M1415 3230 c-3 -5 -2 -10 4 -10 5 0 13 5 16 10 3 6 2 10 -4 10 -5 0
-13 -4 -16 -10z"/>
<path d="M1195 3200 c-39 -7 -39 -7 15 -8 30 -1 62 3 70 8 18 11 -21 11 -85 0z"/>
<path d="M920 3190 c-8 -5 -12 -12 -9 -15 4 -3 12 1 19 10 14 17 11 19 -10 5z"/>
<path d="M1073 3183 c9 -2 25 -2 35 0 9 3 1 5 -18 5 -19 0 -27 -2 -17 -5z"/>
<path d="M890 3109 c-68 -51 -83 -65 -50 -49 14 7 27 16 30 19 3 3 24 19 48
34 23 15 42 29 42 32 0 12 -19 2 -70 -36z"/>
<path d="M1235 3135 c-30 -13 -30 -13 -4 -14 14 -1 34 6 45 14 25 19 1 19 -41
0z"/>
<path d="M1140 3099 c0 -5 5 -7 10 -4 6 3 10 8 10 11 0 2 -4 4 -10 4 -5 0 -10
-5 -10 -11z"/>
<path d="M1330 3090 c-8 -5 -12 -11 -9 -14 3 -3 14 1 25 9 21 16 8 20 -16 5z"/>
<path d="M1039 3070 c-31 -25 -18 -25 23 0 20 12 26 20 17 20 -9 0 -27 -9 -40
-20z"/>
<path d="M1280 3070 c-9 -6 -10 -10 -3 -10 6 0 15 5 18 10 8 12 4 12 -15 0z"/>
<path d="M1190 3060 c0 -5 5 -10 10 -10 6 0 10 5 10 10 0 6 -4 10 -10 10 -5 0
-10 -4 -10 -10z"/>
<path d="M1212 3028 c6 -18 28 -21 28 -4 0 9 -7 16 -16 16 -9 0 -14 -5 -12
-12z"/>
<path d="M2470 3030 c0 -5 9 -10 21 -10 11 0 18 -4 14 -9 -3 -5 -1 -12 4 -15
21 -13 20 14 -1 28 -26 18 -38 20 -38 6z"/>
<path d="M1382 2700 c-18 -29 -15 -32 13 -14 14 9 22 20 19 25 -8 14 -18 11
-32 -11z"/>
<path d="M2210 2649 c0 -5 5 -7 10 -4 6 3 10 8 10 11 0 2 -4 4 -10 4 -5 0 -10
-5 -10 -11z"/>
<path d="M2605 2510 c4 -6 11 -8 16 -5 14 9 11 15 -7 15 -8 0 -12 -5 -9 -10z"/>
<path d="M2555 2350 c-3 -5 1 -10 9 -10 9 0 16 5 16 10 0 6 -4 10 -9 10 -6 0
-13 -4 -16 -10z"/>
<path d="M718 2314 c-41 -12 -74 -34 -52 -34 18 0 114 36 114 43 0 9 -6 8 -62
-9z"/>
<path d="M743 2206 l-16 -35 56 -75 c31 -41 52 -78 47 -81 -17 -10 -11 -23 13
-29 14 -3 31 -22 45 -51 12 -25 32 -49 44 -54 13 -5 36 -20 52 -34 16 -14 49
-33 73 -42 24 -9 43 -21 43 -26 0 -5 6 -9 13 -9 8 0 19 -10 25 -22 10 -20 11
-17 6 20 -4 27 -2 42 5 42 6 0 10 16 10 38 -1 37 -1 37 -9 7 -7 -29 -8 -29 -9
-4 0 14 -10 44 -21 67 -11 22 -25 65 -31 94 -13 61 -33 98 -54 98 -8 0 -15 7
-15 15 0 9 -11 20 -25 25 -14 5 -25 14 -25 20 0 5 -8 10 -17 10 -16 1 -16 2 1
15 18 14 14 14 -36 10 -42 -4 -66 -1 -102 15 -26 11 -50 20 -52 20 -2 0 -12
-16 -21 -34z m133 -82 c20 -34 32 -44 45 -41 23 6 35 -9 14 -17 -20 -7 -19
-31 1 -62 9 -13 13 -28 9 -32 -12 -12 -81 77 -108 139 -24 55 -24 59 -7 59 12
0 29 -17 46 -46z m83 -1 c24 -25 22 -45 -2 -25 -8 7 -17 9 -20 5 -4 -3 -7 1
-7 9 0 9 -7 18 -15 22 -8 3 -15 10 -15 15 0 16 32 1 59 -26z m49 -128 c-3 -3
-9 2 -12 12 -6 14 -5 15 5 6 7 -7 10 -15 7 -18z m42 -126 c0 -6 -4 -7 -10 -4
-5 3 -10 11 -10 16 0 6 5 7 10 4 6 -3 10 -11 10 -16z"/>
<path d="M2515 2210 c-3 -5 1 -10 9 -10 9 0 16 5 16 10 0 6 -4 10 -9 10 -6 0
-13 -4 -16 -10z"/>
<path d="M640 2180 c0 -5 5 -10 11 -10 5 0 7 5 4 10 -3 6 -8 10 -11 10 -2 0
-4 -4 -4 -10z"/>
<path d="M1625 2100 c-3 -5 -1 -10 4 -10 6 0 11 5 11 10 0 6 -2 10 -4 10 -3 0
-8 -4 -11 -10z"/>
<path d="M2568 2082 c-10 -2 -18 -8 -18 -13 0 -13 27 -11 35 2 9 13 4 16 -17
11z"/>
<path d="M2650 2080 c-12 -8 -11 -10 8 -10 12 0 22 5 22 10 0 13 -11 13 -30 0z"/>
<path d="M2091 1989 c-13 -5 -22 -11 -20 -13 7 -7 59 6 59 15 0 11 -8 11 -39
-2z"/>
<path d="M2525 1960 c3 -5 15 -10 26 -10 10 0 19 5 19 10 0 6 -12 10 -26 10
-14 0 -23 -4 -19 -10z"/>
<path d="M2700 1910 c0 -5 5 -10 10 -10 6 0 10 5 10 10 0 6 -4 10 -10 10 -5 0
-10 -4 -10 -10z"/>
<path d="M1595 1900 c3 -5 8 -10 11 -10 2 0 4 5 4 10 0 6 -5 10 -11 10 -5 0
-7 -4 -4 -10z"/>
<path d="M2605 1870 c-8 -13 5 -13 25 0 13 8 13 10 -2 10 -9 0 -20 -4 -23 -10z"/>
<path d="M1344 1844 c-4 -10 -14 -27 -22 -36 -24 -28 2 -21 28 7 18 19 21 28
12 37 -9 9 -13 7 -18 -8z"/>
<path d="M2080 1840 c-13 -9 -13 -11 0 -20 9 -6 18 -6 24 0 15 15 -6 31 -24
20z"/>
<path d="M2520 1800 c0 -5 5 -10 10 -10 6 0 10 5 10 10 0 6 -4 10 -10 10 -5 0
-10 -4 -10 -10z"/>
<path d="M1605 1790 c3 -5 8 -10 11 -10 2 0 4 5 4 10 0 6 -5 10 -11 10 -5 0
-7 -4 -4 -10z"/>
<path d="M2570 1790 c-13 -8 -12 -10 3 -10 9 0 17 5 17 10 0 12 -1 12 -20 0z"/>
<path d="M2068 1783 c-10 -3 -18 -9 -18 -14 0 -10 7 -11 34 0 23 9 9 19 -16
14z"/>
<path d="M820 1770 c-13 -9 -13 -11 0 -20 20 -13 70 -13 70 0 0 6 -6 9 -12 8
-7 -2 -12 3 -10 10 2 14 -27 16 -48 2z"/>
<path d="M1930 1740 c0 -13 20 -13 40 0 12 8 9 10 -12 10 -16 0 -28 -4 -28
-10z"/>
<path d="M2065 1739 c-11 -17 1 -21 15 -4 8 9 8 15 2 15 -6 0 -14 -5 -17 -11z"/>
<path d="M2630 1740 c0 -14 29 -32 46 -28 29 5 21 22 -13 29 -18 3 -33 3 -33
-1z"/>
<path d="M2435 1730 c-3 -5 -1 -10 4 -10 6 0 11 5 11 10 0 6 -2 10 -4 10 -3 0
-8 -4 -11 -10z"/>
<path d="M2465 1720 c-3 -5 -1 -10 4 -10 6 0 11 5 11 10 0 6 -2 10 -4 10 -3 0
-8 -4 -11 -10z"/>
<path d="M1940 1710 c0 -5 5 -10 10 -10 6 0 10 5 10 10 0 6 -4 10 -10 10 -5 0
-10 -4 -10 -10z"/>
<path d="M1640 1690 c-11 -7 -6 -10 20 -10 19 0 42 5 50 10 11 7 6 10 -20 10
-19 0 -42 -5 -50 -10z"/>
<path d="M2010 1690 c-9 -6 -10 -10 -3 -10 6 0 15 5 18 10 8 12 4 12 -15 0z"/>
<path d="M1958 1653 c7 -3 16 -2 19 1 4 3 -2 6 -13 5 -11 0 -14 -3 -6 -6z"/>
<path d="M715 1640 c-17 -7 -15 -9 13 -9 17 -1 32 4 32 9 0 12 -17 12 -45 0z"/>
<path d="M1700 1600 c0 -5 6 -10 14 -10 8 0 18 5 21 10 3 6 -3 10 -14 10 -12
0 -21 -4 -21 -10z"/>
<path d="M1961 1591 c-26 -7 -38 -51 -15 -51 8 0 11 6 8 14 -3 9 3 17 15 21
12 3 21 11 21 16 0 5 -1 9 -2 8 -2 -1 -14 -4 -27 -8z"/>
<path d="M2610 1590 c-11 -7 -9 -11 13 -19 40 -15 47 -14 47 9 0 22 -33 27
-60 10z"/>
<path d="M2490 1550 c-13 -8 -12 -10 3 -10 9 0 17 5 17 10 0 12 -1 12 -20 0z"/>
<path d="M1750 1540 c0 -5 5 -10 10 -10 6 0 10 5 10 10 0 6 -4 10 -10 10 -5 0
-10 -4 -10 -10z"/>
<path d="M1883 1503 c-32 -22 -28 -33 11 -33 30 0 34 3 32 25 -1 29 -12 31
-43 8z"/>
<path d="M2660 1506 c6 -8 18 -12 26 -9 19 7 7 23 -18 23 -17 0 -18 -3 -8 -14z"/>
<path d="M2148 1478 c-36 -9 -36 -10 -17 -29 10 -10 22 -19 26 -19 4 0 2 5 -5
12 -15 15 -16 32 -2 23 6 -3 16 -3 23 2 6 4 18 8 25 9 8 2 16 5 20 8 8 9 -27
5 -70 -6z"/>
<path d="M2580 1480 c0 -5 6 -10 14 -10 8 0 18 5 21 10 3 6 -3 10 -14 10 -12
0 -21 -4 -21 -10z"/>
<path d="M2268 1473 c6 -2 18 -2 25 0 6 3 1 5 -13 5 -14 0 -19 -2 -12 -5z"/>
<path d="M2455 1450 c-3 -5 3 -10 14 -10 11 0 23 5 26 10 3 6 -3 10 -14 10
-11 0 -23 -4 -26 -10z"/>
<path d="M1770 1440 c0 -5 7 -10 15 -10 8 0 15 5 15 10 0 6 -7 10 -15 10 -8 0
-15 -4 -15 -10z"/>
<path d="M2360 1430 c-12 -8 -10 -10 8 -10 13 0 20 4 17 10 -7 12 -6 12 -25 0z"/>
<path d="M2608 1423 c-27 -7 -22 -25 6 -21 13 1 31 -4 40 -11 12 -10 20 -11
27 -4 7 7 1 16 -22 27 -18 9 -33 15 -33 15 -1 -1 -9 -3 -18 -6z"/>
<path d="M2205 1405 l-39 -12 34 -6 c23 -5 38 -3 48 7 20 20 3 24 -43 11z"/>
<path d="M2417 1384 c-4 -4 -7 -17 -8 -28 0 -20 -1 -20 -11 2 -11 23 -32 29
-43 13 -3 -5 2 -16 10 -24 13 -13 11 -16 -15 -26 -17 -5 -30 -15 -30 -20 0
-15 4 -14 57 10 33 15 48 17 53 9 4 -6 11 -10 16 -9 20 3 34 -2 32 -12 -2 -6
3 -14 11 -16 8 -4 12 0 9 8 -5 16 73 40 83 26 4 -5 17 -7 30 -5 47 8 -30 30
-80 23 -30 -5 -41 -3 -36 4 3 6 2 11 -4 11 -5 0 -12 -6 -15 -12 -5 -10 -7 -10
-12 -1 -12 27 -40 54 -47 47z"/>
<path d="M2078 1373 c7 -3 16 -2 19 1 4 3 -2 6 -13 5 -11 0 -14 -3 -6 -6z"/>
<path d="M2008 1363 c7 -3 16 -2 19 1 4 3 -2 6 -13 5 -11 0 -14 -3 -6 -6z"/>
<path d="M2261 1346 c-27 -10 -31 -14 -18 -19 26 -10 20 -27 -8 -27 -14 0 -25
-4 -25 -10 0 -5 -9 -10 -20 -10 -11 0 -20 -4 -20 -10 0 -5 15 -7 33 -5 29 4
29 4 -8 -9 -32 -12 -35 -15 -15 -15 40 -1 69 10 64 24 -4 8 8 15 33 20 36 6
37 7 16 19 -27 14 -18 33 23 46 27 8 28 8 4 8 -14 0 -40 -5 -59 -12z"/>
<path d="M2615 1350 c-3 -5 1 -10 9 -10 9 0 16 5 16 10 0 6 -4 10 -9 10 -6 0
-13 -4 -16 -10z"/>
<path d="M1905 1340 c6 -9 -8 -14 -27 -11 -14 2 -8 -17 6 -22 24 -9 58 4 52
20 -3 8 -6 17 -6 19 0 2 -7 4 -16 4 -8 0 -12 -4 -9 -10z"/>
<path d="M2670 1310 c-13 -8 -12 -10 3 -10 9 0 17 5 17 10 0 12 -1 12 -20 0z"/>
<path d="M2118 1303 c7 -3 16 -2 19 1 4 3 -2 6 -13 5 -11 0 -14 -3 -6 -6z"/>
<path d="M1760 1280 c0 -5 5 -10 10 -10 6 0 10 5 10 10 0 6 -4 10 -10 10 -5 0
-10 -4 -10 -10z"/>
<path d="M2568 1283 c-19 -5 -25 -23 -9 -23 17 0 41 12 41 21 0 9 -4 10 -32 2z"/>
<path d="M2267 1268 c-12 -8 4 -12 32 -9 7 2 10 -2 6 -8 -11 -19 21 -12 46 10
l23 20 -48 -3 c-26 -2 -53 -6 -59 -10z"/>
<path d="M2095 1260 c-3 -5 1 -10 9 -10 9 0 16 5 16 10 0 6 -4 10 -9 10 -6 0
-13 -4 -16 -10z"/>
<path d="M1985 1232 c-3 -3 -24 -6 -48 -7 -62 -3 -105 -14 -111 -30 -4 -11 5
-12 42 -8 26 3 65 11 87 17 22 7 56 14 75 15 52 3 56 16 5 17 -25 0 -47 -1
-50 -4z"/>
<path d="M2098 1233 c6 -2 18 -2 25 0 6 3 1 5 -13 5 -14 0 -19 -2 -12 -5z"/>
<path d="M2306 1214 c-11 -7 -16 -17 -13 -21 4 -4 15 1 24 10 22 21 14 30 -11
11z"/>
<path d="M2680 1220 c0 -5 5 -10 10 -10 6 0 10 5 10 10 0 6 -4 10 -10 10 -5 0
-10 -4 -10 -10z"/>
<path d="M2570 1199 c0 -6 -9 -8 -21 -4 -12 4 -40 4 -63 1 -32 -5 -42 -11 -43
-26 -2 -25 9 -25 83 0 32 11 67 20 76 20 9 0 20 5 23 10 4 6 -7 10 -24 10 -17
0 -31 -5 -31 -11z"/>
<path d="M751 1184 c0 -11 3 -14 6 -6 3 7 2 16 -1 19 -3 4 -6 -2 -5 -13z"/>
<path d="M2615 1170 c-4 -6 7 -10 24 -10 17 0 31 -4 31 -10 0 -5 7 -10 15 -10
19 0 19 7 1 26 -17 16 -62 19 -71 4z"/>
<path d="M2385 1160 c-3 -5 -1 -10 4 -10 6 0 11 5 11 10 0 6 -2 10 -4 10 -3 0
-8 -4 -11 -10z"/>
<path d="M2715 1160 c3 -5 10 -10 16 -10 5 0 9 5 9 10 0 6 -7 10 -16 10 -8 0
-12 -4 -9 -10z"/>
<path d="M1995 1150 c-8 -13 15 -13 35 0 12 8 11 10 -7 10 -12 0 -25 -4 -28
-10z"/>
<path d="M2515 1150 c-3 -6 4 -10 18 -10 14 0 30 -7 37 -15 7 -8 20 -15 29
-15 11 -1 9 -5 -8 -14 -18 -10 -20 -15 -10 -19 9 -4 6 -5 -6 -5 -40 2 -54 -2
-50 -14 4 -9 27 -13 70 -13 45 0 65 4 65 13 0 6 -9 12 -19 12 -15 0 -19 6 -16
25 2 21 -2 25 -22 25 -16 0 -27 7 -30 20 -6 21 -47 28 -58 10z"/>
<path d="M1740 1140 c0 -5 5 -10 10 -10 6 0 10 5 10 10 0 6 -4 10 -10 10 -5 0
-10 -4 -10 -10z"/>
<path d="M1865 1130 c-3 -5 -1 -10 4 -10 6 0 11 5 11 10 0 6 -2 10 -4 10 -3 0
-8 -4 -11 -10z"/>
<path d="M2635 1130 c3 -5 10 -10 16 -10 5 0 9 5 9 10 0 6 -7 10 -16 10 -8 0
-12 -4 -9 -10z"/>
<path d="M1805 1120 c-3 -5 3 -10 14 -10 12 0 21 5 21 10 0 6 -6 10 -14 10 -8
0 -18 -4 -21 -10z"/>
<path d="M2235 1120 c3 -5 12 -7 20 -3 21 7 19 13 -6 13 -11 0 -18 -4 -14 -10z"/>
<path d="M2320 1123 c-14 -3 -33 -13 -43 -24 -20 -22 -43 -25 -50 -6 -2 6 -4
0 -4 -15 0 -15 3 -26 7 -23 4 2 20 1 36 -4 34 -9 167 12 172 28 2 6 13 11 25
11 18 0 19 2 7 10 -8 5 -30 10 -47 10 -18 0 -33 5 -33 10 0 10 -24 11 -70 3z
m70 -22 c0 -10 -24 -21 -44 -21 -7 0 -13 7 -13 15 0 10 10 15 29 15 15 0 28
-4 28 -9z"/>
<path d="M2135 1110 c-17 -7 -15 -9 13 -9 17 -1 32 4 32 9 0 12 -17 12 -45 0z"/>
<path d="M2508 1113 c7 -3 16 -2 19 1 4 3 -2 6 -13 5 -11 0 -14 -3 -6 -6z"/>
<path d="M2718 1113 c7 -3 16 -2 19 1 4 3 -2 6 -13 5 -11 0 -14 -3 -6 -6z"/>
<path d="M2640 1106 c0 -2 7 -6 15 -10 8 -3 15 -1 15 4 0 6 -7 10 -15 10 -8 0
-15 -2 -15 -4z"/>
<path d="M1711 1091 c-9 -6 -10 -11 -2 -15 13 -8 31 1 31 15 0 11 -11 11 -29
0z"/>
<path d="M2025 1090 c3 -5 13 -10 21 -10 8 0 14 5 14 10 0 6 -9 10 -21 10 -11
0 -17 -4 -14 -10z"/>
<path d="M1900 1082 c-23 -4 -24 -5 -5 -12 16 -6 11 -10 -24 -16 -35 -6 -41
-9 -29 -18 8 -6 16 -15 17 -21 6 -25 16 -11 12 17 0 3 14 9 32 13 57 12 67 16
67 31 0 14 -21 16 -70 6z"/>
<path d="M2100 1070 c0 -5 7 -7 15 -4 8 4 15 8 15 10 0 2 -7 4 -15 4 -8 0 -15
-4 -15 -10z"/>
<path d="M2050 1055 c0 -8 4 -15 8 -15 5 0 9 7 9 15 0 8 -4 15 -9 15 -4 0 -8
-7 -8 -15z"/>
<path d="M2140 1060 c0 -5 -9 -10 -20 -10 -29 0 -25 -15 5 -16 18 -2 25 3 25
17 0 10 -2 19 -5 19 -3 0 -5 -4 -5 -10z"/>
<path d="M1718 1053 c-16 -2 -28 -8 -28 -13 0 -12 46 -7 59 8 7 6 8 11 4 11
-4 -1 -20 -4 -35 -6z"/>
<path d="M1982 1045 c-11 -13 -8 -15 18 -15 20 0 30 5 30 15 0 19 -31 19 -48
0z"/>
<path d="M2370 1040 c-33 -10 -19 -13 60 -10 36 1 69 6 75 11 11 11 -99 10
-135 -1z"/>
<path d="M2290 1030 c-8 -5 -12 -12 -8 -15 10 -10 49 5 43 16 -8 11 -16 11
-35 -1z"/>
<path d="M2050 1020 c-8 -5 -10 -10 -5 -10 6 0 17 5 25 10 8 5 11 10 5 10 -5
0 -17 -5 -25 -10z"/>
<path d="M1808 983 c6 -2 18 -2 25 0 6 3 1 5 -13 5 -14 0 -19 -2 -12 -5z"/>
<path d="M1860 969 c-11 -7 -1 -8 35 -3 28 4 52 8 54 10 10 9 -76 3 -89 -7z"/>
<path d="M2730 610 c-8 -5 -12 -12 -9 -15 8 -8 39 5 39 16 0 11 -11 11 -30 -1z"/>
<path d="M2310 539 l-25 -7 24 -1 c36 -1 14 -16 -31 -20 -5 -1 -8 -4 -8 -8 0
-15 64 -6 74 10 14 23 -3 36 -34 26z"/>
<path d="M1598 533 c7 -3 16 -2 19 1 4 3 -2 6 -13 5 -11 0 -14 -3 -6 -6z"/>
<path d="M1695 530 c4 -6 11 -8 16 -5 14 9 11 15 -7 15 -8 0 -12 -5 -9 -10z"/>
<path d="M1505 520 c-4 -6 3 -10 14 -10 25 0 27 6 6 13 -8 4 -17 2 -20 -3z"/>
<path d="M1565 520 c-3 -5 -1 -10 4 -10 6 0 11 5 11 10 0 6 -2 10 -4 10 -3 0
-8 -4 -11 -10z"/>
<path d="M1865 510 c-4 -6 12 -10 42 -9 39 1 43 3 23 9 -36 11 -58 11 -65 0z"/>
<path d="M1698 493 c7 -3 16 -2 19 1 4 3 -2 6 -13 5 -11 0 -14 -3 -6 -6z"/>
<path d="M2760 490 c0 -5 7 -10 15 -10 8 0 15 5 15 10 0 6 -7 10 -15 10 -8 0
-15 -4 -15 -10z"/>
<path d="M2009 462 c-1 -4 -1 -10 0 -14 0 -5 -5 -8 -11 -9 -7 0 -2 -5 11 -10
26 -10 43 -3 22 10 -11 7 -11 9 0 13 9 3 8 6 -4 11 -9 3 -18 3 -18 -1z"/>
<path d="M2095 460 c-3 -5 1 -10 9 -10 9 0 16 5 16 10 0 6 -4 10 -9 10 -6 0
-13 -4 -16 -10z"/>
<path d="M2178 463 c7 -3 16 -2 19 1 4 3 -2 6 -13 5 -11 0 -14 -3 -6 -6z"/>
<path d="M2680 460 c-12 -8 -10 -10 8 -10 13 0 20 4 17 10 -7 12 -6 12 -25 0z"/>
<path d="M2615 450 c3 -5 12 -10 20 -10 8 0 17 5 20 10 4 6 -5 10 -20 10 -15
0 -24 -4 -20 -10z"/>
<path d="M736 442 c-3 -6 -1 -14 5 -17 14 -9 20 -2 10 14 -6 8 -11 9 -15 3z"/>
<path d="M2520 440 c0 -5 5 -10 10 -10 6 0 10 5 10 10 0 6 -4 10 -10 10 -5 0
-10 -4 -10 -10z"/>
<path d="M645 430 c-3 -4 4 -10 15 -13 11 -3 22 -2 25 3 3 4 -4 10 -15 13 -11
3 -22 2 -25 -3z"/>
<path d="M700 430 c0 -5 5 -10 10 -10 6 0 10 5 10 10 0 6 -4 10 -10 10 -5 0
-10 -4 -10 -10z"/>
<path d="M1558 433 c17 -2 47 -2 65 0 17 2 3 4 -33 4 -36 0 -50 -2 -32 -4z"/>
<path d="M1718 433 c12 -2 32 -2 45 0 12 2 2 4 -23 4 -25 0 -35 -2 -22 -4z"/>
<path d="M1828 433 c23 -2 61 -2 85 0 23 2 4 4 -43 4 -47 0 -66 -2 -42 -4z"/>
<path d="M1815 400 c3 -5 22 -10 41 -10 19 0 34 5 34 10 0 6 -18 10 -41 10
-24 0 -38 -4 -34 -10z"/>
<path d="M625 391 c9 -16 66 -24 78 -12 8 8 7 11 -3 12 -8 0 -30 2 -48 5 -19
2 -31 0 -27 -5z"/>
<path d="M1598 393 c17 -2 47 -2 65 0 17 2 3 4 -33 4 -36 0 -50 -2 -32 -4z"/>
<path d="M2005 390 c3 -5 13 -10 21 -10 8 0 14 5 14 10 0 6 -9 10 -21 10 -11
0 -17 -4 -14 -10z"/>
<path d="M2670 391 c0 -5 11 -8 25 -7 33 1 33 16 0 16 -14 0 -25 -4 -25 -9z"/>
<path d="M730 380 c0 -5 6 -10 14 -10 8 0 18 5 21 10 3 6 -3 10 -14 10 -12 0
-21 -4 -21 -10z"/>
<path d="M1545 370 c-18 -8 -17 -9 8 -9 15 -1 27 4 27 9 0 12 -8 12 -35 0z"/>
<path d="M2120 365 c0 -8 9 -15 20 -15 11 0 20 7 20 15 0 8 -9 15 -20 15 -11
0 -20 -7 -20 -15z"/>
<path d="M1428 353 c7 -3 16 -2 19 1 4 3 -2 6 -13 5 -11 0 -14 -3 -6 -6z"/>
<path d="M1950 350 c0 -5 5 -10 10 -10 6 0 10 5 10 10 0 6 -4 10 -10 10 -5 0
-10 -4 -10 -10z"/>
<path d="M603 340 c-78 -6 -99 -15 -62 -28 29 -11 171 8 166 22 -4 12 -16 13
-104 6z"/>
<path d="M750 336 c0 -11 8 -12 43 -5 65 15 66 17 10 18 -39 1 -53 -3 -53 -13z"/>
<path d="M2705 329 c18 -5 33 -5 39 1 7 7 -4 10 -29 9 -40 -1 -40 -1 -10 -10z"/>
<path d="M1586 319 c-114 -12 -117 -20 -6 -13 52 3 99 10 105 15 5 6 4 8 -5 8
-8 -1 -51 -5 -94 -10z"/>
<path d="M2078 303 c7 -3 16 -2 19 1 4 3 -2 6 -13 5 -11 0 -14 -3 -6 -6z"/>
<path d="M563 273 c-24 -2 -43 -8 -43 -14 0 -5 5 -9 10 -9 6 0 10 -5 10 -11 0
-6 -9 -8 -20 -4 -12 4 -20 2 -20 -5 0 -16 122 -9 128 8 2 6 -4 12 -13 12 -14
0 -15 3 -5 15 7 8 9 14 4 13 -5 -1 -28 -3 -51 -5z"/>
<path d="M643 273 c9 -2 23 -2 30 0 6 3 -1 5 -18 5 -16 0 -22 -2 -12 -5z"/>
<path d="M1670 270 c0 -5 5 -10 11 -10 5 0 7 5 4 10 -3 6 -8 10 -11 10 -2 0
-4 -4 -4 -10z"/>
<path d="M1743 263 c15 -2 37 -2 50 0 12 2 0 4 -28 4 -27 0 -38 -2 -22 -4z"/>
<path d="M1868 243 c33 -16 50 -13 37 6 -3 6 -21 11 -38 11 l-32 0 33 -17z"/>
<path d="M758 243 c7 -3 16 -2 19 1 4 3 -2 6 -13 5 -11 0 -14 -3 -6 -6z"/>
<path d="M1615 220 c-4 -6 5 -10 20 -10 15 0 24 4 20 10 -3 6 -12 10 -20 10
-8 0 -17 -4 -20 -10z"/>
<path d="M1710 220 c0 -5 5 -10 10 -10 6 0 10 5 10 10 0 6 -4 10 -10 10 -5 0
-10 -4 -10 -10z"/>
<path d="M1775 210 c3 -5 8 -10 11 -10 2 0 4 5 4 10 0 6 -5 10 -11 10 -5 0 -7
-4 -4 -10z"/>
<path d="M2060 200 c0 -11 5 -20 10 -20 6 0 10 9 10 20 0 11 -4 20 -10 20 -5
0 -10 -9 -10 -20z"/>
<path d="M550 170 c-8 -5 -11 -12 -7 -17 5 -4 11 -3 15 3 4 5 25 11 47 13 22
1 42 5 44 7 9 8 -85 3 -99 -6z"/>
<path d="M1975 170 c3 -5 12 -10 20 -10 8 0 17 5 20 10 4 6 -5 10 -20 10 -15
0 -24 -4 -20 -10z"/>
<path d="M1785 150 c4 -6 11 -8 16 -5 14 9 11 15 -7 15 -8 0 -12 -5 -9 -10z"/>
<path d="M2330 139 c0 -5 5 -7 10 -4 6 3 10 8 10 11 0 2 -4 4 -10 4 -5 0 -10
-5 -10 -11z"/>
<path d="M1578 133 c7 -3 16 -2 19 1 4 3 -2 6 -13 5 -11 0 -14 -3 -6 -6z"/>
<path d="M1498 123 c12 -2 30 -2 40 0 9 3 -1 5 -23 4 -22 0 -30 -2 -17 -4z"/>
<path d="M655 4735 c-5 -11 -21 -51 -36 -90 -16 -38 -29 -63 -30 -55 -1 8 -5
-3 -9 -25 -5 -22 -25 -84 -45 -138 -20 -54 -35 -101 -32 -103 3 -3 26 49 52
115 26 66 51 118 56 116 13 -9 21 15 9 30 -7 9 -8 15 0 20 5 3 10 0 10 -7 0
-8 5 -5 11 5 6 10 8 28 5 39 -2 12 2 34 10 50 8 16 13 37 11 46 -3 15 -5 14
-12 -3z"/>
<path d="M350 4685 c0 -8 2 -15 4 -15 2 0 6 7 10 15 3 8 1 15 -4 15 -6 0 -10
-7 -10 -15z"/>
<path d="M388 4620 c-7 -24 -3 -38 8 -28 3 4 4 17 2 30 l-3 23 -7 -25z"/>
<path d="M534 4614 c-4 -10 -13 -34 -20 -53 -16 -39 -17 -41 -6 -41 11 0 46
99 38 107 -3 3 -9 -3 -12 -13z"/>
<path d="M217 4504 c-4 -4 -7 -14 -7 -23 0 -11 3 -12 11 -4 6 6 10 16 7 23 -2
6 -7 8 -11 4z"/>
<path d="M277 4503 c-4 -3 -7 -14 -7 -24 0 -9 -7 -19 -15 -23 -8 -3 -15 -10
-15 -16 0 -6 4 -8 10 -5 7 4 7 -3 0 -19 -6 -16 -6 -26 0 -26 16 0 34 43 36 83
2 39 2 41 -9 30z"/>
<path d="M489 4483 c-6 -16 -15 -35 -19 -43 -4 -9 -10 -31 -14 -50 -7 -34 -6
-35 8 -10 16 28 47 130 40 130 -2 0 -9 -12 -15 -27z"/>
<path d="M336 4449 c-9 -57 -1 -59 17 -5 13 37 13 46 3 46 -8 0 -16 -17 -20
-41z"/>
<path d="M312 4357 c-7 -16 -12 -37 -12 -47 0 -12 -5 -17 -14 -14 -8 3 -16 -3
-19 -16 -3 -13 0 -23 9 -27 9 -3 12 -13 8 -25 -4 -14 -2 -18 5 -14 6 4 11 16
11 27 0 11 7 34 16 50 8 17 14 45 12 62 l-4 32 -12 -28z"/>
<path d="M427 4309 c-9 -24 -19 -57 -23 -74 -4 -16 -10 -34 -14 -40 -4 -5 -11
-20 -14 -32 -6 -17 -3 -23 8 -23 10 0 16 9 16 23 0 13 11 57 25 97 27 81 29
121 2 49z"/>
<path d="M476 4276 c-9 -20 -15 -42 -13 -49 6 -14 40 60 34 76 -2 6 -11 -6
-21 -27z"/>
<path d="M352 4196 c-40 -98 -48 -125 -35 -111 14 14 76 172 71 183 -1 5 -18
-27 -36 -72z"/>
<path d="M497 4193 c-13 -32 -22 -62 -19 -68 3 -5 12 4 19 20 12 27 12 24 7
-35 -5 -46 -3 -62 4 -55 9 8 25 195 17 195 -1 0 -14 -26 -28 -57z"/>
<path d="M2647 3532 c-23 -25 -21 -35 3 -22 18 10 19 9 8 -15 -6 -14 -15 -25
-20 -25 -5 0 -6 -4 -3 -10 9 -14 25 -12 25 3 0 7 9 20 20 30 22 18 26 37 9 37
-5 0 -7 5 -4 10 11 18 -21 11 -38 -8z"/>
<path d="M2610 3440 c0 -5 -5 -10 -11 -10 -16 0 -48 -42 -49 -62 0 -19 8 -22
34 -12 12 5 14 10 6 19 -7 8 -3 18 15 35 26 25 32 40 15 40 -5 0 -10 -4 -10
-10z"/>
<path d="M2683 3356 c18 -14 18 -16 -2 -60 -25 -54 -25 -56 -6 -56 9 0 15 9
15 23 0 13 5 28 11 34 18 18 7 67 -16 71 -19 3 -19 2 -2 -12z"/>
<path d="M2590 3324 c0 -17 11 -18 33 -1 16 11 15 12 -8 13 -15 1 -25 -3 -25
-12z"/>
<path d="M343 3475 c0 -22 2 -30 4 -17 2 12 2 30 0 40 -3 9 -5 -1 -4 -23z"/>
<path d="M338 3365 c-3 -14 -1 -28 3 -31 5 -3 9 9 9 25 0 38 -6 40 -12 6z"/>
<path d="M311 3264 c0 -11 3 -14 6 -6 3 7 2 16 -1 19 -3 4 -6 -2 -5 -13z"/>
<path d="M390 3125 c-1 -5 -1 -25 0 -42 2 -41 -9 -75 -21 -68 -5 4 -8 -15 -8
-42 1 -26 4 -38 6 -25 2 12 9 20 14 17 5 -4 9 1 9 10 0 10 -5 13 -12 9 -7 -4
-5 2 5 13 9 11 17 37 18 59 0 21 3 33 6 27 8 -22 23 -14 23 13 0 19 -4 25 -14
21 -8 -3 -17 -1 -20 6 -2 7 -5 8 -6 2z"/>
<path d="M363 3070 c0 -25 2 -35 4 -22 2 12 2 32 0 45 -2 12 -4 2 -4 -23z"/>
<path d="M319 3025 c-4 -28 5 -126 10 -115 8 17 10 90 3 115 l-9 30 -4 -30z"/>
<path d="M232 3010 c0 -19 2 -27 5 -17 2 9 2 25 0 35 -3 9 -5 1 -5 -18z"/>
<path d="M411 2993 c0 -29 2 -33 8 -18 7 18 4 55 -5 55 -2 0 -4 -17 -3 -37z"/>
<path d="M351 2813 c1 -60 5 -117 10 -128 4 -12 8 33 8 108 1 78 -3 127 -9
127 -6 0 -9 -42 -9 -107z"/>
<path d="M224 2765 c0 -77 2 -107 3 -67 2 40 2 103 0 140 -2 37 -3 4 -3 -73z"/>
<path d="M171 2877 c-1 -10 -5 -15 -11 -12 -6 3 -10 -5 -10 -18 0 -14 7 -28
16 -31 14 -5 15 -4 4 9 -10 12 -10 18 0 30 6 8 10 20 7 27 -3 8 -6 6 -6 -5z"/>
<path d="M326 2730 c3 -85 7 -157 10 -159 9 -9 3 285 -6 299 -7 10 -8 -35 -4
-140z"/>
<path d="M147 2803 c-2 -5 -1 -19 4 -33 7 -23 7 -23 8 8 1 31 -3 40 -12 25z"/>
<path d="M203 2635 c0 -27 2 -38 4 -22 2 15 2 37 0 50 -2 12 -4 0 -4 -28z"/>
<path d="M172 2640 c0 -19 2 -27 5 -17 2 9 2 25 0 35 -3 9 -5 1 -5 -18z"/>
<path d="M222 2595 c0 -16 2 -22 5 -12 2 9 2 23 0 30 -3 6 -5 -1 -5 -18z"/>
<path d="M363 2545 c0 -33 2 -45 4 -27 2 18 2 45 0 60 -2 15 -4 0 -4 -33z"/>
<path d="M221 2525 c1 -22 5 -51 9 -65 6 -20 8 -15 9 25 0 28 -4 57 -9 65 -7
11 -9 4 -9 -25z"/>
<path d="M330 2550 c0 -5 5 -10 10 -10 6 0 10 5 10 10 0 6 -4 10 -10 10 -5 0
-10 -4 -10 -10z"/>
<path d="M212 2450 c0 -14 2 -19 5 -12 2 6 2 18 0 25 -3 6 -5 1 -5 -13z"/>
<path d="M368 2393 c5 -76 10 -83 11 -15 0 34 -2 62 -7 62 -4 0 -6 -21 -4 -47z"/>
<path d="M265 2250 c3 -5 8 -10 11 -10 2 0 4 5 4 10 0 6 -5 10 -11 10 -5 0 -7
-4 -4 -10z"/>
<path d="M250 2045 c0 -27 2 -46 4 -44 8 8 10 78 3 85 -4 4 -7 -14 -7 -41z"/>
<path d="M170 1890 c0 -90 3 -160 7 -156 8 8 7 306 -2 314 -3 3 -5 -68 -5
-158z"/>
<path d="M1362 1458 c-7 -7 -12 -16 -12 -22 0 -12 -71 -78 -78 -72 -2 3 7 19
22 36 14 18 23 37 19 43 -4 6 -32 -17 -69 -59 -69 -75 -84 -82 -29 -13 40 51
45 75 14 75 -26 0 -66 -51 -75 -93 -5 -25 -2 -33 14 -42 26 -14 49 -5 58 21 5
16 12 19 32 14 61 -15 71 -14 85 7 8 12 27 35 42 52 16 17 23 31 16 33 -6 2
-11 10 -11 18 0 17 -12 18 -28 2z"/>
<path d="M1283 1015 c-29 -13 -53 -29 -53 -34 0 -15 9 -13 55 9 22 11 46 19
53 20 6 0 12 7 12 15 0 19 -5 19 -67 -10z"/>
<path d="M1185 970 c-3 -5 1 -10 9 -10 8 0 18 5 21 10 3 6 -1 10 -9 10 -8 0
-18 -4 -21 -10z"/>
<path d="M1155 830 c-3 -5 1 -10 9 -10 9 0 16 5 16 10 0 6 -4 10 -9 10 -6 0
-13 -4 -16 -10z"/>
<path d="M1165 760 c-4 -6 5 -10 20 -10 15 0 24 4 20 10 -3 6 -12 10 -20 10
-8 0 -17 -4 -20 -10z"/>
<path d="M1242 758 c2 -6 10 -14 16 -16 7 -2 10 2 6 12 -7 18 -28 22 -22 4z"/>
<path d="M301 828 c0 -161 2 -288 4 -283 8 20 10 575 3 575 -5 0 -8 -132 -7
-292z"/>
<path d="M302 500 c0 -14 2 -19 5 -12 2 6 2 18 0 25 -3 6 -5 1 -5 -13z"/>
<path d="M760 4900 c0 -5 4 -10 9 -10 6 0 13 5 16 10 3 6 -1 10 -9 10 -9 0
-16 -4 -16 -10z"/>
</g>
</svg>
