<?xml version="1.0" standalone="no"?>
<!DOCTYPE svg PUBLIC "-//W3C//DTD SVG 20010904//EN"
 "http://www.w3.org/TR/2001/REC-SVG-20010904/DTD/svg10.dtd">
<svg version="1.0" xmlns="http://www.w3.org/2000/svg"
 width="618.000000pt" height="357.000000pt" viewBox="0 0 618.000000 357.000000"
 preserveAspectRatio="xMidYMid meet">
<metadata>
Created by potrace 1.16, written by Peter Selinger 2001-2019
</metadata>
<g transform="translate(0.000000,357.000000) scale(0.100000,-0.100000)"
fill="#000000" stroke="none">
<path d="M3477 3553 c-4 -3 -7 -17 -7 -30 l0 -24 -267 1 c-148 0 -277 0 -288
1 -31 1 -358 -1 -375 -3 -8 0 -50 0 -93 0 -73 2 -78 3 -72 22 4 11 2 20 -4 20
-6 0 -11 -9 -11 -21 0 -20 -4 -21 -117 -18 -65 1 -228 1 -363 1 -135 -1 -326
3 -425 8 -171 9 -271 5 -505 -19 -47 -5 -101 -8 -120 -8 -62 1 -273 -14 -335
-23 -33 -5 -91 -12 -128 -15 -80 -6 -91 -10 -84 -36 8 -28 -12 -23 -23 6 -5
14 -13 25 -18 25 -9 0 -32 -85 -30 -110 4 -52 -3 -89 -19 -93 -16 -4 -15 -6 3
-12 20 -6 23 -17 29 -107 14 -191 14 -186 -17 -199 -16 -6 -53 -9 -83 -7 -30
3 -55 1 -55 -4 0 -4 38 -8 85 -8 l85 0 1 -32 c1 -18 2 -48 4 -65 1 -18 -1 -33
-6 -33 -5 0 -9 -4 -9 -10 0 -5 6 -10 14 -10 9 0 12 -8 9 -24 -3 -13 1 -34 8
-47 17 -32 18 -71 2 -87 -13 -13 -19 -112 -7 -112 4 0 13 8 20 18 10 12 13 13
14 3 0 -7 -9 -21 -20 -31 -16 -14 -23 -41 -34 -146 -8 -71 -18 -153 -22 -183
-5 -43 -4 -52 6 -46 10 6 11 -16 5 -116 -11 -170 -13 -477 -4 -634 9 -170 10
-213 4 -315 -7 -128 -6 -207 1 -246 4 -21 2 -40 -6 -49 -7 -9 -9 -22 -5 -32
13 -30 16 -63 6 -63 -6 0 -9 -96 -8 -245 1 -134 5 -237 9 -227 5 14 7 14 7 -4
1 -27 31 -56 31 -30 0 9 4 16 9 16 5 0 8 -8 7 -17 -1 -13 11 -19 44 -26 65
-12 584 -1 607 13 13 8 39 9 88 3 69 -9 69 -10 35 -19 -32 -10 -27 -11 56 -17
101 -8 530 8 612 23 45 8 58 7 93 -12 38 -20 51 -21 210 -16 l169 6 0 -24 c0
-15 6 -24 16 -24 12 0 15 6 10 24 -5 22 -3 25 42 30 26 3 94 8 152 12 58 3
108 8 112 10 4 3 119 7 255 9 136 3 336 12 443 20 107 9 233 18 280 20 47 3
171 10 275 16 105 6 345 14 535 19 190 5 426 13 525 19 403 25 841 34 870 18
25 -13 232 -12 305 2 30 6 58 18 63 26 4 8 16 15 25 15 32 1 53 26 46 54 -3
14 -12 26 -18 26 -9 0 -11 21 -8 73 2 39 5 241 6 447 2 206 7 420 11 475 4 55
9 188 11 295 2 107 6 236 9 286 4 50 2 115 -3 143 -6 34 -6 54 1 58 9 5 5 129
-8 273 -1 19 -8 215 -15 435 -7 242 -17 432 -25 480 -14 81 -13 107 4 64 8
-21 10 -22 16 -7 4 11 -3 29 -19 51 -14 19 -26 41 -26 51 0 22 -46 38 -90 31
-41 -6 -85 -7 -566 -6 -199 1 -368 -1 -377 -4 -8 -4 -18 -1 -22 4 -3 6 -11 9
-16 6 -5 -4 -9 1 -9 9 0 9 -7 16 -15 16 -8 0 -15 -8 -15 -17 0 -17 -24 -18
-358 -18 -196 0 -441 -3 -544 -7 -170 -6 -187 -5 -191 10 -4 15 -5 15 -6 0 -1
-15 -12 -18 -63 -19 -64 -2 -161 1 -299 9 -22 2 -25 6 -21 32 4 30 1 36 -11
23z m-217 -109 c69 -8 84 -17 45 -25 -23 -5 -17 -7 27 -8 68 -1 85 -18 28 -27
-37 -6 -66 -22 -37 -21 50 2 57 -3 57 -35 l1 -33 14 33 c14 31 15 32 82 33 37
0 84 7 103 14 33 13 30 14 -65 13 -66 0 -100 3 -103 11 -3 10 46 17 85 12 7
-1 22 3 34 10 20 10 133 13 282 6 l49 -2 4 -46 3 -47 -47 -7 c-26 -4 -65 -9
-87 -11 -22 -2 -65 -10 -95 -18 l-55 -15 55 5 c30 3 65 8 78 11 21 5 23 3 20
-28 -2 -26 -8 -35 -25 -37 -13 -2 -23 -7 -23 -12 0 -4 27 -2 61 6 65 15 82 12
72 -13 -5 -13 -3 -14 12 -6 26 15 54 5 48 -17 -4 -17 -60 -36 -71 -25 -3 3 2
5 12 5 9 0 14 5 11 10 -9 15 -35 12 -35 -5 0 -8 -6 -12 -14 -9 -8 3 -38 1 -67
-5 -30 -6 -90 -18 -133 -26 -43 -8 -81 -17 -85 -20 -8 -9 72 1 172 21 96 20
108 16 99 -32 -5 -27 -38 -33 -71 -12 -10 6 -27 8 -37 4 -17 -7 -15 -9 12 -21
18 -7 34 -18 38 -23 6 -10 43 -5 61 8 6 4 31 11 57 14 49 7 69 -4 48 -29 -9
-11 -7 -14 11 -17 12 -2 24 -10 26 -18 3 -11 2 -12 -4 -3 -7 10 -17 10 -47 1
-28 -9 -48 -9 -81 0 -48 13 -75 8 -75 -14 0 -8 -8 -14 -19 -14 -10 0 -37 -6
-59 -14 -22 -8 -42 -11 -44 -7 -2 5 -13 11 -25 15 -16 5 -23 2 -26 -11 -3 -13
-5 -11 -6 7 -2 25 -2 25 -17 5 -15 -20 -15 -20 -12 0 2 12 -4 21 -15 23 -16 3
-18 -2 -15 -30 3 -29 0 -33 -22 -36 -23 -2 -24 -2 -7 12 10 8 14 17 8 20 -13
8 -62 -15 -55 -26 3 -4 -2 -11 -10 -14 -30 -12 -16 -22 19 -14 20 5 38 4 41
-1 3 -5 2 -9 -3 -8 -37 6 -45 -17 -10 -31 12 -5 16 -9 9 -9 -8 -1 -29 6 -48
15 -27 13 -37 14 -49 4 -40 -33 1 -69 51 -44 31 16 58 18 49 4 -3 -5 -15 -10
-26 -10 -11 0 -18 -4 -15 -8 10 -16 -11 -29 -68 -41 -45 -10 -67 -21 -92 -48
-32 -34 -33 -34 -75 -23 -39 11 -42 13 -26 25 16 12 16 14 -3 36 -15 19 -22
21 -28 11 -5 -7 -28 -15 -50 -17 -23 -2 -51 -6 -62 -10 -11 -3 -56 -8 -102 -9
-70 -3 -79 -2 -64 10 17 12 18 23 13 106 -4 51 -7 138 -8 193 -1 55 -5 112 -9
126 -6 19 -3 32 9 44 9 10 11 15 4 11 -6 -3 -15 -1 -18 5 -4 6 2 13 14 16 24
6 23 28 0 28 -11 0 -14 16 -14 68 -1 37 2 73 7 80 5 8 42 13 114 14 58 1 109
4 112 8 6 5 106 0 202 -11z m1020 -38 c0 -17 3 -41 6 -53 5 -17 0 -22 -25 -28
-17 -4 -31 -11 -31 -16 0 -13 24 -11 38 3 9 9 12 9 12 -3 0 -16 34 -49 50 -49
18 0 10 19 -11 25 -15 5 -17 10 -10 19 8 9 8 30 1 66 -12 61 -5 73 35 68 26
-3 28 -6 31 -58 2 -30 6 -72 9 -92 5 -35 3 -38 -19 -38 -14 0 -28 -5 -32 -12
-5 -8 2 -9 24 -5 29 6 32 4 32 -19 0 -17 -4 -23 -12 -18 -7 5 -9 2 -5 -8 4
-12 -3 -17 -26 -22 -17 -3 -35 -2 -41 4 -5 5 -19 10 -30 9 -20 0 -20 -1 -2 -8
28 -11 6 -21 -29 -13 -21 5 -31 14 -32 30 -2 14 3 22 12 22 8 0 15 5 15 11 0
6 -6 9 -14 6 -19 -7 -24 9 -32 96 -8 92 -21 107 -26 28 -1 -34 -1 -61 2 -61 3
0 10 -20 16 -45 8 -36 8 -45 -3 -45 -7 0 -13 -4 -13 -10 0 -5 7 -7 15 -4 11 4
15 -1 15 -17 0 -39 47 -196 52 -174 4 19 -3 58 -22 118 -9 28 -8 28 28 25 26
-2 38 -8 40 -20 2 -11 -3 -18 -11 -18 -8 0 -17 -7 -20 -14 -6 -15 6 -15 77 -1
16 3 34 7 40 8 7 1 12 -19 14 -53 2 -30 8 -59 13 -65 7 -7 10 12 7 58 -2 37 0
67 5 67 4 0 7 -6 7 -14 0 -26 20 -28 31 -2 10 20 15 23 29 14 10 -7 15 -19 13
-29 -3 -11 -9 -17 -13 -14 -4 3 -17 -3 -28 -13 -16 -13 -19 -25 -15 -50 5 -30
8 -33 33 -27 33 7 50 -10 20 -20 -25 -8 -26 -22 -2 -28 13 -4 11 -5 -5 -6 -13
0 -23 -7 -23 -15 0 -16 -37 -28 -46 -15 -3 5 4 9 16 9 16 0 21 5 18 23 -3 20
-9 22 -57 23 -47 1 -57 4 -78 30 -21 27 -23 28 -23 7 0 -16 -6 -22 -22 -21
-56 2 -98 -3 -98 -12 0 -5 18 -10 40 -10 22 0 40 -4 40 -10 0 -5 -17 -9 -38
-8 -50 2 -65 -8 -58 -37 4 -17 1 -24 -15 -28 -18 -5 -20 -2 -15 18 7 29 -13
44 -29 22 -7 -9 -15 -13 -20 -9 -4 4 -5 -3 -1 -14 5 -18 1 -24 -25 -33 -39
-13 -59 -14 -59 -2 0 5 14 12 30 16 32 7 32 25 -1 25 -21 0 -27 19 -6 21 10 0
10 2 0 6 -7 2 -13 11 -13 18 0 7 6 16 13 18 8 4 9 8 1 14 -6 4 -10 18 -9 31 1
12 -1 22 -4 22 -3 0 -7 25 -8 55 -1 30 2 55 7 55 10 0 41 -102 42 -141 1 -24
28 -53 28 -29 0 5 9 11 19 15 26 8 16 34 -10 28 -10 -3 -19 -1 -19 5 0 6 -3
17 -6 25 -3 9 3 16 15 20 16 4 21 0 21 -14 0 -10 5 -19 11 -19 8 0 9 11 5 32
-6 30 -5 31 8 13 15 -19 15 -18 16 13 0 17 -4 32 -10 32 -15 0 -12 27 3 33 8
3 20 1 28 -4 23 -15 29 -10 29 21 0 31 -14 38 -40 19 -13 -9 -12 -10 3 -5 9 3
17 1 17 -4 0 -6 -7 -10 -15 -10 -8 0 -17 0 -20 0 -3 0 -5 3 -6 8 0 4 -5 13
-11 20 -7 8 -7 16 1 25 6 8 8 17 5 20 -7 6 -8 17 -20 150 -7 86 -26 78 -23
-11 2 -43 -2 -67 -9 -70 -17 -5 -15 -22 2 -22 10 0 15 -15 18 -49 3 -43 0 -51
-17 -56 -18 -6 -18 -7 5 -14 22 -6 23 -8 7 -14 -23 -9 -57 9 -57 29 0 8 -5 12
-11 9 -6 -4 -8 -13 -5 -21 3 -7 1 -16 -4 -19 -6 -4 -10 5 -10 19 0 19 7 27 25
32 27 7 36 44 11 44 -24 0 -30 22 -11 37 16 11 16 13 3 13 -9 0 -18 11 -21 27
-6 34 0 51 21 56 12 3 10 5 -5 6 -20 1 -23 7 -23 42 l0 40 109 -3 c61 -1 112
0 116 3 3 4 17 4 30 1 20 -3 25 -10 25 -36z m528 16 c2 -14 -1 -21 -9 -20 -7
2 -13 -3 -14 -9 -1 -28 -20 -16 -23 15 -4 35 -32 46 -32 12 0 -11 -4 -20 -9
-20 -5 0 -11 -9 -14 -20 -3 -11 -12 -20 -21 -20 -18 0 -21 15 -6 25 6 4 5 12
-4 21 -17 17 -36 18 -36 3 0 -5 -5 -7 -11 -3 -6 3 -15 0 -20 -7 -14 -22 -10
-32 9 -27 16 5 19 -2 20 -58 2 -51 -1 -62 -12 -58 -16 6 -31 58 -22 73 4 5 2
12 -4 16 -5 3 -10 15 -10 26 0 12 -5 19 -12 16 -13 -4 -14 -63 -3 -139 5 -34
3 -38 -17 -38 -18 0 -20 2 -9 9 12 8 12 12 -3 26 -16 17 -17 54 0 133 2 12 0
22 -6 22 -5 0 -10 -9 -10 -20 0 -11 -7 -23 -16 -27 -12 -5 -15 -24 -13 -117
l2 -111 -28 -3 c-15 -2 -31 2 -36 9 -5 9 -11 8 -24 -4 -9 -10 -22 -17 -29 -17
-8 0 -28 -3 -46 -6 -29 -6 -31 -5 -28 16 4 29 61 48 84 29 11 -9 14 -8 14 4 0
8 6 18 13 20 7 3 5 6 -5 6 -19 1 -26 21 -8 21 6 0 10 7 10 15 0 8 -3 15 -7 15
-5 0 -9 47 -11 104 l-3 105 38 4 c21 2 112 3 203 3 164 -1 165 -1 168 -24z
m412 -3 c0 -10 6 -19 13 -19 9 0 9 -2 -1 -8 -13 -9 -13 -12 8 -151 10 -69 8
-92 -6 -79 -3 3 -6 29 -7 57 -1 28 -6 51 -10 51 -5 0 -7 12 -6 28 2 15 0 32
-3 37 -13 21 -20 85 -9 85 6 0 8 7 4 17 -4 11 -3 14 5 9 7 -4 12 -16 12 -27z
m252 14 c3 -10 3 -24 1 -30 -5 -15 -43 -18 -43 -3 0 6 10 10 23 10 l22 1 -23
12 c-12 7 -19 16 -16 20 13 13 32 7 36 -10z m284 5 c4 -6 3 -8 -4 -4 -6 3 -13
2 -16 -2 -3 -5 -18 -7 -33 -4 l-28 6 30 7 c17 4 33 7 37 8 4 0 10 -4 14 -11z
m-4587 -5 c-3 -20 2 -23 15 -10 20 19 115 21 159 2 20 -8 55 -15 77 -15 22 0
40 -3 40 -7 0 -5 -23 -7 -52 -6 -57 2 -113 -8 -173 -31 -51 -19 -45 -19 73 0
53 9 114 13 135 11 21 -3 37 -1 37 5 0 5 12 8 28 7 15 -2 37 2 48 9 18 9 24 9
35 -4 10 -13 10 -17 -2 -25 -10 -6 -5 -9 19 -9 26 0 32 4 32 21 0 14 -5 19
-15 16 -8 -4 -17 -2 -20 3 -4 6 3 10 15 10 12 0 19 3 17 8 -4 6 86 6 270 1
l31 -1 2 -121 c3 -157 3 -157 11 -157 35 0 39 12 33 94 -3 44 -10 86 -15 92
-5 6 -2 22 6 37 13 24 12 28 -8 42 -21 14 -20 15 18 15 l40 0 -4 -161 c-3
-146 -2 -161 13 -156 9 4 16 2 16 -3 0 -6 -6 -10 -14 -10 -15 0 -24 -69 -18
-147 5 -66 22 -51 22 20 1 54 2 60 14 45 7 -10 23 -18 34 -18 11 0 24 -4 27
-10 3 -5 13 -10 21 -10 20 0 17 20 -3 21 -12 0 -8 4 10 11 31 11 35 24 9 30
-15 4 -19 16 -20 69 0 35 4 69 10 76 8 10 6 13 -6 13 -13 0 -16 11 -16 55 0
31 -5 55 -10 55 -7 0 -8 -32 -4 -94 l7 -94 -26 5 c-23 5 -25 9 -26 70 0 35 -4
70 -8 76 -5 7 -8 45 -8 84 l0 73 30 2 c17 0 37 0 45 -1 8 -2 24 -3 35 -3 17 0
20 -6 17 -39 -3 -24 0 -39 7 -39 10 0 16 34 12 67 -1 6 2 14 7 17 7 4 381 11
420 7 11 -1 13 -25 11 -108 -2 -76 1 -108 9 -111 7 -2 12 1 12 7 0 6 9 11 21
11 11 0 17 5 14 10 -3 6 -1 10 6 10 7 0 9 3 6 6 -4 4 -13 1 -22 -6 -9 -7 -17
-11 -19 -9 -2 2 -6 46 -9 97 l-7 92 45 0 45 0 2 -47 c0 -27 1 -54 1 -60 -1 -7
6 -13 14 -13 12 0 14 9 11 43 -8 76 32 125 46 56 11 -57 7 -76 -16 -84 -17 -5
-19 -8 -7 -11 11 -4 16 -19 17 -60 1 -30 4 -60 8 -66 11 -18 16 -376 5 -382
-6 -4 -7 -14 -4 -23 4 -11 3 -14 -5 -9 -7 4 -12 13 -12 21 0 14 -13 14 -147 0
-50 -6 -77 -4 -86 4 -11 9 -17 8 -27 -4 -9 -11 -28 -15 -62 -14 -39 2 -48 6
-48 21 0 15 -8 18 -50 18 -43 0 -50 3 -50 20 0 11 -4 20 -10 20 -5 0 -10 -9
-10 -20 0 -13 -7 -20 -20 -20 -22 0 -27 -15 -7 -23 6 -3 -1 -5 -18 -5 -16 0
-24 2 -17 5 21 8 13 23 -14 23 -14 0 -23 -4 -19 -10 3 -5 2 -10 -3 -10 -11 0
-22 24 -22 47 0 11 7 14 25 11 14 -3 28 -1 31 3 3 5 -5 9 -16 9 -16 0 -20 4
-16 16 6 14 0 16 -39 11 -44 -4 -46 -3 -52 23 -3 16 -13 31 -22 34 -9 3 -22 9
-28 12 -10 4 -11 -6 -7 -40 6 -38 4 -46 -9 -46 -8 0 -22 -3 -31 -6 -13 -5 -16
2 -16 34 0 58 -18 62 -23 5 -2 -31 -4 -21 -4 27 0 41 2 65 4 53 2 -13 9 -23
14 -23 6 0 9 10 8 23 -2 12 0 27 4 34 4 6 3 14 -3 18 -5 3 -10 24 -10 46 0 43
-4 46 -27 24 -12 -13 -15 -41 -15 -138 1 -96 -1 -117 -10 -99 -14 28 -19 28
-55 -7 -27 -25 -39 -29 -127 -35 -53 -4 -127 -14 -164 -21 -37 -8 -110 -19
-162 -25 -52 -6 -103 -13 -112 -16 -13 -4 -18 0 -18 14 0 16 10 21 58 28 31 4
65 6 75 5 9 -1 17 3 17 8 0 6 7 11 15 11 8 0 15 4 15 9 0 10 -57 5 -101 -9
-17 -5 -31 -4 -38 3 -8 8 -11 8 -11 -2 0 -9 -8 -11 -25 -7 -14 4 -25 2 -25 -4
0 -5 -18 -10 -40 -10 -23 0 -40 -5 -40 -11 0 -8 14 -10 45 -6 39 6 45 4 45
-12 0 -15 -10 -20 -57 -24 -164 -18 -374 -19 -237 -2 68 8 118 16 139 22 17 5
16 7 -10 14 -19 6 -32 4 -36 -3 -11 -17 -29 1 -29 28 0 19 5 24 28 25 l27 2
-27 4 c-16 2 -28 8 -28 12 0 4 12 12 28 18 l27 11 -34 1 c-28 1 -37 13 -13 17
37 6 72 18 72 24 0 4 -17 4 -37 -1 -48 -10 -48 -10 -51 49 -1 13 -6 21 -11 18
-5 -3 -7 -20 -4 -38 2 -19 -2 -40 -9 -49 -15 -19 -65 -38 -54 -21 11 18 -7 20
-49 7 l-40 -13 32 -1 c17 -1 33 -6 35 -13 4 -11 46 -15 78 -7 11 3 16 -7 18
-39 3 -40 2 -43 -20 -40 -15 2 -22 9 -20 21 2 9 -2 17 -8 17 -5 0 -10 -11 -10
-25 0 -17 -6 -25 -17 -25 -10 0 -35 -3 -55 -6 l-38 -7 0 37 c0 20 -4 36 -9 36
-13 0 -20 -36 -10 -51 4 -8 3 -19 -3 -27 -9 -10 -8 -16 3 -23 8 -5 12 -9 9 -9
-3 -1 -20 -3 -38 -5 -32 -3 -50 -11 -41 -19 2 -2 76 -7 164 -11 163 -7 328 5
540 40 50 8 123 16 163 19 l72 4 -27 -26 c-22 -20 -42 -26 -108 -33 -49 -5
-84 -4 -89 1 -13 13 -66 13 -66 -1 0 -5 -4 -7 -10 -4 -5 3 -10 1 -10 -4 0 -6
-5 -11 -11 -11 -5 0 -7 5 -4 10 8 12 11 12 -160 -4 -141 -13 -599 -15 -612 -3
-3 4 10 7 30 7 21 0 37 5 37 11 0 5 -5 7 -10 4 -19 -12 -23 26 -5 45 23 25 15
34 -24 25 -20 -4 -28 -11 -24 -21 6 -16 -32 -21 -41 -5 -3 5 -16 7 -28 4 -14
-4 -26 0 -34 12 -13 18 -14 18 -14 -3 0 -12 -4 -22 -10 -22 -13 0 -13 37 -1
45 13 8 205 33 271 36 30 1 62 8 70 14 8 7 25 16 38 19 32 10 27 27 -5 21 -16
-3 -22 -2 -15 1 23 11 12 24 -14 18 -15 -4 -29 -2 -33 4 -4 7 -11 4 -19 -8
-10 -17 -10 -20 4 -20 9 0 14 -6 11 -12 -2 -7 -10 -12 -16 -10 -14 3 -133 -16
-155 -24 -9 -3 -16 -1 -16 4 0 10 60 23 144 31 4 1 6 8 2 16 -3 8 -1 15 4 15
5 0 7 7 4 15 -5 11 -10 12 -26 4 -11 -6 -17 -17 -14 -25 3 -9 -1 -14 -12 -15
-9 0 -39 -4 -65 -8 -38 -6 -47 -5 -43 6 3 7 -1 13 -9 13 -8 0 -15 -6 -15 -14
0 -13 -41 -26 -86 -26 -26 0 -27 1 -18 24 3 9 15 16 25 16 11 0 19 7 19 16 0
11 -6 14 -20 9 -14 -5 -20 -2 -20 9 0 9 -4 16 -10 16 -13 0 -13 -6 0 -30 8
-15 6 -21 -10 -30 -16 -8 -20 -8 -20 4 0 28 -20 27 -26 -2 -4 -21 -11 -28 -27
-28 -14 1 -21 -4 -19 -13 2 -10 -6 -12 -28 -9 -21 3 -30 0 -30 -9 0 -8 6 -13
13 -12 6 1 21 1 32 0 30 -2 -2 -21 -36 -21 -22 0 -28 5 -31 30 -4 28 -2 30 28
30 18 0 36 5 39 10 3 6 15 10 26 10 12 0 19 7 19 20 0 11 -4 20 -10 20 -5 0
-10 -3 -10 -7 0 -5 -11 -9 -25 -9 -14 -1 -37 -5 -51 -8 -25 -7 -26 -5 -21 21
3 15 -1 42 -8 59 -7 18 -13 71 -14 122 0 81 2 90 17 86 15 -5 15 -4 -1 6 -20
13 -14 32 8 23 8 -3 15 0 15 6 0 6 -7 11 -15 11 -8 0 -15 7 -15 15 0 9 9 15
24 15 14 0 28 5 31 10 4 6 -5 10 -19 10 -28 0 -34 14 -13 27 7 4 20 20 29 34
12 19 25 26 49 26 19 0 37 7 45 18 11 15 22 17 62 12 43 -5 71 -2 160 18 12 3
22 2 22 -3 0 -5 -33 -15 -72 -23 -53 -10 -65 -14 -44 -17 16 -2 48 1 70 7 39
10 96 19 152 26 15 1 29 7 33 12 9 14 204 12 214 -1 6 -8 10 -7 14 2 2 6 18
12 34 12 29 0 39 14 17 23 -7 3 6 6 30 6 23 1 41 -2 41 -6z m314 0 c-13 -2
-33 -2 -45 0 -13 2 -3 4 22 4 25 0 35 -2 23 -4z m2491 -35 c-1 -24 -3 -45 -4
-48 -1 -3 -1 -15 0 -27 1 -19 -4 -23 -29 -24 -17 -1 -35 -2 -41 -3 -24 -2 -9
20 19 28 40 11 41 27 1 20 -28 -6 -30 -5 -30 24 0 17 -3 37 -6 46 -4 12 4 16
43 19 26 2 48 4 49 5 0 1 -1 -17 -2 -40z m951 -5 c11 -79 16 -92 31 -86 9 3
14 -2 14 -15 0 -11 7 -25 15 -32 19 -16 19 -18 -6 85 -21 89 -20 107 4 87 8
-7 16 -10 19 -7 3 3 5 -35 4 -84 -1 -49 2 -93 7 -97 14 -14 15 1 5 55 -6 35
-6 56 0 60 6 3 12 20 15 36 2 17 5 2 6 -32 0 -34 5 -73 11 -87 7 -19 6 -29 -5
-40 -13 -12 -13 -15 0 -20 8 -3 15 -14 15 -24 0 -10 5 -23 11 -29 8 -8 8 -17
1 -29 -8 -15 -13 -11 -30 27 -18 40 -20 42 -21 17 -1 -16 -7 -28 -14 -28 -8 0
-20 12 -27 28 l-14 27 -6 -42 c-5 -44 -19 -47 -34 -8 -7 17 -10 14 -21 -20 -7
-22 -13 -32 -14 -22 -1 10 -5 16 -10 12 -5 -3 -12 -1 -15 4 -4 5 -1 13 6 17 8
5 6 10 -8 15 -17 6 -15 9 14 19 41 15 45 45 3 37 -15 -3 -33 -1 -40 6 -7 7
-11 7 -11 1 0 -9 -41 -34 -55 -34 -3 0 -5 9 -5 21 0 15 5 19 15 15 8 -3 15 -4
15 -2 0 3 3 11 6 20 4 11 0 16 -12 16 -9 0 -15 3 -11 6 3 4 0 23 -9 42 -12 28
-12 37 -2 44 18 11 48 10 48 -2 0 -5 -9 -10 -20 -10 -13 0 -18 -5 -14 -15 4
-8 10 -15 16 -15 5 0 6 4 3 10 -3 5 0 7 8 4 17 -6 29 -64 14 -64 -23 0 5 -13
32 -15 19 -2 32 3 36 13 7 18 3 23 -22 26 -22 3 -31 46 -10 46 8 0 20 7 27 15
10 12 10 15 -2 15 -10 0 -13 11 -10 40 3 30 8 40 22 40 14 0 19 -11 25 -47z
m170 25 c4 -13 9 -30 10 -40 1 -9 5 -23 8 -31 3 -9 -1 -18 -11 -22 -22 -8 -25
-5 -28 25 -2 14 -6 35 -9 48 -10 42 17 59 30 20z m262 16 c-3 -3 -12 -4 -19
-1 -8 3 -5 6 6 6 11 1 17 -2 13 -5z m208 -22 c1 -12 -3 -22 -9 -22 -7 0 -13
12 -14 26 -1 16 3 24 10 22 6 -2 12 -14 13 -26z m60 18 c3 -5 -3 -10 -14 -10
-11 0 -23 5 -26 10 -3 6 3 10 14 10 11 0 23 -4 26 -10z m-5208 -6 c-3 -3 -12
-4 -19 -1 -8 3 -5 6 6 6 11 1 17 -2 13 -5z m4443 -40 c0 -21 -4 -33 -10 -29
-5 3 -10 22 -10 41 0 21 4 33 10 29 6 -3 10 -22 10 -41z m314 -1 c11 -71 8
-93 -14 -93 -11 0 -19 3 -18 8 1 4 -1 18 -5 32 -18 78 -18 90 7 90 19 0 24 -7
30 -37z m114 -14 c1 -23 -3 -48 -10 -56 -9 -11 -8 -13 2 -11 7 2 15 -3 17 -10
3 -8 -1 -10 -11 -6 -9 3 -16 1 -16 -5 0 -6 7 -11 15 -11 15 0 32 -46 21 -58
-4 -3 -9 4 -13 16 -9 36 -22 25 -13 -13 5 -24 4 -38 -5 -45 -10 -8 -13 2 -14
46 0 31 -3 59 -5 63 -3 4 2 20 10 36 11 22 12 36 4 58 -5 16 -7 33 -4 38 11
18 21 -1 22 -42z m110 6 c2 -22 8 -43 14 -46 6 -4 12 -31 15 -60 2 -35 10 -59
21 -69 26 -23 16 -50 -19 -50 -16 0 -29 5 -29 10 0 6 -11 15 -25 20 -20 8 -25
16 -25 44 0 19 6 37 13 40 10 5 10 7 0 12 -7 3 -13 19 -13 36 0 21 -4 29 -13
25 -10 -4 -14 5 -15 29 -1 19 -4 40 -8 45 -4 7 10 9 38 7 42 -3 43 -4 46 -43z
m-5066 -37 c-23 -24 -28 -15 -15 30 5 21 7 22 22 8 14 -15 13 -18 -7 -38z m68
42 c0 -5 -4 -10 -10 -10 -5 0 -10 5 -10 10 0 6 5 10 10 10 6 0 10 -4 10 -10z
m5286 -46 c2 -65 -13 -60 -22 9 -5 36 -4 47 7 47 10 0 14 -16 15 -56z m-223
34 c-4 -7 -7 -44 -6 -83 l1 -70 -12 55 c-7 32 -9 60 -4 67 5 7 5 14 -2 18 -14
8 -3 25 16 25 10 0 12 -5 7 -12z m166 5 c-1 -16 -18 -48 -18 -36 -1 6 -4 18
-7 27 -4 11 -1 16 10 16 9 0 16 -3 15 -7z m-72 -25 c-3 -8 -6 -5 -6 6 -1 11 2
17 5 13 3 -3 4 -12 1 -19z m-815 -12 c11 -16 10 -38 -1 -32 -5 4 -12 0 -14 -6
-3 -8 -6 -6 -6 5 -1 19 -21 24 -21 5 0 -9 -3 -8 -10 2 -17 28 34 54 52 26z
m768 -10 c0 -13 3 -31 6 -40 3 -9 1 -16 -5 -16 -6 0 -11 11 -11 24 0 14 -4 28
-10 31 -15 9 -12 25 5 25 9 0 15 -9 15 -24z m-1640 -26 c0 -6 -10 -15 -22 -20
-22 -8 -22 -9 5 -9 31 -1 39 -31 7 -31 -11 0 -20 5 -20 10 0 12 -56 14 -63 3
-2 -5 -2 -3 -1 4 2 6 -4 14 -12 17 -25 9 -15 25 19 29 63 8 87 7 87 -3z m1691
-78 c5 -13 14 -20 19 -17 6 3 10 1 10 -4 0 -17 -32 -13 -46 7 -7 9 -13 37 -13
62 l1 45 10 -35 c5 -19 14 -45 19 -58z m-1571 54 c0 -21 -5 -24 -45 -28 -37
-3 -45 0 -45 14 0 12 13 20 43 26 23 6 43 10 45 11 1 1 2 -10 2 -23z m1139 -1
c1 -11 2 -38 4 -60 1 -22 8 -44 15 -48 20 -13 14 -27 -14 -27 -19 0 -25 4 -20
15 4 10 -1 15 -16 15 -19 0 -20 4 -14 49 4 34 3 50 -6 53 -20 7 0 26 26 24 16
-1 24 -7 25 -21z m-379 -16 c0 -5 -4 -9 -10 -9 -5 0 -10 7 -10 16 0 8 5 12 10
9 6 -3 10 -10 10 -16z m430 11 c0 -5 -7 -7 -15 -4 -8 4 -15 8 -15 10 0 2 7 4
15 4 8 0 15 -4 15 -10z m437 -32 c-3 -7 -5 -2 -5 12 0 14 2 19 5 13 2 -7 2
-19 0 -25z m-937 2 c0 -5 -4 -10 -10 -10 -5 0 -10 5 -10 10 0 6 5 10 10 10 6
0 10 -4 10 -10z m523 -63 c9 -5 7 -11 -5 -21 -16 -12 -16 -14 8 -25 14 -6 31
-8 37 -4 8 5 8 2 0 -9 -7 -8 -10 -17 -7 -20 3 -3 1 -9 -5 -13 -6 -3 -11 -1
-11 4 0 6 -8 11 -18 11 -15 0 -22 14 -34 70 -13 63 -13 70 1 72 11 3 17 -6 19
-27 2 -16 9 -33 15 -38z m-1223 41 c0 -10 2 -10 9 0 6 11 9 9 14 -7 4 -16 -1
-21 -25 -26 -16 -4 -32 -4 -35 -1 -4 3 1 6 11 6 9 0 15 4 12 8 -3 5 -20 7 -38
4 -36 -5 -30 12 7 21 35 8 45 7 45 -5z m657 0 c0 -7 4 -26 7 -43 7 -30 7 -30
-9 4 -8 18 -15 37 -15 42 0 14 17 10 17 -3z m113 -14 c0 -14 -4 -23 -10 -19
-5 3 -10 15 -10 26 0 10 5 19 10 19 6 0 10 -12 10 -26z m-60 -21 c0 -7 -7 -13
-15 -13 -15 0 -21 31 -8 43 8 8 23 -12 23 -30z m-106 -34 c2 -24 7 -52 11 -61
4 -10 3 -18 -2 -18 -19 0 -41 36 -47 77 -4 34 -2 42 12 46 22 5 21 7 26 -44z
m736 35 c0 -8 -4 -12 -10 -9 -5 3 -10 10 -10 16 0 5 5 9 10 9 6 0 10 -7 10
-16z m-3353 -16 c-3 -8 -6 -5 -6 6 -1 11 2 17 5 13 3 -3 4 -12 1 -19z m3673
-8 c0 -5 -4 -10 -10 -10 -5 0 -10 5 -10 10 0 6 5 10 10 10 6 0 10 -4 10 -10z
m-1677 -7 c-7 -2 -13 -9 -13 -14 0 -4 7 -6 15 -3 12 5 15 -5 16 -52 0 -33 3
-84 5 -114 2 -30 1 -80 -3 -110 -5 -51 -6 -53 -15 -27 -7 20 -7 32 0 39 8 8 7
15 -3 24 -21 21 -37 17 -30 -7 5 -15 3 -20 -6 -17 -17 5 -25 57 -10 59 6 1 17
2 24 3 15 1 15 7 -2 79 -10 39 -19 57 -30 58 -9 0 0 7 19 14 27 10 30 14 13
14 -27 1 -40 20 -22 32 11 7 11 9 -3 9 -9 0 -20 -4 -23 -10 -3 -5 -19 -10 -35
-10 -41 0 -49 -20 -8 -21 32 -2 31 -2 -7 -8 -37 -6 -54 1 -55 22 0 4 7 7 15 7
8 0 15 4 15 8 0 5 28 13 63 19 73 12 98 14 80 6z m1533 -10 c-1 -18 -37 -43
-63 -43 -20 0 -6 18 31 41 17 10 32 19 32 19 1 0 1 -8 0 -17z m-751 -3 c-3 -5
-12 -10 -18 -10 -7 0 -6 4 3 10 19 12 23 12 15 0z m-45 -9 c0 -5 -6 -12 -12
-14 -8 -3 -5 -6 6 -6 15 -1 16 -4 6 -16 -16 -19 -30 -10 -30 21 0 15 6 24 15
24 8 0 15 -4 15 -9z m-47 -50 c-2 -3 -10 4 -17 15 -11 14 -11 21 -3 26 11 7
29 -31 20 -41z m187 40 c0 -5 -6 -14 -14 -20 -12 -10 -17 -8 -26 8 -9 19 -8
21 15 21 14 0 25 -4 25 -9z m565 -1 c-27 -12 -35 -12 -35 0 0 6 12 10 28 9 24
0 25 -1 7 -9z m-655 -10 c0 -5 -4 -10 -10 -10 -5 0 -10 5 -10 10 0 6 5 10 10
10 6 0 10 -4 10 -10z m577 -4 c-4 -9 1 -17 11 -19 13 -4 12 -5 -4 -6 -12 0
-24 -8 -28 -16 -3 -8 -12 -15 -21 -15 -22 0 -18 18 6 25 11 4 18 13 15 20 -5
14 2 25 17 25 5 0 7 -6 4 -14z m-3235 -54 c1 -39 -6 -61 -17 -51 -7 8 -13 97
-7 104 12 11 22 -12 24 -53z m2006 28 c-1 -22 -6 -30 -19 -30 -10 0 -21 12
-28 30 -10 29 -9 30 19 30 25 0 29 -3 28 -30z m1044 0 c-12 -12 -22 -30 -22
-40 0 -11 -7 -20 -15 -20 -19 0 -19 17 1 37 11 12 12 18 4 23 -8 5 -2 11 16
17 38 13 43 8 16 -17z m-52 0 c0 -5 -7 -10 -16 -10 -8 0 -12 5 -9 10 3 6 10
10 16 10 5 0 9 -4 9 -10z m-261 -30 c4 0 7 -9 8 -20 1 -11 -2 -20 -8 -20 -5 0
-9 5 -9 10 0 6 -6 10 -14 10 -11 0 -12 5 -3 25 8 17 13 20 15 10 2 -8 7 -15
11 -15z m132 -40 c37 0 38 -19 2 -22 -117 -6 -110 -9 -111 34 -2 48 23 53 32
6 8 -40 18 -30 18 19 l0 38 15 -37 c13 -32 20 -38 44 -38z m266 38 c-3 -8 -6
-5 -6 6 -1 11 2 17 5 13 3 -3 4 -12 1 -19z m-29 0 c-6 -16 -33 -22 -56 -13
-15 6 -15 8 3 15 31 13 57 12 53 -2z m-3081 -20 c-3 -8 -6 -5 -6 6 -1 11 2 17
5 13 3 -3 4 -12 1 -19z m2444 -11 c-18 -4 -36 -6 -39 -3 -8 9 41 24 58 18 9
-4 2 -9 -19 -15z m113 17 c22 -8 20 -19 -3 -21 -11 -1 -22 5 -25 13 -6 15 3
18 28 8z m-164 -24 c0 -28 -34 -31 -47 -4 -10 21 -8 23 18 22 21 -1 29 -6 29
-18z m539 -1 c-8 -5 -21 -9 -29 -9 -12 1 -11 4 4 15 10 8 23 12 29 8 5 -3 3
-9 -4 -14z m-286 -28 c6 -25 0 -31 -32 -31 l-26 1 25 15 c14 8 17 13 8 10 -18
-5 -32 6 -21 18 13 13 41 5 46 -13z m77 -2 c0 -5 -11 -9 -25 -9 -33 0 -33 15
0 16 14 1 25 -2 25 -7z m-1000 -19 c0 -5 -7 -10 -16 -10 -8 0 -12 5 -9 10 3 6
10 10 16 10 5 0 9 -4 9 -10z m710 6 c0 -3 -4 -8 -10 -11 -5 -3 -10 -1 -10 4 0
6 5 11 10 11 6 0 10 -2 10 -4z m-800 -15 c0 -6 -4 -13 -10 -16 -5 -3 -10 -1
-10 4 0 14 -50 14 -70 1 -11 -8 -8 -9 13 -4 27 6 39 -9 15 -19 -7 -3 3 -6 22
-7 19 -1 29 -4 22 -7 -6 -2 -10 -9 -6 -14 3 -5 -1 -12 -10 -15 -9 -3 -12 -12
-9 -21 4 -10 2 -14 -4 -10 -6 4 -10 -3 -10 -18 0 -14 3 -25 8 -25 5 0 9 -4 9
-10 0 -5 -11 -10 -25 -10 -14 0 -25 4 -25 9 0 5 -10 12 -22 16 -20 6 -20 8 -5
12 9 2 17 8 17 12 0 9 -38 29 -64 33 -26 4 -32 25 -9 31 12 3 9 5 -8 6 -26 1
-46 25 -30 35 4 3 29 7 56 11 27 3 51 8 54 10 9 9 101 5 101 -4z m140 -13 c0
-18 -2 -20 -9 -8 -6 8 -7 18 -5 22 9 14 14 9 14 -14z m664 -3 c-7 -16 -24 -21
-24 -6 0 8 7 13 27 20 1 1 0 -6 -3 -14z m96 5 c0 -5 -5 -10 -11 -10 -5 0 -7 5
-4 10 3 6 8 10 11 10 2 0 4 -4 4 -10z m-2550 -36 c0 -26 -17 -33 -26 -9 -8 20
3 48 16 40 5 -3 10 -17 10 -31z m1740 26 c-8 -5 -28 -9 -45 -9 l-30 1 30 8
c17 4 37 8 45 9 13 1 13 0 0 -9z m450 0 c0 -5 -5 -10 -11 -10 -5 0 -7 5 -4 10
3 6 8 10 11 10 2 0 4 -4 4 -10z m-790 -19 c0 -10 -26 -9 -36 2 -4 4 2 7 14 7
12 0 22 -4 22 -9z m857 -5 c-4 -10 1 -12 14 -9 10 3 19 1 19 -4 0 -5 -6 -10
-12 -10 -7 0 -21 -4 -31 -8 -13 -6 -16 -3 -11 9 3 9 1 16 -5 16 -20 0 -11 16
10 17 13 1 19 -3 16 -11z m-504 -16 c-4 -15 0 -20 16 -20 11 0 21 -5 21 -11 0
-6 -7 -8 -16 -5 -9 3 -20 6 -25 6 -5 0 -9 6 -9 14 0 8 -5 18 -11 22 -7 4 -10
-4 -7 -22 3 -25 -1 -29 -24 -32 -23 -3 -27 0 -21 15 4 10 11 21 17 25 7 5 3 8
-9 9 l-20 0 20 9 c11 5 32 9 47 9 21 1 25 -3 21 -19z m37 10 c0 -5 -5 -10 -11
-10 -5 0 -7 5 -4 10 3 6 8 10 11 10 2 0 4 -4 4 -10z m-3040 -24 c0 -3 -4 -8
-10 -11 -5 -3 -10 -1 -10 4 0 6 5 11 10 11 6 0 10 -2 10 -4z m1294 -12 c19 -7
21 -44 3 -44 -8 0 -19 11 -25 25 -12 25 -6 30 22 19z m2083 0 c-3 -3 -12 -4
-19 -1 -8 3 -5 6 6 6 11 1 17 -2 13 -5z m-2247 -56 c0 -51 -5 -47 -13 10 -3
24 -1 40 4 36 5 -3 9 -24 9 -46z m38 11 c-5 -3 -6 -13 -2 -22 3 -10 1 -17 -5
-17 -12 0 -15 62 -4 74 4 4 10 -1 14 -11 3 -10 2 -21 -3 -24z m1932 11 c0 -11
-7 -20 -15 -20 -8 0 -15 2 -15 4 0 2 -3 11 -6 20 -4 12 0 16 15 16 14 0 21 -6
21 -20z m-3363 -5 c-1 -5 -11 -11 -22 -12 -11 -2 -30 -5 -42 -8 -13 -3 -23 -1
-23 4 0 6 19 14 43 19 48 10 46 10 44 -3z m1273 -4 c0 -10 -25 -16 -105 -27
-27 -3 -115 -17 -194 -30 -163 -27 -172 -28 -151 -13 11 8 7 9 -19 5 -18 -3
-41 -6 -50 -6 -14 0 -14 -2 -1 -11 11 -8 7 -9 -17 -5 -18 3 -33 2 -33 -3 0 -9
2 -9 -120 -16 -63 -4 -90 -3 -81 3 11 8 9 11 -10 14 -13 2 26 7 86 11 110 8
164 14 350 42 55 8 123 17 150 20 28 3 75 9 105 14 77 12 90 12 90 2z m-1380
-11 c0 -5 -4 -10 -10 -10 -5 0 -10 5 -10 10 0 6 5 10 10 10 6 0 10 -4 10 -10z
m3025 0 c4 -6 -5 -10 -19 -10 -14 0 -26 5 -26 10 0 6 9 10 19 10 11 0 23 -4
26 -10z m295 0 c0 -5 -5 -10 -11 -10 -5 0 -7 5 -4 10 3 6 8 10 11 10 2 0 4 -4
4 -10z m-3358 -12 c-7 -7 -8 -16 -3 -22 5 -6 11 -24 13 -40 2 -22 -2 -30 -19
-37 -13 -5 -23 -4 -23 0 0 5 7 11 15 15 8 3 15 11 15 17 0 9 -3 9 -14 0 -11
-9 -15 -6 -18 14 -3 14 -1 25 3 25 5 0 9 9 9 20 0 12 7 20 17 20 13 0 14 -3 5
-12z m3673 2 c-3 -5 -13 -10 -21 -10 -8 0 -12 5 -9 10 3 6 13 10 21 10 8 0 12
-4 9 -10z m-2269 -25 c-22 -17 -36 -19 -36 -7 0 14 12 22 34 22 21 -1 21 -1 2
-15z m501 9 c-3 -3 -12 -4 -19 -1 -8 3 -5 6 6 6 11 1 17 -2 13 -5z m-1862 -44
c1 -16 -2 -27 -7 -24 -4 3 -8 19 -8 36 0 39 13 29 15 -12z m3103 23 c-2 -11
-20 -23 -43 -31 -34 -11 -40 -11 -48 3 -4 8 -12 13 -18 10 -5 -4 -9 -1 -9 4 0
6 1 11 3 12 1 0 22 3 47 6 25 3 47 7 49 9 11 10 22 2 19 -13z m-1650 -55 c10
-52 8 -56 -20 -31 -18 16 -25 73 -11 87 11 11 20 -6 31 -56z m-1598 20 c0 -34
-13 -29 -25 10 -5 16 -2 22 9 22 11 0 16 -10 16 -32z m50 21 c0 -11 -27 -29
-33 -22 -14 14 -6 32 13 30 11 -1 20 -4 20 -8z m2420 -4 c0 -9 -10 -15 -27
-16 -69 -3 -99 -6 -115 -13 -13 -6 -18 -4 -18 8 0 9 6 16 13 16 24 1 92 12 96
16 12 11 51 2 51 -11z m915 3 c-3 -7 -17 -14 -32 -15 -26 -1 -27 0 -8 13 23
17 46 18 40 2z m-1615 -8 c0 -5 -4 -10 -9 -10 -6 0 -13 5 -16 10 -3 6 1 10 9
10 9 0 16 -4 16 -10z m220 -3 c0 -16 57 -14 73 2 17 17 189 14 213 -3 18 -14
18 -15 -9 -25 -16 -6 -33 -9 -37 -6 -5 3 -25 -4 -45 -15 l-36 -20 -18 21 c-15
18 -23 20 -59 14 -23 -4 -49 -14 -57 -22 -20 -19 -45 -1 -45 32 0 13 -6 26
-12 28 -7 3 -3 6 10 6 12 1 22 -5 22 -12z m-1340 -7 c11 -7 -3 -9 -45 -9 -52
1 -55 3 -25 9 51 11 53 11 70 0z m837 4 c-3 -3 -12 -4 -19 -1 -8 3 -5 6 6 6
11 1 17 -2 13 -5z m1523 -4 c0 -5 -4 -10 -10 -10 -5 0 -10 5 -10 10 0 6 5 10
10 10 6 0 10 -4 10 -10z m-293 -12 c-2 -8 -17 -12 -35 -11 -17 2 -34 -2 -37
-7 -3 -6 -13 -10 -22 -10 -12 0 -13 3 -3 14 19 24 105 35 97 14z m-2402 -8 c3
-5 1 -10 -4 -10 -6 0 -11 5 -11 10 0 6 2 10 4 10 3 0 8 -4 11 -10z m1500 0 c3
-5 2 -10 -4 -10 -5 0 -13 5 -16 10 -3 6 -2 10 4 10 5 0 13 -4 16 -10z m-1537
-35 c-8 -8 -153 -9 -153 -1 0 5 30 8 68 7 57 -2 68 0 74 16 7 17 8 17 11 0 2
-10 2 -20 0 -22z m2182 9 c0 -10 -7 -14 -22 -12 -17 2 -23 -2 -22 -14 1 -10
-3 -18 -10 -19 -105 -9 -105 -9 -116 11 -11 21 -5 24 50 21 14 -1 41 5 60 13
45 20 60 20 60 0z m74 7 c6 -10 -44 -22 -58 -14 -11 7 14 23 36 23 9 0 19 -4
22 -9z m36 -6 c0 -8 -4 -15 -10 -15 -5 0 -10 7 -10 15 0 8 5 15 10 15 6 0 10
-7 10 -15z m-1240 -4 c0 -15 -33 -22 -96 -20 -118 3 -86 15 74 27 12 1 22 -2
22 -7z m440 -36 c0 -25 7 -61 14 -80 8 -19 13 -36 10 -36 -2 -1 -7 -2 -11 -4
-23 -6 -49 -20 -55 -29 -4 -6 -8 6 -8 26 0 27 5 40 20 48 23 13 27 40 5 40
-18 0 -19 20 -3 55 17 38 28 30 28 -20z m180 29 c0 -8 -5 -12 -10 -9 -6 4 -8
11 -5 16 9 14 15 11 15 -7z m-262 -30 c-10 -10 -28 6 -28 24 0 15 1 15 17 -1
9 -9 14 -19 11 -23z m-624 14 c-3 -4 -20 -8 -37 -9 -18 0 -41 -4 -52 -9 -19
-8 -19 -9 3 -11 12 -1 27 -2 34 -3 6 0 13 -6 15 -12 7 -20 -137 -4 -158 17
-17 17 -16 18 34 23 134 15 168 16 161 4z m325 -2 c9 -10 8 -15 -4 -20 -10 -4
-15 1 -15 14 0 24 4 25 19 6z m461 -27 c0 -23 -3 -27 -17 -22 -40 15 -47 63
-8 55 20 -3 25 -10 25 -33z m-1470 11 c0 -11 5 -20 10 -20 6 0 10 9 10 20 0
19 6 20 108 19 119 -1 203 -10 186 -22 -7 -4 -63 -10 -125 -13 -63 -3 -147 -8
-186 -11 -66 -5 -73 -4 -74 13 0 16 -2 15 -9 -3 -8 -19 -17 -23 -55 -23 -25 0
-44 3 -44 8 3 18 -2 32 -11 32 -5 0 -10 -12 -10 -26 0 -20 -4 -25 -22 -22 -21
3 -38 48 -18 48 6 0 10 -9 10 -21 0 -11 5 -17 10 -14 6 3 10 15 10 25 0 17 9
20 68 23 37 2 84 4 105 5 31 2 37 -1 37 -18z m453 3 c-7 -2 -19 -2 -25 0 -7 3
-2 5 12 5 14 0 19 -2 13 -5z m462 -3 c-3 -5 -25 -10 -48 -9 -33 0 -38 2 -22 9
28 12 78 12 70 0z m315 -82 c19 -20 19 -27 6 -65 -11 -34 -36 -29 -36 6 0 17
-4 33 -10 36 -5 3 -7 18 -4 33 3 15 7 36 9 47 7 39 8 39 12 1 3 -21 13 -47 23
-58z m-1490 72 c0 -5 -4 -10 -10 -10 -5 0 -10 5 -10 10 0 6 5 10 10 10 6 0 10
-4 10 -10z m1546 -27 c24 4 25 3 19 -37 -7 -46 8 -129 24 -134 6 -2 11 -8 11
-13 0 -6 -4 -8 -9 -5 -5 3 -11 -7 -14 -22 -7 -36 27 -112 53 -119 11 -3 20
-10 19 -17 -5 -42 27 -58 41 -21 6 15 17 25 30 25 11 0 23 0 28 0 4 0 9 -4 10
-10 2 -5 -3 -10 -12 -10 -8 0 -22 -13 -30 -28 -12 -23 -26 -31 -73 -42 -64
-15 -106 -37 -97 -51 3 -5 -6 -13 -19 -18 -27 -10 -43 -29 -33 -38 3 -3 29 4
58 16 46 19 54 20 67 7 12 -13 11 -16 -12 -27 -35 -16 -36 -43 -2 -37 14 3 25
1 25 -3 0 -5 5 -9 11 -9 6 0 24 -9 40 -21 16 -11 34 -17 40 -14 6 5 4 12 -7
20 -16 11 -15 14 14 29 39 20 48 20 32 1 -10 -12 -10 -15 3 -15 8 0 17 -5 19
-11 6 -18 86 11 103 38 9 13 25 23 40 23 13 0 26 4 30 9 11 19 -11 19 -50 1
-22 -11 -51 -19 -65 -19 -24 0 -25 0 -5 15 24 18 31 64 9 64 -8 0 -14 -4 -14
-9 0 -5 -13 -13 -28 -19 -26 -9 -28 -8 -27 12 1 11 -2 26 -7 33 -6 8 0 13 19
17 42 10 71 38 75 71 3 29 2 30 -34 27 -40 -3 -48 7 -23 28 8 7 12 16 9 21 -8
14 6 11 22 -5 7 -8 23 -12 34 -9 20 5 21 10 15 68 -7 58 -6 62 19 78 25 17 26
17 31 -10 14 -65 41 -118 60 -118 14 0 22 11 30 45 6 25 15 45 20 45 6 0 16
-19 23 -42 11 -35 18 -43 38 -43 14 0 28 9 35 23 6 12 13 23 14 25 2 2 18 -5
37 -14 18 -10 38 -17 45 -16 6 1 14 -2 18 -8 3 -5 14 -10 23 -9 14 0 14 2 2 6
-32 13 -40 29 -27 57 7 14 15 26 18 26 6 0 136 -58 186 -82 12 -6 29 -8 37 -5
19 8 68 -12 60 -24 -3 -5 -16 -9 -28 -9 -13 0 -40 -11 -60 -25 -21 -14 -41
-23 -46 -20 -5 3 -25 8 -45 10 -41 6 -48 -12 -7 -21 15 -4 32 -12 38 -20 15
-19 62 -29 61 -12 -2 15 4 18 33 18 11 0 20 -4 20 -10 0 -5 -8 -10 -17 -10
-16 0 -16 -1 0 -17 15 -16 18 -15 37 2 14 13 23 16 28 8 4 -6 18 -13 32 -15
l25 -4 -27 -14 c-15 -7 -30 -21 -33 -31 -4 -12 -21 -19 -55 -24 -55 -8 -67
-17 -46 -35 12 -9 20 -8 41 6 15 10 45 17 66 17 21 0 39 3 39 7 0 5 9 6 20 3
11 -3 20 -10 20 -15 0 -6 11 -7 25 -4 18 5 24 3 23 -6 -2 -9 7 -12 26 -10 22
3 27 0 23 -12 -7 -19 -3 -20 25 -5 18 10 20 9 15 -5 -7 -17 1 -20 20 -8 8 5 8
12 -2 26 -8 10 -19 15 -24 11 -6 -3 -14 0 -17 8 -3 9 -13 13 -25 10 -22 -6
-26 12 -5 20 9 4 12 14 9 25 -2 11 0 23 6 26 6 4 11 13 11 21 0 20 -50 1 -86
-31 -17 -17 -30 -22 -36 -16 -7 7 4 18 31 34 50 28 53 46 9 40 -32 -4 -32 -3
-13 12 20 15 20 15 -3 16 -13 0 -32 -5 -43 -11 -11 -6 -25 -8 -32 -6 -7 2 0
10 16 17 15 7 27 19 27 27 0 7 1 13 3 13 1 0 58 -22 126 -48 71 -28 119 -52
112 -56 -6 -4 -9 -12 -6 -17 8 -12 52 -12 57 0 3 10 109 -15 203 -47 168 -59
200 -72 203 -82 3 -7 -4 -7 -23 0 -14 5 -36 10 -48 9 -16 0 -12 -4 15 -14 45
-17 78 -20 99 -11 9 4 39 1 65 -8 27 -8 39 -15 27 -15 -12 -1 -33 3 -47 9 -14
5 -26 6 -26 2 0 -14 98 -44 122 -37 18 5 20 4 8 -4 -13 -9 -12 -12 4 -24 11
-8 27 -12 35 -10 9 2 38 -5 64 -15 50 -19 50 -31 0 -46 -13 -4 -23 -12 -23
-17 0 -12 -3 -12 64 14 61 23 77 41 38 43 -28 2 -33 6 -23 23 7 10 14 10 37
-2 32 -16 138 -48 167 -50 19 -1 23 -12 7 -22 -16 -10 -81 6 -73 19 3 6 3 8
-1 4 -4 -3 -21 -2 -38 3 -29 8 -30 7 -15 -9 9 -10 31 -19 48 -20 18 -1 37 -7
43 -11 6 -5 27 -13 46 -18 l35 -9 -85 -31 c-47 -17 -86 -27 -88 -22 -7 18 -72
6 -72 -13 0 -5 10 -6 21 -3 13 4 25 2 29 -5 6 -10 25 -7 81 9 107 32 161 51
187 68 25 15 43 10 25 -8 -5 -5 -54 -29 -109 -53 -87 -38 -99 -45 -101 -69 -1
-22 4 -28 32 -36 30 -8 43 -5 97 22 35 18 63 37 63 42 0 18 118 73 140 65 19
-7 18 -9 -7 -19 -16 -6 -28 -18 -28 -27 0 -18 11 -16 73 10 38 16 52 6 20 -14
-16 -10 -16 -11 2 -5 11 3 33 9 49 12 24 5 28 3 23 -10 -3 -9 0 -18 9 -21 8
-3 14 0 14 7 0 7 3 8 8 2 4 -6 30 -10 58 -11 39 0 51 3 47 13 -4 9 8 7 42 -7
26 -11 59 -20 73 -20 18 0 23 -3 14 -8 -14 -9 46 -31 105 -38 19 -2 37 -5 41
-5 25 -4 22 5 -8 22 -22 12 -27 17 -12 13 13 -3 38 -7 55 -9 18 -1 43 -7 57
-13 23 -10 22 -11 -17 -11 -38 -1 -73 -19 -41 -22 22 -2 31 -4 88 -21 30 -9
75 -19 100 -22 31 -4 175 -32 175 -35 0 -7 126 -30 139 -25 23 9 52 -4 39 -17
-14 -14 7 -77 28 -82 31 -8 33 -162 3 -174 -8 -3 -14 -18 -14 -33 0 -24 -3
-27 -21 -23 -11 3 -32 0 -45 -8 -22 -11 -27 -11 -34 1 -6 8 -10 25 -10 37 0
16 7 22 28 25 19 2 28 9 30 26 3 20 7 22 38 16 22 -4 34 -2 34 5 0 6 -7 11
-15 11 -27 0 -63 22 -76 49 -25 48 -49 50 -49 3 0 -20 -3 -23 -12 -14 -7 7
-21 12 -32 12 -10 0 -16 3 -12 7 4 4 15 8 24 8 10 0 17 8 17 20 0 16 -7 20
-38 20 -20 0 -37 3 -37 8 0 11 -38 9 -45 -3 -4 -6 -10 -8 -15 -5 -9 6 -50 -33
-50 -47 0 -4 -14 -5 -32 -1 -22 4 -29 3 -24 -5 4 -7 18 -12 31 -12 46 0 40
-32 -9 -44 -21 -5 -32 -2 -42 11 -22 29 -16 33 26 18 23 -8 38 -11 36 -6 -3 5
-26 15 -51 22 -25 7 -45 18 -45 24 0 6 -17 11 -37 12 -41 1 -86 9 -118 23 -42
17 -60 23 -69 21 -4 -1 -13 2 -20 7 -19 16 -84 22 -90 9 -2 -7 -5 -5 -5 5 -1
14 -54 43 -73 39 -11 -2 -124 38 -157 55 -14 8 -32 14 -40 14 -8 0 -20 8 -28
18 -9 10 -12 11 -7 2 5 -12 4 -13 -6 -3 -10 9 -19 9 -40 -2 -24 -13 -30 -13
-40 0 -10 12 -9 15 9 15 11 0 21 5 21 11 0 14 -77 2 -311 -50 -20 -4 -47 -4
-59 1 -27 10 -79 -21 -97 -58 -10 -21 -7 -21 42 11 40 25 55 30 59 20 3 -8 13
-11 25 -8 21 5 29 -11 11 -22 -23 -14 -7 -22 39 -17 40 3 52 1 70 -17 11 -11
30 -21 41 -21 22 0 27 16 8 23 -12 4 -2 10 41 23 10 3 11 7 1 19 -16 20 -2 38
26 32 16 -3 24 0 24 10 0 19 27 28 44 14 8 -7 18 -11 22 -10 5 1 18 -2 28 -6
13 -6 21 -4 24 4 3 9 7 9 18 0 11 -9 12 -15 3 -26 -10 -12 -5 -13 32 -8 l44 7
-44 -26 c-23 -14 -47 -26 -52 -26 -5 0 -9 -4 -9 -10 0 -16 21 -11 75 15 52 26
99 31 125 15 12 -8 12 -10 -3 -16 -10 -3 -28 -4 -40 -2 -17 3 -23 0 -24 -13
-2 -18 23 -19 91 -3 21 5 27 4 22 -5 -5 -7 1 -11 14 -11 13 0 19 -4 14 -11 -4
-7 1 -7 16 1 12 6 25 8 28 4 4 -4 1 -9 -5 -11 -7 -3 -13 -11 -13 -18 0 -14
-22 -25 -50 -25 -31 0 -71 -22 -66 -36 7 -18 -13 -29 -27 -15 -13 13 -57 15
-57 3 0 -4 24 -15 52 -23 44 -13 55 -13 66 -2 8 7 23 11 37 7 13 -3 32 -1 43
5 10 6 33 13 49 15 16 3 59 19 95 36 66 29 67 29 113 13 l48 -16 -24 -18 c-13
-10 -29 -19 -34 -19 -6 0 -26 -10 -45 -23 -24 -16 -43 -22 -60 -17 -23 5 -21
8 27 30 29 14 54 31 57 38 12 28 -25 21 -115 -23 -102 -50 -124 -65 -93 -65
16 0 19 -7 19 -40 l0 -41 -63 -19 -63 -20 -38 40 c-35 37 -42 40 -90 40 -47 0
-53 -3 -71 -32 -11 -18 -20 -50 -20 -70 0 -29 -3 -36 -15 -32 -10 4 -15 0 -15
-15 0 -12 -5 -21 -12 -21 -9 0 -9 -3 0 -12 9 -9 15 -9 24 0 27 27 39 12 15
-21 -38 -51 -40 -66 -11 -79 23 -11 24 -13 10 -24 -19 -13 -67 -6 -64 10 5 22
-55 14 -80 -11 -16 -15 -29 -17 -37 -3 -3 5 12 18 35 30 22 11 40 25 40 30 0
6 -2 10 -4 10 -2 0 -11 3 -20 6 -11 4 -16 1 -16 -10 0 -9 -3 -16 -7 -17 -5 0
-18 -2 -31 -5 -18 -3 -23 0 -20 13 2 12 11 17 26 15 22 -3 30 12 12 23 -5 3
-10 21 -10 39 0 22 -10 46 -31 72 -17 22 -32 37 -34 34 -2 -3 -12 3 -23 13
-15 14 -28 16 -61 11 -22 -4 -41 -12 -41 -18 0 -10 -17 -21 -90 -57 l-25 -12
20 23 20 23 -25 -8 c-30 -9 -26 -6 -34 -30 -3 -11 -2 -25 2 -30 8 -11 57 -35
72 -35 20 0 9 18 -15 24 -33 8 -31 18 9 37 l34 15 -2 -55 c-2 -37 2 -61 11
-70 23 -22 10 -35 -58 -58 -83 -28 -82 -28 -74 7 4 17 4 53 0 80 -9 63 -44 92
-120 98 -45 4 -53 1 -67 -19 -8 -13 -18 -40 -21 -59 -6 -40 10 -127 28 -153 9
-13 10 -28 4 -53 -5 -19 -13 -50 -18 -69 -11 -43 -1 -51 39 -30 17 9 35 13 41
10 14 -9 112 25 122 42 7 11 12 11 23 2 7 -6 11 -15 8 -20 -6 -10 9 -12 19 -3
9 9 -4 34 -18 34 -13 0 -55 46 -55 60 0 8 51 32 57 27 2 -2 -3 -10 -12 -17
-23 -19 -18 -27 17 -32 36 -6 88 8 88 23 0 5 5 9 10 9 18 0 11 -29 -12 -50
-18 -16 -19 -20 -6 -20 10 0 18 -10 20 -22 2 -19 -4 -25 -32 -33 -34 -10 -35
-11 -35 -69 0 -33 -5 -61 -10 -63 -6 -2 -9 14 -7 41 6 65 -8 83 -61 81 -59 -1
-80 -19 -73 -61 7 -34 -1 -64 -16 -64 -5 0 -8 23 -6 52 l3 53 -70 -3 c-49 -2
-72 -7 -78 -17 -6 -11 -13 -13 -26 -5 -10 5 -21 7 -24 4 -2 -3 -2 16 1 41 4
40 2 47 -16 52 -26 6 -50 59 -33 76 6 6 11 27 11 46 0 45 16 74 26 48 3 -9 16
-17 27 -17 l21 0 -22 20 c-12 11 -28 20 -37 20 -8 0 -15 4 -15 9 0 4 12 7 28
5 l27 -4 -27 13 c-14 7 -34 20 -45 29 -27 24 -91 48 -128 48 -19 0 -35 5 -37
12 -2 6 -10 8 -16 4 -7 -4 -10 -16 -7 -27 4 -10 2 -19 -4 -19 -5 0 -15 -16
-21 -35 -6 -19 -19 -39 -28 -45 -10 -5 -12 -10 -4 -10 17 0 15 -20 -3 -20 -8
0 -15 -5 -15 -10 0 -6 8 -10 18 -8 11 2 17 -3 17 -17 0 -10 10 -29 22 -41 25
-25 21 -59 -4 -49 -18 6 -203 -25 -203 -35 0 -4 -11 -5 -25 -2 -19 3 -25 0
-25 -13 0 -15 7 -16 53 -10 l52 6 -35 -18 c-19 -9 -39 -23 -43 -30 -4 -7 -24
-13 -42 -13 -19 0 -35 -4 -35 -9 0 -13 89 -18 94 -5 2 6 26 17 53 24 50 14 66
27 58 48 -5 15 52 17 75 2 13 -8 13 -10 -2 -10 -10 0 -22 -10 -29 -21 -10 -20
-9 -21 10 -16 20 5 29 -7 13 -17 -13 -8 -14 -114 -1 -137 9 -17 8 -23 -2 -30
-18 -11 -2 -26 30 -31 14 -1 26 -7 28 -13 4 -14 -45 -35 -64 -28 -11 5 -14 3
-8 -6 6 -11 3 -11 -16 -1 -34 18 -38 24 -9 15 l25 -7 -24 26 c-28 29 -46 34
-37 9 4 -9 -9 -1 -28 17 -19 19 -33 37 -30 41 2 4 -8 10 -22 13 -21 6 -24 9
-14 21 10 13 8 15 -14 15 -14 0 -26 4 -26 10 0 5 -20 18 -45 29 -26 11 -45 27
-45 35 0 9 -6 16 -14 16 -8 0 -26 14 -39 30 -14 17 -35 30 -46 30 -11 0 -24 6
-28 13 -4 8 -29 26 -56 41 -26 16 -66 48 -89 72 -23 24 -63 54 -87 66 -25 12
-65 42 -89 67 -35 35 -46 42 -53 30 -7 -11 -10 -10 -15 7 -3 12 -14 26 -25 30
-27 13 -158 127 -158 139 -1 16 122 42 127 27 7 -21 35 -14 29 7 -4 15 2 22
26 30 16 6 37 11 46 10 9 0 4 -5 -11 -11 -33 -12 -37 -28 -6 -28 l22 0 -23
-21 c-29 -27 -24 -31 22 -17 29 9 37 17 37 34 0 13 9 28 20 34 23 12 18 32 -5
23 -11 -4 -13 -1 -9 11 3 9 10 13 15 10 5 -3 9 0 9 5 0 14 -11 14 -46 1 -20
-8 -29 -8 -35 2 -6 10 -18 7 -54 -10 -25 -12 -50 -22 -56 -22 -20 0 -119 -50
-119 -60 0 -15 -28 -12 -55 6 -33 21 -31 31 5 39 16 4 32 11 35 16 4 5 16 9
28 9 22 -1 22 -1 3 -15 -32 -24 1 -17 50 10 25 14 54 25 66 25 34 0 88 23 88
37 0 16 -2 16 -34 4 -17 -7 -26 -7 -29 2 -3 9 -10 9 -29 0 -25 -11 -26 -11
-24 25 1 26 5 36 15 34 12 -3 12 0 1 12 -14 18 -50 22 -50 6 0 -19 -42 -10
-47 10 -3 11 -9 20 -13 20 -4 0 -22 3 -39 6 -24 5 -31 3 -31 -10 0 -9 3 -15 8
-15 37 6 42 -13 7 -29 -14 -6 -25 -17 -25 -24 0 -19 -29 -33 -72 -37 -35 -2
-38 0 -38 24 0 37 -29 65 -57 54 -13 -5 -23 -13 -23 -19 0 -16 26 -40 44 -40
23 0 30 -19 10 -27 -10 -4 -19 -2 -22 5 -2 7 -8 12 -14 12 -6 0 -28 18 -50 41
-35 37 -37 42 -24 60 8 12 17 16 20 10 4 -5 19 -8 34 -5 24 4 25 3 10 -10 -26
-20 -22 -27 9 -15 14 5 32 8 39 5 6 -2 14 4 17 16 5 17 2 19 -19 14 -37 -10
-29 8 11 23 23 8 35 19 35 31 0 10 3 25 6 34 4 12 0 16 -16 16 -17 0 -20 4
-15 21 5 15 4 19 -4 15 -6 -4 -21 -9 -34 -11 -12 -3 -40 -14 -62 -25 -21 -11
-45 -20 -53 -20 -7 0 -26 -7 -42 -15 -28 -14 -29 -16 -13 -34 12 -15 21 -17
40 -10 18 7 25 5 30 -7 6 -16 -2 -29 -20 -29 -7 0 -11 -12 -11 -28 1 -22 -1
-25 -12 -16 -8 6 -14 17 -14 23 0 7 -23 34 -52 60 -50 46 -52 49 -33 62 11 8
29 14 40 13 39 -3 56 1 50 11 -9 14 -61 12 -124 -4 -48 -12 -54 -12 -69 4 -9
10 -42 32 -72 50 -30 18 -71 45 -91 61 -20 16 -44 29 -52 29 -9 0 -22 8 -29
18 -7 11 -31 30 -53 44 -22 14 -46 32 -53 41 -11 13 -8 17 20 26 22 8 34 8 38
1 5 -8 19 -5 44 7 31 14 34 18 19 24 -13 5 -9 7 12 6 17 -1 41 2 55 6 24 8 24
7 6 -7 -10 -8 -24 -17 -30 -19 -6 -2 -8 -7 -5 -11 7 -7 89 35 89 47 0 4 -6 7
-12 7 -9 0 -8 4 2 11 12 8 8 10 -16 7 -23 -3 -31 -1 -27 9 3 7 3 13 0 13 -15
0 -106 -52 -110 -63 -2 -6 -15 -13 -28 -13 -13 -1 -42 -5 -64 -9 -34 -6 -43
-3 -59 14 -11 12 -14 21 -8 21 6 0 12 -5 14 -10 4 -13 59 13 79 36 7 8 21 20
31 25 16 9 18 7 14 -16 -4 -23 -2 -25 17 -19 39 12 77 34 77 45 0 6 -9 8 -20
4 -15 -5 -18 -3 -14 9 7 19 -7 21 -24 4 -7 -7 -12 -8 -12 -2 0 6 5 15 12 22
17 17 1 27 -19 11 -9 -8 -14 -9 -10 -2 10 16 -12 28 -26 14 -6 -6 -16 -11 -21
-11 -6 0 -5 5 1 11 6 6 9 18 6 25 -3 9 2 14 15 14 12 0 23 4 26 9 3 4 17 6 31
3 14 -2 25 0 25 6 0 6 15 14 33 17 17 4 38 12 45 18 10 8 16 7 21 -2 6 -9 11
-8 21 4 17 21 8 28 -22 16 -37 -14 -53 2 -53 52 0 42 -2 44 -43 62 -24 10 -48
27 -53 39 -5 11 -16 31 -23 44 -10 18 -11 33 -3 64 9 37 11 39 24 23 15 -22
17 -51 3 -60 -18 -11 -12 -43 8 -40 9 2 34 6 55 9 l37 5 0 -47 c0 -56 12 -66
86 -76 77 -11 93 7 96 109 3 77 4 80 26 77 14 -2 22 2 22 11 0 8 -10 19 -22
25 -13 6 -17 11 -10 11 7 1 11 5 8 10 -3 5 1 14 9 21 21 18 19 42 -10 84 -14
20 -25 45 -24 54 0 12 3 10 10 -7 7 -18 15 -22 35 -18z m338 -8 c4 -15 14 -25
25 -25 16 0 17 -4 8 -40 -6 -22 -13 -37 -16 -35 -4 5 -51 135 -51 143 0 14 29
-23 34 -43z m-2014 3 c0 -37 -7 -34 -14 5 -2 15 0 27 5 27 5 0 9 -14 9 -32z
m55 22 c-3 -5 -10 -10 -16 -10 -5 0 -9 5 -9 10 0 6 7 10 16 10 8 0 12 -4 9
-10z m2195 -18 c0 -17 -8 -32 -21 -41 -20 -12 -21 -11 -16 11 4 12 7 31 7 41
0 9 7 17 15 17 10 0 15 -10 15 -28z m-1550 -27 l0 -45 -42 0 c-24 0 -50 5 -58
10 -11 7 -3 10 28 10 26 0 41 4 37 10 -3 6 -15 10 -26 10 -10 0 -19 5 -19 10
0 6 17 10 37 10 38 0 36 14 -2 23 -13 3 -9 5 13 6 32 1 32 0 32 -44z m-570 25
c0 -5 -5 -10 -11 -10 -5 0 -7 5 -4 10 3 6 8 10 11 10 2 0 4 -4 4 -10z m1043
-20 c31 0 36 -15 8 -23 -14 -3 -17 -11 -14 -29 4 -21 0 -27 -25 -36 -27 -9
-31 -8 -41 14 -14 32 -14 44 1 76 11 24 15 25 29 12 8 -8 28 -14 42 -14z m217
20 c0 -5 -4 -10 -10 -10 -5 0 -10 5 -10 10 0 6 5 10 10 10 6 0 10 -4 10 -10z
m525 -58 c-4 -24 -9 -31 -15 -22 -4 7 -7 18 -5 24 2 6 7 25 11 41 10 42 18 5
9 -43z m205 57 c0 -6 11 -9 25 -7 13 2 24 -1 24 -7 1 -12 -48 -27 -61 -19 -11
7 -10 44 2 44 6 0 10 -5 10 -11z m-2060 -3 c0 -3 -4 -8 -10 -11 -5 -3 -10 -1
-10 4 0 6 5 11 10 11 6 0 10 -2 10 -4z m414 -8 c5 -10 7 -10 12 0 3 7 24 12
52 11 26 -1 38 -4 28 -6 -15 -4 -16 -7 -5 -14 11 -7 9 -9 -7 -9 -11 0 -24 -4
-30 -9 -5 -6 -64 -11 -131 -12 -68 -1 -123 -6 -123 -11 0 -9 26 -12 88 -8 41
2 43 1 33 -18 -12 -23 -3 -36 15 -21 8 7 26 8 46 3 18 -4 53 -6 77 -5 40 2 43
1 32 -13 -16 -19 -38 -21 -43 -4 -3 7 -9 8 -18 3 -33 -20 -115 -9 -132 19 -4
6 -37 11 -82 11 -74 0 -93 6 -59 19 15 6 15 8 3 17 -13 7 -13 10 -1 18 11 7
11 9 0 13 -8 3 5 7 29 9 30 3 42 1 42 -8 0 -7 7 -13 16 -13 10 0 14 6 11 14
-6 15 3 17 115 24 14 1 29 -4 32 -10z m1071 2 c-3 -5 -12 -7 -20 -3 -21 7 -19
13 6 13 11 0 18 -4 14 -10z m-702 -30 c31 0 45 -30 17 -37 -16 -4 -20 -14 -20
-44 0 -21 4 -40 10 -44 5 -3 7 -12 4 -19 -3 -8 4 -23 16 -34 19 -18 20 -21 5
-36 -14 -14 -105 -24 -105 -12 0 2 -3 11 -6 20 -4 11 -1 16 10 16 18 0 37 39
28 55 -3 5 -5 26 -3 47 3 46 -5 63 -24 48 -20 -17 -35 -3 -35 31 0 26 3 29 25
23 17 -4 25 -2 25 7 1 10 5 9 14 -3 7 -10 25 -18 39 -18z m-643 3 c-1 -18 -17
-28 -47 -28 -42 0 -52 12 -17 20 16 4 34 8 39 10 18 6 25 5 25 -2z m1236 -38
c16 -48 17 -65 4 -65 -5 0 -10 11 -10 25 0 14 -7 28 -15 31 -17 7 -21 58 -4
52 6 -2 17 -22 25 -43z m424 35 c0 -5 -2 -10 -4 -10 -3 0 -8 5 -11 10 -3 6 -1
10 4 10 6 0 11 -4 11 -10z m-900 -10 c-20 -5 -39 -5 -44 1 -6 5 7 9 35 8 l44
-1 -35 -8z m-900 -10 c0 -5 -2 -10 -4 -10 -3 0 -8 5 -11 10 -3 6 -1 10 4 10 6
0 11 -4 11 -10z m1300 -5 c0 -8 -7 -15 -15 -15 -9 0 -12 6 -9 15 4 8 10 15 15
15 5 0 9 -7 9 -15z m1005 -61 c-3 -24 -10 -44 -16 -44 -12 0 -11 22 3 78 14
55 23 32 13 -34z m-69 40 c4 -14 4 -44 1 -67 -4 -31 -2 -44 11 -54 15 -11 15
-12 -5 -13 -18 0 -23 8 -32 48 -9 40 -8 49 6 60 13 9 14 15 5 24 -15 15 -16
28 -2 28 5 0 13 -12 16 -26z m-1788 9 c-10 -2 -26 -2 -35 0 -10 3 -2 5 17 5
19 0 27 -2 18 -5z m1684 -38 c5 -21 6 -45 4 -52 -7 -17 -36 -5 -36 16 0 9 -7
27 -16 39 -18 26 -10 44 19 40 16 -2 23 -13 29 -43z m-2032 24 c0 -4 -13 -9
-30 -11 -27 -4 -37 1 -26 13 7 7 56 5 56 -2z m27 -11 c-3 -8 -6 -5 -6 6 -1 11
2 17 5 13 3 -3 4 -12 1 -19z m-169 -8 c-13 -20 -28 -27 -28 -12 0 10 22 32 32
32 5 0 3 -9 -4 -20z m1846 -5 c-4 -8 -11 -15 -16 -15 -6 0 -5 6 2 15 7 8 14
15 16 15 2 0 1 -7 -2 -15z m126 3 c0 -6 -7 -20 -16 -30 -11 -12 -14 -22 -7
-30 12 -17 15 -68 4 -68 -19 0 -35 93 -21 119 11 22 40 29 40 9z m-976 -7 c3
-4 3 -38 -1 -74 -5 -61 -7 -65 -25 -54 -10 7 -18 21 -16 33 1 11 -5 32 -14 46
-17 25 -16 27 5 42 25 17 43 20 51 7z m326 5 c0 -11 -19 -15 -25 -6 -3 5 1 10
9 10 9 0 16 -2 16 -4z m790 -68 c0 -21 -4 -38 -9 -38 -11 0 -21 36 -21 80 1
33 2 34 15 16 8 -11 15 -37 15 -58z m-1834 47 c-22 -17 -66 -20 -66 -6 0 5 12
12 28 14 54 8 58 7 38 -8z m54 5 c0 -5 -7 -10 -15 -10 -8 0 -15 5 -15 10 0 6
7 10 15 10 8 0 15 -4 15 -10z m1196 -5 c16 -13 17 -16 4 -25 -13 -8 -13 -10 2
-10 13 0 16 -7 12 -36 -3 -23 1 -46 11 -60 26 -40 20 -54 -24 -54 -27 0 -41 5
-47 18 -13 29 -13 96 -1 104 9 5 9 10 -1 20 -20 20 -14 28 21 28 l32 1 -25 14
c-14 8 -20 14 -14 15 5 0 19 -7 30 -15z m257 -20 c-4 -24 0 -43 11 -61 10 -14
15 -33 11 -42 -5 -14 -7 -14 -15 -2 -7 12 -12 12 -22 2 -9 -9 -9 -12 2 -12 10
0 11 -3 3 -11 -18 -18 -33 0 -32 39 0 20 3 31 6 25 2 -7 14 -13 25 -13 20 0
20 1 3 20 -10 11 -22 17 -26 14 -15 -9 -10 30 7 54 22 32 34 27 27 -13z m1182
25 c13 -6 15 -9 5 -9 -8 0 -22 4 -30 9 -18 12 -2 12 25 0z m-2765 -10 c0 -5
-15 -9 -32 -9 l-33 1 30 8 c17 4 31 8 33 9 1 0 2 -3 2 -9z m690 0 c0 -5 -4
-10 -10 -10 -5 0 -10 5 -10 10 0 6 5 10 10 10 6 0 10 -4 10 -10z m245 -14 c0
-25 -16 -30 -39 -13 -24 17 -12 39 17 35 14 -2 22 -10 22 -22z m122 16 c14 -9
6 -52 -9 -52 -6 0 -8 -7 -4 -15 3 -8 0 -15 -7 -15 -9 0 -9 -2 -1 -8 15 -9 21
-53 11 -69 -5 -8 -3 -13 3 -13 12 0 49 -39 50 -52 0 -14 -57 -37 -77 -32 -11
3 -27 17 -34 31 -12 22 -11 26 11 44 14 10 20 19 15 19 -13 0 -7 80 7 97 6 7
5 14 -3 19 -8 4 -4 11 12 20 l24 13 -28 1 c-16 0 -26 4 -22 10 7 12 35 13 52
2z m-1267 -12 c0 -5 -4 -10 -10 -10 -5 0 -10 5 -10 10 0 6 5 10 10 10 6 0 10
-4 10 -10z m1904 -89 c-2 -7 1 -20 7 -28 9 -10 9 -17 1 -25 -9 -9 -12 -8 -12
5 0 9 -6 17 -14 17 -13 0 -51 63 -51 85 0 5 14 12 30 15 27 5 31 2 37 -25 4
-16 5 -36 2 -44z m328 47 c-9 -9 -12 -7 -12 12 0 19 3 21 12 12 9 -9 9 -15 0
-24z m-1164 -22 c9 -3 25 -11 34 -18 14 -10 22 -10 38 0 32 20 42 14 38 -20
-2 -21 -9 -33 -18 -34 -8 0 -25 -4 -38 -8 -47 -16 -99 52 -83 109 5 19 6 19 9
-1 2 -12 11 -25 20 -28z m374 19 c13 -17 9 -35 -9 -35 -9 0 -13 3 -10 7 4 3 0
14 -9 24 -14 15 -14 17 3 15 10 0 21 -5 25 -11z m-533 -40 c1 -5 -6 -2 -15 7
-10 9 -13 21 -8 29 5 9 9 8 15 -7 4 -10 8 -23 8 -29z m1911 15 c0 -5 -2 -10
-4 -10 -3 0 -8 5 -11 10 -3 6 -1 10 4 10 6 0 11 -4 11 -10z m-1810 -82 c0 -4
-9 -8 -19 -8 -11 0 -28 -3 -38 -7 -16 -6 -16 -5 -5 10 8 9 11 25 7 38 -7 21
-7 21 24 -2 17 -12 31 -26 31 -31z m-1014 -25 c-7 -7 -26 7 -26 19 0 6 6 6 15
-2 9 -7 13 -15 11 -17z m2728 21 c18 -7 12 -24 -10 -24 -8 0 -14 7 -14 15 0
17 2 18 24 9z m-1695 -28 c19 -22 -17 -56 -67 -63 l-42 -6 0 36 c0 35 1 36 43
40 23 2 45 4 48 5 4 1 12 -4 18 -12z m126 4 c3 -5 1 -10 -4 -10 -6 0 -11 5
-11 10 0 6 2 10 4 10 3 0 8 -4 11 -10z m-385 -4 c0 -2 -7 -7 -16 -10 -8 -3
-12 -2 -9 4 6 10 25 14 25 6z m110 -26 c0 -11 -1 -22 -2 -24 -2 -2 5 -13 15
-24 23 -26 80 -32 136 -15 52 15 74 31 67 50 -3 8 2 13 14 13 11 0 33 -18 52
-45 18 -24 41 -47 51 -51 10 -3 16 -12 14 -19 -3 -7 -1 -17 4 -22 5 -5 -21
-23 -66 -43 -41 -19 -75 -38 -75 -42 0 -4 12 -13 28 -20 15 -8 28 -23 30 -36
3 -20 -6 -15 -66 33 -39 31 -73 67 -76 79 -3 14 -16 26 -29 30 -13 3 -43 21
-67 40 -24 19 -47 34 -50 33 -4 -1 -21 13 -39 31 -29 28 -30 32 -12 32 11 0
23 5 26 10 12 19 45 11 45 -10z m500 -12 c0 -6 -6 -5 -15 2 -8 7 -15 14 -15
16 0 2 7 1 15 -2 8 -4 15 -11 15 -16z m1290 12 c0 -5 -4 -10 -10 -10 -5 0 -10
5 -10 10 0 6 5 10 10 10 6 0 10 -4 10 -10z m-2728 -35 c-6 -34 -12 -32 -12 6
0 16 4 28 9 25 4 -3 6 -17 3 -31z m1388 -20 c0 -2 -10 -10 -22 -16 -21 -11
-22 -11 -9 4 13 16 31 23 31 12z m-83 -11 c-3 -3 -12 -4 -19 -1 -8 3 -5 6 6 6
11 1 17 -2 13 -5z m-1298 -66 c0 -39 -3 -48 -9 -33 -12 28 -12 85 0 85 6 0 10
-24 9 -52z m1921 44 c0 -9 -44 -32 -61 -32 -5 0 -4 9 3 20 12 19 58 29 58 12z
m2260 -6 c0 -11 -19 -15 -25 -6 -3 5 1 10 9 10 9 0 16 -2 16 -4z m-3500 -71
c0 -8 -2 -15 -4 -15 -2 0 -6 7 -10 15 -3 8 -1 15 4 15 6 0 10 -7 10 -15z
m1160 -39 c0 -3 -4 -8 -10 -11 -5 -3 -10 -1 -10 4 0 6 5 11 10 11 6 0 10 -2
10 -4z m-526 -21 c-4 -8 -12 -15 -19 -15 -7 0 -19 -7 -26 -16 -12 -15 -11 -16
9 -10 12 4 22 3 22 -2 0 -11 -40 -23 -52 -16 -16 10 -7 29 25 51 38 26 48 28
41 8z m46 -10 c-7 -8 -20 -15 -29 -15 -11 1 -8 5 9 15 32 18 35 18 20 0z
m2470 -55 c13 -9 13 -10 0 -11 -8 0 -25 -2 -38 -5 -19 -3 -21 -2 -10 11 15 17
28 18 48 5z m-3697 -72 c2 -27 1 -48 -4 -48 -5 0 -9 26 -8 58 1 64 5 60 12
-10z m932 52 c3 -5 -1 -10 -10 -10 -9 0 -13 5 -10 10 3 6 8 10 10 10 2 0 7 -4
10 -10z m75 -62 c0 -13 -23 -5 -28 10 -2 7 2 10 12 6 9 -3 16 -11 16 -16z
m-1193 -100 c-3 -7 -5 -2 -5 12 0 14 2 19 5 13 2 -7 2 -19 0 -25z m633 2 c0
-11 -2 -20 -4 -20 -2 0 -6 9 -9 20 -3 11 -1 20 4 20 5 0 9 -9 9 -20z m-633
-72 c-2 -13 -4 -5 -4 17 -1 22 1 32 4 23 2 -10 2 -28 0 -40z m50 -30 c-2 -13
-4 -5 -4 17 -1 22 1 32 4 23 2 -10 2 -28 0 -40z m4093 31 c-7 -11 -14 -18 -17
-15 -8 8 5 36 17 36 7 0 7 -6 0 -21z m1434 -99 c-12 -5 -25 -13 -29 -19 -3 -6
-13 -11 -22 -11 -11 0 -9 5 8 20 13 10 33 19 44 19 19 0 19 -1 -1 -9z m-3799
-50 c3 -6 -1 -7 -9 -4 -18 7 -21 14 -7 14 6 0 13 -4 16 -10z m2469 -1 c-10
-16 -94 -52 -126 -54 -33 -2 -38 19 -9 35 16 8 67 19 134 29 5 0 5 -4 1 -10z
m-2184 -28 c0 -13 -28 -22 -35 -11 -3 4 1 11 7 13 20 8 28 8 28 -2z m3674 -47
c28 -10 62 -14 82 -11 26 4 34 2 34 -10 0 -8 -9 -17 -20 -20 -24 -6 -25 -12
-5 -27 18 -13 27 -142 11 -168 -8 -13 -7 -21 2 -30 16 -16 15 -38 -2 -38 -20
0 -38 108 -25 147 2 6 -5 18 -16 26 -17 13 -18 19 -8 50 10 33 9 37 -13 52
-14 9 -29 13 -34 10 -13 -8 -101 16 -94 26 8 13 35 11 88 -7z m-51 -47 c-2 -4
-3 -29 -3 -57 0 -39 -3 -50 -16 -50 -9 0 -18 -9 -21 -20 -3 -11 -9 -20 -14
-20 -14 0 -10 22 8 42 11 12 16 34 15 69 -1 42 2 50 16 47 9 -2 16 -7 15 -11z
m-833 -31 c0 -8 -221 -78 -227 -72 -3 3 0 8 8 11 141 53 219 75 219 61z
m-2606 -37 c-4 -8 0 -9 15 -4 12 4 29 0 42 -8 l21 -15 -23 -12 c-18 -10 -24
-10 -33 2 -9 13 -17 12 -51 -7 -22 -12 -39 -26 -38 -33 2 -6 -4 -9 -12 -6 -20
8 -19 30 2 38 15 6 15 8 3 16 -11 7 -9 11 10 18 14 5 34 12 45 15 11 2 21 5
23 6 2 0 0 -4 -4 -10z m-1028 -36 c-7 -7 -26 7 -26 19 0 6 6 6 15 -2 9 -7 13
-15 11 -17z m1034 -18 c-7 -8 -17 -15 -22 -15 -6 0 -5 7 2 15 7 8 17 15 22 15
6 0 5 -7 -2 -15z m-1214 -26 c3 -5 -4 -9 -14 -9 -11 0 -22 6 -25 14 -4 10 0
12 14 9 11 -3 22 -9 25 -14z m4227 -16 c-8 -21 6 -63 22 -63 20 0 20 -46 0
-54 -8 -3 -22 -3 -30 0 -9 4 -19 -3 -26 -20 -10 -20 -18 -25 -46 -24 -30 1
-36 7 -59 54 -24 49 -25 54 -10 76 9 14 13 28 9 31 -3 4 0 7 8 7 8 0 24 3 36
6 20 6 21 3 20 -43 l-2 -48 38 -3 c41 -4 44 4 26 57 -12 35 -4 76 11 52 4 -8
6 -20 3 -28z m-5243 23 c0 -3 -4 -8 -10 -11 -5 -3 -10 -1 -10 4 0 6 5 11 10
11 6 0 10 -2 10 -4z m1190 -3 c-8 -3 -18 -11 -22 -17 -5 -7 -8 -4 -8 7 0 11 7
17 23 16 15 0 17 -2 7 -6z m3763 -22 c-3 -11 -13 -21 -23 -24 -21 -5 -51 12
-34 19 6 3 20 11 30 18 23 17 34 12 27 -13z m-4228 -17 c19 -46 19 -63 1 -44
-14 14 -32 80 -21 80 2 0 12 -16 20 -36z m4963 -29 c18 -39 15 -50 -15 -53
-36 -3 -42 -10 -49 -65 -6 -41 -4 -51 15 -71 25 -27 43 -136 22 -136 -7 0 -9
-12 -5 -35 3 -23 1 -35 -7 -35 -8 0 -9 -3 0 -13 8 -10 7 -27 -5 -67 -10 -33
-12 -55 -6 -59 6 -3 13 -24 17 -46 7 -43 20 -89 41 -148 8 -20 14 -40 14 -42
0 -11 -43 -4 -68 12 -15 9 -28 17 -29 18 -1 0 -5 57 -9 125 -3 70 -12 140 -20
159 -19 45 -18 58 6 66 22 7 50 32 50 45 0 10 -40 1 -58 -13 -19 -15 -33 3
-39 51 -5 39 -4 41 18 36 22 -4 21 -3 -2 6 -24 10 -27 17 -32 73 -3 34 -8 72
-12 85 -7 20 -4 22 24 22 19 0 39 8 51 23 12 12 27 29 35 38 8 9 15 23 15 32
0 26 35 20 48 -8z m-5401 -7 c-3 -8 -6 -5 -6 6 -1 11 2 17 5 13 3 -3 4 -12 1
-19z m-260 -38 c-1 -36 -3 -46 -10 -35 -8 15 -2 85 7 85 2 0 3 -23 3 -50z
m4928 12 c-21 -5 -45 5 -45 17 0 17 35 18 48 2 11 -13 10 -17 -3 -19z m-3725
-27 c7 -9 8 -15 2 -15 -5 0 -12 7 -16 15 -3 8 -4 15 -2 15 2 0 9 -7 16 -15z
m50 -10 c7 -8 9 -15 6 -15 -4 0 -14 7 -22 15 -9 8 -11 15 -6 15 5 0 15 -7 22
-15z m3460 5 c0 -5 -4 -10 -10 -10 -5 0 -10 5 -10 10 0 6 5 10 10 10 6 0 10
-4 10 -10z m180 0 c0 -5 -5 -10 -11 -10 -5 0 -7 5 -4 10 3 6 8 10 11 10 2 0 4
-4 4 -10z m-4513 -22 c-3 -8 -6 -5 -6 6 -1 11 2 17 5 13 3 -3 4 -12 1 -19z
m4288 6 c-11 -9 -41 -26 -66 -39 l-46 -24 4 23 c4 18 16 27 56 39 68 19 76 20
52 1z m289 -42 c-4 -9 -6 -27 -5 -39 3 -30 -25 -41 -83 -34 -39 5 -46 8 -35
17 8 6 24 15 37 18 26 9 29 23 5 28 -13 3 -2 12 32 30 40 21 51 23 53 11 2 -8
0 -22 -4 -31z m-3669 17 c11 -17 -1 -21 -15 -4 -8 9 -8 15 -2 15 6 0 14 -5 17
-11z m-796 -93 c2 -60 -6 -39 -12 34 -3 41 -2 54 3 35 4 -16 8 -48 9 -69z
m4661 40 c0 -11 3 -32 5 -46 5 -22 3 -21 -9 5 -26 56 -29 76 -12 69 9 -3 16
-16 16 -28z m-493 -1 c-28 -25 -47 -32 -47 -17 0 8 50 40 65 41 6 0 -3 -11
-18 -24z m-68 -24 c9 -6 10 -10 2 -16 -15 -8 -41 1 -41 15 0 12 20 13 39 1z
m95 -22 c-14 -15 -15 -20 -4 -17 12 2 15 -10 16 -57 1 -88 -5 -105 -24 -64 -8
19 -14 37 -14 42 1 4 -4 7 -12 7 -7 0 -19 7 -26 15 -10 12 -10 18 1 31 11 13
10 15 -6 12 -30 -5 -29 21 2 27 15 4 37 10 48 15 33 14 39 11 19 -11z m-4267
-36 c-3 -10 -5 -2 -5 17 0 19 2 27 5 18 2 -10 2 -26 0 -35z m1001 2 c-3 -3 -9
2 -12 12 -6 14 -5 15 5 6 7 -7 10 -15 7 -18z m3049 -27 c7 -6 20 -5 33 2 20
10 21 10 15 -8 -4 -14 10 -48 44 -109 45 -78 50 -92 42 -120 -5 -17 -7 -34 -3
-37 11 -12 40 -6 46 10 5 13 14 15 43 9 21 -4 46 -11 56 -17 17 -9 17 -11 3
-27 -9 -10 -16 -22 -16 -27 0 -6 -25 -18 -55 -29 -30 -10 -55 -21 -55 -25 0
-4 20 -1 45 8 25 8 48 12 51 9 8 -8 -19 -47 -33 -47 -7 0 -13 -4 -13 -10 0 -5
-11 -10 -25 -10 -14 0 -34 -6 -45 -12 -15 -10 -22 -10 -31 -1 -15 15 -14 111
1 177 10 44 0 106 -20 126 -11 11 -40 72 -40 85 0 7 -7 18 -15 25 -12 10 -18
10 -30 0 -13 -10 -19 -9 -38 6 -12 10 -24 20 -26 21 -1 1 0 6 3 11 7 11 44 5
63 -10z m714 -72 c-1 -15 -6 -36 -11 -47 -8 -13 -4 -27 12 -55 l21 -36 -34 7
c-32 7 -33 6 -14 -9 11 -8 28 -16 38 -16 30 0 18 -16 -20 -28 -83 -24 -92 -23
-113 19 -11 21 -20 45 -20 53 0 24 22 31 36 11 8 -10 17 -16 20 -12 8 8 -50
64 -76 72 -12 4 -19 9 -16 12 3 4 -9 17 -26 30 l-32 23 27 0 c15 0 27 -4 27
-9 0 -5 12 -17 28 -27 28 -19 81 -20 113 -3 23 12 25 49 4 49 -8 0 -15 4 -15
10 0 5 7 7 15 4 10 -4 15 0 16 12 0 15 3 14 11 -6 6 -14 10 -38 9 -54z m-1181
45 c0 -9 -82 -61 -96 -61 -12 0 20 33 51 52 33 20 45 22 45 9z m-3793 -53 c-3
-7 -5 -2 -5 12 0 14 2 19 5 13 2 -7 2 -19 0 -25z m4085 18 c10 -7 15 -16 11
-20 -4 -3 -6 -26 -4 -50 2 -42 0 -45 -33 -56 -19 -6 -37 -16 -40 -23 -3 -7 -5
-6 -5 3 0 8 6 24 14 34 28 38 13 86 -27 86 -26 0 -22 28 5 33 42 8 62 6 79 -7z
m493 -6 c3 -5 2 -10 -4 -10 -5 0 -13 5 -16 10 -3 6 -2 10 4 10 5 0 13 -4 16
-10z m203 -81 c-3 -8 -7 -3 -11 10 -4 17 -3 21 5 13 5 -5 8 -16 6 -23z m-938
17 c0 -3 -4 -8 -10 -11 -5 -3 -10 -1 -10 4 0 6 5 11 10 11 6 0 10 -2 10 -4z
m688 -27 c21 11 22 10 16 -16 -9 -38 -9 -38 -53 -24 -39 11 -39 12 -29 41 l10
30 17 -21 c15 -19 21 -20 39 -10z m-4288 -12 c0 -5 -4 -5 -10 -2 -5 3 -10 14
-10 23 0 15 2 15 10 2 5 -8 10 -19 10 -23z m2733 1 c-18 -6 -33 -16 -33 -22 0
-6 -5 -4 -10 4 -7 12 -3 16 18 21 43 10 60 8 25 -3z m234 -20 c-3 -8 -6 -5 -6
6 -1 11 2 17 5 13 3 -3 4 -12 1 -19z m2040 0 c-3 -8 -6 -5 -6 6 -1 11 2 17 5
13 3 -3 4 -12 1 -19z m-1427 -9 c0 -5 -7 -9 -15 -9 -15 0 -20 12 -9 23 8 8 24
-1 24 -14z m62 -48 c10 -82 18 -85 91 -36 35 24 37 24 27 6 -6 -12 -8 -21 -4
-21 4 0 -3 -11 -16 -24 -17 -19 -29 -24 -51 -19 -34 6 -37 -6 -9 -32 11 -10
20 -28 20 -41 0 -12 5 -24 12 -26 9 -3 9 -12 -1 -36 -7 -18 -17 -32 -21 -32
-11 0 -30 -49 -30 -80 0 -16 -5 -32 -12 -36 -7 -4 9 -14 38 -23 40 -12 44 -16
25 -19 -13 -2 -43 -1 -66 3 -40 5 -43 8 -49 43 -3 21 2 76 11 122 24 123 23
247 -1 283 l-20 29 25 -4 c21 -3 25 -10 31 -57z m619 27 c22 -6 39 -17 39 -24
0 -10 -10 -9 -45 3 -25 8 -45 19 -45 24 0 12 5 11 51 -3z m-1278 -13 c-3 -9
-8 -14 -10 -11 -3 3 -2 9 2 15 9 16 15 13 8 -4z m797 1 c0 -3 -4 -8 -10 -11
-5 -3 -10 -1 -10 4 0 6 5 11 10 11 6 0 10 -2 10 -4z m1307 -28 c-3 -7 -5 -2
-5 12 0 14 2 19 5 13 2 -7 2 -19 0 -25z m260 -30 c-2 -13 -4 -3 -4 22 0 25 2
35 4 23 2 -13 2 -33 0 -45z m-932 12 c3 -5 1 -10 -4 -10 -6 0 -11 5 -11 10 0
6 2 10 4 10 3 0 8 -4 11 -10z m353 -41 l3 -44 -45 0 c-59 0 -66 10 -22 36 44
26 46 33 6 24 -40 -9 -38 2 3 20 44 20 52 15 55 -36z m331 8 c0 -21 -1 -21 -9
-2 -12 28 -12 37 0 30 6 -3 10 -16 9 -28z m-728 -34 c-8 -15 -10 -15 -11 -2 0
17 10 32 18 25 2 -3 -1 -13 -7 -23z m-2666 -13 c3 -5 1 -10 -4 -10 -6 0 -11 5
-11 10 0 6 2 10 4 10 3 0 8 -4 11 -10z m2565 -70 c0 -5 -5 -10 -11 -10 -5 0
-7 5 -4 10 3 6 8 10 11 10 2 0 4 -4 4 -10z m-1173 -50 c16 -20 -13 -46 -33
-29 -9 7 -23 5 -50 -6 -20 -8 -39 -13 -42 -10 -3 2 4 8 14 11 28 10 64 45 64
62 0 12 3 12 18 1 9 -8 22 -21 29 -29z m1217 25 c-4 -8 -15 -15 -25 -15 -22 0
-23 -6 -8 -48 9 -25 7 -34 -8 -49 -10 -10 -25 -29 -33 -42 -15 -23 -15 -23
-47 -4 -25 14 -35 28 -42 63 -5 25 -7 47 -5 50 5 5 153 58 166 59 4 1 5 -6 2
-14z m-4244 -15 c25 -22 20 -26 -11 -10 -10 6 -19 15 -19 20 0 14 4 13 30 -10z
m4693 -5 c-7 -21 -13 -19 -13 6 0 11 4 18 10 14 5 -3 7 -12 3 -20z m-1831 -41
l32 -16 -25 -14 c-13 -7 -35 -13 -49 -14 l-24 0 22 16 c22 15 30 34 14 34 -4
0 -22 -13 -40 -29 -17 -16 -34 -25 -37 -20 -4 5 -1 9 6 9 7 0 9 3 5 7 -5 5 34
32 62 42 2 1 17 -6 34 -15z m2047 -39 c0 -5 -4 -3 -9 5 -5 8 -9 22 -9 30 0 16
17 -16 18 -35z m-5472 3 c-3 -8 -6 -5 -6 6 -1 11 2 17 5 13 3 -3 4 -12 1 -19z
m3108 12 c3 -5 2 -10 -4 -10 -5 0 -13 5 -16 10 -3 6 -2 10 4 10 5 0 13 -4 16
-10z m508 -68 c9 -33 23 -65 32 -72 24 -20 18 -25 -34 -27 -45 -2 -52 1 -80
32 -17 19 -35 35 -41 35 -22 0 -8 17 25 29 38 13 50 37 13 25 -34 -10 -12 9
25 23 18 6 35 12 38 12 3 1 13 -25 22 -57z m1695 -33 c-18 -12 -28 -11 -28 1
0 6 7 10 15 10 8 0 16 10 16 23 2 21 2 21 6 -2 3 -13 -1 -27 -9 -32z m479 21
c13 -35 14 -34 -22 -16 -16 8 -22 17 -16 21 6 3 9 11 6 16 -4 5 0 9 7 9 8 0
19 -13 25 -30z m-3007 -10 c13 -8 13 -10 -2 -10 -9 0 -20 5 -23 10 -8 13 5 13
25 0z m2737 4 c-3 -3 -12 -4 -19 -1 -8 3 -5 6 6 6 11 1 17 -2 13 -5z m-824
-28 c16 -12 16 -14 1 -20 -26 -10 -34 -7 -34 14 0 23 8 25 33 6z m187 4 c0 -5
-5 -10 -11 -10 -5 0 -7 5 -4 10 3 6 8 10 11 10 2 0 4 -4 4 -10z m855 -39 c3
-6 -33 -11 -87 -13 -127 -4 -175 5 -63 12 50 4 102 7 117 8 15 1 29 -2 33 -7z
m-2265 -17 c0 -2 -7 -4 -15 -4 -8 0 -15 4 -15 10 0 5 7 7 15 4 8 -4 15 -8 15
-10z m-2013 -10 c-3 -3 -12 -4 -19 -1 -8 3 -5 6 6 6 11 1 17 -2 13 -5z m690
-50 c-9 -9 -28 6 -21 18 4 6 10 6 17 -1 6 -6 8 -13 4 -17z m888 -14 c-11 -5
-47 -8 -80 -8 -52 1 -55 2 -25 8 52 11 130 11 105 0z m-1075 -10 c0 -5 -4 -10
-10 -10 -5 0 -10 5 -10 10 0 6 5 10 10 10 6 0 10 -4 10 -10z m220 0 c0 -5 -7
-10 -16 -10 -8 0 -12 5 -9 10 3 6 10 10 16 10 5 0 9 -4 9 -10z m-900 -10 c0
-5 -6 -10 -12 -10 -7 0 -31 -3 -53 -6 -38 -5 -39 -4 -21 10 22 18 86 22 86 6z
m60 -15 c0 -13 -4 -14 -20 -5 -11 6 -20 13 -20 15 0 3 9 5 20 5 11 0 20 -7 20
-15z m-465 -15 c3 -6 -4 -10 -17 -10 -18 0 -20 2 -8 10 19 12 18 12 25 0z"/>
<path d="M3170 3420 c0 -5 12 -10 28 -10 21 0 24 2 12 10 -20 13 -40 13 -40 0z"/>
<path d="M3117 3390 c-6 -27 -9 -29 -37 -24 -27 6 -30 4 -29 -17 0 -13 -3 -60
-7 -103 -6 -69 -5 -79 8 -73 12 4 17 -4 21 -37 4 -24 3 -60 0 -81 -4 -27 -3
-36 5 -31 7 4 13 -10 18 -43 4 -28 10 -49 14 -46 4 3 3 26 -2 52 -5 27 -10 95
-10 153 -1 58 -3 98 -5 88 -2 -9 -10 -18 -16 -21 -8 -3 -12 13 -12 54 0 60 18
87 31 47 5 -16 8 -18 15 -7 5 9 8 -11 7 -50 -1 -38 3 -66 9 -68 7 -3 9 19 5
67 -6 90 13 95 23 5 3 -36 11 -68 17 -71 10 -6 8 18 -8 116 -3 14 -7 46 -11
73 -6 53 -27 63 -36 17z"/>
<path d="M3620 3410 c0 -13 30 -13 50 0 11 7 7 10 -17 10 -18 0 -33 -4 -33
-10z"/>
<path d="M3705 3400 c3 -5 1 -10 -5 -10 -6 0 -9 -4 -6 -9 7 -10 46 -3 46 9 0
4 -7 11 -16 14 -22 8 -26 8 -19 -4z"/>
<path d="M2911 3372 c-17 -24 -21 -44 -20 -99 l1 -68 12 65 c9 54 14 65 31 65
16 0 19 6 17 25 -6 40 -18 44 -41 12z"/>
<path d="M3665 3380 c3 -5 8 -10 11 -10 2 0 4 5 4 10 0 6 -5 10 -11 10 -5 0
-7 -4 -4 -10z"/>
<path d="M3247 3357 c-3 -9 -16 -12 -36 -9 -18 2 -31 0 -31 -7 0 -6 7 -8 15
-5 8 4 15 1 15 -5 0 -6 6 -11 14 -11 14 0 14 -27 1 -93 -2 -11 1 -16 8 -14 7
3 11 9 10 15 -2 6 2 24 9 39 6 15 10 40 9 56 -2 21 2 27 18 27 12 0 21 5 21
10 0 15 -47 12 -53 -3z"/>
<path d="M3018 3332 c-19 -4 -24 -17 -10 -26 11 -7 35 10 31 21 -2 5 -12 7
-21 5z"/>
<path d="M3470 3320 c0 -5 5 -10 10 -10 6 0 10 5 10 10 0 6 -4 10 -10 10 -5 0
-10 -4 -10 -10z"/>
<path d="M2930 3296 c0 -9 8 -12 25 -8 28 5 24 22 -6 22 -10 0 -19 -6 -19 -14z"/>
<path d="M3495 3275 c-27 -7 -67 -14 -87 -14 -21 -1 -38 -6 -38 -12 0 -7 12
-9 33 -6 136 23 175 32 171 39 -6 10 -16 9 -79 -7z"/>
<path d="M3265 3236 c3 -27 5 -57 5 -67 0 -11 4 -19 9 -19 10 0 2 86 -11 115
-6 13 -7 4 -3 -29z"/>
<path d="M2933 3201 c1 -38 7 -66 15 -73 11 -10 12 -1 6 53 -9 85 -24 99 -21
20z"/>
<path d="M3313 3243 c-37 -7 -26 -19 12 -15 19 2 35 8 35 13 0 9 -8 10 -47 2z"/>
<path d="M3608 3243 c6 -2 18 -2 25 0 6 3 1 5 -13 5 -14 0 -19 -2 -12 -5z"/>
<path d="M3759 3206 c-3 -3 -53 -12 -112 -21 -59 -9 -118 -20 -130 -26 -16 -7
-8 -7 28 -3 28 4 64 6 82 5 17 -1 34 3 37 8 4 5 32 13 64 17 64 7 104 23 61
24 -14 0 -28 -2 -30 -4z"/>
<path d="M2890 3188 c0 -9 -9 -19 -19 -23 -12 -3 -18 -12 -15 -20 3 -8 12 -11
20 -8 11 4 14 -4 14 -33 0 -20 3 -34 7 -31 3 4 6 20 5 37 0 16 4 30 9 30 13 0
10 22 -6 44 -13 17 -15 17 -15 4z"/>
<path d="M2980 3175 c0 -9 6 -12 15 -9 8 4 15 7 15 9 0 2 -7 5 -15 9 -9 3 -15
0 -15 -9z"/>
<path d="M3233 3150 c0 -25 2 -35 4 -22 2 12 2 32 0 45 -2 12 -4 2 -4 -23z"/>
<path d="M3378 3163 c7 -3 16 -2 19 1 4 3 -2 6 -13 5 -11 0 -14 -3 -6 -6z"/>
<path d="M3120 3135 c0 -15 4 -24 10 -20 6 3 10 12 10 20 0 8 -4 17 -10 20 -6
4 -10 -5 -10 -20z"/>
<path d="M3414 3142 c5 -8 66 -4 66 4 0 2 -16 4 -36 4 -19 0 -33 -4 -30 -8z"/>
<path d="M3335 3130 c-3 -5 1 -10 9 -10 8 0 18 5 21 10 3 6 -1 10 -9 10 -8 0
-18 -4 -21 -10z"/>
<path d="M3680 3120 c0 -5 7 -10 15 -10 8 0 15 5 15 10 0 6 -7 10 -15 10 -8 0
-15 -4 -15 -10z"/>
<path d="M3416 3103 c-1 -2 -18 -5 -37 -7 -19 -2 -38 -4 -43 -5 -6 -1 -6 -5 0
-11 6 -6 28 -4 63 5 58 15 76 25 42 22 -12 -1 -23 -3 -25 -4z"/>
<path d="M3603 3103 c9 -2 23 -2 30 0 6 3 -1 5 -18 5 -16 0 -22 -2 -12 -5z"/>
<path d="M3035 3062 c11 -67 15 -83 23 -78 13 8 1 104 -14 110 -12 5 -14 -2
-9 -32z"/>
<path d="M3452 3060 c-51 -12 -52 -22 -2 -14 49 7 55 10 43 16 -4 3 -23 2 -41
-2z"/>
<path d="M3195 3050 c3 -5 8 -10 11 -10 2 0 4 5 4 10 0 6 -5 10 -11 10 -5 0
-7 -4 -4 -10z"/>
<path d="M2936 3033 c-4 -9 -2 -21 4 -27 7 -7 10 -2 10 17 0 31 -5 34 -14 10z"/>
<path d="M3598 3043 c-10 -2 -18 -9 -18 -15 0 -6 -7 -7 -17 -3 -24 10 -72 7
-92 -6 -12 -8 -7 -9 22 -5 22 3 35 1 32 -5 -9 -13 36 -11 68 4 15 6 29 18 32
25 5 12 2 13 -27 5z"/>
<path d="M3338 3033 c7 -3 16 -2 19 1 4 3 -2 6 -13 5 -11 0 -14 -3 -6 -6z"/>
<path d="M3396 3022 c-3 -6 -1 -14 5 -17 15 -10 25 3 12 16 -7 7 -13 7 -17 1z"/>
<path d="M3778 3023 c6 -2 18 -2 25 0 6 3 1 5 -13 5 -14 0 -19 -2 -12 -5z"/>
<path d="M3346 2994 c-5 -12 -2 -15 10 -10 8 3 18 6 20 6 3 0 2 5 -1 10 -9 15
-22 12 -29 -6z"/>
<path d="M2973 2935 c5 -62 14 -95 26 -95 9 0 -11 136 -22 147 -5 4 -6 -19 -4
-52z"/>
<path d="M3277 2983 c-10 -9 -9 -23 2 -23 5 0 11 7 15 15 5 15 -5 20 -17 8z"/>
<path d="M3605 2980 c-3 -5 -2 -10 4 -10 5 0 13 5 16 10 3 6 2 10 -4 10 -5 0
-13 -4 -16 -10z"/>
<path d="M3350 2950 c0 -5 4 -10 9 -10 6 0 13 5 16 10 3 6 -1 10 -9 10 -9 0
-16 -4 -16 -10z"/>
<path d="M2941 2934 c0 -11 3 -14 6 -6 3 7 2 16 -1 19 -3 4 -6 -2 -5 -13z"/>
<path d="M3047 2910 c-6 -23 2 -60 13 -60 8 0 7 66 -2 75 -3 3 -8 -3 -11 -15z"/>
<path d="M3111 2904 c0 -11 3 -14 6 -6 3 7 2 16 -1 19 -3 4 -6 -2 -5 -13z"/>
<path d="M2864 2852 c3 -53 16 -67 42 -47 10 8 13 14 6 13 -14 -3 -21 6 -41
52 -9 22 -10 20 -7 -18z"/>
<path d="M3180 2879 c0 -5 5 -7 10 -4 6 3 10 8 10 11 0 2 -4 4 -10 4 -5 0 -10
-5 -10 -11z"/>
<path d="M2934 2869 c-3 -6 -1 -16 5 -22 8 -8 11 -5 11 11 0 24 -5 28 -16 11z"/>
<path d="M3283 2849 c14 -8 22 -8 30 0 8 8 3 11 -18 11 -26 -1 -28 -2 -12 -11z"/>
<path d="M3216 2818 c-7 -34 -3 -44 13 -33 13 7 15 65 2 65 -5 0 -11 -14 -15
-32z"/>
<path d="M3030 2809 c0 -11 4 -18 10 -14 5 3 7 12 3 20 -7 21 -13 19 -13 -6z"/>
<path d="M3273 2813 c-14 -5 -18 -33 -5 -33 10 0 32 22 32 32 0 9 -8 9 -27 1z"/>
<path d="M3330 2810 c0 -5 5 -10 10 -10 6 0 10 5 10 10 0 6 -4 10 -10 10 -5 0
-10 -4 -10 -10z"/>
<path d="M4156 3241 c-3 -5 1 -11 9 -14 9 -4 12 -1 8 9 -6 16 -10 17 -17 5z"/>
<path d="M4290 3241 c0 -6 4 -13 10 -16 6 -3 7 1 4 9 -7 18 -14 21 -14 7z"/>
<path d="M4181 3084 c0 -11 3 -14 6 -6 3 7 2 16 -1 19 -3 4 -6 -2 -5 -13z"/>
<path d="M4178 3023 c-3 -36 -4 -36 -21 -18 -16 15 -20 16 -28 4 -11 -18 -11
-26 1 -34 6 -3 10 -15 10 -25 0 -10 5 -22 12 -26 8 -5 9 2 5 24 -6 30 -5 32
24 32 24 0 30 4 25 16 -3 9 -6 27 -6 40 0 38 -18 28 -22 -13z"/>
<path d="M4294 3044 c3 -9 6 -20 6 -25 0 -5 5 -9 10 -9 6 0 10 11 10 25 0 16
-6 25 -16 25 -11 0 -14 -5 -10 -16z"/>
<path d="M4107 2944 c-8 -8 3 -34 14 -34 11 0 12 27 0 34 -4 3 -11 3 -14 0z"/>
<path d="M4705 3420 c-3 -5 -1 -10 4 -10 6 0 11 5 11 10 0 6 -2 10 -4 10 -3 0
-8 -4 -11 -10z"/>
<path d="M4560 3410 c0 -5 5 -10 10 -10 6 0 10 5 10 10 0 6 -4 10 -10 10 -5 0
-10 -4 -10 -10z"/>
<path d="M4455 3180 c-3 -5 1 -10 9 -10 9 0 16 5 16 10 0 6 -4 10 -9 10 -6 0
-13 -4 -16 -10z"/>
<path d="M1234 3421 c7 -11 66 -20 66 -10 0 7 -35 19 -58 19 -7 0 -11 -4 -8
-9z"/>
<path d="M1809 3418 c-7 -24 -7 -58 1 -63 6 -4 10 8 10 29 0 20 -2 36 -5 36
-3 0 -5 -1 -6 -2z"/>
<path d="M2575 3407 c-4 -10 -5 -43 -1 -73 4 -37 3 -53 -4 -49 -6 4 -10 -5
-10 -20 0 -15 4 -24 10 -20 6 3 10 -4 10 -17 1 -19 2 -20 10 -7 6 10 6 54 1
110 -5 62 -10 88 -16 76z"/>
<path d="M1210 3400 c-24 -6 -24 -6 -4 -12 12 -3 27 -2 34 2 18 11 -1 18 -30
10z"/>
<path d="M2430 3396 c0 -8 5 -18 10 -21 6 -3 10 3 10 14 0 12 -4 21 -10 21 -5
0 -10 -6 -10 -14z"/>
<path d="M1730 3380 c0 -11 5 -20 10 -20 6 0 10 9 10 20 0 11 -4 20 -10 20 -5
0 -10 -9 -10 -20z"/>
<path d="M2097 3380 c-7 -26 3 -61 14 -54 5 3 9 18 9 34 0 34 -16 48 -23 20z"/>
<path d="M2364 3343 c6 -45 12 -61 20 -52 8 8 -7 99 -17 99 -6 0 -7 -18 -3
-47z"/>
<path d="M984 3369 c-14 -6 -9 -8 16 -8 19 0 44 4 55 9 16 7 12 9 -16 8 -20
-1 -45 -5 -55 -9z"/>
<path d="M928 3365 c-2 -3 -24 -7 -49 -9 -42 -5 -84 -13 -84 -16 0 -1 -9 -3
-20 -4 -11 -2 -41 -6 -67 -10 -43 -7 -47 -6 -41 11 4 13 1 12 -15 -6 -15 -16
-20 -31 -16 -47 5 -20 2 -24 -15 -24 -12 0 -21 -3 -21 -7 0 -5 -22 -8 -50 -9
-27 -1 -56 -6 -63 -13 -8 -6 -21 -9 -30 -5 -8 3 -18 0 -23 -7 -5 -9 -2 -10 9
-6 11 4 17 1 17 -8 0 -12 5 -12 25 -3 13 6 22 15 19 19 -3 5 2 9 10 9 8 0 18
-5 21 -10 4 -6 11 -8 16 -4 5 3 7 10 4 15 -11 17 28 9 41 -8 12 -17 13 -16 23
7 6 16 10 19 10 8 1 -11 7 -15 21 -11 20 5 28 23 11 23 -12 0 -8 27 6 41 14
14 83 22 83 10 0 -6 -4 -12 -9 -15 -15 -10 -5 -41 13 -40 9 1 18 -8 21 -20 7
-31 13 -69 14 -88 1 -13 9 -18 31 -18 17 0 30 5 30 11 0 6 -10 9 -23 7 -13 -3
-24 0 -24 6 0 6 -2 34 -5 61 -3 28 -3 40 -1 28 3 -17 11 -23 29 -23 30 0 31
-14 2 -28 -13 -6 -17 -11 -10 -11 7 -1 10 -6 6 -12 -4 -7 0 -9 12 -6 11 3 36
8 57 12 20 3 37 9 37 13 0 4 10 7 23 8 26 1 180 34 186 40 13 13 -16 16 -52 6
-23 -7 -59 -14 -81 -16 -21 -2 -41 -8 -45 -14 -8 -13 -51 -4 -51 10 0 5 -7 2
-16 -6 -15 -16 -34 -14 -34 3 0 5 41 16 90 27 50 10 90 21 90 26 0 10 -5 10
-72 -6 -32 -7 -59 -11 -62 -9 -2 3 -13 0 -23 -5 -10 -5 -30 -12 -44 -15 -22
-6 -25 -3 -24 15 1 19 13 25 83 41 45 11 79 23 76 28 -3 5 0 9 5 9 6 0 11 -4
11 -9 0 -4 11 -6 25 -3 14 2 25 8 25 12 0 13 -74 7 -88 -7 -16 -15 -56 -18
-47 -3 4 7 -2 9 -19 4 -20 -5 -26 -2 -26 10 0 11 9 16 28 17 15 1 38 4 52 8
20 6 22 8 8 13 -9 4 -18 5 -20 3z m-78 -44 c0 -6 -5 -13 -10 -16 -6 -4 -8 -11
-5 -16 4 -5 -1 -9 -9 -9 -9 0 -16 4 -16 9 0 5 -9 7 -20 4 -25 -7 -26 12 -2 26
22 13 62 14 62 2z m37 -27 c-3 -3 -12 -4 -19 -1 -8 3 -5 6 6 6 11 1 17 -2 13
-5z m-30 -120 c-3 -3 -12 -4 -19 -1 -8 3 -5 6 6 6 11 1 17 -2 13 -5z"/>
<path d="M1530 3360 c-13 -8 -12 -10 3 -10 9 0 17 5 17 10 0 12 -1 12 -20 0z"/>
<path d="M1874 3274 c5 -110 26 -156 26 -57 0 79 -10 153 -22 153 -4 0 -6 -43
-4 -96z"/>
<path d="M1160 3349 c0 -5 5 -7 10 -4 6 3 10 8 10 11 0 2 -4 4 -10 4 -5 0 -10
-5 -10 -11z"/>
<path d="M454 3338 c-7 -11 48 -10 66 2 11 7 5 9 -23 8 -21 -1 -40 -5 -43 -10z"/>
<path d="M1415 3340 c-3 -5 1 -10 10 -10 9 0 13 5 10 10 -3 6 -8 10 -10 10 -2
0 -7 -4 -10 -10z"/>
<path d="M1650 3346 c0 -2 7 -6 15 -10 8 -3 15 -1 15 4 0 6 -7 10 -15 10 -8 0
-15 -2 -15 -4z"/>
<path d="M1565 3331 c-3 -5 -1 -12 5 -16 5 -3 10 1 10 9 0 18 -6 21 -15 7z"/>
<path d="M1590 3329 c0 -5 5 -7 10 -4 6 3 10 8 10 11 0 2 -4 4 -10 4 -5 0 -10
-5 -10 -11z"/>
<path d="M2441 3248 c-1 -55 3 -99 9 -103 12 -8 13 102 1 160 -7 32 -9 22 -10
-57z"/>
<path d="M2510 3330 c0 -5 7 -10 15 -10 8 0 15 5 15 10 0 6 -7 10 -15 10 -8 0
-15 -4 -15 -10z"/>
<path d="M360 3320 c-13 -8 -12 -10 3 -10 9 0 17 5 17 10 0 12 -1 12 -20 0z"/>
<path d="M425 3314 c-12 -29 -14 -44 -5 -44 5 0 11 8 13 18 3 12 5 10 6 -7 1
-21 4 -23 39 -16 20 5 55 11 77 15 30 5 36 9 23 14 -9 4 -39 3 -65 -2 -26 -6
-49 -7 -51 -3 -1 5 -9 16 -16 26 -12 17 -13 17 -21 -1z"/>
<path d="M1300 3320 c0 -5 9 -10 20 -10 11 0 20 5 20 10 0 6 -9 10 -20 10 -11
0 -20 -4 -20 -10z"/>
<path d="M1622 3313 c-10 -4 -8 -9 7 -20 15 -10 26 -11 38 -4 15 9 14 10 -10
11 -16 0 -26 4 -22 10 7 11 6 11 -13 3z"/>
<path d="M2680 3310 c0 -5 5 -10 11 -10 5 0 7 5 4 10 -3 6 -8 10 -11 10 -2 0
-4 -4 -4 -10z"/>
<path d="M1130 3295 c0 -8 4 -15 10 -15 5 0 7 7 4 15 -4 8 -8 15 -10 15 -2 0
-4 -7 -4 -15z"/>
<path d="M1215 3300 c-3 -5 -2 -10 4 -10 5 0 13 5 16 10 3 6 2 10 -4 10 -5 0
-13 -4 -16 -10z"/>
<path d="M2330 3249 c0 -31 4 -48 10 -44 6 3 10 26 10 51 0 24 -4 44 -10 44
-5 0 -10 -23 -10 -51z"/>
<path d="M2175 3278 c-2 -7 -3 -65 -1 -128 6 -178 4 -164 21 -150 13 10 15 9
15 -10 0 -16 -4 -20 -15 -16 -15 5 -33 -19 -22 -30 9 -10 47 20 47 38 0 23
-11 49 -19 44 -3 -2 -6 20 -6 50 0 35 4 54 12 54 6 0 11 9 10 20 -1 11 -7 20
-14 20 -9 0 -11 14 -7 54 3 34 1 56 -5 61 -6 3 -13 0 -16 -7z"/>
<path d="M1308 3273 c7 -3 16 -2 19 1 4 3 -2 6 -13 5 -11 0 -14 -3 -6 -6z"/>
<path d="M1737 3273 c-4 -3 -7 -16 -6 -27 0 -19 1 -19 10 3 10 24 8 36 -4 24z"/>
<path d="M2371 3258 c1 -41 14 -103 20 -93 8 16 -2 115 -12 115 -5 0 -9 -10
-8 -22z"/>
<path d="M2744 3259 c-9 -16 2 -22 21 -11 15 8 16 10 1 15 -8 3 -18 2 -22 -4z"/>
<path d="M1218 3253 c7 -3 16 -2 19 1 4 3 -2 6 -13 5 -11 0 -14 -3 -6 -6z"/>
<path d="M688 3243 c6 -2 18 -2 25 0 6 3 1 5 -13 5 -14 0 -19 -2 -12 -5z"/>
<path d="M1671 3234 c0 -11 3 -14 6 -6 3 7 2 16 -1 19 -3 4 -6 -2 -5 -13z"/>
<path d="M751 3224 c-1 -5 -13 -15 -28 -21 -23 -9 -24 -11 -8 -12 28 -1 49 14
42 30 -3 8 -6 9 -6 3z"/>
<path d="M1213 3213 c-7 -2 -13 -9 -13 -15 0 -14 43 -6 48 10 4 12 -12 15 -35
5z"/>
<path d="M1790 3210 c-10 -6 -11 -10 -2 -10 6 0 12 -11 12 -24 0 -13 6 -26 14
-29 9 -4 16 -29 21 -74 8 -92 15 -124 24 -118 4 2 5 24 2 47 -9 62 -8 72 10
76 12 2 18 -7 23 -34 9 -47 25 -31 18 20 -4 36 -6 38 -33 32 -27 -5 -28 -4
-35 50 -3 30 -9 53 -12 50 -3 -3 -10 1 -16 9 -8 10 -16 12 -26 5z"/>
<path d="M659 3200 c-9 -23 2 -50 20 -50 10 0 12 3 5 8 -7 4 -14 18 -16 32 -2
17 -5 20 -9 10z"/>
<path d="M395 3190 c-3 -5 1 -10 9 -10 8 0 18 5 21 10 3 6 -1 10 -9 10 -8 0
-18 -4 -21 -10z"/>
<path d="M1650 3188 c0 -5 5 -6 10 -3 6 3 10 -1 10 -9 0 -9 5 -16 10 -16 6 0
10 6 10 14 0 8 8 17 18 19 9 2 0 4 -20 4 -21 0 -38 -4 -38 -9z"/>
<path d="M2580 3160 c0 -22 -4 -40 -10 -40 -5 0 -10 -11 -10 -25 0 -24 1 -24
18 -7 19 19 30 112 12 112 -5 0 -10 -18 -10 -40z"/>
<path d="M1110 3180 c0 -5 7 -10 15 -10 8 0 15 5 15 10 0 6 -7 10 -15 10 -8 0
-15 -4 -15 -10z"/>
<path d="M1305 3180 c4 -6 11 -8 16 -5 14 9 11 15 -7 15 -8 0 -12 -5 -9 -10z"/>
<path d="M1445 3180 c-3 -5 4 -14 15 -20 16 -9 24 -8 36 5 8 8 14 15 12 16
-30 6 -59 6 -63 -1z"/>
<path d="M1568 3183 c7 -3 16 -2 19 1 4 3 -2 6 -13 5 -11 0 -14 -3 -6 -6z"/>
<path d="M530 3170 c-12 -8 -11 -10 8 -10 12 0 22 5 22 10 0 13 -11 13 -30 0z"/>
<path d="M1738 3106 l-3 -76 28 0 c31 0 36 14 10 29 -16 9 -16 10 5 11 12 0
22 -3 23 -7 3 -30 11 -68 15 -72 2 -2 4 16 4 42 0 44 -1 46 -32 49 -31 3 -33
5 -35 47 -4 70 -11 59 -15 -23z"/>
<path d="M2330 3150 c0 -16 5 -30 10 -30 6 0 10 14 10 30 0 17 -4 30 -10 30
-5 0 -10 -13 -10 -30z"/>
<path d="M430 3159 c0 -5 11 -9 25 -9 14 0 25 2 25 4 0 2 -11 6 -25 8 -14 3
-25 1 -25 -3z"/>
<path d="M610 3155 c-25 -14 -25 -14 -2 -15 17 0 22 -6 22 -25 0 -27 4 -28 35
-15 17 7 17 9 3 9 -13 1 -18 9 -18 31 0 34 -4 35 -40 15z"/>
<path d="M728 3163 c7 -3 16 -2 19 1 4 3 -2 6 -13 5 -11 0 -14 -3 -6 -6z"/>
<path d="M2637 3138 c-3 -21 0 -38 9 -48 12 -12 14 -8 14 33 0 54 -15 63 -23
15z"/>
<path d="M2700 3159 c0 -5 5 -7 10 -4 6 3 10 8 10 11 0 2 -4 4 -10 4 -5 0 -10
-5 -10 -11z"/>
<path d="M2739 3158 c-6 -18 -5 -89 2 -94 5 -3 9 18 9 45 0 28 -2 51 -5 51 -3
0 -5 -1 -6 -2z"/>
<path d="M918 3143 c7 -3 16 -2 19 1 4 3 -2 6 -13 5 -11 0 -14 -3 -6 -6z"/>
<path d="M1880 3140 c-12 -8 -10 -10 8 -10 13 0 20 4 17 10 -7 12 -6 12 -25 0z"/>
<path d="M488 3133 c12 -2 30 -2 40 0 9 3 -1 5 -23 4 -22 0 -30 -2 -17 -4z"/>
<path d="M660 3130 c0 -5 6 -10 14 -10 8 0 18 5 21 10 3 6 -3 10 -14 10 -12 0
-21 -4 -21 -10z"/>
<path d="M1625 3130 c-3 -5 -1 -18 4 -27 9 -16 10 -14 11 10 0 28 -5 34 -15
17z"/>
<path d="M303 3115 c-3 -9 -3 -19 1 -22 8 -9 37 18 30 28 -8 14 -24 11 -31 -6z"/>
<path d="M745 3120 c-3 -5 -1 -10 4 -10 6 0 11 5 11 10 0 6 -2 10 -4 10 -3 0
-8 -4 -11 -10z"/>
<path d="M1268 3123 c-10 -2 -18 -9 -18 -15 0 -5 7 -7 16 -4 9 3 20 6 25 6 5
0 9 5 9 10 0 10 -3 11 -32 3z"/>
<path d="M2386 3109 c-13 -42 -13 -59 -1 -59 17 0 29 50 16 63 -7 7 -12 6 -15
-4z"/>
<path d="M468 3103 c7 -3 16 -2 19 1 4 3 -2 6 -13 5 -11 0 -14 -3 -6 -6z"/>
<path d="M910 3095 c0 -8 4 -15 10 -15 5 0 7 7 4 15 -4 8 -8 15 -10 15 -2 0
-4 -7 -4 -15z"/>
<path d="M520 3090 c0 -5 9 -10 20 -10 11 0 20 5 20 10 0 6 -9 10 -20 10 -11
0 -20 -4 -20 -10z"/>
<path d="M1405 3090 c-3 -5 -28 -10 -54 -10 -31 0 -53 -5 -61 -15 -12 -15 0
-22 14 -8 4 4 26 8 49 9 60 2 133 34 78 34 -11 0 -23 -4 -26 -10z"/>
<path d="M374 3082 c-44 -2 -64 -6 -54 -12 17 -10 151 -1 165 11 5 6 -1 8 -17
7 -14 -2 -57 -4 -94 -6z"/>
<path d="M760 3050 c-1 -25 -2 -49 -1 -53 1 -5 -8 -11 -19 -14 -13 -3 -19 -11
-16 -19 3 -8 -1 -14 -10 -14 -8 0 -17 -7 -21 -16 -3 -8 -12 -13 -19 -10 -8 3
-14 1 -14 -4 0 -6 9 -10 20 -10 11 0 20 -7 20 -16 0 -8 -4 -12 -10 -9 -5 3
-10 1 -10 -5 0 -7 7 -9 16 -6 9 3 17 6 18 6 1 0 1 14 -2 30 -4 25 -1 30 16 30
11 0 23 8 25 18 4 13 5 11 6 -5 1 -17 7 -23 25 -23 14 0 28 5 32 12 5 8 0 9
-15 5 -21 -5 -21 -4 4 19 14 13 32 24 39 24 7 0 21 7 32 15 17 13 17 14 2 15
-9 0 -19 -4 -22 -9 -7 -11 -66 -20 -66 -10 0 3 14 12 30 19 38 16 34 22 -6 11
-27 -7 -30 -5 -40 28 l-12 36 -2 -45z"/>
<path d="M2328 3083 c-22 -5 -22 -12 1 -42 l18 -24 7 28 c8 31 -1 43 -26 38z"/>
<path d="M1176 3071 c14 -15 94 -26 94 -14 0 11 -46 23 -83 23 -13 0 -17 -4
-11 -9z"/>
<path d="M2586 3064 c-9 -22 -8 -24 9 -24 8 0 15 6 15 14 0 22 -17 28 -24 10z"/>
<path d="M930 3060 c-21 -6 -22 -8 -8 -14 9 -4 24 -3 34 2 22 12 5 21 -26 12z"/>
<path d="M364 3049 c-3 -5 9 -9 25 -9 17 0 31 2 31 4 0 8 -51 13 -56 5z"/>
<path d="M471 3040 c0 -14 3 -41 7 -61 l7 -36 40 13 40 13 -35 -2 c-34 -2 -35
-1 -38 38 -4 44 -22 75 -21 35z"/>
<path d="M676 3033 c4 -16 11 -32 17 -38 6 -7 8 -2 3 15 -3 14 -6 31 -6 38 0
6 -5 12 -10 12 -6 0 -8 -11 -4 -27z"/>
<path d="M1418 3048 c17 -17 42 -19 42 -2 0 9 -10 14 -27 14 -21 0 -24 -3 -15
-12z"/>
<path d="M1540 3050 c0 -5 9 -10 20 -10 11 0 20 5 20 10 0 6 -9 10 -20 10 -11
0 -20 -4 -20 -10z"/>
<path d="M1312 3014 c3 -35 0 -39 -27 -48 -57 -17 -72 -27 -32 -21 21 4 45 9
53 12 8 3 14 1 14 -5 0 -5 -17 -15 -37 -21 l-38 -10 37 2 c34 3 37 1 43 -31 7
-40 18 -35 17 8 0 23 4 30 18 30 10 0 22 5 25 10 4 6 -7 10 -27 10 -45 0 -16
19 32 21 19 0 46 5 60 10 17 6 1 7 -47 4 l-73 -5 0 29 c0 17 -5 33 -11 37 -7
4 -10 -6 -7 -32z"/>
<path d="M1680 3021 c0 -43 17 -47 22 -6 3 24 0 35 -9 35 -8 0 -13 -12 -13
-29z"/>
<path d="M1125 3020 c-3 -5 -1 -10 4 -10 6 0 11 5 11 10 0 6 -2 10 -4 10 -3 0
-8 -4 -11 -10z"/>
<path d="M973 3013 c9 -2 25 -2 35 0 9 3 1 5 -18 5 -19 0 -27 -2 -17 -5z"/>
<path d="M1600 3010 c0 -5 -21 -8 -48 -6 -43 4 -84 -6 -72 -17 3 -2 33 -2 68
1 44 3 62 8 62 18 0 8 -2 14 -5 14 -3 0 -5 -4 -5 -10z"/>
<path d="M2384 3008 c-4 -5 -2 -14 2 -18 13 -12 63 0 58 14 -5 14 -52 17 -60
4z"/>
<path d="M2557 3007 c-4 -11 -4 -23 -1 -28 3 -6 1 -16 -6 -24 -9 -10 -9 -19 0
-35 18 -34 28 -11 21 50 -4 38 -8 49 -14 37z"/>
<path d="M1710 2999 c0 -5 5 -7 10 -4 6 3 10 8 10 11 0 2 -4 4 -10 4 -5 0 -10
-5 -10 -11z"/>
<path d="M2640 2998 c0 -4 4 -8 9 -8 5 0 12 -10 14 -22 3 -18 5 -16 6 8 1 21
-4 31 -14 31 -8 0 -15 -4 -15 -9z"/>
<path d="M2727 2948 c-4 -30 -2 -57 3 -62 7 -7 10 4 10 30 0 21 3 49 6 62 4
12 2 22 -3 22 -6 0 -13 -23 -16 -52z"/>
<path d="M431 2971 c-1 -14 -6 -21 -14 -18 -7 3 -26 -1 -42 -9 l-30 -14 42 3
c31 2 43 -2 46 -13 2 -11 6 -9 16 9 8 14 9 26 4 30 -6 3 -13 13 -16 21 -3 10
-6 7 -6 -9z"/>
<path d="M1125 2980 c-4 -6 7 -10 25 -10 18 0 29 4 25 10 -3 6 -15 10 -25 10
-10 0 -22 -4 -25 -10z"/>
<path d="M1636 2933 c2 -32 3 -64 4 -70 0 -7 3 -13 8 -13 4 0 6 31 4 70 -2 38
-7 70 -11 70 -4 0 -6 -26 -5 -57z"/>
<path d="M675 2972 c-33 -7 -42 -22 -13 -22 15 0 30 5 33 11 9 14 4 16 -20 11z"/>
<path d="M2250 2961 c0 -12 5 -21 10 -21 6 0 10 6 10 14 0 8 -4 18 -10 21 -5
3 -10 -3 -10 -14z"/>
<path d="M853 2960 c-15 -6 -20 -15 -16 -29 6 -22 37 -28 49 -10 4 8 0 9 -15
4 -15 -5 -21 -2 -21 9 0 9 8 16 19 16 11 0 23 5 26 10 7 12 -12 12 -42 0z"/>
<path d="M1433 2948 c2 -7 7 -13 12 -13 5 0 10 6 13 13 2 6 -4 12 -13 12 -9 0
-15 -6 -12 -12z"/>
<path d="M1725 2950 c-8 -13 5 -13 25 0 13 8 13 10 -2 10 -9 0 -20 -4 -23 -10z"/>
<path d="M1807 2940 c-3 -11 -1 -23 4 -26 5 -3 9 6 9 20 0 31 -6 34 -13 6z"/>
<path d="M550 2940 c-13 -8 -12 -10 3 -10 9 0 17 5 17 10 0 12 -1 12 -20 0z"/>
<path d="M2310 2930 c-8 -5 -25 -10 -37 -10 -21 0 -23 -5 -22 -47 0 -27 3 -42
6 -35 2 6 11 12 19 12 7 0 11 6 8 14 -4 11 7 18 38 27 24 7 52 20 63 31 19 18
19 18 -20 18 -22 0 -47 -5 -55 -10z"/>
<path d="M2640 2905 c0 -14 2 -25 4 -25 2 0 6 11 8 25 3 14 1 25 -3 25 -5 0
-9 -11 -9 -25z"/>
<path d="M560 2910 c0 -13 20 -13 40 0 12 8 9 10 -12 10 -16 0 -28 -4 -28 -10z"/>
<path d="M348 2903 c6 -2 18 -2 25 0 6 3 1 5 -13 5 -14 0 -19 -2 -12 -5z"/>
<path d="M1691 2875 c0 -31 2 -36 9 -23 6 10 7 25 1 40 -9 20 -10 18 -10 -17z"/>
<path d="M2220 2900 c0 -5 5 -10 10 -10 6 0 10 5 10 10 0 6 -4 10 -10 10 -5 0
-10 -4 -10 -10z"/>
<path d="M1800 2875 c0 -14 5 -25 10 -25 6 0 10 11 10 25 0 14 -4 25 -10 25
-5 0 -10 -11 -10 -25z"/>
<path d="M1365 2881 c-10 -17 11 -21 31 -6 18 14 18 14 -3 15 -12 0 -24 -4
-28 -9z"/>
<path d="M2547 2876 c-10 -25 -9 -56 2 -56 14 0 21 28 12 52 -7 19 -8 19 -14
4z"/>
<path d="M2335 2850 c4 -6 11 -8 16 -5 14 9 11 15 -7 15 -8 0 -12 -5 -9 -10z"/>
<path d="M960 2840 c0 -5 7 -7 15 -4 8 4 15 8 15 10 0 2 -7 4 -15 4 -8 0 -15
-4 -15 -10z"/>
<path d="M2430 2840 c0 -5 4 -10 9 -10 6 0 13 5 16 10 3 6 -1 10 -9 10 -9 0
-16 -4 -16 -10z"/>
<path d="M790 2771 c0 -24 -3 -28 -20 -24 -15 4 -19 11 -15 24 4 13 1 19 -8
19 -8 0 -18 -11 -21 -25 -4 -16 -13 -25 -26 -25 -11 0 -20 -5 -20 -11 0 -6 17
-8 48 -4 66 9 72 12 72 34 0 10 7 21 15 25 8 3 15 1 15 -4 0 -6 5 -10 10 -10
6 0 10 7 10 15 0 10 -10 15 -30 15 -26 0 -30 -3 -30 -29z"/>
<path d="M718 2698 c7 -7 16 -7 28 0 14 8 13 10 -10 10 -18 0 -24 -4 -18 -10z"/>
<path d="M5410 3180 c0 -13 11 -13 30 0 12 8 11 10 -7 10 -13 0 -23 -4 -23
-10z"/>
<path d="M3655 2910 c3 -5 8 -10 11 -10 2 0 4 5 4 10 0 6 -5 10 -11 10 -5 0
-7 -4 -4 -10z"/>
<path d="M3643 2883 c9 -2 25 -2 35 0 9 3 1 5 -18 5 -19 0 -27 -2 -17 -5z"/>
<path d="M1165 2730 c-28 -7 -27 -8 13 -9 23 0 42 4 42 9 0 11 -11 11 -55 0z"/>
<path d="M2516 2721 c-4 -7 -5 -15 -2 -18 9 -9 19 4 14 18 -4 11 -6 11 -12 0z"/>
<path d="M2740 2371 c0 -5 5 -13 10 -16 6 -3 10 -2 10 4 0 5 -4 13 -10 16 -5
3 -10 2 -10 -4z"/>
<path d="M2610 2344 c0 -17 87 -64 117 -64 26 0 1 22 -54 46 -58 26 -63 27
-63 18z"/>
<path d="M2640 2243 c-8 -4 -20 -14 -27 -23 -6 -9 -30 -22 -52 -29 -25 -7 -41
-18 -41 -27 0 -10 -6 -14 -15 -10 -24 9 -17 -10 7 -21 17 -7 26 -5 40 9 10 10
24 16 30 12 8 -5 4 -11 -10 -17 -27 -12 -27 -19 -3 -41 18 -17 21 -17 47 0
l27 18 -24 7 c-13 4 -18 7 -11 8 6 1 12 8 12 16 0 8 5 15 10 15 6 0 11 12 11
28 1 18 3 21 6 9 3 -11 11 -16 19 -13 17 7 18 -6 2 -23 -11 -11 -7 -12 20 -6
63 13 30 -34 -42 -61 -38 -13 -46 -33 -11 -27 18 4 25 1 25 -11 0 -9 5 -16 12
-16 6 0 3 -9 -7 -21 -15 -16 -27 -19 -60 -15 -22 3 -32 3 -22 0 18 -6 24 -34
7 -34 -5 0 -10 -4 -10 -10 0 -16 19 -12 51 11 16 11 37 22 46 24 10 2 30 6 46
10 21 6 27 4 27 -9 0 -14 4 -15 20 -6 16 9 20 8 20 -5 0 -8 9 -15 20 -15 11 0
20 4 20 8 0 12 -34 42 -48 42 -7 0 -12 5 -12 11 0 6 -9 9 -20 6 -37 -9 -21 11
23 28 23 10 37 20 30 22 -7 2 -9 11 -6 19 8 21 -23 17 -57 -8 -23 -17 -33 -19
-42 -10 -9 9 -8 12 5 12 9 0 31 13 49 29 l33 30 -45 20 c-25 11 -53 21 -62 21
-10 0 -18 5 -18 10 0 6 5 10 10 10 6 0 10 7 10 15 0 15 -13 18 -40 8z"/>
<path d="M2690 2235 c0 -17 35 -21 45 -5 4 6 11 7 17 4 7 -4 8 -2 4 4 -11 18
-66 15 -66 -3z"/>
<path d="M1886 2161 c-7 -10 7 -16 28 -12 5 1 17 -6 27 -15 22 -20 40 -10 18
11 -19 19 -65 29 -73 16z"/>
<path d="M3230 2160 c0 -6 7 -10 15 -10 8 0 15 2 15 4 0 2 -7 6 -15 10 -8 3
-15 1 -15 -4z"/>
<path d="M2250 2146 c0 -2 7 -7 16 -10 8 -3 12 -2 9 4 -6 10 -25 14 -25 6z"/>
<path d="M2845 2100 c-3 -5 1 -10 10 -10 9 0 13 5 10 10 -3 6 -8 10 -10 10 -2
0 -7 -4 -10 -10z"/>
<path d="M3065 2080 c-3 -5 1 -10 9 -10 9 0 16 5 16 10 0 6 -4 10 -9 10 -6 0
-13 -4 -16 -10z"/>
<path d="M2962 2048 c6 -17 36 -34 45 -24 4 4 -1 14 -11 22 -24 17 -39 18 -34
2z"/>
<path d="M2415 2040 c-3 -5 -1 -10 4 -10 6 0 11 5 11 10 0 6 -2 10 -4 10 -3 0
-8 -4 -11 -10z"/>
<path d="M3070 2034 c0 -14 3 -14 15 -4 8 7 15 14 15 16 0 2 -7 4 -15 4 -8 0
-15 -7 -15 -16z"/>
<path d="M3130 2026 c0 -9 -4 -14 -10 -11 -5 3 -10 2 -10 -4 0 -5 14 -16 30
-25 17 -8 30 -10 30 -5 0 5 -5 9 -11 9 -5 0 -8 3 -5 8 2 4 -2 16 -10 27 -13
17 -14 17 -14 1z"/>
<path d="M3323 2023 c1 -17 6 -22 19 -17 10 3 18 1 18 -5 0 -6 8 -11 17 -11
13 0 14 -3 5 -12 -21 -21 -13 -27 16 -12 15 7 34 14 42 14 8 1 -7 12 -35 26
-27 13 -55 22 -62 20 -6 -3 -14 0 -16 7 -3 7 -4 2 -4 -10z"/>
<path d="M3055 1996 c20 -30 45 -41 45 -20 0 9 -9 18 -20 21 -11 3 -20 9 -20
14 0 5 -5 9 -10 9 -6 0 -3 -11 5 -24z"/>
<path d="M2430 2000 c0 -5 5 -10 10 -10 6 0 10 5 10 10 0 6 -4 10 -10 10 -5 0
-10 -4 -10 -10z"/>
<path d="M2298 1984 c-17 -9 -25 -20 -22 -29 7 -18 0 -19 -26 -3 -15 10 -22 9
-37 -4 -10 -8 -29 -19 -43 -23 -14 -4 -30 -11 -35 -15 -6 -5 -33 -17 -61 -28
-47 -19 -52 -19 -67 -4 -9 9 -19 13 -22 10 -3 -3 0 -12 8 -19 7 -8 12 -20 9
-28 -5 -14 -5 -14 86 6 16 4 22 1 20 -8 -2 -9 5 -14 20 -13 18 0 22 -5 22 -33
0 -21 5 -32 12 -30 7 1 14 -9 16 -22 3 -21 8 -23 38 -18 18 3 36 2 39 -3 3 -4
14 -6 25 -3 16 4 19 2 14 -12 -6 -15 -3 -17 25 -13 17 3 34 1 37 -4 3 -4 19
-8 36 -8 25 0 28 2 18 15 -10 12 -5 17 26 30 21 8 48 18 61 21 29 8 37 20 18
28 -8 3 -36 -6 -62 -19 -25 -14 -53 -25 -62 -25 -9 1 5 12 32 26 50 26 66 51
21 34 -39 -15 -64 -12 -35 4 29 16 36 56 11 56 -22 0 -61 -29 -40 -30 8 0 -4
-12 -28 -26 -24 -14 -46 -24 -49 -21 -3 3 9 13 26 22 17 8 31 18 31 21 0 2 -9
0 -21 -6 -33 -18 -33 -4 0 20 63 44 28 66 -50 30 -101 -45 -65 -9 58 58 30 17
20 34 -15 25 -26 -6 -26 -6 -9 11 10 10 24 15 32 12 9 -3 15 1 15 10 0 11 -6
14 -16 10 -8 -3 -12 -2 -9 4 9 14 -16 12 -47 -6z m-78 -228 c0 -2 -7 -6 -15
-10 -8 -3 -15 -1 -15 4 0 6 7 10 15 10 8 0 15 -2 15 -4z"/>
<path d="M2500 1985 c0 -8 9 -15 20 -15 11 0 20 7 20 15 0 8 -9 15 -20 15 -11
0 -20 -7 -20 -15z"/>
<path d="M2847 1983 c-4 -3 5 -12 19 -20 31 -16 44 -17 44 -3 0 6 -7 10 -15
10 -8 0 -15 5 -15 10 0 11 -23 14 -33 3z"/>
<path d="M3180 1960 c0 -19 7 -33 20 -40 24 -13 26 -3 3 22 -15 17 -15 18 0
18 10 0 17 5 17 11 0 5 -4 7 -10 4 -5 -3 -10 -1 -10 4 0 6 -4 11 -10 11 -5 0
-10 -13 -10 -30z"/>
<path d="M3257 1959 c-10 -11 -17 -22 -15 -23 2 -2 18 -8 36 -15 17 -8 32 -17
32 -22 0 -5 7 -9 15 -9 23 0 18 17 -7 25 -23 6 -22 7 5 17 33 12 26 31 -9 22
-17 -4 -24 -2 -22 6 5 22 -17 21 -35 -1z"/>
<path d="M3483 1973 c-14 -5 -18 -24 -5 -22 29 5 34 -2 17 -21 -23 -26 -5 -26
28 0 23 18 27 19 40 5 16 -16 47 -21 47 -7 0 6 -27 18 -110 48 -3 2 -11 0 -17
-3z"/>
<path d="M2644 1955 c-17 -13 -17 -14 -2 -15 9 0 20 5 23 11 11 17 0 20 -21 4z"/>
<path d="M2673 1938 c-13 -6 -23 -15 -23 -19 0 -5 -8 -6 -17 -2 -17 5 -17 5
-1 -12 16 -17 18 -17 47 6 44 35 41 50 -6 27z"/>
<path d="M2727 1933 c-10 -9 -9 -23 2 -23 5 0 11 7 15 15 5 15 -5 20 -17 8z"/>
<path d="M1598 1917 c-16 -6 -28 -14 -28 -19 0 -15 27 -8 51 12 26 21 19 24
-23 7z"/>
<path d="M2940 1915 c-6 -8 -9 -19 -5 -25 3 -5 -1 -13 -9 -16 -19 -7 -21 -24
-3 -24 21 0 57 39 57 60 0 23 -22 26 -40 5z"/>
<path d="M3870 1921 c0 -5 5 -11 11 -13 7 -2 -8 -10 -32 -18 -41 -13 -76 -37
-68 -44 2 -2 14 -7 27 -10 23 -8 32 9 10 17 -23 8 0 19 39 19 51 -1 73 6 73
24 0 8 8 14 17 14 12 0 14 3 6 11 -8 8 -17 8 -33 -1 -15 -8 -20 -8 -16 -1 4 7
-1 11 -13 11 -12 0 -21 -4 -21 -9z"/>
<path d="M1872 1907 c-12 -7 -20 -16 -16 -19 8 -9 64 12 64 23 0 13 -21 11
-48 -4z"/>
<path d="M2870 1910 c-13 -8 -13 -10 2 -10 9 0 20 5 23 10 8 13 -5 13 -25 0z"/>
<path d="M1940 1901 c0 -6 4 -13 10 -16 6 -3 7 1 4 9 -7 18 -14 21 -14 7z"/>
<path d="M2708 1893 c-31 -5 -38 -23 -9 -23 10 0 22 -7 25 -16 3 -8 11 -12 16
-9 8 5 8 11 1 19 -7 9 -7 16 1 24 7 7 8 11 3 11 -6 -1 -22 -4 -37 -6z"/>
<path d="M3668 1893 c-10 -2 -18 -9 -18 -15 0 -5 7 -7 16 -4 9 3 20 6 25 6 5
0 9 5 9 10 0 10 -3 11 -32 3z"/>
<path d="M2781 1880 c-12 -7 -12 -11 2 -24 19 -20 37 -21 37 -2 0 20 -23 36
-39 26z"/>
<path d="M3007 1883 c-12 -11 -8 -23 7 -23 7 0 19 7 26 15 10 12 9 15 -7 15
-11 0 -23 -3 -26 -7z"/>
<path d="M3721 1874 c9 -9 25 -14 35 -12 14 3 10 7 -16 16 -32 12 -34 11 -19
-4z"/>
<path d="M3350 1870 c-13 -8 -13 -10 2 -10 9 0 20 5 23 10 8 13 -5 13 -25 0z"/>
<path d="M1856 1857 c-16 -12 -16 -14 3 -31 12 -11 24 -16 29 -11 4 4 1 10 -7
13 -10 3 -8 9 10 23 23 18 23 19 3 19 -11 0 -28 -6 -38 -13z"/>
<path d="M3028 1857 c-15 -6 -29 -16 -32 -23 -4 -10 5 -9 29 3 19 9 35 20 35
25 0 4 -1 8 -2 7 -2 -1 -15 -6 -30 -12z"/>
<path d="M3525 1860 c-11 -5 -36 -9 -55 -9 -44 -2 -59 -11 -57 -35 2 -14 -12
-24 -53 -40 -80 -31 -94 -40 -78 -52 7 -6 27 -16 43 -22 27 -11 28 -11 11 2
-18 14 -18 15 0 34 11 11 30 23 44 27 14 4 27 10 30 14 10 12 70 51 79 51 11
0 32 -56 24 -64 -4 -3 -1 -6 5 -6 7 0 12 4 12 8 0 5 10 14 23 20 12 6 17 11
10 11 -7 1 -10 8 -6 17 5 13 2 15 -15 10 -11 -4 -23 -2 -27 4 -4 7 2 14 14 17
12 3 21 9 21 14 0 5 -1 9 -2 8 -2 0 -12 -4 -23 -9z"/>
<path d="M1653 1843 c-30 -11 -10 -22 34 -18 63 6 82 25 23 24 -25 0 -51 -3
-57 -6z"/>
<path d="M1770 1840 c-8 -5 -12 -11 -10 -14 8 -7 60 6 60 15 0 12 -31 11 -50
-1z"/>
<path d="M3882 1829 c2 -16 23 -29 93 -55 50 -19 113 -43 140 -53 73 -28 95
-33 95 -23 0 11 -18 20 -138 68 -67 27 -90 40 -82 48 8 8 13 7 19 -2 5 -9 17
-11 34 -6 38 9 34 28 -3 20 -22 -4 -29 -2 -24 6 5 8 2 9 -10 5 -46 -18 -67
-18 -91 -3 -32 21 -37 20 -33 -5z"/>
<path d="M3930 1840 c0 -13 30 -13 50 0 11 7 7 10 -17 10 -18 0 -33 -4 -33
-10z"/>
<path d="M4138 1843 c-16 -2 -28 -11 -28 -19 0 -8 2 -14 5 -14 12 0 75 29 75
34 0 6 -5 6 -52 -1z"/>
<path d="M2834 1825 c-14 -11 -15 -14 -4 -14 8 0 24 6 34 14 15 11 16 15 5 15
-8 0 -24 -7 -35 -15z"/>
<path d="M2880 1820 c-8 -5 -12 -11 -9 -14 3 -3 14 1 25 9 21 16 8 20 -16 5z"/>
<path d="M3029 1811 c-35 -28 -20 -32 20 -4 19 13 27 23 19 23 -9 0 -26 -9
-39 -19z"/>
<path d="M4235 1810 c-3 -5 -1 -10 4 -10 6 0 11 5 11 10 0 6 -2 10 -4 10 -3 0
-8 -4 -11 -10z"/>
<path d="M2890 1785 c-10 -12 -10 -15 3 -15 8 0 17 7 21 15 3 8 2 15 -3 15 -5
0 -14 -7 -21 -15z"/>
<path d="M3619 1788 c-14 -6 -31 -20 -38 -30 -11 -18 -10 -19 10 -13 14 5 19
4 15 -4 -9 -14 9 -14 34 -1 16 8 18 8 14 -5 -5 -12 2 -15 35 -15 34 0 41 3 41
20 0 11 -4 20 -9 20 -5 0 -17 3 -27 7 -12 4 -15 3 -10 -5 4 -7 3 -12 -2 -12
-6 0 -13 11 -16 25 -7 27 -9 28 -47 13z"/>
<path d="M3053 1783 c-7 -3 -13 -13 -13 -23 0 -10 -7 -21 -16 -24 -23 -9 -27
-8 -20 9 4 10 -1 15 -14 15 -11 0 -20 5 -20 10 0 6 -11 10 -25 10 -16 0 -25
-6 -25 -15 0 -8 5 -15 10 -15 18 0 10 -22 -10 -27 -11 -3 -20 -9 -20 -14 0 -5
-11 -9 -25 -9 -18 0 -23 -4 -19 -15 7 -17 34 -21 34 -4 0 5 3 8 8 5 4 -2 25 4
47 14 22 10 42 16 45 13 3 -3 -1 -8 -8 -10 -7 -3 -18 -11 -25 -18 -8 -7 -22
-15 -33 -18 -17 -4 -16 -5 3 -6 32 -2 18 -28 -20 -40 -63 -19 -102 -36 -114
-51 -18 -21 -16 -32 5 -28 9 2 24 -5 33 -15 21 -27 74 -15 94 21 13 25 14 25
15 5 0 -20 3 -20 35 -10 19 6 35 14 35 19 0 4 7 8 15 8 8 0 15 6 15 14 0 7 9
16 20 19 13 3 18 11 14 20 -3 8 1 21 9 29 13 13 13 16 -4 26 -15 10 -19 9 -19
-1 0 -14 -166 -104 -175 -95 -6 6 76 53 133 77 30 13 47 36 18 25 -25 -10 -28
16 -3 27 16 7 27 23 31 42 7 34 6 36 -11 30z"/>
<path d="M4110 1780 c0 -12 17 -12 45 0 17 7 15 9 -12 9 -18 1 -33 -3 -33 -9z"/>
<path d="M3076 1764 c-9 -24 -9 -24 37 -22 l42 1 -37 4 c-27 3 -35 8 -31 19 3
8 3 14 0 14 -3 0 -8 -7 -11 -16z"/>
<path d="M3210 1762 c0 -5 12 -14 26 -21 22 -10 25 -9 22 6 -3 18 -48 32 -48
15z"/>
<path d="M2515 1714 c-28 -15 -52 -30 -55 -34 -3 -5 -8 -7 -11 -7 -13 4 -79
-27 -83 -39 -6 -17 10 -28 27 -18 9 6 9 5 -1 -8 -10 -12 -10 -17 1 -26 16 -13
34 4 59 58 13 28 28 40 77 59 33 13 58 28 55 32 -8 13 -15 11 -69 -17z"/>
<path d="M3729 1720 c-9 -8 -24 -20 -35 -27 -15 -10 -13 -10 16 -2 47 12 63
11 54 -3 -4 -6 -3 -8 3 -5 10 6 173 -40 183 -52 3 -3 21 -8 40 -9 19 -2 43 -9
54 -14 17 -9 16 -12 -18 -31 -20 -12 -36 -26 -36 -32 0 -7 -18 -19 -41 -28
-32 -13 -38 -13 -29 -2 10 12 7 13 -22 5 -41 -12 -38 -13 -38 4 0 9 -8 12 -27
8 -25 -5 -27 -4 -14 11 15 19 1 23 -17 5 -9 -9 -12 -8 -12 6 0 14 -5 16 -22 9
-31 -10 -97 -6 -114 8 -19 16 -17 29 4 30 12 0 11 3 -6 10 -27 10 -42 4 -42
-17 0 -11 -6 -14 -22 -9 -23 6 -23 6 -3 -10 11 -9 28 -14 38 -11 9 2 15 1 12
-3 -4 -8 97 -56 219 -103 74 -29 82 -45 21 -43 -49 1 -105 -26 -105 -51 0 -12
11 -14 55 -10 60 5 59 1 -2 -42 -26 -18 -36 -20 -58 -12 -33 13 -45 13 -45 0
0 -6 14 -13 30 -16 17 -4 30 -10 30 -14 0 -10 70 -43 77 -36 3 3 -5 10 -18 15
l-24 9 25 10 c18 7 27 6 32 -3 8 -13 55 -9 64 6 3 5 11 9 17 9 7 0 -3 -12 -20
-26 -18 -14 -33 -31 -33 -37 0 -7 17 -22 38 -34 42 -24 128 -41 117 -24 -3 6
-13 11 -21 11 -8 0 -14 3 -14 8 0 8 95 62 111 62 6 0 30 14 54 30 24 17 51 30
59 30 36 0 11 -23 -74 -65 -49 -25 -90 -50 -90 -56 0 -5 3 -9 8 -7 4 2 18 9
32 14 14 6 55 25 91 42 63 29 98 33 63 8 -9 -7 -12 -18 -8 -29 6 -17 8 -16 30
4 29 27 30 37 7 55 -24 18 -4 17 41 -1 29 -12 36 -13 36 -2 0 7 -24 21 -53 30
-108 34 -172 65 -169 81 3 19 -34 23 -40 4 -3 -7 -13 -5 -32 7 l-28 18 36 15
c31 12 35 17 24 30 -7 9 -8 13 -2 9 6 -3 11 0 11 7 0 8 -6 12 -14 9 -30 -12
-10 15 27 36 38 21 52 41 30 41 -6 0 -33 -11 -60 -25 -53 -27 -64 -30 -56 -16
4 5 0 11 -6 14 -9 3 -6 8 7 13 27 10 36 25 29 47 -5 16 -3 17 15 8 12 -7 21
-8 21 -2 0 5 -19 18 -42 29 -24 12 -37 21 -30 22 18 0 4 20 -14 20 -8 0 -12
-4 -9 -10 11 -17 -27 -11 -90 15 -33 14 -73 25 -90 26 -16 0 -39 5 -50 10 -17
8 -17 9 5 5 14 -3 31 -2 37 2 7 5 -9 12 -40 17 -42 8 -55 7 -68 -5z m141 -220
c8 -5 12 -12 8 -15 -10 -10 -49 5 -43 16 8 11 16 11 35 -1z m152 -31 c21 8 35
8 42 1 7 -7 3 -10 -13 -10 -14 0 -25 -7 -28 -20 -3 -11 -7 -20 -9 -20 -2 0
-29 12 -61 26 l-58 26 30 13 c27 12 32 11 47 -7 16 -17 22 -19 50 -9z m-24
-78 c10 -6 1 -16 -35 -37 -26 -16 -61 -35 -78 -42 l-30 -13 25 20 c14 11 40
28 58 38 17 10 32 23 32 30 0 15 9 16 28 4z m-153 -11 c-28 -12 -47 -12 -40 0
3 6 18 10 33 9 24 0 25 -1 7 -9z m230 -19 c3 -5 -5 -13 -17 -16 -13 -4 -49
-20 -82 -37 -58 -29 -93 -33 -39 -4 15 8 48 26 73 40 51 28 56 30 65 17z m48
-36 c-12 -8 -43 -24 -70 -36 -81 -35 -95 -40 -88 -29 3 6 10 10 14 10 5 0 35
16 67 35 32 19 67 35 78 35 20 0 20 0 -1 -15z m67 -13 c0 -11 -195 -122 -214
-122 -2 0 -6 7 -10 15 -4 11 12 24 62 46 37 17 83 39 102 49 39 20 60 24 60
12z"/>
<path d="M3387 1713 c-9 -2 -15 -9 -12 -14 9 -13 28 -11 51 6 19 14 19 14 -1
14 -11 -1 -28 -3 -38 -6z"/>
<path d="M3610 1710 c0 -5 5 -10 10 -10 6 0 10 5 10 10 0 6 -4 10 -10 10 -5 0
-10 -4 -10 -10z"/>
<path d="M3437 1693 c-12 -12 -7 -22 8 -17 8 4 15 10 15 15 0 11 -14 12 -23 2z"/>
<path d="M2524 1674 c-18 -15 -18 -15 11 -9 37 8 57 25 29 25 -11 0 -29 -7
-40 -16z"/>
<path d="M2735 1678 c-22 -5 -55 -7 -72 -4 -25 4 -33 1 -33 -11 0 -11 -6 -14
-24 -9 -45 11 -78 -16 -35 -29 19 -6 53 2 105 27 11 5 24 8 30 7 19 -4 114 14
114 22 0 11 -33 10 -85 -3z"/>
<path d="M3530 1678 c-14 -6 -20 -12 -14 -14 15 -6 60 11 48 18 -5 3 -20 1
-34 -4z"/>
<path d="M4240 1680 c0 -5 5 -10 11 -10 5 0 7 5 4 10 -3 6 -8 10 -11 10 -2 0
-4 -4 -4 -10z"/>
<path d="M4528 1669 c-18 -10 -46 -18 -61 -19 -28 0 -97 -25 -97 -34 0 -3 14
-3 30 1 24 4 30 2 30 -11 0 -12 6 -16 18 -12 9 2 28 7 42 11 14 3 34 10 45 14
11 5 64 19 118 32 54 12 100 26 103 30 2 5 -40 7 -95 7 -74 -1 -108 -6 -133
-19z"/>
<path d="M3603 1660 c-13 -5 -23 -16 -23 -25 0 -17 18 -19 40 -5 13 8 12 10
-4 10 -20 0 -20 0 0 15 22 16 19 18 -13 5z"/>
<path d="M2752 1638 c-39 -8 -50 -28 -17 -28 9 0 12 -6 9 -15 -7 -18 -6 -18
37 -4 51 18 61 28 44 45 -15 16 -14 16 -73 2z"/>
<path d="M3117 1643 c-13 -12 -7 -24 11 -21 9 1 22 -1 29 -5 6 -4 19 -4 28 -1
14 6 11 10 -15 20 -37 16 -44 17 -53 7z"/>
<path d="M3480 1625 c33 -19 50 -18 26 0 -11 8 -27 15 -35 15 -10 -1 -7 -6 9
-15z"/>
<path d="M3870 1611 c0 -5 9 -7 20 -4 11 3 20 7 20 9 0 2 -9 4 -20 4 -11 0
-20 -4 -20 -9z"/>
<path d="M3220 1600 c-13 -8 -12 -10 3 -10 9 0 17 5 17 10 0 12 -1 12 -20 0z"/>
<path d="M3540 1600 c0 -5 5 -10 11 -10 5 0 7 5 4 10 -3 6 -8 10 -11 10 -2 0
-4 -4 -4 -10z"/>
<path d="M3963 1603 c-15 -5 -18 -33 -4 -33 20 0 61 20 61 30 0 10 -35 12 -57
3z"/>
<path d="M3713 1593 c-18 -2 -33 -8 -33 -13 0 -10 46 -3 69 10 9 5 12 9 6 8
-5 -1 -25 -3 -42 -5z"/>
<path d="M3805 1580 c-3 -5 -2 -10 4 -10 5 0 13 5 16 10 3 6 2 10 -4 10 -5 0
-13 -4 -16 -10z"/>
<path d="M4125 1570 c-20 -22 -9 -26 29 -9 14 7 23 16 20 20 -9 15 -30 10 -49
-11z"/>
<path d="M3270 1549 c0 -7 -8 -18 -17 -25 -17 -12 -17 -13 -1 -14 9 0 20 5 24
11 3 6 15 9 25 6 24 -6 24 2 2 19 -22 17 -33 17 -33 3z"/>
<path d="M2406 1543 c-14 -4 -17 -11 -12 -36 8 -38 9 -39 30 -31 9 4 15 12 12
20 -3 7 2 18 9 24 27 22 6 34 -39 23z"/>
<path d="M2964 1515 c-18 -14 -18 -14 3 -15 23 0 39 15 25 24 -5 3 -18 -1 -28
-9z"/>
<path d="M3340 1520 c0 -5 4 -10 9 -10 6 0 13 5 16 10 3 6 -1 10 -9 10 -9 0
-16 -4 -16 -10z"/>
<path d="M2970 1475 c0 -3 8 -15 18 -25 18 -20 19 -20 40 0 12 12 22 23 22 25
0 3 -18 5 -40 5 -22 0 -40 -2 -40 -5z"/>
<path d="M3291 1460 c-24 -11 -42 -22 -39 -25 5 -5 88 33 88 40 0 7 0 7 -49
-15z"/>
<path d="M4208 1463 c-16 -2 -28 -9 -28 -15 0 -5 7 -7 16 -4 9 3 24 6 35 6 10
0 19 5 19 10 0 6 -3 9 -7 9 -5 -1 -20 -4 -35 -6z"/>
<path d="M5687 1449 c-12 -13 -24 -18 -35 -14 -13 5 -14 3 -5 -5 7 -8 23 -9
42 -5 25 5 30 10 21 20 -8 10 -7 14 2 18 7 3 8 6 3 6 -6 1 -19 -8 -28 -20z"/>
<path d="M3054 1450 c-27 -11 -40 -30 -20 -30 8 0 16 -4 18 -10 4 -14 48 0 48
15 0 21 -23 33 -46 25z"/>
<path d="M3336 1445 c-15 -11 -16 -15 -5 -15 8 0 24 7 35 15 14 11 15 14 4 14
-8 0 -24 -6 -34 -14z"/>
<path d="M3479 1433 c-18 -4 -34 -43 -18 -43 5 0 9 4 9 10 0 5 12 16 28 24 26
14 16 19 -19 9z"/>
<path d="M4506 1431 c-7 -10 12 -28 34 -33 8 -2 23 -11 34 -20 22 -20 48 -22
114 -9 34 7 42 6 42 -6 0 -10 6 -13 16 -9 9 3 21 6 27 7 7 0 -6 9 -27 19 -30
14 -46 16 -65 9 -19 -8 -28 -7 -36 4 -6 8 -23 15 -39 15 -16 0 -33 7 -38 16
-10 17 -53 22 -62 7z"/>
<path d="M3103 1397 c-39 -26 -42 -41 -7 -34 18 3 24 1 20 -9 -3 -8 1 -14 9
-14 17 0 31 20 19 29 -12 8 -11 34 1 43 25 19 -13 5 -42 -15z"/>
<path d="M3522 1398 c-19 -19 -14 -29 8 -16 20 13 27 28 12 28 -4 0 -13 -5
-20 -12z"/>
<path d="M3560 1370 c0 -12 8 -12 35 0 18 8 17 9 -7 9 -16 1 -28 -3 -28 -9z"/>
<path d="M3730 1370 c0 -5 5 -10 10 -10 6 0 10 5 10 10 0 6 -4 10 -10 10 -5 0
-10 -4 -10 -10z"/>
<path d="M3613 1360 c-33 -13 -28 -27 10 -32 17 -3 39 -7 47 -10 8 -3 11 -3 7
0 -4 2 5 15 20 28 l28 24 -45 -1 c-25 0 -55 -4 -67 -9z"/>
<path d="M3185 1349 c-4 -5 1 -19 11 -30 16 -18 16 -19 -4 -19 -12 0 -22 -4
-22 -10 0 -5 -15 -9 -32 -8 -63 4 -108 -2 -108 -13 0 -7 14 -10 35 -7 19 2 35
2 35 0 0 -2 -21 -13 -47 -24 -27 -11 -51 -26 -56 -32 -5 -7 -12 -5 -23 9 -14
19 -13 21 17 33 41 17 26 38 -16 22 -16 -6 -40 -8 -53 -5 -17 4 -23 2 -20 -7
3 -7 10 -14 16 -14 7 -1 17 -2 23 -3 5 0 7 -5 4 -11 -7 -12 75 -72 91 -66 7 3
20 -4 30 -15 9 -10 22 -19 27 -19 6 0 2 9 -7 19 -22 24 -7 35 30 21 35 -14 74
-5 92 21 7 10 20 19 29 19 25 0 83 23 83 32 0 5 -12 6 -27 3 -27 -5 -27 -5 5
12 44 23 40 32 -10 27 l-43 -5 37 14 c29 11 46 12 79 3 37 -10 43 -9 58 10 9
12 35 25 56 29 22 5 33 10 24 12 -9 2 -34 0 -57 -6 -25 -5 -42 -5 -42 0 0 12
-57 12 -64 0 -7 -11 -110 -2 -114 10 -5 12 -29 11 -37 -2z m25 -108 c0 -5 -12
-14 -27 -19 -16 -5 -36 -13 -45 -17 -29 -12 -21 13 10 29 31 17 62 21 62 7z
m40 -11 c-8 -5 -19 -10 -25 -10 -5 0 -3 5 5 10 8 5 20 10 25 10 6 0 3 -5 -5
-10z"/>
<path d="M3553 1336 c5 -16 27 -19 27 -3 0 7 -7 14 -15 14 -9 0 -14 -5 -12
-11z"/>
<path d="M4880 1281 c0 -5 5 -13 10 -16 6 -3 10 -2 10 4 0 5 -4 13 -10 16 -5
3 -10 2 -10 -4z"/>
<path d="M3365 1240 c-8 -13 5 -13 25 0 13 8 13 10 -2 10 -9 0 -20 -4 -23 -10z"/>
<path d="M3875 1220 c3 -5 8 -10 11 -10 2 0 4 5 4 10 0 6 -5 10 -11 10 -5 0
-7 -4 -4 -10z"/>
<path d="M2576 1205 c-6 -16 5 -18 42 -9 31 9 27 24 -7 24 -16 0 -31 -6 -35
-15z"/>
<path d="M4185 1200 c-22 -10 -48 -21 -58 -24 -10 -3 -15 -10 -12 -16 4 -6 20
-4 43 6 20 9 48 19 62 21 20 5 23 3 13 -8 -7 -7 -13 -17 -13 -23 0 -22 25 17
25 39 1 29 -7 30 -60 5z"/>
<path d="M3330 1200 c-8 -5 -12 -12 -9 -15 8 -8 39 5 39 16 0 11 -11 11 -30
-1z"/>
<path d="M3397 1189 c-14 -8 -16 -14 -6 -25 6 -8 18 -14 26 -14 13 0 13 3 3
15 -10 12 -10 15 3 15 9 0 19 5 22 10 8 13 -25 12 -48 -1z"/>
<path d="M4442 1189 c2 -7 10 -15 17 -17 8 -3 12 1 9 9 -2 7 -10 15 -17 17 -8
3 -12 -1 -9 -9z"/>
<path d="M2620 1180 c0 -5 11 -10 25 -10 14 0 25 5 25 10 0 6 -11 10 -25 10
-14 0 -25 -4 -25 -10z"/>
<path d="M3470 1180 c-8 -5 -12 -11 -9 -14 3 -3 14 1 25 9 21 16 8 20 -16 5z"/>
<path d="M3165 1138 c-29 -16 -29 -16 -11 -34 15 -15 19 -15 54 2 33 16 34 19
15 22 -13 2 -23 8 -23 13 0 12 -10 11 -35 -3z"/>
<path d="M3466 1141 c-4 -5 3 -7 14 -4 23 6 26 13 6 13 -8 0 -17 -4 -20 -9z"/>
<path d="M3495 1110 c-8 -13 5 -13 25 0 13 8 13 10 -2 10 -9 0 -20 -4 -23 -10z"/>
<path d="M3283 1093 c-21 -8 -15 -26 7 -20 11 3 18 0 17 -6 -3 -16 38 -21 60
-8 15 9 12 10 -16 11 -29 0 -32 2 -21 15 10 13 9 15 -11 14 -13 0 -30 -3 -36
-6z"/>
<path d="M3515 1084 c-13 -10 -15 -14 -4 -14 20 0 43 16 32 23 -4 3 -17 -1
-28 -9z"/>
<path d="M4488 1053 c7 -3 16 -2 19 1 4 3 -2 6 -13 5 -11 0 -14 -3 -6 -6z"/>
<path d="M3370 1005 c-18 -10 -20 -14 -8 -15 23 0 48 11 48 21 0 12 -11 11
-40 -6z"/>
<path d="M3375 966 c-19 -8 -25 -15 -17 -20 6 -4 24 -1 38 7 35 18 18 29 -21
13z"/>
<path d="M3423 938 c-18 -6 -33 -15 -33 -20 0 -12 41 0 60 18 16 16 17 16 -27
2z"/>
<path d="M3463 903 c9 -2 23 -2 30 0 6 3 -1 5 -18 5 -16 0 -22 -2 -12 -5z"/>
<path d="M3440 870 c0 -5 -7 -10 -15 -10 -8 0 -15 -4 -15 -10 0 -5 14 -7 33
-3 42 8 43 9 18 23 -14 7 -21 7 -21 0z"/>
<path d="M3490 860 c0 -5 7 -7 15 -4 8 4 15 8 15 10 0 2 -7 4 -15 4 -8 0 -15
-4 -15 -10z"/>
<path d="M3508 823 c6 -2 18 -2 25 0 6 3 1 5 -13 5 -14 0 -19 -2 -12 -5z"/>
<path d="M3328 793 c7 -3 16 -2 19 1 4 3 -2 6 -13 5 -11 0 -14 -3 -6 -6z"/>
<path d="M3226 711 c-18 -7 -18 -8 -3 -14 20 -7 47 1 47 14 0 11 -17 11 -44 0z"/>
<path d="M3326 625 c-7 -20 22 -19 48 0 19 14 18 15 -11 15 -18 0 -33 -6 -37
-15z"/>
<path d="M1430 2549 c0 -5 5 -7 10 -4 6 3 10 8 10 11 0 2 -4 4 -10 4 -5 0 -10
-5 -10 -11z"/>
<path d="M1865 2330 c-3 -5 1 -10 10 -10 9 0 13 5 10 10 -3 6 -8 10 -10 10 -2
0 -7 -4 -10 -10z"/>
<path d="M1280 2249 c0 -5 5 -7 10 -4 6 3 10 8 10 11 0 2 -4 4 -10 4 -5 0 -10
-5 -10 -11z"/>
<path d="M1460 2120 c0 -5 5 -10 11 -10 5 0 7 5 4 10 -3 6 -8 10 -11 10 -2 0
-4 -4 -4 -10z"/>
<path d="M4910 955 c0 -2 9 -9 20 -15 16 -9 20 -8 20 5 0 8 -9 15 -20 15 -11
0 -20 -2 -20 -5z"/>
<path d="M5405 770 c3 -5 8 -10 11 -10 2 0 4 5 4 10 0 6 -5 10 -11 10 -5 0 -7
-4 -4 -10z"/>
<path d="M170 2790 c0 -5 15 -10 33 -10 24 0 28 3 17 10 -20 13 -50 13 -50 0z"/>
<path d="M180 2751 c0 -5 7 -12 16 -15 22 -9 24 -8 24 9 0 8 -9 15 -20 15 -11
0 -20 -4 -20 -9z"/>
</g>
</svg>
