<?xml version="1.0" standalone="no"?>
<!DOCTYPE svg PUBLIC "-//W3C//DTD SVG 20010904//EN"
 "http://www.w3.org/TR/2001/REC-SVG-20010904/DTD/svg10.dtd">
<svg version="1.0" xmlns="http://www.w3.org/2000/svg"
 width="304.000000pt" height="261.000000pt" viewBox="0 0 304.000000 261.000000"
 preserveAspectRatio="xMidYMid meet">
<metadata>
Created by potrace 1.16, written by Peter Selinger 2001-2019
</metadata>
<g transform="translate(0.000000,261.000000) scale(0.100000,-0.100000)"
fill="#000000" stroke="none">
<path d="M705 2599 c-4 -6 -2 -16 4 -22 18 -18 13 -26 -16 -25 -106 4 -640 -4
-648 -10 -6 -4 -11 -16 -13 -27 -5 -37 -2 -306 9 -735 15 -592 17 -647 24
-806 3 -79 1 -160 -4 -184 -6 -27 -6 -159 2 -370 10 -305 12 -327 28 -317 15
9 17 48 16 475 0 400 2 466 15 473 8 4 48 63 88 131 40 68 88 146 106 173 17
28 58 95 89 150 81 141 118 194 128 188 5 -3 7 0 5 8 -6 17 16 58 118 221 127
202 169 271 184 303 13 27 35 62 90 145 9 14 24 39 33 55 9 17 30 45 46 64
l29 33 194 4 c106 3 207 6 225 8 17 3 33 0 35 -6 3 -8 10 -7 25 1 33 17 148
14 163 -4 7 -8 20 -15 29 -15 9 0 29 -7 44 -15 16 -8 83 -33 150 -55 67 -23
145 -52 172 -65 112 -52 212 -94 238 -100 16 -3 47 -17 69 -31 22 -14 70 -37
107 -50 75 -28 109 -43 131 -59 8 -6 40 -19 70 -30 30 -10 84 -32 120 -49 74
-34 68 -31 98 -41 12 -4 22 -11 22 -16 0 -5 10 -9 21 -9 21 0 22 -2 14 -92 -4
-51 -8 -132 -10 -180 -3 -96 -6 -105 -41 -118 -25 -10 -33 -30 -11 -30 6 0 19
5 27 10 13 8 16 -4 20 -83 3 -51 2 -173 -2 -272 -4 -99 -7 -269 -7 -377 -1
-109 -4 -198 -8 -198 -10 0 -37 -46 -74 -123 -16 -31 -46 -88 -67 -125 -65
-112 -122 -224 -122 -238 0 -9 -12 -14 -32 -15 -18 -1 -77 -4 -131 -8 -53 -3
-97 -3 -97 0 0 9 -295 16 -370 9 -73 -7 -125 3 -134 26 -3 8 -10 13 -15 9 -6
-3 -25 1 -43 9 -28 12 -29 14 -10 15 12 1 22 7 22 16 0 12 -13 14 -77 9 -72
-5 -96 1 -43 11 29 6 34 11 25 26 -5 7 -23 10 -49 6 -22 -2 -52 -1 -66 3 -14
5 -19 8 -12 9 6 1 12 7 12 15 0 17 -33 27 -51 15 -13 -8 -61 -4 -104 9 -17 5
-16 7 9 11 16 4 31 12 34 19 3 9 -15 12 -65 12 -60 1 -66 2 -49 15 31 23 10
33 -60 27 -60 -4 -65 -3 -62 14 2 16 -6 20 -49 28 -42 7 -53 13 -53 27 0 14
-7 19 -30 19 -19 0 -30 5 -30 14 0 13 -41 26 -86 26 -26 0 -32 -21 -11 -38 6
-5 27 -13 45 -17 17 -3 32 -13 32 -20 0 -15 14 -20 77 -30 29 -5 43 -12 46
-26 4 -14 14 -19 40 -19 19 0 45 -8 58 -19 13 -10 39 -22 57 -26 18 -3 37 -15
42 -25 6 -11 27 -20 57 -25 29 -4 53 -14 61 -26 10 -14 25 -19 63 -19 36 0 49
-4 49 -15 0 -21 34 -36 70 -29 22 5 34 2 43 -9 7 -9 31 -21 55 -27 23 -6 42
-16 42 -22 0 -8 -49 -9 -182 -2 -101 5 -230 10 -288 11 -58 2 -114 3 -125 4
-11 1 -36 1 -55 1 -19 0 -143 -1 -275 -2 -216 -1 -341 -7 -532 -26 -60 -6 -62
-6 -56 15 5 18 1 21 -26 21 -35 0 -63 16 -116 66 -20 19 -42 34 -50 34 -7 0
-20 3 -29 6 -11 4 -16 1 -16 -10 0 -10 13 -21 29 -27 16 -6 32 -17 35 -25 3
-8 37 -30 76 -48 63 -30 67 -34 45 -40 -14 -4 -29 -4 -34 -2 -16 10 -154 -19
-159 -33 -4 -11 4 -12 39 -6 74 12 390 20 684 16 154 -2 325 -2 380 -1 55 1
264 4 465 5 201 2 381 6 401 9 25 4 38 2 42 -7 5 -15 87 -11 87 4 0 5 8 9 18
9 14 0 15 -2 2 -10 -10 -6 0 -8 30 -5 25 2 45 4 45 5 0 2 353 11 417 10 42 -1
77 4 96 14 16 8 38 12 50 9 11 -3 34 2 51 10 21 11 32 12 40 4 8 -8 16 -7 28
5 15 15 15 31 -1 206 -14 155 -16 243 -10 493 4 167 6 355 5 417 -1 62 1 118
6 124 4 7 8 116 9 243 1 126 5 284 7 350 7 161 11 409 9 523 l-2 92 -133 0
c-73 0 -211 -6 -307 -14 -155 -13 -465 -22 -605 -17 -193 6 -742 4 -752 -2 -6
-4 -53 -10 -105 -11 -73 -3 -97 0 -111 12 -15 14 -26 14 -75 4 -133 -27 -155
-26 -189 2 -21 18 -34 23 -38 15z m2280 -189 c-4 -17 -9 -29 -12 -26 -3 2 -2
19 2 36 4 17 9 29 12 26 3 -2 2 -19 -2 -36z m-1917 -2287 c-10 -2 -26 -2 -35
0 -10 3 -2 5 17 5 19 0 27 -2 18 -5z m-61 -9 c-3 -3 -12 -4 -19 -1 -8 3 -5 6
6 6 11 1 17 -2 13 -5z m1176 -1 c-7 -2 -21 -2 -30 0 -10 3 -4 5 12 5 17 0 24
-2 18 -5z"/>
<path d="M1510 2510 c0 -5 5 -10 10 -10 6 0 10 5 10 10 0 6 -4 10 -10 10 -5 0
-10 -4 -10 -10z"/>
<path d="M930 2345 c-7 -11 -9 -17 -5 -13 4 4 15 -2 24 -14 14 -17 21 -19 38
-9 18 9 20 14 11 33 -14 29 -52 30 -68 3z"/>
<path d="M1405 2360 c-3 -5 1 -10 10 -10 9 0 13 5 10 10 -3 6 -8 10 -10 10 -2
0 -7 -4 -10 -10z"/>
<path d="M1307 2259 c-14 -8 -16 -14 -6 -25 12 -15 12 -15 -50 -18 -16 0 -32
-4 -36 -8 -14 -14 8 -30 36 -26 26 4 29 2 29 -25 0 -28 2 -29 33 -24 17 3 39
8 47 11 10 4 19 -2 25 -16 15 -32 70 -62 92 -49 13 7 23 5 35 -6 9 -8 50 -25
90 -37 64 -20 73 -26 76 -49 2 -19 10 -27 32 -32 17 -4 32 -11 35 -16 8 -12
55 -12 55 1 0 5 -8 14 -17 19 -10 6 -15 11 -10 11 4 0 0 11 -9 25 -10 15 -26
25 -40 25 -28 0 -114 41 -132 63 -7 8 -22 13 -32 10 -15 -4 -20 0 -20 16 0 11
-5 21 -11 21 -8 0 -8 4 1 15 19 23 3 34 -42 28 -30 -5 -39 -3 -34 6 12 19 -18
22 -63 6 -54 -19 -67 -19 -54 -2 19 23 25 70 11 78 -16 11 -19 11 -41 -2z
m133 -149 c0 -5 -4 -10 -10 -10 -5 0 -10 5 -10 10 0 6 5 10 10 10 6 0 10 -4
10 -10z"/>
<path d="M1210 2109 c0 -5 5 -7 10 -4 6 3 10 8 10 11 0 2 -4 4 -10 4 -5 0 -10
-5 -10 -11z"/>
<path d="M1089 1997 c-40 -27 -52 -73 -22 -84 27 -9 49 -36 45 -55 -5 -25 13
-30 57 -17 34 10 41 9 58 -8 12 -12 48 -24 101 -33 68 -11 82 -17 82 -32 0
-13 8 -18 28 -19 62 -1 127 -24 116 -40 -9 -15 14 -29 49 -29 15 0 27 -4 27
-10 0 -5 11 -10 24 -10 27 0 40 -14 41 -45 0 -17 6 -20 38 -17 20 2 37 -1 37
-7 0 -5 7 -17 16 -26 16 -15 16 -16 -2 -13 -12 2 -19 -3 -19 -12 0 -9 9 -15
25 -15 14 0 24 5 23 12 -2 7 6 17 18 23 18 10 19 10 7 -9 -7 -11 -9 -23 -6
-27 12 -12 168 -16 168 -4 0 6 -13 13 -30 16 -16 4 -27 10 -25 15 9 13 -16 22
-28 10 -6 -6 -15 -11 -20 -11 -5 0 1 9 14 20 21 17 22 21 9 30 -8 6 -24 9 -35
8 -45 -4 -125 14 -125 28 0 8 -9 14 -20 14 -12 0 -32 12 -46 27 -18 20 -33 27
-54 25 -18 -2 -35 4 -47 16 -21 23 -76 52 -97 52 -8 0 -23 9 -33 19 -21 22
-77 40 -148 47 -58 6 -62 9 -46 28 16 19 0 28 -36 21 -27 -6 -27 -6 -9 9 11 9
23 16 28 16 4 0 8 7 8 15 0 19 -20 19 -56 0 -16 -8 -38 -15 -49 -15 -18 0 -17
2 4 13 14 6 26 18 29 26 5 14 -8 13 -82 -5 -22 -5 -28 -4 -24 7 3 8 14 15 26
17 30 5 46 26 29 41 -11 8 -22 6 -48 -12z"/>
<path d="M1175 1990 c-3 -5 -1 -10 4 -10 6 0 11 5 11 10 0 6 -2 10 -4 10 -3 0
-8 -4 -11 -10z"/>
<path d="M1877 1934 c-14 -14 -7 -35 11 -32 9 2 17 10 17 17 0 16 -18 25 -28
15z"/>
<path d="M1810 1855 c0 -8 5 -15 10 -15 6 0 10 7 10 15 0 8 -4 15 -10 15 -5 0
-10 -7 -10 -15z"/>
<path d="M1070 1804 l0 -36 -44 6 c-52 8 -96 -1 -96 -20 0 -10 12 -12 50 -7
49 6 61 -2 39 -24 -19 -19 0 -35 32 -28 23 5 36 1 60 -19 18 -16 43 -26 61
-26 24 0 29 -3 24 -17 -4 -9 -1 -20 6 -25 20 -12 31 -9 24 7 -4 12 -2 13 14 3
14 -9 22 -9 32 0 20 16 61 3 55 -17 -3 -11 2 -17 15 -18 29 -3 47 -21 41 -42
-6 -22 11 -29 72 -31 58 -3 62 -2 69 16 5 13 -1 15 -31 13 -21 -1 -47 -1 -57
0 -20 1 -20 1 0 15 18 14 18 15 -11 22 -17 4 -47 22 -68 40 -20 19 -46 34 -57
34 -11 0 -19 6 -17 12 1 9 -18 14 -63 16 -74 3 -114 23 -105 52 3 10 1 21 -5
25 -7 4 -9 18 -6 30 8 29 -2 55 -20 55 -9 0 -14 -12 -14 -36z"/>
<path d="M2005 1750 c3 -5 11 -10 16 -10 6 0 7 5 4 10 -3 6 -11 10 -16 10 -6
0 -7 -4 -4 -10z"/>
<path d="M580 1624 c0 -8 10 -14 25 -14 15 0 25 6 25 14 0 8 -10 14 -25 14
-15 0 -25 -6 -25 -14z"/>
<path d="M853 1633 c-21 -8 -15 -51 7 -58 11 -3 20 -11 20 -16 0 -5 12 -9 26
-9 14 0 37 -9 51 -20 14 -11 35 -20 47 -20 33 0 126 -24 126 -32 0 -5 18 -8
40 -8 22 0 40 5 40 10 0 6 -8 10 -19 10 -10 0 -24 7 -31 15 -7 8 -25 15 -41
15 -16 0 -29 5 -29 11 0 6 -8 8 -20 4 -10 -3 -35 -3 -53 0 -28 6 -34 10 -29
27 4 17 1 19 -31 13 -34 -7 -59 7 -37 20 15 9 12 22 -7 28 -10 2 -25 7 -33 10
-8 3 -21 3 -27 0z"/>
<path d="M1474 1618 c-9 -14 23 -39 41 -32 10 4 9 10 -6 25 -22 22 -25 23 -35
7z"/>
<path d="M1240 1580 c0 -5 7 -10 16 -10 8 0 12 5 9 10 -3 6 -10 10 -16 10 -5
0 -9 -4 -9 -10z"/>
<path d="M473 1553 c-15 -6 -17 -33 -3 -33 6 0 10 5 10 11 0 5 5 7 10 4 6 -3
10 -2 10 4 0 13 -12 19 -27 14z"/>
<path d="M596 1551 c-7 -11 3 -41 14 -41 27 0 39 13 29 31 -10 20 -34 25 -43
10z"/>
<path d="M665 1550 c-7 -12 2 -30 16 -30 12 0 12 27 0 35 -5 3 -12 1 -16 -5z"/>
<path d="M1710 1540 c0 -5 -8 -11 -17 -13 -10 -3 -1 -5 20 -6 39 -1 51 13 17
22 -11 3 -20 1 -20 -3z"/>
<path d="M1537 1520 c-4 -17 -2 -18 14 -9 22 11 25 29 5 29 -7 0 -16 -9 -19
-20z"/>
<path d="M711 1471 c-13 -9 -7 -31 8 -31 5 0 52 -20 104 -45 53 -25 101 -45
107 -45 5 0 10 -11 10 -24 0 -33 24 -50 57 -41 16 4 48 8 73 7 l44 0 -23 19
c-25 20 -66 25 -76 9 -8 -12 -45 -13 -45 -1 0 4 10 20 21 35 16 20 19 30 11
38 -9 9 -17 7 -30 -6 -15 -13 -25 -14 -45 -7 -14 5 -28 14 -31 19 -3 5 -22 13
-41 16 -19 4 -35 11 -35 16 0 6 -9 10 -19 10 -14 0 -18 5 -14 20 5 17 0 20
-28 20 -19 0 -40 -4 -48 -9z"/>
<path d="M1532 1473 c-39 -8 -18 -28 31 -31 33 -2 47 -7 47 -18 0 -10 14 -14
55 -14 49 0 55 -2 55 -21 0 -20 3 -21 52 -15 44 6 50 5 40 -7 -19 -22 -4 -44
33 -51 18 -4 38 -13 45 -21 7 -8 27 -17 46 -21 20 -4 36 -13 39 -25 4 -12 20
-20 50 -24 24 -4 46 -13 49 -21 3 -8 19 -14 39 -14 29 0 33 -3 32 -27 0 -29
21 -40 83 -42 25 -1 32 -5 32 -21 0 -28 50 -28 68 0 11 18 9 21 -10 30 -13 5
-49 12 -80 15 -57 6 -78 17 -58 30 19 11 10 35 -15 41 -14 3 -25 12 -25 20 0
11 -16 14 -65 14 -65 0 -65 0 -59 25 6 24 4 25 -40 25 -33 0 -46 4 -46 14 0 8
-16 17 -37 21 -52 10 -57 14 -37 37 16 16 16 21 4 28 -8 6 -27 10 -42 10 -16
0 -28 4 -28 8 0 7 -54 19 -177 39 -18 3 -33 9 -33 14 0 9 -8 10 -48 2z"/>
<path d="M2058 1474 c-5 -4 -8 -14 -8 -22 0 -10 7 -12 25 -8 20 5 25 3 25 -14
0 -20 10 -24 62 -20 16 1 40 -8 54 -19 15 -12 35 -21 46 -21 10 0 28 -9 40
-20 11 -10 32 -22 47 -25 38 -9 84 -52 78 -74 -8 -31 6 -43 37 -31 47 17 126
11 126 -11 0 -5 -9 -9 -20 -9 -13 0 -20 -7 -20 -20 0 -17 6 -20 38 -18 20 1
47 -1 60 -6 17 -6 22 -4 22 10 0 10 -3 14 -7 11 -3 -4 -11 3 -17 15 -21 40
-61 61 -121 62 -52 1 -72 14 -45 31 6 3 10 13 10 22 0 12 -7 14 -28 10 -21 -4
-31 -1 -40 13 -6 10 -22 20 -34 22 -13 2 -22 9 -20 17 4 20 -17 31 -64 31 -32
0 -43 4 -47 19 -3 15 -13 19 -40 18 -21 -1 -44 6 -54 16 -21 18 -94 33 -105
21z"/>
<path d="M1241 1426 c-9 -11 -8 -18 4 -30 9 -9 22 -16 29 -16 8 0 19 -7 26
-15 14 -17 54 -37 118 -59 24 -9 50 -22 58 -31 9 -8 33 -15 55 -15 26 0 42 -5
45 -15 4 -8 15 -15 26 -15 11 0 33 -10 50 -21 36 -26 118 -52 118 -38 0 5 -8
12 -17 15 -52 17 -71 27 -104 58 -26 25 -48 35 -87 41 -28 4 -56 13 -63 21 -6
8 -17 14 -25 14 -53 0 -184 79 -184 111 0 14 -36 11 -49 -5z"/>
<path d="M626 1323 c-3 -10 -11 -26 -18 -36 -11 -14 -10 -19 2 -27 8 -5 24
-10 35 -10 11 -1 36 -14 55 -30 19 -17 42 -30 52 -30 9 0 22 -9 28 -20 8 -15
21 -20 56 -20 32 0 56 -7 82 -25 20 -14 44 -25 53 -25 9 0 22 -7 29 -15 7 -8
19 -15 27 -15 10 0 13 -6 9 -15 -3 -9 0 -18 7 -21 21 -8 67 14 67 32 0 11 -5
14 -16 10 -9 -4 -34 6 -60 24 -25 16 -54 30 -65 30 -10 0 -27 9 -36 20 -13 15
-30 20 -70 20 -58 0 -59 1 -41 30 17 26 9 30 -35 21 -30 -7 -42 -5 -62 10 -15
13 -22 26 -18 36 5 14 1 15 -25 10 -32 -7 -45 6 -17 17 20 7 19 32 -1 40 -24
9 -31 7 -38 -11z"/>
<path d="M1135 1240 c-8 -13 13 -40 30 -40 7 0 20 -10 28 -23 11 -17 32 -27
74 -36 92 -20 176 -53 200 -78 12 -13 32 -23 45 -23 13 0 45 -11 72 -25 55
-28 64 -29 86 -15 13 9 13 11 0 20 -8 5 -25 10 -38 10 -12 0 -30 9 -39 20 -12
14 -30 20 -58 21 -34 0 -37 2 -17 9 12 5 22 13 22 18 0 11 -48 22 -90 22 -15
0 -37 9 -50 20 -15 13 -37 20 -66 20 -55 0 -74 8 -74 31 0 14 -7 19 -30 19
-23 0 -30 4 -30 20 0 15 -7 20 -29 20 -17 0 -33 -5 -36 -10z"/>
<path d="M2733 1183 c-23 -3 -33 -9 -33 -22 0 -14 6 -17 30 -13 23 3 30 0 30
-12 0 -21 43 -21 60 0 25 29 -23 54 -87 47z"/>
<path d="M1785 1170 c-11 -18 12 -36 76 -56 44 -13 64 -25 70 -41 4 -12 19
-25 31 -27 13 -3 35 -7 51 -11 15 -3 27 -12 27 -19 0 -8 16 -20 35 -26 19 -6
37 -19 40 -30 3 -10 13 -20 23 -24 9 -3 29 -15 43 -26 14 -12 45 -24 68 -27
32 -4 45 -12 53 -29 10 -22 25 -29 55 -25 7 1 16 -7 22 -17 13 -24 81 -57 151
-73 51 -12 63 -14 90 -10 6 0 10 12 10 26 0 14 -4 25 -10 25 -5 0 -10 -7 -10
-15 0 -8 -7 -15 -15 -15 -8 0 -15 7 -15 15 0 8 -9 19 -20 25 -16 9 -22 8 -26
-5 -8 -21 -29 -19 -80 7 -38 18 -43 25 -38 45 6 23 5 24 -30 18 -32 -6 -36 -5
-36 13 0 15 -9 22 -32 27 -81 16 -108 28 -108 47 0 12 -7 18 -23 18 -13 0 -36
14 -52 30 -16 17 -34 30 -39 30 -6 0 -17 9 -23 19 -7 11 -29 22 -53 26 -22 4
-46 15 -53 26 -15 20 -92 58 -119 59 -10 0 -18 7 -18 15 0 17 -35 21 -45 5z"/>
<path d="M450 1111 c-8 -16 -4 -24 21 -45 17 -14 35 -26 41 -26 6 0 16 -7 23
-16 6 -9 23 -16 38 -16 16 0 29 -7 32 -18 4 -12 20 -19 54 -24 27 -4 55 -13
62 -22 11 -14 14 -13 22 2 13 23 -16 44 -62 45 -32 0 -34 1 -13 10 25 10 20
31 -6 28 -53 -5 -92 2 -92 16 0 8 -9 15 -20 15 -14 0 -20 6 -18 18 2 13 -4 17
-29 17 -18 0 -33 3 -33 7 0 5 7 8 15 8 8 0 15 5 15 10 0 18 -39 11 -50 -9z"/>
<path d="M2410 1075 c-12 -15 -6 -35 12 -35 6 0 16 -7 22 -16 6 -8 26 -16 43
-18 17 -1 37 -7 45 -13 7 -5 25 -13 40 -17 49 -11 118 -45 118 -58 1 -22 37
-58 58 -58 38 0 72 18 66 35 -6 14 -9 14 -29 1 -25 -17 -35 -12 -35 16 0 13
-13 24 -37 34 -36 15 -146 65 -223 102 -19 9 -39 23 -43 30 -11 16 -22 15 -37
-3z"/>
<path d="M1220 985 c0 -9 11 -20 25 -25 15 -6 23 -15 19 -24 -5 -13 41 -33
119 -50 15 -4 27 -13 27 -21 0 -19 25 -32 83 -40 26 -4 58 -16 71 -26 13 -11
29 -19 36 -19 6 0 19 -9 28 -20 21 -25 97 -41 90 -19 -2 8 -15 15 -27 17 -16
3 -21 9 -19 25 2 16 -3 23 -19 25 -14 2 -20 8 -16 18 6 16 8 16 -78 19 -36 1
-74 7 -85 13 -18 11 -18 11 -1 12 10 0 17 5 15 12 -3 7 -40 19 -84 27 -60 10
-74 16 -58 22 39 14 37 28 -6 35 -23 4 -47 13 -55 20 -19 19 -65 18 -65 -1z"/>
<path d="M1777 953 c-16 -16 -4 -32 41 -51 26 -12 58 -33 70 -47 17 -17 31
-23 46 -19 16 4 33 -4 60 -29 56 -52 126 -52 126 -1 0 17 -14 18 -41 4 -30
-16 -61 4 -53 35 6 24 5 25 -54 25 -52 0 -62 3 -76 24 -8 13 -29 27 -45 31
-16 3 -35 13 -42 21 -13 15 -22 18 -32 7z"/>
<path d="M874 929 c-43 -12 -58 -32 -45 -58 12 -22 63 -32 142 -28 34 1 53 -3
67 -16 21 -19 42 -16 42 7 0 18 -129 61 -143 47 -6 -6 -27 -11 -46 -10 -37 1
-35 3 12 13 22 5 28 12 25 28 -4 26 -13 29 -54 17z"/>
<path d="M305 910 c-10 -16 3 -28 38 -35 17 -4 39 -13 47 -20 8 -7 24 -15 34
-16 11 -2 20 -12 22 -23 4 -27 14 -34 54 -38 26 -2 35 1 38 15 3 13 -3 17 -27
17 -17 0 -31 5 -31 10 0 6 9 10 20 10 11 0 20 6 20 13 0 10 -14 14 -46 14 -25
0 -49 4 -52 10 -7 9 -92 53 -105 53 -3 0 -9 -4 -12 -10z"/>
<path d="M1147 772 c-26 -29 -20 -42 17 -42 19 0 38 -4 41 -10 3 -5 18 -10 32
-10 15 0 36 -11 49 -25 15 -16 34 -25 54 -25 18 0 37 -8 47 -20 11 -13 30 -20
53 -20 20 0 46 -7 58 -16 24 -16 63 -16 69 1 2 6 -17 17 -42 24 -25 7 -50 21
-55 31 -7 14 -22 18 -60 18 -55 1 -74 8 -64 24 8 12 -14 28 -38 28 -10 0 -27
8 -37 18 -41 37 -51 42 -79 42 -16 0 -36 -8 -45 -18z"/>
<path d="M192 732 c-23 -15 3 -60 45 -79 21 -10 51 -28 66 -40 16 -13 35 -23
43 -23 7 0 26 -13 40 -30 32 -36 71 -49 143 -48 39 0 58 -4 66 -16 13 -17 65
-23 65 -7 0 5 -25 21 -55 36 -48 23 -59 25 -89 15 -25 -8 -40 -8 -62 2 l-29
12 35 3 c84 8 76 29 -14 38 -84 7 -116 23 -116 57 0 32 -2 33 -30 16 -15 -10
-26 -9 -54 5 -38 18 -46 34 -21 43 8 4 15 10 15 15 0 11 -31 11 -48 1z"/>
<path d="M645 730 c-11 -4 -26 -5 -34 -2 -9 3 -12 -1 -9 -14 2 -15 13 -20 55
-22 41 -2 53 -7 58 -23 7 -22 43 -26 51 -5 3 8 15 16 26 19 36 10 8 27 -44 27
-29 0 -58 6 -67 14 -10 8 -24 11 -36 6z"/>
<path d="M2200 700 c0 -14 7 -20 24 -20 38 0 108 -29 123 -50 9 -13 26 -20 46
-20 18 0 56 -11 85 -25 63 -29 82 -31 82 -9 0 9 -6 14 -12 11 -7 -2 -38 9 -68
25 -30 15 -60 28 -66 28 -7 0 -15 8 -18 17 -6 15 -8 15 -16 3 -6 -8 -10 -10
-10 -4 0 12 -68 44 -93 44 -10 0 -17 5 -17 10 0 6 -13 10 -30 10 -23 0 -30 -4
-30 -20z"/>
<path d="M1045 691 c-3 -5 -1 -12 5 -16 5 -3 10 1 10 9 0 18 -6 21 -15 7z"/>
<path d="M1810 680 c0 -15 9 -22 30 -26 17 -4 30 -10 30 -15 0 -4 26 -17 58
-29 31 -12 66 -30 77 -40 11 -10 33 -22 49 -26 16 -4 41 -13 55 -20 14 -8 31
-14 38 -14 22 0 83 -33 82 -44 -4 -30 3 -36 41 -36 23 0 42 -6 47 -14 4 -8 33
-24 63 -36 30 -12 60 -26 65 -30 15 -13 55 -1 55 16 0 9 -11 14 -27 14 -31 0
-113 31 -113 43 0 4 5 7 10 7 6 0 10 7 10 16 0 14 -7 15 -44 10 -36 -6 -47 -4
-58 12 -7 10 -33 29 -58 42 -25 14 -55 33 -67 43 -14 12 -30 17 -43 14 -29 -7
-80 11 -80 29 0 8 -6 16 -12 18 -92 26 -98 29 -92 51 6 25 -15 35 -78 35 -32
0 -38 -3 -38 -20z"/>
<path d="M872 608 c7 -19 57 -32 73 -18 22 19 8 30 -36 30 -27 0 -39 -4 -37
-12z"/>
<path d="M1624 564 c-25 -10 -1 -41 47 -59 32 -13 49 -25 49 -37 0 -12 12 -19
42 -25 26 -5 43 -14 44 -23 3 -42 4 -43 43 -37 33 4 40 2 44 -14 6 -22 45 -39
93 -39 27 0 34 -4 34 -19 0 -23 19 -31 71 -31 32 0 39 -3 39 -20 0 -18 5 -20
49 -16 32 3 56 0 69 -10 15 -10 23 -11 27 -3 11 17 -9 30 -54 36 -23 3 -41 11
-41 18 0 7 -20 15 -50 19 -35 5 -48 10 -44 20 6 15 -23 25 -71 26 -16 1 -43 7
-60 14 l-30 14 28 11 c39 15 25 31 -28 31 -35 0 -43 3 -39 15 6 15 -1 17 -81
31 -36 6 -38 7 -17 15 12 5 22 16 22 25 0 13 -7 15 -40 9 -31 -5 -41 -3 -46 9
-11 28 -71 52 -100 40z"/>
<path d="M148 502 c-24 -5 -23 -19 2 -34 12 -8 20 -24 20 -40 0 -23 6 -29 38
-37 20 -6 49 -11 64 -11 15 0 29 -4 32 -9 3 -4 20 -11 38 -15 18 -3 45 -20 60
-36 20 -23 36 -30 63 -30 20 0 45 -5 55 -10 20 -11 70 -4 70 10 0 9 -45 24
-80 25 -81 4 -85 5 -70 15 8 5 25 10 38 10 13 0 20 4 17 10 -3 6 -22 10 -42
10 -48 0 -113 20 -113 35 0 9 -19 12 -64 11 -35 0 -68 3 -72 7 -13 13 18 26
48 20 21 -4 28 -2 28 11 0 12 -9 16 -35 16 -24 0 -43 7 -58 23 -12 13 -30 21
-39 19z"/>
<path d="M683 443 c-13 -2 -23 -11 -23 -18 0 -11 7 -12 32 -4 18 5 34 9 35 9
2 0 3 5 3 10 0 10 -8 11 -47 3z"/>
<path d="M1380 440 c0 -5 5 -10 11 -10 5 0 7 5 4 10 -3 6 -8 10 -11 10 -2 0
-4 -4 -4 -10z"/>
<path d="M895 410 c-3 -5 -1 -10 4 -10 6 0 11 5 11 10 0 6 -2 10 -4 10 -3 0
-8 -4 -11 -10z"/>
<path d="M815 379 c-4 -6 1 -19 11 -29 11 -11 25 -26 32 -35 8 -10 30 -15 62
-15 28 0 50 -4 50 -9 0 -5 23 -11 50 -15 40 -5 50 -10 50 -26 0 -29 15 -33 88
-25 60 7 64 9 42 18 -14 7 -27 14 -30 17 -3 4 -27 13 -55 20 -27 7 -54 19 -58
27 -5 7 -26 13 -51 13 -30 0 -46 5 -50 15 -3 8 -14 15 -25 15 -10 0 -21 9 -24
20 -4 16 -14 20 -45 20 -23 0 -44 -5 -47 -11z"/>
<path d="M670 206 c0 -9 7 -16 16 -16 17 0 14 22 -4 28 -7 2 -12 -3 -12 -12z"/>
<path d="M2310 190 c0 -11 7 -20 15 -20 8 0 15 9 15 20 0 11 -7 20 -15 20 -8
0 -15 -9 -15 -20z"/>
<path d="M1237 193 c-12 -11 -8 -23 8 -23 8 0 15 7 15 15 0 16 -12 20 -23 8z"/>
</g>
</svg>
