<?xml version="1.0" standalone="no"?>
<!DOCTYPE svg PUBLIC "-//W3C//DTD SVG 20010904//EN"
 "http://www.w3.org/TR/2001/REC-SVG-20010904/DTD/svg10.dtd">
<svg version="1.0" xmlns="http://www.w3.org/2000/svg"
 width="381.000000pt" height="228.000000pt" viewBox="0 0 381.000000 228.000000"
 preserveAspectRatio="xMidYMid meet">
<metadata>
Created by potrace 1.16, written by Peter Selinger 2001-2019
</metadata>
<g transform="translate(0.000000,228.000000) scale(0.100000,-0.100000)"
fill="#000000" stroke="none">
<path d="M2573 2273 c3 -5 -23 -6 -56 -4 -77 4 -317 -18 -317 -30 0 -5 7 -9
15 -9 8 0 15 -4 15 -10 0 -6 -33 -10 -80 -10 -66 0 -78 2 -74 15 4 11 0 15
-16 15 -15 0 -20 -5 -17 -14 5 -11 -8 -15 -60 -18 -61 -3 -89 4 -61 15 36 15
-273 10 -465 -7 -75 -7 -143 -8 -150 -4 -7 4 3 8 25 8 20 0 39 4 42 8 3 5 -21
5 -52 0 -139 -20 -250 -29 -435 -33 -110 -3 -202 -7 -206 -10 -5 -2 -140 -5
-302 -6 -162 -1 -300 -4 -306 -7 -18 -6 -16 -22 2 -22 13 0 14 -3 3 -22 -10
-18 -13 -125 -13 -453 -1 -237 -4 -435 -7 -440 -5 -8 -12 -895 -8 -980 1 -11
-1 -38 -4 -60 -12 -96 33 -131 184 -146 111 -10 640 -4 843 10 117 9 175 9
223 0 36 -6 96 -9 132 -5 37 3 83 7 102 8 19 1 1 4 -40 8 l-75 6 88 2 c57 1
86 -2 82 -8 -8 -13 242 -13 430 0 188 13 392 14 493 3 46 -4 86 -5 88 -2 2 4
59 8 127 8 117 2 221 5 479 18 109 5 119 4 144 -16 34 -27 103 -29 105 -3 1 9
2 103 4 207 1 105 8 317 15 472 11 231 12 295 1 360 -21 128 -26 738 -7 905
20 178 14 218 -36 244 -32 17 -19 17 -673 0 -100 -3 -160 -1 -145 4 24 8 23 8
-8 9 -18 1 -31 -2 -29 -6z m540 -10 c-7 -2 -21 -2 -30 0 -10 3 -4 5 12 5 17 0
24 -2 18 -5z m65 0 c-10 -2 -26 -2 -35 0 -10 3 -2 5 17 5 19 0 27 -2 18 -5z
m-255 -20 c-7 -2 -21 -2 -30 0 -10 3 -4 5 12 5 17 0 24 -2 18 -5z m-420 -17
c11 -5 23 -4 30 3 6 6 34 11 62 11 40 -1 47 -3 31 -11 -10 -6 -70 -13 -135
-15 -64 -2 -131 -7 -148 -10 -36 -7 -89 3 -78 14 15 15 208 21 238 8z m283 7
c-11 -11 -136 -13 -136 -2 0 5 32 9 72 9 39 0 68 -3 64 -7z m548 -31 c3 -5 7
-64 10 -133 4 -121 4 -122 -7 -52 -7 39 -16 75 -21 80 -8 8 -4 -50 14 -190 11
-86 11 -342 0 -412 -5 -36 -8 2 -10 135 -2 102 -4 192 -5 200 -1 8 -3 21 -4
28 0 7 -5 11 -10 8 -5 -3 -9 6 -8 22 1 15 0 79 -1 143 l-2 116 -52 12 c-37 9
-61 10 -78 3 -30 -12 -19 -17 52 -27 75 -10 65 -22 -25 -28 -121 -10 -225 -8
-232 3 -4 6 -12 4 -21 -5 -17 -17 -89 -20 -99 -5 -4 7 -11 8 -18 2 -13 -11
-92 -9 -119 3 -11 4 -18 3 -18 -4 0 -7 -21 -11 -54 -11 -30 0 -67 -5 -82 -10
-22 -9 -29 -8 -36 5 -11 19 -32 20 -25 1 5 -12 -3 -15 -36 -15 -81 1 -413 1
-517 0 -58 0 -217 0 -355 1 -137 0 -283 0 -323 -1 -49 -1 -72 2 -72 10 0 8 -4
8 -13 2 -18 -15 -239 -16 -248 -1 -5 9 -11 9 -21 1 -7 -6 -44 -14 -83 -17 -38
-2 -117 -10 -175 -15 -58 -6 -150 -9 -205 -6 -55 2 -126 1 -158 -4 -33 -4 -60
-4 -63 1 -3 5 -11 7 -16 6 -8 -3 -11 -84 -9 -251 1 -192 -2 -247 -11 -247 -9
0 -9 -3 -2 -8 15 -10 16 -38 12 -207 -1 -82 -2 -184 -2 -225 1 -41 4 -243 7
-448 4 -228 10 -378 16 -386 6 -7 7 -23 4 -36 l-6 -23 74 7 c41 3 123 9 184
11 329 15 429 18 515 18 206 -2 689 -13 743 -17 41 -4 60 -1 71 9 16 17 116
21 116 6 0 -6 66 -8 168 -6 93 2 204 0 248 -4 57 -6 88 -4 111 5 29 12 225 16
588 10 108 -2 297 12 307 22 6 6 -1 12 -17 16 -23 6 -25 9 -14 23 18 21 16
157 -5 298 -12 84 -15 195 -15 475 0 631 1 702 9 693 9 -9 18 -293 22 -658 1
-126 6 -250 10 -275 5 -25 10 -125 11 -223 2 -138 5 -180 16 -186 10 -6 14
-45 18 -149 l4 -141 -43 -3 c-24 -2 -65 -1 -93 2 -27 3 -117 2 -200 -1 -82 -3
-451 -4 -820 -2 -1067 6 -1340 4 -1524 -11 -93 -8 -177 -13 -188 -11 -10 2
-40 6 -68 9 -37 4 -46 3 -35 -5 11 -8 -17 -9 -100 -5 -143 8 -157 16 -183 107
-27 95 -24 521 4 626 7 26 8 47 2 58 -6 10 -6 37 -1 68 5 29 11 133 13 232 2
99 7 234 11 300 9 147 8 192 -7 370 -10 116 -10 149 1 187 l14 46 145 8 c80 5
283 8 451 8 168 0 402 0 520 0 378 0 444 -2 448 -14 7 -21 39 -30 73 -20 54
16 212 15 237 -1 18 -11 28 -11 64 1 24 7 73 14 110 13 37 0 65 3 63 8 -3 4
-37 13 -76 19 -39 7 -69 14 -67 16 6 6 488 16 488 10 0 -3 -15 -10 -32 -16
-32 -10 -32 -10 7 -4 22 3 55 8 72 10 27 5 32 3 27 -10 -5 -12 10 -15 98 -18
132 -4 297 5 281 15 -11 7 -154 10 -218 5 -11 -1 -42 -1 -70 1 -95 3 -23 20
111 26 74 3 130 9 132 15 2 6 9 7 15 3 16 -10 131 -3 135 8 4 11 159 12 166 1z
m-1284 -50 c0 -5 -11 -14 -24 -20 -18 -8 -28 -7 -42 3 -13 9 -26 10 -43 3 -14
-5 -47 -8 -75 -7 -28 1 -63 -2 -78 -6 -22 -6 -28 -4 -28 8 0 9 8 17 18 19 38
8 272 8 272 0z m730 -81 c0 -9 -38 -12 -44 -3 -2 4 7 8 20 8 13 1 24 -1 24 -5z
m670 -22 c0 -6 -4 -7 -10 -4 -5 3 -10 11 -10 16 0 6 5 7 10 4 6 -3 10 -11 10
-16z m-546 -14 c-5 -12 -10 -13 -20 -4 -19 15 -18 19 6 19 13 0 18 -5 14 -15z
m139 8 c-7 -2 -19 -2 -25 0 -7 3 -2 5 12 5 14 0 19 -2 13 -5z m324 -25 c-3 -8
-6 -5 -6 6 -1 11 2 17 5 13 3 -3 4 -12 1 -19z m-2397 5 c0 -13 -32 -63 -40
-63 -13 0 -13 7 1 32 11 20 11 20 -14 2 -14 -11 -28 -33 -31 -50 -4 -17 -13
-39 -20 -50 -14 -19 -15 -19 -22 0 -4 10 -2 32 3 47 14 35 8 38 -9 5 l-13 -24
-24 19 c-18 15 -21 23 -13 31 7 7 12 20 12 29 0 10 6 19 13 22 15 5 157 5 157
0z m120 -4 c0 -6 9 -8 20 -4 24 7 26 -7 5 -29 -8 -8 -15 -21 -15 -30 0 -8 -5
-27 -11 -43 l-11 -28 -19 24 c-11 13 -18 29 -16 35 14 37 17 56 10 56 -9 0
-36 -48 -52 -92 -13 -35 -22 -35 -42 0 -14 25 -14 30 0 60 9 17 22 32 29 32 7
0 15 7 18 15 7 17 84 21 84 4z m658 -98 c2 -58 -4 -152 -12 -208 -14 -102 -14
-123 4 -261 6 -40 10 -95 10 -122 0 -45 -2 -48 -27 -51 -16 -2 -38 -3 -50 -1
-23 3 -23 5 -23 170 0 92 3 258 7 369 7 219 4 210 63 210 l26 0 2 -106z m-963
79 c-2 -11 -7 -25 -10 -30 -3 -6 3 -24 15 -40 14 -20 19 -38 15 -52 -5 -18 -4
-20 4 -8 10 13 12 13 21 0 13 -19 13 -37 0 -45 -5 -3 -10 -11 -10 -18 0 -6 7
-2 15 9 14 18 16 18 28 2 8 -10 17 -15 20 -11 4 3 14 0 24 -8 9 -8 3 5 -14 29
l-31 43 21 34 c34 53 53 39 22 -15 -8 -14 -14 -29 -14 -35 0 -5 7 2 15 18 15
28 34 36 34 15 0 -6 7 -19 16 -29 11 -12 14 -24 8 -36 -4 -10 -8 -25 -9 -33 0
-9 -8 -14 -20 -12 -17 2 -18 1 -5 -8 11 -9 12 -13 3 -17 -7 -2 -13 -15 -13
-28 0 -13 -4 -26 -9 -29 -5 -3 -14 -26 -20 -51 -6 -25 -16 -45 -22 -45 -5 0
-7 -5 -3 -11 7 -12 -24 -89 -36 -89 -4 0 -13 7 -20 15 -11 13 -10 14 6 9 14
-5 16 -4 8 5 -15 16 -48 3 -34 -14 5 -6 7 -15 3 -19 -4 -4 0 -4 9 -1 23 9 32
-12 15 -38 -11 -18 -12 -27 -1 -52 8 -18 13 -23 14 -12 0 9 4 17 9 17 5 0 7 9
4 20 -8 30 21 25 42 -6 16 -25 16 -29 1 -61 -9 -19 -14 -38 -12 -42 7 -11 -27
-10 -41 2 -7 5 -13 18 -13 29 0 12 -4 17 -12 12 -8 -5 -9 0 -5 15 4 17 3 20
-7 11 -10 -7 -16 -6 -25 3 -6 8 -22 12 -35 10 -29 -6 -39 16 -24 57 5 17 8 34
4 37 -3 4 -6 1 -6 -5 0 -14 -26 -16 -34 -4 -8 13 30 108 40 102 11 -6 10 -38
-1 -62 -4 -11 -3 -18 3 -18 6 0 12 10 14 23 2 15 11 23 30 25 14 2 29 11 33
20 5 14 4 15 -6 5 -7 -7 -17 -13 -23 -13 -5 0 -7 2 -4 5 2 3 -32 43 -76 88
-45 46 -92 100 -106 120 -22 33 -47 51 -38 28 4 -12 58 -79 91 -114 15 -17 27
-38 27 -48 0 -12 5 -16 14 -13 19 7 30 -30 16 -56 -6 -11 -14 -20 -19 -20 -5
0 -6 -11 -3 -25 2 -15 0 -25 -7 -25 -7 0 -10 -4 -7 -9 8 -12 -30 -82 -39 -73
-4 4 -6 -5 -3 -20 4 -19 1 -25 -9 -21 -7 3 -13 9 -13 15 0 5 -4 6 -10 3 -5 -3
-10 -1 -10 5 0 6 -4 8 -10 5 -16 -10 18 -68 36 -61 9 3 12 2 9 -5 -7 -11 13
-41 24 -35 4 3 8 -5 8 -16 2 -15 -1 -18 -9 -10 -6 6 -18 8 -27 5 -14 -4 -14
-3 -1 6 13 10 8 15 -13 12 -4 0 -6 2 -5 7 2 4 -7 18 -18 30 -16 17 -24 20 -29
11 -5 -7 -4 -10 3 -5 6 3 14 -3 17 -15 4 -11 20 -36 37 -55 17 -19 28 -37 25
-41 -11 -11 -53 25 -70 59 -9 18 -17 29 -17 23 0 -5 -11 3 -25 19 -13 16 -22
33 -19 38 3 4 0 7 -7 6 -7 -2 -18 7 -24 19 -8 16 -15 19 -22 12 -7 -7 -10 -3
-8 15 2 14 0 24 -5 23 -4 -1 -22 15 -39 37 -18 22 -31 32 -31 23 0 -8 -6 -17
-14 -20 -17 -7 -16 1 8 71 21 63 16 80 -8 22 -16 -41 -33 -56 -21 -20 4 12 2
20 -5 20 -7 0 -5 7 4 16 9 8 14 20 11 25 -3 4 8 43 26 84 17 42 29 78 27 81
-3 2 -20 -31 -38 -73 -17 -43 -34 -80 -37 -83 -10 -9 8 75 18 85 5 5 9 18 9
29 0 11 16 62 37 114 29 77 34 98 24 113 -6 11 -8 19 -4 19 5 0 19 3 32 7 21
5 22 3 16 -17 -5 -15 -4 -20 4 -16 6 4 11 14 11 21 0 12 30 15 158 18 86 1
162 4 169 5 7 1 10 -6 8 -18z m1747 5 c7 -8 19 -22 27 -30 7 -9 16 -14 19 -11
3 3 -2 14 -11 24 -23 25 -21 32 8 32 18 0 26 -7 31 -25 4 -16 13 -25 25 -25
17 0 24 -11 20 -33 -1 -5 3 -6 9 -2 6 4 2 21 -10 46 l-20 39 20 0 c11 0 37 -7
58 -17 20 -9 40 -15 45 -15 4 1 21 -20 38 -48 39 -64 47 -64 14 0 -23 46 -24
50 -7 50 12 0 26 -16 40 -46 13 -26 25 -44 28 -41 3 2 -5 23 -17 46 -26 50
-20 63 10 24 29 -37 111 -164 111 -171 0 -9 72 -113 112 -163 21 -25 34 -50
30 -54 -4 -5 -1 -5 6 -1 8 5 12 -1 12 -18 0 -15 7 -27 18 -31 19 -5 28 -57 15
-78 -8 -12 -23 13 -23 39 0 11 -9 29 -20 39 -25 23 -25 19 1 -34 11 -24 18
-45 15 -48 -6 -7 -31 22 -81 94 -35 50 -36 52 -21 82 18 35 19 41 7 41 -5 0
-12 -14 -16 -31 -7 -29 -8 -30 -26 -13 -10 9 -19 20 -19 25 0 4 -16 31 -37 60
-20 30 -32 45 -28 34 5 -11 8 -33 8 -48 0 -20 2 -24 8 -15 7 11 11 10 19 -2 5
-8 10 -21 10 -27 0 -7 4 -13 8 -13 5 0 15 -12 23 -27 7 -16 27 -46 44 -68 40
-52 60 -93 51 -102 -5 -5 -16 3 -25 16 -29 44 -81 103 -81 93 0 -6 8 -18 17
-28 10 -9 18 -23 19 -30 1 -8 9 -21 18 -30 20 -19 21 -34 1 -34 -18 0 -54 38
-61 66 -3 11 -12 21 -20 21 -9 0 -13 -6 -9 -14 5 -16 -11 -54 -29 -65 -19 -13
-29 -9 -16 7 12 15 11 16 -12 19 -7 0 -15 12 -19 26 -4 14 -7 20 -8 13 -1 -7
-12 -2 -26 11 -14 13 -24 30 -22 37 2 8 2 10 -1 6 -5 -11 -42 23 -42 38 0 7
-7 15 -14 18 -22 9 -7 -24 21 -46 13 -10 23 -24 23 -32 0 -7 7 -15 15 -19 8
-3 15 -12 15 -21 0 -21 -28 -19 -33 3 -3 13 -6 11 -15 -10 -6 -16 -16 -28 -22
-28 -14 0 -12 12 6 38 19 27 12 41 -11 22 -14 -12 -15 -10 -10 13 5 17 3 27
-4 27 -6 0 -11 -5 -11 -11 0 -8 -5 -8 -15 1 -9 8 -12 17 -7 24 14 17 23 76 12
76 -6 0 -10 -11 -10 -25 0 -23 -8 -29 -27 -22 -5 1 -6 8 -5 16 2 7 -1 10 -7 6
-7 -3 -11 2 -11 14 0 12 -4 21 -10 21 -5 0 -10 7 -10 17 0 9 -3 13 -7 10 -3
-4 -32 28 -63 71 -31 42 -64 83 -73 91 -10 7 -17 17 -17 22 0 5 -16 32 -36 59
-38 52 -39 66 -7 56 19 -6 103 -118 103 -137 0 -5 4 -9 8 -9 5 0 23 -19 40
-42 54 -74 62 -82 68 -75 3 3 -3 16 -15 28 -12 13 -26 35 -33 50 -7 15 -15 26
-19 24 -3 -3 -12 8 -20 23 -8 15 -16 29 -20 32 -13 12 -89 124 -89 132 0 14
58 9 72 -7z m-2178 -4 c5 -1 4 -7 -1 -13 -5 -7 -15 -33 -22 -58 -18 -62 -50
-122 -51 -94 0 11 4 24 9 30 10 10 41 102 41 118 0 6 -7 2 -15 -8 -14 -19 -15
-19 -15 7 0 22 4 26 23 23 12 -3 26 -5 31 -5z m896 1 c0 -5 -6 -25 -14 -43
-12 -28 -16 -31 -21 -16 -9 23 -20 22 -45 -5 l-21 -23 -6 23 c-3 12 -9 22 -14
22 -5 0 -9 5 -9 11 0 6 6 9 14 6 9 -4 12 0 9 12 -4 15 4 18 51 20 31 1 56 -2
56 -7z m80 -11 c0 -11 -4 -22 -9 -25 -12 -8 -34 21 -26 34 11 17 35 11 35 -9z
m49 4 c3 -12 -13 -9 -17 4 -2 7 0 11 6 7 5 -3 10 -8 11 -11z m71 -5 c0 -5 -2
-10 -4 -10 -3 0 -8 5 -11 10 -3 6 -1 10 4 10 6 0 11 -4 11 -10z m677 -17 c-3
-3 -11 -2 -17 2 -9 6 -9 10 1 16 14 8 27 -7 16 -18z m92 -48 c29 -41 49 -75
45 -75 -4 0 5 -9 20 -21 14 -11 38 -40 52 -65 14 -24 31 -44 36 -44 6 0 6 -6
-2 -14 -6 -8 -18 -12 -26 -9 -8 3 -14 -1 -14 -11 0 -9 7 -16 14 -16 17 0 60
-54 70 -87 4 -13 13 -20 20 -17 13 5 31 -35 21 -45 -3 -2 -5 1 -5 7 0 15 -36
16 -45 2 -3 -5 -10 -10 -16 -10 -13 0 -11 34 4 49 10 10 7 11 -14 6 -42 -10
-92 52 -67 82 12 15 11 15 -9 5 -23 -13 -40 -1 -28 18 3 6 -1 10 -10 10 -12 0
-14 -4 -6 -19 8 -14 7 -22 -4 -31 -22 -18 -19 -33 14 -66 23 -23 27 -32 18
-43 -10 -12 -9 -13 2 -6 10 6 12 4 6 -5 -5 -8 -3 -11 6 -8 13 4 59 -29 59 -44
0 -4 -7 -8 -15 -8 -9 0 -12 6 -8 17 5 12 2 15 -10 10 -17 -6 -32 6 -126 108
-38 42 -42 50 -32 71 14 32 29 31 23 -2 -3 -19 -1 -25 7 -20 6 4 9 12 5 17 -3
5 8 22 25 38 17 16 31 31 31 34 0 12 -36 0 -51 -16 -10 -10 -21 -17 -25 -16
-24 4 -36 -2 -30 -16 3 -8 1 -15 -4 -15 -5 0 -15 7 -24 15 -20 20 -26 19 -26
-5 0 -11 3 -19 8 -18 13 4 64 -51 57 -62 -5 -8 -11 -8 -19 -1 -13 11 -26 5
-26 -10 0 -5 7 -6 16 -2 13 5 15 2 9 -18 -7 -21 -6 -22 9 -10 13 11 16 11 16
-1 0 -7 15 -22 33 -33 l32 -18 -20 24 c-11 13 -26 29 -32 37 -15 15 -17 32 -5
32 14 0 32 -23 32 -42 0 -10 7 -18 15 -18 21 0 19 -23 -4 -44 -22 -20 -44 -13
-61 20 -7 13 -17 24 -22 24 -4 0 -8 7 -8 15 0 8 -7 15 -15 15 -8 0 -15 -9 -15
-21 0 -11 5 -17 10 -14 6 3 10 0 10 -9 0 -15 -24 -16 -40 0 -9 9 4 62 22 89 8
12 1 24 -26 45 -18 14 -19 14 -8 -7 15 -27 16 -55 1 -30 -5 9 -14 17 -20 17
-5 0 -2 -11 6 -24 13 -20 14 -29 5 -46 l-12 -22 -19 21 c-10 11 -19 24 -19 29
0 5 -11 14 -25 20 -32 15 -32 30 2 43 20 7 28 6 35 -3 6 -10 8 -8 8 5 0 9 4
17 9 17 5 0 11 10 13 23 2 14 9 21 20 21 14 -1 16 2 7 18 -10 18 -11 18 -29
-4 -18 -22 -19 -22 -20 -3 0 15 -2 17 -9 6 -12 -19 -24 4 -16 32 7 22 7 22 -9
2 -15 -20 -15 -20 -16 1 0 12 6 27 13 33 11 8 17 5 27 -14 10 -19 16 -22 22
-13 4 7 8 18 8 23 0 6 -5 3 -10 -5 -18 -27 -10 5 11 49 11 24 18 46 15 49 -4
3 -12 -9 -18 -26 -14 -37 -28 -42 -28 -11 0 23 39 99 51 99 4 0 9 6 12 13 2 6
3 2 1 -10 -2 -11 -7 -29 -11 -39 -5 -13 -3 -16 9 -12 9 4 21 1 27 -5 8 -8 11
-7 11 6 0 20 16 23 23 5 2 -8 8 -9 13 -4 5 5 4 11 -3 13 -16 6 -17 45 -1 61 7
7 13 12 14 12 1 0 25 -34 53 -75z m54 65 c10 0 17 -8 17 -20 0 -11 4 -20 10
-20 5 0 21 -12 35 -27 l26 -28 -21 37 c-25 43 -20 58 20 58 21 0 33 -8 48 -33
10 -18 46 -69 78 -112 90 -120 134 -183 134 -195 0 -5 4 -10 10 -10 15 0 43
-48 35 -61 -5 -7 -14 -4 -29 12 -12 13 -32 33 -46 44 l-25 20 20 -25 c11 -14
28 -31 38 -38 21 -16 22 -32 2 -32 -8 0 -15 5 -15 11 0 5 -4 8 -9 5 -5 -4 -12
0 -15 6 -4 7 -4 3 -2 -9 2 -13 -3 -28 -13 -35 -14 -12 -15 -11 -2 5 12 15 11
17 -2 17 -11 0 -14 6 -10 16 4 12 0 14 -22 8 -25 -6 -27 -5 -23 14 4 15 2 19
-9 15 -12 -5 -14 -1 -8 18 6 20 5 22 -6 12 -15 -15 -29 -17 -29 -5 0 5 -18 28
-40 51 -22 23 -38 46 -35 52 4 5 0 9 -7 9 -15 0 -108 126 -108 147 0 7 -4 13
-9 13 -15 0 -63 69 -55 81 3 6 16 8 28 5 11 -3 29 -6 39 -6z m800 -2 c4 -10 7
-10 15 0 7 10 14 6 29 -20 29 -49 34 -68 19 -62 -10 4 -12 -2 -9 -20 3 -14 11
-26 19 -26 8 0 11 7 8 18 -5 14 -4 15 5 2 6 -8 8 -23 5 -34 -4 -11 -2 -16 4
-12 6 4 8 -2 5 -14 -3 -11 -1 -20 4 -20 10 0 33 -43 33 -62 0 -16 -28 11 -36
35 -3 11 -15 30 -25 41 -11 11 -19 26 -19 33 0 7 -11 18 -25 23 -16 6 -23 15
-19 24 3 9 -3 19 -16 26 -13 7 -19 17 -16 26 3 8 2 12 -3 9 -13 -8 -22 10 -15
29 7 19 30 21 37 4z m78 -25 c5 -14 8 -28 5 -30 -4 -5 -36 50 -36 62 0 14 22
-9 31 -32z m216 -10 c-3 -10 -5 -2 -5 17 0 19 2 27 5 18 2 -10 2 -26 0 -35z
m-1307 34 c0 -3 -16 -38 -58 -127 -6 -14 -11 -18 -11 -10 3 33 -1 51 -10 46
-9 -6 -21 16 -21 39 0 15 27 45 41 45 13 0 11 -34 -2 -47 -6 -6 -7 -13 -1 -17
5 -3 16 12 25 34 8 22 20 40 26 40 6 0 11 -1 11 -3z m850 -27 c7 -16 16 -30
21 -30 14 0 11 16 -6 30 -26 21 -17 30 31 30 37 0 47 -4 51 -20 3 -11 9 -20
14 -20 5 0 9 -4 9 -10 0 -5 16 -30 35 -56 19 -25 35 -52 35 -61 0 -9 6 -13 15
-9 18 7 37 -26 28 -50 -4 -11 -3 -15 5 -10 15 9 44 -37 36 -57 -3 -9 3 -25 15
-38 24 -26 26 -41 9 -72 -10 -20 -10 -21 5 -9 38 32 46 -30 10 -70 -10 -11
-12 -18 -5 -18 7 0 12 -5 12 -11 0 -6 -6 -9 -12 -7 -7 3 -13 22 -13 44 0 21
-8 54 -18 72 -10 19 -16 40 -13 48 3 9 1 12 -5 9 -6 -4 -13 2 -16 14 -3 12 -9
21 -14 21 -5 0 3 -26 16 -57 14 -31 24 -61 22 -66 -2 -8 -63 83 -103 154 -9
16 -13 17 -18 7 -5 -10 -7 -10 -12 0 -3 7 -17 26 -31 43 -16 19 -24 38 -21 53
3 13 -2 32 -9 42 -13 17 -14 16 -7 -11 10 -43 -6 -24 -56 68 -23 42 -37 77
-32 77 5 0 15 -13 22 -30z m-1096 5 c-4 -8 -8 -15 -10 -15 -2 0 -4 7 -4 15 0
8 4 15 10 15 5 0 7 -7 4 -15z m-530 -20 c4 -15 0 -37 -7 -52 -14 -26 -15 -26
-26 -6 -8 15 -8 30 0 52 13 38 25 40 33 6z m126 -8 c0 -5 -4 -5 -10 -2 -5 3
-10 14 -10 23 0 15 2 15 10 2 5 -8 10 -19 10 -23z m537 11 c-3 -8 -6 -5 -6 6
-1 11 2 17 5 13 3 -3 4 -12 1 -19z m-596 -25 c-10 -17 -10 -16 -11 3 0 23 13
41 18 25 2 -6 -1 -18 -7 -28z m-998 -41 c-14 -34 -28 -60 -31 -58 -5 6 27 96
41 114 20 26 16 3 -10 -56z m770 -25 c-14 -29 -17 -30 -23 -12 -4 11 -9 22
-11 25 -1 3 3 21 9 40 l13 35 14 -29 c13 -24 13 -31 -2 -59z m791 67 c9 -3 16
-16 16 -28 0 -16 2 -18 9 -7 8 12 11 9 16 -12 4 -15 4 -34 1 -43 -5 -14 -4
-15 9 -4 16 13 20 4 9 -24 -5 -12 -13 -9 -40 17 -28 25 -34 36 -29 57 4 17 3
20 -3 11 -7 -9 -12 -10 -16 -2 -10 16 -26 14 -26 -3 0 -16 -18 -31 -26 -23
-11 11 17 47 36 47 11 0 20 5 20 10 0 12 3 12 24 4z m1481 -551 c4 -90 3 -163
-2 -163 -4 0 -9 51 -11 113 -1 61 -7 148 -12 192 -7 68 -7 337 1 400 1 11 5
-70 9 -180 5 -110 11 -273 15 -362z m-2192 534 c7 4 8 0 4 -11 -4 -10 -7 -22
-7 -27 0 -18 -18 -8 -23 13 -6 23 4 51 11 30 2 -7 9 -9 15 -5z m181 -3 c11
-28 7 -35 -14 -24 -11 6 -17 16 -14 25 8 20 20 19 28 -1z m-79 -5 c-4 -6 0
-16 9 -22 14 -11 13 -14 -4 -37 l-18 -25 -7 27 c-6 23 8 68 21 68 3 0 2 -5 -1
-11z m1879 -5 c10 -25 -1 -29 -14 -5 -6 12 -7 21 -1 21 5 0 12 -7 15 -16z m53
-6 c-3 -8 -6 -5 -6 6 -1 11 2 17 5 13 3 -3 4 -12 1 -19z m-2181 -51 c-2 -9 0
-15 4 -12 15 9 32 -34 24 -58 -5 -12 -7 -25 -6 -29 1 -5 -2 -8 -6 -8 -13 0
-32 23 -32 38 0 12 3 12 15 2 25 -21 19 9 -7 31 -11 11 -22 19 -23 19 0 0 -2
-17 -2 -37 -1 -25 5 -43 18 -54 21 -18 23 -27 10 -48 -13 -21 -43 11 -34 35 6
16 5 17 -9 4 -8 -8 -13 -22 -10 -32 3 -12 -1 -18 -11 -18 -10 0 -13 -6 -10
-20 3 -11 12 -20 20 -20 10 0 12 6 8 20 -4 14 -2 20 8 20 21 0 29 -27 12 -43
-12 -13 -10 -19 16 -48 29 -33 38 -59 19 -59 -5 0 -9 -3 -9 -7 4 -27 -1 -35
-16 -23 -17 14 -21 0 -4 -17 15 -15 3 -47 -12 -37 -8 4 -9 3 -5 -5 10 -15 -22
-84 -35 -76 -5 4 -9 15 -9 25 0 14 5 18 18 13 15 -6 15 -4 4 9 -10 13 -11 22
-3 37 12 22 4 54 -11 45 -6 -4 -5 -10 3 -15 10 -6 10 -9 2 -9 -7 0 -10 -7 -6
-17 4 -10 2 -14 -4 -10 -6 4 -14 -4 -17 -18 -4 -14 -11 -23 -16 -20 -10 6 -9
45 1 45 4 0 10 23 14 50 8 57 20 63 39 20 l12 -31 12 25 c9 21 9 24 -4 19 -10
-4 -12 0 -8 10 3 9 12 13 20 10 8 -3 14 0 14 7 0 6 -4 8 -10 5 -5 -3 -10 2
-10 12 -1 15 -3 15 -13 -4 -12 -23 -12 -23 -41 12 -33 39 -58 49 -28 10 17
-21 18 -29 8 -60 -6 -19 -17 -35 -25 -35 -9 0 -10 -4 -3 -12 6 -8 6 -22 0 -37
l-9 -25 -32 33 c-20 21 -27 35 -20 38 7 2 9 11 6 19 -6 17 8 19 25 2 7 -7 12
-9 12 -4 0 4 -7 14 -16 23 -11 11 -12 19 -5 26 6 6 11 19 11 28 0 9 6 22 14
29 8 6 12 18 9 26 -3 8 0 14 7 14 7 0 10 7 6 15 -3 8 2 21 10 30 8 8 12 19 9
25 -3 5 -1 10 4 10 6 0 11 9 11 20 0 26 27 80 40 80 6 0 10 9 10 19 0 11 3 27
7 36 5 15 8 15 25 -6 10 -13 16 -32 14 -42z m111 -31 l-10 -29 -18 24 c-16 21
-16 26 -2 52 l15 30 12 -24 c9 -17 10 -33 3 -53z m73 54 c6 -12 7 -27 2 -36
-7 -13 -10 -12 -25 4 -10 11 -15 26 -11 36 8 22 21 20 34 -4z m126 -17 c-4 -4
-11 -1 -16 7 -16 25 -11 35 7 17 9 -9 13 -20 9 -24z m44 17 c0 -5 -5 -10 -11
-10 -5 0 -7 5 -4 10 3 6 8 10 11 10 2 0 4 -4 4 -10z m495 -50 c13 -22 13 -25
-3 -29 -9 -2 -20 -8 -24 -14 -4 -6 -11 -8 -15 -3 -4 5 -2 11 5 13 6 3 12 12
12 20 0 13 -3 13 -15 3 -25 -21 -30 -3 -11 38 17 34 19 35 28 17 5 -11 15 -31
23 -45z m-543 -11 c5 -4 7 -16 3 -28 -8 -26 -25 -19 -18 8 3 10 -1 22 -8 26
-8 5 -10 4 -5 -3 4 -7 3 -12 -3 -12 -18 0 -22 19 -10 42 l12 22 9 -24 c5 -13
14 -27 20 -31z m473 32 c-3 -6 -11 -11 -17 -11 -6 0 -6 6 2 15 14 17 26 13 15
-4z m-445 -7 c0 -8 -5 -12 -10 -9 -6 4 -8 11 -5 16 9 14 15 11 15 -7z m40 6
c0 -5 -4 -10 -10 -10 -5 0 -10 5 -10 10 0 6 5 10 10 10 6 0 10 -4 10 -10z
m-1175 -20 c-5 -15 -3 -18 9 -14 9 3 16 5 16 3 0 -2 -4 -30 -10 -62 -7 -43 -6
-64 3 -78 9 -14 9 -23 0 -38 -7 -11 -8 -22 -3 -27 5 -5 6 -23 2 -39 -10 -34
-20 -23 -27 29 -3 26 -1 35 7 30 8 -5 9 -1 3 12 -12 27 -14 97 -3 110 5 7 4
23 -2 38 -13 35 -13 56 1 56 6 0 8 -9 4 -20z m959 -47 c-7 -26 -19 -29 -40 -9
-11 12 -12 20 -2 41 11 25 12 25 30 8 11 -12 15 -26 12 -40z m60 41 c9 -24 7
-44 -5 -44 -6 0 -8 10 -5 23 3 12 3 16 0 9 -8 -17 -24 -5 -17 13 7 20 19 19
27 -1z m-957 -16 c-3 -8 -6 -5 -6 6 -1 11 2 17 5 13 3 -3 4 -12 1 -19z m865
-90 c-6 -6 -14 2 -22 21 -7 17 -16 31 -21 31 -5 0 -9 7 -9 15 0 8 -4 15 -10
15 -5 0 -10 7 -10 16 0 9 18 -8 41 -36 26 -33 38 -55 31 -62z m225 90 c-3 -8
-6 -5 -6 6 -1 11 2 17 5 13 3 -3 4 -12 1 -19z m392 -22 c-9 -8 -10 -7 -5 7 3
10 7 24 7 30 1 7 3 4 6 -7 3 -10 -1 -23 -8 -30z m-237 2 c-7 -7 -12 -8 -12 -2
0 6 3 14 7 17 3 4 9 5 12 2 2 -3 -1 -11 -7 -17z m271 -25 c-3 -7 -10 -13 -15
-13 -6 0 -7 7 -4 16 3 9 6 21 6 27 0 7 4 7 9 -2 5 -8 7 -20 4 -28z m129 -3 c6
0 8 -12 4 -32 -6 -30 -5 -31 8 -13 13 17 15 17 16 4 0 -23 -24 -30 -55 -16
-16 8 -24 18 -22 28 3 10 -2 16 -12 15 -9 0 -16 6 -16 14 0 8 6 14 13 13 6 -2
12 1 12 6 0 18 35 17 38 -1 2 -10 8 -18 14 -18z m-1725 8 c-3 -8 -6 -5 -6 6
-1 11 2 17 5 13 3 -3 4 -12 1 -19z m882 -2 c8 -13 11 -30 8 -38 -3 -8 -8 -4
-15 12 -8 18 -11 20 -11 7 -1 -9 13 -31 29 -49 32 -33 36 -43 20 -53 -6 -3
-13 1 -17 11 -3 9 -20 30 -36 46 -23 22 -28 31 -19 40 7 7 12 20 12 30 0 25
14 22 29 -6z m185 -10 c-6 -16 -8 -17 -16 -2 -11 19 0 42 13 29 6 -6 7 -18 3
-27z m89 4 c-3 -11 -9 -20 -14 -20 -10 0 -11 12 -3 34 9 22 23 10 17 -14z
m-148 3 c12 -17 9 -53 -5 -53 -16 0 -29 27 -23 48 6 26 12 27 28 5z m215 -2
c0 -6 -4 -13 -10 -16 -5 -3 -10 1 -10 9 0 9 5 16 10 16 6 0 10 -4 10 -9z m297
-63 c-2 -13 -4 -3 -4 22 0 25 2 35 4 23 2 -13 2 -33 0 -45z m-421 16 c-4 -12
-10 -14 -17 -7 -5 5 -7 17 -3 27 4 12 10 14 17 7 5 -5 7 -17 3 -27z m520 9
c-10 -10 -19 5 -10 18 6 11 8 11 12 0 2 -7 1 -15 -2 -18z m-376 8 c0 -6 -4
-13 -10 -16 -5 -3 -10 1 -10 9 0 9 5 16 10 16 6 0 10 -4 10 -9z m-316 -17 c11
-30 6 -37 -14 -19 -11 10 -17 22 -14 26 8 14 21 11 28 -7z m118 -10 c-2 -10
-6 -21 -8 -24 -9 -8 -22 23 -17 37 8 20 29 9 25 -13z m150 -6 c-9 -9 -12 -7
-12 12 0 19 3 21 12 12 9 -9 9 -15 0 -24z m378 25 c0 -19 -13 -53 -19 -53 -4
0 -6 14 -3 30 2 17 8 30 13 30 5 0 9 -3 9 -7z m1430 -26 c0 -18 -2 -19 -10 -7
-13 20 -13 43 0 35 6 -3 10 -16 10 -28z m-2010 -15 l0 -26 -21 21 c-23 22 -18
46 6 36 8 -3 15 -17 15 -31z m666 15 c3 -19 2 -19 -20 -11 -8 3 -12 12 -9 20
7 19 26 13 29 -9z m-804 -4 c14 -16 14 -23 0 -66 -14 -45 -16 -47 -34 -31 -21
20 -22 38 -7 83 13 36 20 38 41 14z m264 -9 c-4 -9 -9 -15 -11 -12 -3 3 -3 13
1 22 4 9 9 15 11 12 3 -3 3 -13 -1 -22z m1057 -10 c16 -19 26 -38 22 -42 -7
-7 -65 56 -65 70 0 17 16 7 43 -28z m-1093 -4 c0 -5 -7 -15 -15 -24 -9 -8 -15
-19 -14 -23 4 -22 -2 -32 -16 -27 -8 4 -15 10 -15 14 0 5 7 15 15 24 8 8 15
24 15 35 0 14 5 19 15 15 8 -4 15 -10 15 -14z m140 5 c0 -8 -4 -15 -10 -15 -5
0 -10 7 -10 15 0 8 5 15 10 15 6 0 10 -7 10 -15z m-257 -54 c-7 -29 -10 -31
-27 -18 -17 13 -18 17 -5 45 11 26 16 29 27 18 9 -9 11 -22 5 -45z m53 24 c-8
-23 -25 -9 -19 16 4 13 9 17 16 10 5 -5 7 -17 3 -26z m584 31 c0 -3 -4 -8 -10
-11 -5 -3 -10 -1 -10 4 0 6 5 11 10 11 6 0 10 -2 10 -4z m490 -93 c0 -21 -17
-15 -38 12 -11 14 -25 25 -31 25 -14 0 -14 13 1 28 10 10 18 5 40 -20 15 -18
28 -39 28 -45z m-1194 42 c4 -14 3 -29 0 -33 -9 -8 -26 18 -26 41 0 26 19 20
26 -8z m185 -30 c-11 -22 -20 -33 -21 -24 0 21 33 86 37 73 2 -5 -6 -28 -16
-49z m82 30 c-7 -21 -13 -19 -13 6 0 11 4 18 10 14 5 -3 7 -12 3 -20z m42 15
c3 -5 1 -10 -4 -10 -6 0 -11 5 -11 10 0 6 2 10 4 10 3 0 8 -4 11 -10z m515
-22 c0 -26 -24 -18 -28 10 -3 16 1 20 12 16 9 -3 16 -15 16 -26z m-726 -20
c-3 -11 -17 -45 -30 -75 -27 -60 -45 -68 -20 -10 8 19 12 38 8 41 -3 3 -1 6 5
6 12 0 26 37 23 59 -1 7 4 10 10 6 6 -4 8 -16 4 -27z m581 13 c-3 -6 -14 -11
-23 -11 -15 1 -15 2 2 15 21 16 32 13 21 -4z m78 -24 c-7 -11 -23 2 -23 19 0
12 2 12 14 2 8 -7 12 -16 9 -21z m-463 8 c0 -8 -4 -15 -10 -15 -5 0 -10 7 -10
15 0 8 5 15 10 15 6 0 10 -7 10 -15z m1040 0 c7 -9 8 -15 2 -15 -5 0 -12 7
-16 15 -3 8 -4 15 -2 15 2 0 9 -7 16 -15z m-1326 -58 c-5 -7 0 -6 10 3 11 8
14 16 7 18 -13 4 -15 42 -2 42 14 0 30 -24 27 -40 -2 -8 -9 -28 -15 -45 -12
-28 -18 -50 -20 -68 -1 -5 -5 -6 -9 -3 -5 3 -6 -9 -4 -27 4 -30 3 -31 -13 -16
-20 20 -12 79 11 79 17 0 17 0 -1 41 -8 19 -14 27 -15 19 0 -12 -3 -12 -16 2
-11 10 -14 23 -9 38 l7 22 25 -26 c14 -15 21 -31 17 -39z m846 54 c0 -6 -4
-13 -10 -16 -5 -3 -10 1 -10 9 0 9 5 16 10 16 6 0 10 -4 10 -9z m-717 -13 c5
-17 -14 -59 -24 -52 -13 7 -11 44 2 44 5 0 7 5 4 10 -3 6 -2 10 4 10 5 0 11
-6 14 -12z m107 -4 c0 -8 -4 -12 -10 -9 -5 3 -10 10 -10 16 0 5 5 9 10 9 6 0
10 -7 10 -16z m458 -2 c2 -7 -2 -10 -12 -6 -9 3 -16 11 -16 16 0 13 23 5 28
-10z m187 -18 c16 -25 16 -25 -3 -15 -13 7 -23 7 -32 -2 -7 -7 -11 -7 -8 -2 3
6 8 18 11 28 8 23 12 22 32 -9z m641 5 c7 -12 -15 -31 -31 -26 -5 2 -11 11
-13 20 -4 19 32 24 44 6z m-1265 -28 c-7 -5 -11 -13 -8 -18 7 -11 -10 -40 -18
-31 -4 4 -1 23 6 42 9 25 16 33 23 26 8 -8 7 -13 -3 -19z m-35 3 c-3 -9 -6
-18 -6 -20 0 -2 -4 -4 -9 -4 -5 0 -7 9 -4 20 3 11 10 20 15 20 6 0 7 -7 4 -16z
m1059 -3 c-3 -6 -11 -11 -16 -11 -5 0 -4 6 3 14 14 16 24 13 13 -3z m185 -2
c0 -5 -4 -9 -10 -9 -5 0 -10 7 -10 16 0 8 5 12 10 9 6 -3 10 -10 10 -16z
m-2257 -92 c-4 -6 -8 -15 -8 -19 0 -18 -15 -11 -35 15 -13 17 -20 36 -17 48 4
16 3 18 -9 8 -11 -9 -14 -8 -14 5 0 9 7 16 15 16 9 0 12 6 8 18 -3 9 11 -4 31
-31 23 -29 34 -52 29 -60z m751 49 c-8 -40 -10 -41 -29 -22 -17 17 -13 52 4
42 5 -4 7 4 3 16 -5 21 -4 22 12 9 12 -11 15 -22 10 -45z m486 4 c-17 -32 -22
-18 -8 21 8 22 13 28 16 17 2 -9 -2 -27 -8 -38z m230 31 c0 -10 -22 -31 -32
-31 -4 0 -8 11 -8 24 0 19 4 23 20 19 11 -3 20 -8 20 -12z m753 -2 c-4 -15 -9
-17 -17 -9 -8 8 -7 13 4 20 8 5 16 10 17 10 0 0 -1 -9 -4 -21z m-1274 -32 c1
-5 -6 -1 -15 7 -8 9 -12 21 -8 28 5 8 10 6 15 -8 4 -10 8 -23 8 -27z m647 16
c-10 -10 -19 5 -10 18 6 11 8 11 12 0 2 -7 1 -15 -2 -18z m214 12 c10 -12 10
-19 2 -27 -15 -15 -48 14 -38 31 10 15 21 14 36 -4z m226 -12 c-7 -7 -26 7
-26 19 0 6 6 6 15 -2 9 -7 13 -15 11 -17z m-2006 -27 c0 -6 -7 -2 -15 8 -8 11
-15 25 -15 30 0 6 7 2 15 -8 8 -11 15 -25 15 -30z m863 38 c3 -4 -3 -24 -14
-46 -25 -49 -37 -42 -19 12 13 39 20 46 33 34z m786 -10 c3 -3 0 -9 -5 -14 -6
-6 -16 -2 -28 11 -17 20 -17 21 6 14 13 -4 25 -9 27 -11z m41 -4 c9 -16 8 -18
-5 -14 -8 4 -15 12 -15 20 0 20 7 17 20 -6z m423 8 c27 -13 41 -33 32 -48 -7
-12 -45 -19 -45 -9 0 5 5 9 12 9 6 0 9 3 6 6 -4 3 -15 1 -27 -5 -16 -9 -23 -7
-35 11 -11 16 -13 25 -4 35 13 16 27 16 61 1z m243 -22 c-10 -16 -23 -24 -36
-21 -11 2 -20 -1 -20 -6 0 -6 -4 -8 -10 -4 -5 3 -7 12 -4 19 7 17 44 28 44 13
0 -6 8 -1 17 10 23 29 30 20 9 -11z m-2051 4 c3 -5 3 -21 -1 -35 -4 -18 -11
-24 -22 -20 -12 4 -13 3 -2 -10 7 -8 8 -15 2 -15 -5 0 -12 -9 -15 -20 -3 -11
-10 -20 -15 -20 -6 0 -4 21 6 50 12 38 20 49 32 45 12 -5 13 -4 3 6 -7 7 -13
17 -13 21 0 11 18 10 25 -2z m1315 -21 c0 -5 -9 -9 -19 -9 -22 0 -36 27 -18
33 13 5 37 -11 37 -24z m256 16 c4 -8 12 -15 20 -15 21 0 17 -18 -6 -25 -27
-9 -49 10 -43 35 6 24 21 26 29 5z m1107 -92 c4 -62 2 -103 -4 -103 -5 0 -9
-51 -8 -122 1 -79 4 -112 9 -93 4 17 8 -50 9 -159 0 -104 -1 -187 -3 -185 -2
2 -12 63 -21 134 -22 158 -25 442 -6 455 8 5 11 16 6 30 -6 20 3 156 10 148 1
-2 5 -49 8 -105z m-2079 64 c7 -6 6 -7 -4 -4 -8 2 -16 12 -17 23 -2 13 -1 15
4 4 3 -8 11 -19 17 -23z m829 8 c-10 -7 -20 -12 -21 -10 -7 7 23 33 31 28 5
-3 0 -11 -10 -18z m737 15 c0 -5 -5 -10 -11 -10 -5 0 -7 5 -4 10 3 6 8 10 11
10 2 0 4 -4 4 -10z m120 2 c0 -13 -12 -22 -22 -16 -10 6 -1 24 13 24 5 0 9 -4
9 -8z m-905 -42 c-5 -8 -11 -6 -20 7 -17 23 -7 39 12 20 9 -8 12 -20 8 -27z
m312 10 c1 -10 -2 -22 -7 -25 -6 -3 -10 0 -10 9 0 8 -6 17 -12 19 -10 4 -9 8
2 16 17 12 23 8 27 -19z m230 -8 c-14 -17 -22 0 -12 26 5 14 7 14 15 2 5 -9 4
-20 -3 -28z m-1280 6 c-3 -8 -6 -5 -6 6 -1 11 2 17 5 13 3 -3 4 -12 1 -19z
m873 6 c0 -14 -3 -14 -15 -4 -8 7 -15 14 -15 16 0 2 7 4 15 4 8 0 15 -7 15
-16z m605 6 c-3 -5 -10 -10 -16 -10 -5 0 -9 5 -9 10 0 6 7 10 16 10 8 0 12 -4
9 -10z m395 -14 c0 -27 -34 -75 -46 -63 -4 4 -3 17 3 30 6 12 14 30 17 40 8
25 26 21 26 -7z m-2117 -32 c-5 -13 -8 -12 -24 2 -10 9 -15 22 -12 30 5 13 8
12 24 -2 10 -9 15 -22 12 -30z m1347 40 c0 -4 -8 -13 -17 -20 -12 -9 -14 -13
-5 -14 18 0 5 -20 -13 -20 -15 0 -10 25 9 47 12 13 26 17 26 7z m340 2 c0 -2
-11 -11 -25 -20 -21 -14 -25 -14 -25 -2 0 8 8 17 18 19 25 7 32 7 32 3z
m-1517 -26 c-5 -19 -23 -39 -23 -25 0 9 20 45 24 45 2 0 2 -9 -1 -20z m1387
10 c0 -5 -5 -10 -11 -10 -5 0 -7 5 -4 10 3 6 8 10 11 10 2 0 4 -4 4 -10z m505
0 c3 -5 2 -10 -4 -10 -5 0 -13 5 -16 10 -3 6 -2 10 4 10 5 0 13 -4 16 -10z
m92 -37 c-3 -10 -5 -2 -5 17 0 19 2 27 5 18 2 -10 2 -26 0 -35z m-1866 7 c5 0
9 -5 9 -11 0 -8 -5 -8 -15 1 -8 7 -14 20 -14 29 1 13 2 13 6 -1 2 -10 9 -18
14 -18z m669 21 c0 -6 -4 -13 -10 -16 -5 -3 -10 1 -10 9 0 9 5 16 10 16 6 0
10 -4 10 -9z m138 -16 c-3 -3 -9 2 -12 12 -6 14 -5 15 5 6 7 -7 10 -15 7 -18z
m114 13 c-7 -7 -12 -19 -12 -28 0 -20 -34 -54 -50 -48 -6 2 -2 12 10 26 12 12
18 26 15 32 -3 5 3 13 12 19 25 14 40 14 25 -1z m251 -7 c3 -12 -1 -21 -12
-24 -9 -3 -25 -8 -35 -13 -14 -5 -17 -4 -12 4 4 7 2 12 -3 12 -19 0 -12 17 12
28 33 16 44 14 50 -7z m147 4 c-7 -9 -15 -13 -17 -11 -7 7 7 26 19 26 6 0 6
-6 -2 -15z m135 5 c-3 -5 -10 -10 -16 -10 -5 0 -9 5 -9 10 0 6 7 10 16 10 8 0
12 -4 9 -10z m-2448 -35 c-17 -35 -28 -31 -14 4 6 17 14 28 18 25 4 -2 2 -15
-4 -29z m340 -16 c-2 -32 -7 -35 -25 -17 -18 18 -15 31 6 23 14 -5 15 -4 5 6
-7 7 -13 19 -13 27 0 12 3 12 15 2 8 -6 13 -25 12 -41z m544 10 c-6 -16 -10
-18 -10 -7 -1 22 12 55 16 42 2 -6 -1 -22 -6 -35z m846 21 c13 0 13 -3 2 -16
-12 -14 -14 -14 -20 3 -4 10 -8 23 -8 28 1 6 3 4 6 -2 2 -7 12 -13 20 -13z
m840 14 c-3 -3 -12 -4 -19 -1 -8 3 -5 6 6 6 11 1 17 -2 13 -5z m-1747 -13 c0
-6 -4 -13 -10 -16 -5 -3 -10 1 -10 9 0 9 5 16 10 16 6 0 10 -4 10 -9z m1143 3
c14 -5 13 -8 -1 -25 -21 -24 -42 -25 -42 -1 0 30 13 38 43 26z m297 -4 c0 -12
-40 -34 -48 -26 -3 4 3 13 14 21 22 17 34 19 34 5z m106 -5 c-22 -16 -57 -21
-40 -6 7 8 29 15 54 20 3 0 -4 -6 -14 -14z m-1966 -25 c0 -6 -5 -10 -11 -10
-5 0 -7 -4 -4 -10 3 -5 1 -10 -4 -10 -6 0 -12 0 -14 0 -2 0 -4 12 -5 43 -1 14
3 15 19 7 10 -6 19 -15 19 -20z m158 11 c3 -8 -1 -12 -9 -9 -7 2 -15 10 -17
17 -3 8 1 12 9 9 7 -2 15 -10 17 -17z m129 3 c4 -10 -1 -22 -10 -29 -10 -7
-17 -19 -17 -28 0 -9 -4 -19 -10 -22 -5 -3 -10 3 -10 14 0 11 4 22 9 25 4 3 6
17 3 31 -3 18 0 25 12 25 9 0 19 -7 23 -16z m-657 -4 c0 -5 -2 -10 -4 -10 -3
0 -8 5 -11 10 -3 6 -1 10 4 10 6 0 11 -4 11 -10z m709 -16 c3 -16 1 -17 -13
-5 -19 16 -21 34 -3 29 6 -3 14 -13 16 -24z m1741 21 c0 -2 -13 -11 -30 -20
-31 -16 -43 -3 -12 14 18 11 42 14 42 6z m-439 -12 c-11 -4 -11 -7 0 -14 10
-6 6 -11 -15 -19 -16 -6 -31 -8 -34 -5 -3 2 6 9 19 14 13 5 20 10 16 10 -5 1
-5 6 -2 11 3 6 12 10 18 9 8 0 7 -3 -2 -6z m-1491 -31 c-1 -18 -23 -52 -34
-52 -7 0 2 57 11 73 7 12 23 -3 23 -21z m380 -12 c-6 -12 -14 -19 -17 -16 -4
3 0 18 8 32 7 14 15 21 17 15 2 -5 -2 -20 -8 -31z m60 19 c0 -6 -4 -7 -10 -4
-5 3 -10 11 -10 16 0 6 5 7 10 4 6 -3 10 -11 10 -16z m1170 11 c0 -5 -5 -10
-11 -10 -5 0 -7 5 -4 10 3 6 8 10 11 10 2 0 4 -4 4 -10z m573 3 c-7 -2 -19 -2
-25 0 -7 3 -2 5 12 5 14 0 19 -2 13 -5z m-2675 -28 c-3 -3 -9 2 -12 12 -6 14
-5 15 5 6 7 -7 10 -15 7 -18z m257 5 c14 -16 16 -23 7 -32 -10 -10 -18 -7 -37
14 -13 14 -21 29 -18 32 12 11 30 6 48 -14z m105 -10 c-5 -3 -5 -12 0 -20 14
-22 12 -50 -3 -50 -23 0 -35 52 -19 78 11 17 17 20 23 10 4 -7 4 -15 -1 -18z
m309 17 c8 -10 7 -17 -1 -25 -19 -19 -28 -14 -28 13 0 27 12 32 29 12z m95 4
c6 -9 -33 -65 -40 -58 -2 2 1 18 7 35 11 32 23 40 33 23z m46 -12 c0 -5 -4 -9
-10 -9 -5 0 -10 7 -10 16 0 8 5 12 10 9 6 -3 10 -10 10 -16z m650 6 c-7 -9
-15 -13 -19 -10 -3 3 1 10 9 15 21 14 24 12 10 -5z m280 1 c0 -11 -19 -15 -25
-6 -3 5 1 10 9 10 9 0 16 -2 16 -4z m310 -11 c-14 -8 -34 -14 -45 -14 -18 0
-17 1 5 14 14 8 34 14 45 14 18 0 17 -1 -5 -14z m110 5 c-20 -13 -33 -13 -25
0 3 6 14 10 23 10 15 0 15 -2 2 -10z m-1635 -20 c-20 -23 -29 -21 -19 4 3 9
13 16 22 16 13 0 12 -3 -3 -20z m39 -10 c-7 -32 11 -41 33 -19 9 9 16 8 28 -5
15 -15 14 -16 -12 -17 -15 0 -57 -3 -92 -5 -44 -4 -61 -2 -57 5 4 6 18 11 32
11 17 0 30 9 42 30 22 38 33 38 26 0z m352 -8 c-7 -21 -36 -39 -36 -22 0 5 5
21 10 36 13 32 36 19 26 -14z m-946 18 c1 12 3 11 11 -3 8 -13 6 -21 -5 -33
-14 -13 -16 -13 -16 -1 0 9 -3 24 -6 34 -5 15 -4 15 5 3 9 -13 11 -13 11 0z
m424 -5 c3 -8 1 -15 -4 -15 -6 0 -10 7 -10 15 0 8 2 15 4 15 2 0 6 -7 10 -15z
m306 -26 c0 -20 -15 -26 -25 -9 -9 15 3 43 15 35 5 -3 10 -15 10 -26z m805 21
c-3 -5 -11 -10 -16 -10 -6 0 -7 5 -4 10 3 6 11 10 16 10 6 0 7 -4 4 -10z
m-1475 -25 c0 -8 -2 -15 -4 -15 -2 0 -6 7 -10 15 -3 8 -1 15 4 15 6 0 10 -7
10 -15z m774 -5 c-10 -4 -21 -6 -24 -3 -8 7 24 22 34 16 5 -4 1 -10 -10 -13z
m156 10 c12 -8 11 -10 -7 -10 -13 0 -23 5 -23 10 0 13 11 13 30 0z m-1107 -41
c34 13 97 14 97 2 0 -9 -83 -22 -132 -21 -16 0 -28 -4 -28 -9 0 -9 137 -6 280
6 53 4 68 2 79 -11 18 -22 34 -20 26 3 -7 22 -35 19 280 26 99 2 229 6 288 7
98 4 109 2 119 -15 9 -18 10 -18 32 2 20 19 34 21 157 21 l134 0 3 -49 c2 -27
-2 -52 -7 -55 -6 -4 -81 -9 -168 -11 -87 -2 -324 -9 -528 -15 -204 -7 -377
-11 -385 -11 -48 1 -288 -23 -302 -30 -14 -7 -17 -2 -20 40 -1 27 -1 74 0 105
l4 55 21 -25 c19 -22 26 -24 50 -15z m458 25 c11 -14 9 -15 -16 -12 -16 1 -30
9 -33 16 -6 18 33 15 49 -4z m2095 2 c5 -14 44 -10 44 5 0 4 18 7 40 6 32 -1
40 -5 40 -20 0 -18 1 -18 23 -3 34 25 48 30 56 18 4 -7 12 -8 21 -2 17 11 113
13 148 4 19 -6 22 -13 22 -59 l0 -53 -47 -6 c-66 -8 -115 -9 -285 -7 l-148 1
0 25 c0 14 -4 25 -10 25 -5 0 -10 -9 -10 -19 0 -11 -4 -22 -8 -25 -7 -4 -602
-9 -874 -7 l-78 1 0 50 c0 43 3 50 20 51 11 1 32 3 48 4 15 2 124 5 243 8 173
4 222 3 243 -8 21 -11 32 -12 52 -3 20 9 27 9 34 -1 4 -8 12 -11 18 -7 6 3 13
2 16 -3 6 -10 88 3 143 24 53 19 242 20 249 1z m-313 -3 c-7 -2 -19 -2 -25 0
-7 3 -2 5 12 5 14 0 19 -2 13 -5z m-2103 -18 c0 -8 -7 -15 -16 -15 -14 0 -14
3 -4 15 7 8 14 15 16 15 2 0 4 -7 4 -15z m103 2 c3 -8 -1 -14 -9 -14 -8 0 -14
6 -14 14 0 7 4 13 9 13 5 0 11 -6 14 -13z m1212 -43 l0 -49 -47 -3 -48 -3 0
49 c0 27 3 52 7 56 4 4 25 5 47 3 l41 -4 0 -49z m1 -364 c2 -151 6 -333 8
-404 3 -71 4 -132 1 -135 -2 -4 -22 -5 -45 -3 -39 4 -42 6 -37 30 3 13 -1 39
-8 56 -9 23 -12 115 -10 366 2 184 3 343 4 353 1 15 8 18 42 15 l41 -3 4 -275z
m879 270 c-3 -5 -13 -10 -21 -10 -8 0 -14 5 -14 10 0 6 9 10 21 10 11 0 17 -4
14 -10z m515 0 c-13 -9 -13 -12 4 -25 10 -7 15 -19 11 -25 -6 -9 -2 -9 14 -1
26 14 26 17 1 -111 -25 -135 -38 -248 -28 -248 4 0 8 16 8 34 0 41 38 244 50
265 4 8 14 15 22 17 13 1 14 -11 11 -70 -2 -39 -11 -105 -19 -146 -9 -41 -18
-85 -20 -98 -3 -13 -20 -32 -39 -44 -35 -20 -46 -38 -22 -38 7 0 18 9 25 20
15 25 37 27 27 3 -4 -10 -9 -40 -12 -68 -7 -62 -24 -97 -22 -45 2 60 -1 84 -8
76 -5 -4 -8 -44 -8 -88 0 -58 -4 -83 -13 -86 -10 -3 -13 12 -11 70 1 42 -1 80
-5 87 -4 6 -4 16 -1 21 3 6 1 10 -4 10 -7 0 -11 -27 -11 -68 0 -45 -5 -75 -16
-90 -8 -12 -12 -22 -7 -22 4 0 -1 -7 -11 -15 -22 -16 -16 -31 9 -22 8 4 15 16
15 27 0 11 5 20 10 20 6 0 10 -14 10 -31 0 -28 2 -31 25 -25 19 5 25 2 25 -9
0 -10 -22 -26 -55 -41 -63 -27 -65 -28 -65 -14 0 6 6 10 13 10 11 1 54 50 44
50 -3 0 -39 -16 -80 -36 -42 -19 -86 -34 -99 -32 -22 3 -21 5 10 21 52 28 37
38 -19 13 -27 -13 -53 -27 -56 -30 -4 -3 -16 -6 -27 -5 -21 0 -21 0 1 9 12 5
24 18 28 29 3 12 15 26 26 32 17 8 23 7 34 -7 12 -17 14 -16 34 16 11 19 21
38 21 43 0 4 6 7 14 7 11 0 14 18 13 85 -1 47 -4 85 -8 85 -12 0 -16 -104 -4
-112 7 -5 7 -8 -1 -8 -10 0 -44 -67 -44 -88 0 -7 -4 -12 -10 -12 -14 0 -20 55
-17 158 1 50 -1 92 -4 92 -8 0 -1 139 7 152 3 4 10 6 15 3 5 -4 9 0 9 8 0 8 7
20 15 27 8 7 15 17 15 23 0 6 -14 -2 -30 -18 l-30 -29 6 34 c7 47 25 131 31
154 4 15 7 16 14 5 6 -10 9 -6 9 13 0 15 5 30 12 34 20 12 98 22 98 12 0 -14
49 25 50 40 0 6 8 12 18 12 15 0 15 -2 2 -10z m-1563 -6 c-3 -3 -12 -4 -19 -1
-8 3 -5 6 6 6 11 1 17 -2 13 -5z m617 -29 c3 -9 0 -15 -9 -15 -8 0 -15 7 -15
15 0 8 4 15 9 15 5 0 11 -7 15 -15z m-1555 1 c-10 -9 -209 -14 -209 -5 0 5 47
9 107 9 58 0 104 -2 102 -4z m1481 -5 c0 -12 -20 -25 -27 -18 -7 7 6 27 18 27
5 0 9 -4 9 -9z m-1825 -11 c-3 -5 -14 -10 -23 -9 -14 0 -13 2 3 9 27 11 27 11
20 0z m1695 0 c0 -5 -5 -10 -11 -10 -5 0 -7 5 -4 10 3 6 8 10 11 10 2 0 4 -4
4 -10z m80 0 c0 -5 -11 -10 -25 -10 -14 0 -25 5 -25 10 0 6 11 10 25 10 14 0
25 -4 25 -10z m845 -21 c-5 -16 -4 -19 6 -14 9 6 10 2 5 -16 -23 -77 -28 -97
-32 -129 -6 -53 -9 -69 -17 -76 -4 -4 -7 1 -7 12 -1 14 -5 11 -15 -11 -7 -16
-14 -23 -14 -15 -1 26 11 60 20 54 5 -2 11 5 14 18 12 55 26 145 25 171 0 15
5 27 11 27 6 0 8 -9 4 -21z m-2002 4 c-7 -2 -19 -2 -25 0 -7 3 -2 5 12 5 14 0
19 -2 13 -5z m1015 -58 c-8 -7 -9 -5 -4 9 5 16 4 17 -9 6 -19 -16 -20 2 -3 30
12 19 13 19 20 -7 5 -17 3 -32 -4 -38z m407 55 c-3 -5 -13 -10 -21 -10 -8 0
-14 5 -14 10 0 6 9 10 21 10 11 0 17 -4 14 -10z m71 -6 c-3 -9 -6 -24 -6 -35
0 -10 -7 -19 -15 -19 -16 0 -20 21 -7 34 4 4 8 12 8 17 3 17 4 19 15 19 6 0 8
-7 5 -16z m371 -1 c2 -6 -7 -8 -23 -5 -19 3 -22 7 -12 13 15 10 30 7 35 -8z
m-1466 -17 c-6 -7 -8 -15 -5 -18 2 -3 -2 -8 -11 -12 -11 -4 -15 -2 -11 6 3 7
9 21 12 30 4 10 10 15 16 12 5 -3 5 -11 -1 -18z m49 4 c-11 -11 -22 -20 -25
-20 -3 0 0 9 7 20 7 11 18 20 25 20 8 0 5 -8 -7 -20z m523 3 c-9 -24 -46 -74
-51 -69 -7 8 42 86 54 86 2 0 0 -8 -3 -17z m258 -3 c-2 -8 -3 -25 -3 -38 0
-13 -7 -26 -15 -29 -12 -5 -12 -7 -1 -14 10 -7 10 -9 1 -9 -7 0 -13 -5 -13
-11 0 -5 5 -7 10 -4 6 3 10 0 10 -7 0 -7 7 0 15 16 8 15 15 35 15 42 0 8 6 14
13 14 8 1 7 5 -3 13 -17 13 -15 47 2 47 5 0 8 -7 4 -15 -7 -18 5 -20 23 -2 10
10 12 -1 6 -58 -11 -121 -15 -140 -44 -184 l-29 -43 -1 68 c0 37 -3 69 -6 72
-5 5 -10 -152 -6 -195 1 -13 -4 -33 -10 -45 -11 -21 -11 -22 4 -9 29 23 21
-20 -8 -52 -34 -36 -52 -35 -25 3 12 17 18 30 13 30 -15 -1 -45 -51 -39 -66 3
-8 2 -13 -3 -9 -5 3 -17 -2 -25 -11 -23 -23 -20 -9 10 37 25 40 26 46 26 209
1 136 4 167 15 163 9 -4 13 3 13 22 0 18 4 24 13 19 10 -6 10 -4 0 7 -7 7 -13
22 -13 34 0 16 6 21 28 20 18 0 26 -5 23 -15z m333 6 c-3 -8 0 -17 6 -21 8 -5
7 -10 -4 -18 -17 -14 -31 -87 -16 -87 6 0 10 7 10 15 0 8 10 16 23 16 l22 2
-22 4 c-33 6 -28 23 7 23 27 0 29 -2 20 -25 -8 -20 -6 -25 6 -25 21 0 42 22
36 39 -3 8 1 12 9 9 8 -3 13 -11 12 -17 -2 -6 2 -11 7 -11 6 0 10 -5 10 -11 0
-5 -4 -7 -10 -4 -5 3 -7 0 -4 -8 3 -8 1 -18 -5 -21 -6 -4 -8 -21 -4 -39 5 -26
3 -30 -7 -20 -11 10 -18 7 -38 -15 -24 -25 -25 -26 -20 -4 3 12 2 20 -3 17 -5
-4 -8 -16 -7 -28 1 -12 -2 -33 -6 -47 -7 -24 -6 -24 8 -6 8 10 17 24 19 30 3
7 11 5 23 -6 17 -17 19 -17 41 4 22 20 23 20 23 2 0 -13 6 -8 19 16 10 19 15
37 10 38 -5 2 -9 15 -9 28 0 14 -4 22 -10 19 -5 -3 -10 3 -10 14 0 12 7 21 15
21 8 0 15 9 15 19 0 11 5 23 12 27 8 5 9 2 5 -9 -3 -9 -3 -16 1 -16 4 1 14 1
22 -1 11 -1 9 -4 -5 -10 -18 -8 -19 -9 -1 -9 13 -1 16 -6 11 -18 -4 -10 -7
-38 -6 -62 2 -39 -3 -49 -35 -83 -42 -42 -59 -48 -51 -18 7 28 -6 25 -19 -4
-10 -21 -9 -23 4 -18 10 3 13 1 8 -6 -4 -7 -14 -12 -22 -12 -8 0 -14 -7 -14
-16 0 -11 5 -14 16 -10 14 5 15 -2 12 -53 -1 -33 0 -62 4 -66 11 -12 -3 -34
-18 -28 -19 7 -18 -24 2 -44 30 -31 -1 -113 -43 -113 -15 0 -18 -36 -3 -45 6
-3 10 1 10 9 0 14 11 20 25 14 3 -2 10 4 16 12 8 11 9 9 5 -12 -4 -16 -1 -28
7 -31 6 -3 -4 -6 -23 -6 -53 0 -271 -19 -307 -27 -47 -9 -62 -1 -55 31 3 20 7
23 14 13 12 -18 38 17 38 52 0 14 4 30 9 36 5 5 11 71 14 146 4 116 2 136 -10
131 -11 -4 -13 -17 -8 -52 5 -38 3 -52 -13 -71 l-19 -23 -4 54 c-7 82 -4 202
6 223 6 14 5 17 -3 12 -17 -10 -15 6 3 30 8 10 14 24 15 29 0 6 -5 3 -11 -5
-7 -11 -8 4 -5 50 3 36 5 72 5 82 1 11 7 15 21 11 17 -5 20 -12 17 -44 -2 -21
-10 -46 -17 -54 -11 -13 -11 -18 -2 -24 7 -4 10 -15 6 -24 -3 -9 -2 -17 4 -17
5 0 17 18 26 40 9 22 20 40 26 40 5 0 9 3 8 8 -4 11 22 52 32 52 6 0 4 -14 -3
-33 -8 -17 -13 -41 -11 -51 1 -11 -2 -28 -7 -38 -6 -11 -6 -18 0 -18 9 0 25
30 23 43 -1 4 5 7 13 7 8 0 15 -6 15 -12 0 -9 3 -9 9 1 5 8 16 11 25 8 8 -3
18 -2 21 3 4 6 -11 10 -33 10 -34 0 -38 3 -37 22 1 17 8 22 31 23 18 0 29 5
30 15 0 8 2 25 2 38 2 16 8 22 27 22 17 0 23 -4 19 -14z m66 4 c0 -13 -11 -13
-30 0 -12 8 -11 10 8 10 12 0 22 -4 22 -10z m57 4 c-3 -3 -12 -4 -19 -1 -8 3
-5 6 6 6 11 1 17 -2 13 -5z m273 -9 c0 -10 -10 -15 -30 -15 -22 0 -28 4 -24
15 4 8 17 15 30 15 15 0 24 -6 24 -15z m-1630 -10 c0 -8 -7 -15 -15 -15 -16 0
-20 12 -8 23 11 12 23 8 23 -8z m740 -4 c0 -10 -7 -21 -15 -25 -11 -4 -15 1
-15 19 0 16 6 25 15 25 8 0 15 -9 15 -19z m73 13 c6 -6 -35 -44 -47 -44 -3 0
-6 9 -6 21 0 11 5 17 10 14 6 -3 10 -1 10 4 0 12 23 15 33 5z m261 -19 c-6
-16 -24 -21 -24 -7 0 11 11 22 21 22 5 0 6 -7 3 -15z m-1524 -4 c0 -5 -7 -11
-15 -15 -15 -5 -20 5 -8 17 9 10 23 9 23 -2z m190 5 c0 -11 -19 -15 -25 -6 -3
5 1 10 9 10 9 0 16 -2 16 -4z m465 -5 c-6 -5 -21 -11 -35 -15 -21 -5 -20 -3 5
9 35 17 42 18 30 6z m94 -65 c-28 -77 -34 -66 -7 15 12 35 23 59 25 53 2 -6
-6 -37 -18 -68z m991 53 c0 -24 -23 -21 -28 4 -2 10 3 17 12 17 10 0 16 -9 16
-21z m80 9 c0 -11 -36 -28 -44 -21 -15 15 -4 33 19 31 14 -1 25 -6 25 -10z
m-2279 -26 c-14 -26 -4 -33 37 -26 25 5 33 3 28 -5 -4 -6 -22 -11 -41 -11 -39
0 -65 -8 -65 -21 0 -5 9 -9 21 -9 11 0 35 -10 52 -22 27 -20 28 -22 11 -29
-10 -3 -28 -2 -39 4 -17 9 -18 8 -8 -4 10 -13 7 -15 -22 -17 -19 -2 -46 5 -60
14 -20 13 -24 23 -22 54 2 30 6 39 23 43 22 4 22 4 3 -27 l-18 -30 37 -12 c43
-16 52 -13 17 6 -28 15 -32 32 -10 50 8 7 15 18 15 26 0 13 40 47 48 40 2 -3
-1 -13 -7 -24z m88 -3 c-19 -12 -24 -2 -8 17 9 11 14 13 17 4 3 -7 -2 -16 -9
-21z m81 21 c-8 -5 -10 -10 -5 -10 6 0 3 -5 -5 -10 -24 -16 -31 -12 -18 10 7
11 20 20 28 20 13 0 13 -1 0 -10z m147 -5 c-2 -5 -19 -11 -38 -12 -19 -1 -36
-2 -39 -3 -3 -1 -18 -4 -33 -6 -24 -2 -27 -1 -16 12 9 11 14 12 20 3 5 -9 13
-8 29 4 25 17 82 19 77 2z m79 0 c-16 -12 -32 -13 -64 -6 -2 1 0 6 3 11 3 6
23 10 43 10 34 -1 36 -2 18 -15z m1326 -14 c-3 -20 -9 -28 -18 -24 -11 4 -10
9 3 29 20 30 20 30 15 -5z m688 25 c0 -3 -4 -8 -10 -11 -5 -3 -10 -1 -10 4 0
6 5 11 10 11 6 0 10 -2 10 -4z m60 -6 c0 -5 -5 -10 -11 -10 -5 0 -7 5 -4 10 3
6 8 10 11 10 2 0 4 -4 4 -10z m60 5 c0 -3 -21 -114 -26 -135 -6 -28 -9 -81
-19 -280 -5 -102 -10 -139 -22 -153 -9 -9 -19 -15 -21 -12 -10 10 -9 44 2 42
14 -3 20 34 6 43 -8 5 -9 21 -2 58 5 28 5 49 1 46 -5 -3 -9 -18 -9 -35 0 -16
-4 -29 -8 -29 -15 0 -8 196 7 214 12 14 12 16 -3 10 -20 -8 -20 -3 -1 43 17
40 19 55 5 33 -7 -11 -9 -8 -9 15 1 44 13 78 28 83 10 3 12 -5 6 -37 -8 -49
-1 -52 21 -10 8 17 11 28 4 24 -8 -5 -10 6 -6 37 2 23 5 44 5 45 1 2 41 0 41
-2z m-1520 -25 c0 -5 -4 -10 -10 -10 -5 0 -10 5 -10 10 0 6 5 10 10 10 6 0 10
-4 10 -10z m530 -29 c-8 -15 -8 -21 0 -21 8 0 9 -11 5 -31 -5 -21 -4 -29 3
-25 6 3 13 -2 15 -11 3 -10 5 1 6 24 1 32 4 41 15 37 11 -4 13 -22 10 -82 -2
-42 -1 -71 2 -64 3 6 9 10 13 7 5 -2 9 28 10 68 1 39 4 74 7 76 14 14 19 -26
20 -157 2 -140 1 -148 -21 -174 l-24 -28 -4 32 c-4 33 -4 32 -11 -84 -1 -9 -4
-19 -8 -23 -4 -4 -7 26 -7 66 1 124 1 123 -17 109 -8 -8 -14 -25 -12 -41 2
-26 -24 -69 -43 -69 -5 0 -8 78 -8 173 1 167 2 173 28 214 25 42 43 44 21 4z
m-570 24 c0 -2 -7 -22 -16 -44 -12 -30 -19 -38 -35 -34 -17 5 -29 35 -11 31 4
0 15 2 25 7 13 6 15 10 7 15 -15 9 -4 30 16 30 8 0 14 -2 14 -5z m130 -4 c0
-3 -14 -14 -30 -23 -17 -9 -30 -23 -30 -30 0 -9 3 -9 12 0 17 17 39 15 32 -3
-4 -8 -3 -15 0 -15 4 0 11 11 15 24 5 13 19 26 31 29 23 6 22 3 -27 -68 -16
-24 -17 -38 0 -29 6 4 8 3 4 -1 -4 -5 -14 -10 -22 -11 -11 -2 -13 5 -9 24 4
23 3 24 -6 10 -6 -11 -23 -18 -40 -18 -33 0 -36 6 -16 35 7 11 16 32 20 47 5
24 20 33 54 34 6 1 12 -2 12 -5z m-720 -6 c0 -20 -27 -55 -48 -60 -20 -5 -23
-8 -12 -15 21 -13 9 -20 -47 -30 l-48 -8 43 -1 c40 -1 56 -14 30 -24 -7 -3 2
-6 20 -6 26 -1 35 4 39 19 5 20 23 28 23 10 0 -6 8 -5 20 2 19 12 43 3 25 -10
-6 -4 -12 -16 -13 -27 -5 -26 -34 -75 -45 -75 -4 0 -6 4 -2 9 3 6 -3 9 -12 9
-28 -1 -75 21 -68 32 3 5 0 7 -8 4 -16 -6 -137 54 -137 68 0 4 -7 8 -16 8 -21
0 -94 41 -94 53 0 5 7 4 15 -3 11 -9 15 -9 15 -1 0 8 13 9 40 5 31 -5 40 -4
38 7 -2 7 6 15 17 17 17 4 18 2 6 -12 -12 -14 -11 -16 5 -16 11 0 25 9 32 20
13 21 38 28 26 8 -6 -10 -4 -10 7 0 7 6 20 12 28 12 11 0 9 -5 -7 -20 -12 -12
-22 -23 -22 -26 0 -7 58 34 65 46 6 10 85 14 85 5z m2164 -37 c-6 -42 -24 -77
-24 -47 0 20 20 89 26 89 2 0 1 -19 -2 -42z m-1936 20 c-3 -7 -13 -15 -24 -17
-16 -3 -17 -1 -5 13 16 19 34 21 29 4z m367 -27 c-19 -38 -28 -41 -14 -5 13
35 20 46 26 41 2 -3 -3 -19 -12 -36z m21 -18 c-14 -26 -25 -42 -26 -35 0 14
43 93 48 87 2 -2 -8 -25 -22 -52z m-577 7 c-18 -22 -36 -40 -41 -40 -5 0 6 18
23 40 18 22 36 40 41 40 5 0 -6 -18 -23 -40z m85 6 c-9 -15 -19 -25 -21 -22
-3 2 3 16 13 30 9 15 19 25 21 22 3 -2 -3 -16 -13 -30z m720 -15 c-9 -23 -18
-40 -21 -38 -2 3 4 23 13 46 9 23 18 40 21 38 2 -3 -4 -23 -13 -46z m1203 26
c-7 -18 -22 -130 -19 -141 5 -16 -9 -44 -24 -50 -8 -3 -12 -2 -9 4 3 6 1 10
-6 10 -7 0 -9 8 -4 23 3 12 6 41 5 65 0 26 4 42 11 42 7 0 9 9 5 24 -6 24 3
33 33 35 7 1 11 -5 8 -12z m-1697 -1 c0 -2 -8 -10 -17 -17 -16 -13 -17 -12 -4
4 13 16 21 21 21 13z m30 -16 c-6 -11 -13 -20 -16 -20 -2 0 0 9 6 20 6 11 13
20 16 20 2 0 0 -9 -6 -20z m44 5 c-4 -8 -13 -15 -21 -15 -13 0 -13 3 -3 15 7
8 16 15 21 15 5 0 6 -7 3 -15z m36 6 c0 -12 -20 -25 -27 -18 -7 7 6 27 18 27
5 0 9 -4 9 -9z m842 0 c4 12 7 12 21 0 18 -14 24 -67 8 -56 -14 8 -24 -14 -13
-28 15 -19 21 -67 12 -98 -6 -19 -4 -29 3 -32 9 -3 9 -10 0 -30 -8 -16 -9 -27
-3 -27 16 0 11 -33 -9 -57 -25 -31 -31 -29 -21 6 4 15 5 41 2 57 -5 25 -6 26
-13 9 -9 -23 -10 -11 -11 110 -1 125 2 161 11 146 7 -11 9 -11 13 0z m-1156
-29 c-18 -16 -18 -16 -6 6 6 13 14 21 18 18 3 -4 -2 -14 -12 -24z m51 11 c-9
-9 -19 -14 -23 -11 -10 10 6 28 24 28 15 0 15 -1 -1 -17z m47 2 c-4 -8 -13
-15 -21 -15 -13 0 -13 3 -3 15 7 8 16 15 21 15 5 0 6 -7 3 -15z m59 0 c-3 -9
-8 -14 -10 -11 -3 3 -2 9 2 15 9 16 15 13 8 -4z m471 -21 c-8 -20 -13 -41 -11
-47 2 -7 0 -23 -5 -37 -6 -14 -19 -56 -29 -93 -21 -72 -46 -120 -59 -112 -5 3
-6 14 -3 25 3 11 10 17 16 13 6 -3 7 -1 3 5 -4 7 -2 12 4 12 7 0 9 8 5 20 -3
11 -3 25 2 32 4 7 8 20 10 28 5 40 -26 -27 -65 -141 -34 -98 -47 -125 -62
-126 -17 -2 -18 1 -6 40 8 23 34 86 60 140 25 54 46 108 46 120 1 26 29 80 30
56 0 -30 28 -16 33 17 5 28 33 84 43 84 1 0 -4 -16 -12 -36z m-484 -19 c-7 -8
-17 -15 -22 -15 -6 0 -5 7 2 15 7 8 17 15 22 15 6 0 5 -7 -2 -15z m165 5 c-2
-4 -23 -7 -45 -8 -23 -1 -39 2 -36 7 3 4 23 8 45 8 22 0 38 -3 36 -7z m90 0
c-3 -5 -13 -10 -21 -10 -8 0 -12 5 -9 10 3 6 13 10 21 10 8 0 12 -4 9 -10z
m-420 -30 c-9 -16 -13 -30 -9 -30 3 0 -1 -12 -10 -26 -10 -14 -15 -31 -13 -37
2 -7 10 -1 16 13 7 14 25 35 42 45 16 11 29 23 29 28 0 4 4 7 10 7 11 0 -6
-46 -26 -70 -7 -8 -14 -19 -15 -25 -5 -19 -34 -65 -41 -65 -4 0 -13 6 -20 13
-7 6 -22 14 -33 15 -24 5 -45 21 -45 34 0 22 43 68 63 69 21 0 21 1 2 9 -15 6
-16 9 -4 9 9 1 24 10 34 21 27 30 38 24 20 -10z m50 20 c-3 -5 -11 -10 -16
-10 -6 0 -7 5 -4 10 3 6 11 10 16 10 6 0 7 -4 4 -10z m40 0 c-3 -5 -11 -10
-16 -10 -6 0 -7 5 -4 10 3 6 11 10 16 10 6 0 7 -4 4 -10z m-645 -40 c14 -6 39
-19 55 -29 17 -9 41 -23 55 -30 23 -13 24 -15 5 -22 -18 -7 -18 -8 5 -9 14 -2
29 -2 33 -1 5 1 23 -5 40 -12 69 -30 90 -38 93 -34 2 2 -14 12 -36 22 -22 10
-40 22 -40 27 0 4 -9 8 -20 8 -11 0 -20 5 -20 10 0 6 -6 10 -13 10 -18 0 -67
24 -67 33 0 18 47 4 125 -37 54 -28 85 -40 85 -32 0 19 -17 31 -75 54 -28 11
-49 25 -48 31 2 6 -5 11 -15 12 -9 0 -27 2 -39 5 -12 2 -25 -1 -28 -6 -8 -13
-65 -13 -65 0 0 6 8 10 18 11 21 1 63 6 77 10 19 5 75 -13 69 -22 -3 -5 2 -9
11 -9 19 0 117 -48 126 -62 3 -5 12 -11 20 -13 36 -8 60 -18 57 -24 -2 -3 -10
-18 -17 -33 -15 -30 -37 -39 -27 -11 6 15 4 15 -14 -2 -11 -10 -20 -25 -20
-33 0 -12 3 -12 15 4 14 18 14 18 15 0 0 -15 3 -16 15 -6 8 7 15 17 15 22 0 5
7 20 16 33 l16 24 36 -19 c20 -11 42 -20 49 -20 17 0 16 -10 -2 -54 -8 -20
-20 -36 -27 -36 -6 0 -8 -3 -5 -6 10 -11 -13 -45 -25 -38 -7 4 -8 3 -4 -5 11
-17 -44 -100 -63 -93 -10 4 -13 1 -8 -12 4 -9 3 -15 -2 -11 -5 3 -13 -5 -17
-17 -9 -29 -31 -51 -44 -43 -5 3 -10 4 -10 1 0 -2 16 -14 36 -26 48 -30 36
-37 -16 -10 -28 14 -45 18 -49 11 -4 -6 -12 -6 -20 -2 -19 12 -3 33 20 26 10
-4 19 -2 19 4 0 12 -36 24 -50 16 -6 -4 -7 1 -4 12 5 15 4 16 -5 3 -6 -8 -8
-23 -5 -32 6 -22 1 -22 -34 -4 -46 23 -82 29 -40 6 38 -21 67 -51 32 -32 -23
11 -65 30 -159 70 l-70 31 -3 47 c-3 39 -1 46 12 41 9 -4 16 -2 16 2 0 5 -7
11 -15 15 -22 8 -21 76 2 76 15 0 15 1 -2 14 -11 8 -16 20 -12 29 5 15 9 15
37 0 45 -22 48 -9 3 18 -21 12 -40 24 -42 26 -6 4 -1 135 6 146 3 5 8 5 12 -1
4 -6 18 -16 31 -22z m810 10 c0 -5 -8 -18 -17 -28 -10 -10 -20 -27 -21 -37 -5
-27 -49 -115 -73 -145 -11 -15 -17 -18 -13 -7 5 13 2 16 -11 11 -21 -8 -20 -6
20 69 16 31 38 58 47 60 10 3 18 12 18 21 0 9 7 28 16 41 17 25 34 33 34 15z
m70 6 c0 -17 -21 -56 -30 -56 -6 0 -8 6 -4 13 5 8 2 8 -9 -2 -21 -17 -22 -3
-1 27 13 19 44 31 44 18z m80 -9 c0 -22 -26 -50 -49 -52 -25 -2 -26 -1 -4 36
18 29 53 40 53 16z m34 -32 c-14 -24 -23 -49 -20 -54 4 -5 2 -12 -4 -16 -5 -3
-10 -11 -10 -17 0 -18 36 35 59 86 12 27 23 47 26 44 9 -8 -53 -136 -73 -150
-10 -7 -34 -49 -53 -92 -23 -54 -35 -73 -37 -59 -2 12 9 45 24 75 15 29 29 63
30 74 4 32 67 154 80 154 1 0 -9 -20 -22 -45z m106 32 c0 -14 -152 -291 -171
-312 -20 -21 -6 18 41 118 28 58 50 108 50 110 0 2 12 25 26 51 24 43 54 62
54 33z m-435 -52 c-28 -47 -50 -119 -34 -109 5 3 16 18 24 35 9 16 20 29 25
29 5 0 -3 -20 -16 -44 -24 -44 -26 -44 -57 -34 -18 6 -33 12 -35 14 -2 1 6 22
18 46 22 42 90 122 98 114 2 -3 -8 -25 -23 -51z m1253 -173 c2 -199 -9 -315
-29 -295 -4 4 -10 26 -12 48 -3 30 -4 27 -3 -13 1 -40 -2 -52 -14 -52 -12 0
-15 14 -13 72 l1 73 -7 -56 c-10 -73 -23 -95 -32 -54 -14 62 -10 104 13 130
19 22 46 26 33 4 -4 -5 -2 -16 3 -25 6 -11 9 -4 10 27 1 23 7 48 14 56 9 11 8
13 -3 11 -22 -5 -24 77 -3 109 16 25 16 26 -1 19 -15 -5 -16 -2 -11 29 4 21 3
35 -3 35 -6 0 2 20 17 45 15 25 29 45 32 45 3 0 6 -93 8 -208z m1034 116 c-10
-23 -17 -2 -13 40 l5 47 6 -40 c3 -22 4 -43 2 -47z m-352 -78 c0 -130 -1 -141
-22 -160 -12 -11 -25 -20 -28 -20 -4 0 -3 28 2 63 5 34 6 72 3 84 -3 12 -1 25
5 28 5 3 10 14 10 23 0 15 -2 15 -10 2 -12 -19 -12 52 0 90 8 25 8 25 10 -5 2
-21 4 -24 7 -10 17 80 23 56 23 -95z m-1509 107 c-10 -9 -11 -8 -5 6 3 10 9
15 12 12 3 -3 0 -11 -7 -18z m1305 -64 c-3 -54 -1 -78 4 -63 4 14 8 39 9 56 1
23 8 34 26 42 24 11 25 10 25 -18 0 -17 -5 -30 -11 -30 -8 0 -8 -4 -2 -12 6
-7 11 -44 12 -82 1 -39 4 -73 7 -78 8 -12 -18 -87 -35 -101 -12 -9 -13 -9 -7
1 4 6 2 12 -3 12 -6 0 -11 12 -12 28 0 23 -1 24 -8 7 -5 -11 -6 -25 -4 -31 2
-6 -4 -17 -13 -25 -16 -13 -17 -11 -11 30 5 39 4 41 -9 23 -7 -11 -22 -22 -34
-25 -19 -5 -19 -1 -15 66 3 40 7 96 10 125 3 34 1 51 -5 47 -6 -4 -10 5 -10
20 0 15 4 24 10 20 6 -3 10 -1 10 5 0 9 58 70 67 70 2 0 1 -39 -1 -87z m-1580
4 c-27 -57 -32 -77 -17 -77 5 0 24 32 42 70 18 39 36 70 40 70 4 0 14 3 22 6
11 4 15 -1 13 -19 0 -14 -4 -23 -8 -21 -4 3 -12 -5 -18 -16 -7 -12 -7 -20 -1
-20 6 0 3 -16 -5 -36 -8 -19 -12 -43 -9 -53 3 -10 -3 -29 -15 -44 -11 -14 -20
-27 -20 -30 0 -5 41 -20 53 -18 4 1 7 -6 7 -14 0 -8 -7 -15 -15 -15 -8 0 -12
-6 -10 -12 5 -15 -38 -68 -55 -68 -6 0 -8 5 -5 10 4 6 9 22 11 37 3 15 10 33
16 40 6 8 8 16 5 19 -3 3 -13 -8 -23 -25 -10 -17 -23 -31 -29 -31 -5 0 -5 -4
2 -8 7 -4 9 -13 5 -19 -9 -14 -52 -6 -52 9 0 18 34 68 46 68 7 0 10 8 7 20 -4
14 0 20 11 20 10 0 14 4 11 10 -3 5 4 29 17 52 31 59 40 80 28 73 -5 -3 -19
-26 -31 -51 -13 -25 -30 -50 -38 -57 -12 -10 -13 -9 -6 2 6 10 4 12 -4 7 -7
-5 -10 -14 -7 -22 7 -17 -25 -74 -41 -74 -7 0 -10 -6 -7 -14 7 -19 -14 -30
-31 -16 -8 6 -19 9 -24 6 -16 -10 -25 16 -10 28 8 6 15 18 17 26 2 8 10 22 18
31 8 8 14 22 14 29 0 11 3 11 12 2 8 -8 8 -15 -2 -27 -7 -8 -10 -15 -6 -15 4
0 -1 -11 -10 -25 -9 -14 -14 -28 -12 -31 7 -7 48 63 48 82 0 8 4 13 9 9 12 -7
24 12 16 25 -5 8 -11 7 -20 0 -12 -10 -12 -6 -5 22 13 43 13 45 -5 22 -24 -31
-17 -8 16 59 35 70 37 72 44 65 3 -3 -4 -22 -16 -42 -12 -20 -19 -39 -16 -43
4 -3 12 7 19 23 20 46 42 78 46 66 2 -6 -8 -35 -22 -65z m384 -24 c-35 -94
-56 -131 -39 -67 17 59 61 166 67 160 3 -3 -10 -45 -28 -93z m320 -95 c-1
-143 -3 -188 -11 -174 -7 11 -10 57 -7 117 2 55 0 99 -5 99 -5 0 -7 8 -4 18
20 61 20 65 8 57 -10 -6 -11 0 -6 26 8 36 13 49 21 49 2 0 4 -87 4 -192z
m1426 95 c-11 -11 -17 4 -9 23 7 18 8 18 11 1 2 -10 1 -21 -2 -24z m-2352 -29
c9 -8 26 -16 38 -17 28 -1 40 -17 26 -34 -7 -9 -7 -13 0 -13 6 0 12 6 15 13 3
9 7 9 19 -1 13 -10 14 -17 4 -37 -6 -14 -17 -25 -24 -25 -7 0 -10 -4 -7 -10 3
-5 2 -10 -4 -10 -6 0 -8 -6 -5 -14 7 -18 -15 -31 -29 -17 -15 15 -34 14 -34
-1 0 -7 -2 -17 -4 -23 -2 -5 1 -10 6 -10 6 0 9 3 8 8 -2 4 3 7 11 7 11 0 10
-6 -3 -35 -15 -31 -41 -48 -41 -26 0 5 6 11 13 14 6 2 8 8 4 13 -5 5 -13 1
-18 -9 -6 -10 -15 -14 -22 -10 -9 5 -9 3 0 -8 14 -18 -3 -44 -32 -51 -13 -3
-5 -8 25 -15 47 -10 71 -6 49 8 -11 7 -10 9 4 9 11 0 15 5 11 11 -4 8 1 9 17
4 24 -7 24 -7 4 10 -14 11 -16 18 -7 21 6 3 10 10 6 15 -6 11 4 11 31 -1 l20
-9 -20 0 c-17 -1 -18 -3 -5 -11 13 -9 12 -13 -8 -30 l-23 -19 28 -7 c15 -3 36
-8 46 -11 16 -4 17 -2 6 16 -18 27 -9 33 30 20 42 -15 50 -5 21 26 -26 27 -24
30 14 15 17 -6 24 -14 20 -25 -6 -16 -6 -16 69 -36 31 -7 44 -15 36 -20 -16
-10 -459 -11 -459 -1 0 4 11 20 25 36 14 16 25 35 25 43 0 7 4 13 9 13 10 0
101 173 101 191 0 5 -5 9 -11 9 -6 0 -9 -7 -5 -15 3 -8 2 -15 -2 -15 -4 0 -13
-13 -19 -30 -6 -17 -19 -30 -28 -30 -9 0 -13 -5 -10 -10 4 -6 1 -17 -5 -25 -7
-8 -9 -15 -6 -15 4 0 2 -9 -4 -20 -6 -11 -15 -18 -21 -15 -5 4 -9 3 -7 -2 2
-12 -35 -73 -46 -73 -4 0 -5 8 -1 18 4 9 10 25 12 35 3 9 8 17 12 17 4 0 7 10
8 23 1 13 -11 -2 -28 -37 -16 -33 -29 -65 -29 -72 0 -9 -7 -10 -29 -1 -29 10
-29 12 -10 25 10 7 19 19 19 25 0 7 9 19 20 27 11 8 20 22 20 32 0 10 4 18 8
18 8 0 16 14 79 130 29 53 38 63 29 33 -5 -15 -3 -23 4 -23 6 0 8 5 5 10 -3 6
-1 10 5 10 6 0 9 4 6 9 -4 5 0 12 6 14 7 3 14 6 15 6 1 1 9 -6 17 -15z m2367
-57 c2 -43 -2 -62 -14 -74 -16 -16 -17 -13 -17 49 0 113 26 134 31 25z m-1958
1 c-23 -59 -51 -103 -60 -94 -9 9 69 156 82 156 2 0 -8 -28 -22 -62z m210 47
c-3 -9 -8 -14 -10 -11 -3 3 -2 9 2 15 9 16 15 13 8 -4z m504 -17 c-3 -7 -5 -2
-5 12 0 14 2 19 5 13 2 -7 2 -19 0 -25z m-492 -42 c-8 -32 -17 -61 -21 -64 -7
-7 -2 17 17 92 16 60 19 38 4 -28z m480 -41 c-2 -25 1 -47 6 -51 10 -6 4 -90
-8 -129 -6 -19 -7 -18 -14 5 -4 14 -7 43 -8 64 -1 22 -4 37 -7 33 -10 -10 6
-137 17 -137 6 0 16 14 23 31 l13 32 6 -34 c2 -19 2 -36 -2 -40 -3 -3 -34 -3
-68 -1 l-63 4 0 34 c0 23 4 33 11 28 15 -9 29 14 29 48 0 15 8 35 18 45 21 21
35 53 23 53 -4 0 -13 -10 -19 -22 -8 -18 -11 -19 -11 -6 -1 9 3 19 8 23 6 3
17 19 25 36 13 26 13 29 1 19 -12 -10 -15 -9 -15 7 0 10 5 24 12 31 18 18 29
-17 23 -73z m1303 40 c1 -21 -3 -33 -8 -30 -6 3 -10 22 -10 41 0 46 16 36 18
-11z m-1927 -2 c-12 -20 -14 -14 -5 12 4 9 9 14 11 11 3 -2 0 -13 -6 -23z
m769 -20 c0 -29 -6 -53 -17 -65 -23 -25 -33 -23 -33 9 0 16 -4 23 -9 18 -5 -6
-11 -54 -13 -107 -4 -92 -10 -119 -24 -105 -4 4 -11 44 -17 91 l-11 84 52 52
c29 28 52 56 52 61 0 5 5 9 10 9 6 0 10 -21 10 -47z m-250 -13 c0 -36 -5 -55
-20 -70 -11 -11 -22 -31 -26 -46 -6 -24 -5 -25 14 -15 11 6 23 16 25 23 11 27
6 -29 -6 -67 -10 -35 -16 -40 -44 -43 -19 -2 -33 1 -33 7 0 6 6 11 14 11 10 0
14 25 19 100 4 87 8 103 29 125 12 14 24 25 26 25 1 0 2 -22 2 -50z m376 -32
c-4 -40 -12 -93 -19 -118 l-11 -45 -7 35 c-14 79 10 200 39 200 2 0 1 -32 -2
-72z m-319 30 c-3 -7 -5 -2 -5 12 0 14 2 19 5 13 2 -7 2 -19 0 -25z m1470 0
c-3 -8 -6 -5 -6 6 -1 11 2 17 5 13 3 -3 4 -12 1 -19z m-1947 -54 c-13 -56 -39
-114 -51 -114 -5 0 -9 3 -9 8 0 12 63 162 67 158 2 -2 -1 -25 -7 -52z m1720
16 c0 -11 -4 -20 -9 -20 -7 0 -8 17 -2 38 4 10 11 -2 11 -18z m-200 -10 c0 -5
-4 -10 -10 -10 -5 0 -10 5 -10 10 0 6 5 10 10 10 6 0 10 -4 10 -10z m-1750
-18 c0 -3 -5 -21 -12 -39 -10 -27 -16 -32 -33 -27 -29 9 -31 14 -15 24 8 6 12
10 7 10 -4 0 0 11 9 24 13 21 44 27 44 8z m2000 8 c0 -5 -7 -10 -16 -10 -8 0
-12 5 -9 10 3 6 10 10 16 10 5 0 9 -4 9 -10z m-1873 -32 c-3 -7 -5 -2 -5 12 0
14 2 19 5 13 2 -7 2 -19 0 -25z m1533 7 c0 -14 -4 -25 -9 -25 -4 0 -6 11 -3
25 2 14 6 25 8 25 2 0 4 -11 4 -25z m-40 -24 c-6 -12 -15 -21 -20 -21 -17 0
-11 39 8 49 21 12 27 -1 12 -28z m326 12 c-10 -10 -19 5 -10 18 6 11 8 11 12
0 2 -7 1 -15 -2 -18z m-1886 1 c0 -9 -5 -14 -12 -12 -18 6 -21 28 -4 28 9 0
16 -7 16 -16z m-330 -10 c0 -2 -9 -4 -21 -4 -11 0 -18 4 -14 10 5 8 35 3 35
-6z m942 -16 c-8 -8 -9 -4 -5 13 4 13 8 18 11 10 2 -7 -1 -18 -6 -23z m1323
22 c-3 -5 -10 -10 -16 -10 -5 0 -9 5 -9 10 0 6 7 10 16 10 8 0 12 -4 9 -10z
m-1665 -35 c-7 -14 -17 -25 -22 -25 -5 0 -1 14 7 31 9 17 19 28 22 25 4 -3 0
-17 -7 -31z m-570 15 c0 -5 -4 -10 -10 -10 -5 0 -10 5 -10 10 0 6 5 10 10 10
6 0 10 -4 10 -10z m280 1 c0 -6 -11 -22 -24 -36 l-25 -27 3 29 c2 15 4 31 5
36 2 11 41 9 41 -2z m-960 -31 c30 -16 48 -29 40 -29 -8 0 -26 6 -40 14 -14 8
-34 14 -45 14 -13 0 -6 -7 23 -22 23 -11 42 -25 42 -29 0 -5 -13 -2 -30 7 -16
8 -38 15 -50 15 -14 0 -20 6 -20 23 0 23 8 37 19 37 3 -1 31 -14 61 -30z
m2315 -6 c-13 -21 -19 -24 -26 -13 -6 10 -2 20 12 32 29 23 36 14 14 -19z
m-1450 14 c28 -13 34 -37 8 -34 -22 1 -54 27 -47 38 7 10 8 10 39 -4z m1609
-3 c-4 -8 -8 -15 -10 -15 -2 0 -4 7 -4 15 0 8 4 15 10 15 5 0 7 -7 4 -15z
m-1464 -32 c-11 -17 -11 -17 -6 0 3 10 6 24 7 30 0 9 2 9 5 0 3 -7 0 -20 -6
-30z m-26 11 c4 -10 1 -14 -6 -12 -15 5 -23 28 -10 28 5 0 13 -7 16 -16z m336
1 c0 -8 -4 -15 -10 -15 -5 0 -10 7 -10 15 0 8 5 15 10 15 6 0 10 -7 10 -15z
m1130 7 c0 -15 -88 -53 -116 -50 -27 3 -27 4 -10 21 10 10 26 15 35 13 9 -3
27 1 41 9 28 16 50 19 50 7z m-1625 -22 c3 -6 -1 -7 -9 -4 -18 7 -21 14 -7 14
6 0 13 -4 16 -10z m-704 -26 c6 -8 9 -14 6 -14 -13 0 -57 24 -57 31 0 11 38
-1 51 -17z m849 5 c0 -4 -8 -6 -17 -2 -15 5 -14 3 2 -10 17 -14 18 -16 3 -17
-21 0 -30 13 -22 33 6 16 34 12 34 -4z m83 15 c9 -9 -4 -35 -14 -28 -5 3 -9
12 -9 20 0 14 12 19 23 8z m713 -52 c-11 -10 -15 4 -8 28 l7 25 3 -23 c2 -13
1 -26 -2 -30z m-651 19 c-3 -6 -14 -11 -23 -11 -13 0 -13 2 4 14 21 15 30 14
19 -3z m-845 -11 c13 -9 13 -10 0 -10 -8 0 -22 5 -30 10 -13 9 -13 10 0 10 8
0 22 -5 30 -10z m-70 -10 c-20 -13 -33 -13 -25 0 3 6 14 10 23 10 15 0 15 -2
2 -10z m2897 -12 c-3 -8 -6 -5 -6 6 -1 11 2 17 5 13 3 -3 4 -12 1 -19z m-2940
6 c-3 -3 -12 -4 -19 -1 -8 3 -5 6 6 6 11 1 17 -2 13 -5z"/>
<path d="M2430 2140 c-24 -4 -53 -5 -62 -2 -10 2 -18 -1 -18 -7 0 -7 19 -11
48 -10 50 1 157 15 132 18 -8 1 -24 3 -35 5 -11 2 -40 1 -65 -4z"/>
<path d="M880 2110 c0 -5 4 -10 9 -10 6 0 13 5 16 10 3 6 -1 10 -9 10 -9 0
-16 -4 -16 -10z"/>
<path d="M998 2113 c-18 -4 -23 -15 -12 -25 5 -6 64 20 64 28 0 5 -28 3 -52
-3z"/>
<path d="M149 715 c0 -44 -3 -100 -5 -125 -2 -25 0 -58 4 -75 6 -21 10 10 15
109 4 81 2 146 -3 155 -6 11 -10 -9 -11 -64z"/>
<path d="M162 410 c0 -14 2 -19 5 -12 2 6 2 18 0 25 -3 6 -5 1 -5 -13z"/>
<path d="M1818 243 c7 -3 16 -2 19 1 4 3 -2 6 -13 5 -11 0 -14 -3 -6 -6z"/>
<path d="M1456 202 c-8 -13 21 -20 96 -20 35 -1 119 -3 188 -6 101 -4 129 -3
144 9 18 13 -2 15 -180 15 -109 0 -209 3 -220 6 -12 3 -24 1 -28 -4z"/>
<path d="M1917 184 c4 -11 13 -13 37 -8 17 4 52 6 79 5 26 -1 47 3 47 9 0 6
-34 10 -85 10 -72 0 -84 -2 -78 -16z"/>
<path d="M2118 193 c6 -2 18 -2 25 0 6 3 1 5 -13 5 -14 0 -19 -2 -12 -5z"/>
<path d="M2335 190 c3 -5 -2 -10 -11 -10 -10 0 -15 -2 -12 -5 8 -8 68 6 68 16
0 5 -12 9 -26 9 -14 0 -23 -4 -19 -10z"/>
<path d="M781 179 c-101 -5 -186 -11 -189 -14 -16 -16 33 -17 302 -5 163 7
326 11 363 8 38 -3 79 -2 93 2 24 6 24 6 -9 13 -42 9 -316 7 -560 -4z"/>
<path d="M343 133 c9 -2 23 -2 30 0 6 3 -1 5 -18 5 -16 0 -22 -2 -12 -5z"/>
<path d="M596 1983 c-6 -14 -5 -15 5 -6 7 7 10 15 7 18 -3 3 -9 -2 -12 -12z"/>
<path d="M557 1963 c-6 -6 10 -39 31 -61 6 -7 12 -16 12 -20 0 -4 12 -20 26
-37 43 -49 104 -133 104 -144 0 -5 7 -11 15 -15 8 -3 15 -12 15 -21 0 -13 3
-13 13 -3 18 16 17 38 0 38 -20 0 -25 22 -14 53 6 15 8 27 6 27 -3 0 -10 -12
-16 -26 -9 -25 -10 -26 -23 -9 -10 14 -11 26 -3 52 6 18 14 33 19 33 4 0 20
-19 35 -42 39 -59 57 -75 76 -69 13 5 4 19 -43 69 -33 34 -60 67 -60 72 0 6
-8 18 -17 28 -10 11 -26 34 -37 53 -10 19 -21 29 -23 21 -3 -6 9 -35 27 -63
28 -47 30 -53 18 -84 -15 -43 -24 -36 -86 59 -49 77 -67 98 -75 89z"/>
<path d="M460 1933 c0 -5 14 -30 30 -56 17 -26 30 -52 30 -58 0 -17 17 -1 23
21 3 11 1 18 -3 15 -5 -3 -25 16 -44 41 -20 26 -36 43 -36 37z"/>
<path d="M405 1879 c-4 -6 -5 -12 -2 -15 2 -3 7 2 10 11 7 17 1 20 -8 4z"/>
<path d="M386 1835 c-9 -26 -7 -32 5 -12 6 10 9 21 6 23 -2 3 -7 -2 -11 -11z"/>
<path d="M420 1808 c0 -9 5 -20 10 -23 13 -8 13 5 0 25 -8 13 -10 13 -10 -2z"/>
<path d="M901 1764 c0 -11 3 -14 6 -6 3 7 2 16 -1 19 -3 4 -6 -2 -5 -13z"/>
<path d="M440 1751 c0 -11 -4 -23 -10 -26 -12 -8 -13 -25 -1 -25 5 0 12 12 15
26 l7 27 21 -22 c11 -12 23 -20 26 -17 6 7 -37 56 -50 56 -4 0 -8 -9 -8 -19z"/>
<path d="M870 1670 c0 -5 5 -10 11 -10 5 0 7 5 4 10 -3 6 -8 10 -11 10 -2 0
-4 -4 -4 -10z"/>
<path d="M401 1644 c0 -11 3 -14 6 -6 3 7 2 16 -1 19 -3 4 -6 -2 -5 -13z"/>
<path d="M512 1610 c12 -16 26 -30 32 -30 5 0 -3 14 -19 30 -16 17 -30 30 -32
30 -2 0 6 -13 19 -30z"/>
<path d="M440 1615 c0 -4 9 -18 20 -32 11 -14 20 -22 20 -18 0 4 -9 18 -20 32
-11 14 -20 22 -20 18z"/>
<path d="M647 1605 c-6 -14 -10 -16 -19 -7 -23 23 -26 12 -5 -12 22 -25 22
-25 30 -4 4 12 6 26 4 32 -2 5 -7 2 -10 -9z"/>
<path d="M580 1591 c0 -5 7 -15 17 -22 15 -13 15 -12 4 9 -12 23 -21 28 -21
13z"/>
<path d="M620 1536 c0 -9 -4 -16 -10 -16 -5 0 -7 -7 -4 -15 4 -8 10 -15 15
-15 4 0 6 6 3 14 -3 8 2 16 12 18 16 3 16 4 1 17 -15 12 -17 11 -17 -3z"/>
<path d="M751 1497 c-6 -8 -8 -17 -4 -20 11 -12 19 -7 20 13 2 24 -1 25 -16 7z"/>
<path d="M594 1466 c1 -18 4 -22 14 -14 9 8 9 14 1 24 -16 19 -17 18 -15 -10z"/>
<path d="M720 1424 c15 -17 30 -18 30 -1 0 7 -9 13 -21 14 -17 2 -18 -1 -9
-13z"/>
<path d="M493 1415 c0 -8 4 -15 9 -15 4 0 8 4 8 9 0 6 -4 12 -8 15 -5 3 -9 -1
-9 -9z"/>
<path d="M2670 1992 c0 -4 14 -27 30 -52 16 -25 30 -41 30 -36 0 5 14 -12 31
-37 38 -58 60 -74 25 -18 -14 22 -26 43 -26 45 0 3 -13 25 -29 48 -16 24 -28
45 -26 48 2 3 -5 7 -16 7 -10 1 -19 -1 -19 -5z"/>
<path d="M2747 1961 c-4 -17 -3 -21 5 -13 5 5 8 16 6 23 -3 8 -7 3 -11 -10z"/>
<path d="M2590 1931 c5 -11 15 -23 21 -27 6 -3 3 5 -6 20 -20 30 -30 35 -15 7z"/>
<path d="M2700 1866 c-6 -9 -10 -21 -8 -28 3 -8 9 -4 17 10 15 28 9 39 -9 18z"/>
<path d="M2849 1845 c17 -34 31 -51 31 -39 0 7 -9 22 -21 35 -16 19 -18 20
-10 4z"/>
<path d="M2677 1813 c-4 -3 -7 -11 -7 -17 0 -6 5 -5 12 2 6 6 9 14 7 17 -3 3
-9 2 -12 -2z"/>
<path d="M2818 1775 c5 -29 8 -31 15 -11 3 8 0 19 -7 25 -10 9 -12 6 -8 -14z"/>
<path d="M2740 1720 c0 -5 5 -10 11 -10 5 0 7 5 4 10 -3 6 -8 10 -11 10 -2 0
-4 -4 -4 -10z"/>
<path d="M2773 1675 c7 -14 16 -25 20 -25 9 0 -9 36 -22 44 -5 4 -4 -5 2 -19z"/>
<path d="M2830 1689 c0 -9 10 -24 21 -35 22 -19 22 -19 11 1 -6 11 -16 27 -22
35 -8 13 -10 13 -10 -1z"/>
<path d="M2890 1673 c0 -6 5 -15 11 -18 6 -4 8 -13 5 -21 -3 -8 0 -11 8 -8 7
3 18 -5 24 -18 6 -14 11 -17 11 -8 0 8 -13 31 -29 50 -16 19 -30 30 -30 23z"/>
<path d="M2808 1629 c6 -7 12 -21 12 -32 0 -10 4 -16 10 -12 5 3 18 -11 29
-32 12 -23 20 -31 21 -20 0 10 -9 27 -20 39 -11 12 -20 27 -20 32 0 6 -10 17
-22 25 -18 10 -20 11 -10 0z"/>
<path d="M2887 1604 c-11 -12 -8 -36 4 -29 6 4 13 -2 16 -14 6 -24 23 -28 23
-6 0 8 -5 15 -10 15 -6 0 -14 9 -18 20 -4 12 -11 18 -15 14z"/>
<path d="M3066 1595 c4 -8 8 -15 10 -15 2 0 4 7 4 15 0 8 -4 15 -10 15 -5 0
-7 -7 -4 -15z"/>
<path d="M2890 1514 c0 -13 18 -39 24 -34 2 3 -2 14 -10 24 -8 11 -14 16 -14
10z"/>
<path d="M2165 1890 c3 -5 8 -10 11 -10 2 0 4 5 4 10 0 6 -5 10 -11 10 -5 0
-7 -4 -4 -10z"/>
<path d="M2236 1852 c-4 -7 -11 -10 -16 -7 -4 2 -10 -6 -12 -20 -3 -14 -2 -25
2 -25 13 0 42 39 38 51 -3 10 -6 10 -12 1z"/>
<path d="M2157 1812 c-3 -9 -8 -26 -12 -37 -6 -18 -5 -18 5 -2 6 9 18 17 25
17 19 0 19 8 1 25 -12 12 -15 12 -19 -3z"/>
<path d="M2238 1802 c-4 -13 -14 -22 -26 -22 -14 0 -21 -9 -25 -27 l-5 -28 19
24 c10 13 19 18 19 11 0 -9 5 -8 18 3 19 17 50 8 38 -12 -4 -6 -1 -11 8 -11 8
0 19 -8 25 -17 5 -10 12 -16 15 -13 5 5 -8 24 -60 88 -21 25 -21 25 -26 4z"/>
<path d="M2110 1736 c0 -16 18 -31 27 -22 3 3 -2 12 -11 21 -14 14 -16 14 -16
1z"/>
<path d="M2380 1863 c0 -6 23 -38 50 -69 28 -31 50 -61 50 -66 0 -4 5 -8 10
-8 6 0 10 8 10 17 0 9 -3 13 -6 10 -4 -3 -19 10 -34 31 -49 65 -79 97 -80 85z"/>
<path d="M2536 1673 c-6 -14 -5 -15 5 -6 7 7 10 15 7 18 -3 3 -9 -2 -12 -12z"/>
<path d="M2973 1940 c11 -23 21 -39 24 -37 5 6 -29 77 -38 77 -3 0 3 -18 14
-40z"/>
<path d="M3012 1886 c-8 -18 -8 -25 1 -29 7 -3 12 7 13 24 1 35 0 36 -14 5z"/>
<path d="M3051 1810 c14 -31 19 -36 19 -24 0 6 -7 19 -16 30 -14 18 -14 18 -3
-6z"/>
<path d="M3081 1768 c-6 -16 -5 -24 4 -26 7 -2 18 -15 25 -30 11 -21 14 -23
17 -10 3 10 -5 27 -17 40 -11 12 -18 28 -16 35 3 7 3 13 0 13 -2 0 -8 -10 -13
-22z"/>
<path d="M962 1605 c6 -14 17 -25 25 -25 11 0 11 4 1 20 -20 31 -40 35 -26 5z"/>
<path d="M1066 1642 c-2 -4 -1 -14 4 -22 7 -11 9 -9 7 8 -1 24 -3 26 -11 14z"/>
<path d="M320 1440 c6 -11 16 -20 22 -20 6 0 3 9 -7 20 -10 11 -20 20 -22 20
-2 0 1 -9 7 -20z"/>
<path d="M2460 1480 c0 -5 5 -10 10 -10 6 0 10 5 10 10 0 6 -4 10 -10 10 -5 0
-10 -4 -10 -10z"/>
<path d="M3090 1038 c-7 -18 -26 -61 -43 -96 -22 -43 -28 -65 -20 -70 6 -4 13
-18 16 -32 4 -21 4 -20 6 8 0 20 10 42 26 58 30 30 31 37 4 29 -20 -7 -20 -6
-4 19 10 14 21 26 25 26 6 0 19 22 38 64 3 5 0 6 -7 2 -6 -4 -11 -1 -11 8 0
27 -17 18 -30 -16z"/>
<path d="M3017 1004 c-16 -31 -26 -59 -23 -62 3 -2 1 -12 -3 -21 -13 -24 -24
-210 -11 -191 5 8 10 41 10 72 0 31 4 68 10 83 5 14 12 40 16 58 3 18 13 41
23 52 26 28 36 65 19 65 -8 0 -26 -25 -41 -56z"/>
<path d="M3141 994 c0 -11 3 -14 6 -6 3 7 2 16 -1 19 -3 4 -6 -2 -5 -13z"/>
<path d="M3040 970 c-6 -11 -7 -20 -2 -20 6 0 12 9 15 20 3 11 3 20 1 20 -2 0
-8 -9 -14 -20z"/>
<path d="M2942 940 c0 -14 2 -19 5 -12 2 6 2 18 0 25 -3 6 -5 1 -5 -13z"/>
<path d="M3121 904 c0 -11 3 -14 6 -6 3 7 2 16 -1 19 -3 4 -6 -2 -5 -13z"/>
<path d="M2926 884 c-8 -21 -8 -24 3 -24 5 0 11 9 14 20 6 24 -8 27 -17 4z"/>
<path d="M3108 850 c-7 -24 -3 -38 8 -28 3 4 4 17 2 30 l-3 23 -7 -25z"/>
<path d="M3030 790 c-9 -6 -10 -10 -3 -10 6 0 15 5 18 10 8 12 4 12 -15 0z"/>
<path d="M3033 675 c0 -33 2 -45 4 -27 2 18 2 45 0 60 -2 15 -4 0 -4 -33z"/>
<path d="M3093 675 c0 -27 2 -38 4 -22 2 15 2 37 0 50 -2 12 -4 0 -4 -28z"/>
<path d="M2971 684 c0 -11 3 -14 6 -6 3 7 2 16 -1 19 -3 4 -6 -2 -5 -13z"/>
<path d="M3135 679 c-4 -6 -5 -12 -2 -15 2 -3 7 2 10 11 7 17 1 20 -8 4z"/>
<path d="M3025 570 c-3 -5 -1 -10 4 -10 6 0 11 5 11 10 0 6 -2 10 -4 10 -3 0
-8 -4 -11 -10z"/>
<path d="M3043 533 c-8 -3 -13 -23 -13 -48 0 -24 -4 -47 -10 -50 -5 -3 -10
-15 -10 -26 0 -10 -4 -19 -10 -19 -5 0 -10 8 -10 18 0 14 -2 14 -9 3 -5 -8 -7
-20 -4 -28 8 -21 33 -15 43 11 5 13 13 27 18 30 5 3 10 26 10 51 1 25 4 50 7
55 7 11 6 11 -12 3z"/>
<path d="M2086 664 c-10 -14 -16 -28 -13 -30 2 -3 12 7 21 22 10 14 16 28 13
30 -2 3 -12 -7 -21 -22z"/>
<path d="M2380 940 c0 -5 7 -10 15 -10 8 0 15 5 15 10 0 6 -7 10 -15 10 -8 0
-15 -4 -15 -10z"/>
<path d="M2508 875 c-3 -14 -1 -28 3 -31 5 -3 9 9 9 25 0 38 -6 40 -12 6z"/>
<path d="M2443 818 c-9 -52 -8 -67 3 -56 7 8 18 108 11 108 -3 0 -9 -24 -14
-52z"/>
<path d="M2530 849 c0 -5 5 -7 10 -4 6 3 10 8 10 11 0 2 -4 4 -10 4 -5 0 -10
-5 -10 -11z"/>
<path d="M2377 843 c-4 -3 -7 -22 -6 -42 l1 -36 9 39 c9 39 8 52 -4 39z"/>
<path d="M2331 783 c-1 -6 -4 -20 -7 -30 -5 -17 -5 -17 6 0 6 10 9 23 6 30 -3
9 -5 9 -5 0z"/>
<path d="M2368 725 c-3 -14 -1 -25 3 -25 5 0 9 11 9 25 0 14 -2 25 -4 25 -2 0
-6 -11 -8 -25z"/>
<path d="M2434 716 c-3 -14 -21 -38 -40 -55 -19 -18 -34 -36 -34 -41 0 -5 -11
-12 -24 -16 -27 -6 -39 -26 -30 -49 8 -19 24 -20 24 -1 0 8 20 36 45 63 25 26
45 51 45 55 0 4 4 8 10 8 5 0 3 -18 -5 -40 -17 -48 -5 -51 36 -9 17 17 33 28
36 25 8 -8 -14 -166 -28 -201 l-13 -30 -6 40 c-5 30 -8 33 -9 13 -2 -40 -22
-80 -38 -74 -8 3 -13 -2 -13 -14 0 -28 29 -25 40 5 6 16 15 23 24 19 11 -4 18
6 26 35 6 23 14 41 18 41 4 0 8 24 9 53 2 93 11 148 28 173 16 24 15 24 -5 12
-11 -7 -33 -30 -48 -52 -26 -38 -27 -38 -33 -15 -3 13 -4 36 -1 52 6 33 -5 36
-14 3z"/>
<path d="M2321 714 c0 -11 3 -14 6 -6 3 7 2 16 -1 19 -3 4 -6 -2 -5 -13z"/>
<path d="M2317 661 c-3 -14 -1 -30 4 -35 5 -6 9 0 9 15 0 14 5 30 10 35 7 7 6
11 -4 11 -8 0 -17 -12 -19 -26z"/>
<path d="M2370 534 c0 -33 -4 -64 -9 -70 -5 -5 -11 -18 -13 -29 -6 -37 -22
-11 -19 33 1 25 -2 42 -8 42 -7 0 -11 -24 -11 -60 0 -47 -4 -64 -20 -80 -22
-22 -25 -30 -10 -30 6 0 16 11 22 25 6 14 17 25 25 25 7 0 21 16 30 35 9 19
19 32 23 30 8 -5 5 123 -3 132 -4 3 -7 -21 -7 -53z"/>
<path d="M2501 420 c-1 -18 -12 -31 -41 -48 -22 -12 -40 -27 -40 -33 0 -11 9
-7 51 22 14 10 29 16 31 13 10 -9 15 31 7 51 -7 18 -8 17 -8 -5z"/>
<path d="M2320 345 c-16 -19 0 -19 26 0 16 12 16 14 3 15 -9 0 -22 -7 -29 -15z"/>
<path d="M2797 803 c-4 -3 -7 -13 -7 -22 1 -13 3 -13 11 2 11 19 8 33 -4 20z"/>
<path d="M1872 800 c0 -25 2 -39 5 -32 2 6 9 10 14 6 5 -3 9 7 9 21 0 14 -4
24 -9 20 -5 -3 -12 3 -14 12 -3 10 -5 -2 -5 -27z"/>
<path d="M1872 717 c0 -34 1 -36 14 -20 15 20 19 47 5 39 -5 -4 -11 0 -14 6
-2 7 -5 -4 -5 -25z"/>
<path d="M1921 706 c1 -17 3 -23 6 -13 2 9 9 15 14 12 5 -4 9 2 9 13 0 10 -7
19 -15 19 -10 0 -15 -10 -14 -31z"/>
<path d="M1933 673 c-7 -3 -13 -14 -13 -26 0 -18 2 -19 10 -7 7 12 10 8 10
-15 1 -26 2 -27 11 -12 13 22 -1 66 -18 60z"/>
<path d="M653 792 c-7 -4 -9 -13 -4 -21 6 -10 10 -9 15 5 8 20 4 25 -11 16z"/>
<path d="M686 791 c-4 -5 3 -7 14 -4 23 6 26 13 6 13 -8 0 -17 -4 -20 -9z"/>
<path d="M2717 773 c-4 -3 -7 -11 -7 -17 0 -6 5 -5 12 2 6 6 9 14 7 17 -3 3
-9 2 -12 -2z"/>
<path d="M2004 780 c0 -58 1 -81 3 -52 2 28 2 76 0 105 -2 28 -3 5 -3 -53z"/>
<path d="M603 700 c6 -10 15 -16 19 -14 14 9 9 22 -11 27 -17 4 -18 2 -8 -13z"/>
<path d="M645 690 c3 -5 8 -10 11 -10 2 0 4 5 4 10 0 6 -5 10 -11 10 -5 0 -7
-4 -4 -10z"/>
<path d="M545 608 c33 -17 63 -35 66 -40 4 -7 13 -7 25 0 18 10 18 11 -1 18
-11 4 -47 18 -79 30 -80 32 -83 29 -11 -8z"/>
<path d="M672 560 c5 -17 58 -27 58 -11 0 6 -7 8 -15 5 -8 -4 -23 0 -32 7 -14
12 -16 12 -11 -1z"/>
<path d="M556 403 c-6 -14 -5 -15 5 -6 7 7 10 15 7 18 -3 3 -9 -2 -12 -12z"/>
<path d="M2840 690 c0 -5 5 -10 10 -10 6 0 10 5 10 10 0 6 -4 10 -10 10 -5 0
-10 -4 -10 -10z"/>
<path d="M787 550 c-3 -11 -3 -20 -1 -20 2 0 8 9 14 20 6 11 7 20 2 20 -6 0
-12 -9 -15 -20z"/>
<path d="M907 509 c-4 -16 -3 -18 9 -8 16 13 19 29 5 29 -5 0 -11 -9 -14 -21z"/>
<path d="M755 491 c-8 -17 -12 -31 -7 -31 10 0 35 50 28 57 -2 3 -12 -9 -21
-26z"/>
<path d="M1831 344 c0 -11 3 -14 6 -6 3 7 2 16 -1 19 -3 4 -6 -2 -5 -13z"/>
<path d="M2743 2273 c9 -2 25 -2 35 0 9 3 1 5 -18 5 -19 0 -27 -2 -17 -5z"/>
<path d="M2858 2273 c7 -3 16 -2 19 1 4 3 -2 6 -13 5 -11 0 -14 -3 -6 -6z"/>
<path d="M2000 2230 c0 -6 7 -10 15 -10 8 0 15 2 15 4 0 2 -7 6 -15 10 -8 3
-15 1 -15 -4z"/>
<path d="M3698 1714 c-5 -4 -8 -19 -8 -33 1 -23 2 -24 11 -8 11 19 9 53 -3 41z"/>
<path d="M3752 1198 c-5 -7 -11 -20 -13 -28 -3 -20 12 -102 18 -96 5 5 13 136
9 136 -2 0 -8 -6 -14 -12z"/>
</g>
</svg>
