<?xml version="1.0" standalone="no"?>
<!DOCTYPE svg PUBLIC "-//W3C//DTD SVG 20010904//EN"
 "http://www.w3.org/TR/2001/REC-SVG-20010904/DTD/svg10.dtd">
<svg version="1.0" xmlns="http://www.w3.org/2000/svg"
 width="408.000000pt" height="439.000000pt" viewBox="0 0 408.000000 439.000000"
 preserveAspectRatio="xMidYMid meet">
<metadata>
Created by potrace 1.16, written by Peter Selinger 2001-2019
</metadata>
<g transform="translate(0.000000,439.000000) scale(0.100000,-0.100000)"
fill="#000000" stroke="none">
<path d="M3545 4339 c-38 -4 -155 -15 -260 -24 -104 -8 -203 -19 -220 -23
l-30 -8 1 -495 c0 -330 6 -569 16 -719 8 -124 13 -254 9 -290 -5 -57 -1 -244
12 -525 3 -49 -2 -173 -9 -275 -8 -102 -14 -223 -14 -269 0 -47 -4 -98 -9
-115 -12 -37 -31 -346 -37 -566 -2 -85 -6 -165 -8 -177 -12 -59 72 -84 239
-71 61 5 275 10 477 11 l368 2 0 48 0 47 -100 -4 -100 -5 -41 51 c-22 28 -47
64 -55 80 -8 15 -19 28 -24 28 -16 0 -12 -32 9 -72 27 -50 13 -65 -28 -27 -12
12 -25 18 -29 14 -9 -8 44 -55 63 -55 7 0 20 6 28 14 15 16 37 4 37 -20 0 -21
-384 -34 -483 -16 l-38 7 30 45 c21 31 31 57 31 84 0 22 7 66 16 98 21 73 12
85 -41 57 -47 -24 -110 -46 -144 -51 -16 -2 -35 -20 -57 -53 -66 -99 -63 -98
-64 -23 0 37 5 70 10 73 6 3 10 1 10 -4 0 -20 29 -11 50 16 28 36 92 72 137
77 27 3 75 34 69 45 -3 4 -29 9 -58 10 -29 1 -55 6 -58 11 -3 4 -30 0 -60 -10
-46 -16 -56 -23 -63 -49 -4 -17 -12 -31 -18 -31 -7 0 -9 10 -6 23 3 12 9 111
13 220 4 109 11 200 15 203 5 3 9 0 9 -5 0 -6 17 -11 38 -10 34 0 35 1 13 10
-13 5 -21 12 -18 15 9 10 138 -6 132 -16 -3 -5 -34 -18 -70 -30 -65 -22 -83
-34 -66 -44 10 -7 94 21 139 46 18 10 44 18 58 18 49 0 18 -22 -76 -54 -51
-17 -96 -38 -98 -45 -7 -21 47 -8 127 30 71 34 109 39 122 18 17 -31 7 -37
-114 -69 -46 -12 -65 -25 -54 -37 3 -3 50 10 103 27 54 18 109 33 124 32 14 0
37 8 50 19 l25 19 -35 0 c-19 0 -46 9 -60 20 l-25 20 25 0 c14 0 36 -7 48 -16
13 -9 32 -14 42 -11 12 3 20 -2 24 -16 7 -28 3 -33 -46 -45 -24 -6 -80 -21
-125 -33 -49 -12 -80 -25 -77 -31 8 -12 82 -2 101 13 7 6 26 8 44 4 21 -5 29
-4 25 4 -11 17 43 25 70 11 30 -17 26 -20 -27 -25 -40 -4 -61 -7 -126 -21 -40
-8 -26 -27 15 -21 20 3 74 11 120 17 56 8 92 8 111 2 15 -5 39 -8 53 -5 14 3
29 0 32 -6 7 -11 -95 -8 -114 4 -6 3 -10 0 -10 -7 0 -10 -24 -18 -75 -27 -41
-7 -75 -17 -75 -22 0 -12 52 -12 84 1 18 6 34 6 52 -2 20 -9 27 -9 33 0 5 9
14 10 32 3 13 -5 20 -11 14 -12 -5 -1 -14 -2 -20 -3 -42 -8 -95 -29 -90 -36 4
-6 10 -10 16 -10 5 0 18 -9 30 -21 11 -11 27 -18 34 -15 8 3 15 1 17 -3 2 -5
33 -23 71 -39 37 -17 67 -35 67 -40 0 -11 -154 47 -222 84 -27 14 -48 20 -48
14 0 -6 28 -24 63 -39 44 -20 71 -40 92 -69 17 -23 34 -42 38 -42 5 0 5 -9 2
-20 -7 -24 12 -53 28 -43 5 3 7 1 3 -5 -6 -10 30 -82 41 -82 8 0 -8 63 -25 95
l-15 30 22 -19 c30 -27 26 -7 -6 27 -23 25 -24 29 -8 22 11 -4 34 -13 50 -18
32 -11 105 -95 105 -120 0 -14 100 -71 109 -61 6 5 -56 64 -68 64 -8 0 -61 53
-61 61 0 3 13 5 30 4 16 -1 27 2 24 7 -6 10 -49 28 -73 32 -8 2 -17 9 -19 16
-3 7 -1 11 4 9 5 -2 30 -12 57 -23 26 -10 47 -23 47 -28 0 -5 4 -7 9 -4 5 4
21 2 35 -4 14 -5 26 -8 26 -5 0 6 -132 71 -172 84 -42 14 -57 29 -38 41 9 6 7
10 -7 14 -11 4 -25 18 -31 31 -13 28 -32 34 -32 10 0 -19 -7 -18 -50 6 -24 14
-28 19 -13 15 13 -2 26 0 29 5 3 5 -9 12 -26 16 -27 5 -29 8 -15 15 12 7 34 0
84 -26 38 -20 71 -33 75 -29 3 3 6 1 6 -5 0 -10 49 -42 65 -42 15 0 2 22 -19
31 -14 7 -22 17 -20 24 3 7 -6 15 -20 19 -14 3 -26 10 -26 15 0 12 39 2 68
-17 19 -13 25 -13 32 -2 5 9 10 3 15 -19 7 -34 32 -52 44 -33 4 7 12 8 21 2
40 -25 40 -25 40 383 0 334 -2 396 -16 422 -14 27 -14 31 0 41 14 9 16 40 16
190 0 119 -4 174 -10 164 -7 -11 -10 -3 -12 30 -1 25 -1 57 0 72 1 15 -3 30
-8 33 -6 3 -10 19 -10 36 0 16 -5 29 -11 29 -12 0 -3 76 17 132 8 24 10 53 5
85 l-8 48 -7 -50 c-10 -60 -62 -179 -76 -170 -5 3 -14 -9 -19 -27 -5 -18 -10
-25 -10 -16 -1 19 26 91 70 186 16 35 32 74 35 88 3 13 10 22 14 19 9 -6 20
45 20 89 l-1 31 -19 -35 c-10 -19 -29 -61 -41 -92 -12 -32 -25 -55 -30 -52 -5
3 -9 -3 -9 -13 0 -10 -9 -36 -20 -58 l-20 -40 6 49 c3 28 18 77 33 110 45 99
90 209 97 239 16 70 -23 -1 -86 -155 -13 -32 -25 -57 -26 -55 -7 7 28 153 45
184 17 34 71 177 71 189 0 2 -5 4 -10 4 -6 0 -23 -26 -38 -57 -15 -32 -30 -60
-33 -63 -4 -3 -19 -44 -35 -92 -29 -91 -49 -119 -33 -47 12 53 68 197 79 204
4 3 11 24 15 48 4 23 12 47 17 54 5 7 8 22 6 35 -4 19 -10 12 -32 -37 -16 -33
-37 -82 -47 -110 -21 -55 -22 -64 5 113 10 70 19 98 35 113 11 11 21 23 21 26
0 3 -9 -2 -20 -12 -26 -24 -36 -13 -21 24 9 21 10 35 2 49 -12 23 -2 60 23 81
20 17 38 5 30 -21 -9 -30 13 -13 33 25 14 28 14 30 0 19 -23 -20 -33 5 -11 30
21 22 28 78 11 78 -7 0 -7 4 1 12 16 16 15 41 -2 35 -7 -3 -18 -1 -23 4 -6 6
-17 2 -29 -8 -182 -165 -194 -178 -194 -200 0 -12 -6 -23 -12 -23 -7 0 -21
-14 -30 -30 -9 -17 -23 -30 -30 -30 -14 0 -42 -60 -32 -69 3 -3 17 8 31 24
l25 30 -18 -34 c-11 -18 -25 -35 -31 -38 -7 -3 -13 -13 -13 -22 0 -9 -7 -25
-15 -35 -10 -13 -11 -22 -5 -26 13 -8 -7 -110 -22 -110 -5 0 -16 -7 -24 -15
-17 -17 -64 -21 -64 -5 0 5 19 20 43 32 36 19 39 23 20 26 -12 2 -38 -4 -57
-13 -19 -9 -39 -14 -44 -11 -16 10 -125 -53 -162 -93 -31 -32 -74 -95 -105
-153 -5 -10 -15 -18 -22 -18 -7 0 -18 -19 -24 -42 -7 -24 -18 -50 -26 -59 -16
-19 -17 -36 -1 -41 8 -3 3 -21 -16 -54 -16 -27 -34 -71 -41 -99 -12 -48 -13
-45 -13 81 -1 123 0 132 18 137 27 7 25 25 -2 29 -22 3 -23 9 -30 123 -4 66
-9 220 -12 343 l-5 222 27 17 c146 89 196 141 323 331 60 91 109 174 109 184
0 10 7 29 16 43 14 21 14 24 -3 34 -13 8 17 10 115 11 111 0 132 -2 132 -15 0
-8 5 -15 10 -15 6 0 10 7 10 17 0 14 13 15 120 10 l120 -6 0 29 0 30 -67 2
c-95 2 -101 3 -109 11 -4 4 -63 7 -130 7 -71 0 -125 4 -129 10 -3 6 -12 9 -18
9 -7 -1 -43 -5 -82 -10z m-115 -74 c0 -3 -28 -33 -62 -67 -60 -62 -65 -44 -5
20 21 21 26 32 16 33 -8 0 -6 4 6 9 23 10 45 12 45 5z m-132 -42 c-39 -42 -63
-87 -32 -62 16 13 16 12 6 -6 -6 -11 -17 -29 -25 -39 -28 -38 -25 15 4 82 25
54 31 62 56 62 l27 0 -36 -37z m-48 14 c0 -4 -23 -54 -50 -110 -54 -109 -112
-191 -107 -150 2 12 10 30 19 40 28 31 98 167 98 191 0 32 -13 27 -29 -10 -33
-79 -60 -134 -75 -153 -14 -19 -15 -15 -16 56 0 97 8 137 29 142 29 7 131 3
131 -6z m20 -153 c-6 -14 -40 -63 -78 -108 -37 -46 -72 -92 -78 -102 -7 -10
-15 -16 -19 -12 -4 4 10 29 32 55 22 26 63 81 92 121 29 39 54 72 57 72 2 0
-1 -12 -6 -26z m193 -29 c-9 -19 -18 -33 -21 -31 -4 5 26 66 33 66 3 0 -3 -16
-12 -35z m-129 3 c-3 -12 -59 -74 -122 -138 -63 -63 -109 -106 -101 -94 29 42
217 254 226 254 2 0 1 -10 -3 -22z m-171 -63 c-10 -13 -22 -25 -27 -25 -5 0 1
11 14 25 30 32 36 32 13 0z m267 8 c-1 -5 -12 -21 -26 -38 l-25 -30 11 29 c6
16 13 33 16 37 6 11 24 12 24 2z m-320 -258 c0 -8 -4 -15 -10 -15 -5 0 -10 7
-10 15 0 8 5 15 10 15 6 0 10 -7 10 -15z m910 -23 c0 -12 -51 -54 -58 -48 -3
3 5 17 18 31 24 25 40 32 40 17z m-99 -198 c-8 -19 -17 -30 -19 -24 -4 10 23
60 32 60 2 0 -4 -16 -13 -36z m24 -37 c-16 -54 -52 -113 -63 -103 -3 3 6 23
20 43 13 21 30 58 37 81 7 24 15 42 17 39 3 -3 -2 -30 -11 -60z m-149 -65
c-18 -16 -18 -16 -6 6 6 13 14 21 18 18 3 -4 -2 -14 -12 -24z m41 -24 c-3 -8
-6 -5 -6 6 -1 11 2 17 5 13 3 -3 4 -12 1 -19z m-39 -15 c-8 -10 -21 -34 -28
-53 -21 -56 -33 -61 -27 -11 4 32 13 50 34 67 32 25 44 23 21 -3z m135 -65
c-3 -40 -12 -78 -18 -85 -7 -6 -27 -53 -45 -104 -19 -51 -35 -88 -37 -83 -4
12 97 344 105 344 1 0 -1 -33 -5 -72z m-48 -13 l-24 -70 5 50 c6 44 30 103 39
93 2 -2 -7 -35 -20 -73z m-98 -97 c-3 -7 -5 -2 -5 12 0 14 2 19 5 13 2 -7 2
-19 0 -25z m42 -40 c-4 -37 -15 -80 -24 -95 -11 -19 -14 -21 -11 -8 2 11 7 38
11 60 8 52 25 118 29 114 2 -2 0 -34 -5 -71z m-76 -5 c-8 -65 -13 -67 -13 -5
0 29 4 52 10 52 6 0 7 -19 3 -47z m-338 2 c-17 -13 -32 -21 -35 -18 -3 3 8 15
25 28 16 13 31 22 34 19 3 -3 -8 -16 -24 -29z m499 -22 c-4 -25 -26 -87 -50
-137 -48 -101 -70 -137 -59 -96 7 24 14 41 48 120 8 19 25 63 37 98 13 34 25
62 27 62 2 0 1 -21 -3 -47z m-384 -8 c-7 -8 -18 -15 -24 -15 -6 0 -2 7 8 15
25 19 32 19 16 0z m-111 -90 c-19 -25 -42 -56 -52 -68 -17 -21 -17 -21 -2 18
16 39 74 109 83 100 3 -2 -10 -25 -29 -50z m350 -52 c-15 -56 -20 -63 -13 -18
6 39 11 55 19 55 2 0 -1 -17 -6 -37z m-122 -15 c-3 -8 -6 -5 -6 6 -1 11 2 17
5 13 3 -3 4 -12 1 -19z m-387 -19 c-7 -11 -14 -19 -16 -16 -7 7 7 37 17 37 6
0 5 -9 -1 -21z m51 -6 c-12 -20 -14 -14 -5 12 4 9 9 14 11 11 3 -2 0 -13 -6
-23z m569 -30 c-15 -44 -58 -133 -65 -133 -3 0 2 17 11 38 8 20 25 61 36 90
22 60 37 64 18 5z m51 -35 c-5 -29 -19 -73 -30 -98 -19 -44 -20 -44 -15 -10 9
54 47 185 52 172 2 -6 -1 -35 -7 -64z m-141 34 c0 -5 -7 -17 -16 -28 -8 -10
-14 -14 -11 -9 2 6 7 18 10 28 7 17 17 23 17 9z m-97 -9 c3 -5 7 -71 8 -147 5
-165 7 -163 -108 -110 -85 38 -105 42 -96 17 6 -14 2 -14 -25 3 -41 24 -60 81
-34 100 9 8 23 14 30 14 6 0 12 7 12 15 0 8 10 19 23 26 12 6 29 20 37 30 17
21 69 34 87 22 6 -5 14 -22 17 -38 2 -17 5 -32 6 -35 3 -14 40 45 39 64 0 11
-3 15 -6 9 -7 -19 -23 -15 -23 5 0 28 22 43 33 25z m-258 -49 c-29 -23 -82
-34 -70 -14 3 6 15 10 25 10 11 0 27 11 37 24 12 16 21 21 28 14 7 -6 0 -18
-20 -34z m-75 16 c0 -4 -21 -31 -46 -59 -25 -28 -42 -51 -36 -51 5 0 17 9 27
20 23 25 42 11 26 -18 -20 -38 -13 -73 23 -106 18 -18 37 -42 41 -55 4 -12 29
-52 57 -88 l49 -66 -30 6 c-17 4 -31 3 -31 -2 0 -5 13 -11 29 -14 16 -3 70
-22 120 -42 50 -20 101 -38 113 -40 35 -7 46 -25 15 -25 -14 0 -30 -7 -35 -15
-7 -13 -14 -14 -35 -6 -15 6 -27 16 -27 22 0 6 -7 8 -16 5 -9 -3 -33 6 -57 23
-23 15 -65 42 -93 60 -31 19 -67 54 -92 89 -22 31 -59 77 -82 101 -36 39 -41
49 -38 80 3 25 0 40 -11 48 -14 11 -12 16 15 40 17 16 45 47 63 71 29 37 51
47 51 22z m441 -57 c-8 -15 -10 -15 -11 -2 0 17 10 32 18 25 2 -3 -1 -13 -7
-23z m50 -26 c-10 -9 -11 -8 -5 6 3 10 9 15 12 12 3 -3 0 -11 -7 -18z m-25
-26 c19 16 17 1 -6 -41 l-19 -35 0 45 c0 25 3 39 6 32 4 -10 8 -10 19 -1z m64
-108 c-20 -37 -21 -37 -16 -8 2 17 10 47 18 68 l13 39 3 -30 c2 -18 -6 -47
-18 -69z m-718 -13 c3 -16 1 -30 -4 -30 -4 0 -8 14 -8 30 0 17 2 30 4 30 2 0
6 -13 8 -30z m-22 -71 c0 -60 20 -128 41 -140 22 -11 49 -60 49 -87 0 -43 30
-62 105 -64 39 -1 79 -8 90 -15 29 -20 55 -16 55 7 0 21 10 26 26 11 24 -22
118 -43 165 -37 51 7 123 -7 144 -27 22 -23 26 -47 6 -47 -23 0 -31 -26 -31
-108 0 -47 -3 -63 -12 -60 -9 3 -13 27 -14 66 -1 70 -3 75 -39 75 -17 0 -24 4
-23 15 6 30 -22 24 -28 -7 -6 -26 -11 -31 -35 -31 -16 0 -29 -4 -29 -10 0 -5
-5 -10 -10 -10 -6 0 -10 15 -8 33 4 47 -15 49 -26 2 -9 -42 -20 -55 -48 -55
-13 0 -18 8 -18 26 0 22 -4 25 -21 21 -17 -5 -20 -2 -16 14 3 10 2 21 -3 24
-9 6 -20 -29 -20 -68 0 -26 -2 -28 -37 -25 -40 3 -38 0 -42 71 -2 38 -21 4
-21 -39 0 -24 -4 -44 -9 -44 -5 0 -12 -8 -14 -17 -3 -10 -5 1 -6 24 0 23 4 54
11 68 10 22 8 28 -10 45 -29 28 -32 26 -32 -21 0 -26 4 -38 11 -34 7 5 8 -8 3
-41 -8 -59 -12 -64 -28 -41 -15 19 -66 23 -66 5 0 -9 -3 -9 -11 -1 -8 8 -8 20
-2 40 11 33 2 90 -10 60 -4 -10 -7 -27 -7 -38 0 -10 -7 -19 -15 -19 -13 0 -15
24 -16 153 -2 187 -3 202 -13 301 -6 58 -6 77 3 72 6 -4 11 -25 11 -47z m560
21 c0 -5 -2 -10 -4 -10 -3 0 -8 5 -11 10 -3 6 -1 10 4 10 6 0 11 -4 11 -10z
m-500 -25 c0 -28 -17 -34 -27 -9 -3 9 0 20 8 25 19 12 19 12 19 -16z m717 -7
c-3 -8 -6 -5 -6 6 -1 11 2 17 5 13 3 -3 4 -12 1 -19z m-7 -48 c-8 -5 -17 -7
-19 -4 -3 3 1 9 9 14 8 5 17 7 19 4 3 -3 -1 -9 -9 -14z m-274 -46 c41 -15 74
-30 74 -35 0 -5 -21 -6 -47 -4 -27 2 -56 4 -65 5 -11 0 -18 8 -18 20 0 10 -8
24 -17 29 -30 18 -4 12 73 -15z m311 4 c-3 -8 -6 -5 -6 6 -1 11 2 17 5 13 3
-3 4 -12 1 -19z m0 -80 c-3 -8 -6 -5 -6 6 -1 11 2 17 5 13 3 -3 4 -12 1 -19z
m-667 -26 c0 -13 -3 -12 -15 4 -19 25 -19 40 0 24 8 -7 15 -20 15 -28z m393
21 c-7 -2 -19 -2 -25 0 -7 3 -2 5 12 5 14 0 19 -2 13 -5z m87 -23 c0 -5 -2
-10 -4 -10 -3 0 -8 5 -11 10 -3 6 -1 10 4 10 6 0 11 -4 11 -10z m283 -25 c-9
-19 -18 -33 -21 -31 -4 5 26 66 33 66 3 0 -3 -16 -12 -35z m-50 -7 c-3 -18
-12 -44 -19 -58 -12 -23 -13 -24 -14 -4 0 22 26 94 35 94 2 0 2 -15 -2 -32z
m-645 10 c15 -15 16 -41 0 -36 -6 2 -18 14 -26 26 -12 19 -12 22 0 22 8 0 19
-5 26 -12z m102 -48 c0 -18 -3 -19 -20 -8 -11 7 -20 21 -20 31 0 15 3 16 20 7
11 -6 20 -20 20 -30z m477 -22 c-3 -8 -6 -5 -6 6 -1 11 2 17 5 13 3 -3 4 -12
1 -19z m114 -92 c-39 -62 -54 -65 -30 -5 12 30 27 67 33 83 l11 29 3 -37 c2
-24 -4 -48 -17 -70z m-155 49 c3 -14 3 -32 0 -41 -4 -9 -1 -23 5 -31 9 -10 9
-17 2 -24 -15 -15 -21 -1 -29 65 -5 38 -3 56 4 56 7 0 14 -11 18 -25z m99 -31
c-4 -31 -10 -43 -17 -36 -6 6 -6 24 2 52 15 54 24 45 15 -16z m-168 -151 c-2
-21 -4 -6 -4 32 0 39 2 55 4 38 2 -18 2 -50 0 -70z m219 53 c-4 -19 -12 -38
-19 -42 -7 -4 -9 -4 -5 1 4 4 3 15 -2 25 -6 12 -4 23 8 38 22 27 26 21 18 -22z
m-305 10 c6 4 9 -14 7 -48 -2 -39 -7 -53 -18 -53 -12 0 -16 15 -18 65 -1 49 1
61 9 47 5 -9 15 -15 20 -11z m134 -26 c8 -16 15 -43 15 -60 0 -28 -2 -30 -20
-20 -16 8 -20 21 -20 60 0 28 2 50 5 50 2 0 11 -13 20 -30z m-201 -32 c-4 -24
-8 -44 -9 -46 -1 -1 -16 1 -34 4 -29 6 -32 10 -29 37 2 23 9 33 28 38 48 13
51 12 44 -33z m-110 -5 c-4 -16 -8 -29 -10 -31 -1 -2 -43 0 -94 4 -60 4 -90
10 -87 18 2 6 15 12 28 13 13 2 47 7 74 11 91 17 96 16 89 -15z m-271 -33 c10
-9 -2 -60 -13 -60 -5 0 -6 10 -4 23 l5 22 -11 -23 c-8 -19 -13 -21 -29 -13
-10 6 -21 8 -24 5 -2 -3 -6 10 -9 28 -3 33 -3 33 37 30 22 -2 44 -7 48 -12z
m631 4 c3 -8 2 -12 -4 -9 -6 3 -10 10 -10 16 0 14 7 11 14 -7z m134 -19 c-3
-3 -9 2 -12 12 -6 14 -5 15 5 6 7 -7 10 -15 7 -18z m-555 -1 c47 -5 57 -9 57
-25 0 -14 -7 -19 -25 -19 -17 0 -25 -6 -25 -17 0 -14 -2 -14 -21 3 -21 19 -76
21 -93 4 -15 -15 -36 -12 -36 5 0 8 -4 15 -10 15 -5 0 -10 -5 -10 -11 0 -5 -4
-8 -9 -5 -10 7 -20 53 -13 61 5 5 67 1 185 -11z m167 -16 c0 -29 -13 -58 -26
-58 -8 0 -11 6 -7 15 7 21 -20 15 -29 -5 -4 -9 -7 1 -7 23 -1 36 0 37 34 37
21 0 35 -5 35 -12z m78 -10 c-5 -34 -38 -37 -38 -4 0 20 5 26 21 26 15 0 20
-5 17 -22z m52 -3 c0 -26 -14 -33 -25 -15 -9 14 1 40 15 40 5 0 10 -11 10 -25z
m39 -2 c0 -25 -1 -25 -8 -8 -5 11 -7 23 -4 28 8 14 13 7 12 -20z m121 -14 c0
-5 -9 -9 -20 -9 -19 0 -27 20 -13 33 7 8 33 -11 33 -24z m-77 6 c-5 -17 -20
-17 -27 0 -4 12 -1 16 12 13 9 -2 16 -8 15 -13z m-133 -67 l0 -41 -25 23 c-24
22 -25 33 -4 36 22 3 23 6 4 14 -19 8 -19 9 3 9 19 1 22 -4 22 -41z m50 8 c0
-18 -3 -49 -7 -67 -7 -34 -8 -33 -14 16 -3 28 -4 58 -1 68 8 29 22 19 22 -17z
m40 -6 c0 -22 -4 -40 -10 -40 -5 0 -10 18 -10 40 0 22 5 40 10 40 6 0 10 -18
10 -40z m48 -8 c3 -33 0 -42 -12 -42 -12 0 -16 11 -16 46 0 59 23 55 28 -4z
m99 17 c7 -17 10 -36 7 -42 -5 -15 -74 -21 -74 -7 0 6 6 10 14 10 11 0 13 9 9
35 -5 30 -3 35 13 35 13 0 24 -11 31 -31z m-489 12 c50 -1 52 -2 52 -30 0 -25
-3 -28 -27 -23 -16 3 -33 12 -40 21 -11 14 -12 14 -13 -3 0 -12 -5 -16 -16
-12 -9 3 -27 6 -40 6 -15 0 -24 6 -24 15 0 8 -4 15 -10 15 -5 0 -10 -7 -10
-15 0 -8 -4 -15 -10 -15 -5 0 -10 5 -10 11 0 6 -9 8 -20 4 -15 -5 -20 -2 -20
13 0 17 7 19 68 17 37 -1 91 -3 120 -4z m532 -1 c0 -5 -2 -10 -4 -10 -3 0 -8
5 -11 10 -3 6 -1 10 4 10 6 0 11 -4 11 -10z m-453 -37 c-3 -10 -5 -4 -5 12 0
17 2 24 5 18 2 -7 2 -21 0 -30z m83 5 c0 -15 -4 -28 -10 -28 -5 0 -10 5 -10
11 0 6 -9 9 -20 6 -15 -4 -20 0 -20 13 0 17 15 25 48 26 7 1 12 -11 12 -28z
m27 -15 c-3 -10 -5 -4 -5 12 0 17 2 24 5 18 2 -7 2 -21 0 -30z m-219 -28 c3
-3 1 -10 -6 -17 -8 -8 -15 -8 -28 3 -13 11 -18 11 -21 1 -6 -16 -23 -5 -23 15
0 12 7 14 36 10 20 -3 39 -9 42 -12z m561 -25 c6 -22 17 -39 24 -37 7 1 11 -8
9 -23 -1 -14 -2 -36 -2 -49 0 -19 -4 -22 -23 -17 -12 3 -39 6 -61 6 -33 0 -38
3 -33 20 3 11 1 20 -4 20 -5 0 -9 11 -9 25 0 23 4 25 45 25 38 0 45 3 45 20 0
11 -4 20 -10 20 -5 0 -10 7 -10 15 0 29 17 14 29 -25z m-449 7 c0 -14 -4 -16
-18 -8 -11 6 -24 6 -35 0 -18 -11 -20 -9 -11 15 9 22 64 17 64 -7z m170 3 c0
-13 -7 -20 -20 -20 -25 0 -27 27 -2 33 9 3 18 5 20 6 1 0 2 -8 2 -19z m98 -8
c2 -7 -3 -12 -12 -12 -9 0 -16 7 -16 16 0 17 22 14 28 -4z m42 -2 c0 -5 -7
-10 -15 -10 -8 0 -15 5 -15 10 0 6 7 10 15 10 8 0 15 -4 15 -10z m103 -5 c-4
-15 -66 -12 -71 3 -3 10 6 13 34 10 22 -2 38 -7 37 -13z m-473 -25 c0 -5 -2
-10 -4 -10 -3 0 -8 5 -11 10 -3 6 -1 10 4 10 6 0 11 -4 11 -10z m157 -22 c-3
-7 -5 -2 -5 12 0 14 2 19 5 13 2 -7 2 -19 0 -25z m73 18 c0 -8 -4 -18 -10 -21
-5 -3 -10 3 -10 14 0 12 5 21 10 21 6 0 10 -6 10 -14z m50 -17 c0 -11 -4 -17
-10 -14 -5 3 -10 13 -10 21 0 8 5 14 10 14 6 0 10 -9 10 -21z m89 -34 c0 -32
-4 -53 -10 -50 -5 4 -9 28 -9 56 0 27 4 49 9 49 5 0 10 -25 10 -55z m-342 -7
c-3 -8 -6 -5 -6 6 -1 11 2 17 5 13 3 -3 4 -12 1 -19z m140 -4 c-9 -9 -28 6
-21 18 4 6 10 6 17 -1 6 -6 8 -13 4 -17z m63 6 c0 -5 -4 -10 -10 -10 -5 0 -10
5 -10 10 0 6 5 10 10 10 6 0 10 -4 10 -10z m90 -4 c0 -3 -4 -8 -10 -11 -5 -3
-10 -1 -10 4 0 6 5 11 10 11 6 0 10 -2 10 -4z m-674 -28 c-1 -24 -15 -40 -28
-32 -12 8 -10 21 8 38 20 21 21 20 20 -6z m370 -25 c-7 -7 -26 7 -26 19 0 6 6
6 15 -2 9 -7 13 -15 11 -17z m301 -10 c-3 -10 -5 -4 -5 12 0 17 2 24 5 18 2
-7 2 -21 0 -30z m223 -9 c0 -13 -5 -24 -11 -24 -6 0 -8 7 -5 15 9 24 -23 31
-39 9 -14 -18 -14 -18 -15 3 0 22 21 32 53 25 10 -3 17 -14 17 -28z m-373 -21
c-3 -10 -5 -2 -5 17 0 19 2 27 5 18 2 -10 2 -26 0 -35z m204 -38 c-3 -5 -8 6
-12 25 -3 19 -3 40 0 45 3 6 8 -6 12 -25 3 -19 3 -39 0 -45z m78 7 c1 -13 -3
-20 -9 -17 -5 3 -10 23 -9 43 0 30 2 33 9 17 5 -11 9 -30 9 -43z m-119 7 c0
-24 -23 -21 -28 4 -2 10 3 17 12 17 10 0 16 -9 16 -21z m157 -81 c-2 -18 -4
-4 -4 32 0 36 2 50 4 33 2 -18 2 -48 0 -65z m61 49 c2 -21 -1 -37 -7 -37 -6 0
-11 4 -11 9 0 5 -3 23 -7 41 -5 25 -3 32 8 28 8 -2 15 -21 17 -41z m-348 3 c0
-5 -4 -10 -10 -10 -5 0 -10 5 -10 10 0 6 5 10 10 10 6 0 10 -4 10 -10z m80
-33 c0 -5 -4 -5 -10 -2 -5 3 -10 14 -10 23 0 15 2 15 10 2 5 -8 10 -19 10 -23z
m60 14 c5 -11 10 -27 10 -35 0 -25 -25 -8 -37 24 -9 24 -9 30 3 30 7 0 18 -9
24 -19z m70 -5 c0 -3 -4 -8 -10 -11 -5 -3 -10 -1 -10 4 0 6 5 11 10 11 6 0 10
-2 10 -4z m-239 -62 c9 -11 7 -14 -11 -14 -19 0 -20 -2 -10 -15 17 -20 -2 -20
-43 1 -31 16 -31 17 -9 25 12 5 22 13 22 18 0 13 37 2 51 -15z m59 -29 c0 -3
-9 -5 -20 -5 -11 0 -20 7 -20 15 0 13 4 14 20 5 11 -6 20 -13 20 -15z m72 -38
c4 -7 6 -17 3 -24 -5 -16 17 -33 52 -39 15 -3 35 -12 43 -20 13 -14 6 -15 -70
-8 -47 3 -92 10 -100 15 -11 6 -11 8 -2 9 7 0 10 5 7 11 -4 6 -1 10 6 8 34 -4
49 2 49 21 0 11 -4 20 -8 20 -5 0 -17 7 -28 16 -18 15 -18 15 11 9 16 -4 33
-12 37 -18z m195 -9 c-3 -8 -6 -5 -6 6 -1 11 2 17 5 13 3 -3 4 -12 1 -19z
m-80 -54 c-7 -7 -37 7 -37 17 0 6 9 5 21 -1 11 -7 19 -14 16 -16z m18 -54 c3
-5 1 -10 -4 -10 -6 0 -11 5 -11 10 0 6 2 10 4 10 3 0 8 -4 11 -10z m80 -50
c10 -11 16 -20 14 -21 -43 -9 -69 7 -53 32 8 14 19 11 39 -11z m-216 -98 c19
-9 36 -22 38 -29 2 -6 -19 0 -46 14 -28 13 -51 27 -51 29 0 9 26 2 59 -14z
m144 -309 c-7 -2 -19 -2 -25 0 -7 3 -2 5 12 5 14 0 19 -2 13 -5z"/>
<path d="M3587 2783 c-10 -10 -8 -43 2 -43 9 0 21 24 21 41 0 11 -14 12 -23 2z"/>
<path d="M3490 2740 c0 -5 9 -10 19 -10 11 0 23 5 26 10 4 6 -5 10 -19 10 -14
0 -26 -4 -26 -10z"/>
<path d="M3652 2688 c6 -18 28 -21 28 -4 0 9 -7 16 -16 16 -9 0 -14 -5 -12
-12z"/>
<path d="M3165 2270 c-3 -6 1 -13 10 -16 19 -8 30 0 20 15 -8 14 -22 14 -30 1z"/>
<path d="M3431 2216 c-9 -10 -9 -16 -1 -21 17 -10 62 4 57 18 -5 18 -42 20
-56 3z"/>
<path d="M3230 2194 c0 -8 5 -12 10 -9 6 3 10 10 10 16 0 5 -4 9 -10 9 -5 0
-10 -7 -10 -16z"/>
<path d="M3415 2150 c3 -5 8 -10 11 -10 2 0 4 5 4 10 0 6 -5 10 -11 10 -5 0
-7 -4 -4 -10z"/>
<path d="M950 4318 c-20 -6 -198 -11 -423 -11 -213 -1 -387 -5 -387 -9 0 -4 1
-11 3 -14 1 -3 -9 -12 -24 -19 -23 -12 -25 -18 -22 -67 6 -105 3 -781 -4 -791
-4 -6 -8 -387 -10 -846 -2 -530 -8 -945 -17 -1134 -8 -165 -12 -305 -9 -313 3
-8 0 -21 -6 -28 -9 -11 -8 -29 2 -76 8 -34 19 -66 23 -70 5 -5 87 -11 181 -14
95 -3 248 -13 340 -21 93 -9 207 -15 254 -14 48 1 92 -1 98 -5 6 -4 44 -9 85
-11 l74 -3 5 51 c6 55 19 478 20 632 1 50 -2 194 -6 320 -5 182 -9 622 -6 705
1 8 -1 69 -5 135 -3 66 -8 302 -11 525 -4 223 -8 434 -11 470 -20 266 -19 485
1 562 7 25 4 27 -29 33 -20 4 -39 11 -42 16 -6 11 -28 10 -74 -3z m15 -58 c3
-5 -1 -10 -10 -10 -9 0 -13 5 -10 10 3 6 8 10 10 10 2 0 7 -4 10 -10z m-369
-183 c38 -21 72 -70 64 -91 -6 -19 -7 -19 -12 2 -7 26 -24 29 -36 5 -12 -23 7
-542 24 -649 3 -25 0 -33 -21 -44 -13 -7 -38 -13 -55 -12 -16 0 -30 -4 -30
-10 0 -7 -12 -8 -32 -3 -28 6 -53 10 -91 14 -4 1 -15 17 -23 36 -11 27 -14 83
-14 248 1 282 8 368 30 374 10 3 23 16 29 29 16 36 13 44 -5 12 -8 -16 -20
-28 -26 -28 -9 0 -9 3 0 12 7 7 12 24 12 39 0 29 23 55 40 44 5 -3 10 -1 10 4
0 6 15 11 33 11 17 0 39 5 47 10 19 13 30 12 56 -3z m91 -147 c-4 -16 -2 -30
3 -30 5 0 11 -8 14 -17 15 -53 68 -972 57 -985 -3 -4 -13 -3 -20 2 -11 6 -15
37 -17 127 -1 65 -7 190 -13 278 -7 88 -12 187 -13 220 -1 33 -5 67 -9 77 -11
21 -22 290 -14 328 9 39 19 39 12 0z m-500 -172 c-3 -7 -5 -2 -5 12 0 14 2 19
5 13 2 -7 2 -19 0 -25z m15 -78 c3 -17 1 -33 -4 -36 -4 -3 -8 11 -8 30 0 44 6
47 12 6z m372 -450 c23 -8 26 -15 26 -58 0 -26 5 -53 11 -59 6 -6 12 -26 14
-44 25 -244 25 -241 22 -729 -1 -205 17 -632 28 -650 2 -3 6 -60 9 -125 5
-107 4 -117 -9 -97 -13 18 -29 99 -49 247 -8 61 -21 622 -20 878 0 190 -2 227
-14 227 -8 0 -12 -6 -8 -15 3 -8 -1 -21 -9 -29 -8 -8 -15 -20 -15 -26 0 -6 -4
-9 -8 -6 -4 2 -7 -104 -6 -237 1 -133 0 -214 -3 -179 -2 38 -8 62 -15 62 -9 0
-9 3 -1 11 8 8 8 20 3 35 -5 13 -7 81 -5 151 3 71 5 147 5 171 0 26 4 41 10
37 6 -3 10 1 10 10 0 8 7 18 15 21 11 5 15 21 14 63 -1 31 -3 47 -6 36 -10
-45 -13 -51 -23 -35 -7 11 -11 3 -16 -27 -3 -23 -13 -44 -20 -47 -12 -5 -12
-9 -2 -27 8 -13 9 -23 3 -25 -6 -2 -8 -28 -7 -60 4 -59 -4 -124 -16 -124 -4 0
-5 57 -2 127 4 95 8 127 18 125 8 -1 12 11 12 38 0 34 -3 40 -21 40 -17 0 -20
5 -17 25 3 14 1 28 -3 31 -5 3 -10 -3 -11 -13 -5 -64 -4 -73 8 -73 8 0 14 6
15 13 0 6 4 3 9 -8 13 -30 12 -34 -11 -28 l-21 6 5 -454 c10 -884 11 -929 36
-969 11 -19 21 -43 21 -52 0 -9 6 -23 13 -30 17 -17 40 -84 34 -101 -4 -14
-61 93 -71 137 -4 15 -15 40 -26 55 -22 30 -26 71 -40 366 -5 110 -12 237 -15
282 -3 45 -1 84 4 87 5 3 7 50 5 103 -2 81 -4 448 -2 503 1 55 -13 404 -17
408 -3 3 -5 11 -5 19 0 10 16 13 60 12 34 -1 64 1 67 5 8 8 7 8 37 -4z m-65
-725 c1 -16 -1 -17 -9 -5 -5 8 -9 29 -9 45 1 29 1 29 9 5 4 -14 8 -34 9 -45z
m75 -40 c-4 -8 -8 -15 -10 -15 -2 0 -4 7 -4 15 0 8 4 15 10 15 5 0 7 -7 4 -15z
m-87 -27 c-3 -8 -6 -5 -6 6 -1 11 2 17 5 13 3 -3 4 -12 1 -19z m91 -70 c1 -35
5 -108 8 -163 6 -91 6 -98 -9 -83 -13 13 -16 40 -14 166 2 148 12 202 15 80z
m-68 -67 c0 -10 -22 -31 -32 -31 -9 0 -11 34 -2 43 7 7 34 -2 34 -12z m22
-153 c2 -27 0 -48 -4 -48 -5 0 -7 28 -7 63 1 67 6 60 11 -15z m-24 -63 l-1
-70 -7 55 c-5 30 -8 73 -8 95 0 34 1 36 8 15 4 -14 8 -56 8 -95z m145 -748
l-18 -52 -3 40 c-2 22 1 41 7 43 6 2 14 20 18 40 7 35 8 35 11 9 2 -15 -5 -51
-15 -80z m-31 -157 l-4 -41 -14 26 c-10 20 -11 30 -2 45 17 27 24 17 20 -30z"/>
<path d="M1900 4309 c-63 -4 -235 -7 -381 -6 -242 2 -269 0 -286 -16 -25 -22
-27 -64 -9 -252 8 -82 18 -190 21 -240 3 -49 8 -126 11 -170 3 -44 7 -255 9
-469 2 -214 8 -419 14 -455 28 -186 33 -236 27 -289 -3 -31 -6 -275 -5 -542 0
-267 -1 -555 -3 -640 -6 -278 -4 -338 10 -352 9 -9 35 -12 79 -10 45 1 70 -2
76 -10 7 -10 10 -10 14 0 3 7 25 12 57 12 29 0 56 3 60 7 11 11 90 3 98 -10 6
-9 11 -8 17 3 8 12 22 12 93 2 46 -7 109 -12 140 -12 36 0 58 -5 61 -12 3 -9
9 -7 19 6 15 18 19 19 169 3 85 -9 183 -16 219 -16 36 0 126 -4 200 -10 74 -6
146 -10 160 -9 14 0 37 1 53 1 18 0 27 5 27 16 0 9 2 75 5 146 3 72 8 182 10
245 5 142 13 317 22 475 18 337 28 1407 13 1435 -11 20 -16 565 -9 947 l4 213
-230 -5 c-126 -2 -294 -7 -372 -10 -121 -5 -142 -4 -137 8 10 27 -49 30 -256
16z m-47 -89 c16 -6 38 -5 51 0 14 5 162 6 343 3 410 -8 390 -8 446 2 44 7 47
6 47 -13 0 -11 5 -24 10 -27 6 -3 10 5 10 18 0 23 20 36 55 37 7 0 10 -236 9
-692 0 -381 3 -736 7 -788 4 -52 8 -138 8 -190 1 -143 -18 -642 -28 -750 -6
-52 -13 -230 -17 -395 -6 -228 -10 -288 -17 -250 -11 61 -14 800 -4 945 5 65
4 100 -2 91 -5 -8 -10 -54 -10 -104 -1 -49 -3 -92 -5 -96 -3 -4 -6 -48 -7 -99
-2 -51 -6 -95 -11 -98 -13 -8 -9 -54 5 -54 8 0 7 -4 -3 -10 -12 -8 -12 -10 -1
-10 11 0 11 -3 0 -16 -10 -12 -14 -78 -16 -272 -4 -323 -4 -330 -14 -262 -4
30 -13 89 -19 130 -7 44 -10 163 -8 291 3 175 1 216 -10 211 -10 -3 -12 7 -11
42 2 25 0 48 -3 51 -8 8 -19 -131 -11 -151 4 -12 3 -15 -5 -10 -9 5 -12 -49
-12 -218 0 -132 -4 -226 -9 -226 -11 0 -7 418 5 469 5 23 4 32 -3 28 -9 -6
-19 -68 -29 -177 -2 -19 -6 -141 -10 -270 -4 -130 -11 -226 -15 -215 -4 11 -6
83 -4 160 3 77 6 221 9 320 4 184 2 175 -20 -74 -4 -43 -9 -59 -15 -50 -5 9
-9 -44 -10 -136 -1 -82 -5 -181 -9 -220 l-7 -70 -1 64 c-2 71 -18 74 -25 6 -2
-22 -4 -4 -4 40 -1 44 3 103 7 130 8 46 8 44 7 -27 -2 -43 1 -78 5 -78 11 0
10 342 0 358 -9 13 -31 -140 -33 -220 0 -24 -5 -52 -10 -63 -5 -13 -7 38 -4
140 4 170 0 187 -10 43 -4 -49 -11 -88 -16 -88 -8 0 -5 123 6 230 3 25 1 51
-4 58 -13 22 -29 -105 -23 -190 2 -45 1 -78 -5 -78 -5 0 -10 12 -10 28 -4 60
-29 186 -35 176 -13 -20 -22 -252 -11 -266 6 -7 11 -35 10 -63 0 -48 -1 -46
-15 30 l-16 80 -6 -45 c-3 -25 -11 -54 -17 -65 -10 -17 -11 -12 -8 30 11 129
12 176 5 250 l-7 80 -1 -114 c-1 -63 -11 -185 -22 -271 -12 -89 -19 -193 -17
-239 2 -56 0 -77 -6 -65 -9 16 5 474 19 619 4 43 3 47 -7 25 -6 -14 -15 -90
-19 -170 -4 -80 -12 -183 -16 -230 l-9 -85 -5 125 c-6 124 -6 124 -9 -65 -3
-159 -12 -267 -21 -245 -6 17 -6 67 0 150 5 52 5 122 0 155 -4 33 -8 51 -9 40
-1 -16 -3 -17 -11 -5 -5 8 -7 35 -4 60 l4 45 -15 -45 c-16 -49 -21 -142 -5
-105 8 18 9 18 8 -5 0 -14 -3 -36 -7 -50 -7 -23 -8 -21 -14 15 -10 59 -11 185
-4 305 4 71 3 89 -3 55 -4 -27 -12 -117 -17 -200 -4 -82 -9 -133 -11 -112 -2
20 -7 37 -12 37 -5 0 -11 24 -13 53 -2 36 -4 26 -5 -34 -2 -67 -5 -88 -17 -93
-13 -5 -15 11 -15 101 0 106 16 230 32 247 4 6 8 27 8 48 0 27 7 46 23 61 12
13 39 56 59 97 50 99 59 109 99 111 19 1 79 15 134 32 83 24 107 36 143 70 23
23 42 50 42 62 0 11 11 37 25 57 14 20 25 39 25 42 0 2 14 27 31 55 18 28 29
57 26 66 -8 19 -44 19 -88 1 -19 -8 -58 -17 -86 -21 -47 -6 -53 -5 -53 11 0
16 -2 16 -22 -2 -13 -11 -41 -32 -63 -47 -78 -51 -165 -167 -165 -218 0 -9
-18 -29 -41 -44 -22 -16 -47 -41 -55 -57 -20 -39 -28 -35 -19 10 8 39 11 77
18 260 4 75 10 120 20 135 19 29 38 118 30 145 -3 13 3 31 16 48 13 17 21 42
22 68 0 36 1 38 10 18 23 -58 111 -122 167 -122 15 0 32 -4 37 -9 20 -18 82
-22 95 -6 10 12 3 23 -44 66 -46 41 -58 61 -72 107 -23 81 -47 124 -82 147
-30 19 -43 45 -22 45 25 0 92 56 106 89 25 58 33 117 18 127 -17 12 14 134 34
134 7 0 19 15 27 34 8 19 23 41 33 48 35 25 36 39 6 63 -25 20 -27 26 -16 42
46 67 50 213 7 213 -7 0 -18 6 -24 14 -6 8 -32 17 -56 20 -30 5 -46 13 -50 25
-4 12 -24 22 -63 30 -31 7 -75 20 -97 29 -22 10 -44 16 -48 14 -5 -1 -15 2
-22 8 -10 8 -23 7 -51 -5 -32 -13 -39 -13 -53 -1 -9 7 -29 20 -45 29 -29 14
-32 13 -80 -21 -28 -19 -77 -46 -111 -59 -33 -13 -68 -28 -77 -33 -10 -6 -24
-10 -31 -10 -8 0 -35 -18 -61 -41 -37 -33 -46 -47 -46 -74 0 -19 4 -36 9 -39
11 -7 -6 -100 -19 -104 -6 -2 -10 -22 -10 -44 0 -29 -8 -51 -26 -75 -36 -48
-29 -96 25 -168 23 -30 41 -58 41 -62 0 -17 156 -153 188 -164 l34 -11 -34
-20 c-52 -31 -78 -59 -104 -110 -26 -51 -32 -134 -13 -170 11 -20 11 -20 37 4
15 14 66 55 113 91 99 75 99 75 99 -37 0 -61 17 -136 34 -148 5 -3 9 -35 9
-70 0 -34 4 -108 9 -163 8 -85 6 -115 -11 -204 -11 -57 -22 -106 -25 -108 -2
-3 -7 22 -10 54 -4 32 -11 81 -15 108 -5 28 -7 89 -4 137 5 76 3 94 -17 140
-32 78 -89 125 -160 134 -54 6 -130 44 -130 64 0 6 -13 10 -30 10 -23 0 -30
-4 -30 -20 0 -11 4 -20 9 -20 5 0 32 -31 59 -70 l49 -70 12 -129 c11 -122 31
-201 50 -201 4 0 13 -11 19 -25 12 -26 53 -48 85 -47 15 1 17 -14 19 -156 0
-86 0 -165 0 -175 -1 -10 5 -31 13 -46 32 -62 45 -118 43 -186 -1 -61 -2 -64
-7 -25 -4 28 -8 -8 -11 -100 -4 -126 -7 -141 -18 -116 -6 15 -9 25 -5 23 12
-8 10 277 -2 285 -6 5 -5 8 3 8 6 0 12 10 12 23 0 20 -2 19 -16 -8 -14 -25
-17 -69 -18 -257 -1 -125 -5 -231 -9 -234 -4 -4 -8 105 -9 242 -1 166 -4 224
-8 174 -5 -54 -6 -39 -4 55 2 72 6 159 9 195 3 42 2 56 -3 40 -5 -14 -14 -93
-21 -175 -7 -83 -14 -161 -16 -175 -4 -30 5 313 10 390 3 38 2 49 -5 35 -5
-11 -9 -44 -9 -72 -1 -29 -5 -53 -11 -53 -5 0 -10 21 -10 47 0 25 -3 44 -6 40
-3 -3 -6 -131 -6 -284 0 -162 -4 -261 -8 -238 -5 22 -8 119 -9 215 -1 217 -2
237 -12 180 -4 -26 -6 51 -5 180 4 261 -8 255 -20 -11 -6 -121 -10 -167 -14
-134 -5 45 -6 41 -13 -45 -4 -52 -9 -113 -10 -135 -2 -22 -4 51 -5 163 -3 277
-24 269 -39 -16 -3 -67 -9 -125 -13 -127 -4 -2 -5 51 -3 118 2 81 0 115 -6
102 -7 -14 -10 25 -10 120 -1 123 5 189 24 300 6 32 -10 24 -18 -10 -3 -12 -5
-7 -6 14 -2 65 -11 24 -26 -119 -8 -79 -17 -145 -19 -148 -6 -6 3 200 15 341
6 66 8 121 5 124 -21 21 -37 -323 -30 -660 4 -166 4 -300 1 -297 -4 4 -9 125
-21 495 0 17 3 111 7 210 6 131 5 177 -3 169 -8 -8 -12 -162 -13 -512 -1 -275
-5 -492 -9 -482 -4 10 -12 83 -19 162 -11 133 -9 232 7 375 4 34 3 55 -2 50
-5 -5 -14 -63 -20 -130 l-11 -122 -2 158 c-1 138 13 292 35 387 4 17 2 22 -5
15 -5 -5 -14 -39 -20 -75 -9 -56 -9 -45 -7 80 3 109 2 126 -4 70 -4 -41 -8
-122 -9 -179 0 -57 -3 -102 -5 -100 -7 8 -14 238 -6 241 4 2 10 64 14 138 4
74 5 132 2 129 -18 -18 -37 -264 -36 -464 3 -488 -2 -879 -10 -851 -10 32 -13
408 -6 756 3 129 6 287 7 350 3 144 -7 400 -26 635 -7 99 -13 212 -12 250 0
39 -2 135 -6 215 -17 326 -29 624 -32 771 l-3 157 56 2 c32 1 120 4 197 6 77
3 145 6 150 8 15 6 116 -4 148 -14z m142 -610 c0 -8 -9 -16 -20 -19 -25 -4
-78 -50 -126 -107 -27 -32 -35 -50 -32 -68 4 -21 2 -24 -16 -19 -23 6 -27 -7
-10 -39 6 -11 8 -22 6 -25 -3 -3 -12 8 -20 24 -22 42 -1 99 59 160 27 27 60
64 74 82 20 25 31 31 55 29 19 -2 30 -9 30 -18z m158 4 c9 -3 30 -30 48 -60
18 -30 37 -54 41 -54 37 0 67 -101 33 -114 -17 -6 -21 19 -5 29 20 12 10 27
-14 21 -40 -10 -56 2 -56 43 0 54 -49 97 -107 96 l-42 -1 32 22 c34 24 46 28
70 18z m184 -84 c15 -22 37 -43 48 -46 27 -7 65 -64 65 -96 0 -14 -7 -31 -15
-38 -12 -10 -15 -9 -15 6 -1 18 -1 18 -14 1 -14 -18 -14 -18 -21 2 -3 11 -1
30 5 41 13 25 8 35 -15 26 -9 -3 -15 -14 -14 -23 4 -24 -10 -63 -22 -63 -13 0
-11 14 4 29 6 8 7 11 2 8 -7 -3 -11 14 -11 48 0 46 -4 59 -28 84 -17 18 -26
36 -23 45 10 25 24 19 54 -24z m-183 -23 c15 -21 17 -31 9 -49 -10 -22 -10
-22 -17 9 -4 17 -14 37 -22 44 -8 6 -14 16 -14 21 0 16 23 3 44 -25z m-150 8
c-4 -8 -10 -15 -15 -15 -4 0 -6 7 -3 15 4 8 10 15 15 15 4 0 6 -7 3 -15z m-34
-8 c0 -23 -26 -51 -40 -42 -10 6 -9 10 4 17 9 5 16 16 16 23 0 8 5 15 10 15 6
0 10 -6 10 -13z m-246 -46 c-12 -31 -13 -47 -5 -79 14 -50 79 -124 139 -159
122 -69 154 -94 120 -93 -34 2 -241 141 -271 182 -40 56 -36 117 11 171 22 25
24 21 6 -22z m367 29 c11 0 12 -30 1 -48 -10 -15 -50 -24 -57 -12 -3 4 6 11
20 14 30 8 34 36 4 36 -12 0 -17 4 -14 11 4 6 14 8 22 5 8 -3 19 -6 24 -6z
m-211 -77 c0 -10 9 -38 20 -62 11 -24 18 -46 16 -49 -3 -2 -11 12 -19 31 -8
19 -20 38 -26 41 -14 9 -15 56 -1 56 6 0 10 -8 10 -17z m100 -25 l25 -5 -25
-10 c-28 -12 -50 -1 -50 24 0 11 3 13 13 5 6 -5 23 -12 37 -14z m228 -14 c40
-11 23 -21 -48 -27 -46 -4 -83 -13 -104 -26 -38 -24 -66 -27 -66 -8 0 23 23
37 60 38 19 0 55 6 80 13 25 8 47 14 50 15 3 0 15 -2 28 -5z m-58 -63 c0 -5
-20 -22 -44 -37 -25 -16 -42 -32 -39 -37 3 -5 15 0 27 11 11 11 38 26 59 33
20 7 37 19 37 27 0 7 6 12 13 9 14 -5 12 -55 -4 -104 -8 -24 -16 -33 -33 -33
-19 0 -22 4 -18 30 5 36 3 37 -44 5 -22 -15 -41 -22 -48 -17 -6 5 -33 15 -59
22 -45 12 -62 38 -21 33 33 -4 104 21 109 39 7 22 65 39 65 19z m210 -11 c0
-4 -7 -13 -15 -20 -10 -9 -15 -9 -15 -1 0 20 -14 11 -37 -22 -13 -17 -23 -26
-23 -19 0 7 11 28 25 47 18 23 31 31 45 28 11 -3 20 -9 20 -13z m-740 -34 c0
-3 -4 -8 -10 -11 -5 -3 -10 -1 -10 4 0 6 5 11 10 11 6 0 10 -2 10 -4z m77 -39
c25 -20 33 -77 10 -77 -9 0 -12 11 -9 35 4 30 2 34 -13 29 -12 -5 -16 -15 -13
-35 3 -15 1 -26 -4 -23 -4 3 -8 -7 -9 -23 -1 -21 -4 -17 -10 17 -10 45 7 143
19 110 3 -8 16 -23 29 -33z m748 28 c0 -5 -10 -11 -23 -13 -12 -2 -36 -21 -54
-43 -17 -21 -36 -39 -41 -39 -5 0 -27 -14 -48 -31 -41 -33 -111 -50 -123 -30
-4 6 -20 11 -37 11 -16 0 -29 4 -29 9 0 12 63 21 75 10 5 -5 15 -9 23 -9 16 0
80 49 134 102 20 20 47 38 60 41 34 7 63 3 63 -8z m-345 -80 c0 -8 -4 -15 -10
-15 -5 0 -10 7 -10 15 0 8 5 15 10 15 6 0 10 -7 10 -15z m-267 -17 c18 -12 40
-30 50 -40 10 -10 29 -18 42 -18 30 0 30 0 4 -45 -17 -28 -20 -47 -17 -87 5
-44 11 -55 43 -83 31 -26 37 -36 33 -58 -3 -15 -1 -30 3 -33 15 -9 10 -21 -9
-26 -10 -3 -38 5 -62 18 -25 13 -52 26 -60 30 -25 12 -58 55 -63 83 -3 14 5
74 17 134 18 85 20 107 9 107 -7 0 -13 -11 -14 -27 0 -25 -1 -26 -9 -8 -10 23
-13 75 -4 75 3 0 20 -10 37 -22z m-128 -45 c-3 -16 -11 -32 -16 -37 -5 -6 -4
5 1 25 6 18 10 35 10 36 0 2 3 3 6 3 3 0 3 -12 -1 -27z m15 -30 c-11 -17 -11
-17 -6 0 3 10 6 24 7 30 0 9 2 9 5 0 3 -7 0 -20 -6 -30z m-50 -18 c0 -5 -5 -3
-10 5 -5 8 -10 20 -10 25 0 6 5 3 10 -5 5 -8 10 -19 10 -25z m127 -17 c-3 -8
-6 -5 -6 6 -1 11 2 17 5 13 3 -3 4 -12 1 -19z m463 12 c0 -5 -5 -10 -12 -10
-16 0 -88 -80 -88 -98 0 -7 4 -11 9 -8 5 4 11 0 14 -6 3 -10 7 -10 20 1 27 21
20 2 -14 -41 -17 -21 -28 -42 -24 -46 3 -4 15 5 26 20 39 54 57 73 63 67 4 -3
-3 -18 -15 -33 -21 -27 -43 -96 -30 -96 4 0 12 5 19 12 13 13 16 -1 4 -17 -30
-41 -109 -72 -141 -55 -9 5 -24 11 -33 14 -11 3 -15 12 -11 24 3 12 -12 56
-36 105 -45 93 -53 150 -23 162 14 5 15 4 5 -6 -22 -22 -15 -28 24 -22 24 4
34 3 29 -5 -9 -15 15 -21 38 -10 13 7 21 6 26 -1 4 -8 16 -5 35 11 16 12 40
24 54 26 14 2 32 7 40 12 20 12 21 12 21 0z m-535 -54 c-4 -20 -11 -34 -15
-31 -5 3 -3 21 3 40 13 44 20 39 12 -9z m-95 13 c0 -6 -4 -7 -10 -4 -5 3 -10
11 -10 16 0 6 5 7 10 4 6 -3 10 -11 10 -16z m49 -67 c1 -14 -3 -21 -9 -17 -6
4 -8 15 -5 25 4 13 1 17 -11 16 -9 0 -18 4 -19 9 -1 6 0 7 3 3 8 -16 22 -7 23
15 1 21 1 21 9 -3 4 -14 8 -35 9 -48z m641 -12 c-6 -12 -14 -19 -17 -17 -2 3
1 15 7 27 6 12 14 19 17 17 2 -3 -1 -15 -7 -27z m-569 -66 c13 -16 12 -16 -7
-6 -22 12 -39 66 -27 86 4 6 10 -5 14 -26 3 -20 12 -45 20 -54z m537 11 c-6
-14 -15 -25 -20 -25 -9 0 -4 14 15 38 15 19 18 14 5 -13z m5 -207 c13 -18 36
-69 50 -113 l26 -80 -40 44 c-38 42 -50 71 -29 71 18 0 11 28 -14 54 -28 31
-33 32 -39 9 -3 -10 -5 -3 -6 15 -1 22 4 32 13 32 8 0 26 -15 39 -32z m-463
14 c0 -4 -16 -14 -35 -21 -20 -7 -34 -18 -33 -24 1 -7 -12 -34 -30 -62 -27
-42 -32 -46 -32 -26 0 38 36 104 67 123 30 17 63 23 63 10z m217 -44 c-11 -5
-25 -24 -33 -42 l-13 -31 -1 27 c0 26 46 75 59 62 3 -3 -2 -10 -12 -16z m25
-173 c-23 -58 -42 -83 -42 -54 0 17 51 119 59 119 5 0 -3 -29 -17 -65z m-52
19 c0 -8 -5 -12 -10 -9 -6 4 -8 11 -5 16 9 14 15 11 15 -7z m107 -126 c-3 -7
-5 -2 -5 12 0 14 2 19 5 13 2 -7 2 -19 0 -25z m-90 -85 c-2 -21 -4 -6 -4 32 0
39 2 55 4 38 2 -18 2 -50 0 -70z m-302 -69 c8 -39 23 -95 35 -124 23 -59 22
-91 -2 -45 -29 57 -51 130 -53 180 -1 28 -5 64 -9 80 -6 28 -6 29 5 5 6 -14
17 -57 24 -96z m295 -29 c0 -25 -4 -45 -10 -45 -11 0 -13 33 -4 68 10 34 14
27 14 -23z m580 5 c0 -5 -4 -10 -8 -10 -5 0 -16 -18 -26 -40 -10 -22 -23 -40
-31 -40 -7 0 -18 -14 -25 -30 -12 -28 -66 -77 -75 -68 -2 2 7 26 20 53 16 32
38 56 62 69 47 27 57 51 17 44 -16 -3 -37 -9 -46 -13 -13 -5 -18 -3 -18 7 0
10 19 18 58 25 31 6 60 11 65 12 4 0 7 -3 7 -9z m-184 -82 c-11 -15 -16 -18
-16 -7 0 16 21 42 28 34 2 -2 -3 -14 -12 -27z m4 -83 c-7 -9 -15 -13 -19 -10
-3 3 1 10 9 15 21 14 24 12 10 -5z m-385 -85 c-4 -12 -9 -19 -12 -17 -3 3 -2
15 2 27 4 12 9 19 12 17 3 -3 2 -15 -2 -27z m-162 -43 c4 -31 3 -46 -3 -42 -6
3 -10 27 -10 52 0 57 5 53 13 -10z m-326 6 c-3 -10 -5 -4 -5 12 0 17 2 24 5
18 2 -7 2 -21 0 -30z m440 -55 c-3 -7 -5 -2 -5 12 0 14 2 19 5 13 2 -7 2 -19
0 -25z m-434 -588 c6 -51 6 -52 -3 -11 -19 89 -31 335 -23 466 8 129 8 129 14
-135 3 -146 9 -290 12 -320z m417 495 c-6 -30 -8 -33 -9 -13 -1 25 8 62 14 56
2 -2 -1 -21 -5 -43z m-93 -67 c-3 -8 -6 -5 -6 6 -1 11 2 17 5 13 3 -3 4 -12 1
-19z m134 -35 c-8 -15 -10 -15 -11 -2 0 17 10 32 18 25 2 -3 -1 -13 -7 -23z
m349 -155 c0 -21 -3 -29 -10 -22 -5 5 -7 19 -4 32 9 31 14 27 14 -10z m-407
-23 c-7 -21 -13 -19 -13 6 0 11 4 18 10 14 5 -3 7 -12 3 -20z m-326 -147 c-3
-7 -5 -2 -5 12 0 14 2 19 5 13 2 -7 2 -19 0 -25z m-210 -15 c-3 -10 -5 -4 -5
12 0 17 2 24 5 18 2 -7 2 -21 0 -30z m192 -157 c2 -136 -6 -99 -11 59 -3 83
-2 118 2 85 5 -30 8 -95 9 -144z m1028 162 c-3 -7 -5 -2 -5 12 0 14 2 19 5 13
2 -7 2 -19 0 -25z m-230 -30 c-3 -7 -5 -2 -5 12 0 14 2 19 5 13 2 -7 2 -19 0
-25z m-869 -138 l-1 -65 -7 60 c-4 33 -8 85 -8 115 l1 55 7 -50 c5 -27 8 -79
8 -115z m139 68 c-2 -18 -4 -6 -4 27 0 33 2 48 4 33 2 -15 2 -42 0 -60z m-40
10 c-2 -13 -4 -3 -4 22 0 25 2 35 4 23 2 -13 2 -33 0 -45z m1018 -63 c-2 -22
-5 -42 -6 -45 -5 -11 -14 116 -10 135 8 32 21 -43 16 -90z m-208 -27 c-2 -18
-4 -4 -4 32 0 36 2 50 4 33 2 -18 2 -48 0 -65z m-658 -5 c0 -70 -2 -83 -10
-63 -6 14 -8 52 -5 85 6 72 5 65 11 65 3 0 5 -39 4 -87z m503 57 c5 0 7 -12 4
-27 -3 -16 -7 -76 -8 -135 -1 -60 -5 -108 -10 -108 -11 0 -13 52 -8 225 1 44
4 72 7 63 2 -10 9 -18 15 -18z m45 -17 c-3 -10 -5 -2 -5 17 0 19 2 27 5 18 2
-10 2 -26 0 -35z m70 -86 c-2 -23 -3 -1 -3 48 0 50 1 68 3 42 2 -26 2 -67 0
-90z m-990 71 c-2 -13 -4 -5 -4 17 -1 22 1 32 4 23 2 -10 2 -28 0 -40z m620
-35 c-3 -10 -5 -2 -5 17 0 19 2 27 5 18 2 -10 2 -26 0 -35z m700 -75 c-2 -18
-4 -4 -4 32 0 36 2 50 4 33 2 -18 2 -48 0 -65z m-842 -55 c-4 -29 -11 -53 -17
-53 -6 0 -8 12 -4 31 3 17 6 59 7 93 1 61 1 61 11 21 5 -22 6 -64 3 -92z
m-396 37 c0 -44 -5 -83 -10 -86 -7 -4 -9 25 -7 80 2 47 6 86 10 86 4 0 7 -36
7 -80z m1069 20 l0 -25 -8 25 c-4 14 -8 34 -8 45 l-1 20 9 -20 c5 -11 8 -31 8
-45z m-1101 18 c-3 -7 -5 -2 -5 12 0 14 2 19 5 13 2 -7 2 -19 0 -25z m173 18
c0 -7 3 -35 6 -62 4 -39 3 -45 -6 -31 -16 25 -24 107 -11 107 6 0 11 -6 11
-14z m447 -8 c-3 -8 -6 -5 -6 6 -1 11 2 17 5 13 3 -3 4 -12 1 -19z m-653 -31
c4 -19 3 -26 -4 -22 -5 3 -10 18 -10 32 0 32 5 28 14 -10z m172 -86 c5 -17 4
-22 -4 -17 -7 4 -12 16 -12 26 0 10 -4 22 -10 25 -5 3 -10 25 -9 48 l1 42 13
-50 c8 -27 17 -61 21 -74z m740 22 c-11 -29 -17 -6 -9 33 7 36 8 37 11 11 2
-16 1 -36 -2 -44z m103 15 c-1 -40 -1 -41 -9 -15 -8 26 -4 57 6 57 2 0 4 -19
3 -42z m172 -44 c10 -12 2 -24 -18 -24 -10 0 -12 12 -9 48 5 60 8 65 13 22 3
-19 9 -40 14 -46z m-944 29 c-3 -10 -5 -4 -5 12 0 17 2 24 5 18 2 -7 2 -21 0
-30z m450 15 c-3 -8 -6 -5 -6 6 -1 11 2 17 5 13 3 -3 4 -12 1 -19z m569 -56
c-11 -10 -13 3 -7 43 l6 40 3 -39 c2 -21 1 -41 -2 -44z m-1307 -6 c-5 -6 -9 7
-8 35 l1 44 8 -35 c5 -20 5 -39 -1 -44z m70 29 c0 -5 -4 -3 -9 5 -5 8 -9 22
-9 30 0 16 17 -16 18 -35z m101 3 c0 -5 -4 -8 -10 -8 -5 0 -10 10 -10 23 0 18
2 19 10 7 5 -8 10 -18 10 -22z m921 -19 c-5 -26 -9 -34 -10 -19 -1 27 9 73 15
67 2 -2 0 -23 -5 -48z m286 9 c-3 -7 -5 -2 -5 12 0 14 2 19 5 13 2 -7 2 -19 0
-25z m-560 0 c-3 -8 -6 -5 -6 6 -1 11 2 17 5 13 3 -3 4 -12 1 -19z m177 -10
c4 -17 2 -28 -4 -28 -5 0 -10 14 -10 32 0 36 4 35 14 -4z m166 -8 c0 -16 -4
-30 -10 -30 -5 0 -10 14 -10 30 0 17 5 30 10 30 6 0 10 -13 10 -30z m-100 -22
c0 -12 -28 -9 -36 3 -3 6 0 15 7 20 13 7 28 -5 29 -23z m-110 12 c0 -5 -4 -10
-10 -10 -5 0 -10 5 -10 10 0 6 5 10 10 10 6 0 10 -4 10 -10z"/>
<path d="M1598 4208 c9 -9 15 -9 24 0 9 9 7 12 -12 12 -19 0 -21 -3 -12 -12z"/>
<path d="M1800 4216 c0 -3 7 -12 16 -20 23 -23 40 -19 19 4 -16 18 -35 26 -35
16z"/>
<path d="M2280 4201 c0 -6 5 -13 10 -16 6 -3 10 1 10 9 0 9 -4 16 -10 16 -5 0
-10 -4 -10 -9z"/>
<path d="M2630 4181 c0 -6 5 -13 10 -16 6 -3 10 1 10 9 0 9 -4 16 -10 16 -5 0
-10 -4 -10 -9z"/>
<path d="M2100 4160 c0 -11 5 -20 10 -20 6 0 10 9 10 20 0 11 -4 20 -10 20 -5
0 -10 -9 -10 -20z"/>
<path d="M1588 4163 c-24 -6 -23 -19 3 -26 27 -7 49 1 49 19 0 14 -18 16 -52
7z"/>
<path d="M2163 4153 c9 -9 19 -14 23 -11 10 10 -6 28 -24 28 -15 0 -15 -1 1
-17z"/>
<path d="M1980 4140 c0 -5 5 -10 10 -10 6 0 10 5 10 10 0 6 -4 10 -10 10 -5 0
-10 -4 -10 -10z"/>
<path d="M2350 4141 c0 -6 5 -13 10 -16 6 -3 10 1 10 9 0 9 -4 16 -10 16 -5 0
-10 -4 -10 -9z"/>
<path d="M2413 4138 c2 -7 7 -13 12 -13 5 0 10 6 13 13 2 6 -4 12 -13 12 -9 0
-15 -6 -12 -12z"/>
<path d="M1400 4130 c0 -5 5 -10 10 -10 6 0 10 5 10 10 0 6 -4 10 -10 10 -5 0
-10 -4 -10 -10z"/>
<path d="M1668 4134 c-8 -8 3 -44 13 -44 5 0 9 11 9 25 0 24 -10 32 -22 19z"/>
<path d="M2040 4130 c0 -5 5 -10 10 -10 6 0 10 5 10 10 0 6 -4 10 -10 10 -5 0
-10 -4 -10 -10z"/>
<path d="M1912 4111 c2 -14 9 -26 16 -29 17 -5 15 10 -3 34 -15 18 -15 18 -13
-5z"/>
<path d="M1460 4105 c0 -8 7 -15 16 -15 14 0 14 3 4 15 -7 8 -14 15 -16 15 -2
0 -4 -7 -4 -15z"/>
<path d="M2672 4100 c0 -14 2 -19 5 -12 2 6 2 18 0 25 -3 6 -5 1 -5 -13z"/>
<path d="M2740 4100 c0 -11 5 -20 10 -20 6 0 10 9 10 20 0 11 -4 20 -10 20 -5
0 -10 -9 -10 -20z"/>
<path d="M1500 4100 c0 -5 9 -10 21 -10 11 0 17 5 14 10 -3 6 -13 10 -21 10
-8 0 -14 -4 -14 -10z"/>
<path d="M1830 4090 c0 -12 28 -25 36 -17 3 3 -4 10 -15 17 -15 7 -21 7 -21 0z"/>
<path d="M2450 4076 c0 -13 8 -30 17 -37 15 -13 16 -11 10 11 -4 14 -7 31 -7
38 0 6 -4 12 -10 12 -5 0 -10 -11 -10 -24z"/>
<path d="M2541 4070 c0 -33 1 -34 11 -12 8 17 8 26 0 34 -9 9 -12 4 -11 -22z"/>
<path d="M2190 4059 c7 -11 14 -19 16 -16 7 7 -7 37 -17 37 -6 0 -5 -9 1 -21z"/>
<path d="M2250 4070 c0 -5 5 -10 10 -10 6 0 10 5 10 10 0 6 -4 10 -10 10 -5 0
-10 -4 -10 -10z"/>
<path d="M1650 4051 c0 -23 15 -35 36 -27 12 5 12 9 -3 26 -22 25 -33 26 -33
1z"/>
<path d="M2344 4059 c-3 -6 -1 -16 5 -22 8 -8 11 -5 11 11 0 24 -5 28 -16 11z"/>
<path d="M1545 4050 c-3 -5 -2 -10 4 -10 5 0 13 5 16 10 3 6 2 10 -4 10 -5 0
-13 -4 -16 -10z"/>
<path d="M1740 4045 c0 -8 2 -15 4 -15 2 0 12 -3 21 -7 15 -5 16 -3 6 15 -13
25 -31 29 -31 7z"/>
<path d="M2100 4041 c0 -11 5 -23 10 -26 6 -4 10 5 10 19 0 14 -4 26 -10 26
-5 0 -10 -9 -10 -19z"/>
<path d="M1350 4026 c0 -36 27 -41 32 -5 4 23 1 29 -14 29 -12 0 -18 -7 -18
-24z"/>
<path d="M2590 4030 c0 -11 5 -20 10 -20 6 0 10 9 10 20 0 11 -4 20 -10 20 -5
0 -10 -9 -10 -20z"/>
<path d="M1480 4030 c0 -5 4 -10 9 -10 6 0 13 5 16 10 3 6 -1 10 -9 10 -9 0
-16 -4 -16 -10z"/>
<path d="M1541 4016 c-8 -9 -11 -19 -7 -23 9 -9 29 13 24 27 -2 8 -8 7 -17 -4z"/>
<path d="M1792 3993 c2 -10 11 -19 21 -21 16 -3 17 -1 5 17 -16 25 -31 27 -26
4z"/>
<path d="M1930 4001 c0 -5 5 -13 10 -16 6 -3 10 -2 10 4 0 5 -4 13 -10 16 -5
3 -10 2 -10 -4z"/>
<path d="M2230 3996 c0 -8 5 -18 10 -21 6 -3 10 3 10 14 0 12 -4 21 -10 21 -5
0 -10 -6 -10 -14z"/>
<path d="M2090 3990 c0 -5 5 -10 10 -10 6 0 10 5 10 10 0 6 -4 10 -10 10 -5 0
-10 -4 -10 -10z"/>
<path d="M2642 3970 c0 -14 2 -19 5 -12 2 6 2 18 0 25 -3 6 -5 1 -5 -13z"/>
<path d="M2422 3955 c6 -14 13 -23 16 -21 7 7 -9 46 -18 46 -5 0 -4 -11 2 -25z"/>
<path d="M2540 3965 c0 -8 5 -15 10 -15 6 0 10 7 10 15 0 8 -4 15 -10 15 -5 0
-10 -7 -10 -15z"/>
<path d="M1412 3959 c2 -7 12 -13 22 -15 23 -3 15 20 -8 24 -11 3 -17 -1 -14
-9z"/>
<path d="M1596 3955 c-3 -8 -1 -15 4 -15 6 0 10 -6 10 -14 0 -8 7 -17 16 -20
25 -10 26 -2 3 22 -11 12 -17 27 -14 32 3 6 2 10 -3 10 -6 0 -12 -7 -16 -15z"/>
<path d="M1720 3955 c0 -8 5 -15 10 -15 6 0 10 7 10 15 0 8 -4 15 -10 15 -5 0
-10 -7 -10 -15z"/>
<path d="M1510 3945 c0 -8 5 -15 10 -15 6 0 10 7 10 15 0 8 -4 15 -10 15 -5 0
-10 -7 -10 -15z"/>
<path d="M1877 3954 c-13 -13 3 -21 32 -16 17 2 28 8 25 13 -6 10 -48 12 -57
3z"/>
<path d="M1965 3950 c-4 -6 -4 -10 -1 -10 2 0 11 -3 20 -6 9 -3 16 -2 16 4 0
14 -28 23 -35 12z"/>
<path d="M2186 3952 c-3 -6 -1 -14 5 -17 15 -10 25 3 12 16 -7 7 -13 7 -17 1z"/>
<path d="M2380 3944 c0 -14 3 -14 15 -4 8 7 15 14 15 16 0 2 -7 4 -15 4 -8 0
-15 -7 -15 -16z"/>
<path d="M2696 3923 c7 -26 20 -42 35 -43 4 0 -1 16 -9 35 -19 42 -35 46 -26
8z"/>
<path d="M1890 3904 c0 -24 19 -54 34 -54 11 0 10 7 -3 35 -17 36 -31 45 -31
19z"/>
<path d="M2202 3908 c3 -7 12 -14 21 -16 12 -2 15 1 11 12 -7 19 -38 22 -32 4z"/>
<path d="M1450 3895 c0 -8 7 -15 15 -15 8 0 15 -6 15 -12 0 -7 5 -5 11 5 5 9
7 22 4 27 -10 16 -45 12 -45 -5z"/>
<path d="M1660 3885 c0 -8 5 -15 10 -15 6 0 10 7 10 15 0 8 -4 15 -10 15 -5 0
-10 -7 -10 -15z"/>
<path d="M2060 3891 c0 -6 5 -13 10 -16 6 -3 10 1 10 9 0 9 -4 16 -10 16 -5 0
-10 -4 -10 -9z"/>
<path d="M2320 3884 c0 -8 5 -12 10 -9 6 3 10 10 10 16 0 5 -4 9 -10 9 -5 0
-10 -7 -10 -16z"/>
<path d="M1721 3882 c1 -12 60 -55 66 -48 9 8 -25 43 -48 49 -10 3 -19 2 -18
-1z"/>
<path d="M2590 3874 c0 -3 5 -14 10 -25 16 -28 32 -23 18 6 -10 22 -28 35 -28
19z"/>
<path d="M2120 3850 c0 -5 9 -14 20 -20 22 -12 27 -1 8 18 -14 14 -28 16 -28
2z"/>
<path d="M2405 3850 c3 -5 8 -10 11 -10 2 0 4 5 4 10 0 6 -5 10 -11 10 -5 0
-7 -4 -4 -10z"/>
<path d="M1670 3836 c0 -8 5 -18 10 -21 6 -3 10 3 10 14 0 12 -4 21 -10 21 -5
0 -10 -6 -10 -14z"/>
<path d="M2046 3836 c3 -9 11 -16 16 -16 13 0 5 23 -10 28 -7 2 -10 -2 -6 -12z"/>
<path d="M2680 3841 c0 -6 5 -13 10 -16 6 -3 10 1 10 9 0 9 -4 16 -10 16 -5 0
-10 -4 -10 -9z"/>
<path d="M1380 3826 c0 -9 5 -16 10 -16 6 0 10 4 10 9 0 6 -4 13 -10 16 -5 3
-10 -1 -10 -9z"/>
<path d="M1710 3827 c0 -8 11 -19 25 -25 14 -6 25 -8 25 -3 0 5 -11 16 -25 25
-20 13 -25 14 -25 3z"/>
<path d="M1860 3810 c0 -24 4 -30 22 -30 17 0 19 3 10 12 -7 7 -12 20 -12 30
0 10 -4 18 -10 18 -5 0 -10 -13 -10 -30z"/>
<path d="M1490 3786 c0 -22 16 -36 43 -36 6 0 2 7 -10 15 -13 9 -20 22 -17 30
4 8 1 15 -5 15 -6 0 -11 -11 -11 -24z"/>
<path d="M2310 3800 c0 -5 5 -10 10 -10 6 0 10 5 10 10 0 6 -4 10 -10 10 -5 0
-10 -4 -10 -10z"/>
<path d="M2077 3794 c-11 -11 3 -24 25 -24 17 0 18 2 8 15 -13 16 -23 19 -33
9z"/>
<path d="M1930 3775 c0 -8 6 -15 14 -15 22 0 28 17 10 24 -22 9 -24 8 -24 -9z"/>
<path d="M2250 3765 c0 -14 7 -28 15 -32 23 -8 27 1 16 31 -13 33 -31 34 -31
1z"/>
<path d="M1612 3750 c-18 -29 -15 -57 8 -63 22 -6 26 3 9 20 -8 8 -8 17 0 31
20 37 5 47 -17 12z"/>
<path d="M1862 3749 c3 -8 8 -13 11 -11 9 3 7 11 -5 18 -6 4 -8 0 -6 -7z"/>
<path d="M2380 3750 c0 -5 5 -10 11 -10 5 0 7 5 4 10 -3 6 -8 10 -11 10 -2 0
-4 -4 -4 -10z"/>
<path d="M2535 3750 c3 -5 15 -10 26 -10 11 0 17 5 14 10 -3 6 -15 10 -26 10
-11 0 -17 -4 -14 -10z"/>
<path d="M1390 3735 c-9 -11 -10 -19 -2 -27 14 -14 32 -1 32 23 0 23 -13 25
-30 4z"/>
<path d="M1966 3741 c-4 -7 -5 -15 -2 -18 9 -9 19 4 14 18 -4 11 -6 11 -12 0z"/>
<path d="M2450 3740 c0 -5 5 -10 10 -10 6 0 10 5 10 10 0 6 -4 10 -10 10 -5 0
-10 -4 -10 -10z"/>
<path d="M1480 3730 c0 -12 40 -34 47 -26 9 8 -17 36 -33 36 -8 0 -14 -4 -14
-10z"/>
<path d="M1760 3720 c0 -5 9 -10 20 -10 11 0 20 5 20 10 0 6 -9 10 -20 10 -11
0 -20 -4 -20 -10z"/>
<path d="M1400 3690 c-13 -9 -13 -11 0 -20 24 -16 39 -12 33 10 -6 22 -11 24
-33 10z"/>
<path d="M2280 3684 c0 -8 5 -12 10 -9 6 3 10 10 10 16 0 5 -4 9 -10 9 -5 0
-10 -7 -10 -16z"/>
<path d="M1456 3675 c4 -8 15 -15 26 -15 17 0 18 3 8 15 -7 8 -19 15 -26 15
-8 0 -11 -6 -8 -15z"/>
<path d="M2625 3680 c3 -5 10 -10 16 -10 5 0 9 5 9 10 0 6 -7 10 -16 10 -8 0
-12 -4 -9 -10z"/>
<path d="M1560 3663 c0 -22 17 -49 25 -41 8 8 -5 58 -16 58 -5 0 -9 -8 -9 -17z"/>
<path d="M1672 3659 c2 -7 10 -15 17 -17 8 -3 12 1 9 9 -2 7 -10 15 -17 17 -8
3 -12 -1 -9 -9z"/>
<path d="M2545 3660 c-9 -15 -1 -23 21 -18 15 3 16 4 1 16 -11 9 -17 10 -22 2z"/>
<path d="M2660 3651 c0 -6 5 -13 10 -16 6 -3 10 1 10 9 0 9 -4 16 -10 16 -5 0
-10 -4 -10 -9z"/>
<path d="M1403 3623 c-7 -3 -13 -14 -12 -26 0 -12 3 -16 6 -9 2 6 11 12 19 12
15 0 19 16 7 23 -5 2 -14 2 -20 0z"/>
<path d="M2530 3556 c0 -7 7 -19 15 -26 12 -10 15 -10 15 0 0 7 7 10 15 7 8
-4 17 -2 20 3 6 10 -1 15 -37 24 -21 5 -28 3 -28 -8z"/>
<path d="M2710 3550 c0 -5 7 -10 15 -10 8 0 15 5 15 10 0 6 -7 10 -15 10 -8 0
-15 -4 -15 -10z"/>
<path d="M1470 3541 c0 -5 9 -11 20 -14 13 -3 20 0 20 9 0 8 -9 14 -20 14 -11
0 -20 -4 -20 -9z"/>
<path d="M2627 3534 c-13 -13 -7 -24 14 -24 11 0 19 5 17 12 -5 14 -22 21 -31
12z"/>
<path d="M1456 3511 c-3 -5 1 -11 9 -15 9 -3 15 0 15 9 0 16 -16 20 -24 6z"/>
<path d="M1392 3463 c5 -25 28 -28 28 -4 0 12 -6 21 -16 21 -9 0 -14 -7 -12
-17z"/>
<path d="M2570 3459 c0 -5 5 -7 10 -4 6 3 10 8 10 11 0 2 -4 4 -10 4 -5 0 -10
-5 -10 -11z"/>
<path d="M2670 3452 c0 -12 19 -26 26 -19 2 2 -2 10 -11 17 -9 8 -15 8 -15 2z"/>
<path d="M2755 3450 c3 -5 10 -10 16 -10 5 0 9 5 9 10 0 6 -7 10 -16 10 -8 0
-12 -4 -9 -10z"/>
<path d="M1535 3420 c-3 -5 1 -10 9 -10 8 0 18 5 21 10 3 6 -1 10 -9 10 -8 0
-18 -4 -21 -10z"/>
<path d="M2782 3398 c6 -18 28 -21 28 -4 0 9 -7 16 -16 16 -9 0 -14 -5 -12
-12z"/>
<path d="M1510 3385 c0 -8 4 -15 9 -15 5 0 17 -3 27 -7 11 -4 15 -2 12 7 -6
20 -48 33 -48 15z"/>
<path d="M2560 3355 c0 -8 5 -15 10 -15 6 0 10 7 10 15 0 8 -4 15 -10 15 -5 0
-10 -7 -10 -15z"/>
<path d="M2620 3360 c0 -5 5 -10 10 -10 6 0 10 5 10 10 0 6 -4 10 -10 10 -5 0
-10 -4 -10 -10z"/>
<path d="M2775 3360 c3 -5 11 -10 16 -10 6 0 7 5 4 10 -3 6 -11 10 -16 10 -6
0 -7 -4 -4 -10z"/>
<path d="M1422 3344 c9 -9 21 -13 27 -10 20 13 11 26 -16 26 -25 0 -26 -1 -11
-16z"/>
<path d="M2690 3350 c0 -5 5 -10 10 -10 6 0 10 5 10 10 0 6 -4 10 -10 10 -5 0
-10 -4 -10 -10z"/>
<path d="M1398 3283 c6 -2 18 -2 25 0 6 3 1 5 -13 5 -14 0 -19 -2 -12 -5z"/>
<path d="M2680 3280 c0 -5 5 -10 10 -10 6 0 10 5 10 10 0 6 -4 10 -10 10 -5 0
-10 -4 -10 -10z"/>
<path d="M2785 3270 c3 -5 10 -10 16 -10 5 0 9 5 9 10 0 6 -7 10 -16 10 -8 0
-12 -4 -9 -10z"/>
<path d="M1530 3258 c0 -11 -6 -15 -20 -11 -11 3 -20 0 -20 -6 0 -14 47 -14
56 0 3 6 1 16 -5 22 -8 8 -11 7 -11 -5z"/>
<path d="M2720 3182 c0 -5 7 -16 16 -23 14 -12 16 -11 13 5 -4 20 -29 35 -29
18z"/>
<path d="M2776 3131 c-4 -5 -2 -12 3 -15 5 -4 12 -2 15 3 4 5 2 12 -3 15 -5 4
-12 2 -15 -3z"/>
<path d="M2702 3119 c3 -8 8 -13 11 -11 9 3 7 11 -5 18 -6 4 -8 0 -6 -7z"/>
<path d="M1435 3099 c-10 -15 2 -23 22 -14 10 5 21 7 26 7 4 -1 7 3 7 8 0 13
-47 13 -55 -1z"/>
<path d="M2630 3045 c0 -14 5 -25 10 -25 6 0 10 11 10 25 0 14 -4 25 -10 25
-5 0 -10 -11 -10 -25z"/>
<path d="M1440 3011 c0 -6 5 -13 10 -16 6 -3 10 1 10 9 0 9 -4 16 -10 16 -5 0
-10 -4 -10 -9z"/>
<path d="M2577 2944 c-8 -8 1 -24 14 -24 5 0 9 7 9 15 0 15 -12 20 -23 9z"/>
<path d="M1530 2930 c0 -5 7 -10 15 -10 8 0 15 5 15 10 0 6 -7 10 -15 10 -8 0
-15 -4 -15 -10z"/>
<path d="M2662 2913 c2 -10 11 -19 21 -21 16 -3 17 -1 5 17 -16 25 -31 27 -26
4z"/>
<path d="M1460 2905 c0 -8 4 -15 9 -15 5 0 14 7 21 15 10 13 9 15 -9 15 -12 0
-21 -6 -21 -15z"/>
<path d="M2685 1950 c-3 -5 -1 -10 4 -10 6 0 11 5 11 10 0 6 -2 10 -4 10 -3 0
-8 -4 -11 -10z"/>
<path d="M2626 1909 c-3 -17 -5 -43 -5 -58 1 -14 5 -2 10 28 10 58 6 83 -5 30z"/>
<path d="M2421 1744 c0 -11 3 -14 6 -6 3 7 2 16 -1 19 -3 4 -6 -2 -5 -13z"/>
<path d="M2450 1630 c0 -22 2 -40 4 -40 2 0 6 18 8 40 2 22 0 40 -4 40 -5 0
-8 -18 -8 -40z"/>
<path d="M2513 1635 c0 -22 2 -30 4 -17 2 12 2 30 0 40 -3 9 -5 -1 -4 -23z"/>
<path d="M2213 1520 c0 -36 2 -50 4 -32 2 17 2 47 0 65 -2 17 -4 3 -4 -33z"/>
<path d="M2177 1370 c-4 -14 -6 -38 -6 -55 l1 -30 9 34 c6 18 9 43 7 55 -3 20
-4 19 -11 -4z"/>
<path d="M1840 3063 c-6 -27 -17 -66 -24 -88 -13 -45 -10 -109 5 -100 5 4 9 1
9 -6 0 -7 10 -9 25 -7 20 4 26 0 34 -24 11 -30 31 -34 39 -8 3 8 0 10 -7 6 -7
-5 -16 4 -23 24 -8 25 -15 30 -32 26 -37 -9 -49 6 -38 50 6 21 16 64 23 94 6
30 14 61 16 68 3 6 1 12 -5 12 -5 0 -15 -21 -22 -47z"/>
<path d="M3725 4230 c3 -5 10 -10 16 -10 5 0 9 5 9 10 0 6 -7 10 -16 10 -8 0
-12 -4 -9 -10z"/>
<path d="M4036 4214 c-6 -16 9 -44 24 -44 4 0 7 13 6 30 -1 32 -20 41 -30 14z"/>
<path d="M3904 4189 c-3 -6 -1 -16 5 -22 9 -9 14 -8 21 3 9 15 4 30 -10 30 -5
0 -12 -5 -16 -11z"/>
<path d="M3673 4153 c-18 -7 -16 -30 4 -37 19 -8 48 17 39 33 -7 11 -22 13
-43 4z"/>
<path d="M3796 4144 c-8 -21 -1 -28 19 -20 9 3 15 11 13 18 -7 19 -25 20 -32
2z"/>
<path d="M3910 4075 c0 -8 7 -15 15 -15 8 0 15 7 15 15 0 8 -7 15 -15 15 -8 0
-15 -7 -15 -15z"/>
<path d="M3807 4063 c-13 -12 -7 -33 8 -33 8 0 15 9 15 20 0 20 -11 26 -23 13z"/>
<path d="M3560 4006 c0 -9 7 -16 16 -16 9 0 14 5 12 12 -6 18 -28 21 -28 4z"/>
<path d="M3666 4001 c-7 -10 22 -37 30 -28 9 8 -3 37 -15 37 -5 0 -12 -4 -15
-9z"/>
<path d="M3940 3990 c0 -5 7 -10 15 -10 8 0 15 5 15 10 0 6 -7 10 -15 10 -8 0
-15 -4 -15 -10z"/>
<path d="M3755 3970 c3 -5 8 -10 11 -10 2 0 4 5 4 10 0 6 -5 10 -11 10 -5 0
-7 -4 -4 -10z"/>
<path d="M3570 3921 c0 -17 18 -21 24 -6 3 9 0 15 -9 15 -8 0 -15 -4 -15 -9z"/>
<path d="M3860 3900 c0 -5 7 -10 16 -10 8 0 12 5 9 10 -3 6 -10 10 -16 10 -5
0 -9 -4 -9 -10z"/>
<path d="M3667 3884 c-8 -8 1 -24 14 -24 5 0 9 7 9 15 0 15 -12 20 -23 9z"/>
<path d="M3486 3871 c-4 -7 -5 -15 -2 -18 9 -9 19 4 14 18 -4 11 -6 11 -12 0z"/>
<path d="M3750 3870 c0 -5 4 -10 9 -10 6 0 13 5 16 10 3 6 -1 10 -9 10 -9 0
-16 -4 -16 -10z"/>
<path d="M3915 3860 c3 -5 13 -10 21 -10 8 0 14 5 14 10 0 6 -9 10 -21 10 -11
0 -17 -4 -14 -10z"/>
<path d="M3560 3800 c0 -5 5 -10 10 -10 6 0 10 5 10 10 0 6 -4 10 -10 10 -5 0
-10 -4 -10 -10z"/>
<path d="M3820 3785 c0 -9 6 -12 15 -9 8 4 15 7 15 9 0 2 -7 5 -15 9 -9 3 -15
0 -15 -9z"/>
<path d="M3430 3730 c0 -5 5 -10 10 -10 6 0 10 5 10 10 0 6 -4 10 -10 10 -5 0
-10 -4 -10 -10z"/>
<path d="M3665 3731 c-3 -5 -1 -12 5 -16 5 -3 10 1 10 9 0 18 -6 21 -15 7z"/>
<path d="M3770 3725 c0 -9 5 -15 10 -13 12 4 11 16 -1 24 -5 3 -9 -2 -9 -11z"/>
<path d="M3560 3690 c0 -5 5 -10 10 -10 6 0 10 5 10 10 0 6 -4 10 -10 10 -5 0
-10 -4 -10 -10z"/>
<path d="M3286 3661 c-7 -10 22 -37 30 -28 9 8 -3 37 -15 37 -5 0 -12 -4 -15
-9z"/>
<path d="M3203 3646 c4 -10 7 -22 7 -27 0 -5 4 -9 8 -9 14 0 7 43 -8 48 -9 3
-11 -1 -7 -12z"/>
<path d="M3730 3626 c0 -8 5 -18 10 -21 6 -3 10 3 10 14 0 12 -4 21 -10 21 -5
0 -10 -6 -10 -14z"/>
<path d="M3490 3611 c0 -5 7 -14 15 -21 12 -10 15 -10 15 3 0 8 -7 17 -15 21
-8 3 -15 2 -15 -3z"/>
<path d="M3360 3582 c0 -10 22 -32 32 -32 4 0 8 9 8 20 0 13 -7 20 -20 20 -11
0 -20 -4 -20 -8z"/>
<path d="M3630 3575 c7 -8 16 -15 21 -15 5 0 6 7 3 15 -4 8 -13 15 -21 15 -13
0 -13 -3 -3 -15z"/>
<path d="M3120 3544 c0 -9 5 -14 12 -12 18 6 21 28 4 28 -9 0 -16 -7 -16 -16z"/>
<path d="M4051 3536 c-13 -14 -22 -29 -20 -35 2 -6 14 5 27 24 26 41 24 44 -7
11z"/>
<path d="M3239 3536 c16 -19 44 -21 39 -3 -3 6 -15 14 -28 15 -21 3 -22 2 -11
-12z"/>
<path d="M3580 3510 c0 -5 5 -10 10 -10 6 0 10 5 10 10 0 6 -4 10 -10 10 -5 0
-10 -4 -10 -10z"/>
<path d="M3182 3484 c2 -11 8 -18 13 -16 15 3 12 25 -3 30 -9 3 -13 -2 -10
-14z"/>
<path d="M3471 3477 c2 -1 12 -9 22 -16 14 -12 17 -11 17 3 0 10 -8 16 -22 16
-12 0 -19 -1 -17 -3z"/>
<path d="M3350 3450 c0 -23 25 -27 33 -6 7 16 -1 26 -20 26 -7 0 -13 -9 -13
-20z"/>
<path d="M3525 3390 c3 -5 10 -10 16 -10 5 0 9 5 9 10 0 6 -7 10 -16 10 -8 0
-12 -4 -9 -10z"/>
<path d="M3287 3353 c-4 -3 -7 -12 -7 -20 0 -11 4 -11 20 -3 11 6 18 15 15 21
-7 11 -19 12 -28 2z"/>
<path d="M3170 3325 c0 -8 7 -15 15 -15 8 0 15 7 15 15 0 8 -7 15 -15 15 -8 0
-15 -7 -15 -15z"/>
<path d="M3410 3285 c0 -8 7 -15 15 -15 8 0 15 7 15 15 0 8 -7 15 -15 15 -8 0
-15 -7 -15 -15z"/>
<path d="M3263 3213 c-7 -2 -13 -11 -13 -20 0 -20 34 -12 38 10 3 17 -3 20
-25 10z"/>
<path d="M3160 3165 c-14 -16 -6 -35 16 -35 8 0 14 10 14 25 0 28 -12 32 -30
10z"/>
<path d="M4073 3085 c0 -22 2 -30 4 -17 2 12 2 30 0 40 -3 9 -5 -1 -4 -23z"/>
<path d="M3170 3045 c0 -8 7 -15 15 -15 8 0 15 7 15 15 0 8 -7 15 -15 15 -8 0
-15 -7 -15 -15z"/>
<path d="M3880 1181 c0 -12 48 -23 61 -15 6 3 23 -5 37 -18 15 -14 44 -34 65
-46 36 -21 37 -21 37 -2 0 13 -7 20 -19 20 -10 0 -24 7 -31 15 -7 8 -28 24
-47 36 -29 18 -37 19 -44 8 -6 -11 -11 -11 -21 -1 -14 14 -38 16 -38 3z"/>
<path d="M4040 1174 c0 -7 9 -18 20 -24 17 -9 20 -8 20 8 0 11 -9 22 -20 25
-13 3 -20 0 -20 -9z"/>
<path d="M95 653 c-5 -14 -21 -390 -25 -566 0 -18 13 -18 266 -13 147 3 269 8
272 11 4 3 7 25 8 48 1 23 7 71 13 107 19 122 35 361 25 378 -25 38 -117 52
-356 52 -177 0 -197 -2 -203 -17z m494 -218 c-6 -94 -13 -192 -17 -220 l-7
-50 -222 -3 c-204 -3 -223 -2 -223 14 0 38 21 361 26 390 l4 30 169 -2 c92 -1
186 -5 208 -8 30 -6 43 -3 53 9 7 8 14 14 16 12 2 -1 -1 -79 -7 -172z"/>
<path d="M252 514 c-73 -58 -95 -191 -29 -182 17 2 23 11 25 35 4 39 25 58 62
55 26 -2 30 2 39 35 15 52 14 61 -8 73 -31 16 -53 12 -89 -16z"/>
<path d="M420 484 c-51 -59 -66 -128 -35 -168 19 -25 42 -14 50 26 12 60 16
68 36 68 55 0 88 59 53 94 -27 28 -69 20 -104 -20z"/>
<path d="M1507 647 c-28 -25 -34 -43 -17 -49 6 -2 6 -17 -1 -42 -6 -22 -9 -76
-6 -120 5 -94 -12 -308 -25 -300 -4 3 -8 0 -8 -6 0 -17 51 -55 75 -56 11 0 70
-6 130 -13 61 -7 159 -11 219 -9 l109 3 20 35 c16 29 20 58 22 170 2 74 10
173 19 219 9 50 12 89 7 95 -5 6 -11 22 -13 34 -3 23 -7 24 -103 27 -55 3
-143 9 -195 15 -212 24 -204 25 -233 -3z m391 -57 l72 0 0 -98 c0 -53 -4 -113
-10 -131 -5 -19 -10 -79 -11 -134 l-2 -100 -86 8 c-47 4 -120 9 -161 10 -41 1
-93 3 -116 4 l-40 1 -1 72 c-1 79 14 306 23 350 l5 27 127 -4 c70 -3 160 -5
200 -5z"/>
<path d="M1726 528 c-3 -18 -7 -73 -9 -121 l-5 -89 33 6 c19 4 36 2 40 -4 3
-5 13 -10 22 -10 12 0 14 7 10 34 -3 19 -1 67 4 107 10 84 5 94 -53 104 -36 7
-37 6 -42 -27z"/>
<path d="M1710 235 c0 -53 1 -55 20 -45 14 7 26 8 39 0 33 -17 41 -12 41 26 0
44 -29 74 -72 74 -27 0 -28 -1 -28 -55z"/>
<path d="M793 648 c-2 -5 -15 -8 -28 -8 -13 0 -27 -4 -30 -10 -4 -6 7 -10 25
-10 l32 0 -6 -57 c-4 -32 -13 -128 -21 -213 -8 -85 -19 -180 -25 -210 -15 -86
-19 -85 232 -85 132 0 220 5 231 11 13 8 30 8 58 0 28 -7 42 -7 50 1 7 7 15
74 20 160 6 110 15 172 34 243 18 63 23 96 16 98 -6 2 -11 14 -11 27 0 14 -8
28 -17 33 -37 19 -549 37 -560 20z m218 -77 c5 8 47 9 138 4 l131 -7 -6 -72
c-14 -171 -36 -309 -52 -332 -10 -13 -32 -25 -52 -28 -49 -8 -337 -4 -351 5
-9 5 -9 35 0 127 6 66 11 162 11 214 l0 94 87 -8 c60 -5 89 -4 94 3z"/>
<path d="M943 413 c-26 -3 -34 -11 -43 -39 -7 -20 -9 -38 -5 -42 10 -11 269
-10 283 1 18 14 15 47 -5 54 -10 4 -21 11 -24 16 -7 10 -155 18 -206 10z"/>
<path d="M2718 615 c-3 -3 -127 -7 -275 -7 -263 -1 -269 -2 -278 -22 -6 -12
-9 -128 -7 -273 l3 -252 32 -8 c50 -13 514 0 528 14 8 8 13 57 15 145 1 73 7
165 13 203 17 106 -2 228 -31 200z m-92 -66 l41 2 6 -208 c4 -127 2 -211 -3
-218 -14 -17 -148 -25 -280 -15 -63 4 -125 4 -137 -1 l-23 -9 0 129 c0 70 -3
169 -6 219 l-7 92 99 1 c54 0 122 4 149 9 28 4 66 6 85 3 19 -3 53 -5 76 -4z"/>
<path d="M2387 480 c-32 -25 -37 -52 -20 -112 13 -44 12 -50 -7 -76 -11 -15
-23 -44 -26 -64 -7 -39 4 -50 69 -69 26 -7 36 -4 65 18 33 25 35 25 62 9 16
-9 35 -13 44 -10 18 7 39 74 30 98 -8 20 -33 21 -40 1 -10 -24 -37 -16 -67 21
l-29 34 36 34 c46 42 47 75 5 110 -37 32 -86 34 -122 6z m87 -59 c16 -18 16
-20 -10 -40 -31 -24 -54 -14 -54 24 0 40 35 49 64 16z m-34 -151 c26 -26 25
-42 -2 -38 -17 2 -24 11 -26 31 -4 32 1 34 28 7z"/>
<path d="M2911 572 c-7 -13 -11 -90 -11 -206 0 -102 -5 -208 -11 -237 -9 -39
-8 -53 1 -59 6 -4 93 -8 193 -9 99 -1 183 -4 186 -6 12 -7 106 23 103 34 -1 8
3 8 17 0 10 -7 25 -9 34 -6 13 5 16 29 19 134 2 70 -1 134 -6 140 -4 7 -7 61
-5 120 l4 108 -50 -1 c-146 -5 -357 -3 -407 2 -50 6 -57 4 -67 -14z m331 -65
c98 -1 129 -5 133 -16 11 -27 -7 -331 -20 -341 -8 -7 -75 -8 -193 -4 l-181 7
-7 44 c-6 43 2 226 13 291 l5 33 62 -5 c33 -4 118 -7 188 -9z"/>
<path d="M3225 445 c-22 -19 -43 -34 -47 -35 -3 0 -20 14 -36 30 -37 36 -61
38 -92 6 l-23 -25 37 -34 c20 -19 36 -42 36 -51 0 -9 -16 -26 -35 -38 -41 -27
-43 -38 -11 -72 30 -34 38 -33 75 9 l31 35 22 -34 c34 -52 53 -60 94 -41 25
12 34 22 34 40 0 14 -4 25 -9 25 -6 0 -22 16 -38 36 l-27 37 43 37 c44 38 48
60 19 98 -16 19 -30 15 -73 -23z"/>
<path d="M3576 564 c-8 -22 -10 -480 -2 -493 9 -14 476 -13 494 1 9 8 12 71
12 253 l0 242 -142 2 c-79 1 -191 4 -249 7 -93 4 -107 3 -113 -12z m463 -74
c-2 -59 -27 -341 -30 -344 -2 -2 -86 -2 -187 1 l-182 6 4 156 c2 86 5 166 5
178 l1 23 195 -3 c166 -2 195 -4 194 -17z"/>
<path d="M3802 358 c-19 -19 -14 -66 8 -88 26 -26 36 -25 66 5 18 19 23 31 19
48 -13 42 -66 62 -93 35z"/>
</g>
</svg>
