<?xml version="1.0" standalone="no"?>
<!DOCTYPE svg PUBLIC "-//W3C//DTD SVG 20010904//EN"
 "http://www.w3.org/TR/2001/REC-SVG-20010904/DTD/svg10.dtd">
<svg version="1.0" xmlns="http://www.w3.org/2000/svg"
 width="300.000000pt" height="219.000000pt" viewBox="0 0 300.000000 219.000000"
 preserveAspectRatio="xMidYMid meet">
<metadata>
Created by potrace 1.16, written by Peter Selinger 2001-2019
</metadata>
<g transform="translate(0.000000,219.000000) scale(0.100000,-0.100000)"
fill="#000000" stroke="none">
<path d="M120 2169 c-65 -11 -79 -22 -62 -49 10 -16 8 -22 -15 -40 l-26 -20
12 -88 c17 -133 31 -375 31 -541 0 -91 6 -180 15 -228 23 -120 41 -637 26
-776 -21 -208 -14 -304 25 -352 23 -29 26 -30 116 -32 51 -1 150 2 219 7 69 5
343 12 610 15 266 3 567 10 669 16 103 5 320 7 490 3 225 -4 327 -3 390 7 47
7 129 14 182 15 70 2 109 8 138 21 36 16 52 33 32 33 -12 0 -13 119 -2 150 15
42 21 857 8 1015 -8 95 -8 191 -2 300 5 88 8 234 6 324 -3 156 -4 163 -22 158
-14 -4 -20 0 -20 11 -1 37 -30 -22 -31 -62 -1 -41 -1 -41 -10 -11 -6 21 -5 37
3 53 10 19 9 25 -1 31 -18 12 -330 33 -461 32 -562 -3 -2167 6 -2230 13 -19 3
-60 0 -90 -5z m2459 -80 c20 -7 42 -14 50 -16 20 -5 12 -9 -34 -17 -30 -5 -36
-4 -25 4 11 8 6 9 -22 4 -25 -4 -38 -2 -38 5 0 7 -23 12 -57 12 -56 2 -56 2
-18 9 63 11 106 11 144 -1z m-1129 -9 c-20 -13 -33 -13 -25 0 3 6 14 10 23 10
15 0 15 -2 2 -10z m1400 -17 c0 -26 -1 -26 -14 -8 -14 20 -12 35 5 35 5 0 9
-12 9 -27z m-150 7 c0 -5 -7 -10 -15 -10 -8 0 -15 5 -15 10 0 6 7 10 15 10 8
0 15 -4 15 -10z m118 -22 c13 -36 6 -51 -11 -27 -7 9 -18 14 -26 11 -8 -2 -11
0 -8 5 6 9 -19 26 -53 36 -8 2 8 5 36 5 47 1 51 -1 62 -30z m-2728 -5 c0 -19
-3 -24 -10 -17 -6 6 -8 18 -4 27 9 24 14 21 14 -10z m44 -8 c-4 -8 -8 -15 -10
-15 -2 0 -4 7 -4 15 0 8 4 15 10 15 5 0 7 -7 4 -15z m2486 -12 c0 -23 32 -44
47 -31 10 8 13 5 13 -10 0 -12 8 -27 19 -34 10 -7 26 -29 36 -48 10 -19 31
-52 48 -73 29 -37 30 -43 31 -142 1 -76 -3 -108 -13 -117 -11 -11 -12 -6 -7
32 6 43 -9 122 -31 165 -6 11 -18 34 -27 52 -9 17 -16 38 -16 47 0 9 -4 16
-10 16 -5 0 -7 -8 -4 -17 5 -17 5 -17 -9 -1 -8 10 -17 15 -20 11 -11 -10 -8
-25 3 -18 6 3 10 -1 10 -9 0 -8 -4 -18 -10 -21 -5 -3 -10 -12 -9 -18 0 -9 2
-9 6 1 5 14 33 17 33 3 0 -5 7 -17 16 -26 20 -20 11 -33 -11 -15 -18 15 -18
12 -4 -28 15 -45 -4 -132 -37 -163 -19 -18 -27 -21 -33 -10 -6 9 -10 7 -15
-11 -7 -27 -59 -86 -98 -111 -26 -16 -32 -15 -29 5 0 4 -6 5 -14 2 -8 -3 -13
-11 -12 -17 3 -14 -29 -21 -51 -11 -9 4 -20 6 -24 6 -5 -1 -8 2 -8 8 0 5 6 10
13 10 8 0 7 4 -3 11 -12 8 -10 9 8 4 24 -7 104 17 136 41 10 7 16 20 14 29 -3
15 -5 15 -28 -3 -79 -61 -242 -56 -276 10 l-14 27 35 -20 c19 -11 42 -19 52
-16 15 4 15 5 -3 6 -33 2 -84 62 -89 107 -2 21 -2 30 1 19 20 -69 94 -110 171
-95 96 20 103 23 103 41 0 10 8 22 18 28 13 8 17 23 17 75 0 63 -1 65 -40 100
-34 30 -47 35 -91 36 -47 0 -54 -3 -88 -40 -77 -84 -67 -161 29 -214 l30 -17
-35 6 c-102 17 -132 151 -50 230 16 16 30 34 30 40 0 7 16 20 35 31 26 14 33
23 29 39 -9 34 40 63 103 59 35 -1 56 2 64 12 8 10 8 14 0 14 -24 0 -10 29 17
32 34 5 42 1 42 -19z m-1950 7 c0 -5 -10 -10 -22 -9 -22 0 -22 1 -3 9 11 5 21
9 23 9 1 1 2 -3 2 -9z m1490 -28 c0 -4 -10 -13 -22 -21 -23 -14 -23 -14 -4 8
20 22 26 25 26 13z m-805 -12 c-3 -5 -12 -10 -18 -10 -7 0 -6 4 3 10 19 12 23
12 15 0z m1413 -2 c16 -16 15 -28 -1 -28 -7 0 -18 9 -25 20 -10 16 -10 20 1
20 7 0 18 -5 25 -12z m-2238 -13 c0 -8 -4 -15 -10 -15 -5 0 -7 7 -4 15 4 8 8
15 10 15 2 0 4 -7 4 -15z m2380 -75 l-7 -65 -1 75 c-1 40 2 70 6 65 5 -6 6
-39 2 -75z m-102 24 c1 -34 0 -36 -13 -18 -17 23 -19 44 -4 44 5 0 7 5 3 12
-4 6 -3 8 3 5 5 -3 10 -23 11 -43z m-499 -51 c-24 -27 -46 -47 -49 -46 -3 0
-11 -5 -18 -13 -7 -8 -10 -14 -7 -14 3 0 -6 -12 -20 -27 -14 -16 -23 -33 -21
-38 2 -6 -2 -19 -10 -30 -12 -16 -14 -16 -14 -3 0 9 6 19 13 21 7 3 5 6 -5 6
-10 1 -18 3 -18 6 0 13 52 86 64 91 8 3 16 14 19 25 3 10 16 23 29 28 12 6 34
19 48 30 41 33 36 14 -11 -36z m-1966 -9 c-6 -17 -20 -18 -26 -1 -8 22 4 39
19 27 7 -7 10 -18 7 -26z m117 26 c0 -5 -4 -10 -10 -10 -5 0 -10 5 -10 10 0 6
5 10 10 10 6 0 10 -4 10 -10z m1179 7 c-2 -1 -13 -9 -24 -17 -19 -14 -19 -14
-6 3 7 9 18 17 24 17 6 0 8 -1 6 -3z m-1219 -11 c0 -2 -7 -6 -15 -10 -8 -3
-15 -1 -15 4 0 6 7 10 15 10 8 0 15 -2 15 -4z m1506 -56 l-15 -45 5 40 c7 49
15 74 20 60 2 -6 -2 -30 -10 -55z m151 38 c-3 -8 -6 -5 -6 6 -1 11 2 17 5 13
3 -3 4 -12 1 -19z m153 11 c0 -6 -7 -9 -15 -5 -8 3 -14 2 -14 -2 3 -17 -2 -32
-10 -32 -12 0 -9 33 4 42 15 11 35 9 35 -3z m-510 -26 c-1 -13 -50 -89 -50
-77 0 21 30 84 40 84 6 0 10 -3 10 -7z m180 3 c0 -3 -4 -8 -10 -11 -5 -3 -10
-1 -10 4 0 6 5 11 10 11 6 0 10 -2 10 -4z m-300 -31 c-7 -8 -17 -12 -22 -9 -5
3 -1 12 9 19 22 17 30 11 13 -10z m265 -7 c-9 -41 -25 -60 -25 -29 0 23 16 61
26 61 3 0 3 -15 -1 -32z m-925 -3 c0 -2 -9 -9 -20 -15 -12 -6 -20 -7 -20 -1 0
5 8 12 18 14 9 3 18 5 20 6 1 0 2 -1 2 -4z m330 -9 c0 -3 -4 -8 -10 -11 -5 -3
-10 -1 -10 4 0 6 5 11 10 11 6 0 10 -2 10 -4z m1224 -22 c21 -35 23 -59 8
-102 -14 -42 -62 -88 -69 -66 -2 6 -16 9 -32 6 -43 -6 -75 39 -66 93 3 23 15
47 27 56 11 9 17 18 12 21 -5 3 -4 3 3 2 7 -2 15 1 18 5 10 17 87 6 99 -15z
m-494 -15 c0 -19 -14 -39 -27 -39 -8 0 -11 -5 -7 -12 4 -6 3 -8 -4 -5 -14 10
7 64 25 64 7 0 13 -4 13 -8z m-1470 -9 c0 -5 -4 -10 -10 -10 -5 0 -10 5 -10
10 0 6 5 10 10 10 6 0 10 -4 10 -10z m1090 -60 c-16 -31 -23 -18 -8 15 7 15
14 23 16 17 2 -6 -2 -21 -8 -32z m-1267 15 c4 -8 2 -17 -3 -20 -6 -4 -10 3
-10 14 0 25 6 27 13 6z m72 5 c-3 -5 -10 -10 -16 -10 -5 0 -9 5 -9 10 0 6 7
10 16 10 8 0 12 -4 9 -10z m2482 -74 c-4 -46 -14 -96 -22 -112 l-15 -29 0 40
c0 22 7 58 15 80 8 22 14 55 15 73 0 17 3 32 6 32 4 0 4 -38 1 -84z m-1047 30
c-6 -20 -15 -34 -20 -31 -4 3 -1 20 8 40 20 44 28 38 12 -9z m-1338 12 c-7 -7
-12 -8 -12 -2 0 14 12 26 19 19 2 -3 -1 -11 -7 -17z m2235 0 c-3 -8 -6 -5 -6
6 -1 11 2 17 5 13 3 -3 4 -12 1 -19z m-540 -90 c-15 -9 -28 32 -20 63 5 18 8
15 19 -17 10 -30 10 -40 1 -46z m-1857 31 c0 -10 -4 -19 -10 -19 -5 0 -10 12
-10 26 0 14 4 23 10 19 6 -3 10 -15 10 -26z m440 11 c0 -5 -5 -10 -11 -10 -5
0 -7 5 -4 10 3 6 8 10 11 10 2 0 4 -4 4 -10z m1327 -22 c-3 -8 -6 -5 -6 6 -1
11 2 17 5 13 3 -3 4 -12 1 -19z m-902 -7 c-3 -6 -11 -11 -16 -11 -5 0 -4 6 3
14 14 16 24 13 13 -3z m652 -71 c2 -33 -1 -68 -6 -78 -5 -9 -5 -38 -1 -64 4
-27 4 -48 0 -48 -12 0 -20 41 -20 103 0 44 -3 57 -15 57 -8 0 -15 9 -15 20 0
11 7 20 15 20 9 0 12 -6 8 -17 -4 -11 -3 -14 5 -9 7 4 12 19 12 33 0 21 -2 24
-15 13 -8 -7 -15 -10 -15 -6 0 9 34 43 39 39 3 -2 6 -31 8 -63z m853 56 c0 -3
-4 -8 -10 -11 -5 -3 -10 -1 -10 4 0 6 5 11 10 11 6 0 10 -2 10 -4z m-1360 -16
c0 -5 -5 -10 -11 -10 -5 0 -7 5 -4 10 3 6 8 10 11 10 2 0 4 -4 4 -10z m552
-30 c2 -23 1 -46 -3 -52 -4 -6 -8 12 -10 41 -5 60 7 70 13 11z m-155 8 c21
-19 23 -30 21 -102 0 -45 -3 -66 -5 -48 -4 33 -23 46 -23 15 0 -9 -3 -14 -6
-11 -3 4 -1 22 4 41 12 44 1 67 -23 47 -15 -12 -15 -11 -4 13 16 36 6 44 -27
21 -15 -11 -41 -27 -58 -37 -17 -11 -44 -31 -61 -46 -53 -48 -179 -136 -191
-133 -6 1 -14 -4 -18 -13 -3 -8 -10 -15 -15 -15 -20 0 -139 -112 -124 -117 5
-2 22 3 37 11 42 22 76 5 64 -31 -2 -4 -32 -8 -68 -10 -97 -3 -128 11 -75 35
16 7 23 17 19 26 -4 10 2 17 19 21 14 4 27 15 30 24 2 10 67 58 143 109 76 50
168 112 204 139 54 41 113 78 129 82 3 1 15 -9 28 -21z m-975 -10 c-7 -7 -12
-8 -12 -2 0 14 12 26 19 19 2 -3 -1 -11 -7 -17z m1928 8 c0 -8 -4 -18 -10 -21
-5 -3 -10 -15 -10 -25 0 -11 -9 -24 -20 -30 -10 -6 -17 -16 -15 -23 3 -6 1
-17 -3 -23 -15 -23 -122 -64 -122 -47 0 5 19 16 43 26 29 12 38 20 29 26 -11
7 -11 11 2 23 8 9 12 18 9 21 -3 4 9 19 28 34 18 15 38 33 43 40 15 17 26 16
26 -1z m-540 -27 c0 -6 -4 -7 -10 -4 -5 3 -10 11 -10 16 0 6 5 7 10 4 6 -3 10
-11 10 -16z m65 -19 c3 -5 1 -10 -4 -10 -6 0 -11 5 -11 10 0 6 2 10 4 10 3 0
8 -4 11 -10z m-1648 -22 c-3 -8 -6 -5 -6 6 -1 11 2 17 5 13 3 -3 4 -12 1 -19z
m2238 -20 c-4 -18 -13 -41 -19 -52 -16 -28 -59 -77 -63 -72 -6 5 77 156 85
156 2 0 0 -14 -3 -32z m-616 -12 c-3 -3 -11 5 -18 17 -13 21 -12 21 5 5 10
-10 16 -20 13 -22z m101 24 c0 -5 11 -10 24 -10 14 0 28 -5 32 -11 4 -8 -4 -9
-27 -4 -19 4 -37 9 -41 12 -11 6 -10 23 2 23 6 0 10 -4 10 -10z m560 -35 c0
-14 7 -28 16 -32 11 -4 14 -14 10 -34 -3 -16 -1 -31 4 -34 16 -10 12 -109 -5
-131 -16 -20 -16 -24 -1 94 2 17 0 32 -5 32 -5 0 -9 -4 -9 -10 0 -5 -7 -10
-15 -10 -18 0 -18 4 -6 47 15 53 -7 50 -30 -4 -15 -35 -22 -44 -29 -33 -5 9 0
30 16 62 13 26 24 54 24 63 0 8 7 15 15 15 9 0 15 -9 15 -25z m-852 -23 c2 -7
-3 -12 -12 -12 -9 0 -16 7 -16 16 0 17 22 14 28 -4z m-964 -47 c-4 -8 -8 -15
-10 -15 -2 0 -4 7 -4 15 0 8 4 15 10 15 5 0 7 -7 4 -15z m867 -65 c11 -40 17
-75 15 -78 -6 -5 -30 52 -40 93 -4 17 -9 38 -13 49 -3 12 -1 17 7 14 7 -2 21
-37 31 -78z m-131 56 c0 -3 -4 -8 -10 -11 -5 -3 -10 -1 -10 4 0 6 5 11 10 11
6 0 10 -2 10 -4z m-1623 -28 c-3 -8 -6 -5 -6 6 -1 11 2 17 5 13 3 -3 4 -12 1
-19z m250 -10 c-3 -8 -6 -5 -6 6 -1 11 2 17 5 13 3 -3 4 -12 1 -19z m2363 8
c0 -21 -28 -46 -51 -46 -16 0 -14 5 13 30 39 34 38 34 38 16z m-906 -12 c3 -8
2 -12 -4 -9 -6 3 -10 10 -10 16 0 14 7 11 14 -7z m-36 -29 c0 -13 -4 -22 -9
-19 -5 3 -9 16 -9 30 0 14 4 23 9 20 5 -3 9 -17 9 -31z m772 15 c-29 -23 -122
-53 -148 -48 -9 3 7 10 35 16 29 6 69 21 90 32 47 25 55 25 23 0z m-2305 -22
c-11 -36 -22 -41 -17 -8 2 16 9 30 14 30 5 0 6 -10 3 -22z m1496 -298 c6 -129
14 -256 19 -282 6 -42 5 -48 -10 -48 -19 0 -21 32 -36 435 -3 94 -8 174 -11
178 -3 4 1 15 9 24 11 14 13 11 15 -28 1 -24 8 -150 14 -279z m234 310 c3 -6
-1 -7 -9 -4 -10 4 -16 1 -16 -7 0 -7 -3 -10 -6 -6 -7 7 4 27 16 27 5 0 12 -4
15 -10z m240 -58 c-5 -6 -61 26 -75 43 -8 9 7 4 32 -12 25 -15 45 -29 43 -31z
m-1340 38 c-3 -5 -11 -10 -16 -10 -6 0 -7 5 -4 10 3 6 11 10 16 10 6 0 7 -4 4
-10z m1183 -20 c6 0 13 -4 16 -9 12 -18 -33 2 -51 22 -18 22 -18 22 3 5 11
-10 26 -18 32 -18z m-1955 -17 c-8 -52 -13 -54 -13 -5 0 23 4 42 9 42 6 0 7
-17 4 -37z m1535 27 c15 0 15 -2 2 -10 -8 -5 -10 -10 -3 -10 10 0 30 -111 24
-135 -1 -5 2 -44 8 -85 5 -41 13 -112 17 -158 l6 -83 -43 0 c-24 1 -90 -1
-146 -4 -90 -5 -103 -4 -103 10 0 9 -5 13 -10 10 -6 -4 -8 -11 -4 -16 3 -6 -5
-7 -23 -4 -26 6 -27 5 -10 -9 20 -16 16 -48 -9 -74 -12 -11 -14 -10 -14 11 0
13 -3 39 -6 56 -5 24 -3 31 9 31 27 0 108 113 91 128 -4 4 -9 1 -11 -6 -3 -7
-10 -17 -17 -23 -6 -5 -21 -17 -32 -27 -12 -9 -24 -26 -27 -37 -2 -11 -5 1 -6
28 -1 38 2 47 17 47 16 1 16 2 0 13 -21 16 -28 57 -31 181 l-2 98 57 18 c31
10 59 15 62 12 3 -3 12 0 20 7 8 7 33 14 55 17 23 3 51 9 64 14 12 5 28 7 35
4 8 -2 21 -4 30 -4z m1148 -45 c-22 -56 -41 -71 -31 -24 8 38 34 84 42 75 3
-3 -2 -26 -11 -51z m-751 -6 c17 -15 43 -39 58 -53 18 -17 23 -26 13 -26 -8 0
-21 7 -30 15 -8 8 -18 15 -23 15 -16 0 -61 46 -68 69 -8 28 3 23 50 -20z m328
34 c-13 -2 -33 -2 -45 0 -13 2 -3 4 22 4 25 0 35 -2 23 -4z m247 -8 c-7 -9
-15 -13 -19 -10 -3 3 1 10 9 15 21 14 24 12 10 -5z m-657 -45 c-6 -7 -23 23
-23 40 0 8 6 4 13 -10 8 -14 12 -27 10 -30z m-173 14 c0 -8 -4 -12 -10 -9 -5
3 -10 13 -10 21 0 8 5 12 10 9 6 -3 10 -13 10 -21z m-841 -16 c28 -18 51 -38
51 -45 0 -6 13 -14 30 -18 42 -9 109 -43 153 -78 44 -34 43 -50 -1 -18 -16 11
-50 29 -75 40 -25 11 -48 24 -51 30 -4 6 -16 11 -27 11 -11 0 -37 14 -58 30
-46 37 -111 52 -111 26 0 -14 -6 -16 -31 -11 -20 5 -29 3 -25 -3 3 -5 -7 -12
-23 -15 -16 -3 -89 -35 -162 -70 -149 -72 -247 -117 -255 -117 -2 0 3 11 12
26 9 14 23 23 30 20 7 -3 26 5 41 17 28 23 35 26 133 68 30 12 60 28 65 33 15
16 55 34 102 46 23 6 54 17 70 25 15 8 36 15 46 15 9 0 17 5 17 10 0 17 15 12
69 -22z m1587 17 c-23 -17 -36 -19 -36 -6 0 11 18 19 40 20 11 0 10 -3 -4 -14z
m-2469 -37 c-3 -7 -5 -2 -5 12 0 14 2 19 5 13 2 -7 2 -19 0 -25z m2133 4 c26
-11 30 -16 18 -19 -10 -3 -41 7 -70 21 -48 23 -50 25 -18 20 19 -4 51 -13 70
-22z m275 18 c3 -5 -3 -10 -14 -10 -12 0 -21 5 -21 10 0 6 6 10 14 10 8 0 18
-4 21 -10z m135 -5 c-7 -8 -17 -15 -22 -15 -6 0 -5 7 2 15 7 8 17 15 22 15 6
0 5 -7 -2 -15z m-269 -32 c16 -3 29 -9 29 -14 0 -16 -39 -10 -78 12 -33 19
-34 20 -8 14 15 -3 41 -9 57 -12z m-2234 -60 c-2 -16 -4 -5 -4 22 0 28 2 40 4
28 2 -13 2 -35 0 -50z m1928 19 c-8 -8 -25 17 -25 38 0 9 6 6 16 -8 9 -13 13
-26 9 -30z m692 1 c-17 -18 -22 -8 -11 22 5 12 10 13 17 6 8 -8 6 -16 -6 -28z
m-927 -29 c0 -8 -5 -12 -10 -9 -6 4 -8 11 -5 16 9 14 15 11 15 -7z m521 -3
c-11 -7 -10 -11 4 -19 16 -8 15 -9 -7 -9 -28 0 -34 27 -8 38 20 8 28 0 11 -10z
m491 -35 c-8 -30 -62 -116 -73 -116 -6 0 -5 9 1 20 6 12 8 30 5 41 -8 24 53
108 65 89 4 -7 5 -22 2 -34z m-317 24 c-3 -5 -16 -10 -28 -10 -18 0 -19 2 -7
10 20 13 43 13 35 0z m375 -24 c0 -8 -7 -19 -15 -26 -12 -10 -15 -10 -15 3 0
25 11 47 21 41 5 -3 9 -11 9 -18z m-866 -2 c3 -8 2 -12 -4 -9 -6 3 -10 10 -10
16 0 14 7 11 14 -7z m111 -32 c-6 -7 -35 18 -35 31 0 5 9 2 20 -8 11 -10 18
-20 15 -23z m601 1 c-10 -10 -19 5 -10 18 6 11 8 11 12 0 2 -7 1 -15 -2 -18z
m-549 -9 c-3 -3 -12 -4 -19 -1 -8 3 -5 6 6 6 11 1 17 -2 13 -5z m740 -71 c-2
-16 -4 -3 -4 27 0 30 2 43 4 28 2 -16 2 -40 0 -55z m-1617 41 c0 -11 -5 -10
-20 3 -11 10 -20 18 -20 19 0 1 9 0 20 -3 11 -3 20 -12 20 -19z m1055 6 c-3
-5 -20 -10 -36 -10 -18 0 -28 4 -24 10 3 6 20 10 36 10 18 0 28 -4 24 -10z
m335 5 c0 -2 -17 -12 -37 -21 -21 -10 -41 -19 -45 -21 -5 -2 -8 -2 -8 2 0 8
63 45 78 45 6 0 12 -2 12 -5z m181 -56 c-6 -16 -10 -18 -10 -7 -1 22 12 55 16
42 2 -6 -1 -22 -6 -35z m-43 -45 c-1 -41 -5 -77 -10 -80 -4 -3 -8 6 -8 21 0
23 -2 25 -21 15 -29 -16 -35 -6 -15 24 9 14 16 30 16 36 0 10 31 59 37 60 1 0
2 -34 1 -76z m-1858 56 c0 -5 -4 -10 -10 -10 -5 0 -10 5 -10 10 0 6 5 10 10
10 6 0 10 -4 10 -10z m-650 -10 c0 -5 -11 -17 -25 -26 -53 -35 -17 -79 55 -68
37 6 40 5 40 -16 0 -14 -5 -20 -13 -17 -7 3 -32 2 -55 -3 -37 -6 -44 -5 -67
21 -14 16 -25 32 -25 36 0 5 16 25 35 46 33 36 55 47 55 27z m2270 6 c0 -7
-93 -57 -97 -52 -3 3 17 16 44 30 53 28 53 28 53 22z m-145 -16 c-3 -5 -16
-10 -28 -9 -21 0 -21 1 -2 9 28 12 37 12 30 0z m151 -25 c-11 -8 -25 -15 -30
-15 -6 0 -2 7 8 15 11 8 25 15 30 15 6 0 2 -7 -8 -15z m-1398 -20 l102 -7 0
-42 c0 -32 -6 -48 -25 -66 -30 -28 -34 -51 -5 -25 11 10 22 16 24 14 2 -2 6
-69 7 -149 3 -140 2 -145 -18 -148 -15 -2 -22 4 -27 22 -8 31 -26 35 -26 6 0
-19 -7 -20 -89 -20 -63 0 -91 4 -94 13 -3 9 -9 9 -29 -1 -13 -8 -56 -15 -94
-17 -38 -2 -94 -7 -125 -11 l-57 -7 -6 49 c-7 56 -10 134 -5 149 5 15 -10 83
-20 89 -6 4 -127 -23 -156 -35 -5 -2 -9 -10 -7 -16 2 -7 -3 -13 -11 -13 -7 0
-22 -6 -32 -14 -17 -13 -18 -15 -3 -30 19 -18 34 -5 24 20 -4 10 -1 14 6 12 8
-3 11 -21 8 -54 -3 -27 -5 -79 -5 -116 0 -66 -8 -78 -32 -48 -12 13 -14 13
-24 -2 -5 -10 -18 -18 -28 -18 -22 0 -31 38 -31 126 1 32 0 113 -1 178 l-2
120 38 13 c37 12 60 10 50 -6 -2 -5 -19 -11 -36 -15 -33 -6 -36 -33 -3 -28 47
7 75 25 69 43 -6 17 0 19 47 20 29 1 100 4 158 8 174 10 349 12 458 6z m1132
-25 c0 -13 -30 -13 -50 0 -11 7 -7 10 18 10 17 0 32 -4 32 -10z m550 -172 c0
-100 -2 -179 -5 -176 -15 15 -14 358 1 358 1 0 3 -82 4 -182z m-1036 62 c2
-18 1 -29 -3 -24 -5 5 -11 29 -14 54 -7 51 8 25 17 -30z m-1717 8 c-3 -8 -6
-5 -6 6 -1 11 2 17 5 13 3 -3 4 -12 1 -19z m2553 12 c0 -5 -4 -10 -10 -10 -5
0 -10 5 -10 10 0 6 5 10 10 10 6 0 10 -4 10 -10z m-970 -17 c0 -10 3 -77 6
-149 l6 -132 -62 -7 c-70 -8 -104 7 -57 24 15 6 27 17 27 25 0 7 7 19 15 26 8
7 15 17 15 22 0 6 -7 5 -15 -2 -19 -16 -20 -2 -1 19 13 15 38 102 34 118 -1 5
2 23 6 41 8 34 26 44 26 15z m1121 -24 c-9 -23 -10 -22 -10 11 -1 23 2 31 9
24 7 -7 7 -19 1 -35z m-2521 21 c0 -5 -2 -10 -4 -10 -3 0 -8 5 -11 10 -3 6 -1
10 4 10 6 0 11 -4 11 -10z m1330 -24 c0 -19 -5 -38 -10 -41 -6 -4 -8 -11 -5
-16 7 -10 -15 -12 -39 -3 -23 9 -22 84 1 84 13 0 14 -3 5 -12 -7 -7 -12 -16
-12 -21 0 -5 9 2 21 17 28 35 39 33 39 -8z m1150 25 c0 -5 -9 -19 -20 -32 -16
-20 -19 -21 -20 -6 0 9 5 17 10 17 6 0 10 7 10 15 0 8 5 15 10 15 6 0 10 -4
10 -9z m-777 -8 c-7 -2 -19 -2 -25 0 -7 3 -2 5 12 5 14 0 19 -2 13 -5z m612
-3 c3 -5 1 -10 -4 -10 -6 0 -11 5 -11 10 0 6 2 10 4 10 3 0 8 -4 11 -10z
m-1097 -31 c-13 -38 -25 -44 -37 -20 -14 25 -14 44 -1 36 6 -3 10 -2 10 2 0 5
9 9 19 10 17 1 18 -2 9 -28z m1048 16 c-20 -15 -36 -19 -36 -10 0 5 38 23 50
24 3 0 -4 -6 -14 -14z m-1120 -59 c-2 -35 -7 -69 -10 -75 -15 -23 -22 -9 -24
48 -2 43 2 63 13 75 9 9 18 16 21 16 2 0 2 -29 0 -64z m1244 60 c0 -3 -4 -8
-10 -11 -5 -3 -10 -1 -10 4 0 6 5 11 10 11 6 0 10 -2 10 -4z m-2003 -18 c0 -7
4 -21 8 -30 4 -11 3 -18 -4 -18 -6 0 -11 9 -11 21 0 16 -4 19 -22 14 -22 -6
-22 -6 -4 9 24 19 33 20 33 4z m1721 -12 c-7 -8 -16 -12 -21 -9 -11 7 2 23 19
23 12 0 12 -2 2 -14z m401 -26 c15 0 19 -12 24 -82 9 -107 7 -210 -3 -273 -8
-47 -8 -46 -5 18 2 49 0 67 -8 64 -7 -2 -13 -15 -14 -28 -7 -78 -11 -111 -17
-116 -3 -4 -6 -16 -6 -28 0 -29 -32 -65 -59 -65 l-21 0 20 37 c27 50 27 72 0
48 -19 -17 -20 -17 -20 0 0 14 -3 15 -15 5 -11 -9 -10 0 5 33 12 27 18 56 15
69 -3 13 -1 37 5 52 9 26 9 27 -5 16 -13 -11 -15 -7 -15 31 0 44 -13 79 -25
67 -3 -3 -6 -61 -6 -128 0 -67 -5 -127 -10 -134 -5 -6 -16 -20 -23 -31 -13
-19 -15 -18 -21 18 -6 32 0 87 21 178 4 19 2 26 -9 26 -10 0 -20 -16 -26 -43
-20 -79 -37 -59 -32 36 1 14 -2 37 -7 50 -8 21 -10 17 -16 -30 -7 -57 7 -157
24 -174 15 -15 12 -36 -4 -36 -7 0 -20 -10 -28 -22 -15 -22 -15 -22 -26 -3 -7
14 -7 34 0 65 14 63 11 122 -7 133 -8 4 -15 18 -15 30 0 12 -4 28 -9 35 -12
20 -23 -28 -15 -67 6 -27 4 -31 -15 -31 -17 0 -21 -6 -21 -31 0 -19 -4 -28
-11 -23 -7 4 -8 27 -4 68 l7 61 -27 -25 c-25 -24 -27 -29 -22 -92 6 -87 -8
-79 -18 9 -7 71 -13 93 -24 93 -10 0 -10 -36 1 -114 7 -56 5 -76 -7 -103 -26
-54 -41 -41 -36 30 1 15 -3 27 -8 27 -13 0 -15 27 -2 32 5 2 7 16 4 31 -7 35
-23 17 -23 -25 0 -15 -4 -29 -9 -32 -10 -7 -21 41 -21 95 0 22 -4 39 -9 39 -5
0 -12 10 -15 23 -2 12 -4 -24 -2 -80 1 -78 -1 -103 -11 -103 -9 0 -13 18 -15
58 0 31 -2 62 -3 67 -2 6 -4 30 -5 55 -1 25 -4 39 -7 32 -2 -6 -8 -10 -12 -8
-4 3 -5 -11 -3 -31 3 -25 0 -38 -11 -45 -9 -5 -19 -24 -23 -43 -3 -18 -12 -36
-20 -39 -8 -3 -14 -15 -14 -26 0 -21 -20 -29 -20 -7 -2 76 -15 193 -22 198 -6
4 -6 14 1 28 10 17 9 21 -4 21 -13 0 -15 -18 -14 -132 2 -95 6 -136 16 -146
15 -16 17 -42 3 -42 -5 0 -7 7 -4 15 4 8 -1 17 -10 21 -12 5 -16 22 -17 78 -1
62 -2 66 -8 29 -12 -69 -36 -73 -34 -6 1 21 -6 43 -15 52 -14 15 -15 15 -10 0
4 -9 2 -34 -3 -55 -5 -22 -9 -67 -10 -102 0 -54 -2 -62 -19 -62 -16 0 -18 6
-14 37 5 36 5 37 -10 19 -9 -11 -16 -28 -16 -38 0 -28 -17 -21 -22 9 -2 16 -4
89 -3 164 1 109 4 141 17 161 18 27 13 45 -7 28 -18 -15 -26 11 -11 32 8 11
25 16 47 16 19 -1 42 2 52 7 17 7 18 6 6 -13 -10 -16 -10 -26 -2 -44 7 -13 14
-32 16 -43 3 -11 5 3 6 30 1 41 6 53 26 68 22 15 25 16 25 2 0 -8 5 -15 10
-15 6 0 10 -8 10 -17 0 -13 4 -11 13 7 9 17 20 24 36 22 13 -1 29 2 36 8 9 8
13 7 12 -2 -2 -48 5 -88 14 -88 7 0 9 17 4 53 -4 34 -3 47 3 38 14 -19 40 -7
48 23 l6 25 21 -25 c25 -29 57 -24 57 7 0 10 5 19 10 19 6 0 10 -6 10 -14 0
-7 7 -20 16 -27 14 -11 18 -10 31 6 14 19 15 19 24 2 10 -17 13 -17 34 -3 12
8 32 12 44 9 17 -4 24 0 28 16 7 28 17 27 37 -4 9 -14 21 -23 26 -20 6 4 10
-10 10 -31 0 -53 9 -37 11 19 2 45 11 58 24 37 10 -16 37 -12 51 8 12 16 13
16 18 0 3 -10 9 -26 13 -35 3 -10 8 -27 10 -37 7 -36 13 -30 13 12 0 22 5 44
10 47 6 3 10 15 10 25 0 17 2 17 24 -5 13 -13 26 -30 29 -37 3 -7 9 7 13 32 6
30 10 38 12 23 2 -14 10 -23 21 -23z m-469 15 c0 -8 -4 -15 -9 -15 -5 0 -11 7
-15 15 -3 9 0 15 9 15 8 0 15 -7 15 -15z m-1717 -5 c18 -1 19 -2 6 -10 -18
-11 -59 -2 -59 12 0 6 7 7 16 4 9 -3 25 -6 37 -6z m1637 -5 c0 -8 -4 -15 -9
-15 -13 0 -22 16 -14 24 11 11 23 6 23 -9z m-943 -62 c-2 -16 -4 -5 -4 22 0
28 2 40 4 28 2 -13 2 -35 0 -50z m857 52 c-4 -8 -8 -15 -10 -15 -2 0 -4 7 -4
15 0 8 4 15 10 15 5 0 7 -7 4 -15z m-77 -17 c-3 -8 -6 -5 -6 6 -1 11 2 17 5
13 3 -3 4 -12 1 -19z m-1851 -25 c-11 -11 -17 4 -9 23 7 18 8 18 11 1 2 -10 1
-21 -2 -24z m338 22 c-4 -9 0 -15 10 -15 9 0 16 -8 16 -20 0 -11 -4 -20 -9
-20 -5 0 -12 -13 -16 -30 -11 -52 -20 -33 -17 35 2 36 8 65 13 65 4 0 6 -7 3
-15z m930 -18 c-3 -8 -12 -18 -20 -21 -10 -4 -13 -2 -8 7 21 37 41 47 28 14z
m94 12 c12 1 22 -2 22 -8 0 -6 -5 -11 -11 -11 -5 0 -8 -4 -5 -9 4 -5 -14 -9
-39 -9 -25 0 -45 4 -45 10 0 6 9 8 21 5 17 -5 20 -2 16 14 -3 13 -1 17 6 12 7
-4 22 -6 35 -4z m-936 -9 c2 -5 1 -42 -2 -81 -4 -63 -8 -73 -27 -80 -28 -10
-28 -8 -3 21 24 27 25 40 5 40 -16 0 -16 20 0 33 6 4 -3 4 -20 1 -29 -7 -29
-7 -12 11 10 10 16 26 14 37 -3 10 -1 16 4 12 5 -3 9 0 9 5 0 14 27 14 32 1z
m739 -65 c17 -14 37 -24 45 -21 8 3 14 -1 14 -9 0 -27 19 -25 53 5 20 17 46
30 61 30 l26 0 -18 -37 c-9 -21 -20 -39 -24 -41 -5 -2 -8 -10 -8 -18 0 -11
-17 -14 -77 -14 -43 0 -85 4 -93 10 -9 5 -19 5 -27 -2 -10 -8 -13 -1 -15 36
-1 25 -2 61 -4 79 -2 41 29 73 34 34 2 -14 17 -37 33 -52z m376 -32 c-2 -43
-6 -58 -17 -58 -13 0 -27 31 -29 66 -1 9 8 19 20 22 12 3 18 10 14 16 -3 6 -2
11 4 11 6 0 9 -24 8 -57z m-1437 37 c0 -5 -4 -10 -10 -10 -5 0 -10 5 -10 10 0
6 5 10 10 10 6 0 10 -4 10 -10z m-218 -81 c21 -11 21 -12 3 -25 -18 -14 -18
-15 -2 -32 22 -22 36 -4 29 36 -4 22 -3 25 9 15 8 -6 34 -16 58 -23 46 -12 72
-6 114 29 24 20 21 6 -15 -72 -21 -44 -36 -66 -45 -63 -8 3 -13 -2 -13 -15 0
-35 33 -17 58 31 l22 45 -1 -40 c-1 -22 -1 -51 0 -65 2 -24 2 -24 16 -6 8 11
15 28 15 37 0 14 7 17 30 14 26 -4 30 -1 30 20 0 14 5 25 11 25 8 0 10 -15 5
-47 -6 -43 -5 -45 9 -28 8 11 15 29 15 41 0 12 7 21 15 21 21 0 18 -37 -5 -67
-21 -26 -27 -60 -10 -60 5 0 14 17 20 39 5 21 17 44 25 51 13 11 15 8 13 -16
-1 -16 -5 -34 -10 -40 -6 -8 -1 -11 17 -10 28 1 37 20 39 76 1 31 5 35 41 46
22 6 45 9 50 5 18 -10 39 -10 46 1 4 5 16 7 27 4 18 -6 20 -11 12 -32 -6 -14
-10 -33 -10 -42 0 -15 2 -15 10 -2 11 17 12 12 10 -51 -1 -31 4 -50 14 -58 9
-8 16 -25 17 -40 l1 -26 8 25 c6 19 8 14 7 -22 -1 -31 -6 -48 -14 -48 -7 0
-13 10 -13 23 -1 22 -1 22 -16 2 -14 -19 -15 -19 -21 5 l-7 25 -6 -25 c-4 -16
-14 -26 -29 -28 -19 -3 -22 0 -16 17 4 12 2 21 -4 21 -6 0 -11 -8 -12 -17 0
-14 -2 -15 -6 -3 -3 8 -9 17 -14 20 -4 3 -1 30 7 60 16 63 18 90 5 90 -14 0
-20 -25 -27 -100 -4 -37 -9 -73 -13 -78 -3 -5 -46 -13 -94 -17 -87 -7 -89 -6
-82 14 5 17 3 20 -10 14 -15 -5 -16 -1 -10 27 5 23 4 30 -4 26 -7 -5 -11 3
-12 21 0 16 -3 21 -6 13 -7 -19 -43 -53 -44 -43 -1 4 0 18 1 31 2 34 -27 27
-35 -8 -4 -16 -3 -35 1 -42 6 -9 3 -9 -9 1 -9 7 -17 25 -18 40 l-1 26 -7 -25
c-5 -14 -4 -32 0 -41 10 -20 82 -36 87 -20 2 7 10 6 23 -2 39 -24 21 -35 -68
-41 -49 -4 -121 -9 -161 -12 -57 -4 -73 -2 -71 8 4 20 -11 339 -17 371 -6 30
4 34 38 16z m473 1 c6 -10 -10 -47 -31 -67 -20 -20 -24 -15 -13 17 6 17 15 30
21 30 6 0 8 7 4 15 -6 17 9 21 19 5z m1422 -52 c-3 -8 -6 -5 -6 6 -1 11 2 17
5 13 3 -3 4 -12 1 -19z m-744 -40 c-4 -24 -7 -55 -7 -70 1 -16 -2 -28 -6 -28
-4 0 -11 -10 -14 -22 -7 -22 -7 -22 -15 -3 -4 11 -11 46 -14 78 -6 62 7 87 44
87 17 0 18 -5 12 -42z m507 17 c0 -13 -7 -28 -16 -33 -10 -6 -17 -29 -21 -68
-4 -48 -1 -68 15 -101 12 -22 18 -43 15 -47 -4 -3 -71 -6 -150 -6 -118 0 -142
2 -131 13 7 7 23 13 36 14 29 2 49 18 67 54 8 15 28 41 45 57 34 34 45 79 12
49 -33 -30 -37 -19 -15 41 3 6 -1 12 -9 12 -9 0 -18 -23 -26 -67 -9 -48 -21
-76 -39 -95 -38 -39 -46 -35 -38 18 4 30 2 50 -6 60 -10 12 -7 20 14 42 14 15
27 36 29 47 2 16 12 21 51 23 46 3 47 3 47 -27 0 -16 5 -33 11 -37 13 -7 5
-42 -22 -98 -32 -67 -19 -118 21 -81 24 22 34 68 21 93 -12 23 4 82 26 95 7 4
13 18 13 31 0 27 7 36 32 36 12 0 18 -7 18 -25z m-671 -27 c-12 -50 -4 -84 12
-55 8 14 14 15 24 7 10 -9 19 -6 35 10 l21 21 -8 -53 c-4 -29 -7 -64 -6 -78 1
-13 -5 -33 -14 -45 -13 -19 -14 -17 -8 17 7 38 0 78 -15 78 -4 0 -12 -26 -16
-57 -6 -36 -14 -58 -21 -57 -7 1 -31 2 -52 3 -35 1 -39 3 -34 24 5 21 4 21
-16 -3 l-21 -25 0 68 c0 37 -4 67 -9 67 -5 0 -12 -30 -16 -66 -6 -56 -10 -66
-31 -74 -15 -6 -22 -15 -18 -25 4 -10 0 -15 -10 -15 -9 0 -16 5 -16 12 0 6 -7
4 -18 -5 -27 -25 -31 -21 -26 20 3 29 2 33 -5 18 -12 -24 -13 -17 -12 58 0 49
-2 57 -19 57 -10 0 -21 -6 -23 -12 -3 -7 -6 22 -6 65 -1 71 0 77 20 77 15 0
19 -5 15 -17 -16 -56 -18 -76 -7 -69 6 4 11 13 11 20 0 8 6 26 14 41 l14 27
10 -49 c5 -26 8 -64 6 -83 l-4 -35 16 35 c18 38 21 72 9 108 -6 18 -4 22 13
22 16 0 21 -9 26 -45 4 -25 5 -49 2 -54 -3 -5 1 -12 10 -15 21 -8 39 16 55 72
13 46 29 56 29 17 0 -14 5 -25 11 -25 11 0 5 -93 -8 -127 -3 -7 0 -13 6 -13 6
0 11 7 11 15 0 8 5 15 10 15 6 0 10 -6 10 -14 0 -19 26 -27 39 -12 17 21 25
76 11 76 -6 0 -14 -9 -17 -21 -9 -33 -23 -1 -23 54 0 26 -4 47 -10 47 -5 0
-10 9 -10 20 0 16 7 20 34 20 l34 0 -9 -42z m74 10 c-11 -18 -23 -33 -29 -33
-5 0 -10 15 -12 33 -3 30 -1 32 28 32 l32 0 -19 -32z m174 2 c0 -16 -4 -30 -9
-30 -4 0 -8 -6 -8 -14 0 -7 -6 -19 -14 -25 -11 -9 -15 -3 -20 34 -8 53 -3 65
28 65 19 0 23 -5 23 -30z m103 0 c0 -36 -28 -110 -42 -110 -6 0 -7 16 -3 40 4
26 3 40 -4 40 -6 0 -11 -7 -11 -15 0 -30 -43 -140 -63 -162 -30 -34 -36 -29
-35 29 0 30 -5 54 -11 56 -19 6 -12 25 8 19 36 -9 59 23 87 121 2 6 19 12 39
12 32 0 35 -2 35 -30z m80 25 c0 -2 -5 -16 -12 -30 -16 -35 -38 -32 -38 5 0
25 4 30 25 30 14 0 25 -2 25 -5z m-560 -24 c0 -15 -28 -52 -31 -40 -10 48 -7
59 17 59 8 0 14 -8 14 -19z m-420 -11 c0 -5 -4 -10 -10 -10 -5 0 -10 5 -10 10
0 6 5 10 10 10 6 0 10 -4 10 -10z m1886 -64 c-4 -19 -12 -38 -18 -42 -7 -5 -9
5 -3 32 4 21 9 43 12 47 10 17 15 -3 9 -37z m-311 -108 c7 -28 6 -28 -38 -28
l-45 0 23 55 c12 31 25 58 29 62 3 3 7 16 7 27 1 12 5 -4 9 -34 4 -30 11 -67
15 -82z m-651 90 c-6 -29 -5 -31 10 -19 14 11 16 11 16 -3 0 -9 -7 -19 -16
-23 -11 -4 -14 -14 -10 -33 4 -21 -1 -33 -20 -51 -21 -20 -27 -21 -34 -9 -16
25 -12 46 21 110 34 67 44 76 33 28z m306 2 c0 -5 -4 -10 -10 -10 -5 0 -10 5
-10 10 0 6 5 10 10 10 6 0 10 -4 10 -10z m-118 -82 c-10 -22 -11 -21 -11 12
-1 26 2 31 11 22 8 -8 8 -17 0 -34z m-395 -11 c3 -42 -8 -58 -34 -51 -14 4
-20 12 -16 22 4 13 1 13 -11 -2 -20 -25 -25 -19 -19 22 6 34 19 43 25 15 3
-16 5 -16 23 4 27 29 30 28 32 -10z m129 2 c-3 -17 -6 -38 -6 -45 0 -8 -9 -14
-21 -14 -11 0 -19 3 -17 8 2 4 10 24 18 45 17 45 35 49 26 6z m534 16 c0 -8
-4 -15 -10 -15 -5 0 -7 7 -4 15 4 8 8 15 10 15 2 0 4 -7 4 -15z m523 -24 c7
-31 40 -57 58 -45 6 3 17 20 24 38 l14 31 11 -32 c15 -42 55 -46 70 -8 5 14
14 25 19 25 6 0 8 -7 5 -15 -4 -8 -1 -22 6 -30 7 -8 11 -15 9 -15 -2 0 -55 -3
-118 -7 -102 -5 -115 -4 -127 12 -8 10 -31 19 -58 22 -31 4 -46 10 -46 20 0 8
5 11 11 7 7 -4 27 -8 46 -10 28 -3 36 1 45 21 13 30 23 25 31 -14z m-663 4 c0
-8 -4 -15 -10 -15 -5 0 -7 7 -4 15 4 8 8 15 10 15 2 0 4 -7 4 -15z m420 -16
c0 -5 -7 -9 -15 -9 -15 0 -20 12 -9 23 8 8 24 -1 24 -14z m-246 -10 c-6 -11
-24 -2 -24 11 0 5 7 7 15 4 8 -4 12 -10 9 -15z m295 -30 c-16 -10 -51 -12 -73
-3 -29 11 -8 19 39 16 32 -3 43 -7 34 -13z m79 4 c-10 -2 -28 -2 -40 0 -13 2
-5 4 17 4 22 1 32 -1 23 -4z m-1228 -13 c0 -5 -10 -10 -22 -10 -13 0 -41 -3
-63 -7 -37 -6 -39 -5 -26 10 15 19 111 25 111 7z m-145 -10 c3 -5 1 -10 -4
-10 -6 0 -11 5 -11 10 0 6 2 10 4 10 3 0 8 -4 11 -10z m253 3 c-10 -2 -26 -2
-35 0 -10 3 -2 5 17 5 19 0 27 -2 18 -5z m1087 -23 c12 -5 -32 -8 -115 -8
-111 1 -123 3 -65 8 104 10 158 10 180 0z"/>
<path d="M2530 1950 c0 -5 5 -10 10 -10 6 0 10 5 10 10 0 6 -4 10 -10 10 -5 0
-10 -4 -10 -10z"/>
<path d="M2596 1912 c-3 -5 9 -28 26 -51 32 -44 49 -50 27 -9 -7 12 -14 26
-15 31 -1 4 -3 10 -4 15 -1 4 -2 10 -1 15 1 10 -27 9 -33 -1z"/>
<path d="M2650 1900 c0 -5 5 -10 11 -10 5 0 7 5 4 10 -3 6 -8 10 -11 10 -2 0
-4 -4 -4 -10z"/>
<path d="M2473 1747 c12 -24 24 -39 26 -34 4 11 -31 77 -41 77 -4 0 3 -19 15
-43z"/>
<path d="M1482 1200 c-6 -10 -8 -21 -3 -24 5 -3 11 4 14 16 8 29 4 32 -11 8z"/>
<path d="M1670 1174 c0 -6 -30 -11 -67 -11 -38 -1 -80 -6 -94 -11 -19 -8 -30
-7 -39 1 -10 9 -14 9 -17 0 -3 -7 -11 -13 -19 -13 -8 0 -14 -7 -14 -15 0 -8
-4 -15 -10 -15 -5 0 -10 -8 -10 -17 1 -17 1 -17 14 0 23 30 32 19 34 -39 2
-86 22 -91 28 -7 5 57 10 73 23 73 6 0 10 -27 9 -62 l-2 -63 57 0 c31 0 57 4
57 9 0 4 11 6 25 4 22 -5 25 -2 25 23 0 15 5 50 12 78 9 40 9 54 0 63 -7 7
-12 8 -12 2z m-17 -84 c-7 -53 -3 -46 -30 -54 -22 -7 -23 -5 -23 48 0 56 0 56
30 54 29 -2 29 -3 23 -48z m-83 31 c0 -12 -29 -47 -30 -34 0 6 -2 18 -5 25 -4
9 2 14 15 15 11 1 20 -2 20 -6z m1 -94 c-19 -19 -23 0 -9 39 l13 38 3 -33 c2
-19 -1 -38 -7 -44z"/>
<path d="M1285 840 c-4 -6 -10 -8 -15 -5 -5 3 -11 1 -15 -5 -4 -6 4 -10 19
-10 26 0 43 15 27 24 -5 4 -12 2 -16 -4z"/>
<path d="M1165 833 c11 -3 26 -10 33 -15 9 -8 12 -6 12 6 0 12 -9 16 -32 15
-22 -1 -26 -3 -13 -6z"/>
<path d="M616 801 c-3 -5 1 -12 10 -15 20 -8 29 -1 19 13 -8 13 -22 14 -29 2z"/>
<path d="M1005 759 c-16 -4 -51 -11 -77 -14 -27 -4 -48 -10 -48 -16 0 -12 46
-11 93 2 44 12 63 5 26 -10 -13 -5 -34 -13 -46 -17 -16 -7 -20 -13 -13 -23 7
-12 13 -13 36 -2 39 18 58 -3 25 -30 -28 -23 -41 -24 -41 -3 0 11 -6 14 -20 9
-11 -4 -20 -2 -20 4 0 6 -5 11 -12 11 -7 0 -6 -6 4 -17 26 -30 28 -51 8 -56
-24 -6 -34 22 -25 69 6 37 1 42 -20 20 -15 -15 -12 -76 7 -141 14 -50 20 -56
37 -45 12 7 12 11 2 24 -11 13 -6 14 36 13 26 -1 79 1 117 5 59 7 67 6 62 -7
-7 -20 21 -32 37 -16 8 8 6 11 -8 11 -14 0 -16 3 -7 12 13 13 82 18 82 6 0 -4
5 -8 11 -8 8 0 9 13 5 39 -3 22 -2 42 3 45 5 4 8 21 7 39 -2 17 -4 40 -5 50 0
11 -6 15 -12 11 -9 -5 -10 1 -5 20 l6 26 -107 -1 c-60 -1 -121 -5 -138 -10z
m187 -69 c-2 -17 -14 -37 -25 -45 l-21 -15 22 0 c13 0 22 -6 22 -15 0 -10 -10
-15 -27 -15 -25 0 -28 4 -31 36 -2 32 0 35 13 24 16 -14 18 -10 9 14 -3 9 -10
13 -15 10 -5 -3 -9 -1 -9 4 0 5 15 14 33 20 17 5 32 10 33 11 0 1 -1 -13 -4
-29z m-116 -6 c-4 -12 -1 -14 14 -9 18 6 20 2 20 -34 0 -23 -4 -41 -10 -41 -5
0 -10 15 -10 33 -1 29 -2 30 -13 12 -12 -21 -14 -26 -16 -50 0 -8 -7 -15 -15
-15 -10 0 -13 9 -11 28 2 15 4 31 4 35 1 5 6 5 11 2 6 -3 10 3 10 14 0 12 -6
21 -12 21 -9 0 -8 4 2 10 22 14 33 12 26 -6z m-72 -92 c-5 -23 -12 -32 -26
-32 -16 0 -17 3 -8 20 6 11 7 20 3 20 -4 0 1 7 11 15 25 19 28 15 20 -23z
m-64 -22 c-20 -13 -43 -13 -35 0 3 6 16 10 28 10 18 0 19 -2 7 -10z"/>
<path d="M835 720 c-3 -5 3 -10 14 -10 12 0 21 5 21 10 0 6 -6 10 -14 10 -8 0
-18 -4 -21 -10z"/>
<path d="M1732 608 c-6 -6 -12 -19 -12 -27 0 -13 2 -13 16 1 9 9 15 21 13 27
-3 9 -8 8 -17 -1z"/>
<path d="M2516 579 c-4 -32 -3 -56 3 -62 15 -15 18 -9 25 56 6 46 5 57 -7 57
-10 0 -17 -16 -21 -51z"/>
<path d="M2244 586 c-3 -14 -3 -33 0 -42 9 -24 32 -1 31 32 0 36 -22 43 -31
10z"/>
<path d="M2376 591 c-4 -6 -4 -16 -1 -21 4 -6 1 -17 -5 -25 -10 -11 -10 -15
-1 -15 7 0 10 -4 6 -9 -3 -5 -1 -12 4 -15 13 -8 25 74 13 86 -6 6 -12 6 -16
-1z"/>
<path d="M2190 510 c0 -5 5 -10 10 -10 6 0 10 5 10 10 0 6 -4 10 -10 10 -5 0
-10 -4 -10 -10z"/>
<path d="M2805 486 c-7 -37 8 -72 26 -60 13 8 11 38 -5 69 l-15 28 -6 -37z"/>
<path d="M274 439 c-3 -6 -1 -16 5 -22 6 -6 11 -33 11 -59 0 -55 15 -64 24
-15 4 17 9 44 13 60 3 16 1 27 -6 27 -6 0 -11 -12 -12 -27 0 -27 -1 -27 -9 -5
-5 12 -7 29 -4 37 7 17 -11 21 -22 4z"/>
<path d="M707 370 c-3 -11 -1 -22 3 -25 11 -7 32 30 23 39 -11 11 -21 6 -26
-14z"/>
<path d="M766 381 c-3 -4 -8 -35 -11 -67 -4 -33 -8 -70 -11 -82 -3 -15 -1 -21
6 -17 5 3 10 17 10 31 0 34 16 30 23 -6 4 -20 11 -28 20 -24 15 5 21 60 7 69
-4 3 -11 28 -15 55 -6 47 -17 61 -29 41z m24 -71 c0 -5 -5 -10 -11 -10 -5 0
-7 5 -4 10 3 6 8 10 11 10 2 0 4 -4 4 -10z"/>
<path d="M222 351 c-19 -12 -12 -96 8 -96 11 0 16 13 18 44 4 47 -5 65 -26 52z"/>
<path d="M466 313 c-4 -9 -2 -21 4 -27 7 -7 10 -2 10 17 0 31 -5 34 -14 10z"/>
<path d="M682 305 c-6 -14 -10 -25 -8 -25 2 0 11 11 20 25 9 14 13 25 8 25 -5
0 -14 -11 -20 -25z"/>
<path d="M346 292 c-4 -13 -5 -26 -2 -29 10 -11 18 4 14 29 l-4 23 -8 -23z"/>
<path d="M292 271 c-10 -28 -10 -36 0 -43 14 -8 22 17 16 55 -3 19 -5 17 -16
-12z"/>
<path d="M642 231 c-13 -36 -9 -51 13 -51 7 0 16 -8 18 -17 3 -10 5 1 6 25 0
23 -3 42 -8 42 -5 0 -11 8 -13 18 -3 12 -7 7 -16 -17z"/>
<path d="M317 199 c-17 -10 -24 -59 -8 -59 9 0 36 58 30 65 -2 2 -12 -1 -22
-6z"/>
<path d="M537 203 c-11 -10 -8 -43 3 -43 6 0 10 11 10 25 0 26 -2 29 -13 18z"/>
<path d="M231 158 c-2 -62 29 -57 43 7 l7 30 -20 -24 -19 -25 -5 25 c-3 17 -5
14 -6 -13z"/>
<path d="M968 259 c-19 -11 -26 -69 -8 -69 14 0 32 38 28 60 -2 15 -7 17 -20
9z"/>
</g>
</svg>
