<?xml version="1.0" standalone="no"?>
<!DOCTYPE svg PUBLIC "-//W3C//DTD SVG 20010904//EN"
 "http://www.w3.org/TR/2001/REC-SVG-20010904/DTD/svg10.dtd">
<svg version="1.0" xmlns="http://www.w3.org/2000/svg"
 width="308.000000pt" height="162.000000pt" viewBox="0 0 308.000000 162.000000"
 preserveAspectRatio="xMidYMid meet">
<metadata>
Created by potrace 1.16, written by Peter Selinger 2001-2019
</metadata>
<g transform="translate(0.000000,162.000000) scale(0.100000,-0.100000)"
fill="#000000" stroke="none">
<path d="M2900 1586 c-7 -14 -20 -24 -29 -24 -125 1 -527 -30 -708 -56 -99
-14 -136 -13 -160 6 -17 14 -180 13 -197 -1 -8 -7 -29 -11 -47 -10 -31 1 -69
-6 -138 -27 -16 -5 -22 -4 -18 3 9 15 -39 22 -77 12 -18 -5 -73 -11 -122 -13
-49 -2 -96 -6 -104 -9 -15 -6 -135 -27 -156 -27 -7 0 -9 11 -7 28 l5 27 -24
-27 c-20 -23 -33 -27 -106 -33 -45 -3 -117 -10 -160 -16 -42 -5 -198 -12 -345
-16 -147 -3 -270 -10 -273 -15 -10 -15 -24 -8 -34 17 -13 35 -22 31 -43 -18
-24 -56 -36 -239 -36 -572 0 -253 13 -526 29 -614 5 -28 3 -66 -6 -108 -7 -36
-11 -70 -8 -74 10 -16 22 -9 28 16 5 21 13 25 44 27 20 1 51 0 67 -1 17 -1 82
2 145 8 63 6 176 16 250 22 74 6 139 15 144 20 14 13 73 11 82 -2 4 -6 20 -9
38 -5 17 3 129 10 249 15 120 6 266 16 325 22 59 6 116 11 127 10 11 0 71 6
133 15 63 8 135 15 160 15 26 0 111 1 189 2 114 2 144 -1 148 -12 4 -10 18
-12 49 -9 24 3 50 2 57 -2 8 -4 82 -2 164 6 83 7 179 13 215 14 37 0 77 7 93
15 16 8 42 16 58 17 25 2 34 11 59 60 28 54 29 62 19 105 -18 81 -31 314 -18
329 6 8 9 25 7 39 -3 14 -1 25 3 25 10 0 5 80 -17 270 -7 69 -13 181 -13 250
1 191 1 211 -6 268 -7 58 -15 64 -35 28z m-12 -83 c2 -164 12 -482 16 -493 2
-8 7 -85 9 -170 l5 -155 -13 120 c-7 66 -16 155 -20 198 -3 43 -10 88 -15 100
-8 20 -9 20 -10 -8 -1 -23 -7 -15 -24 40 -14 47 -27 71 -39 73 -9 2 -17 12
-17 22 0 29 -46 77 -82 84 l-33 7 50 45 c27 24 54 44 60 44 6 0 9 -21 7 -53
-3 -45 0 -55 22 -76 14 -14 29 -21 33 -17 4 3 -3 13 -15 22 -19 13 -22 25 -22
81 0 65 0 65 -26 59 -14 -4 -50 -27 -81 -53 -54 -43 -59 -45 -105 -40 -51 6
-67 -8 -22 -19 14 -4 22 -9 17 -13 -9 -7 -33 -48 -33 -57 0 -3 6 -4 14 -1 24
9 63 -44 69 -94 4 -26 14 -66 23 -90 8 -24 20 -62 26 -84 11 -44 14 -50 41
-88 11 -15 21 -45 24 -67 4 -29 10 -40 19 -36 17 6 17 1 3 -44 -6 -19 -14 -71
-19 -116 -8 -80 -35 -156 -70 -202 -13 -15 -20 -18 -23 -10 -4 9 -6 7 -6 -3
-1 -24 -27 -44 -34 -27 -4 9 -6 7 -6 -4 -1 -9 -16 -29 -35 -43 -35 -27 -62
-27 -115 -2 -19 9 -25 8 -36 -6 -19 -26 -59 -20 -103 16 -40 31 -56 62 -28 51
11 -4 13 0 9 14 -2 11 0 23 6 26 6 4 11 38 11 79 0 44 -4 67 -9 58 -6 -9 -11
2 -15 33 -10 63 -23 66 -23 4 -1 -28 -6 -60 -13 -72 -10 -18 -80 -72 -80 -61
0 10 24 55 29 55 15 0 30 91 28 161 -2 59 -9 88 -29 127 -25 48 -26 53 -12 81
8 17 27 40 42 53 35 30 102 117 102 134 0 7 18 44 40 83 22 39 40 74 40 78 0
8 49 36 83 47 9 3 17 14 17 25 0 19 -2 19 -32 4 -46 -22 -78 -53 -78 -75 0
-11 -4 -17 -8 -14 -12 7 -47 -42 -55 -76 -4 -15 -22 -48 -40 -73 -17 -26 -37
-57 -44 -69 -7 -12 -30 -37 -53 -54 -27 -23 -40 -41 -40 -58 l0 -24 -37 23
c-21 13 -48 27 -60 31 -25 8 -38 44 -30 79 6 21 6 21 -8 3 -8 -11 -15 -28 -15
-38 0 -15 -9 -18 -57 -19 -32 -1 -50 -3 -40 -6 19 -5 23 -38 6 -49 -6 -3 -16
-1 -22 5 -6 6 -14 11 -18 11 -4 0 -37 -30 -73 -67 -45 -46 -69 -64 -76 -57 -7
7 -3 20 12 39 12 16 29 42 38 59 11 23 25 33 57 41 23 6 45 13 48 17 10 10
-22 41 -34 33 -5 -3 -13 0 -17 7 -5 8 -10 4 -15 -11 -5 -12 -17 -24 -26 -27
-10 -4 -31 -12 -48 -19 -16 -7 -40 -16 -52 -19 -23 -7 -59 -54 -48 -64 3 -3
12 -2 19 3 56 42 68 47 77 38 12 -12 -43 -83 -83 -107 -15 -9 -30 -26 -34 -39
-7 -21 -7 -21 -15 5 -7 26 0 71 17 113 7 17 6 18 -8 7 -23 -18 -41 -94 -33
-133 4 -19 25 -54 46 -78 22 -24 39 -47 39 -51 0 -5 15 -17 33 -28 17 -12 51
-34 74 -51 48 -34 129 -53 233 -55 85 -1 120 14 158 67 12 17 22 26 22 19 0
-17 -50 -95 -68 -106 -10 -6 -11 -10 -3 -15 8 -5 7 -12 -2 -25 -12 -16 -16
-17 -35 -5 -16 10 -32 11 -72 3 -91 -19 -249 -4 -350 33 -61 22 -149 89 -228
173 -36 39 -96 91 -133 117 -59 40 -107 87 -133 130 -4 7 0 26 9 43 9 18 11
30 5 30 -6 0 -13 -7 -16 -15 -10 -26 -21 -16 -34 31 -18 64 -5 112 40 142 31
21 44 23 116 20 61 -2 87 -8 101 -21 11 -9 25 -17 32 -17 6 0 36 -15 66 -34
57 -37 122 -53 193 -48 34 3 42 7 42 23 0 11 -8 22 -17 25 -52 17 -64 28 -58
54 4 17 3 22 -4 15 -5 -5 -11 -29 -12 -52 -3 -46 -19 -55 -60 -33 -28 15 -24
33 6 26 33 -8 32 2 -1 14 -18 7 -24 15 -20 27 5 13 4 14 -8 4 -9 -8 -27 -10
-46 -6 -31 7 -39 20 -17 28 6 2 9 7 5 11 -3 4 -17 0 -31 -8 -22 -15 -28 -15
-68 2 -65 27 -158 28 -216 2 -26 -11 -54 -27 -63 -34 -8 -7 -24 -16 -34 -20
-18 -6 -19 -5 -4 11 31 36 30 47 -1 18 -40 -36 -59 -67 -37 -59 23 9 -19 -85
-89 -197 -33 -53 -69 -112 -79 -130 -132 -230 -275 -448 -305 -466 -11 -7 -25
-22 -32 -34 -8 -17 -8 -20 1 -14 10 6 11 -1 6 -31 l-6 -39 26 48 c23 45 164
236 207 282 40 43 129 183 205 325 19 36 38 69 42 73 4 4 13 -26 20 -68 11
-67 11 -80 -3 -110 -23 -49 -134 -204 -181 -252 -44 -47 -44 -60 1 -15 58 57
193 240 193 261 0 21 20 11 26 -13 4 -18 -5 -42 -31 -87 -39 -66 -113 -166
-139 -188 -9 -7 -16 -17 -16 -22 0 -29 109 102 170 204 19 31 37 57 40 57 3 0
11 -9 18 -21 12 -19 9 -28 -32 -90 -25 -38 -46 -73 -46 -78 0 -5 -4 -11 -8
-13 -4 -1 -23 -23 -42 -48 -19 -25 -45 -57 -59 -72 -50 -57 2 -78 72 -29 46
32 197 184 215 216 l11 20 15 -20 c8 -11 16 -25 16 -31 0 -19 -93 -120 -152
-164 -32 -23 -58 -47 -58 -52 0 -5 6 -6 13 -2 21 12 102 78 105 86 2 5 13 13
25 20 16 8 14 2 -12 -30 -18 -23 -44 -51 -59 -63 -17 -14 -20 -20 -9 -16 10 4
26 3 36 -2 13 -8 29 -2 66 25 27 19 52 40 56 46 6 9 9 9 13 -2 2 -8 7 -23 10
-32 3 -10 10 -18 16 -18 7 0 7 6 0 21 -7 11 -9 32 -6 45 4 13 4 24 0 24 -3 0
-34 -23 -67 -51 -35 -29 -63 -46 -65 -39 -4 12 117 145 132 145 5 0 24 -20 41
-45 19 -27 40 -45 51 -45 21 0 80 -42 72 -50 -3 -3 -27 4 -53 15 -27 11 -52
17 -57 12 -10 -10 13 -62 27 -61 33 4 38 -1 19 -19 -14 -13 -43 -21 -94 -25
-109 -10 -329 -25 -455 -33 -60 -3 -139 -10 -175 -16 -71 -10 -275 -25 -413
-30 l-88 -3 8 35 c10 45 10 100 0 175 l-8 61 72 74 c39 41 95 108 125 148 31
39 61 72 68 72 7 0 12 10 12 23 -1 18 5 23 33 25 51 5 54 -8 17 -66 -49 -73
-48 -72 -37 -72 5 0 28 28 50 63 62 95 231 239 231 196 0 -15 -52 -89 -62 -89
-4 0 -1 15 7 33 l16 32 -31 -35 c-33 -38 -38 -57 -15 -62 23 -5 -164 -282
-262 -388 -32 -34 -44 -58 -23 -45 22 14 8 -15 -28 -56 -36 -41 -62 -80 -62
-93 0 -3 9 -6 21 -6 35 0 313 293 370 390 l21 35 -28 -31 c-16 -17 -60 -69
-99 -115 -87 -104 -229 -249 -244 -249 -7 0 23 46 66 102 82 108 139 193 250
372 37 60 84 130 105 154 20 25 35 49 32 54 -3 5 2 18 11 28 9 10 18 30 19 44
2 14 19 43 38 64 20 22 55 73 78 113 24 41 62 106 85 144 24 39 51 88 62 110
17 37 22 41 72 49 39 7 59 6 73 -3 12 -8 24 -9 31 -3 7 5 27 12 45 15 36 7 36
7 -1 -48 -16 -23 -9 -20 29 16 l49 47 110 -2 c107 -1 110 -2 113 -24 2 -13 -2
-31 -10 -40 -7 -9 3 -5 22 11 45 35 68 45 130 53 l51 7 -13 -29 c-7 -16 -17
-32 -23 -36 -7 -5 -6 -8 1 -8 6 0 25 16 43 36 39 43 75 58 102 44 10 -6 19
-14 19 -17 0 -3 -3 -4 -6 -1 -3 4 -33 -24 -67 -60 -75 -81 -149 -152 -159
-152 -4 0 -6 -9 -5 -20 2 -27 5 -26 41 17 17 20 40 44 51 52 19 15 97 94 151
152 13 14 24 31 24 37 0 15 62 16 77 1 8 -8 9 -19 2 -37 -8 -21 -8 -23 5 -13
8 7 16 24 18 39 2 21 10 28 36 33 28 6 34 3 46 -19 l13 -25 18 26 c24 37 95
36 95 -1 0 -11 6 -8 23 10 17 18 34 25 71 27 37 1 46 -1 40 -11 -13 -22 -116
-138 -196 -223 -50 -52 -74 -85 -69 -93 9 -15 38 16 157 163 45 55 91 109 103
119 11 11 21 25 21 33 0 20 44 12 48 -8 1 -9 -13 -40 -33 -69 -52 -77 -36 -72
22 7 48 65 52 69 115 86 45 11 104 17 182 17 105 0 116 2 126 20 15 28 18 25
18 -17z m-2134 -155 c8 -22 2 -42 -33 -114 -103 -216 -267 -379 -443 -443 -18
-7 -28 -18 -28 -31 0 -15 -7 -20 -26 -20 -20 0 -25 -4 -20 -16 3 -9 6 -23 6
-31 0 -12 7 -14 37 -8 36 6 37 6 21 -12 -9 -10 -33 -52 -53 -93 l-36 -75 7
195 c5 162 9 198 23 212 21 23 178 88 196 82 7 -3 19 3 26 13 23 32 43 38 23
7 -11 -15 -13 -25 -7 -21 35 22 203 301 203 336 0 24 -20 8 -63 -49 -44 -59
-45 -60 -50 -33 -5 28 24 101 47 115 18 12 81 9 99 -4 15 -12 15 -17 -3 -66
-27 -76 -64 -135 -139 -226 -71 -85 -110 -113 -130 -93 -8 8 -15 7 -28 -6 -11
-11 -13 -17 -5 -17 7 0 12 5 12 10 0 6 5 10 12 10 6 0 3 -8 -7 -20 -10 -11
-21 -18 -25 -15 -4 2 -18 -7 -31 -21 -13 -14 -46 -37 -73 -51 -35 -18 -45 -28
-38 -35 8 -8 6 -15 -6 -24 -38 -30 15 -13 77 24 184 108 389 354 407 490 3 20
8 43 10 50 6 20 28 9 38 -20z m266 23 c0 -6 -4 -12 -9 -15 -11 -7 -201 -291
-201 -301 0 -13 73 83 144 190 92 140 93 141 101 134 7 -8 -159 -276 -230
-370 -50 -67 -134 -161 -156 -174 -14 -9 6 32 29 58 8 9 10 17 4 17 -6 0 -20
-14 -32 -31 -12 -16 -25 -28 -27 -25 -3 3 6 21 21 40 18 24 32 33 43 29 12 -5
15 -2 10 10 -4 11 10 44 38 90 51 85 95 208 95 269 0 24 4 48 8 54 14 23 162
45 162 25z m-484 -33 c-9 -13 -23 -36 -32 -53 -34 -62 -258 -304 -270 -292 -3
3 8 24 24 48 16 24 45 67 63 94 152 229 131 209 223 224 5 0 1 -9 -8 -21z
m-256 2 c21 -11 24 -5 -35 -77 -15 -18 -32 -33 -38 -33 -8 0 -7 4 1 12 7 7 12
25 12 40 0 16 7 31 15 34 8 4 15 12 15 20 0 17 5 17 30 4z m103 -67 c-26 -42
-72 -108 -104 -147 -32 -40 -52 -74 -47 -77 6 -4 4 -16 -7 -33 -11 -16 -15
-35 -11 -50 4 -15 1 -26 -7 -29 -9 -3 -13 24 -14 110 -2 104 -1 114 15 109 19
-6 107 74 164 149 54 72 61 51 11 -32z m-45 28 c-20 -28 -108 -121 -115 -121
-9 0 27 52 76 107 43 49 70 58 39 14z m2336 -10 c17 -19 17 -19 -3 -14 -12 3
-21 12 -21 19 0 18 4 18 24 -5z m-1893 -18 c-12 -20 -14 -14 -5 12 4 9 9 14
11 11 3 -2 0 -13 -6 -23z m56 5 c-3 -8 -6 -5 -6 6 -1 11 2 17 5 13 3 -3 4 -12
1 -19z m1891 -33 c-3 -3 -9 2 -12 12 -6 14 -5 15 5 6 7 -7 10 -15 7 -18z
m-2227 -53 c-20 -39 -124 -142 -143 -142 -6 0 6 19 26 43 20 23 58 70 84 103
49 65 67 63 33 -4z m2224 -20 c-6 -7 -35 18 -35 31 0 5 9 2 20 -8 11 -10 18
-20 15 -23z m-1941 -46 c-14 -41 -32 -80 -40 -87 -9 -7 -5 11 12 56 46 124 66
146 28 31z m-44 -6 c-11 -22 -22 -40 -25 -40 -7 0 14 52 27 67 19 24 19 13 -2
-27z m2000 -8 c0 -13 -4 -20 -10 -17 -5 3 -10 21 -10 38 0 24 3 28 10 17 5 -8
10 -25 10 -38z m31 -12 c-3 -10 -8 -4 -11 15 -4 17 -4 34 -1 40 7 14 19 -37
12 -55z m-68 -37 c4 -19 2 -33 -3 -33 -6 0 -10 17 -10 37 0 43 5 41 13 -4z
m-2546 -5 c-3 -8 -6 -5 -6 6 -1 11 2 17 5 13 3 -3 4 -12 1 -19z m291 3 c-6
-11 -30 -29 -52 -41 l-41 -21 45 40 c49 44 67 53 48 22z m2358 -34 c-3 -12
-12 -49 -20 -82 l-16 -60 6 65 c2 36 7 80 11 99 5 28 7 31 15 16 6 -9 8 -27 4
-38z m65 -75 c2 -29 1 -52 -3 -52 -5 0 -8 23 -8 50 0 38 -4 50 -15 50 -15 0
-20 12 -9 23 14 14 32 -23 35 -71z m-2275 31 c-8 -16 -44 -61 -79 -99 -63 -67
-87 -81 -184 -109 -29 -8 -30 11 -2 20 74 24 209 129 255 201 22 33 29 23 10
-13z m33 -8 c-13 -19 -27 -35 -32 -35 -4 0 5 18 19 40 15 22 29 38 32 35 3 -2
-6 -20 -19 -40z m2107 -32 c-9 -21 -12 -15 -20 32 l-6 40 16 -28 c8 -16 13
-36 10 -44z m-1679 35 c-3 -8 -6 -5 -6 6 -1 11 2 17 5 13 3 -3 4 -12 1 -19z
m1768 -113 l-14 -70 4 65 c4 68 17 118 22 90 2 -8 -3 -46 -12 -85z m-790 56
c5 -9 -234 -252 -255 -259 -26 -9 -3 22 63 84 40 38 94 95 122 127 49 58 59
64 70 48z m762 -23 c-3 -7 -5 -2 -5 12 0 14 2 19 5 13 2 -7 2 -19 0 -25z
m-1777 -6 c0 -4 -4 -12 -9 -17 -10 -11 -131 -224 -131 -232 0 -8 -131 -192
-140 -198 -6 -3 -7 1 -3 11 4 12 168 286 260 437 6 9 23 9 23 -1z m1112 -19
c31 -36 31 -46 0 -24 -18 12 -32 27 -32 32 0 15 16 11 32 -8z m767 -185 l19
-177 -20 -38 c-19 -35 -19 -27 -1 29 3 10 0 18 -6 18 -6 0 -11 9 -11 21 0 13
-4 18 -11 13 -9 -5 -10 1 -5 20 15 60 19 116 7 116 -11 0 -15 -12 -12 -36 1
-6 -10 -51 -25 -100 -29 -102 -68 -170 -102 -179 -12 -3 -20 -10 -17 -15 7
-11 -44 -34 -53 -25 -3 3 22 31 55 63 33 31 67 73 76 92 22 49 51 152 48 171
-1 10 5 47 14 84 8 36 15 83 16 103 1 63 8 24 28 -160z m-871 143 c-13 -17
-27 -30 -32 -30 -6 -1 3 13 19 29 37 38 43 39 13 1z m-864 -7 c10 -27 7 -56
-6 -52 -15 5 -24 68 -10 68 6 0 13 -7 16 -16z m1012 -41 c-11 -11 -19 6 -11
24 8 17 8 17 12 0 3 -10 2 -21 -1 -24z m781 5 c-3 -8 -6 -5 -6 6 -1 11 2 17 5
13 3 -3 4 -12 1 -19z m-123 -42 c-3 -21 -8 -35 -11 -32 -2 2 -1 20 3 40 3 21
8 35 11 32 2 -2 1 -20 -3 -40z m-1604 5 c6 -13 6 -22 1 -26 -9 -5 -31 24 -31
39 0 14 20 4 30 -13z m880 11 c0 -15 -109 -127 -110 -112 0 8 23 38 52 67 55
55 58 58 58 45z m-101 -19 c-41 -52 -64 -73 -78 -73 -10 0 1 17 29 44 44 44
75 62 49 29z m191 7 c0 -5 -4 -10 -10 -10 -5 0 -10 5 -10 10 0 6 5 10 10 10 6
0 10 -4 10 -10z m-1097 -63 c-4 -6 -10 -2 -14 9 -12 31 -9 40 6 20 8 -10 11
-24 8 -29z m-843 23 c0 -5 -7 -10 -16 -10 -8 0 -12 5 -9 10 3 6 10 10 16 10 5
0 9 -4 9 -10z m133 -51 c-16 -34 -141 -187 -182 -223 -12 -11 -24 -17 -27 -14
-3 3 20 56 50 117 31 61 56 118 56 127 0 16 11 16 68 -1 16 -5 22 -3 22 8 0
13 19 29 28 22 1 -1 -5 -17 -15 -36z m974 -11 l33 -34 -15 -84 c-8 -47 -15
-87 -15 -89 0 -2 -7 2 -15 9 -8 7 -13 22 -11 34 12 56 16 156 7 156 -13 0 -31
-65 -31 -109 0 -19 -2 -32 -5 -29 -5 4 -10 66 -17 178 -2 28 22 17 69 -32z
m-221 -25 c-4 -4 -11 -1 -16 7 -16 25 -11 35 7 17 9 -9 13 -20 9 -24z m81 -5
c-3 -7 -5 -2 -5 12 0 14 2 19 5 13 2 -7 2 -19 0 -25z m1553 -68 l-11 -25 6 25
c2 14 5 36 6 50 l2 25 4 -25 c2 -14 -1 -37 -7 -50z m-1510 40 c0 -11 -2 -20
-4 -20 -2 0 -6 9 -9 20 -3 11 -1 20 4 20 5 0 9 -9 9 -20z m201 -45 c55 -51 90
-142 62 -162 -13 -10 -14 -15 -3 -28 18 -22 7 -28 -24 -14 -14 7 -26 20 -26
30 0 10 -4 21 -10 24 -5 3 -10 -1 -10 -9 0 -22 -7 -20 -42 13 -30 28 -31 31
-20 69 7 22 12 58 12 81 0 24 4 41 9 39 5 -1 28 -21 52 -43z m-311 30 c0 -10
-94 -135 -102 -135 -13 0 -9 16 6 30 8 6 29 34 46 61 27 42 50 62 50 44z m50
-25 c12 -8 12 -12 0 -36 -31 -59 -235 -254 -266 -254 -16 0 8 34 87 123 50 55
103 118 117 139 25 39 37 44 62 28z m1640 -71 c-17 -41 -22 -31 -8 17 6 21 13
33 15 26 3 -7 -1 -26 -7 -43z m-581 -40 c-21 -12 -24 -2 -8 28 14 26 14 26 17
3 2 -12 -2 -26 -9 -31z m-651 -4 c38 -19 36 -24 -13 -41 -40 -14 -40 -14 -50
46 -7 43 -7 44 11 29 11 -9 34 -24 52 -34z m1302 2 c0 -24 -5 -34 -15 -34 -11
0 -14 6 -9 16 3 9 9 24 11 34 8 27 13 20 13 -16z m-189 5 c-5 -9 -19 -26 -32
-37 -26 -23 -17 -2 14 33 25 27 31 28 18 4z m85 -61 c-38 -39 -110 -81 -140
-81 -10 0 -26 -5 -37 -10 -21 -12 -26 2 -6 17 6 5 30 15 53 21 22 7 65 30 95
51 69 51 84 52 35 2z m-1109 4 c-26 -19 -20 -24 15 -14 38 10 46 6 25 -15 -8
-8 -17 -12 -21 -9 -3 4 -6 1 -6 -5 0 -17 14 -15 54 8 22 13 37 17 41 11 8 -14
-51 -49 -95 -57 -19 -4 -43 -15 -53 -25 -22 -23 -33 -24 -41 -4 -3 9 1 18 9
21 8 4 13 10 10 14 -3 5 4 18 15 28 l21 20 -25 6 c-34 8 -33 24 2 32 15 3 32
7 37 9 20 5 28 -8 12 -20z m-89 -22 c-4 -23 -48 -31 -48 -9 0 13 14 21 43 25
5 0 7 -7 5 -16z m278 -29 c-4 -10 -2 -14 6 -10 73 30 113 31 90 3 -7 -8 -9
-17 -6 -20 8 -7 -15 -31 -38 -40 -12 -4 -18 -2 -18 8 0 19 -3 19 -48 -4 -59
-29 -86 -10 -31 23 47 28 29 28 -26 1 -28 -13 -57 -25 -66 -25 -9 0 -22 -7
-29 -15 -7 -8 -21 -15 -31 -15 -24 0 -25 29 -1 32 9 0 23 2 30 2 7 1 16 6 20
12 11 18 105 63 131 64 17 0 22 -4 17 -16z m709 -36 c-10 -33 -17 -37 -47 -31
-33 6 -27 23 8 23 13 0 23 3 23 8 -3 15 1 22 12 22 6 0 8 -9 4 -22z m-280 -18
c3 -5 2 -10 -4 -10 -5 0 -13 5 -16 10 -3 6 -2 10 4 10 5 0 13 -4 16 -10z m155
0 c0 -6 -13 -10 -30 -10 -39 0 -39 14 0 17 17 1 30 -2 30 -7z m393 4 c14 -5
14 -8 -1 -24 -12 -15 -19 -17 -29 -8 -10 8 -10 14 -2 24 13 16 12 16 32 8z
m-180 -24 c-3 -13 -14 -20 -29 -20 -28 0 -30 8 -6 26 25 20 41 17 35 -6z
m-1093 -26 c0 -2 -9 -4 -20 -4 -11 0 -20 4 -20 9 0 5 9 7 20 4 11 -3 20 -7 20
-9z m190 8 c0 -15 -11 -21 -27 -15 -12 5 -12 7 -1 14 17 11 28 11 28 1z m-230
-34 c0 -5 -24 -8 -52 -8 l-53 0 30 18 c23 14 34 16 52 8 13 -6 23 -14 23 -18z"/>
<path d="M2370 1305 c-7 -9 -11 -17 -9 -20 3 -2 10 5 17 15 14 24 10 26 -8 5z"/>
<path d="M1956 1248 c-20 -23 -34 -43 -32 -46 6 -6 49 28 69 54 31 42 -1 35
-37 -8z"/>
<path d="M2327 1247 l-17 -32 20 24 c17 20 26 41 18 41 -2 0 -11 -15 -21 -33z"/>
<path d="M1793 1181 c-60 -63 -75 -93 -53 -106 6 -3 10 4 10 15 0 14 23 44 59
79 35 32 57 61 53 68 -4 6 -31 -15 -69 -56z"/>
<path d="M1165 1199 c-11 -17 1 -21 15 -4 8 9 8 15 2 15 -6 0 -14 -5 -17 -11z"/>
<path d="M1530 1170 c0 -5 4 -10 9 -10 6 0 13 5 16 10 3 6 -1 10 -9 10 -9 0
-16 -4 -16 -10z"/>
<path d="M1129 1153 c-13 -16 -12 -17 4 -4 16 13 21 21 13 21 -2 0 -10 -8 -17
-17z"/>
<path d="M1861 1153 c-25 -20 -41 -93 -21 -93 5 0 10 8 10 19 0 10 9 30 21 45
27 35 21 54 -10 29z"/>
<path d="M1030 1133 c0 -5 -15 -24 -33 -43 -41 -44 -150 -180 -161 -200 -9
-19 23 17 95 106 31 38 68 83 83 99 24 28 32 45 21 45 -3 0 -5 -3 -5 -7z"/>
<path d="M1767 1023 c-15 -14 -6 -31 19 -37 33 -9 39 -3 24 23 -11 21 -30 27
-43 14z"/>
<path d="M2504 995 c-8 -20 17 -97 32 -102 12 -4 12 37 1 54 -4 6 -3 14 3 18
12 8 24 -20 17 -39 -5 -14 19 -44 28 -35 9 10 -18 100 -28 96 -7 -2 -20 2 -29
11 -16 13 -18 13 -24 -3z"/>
<path d="M2427 983 c-4 -3 -7 -18 -7 -32 l0 -26 20 25 c11 14 20 28 20 33 0 9
-24 9 -33 0z"/>
<path d="M933 946 c-13 -16 -20 -32 -18 -37 6 -9 -100 -186 -169 -280 -25 -35
-43 -65 -40 -68 3 -3 9 1 14 9 5 8 27 40 49 70 73 102 192 302 189 318 -2 13
-8 10 -25 -12z"/>
<path d="M2440 925 c-7 -8 -17 -12 -23 -8 -5 3 -7 1 -3 -5 3 -6 -3 -13 -14
-17 -21 -7 -28 -25 -9 -25 8 0 7 -5 -1 -15 -17 -20 -30 -2 -22 29 5 22 -65
-60 -87 -102 -17 -32 -5 -94 29 -159 21 -40 30 -49 39 -40 9 9 13 7 17 -10 7
-27 66 -63 103 -63 15 0 32 -5 39 -12 25 -25 121 42 151 106 26 53 27 96 2
144 -11 21 -22 58 -26 83 -9 58 -21 80 -34 60 -5 -8 -7 -20 -4 -28 4 -9 0 -11
-11 -7 -14 5 -15 2 -6 -21 5 -14 9 -41 9 -58 l-2 -32 -7 35 c-4 19 -8 26 -9
16 0 -11 -4 -16 -8 -12 -4 4 -6 23 -4 42 2 26 -1 33 -12 28 -10 -3 -17 3 -21
20 -3 14 -11 26 -17 26 -7 0 -8 -7 -4 -17 26 -60 29 -93 13 -125 -11 -22 -17
-27 -17 -15 -1 10 3 27 9 37 14 26 2 54 -16 39 -8 -6 -11 -15 -8 -20 7 -11
-25 -59 -40 -59 -6 0 -22 -21 -35 -47 -36 -70 -50 -84 -71 -73 -44 24 -49 161
-7 207 21 23 42 21 33 -2 -3 -8 19 11 49 42 30 31 52 60 49 65 -7 11 -10 10
-24 -7z m19 -250 c-23 -33 -39 -44 -39 -27 0 11 54 72 59 67 2 -3 -7 -20 -20
-40z m42 22 c-10 -9 -11 -8 -5 6 3 10 9 15 12 12 3 -3 0 -11 -7 -18z m-7 -81
c-6 -16 -24 -23 -24 -8 0 10 22 33 27 28 2 -2 1 -11 -3 -20z m-47 -63 c-15
-15 -37 -11 -37 8 0 14 44 29 49 17 2 -6 -4 -17 -12 -25z"/>
<path d="M2436 859 c-35 -42 -116 -168 -116 -180 0 -38 75 53 111 136 8 17 20
35 28 41 7 6 12 17 9 24 -2 8 -14 0 -32 -21z"/>
<path d="M420 533 c-18 -21 -73 -82 -124 -136 -92 -100 -105 -117 -88 -117 5
0 33 28 62 63 29 34 61 69 71 78 31 28 121 140 116 145 -2 3 -19 -12 -37 -33z"/>
<path d="M750 316 c-30 -33 -41 -50 -25 -36 35 29 89 89 84 94 -2 2 -29 -24
-59 -58z"/>
<path d="M829 303 l-24 -28 28 24 c25 23 32 31 24 31 -2 0 -14 -12 -28 -27z"/>
<path d="M315 240 c-21 -22 -36 -42 -34 -45 3 -2 23 13 44 35 21 22 36 42 34
45 -3 2 -23 -13 -44 -35z"/>
<path d="M620 185 c-44 -45 -32 -45 17 0 21 19 33 35 27 35 -5 0 -25 -16 -44
-35z"/>
<path d="M756 999 c-21 -28 -36 -52 -33 -55 3 -3 14 7 24 22 10 16 26 37 36
46 14 15 24 39 15 38 -2 -1 -20 -23 -42 -51z"/>
<path d="M1485 481 c-6 -11 9 -23 19 -14 9 9 7 23 -3 23 -6 0 -12 -4 -16 -9z"/>
<path d="M2668 3 c7 -3 16 -2 19 1 4 3 -2 6 -13 5 -11 0 -14 -3 -6 -6z"/>
</g>
</svg>
