<?xml version="1.0" standalone="no"?>
<!DOCTYPE svg PUBLIC "-//W3C//DTD SVG 20010904//EN"
 "http://www.w3.org/TR/2001/REC-SVG-20010904/DTD/svg10.dtd">
<svg version="1.0" xmlns="http://www.w3.org/2000/svg"
 width="605.000000pt" height="138.000000pt" viewBox="0 0 605.000000 138.000000"
 preserveAspectRatio="xMidYMid meet">
<metadata>
Created by potrace 1.16, written by Peter Selinger 2001-2019
</metadata>
<g transform="translate(0.000000,138.000000) scale(0.100000,-0.100000)"
fill="#000000" stroke="none">
<path d="M2204 1358 c-3 -4 7 -9 23 -9 50 -2 -59 -17 -176 -24 -61 -3 -111 -2
-111 2 0 4 -123 9 -273 11 -149 1 -288 5 -308 8 -24 3 -40 1 -45 -7 -4 -7 -9
-279 -11 -605 -4 -569 -3 -593 14 -603 11 -5 75 -12 143 -15 83 -4 126 -10
132 -18 6 -10 10 -10 16 -1 5 8 88 13 282 18 151 3 295 6 320 5 122 -2 871 -9
910 -9 74 0 390 -21 416 -27 18 -5 24 -2 24 11 0 15 7 16 48 11 26 -3 61 -8
79 -10 63 -8 432 -9 667 -2 296 9 715 19 861 21 61 1 116 2 122 3 20 3 43 70
43 126 0 28 7 78 15 111 8 33 14 94 15 135 0 41 4 113 9 160 22 200 34 713 17
707 -6 -2 -13 -32 -14 -68 -3 -46 -6 -58 -12 -44 -6 13 -9 -3 -9 -50 -1 -38
-10 -101 -20 -140 -18 -71 -18 -100 1 -89 6 4 6 -2 -1 -14 -6 -11 -12 -47 -12
-79 l-2 -58 -7 50 c-4 28 -5 61 -2 75 4 20 -6 14 -56 -36 -58 -57 -112 -91
-207 -129 -88 -35 -113 -52 -154 -102 -51 -62 -60 -104 -37 -176 13 -42 24
-57 56 -77 46 -29 52 -43 13 -34 -59 14 -115 48 -150 91 -32 39 -38 53 -41
109 -4 53 0 70 20 106 13 24 30 62 38 85 11 37 11 48 -4 88 -13 32 -27 50 -49
61 -18 9 -41 24 -51 33 -14 12 -20 13 -23 3 -3 -6 -9 -9 -15 -6 -6 4 -13 2
-17 -3 -3 -5 -27 -21 -53 -36 -69 -40 -91 -72 -82 -122 3 -22 13 -56 21 -75 8
-19 15 -60 16 -90 1 -66 -14 -93 -71 -125 l-40 -23 10 32 c31 95 23 115 -67
161 -31 15 -65 39 -75 53 -25 31 -26 98 -3 173 25 83 19 118 -25 160 -35 33
-46 37 -110 44 -77 8 -113 2 -179 -26 -45 -19 -133 -98 -133 -119 0 -7 -11
-37 -25 -66 -36 -76 -38 -192 -6 -292 28 -87 116 -204 199 -266 29 -21 50 -41
48 -44 -14 -14 -158 71 -212 124 -64 63 -78 96 -104 244 -18 100 -29 127 -61
155 -67 55 -157 10 -180 -89 -10 -48 -9 -60 11 -120 34 -104 14 -181 -62 -231
-39 -26 -124 -49 -155 -43 -15 3 -13 7 9 18 15 8 47 39 73 68 l45 54 0 77 c0
63 -4 82 -20 101 -11 12 -22 31 -25 41 -4 13 -14 19 -28 17 -38 -4 -97 13 -97
28 0 18 -29 18 -36 1 -3 -9 -24 -13 -67 -13 -87 1 -149 -40 -207 -138 l-23
-38 22 -44 c29 -60 27 -64 -14 -24 -19 19 -35 43 -35 54 0 12 -11 34 -24 49
-19 22 -24 37 -21 69 2 25 9 45 19 50 9 5 16 19 16 32 0 24 56 83 102 107 23
12 36 23 83 69 57 56 33 146 -53 201 -44 29 -52 30 -128 27 -65 -3 -90 -9
-127 -31 -25 -15 -54 -27 -64 -27 -10 0 -23 -9 -28 -19 -6 -11 -25 -46 -44
-77 -32 -56 -33 -60 -26 -128 25 -228 -1 -308 -138 -424 -50 -43 -100 -76
-130 -86 -75 -25 -88 -18 -25 14 31 16 65 42 77 57 11 15 24 33 29 38 75 95
79 112 50 221 -19 72 -29 93 -63 127 -102 103 -235 116 -279 28 -7 -14 -16
-46 -20 -69 -5 -35 -2 -51 15 -79 24 -38 73 -73 104 -73 18 -1 19 -1 3 -11
-10 -5 -18 -17 -18 -24 0 -19 -65 -20 -96 -2 -30 17 -72 69 -78 98 -6 22 2 78
20 151 8 33 -35 89 -110 147 -59 45 -90 54 -147 45 -58 -10 -155 -105 -164
-161 -17 -98 -37 -187 -45 -202 -5 -9 -19 -39 -30 -67 -25 -59 -113 -149 -175
-178 -22 -10 -43 -21 -47 -23 -5 -2 -8 30 -8 71 l0 76 44 22 c25 13 57 40 72
63 25 37 34 64 85 240 11 39 37 99 57 135 36 62 41 66 115 98 129 56 193 46
301 -46 104 -90 123 -97 249 -97 109 0 113 -1 150 -30 20 -16 46 -49 57 -72
20 -42 43 -56 52 -30 3 6 6 50 7 97 1 46 8 98 16 115 32 77 123 142 246 175
50 14 197 7 251 -12 178 -61 200 -249 45 -381 -32 -27 -57 -53 -57 -58 0 -22
32 -19 85 6 41 20 64 26 90 22 19 -3 37 -1 40 4 4 5 22 9 40 9 19 0 66 5 103
12 66 11 70 13 90 52 11 23 23 52 26 66 12 54 90 104 111 70 4 -6 11 -8 17 -4
13 9 68 -46 68 -68 0 -24 39 -24 46 0 6 18 28 62 63 125 26 47 73 90 83 75 4
-7 17 0 34 18 16 17 25 22 21 12 -8 -22 2 -23 17 -2 7 9 32 20 57 25 62 12
179 11 179 -1 0 -6 10 -8 23 -5 34 9 109 -22 140 -58 35 -41 52 -99 37 -128
-7 -11 -9 -26 -7 -34 3 -7 -5 -34 -18 -61 -25 -51 -23 -74 5 -74 12 0 25 17
39 53 53 127 177 208 321 207 50 -1 53 -2 36 -15 -20 -15 -20 -15 0 -15 11 0
25 5 31 11 20 20 85 -31 116 -90 17 -33 17 -35 -3 -69 -23 -38 -19 -58 5 -26
25 33 17 -5 -11 -53 -14 -24 -22 -48 -19 -53 11 -17 34 -11 50 14 9 13 39 39
68 59 111 73 180 142 232 228 45 76 50 90 50 146 l0 63 38 0 c26 0 37 4 37 15
0 11 -12 15 -50 15 -27 0 -50 5 -50 10 0 6 26 10 58 10 55 1 56 1 27 14 -21 8
-88 13 -215 13 -106 1 -176 -3 -165 -7 11 -5 -118 -9 -295 -10 -468 -3 -749
-8 -1000 -18 -242 -9 -655 -8 -785 3 -44 4 -159 9 -255 11 -96 2 -239 12 -318
22 -79 10 -145 15 -148 10z m201 -38 c14 -6 0 -9 -45 -8 -47 0 -58 2 -40 8 33
11 60 11 85 0z m2813 -7 c-10 -2 -26 -2 -35 0 -10 3 -2 5 17 5 19 0 27 -2 18
-5z m57 -3 c-27 -12 -35 -12 -35 0 0 6 12 10 28 9 24 0 25 -1 7 -9z m-1258
-86 c-26 -30 -31 -30 -25 1 6 30 -18 35 -27 5 -7 -23 -32 -50 -46 -50 -16 0
30 78 48 82 10 2 30 0 45 -5 l27 -8 -22 -25z m1278 16 c-3 -16 -7 -42 -9 -57
-6 -36 -80 -164 -113 -194 -17 -16 -6 8 35 78 62 104 80 143 65 143 -4 -1 -21
-28 -38 -62 -41 -83 -104 -176 -157 -232 -25 -25 -47 -46 -50 -46 -5 0 -17 58
-20 98 -1 6 -5 12 -9 12 -19 0 -18 38 3 77 30 55 42 55 35 -2 -6 -39 -4 -45
11 -45 54 0 140 178 114 235 l-12 25 75 0 75 0 -5 -30z m-2430 13 c-122 -27
-226 -76 -278 -132 -49 -53 -67 -97 -67 -162 l0 -51 -51 41 c-55 44 -64 46
-196 42 -81 -3 -114 10 -198 78 -98 79 -132 95 -200 94 -49 0 -79 -8 -151 -40
-84 -37 -91 -43 -127 -100 -26 -42 -50 -104 -78 -203 -43 -151 -66 -198 -112
-225 l-28 -16 3 101 c2 82 5 103 19 110 32 18 72 84 109 181 58 152 107 211
209 249 77 28 130 31 207 11 75 -19 144 -55 210 -108 29 -23 58 -36 95 -42 57
-10 129 -35 166 -58 19 -13 23 -12 32 6 6 11 11 27 11 36 0 33 30 72 88 113
81 56 104 65 197 72 96 8 168 9 140 3z m329 0 c4 -4 13 -8 19 -9 7 0 20 -2 30
-2 21 -2 23 -36 4 -81 -16 -38 -39 -23 -30 20 6 32 -7 38 -31 13 -16 -16 -20
-12 -17 18 2 20 -19 35 -28 19 -5 -8 -23 -8 -62 -1 -163 29 -162 28 -23 29 72
0 134 -2 138 -6z m623 1 c-3 -3 -12 -4 -19 -1 -8 3 -5 6 6 6 11 1 17 -2 13 -5z
m88 -34 c-14 -22 -25 -43 -25 -47 0 -5 -12 -21 -26 -38 -18 -22 -24 -24 -19
-10 4 11 12 41 18 67 7 30 19 51 32 57 40 19 46 12 20 -29z m285 19 c0 -17 -5
-20 -32 -17 -22 2 -34 9 -36 21 -3 14 4 17 32 17 30 0 36 -4 36 -21z m80 -11
c0 -5 -11 -8 -25 -8 -18 0 -25 5 -25 19 0 17 3 18 25 8 14 -7 25 -15 25 -19z
m55 2 c-18 -35 -35 -32 -27 5 3 16 11 25 23 25 18 0 19 -2 4 -30z m-235 14 c0
-8 -32 -33 -43 -34 -4 0 -2 9 5 20 12 19 38 28 38 14z m288 -23 c-20 -26 -48
-41 -48 -26 0 12 45 55 58 55 9 0 7 -9 -10 -29z m442 4 c0 -20 -69 -103 -98
-118 -38 -20 -53 -16 -30 7 8 8 29 37 47 65 25 38 39 51 57 51 13 0 24 -2 24
-5z m7 -55 c-17 -33 -35 -60 -40 -60 -8 0 3 24 40 83 35 56 35 45 0 -23z
m-390 35 c8 -9 12 -22 9 -30 -9 -24 -36 -29 -54 -12 -14 15 -14 18 3 37 22 24
22 24 42 5z m262 -46 c-44 -63 -67 -85 -56 -55 10 25 80 115 90 116 5 0 -11
-27 -34 -61z m201 45 c0 -13 -41 -82 -55 -94 -27 -23 -27 -4 1 53 18 36 32 53
41 50 7 -3 13 -7 13 -9z m-1595 -31 c-14 -57 -17 -93 -8 -93 6 0 15 18 22 40
6 21 17 42 23 46 22 14 0 -70 -40 -156 l-40 -85 5 50 c3 28 1 66 -5 86 -12 43
13 139 36 139 11 0 13 -7 7 -27z m1336 -31 c-39 -56 -81 -102 -81 -88 0 20 53
107 76 125 45 35 46 24 5 -37z m318 41 l21 -18 -32 -50 c-17 -27 -33 -44 -35
-38 -3 7 5 29 17 49 30 48 19 53 -15 7 -16 -21 -30 -40 -32 -42 -2 -2 -6 -2
-9 2 -7 6 47 107 57 107 4 0 16 -8 28 -17z m-1332 -72 c-20 -33 -33 -61 -31
-64 3 -2 -6 -7 -20 -9 l-25 -5 30 59 c32 64 70 109 77 90 2 -6 -12 -38 -31
-71z m-27 64 c0 -2 -27 -58 -60 -123 -33 -65 -63 -136 -68 -158 -7 -37 -10
-39 -60 -50 -47 -11 -52 -10 -52 5 0 9 4 21 9 27 6 5 26 43 46 84 40 82 104
184 111 177 3 -2 -27 -66 -65 -141 -38 -75 -64 -136 -59 -136 6 0 17 8 25 18
16 19 123 237 123 249 0 14 30 53 41 53 5 0 9 -2 9 -5z m78 -72 c-17 -40 -31
-59 -45 -61 -19 -3 -18 3 16 67 43 84 66 80 29 -6z m116 0 c-14 -38 -32 -79
-42 -93 -14 -22 -17 -23 -20 -7 -4 20 47 137 60 137 4 0 8 7 8 15 0 8 4 15 10
15 5 0 -2 -30 -16 -67z m676 38 c-14 -27 -27 -34 -36 -20 -4 7 1 18 11 26 27
19 37 16 25 -6z m-740 -67 c-14 -29 -31 -54 -37 -54 -19 0 -16 24 8 80 18 41
24 47 38 39 15 -10 14 -15 -9 -65z m1275 35 c-3 -13 -15 -35 -25 -49 -15 -19
-22 -22 -31 -13 -9 9 -5 22 16 58 28 48 52 50 40 4z m-510 -19 c-17 -38 -35
-45 -35 -13 0 16 42 65 49 57 2 -2 -4 -22 -14 -44z m39 -21 c-28 -30 -28 -31
-5 -24 21 6 19 3 -10 -23 -19 -17 -36 -28 -38 -26 -9 9 43 103 58 107 27 6 26
-2 -5 -34z m-1674 13 c0 -8 -14 -16 -63 -40 -4 -2 -4 3 -1 11 8 22 64 47 64
29z m500 -46 c0 -3 -22 -50 -50 -104 -40 -80 -54 -101 -76 -106 -14 -4 -28 -6
-30 -4 -8 9 40 68 55 68 12 0 28 23 50 75 18 41 37 75 42 75 5 0 9 -2 9 -4z
m59 -23 c-8 -10 -33 -55 -54 -100 -28 -58 -45 -83 -57 -83 -10 0 -18 2 -18 5
0 20 94 184 107 188 33 9 36 7 22 -10z m-676 -19 c-4 -10 -9 -12 -15 -6 -12
12 -1 35 12 27 5 -3 6 -13 3 -21z m1351 -6 c4 -17 2 -28 -4 -28 -5 0 -10 14
-10 32 0 36 4 35 14 -4z m-1283 -41 c-8 -8 -11 -2 -11 19 0 40 14 54 18 19 2
-15 -1 -32 -7 -38z m149 24 c0 -22 -4 -43 -10 -46 -6 -4 -10 12 -10 39 0 25 5
46 10 46 6 0 10 -18 10 -39z m1087 -8 c-3 -10 -5 -4 -5 12 0 17 2 24 5 18 2
-7 2 -21 0 -30z m260 5 c-3 -8 -6 -5 -6 6 -1 11 2 17 5 13 3 -3 4 -12 1 -19z
m-2410 -3 c-4 -8 -2 -17 2 -20 5 -3 12 2 15 11 5 13 9 14 20 5 11 -9 12 -19 3
-46 -5 -19 -14 -32 -19 -29 -5 3 -7 12 -4 20 4 9 -4 18 -19 24 -28 11 -35 50
-9 50 10 0 14 -6 11 -15z m-63 -77 c-2 -35 -8 -99 -14 -143 -6 -44 -8 -91 -4
-105 7 -24 7 -23 15 10 5 22 4 36 -3 39 -7 2 -7 6 1 10 6 4 12 28 14 54 6 61
14 69 19 18 2 -23 0 -41 -5 -41 -4 0 -6 -19 -3 -42 3 -24 5 -109 5 -190 1
-152 14 -205 19 -75 1 39 6 73 11 75 4 1 3 21 -3 43 -7 29 -7 48 2 71 6 17 8
36 5 41 -4 6 -10 3 -14 -9 -6 -15 -8 -11 -8 15 -1 21 6 40 18 50 10 9 21 25
24 36 3 15 5 12 7 -10 2 -26 3 -24 11 15 7 33 6 48 -4 55 -15 12 -20 35 -8 35
5 0 12 -6 14 -12 4 -10 6 -10 6 -1 1 6 -3 14 -8 17 -11 7 9 54 25 60 7 3 10
-3 9 -12 -12 -60 -14 -82 -6 -78 5 3 12 -2 15 -11 4 -9 1 -20 -6 -25 -10 -6
-10 -8 0 -8 13 0 12 -67 -4 -195 -8 -59 11 -31 24 36 6 31 8 67 5 79 -4 17 -3
21 6 16 9 -6 10 0 6 21 -5 21 -4 24 4 13 8 -12 12 -10 21 10 10 24 10 24 6 -5
-3 -16 -7 -46 -11 -66 -4 -27 -2 -38 9 -42 8 -3 24 -23 36 -44 24 -44 69 -72
118 -76 l34 -2 -6 -50 c-5 -40 -4 -46 5 -31 7 10 13 33 14 49 3 33 60 90 82
82 6 -2 14 7 17 21 4 14 14 24 24 24 9 0 13 3 7 8 -5 4 -11 34 -13 67 -2 40 0
55 7 46 7 -11 11 -5 16 23 6 30 4 40 -11 52 -18 14 -18 15 1 12 12 -2 21 -12
23 -26 2 -13 8 -20 14 -16 8 5 9 1 5 -10 -13 -33 -20 -132 -8 -116 5 8 8 25 4
37 -3 13 -1 23 5 23 6 0 13 12 15 28 3 22 4 20 6 -11 0 -20 4 -36 9 -35 4 2 9
-1 11 -7 1 -5 9 -22 17 -37 16 -31 19 -88 4 -88 -5 0 -10 6 -11 13 0 6 -7 -10
-14 -37 -14 -52 -38 -88 -29 -45 4 21 4 22 -5 4 -5 -11 -15 -35 -21 -53 -7
-18 -21 -37 -31 -43 -17 -9 -19 -6 -19 26 0 24 -4 34 -11 29 -6 -3 -9 -19 -5
-35 4 -22 0 -32 -17 -44 -28 -20 -58 -20 -51 0 4 8 1 15 -5 15 -6 0 -11 -7
-11 -15 0 -17 -32 -20 -60 -5 -15 8 -20 6 -25 -10 -8 -27 0 -37 34 -45 23 -5
28 -10 24 -28 -4 -20 -3 -21 10 -4 22 26 26 21 20 -25 -7 -52 -4 -48 -32 -41
-12 3 -20 11 -17 18 7 18 -18 50 -32 41 -18 -11 -14 -44 8 -66 24 -24 26 -40
5 -40 -8 0 -12 6 -9 14 3 8 1 17 -5 21 -7 3 -11 -2 -11 -14 0 -20 -6 -21 -113
-21 -108 0 -115 1 -126 23 -11 21 -11 21 -8 -5 5 -32 11 -31 -161 -30 -89 0
-105 2 -117 18 -13 18 -14 18 -15 2 0 -11 -8 -18 -20 -18 -15 0 -20 7 -20 25
0 14 -4 25 -10 25 -5 0 -10 -11 -10 -25 0 -31 -20 -33 -27 -4 -5 19 -7 20 -18
6 -8 -11 -34 -17 -84 -21 -55 -4 -71 -2 -62 7 6 6 11 44 11 87 l0 77 43 18
c23 10 50 25 59 33 9 8 21 11 27 8 5 -4 14 2 20 11 14 23 14 7 1 -18 -14 -24
5 -26 19 -1 10 16 10 15 11 -3 0 -17 2 -18 11 -5 8 12 9 11 7 -5 -2 -12 -10
-19 -20 -17 -20 3 -31 -27 -22 -62 8 -35 16 -33 36 12 13 28 17 31 15 13 -2
-26 20 -42 27 -19 16 54 17 54 27 36 12 -22 29 -23 29 -2 0 10 6 14 15 11 22
-9 29 12 11 32 -10 11 -16 36 -16 66 0 53 8 57 14 6 4 -37 16 -54 16 -23 0 11
5 24 10 27 7 4 8 -13 4 -51 -5 -41 -4 -55 4 -50 11 7 10 97 -3 237 -4 36 -2
110 4 165 15 128 18 141 35 147 13 5 13 2 4 -18 -6 -13 -7 -32 -3 -42 7 -16 9
-15 15 7 4 14 12 24 18 23 7 -2 12 10 12 28 0 36 19 77 29 61 4 -6 6 -40 5
-74z m886 45 c-11 -17 -11 -17 -6 0 3 10 6 24 7 30 0 9 2 9 5 0 3 -7 0 -20 -6
-30z m160 16 c0 8 2 12 5 9 9 -9 -16 -98 -26 -92 -5 3 -4 14 2 26 6 11 8 32 5
46 -5 20 -4 23 4 12 8 -12 10 -13 10 -1z m1056 -37 c-20 -20 -22 -1 -4 31 11
20 12 21 16 3 2 -10 -3 -26 -12 -34z m317 -168 c4 -4 8 17 8 47 l2 54 7 -50
c4 -27 12 -63 19 -79 11 -26 7 -128 -5 -166 -11 -32 -10 -130 1 -130 6 0 12
24 13 59 1 32 7 70 12 83 8 17 9 7 6 -44 -3 -40 -1 -68 4 -68 13 0 13 -37 0
-45 -6 -4 -10 -14 -9 -23 4 -43 -2 -96 -9 -84 -5 7 -8 35 -8 62 1 28 -2 50 -6
50 -8 0 -12 -15 -9 -37 1 -6 -4 -15 -10 -19 -8 -4 -9 -3 -5 5 4 6 2 19 -6 28
-7 9 -12 18 -10 20 1 1 1 36 1 76 -1 49 -3 62 -8 42 -6 -27 -7 -28 -14 -10
-10 25 -9 322 1 390 6 45 7 40 12 -52 3 -56 8 -105 13 -109z m-1554 154 c2 19
21 4 21 -16 0 -9 -11 -22 -25 -29 -28 -13 -31 -4 -18 58 l7 34 7 -30 c4 -16 7
-24 8 -17z m1286 -156 c-14 -14 -17 16 -9 105 l9 98 3 -99 c1 -54 0 -101 -3
-104z m-1060 158 c-4 -12 -9 -19 -12 -17 -3 3 -2 15 2 27 4 12 9 19 12 17 3
-3 2 -15 -2 -27z m54 -42 c-19 -16 -46 -39 -60 -51 -14 -12 -31 -32 -38 -45
-6 -12 -16 -22 -21 -22 -16 0 -11 27 5 34 8 3 15 13 15 22 0 8 6 14 13 11 6
-2 20 9 30 25 9 16 28 33 42 38 14 5 25 14 25 20 0 6 5 8 11 4 8 -4 0 -17 -22
-36z m938 10 c-3 -8 -6 -5 -6 6 -1 11 2 17 5 13 3 -3 4 -12 1 -19z m111 -115
c-2 -76 -2 -130 0 -120 2 10 10 30 18 45 13 26 14 24 15 -38 1 -36 0 -107 -1
-159 -1 -65 2 -91 9 -87 6 4 11 0 11 -8 0 -9 -6 -16 -13 -16 -15 0 -60 44 -53
51 10 10 17 189 7 189 -5 0 -12 8 -15 18 -2 9 -3 -29 -2 -85 2 -57 1 -103 -1
-103 -7 0 -68 74 -89 109 -12 19 -20 41 -17 48 3 7 1 13 -5 13 -16 0 -25 95
-12 134 8 26 8 39 -1 54 -9 14 -9 23 0 38 12 18 12 18 8 -3 -3 -13 -1 -23 3
-23 5 0 11 10 13 23 6 26 -1 -109 -9 -170 -3 -27 -1 -43 5 -43 6 0 11 9 11 19
0 11 5 23 10 26 6 3 10 22 10 41 0 21 4 33 10 29 6 -3 10 -39 10 -78 0 -50 3
-67 10 -57 5 8 10 39 10 68 0 28 5 52 10 52 6 0 10 -16 10 -35 0 -19 4 -35 8
-35 8 0 12 48 16 193 0 26 5 47 10 47 4 0 7 -62 4 -137z m119 27 c-1 -55 1
-100 4 -100 8 0 23 144 20 178 -1 12 2 22 8 22 14 0 15 -176 2 -184 -5 -4 -12
-41 -16 -84 -11 -134 -17 -147 -29 -67 -13 79 -9 335 5 335 5 0 8 -45 6 -100z
m-2250 68 c-3 -8 -6 -5 -6 6 -1 11 2 17 5 13 3 -3 4 -12 1 -19z m1023 1 c0 -5
-4 -9 -10 -9 -5 0 -10 7 -10 16 0 8 5 12 10 9 6 -3 10 -10 10 -16z m1789 14
c0 -5 -4 -17 -9 -28 -8 -18 -9 -17 -9 8 -1 15 4 27 9 27 6 0 10 -3 9 -7z m631
-8 c0 -8 -4 -15 -10 -15 -5 0 -10 7 -10 15 0 8 5 15 10 15 6 0 10 -7 10 -15z
m-734 -3 c-3 -5 -1 -39 5 -77 11 -79 -4 -114 -17 -38 -4 26 -9 57 -10 68 -2
20 12 55 22 55 3 0 3 -4 0 -8z m-492 -148 c3 -8 1 -14 -4 -14 -6 0 -10 6 -10
14 0 8 -7 16 -15 20 -10 3 -14 14 -11 28 3 13 8 41 12 63 7 39 8 38 15 -28 4
-38 10 -75 13 -83z m-1895 114 l-12 -23 25 23 c34 31 41 28 33 -18 -4 -26 -3
-40 4 -40 6 0 11 9 11 19 0 11 3 28 7 38 6 14 9 11 14 -17 6 -31 7 -33 14 -13
13 41 23 15 13 -34 -6 -27 -11 -56 -11 -65 -1 -22 -2 -22 -21 -2 -14 13 -16
13 -16 1 0 -9 6 -17 13 -20 9 -3 9 -8 1 -16 -17 -18 -61 -3 -89 31 -26 30 -35
98 -14 98 5 0 7 5 4 11 -4 5 1 19 11 30 23 25 27 24 13 -3z m488 -15 c-3 -10
-5 -4 -5 12 0 17 2 24 5 18 2 -7 2 -21 0 -30z m-816 -26 c-8 -8 -11 -4 -11 14
0 33 14 47 18 19 2 -12 -1 -27 -7 -33z m2918 41 c0 -7 -4 -22 -9 -33 -7 -17
-9 -15 -9 13 -1 17 4 32 9 32 6 0 10 -6 9 -12z m-2056 -35 c-11 -101 -16 -125
-25 -109 -5 9 -13 14 -19 11 -5 -4 -9 -1 -9 4 0 6 5 11 10 11 16 0 12 30 -5
36 -8 4 -15 10 -15 15 0 15 22 10 37 -8 12 -16 14 -13 11 25 -2 25 1 42 7 42
6 0 10 -12 8 -27z m1304 -10 c-3 -10 -5 -4 -5 12 0 17 2 24 5 18 2 -7 2 -21 0
-30z m-367 17 c0 -5 -4 -10 -10 -10 -5 0 -10 5 -10 10 0 6 5 10 10 10 6 0 10
-4 10 -10z m1561 -87 c0 -54 0 -117 -1 -139 -1 -23 3 -45 9 -49 8 -4 11 19 12
72 1 43 5 89 9 103 6 15 8 -33 7 -127 -2 -157 6 -184 16 -53 4 41 7 78 7 82 0
3 8 5 18 4 10 -2 20 5 24 18 9 29 10 -49 2 -162 -5 -58 -11 -89 -17 -85 -7 4
-8 -29 -4 -100 6 -102 3 -119 -18 -98 -6 6 -41 11 -78 13 l-69 3 -19 55 c-17
47 -19 71 -14 160 9 180 28 360 37 360 4 0 8 -44 9 -97 0 -54 4 -120 9 -148 6
-44 8 -37 9 49 0 55 3 97 5 95 6 -5 15 -121 16 -187 0 -38 3 -51 12 -46 8 5 9
57 5 191 -4 118 -3 183 3 183 6 0 10 -41 11 -97z m-1304 65 c-3 -8 -6 -5 -6 6
-1 11 2 17 5 13 3 -3 4 -12 1 -19z m1390 -111 c-2 -23 -3 -1 -3 48 0 50 1 68
3 42 2 -26 2 -67 0 -90z m-554 88 c-7 -21 -13 -19 -13 6 0 11 4 18 10 14 5 -3
7 -12 3 -20z m-1060 8 c3 -5 8 -33 12 -63 7 -50 6 -53 -9 -41 -14 12 -16 9
-16 -24 0 -46 -11 -41 -12 5 -1 18 5 36 13 40 11 7 10 12 -4 27 -10 12 -14 27
-10 41 5 22 18 29 26 15z m984 -15 c-3 -8 -6 -5 -6 6 -1 11 2 17 5 13 3 -3 4
-12 1 -19z m420 -50 c-2 -13 -4 -3 -4 22 0 25 2 35 4 23 2 -13 2 -33 0 -45z
m-1528 -20 l0 -73 -14 43 c-10 33 -10 50 -2 72 6 17 13 30 14 30 2 0 3 -33 2
-72z m1498 -53 c5 -50 5 -112 1 -139 -7 -53 -1 -77 14 -55 6 9 7 -13 3 -61 -7
-81 -9 -84 -42 -95 -21 -6 -23 -3 -23 31 0 21 7 45 15 54 11 12 15 49 17 153
2 75 0 137 -4 137 -4 0 -5 14 -1 30 3 18 1 30 -5 30 -6 0 -13 -10 -15 -22 -3
-17 -5 -15 -6 9 -1 32 18 50 31 29 3 -6 10 -52 15 -101z m-350 73 c-3 -7 -5
-2 -5 12 0 14 2 19 5 13 2 -7 2 -19 0 -25z m-1974 7 c-3 -9 -8 -14 -10 -11 -3
3 -2 9 2 15 9 16 15 13 8 -4z m77 -5 c0 -5 -5 -10 -11 -10 -5 0 -7 5 -4 10 3
6 8 10 11 10 2 0 4 -4 4 -10z m1810 6 c0 -3 -4 -8 -10 -11 -5 -3 -10 -1 -10 4
0 6 5 11 10 11 6 0 10 -2 10 -4z m-544 -28 c4 -7 3 -8 -4 -4 -16 10 -15 -14 2
-83 18 -69 34 -209 26 -238 -5 -21 -6 -21 -26 -5 -20 16 -22 30 -29 180 -6
142 -5 162 8 162 9 0 19 -5 23 -12z m501 -10 c-3 -8 -6 -5 -6 6 -1 11 2 17 5
13 3 -3 4 -12 1 -19z m385 -47 c-3 -42 -7 -59 -13 -50 -12 19 -11 76 2 101 14
27 15 23 11 -51z m-3322 12 c-11 -17 -11 -17 -6 0 3 10 7 26 7 35 1 15 2 15 6
0 2 -10 -1 -25 -7 -35z m1158 23 c-1 -14 -6 -22 -10 -20 -12 7 -10 44 2 44 5
0 9 -11 8 -24z m412 15 c0 -6 -4 -13 -10 -16 -5 -3 -10 1 -10 9 0 9 5 16 10
16 6 0 10 -4 10 -9z m46 -37 c1 -16 0 -32 -3 -37 -9 -15 -23 16 -23 53 0 25 3
31 11 23 7 -7 13 -24 15 -39z m899 -58 c-5 -39 -4 -61 4 -65 8 -5 9 -33 2
-100 -11 -100 -13 -107 -32 -96 -12 8 -8 141 7 305 6 55 8 61 16 40 5 -14 6
-51 3 -84z m465 9 c11 -13 -6 -196 -18 -204 -5 -4 -14 -39 -21 -78 -12 -68
-31 -108 -31 -66 0 11 -4 23 -9 29 -5 5 -11 27 -14 49 -3 36 -4 35 -4 -10 -1
-69 9 -100 32 -100 21 0 35 -12 35 -32 0 -9 -17 -13 -50 -13 l-50 0 6 83 c5
79 5 81 -13 64 -14 -14 -17 -31 -15 -82 2 -52 -1 -65 -12 -65 -12 0 -13 6 -5
30 6 16 9 35 6 42 -3 8 -6 6 -6 -4 -1 -10 -6 -18 -12 -18 -6 0 -9 19 -8 50 2
27 0 53 -4 56 -4 4 -7 12 -7 18 0 6 5 4 10 -4 7 -11 10 -3 10 28 0 24 -4 41
-8 38 -13 -8 -1 58 12 66 20 14 23 8 20 -49 l-3 -58 17 68 c9 37 20 67 25 67
7 0 5 -39 -9 -127 -3 -20 -1 -33 6 -33 5 0 10 12 10 26 0 15 7 32 16 39 14 10
14 15 3 32 -15 24 -1 84 27 118 13 17 15 17 10 3 -10 -33 -29 -239 -22 -246
10 -10 26 19 26 48 0 15 4 30 9 35 10 12 19 98 22 215 2 52 4 68 6 40 3 -24 8
-49 13 -55z m-1873 63 c-3 -8 -6 -5 -6 6 -1 11 2 17 5 13 3 -3 4 -12 1 -19z
m1602 -12 c0 -11 -3 -15 -6 -8 -2 6 -9 10 -14 6 -5 -3 -9 4 -9 15 0 14 5 19
15 15 8 -4 15 -16 14 -28z m-1222 -118 c-5 -16 -5 -34 2 -45 6 -12 6 -25 0
-34 -12 -20 -11 -79 2 -79 8 0 10 -26 7 -80 -2 -44 0 -80 3 -80 11 0 17 36 13
90 l-3 54 20 -33 c10 -17 19 -42 19 -54 -1 -12 -1 -34 -2 -48 l0 -26 -112 -6
c-61 -3 -113 -3 -115 -1 -2 2 1 15 8 28 7 12 11 34 8 47 -4 22 -4 21 -6 -5 -1
-24 -3 -26 -16 -16 -12 10 -14 7 -12 -16 2 -24 -2 -29 -30 -35 -18 -3 -33 -3
-33 0 0 4 -50 5 -112 3 -84 -2 -113 0 -119 10 -7 10 -9 10 -9 1 0 -14 -111
-19 -123 -6 -10 9 -67 10 -67 1 0 -17 -83 -8 -97 9 -7 10 -12 13 -11 8 4 -12
-4 -15 -40 -15 -26 0 -28 3 -28 37 1 21 -3 48 -7 61 -7 17 -5 22 8 22 9 0 13
-4 10 -10 -3 -5 1 -10 9 -10 8 0 18 -9 21 -20 8 -24 18 -25 35 -5 16 19 5 32
-14 16 -11 -9 -15 -8 -19 3 -7 17 7 31 44 45 26 9 26 9 14 -25 -6 -18 -14 -37
-18 -40 -12 -12 -8 -44 6 -44 13 0 37 53 37 83 0 9 5 17 11 17 8 0 8 5 -1 15
-7 8 -8 15 -3 15 5 0 34 23 64 51 30 28 62 55 72 60 29 16 21 -20 -13 -51 -16
-15 -30 -36 -30 -46 0 -16 1 -16 15 2 10 13 14 15 15 5 0 -9 7 -6 20 9 l20 23
0 -25 c0 -14 7 -31 15 -38 13 -11 15 -8 16 21 0 19 2 44 3 57 2 18 -1 21 -16
16 -12 -3 -18 0 -18 10 0 20 17 30 23 14 3 -7 6 0 6 15 1 16 -3 26 -9 22 -5
-3 -10 -2 -10 4 0 16 20 23 34 12 14 -12 15 -186 2 -229 -6 -19 -4 -22 14 -19
12 2 26 10 31 18 12 19 11 2 -1 -22 -8 -15 -7 -19 5 -19 19 0 20 46 1 66 -16
15 -10 55 10 67 7 4 12 21 12 37 -1 23 -4 27 -14 19 -9 -8 -11 -6 -7 9 2 11 0
23 -6 26 -14 9 -14 86 -1 106 8 13 10 12 10 -2 0 -10 5 -18 10 -18 6 0 10 16
10 35 0 33 1 34 29 29 16 -4 32 -1 35 5 14 22 21 10 18 -29 -5 -46 14 -56 24
-12 10 47 12 48 13 5 1 -40 20 -70 29 -44 2 6 11 -2 20 -18 30 -55 81 -100
125 -111 23 -6 50 -15 60 -20 26 -15 33 14 11 46 -11 15 -23 34 -29 43 -5 9
-14 19 -18 22 -5 3 -1 9 9 13 19 7 37 -11 29 -31 -2 -7 0 -15 5 -18 9 -5 15
33 11 59 -1 5 6 17 14 27 11 11 15 26 10 41 -5 18 -4 20 4 8 7 -9 11 -10 11
-3 0 6 5 24 12 40 11 27 12 26 18 -32 4 -33 2 -72 -3 -87z m201 98 c-2 -24 -7
-42 -11 -39 -7 4 -6 21 3 81 0 1 2 2 5 2 3 0 4 -20 3 -44z m1676 13 c10 -54 7
-201 -5 -197 -13 4 -23 228 -10 228 5 0 11 -14 15 -31z m-2321 -9 c-7 -28 -13
-25 -13 6 0 14 4 23 9 20 5 -3 7 -15 4 -26z m1721 1 c14 -15 16 -28 11 -53
-10 -44 -13 -48 -31 -41 -8 3 -12 13 -10 22 14 47 15 73 1 67 -9 -3 -12 0 -8
10 7 19 16 18 37 -5z m-2734 -38 c0 -7 -4 -13 -10 -13 -5 0 -10 12 -10 28 0
21 2 24 10 12 5 -8 10 -21 10 -27z m1343 -2 c-6 -23 -12 -28 -22 -22 -12 8
-12 13 3 36 22 33 30 27 19 -14z m148 -36 l-9 -60 -1 52 c0 28 2 59 6 69 11
30 13 2 4 -61z m131 -11 c-2 -42 -5 -74 -8 -72 -6 7 -12 137 -6 143 14 14 17
-1 14 -71z m1618 30 c0 -27 -4 -43 -10 -39 -5 3 -10 24 -10 46 0 21 5 39 10
39 6 0 10 -21 10 -46z m-552 -72 c5 -209 7 -242 15 -242 6 0 12 97 8 146 0 11
8 29 19 39 19 17 19 17 10 -13 -4 -17 -7 -44 -5 -59 5 -39 -14 -156 -27 -168
-7 -7 -9 -2 -6 18 3 15 1 27 -3 27 -5 0 -9 -18 -9 -40 0 -39 12 -52 26 -28 4
7 13 35 20 63 l12 50 1 -61 c1 -63 -6 -73 -56 -74 -16 0 -54 86 -46 106 3 8
-1 20 -10 27 -17 13 -20 26 -18 69 1 19 5 26 15 22 15 -6 20 19 32 154 4 40 9
70 13 66 3 -3 7 -49 9 -102z m-638 94 c0 -3 -4 -8 -10 -11 -5 -3 -10 -1 -10 4
0 6 5 11 10 11 6 0 10 -2 10 -4z m-54 -15 c-4 -5 0 -11 6 -14 10 -3 9 -8 -4
-18 -9 -8 -18 -23 -21 -34 -3 -11 -5 -2 -6 21 0 22 2 44 6 47 10 10 25 8 19
-2z m1001 -38 c-3 -10 -5 -2 -5 17 0 19 2 27 5 18 2 -10 2 -26 0 -35z m-1453
-9 c4 -14 2 -23 -6 -27 -9 -3 -14 8 -15 37 -3 41 7 36 21 -10z m525 -73 c1
-46 -1 -82 -3 -80 -2 2 -6 49 -9 104 -4 61 -3 92 3 80 5 -11 9 -58 9 -104z
m-412 57 c-2 -13 -4 -5 -4 17 -1 22 1 32 4 23 2 -10 2 -28 0 -40z m-68 0 c-5
-38 2 -108 11 -108 6 0 10 8 11 18 0 14 2 14 8 -3 6 -14 2 -24 -15 -37 -41
-33 -47 -24 -40 55 4 39 7 83 7 97 1 21 2 22 10 7 6 -9 9 -23 8 -29z m444 -33
c3 -38 9 -127 13 -197 l7 -128 -23 0 c-22 0 -22 2 -15 57 4 32 7 123 6 202 -2
154 4 181 12 66z m1265 15 c-1 -35 -6 -50 -15 -50 -16 0 -33 41 -32 78 1 25 2
24 12 -8 l11 -35 4 38 c5 54 21 36 20 -23z m-3321 28 c-3 -8 -6 -5 -6 6 -1 11
2 17 5 13 3 -3 4 -12 1 -19z m1748 12 c3 -5 1 -10 -4 -10 -6 0 -11 5 -11 10 0
6 2 10 4 10 3 0 8 -4 11 -10z m902 -27 c-3 -10 -5 -4 -5 12 0 17 2 24 5 18 2
-7 2 -21 0 -30z m-2702 -34 c-4 -28 -10 -47 -14 -41 -11 18 -62 26 -72 11 -7
-11 -9 -11 -9 2 0 17 43 62 52 54 2 -3 13 4 23 15 25 27 28 20 20 -41z m2000
-100 c1 -42 5 -81 8 -86 4 -6 1 -13 -7 -16 -15 -6 -27 82 -25 193 1 65 1 65
12 25 5 -22 11 -74 12 -116z m1077 129 c-8 -8 -8 -17 -1 -31 9 -16 5 -121 -7
-192 -1 -5 -2 -21 -3 -35 -1 -19 -4 -21 -13 -12 -17 17 -21 244 -5 254 8 5 8
8 -3 8 -13 0 -13 1 0 10 22 14 47 13 32 -2z m-1055 -60 c-2 -13 -4 -3 -4 22 0
25 2 35 4 23 2 -13 2 -33 0 -45z m585 -40 c2 -57 3 -104 3 -105 0 -1 -10 0
-21 3 -19 5 -20 10 -13 47 4 23 8 68 9 100 0 98 18 62 22 -45z m530 24 c1 -67
1 -67 7 -17 l6 50 7 -55 c3 -30 2 -77 -4 -103 -5 -26 -7 -60 -3 -75 l7 -27 13
25 c14 25 14 25 15 -12 0 -35 -6 -43 -27 -35 -5 1 -7 5 -5 10 1 4 -4 7 -12 7
-15 0 -26 50 -26 127 0 28 -4 54 -9 58 -9 5 -7 45 5 103 9 44 24 10 26 -56z
m-1085 36 c-3 -8 -6 -5 -6 6 -1 11 2 17 5 13 3 -3 4 -12 1 -19z m390 0 c-3 -8
-6 -5 -6 6 -1 11 2 17 5 13 3 -3 4 -12 1 -19z m-707 -24 c0 -8 -4 -14 -10 -14
-5 0 -10 9 -10 21 0 11 5 17 10 14 6 -3 10 -13 10 -21z m437 -51 c-2 -16 -4
-3 -4 27 0 30 2 43 4 28 2 -16 2 -40 0 -55z m-221 -53 l-15 -95 1 67 c1 38 -1
70 -4 74 -3 3 -11 -19 -18 -48 -16 -66 -31 -97 -23 -45 5 35 4 37 -22 37 -26
0 -25 2 23 45 28 25 54 56 58 68 15 42 14 -6 0 -103z m101 88 c-3 -8 -6 -5 -6
6 -1 11 2 17 5 13 3 -3 4 -12 1 -19z m1142 -20 c1 -5 -3 -8 -9 -8 -5 0 -10 12
-9 28 0 24 1 25 9 7 5 -11 9 -23 9 -27z m-1622 -10 c-3 -8 -6 -5 -6 6 -1 11 2
17 5 13 3 -3 4 -12 1 -19z m653 -23 c0 -19 -5 -35 -11 -35 -5 0 -7 4 -4 10 3
5 1 18 -4 28 -10 19 -6 32 11 32 4 0 8 -16 8 -35z m1001 -42 c0 -85 17 -76 18
10 1 73 18 55 23 -25 4 -56 1 -80 -11 -103 -21 -37 -53 -40 -57 -5 -5 45 9
200 17 200 5 0 9 -35 10 -77z m-1162 15 c-1 -29 1 -82 6 -118 4 -36 5 -62 1
-59 -10 10 -16 47 -23 142 -4 63 -3 87 6 87 7 0 11 -18 10 -52z m1234 -25 c-7
-80 -13 -79 -13 1 0 37 4 65 9 62 5 -3 7 -32 4 -63z m-1263 42 c0 -8 -4 -15
-10 -15 -5 0 -10 7 -10 15 0 8 5 15 10 15 6 0 10 -7 10 -15z m1364 -47 c-5
-51 -12 -69 -34 -92 l-28 -29 -15 29 c-8 16 -13 34 -11 39 1 6 5 31 9 58 5 39
10 47 27 47 19 0 20 -5 16 -60 -6 -81 9 -77 17 5 4 36 11 65 16 65 5 0 6 -28
3 -62z m-1245 -63 c-1 -111 -6 -101 -12 24 -3 54 -1 88 4 80 5 -8 8 -54 8
-104z m161 65 c0 -10 -4 -22 -10 -25 -6 -4 -10 7 -10 25 0 18 4 29 10 25 6 -3
10 -15 10 -25z m-30 -57 c0 -42 -2 -74 -4 -72 -9 9 -13 149 -5 149 5 0 9 -34
9 -77z m834 -75 c7 -16 2 -18 -49 -18 -52 0 -57 2 -52 20 3 13 0 20 -10 20
-12 0 -14 9 -8 48 3 26 7 52 7 59 1 7 6 9 11 6 5 -3 7 -28 3 -57 -3 -28 -2
-45 3 -38 5 9 11 5 20 -14 17 -37 28 -22 43 61 l13 70 6 -70 c3 -39 9 -78 13
-87z m-1320 104 c-9 -50 -14 -53 -14 -9 0 28 -3 35 -15 31 -8 -3 -17 -15 -21
-26 -5 -16 -8 -18 -15 -7 -7 11 -11 11 -21 1 -10 -10 -10 -14 0 -21 21 -13 -5
-91 -30 -91 -19 0 -19 1 1 26 12 15 21 34 21 43 0 9 -11 0 -27 -22 -23 -32
-28 -35 -36 -21 -10 18 9 98 27 113 6 5 29 11 51 13 22 2 50 4 63 5 21 3 22 0
16 -35z m33 -9 c-9 -79 -19 -113 -32 -113 -10 0 -8 20 7 80 11 44 23 80 25 80
3 0 3 -21 0 -47z m200 -5 c-2 -13 -4 -5 -4 17 -1 22 1 32 4 23 2 -10 2 -28 0
-40z m153 42 c0 -5 -4 -10 -10 -10 -5 0 -10 5 -10 10 0 6 5 10 10 10 6 0 10
-4 10 -10z m70 -25 c0 -19 -2 -35 -4 -35 -2 0 -6 16 -8 35 -2 19 0 35 4 35 4
0 8 -16 8 -35z m-610 6 c0 -5 -7 -24 -15 -42 -14 -33 -14 -33 -15 -7 0 14 -3
33 -6 42 -4 12 0 16 15 16 12 0 21 -4 21 -9z m237 -4 c-3 -8 -8 -39 -12 -70
-5 -39 -12 -57 -21 -57 -8 0 -14 8 -14 18 0 33 30 122 41 122 6 0 9 -6 6 -13z
m522 -1 c18 -10 20 -15 10 -21 -7 -5 -14 -4 -17 3 -2 7 -10 12 -17 12 -8 0
-17 5 -20 10 -9 14 15 12 44 -4z m-1747 -28 c3 -55 2 -63 -11 -63 -13 0 -25
61 -14 78 9 15 23 6 25 -15z m1113 -30 c-7 -52 -19 -77 -31 -66 -7 7 23 118
32 118 3 0 3 -24 -1 -52z m588 -50 c-7 -15 -9 -6 -10 38 0 57 0 58 10 21 6
-24 6 -47 0 -59z m1149 53 c5 -18 8 -35 6 -36 -2 -2 -23 -5 -48 -7 -25 -2 -51
-7 -57 -11 -17 -11 -153 -6 -153 5 0 5 7 11 15 14 8 4 15 15 15 25 0 29 14 23
27 -11 6 -16 15 -30 20 -30 4 0 30 19 56 43 64 56 106 59 119 8z m-917 19 c3
-5 -1 -10 -9 -10 -8 0 -18 5 -21 10 -3 6 1 10 9 10 8 0 18 -4 21 -10z m55 1
c0 -5 -7 -11 -15 -15 -15 -5 -20 5 -8 17 9 10 23 9 23 -2z m-625 -62 c-7 -21
10 -26 18 -6 3 6 6 1 6 -13 1 -24 -1 -25 -54 -22 -30 2 -55 6 -55 8 0 12 42
44 50 39 6 -4 13 8 17 26 6 31 7 32 15 9 5 -12 6 -31 3 -41z m162 29 c-3 -8
-6 -5 -6 6 -1 11 2 17 5 13 3 -3 4 -12 1 -19z m73 -13 c0 -19 -4 -35 -8 -35
-4 0 -6 16 -4 35 2 19 6 35 8 35 2 0 4 -16 4 -35z m-349 -48 c-18 -18 -21 -3
-8 39 l12 39 3 -34 c2 -18 -1 -38 -7 -44z m26 41 c-3 -7 -5 -2 -5 12 0 14 2
19 5 13 2 -7 2 -19 0 -25z m287 -10 c6 -25 4 -28 -19 -28 -20 0 -25 5 -24 23
0 12 3 16 6 10 10 -25 25 -13 18 15 -4 17 -3 23 3 17 5 -5 12 -22 16 -37z
m106 -5 c0 -13 -4 -23 -10 -23 -5 0 -10 17 -10 38 0 27 3 33 10 22 5 -8 10
-25 10 -37z m71 10 c-4 -34 -5 -36 -11 -13 -4 14 -2 31 3 38 13 17 14 16 8
-25z m339 -25 c0 -18 -4 -19 -42 -13 -24 4 -44 11 -46 16 -2 5 -13 2 -25 -6
-18 -11 -33 -11 -74 -3 -29 6 -53 14 -53 18 0 13 53 18 70 8 21 -13 87 -2 97
16 21 35 73 10 73 -36z m-2135 32 c-3 -5 -13 -10 -21 -10 -8 0 -14 5 -14 10 0
6 9 10 21 10 11 0 17 -4 14 -10z m1025 -5 c0 -8 -4 -15 -10 -15 -5 0 -10 7
-10 15 0 8 5 15 10 15 6 0 10 -7 10 -15z"/>
<path d="M5240 1229 c0 -5 5 -7 10 -4 6 3 10 8 10 11 0 2 -4 4 -10 4 -5 0 -10
-5 -10 -11z"/>
<path d="M5185 1127 c-21 -34 -54 -86 -73 -114 -18 -29 -32 -58 -30 -64 2 -7
22 17 45 52 50 79 106 180 101 184 -2 2 -21 -24 -43 -58z"/>
<path d="M5051 956 c-11 -13 -11 -20 -3 -28 15 -15 24 -5 20 23 -3 21 -4 21
-17 5z"/>
<path d="M5030 898 c0 -4 4 -8 9 -8 6 0 12 4 15 8 3 5 -1 9 -9 9 -8 0 -15 -4
-15 -9z"/>
<path d="M1776 828 c-5 -16 -5 -36 0 -45 7 -16 8 -15 11 5 3 12 3 32 0 45 -3
21 -4 20 -11 -5z"/>
<path d="M1742 750 c0 -19 2 -27 5 -17 2 9 2 25 0 35 -3 9 -5 1 -5 -18z"/>
<path d="M1764 708 c3 -13 6 -30 7 -38 0 -8 4 -4 8 10 9 28 4 50 -11 50 -6 0
-8 -10 -4 -22z"/>
<path d="M1728 670 c-3 -16 -1 -30 4 -30 4 0 8 6 8 14 0 8 3 21 6 30 3 9 2 16
-4 16 -5 0 -12 -13 -14 -30z"/>
<path d="M1885 680 c-3 -5 -1 -10 4 -10 6 0 11 5 11 10 0 6 -2 10 -4 10 -3 0
-8 -4 -11 -10z"/>
<path d="M1940 670 c0 -5 5 -10 10 -10 6 0 10 5 10 10 0 6 -4 10 -10 10 -5 0
-10 -4 -10 -10z"/>
<path d="M1910 651 c0 -14 5 -19 15 -14 17 6 15 25 -3 31 -7 2 -12 -5 -12 -17z"/>
<path d="M1931 605 c-10 -42 -10 -64 -1 -70 16 -10 17 -5 9 40 -3 22 -7 36 -8
30z"/>
<path d="M2345 565 c-4 -22 -10 -34 -12 -27 -3 6 -9 10 -14 6 -15 -9 -10 -24
7 -24 10 0 14 -6 10 -15 -3 -8 -1 -15 5 -15 6 0 9 8 8 18 -1 9 1 25 5 34 4 9
6 27 4 40 -3 18 -6 14 -13 -17z"/>
<path d="M2421 570 c0 -29 1 -32 10 -17 7 11 7 23 0 35 -9 14 -10 11 -10 -18z"/>
<path d="M1901 574 c0 -11 3 -14 6 -6 3 7 2 16 -1 19 -3 4 -6 -2 -5 -13z"/>
<path d="M1743 560 c-12 -28 -8 -39 8 -23 6 6 9 19 6 29 -3 17 -5 16 -14 -6z"/>
<path d="M2007 553 c-4 -3 -7 -11 -7 -17 0 -6 5 -5 12 2 6 6 9 14 7 17 -3 3
-9 2 -12 -2z"/>
<path d="M2372 520 c0 -14 2 -19 5 -12 2 6 2 18 0 25 -3 6 -5 1 -5 -13z"/>
<path d="M1830 511 c0 -11 5 -23 10 -26 6 -3 10 3 10 14 0 11 -4 23 -10 26 -5
3 -10 -3 -10 -14z"/>
<path d="M1736 503 c-6 -14 -5 -15 5 -6 7 7 10 15 7 18 -3 3 -9 -2 -12 -12z"/>
<path d="M2000 491 c0 -17 5 -33 10 -36 6 -4 10 8 10 29 0 20 -4 36 -10 36 -5
0 -10 -13 -10 -29z"/>
<path d="M2267 489 c-3 -13 -1 -19 6 -16 15 5 22 37 9 37 -5 0 -12 -9 -15 -21z"/>
<path d="M1800 473 c0 -18 5 -33 10 -33 13 0 13 30 0 50 -7 11 -10 7 -10 -17z"/>
<path d="M2300 472 c0 -10 -7 -27 -15 -39 -8 -12 -12 -28 -9 -37 11 -28 24
-17 24 18 0 19 5 38 10 41 6 3 10 13 10 21 0 8 -4 14 -10 14 -5 0 -10 -8 -10
-18z"/>
<path d="M2361 450 c0 -40 2 -42 11 -22 8 16 8 28 0 45 -9 19 -11 17 -11 -23z"/>
<path d="M1746 438 c-3 -13 -5 -43 -5 -68 1 -25 4 -36 6 -25 3 11 10 23 16 26
6 4 7 15 2 25 -4 11 -7 29 -6 42 1 12 0 22 -2 22 -3 0 -7 -10 -11 -22z"/>
<path d="M2146 429 c-3 -17 -6 -37 -6 -43 1 -19 40 35 40 55 0 31 -27 21 -34
-12z"/>
<path d="M1411 304 c-12 -14 -20 -29 -17 -32 4 -3 13 4 22 16 20 29 35 28 30
-3 -6 -33 10 -32 18 0 13 50 -17 60 -53 19z"/>
<path d="M1670 295 c0 -8 5 -15 10 -15 6 0 10 7 10 15 0 8 -4 15 -10 15 -5 0
-10 -7 -10 -15z"/>
<path d="M1857 304 c-11 -12 -8 -72 4 -80 9 -5 10 1 5 21 -5 19 -3 31 6 36 9
6 10 11 2 19 -6 6 -13 7 -17 4z"/>
<path d="M2041 268 c-1 -21 4 -38 9 -38 11 0 11 14 0 50 -7 22 -8 21 -9 -12z"/>
<path d="M1558 260 c-6 -38 -3 -49 10 -34 5 5 6 23 2 39 l-6 30 -6 -35z"/>
<path d="M1620 281 c0 -5 5 -13 10 -16 6 -3 10 -2 10 4 0 5 -4 13 -10 16 -5 3
-10 2 -10 -4z"/>
<path d="M1955 281 c-3 -5 -1 -12 5 -16 5 -3 10 1 10 9 0 18 -6 21 -15 7z"/>
<path d="M1797 273 c-11 -10 -8 -63 3 -63 6 0 10 16 10 35 0 36 -2 40 -13 28z"/>
<path d="M1666 258 c-11 -33 -14 -88 -6 -88 9 0 13 12 25 72 4 21 -13 35 -19
16z"/>
<path d="M1730 251 c0 -10 -3 -34 -6 -52 -5 -26 -4 -31 6 -23 15 14 23 94 10
94 -6 0 -10 -8 -10 -19z"/>
<path d="M1990 249 c0 -11 4 -18 10 -14 5 3 7 12 3 20 -7 21 -13 19 -13 -6z"/>
<path d="M2107 233 c-6 -31 0 -46 14 -38 12 8 12 65 0 65 -5 0 -11 -12 -14
-27z"/>
<path d="M1950 235 c0 -8 5 -15 10 -15 6 0 10 7 10 15 0 8 -4 15 -10 15 -5 0
-10 -7 -10 -15z"/>
<path d="M1440 209 c0 -17 4 -28 10 -24 6 3 10 17 10 31 0 13 -4 24 -10 24 -5
0 -10 -14 -10 -31z"/>
<path d="M1510 230 c0 -5 5 -10 10 -10 6 0 10 5 10 10 0 6 -4 10 -10 10 -5 0
-10 -4 -10 -10z"/>
<path d="M1613 220 c1 -11 5 -20 9 -20 11 0 10 28 -1 35 -6 3 -9 -4 -8 -15z"/>
<path d="M1850 189 c0 -11 5 -17 10 -14 6 3 10 13 10 21 0 8 -4 14 -10 14 -5
0 -10 -9 -10 -21z"/>
<path d="M2060 200 c0 -5 5 -10 10 -10 6 0 10 5 10 10 0 6 -4 10 -10 10 -5 0
-10 -4 -10 -10z"/>
<path d="M4238 678 c-4 -92 -3 -118 4 -118 4 0 8 34 8 75 0 74 -9 105 -12 43z"/>
<path d="M2287 745 c-4 -8 -2 -17 3 -20 6 -4 10 3 10 14 0 25 -6 27 -13 6z"/>
<path d="M5314 399 c-4 -7 -3 -9 4 -5 5 3 13 0 15 -6 4 -9 6 -10 6 -1 1 17
-16 25 -25 12z"/>
<path d="M5091 374 c0 -11 3 -14 6 -6 3 7 2 16 -1 19 -3 4 -6 -2 -5 -13z"/>
<path d="M2755 580 c4 -6 1 -17 -5 -26 -15 -18 -16 -147 -1 -286 1 -5 5 -8 9
-8 11 0 34 277 26 308 -4 12 -13 22 -21 22 -8 0 -11 -5 -8 -10z"/>
<path d="M3135 548 c-8 -25 -11 -134 -4 -154 5 -12 8 4 8 44 1 34 0 63 -1 65
-1 1 4 12 10 24 8 14 9 24 2 28 -6 3 -12 0 -15 -7z"/>
<path d="M2917 346 c-9 -14 -14 -32 -11 -40 8 -21 24 -21 24 0 0 9 -5 13 -12
9 -7 -4 -3 2 9 12 15 12 20 23 14 31 -6 10 -12 7 -24 -12z"/>
<path d="M2503 340 c-3 -12 -11 -19 -19 -16 -8 3 -11 0 -8 -9 5 -12 10 -12 30
2 26 17 30 28 13 38 -6 4 -13 -3 -16 -15z"/>
<path d="M3130 329 c0 -16 4 -28 9 -25 8 5 3 56 -5 56 -2 0 -4 -14 -4 -31z"/>
<path d="M3090 340 c0 -5 5 -10 11 -10 5 0 7 5 4 10 -3 6 -8 10 -11 10 -2 0
-4 -4 -4 -10z"/>
<path d="M2796 294 c-9 -22 -7 -44 2 -44 5 0 9 14 10 30 1 33 -3 38 -12 14z"/>
<path d="M3103 255 c1 -30 5 -55 9 -55 11 0 13 18 10 65 -6 64 -21 56 -19 -10z"/>
<path d="M2587 293 c-4 -3 -7 -11 -7 -17 0 -6 5 -5 12 2 6 6 9 14 7 17 -3 3
-9 2 -12 -2z"/>
<path d="M2827 243 c-9 -14 -1 -49 9 -43 5 3 7 14 5 25 -4 25 -7 29 -14 18z"/>
<path d="M2587 233 c-4 -3 -7 -18 -6 -32 0 -16 3 -20 6 -11 3 8 12 19 19 23 8
4 14 12 14 17 0 11 -23 13 -33 3z"/>
<path d="M3140 231 c0 -5 5 -13 10 -16 6 -3 10 -2 10 4 0 5 -4 13 -10 16 -5 3
-10 2 -10 -4z"/>
<path d="M2616 201 c-4 -7 -5 -15 -2 -18 9 -9 19 4 14 18 -4 11 -6 11 -12 0z"/>
<path d="M4391 284 c0 -11 3 -14 6 -6 3 7 2 16 -1 19 -3 4 -6 -2 -5 -13z"/>
<path d="M1595 460 c-3 -5 -1 -10 4 -10 6 0 11 5 11 10 0 6 -2 10 -4 10 -3 0
-8 -4 -11 -10z"/>
<path d="M5903 1305 c0 -38 2 -53 4 -32 2 20 2 52 0 70 -2 17 -4 1 -4 -38z"/>
<path d="M30 1333 c-6 -15 -14 -35 -19 -44 -5 -9 -10 -192 -11 -407 -1 -347 1
-392 15 -392 8 0 15 9 15 20 0 11 7 20 15 20 19 0 99 40 93 46 -2 2 -27 -5
-55 -15 l-51 -19 -6 30 c-3 17 -4 34 -1 38 2 4 35 10 73 14 122 12 139 27 25
21 -97 -4 -103 -3 -103 15 0 26 29 40 93 46 29 3 67 7 85 10 30 5 31 6 16 22
-12 11 -39 18 -83 20 l-66 4 -2 39 c-1 30 3 39 15 40 32 2 44 -3 71 -27 23
-22 80 -46 90 -38 7 6 -21 34 -34 34 -6 0 -20 9 -29 19 -10 11 -30 24 -45 30
-23 10 -27 17 -27 56 0 25 4 45 8 45 4 0 8 -9 8 -20 0 -22 10 -26 26 -10 10
10 49 -24 104 -90 l21 -24 -5 28 c-5 30 -29 62 -79 106 -26 23 -27 27 -13 45
15 20 16 19 46 -15 16 -19 39 -52 50 -72 22 -40 40 -50 40 -20 0 22 -22 55
-68 103 -31 34 -33 37 -14 43 22 7 52 -2 52 -15 0 -16 50 -89 61 -89 25 0 -42
118 -88 154 -20 15 -22 21 -11 35 10 13 10 14 -1 5 -10 -9 -21 -7 -47 10 -38
24 -39 26 -20 52 18 24 31 13 16 -15 -13 -25 -3 -27 21 -5 16 14 19 14 36 -4
49 -55 103 -128 103 -141 0 -15 28 -33 34 -22 3 5 -16 42 -43 82 -28 40 -47
77 -44 83 4 5 13 0 21 -12 8 -12 18 -22 23 -22 18 0 8 22 -31 64 -22 23 -37
46 -33 49 3 4 24 7 46 7 l39 0 -16 -25 c-21 -32 -20 -42 2 -22 25 23 58 11 83
-29 22 -36 39 -44 39 -18 0 9 -9 18 -20 21 -11 3 -20 14 -20 25 0 15 4 18 23
12 50 -15 67 -24 67 -34 0 -5 4 -10 10 -10 6 0 6 9 0 26 -14 35 -13 39 6 23
14 -12 16 -11 13 6 -4 18 -12 20 -92 19 -48 0 -81 3 -74 8 6 4 51 8 100 8 87
0 87 0 81 -24 -9 -36 12 -41 28 -6 7 16 16 30 19 30 4 0 16 -16 28 -35 17 -30
41 -47 41 -29 0 15 -22 44 -31 39 -5 -4 -9 -1 -9 5 0 6 7 13 16 17 20 7 47
-24 39 -45 -3 -8 0 -12 7 -9 7 2 12 16 10 31 -4 40 35 33 53 -9 8 -20 9 -19
12 2 4 18 12 22 59 25 53 3 70 -4 38 -16 -9 -3 -27 -6 -40 -6 -28 0 -30 -6
-10 -26 8 -8 22 -11 31 -8 14 6 16 1 13 -27 -2 -19 -10 -40 -18 -47 -8 -7 4
-4 28 8 26 13 47 32 54 48 9 21 12 23 15 10 3 -10 -10 -33 -31 -54 -45 -47
-46 -59 -1 -33 19 11 39 18 44 15 5 -4 17 4 25 16 23 32 30 16 11 -24 l-16
-33 21 24 c23 27 28 15 5 -15 -19 -24 -19 -34 0 -34 8 0 22 11 31 25 9 14 20
23 24 20 5 -3 11 3 13 12 2 10 3 5 1 -12 -3 -20 -20 -46 -54 -78 -48 -46 -72
-80 -30 -42 21 19 28 7 8 -13 -20 -20 1 -26 22 -7 11 10 20 14 20 9 0 -5 8 6
17 24 8 18 18 31 20 28 14 -14 -52 -98 -117 -148 -19 -15 -31 -30 -27 -34 3
-4 22 5 41 20 61 46 78 25 24 -31 -18 -18 -26 -33 -19 -33 7 0 27 16 44 35 17
19 34 35 39 35 18 0 6 -28 -27 -60 -19 -19 -35 -40 -35 -47 0 -15 32 -33 59
-33 14 0 21 -6 21 -20 0 -18 -4 -20 -35 -14 -28 5 -35 3 -35 -10 0 -10 9 -16
24 -16 14 0 28 -5 31 -10 4 -6 -5 -10 -19 -10 -16 0 -26 -6 -26 -14 0 -8 -6
-16 -12 -19 -10 -3 -10 -8 -2 -17 13 -13 7 -50 -7 -50 -21 0 -7 -40 24 -67 17
-16 38 -40 46 -54 14 -23 13 -23 -5 -9 -10 8 -25 23 -32 33 -14 18 -48 25 -37
7 3 -6 -1 -10 -9 -10 -23 0 -20 -7 19 -41 19 -17 35 -36 35 -42 0 -6 -11 0
-25 13 -32 30 -32 18 0 -24 14 -18 25 -41 25 -51 0 -14 -5 -11 -22 11 -56 71
-91 74 -44 4 31 -48 32 -54 5 -40 -31 17 -34 5 -4 -14 14 -9 30 -14 35 -11 6
3 7 -1 4 -9 -4 -11 -14 -14 -33 -10 -22 4 -23 4 -8 -6 33 -21 17 -29 -18 -9
-22 13 -35 17 -35 9 0 -6 -11 -2 -27 9 -33 26 -43 19 -16 -12 11 -12 26 -32
32 -45 11 -20 9 -22 -14 -22 -20 0 -29 7 -36 30 -6 17 -17 30 -25 30 -16 0
-19 -16 -5 -24 15 -10 20 -46 6 -46 -8 0 -11 7 -8 19 3 13 -2 23 -16 31 -30
15 -47 3 -26 -20 18 -20 5 -36 -19 -23 -15 8 -16 11 -16 38 0 8 -5 15 -11 15
-5 0 -8 -4 -5 -9 3 -4 -2 -17 -10 -27 -11 -14 -17 -15 -20 -6 -7 14 -34 16
-34 2 0 -5 -11 -10 -25 -10 -14 0 -25 5 -25 10 0 6 -7 10 -16 10 -8 0 -12 -5
-9 -10 3 -6 -3 -10 -14 -10 -12 0 -21 8 -23 22 -4 30 -26 34 -30 6 -2 -18 -10
-24 -38 -26 -33 -3 -34 -3 -17 15 22 25 22 43 -1 43 -11 0 -24 -11 -30 -24
-11 -25 -52 -54 -52 -38 0 5 9 17 20 27 11 10 20 22 20 27 0 16 -23 7 -42 -17
-11 -14 -26 -25 -34 -25 -8 0 -14 -4 -14 -10 0 -5 -10 -10 -22 -10 -21 0 -21
1 5 28 51 53 25 60 -27 7 -33 -33 -64 -44 -79 -29 -4 4 14 20 38 35 42 27 58
49 35 49 -5 0 -10 -3 -10 -8 0 -4 -21 -19 -47 -32 -27 -14 -51 -29 -55 -35 -4
-6 -8 -2 -8 7 0 10 -3 17 -7 17 -29 -5 -21 6 30 40 33 21 55 41 50 44 -9 6
-100 -48 -133 -78 -11 -10 -25 -15 -32 -13 -8 3 -4 9 12 18 13 7 31 20 39 27
11 11 93 74 130 100 2 2 2 5 -1 8 -2 3 -37 -18 -77 -45 -40 -28 -77 -50 -82
-50 -5 0 -12 -7 -15 -15 -6 -15 -24 -11 -24 4 0 5 40 39 90 75 49 37 90 71 90
77 0 8 -59 -30 -136 -88 -48 -36 -50 -27 -5 20 47 49 75 87 66 87 -4 0 -30
-20 -57 -45 -28 -25 -54 -45 -59 -45 -24 0 -4 33 46 76 57 48 68 71 18 38 -15
-10 -38 -24 -50 -31 -21 -11 -23 -10 -23 12 0 27 11 35 158 121 46 27 78 50
73 52 -6 2 -26 -5 -43 -16 -18 -11 -72 -41 -121 -66 -81 -44 -87 -46 -87 -26
0 12 -4 19 -10 15 -11 -7 -8 -270 5 -304 6 -17 5 -22 -3 -17 -8 5 -12 0 -12
-13 0 -27 22 -27 45 -1 10 11 23 20 29 20 6 0 3 -7 -8 -15 -28 -21 -10 -35 47
-36 29 0 74 -4 100 -8 26 -4 50 -4 53 0 5 9 424 5 691 -6 l142 -6 -8 29 c-5
16 -5 35 0 43 7 11 9 9 9 -7 0 -14 8 -24 22 -27 l21 -6 -8 147 c-4 81 -7 170
-7 197 8 505 14 690 27 733 20 63 19 69 -7 78 -28 8 -38 22 -38 52 0 28 -16
29 -23 2 -4 -17 -10 -20 -34 -13 -15 4 -156 6 -313 4 -538 -9 -680 -5 -680 15
0 26 -20 24 -30 -3z m205 -63 c-3 -5 -12 -7 -20 -3 -21 7 -19 13 6 13 11 0 18
-4 14 -10z m777 -32 c-9 -9 -15 -9 -24 0 -9 9 -7 12 12 12 19 0 21 -3 12 -12z
m-750 -27 c18 -16 29 -33 25 -37 -4 -4 -24 9 -43 29 -43 44 -29 50 18 8z m810
-6 c6 -28 -6 -34 -16 -9 -5 14 0 34 8 34 2 0 6 -11 8 -25z m-1017 -5 c3 -5 1
-10 -4 -10 -6 0 -11 5 -11 10 0 6 2 10 4 10 3 0 8 -4 11 -10z m926 -13 c-10
-9 -11 -8 -5 6 3 10 9 15 12 12 3 -3 0 -11 -7 -18z m-86 -33 c-9 -9 -19 -13
-23 -10 -3 4 0 11 8 16 24 15 33 11 15 -6z m-835 -14 c0 -5 -5 -10 -11 -10 -5
0 -7 5 -4 10 3 6 8 10 11 10 2 0 4 -4 4 -10z m103 -34 c-1 -13 4 -16 17 -13
11 3 27 -4 40 -18 19 -21 20 -23 4 -29 -10 -4 -21 -1 -26 6 -4 7 -8 9 -8 4 0
-6 -13 3 -30 19 -33 32 -40 58 -12 53 9 -2 16 -12 15 -22z m-96 -18 c-3 -8 -6
-5 -6 6 -1 11 2 17 5 13 3 -3 4 -12 1 -19z m58 -38 c-4 -6 -10 -8 -14 -6 -4 3
-8 -1 -8 -9 0 -8 4 -12 8 -10 3 3 9 -4 12 -15 5 -18 3 -18 -18 -4 -15 10 -21
21 -18 34 3 11 9 20 13 20 5 0 6 10 3 23 l-5 22 16 -23 c10 -12 14 -27 11 -32z
m992 -7 c-3 -10 -5 -4 -5 12 0 17 2 24 5 18 2 -7 2 -21 0 -30z m-1070 -5 c-3
-8 -6 -5 -6 6 -1 11 2 17 5 13 3 -3 4 -12 1 -19z m106 -13 c-12 -32 -23 -14
-14 23 1 2 5 1 11 -3 5 -3 7 -12 3 -20z m977 -47 c0 -18 -2 -20 -9 -8 -6 8 -7
18 -5 22 9 14 14 9 14 -14z m-1041 -37 c2 0 -6 -9 -17 -20 -13 -10 -22 -31
-22 -47 -1 -16 -7 -54 -15 -84 l-14 -55 6 100 c3 55 7 103 9 106 3 5 37 5 53
0z m978 -53 c-3 -7 -5 -2 -5 12 0 14 2 19 5 13 2 -7 2 -19 0 -25z m11 -131 c4
-21 -21 -22 -37 -3 -9 11 -9 15 1 19 20 8 33 2 36 -16z m-985 -34 c-7 -2 -19
-2 -25 0 -7 3 -2 5 12 5 14 0 19 -2 13 -5z m987 -139 c0 -8 -4 -12 -10 -9 -5
3 -10 10 -10 16 0 5 5 9 10 9 6 0 10 -7 10 -16z m-5 -122 c-6 -7 -35 18 -35
31 0 5 9 2 20 -8 11 -10 18 -20 15 -23z m-5 -97 c0 -8 -2 -15 -4 -15 -2 0 -6
7 -10 15 -3 8 -1 15 4 15 6 0 10 -7 10 -15z m27 -172 c-3 -10 -5 -4 -5 12 0
17 2 24 5 18 2 -7 2 -21 0 -30z m-1037 7 c0 -5 -4 -10 -10 -10 -5 0 -10 5 -10
10 0 6 5 10 10 10 6 0 10 -4 10 -10z m916 -31 c3 -6 0 -15 -7 -20 -9 -5 -18
-1 -26 14 -7 12 -12 26 -13 30 0 10 37 -10 46 -24z m74 15 c0 -9 -5 -14 -12
-12 -18 6 -21 28 -4 28 9 0 16 -7 16 -16z m-906 -29 c3 -8 1 -15 -4 -15 -6 0
-10 5 -10 11 0 5 -4 7 -10 4 -5 -3 -10 -1 -10 4 0 17 27 13 34 -4z"/>
<path d="M362 1188 c5 -15 28 -23 28 -10 0 5 -7 13 -16 16 -10 4 -14 1 -12 -6z"/>
<path d="M400 1163 c0 -12 38 -48 45 -41 3 2 -6 15 -20 28 -14 13 -25 19 -25
13z"/>
<path d="M576 1105 c-3 -10 -19 -15 -42 -15 l-37 0 6 -60 c3 -35 1 -58 -4 -54
-5 3 -9 -4 -9 -16 0 -12 -17 -42 -37 -67 -21 -25 -51 -66 -68 -89 -16 -24 -47
-68 -68 -98 l-37 -55 10 -73 c15 -110 17 -116 34 -134 9 -8 16 -20 16 -25 0
-25 66 -78 121 -99 51 -18 71 -20 139 -14 44 3 80 10 80 15 0 4 18 18 39 30
92 51 198 296 146 339 -8 7 -15 18 -15 25 0 7 -7 18 -15 25 -9 7 -28 32 -44
54 -22 33 -25 46 -17 60 9 13 7 19 -7 27 -11 7 -16 17 -12 29 4 13 0 20 -14
25 -18 5 -23 27 -9 41 4 3 4 13 1 21 -3 8 0 19 8 24 11 6 11 13 3 26 -16 27
-39 27 -51 1 -9 -19 -10 -17 -6 18 5 40 4 41 -27 48 -52 10 -77 7 -84 -9z m77
-62 c7 -10 3 -13 -16 -13 -23 0 -24 2 -14 25 7 13 14 19 16 12 2 -7 8 -18 14
-24z m37 -51 c0 -4 -17 -13 -39 -18 -29 -8 -43 -7 -55 2 -13 9 -14 13 -4 17
21 9 98 8 98 -1z m3 -40 c-3 -15 -20 -20 -83 -28 -75 -9 -78 -8 -76 12 1 19 5
20 31 12 33 -9 112 -1 121 13 9 15 12 10 7 -9z m15 -82 c2 -12 -13 -15 -78
-15 -44 0 -80 3 -80 8 0 4 -7 7 -15 7 -8 0 -15 3 -15 8 0 4 42 7 92 7 73 -1
93 -4 96 -15z m-176 -76 c-2 -16 -13 -45 -26 -64 -51 -78 -60 -109 -46 -149
17 -49 37 -70 61 -64 23 6 25 33 2 33 -15 0 -15 2 2 14 11 8 25 12 32 9 7 -3
13 2 13 10 0 12 -10 15 -40 14 -40 -3 -41 -2 -35 28 4 16 16 50 27 75 12 25
24 63 27 84 6 39 7 39 50 39 l44 0 2 -39 c3 -57 12 -86 34 -108 18 -18 19 -22
5 -48 -16 -32 -34 -29 -34 5 0 12 -4 28 -9 36 -15 23 -31 2 -32 -42 -1 -35 -2
-38 -9 -17 -4 14 -5 35 -3 48 4 15 0 22 -10 22 -21 0 -27 -34 -11 -66 8 -14
14 -35 14 -45 0 -24 20 -35 31 -18 5 8 9 10 9 4 0 -5 8 -1 16 10 15 19 15 18
9 -17 -12 -62 18 -49 39 17 9 30 21 57 26 60 16 10 11 41 -8 59 -25 22 -46 88
-38 120 5 19 12 25 28 22 12 -1 24 -8 26 -15 2 -7 14 -23 26 -36 12 -13 28
-36 35 -52 7 -15 17 -35 22 -43 29 -48 33 -62 22 -79 -6 -9 -14 -36 -18 -59
-4 -23 -11 -44 -16 -47 -4 -3 -16 -21 -24 -39 -22 -47 -87 -96 -148 -112 -72
-19 -96 -18 -160 10 -51 23 -57 30 -87 93 -44 93 -55 183 -29 234 10 21 25 42
33 46 7 4 26 26 40 48 33 49 40 53 80 51 28 -2 31 -5 28 -32z m104 -221 c-11
-11 -17 4 -9 23 7 18 8 18 11 1 2 -10 1 -21 -2 -24z"/>
<path d="M762 578 c-18 -58 -78 -128 -124 -146 -43 -17 -41 -32 5 -32 30 0 70
33 123 101 13 18 34 100 28 111 -10 17 -19 7 -32 -34z"/>
<path d="M934 1073 c-10 -15 -21 -30 -24 -33 -27 -26 -52 -60 -44 -60 12 0 98
110 91 116 -3 3 -14 -7 -23 -23z"/>
<path d="M5872 970 c0 -14 2 -19 5 -12 2 6 2 18 0 25 -3 6 -5 1 -5 -13z"/>
<path d="M827 959 c-9 -6 -17 -17 -17 -25 0 -11 5 -10 22 6 24 22 22 34 -5 19z"/>
<path d="M5852 695 c0 -16 2 -22 5 -12 2 9 2 23 0 30 -3 6 -5 -1 -5 -18z"/>
<path d="M5841 644 c0 -11 3 -14 6 -6 3 7 2 16 -1 19 -3 4 -6 -2 -5 -13z"/>
<path d="M5841 564 c0 -11 3 -14 6 -6 3 7 2 16 -1 19 -3 4 -6 -2 -5 -13z"/>
<path d="M5825 466 c-2 -23 -9 -106 -15 -186 -6 -80 -13 -175 -17 -212 -6 -65
-5 -68 16 -68 14 0 21 6 21 19 0 28 11 52 20 46 13 -8 29 54 28 110 0 28 0 83
1 123 0 39 0 78 -1 85 0 6 2 35 6 63 l8 52 -31 4 c-29 4 -31 3 -36 -36z"/>
<path d="M5922 245 c0 -16 2 -22 5 -12 2 9 2 23 0 30 -3 6 -5 -1 -5 -18z"/>
<path d="M5917 190 c-3 -11 -1 -20 4 -20 5 0 9 9 9 20 0 11 -2 20 -4 20 -2 0
-6 -9 -9 -20z"/>
<path d="M5912 95 c-1 -11 -5 -36 -8 -56 -6 -35 -5 -36 25 -35 31 1 31 2 12
17 -11 9 -21 32 -24 55 -2 21 -4 30 -5 19z"/>
<path d="M5841 14 c0 -11 3 -14 6 -6 3 7 2 16 -1 19 -3 4 -6 -2 -5 -13z"/>
</g>
</svg>
