<?xml version="1.0" standalone="no"?>
<!DOCTYPE svg PUBLIC "-//W3C//DTD SVG 20010904//EN"
 "http://www.w3.org/TR/2001/REC-SVG-20010904/DTD/svg10.dtd">
<svg version="1.0" xmlns="http://www.w3.org/2000/svg"
 width="168.000000pt" height="489.000000pt" viewBox="0 0 168.000000 489.000000"
 preserveAspectRatio="xMidYMid meet">
<metadata>
Created by potrace 1.16, written by Peter Selinger 2001-2019
</metadata>
<g transform="translate(0.000000,489.000000) scale(0.100000,-0.100000)"
fill="#000000" stroke="none">
<path d="M1325 4839 c-16 -5 -50 -11 -75 -14 -25 -3 -61 -7 -80 -10 -67 -11
-149 -12 -152 -3 -6 17 -478 19 -618 3 -155 -18 -217 -19 -223 -2 -3 9 -11 9
-33 -3 -24 -13 -31 -26 -41 -75 -6 -33 -10 -89 -7 -125 8 -119 4 -800 -6 -824
-5 -14 -5 -53 1 -97 8 -68 11 -189 8 -467 -1 -89 -4 -114 -16 -121 -13 -7 -13
-9 1 -14 9 -4 16 -14 16 -23 0 -10 -5 -14 -15 -10 -11 4 -15 -2 -15 -25 0 -24
4 -30 15 -25 11 4 15 -1 14 -17 0 -12 -3 -16 -6 -9 -13 33 -19 -7 -16 -105 6
-190 5 -359 -2 -401 -5 -32 -3 -42 11 -50 11 -6 13 -11 5 -16 -17 -11 -14 -66
4 -66 17 0 20 -27 5 -50 -7 -12 -11 -10 -18 10 l-9 24 -7 -29 c-4 -16 -2 -40
5 -56 9 -24 8 -35 -5 -63 -18 -38 -20 -47 -8 -45 28 5 31 -3 27 -63 -3 -53 -7
-63 -22 -63 -14 0 -17 -7 -15 -30 4 -36 22 -58 23 -29 0 10 3 13 6 7 2 -7 11
-13 19 -13 20 0 17 -12 -11 -38 -24 -23 -24 -25 -23 -205 0 -100 -3 -195 -7
-212 -5 -22 -4 -26 4 -15 15 22 26 3 12 -23 -12 -23 -14 -72 -11 -244 2 -118
-10 -178 -21 -103 -8 56 -6 -270 4 -480 6 -139 7 -233 4 -370 -1 -25 3 -53 7
-62 6 -14 4 -18 -13 -18 -22 0 -41 -27 -41 -59 0 -14 6 -21 19 -21 10 0 21 -6
24 -13 7 -18 179 -39 234 -28 24 5 43 6 43 3 0 -3 8 2 18 10 13 11 32 13 85 9
37 -4 67 -3 67 1 0 18 40 18 59 -1 22 -22 46 -27 55 -12 11 17 251 37 261 21
9 -14 177 -3 186 12 6 9 11 9 22 0 7 -7 17 -9 20 -5 4 3 116 6 250 7 183 1
248 4 259 14 13 10 17 10 21 0 2 -7 8 -10 12 -6 5 5 3 50 -4 100 -21 154 -25
267 -11 293 14 27 7 185 -10 231 -13 34 -13 124 1 164 9 25 9 34 -1 40 -7 4
-8 10 -3 13 5 3 6 39 1 84 -10 111 -13 470 -4 523 6 31 5 42 -2 35 -6 -5 -13
-30 -15 -55 -2 -25 -4 3 -4 63 0 59 3 107 8 107 5 0 7 -22 6 -50 -1 -27 1 -50
4 -50 4 0 9 96 12 213 3 116 8 223 12 236 6 16 5 22 -2 18 -7 -4 -14 8 -18 30
-11 63 -22 326 -15 378 5 35 8 3 10 -105 2 -120 4 -144 11 -105 10 63 2 563
-13 755 -11 154 -13 227 -24 815 -4 204 -10 359 -14 345 -9 -28 -13 69 -10
238 2 118 -19 337 -30 307 -5 -16 -8 -13 -13 14 -4 19 -7 44 -7 57 0 15 -6 24
-15 24 -8 0 -15 -9 -15 -21 0 -11 -5 -17 -10 -14 -6 3 -7 17 -4 29 4 18 1 25
-14 28 -11 3 -25 1 -30 -4 -6 -6 -17 -6 -30 1 -11 6 -22 11 -24 10 -2 0 -16
-5 -33 -10z m-635 -39 c-19 -13 -30 -13 -30 0 0 6 10 10 23 10 18 0 19 -2 7
-10z m67 4 c-3 -3 -12 -4 -19 -1 -8 3 -5 6 6 6 11 1 17 -2 13 -5z m377 -29
c-4 -8 -8 -15 -10 -15 -2 0 -4 7 -4 15 0 8 4 15 10 15 5 0 7 -7 4 -15z m86 0
c0 -8 -2 -15 -4 -15 -2 0 -6 7 -10 15 -3 8 -1 15 4 15 6 0 10 -7 10 -15z
m-581 -6 c-20 -4 -49 -4 -65 1 -23 7 -16 8 36 8 58 0 61 -1 29 -9z m338 -21
c-3 -8 -6 -5 -6 6 -1 11 2 17 5 13 3 -3 4 -12 1 -19z m120 -10 c-3 -7 -5 -2
-5 12 0 14 2 19 5 13 2 -7 2 -19 0 -25z m-180 -10 c-3 -7 -5 -2 -5 12 0 14 2
19 5 13 2 -7 2 -19 0 -25z m-517 12 c0 -5 -4 -10 -10 -10 -5 0 -10 5 -10 10 0
6 5 10 10 10 6 0 10 -4 10 -10z m650 -18 c0 -15 -2 -15 -10 -2 -13 20 -13 33
0 25 6 -3 10 -14 10 -23z m-404 -18 c-4 -9 -9 -15 -11 -12 -3 3 -3 13 1 22 4
9 9 15 11 12 3 -3 3 -13 -1 -22z m-119 -6 c-3 -8 -6 -5 -6 6 -1 11 2 17 5 13
3 -3 4 -12 1 -19z m390 -35 c-3 -10 -5 -2 -5 17 0 19 2 27 5 18 2 -10 2 -26 0
-35z m-350 15 c-3 -8 -6 -5 -6 6 -1 11 2 17 5 13 3 -3 4 -12 1 -19z m170 -25
c-3 -10 -5 -2 -5 17 0 19 2 27 5 18 2 -10 2 -26 0 -35z m56 -73 c6 -62 -6 -40
-17 30 -4 28 -3 41 2 35 5 -5 12 -35 15 -65z m-233 9 c0 -22 -4 -38 -8 -35 -8
5 -4 76 4 76 2 0 4 -18 4 -41z m497 9 c-3 -7 -5 -2 -5 12 0 14 2 19 5 13 2 -7
2 -19 0 -25z m-130 -40 c-2 -13 -4 -5 -4 17 -1 22 1 32 4 23 2 -10 2 -28 0
-40z m-80 -45 c-2 -16 -4 -5 -4 22 0 28 2 40 4 28 2 -13 2 -35 0 -50z m-530
25 c-3 -8 -6 -5 -6 6 -1 11 2 17 5 13 3 -3 4 -12 1 -19z m1210 -10 c-3 -8 -6
-5 -6 6 -1 11 2 17 5 13 3 -3 4 -12 1 -19z m-980 -20 c-3 -7 -5 -2 -5 12 0 14
2 19 5 13 2 -7 2 -19 0 -25z m860 10 c-3 -8 -6 -5 -6 6 -1 11 2 17 5 13 3 -3
4 -12 1 -19z m-188 -30 c1 -5 -3 -8 -9 -8 -5 0 -10 12 -9 28 0 24 1 25 9 7 5
-11 9 -23 9 -27z m68 10 c-3 -7 -5 -2 -5 12 0 14 2 19 5 13 2 -7 2 -19 0 -25z
m-317 12 c0 -5 -4 -10 -10 -10 -5 0 -10 5 -10 10 0 6 5 10 10 10 6 0 10 -4 10
-10z m188 -160 c0 -45 -2 -50 -8 -25 -4 17 -8 68 -7 115 0 85 0 85 7 25 4 -33
8 -85 8 -115z m94 78 c2 -25 0 -44 -4 -41 -5 2 -7 32 -7 66 2 65 6 55 11 -25z
m-552 43 c0 -16 7 -48 15 -71 8 -23 15 -57 15 -74 0 -18 7 -41 15 -52 8 -10
15 -28 15 -38 0 -11 7 -27 16 -37 26 -29 54 -157 54 -250 0 -67 4 -90 16 -100
14 -11 18 -10 30 6 8 10 14 31 14 46 0 21 12 38 46 66 29 24 54 58 70 94 19
41 30 55 44 54 11 -1 22 -4 26 -7 13 -13 15 -191 4 -321 -13 -150 -10 -171 37
-234 12 -17 23 -36 23 -41 0 -16 47 -34 70 -27 17 5 20 12 15 28 -3 12 -7 29
-9 37 -1 8 -6 27 -10 42 -14 47 -2 67 14 23 7 -22 26 -56 41 -75 40 -50 59
-112 66 -211 7 -97 -1 -151 -23 -174 -21 -21 -33 -19 -27 5 9 34 -12 22 -22
-12 -7 -23 -17 -34 -33 -36 -12 -2 -22 -7 -22 -11 0 -4 -11 -13 -25 -19 -36
-16 -32 0 15 66 39 57 59 118 60 181 0 32 -1 33 -30 28 -22 -5 -36 0 -60 19
-16 14 -30 31 -30 38 0 7 -21 42 -48 77 -26 35 -55 84 -66 109 -10 25 -27 65
-37 90 -24 58 -19 115 17 175 17 30 23 50 17 56 -6 6 -15 3 -25 -8 -23 -28
-97 -162 -104 -189 -8 -33 -19 -30 -45 14 -25 41 -39 53 -51 46 -13 -8 -9 -67
7 -94 31 -55 22 -54 -142 16 -52 22 -48 0 11 -60 30 -30 64 -74 75 -98 12 -23
32 -58 46 -77 17 -24 25 -48 26 -80 3 -110 -2 -121 -58 -121 -24 0 -42 11 -80
49 -42 42 -76 63 -235 142 -24 12 -31 -5 -20 -44 33 -107 46 -146 60 -177 9
-19 15 -45 13 -57 -1 -13 3 -23 9 -23 6 0 13 -8 17 -17 9 -25 102 -124 138
-147 43 -27 15 -31 -40 -6 -61 28 -99 69 -160 173 -63 108 -112 357 -87 442
l9 30 13 -27 c7 -16 19 -28 26 -28 7 0 23 -12 36 -27 22 -27 67 -52 190 -107
37 -16 61 -34 70 -52 21 -44 38 -42 38 6 0 46 -21 78 -133 203 -114 127 -126
141 -151 192 -17 35 -24 65 -23 98 1 26 4 47 6 47 9 0 30 -36 31 -51 0 -23 83
-97 117 -104 15 -4 40 -11 55 -17 29 -11 68 -3 68 14 0 40 -36 121 -75 168
-94 115 -127 230 -101 355 13 64 94 195 107 174 8 -12 11 -11 20 4 15 26 29
21 29 -12z m407 -3 c-3 -7 -5 -2 -5 12 0 14 2 19 5 13 2 -7 2 -19 0 -25z
m-697 -85 c-9 -15 -10 -12 -6 16 3 18 7 45 8 60 1 14 3 7 5 -16 2 -24 -1 -51
-7 -60z m367 75 c-3 -8 -6 -5 -6 6 -1 11 2 17 5 13 3 -3 4 -12 1 -19z m15 -48
c4 -26 3 -29 -9 -17 -8 7 -11 21 -7 30 9 24 11 21 16 -13z m285 -2 c-3 -7 -5
-2 -5 12 0 14 2 19 5 13 2 -7 2 -19 0 -25z m-707 -9 c0 -11 -4 -17 -10 -14 -5
3 -10 13 -10 21 0 8 5 14 10 14 6 0 10 -9 10 -21z m987 -41 c-2 -13 -4 -5 -4
17 -1 22 1 32 4 23 2 -10 2 -28 0 -40z m-277 20 c0 -4 -9 -8 -21 -8 -11 0 -18
4 -15 8 3 5 12 9 21 9 8 0 15 -4 15 -9z m43 -103 c4 -54 4 -61 -3 -30 -9 40
-13 112 -6 104 2 -2 6 -35 9 -74z m94 28 c-3 -10 -5 -4 -5 12 0 17 2 24 5 18
2 -7 2 -21 0 -30z m-820 -5 c-3 -7 -5 -2 -5 12 0 14 2 19 5 13 2 -7 2 -19 0
-25z m73 6 c0 -8 -4 -12 -10 -9 -5 3 -10 10 -10 16 0 5 5 9 10 9 6 0 10 -7 10
-16z m783 -41 c5 -45 -7 -60 -17 -20 -5 20 2 73 9 65 1 -2 5 -22 8 -45z m-56
-30 c-3 -10 -5 -4 -5 12 0 17 2 24 5 18 2 -7 2 -21 0 -30z m-250 -5 c-3 -8 -6
-5 -6 6 -1 11 2 17 5 13 3 -3 4 -12 1 -19z m383 -79 c0 -49 -4 -88 -9 -85 -5
3 -7 32 -6 63 2 32 4 70 4 86 1 15 3 27 6 27 3 0 5 -41 5 -91z m128 36 c-1
-24 -5 -42 -10 -39 -15 9 -8 84 8 84 1 0 2 -20 2 -45z m-998 25 c0 -5 -4 -10
-10 -10 -5 0 -10 5 -10 10 0 6 5 10 10 10 6 0 10 -4 10 -10z m707 -22 c-3 -8
-6 -5 -6 6 -1 11 2 17 5 13 3 -3 4 -12 1 -19z m255 -75 c7 -9 7 -13 -2 -13 -9
0 -11 -20 -6 -79 7 -93 12 -111 35 -111 12 0 13 -2 3 -9 -7 -4 -17 -30 -21
-57 -5 -27 -9 -43 -10 -36 0 7 -5 10 -11 7 -6 -4 -10 8 -10 29 0 22 5 36 13
36 7 1 5 6 -5 14 -12 9 -17 26 -16 60 0 26 -5 53 -11 59 -8 8 -11 -5 -11 -53
0 -97 -12 -63 -15 42 -2 51 -1 81 2 66 3 -19 10 -28 24 -28 17 0 19 8 21 88 1
49 3 68 5 42 3 -24 9 -50 15 -57z m-992 50 c0 -7 -4 -13 -10 -13 -5 0 -10 12
-10 28 0 21 2 24 10 12 5 -8 10 -21 10 -27z m774 -16 c-3 -15 -1 -67 5 -115 5
-48 12 -116 15 -152 6 -62 5 -64 -8 -33 -18 39 -34 367 -17 343 6 -8 8 -27 5
-43z m-729 23 c3 -5 1 -10 -4 -10 -6 0 -11 5 -11 10 0 6 2 10 4 10 3 0 8 -4
11 -10z m782 -62 c-3 -7 -5 -2 -5 12 0 14 2 19 5 13 2 -7 2 -19 0 -25z m-960
-15 c-3 -10 -5 -4 -5 12 0 17 2 24 5 18 2 -7 2 -21 0 -30z m92 0 c0 -16 -4
-37 -8 -48 -6 -14 -8 -5 -7 27 0 27 4 48 9 48 4 0 7 -12 6 -27z m1169 -58 c1
-25 -1 -27 -8 -10 -5 11 -8 38 -8 60 0 38 1 39 8 10 4 -16 8 -43 8 -60z m-265
-17 l4 -78 -24 26 c-22 24 -33 61 -14 50 5 -3 12 18 17 46 8 64 11 57 17 -44z
m-337 55 c-10 -10 -19 5 -10 18 6 11 8 11 12 0 2 -7 1 -15 -2 -18z m-378 -121
c13 -17 29 -32 37 -32 11 0 45 -41 45 -55 0 -13 -23 -2 -46 22 -13 14 -27 23
-30 20 -8 -8 -41 33 -54 67 -5 15 -14 25 -19 22 -5 -3 -11 4 -15 17 -9 35 -7
47 9 47 8 0 15 6 16 13 0 6 8 -11 17 -38 9 -28 27 -65 40 -83z m601 -4 c1 -10
-2 -18 -6 -18 -5 0 -9 19 -9 43 -2 34 0 37 6 17 4 -14 8 -33 9 -42z m318 0
c-3 -7 -5 -2 -5 12 0 14 2 19 5 13 2 -7 2 -19 0 -25z m-1208 -52 c-5 -6 -9 7
-8 35 l1 44 8 -35 c5 -20 5 -39 -1 -44z m1178 42 c-3 -7 -5 -2 -5 12 0 14 2
19 5 13 2 -7 2 -19 0 -25z m80 -40 c-2 -13 -4 -3 -4 22 0 25 2 35 4 23 2 -13
2 -33 0 -45z m-237 -77 c7 -55 10 -106 7 -113 -3 -7 -6 -1 -6 15 -1 15 -5 35
-11 45 -15 27 -29 113 -18 106 7 -4 7 6 3 26 -5 21 -4 30 3 26 5 -3 15 -51 22
-105z m-933 1 c2 -46 2 -46 -8 -13 -9 28 -7 61 3 61 2 0 4 -21 5 -48z m-198
-8 c-7 -18 -13 -24 -16 -16 -3 8 1 25 8 39 17 32 23 15 8 -23z m1198 -36 c-2
-18 -4 -6 -4 27 0 33 2 48 4 33 2 -15 2 -42 0 -60z m70 50 c-3 -7 -5 -2 -5 12
0 14 2 19 5 13 2 -7 2 -19 0 -25z m110 -35 c-3 -10 -5 -4 -5 12 0 17 2 24 5
18 2 -7 2 -21 0 -30z m-1213 -37 c1 -25 -4 -50 -11 -57 -10 -10 -12 2 -12 55
1 78 21 79 23 2z m-94 29 c0 -8 -2 -15 -4 -15 -2 0 -6 7 -10 15 -3 8 -1 15 4
15 6 0 10 -7 10 -15z m180 -21 c0 -14 -4 -23 -10 -19 -5 3 -10 15 -10 26 0 10
5 19 10 19 6 0 10 -12 10 -26z m917 -16 c-3 -8 -6 -5 -6 6 -1 11 2 17 5 13 3
-3 4 -12 1 -19z m-1149 -96 c2 -59 -1 -92 -8 -92 -6 0 -10 25 -10 58 0 31 -3
74 -7 96 -5 31 -3 38 8 34 10 -3 15 -28 17 -96z m61 28 l-1 -45 -9 40 c-4 22
-8 49 -8 60 -1 17 1 17 9 5 5 -8 9 -35 9 -60z m113 38 c-7 -7 -12 -8 -12 -2 0
14 12 26 19 19 2 -3 -1 -11 -7 -17z m1022 -33 c4 -30 3 -46 -3 -40 -8 9 -15
61 -12 89 2 20 8 -1 15 -49z m133 23 c-3 -7 -5 -2 -5 12 0 14 2 19 5 13 2 -7
2 -19 0 -25z m-1106 -25 c-8 -15 -10 -15 -11 -2 0 17 10 32 18 25 2 -3 -1 -13
-7 -23z m97 -24 c10 -15 10 -25 3 -32 -7 -7 -13 -2 -21 17 -12 33 -12 36 -2
36 4 0 13 -10 20 -21z m812 1 c0 -5 -5 -10 -11 -10 -5 0 -7 5 -4 10 3 6 8 10
11 10 2 0 4 -4 4 -10z m147 -22 c-3 -8 -6 -5 -6 6 -1 11 2 17 5 13 3 -3 4 -12
1 -19z m-145 -20 c-7 -7 -12 -8 -12 -2 0 14 12 26 19 19 2 -3 -1 -11 -7 -17z
m-1065 -10 c-3 -8 -6 -5 -6 6 -1 11 2 17 5 13 3 -3 4 -12 1 -19z m1012 0 c5
-13 12 -34 16 -48 l7 -25 -21 27 c-11 14 -21 36 -21 47 0 27 8 27 19 -1z
m-685 -22 c21 -18 34 -36 28 -39 -8 -6 -72 54 -72 68 0 9 6 5 44 -29z m925
-93 l-2 -78 -7 70 c-7 65 -6 85 6 85 2 0 3 -35 3 -77z m49 -128 c-1 -55 -3
-88 -5 -72 -2 15 -9 27 -14 27 -6 0 -7 9 -3 23 4 12 7 65 7 117 -1 78 0 87 7
50 5 -25 8 -90 8 -145z m-868 102 c0 -4 -9 -3 -20 3 -18 10 -41 48 -40 68 1 9
59 -61 60 -71z m-385 53 c3 -5 1 -10 -4 -10 -6 0 -11 5 -11 10 0 6 2 10 4 10
3 0 8 -4 11 -10z m-28 -22 c-3 -8 -6 -5 -6 6 -1 11 2 17 5 13 3 -3 4 -12 1
-19z m1113 2 c0 -5 -4 -10 -10 -10 -5 0 -10 5 -10 10 0 6 5 10 10 10 6 0 10
-4 10 -10z m39 -26 c7 4 11 -1 11 -13 0 -20 -1 -20 -20 -4 -11 10 -20 22 -20
28 0 5 4 4 9 -4 5 -7 14 -10 20 -7z m-1144 -31 c12 -44 15 -123 5 -123 -6 0
-10 10 -11 23 0 22 -4 45 -14 100 -2 15 -1 27 4 27 5 0 12 -12 16 -27z m1102
5 c-3 -8 -6 -5 -6 6 -1 11 2 17 5 13 3 -3 4 -12 1 -19z m-1260 -10 c-3 -8 -6
-5 -6 6 -1 11 2 17 5 13 3 -3 4 -12 1 -19z m841 -78 c22 -48 25 -68 24 -149
-1 -91 -2 -95 -36 -138 -20 -25 -33 -50 -30 -54 3 -5 -1 -16 -10 -24 -16 -16
-46 -20 -46 -6 0 5 -9 11 -20 14 -15 4 -20 14 -20 36 0 29 42 153 59 175 5 6
14 35 21 64 12 50 10 79 -6 147 l-7 30 23 -20 c12 -11 34 -45 48 -75z m-741
28 c-2 -13 -4 -5 -4 17 -1 22 1 32 4 23 2 -10 2 -28 0 -40z m-97 -30 c0 -32
-4 -48 -9 -40 -4 7 -7 30 -5 50 3 45 3 42 9 42 3 0 5 -24 5 -52z m1380 -45
c-10 -16 -11 -15 -6 7 3 14 7 39 8 55 1 26 2 25 5 -7 2 -21 -1 -46 -7 -55z
m-43 55 c-3 -8 -6 -5 -6 6 -1 11 2 17 5 13 3 -3 4 -12 1 -19z m0 -115 c-2 -16
-4 -3 -4 27 0 30 2 43 4 28 2 -16 2 -40 0 -55z m-1230 35 c-3 -8 -6 -5 -6 6
-1 11 2 17 5 13 3 -3 4 -12 1 -19z m-120 -30 c-3 -8 -6 -5 -6 6 -1 11 2 17 5
13 3 -3 4 -12 1 -19z m1323 -13 c0 -5 -5 -3 -10 5 -5 8 -10 20 -10 25 0 6 5 3
10 -5 5 -8 10 -19 10 -25z m-1070 4 c0 -5 -4 -9 -10 -9 -5 0 -10 7 -10 16 0 8
5 12 10 9 6 -3 10 -10 10 -16z m1167 -1 c-3 -8 -6 -5 -6 6 -1 11 2 17 5 13 3
-3 4 -12 1 -19z m-130 -30 c-3 -7 -5 -2 -5 12 0 14 2 19 5 13 2 -7 2 -19 0
-25z m-1027 -16 c0 -15 -2 -15 -10 -2 -13 20 -13 33 0 25 6 -3 10 -14 10 -23z
m-119 -148 c-1 -86 -6 -164 -11 -173 -11 -18 -14 279 -4 317 12 45 16 11 15
-144z m-101 134 c0 -6 -6 -8 -14 -5 -8 3 -17 1 -20 -6 -2 -7 -5 -2 -5 10 -1
16 3 20 19 16 11 -3 20 -10 20 -15z m181 -43 c-3 -5 -8 1 -11 15 -4 14 -4 29
-1 35 3 5 8 -1 11 -15 4 -14 4 -29 1 -35z m-174 -57 c-3 -8 -6 -5 -6 6 -1 11
2 17 5 13 3 -3 4 -12 1 -19z m29 -35 c-11 -11 -17 4 -9 23 7 18 8 18 11 1 2
-10 1 -21 -2 -24z m106 -13 c5 -34 -7 -41 -15 -8 -5 19 -2 38 7 38 2 0 6 -13
8 -30z m892 6 c-3 -8 -14 -16 -26 -19 -19 -5 -19 -5 -2 14 20 22 36 25 28 5z
m253 -128 c-2 -24 -4 -7 -4 37 0 44 2 63 4 43 2 -21 2 -57 0 -80z m113 29 c0
-59 -7 -87 -21 -87 -5 0 -9 38 -8 85 1 73 3 83 15 70 9 -8 14 -35 14 -68z
m-1112 49 c-4 -21 0 -25 33 -30 21 -3 47 -16 59 -28 11 -12 20 -16 20 -9 0 7
5 9 10 6 6 -3 10 -15 10 -26 0 -10 5 -19 10 -19 6 0 10 8 10 18 0 17 14 19
173 26 94 4 190 7 213 6 22 0 54 4 70 10 16 7 44 13 62 15 26 2 32 -1 32 -15
0 -11 5 -22 10 -25 6 -4 10 5 10 20 0 15 4 24 10 20 6 -3 10 -17 10 -30 0 -29
17 -42 23 -18 3 10 5 -7 5 -37 -1 -51 -1 -52 -9 -20 -5 24 -7 4 -5 -60 3 -76
2 -90 -7 -67 -14 34 -27 35 -27 0 0 -68 -18 23 -19 100 -1 15 -6 27 -12 27 -8
0 -9 -16 -5 -51 5 -34 4 -49 -4 -44 -13 8 -13 -8 0 -21 7 -7 4 -18 -10 -34
-18 -20 -23 -22 -30 -10 -6 8 -10 20 -10 25 -1 6 -5 0 -10 -11 -7 -17 -19 -23
-54 -26 -32 -2 -46 1 -46 9 0 7 -4 13 -10 13 -5 0 -10 -7 -10 -15 0 -27 -20
-16 -26 15 -4 16 -10 27 -15 24 -4 -2 -4 -16 1 -29 l9 -24 -107 3 c-59 2 -112
4 -118 5 -7 1 -15 11 -19 24 l-8 22 -4 -22 c-4 -19 -8 -21 -29 -12 -14 5 -30
7 -35 3 -5 -3 -9 3 -9 13 0 10 -5 25 -10 33 -9 13 -12 12 -21 -4 -9 -15 -13
-16 -20 -5 -7 11 -9 11 -9 1 0 -7 -5 -10 -11 -6 -6 3 -14 1 -18 -5 -12 -18
-58 24 -81 73 -13 30 -17 51 -11 71 l7 29 17 -24 c11 -16 17 -19 18 -10 0 11
2 11 6 2 2 -6 8 -10 12 -7 5 2 14 -13 21 -35 7 -21 20 -42 28 -45 21 -8 24 -2
12 29 -5 15 -10 38 -10 52 0 24 -19 35 -21 12 0 -7 -8 6 -17 29 -17 41 -37 70
-30 44 2 -7 -3 -16 -9 -18 -14 -5 -17 26 -7 65 8 30 18 28 12 -2z m913 -3 c-8
-15 -10 -15 -11 -2 0 17 10 32 18 25 2 -3 -1 -13 -7 -23z m-776 -15 c6 -6 -4
-7 -30 -3 -22 4 -44 12 -50 17 -6 6 4 7 30 3 22 -4 45 -12 50 -17z m894 -62
c-9 -8 -10 -3 -5 23 3 18 7 41 8 50 1 9 3 -1 5 -23 3 -22 -1 -43 -8 -50z m-59
49 c0 -14 -2 -25 -4 -25 -2 0 -6 11 -8 25 -3 14 -1 25 3 25 5 0 9 -11 9 -25z
m-175 -7 c7 -24 16 -161 9 -143 -10 24 -30 165 -23 165 4 0 10 -10 14 -22z
m72 -45 c-2 -16 -4 -5 -4 22 0 28 2 40 4 28 2 -13 2 -35 0 -50z m-944 35 c3
-13 2 -43 -3 -68 -6 -35 -8 -39 -9 -15 -1 17 -4 47 -7 68 -7 40 10 53 19 15z
m992 -150 c0 -89 -3 -143 -7 -122 -3 21 -7 91 -8 154 -1 145 -1 145 7 136 4
-4 8 -79 8 -168z m222 70 c-2 -13 -4 -5 -4 17 -1 22 1 32 4 23 2 -10 2 -28 0
-40z m-1440 -40 c-3 -8 -6 -5 -6 6 -1 11 2 17 5 13 3 -3 4 -12 1 -19z m103 -2
c0 -14 -4 -28 -10 -31 -6 -4 -10 7 -10 24 0 17 5 31 10 31 6 0 10 -11 10 -24z
m1178 -40 c-2 -36 -1 -63 3 -61 11 7 19 -65 9 -88 -8 -20 -9 -19 -9 9 -1 16
-5 34 -10 40 -5 5 -11 42 -13 81 -3 65 0 78 21 82 2 1 1 -28 -1 -63z m99 51
c13 17 14 16 8 -12 -4 -16 -10 -61 -14 -100 -4 -38 -9 -56 -9 -40 -1 17 -4 62
-7 100 -2 39 -2 62 1 52 6 -18 6 -18 21 0z m-1194 -64 c-3 -53 -8 -72 -17 -62
-6 7 6 119 13 119 4 0 6 -26 4 -57z m-49 -66 c3 -36 1 -69 -3 -72 -10 -5 -18
73 -13 118 5 44 11 28 16 -46z m96 63 c0 -5 -4 -10 -10 -10 -5 0 -10 5 -10 10
0 6 5 10 10 10 6 0 10 -4 10 -10z m-173 -62 c-2 -13 -4 -3 -4 22 0 25 2 35 4
23 2 -13 2 -33 0 -45z m1090 10 c-3 -7 -5 -2 -5 12 0 14 2 19 5 13 2 -7 2 -19
0 -25z m-1152 13 c3 -5 1 -12 -5 -16 -5 -3 -10 1 -10 9 0 18 6 21 15 7z m1242
-43 c-2 -13 -4 -5 -4 17 -1 22 1 32 4 23 2 -10 2 -28 0 -40z m-993 -15 l-7
-28 -13 30 c-15 37 -8 61 12 40 10 -9 12 -23 8 -42z m923 25 c-3 -8 -6 -5 -6
6 -1 11 2 17 5 13 3 -3 4 -12 1 -19z m-1074 -3 c4 -8 2 -17 -3 -20 -6 -4 -10
3 -10 14 0 25 6 27 13 6z m267 -25 c0 -11 -2 -20 -5 -20 -3 0 -15 9 -27 20
l-22 20 27 0 c20 0 27 -5 27 -20z m797 -42 c-2 -13 -4 -5 -4 17 -1 22 1 32 4
23 2 -10 2 -28 0 -40z m250 -60 c-2 -24 -4 -7 -4 37 0 44 2 63 4 43 2 -21 2
-57 0 -80z m-1203 86 c3 -8 2 -12 -4 -9 -6 3 -10 10 -10 16 0 14 7 11 14 -7z
m268 -11 c-5 -25 -6 -25 -18 -8 -19 25 -17 35 5 35 14 0 17 -6 13 -27z m586 9
c4 -14 -38 -26 -50 -14 -6 6 -7 15 -4 21 9 13 49 8 54 -7z m-965 -11 c2 -10 1
-25 -4 -32 -6 -10 -9 -4 -9 19 0 36 5 42 13 13z m1156 -38 c0 -42 -3 -52 -9
-38 -15 35 -11 95 7 95 2 0 3 -26 2 -57z m-682 31 c3 -8 12 -14 20 -14 13 0
13 3 3 15 -11 13 -8 15 18 15 17 0 34 -5 38 -11 4 -7 25 -9 61 -4 46 6 57 4
68 -12 13 -16 14 -16 15 -1 0 12 12 17 53 20 28 2 54 3 56 2 8 -6 -28 -33 -53
-40 -20 -5 -26 -2 -26 10 0 9 -4 16 -10 16 -5 0 -7 -6 -5 -12 4 -10 -20 -14
-97 -16 -105 -3 -188 11 -188 32 0 17 40 17 47 0z m736 -129 c-5 -17 -8 -14
-18 15 -8 25 -9 42 -1 63 l11 29 7 -43 c3 -24 4 -53 1 -64z m64 53 c-2 -13 -4
-5 -4 17 -1 22 1 32 4 23 2 -10 2 -28 0 -40z m-30 -25 c-2 -16 -4 -5 -4 22 0
28 2 40 4 28 2 -13 2 -35 0 -50z m-764 30 c7 -6 93 -14 152 -14 26 0 44 -12
45 -30 0 -7 -148 0 -170 8 -8 3 -37 5 -65 3 -48 -2 -57 10 -12 17 12 2 24 8
25 13 4 11 16 13 25 3z m-328 -32 c-3 -6 -11 -11 -17 -11 -6 0 -6 6 2 15 14
17 26 13 15 -4z m85 -5 c0 -17 -44 -36 -60 -26 -7 4 -9 13 -6 19 4 6 11 9 16
6 4 -3 13 2 20 10 13 16 30 11 30 -9z m548 5 c3 -8 -1 -12 -9 -9 -7 2 -15 10
-17 17 -3 8 1 12 9 9 7 -2 15 -10 17 -17z m102 5 c0 -3 -4 -8 -10 -11 -5 -3
-10 -1 -10 4 0 6 5 11 10 11 6 0 10 -2 10 -4z m86 -41 c-4 -17 -11 -22 -22
-18 -13 5 -13 7 1 23 8 9 15 23 16 31 0 11 2 11 6 1 3 -7 2 -24 -1 -37z
m-1106 15 c0 -5 -4 -10 -10 -10 -5 0 -10 5 -10 10 0 6 5 10 10 10 6 0 10 -4
10 -10z m1237 -27 c-3 -10 -5 -4 -5 12 0 17 2 24 5 18 2 -7 2 -21 0 -30z m184
0 c-8 -15 -10 -15 -11 -2 0 17 10 32 18 25 2 -3 -1 -13 -7 -23z m-1134 -5 c-3
-8 -6 -5 -6 6 -1 11 2 17 5 13 3 -3 4 -12 1 -19z m-62 -7 c-3 -6 -11 -11 -17
-11 -6 0 -6 6 2 15 14 17 26 13 15 -4z m391 9 c50 -5 148 -10 217 -11 123 -2
161 -11 95 -22 -36 -7 -341 -10 -373 -4 -11 2 -33 9 -48 17 -24 11 -30 12 -37
1 -9 -16 -30 -6 -30 15 0 17 44 18 176 4z m414 -9 c0 -12 -21 -19 -38 -13 -11
4 -11 6 0 13 17 11 38 11 38 0z m347 -58 c-3 -10 -5 -4 -5 12 0 17 2 24 5 18
2 -7 2 -21 0 -30z m-1170 -5 c-3 -7 -5 -2 -5 12 0 14 2 19 5 13 2 -7 2 -19 0
-25z m205 15 c10 -9 18 -22 18 -30 0 -7 11 -13 25 -13 14 0 25 5 25 10 0 7 6
7 19 1 10 -6 21 -8 25 -4 3 3 105 7 225 9 170 1 224 -1 238 -11 10 -7 14 -17
10 -21 -4 -5 -12 -3 -16 5 -12 19 -77 10 -73 -10 3 -22 -63 -36 -84 -18 -12 9
-20 9 -39 -1 -37 -20 -485 0 -485 21 0 5 7 9 15 9 8 0 15 5 15 10 0 6 6 10 14
10 8 0 16 7 20 15 6 17 -9 21 -19 5 -9 -15 -25 -12 -25 4 0 9 13 16 33 19 17
2 34 5 36 5 3 1 13 -5 23 -15z m-131 -56 c-16 -16 -20 -5 -8 23 9 22 11 23 14
6 3 -10 0 -23 -6 -29z m808 12 c-16 -10 -23 -4 -14 10 3 6 11 8 17 5 6 -4 5
-9 -3 -15z m318 -26 c-3 -10 -5 -2 -5 17 0 19 2 27 5 18 2 -10 2 -26 0 -35z
m-1282 9 c-8 -8 -25 10 -19 20 4 6 9 5 15 -3 4 -7 6 -15 4 -17z m1116 -65
c-13 -13 -15 34 -3 73 6 21 7 18 10 -19 2 -24 -2 -49 -7 -54z m-1162 45 c-5
-2 -9 -13 -10 -25 0 -21 -1 -21 -9 -2 -5 11 -9 31 -9 44 -1 24 -1 24 18 5 10
-10 14 -20 10 -22z m1129 -47 c0 -43 -1 -46 -8 -20 -11 44 -11 116 0 90 5 -11
8 -42 8 -70z m123 -54 c5 -66 5 -119 -1 -133 -6 -17 -9 2 -9 68 -1 50 -4 113
-7 140 -4 27 -4 46 1 42 4 -4 11 -56 16 -117z m-378 102 c-7 -2 -19 -2 -25 0
-7 3 -2 5 12 5 14 0 19 -2 13 -5z m157 -28 c0 -8 -4 -15 -10 -15 -5 0 -10 7
-10 15 0 8 5 15 10 15 6 0 10 -7 10 -15z m30 -30 c0 -19 -4 -35 -10 -35 -11 0
-13 30 -4 54 10 25 14 19 14 -19z m220 25 c0 -5 -5 -10 -11 -10 -5 0 -7 5 -4
10 3 6 8 10 11 10 2 0 4 -4 4 -10z m-1076 -9 c3 -4 -2 -17 -10 -27 -14 -17
-15 -17 -10 -1 3 9 1 17 -4 17 -6 0 -10 5 -10 10 0 12 27 13 34 1z m126 -6
c76 -7 559 -7 571 0 5 4 9 -1 9 -10 0 -8 -7 -18 -15 -21 -8 -4 -15 -17 -15
-31 0 -14 4 -22 10 -18 6 4 8 10 5 15 -3 5 -1 11 5 15 5 3 10 1 10 -5 0 -6 4
-9 9 -5 12 7 25 -31 16 -45 -3 -5 -15 -10 -26 -10 -10 0 -19 -4 -19 -10 0 -5
-9 -10 -20 -10 -22 0 -28 28 -9 47 8 8 8 13 0 18 -12 7 -31 -33 -24 -52 3 -8
-8 -10 -39 -6 -41 4 -42 4 -23 -13 15 -13 16 -15 3 -11 -9 3 -22 0 -28 -8 -20
-24 36 -29 125 -9 17 3 42 7 58 7 15 0 27 4 27 9 0 4 5 8 10 8 6 0 10 -15 10
-34 0 -19 5 -38 10 -41 14 -9 12 -27 -2 -23 -7 3 -16 18 -19 34 -6 28 -6 28
-18 -16 -10 -37 -17 -45 -36 -46 -20 -2 -25 4 -28 30 -4 28 -5 29 -12 9 -4
-13 -14 -23 -21 -23 -8 0 -14 -7 -14 -15 0 -8 -4 -15 -10 -15 -5 0 -10 -5 -10
-11 0 -6 6 -9 13 -6 6 2 20 -2 29 -11 16 -13 18 -13 24 2 8 21 21 20 27 -3 8
-30 -115 -52 -283 -51 -74 1 -137 3 -140 5 -4 2 -37 5 -76 6 -89 3 -94 5 -94
44 0 37 -19 58 -44 49 -13 -5 -16 1 -16 36 0 39 2 42 23 36 12 -3 31 -6 43 -6
15 0 26 -12 39 -42 10 -24 25 -51 34 -61 13 -15 16 -16 37 -2 15 9 34 13 53 9
20 -4 31 -2 31 5 0 6 -9 11 -19 11 -30 0 -51 11 -51 26 0 19 -10 18 -25 -3
-15 -20 -30 -11 -43 27 l-11 30 44 0 c25 0 50 -6 59 -15 16 -16 46 -20 46 -6
0 5 -6 11 -14 14 -14 6 -16 30 -3 43 13 13 -5 24 -41 24 -34 0 -35 -1 -16 -16
17 -14 17 -15 1 -10 -10 3 -34 6 -53 6 -27 0 -34 4 -34 19 0 11 6 22 13 24 8
4 7 6 -4 6 -9 1 -19 16 -25 39 -7 29 -14 37 -34 39 -14 1 -19 0 -12 -3 6 -3
12 -13 12 -23 0 -9 4 -21 9 -26 5 -6 13 -27 17 -49 6 -37 6 -38 -17 -31 -38
11 -48 26 -53 83 -3 32 -12 62 -23 74 -17 19 -17 19 7 14 14 -3 50 -8 80 -11z
m683 -8 c9 9 7 -94 -3 -132 l-8 -30 -1 30 c-1 17 -4 41 -8 54 -4 17 -3 22 5
17 7 -4 12 -2 12 3 0 6 -4 11 -9 11 -5 0 -11 16 -13 36 -3 29 -2 33 7 20 7 -9
15 -13 18 -9z m-1074 -89 c-1 -60 -4 -90 -8 -73 -6 31 -3 175 5 175 2 0 4 -46
3 -102z m1030 65 l-1 -38 -11 31 c-7 17 -18 29 -24 27 -7 -3 -13 0 -13 6 0 6
11 11 25 11 22 0 25 -4 24 -37z m-778 -13 c12 0 19 -7 19 -20 0 -11 -5 -20
-11 -20 -15 0 -38 31 -38 50 0 10 2 11 6 3 2 -7 13 -13 24 -13z m1090 -11 c-5
-13 -10 -19 -10 -12 -1 15 10 45 15 40 3 -2 0 -15 -5 -28z m-80 -36 c-4 -28
-6 -32 -9 -15 -3 22 3 52 11 52 1 0 1 -17 -2 -37z m-155 2 c-9 -9 -16 -13 -16
-8 0 12 22 34 28 28 2 -2 -3 -11 -12 -20z m111 -37 c-2 -13 -4 -3 -4 22 0 25
2 35 4 23 2 -13 2 -33 0 -45z m-187 42 c0 -5 -4 -10 -10 -10 -5 0 -10 5 -10
10 0 6 5 10 10 10 6 0 10 -4 10 -10z m-750 -42 c0 -10 -7 -18 -15 -18 -8 0
-15 2 -15 4 0 2 -3 11 -6 20 -4 11 0 14 15 13 13 -1 21 -8 21 -19z m909 -70
c-1 -80 -3 -86 -9 -43 -6 46 -2 135 6 135 2 0 3 -42 3 -92z m188 40 c-3 -7 -5
-2 -5 12 0 14 2 19 5 13 2 -7 2 -19 0 -25z m-1080 -66 c2 -38 1 -43 -8 -29 -6
10 -12 28 -14 40 -1 12 -6 30 -10 40 -7 17 -5 17 11 7 14 -8 20 -25 21 -58z
m933 11 c0 -68 -7 -66 -15 5 -4 33 -2 52 5 52 6 0 10 -24 10 -57z m40 -10 c0
-71 -8 -65 -15 11 -4 38 -2 55 5 51 5 -3 10 -31 10 -62z m-1170 2 c0 -14 -3
-25 -7 -25 -5 0 -8 11 -8 25 0 14 3 25 8 25 4 0 7 -11 7 -25z m1227 -62 c-2
-16 -4 -5 -4 22 0 28 2 40 4 28 2 -13 2 -35 0 -50z m102 34 c0 -21 -1 -21 -9
-2 -12 28 -12 37 0 30 6 -3 10 -16 9 -28z m-1161 -34 c3 -27 1 -31 -18 -26
-28 7 -33 19 -20 43 15 29 34 20 38 -17z m-241 5 c-3 -8 -6 -5 -6 6 -1 11 2
17 5 13 3 -3 4 -12 1 -19z m56 -3 c-3 -9 -8 -14 -10 -11 -3 3 -2 9 2 15 9 16
15 13 8 -4z m847 5 c0 -5 -4 -10 -10 -10 -5 0 -10 5 -10 10 0 6 5 10 10 10 6
0 10 -4 10 -10z m154 -5 c20 -15 12 -20 -21 -16 -7 1 -13 -4 -14 -11 0 -7 -4
-4 -8 7 -15 36 8 46 43 20z m-777 -27 c-3 -7 -5 -2 -5 12 0 14 2 19 5 13 2 -7
2 -19 0 -25z m43 12 c0 -11 -7 -20 -15 -20 -27 0 -18 30 13 39 1 1 2 -8 2 -19z
m1107 -2 c-3 -8 -6 -5 -6 6 -1 11 2 17 5 13 3 -3 4 -12 1 -19z m-1440 -50 c-2
-13 -4 -5 -4 17 -1 22 1 32 4 23 2 -10 2 -28 0 -40z m993 33 c0 -11 -4 -23
-10 -26 -6 -4 -10 5 -10 19 0 14 5 26 10 26 6 0 10 -9 10 -19z m-950 -1 c0 -5
-4 -10 -10 -10 -5 0 -10 5 -10 10 0 6 5 10 10 10 6 0 10 -4 10 -10z m1113 -20
c-7 -28 -13 -25 -13 6 0 14 4 23 9 20 5 -3 7 -15 4 -26z m148 -255 c-8 -58 -9
-41 -6 95 2 91 5 167 7 170 8 15 7 -206 -1 -265z m-204 193 c-2 -13 -4 -5 -4
17 -1 22 1 32 4 23 2 -10 2 -28 0 -40z m41 16 c4 2 5 -23 4 -56 -4 -69 -16
-69 -17 0 0 26 -4 56 -9 67 -7 18 -6 18 4 2 6 -9 14 -15 18 -13z m-118 -10 c0
-14 -4 -23 -10 -19 -6 4 -11 -11 -11 -37 -4 -108 -15 -158 -36 -158 -13 0 -15
-17 -12 -114 2 -63 1 -109 -4 -103 -4 7 -7 -3 -6 -23 3 -78 -1 -183 -7 -177
-4 4 -6 58 -5 122 1 76 -2 115 -9 115 -8 0 -11 -42 -10 -127 0 -71 -1 -136 -3
-145 -5 -25 -17 -35 -17 -14 0 16 -1 16 -16 1 -19 -18 -22 -67 -5 -73 6 -2 11
-15 11 -28 0 -30 13 -31 29 -1 l11 22 -6 -22 c-3 -13 -8 -49 -11 -80 -3 -32
-6 -67 -8 -78 -2 -11 -4 -36 -6 -55 -1 -25 -3 -28 -6 -12 -6 29 -23 18 -23
-14 0 -14 4 -22 10 -19 6 3 10 -3 10 -15 0 -11 -7 -23 -15 -26 -8 -4 -13 -10
-10 -14 3 -5 1 -11 -5 -15 -16 -10 -11 -43 8 -48 14 -3 12 -6 -8 -14 -14 -6
-26 -7 -28 -2 -2 5 -10 9 -19 9 -9 0 -12 -6 -8 -19 4 -13 0 -20 -15 -24 -11
-3 -20 -12 -20 -21 0 -22 -13 -20 -41 7 -26 23 -29 29 -29 52 0 8 -4 15 -8 15
-5 0 -7 -14 -4 -30 4 -29 3 -30 -39 -30 -107 0 -236 67 -200 103 7 7 14 1 20
-16 15 -39 35 -35 27 6 -5 28 -4 30 8 14 12 -15 14 -16 20 -2 3 9 -1 18 -9 21
-18 7 -20 41 -3 46 7 3 9 12 4 23 -6 16 -9 17 -16 5 -10 -16 -14 -8 -45 94
-13 42 -15 61 -8 63 8 3 5 22 -8 60 -15 45 -16 58 -7 65 10 6 10 10 -2 18 -8
5 -10 10 -5 10 6 0 3 5 -5 10 -12 8 -12 10 -1 10 11 0 10 5 -4 20 -14 16 -16
23 -7 32 15 15 15 50 0 83 -10 22 -8 28 10 48 18 19 21 30 16 57 -5 24 -4 31
4 26 7 -4 12 -20 12 -37 0 -16 5 -29 10 -29 13 0 13 21 0 54 -5 14 -16 26 -25
26 -20 0 -19 20 2 35 15 11 16 16 3 41 -8 16 -16 33 -19 38 -2 5 4 6 13 3 14
-5 15 -3 6 13 -5 10 -20 20 -32 22 -19 2 -25 12 -32 56 -11 61 -26 69 -27 15
l0 -38 -15 39 c-10 27 -11 43 -4 50 5 5 10 25 10 42 0 18 5 36 10 39 6 3 10 1
10 -4 0 -6 5 -11 10 -11 19 0 10 28 -10 33 -11 3 -20 10 -20 16 0 11 88 4 102
-8 8 -7 293 4 388 16 36 4 88 7 115 8 29 0 53 5 58 13 13 20 27 14 27 -14z
m-717 -21 c3 -15 3 -33 0 -41 -9 -22 -23 6 -23 46 0 38 15 35 23 -5z m924 -15
c-2 -13 -4 -5 -4 17 -1 22 1 32 4 23 2 -10 2 -28 0 -40z m204 -103 c-8 -59 -9
-59 -10 41 0 55 2 104 7 108 11 12 13 -82 3 -149z m-264 123 c-3 -8 -6 -5 -6
6 -1 11 2 17 5 13 3 -3 4 -12 1 -19z m202 -28 c1 -13 0 -13 -9 0 -5 8 -9 24
-9 35 l0 20 9 -20 c5 -11 9 -27 9 -35z m28 -2 c-2 -13 -4 -5 -4 17 -1 22 1 32
4 23 2 -10 2 -28 0 -40z m-1257 -59 c0 -11 -4 -17 -10 -14 -5 3 -10 13 -10 21
0 8 5 14 10 14 6 0 10 -9 10 -21z m1265 -108 c0 -71 -3 -124 -7 -118 -15 23
-9 247 6 247 1 0 1 -58 1 -129z m-1188 82 c-3 -10 -5 -4 -5 12 0 17 2 24 5 18
2 -7 2 -21 0 -30z m957 -5 c4 -24 3 -38 -4 -38 -5 0 -10 19 -10 42 0 49 5 47
14 -4z m153 -10 c-3 -7 -5 -2 -5 12 0 14 2 19 5 13 2 -7 2 -19 0 -25z m-1310
-40 c-2 -13 -4 -3 -4 22 0 25 2 35 4 23 2 -13 2 -33 0 -45z m-62 -116 c-12
-12 -14 8 -7 74 l7 69 3 -69 c2 -37 0 -71 -3 -74z m1055 -25 c-10 -10 -12 -7
-7 10 3 13 2 37 -2 55 -4 18 -5 40 -2 48 3 8 9 -11 14 -43 7 -44 6 -61 -3 -70z
m-950 88 c0 -14 -4 -25 -10 -25 -5 0 -10 11 -10 25 0 14 5 25 10 25 6 0 10
-11 10 -25z m50 -5 c0 -5 -5 -10 -11 -10 -5 0 -7 5 -4 10 3 6 8 10 11 10 2 0
4 -4 4 -10z m1067 -27 c-3 -10 -5 -4 -5 12 0 17 2 24 5 18 2 -7 2 -21 0 -30z
m200 -15 c-3 -8 -6 -5 -6 6 -1 11 2 17 5 13 3 -3 4 -12 1 -19z m-1317 2 c0 -5
-4 -10 -10 -10 -5 0 -10 5 -10 10 0 6 5 10 10 10 6 0 10 -4 10 -10z m324 -52
c13 -63 15 -88 7 -84 -5 3 -12 22 -15 41 -4 19 -11 35 -16 35 -6 0 -10 7 -10
15 0 24 29 17 34 -7z m961 -110 c1 -48 -2 -93 -7 -100 -5 -8 -8 2 -8 25 0 23
-4 36 -10 32 -5 -3 -10 1 -10 10 0 9 5 13 10 10 11 -7 13 9 3 43 -4 18 -8 20
-14 10 -6 -8 -9 1 -9 27 0 29 3 36 10 25 7 -11 10 -6 10 20 1 34 2 34 12 10 6
-14 11 -64 13 -112z m-1326 78 c-5 -6 -9 -21 -9 -34 0 -13 -4 -20 -10 -17 -6
4 -8 11 -4 16 3 6 6 26 6 45 0 32 1 33 13 17 9 -11 10 -22 4 -27z m298 12 c-3
-7 -5 -2 -5 12 0 14 2 19 5 13 2 -7 2 -19 0 -25z m683 1 c0 -6 -4 -7 -10 -4
-5 3 -10 11 -10 16 0 6 5 7 10 4 6 -3 10 -11 10 -16z m276 -48 c-1 -38 -4 -67
-8 -64 -13 7 -6 133 6 133 2 0 2 -31 2 -69z m-26 -63 c-1 -63 -3 -79 -11 -65
-9 16 -3 147 7 147 2 0 4 -37 4 -82z m-1090 27 c0 -8 -4 -15 -10 -15 -5 0 -10
7 -10 15 0 8 5 15 10 15 6 0 10 -7 10 -15z m1227 -7 c-3 -8 -6 -5 -6 6 -1 11
2 17 5 13 3 -3 4 -12 1 -19z m-1020 -20 c-3 -8 -6 -5 -6 6 -1 11 2 17 5 13 3
-3 4 -12 1 -19z m752 -5 c3 -68 21 -302 26 -321 3 -13 2 -21 -3 -18 -10 6 -18
67 -28 226 -3 52 -8 98 -11 103 -4 7 4 27 12 27 2 0 4 -8 4 -17z m31 -33 l-8
-35 -1 45 c-1 27 3 40 8 35 6 -6 6 -25 1 -45z m261 3 c-8 -15 -10 -15 -11 -2
0 17 10 32 18 25 2 -3 -1 -13 -7 -23z m-384 -35 c-2 -13 -4 -5 -4 17 -1 22 1
32 4 23 2 -10 2 -28 0 -40z m260 -118 l0 -55 -7 60 c-4 33 -8 85 -7 115 l0 55
7 -60 c4 -33 8 -85 7 -115z m-954 130 c3 -11 1 -20 -4 -20 -5 0 -9 9 -9 20 0
11 2 20 4 20 2 0 6 -9 9 -20z m984 -22 c-3 -8 -6 -5 -6 6 -1 11 2 17 5 13 3
-3 4 -12 1 -19z m-160 -65 c-2 -16 -4 -5 -4 22 0 28 2 40 4 28 2 -13 2 -35 0
-50z m-130 25 c-3 -8 -6 -5 -6 6 -1 11 2 17 5 13 3 -3 4 -12 1 -19z m42 -25
c0 -27 1 -55 2 -63 1 -8 1 -37 -1 -65 l-2 -50 -9 40 c-14 68 -10 185 7 185 1
0 3 -21 3 -47z m-909 16 c0 -6 -4 -7 -10 -4 -5 3 -10 11 -10 16 0 6 5 7 10 4
6 -3 10 -11 10 -16z m57 -1 c-3 -8 -6 -5 -6 6 -1 11 2 17 5 13 3 -3 4 -12 1
-19z m1170 -75 c-3 -10 -5 -2 -5 17 0 19 2 27 5 18 2 -10 2 -26 0 -35z m-1240
5 c-3 -8 -6 -5 -6 6 -1 11 2 17 5 13 3 -3 4 -12 1 -19z m880 -25 c-3 -10 -5
-2 -5 17 0 19 2 27 5 18 2 -10 2 -26 0 -35z m-991 10 c-10 -10 -19 5 -10 18 6
11 8 11 12 0 2 -7 1 -15 -2 -18z m1271 -195 c-2 -29 -3 -8 -3 47 0 55 1 79 3
53 2 -26 2 -71 0 -100z m-319 -36 c-1 -97 -2 -107 -8 -62 -11 80 -12 192 -1
185 5 -3 9 -58 9 -123z m-589 93 c5 -23 -1 -65 -9 -60 -6 4 -9 22 -8 41 2 28
12 39 17 19z m-343 -45 c0 -11 -4 -20 -8 -20 -4 0 -8 9 -8 20 0 11 4 20 8 20
4 0 8 -9 8 -20z m211 -2 c-3 -8 -6 -5 -6 6 -1 11 2 17 5 13 3 -3 4 -12 1 -19z
m770 -40 c-3 -7 -5 -2 -5 12 0 14 2 19 5 13 2 -7 2 -19 0 -25z m-811 -58 c8 0
14 10 14 24 0 14 5 28 10 31 6 4 10 -6 10 -24 0 -20 -7 -34 -21 -41 -31 -17
-49 4 -48 54 l1 41 10 -42 c5 -26 15 -43 24 -43z m1091 -47 c-2 -16 -4 -3 -4
27 0 30 2 43 4 28 2 -16 2 -40 0 -55z m-150 45 c-3 -8 -6 -5 -6 6 -1 11 2 17
5 13 3 -3 4 -12 1 -19z m-120 -20 c-3 -7 -5 -2 -5 12 0 14 2 19 5 13 2 -7 2
-19 0 -25z m-870 -25 c-3 -10 -5 -4 -5 12 0 17 2 24 5 18 2 -7 2 -21 0 -30z
m1109 -61 c4 -76 -12 -52 -19 28 -4 48 -3 60 5 46 6 -10 12 -43 14 -74z m-189
36 c-3 -7 -5 -2 -5 12 0 14 2 19 5 13 2 -7 2 -19 0 -25z m-920 -70 c-2 -13 -4
-3 -4 22 0 25 2 35 4 23 2 -13 2 -33 0 -45z m-160 5 c-3 -10 -5 -2 -5 17 0 19
2 27 5 18 2 -10 2 -26 0 -35z m116 32 c4 -8 2 -17 -3 -20 -6 -4 -10 3 -10 14
0 25 6 27 13 6z m767 -27 c0 -19 -2 -20 -10 -8 -13 19 -13 30 0 30 6 0 10 -10
10 -22z m60 -34 c0 -8 -4 -12 -10 -9 -5 3 -10 10 -10 16 0 5 5 9 10 9 6 0 10
-7 10 -16z m-783 -96 c-2 -18 -4 -4 -4 32 0 36 2 50 4 33 2 -18 2 -48 0 -65z
m938 30 c6 -5 6 -11 -1 -18 -9 -9 -14 -3 -23 21 -14 41 -13 61 2 29 6 -14 16
-28 22 -32z m-665 -33 c1 11 4 15 6 8 3 -7 11 -10 18 -7 7 3 19 -2 26 -11 8
-10 17 -12 24 -6 7 6 39 3 88 -8 42 -10 99 -17 126 -15 47 3 49 2 44 -22 -2
-14 0 -24 7 -24 6 0 11 14 11 30 0 30 14 41 23 18 3 -8 6 -6 6 5 1 9 7 17 15
17 9 0 12 -7 10 -18 -3 -9 5 -28 16 -40 12 -13 19 -26 16 -29 -11 -11 -217
-21 -286 -14 -61 6 -65 8 -68 33 -2 14 -10 32 -19 40 -14 12 -15 9 -10 -27 4
-22 4 -34 1 -27 -3 6 -16 12 -28 12 -25 0 -45 30 -50 75 -5 41 7 57 15 20 5
-20 7 -24 9 -10z m390 25 c0 -5 -7 -10 -16 -10 -8 0 -12 5 -9 10 3 6 10 10 16
10 5 0 9 -4 9 -10z m90 -35 c-7 -8 -16 -12 -21 -9 -5 3 -9 -7 -10 -23 l0 -28
-10 24 c-13 32 -6 49 23 53 30 5 34 2 18 -17z m100 -21 c0 -25 -4 -43 -8 -40
-7 4 -4 86 4 86 2 0 4 -21 4 -46z m-89 -27 c-17 -17 -24 -1 -10 25 12 21 14
21 17 4 2 -10 -1 -23 -7 -29z m16 -84 c-3 -10 -5 -4 -5 12 0 17 2 24 5 18 2
-7 2 -21 0 -30z m120 -60 c-2 -16 -4 -3 -4 27 0 30 2 43 4 28 2 -16 2 -40 0
-55z m63 57 c0 -5 -2 -10 -4 -10 -3 0 -8 5 -11 10 -3 6 -1 10 4 10 6 0 11 -4
11 -10z m-260 -9 c0 -19 -23 -23 -118 -23 -144 1 -154 1 -148 11 3 5 40 8 82
7 41 -1 94 1 117 5 62 10 67 10 67 0z m377 -53 c-2 -13 -4 -5 -4 17 -1 22 1
32 4 23 2 -10 2 -28 0 -40z m-668 -13 c3 -16 1 -17 -12 -7 -10 8 -17 9 -21 3
-4 -6 -13 -8 -22 -4 -11 4 -12 8 -3 20 17 19 53 12 58 -12z m698 -7 c-3 -7 -5
-2 -5 12 0 14 2 19 5 13 2 -7 2 -19 0 -25z m-539 7 c6 -3 12 -10 12 -16 0 -9
-20 -10 -71 -5 -77 7 -93 12 -83 27 5 9 108 4 142 -6z m42 -11 c0 -8 -4 -12
-10 -9 -5 3 -10 10 -10 16 0 5 5 9 10 9 6 0 10 -7 10 -16z m112 -14 c-2 -16
-6 -30 -8 -30 -2 0 -4 14 -4 30 0 17 4 30 8 30 5 0 7 -13 4 -30z m-785 -22
c-3 -7 -5 -2 -5 12 0 14 2 19 5 13 2 -7 2 -19 0 -25z m738 -8 c-3 -5 -13 -10
-21 -10 -8 0 -14 5 -14 10 0 6 9 10 21 10 11 0 17 -4 14 -10z m432 -22 c-3 -7
-5 -2 -5 12 0 14 2 19 5 13 2 -7 2 -19 0 -25z m-236 -46 c1 -29 0 -55 -3 -57
-3 -3 -6 22 -7 56 -1 35 1 60 4 58 2 -3 5 -29 6 -57z m-834 -9 c-3 -10 -5 -4
-5 12 0 17 2 24 5 18 2 -7 2 -21 0 -30z m94 -124 c-7 -18 -10 -2 -9 61 l0 85
9 -61 c6 -38 5 -71 0 -85z m99 113 c0 -9 -5 -24 -10 -32 -7 -11 -10 -5 -10 23
0 23 4 36 10 32 6 -3 10 -14 10 -23z m329 -95 c1 -16 -3 -26 -9 -22 -5 3 -10
27 -9 53 1 38 2 42 9 22 4 -14 8 -38 9 -53z m148 -19 c-2 -18 -4 -6 -4 27 0
33 2 48 4 33 2 -15 2 -42 0 -60z m90 60 c-3 -8 -6 -5 -6 6 -1 11 2 17 5 13 3
-3 4 -12 1 -19z m470 -30 c-2 -13 -4 -5 -4 17 -1 22 1 32 4 23 2 -10 2 -28 0
-40z m-870 10 c-3 -7 -5 -2 -5 12 0 14 2 19 5 13 2 -7 2 -19 0 -25z m240 -75
c-2 -21 -4 -6 -4 32 0 39 2 55 4 38 2 -18 2 -50 0 -70z m243 48 c0 -6 -4 -13
-10 -16 -5 -3 -10 1 -10 9 0 9 5 16 10 16 6 0 10 -4 10 -9z m353 -64 c15 0 27
-5 27 -11 0 -17 -102 -5 -108 13 -4 11 2 12 24 6 16 -5 41 -9 57 -8z m-1503
-19 c0 -16 -3 -19 -11 -11 -6 6 -8 16 -5 22 11 17 16 13 16 -11z m397 0 c-3
-8 -6 -5 -6 6 -1 11 2 17 5 13 3 -3 4 -12 1 -19z m698 -8 c-3 -5 -10 -10 -16
-10 -5 0 -9 5 -9 10 0 6 7 10 16 10 8 0 12 -4 9 -10z"/>
<path d="M624 4289 c-18 -29 -11 -100 15 -171 104 -271 114 -289 125 -216 8
60 -16 182 -49 248 -32 66 -52 109 -59 133 -6 19 -21 22 -32 6z"/>
<path d="M1136 2932 c-8 -13 5 -53 15 -46 12 7 12 41 0 49 -5 3 -12 2 -15 -3z"/>
<path d="M946 2901 c-4 -7 -5 -15 -2 -18 9 -9 19 4 14 18 -4 11 -6 11 -12 0z"/>
<path d="M1105 2887 c-4 -10 -5 -21 -1 -24 10 -10 18 4 13 24 -4 17 -4 17 -12
0z"/>
<path d="M546 2868 c15 -50 25 -70 30 -65 4 3 3 19 -1 34 -5 15 -7 34 -6 41 1
6 -5 12 -14 12 -12 0 -15 -6 -9 -22z"/>
<path d="M1010 2866 c0 -14 5 -28 10 -31 6 -4 10 7 10 24 0 17 -4 31 -10 31
-5 0 -10 -11 -10 -24z"/>
<path d="M1062 2860 c0 -14 2 -19 5 -12 2 6 2 18 0 25 -3 6 -5 1 -5 -13z"/>
<path d="M630 2830 c0 -5 5 -10 10 -10 6 0 10 5 10 10 0 6 -4 10 -10 10 -5 0
-10 -4 -10 -10z"/>
<path d="M470 2790 c0 -11 4 -20 9 -20 5 0 7 9 4 20 -3 11 -7 20 -9 20 -2 0
-4 -9 -4 -20z"/>
<path d="M618 2770 c2 -22 8 -40 13 -40 10 0 11 25 3 58 -10 36 -20 25 -16
-18z"/>
<path d="M961 2754 c0 -11 3 -14 6 -6 3 7 2 16 -1 19 -3 4 -6 -2 -5 -13z"/>
<path d="M1020 2754 c0 -8 5 -12 10 -9 6 3 10 10 10 16 0 5 -4 9 -10 9 -5 0
-10 -7 -10 -16z"/>
<path d="M650 2360 c0 -5 9 -10 20 -10 11 0 20 5 20 10 0 6 -9 10 -20 10 -11
0 -20 -4 -20 -10z"/>
<path d="M1005 2270 c-4 -6 -4 -10 -1 -10 2 0 11 -3 20 -6 9 -3 16 -2 16 4 0
14 -28 23 -35 12z"/>
<path d="M600 2250 c0 -5 7 -10 15 -10 8 0 15 5 15 10 0 6 -7 10 -15 10 -8 0
-15 -4 -15 -10z"/>
<path d="M658 2223 c7 -3 16 -2 19 1 4 3 -2 6 -13 5 -11 0 -14 -3 -6 -6z"/>
<path d="M960 2200 c0 -6 7 -10 15 -10 8 0 15 2 15 4 0 2 -7 6 -15 10 -8 3
-15 1 -15 -4z"/>
<path d="M480 2190 c0 -5 6 -10 14 -10 8 0 18 5 21 10 3 6 -3 10 -14 10 -12 0
-21 -4 -21 -10z"/>
<path d="M765 2175 c-28 -27 -31 -45 -14 -78 17 -31 28 -37 76 -37 33 0 46 5
57 23 28 44 28 63 0 90 -35 36 -85 36 -119 2z m90 -45 c0 -20 -6 -26 -29 -28
-37 -5 -51 10 -36 38 17 32 65 24 65 -10z"/>
<path d="M623 2183 c9 -2 23 -2 30 0 6 3 -1 5 -18 5 -16 0 -22 -2 -12 -5z"/>
<path d="M914 2085 c-19 -14 -18 -14 4 -15 13 0 22 6 22 15 0 19 -1 19 -26 0z"/>
<path d="M1008 2063 c7 -3 16 -2 19 1 4 3 -2 6 -13 5 -11 0 -14 -3 -6 -6z"/>
<path d="M955 2030 c-4 -6 7 -10 27 -9 27 0 30 2 13 9 -27 12 -33 12 -40 0z"/>
<path d="M982 1988 c-18 -18 -14 -38 8 -38 15 0 20 7 20 25 0 27 -9 32 -28 13z"/>
<path d="M650 1971 c0 -6 3 -11 8 -12 4 0 14 -2 22 -4 72 -16 102 -17 98 -4
-6 17 -91 33 -96 18 -3 -6 -9 -6 -18 2 -10 8 -14 8 -14 0z"/>
<path d="M585 1960 c3 -5 13 -10 21 -10 8 0 14 5 14 10 0 6 -9 10 -21 10 -11
0 -17 -4 -14 -10z"/>
<path d="M997 1883 c-4 -3 -7 -11 -7 -17 0 -6 5 -5 12 2 6 6 9 14 7 17 -3 3
-9 2 -12 -2z"/>
<path d="M1081 1874 c0 -11 3 -14 6 -6 3 7 2 16 -1 19 -3 4 -6 -2 -5 -13z"/>
<path d="M1120 1858 c0 -19 2 -20 10 -8 13 19 13 30 0 30 -5 0 -10 -10 -10
-22z"/>
<path d="M590 1850 c0 -5 5 -10 10 -10 6 0 10 5 10 10 0 6 -4 10 -10 10 -5 0
-10 -4 -10 -10z"/>
<path d="M996 1795 c-3 -8 -1 -15 4 -15 6 0 10 7 10 15 0 8 -2 15 -4 15 -2 0
-6 -7 -10 -15z"/>
<path d="M650 1770 c0 -5 5 -10 10 -10 6 0 10 5 10 10 0 6 -4 10 -10 10 -5 0
-10 -4 -10 -10z"/>
<path d="M731 1754 c0 -11 3 -14 6 -6 3 7 2 16 -1 19 -3 4 -6 -2 -5 -13z"/>
<path d="M600 1721 c0 -11 5 -23 10 -26 6 -4 10 5 10 19 0 14 -4 26 -10 26 -5
0 -10 -9 -10 -19z"/>
<path d="M742 1710 c0 -14 2 -19 5 -12 2 6 2 18 0 25 -3 6 -5 1 -5 -13z"/>
<path d="M1077 1700 c-11 -42 -9 -182 4 -174 6 3 9 20 6 38 -2 17 -1 38 3 46
4 8 4 38 1 65 -5 42 -8 46 -14 25z"/>
<path d="M582 1690 c0 -14 2 -19 5 -12 2 6 2 18 0 25 -3 6 -5 1 -5 -13z"/>
<path d="M621 1653 c-1 -17 4 -35 9 -38 12 -7 12 22 0 50 -7 17 -9 15 -9 -12z"/>
<path d="M1003 1605 c0 -22 2 -30 4 -17 2 12 2 30 0 40 -3 9 -5 -1 -4 -23z"/>
<path d="M630 1586 c0 -8 5 -18 10 -21 6 -3 10 3 10 14 0 12 -4 21 -10 21 -5
0 -10 -6 -10 -14z"/>
<path d="M692 1580 c0 -14 2 -19 5 -12 2 6 2 18 0 25 -3 6 -5 1 -5 -13z"/>
<path d="M1002 1530 c0 -14 2 -19 5 -12 2 6 2 18 0 25 -3 6 -5 1 -5 -13z"/>
<path d="M761 1523 c0 -4 4 -17 9 -28 8 -19 9 -19 9 2 1 12 -3 25 -9 28 -5 3
-10 3 -9 -2z"/>
<path d="M930 1385 c0 -15 4 -24 10 -20 6 3 10 12 10 20 0 8 -4 17 -10 20 -6
4 -10 -5 -10 -20z"/>
<path d="M996 1385 c4 -8 8 -15 10 -15 2 0 4 7 4 15 0 8 -4 15 -10 15 -5 0 -7
-7 -4 -15z"/>
<path d="M621 1363 c-1 -12 4 -25 9 -28 12 -7 12 2 0 30 -8 19 -9 19 -9 -2z"/>
<path d="M664 1345 c1 -19 4 -35 9 -35 10 0 9 58 -1 64 -5 3 -8 -11 -8 -29z"/>
<path d="M590 1325 c0 -22 5 -47 10 -55 7 -11 10 -4 10 25 0 22 -5 47 -10 55
-7 11 -10 4 -10 -25z"/>
<path d="M901 1334 c0 -11 3 -14 6 -6 3 7 2 16 -1 19 -3 4 -6 -2 -5 -13z"/>
<path d="M1023 1307 c-2 -31 0 -37 7 -22 11 25 12 65 3 65 -5 0 -9 -19 -10
-43z"/>
<path d="M676 1241 c-4 -7 -5 -15 -2 -18 9 -9 19 4 14 18 -4 11 -6 11 -12 0z"/>
<path d="M987 1243 c-4 -3 -7 -31 -7 -60 0 -39 4 -53 13 -50 6 2 11 15 9 28
-2 13 -3 39 -3 57 1 33 -1 37 -12 25z"/>
<path d="M602 1218 c3 -7 12 -14 21 -16 12 -2 15 1 11 12 -7 19 -38 22 -32 4z"/>
<path d="M742 1170 c6 -22 14 -40 18 -40 4 0 2 18 -3 40 -6 22 -14 40 -18 40
-4 0 -2 -18 3 -40z"/>
<path d="M610 1138 c0 -18 5 -40 10 -48 7 -11 10 -4 10 27 0 23 -4 45 -10 48
-6 4 -10 -7 -10 -27z"/>
<path d="M1010 1115 c0 -8 5 -15 10 -15 6 0 10 7 10 15 0 8 -4 15 -10 15 -5 0
-10 -7 -10 -15z"/>
<path d="M651 1084 c0 -11 3 -14 6 -6 3 7 2 16 -1 19 -3 4 -6 -2 -5 -13z"/>
<path d="M940 1075 c0 -14 5 -25 10 -25 6 0 10 11 10 25 0 14 -4 25 -10 25 -5
0 -10 -11 -10 -25z"/>
<path d="M1024 1064 c-4 -14 -2 -30 5 -37 8 -8 11 -6 11 10 0 12 3 28 6 37 3
9 1 16 -5 16 -6 0 -14 -12 -17 -26z"/>
<path d="M812 990 c0 -19 2 -27 5 -17 2 9 2 25 0 35 -3 9 -5 1 -5 -18z"/>
<path d="M630 985 c0 -14 5 -25 10 -25 6 0 10 11 10 25 0 14 -4 25 -10 25 -5
0 -10 -11 -10 -25z"/>
<path d="M683 994 c-16 -16 -17 -64 -2 -64 6 0 8 7 5 16 -4 9 0 21 9 28 8 6
11 16 7 22 -5 9 -10 8 -19 -2z"/>
<path d="M930 995 c-7 -8 -8 -15 -3 -15 5 0 8 -13 5 -30 -3 -18 0 -30 7 -30 6
0 11 19 11 45 0 49 -2 52 -20 30z"/>
<path d="M731 948 c-1 -16 4 -28 9 -28 12 0 12 8 0 35 -8 18 -9 17 -9 -7z"/>
<path d="M630 936 c0 -9 5 -16 10 -16 6 0 10 4 10 9 0 6 -4 13 -10 16 -5 3
-10 -1 -10 -9z"/>
<path d="M822 900 c0 -14 2 -19 5 -12 2 6 2 18 0 25 -3 6 -5 1 -5 -13z"/>
<path d="M697 903 c-11 -10 -8 -53 3 -53 6 0 10 -6 10 -14 0 -8 5 -18 10 -21
6 -4 10 8 10 29 0 25 -5 36 -15 36 -9 0 -12 6 -9 15 6 16 2 20 -9 8z"/>
<path d="M751 874 c0 -11 3 -14 6 -6 3 7 2 16 -1 19 -3 4 -6 -2 -5 -13z"/>
<path d="M920 875 c0 -12 24 -55 31 -55 5 0 14 10 20 23 9 18 9 20 -2 10 -19
-19 -29 -16 -29 7 0 11 -4 20 -10 20 -5 0 -10 -2 -10 -5z"/>
<path d="M820 802 c0 -18 5 -32 10 -32 6 0 8 11 4 28 -10 39 -14 40 -14 4z"/>
<path d="M941 784 c0 -11 3 -14 6 -6 3 7 2 16 -1 19 -3 4 -6 -2 -5 -13z"/>
<path d="M960 775 c0 -8 5 -15 10 -15 6 0 10 7 10 15 0 8 -4 15 -10 15 -5 0
-10 -7 -10 -15z"/>
<path d="M720 767 c0 -7 9 -13 20 -13 24 0 26 11 4 20 -22 8 -24 8 -24 -7z"/>
<path d="M26 1192 c-4 -18 -5 -36 -2 -39 11 -12 17 5 14 39 l-3 33 -9 -33z"/>
</g>
</svg>
