<?xml version="1.0" standalone="no"?>
<!DOCTYPE svg PUBLIC "-//W3C//DTD SVG 20010904//EN"
 "http://www.w3.org/TR/2001/REC-SVG-20010904/DTD/svg10.dtd">
<svg version="1.0" xmlns="http://www.w3.org/2000/svg"
 width="329.000000pt" height="245.000000pt" viewBox="0 0 329.000000 245.000000"
 preserveAspectRatio="xMidYMid meet">
<metadata>
Created by potrace 1.16, written by Peter Selinger 2001-2019
</metadata>
<g transform="translate(0.000000,245.000000) scale(0.100000,-0.100000)"
fill="#000000" stroke="none">
<path d="M1140 2425 c-1 -11 -2 -23 -1 -27 1 -11 -87 -10 -93 1 -11 17 -550
39 -570 22 -7 -6 -77 -13 -162 -15 -129 -4 -191 -12 -215 -27 -4 -2 -16 7 -26
20 -13 16 -26 22 -36 18 -27 -10 -26 -74 3 -182 30 -114 60 -418 75 -760 2
-66 7 -178 10 -250 3 -71 10 -159 15 -195 12 -82 12 -82 0 -75 -5 3 -10 19
-10 35 0 16 -4 31 -9 34 -12 8 -19 -26 -16 -76 7 -96 25 -391 31 -507 3 -69
10 -148 15 -175 5 -28 9 -68 9 -89 -2 -78 -2 -77 121 -72 81 3 109 1 109 -8 0
-9 54 -12 218 -12 119 1 254 -2 300 -5 46 -3 93 -1 105 4 12 5 106 10 209 10
102 1 190 4 194 9 4 4 25 7 46 7 31 0 38 -3 38 -20 0 -27 25 -25 45 2 13 19
18 21 34 11 14 -9 21 -9 30 0 9 9 14 8 21 -3 8 -12 13 -13 30 -3 11 7 38 13
60 13 36 0 40 -2 40 -25 0 -16 6 -25 15 -25 8 0 15 9 15 20 0 37 94 48 113 14
11 -20 25 -17 32 6 9 30 23 24 33 -12 11 -45 40 -49 48 -9 7 32 19 41 27 19 3
-10 8 -10 21 1 16 13 30 9 32 -10 1 -5 2 -13 3 -19 2 -18 21 -10 32 13 8 17
19 24 41 24 26 0 28 -2 14 -12 -18 -14 -21 -41 -6 -50 6 -4 16 6 23 22 11 26
16 28 81 31 48 1 72 -2 78 -10 6 -10 10 -10 18 2 8 13 10 12 10 -2 0 -10 5
-18 11 -18 6 0 9 7 5 15 -4 11 2 15 19 16 14 1 33 2 43 3 12 0 16 -5 14 -23
-2 -15 0 -21 7 -17 6 4 11 13 11 20 0 26 87 36 96 11 4 -8 12 -15 20 -15 8 0
14 7 14 15 0 20 10 19 26 -3 13 -16 15 -16 29 3 11 14 18 16 23 8 5 -8 48 -12
132 -13 174 -1 178 -1 161 9 -20 13 -4 33 17 22 12 -6 24 -5 37 5 22 16 39 19
30 4 -3 -6 -1 -10 4 -10 6 0 11 5 11 10 0 6 12 10 28 9 l27 -1 -25 -7 c-20 -6
-14 -9 30 -13 30 -2 59 -1 63 2 17 14 26 239 17 418 -3 56 -7 72 -19 72 -12 0
-12 3 -3 12 7 7 12 23 11 37 l-1 26 -8 -25 c-7 -22 -8 -20 -9 15 0 29 2 36 9
25 8 -12 10 -10 11 10 2 47 -3 73 -17 87 -8 8 -14 24 -13 36 1 20 2 20 8 -3
13 -46 20 -5 23 133 2 118 0 139 -15 157 -10 12 -17 36 -16 58 0 30 2 33 9 17
18 -41 19 335 1 520 -7 72 -14 238 -15 370 -4 268 -11 339 -33 331 -37 -14
-1149 -26 -1171 -12 -7 4 -12 3 -12 -1 0 -5 -109 -10 -242 -11 -134 -2 -264
-7 -290 -12 -51 -10 -278 -3 -290 8 -3 4 -8 18 -11 32 -3 20 -5 21 -7 5z
m-380 -35 c12 -8 12 -10 -5 -9 -11 0 -38 4 -60 8 l-40 9 45 1 c25 0 52 -4 60
-9z m-527 -63 c3 -8 1 -20 -4 -28 -6 -10 -9 -7 -9 14 0 29 5 35 13 14z m2816
-4 c0 -5 -3 -9 -9 -11 -5 -2 -10 4 -10 13 0 16 16 14 19 -2z m41 1 c0 -8 -4
-12 -10 -9 -5 3 -10 10 -10 16 0 5 5 9 10 9 6 0 10 -7 10 -16z m-2804 -7 c10
4 12 0 7 -13 -6 -16 -4 -17 9 -6 13 10 17 10 22 -4 10 -27 7 -44 -9 -44 -8 0
-15 5 -15 11 0 6 -7 17 -15 25 -13 14 -15 13 -15 -10 0 -14 -4 -26 -10 -26
-11 0 -14 63 -3 74 4 4 9 3 11 -3 2 -5 10 -7 18 -4z m1517 -22 c-5 -25 -7 -27
-13 -10 -4 11 -3 26 3 33 14 17 16 12 10 -23z m88 13 c0 -23 0 -23 10 1 5 13
12 21 15 18 6 -5 14 -117 9 -117 -2 0 -16 20 -32 45 -15 25 -31 45 -35 45 -4
0 -5 7 -2 15 9 23 34 18 35 -7z m112 8 c20 -15 22 -32 5 -42 -7 -4 -8 -3 -4 4
4 7 2 12 -3 12 -6 0 -11 -13 -11 -28 0 -27 -15 -52 -32 -52 -4 0 -5 20 -2 44
4 27 2 46 -5 50 -6 4 -11 11 -11 17 0 13 42 10 63 -5z m62 -3 c0 -6 3 -15 7
-19 4 -4 5 -18 2 -30 -4 -13 -2 -24 4 -24 5 0 12 -8 14 -18 4 -13 -1 -18 -15
-19 -10 -1 -17 0 -14 3 2 3 -2 26 -9 51 -17 57 -18 76 -1 71 6 -3 12 -10 12
-15z m85 -16 c0 -20 -8 -39 -20 -50 -20 -16 -20 -16 -20 33 0 43 3 50 20 50
16 0 20 -7 20 -33z m50 -5 c0 -35 -10 -72 -20 -72 -8 0 -11 90 -3 103 9 14 23
-4 23 -31z m69 28 c5 0 8 -18 8 -40 0 -26 -4 -40 -13 -40 -18 0 -25 14 -29 56
-2 28 0 34 12 30 8 -3 18 -6 22 -6z m75 -51 c4 -73 -3 -111 -20 -105 -17 7
-19 -20 -1 -27 9 -4 8 -8 -3 -16 -9 -6 -16 -7 -18 -1 -5 15 -22 12 -22 -4 0
-8 14 -19 30 -25 31 -10 38 -25 20 -36 -6 -4 -8 -15 -5 -26 4 -11 9 -36 11
-56 7 -54 12 -51 19 9 6 54 1 140 -9 157 -4 5 -3 12 2 15 4 2 9 18 10 35 1 17
7 42 12 56 6 15 11 41 11 58 1 28 3 26 14 -18 8 -30 13 -40 14 -26 1 24 1 24
16 5 13 -18 14 -17 15 19 0 37 11 45 39 28 16 -10 6 -69 -12 -68 -44 1 -47 -3
-47 -50 0 -27 -5 -55 -11 -63 -7 -11 -8 -1 -3 35 6 50 6 50 -14 30 -12 -12
-17 -25 -12 -34 4 -8 2 -25 -5 -38 -11 -20 -10 -30 2 -55 12 -23 13 -32 3 -38
-9 -5 -10 -22 -3 -61 7 -46 12 -55 31 -57 24 -4 25 -13 5 -87 -4 -16 1 -14 21
9 14 16 26 33 26 38 0 4 4 8 9 8 13 0 12 -102 -1 -117 -8 -10 -6 -13 6 -13 25
0 19 -19 -8 -26 -14 -3 -27 -13 -31 -21 -8 -21 4 -31 15 -13 10 16 10 16 14
-18 4 -33 -32 -51 -51 -26 -12 16 -13 16 -13 1 0 -13 -7 -16 -35 -12 -23 3
-35 0 -35 -8 0 -8 24 -12 80 -11 46 1 80 -3 80 -9 0 -5 9 -7 20 -4 10 3 24 -1
31 -9 17 -21 49 -18 49 6 0 17 6 19 50 15 28 -2 55 -7 60 -10 14 -9 12 -33 -2
-32 -7 1 -39 -2 -70 -6 -36 -5 -64 -4 -77 2 -13 7 -21 7 -23 1 -4 -14 -55 -22
-63 -10 -3 5 -11 10 -16 10 -6 0 -7 -4 -4 -10 6 -9 -25 -13 -110 -12 -54 0
-55 1 -55 37 0 29 4 35 23 36 21 1 21 1 -2 8 -19 5 -26 15 -29 41 -3 30 -2 32
12 21 11 -9 16 -10 16 -2 0 6 8 12 18 12 16 1 16 2 0 6 -10 2 -18 10 -18 16 0
7 -4 6 -10 -3 -13 -21 -22 -7 -27 45 -8 63 -22 56 -20 -10 1 -30 5 -55 10 -55
4 0 7 -13 7 -30 0 -27 -3 -30 -32 -30 -18 0 -28 4 -21 8 6 4 14 25 18 46 6 28
5 37 -4 32 -7 -5 -11 4 -11 26 -1 28 -2 30 -11 15 -6 -10 -9 -27 -6 -38 6 -21
-8 -26 -17 -6 -3 8 -8 7 -16 -5 -13 -22 -30 -23 -30 -3 0 8 -4 15 -10 15 -5 0
-10 -7 -10 -15 0 -8 -7 -15 -15 -15 -17 0 -18 -2 -9 -24 4 -10 18 -16 35 -16
30 0 36 -13 20 -40 -12 -18 -3 -34 12 -22 7 6 23 9 37 7 14 -1 36 -3 50 -4 21
-1 25 -6 26 -31 1 -28 -1 -30 -40 -31 -23 -1 -50 -1 -61 -1 -54 3 -73 3 -102
-4 -22 -4 -33 -2 -33 5 0 13 -27 15 -32 2 -1 -5 -36 -11 -75 -12 -40 -2 -73
-7 -73 -11 0 -5 35 -6 77 -3 55 4 79 2 85 -7 5 -8 8 -9 8 -2 0 7 27 12 71 13
55 2 70 -1 67 -11 -3 -7 -22 -15 -44 -17 l-39 -5 40 -5 c26 -4 41 -12 43 -22
2 -12 -3 -15 -21 -12 -16 3 -26 -1 -30 -11 -7 -18 17 -46 41 -47 11 0 12 -2 5
-6 -7 -2 -13 -19 -12 -36 l0 -32 16 23 c8 12 24 22 34 22 19 0 35 33 24 50 -3
5 3 10 14 10 17 0 20 5 15 30 -5 25 -3 30 12 31 11 1 24 2 29 4 6 1 25 3 43 3
17 1 32 7 32 13 0 5 -4 8 -8 5 -5 -3 -42 -7 -84 -10 -61 -4 -77 -3 -82 9 -4
10 1 15 17 16 101 2 306 16 382 24 28 4 34 3 20 -4 -11 -5 -68 -14 -127 -21
-60 -7 -108 -16 -108 -21 0 -11 121 2 200 21 19 4 58 11 85 15 75 9 84 13 78
34 -6 22 31 49 42 31 3 -5 1 -10 -4 -10 -6 0 -11 -4 -11 -10 0 -5 7 -10 15
-10 9 0 15 9 15 24 0 23 2 23 42 14 56 -12 68 -24 69 -67 2 -32 2 -33 6 -7 8
48 -4 74 -37 81 -34 7 -41 25 -10 25 29 0 25 27 -5 34 -24 6 -36 26 -15 26 6
0 10 7 10 15 0 8 -4 15 -10 15 -5 0 -10 -6 -10 -14 0 -16 -18 -31 -27 -22 -13
13 26 52 55 54 28 2 33 -2 41 -30 6 -22 10 -26 11 -13 1 19 2 18 10 -3 5 -12
7 -29 4 -37 -4 -10 0 -15 11 -15 9 0 13 -4 10 -10 -3 -5 -1 -10 4 -10 6 0 11
5 11 11 0 5 5 7 10 4 14 -8 13 3 -5 61 -19 62 -19 73 0 48 8 -10 15 -31 15
-46 0 -16 4 -28 10 -28 5 0 7 7 4 15 -4 8 -1 15 6 15 12 0 11 -9 -6 -75 -5
-19 -4 -19 13 1 10 12 28 25 39 28 18 5 23 2 27 -21 3 -15 3 -42 0 -60 -4 -21
-2 -33 6 -33 6 0 11 4 11 10 0 5 5 9 12 7 6 -1 14 6 16 17 2 11 0 16 -7 12
-14 -9 -15 73 -1 94 9 13 11 13 20 0 7 -11 10 4 10 52 0 37 -4 70 -10 73 -5 3
-10 0 -10 -7 0 -9 -3 -9 -10 2 -8 12 -10 10 -11 -10 -1 -16 -4 -11 -8 15 -4
22 -5 48 -3 57 6 25 30 10 35 -20 2 -15 4 -4 3 23 0 28 3 59 8 70 6 16 6 17
-3 5 -8 -12 -11 -8 -11 20 0 26 3 31 10 20 7 -11 10 -6 10 19 0 62 17 19 23
-59 4 -47 3 -69 -3 -60 -14 23 -17 9 -10 -60 4 -36 8 -57 8 -47 1 9 6 17 10
17 13 0 14 -90 6 -338 l-7 -223 -24 6 c-13 3 -33 15 -45 27 -19 19 -21 19 -30
4 -7 -13 -5 -23 9 -38 17 -19 17 -20 -6 -39 -13 -10 -27 -16 -32 -13 -5 3 -9
-2 -9 -12 0 -13 7 -16 34 -11 31 5 34 3 42 -26 12 -41 26 -43 47 -6 20 36 13
55 -9 25 -14 -19 -14 -19 -14 1 0 14 8 22 25 26 l26 4 -2 -116 c-1 -64 2 -150
5 -191 9 -99 -11 -71 -23 32 -5 40 -9 65 -10 56 0 -10 -5 -18 -11 -18 -17 0
-11 29 10 47 21 19 27 67 10 93 -10 16 -12 12 -14 -35 -1 -26 -4 -29 -36 -30
-20 -1 -41 -4 -48 -9 -8 -4 -12 -1 -13 11 -1 10 -5 0 -9 -22 -4 -22 -10 -47
-14 -56 -8 -19 23 -31 47 -18 9 6 26 3 43 -6 26 -13 29 -21 34 -77 6 -73 2
-108 -11 -108 -5 0 -9 13 -9 30 0 16 -5 40 -12 54 l-11 26 -34 -52 c-18 -29
-33 -58 -33 -65 0 -7 -7 -13 -15 -13 -9 0 -15 9 -15 25 0 16 -6 25 -15 25 -9
0 -15 -9 -15 -23 0 -13 -4 -27 -9 -32 -5 -6 -5 -19 -1 -30 5 -11 9 -14 9 -7 1
6 5 12 10 12 6 0 10 -53 11 -123 0 -67 1 -129 2 -137 1 -8 0 -24 -2 -35 -2
-11 -6 12 -10 50 -5 57 -7 44 -8 -73 -1 -95 -5 -141 -12 -137 -7 4 -10 61 -9
151 1 80 5 141 10 138 5 -3 9 16 8 43 l-1 48 -11 -35 c-11 -32 -12 -27 -15 64
-2 64 1 103 9 112 9 11 9 14 -1 14 -9 0 -11 13 -6 49 4 32 3 52 -4 56 -6 4
-15 17 -20 29 -8 18 -9 17 -9 -11 -1 -18 -5 -33 -9 -33 -5 0 -7 25 -4 56 l5
55 -29 -7 c-25 -6 -26 -5 -13 8 8 9 18 15 23 15 13 -3 26 62 14 69 -5 3 -6 24
-3 48 6 33 5 39 -6 29 -7 -8 -12 -32 -11 -60 1 -27 -2 -55 -8 -63 -8 -13 -10
-13 -10 2 0 11 -6 15 -21 11 -12 -3 -25 0 -29 7 -12 20 -30 2 -30 -31 0 -16
-4 -29 -10 -29 -6 0 -10 29 -10 67 0 36 -3 63 -7 60 -3 -4 -5 -34 -4 -67 2
-58 -2 -66 -31 -61 -5 0 -8 -11 -8 -27 0 -24 -3 -27 -37 -28 -21 0 -65 -4 -98
-7 -33 -4 -96 -10 -140 -13 -44 -4 -91 -8 -105 -9 -14 -1 -60 -3 -102 -3 -44
-1 -78 -6 -78 -12 0 -5 7 -10 16 -10 26 0 13 -44 -14 -48 -21 -3 -22 -1 -16
35 l6 38 -63 -3 c-101 -6 -229 7 -229 24 0 8 -6 11 -15 8 -8 -4 -15 -1 -15 5
0 6 -4 11 -10 11 -16 0 -11 -23 12 -50 14 -16 22 -21 25 -12 8 21 53 14 63
-11 7 -17 9 -18 9 -4 1 10 9 17 19 17 15 0 18 -6 14 -30 -3 -21 -10 -30 -23
-30 -11 0 -19 4 -19 9 0 5 -9 7 -20 4 -10 -3 -18 -10 -17 -16 1 -5 -9 -14 -23
-18 -14 -4 -18 -7 -8 -8 10 -1 14 -7 12 -19 -3 -11 -25 -23 -61 -34 -53 -15
-56 -15 -60 3 -7 24 -24 24 -55 0 -34 -27 -63 -17 -76 26 -10 32 -9 35 9 30
10 -3 19 -1 19 4 0 5 5 9 10 9 6 0 10 -7 10 -16 0 -8 5 -12 10 -9 6 3 10 19
10 35 0 23 -3 27 -20 23 -11 -3 -20 -10 -20 -15 0 -6 -6 -8 -14 -5 -8 3 -17 1
-20 -6 -2 -7 -5 -4 -5 6 -1 10 -5 16 -11 12 -5 -3 -7 -12 -4 -19 3 -7 -2 -19
-11 -26 -13 -11 -15 -9 -16 11 0 13 -3 18 -6 11 -7 -19 6 -64 17 -57 6 3 10
-1 10 -9 0 -9 -2 -16 -4 -16 -2 0 -11 -3 -20 -6 -11 -4 -19 2 -26 20 -10 26
-39 36 -41 14 0 -7 -7 7 -15 32 -13 44 -20 260 -8 272 8 9 4 325 -6 403 -13
99 -12 175 1 175 6 0 13 -9 16 -20 7 -27 17 -25 31 5 6 14 16 25 22 25 6 0 8
-10 4 -25 -4 -15 -2 -25 5 -25 6 0 11 10 12 23 0 20 1 20 8 3 4 -11 10 -15 14
-10 7 12 2 67 -12 143 -14 68 -14 71 2 65 16 -6 43 23 33 33 -4 4 -11 1 -15
-6 -10 -16 -31 -6 -31 14 0 9 6 12 15 9 10 -4 15 0 15 15 0 12 -5 20 -11 18
-6 -1 -13 3 -16 10 -3 7 7 11 26 11 33 -1 39 -11 40 -69 0 -20 5 -56 10 -80 6
-24 11 -64 11 -89 1 -25 5 -54 10 -65 11 -25 5 132 -6 159 -6 16 -4 18 11 13
12 -5 22 -1 32 13 8 11 18 20 23 20 11 0 20 -44 21 -95 0 -22 3 -76 6 -120 5
-62 8 -73 14 -50 3 17 7 48 8 70 1 30 4 36 11 25 9 -13 10 -13 10 0 1 11 6 9
19 -7 15 -18 25 -21 54 -16 34 5 60 34 38 41 -6 2 -8 14 -5 29 6 22 4 24 -15
18 -20 -6 -21 -4 -17 37 3 24 3 35 0 25 -9 -28 -41 -57 -64 -57 -20 0 -24 9
-21 42 1 9 -3 19 -9 23 -5 3 -10 24 -10 46 0 37 1 39 16 25 25 -25 54 -20 54
8 0 14 4 28 10 31 9 6 16 -14 23 -70 3 -21 4 -17 6 15 1 34 4 41 13 32 19 -19
27 -14 38 27 7 27 7 47 0 66 l-10 27 -19 -24 c-25 -31 -36 -18 -21 26 7 22 9
57 5 91 -5 38 -4 55 4 55 6 0 16 12 22 28 l11 27 18 -45 c10 -25 16 -57 13
-71 -3 -15 0 -30 6 -33 8 -5 7 -12 -4 -22 -8 -9 -15 -25 -14 -37 0 -21 1 -21
9 -2 5 11 9 14 9 8 1 -7 1 -16 2 -20 2 -13 29 -63 34 -63 2 0 2 12 0 28 -3 15
-7 38 -9 52 -3 14 -5 25 -6 25 -1 0 -4 34 -6 76 -4 58 -2 78 9 87 28 23 40
-11 35 -98 -4 -66 -2 -78 9 -68 11 8 12 7 7 -6 -4 -11 -1 -16 10 -16 13 0 15
6 10 28 -4 15 -11 31 -15 37 -15 16 -11 45 6 39 8 -4 15 -1 15 5 0 6 -7 11
-15 11 -9 0 -15 9 -15 25 0 14 2 25 4 25 2 0 11 3 20 6 14 5 16 -7 17 -92 0
-55 4 -108 8 -119 5 -11 8 32 7 103 -1 88 2 122 11 122 17 0 27 -21 14 -29 -6
-4 -9 -18 -7 -32 3 -13 6 -42 7 -64 2 -31 3 -34 6 -12 2 15 9 27 14 27 6 0 9
19 8 43 -2 60 -1 67 16 61 17 -7 20 -49 5 -59 -5 -3 -10 -13 -10 -21 0 -22 37
-17 43 6 3 11 10 20 16 20 16 0 13 -36 -4 -50 -8 -7 -15 -20 -15 -28 0 -13 2
-13 13 3 12 16 13 10 9 -41 -7 -86 -20 -113 -22 -44 -1 30 -4 49 -7 43 -11
-29 -24 -11 -18 27 3 22 4 40 1 40 -14 0 -30 -51 -32 -98 -2 -52 -12 -79 -21
-54 -5 13 -23 7 -23 -8 0 -5 12 -20 27 -34 21 -19 27 -36 31 -80 2 -31 9 -56
15 -56 6 0 7 15 3 39 -4 28 -2 42 9 51 8 7 15 9 16 4 0 -5 4 0 9 11 7 16 9 12
9 -18 1 -23 5 -36 11 -32 6 4 10 12 9 18 -3 26 2 37 16 37 8 0 15 -5 15 -11 0
-6 5 -9 11 -7 7 2 13 36 15 81 3 81 -9 104 -20 37 -3 -22 -11 -40 -16 -40 -13
0 -13 37 0 45 6 3 10 19 10 35 0 16 5 32 10 35 7 4 5 14 -5 28 -8 12 -15 25
-15 29 0 14 29 -4 34 -20 2 -10 4 2 3 25 -1 27 5 48 16 61 9 10 14 22 10 26
-10 10 -3 80 9 87 7 4 6 13 -1 27 -16 29 -14 34 9 27 13 -4 20 -2 20 6 0 7 3
10 6 7 3 -3 7 -30 8 -59z m-2214 41 c0 -5 -4 -10 -10 -10 -5 0 -10 5 -10 10 0
6 5 10 10 10 6 0 10 -4 10 -10z m2430 -7 c0 -7 -11 -13 -25 -13 -15 0 -25 6
-25 14 0 9 10 13 25 12 14 0 25 -7 25 -13z m253 -8 c-5 -13 -23 -22 -23 -11 0
15 14 35 21 31 4 -3 6 -12 2 -20z m47 -8 c0 -18 -2 -19 -10 -7 -13 20 -13 43
0 35 6 -3 10 -16 10 -28z m59 -45 c1 -11 -2 -11 -13 0 -18 19 -29 55 -20 70 7
11 31 -40 33 -70z m8 46 c-3 -7 -5 -2 -5 12 0 14 2 19 5 13 2 -7 2 -19 0 -25z
m76 12 c-3 -11 -7 -20 -9 -20 -2 0 -4 9 -4 20 0 11 4 20 9 20 5 0 7 -9 4 -20z
m-2555 -24 c2 -16 -1 -33 -7 -39 -8 -8 -11 -3 -11 15 0 15 -5 30 -10 33 -13 8
-2 27 13 22 7 -2 13 -16 15 -31z m56 -64 c-3 -62 -10 -60 -23 4 -14 70 -14 87
-1 79 6 -3 10 0 11 7 3 33 15 -52 13 -90z m36 46 c0 -28 -3 -48 -7 -44 -12 11
-14 96 -3 96 6 0 10 -23 10 -52z m1100 15 c0 -27 -3 -34 -11 -26 -7 7 -9 23
-5 37 9 37 16 32 16 -11z m90 27 c0 -5 -5 -10 -11 -10 -5 0 -7 5 -4 10 3 6 8
10 11 10 2 0 4 -4 4 -10z m945 -9 c-8 -13 -35 -15 -35 -2 0 5 8 11 18 13 21 5
26 2 17 -11z m455 -7 c0 -14 -4 -23 -10 -19 -5 3 -10 1 -10 -4 0 -6 5 -11 10
-11 6 0 10 -9 10 -20 0 -22 -7 -25 -28 -11 -14 9 -7 61 9 61 5 0 9 7 9 15 0 8
2 15 5 15 3 0 5 -12 5 -26z m-2738 -6 c4 -21 3 -191 -2 -228 -1 -12 -3 -11 -8
2 -4 10 -4 62 0 115 5 78 3 100 -8 109 -18 14 -18 24 0 24 8 0 16 -10 18 -22z
m175 -8 c-2 -29 -17 -24 -17 6 0 14 4 23 9 19 6 -3 9 -14 8 -25z m61 18 c-6
-18 -28 -21 -28 -4 0 9 7 16 16 16 9 0 14 -5 12 -12z m29 -25 c-3 -10 -5 -4
-5 12 0 17 2 24 5 18 2 -7 2 -21 0 -30z m936 -11 c-8 -33 -20 -18 -15 19 3 23
7 28 13 17 4 -8 5 -24 2 -36z m84 11 c-3 -10 -5 -4 -5 12 0 17 2 24 5 18 2 -7
2 -21 0 -30z m85 10 c-3 -16 -7 -22 -10 -15 -4 13 4 42 11 42 2 0 2 -12 -1
-27z m-262 7 c0 -5 -4 -10 -9 -10 -6 0 -13 5 -16 10 -3 6 1 10 9 10 9 0 16 -4
16 -10z m347 -12 c-3 -8 -6 -5 -6 6 -1 11 2 17 5 13 3 -3 4 -12 1 -19z m764 0
c0 -13 1 -42 3 -66 1 -23 -1 -37 -4 -31 -5 7 -9 5 -13 -5 -3 -8 0 -21 7 -29
10 -10 11 -22 1 -59 -9 -36 -9 -49 2 -64 20 -27 27 -10 25 69 0 44 5 83 14
101 8 16 14 40 14 53 0 12 5 23 11 23 6 0 8 -8 5 -18 -11 -33 -14 -132 -5
-138 5 -3 9 11 9 30 0 37 11 45 33 24 9 -8 12 -32 9 -72 -3 -57 -2 -60 13 -41
14 18 15 16 14 -28 -1 -26 -6 -47 -11 -47 -4 0 -8 7 -8 15 0 8 -4 15 -10 15
-5 0 -11 19 -11 43 l-1 42 -13 -50 c-10 -37 -13 -43 -14 -22 -1 15 -6 27 -11
27 -22 0 -5 -176 17 -184 13 -5 15 0 9 34 -5 34 -4 40 11 40 12 0 14 -3 6 -11
-8 -8 -7 -16 5 -30 9 -11 22 -36 28 -57 9 -28 12 -32 13 -13 1 16 5 21 16 17
15 -5 20 9 16 49 -2 20 -2 20 13 0 9 -12 15 -15 16 -7 0 7 6 12 13 11 6 -1 21
-1 32 0 18 1 18 3 3 11 -10 6 -16 22 -16 40 1 32 -12 53 -19 33 -7 -19 -23
-16 -23 3 0 9 -8 24 -18 33 -9 9 -25 33 -35 54 -18 40 -23 74 -6 44 12 -21 28
-9 50 41 20 46 27 40 21 -19 -3 -31 -1 -50 4 -46 10 6 27 -27 40 -78 l7 -30 8
30 c6 22 7 17 3 -17 -4 -39 -2 -48 10 -48 9 0 16 -7 16 -15 0 -14 20 -19 66
-16 16 2 23 -5 27 -29 6 -27 9 -30 26 -20 29 15 29 15 33 -42 2 -29 6 -60 9
-68 3 -12 -5 -15 -41 -14 -37 1 -45 4 -45 20 -1 10 -5 25 -9 33 -7 11 -10 11
-17 0 -8 -12 -11 -11 -19 1 -6 10 -10 11 -10 3 0 -7 -7 -13 -15 -13 -8 0 -15
9 -15 19 0 11 -5 23 -12 27 -8 5 -9 -2 -5 -24 6 -32 6 -32 -36 -34 -68 -2 -91
-5 -114 -12 -19 -6 -23 -4 -23 16 0 34 -11 68 -21 68 -5 0 -9 -13 -9 -30 0
-16 5 -30 10 -30 6 0 10 -7 10 -16 0 -10 -6 -14 -15 -11 -8 4 -17 2 -20 -3 -3
-5 -11 -7 -18 -4 -8 3 -11 22 -9 58 2 30 -1 63 -7 73 -8 14 -10 1 -9 -54 1
-40 0 -75 -3 -77 -2 -2 -27 -6 -55 -8 l-51 -5 -10 51 c-7 30 -7 55 -2 60 5 6
9 15 9 20 0 6 -5 4 -10 -4 -8 -13 -10 -12 -10 4 0 15 5 17 30 12 29 -5 30 -4
19 15 -9 17 -8 23 2 30 12 8 12 11 0 18 -8 5 -23 8 -33 6 -16 -3 -17 1 -12 36
4 24 3 39 -4 39 -12 0 -21 79 -10 86 4 3 8 14 8 25 0 10 3 19 8 19 4 0 16 3
28 6 19 5 20 2 16 -28 -2 -18 -9 -39 -15 -46 -12 -15 -1 -30 12 -16 20 21 45
129 50 212 2 22 21 13 22 -10z m-1877 -50 c9 -60 -7 -70 -20 -12 -6 24 -7 44
-2 44 4 0 5 8 1 18 -4 11 -3 14 4 7 6 -5 14 -31 17 -57z m104 27 c0 -13 -4
-22 -9 -19 -5 3 -8 16 -7 29 3 31 16 23 16 -10z m90 10 c-3 -3 -9 2 -12 12 -6
14 -5 15 5 6 7 -7 10 -15 7 -18z m229 19 c-3 -3 -12 -4 -19 -1 -8 3 -5 6 6 6
11 1 17 -2 13 -5z m555 -16 c-7 -7 -12 -8 -12 -2 0 6 3 14 7 17 3 4 9 5 12 2
2 -3 -1 -11 -7 -17z m-632 1 c0 -6 -9 -9 -20 -6 -11 3 -20 2 -20 -2 0 -4 -7
-8 -15 -8 -32 0 -13 24 20 25 19 1 35 -3 35 -9z m477 -26 c-3 -10 -5 -4 -5 12
0 17 2 24 5 18 2 -7 2 -21 0 -30z m1003 27 c0 -5 -7 -10 -16 -10 -8 0 -12 5
-9 10 3 6 10 10 16 10 5 0 9 -4 9 -10z m154 -34 c-10 -27 -24 -18 -24 15 0 27
2 29 15 15 8 -8 12 -22 9 -30z m131 -14 c-8 -8 -25 10 -25 27 0 30 14 34 22 5
4 -16 6 -30 3 -32z m107 24 c2 -19 0 -32 -4 -30 -8 5 -12 64 -4 64 2 0 6 -15
8 -34z m38 -8 c0 -5 -4 -8 -10 -8 -5 0 -10 10 -10 23 0 18 2 19 10 7 5 -8 10
-18 10 -22z m-1493 16 c-3 -3 -12 -4 -19 -1 -8 3 -5 6 6 6 11 1 17 -2 13 -5z
m543 -7 c0 -7 -7 -22 -15 -33 -14 -18 -14 -18 -15 7 0 14 3 29 7 32 11 11 23
8 23 -6z m-1211 -41 c18 -31 19 -37 6 -32 -14 5 -15 0 -9 -42 5 -37 4 -44 -6
-36 -7 7 -14 44 -15 84 -2 40 -2 71 -1 69 2 -2 14 -21 25 -43z m545 7 c-4 -58
-5 -59 -14 -38 -12 28 -12 67 0 60 6 -3 10 -1 10 4 0 6 2 11 3 11 2 0 3 -17 1
-37z m-697 -8 c-6 -51 -17 -56 -17 -7 0 23 5 42 10 42 6 0 9 -15 7 -35z m354
-55 c-9 -24 -10 -24 -10 8 -1 19 -7 35 -16 38 -8 4 -15 11 -15 17 0 6 3 8 6 4
4 -3 14 1 23 10 15 16 16 14 19 -18 2 -19 -1 -46 -7 -59z m49 80 c0 -5 -5 -10
-11 -10 -5 0 -7 5 -4 10 3 6 8 10 11 10 2 0 4 -4 4 -10z m47 -12 c-3 -8 -6 -5
-6 6 -1 11 2 17 5 13 3 -3 4 -12 1 -19z m373 12 c0 -5 -4 -10 -10 -10 -5 0
-10 5 -10 10 0 6 5 10 10 10 6 0 10 -4 10 -10z m165 0 c3 -5 1 -10 -4 -10 -6
0 -11 5 -11 10 0 6 2 10 4 10 3 0 8 -4 11 -10z m782 -12 c-3 -8 -6 -5 -6 6 -1
11 2 17 5 13 3 -3 4 -12 1 -19z m-1130 -10 c-3 -8 -6 -5 -6 6 -1 11 2 17 5 13
3 -3 4 -12 1 -19z m291 -33 c1 -32 0 -34 -13 -21 -8 8 -12 21 -9 29 3 8 -2 17
-13 21 -15 6 -15 9 -3 16 21 13 37 -5 38 -45z m142 23 c0 -6 -3 -8 -7 -4 -4 3
-12 -6 -19 -21 l-12 -28 -1 26 c-1 14 2 29 6 32 11 11 33 8 33 -5z m716 -64
c-3 -8 -11 -14 -17 -14 -8 0 -8 4 1 14 6 8 11 23 10 33 -4 34 3 48 7 15 3 -19
2 -40 -1 -48z m529 16 c4 -24 3 -32 -4 -25 -15 15 -27 83 -13 70 6 -5 14 -26
17 -45z m34 -24 c15 -79 14 -97 -4 -66 -15 28 -25 15 -22 -30 1 -15 -4 -26
-14 -28 -13 -2 -16 7 -17 53 0 50 2 56 18 52 16 -4 18 1 16 44 -3 63 8 51 23
-25z m-2333 6 c-12 -12 -18 8 -10 35 l8 28 4 -28 c2 -16 1 -31 -2 -35z m274
48 c0 -5 -4 -10 -10 -10 -5 0 -10 5 -10 10 0 6 5 10 10 10 6 0 10 -4 10 -10z
m36 -75 c-9 -19 -11 -18 -18 10 -5 23 -6 20 -3 -15 1 -25 -1 -53 -6 -62 -5 -9
-5 -19 -1 -22 5 -3 16 11 26 31 9 19 18 34 20 32 2 -2 6 -28 9 -57 5 -51 -6
-80 -16 -42 -4 14 -11 18 -31 14 -21 -3 -26 0 -26 16 0 11 -3 20 -8 20 -4 0
-8 18 -9 40 -1 22 2 40 7 40 5 0 14 16 21 34 7 19 16 33 21 30 4 -3 9 1 9 8 1
7 5 -3 8 -22 4 -19 3 -44 -3 -55z m70 9 c-3 -8 -10 -14 -16 -14 -7 0 -8 6 0
19 5 11 11 32 12 48 1 25 2 25 5 -5 3 -19 2 -40 -1 -48z m44 51 c0 -25 -16
-24 -18 1 -1 15 2 22 8 19 6 -3 10 -12 10 -20z m297 -22 c-3 -10 -5 -2 -5 17
0 19 2 27 5 18 2 -10 2 -26 0 -35z m259 37 c6 0 11 -18 11 -41 0 -22 -3 -35
-7 -29 -4 7 -9 -8 -12 -34 -2 -26 0 -53 4 -59 5 -7 8 -1 8 16 0 41 20 32 22
-10 0 -21 2 -45 3 -53 1 -8 -2 -24 -6 -35 -4 -12 -1 -25 7 -33 22 -21 16 -47
-16 -70 l-30 -23 -1 33 c0 26 -2 29 -8 14 -7 -18 -8 -18 -14 5 -12 42 -8 68
13 89 12 12 17 26 13 36 -5 15 -8 13 -15 -7 -14 -36 -27 -5 -17 39 8 37 3 147
-8 165 -4 6 2 8 18 4 13 -4 29 -7 35 -7z m1464 -30 c0 -42 -18 -55 -27 -20 -3
11 -10 20 -17 20 -9 0 32 39 42 40 1 0 2 -18 2 -40z m-2690 -75 c1 -5 2 -31 1
-57 -1 -36 -5 -48 -16 -48 -8 0 -15 -9 -15 -20 0 -27 12 -25 38 5 25 28 28 40
10 29 -10 -6 -9 -3 0 8 7 9 17 29 22 45 7 25 8 26 9 5 1 -18 6 -23 23 -20 20
3 22 8 20 58 -2 30 -5 63 -8 73 -4 11 0 17 10 17 10 0 13 -6 9 -15 -3 -10 0
-15 8 -13 9 2 14 -6 14 -19 0 -11 3 -25 8 -29 4 -4 7 2 7 14 0 12 5 22 10 22
16 0 12 -90 -5 -106 -13 -14 -15 -13 -15 5 0 12 -4 21 -10 21 -5 0 -10 -7 -10
-15 0 -8 -4 -15 -10 -15 -5 0 -10 -12 -10 -28 0 -15 -7 -38 -16 -50 -19 -27
-12 -41 11 -22 13 11 15 9 15 -14 0 -21 -5 -26 -24 -26 -38 0 -56 10 -57 34
-1 18 -2 18 -6 3 -3 -11 -10 -16 -20 -13 -8 3 -19 6 -24 6 -12 0 -11 67 1 75
6 4 8 11 4 16 -8 14 -6 158 3 172 4 7 11 -10 14 -38 4 -27 8 -54 9 -60z m709
79 c-14 -18 -24 -11 -15 11 3 9 11 13 16 10 8 -5 7 -11 -1 -21z m1091 16 c0
-5 -5 -10 -11 -10 -5 0 -7 5 -4 10 3 6 8 10 11 10 2 0 4 -4 4 -10z m-1783 -22
c-3 -8 -6 -5 -6 6 -1 11 2 17 5 13 3 -3 4 -12 1 -19z m863 -8 c0 -16 5 -30 10
-30 6 0 10 5 10 10 0 6 6 10 14 10 8 0 16 6 19 13 2 6 8 -14 12 -47 6 -44 4
-66 -8 -90 l-15 -31 3 53 c3 59 -11 81 -19 30 -17 -105 -16 -118 5 -118 11 0
22 7 25 15 12 31 19 13 22 -58 2 -40 5 -86 7 -102 4 -37 -4 -75 -16 -75 -5 0
-9 8 -10 18 0 14 -2 14 -8 -3 -11 -28 -4 -42 22 -41 17 1 22 -5 23 -29 1 -16
7 -88 13 -160 6 -71 11 -185 10 -253 -1 -67 1 -125 4 -128 3 -3 2 -16 -3 -29
-5 -13 -10 -63 -12 -112 -2 -52 -7 -90 -13 -90 -42 0 -56 -4 -49 -15 12 -19
14 -238 3 -238 -5 0 -9 -5 -9 -11 0 -5 4 -8 9 -4 5 3 11 -28 13 -72 2 -55 -1
-80 -9 -86 -18 -11 -16 -36 3 -44 14 -5 16 -17 10 -80 -3 -44 -12 -80 -20 -89
-21 -21 -26 -17 -20 15 4 20 2 30 -10 34 -12 5 -16 20 -16 61 0 52 12 81 23
54 3 -7 6 6 6 30 1 26 5 41 11 37 6 -3 10 -1 10 4 0 6 -4 11 -10 11 -5 0 -10
7 -10 15 0 8 -6 15 -12 15 -18 0 -23 81 -6 92 10 6 10 10 -1 17 -19 12 -43
104 -30 112 12 7 1 59 -12 59 -4 0 -14 -12 -22 -26 l-13 -25 -12 25 c-13 28
-42 35 -42 11 0 -8 -6 -15 -14 -15 -8 0 -18 -9 -21 -20 -4 -11 -11 -18 -16
-15 -14 9 -11 59 6 81 8 10 15 33 15 51 0 17 5 44 12 60 11 27 12 27 15 6 3
-13 10 -23 18 -23 7 0 15 -5 17 -11 6 -17 38 1 38 21 0 11 5 22 10 25 6 4 10
-5 10 -21 0 -15 3 -24 7 -20 11 11 3 100 -10 108 -8 5 -6 9 6 14 9 3 14 10 11
15 -2 5 0 18 6 29 9 16 8 20 -5 20 -12 0 -14 10 -11 51 2 36 0 52 -10 56 -22
8 -4 25 20 19 20 -5 22 -1 25 35 2 37 0 40 -14 26 -8 -9 -15 -22 -16 -29 -1
-7 -5 -2 -9 12 -13 40 -11 158 3 181 10 17 9 22 -6 33 -13 11 -18 30 -19 87
-1 41 -6 80 -12 87 -7 10 -5 17 7 23 9 5 14 15 11 23 -3 9 5 13 26 13 27 0 30
-4 31 -31 1 -42 4 -84 14 -201 5 -55 9 -103 9 -107 1 -3 4 -10 9 -14 10 -10 9
50 -3 159 -13 122 -17 236 -9 231 9 -5 16 16 14 44 -1 12 2 22 7 22 4 0 8 12
7 28 0 27 -1 27 -11 5 -6 -13 -14 -23 -19 -23 -4 0 -5 -10 -1 -22 3 -14 2 -19
-6 -14 -7 4 -13 26 -13 49 -2 30 -3 34 -6 15 -4 -24 -9 -28 -39 -28 -34 0 -34
1 -34 44 0 41 19 74 33 59 4 -3 7 6 7 20 0 15 5 27 10 27 6 0 10 -13 10 -29 0
-17 3 -32 8 -34 4 -3 7 27 7 66 0 68 -13 105 -30 89 -5 -4 -5 -1 -1 6 12 20
14 62 4 68 -10 6 -1 24 13 24 5 0 9 -13 9 -30z m118 -14 c-3 -24 -2 -50 3 -58
6 -9 9 -2 9 20 0 17 5 32 10 32 6 0 10 8 10 18 0 14 4 13 19 -7 11 -14 18 -42
19 -72 0 -28 4 -60 7 -72 l7 -22 -16 22 c-10 13 -24 20 -36 18 -11 -2 -20 1
-20 8 0 19 -17 -6 -24 -36 -6 -26 -5 -27 14 -17 20 11 26 4 12 -16 -4 -6 -15
-11 -26 -11 -17 0 -18 7 -11 86 3 47 7 101 7 119 1 17 6 32 11 32 5 0 7 -19 5
-44z m393 27 c8 -9 9 -14 3 -10 -12 7 -23 -40 -25 -103 0 -28 -2 -31 -8 -15
-13 32 -2 145 14 145 1 0 9 -8 16 -17z m-1662 -25 c0 -27 -2 -29 -8 -13 -5 11
-6 26 -4 33 8 21 13 13 12 -20z m41 -3 c1 6 5 -1 9 -15 5 -14 6 -29 3 -33 -6
-13 -32 42 -31 67 1 19 2 19 9 -4 4 -14 9 -20 10 -15z m135 -13 c-1 -20 2 -40
8 -44 6 -4 1 -17 -13 -35 -14 -17 -20 -21 -16 -9 5 14 2 17 -9 12 -20 -7 -21
60 -1 71 15 8 16 11 16 39 0 8 4 13 9 10 5 -4 8 -23 6 -44z m920 -36 c0 -49
-4 -81 -11 -83 -7 -2 -9 11 -4 42 5 34 4 45 -7 45 -8 0 -13 -12 -13 -33 0 -27
-5 -35 -30 -44 -24 -9 -33 -9 -43 1 -9 11 -15 7 -31 -17 -13 -23 -15 -32 -6
-35 10 -4 10 -6 0 -12 -9 -6 -9 -13 2 -31 24 -44 44 -50 51 -16 3 15 5 12 6
-12 1 -24 5 -32 15 -28 8 3 17 -1 20 -9 4 -10 -3 -14 -24 -14 -17 0 -30 5 -31
13 0 10 -2 10 -6 0 -2 -7 -16 -13 -29 -13 -17 0 -24 6 -24 19 0 11 -4 23 -10
26 -5 3 -10 19 -10 36 0 36 -13 38 -28 4 -13 -29 -35 -34 -30 -7 1 9 -1 23 -5
30 -5 8 -3 12 7 12 15 0 22 36 17 79 -2 7 2 10 8 6 6 -3 11 -19 11 -36 0 -33
15 -39 25 -10 4 12 12 18 21 14 11 -4 14 6 14 51 0 43 3 54 14 50 8 -3 17 0
21 6 6 9 10 9 16 -1 6 -10 9 -7 10 11 0 14 3 19 6 12 4 -10 8 -10 21 0 13 11
14 10 5 -7 -15 -28 -20 -61 -9 -66 5 -2 11 5 12 16 11 71 17 86 33 83 13 -3
16 -17 16 -82z m292 42 c1 -23 -2 -45 -8 -49 -6 -3 -4 -11 6 -19 13 -11 15 -8
15 19 0 35 19 43 22 9 6 -87 2 -117 -14 -127 -19 -12 -23 -2 -20 42 1 9 -3 17
-8 17 -6 0 -10 -5 -10 -12 0 -6 -3 -9 -6 -5 -4 3 -8 41 -10 84 -2 54 0 69 5
48 l9 -30 1 33 c2 47 16 39 18 -10z m219 -32 c-3 -22 -9 -59 -12 -81 -8 -50
-29 -74 -38 -42 -8 30 -7 39 2 33 4 -2 8 16 7 42 0 32 -4 46 -12 45 -7 -2 -13
2 -13 7 0 6 7 10 15 10 8 0 15 9 15 21 0 11 5 17 10 14 6 -3 10 2 10 12 1 17
1 17 11 -1 7 -10 9 -36 5 -60z m1078 52 c9 -34 7 -38 -9 -32 -16 6 -21 54 -6
54 5 0 11 -10 15 -22z m78 -43 c7 -7 2 -92 -8 -135 -9 -41 -22 -3 -22 65 0 33
-1 65 -2 70 -1 6 -1 24 0 40 l2 30 11 -32 c7 -17 15 -35 19 -38z m-2423 0 l-1
-30 -14 33 c-8 18 -12 38 -8 44 10 16 24 -12 23 -47z m-230 -12 l-2 -58 -7 45
c-7 41 -4 70 6 70 2 0 3 -26 3 -57z m364 34 c3 -8 1 -20 -4 -28 -5 -8 -9 -9
-10 -4 0 6 -2 18 -4 28 -4 20 10 23 18 4z m44 -19 c-3 -8 -6 -5 -6 6 -1 11 2
17 5 13 3 -3 4 -12 1 -19z m343 6 c0 -8 -5 -12 -10 -9 -6 4 -8 11 -5 16 9 14
15 11 15 -7z m-783 -26 c-3 -7 -5 -2 -5 12 0 14 2 19 5 13 2 -7 2 -19 0 -25z
m2190 20 c4 -7 9 -21 10 -30 2 -10 4 -21 5 -25 1 -4 -1 -24 -5 -44 -7 -35 -9
-36 -32 -25 -14 6 -25 18 -26 26 -7 84 -1 110 27 110 7 0 16 -6 21 -12z
m-1592 -61 c-3 -23 -9 -55 -14 -72 -8 -26 -9 -21 -9 30 -1 69 5 98 19 90 5 -4
7 -25 4 -48z m75 43 c0 -5 -2 -10 -4 -10 -3 0 -8 5 -11 10 -3 6 -1 10 4 10 6
0 11 -4 11 -10z m-34 -19 c-3 -5 3 -11 14 -14 20 -5 29 -47 10 -47 -5 0 -10 9
-10 20 0 11 -4 20 -10 20 -5 0 -10 -7 -10 -16 0 -8 -4 -13 -9 -10 -11 7 -2 56
11 56 5 0 7 -4 4 -9z m-670 -68 c-6 -72 -16 -97 -16 -42 0 42 11 109 17 109 3
0 2 -30 -1 -67z m432 43 c1 -16 -5 -25 -18 -29 -22 -6 -23 -3 -14 31 8 29 29
28 32 -2z m68 4 c8 0 14 -8 15 -17 0 -14 3 -13 11 5 13 27 32 29 25 3 -3 -11
2 -29 10 -40 9 -14 10 -21 3 -21 -7 0 -10 -13 -8 -32 2 -24 8 -33 21 -32 9 1
17 -4 17 -12 0 -8 -7 -14 -16 -14 -10 0 -14 -6 -11 -14 5 -12 -2 -14 -31 -11
-20 1 -44 3 -53 4 -12 1 -14 9 -11 31 3 22 1 30 -9 28 -8 -2 -17 -7 -20 -12
-10 -13 -29 3 -29 24 0 10 7 20 15 24 8 3 15 1 15 -5 0 -6 7 -6 20 1 23 12 28
55 6 47 -10 -4 -12 1 -9 16 9 41 15 53 20 40 3 -7 11 -13 19 -13z m389 11 c3
-5 1 -12 -5 -16 -5 -3 -10 1 -10 9 0 18 6 21 15 7z m1232 -13 c-3 -8 -6 -5 -6
6 -1 11 2 17 5 13 3 -3 4 -12 1 -19z m-1040 -25 c-3 -10 -5 -4 -5 12 0 17 2
24 5 18 2 -7 2 -21 0 -30z m923 -11 c0 -21 -2 -24 -10 -12 -13 20 -13 53 0 45
6 -3 10 -18 10 -33z m-2041 -42 c4 0 7 -29 7 -65 -1 -36 -4 -65 -7 -65 -10 0
-19 70 -17 140 1 41 3 51 5 28 2 -21 8 -38 12 -38z m197 22 c-11 -10 -15 4 -8
28 l7 25 3 -23 c2 -13 1 -26 -2 -30z m-106 -2 c-9 -30 -4 -67 12 -87 5 -6 10
-25 10 -42 1 -36 18 -42 18 -7 0 14 5 28 10 31 6 3 10 18 11 33 1 26 1 26 8
-4 5 -17 6 -45 4 -61 -4 -25 -10 -30 -34 -31 -39 -1 -53 -10 -39 -27 8 -9 6
-14 -5 -19 -8 -3 -15 -1 -15 4 0 21 -18 9 -22 -14 -5 -26 16 -44 28 -24 5 7 2
8 -7 3 -8 -5 -11 -4 -7 0 5 5 20 10 35 11 25 3 26 2 11 -10 -10 -7 -18 -21
-18 -30 0 -10 -4 -15 -8 -12 -12 7 -40 -80 -46 -141 -5 -57 10 -74 21 -23 3
17 9 30 13 30 12 0 21 30 27 85 4 46 23 89 23 54 0 -8 9 -15 20 -16 11 -1 20
2 20 8 0 5 7 9 15 9 8 0 15 -6 15 -14 0 -8 7 -17 16 -20 9 -4 13 -2 8 6 -4 6
-7 23 -6 39 0 21 -5 29 -21 32 -17 3 -16 5 7 6 28 1 28 2 24 45 -3 25 -1 49 5
55 8 8 8 11 -1 11 -7 0 -12 5 -12 10 0 6 12 10 26 10 14 0 23 -4 20 -9 -3 -5
1 -14 9 -21 12 -10 15 -10 15 3 0 11 9 15 30 15 27 -1 30 -4 30 -35 0 -20 4
-32 10 -28 6 3 10 16 10 29 0 13 6 23 15 23 24 0 17 -29 -15 -67 -25 -29 -32
-32 -40 -20 -13 20 -12 30 3 30 8 0 7 3 -3 9 -21 14 -32 2 -25 -26 4 -16 2
-22 -5 -18 -5 3 -10 -1 -10 -9 0 -9 3 -15 8 -15 4 1 12 0 17 -1 6 -1 15 -3 20
-5 6 -1 18 -3 28 -3 9 -1 17 -6 17 -11 0 -10 -39 -27 -52 -23 -5 1 -8 -5 -8
-13 0 -8 9 -15 19 -15 11 0 21 -6 24 -12 3 -9 10 -8 26 6 12 11 21 14 21 7 0
-15 49 -34 69 -26 13 5 12 10 -9 25 -21 16 -22 20 -7 20 13 0 17 6 15 23 -2
13 2 21 10 19 7 -1 12 8 12 23 0 27 -18 33 -38 13 -23 -23 -23 0 -1 34 20 30
28 35 66 37 44 1 44 1 41 -31 -2 -28 -8 -34 -30 -36 -39 -5 -35 -22 5 -23 17
-1 37 0 42 1 6 1 33 4 62 7 45 3 54 1 63 -17 14 -26 4 -43 -21 -37 -27 7 -24
-22 4 -33 20 -8 21 -9 2 -10 -59 -6 -89 -11 -94 -16 -3 -4 22 -4 56 -1 54 4
61 3 56 -12 -5 -12 -3 -13 7 -4 7 6 19 9 26 6 22 -8 64 6 64 22 0 8 -6 15 -12
16 -10 0 -10 2 0 6 21 8 14 36 -8 30 -22 -6 -37 8 -19 18 5 4 8 13 5 21 -4 10
4 14 32 14 l38 0 -4 -40 c-2 -22 -8 -40 -13 -40 -5 0 -9 -5 -9 -11 0 -5 4 -7
10 -4 6 4 10 -12 10 -39 0 -25 -4 -46 -10 -46 -5 0 -10 -5 -10 -11 0 -5 4 -8
9 -5 16 11 21 -39 21 -245 0 -236 -4 -269 -32 -269 -15 0 -18 5 -13 20 5 14 2
20 -9 20 -9 0 -16 -7 -16 -15 0 -8 -4 -15 -10 -15 -5 0 -10 7 -10 16 0 11 -6
15 -20 11 -17 -4 -20 0 -20 26 -1 28 -2 29 -11 14 -6 -11 -8 -34 -4 -54 5 -29
4 -35 -8 -30 -10 4 -14 -2 -14 -18 0 -24 21 -40 38 -30 5 4 6 -8 2 -25 -5 -30
-4 -31 21 -24 24 6 26 4 26 -27 0 -19 9 -49 20 -67 21 -34 27 -92 10 -92 -5 0
-10 12 -10 26 0 31 -23 56 -47 52 -13 -2 -20 7 -27 35 -10 39 -35 51 -37 17
-1 -11 -3 -24 -4 -30 -1 -5 -3 -28 -4 -51 0 -24 -5 -38 -11 -34 -14 9 -13 -18
2 -33 7 -7 11 -49 12 -109 0 -148 -4 -297 -8 -292 -2 2 -7 60 -10 129 -10 196
-26 330 -42 369 -25 60 -34 20 -33 -142 0 -82 -2 -151 -5 -154 -3 -4 -6 1 -6
9 0 12 -10 15 -42 13 -24 -2 -48 1 -55 7 -13 11 -28 -6 -18 -22 3 -5 1 -10 -4
-10 -6 0 -11 -11 -11 -25 0 -14 4 -25 10 -25 5 0 7 -13 5 -28 -2 -16 1 -35 7
-43 8 -11 9 -11 5 2 -3 9 -1 22 4 30 7 12 9 12 9 0 0 -10 3 -11 13 -3 10 9 10
-4 -1 -63 -11 -53 -18 -72 -28 -68 -9 3 -13 -4 -12 -24 0 -15 -3 -38 -7 -51
-6 -17 -3 -22 10 -22 12 0 15 -5 11 -16 -3 -9 -6 -22 -6 -30 0 -20 -59 -19
-67 2 -4 10 0 22 10 28 12 9 13 20 8 46 -9 38 -18 28 -25 -26 -5 -47 -13 -54
-59 -53 -23 1 -32 4 -20 6 12 2 25 13 28 24 4 10 14 20 23 20 16 1 16 2 0 6
-14 4 -17 14 -13 63 2 33 6 63 8 67 9 15 7 154 -2 171 -5 10 -19 93 -30 185
-12 92 -26 179 -33 195 l-11 27 -8 -30 c-5 -16 -7 -36 -4 -42 2 -7 0 -13 -4
-13 -5 0 -17 -3 -26 -6 -14 -6 -14 -3 -3 21 10 22 9 28 -3 36 -22 14 -28 11
-22 -11 3 -12 0 -20 -7 -20 -8 0 -11 -9 -8 -25 5 -26 -6 -43 -17 -26 -3 6 -12
8 -20 4 -20 -7 -19 16 2 39 14 16 15 18 1 13 -12 -5 -17 2 -20 30 -3 26 -1 34
9 31 8 -3 15 5 19 19 9 38 44 34 44 -5 0 -16 5 -30 10 -30 10 0 14 13 11 43
-1 9 3 17 9 17 12 0 40 24 40 34 0 3 -6 3 -14 0 -11 -4 -14 1 -12 20 1 14 6
29 9 33 4 3 7 11 7 16 0 9 -17 7 -54 -8 -15 -7 -17 -5 -12 12 9 28 -15 35 -44
13 -22 -17 -23 -19 -7 -35 26 -26 20 -35 -18 -30 -28 3 -35 1 -35 -13 0 -10 5
-23 12 -30 7 -7 8 -12 2 -12 -13 0 -16 -38 -3 -45 15 -10 10 -25 -5 -19 -8 3
-18 20 -21 37 -10 54 -26 77 -44 68 -14 -8 -16 1 -15 72 1 113 2 114 24 120
14 4 20 0 21 -11 0 -11 2 -13 6 -4 8 21 -17 44 -33 31 -16 -13 -17 -12 -16 61
1 42 -1 49 -8 30 l-8 -25 -1 25 c-1 14 -3 50 -6 80 -3 44 -2 48 4 20 l8 -35 2
38 c0 20 -3 37 -9 37 -15 0 -12 28 3 37 11 6 12 25 6 91 -5 46 -11 87 -14 92
-3 5 3 24 12 42 12 23 18 54 17 101 0 37 1 67 3 67 2 0 11 -17 19 -37 18 -43
32 -31 27 25 -7 81 0 132 17 132 5 0 5 -13 0 -30z m723 -48 c-4 -18 -9 -20
-24 -11 -24 12 -24 28 -1 45 21 15 34 -1 25 -34z m2007 41 c-1 -15 -30 -46
-37 -40 -3 4 2 16 13 26 22 23 24 24 24 14z m87 -45 c-2 -13 -4 -5 -4 17 -1
22 1 32 4 23 2 -10 2 -28 0 -40z m-1812 32 c-3 -5 -18 -9 -33 -9 l-27 1 30 8
c17 4 31 8 33 9 2 0 0 -3 -3 -9z m-895 -25 c0 -8 -2 -15 -4 -15 -2 0 -6 7 -10
15 -3 8 -1 15 4 15 6 0 10 -7 10 -15z m550 -36 c0 -17 3 -19 14 -10 7 6 25 10
40 9 21 -2 26 -7 26 -30 0 -19 -5 -28 -15 -28 -13 0 -14 4 -5 20 8 16 8 20 -4
20 -8 0 -16 -10 -18 -22 -3 -20 -8 -22 -48 -19 -25 1 -46 4 -47 5 -2 1 -6 17
-9 34 -4 22 -3 32 5 32 7 0 10 -4 7 -9 -3 -5 1 -12 10 -15 23 -9 24 -8 24 14
0 11 5 20 10 20 6 0 10 -10 10 -21z m300 -1 c0 -12 -3 -18 -7 -14 -11 10 -12
36 -2 36 5 0 9 -10 9 -22z m520 1 c0 -5 -4 -9 -10 -9 -5 0 -10 7 -10 16 0 8 5
12 10 9 6 -3 10 -10 10 -16z m-684 -66 c-2 -3 -14 -2 -25 2 -28 8 -28 45 -1
45 12 0 21 7 22 18 1 9 3 0 5 -22 3 -21 2 -40 -1 -43z m-689 52 c0 -8 -4 -15
-9 -15 -10 0 -11 14 -1 23 9 10 10 9 10 -8z m203 5 c0 -5 -5 -10 -11 -10 -5 0
-7 5 -4 10 3 6 8 10 11 10 2 0 4 -4 4 -10z m273 -42 c-6 -12 -33 -9 -33 3 0 6
5 20 12 32 l12 22 6 -25 c4 -14 5 -28 3 -32z m599 5 c-2 -27 -6 -50 -8 -52 -9
-10 -22 17 -27 57 -5 39 -3 42 18 42 21 0 22 -3 17 -47z m78 0 c0 -35 -32 -88
-53 -88 -7 0 -12 -10 -11 -23 0 -12 -3 -22 -8 -22 -4 0 -8 -12 -8 -27 0 -22
-2 -25 -10 -13 -12 19 -13 67 -1 75 5 3 12 19 16 35 4 17 11 30 17 30 6 0 5 6
-3 16 -11 13 -8 19 17 39 35 28 44 24 44 -22z m610 27 c0 -5 -7 -10 -15 -10
-8 0 -15 5 -15 10 0 6 7 10 15 10 8 0 15 -4 15 -10z m-1773 -52 c-3 -8 -6 -5
-6 6 -1 11 2 17 5 13 3 -3 4 -12 1 -19z m253 4 c0 -18 -31 -62 -44 -62 -13 0
-5 28 9 34 8 3 15 15 15 26 0 11 5 20 10 20 6 0 10 -8 10 -18z m229 -6 c160
-4 161 -5 161 -26 0 -12 -7 -20 -17 -21 -10 -1 -33 -2 -50 -4 -18 -1 -33 2
-33 7 0 5 -8 7 -17 4 -10 -3 -46 -8 -81 -10 l-63 -5 5 32 c2 18 5 33 5 35 1 2
6 0 12 -4 7 -4 41 -8 78 -8z m221 -26 c0 -15 -7 -20 -25 -20 -16 0 -25 6 -25
16 0 8 5 12 10 9 6 -3 10 -1 10 4 0 6 7 11 15 11 8 0 15 -9 15 -20z m70 3 c0
-7 -9 -13 -20 -13 -11 0 -20 6 -20 14 0 9 9 14 20 13 11 -1 20 -7 20 -14z m95
7 c3 -5 -1 -10 -9 -10 -8 0 -18 -4 -21 -10 -4 -6 5 -10 20 -10 18 0 29 6 32
20 6 22 43 28 43 8 0 -10 2 -10 9 0 7 11 9 11 14 -2 4 -9 -1 -17 -12 -21 -10
-3 -18 -12 -18 -21 0 -8 6 -13 14 -10 7 3 13 1 13 -3 0 -18 -28 -18 -41 0 -15
22 -39 25 -39 6 0 -8 -13 -13 -37 -12 -37 0 -38 1 -41 38 -3 36 -3 37 32 37
19 0 38 -4 41 -10z m1880 -20 c3 -5 1 -10 -4 -10 -6 0 -11 5 -11 10 0 6 2 10
4 10 3 0 8 -4 11 -10z m-2037 -59 c-1 -29 -7 -42 -22 -50 -13 -6 -15 -10 -7
-10 8 -1 23 -8 33 -18 17 -15 18 -15 18 6 0 15 4 21 13 17 6 -3 20 -9 30 -12
19 -7 17 -31 -2 -26 -6 1 -11 -2 -11 -8 0 -5 10 -10 22 -10 15 0 19 -3 12 -10
-12 -12 -6 -70 7 -70 5 0 6 12 3 28 -2 15 0 34 6 42 9 13 12 13 21 -3 14 -23
29 -12 29 20 0 54 9 15 15 -68 5 -63 4 -89 -5 -94 -9 -6 -10 1 -5 24 8 37 -2
41 -15 6 -12 -31 -28 -32 -40 -2 -6 15 -8 -4 -8 -65 0 -47 5 -92 10 -100 6 -8
8 7 5 45 -2 31 -2 57 1 57 3 0 20 -9 38 -21 33 -20 43 -42 41 -87 -1 -19 -5
-22 -28 -17 -29 7 -43 -12 -32 -42 5 -12 2 -15 -9 -10 -22 8 -25 -17 -18 -143
3 -58 3 -107 -1 -110 -3 -3 -9 -31 -13 -62 -3 -31 -11 -69 -18 -85 l-11 -28
-8 45 c-14 77 -19 90 -33 90 -10 0 -15 -23 -20 -80 -8 -88 -20 -103 -31 -38
-4 24 -13 59 -20 78 -14 43 -1 120 21 120 8 0 14 4 14 10 0 5 -6 7 -13 5 -9
-4 -13 71 -14 355 l-3 360 25 0 c22 0 25 -4 23 -39z m42 -1 c0 -28 -4 -40 -14
-40 -8 0 -13 8 -11 18 2 9 4 27 4 40 2 40 21 23 21 -18z m410 18 c0 -30 -15
-52 -29 -44 -15 9 -14 33 2 51 18 21 27 18 27 -7z m1395 11 c11 -16 1 -19 -13
-3 -7 8 -8 14 -3 14 5 0 13 -5 16 -11z m-1995 -3 c0 -3 -4 -8 -10 -11 -5 -3
-10 -1 -10 4 0 6 5 11 10 11 6 0 10 -2 10 -4z m229 -18 c0 -7 -4 -22 -9 -33
-7 -17 -9 -15 -9 13 -1 17 4 32 9 32 6 0 10 -6 9 -12z m1551 -5 c0 10 8 17 20
17 16 0 20 -7 20 -31 0 -23 -4 -30 -17 -28 -39 3 -45 -1 -39 -25 l6 -25 -87 2
c-93 2 -115 15 -63 37 33 14 38 25 14 34 -28 11 -6 22 43 22 33 -1 47 -5 46
-14 -5 -21 19 -13 24 9 6 21 7 21 20 4 12 -17 13 -17 13 -2z m-190 -13 c0 -13
-28 -25 -38 -16 -3 4 0 11 8 16 20 13 30 12 30 0z m-732 -19 c3 -8 -1 -12 -9
-9 -7 2 -15 10 -17 17 -3 8 1 12 9 9 7 -2 15 -10 17 -17z m1262 15 c0 -3 -4
-8 -10 -11 -5 -3 -10 -1 -10 4 0 6 5 11 10 11 6 0 10 -2 10 -4z m-2110 -66 c0
-5 -4 -10 -10 -10 -5 0 -10 5 -10 10 0 6 5 10 10 10 6 0 10 -4 10 -10z m1260
-170 c0 -5 -4 -10 -10 -10 -5 0 -10 5 -10 10 0 6 5 10 10 10 6 0 10 -4 10 -10z
m-965 -367 c3 -13 12 -23 20 -23 19 0 20 -44 1 -59 -11 -9 -18 -8 -30 4 -9 9
-16 21 -16 26 0 6 -4 8 -10 4 -14 -8 -11 127 3 144 9 11 13 5 19 -30 4 -24 10
-54 13 -66z m33 55 c-11 -6 -10 -10 1 -17 9 -6 11 -16 6 -27 -7 -18 -8 -18
-15 1 -5 11 -9 33 -9 49 -1 25 1 27 14 16 13 -11 13 -15 3 -22z m1942 -125 c0
-42 -2 -74 -4 -72 -2 2 -6 39 -10 82 -5 54 -4 77 4 72 5 -3 10 -40 10 -82z
m-2203 -40 c-3 -10 -5 -4 -5 12 0 17 2 24 5 18 2 -7 2 -21 0 -30z m-772 -20
c3 -14 5 -55 4 -90 -1 -35 1 -66 4 -70 4 -3 8 2 8 13 1 12 4 7 9 -11 7 -27 8
-24 10 20 1 28 4 44 7 37 2 -6 9 -10 14 -6 5 3 9 -7 9 -21 0 -15 -4 -24 -10
-20 -14 9 -12 -13 5 -73 12 -38 16 -108 17 -279 2 -256 0 -305 -16 -315 -21
-14 -28 -8 -22 19 12 52 24 186 19 200 -12 30 -23 -3 -23 -67 0 -58 -3 -68
-15 -64 -12 5 -15 -4 -16 -47 l-1 -54 -8 40 c-7 38 5 89 20 80 7 -4 15 73 26
240 3 39 6 79 7 90 1 14 -4 20 -15 19 -10 -1 -18 4 -18 12 0 8 6 11 15 8 13
-5 14 0 9 31 -4 28 -3 35 7 30 9 -6 10 -2 6 16 -4 13 -7 29 -7 36 0 7 -7 10
-16 6 -12 -5 -14 -16 -9 -57 5 -44 4 -48 -7 -31 -7 11 -13 31 -14 45 0 14 -9
78 -19 142 -9 64 -15 124 -12 133 10 23 24 18 32 -12z m93 -4 c-8 -23 -13 -27
-19 -17 -15 24 -10 48 10 48 18 0 19 -3 9 -31z m672 -19 c-4 -3 -9 -9 -9 -15
-6 -56 -34 -56 -42 0 -8 52 -4 57 31 37 16 -9 25 -19 20 -22z m1790 -4 c0 -2
-13 -9 -30 -15 -16 -5 -30 -6 -30 -1 0 5 8 11 18 13 24 7 42 8 42 3z m60 -30
c0 -2 -6 -9 -13 -15 -10 -8 -14 -7 -14 4 0 8 6 15 14 15 7 0 13 -2 13 -4z
m-132 -36 c3 -9 -1 -11 -12 -7 -9 4 -15 2 -13 -6 1 -7 -4 -11 -12 -9 -12 3
-12 0 -2 -12 7 -9 11 -22 7 -31 -3 -9 3 -19 14 -25 26 -14 28 -13 22 16 -3 19
-7 22 -13 12 -7 -11 -9 -11 -9 0 0 7 7 20 15 28 13 14 16 13 21 -3 3 -10 12
-32 20 -50 8 -18 14 -64 14 -111 0 -72 -2 -81 -20 -87 -13 -4 -20 -14 -19 -28
4 -47 -1 -127 -8 -127 -5 0 -7 72 -5 161 l3 160 -23 -12 c-13 -7 -24 -12 -25
-11 -9 6 -45 1 -39 -5 4 -4 23 -6 43 -5 29 2 34 0 29 -13 -3 -9 -6 -21 -6 -26
0 -5 -11 -9 -25 -9 -14 0 -25 4 -25 9 0 4 -17 6 -38 4 -23 -2 -45 2 -57 11
-19 14 -17 15 23 16 23 0 42 5 42 10 0 7 -17 9 -45 6 -35 -4 -45 -2 -45 9 0 8
12 15 28 17 17 2 26 8 24 17 -2 8 3 18 10 23 8 6 0 8 -24 6 -34 -4 -38 -2 -38
19 0 28 -5 29 -37 3 -24 -19 -26 -19 -39 -3 -13 17 -13 17 -14 0 0 -10 -10
-22 -22 -27 l-23 -9 25 0 c32 -1 15 -18 -25 -24 -22 -4 -17 -5 15 -5 72 0 74
-1 63 -14 -6 -7 -13 -25 -15 -40 -6 -31 11 -38 31 -14 11 13 15 12 32 -5 10
-10 19 -23 19 -28 0 -4 37 -6 81 -4 l81 3 -5 -62 c-3 -35 -10 -81 -15 -103
l-10 -40 -1 46 c-2 69 -12 109 -27 109 -8 0 -14 -9 -14 -20 0 -14 -7 -20 -22
-21 l-23 -2 23 -4 c24 -5 26 -15 13 -78 -6 -28 -9 -32 -10 -15 -2 44 -13 70
-28 70 -12 0 -14 7 -10 29 3 16 4 31 1 34 -10 9 -34 -4 -34 -19 0 -8 -10 -14
-22 -14 -13 0 -30 -5 -38 -10 -12 -8 -12 -10 5 -10 19 -1 19 -2 -3 -20 -16
-14 -25 -33 -28 -62 l-4 -43 14 29 c12 27 14 28 20 10 8 -25 5 -134 -3 -134
-3 0 -5 -38 -3 -85 l3 -85 -30 0 c-17 0 -31 5 -31 10 0 6 -5 10 -11 10 -5 0
-7 -6 -3 -12 6 -10 5 -10 -7 -1 -20 16 -27 302 -8 314 7 4 14 24 14 43 l2 36
-49 1 c-26 1 -52 3 -58 4 -5 1 -14 3 -18 4 -4 0 -6 17 -4 36 l4 36 52 -2 c28
0 78 2 110 7 44 5 57 4 52 -4 -10 -17 3 -15 21 4 14 13 14 17 2 24 -7 5 -18 5
-24 0 -17 -14 -220 -7 -217 8 1 6 -2 12 -8 12 -5 0 -10 -6 -10 -14 0 -7 -9
-16 -20 -19 -13 -3 -20 0 -20 10 0 8 4 11 10 8 6 -3 7 1 4 9 -4 12 0 16 17 17
22 1 52 3 149 8 29 2 32 4 15 11 -11 4 -59 6 -107 3 -54 -3 -88 -1 -88 5 0 5
9 12 20 15 11 3 20 10 20 16 0 6 -9 11 -20 11 -11 0 -20 4 -20 10 0 5 7 7 15
4 22 -9 44 13 37 38 -3 13 -1 19 5 15 6 -4 19 3 29 14 13 15 29 19 63 18 49
-2 133 6 220 21 30 6 56 10 57 10 1 0 5 -8 7 -17 4 -14 5 -13 6 4 1 18 5 20
28 14 15 -4 29 -13 31 -21z m62 19 c0 6 5 11 11 11 5 0 8 -4 5 -9 -9 -15 22
-33 44 -26 15 5 26 0 40 -17 21 -24 27 -83 10 -93 -11 -7 -13 2 -11 50 0 17
-2 23 -6 15 -3 -8 -16 -27 -29 -42 -22 -27 -23 -27 -29 -7 -5 14 -13 19 -26
16 -16 -4 -19 0 -19 30 0 19 -4 32 -9 29 -4 -3 -13 5 -19 19 -12 27 3 40 26
22 8 -6 12 -6 12 2z m-1802 -50 c-3 -8 -7 -3 -11 10 -4 17 -3 21 5 13 5 -5 8
-16 6 -23z m148 -74 c3 -16 7 -139 9 -273 3 -227 2 -243 -15 -252 -31 -17 -33
-12 -26 63 12 131 17 162 27 165 12 5 12 32 0 32 -5 0 -15 -9 -22 -21 -12 -17
-13 8 -8 178 3 109 7 200 8 203 4 6 20 -52 27 -95z m982 65 c-5 -44 -48 -57
-48 -15 0 14 -5 25 -10 25 -6 0 -15 -11 -20 -25 -12 -32 -28 -32 -40 1 -15 39
-15 39 55 39 64 0 66 -1 63 -25z m-1089 10 c1 -3 5 -19 10 -37 7 -22 6 -33 -2
-36 -8 -3 -7 -9 5 -18 17 -14 22 -45 33 -187 l7 -84 -24 13 c-12 7 -26 12 -30
11 -5 -1 -8 3 -8 8 0 6 7 10 16 10 9 0 14 5 12 10 -1 6 -7 9 -11 8 -4 -2 -11
3 -16 10 -10 16 -15 261 -5 285 6 17 11 19 13 7z m411 -24 c0 -12 6 -28 13
-34 8 -9 13 -62 16 -172 l3 -160 -31 0 -31 0 0 74 c0 67 2 74 23 81 22 8 22 8
-4 12 -25 4 -25 6 -28 92 -2 88 11 147 29 136 5 -3 10 -16 10 -29z m808 28
c26 -7 32 -54 7 -54 -8 0 -15 7 -15 15 0 8 -7 15 -15 15 -8 0 -15 7 -15 15 0
17 4 18 38 9z m686 -48 c2 -15 -1 -29 -5 -32 -5 -3 -9 12 -9 32 0 41 10 41 14
0z m-2467 2 c-3 -8 -6 -5 -6 6 -1 11 2 17 5 13 3 -3 4 -12 1 -19z m423 0 c0
-16 -3 -19 -11 -11 -6 6 -8 16 -5 22 11 17 16 13 16 -11z m1100 12 c0 -5 -5
-10 -11 -10 -5 0 -7 5 -4 10 3 6 8 10 11 10 2 0 4 -4 4 -10z m-1185 -129 c14
-162 14 -191 0 -191 -17 0 -26 38 -25 113 0 34 0 71 -1 82 0 11 1 43 2 70 1
44 2 47 10 21 4 -16 11 -59 14 -95z m-615 64 c0 -19 4 -36 9 -39 9 -6 19 -90
26 -225 2 -40 0 -69 -4 -65 -9 10 -31 183 -31 244 0 25 -4 39 -10 35 -6 -4
-10 13 -10 45 0 32 4 49 10 45 6 -3 10 -21 10 -40z m1800 14 c0 -5 -4 -9 -10
-9 -5 0 -10 7 -10 16 0 8 5 12 10 9 6 -3 10 -10 10 -16z m40 -14 c0 -36 -13
-47 -24 -19 -11 28 -6 54 9 54 10 0 15 -11 15 -35z m83 29 c9 -10 -4 -34 -19
-34 -8 0 -14 -4 -14 -10 0 -5 8 -10 18 -10 14 0 15 -2 2 -10 -25 -16 -30 -12
-30 30 0 32 4 40 18 40 10 0 21 -3 25 -6z m-1635 -44 c1 -16 -2 -30 -8 -30 -5
0 -10 14 -10 30 0 17 4 30 8 30 4 0 9 -13 10 -30z m413 13 c13 -16 12 -17 -3
-4 -10 7 -18 15 -18 17 0 8 8 3 21 -13z m186 -15 c-3 -7 -5 -2 -5 12 0 14 2
19 5 13 2 -7 2 -19 0 -25z m2000 10 c-3 -8 -6 -5 -6 6 -1 11 2 17 5 13 3 -3 4
-12 1 -19z m-2637 -8 c0 -11 -2 -20 -5 -20 -2 0 -9 9 -15 20 -9 16 -8 20 5 20
8 0 15 -9 15 -20z m2367 -32 c-3 -7 -5 -2 -5 12 0 14 2 19 5 13 2 -7 2 -19 0
-25z m190 10 c-3 -8 -6 -5 -6 6 -1 11 2 17 5 13 3 -3 4 -12 1 -19z m-1473 -30
c6 -55 4 -88 -6 -88 -4 0 -8 -4 -8 -10 0 -5 6 -10 14 -10 10 0 14 -21 15 -87
1 -72 -1 -84 -11 -68 -6 11 -18 27 -26 35 -12 11 -13 35 -8 125 3 60 6 118 6
128 0 35 19 16 24 -25z m226 -55 c0 -2 -9 -3 -20 -3 -11 0 -20 6 -20 13 0 7
-10 13 -22 12 -36 0 -36 20 0 23 27 3 32 7 33 30 0 19 4 13 14 -23 8 -27 14
-51 15 -52z m150 87 c0 -5 -2 -10 -4 -10 -3 0 -8 5 -11 10 -3 6 -1 10 4 10 6
0 11 -4 11 -10z m1034 -5 c-4 -8 -8 -15 -10 -15 -2 0 -4 7 -4 15 0 8 4 15 10
15 5 0 7 -7 4 -15z m-2597 -17 c-3 -8 -6 -5 -6 6 -1 11 2 17 5 13 3 -3 4 -12
1 -19z m638 -6 c3 -9 9 -52 12 -96 5 -59 3 -77 -5 -72 -7 4 -12 14 -12 22 0 8
-6 17 -13 20 -8 3 -14 30 -16 79 -2 63 0 74 13 69 8 -3 17 -13 21 -22z m211 1
c-2 -16 -4 -61 -5 -102 0 -41 -3 -72 -5 -70 -8 8 -18 178 -11 188 12 20 24 11
21 -16z m2008 -15 c4 -22 3 -38 -2 -38 -12 0 -24 58 -16 72 8 13 10 9 18 -34z
m-2788 14 c3 4 13 1 21 -7 10 -10 13 -33 11 -77 l-4 -63 -14 33 c-15 32 -24
39 -34 23 -3 -5 3 -20 14 -34 25 -31 25 -36 1 -30 -14 3 -21 17 -26 50 -8 53
3 132 16 112 4 -7 11 -10 15 -7z m477 1 c-5 -12 -2 -15 9 -10 13 4 18 -3 23
-33 4 -22 4 -44 0 -50 -3 -5 -3 -10 2 -10 4 0 9 -25 9 -55 2 -62 -18 -76 -37
-27 -14 34 -21 202 -9 202 5 0 6 -8 3 -17z m344 -59 c-2 -13 0 -24 6 -24 5 0
4 -7 -3 -15 -9 -10 -9 -15 -1 -15 6 0 11 -7 11 -15 0 -8 -4 -15 -10 -15 -5 0
-10 -7 -10 -15 0 -8 5 -15 10 -15 6 0 10 -5 10 -11 0 -6 -7 -9 -15 -5 -12 4
-13 -3 -8 -42 3 -26 9 -49 13 -52 4 -3 8 -40 9 -82 1 -77 1 -78 -24 -78 -16 0
-25 6 -25 16 0 11 6 14 20 9 15 -5 18 -3 14 9 -3 9 -12 16 -19 16 -9 0 -11 8
-7 24 4 14 5 80 2 148 -3 68 -4 150 -2 183 l3 60 16 -29 c8 -15 13 -39 10 -52z
m71 41 c2 -27 -1 -35 -14 -35 -11 0 -14 5 -10 16 3 9 6 24 6 35 0 34 16 20 18
-16z m535 19 c28 7 57 -1 57 -15 0 -4 -7 -6 -15 -3 -11 5 -15 -1 -15 -20 0
-25 -3 -26 -50 -26 -43 0 -50 3 -50 20 0 26 32 64 41 48 4 -6 18 -8 32 -4z
m1220 -28 c15 2 17 -10 17 -100 0 -69 -3 -96 -10 -86 -5 8 -10 51 -10 94 0 96
-11 95 -13 -1 -3 -115 -22 -90 -25 32 -2 96 0 107 11 85 7 -14 21 -24 30 -24z
m-1472 15 c0 8 4 6 9 -6 14 -33 11 -42 -15 -47 -14 -3 -25 -2 -25 2 0 4 -3 23
-7 41 l-6 34 21 -19 c17 -15 22 -16 23 -5z m339 -2 c0 -5 -4 -9 -10 -9 -5 0
-10 7 -10 16 0 8 5 12 10 9 6 -3 10 -10 10 -16z m70 6 c0 -8 -7 -15 -15 -15
-9 0 -12 6 -9 15 4 8 10 15 15 15 5 0 9 -7 9 -15z m115 -15 c0 -16 -6 -26 -17
-28 -14 -3 -18 3 -18 28 0 25 4 31 18 28 11 -2 17 -12 17 -28z m55 26 c0 -3
-4 -8 -10 -11 -5 -3 -10 -1 -10 4 0 6 5 11 10 11 6 0 10 -2 10 -4z m45 -18 c8
-30 1 -140 -9 -156 -4 -6 -15 -12 -25 -12 -14 0 -21 -12 -28 -52 l-10 -53 -2
73 c-1 66 1 73 21 81 l22 8 -24 6 c-16 4 -21 11 -16 22 3 9 6 31 7 48 0 18 3
26 6 20 2 -7 14 -12 26 -12 17 1 18 2 5 6 -14 4 -16 8 -8 24 14 25 28 24 35
-3z m-1717 -59 c4 -41 2 -51 -9 -47 -9 3 -15 24 -17 64 -4 76 18 61 26 -17z
m1542 45 c0 -13 -5 -26 -11 -30 -6 -4 -9 1 -8 12 2 11 0 24 -3 30 -4 6 -1 11
7 11 9 0 15 -10 15 -23z m778 -76 c1 -61 -2 -88 -8 -78 -12 19 -13 183 -1 176
4 -3 9 -47 9 -98z m298 28 c4 -64 -9 -92 -19 -40 -5 28 3 117 10 110 3 -3 7
-34 9 -70z m44 43 c0 -11 -4 -17 -10 -14 -5 3 -10 15 -10 26 0 11 5 17 10 14
6 -3 10 -15 10 -26z m-301 -9 c1 17 4 21 12 13 11 -11 2 -52 -22 -108 -7 -15
-8 -12 -4 11 3 17 2 41 -3 55 -5 13 -6 33 -3 44 4 17 6 15 12 -10 6 -27 7 -27
8 -5z m-2499 8 c10 -68 10 -118 1 -118 -6 0 -11 18 -11 44 0 24 -3 51 -6 60
-3 9 -1 16 5 16 6 0 11 -1 11 -2z m907 -20 c-3 -8 -6 -5 -6 6 -1 11 2 17 5 13
3 -3 4 -12 1 -19z m731 -2 c2 -11 -3 -16 -17 -16 -12 0 -21 5 -21 11 0 10 -20
8 -73 -7 -16 -5 -17 -3 -7 16 10 18 18 20 63 17 38 -3 53 -9 55 -21z m899 -18
c-3 -7 -5 -2 -5 12 0 14 2 19 5 13 2 -7 2 -19 0 -25z m-615 -19 c-3 -30 -8
-39 -19 -35 -8 3 -17 6 -19 6 -2 0 -4 16 -4 35 0 30 3 35 23 35 20 0 22 -4 19
-41z m936 -54 c0 -43 -1 -46 -8 -20 -11 44 -11 116 0 90 5 -11 8 -42 8 -70z
m-1900 20 c3 -46 0 -55 -14 -55 -13 0 -14 3 -5 14 8 9 8 15 2 18 -6 1 -13 17
-17 35 -5 25 -3 32 12 36 11 3 19 5 19 6 0 0 1 -24 3 -54z m302 25 c0 -11 -5
-22 -11 -25 -6 -4 -8 -14 -5 -22 3 -8 1 -11 -4 -8 -6 3 -10 12 -10 19 0 8 -7
19 -15 26 -20 16 -19 28 3 32 26 6 42 -2 42 -22z m233 23 c-7 -2 -19 -2 -25 0
-7 3 -2 5 12 5 14 0 19 -2 13 -5z m259 -19 c-5 -26 -8 -28 -29 -19 -12 5 -14
9 -5 12 6 3 12 11 12 20 0 8 6 13 13 10 6 -2 10 -13 9 -23z m835 -6 c-3 -7 -5
-2 -5 12 0 14 2 19 5 13 2 -7 2 -19 0 -25z m224 -39 c3 -35 1 -44 -13 -47 -16
-3 -18 5 -18 58 0 53 2 59 14 47 8 -7 16 -33 17 -58z m-2968 -48 c-7 -9 -11 6
-16 59 l-6 55 13 -55 c7 -30 11 -57 9 -59z m1499 102 c-10 -4 -10 -8 -1 -19 6
-8 9 -14 7 -14 -3 0 -2 -19 3 -42 7 -43 -8 -118 -24 -118 -5 0 -6 8 -3 18 3 9
7 34 10 54 4 30 1 38 -15 43 -10 4 -23 3 -29 0 -6 -4 -10 11 -10 39 l0 46 38
-1 c20 0 31 -3 24 -6z m207 -2 c29 -18 -41 -27 -104 -13 -26 6 -23 7 25 13 30
3 57 6 60 7 3 1 11 -2 19 -7z m91 -11 c0 -23 -10 -26 -28 -8 -18 18 -15 28 8
28 13 0 20 -7 20 -20z m44 4 c9 -22 8 -24 -9 -24 -8 0 -15 9 -15 20 0 24 15
27 24 4z m-1767 -41 c-3 -10 -5 -2 -5 17 0 19 2 27 5 18 2 -10 2 -26 0 -35z
m1481 -169 c-3 -113 -8 -208 -12 -211 -3 -4 -6 52 -6 123 0 71 -3 166 -7 212
-5 74 -4 82 12 82 17 0 17 -13 13 -206z m138 175 c3 -6 2 -14 -3 -18 -6 -3
-10 -17 -9 -30 1 -15 -5 -25 -15 -26 -9 -2 -26 -6 -37 -9 -16 -6 -21 -1 -26
29 -4 19 -11 35 -16 35 -6 0 -10 7 -10 15 0 11 13 15 54 15 30 0 58 -5 62 -11z
m54 -4 c0 -8 -4 -15 -9 -15 -13 0 -22 16 -14 24 11 11 23 6 23 -9z m-1443 -32
c-3 -10 -5 -4 -5 12 0 17 2 24 5 18 2 -7 2 -21 0 -30z m1493 33 c0 -11 -19
-15 -25 -6 -3 5 1 10 9 10 9 0 16 -2 16 -4z m110 -6 c0 -5 -5 -10 -11 -10 -8
0 -8 -4 0 -14 12 -14 5 -46 -10 -46 -5 0 -9 6 -10 13 0 6 -3 24 -5 40 -4 22
-1 27 16 27 11 0 20 -4 20 -10z m667 -42 c-2 -13 -4 -5 -4 17 -1 22 1 32 4 23
2 -10 2 -28 0 -40z m154 -5 c0 -32 2 -83 5 -113 10 -92 5 -208 -8 -216 -5 -4
-6 32 -2 82 5 64 4 85 -5 80 -8 -5 -11 9 -11 47 0 63 11 177 17 177 2 0 4 -26
4 -57z m-569 31 c-11 -19 -4 -54 9 -54 15 0 11 -200 -3 -201 -10 0 -10 -2 0
-6 7 -3 12 -23 12 -49 0 -28 -4 -43 -10 -39 -5 3 -10 15 -10 26 0 12 -4 17
-11 13 -6 -3 -9 -15 -6 -25 3 -10 1 -22 -5 -25 -6 -4 -8 46 -5 138 5 167 0
218 -20 218 -8 0 -11 5 -8 10 3 6 20 10 36 10 25 0 28 -3 21 -16z m48 -16 c0
-17 -3 -28 -7 -25 -9 10 -10 57 -1 57 4 0 8 -14 8 -32z m-2043 -50 c1 -37 -1
-47 -7 -33 -11 25 -13 98 -2 91 4 -2 8 -28 9 -58z m1683 30 c0 -23 -3 -29 -9
-19 -8 12 -4 51 5 51 2 0 4 -15 4 -32z m610 -102 c-8 -8 -10 1 -6 34 2 25 6
59 7 75 2 17 4 1 6 -34 3 -39 0 -68 -7 -75z m-1060 108 c0 -2 -7 -4 -15 -4 -8
0 -15 4 -15 10 0 5 7 7 15 4 8 -4 15 -8 15 -10z m403 -9 c-7 -21 -13 -19 -13
6 0 11 4 18 10 14 5 -3 7 -12 3 -20z m-1253 -5 c0 -11 -4 -20 -10 -20 -5 0
-10 9 -10 20 0 11 5 20 10 20 6 0 10 -9 10 -20z m-80 -6 c0 -8 -4 -12 -10 -9
-5 3 -10 10 -10 16 0 5 5 9 10 9 6 0 10 -7 10 -16z m1283 -4 c-3 -11 -7 -20
-9 -20 -2 0 -4 9 -4 20 0 11 4 20 9 20 5 0 7 -9 4 -20z m-1443 -25 c0 -19 -4
-35 -10 -35 -6 0 -6 -9 0 -25 16 -41 9 -93 -12 -98 -10 -3 -20 -2 -21 1 -2 4
2 43 8 87 7 44 10 86 7 93 -2 6 3 12 12 12 12 0 16 -10 16 -35z m1710 -51 c0
-47 -4 -83 -8 -80 -13 8 -15 166 -2 166 6 0 10 -33 10 -86z m497 54 c-3 -7 -5
-2 -5 12 0 14 2 19 5 13 2 -7 2 -19 0 -25z m-2269 -56 c3 -54 0 -72 -10 -72
-7 0 -24 -3 -37 -7 -19 -5 -22 -2 -19 13 2 10 10 19 18 19 8 0 16 8 18 18 2 9
-1 17 -7 17 -6 0 -11 -5 -11 -12 0 -17 -13 0 -17 21 -1 11 7 23 20 29 20 9 20
11 3 11 -19 1 -19 2 -1 21 29 32 40 18 43 -58z m377 14 c7 -61 -1 -136 -14
-136 -9 0 -12 179 -4 193 8 13 10 5 18 -57z m254 -10 c1 -22 -4 -79 -10 -128
-11 -87 -12 -88 -31 -71 -11 10 -15 19 -9 21 15 5 14 29 -1 35 -10 4 -10 8 1
15 10 7 10 11 1 17 -15 9 -4 107 17 155 14 31 17 32 24 15 4 -11 8 -38 8 -59z
m1701 52 c0 -18 -2 -20 -9 -8 -6 8 -7 18 -5 22 9 14 14 9 14 -14z m-940 -29
c-6 -18 -10 -52 -11 -74 0 -22 -4 -49 -9 -60 -6 -13 -8 9 -8 63 1 59 5 88 16
98 20 21 23 13 12 -27z m133 -33 c1 -37 -1 -70 -5 -72 -4 -3 -8 30 -8 72 0 94
8 94 13 0z m117 43 c0 -16 -4 -28 -9 -25 -5 4 -8 14 -6 24 2 9 4 20 4 25 1 4
3 7 6 7 3 0 5 -14 5 -31z m87 -1 c-3 -7 -5 -2 -5 12 0 14 2 19 5 13 2 -7 2
-19 0 -25z m983 28 c0 -3 -4 -8 -10 -11 -5 -3 -10 -1 -10 4 0 6 5 11 10 11 6
0 10 -2 10 -4z m-2242 -150 c-2 -46 -7 -60 -20 -64 -15 -4 -16 -6 -2 -27 11
-17 12 -29 4 -49 -13 -35 -13 -36 6 -36 10 0 14 6 10 15 -3 8 -1 15 4 15 6 0
10 -5 10 -11 0 -6 7 -3 16 5 18 18 34 21 34 6 0 -5 -4 -10 -10 -10 -5 0 -10
-5 -10 -11 0 -7 10 -9 25 -7 19 4 23 2 15 -7 -9 -11 -59 -13 -192 -7 -37 2
-37 3 -32 35 4 17 13 37 21 43 10 9 11 13 2 16 -14 5 -3 48 13 48 10 0 8 -67
-3 -110 -3 -11 6 -16 35 -18 24 -2 36 0 32 7 -4 6 -13 8 -22 4 -16 -6 -16 -5
9 100 6 26 15 47 21 47 6 0 6 4 0 10 -11 11 -9 81 3 130 5 23 7 21 20 -20 7
-25 12 -72 11 -104z m745 57 c-7 -65 -22 -61 -18 4 6 93 5 91 14 68 5 -11 6
-44 4 -72z m259 64 c5 -27 0 -47 -13 -47 -5 0 -9 16 -9 35 0 39 15 48 22 12z
m127 -44 c-1 -38 -5 -60 -8 -49 -6 15 -6 43 -2 109 1 4 3 7 6 7 3 0 4 -30 4
-67z m519 14 c2 -26 -1 -47 -7 -47 -5 0 -12 -13 -16 -30 -10 -47 -25 -35 -24
20 1 27 6 47 10 44 8 -4 14 35 10 59 -1 5 4 7 11 5 8 -3 14 -25 16 -51z m658
38 c-4 -24 -16 -30 -16 -7 0 12 4 22 9 22 5 0 8 -7 7 -15z m-2458 -74 c2 -58
-1 -77 -14 -92 -18 -20 -44 -26 -44 -10 0 5 10 16 23 25 l22 17 -22 -5 c-24
-4 -25 -1 -28 61 0 17 3 29 8 26 5 -3 6 4 2 16 -9 28 2 43 28 39 20 -3 22 -10
25 -77z m172 63 c0 -8 -5 -12 -10 -9 -6 4 -8 11 -5 16 9 14 15 11 15 -7z m933
-37 c-10 -17 -20 4 -15 30 l6 28 6 -25 c4 -14 5 -28 3 -33z m398 20 c-8 -8
-11 -7 -11 4 0 20 13 34 18 19 3 -7 -1 -17 -7 -23z m49 -53 c0 -57 -3 -74 -14
-74 -11 0 -14 13 -11 53 1 28 3 65 4 80 0 16 5 26 11 22 6 -3 10 -40 10 -81z
m291 9 c-9 -16 -10 -15 -11 7 0 14 4 36 8 50 7 24 7 24 10 -7 2 -18 -1 -41 -7
-50z m-602 -20 c0 -18 -3 -33 -9 -33 -6 0 -9 27 -9 63 1 49 3 56 9 32 4 -16 8
-45 9 -62z m98 50 c-3 -10 -5 -4 -5 12 0 17 2 24 5 18 2 -7 2 -21 0 -30z m140
-10 c-3 -10 -5 -2 -5 17 0 19 2 27 5 18 2 -10 2 -26 0 -35z m573 11 c0 -21 -4
-33 -10 -29 -17 10 -11 65 7 65 2 0 3 -16 3 -36z m-1826 4 c9 -34 7 -111 -3
-127 -18 -28 -31 1 -31 68 0 37 3 71 7 74 12 12 21 7 27 -15z m193 -40 c-2
-13 -4 -3 -4 22 0 25 2 35 4 23 2 -13 2 -33 0 -45z m529 -75 c-3 -8 -10 -11
-16 -8 -10 6 -8 40 7 110 8 39 8 39 11 -24 2 -35 1 -70 -2 -78z m1001 115 c-3
-8 -6 -5 -6 6 -1 11 2 17 5 13 3 -3 4 -12 1 -19z m413 -20 c0 -4 -7 -8 -15 -8
-10 0 -15 10 -15 28 1 26 1 26 15 8 8 -11 15 -23 15 -28z m-2863 -1 c2 -23 0
-28 -7 -17 -12 18 -13 50 -2 50 4 0 8 -15 9 -33z m1188 10 c4 13 11 21 15 18
7 -5 5 -84 -6 -193 -5 -51 -7 -53 -32 -50 -19 2 -26 8 -23 18 3 8 7 41 9 73 2
31 8 57 13 57 5 0 9 9 9 20 0 11 -4 20 -10 20 -12 0 -14 43 -3 54 5 4 11 -3
15 -16 l6 -23 7 22z m71 -104 c-7 -95 -18 -144 -28 -127 -3 5 -1 64 5 132 8
88 13 118 20 106 6 -10 7 -56 3 -111z m1251 95 c-3 -7 -5 -2 -5 12 0 14 2 19
5 13 2 -7 2 -19 0 -25z m260 -35 c-2 -16 -4 -5 -4 22 0 28 2 40 4 28 2 -13 2
-35 0 -50z m47 -8 c-2 -22 -4 -68 -4 -102 0 -35 -5 -63 -10 -63 -9 0 -17 108
-10 135 1 6 5 32 8 60 6 60 20 33 16 -30z m106 20 c0 -16 -5 -37 -10 -45 -8
-12 -10 -11 -10 8 0 12 -5 21 -11 20 -6 -2 -12 11 -14 29 -2 23 2 33 14 35 21
5 31 -10 31 -47z m-1860 8 c0 -46 -11 -65 -29 -54 -10 7 -10 16 0 50 15 51 29
53 29 4z m280 -10 c0 -12 -4 -25 -10 -28 -6 -4 -10 11 -10 37 0 31 3 39 10 28
5 -8 10 -25 10 -37z m177 -45 c-2 -18 -4 -4 -4 32 0 36 2 50 4 33 2 -18 2 -48
0 -65z m393 72 c0 -11 -4 -20 -9 -20 -5 0 -7 9 -4 20 3 11 7 20 9 20 2 0 4 -9
4 -20z m-33 -42 c-2 -13 -4 -5 -4 17 -1 22 1 32 4 23 2 -10 2 -28 0 -40z m600
-55 c-2 -21 -4 -4 -4 37 0 41 2 58 4 38 2 -21 2 -55 0 -75z m480 40 c-2 -16
-4 -5 -4 22 0 28 2 40 4 28 2 -13 2 -35 0 -50z m-1316 10 c-10 -17 -10 -16
-11 3 0 23 13 41 18 25 2 -6 -1 -18 -7 -28z m-40 20 c0 -5 3 -52 5 -106 l6
-98 -29 4 c-23 3 -27 9 -25 27 1 13 9 37 16 52 9 18 12 38 7 56 -8 33 -3 72
10 72 5 0 9 -3 10 -7z m236 -25 c-3 -7 -5 -2 -5 12 0 14 2 19 5 13 2 -7 2 -19
0 -25z m168 12 c-2 -27 -15 -38 -15 -13 0 16 8 33 15 33 1 0 1 -9 0 -20z
m-2045 -11 c0 -5 -4 -9 -10 -9 -5 0 -10 7 -10 16 0 8 5 12 10 9 6 -3 10 -10
10 -16z m37 -36 c-3 -10 -5 -2 -5 17 0 19 2 27 5 18 2 -10 2 -26 0 -35z m1810
10 c-3 -10 -5 -4 -5 12 0 17 2 24 5 18 2 -7 2 -21 0 -30z m103 -3 c0 -22 -4
-40 -10 -40 -5 0 -8 10 -6 23 3 12 5 30 5 40 2 35 11 16 11 -23z m649 -22 c1
-16 -3 -28 -9 -28 -5 0 -10 21 -9 48 0 35 3 42 9 27 5 -11 9 -32 9 -47z m-216
27 c-7 -21 -13 -19 -13 6 0 11 4 18 10 14 5 -3 7 -12 3 -20z m57 -25 c0 -14
-5 -32 -10 -40 -7 -11 -10 1 -10 40 0 39 3 51 10 40 5 -8 10 -26 10 -40z
m-1483 18 c-3 -8 -6 -5 -6 6 -1 11 2 17 5 13 3 -3 4 -12 1 -19z m1534 -41 c-8
-8 -11 0 -10 29 1 39 1 39 11 11 7 -21 7 -32 -1 -40z m-2494 16 c-3 -10 -5 -4
-5 12 0 17 2 24 5 18 2 -7 2 -21 0 -30z m1993 -9 c0 -8 -4 -12 -10 -9 -5 3
-10 13 -10 21 0 8 5 12 10 9 6 -3 10 -13 10 -21z m805 -92 c-8 -23 -22 -4 -23
30 -1 18 1 47 5 63 6 27 8 24 15 -25 4 -30 5 -61 3 -68z m-2525 76 c0 -12 -3
-18 -7 -15 -3 4 -12 2 -20 -5 -20 -16 -25 -5 -7 20 19 28 34 28 34 0z m767 0
c-3 -8 -6 -5 -6 6 -1 11 2 17 5 13 3 -3 4 -12 1 -19z m882 0 c-1 -13 -5 -34
-9 -48 -6 -20 -8 -15 -7 23 0 26 4 47 9 47 4 0 8 -10 7 -22z m-72 -40 c-2 -13
-4 -5 -4 17 -1 22 1 32 4 23 2 -10 2 -28 0 -40z m1113 5 c0 -35 -3 -44 -10
-33 -16 25 -11 80 7 80 2 0 3 -21 3 -47z m-1470 25 c0 -24 -12 -58 -20 -58 -4
0 -8 16 -7 35 1 22 6 35 14 35 7 0 13 -6 13 -12z m460 -45 c0 -45 -10 -37 -17
13 -3 25 -1 34 6 30 6 -4 11 -23 11 -43z m575 38 c3 -5 1 -12 -5 -16 -5 -3
-10 1 -10 9 0 18 6 21 15 7z m382 -22 c10 -25 9 -31 -3 -36 -9 -3 -20 -1 -27
6 -8 8 -8 11 2 11 9 0 12 9 9 25 -7 35 5 31 19 -6z m-1487 -15 c0 -19 -4 -33
-8 -30 -8 5 -4 66 4 66 2 0 4 -16 4 -36z m156 -32 c-11 -10 -14 3 -7 38 l6 35
3 -33 c2 -19 1 -36 -2 -40z m204 58 c0 -5 -4 -10 -10 -10 -5 0 -10 5 -10 10 0
6 5 10 10 10 6 0 10 -4 10 -10z m300 -26 c0 -19 -4 -33 -9 -29 -5 3 -8 18 -6
33 4 34 4 32 10 32 3 0 5 -16 5 -36z m250 26 c0 -5 -5 -10 -11 -10 -5 0 -7 5
-4 10 3 6 8 10 11 10 2 0 4 -4 4 -10z m170 -15 c0 -14 -4 -25 -10 -25 -5 0
-10 11 -10 25 0 14 5 25 10 25 6 0 10 -11 10 -25z m100 -17 c0 -32 -3 -39 -10
-28 -13 20 -13 70 0 70 6 0 10 -19 10 -42z m-1690 0 c0 -10 4 -17 8 -14 5 3 9
-2 9 -10 0 -8 -6 -13 -14 -10 -7 3 -13 -1 -13 -10 0 -11 -6 -14 -16 -10 -9 3
-17 6 -18 6 -4 0 4 48 9 67 6 19 35 3 35 -19z m102 -22 c-4 -31 -8 -36 -29
-36 -24 0 -25 2 -18 37 9 50 13 55 34 44 13 -7 16 -19 13 -45z m1428 30 c0
-14 -4 -28 -10 -31 -6 -4 -10 7 -10 24 0 17 5 31 10 31 6 0 10 -11 10 -24z
m-2446 -36 c4 -31 3 -40 -4 -30 -5 8 -10 30 -10 49 0 45 6 37 14 -19z m1156
35 c0 -8 -7 -15 -16 -15 -14 0 -14 3 -4 15 7 8 14 15 16 15 2 0 4 -7 4 -15z
m211 -38 c-8 -8 -11 -4 -11 14 0 33 14 47 18 19 2 -12 -1 -27 -7 -33z m-1181
33 c0 -5 -2 -10 -4 -10 -3 0 -8 5 -11 10 -3 6 -1 10 4 10 6 0 11 -4 11 -10z
m309 -1 c57 -20 36 -65 -33 -67 -37 -1 -38 -1 -22 17 9 9 16 27 16 39 0 26 -2
25 39 11z m961 4 c0 -5 -5 -15 -10 -23 -8 -12 -10 -11 -10 8 0 12 5 22 10 22
6 0 10 -3 10 -7z m257 -25 c-3 -7 -5 -2 -5 12 0 14 2 19 5 13 2 -7 2 -19 0
-25z m633 17 c0 -16 -27 -32 -37 -22 -3 4 -3 13 0 22 8 20 37 20 37 0z m40 -5
c0 -11 -4 -20 -10 -20 -5 0 -10 9 -10 20 0 11 5 20 10 20 6 0 10 -9 10 -20z
m-2214 -18 c-9 -9 -37 8 -31 18 5 8 11 7 21 -1 8 -6 12 -14 10 -17z m82 17
c14 0 13 -2 -3 -9 -29 -12 -32 -12 -39 6 -5 12 -2 15 10 10 8 -3 23 -6 32 -7z
m832 4 c0 -5 -4 -15 -10 -23 -11 -18 -25 -7 -17 15 6 15 27 21 27 8z m897 -15
c-3 -8 -6 -5 -6 6 -1 11 2 17 5 13 3 -3 4 -12 1 -19z m-1142 -27 c-7 -12 -55
11 -55 27 0 9 7 9 30 -3 17 -9 28 -20 25 -24z m905 24 c0 -8 -4 -15 -10 -15
-5 0 -7 7 -4 15 4 8 8 15 10 15 2 0 4 -7 4 -15z m40 -6 c0 -5 -4 -9 -10 -9 -5
0 -10 7 -10 16 0 8 5 12 10 9 6 -3 10 -10 10 -16z m37 -1 c-3 -8 -6 -5 -6 6
-1 11 2 17 5 13 3 -3 4 -12 1 -19z m506 -25 c-7 -2 -21 -2 -30 0 -10 3 -4 5
12 5 17 0 24 -2 18 -5z m-543 -55 c0 -25 -3 -29 -10 -18 -13 20 -13 50 0 50 6
0 10 -15 10 -32z m-470 12 c0 -5 -5 -10 -11 -10 -5 0 -7 5 -4 10 3 6 8 10 11
10 2 0 4 -4 4 -10z"/>
<path d="M1883 2081 c6 -69 17 -77 17 -13 0 28 -5 54 -11 58 -8 4 -9 -9 -6
-45z"/>
<path d="M2282 2015 c0 -16 2 -22 5 -12 2 9 2 23 0 30 -3 6 -5 -1 -5 -18z"/>
<path d="M2303 1949 c-1 -30 2 -47 7 -44 12 7 13 82 3 88 -5 3 -9 -17 -10 -44z"/>
<path d="M1980 1975 c0 -8 5 -15 10 -15 6 0 10 7 10 15 0 8 -4 15 -10 15 -5 0
-10 -7 -10 -15z"/>
<path d="M2030 1936 c0 -14 -4 -28 -10 -31 -12 -8 -13 -25 -1 -25 5 0 14 14
20 31 14 39 14 49 1 49 -5 0 -10 -11 -10 -24z"/>
<path d="M2010 1855 c0 -7 10 -12 23 -11 12 0 20 5 17 11 -7 14 -40 14 -40 0z"/>
<path d="M3101 1854 c0 -11 3 -14 6 -6 3 7 2 16 -1 19 -3 4 -6 -2 -5 -13z"/>
<path d="M1971 1843 c0 -10 4 -27 9 -38 7 -17 9 -15 9 12 1 17 -3 35 -9 38 -5
3 -10 -2 -9 -12z"/>
<path d="M2300 1828 c0 -22 17 -42 24 -29 4 6 2 11 -4 11 -6 0 -9 4 -5 9 3 5
1 12 -5 16 -5 3 -10 0 -10 -7z"/>
<path d="M1885 1820 c3 -5 8 -10 11 -10 2 0 4 5 4 10 0 6 -5 10 -11 10 -5 0
-7 -4 -4 -10z"/>
<path d="M1790 1761 c-7 -15 -7 -21 0 -21 12 0 25 28 17 36 -3 3 -10 -4 -17
-15z"/>
<path d="M2301 1764 c0 -11 3 -14 6 -6 3 7 2 16 -1 19 -3 4 -6 -2 -5 -13z"/>
<path d="M1899 1736 c6 -7 9 -21 5 -30 -4 -11 -1 -16 12 -15 11 0 14 3 8 5 -6
3 -9 16 -6 29 3 19 0 25 -13 25 -14 0 -15 -3 -6 -14z"/>
<path d="M1991 1724 c0 -11 3 -14 6 -6 3 7 2 16 -1 19 -3 4 -6 -2 -5 -13z"/>
<path d="M2355 1710 c-7 -11 9 -11 45 0 24 8 24 8 -7 9 -17 1 -35 -3 -38 -9z"/>
<path d="M1916 1663 c-3 -4 -5 -20 -5 -37 1 -17 3 -23 6 -13 2 9 11 17 19 17
8 0 14 3 14 6 0 11 -28 33 -34 27z"/>
<path d="M3127 1656 c-4 -10 -5 -21 -2 -24 9 -9 17 6 13 25 -3 17 -4 17 -11
-1z"/>
<path d="M1980 1647 c-24 -10 -24 -11 -3 -14 12 -2 24 -12 26 -21 4 -15 5 -15
6 1 1 16 13 22 34 18 40 -7 67 -7 67 0 0 8 -59 14 -84 10 -5 -1 -12 2 -15 7
-4 6 -16 5 -31 -1z"/>
<path d="M1785 1550 c2 -36 6 -73 10 -82 4 -11 3 -18 -4 -18 -6 0 -11 5 -11
11 0 6 -7 4 -15 -5 -16 -15 -20 -46 -7 -46 5 0 13 -12 19 -27 10 -26 11 -26
12 -5 1 25 21 31 21 6 0 -8 5 -12 10 -9 6 3 10 -3 10 -14 0 -29 17 -26 24 4 7
26 20 32 31 15 9 -15 25 -12 19 4 -3 8 0 17 5 21 17 10 3 25 -25 25 -21 0 -24
5 -24 35 0 24 -5 35 -15 35 -9 0 -15 -9 -15 -25 0 -14 -4 -25 -9 -25 -16 0
-18 34 -3 52 13 16 13 18 -2 24 -9 3 -16 16 -17 28 0 11 -4 30 -9 41 -5 13 -7
-4 -5 -45z"/>
<path d="M2946 1572 c2 -54 3 -59 15 -39 10 18 3 77 -9 77 -4 0 -7 -17 -6 -38z"/>
<path d="M3134 1586 c-8 -22 3 -33 18 -18 9 9 9 15 0 24 -9 9 -13 7 -18 -6z"/>
<path d="M1572 1570 c0 -14 2 -19 5 -12 2 6 2 18 0 25 -3 6 -5 1 -5 -13z"/>
<path d="M1653 1545 c3 -27 9 -92 13 -142 4 -51 11 -93 16 -93 5 0 6 15 3 33
-3 17 -9 79 -14 135 -5 57 -13 107 -17 110 -4 4 -4 -15 -1 -43z"/>
<path d="M2200 1571 c0 -25 6 -27 13 -6 4 8 2 17 -3 20 -6 4 -10 -3 -10 -14z"/>
<path d="M2987 1570 c3 -11 7 -20 9 -20 2 0 4 9 4 20 0 11 -4 20 -9 20 -5 0
-7 -9 -4 -20z"/>
<path d="M1551 1554 c0 -11 3 -14 6 -6 3 7 2 16 -1 19 -3 4 -6 -2 -5 -13z"/>
<path d="M1529 1504 c0 -34 -1 -36 -10 -16 -5 13 -14 20 -20 17 -6 -4 -8 -14
-5 -22 4 -9 1 -21 -4 -29 -8 -9 -7 -20 7 -41 32 -50 43 -58 64 -45 16 10 19 9
23 -11 12 -57 14 -114 6 -127 -5 -8 -10 -10 -10 -4 0 12 -34 54 -44 54 -3 0
-6 -8 -6 -17 0 -14 -2 -15 -9 -4 -6 10 -10 10 -16 1 -4 -6 -4 -14 -1 -17 3 -3
-2 -12 -12 -19 -15 -11 -14 -13 11 -25 32 -14 36 -39 6 -39 -11 0 -18 -4 -14
-10 3 -5 12 -7 20 -3 12 4 15 -5 14 -48 0 -42 -3 -50 -10 -34 -8 18 -9 17 -5
-4 3 -13 1 -33 -5 -43 -8 -14 -6 -18 6 -18 13 0 16 -8 14 -34 -2 -19 0 -38 3
-41 4 -4 4 -13 1 -21 -3 -8 0 -14 6 -14 6 0 11 9 11 20 0 11 4 20 10 20 6 0 6
-9 0 -25 -9 -23 -6 -29 13 -26 4 0 7 -3 7 -9 0 -5 7 -10 15 -10 11 0 13 8 8
32 -6 31 -6 31 18 15 43 -31 56 -11 17 25 l-23 20 22 -5 c13 -3 26 -1 29 5 8
12 -16 29 -30 21 -5 -3 -6 -1 -2 6 4 6 12 9 17 6 5 -4 9 1 9 9 0 10 -9 16 -25
16 -15 0 -25 6 -25 14 0 23 18 28 29 9 9 -16 10 -15 11 9 0 22 -4 25 -21 21
-18 -5 -20 -2 -17 32 3 44 28 62 28 20 0 -14 4 -24 8 -21 4 2 7 17 6 33 -1 15
-3 45 -3 66 -1 29 -6 40 -20 44 -21 5 -31 41 -31 114 0 35 -4 49 -14 49 -12 0
-26 20 -26 36 0 14 20 1 21 -13 0 -10 5 -5 9 11 5 16 7 33 5 37 -3 4 2 9 10
13 8 3 15 10 15 17 0 7 -7 8 -17 4 -10 -4 -24 -8 -31 -8 -7 0 -10 -7 -7 -15 3
-8 0 -12 -7 -10 -7 3 -14 17 -15 32 -3 44 -13 44 -14 0z m111 -324 c0 -11 -7
-20 -15 -20 -15 0 -21 21 -8 33 12 13 23 7 23 -13z m-43 -12 c-3 -8 -6 -5 -6
6 -1 11 2 17 5 13 3 -3 4 -12 1 -19z m3 -80 c0 -16 -6 -28 -12 -29 -10 0 -10
-2 0 -6 6 -2 12 -12 12 -20 0 -12 -3 -13 -14 -4 -11 10 -17 8 -25 -6 -10 -17
-10 -17 -12 2 -1 19 -1 83 0 97 1 4 8 5 16 2 9 -4 15 0 15 7 0 11 3 11 10 -1
5 -8 10 -27 10 -42z m20 -99 c0 -15 -18 -19 -23 -6 -3 8 1 14 9 14 8 0 14 -4
14 -8z"/>
<path d="M3001 1524 c0 -11 3 -14 6 -6 3 7 2 16 -1 19 -3 4 -6 -2 -5 -13z"/>
<path d="M2517 1486 c-4 -10 -11 -14 -17 -11 -5 3 -15 -5 -21 -19 -7 -14 -15
-23 -19 -21 -4 3 -16 -3 -27 -13 -16 -14 -19 -26 -14 -72 3 -30 9 -54 14 -52
4 1 11 2 17 2 5 0 9 8 8 18 -2 23 21 82 33 82 5 0 9 -7 9 -15 0 -8 -4 -15 -10
-15 -21 0 -9 -18 20 -30 24 -10 33 -10 45 0 8 7 22 10 30 6 20 -7 19 13 -2 36
-15 17 -15 18 0 18 23 0 22 36 0 46 -10 4 -21 6 -25 6 -5 -1 -8 2 -8 6 0 5 -6
16 -13 26 -13 17 -14 18 -20 2z"/>
<path d="M2820 1484 c0 -8 -16 -22 -35 -31 -36 -17 -43 -27 -26 -38 5 -3 7
-22 4 -43 -5 -35 -4 -36 10 -16 10 13 28 21 48 22 17 0 37 6 42 11 6 6 19 11
28 11 10 0 19 3 22 8 5 9 2 -6 -7 -35 -5 -14 -3 -23 3 -23 6 0 11 -9 11 -20 0
-11 5 -20 11 -20 8 0 10 15 5 46 -3 26 -6 61 -7 78 0 17 -3 25 -6 19 -2 -7
-21 -13 -40 -13 -36 0 -36 0 -18 20 21 23 16 32 -20 36 -16 2 -25 -2 -25 -12z"/>
<path d="M3033 1483 c-4 -10 -12 -22 -20 -26 -7 -4 -13 -14 -13 -21 0 -8 -7
-16 -15 -20 -10 -4 -15 -19 -15 -49 0 -24 -3 -47 -7 -50 -3 -4 -7 -25 -8 -47
-3 -51 -10 -59 -35 -34 -41 41 -50 46 -50 29 0 -9 -6 -15 -12 -12 -8 2 -13 21
-12 47 l1 44 -24 -28 c-15 -18 -22 -35 -18 -47 5 -14 1 -19 -13 -19 -22 0 -32
18 -39 70 -7 51 -19 56 -15 7 3 -38 1 -44 -22 -55 -26 -12 -33 -26 -17 -36 5
-3 11 1 15 9 3 8 12 12 21 9 20 -8 19 -24 -2 -24 -17 -1 -17 -1 0 -11 11 -6
17 -22 17 -44 0 -19 5 -37 11 -41 9 -5 10 4 5 30 -7 35 -6 37 16 34 15 -2 24
-11 26 -25 3 -22 32 -33 32 -13 0 6 10 8 24 4 32 -8 64 3 69 24 4 16 5 16 6 0
0 -10 5 -18 10 -18 5 0 12 -26 16 -57 12 -103 25 -116 19 -18 -9 128 -6 257 6
269 7 7 10 1 10 -18 0 -15 4 -25 9 -22 5 4 12 0 14 -6 3 -7 5 5 4 27 -2 33 1
40 18 43 14 1 24 -7 35 -30 8 -18 20 -34 27 -36 15 -4 21 27 11 57 -7 18 -5
27 7 33 29 17 17 38 -20 38 -31 0 -35 3 -35 25 0 29 -27 35 -37 8z m-120 -288
c-4 -14 -46 -12 -50 2 -3 8 6 11 24 10 15 -1 27 -7 26 -12z"/>
<path d="M2013 1483 c9 -2 23 -2 30 0 6 3 -1 5 -18 5 -16 0 -22 -2 -12 -5z"/>
<path d="M2426 1453 c-6 -14 -5 -15 5 -6 7 7 10 15 7 18 -3 3 -9 -2 -12 -12z"/>
<path d="M1943 1415 c0 -22 2 -30 4 -17 2 12 2 30 0 40 -3 9 -5 -1 -4 -23z"/>
<path d="M1620 1418 c0 -7 5 -20 10 -28 8 -12 10 -9 10 13 0 15 -4 27 -10 27
-5 0 -10 -6 -10 -12z"/>
<path d="M3141 1394 c0 -11 3 -14 6 -6 3 7 2 16 -1 19 -3 4 -6 -2 -5 -13z"/>
<path d="M2110 1370 c0 -11 4 -20 8 -20 4 0 8 9 8 20 0 11 -4 20 -8 20 -4 0
-8 -9 -8 -20z"/>
<path d="M1947 1353 c-4 -3 -7 -11 -7 -17 0 -6 5 -5 12 2 6 6 9 14 7 17 -3 3
-9 2 -12 -2z"/>
<path d="M1621 1334 c0 -11 3 -14 6 -6 3 7 2 16 -1 19 -3 4 -6 -2 -5 -13z"/>
<path d="M1511 1304 c0 -11 3 -14 6 -6 3 7 2 16 -1 19 -3 4 -6 -2 -5 -13z"/>
<path d="M1791 1290 c0 -14 4 -34 9 -45 8 -18 9 -18 9 5 0 14 -4 34 -9 45 -8
18 -9 18 -9 -5z"/>
<path d="M1744 1289 c-3 -6 -1 -16 5 -22 8 -8 11 -5 11 11 0 24 -5 28 -16 11z"/>
<path d="M3022 1275 c0 -16 2 -22 5 -12 2 9 2 23 0 30 -3 6 -5 -1 -5 -18z"/>
<path d="M2600 1280 c0 -5 5 -10 11 -10 5 0 7 5 4 10 -3 6 -8 10 -11 10 -2 0
-4 -4 -4 -10z"/>
<path d="M2780 1275 c0 -8 4 -15 10 -15 5 0 7 7 4 15 -4 8 -8 15 -10 15 -2 0
-4 -7 -4 -15z"/>
<path d="M1857 1259 c-9 -6 -17 -19 -17 -29 0 -23 -29 -27 -48 -8 -19 19 -15
-8 5 -43 19 -31 95 -73 122 -66 13 4 11 6 -6 12 -13 4 -23 11 -23 16 0 12 41
28 58 22 6 -3 12 2 12 11 0 11 -9 16 -27 16 -41 0 -55 13 -48 42 8 30 -3 40
-28 27z"/>
<path d="M2170 1244 c0 -14 -4 -23 -8 -20 -5 3 -19 -8 -30 -24 -26 -34 -28
-44 -7 -36 10 4 15 -1 15 -14 0 -11 5 -20 10 -20 6 0 10 5 10 10 0 7 6 7 20 0
17 -9 20 -8 20 12 1 22 1 22 18 -5 9 -15 21 -26 27 -24 14 5 13 43 -1 40 -7
-1 -14 6 -17 17 -3 12 0 17 8 14 6 -3 17 1 23 9 16 19 -23 61 -49 54 -11 -3
-19 -1 -19 4 0 5 -4 9 -10 9 -5 0 -10 -12 -10 -26z m45 -14 c-3 -5 -10 -10
-16 -10 -5 0 -9 5 -9 10 0 6 7 10 16 10 8 0 12 -4 9 -10z"/>
<path d="M1740 1210 c0 -5 5 -10 11 -10 5 0 7 5 4 10 -3 6 -8 10 -11 10 -2 0
-4 -4 -4 -10z"/>
<path d="M2474 1209 c-3 -5 -3 -18 1 -28 5 -16 0 -20 -21 -23 -31 -3 -46 -28
-17 -28 28 0 73 -23 73 -37 0 -7 7 -13 15 -13 11 0 14 7 9 24 -5 22 -2 25 28
28 36 3 49 28 27 54 -10 13 -15 13 -35 -1 -18 -12 -24 -12 -24 -3 0 16 -48 39
-56 27z"/>
<path d="M2056 1203 c-3 -4 -16 -8 -29 -10 -27 -4 -48 -23 -25 -23 50 0 108
14 108 26 0 14 -41 20 -54 7z"/>
<path d="M1677 1141 c-9 -11 -9 -13 0 -8 7 4 13 0 16 -10 4 -17 5 -17 6 0 1
13 10 17 38 17 46 0 35 13 -12 15 -21 1 -41 -5 -48 -14z"/>
<path d="M2840 1123 c0 -22 2 -25 10 -13 13 20 13 40 0 40 -5 0 -10 -12 -10
-27z"/>
<path d="M3031 1134 c0 -11 3 -14 6 -6 3 7 2 16 -1 19 -3 4 -6 -2 -5 -13z"/>
<path d="M2082 1120 c0 -14 2 -19 5 -12 2 6 2 18 0 25 -3 6 -5 1 -5 -13z"/>
<path d="M2924 1088 c7 -41 13 -56 19 -47 8 9 -6 89 -15 89 -7 0 -8 -16 -4
-42z"/>
<path d="M2317 1068 c-3 -41 -5 -48 -11 -30 -11 29 -24 28 -36 -4 -10 -26 -30
-25 -30 2 0 19 -16 18 -24 -2 -3 -8 -10 -12 -16 -9 -5 3 -10 -1 -10 -9 0 -9
-6 -16 -14 -16 -8 0 -18 -5 -22 -12 -4 -7 -3 -8 4 -4 7 4 12 3 12 -2 0 -6 11
-13 25 -16 15 -4 25 -14 25 -24 0 -15 2 -15 10 -2 6 9 13 11 18 5 8 -12 47
-13 58 -3 4 4 0 10 -9 14 -22 8 -10 33 14 27 17 -5 19 0 19 66 0 83 -7 94 -13
19z"/>
<path d="M2660 1103 c0 -10 5 -25 10 -33 7 -11 10 -7 10 18 0 17 -4 32 -10 32
-5 0 -10 -8 -10 -17z"/>
<path d="M2790 1101 c0 -6 5 -13 10 -16 6 -3 10 1 10 9 0 9 -4 16 -10 16 -5 0
-10 -4 -10 -9z"/>
<path d="M1685 1050 c3 -5 8 -10 11 -10 2 0 4 5 4 10 0 6 -5 10 -11 10 -5 0
-7 -4 -4 -10z"/>
<path d="M1746 1051 c-3 -5 8 -14 24 -20 18 -6 30 -6 30 0 0 5 11 9 25 9 14 0
25 5 25 10 0 12 -97 13 -104 1z"/>
<path d="M1903 1030 c3 -11 1 -18 -4 -14 -5 3 -9 1 -9 -4 0 -5 -11 -9 -25 -9
-14 0 -28 -3 -31 -5 -8 -9 8 -38 17 -32 13 8 50 -6 44 -17 -3 -5 1 -6 11 -2
13 5 15 2 9 -18 -7 -21 -6 -22 8 -10 14 11 18 11 23 -3 3 -9 12 -16 20 -16 10
0 13 10 9 35 -2 19 0 37 5 40 20 13 10 32 -14 28 -19 -4 -25 0 -30 21 -3 14
-14 26 -22 26 -11 0 -15 -6 -11 -20z"/>
<path d="M2498 1009 c-19 -14 -28 -30 -28 -49 0 -31 25 -47 46 -29 8 6 32 8
61 4 45 -6 47 -5 29 9 -11 9 -14 16 -8 16 16 0 15 35 -2 49 -7 6 -20 9 -29 5
-8 -3 -18 -1 -22 5 -9 15 -16 14 -47 -10z"/>
<path d="M2625 1020 c-3 -5 -1 -10 4 -10 6 0 11 5 11 10 0 6 -2 10 -4 10 -3 0
-8 -4 -11 -10z"/>
<path d="M1670 1000 c0 -5 7 -10 15 -10 8 0 15 5 15 10 0 6 -7 10 -15 10 -8 0
-15 -4 -15 -10z"/>
<path d="M2412 1003 c-18 -2 -30 -8 -28 -12 7 -10 66 -1 66 10 0 5 -1 8 -2 7
-2 0 -18 -3 -36 -5z"/>
<path d="M2987 974 c-9 -16 4 -87 15 -76 5 5 5 26 0 48 -4 21 -11 34 -15 28z"/>
<path d="M1686 953 c-6 -14 -5 -15 5 -6 7 7 10 15 7 18 -3 3 -9 -2 -12 -12z"/>
<path d="M2033 963 c9 -2 23 -2 30 0 6 3 -1 5 -18 5 -16 0 -22 -2 -12 -5z"/>
<path d="M1840 940 c0 -5 5 -10 11 -10 5 0 7 5 4 10 -3 6 -8 10 -11 10 -2 0
-4 -4 -4 -10z"/>
<path d="M1880 915 c0 -8 4 -15 10 -15 5 0 7 7 4 15 -4 8 -8 15 -10 15 -2 0
-4 -7 -4 -15z"/>
<path d="M1470 900 c0 -5 5 -10 10 -10 6 0 10 5 10 10 0 6 -4 10 -10 10 -5 0
-10 -4 -10 -10z"/>
<path d="M2970 860 c0 -5 4 -10 9 -10 5 0 12 -12 16 -27 l8 -28 7 25 c4 14 5
31 2 38 -5 14 -42 16 -42 2z"/>
<path d="M1805 810 c-3 -5 -1 -10 4 -10 6 0 11 5 11 10 0 6 -2 10 -4 10 -3 0
-8 -4 -11 -10z"/>
<path d="M1780 783 c0 -5 4 -14 9 -21 7 -11 9 -11 14 1 3 8 3 18 0 21 -9 8
-23 7 -23 -1z"/>
<path d="M2787 2093 c-11 -10 -8 -55 3 -48 5 3 9 17 8 30 -3 28 -2 27 -11 18z"/>
<path d="M2671 2064 c0 -11 3 -14 6 -6 3 7 2 16 -1 19 -3 4 -6 -2 -5 -13z"/>
<path d="M2643 1970 c0 -25 2 -35 4 -22 2 12 2 32 0 45 -2 12 -4 2 -4 -23z"/>
<path d="M2581 1974 c0 -11 3 -14 6 -6 3 7 2 16 -1 19 -3 4 -6 -2 -5 -13z"/>
<path d="M2580 1853 c0 -31 2 -54 4 -52 9 10 14 109 5 109 -5 0 -9 -25 -9 -57z"/>
<path d="M2807 1836 c-4 -9 2 -17 14 -21 10 -4 19 -11 19 -17 0 -6 2 -9 5 -6
7 7 -16 58 -26 58 -4 0 -9 -7 -12 -14z"/>
<path d="M1670 1936 c0 -9 5 -16 10 -16 6 0 10 4 10 9 0 6 -4 13 -10 16 -5 3
-10 -1 -10 -9z"/>
<path d="M1642 1890 c0 -14 2 -19 5 -12 2 6 2 18 0 25 -3 6 -5 1 -5 -13z"/>
<path d="M1701 1854 c0 -11 3 -14 6 -6 3 7 2 16 -1 19 -3 4 -6 -2 -5 -13z"/>
<path d="M1297 1846 c-4 -10 -1 -13 9 -9 15 6 19 23 5 23 -5 0 -11 -7 -14 -14z"/>
<path d="M1311 1654 c0 -11 3 -14 6 -6 3 7 2 16 -1 19 -3 4 -6 -2 -5 -13z"/>
<path d="M1388 1564 c2 -42 7 -72 11 -68 8 11 2 144 -7 144 -4 0 -6 -34 -4
-76z"/>
<path d="M1314 1565 c3 -38 5 -79 5 -89 1 -11 4 -16 8 -13 9 10 3 139 -8 157
-6 10 -8 -10 -5 -55z"/>
<path d="M1393 1448 c-2 -18 0 -20 7 -8 12 18 13 30 2 30 -4 0 -9 -10 -9 -22z"/>
<path d="M1322 1405 c-1 -13 3 -27 8 -30 6 -4 10 7 10 24 0 37 -15 42 -18 6z"/>
<path d="M1373 1320 c1 -14 -2 -30 -6 -36 -4 -7 0 -17 8 -24 13 -10 15 -9 14
11 -1 13 -5 35 -10 49 l-8 25 2 -25z"/>
<path d="M1320 1319 c0 -5 5 -7 10 -4 6 3 10 8 10 11 0 2 -4 4 -10 4 -5 0 -10
-5 -10 -11z"/>
<path d="M1401 1304 c0 -11 3 -14 6 -6 3 7 2 16 -1 19 -3 4 -6 -2 -5 -13z"/>
<path d="M1389 1242 c-10 -10 -16 -32 -15 -54 1 -20 -2 -34 -7 -31 -5 3 -7 0
-5 -8 3 -8 10 -13 15 -12 5 1 9 -7 9 -18 0 -10 -4 -19 -8 -19 -10 0 -10 -46
-2 -89 13 -65 23 -27 23 93 1 68 4 131 7 140 8 20 3 19 -17 -2z"/>
<path d="M1325 1150 c-3 -5 -1 -10 4 -10 6 0 11 5 11 10 0 6 -2 10 -4 10 -3 0
-8 -4 -11 -10z"/>
<path d="M1330 1050 c0 -5 7 -10 15 -10 8 0 15 5 15 10 0 6 -7 10 -15 10 -8 0
-15 -4 -15 -10z"/>
<path d="M1410 976 c0 -14 5 -28 10 -31 6 -3 10 5 10 19 0 14 -4 28 -10 31 -6
3 -10 -5 -10 -19z"/>
<path d="M1380 915 c0 -8 5 -15 10 -15 6 0 10 7 10 15 0 8 -4 15 -10 15 -5 0
-10 -7 -10 -15z"/>
<path d="M1340 899 c0 -5 5 -7 10 -4 6 3 10 8 10 11 0 2 -4 4 -10 4 -5 0 -10
-5 -10 -11z"/>
<path d="M1302 850 c0 -14 2 -19 5 -12 2 6 2 18 0 25 -3 6 -5 1 -5 -13z"/>
<path d="M1240 850 c-13 -8 -12 -10 3 -10 9 0 17 5 17 10 0 12 -1 12 -20 0z"/>
<path d="M1345 780 c-3 -5 -1 -10 4 -10 6 0 11 5 11 10 0 6 -2 10 -4 10 -3 0
-8 -4 -11 -10z"/>
<path d="M1172 2060 c0 -14 2 -19 5 -12 2 6 2 18 0 25 -3 6 -5 1 -5 -13z"/>
<path d="M1144 2055 c4 -24 16 -30 16 -7 0 12 -4 22 -9 22 -5 0 -8 -7 -7 -15z"/>
<path d="M725 1967 c-4 -17 -3 -33 3 -39 14 -14 20 2 12 37 l-7 30 -8 -28z"/>
<path d="M752 1902 c4 -15 2 -19 -8 -15 -8 3 -14 1 -14 -5 0 -12 26 -23 34
-15 10 11 7 41 -6 49 -7 5 -9 0 -6 -14z"/>
<path d="M439 1835 c-8 -7 13 -55 24 -55 4 0 7 9 7 21 0 11 -4 18 -9 14 -5 -3
-11 2 -13 11 -2 9 -6 13 -9 9z"/>
<path d="M722 1800 c0 -14 2 -19 5 -12 2 6 2 18 0 25 -3 6 -5 1 -5 -13z"/>
<path d="M750 1681 c0 -36 -3 -40 -30 -46 -38 -8 -40 -23 -2 -17 24 3 28 0 30
-24 3 -40 12 -43 13 -3 0 19 1 55 2 82 1 26 -1 47 -5 47 -5 0 -8 -18 -8 -39z"/>
<path d="M310 1630 c-1 -14 -2 -31 -1 -37 1 -7 -3 -13 -9 -13 -18 0 -11 -40 8
-41 10 0 12 -3 5 -6 -17 -6 -16 -38 1 -52 11 -9 15 -9 19 1 4 10 9 8 17 -4 6
-10 20 -18 30 -18 17 0 19 7 18 65 -1 44 -5 65 -13 65 -7 0 -20 10 -28 23
l-16 22 -8 -25 c-7 -24 -8 -24 -14 10 -5 29 -7 31 -9 10z m80 -130 c0 -5 -2
-10 -4 -10 -3 0 -8 5 -11 10 -3 6 -1 10 4 10 6 0 11 -4 11 -10z"/>
<path d="M456 1626 c4 -9 -2 -16 -18 -19 -21 -4 -20 -4 5 -6 27 -1 38 21 17
34 -5 3 -7 0 -4 -9z"/>
<path d="M825 1610 c-3 -5 1 -10 10 -10 9 0 13 5 10 10 -3 6 -8 10 -10 10 -2
0 -7 -4 -10 -10z"/>
<path d="M540 1600 c0 -5 10 -10 23 -11 21 -1 21 -1 -3 -9 -22 -7 -22 -8 -4
-9 17 -1 20 -6 16 -31 -2 -16 -8 -30 -13 -30 -5 0 -9 -7 -9 -15 0 -9 9 -15 21
-15 14 0 19 -5 17 -17 -2 -10 -10 -17 -16 -15 -16 3 -15 -3 3 -38 9 -17 11
-30 6 -30 -18 0 -19 -26 0 -27 10 -1 19 2 19 8 0 5 7 9 15 9 8 0 15 4 15 9 0
5 3 16 6 24 4 10 -1 15 -13 14 -12 -2 -19 6 -20 23 -2 16 0 20 5 10 11 -23 66
-20 70 4 3 14 0 17 -12 13 -23 -9 -29 10 -8 25 10 7 19 24 19 36 2 20 -2 23
-22 18 -14 -4 -25 -1 -28 7 -4 9 -8 9 -15 -1 -7 -11 -11 -8 -15 10 -10 34 -8
41 6 35 6 -2 21 -1 32 4 14 5 1 8 -37 8 -33 1 -58 -3 -58 -9z"/>
<path d="M852 1543 c2 -28 0 -49 -4 -46 -5 2 -8 12 -8 21 -1 10 -6 4 -14 -13
-13 -31 -10 -65 5 -65 5 0 9 5 9 10 0 6 6 10 14 10 17 0 27 -34 19 -71 -6 -33
4 -38 22 -12 7 9 26 17 41 18 23 0 30 5 32 25 2 23 2 24 -12 7 -9 -12 -16 -15
-21 -7 -9 15 11 37 40 44 24 6 35 26 15 26 -5 0 -7 7 -4 15 9 21 -10 19 -30
-4 -21 -23 -46 -17 -46 10 0 10 -8 22 -17 28 -16 8 -15 11 7 30 28 23 21 28
-10 9 -17 -11 -22 -10 -31 2 -7 11 -9 1 -7 -37z"/>
<path d="M459 1530 c-7 -35 -4 -48 7 -38 3 4 4 21 2 40 l-3 33 -6 -35z"/>
<path d="M252 1424 c-1 -26 2 -43 7 -39 11 6 12 85 1 85 -4 0 -8 -21 -8 -46z"/>
<path d="M460 1419 c0 -14 5 -19 14 -16 8 3 17 1 20 -6 3 -8 5 -6 5 3 1 8 -8
21 -19 28 -18 11 -20 10 -20 -9z"/>
<path d="M379 1368 c-1 -41 -1 -42 -11 -15 -7 19 -15 26 -25 23 -8 -3 -21 -6
-28 -6 -11 0 -13 -15 -9 -72 5 -78 8 -88 26 -70 8 8 15 6 27 -6 15 -14 16 -14
19 7 3 20 5 21 15 7 8 -10 17 -13 26 -7 11 7 9 11 -8 20 -23 13 -29 43 -8 40
25 -3 35 2 39 19 4 15 1 18 -21 15 -19 -3 -22 -2 -12 5 17 12 7 47 -11 36 -8
-5 -9 0 -6 14 4 12 2 25 -3 28 -5 3 -9 -14 -10 -38z"/>
<path d="M746 1378 c7 -11 9 -30 13 -148 1 -32 5 -49 9 -40 4 8 6 57 4 108 -3
73 -6 92 -18 92 -9 0 -12 -5 -8 -12z"/>
<path d="M912 1348 c-2 -29 -17 -38 -25 -15 -3 8 -7 6 -12 -7 -5 -11 -3 -27 4
-38 10 -17 9 -20 -8 -25 -24 -6 -29 -33 -6 -33 8 0 15 -6 15 -14 0 -16 37 -28
46 -14 3 5 19 6 35 3 25 -6 29 -4 29 15 0 12 -4 19 -9 15 -5 -3 -12 -1 -16 5
-3 5 -1 10 4 10 6 0 11 6 11 14 0 8 7 22 16 30 14 15 14 16 0 16 -9 0 -25 -9
-37 -21 -26 -26 -37 -16 -42 41 -2 25 -4 33 -5 18z"/>
<path d="M245 1347 c-4 -10 -5 -21 -1 -24 10 -10 18 4 13 24 -4 17 -4 17 -12
0z"/>
<path d="M536 1345 c-3 -8 -1 -15 4 -15 6 0 10 7 10 15 0 8 -2 15 -4 15 -2 0
-6 -7 -10 -15z"/>
<path d="M628 1354 c-5 -4 -8 -19 -9 -33 0 -26 0 -26 -11 -3 -18 36 -44 27
-39 -14 1 -7 -8 -14 -20 -17 -23 -6 -18 -21 13 -38 13 -7 18 -7 14 -1 -3 6 -2
13 4 17 5 3 10 -3 10 -14 0 -12 -4 -21 -10 -21 -5 0 -10 -7 -10 -15 0 -8 6
-15 14 -15 8 0 21 -3 30 -6 13 -5 16 2 16 35 0 28 5 43 15 46 49 15 49 15 37
27 -7 7 -12 21 -13 33 0 11 -3 14 -6 8 -7 -18 -21 -16 -25 3 -2 9 -6 12 -10 8z"/>
<path d="M496 1325 c-3 -8 -1 -15 4 -15 6 0 10 7 10 15 0 8 -2 15 -4 15 -2 0
-6 -7 -10 -15z"/>
<path d="M283 1195 c0 -22 2 -30 4 -17 2 12 2 30 0 40 -3 9 -5 -1 -4 -23z"/>
<path d="M393 1196 c3 -8 1 -17 -6 -19 -7 -2 -9 -8 -5 -12 4 -4 11 -4 17 0 14
8 14 45 0 45 -6 0 -9 -6 -6 -14z"/>
<path d="M645 1190 c-3 -5 1 -10 9 -10 9 0 16 5 16 10 0 6 -4 10 -9 10 -6 0
-13 -4 -16 -10z"/>
<path d="M340 1176 c0 -9 5 -16 10 -16 6 0 10 4 10 9 0 6 -4 13 -10 16 -5 3
-10 -1 -10 -9z"/>
<path d="M881 1183 c0 -4 4 -17 9 -28 8 -19 9 -19 9 2 1 12 -3 25 -9 28 -5 3
-10 3 -9 -2z"/>
<path d="M762 1120 c-2 -20 2 -30 11 -30 9 0 12 9 9 30 -2 17 -7 30 -11 30 -4
0 -8 -13 -9 -30z"/>
<path d="M910 1141 c0 -12 29 -23 41 -15 18 10 9 24 -16 24 -14 0 -25 -4 -25
-9z"/>
<path d="M640 1105 c0 -38 -15 -47 -25 -15 -8 24 -23 26 -32 4 -3 -8 4 -25 16
-38 26 -28 26 -32 1 -39 -11 -3 -20 -10 -20 -17 0 -6 5 -8 11 -4 8 4 9 -4 5
-27 l-7 -34 23 28 c29 33 65 36 77 5 l9 -23 10 27 c6 14 15 29 21 32 6 4 8 13
4 22 -4 11 -14 13 -34 9 -28 -6 -42 9 -16 18 6 2 8 8 4 13 -4 4 -17 2 -29 -5
-12 -7 -17 -8 -13 -1 12 19 16 80 5 80 -5 0 -10 -16 -10 -35z"/>
<path d="M970 1120 c0 -5 5 -10 10 -10 6 0 10 5 10 10 0 6 -4 10 -10 10 -5 0
-10 -4 -10 -10z"/>
<path d="M830 1090 c0 -24 15 -27 24 -4 9 22 8 24 -9 24 -8 0 -15 -9 -15 -20z"/>
<path d="M240 1060 c0 -5 5 -10 10 -10 6 0 10 5 10 10 0 6 -4 10 -10 10 -5 0
-10 -4 -10 -10z"/>
<path d="M747 1063 c-3 -5 -1 -17 4 -28 7 -17 8 -17 8 8 1 27 -4 34 -12 20z"/>
<path d="M808 1040 c-7 -11 -18 -20 -23 -20 -6 0 -11 -9 -12 -20 -3 -38 27
-20 44 28 13 36 9 42 -9 12z"/>
<path d="M503 995 c0 -22 2 -30 4 -17 2 12 2 30 0 40 -3 9 -5 -1 -4 -23z"/>
<path d="M624 959 c-3 -6 -2 -14 3 -18 6 -3 13 -13 16 -21 3 -8 6 0 6 18 1 32
-11 42 -25 21z"/>
<path d="M768 930 c-3 -19 -1 -29 6 -27 14 4 21 57 8 57 -5 0 -12 -14 -14 -30z"/>
<path d="M530 920 c0 -3 4 -11 8 -18 7 -10 12 -8 25 5 14 17 14 18 -9 18 -13
0 -24 -2 -24 -5z"/>
<path d="M571 884 c0 -11 3 -14 6 -6 3 7 2 16 -1 19 -3 4 -6 -2 -5 -13z"/>
<path d="M810 866 c0 -31 6 -34 13 -6 3 11 1 23 -4 26 -5 3 -9 -6 -9 -20z"/>
<path d="M583 853 c-9 -3 -7 -15 7 -43 18 -36 18 -39 2 -45 -16 -6 -16 -7 1
-20 13 -9 17 -20 12 -34 -4 -12 -2 -21 4 -21 6 0 11 7 11 15 0 21 16 19 40 -5
28 -28 50 -26 50 5 0 14 -4 25 -10 25 -5 0 -10 -8 -10 -17 0 -15 -4 -13 -19 7
-23 29 -20 36 25 55 38 15 38 40 1 30 -15 -4 -18 -3 -9 3 10 7 10 11 -2 22
-13 10 -17 9 -25 -11 l-10 -24 0 24 c-1 20 -3 22 -16 11 -17 -14 -17 -13 -31
11 -5 9 -15 14 -21 12z"/>
<path d="M510 744 c0 -8 5 -12 10 -9 6 4 8 11 5 16 -9 14 -15 11 -15 -7z"/>
<path d="M785 1780 c-3 -6 1 -7 9 -4 18 7 21 14 7 14 -6 0 -13 -4 -16 -10z"/>
<path d="M1099 1609 c-14 -12 -19 -23 -13 -27 6 -4 12 -52 13 -107 4 -126 8
-175 16 -183 3 -4 4 63 2 148 -2 85 0 163 5 173 11 22 6 22 -23 -4z"/>
<path d="M1060 1609 c0 -5 5 -7 10 -4 6 3 10 8 10 11 0 2 -4 4 -10 4 -5 0 -10
-5 -10 -11z"/>
<path d="M1108 1273 c-2 -5 -1 -26 3 -48 l6 -40 2 48 c1 44 -3 57 -11 40z"/>
<path d="M1110 1150 c0 -5 5 -10 11 -10 5 0 7 5 4 10 -3 6 -8 10 -11 10 -2 0
-4 -4 -4 -10z"/>
<path d="M1112 1088 c-1 -23 -10 -46 -22 -58 -20 -20 -20 -20 -1 -20 12 0 21
-8 24 -22 4 -20 4 -19 6 5 0 16 7 27 15 27 8 0 18 5 21 11 4 6 0 9 -11 7 -16
-2 -20 5 -25 42 -6 45 -6 45 -7 8z"/>
<path d="M2601 854 c0 -11 3 -14 6 -6 3 7 2 16 -1 19 -3 4 -6 -2 -5 -13z"/>
<path d="M2340 840 c-6 -11 -18 -20 -28 -21 -14 0 -14 -2 3 -9 19 -8 19 -9 -2
-9 -13 -1 -23 -6 -23 -12 0 -8 17 -9 51 -6 53 6 79 17 40 17 -18 0 -20 4 -15
24 7 31 -12 43 -26 16z"/>
<path d="M2643 844 c-3 -10 -11 -22 -17 -26 -6 -4 -8 -10 -4 -13 4 -4 14 5 24
19 9 15 14 29 11 33 -4 3 -10 -3 -14 -13z"/>
<path d="M2490 606 c0 -9 5 -16 10 -16 6 0 10 4 10 9 0 6 -4 13 -10 16 -5 3
-10 -1 -10 -9z"/>
<path d="M2436 548 c-3 -7 -4 -21 -3 -30 1 -23 17 -12 17 12 0 10 6 21 13 23
7 3 5 6 -6 6 -10 1 -19 -5 -21 -11z"/>
<path d="M2410 439 c0 -17 4 -28 10 -24 6 3 10 17 10 31 0 13 -4 24 -10 24 -5
0 -10 -14 -10 -31z"/>
<path d="M2440 386 c0 -8 5 -18 10 -21 6 -3 10 1 10 9 0 8 -4 18 -10 21 -5 3
-10 -1 -10 -9z"/>
<path d="M2420 205 c0 -8 4 -15 10 -15 5 0 7 7 4 15 -4 8 -8 15 -10 15 -2 0
-4 -7 -4 -15z"/>
<path d="M1211 324 c0 -11 3 -14 6 -6 3 7 2 16 -1 19 -3 4 -6 -2 -5 -13z"/>
<path d="M3045 90 c27 -12 43 -12 25 0 -8 5 -22 9 -30 9 -10 0 -8 -3 5 -9z"/>
<path d="M3100 90 c19 -13 30 -13 30 0 0 6 -10 10 -22 10 -19 0 -20 -2 -8 -10z"/>
</g>
</svg>
