<?xml version="1.0" standalone="no"?>
<!DOCTYPE svg PUBLIC "-//W3C//DTD SVG 20010904//EN"
 "http://www.w3.org/TR/2001/REC-SVG-20010904/DTD/svg10.dtd">
<svg version="1.0" xmlns="http://www.w3.org/2000/svg"
 width="279.000000pt" height="281.000000pt" viewBox="0 0 279.000000 281.000000"
 preserveAspectRatio="xMidYMid meet">
<metadata>
Created by potrace 1.16, written by Peter Selinger 2001-2019
</metadata>
<g transform="translate(0.000000,281.000000) scale(0.100000,-0.100000)"
fill="#000000" stroke="none">
<path d="M2140 2802 c-19 -1 -42 -5 -50 -9 -8 -3 -76 -8 -150 -10 -74 -2 -186
-7 -248 -11 -63 -4 -116 -4 -118 0 -8 12 -214 7 -449 -12 -248 -19 -789 -28
-808 -12 -7 6 -47 5 -102 -2 -72 -9 -90 -14 -93 -28 -3 -15 5 -18 51 -18 31 0
57 -5 59 -11 2 -7 42 -7 133 2 115 10 150 12 198 8 6 -1 83 4 169 10 87 6 233
12 325 12 91 1 177 5 190 10 15 5 42 5 70 -1 33 -8 62 -7 102 1 30 6 138 13
240 15 103 2 253 6 336 8 93 3 152 1 156 -5 4 -6 26 -6 65 1 32 6 79 12 104
13 41 3 81 9 149 23 18 4 22 2 18 -10 -5 -13 2 -16 33 -16 29 0 40 4 40 15 0
18 17 20 22 3 3 -9 12 -9 38 0 39 14 63 15 56 3 -3 -4 6 -6 19 -3 14 2 25 11
25 18 0 12 -45 14 -272 12 -150 -2 -289 -4 -308 -6z"/>
<path d="M2721 2518 c0 -128 -2 -249 -4 -268 -2 -19 -4 -57 -5 -85 -3 -60 -11
-76 -43 -77 -13 -1 -28 -5 -34 -8 -11 -8 -82 -26 -132 -34 -27 -4 -33 -2 -33
12 -1 20 -27 58 -35 50 -3 -3 0 -17 6 -32 10 -22 10 -33 -4 -61 -9 -19 -24
-35 -32 -35 -9 0 -20 -11 -25 -25 -5 -14 -16 -25 -24 -25 -7 0 -16 -7 -20 -15
-3 -8 -14 -15 -24 -15 -10 0 -23 -5 -30 -12 -21 -21 -26 1 -9 37 9 20 17 52
17 73 0 47 73 163 78 125 5 -31 22 -29 22 2 0 14 -5 25 -11 25 -6 0 -8 8 -4
19 5 15 2 18 -13 14 -11 -2 -31 6 -49 21 -20 17 -43 26 -64 26 -19 0 -56 7
-84 15 -49 15 -107 12 -89 -4 12 -12 107 -31 153 -31 27 0 45 -7 62 -24 13
-12 30 -25 37 -27 13 -4 -58 -89 -75 -89 -5 0 -26 -23 -47 -51 -21 -28 -40
-48 -44 -45 -3 3 -20 -9 -37 -28 -31 -34 -83 -176 -64 -176 5 0 18 30 29 68
11 37 25 74 30 82 9 13 11 13 20 0 14 -21 12 -36 -5 -50 -8 -7 -15 -22 -15
-33 0 -11 -4 -34 -9 -51 -5 -17 -18 -60 -27 -96 -17 -60 -60 -137 -72 -126 -2
3 -1 21 2 41 5 27 11 35 22 31 9 -3 17 1 20 12 3 9 10 25 15 35 7 13 5 19 -6
23 -10 4 -13 14 -8 32 4 16 2 23 -4 19 -6 -4 -13 -20 -16 -36 -4 -16 -17 -39
-29 -51 -13 -12 -23 -27 -23 -33 0 -7 -8 -11 -17 -11 -10 1 -16 -3 -15 -9 3
-14 -81 -60 -112 -61 -13 -1 -26 -7 -29 -14 -8 -24 102 12 141 46 9 8 20 13
23 10 3 -3 -13 -19 -35 -34 -47 -34 -54 -64 -15 -64 20 0 25 -4 20 -16 -3 -9
-6 -24 -6 -35 0 -16 -7 -19 -50 -19 -55 0 -63 -11 -25 -36 14 -9 25 -23 25
-30 0 -16 -46 -19 -55 -3 -10 15 -113 63 -170 79 -62 16 -103 36 -134 64 -17
15 -25 17 -28 9 -3 -7 -11 -13 -19 -13 -8 0 -14 -5 -14 -11 0 -10 -48 -5 -59
6 -2 3 13 21 33 41 39 39 50 69 14 38 -13 -10 -27 -25 -31 -31 -4 -7 -15 -13
-22 -13 -8 0 -15 -4 -15 -10 0 -5 -6 -10 -14 -10 -8 0 -16 -6 -19 -14 -4 -11
-14 -12 -49 -4 -91 21 -123 33 -136 50 -15 20 -36 14 -28 -8 7 -17 6 -17 -35
1 l-34 14 30 1 c29 1 29 1 -10 16 -67 26 -85 37 -85 51 0 7 6 13 14 13 17 0
29 27 15 36 -12 7 -108 -5 -128 -16 -15 -8 -51 -2 -51 9 0 4 16 13 35 20 38
13 40 33 2 24 -21 -5 -21 -5 -5 12 15 16 21 17 44 6 36 -16 41 -8 7 14 -15 10
-35 25 -43 35 -19 22 -60 36 -60 20 0 -7 9 -19 20 -28 20 -16 18 -18 -52 -44
l-73 -27 32 27 c29 24 31 29 18 45 -15 21 -46 20 -53 -2 -3 -8 0 -11 7 -7 7 4
9 2 5 -8 -10 -26 -34 -28 -34 -2 0 47 8 55 56 50 26 -2 44 0 44 6 0 5 -4 10
-10 10 -5 0 -10 7 -10 15 0 8 -7 15 -15 15 -8 0 -15 3 -15 8 0 8 60 72 115
121 33 30 38 32 33 13 -4 -15 -2 -22 7 -22 8 0 17 15 21 35 3 20 28 72 55 116
27 44 49 86 49 94 0 7 16 23 35 35 19 12 38 27 42 33 5 7 20 22 34 35 20 18
31 21 50 14 l24 -9 -23 -7 c-12 -4 -22 -12 -22 -18 0 -5 14 -1 32 9 22 13 34
29 39 51 8 42 15 48 34 32 12 -10 15 -10 15 4 0 17 13 19 44 7 27 -10 6 -23
-40 -24 -19 -1 -33 -6 -31 -11 3 -6 14 -10 27 -8 12 1 28 -2 34 -7 19 -14 94
-22 101 -10 5 7 25 8 59 3 28 -4 62 -8 76 -9 14 -1 32 -4 40 -7 165 -55 160
-54 160 -38 0 6 -8 10 -17 10 -15 0 -16 2 -3 9 8 6 17 8 21 5 4 -2 10 0 14 6
4 6 -15 10 -52 10 -35 1 -66 6 -77 15 -11 8 -32 15 -47 15 -15 0 -31 5 -34 10
-3 6 -18 10 -33 10 -71 0 -167 59 -131 81 17 10 5 23 -15 16 -8 -3 -16 -17
-18 -30 l-3 -24 -62 15 c-62 15 -63 15 -101 -11 -21 -15 -43 -27 -49 -27 -7 0
-26 -20 -44 -45 -18 -25 -38 -45 -45 -45 -7 0 -25 -20 -40 -45 -14 -25 -27
-45 -28 -45 0 0 -17 5 -36 10 -19 6 -66 10 -105 9 -38 -1 -82 -1 -97 -1 -16 1
-28 -2 -28 -7 0 -4 -21 -23 -47 -41 -27 -18 -62 -47 -78 -64 -34 -34 -52 -49
-105 -86 -19 -13 -52 -41 -74 -62 -21 -21 -47 -38 -57 -38 -11 0 -23 -10 -28
-24 -5 -12 -26 -33 -46 -45 -20 -11 -34 -25 -31 -30 3 -5 -1 -14 -9 -21 -8 -7
-15 -19 -15 -26 0 -8 -7 -14 -16 -14 -14 0 -15 2 -3 18 8 9 21 22 29 29 10 8
11 12 3 13 -6 0 -15 -4 -18 -10 -3 -5 -15 -10 -27 -10 -15 0 -19 5 -15 20 7
26 -10 36 -31 18 -40 -34 -93 -43 -61 -11 14 14 28 263 28 506 1 135 -2 167
-13 167 -10 0 -13 18 -11 80 1 44 -2 80 -6 80 -4 0 -6 9 -4 20 2 11 0 22 -6
25 -5 4 -9 -1 -9 -9 0 -9 -7 -16 -16 -16 -13 0 -14 -17 -8 -137 5 -76 8 -147
8 -158 0 -11 -4 -141 -8 -290 -4 -148 -9 -351 -11 -450 -2 -99 -4 -200 -4
-224 -1 -34 -4 -42 -16 -37 -19 7 -20 -18 -1 -34 15 -12 15 -58 0 -280 -12
-182 -15 -670 -3 -670 7 0 8 -11 4 -29 -3 -17 -2 -32 4 -36 18 -10 14 -85 -4
-85 -20 0 -19 -26 0 -34 11 -4 16 -18 15 -43 -1 -47 7 -113 14 -120 3 -3 13
-2 23 2 28 10 152 11 150 0 -1 -5 81 -10 208 -11 235 -2 731 -10 757 -13 11 0
15 -6 12 -16 -4 -11 0 -15 16 -15 13 0 24 8 27 18 4 17 22 19 215 25 344 11
663 7 1108 -14 8 0 36 -4 62 -9 71 -14 137 13 122 50 -4 8 -10 50 -14 92 -5
43 -12 83 -16 90 -14 23 -16 138 -3 138 9 0 10 19 6 70 -4 46 -2 70 5 70 7 0
7 4 0 13 -15 17 -27 157 -14 157 6 0 10 61 10 173 -1 94 3 188 7 208 4 24 3
39 -5 44 -8 5 -8 10 0 20 9 11 9 42 -1 125 -11 100 -11 114 4 139 9 16 14 31
11 34 -8 7 -6 415 1 427 8 13 9 219 2 227 -4 3 -3 11 2 17 17 22 18 75 10 301
-12 326 -11 319 -31 323 -16 3 -17 -15 -17 -230z m-1932 -335 c0 -5 -9 -21
-19 -38 -30 -47 -61 -105 -56 -105 2 0 24 18 48 40 32 31 40 43 30 49 -11 7
-11 9 2 14 9 4 16 13 16 22 0 12 16 15 91 15 89 0 90 0 83 -22 -4 -13 -10 -25
-14 -28 -4 -3 -16 -19 -26 -36 -26 -42 -77 -99 -96 -106 -9 -4 -22 -20 -29
-37 -8 -18 -21 -31 -32 -31 -9 0 -25 -13 -35 -30 -10 -16 -31 -39 -46 -51 -18
-14 -26 -28 -23 -40 5 -20 -17 -44 -32 -35 -5 4 -26 -3 -46 -14 -43 -24 -52
-25 -35 -5 7 9 10 18 6 22 -3 3 1 15 11 25 21 24 9 36 -15 15 -10 -10 -23 -17
-28 -17 -5 0 -1 5 9 11 9 5 17 16 17 24 0 12 -5 12 -25 3 -13 -6 -22 -14 -20
-18 3 -5 -6 -19 -20 -31 -13 -13 -25 -29 -25 -35 0 -6 -6 -17 -14 -23 -11 -9
-23 -7 -52 9 -21 11 -46 20 -56 20 -9 0 -19 4 -23 9 -8 14 15 25 28 12 8 -8
23 -4 54 15 42 24 60 24 26 -2 -30 -21 -5 -28 32 -8 19 10 35 26 35 36 0 9 9
20 20 23 11 3 25 15 30 26 13 22 -2 26 -20 4 -7 -8 -16 -12 -21 -10 -4 3 -27
-4 -49 -15 l-41 -21 17 26 c15 23 13 29 -8 26 -4 0 -5 6 -2 14 7 18 -17 20
-34 3 -6 -6 -14 -9 -17 -6 -3 2 23 23 57 45 35 22 104 74 153 115 50 41 95 73
100 72 6 -2 19 3 30 12 17 13 18 16 5 24 -13 8 -13 10 1 10 9 0 22 7 29 15 13
16 31 20 29 8z m1493 -135 c-5 -7 -15 -46 -21 -87 -15 -98 -24 -113 -64 -108
-25 3 -31 8 -29 23 2 10 9 22 14 25 6 4 8 18 4 33 -6 23 1 35 46 80 29 29 55
52 57 50 2 -2 -1 -9 -7 -16z m419 -289 c-2 -156 -5 -318 -6 -359 -2 -41 -4
-115 -4 -165 -2 -114 -6 -121 -56 -95 -22 11 -44 20 -50 20 -6 0 -20 9 -32 19
-40 38 -149 73 -226 73 -40 0 -76 4 -82 7 -5 4 -30 14 -55 21 -25 7 -48 15
-53 17 -4 3 12 22 36 43 23 21 53 58 65 82 24 46 46 78 54 78 3 0 35 -20 72
-44 44 -30 81 -47 113 -52 30 -4 66 -19 95 -40 64 -45 93 -52 108 -25 11 21
-3 31 -15 11 -8 -13 -34 -1 -80 37 -22 19 -50 36 -62 39 -13 4 -23 13 -23 21
0 13 -3 13 -15 3 -12 -10 -21 -10 -38 -2 -12 5 -30 13 -39 16 -25 8 -22 21 11
48 31 27 78 93 49 70 -13 -10 -17 -10 -20 0 -2 6 -20 -9 -39 -35 -19 -25 -39
-46 -45 -47 -15 0 -36 25 -27 33 3 4 -2 16 -12 27 -17 19 -18 26 -7 66 13 49
9 66 -12 58 -19 -7 -30 -109 -14 -133 10 -17 6 -25 -35 -65 -26 -25 -47 -50
-47 -56 0 -6 -12 -15 -27 -21 -22 -8 -24 -12 -13 -20 13 -8 11 -12 -10 -29
-32 -25 -55 -26 -45 -2 4 9 8 29 10 45 2 15 11 34 19 42 8 8 22 36 32 62 10
27 21 53 25 59 5 5 6 19 3 30 -3 11 5 35 19 56 28 41 42 78 30 78 -4 0 -14 -9
-21 -20 -7 -11 -18 -20 -25 -20 -7 0 -18 -9 -24 -19 -8 -13 -19 -18 -33 -14
-11 3 -20 0 -20 -6 0 -20 5 -26 18 -23 16 4 16 0 -10 -53 -16 -33 -26 -44 -39
-40 -15 5 -16 0 -13 -38 4 -31 1 -47 -10 -56 -10 -8 -16 -9 -21 -1 -3 5 -17
10 -31 10 -21 0 -24 5 -24 34 0 21 6 36 15 40 8 3 15 12 15 19 0 7 11 20 25
27 22 12 27 11 39 -6 12 -16 13 -11 9 48 -4 51 -2 71 11 89 9 13 16 39 16 58
0 34 11 36 17 3 3 -25 32 -90 33 -74 0 6 7 12 15 12 8 0 29 20 47 45 18 24 39
42 46 40 7 -3 16 3 19 13 9 23 42 52 60 52 8 0 11 5 7 12 -4 7 11 27 37 50 28
25 35 35 19 27 -14 -7 -37 -25 -53 -40 -15 -16 -30 -29 -32 -29 -14 0 43 63
77 85 21 14 38 32 38 39 0 15 37 32 47 22 4 -3 0 -6 -8 -6 -10 -1 -9 -4 4 -11
19 -11 52 5 42 21 -3 4 6 7 20 6 14 0 25 -4 25 -8 0 -5 15 -8 33 -8 22 0 36 7
45 21 32 51 36 18 33 -272z m-2576 1 c0 -7 -6 -15 -12 -17 -8 -3 -13 4 -13 17
0 13 5 20 13 18 6 -3 12 -11 12 -18z m85 -19 c0 -5 19 -8 43 -8 61 1 117 -7
117 -16 0 -5 4 -6 10 -2 5 3 34 -17 65 -45 52 -47 58 -50 110 -50 62 0 73 -16
19 -26 -44 -8 -124 28 -185 83 l-38 34 -107 0 -108 0 29 19 c34 21 45 24 45
11z m439 -12 c-6 -12 -12 -35 -12 -53 -1 -18 -7 -31 -14 -30 -7 1 -23 2 -35 3
-17 1 -19 4 -10 13 22 22 12 27 -23 12 -43 -18 -51 -18 -35 1 7 8 17 12 22 9
6 -4 13 -2 17 3 5 7 90 61 99 63 1 0 -2 -9 -9 -21z m34 -6 c-8 -48 -13 -57
-24 -46 -8 8 -6 20 5 42 20 38 25 39 19 4z m151 -37 c-6 -17 -54 -23 -54 -7 0
8 51 31 58 26 1 -1 0 -10 -4 -19z m-667 -2 c-3 -3 -12 -4 -19 -1 -8 3 -5 6 6
6 11 1 17 -2 13 -5z m98 -4 c8 -13 -5 -13 -25 0 -13 8 -13 10 2 10 9 0 20 -4
23 -10z m100 -11 c11 -16 2 -17 -30 -3 l-30 13 27 1 c15 0 30 -5 33 -11z
m-178 -15 c-3 -3 -12 -4 -19 -1 -8 3 -5 6 6 6 11 1 17 -2 13 -5z m89 -10 c49
-20 136 -75 130 -81 -3 -3 -25 9 -50 25 -25 17 -64 36 -85 42 -22 6 -43 15
-46 20 -9 14 7 12 51 -6z m409 -4 c5 -8 11 -7 20 0 17 14 47 0 87 -39 93 -90
155 -124 272 -152 28 -6 70 -20 93 -30 24 -11 55 -19 71 -19 15 0 38 -7 50
-16 13 -9 32 -14 42 -11 11 3 36 -3 56 -14 20 -10 41 -16 46 -13 11 7 78 -15
78 -26 0 -5 -7 -7 -15 -4 -8 4 -15 1 -15 -6 0 -8 10 -11 29 -7 41 9 97 -2 119
-23 10 -10 39 -28 63 -41 31 -17 43 -29 41 -41 -3 -13 3 -18 21 -18 15 0 27
-7 30 -17 3 -10 13 -29 21 -43 8 -14 17 -37 21 -53 5 -26 178 -227 195 -227 5
0 26 -17 48 -39 36 -36 45 -39 123 -50 150 -19 237 -37 254 -51 12 -10 18 -11
24 -2 4 7 12 8 21 2 8 -6 23 -10 33 -10 11 0 29 -8 42 -18 13 -10 48 -24 79
-32 54 -13 56 -15 55 -44 -1 -25 -3 -26 -6 -8 -5 26 -37 41 -98 46 -28 2 -49
11 -68 30 -30 30 -42 32 -54 11 -8 -13 -18 -12 -80 9 -54 18 -94 25 -163 25
-97 1 -132 13 -175 61 -10 11 -25 20 -34 20 -20 -1 62 -76 104 -96 l30 -14
-47 4 c-27 2 -48 0 -48 -5 0 -12 -17 -11 -62 1 -23 7 -60 34 -103 76 -36 37
-64 68 -62 71 3 2 21 -5 41 -17 44 -24 47 -24 39 -5 -3 9 -22 27 -42 40 -19
14 -29 25 -21 25 10 0 8 4 -5 14 -11 8 -23 12 -27 10 -4 -2 -19 7 -34 21 -15
14 -31 25 -35 25 -13 0 -11 -24 4 -39 10 -11 8 -11 -10 -2 -16 8 -23 8 -23 1
0 -6 11 -16 25 -22 14 -6 25 -15 25 -20 0 -9 -61 23 -85 44 -16 14 -28 9 -15
-7 7 -8 10 -15 7 -15 -14 0 -96 40 -102 50 -11 18 -1 20 29 5 46 -24 26 6 -30
43 -27 19 -50 38 -50 43 -1 5 -2 13 -3 18 0 5 -9 12 -19 15 -9 3 -32 19 -50
36 -18 16 -43 30 -55 30 -12 0 -31 7 -41 15 -30 22 -36 18 -25 -17 5 -18 9
-34 9 -34 0 -7 -134 42 -168 61 -24 14 -76 31 -116 39 -101 21 -173 57 -230
116 -27 27 -46 50 -42 50 11 0 94 -38 261 -118 28 -13 -38 40 -71 57 -21 12
-32 21 -24 21 10 0 11 3 4 8 -6 4 -19 22 -29 41 -11 23 -20 30 -25 22 -11 -19
-66 9 -125 64 -52 48 -100 75 -135 75 -33 0 -23 19 14 25 27 6 39 2 55 -14 12
-12 25 -21 30 -21 9 0 71 -45 106 -77 11 -10 36 -24 55 -31 99 -36 122 -43
128 -38 8 8 -1 15 -24 19 -10 1 -35 11 -54 21 -19 10 -48 25 -65 34 -41 21
-175 121 -175 131 0 12 51 1 78 -17 13 -8 22 -10 22 -4 0 13 -16 24 -55 37
-16 6 -29 16 -28 22 1 6 -11 13 -27 17 -17 3 -30 10 -30 16 0 13 17 13 25 0z
m310 1 c8 -15 -13 -23 -38 -15 -21 7 -21 7 -2 15 27 10 33 10 40 0z m-812 -21
c21 -12 47 -18 57 -15 22 7 115 -43 150 -80 13 -14 29 -25 36 -25 7 0 18 -9
24 -20 7 -13 21 -20 38 -20 31 0 71 -24 60 -35 -11 -12 -98 18 -122 41 -26 26
-152 95 -183 100 -19 4 -117 55 -132 70 -14 13 41 1 72 -16z m47 -84 c23 -20
50 -27 51 -13 0 7 4 2 10 -11 6 -17 14 -22 28 -17 12 3 21 0 25 -10 3 -8 12
-15 20 -15 8 0 26 -12 39 -26 14 -14 47 -33 75 -42 52 -17 63 -34 25 -38 -12
-1 -29 6 -39 17 -9 10 -25 19 -35 19 -10 0 -21 5 -24 10 -9 14 -85 48 -132 58
-22 5 -48 15 -59 21 -18 12 -18 12 1 6 13 -4 8 6 -18 29 -22 21 -43 33 -52 30
-8 -4 -15 -2 -15 4 0 6 -3 18 -6 27 -5 12 4 10 42 -10 26 -14 55 -32 64 -39z
m275 41 c26 -14 80 -10 114 8 16 8 33 10 41 5 9 -6 0 -12 -31 -19 -24 -6 -52
-16 -61 -21 -37 -21 -106 -4 -137 34 -12 14 -10 15 20 10 19 -4 43 -11 54 -17z
m405 -23 c0 -8 -4 -12 -10 -9 -5 3 -10 10 -10 16 0 5 5 9 10 9 6 0 10 -7 10
-16z m-409 -31 c64 -6 69 -17 14 -26 -28 -5 -44 0 -73 20 -20 14 -28 23 -18
19 11 -4 45 -9 77 -13z m509 -2 c0 -15 -16 -22 -34 -15 -25 9 -19 24 9 24 14
0 25 -4 25 -9z m957 3 c-3 -3 -12 -4 -19 -1 -8 3 -5 6 6 6 11 1 17 -2 13 -5z
m-1847 -33 c5 -11 10 -24 10 -30 0 -17 -17 -13 -24 7 -3 9 -9 23 -12 30 -9 20
14 14 26 -7z m578 -18 c17 -24 15 -36 -5 -28 -15 7 -62 11 -157 14 -25 1 -13
13 27 27 42 15 119 8 135 -13z m427 6 c4 -6 5 -12 3 -14 -7 -8 -78 7 -78 16 0
13 68 11 75 -2z m-930 -8 c3 -5 19 -12 35 -16 17 -4 30 -10 30 -15 0 -4 28
-22 63 -40 34 -18 67 -37 72 -44 26 -30 103 -51 116 -32 10 13 59 10 72 -3 7
-7 8 -11 2 -10 -5 1 -22 -3 -37 -11 -20 -10 -36 -10 -65 -2 -56 15 -105 35
-133 53 -14 9 -47 22 -74 28 -86 21 -126 47 -126 84 0 18 34 24 45 8z m1115
-11 c0 -5 -5 -10 -11 -10 -5 0 -7 5 -4 10 3 6 8 10 11 10 2 0 4 -4 4 -10z
m-102 -12 c-7 -19 -38 -22 -38 -4 0 10 9 16 21 16 12 0 19 -5 17 -12z m187 2
c-3 -5 -18 -10 -33 -10 -21 0 -24 2 -12 10 20 13 53 13 45 0z m-687 -52 c15
-12 29 -24 31 -25 2 -2 2 -5 -1 -8 -2 -3 -19 6 -37 19 -25 19 -42 23 -81 21
-52 -3 -66 10 -28 24 31 11 85 -3 116 -31z m69 5 c17 -4 87 -53 75 -53 -35 0
-93 35 -107 63 -14 31 -14 31 3 12 10 -11 23 -21 29 -22z m548 27 c3 -5 1 -10
-4 -10 -6 0 -11 5 -11 10 0 6 2 10 4 10 3 0 8 -4 11 -10z m169 0 c33 -12 36
-50 5 -50 -15 0 -19 4 -15 16 4 11 0 15 -17 14 -41 -4 -67 0 -67 9 0 5 12 12
28 14 15 2 30 5 34 6 4 0 18 -3 32 -9z m-218 -15 c15 -11 16 -14 3 -15 -8 0
-24 7 -35 15 -15 11 -16 14 -3 15 8 0 24 -7 35 -15z m357 8 c4 -3 0 -17 -8
-30 -14 -21 -14 -23 0 -23 9 0 18 7 21 15 7 16 47 19 79 5 17 -7 16 -9 -10
-10 l-30 -2 33 -8 c18 -4 42 -6 52 -3 10 3 21 0 24 -6 7 -10 -55 -17 -106 -12
-10 1 -18 -2 -18 -7 0 -14 -76 3 -95 22 -9 9 -11 16 -5 16 6 0 10 6 9 13 -3
28 2 37 24 37 13 0 27 -3 30 -7z m-1491 -28 c4 -16 1 -25 -8 -25 -17 0 -25 15
-18 34 9 24 21 19 26 -9z m1914 0 c-4 -22 -2 -25 15 -20 24 8 25 -9 1 -57 -19
-35 -18 -37 0 -53 16 -13 23 -14 34 -4 8 6 17 9 21 5 3 -3 1 -6 -6 -6 -7 0
-10 -4 -7 -9 3 -5 -3 -11 -14 -14 -37 -10 -23 -30 16 -22 28 5 39 2 49 -12 10
-13 10 -20 2 -25 -6 -4 -9 -9 -7 -12 8 -7 119 -10 127 -3 3 4 19 7 34 7 22 0
26 -4 22 -20 -5 -18 0 -20 41 -20 39 0 46 -3 44 -17 -3 -18 1 -20 70 -22 39
-1 40 -13 6 -48 -14 -14 -22 -28 -19 -31 3 -4 10 0 15 8 5 8 11 14 12 12 2 -2
10 -1 18 2 45 14 69 12 73 -6 3 -10 0 -18 -7 -18 -7 0 -17 -9 -22 -19 -11 -23
-102 -96 -132 -106 -13 -3 -42 -17 -65 -31 -23 -13 -53 -24 -67 -23 l-25 0 25
11 c57 24 192 92 196 100 11 18 -28 6 -76 -22 -28 -16 -61 -30 -73 -30 -13 0
-27 -4 -32 -9 -14 -12 -175 -23 -175 -11 0 6 7 10 16 10 10 0 13 6 9 19 -4 14
0 20 17 24 13 4 33 15 44 25 11 11 30 23 41 26 22 7 52 36 37 36 -5 0 -27 -9
-48 -20 -27 -15 -41 -18 -50 -10 -9 7 -23 7 -46 -1 -26 -9 -34 -9 -40 2 -6 9
0 17 21 26 36 15 30 33 -11 33 -24 0 -27 3 -23 21 6 22 -1 22 -54 2 -7 -3 -13
0 -13 6 0 6 11 16 24 21 37 14 39 27 5 32 -20 3 -45 -3 -72 -18 l-42 -22 -30
26 c-22 20 -25 21 -11 5 12 -14 14 -23 7 -23 -7 0 -9 -4 -6 -10 4 -6 -4 -9
-17 -7 -13 1 -23 -3 -23 -10 0 -7 3 -12 6 -10 4 1 16 -6 26 -16 11 -9 23 -14
26 -10 4 3 7 1 7 -6 0 -9 -7 -11 -22 -6 -13 3 -30 8 -40 9 -29 4 -48 28 -48
61 0 18 -7 38 -15 45 -8 7 -15 18 -15 24 0 7 3 6 8 -2 10 -14 72 -34 72 -23 0
10 148 51 181 51 19 0 21 -2 9 -10 -21 -14 5 -13 31 1 29 15 13 30 -30 28 -53
-4 -71 10 -37 28 33 17 33 29 1 37 -17 4 -23 11 -18 19 4 6 8 18 9 27 1 8 5
24 10 35 7 18 6 18 -9 6 -15 -12 -17 -11 -17 3 0 27 -18 18 -22 -11 -3 -31
-29 -40 -77 -28 l-26 7 24 9 c23 9 23 10 6 29 -20 22 -12 40 18 40 12 0 29 5
37 10 8 5 30 10 48 10 29 0 32 -2 28 -25z m-1765 -45 c9 0 41 -18 73 -40 58
-41 72 -48 61 -30 -3 5 10 3 29 -5 20 -8 46 -15 58 -15 13 0 46 -8 74 -19 64
-23 128 -35 120 -23 -3 5 -35 17 -71 27 -68 18 -92 42 -30 31 24 -5 35 -3 35
5 0 19 53 1 77 -27 12 -13 20 -31 17 -39 -4 -10 3 -18 21 -25 14 -5 43 -23 63
-39 40 -32 83 -45 176 -56 33 -4 76 -15 95 -26 20 -10 46 -19 59 -19 14 0 36
-13 52 -30 32 -34 40 -37 40 -14 0 22 23 12 37 -17 8 -15 22 -25 39 -26 34 -3
70 -37 84 -79 7 -19 16 -34 21 -34 5 0 9 -5 9 -11 0 -6 -9 -8 -22 -3 -23 6
-23 6 2 -21 37 -40 61 -51 72 -32 12 22 38 10 35 -16 -1 -14 15 -33 58 -66
l60 -46 -30 -6 c-21 -5 -24 -7 -10 -9 52 -5 61 -7 80 -18 11 -6 16 -12 10 -12
-5 -1 17 -12 50 -25 l60 -24 -45 -2 -45 -1 40 -8 c22 -4 43 -6 48 -3 10 6 77
-19 77 -29 0 -4 6 -8 14 -8 7 0 33 -9 57 -19 25 -11 67 -25 94 -31 27 -6 56
-17 65 -24 8 -8 29 -21 45 -30 l30 -17 -27 4 c-39 6 -35 -10 5 -18 83 -17 106
-26 101 -39 -3 -8 4 -16 18 -21 20 -6 20 -8 5 -12 -10 -2 -32 0 -49 6 -17 6
-41 11 -53 11 -12 0 -39 11 -59 25 -20 14 -45 25 -55 25 -10 0 -45 13 -77 30
-32 16 -65 30 -72 30 -7 0 -11 4 -7 10 3 5 11 7 18 5 7 -3 26 -7 42 -9 17 -2
52 -8 79 -12 33 -5 47 -4 43 3 -7 11 -120 30 -224 37 -89 7 -118 27 -35 24 34
-1 65 1 68 4 7 8 -142 22 -153 15 -5 -3 -26 4 -47 17 -38 23 -38 23 -15 31 20
7 14 9 -32 14 -57 6 -154 55 -143 73 3 5 10 6 15 3 5 -4 9 -1 9 4 0 6 -7 11
-16 11 -9 0 -35 20 -60 45 -24 25 -39 45 -34 45 5 0 12 -4 15 -10 3 -5 16 -10
27 -10 15 0 -3 18 -59 59 -83 62 -100 79 -118 114 -6 12 -38 35 -71 52 -34 17
-79 42 -100 55 -28 16 -63 25 -122 31 -66 6 -97 15 -155 44 -90 46 -167 94
-167 106 0 17 -69 37 -127 36 -40 0 -87 9 -153 31 -52 17 -112 34 -132 37 -38
6 -72 30 -63 45 3 4 -2 13 -10 20 -8 7 -15 18 -15 26 0 9 14 6 53 -11 28 -14
59 -25 68 -25z m423 -1 c72 -35 86 -45 109 -81 20 -33 94 -72 163 -88 84 -20
148 -42 174 -61 14 -9 64 -28 111 -42 94 -27 127 -44 134 -68 3 -9 23 -33 45
-53 23 -21 37 -42 34 -50 -3 -8 3 -20 14 -27 10 -8 22 -27 26 -42 l7 -28 -51
26 c-33 17 -52 33 -56 49 -5 21 -74 96 -88 96 -3 0 -16 11 -29 24 -13 12 -59
35 -104 50 -44 15 -97 36 -119 46 -21 11 -56 20 -79 20 -44 0 -140 21 -167 36
-21 12 -98 113 -98 130 0 6 -18 14 -41 18 -22 4 -60 16 -82 27 -51 26 -50 26
-44 36 12 19 82 10 141 -18z m-564 -26 c0 -16 -2 -16 -34 -3 -17 6 -26 17 -26
30 0 21 1 21 30 3 17 -9 30 -23 30 -30z m1687 -15 c-18 -12 -119 -10 -112 2 3
6 -4 10 -17 11 -13 0 -18 3 -11 5 6 3 28 1 48 -5 19 -5 33 -6 30 -1 -8 13 37
17 57 6 13 -8 14 -12 5 -18z m-1618 -17 c20 -10 74 -31 121 -46 47 -15 93 -35
103 -46 17 -18 53 -28 44 -11 -6 9 108 15 133 7 11 -3 22 -14 25 -25 7 -21
182 -116 255 -139 25 -8 70 -14 100 -15 43 -1 72 -10 133 -40 42 -22 86 -49
97 -60 10 -12 34 -37 52 -56 19 -19 38 -44 42 -55 5 -13 10 -15 13 -7 7 19 25
14 19 -6 -4 -12 3 -27 19 -42 14 -13 25 -31 25 -41 0 -9 16 -26 35 -38 19 -11
35 -26 35 -33 -1 -8 -5 -7 -14 5 -7 9 -17 17 -23 17 -5 0 -42 27 -81 60 -48
41 -72 68 -72 82 0 24 -36 68 -56 68 -7 0 -34 17 -61 38 -44 36 -56 40 -148
52 -86 11 -112 18 -182 56 -45 25 -85 49 -88 54 -3 4 -18 11 -35 15 -16 3 -40
15 -53 25 -37 29 -105 48 -172 47 -55 0 -70 5 -182 64 -68 35 -125 70 -127 77
-7 16 0 15 43 -7z m-79 -6 c19 -23 8 -25 -14 -4 -11 11 -15 19 -9 19 6 0 16
-7 23 -15z m1784 9 c9 -3 16 -10 16 -16 0 -5 -5 -6 -12 -2 -6 4 -32 7 -56 5
-28 -1 -42 2 -37 8 7 12 64 15 89 5z m-1787 -60 c18 -20 33 -45 33 -55 0 -11
5 -19 12 -19 9 0 9 -3 1 -11 -8 -8 -22 -5 -52 10 -39 20 -41 24 -41 66 0 25 3
45 7 45 4 0 22 -16 40 -36z m106 -2 c46 -21 64 -38 30 -29 -10 3 -30 8 -45 11
-15 4 -32 16 -39 27 -6 12 -7 19 -2 17 4 -2 29 -14 56 -26z m1732 18 c-3 -5
-15 -10 -26 -10 -10 0 -19 -4 -19 -10 0 -5 -12 -10 -27 -10 -16 0 -35 -5 -43
-10 -10 -7 6 -8 50 -5 53 4 58 3 30 -5 -44 -12 -139 -7 -165 8 -11 6 -14 12
-7 12 6 0 12 7 12 16 0 10 6 14 18 11 13 -4 134 4 175 12 5 0 5 -3 2 -9z m305
-30 c11 -7 5 -10 -23 -10 -23 0 -36 4 -32 10 8 13 35 13 55 0z m-2002 -68 c28
-19 52 -39 52 -43 0 -12 -63 -3 -88 12 -12 8 -22 20 -22 27 0 8 -9 16 -19 19
-11 3 -17 11 -14 18 6 18 26 10 91 -33z m2231 29 c9 -6 -3 -10 -37 -12 -39 -3
-48 -1 -40 9 12 14 56 16 77 3z m-2144 -24 c28 -19 120 -38 152 -31 29 5 123
-36 298 -130 68 -36 95 -45 180 -56 110 -15 138 -28 162 -73 11 -22 17 -26 23
-17 6 10 15 6 34 -16 14 -16 26 -33 26 -37 0 -10 97 -107 106 -107 8 0 33 -32
34 -42 0 -4 -14 -5 -30 -1 -37 7 -38 -3 -2 -33 45 -40 0 -29 -60 14 -66 47
-160 142 -154 157 2 6 -3 20 -11 30 -11 16 -15 17 -22 6 -7 -11 -16 -9 -43 13
-19 14 -50 31 -69 37 -59 19 -181 70 -275 116 -49 24 -101 45 -115 47 -13 2
-62 10 -109 17 -84 12 -86 13 -137 65 -44 47 -48 54 -29 54 12 0 30 -6 41 -13z
m-187 -54 c16 -22 16 -47 0 -37 -7 5 -21 18 -31 31 -10 13 -23 23 -29 23 -7 0
-1 -11 12 -25 23 -25 23 -25 2 -25 -11 0 -28 10 -37 22 -14 21 -14 23 2 30 25
10 66 0 81 -19z m1192 -3 c8 -11 20 -20 26 -20 6 0 17 -6 24 -14 6 -8 21 -16
33 -18 12 -2 22 -10 22 -19 0 -8 13 -30 28 -49 15 -18 26 -34 24 -36 -10 -11
-71 32 -93 65 -13 21 -35 44 -48 51 -13 7 -29 23 -35 36 -13 29 -1 32 19 4z
m1173 13 c-13 -2 -33 -2 -45 0 -13 2 -3 4 22 4 25 0 35 -2 23 -4z m-2248 -33
c26 0 80 -23 87 -37 3 -8 62 -43 72 -43 3 0 3 7 -1 16 -5 14 -1 16 33 10 21
-4 53 -7 71 -6 19 0 74 -21 134 -50 56 -28 108 -50 116 -50 7 0 40 -13 73 -30
33 -16 65 -30 72 -30 21 0 79 -34 122 -71 69 -60 136 -131 136 -145 0 -7 12
-14 27 -16 14 -2 28 -8 30 -14 6 -18 -98 0 -109 19 -5 10 -16 17 -24 17 -8 0
-22 13 -32 29 -11 20 -47 45 -113 80 -53 27 -108 61 -123 74 -31 29 -167 82
-251 97 -33 7 -80 22 -104 33 -33 16 -45 19 -48 10 -7 -19 -63 -16 -98 5 -16
10 -51 26 -77 36 -27 10 -57 30 -68 46 -30 41 -25 51 15 34 19 -7 46 -14 60
-14z m2401 -81 c-2 -34 0 -74 4 -88 9 -35 3 -51 -21 -51 -11 0 -17 -4 -14 -10
3 -5 2 -10 -4 -10 -5 0 -17 -3 -27 -7 -13 -5 -16 -3 -11 10 7 20 -6 22 -36 5
-12 -6 -35 -13 -52 -15 -16 -2 -34 -8 -40 -15 -7 -8 -4 -9 13 -5 12 3 22 1 22
-4 0 -10 -38 -32 -60 -35 -8 -1 -28 -4 -45 -8 -25 -5 -24 -3 10 12 24 12 40
26 40 36 0 18 49 42 108 53 15 3 27 12 27 19 0 8 -1 14 -2 14 -15 -1 -102 -33
-132 -49 -22 -11 -42 -19 -44 -16 -10 10 19 32 58 45 22 7 40 19 40 26 0 13
106 104 119 102 20 -2 31 4 31 16 0 8 -4 16 -9 18 -5 2 -4 14 1 28 8 22 10 23
19 8 5 -10 8 -45 5 -79z m-2567 41 c10 0 26 -8 37 -17 11 -10 30 -27 43 -38
l24 -20 -7 23 c-4 12 -4 22 1 22 20 0 106 -38 113 -51 5 -7 12 -10 16 -6 4 4
12 3 18 -3 7 -5 43 -11 81 -14 37 -3 75 -12 84 -19 32 -27 45 -32 38 -12 -6
14 -4 16 15 10 13 -4 37 -9 53 -12 17 -2 48 -13 70 -22 22 -10 58 -24 80 -31
22 -7 48 -23 58 -36 16 -21 49 -42 162 -104 52 -29 87 -61 81 -76 -2 -6 1 -17
7 -23 21 -21 -18 -12 -54 12 -19 13 -42 26 -51 30 -21 7 -24 27 -5 27 6 1 1 7
-13 15 -14 8 -32 12 -41 9 -9 -2 -24 5 -35 17 -10 12 -36 30 -56 40 -21 11
-48 33 -60 49 -15 21 -38 35 -73 45 -82 23 -115 25 -115 9 0 -9 4 -13 9 -9 10
5 121 -40 131 -53 3 -5 36 -28 75 -52 38 -24 75 -48 81 -54 32 -30 101 -83
154 -117 42 -27 58 -43 54 -54 -4 -9 -1 -15 9 -15 8 0 26 -9 40 -20 14 -11 33
-20 44 -20 10 0 27 -8 38 -16 19 -15 18 -16 -15 -9 -64 13 -177 67 -232 110
-24 19 -54 35 -67 35 -13 0 -42 16 -65 35 -22 19 -48 41 -56 47 -17 14 -69 36
-115 48 -16 4 -54 17 -82 28 -40 15 -53 17 -53 7 0 -8 40 -27 98 -46 102 -34
128 -48 204 -115 27 -23 68 -50 93 -60 25 -11 45 -25 45 -31 0 -7 3 -13 8 -14
4 0 16 -2 27 -3 37 -5 181 -84 164 -90 -8 -4 -32 0 -52 9 -45 19 -51 19 -43 0
3 -8 0 -15 -7 -15 -18 0 -132 98 -132 113 0 7 -13 12 -30 12 -17 0 -55 13 -85
30 -70 37 -110 55 -110 49 0 -3 -10 2 -22 10 -27 19 -48 21 -48 4 0 -6 3 -8 6
-5 6 6 58 -20 219 -110 105 -58 143 -86 149 -105 2 -10 13 -18 24 -18 22 0 48
-25 34 -34 -15 -9 -83 27 -78 41 4 9 -6 13 -35 13 -24 0 -52 8 -67 19 -15 10
-38 22 -52 26 -14 4 -27 11 -30 14 -11 15 -98 41 -137 41 -35 0 -45 6 -76 41
-41 46 -102 73 -192 84 -65 8 -249 82 -326 131 -46 29 -46 31 -32 57 l14 27
27 -20 c29 -21 235 -90 267 -90 19 1 20 1 1 12 -11 6 -70 27 -132 48 -119 39
-163 71 -164 118 0 28 4 28 48 -7 20 -17 60 -35 87 -42 28 -7 66 -20 86 -30
39 -19 166 -45 176 -35 7 7 -41 26 -65 26 -10 0 -33 11 -52 23 -38 26 -84 41
-74 25 4 -6 -8 -7 -33 -2 -59 11 -81 21 -129 62 -31 27 -43 45 -44 65 0 27 0
27 30 12 17 -9 30 -21 30 -28 0 -12 62 -67 76 -67 4 0 -1 9 -10 19 -13 15 -14
20 -4 23 21 8 -6 33 -67 63 -47 22 -55 31 -54 53 l0 27 16 -22 c8 -13 23 -23
32 -23z m1901 10 c0 -5 -19 -10 -42 -9 -37 1 -39 2 -18 9 36 12 60 12 60 0z
m60 -18 c0 -4 -29 -17 -65 -29 -36 -12 -65 -20 -65 -18 0 15 14 33 23 29 7 -2
30 3 52 11 47 17 55 18 55 7z m-10 -42 c0 -5 -2 -10 -4 -10 -3 0 -8 5 -11 10
-3 6 -1 10 4 10 6 0 11 -4 11 -10z m10 -32 c0 -4 -18 -8 -41 -8 -22 0 -38 4
-35 9 7 11 76 10 76 -1z m-130 -8 c0 -5 -7 -7 -15 -4 -8 4 -15 8 -15 10 0 2 7
4 15 4 8 0 15 -4 15 -10z m143 -41 c-7 -7 -22 -9 -40 -4 l-28 9 35 6 c40 7 48
4 33 -11z m-521 -31 c14 -13 29 -32 32 -44 5 -17 2 -21 -19 -20 -32 2 -40 11
-58 63 -13 39 -13 42 2 33 9 -5 28 -19 43 -32z m223 -8 c3 -5 2 -10 -4 -10 -5
0 -13 5 -16 10 -3 6 -2 10 4 10 5 0 13 -4 16 -10z m-54 -50 c35 -18 39 -19 39
-4 0 13 3 14 15 4 8 -7 12 -17 9 -22 -3 -5 2 -18 13 -30 10 -11 16 -23 14 -27
-3 -3 4 -8 13 -9 10 -2 38 -19 62 -38 25 -18 61 -36 82 -40 20 -4 45 -14 56
-23 13 -12 41 -17 103 -18 110 -2 138 -9 187 -45 30 -22 35 -28 16 -23 -13 4
-45 9 -70 11 -25 2 -74 8 -110 12 -36 5 -71 7 -77 5 -7 -3 -27 4 -45 15 -18
11 -50 25 -70 31 -20 7 -78 39 -127 72 -50 32 -100 59 -112 59 -11 0 -33 14
-47 30 -28 32 -48 40 -39 16 4 -9 -1 -16 -11 -19 -15 -3 -14 -5 3 -12 11 -4
39 -16 62 -26 24 -10 46 -19 50 -19 9 0 99 -60 91 -60 -3 0 -25 7 -49 15 -24
9 -52 14 -62 11 -11 -2 -17 -2 -14 1 3 3 -3 14 -13 25 -13 14 -27 19 -44 16
-15 -3 -26 -1 -26 5 0 6 -15 23 -32 39 -21 19 -25 25 -12 19 30 -15 53 12 36
40 -7 10 -12 23 -12 28 0 10 65 -11 121 -39z m387 38 c-2 -7 7 -14 20 -16 13
-2 21 -9 19 -15 -5 -15 -33 -21 -55 -11 -9 4 -24 7 -32 6 -8 -1 -5 3 8 10 12
6 22 17 22 25 0 7 5 13 10 13 6 0 9 -6 8 -12z m552 -123 c0 -80 -2 -93 -15
-89 -8 4 -15 15 -15 26 0 12 -6 19 -17 17 -49 -4 -60 15 -18 31 30 11 34 40 6
40 -34 0 -32 16 7 43 20 14 40 25 45 26 4 1 7 -42 7 -94z m-1060 0 c0 -1 -22
4 -49 13 -27 10 -44 20 -39 23 6 4 7 12 3 19 -5 7 13 -1 38 -19 26 -18 47 -34
47 -36z m595 55 c-3 -5 -16 -10 -28 -10 -18 0 -19 2 -7 10 20 13 43 13 35 0z
m329 -35 c3 -8 1 -15 -4 -15 -6 0 -10 5 -10 11 0 8 -4 8 -14 0 -7 -6 -22 -8
-32 -4 -17 6 -16 8 6 14 39 11 47 10 54 -6z m-201 -2 c-7 -2 -19 -2 -25 0 -7
3 -2 5 12 5 14 0 19 -2 13 -5z m-2220 -57 c30 -19 210 -86 233 -86 15 -1 13
-4 -8 -16 -18 -9 -25 -20 -21 -29 4 -12 8 -13 19 -4 17 14 80 5 103 -14 20
-18 77 -37 108 -37 13 0 35 -12 48 -26 27 -29 34 -54 11 -35 -8 7 -26 14 -40
17 -36 6 -35 -22 2 -29 180 -37 191 -42 417 -195 43 -29 89 -55 103 -59 13 -3
44 -18 69 -32 81 -47 88 -51 106 -51 9 0 17 4 17 8 0 10 -142 85 -190 101 -19
6 -46 21 -60 32 l-25 20 33 -4 c17 -2 32 0 32 5 0 4 -17 8 -38 8 -45 0 -56 8
-41 27 13 15 1 17 -21 3 -9 -5 -19 -5 -26 1 -17 14 -95 57 -125 70 -15 5 -29
18 -32 28 -3 13 -18 20 -48 25 -24 4 -55 13 -68 20 l-24 13 27 7 c18 4 43 0
74 -15 26 -11 55 -22 65 -24 10 -2 39 -18 65 -35 26 -17 58 -33 72 -37 14 -3
48 -16 75 -28 28 -13 71 -32 98 -44 26 -11 71 -42 100 -69 62 -59 143 -112
171 -112 10 0 17 -2 15 -4 -2 -3 -55 -7 -117 -11 l-113 -7 -89 46 c-48 25 -97
46 -107 46 -11 0 -44 18 -73 40 -29 22 -55 40 -57 40 -15 0 20 -45 59 -75 7
-6 55 -26 106 -45 50 -19 92 -38 92 -42 0 -4 -37 -8 -82 -8 -80 0 -85 1 -143
41 -33 22 -62 44 -65 48 -8 11 -126 81 -137 81 -5 0 -20 11 -33 25 -13 14 -30
25 -37 25 -20 0 -182 79 -231 112 -24 17 -53 31 -65 33 -48 5 -164 39 -197 56
-19 11 -40 19 -47 19 -18 0 -27 21 -13 30 7 4 24 4 39 0 26 -8 82 -23 158 -41
23 -6 77 -30 120 -54 104 -59 130 -71 183 -86 25 -7 81 -31 125 -53 132 -65
140 -69 130 -59 -16 15 -115 83 -120 83 -3 0 -22 11 -43 23 -20 13 -61 30 -90
36 -29 7 -68 23 -86 36 -19 13 -51 31 -72 41 -36 17 -37 19 -14 24 21 5 18 8
-25 25 -28 10 -70 31 -95 46 -43 26 -195 79 -226 79 -12 0 -15 9 -13 38 4 51
7 55 35 38 13 -9 34 -22 47 -30z m1492 24 c61 -16 85 -29 79 -45 -4 -9 -1 -15
8 -15 8 0 40 -14 72 -31 41 -22 54 -35 47 -42 -7 -7 -17 -7 -33 0 -13 6 -38
17 -57 24 -29 11 -31 14 -15 19 14 5 10 8 -18 14 -20 3 -41 13 -48 20 -9 12
-7 13 11 9 14 -4 20 -2 16 4 -4 6 -29 16 -56 23 -28 6 -56 19 -63 28 -11 14
-10 15 7 8 11 -5 34 -12 50 -16z m669 -40 c63 0 56 -7 -18 -18 -38 -6 -70 -6
-92 1 -44 13 -24 30 26 22 19 -2 57 -5 84 -5z m-455 -38 c-14 -3 -89 24 -89
32 0 2 23 -3 52 -12 28 -10 45 -18 37 -20z m68 -18 c-2 -2 -12 -1 -24 2 -14 4
-20 11 -16 20 5 13 8 12 24 -2 11 -10 18 -19 16 -20z m261 21 c3 -3 -13 -5
-36 -5 -22 0 -43 4 -47 9 -5 10 73 6 83 -4z m247 -20 c28 -10 58 -22 68 -27
10 -5 27 -6 38 -3 10 4 34 -1 52 -11 17 -9 52 -25 77 -35 29 -12 38 -18 23
-19 -11 0 -45 11 -74 25 -29 13 -63 22 -74 19 -11 -2 -72 9 -135 25 -102 26
-112 30 -90 40 29 12 46 10 115 -14z m-940 -39 c23 -20 26 -25 13 -26 -31 0
-19 -20 11 -20 17 0 33 -4 36 -10 3 -5 -2 -10 -11 -10 -28 0 -6 -14 23 -15 15
0 28 -5 30 -10 3 -11 -67 -9 -97 2 -12 4 -11 7 5 13 17 7 16 9 -10 10 -16 0
-43 12 -60 26 l-30 25 37 -3 c20 -1 41 2 45 6 4 5 3 6 -3 3 -7 -4 -23 2 -37
13 -14 11 -32 20 -41 20 -19 0 -21 16 -3 23 15 5 52 -14 92 -47z m-1313 13
c34 -11 78 -29 97 -39 31 -16 33 -19 13 -20 -13 0 -35 6 -50 14 -15 7 -53 17
-84 20 -54 7 -71 20 -51 39 9 9 5 10 75 -14z m268 7 c0 -3 -4 -8 -10 -11 -5
-3 -10 -1 -10 4 0 6 5 11 10 11 6 0 10 -2 10 -4z m1585 -27 c42 -21 79 -31
125 -34 115 -9 159 -16 171 -31 10 -12 4 -14 -31 -14 -24 0 -60 -5 -80 -11
-41 -12 -32 -16 -161 58 -19 11 -50 24 -67 28 -18 3 -32 13 -32 21 0 19 7 18
75 -17z m-490 11 c3 -5 2 -10 -4 -10 -5 0 -13 5 -16 10 -3 6 -2 10 4 10 5 0
13 -4 16 -10z m-591 -26 c5 -14 4 -15 -9 -4 -17 14 -19 20 -6 20 5 0 12 -7 15
-16z m-362 -18 c21 -15 21 -16 3 -15 -11 0 -38 9 -60 20 l-40 19 37 -4 c21 -3
48 -12 60 -20z m673 2 c31 -20 45 -38 30 -38 -10 0 -105 50 -105 55 0 13 44 3
75 -17z m130 -6 c17 -8 41 -23 54 -33 l24 -19 -24 -1 c-25 -1 -22 -3 26 -15
l30 -8 -35 -5 c-39 -7 -80 7 -80 27 0 6 -9 12 -19 12 -10 0 -21 7 -25 15 -3 8
-20 24 -38 36 l-33 20 45 -6 c25 -4 59 -14 75 -23z m531 12 c-3 -8 7 -10 33
-7 25 3 41 1 46 -7 5 -9 1 -10 -16 -6 -17 5 -20 4 -9 -2 8 -6 33 -12 56 -15
23 -3 64 -20 92 -38 l50 -31 64 16 c82 20 98 20 127 -5 30 -25 21 -35 -18 -21
-22 8 -32 8 -38 -1 -3 -6 -1 -13 5 -15 24 -8 11 -31 -20 -37 -23 -5 -35 -3
-42 7 -6 8 -22 18 -36 23 -14 4 -52 22 -85 40 -33 18 -85 38 -115 45 -30 6
-80 24 -110 40 l-55 28 38 -1 c23 -1 35 -6 33 -13z m-320 -9 c16 -8 37 -15 46
-15 9 0 20 -5 24 -11 11 -19 -66 0 -94 22 -29 23 -16 25 24 4z m971 -10 c12
-1 28 -6 35 -11 7 -6 33 -16 56 -23 24 -7 42 -15 39 -17 -3 -3 -29 2 -58 10
-65 19 -166 60 -124 50 17 -4 40 -8 52 -9z m-1323 -29 c6 -7 32 -19 59 -26 26
-7 50 -17 53 -21 3 -5 12 -9 21 -9 9 0 40 -16 69 -35 29 -19 56 -35 61 -35 4
0 21 -11 37 -24 l30 -23 -55 7 c-68 10 -89 18 -89 36 0 8 -10 14 -25 14 -36 0
-75 21 -75 40 0 16 -38 40 -63 40 -7 0 -20 9 -30 20 -9 11 -23 20 -31 20 -8 0
-18 5 -22 11 -10 16 46 2 60 -15z m1228 -16 c10 -10 42 -26 73 -34 30 -9 55
-19 55 -23 0 -21 -196 43 -230 76 -12 12 -8 13 35 7 28 -5 58 -16 67 -26z
m123 0 c49 -25 25 -25 -35 0 -28 12 -37 19 -25 19 12 1 38 -8 60 -19z m-852
-12 c23 -11 85 -36 137 -55 52 -19 106 -41 120 -51 14 -9 36 -18 50 -20 14 -2
33 -11 43 -20 16 -17 16 -18 -3 -19 -11 -1 -18 2 -15 6 7 12 -31 21 -92 21
-33 0 -55 5 -60 14 -4 7 -33 16 -64 19 -84 8 -160 55 -95 58 18 1 18 2 -4 9
-14 4 -38 5 -53 2 -23 -4 -29 0 -34 17 -3 12 -13 21 -24 21 -10 0 -21 5 -24
10 -12 19 75 10 118 -12z m-1578 -8 c32 -11 68 -20 79 -20 12 0 30 -7 40 -15
11 -8 31 -15 44 -15 14 0 49 -16 78 -35 63 -42 172 -95 196 -95 9 0 29 -11 45
-24 15 -13 53 -36 83 -51 30 -15 78 -44 105 -65 28 -20 61 -44 74 -53 24 -16
24 -16 -20 -14 -25 2 -56 11 -69 20 -14 9 -29 17 -35 17 -32 0 -159 74 -206
120 -70 69 -122 97 -192 103 -87 8 -184 50 -240 102 -26 25 -46 45 -44 45 2 0
30 -9 62 -20z m1442 -6 c13 -4 20 -10 17 -15 -3 -5 -10 -7 -15 -4 -5 4 -9 -1
-9 -9 0 -9 8 -14 20 -13 11 1 20 5 20 10 0 12 81 -35 87 -50 3 -7 9 -10 14 -7
5 3 9 0 9 -6 0 -6 6 -10 13 -9 19 4 97 -12 131 -27 30 -13 30 -13 6 -15 -21
-1 -19 -3 10 -10 19 -5 53 -8 75 -7 51 2 148 -27 197 -60 21 -13 38 -26 38
-28 0 -16 -216 29 -271 56 -9 5 -36 14 -59 20 -28 8 -39 14 -31 19 9 6 6 10
-9 14 -15 4 -20 2 -16 -8 5 -15 -92 30 -109 50 -5 7 -26 15 -44 19 -55 10
-110 37 -104 52 3 8 -8 17 -29 23 l-33 9 35 1 c19 0 45 -2 57 -5z m1091 -21
c2 -8 -6 -13 -22 -13 -25 0 -33 10 -19 24 10 10 36 3 41 -11z m-2549 -32 c26
-22 73 -48 107 -59 51 -17 124 -69 124 -89 0 -21 -124 39 -160 77 -21 22 -89
68 -105 71 -11 3 -21 12 -23 22 -5 25 5 21 57 -22z m1336 29 c3 -5 14 -10 23
-10 24 -1 83 -50 60 -50 -21 0 -118 51 -118 63 0 11 28 9 35 -3z m993 -10 c22
-11 50 -20 61 -20 30 0 73 -19 87 -38 29 -38 25 -37 -148 42 -26 11 -47 24
-48 29 0 10 1 10 48 -13z m187 -14 c19 -8 35 -20 35 -25 0 -14 1 -14 -48 9
-63 31 -52 43 13 16z m-1356 -5 c7 -5 10 -14 6 -21 -5 -7 -1 -11 11 -10 32 4
44 1 44 -11 0 -6 -17 -9 -42 -7 -28 2 -42 7 -40 16 1 6 -2 12 -6 12 -5 0 -17
7 -28 15 -18 14 -18 14 11 15 17 0 36 -4 44 -9z m1151 -16 c16 -19 3 -19 -30
0 -24 13 -24 14 -4 15 12 0 27 -7 34 -15z m-34 -45 c3 0 2 5 -2 12 -5 8 -2 9
10 5 10 -4 22 -7 27 -7 5 0 9 -8 9 -18 0 -13 24 -29 88 -56 48 -22 102 -46
120 -54 26 -12 33 -22 38 -53 4 -22 11 -42 15 -45 5 -3 9 -12 9 -20 0 -12 -3
-12 -20 -2 -11 7 -20 22 -20 33 0 14 -15 27 -51 45 -79 38 -111 59 -104 69 7
12 -31 25 -45 16 -5 -3 -10 2 -11 12 0 10 -3 13 -6 6 -7 -19 -20 -16 -26 7 -3
12 -14 20 -26 20 -19 0 -81 51 -81 66 0 3 16 -3 36 -15 19 -12 37 -21 40 -21z
m-1089 -47 c52 -41 222 -125 243 -121 8 2 -23 23 -70 47 -104 52 -180 100
-180 112 0 12 87 12 94 0 3 -4 19 -11 35 -14 16 -4 45 -20 64 -36 19 -17 61
-40 93 -52 32 -12 75 -34 94 -49 45 -34 71 -48 134 -70 l51 -19 -145 -1 c-80
-1 -167 -4 -194 -6 -35 -3 -64 1 -105 18 -56 22 -170 99 -206 138 l-18 20 39
-16 c21 -9 57 -28 79 -43 53 -36 261 -110 226 -81 -13 11 -29 20 -35 20 -25 0
-138 51 -178 80 -23 17 -48 30 -57 30 -28 0 -83 40 -77 55 4 11 -2 15 -23 15
-15 0 -36 9 -46 20 -17 19 -17 19 34 13 39 -4 51 -3 51 7 0 9 10 4 28 -11 15
-13 46 -39 69 -56z m-1157 37 l35 -30 -45 6 c-64 8 -70 11 -70 34 0 30 39 26
80 -10z m1556 -13 c38 -20 94 -43 124 -51 30 -8 109 -32 175 -54 66 -22 138
-43 160 -46 112 -20 136 -28 131 -42 -4 -11 5 -14 39 -14 25 0 45 -4 45 -9 0
-5 -51 -8 -114 -7 -86 1 -112 4 -109 14 6 14 23 16 23 2 0 -5 5 -10 11 -10 5
0 7 5 4 10 -4 6 5 10 21 10 15 0 25 2 22 5 -2 3 -47 7 -99 9 -129 5 -164 13
-235 52 -33 19 -69 34 -79 34 -22 0 -163 68 -172 83 -4 6 0 8 10 4 9 -3 19 -2
22 3 4 6 -11 10 -33 10 -35 0 -112 24 -112 35 0 2 22 2 48 1 31 -3 74 -17 118
-39z m956 18 c6 -29 0 -32 -18 -7 -17 22 -17 32 0 32 7 0 16 -11 18 -25z
m-342 -10 c0 -8 6 -12 13 -9 7 2 21 -2 31 -9 18 -13 18 -14 -2 -19 -23 -6 -83
21 -90 40 -2 7 7 12 22 12 16 0 26 -6 26 -15z m-630 -71 c58 -29 119 -56 135
-60 17 -3 53 -19 80 -34 28 -15 82 -33 122 -40 40 -6 75 -15 78 -20 3 -4 -39
-10 -93 -12 -87 -3 -101 -1 -132 18 -19 13 -53 27 -76 33 -22 6 -65 28 -95 50
-30 21 -73 44 -95 50 -45 12 -105 49 -112 69 -8 25 82 -1 188 -54z m820 56 c0
-5 -2 -10 -4 -10 -3 0 -8 5 -11 10 -3 6 -1 10 4 10 6 0 11 -4 11 -10z m-2105
-15 c22 -4 42 -10 45 -14 3 -4 16 -15 29 -24 22 -15 23 -17 7 -23 -10 -4 -33
1 -52 10 -19 9 -40 16 -48 16 -7 0 -23 12 -37 26 -22 24 -22 26 -4 21 11 -3
38 -8 60 -12z m2263 -28 c4 -31 3 -32 -43 -13 -44 19 -45 28 -3 19 27 -5 30
-4 25 11 -5 12 -3 16 5 14 7 -3 14 -17 16 -31z m-2510 8 c54 -11 36 -20 -33
-17 -36 2 -65 7 -65 11 0 15 15 22 40 17 14 -3 40 -8 58 -11z m2247 -40 c22
-10 49 -20 59 -22 11 -2 25 -8 33 -14 7 -6 20 -9 28 -5 8 3 15 1 15 -4 0 -6 6
-10 13 -10 20 -1 89 -47 79 -54 -5 -3 -22 4 -38 17 -16 12 -29 20 -29 19 0 -8
-75 11 -81 19 -3 5 -25 9 -49 9 -24 0 -50 6 -57 13 -7 8 -43 23 -78 35 l-65
21 65 -3 c36 -2 83 -11 105 -21z m-180 5 l20 -9 -20 0 c-11 0 -27 4 -35 9 -13
9 -13 10 0 9 8 0 24 -4 35 -9z m-2117 -12 c-2 -7 8 -14 22 -16 24 -4 25 -3 5
12 -19 16 -19 16 10 10 17 -4 38 -14 47 -23 31 -29 43 -37 106 -71 34 -18 62
-37 62 -41 0 -5 -9 -13 -21 -19 -17 -10 -21 -8 -26 7 -12 42 -143 113 -208
113 -31 0 -53 27 -28 33 30 8 33 7 31 -5z m132 -3 c7 -8 9 -15 6 -15 -4 0 -14
7 -22 15 -9 8 -11 15 -6 15 5 0 15 -7 22 -15z m170 -3 c0 -5 -7 -9 -15 -9 -8
0 -12 4 -9 9 3 4 9 8 15 8 5 0 9 -4 9 -8z m141 -29 c59 -48 73 -62 63 -63 -13
0 -94 62 -94 72 0 12 8 10 31 -9z m-52 -19 c41 -24 39 -33 -8 -30 -37 2 -91
28 -91 44 0 14 68 4 99 -14z m-149 6 c0 -5 -6 -10 -12 -11 -21 -1 94 -40 132
-46 58 -8 64 -11 46 -28 -23 -24 -50 -18 -143 30 -111 58 -118 65 -65 65 23 0
42 -4 42 -10z m1985 -5 c28 -1 73 -10 100 -19 28 -10 64 -20 80 -23 59 -10 62
-24 5 -19 -30 3 -47 3 -37 0 9 -3 17 -14 17 -25 0 -18 -2 -18 -32 -5 -18 7
-32 18 -30 25 1 6 -7 11 -19 11 -12 0 -35 7 -52 15 -18 8 -61 21 -96 29 -73
17 -97 33 -31 21 25 -5 68 -9 95 -10z m-2161 -21 c9 -8 16 -19 16 -24 0 -5 19
-15 43 -22 40 -12 41 -12 13 -16 -16 -2 -32 2 -36 8 -4 7 -29 14 -56 17 -44 5
-74 23 -74 45 0 15 78 8 94 -8z m571 -64 c3 0 5 -4 5 -10 0 -5 -18 -10 -40
-10 -29 0 -40 4 -40 15 0 9 -7 18 -15 21 -8 4 -15 10 -15 15 0 5 23 0 50 -11
28 -11 53 -20 55 -20z m1855 26 c0 -3 -4 -8 -10 -11 -5 -3 -10 -1 -10 4 0 6 5
11 10 11 6 0 10 -2 10 -4z m-1970 -26 c0 -5 -7 -10 -16 -10 -8 0 -12 5 -9 10
3 6 10 10 16 10 5 0 9 -4 9 -10z m1797 -16 c-3 -3 -12 -4 -19 -1 -8 3 -5 6 6
6 11 1 17 -2 13 -5z"/>
<path d="M840 2110 c-12 -16 -18 -30 -14 -30 9 0 44 41 44 52 0 15 -8 9 -30
-22z"/>
<path d="M840 2055 c-24 -24 -41 -47 -38 -51 7 -6 98 76 98 88 0 17 -18 6 -60
-37z"/>
<path d="M780 2039 c0 -5 5 -7 10 -4 6 3 10 8 10 11 0 2 -4 4 -10 4 -5 0 -10
-5 -10 -11z"/>
<path d="M585 1964 c-77 -61 -104 -77 -89 -52 4 7 3 8 -5 4 -6 -4 -9 -12 -6
-17 4 -5 -1 -9 -10 -9 -9 0 -15 -6 -12 -12 7 -22 45 -12 89 23 46 36 123 117
117 123 -2 2 -40 -25 -84 -60z"/>
<path d="M687 2023 c-4 -3 -7 -11 -7 -17 0 -6 5 -5 12 2 6 6 9 14 7 17 -3 3
-9 2 -12 -2z"/>
<path d="M661 1953 c-18 -12 -22 -13 -17 -2 4 8 -9 -4 -28 -26 -20 -22 -36
-43 -36 -47 0 -16 19 -7 38 17 11 14 24 25 29 25 5 0 20 11 33 25 27 29 16 33
-19 8z"/>
<path d="M690 1910 c-36 -33 -68 -60 -72 -60 -5 0 -8 -7 -8 -16 0 -15 2 -15
23 0 12 9 36 25 52 36 17 11 30 23 29 27 0 5 12 19 28 33 27 24 36 40 21 40
-5 -1 -37 -28 -73 -60z"/>
<path d="M2503 1940 c-6 -17 -7 -30 -2 -30 9 0 24 48 17 55 -2 2 -9 -9 -15
-25z"/>
<path d="M2581 1954 c0 -11 3 -14 6 -6 3 7 2 16 -1 19 -3 4 -6 -2 -5 -13z"/>
<path d="M2615 1950 c-4 -6 3 -10 14 -10 25 0 27 6 6 13 -8 4 -17 2 -20 -3z"/>
<path d="M2433 1864 c-10 -14 -30 -37 -45 -51 -16 -15 -28 -33 -28 -40 0 -12
27 16 92 96 10 11 14 21 8 21 -5 0 -17 -12 -27 -26z"/>
<path d="M2390 1849 c0 -5 5 -7 10 -4 6 3 10 8 10 11 0 2 -4 4 -10 4 -5 0 -10
-5 -10 -11z"/>
<path d="M2435 1811 c-9 -16 -14 -81 -6 -81 8 0 41 60 41 73 0 9 -29 16 -35 8z"/>
<path d="M2500 1761 c0 -5 -3 -18 -6 -28 -5 -16 -4 -16 10 1 18 23 20 36 6 36
-5 0 -10 -4 -10 -9z"/>
<path d="M2502 1697 c-14 -17 -10 -59 6 -65 15 -5 26 42 15 63 -8 14 -11 14
-21 2z"/>
<path d="M2400 1693 c0 -5 -16 -25 -35 -46 -19 -21 -35 -42 -35 -48 0 -20 18
-7 47 34 42 59 46 67 34 67 -6 0 -11 -3 -11 -7z"/>
<path d="M2432 1633 c-12 -19 -21 -37 -19 -39 2 -3 16 14 31 36 14 22 23 40
19 40 -5 -1 -18 -17 -31 -37z"/>
<path d="M2526 1575 c-4 -14 -11 -25 -16 -25 -6 0 -10 -10 -10 -22 0 -19 3
-18 25 12 25 34 32 60 16 60 -5 0 -12 -11 -15 -25z"/>
<path d="M2370 1571 c-8 -6 -18 -7 -22 -5 -4 3 -8 1 -8 -5 0 -20 18 -20 35 -1
20 22 18 25 -5 11z"/>
<path d="M2605 1550 c-3 -5 -1 -10 4 -10 6 0 11 5 11 10 0 6 -2 10 -4 10 -3 0
-8 -4 -11 -10z"/>
<path d="M2170 1465 c0 -17 2 -18 24 -9 18 7 12 24 -10 24 -8 0 -14 -7 -14
-15z"/>
<path d="M2515 1470 c-3 -5 -1 -10 4 -10 6 0 11 5 11 10 0 6 -2 10 -4 10 -3 0
-8 -4 -11 -10z"/>
<path d="M856 1479 c19 -22 73 -49 96 -49 7 0 0 11 -17 24 -16 13 -34 22 -41
19 -6 -2 -17 3 -24 12 -7 8 -17 15 -23 15 -5 0 -2 -10 9 -21z"/>
<path d="M970 1431 c0 -8 41 -23 47 -17 2 1 -8 8 -22 14 -14 6 -25 8 -25 3z"/>
<path d="M1105 1326 c45 -19 98 -27 115 -16 12 8 12 10 -3 16 -10 3 -29 4 -42
2 -14 -3 -25 -1 -25 3 0 5 -17 9 -37 9 l-38 -1 30 -13z"/>
<path d="M1345 1310 c53 -31 80 -30 44 1 -12 10 -25 20 -28 20 -3 1 -19 3 -36
5 -27 3 -25 0 20 -26z"/>
<path d="M988 1323 c-24 -6 -23 -23 0 -23 10 0 38 -9 61 -21 24 -11 45 -18 48
-15 5 5 -76 67 -86 65 -3 -1 -14 -3 -23 -6z"/>
<path d="M1270 1296 c0 -2 7 -6 15 -10 8 -3 15 -1 15 4 0 6 -7 10 -15 10 -8 0
-15 -2 -15 -4z"/>
<path d="M1137 1256 c16 -13 46 -28 67 -31 37 -7 37 -7 24 14 -15 25 -40 35
-67 26 -11 -3 -22 -1 -26 5 -3 5 -11 10 -16 10 -6 0 2 -11 18 -24z"/>
<path d="M1520 1247 c107 -57 124 -67 162 -98 22 -19 44 -43 49 -54 26 -56 57
-101 88 -124 19 -14 31 -19 26 -11 -5 8 -17 21 -28 29 -24 17 -62 104 -48 109
18 6 12 22 -7 22 -10 0 -29 12 -43 26 -13 14 -46 37 -74 51 -27 14 -60 33 -75
43 -14 10 -41 21 -60 25 l-35 6 45 -24z"/>
<path d="M1580 1255 c7 -8 22 -14 34 -14 20 2 20 2 -1 6 -13 2 -23 9 -23 14 0
5 -5 9 -11 9 -8 0 -8 -5 1 -15z"/>
<path d="M1360 1225 c7 -8 17 -15 22 -15 6 0 5 7 -2 15 -7 8 -17 15 -22 15 -6
0 -5 -7 2 -15z"/>
<path d="M1408 1227 c7 -8 24 -18 39 -22 28 -7 59 -33 50 -42 -4 -3 -22 4 -41
15 -30 18 -35 18 -38 5 -2 -12 -7 -11 -30 6 -29 23 -52 28 -46 9 3 -7 24 -19
49 -26 24 -8 58 -20 74 -27 26 -12 30 -12 33 0 5 24 39 17 84 -15 22 -16 46
-30 53 -30 20 0 115 -103 115 -125 1 -18 1 -19 11 -2 18 31 -60 108 -171 168
-52 29 -106 60 -120 70 -14 9 -36 20 -50 24 -22 7 -23 6 -12 -8z"/>
<path d="M1107 1216 c-4 -10 7 -16 41 -21 26 -4 71 -15 100 -25 29 -10 50 -14
46 -9 -7 12 -47 29 -83 35 -13 3 -36 11 -52 19 -35 19 -45 19 -52 1z"/>
<path d="M1270 1211 c0 -5 13 -11 30 -13 24 -4 27 -2 19 9 -13 15 -49 18 -49
4z"/>
<path d="M1553 1073 c15 -16 27 -34 27 -40 0 -11 51 -53 65 -53 4 0 -7 16 -24
35 -17 20 -31 40 -31 45 0 5 -15 17 -32 26 l-33 16 28 -29z"/>
<path d="M1660 976 c0 -2 7 -7 16 -10 8 -3 12 -2 9 4 -6 10 -25 14 -25 6z"/>
<path d="M1880 890 c0 -5 4 -10 9 -10 5 0 13 -9 16 -21 4 -11 22 -27 41 -35
49 -21 53 -17 12 11 -21 14 -42 34 -48 45 -11 21 -30 27 -30 10z"/>
<path d="M1995 1150 c-8 -12 25 -21 42 -11 12 6 10 9 -11 13 -15 3 -29 2 -31
-2z"/>
<path d="M2147 1108 c-15 -5 -25 -14 -21 -19 3 -5 18 -3 33 6 16 8 31 11 35 8
3 -4 6 -1 6 5 0 14 -15 14 -53 0z"/>
<path d="M2448 1004 c-4 -3 -50 -21 -105 -39 -75 -26 -98 -38 -98 -52 0 -25 4
-26 58 -13 46 12 59 24 35 33 -8 3 -5 7 7 11 11 4 34 13 50 21 17 7 38 16 48
19 9 3 17 10 17 16 0 11 -4 13 -12 4z m-139 -78 c-15 -13 -49 -25 -49 -17 0 5
8 12 18 14 24 6 36 8 31 3z"/>
<path d="M1490 780 c0 -5 5 -10 11 -10 5 0 7 5 4 10 -3 6 -8 10 -11 10 -2 0
-4 -4 -4 -10z"/>
<path d="M1535 620 c3 -5 18 -10 33 -9 24 0 25 1 7 9 -28 12 -47 12 -40 0z"/>
<path d="M1600 610 c0 -5 5 -10 10 -10 6 0 10 5 10 10 0 6 -4 10 -10 10 -5 0
-10 -4 -10 -10z"/>
<path d="M1700 530 c19 -13 30 -13 30 0 0 6 -10 10 -22 10 -19 0 -20 -2 -8
-10z"/>
<path d="M1995 410 c3 -5 14 -10 23 -10 15 0 15 2 2 10 -20 13 -33 13 -25 0z"/>
<path d="M2063 393 c9 -2 23 -2 30 0 6 3 -1 5 -18 5 -16 0 -22 -2 -12 -5z"/>
<path d="M2158 343 c7 -3 16 -2 19 1 4 3 -2 6 -13 5 -11 0 -14 -3 -6 -6z"/>
<path d="M1350 1026 c0 -2 7 -9 15 -16 9 -7 15 -8 15 -2 0 5 -7 12 -15 16 -8
3 -15 4 -15 2z"/>
<path d="M1442 889 c2 -7 10 -15 17 -17 8 -3 12 1 9 9 -2 7 -10 15 -17 17 -8
3 -12 -1 -9 -9z"/>
<path d="M1130 848 c0 -9 5 -20 11 -23 17 -11 20 0 4 21 -13 17 -14 17 -15 2z"/>
<path d="M1020 782 c0 -10 22 -32 32 -32 5 0 3 9 -4 20 -13 20 -28 27 -28 12z"/>
<path d="M1185 640 c-3 -5 -1 -10 4 -10 6 0 11 5 11 10 0 6 -2 10 -4 10 -3 0
-8 -4 -11 -10z"/>
<path d="M2573 937 c-13 -5 -23 -13 -23 -18 0 -10 39 1 46 13 9 15 1 16 -23 5z"/>
<path d="M237 949 c-14 -8 -16 -14 -6 -25 6 -7 15 -11 19 -9 5 3 26 -1 47 -9
52 -19 103 -27 103 -16 0 5 -16 13 -35 19 -19 5 -48 19 -64 30 -33 24 -39 25
-64 10z"/>
<path d="M470 881 c0 -11 59 -36 67 -27 4 3 2 10 -3 15 -14 13 -64 23 -64 12z"/>
<path d="M410 844 c0 -6 59 -34 71 -34 24 0 -12 28 -41 32 -17 3 -30 3 -30 2z"/>
<path d="M530 798 c0 -16 3 -19 11 -11 8 8 26 6 67 -8 30 -10 63 -19 72 -19
10 0 29 -9 43 -20 18 -15 28 -17 33 -9 8 14 -20 38 -56 45 -14 4 -54 15 -89
25 -79 24 -81 24 -81 -3z"/>
<path d="M490 780 c0 -5 7 -10 15 -10 8 0 15 5 15 10 0 6 -7 10 -15 10 -8 0
-15 -4 -15 -10z"/>
<path d="M496 692 c-9 -16 1 -19 94 -32 47 -7 96 -20 110 -30 32 -22 70 -34
70 -22 0 24 -81 62 -152 71 -40 6 -83 13 -94 16 -12 4 -25 2 -28 -3z"/>
<path d="M1040 650 c20 -13 33 -13 25 0 -3 6 -14 10 -23 10 -15 0 -15 -2 -2
-10z"/>
<path d="M920 632 c0 -11 22 -32 32 -32 5 0 4 9 -2 20 -11 20 -30 28 -30 12z"/>
<path d="M970 590 c0 -5 5 -10 10 -10 6 0 10 5 10 10 0 6 -4 10 -10 10 -5 0
-10 -4 -10 -10z"/>
<path d="M1348 538 c12 -6 22 -14 22 -18 0 -5 7 -10 15 -14 8 -3 15 -2 15 2 0
9 -54 42 -67 41 -4 0 2 -5 15 -11z"/>
<path d="M1435 380 c-3 -5 -1 -10 4 -10 6 0 11 5 11 10 0 6 -2 10 -4 10 -3 0
-8 -4 -11 -10z"/>
<path d="M1685 470 c3 -5 18 -10 32 -10 32 0 28 5 -10 14 -19 4 -26 3 -22 -4z"/>
<path d="M2608 221 c35 -17 68 -31 73 -31 16 0 10 20 -8 26 -10 3 -25 9 -34
14 -9 5 -34 12 -55 15 -36 6 -34 4 24 -24z"/>
<path d="M2210 2730 c0 -12 17 -12 45 0 17 7 15 9 -12 9 -18 1 -33 -3 -33 -9z"/>
<path d="M1547 2723 c-12 -12 -7 -22 8 -17 8 4 15 10 15 15 0 11 -14 12 -23 2z"/>
<path d="M2526 2714 c-9 -8 -16 -21 -16 -27 0 -7 7 -4 14 6 7 9 18 17 25 17 6
0 11 5 11 10 0 15 -16 12 -34 -6z"/>
<path d="M2260 2703 c0 -5 4 -15 10 -23 11 -18 25 -7 17 15 -6 15 -27 21 -27
8z"/>
<path d="M570 2676 c0 -10 6 -13 15 -10 8 4 22 0 31 -7 14 -12 16 -11 13 6 -5
25 -59 35 -59 11z"/>
<path d="M902 2668 c-13 -13 -16 -38 -4 -38 16 1 44 29 37 39 -8 14 -18 14
-33 -1z"/>
<path d="M1836 2664 c-10 -25 -1 -27 19 -4 15 17 16 20 3 20 -9 0 -19 -7 -22
-16z"/>
<path d="M2066 2654 c-4 -9 -5 -19 -3 -21 8 -8 37 10 37 23 0 19 -26 18 -34
-2z"/>
<path d="M2610 2650 c-12 -8 -9 -10 13 -10 15 0 27 5 27 10 0 13 -20 13 -40 0z"/>
<path d="M2117 2643 c-10 -10 -8 -53 2 -53 10 0 21 24 21 46 0 15 -12 19 -23
7z"/>
<path d="M2515 2640 c-3 -5 -1 -10 4 -10 6 0 11 5 11 10 0 6 -2 10 -4 10 -3 0
-8 -4 -11 -10z"/>
<path d="M806 2624 c-13 -34 -7 -43 29 -42 19 1 35 3 35 4 0 6 -47 54 -53 54
-2 0 -8 -7 -11 -16z"/>
<path d="M1717 2604 c-5 -27 0 -29 25 -11 15 12 15 14 -2 24 -15 10 -19 8 -23
-13z"/>
<path d="M1221 2580 l1 -45 10 34 c6 23 6 37 -1 44 -8 8 -11 -2 -10 -33z"/>
<path d="M1380 2596 c-15 -39 -12 -46 6 -13 9 16 13 31 10 34 -3 3 -10 -6 -16
-21z"/>
<path d="M503 2603 c-18 -7 -16 -23 2 -23 8 0 15 7 15 15 0 8 -1 15 -2 14 -2
0 -9 -3 -15 -6z"/>
<path d="M2670 2590 c0 -11 5 -20 10 -20 6 0 10 9 10 20 0 11 -4 20 -10 20 -5
0 -10 -9 -10 -20z"/>
<path d="M1060 2592 c0 -5 7 -13 16 -16 10 -4 14 -1 12 6 -5 15 -28 23 -28 10z"/>
<path d="M1984 2560 c-32 -48 -27 -61 9 -24 15 15 31 23 38 18 8 -4 9 -3 5 4
-4 7 -2 12 3 12 6 0 11 7 11 15 0 30 -40 15 -66 -25z"/>
<path d="M2357 2573 c-4 -3 -6 -20 -6 -37 2 -27 2 -28 6 -6 3 13 12 30 21 37
15 11 15 12 1 13 -9 0 -19 -3 -22 -7z"/>
<path d="M1451 2548 c0 -7 4 -22 8 -33 8 -19 8 -19 15 2 8 24 1 43 -15 43 -5
0 -9 -6 -8 -12z"/>
<path d="M1580 2538 c0 -19 18 -43 25 -36 9 9 -4 48 -16 48 -5 0 -9 -6 -9 -12z"/>
<path d="M283 2523 c-17 -6 -16 -23 1 -23 8 0 16 7 20 15 6 15 1 17 -21 8z"/>
<path d="M1727 2503 c-11 -10 6 -33 24 -33 12 0 16 5 13 14 -6 16 -29 28 -37
19z"/>
<path d="M2275 2489 c-4 -6 -5 -13 -2 -16 7 -7 27 6 27 18 0 12 -17 12 -25 -2z"/>
<path d="M575 2470 c-7 -12 2 -30 16 -30 5 0 9 9 9 20 0 21 -15 27 -25 10z"/>
<path d="M1845 2457 c11 -35 25 -44 25 -15 0 14 -7 29 -16 32 -12 5 -14 1 -9
-17z"/>
<path d="M2450 2446 c0 -14 5 -26 10 -26 6 0 10 9 10 19 0 11 -4 23 -10 26 -6
4 -10 -5 -10 -19z"/>
<path d="M300 2430 c0 -11 4 -20 9 -20 11 0 22 26 14 34 -12 12 -23 5 -23 -14z"/>
<path d="M658 2410 c4 -29 25 -40 37 -20 8 13 -13 50 -29 50 -8 0 -11 -10 -8
-30z"/>
<path d="M2278 2415 c-6 -29 7 -43 16 -19 9 23 7 44 -3 44 -5 0 -11 -11 -13
-25z"/>
<path d="M2026 2411 c-4 -6 -1 -21 6 -33 l13 -23 3 24 c4 26 -12 49 -22 32z"/>
<path d="M2105 2408 c-21 -12 -35 -28 -35 -40 0 -15 16 -8 50 22 35 29 25 41
-15 18z"/>
<path d="M2522 2399 c-7 -11 -11 -23 -9 -26 9 -8 48 18 44 30 -6 19 -22 18
-35 -4z"/>
<path d="M230 2384 c0 -8 5 -12 10 -9 6 4 8 11 5 16 -9 14 -15 11 -15 -7z"/>
<path d="M470 2378 c0 -8 9 -14 20 -14 24 0 21 20 -3 24 -9 2 -17 -3 -17 -10z"/>
<path d="M810 2340 c0 -28 2 -29 20 -18 11 7 20 15 20 18 0 3 -9 11 -20 18
-18 11 -20 10 -20 -18z"/>
<path d="M610 2345 c0 -8 5 -15 10 -15 6 0 10 7 10 15 0 8 -4 15 -10 15 -5 0
-10 -7 -10 -15z"/>
<path d="M950 2331 c0 -17 5 -33 10 -36 6 -3 10 1 10 9 0 9 7 16 15 16 21 0
19 17 -4 30 -28 15 -31 13 -31 -19z"/>
<path d="M2630 2335 c-18 -47 -10 -57 24 -32 20 14 19 48 -1 54 -7 3 -17 -7
-23 -22z"/>
<path d="M1016 2309 c-8 -19 -12 -38 -9 -43 3 -5 12 9 19 30 17 48 9 58 -10
13z"/>
<path d="M2520 2331 c0 -6 6 -11 14 -11 8 0 17 -6 20 -12 3 -7 5 -4 3 7 -2 20
-37 35 -37 16z"/>
<path d="M1855 2309 c-4 -6 -5 -12 -4 -13 12 -9 119 -56 143 -62 43 -10 28 18
-16 31 -23 6 -33 15 -30 24 3 8 -1 12 -9 9 -8 -3 -28 1 -46 9 -22 9 -34 10
-38 2z"/>
<path d="M2340 2310 c0 -5 5 -10 10 -10 6 0 10 5 10 10 0 6 -4 10 -10 10 -5 0
-10 -4 -10 -10z"/>
<path d="M340 2303 c0 -5 4 -15 10 -23 11 -18 25 -7 17 15 -6 15 -27 21 -27 8z"/>
<path d="M2315 2280 c-7 -12 2 -30 16 -30 12 0 12 27 0 35 -5 3 -12 1 -16 -5z"/>
<path d="M2410 2253 c0 -16 7 -38 15 -49 14 -18 15 -16 13 25 -3 50 -28 71
-28 24z"/>
<path d="M260 2239 c0 -11 5 -17 10 -14 6 3 10 13 10 21 0 8 -4 14 -10 14 -5
0 -10 -9 -10 -21z"/>
<path d="M510 2225 c0 -8 5 -15 10 -15 6 0 10 7 10 15 0 8 -4 15 -10 15 -5 0
-10 -7 -10 -15z"/>
<path d="M2525 2183 c4 -16 9 -46 10 -68 4 -55 19 -50 23 8 2 30 -1 47 -8 47
-7 0 -9 8 -5 20 5 15 2 20 -10 20 -14 0 -16 -5 -10 -27z"/>
<path d="M480 2165 c-10 -19 -11 -28 -2 -37 15 -15 20 -9 28 30 8 38 -7 42
-26 7z"/>
<path d="M2672 2171 c-8 -5 -12 -16 -10 -24 2 -11 7 -14 16 -8 8 5 12 16 10
24 -2 11 -7 14 -16 8z"/>
<path d="M2598 2154 c6 -3 12 -20 12 -37 0 -30 1 -30 17 -14 21 21 8 51 -23
54 -10 2 -13 0 -6 -3z"/>
<path d="M360 2135 c0 -8 5 -15 10 -15 6 0 10 7 10 15 0 8 -4 15 -10 15 -5 0
-10 -7 -10 -15z"/>
<path d="M1405 2092 c-11 -10 -27 -26 -35 -36 -15 -19 -14 -19 18 -2 30 15 50
41 41 51 -2 2 -13 -4 -24 -13z"/>
<path d="M1490 2095 c-14 -16 -10 -18 14 -9 9 3 16 10 16 15 0 14 -16 11 -30
-6z"/>
<path d="M296 2078 c8 -29 10 -31 23 -23 20 12 13 45 -10 45 -16 0 -19 -4 -13
-22z"/>
<path d="M1270 2090 c-8 -5 -11 -12 -7 -16 4 -4 13 -2 19 4 15 15 7 24 -12 12z"/>
<path d="M1320 2082 c0 -4 -16 -25 -35 -47 -20 -22 -40 -48 -46 -57 -15 -28 6
-21 25 6 8 14 26 35 38 48 46 47 52 58 34 58 -9 0 -16 -3 -16 -8z"/>
<path d="M1450 2050 c0 -15 21 -23 32 -12 6 6 2 11 -11 15 -12 3 -21 1 -21 -3z"/>
<path d="M1115 2019 c-11 -17 1 -21 15 -4 8 9 8 15 2 15 -6 0 -14 -5 -17 -11z"/>
<path d="M302 2012 c-13 -9 -6 -42 8 -42 5 0 15 -3 24 -6 21 -8 20 9 -1 35
-12 13 -23 18 -31 13z"/>
<path d="M150 1981 c0 -11 5 -23 10 -26 6 -4 10 5 10 19 0 14 -4 26 -10 26 -5
0 -10 -9 -10 -19z"/>
<path d="M1200 1894 c0 -8 5 -12 10 -9 6 3 10 10 10 16 0 5 -4 9 -10 9 -5 0
-10 -7 -10 -16z"/>
<path d="M1895 1800 c-3 -5 1 -10 9 -10 9 0 16 5 16 10 0 6 -4 10 -9 10 -6 0
-13 -4 -16 -10z"/>
<path d="M1340 1745 c0 -8 5 -15 10 -15 6 0 10 4 10 9 0 5 8 12 18 14 10 3 6
5 -10 6 -19 1 -28 -4 -28 -14z"/>
<path d="M1535 1750 c-19 -8 -19 -9 3 -9 12 -1 22 4 22 9 0 6 -1 10 -2 9 -2 0
-12 -4 -23 -9z"/>
<path d="M1580 1740 c0 -5 7 -10 16 -10 8 0 12 5 9 10 -3 6 -10 10 -16 10 -5
0 -9 -4 -9 -10z"/>
<path d="M1909 1731 c-13 -11 -19 -20 -13 -21 15 0 50 27 43 34 -3 4 -17 -2
-30 -13z"/>
<path d="M1915 1700 c-11 -4 -54 -18 -95 -30 -138 -40 -159 -57 -63 -52 32 2
75 4 95 5 20 1 35 4 32 8 -2 4 10 9 27 13 17 3 45 16 61 28 28 20 29 22 12 29
-25 10 -44 10 -69 -1z"/>
<path d="M1740 1680 c0 -5 4 -10 9 -10 6 0 13 5 16 10 3 6 -1 10 -9 10 -9 0
-16 -4 -16 -10z"/>
<path d="M1141 1646 c8 -9 33 -19 55 -22 38 -6 38 -6 17 10 -12 9 -37 19 -55
22 -30 6 -32 5 -17 -10z"/>
<path d="M1752 1569 c-13 -5 -21 -13 -18 -18 7 -10 43 -3 51 10 9 13 -9 17
-33 8z"/>
</g>
</svg>
