<?xml version="1.0" standalone="no"?>
<!DOCTYPE svg PUBLIC "-//W3C//DTD SVG 20010904//EN"
 "http://www.w3.org/TR/2001/REC-SVG-20010904/DTD/svg10.dtd">
<svg version="1.0" xmlns="http://www.w3.org/2000/svg"
 width="186.000000pt" height="334.000000pt" viewBox="0 0 186.000000 334.000000"
 preserveAspectRatio="xMidYMid meet">
<metadata>
Created by potrace 1.16, written by Peter Selinger 2001-2019
</metadata>
<g transform="translate(0.000000,334.000000) scale(0.100000,-0.100000)"
fill="#000000" stroke="none">
<path d="M940 3319 c-30 -5 -133 -13 -227 -18 -95 -5 -177 -12 -183 -16 -5 -3
-62 -8 -127 -10 -121 -5 -211 -24 -236 -50 -13 -13 -16 -13 -21 0 -9 24 -26
17 -26 -9 0 -13 -5 -26 -11 -28 -7 -2 -12 -102 -15 -293 -2 -160 -8 -355 -14
-435 -22 -336 -37 -1179 -32 -1795 2 -176 0 -345 -4 -377 -5 -42 -2 -64 10
-89 9 -17 16 -44 16 -59 0 -14 6 -35 14 -45 13 -18 28 -20 178 -20 89 0 208 1
263 3 60 2 150 -4 225 -15 102 -14 184 -17 455 -16 200 1 349 6 379 13 27 6
52 7 55 3 9 -12 121 -13 143 -2 10 5 18 16 18 24 0 8 5 15 10 15 15 0 12 38
-5 64 -13 20 -17 76 -20 342 -2 176 -8 378 -15 449 -6 72 -13 155 -16 185 -3
30 -4 147 -4 260 0 124 -5 237 -13 286 -11 66 -11 83 0 90 9 7 11 28 4 89 -4
44 -4 88 0 97 5 9 9 67 9 129 0 120 -26 724 -36 824 -3 33 -9 117 -13 187 -6
125 -15 154 -38 140 -41 -26 -40 -995 2 -1318 3 -23 1 -53 -5 -68 -9 -24 -12
-333 -5 -522 l2 -72 -36 -6 c-56 -9 -117 -7 -148 5 -15 6 -84 12 -153 14 -78
2 -126 7 -128 14 -5 14 67 17 203 11 34 -2 70 2 80 8 17 10 15 11 -21 12 -22
0 -44 3 -47 7 -4 3 -35 5 -70 4 -34 -1 -59 0 -55 4 6 6 63 15 100 16 10 0 15
6 11 14 -4 12 -9 12 -34 -1 -16 -8 -29 -11 -29 -7 0 9 -89 8 -142 -2 l-37 -7
4 35 c3 23 0 37 -8 40 -9 3 -13 -6 -14 -30 0 -20 -7 -39 -14 -44 -12 -8 -11
-11 1 -19 12 -8 9 -10 -13 -10 -48 0 -117 -22 -117 -36 0 -8 5 -14 11 -14 6 0
9 -6 7 -12 -3 -8 -20 -12 -44 -11 -21 1 -33 0 -27 -3 10 -4 10 -11 -2 -27 -19
-28 -19 -37 2 -37 14 0 13 -4 -5 -23 -12 -13 -19 -27 -15 -30 3 -4 2 -7 -4 -7
-17 0 -23 13 -12 27 17 20 -6 16 -24 -5 -10 -10 -14 -22 -10 -27 5 -4 3 -5 -3
-2 -13 7 -28 -62 -19 -85 7 -17 -40 -64 -49 -50 -3 5 7 50 23 98 16 49 37 122
47 162 11 48 22 72 32 72 10 0 12 -6 7 -17 -4 -10 -8 -25 -9 -33 -1 -9 -5 -20
-9 -27 -8 -13 1 -43 13 -43 12 0 19 26 13 49 -3 12 -1 21 3 21 5 0 9 15 8 32
-1 45 6 68 22 68 7 0 18 17 23 38 14 49 14 69 -1 76 -9 3 -8 8 5 16 13 9 17
19 13 36 -4 14 -2 24 4 24 5 0 10 15 10 34 0 19 5 47 12 63 16 39 17 43 38
140 7 32 16 50 23 47 8 -3 13 12 15 43 1 27 5 65 8 87 l6 39 73 -6 c62 -6 76
-4 94 12 23 20 28 41 9 41 -9 0 -8 3 2 10 8 5 11 12 7 17 -11 10 -51 10 -59
-1 -8 -12 -76 -15 -104 -5 -11 4 -25 4 -30 1 -12 -9 -35 -50 -39 -71 -2 -9 -6
-24 -10 -33 -4 -10 -3 -18 3 -18 6 0 13 14 17 31 4 17 9 28 12 25 8 -8 -18
-110 -31 -121 -17 -14 -40 -91 -32 -104 4 -6 2 -11 -3 -11 -6 0 -11 8 -11 18
1 44 22 159 34 183 12 24 12 28 -2 34 -21 8 -22 5 -38 -72 -20 -97 -21 -98
-33 -96 -6 2 -11 -5 -12 -15 0 -9 -3 -28 -5 -42 -3 -14 -6 -45 -8 -70 -2 -25
-7 -57 -11 -72 -6 -22 -4 -28 9 -28 17 0 21 -12 9 -23 -3 -4 -7 -17 -9 -30 -1
-12 -9 -53 -17 -92 -13 -60 -15 -64 -16 -31 -1 60 -11 37 -18 -40 -3 -38 -16
-96 -29 -129 -13 -33 -29 -85 -35 -115 -6 -30 -21 -75 -32 -100 -11 -25 -23
-65 -28 -90 -5 -25 -18 -76 -29 -115 -12 -38 -33 -113 -47 -165 l-26 -95 -68
0 c-59 0 -69 3 -69 18 0 9 -7 17 -15 17 -13 0 -19 -12 -16 -32 0 -4 -13 -11
-31 -16 -17 -4 -34 -14 -36 -21 -4 -11 5 -13 37 -8 l41 5 -24 -19 c-13 -10
-29 -19 -35 -19 -6 0 -11 -5 -11 -10 0 -6 -14 -3 -32 6 l-32 16 25 14 c14 8
18 13 9 13 -18 0 -50 -22 -50 -35 0 -10 90 -54 109 -54 6 0 13 -12 17 -27 3
-16 10 -41 14 -56 5 -15 6 -26 2 -23 -4 2 -12 -2 -19 -9 -8 -9 -9 -15 -2 -17
17 -6 -30 -58 -52 -58 -11 0 -17 -4 -14 -10 13 -20 35 -9 61 30 27 40 28 41
84 39 31 -1 62 1 68 5 6 3 13 2 17 -4 4 -6 10 -8 14 -5 7 4 71 9 211 17 64 4
66 -16 3 -23 -71 -9 -107 -19 -99 -27 7 -7 74 -5 119 4 27 6 27 5 28 -53 l2
-58 9 58 c9 51 13 57 30 51 15 -4 19 -2 15 7 -2 8 -9 13 -15 12 -5 -1 -13 4
-16 13 -8 21 18 29 91 29 34 0 59 3 57 7 -6 10 4 9 31 -1 11 -5 32 -5 47 0 15
4 30 4 32 0 3 -4 26 -7 51 -7 25 1 45 -3 45 -7 0 -5 4 -5 10 -2 5 3 10 13 10
22 0 14 -20 15 -190 9 -178 -7 -215 -3 -179 19 6 4 8 14 5 22 -8 20 4 63 16
63 6 0 19 10 29 21 l19 22 10 -29 c24 -65 33 -84 46 -95 20 -17 24 -10 33 62
5 35 9 53 10 39 1 -14 4 -35 7 -48 9 -33 44 -25 69 15 16 25 27 32 52 33 31 0
32 -1 26 -32 -10 -47 -9 -62 1 -68 12 -7 24 17 31 61 4 28 11 38 28 43 13 3
29 17 37 30 7 14 17 23 21 20 11 -6 49 -93 49 -110 0 -8 4 -14 8 -14 4 0 15
-12 23 -27 13 -24 14 -32 3 -53 -23 -42 -11 -73 28 -75 13 -1 36 -5 51 -9 27
-8 28 -11 22 -50 -4 -22 -8 -42 -9 -43 -1 -1 -35 -3 -76 -4 -41 -1 -163 -7
-270 -15 -211 -15 -429 -18 -446 -6 -6 4 -16 16 -22 27 -10 17 -11 18 -12 3 0
-19 -49 -22 -410 -23 -154 -1 -175 2 -159 21 10 12 8 13 -7 8 -10 -4 -25 -12
-33 -18 -12 -9 -13 -7 -5 14 5 14 9 104 9 202 0 97 3 180 8 184 12 12 8 150
-10 346 -9 106 -16 287 -17 430 0 231 1 248 18 261 17 13 18 25 13 150 -3 75
-1 214 3 309 5 95 12 234 15 308 3 74 10 229 16 344 9 183 8 211 -5 218 -16 9
-15 46 5 179 9 59 13 66 30 62 10 -3 19 -9 19 -14 0 -4 15 -10 32 -12 30 -4
31 -5 10 -12 -25 -8 -30 -25 -7 -25 23 0 95 31 95 41 0 5 -9 9 -19 9 -11 0
-22 4 -25 9 -4 5 29 9 74 10 45 0 91 3 103 5 12 3 60 8 107 11 47 4 130 13
185 21 90 12 265 22 690 39 175 7 205 12 205 35 0 15 -13 19 -99 25 -55 4
-155 6 -223 6 -68 -1 -175 0 -238 3 -63 2 -140 0 -170 -5z m80 -19 c-14 -4
-43 -8 -65 -8 -38 0 -39 1 -10 8 17 4 46 8 65 8 32 0 33 -1 10 -8z m-875 -835
c-4 -91 -10 -163 -12 -161 -7 7 -5 177 3 264 11 126 16 70 9 -103z m1575 57
c0 -34 -3 -43 -10 -32 -13 20 -13 93 0 85 6 -3 10 -27 10 -53z m-52 -272 c0
-70 -2 -77 -8 -40 -4 25 -7 106 -7 180 l0 135 7 -95 c4 -52 8 -133 8 -180z
m49 173 c-3 -10 -5 -4 -5 12 0 17 2 24 5 18 2 -7 2 -21 0 -30z m10 -190 c-3
-10 -5 -2 -5 17 0 19 2 27 5 18 2 -10 2 -26 0 -35z m-1600 -60 c-3 -10 -5 -4
-5 12 0 17 2 24 5 18 2 -7 2 -21 0 -30z m1550 -165 c-3 -7 -5 -2 -5 12 0 14 2
19 5 13 2 -7 2 -19 0 -25z m-710 -220 c-3 -8 -6 -5 -6 6 -1 11 2 17 5 13 3 -3
4 -12 1 -19z m710 -375 c-2 -16 -4 -5 -4 22 0 28 2 40 4 28 2 -13 2 -35 0 -50z
m12 -147 c-5 -6 -9 4 -10 27 -3 98 1 110 12 37 4 -32 4 -59 -2 -64z m-459 64
c0 -5 -7 -10 -15 -10 -8 0 -15 5 -15 10 0 6 7 10 15 10 8 0 15 -4 15 -10z
m-50 -49 c0 -6 -12 -9 -27 -8 -22 2 -27 -2 -25 -16 3 -16 0 -16 -29 -4 -56 22
-48 37 20 37 34 0 61 -4 61 -9z m-120 -31 c0 -5 -6 -10 -14 -10 -8 0 -18 5
-21 10 -3 6 3 10 14 10 12 0 21 -4 21 -10z m253 -7 c-7 -2 -21 -2 -30 0 -10 3
-4 5 12 5 17 0 24 -2 18 -5z m353 -68 c2 -27 5 -108 8 -180 6 -137 13 -256 22
-370 3 -38 5 -150 5 -247 -1 -149 1 -177 13 -172 10 4 15 -5 18 -31 4 -35 3
-36 -21 -30 -36 8 -60 13 -103 20 l-38 6 7 47 c3 26 10 52 14 58 5 6 6 14 2
17 -3 4 -1 12 4 19 6 8 8 31 3 58 -5 29 -8 36 -9 18 -1 -24 -4 -26 -23 -19
-13 5 -22 14 -21 20 2 6 -8 11 -22 11 -22 0 -31 10 -60 74 -19 40 -35 79 -35
86 0 7 27 41 60 77 56 60 74 93 50 93 -6 0 -24 -15 -39 -33 -16 -18 -61 -55
-100 -82 -45 -32 -71 -57 -72 -70 -1 -15 -2 -16 -6 -3 -2 9 2 31 10 50 10 24
11 40 4 58 -9 23 -11 20 -31 -43 -22 -71 -36 -88 -67 -80 -27 7 -24 16 21 64
43 46 46 54 28 65 -7 4 -8 3 -4 -5 4 -6 3 -10 -4 -9 -7 2 -20 -12 -30 -30 -24
-43 -26 -46 -36 -31 -4 8 -3 10 4 5 7 -4 12 -2 12 4 0 29 -26 -1 -35 -41 -13
-58 -34 -94 -46 -82 -6 6 -11 50 -13 98 -2 68 -6 91 -18 99 -17 10 -48 -11
-48 -33 0 -6 -18 -20 -40 -31 l-41 -21 7 26 c4 16 2 25 -6 25 -6 0 -8 -4 -5
-10 3 -5 1 -10 -4 -10 -6 0 -11 -8 -11 -17 -1 -16 -2 -16 -15 1 -17 23 -22 20
-27 -14 -4 -29 -24 -54 -37 -46 -6 4 -6 19 0 39 11 39 11 37 0 37 -5 0 -13
-10 -17 -22 -3 -12 -13 -28 -20 -36 -12 -11 -16 -9 -24 13 -5 14 -10 33 -10
41 0 15 -16 19 -24 5 -3 -4 -22 -11 -43 -14 -21 -3 -48 -9 -60 -13 -28 -8 -31
14 -8 50 9 13 15 28 13 32 -2 10 8 47 22 79 12 28 43 126 47 149 6 37 21 50
59 52 22 1 56 5 77 7 30 4 39 1 48 -14 5 -11 8 -23 6 -27 -3 -4 -1 -16 4 -27
7 -17 8 -16 8 8 1 39 20 74 31 56 7 -10 12 -10 23 -1 19 16 243 26 252 12 7
-12 46 5 58 26 4 8 19 14 33 14 31 0 22 -20 -9 -21 -12 0 -16 -3 -9 -6 6 -2
10 -9 6 -14 -3 -5 5 -7 18 -6 14 3 24 12 26 25 3 18 58 49 69 38 10 -9 -11
-35 -33 -40 -14 -4 -22 -11 -18 -17 3 -6 -1 -16 -9 -22 -8 -7 -17 -20 -21 -30
-5 -17 -3 -17 29 3 25 15 35 18 35 8 -1 -19 -23 -43 -40 -43 -8 0 -15 -5 -15
-11 0 -19 -33 -44 -49 -38 -12 4 -16 0 -16 -15 0 -26 14 -27 40 -1 11 11 20
16 20 10 0 -18 25 -10 60 21 32 28 33 30 10 25 -22 -4 -23 -4 -7 8 9 7 17 16
17 20 0 4 11 22 25 40 26 34 34 59 13 38 -7 -7 -16 -12 -20 -12 -15 0 -8 27
12 45 29 26 25 38 -10 30 -19 -4 -30 -3 -30 4 0 8 -11 6 -30 -4 -36 -18 -50
-19 -50 -2 0 7 14 18 30 24 36 14 32 43 -6 43 -22 0 -23 2 -14 20 6 12 8 29 5
40 -4 13 0 20 15 25 12 4 24 4 27 1 4 -3 11 -1 18 4 7 5 25 12 41 14 16 2 39
7 51 12 13 5 44 9 69 9 l46 0 4 -50z m34 25 c0 -16 -4 -30 -10 -30 -5 0 -10
14 -10 30 0 17 5 30 10 30 6 0 10 -13 10 -30z m-600 -10 c0 -5 -9 -10 -20 -10
-11 0 -20 5 -20 10 0 6 9 10 20 10 11 0 20 -4 20 -10z m189 -60 c0 -10 -2 -11
-7 -4 -4 6 -16 9 -27 7 -28 -6 -75 -13 -107 -14 -31 -2 -34 -9 -16 -27 9 -9 9
-12 1 -12 -7 0 -24 -5 -39 -10 l-28 -11 27 -14 c43 -22 72 -23 72 -2 0 15 9
19 50 21 28 2 58 0 67 -3 16 -6 16 -7 0 -28 -17 -22 -34 -25 -226 -39 l-60 -4
22 20 c12 12 22 27 22 35 0 7 6 16 13 18 8 4 9 6 0 6 -6 1 -21 -12 -33 -29
-11 -16 -27 -27 -34 -24 -8 3 -16 -4 -19 -15 -4 -17 -13 -21 -46 -21 -56 0
-56 -1 28 89 23 24 41 47 41 52 0 11 35 29 57 29 15 0 16 -2 3 -10 -8 -5 -11
-13 -6 -17 4 -4 15 2 23 15 9 12 24 22 34 22 22 0 24 -11 7 -28 -9 -9 -9 -12
0 -12 6 0 20 10 31 22 11 12 29 22 38 23 10 1 27 6 37 10 13 6 21 4 24 -3 2
-8 9 -7 20 5 15 15 17 14 23 -8 4 -13 7 -31 8 -39z m91 44 c0 -9 -5 -12 -12
-8 -8 5 -9 0 -6 -14 4 -15 2 -22 -7 -22 -19 0 -25 13 -19 36 6 23 44 30 44 8z
m-397 -14 c-3 -12 -8 -19 -11 -16 -5 6 5 36 12 36 2 0 2 -9 -1 -20z m720 -129
c-7 -11 -11 9 -13 59 -2 80 3 85 9 10 3 -36 5 -67 4 -69z m-413 53 c0 -2 -15
-4 -32 -3 -27 0 -29 2 -13 8 18 8 45 4 45 -5z m-375 -13 c-3 -6 -11 -11 -17
-11 -6 0 -6 6 2 15 14 17 26 13 15 -4z m425 4 c0 -8 7 -15 17 -15 15 0 15 -2
-1 -19 -21 -23 -54 -33 -62 -19 -3 5 1 17 10 27 9 10 16 23 16 29 0 7 5 12 10
12 6 0 10 -7 10 -15z m-216 -483 c2 -4 0 -14 -6 -22 -8 -12 -9 -12 -4 2 3 12
1 15 -9 12 -8 -3 -14 -9 -13 -12 4 -15 -13 -111 -20 -116 -4 -2 -15 15 -24 40
-9 24 -12 47 -7 50 5 3 7 9 4 14 -3 5 5 16 17 24 24 17 54 21 62 8z m-347 -48
l-2 -35 -66 2 c-36 1 -71 -1 -77 -5 -7 -4 -12 -22 -12 -39 0 -39 -9 -54 -35
-58 -11 -3 -21 -12 -23 -22 -2 -12 1 -15 12 -11 11 4 16 1 16 -10 0 -10 -9
-16 -23 -16 -20 0 -23 5 -23 35 0 39 -11 56 -23 36 -6 -9 -11 -10 -15 -2 -4 6
-2 11 5 11 10 0 10 3 1 12 -21 21 -14 54 14 67 23 10 26 10 20 -5 -9 -25 3
-36 21 -18 13 12 13 18 4 23 -8 6 2 14 30 25 30 12 44 14 49 6 5 -8 9 -4 13 9
3 13 13 21 27 21 19 0 21 -2 9 -16 -12 -14 -9 -14 26 0 21 9 41 19 44 21 8 9
10 5 8 -31z m-212 7 c-6 -5 -20 -12 -32 -16 -17 -5 -23 -2 -23 9 0 11 10 16
32 16 19 0 28 -4 23 -9z m255 -49 c0 -7 -4 -10 -10 -7 -5 3 -10 16 -10 28 0
18 2 19 10 7 5 -8 10 -21 10 -28z m102 -17 c-2 -14 -8 -27 -12 -30 -4 -3 -4
-22 0 -42 5 -21 7 -39 4 -42 -2 -2 -60 -6 -128 -7 -69 -2 -136 -5 -150 -8 -20
-4 -26 -1 -26 14 0 23 15 33 55 37 54 5 155 48 156 66 0 9 2 9 5 0 3 -7 12 -9
20 -6 22 8 17 -21 -7 -43 l-22 -19 7 30 c6 26 6 28 -7 15 -24 -25 -31 -59 -12
-66 18 -7 55 22 55 43 0 7 5 13 11 13 5 0 17 16 25 35 17 41 33 47 26 10z
m-204 -4 c45 -2 13 -30 -60 -51 -22 -7 -28 -5 -28 6 0 29 19 51 42 49 13 -1
33 -3 46 -4z m772 -172 c0 -11 -4 -18 -10 -14 -5 3 -7 12 -3 20 7 21 13 19 13
-6z m-110 -203 c0 -2 -11 -6 -25 -8 -13 -3 -22 -1 -19 3 5 9 44 13 44 5z m165
-16 c-3 -5 -32 -10 -63 -10 -41 0 -53 3 -42 10 20 13 113 13 105 0z m-230 -10
c-3 -5 -13 -10 -21 -10 -8 0 -12 5 -9 10 3 6 13 10 21 10 8 0 12 -4 9 -10z"/>
<path d="M1500 1115 c0 -8 2 -15 4 -15 2 0 6 7 10 15 3 8 1 15 -4 15 -6 0 -10
-7 -10 -15z"/>
<path d="M1630 1104 c0 -8 5 -12 10 -9 6 3 10 10 10 16 0 5 -4 9 -10 9 -5 0
-10 -7 -10 -16z"/>
<path d="M1645 1010 c-3 -5 -1 -10 4 -10 6 0 11 5 11 10 0 6 -2 10 -4 10 -3 0
-8 -4 -11 -10z"/>
<path d="M1253 939 c-14 -14 -64 -21 -190 -27 -18 -1 -33 -6 -33 -11 0 -14 52
-24 60 -10 6 8 9 8 12 -2 4 -12 8 -12 20 -1 9 7 44 14 78 17 65 4 92 17 74 35
-7 7 -14 6 -21 -1z"/>
<path d="M1315 934 l-30 -13 43 -1 c23 0 42 4 42 9 0 16 -24 18 -55 5z"/>
<path d="M1612 930 c0 -14 2 -19 5 -12 2 6 2 18 0 25 -3 6 -5 1 -5 -13z"/>
<path d="M1512 887 c-20 -28 -20 -33 -7 -43 12 -9 22 -6 45 16 17 16 30 31 30
34 0 8 -34 -6 -42 -18 -4 -6 -10 -7 -14 -3 -4 3 -1 13 6 22 7 9 11 17 9 19 -2
3 -14 -10 -27 -27z"/>
<path d="M1635 900 c-9 -10 -22 -18 -28 -17 -7 1 -13 -8 -15 -21 -3 -21 -1
-22 17 -12 23 12 57 58 49 65 -3 3 -13 -4 -23 -15z"/>
<path d="M886 884 c-9 -23 -8 -24 14 -24 11 0 20 2 20 4 0 12 -13 36 -20 36
-4 0 -11 -7 -14 -16z"/>
<path d="M1356 892 c-4 -7 -15 -12 -25 -12 -9 0 -26 -6 -37 -14 -18 -14 -18
-15 0 -22 10 -4 27 -2 38 5 10 6 23 9 28 6 13 -8 18 7 10 29 -4 14 -9 16 -14
8z"/>
<path d="M1233 883 c-7 -2 -13 -9 -13 -14 0 -13 22 -10 44 6 20 15 20 15 0 14
-10 0 -25 -3 -31 -6z"/>
<path d="M803 857 c-22 -24 -47 -67 -39 -67 3 0 17 5 31 12 23 10 24 13 9 18
-15 6 -15 8 6 28 13 12 21 24 18 27 -2 3 -14 -5 -25 -18z"/>
<path d="M1090 825 c-8 -9 -8 -15 -2 -15 12 0 26 19 19 26 -2 2 -10 -2 -17
-11z"/>
<path d="M1477 823 c-12 -12 -7 -33 8 -33 17 0 19 9 7 28 -5 7 -11 9 -15 5z"/>
<path d="M952 780 c0 -14 2 -19 5 -12 2 6 2 18 0 25 -3 6 -5 1 -5 -13z"/>
<path d="M942 720 c0 -14 2 -19 5 -12 2 6 2 18 0 25 -3 6 -5 1 -5 -13z"/>
<path d="M1238 659 c-18 -10 -25 -39 -10 -39 5 0 16 8 25 18 28 31 19 42 -15
21z"/>
<path d="M1637 206 c-18 -14 -23 -36 -7 -36 10 0 34 39 28 45 -2 2 -11 -2 -21
-9z"/>
<path d="M975 1059 c-9 -28 -2 -33 13 -9 6 11 8 21 3 25 -5 3 -13 -4 -16 -16z"/>
<path d="M1391 3184 c0 -11 3 -14 6 -6 3 7 2 16 -1 19 -3 4 -6 -2 -5 -13z"/>
<path d="M1420 3164 c0 -14 4 -23 10 -19 6 3 10 15 10 26 0 10 -4 19 -10 19
-5 0 -10 -12 -10 -26z"/>
<path d="M1520 3170 c0 -16 -7 -20 -30 -20 -26 0 -30 -4 -30 -28 0 -33 32 -67
55 -59 10 4 15 0 16 -11 1 -23 38 58 38 83 0 24 -21 55 -38 55 -6 0 -11 -9
-11 -20z m20 -44 c0 -3 -4 -8 -10 -11 -5 -3 -10 -1 -10 4 0 6 5 11 10 11 6 0
10 -2 10 -4z"/>
<path d="M1335 3119 c-11 -17 1 -21 15 -4 8 9 8 15 2 15 -6 0 -14 -5 -17 -11z"/>
<path d="M1024 3109 c-2 -4 -1 -14 2 -22 3 -10 -3 -20 -15 -27 -12 -6 -21 -18
-21 -28 -1 -18 -27 -59 -34 -51 -2 2 -11 28 -20 57 -11 33 -23 52 -33 52 -10
0 -14 -6 -10 -20 4 -15 0 -20 -14 -20 -11 0 -22 6 -25 14 -3 8 -14 16 -25 19
-15 4 -19 2 -15 -9 3 -8 -1 -14 -9 -14 -8 0 -15 -7 -15 -15 0 -8 -9 -24 -20
-35 -11 -11 -17 -26 -14 -34 6 -16 -11 -30 -25 -21 -6 3 -3 21 6 42 12 31 13
38 2 42 -20 6 -23 3 -35 -37 l-10 -37 -25 37 c-26 41 -27 42 -48 29 -17 -11
-29 -131 -13 -131 12 0 22 24 22 57 l0 25 40 -32 c26 -21 48 -30 60 -27 13 3
20 0 20 -9 0 -26 30 -2 39 32 13 48 51 84 51 49 0 -23 30 -65 46 -65 17 0 17
3 -1 47 -19 44 -19 43 3 43 11 0 26 -16 40 -45 12 -25 27 -45 34 -45 7 0 23
17 35 38 18 30 22 33 23 16 0 -39 19 -44 120 -28 52 7 101 14 108 14 6 0 12 5
12 11 0 10 -97 6 -162 -7 -47 -9 -31 13 27 40 59 27 69 42 33 49 -18 3 -17 5
7 6 34 2 63 16 52 27 -3 4 -38 6 -77 5 -40 -1 -70 2 -70 8 0 11 -39 11 -46 0z
m56 -39 c0 -5 -4 -10 -10 -10 -5 0 -10 5 -10 10 0 6 5 10 10 10 6 0 10 -4 10
-10z m25 -50 c-3 -5 -15 -10 -25 -10 -10 0 -22 5 -25 10 -4 6 7 10 25 10 18 0
29 -4 25 -10z"/>
<path d="M248 3069 c-35 -20 -14 -70 35 -83 33 -8 42 8 33 59 -6 28 -12 35
-29 35 -12 0 -30 -5 -39 -11z"/>
<path d="M740 3060 c0 -5 7 -10 16 -10 8 0 12 5 9 10 -3 6 -10 10 -16 10 -5 0
-9 -4 -9 -10z"/>
<path d="M1521 2984 c0 -11 3 -14 6 -6 3 7 2 16 -1 19 -3 4 -6 -2 -5 -13z"/>
<path d="M268 2963 c7 -3 16 -2 19 1 4 3 -2 6 -13 5 -11 0 -14 -3 -6 -6z"/>
<path d="M425 2890 c-3 -5 -9 -32 -12 -59 l-6 -50 -26 16 c-14 9 -41 30 -59
47 l-33 31 2 -60 c3 -73 16 -115 36 -115 9 0 13 6 10 14 -3 8 -9 31 -13 52
l-7 37 39 -23 c21 -13 41 -28 42 -32 2 -4 10 -8 18 -8 8 0 14 -4 14 -10 0 -5
7 -10 15 -10 9 0 15 9 15 21 0 18 3 19 15 9 21 -17 93 -3 121 25 24 25 34 23
34 -7 0 -19 25 -25 35 -8 3 5 1 19 -5 30 -18 33 -4 59 28 54 61 -10 69 -26 22
-43 -17 -5 -30 -17 -30 -26 0 -14 8 -16 45 -13 36 2 45 0 45 -13 0 -9 7 -22
15 -29 12 -10 16 -9 20 2 3 8 5 21 3 29 -2 10 11 15 49 17 46 3 54 0 69 -22
20 -32 54 -35 54 -5 0 20 4 21 48 16 26 -3 62 -9 81 -13 29 -6 33 -5 29 12 -4
21 -3 21 -94 23 -77 1 -77 15 1 32 30 7 55 15 55 19 0 4 8 7 18 7 96 -1 96 18
0 27 -40 4 -87 9 -104 12 -25 5 -32 2 -36 -14 -5 -18 -2 -19 33 -15 31 5 39 2
39 -10 0 -10 -13 -16 -42 -19 -24 -3 -50 -8 -59 -12 -13 -6 -19 1 -26 31 -8
34 -12 38 -52 46 -38 8 -46 6 -67 -14 -13 -12 -24 -29 -24 -37 0 -9 -7 -6 -19
9 -18 22 -26 24 -109 23 -50 -1 -98 -4 -108 -8 -16 -6 -15 -10 11 -31 30 -25
30 -25 10 -41 -12 -9 -30 -13 -45 -9 -14 3 -31 7 -38 8 -22 5 -32 29 -32 75 0
39 -11 54 -25 32z m425 -50 c-14 -10 -29 -15 -34 -10 -14 14 3 30 32 30 l27 0
-25 -20z m-220 -6 c0 -8 -5 -12 -10 -9 -6 4 -8 11 -5 16 9 14 15 11 15 -7z
m270 -18 c0 -16 -71 -39 -83 -27 -5 5 9 17 30 28 40 20 53 20 53 -1z m-135
-25 c-3 -6 -11 -11 -17 -11 -6 0 -6 6 2 15 14 17 26 13 15 -4z"/>
<path d="M1254 2889 c-32 -9 -44 -29 -44 -77 0 -12 -7 -25 -15 -28 -20 -8 -19
-17 6 -32 13 -8 25 -10 32 -4 20 16 57 21 57 9 1 -7 7 -1 14 12 9 17 14 19 18
10 4 -10 23 -14 67 -12 33 1 75 -2 93 -8 38 -10 111 6 105 24 -3 12 -67 46
-96 52 -9 2 -52 15 -96 30 -101 33 -104 34 -141 24z m81 -39 c3 -5 14 -10 23
-10 9 -1 31 -7 47 -16 l30 -14 -42 4 c-40 4 -79 -2 -131 -18 l-22 -7 21 35
c21 36 60 49 74 26z m180 -60 c3 -5 1 -10 -4 -10 -6 0 -11 5 -11 10 0 6 2 10
4 10 3 0 8 -4 11 -10z"/>
<path d="M477 2843 c-12 -11 -8 -23 8 -23 8 0 15 7 15 15 0 16 -12 20 -23 8z"/>
<path d="M1255 2707 c-33 -18 -294 -35 -650 -42 -137 -3 -258 -8 -269 -11 -73
-23 145 -27 492 -8 74 4 92 2 86 -8 -6 -10 -5 -10 7 -1 8 6 42 11 75 11 34 -1
67 3 74 7 7 4 16 2 21 -6 5 -9 9 -10 9 -2 0 11 31 17 150 28 91 9 120 16 120
31 0 10 -13 13 -50 11 -28 -1 -57 -5 -65 -10z"/>
<path d="M265 2660 c3 -5 13 -10 21 -10 8 0 12 5 9 10 -3 6 -13 10 -21 10 -8
0 -12 -4 -9 -10z"/>
<path d="M1366 2643 c-4 -5 -35 -8 -69 -9 -423 -6 -638 -21 -654 -47 -4 -6 8
-7 33 -2 21 4 104 9 183 11 124 3 146 1 156 -13 7 -9 17 -13 25 -8 10 6 10 9
0 15 -8 5 14 11 51 15 60 6 123 3 209 -11 24 -4 31 -2 21 4 -9 7 2 8 34 5 44
-6 47 -5 43 17 -3 25 -19 36 -32 23z"/>
<path d="M575 2580 c3 -5 8 -10 11 -10 2 0 4 5 4 10 0 6 -5 10 -11 10 -5 0 -7
-4 -4 -10z"/>
<path d="M1283 2565 c0 -8 4 -15 9 -15 4 0 8 4 8 9 0 6 -4 12 -8 15 -5 3 -9
-1 -9 -9z"/>
<path d="M891 2517 c-6 -8 -8 -17 -4 -21 4 -4 0 -4 -10 0 -13 5 -16 2 -11 -10
3 -9 10 -16 15 -16 9 0 39 40 39 52 0 13 -16 9 -29 -5z"/>
<path d="M984 2522 c4 -7 12 -12 18 -12 5 0 34 -7 63 -15 42 -13 54 -21 57
-40 4 -20 1 -24 -16 -22 -14 1 -21 -4 -21 -14 0 -10 -11 -26 -25 -37 -20 -17
-23 -24 -14 -39 19 -30 44 -29 44 3 0 39 18 18 22 -25 2 -28 8 -36 31 -42 23
-6 26 -5 17 6 -11 14 -2 76 18 110 8 16 5 24 -15 43 -34 31 -25 37 15 9 36
-25 46 -55 32 -91 -12 -32 -3 -57 19 -54 12 2 15 -4 14 -26 -1 -16 -7 -33 -14
-37 -15 -9 -3 -29 18 -29 11 0 13 3 5 13 -7 8 -7 18 -2 27 18 28 7 170 -12
170 -12 0 -43 30 -31 30 8 0 -7 10 -77 48 -47 26 -158 44 -146 24z m142 -139
c-11 -11 -19 6 -11 24 8 17 8 17 12 0 3 -10 2 -21 -1 -24z m114 -50 c0 -7 -4
-13 -10 -13 -5 0 -10 12 -10 28 0 21 2 24 10 12 5 -8 10 -21 10 -27z"/>
<path d="M1510 2489 c0 -24 4 -38 10 -34 6 3 10 22 10 41 0 19 -4 34 -10 34
-5 0 -10 -18 -10 -41z"/>
<path d="M975 2480 c-4 -6 -11 -8 -16 -5 -5 3 -6 -1 -3 -9 4 -10 1 -16 -10
-16 -9 0 -13 -6 -10 -14 3 -8 -3 -16 -15 -19 -12 -3 -21 -9 -21 -14 0 -12 65
-43 89 -43 26 0 35 29 16 50 -14 16 -14 19 7 33 23 16 23 17 4 32 -23 18 -32
19 -41 5z"/>
<path d="M1283 2450 c0 -25 2 -35 4 -22 2 12 2 32 0 45 -2 12 -4 2 -4 -23z"/>
<path d="M758 2433 c-10 -2 -18 -11 -18 -19 0 -8 -4 -14 -8 -14 -5 0 -8 -10
-8 -21 1 -12 -5 -24 -12 -27 -10 -3 -12 5 -8 34 4 30 4 33 -3 14 -14 -38 -13
-70 2 -70 18 0 57 46 57 68 0 10 5 23 12 30 7 7 10 11 8 11 -3 -1 -13 -3 -22
-6z"/>
<path d="M1480 2430 c0 -5 5 -10 11 -10 5 0 7 5 4 10 -3 6 -8 10 -11 10 -2 0
-4 -4 -4 -10z"/>
<path d="M1372 2400 c0 -14 2 -19 5 -12 2 6 2 18 0 25 -3 6 -5 1 -5 -13z"/>
<path d="M665 2400 c-3 -5 -1 -10 4 -10 6 0 11 5 11 10 0 6 -2 10 -4 10 -3 0
-8 -4 -11 -10z"/>
<path d="M447 2382 c-15 -9 -27 -23 -27 -30 0 -8 -13 -30 -30 -48 -31 -35 -31
-53 -1 -88 9 -10 16 -21 16 -25 0 -3 8 -6 18 -5 21 1 21 -1 3 -19 -13 -13 -12
-14 9 -14 27 0 60 31 68 65 4 17 1 22 -14 22 -10 0 -19 5 -19 10 0 19 39 10
57 -13 10 -13 24 -22 31 -19 19 6 14 -7 -13 -40 -26 -31 -35 -57 -12 -38 6 6
27 24 46 40 34 30 55 32 44 4 -4 -10 2 -17 16 -21 11 -3 21 -8 21 -10 0 -3
-23 -30 -51 -60 -27 -31 -48 -62 -45 -69 3 -7 0 -15 -7 -18 -8 -3 -6 -5 3 -5
24 -1 35 10 65 67 15 28 31 52 35 52 4 0 20 12 35 26 25 23 27 24 22 5 -3 -12
-1 -23 4 -26 17 -11 47 15 54 45 4 16 13 30 21 30 8 0 14 4 14 8 0 18 -13 20
-37 5 -36 -24 -72 -5 -66 34 4 25 3 26 -10 11 -15 -19 -47 -24 -47 -8 0 5 8
13 17 19 28 15 6 26 -22 11 -18 -10 -29 -10 -36 -3 -8 8 -8 13 0 17 6 4 11 12
11 17 0 6 -7 4 -15 -5 -8 -8 -15 -26 -15 -39 l0 -24 -39 19 c-21 10 -47 28
-57 39 -24 27 -27 77 -5 81 14 3 14 4 0 10 -8 3 -27 -1 -42 -10z m7 -88 c6
-17 -5 -44 -26 -61 -9 -8 -16 -7 -25 2 -10 11 -7 17 13 30 15 10 23 22 20 31
-3 8 -1 14 3 14 5 0 12 -7 15 -16z"/>
<path d="M1497 2355 c6 -45 8 -49 21 -44 5 2 1 22 -9 44 l-18 40 6 -40z"/>
<path d="M1302 2315 c0 -16 2 -22 5 -12 2 9 2 23 0 30 -3 6 -5 -1 -5 -18z"/>
<path d="M550 2305 c7 -9 15 -13 17 -11 7 7 -7 26 -19 26 -6 0 -6 -6 2 -15z"/>
<path d="M297 2293 c-10 -9 -9 -23 1 -23 5 0 17 7 28 15 19 14 19 14 -2 15
-11 0 -24 -3 -27 -7z"/>
<path d="M740 2276 c0 -10 8 -16 22 -16 12 0 19 1 17 3 -2 1 -12 9 -21 16 -15
12 -18 11 -18 -3z"/>
<path d="M823 2276 c-4 -7 -15 -15 -23 -18 -21 -7 73 -49 111 -50 16 -1 32 -5
35 -10 3 -4 15 -8 27 -9 12 0 40 -7 62 -15 l40 -14 -50 5 c-41 3 -46 2 -27 -7
12 -6 23 -18 23 -27 1 -9 3 -23 4 -31 1 -8 3 -23 4 -34 1 -16 3 -16 17 -5 10
8 14 24 12 47 -3 28 -1 33 13 29 14 -4 18 1 16 24 -2 23 -11 33 -55 55 -33 17
-68 27 -90 26 -20 -1 -52 3 -70 9 -27 9 -31 13 -21 25 9 11 8 14 -4 14 -9 0
-20 -6 -24 -14z"/>
<path d="M1362 2260 c0 -14 2 -19 5 -12 2 6 2 18 0 25 -3 6 -5 1 -5 -13z"/>
<path d="M1317 2177 c-2 -7 -5 -34 -6 -60 -2 -41 1 -48 15 -45 26 5 37 31 30
70 -7 36 -31 57 -39 35z m14 -80 c-8 -8 -11 -7 -11 4 0 9 3 19 7 23 4 4 9 2
11 -4 3 -7 -1 -17 -7 -23z"/>
<path d="M792 2144 c-20 -21 -10 -35 12 -18 13 9 16 18 10 23 -5 6 -14 4 -22
-5z"/>
<path d="M1122 2145 c-20 -10 -21 -13 -7 -19 9 -3 28 -6 41 -6 22 0 23 3 14
20 -12 23 -16 23 -48 5z"/>
<path d="M1417 2153 c-11 -10 -8 -63 3 -63 5 0 9 16 8 35 -1 38 -1 38 -11 28z"/>
<path d="M595 2137 c-5 -7 -11 -19 -13 -27 -3 -10 2 -9 17 4 11 10 18 23 15
27 -6 11 -7 11 -19 -4z"/>
<path d="M1186 2135 c4 -8 8 -15 10 -15 2 0 4 7 4 15 0 8 -4 15 -10 15 -5 0
-7 -7 -4 -15z"/>
<path d="M364 2105 c-10 -8 -14 -15 -8 -15 6 0 17 7 24 15 16 19 9 19 -16 0z"/>
<path d="M1370 2091 c0 -13 -8 -30 -17 -37 -16 -13 -15 -13 7 -5 27 9 38 37
21 54 -8 8 -11 5 -11 -12z"/>
<path d="M680 2079 c0 -6 -30 -41 -66 -76 -60 -59 -66 -62 -60 -37 l8 29 -31
-30 c-17 -17 -31 -38 -31 -47 0 -10 -8 -22 -19 -27 -10 -6 -22 -22 -25 -35 -4
-17 -11 -23 -21 -20 -10 4 -15 0 -15 -11 0 -9 -5 -13 -10 -10 -15 9 -29 -37
-18 -57 5 -10 5 -18 0 -18 -10 0 -92 -115 -92 -130 0 -15 29 -12 46 4 8 8 12
21 9 29 -3 7 1 20 10 27 8 7 15 16 15 21 0 18 35 49 56 49 21 0 74 51 74 70 0
4 23 30 50 56 28 27 49 53 47 59 -5 13 20 62 45 89 27 29 51 76 38 76 -5 0
-10 -5 -10 -11z m-160 -213 c0 -2 -7 -9 -15 -16 -13 -11 -14 -10 -9 4 5 14 24
23 24 12z"/>
<path d="M1530 2065 c0 -8 4 -15 10 -15 5 0 7 7 4 15 -4 8 -8 15 -10 15 -2 0
-4 -7 -4 -15z"/>
<path d="M1430 2059 c0 -5 5 -7 10 -4 6 3 10 8 10 11 0 2 -4 4 -10 4 -5 0 -10
-5 -10 -11z"/>
<path d="M1541 1974 c0 -11 3 -14 6 -6 3 7 2 16 -1 19 -3 4 -6 -2 -5 -13z"/>
<path d="M456 1924 c-8 -22 -8 -24 8 -24 19 0 28 27 11 34 -7 2 -16 -2 -19
-10z"/>
<path d="M1036 1925 c-3 -8 -1 -15 4 -15 6 0 10 7 10 15 0 8 -2 15 -4 15 -2 0
-6 -7 -10 -15z"/>
<path d="M755 1900 c-3 -5 -1 -10 6 -10 8 0 4 -9 -8 -22 -11 -13 -26 -52 -34
-87 -10 -46 -19 -66 -34 -72 -19 -7 -19 -8 3 -8 31 -1 24 -22 -14 -40 l-29
-15 24 -6 c25 -6 90 18 91 33 0 13 27 37 34 30 3 -3 -2 -12 -12 -19 -9 -7 -12
-13 -7 -13 6 0 19 6 30 15 17 13 18 16 5 24 -13 9 -11 13 10 29 14 11 22 22
19 26 -4 3 -14 -1 -23 -10 -15 -15 -20 -12 -17 8 1 10 -7 9 -31 -4 -16 -9 -19
-8 -16 2 3 8 19 18 36 23 40 11 51 41 24 67 -11 10 -23 27 -27 39 -7 22 -20
26 -30 10z"/>
<path d="M1140 1873 c0 -10 -3 -28 -6 -40 -4 -13 -2 -23 4 -23 5 0 12 18 14
40 2 22 0 40 -4 40 -5 0 -8 -8 -8 -17z"/>
<path d="M270 1840 c0 -5 5 -10 11 -10 5 0 7 5 4 10 -3 6 -8 10 -11 10 -2 0
-4 -4 -4 -10z"/>
<path d="M1071 1804 c0 -11 3 -14 6 -6 3 7 2 16 -1 19 -3 4 -6 -2 -5 -13z"/>
<path d="M697 1803 c-4 -3 -7 -13 -7 -22 1 -13 3 -13 11 2 11 19 8 33 -4 20z"/>
<path d="M1315 1800 c3 -5 8 -10 11 -10 2 0 4 5 4 10 0 6 -5 10 -11 10 -5 0
-7 -4 -4 -10z"/>
<path d="M1260 1790 c-27 -17 4 -31 69 -31 33 0 61 -4 61 -7 0 -4 -16 -13 -35
-20 -19 -6 -51 -18 -70 -24 -19 -7 -35 -17 -35 -21 0 -5 4 -6 9 -3 5 4 16 3
25 0 13 -5 14 -9 5 -20 -9 -11 -8 -14 5 -14 9 0 16 8 16 18 0 13 2 14 9 3 11
-17 114 -7 131 14 15 18 -17 28 -67 20 -36 -6 -37 -5 -19 9 18 15 38 20 51 14
8 -4 25 24 25 41 0 11 -16 12 -85 7 -53 -4 -85 -3 -85 3 0 5 6 12 13 14 6 3 8
6 2 6 -5 0 -17 -4 -25 -9z m67 -96 c-3 -3 -12 -4 -19 -1 -8 3 -5 6 6 6 11 1
17 -2 13 -5z"/>
<path d="M230 1740 c0 -5 5 -10 11 -10 5 0 7 5 4 10 -3 6 -8 10 -11 10 -2 0
-4 -4 -4 -10z"/>
<path d="M1111 1664 c0 -11 3 -14 6 -6 3 7 2 16 -1 19 -3 4 -6 -2 -5 -13z"/>
<path d="M587 1663 c-12 -12 -7 -33 8 -33 17 0 19 9 7 28 -5 7 -11 9 -15 5z"/>
<path d="M1112 1615 c0 -16 2 -22 5 -12 2 9 2 23 0 30 -3 6 -5 -1 -5 -18z"/>
<path d="M1257 1628 c-7 -4 9 -8 35 -8 26 0 49 4 52 9 7 10 -71 9 -87 -1z"/>
<path d="M1365 1630 c4 -6 11 -8 16 -5 14 9 11 15 -7 15 -8 0 -12 -5 -9 -10z"/>
<path d="M1420 1630 c-10 -7 -11 -10 -2 -10 6 0 12 -4 12 -10 0 -5 -7 -10 -15
-10 -8 0 -15 -4 -15 -8 0 -12 38 -8 52 6 17 17 -11 45 -32 32z"/>
<path d="M1062 1598 c-1 -14 -5 -35 -8 -45 -5 -14 -4 -15 5 -7 7 7 11 26 8 45
-3 28 -4 29 -5 7z"/>
<path d="M1348 1592 c-20 -4 -25 -22 -5 -21 6 0 21 4 31 8 15 6 16 9 5 12 -8
3 -22 4 -31 1z"/>
<path d="M1301 1571 c-8 -14 -7 -20 4 -25 8 -3 17 -1 20 4 4 6 2 10 -4 10 -6
0 -8 7 -5 15 9 22 -3 19 -15 -4z"/>
<path d="M1210 1569 c0 -7 -10 -9 -26 -5 -19 5 -25 3 -21 -6 4 -12 24 -13 55
-3 14 5 16 25 2 25 -5 0 -10 -5 -10 -11z"/>
<path d="M473 1546 c-19 -22 -26 -24 -49 -16 -21 9 -29 7 -40 -7 -7 -10 -14
-21 -14 -25 0 -13 28 -9 33 5 2 6 8 9 12 5 9 -8 -12 -31 -37 -40 -21 -8 -13
-45 13 -59 11 -5 19 -16 19 -24 0 -7 5 -15 10 -17 6 -2 -10 -25 -35 -51 -25
-26 -43 -52 -40 -57 3 -6 -1 -10 -9 -10 -10 0 -13 6 -10 15 4 10 0 15 -12 15
-9 0 -15 -3 -11 -6 3 -4 -1 -13 -9 -21 -26 -26 -11 -38 44 -36 28 1 51 -1 51
-5 -3 -21 3 -32 16 -32 9 0 19 -8 22 -17 4 -10 9 -20 13 -23 3 -3 11 -29 18
-58 11 -51 11 -55 -13 -86 -27 -35 -30 -46 -15 -46 5 0 20 15 32 34 20 29 25
31 36 19 11 -12 11 -18 -4 -41 -11 -16 -19 -22 -22 -14 -2 7 2 20 9 30 11 13
9 13 -9 -2 -12 -11 -22 -23 -22 -28 0 -17 30 -20 45 -4 9 8 22 13 29 10 11 -4
25 12 30 36 1 3 7 14 13 25 12 19 12 19 12 -5 0 -14 -6 -34 -14 -44 -8 -11
-15 -25 -15 -30 0 -7 3 -8 8 -1 4 6 14 10 22 10 9 0 17 12 20 30 3 17 11 30
18 30 13 0 32 23 32 38 0 5 -4 5 -10 2 -5 -3 -10 1 -10 9 0 8 5 18 10 21 7 4
7 12 0 25 -12 22 -13 40 -2 39 4 -1 17 -1 30 0 22 1 22 2 8 23 -9 12 -16 31
-16 41 0 13 -5 17 -17 13 -23 -6 -107 96 -117 141 -4 18 -14 37 -22 41 -24 13
-6 42 26 42 17 0 30 7 34 16 9 23 0 29 -19 14 -12 -10 -15 -10 -15 2 0 11 -7
14 -25 10 -30 -5 -34 14 -5 23 11 3 20 14 20 23 0 14 -2 14 -9 3 -7 -11 -10
-8 -13 13 l-3 28 -22 -26z m-28 -106 c3 -5 1 -10 -4 -10 -6 0 -11 5 -11 10 0
6 2 10 4 10 3 0 8 -4 11 -10z m55 -190 c0 -11 -2 -20 -4 -20 -2 0 -6 9 -9 20
-3 11 -1 20 4 20 5 0 9 -9 9 -20z m30 -40 c0 -5 -4 -10 -10 -10 -5 0 -10 5
-10 10 0 6 5 10 10 10 6 0 10 -4 10 -10z m77 -22 c-3 -8 -6 -5 -6 6 -1 11 2
17 5 13 3 -3 4 -12 1 -19z m-32 -45 c-33 -29 -43 -24 -20 11 11 16 22 23 32
19 13 -5 11 -11 -12 -30z m2 -79 c-3 -3 -12 -4 -19 -1 -8 3 -5 6 6 6 11 1 17
-2 13 -5z"/>
<path d="M1370 1554 c0 -7 8 -10 19 -7 11 3 27 1 37 -5 15 -8 13 -11 -14 -17
-18 -3 -34 -11 -37 -16 -6 -9 41 -3 89 12 15 5 32 7 36 4 4 -3 13 2 20 10 17
20 2 25 -83 28 -46 1 -67 -2 -67 -9z"/>
<path d="M260 1520 c0 -5 5 -10 11 -10 5 0 7 5 4 10 -3 6 -8 10 -11 10 -2 0
-4 -4 -4 -10z"/>
<path d="M1580 1506 c-15 -39 -12 -46 6 -13 9 16 13 31 10 34 -3 3 -10 -6 -16
-21z"/>
<path d="M1047 1487 c-3 -8 -1 -20 4 -28 6 -10 9 -7 9 14 0 29 -5 35 -13 14z"/>
<path d="M1163 1493 c-23 -8 -13 -20 12 -15 14 2 25 8 25 11 0 8 -18 10 -37 4z"/>
<path d="M191 1473 c-7 -8 -11 -16 -8 -19 6 -7 37 7 37 16 0 16 -15 18 -29 3z"/>
<path d="M1255 1470 c3 -5 8 -10 11 -10 2 0 4 5 4 10 0 6 -5 10 -11 10 -5 0
-7 -4 -4 -10z"/>
<path d="M1310 1470 c0 -5 5 -10 10 -10 6 0 10 5 10 10 0 6 -4 10 -10 10 -5 0
-10 -4 -10 -10z"/>
<path d="M1370 1470 c0 -5 5 -10 10 -10 6 0 10 5 10 10 0 6 -4 10 -10 10 -5 0
-10 -4 -10 -10z"/>
<path d="M1410 1470 c-8 -5 -5 -9 8 -12 11 -3 25 -2 32 2 8 5 5 9 -8 12 -11 3
-25 2 -32 -2z"/>
<path d="M1476 1453 c-3 -8 -6 -16 -6 -17 0 -1 18 0 40 2 22 2 40 8 40 13 0 5
-3 9 -7 10 -5 0 -20 2 -35 4 -17 2 -29 -2 -32 -12z"/>
<path d="M1406 1433 c-5 -11 -2 -13 10 -9 8 3 22 6 30 6 24 0 15 15 -10 16
-14 1 -27 -5 -30 -13z"/>
<path d="M1320 1430 c0 -6 7 -10 15 -10 8 0 15 2 15 4 0 2 -7 6 -15 10 -8 3
-15 1 -15 -4z"/>
<path d="M1570 1354 c0 -8 5 -12 10 -9 6 3 10 10 10 16 0 5 -4 9 -10 9 -5 0
-10 -7 -10 -16z"/>
<path d="M1496 1274 c-4 -10 -1 -14 6 -12 15 5 23 28 10 28 -5 0 -13 -7 -16
-16z"/>
<path d="M356 1164 c-4 -15 -4 -29 -1 -32 8 -8 25 19 25 41 0 26 -17 20 -24
-9z"/>
<path d="M390 1135 c-8 -9 -8 -15 -2 -15 12 0 26 19 19 26 -2 2 -10 -2 -17
-11z"/>
<path d="M500 663 c0 -5 4 -15 10 -23 11 -18 25 -7 17 15 -6 15 -27 21 -27 8z"/>
<path d="M200 332 c-24 -20 -25 -21 -10 -64 14 -39 18 -43 52 -46 63 -5 103
62 60 101 -30 28 -74 31 -102 9z"/>
<path d="M576 308 c-3 -7 -9 -26 -14 -43 -5 -16 -15 -29 -21 -28 -16 4 -14
-16 4 -33 13 -13 15 -13 15 -1 0 8 7 20 15 27 9 7 14 18 12 24 -2 6 0 21 4 33
5 13 4 25 -1 28 -6 4 -12 0 -14 -7z"/>
<path d="M1155 310 c-27 -4 -76 -5 -107 -2 -40 3 -58 1 -58 -7 0 -11 18 -12
171 -15 49 -2 55 1 51 16 -2 10 -5 17 -6 17 0 -1 -23 -5 -51 -9z"/>
<path d="M1275 301 c-3 -12 -11 -21 -16 -21 -5 0 -9 -4 -9 -10 0 -22 28 -8 34
16 8 32 1 44 -9 15z"/>
<path d="M685 290 c-19 -8 -19 -9 3 -9 12 -1 22 4 22 9 0 6 -1 10 -2 9 -2 0
-12 -4 -23 -9z"/>
<path d="M305 190 c-3 -5 1 -10 9 -10 9 0 16 5 16 10 0 6 -4 10 -9 10 -6 0
-13 -4 -16 -10z"/>
<path d="M1260 190 c0 -5 4 -10 9 -10 6 0 13 5 16 10 3 6 -1 10 -9 10 -9 0
-16 -4 -16 -10z"/>
</g>
</svg>
