<?xml version="1.0" standalone="no"?>
<!DOCTYPE svg PUBLIC "-//W3C//DTD SVG 20010904//EN"
 "http://www.w3.org/TR/2001/REC-SVG-20010904/DTD/svg10.dtd">
<svg version="1.0" xmlns="http://www.w3.org/2000/svg"
 width="252.000000pt" height="370.000000pt" viewBox="0 0 252.000000 370.000000"
 preserveAspectRatio="xMidYMid meet">
<metadata>
Created by potrace 1.16, written by Peter Selinger 2001-2019
</metadata>
<g transform="translate(0.000000,370.000000) scale(0.100000,-0.100000)"
fill="#000000" stroke="none">
<path d="M40 3682 c0 -4 5 -13 11 -19 7 -7 12 -47 11 -100 -1 -282 -1 -743 1
-831 2 -57 0 -105 -4 -108 -5 -3 -5 -516 1 -724 0 -14 0 -122 0 -240 -1 -610
-1 -701 6 -914 4 -137 3 -161 -10 -168 -22 -12 -20 -25 5 -31 18 -5 20 -11 15
-49 -20 -141 -14 -388 9 -388 6 0 15 -12 21 -26 l9 -26 705 -5 c963 -6 1236
-4 1480 12 130 8 143 11 137 36 -6 22 3 25 21 7 9 -9 12 -1 13 37 1 45 2 47
10 20 6 -22 7 -15 3 25 -3 30 -6 141 -8 245 -2 105 -7 226 -10 270 -4 44 -9
103 -11 130 -2 28 1 92 6 144 7 65 7 144 0 250 -13 193 -14 258 -6 294 6 21 4
27 -9 27 -15 0 -17 29 -15 338 2 221 -2 359 -9 402 -14 78 -16 302 -3 347 6
22 6 35 -1 39 -8 5 -9 117 -3 373 9 446 10 470 24 484 19 19 12 36 -16 43 -16
4 -33 14 -39 22 -32 43 -52 44 -814 48 -399 2 -747 5 -775 8 -27 2 -182 7
-343 10 -161 3 -297 8 -301 10 -4 3 -20 -2 -35 -10 -37 -18 -43 -18 -49 6 -5
19 -27 29 -27 12z m210 -74 c0 -4 -9 -12 -21 -18 -22 -13 -61 -6 -90 14 -15
10 -7 12 47 11 35 0 64 -3 64 -7z m105 -9 l30 -2 -29 -4 c-18 -3 -30 -12 -33
-24 -4 -13 -11 -18 -20 -15 -8 3 -19 6 -24 6 -6 0 -2 13 8 30 11 20 21 26 27
20 6 -6 24 -11 41 -11z m1810 -18 c3 -5 1 -12 -5 -16 -5 -3 -10 -17 -10 -31 0
-30 -7 -30 -30 -1 -28 34 -39 12 -44 -88 -3 -50 -9 -101 -13 -114 -9 -22 -10
-21 -27 23 -10 26 -20 65 -23 87 -5 37 -3 43 31 71 20 16 34 34 31 39 -4 5 -1
9 5 9 6 0 18 7 26 15 17 17 50 20 59 6z m-105 -12 c0 -5 -7 -9 -15 -9 -8 0
-15 -6 -16 -12 0 -10 -2 -10 -6 0 -2 6 -11 12 -19 12 -31 0 -12 16 21 17 19 1
35 -3 35 -8z m244 -20 c-21 -24 -25 -23 -45 4 -16 22 -16 22 23 19 38 -4 38
-5 22 -23z m-1108 3 c-10 -10 -25 -12 -55 -7 -55 9 -45 21 18 21 44 0 49 -2
37 -14z m1180 -7 c23 -36 14 -38 -14 -4 -13 16 -19 29 -13 29 6 0 18 -11 27
-25z m-1319 9 c-3 -3 -12 -4 -19 -1 -8 3 -5 6 6 6 11 1 17 -2 13 -5z m723 -4
c0 -5 -4 -10 -10 -10 -5 0 -10 5 -10 10 0 6 5 10 10 10 6 0 10 -4 10 -10z
m195 0 c3 -6 -4 -10 -17 -10 -18 0 -20 2 -8 10 19 12 18 12 25 0z m-1325 -8
c0 -4 -9 -13 -19 -19 -16 -10 -18 -9 -14 8 5 18 33 28 33 11z m1530 -18 c0
-14 -4 -23 -9 -20 -5 3 -7 15 -4 26 7 28 13 25 13 -6z m-1877 -30 c-32 -43
-47 -44 -38 -1 10 44 11 45 39 40 l25 -5 -26 -34z m122 36 c-3 -5 -11 -10 -16
-10 -6 0 -7 5 -4 10 3 6 11 10 16 10 6 0 7 -4 4 -10z m255 -30 c-12 -16 -24
-30 -26 -30 -3 0 3 14 13 30 9 17 21 30 26 30 5 0 -1 -13 -13 -30z m183 0
c-10 -9 -20 -13 -21 -8 -6 13 19 39 30 32 5 -3 1 -14 -9 -24z m812 20 c-3 -5
-14 -10 -23 -9 -14 0 -13 2 3 9 27 11 27 11 20 0z m78 4 c7 -7 -33 -54 -46
-54 -11 0 3 43 17 52 14 9 21 10 29 2z m-932 -31 c-12 -20 -14 -14 -5 12 4 9
9 14 11 11 3 -2 0 -13 -6 -23z m1312 -63 c7 -72 0 -110 -19 -103 -8 3 -14 2
-12 -3 2 -5 -1 -9 -7 -9 -10 0 -9 152 2 188 5 18 5 18 17 0 7 -10 16 -43 19
-73z m-1595 66 c1 -2 -2 -15 -7 -29 -7 -19 -15 -24 -30 -20 -14 3 -23 0 -27
-11 -11 -29 -27 -17 -20 16 9 45 25 60 55 53 14 -4 27 -8 29 -9z m247 -13 c-5
-10 -9 -20 -10 -23 -3 -15 -37 -71 -40 -68 -6 5 24 90 37 106 14 17 22 7 13
-15z m208 20 c-7 -2 -19 -2 -25 0 -7 3 -2 5 12 5 14 0 19 -2 13 -5z m1226 -35
c-4 -17 -6 -43 -3 -57 6 -26 6 -26 -11 -6 -9 11 -14 15 -12 10 3 -6 2 -26 -2
-45 -6 -27 -10 -31 -16 -18 -8 20 33 161 45 153 5 -3 4 -19 -1 -37z m-1590 -2
c-7 -14 -20 -26 -29 -26 -10 0 -34 -11 -54 -25 -50 -34 -55 -31 -17 7 17 17
31 35 31 40 0 4 11 8 24 8 13 0 29 7 36 15 18 22 23 12 9 -19z m261 -16 c-11
-28 -20 -53 -20 -55 0 -3 -7 -5 -15 -5 -8 0 -15 2 -15 4 0 7 62 106 66 106 2
0 -5 -23 -16 -50z m222 20 c-3 -18 0 -30 7 -30 6 0 11 -7 11 -15 0 -9 -6 -12
-15 -9 -20 8 -20 84 0 84 1 0 0 -13 -3 -30z m175 -17 c-3 -10 -5 -2 -5 17 0
19 2 27 5 18 2 -10 2 -26 0 -35z m-898 -9 c-19 -35 -20 -36 -14 -9 4 16 11 36
17 43 20 23 18 6 -3 -34z m778 9 c-3 -10 -5 -4 -5 12 0 17 2 24 5 18 2 -7 2
-21 0 -30z m86 10 c-8 -22 -23 -33 -43 -33 -10 1 -5 9 13 25 33 30 39 31 30 8z
m697 13 c0 -3 -4 -8 -10 -11 -5 -3 -10 -1 -10 4 0 6 5 11 10 11 6 0 10 -2 10
-4z m-1520 -43 c-14 -48 -21 -61 -36 -67 -10 -4 -6 10 11 44 28 56 38 64 25
23z m296 -4 c-7 -18 -20 -36 -29 -40 -8 -5 -34 -37 -56 -70 -23 -34 -41 -54
-41 -46 0 25 23 71 42 85 10 7 18 21 18 31 0 21 46 71 66 71 11 0 11 -5 0 -31z
m64 -29 c-7 -17 -15 -28 -18 -26 -2 3 1 19 8 36 7 17 15 28 18 26 2 -3 -1 -19
-8 -36z m590 3 c-11 -17 -11 -17 -6 0 3 10 6 24 7 30 0 9 2 9 5 0 3 -7 0 -20
-6 -30z m260 -20 c-30 -52 -60 -92 -60 -79 0 12 56 121 65 128 26 19 24 3 -5
-49z m-690 -7 c-6 -20 -15 -38 -20 -41 -5 -3 -2 15 7 40 8 25 17 44 20 41 3
-2 0 -21 -7 -40z m297 17 c-9 -44 -26 -83 -36 -83 -10 0 -21 35 -21 72 0 26 5
29 54 37 5 0 6 -11 3 -26z m553 17 c0 -5 -7 -10 -16 -10 -8 0 -12 5 -9 10 3 6
10 10 16 10 5 0 9 -4 9 -10z m205 -51 c6 -31 3 -38 -20 -53 l-27 -18 5 29 c3
15 9 46 12 68 8 44 19 35 30 -26z m-1425 35 c0 -9 5 -12 13 -8 9 5 9 4 0 -6
-10 -11 -15 -11 -27 0 -9 7 -13 16 -10 21 9 15 24 10 24 -7z m434 -11 c-10
-46 -13 -53 -24 -53 -13 0 -13 23 2 55 15 33 30 32 22 -2z m66 13 c0 -8 -4
-18 -10 -21 -5 -3 -10 3 -10 14 0 12 5 21 10 21 6 0 10 -6 10 -14z m90 10 c0
-3 -4 -8 -10 -11 -5 -3 -10 -1 -10 4 0 6 5 11 10 11 6 0 10 -2 10 -4z m-44
-27 c21 -20 21 -22 6 -70 -14 -44 -14 -51 -2 -59 25 -16 51 -11 71 13 l18 22
1 -33 c0 -20 4 -31 10 -27 11 7 80 150 80 166 0 5 4 9 10 9 5 0 0 -24 -11 -52
-34 -87 -36 -93 -32 -103 2 -6 -10 -24 -26 -39 l-30 -29 -7 28 c-5 18 -9 23
-15 14 -5 -9 -11 -10 -21 -2 -24 18 -70 -4 -107 -52 l-23 -30 4 30 c2 17 8 29
16 28 15 -4 16 29 1 44 -8 8 -8 25 2 62 10 40 15 48 26 39 16 -13 17 0 3 36
-12 31 -4 33 26 5z m806 -10 c-19 -17 -37 -27 -40 -24 -8 8 47 55 63 55 6 0
-5 -14 -23 -31z m-1758 -79 c-24 -49 -47 -108 -50 -130 -4 -22 -9 -40 -13 -40
-13 0 2 105 20 134 10 17 30 52 45 79 46 79 44 52 -2 -43z m293 73 c-9 -9 -20
-13 -24 -9 -4 4 -1 11 7 16 25 16 35 11 17 -7z m173 13 c0 -2 -7 -7 -16 -10
-8 -3 -12 -2 -9 4 6 10 25 14 25 6z m1576 -23 c-10 -10 -19 5 -10 18 6 11 8
11 12 0 2 -7 1 -15 -2 -18z m31 -5 c-3 -7 -5 -2 -5 12 0 14 2 19 5 13 2 -7 2
-19 0 -25z m110 10 c-3 -8 -6 -5 -6 6 -1 11 2 17 5 13 3 -3 4 -12 1 -19z
m-1807 -2 c0 -8 6 -16 12 -18 9 -3 7 -16 -7 -48 -11 -25 -19 -47 -18 -50 3
-12 -19 -40 -32 -40 -25 0 -18 57 16 148 9 24 29 30 29 8z m289 -17 c-25 -16
-32 -9 -13 12 12 13 20 16 22 9 3 -7 -2 -16 -9 -21z m871 6 c-7 -9 -10 -19 -6
-23 4 -4 18 6 31 23 30 37 42 28 18 -14 -12 -20 -26 -31 -40 -31 -23 0 -83
-69 -83 -95 0 -6 -7 -20 -15 -31 -13 -17 -14 -16 -3 16 13 42 98 183 106 176
3 -3 -1 -12 -8 -21z m95 6 c-3 -6 -11 -11 -17 -11 -6 0 -6 6 2 15 14 17 26 13
15 -4z m139 -41 c-14 -62 -61 -166 -71 -157 -2 3 0 30 7 60 6 30 8 66 4 81 -5
19 -2 26 9 26 8 0 25 11 38 25 13 13 25 25 26 25 1 0 -5 -27 -13 -60z m-1453
3 c-14 -48 -14 -120 -1 -128 6 -4 2 -18 -11 -36 -11 -16 -25 -26 -31 -23 -16
10 -2 111 23 177 24 64 36 70 20 10z m-131 5 c0 -21 -23 -49 -52 -64 l-31 -16
7 29 c4 15 11 40 17 55 10 24 14 26 35 16 13 -6 24 -15 24 -20z m330 17 c0 -8
-16 -32 -36 -53 -34 -34 -35 -35 -19 -7 21 34 49 74 53 75 1 0 2 -7 2 -15z
m881 -12 c-12 -20 -14 -14 -5 12 4 9 9 14 11 11 3 -2 0 -13 -6 -23z m-1178 -3
c-3 -11 -7 -20 -9 -20 -2 0 -4 9 -4 20 0 11 4 20 9 20 5 0 7 -9 4 -20z m471
-7 c-9 -36 -34 -86 -40 -80 -3 2 2 20 10 38 8 19 17 42 20 52 9 28 17 19 10
-10z m1402 -21 c-4 -3 -12 0 -18 6 -9 9 -9 12 0 12 7 0 13 8 13 18 1 10 3 8 6
-6 3 -13 2 -26 -1 -30z m-1851 -16 c-24 -47 -26 -49 -70 -50 -25 0 -45 0 -45
1 0 5 77 46 85 45 6 -1 18 12 28 30 28 48 29 28 2 -26z m299 -3 c-20 -56 -33
-75 -45 -68 -7 5 10 50 40 103 21 39 24 17 5 -35z m476 17 c0 -27 -22 -46 -40
-35 -10 6 22 74 33 68 4 -2 7 -17 7 -33z m270 20 c-6 -11 -13 -20 -16 -20 -2
0 0 9 6 20 6 11 13 20 16 20 2 0 0 -9 -6 -20z m897 -27 c-3 -10 -5 -2 -5 17 0
19 2 27 5 18 2 -10 2 -26 0 -35z m-177 -40 c-4 -27 -6 -51 -3 -55 10 -18 23
-6 29 28 12 64 23 21 14 -53 -6 -44 -6 -102 0 -145 5 -40 8 -74 6 -75 -1 -1
-19 20 -39 47 -44 59 -68 66 -65 19 2 -18 -2 -34 -9 -36 -15 -5 -26 64 -21
132 4 48 4 49 12 18 5 -18 17 -40 28 -50 19 -17 20 -17 34 2 16 22 18 45 4 45
-5 0 -10 -7 -10 -15 0 -32 -17 -12 -33 38 -21 68 -21 73 3 97 11 11 23 35 27
52 5 27 8 29 18 15 8 -11 9 -32 5 -64z m-1210 52 c-7 -9 -15 -13 -17 -11 -7 7
7 26 19 26 6 0 6 -6 -2 -15z m517 -81 c-36 -71 -84 -139 -70 -99 7 19 55 107
83 152 28 44 20 13 -13 -53z m363 70 c0 -33 -36 -116 -60 -139 -34 -33 -39
-60 -11 -68 17 -4 18 -9 10 -44 -8 -28 -16 -39 -30 -39 -10 0 -18 5 -18 11 3
24 -2 35 -16 35 -8 0 -19 9 -25 20 -9 16 -6 30 14 68 14 26 27 58 30 72 7 34
60 90 85 90 12 0 21 -3 21 -6z m96 -134 c-13 -42 -14 -43 -15 -14 -1 17 5 57
12 90 l12 59 3 -45 c1 -25 -4 -65 -12 -90z m-1163 90 c-3 -11 -9 -20 -14 -20
-10 0 -11 12 -3 34 9 22 23 10 17 -14z m916 8 c-19 -35 -69 -102 -69 -92 0 21
55 114 67 114 11 0 11 -4 2 -22z m375 0 c8 -32 7 -113 -1 -122 -11 -11 -31 76
-25 112 5 37 17 42 26 10z m-1641 -3 c-3 -9 -8 -14 -10 -11 -3 3 -2 9 2 15 9
16 15 13 8 -4z m525 -8 c-19 -15 -30 -68 -17 -87 7 -12 9 -10 9 7 0 62 42 74
66 18 22 -54 18 -73 -20 -96 -19 -11 -41 -30 -50 -43 -8 -13 -28 -25 -44 -28
l-29 -4 14 44 c19 54 9 69 -36 54 -17 -6 -31 -7 -31 -3 0 17 31 81 39 81 16 0
59 -77 63 -111 l4 -34 12 28 c14 32 -1 72 -44 117 -17 18 -20 29 -14 40 8 12
10 10 10 -7 0 -13 5 -23 10 -23 6 0 10 5 10 10 0 15 50 63 57 56 4 -3 0 -12
-9 -19z m-309 -17 c-12 -32 -32 -42 -27 -12 2 13 24 40 35 42 1 0 -3 -13 -8
-30z m381 15 c0 -8 -4 -15 -10 -15 -5 0 -10 7 -10 15 0 8 5 15 10 15 6 0 10
-7 10 -15z m-821 -46 c-12 -24 -28 -39 -42 -39 -4 0 2 19 14 41 14 28 24 38
31 31 7 -7 6 -18 -3 -33z m81 31 c0 -5 -5 -10 -11 -10 -5 0 -7 5 -4 10 3 6 8
10 11 10 2 0 4 -4 4 -10z m1270 3 c0 -14 -19 -38 -25 -32 -8 8 5 39 16 39 5 0
9 -3 9 -7z m-960 -23 c0 -16 -43 -50 -65 -50 -15 0 -2 31 21 49 33 26 44 26
44 1z m1732 -30 c-3 -31 -1 -50 6 -50 6 0 13 6 15 13 3 6 5 -17 5 -53 0 -57
-1 -61 -9 -32 -9 29 -11 31 -25 17 -19 -19 -31 -20 -15 -1 6 7 10 26 9 42 -3
54 2 114 11 114 4 0 6 -22 3 -50z m-1958 31 c3 -5 -1 -11 -9 -15 -11 -4 -15
-21 -15 -66 0 -34 -6 -71 -12 -83 -12 -20 -13 -17 -18 33 -5 52 -6 54 -18 31
-10 -17 -11 -26 -3 -34 16 -16 14 -37 -4 -37 -12 0 -15 15 -15 78 0 72 2 80
23 90 27 13 64 15 71 3z m789 -47 c-4 -34 -10 -42 -34 -51 -23 -9 -29 -9 -29
3 0 8 -7 14 -15 14 -30 0 -6 44 38 70 38 24 45 17 40 -36z m101 7 c-9 -22 -20
-41 -25 -41 -5 0 -9 -9 -9 -20 0 -28 9 -25 41 13 15 17 30 29 33 26 3 -3 -5
-18 -19 -33 -14 -15 -25 -31 -25 -35 0 -4 -9 -16 -20 -26 -20 -18 -20 -17 -20
29 0 33 -3 45 -12 40 -7 -5 -8 -3 -3 7 17 28 68 89 72 85 2 -2 -4 -22 -13 -45z
m-57 7 c-3 -7 -5 -2 -5 12 0 14 2 19 5 13 2 -7 2 -19 0 -25z m-547 -29 c-12
-23 -23 -39 -26 -37 -7 8 26 78 36 78 6 0 1 -18 -10 -41z m1192 16 c-4 -26
-22 -45 -22 -25 0 12 18 50 24 50 2 0 1 -11 -2 -25z m-1238 -21 c-18 -44 -12
-68 16 -61 26 7 26 -9 0 -23 -11 -6 -20 -17 -20 -25 0 -29 29 -14 78 41 43 48
53 54 76 48 14 -3 26 -12 26 -19 0 -19 -28 -38 -49 -32 -13 3 -39 -16 -90 -64
-39 -37 -71 -61 -71 -53 0 8 -5 14 -11 14 -6 0 -8 -8 -5 -17 3 -10 2 -24 -3
-32 -7 -11 -10 -9 -16 9 -9 27 13 149 30 170 7 8 20 30 29 48 22 43 29 41 10
-4z m1641 -4 c-9 -41 -17 -33 -9 9 4 17 9 30 11 27 3 -2 2 -19 -2 -36z m-557
5 c-6 -14 -13 -23 -15 -21 -5 5 15 46 22 46 3 0 -1 -11 -7 -25z m-1272 -50
c-4 -15 -12 -25 -19 -22 -17 5 -21 55 -6 74 12 13 14 13 22 -5 5 -12 7 -33 3
-47z m77 46 c-5 -3 -12 -14 -16 -23 -3 -10 -11 -18 -16 -18 -6 0 -3 13 7 29 9
16 20 27 25 24 5 -3 5 -8 0 -12z m65 -5 c-11 -25 -36 -41 -47 -30 -5 5 44 54
54 54 3 0 0 -11 -7 -24z m987 -31 c-10 -19 -21 -35 -26 -35 -13 0 -11 8 13 52
27 47 37 34 13 -17z m105 9 c0 -13 5 -24 10 -24 14 0 12 -74 -2 -88 -7 -7 -20
-12 -30 -12 -13 0 -20 -10 -24 -30 -4 -16 -10 -30 -15 -30 -15 0 -10 32 11 75
20 41 27 105 11 105 -8 0 -61 -74 -61 -85 0 -3 -12 -23 -26 -43 -15 -20 -24
-29 -20 -19 3 11 9 31 12 45 7 30 113 144 126 136 4 -3 8 -16 8 -30z m-1470
17 c0 -5 -7 -14 -15 -21 -12 -10 -15 -10 -15 2 0 8 3 18 7 21 9 10 23 9 23 -2z
m1692 -18 c-5 -10 -13 -36 -17 -58 -8 -40 -8 -40 -16 -12 -9 32 -3 53 19 80
19 21 27 15 14 -10z m-82 7 c0 -5 -5 -10 -11 -10 -5 0 -7 5 -4 10 3 6 8 10 11
10 2 0 4 -4 4 -10z m259 -67 c10 -19 9 -23 -3 -23 -8 0 -20 -8 -25 -17 -8 -14
-10 -8 -11 27 0 25 3 56 7 70 7 25 7 25 13 -5 4 -16 12 -40 19 -52z m-78 11
c-6 -28 -9 -32 -10 -14 -1 30 11 79 16 64 2 -6 -1 -28 -6 -50z m-1856 36 c-3
-5 -11 -10 -16 -10 -6 0 -7 5 -4 10 3 6 11 10 16 10 6 0 7 -4 4 -10z m950 0
c-27 -12 -43 -12 -25 0 8 5 22 9 30 9 10 0 8 -3 -5 -9z m60 -26 c-9 -14 -15
-37 -12 -50 2 -13 0 -24 -4 -24 -5 0 -9 7 -9 15 0 8 -4 15 -10 15 -18 0 -11
25 16 53 31 34 44 28 19 -9z m-271 -6 c-3 -13 -16 -41 -27 -63 -15 -29 -22
-35 -25 -22 -4 21 -30 23 -38 2 -4 -10 -11 -12 -23 -6 -10 6 -23 5 -34 0 -11
-7 -17 -6 -17 1 0 5 4 10 8 10 5 0 14 11 20 25 7 16 32 35 64 49 69 32 81 32
72 4z m1380 6 c3 -8 2 -12 -4 -9 -6 3 -10 10 -10 16 0 14 7 11 14 -7z m-2092
-46 c3 -41 -2 -70 -24 -128 l-28 -75 2 120 c3 118 7 131 40 134 3 1 8 -23 10
-51z m882 43 c3 -5 -12 -25 -33 -44 -50 -45 -64 -72 -57 -108 7 -39 -11 -37
-19 1 -8 38 25 111 63 139 30 23 38 25 46 12z m456 1 c0 -4 -8 -15 -17 -24
-28 -26 -40 -43 -47 -65 -7 -21 -36 -52 -36 -38 0 3 16 30 35 59 19 29 35 58
35 65 0 6 7 11 15 11 8 0 15 -3 15 -8z m-190 -52 c0 -21 -4 -42 -10 -45 -6 -4
-10 13 -10 45 0 32 4 49 10 45 6 -3 10 -24 10 -45z m-143 -22 c-2 -13 -4 -3
-4 22 0 25 2 35 4 23 2 -13 2 -33 0 -45z m749 14 c-12 -11 -18 7 -10 30 l8 23
4 -23 c2 -13 1 -26 -2 -30z m-1669 -9 c-3 -10 -5 -2 -5 17 0 19 2 27 5 18 2
-10 2 -26 0 -35z m124 13 c-22 -23 -28 -46 -12 -46 5 0 12 -8 14 -17 3 -11 5
-7 6 10 0 15 6 27 11 27 18 0 10 -38 -17 -80 l-28 -43 -6 59 c-5 49 -3 64 15
91 11 17 24 29 29 26 5 -3 -1 -15 -12 -27z m89 19 c0 -8 -4 -15 -10 -15 -5 0
-10 7 -10 15 0 8 5 15 10 15 6 0 10 -7 10 -15z m594 -32 c-15 -27 -34 -62 -43
-80 -19 -39 -25 -40 -39 -8 -10 22 -7 29 39 80 28 30 55 55 61 55 5 0 -3 -21
-18 -47z m356 32 c0 -8 -4 -15 -10 -15 -5 0 -7 7 -4 15 4 8 8 15 10 15 2 0 4
-7 4 -15z m95 -43 c-4 -19 -12 -29 -23 -28 -12 1 -18 -8 -20 -31 -2 -18 -7
-33 -13 -33 -5 0 -9 -29 -9 -64 0 -96 -18 -90 -22 6 -2 57 1 87 9 96 7 7 25
34 39 58 29 50 51 47 39 -4z m81 -11 c-13 -29 -26 -47 -28 -40 -4 13 41 103
48 96 3 -2 -6 -28 -20 -56z m-1368 11 c3 -37 -13 -82 -29 -82 -11 0 -6 71 8
106 8 21 18 9 21 -24z m302 23 c0 -7 -9 -20 -20 -30 -19 -18 -20 -17 -20 7 0
13 2 27 5 30 10 9 35 4 35 -7z m736 -53 c-4 -3 -12 0 -18 6 -9 9 -8 18 2 39
l14 28 4 -33 c2 -19 1 -37 -2 -40z m1040 -22 c1 -70 -2 -88 -11 -80 -17 15
-27 81 -13 97 6 7 8 27 4 43 -4 20 -2 30 7 30 8 0 12 -26 13 -90z m-924 25
c-5 -67 -17 -71 -26 -10 -8 47 -3 65 17 65 8 0 11 -17 9 -55z m995 33 c-3 -8
-6 -5 -6 6 -1 11 2 17 5 13 3 -3 4 -12 1 -19z m-2077 -8 c0 -5 -4 -10 -8 -10
-5 0 -15 -19 -23 -42 -12 -40 -14 -41 -17 -16 -2 16 5 38 15 52 19 26 33 33
33 16z m618 3 c-20 -5 -22 -23 -9 -71 10 -33 10 -33 -22 -30 -26 2 -33 8 -35
29 -3 30 38 80 65 78 17 -1 17 -2 1 -6z m192 0 c0 -5 -9 -19 -20 -33 l-20 -25
12 33 c11 28 28 44 28 25z m1084 -18 c15 -23 15 -31 0 -102 -18 -86 -21 -94
-34 -73 -6 9 -5 17 2 22 15 8 30 142 17 146 -9 4 -13 32 -5 32 2 0 11 -11 20
-25z m-1714 -8 c0 -13 -11 -34 -25 -47 l-25 -23 0 22 c0 22 29 70 43 71 4 0 7
-10 7 -23z m1230 11 c0 -28 -37 -110 -45 -99 -10 17 3 63 16 55 7 -4 10 3 9
17 -3 33 -1 39 10 39 6 0 10 -6 10 -12z m227 -30 c-3 -7 -5 -2 -5 12 0 14 2
19 5 13 2 -7 2 -19 0 -25z m-1598 -40 c0 -34 -4 -67 -10 -75 -6 -7 -9 -19 -6
-28 4 -8 2 -17 -2 -19 -17 -11 -21 111 -6 148 9 20 17 36 19 36 2 0 4 -28 5
-62z m401 25 c-1 -24 -2 -26 -11 -10 -5 9 -7 22 -4 27 10 17 15 11 15 -17z
m58 2 c-3 -3 -9 2 -12 12 -6 14 -5 15 5 6 7 -7 10 -15 7 -18z m-262 -7 c-3
-13 -6 -29 -6 -35 0 -7 -9 -13 -20 -13 -23 0 -28 38 -8 58 21 21 41 15 34 -10z
m671 -55 c-2 -16 -4 -5 -4 22 0 28 2 40 4 28 2 -13 2 -35 0 -50z m534 44 c-10
-9 -11 -8 -5 6 3 10 9 15 12 12 3 -3 0 -11 -7 -18z m363 -24 c-9 -27 -18 -58
-21 -70 -3 -13 -10 -20 -19 -16 -20 7 -17 39 5 60 11 10 22 30 26 46 4 15 11
27 16 27 4 0 1 -21 -7 -47z m-1040 -13 c-27 -45 -39 -57 -61 -64 -42 -13 -36
16 13 63 50 48 76 49 48 1z m903 18 c-3 -7 -5 -2 -5 12 0 14 2 19 5 13 2 -7 2
-19 0 -25z m-1268 5 c0 -5 -3 -9 -9 -11 -5 -2 -10 4 -10 13 0 16 16 14 19 -2z
m-39 -31 c0 -37 0 -38 -35 -34 -27 3 -32 7 -22 16 7 7 17 14 22 15 6 1 13 11
17 22 11 30 18 23 18 -19z m454 1 c-8 -57 -10 -60 -36 -58 -29 2 -29 11 2 57
32 48 40 48 34 1z m296 33 c0 -3 -4 -8 -10 -11 -5 -3 -10 -1 -10 4 0 6 5 11
10 11 6 0 10 -2 10 -4z m190 -40 c0 -26 -6 -18 -14 19 -5 22 -4 26 4 15 5 -8
10 -24 10 -34z m183 -46 c-9 -36 -17 -67 -19 -69 -2 -2 -10 4 -19 12 -8 9 -12
18 -7 21 4 2 9 19 10 38 1 18 7 46 14 61 9 23 13 26 24 15 11 -11 10 -24 -3
-78z m380 65 c-7 -21 -13 -19 -13 6 0 11 4 18 10 14 5 -3 7 -12 3 -20z m74 3
c-3 -8 -6 -5 -6 6 -1 11 2 17 5 13 3 -3 4 -12 1 -19z m-2016 -31 c-17 -17 -24
-1 -10 25 12 21 14 21 17 4 2 -10 -1 -23 -7 -29z m259 28 c0 -18 -29 -65 -39
-65 -4 0 -8 14 -9 30 -2 21 2 30 13 30 8 0 15 5 15 10 0 6 5 10 10 10 6 0 10
-7 10 -15z m1160 -7 c0 -19 -2 -20 -10 -8 -13 19 -13 30 0 30 6 0 10 -10 10
-22z m-1460 -10 c0 -19 -18 -43 -25 -36 -4 3 -2 16 5 27 12 24 20 27 20 9z
m1646 -30 c-4 -22 -10 -46 -14 -52 -7 -12 -9 -18 -11 -41 0 -8 -5 -15 -9 -15
-10 0 -3 60 8 75 4 6 11 25 15 43 10 47 19 39 11 -10z m59 0 c-8 -50 -24 -85
-25 -54 0 21 21 96 27 96 3 0 2 -19 -2 -42z m108 5 c-7 -47 -22 -78 -23 -47 0
21 19 84 25 84 2 0 1 -17 -2 -37z m-1715 -15 c-4 -59 -28 -63 -28 -4 0 35 4
46 16 46 12 0 14 -9 12 -42z m440 20 c-5 -32 -28 -35 -28 -4 0 17 5 26 16 26
10 0 14 -7 12 -22z m172 12 c-20 -13 -33 -13 -25 0 3 6 14 10 23 10 15 0 15
-2 2 -10z m591 -17 c-8 -15 -10 -15 -11 -2 0 17 10 32 18 25 2 -3 -1 -13 -7
-23z m-330 -6 c-10 -9 -11 -8 -5 6 3 10 9 15 12 12 3 -3 0 -11 -7 -18z m1229
-18 c0 -18 -4 -28 -10 -24 -5 3 -10 20 -10 36 0 18 4 28 10 24 6 -3 10 -20 10
-36z m-1595 11 c0 -7 -6 -15 -12 -17 -8 -3 -13 4 -13 17 0 13 5 20 13 18 6 -3
12 -11 12 -18z m939 -19 c-9 -10 -26 18 -18 30 5 9 9 8 14 -7 4 -10 6 -21 4
-23z m559 25 c10 -8 17 -26 17 -47 l-1 -34 -22 28 c-13 15 -30 27 -39 27 -22
0 -30 -26 -13 -40 31 -26 56 -78 49 -104 -3 -14 -10 -26 -15 -26 -5 0 -26 19
-48 41 -27 29 -37 47 -33 62 4 15 2 18 -9 12 -8 -5 -11 -4 -6 1 5 5 14 9 20 9
7 0 12 10 12 23 0 22 39 62 60 61 6 0 18 -6 28 -13z m-172 -69 c-13 -13 -15
15 -3 53 7 24 7 23 10 -9 2 -18 -1 -38 -7 -44z m-1881 28 c0 -19 -4 -35 -10
-35 -11 0 -14 53 -3 63 11 12 13 8 13 -28z m1346 8 c-10 -10 -19 5 -10 18 6
11 8 11 12 0 2 -7 1 -15 -2 -18z m-949 -23 c-6 -17 -22 -43 -34 -58 l-22 -27
-1 47 c0 42 3 49 27 62 36 19 44 13 30 -24z m-437 -37 c0 -36 -3 -64 -6 -60
-9 8 -10 127 -1 127 4 0 7 -30 7 -67z m658 55 c16 -16 15 -45 -2 -51 -10 -4
-15 4 -18 29 -4 36 1 41 20 22z m-478 -19 c-7 -11 -14 -18 -17 -15 -3 3 0 12
7 21 18 21 23 19 10 -6z m110 13 c0 -14 -36 -43 -43 -35 -4 3 0 15 10 25 17
19 33 24 33 10z m310 -1 c0 -12 -20 -25 -27 -18 -7 7 6 27 18 27 5 0 9 -4 9
-9z m104 -6 c-4 -8 -10 -12 -15 -9 -11 6 -2 24 11 24 5 0 7 -7 4 -15z m116 -5
c0 -11 -7 -20 -15 -20 -15 0 -21 21 -8 33 12 13 23 7 23 -13z m151 -10 c1 -16
2 -44 3 -60 0 -17 6 -34 12 -38 9 -5 9 -24 1 -72 -11 -68 -12 -99 -8 -242 2
-48 0 -92 -4 -97 -3 -6 -17 -11 -31 -11 -14 0 -24 -6 -24 -14 0 -11 10 -13 38
-9 27 4 42 1 51 -11 16 -20 10 -22 -73 -30 l-58 -5 7 32 c3 18 11 77 16 132
15 141 16 155 23 200 3 22 8 73 10 113 7 93 16 142 27 142 5 0 10 -13 10 -30z
m541 -2 c-9 -9 -12 -7 -12 12 0 19 3 21 12 12 9 -9 9 -15 0 -24z m-365 -10
c-3 -7 -5 -2 -5 12 0 14 2 19 5 13 2 -7 2 -19 0 -25z m-621 -15 c-11 -11 -19
6 -11 24 8 17 8 17 12 0 3 -10 2 -21 -1 -24z m663 25 c0 -7 -4 -22 -9 -33 -6
-16 -8 -14 -7 13 0 17 4 32 9 32 4 0 8 -6 7 -12z m885 -4 c3 -8 2 -12 -4 -9
-6 3 -10 10 -10 16 0 14 7 11 14 -7z m86 -64 c-17 -33 -20 -20 -7 35 11 46 12
48 15 18 2 -18 -2 -42 -8 -53z m-880 33 c-11 -17 -11 -17 -6 0 3 10 6 24 7 30
0 9 2 9 5 0 3 -7 0 -20 -6 -30z m85 -27 c-8 -31 -15 -66 -15 -77 0 -11 -4 -18
-9 -15 -4 3 -2 34 6 68 17 76 22 92 28 86 3 -2 -2 -30 -10 -62z m-1275 34 c0
-13 -5 -18 -15 -14 -8 4 -15 12 -15 20 0 8 7 14 15 14 8 0 15 -9 15 -20z m266
-7 c-2 -16 -7 -28 -12 -28 -5 0 -10 12 -12 28 -2 19 1 27 12 27 10 0 14 -8 12
-27z m494 7 c9 -6 10 -10 3 -10 -6 0 -19 -3 -27 -6 -12 -5 -15 -2 -10 10 7 18
13 20 34 6z m915 -27 c-8 -43 -34 -97 -35 -72 0 19 30 109 37 109 3 0 2 -17
-2 -37z m-1623 5 c-7 -7 -12 -8 -12 -2 0 14 12 26 19 19 2 -3 -1 -11 -7 -17z
m1358 1 c0 -5 -4 -9 -10 -9 -5 0 -10 7 -10 16 0 8 5 12 10 9 6 -3 10 -10 10
-16z m437 -14 c-6 -36 -6 -36 26 -30 25 5 37 2 51 -14 19 -21 19 -21 0 -21
-25 0 -44 -18 -37 -36 3 -8 0 -14 -6 -14 -6 0 -11 12 -11 27 l0 27 -20 -22
c-34 -36 -57 -25 -35 17 7 15 16 43 20 64 9 47 20 49 12 2z m-377 3 c0 -13 -5
-41 -11 -63 -10 -37 -12 -38 -25 -20 -18 25 -18 50 2 80 20 31 34 32 34 3z
m85 -56 c-4 -17 -9 -22 -16 -15 -7 7 -6 24 3 54 12 41 13 42 16 15 2 -15 1
-40 -3 -54z m-1385 58 c0 -5 -5 -10 -11 -10 -5 0 -7 5 -4 10 3 6 8 10 11 10 2
0 4 -4 4 -10z m228 -2 c-3 -7 -8 -13 -13 -13 -5 0 -10 6 -12 13 -3 6 3 12 12
12 9 0 15 -6 13 -12z m-266 -20 c-7 -7 -12 -8 -12 -2 0 14 12 26 19 19 2 -3
-1 -11 -7 -17z m443 12 c3 -5 -1 -10 -9 -10 -9 0 -16 5 -16 10 0 6 4 10 9 10
6 0 13 -4 16 -10z m-594 -31 c-12 -13 -21 -19 -21 -14 0 11 32 46 38 41 2 -3
-5 -15 -17 -27z m547 6 c1 -19 -3 -25 -18 -25 -21 0 -24 8 -14 34 9 25 29 19
32 -9z m219 -27 c-2 -13 -4 -5 -4 17 -1 22 1 32 4 23 2 -10 2 -28 0 -40z m323
38 c0 -8 -4 -18 -10 -21 -5 -3 -10 3 -10 14 0 12 5 21 10 21 6 0 10 -6 10 -14z
m273 -6 c-3 -11 -9 -20 -14 -20 -11 0 -11 3 -3 24 9 23 23 20 17 -4z m394 -35
c-9 -8 -18 -15 -21 -15 -8 0 6 34 18 42 17 12 19 -10 3 -27z m-1417 4 c-7 -11
-14 -19 -16 -16 -7 7 7 37 17 37 6 0 5 -9 -1 -21z m-370 -5 c0 -8 -4 -12 -10
-9 -5 3 -10 10 -10 16 0 5 5 9 10 9 6 0 10 -7 10 -16z m880 -33 c0 -22 -4 -43
-10 -46 -6 -4 -10 12 -10 39 0 25 5 46 10 46 6 0 10 -18 10 -39z m227 -3 c-3
-7 -5 -2 -5 12 0 14 2 19 5 13 2 -7 2 -19 0 -25z m-997 12 c0 -5 -4 -10 -10
-10 -5 0 -10 5 -10 10 0 6 5 10 10 10 6 0 10 -4 10 -10z m460 -10 c0 -11 -7
-20 -15 -20 -18 0 -19 12 -3 28 16 16 18 15 18 -8z m1527 -7 c-9 -9 -19 -14
-22 -11 -3 3 2 13 11 22 9 9 19 14 22 11 3 -3 -2 -13 -11 -22z m-517 7 c0 -5
-2 -10 -4 -10 -3 0 -8 5 -11 10 -3 6 -1 10 4 10 6 0 11 -4 11 -10z m-363 -22
c-3 -8 -6 -5 -6 6 -1 11 2 17 5 13 3 -3 4 -12 1 -19z m783 12 c0 -5 -4 -10
-10 -10 -5 0 -10 5 -10 10 0 6 5 10 10 10 6 0 10 -4 10 -10z m-223 -6 c-3 -3
-12 -4 -19 -1 -8 3 -5 6 6 6 11 1 17 -2 13 -5z m-367 -33 c0 -11 -4 -23 -10
-26 -6 -4 -10 5 -10 19 0 14 5 26 10 26 6 0 10 -9 10 -19z m-70 -91 c-15 -57
-21 -46 -8 15 6 28 13 45 15 38 2 -6 -1 -30 -7 -53z m117 28 c-3 -8 -6 -5 -6
6 -1 11 2 17 5 13 3 -3 4 -12 1 -19z m-295 -20 c-9 -9 -12 -7 -12 12 0 19 3
21 12 12 9 -9 9 -15 0 -24z m-9 -100 c-5 -40 -23 -79 -34 -73 -6 4 1 47 16 93
9 25 21 11 18 -20z m-68 -47 c-4 -32 -12 -51 -20 -51 -15 0 -9 76 8 98 16 20
20 7 12 -47z m-38 -3 c-3 -8 -6 -5 -6 6 -1 11 2 17 5 13 3 -3 4 -12 1 -19z
m130 0 c-3 -8 -6 -5 -6 6 -1 11 2 17 5 13 3 -3 4 -12 1 -19z m80 -35 c-3 -10
-5 -4 -5 12 0 17 2 24 5 18 2 -7 2 -21 0 -30z m708 7 c3 -5 1 -10 -4 -10 -6 0
-11 5 -11 10 0 6 2 10 4 10 3 0 8 -4 11 -10z m-835 -30 c0 -5 -8 -10 -17 -10
-15 0 -16 2 -3 10 19 12 20 12 20 0z m184 -12 c-4 -5 3 -23 15 -39 l21 -29
-25 12 c-20 9 -25 19 -25 45 0 21 4 32 10 28 6 -4 7 -11 4 -17z m-98 -34 c-4
-20 -10 -34 -13 -30 -3 3 -2 21 1 42 4 20 10 34 13 30 3 -3 2 -21 -1 -42z m28
-11 c-7 -32 -13 -64 -14 -72 0 -8 -2 -12 -5 -9 -8 8 17 138 26 138 4 0 1 -26
-7 -57z m-577 25 c-3 -8 -6 -5 -6 6 -1 11 2 17 5 13 3 -3 4 -12 1 -19z m403
-12 c0 -8 -4 -18 -10 -21 -5 -3 -10 3 -10 14 0 12 5 21 10 21 6 0 10 -6 10
-14z m48 2 c-6 -18 -28 -21 -28 -4 0 9 7 16 16 16 9 0 14 -5 12 -12z m-84 -12
c-5 -14 -44 -30 -44 -17 0 3 10 11 23 17 12 7 23 12 24 13 1 0 0 -5 -3 -13z
m-607 -28 c-3 -8 -6 -5 -6 6 -1 11 2 17 5 13 3 -3 4 -12 1 -19z m309 -8 c-1
-16 -5 -28 -11 -27 -5 2 -9 7 -7 10 1 4 2 16 2 27 0 11 4 20 9 20 4 0 8 -13 7
-30z m674 14 c0 -2 -7 -4 -15 -4 -8 0 -15 4 -15 10 0 5 7 7 15 4 8 -4 15 -8
15 -10z m-1234 -10 c-15 -39 -17 -64 -6 -83 7 -15 7 -21 0 -21 -6 0 -13 7 -16
15 -9 22 5 105 18 105 5 0 7 -7 4 -16z m1144 1 c11 -13 10 -14 -4 -9 -9 3 -16
10 -16 15 0 13 6 11 20 -6z m-798 -27 c-9 -9 -12 -7 -12 12 0 19 3 21 12 12 9
-9 9 -15 0 -24z m135 10 c-3 -8 -6 -5 -6 6 -1 11 2 17 5 13 3 -3 4 -12 1 -19z
m463 18 c0 -2 -3 -11 -6 -20 -9 -23 -34 -20 -34 4 0 13 7 20 20 20 11 0 20 -2
20 -4z m727 -2 c-3 -3 -12 -4 -19 -1 -8 3 -5 6 6 6 11 1 17 -2 13 -5z m290
-16 c-3 -8 -6 -5 -6 6 -1 11 2 17 5 13 3 -3 4 -12 1 -19z m-1737 -10 c0 -6 -7
-7 -16 -4 -9 3 -25 6 -37 7 -20 1 -20 2 3 8 28 9 50 4 50 -11z m376 -4 c-4 -9
-9 -15 -11 -12 -3 3 -3 13 1 22 4 9 9 15 11 12 3 -3 3 -13 -1 -22z m254 17 c0
-7 -29 -11 -77 -10 -87 0 -75 13 17 17 38 2 60 -1 60 -7z m30 -1 c0 -5 -4 -10
-10 -10 -5 0 -10 5 -10 10 0 6 5 10 10 10 6 0 10 -4 10 -10z m-620 -21 c0 -11
-4 -18 -10 -14 -5 3 -7 12 -3 20 7 21 13 19 13 -6z m980 -9 c0 -14 -14 -12
-28 2 -19 19 -14 30 8 18 11 -6 20 -15 20 -20z m183 23 c-7 -2 -21 -2 -30 0
-10 3 -4 5 12 5 17 0 24 -2 18 -5z m-574 -29 c2 -2 1 -10 -2 -19 -4 -10 -19
-15 -46 -15 -49 0 -71 -8 -71 -26 0 -11 16 -14 73 -12 47 1 58 3 30 5 -63 6
-52 21 17 25 33 1 60 0 60 -4 0 -5 -7 -8 -15 -8 -8 0 -15 -4 -15 -9 0 -6 18
-9 41 -8 22 2 43 -1 45 -5 3 -4 -7 -9 -23 -10 -15 -1 -35 -2 -43 -4 -8 -1 -43
-2 -77 -3 -35 -1 -63 -4 -63 -9 0 -4 52 -5 115 -3 101 3 115 1 115 -13 0 -22
-10 -25 -119 -28 -101 -3 -135 -21 -59 -31 161 -21 218 -31 218 -38 0 -5 -34
-6 -76 -4 -93 6 -119 -5 -110 -46 3 -16 1 -29 -4 -29 -16 0 -11 -23 9 -47 22
-27 31 -29 31 -8 0 8 5 15 10 15 6 0 10 7 10 16 0 8 5 12 11 9 6 -4 7 -19 4
-36 -4 -17 -1 -42 7 -60 10 -24 18 -29 39 -27 29 3 63 -30 92 -91 21 -43 21
-44 -4 -59 -18 -11 -24 -11 -41 5 -21 18 -21 18 -15 -15 4 -21 3 -31 -3 -27
-6 3 -10 12 -10 19 0 8 -11 21 -25 30 -13 9 -29 33 -34 54 -7 25 -25 50 -56
75 -30 26 -45 46 -45 62 0 13 -7 30 -15 39 -8 8 -15 22 -15 30 0 9 -7 16 -15
16 -10 0 -15 -10 -15 -31 0 -36 -21 -35 -31 2 -4 13 -8 20 -8 14 -1 -5 -5 -4
-10 4 -8 13 -12 13 -27 0 -21 -17 -64 -107 -64 -133 0 -26 12 -14 50 54 18 30
29 47 26 37 -3 -10 -6 -24 -6 -31 0 -7 -14 -34 -30 -60 -27 -41 -33 -46 -46
-35 -14 11 -20 9 -43 -17 -39 -45 -69 -67 -80 -60 -17 11 0 37 19 31 13 -4 22
4 34 29 9 19 16 43 16 54 0 11 16 49 35 85 37 68 62 129 75 185 8 31 7 33 -12
29 -20 -6 -20 -3 -14 51 13 110 5 104 110 96 50 -3 93 -8 95 -10z m505 7 c8
-12 -43 -44 -60 -37 -12 5 -12 9 -2 26 13 20 52 27 62 11z m546 -1 c0 -5 -12
-10 -27 -9 -25 0 -26 1 -8 9 27 12 35 12 35 0z m-1612 -74 c-13 -20 -26 -36
-30 -36 -9 0 11 58 31 90 16 24 16 24 19 3 2 -12 -7 -38 -20 -57z m632 54 c0
-5 -9 -8 -20 -7 -20 1 -25 8 -14 20 8 7 34 -3 34 -13z m256 8 c4 -6 2 -14 -4
-16 -7 -2 -12 -13 -12 -25 0 -21 -26 -57 -42 -57 -9 0 -9 87 -1 103 7 11 51 8
59 -5z m-978 -17 c3 -8 -1 -12 -9 -9 -7 2 -15 10 -17 17 -3 8 1 12 9 9 7 -2
15 -10 17 -17z m142 -63 c-55 -124 -73 -158 -82 -158 -11 0 -10 6 2 28 5 9 30
62 55 116 25 55 48 96 52 93 3 -4 -9 -39 -27 -79z m1677 35 c-3 -10 -5 -2 -5
17 0 19 2 27 5 18 2 -10 2 -26 0 -35z m-587 27 c0 -12 -28 -25 -36 -17 -9 9 6
27 22 27 8 0 14 -5 14 -10z m526 -57 l-16 -28 6 40 c8 50 18 67 22 38 2 -12
-4 -34 -12 -50z m-1731 10 c-9 -37 -18 -20 -9 19 4 18 9 27 11 20 3 -7 2 -24
-2 -39z m165 -12 c-11 -28 -20 -63 -20 -77 0 -13 -7 -27 -15 -31 -21 -7 -31 3
-17 19 5 7 22 44 37 81 15 37 29 66 32 64 2 -3 -5 -28 -17 -56z m1550 43 c0
-14 -3 -14 -15 -4 -8 7 -15 14 -15 16 0 2 7 4 15 4 8 0 15 -7 15 -16z m-2052
-3 c7 -4 14 -19 16 -32 3 -35 14 -49 33 -42 27 10 9 -49 -51 -172 -103 -210
-136 -278 -136 -282 0 -13 32 1 41 20 7 12 15 24 18 27 3 3 26 44 51 92 25 48
53 89 63 92 9 2 17 0 17 -4 0 -15 -24 -64 -38 -79 -24 -25 -63 -112 -56 -124
4 -7 3 -8 -1 -4 -5 4 -16 -7 -25 -25 -9 -18 -32 -62 -51 -98 l-33 -65 -6 35
c-3 19 -3 94 0 165 l5 130 51 75 c28 41 56 90 62 109 17 49 15 139 -3 157 -8
9 -15 20 -15 25 0 11 40 12 58 0z m1350 -14 c2 -10 -3 -17 -12 -17 -9 0 -16 2
-16 4 0 2 -3 12 -6 21 -5 13 -2 16 12 13 10 -2 20 -11 22 -21z m635 11 c9 0
17 -1 17 -4 0 -10 -27 -50 -52 -79 -15 -16 -23 -32 -17 -34 6 -1 17 5 25 15
14 18 15 18 10 1 -3 -10 -12 -43 -20 -75 -9 -31 -47 -153 -86 -271 -66 -199
-80 -256 -49 -199 7 12 39 102 70 198 32 96 58 165 59 153 0 -25 -20 -107 -44
-173 -20 -56 -20 -60 -1 -60 19 0 19 5 -5 -66 -23 -68 -23 -74 -10 -74 6 0 10
9 10 20 0 11 4 20 9 20 5 0 7 -10 4 -21 -4 -15 -2 -20 7 -17 12 4 70 130 70
153 0 6 14 53 30 105 17 52 35 112 41 134 17 61 19 37 3 -44 -7 -41 -16 -87
-18 -101 -3 -14 -25 -76 -49 -137 -34 -86 -41 -114 -32 -122 14 -11 26 14 85
170 52 136 65 129 19 -10 -26 -80 -40 -138 -41 -171 -1 -15 -5 -26 -10 -23 -4
3 -8 -7 -8 -21 0 -40 29 -28 47 20 8 22 23 72 32 110 l18 70 -1 -71 c-1 -40
-4 -70 -7 -68 -3 1 -14 -15 -24 -38 -14 -32 -15 -45 -7 -59 11 -17 10 -29 -8
-74 -19 -50 -31 -97 -27 -101 3 -3 19 23 36 58 17 35 31 60 31 57 1 -19 -34
-115 -45 -124 -7 -5 -16 -28 -19 -50 -3 -22 -7 -51 -10 -64 -2 -13 3 -40 11
-58 25 -61 -19 -133 -82 -133 -22 0 -19 37 6 72 12 16 19 31 16 34 -3 3 -22
-20 -42 -50 -20 -31 -43 -56 -51 -56 -8 0 -14 3 -14 6 0 9 51 98 67 116 8 9
10 18 5 22 -5 3 -15 -1 -22 -9 -7 -8 -9 -15 -6 -15 4 0 -1 -9 -11 -19 -10 -11
-31 -44 -46 -75 -16 -31 -33 -58 -38 -61 -12 -8 -34 6 -21 14 5 3 30 42 56 86
26 44 63 105 82 135 19 30 34 62 34 70 -1 22 -19 -5 -100 -140 -89 -149 -90
-151 -117 -144 l-23 6 20 26 c11 14 18 27 15 30 -6 6 -4 9 -49 -55 -20 -29
-36 -57 -36 -63 0 -19 16 -10 30 15 12 23 15 24 28 11 13 -13 10 -23 -29 -83
-24 -37 -56 -83 -71 -101 -15 -18 -37 -49 -47 -70 -11 -20 -29 -47 -41 -60
-12 -12 -20 -28 -17 -35 2 -6 12 2 23 18 10 17 39 57 64 90 25 33 68 94 94
135 60 92 54 86 68 72 8 -8 4 -21 -17 -52 -15 -22 -25 -43 -22 -46 3 -3 17 13
31 35 15 23 33 41 41 41 21 0 19 -16 -5 -33 -11 -8 -18 -20 -16 -28 6 -17 -30
-63 -43 -55 -5 3 -12 -1 -15 -10 -3 -8 -2 -13 2 -10 10 6 8 -42 -3 -51 -4 -5
-5 -2 -1 5 11 19 -9 14 -29 -8 -9 -10 -15 -25 -12 -33 3 -7 -4 -24 -14 -38
-11 -14 -19 -18 -19 -10 0 11 -5 10 -20 -4 -25 -22 -26 -36 -2 -29 14 5 14 3
-2 -7 -16 -10 -21 -9 -33 7 -12 16 -13 16 -13 -9 0 -15 1 -29 3 -32 1 -2 -8
-12 -21 -21 -30 -21 -119 -26 -152 -9 -14 8 -41 21 -61 30 -20 9 -41 27 -47
40 -13 27 -30 33 -38 12 -2 -7 -22 -23 -44 -37 -37 -23 -58 -50 -64 -80 -11
-63 -43 -80 -64 -35 -15 32 -49 45 -120 45 -95 0 -131 -19 -77 -40 14 -5 25
-16 25 -24 0 -25 -22 -66 -35 -66 -7 0 -18 -7 -26 -16 -19 -23 -67 -45 -100
-46 -16 -1 -29 -7 -29 -13 0 -23 -72 -36 -85 -15 -4 6 10 10 34 10 52 0 53 16
2 25 -41 7 -79 35 -47 35 9 0 16 4 16 9 0 15 -37 23 -70 16 -16 -3 -38 -2 -49
4 -33 18 -66 71 -70 113 -1 9 -55 38 -71 38 -5 0 -10 -8 -10 -17 0 -13 -7 -10
-30 12 -23 22 -33 26 -42 17 -7 -7 -21 -12 -31 -12 -17 0 -18 2 -6 17 11 13
11 17 2 20 -9 3 -10 10 -3 22 13 26 4 31 -52 31 -35 0 -50 -4 -55 -16 -3 -9
-1 -19 6 -23 19 -12 -14 -65 -51 -82 -19 -9 -44 -13 -58 -9 -22 5 -25 11 -22
43 3 26 0 37 -10 37 -19 0 -118 98 -118 117 0 11 -6 14 -25 9 -47 -12 -50 13
-49 434 l0 385 24 40 c13 22 34 54 46 70 52 71 196 375 177 375 -2 0 9 13 25
30 29 29 62 32 62 6 0 -30 -31 -123 -49 -147 -15 -20 -17 -29 -8 -38 8 -8 8
-11 -1 -11 -6 0 -25 -13 -42 -30 -17 -16 -37 -30 -45 -30 -8 0 -15 -7 -15 -15
0 -19 4 -19 40 0 17 9 30 13 30 9 0 -4 -14 -33 -30 -66 -33 -64 -35 -71 -20
-66 6 2 28 41 50 87 21 46 45 88 52 92 19 13 50 11 42 -2 -3 -6 -1 -15 6 -19
8 -5 9 -13 2 -26 -6 -11 -27 -55 -47 -99 -21 -44 -50 -99 -66 -123 -31 -46
-42 -90 -15 -62 7 8 29 44 47 80 19 36 37 67 41 68 5 2 8 9 8 16 0 7 11 35 25
63 14 28 31 69 38 92 11 40 24 52 87 81 13 6 62 70 96 126 7 11 15 16 19 12 4
-4 -2 -22 -14 -41 -24 -40 -26 -47 -8 -47 6 0 23 19 37 41 29 47 41 29 16 -23
-20 -40 -20 -58 0 -58 14 0 13 -5 -5 -36 -24 -40 -25 -44 -11 -44 10 0 25 31
107 212 14 31 37 69 51 85 13 15 29 40 34 56 l10 27 21 -26 21 -27 -37 -29
c-20 -17 -37 -35 -37 -41 0 -5 9 -2 20 8 11 10 20 16 20 13 0 -7 -70 -141 -80
-153 -5 -6 -14 -31 -20 -57 -7 -26 -17 -51 -24 -56 -19 -16 -94 -23 -102 -10
-5 8 -10 4 -15 -10 -4 -12 -26 -31 -49 -42 -23 -11 -44 -29 -47 -38 -4 -9 -17
-25 -30 -35 -24 -19 -31 -51 -13 -62 6 -3 10 -11 10 -16 0 -6 -5 -7 -12 -3 -8
5 -9 -2 -5 -23 4 -20 1 -37 -9 -49 -13 -18 -14 -17 -8 11 5 27 4 28 -9 13 -18
-23 -30 -23 -52 2 -17 18 -45 27 -45 14 0 -3 11 -20 25 -38 20 -26 24 -40 19
-65 -6 -30 -6 -31 31 -31 35 0 37 1 31 26 -6 24 -5 26 19 20 18 -5 25 -2 25 9
0 18 129 215 142 215 13 0 10 -15 -9 -41 -26 -35 -42 -61 -52 -86 -6 -11 -15
-24 -20 -28 -16 -9 -13 -35 4 -35 8 0 14 -3 12 -8 -2 -7 6 -12 22 -12 5 0 37
46 72 103 42 68 65 96 67 84 2 -10 -2 -25 -9 -33 -9 -12 -9 -20 1 -40 14 -24
20 -27 93 -39 21 -3 46 -14 56 -24 13 -13 27 -17 46 -13 20 3 26 1 21 -7 -4
-6 -16 -11 -26 -11 -10 0 -22 -5 -25 -10 -8 -14 4 -52 15 -45 5 3 10 -1 13 -7
2 -7 -5 -18 -17 -25 -18 -10 -23 -7 -38 18 -19 32 -45 40 -33 12 3 -10 7 -20
7 -23 2 -21 -5 -30 -23 -30 -38 0 -14 -25 27 -28 67 -4 139 55 101 83 -15 10
-13 14 14 34 21 15 29 29 27 44 -2 18 -9 22 -41 21 -29 -1 -35 1 -27 11 11 14
-1 27 -28 31 -25 4 -26 14 -2 14 13 0 21 2 18 5 -2 3 15 26 39 52 23 26 43 51
43 54 0 16 31 17 59 3 40 -20 59 -9 29 16 -13 11 -18 19 -12 20 5 0 20 -9 33
-21 21 -20 23 -20 42 -3 24 22 25 5 1 -27 -48 -64 -53 -77 -36 -93 22 -23 34
-20 79 19 66 59 51 22 -30 -74 -42 -50 -80 -104 -85 -121 -8 -29 -8 -30 13
-13 12 9 46 45 75 80 60 72 83 82 50 23 -25 -45 -134 -145 -157 -145 -8 0 -16
-6 -19 -13 -7 -22 20 -12 64 24 24 19 44 31 44 26 0 -15 -67 -92 -74 -85 -3 3
-15 -2 -26 -12 -19 -17 -20 -17 -20 0 0 14 -3 15 -15 5 -8 -7 -15 -16 -15 -21
0 -5 -13 -31 -30 -57 -57 -92 -32 -99 34 -10 25 34 46 59 46 55 0 -13 -52
-111 -81 -154 -16 -23 -29 -48 -29 -55 1 -33 104 120 131 196 8 23 18 35 26
31 8 -2 22 9 33 28 11 17 20 26 20 18 0 -30 -130 -252 -164 -280 -9 -7 -16
-19 -16 -27 0 -7 -9 -18 -20 -24 -19 -10 -28 -40 -12 -40 4 0 21 16 37 36 l31
36 -1 -40 c0 -39 1 -40 17 -25 11 10 16 24 12 37 -4 19 15 65 73 171 6 11 21
43 33 71 l22 52 42 -28 c59 -39 76 -43 76 -21 0 13 9 20 30 23 35 5 40 2 59
-34 8 -16 20 -28 28 -28 18 0 17 26 -2 34 -8 3 -15 12 -15 20 0 28 -38 39 -85
26 -52 -14 -61 -10 -70 32 -9 37 12 58 57 58 18 0 28 5 28 15 0 9 -9 15 -24
15 -40 0 -39 18 1 29 72 20 117 4 106 -38 -3 -10 0 -22 6 -25 15 -10 44 52 39
84 -4 25 -1 28 21 27 35 -3 39 26 6 41 -24 11 -24 13 -8 31 15 18 18 18 28 4
11 -14 15 -14 43 7 31 23 32 23 47 4 19 -25 19 -31 -5 -37 -11 -3 -20 -10 -20
-16 0 -16 14 -13 37 8 13 13 29 17 46 14 20 -4 27 -1 27 11 0 9 7 16 15 16 19
0 19 -1 -1 -50 -9 -23 -14 -44 -10 -47 8 -9 16 0 21 27 6 29 37 82 51 87 7 2
13 -11 16 -32 2 -19 1 -35 -2 -35 -13 0 -60 -99 -51 -105 6 -3 16 5 22 17 7
13 26 48 42 78 15 30 34 62 41 70 7 8 16 24 20 34 14 41 15 6 1 -43 -9 -28
-13 -57 -9 -64 4 -6 4 -9 -1 -5 -4 4 -16 3 -27 -3 -13 -7 -17 -16 -12 -31 4
-12 2 -18 -4 -14 -8 5 -27 -82 -19 -91 2 -2 21 22 41 52 20 31 42 55 49 54 43
-5 67 2 67 21 0 11 5 20 10 20 6 0 10 6 10 13 0 7 5 18 12 25 13 13 20 30 100
257 34 94 60 181 60 195 -1 14 5 58 14 98 9 40 14 78 11 85 -7 21 16 37 43 31
14 -4 33 -6 43 -6z m-1788 -52 c-4 -20 -11 -36 -16 -36 -12 0 -11 7 3 47 15
41 21 36 13 -11z m1605 30 c0 -15 -24 -28 -34 -19 -7 7 13 33 25 33 5 0 9 -6
9 -14z m-1210 -18 c-5 -13 -11 -35 -14 -50 -4 -16 -13 -28 -21 -28 -19 0 -19
2 6 55 21 45 46 64 29 23z m855 12 c-3 -5 -16 -15 -28 -21 -21 -10 -21 -9 2
10 25 23 36 27 26 11z m154 -7 c-51 -67 -69 -83 -69 -64 0 10 17 33 38 50 43
35 50 38 31 14z m426 -54 c-15 -58 -44 -126 -31 -74 17 71 39 145 43 141 2 -2
-3 -32 -12 -67z m-2178 39 c-3 -8 -6 -5 -6 6 -1 11 2 17 5 13 3 -3 4 -12 1
-19z m2033 5 c0 -21 -29 -147 -57 -248 -23 -83 -120 -364 -129 -374 -13 -14
-36 33 -37 75 -3 72 138 494 165 494 22 0 24 16 2 24 -14 5 -13 9 7 24 26 22
49 24 49 5z m-1960 -3 c0 -5 -4 -10 -10 -10 -5 0 -10 5 -10 10 0 6 5 10 10 10
6 0 10 -4 10 -10z m1237 -10 c-1 -22 -17 -28 -17 -7 0 12 9 27 16 27 2 0 2 -9
1 -20z m363 17 c0 -2 -10 -12 -21 -23 -22 -19 -22 -19 -10 4 10 18 31 31 31
19z m-1226 -51 c-3 -15 -8 -25 -11 -23 -2 3 -1 17 3 31 3 15 8 25 11 23 2 -3
1 -17 -3 -31z m1307 -3 c-29 -36 -32 -59 -5 -49 7 3 11 0 8 -7 -2 -7 -22 -12
-43 -12 -27 0 -37 3 -34 12 3 7 9 13 14 13 5 0 25 18 45 40 45 50 56 52 15 3z
m52 -115 c-24 -73 -48 -124 -67 -146 -16 -17 -31 -30 -33 -29 -2 2 8 33 21 68
13 35 32 92 41 127 18 62 67 134 73 107 2 -8 -14 -65 -35 -127z m-1712 57 c-6
-24 -30 -74 -53 -111 l-42 -68 -8 35 c-10 45 -1 97 24 132 20 27 20 29 2 42
-17 13 -15 14 24 21 23 4 46 12 49 18 13 20 15 -24 4 -69z m165 48 c-2 -16 -5
-31 -5 -34 -1 -3 -11 -17 -23 -30 -16 -18 -19 -19 -15 -6 4 10 7 29 7 42 0 21
23 55 36 55 3 0 3 -12 0 -27z m1674 9 c0 -13 -90 -276 -107 -312 -9 -19 -24
-55 -33 -80 -13 -38 -21 -46 -53 -55 -21 -6 -42 -17 -47 -25 -6 -8 -10 -10
-10 -5 0 6 15 31 34 58 18 26 39 69 46 95 6 26 19 55 27 65 9 9 14 20 11 23
-9 8 60 226 74 235 16 11 58 12 58 1z m-555 -12 c3 -5 1 -10 -4 -10 -6 0 -11
5 -11 10 0 6 2 10 4 10 3 0 8 -4 11 -10z m124 -3 c8 -10 7 -26 -5 -60 -9 -26
-20 -47 -25 -47 -12 0 -12 3 7 50 22 55 12 61 -14 8 -25 -51 -29 -36 -6 22 17
43 25 48 43 27z m101 1 c0 -20 -45 -100 -59 -106 -9 -3 -21 -12 -27 -20 -8
-11 -13 -12 -18 -4 -8 13 31 112 50 127 14 13 54 14 54 3z m60 -12 c0 -16 -7
-26 -22 -29 -32 -9 -35 0 -8 28 29 31 30 31 30 1z m-385 3 c11 -17 3 -18 -60
-12 -47 5 -55 8 -35 14 39 11 88 10 95 -2z m-959 -10 c3 -6 -8 -25 -25 -42
-33 -34 -40 -24 -16 23 16 31 29 37 41 19z m170 -60 c-14 -29 -26 -47 -26 -41
0 18 42 104 47 98 3 -3 -6 -29 -21 -57z m944 41 c0 -11 -4 -20 -9 -20 -11 0
-22 26 -14 34 12 12 23 5 23 -14z m-974 -27 c-8 -15 -15 -25 -16 -21 0 12 23
58 27 54 3 -2 -2 -17 -11 -33z m215 -19 c-17 -27 -31 -45 -31 -41 0 16 31 82
43 89 22 13 18 0 -12 -48z m1509 19 c-11 -17 -11 -17 -6 0 3 10 6 24 7 30 0 9
2 9 5 0 3 -7 0 -20 -6 -30z m-1350 -14 c0 -30 -100 -219 -116 -219 -8 0 4 33
31 88 24 48 49 102 55 120 14 36 30 42 30 11z m-466 -4 c-4 -8 -8 -15 -10 -15
-2 0 -4 7 -4 15 0 8 4 15 10 15 5 0 7 -7 4 -15z m230 0 c-6 -16 -24 -21 -24
-7 0 11 11 22 21 22 5 0 6 -7 3 -15z m1027 -11 c-22 -29 -27 -59 -11 -69 14
-9 13 -18 -5 -41 -15 -18 -15 -18 -9 8 4 18 1 33 -10 43 -22 23 7 85 41 85 11
0 9 -7 -6 -26z m115 -10 c-7 -25 -8 -25 -20 -8 -12 16 -11 20 3 30 21 16 25
11 17 -22z m-1512 -17 c-3 -8 -12 -18 -20 -21 -11 -4 -10 0 3 18 20 26 27 28
17 3z m1943 1 c-3 -8 -6 -5 -6 6 -1 11 2 17 5 13 3 -3 4 -12 1 -19z m-1667 2
c0 -5 -5 -10 -11 -10 -5 0 -7 5 -4 10 3 6 8 10 11 10 2 0 4 -4 4 -10z m1189
-11 c32 -11 39 -23 21 -34 -6 -4 -8 -10 -5 -15 3 -4 -2 -10 -10 -14 -9 -3 -15
0 -15 9 0 8 -7 15 -15 15 -9 0 -15 9 -15 25 0 29 -2 28 39 14z m-1249 -79
c-18 -27 -36 -50 -41 -50 -12 0 5 33 38 78 38 50 40 30 3 -28z m197 38 c-3 -8
-6 -5 -6 6 -1 11 2 17 5 13 3 -3 4 -12 1 -19z m698 12 c3 -5 16 -10 29 -10 15
0 27 -9 35 -26 6 -15 10 -28 8 -30 -1 -2 -24 7 -50 21 -26 13 -53 26 -60 28
-9 4 -8 8 3 16 19 13 27 14 35 1z m-75 -20 c0 -5 -2 -10 -4 -10 -3 0 -8 5 -11
10 -3 6 -1 10 4 10 6 0 11 -4 11 -10z m230 -11 c0 -25 -33 -22 -38 4 -2 12 3
17 17 17 15 0 21 -6 21 -21z m657 -21 c-3 -8 -6 -5 -6 6 -1 11 2 17 5 13 3 -3
4 -12 1 -19z m-810 -13 c17 -9 34 -22 37 -30 3 -8 20 -21 38 -29 21 -9 26 -15
15 -15 -26 -1 -75 26 -87 49 -6 11 -17 20 -25 20 -8 0 -15 5 -15 10 0 13 1 13
37 -5z m-981 -11 c-3 -9 -6 -19 -6 -24 0 -14 -30 -40 -45 -40 -19 0 -2 49 22
68 23 17 36 15 29 -4z m717 -24 c3 -11 1 -20 -4 -20 -5 0 -9 9 -9 20 0 11 2
20 4 20 2 0 6 -9 9 -20z m470 0 c12 -44 -61 -51 -99 -8 -19 20 -19 20 22 14
26 -5 44 -3 49 3 10 17 22 13 28 -9z m93 -25 c-17 -26 -36 -33 -36 -13 0 17
44 61 48 48 2 -6 -3 -22 -12 -35z m34 -5 c-6 -12 -14 -20 -17 -17 -2 3 1 14 8
26 7 11 15 18 17 16 2 -2 -2 -13 -8 -25z m457 8 c-3 -8 -6 -5 -6 6 -1 11 2 17
5 13 3 -3 4 -12 1 -19z m-397 -17 c-6 -12 -15 -21 -21 -21 -5 0 -2 11 7 25 20
30 31 26 14 -4z m-974 -9 c-17 -16 -18 -16 -5 5 7 12 15 20 18 17 3 -2 -3 -12
-13 -22z m204 -12 c-7 -16 -16 -30 -21 -30 -5 0 -1 16 8 35 20 42 31 38 13 -5z
m87 18 c-3 -8 -6 -5 -6 6 -1 11 2 17 5 13 3 -3 4 -12 1 -19z m-18 -48 c1 -13
0 -13 -9 0 -5 8 -9 26 -9 40 l1 25 8 -25 c4 -14 8 -32 9 -40z m115 21 c4 -5
-5 -4 -19 2 -14 7 -25 16 -25 20 0 9 36 -9 44 -22z m356 -46 c0 -5 8 -15 19
-22 11 -7 20 -27 23 -47 3 -30 1 -36 -21 -41 -27 -7 -37 0 -43 30 -2 11 -10
19 -16 17 -21 -4 -52 18 -52 37 0 14 6 17 25 13 39 -7 30 15 -15 38 -58 29
-49 33 20 8 33 -12 60 -27 60 -33z m40 35 c0 -5 -4 -10 -9 -10 -6 0 -13 5 -16
10 -3 6 1 10 9 10 9 0 16 -4 16 -10z m70 -2 c0 -7 -6 -20 -13 -29 -11 -15 -15
-15 -31 -3 -16 11 -17 16 -6 29 15 18 50 20 50 3z m-535 -8 c3 -5 1 -10 -4
-10 -6 0 -11 5 -11 10 0 6 2 10 4 10 3 0 8 -4 11 -10z m-185 -45 c-7 -14 -19
-25 -27 -25 -18 0 -17 4 9 33 27 31 36 26 18 -8z m-276 17 c8 -13 -7 -27 -31
-29 -27 -3 -28 0 -7 21 17 18 30 20 38 8z m46 -16 c0 -13 -43 -73 -63 -87 -5
-4 -10 -17 -10 -30 -2 -29 -57 -93 -57 -67 0 9 6 21 13 25 7 4 19 24 27 43 17
43 72 130 82 130 5 0 8 -6 8 -14z m57 -8 c-3 -8 -6 -5 -6 6 -1 11 2 17 5 13 3
-3 4 -12 1 -19z m416 0 c2 -13 8 -31 12 -40 5 -12 3 -18 -7 -18 -8 0 -25 -11
-38 -25 -47 -50 -53 -25 -13 53 30 58 38 63 46 30z m47 -47 c-1 -13 -4 -12
-15 3 -8 11 -15 27 -15 35 1 13 4 12 15 -3 8 -11 15 -27 15 -35z m455 -9 c-12
-13 -24 22 -12 37 10 12 13 11 15 -8 2 -13 1 -26 -3 -29z m-392 -28 c15 -41
15 -48 2 -67 -8 -12 -15 -19 -15 -15 0 3 -3 14 -7 24 -4 12 -3 15 6 10 9 -6
10 0 5 21 -4 15 -10 33 -14 38 -15 22 -19 44 -7 39 7 -2 21 -25 30 -50z m137
19 c0 -6 -9 -11 -20 -10 -24 2 -24 2 -8 27 12 19 27 10 28 -17z m-660 17 c0
-5 -4 -10 -10 -10 -5 0 -10 5 -10 10 0 6 5 10 10 10 6 0 10 -4 10 -10z m22
-12 c-7 -7 -12 -8 -12 -2 0 14 12 26 19 19 2 -3 -1 -11 -7 -17z m698 -18 c0
-5 -4 -10 -10 -10 -5 0 -10 5 -10 10 0 6 5 10 10 10 6 0 10 -4 10 -10z m622
-22 c-8 -8 -9 -4 -5 13 4 13 8 18 11 10 2 -7 -1 -18 -6 -23z m-1589 16 c9 -10
-4 -34 -19 -34 -8 0 -14 2 -14 4 0 2 -3 11 -6 20 -4 11 0 16 13 16 11 0 22 -3
26 -6z m304 -27 c7 -8 -56 -19 -67 -12 -19 12 0 24 31 20 17 -2 33 -6 36 -8z
m396 -16 c-4 -18 -41 -36 -51 -26 -5 5 39 44 50 45 3 0 4 -9 1 -19z m120 -21
c-13 -10 -23 -23 -23 -28 0 -17 -27 -34 -35 -22 -8 13 64 84 74 74 3 -3 -4
-14 -16 -24z m-78 -12 c4 -18 8 -40 11 -49 3 -11 -7 -19 -37 -28 -46 -14 -55
-11 -41 16 6 10 18 35 27 56 20 46 31 47 40 5z m599 -4 c12 -30 6 -39 -29 -41
-19 -1 -35 3 -35 8 0 6 4 8 8 5 5 -3 15 6 22 19 15 29 25 31 34 9z m-674 -132
c0 -13 -46 -53 -53 -46 -9 9 23 54 39 54 8 0 14 -4 14 -8z m1120 -77 c0 -14
-4 -25 -9 -25 -4 0 -6 11 -3 25 2 14 6 25 8 25 2 0 4 -11 4 -25z m27 -422 c-3
-10 -5 -4 -5 12 0 17 2 24 5 18 2 -7 2 -21 0 -30z m0 -85 c-3 -8 -6 -5 -6 6
-1 11 2 17 5 13 3 -3 4 -12 1 -19z m-267 -103 c0 -7 -51 -6 -77 1 l-22 6 25
34 26 34 24 -36 c13 -19 24 -37 24 -39z m-154 -108 c-3 -14 1 -33 10 -46 15
-21 15 -23 -5 -28 -12 -3 -21 -10 -21 -15 0 -5 -4 -6 -10 -3 -5 3 -10 -1 -10
-9 0 -9 -9 -16 -20 -16 -30 0 -24 23 10 38 33 15 40 32 13 32 -14 0 -15 2 -1
18 8 9 18 25 21 35 9 25 20 21 13 -6z m64 19 c0 -3 -4 -8 -10 -11 -5 -3 -10
-1 -10 4 0 6 5 11 10 11 6 0 10 -2 10 -4z m-1900 -30 c0 -2 -9 -2 -20 1 -11 3
-20 9 -20 15 0 5 9 4 20 -2 11 -6 20 -12 20 -14z m1916 -53 c-7 -7 -26 7 -26
19 0 6 6 6 15 -2 9 -7 13 -15 11 -17z m-1576 -48 c-7 -9 -15 -13 -18 -10 -3 2
1 11 8 20 7 9 15 13 18 10 3 -2 -1 -11 -8 -20z m260 -161 c0 -8 -4 -12 -10 -9
-5 3 -10 10 -10 16 0 5 5 9 10 9 6 0 10 -7 10 -16z m77 -42 c-33 -4 -57 3 -57
16 0 5 19 4 42 -2 39 -10 40 -11 15 -14z m938 -52 c-3 -5 -10 -10 -16 -10 -5
0 -9 5 -9 10 0 6 7 10 16 10 8 0 12 -4 9 -10z m-1205 -12 c0 -5 -16 -8 -36 -8
-19 0 -33 3 -31 8 3 4 19 7 36 7 17 0 31 -3 31 -7z"/>
<path d="M2192 3020 c0 -14 2 -19 5 -12 2 6 2 18 0 25 -3 6 -5 1 -5 -13z"/>
<path d="M296 3174 c-9 -24 -7 -31 9 -38 11 -4 15 2 15 24 0 32 -14 40 -24 14z"/>
<path d="M1110 1865 c-9 -11 -10 -19 -3 -26 7 -7 14 -5 23 6 9 11 10 19 3 26
-7 7 -14 5 -23 -6z"/>
<path d="M645 1690 c-3 -5 -1 -10 4 -10 6 0 11 5 11 10 0 6 -2 10 -4 10 -3 0
-8 -4 -11 -10z"/>
<path d="M510 1561 c0 -6 5 -13 10 -16 6 -3 10 1 10 9 0 9 -4 16 -10 16 -5 0
-10 -4 -10 -9z"/>
<path d="M273 1408 c-13 -34 -18 -38 -23 -23 -5 14 -12 3 -28 -43 -11 -34 -17
-62 -12 -62 5 0 24 26 42 58 45 77 60 112 48 112 -6 0 -18 -19 -27 -42z"/>
<path d="M757 1426 c-21 -31 -29 -74 -15 -78 11 -4 -30 -96 -66 -151 -10 -15
-16 -30 -13 -33 5 -6 35 35 59 81 9 17 28 52 42 79 14 27 26 58 26 70 0 19 0
19 -20 -2 -30 -32 -32 -27 -8 13 23 41 19 59 -5 21z"/>
<path d="M799 1278 c-7 -18 -20 -38 -29 -45 -16 -12 -8 -29 9 -18 11 6 51 78
51 90 0 17 -20 0 -31 -27z"/>
<path d="M1915 1280 c-3 -5 -2 -17 3 -26 8 -15 10 -15 15 0 5 12 3 15 -5 10
-8 -5 -9 -2 -5 9 7 19 2 23 -8 7z"/>
<path d="M2295 1240 c-3 -5 -1 -10 4 -10 6 0 11 5 11 10 0 6 -2 10 -4 10 -3 0
-8 -4 -11 -10z"/>
<path d="M534 1204 c11 -44 35 -65 70 -62 16 2 31 8 33 15 3 7 -3 9 -16 6 -25
-6 -71 21 -71 42 0 7 -5 17 -11 21 -9 5 -10 -1 -5 -22z"/>
<path d="M405 1189 c-10 -15 3 -25 16 -12 7 7 7 13 1 17 -6 3 -14 1 -17 -5z"/>
<path d="M462 1179 c-7 -11 -11 -24 -8 -27 10 -9 28 15 24 32 -2 14 -5 13 -16
-5z"/>
<path d="M1857 1143 c-15 -31 -25 -58 -22 -61 3 -3 6 -3 8 -1 25 36 57 91 57
98 0 28 -18 13 -43 -36z"/>
<path d="M706 1133 c-9 -18 -12 -33 -7 -33 13 0 33 38 28 53 -2 7 -11 -3 -21
-20z"/>
<path d="M626 1113 c-29 -42 -34 -62 -11 -43 17 14 47 71 41 77 -2 3 -16 -13
-30 -34z"/>
<path d="M886 1141 c-4 -7 -5 -15 -2 -18 9 -9 19 4 14 18 -4 11 -6 11 -12 0z"/>
<path d="M1642 1130 c0 -14 2 -19 5 -12 2 6 2 18 0 25 -3 6 -5 1 -5 -13z"/>
<path d="M2055 1111 c-26 -60 -14 -68 18 -11 20 36 24 50 14 50 -8 0 -22 -18
-32 -39z"/>
<path d="M362 1115 c-14 -29 2 -34 18 -6 12 24 13 31 2 31 -5 0 -14 -11 -20
-25z"/>
<path d="M431 1106 c-6 -16 -10 -34 -8 -40 3 -6 10 2 16 18 6 16 10 34 8 40
-3 6 -10 -2 -16 -18z"/>
<path d="M1610 1070 c-17 -41 -6 -50 14 -11 18 35 19 41 7 41 -5 0 -14 -14
-21 -30z"/>
<path d="M670 1070 c0 -5 5 -10 11 -10 5 0 7 5 4 10 -3 6 -8 10 -11 10 -2 0
-4 -4 -4 -10z"/>
<path d="M1797 1037 c-27 -35 -34 -57 -19 -57 11 0 54 70 50 82 -2 6 -16 -6
-31 -25z"/>
<path d="M267 1053 c-4 -3 -7 -11 -7 -17 0 -6 5 -5 12 2 6 6 9 14 7 17 -3 3
-9 2 -12 -2z"/>
<path d="M1683 1008 c-6 -7 -20 -31 -31 -54 -26 -52 -92 -131 -92 -111 0 9 5
19 10 22 15 10 12 65 -4 65 -19 0 -88 -63 -121 -110 -29 -42 -45 -51 -45 -25
0 40 -71 -16 -104 -82 -11 -22 -24 -33 -38 -33 -18 0 -20 4 -15 38 10 59 -1
68 -66 52 -31 -7 -61 -16 -68 -21 -27 -16 -2 -18 51 -4 30 8 58 15 62 15 4 0
4 -22 1 -50 l-6 -50 36 0 c32 0 39 5 56 38 21 41 54 82 66 82 13 0 -4 -63 -33
-119 -19 -39 -23 -56 -14 -59 22 -7 13 -31 -18 -47 l-30 -16 0 30 c0 20 -6 32
-19 36 -22 7 -71 -10 -71 -25 0 -6 9 -6 24 0 27 10 36 5 36 -22 0 -11 4 -28
10 -38 9 -18 12 -18 50 -2 25 11 44 27 51 45 13 31 78 89 91 81 4 -3 16 0 26
5 13 7 22 7 30 -1 9 -9 19 -5 40 15 31 30 69 35 78 12 9 -22 32 -18 40 7 4 13
20 35 36 50 26 24 28 29 13 34 -20 8 -65 -34 -65 -61 0 -3 -8 -1 -19 4 -16 9
-14 15 30 63 49 52 61 78 36 78 -18 0 -89 -75 -80 -84 4 -4 -8 -21 -26 -37
-19 -16 -37 -27 -40 -23 -3 3 10 19 29 36 23 19 28 27 15 23 -17 -5 -17 -3 6
22 41 45 61 82 54 103 -3 11 5 40 20 70 25 50 29 75 8 48z m-123 -114 c0 -13
-114 -173 -160 -224 -28 -30 -50 -53 -50 -50 0 8 54 110 78 149 38 62 132 151
132 125z m54 -59 c-9 -14 -19 -23 -22 -20 -5 4 26 45 35 45 2 0 -4 -11 -13
-25z m-54 -59 c-14 -13 -32 -33 -40 -45 -8 -11 -19 -21 -24 -21 -5 0 -20 -10
-33 -22 -13 -12 -25 -19 -28 -16 -10 10 110 128 130 128 18 0 18 -2 -5 -24z"/>
<path d="M1920 1005 c0 -8 5 -15 10 -15 6 0 10 7 10 15 0 8 -4 15 -10 15 -5 0
-10 -7 -10 -15z"/>
<path d="M1989 992 c-7 -18 -17 -32 -20 -32 -7 0 -22 -40 -20 -52 1 -5 -3 -8
-8 -8 -6 0 -16 -11 -23 -24 -7 -13 -21 -38 -31 -55 -10 -17 -13 -31 -9 -31 19
0 136 202 130 222 -3 7 -11 -2 -19 -20z"/>
<path d="M790 1000 c0 -5 5 -10 10 -10 6 0 10 5 10 10 0 6 -4 10 -10 10 -5 0
-10 -4 -10 -10z"/>
<path d="M486 985 c-9 -26 -7 -32 5 -12 6 10 9 21 6 23 -2 3 -7 -2 -11 -11z"/>
<path d="M1562 978 c-14 -14 -16 -28 -3 -28 5 0 11 9 14 20 6 23 5 24 -11 8z"/>
<path d="M710 961 c0 -39 -125 -181 -160 -181 -5 0 6 24 26 54 33 51 57 136
38 136 -5 0 -18 -8 -29 -16 -19 -14 -19 -16 -3 -28 17 -12 15 -18 -21 -73 -37
-58 -113 -123 -143 -123 -7 0 -46 -16 -85 -34 -56 -27 -74 -41 -79 -61 -9 -37
10 -54 35 -31 11 10 19 23 18 30 -1 6 10 12 25 14 15 2 34 14 42 28 17 24 68
34 80 15 10 -16 64 4 86 31 19 25 25 27 73 21 29 -3 65 -15 80 -26 30 -20 41
-19 32 4 -8 22 -45 42 -87 48 l-37 6 35 40 c72 81 115 165 84 165 -5 0 -10 -9
-10 -19z m-186 -216 c-4 -8 -13 -15 -21 -15 -13 0 -13 3 -3 15 7 8 16 15 21
15 5 0 6 -7 3 -15z"/>
<path d="M869 925 c-16 -35 -10 -56 9 -32 11 14 22 67 13 67 -3 -1 -13 -16
-22 -35z"/>
<path d="M1736 938 c-10 -15 -16 -33 -14 -40 3 -8 11 -2 22 14 10 15 16 33 14
40 -3 8 -11 2 -22 -14z"/>
<path d="M1886 941 c-4 -7 -5 -15 -2 -18 9 -9 19 4 14 18 -4 11 -6 11 -12 0z"/>
<path d="M1324 894 c3 -9 6 -18 6 -20 0 -3 5 -2 10 1 16 10 12 35 -6 35 -11 0
-14 -5 -10 -16z"/>
<path d="M1165 890 c-3 -5 -1 -10 4 -10 6 0 11 5 11 10 0 6 -2 10 -4 10 -3 0
-8 -4 -11 -10z"/>
<path d="M465 875 c-80 -35 -252 -195 -210 -195 22 0 140 65 174 95 83 75 103
130 36 100z m-12 -49 c-18 -25 -43 -42 -43 -28 0 11 51 64 57 58 3 -2 -3 -16
-14 -30z"/>
<path d="M143 868 c-15 -20 -23 -47 -15 -52 4 -2 12 11 18 30 12 37 11 40 -3
22z"/>
<path d="M877 833 c-72 -114 -92 -148 -90 -155 2 -5 -2 -8 -7 -8 -6 0 -10 -4
-10 -10 0 -23 20 -7 36 30 10 22 21 40 25 40 9 0 89 116 89 130 0 21 -21 8
-43 -27z"/>
<path d="M286 834 c-9 -24 -7 -28 9 -14 17 14 20 30 6 30 -5 0 -12 -7 -15 -16z"/>
<path d="M1015 820 c3 -5 8 -10 11 -10 2 0 4 5 4 10 0 6 -5 10 -11 10 -5 0 -7
-4 -4 -10z"/>
<path d="M200 797 c0 -9 -4 -17 -10 -17 -5 0 -10 -7 -10 -15 0 -21 13 -19 28
6 10 15 11 24 3 32 -8 8 -11 6 -11 -6z"/>
<path d="M1840 751 c-7 -15 -7 -21 0 -21 12 0 25 28 17 36 -3 3 -10 -4 -17
-15z"/>
<path d="M995 730 c3 -5 8 -10 11 -10 2 0 4 5 4 10 0 6 -5 10 -11 10 -5 0 -7
-4 -4 -10z"/>
<path d="M1163 718 c-15 -20 -25 -38 -20 -38 3 0 12 11 21 25 17 26 16 35 -1
13z"/>
<path d="M976 695 c-3 -8 -1 -15 4 -15 13 0 22 18 11 24 -5 3 -11 -1 -15 -9z"/>
<path d="M1814 698 c-5 -7 -20 -33 -34 -58 -18 -35 -20 -42 -6 -31 19 16 60
90 53 97 -2 3 -8 -1 -13 -8z"/>
<path d="M193 664 c-25 -26 -28 -34 -15 -34 5 0 18 14 30 30 27 36 16 38 -15
4z"/>
<path d="M936 644 c-8 -21 -8 -24 3 -24 5 0 11 9 14 20 6 24 -8 27 -17 4z"/>
<path d="M1970 600 c-12 -16 -17 -30 -12 -30 11 0 27 18 35 43 9 25 1 21 -23
-13z"/>
<path d="M196 611 c-4 -7 -5 -15 -2 -18 9 -9 19 4 14 18 -4 11 -6 11 -12 0z"/>
<path d="M230 545 c-7 -9 -10 -18 -7 -21 3 -3 10 4 17 15 13 25 8 27 -10 6z"/>
<path d="M2481 98 c0 -9 -4 -25 -7 -35 -5 -14 -4 -15 5 -7 7 7 11 22 8 35 -2
13 -5 16 -6 7z"/>
</g>
</svg>
