<?xml version="1.0" standalone="no"?>
<!DOCTYPE svg PUBLIC "-//W3C//DTD SVG 20010904//EN"
 "http://www.w3.org/TR/2001/REC-SVG-20010904/DTD/svg10.dtd">
<svg version="1.0" xmlns="http://www.w3.org/2000/svg"
 width="660.000000pt" height="305.000000pt" viewBox="0 0 660.000000 305.000000"
 preserveAspectRatio="xMidYMid meet">
<metadata>
Created by potrace 1.16, written by Peter Selinger 2001-2019
</metadata>
<g transform="translate(0.000000,305.000000) scale(0.100000,-0.100000)"
fill="#000000" stroke="none">
<path d="M2920 3039 c-68 -7 -175 -10 -348 -8 -35 0 -84 -6 -110 -14 -30 -10
-92 -15 -172 -16 -69 0 -159 -6 -200 -13 -63 -10 -240 -12 -480 -6 -19 1 -78
1 -130 0 -52 0 -106 0 -120 1 -53 2 -344 -14 -354 -20 -9 -6 -356 -5 -478 0
-31 2 -49 -2 -52 -10 -6 -16 -38 -17 -53 -2 -18 18 -275 8 -298 -11 -14 -11
-19 -12 -22 -2 -7 19 -19 14 -31 -13 -6 -14 -18 -25 -27 -25 -19 0 -20 -16 -1
-23 19 -8 33 -211 15 -233 -15 -19 -28 -277 -18 -384 7 -82 14 -611 10 -809
-2 -72 1 -121 6 -118 5 3 11 -11 13 -31 8 -71 3 -438 -6 -519 -6 -45 -6 -92
-2 -104 5 -12 9 -119 9 -237 1 -171 4 -218 15 -229 8 -8 14 -25 14 -37 0 -31
25 -53 34 -30 5 12 10 13 19 6 8 -7 69 -11 163 -10 92 1 157 -3 169 -9 13 -7
101 -12 235 -13 118 0 231 -3 250 -6 19 -3 224 -11 455 -18 231 -8 440 -16
465 -20 25 -3 74 -8 109 -11 35 -3 71 -9 80 -14 9 -5 76 -11 150 -15 74 -3
152 -12 174 -18 30 -9 43 -9 58 0 23 14 75 16 84 2 6 -10 64 -7 245 15 101 13
515 28 730 27 41 0 208 0 370 -1 162 -1 332 2 378 7 46 4 86 4 88 0 3 -4 49
-7 102 -6 70 1 85 3 52 7 -54 7 -43 18 20 21 60 2 69 0 45 -10 -18 -8 -17 -9
7 -9 31 -1 224 21 483 54 265 35 809 60 966 45 l57 -6 0 36 c0 19 -5 60 -10
90 -13 68 -12 270 2 410 6 58 12 137 15 175 12 177 16 223 22 262 5 39 3 43
-16 43 -21 0 -29 16 -11 22 16 5 27 658 11 658 -8 0 -11 15 -10 43 1 23 -1
130 -6 238 -5 137 -4 261 6 415 17 279 17 343 0 353 -8 5 -12 23 -11 47 2 22
2 51 1 67 l-1 27 -114 0 c-111 0 -115 -1 -119 -22 l-4 -23 -2 23 c-1 21 -5 22
-95 22 -82 0 -95 -2 -99 -17 -4 -17 -5 -17 -6 0 -1 15 -13 17 -110 17 -106 0
-110 -1 -114 -22 l-4 -23 -2 23 -1 22 -284 0 c-218 0 -286 -3 -289 -12 -4 -10
-6 -10 -6 0 -1 16 -1027 18 -1047 1 -8 -7 -14 -7 -19 1 -7 12 -729 12 -845 -1z
m1870 -24 c0 -8 -2 -15 -4 -15 -2 0 -6 7 -10 15 -3 8 -1 15 4 15 6 0 10 -7 10
-15z m447 -27 c-3 -7 -5 -2 -5 12 0 14 2 19 5 13 2 -7 2 -19 0 -25z m-440 -30
c-3 -7 -5 -2 -5 12 0 14 2 19 5 13 2 -7 2 -19 0 -25z m-2227 18 c0 -11 -19
-15 -25 -6 -3 5 1 10 9 10 9 0 16 -2 16 -4z m-400 -36 c0 -5 -4 -10 -10 -10
-5 0 -10 5 -10 10 0 6 5 10 10 10 6 0 10 -4 10 -10z m-863 -47 c-3 -10 -5 -4
-5 12 0 17 2 24 5 18 2 -7 2 -21 0 -30z m377 -5 c-9 -59 -14 -60 -14 -5 0 26
5 47 10 47 6 0 8 -16 4 -42z m63 5 c-3 -10 -5 -4 -5 12 0 17 2 24 5 18 2 -7 2
-21 0 -30z m60 15 c-3 -8 -6 -5 -6 6 -1 11 2 17 5 13 3 -3 4 -12 1 -19z m996
-18 c-3 -11 -7 -20 -9 -20 -2 0 -4 9 -4 20 0 11 4 20 9 20 5 0 7 -9 4 -20z
m-2263 0 c0 -5 -5 -10 -11 -10 -5 0 -7 5 -4 10 3 6 8 10 11 10 2 0 4 -4 4 -10z
m80 -2 c0 -7 -5 -20 -10 -28 -8 -12 -10 -9 -10 13 0 15 5 27 10 27 6 0 10 -6
10 -12z m-303 -75 c-2 -16 -4 -3 -4 27 0 30 2 43 4 28 2 -16 2 -40 0 -55z m60
40 c-3 -10 -5 -4 -5 12 0 17 2 24 5 18 2 -7 2 -21 0 -30z m1860 15 c-3 -8 -6
-5 -6 6 -1 11 2 17 5 13 3 -3 4 -12 1 -19z m300 -10 c-3 -8 -6 -5 -6 6 -1 11
2 17 5 13 3 -3 4 -12 1 -19z m-1510 -65 c-2 -16 -4 -3 -4 27 0 30 2 43 4 28 2
-16 2 -40 0 -55z m1610 15 c-2 -13 -4 -5 -4 17 -1 22 1 32 4 23 2 -10 2 -28 0
-40z m-1694 0 c3 -21 2 -38 -4 -38 -5 0 -9 19 -9 42 0 49 5 47 13 -4z m1064
-20 c-2 -13 -4 -5 -4 17 -1 22 1 32 4 23 2 -10 2 -28 0 -40z m568 -5 c-10 -40
-17 -20 -9 23 5 24 9 32 12 21 2 -10 1 -30 -3 -44z m2092 0 c-3 -10 -5 -2 -5
17 0 19 2 27 5 18 2 -10 2 -26 0 -35z m1243 37 c0 -5 -4 -10 -10 -10 -5 0 -10
5 -10 10 0 6 5 10 10 10 6 0 10 -4 10 -10z m-3123 -22 c-3 -8 -6 -5 -6 6 -1
11 2 17 5 13 3 -3 4 -12 1 -19z m768 -44 c-3 -19 -2 -34 2 -34 5 0 7 -20 5
-44 -3 -38 -7 -45 -30 -49 -15 -3 -39 1 -53 9 -15 7 -30 10 -34 6 -4 -4 -6 0
-3 8 5 16 -14 40 -31 40 -13 0 -32 -35 -23 -44 3 -4 -1 -4 -10 -1 -10 4 -37
-1 -62 -10 -24 -9 -50 -15 -58 -12 -7 2 6 10 30 16 23 6 42 16 42 21 0 8 -68
-9 -162 -41 -41 -13 -49 -25 -21 -31 10 -2 -2 -9 -27 -17 -25 -7 -53 -17 -62
-22 -24 -12 -29 -11 -26 4 2 7 -1 12 -6 12 -17 0 -23 39 -9 53 19 19 9 26 -16
12 -12 -6 -26 -8 -32 -5 -5 4 -15 2 -22 -3 -18 -14 -86 -22 -92 -11 -4 5 -17
1 -31 -8 -19 -12 -28 -13 -37 -4 -14 14 -16 64 -2 74 6 4 5 10 -4 16 -22 14 6
23 29 9 18 -11 24 -10 38 7 12 14 27 19 52 18 19 -1 29 0 23 3 -7 3 -13 9 -13
13 0 11 67 7 77 -3 4 -5 4 -7 -2 -4 -5 3 -19 2 -30 -3 -42 -16 41 -9 165 15
68 14 128 22 133 19 4 -2 16 -1 25 3 9 5 44 9 77 10 65 2 167 13 173 19 2 2
11 1 19 -2 11 -4 13 -15 8 -39z m2022 14 c-3 -8 -6 -5 -6 6 -1 11 2 17 5 13 3
-3 4 -12 1 -19z m-2414 5 c-7 -2 -19 -2 -25 0 -7 3 -2 5 12 5 14 0 19 -2 13
-5z m477 -38 c13 -14 30 -25 37 -25 8 0 31 -9 52 -20 31 -15 49 -38 96 -122
32 -57 65 -114 73 -127 21 -34 27 -341 6 -341 -7 0 -21 11 -30 24 -9 14 -22
22 -30 19 -8 -3 -17 4 -23 20 -12 32 -20 36 -76 42 -56 5 -66 11 -58 31 5 14
-3 15 -55 12 l-60 -3 -6 35 c-10 63 -6 166 9 216 8 27 15 87 15 134 0 87 7
130 19 130 4 0 18 -11 31 -25z m-2579 -65 l-9 -45 -1 51 c-1 28 2 54 7 58 11
12 13 -15 3 -64z m-101 51 c0 -6 -4 -13 -10 -16 -5 -3 -10 1 -10 9 0 9 5 16
10 16 6 0 10 -4 10 -9z m2830 -22 c0 -6 -4 -7 -10 -4 -5 3 -10 11 -10 16 0 6
5 7 10 4 6 -3 10 -11 10 -16z m887 -1 c-3 -8 -6 -5 -6 6 -1 11 2 17 5 13 3 -3
4 -12 1 -19z m-1943 -9 c-4 -6 -1 -36 7 -66 9 -41 10 -59 2 -73 -7 -9 -8 -21
-4 -26 4 -5 12 -21 18 -35 10 -24 10 -26 -8 -22 -36 10 -25 -27 36 -122 28
-43 33 -61 38 -132 5 -75 3 -83 -13 -83 -12 0 -25 -18 -42 -57 -21 -48 -23
-60 -11 -71 7 -7 13 -17 13 -20 0 -14 125 -70 180 -81 64 -13 258 -87 290
-111 12 -9 23 -31 25 -50 11 -82 16 -106 30 -119 16 -16 15 -19 65 126 16 45
46 115 67 154 34 66 44 75 95 101 49 24 60 27 77 16 11 -7 23 -9 27 -5 12 12
10 102 -3 122 -20 30 -17 65 6 65 11 0 26 -7 34 -15 11 -11 27 -13 60 -9 43 6
47 5 89 -38 25 -24 59 -50 77 -57 29 -13 33 -12 52 10 12 13 25 23 30 22 5 -2
9 9 9 25 0 18 3 23 9 14 7 -11 10 -10 15 3 10 28 8 39 -7 27 -9 -8 -12 0 -10
36 2 41 1 43 -6 17 -7 -26 -9 -21 -11 30 -2 54 -2 131 -1 162 1 7 30 -2 75
-23 41 -19 83 -34 94 -34 11 0 31 -12 45 -26 16 -15 33 -24 42 -20 8 3 15 2
15 -3 0 -9 192 -111 207 -111 4 1 -3 10 -17 22 l-25 21 25 -8 c14 -3 37 -15
51 -25 18 -13 30 -15 37 -8 7 7 16 4 28 -11 10 -11 30 -21 44 -21 14 0 41 -5
61 -10 33 -9 38 -16 49 -58 7 -26 14 -67 16 -92 3 -24 8 -47 12 -50 4 -3 5
-18 1 -35 -5 -24 -7 -26 -8 -7 -1 15 -5 21 -12 16 -8 -5 -10 3 -7 25 5 31 -5
50 -16 33 -9 -15 -15 -85 -8 -96 10 -17 11 -35 1 -42 -5 -3 -9 -11 -9 -17 0
-7 4 -6 10 3 7 10 10 -13 11 -75 0 -60 3 -83 9 -70 7 16 9 12 10 -20 3 -56 -1
-89 -10 -95 -4 -3 -10 -68 -12 -145 -3 -77 -2 -111 2 -75 l6 65 2 -77 c2 -64
5 -76 17 -72 8 4 15 14 15 23 0 14 -2 14 -10 1 -7 -10 -10 16 -11 85 -1 55 -3
112 -4 128 -1 15 2 27 6 27 13 0 22 -87 23 -222 1 -118 -1 -128 -21 -147 -18
-17 -22 -18 -27 -5 -3 9 -6 27 -6 40 0 14 -4 23 -9 20 -11 -7 -21 -94 -21
-178 1 -71 -15 -93 -25 -35 -7 37 -11 137 -6 152 8 23 0 135 -9 135 -6 0 -10
-28 -10 -65 0 -47 -4 -67 -14 -71 -12 -4 -14 -33 -14 -140 0 -74 -2 -137 -6
-141 -3 -3 -6 8 -6 25 0 18 -4 40 -9 50 -5 9 -12 25 -15 35 -3 10 -9 16 -13
14 -5 -3 -8 23 -9 56 0 34 -6 79 -13 101 -8 21 -14 63 -15 95 -1 31 -6 54 -11
51 -5 -3 -8 -23 -7 -45 1 -31 0 -36 -8 -20 -5 11 -9 35 -9 53 -1 54 -21 36
-22 -20 l0 -53 -19 65 c-23 80 -42 235 -40 338 2 107 0 144 -6 166 -6 18 -7
18 -16 2 -5 -9 -7 -25 -3 -35 3 -11 1 -22 -5 -26 -6 -4 -11 -1 -9 6 5 40 -2
100 -11 94 -6 -4 -10 -28 -10 -53 1 -26 0 -54 -2 -62 -4 -26 13 -291 27 -413
14 -115 38 -227 56 -257 13 -22 11 -10 -11 82 -11 46 -25 133 -30 193 -6 61
-13 118 -16 128 -3 9 -1 17 3 17 5 0 15 -46 22 -102 7 -57 21 -139 31 -183 10
-44 21 -105 25 -135 10 -89 66 -272 81 -266 19 7 24 -17 24 -107 0 -99 -14
-157 -40 -164 -12 -3 -25 -23 -35 -52 -30 -90 -44 -126 -45 -114 0 6 -5 24
-12 40 -12 29 -11 65 2 73 12 8 22 170 10 170 -5 0 -10 -17 -10 -37 0 -21 -5
-45 -10 -53 -7 -11 -10 3 -10 47 0 55 -2 63 -22 70 -55 19 -466 -2 -628 -33
-91 -17 -91 -17 -88 -2 2 7 -2 12 -9 13 -6 0 -15 3 -19 8 -11 11 -24 8 -22 -5
2 -6 -14 -15 -34 -20 -20 -5 -43 -17 -51 -26 -15 -17 -25 -114 -15 -142 9 -23
27 -146 34 -233 l6 -78 -103 3 -104 3 -2 55 c-3 86 -10 147 -19 162 -5 7 -7
112 -6 233 2 151 -1 215 -8 205 -8 -12 -10 -11 -10 7 0 25 16 39 23 21 3 -7 5
3 6 22 0 29 -2 31 -9 15 -6 -13 -7 5 -4 50 3 39 6 117 8 175 1 58 5 110 9 117
4 6 0 24 -8 39 -11 22 -13 50 -10 109 12 195 13 225 4 225 -5 0 -10 -42 -11
-92 -1 -81 -3 -72 -11 70 -7 114 -13 162 -22 162 -13 0 -12 -46 5 -207 6 -50
10 -110 10 -132 0 -26 5 -41 13 -41 9 0 9 -2 1 -8 -16 -10 -19 -59 -7 -107 6
-22 10 -53 8 -70 -4 -44 -25 -344 -27 -386 -1 -20 3 -42 7 -50 5 -7 10 -131
12 -274 1 -143 4 -269 5 -280 3 -18 -4 -20 -74 -23 l-76 -3 4 136 c3 112 1
139 -11 152 -8 8 -15 20 -15 26 0 7 5 6 11 -3 8 -12 10 -8 6 17 -3 28 0 34 25
42 37 13 36 25 -2 18 l-30 -6 0 54 c0 61 -9 68 -83 65 -88 -4 -147 0 -147 10
0 6 3 9 8 9 18 -3 32 2 32 11 0 7 -25 8 -67 4 -76 -7 -95 -14 -40 -14 20 0 38
-4 41 -9 3 -4 -5 -6 -18 -4 -13 3 -27 -1 -31 -7 -5 -9 -1 -10 14 -5 11 3 21 3
21 -2 0 -17 59 -34 97 -27 21 4 42 9 48 12 16 10 79 13 92 4 17 -11 3 -102
-17 -113 -8 -4 -51 -21 -95 -38 -85 -33 -192 -97 -145 -88 14 3 42 9 64 13 25
4 40 13 43 24 3 11 18 21 38 24 18 4 47 13 64 22 40 20 52 12 41 -26 -5 -18
-5 -32 1 -35 16 -10 11 -75 -6 -75 -15 0 -30 -40 -27 -73 0 -10 -4 -15 -10
-11 -6 4 -8 3 -4 -4 3 -6 2 -22 -4 -36 -9 -25 2 -46 15 -27 9 16 45 8 45 -9 0
-33 -22 -40 -127 -40 -75 0 -103 3 -104 13 0 9 -2 9 -6 0 -6 -17 -30 -17 -36
0 -4 7 -6 6 -6 -5 -1 -13 -15 -18 -68 -23 -90 -9 -92 -9 -281 -7 l-162 2 6 24
c3 14 2 31 -3 38 -5 9 -10 0 -15 -27 -4 -22 -5 25 -3 105 5 163 -4 306 -16
275 -7 -20 -8 -20 -9 0 -2 14 -5 11 -10 -10 -12 -45 -12 -97 0 -90 6 3 10 1
10 -5 0 -6 5 -8 10 -5 6 4 9 -9 9 -32 -2 -30 -3 -32 -6 -10 -10 66 -19 16 -21
-114 -1 -78 -4 -145 -7 -148 -3 -3 -10 1 -16 9 -7 12 -11 13 -18 2 -4 -8 -21
-12 -37 -10 -27 3 -29 6 -28 46 0 23 -3 42 -7 42 -4 0 -5 12 -2 27 8 36 6 142
-3 162 -4 11 -10 4 -20 -24 -7 -22 -12 -30 -10 -18 2 13 0 26 -6 29 -6 4 -8
26 -4 53 3 25 1 62 -3 81 -8 31 -9 32 -12 10 -1 -14 -5 -3 -9 25 -6 47 -7 49
-17 25 -10 -22 -12 -22 -12 -5 0 11 9 74 20 140 11 66 25 154 30 195 5 41 15
104 23 140 8 36 20 122 27 192 11 114 11 131 -5 172 -10 25 -19 72 -21 103
-11 170 -18 223 -30 223 -10 0 -11 -10 -4 -37 9 -40 12 -130 4 -122 -2 3 -10
41 -16 85 -20 129 -22 64 -4 -90 13 -109 14 -152 6 -182 -12 -43 -31 -77 -31
-56 0 6 -4 12 -10 12 -14 0 -12 -21 3 -39 11 -12 12 -37 7 -101 -5 -67 -7 -78
-12 -50 -14 72 -30 189 -43 300 -11 103 -13 108 -14 50 0 -36 6 -114 14 -175
17 -129 19 -202 5 -207 -6 -2 -5 -34 5 -88 8 -47 14 -105 14 -130 l-2 -45 -7
40 c-4 22 -14 81 -21 130 -7 50 -16 92 -19 95 -4 3 -10 41 -14 85 -17 193 -29
219 -22 50 3 -66 14 -180 25 -254 22 -140 24 -157 17 -150 -9 9 -36 154 -36
192 0 20 -4 37 -9 37 -18 0 -2 -150 34 -320 20 -98 24 -110 37 -110 7 0 8 20
4 58 -4 36 -3 52 2 43 7 -9 12 10 18 60 9 80 9 109 0 239 -5 71 -4 78 5 43 6
-26 16 -43 25 -43 17 0 19 -69 3 -140 -22 -103 -33 -178 -31 -217 0 -24 -3
-43 -7 -43 -5 0 -6 -21 -4 -47 l5 -48 -32 53 c-17 29 -35 50 -41 47 -11 -7
-44 31 -71 82 -12 22 -14 33 -6 33 7 0 5 7 -4 18 -9 9 -26 55 -39 102 -12 46
-24 79 -27 72 -2 -8 1 -32 6 -55 6 -23 11 -49 10 -57 0 -8 3 -24 7 -35 6 -17
5 -16 -10 3 -9 13 -14 29 -11 37 3 8 0 15 -6 15 -6 0 -9 3 -5 6 3 3 -4 24 -15
47 -12 22 -23 64 -25 96 -2 43 -1 51 7 36 9 -17 9 -15 5 10 -2 17 -7 45 -11
63 -5 27 -4 31 10 26 9 -3 16 -1 16 4 0 6 -10 14 -22 18 -13 3 -35 15 -50 25
-40 29 -42 23 -7 -26 30 -42 32 -48 26 -113 -5 -62 -2 -76 32 -164 21 -53 52
-114 68 -135 17 -21 42 -62 57 -91 33 -65 114 -179 132 -186 11 -4 14 -39 14
-161 0 -102 3 -154 10 -150 6 4 10 -7 10 -25 l0 -32 -137 5 c-76 2 -225 10
-331 17 l-193 14 8 45 c4 25 8 67 8 94 0 26 3 47 8 47 4 0 7 -9 7 -19 0 -11 5
-23 10 -26 6 -3 10 2 10 12 0 15 2 16 11 3 9 -12 10 -12 5 3 -3 11 -9 31 -12
45 -6 26 -6 26 9 7 17 -21 21 -14 11 23 -4 14 -12 21 -20 18 -7 -3 -16 -1 -19
3 -3 5 1 11 8 14 15 6 14 153 -1 212 -6 22 -8 42 -4 45 14 10 31 60 26 75 -9
22 -23 9 -17 -15 4 -14 0 -20 -12 -20 -15 0 -17 -7 -13 -45 3 -24 2 -42 -3
-39 -11 6 -11 -12 -2 -46 l7 -25 8 25 c5 17 6 13 2 -15 -3 -22 -5 -53 -5 -69
0 -25 -1 -28 -13 -15 -15 16 -31 83 -18 75 5 -3 6 15 2 39 -4 26 -3 45 2 45 6
0 6 30 2 73 -4 39 -7 116 -7 170 0 101 -5 114 -17 50 -7 -32 -8 -28 -8 27 0
36 2 57 5 47 7 -28 22 -19 29 18 3 19 10 32 15 30 10 -7 23 60 14 75 -3 6 1
33 10 60 9 27 14 54 11 59 -7 11 28 127 57 191 30 65 30 67 13 46 -9 -11 -16
-23 -16 -28 0 -4 -5 -8 -11 -8 -11 0 -8 18 18 88 18 50 23 49 28 -4 2 -22 11
-73 19 -114 l14 -75 2 50 c4 69 0 109 -11 113 -5 2 -9 20 -9 39 0 38 35 108
143 288 33 55 72 122 88 148 16 27 29 52 29 57 0 5 9 14 20 20 11 6 20 8 20 4
0 -5 37 34 70 74 6 6 14 12 18 12 4 0 16 -46 26 -102 16 -95 34 -163 42 -156
1 2 -6 53 -16 113 -29 167 -33 155 60 199 43 21 84 44 91 52 6 8 17 14 24 14
7 0 33 11 56 25 24 14 51 25 60 25 9 0 29 16 43 35 15 19 32 35 38 35 7 0 22
10 35 22 29 27 34 22 27 -24 -5 -28 -10 -35 -22 -31 -13 6 -14 -7 -9 -100 4
-59 10 -132 13 -163 5 -42 4 -55 -4 -50 -7 4 -12 3 -12 -2 0 -6 19 -9 43 -8
23 1 41 5 40 9 -2 4 -3 12 -3 18 0 6 -9 9 -19 6 -14 -3 -21 2 -26 21 -3 14 -2
28 4 31 7 5 7 19 0 46 -13 46 -4 187 13 219 7 11 11 28 10 37 -2 9 4 22 13 29
8 7 15 19 15 26 0 7 12 21 26 31 14 9 30 27 35 41 6 15 15 22 24 18 8 -3 27 6
41 19 33 31 38 31 23 3 -7 -14 6 -5 34 21 38 37 81 69 95 71 2 0 0 -5 -4 -11z
m-602 -137 l-9 -107 -1 125 c0 86 3 119 9 107 7 -11 7 -56 1 -125z m200 116
c-7 -7 -12 -8 -12 -2 0 14 12 26 19 19 2 -3 -1 -11 -7 -17z m3335 -10 c-3 -7
-5 -2 -5 12 0 14 2 19 5 13 2 -7 2 -19 0 -25z m-4490 -55 c-2 -16 -4 -5 -4 22
0 28 2 40 4 28 2 -13 2 -35 0 -50z m3800 45 c-3 -8 -6 -5 -6 6 -1 11 2 17 5
13 3 -3 4 -12 1 -19z m-4400 -35 c-3 -10 -5 -4 -5 12 0 17 2 24 5 18 2 -7 2
-21 0 -30z m1756 22 c4 -8 2 -17 -3 -20 -6 -4 -10 3 -10 14 0 25 6 27 13 6z
m1654 -27 c-3 -7 -5 -2 -5 12 0 14 2 19 5 13 2 -7 2 -19 0 -25z m-134 -13 c26
-54 20 -66 -8 -16 -28 48 -29 51 -17 51 5 0 16 -16 25 -35z m-423 -16 c-11 -8
-4 -9 23 -4 l39 6 -5 -48 c-3 -26 -11 -63 -17 -81 -7 -18 -10 -35 -7 -38 3 -3
8 8 12 25 4 17 11 31 16 31 12 0 12 -3 -7 -51 -12 -29 -19 -37 -25 -27 -6 9
-9 4 -9 -14 0 -16 3 -28 6 -28 19 0 54 75 54 118 0 11 5 24 10 27 6 3 10 18
10 33 l-1 27 -15 -25 c-15 -25 -15 -25 -8 10 8 41 11 47 23 34 27 -27 7 -122
-45 -219 -17 -33 -37 -60 -43 -60 -7 0 -16 -7 -21 -15 -6 -9 -10 -10 -10 -3 0
6 4 15 10 18 5 3 9 28 9 54 -1 27 2 54 6 61 4 6 8 28 10 48 1 20 6 53 10 72 5
23 4 32 -2 25 -11 -10 -57 -156 -68 -214 -5 -25 -10 -30 -16 -20 -8 12 -10 12
-18 -1 -11 -16 -14 -11 -24 35 -4 18 -5 18 -6 -2 0 -13 -6 -23 -12 -23 -6 0
-9 9 -6 20 3 13 0 20 -9 20 -8 0 -14 -7 -14 -16 0 -8 -5 -12 -10 -9 -6 4 -8
16 -4 27 4 14 2 18 -5 14 -6 -4 -11 -14 -11 -22 0 -8 -4 -14 -9 -14 -6 0 -9
-9 -8 -19 1 -16 4 -18 15 -8 11 9 17 7 29 -8 12 -18 12 -20 -1 -23 -9 -2 -16
-7 -16 -11 0 -5 -20 1 -45 13 -38 18 -44 25 -43 51 1 30 1 30 5 3 5 -31 23
-38 24 -10 0 14 2 14 9 -3 8 -19 9 -19 9 3 1 36 71 85 71 50 0 -6 7 -3 15 8
14 18 14 18 15 0 0 -13 3 -16 13 -9 6 6 20 9 29 8 13 -2 20 7 28 33 6 23 6 38
0 40 -5 2 -7 9 -4 17 3 7 -2 28 -11 45 -19 36 -17 40 28 55 36 12 49 9 27 -6z
m-2863 -56 c-2 -16 -4 -5 -4 22 0 28 2 40 4 28 2 -13 2 -35 0 -50z m2400 57
l36 0 -21 -19 c-26 -22 -28 -31 -7 -31 8 0 15 -5 15 -12 0 -6 6 -19 14 -27 20
-22 31 -71 17 -71 -6 0 -11 11 -11 24 0 14 -4 27 -9 31 -16 9 -24 -16 -13 -38
6 -12 13 -35 17 -52 6 -25 8 -27 16 -12 9 15 12 14 34 -11 13 -15 25 -21 25
-14 0 17 20 15 20 -2 0 -8 -6 -17 -12 -19 -10 -4 -9 -8 2 -16 8 -5 12 -12 9
-16 -8 -7 -49 29 -49 44 0 6 -5 11 -11 11 -5 0 -8 -4 -5 -8 2 -4 -4 -13 -15
-20 -16 -10 -19 -9 -19 5 0 9 -3 14 -6 11 -8 -9 7 -98 17 -98 5 0 9 8 10 18 0
9 5 4 10 -13 4 -16 5 -33 0 -38 -11 -11 -51 45 -51 71 0 11 -7 32 -15 48 -9
19 -11 32 -5 38 12 12 13 46 2 46 -5 0 -7 13 -4 29 2 16 -1 32 -8 36 -10 6
-12 -14 -8 -87 l4 -95 -21 26 c-50 63 -50 62 -35 71 8 5 10 15 6 26 -7 18 -8
18 -18 0 -10 -18 -11 -18 -24 5 -7 13 -10 34 -7 46 3 13 2 31 -2 40 -6 17 -7
17 -20 0 -12 -16 -13 -16 -19 -1 -8 21 -10 19 49 33 28 7 64 16 80 21 28 7 27
8 -15 9 -33 1 -41 4 -30 11 8 5 21 8 28 5 8 -3 30 -5 49 -5z m269 1 c-7 -11
22 -23 35 -15 6 3 20 -1 33 -10 21 -13 23 -19 16 -56 -9 -50 -33 -76 -77 -85
-35 -7 -37 -6 -27 19 5 12 10 13 25 5 15 -7 19 -6 19 5 0 7 7 16 15 20 8 3 15
10 15 15 0 18 -35 17 -79 -1 -26 -11 -48 -15 -53 -10 -5 5 10 14 36 22 26 7
46 16 46 20 0 5 8 7 18 5 9 -1 11 0 5 2 -7 3 -13 11 -13 19 0 20 -10 18 -118
-21 -10 -4 -10 -10 -2 -24 6 -12 6 -22 1 -25 -5 -4 -11 0 -14 6 -4 12 -10 -6
-23 -70 -7 -37 -21 -16 -22 33 -1 25 -4 51 -8 57 -5 7 -3 8 6 3 9 -5 10 -2 5
14 -4 14 -2 22 7 25 15 4 68 22 118 42 43 16 42 16 36 5z m-376 -11 c0 -5 -1
-10 -3 -10 -1 0 -17 -4 -35 -9 -26 -8 -32 -7 -32 6 0 10 6 14 20 10 11 -3 23
-1 26 4 7 12 24 11 24 -1z m1330 -10 c0 -5 -4 -10 -10 -10 -5 0 -10 5 -10 10
0 6 5 10 10 10 6 0 10 -4 10 -10z m97 -12 c-3 -8 -6 -5 -6 6 -1 11 2 17 5 13
3 -3 4 -12 1 -19z m-2970 -40 c-3 -7 -5 -2 -5 12 0 14 2 19 5 13 2 -7 2 -19 0
-25z m1729 -15 c-4 -4 -11 -1 -16 7 -16 25 -11 35 7 17 9 -9 13 -20 9 -24z
m1711 15 c-3 -8 -6 -5 -6 6 -1 11 2 17 5 13 3 -3 4 -12 1 -19z m-734 -1 c-2
-4 -5 -7 -8 -7 -3 0 -9 0 -15 0 -5 0 -10 4 -10 9 0 5 8 8 18 7 9 -2 16 -6 15
-9z m634 -29 c-3 -8 -6 -5 -6 6 -1 11 2 17 5 13 3 -3 4 -12 1 -19z m900 0 c-3
-8 -6 -5 -6 6 -1 11 2 17 5 13 3 -3 4 -12 1 -19z m-1566 -15 l24 -27 -24 15
c-14 9 -27 21 -29 27 -6 19 3 14 29 -15z m-3924 -15 c-3 -7 -5 -2 -5 12 0 14
2 19 5 13 2 -7 2 -19 0 -25z m3880 -10 c-3 -8 -6 -5 -6 6 -1 11 2 17 5 13 3
-3 4 -12 1 -19z m933 -18 l-8 -35 -1 31 c-1 17 2 34 6 37 11 12 12 3 3 -33z
m-1710 3 c0 -21 -3 -24 -9 -14 -5 8 -7 20 -4 28 8 21 13 15 13 -14z m2177 -20
c-3 -10 -5 -2 -5 17 0 19 2 27 5 18 2 -10 2 -26 0 -35z m340 -60 c-2 -21 -4
-4 -4 37 0 41 2 58 4 38 2 -21 2 -55 0 -75z m-3490 65 c-3 -7 -5 -2 -5 12 0
14 2 19 5 13 2 -7 2 -19 0 -25z m133 28 c0 -3 -4 -8 -10 -11 -5 -3 -10 -1 -10
4 0 6 5 11 10 11 6 0 10 -2 10 -4z m477 -46 c24 -46 28 -60 15 -60 -7 0 -33
45 -54 93 -16 38 16 10 39 -33z m390 28 c-3 -8 -6 -5 -6 6 -1 11 2 17 5 13 3
-3 4 -12 1 -19z m-70 -10 c-3 -8 -6 -5 -6 6 -1 11 2 17 5 13 3 -3 4 -12 1 -19z
m-3057 -85 c0 -67 -3 -93 -10 -83 -13 20 -13 180 0 180 6 0 10 -39 10 -97z
m1347 65 c-3 -8 -6 -5 -6 6 -1 11 2 17 5 13 3 -3 4 -12 1 -19z m3360 -80 c-2
-18 -4 -4 -4 32 0 36 2 50 4 33 2 -18 2 -48 0 -65z m-1920 57 c9 -24 -1 -27
-15 -5 -8 13 -8 20 -2 20 6 0 13 -7 17 -15z m2620 -7 c-3 -8 -6 -5 -6 6 -1 11
2 17 5 13 3 -3 4 -12 1 -19z m-4110 -35 c-3 -10 -5 -2 -5 17 0 19 2 27 5 18 2
-10 2 -26 0 -35z m2196 -123 c3 -8 8 -43 12 -77 l6 -62 -38 -7 c-20 -4 -50
-19 -66 -33 -53 -48 -87 -85 -87 -96 0 -5 -17 -45 -38 -87 -29 -61 -40 -76
-51 -69 -12 7 -12 13 -3 24 7 7 9 16 6 19 -2 3 -7 18 -10 34 -3 16 -7 36 -10
45 -4 15 44 118 67 144 12 13 11 38 -1 30 -6 -4 5 23 24 58 19 35 32 67 29 71
-4 3 0 6 9 6 8 0 20 11 26 25 13 27 17 34 56 79 14 15 29 38 33 50 5 15 10 -2
18 -59 7 -44 14 -87 18 -95z m2064 138 c-3 -7 -5 -2 -5 12 0 14 2 19 5 13 2
-7 2 -19 0 -25z m-2475 2 c11 -25 9 -40 -6 -40 -14 0 -26 21 -26 46 0 18 23
14 32 -6z m2795 -12 c-3 -7 -5 -2 -5 12 0 14 2 19 5 13 2 -7 2 -19 0 -25z
m-4050 0 c-3 -8 -6 -5 -6 6 -1 11 2 17 5 13 3 -3 4 -12 1 -19z m2990 -20 c-3
-7 -5 -2 -5 12 0 14 2 19 5 13 2 -7 2 -19 0 -25z m-1807 -31 c38 -29 38 -43 0
-20 -16 9 -30 21 -30 25 0 4 -7 8 -15 8 -8 0 -15 5 -15 11 0 14 25 5 60 -24z
m256 -2 c-2 -5 -8 -9 -14 -8 -6 2 -9 -4 -6 -12 4 -10 0 -15 -11 -15 -13 0 -16
6 -11 23 3 12 6 28 6 35 0 10 4 10 20 0 11 -7 18 -17 16 -23z m-186 -5 c0 -5
-4 -10 -10 -10 -5 0 -10 5 -10 10 0 6 5 10 10 10 6 0 10 -4 10 -10z m239 -41
c-9 -17 -12 -18 -25 -4 -10 9 -13 23 -9 36 6 19 8 20 26 3 14 -13 16 -21 8
-35z m-541 16 c-3 -3 -9 2 -12 12 -6 14 -5 15 5 6 7 -7 10 -15 7 -18z m406 4
c25 -20 34 -39 19 -39 -5 0 -24 14 -43 30 -40 35 -19 43 24 9z m-64 -9 c0 -5
-4 -10 -10 -10 -5 0 -10 5 -10 10 0 6 5 10 10 10 6 0 10 -4 10 -10z m-1953
-47 c-3 -10 -5 -2 -5 17 0 19 2 27 5 18 2 -10 2 -26 0 -35z m1802 -123 c11 0
11 3 1 18 -7 9 8 -5 32 -32 28 -30 50 -46 57 -42 12 8 81 -56 81 -75 0 -5 6
-9 14 -9 10 0 12 -7 8 -22 -4 -17 -2 -20 14 -16 15 4 19 -1 20 -23 1 -23 -2
-27 -16 -19 -9 5 -47 16 -86 24 -38 9 -78 20 -89 25 -47 21 -142 56 -160 58
-10 2 -22 8 -25 12 -3 5 -18 13 -33 16 -15 4 -27 12 -28 19 -3 29 4 60 16 72
8 8 11 30 7 63 -2 27 -1 63 3 78 7 28 7 27 88 -60 45 -48 88 -87 96 -87z
m-1672 138 c-3 -8 -6 -5 -6 6 -1 11 2 17 5 13 3 -3 4 -12 1 -19z m1741 2 c10
-17 10 -20 -3 -20 -8 0 -15 2 -15 4 0 2 -3 11 -6 20 -9 23 9 20 24 -4z m112
10 c0 -5 -4 -10 -10 -10 -5 0 -10 5 -10 10 0 6 5 10 10 10 6 0 10 -4 10 -10z
m1355 0 c3 -5 1 -10 -4 -10 -6 0 -11 5 -11 10 0 6 2 10 4 10 3 0 8 -4 11 -10z
m-1635 -15 c20 -24 6 -28 -15 -5 -10 11 -13 20 -8 20 6 0 16 -7 23 -15z m257
-21 c-9 -9 -28 6 -21 18 4 6 10 6 17 -1 6 -6 8 -13 4 -17z m53 16 c0 -5 -5
-10 -11 -10 -5 0 -7 5 -4 10 3 6 8 10 11 10 2 0 4 -4 4 -10z m2437 -37 c-3
-10 -5 -2 -5 17 0 19 2 27 5 18 2 -10 2 -26 0 -35z m-4070 0 c-3 -10 -5 -4 -5
12 0 17 2 24 5 18 2 -7 2 -21 0 -30z m1453 7 c0 -10 -7 -21 -16 -24 -8 -3 -12
-2 -9 3 3 6 -3 14 -12 20 -17 10 -17 10 0 11 9 0 17 5 17 11 0 5 5 7 10 4 6
-3 10 -14 10 -25z m210 10 c0 -5 -4 -10 -10 -10 -5 0 -10 5 -10 10 0 6 5 10
10 10 6 0 10 -4 10 -10z m-162 -35 c0 -19 -4 -32 -9 -29 -7 4 -7 39 0 62 4 12
9 -5 9 -33z m819 13 c-3 -8 -6 -5 -6 6 -1 11 2 17 5 13 3 -3 4 -12 1 -19z
m-659 -16 c6 -18 -15 -14 -22 4 -4 10 -1 14 6 12 6 -2 14 -10 16 -16z m-253
-30 c-3 -3 -11 0 -18 7 -9 10 -8 11 6 5 10 -3 15 -9 12 -12z m285 14 c0 -3 -4
-8 -10 -11 -5 -3 -10 -1 -10 4 0 6 5 11 10 11 6 0 10 -2 10 -4z m-487 -63 c-6
-43 -22 -79 -23 -53 0 19 19 90 25 90 2 0 1 -17 -2 -37z m432 27 c3 -5 1 -10
-4 -10 -6 0 -11 5 -11 10 0 6 2 10 4 10 3 0 8 -4 11 -10z m1802 -27 c-3 -10
-5 -4 -5 12 0 17 2 24 5 18 2 -7 2 -21 0 -30z m250 -35 c-3 -7 -5 -2 -5 12 0
14 2 19 5 13 2 -7 2 -19 0 -25z m-517 -34 c0 -7 3 -19 6 -28 3 -9 2 -16 -4
-16 -5 0 -13 12 -16 28 -4 15 -9 36 -12 47 -5 20 -5 20 10 1 9 -11 16 -25 16
-32z m724 -9 c-4 -8 -11 -15 -16 -15 -6 0 -5 6 2 15 7 8 14 15 16 15 2 0 1 -7
-2 -15z m-7 -77 c-3 -8 -6 -5 -6 6 -1 11 2 17 5 13 3 -3 4 -12 1 -19z m-4130
-20 c-3 -7 -5 -2 -5 12 0 14 2 19 5 13 2 -7 2 -19 0 -25z m90 0 c-3 -7 -5 -2
-5 12 0 14 2 19 5 13 2 -7 2 -19 0 -25z m3302 -68 c-1 -38 -8 -81 -15 -96 -8
-14 -14 -40 -14 -56 0 -17 -4 -27 -10 -23 -5 3 -10 29 -10 56 0 28 4 48 9 44
14 -8 25 33 22 83 -2 39 4 62 15 62 2 0 4 -31 3 -70z m-3462 -17 c-3 -10 -5
-4 -5 12 0 17 2 24 5 18 2 -7 2 -21 0 -30z m3433 -4 c0 -17 -4 -28 -10 -24 -5
3 -7 12 -3 20 3 8 0 15 -6 15 -6 0 -8 7 -5 15 9 23 24 7 24 -26z m110 -10 c0
-5 -4 -9 -10 -9 -5 0 -10 7 -10 16 0 8 5 12 10 9 6 -3 10 -10 10 -16z m-1
-179 c12 -69 26 -141 31 -160 5 -19 19 -86 31 -149 11 -63 25 -125 30 -138 15
-40 24 -213 10 -213 -6 0 -11 -9 -11 -19 0 -11 -6 -26 -13 -33 -26 -25 -35
-53 -58 -168 -12 -63 -33 -137 -45 -165 l-23 -50 6 65 c3 36 12 90 21 120 21
77 26 130 13 130 -5 0 -15 -17 -21 -37 -6 -21 -17 -47 -25 -57 -8 -11 -15 -30
-15 -42 0 -12 -8 -24 -18 -26 -25 -7 -72 -215 -72 -323 l0 -79 19 34 c10 19
17 38 14 42 -2 4 2 5 10 2 10 -3 18 5 26 27 14 39 14 52 1 44 -10 -6 -4 36 11
85 6 17 7 9 4 -25 l-4 -50 12 35 c7 19 25 49 41 67 16 18 40 65 55 110 14 43
35 90 47 105 l21 26 -4 -81 c-2 -45 -8 -112 -14 -149 -5 -37 -9 -132 -9 -212
0 -80 -3 -146 -7 -147 -5 0 -28 -2 -53 -4 -89 -7 -335 -25 -352 -25 -14 0 -18
8 -18 33 0 18 -6 42 -14 53 -12 16 -12 22 -2 39 7 11 16 43 20 70 19 133 77
305 103 305 8 0 19 12 25 28 9 23 12 24 16 8 4 -21 21 3 81 115 16 30 47 77
68 105 60 78 68 97 57 151 -7 38 -14 48 -33 53 -13 3 -32 17 -42 30 -16 21
-17 32 -8 70 6 25 9 64 6 88 -6 54 4 46 14 -11 4 -23 5 -6 1 38 -11 146 -1
368 19 407 5 9 6 25 3 35 -3 10 1 7 9 -7 8 -14 24 -81 36 -150z m1158 8 c-2
-29 -3 -6 -3 52 0 58 1 81 3 53 2 -29 2 -77 0 -105z m-2697 122 c0 -5 -5 -10
-11 -10 -5 0 -7 5 -4 10 3 6 8 10 11 10 2 0 4 -4 4 -10z m1452 -62 c-8 -8 -9
-4 -5 13 4 13 8 18 11 10 2 -7 -1 -18 -6 -23z m-3822 -11 c0 -18 -2 -19 -10
-7 -13 20 -13 43 0 35 6 -3 10 -16 10 -28z m4027 11 c-3 -8 -6 -5 -6 6 -1 11
2 17 5 13 3 -3 4 -12 1 -19z m-3980 -20 c-3 -7 -5 -2 -5 12 0 14 2 19 5 13 2
-7 2 -19 0 -25z m516 9 c3 -8 1 -20 -4 -28 -6 -10 -9 -7 -9 14 0 29 5 35 13
14z m3254 -44 c-3 -10 -5 -4 -5 12 0 17 2 24 5 18 2 -7 2 -21 0 -30z m-18 -55
c-1 -55 -5 -50 -11 15 -2 20 0 37 4 37 4 0 7 -24 7 -52z m878 -10 c-3 -7 -5
-2 -5 12 0 14 2 19 5 13 2 -7 2 -19 0 -25z m-1273 -20 c4 -17 2 -28 -4 -28 -5
0 -10 14 -10 32 0 36 4 35 14 -4z m1038 -15 c-3 -16 -7 -22 -10 -15 -4 13 4
42 11 42 2 0 2 -12 -1 -27z m-55 -15 c-3 -7 -5 -2 -5 12 0 14 2 19 5 13 2 -7
2 -19 0 -25z m284 5 c-12 -20 -14 -14 -5 12 4 9 9 14 11 11 3 -2 0 -13 -6 -23z
m-4160 -20 c-12 -20 -14 -14 -5 12 4 9 9 14 11 11 3 -2 0 -13 -6 -23z m3536
-5 c-3 -7 -5 -2 -5 12 0 14 2 19 5 13 2 -7 2 -19 0 -25z m440 10 c-3 -8 -6 -5
-6 6 -1 11 2 17 5 13 3 -3 4 -12 1 -19z m-3340 -60 c-2 -13 -4 -3 -4 22 0 25
2 35 4 23 2 -13 2 -33 0 -45z m3210 -10 c-2 -13 -4 -5 -4 17 -1 22 1 32 4 23
2 -10 2 -28 0 -40z m-304 27 c-3 -9 -8 -14 -10 -11 -3 3 -2 9 2 15 9 16 15 13
8 -4z m1064 -47 c-2 -13 -4 -3 -4 22 0 25 2 35 4 23 2 -13 2 -33 0 -45z m-150
20 c-3 -8 -6 -5 -6 6 -1 11 2 17 5 13 3 -3 4 -12 1 -19z m-910 -45 c-3 -10 -5
-4 -5 12 0 17 2 24 5 18 2 -7 2 -21 0 -30z m540 -20 c-3 -10 -5 -4 -5 12 0 17
2 24 5 18 2 -7 2 -21 0 -30z m-770 -5 c-3 -8 -6 -5 -6 6 -1 11 2 17 5 13 3 -3
4 -12 1 -19z m-3730 -10 c-3 -8 -6 -5 -6 6 -1 11 2 17 5 13 3 -3 4 -12 1 -19z
m4400 -15 c-3 -10 -5 -4 -5 12 0 17 2 24 5 18 2 -7 2 -21 0 -30z m-55 -18 c3
-13 1 -22 -3 -19 -9 5 -13 44 -5 44 2 0 6 -11 8 -25z m613 -15 c-4 -17 -9 -29
-12 -26 -3 2 -2 19 2 36 4 17 9 29 12 26 3 -2 2 -19 -2 -36z m-3928 -67 c-2
-21 -4 -6 -4 32 0 39 2 55 4 38 2 -18 2 -50 0 -70z m-1457 66 c0 -11 -4 -18
-10 -14 -5 3 -7 12 -3 20 7 21 13 19 13 -6z m4567 -26 c-3 -10 -5 -4 -5 12 0
17 2 24 5 18 2 -7 2 -21 0 -30z m610 -15 c-2 -13 -4 -5 -4 17 -1 22 1 32 4 23
2 -10 2 -28 0 -40z m-4470 -10 c-3 -8 -6 -5 -6 6 -1 11 2 17 5 13 3 -3 4 -12
1 -19z m3900 -20 c-3 -7 -5 -2 -5 12 0 14 2 19 5 13 2 -7 2 -19 0 -25z m230
-15 c-3 -10 -5 -2 -5 17 0 19 2 27 5 18 2 -10 2 -26 0 -35z m-967 -5 c0 -13 2
-41 5 -63 l5 -40 -14 40 c-17 48 -20 85 -6 85 6 0 10 -10 10 -22z m-2423 -75
c-3 -10 -5 -2 -5 17 0 19 2 27 5 18 2 -10 2 -26 0 -35z m2387 10 c3 -16 8 -50
10 -78 l6 -50 -15 50 c-8 28 -15 60 -15 72 0 12 -6 24 -12 26 -8 4 -7 6 4 6
10 1 18 -9 22 -26z m290 -36 c8 -18 16 -59 17 -92 2 -83 1 -95 -12 -95 -8 0
-9 25 -4 86 5 62 4 84 -4 80 -6 -4 -11 -34 -11 -66 0 -33 -5 -83 -12 -112
l-11 -53 -8 34 c-4 18 -2 47 3 63 7 20 7 32 -1 42 -6 7 -9 39 -7 73 6 92 21
104 50 40z m1033 11 c-3 -8 -6 -5 -6 6 -1 11 2 17 5 13 3 -3 4 -12 1 -19z
m-170 -70 c-2 -18 -4 -6 -4 27 0 33 2 48 4 33 2 -15 2 -42 0 -60z m-4840 30
c-3 -7 -5 -2 -5 12 0 14 2 19 5 13 2 -7 2 -19 0 -25z m4450 -10 c-3 -8 -6 -5
-6 6 -1 11 2 17 5 13 3 -3 4 -12 1 -19z m-396 -36 c10 -25 -4 -62 -22 -62 -7
0 -9 13 -4 36 4 24 3 34 -4 29 -6 -3 -11 -13 -11 -22 0 -9 -3 -14 -6 -10 -4 3
-3 22 0 42 6 32 9 35 23 24 8 -7 19 -24 24 -37z m189 29 c0 -11 -4 -23 -10
-26 -6 -4 -10 5 -10 19 0 14 5 26 10 26 6 0 10 -9 10 -19z m517 -93 c-2 -24
-4 -7 -4 37 0 44 2 63 4 43 2 -21 2 -57 0 -80z m-908 24 c-1 -38 -2 -42 -9
-22 -12 37 -12 82 0 75 6 -3 10 -27 9 -53z m52 -82 c-11 -25 -11 -22 0 105 2
17 4 5 6 -25 2 -31 -1 -67 -6 -80z m-152 38 c7 -29 11 -64 10 -77 -2 -13 -11
12 -20 57 -17 89 -10 104 10 20z m1308 -10 c-3 -7 -5 -2 -5 12 0 14 2 19 5 13
2 -7 2 -19 0 -25z m-132 13 c3 -5 1 -12 -5 -16 -5 -3 -10 1 -10 9 0 18 6 21
15 7z m-1058 -23 c-3 -8 -6 -5 -6 6 -1 11 2 17 5 13 3 -3 4 -12 1 -19z m1360
-60 c-2 -18 -4 -6 -4 27 0 33 2 48 4 33 2 -15 2 -42 0 -60z m-3947 -48 l-11
-25 6 25 c2 14 5 34 6 45 2 19 2 19 6 0 2 -12 -1 -32 -7 -45z m3200 27 c0 -5
-4 -5 -10 -2 -5 3 -10 14 -10 23 0 15 2 15 10 2 5 -8 10 -19 10 -23z m-5053
-29 c-2 -13 -4 -5 -4 17 -1 22 1 32 4 23 2 -10 2 -28 0 -40z m4493 -9 c-13
-23 -35 -26 -26 -3 3 9 9 28 13 42 l6 26 9 -23 c4 -13 4 -30 -2 -42z m-150 11
c0 -5 -4 -10 -10 -10 -5 0 -10 5 -10 10 0 6 5 10 10 10 6 0 10 -4 10 -10z
m587 -52 c-2 -13 -4 -5 -4 17 -1 22 1 32 4 23 2 -10 2 -28 0 -40z m420 5 c-3
-10 -5 -4 -5 12 0 17 2 24 5 18 2 -7 2 -21 0 -30z m40 -115 c-2 -29 -3 -6 -3
52 0 58 1 81 3 53 2 -29 2 -77 0 -105z m53 117 c0 -14 -4 -25 -10 -25 -5 0
-10 11 -10 25 0 14 5 25 10 25 6 0 10 -11 10 -25z m357 3 c-3 -8 -6 -5 -6 6
-1 11 2 17 5 13 3 -3 4 -12 1 -19z m-586 -55 c2 -29 0 -56 -4 -59 -4 -4 -7 21
-7 56 0 75 7 77 11 3z m-817 21 c3 -8 2 -12 -4 -9 -6 3 -10 10 -10 16 0 14 7
11 14 -7z m903 -16 c-3 -8 -6 -5 -6 6 -1 11 2 17 5 13 3 -3 4 -12 1 -19z
m-907 -28 c0 -5 -4 -10 -10 -10 -5 0 -10 5 -10 10 0 6 5 10 10 10 6 0 10 -4
10 -10z m-3623 -92 c-2 -18 -4 -4 -4 32 0 36 2 50 4 33 2 -18 2 -48 0 -65z
m4670 30 c-2 -13 -4 -5 -4 17 -1 22 1 32 4 23 2 -10 2 -28 0 -40z m60 -40 c-2
-18 -4 -6 -4 27 0 33 2 48 4 33 2 -15 2 -42 0 -60z m-1617 53 c-15 -9 -157
-26 -285 -35 -123 -9 -31 13 116 28 173 17 188 18 169 7z m180 -1 c-8 -5 -32
-10 -52 -10 -22 0 -38 -5 -38 -11 0 -9 22 -10 76 -6 62 5 75 3 70 -8 -3 -8 -1
-17 4 -20 6 -4 10 3 10 14 0 11 4 23 10 26 6 3 7 -1 4 -9 -3 -9 -1 -16 4 -16
6 0 13 8 15 18 3 9 5 0 6 -20 1 -24 -4 -38 -11 -38 -9 0 -9 -3 0 -12 31 -31
-10 -50 -126 -57 -7 -1 -11 -5 -7 -10 3 -5 0 -13 -6 -17 -8 -4 -9 -3 -5 4 12
19 -7 14 -55 -16 -24 -15 -64 -36 -88 -45 -42 -17 -46 -17 -175 9 -72 15 -160
26 -196 25 -64 -1 -157 23 -172 44 -4 5 -8 30 -8 55 l0 45 83 0 c45 -1 141 3
212 8 72 4 155 9 185 11 122 4 164 8 153 13 -7 2 -13 8 -13 13 0 12 26 18 85
19 36 0 46 -2 35 -9z m1147 -62 c-2 -13 -4 -3 -4 22 0 25 2 35 4 23 2 -13 2
-33 0 -45z m90 25 c-3 -10 -5 -4 -5 12 0 17 2 24 5 18 2 -7 2 -21 0 -30z
m-727 -68 c-7 -47 -15 -84 -18 -81 -3 3 1 44 8 91 7 47 15 83 18 81 2 -3 -1
-44 -8 -91z m967 63 c-3 -8 -6 -5 -6 6 -1 11 2 17 5 13 3 -3 4 -12 1 -19z
m100 -25 c-3 -10 -5 -2 -5 17 0 19 2 27 5 18 2 -10 2 -26 0 -35z m-5210 15
c-3 -8 -6 -5 -6 6 -1 11 2 17 5 13 3 -3 4 -12 1 -19z m1400 -15 c-3 -10 -5 -4
-5 12 0 17 2 24 5 18 2 -7 2 -21 0 -30z m-1810 5 c-3 -8 -6 -5 -6 6 -1 11 2
17 5 13 3 -3 4 -12 1 -19z m423 -50 c0 -18 -2 -20 -9 -8 -6 8 -7 18 -5 22 9
14 14 9 14 -14z m4347 -25 c-3 -10 -5 -4 -5 12 0 17 2 24 5 18 2 -7 2 -21 0
-30z m-4650 -50 c-2 -16 -4 -3 -4 27 0 30 2 43 4 28 2 -16 2 -40 0 -55z m70
10 c-2 -16 -4 -5 -4 22 0 28 2 40 4 28 2 -13 2 -35 0 -50z m5660 -30 c-2 -16
-4 -3 -4 27 0 30 2 43 4 28 2 -16 2 -40 0 -55z m-1707 58 c0 -12 -39 -25 -48
-16 -7 7 17 25 36 25 6 0 12 -4 12 -9z m592 -33 c-6 -6 -7 0 -4 19 5 21 7 23
10 9 2 -10 0 -22 -6 -28z m-4705 -15 c-3 -10 -5 -4 -5 12 0 17 2 24 5 18 2 -7
2 -21 0 -30z m310 -60 c-2 -21 -4 -6 -4 32 0 39 2 55 4 38 2 -18 2 -50 0 -70z
m-280 40 c-3 -10 -5 -2 -5 17 0 19 2 27 5 18 2 -10 2 -26 0 -35z m420 -30 c-2
-16 -4 -3 -4 27 0 30 2 43 4 28 2 -16 2 -40 0 -55z m3675 0 c0 -38 0 -75 0
-83 -9 -79 -21 -162 -24 -165 -17 -17 -544 2 -561 20 -6 7 -19 10 -29 7 -10
-2 -18 -3 -18 -1 0 2 30 35 66 74 36 38 61 71 55 73 -5 2 -40 -28 -77 -67 -36
-39 -70 -68 -75 -66 -4 3 -13 -4 -19 -15 -6 -11 -16 -20 -22 -20 -6 0 -4 8 6
19 9 10 16 22 14 27 -4 14 31 80 53 100 29 26 23 1 -10 -40 -17 -21 -27 -44
-24 -52 4 -11 9 -9 22 9 17 21 61 103 61 112 0 3 -13 3 -29 1 -21 -2 -28 0
-24 10 3 8 0 14 -5 14 -6 0 -27 -27 -47 -60 -34 -56 -55 -75 -55 -48 0 20 -41
-36 -47 -64 -7 -37 -19 -27 -21 16 -1 19 -8 81 -17 137 -8 56 -13 104 -11 107
12 12 82 -16 92 -36 9 -19 13 -20 17 -8 9 24 36 20 30 -4 -3 -11 0 -20 6 -20
6 0 11 7 11 16 0 14 6 15 38 9 20 -4 49 -8 64 -9 14 0 24 -4 22 -8 -6 -9 59
-27 124 -35 41 -4 52 -3 52 8 0 10 12 14 38 13 39 0 44 -14 16 -45 -23 -26
-16 -31 10 -7 14 13 29 35 35 49 5 15 20 29 33 32 13 3 61 19 108 36 47 16 97
30 113 31 27 0 27 -1 29 -67z m1175 35 c-3 -7 -5 -2 -5 12 0 14 2 19 5 13 2
-7 2 -19 0 -25z m462 -60 c1 -20 -3 -40 -9 -43 -6 -4 -10 19 -9 62 1 49 3 61
9 43 4 -14 8 -42 9 -62z m-1256 52 c-3 -11 -7 -20 -9 -20 -2 0 -4 9 -4 20 0
11 4 20 9 20 5 0 7 -9 4 -20z m936 -35 c0 -26 -2 -27 -9 -10 -5 11 -9 31 -9
45 -1 20 1 22 9 10 5 -8 9 -28 9 -45z m-1841 24 c64 -11 121 -24 125 -28 9 -9
-192 24 -233 39 -40 14 -16 11 108 -11z m1099 -11 c-3 -7 -5 -2 -5 12 0 14 2
19 5 13 2 -7 2 -19 0 -25z m-4700 -25 c-3 -10 -5 -2 -5 17 0 19 2 27 5 18 2
-10 2 -26 0 -35z m850 0 c-3 -10 -5 -4 -5 12 0 17 2 24 5 18 2 -7 2 -21 0 -30z
m4160 -15 c-2 -13 -4 -5 -4 17 -1 22 1 32 4 23 2 -10 2 -28 0 -40z m295 30
c-7 -7 -12 -8 -12 -2 0 14 12 26 19 19 2 -3 -1 -11 -7 -17z m-2435 -70 c-2
-13 -4 -3 -4 22 0 25 2 35 4 23 2 -13 2 -33 0 -45z m783 52 c0 -12 -8 -12 -35
0 -18 8 -17 9 8 9 15 1 27 -3 27 -9z m1930 -42 c0 -10 -4 -18 -10 -18 -5 0
-10 15 -10 33 0 24 3 28 10 17 5 -8 10 -23 10 -32z m-300 0 c0 -5 -4 -8 -10
-8 -5 0 -10 10 -10 23 0 18 2 19 10 7 5 -8 10 -18 10 -22z m-4500 -19 c0 -5
-4 -9 -10 -9 -5 0 -10 7 -10 16 0 8 5 12 10 9 6 -3 10 -10 10 -16z m4267 -31
c-2 -13 -4 -5 -4 17 -1 22 1 32 4 23 2 -10 2 -28 0 -40z m150 20 c-3 -8 -6 -5
-6 6 -1 11 2 17 5 13 3 -3 4 -12 1 -19z m-5170 -65 c-2 -16 -4 -3 -4 27 0 30
2 43 4 28 2 -16 2 -40 0 -55z m2813 55 c0 -13 -8 -33 -18 -45 l-17 -23 0 24
c0 13 3 22 8 19 4 -2 7 4 7 15 0 17 8 32 17 32 2 0 3 -10 3 -22z m-2840 -8 c0
-5 -4 -10 -10 -10 -5 0 -10 5 -10 10 0 6 5 10 10 10 6 0 10 -4 10 -10z m1863
-92 c3 -54 1 -78 -7 -78 -11 0 -14 52 -7 140 4 50 9 27 14 -62z m-1976 30 c-2
-13 -4 -5 -4 17 -1 22 1 32 4 23 2 -10 2 -28 0 -40z m5720 6 c-3 -3 -12 -4
-19 -1 -8 3 -5 6 6 6 11 1 17 -2 13 -5z m-5622 -13 c3 -5 1 -12 -5 -16 -5 -3
-10 1 -10 9 0 18 6 21 15 7z m365 -12 c0 -5 -12 -9 -27 -9 -26 0 -26 1 -8 14
20 14 35 12 35 -5z m272 -11 c-7 -7 -12 -8 -12 -2 0 14 12 26 19 19 2 -3 -1
-11 -7 -17z m135 0 c-3 -8 -6 -5 -6 6 -1 11 2 17 5 13 3 -3 4 -12 1 -19z
m4363 12 c0 -5 -4 -10 -9 -10 -6 0 -13 5 -16 10 -3 6 1 10 9 10 9 0 16 -4 16
-10z m50 0 c0 -5 -4 -10 -10 -10 -5 0 -10 5 -10 10 0 6 5 10 10 10 6 0 10 -4
10 -10z m-5225 -10 c-3 -5 -11 -10 -16 -10 -6 0 -7 5 -4 10 3 6 11 10 16 10 6
0 7 -4 4 -10z m4201 -25 c-4 -14 -13 -25 -21 -25 -12 0 -11 5 3 29 19 34 27
33 18 -4z m-757 16 c17 -11 8 -27 -19 -34 -23 -6 -34 7 -26 28 6 17 24 19 45
6z m818 -26 c-4 -13 -47 -20 -47 -7 0 14 11 21 31 19 11 -1 18 -6 16 -12z
m-3487 -17 c0 -4 -9 -8 -21 -8 -11 0 -18 4 -15 8 3 5 12 9 21 9 8 0 15 -4 15
-9z m95 2 c18 -8 17 -9 -7 -9 -16 -1 -28 4 -28 9 0 12 8 12 35 0z m3472 -36
c-3 -3 -12 -4 -19 -1 -8 3 -5 6 6 6 11 1 17 -2 13 -5z m-617 -19 c-10 -12 -10
-15 0 -15 8 0 10 -3 7 -6 -9 -9 -38 16 -31 27 3 5 12 9 21 9 13 0 13 -3 3 -15z
m350 -1 c0 -2 -26 -3 -57 -3 -49 1 -53 3 -23 8 33 6 80 3 80 -5z m-1670 -13
c0 -9 -137 -21 -154 -12 -17 8 22 16 89 19 38 2 65 -1 65 -7z m799 -7 c2 -2
-22 -4 -55 -3 -40 0 -53 3 -39 8 18 8 84 4 94 -5z m459 9 c-10 -2 -26 -2 -35
0 -10 3 -2 5 17 5 19 0 27 -2 18 -5z m229 1 c-3 -3 -12 -4 -19 -1 -8 3 -5 6 6
6 11 1 17 -2 13 -5z m-1787 -14 c0 -5 -4 -10 -10 -10 -5 0 -10 5 -10 10 0 6 5
10 10 10 6 0 10 -4 10 -10z m595 0 c4 -6 -19 -10 -62 -10 -48 0 -63 3 -53 10
20 13 107 13 115 0z m142 4 c-3 -3 -12 -4 -19 -1 -8 3 -5 6 6 6 11 1 17 -2 13
-5z m-452 -44 c-3 -5 -12 -10 -18 -10 -7 0 -6 4 3 10 19 12 23 12 15 0z"/>
<path d="M3165 2648 c-22 -5 -51 -11 -65 -12 -37 -4 -70 -16 -70 -26 0 -19 20
-19 61 0 24 11 53 20 64 20 11 1 34 7 50 15 35 15 18 17 -40 3z"/>
<path d="M3983 2375 c-10 -27 6 -30 30 -7 l21 22 -22 0 c-12 0 -25 -7 -29 -15z"/>
<path d="M4050 2199 c0 -5 5 -7 10 -4 6 3 10 8 10 11 0 2 -4 4 -10 4 -5 0 -10
-5 -10 -11z"/>
<path d="M2615 2158 c-16 -6 -39 -19 -51 -29 -11 -11 -26 -19 -32 -19 -7 0
-12 -7 -12 -16 0 -12 5 -14 18 -9 9 4 37 10 62 12 48 5 200 40 209 48 2 3 -1
11 -7 17 -8 8 -21 9 -47 1 -20 -6 -35 -7 -35 -2 0 12 -67 10 -105 -3z"/>
<path d="M4075 2097 c3 -30 1 -38 -10 -33 -11 4 -13 -5 -9 -40 2 -24 -2 -62
-10 -84 -12 -36 -12 -40 3 -40 14 0 16 -20 19 -158 l4 -158 -129 -16 c-118
-16 -402 -32 -551 -32 -39 0 -61 -4 -59 -11 2 -5 28 -10 58 -9 49 0 105 3 409
20 52 3 113 10 135 14 22 5 59 10 82 10 35 0 42 -3 46 -22 l4 -23 8 23 c7 20
13 22 89 22 88 0 129 7 121 21 -3 4 -16 5 -28 0 -18 -7 -74 -7 -159 -2 -16 1
-17 15 -14 168 2 92 1 177 -3 188 -4 11 -5 31 -1 45 4 14 3 33 -2 43 -6 11 -6
23 1 30 6 8 6 25 0 47 l-9 35 5 -38z"/>
<path d="M4365 2079 c-4 -11 -4 -23 0 -27 7 -7 25 17 25 36 0 20 -18 14 -25
-9z"/>
<path d="M4680 2095 c0 -5 5 -17 10 -25 5 -8 10 -10 10 -5 0 6 -5 17 -10 25
-5 8 -10 11 -10 5z"/>
<path d="M3946 2074 c-5 -12 -2 -15 10 -10 8 3 18 6 20 6 2 0 4 5 4 10 0 16
-27 11 -34 -6z"/>
<path d="M3985 2069 c-4 -6 -5 -13 -2 -16 7 -7 27 6 27 18 0 12 -17 12 -25 -2z"/>
<path d="M3796 2041 c-4 -5 -2 -12 3 -15 5 -4 12 -2 15 3 4 5 2 12 -3 15 -5 4
-12 2 -15 -3z"/>
<path d="M4410 2023 c0 -10 -3 -29 -6 -43 -4 -18 -1 -16 10 9 19 39 20 51 6
51 -5 0 -10 -8 -10 -17z"/>
<path d="M4631 1998 c0 -27 4 -48 9 -48 11 0 11 21 0 65 -7 27 -8 25 -9 -17z"/>
<path d="M3851 1964 c0 -11 3 -14 6 -6 3 7 2 16 -1 19 -3 4 -6 -2 -5 -13z"/>
<path d="M3900 1932 c0 -15 -4 -32 -9 -37 -13 -15 -31 -75 -22 -75 5 0 12 15
16 33 5 22 9 26 12 15 9 -35 18 -17 20 37 1 31 -2 55 -7 55 -6 0 -10 -13 -10
-28z"/>
<path d="M4397 1924 c-11 -11 -8 -46 3 -39 6 3 10 1 10 -4 0 -6 -4 -11 -9 -11
-4 0 -6 -11 -3 -25 6 -36 22 -31 21 8 -1 43 -12 80 -22 71z"/>
<path d="M3826 1904 c-3 -8 -2 -12 3 -9 6 3 12 -9 14 -27 3 -29 4 -28 5 10 2
42 -10 56 -22 26z"/>
<path d="M4642 1890 c0 -14 2 -19 5 -12 2 6 2 18 0 25 -3 6 -5 1 -5 -13z"/>
<path d="M1725 1880 c-4 -12 -5 -24 -2 -27 3 -2 8 5 12 17 4 12 5 24 2 27 -3
2 -8 -5 -12 -17z"/>
<path d="M3932 1808 c-11 -29 -25 -72 -32 -95 -7 -24 -17 -43 -22 -43 -13 0
-9 28 5 33 7 3 6 6 -5 6 -9 1 -20 -3 -23 -9 -8 -14 -68 0 -83 19 -12 15 -14
14 -28 -3 -8 -11 -14 -23 -14 -27 0 -10 23 -26 44 -30 11 -2 21 -10 24 -17 3
-9 -3 -11 -23 -6 -23 6 -26 4 -23 -12 2 -11 17 -21 38 -27 19 -5 41 -14 48
-20 10 -8 14 -5 19 12 3 14 11 20 20 17 14 -6 53 13 53 26 0 5 -7 8 -15 8 -8
0 -15 5 -15 10 0 6 4 10 8 10 15 0 32 50 26 75 -8 32 15 103 27 84 6 -10 9 -6
9 14 0 43 -16 32 -38 -25z"/>
<path d="M2008 1783 c7 -65 12 -67 12 -5 0 29 -4 52 -9 52 -5 0 -6 -21 -3 -47z"/>
<path d="M3892 1800 c0 -14 2 -19 5 -12 2 6 2 18 0 25 -3 6 -5 1 -5 -13z"/>
<path d="M3850 1794 c0 -8 -4 -12 -10 -9 -5 3 -10 -1 -10 -9 0 -22 17 -20 30
3 13 25 13 31 0 31 -5 0 -10 -7 -10 -16z"/>
<path d="M4412 1790 c0 -14 2 -19 5 -12 2 6 2 18 0 25 -3 6 -5 1 -5 -13z"/>
<path d="M1974 1688 c4 -62 12 -117 18 -123 7 -7 9 11 4 60 -3 39 -6 94 -6
123 0 32 -4 52 -11 52 -9 0 -10 -31 -5 -112z"/>
<path d="M3956 1784 c-9 -24 -7 -52 4 -59 6 -4 9 10 8 34 -1 45 -3 48 -12 25z"/>
<path d="M2061 1764 c0 -11 3 -14 6 -6 3 7 2 16 -1 19 -3 4 -6 -2 -5 -13z"/>
<path d="M4612 1720 c0 -14 2 -19 5 -12 2 6 2 18 0 25 -3 6 -5 1 -5 -13z"/>
<path d="M4390 1720 c0 -5 5 -10 11 -10 5 0 7 5 4 10 -3 6 -8 10 -11 10 -2 0
-4 -4 -4 -10z"/>
<path d="M4673 1670 c0 -25 2 -35 4 -22 2 12 2 32 0 45 -2 12 -4 2 -4 -23z"/>
<path d="M3960 1676 c0 -9 5 -16 10 -16 6 0 10 4 10 9 0 6 -4 13 -10 16 -5 3
-10 -1 -10 -9z"/>
<path d="M4661 1608 c0 -7 4 -22 9 -33 7 -17 9 -15 9 13 1 17 -3 32 -9 32 -5
0 -10 -6 -9 -12z"/>
<path d="M4380 1531 c0 -12 5 -21 10 -21 6 0 10 6 10 14 0 8 -4 18 -10 21 -5
3 -10 -3 -10 -14z"/>
<path d="M2955 1528 c-130 -15 -145 -18 -145 -33 0 -19 9 -19 52 -1 19 8 85
18 146 22 62 4 112 11 112 15 0 11 -55 10 -165 -3z"/>
<path d="M1929 1522 c-2 -8 -1 -41 3 -75 4 -34 10 -117 14 -184 6 -112 13
-139 28 -114 3 5 1 46 -5 92 -6 46 -17 131 -23 189 -6 58 -14 99 -17 92z"/>
<path d="M1997 1507 c-11 -29 -9 -53 4 -40 6 6 9 21 7 34 -3 21 -4 22 -11 6z"/>
<path d="M2041 1494 c0 -11 3 -14 6 -6 3 7 2 16 -1 19 -3 4 -6 -2 -5 -13z"/>
<path d="M2550 1490 l-85 -6 108 -2 c70 -1 106 2 102 8 -3 6 -14 9 -23 8 -9
-1 -55 -5 -102 -8z"/>
<path d="M2410 1475 c-14 -8 -19 -14 -10 -14 8 0 26 6 40 14 14 8 19 14 10 14
-8 0 -26 -6 -40 -14z"/>
<path d="M4636 1454 c-10 -26 -7 -242 3 -249 6 -3 11 47 13 126 3 123 -2 160
-16 123z"/>
<path d="M1561 1425 c0 -11 4 -29 9 -40 l9 -20 0 20 c0 11 -4 29 -9 40 l-9 20
0 -20z"/>
<path d="M2011 1394 c0 -11 3 -14 6 -6 3 7 2 16 -1 19 -3 4 -6 -2 -5 -13z"/>
<path d="M1551 1329 c-2 -58 11 -130 22 -126 6 2 11 7 12 13 1 5 -1 5 -4 -1
-3 -5 -11 26 -17 70 -7 48 -12 66 -13 44z"/>
<path d="M1581 1345 c0 -25 27 -86 28 -64 1 9 -6 32 -14 50 -10 23 -14 28 -14
14z"/>
<path d="M1481 1333 c-7 -8 -10 -17 -7 -20 9 -9 29 13 25 25 -2 6 -10 3 -18
-5z"/>
<path d="M4100 1310 c-17 -22 -28 -40 -23 -40 11 0 66 70 60 76 -2 3 -19 -13
-37 -36z"/>
<path d="M4130 1250 c-23 -39 -39 -74 -37 -77 3 -3 13 10 23 29 9 18 20 35 24
38 12 8 42 71 37 77 -3 2 -24 -28 -47 -67z"/>
<path d="M3936 1269 c-15 -22 -26 -43 -23 -45 3 -3 11 5 18 18 6 12 15 25 18
28 16 13 32 40 25 40 -5 0 -22 -19 -38 -41z"/>
<path d="M4000 1288 c-12 -22 -12 -22 6 -6 10 10 15 20 12 24 -4 3 -12 -5 -18
-18z"/>
<path d="M1460 1286 c0 -9 -4 -15 -9 -12 -5 3 -12 -40 -16 -97 -3 -56 -16
-149 -27 -207 -11 -58 -21 -109 -21 -115 -1 -5 3 -12 8 -15 6 -3 14 24 18 65
5 38 13 72 18 75 4 3 11 48 14 100 4 52 11 122 16 154 4 33 6 62 4 65 -3 2 -5
-3 -5 -13z"/>
<path d="M1478 1268 c-2 -13 -1 -39 3 -58 5 -29 7 -30 8 -9 0 15 4 41 7 58 4
18 2 31 -4 31 -5 0 -11 -10 -14 -22z"/>
<path d="M4198 1218 c-13 -18 -23 -44 -23 -56 -1 -22 0 -22 12 -6 7 9 10 21 7
26 -3 5 6 18 20 29 26 21 34 39 17 39 -5 0 -20 -15 -33 -32z"/>
<path d="M4031 1202 c-17 -31 -13 -40 5 -14 9 13 14 26 11 29 -3 2 -10 -4 -16
-15z"/>
<path d="M2460 1179 c0 -5 5 -7 10 -4 6 3 10 8 10 11 0 2 -4 4 -10 4 -5 0 -10
-5 -10 -11z"/>
<path d="M2437 1143 c-4 -3 -7 -13 -7 -22 1 -13 3 -13 11 2 11 19 8 33 -4 20z"/>
<path d="M4051 1114 c-12 -20 -20 -41 -19 -46 2 -5 13 11 26 36 26 55 22 60
-7 10z"/>
<path d="M3987 1133 c-4 -3 -7 -11 -7 -17 0 -6 5 -5 12 2 6 6 9 14 7 17 -3 3
-9 2 -12 -2z"/>
<path d="M4190 1108 c-11 -18 -27 -44 -37 -57 -25 -33 -75 -123 -65 -117 5 3
30 38 57 78 26 40 56 85 66 101 11 15 15 27 9 27 -6 0 -19 -15 -30 -32z"/>
<path d="M3936 1104 c-9 -24 -2 -26 12 -4 7 11 8 20 3 20 -5 0 -12 -7 -15 -16z"/>
<path d="M4229 1047 c-30 -47 -79 -143 -79 -153 0 -8 30 32 46 61 6 11 26 46
43 78 38 66 29 78 -10 14z"/>
<path d="M3950 1059 c-7 -11 -10 -23 -7 -25 2 -2 9 7 15 21 14 30 7 33 -8 4z"/>
<path d="M3902 1050 c-7 -11 -9 -20 -4 -20 4 0 13 9 20 20 7 11 9 20 4 20 -4
0 -13 -9 -20 -20z"/>
<path d="M1392 1040 c0 -14 2 -19 5 -12 2 6 2 18 0 25 -3 6 -5 1 -5 -13z"/>
<path d="M2620 1040 c-6 -12 -9 -24 -7 -27 3 -2 11 5 17 17 6 12 9 24 7 27 -3
2 -11 -5 -17 -17z"/>
<path d="M4087 1018 c-13 -18 -27 -40 -32 -48 -9 -19 42 39 55 63 18 29 3 19
-23 -15z"/>
<path d="M4004 1028 c-4 -7 -15 -24 -23 -38 -10 -15 -11 -21 -3 -16 13 7 46
66 38 66 -3 0 -8 -6 -12 -12z"/>
<path d="M3912 1000 c-18 -29 -15 -38 4 -12 9 13 14 25 12 27 -2 2 -9 -5 -16
-15z"/>
<path d="M4257 987 c-3 -8 1 -14 9 -14 7 0 15 6 18 14 3 7 -1 13 -8 13 -8 0
-16 -6 -19 -13z"/>
<path d="M1870 974 c0 -53 37 -194 51 -194 6 0 6 7 0 18 -5 9 -15 51 -21 92
-6 41 -15 79 -21 85 -6 5 -9 5 -9 -1z"/>
<path d="M2657 973 c-12 -12 -7 -22 8 -17 8 4 15 10 15 15 0 11 -14 12 -23 2z"/>
<path d="M4241 920 c-12 -22 -20 -40 -18 -40 7 0 48 72 44 76 -2 2 -14 -14
-26 -36z"/>
<path d="M3945 929 c-4 -6 -5 -12 -2 -15 2 -3 7 2 10 11 7 17 1 20 -8 4z"/>
<path d="M4046 886 c-14 -19 -26 -39 -26 -45 0 -6 -5 -11 -12 -11 -6 0 -8 -3
-5 -6 3 -4 -5 -26 -18 -49 -14 -23 -25 -45 -25 -50 0 -12 39 41 53 72 7 15 25
47 41 71 35 52 29 66 -8 18z"/>
<path d="M4290 899 c-11 -19 -10 -20 9 -9 12 6 21 15 21 20 0 18 -19 11 -30
-11z"/>
<path d="M1656 888 c-3 -13 -6 -45 -6 -72 0 -43 2 -48 20 -43 17 4 20 0 20
-26 0 -26 -2 -29 -11 -17 -8 11 -9 5 -5 -25 3 -22 7 -49 7 -60 1 -11 5 0 9 25
6 39 7 34 8 -36 2 -64 5 -81 17 -81 18 0 18 27 1 157 -7 52 -11 100 -9 107 3
7 -2 22 -11 35 -9 12 -16 30 -16 40 0 26 -17 22 -24 -4z"/>
<path d="M3853 898 c-19 -25 -35 -61 -24 -54 6 4 18 20 26 37 16 30 15 38 -2
17z"/>
<path d="M1426 884 c-8 -21 -8 -89 0 -81 6 6 14 97 8 97 -1 0 -5 -7 -8 -16z"/>
<path d="M3912 879 c-19 -30 -8 -34 12 -4 9 14 13 25 9 25 -5 0 -14 -9 -21
-21z"/>
<path d="M3957 824 c-49 -68 -56 -84 -33 -84 20 0 40 27 24 32 -8 3 0 22 25
57 21 29 37 55 35 57 -2 2 -25 -26 -51 -62z"/>
<path d="M4126 864 c-9 -24 -7 -28 9 -14 17 14 20 30 6 30 -5 0 -12 -7 -15
-16z"/>
<path d="M4245 813 c-31 -47 -34 -79 -6 -63 11 5 28 24 38 40 10 17 23 28 30
26 7 -3 13 1 13 9 0 25 -15 17 -49 -26 -36 -45 -54 -46 -24 -2 28 39 35 53 29
53 -3 0 -17 -17 -31 -37z"/>
<path d="M4134 808 c-31 -36 -47 -58 -41 -58 3 0 20 18 37 40 34 43 36 55 4
18z"/>
<path d="M4088 795 c-10 -13 -18 -32 -18 -41 0 -10 9 -1 20 21 23 45 22 53 -2
20z"/>
<path d="M4180 808 c0 -7 -9 -24 -20 -38 -21 -27 -26 -45 -10 -35 16 10 52 85
40 85 -5 0 -10 -6 -10 -12z"/>
<path d="M3841 774 c-22 -27 -27 -44 -13 -44 11 0 25 12 47 40 11 14 13 19 5
13 -20 -18 -35 -16 -20 2 7 8 10 15 7 15 -3 0 -15 -12 -26 -26z"/>
<path d="M1457 783 c-12 -12 -7 -33 7 -33 8 0 13 7 12 15 -3 19 -11 27 -19 18z"/>
<path d="M1735 694 c4 -54 10 -117 15 -139 8 -39 8 -39 11 20 2 55 3 56 6 15
2 -25 7 -54 12 -65 5 -11 12 -28 15 -37 6 -19 26 -25 26 -8 0 6 -4 10 -9 10
-9 0 -31 129 -31 186 0 22 -6 37 -15 40 -8 4 -15 19 -15 34 0 16 -5 32 -11 36
-9 5 -10 -19 -4 -92z"/>
<path d="M1871 780 c0 -8 6 -26 14 -40 13 -23 14 -23 15 -4 0 11 -7 29 -15 40
-11 14 -14 15 -14 4z"/>
<path d="M4040 775 c-7 -9 -10 -18 -7 -21 3 -3 10 4 17 15 13 25 8 27 -10 6z"/>
<path d="M2310 769 c0 -5 5 -7 10 -4 6 3 10 8 10 11 0 2 -4 4 -10 4 -5 0 -10
-5 -10 -11z"/>
<path d="M3766 771 c-4 -7 -5 -15 -2 -18 9 -9 19 4 14 18 -4 11 -6 11 -12 0z"/>
<path d="M2486 755 c-9 -26 -7 -32 5 -12 6 10 9 21 6 23 -2 3 -7 -2 -11 -11z"/>
<path d="M1921 734 c0 -11 3 -14 6 -6 3 7 2 16 -1 19 -3 4 -6 -2 -5 -13z"/>
<path d="M2231 730 c-12 -7 -11 -11 3 -25 21 -21 29 -15 19 13 -6 15 -12 19
-22 12z"/>
<path d="M4002 733 c-7 -2 -17 -14 -23 -26 -11 -21 -10 -20 15 2 14 14 26 26
26 28 0 3 0 3 -18 -4z"/>
<path d="M4135 710 c4 -6 11 -8 16 -5 14 9 11 15 -7 15 -8 0 -12 -5 -9 -10z"/>
<path d="M2725 694 l-40 -13 40 5 c42 6 85 24 55 23 -8 0 -33 -7 -55 -15z"/>
<path d="M2650 670 c0 -5 19 -10 42 -10 49 0 47 5 -4 14 -24 4 -38 3 -38 -4z"/>
<path d="M2328 643 c12 -2 30 -2 40 0 9 3 -1 5 -23 4 -22 0 -30 -2 -17 -4z"/>
<path d="M1806 573 c6 -53 16 -72 37 -73 4 0 7 7 7 16 0 8 -4 13 -9 10 -12 -8
-21 19 -21 65 0 21 -5 39 -11 39 -7 0 -8 -19 -3 -57z"/>
<path d="M2185 621 c-3 -5 -1 -12 5 -16 5 -3 10 1 10 9 0 18 -6 21 -15 7z"/>
<path d="M1850 599 c0 -11 4 -18 9 -15 5 3 11 -17 15 -44 4 -27 11 -52 16 -55
10 -6 6 28 -11 98 -10 40 -29 51 -29 16z"/>
<path d="M2250 600 c0 -11 4 -20 9 -20 5 0 7 9 4 20 -3 11 -7 20 -9 20 -2 0
-4 -9 -4 -20z"/>
<path d="M1680 530 c0 -5 5 -10 11 -10 5 0 7 5 4 10 -3 6 -8 10 -11 10 -2 0
-4 -4 -4 -10z"/>
<path d="M1692 490 c0 -14 2 -19 5 -12 2 6 2 18 0 25 -3 6 -5 1 -5 -13z"/>
<path d="M1760 475 c0 -8 5 -15 10 -15 6 0 10 7 10 15 0 8 -4 15 -10 15 -5 0
-10 -7 -10 -15z"/>
<path d="M2192 465 c0 -16 2 -22 5 -12 2 9 2 23 0 30 -3 6 -5 -1 -5 -18z"/>
<path d="M2303 452 c-1 -15 4 -17 29 -14 29 4 30 6 13 18 -26 19 -40 17 -42
-4z"/>
<path d="M2402 413 c3 -16 37 -30 116 -47 25 -6 32 -4 32 8 0 20 14 21 30 1 7
-8 28 -15 46 -15 19 0 34 -4 34 -10 0 -5 13 -7 30 -4 22 5 31 2 36 -10 8 -21
54 -21 54 0 0 10 -6 14 -14 11 -8 -3 -16 2 -19 14 -5 17 -9 18 -33 9 -19 -8
-35 -8 -49 -1 -18 9 -238 61 -258 61 -5 0 -7 -8 -5 -17z"/>
<path d="M2992 395 c-14 -29 2 -34 18 -6 12 24 13 31 2 31 -5 0 -14 -11 -20
-25z"/>
<path d="M3034 374 c-85 -199 -95 -236 -53 -198 22 20 26 42 4 24 -22 -18 -20
-11 30 102 24 56 43 104 40 106 -3 3 -12 -12 -21 -34z"/>
<path d="M2953 383 c-3 -10 -8 -22 -10 -28 -3 -5 3 -1 11 9 16 20 21 36 11 36
-3 0 -8 -8 -12 -17z"/>
<path d="M2965 330 c-14 -27 -21 -59 -10 -49 8 9 35 79 30 79 -2 0 -11 -13
-20 -30z"/>
<path d="M2845 340 c-3 -5 -1 -10 4 -10 6 0 11 5 11 10 0 6 -2 10 -4 10 -3 0
-8 -4 -11 -10z"/>
<path d="M2880 341 c0 -5 -3 -18 -6 -28 -5 -16 -4 -16 10 1 18 23 20 36 6 36
-5 0 -10 -4 -10 -9z"/>
<path d="M2149 215 c-4 -33 -5 -62 -3 -64 10 -12 15 12 12 65 l-3 59 -6 -60z"/>
<path d="M2900 191 c-13 -26 -13 -44 2 -39 6 2 12 16 12 31 2 32 0 33 -14 8z"/>
<path d="M3250 2310 c0 -5 5 -10 11 -10 5 0 7 5 4 10 -3 6 -8 10 -11 10 -2 0
-4 -4 -4 -10z"/>
<path d="M2883 2520 c-28 -12 -31 -34 -3 -26 11 3 30 9 41 12 17 5 19 8 8 15
-17 10 -18 10 -46 -1z"/>
<path d="M4823 1630 c0 -25 2 -35 4 -22 2 12 2 32 0 45 -2 12 -4 2 -4 -23z"/>
<path d="M4615 635 c-5 -11 -10 -24 -13 -30 -3 -5 3 -3 13 7 9 9 15 22 12 30
-3 9 -7 7 -12 -7z"/>
<path d="M3530 533 c0 -22 2 -25 10 -13 13 20 13 40 0 40 -5 0 -10 -12 -10
-27z"/>
<path d="M4305 550 c3 -5 11 -10 16 -10 6 0 7 5 4 10 -3 6 -11 10 -16 10 -6 0
-7 -4 -4 -10z"/>
<path d="M3574 386 c-9 -35 5 -54 23 -31 7 11 13 27 13 37 0 27 -29 22 -36 -6z"/>
<path d="M4171 387 c-6 -8 -7 -17 -3 -21 4 -4 3 -7 -3 -6 -21 5 -33 0 -39 -15
-5 -13 -2 -14 17 -4 21 11 21 11 -2 -15 -14 -14 -20 -26 -15 -26 15 0 61 52
69 78 7 24 -6 30 -24 9z"/>
<path d="M3693 378 c-19 -24 -34 -58 -26 -58 11 0 47 60 40 66 -2 2 -9 -1 -14
-8z"/>
<path d="M3909 289 l-44 -40 40 28 39 28 -21 -30 c-11 -16 -30 -39 -42 -49
-23 -21 -29 -41 -7 -29 23 14 96 104 96 119 0 23 -15 17 -61 -27z"/>
<path d="M3835 270 c-27 -27 -46 -52 -43 -55 7 -7 108 84 108 97 0 17 -18 6
-65 -42z"/>
<path d="M3560 289 c0 -5 5 -7 10 -4 6 3 10 8 10 11 0 2 -4 4 -10 4 -5 0 -10
-5 -10 -11z"/>
<path d="M3995 250 c-3 -5 -2 -10 4 -10 5 0 13 5 16 10 3 6 2 10 -4 10 -5 0
-13 -4 -16 -10z"/>
<path d="M3828 219 c-10 -5 -23 -20 -29 -32 -10 -18 -6 -17 20 7 39 37 42 45
9 25z"/>
<path d="M3920 205 c-11 -13 -10 -14 4 -9 9 3 16 10 16 15 0 13 -6 11 -20 -6z"/>
<path d="M6080 10 c0 -5 7 -10 15 -10 8 0 15 5 15 10 0 6 -7 10 -15 10 -8 0
-15 -4 -15 -10z"/>
<path d="M5812 3 c37 -2 100 -2 140 0 40 1 10 3 -67 3 -77 0 -110 -1 -73 -3z"/>
<path d="M6038 3 c6 -2 18 -2 25 0 6 3 1 5 -13 5 -14 0 -19 -2 -12 -5z"/>
</g>
</svg>
