<?xml version="1.0" standalone="no"?>
<!DOCTYPE svg PUBLIC "-//W3C//DTD SVG 20010904//EN"
 "http://www.w3.org/TR/2001/REC-SVG-20010904/DTD/svg10.dtd">
<svg version="1.0" xmlns="http://www.w3.org/2000/svg"
 width="224.000000pt" height="379.000000pt" viewBox="0 0 224.000000 379.000000"
 preserveAspectRatio="xMidYMid meet">
<metadata>
Created by potrace 1.16, written by Peter Selinger 2001-2019
</metadata>
<g transform="translate(0.000000,379.000000) scale(0.100000,-0.100000)"
fill="#000000" stroke="none">
<path d="M1857 3741 c-32 -4 -61 -11 -65 -17 -8 -13 -72 -24 -72 -13 0 10 -80
16 -86 7 -3 -4 -16 -8 -30 -8 -18 0 -24 -5 -24 -23 0 -16 6 -23 20 -24 11 -1
20 1 20 5 0 4 9 8 20 8 11 0 20 -4 20 -8 0 -4 14 -5 30 -1 22 4 36 0 50 -12
19 -17 21 -17 38 -2 10 10 32 17 48 17 16 0 46 4 66 9 34 8 40 6 76 -28 34
-31 40 -44 46 -93 7 -64 -8 -80 -18 -19 -3 22 -13 41 -22 45 -14 5 -15 1 -11
-26 4 -18 13 -96 23 -173 9 -77 18 -142 20 -144 15 -16 19 30 10 114 -4 37 -3
52 2 40 5 -11 15 -67 21 -125 7 -58 16 -123 21 -145 l8 -40 2 45 c1 25 2 155
3 288 2 241 -2 276 -32 258 -20 -13 -22 29 -2 46 12 9 21 18 21 20 0 6 -143 5
-203 -1z"/>
<path d="M210 3678 c0 -13 -3 -18 -8 -12 -4 6 -31 14 -59 17 -41 5 -53 3 -53
-7 0 -17 -25 -27 -44 -20 -8 3 -17 1 -20 -5 -10 -15 -2 -1162 9 -1316 2 -38 7
-149 10 -245 4 -96 11 -218 16 -270 22 -213 27 -305 28 -522 0 -125 3 -239 7
-253 5 -19 1 -32 -17 -51 -22 -24 -14 -35 9 -12 9 9 12 0 12 -43 1 -29 3 -108
7 -173 5 -108 4 -121 -13 -133 -16 -12 -16 -13 -1 -13 9 0 17 -5 17 -11 0 -6
-9 -9 -20 -6 -13 3 -20 0 -20 -9 0 -8 9 -14 20 -14 18 0 20 -7 20 -54 0 -30
-4 -66 -10 -80 -6 -16 -6 -27 0 -31 6 -4 7 -14 3 -23 -5 -9 -8 -83 -8 -163 0
-169 6 -186 58 -164 34 14 212 14 500 0 104 -6 137 -4 137 5 0 9 18 10 68 6
105 -9 430 -15 402 -7 -44 13 122 20 311 14 99 -3 179 -10 179 -14 0 -5 -8 -6
-17 -2 -10 3 -15 3 -11 -2 6 -6 75 -7 218 -2 8 0 31 -2 51 -6 29 -6 36 -4 36
8 0 9 -6 14 -14 11 -7 -3 -13 0 -13 5 0 11 34 9 158 -8 34 -4 42 -2 42 10 0
20 -17 31 -26 16 -4 -8 -9 -8 -13 -1 -4 6 -27 14 -51 17 -34 4 -40 3 -25 -5
21 -10 -22 -8 -245 10 -63 5 -121 10 -128 10 -7 0 -11 4 -8 9 3 4 47 14 98 21
51 7 99 17 105 22 17 14 5 30 -17 23 -26 -8 -152 25 -147 39 4 12 14 12 122 3
l70 -6 -77 15 c-43 9 -78 19 -77 23 1 13 90 71 109 71 13 0 18 5 14 15 -4 9 1
18 12 22 11 4 24 13 30 21 8 12 23 13 64 8 46 -6 52 -5 46 9 -3 9 -6 18 -6 21
0 2 -12 -1 -26 -7 -39 -14 -39 -5 1 29 19 17 35 34 35 38 0 4 -9 -1 -19 -10
-12 -11 -21 -14 -26 -7 -3 6 -14 11 -23 10 -12 0 -11 -3 6 -9 23 -10 32 -26
10 -18 -15 5 -50 -27 -40 -37 4 -3 -2 -3 -12 1 -13 5 -17 4 -12 -4 3 -6 -2
-13 -11 -16 -10 -3 -31 -19 -48 -34 -66 -61 -128 -102 -156 -102 -16 0 -29 4
-29 9 0 5 -33 11 -72 15 -40 3 -86 7 -103 8 -26 3 -30 0 -27 -21 4 -41 -20
-56 -79 -52 l-53 3 25 20 c13 10 34 23 47 28 12 5 22 14 22 20 0 9 -59 -19
-90 -44 -8 -7 -27 -17 -42 -24 -16 -6 -28 -16 -28 -21 0 -11 54 -21 96 -18 23
2 30 -1 27 -10 -3 -7 -3 -20 1 -28 5 -13 12 -12 57 6 41 16 64 19 106 13 33
-4 53 -11 53 -19 0 -7 6 -16 13 -18 10 -5 -204 -12 -227 -8 -4 1 -14 -4 -22
-10 -10 -8 -14 -8 -14 0 0 16 -107 15 -113 -1 -4 -10 -6 -10 -6 0 -1 6 -8 12
-17 12 -14 0 -16 12 -10 103 7 134 7 129 28 135 10 2 18 8 18 13 0 5 6 9 13 9
19 0 58 30 52 41 -3 5 -18 1 -33 -8 -25 -17 -25 -15 6 21 18 21 30 41 27 45
-4 3 -25 -14 -46 -38 -22 -24 -41 -42 -43 -40 -2 2 -7 47 -10 99 -3 52 -9 120
-14 150 -5 30 -8 56 -7 58 4 4 97 -37 175 -77 l64 -34 -39 -33 c-29 -24 -46
-32 -62 -27 -13 3 -30 2 -38 -1 -23 -8 -3 -40 35 -56 16 -7 30 -16 30 -20 0
-3 6 -7 13 -7 6 0 23 -3 37 -7 23 -6 23 -6 8 7 -19 15 -24 37 -8 37 17 0 60
-23 60 -32 0 -5 4 -7 9 -4 5 4 22 2 38 -4 l28 -10 -24 18 -23 19 43 36 c23 20
40 40 36 43 -3 3 -24 -12 -46 -35 -45 -46 -41 -44 -76 -31 -16 6 -23 14 -19
22 4 7 3 8 -4 4 -6 -4 -23 -4 -38 0 l-27 7 38 34 c23 20 46 33 56 30 12 -3 16
0 12 9 -6 17 0 17 50 3 20 -5 37 -14 37 -19 0 -4 22 -16 48 -24 45 -15 97 -39
130 -60 19 -11 -54 -76 -85 -76 -15 0 -21 -5 -17 -14 3 -8 -4 -19 -16 -26 -12
-6 -19 -14 -16 -17 6 -7 57 29 110 78 40 38 69 48 81 30 3 -5 18 -12 34 -16
16 -3 35 -12 41 -20 12 -14 40 -10 40 7 0 5 -4 7 -8 4 -5 -3 -33 7 -64 22
l-55 28 41 35 c38 33 43 35 78 25 20 -6 36 -15 36 -21 -1 -5 26 -19 60 -30 34
-11 62 -25 62 -32 0 -7 6 -16 14 -20 10 -6 15 -33 18 -94 l3 -86 -27 0 c-16 0
-28 3 -28 7 0 3 -17 6 -37 7 -35 0 -36 0 -13 -9 83 -33 100 -43 106 -60 3 -11
4 -22 1 -24 -10 -10 -77 9 -77 21 0 10 -9 11 -37 5 -23 -6 -42 -5 -49 1 -8 7
-14 6 -19 -1 -10 -16 2 -24 38 -26 58 -2 147 -25 147 -38 0 -7 7 -21 16 -32
14 -17 15 -18 10 -1 -8 25 4 44 15 26 6 -10 9 -6 9 14 0 15 -4 27 -10 27 -5 0
-7 6 -4 14 3 7 1 49 -5 92 -6 44 -11 163 -13 266 -1 103 -4 185 -7 182 -3 -2
-11 6 -18 18 -11 21 -12 18 -14 -32 -2 -30 -2 -64 -1 -75 3 -48 -9 -101 -27
-112 -17 -10 -19 -8 -23 18 -5 31 7 40 16 12 3 -10 3 3 1 30 -3 26 -13 64 -24
85 -10 20 -28 55 -39 77 -10 22 -25 39 -31 37 -7 -1 -10 2 -7 7 6 9 -29 54
-81 104 -26 24 -31 36 -26 56 4 21 3 24 -8 14 -7 -7 -19 -13 -26 -13 -21 0
-103 81 -103 101 0 11 -4 19 -10 19 -5 0 -10 -5 -10 -12 0 -6 -10 -2 -22 9
-13 11 -61 41 -108 67 -47 25 -96 55 -110 66 -24 19 -25 20 -3 20 12 0 32 13
45 29 13 16 30 31 38 33 8 2 20 21 26 43 43 145 51 168 58 157 8 -14 46 -16
46 -3 0 8 -25 23 -42 25 -17 2 -20 18 -5 34 17 18 8 50 -11 38 -19 -11 -26 17
-8 30 17 12 16 13 -3 24 -14 7 -21 7 -21 1 0 -16 -48 -25 -64 -12 -10 9 -31 4
-87 -20 -41 -17 -75 -35 -77 -40 -5 -12 -59 -11 -67 1 -3 6 -13 10 -21 10 -8
0 -14 -4 -14 -10 0 -5 7 -10 15 -10 9 0 27 -11 40 -25 19 -18 25 -20 25 -8 0
12 7 14 33 9 52 -11 111 -7 170 10 25 8 21 25 -5 23 -53 -5 -66 0 -61 21 3 12
11 19 17 16 6 -3 30 -10 54 -17 38 -10 42 -14 42 -44 0 -32 -1 -33 -52 -41
-29 -4 -77 -7 -105 -6 -30 2 -53 -2 -53 -8 0 -5 13 -7 32 -3 21 4 29 3 24 -5
-15 -25 39 -34 114 -18 35 7 35 7 14 -11 -12 -11 -34 -39 -49 -63 -29 -46 -52
-71 -117 -126 -31 -27 -44 -31 -102 -33 -54 -2 -66 1 -66 13 0 14 -3 14 -33 0
-25 -12 -38 -13 -61 -5 -24 10 -26 14 -16 26 11 13 9 15 -16 13 -42 -3 -60 10
-37 27 26 19 9 30 -26 15 -30 -12 -65 -5 -42 9 7 5 4 14 -9 29 -11 11 -20 25
-20 30 0 10 -51 58 -105 100 -19 15 -23 21 -11 17 15 -4 13 0 -8 20 -22 20
-31 23 -42 15 -10 -9 -11 -17 -2 -33 32 -62 32 -60 4 -84 -15 -13 -36 -24 -47
-24 -38 -3 -42 -4 -46 -16 -4 -11 52 -3 76 11 6 4 11 3 11 -2 0 -6 -7 -13 -16
-16 -9 -4 -14 -9 -11 -13 4 -3 13 0 21 7 28 22 84 29 115 14 36 -18 47 -31 54
-69 5 -28 2 -32 -34 -48 -21 -9 -44 -17 -49 -17 -6 0 -10 -4 -10 -10 0 -5 -26
-23 -57 -39 -94 -49 -49 -35 65 19 98 47 161 61 154 35 -2 -11 -47 -36 -99
-57 -17 -7 -34 -20 -36 -29 -6 -21 -3 -20 100 34 l72 37 15 -22 c8 -12 13 -25
10 -29 -8 -14 -146 -79 -155 -73 -7 4 -29 -26 -29 -39 0 -2 47 20 105 50 85
43 114 53 155 53 28 0 50 -3 50 -8 0 -4 -30 -23 -67 -42 -38 -18 -74 -40 -81
-47 -7 -7 -20 -13 -28 -13 -8 0 -14 -3 -14 -7 0 -13 -89 -45 -107 -39 -20 8
-13 16 23 22 51 9 41 17 -14 11 -47 -6 -52 -4 -41 9 10 13 9 13 -12 6 -27 -10
-52 -5 -43 9 3 5 14 9 25 9 10 0 19 5 19 10 0 12 -7 12 -47 1 -46 -13 -49 0
-4 20 22 9 44 27 51 38 13 25 16 25 -69 2 l-69 -19 -43 29 c-70 46 -168 158
-175 199 -3 19 -7 44 -9 56 -3 15 6 30 36 53 22 18 48 48 57 67 l16 34 23 -27
24 -28 -21 44 c-16 31 -20 53 -15 77 5 31 8 33 38 28 18 -4 44 -20 59 -38 15
-17 28 -26 28 -20 0 6 -6 17 -14 23 -8 7 -12 21 -9 31 3 13 0 20 -8 21 -8 1
-1 4 15 8 33 7 36 15 40 120 2 51 -1 74 -10 78 -7 2 -25 29 -39 58 -27 53 -27
54 -8 78 l19 25 0 -34 c0 -21 11 -49 31 -76 52 -72 70 -59 34 23 -26 59 -19
99 19 99 28 0 55 21 43 34 -4 3 1 12 11 19 17 13 17 14 -7 30 -31 20 -41 81
-19 115 9 14 12 32 8 50 -4 15 -7 34 -8 42 0 8 -5 20 -10 27 -14 18 0 37 17
23 18 -15 87 -9 93 8 3 9 -3 11 -20 7 -21 -5 -25 -1 -34 33 -9 35 -8 42 15 69
22 25 30 29 53 22 37 -10 88 18 163 87 33 31 61 51 63 45 2 -5 -12 -24 -30
-40 -22 -20 -28 -31 -17 -31 8 0 20 5 26 11 8 8 13 8 17 0 10 -16 36 -14 36 2
0 22 37 49 62 45 19 -2 23 -9 22 -35 -2 -38 8 -42 29 -13 18 26 27 16 27 -32
0 -28 4 -38 16 -38 40 0 92 47 101 93 3 15 17 37 32 48 l26 21 9 -67 c8 -61
10 -66 30 -61 14 3 29 -3 44 -19 27 -28 25 -50 -4 -50 -10 0 -20 -8 -22 -17
-2 -12 3 -18 16 -18 16 0 19 -7 18 -43 -1 -37 4 -47 33 -73 19 -17 32 -36 29
-44 -3 -10 -8 -9 -20 4 -9 9 -26 16 -37 16 -12 0 -21 5 -21 10 0 16 -50 12
-56 -5 -4 -8 -12 -15 -20 -15 -8 0 -14 -4 -14 -10 0 -5 -7 -10 -15 -10 -28 0
-15 -18 23 -33 20 -8 43 -12 51 -7 8 4 27 4 42 0 19 -6 29 -4 32 3 2 7 7 9 11
5 4 -3 2 -25 -5 -47 -8 -28 -15 -38 -21 -29 -6 10 -8 9 -8 -4 0 -9 -11 -25
-25 -36 -14 -11 -25 -27 -25 -36 0 -9 -4 -16 -10 -16 -5 0 -10 -4 -10 -10 0
-21 41 -9 52 15 6 14 18 25 27 25 10 0 12 -3 5 -8 -18 -12 -36 -80 -29 -112 4
-19 3 -30 -4 -30 -6 0 -11 6 -11 13 0 20 -35 58 -45 49 -5 -4 -6 0 -2 10 3 9
0 24 -8 34 -7 10 -11 24 -8 31 8 20 -25 16 -36 -4 -10 -17 -10 -17 -11 -1 0
10 -8 31 -19 48 l-19 31 -4 -30 c-2 -16 0 -37 5 -46 5 -10 6 -30 3 -46 -3 -19
-2 -28 4 -24 6 3 10 0 10 -8 0 -7 14 -23 30 -35 17 -13 30 -29 30 -37 0 -8 5
-15 10 -15 13 0 90 -77 90 -91 0 -5 5 -7 10 -4 6 3 10 1 10 -4 0 -6 -5 -11
-12 -11 -9 0 -9 -3 -1 -11 13 -13 6 -39 -10 -39 -18 0 -67 -52 -67 -72 0 -10
-7 -18 -16 -18 -8 0 -12 5 -8 11 4 8 0 9 -15 4 -24 -7 -27 4 -8 25 7 9 4 8 -8
-1 -21 -17 -75 -34 -75 -24 0 11 23 50 34 57 14 10 7 14 -35 22 -33 6 -37 4
-53 -27 -27 -48 -19 -72 24 -73 25 0 35 -5 35 -16 0 -24 14 -34 20 -15 6 13
12 13 51 -5 25 -10 50 -17 57 -14 7 2 3 5 -8 6 -19 1 -19 1 -1 11 13 8 24 8
42 -2 19 -10 29 -10 51 1 24 11 25 14 10 18 -14 3 -17 10 -12 29 4 16 2 22 -5
18 -17 -11 -11 12 11 36 l20 24 -11 -23 c-16 -34 -6 -37 23 -8 29 29 40 71 21
87 -17 14 -18 39 -3 39 5 0 7 5 4 10 -3 6 1 17 9 26 19 19 12 34 -15 34 -16 0
-19 -4 -14 -22 l7 -23 -21 20 c-33 32 -32 112 2 164 30 44 33 61 16 78 -9 9
-6 21 12 49 12 21 25 32 27 26 2 -7 10 -12 18 -12 9 0 12 5 9 11 -4 6 -2 30 5
53 l12 43 60 -3 c33 -1 65 -7 71 -13 19 -19 37 -12 37 14 0 24 -20 33 -55 25
-5 -1 -21 -4 -35 -7 -13 -2 -26 -6 -28 -8 -6 -6 -32 22 -32 34 0 6 8 11 19 11
28 0 71 39 71 64 0 69 -30 112 -67 99 -21 -7 -15 -20 12 -27 19 -5 25 -13 25
-32 0 -21 -4 -25 -20 -21 -11 3 -20 0 -20 -5 0 -6 -10 2 -21 17 -16 20 -22 41
-22 83 -1 32 -6 62 -12 68 -6 7 -10 41 -9 78 2 54 6 69 23 84 12 9 28 28 35
42 7 14 18 24 24 22 7 -1 12 3 12 9 0 7 -10 9 -24 7 -16 -3 -34 3 -53 18 -30
25 -58 30 -68 14 -10 -16 -22 -12 -28 11 -3 11 -15 23 -26 26 -12 3 -22 14
-23 27 -3 36 -5 70 -6 108 -2 32 -8 42 -42 64 -43 29 -50 47 -22 63 16 9 16
11 0 27 -17 17 -18 17 -38 -1 -11 -10 -20 -13 -20 -7 0 16 -33 15 -48 0 -7 -7
-12 -20 -12 -30 0 -12 -11 -19 -37 -23 -21 -4 -50 -8 -64 -11 -28 -5 -54 17
-61 51 -2 11 -13 24 -26 30 -12 5 -22 16 -22 23 0 7 -4 11 -9 8 -5 -3 -34 3
-65 14 -70 24 -131 16 -173 -23 l-23 -20 0 35 c0 29 3 34 21 34 36 -2 33 22
-6 38 -41 17 -65 12 -65 -14 0 -13 -7 -18 -25 -16 -24 3 -65 -25 -65 -44 0 -6
-5 -10 -11 -10 -7 0 -9 10 -7 25 4 21 0 26 -40 39 -47 17 -62 14 -62 -10 0 -8
5 -12 10 -9 24 15 7 -25 -17 -41 -16 -9 -41 -31 -56 -47 -31 -34 -47 -30 -23
5 25 36 20 48 -20 48 -27 0 -43 -7 -65 -31 -16 -17 -29 -37 -29 -45 0 -7 -23
-23 -50 -35 -45 -20 -71 -45 -76 -74 0 -5 -2 -15 -2 -21 -1 -6 -15 -9 -31 -6
-43 6 -47 -15 -6 -32 20 -9 42 -15 48 -13 15 3 22 -62 8 -76 -7 -7 -21 -5 -44
8 -19 10 -42 15 -50 12 -47 -18 -14 -147 37 -147 14 0 28 -4 31 -10 4 -6 -10
-10 -34 -10 -34 0 -44 -5 -65 -33 -28 -36 -35 -101 -16 -137 8 -16 6 -22 -15
-36 -21 -14 -24 -22 -19 -49 5 -27 2 -33 -15 -38 -32 -8 -28 -47 4 -47 14 0
25 6 25 13 1 7 6 5 14 -5 7 -10 16 -46 20 -80 5 -52 11 -65 38 -90 17 -15 35
-28 40 -28 16 0 8 -57 -10 -73 -24 -22 -35 -21 -28 1 4 11 -2 22 -14 30 -24
14 -44 7 -36 -14 3 -8 -1 -13 -12 -12 -47 4 -82 -3 -82 -16 0 -17 22 -26 47
-20 16 5 24 -4 42 -45 15 -37 27 -51 41 -51 15 0 20 -7 20 -26 0 -44 40 -167
65 -198 13 -16 35 -30 50 -32 15 -1 32 -7 37 -12 13 -13 6 -44 -11 -50 -10 -3
-12 1 -8 17 7 30 -15 26 -30 -5 -12 -27 -3 -72 19 -85 17 -11 -1 -29 -28 -29
-36 0 -25 -20 20 -35 61 -21 99 -65 57 -65 -11 0 -26 -7 -34 -15 -8 -8 -38
-23 -66 -34 -41 -15 -51 -16 -51 -5 0 8 -8 14 -19 14 -14 0 -17 6 -13 25 3 19
0 25 -12 25 -14 0 -16 -7 -10 -49 6 -47 5 -49 -24 -59 -17 -6 -51 -29 -76 -53
l-46 -42 0 109 c-1 60 -2 134 -4 164 -4 73 0 81 30 69 22 -8 32 -3 74 33 40
34 46 44 35 55 -18 18 -26 16 -23 -4 2 -12 -10 -20 -46 -29 -27 -7 -53 -18
-57 -26 -15 -24 -26 35 -22 117 5 100 8 108 33 100 11 -4 20 -2 20 4 0 6 -7
11 -16 11 -10 0 -7 8 13 25 l28 26 -40 -3 c-46 -3 -46 -3 -25 106 10 55 8 77
-6 63 -15 -14 -25 -95 -31 -252 -7 -175 -14 -177 -28 -9 -5 56 -4 84 4 88 8 5
10 57 7 169 -3 89 -2 155 1 147 9 -21 24 -30 56 -30 27 0 37 15 15 22 -7 3 1
11 17 19 40 19 29 35 -21 32 -32 -2 -44 2 -48 14 -19 50 -24 935 -6 941 6 2
10 10 10 17 0 8 9 17 20 20 36 11 17 32 -22 26 -5 0 -8 4 -8 9 0 5 -5 9 -12 8
-15 -4 -30 76 -24 121 3 19 1 40 -4 46 -8 9 47 14 222 19 305 9 431 16 437 22
3 3 0 13 -5 22 -10 14 -30 17 -140 18 -71 0 -182 4 -246 8 l-118 7 0 -23z
m720 -372 c-1 -14 -25 -46 -35 -46 -4 0 -5 7 -2 15 13 31 -16 25 -45 -9 -17
-21 -32 -35 -35 -32 -8 7 26 64 47 79 23 16 70 11 70 -7z m160 -2 c0 -3 -12
-18 -27 -33 -16 -16 -43 -48 -60 -72 -48 -65 -133 -156 -133 -142 0 6 5 15 10
18 6 3 34 39 63 78 30 40 61 78 70 86 9 7 17 21 17 30 0 9 5 22 12 29 12 12
48 17 48 6z m85 -14 c9 -15 -17 -38 -37 -32 -11 3 -32 -11 -57 -37 -58 -60
-60 -50 -4 18 46 58 82 76 98 51z m75 -46 c0 -7 -6 -11 -13 -8 -14 5 -73 -54
-155 -156 -29 -36 -60 -74 -70 -85 -41 -49 -63 -87 -58 -102 5 -12 10 -11 26
8 16 20 19 21 20 7 0 -10 -4 -18 -10 -18 -5 0 -10 -5 -10 -11 0 -5 -19 -30
-42 -55 -23 -24 -59 -68 -81 -97 -47 -63 -47 -63 -47 -50 0 5 11 23 25 39 14
16 25 34 25 40 0 6 13 23 30 37 31 28 65 85 56 95 -9 8 -37 -21 -112 -118 -60
-78 -94 -108 -94 -82 0 9 87 116 151 186 26 28 50 61 53 74 4 12 11 20 15 18
4 -3 16 9 26 25 11 16 23 29 28 29 4 0 7 4 7 9 0 9 14 26 100 117 24 26 57 64
72 85 27 38 58 45 58 13z m-576 -36 c-10 -20 -19 -28 -22 -20 -2 7 4 22 14 33
25 27 27 24 8 -13z m197 14 c-5 -10 -17 -24 -25 -32 -9 -7 -16 -17 -16 -22 0
-14 -101 -138 -112 -138 -13 0 -10 9 19 48 35 48 133 162 139 162 3 0 0 -8 -5
-18z m-122 -67 c-23 -38 -47 -49 -28 -12 16 31 30 47 40 47 5 0 -1 -16 -12
-35z m-249 17 c0 -26 -27 -62 -47 -62 -36 0 -28 35 12 58 24 14 35 15 35 4z
m113 -53 c-12 -21 -19 -26 -21 -15 -4 21 17 58 29 51 5 -4 2 -19 -8 -36z m250
-3 c-10 -13 -42 -55 -72 -95 -50 -65 -71 -84 -71 -63 0 4 29 43 66 87 36 43
70 88 76 99 7 13 13 16 16 8 2 -6 -5 -23 -15 -36z m268 -43 c-5 -10 -23 -31
-40 -48 -17 -16 -31 -36 -31 -42 0 -14 -20 -18 -20 -5 0 9 89 112 97 112 2 0
-1 -8 -6 -17z m139 -2 c0 -11 -227 -265 -241 -270 -23 -7 12 37 121 157 61 67
113 122 116 122 2 0 4 -4 4 -9z m91 -9 c-12 -22 -41 -48 -41 -36 0 8 40 54 47
54 2 0 -1 -8 -6 -18z m-523 -63 c-43 -58 -88 -104 -88 -88 0 9 11 26 25 39 13
12 37 41 52 62 15 22 29 35 31 30 2 -6 -7 -25 -20 -43z m101 11 c-24 -22 -39
-25 -39 -10 0 6 6 10 13 10 7 0 19 10 26 23 10 15 16 18 19 9 2 -7 -6 -22 -19
-32z m-39 -44 c0 -3 -4 -8 -10 -11 -5 -3 -10 -1 -10 4 0 6 5 11 10 11 6 0 10
-2 10 -4z m121 -29 c-10 -9 -11 -8 -5 6 3 10 9 15 12 12 3 -3 0 -11 -7 -18z
m478 -84 c-109 -114 -129 -132 -129 -112 0 7 44 54 98 105 53 51 102 97 107
103 6 5 14 10 19 11 5 0 -38 -48 -95 -107z m-1131 89 c15 -10 5 -45 -11 -39
-5 1 -14 13 -18 25 -9 23 4 29 29 14z m121 -49 c-28 -47 -29 -48 -29 -37 0 12
38 74 46 74 3 0 -5 -17 -17 -37z m552 -6 c-8 -8 -11 -5 -11 9 0 27 14 41 18
19 2 -9 -1 -22 -7 -28z m399 -12 c0 -10 -73 -86 -92 -96 -17 -9 -18 -8 -9 9 5
10 28 35 51 55 38 36 50 43 50 32z m340 -15 c0 -5 -4 -10 -10 -10 -5 0 -10 5
-10 10 0 6 5 10 10 10 6 0 10 -4 10 -10z m-1420 -72 c0 -21 -13 -33 -37 -35
-27 -3 -29 4 -6 29 19 21 43 24 43 6z m300 -29 c0 -28 -90 -146 -90 -119 -1 8
-7 2 -15 -15 -12 -26 -13 -27 -14 -8 -1 12 11 35 25 50 14 15 22 22 18 14 -5
-9 -3 -12 5 -7 6 4 9 12 5 17 -8 13 35 76 53 76 7 0 13 -4 13 -8z m965 -18 c3
-5 1 -12 -5 -16 -5 -3 -10 1 -10 9 0 18 6 21 15 7z m-164 -51 c10 0 19 -4 19
-8 0 -12 -48 -67 -54 -62 -2 3 -8 23 -12 44 -6 35 -5 38 10 33 10 -4 26 -7 37
-7z m-371 -20 c0 -5 -5 -10 -11 -10 -5 0 -7 5 -4 10 3 6 8 10 11 10 2 0 4 -4
4 -10z m-70 -14 c0 -7 -7 -19 -15 -26 -13 -10 -18 -11 -28 -1 -9 10 -8 15 7
27 25 18 36 18 36 0z m-559 -48 c-11 -18 -21 -27 -21 -20 0 14 33 62 39 56 2
-2 -6 -18 -18 -36z m143 -40 c-9 -18 -31 -51 -48 -72 -36 -46 -49 -64 -94
-134 -19 -29 -36 -52 -38 -52 -8 0 33 74 63 113 15 20 51 73 78 116 49 77 73
95 39 29z m-547 10 c-3 -7 -5 -2 -5 12 0 14 2 19 5 13 2 -7 2 -19 0 -25z m461
4 c-39 -50 -48 -50 -23 -1 9 16 20 27 26 23 6 -4 5 -12 -3 -22z m-201 -18 c13
5 14 4 3 -9 -16 -19 -17 -19 -30 5 -6 11 -7 26 -3 33 5 8 9 4 11 -11 3 -17 8
-22 19 -18z m97 -13 c-18 -30 -34 -40 -34 -22 0 12 41 63 47 57 3 -2 -3 -18
-13 -35z m437 -24 c-19 -20 -21 -20 -27 -3 -5 13 0 24 17 37 21 16 24 16 27 2
2 -8 -5 -25 -17 -36z m-794 -9 c-3 -8 -6 -5 -6 6 -1 11 2 17 5 13 3 -3 4 -12
1 -19z m1748 -17 c-8 -15 15 -25 28 -12 18 18 29 13 17 -9 -6 -12 -21 -20 -35
-20 -20 0 -25 5 -25 25 0 14 5 25 11 25 5 0 8 -4 4 -9z m-920 -21 c3 -5 1 -10
-4 -10 -6 0 -11 5 -11 10 0 6 2 10 4 10 3 0 8 -4 11 -10z m-525 -45 c-7 -8
-17 -12 -22 -9 -5 3 -1 12 9 19 22 17 30 11 13 -10z m-283 -42 c-3 -10 -5 -4
-5 12 0 17 2 24 5 18 2 -7 2 -21 0 -30z m727 -17 c-3 -14 -10 -26 -15 -26 -12
0 -11 4 3 35 14 31 21 26 12 -9z m-74 -136 c0 -11 -4 -20 -10 -20 -5 0 0 -18
11 -39 15 -29 25 -38 36 -34 11 4 14 2 9 -5 -4 -7 -13 -12 -21 -12 -7 0 -16
-6 -18 -12 -3 -7 -6 -4 -6 8 -1 11 -16 33 -35 48 -33 26 -34 27 -19 56 17 35
53 41 53 10z m45 10 c3 -5 1 -10 -4 -10 -6 0 -11 5 -11 10 0 6 2 10 4 10 3 0
8 -4 11 -10z m-141 -59 c16 -17 14 -19 -40 -30 -32 -6 -59 -10 -60 -8 -6 6 13
25 41 40 38 21 39 21 59 -2z m-289 -21 c-3 -5 -14 -10 -23 -10 -15 0 -15 2 -2
10 20 13 33 13 25 0z m65 -14 c0 -3 -4 -8 -10 -11 -5 -3 -10 -1 -10 4 0 6 5
11 10 11 6 0 10 -2 10 -4z m265 -26 c-3 -5 -17 -10 -31 -10 -14 0 -22 4 -19
10 3 6 17 10 31 10 14 0 22 -4 19 -10z m-80 -50 c14 -5 25 -15 25 -22 1 -7 14
-29 30 -48 22 -25 30 -45 30 -72 0 -44 14 -56 39 -34 31 29 49 11 43 -42 -5
-55 -15 -69 -56 -86 -30 -12 -32 -11 -43 17 -7 16 -10 33 -7 38 3 6 1 15 -4
22 -5 7 -12 31 -16 55 -3 24 -24 78 -46 121 -22 43 -40 85 -39 92 0 8 4 4 9
-9 5 -12 21 -27 35 -32z m103 -85 c-3 -3 -9 2 -12 12 -6 14 -5 15 5 6 7 -7 10
-15 7 -18z m932 -15 c6 -11 17 -20 25 -20 9 0 15 -10 15 -25 0 -24 -1 -24 -35
14 -19 21 -35 41 -35 45 0 14 20 5 30 -14z m-1120 -32 c0 -23 -3 -29 -9 -19
-8 12 -4 51 5 51 2 0 4 -15 4 -32z m40 -82 c0 -3 -4 -8 -10 -11 -5 -3 -10 -1
-10 4 0 6 5 11 10 11 6 0 10 -2 10 -4z m1060 -128 c0 -16 -3 -19 -11 -11 -6 6
-8 16 -5 22 11 17 16 13 16 -11z m-140 -148 c0 -5 -7 -10 -15 -10 -8 0 -15 5
-15 10 0 6 7 10 15 10 8 0 15 -4 15 -10z m-600 -134 c0 -2 -7 -6 -15 -10 -8
-3 -15 -1 -15 4 0 6 7 10 15 10 8 0 15 -2 15 -4z m-520 -66 c0 -5 -9 -10 -20
-10 -11 0 -20 -5 -20 -12 0 -6 -3 -8 -6 -5 -9 9 15 37 32 37 8 0 14 -4 14 -10z
m67 -30 c0 -22 -4 -40 -8 -40 -10 0 -12 41 -3 64 9 24 11 20 11 -24z m73 -32
c12 -24 32 -54 43 -68 l22 -25 -28 25 c-33 29 -79 110 -63 110 2 0 14 -19 26
-42z m-175 12 c-3 -5 -16 -10 -28 -9 -21 0 -21 1 -2 9 28 12 37 12 30 0z
m-143 -16 c-13 -9 -26 -13 -30 -9 -8 8 17 25 38 25 9 0 6 -6 -8 -16z m178 -6
c-1 -7 -24 -24 -52 -37 -28 -13 -53 -32 -55 -42 -3 -11 -24 -33 -47 -49 l-41
-31 -8 32 c-18 68 -6 78 153 124 25 7 46 14 48 14 1 1 2 -5 2 -11z m158 -115
c83 -81 109 -103 122 -103 6 0 10 -4 10 -8 0 -4 14 -16 31 -26 21 -12 28 -21
21 -28 -7 -7 -31 4 -74 37 -79 59 -148 122 -148 135 0 6 -6 10 -13 10 -18 0
-44 51 -39 75 4 19 5 19 13 -2 4 -12 39 -52 77 -90z m-391 75 c-3 -8 -6 -5 -6
6 -1 11 2 17 5 13 3 -3 4 -12 1 -19z m232 -2 c-11 -9 -89 -46 -89 -41 0 9 64
45 79 45 8 0 12 -2 10 -4z m38 -55 c20 -26 20 -28 4 -38 -15 -10 -22 -6 -41
19 -18 25 -20 32 -9 39 19 12 21 11 46 -20z m-77 -20 c0 -10 7 -24 15 -31 18
-15 13 -24 -23 -43 -81 -42 -110 -59 -129 -76 -21 -20 -21 -20 -27 11 -8 42
16 78 82 122 61 40 82 45 82 17z m1148 -31 c-2 -8 2 -16 7 -17 6 -2 10 2 10 7
0 6 3 10 8 10 4 0 12 0 17 0 6 0 10 -7 10 -15 0 -8 -4 -15 -9 -15 -4 0 -8 -22
-7 -49 1 -47 2 -49 15 -27 l14 23 46 -24 c25 -13 54 -30 65 -38 18 -13 17 -15
-13 -40 -30 -26 -40 -45 -23 -45 4 0 28 20 53 45 24 24 49 45 54 45 6 0 31
-20 55 -45 24 -25 39 -45 32 -45 -7 0 -12 -6 -12 -12 -1 -13 -45 -68 -55 -68
-3 0 -22 11 -43 24 -20 12 -48 27 -62 31 -13 4 -30 14 -38 22 -24 24 -47 12
-47 -25 -1 -22 3 -31 12 -28 11 5 86 -37 117 -65 14 -13 -33 -59 -59 -59 -19
0 -167 71 -189 90 -4 5 -1 23 9 42 25 48 35 202 17 251 -8 20 -21 37 -29 37
-7 0 -13 9 -13 21 0 20 1 20 30 2 17 -10 29 -24 28 -33z m-730 -53 c23 -20 47
-37 54 -40 7 -2 10 -8 6 -12 -8 -8 -134 73 -163 106 l-20 22 41 -21 c22 -11
59 -36 82 -55z m142 68 c0 -2 -18 -14 -40 -25 -28 -14 -46 -18 -57 -12 -12 7
-6 12 28 24 48 17 69 21 69 13z m410 -5 c0 -6 -13 -13 -30 -16 -16 -4 -30 -9
-30 -13 0 -21 -213 -121 -227 -107 -3 2 17 16 44 30 26 15 55 30 63 35 28 18
163 81 171 81 5 0 9 -5 9 -10z m-797 -93 c-10 -6 -23 -1 -41 15 -47 42 -53 52
-36 65 12 9 22 3 54 -30 32 -35 36 -44 23 -50z m776 21 c-58 -51 -119 -78
-177 -77 l-47 0 35 13 c19 7 67 33 105 56 104 64 119 72 124 59 2 -6 -16 -29
-40 -51z m413 -53 c4 -5 7 -14 7 -20 0 -5 -3 -4 -6 3 -2 6 -9 12 -13 12 -18 0
-100 62 -100 76 0 9 18 1 53 -23 28 -21 55 -42 59 -48z m-1266 41 c38 -33 38
-33 15 -41 -16 -5 -20 -10 -12 -15 8 -5 -11 -24 -56 -56 -108 -77 -108 -78
-156 -50 -23 13 -48 22 -55 19 -16 -6 -5 48 12 59 55 36 193 117 202 117 6 1
28 -14 50 -33z m997 -68 c-2 -29 -16 -87 -29 -128 -14 -43 -24 -92 -22 -115 1
-23 -2 -38 -7 -36 -6 2 -17 6 -25 8 -8 3 -33 13 -56 24 -23 10 -46 19 -52 19
-21 0 -30 -35 -22 -85 26 -158 31 -232 26 -327 -8 -127 -17 -160 -27 -103 -4
22 -8 63 -8 90 -1 28 -6 66 -11 85 -20 67 -50 232 -50 274 l0 43 -86 7 c-48 3
-91 9 -96 12 -6 4 2 16 18 29 38 30 24 51 -18 25 l-31 -19 -29 40 c-15 21 -28
44 -28 50 0 6 -5 9 -12 7 -7 -3 -34 11 -62 29 -28 18 -54 34 -60 36 -5 2 -7
11 -3 19 5 15 11 14 55 -7 28 -13 81 -44 118 -68 38 -25 89 -51 114 -60 25 -8
57 -21 72 -27 22 -11 34 -10 70 5 95 37 156 84 205 156 27 38 51 69 55 69 3 0
4 -24 1 -52z m-853 33 c0 -6 18 -20 40 -32 47 -27 50 -42 13 -66 -16 -10 -30
-20 -33 -24 -3 -3 -16 -10 -28 -14 -19 -5 -36 2 -79 31 l-54 37 31 20 31 20
24 -23 25 -23 0 21 c0 15 -6 22 -20 22 -27 0 -25 14 3 28 28 14 47 15 47 3z
m755 -1 c-3 -5 -11 -10 -16 -10 -6 0 -7 5 -4 10 3 6 11 10 16 10 6 0 7 -4 4
-10z m-535 -170 c0 -4 -12 -12 -27 -19 -22 -10 -24 -14 -12 -22 11 -7 11 -9 0
-9 -7 0 -30 -13 -51 -30 -21 -16 -47 -30 -59 -30 -12 0 -21 -6 -21 -14 0 -8
-11 -21 -24 -28 -13 -7 -51 -32 -84 -55 -54 -38 -64 -42 -88 -33 -26 10 -26
11 -8 25 18 14 17 15 -8 9 -27 -6 -118 22 -118 36 0 4 18 15 40 25 22 10 40
23 40 29 0 6 4 6 12 -2 13 -13 38 1 38 22 1 17 78 66 95 60 10 -4 15 0 15 11
0 9 9 19 20 22 11 3 20 9 20 13 0 5 14 13 30 19 17 5 30 14 30 20 0 5 12 16
28 23 25 13 30 12 80 -25 28 -22 52 -43 52 -47z m-330 67 c0 4 5 0 11 -10 6
-9 13 -16 17 -14 4 2 15 -5 25 -15 16 -17 16 -19 1 -25 -9 -3 -20 0 -25 8 -5
8 -9 10 -9 5 0 -12 -39 24 -52 47 -8 16 -7 17 11 7 12 -6 21 -7 21 -3z m-64
-14 c7 -10 18 -18 26 -18 8 0 12 -11 11 -30 -2 -20 0 -25 6 -16 6 9 14 10 25
4 15 -8 11 -14 -24 -37 -39 -26 -80 -29 -80 -5 0 5 -6 9 -12 9 -7 0 -25 10
-39 23 -28 24 -23 38 18 51 12 4 27 13 33 21 16 19 20 19 36 -2z m-172 -46 c3
3 6 2 6 -4 0 -10 -42 -33 -60 -33 -6 0 -10 16 -10 36 l0 35 29 -20 c15 -11 31
-18 35 -14z m1637 21 c1 -7 1 -18 0 -25 -1 -6 3 -14 9 -18 6 -4 7 1 3 12 -5
14 -1 13 20 -6 23 -21 25 -27 14 -40 -8 -9 -17 -24 -20 -33 -6 -16 -9 -16 -43
-2 -48 20 -74 37 -74 48 0 10 71 75 83 76 4 0 8 -6 8 -12z m-1567 -90 l55 -42
-43 -28 c-41 -27 -44 -28 -80 -13 -33 14 -37 14 -43 -1 -3 -9 -1 -25 5 -34 11
-18 7 -30 -10 -30 -5 0 -8 28 -6 63 2 45 7 62 17 62 8 0 16 5 18 11 2 7 -7 10
-24 8 -15 -2 -21 -1 -13 2 8 4 26 15 39 25 13 11 25 19 27 19 2 0 28 -19 58
-42z m586 -24 c0 -7 -20 -23 -44 -35 -43 -21 -46 -21 -70 -5 -15 9 -26 13 -26
9 0 -5 14 -17 30 -28 16 -11 30 -22 29 -25 -1 -9 -104 -80 -116 -80 -7 0 -13
-4 -13 -9 0 -5 -18 -24 -41 -42 -30 -24 -43 -29 -52 -20 -6 6 -18 11 -26 10
-11 0 -8 -4 7 -11 29 -14 28 -20 -8 -41 -16 -10 -35 -23 -42 -30 -7 -7 -33
-28 -56 -46 l-44 -34 -49 15 c-27 9 -49 13 -49 9 0 -4 19 -13 41 -20 l42 -13
-49 -43 c-48 -43 -51 -61 -5 -29 17 12 26 13 34 5 13 -13 27 -14 27 -3 0 5
-10 14 -22 20 -17 8 -18 11 -7 11 9 1 22 8 30 17 8 10 21 13 38 10 23 -6 24
-5 8 5 -18 10 -17 12 6 28 14 9 53 37 87 63 39 31 67 45 78 41 13 -4 13 -2 -3
10 -12 10 -15 16 -7 17 11 0 60 32 99 65 6 6 34 26 62 45 28 19 68 50 89 67
42 37 50 40 58 18 4 -9 20 -15 43 -16 72 -1 75 -12 12 -45 -34 -18 -64 -28
-71 -24 -9 6 -7 11 6 19 17 11 16 12 -8 7 -27 -6 -48 8 -26 17 7 3 9 6 3 6 -5
0 -17 -3 -25 -9 -12 -7 -9 -13 13 -31 17 -13 26 -27 22 -36 -4 -11 0 -14 12
-9 20 7 -24 -33 -77 -70 -87 -60 -112 -75 -118 -69 -4 3 0 11 8 16 11 8 8 9
-10 3 -33 -9 -37 -13 -20 -24 11 -7 9 -12 -11 -29 -13 -11 -19 -20 -13 -21 6
0 17 7 24 15 7 8 21 15 31 15 11 0 19 7 19 17 0 9 3 14 6 10 4 -3 22 5 40 20
32 24 35 25 59 9 37 -24 44 -19 10 9 l-30 24 33 7 c17 3 32 12 32 19 0 18 47
36 76 29 13 -3 24 -12 24 -18 0 -7 12 -19 26 -26 22 -12 24 -16 10 -26 -17
-12 -22 -29 -6 -19 6 3 10 2 10 -3 0 -5 -11 -14 -24 -20 -19 -9 -25 -8 -30 4
-3 8 -10 14 -16 14 -14 0 -13 -27 3 -33 7 -2 8 -8 3 -13 -5 -5 -11 -4 -13 4
-3 6 -12 12 -22 12 -9 0 -21 3 -27 8 -5 4 2 -4 15 -17 l25 -24 -29 -23 c-29
-23 -82 -34 -70 -15 6 10 -33 36 -41 28 -9 -9 8 -35 27 -40 30 -8 23 -19 -44
-65 l-63 -42 -63 25 c-35 15 -65 24 -67 22 -2 -2 22 -14 54 -27 31 -13 59 -25
61 -27 5 -4 -40 -43 -96 -84 -27 -19 -43 -25 -43 -17 -1 17 -35 58 -48 58 -6
0 -13 6 -15 13 -3 6 -6 -6 -6 -29 -1 -43 12 -64 42 -64 10 0 15 -5 12 -10 -7
-11 -137 -6 -156 5 -5 4 -9 3 -9 -2 0 -4 -12 -9 -27 -10 -16 -2 -53 -5 -83 -7
-30 -2 -61 -6 -68 -8 -11 -2 -14 28 -16 148 l-1 152 22 -9 c13 -5 23 -6 23 -4
0 3 10 -5 22 -17 17 -17 23 -18 26 -8 3 8 -1 16 -8 18 -7 3 -26 17 -42 33 -17
15 -34 29 -39 31 -5 2 -9 40 -10 86 -1 70 1 85 17 96 19 14 44 11 44 -5 0 -5
9 -9 19 -9 10 0 21 -7 25 -15 7 -19 26 -19 26 0 0 8 -6 15 -13 15 -17 0 -52
38 -44 47 8 7 74 -11 97 -27 13 -9 13 -11 0 -20 -11 -7 -6 -8 17 -4 21 4 39 2
48 -6 14 -12 13 -16 -13 -40 -16 -15 -42 -32 -58 -39 -34 -14 -79 -49 -72 -56
3 -3 23 8 46 25 23 16 44 30 48 30 3 0 21 12 39 26 27 20 41 24 67 19 29 -5
31 -4 16 8 -16 13 -14 16 26 45 25 18 49 32 55 32 6 0 11 4 11 8 0 9 51 41 62
39 4 -1 15 8 23 21 9 12 20 22 26 22 5 0 37 20 71 45 l62 45 28 -27 c15 -15
28 -32 28 -39z m835 53 c28 -21 0 -32 -30 -13 -14 9 -25 19 -25 21 0 10 37 4
55 -8z m98 -59 c15 -11 27 -16 27 -12 0 4 2 5 5 2 8 -8 -6 -38 -17 -38 -5 0
-21 -13 -35 -30 -26 -32 -50 -38 -73 -17 -12 10 -12 9 -1 -5 7 -10 11 -27 8
-38 -6 -24 -3 -25 16 -5 13 13 22 11 74 -15 32 -16 64 -30 71 -30 23 0 12 -28
-24 -59 -33 -29 -37 -31 -62 -17 -49 25 -102 46 -117 46 -19 0 -19 19 -1 26 8
3 17 12 20 19 3 9 0 12 -10 8 -7 -3 -14 -9 -14 -13 0 -19 -32 -17 -84 4 l-55
23 40 36 c45 42 70 46 99 17 11 -11 20 -15 20 -10 0 6 -14 19 -31 29 l-30 19
33 31 c18 17 40 30 48 27 8 -2 24 -7 35 -10 15 -5 15 -4 -2 5 -23 12 -29 29
-17 42 7 7 34 -5 77 -35z m-1447 17 c19 -14 19 -14 -2 -15 -12 0 -24 7 -28 15
-7 19 5 19 30 0z m1626 -55 c20 -40 25 -57 16 -65 -8 -7 -9 -6 -4 2 5 8 -3 17
-21 25 -15 7 -30 15 -33 18 -7 7 -30 11 -30 6 0 -3 25 -21 55 -41 30 -21 63
-47 73 -59 9 -13 22 -22 27 -21 6 1 6 0 2 -3 -4 -2 -5 -19 -1 -38 8 -41 -3
-43 -32 -6 -12 15 -26 23 -30 19 -5 -4 -2 -13 6 -18 11 -7 5 -8 -20 -3 -58 11
-65 18 -40 42 12 11 20 26 18 32 -2 7 -15 1 -31 -14 l-28 -26 -39 20 c-22 11
-45 20 -52 20 -7 0 -22 7 -32 15 -19 14 -19 15 -1 35 10 11 23 20 29 20 6 0
17 9 24 21 10 15 21 20 38 16 25 -4 34 8 12 16 -20 7 19 44 44 43 15 -1 29
-17 50 -56z m-462 7 c14 -4 36 -15 49 -25 l23 -19 -26 -26 c-43 -43 -55 -46
-97 -26 -21 11 -43 19 -49 19 -6 0 -9 8 -6 18 3 9 2 34 -3 54 -5 20 -7 39 -4
42 3 2 24 -3 46 -13 23 -10 53 -21 67 -24z m-1383 -49 c-2 -13 -4 -5 -4 17 -1
22 1 32 4 23 2 -10 2 -28 0 -40z m953 -53 c10 -52 10 -68 0 -80 -18 -22 -58
-18 -90 8 -15 12 -35 27 -45 32 -16 10 -11 16 38 49 32 20 57 41 57 47 0 5 6
9 14 9 9 0 18 -22 26 -65z m945 -115 c3 -6 -1 -7 -9 -4 -18 7 -21 14 -7 14 6
0 13 -4 16 -10z m-921 -15 c3 -8 1 -15 -3 -15 -5 0 -11 7 -15 15 -3 8 -1 15 3
15 5 0 11 -7 15 -15z m-13 -53 l43 -39 -26 -17 c-23 -15 -32 -16 -65 -5 -45
14 -101 38 -90 39 4 0 8 -1 10 -1 1 -1 17 12 36 30 18 17 37 31 41 31 4 0 27
-17 51 -38z m-951 -47 c0 -8 -4 -15 -8 -15 -5 0 -9 7 -9 15 0 8 4 15 9 15 4 0
8 -7 8 -15z m820 -7 c0 -5 5 -6 10 -3 6 3 10 2 10 -3 0 -6 14 -19 30 -29 l30
-19 -31 -30 -30 -29 -57 31 c-31 18 -58 37 -60 42 -2 6 14 22 35 35 36 23 63
26 63 5z m180 -76 c0 -20 6 -74 14 -119 13 -79 12 -83 -5 -83 -12 0 -19 7 -19
20 0 16 -7 20 -30 20 -16 0 -30 -4 -30 -9 0 -5 9 -7 20 -4 27 7 25 -13 -2 -29
-27 -14 -178 -19 -178 -6 0 6 -29 7 -67 3 l-68 -6 40 36 c22 19 47 35 56 35 8
0 21 10 28 23 6 12 24 29 39 38 26 15 29 14 80 -24 39 -28 57 -36 65 -28 6 6
9 12 6 14 -2 1 -21 15 -41 30 -20 15 -41 27 -47 27 -24 0 -8 21 42 58 83 62
97 62 97 4z m-1000 2 c0 -21 -4 -33 -10 -29 -5 3 -10 19 -10 36 0 16 5 29 10
29 6 0 10 -16 10 -36z m750 -10 c27 -20 50 -40 50 -44 0 -13 -56 -50 -64 -43
-4 4 -19 8 -34 8 -43 1 -122 17 -121 24 0 8 101 90 111 90 5 1 30 -15 58 -35z
m744 -75 c-8 -14 -24 -10 -24 6 0 9 6 12 15 9 8 -4 12 -10 9 -15z m-861 -19
c31 -14 57 -27 57 -30 -1 -3 -21 -21 -47 -40 -38 -28 -55 -35 -101 -37 -46 -1
-55 1 -59 18 -4 14 -11 18 -32 13 l-26 -5 21 18 c19 16 34 28 99 77 11 9 23
14 26 13 3 -1 31 -13 62 -27z m946 14 c1 -1 0 -7 -3 -12 -8 -14 -56 -2 -56 14
0 11 7 13 28 8 15 -4 29 -8 31 -10z m-131 -4 c22 0 13 -20 -15 -31 -38 -16
-83 -16 -83 -2 0 19 43 44 65 39 11 -3 26 -6 33 -6z m95 -26 c14 -15 -22 -30
-70 -31 -29 0 -53 2 -53 4 0 2 15 10 33 18 34 15 79 19 90 9z m127 -36 c0 -9
-97 -9 -113 0 -5 2 -1 9 9 16 18 14 104 0 104 -16z m-325 2 c3 -5 -1 -10 -10
-10 -9 0 -13 5 -10 10 3 6 8 10 10 10 2 0 7 -4 10 -10z m-975 -70 c17 -11 13
-15 -22 -24 -15 -3 -30 -2 -33 4 -3 5 1 10 9 10 9 0 16 5 16 10 0 12 10 13 30
0z m-200 -10 c24 -8 24 -8 -5 -9 -16 0 -37 4 -45 9 -12 8 -11 10 5 9 11 -1 31
-5 45 -9z m130 0 c0 -5 -4 -10 -10 -10 -5 0 -10 5 -10 10 0 6 5 10 10 10 6 0
10 -4 10 -10z m275 -20 c3 -5 1 -10 -4 -10 -6 0 -11 5 -11 10 0 6 2 10 4 10 3
0 8 -4 11 -10z m470 -10 c-45 -11 -105 -11 -105 0 0 6 28 10 68 9 52 -1 60 -3
37 -9z"/>
<path d="M1461 1064 c0 -11 3 -14 6 -6 3 7 2 16 -1 19 -3 4 -6 -2 -5 -13z"/>
<path d="M1680 1005 c0 -10 29 -24 34 -17 3 6 -3 12 -14 15 -11 3 -20 4 -20 2z"/>
<path d="M1467 984 c6 -15 23 -19 23 -5 0 5 -7 11 -14 14 -10 4 -13 1 -9 -9z"/>
<path d="M1528 983 c7 -3 16 -2 19 1 4 3 -2 6 -13 5 -11 0 -14 -3 -6 -6z"/>
<path d="M370 1030 c-9 -6 -10 -10 -3 -10 6 0 15 5 18 10 8 12 4 12 -15 0z"/>
<path d="M560 799 c0 -5 5 -7 10 -4 6 3 10 8 10 11 0 2 -4 4 -10 4 -5 0 -10
-5 -10 -11z"/>
<path d="M410 780 c0 -5 5 -10 10 -10 6 0 10 5 10 10 0 6 -4 10 -10 10 -5 0
-10 -4 -10 -10z"/>
<path d="M420 719 c0 -11 25 -22 39 -17 6 1 -1 8 -14 15 -14 6 -25 7 -25 2z"/>
<path d="M370 870 c0 -5 7 -7 15 -4 8 4 15 8 15 10 0 2 -7 4 -15 4 -8 0 -15
-4 -15 -10z"/>
<path d="M675 710 c3 -5 8 -10 11 -10 2 0 4 5 4 10 0 6 -5 10 -11 10 -5 0 -7
-4 -4 -10z"/>
<path d="M788 630 c12 -10 22 -23 22 -29 0 -6 7 -8 15 -5 23 9 18 17 -23 36
-36 17 -37 17 -14 -2z"/>
<path d="M175 610 c-3 -5 -2 -10 4 -10 5 0 13 5 16 10 3 6 2 10 -4 10 -5 0
-13 -4 -16 -10z"/>
<path d="M690 606 c0 -10 74 -46 86 -42 21 8 17 28 -3 22 -10 -3 -31 1 -47 9
-30 16 -36 18 -36 11z"/>
<path d="M320 590 c20 -13 33 -13 25 0 -3 6 -14 10 -23 10 -15 0 -15 -2 -2
-10z"/>
<path d="M580 450 c-20 -16 -22 -20 -7 -20 9 0 17 -3 17 -7 0 -11 -63 -53 -79
-53 -7 0 -9 -5 -6 -10 3 -6 -1 -13 -9 -16 -9 -3 -16 -10 -16 -15 0 -11 31 4
52 24 7 7 33 28 58 47 25 18 37 30 28 27 -9 -3 -19 0 -22 8 -3 8 0 16 7 18 7
2 10 7 7 10 -3 3 -16 -3 -30 -13z"/>
<path d="M732 454 c10 -10 20 -15 24 -12 3 4 -5 12 -18 18 -22 12 -22 12 -6
-6z"/>
<path d="M855 460 c-3 -5 -2 -10 4 -10 5 0 13 5 16 10 3 6 2 10 -4 10 -5 0
-13 -4 -16 -10z"/>
<path d="M240 450 c8 -5 22 -10 30 -10 13 0 13 1 0 10 -8 5 -22 10 -30 10 -13
0 -13 -1 0 -10z"/>
<path d="M455 381 c3 -6 -3 -14 -12 -20 -10 -5 -15 -12 -11 -16 3 -4 18 1 33
11 20 13 23 19 13 25 -18 12 -31 11 -23 0z"/>
<path d="M375 314 c-31 -26 -28 -27 18 -5 15 8 27 18 27 23 0 14 -14 9 -45
-18z"/>
<path d="M414 292 c0 -11 9 -18 23 -18 28 -2 29 4 6 22 -24 18 -29 17 -29 -4z"/>
<path d="M190 251 c0 -27 11 -32 40 -15 l25 13 -23 1 c-13 0 -20 4 -17 10 3 6
-1 10 -9 10 -9 0 -16 -8 -16 -19z"/>
<path d="M265 260 c-3 -5 -1 -10 4 -10 6 0 11 5 11 10 0 6 -2 10 -4 10 -3 0
-8 -4 -11 -10z"/>
<path d="M1765 760 c-3 -5 -1 -10 4 -10 6 0 11 5 11 10 0 6 -2 10 -4 10 -3 0
-8 -4 -11 -10z"/>
<path d="M985 450 c3 -5 8 -10 11 -10 2 0 4 5 4 10 0 6 -5 10 -11 10 -5 0 -7
-4 -4 -10z"/>
<path d="M968 163 c7 -3 16 -2 19 1 4 3 -2 6 -13 5 -11 0 -14 -3 -6 -6z"/>
<path d="M675 190 c3 -5 8 -10 11 -10 2 0 4 5 4 10 0 6 -5 10 -11 10 -5 0 -7
-4 -4 -10z"/>
<path d="M640 179 c0 -5 5 -7 10 -4 6 3 10 8 10 11 0 2 -4 4 -10 4 -5 0 -10
-5 -10 -11z"/>
<path d="M1417 3694 c-3 -3 -76 -7 -161 -7 -120 -1 -156 -4 -156 -14 0 -18
-59 -17 -66 1 -4 11 -18 14 -52 10 -26 -2 -81 -6 -122 -7 -61 -3 -76 -6 -78
-20 -3 -14 5 -17 45 -17 26 -1 89 -4 138 -7 50 -4 134 -7 187 -8 83 0 98 -2
101 -17 8 -29 53 -44 82 -28 14 7 25 21 25 31 0 22 20 29 87 29 55 0 55 0 40
23 -8 12 -22 21 -31 19 -9 -2 -16 2 -16 8 0 11 -13 14 -23 4z"/>
<path d="M1550 3655 c-8 -9 -8 -15 -2 -15 12 0 26 19 19 26 -2 2 -10 -2 -17
-11z"/>
<path d="M320 3590 c0 -17 72 -42 84 -30 8 8 5 15 -8 26 -22 16 -76 19 -76 4z"/>
<path d="M1460 3585 c0 -8 7 -15 15 -15 8 0 15 7 15 15 0 8 -7 15 -15 15 -8 0
-15 -7 -15 -15z"/>
<path d="M810 3572 c0 -18 37 -42 65 -42 8 0 15 7 15 15 0 8 8 15 18 16 19 1
-54 27 -80 28 -11 1 -18 -6 -18 -17z"/>
<path d="M1850 3566 c0 -10 9 -16 25 -16 14 0 25 5 25 10 0 6 -4 10 -9 10 -5
0 -16 3 -25 6 -11 4 -16 1 -16 -10z"/>
<path d="M1560 3556 c0 -10 9 -16 21 -16 24 0 21 23 -4 28 -10 2 -17 -3 -17
-12z"/>
<path d="M92 3548 c5 -15 55 -35 64 -25 4 3 4 13 1 22 -8 19 -71 21 -65 3z"/>
<path d="M557 3553 c-4 -3 -7 -15 -7 -27 0 -17 -1 -18 -12 -4 -15 19 -61 32
-56 16 2 -6 20 -19 38 -30 30 -15 35 -16 40 -3 3 10 9 11 20 5 33 -21 41 -3
13 30 -19 21 -26 24 -36 13z"/>
<path d="M2084 3521 c3 -18 6 -50 7 -70 0 -29 2 -32 9 -16 10 24 2 96 -13 110
-6 7 -8 -1 -3 -24z"/>
<path d="M966 3533 c-4 -5 -18 -8 -29 -8 -18 0 -22 -6 -21 -30 0 -27 3 -30 35
-32 18 -1 45 -4 59 -8 27 -6 65 13 43 22 -8 3 -11 14 -7 27 4 18 0 25 -18 30
-31 8 -53 8 -62 -1z"/>
<path d="M1163 3523 c-7 -3 -13 -11 -13 -19 0 -8 6 -14 13 -14 6 0 24 -6 39
-14 26 -14 68 -11 68 4 0 11 -93 48 -107 43z"/>
<path d="M1700 3500 c0 -11 6 -20 14 -20 24 0 28 18 6 30 -17 9 -20 8 -20 -10z"/>
<path d="M456 3501 c-9 -15 4 -38 30 -56 22 -14 26 -14 40 0 18 17 9 39 -13
31 -9 -4 -17 1 -20 14 -5 21 -27 27 -37 11z"/>
<path d="M1365 3500 c-4 -6 1 -22 9 -35 21 -32 72 -35 81 -4 4 11 5 21 3 22
-1 1 -13 8 -25 15 -28 15 -60 16 -68 2z"/>
<path d="M208 3481 c-9 -15 -15 -17 -25 -9 -10 8 -13 7 -13 -4 0 -15 64 -62
100 -73 32 -10 24 18 -11 37 -37 21 -30 39 14 35 23 -1 32 2 32 13 0 10 -13
16 -42 18 -33 2 -45 -1 -55 -17z"/>
<path d="M1802 3488 c6 -18 28 -21 28 -4 0 9 -7 16 -16 16 -9 0 -14 -5 -12
-12z"/>
<path d="M1476 3473 c-13 -14 -5 -33 14 -33 11 0 20 6 20 14 0 15 -24 28 -34
19z"/>
<path d="M770 3447 c0 -16 43 -39 78 -43 31 -4 24 15 -14 37 -35 21 -64 24
-64 6z"/>
<path d="M1042 3442 c-20 -6 -14 -28 12 -42 27 -14 56 -8 56 12 0 15 -49 37
-68 30z"/>
<path d="M590 3426 c0 -14 45 -34 55 -24 8 7 -10 25 -32 32 -17 6 -23 3 -23
-8z"/>
<path d="M1625 3409 c-5 -14 -2 -25 6 -30 21 -13 33 -11 20 4 -8 10 -7 14 4
14 8 0 15 -7 15 -16 0 -12 2 -13 13 -2 10 10 7 16 -13 31 -32 25 -37 25 -45
-1z"/>
<path d="M164 3376 c-19 -15 -19 -15 3 -37 20 -20 23 -21 29 -6 3 9 17 17 30
17 29 0 31 15 5 30 -27 14 -44 13 -67 -4z"/>
<path d="M317 3373 c-12 -12 -7 -20 18 -31 31 -14 65 -16 65 -3 0 11 -45 41
-63 41 -8 0 -17 -3 -20 -7z"/>
<path d="M1740 3365 c0 -18 23 -35 46 -35 17 0 20 5 17 25 -4 19 -11 24 -34
22 -16 -1 -29 -7 -29 -12z"/>
<path d="M2101 3335 l1 -50 9 39 c6 26 6 43 -1 50 -7 7 -10 -6 -9 -39z"/>
<path d="M1350 3349 c0 -6 -9 -9 -19 -6 -27 7 -35 -20 -10 -34 21 -11 99 -3
99 10 0 11 -39 41 -55 41 -8 0 -15 -5 -15 -11z"/>
<path d="M1457 3354 c-11 -11 3 -24 18 -18 8 4 12 10 9 15 -6 11 -18 12 -27 3z"/>
<path d="M1826 3321 c-8 -12 13 -27 47 -35 36 -9 38 20 1 34 -31 12 -41 12
-48 1z"/>
<path d="M1640 3236 c0 -14 21 -26 46 -26 25 0 15 18 -16 29 -24 8 -30 7 -30
-3z"/>
<path d="M255 3226 c-16 -11 -17 -17 -7 -29 10 -12 19 -13 47 -4 37 11 46 31
19 41 -24 9 -38 7 -59 -8z"/>
<path d="M2012 3195 c0 -16 2 -22 5 -12 2 9 2 23 0 30 -3 6 -5 -1 -5 -18z"/>
<path d="M1790 3150 c-15 -27 -12 -40 8 -40 23 1 56 26 48 38 -12 20 -46 21
-56 2z"/>
<path d="M161 3126 c-15 -18 14 -52 52 -60 28 -7 37 7 13 21 -7 4 -18 18 -25
31 -13 25 -24 28 -40 8z"/>
<path d="M1740 3061 c0 -10 36 -21 44 -14 3 3 3 10 0 14 -7 12 -44 12 -44 0z"/>
<path d="M2066 3034 c-4 -9 -4 -19 -1 -22 2 -3 7 3 11 12 4 9 4 19 1 22 -2 3
-7 -3 -11 -12z"/>
<path d="M213 3020 c-13 -5 -23 -17 -23 -25 0 -13 9 -15 38 -13 29 2 37 7 37
23 0 23 -20 28 -52 15z"/>
<path d="M1897 3024 c-11 -11 3 -24 24 -24 12 0 19 5 17 13 -5 14 -31 21 -41
11z"/>
<path d="M136 2864 c-26 -26 -16 -49 27 -59 27 -7 38 7 16 20 -7 5 -5 13 5 24
28 31 -18 45 -48 15z"/>
<path d="M1907 2803 c-12 -11 -8 -21 13 -26 24 -6 38 12 19 24 -17 11 -24 11
-32 2z"/>
<path d="M1830 2751 c0 -13 37 -24 52 -15 8 5 6 10 -8 15 -27 11 -44 11 -44 0z"/>
<path d="M148 2674 c-17 -9 -25 -20 -22 -29 8 -19 9 -19 56 2 21 9 38 23 38
30 0 17 -38 16 -72 -3z"/>
<path d="M2072 2490 c0 -14 2 -19 5 -12 2 6 2 18 0 25 -3 6 -5 1 -5 -13z"/>
<path d="M1536 2404 c-9 -24 -7 -28 9 -14 17 14 20 30 6 30 -5 0 -12 -7 -15
-16z"/>
<path d="M2050 2388 c0 -19 2 -20 10 -8 13 19 13 30 0 30 -5 0 -10 -10 -10
-22z"/>
<path d="M1980 2370 c0 -5 7 -7 15 -4 8 4 15 8 15 10 0 2 -7 4 -15 4 -8 0 -15
-4 -15 -10z"/>
<path d="M2100 2356 c0 -14 -4 -28 -10 -31 -5 -3 -11 -18 -11 -33 l-1 -27 -8
30 c-6 24 -8 18 -8 -30 l-1 -60 20 45 20 45 -5 -37 c-3 -21 -1 -38 5 -38 5 0
9 36 9 80 0 44 -2 80 -5 80 -3 0 -5 -11 -5 -24z"/>
<path d="M1374 2349 c-5 -8 -30 -10 -87 -6 -83 7 -142 -9 -154 -40 -3 -7 -8
-11 -12 -9 -4 3 -8 -4 -8 -15 -2 -17 1 -18 25 -5 45 22 91 27 115 12 16 -11
40 -13 90 -9 65 6 67 7 67 33 0 32 -24 58 -36 39z"/>
<path d="M1880 2284 c0 -8 5 -12 10 -9 6 3 10 1 10 -4 0 -6 7 -11 15 -11 23 0
18 16 -10 28 -21 10 -25 9 -25 -4z"/>
<path d="M1800 2270 c0 -5 5 -10 10 -10 6 0 10 5 10 10 0 6 -4 10 -10 10 -5 0
-10 -4 -10 -10z"/>
<path d="M1950 2265 c14 -16 40 -20 40 -6 0 9 -24 21 -42 21 -6 0 -6 -6 2 -15z"/>
<path d="M2094 2188 c3 -13 6 -34 6 -47 0 -13 3 -21 7 -17 18 18 11 86 -8 86
-7 0 -9 -9 -5 -22z"/>
<path d="M2070 2120 c0 -40 3 -70 7 -67 7 7 5 128 -2 136 -3 2 -5 -29 -5 -69z"/>
<path d="M1295 2145 c-30 -26 -49 -35 -78 -35 -23 0 -36 4 -32 10 3 6 -5 10
-19 10 -14 0 -28 5 -31 10 -9 15 -25 12 -25 -5 0 -9 11 -21 25 -27 14 -6 25
-17 25 -23 0 -20 39 -25 82 -9 22 8 47 14 54 14 25 0 54 34 54 62 0 36 -6 35
-55 -7z"/>
<path d="M1790 2131 c0 -17 18 -31 41 -31 5 0 9 9 9 21 0 11 -4 17 -10 14 -5
-3 -10 -1 -10 4 0 6 -7 11 -15 11 -8 0 -15 -9 -15 -19z"/>
<path d="M980 2125 c0 -8 5 -15 10 -15 6 0 10 7 10 15 0 8 -4 15 -10 15 -5 0
-10 -7 -10 -15z"/>
<path d="M2109 2073 c0 -31 -2 -34 -10 -18 -8 18 -8 18 -6 -4 1 -14 8 -26 15
-29 8 -2 12 10 12 42 0 55 -10 62 -11 9z"/>
<path d="M1900 2060 c0 -5 7 -10 15 -10 8 0 15 5 15 10 0 6 -7 10 -15 10 -8 0
-15 -4 -15 -10z"/>
<path d="M1771 2041 c-20 -13 -4 -31 29 -31 39 0 47 18 15 30 -31 12 -27 12
-44 1z"/>
<path d="M1420 1998 c-12 -22 -12 -22 6 -6 10 10 15 20 12 24 -4 3 -12 -5 -18
-18z"/>
<path d="M1970 1990 c20 -13 33 -13 25 0 -3 6 -14 10 -23 10 -15 0 -15 -2 -2
-10z"/>
<path d="M2103 1985 c0 -8 4 -12 9 -9 4 3 8 9 8 15 0 5 -4 9 -8 9 -5 0 -9 -7
-9 -15z"/>
<path d="M970 1981 c0 -4 10 -23 23 -42 12 -19 28 -46 34 -61 8 -17 20 -28 32
-28 11 0 26 -3 35 -6 9 -3 16 -2 16 4 0 5 -14 12 -30 16 -17 3 -33 14 -37 23
-9 28 -57 103 -65 103 -5 0 -8 -4 -8 -9z"/>
<path d="M213 1904 c-24 -10 -33 -21 -33 -38 0 -20 16 -36 35 -36 10 0 54 74
49 82 -7 10 -12 9 -51 -8z"/>
<path d="M305 1910 c-10 -16 4 -30 31 -30 26 0 31 9 12 28 -15 15 -35 16 -43
2z"/>
<path d="M1835 1879 c-9 -14 -4 -18 34 -29 29 -8 31 -7 31 16 0 20 -5 24 -29
24 -17 0 -33 -5 -36 -11z"/>
<path d="M290 1850 c0 -5 11 -10 25 -10 14 0 25 5 25 10 0 6 -11 10 -25 10
-14 0 -25 -4 -25 -10z"/>
<path d="M1744 1839 c-3 -6 -2 -15 4 -21 13 -13 32 -2 32 18 0 16 -26 19 -36
3z"/>
<path d="M2051 1776 c0 -44 1 -77 3 -75 11 11 14 62 6 106 -7 45 -8 44 -9 -31z"/>
<path d="M300 1810 c0 -5 5 -10 11 -10 5 0 7 5 4 10 -3 6 -8 10 -11 10 -2 0
-4 -4 -4 -10z"/>
<path d="M1935 1800 c3 -5 13 -10 21 -10 8 0 12 5 9 10 -3 6 -13 10 -21 10 -8
0 -12 -4 -9 -10z"/>
<path d="M2096 1756 c2 -16 4 -45 4 -65 0 -25 3 -32 9 -22 7 11 11 6 14 -20 2
-20 4 -10 5 26 0 42 -2 54 -8 40 -8 -18 -9 -17 -9 8 -1 19 3 26 11 21 7 -4 8
-3 4 5 -4 6 -11 9 -16 6 -5 -3 -11 3 -13 12 -2 10 -3 5 -1 -11z"/>
<path d="M1840 1715 c0 -11 11 -15 37 -15 35 0 36 1 17 15 -25 19 -54 19 -54
0z"/>
<path d="M1720 1687 c0 -11 39 -37 54 -37 8 0 0 36 -9 42 -17 13 -45 9 -45 -5z"/>
<path d="M1820 1680 c-7 -4 -9 -13 -6 -19 10 -16 46 -14 46 3 0 17 -23 27 -40
16z"/>
<path d="M172 1611 c-25 -16 -9 -46 26 -49 18 -2 32 1 32 7 0 6 -4 11 -10 11
-5 0 -10 9 -10 20 0 21 -16 26 -38 11z"/>
<path d="M2062 1600 c0 -14 2 -19 5 -12 2 6 2 18 0 25 -3 6 -5 1 -5 -13z"/>
<path d="M1855 1560 c-8 -13 3 -30 20 -30 20 0 30 21 14 31 -18 11 -26 11 -34
-1z"/>
<path d="M2132 1545 c0 -16 2 -22 5 -12 2 9 2 23 0 30 -3 6 -5 -1 -5 -18z"/>
<path d="M686 1537 c3 -10 9 -15 12 -12 3 3 0 11 -7 18 -10 9 -11 8 -5 -6z"/>
<path d="M1710 1536 c0 -14 36 -46 50 -46 4 0 5 14 2 30 -3 24 -9 30 -28 30
-14 0 -24 -6 -24 -14z"/>
<path d="M2086 1528 c4 -6 9 -37 11 -67 2 -31 8 -76 14 -99 5 -24 7 -52 4 -62
-3 -10 -1 -21 4 -24 12 -8 9 232 -2 252 -5 6 -15 12 -23 12 -9 0 -12 -5 -8
-12z m34 -22 c0 -3 -4 -8 -10 -11 -5 -3 -10 -1 -10 4 0 6 5 11 10 11 6 0 10
-2 10 -4z m-3 -88 c-3 -7 -5 -2 -5 12 0 14 2 19 5 13 2 -7 2 -19 0 -25z"/>
<path d="M2049 1520 c-1 -8 0 -25 0 -37 3 -37 -18 -36 -25 2 -6 35 -17 44 -29
25 -3 -5 6 -27 20 -49 14 -23 25 -52 25 -65 0 -14 5 -28 11 -32 8 -4 9 1 4 16
-5 15 -4 20 4 16 6 -4 11 -2 11 4 0 6 4 8 10 5 14 -9 0 85 -16 110 -11 14 -14
16 -15 5z"/>
<path d="M1900 1457 c0 -8 9 -22 20 -32 18 -16 20 -16 20 -2 0 10 -4 17 -10
17 -5 0 -7 7 -4 15 4 9 0 15 -10 15 -9 0 -16 -6 -16 -13z"/>
<path d="M1668 1438 c-13 -37 15 -74 46 -62 16 6 17 55 1 66 -16 12 -43 9 -47
-4z"/>
<path d="M785 1370 c-11 -5 -39 -9 -62 -9 -23 -1 -45 -5 -48 -11 -3 -6 5 -10
19 -10 37 0 126 22 126 32 0 10 -9 9 -35 -2z"/>
<path d="M918 1352 c-16 -9 -28 -23 -28 -32 1 -11 5 -9 19 7 10 12 21 20 23
17 3 -2 11 2 18 11 16 20 2 19 -32 -3z"/>
<path d="M2070 1360 c0 -8 5 -22 10 -30 9 -13 10 -13 10 0 0 8 -5 22 -10 30
-9 13 -10 13 -10 0z"/>
<path d="M830 1304 c-25 -13 -34 -22 -20 -18 47 13 70 24 70 34 0 13 3 14 -50
-16z"/>
<path d="M1594 1319 c-8 -13 5 -26 31 -31 14 -2 21 3 23 20 3 18 -1 22 -22 22
-14 0 -28 -5 -32 -11z"/>
<path d="M1745 1311 c-7 -12 33 -51 52 -51 7 0 13 5 13 10 0 6 -4 10 -10 10
-5 0 -10 9 -10 20 0 21 -33 29 -45 11z"/>
<path d="M1622 1259 c2 -7 10 -15 17 -17 8 -3 12 1 9 9 -2 7 -10 15 -17 17 -8
3 -12 -1 -9 -9z"/>
<path d="M2040 1240 c0 -5 5 -10 11 -10 5 0 7 5 4 10 -3 6 -8 10 -11 10 -2 0
-4 -4 -4 -10z"/>
<path d="M1910 1217 c0 -8 9 -22 20 -32 17 -16 20 -16 20 -2 0 8 -6 18 -12 20
-10 4 -10 6 0 6 20 2 13 21 -8 21 -11 0 -20 -6 -20 -13z"/>
<path d="M1790 1205 c0 -11 7 -15 23 -13 12 2 22 8 22 13 0 6 -10 11 -22 13
-16 2 -23 -2 -23 -13z"/>
<path d="M2040 1210 c0 -5 5 -10 10 -10 6 0 10 5 10 10 0 6 -4 10 -10 10 -5 0
-10 -4 -10 -10z"/>
<path d="M2135 1180 c-5 -19 -8 -38 -7 -42 1 -5 -2 -8 -7 -8 -5 0 -11 14 -15
32 -10 49 -19 25 -11 -29 6 -37 9 -43 15 -28 6 17 9 15 14 -15 13 -66 12 -149
-2 -155 -7 -3 -10 -1 -7 4 3 5 1 12 -5 16 -5 3 -7 18 -4 33 4 21 3 24 -5 12
-13 -18 -14 -50 -2 -50 4 0 6 -11 4 -24 -3 -16 2 -32 17 -48 l22 -23 -4 37
c-2 21 0 39 4 40 5 2 7 66 6 143 -3 110 -5 132 -13 105z"/>
<path d="M1652 1188 c3 -7 13 -15 22 -16 12 -3 17 1 14 10 -3 7 -13 15 -22 16
-12 3 -17 -1 -14 -10z"/>
<path d="M1815 1140 c-9 -15 2 -27 30 -33 19 -3 25 -1 23 11 -4 18 -45 35 -53
22z"/>
<path d="M30 950 c0 -5 10 -10 23 -10 18 0 19 2 7 10 -19 13 -30 13 -30 0z"/>
<path d="M1987 942 c-8 -11 4 -27 26 -35 11 -4 20 -1 24 9 6 18 5 19 -24 28
-12 4 -24 3 -26 -2z"/>
<path d="M2106 851 c-4 -7 -14 -10 -22 -7 -8 3 -14 -1 -14 -9 0 -8 6 -15 13
-15 21 0 40 17 35 31 -3 10 -6 10 -12 0z"/>
<path d="M1530 590 c0 -5 5 -10 10 -10 6 0 10 5 10 10 0 6 -4 10 -10 10 -5 0
-10 -4 -10 -10z"/>
<path d="M1590 470 c0 -12 34 -30 55 -30 9 0 14 4 11 9 -9 13 -66 32 -66 21z"/>
<path d="M1377 463 c-4 -3 -7 -11 -7 -17 0 -6 5 -5 12 2 6 6 9 14 7 17 -3 3
-9 2 -12 -2z"/>
<path d="M1470 448 c-35 -28 -116 -106 -173 -167 -32 -33 -47 -57 -43 -67 7
-20 32 -12 28 8 -1 8 12 31 30 51 18 20 40 44 49 54 8 10 44 44 78 76 61 56
81 86 31 45z"/>
<path d="M1750 406 c14 -9 32 -15 40 -15 13 0 13 1 0 8 -8 5 -26 12 -40 15
l-25 7 25 -15z"/>
<path d="M1800 373 c-13 -15 -12 -16 4 -10 10 4 22 7 27 7 5 0 9 5 9 10 0 15
-23 11 -40 -7z"/>
<path d="M1925 341 c6 -5 26 -12 45 -15 41 -7 22 7 -25 18 -20 5 -27 4 -20 -3z"/>
<path d="M1376 59 c6 -10 106 -10 124 1 5 3 -21 7 -60 7 -42 1 -68 -2 -64 -8z"/>
<path d="M1520 66 c0 -8 61 -12 66 -4 3 4 -11 8 -30 8 -20 0 -36 -2 -36 -4z"/>
<path d="M1638 63 c12 -2 32 -2 45 0 12 2 2 4 -23 4 -25 0 -35 -2 -22 -4z"/>
<path d="M2125 50 c-3 -5 1 -10 10 -10 9 0 13 5 10 10 -3 6 -8 10 -10 10 -2 0
-7 -4 -10 -10z"/>
</g>
</svg>
