<?xml version="1.0" standalone="no"?>
<!DOCTYPE svg PUBLIC "-//W3C//DTD SVG 20010904//EN"
 "http://www.w3.org/TR/2001/REC-SVG-20010904/DTD/svg10.dtd">
<svg version="1.0" xmlns="http://www.w3.org/2000/svg"
 width="304.000000pt" height="256.000000pt" viewBox="0 0 304.000000 256.000000"
 preserveAspectRatio="xMidYMid meet">
<metadata>
Created by potrace 1.16, written by Peter Selinger 2001-2019
</metadata>
<g transform="translate(0.000000,256.000000) scale(0.100000,-0.100000)"
fill="#000000" stroke="none">
<path d="M2373 2524 c-23 -17 -203 -28 -203 -13 0 28 -77 -5 -79 -33 -1 -5 -4
-7 -8 -5 -5 1 -7 14 -6 29 2 22 0 25 -20 21 -12 -3 -29 -12 -38 -19 -10 -9
-50 -15 -111 -18 -53 -2 -101 -6 -107 -10 -6 -4 -16 -4 -22 0 -8 4 -7 9 2 15
7 4 10 11 6 15 -4 4 -16 -1 -27 -11 -18 -17 -34 -18 -180 -12 -141 6 -160 5
-160 -9 0 -13 -10 -15 -67 -9 -38 4 -173 6 -301 5 -162 -1 -237 2 -247 10 -9
7 -15 8 -20 0 -9 -15 -112 -13 -118 3 -4 10 -7 10 -18 0 -9 -10 -65 -13 -206
-13 -148 0 -193 -3 -193 -12 0 -8 -16 -14 -45 -15 -97 -3 -125 -6 -125 -14 0
-5 -7 -9 -15 -9 -13 0 -16 -12 -14 -67 6 -228 3 -454 -11 -653 -6 -80 -13
-318 -17 -529 -6 -360 -5 -385 11 -397 12 -8 15 -17 10 -26 -11 -17 -11 -16
-19 -318 -7 -275 -3 -340 21 -340 8 0 17 7 21 16 4 12 22 15 92 13 91 -3 132
5 130 24 -3 28 4 33 48 36 65 3 68 11 5 11 -47 0 -66 10 -43 24 13 8 21 45 11
51 -5 3 -14 -13 -21 -35 -9 -28 -18 -40 -31 -40 -16 0 -14 9 22 78 22 43 40
84 40 90 0 7 4 12 8 12 10 0 52 85 52 106 0 9 -6 14 -12 11 -7 -2 -12 -10 -10
-17 2 -7 -6 -22 -16 -34 -24 -26 -48 -76 -57 -117 -7 -29 -27 -66 -72 -129
-10 -14 -17 -28 -15 -33 1 -4 -7 -7 -18 -7 -11 0 -20 5 -20 11 0 6 -9 9 -20 6
-23 -6 -25 -2 -8 17 7 7 22 11 34 8 18 -3 23 0 22 14 -1 11 11 50 26 87 15 38
26 73 24 78 -3 9 -46 -70 -67 -123 -13 -34 -31 -37 -25 -5 3 17 1 16 -8 -5 -7
-16 -20 -28 -29 -28 -10 0 -21 -5 -25 -12 -5 -8 -2 -9 9 -5 11 4 17 1 17 -7 0
-8 -9 -16 -20 -19 -18 -5 -20 0 -20 53 0 33 5 62 11 66 7 4 9 38 5 103 -4 59
-3 88 3 76 5 -11 7 -33 4 -50 -4 -25 -2 -27 7 -13 22 35 40 98 28 98 -7 0 -4
6 5 12 20 16 32 71 14 65 -7 -2 -14 -17 -17 -33 -8 -43 -17 -18 -25 66 -4 41
-9 86 -12 100 -7 39 -23 401 -18 410 3 5 5 108 6 229 1 184 3 221 15 221 8 0
14 8 14 18 0 9 12 37 26 62 23 41 24 43 4 25 -12 -11 -31 -36 -41 -55 l-20
-35 6 40 c8 50 117 268 199 397 33 53 79 126 101 162 103 171 150 236 171 236
16 0 19 -16 4 -25 -8 -5 -218 -353 -250 -413 -24 -48 0 -32 35 22 57 90 55 74
-9 -56 -16 -32 -32 -58 -37 -58 -5 0 -9 -9 -9 -21 0 -12 -14 -39 -31 -60 -17
-21 -29 -47 -27 -56 3 -13 10 -6 28 25 59 101 208 359 235 408 17 29 40 65 53
79 12 14 22 28 22 32 0 4 18 34 40 68 37 57 42 61 71 57 25 -4 30 -8 25 -26
-5 -19 -3 -19 14 4 12 16 29 25 47 25 15 1 38 4 50 9 19 6 22 4 16 -10 -4 -12
-3 -15 5 -10 7 4 12 14 12 22 0 8 5 12 10 9 25 -15 165 -22 260 -13 25 3 57 1
70 -4 24 -9 22 -12 -71 -101 -52 -51 -103 -104 -112 -119 -16 -25 -140 -161
-221 -241 -21 -21 -36 -40 -34 -42 6 -6 303 293 317 318 7 12 25 31 42 42 16
11 50 44 75 73 33 38 52 52 72 52 25 0 24 -3 -31 -58 -31 -32 -57 -65 -57 -74
0 -8 -7 -21 -15 -28 -17 -14 -20 -40 -4 -40 6 0 17 -7 25 -15 14 -13 13 -18
-5 -41 -18 -23 -21 -24 -21 -8 -1 22 -33 64 -50 64 -8 0 -10 -9 -6 -25 4 -14
2 -25 -4 -25 -5 0 -22 -14 -37 -30 -15 -17 -42 -40 -60 -51 -18 -11 -33 -26
-33 -32 0 -7 -9 -18 -20 -25 -21 -13 -28 -42 -10 -42 23 0 6 -29 -50 -85 -56
-55 -79 -66 -45 -21 20 26 19 36 -3 36 -22 0 -62 -40 -62 -61 1 -11 4 -10 14
4 20 26 29 20 10 -8 -12 -19 -13 -25 -3 -25 7 0 -5 -19 -27 -42 -22 -24 -55
-61 -74 -83 -19 -22 -38 -39 -42 -37 -4 1 -8 -4 -8 -12 0 -15 -77 -86 -94 -86
-5 0 0 10 12 23 12 13 22 25 22 28 0 3 40 46 89 97 66 69 88 98 84 112 -5 19
-7 18 -35 -9 -16 -16 -31 -37 -33 -47 -1 -11 -8 -18 -14 -16 -7 1 -24 -12 -39
-30 -15 -18 -43 -49 -62 -69 -43 -44 -70 -77 -70 -86 0 -4 -17 -24 -37 -45
-34 -35 -41 -66 -9 -39 30 25 38 0 10 -30 -32 -34 -44 -36 -44 -10 0 11 -9 23
-20 26 -11 3 -20 12 -20 19 0 12 27 53 55 82 5 6 44 49 85 95 116 130 172 191
205 221 16 15 25 28 19 28 -5 0 -25 -16 -44 -35 -31 -32 -58 -39 -44 -12 3 7
-6 -1 -20 -16 -14 -15 -26 -36 -26 -45 0 -28 -195 -244 -239 -265 -42 -20
-104 -121 -132 -216 -7 -24 -21 -48 -32 -55 -19 -11 -51 -75 -42 -84 2 -3 11
1 20 8 10 8 15 9 15 1 0 -23 29 -10 48 22 10 18 66 71 123 117 57 45 106 88
108 93 2 6 33 40 69 76 35 37 98 104 140 151 119 133 195 210 209 210 7 0 13
6 13 13 0 13 49 63 95 97 16 12 16 10 -3 -11 -22 -26 -29 -63 -13 -73 10 -7
71 25 71 36 0 4 19 29 43 56 24 27 63 76 86 110 24 34 48 59 53 56 6 -4 6 -9
1 -13 -17 -12 -45 -89 -38 -103 5 -7 5 -10 0 -6 -19 18 -173 -371 -265 -672
-17 -58 -43 -139 -57 -180 -14 -41 -26 -83 -28 -92 -2 -9 -13 -38 -24 -64 -22
-49 -21 -65 3 -45 10 9 15 9 18 1 2 -6 12 12 22 42 9 29 23 69 30 88 8 19 18
51 24 70 44 148 75 240 78 237 2 -2 -1 -19 -6 -38 -13 -43 -13 -58 0 -39 13
21 0 -59 -14 -85 -15 -28 -37 -113 -40 -155 -1 -19 -8 -45 -14 -57 -7 -13 -9
-23 -4 -23 5 0 19 23 32 51 14 28 34 65 47 82 12 16 20 34 17 38 -3 5 0 9 5 9
6 0 11 8 11 18 0 9 20 49 45 87 67 106 58 74 -31 -111 -19 -39 -34 -76 -34
-81 0 -6 -7 -14 -16 -17 -9 -4 -14 -13 -10 -22 3 -8 2 -13 -3 -10 -11 7 -56
-51 -65 -84 -7 -24 -6 -24 8 -6 9 11 16 24 16 30 0 5 2 7 5 4 3 -3 -1 -21 -9
-39 -8 -19 -18 -43 -21 -54 -7 -19 -7 -19 -14 -1 -5 14 -13 3 -35 -47 -29 -69
-32 -115 -3 -62 20 38 21 24 2 -40 -18 -59 -57 -140 -85 -175 -26 -34 -25 -21
6 46 14 31 23 58 20 61 -5 5 -19 -23 -60 -119 -32 -73 -78 -184 -92 -222 -8
-22 -19 -45 -25 -52 -19 -23 -29 -88 -16 -96 21 -13 47 -9 47 8 0 11 -6 14
-20 9 -26 -8 -26 8 -1 49 11 17 38 81 60 141 39 104 63 141 82 129 12 -7 45
50 65 108 8 26 40 94 70 150 49 94 69 158 44 143 -5 -3 -2 11 6 32 22 51 24
52 18 7 l-5 -39 22 40 c34 61 149 323 149 339 0 8 6 21 13 28 7 7 17 22 21 33
18 45 14 105 -5 74 -15 -24 -16 -5 -2 29 11 27 16 30 27 20 7 -7 11 -19 9 -25
-3 -7 0 -13 6 -13 7 0 19 17 28 38 8 20 26 61 39 90 13 29 24 56 24 61 0 5 9
20 21 35 11 14 18 30 15 34 -3 5 6 25 19 45 14 20 25 42 25 49 0 16 67 136 97
172 19 23 25 26 43 16 12 -6 28 -9 35 -6 8 3 17 1 20 -5 4 -5 23 -9 43 -8 36
1 80 -6 112 -18 8 -3 26 -7 39 -9 13 -2 28 -9 32 -16 5 -7 9 -10 9 -6 0 6 72
-10 150 -33 19 -6 51 -12 70 -14 19 -1 55 -9 80 -18 25 -8 79 -23 120 -32 41
-9 91 -21 110 -26 19 -5 73 -18 120 -29 108 -27 281 -86 289 -99 4 -6 12 -7
21 -1 26 16 30 11 30 -35 0 -25 4 -45 9 -45 13 0 20 -37 14 -76 -3 -19 -11
-34 -19 -34 -8 0 -14 -10 -14 -24 0 -36 -10 -56 -29 -56 -9 0 -47 16 -85 35
-39 19 -77 35 -85 35 -9 0 -38 11 -65 25 -61 31 -66 31 -66 1 0 -27 15 -42 25
-26 9 15 44 12 61 -5 9 -8 27 -15 41 -15 17 0 27 -7 30 -21 4 -14 12 -19 24
-16 18 5 107 -36 122 -57 6 -8 10 -7 14 2 2 6 12 12 21 11 10 0 12 -3 6 -5 -7
-3 -10 -13 -7 -23 9 -35 -18 -33 -72 3 -48 33 -58 36 -112 34 -39 -1 -69 3
-84 13 -27 16 -82 14 -76 -4 6 -18 44 -25 135 -26 78 -1 85 -3 113 -30 16 -17
45 -36 64 -42 19 -7 35 -19 35 -26 0 -7 6 -13 13 -13 8 0 9 -2 1 -8 -8 -5 -12
-99 -13 -317 0 -170 -3 -340 -5 -377 -4 -55 -3 -68 9 -68 8 0 15 -4 15 -10 0
-5 -7 -7 -17 -3 -15 6 -15 -2 -8 -83 4 -49 9 -116 10 -149 1 -33 6 -76 10 -95
4 -19 8 -37 7 -40 0 -3 4 -13 9 -22 15 -27 36 -12 31 22 -3 19 0 30 7 30 9 0
9 6 0 22 -17 32 -17 212 0 232 10 12 12 31 6 69 -6 43 -15 383 -15 580 0 33
-4 47 -14 47 -19 0 -23 18 -15 65 5 34 14 23 10 -13 -1 -6 3 -12 9 -12 13 0
13 49 -1 88 -8 24 -7 35 6 56 19 28 17 82 -2 79 -18 -4 -17 89 1 147 l15 45 0
-72 c1 -46 5 -73 12 -73 18 0 1 202 -18 215 -12 9 -13 27 -7 106 8 94 8 94 18
47 9 -45 19 -58 29 -40 3 4 -1 39 -8 77 -8 48 -11 163 -9 355 l3 285 28 5 28
6 -35 19 c-19 10 -57 19 -85 21 -27 1 -58 4 -67 8 -10 3 -25 8 -33 11 -9 2
-37 -3 -62 -11 -40 -14 -55 -14 -99 -4 -28 7 -80 11 -116 8 -59 -3 -65 -2 -60
14 5 22 -6 22 -35 2z m350 -40 c3 -4 -4 -15 -16 -25 -26 -22 -16 -24 21 -5 18
9 40 11 67 7 l40 -7 -35 -18 c-65 -31 -92 -48 -86 -53 2 -3 40 13 82 36 78 40
98 45 74 17 -8 -10 -10 -29 -5 -56 6 -37 4 -43 -21 -63 -15 -12 -48 -31 -73
-42 -67 -29 -87 -42 -78 -51 4 -5 17 -3 27 4 11 7 31 12 46 12 17 0 28 6 31
19 4 16 18 26 66 49 4 2 7 -24 7 -58 0 -35 -4 -59 -9 -55 -5 3 -12 -3 -15 -13
-6 -18 -17 -19 -150 -17 -79 2 -159 6 -176 10 -21 5 -30 4 -26 -3 3 -5 58 -15
121 -22 114 -12 126 -18 106 -49 -17 -26 19 -51 74 -52 27 0 44 -3 37 -6 -17
-7 -5 -23 19 -23 10 0 19 -5 19 -11 0 -6 -7 -9 -15 -5 -17 6 -17 4 -19 -149
-2 -104 -8 -131 -27 -128 -15 1 -19 3 -169 52 -52 17 -104 31 -116 31 -12 0
-34 11 -50 25 -42 37 -53 45 -59 45 -10 0 -5 -36 7 -48 19 -19 -12 -15 -33 4
-11 10 -41 18 -77 20 -32 1 -70 8 -85 13 -29 11 -35 19 -14 18 32 -1 48 4 42
13 -7 11 -56 2 -65 -11 -10 -14 -75 6 -75 23 0 25 -11 31 -33 19 -15 -8 -23
-7 -32 4 -8 10 -17 12 -29 5 -20 -10 -64 -2 -56 10 3 4 -5 10 -18 14 -12 3
-23 1 -25 -4 -2 -6 -8 -10 -13 -10 -31 0 47 48 88 54 21 3 31 36 11 36 -7 0
-21 -9 -31 -20 -9 -11 -25 -20 -34 -21 -10 -1 -36 -2 -58 -3 -22 0 -43 -5 -46
-10 -4 -5 -21 -1 -39 8 -18 9 -43 13 -56 10 -13 -3 -42 1 -64 10 -22 9 -52 16
-67 16 -35 0 -24 10 19 17 45 6 66 27 49 47 -12 14 -16 14 -40 -3 -34 -24 -79
-33 -116 -23 l-29 8 42 17 c23 9 51 17 62 17 11 0 20 6 20 14 0 18 -65 19 -80
1 -6 -7 -33 -19 -61 -26 -27 -7 -49 -16 -49 -21 0 -18 6 -23 24 -19 14 2 17
-1 12 -15 -6 -15 -4 -15 11 -3 17 13 17 13 0 -13 -10 -16 -14 -28 -10 -28 5 0
3 -4 -2 -8 -13 -9 -65 -79 -65 -87 0 -4 -13 -26 -30 -50 -16 -24 -30 -48 -30
-54 0 -6 -7 -11 -16 -11 -8 0 -12 -4 -9 -10 3 -5 0 -10 -8 -10 -17 0 -49 -34
-40 -43 3 -4 -4 -18 -17 -32 -29 -31 -15 -33 18 -2 l24 22 -13 -27 c-7 -16
-15 -28 -18 -28 -3 0 -19 -11 -35 -25 -31 -26 -41 -31 -31 -15 3 6 2 10 -3 10
-10 0 -22 -23 -22 -41 0 -11 30 0 53 19 9 8 17 13 17 10 0 -12 -35 -75 -52
-93 -10 -10 -36 -53 -57 -95 -21 -42 -51 -96 -66 -120 -15 -24 -39 -67 -52
-94 -33 -69 -20 -13 16 67 42 95 49 116 65 202 23 123 196 621 246 707 5 10 7
24 4 31 -6 18 98 28 221 22 164 -7 561 -36 575 -41 8 -3 69 -10 135 -15 66 -5
139 -12 163 -15 24 -4 42 -2 42 3 0 5 -53 16 -117 23 -65 7 -121 18 -125 23
-3 6 -55 12 -115 14 -59 2 -162 8 -228 14 -66 5 -166 13 -223 16 -84 5 -100 8
-91 19 15 19 -7 19 -26 1 -14 -15 -115 -23 -115 -10 0 5 14 17 30 26 17 10 30
23 30 29 0 6 -8 4 -17 -5 -10 -8 -35 -18 -56 -22 -27 -5 -37 -12 -33 -21 4 -9
-2 -14 -17 -15 -12 -1 -35 -3 -51 -5 -22 -2 -26 0 -17 9 6 6 18 12 25 12 19 0
116 91 116 109 0 16 116 28 252 26 42 -1 87 4 99 10 15 8 19 9 15 1 -5 -7 2
-11 18 -11 14 0 28 5 31 10 10 16 85 12 91 -4 6 -16 74 -12 112 7 19 9 25 8
32 -3 7 -12 12 -12 22 -2 15 15 48 16 48 1 0 -8 4 -8 14 0 11 9 15 9 18 -1 3
-9 14 -8 42 6 31 14 74 19 220 23 99 3 191 6 204 5 12 0 22 6 22 14 0 14 21
19 33 8z m-673 -14 c0 -5 -4 -10 -10 -10 -5 0 -10 5 -10 10 0 6 5 10 10 10 6
0 10 -4 10 -10z m-492 -7 c-15 -2 -42 -2 -60 0 -18 2 -6 4 27 4 33 0 48 -2 33
-4z m72 3 c0 -3 -4 -8 -10 -11 -5 -3 -10 -1 -10 4 0 6 5 11 10 11 6 0 10 -2
10 -4z m-1426 -47 c14 -7 22 -17 19 -25 -6 -16 13 -19 22 -4 9 15 27 12 19 -2
-4 -7 2 -5 13 5 23 20 69 23 76 5 4 -9 8 -10 14 -2 8 11 124 14 119 4 -12 -24
-87 -146 -116 -190 -21 -30 -48 -75 -60 -100 -13 -25 -44 -76 -70 -115 -27
-38 -55 -87 -64 -108 -23 -55 -39 -38 -34 35 2 33 9 63 14 66 16 12 45 62 35
62 -5 0 -16 -10 -25 -22 -15 -22 -15 -21 -9 22 3 25 13 53 21 63 8 9 12 20 8
24 -4 4 -11 1 -16 -7 -7 -11 -10 -1 -10 31 0 32 6 55 21 73 12 15 18 30 14 34
-4 4 -13 -2 -21 -12 -8 -11 -14 -16 -14 -12 0 5 14 24 30 43 31 35 38 53 19
53 -6 0 -13 -9 -16 -19 -3 -11 -12 -22 -20 -25 -10 -4 -13 -1 -9 12 3 9 7 41
8 70 1 28 3 52 5 52 1 0 13 -5 27 -11z m1156 -17 c0 -5 -11 -19 -25 -32 -14
-13 -25 -20 -25 -15 0 5 -17 -7 -37 -26 -21 -19 -51 -46 -68 -59 l-29 -25 29
36 c17 20 40 43 53 50 13 7 30 28 39 46 11 24 22 33 39 33 13 0 24 -4 24 -8z
m-1233 -114 c-3 -8 -6 -5 -6 6 -1 11 2 17 5 13 3 -3 4 -12 1 -19z m1193 -52
c0 -11 -19 -15 -25 -6 -3 5 1 10 9 10 9 0 16 -2 16 -4z m-1203 -58 c-3 -8 -6
-5 -6 6 -1 11 2 17 5 13 3 -3 4 -12 1 -19z m1111 -21 c-9 -7 -22 -22 -30 -35
-26 -39 -180 -202 -191 -202 -5 0 5 16 24 36 106 112 128 135 164 181 22 28
42 46 44 41 1 -5 -3 -15 -11 -21z m63 6 c-12 -20 -14 -14 -5 12 4 9 9 14 11
11 3 -2 0 -13 -6 -23z m-1218 -98 c3 -72 1 -96 -4 -70 -8 42 -12 191 -5 184 3
-3 7 -54 9 -114z m1204 53 c-3 -8 -6 -5 -6 6 -1 11 2 17 5 13 3 -3 4 -12 1
-19z m-857 -8 c-6 -11 -13 -20 -16 -20 -2 0 0 9 6 20 6 11 13 20 16 20 2 0 0
-9 -6 -20z m2384 -10 c-9 -16 -22 -30 -30 -30 -20 0 -18 10 8 37 30 32 39 29
22 -7z m-1695 -29 c-13 -16 -28 -30 -32 -30 -4 -1 5 15 20 34 15 19 29 32 31
30 3 -2 -6 -17 -19 -34z m1749 4 c-2 -2 -14 -1 -27 2 l-23 6 23 13 c20 11 25
10 27 -2 2 -9 2 -17 0 -19z m-1837 -12 c-12 -16 -32 -41 -46 -58 -23 -28 -24
-29 -18 -5 3 14 10 30 14 36 5 6 6 14 2 17 -3 4 3 7 14 7 12 0 23 7 27 15 3 8
10 15 16 15 6 0 2 -12 -9 -27z m209 -73 c0 -5 -2 -10 -4 -10 -3 0 -8 5 -11 10
-3 6 -1 10 4 10 6 0 11 -4 11 -10z m-67 -193 c-31 -92 -58 -165 -60 -163 -5 5
18 83 50 166 13 36 25 78 25 92 0 15 7 34 16 43 9 9 16 21 16 27 0 6 2 9 5 6
3 -2 -21 -79 -52 -171z m1699 83 c-6 -43 -12 -37 -12 13 0 25 4 37 8 29 5 -7
7 -26 4 -42z m-2745 -42 c-3 -8 -6 -5 -6 6 -1 11 2 17 5 13 3 -3 4 -12 1 -19z
m8 -49 c-19 -35 -30 -32 -21 6 4 14 13 25 21 25 14 0 14 -4 0 -31z m979 -41
c-56 -171 -137 -398 -141 -394 -5 5 129 404 143 428 12 19 11 5 -2 -34z m-33
-249 c-9 -22 -10 -22 -10 -3 -1 11 2 24 6 27 12 12 14 0 4 -24z m-26 -110 c-8
-19 -13 -26 -10 -16 3 10 8 37 12 60 6 34 8 37 11 16 2 -15 -4 -42 -13 -60z
m-718 -19 c-2 -35 -23 -48 -32 -20 -7 22 12 63 25 55 5 -3 8 -19 7 -35z m-270
-7 c-3 -10 -5 -4 -5 12 0 17 2 24 5 18 2 -7 2 -21 0 -30z m1094 -6 c-10 -9
-11 -8 -5 6 3 10 9 15 12 12 3 -3 0 -11 -7 -18z m-28 -102 c-3 -9 -8 -14 -10
-11 -3 3 -2 9 2 15 9 16 15 13 8 -4z m-202 -32 c-12 -20 -14 -14 -5 12 4 9 9
14 11 11 3 -2 0 -13 -6 -23z m130 -125 c-26 -54 -40 -75 -41 -60 0 13 11 38
25 56 14 18 25 38 25 44 0 19 24 65 28 53 2 -6 -15 -48 -37 -93z m-994 -20
c-3 -7 -5 -2 -5 12 0 14 2 19 5 13 2 -7 2 -19 0 -25z m0 -60 c-3 -7 -5 -2 -5
12 0 14 2 19 5 13 2 -7 2 -19 0 -25z m891 -123 c-6 -14 -13 -23 -15 -21 -5 5
15 46 22 46 3 0 -1 -11 -7 -25z m1919 -352 c-2 -16 -4 -5 -4 22 0 28 2 40 4
28 2 -13 2 -35 0 -50z m-30 5 c-3 -7 -5 -2 -5 12 0 14 2 19 5 13 2 -7 2 -19 0
-25z m-2744 -1 c3 -8 1 -20 -4 -28 -6 -10 -9 -7 -9 14 0 29 5 35 13 14z m2784
-82 c2 -24 0 -34 -7 -30 -5 3 -10 22 -10 42 0 45 11 36 17 -12z m-40 -52 c-3
-10 -5 -4 -5 12 0 17 2 24 5 18 2 -7 2 -21 0 -30z"/>
<path d="M2134 2405 c-19 -29 -15 -39 10 -29 9 3 16 17 16 30 0 31 -5 30 -26
-1z"/>
<path d="M1807 2398 c6 -11 31 -10 37 1 3 5 -5 8 -18 7 -13 0 -22 -4 -19 -8z"/>
<path d="M1872 2394 c-13 -9 -21 -22 -18 -29 2 -7 -1 -18 -7 -25 -10 -10 -7
-10 12 0 17 9 20 14 11 20 -9 6 -7 11 8 19 15 8 22 8 25 -2 4 -9 7 -9 18 1 12
11 12 13 -1 10 -8 -2 -14 3 -12 10 3 16 -9 15 -36 -4z"/>
<path d="M2600 2400 c-9 -6 -10 -10 -3 -10 6 0 15 5 18 10 8 12 4 12 -15 0z"/>
<path d="M2770 2384 c-17 -15 -28 -29 -26 -32 5 -5 86 46 86 54 0 13 -33 0
-60 -22z"/>
<path d="M2040 2389 c0 -5 5 -7 10 -4 6 3 10 8 10 11 0 2 -4 4 -10 4 -5 0 -10
-5 -10 -11z"/>
<path d="M1575 2380 c-3 -5 1 -10 9 -10 9 0 16 5 16 10 0 6 -4 10 -9 10 -6 0
-13 -4 -16 -10z"/>
<path d="M1730 2377 c-31 -15 -64 -47 -56 -55 10 -9 61 13 59 26 -2 7 1 12 5
12 5 0 17 7 28 15 24 18 1 19 -36 2z"/>
<path d="M1978 2354 c-30 -16 -35 -24 -15 -24 16 0 54 27 47 33 -3 3 -17 -1
-32 -9z"/>
<path d="M1795 2349 c-12 -19 5 -23 22 -6 16 16 16 17 1 17 -9 0 -20 -5 -23
-11z"/>
<path d="M2139 2339 l-24 -20 28 17 c15 9 27 18 27 20 0 8 -8 4 -31 -17z"/>
<path d="M1565 2343 c-24 -6 -45 -22 -45 -34 0 -10 49 9 70 28 15 13 10 14
-25 6z"/>
<path d="M2030 2340 c0 -5 5 -10 10 -10 6 0 10 5 10 10 0 6 -4 10 -10 10 -5 0
-10 -4 -10 -10z"/>
<path d="M2614 2335 c-10 -8 -14 -14 -9 -15 15 0 40 18 34 24 -3 3 -14 -1 -25
-9z"/>
<path d="M1743 2313 c-9 -22 2 -25 38 -10 l34 14 -33 5 c-23 3 -36 0 -39 -9z"/>
<path d="M1858 2314 c-28 -15 -37 -34 -17 -34 24 0 89 24 89 32 0 5 -9 4 -19
-2 -30 -16 -46 -13 -31 5 15 18 13 18 -22 -1z"/>
<path d="M1993 2316 c-27 -12 -30 -26 -7 -26 23 0 55 20 49 31 -7 11 -13 10
-42 -5z"/>
<path d="M2072 2304 c-21 -14 -31 -44 -14 -44 11 0 39 20 28 20 -5 0 -1 9 9
20 22 24 8 26 -23 4z"/>
<path d="M2580 2265 c-14 -8 -20 -14 -15 -14 6 0 21 6 35 14 14 8 21 14 15 14
-5 0 -21 -6 -35 -14z"/>
<path d="M2445 2260 c-3 -5 1 -10 9 -10 9 0 16 5 16 10 0 6 -4 10 -9 10 -6 0
-13 -4 -16 -10z"/>
<path d="M1546 2221 c-3 -5 8 -11 24 -13 32 -5 41 6 14 16 -22 8 -32 8 -38 -3z"/>
<path d="M1420 2210 c20 -13 40 -13 40 0 0 6 -12 10 -27 10 -22 0 -25 -2 -13
-10z"/>
<path d="M1645 2210 c-4 -6 11 -10 37 -10 31 0 39 3 28 10 -20 13 -57 13 -65
0z"/>
<path d="M1785 2200 c3 -5 13 -10 21 -10 8 0 12 5 9 10 -3 6 -13 10 -21 10 -8
0 -12 -4 -9 -10z"/>
<path d="M2630 2200 c0 -5 11 -10 24 -10 14 0 28 5 31 10 4 6 -7 10 -24 10
-17 0 -31 -4 -31 -10z"/>
<path d="M1425 2170 c-3 -5 -1 -10 4 -10 6 0 11 5 11 10 0 6 -2 10 -4 10 -3 0
-8 -4 -11 -10z"/>
<path d="M2335 2100 c-3 -5 -1 -10 4 -10 6 0 11 5 11 10 0 6 -2 10 -4 10 -3 0
-8 -4 -11 -10z"/>
<path d="M1763 2054 c-12 -13 -21 -24 -19 -24 12 0 66 33 66 41 0 16 -24 8
-47 -17z"/>
<path d="M1920 2030 c0 -5 5 -10 10 -10 6 0 10 5 10 10 0 6 -4 10 -10 10 -5 0
-10 -4 -10 -10z"/>
<path d="M1320 2020 c0 -5 6 -10 14 -10 8 0 18 5 21 10 3 6 -3 10 -14 10 -12
0 -21 -4 -21 -10z"/>
<path d="M1835 2020 c-3 -5 -1 -10 4 -10 6 0 11 5 11 10 0 6 -2 10 -4 10 -3 0
-8 -4 -11 -10z"/>
<path d="M2074 2016 c-9 -23 -1 -28 30 -20 24 6 37 24 17 24 -5 0 -16 3 -25 6
-10 4 -18 0 -22 -10z"/>
<path d="M1393 2006 c-22 -10 -31 -26 -15 -26 4 0 21 9 37 20 32 21 16 25 -22
6z"/>
<path d="M2170 1972 c0 -5 -10 -14 -22 -20 -19 -9 -20 -11 -5 -11 23 -1 57 17
57 29 0 6 -7 10 -15 10 -8 0 -15 -4 -15 -8z"/>
<path d="M1376 1945 c-16 -14 -33 -25 -38 -25 -5 0 -6 -5 -3 -10 9 -15 85 31
85 52 0 14 -14 8 -44 -17z"/>
<path d="M1365 1900 c-3 -5 -1 -10 4 -10 6 0 11 5 11 10 0 6 -2 10 -4 10 -3 0
-8 -4 -11 -10z"/>
<path d="M1297 1883 c-10 -10 -8 -33 3 -33 5 0 14 9 20 20 8 15 8 20 -3 20 -8
0 -17 -3 -20 -7z"/>
<path d="M1224 1764 c-17 -14 -17 -15 -1 -10 10 3 23 6 28 6 5 0 9 5 9 10 0
14 -13 12 -36 -6z"/>
<path d="M297 2273 c-10 -9 -9 -23 2 -23 5 0 11 7 15 15 5 15 -5 20 -17 8z"/>
<path d="M237 2133 c-4 -3 -7 -13 -7 -22 1 -13 3 -13 11 2 11 19 8 33 -4 20z"/>
<path d="M1090 2515 c0 -8 2 -15 4 -15 2 0 6 7 10 15 3 8 1 15 -4 15 -6 0 -10
-7 -10 -15z"/>
<path d="M1041 2372 c-7 -13 -11 -26 -8 -28 8 -8 29 25 25 38 -3 8 -9 4 -17
-10z"/>
<path d="M904 2299 c-9 -15 13 -36 25 -23 6 5 4 14 -4 21 -10 9 -16 10 -21 2z"/>
<path d="M950 2306 c0 -2 9 -6 20 -9 11 -3 18 -1 14 4 -5 9 -34 13 -34 5z"/>
<path d="M1034 2286 c-10 -8 -15 -18 -11 -22 4 -4 15 0 24 9 22 21 12 31 -13
13z"/>
<path d="M1114 2245 c-17 -13 -17 -14 -2 -15 9 0 20 5 23 11 11 17 0 20 -21 4z"/>
<path d="M777 2243 c-4 -3 -7 -11 -7 -17 0 -6 5 -5 12 2 6 6 9 14 7 17 -3 3
-9 2 -12 -2z"/>
<path d="M742 2158 c-12 -18 -19 -34 -17 -37 7 -6 44 42 45 57 0 19 -6 14 -28
-20z"/>
<path d="M783 2056 c-12 -6 -27 -21 -33 -34 -10 -23 -9 -24 17 -18 15 4 35 15
43 24 14 15 13 15 -4 1 -18 -13 -19 -13 -7 9 15 28 13 31 -16 18z"/>
<path d="M645 2039 c-11 -17 1 -21 15 -4 8 9 8 15 2 15 -6 0 -14 -5 -17 -11z"/>
<path d="M852 1955 c-16 -18 -18 -25 -8 -25 8 0 17 -6 19 -12 3 -9 14 -2 30
17 14 16 23 33 20 37 -9 16 -40 7 -61 -17z"/>
<path d="M1540 1970 c0 -5 5 -10 11 -10 5 0 7 5 4 10 -3 6 -8 10 -11 10 -2 0
-4 -4 -4 -10z"/>
<path d="M1890 1900 c19 -13 30 -13 30 0 0 6 -10 10 -22 10 -19 0 -20 -2 -8
-10z"/>
<path d="M600 1855 c-7 -9 -11 -18 -8 -20 3 -3 11 1 18 10 7 9 11 18 8 20 -3
3 -11 -1 -18 -10z"/>
<path d="M480 1840 c0 -5 5 -10 10 -10 6 0 10 5 10 10 0 6 -4 10 -10 10 -5 0
-10 -4 -10 -10z"/>
<path d="M1625 1839 c-11 -4 -28 -10 -39 -13 -14 -5 -16 -9 -7 -20 11 -13 5
-26 -11 -26 -5 0 -6 5 -3 10 3 6 1 10 -4 10 -6 0 -11 -1 -12 -2 -7 -29 -7 -87
0 -98 8 -12 13 -12 30 4 20 18 21 18 31 -9 8 -20 15 -25 28 -20 33 15 60 17
66 6 10 -16 26 -13 26 4 0 10 10 15 33 15 25 1 29 3 15 10 -10 7 -25 7 -41 1
-34 -13 -64 17 -48 48 20 37 13 68 -16 79 -16 5 -37 6 -48 1z m39 -25 c27 -10
18 -24 -15 -24 -27 0 -30 2 -19 15 14 17 13 17 34 9z m-11 -71 c21 -7 22 -32
1 -40 -9 -3 -23 3 -35 15 -24 27 -25 47 -1 37 9 -4 25 -10 35 -12z"/>
<path d="M230 1829 c0 -5 5 -7 10 -4 6 3 10 8 10 11 0 2 -4 4 -10 4 -5 0 -10
-5 -10 -11z"/>
<path d="M505 1813 c-4 -10 -9 -34 -10 -53 -3 -33 -3 -34 11 -16 8 11 12 28 9
37 -3 10 -1 20 5 24 12 8 13 25 1 25 -5 0 -12 -8 -16 -17z"/>
<path d="M910 1819 c0 -5 5 -7 10 -4 6 3 10 8 10 11 0 2 -4 4 -10 4 -5 0 -10
-5 -10 -11z"/>
<path d="M206 1794 c-4 -9 -4 -19 -1 -22 2 -3 7 3 11 12 4 9 4 19 1 22 -2 3
-7 -3 -11 -12z"/>
<path d="M665 1800 c-3 -5 -2 -10 4 -10 5 0 13 5 16 10 3 6 2 10 -4 10 -5 0
-13 -4 -16 -10z"/>
<path d="M1786 1775 c18 -14 18 -14 -9 -15 -36 0 -31 -24 5 -28 14 -2 29 -11
32 -20 3 -9 9 -23 12 -29 4 -9 -3 -13 -20 -13 -34 0 -32 -19 5 -49 24 -19 38
-22 69 -18 32 4 39 2 43 -15 5 -17 12 -20 51 -17 35 3 46 1 49 -12 3 -10 17
-25 31 -35 26 -16 28 -16 54 3 15 11 31 34 36 52 5 17 15 31 22 31 20 0 17
-21 -6 -50 -24 -31 -25 -50 -4 -50 11 0 14 5 10 16 -8 20 45 74 73 74 23 0 29
18 9 25 -7 2 -34 5 -60 8 -47 4 -48 4 -54 -29 -3 -18 -14 -40 -24 -49 -22 -20
-54 -16 -58 7 -2 12 2 15 17 11 16 -4 21 -1 21 15 0 11 7 33 15 48 8 16 15 34
15 41 0 22 -23 26 -37 7 -13 -18 -15 -18 -27 -1 -20 27 -26 21 -26 -28 0 -48
-21 -69 -62 -63 -33 5 -33 26 1 57 31 29 40 51 22 51 -6 0 -13 -4 -16 -10 -11
-17 -25 -11 -25 11 0 34 -28 4 -32 -34 -2 -24 -9 -32 -32 -38 -18 -5 -37 -4
-50 4 -20 11 -19 12 17 21 43 11 49 33 12 42 -31 8 -24 18 13 20 37 2 36 2 22
19 -16 19 -92 55 -116 55 -16 0 -16 -1 2 -15z m294 -131 c0 -13 -21 -44 -30
-44 -6 0 -10 11 -10 25 0 18 5 25 20 25 11 0 20 -3 20 -6z"/>
<path d="M900 1761 c-6 -12 -7 -21 -1 -21 10 0 24 30 17 37 -2 3 -9 -5 -16
-16z"/>
<path d="M177 1743 c-4 -3 -7 -11 -7 -17 0 -6 5 -5 12 2 6 6 9 14 7 17 -3 3
-9 2 -12 -2z"/>
<path d="M411 1704 c0 -11 3 -14 6 -6 3 7 2 16 -1 19 -3 4 -6 -2 -5 -13z"/>
<path d="M791 1696 c-14 -14 -23 -28 -20 -30 7 -8 51 33 47 44 -2 6 -14 0 -27
-14z"/>
<path d="M437 1703 c-10 -9 -9 -23 2 -23 5 0 11 7 15 15 5 15 -5 20 -17 8z"/>
<path d="M477 1703 c-4 -3 -7 -13 -7 -21 0 -12 3 -12 15 -2 8 7 15 16 15 21 0
11 -14 12 -23 2z"/>
<path d="M381 1662 c-7 -13 -11 -26 -8 -28 8 -8 29 25 25 38 -3 8 -9 4 -17
-10z"/>
<path d="M260 1656 c0 -9 7 -12 21 -9 16 4 17 8 7 14 -19 13 -28 11 -28 -5z"/>
<path d="M136 1592 c-36 -59 -47 -100 -24 -86 8 5 9 2 5 -10 -4 -10 -3 -15 3
-11 6 3 10 24 10 45 0 21 5 42 10 45 13 8 43 66 37 72 -3 2 -21 -23 -41 -55z"/>
<path d="M1006 1634 c-10 -25 1 -29 14 -5 6 12 7 21 1 21 -5 0 -12 -7 -15 -16z"/>
<path d="M320 1614 c0 -8 5 -12 10 -9 6 3 10 10 10 16 0 5 -4 9 -10 9 -5 0
-10 -7 -10 -16z"/>
<path d="M255 1610 c-3 -5 -1 -10 4 -10 6 0 11 5 11 10 0 6 -2 10 -4 10 -3 0
-8 -4 -11 -10z"/>
<path d="M347 1594 c-10 -10 -9 -44 1 -44 11 0 32 22 32 33 0 4 -4 6 -9 3 -5
-4 -11 -1 -13 5 -2 5 -7 7 -11 3z"/>
<path d="M917 1593 c-4 -3 -7 -11 -7 -17 0 -6 5 -5 12 2 6 6 9 14 7 17 -3 3
-9 2 -12 -2z"/>
<path d="M816 1564 c-4 -9 -4 -19 -1 -22 2 -3 7 3 11 12 4 9 4 19 1 22 -2 3
-7 -3 -11 -12z"/>
<path d="M2810 1560 c0 -11 4 -20 9 -20 11 0 22 26 14 34 -12 12 -23 5 -23
-14z"/>
<path d="M827 1513 c-4 -3 -7 -13 -7 -22 1 -13 3 -13 11 2 11 19 8 33 -4 20z"/>
<path d="M1512 1503 c-16 -31 -22 -83 -11 -83 6 0 13 9 16 19 4 17 11 19 61
14 32 -3 59 -10 60 -15 2 -4 12 -8 22 -8 9 0 34 -7 53 -15 20 -8 47 -15 60
-15 14 0 30 -7 37 -15 8 -9 30 -15 58 -15 35 0 50 -5 68 -25 26 -28 54 -33 54
-10 0 8 -5 15 -11 15 -6 0 -22 9 -36 20 -17 13 -41 20 -68 20 -25 0 -48 6 -54
14 -7 8 -30 17 -52 21 -21 4 -41 11 -45 16 -3 5 -13 9 -24 9 -10 0 -21 7 -24
15 -4 12 -14 14 -41 9 -47 -8 -81 2 -88 26 -6 25 -23 26 -35 3z"/>
<path d="M120 1465 c-7 -9 -10 -18 -7 -22 8 -7 37 15 37 28 0 14 -16 11 -30
-6z"/>
<path d="M577 1474 c-4 -4 -7 -14 -7 -23 0 -11 3 -12 11 -4 6 6 10 16 7 23 -2
6 -7 8 -11 4z"/>
<path d="M2510 1460 c0 -5 7 -10 16 -10 8 0 12 5 9 10 -3 6 -10 10 -16 10 -5
0 -9 -4 -9 -10z"/>
<path d="M750 1404 c0 -8 5 -12 10 -9 6 4 8 11 5 16 -9 14 -15 11 -15 -7z"/>
<path d="M1510 1391 c0 -5 6 -12 13 -15 6 -3 1 -4 -13 -3 -14 1 -26 -2 -28 -8
-4 -13 31 -23 85 -24 23 -1 60 -10 81 -21 22 -11 69 -23 106 -27 46 -4 66 -10
66 -19 0 -15 26 -19 34 -5 3 4 -3 19 -14 31 -14 16 -26 21 -43 16 -31 -7 -179
37 -214 64 -26 20 -73 28 -73 11z"/>
<path d="M717 1325 c-21 -43 -21 -45 -2 -45 8 0 15 6 15 14 0 7 7 19 15 26 19
15 20 40 2 40 -7 0 -21 -16 -30 -35z"/>
<path d="M555 1297 c-4 -10 -5 -21 -1 -24 10 -10 18 4 13 24 -4 17 -4 17 -12
0z"/>
<path d="M888 1299 c-10 -6 -18 -16 -18 -23 0 -8 -7 -27 -15 -42 -8 -16 -15
-36 -15 -44 1 -10 4 -9 11 5 6 11 23 37 36 57 28 41 28 62 1 47z"/>
<path d="M971 1275 c-7 -20 -11 -39 -8 -41 7 -7 30 53 25 66 -2 6 -9 -5 -17
-25z"/>
<path d="M1442 1293 c2 -13 22 -21 78 -32 41 -8 78 -19 82 -25 4 -6 13 -11 20
-11 7 -1 22 -6 33 -12 29 -16 122 -26 129 -15 3 6 -16 13 -46 17 -29 4 -60 13
-69 21 -8 8 -53 23 -100 34 -46 11 -92 25 -101 30 -25 14 -30 13 -26 -7z"/>
<path d="M832 1270 c-14 -23 -16 -40 -4 -40 8 0 32 43 32 55 0 12 -16 3 -28
-15z"/>
<path d="M335 1227 c-21 -51 -18 -59 6 -14 11 22 18 41 15 44 -3 4 -13 -10
-21 -30z"/>
<path d="M676 1224 c-4 -9 -4 -19 -1 -22 2 -3 8 3 11 12 5 14 9 15 16 4 8 -10
9 -10 6 1 -6 22 -25 24 -32 5z"/>
<path d="M613 1208 c-6 -13 -7 -32 -2 -43 8 -21 9 -21 14 10 1 11 6 28 10 38
11 26 -10 21 -22 -5z"/>
<path d="M407 1207 c-11 -29 -9 -43 4 -30 6 6 9 19 7 29 -3 18 -4 18 -11 1z"/>
<path d="M946 1194 c-4 -14 -5 -28 -3 -31 3 -2 8 8 11 23 4 14 5 28 3 31 -3 2
-8 -8 -11 -23z"/>
<path d="M267 1173 c-10 -9 -9 -23 2 -23 5 0 11 7 15 15 5 15 -5 20 -17 8z"/>
<path d="M566 1136 c-9 -14 -16 -33 -16 -43 1 -11 9 -3 21 20 23 44 20 60 -5
23z"/>
<path d="M756 1145 c-3 -8 -1 -15 4 -15 6 0 10 7 10 15 0 8 -2 15 -4 15 -2 0
-6 -7 -10 -15z"/>
<path d="M3001 1134 c0 -11 3 -14 6 -6 3 7 2 16 -1 19 -3 4 -6 -2 -5 -13z"/>
<path d="M236 1123 c-3 -3 -6 -21 -6 -40 0 -18 -4 -33 -10 -33 -5 0 -10 -10
-10 -22 0 -22 0 -22 13 -3 29 44 40 125 13 98z"/>
<path d="M576 1090 c-19 -47 -19 -50 -7 -50 5 0 16 20 24 45 19 56 5 60 -17 5z"/>
<path d="M657 1116 c-4 -10 -5 -21 -2 -24 9 -9 17 6 13 25 -3 17 -4 17 -11 -1z"/>
<path d="M1347 1114 c-13 -13 5 -24 38 -24 44 0 53 16 14 24 -39 8 -44 8 -52
0z"/>
<path d="M761 1092 c-7 -13 -11 -28 -8 -35 2 -7 9 -2 16 11 7 13 11 28 8 35
-2 7 -9 2 -16 -11z"/>
<path d="M787 1042 c-15 -33 -27 -65 -27 -71 0 -7 -8 -28 -19 -49 -24 -49 -34
-92 -21 -92 5 0 10 5 10 11 0 6 11 37 24 68 45 104 68 170 64 181 -2 6 -16
-16 -31 -48z"/>
<path d="M708 1052 c-19 -43 -107 -240 -146 -325 -14 -32 -31 -56 -37 -53 -12
4 -45 -63 -49 -99 -1 -11 -8 -30 -14 -42 -7 -12 -12 -31 -12 -41 0 -23 -52
-148 -80 -195 -21 -34 -27 -62 -11 -52 6 3 20 26 32 50 12 25 25 43 27 40 2
-2 -7 -27 -22 -54 -14 -28 -26 -56 -26 -63 0 -14 88 121 108 165 6 15 17 25
22 22 12 -8 32 39 24 58 -3 8 6 21 20 31 15 9 26 25 26 36 0 10 10 28 22 40
12 11 19 20 15 20 -4 0 -2 10 5 23 7 12 14 33 15 47 0 14 4 35 8 48 6 16 3 22
-9 22 -36 0 -20 61 60 225 13 28 24 57 24 65 0 8 7 24 15 34 16 22 19 36 8 36
-5 0 -15 -17 -25 -38z m-143 -483 c-10 -21 -22 -39 -27 -39 -12 0 -11 4 14 55
27 55 38 40 13 -16z m-120 -189 c-9 -18 -18 -30 -21 -28 -2 3 3 19 12 37 9 18
18 30 21 28 2 -3 -3 -19 -12 -37z"/>
<path d="M466 1058 c-10 -38 -6 -45 9 -18 17 29 18 40 6 40 -5 0 -11 -10 -15
-22z"/>
<path d="M617 1073 c-4 -3 -7 -13 -7 -22 1 -13 3 -13 11 2 11 19 8 33 -4 20z"/>
<path d="M912 1060 c0 -14 2 -19 5 -12 2 6 2 18 0 25 -3 6 -5 1 -5 -13z"/>
<path d="M1510 1065 c7 -8 31 -20 54 -27 22 -7 56 -23 75 -35 35 -24 71 -30
71 -13 0 6 -7 10 -14 10 -8 0 -27 11 -42 25 -15 14 -38 25 -51 25 -13 0 -40 7
-60 15 -44 19 -49 19 -33 0z"/>
<path d="M365 1061 c-3 -5 -1 -12 5 -16 5 -3 10 1 10 9 0 18 -6 21 -15 7z"/>
<path d="M400 1054 c0 -8 5 -12 10 -9 6 3 10 10 10 16 0 5 -4 9 -10 9 -5 0
-10 -7 -10 -16z"/>
<path d="M625 1029 c-46 -126 -75 -229 -65 -229 10 0 83 230 76 237 -3 3 -8 0
-11 -8z"/>
<path d="M729 1014 c-6 -16 -29 -78 -50 -138 -41 -116 -52 -170 -19 -98 28 62
91 254 85 260 -2 3 -10 -8 -16 -24z"/>
<path d="M556 1013 c-11 -11 -6 -23 9 -23 19 0 19 1 -5 -56 -11 -26 -19 -52
-16 -58 5 -14 45 72 46 97 0 21 -24 49 -34 40z"/>
<path d="M507 1003 c-4 -3 -7 -11 -7 -17 0 -6 5 -5 12 2 6 6 9 14 7 17 -3 3
-9 2 -12 -2z"/>
<path d="M1830 977 c0 -17 20 -37 37 -37 11 0 9 6 -4 25 -20 27 -33 32 -33 12z"/>
<path d="M1735 970 c3 -5 11 -10 16 -10 6 0 7 5 4 10 -3 6 -11 10 -16 10 -6 0
-7 -4 -4 -10z"/>
<path d="M1284 955 c-12 -31 4 -45 50 -45 25 0 48 -4 51 -10 3 -5 18 -10 32
-10 14 0 38 -11 54 -25 16 -13 46 -27 67 -30 20 -4 53 -13 73 -22 20 -8 45
-13 55 -11 34 6 -41 49 -102 57 -38 5 -63 16 -82 33 -25 24 -41 29 -129 45
-19 3 -33 11 -33 19 0 19 -29 18 -36 -1z"/>
<path d="M522 940 c-6 -14 -19 -54 -27 -89 -13 -52 -14 -65 -3 -72 7 -5 12
-21 10 -39 -2 -20 1 -30 10 -30 9 0 13 16 14 56 0 48 -2 53 -13 38 -18 -24
-16 -13 8 68 20 70 21 114 1 68z"/>
<path d="M156 934 c-11 -27 -7 -37 9 -24 16 14 20 40 6 40 -5 0 -12 -7 -15
-16z"/>
<path d="M336 943 c-9 -10 -7 -43 3 -43 11 0 21 39 11 45 -4 2 -10 2 -14 -2z"/>
<path d="M836 941 c-4 -7 -5 -15 -2 -18 9 -9 19 4 14 18 -4 11 -6 11 -12 0z"/>
<path d="M386 925 c-10 -8 -16 -18 -15 -24 3 -6 12 -4 23 4 10 8 16 18 15 24
-3 6 -12 4 -23 -4z"/>
<path d="M1220 883 c0 -11 67 -33 96 -32 13 0 10 5 -12 14 -47 21 -84 28 -84
18z"/>
<path d="M168 832 c-9 -26 -20 -71 -24 -101 -6 -48 -5 -53 12 -49 21 4 48 52
41 71 -3 7 -13 -6 -23 -28 -16 -36 -18 -38 -22 -16 -2 13 1 28 7 34 6 6 11 21
11 33 0 12 7 27 15 34 16 13 21 55 7 64 -4 2 -15 -16 -24 -42z"/>
<path d="M256 844 c-4 -10 -1 -14 6 -12 15 5 23 28 10 28 -5 0 -13 -7 -16 -16z"/>
<path d="M446 845 c-3 -8 -1 -17 3 -20 5 -3 11 2 15 10 3 8 1 17 -3 20 -5 3
-11 -2 -15 -10z"/>
<path d="M730 808 c-12 -29 -29 -59 -38 -65 -8 -7 -13 -16 -9 -19 12 -12 67
64 82 114 13 44 -13 21 -35 -30z"/>
<path d="M1360 840 c0 -13 33 -26 130 -52 41 -11 92 -32 114 -49 43 -31 66
-37 66 -15 0 17 -115 69 -205 92 -38 9 -78 21 -87 26 -12 6 -18 5 -18 -2z"/>
<path d="M781 824 c0 -11 3 -14 6 -6 3 7 2 16 -1 19 -3 4 -6 -2 -5 -13z"/>
<path d="M804 823 c2 -9 8 -19 15 -21 10 -3 10 0 2 17 -14 25 -20 27 -17 4z"/>
<path d="M1726 801 c-6 -10 81 -63 124 -76 14 -4 33 -14 42 -23 12 -10 31 -13
61 -10 38 5 49 1 77 -23 35 -31 45 -35 54 -20 3 5 -14 25 -38 45 -37 30 -50
35 -75 30 -20 -4 -45 0 -73 13 -24 11 -54 24 -68 28 -14 4 -37 16 -52 26 -29
21 -44 24 -52 10z"/>
<path d="M315 790 c-3 -5 -1 -10 4 -10 6 0 11 5 11 10 0 6 -2 10 -4 10 -3 0
-8 -4 -11 -10z"/>
<path d="M540 758 c0 -19 2 -20 10 -8 13 19 13 30 0 30 -5 0 -10 -10 -10 -22z"/>
<path d="M329 744 c-5 -15 -8 -29 -5 -31 2 -2 8 10 14 26 13 38 5 41 -9 5z"/>
<path d="M736 745 c-9 -14 -21 -37 -26 -51 -8 -20 -15 -25 -31 -21 -13 4 -22
0 -25 -11 -3 -9 -13 -34 -22 -55 -8 -21 -16 -59 -17 -85 -3 -58 -28 -138 -67
-216 -20 -39 -28 -67 -24 -82 6 -21 3 -24 -21 -24 -22 0 -25 -2 -13 -10 25
-16 39 -11 55 20 18 34 19 44 4 34 -8 -5 -8 -1 0 14 14 26 31 37 31 21 0 -25
44 27 72 86 18 39 26 69 23 86 -6 27 14 93 22 71 6 -16 23 -6 23 14 0 9 -5 12
-12 8 -7 -5 -9 -2 -5 8 3 9 2 19 -3 24 -5 5 -1 25 8 44 25 52 55 140 50 146
-3 2 -13 -7 -22 -21z m-65 -121 c-14 -18 -21 -22 -21 -11 0 17 29 51 37 43 3
-3 -4 -17 -16 -32z"/>
<path d="M417 753 c-4 -3 -7 -13 -7 -22 1 -13 3 -13 11 2 11 19 8 33 -4 20z"/>
<path d="M117 733 c-4 -3 -7 -11 -7 -17 0 -6 5 -5 12 2 6 6 9 14 7 17 -3 3 -9
2 -12 -2z"/>
<path d="M1130 715 c0 -20 25 -31 100 -45 36 -7 77 -18 92 -26 14 -8 36 -14
48 -14 12 0 46 -21 76 -46 48 -41 58 -46 88 -40 20 4 37 2 41 -4 3 -5 21 -10
40 -10 27 0 37 -6 52 -30 20 -34 33 -39 33 -12 0 30 -28 60 -63 67 -17 4 -39
14 -49 22 -14 13 -20 13 -47 -1 -31 -16 -31 -16 -72 25 -28 28 -56 45 -83 51
-22 5 -48 15 -56 22 -8 7 -39 16 -69 19 -30 4 -61 13 -71 22 -21 19 -60 20
-60 0z"/>
<path d="M761 704 c0 -11 3 -14 6 -6 3 7 2 16 -1 19 -3 4 -6 -2 -5 -13z"/>
<path d="M1701 695 c9 -9 36 -21 60 -26 81 -17 214 -62 232 -77 16 -14 19 -14
27 -2 5 8 6 18 2 22 -7 7 -260 84 -312 95 -23 5 -24 4 -9 -12z"/>
<path d="M300 690 c0 -5 4 -10 9 -10 6 0 13 5 16 10 3 6 -1 10 -9 10 -9 0 -16
-4 -16 -10z"/>
<path d="M230 675 c0 -8 1 -16 2 -17 0 -2 -6 -17 -15 -35 -19 -35 -22 -68 -7
-58 18 11 -3 -30 -23 -44 -11 -8 -17 -21 -14 -32 3 -12 0 -19 -9 -19 -15 0
-19 -16 -5 -22 5 -1 3 -23 -6 -46 -18 -56 -9 -68 12 -16 33 80 49 109 67 122
10 7 15 18 12 24 -4 7 -2 8 4 4 7 -4 12 -1 12 8 0 8 -6 17 -12 19 -10 4 -10 8
-2 14 14 9 38 92 30 101 -3 3 -17 -19 -30 -49 -25 -54 -36 -56 -15 -2 15 36
18 63 7 63 -4 0 -8 -7 -8 -15z"/>
<path d="M441 668 c-13 -20 -6 -58 10 -58 18 0 30 50 16 65 -11 11 -16 10 -26
-7z"/>
<path d="M753 673 c-15 -6 -17 -39 -3 -48 6 -3 15 6 20 20 14 38 13 41 -17 28z"/>
<path d="M360 659 c0 -7 -8 -19 -18 -28 -9 -9 -24 -29 -31 -46 -11 -23 -15
-26 -18 -12 -8 31 -23 18 -23 -20 0 -34 1 -35 18 -21 9 9 24 13 32 11 11 -3
12 -2 3 4 -9 7 -7 13 9 27 12 10 17 21 11 25 -6 3 -3 14 8 25 11 11 19 14 19
8 0 -7 5 -12 10 -12 6 0 10 7 10 16 0 9 -5 12 -12 8 -8 -5 -9 -2 -5 9 3 10 2
17 -3 17 -6 0 -10 -5 -10 -11z"/>
<path d="M156 651 c-3 -5 1 -11 9 -14 9 -4 12 -1 8 9 -6 16 -10 17 -17 5z"/>
<path d="M117 637 c-11 -29 -9 -43 4 -30 6 6 9 19 7 29 -3 18 -4 18 -11 1z"/>
<path d="M287 636 c-4 -10 -5 -21 -2 -24 9 -9 17 6 13 25 -3 17 -4 17 -11 -1z"/>
<path d="M411 602 c-7 -12 -7 -22 0 -29 6 -6 5 -21 -2 -42 -6 -17 -9 -35 -5
-38 3 -3 8 3 12 13 3 10 12 31 20 46 11 21 12 33 4 48 -13 25 -17 25 -29 2z"/>
<path d="M1092 601 c-26 -22 -28 -31 -7 -31 10 0 15 -10 15 -29 0 -32 14 -41
63 -41 21 0 36 7 45 20 13 22 32 27 32 9 0 -6 10 -19 23 -30 21 -18 21 -20 3
-33 -25 -20 -11 -39 24 -31 26 6 70 -5 180 -43 25 -8 49 -19 54 -24 6 -4 24
-8 40 -8 17 0 40 -7 50 -15 11 -8 35 -15 53 -15 18 0 47 -9 65 -20 18 -11 43
-20 54 -20 12 0 27 -7 34 -15 16 -20 73 -29 97 -16 15 8 36 4 89 -14 38 -14
81 -25 95 -25 23 0 27 -5 31 -34 4 -33 3 -34 -35 -38 -21 -2 -41 0 -44 5 -3 5
-19 7 -37 4 -51 -6 -199 9 -252 26 -27 9 -69 19 -94 22 -24 4 -56 13 -70 20
-14 7 -41 13 -60 13 -20 0 -53 7 -74 16 -21 9 -55 16 -75 16 -28 0 -39 5 -46
22 -6 13 -19 25 -30 27 -11 2 -23 8 -27 15 -4 6 -32 11 -62 11 -45 0 -59 4
-77 24 l-22 24 -9 -22 c-7 -21 -9 -21 -33 -5 -17 11 -25 25 -25 43 0 36 -8 43
-34 29 -11 -7 -25 -13 -31 -14 -5 0 -14 -2 -19 -2 -5 -1 -1 -11 9 -22 23 -26
100 -62 140 -66 64 -6 116 -17 121 -25 3 -5 18 -9 33 -9 20 0 31 -7 39 -24 9
-19 20 -25 59 -28 50 -5 138 -26 258 -61 54 -16 65 -22 47 -26 -45 -11 -26
-26 38 -32 l65 -6 -67 -1 c-40 -1 -68 2 -68 8 0 6 -13 10 -29 10 -16 0 -31 4
-33 9 -3 9 -28 14 -62 12 -15 -1 -16 -4 -6 -16 10 -12 7 -17 -14 -26 -52 -24
-30 -36 67 -36 50 1 170 -2 265 -5 144 -5 172 -4 172 8 0 19 96 20 107 0 10
-16 87 -28 100 -15 9 9 103 13 228 10 11 0 106 -3 210 -5 l190 -5 -30 25 c-19
15 -44 24 -70 26 -37 1 -38 2 -7 5 54 7 36 23 -27 23 -58 0 -59 0 -65 32 -8
40 -1 46 24 23 20 -18 20 -17 20 8 0 14 -4 28 -10 32 -12 7 -61 -35 -54 -47
10 -15 -25 -20 -63 -8 -21 7 -67 26 -102 43 -37 18 -83 31 -109 32 -24 1 -47
7 -51 13 -4 6 -31 17 -60 25 -29 7 -56 18 -59 24 -4 5 -28 12 -54 15 -25 3
-61 16 -79 29 -20 14 -44 22 -60 21 -20 -3 -28 2 -32 17 -4 15 -13 21 -35 21
-40 0 -62 9 -62 25 0 15 -57 38 -64 26 -11 -16 27 -51 67 -62 23 -7 49 -21 57
-31 9 -10 33 -21 55 -25 22 -3 54 -14 70 -23 17 -10 48 -22 70 -26 22 -4 46
-13 53 -21 7 -7 25 -13 40 -13 47 0 72 -11 72 -31 0 -21 8 -22 62 -10 28 7 40
5 49 -5 6 -8 19 -14 28 -14 9 0 32 -10 51 -22 19 -11 51 -23 70 -25 35 -4 47
-9 39 -17 -3 -3 -66 -6 -141 -7 -119 -2 -140 0 -165 16 -27 19 -42 20 -90 9
-20 -4 -23 0 -23 25 0 29 -14 41 -50 41 -10 0 -56 12 -101 26 -67 22 -86 25
-101 15 -24 -15 -55 -6 -68 19 -8 15 -17 18 -38 14 -21 -4 -36 1 -59 20 -24
21 -37 25 -62 20 -24 -5 -37 -2 -54 14 -12 11 -26 21 -32 21 -30 0 -108 15
-97 18 29 10 8 23 -37 23 -32 0 -53 5 -61 15 -7 9 -19 14 -27 11 -25 -10 -72
5 -66 21 7 17 -54 82 -78 83 -8 0 -24 -7 -35 -15 -10 -8 -30 -14 -44 -14 -17
1 -19 3 -7 6 9 2 17 11 17 18 0 8 -8 19 -17 24 -10 6 -12 11 -5 11 6 0 12 7
12 15 0 21 -33 19 -58 -4z m1158 -451 c0 -13 -20 -13 -40 0 -12 8 -9 10 13 10
15 0 27 -4 27 -10z m-95 -52 c-19 -11 -30 -5 -21 11 4 6 14 7 22 4 15 -5 14
-7 -1 -15z m-235 -4 c0 -2 -9 -4 -20 -4 -11 0 -20 4 -20 9 0 5 9 7 20 4 11 -3
20 -7 20 -9z"/>
<path d="M2185 599 c-4 -6 -5 -11 -4 -12 69 -36 81 -39 124 -34 24 4 56 2 70
-3 15 -6 25 -6 25 0 0 15 -16 20 -75 24 -31 3 -67 12 -80 20 -28 19 -51 20
-60 5z"/>
<path d="M2075 552 c11 -11 45 -24 75 -31 30 -6 87 -27 126 -46 77 -37 94 -42
94 -24 0 18 -248 119 -295 119 -19 0 -19 0 0 -18z"/>
<path d="M261 458 c-19 -50 -23 -73 -13 -63 17 16 42 85 31 85 -5 0 -13 -10
-18 -22z"/>
<path d="M928 423 c7 -3 16 -2 19 1 4 3 -2 6 -13 5 -11 0 -14 -3 -6 -6z"/>
<path d="M760 401 c-7 -15 -7 -21 0 -21 12 0 25 28 17 36 -3 3 -10 -4 -17 -15z"/>
<path d="M715 369 c-4 -6 -5 -13 -2 -16 7 -7 27 6 27 18 0 12 -17 12 -25 -2z"/>
<path d="M330 341 c-6 -12 -7 -21 -1 -21 10 0 24 30 17 37 -2 3 -9 -5 -16 -16z"/>
<path d="M493 329 c-7 -13 -20 -42 -29 -64 -9 -22 -18 -35 -21 -28 -2 7 1 22
7 33 6 12 9 24 7 27 -5 4 -57 -96 -57 -110 0 -3 9 -5 19 -4 15 1 17 4 10 14
-13 15 -3 34 15 27 19 -7 68 72 64 103 l-3 27 -12 -25z"/>
<path d="M160 329 c0 -5 5 -7 10 -4 6 3 10 8 10 11 0 2 -4 4 -10 4 -5 0 -10
-5 -10 -11z"/>
<path d="M240 320 c-6 -12 -9 -24 -7 -27 3 -2 11 5 17 17 6 12 9 24 7 27 -3 2
-11 -5 -17 -17z"/>
<path d="M857 314 c-11 -11 3 -24 26 -24 12 -1 40 -9 62 -20 22 -11 48 -19 58
-20 10 0 17 -8 17 -20 0 -16 7 -20 35 -20 20 0 50 -7 68 -16 l32 -17 -24 -9
c-34 -12 -17 -23 36 -23 27 0 48 -5 50 -12 3 -7 -8 -11 -29 -11 -52 0 -60 -1
-53 -12 3 -5 39 -10 80 -10 49 0 75 -4 78 -12 4 -10 8 -10 15 1 6 9 27 12 63
11 79 -4 89 -2 83 14 -7 19 -43 27 -64 14 -19 -12 -70 -3 -70 12 0 6 9 10 19
10 11 0 23 5 26 10 4 6 -23 10 -73 10 -69 0 -87 4 -137 30 -31 17 -66 30 -77
30 -11 0 -22 8 -25 19 -5 21 -55 44 -118 55 -22 4 -47 9 -56 12 -8 2 -18 1
-22 -2z m433 -174 c0 -5 -3 -10 -7 -11 -5 0 -18 -2 -30 -5 -13 -2 -23 -2 -23
1 0 6 38 23 53 24 4 1 7 -3 7 -9z"/>
<path d="M715 200 c3 -5 8 -10 11 -10 2 0 4 5 4 10 0 6 -5 10 -11 10 -5 0 -7
-4 -4 -10z"/>
<path d="M568 193 c7 -3 16 -2 19 1 4 3 -2 6 -13 5 -11 0 -14 -3 -6 -6z"/>
<path d="M996 175 c-11 -8 -16 -18 -13 -22 9 -9 58 18 51 29 -7 11 -16 10 -38
-7z"/>
<path d="M827 174 c-3 -3 -78 -7 -168 -9 -217 -5 -360 -16 -353 -26 3 -5 14
-9 25 -9 11 0 18 -4 14 -9 -9 -16 327 -4 337 12 6 8 10 9 16 1 4 -6 67 -16
142 -22 74 -6 156 -13 181 -15 45 -5 80 5 67 19 -4 3 -50 10 -103 14 -59 4
-100 12 -105 19 -5 10 -9 9 -13 -3 -4 -9 -14 -16 -24 -15 -11 0 -13 3 -5 6 6
2 12 11 12 18 0 15 -14 27 -23 19z"/>
<path d="M896 161 c-3 -5 4 -11 16 -14 25 -7 33 -3 23 12 -8 13 -32 14 -39 2z"/>
<path d="M1412 158 c9 -27 88 -29 88 -2 0 10 -13 14 -46 14 -32 0 -44 -4 -42
-12z"/>
<path d="M950 150 c0 -5 5 -10 10 -10 6 0 10 5 10 10 0 6 -4 10 -10 10 -5 0
-10 -4 -10 -10z"/>
<path d="M2740 50 c0 -5 5 -10 10 -10 6 0 10 5 10 10 0 6 -4 10 -10 10 -5 0
-10 -4 -10 -10z"/>
</g>
</svg>
