<?xml version="1.0" standalone="no"?>
<!DOCTYPE svg PUBLIC "-//W3C//DTD SVG 20010904//EN"
 "http://www.w3.org/TR/2001/REC-SVG-20010904/DTD/svg10.dtd">
<svg version="1.0" xmlns="http://www.w3.org/2000/svg"
 width="367.000000pt" height="289.000000pt" viewBox="0 0 367.000000 289.000000"
 preserveAspectRatio="xMidYMid meet">
<metadata>
Created by potrace 1.16, written by Peter Selinger 2001-2019
</metadata>
<g transform="translate(0.000000,289.000000) scale(0.100000,-0.100000)"
fill="#000000" stroke="none">
<path d="M3047 2864 c-3 -3 -119 -7 -258 -9 -140 -2 -326 -8 -413 -14 -87 -6
-272 -10 -410 -10 -248 0 -457 -10 -671 -33 -179 -19 -595 -21 -685 -2 -183
37 -483 24 -558 -25 -30 -19 -41 -249 -21 -441 15 -139 18 -254 24 -820 3
-239 9 -509 15 -600 14 -224 12 -271 -8 -293 -16 -18 -16 -20 1 -32 15 -10 17
-30 17 -144 0 -78 4 -138 11 -149 8 -12 8 -47 2 -117 -10 -107 -7 -119 35
-108 16 4 22 1 20 -8 -2 -10 6 -13 27 -12 17 1 307 4 645 7 382 3 642 9 685
16 39 6 165 13 280 16 324 6 818 37 1050 65 50 6 124 12 165 14 161 5 467 27
515 36 28 6 62 12 77 12 31 2 35 12 38 107 2 36 5 92 7 125 10 136 5 365 -12
480 -13 94 -18 212 -21 540 -3 297 -10 493 -24 670 -11 138 -24 343 -29 458
-6 114 -13 212 -16 217 -4 6 1 13 9 16 27 10 18 31 -16 38 -38 7 -474 7 -481
0z m-422 -124 c-3 -5 -13 -10 -21 -10 -8 0 -12 5 -9 10 3 6 13 10 21 10 8 0
12 -4 9 -10z m282 -6 c-3 -3 -12 -4 -19 -1 -8 3 -5 6 6 6 11 1 17 -2 13 -5z
m-2197 -14 c0 -5 -4 -10 -10 -10 -5 0 -10 5 -10 10 0 6 5 10 10 10 6 0 10 -4
10 -10z m280 -26 c0 -8 -5 -12 -10 -9 -6 4 -8 11 -5 16 9 14 15 11 15 -7z
m1987 10 c-3 -3 -12 -4 -19 -1 -8 3 -5 6 6 6 11 1 17 -2 13 -5z m-2212 -14
c-28 -12 -37 -12 -30 0 3 6 16 10 28 9 21 0 21 -1 2 -9z m1553 -47 c-16 -2
-40 -2 -55 0 -16 2 -3 4 27 4 30 0 43 -2 28 -4z m577 -12 c-12 -11 -125 -21
-125 -10 0 11 14 14 78 17 35 2 53 -1 47 -7z m-287 -118 c-10 -2 -28 -2 -40 0
-13 2 -5 4 17 4 22 1 32 -1 23 -4z m-2458 -13 c0 -5 -4 -10 -10 -10 -5 0 -10
5 -10 10 0 6 5 10 10 10 6 0 10 -4 10 -10z m720 -14 c0 -2 -9 -6 -20 -9 -11
-3 -20 -1 -20 4 0 5 9 9 20 9 11 0 20 -2 20 -4z m17 -42 c-3 -3 -12 -4 -19 -1
-8 3 -5 6 6 6 11 1 17 -2 13 -5z m1880 0 c-3 -3 -12 -4 -19 -1 -8 3 -5 6 6 6
11 1 17 -2 13 -5z m473 -34 c0 -5 -2 -10 -4 -10 -3 0 -8 5 -11 10 -3 6 -1 10
4 10 6 0 11 -4 11 -10z m-2257 -33 c3 -8 -1 -14 -9 -14 -15 0 -18 9 -7 20 9 9
10 9 16 -6z m382 -47 c-3 -5 -27 -10 -53 -10 -34 0 -43 3 -32 10 20 13 93 13
85 0z m2081 -27 c-10 -10 -19 5 -10 18 6 11 8 11 12 0 2 -7 1 -15 -2 -18z
m-2399 1 c-3 -3 -12 -4 -19 -1 -8 3 -5 6 6 6 11 1 17 -2 13 -5z m-325 -24 c20
-11 59 -21 85 -24 55 -5 83 -14 83 -27 0 -5 5 -9 11 -9 13 0 81 -41 143 -87
59 -44 116 -72 149 -75 15 -1 27 -6 27 -11 0 -6 -18 -7 -39 -4 -28 3 -43 0
-55 -11 -15 -15 -16 -15 -16 1 0 9 -7 17 -15 17 -8 0 -15 -5 -15 -11 0 -5 -5
-7 -10 -4 -8 5 -8 11 -1 19 12 14 5 26 -16 26 -7 0 -42 23 -78 51 -44 34 -88
58 -138 74 -41 14 -94 36 -118 50 -40 22 -83 36 -51 17 9 -6 10 -16 4 -31 -8
-22 -9 -22 -25 -6 -9 9 -17 12 -17 6 0 -12 52 -41 73 -41 7 0 40 -16 73 -36
32 -20 115 -65 184 -99 l126 -63 -4 -44 c-5 -49 7 -46 17 4 6 31 9 33 45 30
35 -3 38 -2 33 17 -6 25 -4 25 33 6 30 -16 37 -29 21 -39 -5 -3 -11 4 -15 16
-16 63 -21 -29 -18 -344 3 -288 6 -348 17 -348 8 0 18 6 22 14 4 8 9 -56 11
-142 2 -86 7 -161 13 -168 11 -13 15 -316 5 -333 -4 -6 -4 -11 1 -11 4 0 8
-35 8 -77 0 -70 -2 -78 -20 -81 -11 -2 -24 -8 -30 -13 -5 -5 -25 -9 -46 -9
l-36 0 -7 53 c-7 64 -8 142 -1 135 3 -3 7 -31 8 -62 1 -31 5 -56 8 -56 4 0 6
88 6 195 -1 127 -5 195 -12 195 -6 0 -6 3 1 8 12 7 7 292 -5 292 -3 0 -6 -82
-7 -183 0 -100 3 -171 7 -157 6 21 7 18 8 -15 0 -26 -2 -35 -8 -26 -12 19 -20
-43 -8 -65 7 -13 6 -16 -4 -12 -12 4 -14 -18 -14 -123 0 -71 -2 -129 -4 -129
-2 0 -10 8 -17 18 -12 15 -13 14 -14 -13 -2 -54 -19 4 -19 68 -1 31 -5 57 -10
57 -10 0 -25 -34 -26 -60 -1 -25 -15 -39 -31 -33 -11 4 -14 14 -10 34 3 16 -1
43 -9 61 -14 30 -15 30 -14 8 3 -66 0 -78 -21 -73 -11 3 -17 9 -15 14 7 10
-26 28 -40 22 -6 -2 -20 6 -32 16 -11 11 -36 27 -54 35 -45 19 -109 80 -109
101 0 11 -5 15 -15 11 -18 -7 -30 19 -40 87 -5 32 -4 47 4 47 6 0 11 -5 11
-12 0 -8 3 -9 10 -2 15 15 15 79 0 352 -12 230 -19 274 -33 217 -4 -18 -5 -18
-6 3 0 12 -5 22 -10 22 -9 0 -7 68 3 77 3 3 9 -10 15 -28 11 -41 11 -51 15
206 2 116 5 215 6 220 5 24 -1 42 -15 42 -16 0 -22 -18 -28 -82 -2 -22 -2 20
0 93 2 80 -1 132 -7 132 -5 0 -7 6 -4 14 3 9 13 12 27 8 21 -5 21 -5 4 12 -23
24 -20 81 5 81 9 0 20 4 24 8 12 11 27 8 66 -13z m2598 6 c0 -11 -19 -15 -25
-6 -3 5 1 10 9 10 9 0 16 -2 16 -4z m-1107 -31 c4 -8 13 -15 18 -15 6 0 54
-33 107 -74 127 -96 149 -109 168 -102 11 4 18 -1 21 -14 5 -19 22 -28 24 -12
0 4 3 19 5 35 5 26 -10 39 -18 15 -3 -8 -13 -6 -32 9 -15 12 -40 24 -56 28
-16 3 -34 13 -41 21 -6 8 -17 14 -24 14 -6 0 -20 9 -30 20 -15 17 -16 20 -3
20 9 0 21 -7 28 -15 18 -21 37 -19 51 8 6 12 13 24 15 26 3 3 114 -67 140 -88
7 -6 14 -8 17 -5 3 3 33 -12 68 -34 35 -21 97 -53 136 -72 72 -33 97 -60 74
-83 -6 -6 -11 -31 -11 -57 0 -31 3 -40 9 -31 14 22 20 -31 26 -219 7 -202 5
-176 20 -295 8 -55 14 -111 14 -125 0 -60 20 -327 26 -352 5 -19 3 -28 -5 -28
-6 0 -9 3 -7 8 3 4 1 16 -4 27 -5 12 -7 -11 -4 -60 2 -44 4 -91 5 -104 0 -19
3 -21 14 -12 11 9 15 6 20 -14 4 -14 4 -31 0 -36 -3 -6 -6 -26 -6 -45 0 -27
-3 -34 -15 -30 -8 3 -19 6 -24 6 -15 0 -10 40 6 46 8 4 15 11 15 16 0 6 -6 8
-14 5 -16 -6 -30 19 -20 35 4 6 1 8 -7 6 -10 -4 -13 -18 -11 -47 1 -22 0 -41
-3 -41 -2 0 -29 13 -60 28 -42 22 -52 31 -43 40 7 7 20 12 30 12 10 0 18 7 18
15 0 8 -5 15 -10 15 -7 0 -8 14 -4 38 6 32 5 35 -8 24 -13 -10 -18 -9 -29 5
-9 11 -10 14 -1 9 9 -5 12 6 12 43 0 43 2 49 17 44 11 -4 14 -3 9 5 -4 7 -2
12 3 12 6 0 11 5 11 10 0 6 -7 10 -15 10 -8 0 -15 -4 -15 -10 0 -5 -7 -7 -16
-3 -14 5 -16 1 -12 -21 3 -14 2 -29 -2 -31 -5 -3 -11 22 -15 56 -4 33 -11 57
-15 52 -5 -4 0 -57 10 -118 11 -60 19 -119 19 -130 0 -19 -1 -19 -19 4 -20 23
-20 23 -20 2 0 -24 -22 -28 -40 -6 -7 8 -21 15 -32 15 -10 0 -17 4 -13 10 3 5
6 72 6 150 0 88 3 138 9 135 6 -3 10 -19 10 -34 0 -15 5 -32 12 -39 9 -9 9
-12 -1 -12 -9 0 -10 -12 -5 -47 4 -27 8 -59 10 -73 1 -14 2 -31 3 -37 0 -7 7
-13 15 -13 18 0 31 37 18 53 -14 17 -31 107 -21 107 16 0 10 28 -8 34 -13 5
-14 9 -4 19 9 9 14 9 20 -2 7 -10 10 -8 16 9 5 16 3 26 -9 32 -20 11 -21 28
-1 28 11 0 15 12 15 45 0 25 -4 45 -10 45 -5 0 -10 -14 -10 -32 0 -40 -9 -32
-14 12 -2 19 -9 36 -15 38 -9 3 -9 8 0 18 7 9 10 32 6 64 -4 29 -2 50 3 50 6
0 10 -4 10 -10 0 -5 9 -10 19 -10 12 0 23 -9 27 -22 7 -22 7 -22 14 -3 6 15 9
9 15 -27 8 -50 11 -53 33 -39 11 7 11 9 -2 14 -10 4 -16 18 -16 37 0 29 14 42
22 19 4 -11 38 -2 38 11 0 10 -40 25 -56 22 -7 -1 -34 9 -60 23 -30 15 -41 24
-29 24 11 0 31 -6 45 -14 31 -17 53 -19 48 -3 -2 6 -22 17 -43 25 -21 7 -40
15 -42 17 -8 8 10 36 23 36 16 0 18 18 4 40 -7 12 -10 12 -10 1 0 -8 -6 -11
-15 -7 -9 3 -15 1 -14 -7 1 -6 1 -21 0 -31 -2 -32 -16 -7 -18 32 -6 111 -19
207 -28 205 -15 -3 -24 30 -12 45 7 9 6 20 -3 37 -8 15 -10 39 -6 68 4 28 3
48 -4 52 -6 3 -10 -3 -10 -14 0 -12 -4 -21 -10 -21 -15 0 -12 -51 4 -82 9 -18
11 -29 4 -36 -6 -6 -9 -37 -6 -71 2 -34 1 -61 -4 -61 -4 0 -8 29 -8 64 0 36
-5 68 -11 71 -5 4 -9 17 -8 28 4 56 -2 127 -11 127 -13 0 -13 -97 2 -240 12
-130 14 -149 24 -316 5 -83 3 -123 -4 -128 -7 -4 -9 -88 -5 -271 5 -242 5
-265 -11 -265 -9 0 -16 -5 -16 -12 0 -9 -3 -9 -12 0 -8 8 -13 75 -14 219 -5
398 -12 571 -25 595 -18 31 -21 58 -8 58 7 0 9 28 8 78 -3 85 -6 102 -21 102
-7 0 -8 -84 -4 -252 4 -139 7 -281 6 -315 -1 -35 2 -68 6 -75 10 -16 16 -108
13 -203 -1 -38 -2 -91 -2 -117 l1 -47 -37 15 c-20 9 -42 18 -48 21 -7 3 -13 6
-13 7 0 0 4 16 9 33 7 22 6 35 -1 39 -6 4 -8 2 -5 -3 4 -6 -2 -20 -12 -32
l-18 -21 -62 40 c-59 38 -61 41 -62 82 l-1 43 -11 -33 c-6 -21 -15 -31 -24
-28 -7 3 -13 -1 -13 -8 0 -8 -7 -16 -15 -20 -12 -4 -15 5 -15 49 0 33 4 55 11
55 7 0 10 33 9 97 -3 147 0 193 10 193 6 0 10 20 10 45 0 33 4 45 15 45 8 0
15 -8 15 -17 1 -17 1 -17 11 0 7 12 15 15 26 8 17 -9 67 11 69 29 1 5 2 15 3
21 0 5 5 8 10 5 17 -11 20 23 8 91 l-12 68 -6 -65 c-6 -60 -7 -59 -5 20 2 47
6 92 9 100 5 11 -2 19 -25 28 -42 15 -52 5 -52 -55 -1 -44 1 -48 22 -46 20 3
22 -1 22 -47 l0 -50 -35 0 c-19 0 -35 5 -35 10 0 6 6 10 13 10 8 0 8 3 1 8 -6
4 -11 62 -12 150 -2 110 1 149 13 172 21 41 20 63 -4 55 -21 -6 -38 10 -21 20
5 3 10 21 10 40 0 19 4 37 10 40 5 3 7 19 3 35 -3 17 1 46 11 70 20 49 20 50
1 50 -8 0 -15 9 -15 20 0 11 -6 20 -14 20 -16 0 -33 -143 -16 -148 13 -5 13
-32 1 -32 -12 0 -41 29 -41 40 0 5 -3 16 -7 26 -4 11 -3 15 4 11 13 -8 23 15
23 54 0 43 -19 35 -26 -11 -4 -22 -10 -40 -14 -40 -5 0 -6 -9 -3 -20 4 -15 2
-19 -10 -14 -12 4 -18 -2 -23 -22 -6 -24 0 -270 12 -494 2 -41 6 -208 7 -370
2 -162 7 -306 10 -320 4 -14 4 -45 0 -69 -7 -37 -13 -46 -36 -52 -18 -5 -27
-3 -28 4 0 7 -1 39 -3 72 -9 208 -20 327 -30 331 -8 3 -12 141 -13 456 -2 289
-7 455 -13 463 -6 7 -8 19 -5 26 6 16 -11 46 -20 37 -7 -7 -7 -666 0 -678 2
-3 5 -79 6 -169 2 -196 14 -332 34 -386 8 -22 13 -53 11 -70 -1 -16 1 -34 5
-40 13 -17 -2 -67 -18 -61 -8 3 -21 6 -29 6 -8 0 -14 7 -14 15 0 8 -7 15 -15
15 -8 0 -15 5 -15 10 0 6 -6 10 -14 10 -7 0 -19 7 -26 15 -7 8 -20 15 -30 15
-10 0 -23 7 -30 15 -16 19 -40 19 -40 0 0 -22 -18 -18 -31 7 -12 23 -14 126
-3 183 3 17 5 41 5 55 0 24 3 25 54 26 30 0 57 2 59 5 12 12 -12 63 -33 71
-19 7 -29 2 -56 -28 -18 -20 -38 -33 -43 -30 -6 3 -13 0 -16 -6 -4 -7 -3 10 1
37 3 28 8 74 9 104 1 29 7 56 12 60 6 3 12 20 15 36 4 29 4 28 6 -5 0 -20 -4
-41 -10 -47 -7 -7 -9 -19 -5 -29 4 -9 9 -14 13 -10 3 3 15 -1 25 -11 16 -14
18 -15 18 0 0 22 20 32 31 16 7 -11 9 -9 9 7 0 33 -27 79 -47 79 -14 0 -19 10
-21 50 -2 36 0 46 8 35 6 -10 10 -11 10 -2 0 6 7 12 15 12 8 0 15 -4 15 -10 0
-5 7 -7 15 -4 10 4 15 20 15 48 0 29 3 37 10 26 6 -10 9 2 8 38 -2 60 -15 70
-20 15 -2 -21 -7 -38 -13 -39 -5 0 -18 -4 -28 -9 -40 -17 -47 10 -54 210 -5
142 -3 186 5 181 7 -4 12 -1 12 9 0 9 5 13 10 10 6 -4 10 9 10 32 0 30 5 40
23 48 24 11 36 60 18 78 -6 6 -11 20 -10 32 0 11 3 14 6 8 9 -25 23 -13 23 20
0 29 -3 33 -22 32 -17 -1 -25 -10 -29 -31 -4 -16 -7 -25 -8 -21 0 5 -8 1 -17
-7 -19 -19 -38 -21 -31 -3 8 21 -8 82 -21 82 -17 0 -52 55 -52 82 0 30 -20 40
-37 18 -11 -16 -13 -16 -13 -3 0 9 -7 24 -16 33 -9 9 -15 18 -13 19 2 2 31 -2
64 -9 66 -14 170 -67 179 -90 3 -10 19 -15 43 -15 21 0 51 -7 66 -15 25 -13
29 -13 34 1 6 15 -23 54 -40 54 -26 0 -224 116 -215 126 9 9 100 -27 139 -55
23 -17 48 -31 55 -31 7 0 22 -14 35 -31 15 -22 25 -27 32 -20 18 18 23 13 23
-24 0 -40 9 -54 26 -37 7 7 23 12 36 12 24 0 24 -2 18 -46 -5 -39 -4 -45 8
-35 8 6 16 26 19 44 3 25 -2 39 -25 66 -21 23 -28 41 -25 58 2 13 0 26 -4 29
-5 3 -9 14 -9 25 0 11 -4 18 -9 15 -5 -3 -7 -15 -4 -27 5 -16 2 -20 -13 -18
-10 2 -25 0 -31 -4 -16 -10 -17 7 -1 49 13 37 37 41 78 14 14 -10 56 -36 94
-59 85 -51 217 -161 209 -174 -3 -6 -1 -7 5 -3 16 10 32 -27 32 -73 0 -62 17
-57 22 7 6 64 0 87 -22 87 -8 0 -15 9 -15 20 0 11 -6 24 -12 28 -7 4 -13 14
-13 21 0 7 -12 19 -27 27 -16 7 -63 35 -106 61 -43 27 -82 48 -85 48 -4 0 -29
21 -57 46 l-50 45 35 -5 c19 -4 38 -13 43 -21z m336 -30 c9 5 69 -26 202 -107
42 -26 93 -54 113 -62 21 -9 35 -20 31 -26 -9 -15 -41 -12 -55 5 -7 8 -18 15
-26 15 -7 0 -17 6 -21 14 -9 15 -279 156 -300 156 -7 0 -13 4 -13 8 0 19 15
21 37 7 13 -9 28 -13 32 -10z m-554 -53 c-7 -8 -25 9 -25 24 0 8 -5 14 -11 14
-5 0 -7 5 -3 11 4 7 13 0 25 -17 10 -16 16 -30 14 -32z m39 43 c-4 -8 -8 -15
-10 -15 -2 0 -4 7 -4 15 0 8 4 15 10 15 5 0 7 -7 4 -15z m-706 -60 c3 -3 -10
-5 -29 -6 -28 0 -30 -2 -14 -9 34 -15 75 -12 75 6 0 8 5 12 10 9 10 -6 56 -15
88 -17 6 -1 12 -5 12 -8 0 -10 78 -29 148 -36 62 -7 84 -21 108 -68 20 -40 35
-191 27 -281 -6 -84 -6 -42 1 -375 9 -426 24 -591 67 -728 11 -34 17 -67 14
-72 -3 -6 -20 -10 -36 -10 -16 0 -40 -7 -53 -16 -16 -10 -26 -12 -31 -5 -3 6
-1 11 6 11 15 0 2 89 -17 111 -9 10 -15 51 -19 125 -2 60 -7 132 -10 159 -6
57 -13 214 -14 323 -1 41 -5 72 -11 72 -20 0 -6 -384 26 -728 l7 -72 -34 6
c-19 4 -40 14 -46 22 -7 9 -13 13 -13 9 0 -4 -10 -1 -23 8 -13 8 -27 12 -30 8
-4 -3 -7 0 -7 8 0 8 -9 20 -20 27 -11 6 -18 17 -16 24 1 7 1 10 -1 6 -6 -10
-40 10 -83 47 -30 26 -34 35 -29 60 11 49 10 87 -1 80 -7 -4 -9 2 -4 18 3 14
-2 52 -11 84 -10 32 -18 65 -18 73 0 8 -3 20 -7 25 -9 12 -8 71 2 80 4 4 4 14
1 23 -4 15 -3 15 6 2 8 -12 11 -6 11 25 0 49 15 79 26 52 9 -24 23 -21 17 3
-6 22 15 28 35 8 8 -8 15 -8 28 3 16 12 17 12 11 -3 -3 -10 -2 -18 3 -18 6 0
10 10 10 23 0 18 2 19 10 7 6 -10 10 -11 10 -3 0 7 3 12 8 10 4 -1 7 3 7 8 0
6 -3 9 -7 8 -14 -5 -9 25 5 30 7 3 5 7 -8 12 -11 3 -28 11 -37 16 -10 5 -29 9
-43 9 -20 0 -25 5 -25 26 0 14 -7 32 -15 40 -14 14 -18 35 -18 87 0 9 -4 17
-8 17 -5 0 -10 -24 -10 -52 l-2 -53 -12 60 c-8 35 -14 50 -15 35 -2 -22 -3
-20 -11 10 -11 43 -2 130 12 109 7 -11 10 -9 15 9 4 12 10 22 15 22 13 0 28
42 21 58 -3 9 -17 12 -39 10 l-34 -4 2 63 c1 35 6 63 11 63 5 0 7 -13 3 -29
-3 -17 -2 -32 4 -36 7 -4 11 14 12 52 2 110 8 228 11 231 2 2 10 1 18 -1 8 -3
38 -11 65 -18 28 -6 64 -19 80 -27 40 -19 85 -70 78 -88 -3 -8 0 -14 5 -14 7
0 8 -10 2 -31 -11 -38 -4 -59 21 -59 19 0 26 16 10 22 -5 2 -10 35 -11 73 -2
101 -2 105 16 105 34 0 5 25 -32 27 -58 3 -81 8 -96 19 -19 15 -83 32 -205 54
-59 11 -108 20 -110 20 -2 0 -3 4 -3 9 0 6 12 6 32 0 40 -11 38 -11 38 0 0 4
-24 13 -52 19 -29 6 -64 15 -77 18 -16 5 -22 3 -18 -3 4 -6 21 -13 39 -17 28
-6 30 -8 16 -17 -13 -7 -28 -3 -59 16 -37 24 -39 28 -24 39 14 10 37 7 127
-15 61 -16 113 -31 116 -34z m-103 55 c3 -6 -1 -7 -9 -4 -18 7 -21 14 -7 14 6
0 13 -4 16 -10z m2135 0 c0 -5 -7 -10 -15 -10 -8 0 -15 5 -15 10 0 6 7 10 15
10 8 0 15 -4 15 -10z m-1980 -31 c0 -4 -18 -2 -40 3 -22 6 -40 14 -40 18 0 4
18 2 40 -3 22 -6 40 -14 40 -18z m160 -10 c0 -11 7 -22 15 -25 8 -4 15 -11 15
-17 0 -5 -8 -3 -18 6 -10 10 -24 17 -30 17 -7 0 -12 5 -12 10 0 6 5 10 11 10
6 0 8 7 5 16 -3 8 -2 12 4 9 6 -3 10 -15 10 -26z m30 21 c0 -5 -2 -10 -4 -10
-3 0 -8 5 -11 10 -3 6 -1 10 4 10 6 0 11 -4 11 -10z m-75 -20 c3 -5 1 -10 -4
-10 -6 0 -11 5 -11 10 0 6 2 10 4 10 3 0 8 -4 11 -10z m-995 -20 c0 -5 -4 -10
-10 -10 -5 0 -10 5 -10 10 0 6 5 10 10 10 6 0 10 -4 10 -10z m380 0 c26 -16 3
-22 -27 -6 -23 13 -24 15 -8 15 11 1 27 -3 35 -9z m778 -16 c4 -6 14 -14 22
-17 8 -3 -2 -6 -22 -6 -44 -1 -68 7 -68 23 0 15 58 15 68 0z m1862 -66 c0 -39
-2 -69 -4 -67 -2 2 -7 37 -10 78 -5 51 -4 71 3 66 6 -3 11 -38 11 -77z m-2195
-68 c-5 -92 -14 -139 -32 -165 -9 -13 -11 -36 -8 -70 4 -36 3 -44 -4 -30 -13
28 -13 78 0 131 19 73 -14 175 -67 214 -18 14 -34 28 -34 31 0 3 34 -4 75 -15
l74 -21 -4 -75z m1820 70 c-3 -5 -10 -10 -16 -10 -5 0 -9 5 -9 10 0 6 7 10 16
10 8 0 12 -4 9 -10z m-164 -59 c-6 -11 -11 -29 -11 -40 0 -13 -6 -21 -16 -21
-13 0 -14 -3 -4 -15 7 -8 16 -13 20 -10 14 9 20 -26 20 -123 1 -111 25 -395
35 -411 3 -6 10 -9 13 -7 4 2 17 -11 30 -30 12 -19 18 -34 12 -34 -5 0 -10 -7
-10 -15 0 -8 -5 -15 -11 -15 -5 0 -8 4 -5 9 8 12 -3 41 -15 41 -12 0 -11 -72
0 -141 5 -30 12 -88 16 -129 3 -41 7 -88 10 -105 11 -80 14 -147 5 -169 -7
-18 -5 -26 6 -30 12 -5 14 -19 8 -79 -5 -53 -3 -76 5 -82 17 -10 -5 -35 -31
-35 -11 0 -22 -9 -25 -20 -7 -27 -23 -25 -24 3 0 12 -3 47 -5 77 -3 30 -6 80
-6 110 0 30 -7 138 -15 240 -21 254 -20 250 -11 250 5 0 6 17 2 38 -4 20 -7
46 -6 57 1 11 -3 47 -8 79 -6 40 -6 64 1 72 6 7 7 30 3 56 -3 24 -7 67 -8 96
-2 30 -7 57 -13 60 -7 5 -11 60 -11 159 0 83 -3 156 -6 162 -4 7 1 11 14 11
12 0 19 4 15 9 -3 5 3 11 12 13 23 5 27 -6 14 -31z m-1744 -73 c-3 -8 -6 -5
-6 6 -1 11 2 17 5 13 3 -3 4 -12 1 -19z m1980 -1 c3 -4 -28 -7 -71 -7 -42 0
-75 4 -72 8 6 10 133 8 143 -1z m220 -9 c-3 -8 -6 -5 -6 6 -1 11 2 17 5 13 3
-3 4 -12 1 -19z m-2176 -35 c-12 -20 -14 -14 -5 12 4 9 9 14 11 11 3 -2 0 -13
-6 -23z m-34 -5 c-3 -8 -6 -5 -6 6 -1 11 2 17 5 13 3 -3 4 -12 1 -19z m1908
-38 c3 -5 -1 -10 -10 -10 -9 0 -13 5 -10 10 3 6 8 10 10 10 2 0 7 -4 10 -10z
m81 -10 c-17 -6 -36 -5 -45 0 -11 7 -3 9 29 9 42 -1 43 -1 16 -9z m-965 -44
c6 -22 5 -27 -9 -24 -10 2 -18 15 -20 32 -5 37 19 31 29 -8z m939 -36 c0 -5
-8 -10 -17 -10 -15 0 -16 2 -3 10 19 12 20 12 20 0z m193 3 c-7 -2 -21 -2 -30
0 -10 3 -4 5 12 5 17 0 24 -2 18 -5z m-2146 -25 c-3 -8 -6 -5 -6 6 -1 11 2 17
5 13 3 -3 4 -12 1 -19z m20 -80 c-3 -7 -5 -2 -5 12 0 14 2 19 5 13 2 -7 2 -19
0 -25z m982 -22 c-15 -16 -11 -66 5 -66 8 0 14 -8 14 -17 -1 -10 2 -29 5 -43
4 -14 4 -19 1 -12 -3 6 -10 12 -16 12 -7 0 -9 -30 -4 -92 6 -76 5 -91 -6 -80
-9 9 -13 46 -14 115 -1 56 -6 122 -12 146 -7 32 -7 50 1 62 10 16 12 16 23 1
8 -11 9 -21 3 -26z m1196 24 c-3 -5 -10 -10 -16 -10 -5 0 -9 5 -9 10 0 6 7 10
16 10 8 0 12 -4 9 -10z m-2807 -22 c-3 -24 -48 -37 -48 -14 0 18 27 28 34 13
2 -7 5 -4 5 6 1 9 4 17 7 17 3 0 4 -10 2 -22z m2559 16 c-3 -3 -12 -4 -19 -1
-8 3 -5 6 6 6 11 1 17 -2 13 -5z m193 -4 c-19 -13 -30 -13 -30 0 0 6 10 10 23
10 18 0 19 -2 7 -10z m-2097 -237 c5 -7 5 -17 2 -23 -3 -5 -1 -10 4 -10 6 0
11 -10 11 -21 0 -17 -3 -19 -13 -10 -8 6 -16 9 -19 6 -5 -5 -29 234 -27 270 1
11 9 -29 18 -90 9 -60 20 -116 24 -122z m532 123 c10 -14 11 -26 5 -36 -17
-27 -12 -108 8 -120 12 -8 13 -13 5 -16 -7 -3 -13 -18 -13 -32 -1 -20 -3 -23
-9 -12 -5 8 -11 85 -14 170 -2 85 -3 135 0 111 2 -24 11 -53 18 -65z m6 51
c-8 -8 -11 -7 -11 4 0 9 3 19 7 23 4 4 9 2 11 -4 3 -7 -1 -17 -7 -23z m1686 1
c-3 -8 -6 -5 -6 6 -1 11 2 17 5 13 3 -3 4 -12 1 -19z m-2217 -14 c0 -8 -4 -12
-10 -9 -5 3 -10 13 -10 21 0 8 5 12 10 9 6 -3 10 -13 10 -21z m1770 6 c0 -11
-4 -20 -10 -20 -5 0 -10 9 -10 20 0 11 5 20 10 20 6 0 10 -9 10 -20z m278 13
c-10 -2 -26 -2 -35 0 -10 3 -2 5 17 5 19 0 27 -2 18 -5z m-3078 -33 c0 -5 -5
-10 -11 -10 -5 0 -7 5 -4 10 3 6 8 10 11 10 2 0 4 -4 4 -10z m2955 -10 c3 -5
2 -10 -4 -10 -5 0 -13 5 -16 10 -3 6 -2 10 4 10 5 0 13 -4 16 -10z m235 -10
c0 -5 -11 -10 -24 -10 -14 0 -28 5 -31 10 -4 6 7 10 24 10 17 0 31 -4 31 -10z
m-809 -82 l-4 -43 -8 35 c-7 34 -4 50 9 50 4 0 6 -19 3 -42z m39 -9 c0 -6 -4
-7 -10 -4 -5 3 -10 11 -10 16 0 6 5 7 10 4 6 -3 10 -11 10 -16z m560 11 c0 -5
-7 -10 -15 -10 -8 0 -15 5 -15 10 0 6 7 10 15 10 8 0 15 -4 15 -10z m215 -10
c17 -7 15 -9 -12 -9 -17 -1 -35 4 -38 9 -7 12 22 12 50 0z m-2819 -106 c3 -55
10 -132 15 -172 12 -100 12 -215 -1 -207 -6 4 -16 -8 -24 -25 l-13 -32 -6 31
c-4 17 -4 43 -2 59 5 31 14 248 15 371 0 46 2 82 5 79 3 -3 8 -50 11 -104z
m2438 97 c3 -5 -1 -11 -9 -15 -9 -3 -15 0 -15 9 0 16 16 20 24 6z m-396 -56
c-3 -3 -9 2 -12 12 -6 14 -5 15 5 6 7 -7 10 -15 7 -18z m-1303 -33 c-8 -8 -25
17 -25 38 0 9 6 6 16 -8 9 -13 13 -26 9 -30z m-30 8 c3 -5 1 -10 -4 -10 -6 0
-11 5 -11 10 0 6 2 10 4 10 3 0 8 -4 11 -10z m1305 -32 c0 -26 -13 -16 -17 13
-2 12 1 18 7 14 5 -3 10 -16 10 -27z m867 -45 c-3 -3 -13 -3 -23 -1 -16 3 -17
4 -1 20 9 9 18 23 18 30 1 7 4 0 6 -15 3 -16 2 -31 0 -34z m-2137 23 c0 -8
-12 -11 -36 -8 -39 5 -33 16 10 18 14 1 26 -3 26 -10z m60 -3 c0 -7 -3 -13 -7
-14 -5 0 -15 -2 -24 -4 -12 -2 -15 3 -12 15 6 21 43 23 43 3z m1807 -9 c-3 -3
-12 -4 -19 -1 -8 3 -5 6 6 6 11 1 17 -2 13 -5z m133 -4 c0 -5 -2 -10 -4 -10
-3 0 -8 5 -11 10 -3 6 -1 10 4 10 6 0 11 -4 11 -10z m-33 -6 c-3 -3 -12 -4
-19 -1 -8 3 -5 6 6 6 11 1 17 -2 13 -5z m-2007 -24 c0 -5 -7 -7 -15 -4 -8 4
-12 10 -9 15 6 11 24 2 24 -11z m497 -17 c-3 -10 -5 -4 -5 12 0 17 2 24 5 18
2 -7 2 -21 0 -30z m1263 27 c0 -5 -4 -10 -9 -10 -6 0 -13 5 -16 10 -3 6 1 10
9 10 9 0 16 -4 16 -10z m-1286 -99 c-5 -12 -10 -6 -19 24 -11 34 -10 43 4 59
15 17 16 16 19 -24 2 -23 0 -50 -4 -59z m1285 64 c4 -18 -1 -45 -8 -45 -5 0
-9 14 -9 30 1 25 12 35 17 15z m414 -3 c11 -12 13 -22 6 -32 -7 -13 -10 -13
-18 -1 -6 9 -20 12 -40 9 -38 -6 -39 2 -3 24 35 21 36 21 55 0z m-130 -33 c-6
-6 -43 -13 -83 -15 -40 -2 -70 -1 -68 2 7 6 152 31 157 27 3 -2 0 -8 -6 -14z
m-713 -5 c0 -8 -5 -12 -10 -9 -6 4 -8 11 -5 16 9 14 15 11 15 -7z m-1333 -16
c-3 -8 -6 -5 -6 6 -1 11 2 17 5 13 3 -3 4 -12 1 -19z m1850 16 c-3 -3 -12 -4
-19 -1 -8 3 -5 6 6 6 11 1 17 -2 13 -5z m345 -91 c2 -123 5 -174 13 -234 l7
-56 -33 5 c-30 4 -31 6 -14 14 16 7 15 7 -5 2 -60 -14 -80 -16 -80 -5 0 6 -10
11 -22 11 -23 0 -23 0 2 -20 14 -11 39 -20 55 -21 17 -1 4 -5 -30 -10 -33 -5
-67 -7 -75 -3 -17 6 -26 3 -22 -9 1 -5 -7 -5 -19 -2 -12 4 -32 1 -45 -5 -19
-11 -26 -11 -39 0 -20 17 -18 18 51 31 32 5 68 13 79 16 18 5 18 7 -5 16 l-25
11 28 4 c15 2 27 9 27 17 0 7 3 20 6 28 4 11 -1 13 -21 9 -15 -2 -22 -8 -16
-11 5 -4 -10 -6 -35 -6 -39 0 -42 2 -27 13 24 17 107 41 167 47 56 5 74 15 28
15 -34 0 -52 18 -31 31 24 15 -44 11 -90 -6 -60 -21 -141 -30 -141 -16 0 6 7
11 15 11 8 0 15 7 15 15 0 9 14 16 38 20 20 3 45 10 54 16 10 5 25 9 35 9 48
0 143 23 143 35 0 10 -7 11 -27 5 -16 -5 -71 -16 -123 -25 -52 -9 -112 -25
-133 -36 -20 -11 -45 -19 -55 -16 -12 3 -8 6 13 12 17 4 35 12 40 19 12 14 21
15 240 52 17 3 35 10 40 15 10 11 -64 6 -145 -8 -19 -3 -53 -6 -75 -5 -23 1
-35 -2 -27 -7 8 -5 0 -11 -25 -19 -42 -13 -59 -7 -20 7 14 5 28 15 32 20 3 6
21 11 38 12 30 0 84 17 62 18 -5 1 -3 6 5 11 11 7 3 10 -30 11 -36 1 -25 5 55
19 158 28 145 33 147 -57z m-422 52 c-12 -15 -30 -12 -30 6 0 5 10 9 21 9 18
0 19 -2 9 -15z m-2530 -55 c0 -13 -1 -13 -10 0 -5 8 -10 22 -10 30 0 13 1 13
10 0 5 -8 10 -22 10 -30z m2550 16 c0 -2 -11 -13 -24 -25 l-25 -23 4 28 c2 16
4 30 4 31 1 2 41 -9 41 -11z m-449 -71 c-4 -15 -7 -11 -11 15 -3 19 -4 42 -1
50 8 21 18 -40 12 -65z m542 68 c-7 -2 -19 -2 -25 0 -7 3 -2 5 12 5 14 0 19
-2 13 -5z m-1926 -70 c-3 -10 -5 -2 -5 17 0 19 2 27 5 18 2 -10 2 -26 0 -35z
m1893 19 c0 -4 -8 -12 -18 -18 -19 -12 -85 -7 -77 6 3 5 22 6 42 3 26 -4 34
-3 29 5 -4 7 -1 12 8 12 9 0 16 -3 16 -8z m-2610 -17 c0 -8 -4 -15 -10 -15 -5
0 -10 -5 -10 -11 0 -5 5 -7 10 -4 6 3 10 -3 10 -14 0 -14 -5 -19 -15 -15 -9 4
-15 19 -15 40 0 24 5 34 15 34 8 0 15 -7 15 -15z m1230 -6 c0 -5 -4 -9 -10 -9
-5 0 -10 7 -10 16 0 8 5 12 10 9 6 -3 10 -10 10 -16z m-1645 -39 c3 -5 1 -10
-4 -10 -6 0 -11 5 -11 10 0 6 2 10 4 10 3 0 8 -4 11 -10z m380 -21 c6 -6 -1
-9 -20 -8 -17 1 -68 -1 -114 -6 -61 -5 -82 -4 -77 4 4 6 24 12 44 12 20 1 51
5 67 9 33 9 85 3 100 -11z m2584 0 c17 -6 31 -17 31 -25 0 -8 10 -14 23 -14
18 -1 16 -3 -12 -15 -39 -18 -44 -18 -36 -5 3 6 2 10 -4 10 -5 0 -14 -8 -19
-17 -7 -12 -11 -5 -13 30 -2 26 -4 47 -3 47 1 0 15 -5 33 -11z m-481 -59 c-5
-42 -23 -28 -26 20 -2 42 -1 44 13 25 9 -11 15 -31 13 -45z m-2418 19 c0 -5
-15 -9 -32 -9 -31 1 -32 2 -15 15 19 14 47 10 47 -6z m358 -25 c2 -30 -1 -43
-9 -39 -6 4 -8 18 -4 33 5 22 4 24 -9 13 -28 -24 -12 8 20 38 0 1 2 -20 2 -45z
m2732 22 c-19 -7 -57 -16 -85 -20 -46 -7 -48 -6 -29 8 18 13 56 20 129 24 11
0 4 -5 -15 -12z m-2872 -8 c-2 -6 -26 -13 -54 -15 -27 -1 -62 -7 -78 -13 -36
-12 -86 -13 -86 -1 0 5 37 14 83 20 112 15 131 18 135 20 2 0 2 -4 0 -11z
m906 -195 c-9 -9 -15 -8 -29 7 -13 15 -15 28 -9 67 l8 48 10 -45 11 -45 4 70
5 70 6 -80 c4 -57 3 -84 -6 -92z m1901 157 c3 -5 -1 -10 -10 -10 -9 0 -13 5
-10 10 3 6 8 10 10 10 2 0 7 -4 10 -10z m-120 -60 c-3 -6 -1 -10 5 -10 6 0 10
-6 9 -12 -5 -39 2 -48 34 -48 l32 -1 -34 -15 c-19 -8 -36 -12 -39 -9 -3 3 1 5
9 5 9 0 5 7 -10 19 -18 14 -24 30 -27 72 -4 52 -4 53 11 31 9 -12 13 -27 10
-32z m-2592 25 c-2 -6 -15 -14 -30 -19 -16 -5 -32 -15 -36 -22 -11 -19 -27
-18 -27 2 0 11 -5 14 -17 9 -10 -4 -33 -11 -50 -17 -18 -5 -33 -14 -33 -20 0
-9 -4 -8 -12 1 -11 10 -10 14 5 22 21 12 23 41 2 33 -8 -4 -15 -1 -15 4 0 12
50 17 150 17 36 -1 64 -5 63 -10z m-368 -6 c11 -16 1 -19 -13 -3 -7 8 -8 14
-3 14 5 0 13 -5 16 -11z m140 -9 c-3 -5 -16 -10 -28 -10 -18 0 -19 2 -7 10 20
13 43 13 35 0z m1505 -6 c0 -8 -5 -12 -10 -9 -6 4 -8 11 -5 16 9 14 15 11 15
-7z m1450 -4 c0 -5 -5 -10 -11 -10 -5 0 -7 5 -4 10 3 6 8 10 11 10 2 0 4 -4 4
-10z m-2717 -37 c-20 -7 -15 -23 7 -23 11 0 20 -7 20 -16 0 -8 5 -12 10 -9 6
3 10 1 10 -5 0 -6 7 -18 15 -26 8 -9 15 -23 14 -32 0 -11 -2 -12 -6 -4 -5 14
-22 15 -41 3 -17 -10 -5 -61 14 -61 10 0 13 7 9 23 -6 22 -4 23 27 20 18 -3
29 -1 23 4 -13 10 -16 43 -4 43 5 0 9 -5 9 -11 0 -6 21 -30 48 -54 l47 -43
-45 5 c-32 3 -41 2 -30 -6 8 -5 17 -8 21 -5 21 13 119 -46 112 -68 -2 -5 4 -8
13 -8 10 0 14 -6 10 -15 -3 -8 -1 -15 5 -15 5 0 21 -8 36 -17 l26 -17 -49 -12
-49 -12 45 0 c25 1 55 -2 66 -6 18 -5 23 -1 29 26 5 22 9 27 12 16 2 -9 10
-15 18 -12 7 3 16 1 20 -5 3 -6 -1 -11 -9 -11 -9 0 -16 -4 -16 -10 0 -5 4 -10
8 -10 5 0 17 -7 28 -15 17 -13 16 -14 -18 -8 -25 4 -38 2 -38 -5 0 -6 -6 -9
-12 -7 -7 2 -29 0 -48 -5 -33 -9 -34 -9 -5 -7 17 0 39 -4 50 -11 11 -6 14 -12
8 -12 -7 0 -13 -5 -13 -10 0 -7 26 -8 73 -4 64 5 78 3 108 -15 19 -12 28 -21
22 -21 -7 0 -13 -5 -13 -11 0 -5 4 -8 9 -5 4 3 64 8 132 11 77 3 115 1 99 -4
-14 -5 -54 -10 -90 -11 -36 -1 -74 -6 -85 -11 -15 -7 -8 -8 28 -5 61 5 61 -11
0 -19 -27 -3 -76 -10 -110 -16 -34 -5 -65 -9 -70 -8 -4 1 -20 1 -35 0 -31 -1
-39 -21 -8 -21 10 0 23 -7 28 -16 13 -23 88 -36 166 -29 49 5 67 4 62 -4 -5
-7 1 -11 13 -11 12 0 21 4 21 10 0 5 13 8 30 7 16 -1 30 -7 30 -13 0 -8 -38
-14 -112 -18 -62 -3 -122 -6 -133 -7 -18 -2 -153 0 -215 4 -14 0 -97 -3 -185
-7 -88 -4 -242 -9 -342 -10 l-182 -1 -3 65 c-2 36 -2 88 0 116 3 49 4 51 29
46 19 -4 24 -1 21 9 -3 8 -16 14 -29 14 l-24 0 -3 143 c-2 131 3 164 23 132 3
-5 1 -10 -4 -10 -6 0 -11 -9 -11 -20 0 -15 7 -20 25 -20 14 0 25 5 25 10 0 6
-5 10 -10 10 -7 0 -7 6 0 20 9 17 17 19 49 14 42 -7 70 13 32 23 -33 9 -25 20
21 27 24 4 52 17 66 31 l25 25 -30 0 c-42 0 -79 21 -75 42 3 16 6 15 34 -2 23
-14 36 -16 49 -9 10 5 40 12 67 15 27 3 63 9 78 13 28 8 51 3 27 -6z m-383 -3
c0 -5 -2 -10 -4 -10 -3 0 -8 5 -11 10 -3 6 -1 10 4 10 6 0 11 -4 11 -10z
m1647 -12 c-3 -8 -6 -5 -6 6 -1 11 2 17 5 13 3 -3 4 -12 1 -19z m1743 -48 c0
-21 -5 -40 -12 -42 -27 -9 -202 8 -206 20 -3 9 -22 11 -65 8 -34 -3 -52 -3
-39 0 12 3 22 8 22 12 0 4 57 7 127 7 107 0 128 2 128 15 0 16 24 31 38 23 4
-2 7 -21 7 -43z m-3380 31 c0 -12 -20 -25 -27 -18 -7 7 6 27 18 27 5 0 9 -4 9
-9z m3203 2 c-7 -2 -19 -2 -25 0 -7 3 -2 5 12 5 14 0 19 -2 13 -5z m-3150 -20
c-7 -2 -13 -11 -13 -19 0 -8 -7 -14 -15 -14 -8 0 -15 2 -15 5 0 13 26 34 40
34 10 0 11 -2 3 -6z m-59 -28 c3 -8 1 -15 -4 -15 -6 0 -10 7 -10 15 0 8 2 15
4 15 2 0 6 -7 10 -15z m149 -2 c-7 -2 -21 -2 -30 0 -10 3 -4 5 12 5 17 0 24
-2 18 -5z m1971 -18 c3 -8 1 -15 -3 -15 -5 0 -11 7 -15 15 -3 8 -1 15 3 15 5
0 11 -7 15 -15z m850 0 c-4 -8 -10 -15 -15 -15 -5 0 -9 7 -9 15 0 8 7 15 15
15 9 0 12 -6 9 -15z m81 -15 c-3 -5 -18 -10 -33 -10 -21 0 -24 2 -12 10 20 13
53 13 45 0z m-3027 -16 c-9 -9 -21 -13 -27 -9 -16 10 -3 25 22 25 20 0 20 -1
5 -16z m2476 1 c-4 -8 -8 -15 -10 -15 -2 0 -4 7 -4 15 0 8 4 15 10 15 5 0 7
-7 4 -15z m632 -1 c-5 -13 -1 -15 19 -12 14 3 25 2 25 -3 0 -9 -65 -29 -95
-29 -17 0 -17 2 5 13 15 8 24 20 22 30 -2 10 4 17 14 17 11 0 14 -5 10 -16z
m256 -14 c0 -11 1 -26 2 -32 1 -18 -51 -18 -86 0 -36 18 -31 26 7 12 30 -12
55 -7 55 10 0 5 -7 10 -15 10 -8 0 -15 5 -15 10 0 6 11 10 25 10 18 0 25 -6
27 -20z m-2734 -39 c20 -16 56 -39 80 -51 23 -12 45 -26 48 -32 3 -5 -8 -2
-26 7 -17 9 -38 14 -46 11 -8 -3 -14 1 -14 9 0 7 -8 16 -18 19 -19 7 -81 66
-68 66 4 0 24 -13 44 -29z m1622 19 c13 -8 13 -10 -2 -10 -9 0 -20 5 -23 10
-8 13 5 13 25 0z m-120 -10 c0 -5 -4 -10 -10 -10 -5 0 -10 5 -10 10 0 6 5 10
10 10 6 0 10 -4 10 -10z m1045 0 c-3 -5 -11 -10 -16 -10 -6 0 -7 5 -4 10 3 6
11 10 16 10 6 0 7 -4 4 -10z m-1419 -27 c-8 -8 -36 5 -36 17 0 7 6 7 21 0 11
-7 18 -14 15 -17z m453 8 c17 -15 18 -20 7 -24 -8 -3 -17 1 -20 9 -3 8 -15 14
-26 14 -11 0 -20 5 -20 10 0 17 36 11 59 -9z m407 4 c25 -19 15 -19 -27 0 -25
10 -29 14 -13 15 11 0 29 -7 40 -15z m584 -15 c-28 -22 -40 -25 -40 -10 0 6
-24 7 -62 3 -35 -3 -60 -2 -56 2 7 7 97 21 158 23 l25 2 -25 -20z m-1909 -10
l24 -20 -32 11 c-18 6 -33 15 -33 20 0 15 16 10 41 -11z m-447 -38 c-4 -15 -7
-30 -6 -34 1 -5 -3 -8 -8 -8 -11 0 -4 63 8 85 10 16 14 -15 6 -43z m2161 38
c-3 -5 -16 -10 -28 -9 -21 0 -21 1 -2 9 28 12 37 12 30 0z m-2380 -20 c10 -11
16 -20 13 -20 -3 0 -13 9 -23 20 -10 11 -16 20 -13 20 3 0 13 -9 23 -20z
m1069 -16 c4 -10 1 -14 -6 -12 -15 5 -23 28 -10 28 5 0 13 -7 16 -16z m536 7
c8 -1 2 -8 -14 -16 -33 -17 -50 -19 -41 -5 3 6 -3 10 -15 10 -12 0 -19 -4 -16
-9 6 -9 -40 -21 -85 -21 -20 0 -27 4 -23 14 3 8 13 12 25 9 12 -3 21 1 25 11
5 14 17 16 68 12 33 -3 68 -5 76 -5z m1030 1 c0 -4 -53 -16 -117 -26 -65 -9
-129 -20 -143 -23 -16 -4 -21 -2 -15 4 11 10 146 41 205 47 19 1 43 4 53 4 9
1 17 -2 17 -6z m-2059 -19 c12 -15 12 -16 -5 -10 -14 6 -17 4 -12 -8 6 -17 -2
-19 -23 -6 -12 8 -12 12 -2 25 17 20 25 20 42 -1z m1349 -3 l45 -19 -72 0
c-39 -1 -75 4 -78 9 -4 6 6 10 22 10 22 0 25 2 13 10 -27 17 21 11 70 -10z
m177 4 c-3 -3 -12 -4 -19 -1 -8 3 -5 6 6 6 11 1 17 -2 13 -5z m637 -9 c-4 -9
-19 -15 -38 -15 -17 0 -56 -7 -86 -15 -63 -17 -90 -19 -90 -6 0 14 35 23 150
39 36 5 66 10 67 11 1 0 0 -6 -3 -14z m-2689 -15 c3 -6 -1 -7 -9 -4 -18 7 -21
14 -7 14 6 0 13 -4 16 -10z m115 0 c0 -5 -2 -10 -4 -10 -3 0 -8 5 -11 10 -3 6
-1 10 4 10 6 0 11 -4 11 -10z m123 -19 c-3 -13 -11 -17 -24 -14 -10 3 -16 9
-13 14 3 5 10 7 15 4 5 -4 9 1 9 10 0 9 4 14 9 11 5 -3 7 -14 4 -25z m433 7
c5 -8 2 -9 -9 -5 -10 4 -17 1 -17 -5 0 -6 -3 -9 -6 -5 -7 7 4 27 16 27 5 0 12
-5 16 -12z m1088 6 c22 -8 10 -24 -17 -23 -19 1 -19 2 -3 6 15 4 16 7 5 14
-16 10 -8 12 15 3z m-479 -14 c3 -5 1 -10 -4 -10 -6 0 -11 5 -11 10 0 6 2 10
4 10 3 0 8 -4 11 -10z m278 3 c-7 -2 -19 -2 -25 0 -7 3 -2 5 12 5 14 0 19 -2
13 -5z m586 3 c-2 -2 -29 -6 -59 -9 -36 -4 -48 -3 -35 3 19 8 103 14 94 6z
m-1679 -16 c0 -5 -4 -10 -10 -10 -5 0 -10 5 -10 10 0 6 5 10 10 10 6 0 10 -4
10 -10z m995 -1 c11 -17 0 -21 -62 -24 -32 -1 -62 -4 -68 -5 -5 -1 -23 -1 -40
0 -28 2 -28 3 10 11 53 12 127 26 142 28 6 0 15 -4 18 -10z m218 4 c-7 -2 -21
-2 -30 0 -10 3 -4 5 12 5 17 0 24 -2 18 -5z m272 -2 c-13 -11 -118 -29 -220
-37 -44 -3 -81 -9 -83 -14 -2 -4 -13 -5 -24 -2 -21 5 -21 6 -2 13 10 4 34 8
53 8 23 1 32 5 28 14 -4 11 5 12 43 6 48 -7 154 2 167 14 3 4 15 7 27 7 12 0
16 -4 11 -9z m745 -4 c0 -9 -10 -12 -30 -9 -35 5 -30 22 6 22 13 0 24 -6 24
-13z m-1487 -17 c-3 -11 -11 -20 -19 -20 -7 0 -11 6 -8 14 4 10 -3 16 -23 19
-21 3 -18 4 14 6 37 1 41 -1 36 -19z m-1158 0 c3 -5 1 -10 -4 -10 -6 0 -11 5
-11 10 0 6 2 10 4 10 3 0 8 -4 11 -10z m800 0 c-3 -5 -11 -10 -16 -10 -6 0 -7
5 -4 10 3 6 11 10 16 10 6 0 7 -4 4 -10z m1395 0 c-19 -13 -30 -13 -30 0 0 6
10 10 23 10 18 0 19 -2 7 -10z m185 0 c-8 -12 11 -12 95 0 36 5 82 7 103 3 33
-5 37 -8 31 -27 -6 -19 -5 -19 10 -7 20 17 21 15 29 -26 4 -19 2 -33 -3 -33
-6 0 -10 5 -10 10 0 6 -27 10 -61 10 -37 0 -58 4 -54 10 3 6 20 10 36 10 17 0
28 4 25 8 -5 8 -45 4 -164 -16 -29 -5 -55 -5 -58 -1 -3 5 9 9 25 9 17 0 31 5
31 10 0 14 -37 12 -92 -5 -42 -12 -48 -12 -48 0 0 9 10 15 24 15 25 0 48 19
24 21 -18 1 23 17 45 18 10 1 15 -3 12 -9z m-320 -18 c-3 -4 -20 -7 -38 -9
-18 -1 -52 -5 -77 -8 -58 -7 -180 -9 -185 -3 -3 2 57 10 133 17 75 7 142 14
147 16 14 3 28 -6 20 -13z m-1419 -18 c-4 -9 -9 -15 -11 -12 -3 3 -3 13 1 22
4 9 9 15 11 12 3 -3 3 -13 -1 -22z m-531 6 c3 -5 1 -10 -4 -10 -6 0 -11 5 -11
10 0 6 2 10 4 10 3 0 8 -4 11 -10z m290 0 c4 -6 -15 -10 -52 -9 -51 1 -54 2
-23 9 52 11 68 11 75 0z m925 -4 c0 -2 -7 -6 -15 -10 -8 -3 -15 -1 -15 4 0 6
7 10 15 10 8 0 15 -2 15 -4z m116 -10 c1 0 -2 -11 -7 -23 -7 -20 -16 -23 -59
-23 -27 0 -50 5 -50 10 0 6 5 10 11 10 6 0 9 9 6 20 -5 19 -2 20 46 14 29 -4
53 -7 53 -8z m274 -7 c-8 -5 -23 -7 -32 -5 -10 2 -20 1 -23 -4 -5 -9 -194 -34
-202 -27 -3 3 17 8 44 12 26 4 55 9 63 13 20 8 154 29 160 24 2 -1 -2 -7 -10
-13z m-930 1 c0 -5 -11 -10 -25 -10 -14 0 -25 -5 -25 -12 0 -6 -3 -9 -6 -5 -4
3 -4 13 -1 22 7 16 57 21 57 5z m184 -5 c3 -8 1 -15 -4 -15 -6 0 -10 7 -10 15
0 8 2 15 4 15 2 0 6 -7 10 -15z m549 8 c-7 -2 -19 -2 -25 0 -7 3 -2 5 12 5 14
0 19 -2 13 -5z m-456 -9 c-3 -3 -12 -4 -19 -1 -8 3 -5 6 6 6 11 1 17 -2 13 -5z
m-801 -15 c5 -9 -4 -10 -31 -5 -25 5 -35 4 -30 -3 4 -7 -3 -11 -17 -11 -13 0
-29 -5 -35 -11 -8 -8 -13 -8 -18 0 -4 7 6 14 25 17 17 4 33 11 36 15 8 13 62
11 70 -2z m319 -10 c9 -9 -8 -14 -30 -9 -5 1 -50 2 -100 2 l-90 0 64 9 c35 4
66 11 69 14 7 7 75 -5 87 -16z m1290 15 c-16 -2 -54 -7 -82 -10 -48 -5 -52 -7
-43 -25 9 -16 7 -19 -9 -19 -24 0 -36 16 -19 23 14 6 -20 10 -62 8 l-25 -1 25
11 c14 5 32 8 41 6 9 -3 21 -2 27 2 6 3 48 7 94 7 45 1 70 0 53 -2z m100 -14
c-3 -5 10 -6 30 -3 23 4 35 2 35 -6 0 -6 -15 -11 -32 -11 -18 -1 -57 -2 -86
-4 -43 -3 -50 -1 -41 10 6 8 27 14 45 14 19 0 34 5 34 11 0 5 5 7 10 4 6 -4 8
-10 5 -15z m-1202 -10 c3 -11 1 -23 -4 -26 -5 -3 -9 6 -9 20 0 31 6 34 13 6z
m532 11 c8 -14 -19 -19 -110 -20 -97 -2 -93 8 7 19 40 4 78 8 85 9 6 0 14 -3
18 -8z m1012 3 c-3 -3 -12 -4 -19 -1 -8 3 -5 6 6 6 11 1 17 -2 13 -5z m168 -4
c3 -5 1 -10 -5 -10 -7 0 -10 -6 -7 -14 7 -18 -99 -34 -116 -17 -8 8 -1 11 26
11 20 0 37 5 37 10 0 6 9 10 20 10 11 0 20 5 20 10 0 6 4 10 9 10 6 0 13 -4
16 -10z m-645 -15 c11 -13 8 -15 -21 -15 -32 1 -33 1 -15 15 24 18 21 18 36 0z
m729 -2 c45 -5 50 -10 16 -19 -27 -7 -75 11 -75 28 0 5 5 6 12 2 7 -4 28 -9
47 -11z m-2470 3 c-10 -10 -59 -14 -59 -5 0 5 14 9 32 9 17 0 29 -2 27 -4z
m926 -6 c20 -5 -71 -15 -107 -11 -62 5 -34 18 34 15 35 -1 68 -3 73 -4z m65 0
c0 -5 -7 -10 -15 -10 -9 0 -12 -6 -9 -15 4 -9 0 -15 -9 -15 -16 0 -18 31 -2
42 15 11 35 10 35 -2z m-385 -10 c3 -5 -1 -10 -10 -10 -9 0 -13 -4 -10 -10 3
-5 -2 -10 -12 -10 -10 0 -29 -3 -43 -5 -21 -5 -22 -4 -5 3 11 5 18 13 15 17
-3 4 4 11 15 16 28 11 43 11 50 -1z m707 -15 c5 -24 3 -25 -48 -25 -44 0 -54
-3 -54 -17 0 -13 -3 -14 -12 -5 -15 15 -98 16 -98 1 0 -6 -5 -7 -12 -2 -25 15
-48 13 -49 -5 0 -11 -2 -12 -6 -4 -4 10 -22 11 -74 6 -43 -4 -69 -3 -69 3 0 6
42 13 93 16 50 4 133 9 182 12 110 8 135 12 135 26 0 6 -16 8 -45 3 -30 -4
-45 -3 -45 5 0 7 20 11 49 11 44 0 49 -2 53 -25z m156 18 c-10 -2 -26 -2 -35
0 -10 3 -2 5 17 5 19 0 27 -2 18 -5z m607 -3 c-38 -4 -56 -8 -40 -9 54 -4 -3
-20 -70 -19 -33 0 -50 3 -37 5 12 2 35 11 50 19 17 9 53 13 97 12 l70 -2 -70
-6z m-1894 -24 c13 -10 16 -16 7 -13 -9 3 -33 9 -52 13 -20 3 -34 10 -31 14 8
13 49 5 76 -14z m99 12 c0 -4 -8 -11 -17 -16 -13 -7 -24 -4 -38 10 -19 19 -19
19 18 16 20 -1 37 -6 37 -10z m1194 -7 c7 -10 -104 -22 -119 -12 -5 3 8 9 30
12 63 10 83 10 89 0z m411 0 c-6 -5 -30 -11 -55 -14 -25 -2 -34 -2 -20 1 20 5
17 7 -20 12 -40 6 -36 7 30 8 45 1 70 -2 65 -7z m410 -26 c44 1 116 5 160 9
49 4 86 3 95 -3 22 -15 6 -24 -45 -23 -25 1 -45 -2 -45 -7 0 -5 -28 -11 -62
-15 -35 -3 -119 -13 -188 -21 -130 -15 -327 -31 -540 -46 -69 -4 -152 -10
-185 -13 -33 -3 -133 -7 -222 -10 -90 -3 -172 -7 -182 -11 -11 -3 -22 -2 -25
3 -5 9 27 20 84 28 37 5 256 14 323 14 33 -1 57 3 57 9 0 7 18 9 48 6 35 -4
41 -2 22 4 -17 6 4 8 65 6 59 -3 80 -1 60 4 -28 8 -28 9 -5 10 14 1 36 4 50 8
23 6 24 5 11 -11 -13 -16 -11 -17 30 -14 31 2 43 7 41 17 -2 11 9 13 58 8 37
-4 60 -3 60 3 0 6 -6 10 -12 10 -9 0 -8 3 2 10 9 6 17 5 22 -3 6 -9 8 -9 8 1
0 10 10 12 40 7 32 -5 40 -4 40 9 0 8 5 18 11 21 6 4 9 0 7 -11 -2 -13 2 -18
12 -15 8 2 32 4 53 4 20 0 37 3 37 8 0 5 -7 9 -15 9 -8 0 -15 4 -15 8 0 19 14
20 39 4 20 -14 44 -18 106 -17z m-615 16 c0 -10 -188 -26 -197 -17 -4 3 14 6
38 7 24 0 53 4 64 9 27 11 95 12 95 1z m37 3 c-3 -3 -12 -4 -19 -1 -8 3 -5 6
6 6 11 1 17 -2 13 -5z m-1067 -18 c0 -11 -19 -15 -25 -6 -3 5 1 10 9 10 9 0
16 -2 16 -4z m815 -6 c3 -5 1 -10 -4 -10 -6 0 -11 5 -11 10 0 6 2 10 4 10 3 0
8 -4 11 -10z m-983 -14 c9 -13 0 -26 -18 -26 -18 0 -46 25 -38 33 9 9 48 4 56
-7z m1323 4 c4 -6 -12 -9 -42 -9 l-48 2 40 7 c22 4 41 8 42 9 1 0 5 -3 8 -9z
m100 5 c-23 -8 -83 -10 -79 -3 3 4 24 8 47 7 23 0 38 -2 32 -4z m-1328 -11
c-3 -3 -12 -4 -19 -1 -8 3 -5 6 6 6 11 1 17 -2 13 -5z m283 -2 c0 -12 -43 -21
-75 -14 -41 7 -28 18 25 21 28 1 50 -2 50 -7z m745 -2 c4 -6 -13 -10 -43 -10
-33 0 -52 -5 -55 -14 -7 -19 -66 -26 -99 -12 -26 11 -24 13 45 24 39 7 86 14
102 15 17 2 33 5 37 6 4 0 10 -3 13 -9z m91 -3 c4 -4 -4 -7 -19 -7 -14 0 -29
5 -32 10 -7 12 39 9 51 -3z m-1166 -16 c0 -14 49 -19 60 -6 11 14 60 17 60 4
0 -4 -9 -11 -20 -14 -34 -11 -22 -25 21 -25 32 0 42 4 46 20 4 15 14 20 40 20
20 0 32 -4 28 -10 -3 -5 -15 -10 -27 -10 -17 0 -18 -2 -8 -15 10 -12 16 -13
27 -4 14 12 28 5 28 -14 0 -8 30 -13 93 -15 52 -2 92 1 92 7 0 5 -27 9 -61 9
-33 0 -63 3 -66 6 -4 3 8 6 25 6 18 0 32 3 32 8 0 4 33 8 73 9 39 1 88 4 107
7 111 15 225 24 230 18 3 -4 16 -13 30 -19 22 -10 15 -12 -50 -13 -85 -1 -180
-7 -258 -16 -53 -6 -63 -23 -14 -25 43 -2 -56 -17 -113 -17 -89 0 -176 6 -182
12 -9 8 -48 8 -57 -1 -4 -5 -12 -9 -17 -9 -5 -1 -10 -2 -11 -4 -12 -9 -189
-29 -258 -28 -30 0 -47 2 -37 5 9 2 15 9 12 14 -4 5 5 9 19 9 13 0 31 7 39 15
13 13 16 11 21 -11 4 -14 11 -22 17 -18 8 4 8 9 -1 14 -6 4 16 13 49 20 34 7
61 16 61 20 0 4 -12 14 -27 21 -31 16 -41 39 -18 39 8 0 15 -4 15 -9z m395 -1
c-11 -5 -31 -8 -45 -8 -23 0 -22 1 5 8 42 11 65 11 40 0z m-642 -7 c-7 -2 -19
-2 -25 0 -7 3 -2 5 12 5 14 0 19 -2 13 -5z m137 -12 c0 -15 -34 -22 -84 -19
-57 4 -46 16 19 21 28 2 53 4 58 5 4 1 7 -2 7 -7z m2150 0 c0 -4 -11 -6 -25
-3 -14 2 -25 6 -25 8 0 2 11 4 25 4 14 0 25 -4 25 -9z m-2306 -40 l111 -7 -81
-8 c-45 -4 -111 -5 -148 -1 -36 3 -66 2 -66 -3 0 -5 -13 -7 -30 -4 -20 3 -30
10 -29 21 0 11 2 12 6 3 3 -8 9 -10 16 -3 15 12 66 19 91 13 10 -2 68 -7 130
-11z m-1147 -93 c-3 -8 -6 -5 -6 6 -1 11 2 17 5 13 3 -3 4 -12 1 -19z"/>
<path d="M680 2013 c0 -10 5 -35 11 -55 16 -61 69 -46 69 19 0 27 -5 35 -26
43 -37 15 -54 12 -54 -7z"/>
<path d="M936 1924 c-10 -25 -7 -49 7 -68 29 -39 78 13 62 65 -8 24 -60 26
-69 3z"/>
<path d="M1092 1825 c0 -16 2 -22 5 -12 2 9 2 23 0 30 -3 6 -5 -1 -5 -18z"/>
<path d="M1081 1774 c0 -11 3 -14 6 -6 3 7 2 16 -1 19 -3 4 -6 -2 -5 -13z"/>
<path d="M1080 1662 c0 -6 -3 -19 -6 -29 -5 -14 -4 -15 4 -4 7 10 9 -9 7 -65
-1 -43 -1 -64 2 -45 3 26 7 31 14 20 6 -9 9 6 9 47 0 43 -5 65 -15 74 -9 8
-15 8 -15 2z"/>
<path d="M691 1498 c-4 -11 -6 -32 -3 -45 6 -34 58 -33 74 2 9 21 8 28 -7 45
-24 26 -54 25 -64 -2z"/>
<path d="M1077 1401 c-7 -69 -5 -92 8 -79 3 3 5 39 3 79 l-3 74 -8 -74z"/>
<path d="M1107 1335 c3 -71 1 -126 -3 -122 -5 4 -9 16 -9 25 -1 9 -2 29 -3 45
-1 15 -6 27 -12 27 -6 0 -10 -33 -10 -80 0 -44 3 -79 8 -79 22 4 30 -3 25 -21
-3 -11 -9 -20 -13 -20 -4 0 -5 -14 -1 -32 7 -34 30 -50 30 -21 2 170 -2 345
-9 373 -6 23 -7 -9 -3 -95z"/>
<path d="M945 1426 c-9 -14 -15 -37 -13 -53 4 -38 44 -45 70 -11 23 30 23 51
0 71 -25 23 -39 21 -57 -7z"/>
<path d="M673 1368 c16 -44 18 -60 8 -54 -6 4 -11 2 -11 -3 0 -6 4 -11 10 -11
5 0 7 -6 4 -14 -5 -14 52 -56 77 -56 8 0 52 -16 99 -35 46 -19 96 -35 110 -35
14 0 40 -9 58 -20 43 -26 50 -25 24 3 -16 17 -19 26 -11 34 19 19 2 43 -28 43
-35 0 -58 14 -58 36 0 13 -23 24 -87 44 -47 15 -106 39 -131 54 -49 28 -72 33
-64 14z m78 -55 c16 -10 29 -20 29 -24 0 -4 26 -17 58 -29 31 -13 62 -26 67
-30 6 -4 31 -13 58 -20 26 -7 47 -16 47 -20 0 -13 -153 34 -200 61 -8 5 -34
17 -57 28 -24 11 -43 27 -43 35 0 20 5 20 41 -1z"/>
<path d="M1137 1285 c-4 -8 -2 -17 3 -20 6 -4 10 3 10 14 0 25 -6 27 -13 6z"/>
<path d="M1066 1063 c-10 -46 -14 -383 -5 -383 5 0 9 -25 9 -55 0 -32 4 -55
11 -55 7 0 8 78 3 258 -4 141 -8 258 -9 260 -2 2 -6 -9 -9 -25z"/>
<path d="M930 1003 c0 -13 5 -23 10 -23 13 0 13 11 0 30 -8 12 -10 11 -10 -7z"/>
<path d="M802 968 c-19 -19 -14 -62 9 -76 46 -29 83 23 41 59 -30 26 -38 29
-50 17z"/>
<path d="M1099 918 c-4 -8 -6 -48 -3 -48 11 0 23 40 14 45 -5 3 -11 5 -11 3z"/>
<path d="M700 810 c0 -22 5 -40 10 -40 6 0 10 18 10 40 0 22 -4 40 -10 40 -5
0 -10 -18 -10 -40z"/>
<path d="M655 830 c3 -5 8 -10 11 -10 2 0 4 5 4 10 0 6 -5 10 -11 10 -5 0 -7
-4 -4 -10z"/>
<path d="M950 781 c0 -6 5 -13 10 -16 6 -3 10 1 10 9 0 9 -4 16 -10 16 -5 0
-10 -4 -10 -9z"/>
<path d="M2160 2118 c0 -18 18 -34 28 -24 3 4 -2 14 -11 23 -16 16 -17 16 -17
1z"/>
<path d="M2210 2096 c0 -22 3 -27 11 -19 8 8 8 16 0 30 -9 16 -10 14 -11 -11z"/>
<path d="M2579 2055 c-6 -51 -6 -165 0 -165 12 0 21 153 10 165 -6 6 -9 6 -10
0z"/>
<path d="M2637 2045 c-4 -8 -2 -17 3 -20 6 -4 10 3 10 14 0 25 -6 27 -13 6z"/>
<path d="M2068 2014 c-5 -4 -8 -16 -8 -28 0 -14 3 -17 11 -9 6 6 9 19 7 28 -1
9 -6 13 -10 9z"/>
<path d="M2636 2001 c-4 -6 -5 -19 -2 -29 3 -9 1 -35 -4 -57 -5 -22 -7 -42 -4
-44 17 -17 41 98 26 125 -6 11 -11 13 -16 5z"/>
<path d="M2696 1954 c-3 -26 -2 -52 3 -57 13 -13 25 68 13 89 -7 12 -11 5 -16
-32z"/>
<path d="M2751 1981 c-9 -16 -10 -26 -2 -34 13 -13 25 12 19 40 -3 16 -5 15
-17 -6z"/>
<path d="M2322 1938 c-22 -22 -11 -78 14 -78 10 0 14 -16 16 -57 l1 -58 7 50
c4 28 8 41 9 30 2 -11 5 -15 8 -7 2 6 11 12 18 12 16 0 19 88 3 107 -13 16
-60 17 -76 1z"/>
<path d="M2780 1915 c0 -8 -6 -15 -14 -15 -16 0 -76 -83 -76 -105 0 -9 6 -12
15 -9 8 4 15 1 15 -6 0 -17 50 -4 75 20 17 18 18 23 6 55 -7 19 -9 44 -6 55 4
11 2 20 -4 20 -6 0 -11 -7 -11 -15z"/>
<path d="M1965 1880 c-13 -14 -20 -41 -23 -83 -2 -45 0 -58 7 -47 6 8 11 26
11 39 0 14 6 32 14 40 18 20 31 71 19 71 -6 0 -18 -9 -28 -20z"/>
<path d="M2840 1889 c0 -5 5 -7 10 -4 6 3 10 8 10 11 0 2 -4 4 -10 4 -5 0 -10
-5 -10 -11z"/>
<path d="M2462 1840 c0 -14 2 -19 5 -12 2 6 2 18 0 25 -3 6 -5 1 -5 -13z"/>
<path d="M2650 1850 c0 -5 5 -10 10 -10 6 0 10 5 10 10 0 6 -4 10 -10 10 -5 0
-10 -4 -10 -10z"/>
<path d="M2620 1830 c0 -19 3 -21 12 -12 9 9 9 15 0 24 -9 9 -12 7 -12 -12z"/>
<path d="M2322 1810 c0 -14 2 -19 5 -12 2 6 2 18 0 25 -3 6 -5 1 -5 -13z"/>
<path d="M1900 1790 c0 -5 5 -10 10 -10 6 0 10 5 10 10 0 6 -4 10 -10 10 -5 0
-10 -4 -10 -10z"/>
<path d="M1973 1755 c-1 -27 1 -42 4 -32 2 9 9 15 14 12 5 -4 9 -1 9 4 0 6 -4
11 -9 11 -5 0 -12 12 -14 28 -2 15 -4 5 -4 -23z"/>
<path d="M1888 1703 c-2 -38 -1 -81 3 -98 4 -19 7 5 8 68 1 53 -1 97 -3 97 -2
0 -6 -30 -8 -67z"/>
<path d="M2373 1725 c0 -22 2 -30 4 -17 2 12 2 30 0 40 -3 9 -5 -1 -4 -23z"/>
<path d="M1911 1688 c-1 -39 3 -68 9 -68 12 0 12 74 0 110 -6 18 -8 7 -9 -42z"/>
<path d="M2780 1730 c0 -5 5 -10 10 -10 6 0 10 5 10 10 0 6 -4 10 -10 10 -5 0
-10 -4 -10 -10z"/>
<path d="M2875 1681 c-3 -5 -1 -12 5 -16 5 -3 10 1 10 9 0 18 -6 21 -15 7z"/>
<path d="M2447 1673 c-11 -10 -8 -83 3 -83 6 0 10 20 10 45 0 46 -2 50 -13 38z"/>
<path d="M2770 1625 c0 -19 5 -35 10 -35 6 0 10 16 8 35 -1 19 -6 35 -10 35
-4 0 -8 -16 -8 -35z"/>
<path d="M1851 1634 c0 -11 3 -14 6 -6 3 7 2 16 -1 19 -3 4 -6 -2 -5 -13z"/>
<path d="M2850 1621 c0 -25 6 -27 13 -6 4 8 2 17 -3 20 -6 4 -10 -3 -10 -14z"/>
<path d="M2712 1605 c0 -16 2 -22 5 -12 2 9 2 23 0 30 -3 6 -5 -1 -5 -18z"/>
<path d="M2372 1576 c0 -25 4 -43 9 -40 12 7 11 71 -1 79 -5 3 -9 -13 -8 -39z"/>
<path d="M2741 1597 c0 -10 -8 -20 -16 -23 -8 -4 -15 -12 -15 -20 0 -10 6 -8
21 7 11 11 18 28 16 37 -4 15 -5 15 -6 -1z"/>
<path d="M1973 1565 c0 -22 2 -30 4 -17 2 12 2 30 0 40 -3 9 -5 -1 -4 -23z"/>
<path d="M1942 1550 c0 -14 2 -19 5 -12 2 6 2 18 0 25 -3 6 -5 1 -5 -13z"/>
<path d="M2445 1560 c-3 -5 -1 -10 4 -10 6 0 11 5 11 10 0 6 -2 10 -4 10 -3 0
-8 -4 -11 -10z"/>
<path d="M1890 1551 c0 -6 5 -13 10 -16 6 -3 10 1 10 9 0 9 -4 16 -10 16 -5 0
-10 -4 -10 -9z"/>
<path d="M1850 1531 c0 -12 5 -21 10 -21 6 0 10 6 10 14 0 8 -4 18 -10 21 -5
3 -10 -3 -10 -14z"/>
<path d="M2740 1518 c0 -21 5 -38 10 -38 13 0 13 40 0 60 -7 11 -10 5 -10 -22z"/>
<path d="M2780 1484 c0 -19 4 -33 8 -30 8 5 4 66 -4 66 -2 0 -4 -16 -4 -36z"/>
<path d="M1970 1491 c0 -25 6 -27 13 -6 4 8 2 17 -3 20 -6 4 -10 -3 -10 -14z"/>
<path d="M2441 1383 c1 -70 5 -137 10 -148 4 -12 8 40 7 123 0 78 -4 145 -9
148 -6 3 -9 -44 -8 -123z"/>
<path d="M1940 1479 c0 -11 4 -18 10 -14 5 3 7 12 3 20 -7 21 -13 19 -13 -6z"/>
<path d="M1902 1430 c0 -14 2 -19 5 -12 2 6 2 18 0 25 -3 6 -5 1 -5 -13z"/>
<path d="M2721 1434 c0 -11 3 -14 6 -6 3 7 2 16 -1 19 -3 4 -6 -2 -5 -13z"/>
<path d="M1870 1401 c0 -5 -3 -16 -6 -24 -3 -8 2 -17 10 -20 12 -5 16 1 16 23
0 17 -4 30 -10 30 -5 0 -10 -4 -10 -9z"/>
<path d="M1982 1380 c0 -19 2 -27 5 -17 2 9 2 25 0 35 -3 9 -5 1 -5 -18z"/>
<path d="M2891 1395 c0 -11 4 -29 9 -40 8 -18 9 -18 9 5 0 14 -4 32 -9 40 -8
12 -10 12 -9 -5z"/>
<path d="M1983 1290 c0 -25 2 -35 4 -22 2 12 2 32 0 45 -2 12 -4 2 -4 -23z"/>
<path d="M2900 1299 c0 -11 4 -18 10 -14 5 3 7 12 3 20 -7 21 -13 19 -13 -6z"/>
<path d="M1952 1270 c0 -14 2 -19 5 -12 2 6 2 18 0 25 -3 6 -5 1 -5 -13z"/>
<path d="M2393 1225 c0 -22 2 -30 4 -17 2 12 2 30 0 40 -3 9 -5 -1 -4 -23z"/>
<path d="M2912 1220 c0 -14 2 -19 5 -12 2 6 2 18 0 25 -3 6 -5 1 -5 -13z"/>
<path d="M1980 1196 c0 -14 5 -28 10 -31 6 -4 10 7 10 24 0 17 -4 31 -10 31
-5 0 -10 -11 -10 -24z"/>
<path d="M2361 1148 c-1 -46 3 -78 9 -78 11 0 11 80 0 125 -6 22 -8 9 -9 -47z"/>
<path d="M2881 1204 c0 -11 3 -14 6 -6 3 7 2 16 -1 19 -3 4 -6 -2 -5 -13z"/>
<path d="M2250 1175 c0 -22 4 -34 10 -30 6 3 10 17 10 30 0 13 -4 27 -10 30
-6 4 -10 -8 -10 -30z"/>
<path d="M2310 1189 c0 -5 -4 -7 -10 -4 -6 4 -10 -6 -11 -22 0 -29 -17 -78
-18 -55 -1 6 -5 12 -10 12 -12 0 -23 -152 -11 -164 5 -5 10 -27 10 -48 0 -21
5 -38 10 -38 6 0 10 14 10 30 0 17 5 30 10 30 6 0 10 -12 10 -26 0 -14 4 -23
9 -20 4 3 6 17 3 32 -3 14 0 29 7 33 9 6 9 15 1 35 -13 35 -13 183 0 191 6 3
10 10 10 16 0 5 -4 9 -10 9 -5 0 -10 -5 -10 -11z"/>
<path d="M2451 1128 c0 -46 3 -78 9 -78 11 0 12 33 0 105 -7 48 -7 48 -9 -27z"/>
<path d="M2732 1160 c0 -19 2 -27 5 -17 2 9 2 25 0 35 -3 9 -5 1 -5 -18z"/>
<path d="M2390 1154 c0 -8 5 -12 10 -9 6 4 8 11 5 16 -9 14 -15 11 -15 -7z"/>
<path d="M2779 1144 c-1 -5 0 -40 1 -79 2 -68 8 -93 17 -67 3 6 11 12 18 12
10 0 12 9 8 35 -5 29 -3 34 9 30 12 -5 14 0 10 22 -5 24 -6 25 -13 8 -6 -17
-8 -17 -8 -2 -1 9 -5 17 -10 17 -4 0 -6 -24 -3 -52 6 -72 -5 -57 -13 17 -7 56
-13 81 -16 59z"/>
<path d="M2890 1105 c0 -14 4 -25 9 -25 4 0 6 11 3 25 -2 14 -6 25 -8 25 -2 0
-4 -11 -4 -25z"/>
<path d="M2920 1072 c0 -28 4 -53 10 -57 5 -3 7 15 3 47 -8 70 -13 74 -13 10z"/>
<path d="M2400 1017 c0 -36 5 -69 10 -72 7 -5 9 16 4 62 -9 89 -14 93 -14 10z"/>
<path d="M1861 1048 c0 -9 -4 -25 -7 -35 -5 -14 -4 -15 5 -7 7 7 11 22 8 35
-2 13 -5 16 -6 7z"/>
<path d="M2360 1030 c0 -16 5 -30 10 -30 6 0 10 14 10 30 0 17 -4 30 -10 30
-5 0 -10 -13 -10 -30z"/>
<path d="M2894 1023 c2 -16 5 -39 6 -53 1 -21 3 -22 9 -7 9 23 2 87 -9 87 -5
0 -7 -12 -6 -27z"/>
<path d="M2858 1014 c3 -19 1 -25 -7 -20 -6 4 -11 0 -11 -10 0 -13 3 -14 15
-4 16 13 21 60 6 60 -4 0 -6 -12 -3 -26z"/>
<path d="M2461 923 c0 -65 3 -114 9 -118 12 -7 12 105 0 180 -6 41 -8 31 -9
-62z"/>
<path d="M2790 930 c0 -19 3 -21 12 -12 9 9 9 15 0 24 -9 9 -12 7 -12 -12z"/>
<path d="M2842 933 c2 -9 8 -18 15 -20 7 -3 9 3 6 16 -6 25 -26 28 -21 4z"/>
<path d="M2930 933 c0 -13 5 -23 10 -23 13 0 13 11 0 30 -8 12 -10 11 -10 -7z"/>
<path d="M2370 929 c0 -5 5 -7 10 -4 6 3 10 8 10 11 0 2 -4 4 -10 4 -5 0 -10
-5 -10 -11z"/>
<path d="M2900 915 c0 -8 5 -15 10 -15 6 0 10 7 10 15 0 8 -4 15 -10 15 -5 0
-10 -7 -10 -15z"/>
<path d="M2330 880 c0 -18 -4 -29 -10 -25 -6 4 -10 -7 -10 -24 0 -21 5 -31 15
-31 10 0 15 -10 15 -27 0 -16 5 -35 10 -43 9 -13 11 -13 20 0 5 8 9 20 9 25 0
6 -3 4 -6 -3 -12 -30 -23 5 -23 73 0 41 -4 77 -10 80 -6 4 -10 -7 -10 -25z"/>
<path d="M2410 896 c0 -9 5 -16 10 -16 6 0 10 4 10 9 0 6 -4 13 -10 16 -5 3
-10 -1 -10 -9z"/>
<path d="M2871 858 c-1 -16 4 -28 9 -28 12 0 12 8 0 35 -8 18 -9 17 -9 -7z"/>
<path d="M2240 834 c0 -8 5 -12 10 -9 6 4 8 11 5 16 -9 14 -15 11 -15 -7z"/>
<path d="M2840 835 c0 -8 5 -15 10 -15 6 0 10 7 10 15 0 8 -4 15 -10 15 -5 0
-10 -7 -10 -15z"/>
<path d="M1891 816 c-12 -15 -5 -92 10 -101 4 -3 20 6 36 21 18 17 29 21 32
13 2 -7 -4 -18 -13 -24 -9 -7 -16 -16 -16 -21 1 -14 59 -80 60 -67 0 6 -7 18
-15 27 -8 8 -15 21 -15 28 0 10 2 10 9 -1 7 -10 10 -10 16 -1 4 7 2 16 -4 20
-7 4 -12 27 -13 51 0 24 -5 50 -10 57 -14 16 -63 15 -77 -2z"/>
<path d="M2410 793 c0 -11 -5 -24 -12 -31 -17 -17 -2 -28 17 -12 17 14 20 46
5 55 -5 3 -10 -2 -10 -12z"/>
<path d="M2872 745 c0 -30 5 -55 9 -55 5 0 9 25 9 55 0 30 -4 55 -9 55 -5 0
-9 -25 -9 -55z"/>
<path d="M2495 770 c-3 -5 -1 -10 4 -10 6 0 11 5 11 10 0 6 -2 10 -4 10 -3 0
-8 -4 -11 -10z"/>
<path d="M2021 754 c0 -11 3 -14 6 -6 3 7 2 16 -1 19 -3 4 -6 -2 -5 -13z"/>
<path d="M2470 704 c0 -8 5 -12 10 -9 6 4 8 11 5 16 -9 14 -15 11 -15 -7z"/>
<path d="M2720 700 c0 -5 5 -10 10 -10 6 0 10 5 10 10 0 6 -4 10 -10 10 -5 0
-10 -4 -10 -10z"/>
<path d="M2035 681 c3 -6 -3 -14 -12 -20 -10 -5 -15 -12 -11 -16 10 -10 46 17
41 32 -3 7 -9 13 -15 13 -5 0 -7 -4 -3 -9z"/>
<path d="M1460 1975 c0 -14 5 -25 10 -25 6 0 10 11 10 25 0 14 -4 25 -10 25
-5 0 -10 -11 -10 -25z"/>
<path d="M1407 1947 c-6 -26 -4 -43 4 -53 9 -11 9 -17 0 -28 -8 -9 -8 -15 -1
-18 7 -2 7 -14 0 -38 -14 -47 -13 -180 1 -180 6 0 8 8 5 18 -3 9 -1 24 4 32 7
11 10 8 10 -15 0 -23 3 -26 10 -15 6 10 4 22 -5 37 -8 12 -15 30 -15 40 0 12
3 14 8 6 4 -7 9 7 10 33 1 31 -2 43 -9 38 -7 -4 -10 -1 -7 7 3 8 15 16 29 18
13 1 27 8 31 15 4 6 8 -50 8 -124 0 -86 4 -130 9 -120 6 8 7 18 4 23 -3 5 1
14 8 19 11 7 11 11 2 15 -7 2 -13 9 -13 14 0 6 4 8 9 5 5 -4 11 22 13 56 2 35
8 71 13 82 7 16 5 17 -12 8 -18 -10 -19 -7 -17 29 1 22 5 56 8 75 4 21 3 34
-4 34 -5 0 -10 -11 -10 -24 0 -22 -2 -23 -25 -13 -14 7 -25 18 -25 25 0 25
-20 11 -21 -15 -1 -21 -3 -18 -8 12 l-7 40 -7 -38z"/>
<path d="M1356 1944 c-7 -19 16 -174 26 -174 4 0 8 40 8 89 0 67 -3 90 -14 94
-8 3 -17 -1 -20 -9z"/>
<path d="M1518 1875 c-3 -14 -1 -28 3 -31 5 -3 9 9 9 25 0 38 -6 40 -12 6z"/>
<path d="M1541 1874 c0 -11 3 -14 6 -6 3 7 2 16 -1 19 -3 4 -6 -2 -5 -13z"/>
<path d="M1607 1766 c-9 -24 3 -90 14 -79 5 5 5 29 1 53 -6 34 -10 40 -15 26z"/>
<path d="M1624 1663 c-8 -3 -8 -18 -1 -53 13 -67 30 -64 21 3 -8 60 -6 55 -20
50z"/>
<path d="M1409 1615 c-4 -3 -4 -45 -1 -92 4 -63 2 -84 -6 -79 -8 5 -10 1 -5
-10 4 -11 8 -13 11 -6 7 23 21 12 24 -20 2 -17 9 -33 15 -36 10 -3 11 11 6 59
-4 46 -3 60 5 55 8 -5 12 3 12 26 0 25 -3 29 -10 18 -10 -16 -11 -14 -14 42
-1 9 -5 20 -10 25 -5 4 -6 -19 -2 -56 3 -35 3 -61 -1 -58 -3 4 -9 37 -12 73
-3 36 -9 63 -12 59z"/>
<path d="M1531 1553 c-1 -33 3 -53 10 -53 7 0 9 10 7 25 -4 17 -1 25 8 25 8 0
14 7 14 15 0 18 -20 20 -21 3 -1 -7 -5 -2 -9 12 -6 20 -8 14 -9 -27z"/>
<path d="M1491 1543 c-1 -24 4 -43 9 -43 12 0 12 37 0 65 -7 15 -9 10 -9 -22z"/>
<path d="M1332 1550 c0 -14 2 -19 5 -12 2 6 2 18 0 25 -3 6 -5 1 -5 -13z"/>
<path d="M1360 1545 c0 -15 4 -24 10 -20 6 3 10 12 10 20 0 8 -4 17 -10 20 -6
4 -10 -5 -10 -20z"/>
<path d="M1615 1530 c3 -5 8 -10 11 -10 2 0 4 5 4 10 0 6 -5 10 -11 10 -5 0
-7 -4 -4 -10z"/>
<path d="M1610 1476 c0 -38 14 -55 24 -30 7 19 -3 64 -15 64 -5 0 -9 -15 -9
-34z"/>
<path d="M1566 1492 c-2 -4 -1 -23 4 -42 l8 -35 1 43 c1 41 -3 50 -13 34z"/>
<path d="M1493 1429 c4 -30 7 -64 7 -76 0 -13 5 -23 11 -23 6 0 8 9 4 21 -4
12 -2 24 4 29 9 5 8 14 -3 35 -8 15 -12 33 -10 40 3 7 0 16 -7 21 -9 5 -11 -6
-6 -47z"/>
<path d="M1537 1388 c3 -46 10 -92 15 -103 5 -13 7 -1 3 35 -3 30 -5 76 -5
103 0 26 -4 47 -10 47 -6 0 -7 -32 -3 -82z"/>
<path d="M1460 1443 c0 -13 5 -23 10 -23 13 0 13 11 0 30 -8 12 -10 11 -10 -7z"/>
<path d="M1580 1300 c0 -5 5 -10 11 -10 5 0 7 5 4 10 -3 6 -8 10 -11 10 -2 0
-4 -4 -4 -10z"/>
<path d="M1510 1194 c0 -14 4 -23 9 -20 5 3 7 15 4 26 -7 28 -13 25 -13 -6z"/>
<path d="M1440 1165 c-7 -9 -19 -14 -27 -11 -9 4 -13 -4 -13 -25 0 -23 4 -30
14 -26 8 3 16 -2 19 -14 5 -20 27 -27 27 -8 0 5 5 7 11 4 7 -5 3 -14 -10 -26
-12 -11 -21 -24 -21 -29 0 -16 22 -23 31 -9 7 12 9 11 9 -1 1 -12 4 -11 15 4
19 25 10 125 -13 144 -20 16 -27 15 -42 -3z"/>
<path d="M1370 1134 c0 -8 -4 -13 -9 -10 -13 8 -21 -18 -11 -35 5 -7 11 -11
13 -9 8 8 19 70 13 70 -3 0 -6 -7 -6 -16z"/>
<path d="M1520 1062 c0 -18 5 -32 10 -32 6 0 8 11 4 28 -10 39 -14 40 -14 4z"/>
<path d="M1567 1084 c-4 -4 -7 -14 -7 -23 0 -11 3 -12 11 -4 6 6 10 16 7 23
-2 6 -7 8 -11 4z"/>
<path d="M1360 1045 c0 -23 12 -45 21 -39 5 3 9 -2 9 -10 0 -9 5 -16 10 -16
11 0 12 15 4 47 -7 24 -44 39 -44 18z"/>
<path d="M1520 1001 c0 -6 5 -13 10 -16 6 -3 10 1 10 9 0 9 -4 16 -10 16 -5 0
-10 -4 -10 -9z"/>
<path d="M1446 985 c-3 -8 -1 -15 4 -15 6 0 10 7 10 15 0 8 -2 15 -4 15 -2 0
-6 -7 -10 -15z"/>
<path d="M1480 981 c0 -6 5 -13 10 -16 6 -3 10 1 10 9 0 9 -4 16 -10 16 -5 0
-10 -4 -10 -9z"/>
<path d="M1451 934 c0 -11 3 -14 6 -6 3 7 2 16 -1 19 -3 4 -6 -2 -5 -13z"/>
<path d="M1390 910 c9 -17 10 -21 10 -100 0 -25 5 -52 11 -60 7 -11 9 6 5 60
-3 41 -5 84 -6 96 0 11 -7 21 -14 21 -11 0 -12 -5 -6 -17z"/>
<path d="M1463 904 c-15 -16 -17 -44 -3 -44 6 0 10 7 10 16 0 8 5 12 10 9 6
-3 10 1 10 9 0 21 -13 26 -27 10z"/>
<path d="M1483 864 c3 -6 -7 -15 -22 -22 -26 -12 -28 -16 -27 -76 1 -36 4 -67
7 -71 10 -9 89 14 89 26 0 5 -7 12 -15 15 -8 4 -15 12 -15 20 0 8 7 14 15 14
8 0 15 5 15 11 0 16 -31 78 -43 86 -5 3 -7 2 -4 -3z m-1 -101 c-9 -3 -10 -9
-3 -17 6 -7 6 -17 1 -26 -8 -12 -10 -12 -10 3 0 10 -4 15 -10 12 -12 -7 -12
-3 -4 19 3 9 14 16 23 15 11 0 12 -2 3 -6z"/>
<path d="M1530 861 c0 -6 5 -13 10 -16 6 -3 10 1 10 9 0 9 -4 16 -10 16 -5 0
-10 -4 -10 -9z"/>
<path d="M1543 790 c0 -25 2 -35 4 -22 2 12 2 32 0 45 -2 12 -4 2 -4 -23z"/>
<path d="M1280 2020 c0 -5 5 -10 10 -10 6 0 10 5 10 10 0 6 -4 10 -10 10 -5 0
-10 -4 -10 -10z"/>
<path d="M1301 1974 c0 -11 3 -14 6 -6 3 7 2 16 -1 19 -3 4 -6 -2 -5 -13z"/>
<path d="M3415 1151 c-29 -4 -41 -11 -43 -25 -3 -13 1 -17 12 -13 9 4 38 9 66
13 27 4 50 10 50 14 0 8 -27 21 -38 18 -4 0 -25 -4 -47 -7z"/>
<path d="M3400 1020 c0 -5 5 -10 10 -10 6 0 10 5 10 10 0 6 -4 10 -10 10 -5 0
-10 -4 -10 -10z"/>
<path d="M3300 1000 c0 -5 9 -10 20 -10 11 0 20 5 20 10 0 6 -9 10 -20 10 -11
0 -20 -4 -20 -10z"/>
<path d="M3480 1000 c0 -5 7 -10 15 -10 8 0 15 5 15 10 0 6 -7 10 -15 10 -8 0
-15 -4 -15 -10z"/>
<path d="M3450 890 c0 -5 5 -10 10 -10 6 0 10 5 10 10 0 6 -4 10 -10 10 -5 0
-10 -4 -10 -10z"/>
<path d="M3240 780 c0 -5 4 -10 9 -10 6 0 13 5 16 10 3 6 -1 10 -9 10 -9 0
-16 -4 -16 -10z"/>
<path d="M3118 963 c7 -3 16 -2 19 1 4 3 -2 6 -13 5 -11 0 -14 -3 -6 -6z"/>
<path d="M410 740 c0 -5 7 -10 15 -10 8 0 15 5 15 10 0 6 -7 10 -15 10 -8 0
-15 -4 -15 -10z"/>
<path d="M517 743 c-4 -3 -7 -13 -7 -21 0 -12 2 -12 17 -1 11 10 14 10 9 2 -5
-9 -1 -13 12 -13 15 0 19 5 15 20 -5 19 -33 27 -46 13z"/>
<path d="M491 681 c-16 -11 0 -23 36 -27 26 -3 32 20 7 30 -20 8 -26 7 -43 -3z"/>
<path d="M385 670 c-3 -5 -1 -19 6 -31 8 -15 13 -18 18 -10 5 7 12 11 17 9 9
-3 14 4 14 23 0 5 -4 7 -10 4 -5 -3 -10 -1 -10 4 0 14 -27 14 -35 1z"/>
<path d="M333 636 c15 -12 13 -15 -28 -26 -32 -9 -45 -18 -45 -30 0 -11 -10
-20 -25 -24 -16 -4 -25 -13 -25 -26 0 -11 -4 -20 -10 -20 -19 0 -10 -38 10
-43 21 -5 28 7 10 18 -18 11 0 25 32 25 26 0 29 2 18 15 -7 8 -11 15 -9 16 2
0 17 2 32 3 16 1 31 6 35 11 4 6 18 12 32 13 32 5 36 10 23 23 -8 8 -18 7 -34
-5 -13 -9 -32 -16 -42 -16 -17 0 -17 1 0 19 10 11 29 21 42 23 14 1 26 10 28
18 4 13 3 13 -6 0 -9 -13 -11 -13 -11 3 0 11 -8 17 -22 17 -21 -1 -22 -2 -5
-14z"/>
<path d="M475 590 c-3 -5 -1 -10 4 -10 6 0 11 5 11 10 0 6 -2 10 -4 10 -3 0
-8 -4 -11 -10z"/>
<path d="M778 523 c7 -3 16 -2 19 1 4 3 -2 6 -13 5 -11 0 -14 -3 -6 -6z"/>
<path d="M710 500 c-24 -8 -23 -8 8 -9 20 -1 31 3 27 9 -3 6 -7 10 -8 9 -1 -1
-13 -5 -27 -9z"/>
<path d="M453 464 l-28 -12 27 -1 c15 -1 29 3 32 8 3 5 15 7 25 4 11 -3 28 0
38 6 27 16 -57 12 -94 -5z"/>
<path d="M335 440 c-18 -8 -18 -9 5 -8 14 0 36 4 50 8 24 8 24 8 -5 8 -16 0
-39 -3 -50 -8z"/>
<path d="M725 431 c-7 -12 12 -24 25 -16 11 7 4 25 -10 25 -5 0 -11 -4 -15 -9z"/>
<path d="M770 430 c0 -5 5 -10 10 -10 6 0 10 5 10 10 0 6 -4 10 -10 10 -5 0
-10 -4 -10 -10z"/>
<path d="M568 423 c-63 -3 -80 -7 -88 -22 -5 -10 -24 -21 -41 -25 -18 -3 -30
-8 -27 -11 4 -5 151 17 246 37 58 12 71 29 20 26 -18 -1 -68 -4 -110 -5z m-38
-23 c0 -5 -9 -10 -21 -10 -11 0 -17 5 -14 10 3 6 13 10 21 10 8 0 14 -4 14
-10z"/>
<path d="M246 404 c-19 -19 -12 -34 15 -34 21 0 27 20 7 20 -8 0 -5 7 6 15 17
13 17 15 4 15 -9 0 -24 -7 -32 -16z"/>
<path d="M370 400 c0 -5 7 -10 16 -10 8 0 12 5 9 10 -3 6 -10 10 -16 10 -5 0
-9 -4 -9 -10z"/>
<path d="M790 370 c-13 -8 -12 -10 3 -10 9 0 17 5 17 10 0 12 -1 12 -20 0z"/>
<path d="M315 340 c-3 -5 -1 -10 4 -10 6 0 11 5 11 10 0 6 -2 10 -4 10 -3 0
-8 -4 -11 -10z"/>
<path d="M525 340 c-4 -6 5 -9 19 -8 15 1 26 6 26 10 0 12 -38 10 -45 -2z"/>
<path d="M810 329 c0 -4 12 -9 28 -12 15 -3 38 -8 52 -12 l25 -6 -24 14 c-18
11 -20 16 -10 20 8 3 -5 5 -28 4 -24 -1 -43 -5 -43 -8z"/>
<path d="M238 313 c-37 -15 -50 -37 -26 -45 7 -3 17 5 23 16 6 11 21 23 35 26
14 3 20 9 15 12 -6 3 -27 -1 -47 -9z"/>
<path d="M744 321 c3 -5 15 -7 26 -4 28 7 25 13 -6 13 -14 0 -23 -4 -20 -9z"/>
<path d="M891 269 c-13 -5 -32 -7 -42 -4 -10 4 -26 2 -35 -3 -14 -8 -13 -10 7
-15 13 -3 35 -4 49 -2 14 1 42 3 63 4 26 1 37 6 37 16 0 17 -41 19 -79 4z"/>
<path d="M980 266 c0 -14 48 -32 58 -21 3 3 -4 8 -17 12 -17 4 -19 8 -9 14 9
6 7 9 -9 9 -13 0 -23 -6 -23 -14z"/>
<path d="M1090 270 c0 -5 5 -10 11 -10 5 0 7 5 4 10 -3 6 -8 10 -11 10 -2 0
-4 -4 -4 -10z"/>
<path d="M670 253 c-25 -3 -49 -9 -55 -14 -7 -7 15 -8 65 -4 41 3 83 6 93 6 9
0 15 4 12 10 -6 9 -27 9 -115 2z"/>
<path d="M410 230 c0 -6 26 -10 59 -10 33 0 63 5 66 10 4 6 -18 10 -59 10 -37
0 -66 -4 -66 -10z"/>
<path d="M906 210 c-23 -8 -14 -15 33 -25 25 -5 32 -4 29 5 -6 18 -39 29 -62
20z"/>
<path d="M840 200 c0 -5 5 -10 10 -10 6 0 10 5 10 10 0 6 -4 10 -10 10 -5 0
-10 -4 -10 -10z"/>
<path d="M778 193 c7 -3 16 -2 19 1 4 3 -2 6 -13 5 -11 0 -14 -3 -6 -6z"/>
<path d="M210 180 c0 -5 5 -10 11 -10 5 0 7 5 4 10 -3 6 -8 10 -11 10 -2 0 -4
-4 -4 -10z"/>
<path d="M448 173 c-32 -8 -21 -30 12 -25 25 3 28 7 19 18 -6 8 -12 13 -13 13
0 -1 -9 -3 -18 -6z"/>
<path d="M495 170 c3 -5 15 -10 26 -10 10 0 19 5 19 10 0 6 -12 10 -26 10 -14
0 -23 -4 -19 -10z"/>
<path d="M370 144 c0 -8 9 -14 20 -14 11 0 20 4 20 9 0 5 -9 11 -20 14 -13 3
-20 0 -20 -9z"/>
<path d="M3395 440 c-27 -4 -45 -8 -40 -10 22 -6 131 2 140 11 10 10 -22 10
-100 -1z"/>
<path d="M2285 400 c-3 -5 -2 -10 4 -10 5 0 13 5 16 10 3 6 2 10 -4 10 -5 0
-13 -4 -16 -10z"/>
<path d="M3150 270 c0 -5 4 -10 9 -10 6 0 13 5 16 10 3 6 -1 10 -9 10 -9 0
-16 -4 -16 -10z"/>
<path d="M3066 260 c6 -6 21 -6 39 -1 30 9 30 9 -9 10 -26 1 -37 -2 -30 -9z"/>
<path d="M3013 253 c9 -2 23 -2 30 0 6 3 -1 5 -18 5 -16 0 -22 -2 -12 -5z"/>
<path d="M1528 163 c7 -3 16 -2 19 1 4 3 -2 6 -13 5 -11 0 -14 -3 -6 -6z"/>
<path d="M1275 2840 c-3 -5 1 -10 10 -10 9 0 13 5 10 10 -3 6 -8 10 -10 10 -2
0 -7 -4 -10 -10z"/>
<path d="M1150 2820 c-13 -8 -12 -10 3 -10 9 0 17 5 17 10 0 12 -1 12 -20 0z"/>
</g>
</svg>
