<?xml version="1.0" standalone="no"?>
<!DOCTYPE svg PUBLIC "-//W3C//DTD SVG 20010904//EN"
 "http://www.w3.org/TR/2001/REC-SVG-20010904/DTD/svg10.dtd">
<svg version="1.0" xmlns="http://www.w3.org/2000/svg"
 width="305.000000pt" height="255.000000pt" viewBox="0 0 305.000000 255.000000"
 preserveAspectRatio="xMidYMid meet">
<metadata>
Created by potrace 1.16, written by Peter Selinger 2001-2019
</metadata>
<g transform="translate(0.000000,255.000000) scale(0.100000,-0.100000)"
fill="#000000" stroke="none">
<path d="M230 2531 c-95 -7 -110 -13 -110 -44 0 -18 -2 -19 -10 -7 -9 13 -11
13 -20 0 -14 -22 -12 -27 11 -33 19 -5 20 -11 15 -69 -16 -164 -2 -1370 19
-1693 9 -132 19 -318 22 -413 4 -126 10 -175 20 -183 7 -6 13 -18 13 -26 0
-11 7 -13 30 -8 45 10 428 9 545 -1 111 -10 229 -10 1382 -4 749 5 803 6 820
23 16 16 18 47 20 339 2 225 6 324 14 329 8 5 8 8 0 10 -16 6 -16 52 -3 519 7
234 9 490 6 570 -3 80 -7 255 -7 389 l-2 243 -34 29 c-24 20 -39 26 -50 20 -9
-5 -34 -11 -56 -15 -56 -9 -1359 -12 -1420 -4 -131 19 -329 27 -645 27 -190 0
-374 1 -410 4 -36 2 -103 2 -150 -2z m499 -57 c2 -2 -1 -15 -7 -30 -8 -16 -17
-22 -25 -18 -6 4 -9 4 -5 -1 4 -4 -1 -19 -12 -32 -19 -25 -19 -25 3 -58 50
-76 104 -152 136 -192 18 -24 30 -43 27 -43 -4 0 6 -11 21 -24 15 -13 24 -28
20 -32 -11 -12 -62 22 -61 41 1 8 -6 15 -15 15 -9 0 -34 17 -54 38 -37 38 -41
56 -9 44 15 -5 15 -4 3 11 -7 9 -22 17 -32 17 -18 0 -51 44 -77 104 -11 24
-11 31 0 37 10 6 8 12 -7 23 -18 13 -19 16 -4 33 16 18 15 43 -2 43 -5 0 -9
-6 -9 -14 0 -8 -9 -18 -20 -21 -11 -3 -20 -13 -20 -21 0 -8 -7 -14 -15 -14
-17 0 -18 -2 -9 -24 3 -9 10 -13 16 -10 11 7 45 -21 60 -49 8 -16 7 -17 -11
-7 -12 6 -21 15 -21 19 0 13 -28 22 -35 11 -6 -10 72 -103 197 -231 77 -80
102 -100 129 -103 27 -3 38 -11 57 -46 19 -34 21 -44 11 -51 -20 -12 -29 -11
-29 4 0 7 -14 23 -32 37 -18 14 -57 48 -88 77 -30 28 -75 68 -99 89 -76 67
-191 236 -191 281 0 44 21 93 40 93 10 0 22 5 25 11 6 9 132 3 144 -7z m257
-169 c11 -22 19 -49 19 -60 0 -23 -19 -28 -21 -5 -1 8 -5 24 -9 34 -8 18 -9
18 -17 -4 -7 -19 -13 -22 -43 -17 -24 4 -33 2 -29 -5 4 -7 2 -8 -4 -4 -24 14
14 143 56 189 16 18 17 17 23 -34 3 -30 15 -72 25 -94z m374 138 c-1 -5 -14
-26 -30 -48 -17 -22 -43 -60 -60 -85 -44 -67 -43 -66 -114 -80 -66 -12 -86
-23 -66 -35 21 -13 114 -33 129 -27 23 9 -15 20 -68 21 -56 1 -46 11 30 32
l59 16 6 -26 c3 -14 9 -42 14 -62 13 -48 12 -61 -2 -54 -7 4 -6 1 3 -7 15 -12
36 -58 26 -58 -2 0 -14 9 -27 20 -13 11 -34 20 -47 20 -22 0 -34 19 -13 21 6
1 15 2 22 3 6 0 13 7 16 14 2 8 -10 12 -40 13 l-43 1 30 14 30 15 -34 -6 c-18
-3 -53 -5 -77 -5 -24 0 -44 -4 -44 -10 0 -5 10 -10 23 -10 43 0 67 -12 67 -32
0 -17 -6 -19 -40 -17 -21 2 -42 0 -46 -4 -4 -4 10 -7 32 -7 29 0 35 -3 24 -10
-8 -5 -32 -10 -52 -10 -21 0 -38 -4 -38 -10 0 -5 7 -10 15 -10 18 0 19 -13 3
-41 -10 -17 -10 -23 0 -26 17 -6 15 -23 -3 -23 -9 0 -15 9 -15 23 -1 12 -3 45
-6 74 -4 34 0 73 11 110 20 73 95 203 147 259 36 38 46 43 92 47 28 2 59 4 69
5 9 1 17 -1 17 -5z m-849 -238 c42 -5 63 -13 80 -31 l22 -24 -37 0 c-22 0 -35
-4 -31 -10 10 -15 -31 -12 -44 4 -13 15 -87 37 -123 35 -17 -1 -14 -3 12 -11
19 -5 47 -12 63 -15 15 -3 30 -10 33 -15 9 -14 -139 -4 -206 14 l-55 15 40 17
c46 20 130 35 165 31 14 -2 50 -7 81 -10z m419 -28 c0 -5 -4 -5 -10 -2 -5 3
-10 14 -10 23 0 15 2 15 10 2 5 -8 10 -19 10 -23z m-30 -21 c0 -5 -7 -3 -15 4
-8 7 -15 20 -15 28 0 13 3 12 15 -4 8 -10 15 -23 15 -28z m837 -8 c29 -27 67
-78 62 -82 -2 -2 -15 -7 -29 -11 l-25 -8 20 23 20 23 -30 -6 c-16 -4 -41 -9
-55 -12 -25 -5 -25 -5 -2 6 12 7 22 18 22 25 0 7 6 14 13 17 8 3 5 7 -7 13
-11 4 -58 1 -108 -7 -48 -8 -88 -11 -88 -7 0 8 51 38 85 50 35 12 96 1 122
-24z m-277 -15 c0 -5 -15 -9 -32 -9 -18 -1 -46 -5 -63 -9 -29 -7 -29 -7 -10 9
20 15 105 23 105 9z m-820 -24 c0 -5 -6 -9 -12 -9 -9 0 -8 -3 2 -10 8 -5 11
-13 6 -17 -4 -4 -13 0 -20 10 -7 9 -23 17 -34 17 -35 0 -35 18 0 22 38 4 58
-1 58 -13z m270 0 c0 -6 -4 -7 -10 -4 -5 3 -10 11 -10 16 0 6 5 7 10 4 6 -3
10 -11 10 -16z m779 7 c-2 -2 -18 -7 -34 -10 l-30 -6 30 14 c26 12 46 14 34 2z
m-1187 -16 c19 -17 19 -20 5 -20 -9 0 -17 -4 -17 -10 0 -5 8 -10 19 -10 26 0
91 -28 91 -39 0 -5 -8 -12 -17 -14 -10 -3 -3 -5 15 -6 17 0 32 -5 32 -11 0 -5
-22 -8 -50 -7 -48 3 -55 7 -113 66 -60 62 -60 63 -29 56 21 -4 32 -3 32 4 0
16 8 14 32 -9z m943 -10 c-3 -5 -12 -10 -20 -10 -7 0 -15 -4 -17 -8 -3 -8 -63
-52 -71 -52 -3 0 -7 11 -9 25 -4 20 -1 25 16 25 11 1 35 7 51 15 36 16 58 19
50 5z m95 6 c0 -3 -4 -8 -10 -11 -5 -3 -10 -1 -10 4 0 6 5 11 10 11 6 0 10 -2
10 -4z m414 -26 c6 -6 1 -19 -14 -35 -19 -20 -20 -25 -7 -25 20 0 47 27 47 46
0 17 31 11 64 -12 19 -13 18 -14 -17 -29 -20 -8 -44 -15 -54 -15 -10 0 -31 -9
-48 -20 -38 -25 -29 -25 75 5 46 13 86 22 89 20 2 -3 -17 -14 -42 -25 -54 -24
-61 -35 -17 -26 38 7 39 -6 3 -21 -25 -10 -26 -11 -6 -12 32 -1 75 20 69 35
-3 8 -1 16 4 19 11 7 13 -15 3 -40 -3 -10 -24 -25 -45 -35 -43 -19 -37 -37 7
-20 33 12 48 13 41 1 -4 -5 -27 -16 -52 -25 -44 -15 -46 -15 -51 4 -3 11 -10
20 -15 20 -5 0 -8 8 -6 18 2 12 -3 16 -17 15 -23 -2 -75 24 -75 37 0 5 -6 7
-14 4 -11 -4 -15 8 -18 58 -2 35 1 66 6 70 12 8 78 0 90 -12z m-1249 -20 c7
-12 -2 -12 -30 0 -19 8 -19 9 2 9 12 1 25 -3 28 -9z m932 -50 c23 -15 46 -57
38 -70 -9 -14 -87 -51 -94 -44 -3 4 0 9 8 12 22 7 53 42 49 55 -8 21 -26 18
-32 -6 -5 -23 -57 -47 -100 -47 -22 0 -30 -24 -16 -49 13 -26 38 -22 122 20
32 15 60 24 63 19 6 -10 -33 -40 -52 -40 -7 0 -13 -4 -13 -10 0 -5 -19 -18
-42 -29 -24 -11 -35 -20 -26 -20 18 -1 110 39 140 61 26 19 34 1 10 -21 -19
-16 -44 -27 -132 -58 -12 -4 -12 -6 -2 -10 22 -8 102 19 133 45 27 22 29 22
29 4 0 -24 -21 -41 -92 -77 -58 -28 -79 -52 -35 -40 43 12 77 27 77 35 0 4 11
12 25 18 14 6 25 8 25 3 0 -21 -45 -62 -81 -72 -21 -7 -39 -16 -39 -21 0 -13
35 -9 56 7 25 19 35 19 28 0 -3 -8 -15 -17 -26 -21 -14 -4 -17 -9 -9 -13 8 -5
-5 -17 -34 -32 -39 -20 -47 -22 -55 -9 -6 9 -5 17 1 21 6 3 0 9 -13 13 -19 5
-20 8 -8 16 13 8 12 10 -2 10 -19 0 -25 25 -8 35 6 4 5 11 -3 19 -6 8 -15 12
-19 10 -8 -5 -44 14 -72 39 -11 10 -46 27 -78 39 -32 11 -58 26 -58 34 0 7 9
34 21 60 13 32 23 44 28 36 5 -9 17 -11 34 -6 21 5 27 2 27 -10 0 -9 6 -16 14
-16 33 0 123 36 149 59 29 28 36 61 12 61 -8 0 -15 -9 -15 -21 0 -13 -11 -25
-35 -35 -52 -21 -76 -15 -27 7 32 15 42 25 42 43 0 22 3 23 33 17 17 -4 42
-14 54 -21z m-97 14 c0 -9 -104 -52 -145 -59 -39 -6 -40 -6 -17 10 13 10 25
15 28 13 2 -3 26 5 52 18 45 22 82 31 82 18z m-880 -54 c0 -5 -8 -10 -18 -10
-9 0 -34 -11 -54 -25 -31 -21 -38 -22 -48 -10 -6 8 -9 23 -5 35 5 17 15 20 66
20 33 0 59 -4 59 -10z m1133 -29 c-9 -24 -33 -57 -34 -46 0 6 -2 21 -4 35 -2
20 1 25 20 26 18 1 22 -2 18 -15z m-338 -1 c-3 -5 -13 -10 -21 -10 -8 0 -12 5
-9 10 3 6 13 10 21 10 8 0 12 -4 9 -10z m255 -42 c0 -19 -2 -20 -10 -8 -13 19
-13 30 0 30 6 0 10 -10 10 -22z m160 3 c0 -14 -30 -41 -45 -41 -10 0 -11 5 -2
25 11 24 47 36 47 16z m-790 -10 c0 -12 -39 -21 -45 -11 -3 5 1 11 7 13 21 9
38 8 38 -2z m75 -1 c3 -5 -1 -10 -9 -10 -9 0 -16 5 -16 10 0 6 4 10 9 10 6 0
13 -4 16 -10z m-508 -6 c24 -7 22 -24 -3 -24 -9 0 -22 -7 -30 -15 -15 -15 -78
-35 -178 -57 -33 -8 -62 -20 -64 -27 -3 -8 0 -11 6 -7 6 3 23 1 39 -5 15 -6
50 -11 77 -10 45 1 48 -1 30 -13 -17 -13 -13 -14 31 -10 l50 3 -50 -13 c-27
-7 -49 -18 -48 -24 3 -14 -30 -16 -55 -4 -9 5 -61 23 -115 41 -133 43 -147 53
-147 106 l0 42 75 -18 c42 -10 87 -16 100 -13 14 2 25 0 25 -5 0 -10 -35 -18
-84 -20 -16 -1 -32 -4 -35 -7 -12 -13 131 6 161 21 17 8 38 15 47 15 9 1 36
12 61 25 47 25 69 29 107 19z m560 -19 c-7 -7 -16 -10 -21 -5 -12 12 2 30 19
24 11 -5 12 -9 2 -19z m1752 -222 c-2 -137 -6 -304 -10 -373 -5 -69 -11 -222
-14 -340 -3 -118 -9 -218 -13 -222 -4 -3 -47 -11 -97 -18 -49 -6 -108 -13
-130 -16 -40 -6 -40 -6 -20 13 11 10 26 19 35 19 8 -1 43 3 78 8 51 6 62 11
62 27 0 12 -5 16 -15 13 -8 -4 -12 -10 -9 -15 3 -5 -8 -6 -25 -3 -18 4 -42 0
-61 -10 -18 -9 -37 -13 -42 -10 -5 3 -18 -2 -29 -12 -15 -14 -22 -15 -28 -6
-4 7 -15 10 -24 6 -9 -3 -14 -10 -11 -15 3 -5 -1 -9 -9 -9 -18 0 -12 34 9 51
8 6 14 17 14 24 0 7 7 15 15 19 18 7 20 -5 3 -23 -11 -11 -7 -13 21 -7 40 7
37 5 45 34 5 13 3 22 -3 22 -6 0 -11 7 -11 15 0 8 8 15 18 15 10 0 27 7 38 15
19 15 19 15 0 8 -16 -5 -18 -3 -13 11 6 14 3 16 -13 11 -14 -5 -20 -2 -20 9 0
9 8 16 19 16 11 0 23 5 26 10 3 6 -4 10 -16 10 -17 0 -19 3 -10 13 6 8 7 17 3
21 -4 4 2 14 12 22 20 14 20 14 0 14 -11 0 -25 -5 -31 -11 -12 -12 -43 -6 -43
9 0 4 31 18 70 30 51 17 68 27 63 37 -6 18 -20 19 -25 3 -2 -6 -12 -9 -21 -5
-16 6 -16 8 0 26 9 11 41 30 70 42 34 14 53 27 53 38 0 9 -3 12 -8 6 -8 -11
-48 -35 -58 -35 -4 0 -1 7 6 15 19 23 3 18 -21 -7 -12 -13 -18 -17 -14 -9 7
11 2 13 -23 8 -39 -8 -43 8 -4 19 20 5 23 8 10 11 -10 3 -18 7 -18 10 0 3 8
12 18 19 16 13 16 13 0 14 -10 0 -18 7 -18 15 0 8 -6 15 -12 15 -22 1 35 38
66 44 16 3 27 9 24 12 -4 3 -22 1 -42 -4 -49 -14 -46 2 4 22 22 9 40 21 40 27
0 5 4 7 10 4 10 -6 60 41 60 56 0 14 -16 10 -30 -6 -7 -8 -19 -15 -27 -15 -8
0 -12 -4 -9 -9 4 -5 -3 -7 -14 -4 -16 4 -18 8 -9 19 6 8 17 14 24 14 7 0 18 7
25 15 16 19 6 19 -49 -1 -58 -20 -80 -2 -26 20 21 9 41 16 45 16 12 0 34 30
27 36 -3 4 -13 -1 -22 -10 -9 -9 -22 -16 -28 -16 -7 0 -23 -3 -36 -7 -36 -9
-17 14 25 32 19 8 34 19 34 25 0 6 -7 6 -20 -2 -10 -7 -22 -10 -25 -7 -9 10 6
39 20 39 12 0 66 39 55 40 -3 0 -34 -9 -69 -20 -61 -19 -86 -20 -65 -1 5 4 30
14 57 21 26 7 50 16 52 20 5 7 -11 6 -79 -6 -28 -5 -37 -4 -32 4 4 7 17 12 29
12 21 0 122 60 102 60 -5 0 -3 5 5 10 33 21 -72 3 -212 -36 -11 -3 -18 0 -18
9 0 8 10 17 23 20 12 2 58 12 102 21 114 24 145 35 145 53 0 12 -3 13 -14 4
-8 -7 -32 -14 -53 -17 -40 -4 -75 -11 -108 -21 -17 -5 -18 -4 -7 9 11 14 49
27 123 42 16 3 29 14 32 26 5 19 2 20 -29 14 -35 -6 -49 11 -19 22 8 4 15 10
15 15 0 4 -7 6 -15 3 -10 -4 -15 0 -15 13 0 16 8 19 50 20 40 1 50 -3 51 -16
0 -12 4 -11 16 7 8 12 22 22 30 22 12 0 14 -39 12 -247z m-198 218 c-7 -13
-26 -20 -64 -24 -29 -4 -67 -10 -85 -13 -34 -7 -45 8 -14 21 13 6 116 27 165
34 4 1 3 -7 -2 -18z m-1778 -18 c-24 -8 -43 -19 -43 -24 0 -10 8 -9 145 16
135 25 82 -4 -73 -39 -128 -30 -145 -31 -117 -10 11 8 20 19 20 25 0 20 58 56
84 51 24 -5 23 -6 -16 -19z m277 8 c0 -20 -26 -36 -35 -21 -5 7 20 40 31 40 2
0 4 -9 4 -19z m680 10 c0 -15 -23 -29 -67 -40 -23 -6 -44 -15 -47 -19 -9 -14
45 -12 81 3 41 17 57 19 48 5 -3 -5 -15 -10 -26 -10 -11 0 -30 -11 -42 -23
-19 -21 -38 -28 -117 -48 -9 -3 -14 2 -11 11 2 8 4 32 4 53 1 20 6 37 12 38
43 3 81 11 104 23 30 16 61 20 61 7z m181 -10 c-12 -22 -62 -44 -88 -39 -14 3
-9 8 20 22 20 10 40 22 43 27 3 5 12 9 20 9 11 0 12 -4 5 -19z m95 -12 c3 -6
15 -9 25 -6 29 8 72 -31 66 -60 -3 -18 -2 -21 9 -12 19 16 31 -36 13 -59 -12
-15 -12 -16 2 -4 15 11 17 8 17 -29 1 -52 -16 -70 -92 -99 -23 -8 -26 -7 -26
14 0 18 10 27 43 41 31 13 37 19 23 22 -10 3 -23 0 -29 -6 -18 -18 -41 -12
-53 14 -9 18 -9 25 0 29 6 2 1 5 -10 5 -12 1 -28 11 -36 24 -13 20 -13 25 3
51 11 19 16 40 12 58 -4 21 -2 28 10 28 9 0 19 -5 23 -11z m-80 -26 c-8 -25
-93 -64 -100 -46 -3 8 2 16 12 19 44 14 82 35 82 46 0 6 3 9 6 5 3 -3 3 -14 0
-24z m434 11 c0 -8 -4 -12 -10 -9 -5 3 -10 10 -10 16 0 5 5 9 10 9 6 0 10 -7
10 -16z m-1362 -11 c-2 -12 -25 -25 -68 -39 -36 -12 -64 -26 -63 -32 2 -7 -17
-17 -42 -23 -25 -6 -48 -15 -51 -20 -11 -19 65 -8 111 16 54 27 73 24 35 -5
-31 -24 -57 -34 -144 -53 l-70 -15 -33 26 c-25 18 -31 27 -21 33 7 5 13 16 13
25 0 21 42 34 110 35 47 0 104 15 115 29 5 7 87 38 103 39 5 1 7 -7 5 -16z
m1279 -20 c-3 -10 -5 -4 -5 12 0 17 2 24 5 18 2 -7 2 -21 0 -30z m-1847 7 c0
-5 -7 -10 -16 -10 -8 0 -12 5 -9 10 3 6 10 10 16 10 5 0 9 -4 9 -10z m2126 1
c-3 -5 -15 -7 -26 -4 -28 7 -25 13 6 13 14 0 23 -4 20 -9z m-1966 -16 c-47
-18 -71 -18 -40 0 14 8 36 14 50 14 22 0 21 -2 -10 -14z m1334 -19 c-3 -8 -15
-14 -25 -13 -19 1 -19 2 -3 14 23 17 35 16 28 -1z m511 -1 c-42 -13 -60 -10
-35 5 8 6 29 9 45 9 29 -1 28 -2 -10 -14z m-1940 -5 c-11 -5 -27 -9 -35 -9
-13 -1 -13 0 0 9 8 5 24 9 35 9 l20 0 -20 -9z m645 -11 c0 -6 -9 -13 -20 -16
-11 -3 -20 -9 -20 -13 0 -10 -20 -18 -88 -36 -63 -17 -65 -17 -57 -4 3 6 16
10 28 10 15 0 18 3 9 9 -20 12 5 27 60 35 26 4 50 11 53 17 8 13 35 11 35 -2z
m-717 -6 c-7 -2 -19 -2 -25 0 -7 3 -2 5 12 5 14 0 19 -2 13 -5z m1280 -3 c-23
-9 -29 -21 -17 -33 4 -3 24 3 45 14 47 24 52 7 7 -22 -26 -16 -28 -20 -10 -16
12 3 22 2 22 -3 0 -4 -26 -14 -58 -22 -46 -12 -62 -12 -75 -3 -9 7 -14 14 -12
17 3 3 8 16 10 28 2 12 6 24 7 25 9 7 66 23 83 24 18 0 18 -1 -2 -9z m-527
-20 c0 -15 -14 -24 -65 -40 -35 -11 -70 -20 -77 -20 -7 0 -14 -5 -16 -12 -4
-12 -84 -39 -92 -31 -13 14 37 45 85 53 52 8 144 38 125 39 -10 1 24 30 34 31
3 0 6 -9 6 -20z m54 -37 c0 -12 -2 -12 -15 1 -8 8 -15 20 -15 27 0 9 4 8 15
-1 8 -7 15 -19 15 -27z m360 23 c0 -16 -37 -28 -46 -15 -4 7 19 22 44 28 1 1
2 -5 2 -13z m850 -6 c-8 -5 -24 -9 -35 -9 -16 1 -16 2 5 9 35 11 48 11 30 0z
m-476 -75 c1 -5 4 -14 8 -20 3 -5 3 -25 1 -42 -5 -31 -21 -42 -37 -26 -4 4
-15 8 -24 8 -9 0 -21 10 -27 23 -5 12 -15 20 -21 18 -7 -3 -20 4 -29 14 -26
29 -8 72 35 86 32 11 36 9 63 -20 16 -17 30 -35 31 -41z m-1566 30 c3 -3 -13
-5 -36 -5 -40 0 -65 14 -40 23 13 4 66 -8 76 -18z m772 10 c0 -3 -14 -12 -32
-19 -26 -11 -32 -20 -33 -43 0 -27 -2 -28 -85 -45 -92 -19 -134 -18 -60 1 94
24 109 30 55 24 -27 -3 -60 -10 -72 -14 -19 -7 -23 -5 -23 11 0 15 13 23 58
35 31 9 82 25 112 35 58 20 80 23 80 15z m-335 -15 c-3 -5 -14 -10 -23 -9 -14
0 -13 2 3 9 27 11 27 11 20 0z m945 1 c0 -14 -23 -28 -64 -39 -30 -9 -41 -8
-52 3 -17 16 -2 29 24 21 9 -3 28 1 42 8 30 17 50 19 50 7z m770 -6 c0 -10 -9
-14 -26 -13 -23 2 -24 4 -8 15 23 17 34 16 34 -2z m-1341 1 c-2 -2 -15 -9 -29
-16 -23 -12 -24 -12 -11 3 7 10 20 17 29 17 8 0 13 -2 11 -4z m-326 -26 c-3
-10 -15 -22 -27 -25 -11 -3 -38 -11 -59 -17 -28 -9 -40 -9 -49 0 -15 15 -15
15 57 39 79 27 84 27 78 3z m651 11 c3 -5 -3 -11 -14 -14 -20 -5 -26 3 -13 16
9 10 21 9 27 -2z m-931 -8 c-7 -2 -19 -2 -25 0 -7 3 -2 5 12 5 14 0 19 -2 13
-5z m-320 -10 c-7 -2 -19 -2 -25 0 -7 3 -2 5 12 5 14 0 19 -2 13 -5z m347 -8
c-14 -8 -34 -14 -45 -14 -15 1 -13 4 10 14 40 19 67 18 35 0z m70 -36 c0 -5
-7 -6 -15 -3 -9 4 -28 1 -44 -6 -16 -6 -38 -10 -48 -7 -13 3 -9 7 15 12 18 4
37 16 43 27 10 19 12 19 30 2 10 -9 19 -21 19 -25z m598 5 c-4 -21 -75 -73
-99 -74 -9 0 -19 -7 -23 -15 -6 -17 1 -18 57 -9 30 5 35 9 26 20 -9 11 -8 14
4 14 9 0 25 11 35 25 20 25 21 25 27 5 5 -15 -4 -30 -35 -60 -48 -46 -83 -63
-165 -80 -54 -11 -59 -11 -79 9 -18 19 -19 23 -6 31 12 8 11 10 -7 10 -12 0
-29 10 -38 23 -15 21 -14 23 12 35 27 12 26 12 -14 6 -81 -11 -44 14 50 34
135 30 187 40 187 36 0 -2 -14 -11 -31 -20 -22 -11 -28 -19 -21 -26 13 -13 72
8 72 25 0 6 8 19 17 29 19 21 37 11 31 -18z m267 11 c-22 -14 -55 -30 -73 -36
-37 -12 -34 -32 4 -23 21 5 25 3 22 -12 -2 -11 -7 -22 -11 -25 -5 -3 10 -9 32
-13 31 -5 51 -1 82 14 l41 21 -4 -23 c-2 -16 -15 -27 -45 -38 -78 -29 -61 -38
25 -14 12 3 22 2 22 -2 0 -12 -74 -54 -94 -54 -8 0 -18 -4 -21 -10 -12 -20 61
-10 83 10 25 24 29 14 7 -17 -8 -11 -26 -24 -40 -27 -14 -4 -25 -13 -25 -21 0
-8 -6 -15 -12 -15 -7 0 -22 -3 -33 -6 -16 -4 -27 6 -55 51 -24 38 -47 60 -73
72 -27 12 -36 21 -31 33 7 15 12 42 13 71 1 19 41 39 79 39 15 0 45 11 67 25
22 13 49 24 60 24 15 0 9 -6 -20 -24z m-1183 3 c-9 -9 -15 -9 -24 0 -9 9 -7
12 12 12 19 0 21 -3 12 -12z m154 -4 c-5 -13 -2 -15 14 -11 11 3 20 2 20 -2 0
-5 -30 -16 -67 -26 -38 -10 -77 -22 -87 -28 -19 -9 -19 -10 -1 -23 17 -12 17
-14 2 -14 -28 0 -32 4 -28 30 5 40 42 78 81 82 71 9 72 9 66 -8z m944 1 c-7
-9 -15 -13 -19 -10 -3 3 1 10 9 15 21 14 24 12 10 -5z m-1464 -11 c-5 -14 -1
-16 25 -10 23 4 38 1 51 -10 21 -20 24 -42 6 -41 -29 1 -48 -4 -48 -11 0 -5
13 -7 29 -6 20 1 28 -2 25 -11 -5 -11 -39 -25 -99 -39 -11 -3 3 -3 30 1 87 10
125 11 125 2 0 -4 -19 -13 -41 -19 -31 -9 -39 -14 -30 -23 6 -6 11 -15 11 -21
0 -6 -4 -6 -11 1 -8 8 -16 6 -30 -8 -10 -10 -28 -19 -39 -19 -11 0 -20 -5 -20
-11 0 -7 7 -8 18 -4 9 4 34 9 55 11 48 5 52 -21 5 -35 -18 -5 -26 -10 -18 -10
8 -1 30 3 47 8 21 6 35 6 39 0 8 -14 1 -19 -27 -23 -33 -5 -59 -16 -59 -27 0
-4 7 -6 15 -3 8 4 15 4 15 0 0 -10 -58 -36 -82 -37 -16 -1 -18 -3 -6 -6 9 -2
40 3 68 11 44 13 52 13 57 1 3 -8 14 -15 24 -15 10 0 19 -7 19 -15 0 -9 -9
-15 -25 -15 -14 0 -25 -5 -25 -11 0 -5 -4 -7 -10 -4 -5 3 -10 1 -10 -5 0 -7
-7 -10 -15 -6 -8 3 -15 1 -15 -4 0 -6 8 -10 18 -11 14 0 14 -2 -3 -8 -11 -5
-26 -6 -32 -4 -7 3 -13 0 -13 -6 0 -14 -2 -14 67 4 31 8 65 12 75 9 10 -3 18
-1 18 5 0 6 4 11 8 11 4 0 8 -16 9 -36 1 -31 -2 -35 -18 -31 -10 3 -19 1 -19
-4 0 -4 -10 -13 -21 -20 -15 -8 -19 -8 -15 0 4 6 0 11 -9 11 -9 0 -13 5 -9 11
3 6 15 8 26 6 11 -3 21 0 25 9 3 8 9 11 14 8 5 -3 9 0 9 6 0 6 -8 9 -17 6 -32
-10 -137 -35 -167 -40 -49 -9 -43 -19 7 -12 27 3 61 3 75 -1 l27 -6 -30 -14
c-28 -12 -27 -12 24 -6 39 4 52 3 47 -6 -4 -6 -15 -11 -24 -11 -14 -1 -13 -4
7 -20 13 -11 18 -20 12 -20 -7 0 -9 -5 -5 -11 3 -6 15 -9 25 -6 12 3 19 0 19
-9 0 -8 10 -14 23 -14 l22 0 -25 -20 -25 -20 23 0 c12 0 25 -6 28 -14 3 -8 17
-17 32 -21 l27 -8 -35 -10 c-30 -8 -32 -10 -15 -17 11 -4 30 -3 43 3 17 8 26
7 35 -3 10 -10 9 -12 -5 -7 -10 3 -19 3 -22 -1 -8 -13 19 -37 64 -57 48 -20
73 -36 67 -41 -2 -2 -27 7 -55 21 -29 14 -61 25 -72 25 -11 0 -20 5 -20 10 0
6 -7 10 -15 10 -22 0 -18 -23 6 -39 16 -9 19 -15 9 -21 -7 -5 1 -10 24 -14 19
-4 38 -12 42 -18 5 -7 -4 -9 -28 -4 -27 5 -35 3 -35 -9 0 -8 9 -15 20 -15 13
0 17 -5 13 -15 -5 -13 0 -15 29 -9 45 8 47 -11 3 -21 -18 -4 -27 -9 -20 -12 7
-3 27 0 44 6 26 9 35 8 47 -4 14 -13 11 -15 -26 -15 -27 0 -43 -5 -47 -15 -4
-10 1 -15 16 -15 12 0 19 -2 16 -5 -2 -3 -60 -7 -129 -9 -86 -3 -109 -2 -74 4
28 5 71 9 97 9 26 1 49 5 52 10 4 5 -14 7 -39 4 -28 -3 -45 0 -45 6 0 14 -71
4 -115 -14 -16 -7 -58 -15 -93 -18 l-63 -5 3 46 c3 45 5 47 43 59 l40 12 -47
-4 -48 -4 0 55 c0 49 2 54 23 54 12 0 28 4 36 9 11 7 9 10 -8 16 -12 4 -28 2
-35 -4 -19 -16 -26 15 -26 108 0 59 3 72 14 68 8 -3 20 1 28 10 12 15 10 16
-14 9 -21 -5 -28 -3 -28 8 0 8 12 16 28 19 l27 4 -32 8 c-38 9 -46 43 -13 52
11 3 20 12 20 20 0 9 -6 13 -15 9 -13 -4 -15 9 -15 84 0 86 1 90 23 91 l22 2
-22 4 c-20 4 -23 11 -23 49 0 39 3 44 23 45 20 0 21 1 2 8 -16 6 -19 16 -17
57 4 87 13 123 30 127 9 3 19 5 21 6 2 0 0 -6 -3 -15z m174 12 c0 -2 3 -11 6
-19 3 -8 -2 -17 -11 -21 -18 -7 -55 9 -55 25 0 5 11 2 25 -7 26 -17 34 -7 13
14 -9 9 -8 12 5 12 9 0 17 -2 17 -4z m685 -24 c-8 -8 -25 10 -19 20 4 6 9 5
15 -3 4 -7 6 -15 4 -17z m730 -2 c-20 -23 -36 -26 -32 -7 2 13 39 38 46 31 2
-2 -4 -13 -14 -24z m120 10 c-21 -23 -35 -26 -35 -6 0 15 14 24 39 25 11 1 10
-4 -4 -19z m465 10 c0 -5 -4 -10 -10 -10 -5 0 -10 5 -10 10 0 6 5 10 10 10 6
0 10 -4 10 -10z m-80 -10 c0 -5 -2 -10 -4 -10 -3 0 -8 5 -11 10 -3 6 -1 10 4
10 6 0 11 -4 11 -10z m-550 -25 c0 -8 -7 -15 -15 -15 -13 0 -14 3 -3 15 16 18
18 18 18 0z m90 0 c0 -18 -24 -31 -70 -39 l-35 -6 43 21 c23 11 42 24 42 29 0
6 5 10 10 10 6 0 10 -7 10 -15z m195 -19 c0 -13 -12 -23 -39 -33 -47 -16 -50
-18 -41 -33 4 -7 11 -7 18 -2 7 5 31 16 53 25 31 12 44 13 53 4 15 -15 14 -36
-4 -53 -18 -18 -37 -10 -28 13 4 11 2 14 -8 10 -8 -3 -33 -12 -57 -19 -51 -15
-50 -34 2 -30 35 3 36 2 24 -18 -7 -11 -19 -20 -26 -20 -7 0 -11 -4 -7 -9 6
-11 95 18 95 31 0 10 12 10 29 -1 12 -8 12 -12 2 -25 -8 -9 -22 -16 -31 -16
-26 0 -82 -50 -76 -67 4 -9 -5 -19 -22 -26 -39 -17 -32 -51 9 -42 44 10 35 -2
-22 -29 -56 -28 -62 -24 -63 40 -1 18 -4 30 -8 28 -9 -6 -28 30 -28 54 0 11 7
25 15 32 7 6 17 33 21 58 3 26 11 53 16 60 7 8 7 12 -1 12 -28 0 -6 27 42 52
59 30 82 31 82 4z m315 14 c0 -12 -50 -33 -58 -25 -7 7 29 34 46 35 6 0 12 -5
12 -10z m-1445 -19 c-3 -6 -14 -11 -23 -11 -13 0 -13 2 4 14 21 15 30 14 19
-3z m-500 -1 c3 -5 1 -10 -4 -10 -6 0 -11 5 -11 10 0 6 2 10 4 10 3 0 8 -4 11
-10z m1993 -18 c-11 -13 -10 -15 12 -9 27 6 59 -14 79 -50 15 -28 14 -33 -4
-33 -8 0 -15 7 -15 15 0 8 -7 15 -15 15 -21 0 -20 -49 1 -57 9 -3 25 -1 35 6
17 10 19 8 19 -19 0 -16 -4 -30 -8 -30 -4 0 -6 -16 -4 -35 4 -29 -1 -40 -28
-65 -31 -29 -34 -30 -51 -14 -11 10 -19 13 -19 8 0 -5 -5 -2 -10 6 -17 26 -11
73 12 97 21 23 21 23 1 23 -16 0 -22 8 -25 31 -3 20 0 33 9 36 21 8 15 20 -9
19 -17 -1 -23 4 -22 21 0 12 -2 20 -6 18 -9 -5 -35 13 -28 20 3 3 18 8 34 11
16 3 30 7 33 9 11 12 20 -9 9 -23z m-2028 3 c14 -16 10 -18 -14 -9 -9 3 -16
10 -16 15 0 14 16 11 30 -6z m425 -4 c-3 -6 -16 -11 -28 -12 -12 0 -16 -3 -9
-6 6 -2 10 -9 6 -14 -10 -17 29 -9 43 9 8 9 11 11 7 3 -5 -10 -1 -11 15 -6 13
4 21 2 21 -5 0 -7 -9 -14 -19 -17 -12 -3 -17 -11 -14 -19 3 -8 0 -14 -6 -14
-6 0 -11 5 -11 10 0 6 -13 10 -29 10 -16 0 -31 5 -33 12 -3 8 -21 7 -70 -5
-36 -9 -72 -19 -81 -23 -12 -4 -17 -1 -17 10 0 20 55 44 150 66 79 18 86 18
75 1z m220 7 c-48 -13 -45 -10 -50 -36 -5 -28 9 -31 88 -17 37 6 67 8 67 5 0
-17 -28 -30 -64 -30 -64 0 -36 -10 40 -13 38 -2 71 -8 74 -13 3 -5 -21 -16
-52 -24 -32 -8 -58 -18 -58 -23 0 -4 5 -5 11 -1 7 4 9 -2 7 -17 -2 -20 2 -25
25 -27 34 -4 36 -22 2 -22 -31 0 -33 -18 -2 -30 l22 -9 -22 0 c-47 -2 -30 -20
24 -26 88 -10 87 -14 -4 -12 -54 1 -86 -2 -95 -11 -9 -9 -3 -12 32 -12 66 0
42 -10 -34 -14 l-67 -4 3 27 c1 14 0 31 -4 36 -3 6 -9 28 -13 50 -3 21 -15 45
-26 53 -10 7 -19 20 -19 28 0 8 -3 13 -8 10 -4 -2 -13 7 -19 21 -11 23 -10 26
17 36 17 6 29 18 27 26 -3 18 78 61 112 60 20 -1 17 -3 -14 -11z m-677 -17 c3
-8 -1 -12 -9 -9 -7 2 -15 10 -17 17 -3 8 1 12 9 9 7 -2 15 -10 17 -17z m752
10 c0 -11 -83 -32 -90 -23 -3 4 -4 6 -2 6 1 -1 19 5 40 12 45 16 52 17 52 5z
m1615 0 c3 -5 1 -12 -5 -16 -5 -3 -10 1 -10 9 0 18 6 21 15 7z m-433 -33 c-2
-12 2 -16 13 -12 23 9 32 -26 10 -42 -10 -8 -13 -14 -7 -14 7 0 12 -9 12 -20
0 -27 17 -25 23 3 3 12 4 4 4 -18 l-2 -39 -90 -28 c-49 -15 -91 -25 -94 -22
-3 3 0 14 7 24 6 11 9 26 6 34 -3 8 -1 17 5 21 8 4 8 12 1 26 -11 20 -5 43 10
34 4 -3 13 2 20 10 7 8 20 15 28 15 13 0 13 2 -3 13 -25 19 -10 39 28 35 24
-2 31 -7 29 -20z m-1837 -14 c15 -14 24 -28 21 -31 -3 -4 -16 3 -27 16 -13 13
-27 20 -38 16 -10 -3 -24 1 -31 10 -23 28 43 18 75 -11z m2270 7 c3 -5 1 -12
-5 -16 -5 -3 -10 1 -10 9 0 18 6 21 15 7z m-1559 -28 c-10 -10 -19 5 -10 18 6
11 8 11 12 0 2 -7 1 -15 -2 -18z m-751 -13 c3 -5 -1 -10 -9 -10 -9 0 -16 5
-16 10 0 6 4 10 9 10 6 0 13 -4 16 -10z m1095 -1 c0 -6 -13 -24 -30 -39 -16
-15 -30 -32 -30 -37 0 -30 -95 -75 -139 -67 -27 6 -31 11 -31 40 0 19 -1 37
-2 42 -4 10 124 51 144 46 9 -3 30 2 45 10 34 18 43 19 43 5z m-1135 -8 c3 -5
1 -12 -4 -15 -13 -8 -42 4 -35 15 7 12 31 12 39 0z m145 -11 c0 -5 -4 -10 -9
-10 -6 0 -13 5 -16 10 -3 6 1 10 9 10 9 0 16 -4 16 -10z m-50 -22 c0 -6 -6 -5
-15 2 -8 7 -15 14 -15 16 0 2 7 1 15 -2 8 -4 15 -11 15 -16z m309 6 c8 -7 -91
-43 -124 -46 -19 -1 -35 -6 -35 -11 0 -13 79 2 135 27 47 21 85 24 85 7 0 -4
-35 -16 -77 -26 -43 -11 -97 -27 -120 -37 -40 -16 -43 -16 -43 0 0 43 13 60
51 71 21 7 39 16 39 20 0 8 79 3 89 -5z m-349 -15 c0 -11 -27 -12 -34 0 -3 4
-3 11 0 14 8 8 34 -3 34 -14z m128 2 c3 -8 -1 -12 -9 -9 -7 2 -15 10 -17 17
-3 8 1 12 9 9 7 -2 15 -10 17 -17z m2108 -8 c-10 -10 -19 5 -10 18 6 11 8 11
12 0 2 -7 1 -15 -2 -18z m-1066 -1 c0 -9 -75 -52 -90 -52 -20 0 30 59 53 62
24 4 37 1 37 -10z m-1230 -7 c0 -8 -4 -15 -10 -15 -5 0 -10 7 -10 15 0 8 5 15
10 15 6 0 10 -7 10 -15z m95 -5 c3 -5 1 -10 -4 -10 -6 0 -11 5 -11 10 0 6 2
10 4 10 3 0 8 -4 11 -10z m762 -20 c2 -16 -3 -20 -27 -20 -36 0 -37 6 -7 30
24 20 29 19 34 -10z m898 1 c-3 -6 -11 -11 -17 -11 -6 0 -6 6 2 15 14 17 26
13 15 -4z m-1280 0 c-6 -4 -23 -11 -40 -14 l-30 -6 30 14 c35 16 54 19 40 6z
m797 -39 c-7 -2 -12 -9 -12 -15 0 -7 -23 -25 -51 -41 -37 -20 -47 -31 -38 -37
18 -11 2 -16 -78 -24 -41 -4 -63 -2 -63 5 0 5 7 10 15 10 8 0 15 4 15 9 0 5 7
17 16 25 14 14 12 15 -18 10 l-33 -5 25 15 c14 8 34 15 46 16 12 0 26 10 32
23 10 22 11 22 11 -5 1 -20 6 -28 19 -27 19 0 62 17 47 18 -5 1 6 14 25 30 31
25 36 27 44 13 6 -10 5 -17 -2 -20z m-744 11 c2 -8 -6 -13 -22 -13 -35 0 -78
-18 -71 -30 3 -6 -4 -10 -17 -10 -13 0 -30 -4 -38 -10 -12 -8 -12 -10 2 -15
14 -5 51 1 121 21 9 3 17 1 17 -5 0 -6 -7 -11 -15 -11 -9 0 -18 -7 -21 -15 -4
-8 -23 -18 -43 -21 -59 -9 -46 -29 18 -29 37 1 66 7 84 19 23 15 27 16 27 3 0
-16 -20 -27 -50 -27 -10 0 -20 -9 -23 -21 -4 -16 -2 -19 11 -14 21 9 72 17 55
9 -7 -3 -13 -14 -13 -25 0 -11 -7 -19 -17 -20 -17 0 -17 -1 0 -8 13 -5 -2 -13
-55 -29 -92 -27 -102 -27 -133 0 l-26 22 38 13 38 12 -47 -6 c-40 -4 -48 -3
-48 11 0 9 -5 16 -12 16 -6 0 -3 7 8 15 14 11 15 14 2 9 -20 -7 -45 31 -25 39
7 4 6 6 -4 6 -18 1 -34 41 -16 41 6 0 2 6 -8 14 -18 13 -17 15 20 32 25 10 70
18 117 20 43 1 85 7 95 13 22 13 45 10 51 -6z m1192 8 c0 -5 -7 -11 -15 -15
-15 -5 -20 5 -8 17 9 10 23 9 23 -2z m-1706 -20 c3 -5 -6 -11 -21 -14 -26 -5
-26 -4 -8 9 22 17 22 17 29 5z m176 -31 c0 -12 -12 -26 -30 -35 -38 -20 -38
-26 -1 -19 16 3 31 2 34 -3 4 -6 -11 -10 -32 -11 -24 -1 -41 3 -44 12 -6 15 8
40 23 42 5 1 15 2 20 3 6 0 10 8 10 16 0 8 5 15 10 15 6 0 10 -9 10 -20z
m1530 12 c0 -13 -12 -22 -22 -16 -10 6 -1 24 13 24 5 0 9 -4 9 -8z m140 -1 c0
-9 -41 -23 -49 -16 -3 4 28 20 47 24 1 1 2 -3 2 -8z m-1800 -12 c0 -6 -9 -9
-20 -6 -11 3 -23 1 -26 -4 -3 -5 -10 -6 -16 -3 -14 9 11 24 40 24 12 0 22 -5
22 -11z m1237 -11 c-3 -8 -6 -5 -6 6 -1 11 2 17 5 13 3 -3 4 -12 1 -19z m-737
-7 c0 -16 -24 -30 -52 -31 -9 0 34 48 45 49 4 1 7 -7 7 -18z m1388 7 c-3 -7
-8 -13 -13 -13 -5 0 -10 6 -12 13 -3 6 3 12 12 12 9 0 15 -6 13 -12z m-527
-21 c34 7 40 -12 7 -21 -47 -12 -53 -22 -29 -47 22 -24 21 -24 94 6 12 5 17 2
17 -9 0 -9 -6 -16 -12 -16 -10 0 -10 -2 0 -8 17 -11 -33 -66 -51 -56 -7 5 -6
0 3 -11 14 -17 14 -18 -9 -5 -21 11 -23 10 -18 -5 4 -9 7 -22 7 -28 0 -9 3 -8
8 0 10 17 72 29 72 15 0 -49 -60 -95 -97 -73 -16 9 -16 10 -1 11 9 0 19 4 22
9 3 4 -16 3 -42 -3 -35 -8 -41 -12 -23 -14 18 -3 21 -6 11 -12 -10 -6 -4 -11
21 -18 l34 -9 -34 -17 c-19 -10 -60 -21 -91 -23 l-57 -6 -7 57 c-6 54 -5 57
26 86 18 16 38 30 44 30 6 0 11 13 12 29 0 17 5 38 10 48 5 10 13 36 17 58 7
41 28 66 33 40 2 -10 12 -13 33 -8z m-1365 -20 c1 -9 -3 -20 -8 -24 -7 -3 -8
-1 -4 5 4 7 2 12 -3 12 -6 0 -11 7 -11 16 0 21 23 13 26 -9z m898 14 c6 -9
-42 -46 -49 -39 -3 2 -2 14 2 26 5 22 37 30 47 13z m809 -43 c-9 -11 -34 -28
-55 -40 -20 -12 -39 -27 -42 -34 -9 -23 17 -28 34 -7 9 11 35 32 59 48 48 30
56 26 67 -32 12 -64 -24 -153 -62 -153 -21 0 -17 10 11 32 14 11 25 27 25 35
0 12 -6 10 -23 -8 -12 -13 -46 -33 -75 -44 -36 -13 -52 -25 -52 -37 0 -10 5
-18 10 -18 6 0 10 5 10 10 0 6 9 10 19 10 11 0 23 5 26 10 3 6 12 10 18 10 7
-1 1 -9 -12 -20 -12 -11 -27 -17 -32 -14 -5 3 -9 1 -9 -5 0 -5 -8 -12 -17 -14
-15 -4 -15 -5 2 -6 11 0 44 10 73 24 44 20 51 21 43 7 -19 -36 -95 -86 -148
-97 -31 -6 -32 -5 -44 36 -7 23 -23 52 -35 65 -23 22 -23 22 -5 70 10 27 24
50 30 52 6 2 11 8 11 14 0 6 -6 6 -15 -2 -13 -11 -15 -8 -15 14 0 22 4 26 30
26 17 0 30 3 30 8 0 4 23 20 51 37 27 16 57 41 66 54 15 23 16 24 29 6 12 -16
11 -21 -3 -37z m262 44 c32 -23 52 -111 33 -146 -10 -19 -11 -19 -24 -1 -9 12
-10 23 -4 36 14 25 13 27 -15 22 -13 -3 -24 -8 -23 -12 0 -3 0 -20 -1 -38 -1
-26 -6 -32 -31 -38 -16 -4 -30 -10 -30 -15 0 -11 30 -21 41 -14 5 3 9 1 9 -5
0 -6 -17 -13 -37 -16 -21 -3 -46 -8 -55 -10 -15 -2 -18 4 -18 33 0 21 3 53 6
73 5 32 11 38 46 48 21 7 42 20 46 29 10 24 36 62 42 62 3 0 10 -4 15 -8z
m-525 -12 c0 -5 -5 -10 -11 -10 -5 0 -7 5 -4 10 3 6 8 10 11 10 2 0 4 -4 4
-10z m370 -6 c0 -17 -22 -14 -28 4 -2 7 3 12 12 12 9 0 16 -7 16 -16z m-1040
-18 c0 -11 -19 -15 -25 -6 -3 5 1 10 9 10 9 0 16 -2 16 -4z m470 -6 c0 -12
-48 -32 -64 -27 -6 2 3 11 19 20 35 19 45 21 45 7z m-1127 -20 c-18 -11 -33
-22 -33 -25 0 -4 21 -3 46 1 34 5 45 4 40 -5 -4 -6 -15 -11 -25 -11 -19 0 -71
-22 -71 -30 0 -3 20 -5 45 -6 35 -1 45 2 41 13 -6 15 3 17 23 4 20 -13 6 -41
-21 -41 -13 0 -34 -7 -47 -16 -19 -14 -25 -14 -36 -3 -17 19 -35 75 -35 110 0
28 1 29 53 29 l52 0 -32 -20z m807 11 c0 -12 -20 -25 -27 -18 -7 7 6 27 18 27
5 0 9 -4 9 -9z m-990 -11 c0 -5 -4 -10 -10 -10 -5 0 -10 5 -10 10 0 6 5 10 10
10 6 0 10 -4 10 -10z m968 -18 c22 2 37 -2 40 -10 2 -7 -5 -12 -17 -12 -11 0
-23 -4 -26 -10 -4 -6 7 -10 24 -10 74 0 8 -48 -69 -51 -14 0 -19 -3 -12 -6 16
-6 -31 -33 -57 -33 -9 1 -3 7 14 15 36 16 16 18 -44 4 -34 -7 -46 -7 -52 3 -4
6 -5 16 -3 20 3 4 -1 9 -8 9 -7 1 12 7 42 14 30 7 46 14 35 15 -14 1 -5 9 30
26 28 14 42 22 33 20 -10 -3 -18 -1 -18 4 0 6 9 10 20 10 11 0 21 6 21 13 1 6
3 4 6 -6 4 -14 13 -18 41 -15z m223 21 c1 -16 7 -38 14 -55 5 -14 2 -18 -13
-18 -26 0 -37 -16 -16 -24 8 -3 28 1 44 9 37 19 61 19 33 0 -24 -17 -157 -40
-181 -30 -14 5 -14 7 -2 15 12 7 12 12 2 22 -18 18 -15 28 11 29 16 1 18 2 5
6 -27 7 -22 22 10 29 15 3 36 9 47 14 26 11 45 12 46 3z m249 -3 c0 -5 -2 -10
-4 -10 -3 0 -8 5 -11 10 -3 6 -1 10 4 10 6 0 11 -4 11 -10z m-620 -9 c0 -5 -7
-12 -16 -15 -14 -5 -15 -4 -4 9 14 17 20 19 20 6z m-50 -30 c-8 -5 -33 -11
-55 -14 l-40 -5 30 13 c33 16 91 21 65 6z m1417 -53 c-3 -7 -5 -2 -5 12 0 14
2 19 5 13 2 -7 2 -19 0 -25z m60 0 c-3 -7 -5 -2 -5 12 0 14 2 19 5 13 2 -7 2
-19 0 -25z m-722 3 c-8 -14 -25 -14 -25 0 0 5 5 7 10 4 6 -3 10 -1 10 6 0 7 3
10 6 6 3 -3 3 -10 -1 -16z m-1465 -11 c0 -5 -4 -10 -10 -10 -5 0 -10 5 -10 10
0 6 5 10 10 10 6 0 10 -4 10 -10z m222 -12 c-9 -9 -6 -15 16 -23 26 -11 24
-12 -38 -23 -51 -9 -67 -9 -77 1 -11 11 -6 17 29 35 48 24 90 30 70 10z m413
1 c19 -9 18 -9 -2 -5 -13 2 -23 1 -23 -4 0 -7 -22 -15 -70 -25 -8 -2 -23 -6
-32 -10 -37 -14 -16 6 30 29 51 27 67 30 97 15z m304 -20 c-8 -5 -27 -8 -44
-8 -29 2 -29 2 8 12 20 6 37 15 38 21 0 6 3 5 6 -3 3 -7 -1 -17 -8 -22z m1351
21 c0 -5 -4 -10 -10 -10 -5 0 -10 5 -10 10 0 6 5 10 10 10 6 0 10 -4 10 -10z
m-2255 -10 c3 -5 -1 -10 -9 -10 -9 0 -16 5 -16 10 0 6 4 10 9 10 6 0 13 -4 16
-10z m391 -15 c-19 -14 -76 -22 -63 -9 5 5 54 19 77 23 3 0 -4 -6 -14 -14z
m1743 -11 c-14 -18 -24 -11 -15 11 3 9 11 13 16 10 8 -5 7 -11 -1 -21z m-2169
6 c8 -5 12 -12 8 -15 -10 -10 -49 5 -43 16 8 11 16 11 35 -1z m625 -9 c-6 -6
-23 -17 -40 -26 l-30 -17 35 7 c19 3 44 6 55 6 11 1 14 3 7 6 -6 3 -10 9 -6
14 8 14 24 0 24 -21 0 -13 -9 -22 -25 -26 -33 -8 -32 -24 1 -18 15 3 23 1 20
-5 -3 -5 -2 -11 4 -13 20 -6 -24 -72 -55 -81 -135 -39 -128 -38 -155 -19 -14
11 -36 22 -50 25 -14 4 -41 20 -60 37 -40 34 -34 44 32 55 20 4 42 12 47 19 6
7 30 12 53 11 49 -1 77 12 56 27 -9 6 -6 7 8 3 12 -3 34 1 50 10 33 17 42 19
29 6z m-585 -21 c0 -5 -4 -10 -10 -10 -5 0 -10 5 -10 10 0 6 5 10 10 10 6 0
10 -4 10 -10z m730 0 c-12 -8 -13 -12 -2 -19 10 -6 6 -10 -15 -14 -28 -5 -43
5 -43 31 0 7 14 12 38 12 28 0 33 -3 22 -10z m95 -6 c-64 -25 -75 -27 -75 -17
0 15 41 32 80 32 l35 0 -40 -15z m1102 -6 c-3 -8 -6 -5 -6 6 -1 11 2 17 5 13
3 -3 4 -12 1 -19z m-1063 -13 c-18 -14 -44 -20 -44 -10 0 7 54 34 59 29 3 -2
-4 -11 -15 -19z m-804 0 c17 -20 -9 -21 -36 0 -19 14 -19 14 2 15 12 0 27 -7
34 -15z m145 5 c-8 -13 -55 -13 -75 0 -11 7 -2 10 33 10 30 0 46 -4 42 -10z
m905 -5 c0 -8 -17 -19 -42 -25 -63 -16 -68 -18 -68 -30 0 -16 32 -12 74 9 34
18 36 18 22 2 -9 -10 -16 -24 -16 -31 0 -9 4 -8 13 5 10 12 16 14 21 7 4 -7 4
-16 1 -22 -8 -13 -42 -13 -47 0 -2 7 -27 3 -65 -10 -35 -11 -83 -23 -108 -26
-40 -4 -45 -3 -45 16 0 16 6 20 38 20 47 0 81 19 37 21 -29 1 -30 1 -5 9 17 5
19 8 8 9 -26 1 -22 20 5 25 12 3 51 12 87 20 85 19 90 19 90 1z m888 -25 c-2
-5 -9 -6 -17 -1 -9 6 -11 16 -7 27 7 18 8 18 17 1 6 -10 9 -22 7 -27z m172 30
c0 -5 -5 -10 -11 -10 -6 0 -8 -8 -4 -19 3 -11 1 -22 -5 -26 -6 -4 -10 7 -10
29 0 25 4 36 15 36 8 0 15 -4 15 -10z m-1819 -15 c-38 -17 -81 -20 -81 -6 0
11 21 17 75 19 l40 1 -34 -14z m453 -32 c-20 -15 -114 -18 -114 -4 0 5 14 9
30 9 17 -1 33 2 37 6 3 3 19 5 35 4 26 -2 28 -4 12 -15z m1303 -5 c-3 -8 -6
-5 -6 6 -1 11 2 17 5 13 3 -3 4 -12 1 -19z m-2047 2 c13 -7 21 -7 25 0 7 11
42 4 62 -12 20 -16 4 -30 -18 -15 -25 18 -74 11 -59 -8 9 -10 3 -10 -27 0 -20
7 -39 19 -42 26 -2 8 2 10 13 6 10 -4 15 -3 11 3 -8 13 11 13 35 0z m1930 -12
c0 -7 -14 -29 -30 -48 -16 -19 -30 -44 -30 -56 0 -14 -17 -31 -51 -53 -29 -20
-48 -39 -45 -46 7 -18 -5 -27 -20 -14 -8 7 -14 7 -19 -1 -14 -23 -23 -8 -13
23 5 17 13 45 17 61 5 22 15 32 41 40 49 15 105 52 124 82 18 27 26 30 26 12z
m-544 -31 c12 -38 7 -138 -8 -153 -12 -12 -42 -21 -76 -23 -7 -1 -11 -5 -7
-10 3 -6 18 -6 37 0 17 5 33 7 35 6 1 -2 -10 -16 -26 -31 -24 -23 -32 -25 -54
-17 -27 11 -37 31 -15 31 9 0 9 3 1 11 -13 13 -56 2 -48 -12 4 -5 0 -9 -7 -9
-10 0 -9 -3 2 -10 10 -6 6 -9 -16 -8 -16 1 -40 -4 -51 -11 -25 -13 -28 -10
-37 44 -4 22 -16 55 -27 73 -34 59 -22 74 76 89 69 10 117 24 165 47 31 16 47
10 56 -17z m454 24 c0 -17 -36 -49 -67 -59 -35 -11 -43 -8 -43 20 0 14 5 17
23 13 13 -3 32 3 47 15 27 21 40 25 40 11z m-1660 -11 c0 -5 -5 -10 -11 -10
-6 0 -9 -7 -5 -15 4 -10 -1 -15 -14 -15 -15 0 -20 7 -20 25 0 20 5 25 25 25
14 0 25 -4 25 -10z m1499 -32 c4 -12 6 -30 4 -38 -4 -16 -62 -57 -74 -53 -4 1
-15 -7 -25 -18 -17 -19 -17 -20 4 -26 38 -10 24 -20 -65 -47 l-88 -26 67 5
c68 6 89 -3 63 -25 -8 -7 -13 -16 -10 -20 9 -15 -36 -22 -92 -15 -54 7 -80 28
-53 45 7 4 9 13 5 20 -4 6 0 19 8 28 8 9 18 35 21 57 6 37 10 41 38 43 44 4
109 34 137 66 30 32 49 33 60 4z m-661 -22 c-2 -17 -10 -21 -43 -21 -28 0 -42
-5 -47 -17 -4 -11 -23 -19 -55 -23 -26 -4 -56 -9 -65 -12 -10 -2 -18 -2 -18 0
0 13 28 56 33 51 3 -3 16 0 28 7 13 6 33 13 44 13 40 3 95 18 95 27 0 5 7 6
16 2 8 -3 14 -15 12 -27z m1078 9 c-3 -13 -18 -36 -32 -51 -18 -21 -23 -23
-17 -8 4 10 13 25 20 32 7 7 13 22 13 33 0 10 5 19 11 19 7 0 9 -10 5 -25z
m-1376 6 c0 -5 -24 -15 -54 -21 -32 -7 -57 -17 -60 -27 -5 -12 -4 -13 7 -5 8
7 16 9 19 6 3 -3 23 2 43 10 44 19 45 19 45 6 0 -6 -24 -21 -52 -35 -29 -13
-41 -22 -25 -19 41 9 33 -11 -15 -34 -34 -17 -38 -21 -20 -22 13 0 36 7 53 16
23 12 29 20 25 37 -3 12 -3 16 0 10 8 -18 17 -16 42 7 26 24 26 23 8 -21 -17
-39 -71 -94 -103 -104 -13 -3 -23 -11 -23 -16 0 -5 -12 -10 -27 -10 -126 -4
-153 -3 -164 8 -10 10 -8 14 7 19 10 3 28 10 39 15 18 8 1 7 -70 -4 -5 -1 -11
7 -13 19 -3 23 -1 24 124 65 40 12 70 28 68 33 -6 18 29 51 66 63 44 14 80 16
80 4z m-486 -26 c8 -8 21 -15 28 -15 7 0 21 -7 31 -14 16 -12 16 -14 1 -20 -8
-3 -24 -6 -35 -6 -10 0 -19 -5 -19 -10 0 -6 11 -8 28 -4 43 10 44 10 48 -15 5
-31 -10 -41 -63 -41 -42 0 -63 13 -84 52 -13 25 2 39 41 37 49 -2 55 0 35 15
-12 8 -34 11 -64 8 -49 -5 -49 12 -1 21 14 2 28 5 32 6 4 0 13 -6 22 -14z
m281 -5 c-3 -5 -12 -10 -18 -10 -7 0 -6 4 3 10 19 12 23 12 15 0z m-410 -40
c3 -5 1 -10 -4 -10 -6 0 -11 5 -11 10 0 6 2 10 4 10 3 0 8 -4 11 -10z m861
-15 c-22 -17 -46 -20 -46 -6 0 11 18 19 45 20 20 0 20 0 1 -14z m704 -10 c-7
-8 -16 -12 -21 -9 -13 8 -1 24 18 24 13 0 13 -3 3 -15z m-1210 -3 c0 -10 -87
-32 -95 -24 -3 3 -5 11 -5 19 0 9 15 13 50 13 28 0 50 -4 50 -8z m596 -68 c-8
-21 -26 -17 -26 6 0 11 -3 19 -7 19 -21 -3 -22 3 -6 28 l17 26 14 -33 c7 -18
11 -39 8 -46z m-189 50 c-3 -3 -12 -4 -19 -1 -8 3 -5 6 6 6 11 1 17 -2 13 -5z
m799 -41 c-10 -10 -19 5 -10 18 6 11 8 11 12 0 2 -7 1 -15 -2 -18z m-1516 7
c0 -5 -7 -10 -15 -10 -8 0 -15 5 -15 10 0 6 7 10 15 10 8 0 15 -4 15 -10z
m1871 -13 c-10 -9 -11 -8 -5 6 3 10 9 15 12 12 3 -3 0 -11 -7 -18z m-1926 -7
c4 -6 -5 -10 -19 -10 -14 0 -26 5 -26 10 0 6 9 10 19 10 11 0 23 -4 26 -10z
m243 -7 c2 -9 -7 -13 -26 -13 -37 0 -62 9 -62 22 0 14 83 5 88 -9z m442 -13
c-20 -13 -40 -13 -40 0 0 6 12 10 28 10 21 0 24 -2 12 -10z m290 -5 c0 -16
-60 -48 -70 -38 -5 5 50 53 63 53 4 0 7 -7 7 -15z m-94 -22 c-10 -10 -19 5
-10 18 6 11 8 11 12 0 2 -7 1 -15 -2 -18z m-206 -3 c-20 -13 -40 -13 -40 0 0
6 12 10 28 10 21 0 24 -2 12 -10z m916 -114 c-8 -20 -20 -36 -25 -36 -16 0
-13 17 5 45 13 20 14 30 4 59 -6 20 -8 41 -4 48 6 9 13 -4 22 -34 11 -40 11
-52 -2 -82z m728 103 c-3 -5 -10 -7 -15 -3 -5 3 -7 10 -3 15 3 5 10 7 15 3 5
-3 7 -10 3 -15z m-1560 -13 c-11 -6 -40 -16 -66 -22 -42 -10 -47 -9 -51 8 -4
14 1 18 21 19 15 0 36 4 46 8 11 4 31 5 44 3 23 -5 23 -6 6 -16z m-169 -5 c-3
-6 -14 -11 -23 -11 -15 1 -15 2 2 15 21 16 32 13 21 -4z m571 4 c-11 -8 -29
-16 -40 -16 -12 -1 -30 -2 -41 -3 -11 0 -21 4 -23 9 -4 13 31 23 83 24 37 0
39 -1 21 -14z m-976 -5 c0 -5 -13 -10 -29 -10 -17 0 -33 5 -36 10 -4 6 8 10
29 10 20 0 36 -4 36 -10z m105 -2 c14 -6 25 -15 25 -20 0 -5 6 -8 13 -7 6 1
31 1 55 0 48 -1 50 -21 2 -21 -16 0 -31 -4 -34 -9 -12 -19 21 -17 76 6 64 26
68 27 68 14 0 -4 -21 -14 -47 -21 -54 -15 -78 -30 -46 -30 11 0 45 11 74 24
73 32 123 42 117 25 -2 -7 -30 -19 -62 -25 -31 -6 -62 -18 -69 -27 -7 -8 -19
-17 -27 -20 -9 -3 -5 -6 10 -6 14 0 43 6 65 13 43 15 55 13 55 -10 0 -16 -27
-19 -32 -3 -2 7 -17 3 -41 -10 -21 -12 -44 -21 -52 -21 -8 0 -15 -5 -15 -11 0
-6 9 -8 23 -3 30 10 91 23 93 21 1 -1 -4 -11 -12 -22 -12 -17 -26 -20 -82 -20
-102 0 -163 36 -197 117 -29 71 -17 92 40 66z m599 1 c-5 -9 1 -10 22 -5 66
17 68 17 50 -3 -9 -9 -16 -24 -16 -32 0 -8 -23 -31 -51 -52 -53 -39 -127 -58
-166 -42 -17 7 -17 8 2 16 14 6 9 7 -16 3 -30 -5 -41 -1 -58 17 -11 13 -21 27
-21 31 0 16 88 47 152 54 35 4 72 10 83 15 27 11 27 11 19 -2z m-784 -9 c8 -5
12 -11 9 -14 -3 -3 -14 1 -25 9 -21 16 -8 20 16 5z m1174 -22 c23 -54 0 -146
-39 -157 -5 -2 -18 -7 -27 -12 -11 -6 -21 -4 -32 7 -10 9 -29 14 -48 12 -36
-3 -36 -23 -1 -23 28 -1 44 -15 17 -15 -11 0 -24 -4 -30 -9 -13 -13 -163 -43
-175 -35 -6 3 -8 12 -5 20 4 10 -2 14 -20 14 -22 0 -25 4 -22 32 2 28 8 34 33
38 24 4 29 10 27 28 -2 12 2 22 7 22 6 0 11 6 11 13 0 30 33 45 80 37 42 -6
43 -7 18 -14 -16 -5 -28 -12 -28 -17 0 -24 86 5 93 32 3 12 14 19 29 19 12 1
39 9 58 20 19 11 36 19 38 20 2 0 9 -14 16 -32z m-1214 12 c0 -5 -7 -10 -15
-10 -8 0 -15 5 -15 10 0 6 7 10 15 10 8 0 15 -4 15 -10z m1453 -20 c-27 -24
-78 -39 -71 -20 3 11 44 28 87 39 3 1 -5 -8 -16 -19z m-135 -14 c26 -14 62
-50 62 -63 0 -3 -7 -11 -15 -17 -14 -10 -13 -14 6 -38 l21 -26 40 20 c49 26
58 18 18 -16 -31 -26 -70 -35 -70 -16 0 6 -4 10 -10 10 -5 0 -10 -8 -10 -19 0
-15 -10 -20 -45 -25 -27 -4 -53 -3 -65 4 -19 10 -20 13 -7 33 18 28 29 79 29
129 -1 42 6 45 46 24z m-758 -91 c0 -8 8 -15 18 -15 9 0 30 -7 45 -15 17 -8
40 -12 57 -8 18 3 30 1 30 -5 0 -11 -33 -22 -67 -22 -13 0 -23 -4 -23 -8 0
-15 -98 -44 -122 -36 l-23 7 25 10 25 10 -25 6 -24 7 32 22 c17 13 31 26 31
30 -3 18 2 32 11 32 6 0 10 -7 10 -15z m210 -65 c0 -11 -4 -20 -8 -20 -5 0
-17 -8 -28 -17 -10 -10 -27 -19 -36 -19 -10 -1 -30 -5 -44 -8 -24 -6 -26 -5
-15 8 7 9 17 13 22 10 5 -3 9 0 9 5 0 6 -6 11 -12 11 -7 0 -5 5 6 11 10 6 33
9 52 6 29 -5 34 -3 34 14 0 10 5 19 10 19 6 0 10 -9 10 -20z m-175 -71 c-8
-12 -65 -12 -65 0 0 10 49 20 63 13 4 -2 5 -8 2 -13z"/>
<path d="M1368 1823 c7 -3 16 -2 19 1 4 3 -2 6 -13 5 -11 0 -14 -3 -6 -6z"/>
<path d="M1588 1623 c6 -2 18 -2 25 0 6 3 1 5 -13 5 -14 0 -19 -2 -12 -5z"/>
<path d="M480 1710 c-13 -8 -12 -10 3 -10 9 0 17 5 17 10 0 12 -1 12 -20 0z"/>
<path d="M2920 1795 c0 -8 5 -15 10 -15 6 0 10 7 10 15 0 8 -4 15 -10 15 -5 0
-10 -7 -10 -15z"/>
<path d="M2876 1694 c-5 -12 -2 -15 10 -10 8 3 18 6 20 6 3 0 2 5 -1 10 -9 15
-22 12 -29 -6z"/>
<path d="M2936 1697 c3 -10 9 -15 12 -12 3 3 0 11 -7 18 -10 9 -11 8 -5 -6z"/>
<path d="M2845 1610 c-8 -13 5 -13 25 0 13 8 13 10 -2 10 -9 0 -20 -4 -23 -10z"/>
<path d="M2835 1520 c-3 -5 -2 -10 4 -10 5 0 13 5 16 10 3 6 2 10 -4 10 -5 0
-13 -4 -16 -10z"/>
<path d="M2925 1400 c-3 -5 -1 -10 4 -10 6 0 11 5 11 10 0 6 -2 10 -4 10 -3 0
-8 -4 -11 -10z"/>
<path d="M2835 1310 c-3 -6 1 -7 9 -4 18 7 21 14 7 14 -6 0 -13 -4 -16 -10z"/>
<path d="M2830 1260 c-8 -5 -10 -10 -5 -10 6 0 17 5 25 10 8 5 11 10 5 10 -5
0 -17 -5 -25 -10z"/>
<path d="M2830 1220 c-12 -8 -11 -10 7 -10 12 0 25 5 28 10 8 13 -15 13 -35 0z"/>
<path d="M2835 1190 c-3 -6 1 -7 9 -4 18 7 21 14 7 14 -6 0 -13 -4 -16 -10z"/>
<path d="M2875 1100 c-4 -6 -11 -7 -17 -4 -7 4 -8 2 -4 -4 7 -12 36 -5 36 9 0
12 -7 11 -15 -1z"/>
<path d="M2230 1777 c0 -16 -38 -63 -48 -60 -4 1 -9 -1 -12 -4 -8 -8 74 9 83
17 10 9 -2 60 -14 60 -5 0 -9 -6 -9 -13z"/>
<path d="M1235 1700 c-13 -5 -14 -9 -5 -9 8 0 24 4 35 9 13 5 14 9 5 9 -8 0
-24 -4 -35 -9z"/>
<path d="M1338 1453 c7 -3 16 -2 19 1 4 3 -2 6 -13 5 -11 0 -14 -3 -6 -6z"/>
<path d="M238 1393 c6 -2 18 -2 25 0 6 3 1 5 -13 5 -14 0 -19 -2 -12 -5z"/>
<path d="M235 1300 c-3 -5 -1 -10 4 -10 6 0 11 5 11 10 0 6 -2 10 -4 10 -3 0
-8 -4 -11 -10z"/>
<path d="M286 1201 c-3 -5 1 -12 10 -15 25 -10 34 -7 34 9 0 16 -35 21 -44 6z"/>
<path d="M180 1178 c0 -15 18 -17 30 -3 9 11 8 14 -9 12 -12 -1 -21 -5 -21 -9z"/>
<path d="M310 961 c0 -5 9 -7 20 -4 11 3 20 7 20 9 0 2 -9 4 -20 4 -11 0 -20
-4 -20 -9z"/>
<path d="M193 952 c-13 -9 -10 -69 5 -84 6 -6 19 -7 29 -3 13 5 14 9 5 12 -9
4 -10 9 -2 18 8 9 6 14 -6 19 -9 3 -14 13 -10 21 6 17 -5 27 -21 17z"/>
<path d="M245 950 c-4 -7 3 -8 22 -4 38 9 42 14 10 14 -14 0 -29 -5 -32 -10z"/>
<path d="M435 870 c-8 -13 -1 -24 14 -19 6 3 7 10 2 18 -6 10 -10 10 -16 1z"/>
<path d="M190 826 c0 -9 5 -16 10 -16 6 0 10 4 10 9 0 6 -4 13 -10 16 -5 3
-10 -1 -10 -9z"/>
<path d="M228 738 c-32 -9 -36 -12 -26 -28 10 -15 16 -16 37 -6 14 6 34 19 43
29 17 16 17 17 1 16 -10 -1 -35 -5 -55 -11z"/>
<path d="M318 635 c-3 -4 -51 -11 -100 -14 -5 -1 -8 -5 -8 -10 0 -11 100 5
114 19 5 5 8 10 5 10 -3 0 -8 -2 -11 -5z"/>
<path d="M1918 1293 c7 -3 16 -2 19 1 4 3 -2 6 -13 5 -11 0 -14 -3 -6 -6z"/>
<path d="M2265 1380 c-3 -5 -2 -10 4 -10 5 0 13 5 16 10 3 6 2 10 -4 10 -5 0
-13 -4 -16 -10z"/>
<path d="M710 1200 c-8 -5 -10 -10 -5 -10 6 0 17 5 25 10 8 5 11 10 5 10 -5 0
-17 -5 -25 -10z"/>
<path d="M720 1160 c-12 -8 -12 -10 2 -15 10 -4 23 -5 30 -2 8 3 6 6 -5 6 -10
1 -15 6 -12 11 8 12 4 12 -15 0z"/>
<path d="M795 1130 c-16 -7 -17 -9 -3 -9 9 -1 20 4 23 9 7 11 7 11 -20 0z"/>
<path d="M818 1103 c6 -2 18 -2 25 0 6 3 1 5 -13 5 -14 0 -19 -2 -12 -5z"/>
<path d="M848 1063 c6 -2 18 -2 25 0 6 3 1 5 -13 5 -14 0 -19 -2 -12 -5z"/>
<path d="M1788 1094 c-16 -8 -28 -17 -28 -19 0 -11 39 -4 52 8 7 8 20 16 28
20 11 4 9 6 -5 6 -11 0 -32 -7 -47 -15z"/>
<path d="M1770 1020 c-13 -8 -12 -10 3 -10 9 0 17 5 17 10 0 12 -1 12 -20 0z"/>
<path d="M1685 930 c-22 -5 -26 -9 -14 -14 17 -7 68 8 53 16 -5 2 -22 1 -39
-2z"/>
<path d="M2160 1105 c-8 -9 -8 -15 -2 -15 12 0 26 19 19 26 -2 2 -10 -2 -17
-11z"/>
<path d="M2146 1064 c-4 -9 -4 -19 -1 -22 2 -3 7 3 11 12 4 9 4 19 1 22 -2 3
-7 -3 -11 -12z"/>
<path d="M1970 1060 c0 -5 5 -10 10 -10 6 0 10 5 10 10 0 6 -4 10 -10 10 -5 0
-10 -4 -10 -10z"/>
<path d="M2070 1050 c-13 -8 -12 -10 3 -10 9 0 17 5 17 10 0 12 -1 12 -20 0z"/>
<path d="M2030 1030 c0 -5 5 -10 10 -10 6 0 10 5 10 10 0 6 -4 10 -10 10 -5 0
-10 -4 -10 -10z"/>
<path d="M2061 1011 c-21 -11 -30 -21 -23 -25 13 -8 43 6 62 28 16 21 3 20
-39 -3z"/>
<path d="M1508 1113 c7 -3 16 -2 19 1 4 3 -2 6 -13 5 -11 0 -14 -3 -6 -6z"/>
<path d="M950 850 c0 -5 5 -10 11 -10 5 0 7 5 4 10 -3 6 -8 10 -11 10 -2 0 -4
-4 -4 -10z"/>
<path d="M1808 823 c-10 -2 -18 -11 -18 -19 0 -11 6 -13 23 -8 12 4 27 7 33 7
6 0 11 6 11 14 0 13 -16 15 -49 6z"/>
<path d="M1740 795 c7 -8 16 -12 21 -9 13 8 1 24 -18 24 -13 0 -13 -3 -3 -15z"/>
<path d="M1757 734 c-10 -11 3 -24 22 -24 10 0 24 7 31 15 11 13 8 15 -17 15
-16 0 -33 -3 -36 -6z"/>
<path d="M2135 810 c-3 -6 1 -7 9 -4 18 7 21 14 7 14 -6 0 -13 -4 -16 -10z"/>
<path d="M1041 689 c-18 -6 -31 -13 -28 -16 8 -8 67 7 67 18 0 5 -1 9 -2 8 -2
0 -18 -5 -37 -10z"/>
<path d="M1481 571 c-9 -6 -7 -10 8 -14 12 -3 21 -1 21 3 0 14 -15 19 -29 11z"/>
<path d="M1521 551 c-8 -5 -19 -7 -26 -5 -6 3 -12 -2 -12 -11 0 -18 33 -12 57
11 16 16 3 19 -19 5z"/>
<path d="M1816 532 c-11 -2 -26 -10 -34 -18 -11 -12 -10 -14 11 -14 14 0 30 7
37 15 15 18 12 23 -14 17z"/>
<path d="M46 891 c-4 -7 -5 -15 -2 -18 9 -9 19 4 14 18 -4 11 -6 11 -12 0z"/>
<path d="M123 443 c-18 -7 -16 -23 2 -23 8 0 15 7 15 15 0 8 -1 15 -2 14 -2 0
-9 -3 -15 -6z"/>
<path d="M50 341 c0 -6 5 -13 10 -16 6 -3 10 1 10 9 0 9 -4 16 -10 16 -5 0
-10 -4 -10 -9z"/>
<path d="M1 193 c0 -69 3 -123 8 -123 33 0 40 13 34 58 -3 26 -10 50 -15 53
-5 3 -13 35 -17 70 -8 59 -9 54 -10 -58z"/>
</g>
</svg>
