<?xml version="1.0" standalone="no"?>
<!DOCTYPE svg PUBLIC "-//W3C//DTD SVG 20010904//EN"
 "http://www.w3.org/TR/2001/REC-SVG-20010904/DTD/svg10.dtd">
<svg version="1.0" xmlns="http://www.w3.org/2000/svg"
 width="290.000000pt" height="223.000000pt" viewBox="0 0 290.000000 223.000000"
 preserveAspectRatio="xMidYMid meet">
<metadata>
Created by potrace 1.16, written by Peter Selinger 2001-2019
</metadata>
<g transform="translate(0.000000,223.000000) scale(0.100000,-0.100000)"
fill="#000000" stroke="none">
<path d="M1060 2182 c-36 -1 -146 -9 -245 -17 -162 -14 -388 -20 -566 -15 -39
1 -87 -6 -116 -15 l-51 -16 -6 -222 c-3 -122 -9 -297 -12 -388 -3 -91 -7 -366
-9 -610 -2 -244 -6 -510 -10 -590 -6 -136 -5 -147 12 -154 21 -10 188 -24 358
-30 66 -3 161 -9 210 -14 199 -21 345 -30 451 -31 81 0 120 -4 143 -16 22 -11
36 -13 44 -6 8 7 28 7 62 0 30 -6 168 -9 340 -7 556 6 653 4 673 -15 21 -18
42 -21 42 -6 0 12 140 13 195 0 22 -5 59 -15 83 -22 37 -11 45 -10 53 2 13 20
6 109 -11 140 -19 35 -17 116 8 323 25 204 27 244 10 249 -9 3 -8 31 2 114 8
60 15 145 16 189 10 365 32 743 60 1006 l6 56 -49 24 c-47 23 -55 24 -293 22
-841 -3 -1024 -2 -1100 7 -47 5 -154 10 -239 10 -85 0 -152 2 -149 5 3 3 45 9
94 13 99 8 95 18 -6 14z m43 -137 c-4 -38 -3 -39 11 -21 9 11 16 24 16 30 0 6
4 6 11 -1 8 -8 8 -21 1 -45 -6 -18 -18 -78 -27 -133 -24 -140 -27 -146 -70
-143 -23 2 -35 8 -35 18 0 22 -18 -1 -22 -28 -1 -13 -16 -31 -31 -40 -27 -16
-29 -16 -43 3 -8 11 -21 28 -29 37 -8 10 -10 20 -6 22 9 6 31 -17 49 -49 11
-20 11 -20 12 1 0 12 -9 31 -19 43 -14 16 -18 29 -12 44 4 12 11 36 14 52 4
22 0 17 -16 -19 l-23 -48 -28 36 c-15 20 -35 36 -44 36 -15 0 -15 2 -2 10 8 5
25 10 38 10 12 0 22 5 22 10 0 6 -13 8 -30 5 -16 -3 -30 -3 -30 -1 0 21 17 36
46 42 19 3 34 10 34 15 0 5 -14 7 -31 4 -28 -5 -30 -4 -23 17 9 30 21 37 64
40 73 4 108 -2 121 -23 6 -10 9 -6 9 17 0 16 -5 35 -12 42 -15 15 -6 24 15 16
12 -4 15 -17 12 -56 -2 -28 -8 -54 -13 -57 -5 -3 -12 -21 -15 -39 -6 -29 -5
-31 8 -18 8 8 15 23 15 34 0 10 9 27 20 37 12 10 19 24 16 31 -2 6 -1 28 4 49
l8 37 -95 -7 c-52 -4 -120 -10 -150 -14 -29 -4 -56 -4 -59 1 -3 5 -11 5 -18
-1 -7 -6 -42 -8 -84 -5 -63 5 -71 4 -66 -10 5 -13 -1 -16 -32 -16 -22 0 -56
-5 -77 -11 -41 -11 -66 -4 -48 14 6 6 11 19 11 28 0 11 12 19 38 24 54 11 252
20 438 20 l161 0 -4 -40z m270 18 c14 -26 15 -26 21 -5 11 33 26 27 27 -10 l1
-33 10 33 c10 30 31 42 42 24 3 -5 -1 -26 -8 -48 -21 -61 -29 -107 -18 -101 5
4 17 35 27 69 20 72 30 88 56 88 21 0 23 -4 10 -29 -6 -9 -6 -23 -1 -31 6 -10
11 -5 17 19 l9 34 102 4 c101 4 102 4 102 -19 l0 -23 21 25 c20 24 20 18 2
-26 -4 -12 -2 -15 8 -12 8 2 15 14 17 26 2 12 10 22 18 22 18 0 18 -5 -2 -36
-19 -28 -15 -38 10 -28 9 3 16 14 16 24 0 35 10 47 36 42 28 -5 29 -10 8 -40
-9 -13 -13 -30 -10 -38 3 -8 -3 -22 -14 -31 -11 -10 -20 -27 -20 -38 0 -16 2
-17 10 -5 8 13 10 13 10 0 0 -28 31 30 32 61 1 16 5 32 10 35 4 3 8 15 8 28 0
18 6 22 36 24 36 3 37 2 31 -28 -8 -40 9 -39 18 1 6 25 11 30 28 25 12 -3 30
-6 41 -6 16 0 18 -5 12 -41 -8 -49 9 -44 18 6 4 19 12 35 19 35 45 2 212 3
260 2 43 -2 57 -6 57 -17 0 -19 -86 -21 -93 -2 -3 7 -6 5 -6 -5 -1 -12 -17
-22 -53 -33 -28 -8 -57 -15 -63 -15 -7 0 -40 -18 -73 -40 -34 -22 -62 -35 -62
-30 0 5 -7 6 -17 3 -12 -5 -14 -3 -8 7 6 9 4 11 -4 5 -8 -4 -10 -17 -7 -31 7
-25 -15 -44 -46 -39 -10 2 -18 -2 -18 -9 0 -7 -11 -19 -25 -26 -14 -7 -25 -17
-25 -22 0 -5 -5 -6 -10 -3 -6 4 -17 2 -24 -4 -7 -6 -21 -9 -30 -5 -11 4 -16 1
-16 -14 0 -21 -26 -49 -37 -38 -4 4 -6 26 -5 49 l1 42 -14 -39 c-8 -21 -21
-46 -27 -55 -12 -14 -11 -14 5 -2 14 11 17 11 17 0 0 -21 -59 -52 -122 -65
-48 -9 -58 -9 -58 2 0 8 5 14 10 14 6 0 10 5 10 11 0 5 -5 7 -11 3 -6 -3 -15
0 -21 7 -6 10 -8 5 -6 -16 3 -29 1 -30 -57 -43 -33 -8 -73 -18 -89 -23 -17 -5
-32 -5 -35 -1 -4 4 -19 13 -34 20 -24 10 -31 10 -43 -3 -9 -8 -18 -15 -22 -16
-4 0 -19 -2 -34 -3 -15 -1 -35 -9 -46 -19 -20 -18 -34 -14 -25 9 3 8 -1 21 -8
30 -10 13 -10 17 2 25 11 7 10 9 -5 9 -12 0 -16 5 -12 15 3 8 1 15 -4 15 -6 0
-10 -6 -10 -12 0 -7 -5 -5 -11 5 -9 15 -13 16 -27 5 -13 -11 -15 -10 -10 7 3
11 9 28 13 38 4 9 3 17 -3 17 -5 0 -12 -9 -15 -20 -5 -19 -28 -29 -27 -12 1 4
18 79 38 167 32 137 40 160 55 157 9 -2 17 2 17 8 0 8 12 10 39 5 23 -4 48 -2
58 4 29 17 41 13 56 -16z m1178 -26 c-16 -16 -26 0 -10 19 9 11 15 12 17 4 2
-6 -1 -17 -7 -23z m184 6 c-2 -16 -7 -46 -10 -68 -14 -94 -18 -110 -25 -130
-16 -37 -11 67 5 130 11 41 13 61 5 63 -8 3 -7 8 1 18 18 22 29 16 24 -13z
m-225 2 c0 -8 -9 -15 -20 -15 -20 0 -26 11 -13 23 12 13 33 7 33 -8z m130 5
c0 -5 -5 -10 -11 -10 -5 0 -7 5 -4 10 3 6 8 10 11 10 2 0 4 -4 4 -10z m-2240
-25 c0 -26 -19 -75 -30 -75 -22 0 -27 24 -11 61 18 44 41 52 41 14z m-75 -16
c-8 -15 -12 -34 -9 -42 3 -8 1 -18 -5 -22 -7 -4 -11 5 -11 24 0 35 -15 41 -25
10 -4 -11 -9 -18 -12 -15 -3 2 0 20 7 40 9 29 16 35 40 34 28 -1 29 -2 15 -29z
m-94 -32 c-8 -8 -11 -5 -11 9 0 27 14 41 18 19 2 -9 -1 -22 -7 -28z m654 25
c-62 -5 -73 -11 -80 -43 -4 -18 -16 -34 -28 -39 -28 -10 -29 -9 -16 28 6 18
18 32 27 33 11 0 12 2 5 6 -29 11 -9 22 45 25 60 3 99 -5 47 -10z m-155 -14
c0 -5 -9 -8 -20 -8 -11 0 -20 -5 -20 -11 0 -6 7 -9 15 -5 16 6 18 2 9 -31 -7
-27 -44 -32 -44 -6 0 15 -2 14 -20 -2 -11 -10 -28 -15 -39 -12 -12 3 -27 -3
-38 -15 -9 -11 -25 -17 -35 -15 -19 6 -26 -19 -7 -25 8 -3 7 -17 -4 -48 -8
-25 -17 -58 -20 -75 -6 -29 -6 -28 9 5 39 86 38 85 69 82 39 -5 39 -5 21 -41
-9 -16 -16 -35 -16 -41 0 -18 24 11 39 48 8 20 20 32 32 32 16 0 17 -4 9 -26
-15 -39 -10 -53 6 -16 19 44 24 40 12 -10 -11 -50 -17 -58 -47 -61 -11 -1 -21
-5 -21 -9 0 -5 12 -5 27 -2 22 6 25 4 20 -10 -4 -10 -7 -21 -7 -26 0 -7 -50 7
-75 21 -5 3 -38 5 -71 5 l-61 -1 5 39 c3 27 2 37 -6 32 -6 -4 -14 -29 -18 -56
-4 -28 -10 -50 -14 -50 -4 0 -4 19 1 43 11 55 11 57 0 57 -5 0 -17 -12 -26
-27 -13 -19 -18 -50 -20 -112 -1 -47 -9 -129 -18 -181 -21 -130 -28 -195 -20
-186 4 3 8 12 9 19 1 7 5 32 9 57 3 25 13 86 21 135 8 50 18 107 21 128 3 21
10 40 16 44 6 4 8 -3 3 -18 -11 -40 -19 -124 -11 -117 4 4 13 33 19 64 8 41
16 58 29 60 9 1 17 -4 17 -12 0 -8 5 -14 10 -14 6 0 10 9 10 20 0 17 2 17 25
-6 17 -16 35 -25 53 -23 47 3 74 -11 68 -35 -15 -52 -19 -99 -8 -93 5 4 13 29
17 57 6 44 9 48 22 35 8 -8 21 -15 29 -15 19 0 18 -11 -12 -130 -14 -57 -24
-115 -22 -129 2 -16 13 13 27 74 13 55 28 117 33 138 5 22 15 37 23 37 19 0
19 -4 1 -38 -11 -21 -12 -39 -5 -76 10 -53 2 -126 -13 -126 -6 0 -8 11 -6 25
3 14 1 25 -3 25 -5 0 -9 -16 -9 -35 0 -24 5 -35 15 -35 8 0 15 -6 15 -12 1 -7
6 -4 13 7 7 12 17 21 24 20 20 0 53 -43 53 -67 0 -43 -22 -103 -46 -125 -13
-12 -24 -29 -24 -37 0 -8 -4 -18 -10 -21 -6 -3 -7 1 -4 9 12 32 -19 14 -83
-48 -37 -36 -70 -63 -75 -60 -5 3 -8 2 -7 -3 1 -4 1 -15 0 -23 -1 -12 -3 -13
-10 -1 -12 18 -33 4 -27 -17 6 -21 -58 -97 -73 -87 -6 3 -16 -7 -23 -22 -17
-38 -18 -39 -29 -23 -8 12 -9 11 -7 -6 2 -17 -19 -38 -98 -97 -105 -78 -121
-102 -109 -163 16 -77 16 -76 29 -65 19 16 28 1 9 -17 -10 -11 -30 -15 -60
-13 -33 2 -44 -1 -41 -10 5 -16 60 -32 68 -20 9 15 46 17 63 2 23 -18 21 -36
-3 -38 -11 -1 -20 3 -20 8 0 5 -17 8 -37 5 -21 -3 -42 -5 -46 -5 -22 -2 17
-40 48 -45 37 -7 48 -26 15 -26 -27 0 -25 -27 2 -33 13 -3 51 -9 86 -13 71 -8
92 -21 29 -18 -23 1 -91 2 -151 3 -98 1 -108 3 -102 18 4 9 9 197 11 418 4
398 8 473 26 530 5 17 11 78 13 137 3 98 6 110 30 138 17 21 26 43 26 66 0 19
4 34 9 34 11 0 24 31 16 39 -3 3 -11 -1 -16 -9 -8 -12 -9 -9 -5 10 3 14 6 36
7 50 0 14 3 19 6 13 2 -7 11 -13 19 -13 10 0 13 -7 10 -22 -11 -53 -18 -103
-14 -108 1 -3 7 -4 11 -2 5 1 6 -7 2 -18 -4 -11 -2 -20 4 -20 6 0 11 16 11 35
0 24 5 35 15 35 8 0 15 5 15 12 0 6 -3 9 -6 5 -4 -3 -12 0 -19 6 -14 15 -8 77
7 77 6 0 8 13 4 33 -4 21 -3 27 3 18 8 -12 11 -9 16 11 4 15 4 32 0 37 -3 6 1
11 10 11 11 0 15 -5 11 -16 -3 -8 -11 -45 -16 -81 -6 -37 -13 -70 -16 -74 -2
-4 0 -10 6 -14 13 -8 13 -65 0 -85 -5 -9 -5 -19 2 -27 12 -15 29 -8 22 11 -3
7 0 25 6 41 6 15 13 44 16 64 3 20 10 51 16 69 7 24 7 37 0 44 -8 8 -16 -7
-28 -50 -10 -34 -19 -60 -21 -58 -6 5 23 144 48 231 11 38 21 76 21 83 1 6 6
12 12 12 6 0 19 18 28 40 18 41 13 38 119 55 14 2 31 -1 38 -8 8 -8 11 -8 11
0 0 11 44 18 118 18 17 0 32 -3 32 -7z m1608 -16 c8 -6 2 -13 -22 -25 -20 -9
-49 -38 -70 -69 -48 -73 -80 -107 -160 -173 -67 -56 -70 -58 -160 -70 -50 -7
-103 -18 -118 -24 -22 -8 -26 -8 -21 4 4 11 -9 8 -48 -10 -38 -17 -64 -23 -89
-19 -19 2 -41 1 -49 -5 -16 -10 -5 -35 13 -28 6 3 20 -1 29 -8 21 -15 86 -1
155 34 23 12 75 26 115 31 40 5 82 12 92 15 17 6 17 4 -3 -12 -39 -32 -14 -32
46 -1 122 64 167 90 176 99 14 13 -1 24 -16 12 -7 -6 -44 -27 -82 -48 l-69
-38 29 37 c16 20 32 36 37 36 22 0 100 88 144 163 12 22 59 67 68 67 4 0 3 -9
0 -20 -4 -11 -2 -20 4 -20 15 0 33 38 25 53 -4 6 1 4 12 -5 10 -9 31 -21 47
-27 15 -6 32 -22 39 -36 6 -14 17 -25 25 -25 18 0 18 -2 -25 -94 -30 -61 -56
-98 -109 -151 -104 -104 -152 -144 -156 -132 -2 7 -17 7 -53 0 -106 -23 -211
-42 -256 -48 -27 -4 -48 -10 -48 -14 0 -4 -14 -8 -32 -9 -23 -1 -28 2 -18 8
27 17 -6 10 -48 -10 -63 -30 -123 -22 -109 14 4 11 0 19 -11 23 -9 4 -23 15
-30 25 -7 10 -20 18 -28 18 -8 0 -14 4 -14 10 0 5 -15 10 -32 9 -44 -1 -116
15 -103 23 6 3 25 9 42 13 28 5 32 4 27 -9 -8 -22 1 -20 38 7 54 38 68 51 68
63 0 12 58 44 82 44 25 0 203 49 183 50 -24 1 25 27 104 56 28 10 51 21 51 24
0 4 18 12 40 19 22 7 40 18 40 26 0 8 10 20 23 26 12 7 27 18 32 24 20 23 116
87 143 95 36 11 35 11 50 2z m-2168 -140 c-5 -50 -13 -97 -16 -105 -3 -8 -1
-18 5 -22 6 -3 11 0 11 7 1 7 7 27 15 43 12 27 13 20 9 -74 -2 -67 -8 -107
-16 -112 -18 -11 -31 1 -18 16 7 8 9 23 5 35 -3 11 -2 20 3 20 5 0 10 11 10
25 0 14 -5 25 -10 25 -5 0 -7 -4 -4 -9 4 -5 2 -11 -4 -13 -5 -1 -12 -36 -16
-75 -4 -40 -11 -73 -16 -73 -4 0 -6 18 -3 39 2 21 5 63 6 92 0 30 5 69 11 86
7 25 6 40 -6 64 -12 24 -12 30 -2 26 9 -4 17 11 25 50 7 30 15 53 17 50 3 -2
0 -45 -6 -95z m204 92 c9 -3 16 -10 16 -15 0 -4 -6 -6 -14 -3 -10 4 -17 -9
-25 -46 -11 -49 -39 -116 -46 -108 -3 3 12 77 23 108 3 8 4 23 3 34 -2 10 3
23 11 27 16 11 13 10 32 3z m-162 -51 c-2 -24 -7 -43 -11 -43 -11 0 -10 63 2
78 14 17 14 14 9 -35z m86 7 c-11 -32 -28 -41 -28 -14 0 23 20 55 30 49 5 -3
4 -18 -2 -35z m2236 31 c7 -10 -22 -37 -30 -28 -9 8 3 37 15 37 5 0 12 -4 15
-9z m-1754 -25 c0 -22 -16 -28 -29 -12 -9 11 -9 15 1 19 22 9 28 8 28 -7z
m1835 -93 c-4 -35 -10 -61 -14 -59 -4 3 -4 31 0 63 4 32 8 67 9 78 2 19 3 19
7 1 3 -10 2 -48 -2 -83z m-590 27 c-3 -5 -12 -10 -18 -10 -7 0 -6 4 3 10 19
12 23 12 15 0z m-1745 -15 c0 -8 -4 -15 -10 -15 -5 0 -7 7 -4 15 4 8 8 15 10
15 2 0 4 -7 4 -15z m2228 -10 c-6 -14 -13 -23 -15 -21 -5 5 15 46 22 46 3 0
-1 -11 -7 -25z m62 15 c0 -5 -5 -10 -11 -10 -5 0 -7 5 -4 10 3 6 8 10 11 10 2
0 4 -4 4 -10z m-1826 -44 c-8 -29 -38 -52 -42 -33 -2 7 2 26 7 40 13 33 45 27
35 -7z m15 -20 c-9 -8 -10 -7 -5 7 3 10 7 24 7 30 1 7 3 4 6 -7 3 -10 -1 -23
-8 -30z m40 13 c-16 -10 -23 -4 -14 10 3 6 11 8 17 5 6 -4 5 -9 -3 -15z m1757
-43 c-5 -21 -48 -76 -59 -76 -11 0 3 45 23 72 11 15 20 33 20 41 0 7 3 17 8
21 9 10 15 -30 8 -58z m125 -2 l-9 -39 -1 50 c-1 33 2 46 9 39 7 -7 7 -24 1
-50z m-2413 29 c-1 -10 1 -24 5 -30 5 -8 4 -13 -2 -13 -6 0 -11 -9 -11 -20 0
-15 -7 -20 -25 -20 -25 0 -31 13 -19 45 5 13 9 14 15 4 4 -8 11 -10 15 -6 4 4
3 12 -3 18 -8 8 -8 15 0 25 17 19 29 17 25 -3z m576 -18 c23 -24 23 -27 9 -68
-8 -23 -18 -44 -22 -47 -4 -3 -17 -18 -29 -34 -15 -20 -22 -24 -22 -12 0 9 -4
16 -9 16 -31 0 -11 139 22 148 9 2 17 8 17 13 0 15 10 10 34 -16z m1636 5 c0
-5 -5 -10 -11 -10 -5 0 -7 5 -4 10 3 6 8 10 11 10 2 0 4 -4 4 -10z m-1735 -67
c-5 -28 -10 -34 -26 -30 -12 3 -19 0 -19 -9 0 -8 -7 -14 -16 -14 -10 0 -14 6
-11 14 3 8 9 30 12 50 6 28 12 35 34 38 32 4 35 -3 26 -49z m1857 -8 c-2 -36
-7 -65 -12 -65 -4 0 -7 24 -5 53 3 71 4 77 13 77 4 0 5 -29 4 -65z m25 33 c-3
-8 -6 -5 -6 6 -1 11 2 17 5 13 3 -3 4 -12 1 -19z m-1741 -47 c-19 -19 -27 -12
-19 17 4 18 8 20 20 11 12 -11 12 -14 -1 -28z m144 -20 c-26 -51 -34 -53 -13
-3 19 47 24 54 30 49 2 -3 -5 -23 -17 -46z m1590 -15 c-7 -7 -10 4 -9 30 1 39
1 39 10 9 5 -18 5 -33 -1 -39z m-60 29 c0 -16 -6 -25 -15 -25 -18 0 -20 -16
-2 -23 6 -3 -1 -3 -18 -1 -58 10 -70 9 -70 -6 0 -11 13 -16 43 -18 34 -3 45
-8 56 -30 17 -32 8 -93 -22 -157 -46 -98 -43 -94 -36 -57 3 19 1 32 -5 32 -5
0 -13 -16 -17 -36 -5 -28 -10 -34 -23 -27 -9 4 -62 8 -119 8 -89 0 -105 -2
-114 -18 -5 -11 -19 -17 -31 -15 -12 1 -28 -1 -34 -5 -21 -13 -95 12 -100 34
-3 11 -8 18 -12 17 -63 -33 -61 -33 -104 -10 -23 12 -53 22 -66 22 -31 0 -91
21 -91 32 0 10 73 7 80 -3 10 -14 157 11 388 65 69 16 123 43 130 65 3 9 -4 8
-24 -5 l-29 -18 20 21 c48 48 85 93 85 102 0 11 40 37 51 34 4 -1 17 9 29 22
30 32 50 32 50 0z m-130 -5 c-6 -11 -12 -20 -14 -20 -2 0 -2 9 1 20 3 11 9 20
15 20 5 0 4 -9 -2 -20z m-1324 -36 c-4 -9 -9 -15 -11 -12 -3 3 -3 13 1 22 4 9
9 15 11 12 3 -3 3 -13 -1 -22z m84 -25 c0 -11 -4 -17 -10 -14 -5 3 -10 15 -10
26 0 11 5 17 10 14 6 -3 10 -15 10 -26z m1180 -9 c-19 -37 -44 -59 -55 -49 -5
6 58 88 68 89 4 0 -2 -18 -13 -40z m-940 20 c0 -5 -5 -10 -11 -10 -5 0 -7 5
-4 10 3 6 8 10 11 10 2 0 4 -4 4 -10z m-1256 -71 l-8 -24 -6 25 c-8 30 -2 46
12 32 6 -6 7 -20 2 -33z m1191 21 c-3 -5 3 -10 14 -10 28 0 27 -27 -1 -51
l-23 -18 30 8 c47 12 110 2 123 -20 10 -16 9 -19 -4 -19 -13 0 -12 -5 5 -29
16 -22 18 -31 9 -35 -9 -3 -7 -10 7 -22 13 -11 16 -18 8 -21 -7 -2 -9 -11 -6
-19 8 -20 -10 -17 -42 8 -36 28 -80 34 -70 10 20 -49 19 -53 -11 -41 -41 16
-106 17 -111 2 -8 -20 -21 -15 -25 10 -2 14 -9 21 -21 21 -19 -2 -23 11 -7 21
22 14 9 27 -20 22 -43 -9 -37 4 15 32 59 31 58 46 -2 22 -79 -31 -113 -35
-113 -16 0 21 31 75 44 75 5 0 19 11 32 25 13 14 31 25 41 25 10 0 29 7 43 14
29 16 94 21 85 6z m1235 -25 c0 -19 -4 -35 -10 -35 -11 0 -13 30 -4 54 10 25
14 19 14 -19z m-280 -45 c0 -5 -6 -10 -14 -10 -8 0 -21 -3 -30 -6 -9 -3 -16
-1 -16 4 0 10 19 18 48 21 6 0 12 -3 12 -9z m-1314 -47 c-10 -26 -18 -8 -9 23
5 21 8 24 11 11 2 -10 1 -25 -2 -34z m94 29 c0 -5 -9 -17 -20 -27 -19 -17 -19
-17 -7 9 12 25 27 35 27 18z m1500 -24 c0 -5 -6 -8 -14 -8 -9 0 -12 7 -9 21 4
16 8 17 14 7 5 -7 9 -16 9 -20z m48 -78 c-1 -68 -5 -90 -15 -90 -12 0 -17 12
-14 32 0 4 3 22 5 40 6 52 18 108 22 108 2 0 3 -40 2 -90z m-1624 -4 c-3 -9
-12 -16 -20 -16 -8 0 -14 -6 -14 -14 0 -7 -7 -19 -15 -26 -27 -23 -16 8 16 45
32 36 44 41 33 11z m116 16 c0 -8 -43 -32 -55 -32 -14 0 -2 18 18 28 28 13 37
14 37 4z m1441 -115 c-11 -24 -26 -94 -36 -167 -8 -69 -20 -147 -25 -175 -5
-27 -12 -72 -15 -99 -5 -39 -9 -46 -19 -35 -7 8 -18 32 -25 54 -8 22 -20 47
-27 56 -12 13 -12 34 1 135 8 65 19 139 24 164 l9 45 2 -60 3 -60 9 70 c10 76
36 122 49 88 6 -15 8 -14 18 10 6 16 11 39 11 52 0 13 8 28 18 34 15 8 17 5
20 -30 2 -25 -4 -56 -17 -82z m-1382 67 c-14 -18 -24 -11 -15 11 3 9 11 13 16
10 8 -5 7 -11 -1 -21z m422 -11 c-10 -17 -10 -16 -11 3 0 23 13 41 18 25 2 -6
-1 -18 -7 -28z m134 27 c3 -5 -1 -10 -9 -10 -9 0 -16 5 -16 10 0 6 4 10 9 10
6 0 13 -4 16 -10z m73 -43 c5 -24 -24 -21 -31 4 -4 15 -1 19 11 17 9 -2 18
-11 20 -21z m-83 -40 c-11 -17 -22 -23 -35 -20 -11 3 -20 7 -20 10 0 7 23 28
45 41 26 14 31 0 10 -31z m-525 24 c0 -6 -4 -13 -10 -16 -5 -3 -10 1 -10 9 0
9 5 16 10 16 6 0 10 -4 10 -9z m788 -19 c2 -7 -2 -10 -12 -6 -9 3 -16 11 -16
16 0 13 23 5 28 -10z m-1882 -40 c-11 -10 -15 4 -8 28 l7 25 3 -23 c2 -13 1
-26 -2 -30z m969 38 c-3 -5 -20 -16 -38 -25 -35 -17 -69 -67 -61 -90 7 -17
-46 -112 -146 -265 -41 -63 -75 -124 -76 -135 -2 -38 -4 -43 -19 -49 -8 -3
-30 1 -49 9 -47 20 -86 18 -113 -4 -22 -18 -31 -41 -17 -41 4 0 22 10 41 21
33 20 36 21 76 5 24 -9 50 -16 60 -16 21 0 44 35 52 83 4 20 11 37 15 37 4 0
15 16 24 35 9 19 21 35 26 35 6 0 10 5 10 11 0 6 14 31 30 56 17 24 39 62 50
84 11 21 27 39 35 39 9 0 19 10 24 23 10 26 24 38 63 55 l28 11 -4 -47 c-3
-42 -55 -188 -107 -299 -20 -41 -55 -63 -100 -63 -15 0 -49 -45 -49 -65 0 -15
22 -2 29 17 6 16 22 25 59 34 29 6 52 8 52 5 -1 -36 -24 -59 -127 -128 -169
-112 -206 -125 -379 -129 -124 -3 -143 -2 -148 13 -8 21 15 55 61 90 20 15 55
47 77 70 40 41 100 86 140 104 73 34 95 62 185 238 97 192 104 201 151 201 34
0 43 5 62 35 13 19 31 35 40 35 9 0 20 5 23 10 3 6 11 10 16 10 6 0 7 -4 4
-10z m508 -30 c-6 -22 -23 -38 -23 -21 0 17 12 41 20 41 5 0 6 -9 3 -20z m554
4 c40 -16 45 -16 62 0 16 15 34 17 122 13 57 -3 105 -10 107 -15 2 -6 -5 -8
-16 -5 -12 3 -22 -2 -26 -13 -9 -23 0 -30 19 -14 13 11 15 9 15 -11 0 -25 -31
-272 -34 -276 -9 -10 -67 27 -87 55 -13 20 -41 56 -61 81 -25 29 -36 52 -32
63 4 13 -2 21 -20 30 -14 6 -26 14 -26 18 0 4 -25 20 -55 36 -31 15 -60 33
-66 41 -17 19 44 17 98 -3z m-497 1 c0 -12 -24 -55 -32 -55 -4 0 -8 -11 -8
-24 0 -13 -7 -26 -15 -30 -9 -3 -15 -18 -15 -34 0 -34 -21 -57 -37 -41 -8 8
-17 4 -32 -12 -18 -19 -24 -21 -46 -11 -21 10 -25 17 -19 35 7 24 22 37 42 37
6 0 12 5 12 10 0 6 7 10 15 10 8 0 20 9 27 20 7 11 18 20 25 20 7 0 20 15 29
33 16 31 31 47 47 47 4 0 7 -2 7 -5z m285 -15 c18 -20 18 -21 0 -38 -10 -9
-15 -12 -12 -6 4 6 0 20 -8 30 -28 37 -11 48 20 14z m46 10 c28 -16 23 -32 -6
-18 -14 6 -25 15 -25 20 0 11 7 10 31 -2z m649 -96 c-36 -363 -76 -605 -68
-416 2 39 0 72 -4 72 -4 0 -8 -18 -8 -41 0 -22 -4 -38 -8 -35 -10 6 -5 118 8
191 9 49 9 49 6 -18 -5 -100 11 -91 19 11 11 138 50 351 62 339 2 -2 -1 -48
-7 -103z m-1091 52 c-9 -8 -10 -7 -5 7 3 10 7 24 7 30 1 7 3 4 6 -7 3 -10 -1
-23 -8 -30z m171 9 c0 -13 -29 -29 -37 -21 -2 2 -1 16 3 30 5 21 9 24 20 15 8
-6 14 -17 14 -24z m-607 -5 c3 -10 -1 -24 -9 -31 -11 -9 -14 -7 -14 10 0 13
-6 21 -17 21 -15 0 -16 2 -3 10 23 15 37 12 43 -10z m337 -2 c-1 -22 -37 -61
-49 -54 -9 6 -9 11 0 22 6 7 15 12 19 9 4 -3 10 4 13 15 6 22 17 27 17 8z
m-165 -87 l-27 -26 7 30 c6 29 6 29 -14 11 -33 -30 -24 -14 17 32 l37 41 3
-31 c3 -23 -3 -38 -23 -57z m621 74 c18 -15 18 -16 -11 -40 -25 -20 -32 -22
-43 -11 -10 10 -11 18 -1 39 14 31 27 33 55 12z m74 -92 c-9 -15 -10 -12 -6
16 3 18 7 48 8 65 1 19 3 13 5 -16 2 -26 -1 -56 -7 -65z m-764 29 c-9 -17 -16
-36 -16 -42 0 -6 -24 -45 -54 -88 -29 -42 -57 -87 -60 -99 -12 -37 22 -28 46
12 11 20 23 34 25 31 3 -3 -16 -36 -41 -74 -25 -38 -46 -76 -46 -83 0 -15 -39
-59 -52 -59 -5 0 -6 5 -2 11 4 6 8 30 10 53 2 37 14 69 75 203 11 23 18 46 17
50 -5 21 15 73 31 78 9 3 25 19 35 36 16 27 20 29 33 16 13 -13 13 -18 -1 -45z
m125 17 l-10 -24 0 26 c-1 14 2 29 6 33 12 12 14 -9 4 -35z m155 32 c12 9 13
9 9 -4 -4 -8 -15 -17 -26 -20 -21 -6 -22 -5 -12 19 4 12 8 14 11 6 3 -10 7
-10 18 -1z m529 -68 c-10 -53 -19 -31 -10 24 5 26 10 40 13 30 2 -11 1 -35 -3
-54z m-95 32 c0 -8 -7 -15 -15 -15 -16 0 -20 12 -8 23 11 12 23 8 23 -8z
m-100 -3 c0 -11 -46 -62 -56 -62 -14 0 -39 -36 -47 -70 -3 -14 -15 -35 -26
-47 -17 -18 -19 -30 -14 -75 3 -29 10 -61 15 -70 9 -19 38 -25 38 -9 0 14 65
81 79 81 6 0 11 7 11 15 0 15 34 38 43 29 3 -3 13 9 23 28 9 18 25 41 34 50
16 15 20 15 30 3 10 -12 9 -25 -1 -59 -10 -36 -17 -45 -34 -43 -14 1 -21 -5
-23 -21 -3 -17 -8 -21 -22 -17 -14 5 -21 -3 -31 -37 -12 -36 -18 -42 -36 -40
-19 3 -24 -4 -34 -43 -8 -32 -16 -45 -27 -43 -11 2 -18 -7 -22 -26 -4 -26 -6
-27 -19 -13 -8 10 -11 30 -9 49 3 18 -1 52 -10 76 l-14 44 -19 -29 -19 -28 0
30 c0 47 -11 75 -29 75 -12 0 -16 10 -18 40 0 22 3 40 7 40 5 0 15 3 24 6 12
5 16 0 16 -19 0 -14 5 -29 10 -32 7 -4 10 7 8 30 -2 30 3 42 26 61 15 14 26
30 24 36 -6 16 24 46 40 40 7 -2 17 9 23 26 8 23 16 29 35 28 13 0 24 -2 24
-4z m248 -34 c-7 -21 -23 -10 -26 17 -2 29 -2 29 13 10 8 -10 14 -23 13 -27z
m522 22 c0 -5 -2 -10 -4 -10 -3 0 -8 5 -11 10 -3 6 -1 10 4 10 6 0 11 -4 11
-10z m-390 -86 c0 -4 -11 5 -25 20 -14 15 -25 35 -25 44 0 10 10 3 25 -20 14
-20 25 -40 25 -44z m376 20 c-4 -20 -10 -34 -13 -30 -3 3 -2 21 1 42 4 20 10
34 13 30 3 -3 2 -21 -1 -42z m-1767 14 c-52 -99 -125 -211 -156 -239 -21 -19
-69 -52 -107 -74 -41 -24 -80 -55 -95 -77 -14 -21 -33 -40 -41 -43 -8 -3 -42
-31 -74 -62 l-59 -57 7 40 c4 21 9 39 9 39 12 0 45 27 53 44 6 12 50 57 97 99
48 43 100 94 118 115 17 20 38 37 46 37 7 0 17 10 22 23 10 25 61 76 62 61 0
-5 5 2 10 15 8 19 12 21 24 11 12 -10 15 -9 15 5 0 10 3 15 7 12 3 -4 17 11
30 33 25 42 53 57 32 18z m473 -50 c-2 -36 -10 -70 -18 -79 -22 -25 -89 -158
-108 -216 -17 -50 -63 -103 -90 -103 -6 0 -28 -9 -49 -19 -49 -25 -57 -9 -15
32 58 56 108 116 108 127 0 6 4 9 9 6 13 -8 113 174 106 193 -6 15 41 121 53
121 4 0 5 -28 4 -62z m105 40 c-3 -8 -6 -5 -6 6 -1 11 2 17 5 13 3 -3 4 -12 1
-19z m618 -18 c7 0 16 7 19 16 5 14 9 14 22 3 14 -11 18 -11 28 3 11 15 13 15
32 0 17 -15 19 -27 16 -92 l-4 -75 -14 35 c-10 23 -11 36 -4 38 13 5 13 52 0
72 -8 13 -11 12 -24 -5 -9 -11 -15 -27 -14 -35 2 -8 -1 -21 -5 -27 -5 -9 -3
-13 7 -13 12 0 16 -11 16 -51 0 -65 -14 -55 -29 21 -11 55 -14 60 -34 55 -19
-5 -25 0 -35 28 -7 19 -9 43 -5 53 7 17 8 17 11 -3 2 -13 9 -23 17 -23z m-45
-11 c0 -6 -4 -7 -10 -4 -5 3 -10 11 -10 16 0 6 5 7 10 4 6 -3 10 -11 10 -16z
m-207 -19 c-6 -22 -23 -38 -23 -21 0 17 12 41 20 41 5 0 6 -9 3 -20z m58 -77
c-8 -14 -10 -10 -11 24 0 61 14 89 18 36 2 -24 -1 -51 -7 -60z m418 42 c0 -5
-6 -1 -14 9 -8 11 -15 24 -15 30 0 5 7 1 15 -10 8 -10 14 -23 14 -29z m-808
-8 c-17 -17 -24 -1 -10 25 12 21 14 21 17 4 2 -10 -1 -23 -7 -29z m1149 28 c0
-8 -4 -15 -10 -15 -5 0 -10 7 -10 15 0 8 5 15 10 15 6 0 10 -7 10 -15z m-1055
-16 c0 -7 -8 -15 -17 -17 -18 -3 -25 18 -11 32 10 10 28 1 28 -15z m-118 -131
c-9 -60 -29 -98 -42 -78 -3 5 -3 15 0 20 3 6 1 10 -5 10 -5 0 -20 -15 -31 -32
-12 -18 -18 -24 -14 -13 4 11 7 31 6 44 -1 17 3 22 14 17 11 -4 15 2 15 22 1
15 7 38 15 52 8 14 15 41 15 60 l2 35 17 -38 c15 -31 16 -48 8 -99z m793 90
c0 -10 -4 -18 -10 -18 -5 0 -10 15 -10 33 0 24 3 28 10 17 5 -8 10 -23 10 -32z
m108 6 c-4 -3 -12 5 -18 18 -12 22 -12 22 6 6 10 -10 15 -20 12 -24z m-41 -25
c8 -21 8 -31 -2 -39 -10 -8 -14 -5 -19 14 -3 13 -8 31 -11 38 -4 9 0 15 8 15
8 0 19 -13 24 -28z m-7 -96 c0 -1 -6 0 -13 3 -8 3 -18 -6 -25 -21 -11 -23 -15
-24 -34 -14 -18 9 -21 9 -11 -1 6 -7 9 -19 6 -26 -3 -8 1 -14 11 -14 9 0 16
-8 16 -20 0 -13 -5 -18 -15 -14 -11 4 -15 -1 -16 -17 -1 -22 -2 -22 -14 6 -17
36 -19 59 -5 50 16 -10 11 7 -6 19 -8 6 -19 28 -24 49 -7 34 -6 37 10 32 13
-4 19 1 24 19 4 18 11 23 26 19 17 -4 20 0 20 23 0 24 5 18 25 -31 14 -33 25
-61 25 -62z m376 -45 c-7 -172 -11 -207 -26 -279 -8 -37 -9 -32 -5 37 2 44 0
85 -5 90 -4 5 -3 39 5 79 7 39 16 107 20 153 12 137 18 92 11 -80z m-1074 117
c5 -40 -1 -44 -20 -14 -10 16 -10 24 -1 35 16 19 16 19 21 -21z m-266 -49 c-6
-44 -20 -101 -77 -318 -5 -21 -14 -38 -19 -38 -4 0 -18 20 -30 45 -25 52 -21
90 10 100 21 7 28 25 10 25 -20 0 -9 44 31 134 23 50 46 97 51 103 20 24 30 1
24 -51z m1134 29 c7 -9 8 -15 2 -15 -5 0 -12 7 -16 15 -3 8 -4 15 -2 15 2 0 9
-7 16 -15z m-118 -62 c5 -6 12 -41 14 -77 4 -54 2 -66 -10 -66 -20 0 -24 20
-24 120 0 47 3 74 5 60 3 -14 9 -30 15 -37z m-325 15 c-3 -7 -5 -2 -5 12 0 14
2 19 5 13 2 -7 2 -19 0 -25z m388 12 c3 -5 2 -10 -4 -10 -5 0 -13 5 -16 10 -3
6 -2 10 4 10 5 0 13 -4 16 -10z m-454 -12 c1 -7 3 -28 5 -46 2 -19 0 -41 -6
-50 -8 -15 -10 -15 -11 3 -5 64 -4 105 3 105 4 0 9 -6 9 -12z m-424 -30 c-3
-7 -5 -2 -5 12 0 14 2 19 5 13 2 -7 2 -19 0 -25z m1038 12 c3 -5 1 -10 -4 -10
-6 0 -11 5 -11 10 0 6 2 10 4 10 3 0 8 -4 11 -10z m-501 -19 c3 -4 8 -50 11
-101 l5 -92 -37 7 c-38 7 -122 53 -123 68 0 4 7 7 15 7 8 0 22 12 32 26 10 14
28 35 41 47 12 11 22 27 22 34 0 14 26 18 34 4z m44 -16 c-3 -3 -9 2 -12 12
-6 14 -5 15 5 6 7 -7 10 -15 7 -18z m452 -31 c0 -44 -13 -53 -22 -16 -5 18 7
62 17 62 3 0 5 -21 5 -46z m-434 -20 c4 -14 4 -28 0 -31 -3 -4 -6 0 -6 8 0 8
-9 22 -20 32 -27 23 -27 41 0 27 11 -6 23 -22 26 -36z m-673 -6 c-5 -24 -3
-30 8 -26 10 4 20 -20 36 -94 12 -54 32 -120 43 -145 19 -43 22 -45 36 -31 15
14 14 18 -1 42 -14 20 -15 30 -6 39 8 8 11 6 11 -10 0 -11 7 -26 15 -33 9 -7
14 -19 11 -27 -7 -17 75 -108 83 -94 11 17 73 -39 68 -60 -3 -11 -1 -22 4 -25
17 -10 9 -22 -21 -27 -40 -9 -41 -37 -1 -37 17 0 33 5 36 10 4 7 12 7 25 0 28
-15 56 -12 71 7 13 15 12 15 -8 4 -13 -6 -23 -8 -23 -3 0 16 56 33 83 26 38
-9 33 3 -8 20 -19 8 -35 19 -35 24 0 5 -13 12 -30 16 -19 3 -30 12 -30 22 0
20 -28 54 -45 54 -20 0 -155 176 -154 201 l1 24 7 -25 c5 -18 8 -21 12 -10 10
26 -6 65 -24 62 -13 -2 -16 3 -11 26 4 19 0 39 -10 54 -14 21 -14 27 -3 36 16
14 59 -24 122 -106 22 -29 45 -52 52 -52 7 0 13 -4 13 -10 0 -5 16 -24 35 -43
19 -19 35 -41 35 -51 0 -9 3 -16 8 -16 4 0 18 -20 30 -44 15 -27 37 -51 60
-62 19 -11 56 -40 81 -66 26 -26 59 -49 76 -53 42 -9 125 -47 125 -57 0 -5 -8
-12 -17 -15 -10 -4 -24 -12 -31 -19 -8 -9 -46 -12 -132 -9 -66 1 -120 0 -120
-4 0 -15 -83 -15 -145 -1 -27 6 -75 10 -106 9 -30 -1 -62 2 -70 6 -8 5 -49 8
-93 7 -66 -2 -77 0 -72 13 7 18 -2 18 -34 0 -34 -19 -70 -19 -70 0 0 13 -3 13
-25 -1 -21 -14 -31 -15 -51 -5 -14 6 -73 11 -132 12 -59 0 -125 4 -147 8 l-40
9 47 1 c35 1 46 4 42 14 -3 10 -17 12 -47 8 -23 -4 -73 -1 -112 5 l-70 12 133
1 c72 0 132 -3 132 -7 0 -4 -5 -13 -12 -20 -9 -9 -1 -12 36 -12 26 0 45 4 41
9 -8 13 3 18 54 26 37 5 43 4 38 -9 -5 -11 -1 -16 13 -16 37 0 70 19 70 40 0
12 5 30 11 41 8 16 7 23 -7 33 -12 9 -15 19 -10 32 4 10 9 43 11 72 5 66 51
239 73 272 l16 25 6 -25 c5 -22 8 -19 18 23 13 52 35 56 25 5z m75 13 c4 -28
-13 -20 -21 9 -3 14 -1 20 6 17 7 -2 14 -14 15 -26z m332 -6 c0 -5 -5 -3 -10
5 -5 8 -10 20 -10 25 0 6 5 3 10 -5 5 -8 10 -19 10 -25z m540 -25 c0 -20 -2
-22 -10 -10 -5 8 -10 26 -10 40 0 20 2 22 10 10 5 -8 10 -26 10 -40z m-510 16
c0 -8 -7 -16 -15 -20 -13 -4 -14 -2 -5 14 13 23 20 26 20 6z m351 -53 c3 -16
1 -44 -2 -63 -4 -19 -7 -30 -8 -25 -1 6 -9 -5 -18 -23 -14 -29 -18 -31 -32
-19 -9 8 -24 17 -34 20 -24 9 -4 31 30 33 40 3 56 24 50 66 -3 21 -2 38 3 38
4 0 9 -12 11 -27z m-41 -30 c0 -18 -10 -16 -26 5 -22 28 -18 48 6 27 11 -10
20 -24 20 -32z m182 -31 c-7 -48 -22 -39 -22 14 0 38 2 43 14 32 8 -8 11 -26
8 -46z m108 41 c0 -10 -4 -24 -9 -31 -6 -10 -10 -8 -14 9 -3 12 -4 26 -1 31 9
14 24 9 24 -9z m-941 -50 l-1 -48 -8 40 c-7 37 -5 55 6 55 2 0 3 -21 3 -47z
m1061 37 c0 -5 -2 -10 -4 -10 -3 0 -8 5 -11 10 -3 6 -1 10 4 10 6 0 11 -4 11
-10z m-1282 -47 c-5 -27 -16 -84 -25 -128 -8 -44 -15 -94 -14 -111 0 -20 -5
-34 -14 -38 -19 -7 -33 23 -16 33 6 4 10 16 9 27 -3 24 16 124 43 227 14 54
28 46 17 -10z m442 19 c0 -15 -2 -15 -10 -2 -13 20 -13 33 0 25 6 -3 10 -14
10 -23z m185 8 c23 -26 8 -26 -25 0 -18 14 -21 20 -9 20 9 0 24 -9 34 -20z
m-775 -105 c10 -13 8 -15 -13 -15 -14 0 -30 -8 -36 -17 -17 -31 -54 -3 -73 56
-11 35 -12 49 -5 42 9 -7 26 -1 57 20 l45 30 6 -50 c4 -28 12 -58 19 -66z
m1140 94 c0 -11 -4 -17 -10 -14 -5 3 -10 13 -10 21 0 8 5 14 10 14 6 0 10 -9
10 -21z m277 -21 c-3 -8 -6 -5 -6 6 -1 11 2 17 5 13 3 -3 4 -12 1 -19z m-143
-14 c5 -14 9 -14 23 -3 14 12 15 11 10 -6 -12 -40 -59 -352 -61 -397 0 -12 -8
-18 -24 -18 -20 0 -23 4 -18 23 12 40 25 131 31 217 4 47 11 107 16 134 5 26
6 52 3 57 -3 5 -1 9 4 9 6 0 13 -7 16 -16z m-1488 -29 c0 -32 -3 -35 -28 -35
-15 0 -28 -4 -28 -8 0 -14 -76 -45 -112 -47 -18 0 -46 -7 -61 -13 -16 -7 -37
-12 -48 -12 -10 0 -19 -4 -19 -9 0 -12 56 -22 88 -16 20 4 17 2 -8 -8 -19 -8
-51 -12 -72 -11 -21 1 -38 -2 -38 -7 0 -5 11 -9 25 -9 14 0 25 -4 25 -9 0 -5
-20 -9 -45 -8 -25 1 -45 5 -45 9 0 5 3 7 8 5 4 -1 9 3 12 8 6 13 -78 16 -86 4
-7 -11 -54 -12 -54 -1 0 11 61 32 94 32 15 0 34 6 41 14 8 7 59 24 114 37 63
15 101 28 101 36 0 7 6 13 14 13 7 0 20 7 27 17 11 13 38 28 95 53 0 0 0 -16
0 -35z m904 25 c0 -5 -2 -10 -4 -10 -3 0 -8 5 -11 10 -3 6 -1 10 4 10 6 0 11
-4 11 -10z m50 -22 c0 -6 -3 -9 -6 -5 -4 3 -13 -1 -21 -9 -14 -13 -13 -17 2
-34 10 -11 16 -22 13 -25 -3 -3 -13 6 -22 20 -13 20 -14 28 -4 45 14 22 38 27
38 8z m585 -145 c-9 -76 -19 -141 -21 -144 -2 -4 -4 -29 -5 -58 -3 -65 -19
-67 -19 -1 0 52 37 328 47 342 14 24 14 -13 -2 -139z m-104 100 c-12 -20 -14
-14 -5 12 4 9 9 14 11 11 3 -2 0 -13 -6 -23z m-94 -5 c-3 -8 -6 -5 -6 6 -1 11
2 17 5 13 3 -3 4 -12 1 -19z m-355 -15 c10 -9 18 -23 18 -31 0 -12 -6 -10 -25
8 -38 35 -31 58 7 23z m409 -45 c-5 -29 -12 -66 -15 -83 -3 -16 -9 -57 -15
-89 -6 -33 -8 -69 -5 -81 5 -20 2 -22 -19 -18 -26 5 -41 41 -26 64 4 7 4 20
-1 30 -6 10 -6 29 0 48 5 17 5 33 0 36 -10 6 -18 -35 -15 -81 l2 -36 -19 31
c-11 17 -27 31 -36 31 -10 1 -30 12 -47 25 -30 25 -30 25 -6 25 22 0 20 3 -17
30 -45 32 -79 76 -68 87 4 4 16 2 26 -5 12 -7 20 -8 20 -2 0 5 10 10 23 10 21
-1 22 -1 3 -15 -19 -15 -19 -15 5 -15 13 0 34 7 46 15 12 8 28 12 36 9 8 -3
18 -1 22 5 3 6 11 11 17 11 7 0 9 -17 5 -50 -4 -29 -2 -50 3 -50 6 0 10 12 10
27 0 18 12 40 38 64 20 21 39 36 40 34 2 -2 -1 -27 -7 -57z m-1371 37 c0 -11
-12 -15 -52 -15 -58 0 -59 5 -2 19 55 13 54 13 54 -4z m195 -5 c-3 -5 -10 -10
-16 -10 -5 0 -9 5 -9 10 0 6 7 10 16 10 8 0 12 -4 9 -10z m850 -11 c11 -17 -1
-21 -15 -4 -8 9 -8 15 -2 15 6 0 14 -5 17 -11z m522 -86 c-3 -54 -12 -122 -20
-150 -8 -29 -10 -53 -6 -53 5 0 13 18 19 40 16 58 32 50 28 -12 l-4 -53 -35 3
c-19 2 -35 5 -36 6 -1 1 15 136 34 279 3 20 10 37 15 37 7 0 9 -34 5 -97z m92
17 c-5 -41 -12 -100 -15 -130 -4 -34 -14 -62 -25 -73 -18 -17 -19 -17 -19 2 0
11 5 21 11 23 6 2 17 51 25 108 15 114 23 154 29 149 2 -2 -1 -38 -6 -79z
m-1393 33 c-11 -11 -19 6 -11 24 8 17 8 17 12 0 3 -10 2 -21 -1 -24z m1366
-30 c-7 -32 -14 -69 -16 -83 -3 -14 -3 8 0 49 6 75 12 106 22 97 3 -3 0 -31
-6 -63z m-235 35 c-3 -8 -6 -5 -6 6 -1 11 2 17 5 13 3 -3 4 -12 1 -19z m-2012
2 c3 -5 1 -10 -4 -10 -6 0 -11 5 -11 10 0 6 2 10 4 10 3 0 8 -4 11 -10z m597
-14 c4 -6 6 -21 3 -33 -2 -13 1 -23 6 -23 5 0 9 7 9 15 0 12 8 14 38 9 20 -3
40 -8 45 -11 4 -2 29 -6 55 -8 26 -2 39 -1 30 1 -10 3 -18 9 -18 13 0 10 80
54 87 48 11 -12 -14 -62 -31 -59 -22 4 -20 -15 2 -20 15 -4 18 -12 14 -36 -4
-28 -7 -31 -33 -25 -16 3 -36 2 -46 -2 -20 -8 -36 -8 -333 0 -118 3 -236 5
-262 5 -27 0 -48 3 -48 8 0 7 97 11 349 13 103 1 149 4 138 10 -9 6 -23 9 -29
8 -28 -3 -48 1 -48 11 0 6 8 14 18 17 9 4 23 13 30 20 11 11 9 13 -12 13 -16
0 -26 -6 -26 -15 0 -10 -11 -15 -35 -15 -19 0 -35 4 -35 9 0 5 -22 2 -50 -7
-38 -12 -54 -13 -72 -4 -21 10 -19 11 19 11 23 1 43 6 45 11 4 12 25 13 78 5
19 -3 28 -2 20 1 -65 25 -82 50 -27 41 19 -3 39 -2 46 2 16 10 64 1 73 -13z
m53 4 c3 -5 2 -10 -4 -10 -5 0 -13 5 -16 10 -3 6 -2 10 4 10 5 0 13 -4 16 -10z
m31 -17 c-10 -10 -19 5 -10 18 6 11 8 11 12 0 2 -7 1 -15 -2 -18z m64 -5 c0
-11 -8 -10 -31 3 -11 5 -17 14 -14 19 6 10 45 -9 45 -22z m-683 6 c-3 -3 -12
-4 -19 -1 -8 3 -5 6 6 6 11 1 17 -2 13 -5z m810 -16 c-3 -8 -6 -5 -6 6 -1 11
2 17 5 13 3 -3 4 -12 1 -19z m718 -8 c3 -6 -1 -7 -9 -4 -18 7 -21 14 -7 14 6
0 13 -4 16 -10z m-1510 -51 c26 -12 -172 -4 -203 8 -14 6 15 7 80 5 57 -3 112
-9 123 -13z m224 7 c-2 -2 -35 -6 -74 -9 -42 -3 -62 -2 -50 3 19 8 133 14 124
6z m-172 -12 c-3 -3 -12 -4 -19 -1 -8 3 -5 6 6 6 11 1 17 -2 13 -5z m1855 -84
c-4 -65 -7 -77 -12 -53 -6 28 7 149 15 141 2 -2 1 -41 -3 -88z m-1102 60 c0
-5 -4 -10 -10 -10 -5 0 -10 5 -10 10 0 6 5 10 10 10 6 0 10 -4 10 -10z m1317
-27 c-3 -10 -5 -4 -5 12 0 17 2 24 5 18 2 -7 2 -21 0 -30z m-1287 18 c0 -6 -4
-13 -10 -16 -5 -3 -10 1 -10 9 0 9 5 16 10 16 6 0 10 -4 10 -9z m-823 -10 c18
-5 88 -12 155 -16 68 -4 125 -9 127 -11 5 -5 -123 -9 -199 -7 -103 3 -160 14
-160 29 0 16 30 18 77 5z m1370 -15 c-6 -17 -21 -13 -25 6 -3 13 1 16 13 12 9
-4 14 -12 12 -18z m-1467 4 c13 -9 13 -10 0 -9 -8 0 -24 4 -35 9 l-20 9 20 0
c11 0 27 -4 35 -9z m440 -5 c-7 -8 -17 -15 -23 -15 -6 0 -2 7 9 15 25 19 30
19 14 0z m390 -6 c0 -5 -4 -7 -10 -4 -5 3 -10 1 -10 -6 0 -7 -3 -10 -6 -6 -8
7 4 27 17 27 5 0 9 -5 9 -11z m1015 -9 c3 -5 2 -10 -4 -10 -5 0 -13 5 -16 10
-3 6 -2 10 4 10 5 0 13 -4 16 -10z m-1652 -47 c-7 -2 -19 -2 -25 0 -7 3 -2 5
12 5 14 0 19 -2 13 -5z"/>
<path d="M546 2040 c-19 -6 -19 -7 1 -12 25 -7 53 6 31 14 -7 3 -22 2 -32 -2z"/>
<path d="M947 1948 c-7 -4 -9 -8 -5 -8 4 0 3 -13 -2 -30 -7 -23 -5 -30 6 -30
9 0 14 11 14 36 0 19 4 33 8 30 4 -2 14 -1 22 4 11 7 9 9 -8 7 -13 -1 -28 -5
-35 -9z"/>
<path d="M910 1940 c-13 -8 -12 -10 3 -10 9 0 17 5 17 10 0 12 -1 12 -20 0z"/>
<path d="M1076 1921 c-13 -24 -15 -36 -7 -44 8 -8 11 -5 11 9 0 11 5 25 11 31
6 6 9 17 7 25 -3 8 -12 0 -22 -21z"/>
<path d="M890 1880 c-8 -5 -10 -10 -5 -10 6 0 17 5 25 10 8 5 11 10 5 10 -5 0
-17 -5 -25 -10z"/>
<path d="M996 1824 c-4 -9 -4 -19 -1 -22 2 -3 7 3 11 12 4 9 4 19 1 22 -2 3
-7 -3 -11 -12z"/>
<path d="M1050 1830 c0 -5 5 -10 10 -10 6 0 10 5 10 10 0 6 -4 10 -10 10 -5 0
-10 -4 -10 -10z"/>
<path d="M930 1778 c0 -7 5 -20 10 -28 8 -12 10 -11 10 7 0 12 -4 25 -10 28
-5 3 -10 0 -10 -7z"/>
<path d="M1045 1770 c-3 -5 -1 -10 4 -10 6 0 11 5 11 10 0 6 -2 10 -4 10 -3 0
-8 -4 -11 -10z"/>
<path d="M1581 2047 c-7 -9 -11 -24 -9 -34 3 -16 5 -15 17 5 15 29 10 50 -8
29z"/>
<path d="M1647 2054 c-4 -4 -7 -14 -7 -23 0 -11 3 -12 11 -4 6 6 10 16 7 23
-2 6 -7 8 -11 4z"/>
<path d="M1700 2045 c0 -8 5 -15 10 -15 6 0 10 7 10 15 0 8 -4 15 -10 15 -5 0
-10 -7 -10 -15z"/>
<path d="M1267 2033 c-10 -9 -9 -43 1 -43 5 0 14 11 20 25 9 20 9 25 -2 25 -7
0 -16 -3 -19 -7z"/>
<path d="M1356 2033 c-12 -12 -6 -33 9 -33 8 0 15 6 15 14 0 17 -14 28 -24 19z"/>
<path d="M1944 2016 c-3 -14 -1 -33 5 -43 8 -15 10 -10 11 25 0 47 -6 55 -16
18z"/>
<path d="M2043 1990 c-33 -70 -28 -84 7 -23 30 52 36 73 23 73 -5 0 -18 -23
-30 -50z"/>
<path d="M1412 1975 c0 -16 2 -22 5 -12 2 9 2 23 0 30 -3 6 -5 -1 -5 -18z"/>
<path d="M1635 1969 c-4 -6 -5 -12 -2 -15 2 -3 7 2 10 11 7 17 1 20 -8 4z"/>
<path d="M1183 1920 c-6 -14 -13 -41 -17 -60 l-7 -35 21 40 c11 22 19 49 17
60 -3 18 -4 18 -14 -5z"/>
<path d="M1970 1919 c0 -5 5 -7 10 -4 6 3 10 8 10 11 0 2 -4 4 -10 4 -5 0 -10
-5 -10 -11z"/>
<path d="M1932 1880 c0 -14 2 -19 5 -12 2 6 2 18 0 25 -3 6 -5 1 -5 -13z"/>
<path d="M1721 1824 c0 -11 3 -14 6 -6 3 7 2 16 -1 19 -3 4 -6 -2 -5 -13z"/>
<path d="M1617 1787 c-4 -10 -7 -28 -7 -40 1 -20 2 -20 11 -4 6 10 9 28 7 40
-3 20 -4 20 -11 4z"/>
<path d="M1381 1736 c-13 -55 -14 -69 -2 -61 11 6 26 93 18 101 -2 3 -10 -15
-16 -40z"/>
<path d="M1748 1760 c-7 -24 -3 -38 8 -28 3 4 4 17 2 30 l-3 23 -7 -25z"/>
<path d="M1210 1749 c0 -11 5 -17 10 -14 6 3 10 13 10 21 0 8 -4 14 -10 14 -5
0 -10 -9 -10 -21z"/>
<path d="M1304 1729 c-3 -6 -1 -16 5 -22 8 -8 11 -5 11 11 0 24 -5 28 -16 11z"/>
<path d="M1700 1721 c0 -11 4 -22 9 -25 5 -3 9 6 9 19 0 14 -4 25 -9 25 -5 0
-9 -9 -9 -19z"/>
<path d="M1737 1713 c-4 -3 -7 -11 -7 -17 0 -6 5 -5 12 2 6 6 9 14 7 17 -3 3
-9 2 -12 -2z"/>
<path d="M1553 1685 c0 -13 3 -22 8 -19 5 3 9 14 9 25 0 10 -4 19 -9 19 -5 0
-8 -11 -8 -25z"/>
<path d="M590 1960 c0 -5 5 -10 10 -10 6 0 10 5 10 10 0 6 -4 10 -10 10 -5 0
-10 -4 -10 -10z"/>
<path d="M658 1963 c7 -3 16 -2 19 1 4 3 -2 6 -13 5 -11 0 -14 -3 -6 -6z"/>
<path d="M490 1950 c0 -5 9 -10 20 -10 11 0 20 5 20 10 0 6 -9 10 -20 10 -11
0 -20 -4 -20 -10z"/>
<path d="M366 1809 c-3 -17 -6 -41 -5 -53 1 -19 2 -18 8 4 17 57 21 80 12 80
-4 0 -11 -14 -15 -31z"/>
<path d="M470 1831 c0 -5 7 -12 16 -15 14 -5 15 -4 4 9 -14 17 -20 19 -20 6z"/>
<path d="M352 1710 c0 -14 2 -19 5 -12 2 6 2 18 0 25 -3 6 -5 1 -5 -13z"/>
<path d="M461 1534 c0 -11 3 -14 6 -6 3 7 2 16 -1 19 -3 4 -6 -2 -5 -13z"/>
<path d="M561 1534 c0 -11 3 -14 6 -6 3 7 2 16 -1 19 -3 4 -6 -2 -5 -13z"/>
<path d="M547 1493 c-12 -20 -18 -93 -8 -93 6 0 11 10 12 23 0 12 3 34 5 50 5
26 0 35 -9 20z"/>
<path d="M396 1463 c-6 -14 -5 -15 5 -6 7 7 10 15 7 18 -3 3 -9 -2 -12 -12z"/>
<path d="M330 1448 c0 -19 2 -20 10 -8 13 19 13 30 0 30 -5 0 -10 -10 -10 -22z"/>
<path d="M180 1410 c0 -11 4 -20 9 -20 5 0 7 9 4 20 -3 11 -7 20 -9 20 -2 0
-4 -9 -4 -20z"/>
<path d="M222 1410 c0 -14 2 -19 5 -12 2 6 2 18 0 25 -3 6 -5 1 -5 -13z"/>
<path d="M600 1391 c0 -11 -3 -28 -6 -38 -5 -12 -4 -15 3 -8 15 15 25 65 13
65 -5 0 -10 -9 -10 -19z"/>
<path d="M280 1390 c0 -5 5 -10 10 -10 6 0 10 5 10 10 0 6 -4 10 -10 10 -5 0
-10 -4 -10 -10z"/>
<path d="M430 1394 c-1 -5 -5 -28 -9 -51 -5 -24 -5 -43 -1 -43 9 0 24 90 16
98 -3 3 -6 1 -6 -4z"/>
<path d="M380 1369 c0 -11 5 -17 10 -14 6 3 10 13 10 21 0 8 -4 14 -10 14 -5
0 -10 -9 -10 -21z"/>
<path d="M222 1360 c0 -14 2 -19 5 -12 2 6 2 18 0 25 -3 6 -5 1 -5 -13z"/>
<path d="M251 1346 c-13 -33 -9 -43 8 -22 7 8 11 23 8 33 -3 14 -6 12 -16 -11z"/>
<path d="M490 1319 c0 -5 5 -7 10 -4 6 3 10 8 10 11 0 2 -4 4 -10 4 -5 0 -10
-5 -10 -11z"/>
<path d="M210 1288 c0 -36 4 -35 14 5 4 16 2 27 -4 27 -5 0 -10 -14 -10 -32z"/>
<path d="M581 1293 c0 -25 1 -26 9 -8 12 27 12 35 0 35 -5 0 -10 -12 -9 -27z"/>
<path d="M251 1288 c-8 -13 -9 -24 -3 -30 6 -6 12 0 16 17 9 35 4 40 -13 13z"/>
<path d="M368 1250 c-4 -14 -7 -41 -7 -60 l1 -35 9 34 c6 18 9 45 7 60 l-3 26
-7 -25z"/>
<path d="M400 1249 c0 -5 5 -7 10 -4 6 3 10 8 10 11 0 2 -4 4 -10 4 -5 0 -10
-5 -10 -11z"/>
<path d="M475 1240 c-4 -12 -5 -24 -2 -27 3 -2 8 5 12 17 4 12 5 24 2 27 -3 2
-8 -5 -12 -17z"/>
<path d="M206 1235 c-3 -9 -5 -31 -5 -48 1 -27 3 -24 9 13 8 48 6 61 -4 35z"/>
<path d="M233 1196 c0 -25 5 -47 12 -49 7 -3 11 11 11 44 0 31 -4 49 -11 49
-8 0 -12 -17 -12 -44z"/>
<path d="M566 1213 c-15 -49 -43 -204 -35 -196 11 11 52 204 45 210 -2 3 -7
-4 -10 -14z"/>
<path d="M390 1190 c0 -5 5 -10 10 -10 6 0 10 5 10 10 0 6 -4 10 -10 10 -5 0
-10 -4 -10 -10z"/>
<path d="M313 1108 c-6 -40 -7 -77 -3 -81 4 -5 10 26 14 69 9 98 2 106 -11 12z"/>
<path d="M480 1164 c0 -8 5 -12 10 -9 6 3 10 10 10 16 0 5 -4 9 -10 9 -5 0
-10 -7 -10 -16z"/>
<path d="M220 1130 c-13 -8 -12 -10 3 -10 9 0 17 5 17 10 0 12 -1 12 -20 0z"/>
<path d="M350 1108 c0 -36 4 -35 14 5 4 16 2 27 -4 27 -5 0 -10 -14 -10 -32z"/>
<path d="M404 1099 c-3 -6 -1 -16 5 -22 8 -8 11 -5 11 11 0 24 -5 28 -16 11z"/>
<path d="M225 1041 c-3 -5 -1 -12 5 -16 5 -3 10 1 10 9 0 18 -6 21 -15 7z"/>
<path d="M170 1030 c0 -5 5 -10 10 -10 6 0 10 5 10 10 0 6 -4 10 -10 10 -5 0
-10 -4 -10 -10z"/>
<path d="M298 970 c-4 -14 -7 -43 -7 -65 l1 -40 9 34 c6 18 9 47 7 65 -3 30
-3 30 -10 6z"/>
<path d="M338 984 c-5 -4 -8 -23 -8 -43 0 -25 3 -32 11 -24 6 6 9 25 7 43 -2
17 -6 28 -10 24z"/>
<path d="M507 973 c-10 -10 -8 -53 2 -53 5 0 11 14 13 30 4 29 -1 37 -15 23z"/>
<path d="M420 895 c0 -8 5 -15 10 -15 6 0 10 7 10 15 0 8 -4 15 -10 15 -5 0
-10 -7 -10 -15z"/>
<path d="M320 891 c0 -6 5 -13 10 -16 6 -3 10 1 10 9 0 9 -4 16 -10 16 -5 0
-10 -4 -10 -9z"/>
<path d="M488 885 c-3 -6 -8 -26 -12 -45 l-6 -35 16 34 c14 30 16 68 2 46z"/>
<path d="M181 861 c-8 -6 -9 -11 -3 -15 6 -3 14 -1 17 5 9 14 2 20 -14 10z"/>
<path d="M411 856 c-8 -9 -11 -19 -7 -23 9 -9 29 13 24 27 -2 8 -8 7 -17 -4z"/>
<path d="M310 808 c-1 -13 -7 -41 -15 -62 -14 -41 -11 -66 7 -48 11 11 22 132
13 132 -3 0 -5 -10 -5 -22z"/>
<path d="M410 809 c0 -5 5 -7 10 -4 6 3 10 8 10 11 0 2 -4 4 -10 4 -5 0 -10
-5 -10 -11z"/>
<path d="M275 783 c-14 -66 -14 -66 -3 -55 11 11 23 82 13 82 -2 0 -7 -12 -10
-27z"/>
<path d="M262 695 c-2 -27 13 -49 27 -41 16 10 13 29 -3 23 -10 -4 -16 2 -19
16 -4 20 -4 20 -5 2z"/>
<path d="M1890 1710 c-13 -8 -13 -10 2 -10 9 0 20 5 23 10 8 13 -5 13 -25 0z"/>
<path d="M2265 1650 c-22 -11 -31 -18 -20 -14 11 3 35 8 52 11 18 3 30 9 27
14 -7 12 -14 11 -59 -11z"/>
<path d="M2170 1581 c-166 -84 -201 -103 -195 -109 4 -4 297 140 314 154 2 2
-2 4 -10 4 -8 0 -57 -22 -109 -49z"/>
<path d="M2108 1590 c-34 -10 -210 -111 -204 -117 2 -3 52 20 111 51 58 31
112 56 120 56 8 0 17 5 20 10 7 12 -9 12 -47 0z"/>
<path d="M1851 1459 c-13 -5 -21 -12 -18 -15 3 -3 18 1 34 10 31 17 21 20 -16
5z"/>
<path d="M2454 1455 c-7 -17 -98 -75 -119 -75 -8 0 -15 -4 -15 -9 0 -6 12 -6
28 -2 47 14 132 53 132 61 0 5 3 15 6 24 4 11 1 16 -10 16 -9 0 -19 -7 -22
-15z"/>
<path d="M2280 1385 c0 -8 4 -15 10 -15 5 0 7 7 4 15 -4 8 -8 15 -10 15 -2 0
-4 -7 -4 -15z"/>
<path d="M2240 1380 c0 -5 5 -10 10 -10 6 0 10 5 10 10 0 6 -4 10 -10 10 -5 0
-10 -4 -10 -10z"/>
<path d="M1310 1435 c-14 -8 -19 -14 -10 -14 8 0 24 6 34 14 25 19 9 19 -24 0z"/>
<path d="M2460 1023 c0 -31 3 -54 6 -50 11 11 14 107 4 107 -6 0 -10 -25 -10
-57z"/>
<path d="M2460 935 c1 -26 2 -28 11 -12 8 14 8 22 0 30 -8 8 -11 3 -11 -18z"/>
<path d="M2460 880 c0 -11 2 -20 4 -20 2 0 6 9 9 20 3 11 1 20 -4 20 -5 0 -9
-9 -9 -20z"/>
<path d="M648 600 c-21 -22 -38 -49 -38 -60 0 -23 31 -41 38 -21 3 9 7 9 19
-1 14 -11 15 -10 9 10 -5 13 -1 34 8 54 17 33 21 58 9 58 -5 0 -25 -18 -45
-40z"/>
<path d="M2372 1145 c0 -16 2 -22 5 -12 2 9 2 23 0 30 -3 6 -5 -1 -5 -18z"/>
<path d="M1721 704 c0 -11 3 -14 6 -6 3 7 2 16 -1 19 -3 4 -6 -2 -5 -13z"/>
<path d="M1610 639 c0 -5 5 -7 10 -4 6 3 10 8 10 11 0 2 -4 4 -10 4 -5 0 -10
-5 -10 -11z"/>
<path d="M1327 424 c-4 -4 -7 -14 -7 -23 0 -11 3 -12 11 -4 6 6 10 16 7 23 -2
6 -7 8 -11 4z"/>
<path d="M1451 374 c0 -11 3 -14 6 -6 3 7 2 16 -1 19 -3 4 -6 -2 -5 -13z"/>
<path d="M1299 344 c-11 -30 -3 -46 11 -24 10 16 13 50 5 50 -3 0 -10 -12 -16
-26z"/>
<path d="M1381 344 c0 -11 3 -14 6 -6 3 7 2 16 -1 19 -3 4 -6 -2 -5 -13z"/>
<path d="M1481 334 c0 -11 3 -14 6 -6 3 7 2 16 -1 19 -3 4 -6 -2 -5 -13z"/>
<path d="M1427 320 c-21 -25 -25 -59 -3 -38 13 13 31 58 24 58 -2 0 -11 -9
-21 -20z"/>
<path d="M1518 294 c-5 -4 -8 -16 -8 -28 0 -14 3 -17 11 -9 6 6 9 19 7 28 -1
9 -6 13 -10 9z"/>
<path d="M1338 217 c-16 -6 -28 -17 -28 -24 0 -11 6 -11 32 0 17 7 33 18 36
25 4 14 -3 14 -40 -1z"/>
<path d="M1396 214 c-11 -28 -7 -35 14 -24 11 6 17 16 14 25 -8 20 -20 19 -28
-1z"/>
<path d="M1505 190 c-3 -5 -1 -10 4 -10 6 0 11 5 11 10 0 6 -2 10 -4 10 -3 0
-8 -4 -11 -10z"/>
<path d="M1018 273 c12 -2 30 -2 40 0 9 3 -1 5 -23 4 -22 0 -30 -2 -17 -4z"/>
<path d="M2837 1114 c-8 -8 1 -24 14 -24 5 0 9 7 9 15 0 15 -12 20 -23 9z"/>
</g>
</svg>
