<?xml version="1.0" standalone="no"?>
<!DOCTYPE svg PUBLIC "-//W3C//DTD SVG 20010904//EN"
 "http://www.w3.org/TR/2001/REC-SVG-20010904/DTD/svg10.dtd">
<svg version="1.0" xmlns="http://www.w3.org/2000/svg"
 width="328.000000pt" height="280.000000pt" viewBox="0 0 328.000000 280.000000"
 preserveAspectRatio="xMidYMid meet">
<metadata>
Created by potrace 1.16, written by Peter Selinger 2001-2019
</metadata>
<g transform="translate(0.000000,280.000000) scale(0.100000,-0.100000)"
fill="#000000" stroke="none">
<path d="M3011 2754 c-71 -19 -294 -35 -302 -21 -4 6 -34 8 -73 5 -55 -5 -66
-3 -66 9 0 13 -11 14 -72 8 -40 -4 -111 -11 -158 -16 -47 -5 -256 -16 -465
-24 -209 -9 -392 -18 -407 -19 -16 -2 -55 -4 -87 -5 -38 -1 -65 -6 -75 -16
-16 -17 -51 -21 -41 -5 8 13 -81 13 -154 0 -126 -21 -433 -45 -411 -32 22 14
306 44 345 36 18 -3 42 -1 52 5 32 18 -169 12 -317 -9 -260 -39 -290 -42 -361
-31 -37 6 -124 11 -193 11 -77 0 -126 4 -126 10 0 6 -7 10 -15 10 -8 0 -15 -7
-15 -15 0 -8 -3 -15 -7 -15 -10 0 -8 -779 2 -1055 5 -115 7 -253 7 -305 -1
-52 -2 -142 -1 -199 1 -91 -1 -103 -15 -98 -9 4 -16 2 -16 -3 0 -8 69 -15 71
-7 0 1 2 61 5 132 7 187 8 193 47 200 18 3 68 7 112 8 65 2 80 -1 80 -13 0
-11 -16 -16 -65 -20 l-65 -5 60 -6 c80 -7 105 2 105 40 0 37 -13 41 -96 31
-38 -5 -90 -9 -116 -10 l-48 0 -6 40 c-4 22 -11 40 -16 40 -5 0 -4 9 2 20 6
12 8 40 4 70 -4 27 -3 57 1 67 4 10 7 51 6 92 -2 53 1 76 11 82 7 5 72 9 145
9 157 0 153 -3 153 118 l0 79 42 7 c23 4 99 6 168 5 97 -1 125 2 125 12 0 9
-16 12 -60 11 -42 -1 -54 1 -40 7 12 5 -31 7 -107 4 l-126 -6 -7 46 c-4 25 -5
103 -4 173 l4 128 -58 12 c-61 12 -200 12 -229 -1 -27 -11 -23 20 5 38 22 14
23 19 16 88 -5 40 -10 78 -13 85 -5 13 36 24 93 24 27 0 32 -3 21 -10 -8 -5
-25 -10 -37 -10 -14 0 -23 -6 -23 -15 0 -18 45 -20 135 -5 58 9 263 34 393 47
55 5 62 4 62 -12 0 -15 7 -17 44 -13 24 3 59 13 77 22 30 15 65 17 274 15 135
-1 266 3 300 9 33 6 125 16 205 22 80 7 183 18 230 25 47 7 132 11 190 8 58
-2 161 2 230 10 128 14 160 9 160 -22 0 -11 3 -11 15 -1 10 8 60 13 148 15
121 3 263 21 348 45 73 21 69 30 69 -173 l0 -184 -72 1 c-70 1 -73 2 -76 26
-7 61 -12 70 -40 70 -45 0 -59 -16 -24 -28 27 -9 31 -16 34 -54 l3 -43 87 0
87 0 6 -60 c3 -33 6 -85 8 -115 2 -51 0 -55 -20 -54 -30 1 -29 -12 1 -20 27
-7 31 -20 41 -133 6 -62 5 -73 -8 -73 -10 0 -17 -11 -19 -27 -3 -26 -7 -29
-63 -36 -33 -5 -133 -6 -222 -4 -93 3 -163 1 -163 -4 0 -8 59 -12 205 -12 28
0 94 3 148 7 l99 7 -5 -77 c-3 -61 -8 -80 -24 -93 -11 -9 -25 -31 -32 -50 -9
-28 -8 -39 4 -58 15 -22 20 -25 55 -27 12 -1 14 -13 12 -61 -2 -33 -4 -108 -5
-167 -1 -86 -5 -109 -17 -114 -8 -4 -123 -10 -255 -13 -132 -4 -246 -10 -252
-14 -7 -5 -97 -10 -200 -13 -104 -2 -243 -11 -311 -19 -76 -10 -199 -15 -325
-14 -313 2 -435 0 -522 -11 -110 -14 -202 -13 -207 2 -3 7 -26 11 -64 11 l-59
-1 53 10 c64 13 68 28 7 28 -25 0 -45 -4 -45 -9 0 -4 -24 -11 -54 -15 -30 -3
-62 -9 -72 -13 -13 -5 -16 -3 -11 10 4 12 1 17 -10 17 -29 0 -417 -51 -457
-60 -25 -5 -47 -5 -62 2 -27 13 -44 4 -26 -14 8 -8 48 -8 158 1 80 7 148 10
150 8 8 -8 -168 -37 -241 -41 -87 -4 -132 -15 -113 -27 9 -6 5 -9 -13 -9 -26
0 -54 -21 -43 -33 9 -8 197 1 269 14 33 6 148 14 255 19 107 5 247 14 310 20
161 14 371 20 365 11 -10 -16 31 -18 174 -5 79 7 219 16 310 19 91 3 203 8
249 10 66 4 87 2 108 -11 21 -15 42 -16 141 -11 64 4 120 10 124 14 5 5 -31 7
-78 5 -52 -2 -90 1 -96 7 -8 8 -3 11 18 12 17 0 67 3 112 5 73 4 82 2 76 -12
-5 -14 0 -15 33 -10 115 17 213 26 334 30 161 5 280 23 280 42 0 8 12 17 26
20 14 4 23 12 20 19 -2 7 0 17 5 22 20 20 27 1069 8 1243 -5 47 -9 135 -10
195 0 86 -4 117 -18 140 -21 36 -38 39 -110 19z m-1091 -64 c-19 -13 -30 -13
-30 0 0 6 10 10 23 10 18 0 19 -2 7 -10z m-480 -20 c0 -5 -10 -11 -22 -11 -19
-1 -18 -3 7 -10 l30 -8 -32 3 c-18 1 -33 -1 -33 -4 0 -11 -91 -19 -114 -10
-15 5 -1 9 47 14 37 4 67 11 67 16 0 5 10 11 23 13 12 2 23 5 25 6 1 0 2 -3 2
-9z m53 3 c-7 -2 -19 -2 -25 0 -7 3 -2 5 12 5 14 0 19 -2 13 -5z m604 1 c-3
-3 -12 -4 -19 -1 -8 3 -5 6 6 6 11 1 17 -2 13 -5z m-1947 -58 c0 -2 -7 -6 -15
-10 -8 -3 -15 -1 -15 4 0 6 7 10 15 10 8 0 15 -2 15 -4z m85 -286 c4 -6 -12
-10 -42 -10 -35 0 -44 3 -33 10 20 13 67 13 75 0z m2872 -37 c-3 -10 -5 -4 -5
12 0 17 2 24 5 18 2 -7 2 -21 0 -30z m-2728 1 c5 -5 11 -77 15 -160 l6 -151
-93 -7 c-50 -4 -100 -9 -109 -12 -25 -7 -22 -34 3 -34 11 0 18 -4 15 -9 -3 -5
1 -14 9 -21 15 -13 19 -8 16 23 -2 13 5 17 32 17 19 0 55 3 81 6 l46 7 0 -71
c0 -91 -8 -99 -102 -101 -40 0 -96 -4 -124 -7 l-51 -6 -5 176 c-6 248 0 354
20 358 38 7 233 1 241 -8z m164 -321 c-7 -2 -21 -2 -30 0 -10 3 -4 5 12 5 17
0 24 -2 18 -5z m2557 -409 c0 -30 -3 -34 -25 -34 -28 0 -33 22 -13 64 15 35
38 16 38 -30z m-389 -461 c2 -5 -16 -9 -41 -11 -47 -3 -47 12 0 21 26 4 35 2
41 -10z m-1986 -23 c-16 -4 -52 -7 -80 -7 l-50 0 50 7 c28 4 64 7 80 7 l30 1
-30 -8z m770 -20 c4 -6 -30 -9 -97 -8 -98 1 -100 2 -33 7 39 3 82 7 97 9 15 1
29 -2 33 -8z m-930 -60 c-3 -5 -18 -10 -33 -10 -21 0 -24 2 -12 10 20 13 53
13 45 0z m358 3 c-7 -2 -19 -2 -25 0 -7 3 -2 5 12 5 14 0 19 -2 13 -5z"/>
<path d="M175 2020 c-3 -5 1 -10 10 -10 9 0 13 5 10 10 -3 6 -8 10 -10 10 -2
0 -7 -4 -10 -10z"/>
<path d="M2451 2611 c-12 -8 -13 -14 -3 -35 15 -34 46 -35 40 -2 -5 26 10 39
31 26 17 -10 10 -65 -9 -66 -8 -1 -24 -2 -34 -3 -34 -2 -7 -14 33 -15 39 -1
39 0 44 39 2 22 2 46 -1 53 -5 14 -80 16 -101 3z"/>
<path d="M620 2517 c0 -4 7 -24 15 -43 12 -29 18 -35 32 -28 17 8 459 13 476
5 5 -2 -1 -8 -13 -15 -13 -6 -31 -33 -42 -64 -11 -30 -29 -57 -41 -63 -36 -19
-67 -51 -67 -71 0 -10 -7 -21 -15 -24 -11 -5 -13 -16 -9 -43 6 -37 6 -38 -27
-37 -90 0 -139 -5 -139 -15 0 -8 25 -9 85 -5 73 6 85 4 85 -9 0 -12 -13 -15
-62 -16 -74 -1 -142 -6 -180 -13 -16 -3 -28 -1 -28 4 0 5 12 12 28 16 55 12
56 19 3 22 -67 4 -81 -1 -81 -30 0 -47 12 -52 81 -35 35 9 103 18 152 20 l87
5 0 -30 c0 -17 4 -27 10 -23 6 3 10 -1 10 -10 0 -9 -4 -13 -10 -10 -12 7 -12
-22 -3 -117 7 -75 22 -93 21 -25 -3 101 2 168 12 162 6 -4 9 12 7 40 -1 25 1
45 5 45 4 0 8 11 8 24 0 14 4 27 9 30 5 3 7 23 4 45 -3 23 -1 41 6 45 6 4 11
1 11 -8 0 -9 5 -16 10 -16 6 0 10 4 10 10 0 19 79 31 233 36 l158 4 -3 -22
c-3 -22 -5 -22 -183 -22 -162 0 -182 -2 -200 -18 -19 -18 -18 -19 35 -13 30 3
71 7 90 9 19 2 43 7 54 11 10 5 39 3 65 -3 25 -6 75 -12 111 -14 l65 -2 9 42
c9 45 20 51 51 28 17 -12 21 -12 31 3 10 13 34 16 134 17 80 1 125 6 130 13 7
13 130 18 149 7 7 -5 9 -20 5 -43 -5 -26 -4 -34 5 -29 15 10 15 -60 -1 -136
l-12 -58 -71 0 c-38 0 -77 -5 -85 -10 -18 -12 -16 -12 80 -10 l75 1 -1 -68 c0
-37 -4 -78 -8 -90 -4 -14 -3 -23 3 -23 12 0 26 45 40 124 6 33 11 61 11 62 0
1 68 5 150 9 124 6 150 10 150 22 0 12 -8 14 -32 10 -18 -4 -67 -9 -108 -12
-41 -3 -95 -8 -119 -11 l-44 -6 7 64 c4 34 10 92 12 128 3 36 6 69 7 74 4 21
-148 34 -399 35 l-122 1 -16 40 c-9 22 -20 40 -26 40 -13 0 -13 -41 0 -76 6
-15 7 -30 2 -33 -5 -3 -12 -15 -17 -26 -6 -15 -9 -16 -12 -5 -3 13 -30 15
-186 13 -100 -1 -176 0 -169 3 7 3 12 25 12 54 0 34 4 50 16 54 8 3 69 3 135
-1 93 -5 119 -3 119 7 0 8 9 11 25 8 14 -3 25 -1 25 3 0 5 16 9 35 9 41 0 42
3 15 30 -11 11 -20 27 -20 35 0 11 -12 15 -47 16 -411 4 -813 2 -813 -4z m796
-17 c19 -6 34 -18 34 -26 0 -11 -18 -13 -92 -9 -90 5 -466 14 -618 16 -49 0
-68 3 -55 9 11 4 101 8 200 9 98 1 180 3 181 4 10 9 322 6 350 -3z m-63 -77
c-7 -2 -21 -2 -30 0 -10 3 -4 5 12 5 17 0 24 -2 18 -5z m182 -93 c3 -5 1 -10
-4 -10 -6 0 -11 5 -11 10 0 6 2 10 4 10 3 0 8 -4 11 -10z m149 1 c44 -1 76 -4
72 -8 -8 -8 -174 -15 -194 -8 -21 7 -5 22 20 19 13 -1 59 -3 102 -3z"/>
<path d="M1764 2496 c-10 -25 5 -36 39 -30 18 3 53 6 80 6 64 -1 50 15 -21 23
-31 4 -65 9 -75 12 -10 2 -20 -2 -23 -11z"/>
<path d="M1953 2473 c9 -2 25 -2 35 0 9 3 1 5 -18 5 -19 0 -27 -2 -17 -5z"/>
<path d="M2490 2470 c-8 -5 -12 -11 -9 -14 3 -3 14 1 25 9 21 16 8 20 -16 5z"/>
<path d="M2567 2450 c-27 -17 -64 -54 -82 -84 -5 -9 -20 -17 -31 -19 -12 -1
-29 -11 -38 -20 -17 -16 -42 -14 -31 2 4 7 -145 24 -152 17 -5 -5 21 -66 29
-66 4 0 10 5 13 10 3 6 33 10 65 10 l59 0 7 -45 c3 -25 4 -74 2 -110 -2 -36
-1 -65 3 -65 8 0 14 37 25 137 6 60 23 91 43 79 16 -10 41 5 41 25 0 10 3 18
8 18 22 -4 29 3 24 26 -3 18 1 30 14 39 17 13 86 27 144 31 82 5 86 5 68 16
-9 5 -55 11 -100 12 -63 2 -90 -1 -111 -13z"/>
<path d="M2808 2443 c7 -3 16 -2 19 1 4 3 -2 6 -13 5 -11 0 -14 -3 -6 -6z"/>
<path d="M2745 2361 c-3 -5 -1 -12 5 -16 17 -11 11 -25 -11 -25 -11 0 -17 -4
-14 -10 15 -25 75 11 75 45 0 17 -45 21 -55 6z"/>
<path d="M2650 2254 c0 -12 -7 -24 -15 -28 -9 -3 -15 -19 -15 -41 0 -36 -15
-46 -38 -23 -22 22 -35 -6 -28 -56 7 -43 9 -46 37 -46 22 0 29 5 29 20 0 13 7
20 19 20 17 0 18 -4 10 -32 -5 -18 -5 -36 0 -41 13 -13 81 3 81 19 0 16 46 38
60 29 5 -3 11 -1 15 5 4 6 -8 10 -30 10 -29 0 -36 3 -33 18 2 11 14 18 36 20
24 2 32 7 28 17 -3 8 -1 17 5 20 5 4 7 11 3 16 -7 11 -86 2 -94 -11 -3 -5 -14
-10 -25 -12 -17 -2 -19 2 -17 27 2 17 6 32 8 34 2 2 35 6 74 9 93 6 104 -3 95
-77 -9 -70 -27 -97 -70 -105 -19 -4 -35 -11 -35 -16 0 -14 37 -12 63 1 16 9
22 9 25 0 6 -19 22 -12 22 10 0 13 8 23 20 26 19 5 19 6 4 18 -15 11 -16 19
-6 70 19 93 17 105 -15 100 -16 -3 -59 -7 -96 -9 -37 -2 -70 -6 -74 -9 -3 -4
-14 4 -24 16 l-18 22 -1 -21z m7 -96 c-3 -8 -6 -5 -6 6 -1 11 2 17 5 13 3 -3
4 -12 1 -19z m48 -65 c-11 -76 -30 -84 -25 -11 1 14 -4 29 -10 33 -14 9 5 25
29 25 10 0 12 -11 6 -47z"/>
<path d="M1040 2130 c-11 -7 3 -10 47 -10 34 0 65 5 68 10 8 13 -95 13 -115 0z"/>
<path d="M1110 2100 c0 -5 5 -10 10 -10 6 0 10 5 10 10 0 6 -4 10 -10 10 -5 0
-10 -4 -10 -10z"/>
<path d="M1050 2085 c-24 -14 -24 -14 -3 -15 30 0 54 10 47 21 -7 12 -14 11
-44 -6z"/>
<path d="M1730 2079 c0 -5 5 -7 10 -4 6 3 10 8 10 11 0 2 -4 4 -10 4 -5 0 -10
-5 -10 -11z"/>
<path d="M2988 2073 c7 -3 16 -2 19 1 4 3 -2 6 -13 5 -11 0 -14 -3 -6 -6z"/>
<path d="M1532 2053 c-19 -37 -5 -43 96 -36 53 3 104 10 112 15 9 6 -22 7 -84
3 -68 -4 -96 -3 -91 4 3 6 31 11 61 11 34 0 53 4 49 10 -3 6 -35 10 -70 10
-51 0 -66 -4 -73 -17z"/>
<path d="M1758 2063 c7 -3 16 -2 19 1 4 3 -2 6 -13 5 -11 0 -14 -3 -6 -6z"/>
<path d="M1878 2063 c7 -3 16 -2 19 1 4 3 -2 6 -13 5 -11 0 -14 -3 -6 -6z"/>
<path d="M2404 2039 c-17 -29 82 -32 134 -5 25 13 23 14 -50 15 -46 0 -80 -4
-84 -10z"/>
<path d="M790 1998 c0 -7 7 -22 15 -32 13 -17 15 -17 21 -3 3 10 4 24 0 32 -7
18 -36 20 -36 3z"/>
<path d="M703 1993 c9 -2 23 -2 30 0 6 3 -1 5 -18 5 -16 0 -22 -2 -12 -5z"/>
<path d="M1000 1950 c0 -16 4 -30 8 -30 5 0 7 14 4 30 -2 17 -6 30 -8 30 -2 0
-4 -13 -4 -30z"/>
<path d="M2386 1878 c-4 -59 -5 -112 -1 -117 11 -18 35 -12 35 9 0 18 7 20 73
22 39 1 87 1 105 -1 17 -1 32 2 32 7 0 6 -47 11 -104 14 -58 2 -108 6 -111 10
-3 3 -6 29 -7 57 0 109 -15 109 -22 -1z"/>
<path d="M1500 1910 c0 -5 5 -10 11 -10 5 0 7 5 4 10 -3 6 -8 10 -11 10 -2 0
-4 -4 -4 -10z"/>
<path d="M1001 1850 c0 -26 -6 -51 -13 -58 -8 -8 36 -10 183 -5 107 3 228 8
269 12 76 6 282 0 420 -13 59 -6 79 -4 95 7 11 9 17 19 13 22 -10 10 -615 7
-704 -3 -39 -4 -82 -5 -96 -1 -13 3 -51 3 -83 -2 -62 -8 -80 -4 -55 11 13 8
13 11 -2 22 -9 7 -18 22 -21 33 -3 11 -5 0 -6 -25z"/>
<path d="M2170 1876 c0 -3 4 -16 10 -30 8 -22 16 -26 50 -26 38 0 40 2 40 30
0 29 -1 30 -50 30 -27 0 -50 -2 -50 -4z"/>
<path d="M825 1830 c-3 -5 1 -10 10 -10 9 0 13 5 10 10 -3 6 -8 10 -10 10 -2
0 -7 -4 -10 -10z"/>
<path d="M575 1813 c-50 -6 -60 -12 -47 -25 7 -7 12 -20 12 -30 0 -10 7 -18
15 -18 9 0 15 9 15 25 0 14 7 28 15 32 25 9 32 -7 11 -23 -15 -10 -16 -15 -5
-19 22 -7 54 1 53 13 -1 7 -2 21 -2 32 -2 20 -6 21 -67 13z"/>
<path d="M1795 1730 c-24 -38 -15 -240 11 -240 16 0 17 10 4 44 -8 23 -7 44
17 174 4 25 2 32 -10 32 -9 0 -19 -4 -22 -10z"/>
<path d="M2488 1635 c-2 -47 0 -85 5 -85 4 0 7 -11 7 -23 0 -25 -32 -62 -43
-50 -12 11 -7 71 6 76 6 3 -2 6 -19 6 -29 1 -30 -1 -27 -31 8 -68 13 -78 36
-78 26 0 64 29 68 50 5 30 -13 220 -21 220 -5 0 -10 -38 -12 -85z"/>
<path d="M1115 1623 c5 -32 9 -77 9 -100 1 -24 6 -43 11 -44 69 -5 99 -2 103
9 2 8 -8 12 -30 12 -54 0 -60 9 -57 86 3 74 -3 94 -28 94 -13 0 -15 -8 -8 -57z"/>
<path d="M225 1651 c-3 -5 -1 -12 5 -16 12 -7 30 2 30 16 0 12 -27 12 -35 0z"/>
<path d="M825 1651 c-16 -6 -19 -16 -17 -47 4 -47 15 -60 32 -39 7 8 27 15 44
15 31 0 31 1 28 40 -4 38 -6 40 -36 39 -17 0 -40 -4 -51 -8z m55 -36 c0 -8 -9
-15 -20 -15 -20 0 -26 11 -13 23 12 13 33 7 33 -8z"/>
<path d="M1306 1637 c-33 -25 -40 -100 -13 -134 12 -16 59 -17 75 -1 20 20 14
30 -15 24 -21 -5 -31 -2 -41 14 -7 11 -9 21 -5 21 5 1 18 3 29 4 39 4 45 14
29 44 -17 34 -38 44 -59 28z m38 -23 c9 -23 8 -24 -12 -24 -26 0 -34 11 -21
27 15 17 26 17 33 -3z"/>
<path d="M1602 1614 c-24 -37 -29 -83 -10 -102 17 -17 54 -15 72 3 16 16 31
20 22 6 -3 -4 1 -17 9 -27 11 -15 16 -17 27 -6 10 10 10 16 -1 34 -7 12 -16
42 -20 67 -3 25 -11 46 -16 45 -6 -1 -21 2 -35 6 -22 6 -29 2 -48 -26z m73
-42 c-7 -30 -23 -43 -45 -39 -22 3 -24 45 -5 68 26 27 59 8 50 -29z"/>
<path d="M1905 1631 c-3 -2 -5 -13 -5 -23 0 -19 25 -25 35 -8 3 6 34 10 68 10
39 0 57 4 47 9 -17 10 -138 20 -145 12z"/>
<path d="M2905 1614 c-14 -15 -25 -32 -26 -38 -6 -55 19 -90 59 -81 20 5 22 2
22 -31 0 -50 10 -37 15 17 2 24 6 62 10 84 6 45 0 59 -32 69 -17 6 -29 1 -48
-20z m61 -21 c-3 -8 -6 -25 -6 -38 0 -30 -38 -54 -51 -34 -23 37 6 101 41 92
13 -4 19 -11 16 -20z"/>
<path d="M147 1624 c-4 -4 -7 -15 -7 -25 0 -15 4 -17 23 -10 12 5 22 14 22 22
0 15 -27 24 -38 13z"/>
<path d="M1435 1605 c-28 -27 -30 -42 -14 -78 20 -45 78 -59 80 -18 0 10 2 12
6 3 3 -7 0 -19 -7 -27 -6 -7 -12 -27 -12 -43 -1 -27 -5 -31 -41 -36 -46 -8
-59 -14 -52 -25 7 -13 108 14 113 30 2 8 6 21 9 29 12 32 14 90 3 90 -6 0 -8
5 -4 12 5 7 9 21 10 32 0 11 6 22 12 24 7 2 12 10 12 18 0 10 -13 14 -45 14
-35 0 -52 -6 -70 -25z m53 -47 c-2 -35 -7 -43 -22 -43 -25 0 -43 49 -26 70 7
8 21 15 32 15 16 0 19 -6 16 -42z"/>
<path d="M2193 1618 c-2 -5 38 -7 89 -7 97 2 89 6 -20 11 -35 2 -66 0 -69 -4z"/>
<path d="M2724 1593 c-7 -39 4 -84 23 -90 9 -3 9 3 0 26 -8 21 -8 39 0 65 9
29 9 36 -2 36 -8 0 -17 -16 -21 -37z"/>
<path d="M2078 1613 c6 -2 18 -2 25 0 6 3 1 5 -13 5 -14 0 -19 -2 -12 -5z"/>
<path d="M2575 1608 c-2 -7 -5 -20 -8 -28 -5 -18 21 -82 37 -92 6 -4 17 -8 25
-8 11 0 9 4 -4 14 -16 11 -19 25 -17 70 2 45 -1 56 -13 56 -9 0 -17 -6 -20
-12z"/>
<path d="M2653 1555 c2 -77 21 -82 25 -7 2 29 7 52 13 52 21 0 7 16 -15 18
-24 2 -25 0 -23 -63z"/>
<path d="M2823 1613 c12 -11 -14 -33 -39 -33 -13 0 -24 -4 -24 -10 0 -17 46
-11 70 8 22 18 21 42 -2 42 -6 0 -8 -3 -5 -7z"/>
<path d="M224 1597 c-8 -22 0 -162 10 -162 5 0 10 39 12 88 2 51 -1 87 -7 87
-5 0 -12 -6 -15 -13z"/>
<path d="M322 1588 c-32 -67 -26 -108 18 -108 16 0 32 5 35 11 5 6 13 3 22
-10 8 -12 21 -21 30 -21 14 0 14 3 1 23 -8 12 -18 42 -21 66 -3 24 -11 48 -19
52 -24 16 -54 9 -66 -13z m48 -32 c0 -25 -23 -56 -41 -56 -18 0 -21 30 -5 55
21 32 46 33 46 1z"/>
<path d="M1960 1565 c0 -12 13 -15 62 -15 73 0 67 14 -9 24 -44 6 -53 4 -53
-9z"/>
<path d="M2225 1560 c3 -5 13 -10 21 -10 8 0 14 5 14 10 0 6 -9 10 -21 10 -11
0 -17 -4 -14 -10z"/>
<path d="M2330 1560 c8 -5 28 -10 44 -10 39 0 30 6 -19 13 -27 4 -35 3 -25 -3z"/>
<path d="M1400 1496 c0 -9 7 -16 16 -16 17 0 14 22 -4 28 -7 2 -12 -3 -12 -12z"/>
<path d="M2805 1499 c-4 -6 -5 -13 -2 -16 7 -7 27 6 27 18 0 12 -17 12 -25 -2z"/>
<path d="M976 1469 c-15 -30 -15 -31 1 -17 10 9 24 13 31 11 16 -6 15 12 -2
26 -11 10 -17 6 -30 -20z"/>
<path d="M1430 1461 c0 -5 5 -13 10 -16 6 -3 10 -2 10 4 0 5 -4 13 -10 16 -5
3 -10 2 -10 -4z"/>
<path d="M148 1433 c-10 -3 -18 -11 -18 -19 0 -18 11 -18 35 -1 20 15 10 26
-17 20z"/>
<path d="M2900 1400 c18 -11 60 -13 60 -2 0 4 -17 8 -38 9 -27 2 -33 0 -22 -7z"/>
<path d="M2803 1361 c-3 -12 -9 -21 -14 -21 -5 0 -9 -4 -9 -10 0 -5 11 -10 25
-10 18 0 25 5 25 20 0 38 -19 53 -27 21z"/>
<path d="M1344 1358 c-8 -12 149 -9 166 2 10 7 -12 10 -73 8 -49 -2 -91 -6
-93 -10z"/>
<path d="M1547 1348 c-7 -26 -1 -38 19 -38 9 0 14 11 14 30 0 35 -25 41 -33 8z"/>
<path d="M960 1350 c0 -5 7 -10 15 -10 8 0 15 5 15 10 0 6 -7 10 -15 10 -8 0
-15 -4 -15 -10z"/>
<path d="M606 1341 c-4 -6 22 -99 30 -109 4 -5 144 30 144 36 0 2 -30 1 -67
-2 -48 -5 -64 -4 -53 3 8 6 39 11 68 11 28 0 52 5 52 10 0 6 -28 10 -65 10
-38 0 -65 4 -65 10 0 14 14 18 85 29 60 8 60 8 -32 9 -51 0 -95 -3 -97 -7z"/>
<path d="M843 1343 c9 -2 25 -2 35 0 9 3 1 5 -18 5 -19 0 -27 -2 -17 -5z"/>
<path d="M1803 1343 c-15 -6 -17 -73 -3 -73 6 0 15 11 20 25 9 23 15 25 67 25
135 1 335 9 340 14 4 3 -82 6 -190 6 -107 0 -201 2 -209 4 -7 3 -19 2 -25 -1z"/>
<path d="M800 1302 c-17 -6 -11 -20 10 -27 10 -3 29 -1 40 5 12 6 55 11 96 11
41 0 84 4 97 9 15 6 -19 9 -105 7 -70 -1 -132 -3 -138 -5z"/>
<path d="M2050 1280 c0 -11 91 -11 190 0 57 6 49 7 -62 8 -80 1 -128 -2 -128
-8z"/>
<path d="M1830 1265 c0 -12 11 -14 63 -9 133 14 147 22 40 23 -85 1 -103 -2
-103 -14z"/>
<path d="M3015 869 c-33 -5 -121 -16 -195 -25 -74 -8 -171 -19 -215 -25 -223
-26 -299 -30 -525 -30 -135 0 -296 -3 -359 -8 -95 -7 -132 -6 -220 10 -58 10
-114 16 -126 14 -11 -2 -95 -6 -187 -9 -93 -3 -172 -8 -178 -11 -5 -3 -10 -1
-10 6 0 22 -523 -7 -555 -31 -5 -4 -50 -10 -100 -14 -49 -3 -113 -9 -141 -12
-45 -6 -51 -4 -50 12 1 28 -18 33 -22 6 -3 -17 -8 -21 -22 -17 -26 8 -30 -12
-24 -143 3 -64 6 -182 7 -262 1 -80 6 -154 11 -164 7 -15 6 -17 -3 -11 -8 4
-7 -2 3 -17 9 -14 14 -32 11 -41 -4 -8 -2 -18 4 -22 16 -10 13 -45 -4 -45 -8
0 -15 -5 -15 -11 0 -7 17 -9 51 -4 28 4 68 9 88 12 20 3 171 7 336 9 167 2
320 9 345 15 25 6 149 13 275 15 401 6 697 14 704 18 3 2 78 7 166 10 151 6
246 12 580 37 77 6 194 15 260 19 90 6 351 27 373 30 1 0 2 16 2 36 l0 36 -97
-7 c-170 -12 -426 -44 -481 -60 -29 -9 -58 -12 -67 -8 -7 5 -54 5 -102 1 -48
-3 -197 -7 -329 -7 -146 -1 -298 -7 -383 -17 -78 -8 -148 -13 -154 -11 -7 2
-20 0 -31 -5 -11 -6 -189 -12 -420 -15 -775 -8 -807 -9 -881 -27 -38 -9 -98
-18 -132 -20 l-61 -4 10 29 c20 58 98 75 483 108 72 6 184 15 250 21 66 6 159
10 206 9 48 -1 96 2 108 6 13 4 27 1 37 -9 8 -9 24 -16 33 -16 25 0 102 28
121 43 8 7 35 22 60 33 64 27 80 44 80 81 0 22 7 37 22 47 31 22 41 20 26 -4
-22 -35 3 -45 53 -20 l43 22 -18 -27 c-29 -44 -16 -55 59 -53 35 1 67 -1 70
-4 10 -10 -91 -56 -140 -64 l-50 -8 60 -8 c34 -4 82 -3 112 3 29 6 125 8 217
6 91 -3 166 -1 166 3 0 11 -91 22 -150 18 -25 -1 -70 -1 -100 0 -47 3 -52 5
-31 13 40 16 53 30 41 44 -15 18 50 55 96 55 45 0 43 12 -7 34 -34 15 -43 16
-50 5 -5 -8 -9 -16 -9 -19 0 -3 -15 -14 -32 -25 -56 -32 -72 -55 -41 -55 26 0
3 -17 -39 -28 -37 -10 -54 0 -23 12 13 4 14 10 5 26 -9 17 -21 20 -72 20 -52
0 -59 2 -48 14 6 8 10 25 8 38 -2 19 -9 23 -35 22 -29 -2 -31 0 -17 13 11 12
12 19 4 27 -8 8 -28 2 -75 -23 -65 -35 -81 -55 -71 -89 5 -15 -10 -26 -82 -61
-101 -48 -162 -62 -162 -39 0 20 43 84 88 130 46 48 62 49 26 2 -25 -32 -26
-36 -11 -51 14 -15 18 -15 43 2 38 25 106 97 169 180 85 112 52 102 368 108
203 3 282 8 290 17 10 10 -15 11 -118 6 -160 -8 -425 -9 -433 -2 -14 14 15 18
138 20 96 1 133 5 139 14 5 8 33 15 72 17 35 2 102 7 149 10 47 3 162 8 255
10 162 5 400 25 530 45 33 5 117 14 188 21 70 6 127 16 127 20 0 5 -9 9 -19 9
-11 0 -23 5 -26 10 -4 6 5 10 19 10 16 0 26 6 26 15 0 12 -18 15 -102 14 -57
-1 -130 -5 -163 -10z m125 -39 c0 -5 -7 -10 -15 -10 -8 0 -15 5 -15 10 0 6 7
10 15 10 8 0 15 -4 15 -10z m-2260 -60 c-25 -5 -88 -11 -140 -14 -91 -5 -93
-4 -50 9 25 7 88 13 140 13 78 0 87 -2 50 -8z m477 -16 c-3 -3 -12 -4 -19 -1
-8 3 -5 6 6 6 11 1 17 -2 13 -5z m83 -34 c0 -6 -35 -9 -87 -9 -69 2 -79 3 -48
9 62 11 135 11 135 0z m149 6 c-2 -2 -17 -6 -34 -10 -22 -5 -26 -4 -15 4 14 9
59 15 49 6z m-1096 -13 c-7 -2 -21 -2 -30 0 -10 3 -4 5 12 5 17 0 24 -2 18 -5z
m743 -9 c20 -13 49 -17 137 -16 66 1 116 -3 124 -10 7 -6 29 -8 49 -5 25 4 34
2 31 -6 -2 -8 -30 -12 -78 -13 -41 -1 -177 -5 -304 -11 -126 -5 -273 -9 -325
-9 -156 0 -210 -4 -210 -12 0 -12 486 -6 645 8 123 11 211 12 228 3 4 -2 -8
-16 -25 -30 -18 -15 -62 -55 -98 -89 -55 -54 -154 -113 -166 -101 -2 2 19 18
47 37 33 21 47 36 41 42 -17 17 -122 -51 -122 -78 0 -21 37 -36 59 -24 33 17
32 12 -4 -40 -19 -27 -35 -57 -35 -65 0 -21 -44 -30 -140 -28 -83 2 -471 -21
-540 -33 l-35 -6 22 21 c12 11 29 34 39 50 17 29 24 31 104 32 26 0 45 9 73
34 36 33 37 33 37 11 0 -39 25 -52 65 -33 29 14 35 14 45 1 17 -19 44 -18 90
6 24 12 41 16 45 10 3 -6 16 -10 29 -10 29 0 116 30 116 39 0 17 -14 19 -58 5
-59 -17 -62 -17 -62 1 0 22 -18 19 -77 -12 -28 -15 -55 -24 -59 -20 -4 4 0 23
9 41 13 29 14 36 3 46 -11 8 -18 3 -34 -22 -11 -18 -34 -41 -51 -51 -31 -18
-31 -18 -31 4 0 13 16 53 35 90 40 77 40 79 21 79 -8 0 -38 -32 -66 -72 -74
-100 -131 -149 -110 -92 15 40 13 74 -5 68 -8 -4 -15 -14 -15 -24 0 -18 -36
-70 -49 -70 -4 0 -6 14 -3 30 7 48 -16 35 -42 -24 -24 -54 -55 -89 -41 -47 9
30 -8 27 -68 -13 -57 -37 -97 -53 -97 -38 0 5 14 20 32 33 39 30 83 73 125
124 l32 38 111 10 c103 10 131 20 95 33 -8 4 -53 0 -100 -8 -47 -8 -88 -12
-90 -10 -2 3 0 13 5 23 12 22 3 49 -16 49 -8 0 -19 -11 -24 -24 -13 -34 -20
-37 -115 -40 -62 -2 -88 1 -96 11 -16 19 -42 16 -73 -8 -52 -41 -37 -49 89
-46 63 1 115 1 115 0 0 -6 -95 -90 -116 -103 -18 -11 -23 -21 -20 -36 7 -26
-6 -42 -66 -83 -37 -27 -52 -32 -77 -26 -26 6 -32 3 -40 -17 -9 -22 -10 -22
-10 -2 -1 12 5 26 12 32 9 8 12 34 9 87 -2 48 2 82 9 91 8 9 9 41 6 97 l-6 84
40 13 c39 13 57 36 19 26 -11 -3 -29 -9 -41 -12 -18 -5 -20 -2 -17 33 l3 38
60 3 c108 7 249 5 277 -2 20 -6 27 -4 30 9 3 14 22 17 143 20 152 3 357 15
364 21 2 2 40 4 83 4 56 0 86 -5 104 -16z m-1017 -3 c12 -8 9 -11 -12 -17 -30
-7 -43 -1 -32 15 8 13 25 14 44 2z m-71 -191 c5 -36 6 -87 2 -115 -7 -46 -8
-47 -11 -15 -7 81 -8 100 -13 205 -4 84 -3 96 4 50 4 -33 12 -89 18 -125z
m1507 160 c-3 -5 -11 -10 -16 -10 -6 0 -7 5 -4 10 3 6 11 10 16 10 6 0 7 -4 4
-10z m-35 -35 c0 -26 -186 -235 -208 -235 -6 0 3 13 19 29 32 33 37 51 13 51
-24 0 -16 10 70 88 69 62 106 86 106 67z m-1315 -155 c-27 -12 -43 -12 -25 0
8 5 22 9 30 9 10 0 8 -3 -5 -9z m156 -113 c-40 -38 -75 -66 -78 -63 -9 9 129
146 140 139 6 -3 -22 -37 -62 -76z m33 -129 c6 -27 5 -28 -30 -28 -21 0 -66
-5 -101 -11 -35 -6 -67 -8 -71 -4 -4 4 -1 10 6 12 7 3 19 11 26 18 11 11 20
12 43 3 26 -10 36 -8 74 14 24 13 44 24 45 24 1 -1 4 -13 8 -28z m1623 -94
c-3 -3 -12 -4 -19 -1 -8 3 -5 6 6 6 11 1 17 -2 13 -5z m-94 -11 c-7 -2 -21 -2
-30 0 -10 3 -4 5 12 5 17 0 24 -2 18 -5z m-1438 -33 c4 -6 -8 -10 -28 -10 -19
0 -63 -2 -98 -5 -63 -4 -63 -4 16 9 107 18 103 17 110 6z m345 2 c0 -10 -148
-32 -211 -32 -32 0 -40 3 -29 10 8 5 44 10 80 10 36 1 83 5 105 9 56 12 55 12
55 3z m-547 -29 c-7 -2 -19 -2 -25 0 -7 3 -2 5 12 5 14 0 19 -2 13 -5z"/>
<path d="M305 623 c-55 -13 -22 -18 103 -15 75 2 151 2 167 0 l30 -4 -27 -12
c-35 -15 -36 -28 -1 -26 24 1 63 35 63 55 0 9 -298 11 -335 2z"/>
<path d="M1005 549 c-4 -6 -5 -13 -2 -16 7 -7 27 6 27 18 0 12 -17 12 -25 -2z"/>
<path d="M3232 715 c-40 -32 -46 -33 -129 -34 -47 -1 -89 -3 -91 -6 -3 -3 31
-5 76 -5 45 0 82 -3 82 -7 0 -5 -30 -39 -65 -76 -36 -38 -65 -73 -65 -77 0 -5
-7 -6 -17 -3 -11 4 -14 3 -9 -5 15 -25 -4 -49 -42 -55 -20 -3 -53 -9 -72 -13
-32 -7 -34 -6 -21 10 20 24 92 80 90 70 -4 -26 4 -23 26 10 43 63 28 83 -38
50 -62 -31 -99 -65 -94 -85 6 -22 -12 -37 -23 -19 -6 9 -14 8 -34 -5 -38 -25
-186 -32 -186 -9 0 13 -8 15 -42 10 -24 -3 -52 -7 -63 -9 -11 -1 -38 -21 -59
-44 -21 -24 -44 -43 -50 -43 -6 0 -29 -9 -51 -20 -22 -11 -41 -20 -43 -20 -7
0 35 68 78 125 95 127 120 176 90 182 -9 2 -48 -34 -94 -86 -59 -66 -90 -94
-122 -106 -24 -9 -48 -14 -54 -10 -17 10 -11 30 12 40 48 21 88 114 74 170 -7
27 -26 35 -26 11 0 -8 -27 -53 -60 -99 -61 -85 -85 -102 -131 -90 -54 14 -7
120 64 146 7 2 9 8 5 12 -13 14 -54 -4 -91 -40 -30 -29 -37 -43 -37 -74 0 -50
19 -65 89 -71 52 -5 56 -7 56 -30 0 -24 -3 -25 -68 -28 -78 -3 -117 -15 -117
-37 0 -25 46 -28 109 -6 46 16 67 18 86 11 15 -6 42 -10 61 -10 27 0 34 -4 34
-20 0 -13 7 -20 19 -20 26 0 169 78 180 98 5 9 13 14 17 10 3 -4 18 2 33 13
22 18 26 18 29 6 5 -23 213 -18 258 6 31 16 32 16 37 -5 5 -19 11 -20 72 -16
62 5 65 5 51 -11 -19 -20 -21 -41 -5 -41 6 0 28 9 48 20 20 11 62 28 94 39 45
15 57 17 57 6 0 -8 4 -17 10 -20 15 -9 110 36 110 52 0 10 -6 13 -15 9 -43
-17 -47 -16 -17 9 17 14 32 36 32 47 l0 21 -22 -20 c-27 -24 -68 -46 -127 -68
-46 -17 -65 -13 -40 8 9 6 35 37 59 67 25 30 64 75 87 100 35 36 43 52 43 83
0 20 -1 37 -2 36 -2 0 -22 -15 -46 -34z m-32 -83 c0 -4 -10 -18 -23 -32 -12
-14 -44 -51 -72 -84 -27 -32 -51 -53 -53 -47 -4 13 23 49 90 119 51 53 58 58
58 44z m-947 -94 c-10 -17 -25 -34 -33 -36 -11 -4 -11 0 3 19 9 13 22 35 28
49 7 15 13 20 16 12 3 -7 -4 -26 -14 -44z m113 -63 c-36 -47 -66 -89 -66 -93
0 -4 -20 -8 -45 -9 -57 -3 -58 13 -2 27 23 6 46 12 52 14 5 1 10 9 10 18 0 14
107 139 113 133 2 -2 -26 -42 -62 -90z"/>
<path d="M2585 679 c-33 -4 38 -6 158 -6 119 0 217 4 217 7 0 9 -292 7 -375
-1z"/>
<path d="M3150 300 c-27 -6 -15 -8 48 -9 49 0 82 3 82 9 0 11 -77 11 -130 0z"/>
<path d="M2915 290 c3 -5 15 -10 25 -10 10 0 22 5 25 10 4 6 -7 10 -25 10 -18
0 -29 -4 -25 -10z"/>
<path d="M2490 280 c0 -6 24 -10 53 -9 41 1 47 3 27 9 -36 12 -80 12 -80 0z"/>
<path d="M2160 270 c0 -5 9 -10 20 -10 11 0 20 5 20 10 0 6 -9 10 -20 10 -11
0 -20 -4 -20 -10z"/>
<path d="M2618 273 c7 -3 16 -2 19 1 4 3 -2 6 -13 5 -11 0 -14 -3 -6 -6z"/>
<path d="M1450 260 c0 -5 5 -10 10 -10 6 0 10 5 10 10 0 6 -4 10 -10 10 -5 0
-10 -4 -10 -10z"/>
<path d="M1486 261 c5 -4 32 -5 59 -1 l50 7 -59 2 c-35 0 -56 -3 -50 -8z"/>
<path d="M1408 253 c7 -3 16 -2 19 1 4 3 -2 6 -13 5 -11 0 -14 -3 -6 -6z"/>
</g>
</svg>
