<?xml version="1.0" standalone="no"?>
<!DOCTYPE svg PUBLIC "-//W3C//DTD SVG 20010904//EN"
 "http://www.w3.org/TR/2001/REC-SVG-20010904/DTD/svg10.dtd">
<svg version="1.0" xmlns="http://www.w3.org/2000/svg"
 width="285.000000pt" height="331.000000pt" viewBox="0 0 285.000000 331.000000"
 preserveAspectRatio="xMidYMid meet">
<metadata>
Created by potrace 1.16, written by Peter Selinger 2001-2019
</metadata>
<g transform="translate(0.000000,331.000000) scale(0.100000,-0.100000)"
fill="#000000" stroke="none">
<path d="M121 3274 l-22 -23 -5 -503 c-2 -277 -8 -582 -14 -678 -5 -96 -12
-389 -15 -650 -3 -261 -11 -549 -17 -640 -7 -91 -13 -267 -13 -392 0 -196 -2
-228 -15 -228 -11 -1 -9 -6 7 -19 13 -11 23 -24 23 -29 0 -14 75 -22 190 -20
52 0 141 -3 196 -7 71 -5 104 -4 108 4 4 6 11 9 15 6 18 -11 350 -29 519 -28
152 1 182 -1 182 -13 0 -12 23 -13 153 -7 83 5 235 8 337 8 695 -2 951 -3 996
-4 44 -2 53 2 68 23 20 31 20 36 1 36 -12 0 -15 14 -15 68 0 37 -3 171 -6 297
-8 333 -15 684 -14 730 1 22 1 173 1 335 0 162 5 329 11 370 13 95 18 266 20
800 2 326 0 435 -10 469 -19 60 -30 71 -61 55 -14 -8 -31 -10 -40 -5 -38 20
-128 21 -216 3 -68 -13 -104 -16 -145 -9 -30 4 -140 6 -245 4 -108 -3 -311 2
-470 10 -154 9 -390 16 -525 17 -308 2 -713 17 -720 26 -3 4 -57 10 -120 13
-112 5 -116 4 -139 -19z m65 -96 c-1 -73 -20 -77 -24 -5 -2 43 0 57 11 57 10
0 13 -14 13 -52z m98 -5 c9 -60 8 -111 -4 -93 -5 8 -10 36 -10 63 0 36 -4 47
-16 47 -8 0 -12 5 -9 10 14 22 33 8 39 -27z m50 2 c6 -30 -2 -215 -9 -223 -1
-2 -6 48 -10 110 -3 62 -9 121 -11 131 -3 10 0 17 9 17 9 0 17 -14 21 -35z
m92 -77 c-8 -120 -25 -182 -26 -92 0 28 -3 85 -6 127 -7 75 -6 77 16 77 l23 0
-7 -112z m48 7 c3 -53 2 -84 -3 -75 -10 17 -19 183 -10 172 4 -4 9 -47 13 -97z
m40 73 c10 -37 7 -138 -4 -138 -5 0 -10 19 -10 43 0 23 -3 59 -6 80 -7 40 9
53 20 15z m124 4 c3 -11 0 -12 -16 -3 -34 18 -32 36 -19 -159 6 -82 6 -83 -3
-20 -6 36 -15 91 -20 123 -6 31 -8 62 -4 68 8 14 56 7 62 -9z m200 0 c2 -7 -6
-12 -17 -12 -21 0 -27 11 -14 24 9 9 26 2 31 -12z m258 7 c5 -9 -3 -10 -30 -5
-22 4 -36 3 -36 -3 0 -16 35 -31 73 -31 21 0 37 -6 40 -14 4 -9 14 -12 26 -9
31 8 26 0 -24 -37 -25 -19 -45 -40 -45 -47 0 -21 35 -15 62 10 28 26 95 40
213 43 41 1 87 9 110 19 51 22 190 27 222 7 25 -15 73 -9 73 9 0 7 -9 9 -23 6
-21 -6 -56 7 -47 17 5 5 152 8 296 7 l91 -1 7 -37 c3 -21 10 -105 16 -188 5
-82 12 -174 15 -202 l6 -53 -41 -6 c-23 -4 -44 -13 -47 -20 -3 -9 -24 -11 -76
-7 -40 3 -74 5 -77 5 -23 1 -40 -4 -40 -12 0 -5 17 -10 38 -11 20 0 55 -4 77
-8 l40 -8 -30 -12 c-16 -6 -41 -16 -55 -21 -14 -5 -47 -12 -75 -14 -27 -2 -62
-7 -78 -11 -16 -5 -33 -3 -42 5 -11 9 -30 9 -87 0 -71 -12 -208 -67 -208 -83
0 -10 34 -1 81 23 33 17 130 40 166 40 8 0 11 -4 8 -10 -3 -5 -1 -10 5 -10 24
0 -2 -19 -46 -34 -26 -9 -52 -22 -58 -31 -11 -16 -110 -45 -151 -45 -16 0 -27
-8 -34 -27 l-11 -28 3 33 c3 27 1 32 -12 27 -9 -4 -37 -12 -63 -18 -27 -7 -48
-15 -48 -19 0 -5 -5 -8 -11 -8 -7 0 -17 -7 -24 -17 -8 -11 -14 -13 -19 -5 -4
7 -2 12 3 12 6 0 11 5 11 10 0 20 -21 9 -30 -15 -5 -14 -17 -25 -28 -25 -10 0
-22 -3 -26 -7 -9 -10 -66 -13 -66 -4 0 3 -3 17 -6 31 -6 23 -5 23 7 7 26 -33
93 -4 105 46 4 17 2 27 -5 27 -6 0 -11 -6 -11 -14 0 -13 -59 -51 -67 -43 -8 9
87 86 100 81 8 -3 19 2 26 10 10 12 6 13 -30 5 -23 -6 -54 -18 -69 -29 -15
-11 -30 -17 -33 -13 -4 3 -13 0 -21 -6 -20 -17 -31 6 -45 89 -17 99 -58 317
-80 430 -33 165 -39 203 -34 216 7 18 -37 36 -54 22 -10 -8 -13 -6 -13 6 0 14
16 16 114 16 75 0 117 -4 122 -11z m249 0 c0 -1 59 -3 130 -4 77 -1 138 -6
150 -13 17 -10 11 -11 -37 -12 -33 0 -79 -8 -108 -20 -33 -13 -74 -20 -118
-20 -37 0 -81 -4 -98 -9 -27 -7 -68 1 -54 11 9 6 75 30 98 35 12 3 22 9 22 14
0 13 -29 11 -75 -6 -52 -18 -65 -18 -65 0 0 10 -10 15 -34 15 -19 0 -38 5 -42
11 -4 7 29 9 112 6 66 -3 119 -6 119 -8z m-798 -81 c-2 -18 -4 -6 -4 27 0 33
2 48 4 33 2 -15 2 -42 0 -60z m181 68 c-10 -7 -18 -23 -18 -35 0 -32 -17 -25
-22 9 -5 36 -2 40 31 40 24 -1 24 -2 9 -14z m-350 -156 l-1 -55 -7 55 c-5 30
-8 80 -8 110 l1 55 7 -55 c5 -30 8 -80 8 -110z m1921 141 c16 -1 21 -5 17 -16
-4 -10 3 -17 22 -20 15 -3 43 -10 64 -16 20 -5 80 -7 135 -4 l98 6 38 -36 c20
-19 37 -37 37 -39 0 -6 -74 1 -95 10 -17 7 -18 6 -7 -8 12 -15 8 -17 -32 -23
-26 -4 -57 -5 -71 -3 -14 3 -25 2 -25 -3 0 -12 56 -21 94 -13 26 4 43 2 61
-10 13 -9 36 -16 50 -16 20 0 25 -5 25 -25 0 -26 -14 -33 -26 -14 -4 7 -21 9
-42 5 -25 -4 -41 0 -59 14 -18 14 -30 17 -46 10 -12 -5 -35 -11 -51 -15 -45
-10 -26 -14 24 -5 33 6 50 4 64 -6 11 -8 37 -14 57 -14 26 0 44 -8 66 -29 29
-27 30 -31 22 -80 -4 -28 -9 -105 -10 -171 -2 -66 -5 -120 -8 -120 -11 0 -71
65 -71 77 0 7 -4 13 -8 13 -5 0 -22 24 -37 53 -45 82 -68 116 -60 90 8 -30
-21 -32 -30 -3 -3 11 -11 20 -16 20 -12 0 -12 -17 1 -25 19 -12 11 -26 -9 -15
-13 7 -22 7 -26 0 -3 -5 -26 -10 -51 -10 -31 0 -46 -5 -51 -15 -8 -23 1 -27
33 -15 26 10 31 9 44 -12 8 -12 60 -71 115 -131 55 -59 107 -125 115 -146 8
-21 23 -46 34 -56 13 -13 15 -20 7 -23 -9 -3 -7 -10 5 -23 17 -19 36 -106 27
-122 -5 -8 -58 44 -92 91 -12 18 -27 32 -32 32 -14 0 52 -99 94 -141 l38 -37
-7 -602 -7 -603 -31 -31 c-32 -33 -63 -54 -159 -107 -32 -18 -66 -42 -75 -53
-9 -12 -37 -38 -62 -58 -25 -20 -58 -59 -75 -87 -16 -28 -33 -51 -38 -51 -8 0
-97 136 -97 149 0 5 -6 16 -14 23 -8 8 -25 37 -39 64 -14 27 -40 69 -59 93
-18 24 -49 68 -68 96 -69 103 -96 141 -167 235 -39 52 -94 121 -121 152 -27
31 -71 84 -96 117 -26 33 -56 67 -66 74 -11 8 -32 37 -48 64 -15 28 -29 51
-32 52 -3 1 -15 4 -27 7 -13 4 -23 10 -23 15 0 14 11 11 32 -8 17 -15 18 -15
18 1 0 13 4 15 19 6 12 -6 22 -6 26 -1 3 5 -16 22 -42 37 -31 17 -66 51 -97
92 l-49 66 17 50 c10 28 35 72 56 97 22 26 53 75 71 109 56 111 139 170 279
199 19 4 44 12 55 18 11 6 36 18 55 26 19 9 46 23 60 31 14 7 36 19 50 25 53
25 80 42 80 52 0 6 -3 9 -8 7 -15 -6 -142 -68 -179 -87 -39 -19 -121 -50 -178
-66 -33 -10 -67 -24 -76 -31 -8 -8 -21 -14 -27 -14 -19 0 -81 -72 -112 -130
-17 -30 -53 -81 -80 -114 -28 -32 -59 -78 -70 -102 -11 -23 -24 -46 -30 -49
-7 -4 -7 -12 0 -25 7 -13 7 -21 0 -25 -18 -11 -10 -27 11 -22 16 4 33 -6 70
-45 53 -55 57 -63 34 -72 -8 -3 -15 -2 -15 3 0 5 -17 20 -39 34 -52 34 -111
98 -111 120 0 21 -44 40 -71 32 -26 -8 -25 18 1 54 12 15 22 38 23 50 1 14 30
55 67 95 36 39 98 111 138 159 41 48 84 99 98 114 26 28 25 45 -1 23 -12 -10
-15 -10 -15 3 0 15 21 16 70 5 8 -2 14 3 15 10 0 19 76 60 143 77 91 24 154
47 199 72 23 12 49 23 58 23 8 0 42 11 74 24 41 17 62 21 70 13 12 -12 61 17
61 37 0 8 6 17 13 20 10 5 10 7 0 12 -8 3 -13 26 -13 57 0 29 -7 90 -14 137
-11 68 -23 265 -17 290 0 3 31 5 69 4 37 -2 78 -3 91 -3z m324 -7 c60 -9 32
-24 -46 -25 -191 -3 -215 -1 -203 19 6 10 191 14 249 6z m-1750 -28 c3 -8 1
-16 -4 -18 -13 -4 9 -128 22 -128 5 0 9 -5 9 -11 0 -8 -4 -8 -14 1 -8 6 -20
37 -26 68 -6 31 -13 67 -16 80 -5 25 20 32 29 8z m17 -297 c32 -125 71 -285
85 -356 36 -173 32 -164 60 -157 20 5 25 1 31 -20 3 -14 12 -26 20 -26 16 0
19 -16 5 -24 -5 -4 -11 0 -14 6 -3 10 -8 9 -22 -2 -13 -11 -19 -12 -22 -3 -2
7 -11 9 -18 7 -9 -4 -16 4 -20 23 -3 15 -15 60 -25 100 -11 39 -20 79 -20 89
0 9 -14 65 -31 123 -56 192 -82 305 -80 355 1 30 -4 55 -13 65 -8 9 -17 39
-20 66 l-6 50 16 -34 c8 -19 42 -137 74 -262z m1827 276 c9 -25 -2 -27 -28 -6
l-24 20 23 1 c12 0 25 -7 29 -15z m-2457 -46 c0 -6 -4 -7 -10 -4 -5 3 -10 11
-10 16 0 6 5 7 10 4 6 -3 10 -11 10 -16z m189 -103 c-5 -6 -8 18 -8 55 l2 64
7 -55 c4 -30 3 -59 -1 -64z m134 26 c3 -24 1 -40 -4 -36 -5 3 -9 24 -9 46 0
51 5 47 13 -10z m2122 23 c0 -17 -41 -17 -55 0 -12 15 -10 16 21 13 19 -2 34
-7 34 -13z m-2518 -27 c-3 -8 -6 -5 -6 6 -1 11 2 17 5 13 3 -3 4 -12 1 -19z
m52 -55 c1 -7 -3 -13 -9 -13 -5 0 -10 17 -9 38 1 33 2 34 9 12 4 -14 8 -31 9
-37z m118 0 c-3 -10 -5 -4 -5 12 0 17 2 24 5 18 2 -7 2 -21 0 -30z m563 17 c0
-5 -2 -10 -4 -10 -3 0 -8 5 -11 10 -3 6 -1 10 4 10 6 0 11 -4 11 -10z m-270
-32 c0 -5 -4 -8 -10 -8 -5 0 -10 10 -10 23 0 18 2 19 10 7 5 -8 10 -18 10 -22z
m-413 -85 c-3 -10 -5 -2 -5 17 0 19 2 27 5 18 2 -10 2 -26 0 -35z m-53 -21
c-3 -26 -10 -51 -14 -56 -5 -5 -7 0 -5 10 2 11 4 38 4 62 1 27 5 41 11 37 7
-4 8 -25 4 -53z m404 33 c-3 -3 -9 2 -12 12 -6 14 -5 15 5 6 7 -7 10 -15 7
-18z m-303 -4 c3 -5 1 -12 -5 -16 -5 -3 -10 1 -10 9 0 18 6 21 15 7z m404 -61
c1 -13 0 -13 -9 0 -5 8 -9 26 -9 40 l1 25 8 -25 c4 -14 8 -32 9 -40z m165 -50
l6 -35 -16 35 c-9 19 -18 53 -20 75 l-4 40 14 -40 c7 -22 16 -56 20 -75z
m-257 68 c-3 -7 -5 -2 -5 12 0 14 2 19 5 13 2 -7 2 -19 0 -25z m-120 -8 c10 0
32 -13 48 -30 16 -16 34 -30 39 -30 6 0 3 5 -6 11 -10 5 -18 17 -18 25 0 12 3
12 20 2 17 -11 19 -20 13 -68 -3 -30 -12 -66 -19 -80 l-13 -25 -1 23 c0 13 4
31 9 40 6 12 3 24 -11 42 -16 19 -23 22 -37 13 -20 -13 -34 -6 -44 21 -6 16
-10 16 -24 5 -10 -8 -14 -9 -10 -2 4 6 3 14 -2 17 -5 4 -26 -13 -46 -36 -21
-24 -32 -33 -26 -21 8 17 8 22 -5 27 -28 11 -44 6 -45 -11 -1 -17 -2 -17 -6 0
-7 27 -23 20 -67 -27 -72 -79 -80 -91 -49 -79 17 7 17 6 0 -20 -17 -26 -17
-27 3 -39 22 -14 28 -64 8 -70 -10 -4 -10 -10 0 -32 10 -22 10 -27 0 -23 -7 2
-20 1 -29 -4 -14 -7 -15 4 -13 92 2 55 6 105 11 112 4 6 6 24 4 39 -4 38 7 68
25 68 8 0 13 4 10 9 -9 14 51 31 84 25 22 -5 31 -2 39 15 8 14 21 21 41 21 17
0 30 -4 30 -9 0 -17 40 1 40 18 1 14 2 14 14 -1 7 -10 22 -18 33 -18z m323
-105 c0 -8 -4 -15 -10 -15 -5 0 -10 7 -10 15 0 8 5 15 10 15 6 0 10 -7 10 -15z
m185 -50 c4 -26 3 -35 -3 -25 -5 8 -12 33 -15 55 -4 25 -3 34 3 25 4 -8 11
-33 15 -55z m-378 23 c-3 -8 -6 -5 -6 6 -1 11 2 17 5 13 3 -3 4 -12 1 -19z
m107 -120 c2 -134 -3 -163 -34 -185 -9 -6 -22 -30 -28 -52 -7 -22 -18 -43 -24
-47 -18 -11 -1 69 23 110 11 19 20 43 19 53 -4 31 0 39 10 23 5 -8 12 -12 15
-9 5 6 1 25 -24 124 -4 17 -13 29 -19 28 -16 -4 -15 12 3 47 14 27 45 53 54
45 2 -2 4 -64 5 -137z m53 110 c-3 -8 -6 -5 -6 6 -1 11 2 17 5 13 3 -3 4 -12
1 -19z m102 -21 c1 -5 -3 -5 -9 -2 -5 3 -10 16 -9 28 0 21 1 21 9 2 5 -11 9
-24 9 -28z m-458 -4 c-8 -15 -10 -15 -11 -2 0 17 10 32 18 25 2 -3 -1 -13 -7
-23z m-176 -63 c-4 -12 -9 -19 -12 -17 -3 3 -2 15 2 27 4 12 9 19 12 17 3 -3
2 -15 -2 -27z m145 10 c0 -5 -5 -10 -11 -10 -5 0 -7 5 -4 10 3 6 8 10 11 10 2
0 4 -4 4 -10z m200 -4 c0 -2 -7 -9 -15 -16 -13 -11 -14 -10 -9 4 5 14 24 23
24 12z m1270 -15 c0 -9 -36 -23 -93 -36 -46 -10 -22 13 31 29 58 18 62 18 62
7z m-940 -97 c21 -86 25 -113 12 -98 -14 16 -51 195 -38 183 4 -4 16 -42 26
-85z m-61 -11 c0 -13 -3 -23 -9 -23 -6 0 -9 23 -9 53 1 44 2 48 9 22 4 -16 8
-40 9 -52z m173 32 c3 -14 1 -25 -3 -25 -5 0 -9 6 -9 14 0 8 -3 22 -7 32 -4
11 -3 15 4 11 6 -4 13 -18 15 -32z m-492 21 c0 -2 -7 -9 -15 -16 -13 -11 -14
-10 -9 4 5 14 24 23 24 12z m75 -6 c3 -5 1 -10 -4 -10 -6 0 -11 5 -11 10 0 6
2 10 4 10 3 0 8 -4 11 -10z m2105 -12 c0 -13 -23 -5 -28 10 -2 7 2 10 12 6 9
-3 16 -11 16 -16z m-2133 5 c-3 -5 -7 -30 -11 -58 -3 -27 -17 -90 -31 -140
-27 -98 -30 -119 -15 -110 6 3 10 15 10 26 0 10 5 19 11 19 8 0 10 -16 6 -52
-6 -53 -31 -88 -63 -88 -8 0 -14 -4 -14 -10 0 -5 -12 -16 -27 -25 -18 -10 -21
-14 -8 -11 11 3 32 8 48 12 15 3 32 14 37 23 8 14 9 13 10 -6 0 -21 -10 -28
-33 -24 -4 0 -30 -10 -59 -24 -63 -31 -82 -32 -73 -6 3 11 2 28 -3 38 -6 10
-15 29 -21 43 -9 21 -10 16 -5 -27 l6 -52 -67 34 c-36 19 -77 35 -91 35 -13 0
-24 5 -24 10 0 6 -7 10 -16 10 -13 0 -14 13 -8 98 4 53 7 114 8 135 1 36 9 47
21 27 3 -5 15 -10 27 -10 15 0 19 5 15 20 -3 11 -1 20 3 20 5 0 12 -16 16 -35
3 -20 12 -35 20 -35 8 0 14 -7 14 -16 0 -9 6 -14 13 -11 6 2 26 -2 44 -10 18
-7 40 -13 50 -12 14 0 13 2 -4 9 -31 13 -29 28 5 36 65 14 162 46 162 54 0 26
-146 2 -187 -31 -13 -12 -28 5 -18 21 3 6 0 10 -7 11 -7 0 0 5 16 9 16 5 40 7
55 4 19 -4 44 7 99 42 39 26 72 51 72 56 0 4 5 8 11 8 5 0 8 -3 6 -7z m-370
-35 c-3 -8 -6 -5 -6 6 -1 11 2 17 5 13 3 -3 4 -12 1 -19z m395 -10 c-8 -8 -9
-4 -5 13 4 13 8 18 11 10 2 -7 -1 -18 -6 -23z m-322 12 c0 -5 -7 -10 -15 -10
-8 0 -15 5 -15 10 0 6 7 10 15 10 8 0 15 -4 15 -10z m119 6 c-11 -9 -69 -15
-64 -6 3 6 20 10 37 10 17 0 29 -2 27 -4z m61 -6 c-8 -5 -19 -10 -25 -10 -5 0
-3 5 5 10 8 5 20 10 25 10 6 0 3 -5 -5 -10z m140 -95 c-6 -22 -14 -85 -20
-140 -13 -128 -19 -165 -28 -165 -10 0 -6 54 7 105 6 22 11 54 11 72 0 26 -3
31 -16 26 -12 -4 -15 -2 -12 8 3 8 10 13 16 12 6 -1 16 29 23 68 7 38 16 66
20 62 4 -4 4 -26 -1 -48z m-423 23 c-3 -8 -6 -5 -6 6 -1 11 2 17 5 13 3 -3 4
-12 1 -19z m1188 12 c-3 -5 -11 -10 -16 -10 -6 0 -7 5 -4 10 3 6 11 10 16 10
6 0 7 -4 4 -10z m-1075 -32 c0 -16 -30 -7 -39 11 -10 17 -9 18 14 7 14 -6 25
-14 25 -18z m540 2 c0 -11 -7 -20 -15 -20 -27 0 -18 30 13 39 1 1 2 -8 2 -19z
m49 -60 c0 -33 -4 -62 -10 -65 -5 -4 -9 21 -9 59 0 36 4 66 9 66 5 0 10 -27
10 -60z m-569 41 c0 -5 -7 -11 -15 -15 -15 -5 -20 5 -8 17 9 10 23 9 23 -2z
m408 -16 c-6 -14 -13 -23 -15 -21 -5 5 15 46 22 46 3 0 -1 -11 -7 -25z m549
-27 c-3 -7 -5 -2 -5 12 0 14 2 19 5 13 2 -7 2 -19 0 -25z m-361 -115 c-4 -76
-12 -158 -16 -183 -7 -34 -8 -22 -5 49 3 52 5 134 5 183 0 59 4 88 11 88 9 0
10 -36 5 -137z m53 55 c1 -27 -3 -48 -9 -48 -6 0 -10 29 -9 68 1 77 17 59 18
-20z m233 60 c-7 -7 -12 -8 -12 -2 0 14 12 26 19 19 2 -3 -1 -11 -7 -17z m-42
-8 c0 -11 -7 -20 -15 -20 -18 0 -19 12 -3 28 16 16 18 15 18 -8z m-318 -57
l-10 -38 -1 50 c-1 36 2 46 10 38 8 -8 8 -22 1 -50z m536 27 c-7 -10 -14 -18
-15 -16 -6 6 9 36 18 36 5 0 4 -9 -3 -20z m-181 -37 c-3 -10 -5 -2 -5 17 0 19
2 27 5 18 2 -10 2 -26 0 -35z m-390 -15 c-2 -13 -4 -5 -4 17 -1 22 1 32 4 23
2 -10 2 -28 0 -40z m295 10 c-7 -7 -12 -8 -12 -2 0 14 12 26 19 19 2 -3 -1
-11 -7 -17z m37 -22 c-9 -8 -10 -7 -5 7 3 10 7 24 7 30 1 7 3 4 6 -7 3 -10 -1
-23 -8 -30z m-79 14 c0 -5 -4 -10 -10 -10 -5 0 -10 5 -10 10 0 6 5 10 10 10 6
0 10 -4 10 -10z m-289 -76 c1 -149 -1 -185 -12 -179 -10 7 -11 229 -1 248 9
17 12 -3 13 -69z m-91 37 c0 -11 -4 -23 -10 -26 -6 -4 -10 5 -10 19 0 14 5 26
10 26 6 0 10 -9 10 -19z m49 -23 c0 -18 -4 -55 -9 -83 -7 -47 -7 -45 -9 33 0
49 3 82 9 82 6 0 10 -15 9 -32z m-89 -62 c0 -41 -4 -78 -10 -81 -6 -4 -10 23
-10 74 0 47 4 81 10 81 6 0 10 -31 10 -74z m643 49 c-3 -9 -8 -14 -10 -11 -3
3 -2 9 2 15 9 16 15 13 8 -4z m-286 -27 c-3 -7 -5 -2 -5 12 0 14 2 19 5 13 2
-7 2 -19 0 -25z m-330 -45 c-3 -10 -5 -4 -5 12 0 17 2 24 5 18 2 -7 2 -21 0
-30z m470 -15 c-3 -8 -6 -5 -6 6 -1 11 2 17 5 13 3 -3 4 -12 1 -19z m-899 -23
c-3 -3 -9 2 -12 12 -6 14 -5 15 5 6 7 -7 10 -15 7 -18z m52 0 c11 -13 10 -14
-4 -9 -9 3 -16 10 -16 15 0 13 6 11 20 -6z m567 -17 c-3 -7 -5 -2 -5 12 0 14
2 19 5 13 2 -7 2 -19 0 -25z m-687 -10 c0 -18 -2 -20 -9 -8 -6 8 -7 18 -5 22
9 14 14 9 14 -14z m486 -45 c-7 -80 -23 -161 -25 -124 -1 30 21 191 27 191 2
0 2 -30 -2 -67z m381 15 c-3 -7 -5 -2 -5 12 0 14 2 19 5 13 2 -7 2 -19 0 -25z
m127 -5 c-36 -53 -40 -54 -15 -5 12 23 26 42 31 42 5 0 -2 -17 -16 -37z m-874
12 c0 -8 -2 -15 -4 -15 -2 0 -6 7 -10 15 -3 8 -1 15 4 15 6 0 10 -7 10 -15z
m259 -69 c-9 -8 -10 -5 -5 14 3 14 7 34 7 45 1 11 4 5 6 -14 3 -19 -1 -39 -8
-45z m-166 50 c4 -10 0 -12 -14 -9 -22 6 -26 23 -5 23 8 0 16 -6 19 -14z m57
4 c0 -5 -9 -10 -20 -10 -11 0 -20 5 -20 10 0 6 9 10 20 10 11 0 20 -4 20 -10z
m637 -22 c-3 -7 -5 -2 -5 12 0 14 2 19 5 13 2 -7 2 -19 0 -25z m53 28 c0 -3
-4 -8 -10 -11 -5 -3 -10 -1 -10 4 0 6 5 11 10 11 6 0 10 -2 10 -4z m-895 -120
c6 -56 8 -113 5 -127 -4 -14 -9 12 -13 66 -4 50 -9 110 -12 134 -3 25 -2 41 2
37 4 -4 12 -53 18 -110z m115 75 c0 -14 -5 -18 -20 -14 -23 6 -26 19 -7 26 22
9 27 7 27 -12z m87 -48 c-3 -10 -5 -4 -5 12 0 17 2 24 5 18 2 -7 2 -21 0 -30z
m60 15 c-3 -8 -6 -5 -6 6 -1 11 2 17 5 13 3 -3 4 -12 1 -19z m192 -42 c-9 -8
-10 -5 -5 14 3 14 6 32 7 40 1 8 4 2 6 -14 3 -16 -1 -34 -8 -40z m-399 2 c0
-51 -5 -47 -13 10 -3 24 -1 40 4 36 5 -3 9 -24 9 -46z m437 20 c-3 -7 -5 -2
-5 12 0 14 2 19 5 13 2 -7 2 -19 0 -25z m94 -61 c-13 -13 -15 14 -3 64 l7 34
3 -44 c2 -24 -2 -49 -7 -54z m106 71 c-3 -8 -6 -5 -6 6 -1 11 2 17 5 13 3 -3
4 -12 1 -19z m179 4 c25 -20 65 -80 47 -69 -17 11 -16 2 2 -33 18 -35 42 -42
25 -7 -11 22 -11 22 5 2 9 -11 20 -19 24 -18 4 1 18 -19 31 -45 32 -62 119
-182 132 -182 6 0 4 8 -5 18 -11 13 -12 20 -3 28 8 8 25 -7 64 -55 77 -97 152
-199 152 -209 0 -15 56 -63 65 -55 4 5 5 3 2 -3 -4 -7 2 -14 13 -17 13 -3 18
-11 14 -20 -6 -16 32 -83 60 -106 9 -8 26 -34 36 -57 11 -24 24 -46 30 -49 5
-3 10 -14 10 -23 -1 -31 -67 58 -349 469 -37 54 -57 75 -62 67 -5 -8 -2 -16 6
-21 8 -4 15 -13 15 -18 0 -6 9 -22 20 -36 11 -14 17 -29 14 -34 -3 -5 0 -8 7
-7 6 2 14 -3 17 -11 3 -8 0 -11 -7 -7 -17 11 -13 0 6 -15 14 -12 16 -12 8 0
-5 10 -4 12 4 7 6 -4 9 -11 6 -16 -9 -15 19 -59 112 -175 111 -139 137 -175
129 -182 -9 -10 14 -43 30 -43 11 0 14 -6 10 -16 -7 -18 72 -133 92 -134 6 0
12 3 12 8 0 11 -30 55 -48 69 -32 27 -4 21 38 -7 62 -41 86 -38 61 8 -5 9 -11
31 -14 47 -12 62 -28 105 -41 105 -18 0 -86 84 -86 106 0 9 -11 32 -25 50 -14
18 -25 37 -25 42 0 5 -9 17 -21 28 -23 20 -79 101 -79 112 0 8 -27 45 -74 99
-15 18 -24 33 -19 33 14 0 49 -35 91 -93 22 -29 47 -59 57 -67 9 -8 35 -39 56
-70 21 -30 73 -102 114 -160 42 -58 92 -130 112 -160 20 -30 51 -73 68 -95 29
-37 113 -168 195 -305 20 -32 39 -62 43 -66 9 -10 31 19 61 82 14 28 42 64 62
79 20 15 64 52 97 82 33 29 66 53 73 53 8 0 14 4 14 8 0 5 19 18 42 28 23 10
55 30 70 42 l28 24 0 -61 c0 -47 -3 -61 -15 -61 -19 0 -85 -58 -85 -76 0 -17
-27 -19 -32 -2 -6 18 -62 -28 -112 -91 -24 -31 -64 -78 -90 -106 -28 -31 -44
-56 -40 -66 6 -21 -22 -50 -40 -43 -8 3 -16 -4 -20 -18 -9 -37 -7 -51 8 -45
11 4 14 -4 11 -36 -4 -70 -6 -74 -15 -49 -5 12 -14 22 -21 22 -6 0 -9 -7 -5
-15 3 -8 0 -15 -7 -15 -7 0 -19 -15 -27 -32 -7 -18 -16 -37 -18 -42 -3 -5 7
-6 22 -2 28 7 34 -2 14 -22 -15 -15 -54 -16 -63 -2 -3 6 -16 10 -28 10 -20 0
-19 3 11 26 53 42 44 56 -31 45 -5 0 -6 -5 -3 -10 7 -10 -42 -33 -54 -26 -5 3
-26 -1 -46 -10 -100 -42 -61 15 41 61 36 16 65 32 65 37 0 11 -9 9 -84 -17
-38 -13 -76 -22 -84 -18 -11 4 -14 1 -9 -11 3 -8 -1 -21 -9 -28 -8 -7 -13 -18
-10 -26 4 -10 -15 -13 -94 -13 -115 0 -117 4 -35 65 30 22 57 48 60 57 3 9 21
22 40 28 19 6 35 15 35 19 0 4 -14 29 -32 56 -34 51 -50 47 -24 -7 15 -29 15
-33 0 -41 -9 -5 -23 -19 -33 -30 -9 -12 -45 -49 -81 -84 l-64 -63 -114 0
c-110 0 -115 1 -144 27 -42 39 -138 152 -138 163 0 5 15 17 33 26 17 9 48 30
67 45 19 16 39 29 45 29 6 0 24 -13 40 -30 41 -43 52 -37 16 9 -37 46 -38 55
-8 75 12 9 55 49 96 88 l73 73 44 -48 c49 -54 60 -51 16 3 -15 19 -36 54 -46
78 -19 42 -36 51 -59 32 -35 -28 -96 -80 -141 -121 -28 -26 -99 -79 -158 -118
-59 -39 -122 -84 -140 -99 -18 -16 -41 -32 -52 -35 -27 -11 -155 -120 -155
-134 -1 -21 19 -15 50 17 l30 29 11 -24 c8 -19 8 -28 -2 -40 -18 -22 -4 -32
17 -12 16 13 21 14 43 2 30 -17 60 -19 60 -5 0 6 -6 10 -13 10 -7 0 -22 6 -32
14 -19 14 -19 15 10 27 17 8 52 32 78 54 l49 40 21 -26 c100 -120 117 -142
114 -145 -2 -2 -32 -8 -68 -13 -57 -7 -156 -1 -239 15 -14 2 -74 7 -135 11
-93 5 -114 9 -134 27 -23 20 -23 20 -17 1 5 -19 1 -20 -73 -19 -43 1 -84 5
-92 10 -8 5 -54 52 -102 106 -56 61 -83 98 -75 101 7 3 3 6 -9 6 -13 1 -23 4
-23 9 0 4 -36 45 -80 91 -44 47 -80 88 -80 91 0 4 -13 23 -30 41 -16 19 -30
39 -30 46 0 15 -42 45 -50 35 -3 -5 -18 7 -35 27 -16 19 -24 32 -18 27 15 -8
18 15 4 29 -5 6 -13 81 -17 168 -7 153 -6 157 14 157 19 0 28 -24 35 -97 1
-13 7 -23 13 -23 9 0 10 12 4 80 -1 14 -2 32 -1 41 1 21 79 124 94 124 7 0 18
11 26 25 7 14 20 32 27 40 7 9 25 38 39 65 15 28 33 55 42 62 23 18 7 36 -19
22 -21 -11 -21 -11 1 16 12 16 30 38 41 49 83 87 100 114 100 154 0 22 4 43 9
47 6 3 9 -12 8 -36 -2 -44 20 -68 29 -32 7 25 66 53 184 88 52 15 107 33 121
41 20 10 29 10 38 1 10 -9 14 -8 22 6 6 9 14 15 19 12 5 -3 11 -1 15 5 18 30
81 -7 70 -41 -4 -11 -2 -19 4 -19 17 0 13 60 -5 67 -8 3 -13 12 -10 19 4 9 -2
14 -17 14 -21 0 -20 2 8 25 36 29 35 29 61 7z m-589 -69 c-3 -10 -5 -4 -5 12
0 17 2 24 5 18 2 -7 2 -21 0 -30z m-90 -35 c-2 -13 -4 -3 -4 22 0 25 2 35 4
23 2 -13 2 -33 0 -45z m573 58 c0 -2 -7 -7 -16 -10 -8 -3 -12 -2 -9 4 6 10 25
14 25 6z m-493 -68 c-3 -8 -6 -5 -6 6 -1 11 2 17 5 13 3 -3 4 -12 1 -19z m113
-23 c0 -8 -4 -15 -10 -15 -5 0 -7 7 -4 15 4 8 8 15 10 15 2 0 4 -7 4 -15z
m-410 -23 c0 -15 -2 -15 -10 -2 -13 20 -13 33 0 25 6 -3 10 -14 10 -23z m287
-19 c-3 -10 -5 -4 -5 12 0 17 2 24 5 18 2 -7 2 -21 0 -30z m-217 -45 c0 -7 -5
-20 -10 -28 -8 -12 -10 -9 -10 13 0 15 5 27 10 27 6 0 10 -6 10 -12z m57 -60
c-2 -13 -4 -3 -4 22 0 25 2 35 4 23 2 -13 2 -33 0 -45z m105 11 c-1 -22 -3
-44 -6 -47 -3 -3 -6 19 -6 48 0 29 3 51 6 47 4 -3 6 -25 6 -48z m37 -3 c-9 -8
-10 -7 -5 7 3 10 7 24 7 30 1 7 3 4 6 -7 3 -10 -1 -23 -8 -30z m-272 -3 c-3
-10 -5 -4 -5 12 0 17 2 24 5 18 2 -7 2 -21 0 -30z m90 -50 c-3 -10 -5 -4 -5
12 0 17 2 24 5 18 2 -7 2 -21 0 -30z m1156 -17 c-3 -5 -12 2 -19 15 -20 36
-16 48 5 19 11 -13 17 -29 14 -34z m-1126 -8 c-3 -7 -5 -2 -5 12 0 14 2 19 5
13 2 -7 2 -19 0 -25z m-180 -75 c-2 -21 -4 -6 -4 32 0 39 2 55 4 38 2 -18 2
-50 0 -70z m73 20 c0 -32 -5 -28 -14 10 -4 19 -3 26 4 22 5 -3 10 -18 10 -32z
m67 -10 c-3 -10 -5 -2 -5 17 0 19 2 27 5 18 2 -10 2 -26 0 -35z m1231 14 c26
-39 29 -55 6 -36 -19 15 -47 69 -37 69 5 0 18 -15 31 -33z m-1256 -27 c-2 -22
-9 -43 -14 -47 -10 -6 -3 61 8 79 9 14 10 9 6 -32z m119 -42 c-5 -14 -17 -28
-26 -32 -16 -6 -16 -4 -3 16 8 13 18 29 22 36 13 21 17 7 7 -20z m-223 -154
c-7 -19 -15 -34 -18 -34 -8 0 -10 67 -4 99 l5 24 15 -28 c12 -23 12 -34 2 -61z
m1638 -177 c25 -32 44 -63 41 -70 -2 -7 -9 -1 -17 13 -7 14 -26 41 -42 60 -16
19 -32 40 -36 45 -4 6 -17 23 -30 39 -12 16 -22 33 -22 38 0 6 14 -7 30 -28
17 -22 51 -65 76 -97z m84 -107 c9 -16 8 -18 -5 -14 -10 4 -15 0 -15 -15 0
-18 -3 -20 -19 -9 -17 11 -18 14 -4 35 19 28 29 29 43 3z m843 -248 c-3 -12
-9 -19 -14 -16 -5 3 -4 14 2 25 13 26 20 21 12 -9z m-43 -16 c0 -3 -4 -8 -10
-11 -5 -3 -10 -1 -10 4 0 6 5 11 10 11 6 0 10 -2 10 -4z m-2476 -68 c28 -29
91 -99 139 -156 49 -57 91 -101 94 -98 3 3 0 12 -7 21 -7 8 -9 15 -4 14 5 -1
29 -24 54 -53 24 -28 38 -45 30 -38 -24 21 -32 13 -13 -12 10 -14 28 -27 41
-31 15 -3 30 -21 42 -48 11 -23 20 -36 20 -28 0 11 5 10 20 -4 37 -34 24 -38
-91 -32 -61 3 -112 7 -114 9 -1 2 -6 14 -10 26 -6 22 -5 23 15 12 12 -6 28 -9
36 -6 13 5 12 9 -2 31 -26 40 -9 41 32 1 38 -37 58 -44 69 -26 3 6 -6 15 -21
20 -27 11 -43 26 -87 83 -12 15 -39 46 -60 70 -22 23 -64 74 -95 112 -31 39
-81 96 -111 128 -30 31 -48 57 -41 57 7 0 36 -24 64 -52z m1481 42 c3 -6 -9
-23 -27 -38 -18 -15 -51 -47 -73 -71 -60 -65 -92 -86 -110 -71 -8 7 -15 16
-15 20 0 11 91 98 130 123 77 50 85 54 95 37z m1035 -65 c0 -61 -3 -75 -15
-75 -13 0 -14 4 -4 21 7 14 8 24 1 31 -13 13 -31 2 -42 -26 -4 -13 -24 -30
-44 -40 -19 -9 -38 -21 -41 -26 -10 -16 -38 -12 -31 5 12 32 -15 12 -78 -57
-58 -63 -82 -109 -58 -108 17 1 52 40 52 59 0 13 10 26 24 32 14 7 27 22 30
35 10 36 26 29 26 -12 0 -28 3 -35 15 -30 8 3 15 2 15 -3 0 -15 -29 -33 -45
-27 -8 3 -15 1 -15 -4 0 -5 -9 -12 -20 -15 -12 -4 -20 -15 -20 -29 0 -12 -7
-31 -15 -42 -14 -19 -14 -18 -15 4 0 26 -9 28 -36 7 -27 -20 -36 -19 -29 5 7
21 -10 29 -18 8 -2 -7 -7 -10 -11 -7 -3 3 5 21 18 40 14 19 32 50 41 69 10 19
22 45 27 57 6 12 43 55 82 97 52 54 80 76 104 80 45 8 42 -12 -13 -67 -25 -26
-45 -49 -45 -52 0 -9 34 12 54 33 10 12 23 19 30 16 7 -3 17 6 23 18 30 66 37
78 45 78 4 0 8 -34 8 -75z m-2555 -3 c-3 -3 -11 0 -18 7 -9 10 -8 11 6 5 10
-3 15 -9 12 -12z m19 -83 c-6 -10 -39 5 -49 21 -15 24 8 31 31 9 13 -12 21
-26 18 -30z m88 -37 c11 -18 18 -35 15 -38 -3 -3 -12 8 -21 24 -8 16 -28 45
-43 63 l-27 34 28 -25 c15 -13 36 -40 48 -58z m33 -87 c12 -20 0 -12 -39 27
-31 31 -56 61 -56 68 0 15 72 -57 95 -95z m1144 83 c13 -20 11 -24 -20 -51
-19 -15 -54 -38 -79 -49 -25 -12 -48 -24 -51 -25 -9 -5 -18 33 -10 43 3 5 33
27 66 49 33 22 62 43 63 48 6 13 17 8 31 -15z m1239 -26 c-18 -42 -30 -51 -23
-17 11 49 14 57 25 50 6 -4 5 -16 -2 -33z m-68 18 c0 -5 -4 -10 -10 -10 -5 0
-10 5 -10 10 0 6 5 10 10 10 6 0 10 -4 10 -10z m-2499 -43 c-8 -8 -11 -3 -11
19 1 25 2 27 11 11 8 -14 8 -22 0 -30z m238 -47 l46 -55 -50 44 c-53 45 -78
77 -54 69 7 -2 33 -29 58 -58z m889 -73 c-13 -10 -30 -23 -38 -30 -60 -48
-100 -57 -100 -23 0 15 59 66 76 66 5 0 18 9 27 21 18 20 19 20 38 3 21 -19
21 -19 -3 -37z m-1128 -27 c0 -5 -4 -10 -10 -10 -5 0 -10 5 -10 10 0 6 5 10
10 10 6 0 10 -4 10 -10z m2268 -31 c-19 -19 -34 -27 -40 -21 -6 6 1 18 18 31
41 32 57 25 22 -10z m-253 -109 c-3 -5 -11 -10 -16 -10 -6 0 -7 5 -4 10 3 6
11 10 16 10 6 0 7 -4 4 -10z"/>
<path d="M1919 3137 c10 -27 51 -36 51 -12 0 11 -5 15 -15 11 -8 -3 -15 -1
-15 3 0 5 -7 11 -14 14 -12 5 -13 1 -7 -16z"/>
<path d="M1853 3118 c21 -7 32 -7 40 1 8 8 0 11 -28 10 -40 -1 -40 -1 -12 -11z"/>
<path d="M1840 3064 c-79 -16 -184 -18 -211 -3 -14 7 -30 7 -57 -2 -20 -6 -66
-11 -102 -10 -41 1 -93 -6 -140 -20 -41 -11 -106 -25 -144 -30 -73 -9 -116
-30 -116 -54 0 -16 25 -21 34 -6 3 5 15 7 26 4 14 -4 20 0 20 11 0 13 9 17 43
15 23 0 69 9 101 21 38 14 93 23 150 26 50 3 108 12 128 21 27 11 41 13 50 5
23 -19 129 -19 208 -1 41 10 85 15 98 12 16 -4 22 -1 22 11 0 19 -19 19 -110
0z"/>
<path d="M1770 2976 c0 -9 6 -16 13 -17 6 0 28 -2 47 -5 19 -2 46 -4 60 -5 14
0 32 -5 42 -10 20 -11 48 -2 48 16 0 8 -28 14 -90 19 -50 4 -97 9 -105 12 -9
4 -15 0 -15 -10z"/>
<path d="M1334 2945 c-10 -8 -26 -15 -35 -15 -8 0 -33 -9 -55 -19 -21 -11 -50
-17 -64 -14 -17 3 -35 -4 -57 -23 -49 -40 -43 -54 20 -53 28 1 43 3 32 6 -31
8 -40 20 -26 37 10 12 17 13 31 3 15 -9 27 -7 58 11 22 12 47 22 57 22 9 0 30
10 47 21 27 20 38 21 131 15 56 -4 108 -3 115 2 8 6 -17 11 -70 15 -125 10
-162 8 -184 -8z"/>
<path d="M1656 2863 c-22 -12 -30 -12 -42 -2 -12 10 -20 10 -34 1 -13 -8 -28
-8 -52 -1 -42 12 -166 3 -240 -18 -61 -18 -119 -55 -101 -66 6 -4 21 2 34 12
26 20 33 21 184 46 75 13 107 14 129 6 20 -7 35 -7 49 1 16 8 22 8 25 -1 5
-16 37 -14 52 3 6 8 24 16 38 18 24 3 25 4 6 9 -11 4 -33 0 -48 -8z"/>
<path d="M1755 2870 c-3 -5 -1 -10 4 -10 6 0 11 5 11 10 0 6 -2 10 -4 10 -3 0
-8 -4 -11 -10z"/>
<path d="M1845 2870 c-3 -5 -2 -10 4 -10 5 0 13 5 16 10 3 6 2 10 -4 10 -5 0
-13 -4 -16 -10z"/>
<path d="M1958 2872 c-10 -2 -18 -9 -18 -15 0 -7 -4 -6 -10 3 -5 8 -12 11 -15
8 -12 -12 6 -28 31 -28 14 0 27 7 31 15 7 19 3 22 -19 17z"/>
<path d="M1880 2799 c0 -19 80 -50 108 -43 35 10 26 31 -15 37 -21 4 -50 9
-65 13 -20 5 -28 2 -28 -7z"/>
<path d="M1653 2792 c-13 -2 -23 -7 -23 -11 0 -5 11 -6 24 -4 15 3 41 -4 65
-18 43 -24 68 -22 29 3 -38 23 -72 34 -95 30z"/>
<path d="M1352 2758 c-10 -12 -2 -15 51 -16 34 -1 69 3 77 8 12 7 8 10 -15 10
-16 0 -46 3 -65 6 -25 4 -40 2 -48 -8z"/>
<path d="M1230 2716 c-19 -13 -38 -22 -42 -19 -5 2 -8 -1 -8 -6 0 -6 2 -11 6
-11 11 0 84 45 84 53 0 9 1 10 -40 -17z"/>
<path d="M1533 2600 c-24 -10 -31 -30 -10 -30 6 1 28 9 47 20 32 18 33 19 10
19 -14 0 -35 -4 -47 -9z"/>
<path d="M1373 2544 c-3 -8 -23 -22 -44 -31 -35 -14 -53 -33 -30 -33 14 0 114
47 136 64 26 20 12 20 -28 -1 -30 -15 -31 -15 -18 0 9 12 10 17 2 17 -6 0 -14
-7 -18 -16z"/>
<path d="M1435 2449 c-25 -6 -22 -7 20 -8 28 0 57 4 65 9 17 11 -35 11 -85 -1z"/>
<path d="M1256 2425 c-30 -23 -15 -25 24 -5 26 14 30 19 15 19 -11 0 -29 -6
-39 -14z"/>
<path d="M2260 3120 c0 -5 7 -10 15 -10 8 0 15 5 15 10 0 6 -7 10 -15 10 -8 0
-15 -4 -15 -10z"/>
<path d="M2280 3058 c0 -11 34 -15 59 -6 12 5 44 6 70 3 36 -4 41 -3 23 5 -25
11 -152 9 -152 -2z"/>
<path d="M2373 3008 c20 -7 35 -7 50 0 18 9 14 11 -28 11 -46 -1 -48 -1 -22
-11z"/>
<path d="M2280 3000 c0 -5 9 -10 19 -10 11 0 23 5 26 10 4 6 -5 10 -19 10 -14
0 -26 -4 -26 -10z"/>
<path d="M2215 2940 c-4 -6 6 -10 22 -10 22 0 25 2 13 10 -19 12 -27 12 -35 0z"/>
<path d="M2462 2874 c-36 -10 -59 -11 -72 -4 -21 11 -101 -9 -108 -28 -5 -17
24 -15 51 3 18 12 29 12 53 4 23 -9 39 -8 74 4 33 11 50 12 65 4 11 -5 36 -9
56 -9 21 1 50 -5 66 -13 36 -19 63 -19 63 0 0 9 -9 15 -24 15 -14 0 -28 5 -31
10 -3 6 -26 10 -50 10 -24 0 -54 4 -67 9 -15 5 -42 3 -76 -5z"/>
<path d="M2228 2693 c-29 -7 -20 -23 13 -23 19 0 29 4 27 12 -5 14 -17 17 -40
11z"/>
<path d="M2350 2551 c-8 -5 -51 -14 -94 -20 -44 -6 -82 -14 -85 -17 -3 -3 36
-4 88 -2 82 4 96 7 102 24 4 10 8 14 8 7 1 -6 46 -57 101 -113 55 -56 100
-105 100 -111 0 -5 4 -9 10 -9 31 0 -34 81 -137 171 -10 9 -26 30 -35 48 -17
32 -32 37 -58 22z"/>
<path d="M2083 2493 c-14 -5 -18 -23 -5 -23 5 0 17 7 28 15 14 11 15 14 4 14
-8 0 -21 -3 -27 -6z"/>
<path d="M2360 2292 c-19 -15 -42 -34 -50 -43 -8 -9 -27 -16 -42 -16 -17 0
-42 -13 -63 -32 -20 -17 -42 -31 -50 -31 -7 0 -22 -11 -32 -24 -17 -21 -21
-22 -29 -9 -8 13 -16 7 -47 -31 -35 -42 -38 -65 -4 -31 8 8 17 11 20 8 7 -7
59 25 69 43 5 7 17 10 28 7 12 -3 22 1 26 11 3 9 13 16 20 16 8 0 19 11 24 25
11 29 16 30 37 10 14 -14 17 -14 34 1 10 9 21 25 25 36 4 12 12 17 23 13 11
-3 25 5 40 26 31 42 14 53 -29 21z"/>
<path d="M2442 2256 c-29 -30 -67 -60 -85 -66 -17 -6 -45 -28 -62 -49 -20 -25
-36 -36 -47 -33 -12 3 -21 -5 -29 -22 -14 -30 -3 -49 14 -26 7 8 22 14 35 12
14 -2 22 2 22 12 0 8 9 17 19 21 10 3 22 17 25 30 4 16 13 25 26 25 22 0 150
124 150 146 0 14 -23 -3 -68 -50z"/>
<path d="M1925 2270 c-4 -6 -11 -8 -16 -4 -6 3 -20 -3 -32 -14 -12 -11 -32
-23 -44 -27 -13 -3 -23 -13 -23 -20 0 -12 5 -12 28 -3 15 6 34 20 44 30 10 11
23 16 33 12 16 -6 34 9 35 29 0 11 -18 9 -25 -3z"/>
<path d="M2498 2209 c-10 -5 -18 -15 -18 -21 0 -5 -20 -33 -45 -60 -25 -28
-45 -59 -45 -69 0 -28 8 -23 27 18 25 53 48 55 47 4 -1 -44 -26 -91 -49 -91
-7 0 -17 -10 -21 -22 -14 -46 -47 -78 -86 -84 -36 -6 -77 -38 -65 -50 4 -4 15
4 26 17 l20 24 1 -27 c0 -34 17 -36 31 -4 7 14 17 22 25 19 8 -3 18 6 25 21 7
14 18 26 26 26 7 0 13 8 13 18 0 21 46 69 57 59 3 -4 0 -19 -7 -34 -8 -18 -15
-105 -21 -243 -12 -312 -16 -348 -42 -352 -12 -2 -23 -11 -25 -20 -2 -12 2
-15 15 -12 13 4 21 -4 31 -28 11 -30 10 -35 -13 -58 -20 -20 -25 -21 -25 -8 0
10 -9 22 -21 28 -11 7 -18 18 -15 25 8 21 -10 28 -34 13 -23 -15 -28 -43 -5
-34 9 3 15 0 15 -8 0 -7 11 -19 25 -26 14 -7 25 -17 25 -21 0 -3 -17 -19 -37
-35 -51 -38 -163 -145 -163 -156 0 -22 38 -3 64 32 17 22 45 52 64 67 18 16
53 45 76 66 48 41 56 44 56 22 0 -26 29 -75 44 -75 19 0 26 23 26 90 0 40 5
61 16 71 11 9 14 22 10 42 -3 17 -2 35 3 41 5 6 16 148 25 316 9 168 19 314
22 325 3 11 7 51 10 88 5 62 3 71 -17 93 -24 26 -44 29 -71 13z m46 -45 c8
-21 8 -21 -13 -27 -26 -6 -33 1 -20 24 12 23 25 24 33 3z m-8 -206 c-4 -40 -9
-124 -11 -186 -2 -62 -7 -117 -9 -121 -3 -4 -10 -58 -16 -119 -10 -111 -34
-192 -50 -176 -5 5 -5 26 0 49 5 22 10 74 10 116 0 99 8 139 26 132 11 -4 14
8 14 53 0 33 5 97 12 143 9 67 9 87 -2 104 -9 15 -10 22 -1 25 6 2 11 15 11
28 0 13 5 24 11 24 8 0 9 -22 5 -72z m-36 -78 c0 -16 -4 -30 -10 -30 -5 0 -10
14 -10 30 0 17 5 30 10 30 6 0 10 -13 10 -30z m-34 -587 c-10 -10 -19 5 -10
18 6 11 8 11 12 0 2 -7 1 -15 -2 -18z"/>
<path d="M1694 2145 c-23 -28 -34 -34 -52 -30 -30 7 -52 -10 -52 -41 0 -12 -5
-26 -10 -29 -6 -4 -10 -14 -9 -23 4 -42 0 -45 -42 -38 -38 6 -41 5 -36 -14 3
-11 0 -23 -7 -28 -21 -12 -25 -38 -14 -83 14 -56 23 -66 43 -49 12 10 16 27
13 64 -3 48 -2 51 22 51 16 0 26 6 28 19 2 10 13 34 23 53 10 18 19 45 19 58
0 27 9 32 28 13 9 -9 17 -5 36 15 35 37 56 69 56 84 0 22 -15 14 -46 -22z"/>
<path d="M2165 2079 c-4 -6 -5 -13 -2 -16 7 -7 27 6 27 18 0 12 -17 12 -25 -2z"/>
<path d="M1760 2040 c-11 -11 -20 -29 -20 -40 0 -15 -7 -20 -25 -20 -15 0 -31
-10 -41 -26 -9 -14 -29 -31 -45 -39 -19 -11 -26 -20 -22 -34 3 -11 -3 -27 -15
-39 -22 -22 -31 -60 -19 -80 10 -15 27 -6 27 15 0 8 9 26 20 40 11 14 20 36
20 49 0 15 6 24 16 24 8 0 20 14 25 30 9 24 17 30 38 30 23 0 31 7 46 39 10
22 24 42 31 45 8 3 14 10 14 16 0 17 -29 11 -50 -10z"/>
<path d="M1970 2041 c-17 -33 -11 -48 10 -22 11 13 20 27 20 32 0 16 -19 9
-30 -10z"/>
<path d="M2073 2024 c-17 -19 -35 -46 -42 -60 -39 -84 -36 -79 -39 -56 -4 28
-13 28 -41 -2 -13 -13 -33 -27 -45 -30 -13 -3 -28 -16 -34 -30 -9 -21 -8 -23
9 -19 10 3 19 9 19 14 0 5 7 9 15 9 8 0 15 -7 15 -15 0 -25 16 -17 60 28 59
58 115 137 124 170 9 37 -4 34 -41 -9z"/>
<path d="M2335 2040 c-10 -11 -30 -20 -45 -20 -28 0 -52 -31 -31 -38 6 -2 11
-13 11 -24 0 -28 21 -17 43 23 10 19 28 44 40 57 11 12 16 22 10 22 -5 0 -18
-9 -28 -20z"/>
<path d="M1916 2013 c-8 -24 -73 -83 -91 -83 -27 0 -64 -27 -69 -50 -2 -14
-16 -38 -30 -53 -14 -16 -26 -37 -26 -48 0 -13 -7 -19 -22 -19 -24 -1 -82 -66
-72 -81 10 -16 22 -9 42 25 16 27 25 33 42 29 28 -7 60 23 60 58 0 15 4 29 8
31 5 2 15 17 23 33 9 18 23 31 37 33 13 2 26 10 29 18 3 8 14 14 24 14 10 0
19 5 19 11 0 6 9 24 21 40 11 16 19 37 17 47 -4 14 -5 13 -12 -5z"/>
<path d="M2105 1911 c-11 -5 -29 -20 -40 -35 -11 -14 -25 -26 -31 -26 -6 0
-21 -23 -34 -50 -18 -39 -27 -49 -42 -44 -30 9 -84 -40 -98 -91 -11 -40 -47
-79 -73 -80 -5 0 -15 -9 -23 -19 -12 -17 -14 -18 -14 -3 0 23 -13 21 -36 -4
-18 -20 -18 -21 1 -35 27 -20 46 -17 52 7 3 12 11 18 19 15 8 -3 20 7 29 24 9
17 22 30 29 30 15 0 26 21 26 47 0 9 10 26 23 37 12 12 28 31 35 42 11 17 12
17 2 -3 -15 -33 7 -40 37 -12 14 13 34 43 45 67 11 23 23 42 27 42 11 0 101
82 101 91 0 11 -8 10 -35 0z"/>
<path d="M2215 1843 c-4 -16 -25 -43 -46 -62 -38 -32 -39 -33 -39 -10 0 29
-15 14 -24 -23 -5 -20 -3 -28 7 -28 25 0 77 31 93 55 20 31 34 84 24 90 -5 3
-11 -7 -15 -22z"/>
<path d="M1781 1745 c-34 -64 -60 -89 -41 -40 7 19 6 25 -4 25 -8 0 -19 -15
-25 -33 -6 -18 -21 -37 -33 -42 -30 -14 -33 -32 -6 -40 17 -6 26 -2 36 14 8
11 19 21 25 21 18 0 75 69 79 98 3 15 9 35 13 45 4 9 3 17 -1 17 -5 0 -25 -29
-43 -65z"/>
<path d="M2019 1656 c-15 -13 -32 -33 -38 -45 -7 -12 -17 -20 -24 -19 -7 2
-26 -7 -44 -20 -17 -12 -37 -22 -45 -22 -7 0 -21 -18 -31 -39 -12 -28 -23 -37
-40 -37 -18 1 -23 -5 -25 -31 -2 -20 1 -33 8 -33 15 0 67 55 75 80 4 11 12 17
21 13 7 -3 14 -1 14 4 0 5 13 24 29 43 16 19 29 28 28 20 -3 -25 17 -25 30 0
7 14 28 41 48 62 19 21 35 40 35 43 0 11 -16 3 -41 -19z"/>
<path d="M2140 1605 c0 -8 5 -15 10 -15 6 0 10 7 10 15 0 8 -4 15 -10 15 -5 0
-10 -7 -10 -15z"/>
<path d="M1535 1560 c3 -5 8 -10 11 -10 2 0 4 5 4 10 0 6 -5 10 -11 10 -5 0
-7 -4 -4 -10z"/>
<path d="M2064 1555 c-8 -19 -72 -56 -76 -43 -2 5 -18 -13 -37 -41 -32 -50
-71 -83 -71 -61 0 5 -3 10 -7 10 -10 0 -34 -52 -28 -58 10 -10 79 34 94 61 9
15 24 30 34 33 9 3 17 11 17 17 0 7 19 21 43 32 51 24 78 46 71 57 -8 13 -34
9 -40 -7z"/>
<path d="M2207 1513 c-11 -10 -9 -16 17 -46 28 -32 41 -30 48 8 4 18 0 29 -13
35 -21 12 -43 13 -52 3z"/>
<path d="M2140 1445 c-7 -8 -10 -23 -7 -34 2 -11 -4 -32 -14 -48 l-19 -28 6
33 c4 18 2 32 -3 32 -13 0 -43 -34 -43 -48 0 -16 17 -15 23 1 3 7 6 5 6 -5 1
-19 31 -26 31 -8 0 6 7 10 15 10 10 0 15 11 15 35 0 36 13 47 24 19 5 -13 9
-14 21 -4 16 13 21 55 6 45 -5 -3 -12 -1 -16 5 -9 15 -31 12 -45 -5z"/>
<path d="M2287 1430 c-6 -16 -17 -30 -23 -30 -7 0 -14 -8 -16 -17 -2 -10 -12
-18 -22 -18 -24 0 -33 -23 -12 -31 27 -10 66 5 78 31 15 32 30 32 22 0 -7 -27
4 -33 24 -13 17 17 15 65 -5 88 -24 27 -33 25 -46 -10z"/>
<path d="M1995 1316 c-22 -16 -13 -51 10 -42 10 4 15 -1 15 -14 0 -25 11 -25
38 0 27 26 28 44 3 37 -13 -3 -21 1 -24 14 -6 22 -17 24 -42 5z"/>
<path d="M2160 1305 c-15 -18 -2 -37 27 -41 27 -4 34 18 13 38 -23 22 -24 22
-40 3z"/>
<path d="M2070 1251 c-16 -32 -13 -50 10 -44 14 4 20 0 20 -12 0 -20 19 -16
34 8 8 12 5 22 -14 42 -28 30 -36 31 -50 6z"/>
<path d="M2237 1235 c-20 -15 -23 -39 -3 -32 9 4 16 -3 20 -19 7 -25 30 -32
41 -13 11 16 -3 57 -23 68 -12 6 -23 5 -35 -4z"/>
<path d="M1996 1181 c-13 -21 17 -71 43 -71 17 0 22 4 17 16 -3 9 -6 22 -6 30
0 9 -5 12 -11 9 -6 -4 -16 1 -23 11 -9 12 -15 14 -20 5z"/>
<path d="M2150 1160 c-14 -26 -4 -43 21 -37 12 3 19 0 19 -8 0 -20 21 -30 31
-14 5 8 9 24 9 37 0 19 -4 22 -20 17 -13 -4 -22 -1 -26 9 -8 22 -21 20 -34 -4z"/>
<path d="M187 2313 c-9 -9 -9 -43 1 -43 4 0 12 11 19 25 9 19 8 25 -1 25 -7 0
-16 -3 -19 -7z"/>
<path d="M1084 1711 c-6 -31 -31 -41 -101 -41 -18 0 -62 -9 -96 -20 -34 -11
-78 -25 -97 -31 -19 -6 -53 -28 -75 -50 -22 -21 -52 -42 -66 -48 -30 -11 -112
-112 -134 -165 -8 -20 -29 -51 -45 -70 -17 -18 -40 -53 -51 -77 -39 -82 -51
-104 -74 -129 -13 -14 -33 -49 -45 -78 -15 -35 -27 -51 -36 -48 -10 4 -14 -3
-14 -21 0 -15 -9 -36 -20 -48 -22 -23 -17 -35 22 -52 17 -8 26 -18 22 -26 -5
-14 47 -72 65 -72 5 0 37 -35 70 -77 34 -43 66 -78 71 -78 15 0 12 26 -5 40
-8 7 -38 44 -67 84 -28 39 -76 97 -107 129 -35 35 -49 57 -39 57 9 0 33 34 62
93 26 50 60 110 76 132 16 22 31 51 35 63 3 13 10 29 15 35 20 24 77 113 95
147 32 62 79 118 117 139 20 12 48 35 62 51 13 17 29 30 35 30 5 0 22 6 38 14
15 8 48 20 73 26 25 6 61 16 82 22 20 6 52 8 72 4 29 -6 43 -2 66 14 l30 21
57 -63 c32 -35 70 -75 85 -89 15 -14 53 -66 85 -116 32 -49 64 -98 71 -108 7
-11 25 -40 40 -64 34 -54 93 -123 100 -116 3 3 -2 13 -12 24 -9 10 -16 25 -14
32 2 9 -4 13 -17 11 -16 -2 -17 -1 -6 7 12 8 7 19 -25 63 -22 29 -48 66 -58
82 -11 17 -29 40 -42 53 -13 13 -36 44 -51 71 -15 26 -39 57 -53 69 -14 12
-54 62 -90 112 -70 96 -96 112 -106 62z"/>
<path d="M1270 1489 c0 -17 27 -45 35 -37 3 3 -3 16 -14 29 -16 19 -20 20 -21
8z"/>
<path d="M1020 1385 c0 -8 4 -15 9 -15 5 0 11 7 15 15 3 9 0 15 -9 15 -8 0
-15 -7 -15 -15z"/>
<path d="M1151 1376 c-8 -10 -9 -16 -1 -21 13 -8 30 3 30 21 0 18 -14 18 -29
0z"/>
<path d="M980 1339 c-8 -5 -28 -9 -43 -9 -51 0 -96 -26 -114 -67 -25 -55 -41
-72 -64 -66 -25 7 -59 -23 -59 -52 0 -12 -13 -31 -31 -44 -17 -13 -35 -36 -41
-52 -5 -16 -17 -29 -25 -29 -22 0 -83 -65 -83 -88 0 -10 -11 -31 -25 -46 -32
-35 -58 -84 -50 -96 11 -18 21 -10 34 25 7 19 19 35 27 35 8 0 17 8 20 18 25
77 46 110 76 123 17 7 41 29 55 50 14 21 34 41 44 44 10 4 22 18 25 33 11 51
13 54 40 49 19 -3 32 3 55 27 16 17 29 40 29 51 0 26 51 57 88 55 44 -3 51 -1
62 19 12 23 1 34 -20 20z"/>
<path d="M1150 1308 c-24 -51 -24 -48 -2 -48 29 0 55 70 32 85 -5 3 -18 -13
-30 -37z"/>
<path d="M1010 1250 c-30 -12 -52 -29 -68 -55 -16 -25 -28 -35 -39 -31 -9 4
-37 -12 -73 -44 -32 -27 -65 -50 -73 -50 -9 0 -18 -8 -22 -19 -3 -10 -14 -26
-25 -36 -24 -22 -26 -35 -4 -35 9 0 39 23 67 50 28 28 53 50 56 50 3 0 14 14
23 31 14 23 23 29 37 24 14 -4 32 6 67 40 26 25 63 50 81 57 32 12 41 23 26
31 -5 2 -28 -4 -53 -13z"/>
<path d="M1280 1230 c-14 -26 -3 -45 16 -29 16 13 19 49 4 49 -5 0 -14 -9 -20
-20z"/>
<path d="M1161 1211 c-6 -10 -7 -21 -4 -25 9 -8 33 14 33 30 0 20 -18 17 -29
-5z"/>
<path d="M1316 1155 c-10 -8 -23 -12 -27 -9 -11 7 -31 -45 -25 -63 8 -20 26
-15 26 7 0 13 13 28 35 41 35 21 46 39 23 39 -7 0 -22 -7 -32 -15z"/>
<path d="M1185 1150 c-3 -5 -24 -14 -46 -20 -50 -14 -122 -62 -149 -101 -12
-16 -36 -37 -53 -46 -42 -21 -51 -34 -92 -120 -26 -55 -39 -73 -54 -73 -15 0
-22 -9 -26 -37 -4 -21 -15 -55 -26 -75 -21 -39 -9 -54 13 -18 7 11 18 20 25
20 7 0 13 9 13 19 0 11 5 23 11 26 12 8 89 167 89 184 0 7 29 30 64 52 35 22
66 49 69 59 3 11 13 20 24 20 10 0 23 10 28 21 6 13 29 28 54 36 51 17 91 41
91 54 0 12 -27 11 -35 -1z"/>
<path d="M520 1114 c-6 -14 -10 -28 -10 -31 0 -3 -12 -14 -26 -26 -15 -11 -41
-52 -60 -90 -27 -57 -31 -74 -22 -90 10 -20 11 -20 24 -2 8 10 14 32 14 47 0
16 6 31 14 34 8 3 18 19 21 36 5 19 18 36 36 47 42 23 63 101 28 101 -5 0 -14
-12 -19 -26z"/>
<path d="M960 1093 c-30 -25 -80 -71 -111 -101 -31 -30 -67 -59 -79 -65 -33
-17 -57 -53 -84 -127 -12 -36 -29 -65 -36 -65 -14 0 -28 -28 -29 -58 -1 -12 5
-17 16 -15 19 4 93 139 93 172 0 29 27 66 48 66 17 0 64 40 112 96 32 37 77
74 89 74 10 0 51 52 51 64 0 14 -19 3 -70 -41z"/>
<path d="M1347 1066 c-45 -41 -74 -106 -47 -106 6 0 10 8 10 17 0 9 20 36 45
60 67 64 60 91 -8 29z"/>
<path d="M1590 1070 c0 -19 33 -75 37 -63 2 6 -3 25 -12 42 -16 32 -25 39 -25
21z"/>
<path d="M1226 1055 c-3 -9 0 -15 9 -15 8 0 15 7 15 15 0 8 -4 15 -9 15 -5 0
-11 -7 -15 -15z"/>
<path d="M1639 1035 c17 -34 31 -51 31 -39 0 7 -9 22 -21 35 -16 19 -18 20
-10 4z"/>
<path d="M1420 1019 c0 -24 23 -21 28 4 2 10 -3 17 -12 17 -10 0 -16 -9 -16
-21z"/>
<path d="M1046 925 c-41 -41 -78 -75 -82 -75 -23 -1 -84 -71 -93 -106 -5 -22
-13 -50 -17 -64 -5 -20 1 -17 32 20 22 24 39 51 40 60 0 23 23 60 37 60 15 0
177 157 177 171 0 22 -25 4 -94 -66z"/>
<path d="M1404 942 c-6 -4 -16 -16 -22 -27 -6 -12 -37 -34 -69 -50 -32 -17
-62 -36 -66 -43 -4 -7 -18 -22 -30 -35 -53 -54 -91 -117 -70 -117 10 0 72 69
101 113 13 20 29 37 33 37 16 0 127 80 133 95 3 8 12 15 21 15 8 0 15 5 15 10
0 12 -30 13 -46 2z"/>
<path d="M1215 910 c-10 -11 -21 -17 -26 -14 -4 2 -20 -9 -35 -26 -15 -16 -34
-30 -43 -31 -16 0 -81 -80 -81 -99 0 -19 17 -10 54 28 76 77 99 97 110 97 17
0 66 41 66 54 0 18 -25 13 -45 -9z"/>
<path d="M1705 900 c3 -5 8 -10 11 -10 2 0 4 5 4 10 0 6 -5 10 -11 10 -5 0 -7
-4 -4 -10z"/>
<path d="M580 843 c-45 -44 -65 -97 -34 -91 11 2 23 16 29 36 7 25 17 35 37
39 16 3 28 9 28 13 0 5 3 15 6 24 11 29 -25 17 -66 -21z"/>
<path d="M1487 837 c-2 -7 -29 -25 -58 -40 -71 -37 -103 -63 -95 -82 7 -20 31
-9 45 22 8 17 17 23 28 19 9 -4 23 0 32 9 9 8 31 27 49 41 17 14 32 30 32 35
0 14 -27 11 -33 -4z"/>
<path d="M1720 844 c1 -16 29 -46 40 -42 6 2 0 14 -14 27 -14 14 -26 20 -26
15z"/>
<path d="M1880 777 c0 -9 19 -40 43 -69 23 -29 58 -75 77 -103 19 -27 44 -61
56 -75 12 -14 34 -47 48 -74 15 -26 33 -55 41 -63 8 -8 27 -34 41 -59 14 -24
32 -44 40 -44 23 0 16 41 -11 62 -14 11 -25 24 -25 29 0 5 -16 31 -36 57 -46
61 -221 299 -231 315 -4 6 -16 18 -25 26 -16 12 -18 11 -18 -2z"/>
<path d="M954 684 c-21 -25 -76 -83 -122 -128 -46 -45 -80 -85 -76 -89 15 -15
33 -6 53 29 12 20 35 41 51 47 17 6 30 14 30 18 0 16 82 115 106 127 25 13 28
32 7 39 -5 2 -27 -17 -49 -43z"/>
<path d="M1807 710 c6 -23 63 -78 63 -60 0 7 -15 28 -34 46 -24 23 -32 28 -29
14z"/>
<path d="M1302 700 c-14 -22 -16 -40 -4 -40 13 0 34 42 25 51 -5 5 -14 0 -21
-11z"/>
<path d="M1056 649 c-20 -17 -52 -54 -73 -82 -20 -29 -53 -70 -73 -92 -46 -52
-86 -133 -72 -147 16 -16 29 -2 40 44 8 30 28 61 66 100 30 31 57 65 60 75 9
29 79 98 95 95 15 -4 33 17 25 30 -10 16 -34 8 -68 -23z"/>
<path d="M672 648 c-15 -15 -16 -41 0 -36 13 5 31 48 20 48 -5 0 -13 -5 -20
-12z"/>
<path d="M1254 635 c-5 -11 -10 -13 -19 -5 -16 13 -89 -43 -106 -84 -16 -37
-72 -96 -92 -96 -17 0 -117 -115 -117 -135 0 -7 -7 -18 -15 -25 -21 -17 -19
-40 4 -40 14 0 23 13 34 45 17 49 71 106 161 169 39 27 55 44 51 56 -3 10 10
30 35 55 22 21 40 34 40 27 0 -22 27 -12 38 13 15 32 15 35 2 35 -6 0 -13 -7
-16 -15z"/>
<path d="M1895 620 c-6 -9 17 -49 102 -175 18 -28 33 -55 33 -61 0 -18 27 -37
35 -24 3 6 -7 28 -24 49 -17 21 -31 43 -31 48 0 19 -109 173 -115 163z"/>
<path d="M647 593 c-10 -10 -8 -43 2 -43 9 0 21 24 21 41 0 11 -14 12 -23 2z"/>
<path d="M716 561 c-16 -17 -26 -34 -22 -38 9 -9 59 42 55 56 -3 7 -17 -1 -33
-18z"/>
<path d="M555 540 c-3 -5 17 -35 46 -65 29 -30 49 -59 45 -63 -4 -4 -12 1 -17
10 -11 20 -49 43 -49 31 0 -5 34 -44 75 -88 42 -44 75 -72 75 -63 0 8 -7 21
-15 28 -8 7 -15 18 -15 25 0 7 -7 16 -16 19 -8 3 -13 10 -9 15 3 5 1 12 -5 16
-5 3 -10 15 -10 25 0 10 -9 25 -20 33 -10 7 -33 30 -49 51 -16 20 -32 32 -36
26z"/>
<path d="M1648 495 c-55 -40 -64 -53 -49 -68 8 -8 19 -2 42 26 17 20 37 37 45
37 8 0 14 2 14 4 0 2 3 11 6 20 9 24 -6 19 -58 -19z"/>
<path d="M1671 441 c-48 -49 -61 -71 -44 -71 4 0 23 17 43 38 19 21 44 44 55
50 15 8 17 13 8 23 -9 9 -23 0 -62 -40z"/>
<path d="M1735 439 c-21 -10 -65 -71 -65 -89 0 -23 27 -8 44 25 11 20 30 38
43 41 13 4 23 12 23 20 0 16 -16 17 -45 3z"/>
<path d="M1782 347 c-30 -31 -56 -97 -40 -97 7 0 19 13 26 28 6 16 22 38 33
51 13 14 18 26 12 32 -6 6 -17 1 -31 -14z"/>
<path d="M1434 342 c-14 -9 -45 -74 -39 -80 8 -9 76 68 70 78 -7 12 -16 12
-31 2z"/>
<path d="M1467 302 c-25 -27 -22 -72 4 -72 16 0 19 4 14 20 -4 13 1 25 14 37
12 10 21 21 21 25 0 15 -37 8 -53 -10z"/>
<path d="M759 266 c29 -31 35 -33 22 -7 -6 10 -18 22 -28 25 -13 5 -11 1 6
-18z"/>
<path d="M1547 249 c-20 -12 -49 -64 -40 -73 12 -12 23 -6 34 18 6 13 22 29
35 35 13 6 24 15 24 21 0 13 -30 12 -53 -1z"/>
<path d="M1612 190 c-26 -28 -28 -40 -7 -40 16 0 38 35 33 52 -3 7 -14 1 -26
-12z"/>
<path d="M2460 389 c0 -5 5 -7 10 -4 6 3 10 8 10 11 0 2 -4 4 -10 4 -5 0 -10
-5 -10 -11z"/>
</g>
</svg>
