<?xml version="1.0" standalone="no"?>
<!DOCTYPE svg PUBLIC "-//W3C//DTD SVG 20010904//EN"
 "http://www.w3.org/TR/2001/REC-SVG-20010904/DTD/svg10.dtd">
<svg version="1.0" xmlns="http://www.w3.org/2000/svg"
 width="413.000000pt" height="319.000000pt" viewBox="0 0 413.000000 319.000000"
 preserveAspectRatio="xMidYMid meet">
<metadata>
Created by potrace 1.16, written by Peter Selinger 2001-2019
</metadata>
<g transform="translate(0.000000,319.000000) scale(0.100000,-0.100000)"
fill="#000000" stroke="none">
<path d="M2587 3174 c-3 -3 -57 -8 -119 -10 -340 -10 -454 -17 -465 -25 -7 -7
-36 -7 -80 -1 -48 7 -85 6 -128 -3 -48 -10 -84 -9 -185 1 -179 20 -483 20
-600 1 -58 -9 -126 -13 -175 -10 -44 2 -165 6 -270 7 -104 2 -235 6 -290 10
-66 5 -109 4 -127 -3 -28 -10 -28 -11 -27 -103 0 -51 -2 -147 -5 -213 -3 -66
-8 -241 -11 -390 -4 -148 -11 -328 -16 -400 -5 -71 -12 -285 -14 -475 -3 -190
-6 -347 -6 -350 -2 -6 -9 -588 -10 -780 0 -69 -4 -176 -9 -239 -10 -147 -11
-147 139 -150 63 -1 111 -7 120 -14 20 -17 243 -21 386 -8 66 7 246 14 400 16
154 2 350 8 435 14 85 6 191 13 235 15 148 10 409 18 550 16 77 0 199 6 270
14 132 16 391 23 402 12 19 -18 328 5 463 35 25 6 101 12 170 15 410 15 459
33 416 148 -22 60 -26 376 -5 376 5 0 7 51 6 112 -1 62 2 131 6 153 32 164 62
820 55 1175 -3 118 -1 364 5 545 9 310 9 466 2 473 -1 2 -227 5 -501 8 -622 6
-885 11 -904 17 -26 9 -107 17 -113 11z m-838 -108 c8 -9 26 -12 61 -8 38 3
55 0 69 -12 15 -13 24 -14 46 -6 35 13 42 7 25 -27 -23 -49 -19 -54 18 -22 20
18 55 40 78 50 43 19 160 34 168 21 5 -8 158 -6 241 3 64 8 211 -7 259 -25 43
-16 26 -22 -30 -11 -27 6 -95 12 -152 13 -100 3 -102 3 -102 -19 0 -23 -38
-41 -59 -28 -6 3 -11 -1 -11 -10 0 -12 8 -15 33 -14 61 5 96 -1 113 -18 28
-28 66 -45 74 -33 4 6 15 8 25 4 13 -5 16 -4 11 4 -13 22 12 12 56 -21 23 -18
56 -52 73 -74 16 -23 33 -42 38 -42 14 -2 -22 55 -62 97 -23 23 -36 42 -30 42
18 0 0 17 -24 24 -13 3 -45 15 -72 27 -39 17 -45 23 -32 31 12 6 28 1 56 -18
29 -19 48 -24 65 -20 19 5 32 -1 55 -23 16 -16 38 -35 48 -42 10 -8 34 -33 52
-55 32 -41 33 -44 34 -145 1 -134 -15 -275 -37 -318 -25 -48 -92 -108 -156
-138 -30 -15 -49 -28 -43 -30 15 -5 109 43 148 74 53 44 94 124 114 220 23
108 -1 316 -45 391 -14 24 -24 45 -22 48 2 2 20 -7 40 -21 51 -35 63 -90 63
-290 0 -157 0 -161 -27 -200 -15 -22 -34 -60 -43 -85 -9 -25 -26 -56 -39 -70
-12 -14 -30 -37 -39 -52 -10 -16 -23 -28 -30 -28 -6 0 -29 -18 -51 -40 -30
-31 -46 -40 -73 -40 -43 0 -62 19 -65 64 -2 27 -8 36 -20 36 -29 0 -21 13 32
49 28 19 48 36 46 38 -9 9 -56 -10 -56 -23 0 -8 -8 -18 -17 -21 -10 -4 -34
-18 -53 -31 -26 -18 -46 -23 -82 -21 -54 3 -73 -7 -33 -17 15 -4 44 -2 65 5
61 18 80 15 80 -14 0 -18 -4 -23 -16 -18 -21 8 -53 -32 -54 -65 0 -19 -4 -22
-20 -17 -13 4 -22 1 -26 -9 -9 -23 -22 -20 -26 7 -2 16 -10 22 -28 22 -17 0
-31 10 -45 32 -26 42 -35 41 -36 -4 l-1 -38 -14 33 c-16 35 -43 43 -51 13 -5
-19 -5 -19 -24 0 -10 10 -19 24 -19 29 0 15 -26 12 -39 -4 -6 -7 -9 -20 -5
-29 3 -8 1 -18 -5 -22 -6 -3 -11 -1 -11 4 0 6 -11 11 -24 11 -13 0 -30 7 -37
16 -12 15 -14 14 -19 -6 -6 -26 -30 -40 -30 -18 0 24 -17 39 -48 43 -28 4 -31
1 -35 -28 -3 -27 -4 -26 -3 7 0 27 -5 42 -19 52 -17 13 -20 12 -27 -7 -8 -21
-9 -21 -22 -4 -8 12 -19 16 -30 12 -37 -14 -106 42 -106 86 0 24 -3 28 -20 24
-24 -6 -34 6 -50 60 -7 23 -16 40 -20 38 -17 -11 -50 101 -50 171 0 27 7 78
15 113 9 35 12 73 9 85 l-7 21 -7 -21 c-7 -18 -12 -52 -25 -171 -6 -49 22
-180 45 -211 21 -29 53 -102 45 -102 -3 0 -7 1 -10 3 -3 1 -10 -4 -14 -12 -7
-11 -19 -6 -57 28 -50 43 -78 95 -96 171 -16 72 -29 221 -23 263 4 25 2 36 -5
32 -15 -9 -12 -201 5 -270 8 -33 14 -75 15 -92 0 -21 5 -33 13 -33 12 0 21
-12 45 -63 10 -21 -31 9 -43 32 -11 21 -14 22 -15 7 0 -19 33 -55 54 -58 6 0
16 -2 21 -2 6 -1 20 -10 31 -21 17 -17 20 -29 15 -70 l-5 -50 -11 50 c-13 57
-40 74 -51 31 -3 -14 -10 -26 -15 -26 -5 0 -9 -8 -9 -17 0 -14 -2 -15 -9 -4
-5 7 -14 10 -20 7 -8 -5 -10 5 -7 36 3 24 3 35 0 25 -5 -17 -7 -17 -24 3 -31
35 -63 158 -57 215 8 67 -10 161 -27 144 -2 -2 -6 -15 -9 -29 -2 -14 -2 -19 0
-12 11 30 23 8 23 -40 0 -40 -3 -49 -11 -38 -8 11 -9 4 -3 -25 7 -43 7 -92 -2
-106 -2 -4 -11 -6 -19 -3 -15 6 -18 -3 -34 -86 -6 -30 -9 -36 -10 -18 -1 38
-19 44 -32 11 -6 -15 -15 -37 -20 -48 -5 -11 -10 -38 -12 -60 -4 -39 -4 -38
-5 8 -1 32 -7 50 -17 53 -8 4 -16 14 -16 23 -1 9 -5 -2 -9 -24 l-7 -40 -2 38
c-1 26 -6 37 -16 37 -8 0 -16 -6 -17 -12 0 -7 -4 7 -7 31 -8 63 -26 62 -38 -1
l-10 -53 -2 73 c-1 57 -4 72 -16 72 -8 0 -15 -6 -15 -12 0 -9 -3 -8 -9 1 -8
12 -11 9 -16 -12 -4 -15 -11 -27 -16 -27 -5 0 -9 -11 -9 -25 0 -18 -4 -23 -15
-19 -11 5 -15 -1 -15 -21 0 -22 -2 -24 -14 -13 -7 8 -17 24 -21 37 -4 12 -9
20 -12 17 -3 -3 0 -18 6 -34 10 -24 10 -36 -3 -66 -16 -38 -32 -50 -21 -16 8
25 -3 62 -16 55 -5 -4 -9 1 -9 9 0 9 -6 16 -14 16 -18 0 -26 22 -27 73 0 23
-3 36 -6 29 -2 -6 -9 -10 -14 -6 -5 3 -10 -3 -10 -13 -1 -10 -5 -2 -9 17 l-7
35 -2 -35 c-1 -24 -4 -31 -10 -21 -12 19 -24 -3 -16 -29 8 -25 -15 -131 -27
-124 -4 3 -8 -2 -8 -12 0 -14 -2 -15 -17 -3 -11 10 -17 10 -20 3 -2 -6 -11
-20 -19 -30 -9 -10 -13 -13 -9 -6 8 16 -4 54 -15 47 -5 -3 -12 11 -15 32 -3
21 -13 52 -21 68 l-15 30 5 -32 c4 -22 1 -33 -7 -33 -8 0 -12 -19 -12 -60 0
-64 -17 -98 -36 -70 -7 11 -8 7 -3 -12 5 -21 2 -28 -9 -28 -17 0 -32 34 -22
50 12 19 -4 62 -20 56 -10 -3 -15 1 -16 12 0 14 -2 14 -6 2 -6 -16 -32 -40
-44 -40 -5 0 -10 26 -12 58 -3 43 -4 37 -4 -23 0 -44 -3 -91 -7 -103 l-8 -24
-14 27 c-11 21 -25 119 -27 192 0 7 -4 10 -9 7 -5 -4 -7 -48 -3 -100 4 -60 2
-94 -4 -94 -6 0 -13 16 -17 35 -6 35 -17 44 -29 25 -10 -16 -25 -11 -25 9 0
13 -9 20 -30 25 l-30 6 0 137 c0 95 3 133 10 123 7 -11 8 -2 4 28 -4 28 -3 42
5 42 6 0 11 -11 11 -25 0 -14 5 -25 11 -25 7 0 9 9 5 24 -3 13 -9 63 -12 111
-6 74 -9 84 -18 64 -8 -21 -11 -16 -17 41 -14 137 -8 310 11 310 5 0 13 -28
19 -62 l10 -63 -5 59 c-2 32 -9 67 -15 77 -9 18 -6 19 43 18 29 -1 58 -6 64
-11 7 -5 49 -5 100 0 49 5 174 8 277 8 173 -1 189 -3 199 -20 9 -16 18 -17 72
-12 148 16 169 16 181 6 9 -8 15 -8 20 0 16 26 22 -5 8 -46 -8 -25 -13 -47
-10 -50 3 -3 13 19 23 50 16 51 20 56 46 56 28 0 37 -16 19 -35 -5 -6 -18 -37
-30 -70 -52 -142 -121 -208 -75 -71 9 26 13 50 10 53 -3 4 -6 1 -6 -5 0 -7 -7
-12 -16 -12 -12 0 -15 -7 -11 -27 5 -26 -20 -134 -48 -206 -19 -48 -19 -62 0
-43 8 8 15 25 15 38 0 13 7 31 15 42 13 17 14 15 18 -20 3 -32 4 -29 6 16 1
37 8 63 21 80 12 16 20 20 20 10 0 -22 16 0 30 42 6 21 16 41 22 44 6 4 6 -2
-1 -14 -6 -12 -11 -61 -11 -109 0 -48 -3 -117 -8 -153 -5 -36 -6 -72 -2 -80
12 -21 25 69 25 173 0 48 3 87 8 87 4 0 7 12 7 26 0 49 23 105 63 150 21 24
45 44 53 44 8 0 14 10 14 23 0 19 -5 16 -41 -23 -22 -25 -38 -37 -35 -27 10
32 -10 17 -22 -17 -7 -19 -19 -40 -27 -46 -24 -20 -18 17 13 79 30 62 57 81
47 34 l-6 -28 15 25 c11 19 25 26 59 30 34 4 44 3 40 -7 -3 -7 -9 -13 -14 -13
-5 0 -9 -5 -9 -11 0 -13 -31 -53 -45 -60 -12 -5 -85 -113 -85 -125 0 -5 10 2
21 16 l20 25 -17 -40 c-21 -52 -29 -90 -11 -55 19 39 80 120 85 115 3 -3 -7
-23 -22 -45 -14 -22 -23 -40 -18 -40 12 0 62 79 62 97 0 9 12 32 28 52 15 20
32 49 37 65 8 24 17 30 48 33 28 3 37 0 37 -12 0 -21 24 -19 45 5 15 16 31 20
85 20 45 0 71 -5 79 -14z m1576 4 c3 -5 1 -10 -4 -10 -6 0 -11 -5 -11 -10 0
-11 3 -16 45 -65 l26 -30 -23 47 c-12 26 -20 49 -17 51 2 3 47 7 101 10 l96 5
7 -26 c4 -18 9 -22 14 -13 9 14 71 -95 71 -124 0 -8 5 -15 10 -15 6 0 10 -7
10 -16 0 -8 -4 -12 -10 -9 -18 11 -10 -30 15 -73 35 -62 55 -136 55 -208 0
-36 5 -66 11 -70 9 -5 10 20 4 97 -4 57 -11 106 -15 109 -4 3 -20 52 -35 109
-15 57 -38 119 -50 137 -26 38 -50 93 -43 99 2 3 42 8 89 11 l84 7 14 -49 c11
-40 15 -45 21 -29 5 13 3 28 -6 42 -8 12 -14 25 -14 28 0 3 61 5 135 4 l136
-1 -5 -41 c-3 -23 -8 -73 -12 -112 -3 -38 -13 -104 -22 -145 -11 -53 -16 -141
-17 -300 -3 -323 -2 -317 -22 -325 -12 -4 -24 1 -35 14 -17 22 -38 28 -38 11
0 -5 -9 -10 -20 -10 -14 0 -20 -7 -21 -22 0 -13 -3 -17 -6 -10 -2 6 -9 9 -15
6 -7 -4 -8 5 -4 27 5 26 4 29 -3 13 -5 -12 -14 -25 -20 -29 -6 -3 -11 -11 -11
-16 0 -6 5 -7 10 -4 6 4 10 -7 10 -26 0 -30 -1 -31 -14 -14 -16 23 -46 14 -46
-15 0 -37 -20 -20 -55 47 -9 18 -9 37 3 90 8 38 17 110 19 161 2 50 9 92 14
92 5 0 9 8 8 18 0 10 -3 12 -6 4 -2 -6 -9 -10 -14 -6 -5 3 -9 -15 -9 -40 0
-96 -34 -296 -51 -296 -5 0 -9 -18 -9 -39 0 -35 -2 -39 -21 -34 -14 4 -26 0
-34 -11 -12 -16 -13 -16 -19 0 -7 17 29 141 45 159 12 12 11 25 0 25 -5 0 -19
-34 -32 -75 -22 -70 -24 -73 -36 -51 -10 20 -8 34 17 100 29 74 37 106 24 93
-4 -3 -19 -41 -34 -84 -21 -61 -31 -77 -44 -75 -11 2 -20 -5 -23 -18 -6 -21
-6 -21 -20 -1 -8 13 -11 31 -7 48 6 27 6 27 -9 8 -15 -20 -15 -19 -22 6 -7 28
29 114 59 138 8 7 22 36 30 65 20 67 32 281 17 291 -6 3 -11 19 -11 35 0 18
-11 42 -29 62 -15 18 -31 43 -35 55 -4 12 -25 32 -47 45 -21 12 -39 25 -39 29
0 5 -22 23 -50 41 -27 18 -50 36 -50 41 0 4 -4 5 -10 2 -5 -3 -20 1 -32 9 -12
9 -37 16 -55 16 -33 0 -102 29 -103 43 0 11 238 9 245 -3z m-1875 -15 c0 -8
-4 -15 -10 -15 -5 0 -7 7 -4 15 4 8 8 15 10 15 2 0 4 -7 4 -15z m1595 -27 c82
-41 111 -71 133 -137 11 -31 24 -69 30 -86 6 -16 16 -46 22 -65 7 -19 15 -53
18 -74 11 -90 -47 -361 -88 -413 -11 -15 -57 -51 -102 -80 -65 -43 -89 -53
-122 -53 l-41 1 45 24 c90 47 153 143 164 250 3 33 11 92 17 130 14 83 15 138
4 220 -8 62 -22 91 -61 135 -13 14 -30 42 -39 62 -18 45 -40 60 -130 92 -56
19 -64 25 -45 29 52 10 136 -5 195 -35z m-178 -9 c26 -11 58 -32 71 -46 49
-57 109 -319 92 -403 -5 -25 -9 -77 -10 -116 0 -63 -3 -73 -26 -95 l-26 -24 3
115 c3 144 -15 355 -37 440 -18 73 -42 104 -91 122 -18 7 -33 16 -33 20 0 11
2 11 57 -13z m-152 -20 c5 -5 -1 -9 -17 -9 -33 0 -58 9 -58 22 0 11 60 1 75
-13z m560 -28 c77 -45 157 -116 179 -159 9 -17 20 -32 24 -32 5 0 18 -30 31
-66 18 -52 21 -79 17 -123 -4 -31 -8 -85 -11 -119 -5 -84 -22 -133 -41 -125
-8 3 -14 2 -12 -3 4 -16 -43 -95 -60 -101 -9 -3 -30 -16 -47 -28 -30 -22 -129
-75 -140 -75 -12 0 62 58 95 75 19 10 47 32 62 49 26 29 93 176 118 259 17 55
4 154 -26 197 -14 19 -36 51 -49 70 -48 69 -109 125 -169 155 -33 16 -66 40
-73 51 -13 20 -12 21 13 16 15 -3 55 -21 89 -41z m-380 -11 c3 -5 2 -10 -2
-10 -10 0 -83 49 -83 56 0 7 78 -35 85 -46z m-91 -12 c20 -23 36 -46 36 -51 0
-14 -56 35 -74 66 -26 41 -2 32 38 -15z m463 -85 c103 -117 113 -157 99 -410
-6 -109 -7 -114 -43 -165 -64 -92 -131 -137 -203 -138 -19 0 -44 -7 -54 -15
-11 -8 -29 -15 -40 -15 -14 1 -1 12 37 34 99 57 139 104 157 189 5 23 18 78
29 122 34 134 24 255 -29 370 -25 52 -35 95 -23 95 6 0 37 -30 70 -67z m-198
-28 c28 -43 54 -178 45 -229 -4 -22 -7 -44 -6 -48 1 -4 -5 -39 -13 -78 -8 -39
-15 -85 -15 -102 0 -45 -42 -127 -87 -169 -21 -20 -69 -53 -107 -73 -64 -35
-69 -36 -82 -19 -13 16 -15 17 -26 2 -7 -9 -30 -18 -50 -22 -59 -9 -47 16 17
38 73 24 122 54 106 64 -8 6 -1 17 24 39 20 18 41 32 47 32 6 0 35 24 65 54
l53 55 0 83 c0 46 4 98 9 116 11 38 6 74 -46 322 -5 25 -5 25 21 -5 14 -16 35
-44 45 -60z m261 26 c19 -20 46 -52 60 -72 14 -20 38 -54 55 -74 27 -35 29
-44 30 -119 0 -74 -4 -90 -44 -183 -24 -57 -59 -120 -77 -140 -41 -47 -45 -29
-4 22 17 21 30 50 30 64 0 14 2 97 5 184 l6 158 -29 62 c-17 34 -40 71 -52 82
-12 11 -31 33 -43 49 l-20 28 24 -12 c13 -7 40 -29 59 -49z m340 -56 c0 -5 -5
-3 -10 5 -5 8 -10 20 -10 25 0 6 5 3 10 -5 5 -8 10 -19 10 -25z m-776 -247
c-4 -29 -11 -57 -16 -63 -11 -10 -2 90 8 107 12 19 14 5 8 -44z m63 -153 c-8
-91 -14 -103 -64 -134 -22 -13 -49 -38 -61 -56 -20 -28 -74 -56 -108 -55 -13
1 39 40 53 40 7 0 19 13 28 29 8 16 27 43 43 60 15 17 33 51 40 77 10 38 57
114 71 114 2 0 1 -34 -2 -75z m-1547 -152 c0 -1 -6 0 -14 3 -11 4 -17 -9 -25
-48 -10 -51 -10 -49 -5 25 4 46 2 83 -4 90 -6 7 -8 26 -4 42 5 27 7 24 28 -40
13 -38 24 -71 24 -72z m264 11 c3 -8 2 -12 -4 -9 -6 3 -10 10 -10 16 0 14 7
11 14 -7z m-847 -36 c-3 -7 -5 -2 -5 12 0 14 2 19 5 13 2 -7 2 -19 0 -25z
m825 -43 l-6 -30 -7 25 c-4 14 -7 34 -8 45 -1 17 1 17 13 5 10 -10 12 -25 8
-45z m1722 -2 c-10 -41 -24 -56 -40 -42 -8 6 -21 9 -29 5 -31 -11 -14 14 20
30 20 9 38 20 41 25 10 17 14 9 8 -18z m46 -7 c0 -7 -7 -19 -15 -26 -16 -13
-20 -3 -9 24 8 20 24 21 24 2z m-1611 -13 c0 -5 -4 -17 -9 -28 -8 -18 -9 -17
-9 8 -1 15 4 27 9 27 6 0 10 -3 9 -7z m2114 -80 l-10 -38 -4 52 c-3 44 -2 50
10 39 10 -11 11 -23 4 -53z m-2892 11 l-9 -39 -1 36 c-1 20 2 39 6 42 12 13
13 0 4 -39z m726 24 c-3 -8 -6 -5 -6 6 -1 11 2 17 5 13 3 -3 4 -12 1 -19z
m1498 12 c3 -5 1 -10 -4 -10 -6 0 -11 5 -11 10 0 6 2 10 4 10 3 0 8 -4 11 -10z
m-140 -9 c19 -8 19 -8 -4 -20 -17 -9 -26 -10 -34 -2 -8 8 -6 11 9 11 16 0 17
2 4 10 -18 11 -3 12 25 1z m-2338 -58 c-7 -28 -15 -54 -18 -58 -7 -7 6 71 17
98 12 32 13 13 1 -40z m2676 14 c-7 -11 -23 12 -23 33 1 12 4 11 15 -4 8 -10
12 -23 8 -29z m-543 29 c0 -2 -9 -6 -20 -9 -11 -3 -20 -1 -20 4 0 5 9 9 20 9
11 0 20 -2 20 -4z m260 -10 c0 -16 -18 -31 -27 -22 -8 8 5 36 17 36 5 0 10 -6
10 -14z m-2883 -18 c-3 -8 -6 -5 -6 6 -1 11 2 17 5 13 3 -3 4 -12 1 -19z m567
-30 c-9 -59 -14 -60 -14 -5 0 26 5 47 10 47 6 0 8 -16 4 -42z m357 26 c12 -14
11 -16 -5 -13 -11 2 -21 10 -24 17 -5 17 13 15 29 -4z m1764 6 c-3 -5 -14 -10
-23 -10 -15 0 -15 2 -2 10 20 13 33 13 25 0z m135 -21 c0 -5 -4 -9 -10 -9 -5
0 -10 7 -10 16 0 8 5 12 10 9 6 -3 10 -10 10 -16z m577 -1 c-3 -8 -6 -5 -6 6
-1 11 2 17 5 13 3 -3 4 -12 1 -19z m-2710 -20 c-3 -7 -5 -2 -5 12 0 14 2 19 5
13 2 -7 2 -19 0 -25z m639 -4 c-4 -9 -9 -15 -11 -12 -3 3 -3 13 1 22 4 9 9 15
11 12 3 -3 3 -13 -1 -22z m-949 -6 c-3 -8 -6 -5 -6 6 -1 11 2 17 5 13 3 -3 4
-12 1 -19z m1020 0 c-3 -8 -6 -5 -6 6 -1 11 2 17 5 13 3 -3 4 -12 1 -19z
m2107 7 c3 -8 1 -15 -4 -15 -6 0 -10 7 -10 15 0 8 2 15 4 15 2 0 6 -7 10 -15z
m69 -15 c3 -11 1 -23 -4 -26 -5 -3 -9 6 -9 20 0 31 6 34 13 6z m-3580 -47 c-7
-59 -22 -92 -23 -48 0 46 12 105 20 100 4 -3 5 -26 3 -52z m884 35 c-3 -8 -6
-5 -6 6 -1 11 2 17 5 13 3 -3 4 -12 1 -19z m1820 0 c-3 -8 -6 -5 -6 6 -1 11 2
17 5 13 3 -3 4 -12 1 -19z m-1650 -10 c-3 -8 -6 -5 -6 6 -1 11 2 17 5 13 3 -3
4 -12 1 -19z m60 0 c-3 -8 -6 -5 -6 6 -1 11 2 17 5 13 3 -3 4 -12 1 -19z
m-205 -33 c-2 -14 -8 -22 -13 -19 -5 3 -5 14 1 25 14 26 18 24 12 -6z m-66
-22 c-11 -11 -17 4 -9 23 7 18 8 18 11 1 2 -10 1 -21 -2 -24z m1384 16 c0 -5
-7 -9 -15 -9 -8 0 -15 7 -15 15 0 9 6 12 15 9 8 -4 15 -10 15 -15z m125 11 c3
-5 -1 -10 -9 -10 -9 0 -16 5 -16 10 0 6 4 10 9 10 6 0 13 -4 16 -10z m-565
-11 c0 -6 -14 -9 -32 -8 -18 2 -42 -2 -54 -9 -15 -8 -24 -8 -32 0 -6 6 -32 10
-57 10 -25 -1 -45 2 -45 8 0 6 43 10 110 10 72 0 110 -4 110 -11z m70 -9 c-20
-13 -33 -13 -25 0 3 6 14 10 23 10 15 0 15 -2 2 -10z m105 -7 c17 -3 38 -12
47 -20 11 -10 33 -14 67 -12 40 3 51 1 51 -11 0 -10 3 -11 8 -4 5 8 23 9 60 3
29 -4 59 -6 67 -3 7 3 25 0 39 -8 23 -12 20 -13 -47 -16 -114 -5 -127 -5 -214
3 -69 7 -82 11 -87 28 -3 12 -10 17 -19 14 -17 -6 -37 11 -37 31 0 9 6 12 18
7 9 -3 31 -9 47 -12z m1265 13 c0 -3 -4 -8 -10 -11 -5 -3 -10 -1 -10 4 0 6 5
11 10 11 6 0 10 -2 10 -4z m-2498 -28 c-7 -7 -12 -8 -12 -2 0 14 12 26 19 19
2 -3 -1 -11 -7 -17z m578 12 c0 -5 -4 -10 -9 -10 -6 0 -13 5 -16 10 -3 6 1 10
9 10 9 0 16 -4 16 -10z m140 -5 c-8 -15 -40 -13 -40 2 0 9 8 13 23 11 12 -2
20 -7 17 -13z m980 -16 c0 -11 -16 -11 -59 -3 -17 4 -29 9 -27 13 6 10 86 0
86 -10z m577 -1 c-3 -8 -6 -5 -6 6 -1 11 2 17 5 13 3 -3 4 -12 1 -19z m-2334
-16 c-3 -12 -11 -22 -18 -22 -8 0 -21 -3 -31 -7 -12 -4 -15 -2 -12 8 3 8 13
14 22 14 10 0 22 8 28 18 13 24 19 18 11 -11z m443 18 c9 0 12 -4 9 -10 -8
-12 -52 -13 -59 -1 -8 12 6 22 22 16 7 -3 20 -5 28 -5z m1397 4 c20 -4 37 -11
37 -15 0 -15 -71 -10 -86 6 -18 17 -11 18 49 9z m-1614 -21 c2 -14 -50 -26
-62 -14 -8 8 -2 11 22 11 21 0 30 4 25 11 -4 7 -2 9 3 5 6 -3 11 -9 12 -13z
m529 -5 c6 -6 12 -18 12 -27 0 -14 -7 -17 -32 -13 -18 3 -43 12 -55 20 -13 8
-23 11 -23 8 0 -4 -10 -1 -22 6 l-23 12 25 6 c32 8 101 1 118 -12z m222 1 c0
-11 -27 -12 -34 0 -3 4 -3 11 0 14 8 8 34 -3 34 -14z m183 -4 c-5 -18 -52 -28
-68 -15 -29 24 -17 37 28 31 23 -3 41 -10 40 -16z m787 5 c0 -13 -20 -13 -40
0 -12 8 -9 10 13 10 15 0 27 -4 27 -10z m110 0 c0 -5 -7 -7 -15 -4 -8 4 -15 8
-15 10 0 2 7 4 15 4 8 0 15 -4 15 -10z m-2671 -62 c-1 -61 -1 -62 -11 -25 -9
34 -5 87 7 87 3 0 5 -28 4 -62z m2751 52 c12 -8 10 -10 -10 -9 -14 0 -34 4
-45 9 -17 7 -16 9 10 9 17 0 37 -4 45 -9z m-2024 -23 c3 -3 -10 -8 -28 -12
-18 -4 -42 -14 -53 -21 -22 -16 -121 -19 -130 -4 -3 6 0 10 8 10 8 0 27 6 42
14 22 11 32 12 47 3 15 -10 21 -9 28 4 9 15 73 20 86 6z m1814 4 c0 -6 21 -17
48 -25 l47 -15 -40 5 c-80 11 -141 44 -80 44 14 0 25 -4 25 -9z m-1300 -10 c0
-11 -39 -25 -47 -18 -3 3 -2 10 2 16 8 13 45 15 45 2z m245 -2 c11 -16 3 -17
-40 -4 l-40 13 37 1 c20 1 40 -4 43 -10z m1250 1 c3 -5 -3 -10 -14 -10 -11 0
-23 5 -26 10 -3 6 3 10 14 10 11 0 23 -4 26 -10z m185 -17 c13 -14 13 -15 -5
-8 -11 4 -28 10 -37 12 -10 3 -18 10 -18 15 0 13 42 -1 60 -19z m-1865 7 c7
-11 -18 -17 -107 -24 -38 -3 -68 -1 -68 3 0 22 162 41 175 21z m244 3 c23 -6
23 -7 5 -13 -21 -8 -44 -2 -44 11 0 11 7 11 39 2z m-912 -20 c2 -6 -5 -14 -17
-18 -26 -8 -33 -3 -24 19 7 19 35 18 41 -1z m1743 7 c0 -5 -10 -10 -22 -9 -22
0 -22 1 -3 9 11 5 21 9 23 9 1 1 2 -3 2 -9z m215 0 c-3 -5 -15 -10 -26 -10
-10 0 -19 5 -19 10 0 6 12 10 26 10 14 0 23 -4 19 -10z m474 -6 c12 -11 -8
-10 -39 2 l-35 14 35 -6 c19 -4 37 -8 39 -10z m-1694 -4 c-28 -12 -47 -12 -40
0 3 6 18 10 33 9 24 0 25 -1 7 -9z m315 2 c0 -11 -39 -12 -45 -1 -4 5 5 9 19
9 14 0 26 -4 26 -8z m280 -7 c33 -19 76 -19 84 0 10 28 24 15 23 -21 -1 -30
-4 -35 -22 -30 -11 3 -56 8 -100 12 -137 10 -187 38 -85 47 25 2 52 4 60 5 8
1 26 -5 40 -13z m260 -10 c23 -25 23 -25 4 -40 -17 -13 -11 -15 67 -13 88 1
123 -7 98 -23 -8 -4 -16 -4 -20 2 -3 6 -26 9 -50 7 -43 -4 -43 -4 -17 -15 28
-13 44 -31 34 -40 -7 -7 -64 -6 -158 3 -49 4 -68 10 -68 20 0 8 5 14 10 14 14
0 12 28 -2 33 -10 3 -10 7 1 20 11 14 11 18 -3 23 -21 8 -20 22 2 26 51 11 80
6 102 -17z m995 7 c-3 -3 -11 0 -18 7 -9 10 -8 11 6 5 10 -3 15 -9 12 -12z
m-2654 -32 c31 0 13 -18 -32 -31 -31 -10 -42 -10 -52 0 -9 10 -8 11 5 6 13 -5
22 2 35 31 15 31 18 34 21 16 2 -14 11 -22 23 -22z m2878 26 c6 -4 11 -12 11
-19 0 -8 -3 -8 -12 1 -15 15 -58 16 -58 1 0 -5 -4 -7 -10 -4 -5 3 -10 13 -10
21 0 12 8 15 34 11 19 -2 39 -8 45 -11z m-667 -14 c14 -14 0 -52 -18 -52 -8 0
-13 4 -10 9 3 5 -21 16 -54 25 -78 22 -70 41 13 33 32 -3 64 -10 69 -15z m738
-10 c23 3 50 -25 37 -39 -11 -10 -59 21 -76 49 -12 21 -12 21 2 5 8 -9 24 -16
37 -15z m-2105 8 c3 -5 1 -10 -4 -10 -6 0 -11 5 -11 10 0 6 2 10 4 10 3 0 8
-4 11 -10z m1045 0 c0 -5 -6 -10 -14 -10 -8 0 -18 5 -21 10 -3 6 3 10 14 10
12 0 21 -4 21 -10z m155 -11 c16 -10 48 -21 70 -25 51 -9 61 -14 44 -25 -10
-6 -6 -9 13 -9 14 0 72 -9 127 -20 85 -17 109 -18 145 -8 36 10 59 8 129 -6
74 -16 90 -23 117 -53 18 -19 34 -32 38 -29 3 3 -3 15 -13 26 -10 11 -14 20
-8 20 18 0 51 -45 56 -75 4 -28 4 -27 6 7 l1 37 45 -25 c24 -14 52 -24 61 -22
14 2 12 5 -7 14 -139 65 -158 81 -85 70 99 -15 118 -23 143 -64 35 -55 102
-108 87 -68 -3 8 -15 16 -26 19 -11 3 -17 10 -14 16 4 5 2 12 -4 16 -6 3 -17
21 -26 38 l-17 32 35 -35 c18 -19 40 -36 48 -38 8 -2 24 -12 35 -23 17 -16 18
-21 6 -29 -8 -4 -16 -17 -17 -27 -2 -10 -14 -27 -27 -39 -21 -17 -47 -59 -114
-177 -7 -12 -13 -18 -13 -13 0 5 -7 2 -16 -5 -14 -11 -20 -9 -45 19 -31 35
-49 41 -49 16 0 -13 -5 -12 -26 5 -15 12 -31 21 -36 21 -6 0 -25 7 -43 16
l-34 16 27 25 27 24 -47 -26 c-26 -15 -52 -24 -58 -20 -14 9 -60 -21 -60 -39
0 -14 -37 -32 -80 -40 -38 -6 -60 -17 -60 -28 0 -6 8 -7 18 -3 9 4 39 14 66
22 27 8 59 21 70 28 31 19 90 8 101 -18 6 -12 29 -28 56 -38 48 -17 159 -93
159 -109 0 -6 -6 -10 -14 -10 -7 0 -21 -11 -30 -25 -24 -36 -36 -31 -36 14 0
46 -8 71 -23 71 -6 0 -8 -30 -3 -89 6 -83 5 -91 -13 -100 -11 -6 -26 -11 -33
-11 -14 0 -64 97 -60 118 4 18 -25 15 -32 -4 -3 -8 -3 -40 0 -70 4 -34 3 -59
-5 -67 -6 -8 -8 -17 -4 -21 4 -4 0 -4 -10 0 -12 4 -17 1 -18 -12 0 -11 -3 -14
-6 -6 -2 6 -12 12 -22 12 -9 0 -23 6 -29 12 -10 10 -14 8 -18 -9 -3 -12 -15
-23 -25 -26 -16 -4 -25 5 -44 50 -31 69 -31 71 3 76 26 4 26 4 -4 6 -27 1 -32
6 -38 32 -7 35 -26 30 -26 -8 0 -14 -8 -32 -17 -39 -17 -12 -17 -13 -1 -14 24
0 38 -31 38 -80 0 -34 -4 -42 -26 -50 -33 -13 -77 -13 -69 0 8 13 -15 13 -35
0 -13 -9 -13 -10 0 -11 10 0 8 -3 -5 -9 -15 -6 -25 -2 -38 14 -16 20 -18 20
-31 4 -27 -36 -50 -19 -91 70 -38 83 -56 61 -36 -46 7 -37 6 -44 -10 -53 -26
-14 -39 -3 -39 32 0 30 -23 41 -34 17 -3 -7 -4 33 -1 89 6 137 -5 132 -75 -32
-5 -11 -12 -36 -15 -55 -4 -19 -9 -44 -12 -54 -5 -17 -6 -18 -15 -3 -12 23
-23 21 -48 -6 l-21 -22 6 27 c6 25 5 27 -20 24 -15 -2 -32 -10 -37 -19 -5 -9
-15 -14 -24 -10 -10 4 -17 -2 -21 -16 -3 -11 -10 -21 -15 -21 -5 0 -7 9 -3 19
8 26 -11 36 -25 14 -9 -14 -10 -3 -5 49 6 73 -4 91 -32 59 -25 -30 -73 -119
-74 -139 0 -9 -8 5 -18 32 -20 57 -38 70 -43 31 -3 -25 -6 -23 -45 35 -24 34
-43 66 -43 71 0 8 -18 40 -36 68 -2 2 -10 -4 -19 -13 -10 -10 -12 -16 -5 -16
7 0 10 -7 6 -15 -3 -8 -1 -15 4 -15 4 0 12 -14 15 -31 5 -23 3 -34 -8 -40 -8
-5 -20 -22 -27 -39 -12 -30 -32 -42 -29 -17 4 32 -2 77 -11 77 -5 0 -15 -18
-21 -40 -23 -77 -59 -78 -59 -2 0 63 -9 92 -27 92 -13 0 -14 -11 -9 -70 7 -68
7 -70 -16 -70 -13 0 -27 4 -33 8 -15 11 -45 68 -45 85 0 8 -9 25 -19 38 -17
21 -20 22 -26 8 -3 -9 3 -34 14 -55 25 -47 26 -50 4 -58 -10 -3 -24 -9 -30
-12 -8 -4 -13 2 -13 15 0 26 -15 27 -29 4 -8 -15 -10 -11 -11 20 0 33 -3 37
-25 37 -22 0 -25 -4 -25 -35 0 -24 -5 -35 -14 -35 -24 0 -29 20 -10 35 11 9
14 14 7 15 -8 0 -13 14 -13 35 0 19 -2 35 -4 35 -20 0 -36 -16 -36 -37 0 -21
-4 -24 -27 -21 -25 3 -28 7 -25 37 3 38 -12 63 -34 54 -10 -4 -15 -17 -14 -37
3 -49 1 -56 -14 -50 -8 3 -16 22 -18 42 -4 48 -32 51 -36 5 -2 -21 -9 -33 -18
-33 -11 0 -14 17 -14 76 0 56 -3 75 -12 72 -8 -3 -15 -31 -19 -69 -5 -58 -6
-60 -7 -16 -3 73 -42 61 -42 -14 0 -22 -5 -29 -19 -29 -28 0 -35 17 -14 30 13
8 14 13 6 16 -7 3 -13 21 -13 40 0 24 -5 34 -15 34 -10 0 -15 -10 -15 -32 0
-25 -3 -29 -10 -18 -5 8 -10 30 -10 48 0 39 -17 75 -31 67 -5 -4 -10 -32 -11
-63 -1 -50 -2 -52 -5 -14 -3 28 -9 42 -19 42 -8 0 -14 -4 -14 -10 0 -5 -4 -10
-10 -10 -5 0 -13 18 -16 41 -5 27 -13 43 -25 48 -18 6 -18 7 0 41 10 19 25 36
34 38 8 2 38 -13 67 -34 28 -20 54 -34 57 -30 3 3 -2 8 -11 12 -9 3 -16 11
-16 18 0 6 -17 20 -38 31 -23 12 -38 29 -40 43 -4 27 16 29 64 6 19 -9 37 -14
40 -12 2 3 -25 18 -61 34 -35 16 -63 34 -61 39 2 6 7 9 12 9 5 -1 32 -4 59 -8
l50 -5 -35 15 c-22 10 -51 14 -78 11 -39 -4 -47 -1 -80 29 -31 29 -34 34 -17
34 19 1 19 1 2 11 -46 27 -30 -39 17 -72 40 -27 58 -59 46 -80 -7 -11 -15 -9
-40 10 -17 12 -34 21 -36 18 -3 -3 8 -13 25 -23 36 -21 37 -24 12 -55 -10 -13
-25 -37 -34 -54 l-16 -30 -1 28 c0 22 -4 28 -17 25 -13 -2 -20 -16 -24 -45 -7
-56 -19 -66 -19 -17 0 46 -13 70 -30 59 -8 -5 -10 -22 -6 -51 3 -27 2 -44 -4
-44 -15 0 -30 45 -30 86 0 27 -5 37 -22 43 -31 12 -49 -5 -43 -38 l5 -26 -11
25 c-10 24 -23 99 -21 130 4 82 33 197 59 235 17 25 17 51 -1 58 -23 9 -45
-15 -71 -78 -13 -33 -25 -55 -25 -50 0 6 -12 -13 -25 -42 -14 -29 -29 -55 -34
-58 -6 -3 -17 -30 -26 -60 -8 -30 -18 -55 -21 -55 -4 0 -3 7 0 16 3 8 -1 22
-9 30 -8 9 -17 27 -21 42 -3 15 -9 34 -15 42 -19 30 -31 66 -39 115 -4 27 -13
51 -19 53 -19 6 -12 22 9 22 11 0 23 7 27 16 8 22 98 63 115 53 15 -10 119 -4
226 13 40 6 74 9 77 7 2 -3 -17 -20 -42 -39 -26 -19 -55 -47 -66 -61 -22 -31
-36 -142 -18 -153 6 -4 11 -16 11 -27 0 -10 4 -19 9 -19 15 0 18 44 5 75 -7
17 -13 42 -14 56 0 27 21 54 33 42 4 -3 7 1 7 10 0 10 -6 17 -12 17 -9 0 -8 4
2 10 8 5 35 8 60 6 25 -2 37 -2 28 1 -10 2 -18 11 -18 19 0 22 40 32 79 22 22
-6 61 -6 115 2 44 7 111 15 148 19 38 4 74 13 85 23 14 13 31 15 83 9 36 -3
64 -10 62 -16 -2 -5 7 -12 20 -16 21 -5 22 -6 5 -15 -17 -10 -17 -12 -2 -24 9
-7 28 -14 43 -16 15 -1 34 -3 42 -4 8 -1 2 -8 -15 -15 -19 -9 -24 -14 -12 -15
9 0 17 -5 17 -10 0 -6 10 -15 23 -20 21 -9 21 -9 -4 -9 -16 -1 -29 6 -33 15
-3 8 -14 14 -23 13 -10 0 -29 0 -43 1 -23 1 -23 2 -5 9 11 5 27 6 35 4 10 -3
9 0 -3 7 -9 6 -43 13 -73 15 -33 2 -60 8 -65 16 -6 10 -11 11 -16 3 -5 -6 -15
-14 -23 -18 -8 -3 -3 -4 12 -1 29 6 47 -9 23 -19 -19 -7 -19 -35 0 -42 8 -4
15 -10 15 -15 0 -4 -7 -5 -17 -2 -11 5 -14 3 -9 -6 5 -7 17 -10 28 -8 11 3 28
2 37 -3 9 -5 28 -11 44 -15 25 -5 39 -25 17 -25 -5 0 -10 5 -10 11 0 5 -4 7
-10 4 -21 -13 -10 -54 20 -75 17 -12 30 -17 30 -11 0 6 -9 16 -20 23 -30 19
-24 28 9 15 19 -7 27 -16 24 -27 -5 -17 23 -47 34 -37 3 4 12 2 19 -4 16 -13
68 -3 59 11 -3 6 -14 10 -23 10 -15 0 -15 -2 -2 -10 24 -16 -4 -11 -38 6 -34
17 -50 34 -31 34 8 0 8 4 -1 15 -7 8 -19 15 -26 15 -8 0 -14 5 -14 10 0 6 28
10 63 11 34 1 79 3 101 5 24 2 48 -3 64 -14 25 -16 26 -16 19 1 -5 13 -1 17
13 17 11 0 20 5 20 11 0 5 -12 9 -27 8 -57 -4 -75 0 -69 17 3 8 2 13 -2 10 -4
-2 -18 2 -32 10 -24 14 -23 15 24 10 27 -4 57 -12 65 -20 9 -7 52 -17 96 -21
73 -7 78 -6 66 9 -11 13 -11 20 -3 28 9 9 12 9 12 0 0 -8 18 -12 50 -12 28 0
50 4 50 8 0 7 -112 31 -152 33 -10 0 -20 4 -23 10 -4 5 -19 9 -36 9 -16 0 -38
9 -49 20 -11 11 -26 20 -34 20 -16 0 -42 28 -33 36 3 3 47 1 99 -4 74 -7 102
-14 133 -35 22 -14 54 -29 70 -32 29 -6 28 -5 -7 15 -21 11 -38 23 -38 25 0 3
18 5 40 5 38 0 40 -1 40 -31 0 -24 4 -30 15 -25 10 3 15 -1 15 -14 0 -10 9
-22 20 -25 26 -8 26 -25 -1 -25 -14 0 -19 -5 -17 -17 2 -9 -8 -28 -20 -41
l-24 -23 38 -34 c36 -32 37 -34 15 -35 -13 0 -50 -7 -84 -16 -54 -14 -62 -14
-75 0 -14 14 -14 17 3 36 10 11 30 20 45 20 32 0 61 26 32 28 -70 5 -126 -50
-97 -94 14 -22 14 -23 -28 -27 -35 -3 -32 -4 18 -6 34 -1 68 -8 79 -16 26 -20
42 -19 26 0 -18 22 -8 27 35 19 27 -5 33 -9 23 -16 -9 -7 -2 -8 21 -4 19 4 66
9 105 13 74 7 100 21 90 48 -9 22 -49 16 -48 -8 1 -9 0 -17 -3 -17 -12 0 -43
22 -43 31 0 6 5 7 12 3 7 -5 8 -3 3 5 -5 8 -18 11 -37 7 -16 -3 -38 0 -48 7
-24 14 -27 32 -5 23 9 -3 18 1 21 9 4 8 12 15 20 15 24 0 64 23 64 37 0 7 -10
13 -22 13 -13 0 -30 5 -38 10 -11 7 -1 10 35 10 28 0 61 7 74 14 l23 13 -23
22 c-20 19 -21 23 -9 31 8 5 30 10 48 10 17 0 32 5 32 11 0 28 51 51 65 29 3
-5 21 -10 40 -10 18 0 40 -3 49 -6 21 -8 20 -34 -1 -34 -13 0 -14 -3 -5 -12
29 -29 3 -32 -72 -11 -16 5 -17 3 -5 -10 8 -8 16 -13 18 -11 2 1 10 -3 17 -11
8 -8 22 -11 31 -8 12 5 15 2 10 -10 -8 -22 29 -33 59 -16 27 14 33 56 8 66 -8
3 -13 11 -10 18 3 8 -2 16 -10 19 -9 3 -12 10 -9 16 8 13 51 13 77 -1 23 -13
31 -8 22 14 -4 12 -22 17 -67 19 -60 3 -89 23 -35 23 15 1 33 6 40 13 17 17
55 15 66 -4 6 -10 26 -17 60 -18 49 -3 65 5 41 20 -26 16 11 23 65 13 32 -6
61 -8 64 -5 3 3 -4 6 -16 6 -13 0 -22 6 -22 15 0 18 -52 33 -58 17 -7 -23 -52
-13 -64 13 -9 19 -19 25 -44 25 -18 0 -36 5 -39 10 -11 18 97 8 130 -11z
m1125 6 c-7 -9 -15 -13 -17 -11 -7 7 7 26 19 26 6 0 6 -6 -2 -15z m-3037 -4
c10 -1 15 -5 12 -11 -3 -5 -16 -9 -28 -9 -12 1 -42 -6 -66 -15 -24 -9 -51 -16
-60 -15 -9 0 -4 5 12 11 15 5 27 14 27 19 0 5 7 9 15 9 8 0 15 4 15 9 0 5 12
8 28 6 15 -2 35 -4 45 -4z m247 -1 c0 -5 -13 -10 -30 -10 -16 0 -30 -4 -30 -9
0 -12 -90 -31 -138 -30 l-37 1 38 10 c20 6 37 14 37 19 0 4 -8 6 -17 3 -15 -5
-15 -4 1 6 11 8 21 9 25 3 8 -12 91 -4 91 8 0 5 14 9 30 9 17 0 30 -4 30 -10z
m635 0 c3 -5 1 -10 -4 -10 -6 0 -11 5 -11 10 0 6 2 10 4 10 3 0 8 -4 11 -10z
m115 -14 c0 -2 -11 -1 -25 2 -14 2 -22 8 -19 13 4 8 44 -6 44 -15z m1240 2
c10 -6 4 -8 -19 -4 -18 3 -49 6 -67 6 -19 0 -34 4 -34 10 0 11 98 2 120 -12z
m-1630 2 c0 -5 5 -9 11 -7 6 1 14 -4 16 -10 7 -19 -8 -16 -37 7 -20 16 -22 20
-7 20 9 0 17 -4 17 -10z m475 -11 c5 -5 1 -9 -12 -9 -11 0 -27 7 -34 16 -12
15 -11 16 11 9 14 -4 29 -11 35 -16z m1533 15 c32 -9 27 -26 -5 -18 -32 8 -55
24 -32 24 7 0 24 -3 37 -6z m322 -45 c0 -10 8 -22 17 -28 10 -5 15 -12 12 -15
-10 -10 -39 5 -39 19 0 16 -39 64 -40 48 0 -6 5 -15 10 -18 13 -8 13 -25 0
-25 -18 0 -32 39 -18 54 11 11 16 11 35 -1 13 -9 23 -24 23 -34z m59 -6 c1 -7
-3 -13 -9 -13 -5 0 -10 17 -9 38 1 33 2 34 9 12 4 -14 8 -31 9 -37z m-2429 38
c0 -13 -19 -18 -51 -13 -16 2 -26 8 -23 13 7 12 74 12 74 0z m1755 -1 c15 0
17 -3 7 -9 -9 -5 0 -11 30 -16 26 -5 36 -10 25 -12 -26 -7 -87 6 -87 17 0 6
-6 10 -14 10 -8 0 -18 5 -22 12 -5 8 0 9 17 5 13 -4 33 -7 44 -7z m118 -1 c31
-7 54 -16 51 -20 -3 -5 -1 -9 5 -9 6 0 15 -9 21 -20 10 -19 9 -20 -17 -16 -15
2 -32 5 -36 5 -5 1 -6 4 -4 9 6 12 -26 37 -53 40 -14 2 -29 8 -34 13 -13 12
-2 12 67 -2z m277 -4 c7 -8 9 -15 5 -15 -5 0 0 -9 10 -20 10 -11 14 -20 8 -20
-5 0 -18 9 -28 20 -10 11 -15 20 -10 20 4 0 2 7 -5 15 -7 8 -8 15 -2 15 5 0
15 -7 22 -15z m451 -35 c5 0 8 -54 7 -127 0 -71 -3 -112 -5 -93 -2 19 -11 69
-20 110 -9 41 -16 83 -15 93 0 9 -5 17 -11 17 -7 0 -4 5 6 11 9 5 18 18 18 27
1 9 4 5 6 -10 2 -16 9 -28 14 -28z m-3624 8 c-3 -7 -5 -2 -5 12 0 14 2 19 5
13 2 -7 2 -19 0 -25z m2271 20 c-3 -8 -21 -13 -43 -13 -22 0 -40 5 -42 13 -3
8 9 12 42 12 33 0 45 -4 43 -12z m365 5 c-7 -2 -19 -2 -25 0 -7 3 -2 5 12 5
14 0 19 -2 13 -5z m-863 -13 c11 -6 17 -17 14 -24 -3 -8 3 -19 15 -26 25 -13
28 -30 5 -30 -9 0 -18 9 -21 20 -3 12 -18 23 -36 28 -35 9 -46 28 -20 35 10 3
19 5 21 6 2 0 12 -4 22 -9z m-1087 -7 c-7 -2 -19 -2 -25 0 -7 3 -2 5 12 5 14
0 19 -2 13 -5z m97 -3 c0 -5 -7 -10 -16 -10 -8 0 -12 5 -9 10 3 6 10 10 16 10
5 0 9 -4 9 -10z m514 -6 c9 -3 16 -10 16 -16 0 -5 -4 -6 -10 -3 -5 3 -10 1
-10 -4 0 -6 4 -11 9 -11 5 0 12 -11 15 -25 4 -14 13 -25 21 -25 8 0 15 -4 15
-9 0 -15 -30 -21 -51 -11 -11 6 -24 8 -29 5 -20 -12 -31 7 -13 21 11 8 13 13
6 14 -7 0 -13 9 -13 19 0 11 6 22 13 24 6 3 0 6 -15 6 -41 1 -45 21 -4 21 19
0 41 -3 50 -6z m106 -4 c0 -5 -8 -10 -17 -10 -15 0 -16 2 -3 10 19 12 20 12
20 0z m130 0 c0 -5 -4 -10 -10 -10 -5 0 -10 5 -10 10 0 6 5 10 10 10 6 0 10
-4 10 -10z m1586 0 c15 -6 24 -13 22 -16 -3 -3 -21 2 -39 10 -39 16 -24 21 17
6z m-1953 -7 c-7 -2 -21 -2 -30 0 -10 3 -4 5 12 5 17 0 24 -2 18 -5z m1877 -8
c0 -10 10 -15 28 -15 15 0 34 -5 42 -11 11 -8 3 -9 -33 -6 -32 3 -55 12 -68
26 l-20 21 26 0 c16 0 25 -6 25 -15z m-2633 -1 c-3 -3 -12 -4 -19 -1 -8 3 -5
6 6 6 11 1 17 -2 13 -5z m2857 -4 c14 -5 26 -14 26 -20 0 -6 -12 -4 -30 5 -44
23 -42 33 4 15z m-1674 -10 c0 -5 -2 -10 -4 -10 -3 0 -8 5 -11 10 -3 6 -1 10
4 10 6 0 11 -4 11 -10z m-1740 -40 c0 -22 -4 -40 -10 -40 -11 0 -14 63 -3 73
11 12 13 8 13 -33z m3533 -10 c7 -26 5 -26 -22 11 -21 28 -21 30 -3 20 11 -6
22 -20 25 -31z m57 10 c25 -25 25 -52 1 -74 -19 -17 -20 -17 -30 3 -15 26 -14
48 2 54 8 3 6 10 -8 21 -18 14 -18 15 -2 16 9 0 26 -9 37 -20z m-1677 -9 c23
-19 13 -30 -27 -27 -38 3 -56 12 -56 29 0 17 63 15 83 -2z m1578 -22 c6 -11 9
-23 6 -25 -7 -7 -57 41 -57 54 0 18 37 -3 51 -29z m149 21 c0 -5 -4 -10 -10
-10 -5 0 -10 5 -10 10 0 6 5 10 10 10 6 0 10 -4 10 -10z m89 -39 c5 -24 6 -39
1 -35 -9 10 -26 92 -17 84 3 -3 10 -25 16 -49z m-189 -20 c0 -12 -6 -9 -20 9
-26 33 -26 48 0 25 11 -10 20 -25 20 -34z m-1909 0 c22 -9 22 -10 4 -12 -11
-1 -24 -1 -29 0 -6 1 -27 3 -48 3 -20 0 -45 6 -54 13 -15 10 -7 12 43 9 33 -2
71 -8 84 -13z m-301 -20 c41 -11 76 -18 78 -16 5 5 62 -23 62 -30 0 -13 -207
12 -216 26 -3 5 -15 9 -27 9 -23 1 -57 21 -57 35 0 10 74 0 160 -24z m-1329
-93 c-1 -57 -1 -119 0 -138 0 -45 -9 -80 -22 -80 -7 0 -9 47 -5 143 3 78 5
150 5 160 1 9 6 17 12 17 6 0 10 -36 10 -102z m3699 20 c0 -90 -9 -104 -11
-17 -2 69 0 99 6 99 3 0 5 -37 5 -82z m-3533 15 c-3 -10 -5 -2 -5 17 0 19 2
27 5 18 2 -10 2 -26 0 -35z m3437 -35 l-5 -33 15 25 15 25 2 -25 c1 -14 1 -50
0 -80 -4 -70 -21 -92 -21 -26 0 65 -25 58 -26 -8 -1 -26 -5 -50 -9 -54 -4 -4
-5 2 -3 14 1 11 -1 20 -7 20 -5 -1 -10 -14 -11 -31 -2 -52 -25 -145 -36 -145
-5 0 -8 7 -5 14 4 11 1 13 -10 9 -13 -5 -15 -3 -8 13 4 10 9 30 12 44 3 21 1
19 -11 -7 -8 -18 -17 -33 -19 -33 -4 0 27 106 42 145 30 76 77 165 88 165 1 0
0 -15 -3 -32z m-1704 12 c0 -5 -12 -10 -27 -10 -22 0 -25 2 -13 10 20 13 40
13 40 0z m-1729 -58 c-2 -49 -21 -86 -21 -41 0 38 12 100 18 94 3 -3 5 -27 3
-53z m3274 -88 c-8 -20 -15 -38 -15 -39 0 -2 -7 -6 -16 -9 -15 -6 -15 -4 -2
16 8 13 20 33 27 46 19 35 23 26 6 -14z m-3131 -21 c9 -18 13 -33 8 -33 -11 0
-43 56 -35 64 8 7 7 9 27 -31z m-183 -43 c-3 -25 -10 -40 -14 -34 -4 7 -4 33
0 59 3 28 9 42 13 34 4 -8 5 -34 1 -59z m3618 -117 c1 -49 -3 -83 -9 -83 -6 0
-9 50 -9 133 1 103 3 121 9 82 5 -27 9 -87 9 -132z m-3542 125 c-3 -7 -5 -2
-5 12 0 14 2 19 5 13 2 -7 2 -19 0 -25z m3491 -48 c0 -19 -2 -26 -5 -15 -2 11
-9 30 -15 42 -6 12 -7 30 -3 40 7 16 9 15 15 -7 5 -14 8 -41 8 -60z m-288 33
c-1 -13 -29 -59 -30 -48 0 21 13 55 21 55 5 0 9 -3 9 -7z m-3070 -30 c0 -8 -8
-28 -17 -46 l-18 -32 -3 39 c-2 21 -1 44 2 52 7 17 36 7 36 -13z m3280 5 c0
-7 -5 -20 -10 -28 -8 -12 -10 -9 -10 13 0 15 5 27 10 27 6 0 10 -6 10 -12z
m-306 -33 c11 -8 17 -17 14 -21 -8 -8 -48 14 -48 26 0 14 12 12 34 -5z m-3254
-21 c0 -17 12 -18 28 -2 9 9 12 8 12 -4 0 -24 -11 -48 -21 -48 -5 0 -9 7 -9
15 0 8 -4 15 -10 15 -5 0 -10 -7 -10 -15 0 -8 -5 -15 -11 -15 -7 0 -9 14 -5
38 3 20 5 38 6 40 1 10 20 -12 20 -24z m3625 -88 c2 -53 1 -94 -4 -92 -5 3 -9
49 -10 103 -3 125 7 117 14 -11z m-81 19 c-16 -11 -20 -10 -31 4 -20 26 -15
39 15 43 33 4 43 -26 16 -47z m-3315 -27 c-1 -13 -4 -36 -8 -53 -7 -29 -7 -28
-13 15 -4 24 -4 48 -2 52 10 16 24 7 23 -14z m221 -12 c0 -6 -9 -22 -20 -36
l-20 -25 0 42 c0 36 2 41 20 36 11 -3 20 -10 20 -17z m-129 -9 c-6 -8 -8 -16
-5 -20 3 -3 3 -25 -2 -49 l-7 -43 -8 30 c-10 33 6 95 23 95 7 0 7 -5 -1 -13z
m2919 9 c0 -20 -22 -56 -35 -56 -18 0 -19 14 -3 40 11 17 38 28 38 16z m-2480
-22 c0 -8 -4 -12 -10 -9 -5 3 -10 10 -10 16 0 5 5 9 10 9 6 0 10 -7 10 -16z
m27 -6 c-3 -8 -6 -5 -6 6 -1 11 2 17 5 13 3 -3 4 -12 1 -19z m2730 -20 c-3 -8
-6 -5 -6 6 -1 11 2 17 5 13 3 -3 4 -12 1 -19z m-3498 -75 c-1 -49 -3 -79 -6
-68 -3 11 -9 24 -14 29 -18 19 -7 126 12 126 5 0 8 -39 8 -87z m491 54 c0 -5
-4 -5 -10 -2 -5 3 -10 14 -10 23 0 15 2 15 10 2 5 -8 10 -19 10 -23z m170 17
c0 -8 -4 -12 -10 -9 -5 3 -10 10 -10 16 0 5 5 9 10 9 6 0 10 -7 10 -16z m2994
-44 c8 0 17 15 21 33 l8 32 8 -40 c12 -59 11 -125 -1 -103 -6 9 -24 31 -41 48
-19 19 -29 36 -25 46 3 9 7 23 8 32 0 9 3 2 5 -15 2 -19 10 -33 17 -33z m-604
-26 c0 -7 -7 -14 -15 -18 -12 -4 -15 4 -14 42 l1 47 13 -30 c8 -16 14 -35 15
-41z m305 -3 c-8 -37 -16 -107 -18 -154 -5 -91 -26 -158 -26 -82 0 77 39 305
53 305 2 0 -2 -31 -9 -69z m-2795 55 c0 -3 -4 -8 -10 -11 -5 -3 -10 -1 -10 4
0 6 5 11 10 11 6 0 10 -2 10 -4z m187 -18 c-3 -8 -6 -5 -6 6 -1 11 2 17 5 13
3 -3 4 -12 1 -19z m60 0 c-3 -8 -6 -5 -6 6 -1 11 2 17 5 13 3 -3 4 -12 1 -19z
m-144 5 c10 -18 18 -148 9 -138 -9 8 -32 109 -32 137 0 10 17 11 23 1z m184
-15 c-3 -8 -6 -5 -6 6 -1 11 2 17 5 13 3 -3 4 -12 1 -19z m2353 8 c0 -16 -18
-31 -27 -22 -8 8 5 36 17 36 5 0 10 -6 10 -14z m176 -73 l-16 -48 5 50 c4 28
9 59 13 70 6 19 6 19 10 -2 2 -11 -4 -43 -12 -70z m-2944 -95 c-2 -32 -8 -58
-13 -58 -11 0 -12 118 -1 186 l7 49 5 -60 c3 -33 3 -86 2 -117z m78 65 c-9
-14 -10 -10 -6 22 3 22 7 51 8 65 1 14 3 4 5 -22 2 -26 -1 -56 -7 -65z m1810
62 c0 -24 -5 -35 -15 -35 -18 0 -18 -1 -4 39 14 40 19 39 19 -4z m994 20 c-4
-8 -8 -15 -10 -15 -2 0 -4 7 -4 15 0 8 4 15 10 15 5 0 7 -7 4 -15z m-3164 -21
c0 -14 -4 -23 -10 -19 -5 3 -10 15 -10 26 0 10 5 19 10 19 6 0 10 -12 10 -26z
m115 -4 c3 -5 1 -10 -4 -10 -6 0 -11 5 -11 10 0 6 2 10 4 10 3 0 8 -4 11 -10z
m3153 -49 c-5 -29 -20 -76 -33 -105 -19 -42 -24 -46 -24 -25 -1 33 55 196 65
187 1 -2 -2 -27 -8 -57z m-2812 -38 c-15 -15 -21 8 -12 47 l11 45 3 -44 c2
-23 1 -45 -2 -48z m2577 67 c-3 -11 -7 -20 -9 -20 -2 0 -4 9 -4 20 0 11 4 20
9 20 5 0 7 -9 4 -20z m-3017 -173 c-9 -62 -16 -131 -16 -153 0 -61 -11 -109
-21 -92 -15 23 -10 163 6 194 8 16 15 47 15 70 0 23 3 70 7 105 l7 64 9 -38
c6 -26 4 -72 -7 -150z m-80 126 c-10 -26 -18 -8 -9 23 5 21 8 24 11 11 2 -10
1 -25 -2 -34z m624 -163 c-15 -210 -19 -253 -30 -270 -20 -32 -20 -35 17 415
5 62 7 66 15 40 5 -18 5 -90 -2 -185z m89 -95 c0 -38 -7 -97 -15 -130 -14 -59
-14 -58 -10 82 3 84 1 145 -5 148 -5 4 -9 52 -8 108 l1 102 19 -120 c10 -66
18 -151 18 -190z m2662 254 c-5 -26 -9 -34 -10 -19 -1 27 9 73 15 67 2 -2 0
-23 -5 -48z m-3324 19 c-3 -8 -6 -5 -6 6 -1 11 2 17 5 13 3 -3 4 -12 1 -19z
m155 -39 c-3 -33 -8 -49 -18 -49 -7 0 -16 -11 -20 -25 -3 -14 -10 -25 -15 -25
-12 0 -11 17 2 25 5 4 9 19 8 33 -1 15 -1 43 -1 63 2 32 5 36 25 32 20 -4 22
-9 19 -54z m3338 29 c0 -5 -4 -6 -10 -3 -5 3 -10 0 -10 -7 0 -10 -2 -10 -9 1
-14 22 -2 44 15 30 8 -6 14 -16 14 -21z m-2765 -85 c-7 -16 -9 -15 -15 7 -5
14 -8 43 -8 65 l-1 40 16 -47 c9 -27 12 -55 8 -65z m67 74 c-5 -20 -6 -20 -13
-1 -11 29 -10 34 5 28 8 -3 12 -13 8 -27z m118 23 c0 -5 -4 -10 -10 -10 -5 0
-10 5 -10 10 0 6 5 10 10 10 6 0 10 -4 10 -10z m170 0 c0 -6 -11 -10 -25 -10
-14 0 -25 4 -25 8 0 4 11 9 25 10 14 1 25 -3 25 -8z m769 -37 c0 -42 -1 -45
-10 -23 -9 23 -5 70 6 70 3 0 5 -21 4 -47z m1505 32 c3 -8 1 -15 -4 -15 -6 0
-10 7 -10 15 0 8 2 15 4 15 2 0 6 -7 10 -15z m-3517 -7 c0 -7 4 -61 8 -120 5
-72 4 -108 -2 -108 -6 0 -13 10 -17 23 -9 34 -7 217 2 217 5 0 9 -6 9 -12z
m2887 -3 c-4 -8 -10 -12 -15 -9 -14 8 -10 24 6 24 9 0 12 -6 9 -15z m-2482
-27 c-9 -9 -12 -7 -12 12 0 19 3 21 12 12 9 -9 9 -15 0 -24z m2108 11 c0 -6
-4 -7 -10 -4 -5 3 -10 11 -10 16 0 6 5 7 10 4 6 -3 10 -11 10 -16z m569 -27
c9 -39 10 -63 0 -118 -7 -38 -16 -73 -20 -78 -4 -5 -9 48 -11 118 -3 135 8
165 31 78z m-2051 13 c-3 -3 -9 2 -12 12 -6 14 -5 15 5 6 7 -7 10 -15 7 -18z
m722 -5 c-18 -11 -22 -7 -14 14 5 13 10 14 18 6 8 -8 7 -13 -4 -20z m556 -7
c-11 -11 -19 6 -11 24 8 17 8 17 12 0 3 -10 2 -21 -1 -24z m524 28 c0 -12 -20
-25 -27 -18 -7 7 6 27 18 27 5 0 9 -4 9 -9z m-1997 -43 c3 -21 2 -38 -4 -38
-5 0 -9 19 -9 42 0 49 5 47 13 -4z m175 -38 c0 -22 -1 -22 -8 5 -4 17 -8 41
-8 55 0 22 1 22 8 -5 4 -16 8 -41 8 -55z m1772 66 c0 -14 -29 -26 -63 -26 -26
0 -16 23 14 31 38 11 49 10 49 -5z m217 -28 c-6 -24 -10 -59 -9 -78 1 -30 -6
-62 -34 -149 -11 -33 -12 1 -4 96 5 56 13 110 19 120 5 10 12 26 15 36 3 9 10
17 15 17 5 0 4 -18 -2 -42z m535 0 c-6 -6 -7 0 -4 19 5 21 7 23 10 9 2 -10 0
-22 -6 -28z m-3033 -4 c-10 -23 -13 -25 -16 -11 -3 10 1 25 8 33 17 21 21 11
8 -22z m2151 16 c0 -5 -2 -10 -4 -10 -3 0 -8 5 -11 10 -3 6 -1 10 4 10 6 0 11
-4 11 -10z m577 -12 c-3 -8 -6 -5 -6 6 -1 11 2 17 5 13 3 -3 4 -12 1 -19z
m-2556 -134 l-8 -109 -1 130 c0 82 2 122 8 109 5 -12 5 -70 1 -130z m1774 97
c2 -22 -1 -43 -6 -46 -5 -4 -10 6 -11 22 0 15 -2 35 -3 43 -2 18 5 33 12 27 2
-3 6 -23 8 -46z m455 39 c0 -5 -5 -10 -11 -10 -5 0 -7 5 -4 10 3 6 8 10 11 10
2 0 4 -4 4 -10z m-354 -15 c-3 -8 -1 -15 4 -15 6 0 10 -4 10 -10 0 -16 -47
-11 -54 6 -11 27 -7 34 20 34 19 0 25 -4 20 -15z m-1928 -105 c-2 -60 -1 -110
4 -110 4 0 8 -9 8 -20 0 -11 -5 -20 -11 -20 -8 0 -9 -13 -5 -40 4 -25 2 -40
-4 -40 -6 0 -10 42 -10 109 0 121 -8 180 -21 159 -7 -10 -9 -9 -9 5 0 9 5 17
10 17 6 0 15 11 20 25 18 47 23 25 18 -85z m2561 68 c-1 -40 -1 -41 -9 -15 -8
26 -4 57 6 57 2 0 4 -19 3 -42z m420 24 c11 -20 18 -109 9 -117 -3 -4 -9 21
-13 55 -5 39 -11 60 -19 57 -7 -3 -10 -42 -9 -128 l1 -124 -10 95 c-12 118
-12 148 3 166 15 19 26 18 38 -4z m120 -57 c0 -5 -8 6 -19 25 -11 19 -19 40
-19 45 0 6 8 -6 19 -25 11 -19 19 -39 19 -45z m-2619 -30 c16 -49 56 -93 71
-78 7 7 7 28 0 69 -13 71 -14 94 -2 94 14 0 43 -32 35 -39 -4 -3 -9 0 -11 7
-6 17 -23 15 -23 -3 0 -8 9 -19 20 -25 17 -9 20 -21 20 -82 0 -59 -2 -69 -14
-59 -22 18 -46 -24 -47 -84 -2 -36 -4 -26 -9 36 -4 47 -10 91 -14 97 -12 20
-32 13 -43 -15 -11 -27 -11 -27 -11 12 0 22 -3 69 -7 105 -5 61 -5 63 8 35 8
-16 20 -48 27 -70z m480 75 c0 -11 -7 -20 -15 -20 -8 0 -15 2 -15 4 0 2 -3 11
-6 20 -4 12 0 16 15 16 14 0 21 -6 21 -20z m180 10 c0 -5 -9 -10 -21 -10 -11
0 -17 5 -14 10 3 6 13 10 21 10 8 0 14 -4 14 -10z m35 0 c3 -5 1 -10 -4 -10
-6 0 -11 5 -11 10 0 6 2 10 4 10 3 0 8 -4 11 -10z m1019 -11 c-3 -5 -10 -7
-15 -3 -5 3 -7 10 -3 15 3 5 10 7 15 3 5 -3 7 -10 3 -15z m-1687 -11 c-3 -8
-6 -5 -6 6 -1 11 2 17 5 13 3 -3 4 -12 1 -19z m377 7 c3 -8 1 -15 -4 -15 -6 0
-10 7 -10 15 0 8 2 15 4 15 2 0 6 -7 10 -15z m825 -62 c8 -47 9 -88 3 -133
l-10 -65 0 65 c0 36 -8 91 -16 122 -15 54 -13 94 3 83 4 -2 13 -35 20 -72z
m592 24 c-8 -8 -11 -4 -11 14 0 33 14 47 18 19 2 -12 -1 -27 -7 -33z m218 11
c-1 -41 -1 -42 -11 -15 -5 15 -7 34 -4 42 10 27 16 16 15 -27z m78 -14 c-14
-45 -19 -37 -11 15 4 25 10 38 14 31 4 -7 3 -27 -3 -46z m247 -109 c-6 -181
-22 -229 -23 -66 -1 102 -3 122 -15 118 -8 -3 -17 1 -20 9 -10 25 -7 34 8 28
11 -4 18 7 27 38 19 69 27 22 23 -127z m-3418 82 c1 -28 5 -101 8 -162 4 -80
3 -102 -4 -80 -6 17 -13 86 -16 155 -3 69 -7 134 -9 144 -3 14 -1 16 8 7 6 -6
12 -35 13 -64z m255 -103 c-6 -33 -11 -85 -11 -114 0 -79 -7 -57 -15 45 -3 49
-11 95 -16 101 -13 16 0 84 17 91 8 3 14 13 14 22 0 10 3 21 8 25 12 13 14
-104 3 -170z m1779 156 c0 -5 -2 -10 -4 -10 -3 0 -8 5 -11 10 -3 6 -1 10 4 10
6 0 11 -4 11 -10z m-110 -10 c0 -5 -4 -10 -10 -10 -5 0 -10 5 -10 10 0 6 5 10
10 10 6 0 10 -4 10 -10z m230 -9 c0 -11 -4 -23 -10 -26 -6 -4 -10 5 -10 19 0
14 5 26 10 26 6 0 10 -9 10 -19z m458 -11 c21 0 31 -73 12 -85 -6 -3 -10 4
-10 17 -1 54 -41 63 -60 13 -5 -14 -12 -25 -15 -25 -8 0 6 51 23 84 13 27 16
28 27 13 7 -9 17 -17 23 -17z m198 0 c1 -16 -5 -31 -12 -34 -6 -2 -15 -18 -19
-35 -4 -17 -11 -31 -17 -31 -6 0 -7 7 -4 16 3 9 6 35 6 59 0 42 2 45 40 54 3
0 5 -12 6 -29z m-1839 -2 c-3 -8 -6 -5 -6 6 -1 11 2 17 5 13 3 -3 4 -12 1 -19z
m706 2 c-3 -11 -7 -20 -9 -20 -2 0 -4 9 -4 20 0 11 4 20 9 20 5 0 7 -9 4 -20z
m827 10 c0 -5 -5 -10 -11 -10 -5 0 -7 5 -4 10 3 6 8 10 11 10 2 0 4 -4 4 -10z
m190 -15 c0 -18 5 -25 19 -25 17 0 18 -5 10 -47 -15 -80 -21 -81 -35 -8 -16
88 -16 105 -4 105 6 0 10 -11 10 -25z m-1330 -6 c0 -5 -11 -9 -25 -9 -14 0
-25 6 -25 14 0 9 8 12 25 8 14 -2 25 -8 25 -13z m670 0 c0 -11 -4 -17 -10 -14
-5 3 -10 13 -10 21 0 8 5 14 10 14 6 0 10 -9 10 -21z m-1687 -94 c-5 -94 -4
-105 10 -105 10 0 17 -7 17 -15 0 -8 -5 -15 -10 -15 -16 0 -31 -45 -45 -135
-10 -62 -13 -71 -14 -38 0 23 -5 53 -11 67 -6 16 -6 35 -1 50 14 34 41 200 41
244 0 34 6 52 17 52 1 0 0 -47 -4 -105z m567 89 c0 -8 -5 -12 -10 -9 -6 4 -8
11 -5 16 9 14 15 11 15 -7z m1170 -4 c0 -11 -4 -20 -10 -20 -5 0 -10 9 -10 20
0 11 5 20 10 20 6 0 10 -9 10 -20z m360 -10 c0 -16 -4 -30 -10 -30 -5 0 -10
14 -10 30 0 17 5 30 10 30 6 0 10 -13 10 -30z m-2153 -2 c-3 -8 -6 -5 -6 6 -1
11 2 17 5 13 3 -3 4 -12 1 -19z m1683 18 c0 -3 -4 -8 -10 -11 -5 -3 -10 -1
-10 4 0 6 5 11 10 11 6 0 10 -2 10 -4z m-729 -52 c6 -7 7 -41 3 -78 -5 -44 -3
-66 4 -66 6 0 13 12 15 28 2 15 5 -1 6 -36 2 -108 21 -60 21 54 0 63 4 104 10
104 6 0 10 6 10 14 0 8 8 13 18 11 9 -2 20 -4 25 -4 4 -1 7 -42 7 -92 0 -77 2
-90 15 -85 8 3 15 1 15 -5 0 -6 7 -17 16 -26 8 -9 13 -22 10 -30 -3 -8 -6 -36
-6 -61 0 -30 -3 -42 -9 -33 -7 11 -13 10 -35 -4 l-26 -17 0 30 c0 22 4 29 18
28 14 -1 17 8 19 49 2 52 0 52 -13 0 l-7 -30 -7 30 c-4 17 -8 72 -9 123 0 50
-5 92 -9 92 -19 0 -32 -27 -31 -64 0 -31 2 -36 9 -21 5 14 9 -3 11 -52 3 -50
0 -74 -8 -77 -7 -3 -21 -24 -32 -48 l-20 -43 -3 43 c-2 35 -8 47 -31 60 -24
15 -29 15 -38 2 -7 -11 -9 -3 -5 28 14 104 19 124 33 129 10 4 13 17 9 52 -3
25 -3 37 0 26 4 -11 10 -25 15 -31z m615 22 c1 -10 7 -23 13 -29 12 -12 15
-60 4 -70 -3 -4 -14 15 -23 41 -9 26 -21 55 -25 66 -6 14 -4 17 10 15 10 -2
19 -12 21 -23z m-249 -8 c-3 -8 -6 -5 -6 6 -1 11 2 17 5 13 3 -3 4 -12 1 -19z
m98 -98 c-4 -77 -3 -120 3 -120 14 0 22 26 22 76 0 24 5 44 10 44 6 0 10 -28
10 -64 0 -47 -4 -65 -15 -70 -8 -3 -21 -20 -29 -38 l-14 -33 -1 47 c-1 26 -6
50 -12 54 -18 11 4 224 24 224 6 0 7 -42 2 -120z m656 57 c-13 -13 -14 5 -3
43 l7 25 3 -29 c2 -16 -1 -33 -7 -39z m49 20 c0 -4 -7 -2 -15 7 -8 8 -15 21
-15 28 1 14 30 -20 30 -35z m-1431 -22 c16 5 19 -3 26 -67 3 -40 3 -74 -2 -75
-26 -9 -30 1 -57 167 l-6 35 10 -33 c8 -26 15 -32 29 -27z m474 30 c-7 -21
-13 -19 -13 6 0 11 4 18 10 14 5 -3 7 -12 3 -20z m77 -15 c0 -13 -1 -13 -10 0
-5 8 -10 22 -10 30 0 13 1 13 10 0 5 -8 10 -22 10 -30z m140 24 c0 -8 -5 -12
-10 -9 -6 4 -8 11 -5 16 9 14 15 11 15 -7z m500 -39 l-8 -40 -1 50 c-1 29 3
45 8 40 5 -6 6 -28 1 -50z m59 5 c0 -8 -8 -31 -19 -50 l-19 -35 -1 52 c0 28 3
59 6 67 6 15 8 15 20 -1 7 -10 13 -25 13 -33z m365 28 c9 -34 7 -98 -3 -98 -4
0 -16 -30 -26 -67 -24 -92 -41 -110 -38 -40 4 82 37 227 52 227 5 0 11 -10 15
-22z m-1777 -25 c-3 -10 -5 -4 -5 12 0 17 2 24 5 18 2 -7 2 -21 0 -30z m-357
18 c0 -6 -4 -12 -9 -15 -4 -3 -11 -39 -14 -80 -4 -57 -10 -79 -26 -95 -26 -26
-26 -16 -2 73 11 39 22 83 25 99 6 25 26 39 26 18z m1634 -6 c14 -36 27 -194
18 -212 -6 -10 -13 -58 -18 -108 -5 -60 -9 -82 -14 -65 -4 14 -2 57 3 96 8 56
7 94 -6 179 -9 59 -14 111 -11 116 8 14 21 11 28 -6z m746 -5 c0 -11 -4 -20
-9 -20 -5 0 -7 9 -4 20 3 11 7 20 9 20 2 0 4 -9 4 -20z m777 -32 c-2 -13 -4
-5 -4 17 -1 22 1 32 4 23 2 -10 2 -28 0 -40z m-2147 -3 c-13 -55 -12 -152 1
-161 17 -10 28 8 48 76 9 35 20 60 23 54 12 -18 11 -110 0 -137 -7 -16 -12
-40 -13 -55 0 -15 -9 -49 -18 -77 l-18 -50 -8 48 c-4 28 -12 47 -20 47 -9 0
-16 25 -22 78 -10 94 -8 124 13 180 20 52 26 51 14 -3z m543 -75 c3 -77 2
-104 -4 -80 -19 76 -26 152 -15 175 6 13 11 23 12 22 1 -1 4 -54 7 -117z
m1291 82 c-1 -59 -5 -70 -14 -32 -5 20 -4 42 1 52 13 25 14 23 13 -20z m-1374
0 c0 -15 -2 -15 -10 -2 -13 20 -13 33 0 25 6 -3 10 -14 10 -23z m749 -29 c5
-38 11 -48 25 -46 14 1 16 -4 11 -25 -8 -32 -24 -52 -22 -27 1 10 -4 20 -10
22 -8 3 -13 -5 -13 -21 0 -14 -5 -26 -10 -26 -7 0 -10 32 -9 83 3 114 14 131
28 40z m201 31 c0 -22 -2 -25 -15 -14 -12 10 -13 16 -4 26 16 20 19 18 19 -12z
m145 -89 c-9 -41 -20 -75 -24 -75 -5 0 0 37 10 83 10 45 19 89 20 97 1 8 4 5
6 -7 2 -13 -3 -57 -12 -98z m-2318 83 c-3 -8 -6 -5 -6 6 -1 11 2 17 5 13 3 -3
4 -12 1 -19z m1129 -265 l-16 -58 5 103 c3 78 1 102 -8 99 -7 -2 -15 -28 -20
-58 -4 -30 -13 -83 -21 -119 l-14 -65 -1 93 c0 53 3 92 9 92 10 0 22 38 42
140 l13 65 14 -117 c12 -104 12 -122 -3 -175z m567 235 c-7 -61 -10 -68 -23
-48 -14 21 -13 73 1 65 6 -4 13 2 16 14 9 37 12 23 6 -31z m-258 -11 c4 -29 5
-66 3 -82 -2 -18 -8 4 -14 53 -5 45 -7 82 -3 82 4 0 11 -24 14 -53z m771 -60
c-28 -57 -27 -36 2 63 16 52 17 53 20 22 2 -20 -6 -52 -22 -85z m74 67 c0 -31
-7 -54 -20 -71 -23 -30 -25 -20 -9 60 14 69 29 74 29 11z m-1923 -83 c-4 -47
-17 -122 -31 -166 l-25 -80 0 113 c-1 81 2 111 11 110 13 -3 14 0 23 87 6 48
9 56 17 41 7 -12 8 -53 5 -105z m356 77 c-8 -59 -13 -61 -13 -5 0 26 4 47 9
47 5 0 7 -19 4 -42z m-1044 -12 c-9 -8 -10 -7 -5 7 3 10 7 24 7 30 1 7 3 4 6
-7 3 -10 -1 -23 -8 -30z m1578 12 c-3 -7 -5 -2 -5 12 0 14 2 19 5 13 2 -7 2
-19 0 -25z m279 -88 l-12 -115 -6 85 c-5 63 -3 93 8 119 8 19 16 32 18 30 2
-2 -2 -56 -8 -119z m270 58 c-5 -76 -13 -100 -35 -96 -21 4 -25 32 -7 51 8 8
18 28 21 43 19 85 26 85 21 2z m568 28 c-3 -15 -8 -25 -11 -23 -2 3 -1 17 3
31 3 15 8 25 11 23 2 -3 1 -17 -3 -31z m-2173 -1 c5 4 9 5 8 3 -7 -42 -57
-211 -54 -183 3 22 8 78 11 124 5 58 10 78 16 67 5 -9 13 -14 19 -11z m-1021
-13 c0 -15 -2 -15 -10 -2 -13 20 -13 33 0 25 6 -3 10 -14 10 -23z m2752 -24
c-2 -10 -8 -18 -13 -18 -11 0 -12 31 -2 56 6 16 7 16 13 -2 4 -10 5 -27 2 -36z
m-1141 -20 l-9 -33 -1 32 c-1 17 2 40 6 50 12 30 16 -9 4 -49z m101 10 c-3
-61 -12 -60 -12 2 0 29 3 50 7 47 3 -4 6 -26 5 -49z m765 -15 c-2 -16 -4 -5
-4 22 0 28 2 40 4 28 2 -13 2 -35 0 -50z m-1220 -37 c-8 -17 -17 -38 -20 -46
-6 -18 2 85 10 120 5 24 6 24 15 -9 7 -24 5 -42 -5 -65z m-530 32 c-2 -13 -4
-5 -4 17 -1 22 1 32 4 23 2 -10 2 -28 0 -40z m2232 -23 c-12 -76 -28 -108 -31
-59 -2 50 3 77 20 106 9 15 17 26 19 25 1 -2 -2 -34 -8 -72z m-2004 -9 c-8
-73 -24 -109 -25 -55 0 61 12 129 22 122 6 -3 8 -30 3 -67z m812 52 c-3 -8 -6
-5 -6 6 -1 11 2 17 5 13 3 -3 4 -12 1 -19z m1660 0 c-3 -8 -6 -5 -6 6 -1 11 2
17 5 13 3 -3 4 -12 1 -19z m-3247 -9 c0 -5 -4 -9 -10 -9 -5 0 -10 7 -10 16 0
8 5 12 10 9 6 -3 10 -10 10 -16z m1847 -71 c-2 -18 -4 -4 -4 32 0 36 2 50 4
33 2 -18 2 -48 0 -65z m-1737 55 c-1 -24 -2 -26 -11 -10 -5 9 -7 22 -4 27 10
17 15 11 15 -17z m319 -5 c-1 -31 -1 -31 -8 -8 -5 14 -6 28 -4 33 9 15 13 6
12 -25z m51 -42 c0 -32 -6 -59 -16 -72 -14 -18 -15 -16 -10 30 3 27 6 62 6 78
0 17 4 27 10 23 6 -3 10 -30 10 -59z m2900 7 c0 -35 -4 -53 -9 -47 -9 8 -3
104 5 104 2 0 4 -26 4 -57z m-1490 -75 c0 -122 -8 -141 -27 -63 -8 31 -7 44 4
53 8 8 13 35 13 72 0 33 2 60 5 60 3 0 5 -55 5 -122z m465 85 c-8 -31 -13 -39
-20 -31 -9 9 6 58 17 58 6 0 7 -11 3 -27z m690 -123 c4 -26 0 -41 -15 -60
l-20 -25 -1 25 c-1 14 -2 32 -1 40 1 8 2 47 3 85 3 91 12 105 21 30 4 -33 10
-76 13 -95z m-3148 118 c-3 -8 -6 -5 -6 6 -1 11 2 17 5 13 3 -3 4 -12 1 -19z
m987 -61 c4 -42 2 -84 -3 -98 l-10 -24 -1 25 c0 14 -2 58 -3 98 -2 39 0 72 4
72 3 0 9 -33 13 -73z m1103 21 c-2 -13 -4 -5 -4 17 -1 22 1 32 4 23 2 -10 2
-28 0 -40z m138 15 c-19 -119 -29 -162 -37 -151 -20 32 -1 160 27 180 16 12
16 10 10 -29z m1052 15 c-3 -8 -6 -5 -6 6 -1 11 2 17 5 13 3 -3 4 -12 1 -19z
m-1626 -70 c-1 -40 -4 -74 -6 -76 -9 -9 -17 73 -10 114 10 67 19 46 16 -38z
m374 -73 c-12 -28 -13 -23 -13 60 l0 90 13 -60 c10 -49 10 -65 0 -90z m669
118 c-19 -75 -22 -79 -23 -32 -1 45 4 59 21 59 5 0 5 -12 2 -27z m39 12 c-3
-9 -8 -14 -10 -11 -3 3 -2 9 2 15 9 16 15 13 8 -4z m-1788 -75 c0 -52 -4 -80
-11 -80 -12 0 -24 -53 -24 -103 0 -16 -4 -26 -10 -22 -15 9 -12 107 4 146 8
19 17 58 21 87 4 28 10 52 13 52 4 0 7 -36 7 -80z m2742 18 c-2 -13 -4 -3 -4
22 0 25 2 35 4 23 2 -13 2 -33 0 -45z m-3178 -42 c-9 -8 -10 -5 -5 14 3 14 7
39 8 55 1 20 3 16 5 -14 3 -26 -1 -48 -8 -55z m677 7 c1 -49 5 -110 8 -138 10
-74 -9 -34 -24 51 -10 57 -10 82 0 123 6 28 13 51 13 51 1 0 3 -39 3 -87z
m-1047 -120 c1 -45 5 -93 11 -107 8 -22 7 -26 -8 -26 -15 0 -17 16 -19 168 -1
121 1 150 7 107 4 -33 8 -97 9 -142z m296 187 c3 -5 1 -10 -4 -10 -6 0 -11 5
-11 10 0 6 2 10 4 10 3 0 8 -4 11 -10z m842 -57 c-2 -16 -4 -5 -4 22 0 28 2
40 4 28 2 -13 2 -35 0 -50z m82 35 c-3 -39 8 -78 22 -78 5 0 9 -18 9 -40 0
-52 -16 -52 -24 1 -5 29 -12 43 -26 46 -11 3 -20 11 -20 19 0 14 31 84 37 84
2 0 3 -15 2 -32z m-152 -70 c-2 -18 -4 -4 -4 32 0 36 2 50 4 33 2 -18 2 -48 0
-65z m-797 64 c0 -10 -7 -19 -15 -19 -18 0 -19 9 -3 25 16 16 18 15 18 -6z
m1998 -64 c0 -87 -13 -152 -29 -143 -5 4 -9 26 -9 51 0 57 -20 58 -56 4 -31
-47 -44 -39 -43 25 l0 40 12 -29 13 -30 17 24 c9 14 17 34 18 45 0 18 1 18 10
-4 13 -33 34 -13 50 50 7 27 14 49 15 49 1 0 2 -37 2 -82z m-1378 2 c0 -55 -3
-68 -14 -64 -9 4 -19 -11 -32 -47 -16 -45 -20 -48 -25 -28 -12 42 -9 57 10 62
18 4 51 89 51 131 0 9 2 16 5 16 3 0 5 -31 5 -70z m1507 18 c-2 -13 -4 -5 -4
17 -1 22 1 32 4 23 2 -10 2 -28 0 -40z m-1723 -83 c-7 -122 -7 -125 14 -125
17 0 22 9 30 53 l10 52 1 -52 c0 -28 4 -58 7 -67 5 -13 -3 -16 -48 -16 l-55 0
14 93 c7 50 16 113 19 140 12 83 15 51 8 -78z m1126 -7 c-25 -11 -30 -9 -30
12 0 11 -5 20 -10 20 -11 0 -5 35 13 80 9 23 11 19 26 -40 14 -58 14 -66 1
-72z m1030 56 c-12 -43 -30 -60 -30 -27 0 22 34 94 39 81 2 -5 -2 -29 -9 -54z
m74 39 c-6 -25 -24 -56 -24 -41 0 10 22 68 26 68 2 0 1 -12 -2 -27z m39 -45
c-3 -40 -8 -76 -12 -80 -6 -7 -34 -10 -186 -23 -33 -3 -81 -8 -107 -11 -43 -6
-48 -4 -48 12 1 11 9 35 20 54 l19 35 1 -31 c0 -34 19 -57 36 -46 6 4 16 30
21 57 10 53 12 52 29 -32 3 -14 12 -23 24 -23 14 0 21 11 28 43 9 37 10 38 11
12 3 -72 48 -75 67 -5 l12 45 1 -37 c1 -25 6 -38 15 -38 20 0 32 19 50 83 9
31 18 57 21 57 2 0 1 -33 -2 -72z m487 4 c0 -44 -1 -45 -52 -56 -21 -5 -28 -3
-28 9 0 8 5 15 11 15 9 0 22 25 43 85 11 30 26 0 26 -53z m-2824 26 c-3 -18
-6 -77 -7 -130 -2 -58 -7 -99 -13 -101 -6 -2 -24 -4 -41 -3 -27 1 -30 4 -26
31 2 17 7 62 11 100 l7 70 2 -92 c1 -75 4 -93 16 -93 8 0 15 3 15 8 0 19 21
190 26 215 8 38 17 34 10 -5z m961 0 c-3 -7 -5 -2 -5 12 0 14 2 19 5 13 2 -7
2 -19 0 -25z m374 -15 c-3 -41 -5 -44 -12 -25 -5 13 -6 35 -3 48 10 41 19 27
15 -23z m-1441 -121 c-9 -13 -10 -9 -6 23 3 22 7 63 8 90 1 38 3 32 5 -23 2
-42 -1 -79 -7 -90z m1140 89 c0 -67 -1 -69 -27 -76 -16 -3 -49 -20 -75 -37
-45 -28 -56 -30 -164 -35 -105 -4 -116 -3 -110 12 3 9 6 37 6 63 0 53 17 47
22 -8 2 -27 8 -36 26 -38 18 -3 22 2 23 25 l2 28 4 -27 c3 -18 11 -28 21 -28
9 0 27 -3 39 -6 27 -7 44 22 45 77 0 41 18 67 18 27 1 -39 39 -74 54 -50 3 5
8 24 11 43 7 39 15 51 15 23 0 -11 6 -29 14 -39 14 -19 15 -19 35 -1 13 12 23
37 27 67 4 27 8 49 10 49 2 0 4 -31 4 -69z m1620 47 c0 -16 -3 -19 -11 -11 -6
6 -8 16 -5 22 11 17 16 13 16 -11z m-2693 -35 c-3 -10 -5 -2 -5 17 0 19 2 27
5 18 2 -10 2 -26 0 -35z m552 -53 c2 -70 10 -100 27 -100 18 0 29 30 39 105 7
55 8 58 17 30 4 -16 12 -56 16 -87 10 -67 9 -68 -84 -68 -61 0 -64 1 -54 19 5
11 10 42 10 70 0 28 4 51 9 51 5 0 7 19 5 43 -3 33 -2 37 5 17 5 -14 10 -50
10 -80z m1373 54 c-7 -34 -9 -36 -16 -17 -4 12 -2 32 4 43 17 31 22 19 12 -26z
m258 -6 c0 -9 -4 -20 -10 -23 -6 -3 -10 5 -10 19 0 13 -3 33 -6 43 -6 16 -5
16 9 -2 9 -11 17 -28 17 -37z m423 -10 c2 -27 1 -48 -3 -48 -7 0 -20 58 -20
95 0 37 18 0 23 -47z m134 40 c-3 -8 -6 -5 -6 6 -1 11 2 17 5 13 3 -3 4 -12 1
-19z m150 -10 c-3 -7 -5 -2 -5 12 0 14 2 19 5 13 2 -7 2 -19 0 -25z m-2817
-20 c0 -23 -3 -29 -9 -19 -8 12 -4 51 5 51 2 0 4 -15 4 -32z m680 -54 l-8 -29
-1 26 c-1 15 -3 42 -6 60 l-5 34 14 -31 c11 -22 12 -40 6 -60z m1280 76 c0
-17 -45 -120 -52 -120 -11 0 -20 44 -16 71 2 13 9 23 15 22 7 -2 17 6 23 17
11 21 30 27 30 10z m70 -16 c0 -8 -4 -14 -10 -14 -5 0 -10 9 -10 21 0 11 5 17
10 14 6 -3 10 -13 10 -21z m825 -13 c-4 -17 -11 -31 -16 -31 -9 0 -3 43 8 63
10 17 15 -3 8 -32z m22 -13 c-2 -13 -4 -5 -4 17 -1 22 1 32 4 23 2 -10 2 -28
0 -40z m-3080 -5 c-3 -10 -5 -2 -5 17 0 19 2 27 5 18 2 -10 2 -26 0 -35z
m1983 17 c0 -11 -4 -20 -10 -20 -5 0 -10 9 -10 20 0 11 5 20 10 20 6 0 10 -9
10 -20z m-1259 -37 l-4 -48 -10 32 c-10 32 -5 63 10 63 5 0 6 -21 4 -47z m745
2 c-1 -29 4 -49 13 -54 16 -10 6 -31 -15 -31 -11 0 -14 15 -14 65 0 36 4 65 8
65 5 0 8 -20 8 -45z m1327 8 c7 -9 5 -13 -7 -13 -11 0 -16 8 -15 28 0 15 3 21
6 12 3 -8 10 -21 16 -27z m-2953 -11 l0 -26 -16 22 c-8 12 -12 27 -9 32 10 17
25 1 25 -28z m1146 -17 c-4 -25 -11 -43 -15 -41 -4 3 -3 25 3 50 13 57 21 51
12 -9z m84 15 c0 -13 -1 -13 -10 0 -5 8 -10 22 -10 30 0 13 1 13 10 0 5 -8 10
-22 10 -30z m1806 25 c14 -13 14 -16 0 -21 -22 -9 -52 16 -34 27 17 11 17 11
34 -6z m-1944 -20 c3 -13 1 -22 -3 -19 -9 5 -13 44 -5 44 2 0 6 -11 8 -25z
m1644 -23 c-12 -11 -18 7 -10 30 l8 23 4 -23 c2 -13 1 -26 -2 -30z m-1309 16
c-3 -8 -6 -5 -6 6 -1 11 2 17 5 13 3 -3 4 -12 1 -19z m633 -2 c0 -14 -4 -28
-10 -31 -6 -4 -10 7 -10 24 0 17 5 31 10 31 6 0 10 -11 10 -24z m-1983 -33
c-3 -10 -5 -2 -5 17 0 19 2 27 5 18 2 -10 2 -26 0 -35z m270 15 c-3 -7 -5 -2
-5 12 0 14 2 19 5 13 2 -7 2 -19 0 -25z m1844 -12 c16 -17 10 -26 -16 -26 -28
0 -30 7 -13 47 10 25 12 26 16 8 2 -11 8 -24 13 -29z m-2547 -35 c20 -68 20
-77 0 -85 -11 -4 -14 -1 -10 12 4 10 -1 40 -9 68 -8 27 -15 56 -15 64 0 27 18
-4 34 -59z m508 22 c-10 -28 -10 -28 -11 12 -1 28 2 36 10 28 8 -8 8 -19 1
-40z m1952 15 c5 -21 3 -28 -9 -28 -16 0 -19 17 -9 45 8 19 9 18 18 -17z
m-1345 -72 c11 -13 11 -16 0 -20 -30 -11 -109 -14 -114 -5 -3 5 3 28 14 51
l19 43 1 -38 c1 -31 4 -38 19 -35 13 2 18 15 21 53 l4 50 11 -41 c6 -23 17
-49 25 -58z m987 27 c-2 -3 -9 -2 -14 1 -7 4 -6 17 1 37 l12 32 3 -33 c2 -17
1 -34 -2 -37z m-196 27 c0 -17 -6 -32 -12 -35 -27 -8 -188 -12 -188 -4 0 12
37 21 58 15 11 -4 33 5 58 24 21 16 49 30 62 30 18 0 22 -5 22 -30z m276 -18
c-11 -10 -15 4 -8 28 l7 25 3 -23 c2 -13 1 -26 -2 -30z m101 14 c-4 -9 -13
-16 -22 -16 -18 0 -19 4 -3 30 14 22 34 10 25 -14z m-1297 -16 c-16 -31 -23
-19 -9 16 6 16 13 24 16 17 2 -7 -1 -22 -7 -33z m1604 25 c-6 -16 -24 -21 -24
-7 0 11 11 22 21 22 5 0 6 -7 3 -15z m-2397 -32 c-3 -10 -5 -4 -5 12 0 17 2
24 5 18 2 -7 2 -21 0 -30z m1513 23 c0 -10 -71 -47 -83 -43 -6 2 6 13 28 25
40 21 55 26 55 18z m-760 -46 c0 -30 -4 -40 -16 -40 -11 0 -14 6 -9 23 4 12 9
30 11 40 9 28 14 19 14 -23z m-422 -40 c5 0 13 5 20 12 9 9 12 8 12 -5 0 -23
-75 -25 -84 -2 -3 9 0 15 9 15 9 0 15 10 16 23 1 17 3 15 10 -10 5 -18 13 -33
17 -33z m-579 10 c9 -28 9 -30 -17 -30 -15 0 -38 -3 -52 -7 -24 -6 -24 -5 -9
13 9 10 14 24 12 31 -2 6 6 13 19 16 13 2 26 5 30 6 3 0 11 -12 17 -29z m949
-3 c13 -4 12 -5 -4 -6 -22 -1 -39 21 -26 34 4 4 8 0 10 -8 2 -9 11 -18 20 -20z
m-515 -20 c-9 -16 -26 12 -18 30 7 17 8 17 15 -2 4 -11 5 -24 3 -28z"/>
<path d="M839 3045 c-3 -5 -9 -23 -13 -40 -4 -16 -12 -33 -18 -36 -6 -4 -8
-15 -3 -25 6 -16 11 -11 27 25 17 40 23 102 7 76z"/>
<path d="M1494 3035 c-4 -8 -10 -12 -15 -9 -5 3 -6 -2 -3 -11 6 -14 10 -13 30
6 28 26 29 29 9 29 -9 0 -18 -7 -21 -15z"/>
<path d="M1690 3024 c0 -9 5 -14 12 -12 18 6 21 28 4 28 -9 0 -16 -7 -16 -16z"/>
<path d="M1850 3030 c0 -5 5 -10 10 -10 6 0 10 5 10 10 0 6 -4 10 -10 10 -5 0
-10 -4 -10 -10z"/>
<path d="M1065 3019 c-4 -6 -4 -13 -1 -16 3 -4 6 0 7 8 0 8 4 6 9 -6 8 -19 9
-19 9 3 1 23 -13 30 -24 11z"/>
<path d="M1524 3013 c-4 -10 -8 -20 -9 -23 -17 -50 -45 -86 -30 -39 6 17 3 20
-11 17 -11 -2 -20 -12 -22 -23 -3 -10 -15 -27 -28 -38 -13 -10 -24 -22 -24
-27 0 -18 -72 -85 -77 -72 -10 25 -23 11 -23 -27 0 -21 -6 -50 -13 -63 -16
-31 -23 -298 -8 -298 14 0 24 102 18 185 -4 57 -1 80 13 114 11 23 17 49 14
59 -5 14 -4 14 5 2 8 -12 11 -12 17 4 5 13 9 14 14 5 6 -8 11 -5 19 10 7 12 9
26 6 31 -3 6 -2 10 3 10 6 0 20 16 31 36 12 20 25 34 28 30 3 -3 -2 -15 -12
-26 -10 -11 -15 -20 -11 -20 4 0 2 -9 -4 -20 -17 -31 -4 -23 18 11 19 31 20
31 27 9 6 -20 9 -19 26 21 11 23 28 49 39 56 21 15 27 48 10 58 -8 5 -7 11 1
21 7 8 7 14 1 14 -5 0 -13 -8 -18 -17z"/>
<path d="M559 2998 c-1 -13 0 -33 1 -45 1 -13 -4 -23 -10 -23 -6 0 -9 -17 -7
-47 2 -27 -2 -84 -10 -127 -14 -83 -11 -127 8 -94 5 9 8 25 7 35 -3 37 2 74
10 69 5 -3 6 -60 4 -127 -3 -88 -1 -119 8 -114 10 6 11 27 10 167 -1 44 5 67
24 101 28 46 31 57 18 57 -4 0 -14 -16 -21 -35 -7 -19 -15 -35 -19 -35 -4 0
-4 44 0 98 6 99 3 142 -13 142 -5 0 -9 -10 -10 -22z"/>
<path d="M720 2979 c-19 -22 -38 -47 -43 -54 -4 -8 -14 -12 -22 -9 -11 5 -15
-2 -16 -22 0 -16 -2 -44 -3 -62 -2 -18 0 -35 5 -38 10 -6 11 -3 14 48 1 26 13
50 39 82 21 25 41 46 46 46 8 0 18 -73 18 -135 0 -16 5 -31 10 -33 6 -2 6 -17
1 -40 -5 -20 -8 -57 -7 -82 l1 -45 7 55 c4 30 12 71 18 90 5 19 13 53 16 75
l5 40 -19 -40 -19 -40 -1 60 c-1 33 -5 79 -8 102 l-7 42 -35 -40z"/>
<path d="M1768 3013 c-10 -2 -18 -9 -18 -14 0 -14 16 -11 30 6 7 8 11 14 9 14
-2 -1 -12 -3 -21 -6z"/>
<path d="M2235 3002 c-97 -42 -170 -92 -134 -92 8 0 31 9 51 20 46 24 56 12
22 -26 -53 -59 -69 -110 -67 -215 1 -114 35 -263 66 -296 24 -26 38 -22 15 4
-15 19 -40 94 -33 101 2 2 11 -10 20 -27 27 -52 25 -34 -2 26 -18 39 -28 81
-31 132 -4 58 -7 70 -14 51 -4 -15 -6 7 -3 54 4 66 10 87 35 126 40 62 69 88
105 92 17 2 29 8 28 16 -2 6 5 12 16 12 10 0 21 9 24 20 4 17 0 20 -26 19 -18
0 -50 -8 -72 -17z m30 -22 c-28 -12 -37 -12 -30 0 3 6 16 10 28 9 21 0 21 -1
2 -9z"/>
<path d="M1570 2951 c-25 -27 -45 -53 -45 -58 0 -4 -4 -23 -9 -41 -14 -56 0
-46 24 18 13 35 35 71 52 85 16 14 28 30 26 35 -2 6 -23 -12 -48 -39z"/>
<path d="M1712 2981 c-8 -5 -12 -15 -10 -24 2 -12 7 -10 21 9 18 24 13 31 -11
15z"/>
<path d="M272 2963 c-12 -23 -25 -83 -18 -83 3 0 10 18 16 40 19 69 34 49 27
-37 -4 -49 -2 -72 3 -63 6 8 10 48 10 88 0 57 -3 72 -15 72 -8 0 -18 -8 -23
-17z"/>
<path d="M452 2968 c-15 -15 -16 -41 -1 -32 19 11 5 -137 -13 -150 -11 -8 -15
-30 -15 -76 0 -36 -3 -82 -7 -104 -6 -32 -5 -38 7 -33 15 6 24 -35 33 -152 2
-30 6 -57 9 -59 9 -9 5 71 -10 196 -14 116 -13 131 5 240 22 128 24 168 12
176 -5 3 -14 0 -20 -6z"/>
<path d="M1067 2939 c-3 -23 -15 -52 -28 -65 -12 -13 -18 -24 -12 -24 6 0 14
6 16 13 12 27 6 -20 -8 -73 -16 -59 -20 -130 -7 -130 4 0 8 28 9 62 1 34 6 64
11 67 6 3 12 26 15 51 3 25 10 66 15 93 5 26 6 47 2 47 -4 0 -10 -18 -13 -41z"/>
<path d="M368 2953 c-28 -33 -55 -103 -39 -103 4 0 13 17 19 39 7 21 20 45 29
52 15 13 16 11 9 -21 -15 -71 -16 -104 -1 -50 24 91 18 123 -17 83z"/>
<path d="M920 2955 c-8 -9 -8 -15 -2 -15 6 0 14 5 17 10 10 15 23 12 28 -7 3
-14 4 -13 3 2 -1 25 -29 31 -46 10z"/>
<path d="M1115 2961 c-3 -6 0 -11 9 -11 8 0 17 -6 20 -12 3 -7 5 -4 3 6 -2 22
-22 32 -32 17z"/>
<path d="M1410 2935 c-19 -23 -8 -25 14 -4 11 11 15 19 9 19 -6 0 -16 -7 -23
-15z"/>
<path d="M1840 2937 c0 -8 -20 -34 -45 -58 -37 -37 -46 -53 -50 -92 -3 -26
-13 -63 -20 -82 -9 -21 -15 -68 -15 -122 0 -176 29 -265 107 -329 52 -43 57
-32 7 17 -47 45 -70 91 -87 175 -18 87 -11 223 14 282 11 24 19 56 19 71 0 30
74 113 82 90 2 -6 4 4 4 25 0 20 -4 36 -8 36 -4 0 -8 -6 -8 -13z"/>
<path d="M2421 2936 c2 -2 21 -6 42 -10 27 -5 37 -4 32 3 -3 6 -22 11 -42 11
-20 0 -34 -2 -32 -4z"/>
<path d="M732 2900 c0 -19 2 -27 5 -17 2 9 2 25 0 35 -3 9 -5 1 -5 -18z"/>
<path d="M1633 2918 c-11 -14 -43 -94 -43 -106 0 -4 14 20 30 53 28 58 33 79
13 53z"/>
<path d="M2360 2915 c-14 -8 -38 -14 -54 -15 -26 0 -28 -2 -21 -27 4 -16 8
-29 10 -31 7 -7 91 22 102 36 11 13 16 14 38 2 14 -7 25 -17 25 -20 0 -6 -66
-20 -115 -24 -5 -1 -20 -30 -32 -66 -18 -50 -22 -81 -19 -138 l3 -74 -22 29
c-13 15 -21 32 -18 37 4 5 1 6 -5 2 -15 -9 -26 30 -23 82 1 24 -3 42 -9 42
-13 0 -13 -64 1 -115 21 -76 133 -152 210 -142 31 4 32 5 11 12 -13 4 -21 13
-19 19 6 18 69 35 96 25 19 -8 22 -6 18 5 -4 10 -1 13 8 10 19 -8 60 32 84 81
14 28 20 34 21 20 0 -17 2 -17 10 -5 7 11 10 3 10 -30 1 -38 2 -42 12 -26 8
15 7 37 -7 94 -11 41 -24 80 -30 86 -6 6 -14 19 -18 29 -3 9 -10 16 -14 15
-11 -2 -73 35 -73 45 0 10 18 9 25 -3 8 -12 25 -13 25 -1 0 16 -78 52 -83 38
-3 -11 -47 -4 -107 17 -8 3 -26 -1 -40 -9z m-9 -206 c-3 -68 -2 -70 32 -104
39 -39 39 -42 -1 -21 -43 22 -59 47 -65 105 -5 41 -3 58 11 76 9 13 19 21 22
18 2 -2 3 -36 1 -74z m132 66 c37 -18 61 -48 71 -88 5 -23 1 -33 -23 -57 -58
-59 -138 -33 -156 51 -10 47 1 45 24 -3 12 -23 18 -34 14 -23 -4 11 -9 46 -11
78 -4 56 -3 57 23 57 15 0 41 -7 58 -15z m145 -90 c0 -16 -2 -15 -8 5 -11 34
-11 60 0 35 5 -11 8 -29 8 -40z m-68 -85 c-8 -5 -19 -10 -25 -10 -5 0 -3 5 5
10 8 5 20 10 25 10 6 0 3 -5 -5 -10z"/>
<path d="M2738 2905 c17 -14 33 -25 38 -25 4 0 -3 11 -16 25 -13 14 -30 25
-38 25 -7 0 0 -11 16 -25z"/>
<path d="M427 2914 c-4 -4 -7 -17 -7 -28 1 -19 1 -20 11 -3 11 19 8 43 -4 31z"/>
<path d="M1649 2843 c-33 -66 -34 -69 -38 -216 -2 -108 0 -152 9 -160 10 -10
11 4 6 63 -12 137 29 308 83 342 12 7 21 16 21 21 0 4 -4 6 -9 2 -5 -3 -12 -1
-16 5 -12 20 -22 9 -56 -57z"/>
<path d="M972 2880 c0 -14 2 -19 5 -12 2 6 2 18 0 25 -3 6 -5 1 -5 -13z"/>
<path d="M2610 2878 c0 -11 35 -39 90 -72 8 -5 -1 7 -20 28 -43 45 -70 62 -70
44z"/>
<path d="M1936 2863 c-3 -10 -10 -49 -16 -88 -5 -38 -13 -83 -17 -100 -10 -38
-1 -201 9 -165 4 14 9 34 11 45 2 13 9 1 22 -35 10 -30 27 -72 38 -93 26 -50
177 -206 184 -189 3 7 -14 31 -36 54 -23 22 -40 46 -38 52 3 6 -6 22 -18 36
-13 14 -36 63 -51 110 -26 77 -29 98 -29 223 0 76 -3 128 -7 115 -3 -13 -6
-42 -7 -64 -1 -29 -6 -44 -17 -48 -18 -7 -15 -61 12 -186 20 -96 16 -95 -16 3
-32 96 -37 153 -23 267 10 76 10 97 -1 63z"/>
<path d="M2780 2867 c0 -2 7 -24 15 -48 9 -24 13 -55 10 -70 -6 -27 9 -50 18
-26 9 23 -9 115 -26 131 -9 10 -17 15 -17 13z"/>
<path d="M232 2800 c-1 -33 2 -60 6 -60 8 0 8 107 0 115 -2 3 -5 -22 -6 -55z"/>
<path d="M1451 2844 c0 -11 3 -14 6 -6 3 7 2 16 -1 19 -3 4 -6 -2 -5 -13z"/>
<path d="M1812 2818 c-24 -49 -29 -136 -17 -288 11 -141 37 -208 108 -272 31
-29 47 -37 30 -15 -89 112 -107 158 -119 297 -12 142 -10 211 10 263 24 61 15
72 -12 15z"/>
<path d="M967 2833 c-3 -5 -8 -44 -11 -88 -8 -97 9 -72 18 28 6 62 4 78 -7 60z"/>
<path d="M2021 2809 c-35 -101 17 -347 86 -411 l26 -23 -18 27 c-9 16 -15 34
-12 43 4 8 2 17 -4 21 -6 3 -22 31 -37 62 -25 53 -27 67 -27 185 0 70 -1 127
-2 127 0 0 -6 -14 -12 -31z"/>
<path d="M344 2731 c-10 -45 -21 -81 -26 -81 -4 0 -8 4 -8 9 0 14 -38 20 -43
7 -9 -23 6 -125 19 -130 7 -3 11 0 9 7 -2 7 -6 34 -9 62 -4 34 -3 46 4 39 6
-6 14 -40 19 -75 7 -62 8 -63 20 -34 7 16 10 39 7 50 -3 12 -1 34 3 50 7 22
10 25 11 10 1 -11 3 -27 5 -35 2 -8 8 -35 14 -60 8 -38 9 -32 4 40 -3 47 -10
90 -15 97 -6 8 -6 30 1 64 6 29 9 54 7 56 -3 3 -12 -31 -22 -76z"/>
<path d="M729 2805 c-4 -5 -9 -28 -13 -50 l-6 -40 16 28 c14 26 17 85 3 62z"/>
<path d="M1397 2712 c-5 -52 -6 -96 -4 -99 9 -8 19 79 15 137 -3 49 -4 45 -11
-38z"/>
<path d="M1050 2743 c0 -22 2 -25 10 -13 13 20 13 40 0 40 -5 0 -10 -12 -10
-27z"/>
<path d="M627 2700 c-16 -112 -42 -244 -45 -227 -4 19 -22 24 -22 5 0 -7 9
-26 20 -43 l20 -30 0 26 c0 15 9 80 21 144 11 65 19 132 17 149 -3 24 -5 18
-11 -24z"/>
<path d="M706 2661 c-4 -24 -5 -46 -2 -48 7 -7 19 63 14 79 -3 7 -8 -7 -12
-31z"/>
<path d="M1162 2665 c0 -16 2 -22 5 -12 2 9 2 23 0 30 -3 6 -5 -1 -5 -18z"/>
<path d="M2163 2627 c8 -84 43 -166 86 -196 17 -12 29 -26 26 -31 -3 -5 -1
-11 5 -15 6 -4 8 -10 5 -15 -6 -10 62 -23 76 -14 6 3 8 12 5 20 -3 9 2 14 14
14 33 0 12 28 -38 50 -26 12 -57 31 -70 43 -29 27 -62 97 -62 131 0 14 -4 28
-10 31 -5 3 -10 -1 -10 -9 0 -30 -17 -16 -18 15 0 17 -4 34 -8 38 -4 3 -4 -25
-1 -62z m91 -153 c5 -14 4 -15 -9 -4 -17 14 -19 20 -6 20 5 0 12 -7 15 -16z"/>
<path d="M971 2644 c0 -11 3 -14 6 -6 3 7 2 16 -1 19 -3 4 -6 -2 -5 -13z"/>
<path d="M667 2643 c-4 -3 -7 -11 -7 -17 0 -6 5 -5 12 2 6 6 9 14 7 17 -3 3
-9 2 -12 -2z"/>
<path d="M938 2611 c-3 -24 -2 -55 3 -68 5 -13 9 -51 9 -84 0 -32 4 -59 9 -59
5 0 7 25 4 56 -4 41 -2 55 6 50 8 -5 8 0 2 16 -5 13 -7 37 -4 54 3 21 2 25 -5
15 -8 -11 -11 -5 -14 25 l-3 39 -7 -44z"/>
<path d="M822 2610 c0 -19 2 -27 5 -17 2 9 2 25 0 35 -3 9 -5 1 -5 -18z"/>
<path d="M1123 2595 c0 -22 2 -30 4 -17 2 12 2 30 0 40 -3 9 -5 -1 -4 -23z"/>
<path d="M1494 2563 c4 -36 12 -74 17 -82 8 -12 9 -7 5 18 -3 18 -6 55 -6 82
0 30 -4 49 -11 49 -8 0 -10 -20 -5 -67z"/>
<path d="M507 2600 c3 -11 7 -20 9 -20 2 0 4 9 4 20 0 11 -4 20 -9 20 -5 0 -7
-9 -4 -20z"/>
<path d="M1052 2566 c-2 -38 -5 -47 -17 -42 -9 3 -15 0 -15 -9 0 -8 -9 -19
-20 -25 -25 -13 -30 -83 -5 -74 8 4 15 15 15 26 0 25 18 58 31 58 6 0 8 -4 4
-10 -9 -14 6 -61 17 -54 5 3 7 18 3 32 -6 26 -6 26 14 8 16 -15 21 -16 21 -5
0 8 -9 20 -19 26 -15 9 -21 26 -24 65 l-3 53 -2 -49z"/>
<path d="M700 2586 c0 -8 -3 -22 -7 -32 -4 -11 -3 -15 4 -11 15 9 23 46 12 53
-5 3 -9 -1 -9 -10z"/>
<path d="M1390 2554 c0 -20 43 -110 47 -97 2 6 -7 33 -21 60 -14 26 -25 43
-26 37z"/>
<path d="M810 2541 c0 -6 5 -11 10 -11 6 0 10 -6 10 -14 0 -17 30 -89 35 -84
7 6 -33 112 -44 116 -6 2 -11 -1 -11 -7z"/>
<path d="M2655 2529 c-11 -17 1 -21 15 -4 8 9 8 15 2 15 -6 0 -14 -5 -17 -11z"/>
<path d="M2783 2534 c3 -3 -3 -15 -14 -27 -21 -23 -24 -33 -10 -41 5 -3 18 12
30 34 18 35 19 40 4 40 -9 0 -14 -3 -10 -6z"/>
<path d="M747 2518 c-2 -7 -1 -22 4 -33 6 -16 8 -14 8 13 1 33 -4 41 -12 20z"/>
<path d="M1111 2490 c-1 -66 8 -100 25 -93 8 3 14 17 13 32 l-1 26 -7 -25 -7
-25 -7 27 c-4 14 -5 33 -2 40 3 8 2 25 -3 39 -8 21 -10 18 -11 -21z"/>
<path d="M531 2505 c0 -11 4 -29 9 -40 l9 -20 0 20 c0 11 -4 29 -9 40 l-9 20
0 -20z"/>
<path d="M693 2480 c0 -25 2 -35 4 -22 2 12 2 32 0 45 -2 12 -4 2 -4 -23z"/>
<path d="M293 2482 c2 -17 7 -35 10 -39 11 -10 8 40 -3 57 -7 11 -9 6 -7 -18z"/>
<path d="M381 2484 c0 -11 3 -14 6 -6 3 7 2 16 -1 19 -3 4 -6 -2 -5 -13z"/>
<path d="M1201 2462 c0 -27 5 -49 14 -58 13 -14 15 -13 15 3 0 11 -4 23 -9 29
-5 5 -11 23 -14 39 -3 23 -4 21 -6 -13z"/>
<path d="M1480 2478 c0 -11 30 -78 36 -78 8 0 -6 42 -22 65 -8 11 -14 17 -14
13z"/>
<path d="M242 2415 c-1 -46 1 -55 8 -37 6 13 6 38 1 60 -8 35 -9 33 -9 -23z"/>
<path d="M923 2440 c6 -16 13 -28 15 -26 6 6 -10 56 -18 56 -5 0 -3 -13 3 -30z"/>
<path d="M762 2440 c0 -14 2 -19 5 -12 2 6 2 18 0 25 -3 6 -5 1 -5 -13z"/>
<path d="M380 2443 c0 -5 5 -15 10 -23 8 -12 10 -11 10 8 0 12 -4 22 -10 22
-5 0 -10 -3 -10 -7z"/>
<path d="M327 2433 c-2 -5 0 -21 4 -38 7 -29 7 -29 8 8 1 35 -3 46 -12 30z"/>
<path d="M563 2389 c11 -40 12 -42 15 -15 2 16 -3 35 -12 44 -13 13 -13 10 -3
-29z"/>
<path d="M2688 2381 c-62 -57 -62 -78 0 -25 38 32 70 74 58 74 -3 0 -29 -22
-58 -49z"/>
<path d="M1955 2354 c25 -36 45 -71 45 -78 0 -8 7 -19 15 -26 8 -7 15 -10 15
-6 0 15 -61 123 -84 149 -42 46 -38 30 9 -39z"/>
<path d="M2465 2405 l-50 -13 51 -1 c35 -1 56 4 64 14 15 18 6 19 -65 0z"/>
<path d="M306 2395 c4 -8 8 -15 10 -15 2 0 4 7 4 15 0 8 -4 15 -10 15 -5 0 -7
-7 -4 -15z"/>
<path d="M1194 2385 c-3 -8 -1 -27 4 -42 9 -26 10 -25 9 15 -1 45 -4 51 -13
27z"/>
<path d="M967 2383 c-4 -3 -7 -11 -7 -17 0 -6 5 -5 12 2 6 6 9 14 7 17 -3 3
-9 2 -12 -2z"/>
<path d="M2470 2367 l-35 -11 29 -4 c15 -2 40 -1 54 3 21 5 23 8 11 16 -16 10
-14 10 -59 -4z"/>
<path d="M391 2350 c0 -14 4 -32 9 -40 8 -12 10 -12 9 5 0 11 -4 29 -9 40 -8
18 -9 18 -9 -5z"/>
<path d="M991 2354 c0 -11 3 -14 6 -6 3 7 2 16 -1 19 -3 4 -6 -2 -5 -13z"/>
<path d="M1151 2354 c0 -11 3 -14 6 -6 3 7 2 16 -1 19 -3 4 -6 -2 -5 -13z"/>
<path d="M1232 2325 c0 -16 2 -22 5 -12 2 9 2 23 0 30 -3 6 -5 -1 -5 -18z"/>
<path d="M2204 2333 c2 -9 9 -19 17 -21 8 -3 24 -14 37 -25 35 -33 26 -10 -13
28 -39 40 -44 42 -41 18z"/>
<path d="M253 2305 c0 -22 2 -30 4 -17 2 12 2 30 0 40 -3 9 -5 -1 -4 -23z"/>
<path d="M561 2314 c0 -11 3 -14 6 -6 3 7 2 16 -1 19 -3 4 -6 -2 -5 -13z"/>
<path d="M482 2315 c0 -5 6 -26 13 -45 7 -19 14 -28 14 -20 0 8 -6 29 -14 45
-7 17 -13 26 -13 20z"/>
<path d="M640 2290 c0 -8 5 -22 10 -30 9 -13 10 -13 10 0 0 8 -5 22 -10 30 -9
13 -10 13 -10 0z"/>
<path d="M701 2270 c0 -8 4 -24 9 -35 5 -13 9 -14 9 -5 0 8 -4 24 -9 35 -5 13
-9 14 -9 5z"/>
<path d="M212 2240 c0 -14 2 -19 5 -12 2 6 2 18 0 25 -3 6 -5 1 -5 -13z"/>
<path d="M251 2244 c0 -11 3 -14 6 -6 3 7 2 16 -1 19 -3 4 -6 -2 -5 -13z"/>
<path d="M2290 2241 c0 -5 9 -11 21 -14 16 -4 18 -3 8 9 -13 16 -29 19 -29 5z"/>
<path d="M510 2211 c0 -6 5 -13 10 -16 6 -3 10 1 10 9 0 9 -4 16 -10 16 -5 0
-10 -4 -10 -9z"/>
<path d="M3504 3026 c-3 -9 -4 -40 -2 -68 l5 -51 -33 53 c-18 29 -35 58 -37
63 -2 6 -9 7 -15 3 -9 -5 -7 -12 7 -24 21 -18 111 -187 111 -209 0 -7 4 -13 8
-13 4 0 8 -8 9 -17 2 -29 25 -79 30 -66 2 6 -3 27 -12 45 -14 31 -14 32 1 11
19 -26 44 -30 44 -8 0 8 4 15 9 15 5 0 5 16 0 38 -6 20 -12 51 -14 67 -6 48
-35 107 -71 144 -28 30 -34 32 -40 17z m26 -16 c0 -5 -4 -10 -10 -10 -5 0 -10
5 -10 10 0 6 5 10 10 10 6 0 10 -4 10 -10z m43 -97 c46 -102 56 -203 14 -146
-29 39 -81 188 -73 208 11 28 23 15 59 -62z"/>
<path d="M3810 3019 c0 -12 4 -17 11 -14 6 4 16 -1 24 -11 7 -11 16 -16 20
-12 7 7 -34 58 -47 58 -4 0 -8 -9 -8 -21z"/>
<path d="M3956 2958 c5 -71 4 -72 -9 -37 -16 43 -55 99 -67 99 -5 0 2 -12 15
-26 14 -15 35 -59 47 -98 l21 -71 9 45 c10 49 2 146 -12 155 -5 3 -7 -27 -4
-67z"/>
<path d="M3700 2956 c0 -8 5 -18 10 -21 6 -3 10 -16 10 -27 0 -12 3 -19 6 -15
9 9 -5 77 -16 77 -6 0 -10 -6 -10 -14z"/>
<path d="M3852 2878 c2 -47 6 -84 10 -82 4 3 11 -4 17 -13 15 -26 13 -10 -5
42 -25 76 -12 87 25 23 18 -32 38 -61 44 -65 6 -4 1 11 -12 33 -13 21 -37 64
-53 94 l-29 54 3 -86z"/>
<path d="M3775 2941 c-3 -5 -1 -12 5 -16 5 -3 10 1 10 9 0 18 -6 21 -15 7z"/>
<path d="M3784 2888 c3 -13 6 -26 6 -30 0 -5 4 -8 8 -8 5 0 7 14 4 30 -2 17
-9 30 -14 30 -6 0 -8 -10 -4 -22z"/>
<path d="M3750 2741 c0 -40 4 -70 9 -67 8 5 4 126 -5 135 -2 2 -4 -28 -4 -68z"/>
<path d="M3861 2738 c1 -13 5 -34 9 -48 7 -21 8 -19 9 17 1 23 -3 45 -9 48 -6
3 -10 -4 -9 -17z"/>
<path d="M3957 2714 c-11 -11 -8 -26 3 -19 6 3 11 -4 11 -17 1 -16 3 -18 6 -6
5 20 -10 52 -20 42z"/>
<path d="M3607 2683 c-4 -3 -7 -13 -7 -22 0 -14 2 -14 10 -1 11 17 14 14 28
-27 9 -28 6 -39 -25 -98 -19 -36 -33 -69 -30 -72 3 -2 12 8 21 24 8 15 15 24
16 18 1 -20 20 21 20 43 0 15 4 21 11 16 9 -5 10 7 4 42 -10 70 -28 98 -48 77z"/>
<path d="M3560 2672 c0 -12 19 -26 26 -19 2 2 -2 10 -11 17 -9 8 -15 8 -15 2z"/>
<path d="M3563 2575 c0 -22 2 -30 4 -17 2 12 2 30 0 40 -3 9 -5 -1 -4 -23z"/>
<path d="M3813 2570 c0 -25 2 -35 4 -22 2 12 2 32 0 45 -2 12 -4 2 -4 -23z"/>
<path d="M3645 2508 c-12 -40 -26 -120 -22 -124 3 -3 10 12 17 33 6 21 14 45
18 53 9 25 10 50 0 50 -5 0 -10 -6 -13 -12z"/>
<path d="M3913 2483 c-17 -35 -16 -46 2 -40 8 4 17 2 20 -4 9 -13 25 -1 25 19
0 15 -2 15 -10 2 -7 -11 -10 -7 -10 18 0 39 -11 41 -27 5z"/>
<path d="M3868 2460 c-5 -56 8 -72 15 -18 3 24 2 47 -2 51 -5 5 -11 -10 -13
-33z"/>
<path d="M3751 2461 c-1 -27 2 -32 11 -23 8 8 8 17 0 34 -10 22 -11 21 -11
-11z"/>
<path d="M3572 2383 c-45 -108 -47 -113 -32 -113 6 0 10 6 10 13 0 7 16 51 35
97 19 47 34 89 32 93 -1 5 -22 -36 -45 -90z"/>
<path d="M3685 2449 c-21 -58 -55 -164 -55 -173 1 -20 21 23 46 100 13 42 22
79 20 82 -3 3 -8 -1 -11 -9z"/>
<path d="M3811 2392 c0 -29 -6 -62 -12 -74 -6 -11 -8 -22 -6 -24 3 -3 12 8 20
25 12 23 13 43 7 78 l-8 48 -1 -53z"/>
<path d="M3718 2230 c2 -16 8 -30 13 -30 10 0 11 7 3 38 -9 33 -21 27 -16 -8z"/>
<path d="M3867 2220 c-3 -11 -1 -20 4 -20 5 0 9 9 9 20 0 11 -2 20 -4 20 -2 0
-6 -9 -9 -20z"/>
<path d="M2879 2213 c-13 -16 -12 -17 4 -4 16 13 21 21 13 21 -2 0 -10 -8 -17
-17z"/>
<path d="M2830 1699 c0 -16 7 -19 54 -19 30 0 58 -4 61 -10 3 -5 21 -10 39
-10 17 0 36 -4 42 -8 5 -4 27 -14 49 -21 55 -19 89 -42 75 -51 -7 -5 -1 -10
15 -14 19 -5 25 -11 21 -22 -3 -9 -6 -20 -6 -25 0 -16 -61 -41 -86 -35 -21 6
-22 9 -12 31 6 14 17 25 25 25 7 0 13 5 13 10 0 12 -22 9 -33 -5 -6 -6 -10 -6
-14 3 -2 6 -13 12 -24 12 -10 0 -19 5 -19 10 0 6 23 10 51 10 31 0 48 4 44 10
-3 6 -24 10 -45 10 -33 0 -136 19 -192 36 -10 3 -18 1 -18 -5 0 -6 8 -11 18
-11 9 -1 31 -7 47 -15 l30 -14 -35 -2 c-58 -4 -293 0 -320 5 l-25 5 26 -12
c14 -7 34 -18 43 -26 9 -8 36 -15 59 -17 23 -1 34 0 25 3 -10 2 -18 9 -18 15
0 6 15 7 43 2 23 -4 86 -7 140 -6 l98 3 14 -33 c12 -28 14 -29 15 -10 0 26 27
30 37 6 8 -21 -21 -44 -46 -37 -10 3 -22 0 -25 -6 -5 -7 -45 -11 -103 -11 -77
0 -94 -3 -90 -14 3 -7 0 -19 -6 -26 -13 -13 40 -9 158 10 33 5 79 10 102 10
23 0 45 5 48 10 3 6 11 10 16 10 6 0 7 -5 3 -11 -13 -21 -118 -61 -169 -64
-67 -4 -67 -4 -60 -15 10 -17 135 11 206 46 38 19 55 22 90 16 l44 -8 -48 -26
c-26 -15 -79 -37 -118 -50 -39 -12 -69 -28 -69 -35 0 -14 12 -17 24 -6 3 4 13
8 21 9 44 7 263 129 251 141 -3 3 -14 -1 -24 -10 -19 -17 -77 -15 -115 5 -16
8 -14 11 13 34 16 14 30 34 30 44 0 24 -69 85 -116 101 l-39 14 70 5 c95 7
120 2 155 -30 17 -15 30 -24 30 -20 0 33 -134 95 -150 69 -10 -15 -33 -2 -24
14 5 8 3 8 -7 0 -20 -19 -139 -16 -219 6 -69 20 -70 20 -70 0z m47 -255 c-3
-3 -12 -4 -19 -1 -8 3 -5 6 6 6 11 1 17 -2 13 -5z"/>
<path d="M1310 1695 c-7 -8 -17 -12 -24 -8 -6 4 -5 -1 3 -10 19 -23 45 -22 38
2 -4 16 -1 18 27 11 60 -15 96 -19 96 -11 0 4 -26 13 -57 20 -71 14 -68 14
-83 -4z"/>
<path d="M1238 1673 c7 -3 16 -2 19 1 4 3 -2 6 -13 5 -11 0 -14 -3 -6 -6z"/>
<path d="M2723 1663 c9 -2 23 -2 30 0 6 3 -1 5 -18 5 -16 0 -22 -2 -12 -5z"/>
<path d="M2800 1645 c0 -8 -1 -18 -2 -22 -2 -4 12 -10 30 -14 33 -7 46 11 20
27 -9 6 -5 10 12 15 20 6 17 7 -17 8 -32 1 -43 -3 -43 -14z"/>
<path d="M1200 1635 c-8 -9 -8 -15 -2 -15 12 0 26 19 19 26 -2 2 -10 -2 -17
-11z"/>
<path d="M930 1631 c0 -5 9 -7 20 -4 11 3 20 7 20 9 0 2 -9 4 -20 4 -11 0 -20
-4 -20 -9z"/>
<path d="M1253 1625 c-9 -24 1 -27 20 -5 14 17 15 20 2 20 -9 0 -18 -7 -22
-15z"/>
<path d="M2540 1604 c0 -8 5 -12 10 -9 6 4 8 11 5 16 -9 14 -15 11 -15 -7z"/>
<path d="M2400 1600 c-12 -8 -11 -10 8 -10 12 0 22 5 22 10 0 13 -11 13 -30 0z"/>
<path d="M1190 1590 c0 -6 -8 -10 -17 -9 -31 5 -111 -12 -122 -24 -7 -9 -2
-30 20 -72 16 -32 31 -60 33 -62 2 -2 32 -10 67 -17 40 -8 64 -18 64 -26 0 -8
12 -17 27 -21 33 -9 108 -50 108 -60 0 -4 12 -9 28 -12 15 -2 54 -11 87 -20
101 -26 115 -28 115 -17 0 5 -12 10 -26 10 -35 0 -161 38 -196 58 -31 18 -38
36 -10 28 9 -3 31 -8 47 -11 27 -5 26 -4 -7 11 -51 22 -51 47 -1 42 29 -2 38
1 41 14 4 19 -8 23 -90 32 -29 3 -48 2 -48 -4 0 -6 24 -10 53 -10 28 0 59 -5
67 -10 21 -14 -140 -13 -177 1 -22 8 -25 12 -13 20 11 7 8 8 -10 4 -14 -3 -38
-1 -53 4 -17 7 -27 7 -27 1 0 -6 -6 -10 -14 -10 -18 0 -49 43 -64 87 -13 38
-8 40 87 47 71 5 84 0 100 -35 10 -23 19 -29 44 -30 18 0 46 -2 62 -3 17 -2
39 1 50 5 13 5 -1 8 -40 8 -73 1 -115 23 -90 47 15 16 12 34 -6 34 -6 0 -8 -4
-4 -9 3 -5 1 -12 -5 -16 -5 -3 -10 0 -10 9 0 8 -7 13 -17 11 -10 -1 -26 2 -35
7 -12 6 -18 5 -18 -2z m120 -220 c0 -5 -4 -10 -9 -10 -6 0 -13 5 -16 10 -3 6
1 10 9 10 9 0 16 -4 16 -10z"/>
<path d="M2330 1550 c0 -16 -4 -30 -10 -30 -5 0 -7 7 -4 15 4 8 1 15 -5 15 -6
0 -11 -7 -11 -15 0 -10 -11 -15 -35 -15 -23 0 -34 -4 -32 -12 1 -8 -7 -12 -22
-10 -24 2 -24 2 -5 -19 13 -15 20 -17 23 -7 7 21 28 37 37 29 5 -5 40 -11 77
-15 62 -6 68 -5 65 11 -2 12 -14 19 -37 21 -31 3 -33 5 -27 33 3 16 1 29 -4
29 -6 0 -10 -13 -10 -30z"/>
<path d="M2570 1550 c0 -5 5 -10 10 -10 6 0 10 5 10 10 0 6 -4 10 -10 10 -5 0
-10 -4 -10 -10z"/>
<path d="M3244 1528 l-19 -23 23 19 c12 11 22 21 22 23 0 8 -8 2 -26 -19z"/>
<path d="M1917 1529 c7 -7 15 -10 18 -7 3 3 -2 9 -12 12 -14 6 -15 5 -6 -5z"/>
<path d="M2400 1530 c0 -5 5 -10 10 -10 6 0 10 5 10 10 0 6 -4 10 -10 10 -5 0
-10 -4 -10 -10z"/>
<path d="M2765 1530 c-4 -6 3 -10 14 -10 25 0 27 6 6 13 -8 4 -17 2 -20 -3z"/>
<path d="M1133 1510 c-24 -10 -30 -25 -14 -34 5 -3 11 1 15 9 3 8 12 15 21 15
8 0 15 5 15 10 0 12 -7 12 -37 0z"/>
<path d="M2587 1514 c-4 -4 -4 -10 -2 -14 6 -10 45 0 45 11 0 10 -33 12 -43 3z"/>
<path d="M1770 1470 c20 -13 43 -13 35 0 -3 6 -16 10 -28 10 -18 0 -19 -2 -7
-10z"/>
<path d="M2694 1455 c16 -15 38 -25 54 -24 17 1 20 3 10 6 -28 7 -21 23 10 24
l27 1 -25 8 c-14 4 -43 8 -64 9 l-39 1 27 -25z"/>
<path d="M2628 1458 c9 -9 15 -9 24 0 9 9 7 12 -12 12 -19 0 -21 -3 -12 -12z"/>
<path d="M1828 1453 c6 -2 18 -2 25 0 6 3 1 5 -13 5 -14 0 -19 -2 -12 -5z"/>
<path d="M2160 1450 c0 -5 12 -10 28 -10 21 0 24 2 12 10 -20 13 -40 13 -40 0z"/>
<path d="M2264 1436 c-24 -18 -12 -33 34 -42 21 -4 32 -3 32 5 0 6 -5 11 -11
11 -8 0 -9 4 0 13 22 28 -21 37 -55 13z"/>
<path d="M842 1424 c2 -9 19 -28 38 -42 l35 -26 -27 30 c-16 17 -28 33 -28 37
0 4 12 5 28 1 21 -4 24 -3 12 5 -24 17 -62 14 -58 -5z"/>
<path d="M1260 1430 c0 -5 5 -10 11 -10 5 0 7 5 4 10 -3 6 -8 10 -11 10 -2 0
-4 -4 -4 -10z"/>
<path d="M2586 1432 c-3 -5 6 -12 20 -15 15 -3 23 0 21 7 -5 14 -33 20 -41 8z"/>
<path d="M1478 1383 c6 -2 18 -2 25 0 6 3 1 5 -13 5 -14 0 -19 -2 -12 -5z"/>
<path d="M1620 1379 c0 -5 4 -8 9 -5 5 3 11 -1 15 -9 3 -8 12 -15 21 -15 20 0
19 10 -2 26 -22 16 -43 18 -43 3z"/>
<path d="M1708 1372 c-15 -3 -27 -32 -14 -32 2 0 13 -3 23 -7 16 -6 16 -5 5
10 -12 14 -11 15 17 7 17 -5 31 -6 31 -2 0 11 -44 28 -62 24z"/>
<path d="M1190 1336 c14 -7 39 -16 55 -20 l30 -6 -25 14 c-14 7 -38 16 -55 20
l-30 6 25 -14z"/>
<path d="M1740 1330 c0 -8 24 -20 41 -20 6 0 8 4 5 9 -8 12 -46 21 -46 11z"/>
<path d="M1480 1316 c19 -7 60 -21 90 -30 30 -10 62 -20 70 -23 10 -4 12 -2 5
5 -12 12 -162 62 -185 61 -8 0 1 -6 20 -13z"/>
<path d="M1160 1300 c0 -4 9 -10 20 -13 11 -3 20 -2 20 3 0 4 -9 10 -20 13
-11 3 -20 2 -20 -3z"/>
<path d="M1296 1282 c-3 -5 9 -8 27 -8 18 0 43 -3 57 -8 24 -8 24 -8 5 8 -21
16 -80 22 -89 8z"/>
<path d="M1675 1249 c-27 -3 -39 -7 -25 -7 17 -2 29 -11 38 -31 10 -23 17 -28
35 -23 21 5 21 4 5 -15 -25 -27 -23 -39 12 -65 17 -12 30 -31 30 -44 0 -12 6
-26 13 -31 13 -11 119 -33 151 -32 21 0 21 1 1 9 -11 5 -31 9 -45 9 -39 2
-100 21 -100 32 0 6 8 8 18 5 30 -10 112 -24 112 -19 0 2 -15 9 -32 15 -33 12
-33 12 -8 19 19 5 14 7 -23 8 -49 1 -137 42 -137 63 0 15 31 37 53 38 33 0 17
18 -23 25 -25 4 -40 12 -40 21 0 10 15 14 59 14 33 0 62 3 64 8 6 8 -88 9
-158 1z"/>
<path d="M1831 1229 c-14 -6 -21 -13 -15 -18 15 -14 98 -22 114 -11 11 7 6 10
-22 10 -29 0 -36 3 -32 15 7 17 -9 19 -45 4z"/>
<path d="M1483 1218 c5 -13 -1 -20 -26 -27 l-32 -9 30 -1 c17 0 37 4 45 9 13
8 12 12 -4 27 -17 17 -18 17 -13 1z"/>
<path d="M3115 1195 c-16 -7 -23 -14 -15 -14 8 0 26 6 40 14 32 18 14 18 -25
0z"/>
<path d="M3388 1205 c-9 -9 -166 -74 -245 -102 -40 -14 -73 -30 -73 -36 0 -11
-9 -14 175 60 126 50 188 83 159 83 -6 0 -13 -2 -16 -5z"/>
<path d="M1278 1193 c6 -2 18 -2 25 0 6 3 1 5 -13 5 -14 0 -19 -2 -12 -5z"/>
<path d="M1355 1190 c-3 -5 -1 -10 4 -10 6 0 11 5 11 10 0 6 -2 10 -4 10 -3 0
-8 -4 -11 -10z"/>
<path d="M1216 1181 c-20 -32 239 -130 268 -101 6 6 -1 12 -22 16 -18 4 -38
14 -45 24 -7 10 -28 21 -47 25 l-35 7 19 -21 c11 -11 25 -21 32 -21 7 0 15 -4
19 -9 3 -6 -6 -6 -23 -1 -43 12 -64 25 -96 59 -29 30 -59 40 -70 22z"/>
<path d="M1656 1171 c-4 -5 -29 -12 -56 -16 -27 -4 -53 -11 -56 -16 -3 -6 6
-7 23 -3 79 18 103 26 103 34 0 13 -7 13 -14 1z"/>
<path d="M1483 1133 c9 -2 25 -2 35 0 9 3 1 5 -18 5 -19 0 -27 -2 -17 -5z"/>
<path d="M1990 1120 c0 -5 4 -10 9 -10 6 0 13 5 16 10 3 6 -1 10 -9 10 -9 0
-16 -4 -16 -10z"/>
<path d="M2067 1086 c-5 -13 2 -16 42 -16 27 0 57 -3 67 -7 11 -4 15 -2 11 4
-4 6 -24 13 -46 17 -22 3 -46 8 -54 12 -8 3 -17 -2 -20 -10z"/>
<path d="M541 854 c0 -11 3 -14 6 -6 3 7 2 16 -1 19 -3 4 -6 -2 -5 -13z"/>
<path d="M3732 3 c48 -2 129 -2 180 0 51 1 12 3 -87 3 -99 0 -141 -2 -93 -3z"/>
<path d="M4063 3 c9 -2 25 -2 35 0 9 3 1 5 -18 5 -19 0 -27 -2 -17 -5z"/>
</g>
</svg>
