<?xml version="1.0" standalone="no"?>
<!DOCTYPE svg PUBLIC "-//W3C//DTD SVG 20010904//EN"
 "http://www.w3.org/TR/2001/REC-SVG-20010904/DTD/svg10.dtd">
<svg version="1.0" xmlns="http://www.w3.org/2000/svg"
 width="157.000000pt" height="116.000000pt" viewBox="0 0 157.000000 116.000000"
 preserveAspectRatio="xMidYMid meet">
<metadata>
Created by potrace 1.16, written by Peter Selinger 2001-2019
</metadata>
<g transform="translate(0.000000,116.000000) scale(0.100000,-0.100000)"
fill="#000000" stroke="none">
<path d="M1300 1154 c-14 -2 -113 -8 -220 -14 -107 -6 -229 -17 -270 -26 -53
-11 -157 -16 -358 -19 -156 -3 -287 -7 -292 -10 -4 -3 -10 0 -12 6 -3 9 -10 9
-26 0 -20 -11 -25 -9 -42 11 -10 13 -22 19 -26 15 -17 -17 -29 -141 -22 -222
8 -98 13 -536 6 -617 -2 -31 -10 -64 -17 -72 -14 -16 -10 -18 69 -30 19 -3 64
-11 100 -17 74 -13 185 -12 350 2 63 5 171 12 240 14 69 3 181 12 250 20 69 8
179 19 245 25 235 21 223 19 227 43 7 37 1 191 -7 211 -6 14 -5 17 3 12 15 -9
13 -35 16 259 2 138 7 271 11 298 7 41 5 47 -9 47 -12 0 -16 5 -11 19 7 24
-20 48 -38 32 -8 -6 -17 -8 -20 -5 -3 4 -25 8 -48 10 -23 2 -49 5 -58 7 -9 2
-27 2 -41 1z m93 -75 c17 -15 20 -33 21 -131 2 -87 5 -112 15 -110 10 2 12 -5
7 -25 -19 -84 -26 -167 -23 -281 3 -88 -1 -146 -11 -189 l-15 -63 -41 6 c-23
3 -56 10 -74 16 -61 18 -404 -13 -512 -47 -30 -9 -124 -16 -290 -20 -135 -4
-273 -8 -308 -10 -47 -2 -60 0 -53 9 13 15 13 427 1 481 -5 22 -6 97 -3 167 6
126 6 128 29 122 12 -3 84 1 160 10 179 19 250 24 469 32 189 6 304 15 445 36
124 19 161 18 183 -3z m-1243 -39 c0 -5 -9 -10 -19 -10 -11 0 -23 5 -26 10 -4
6 5 10 19 10 14 0 26 -4 26 -10z m1300 -690 c0 -5 -5 -10 -11 -10 -5 0 -7 5
-4 10 3 6 8 10 11 10 2 0 4 -4 4 -10z"/>
<path d="M694 965 c-10 -8 -26 -15 -34 -15 -14 0 -70 -61 -70 -76 0 -4 -16
-26 -35 -50 -19 -23 -35 -49 -35 -58 0 -9 -8 -24 -18 -34 -53 -53 -63 -146
-19 -190 49 -48 156 -39 204 17 31 36 29 13 -7 -62 -16 -35 -30 -70 -30 -78 0
-8 -9 -28 -19 -46 -25 -40 -15 -44 75 -32 38 6 99 13 137 16 47 4 67 10 67 19
0 8 5 14 10 14 20 0 10 38 -14 53 -20 13 -86 99 -86 112 0 2 13 -3 29 -11 39
-20 88 -15 133 13 41 25 52 41 62 90 9 40 -27 130 -56 138 -10 4 -61 49 -113
101 -81 81 -99 94 -128 94 -18 0 -42 -7 -53 -15z"/>
<path d="M1340 46 c0 -11 -21 -16 -77 -22 -180 -16 -176 -22 15 -23 135 -1
191 2 187 10 -4 6 -14 8 -22 5 -17 -7 -54 11 -66 30 -11 18 -37 18 -37 0z"/>
<path d="M990 10 c-43 -7 -41 -7 23 -8 43 -1 66 2 62 8 -7 11 -16 11 -85 0z"/>
</g>
</svg>
