<?xml version="1.0" standalone="no"?>
<!DOCTYPE svg PUBLIC "-//W3C//DTD SVG 20010904//EN"
 "http://www.w3.org/TR/2001/REC-SVG-20010904/DTD/svg10.dtd">
<svg version="1.0" xmlns="http://www.w3.org/2000/svg"
 width="332.000000pt" height="227.000000pt" viewBox="0 0 332.000000 227.000000"
 preserveAspectRatio="xMidYMid meet">
<metadata>
Created by potrace 1.16, written by Peter Selinger 2001-2019
</metadata>
<g transform="translate(0.000000,227.000000) scale(0.100000,-0.100000)"
fill="#000000" stroke="none">
<path d="M720 2238 c-134 -9 -297 -10 -439 -3 -84 4 -124 -9 -116 -36 3 -9 1
-20 -5 -24 -6 -4 -10 -59 -10 -143 0 -112 -3 -142 -17 -161 -13 -19 -14 -28
-5 -42 7 -11 10 -42 7 -76 -8 -90 -28 -639 -30 -818 -1 -88 -7 -207 -14 -265
-6 -58 -14 -211 -17 -340 -6 -228 -5 -236 15 -260 20 -24 24 -25 117 -20 67 3
99 1 106 -7 6 -8 32 -10 76 -7 202 12 335 15 597 14 688 -4 791 -4 995 2 118
3 413 8 655 11 242 3 466 7 498 10 59 4 92 21 71 35 -26 16 -35 677 -14 952 6
69 15 208 20 310 6 102 21 282 32 400 12 118 22 249 22 292 1 42 4 80 9 84 4
4 7 15 7 25 0 16 -11 18 -115 16 -63 -1 -115 -5 -115 -8 0 -8 -581 -2 -955 10
-311 10 -383 13 -615 30 -352 26 -574 31 -760 19z m-490 -78 c0 -5 -5 -10 -11
-10 -5 0 -7 5 -4 10 3 6 8 10 11 10 2 0 4 -4 4 -10z m100 0 c-19 -13 -30 -13
-30 0 0 6 10 10 23 10 18 0 19 -2 7 -10z m365 -5 c-91 -17 -105 -17 -75 0 14
8 50 14 85 14 l60 -1 -70 -13z m579 -1 c74 -7 70 -22 -6 -23 -21 -1 -38 -5
-38 -10 0 -9 76 -4 127 9 22 5 34 4 37 -3 5 -9 7 -9 12 0 4 8 13 9 35 1 16 -5
29 -13 29 -17 0 -4 12 -6 28 -5 15 1 37 2 50 3 23 1 31 17 10 18 -64 4 -140
18 -145 26 -4 7 33 8 113 2 65 -4 133 -7 151 -6 22 1 31 -3 28 -12 -4 -9 32
-12 157 -13 96 -1 155 2 143 7 -12 5 31 8 105 7 153 -3 180 -6 180 -24 0 -8 3
-14 8 -14 4 0 18 -3 31 -7 21 -5 23 -3 17 12 -6 17 0 17 91 10 54 -4 115 -8
136 -8 20 -1 37 -4 37 -7 0 -3 10 -6 23 -7 48 -4 87 -14 87 -24 0 -18 30 -41
45 -35 8 3 17 1 20 -4 11 -17 25 -11 25 10 0 11 -6 23 -14 26 -8 3 -17 12 -20
20 -3 9 -1 12 4 9 6 -3 13 1 16 9 10 25 34 19 31 -6 -1 -17 3 -22 15 -20 23 4
58 -15 58 -31 0 -12 72 -77 85 -77 8 0 108 -70 152 -106 17 -14 24 -27 20 -37
-9 -23 -18 -21 -49 8 -15 14 -30 25 -33 25 -9 0 -126 80 -149 102 -11 10 -23
18 -27 18 -15 0 -19 -19 -6 -27 7 -4 16 -16 20 -25 4 -10 12 -15 21 -12 8 3
39 -11 70 -32 43 -28 56 -43 56 -61 0 -18 -4 -24 -15 -19 -11 4 -15 -2 -15
-24 0 -33 17 -49 26 -26 8 22 14 20 54 -14 33 -28 34 -32 35 -97 0 -205 -21
-484 -44 -570 -7 -23 -6 -30 3 -27 17 6 -20 -215 -39 -236 -8 -9 -12 -25 -10
-35 7 -25 -18 -108 -33 -113 -14 -4 -5 56 11 76 5 7 11 33 12 58 2 53 -7 40
-25 -34 -10 -43 -16 -52 -29 -47 -27 11 -33 10 -38 -2 -3 -8 5 -13 21 -13 19
0 26 -5 26 -20 0 -23 -28 -40 -64 -40 -16 0 -26 -6 -26 -14 0 -14 4 -14 64 -3
6 1 11 -5 11 -13 0 -10 -17 -18 -52 -24 -67 -12 -73 -36 -8 -28 37 4 45 2 45
-12 0 -10 -7 -16 -16 -14 -11 2 -18 -5 -20 -19 -3 -17 0 -21 12 -16 13 5 15 2
9 -18 -4 -13 -11 -25 -15 -27 -4 -1 -5 -14 -2 -27 2 -14 0 -25 -4 -25 -5 0
-10 -15 -11 -33 -3 -42 -28 -59 -83 -56 -73 3 -80 1 -73 -18 6 -16 5 -16 -10
-5 -16 14 -42 8 -33 -7 7 -11 68 -12 82 0 6 5 31 12 56 15 45 6 46 6 41 -19
-3 -15 -16 -33 -29 -42 -27 -17 -32 -35 -9 -35 9 0 15 -9 15 -21 0 -20 -4 -21
-84 -16 -47 3 -89 8 -94 11 -6 3 -66 7 -134 8 -67 1 -129 6 -136 12 -9 6 -16
6 -20 -1 -4 -5 -45 -13 -92 -17 -108 -8 -160 -17 -160 -26 0 -4 23 -7 51 -6
30 0 54 -4 56 -10 6 -17 -313 -30 -333 -13 -14 12 -278 9 -589 -6 -74 -3 -90
-2 -60 5 22 5 83 9 135 9 52 1 163 7 245 15 83 8 206 18 275 21 69 4 132 11
140 16 9 5 -8 7 -42 5 -32 -2 -57 -1 -56 3 2 18 -3 21 -16 8 -21 -20 -176 -33
-187 -16 -4 7 -5 17 -3 21 3 4 -2 8 -12 8 -11 0 -15 -6 -11 -19 4 -16 -3 -20
-47 -25 -94 -11 -410 -26 -506 -23 -104 2 -131 -14 -40 -24 30 -4 -30 -6 -135
-7 -215 0 -325 17 -325 50 0 16 5 15 58 -8 81 -37 108 -40 37 -4 -33 16 -61
34 -63 40 -2 5 -19 10 -38 10 l-34 0 16 -26 17 -26 -49 6 -49 5 53 -17 c28 -9
52 -20 52 -23 0 -11 -43 -19 -54 -9 -6 4 -34 4 -64 -1 -84 -16 -134 -9 -149
21 -9 20 -54 158 -59 180 0 3 -5 16 -12 30 -28 64 -62 160 -62 177 0 11 -4 23
-9 28 -10 11 -81 249 -80 268 0 7 9 -6 18 -28 10 -22 17 -43 15 -46 -2 -4 4
-13 13 -20 15 -12 16 -12 9 6 -5 11 -16 40 -25 65 -9 25 -21 43 -26 40 -6 -3
-10 -30 -9 -60 1 -54 0 -54 -10 -20 -6 19 -15 41 -19 47 -4 7 -3 38 2 70 6 31
11 84 11 117 0 46 3 57 11 46 8 -11 9 -7 5 19 -3 18 -6 53 -6 77 0 31 -4 42
-13 39 -9 -4 -13 13 -14 60 -1 36 0 65 3 65 14 0 83 -59 72 -62 -6 -2 -8 -10
-4 -17 6 -9 11 -9 22 0 8 6 14 8 14 3 0 -5 17 -20 38 -34 20 -14 83 -61 140
-105 57 -44 121 -90 143 -103 21 -13 39 -27 39 -32 0 -4 35 -34 78 -66 42 -32
94 -74 114 -93 35 -32 37 -36 22 -52 -9 -10 -13 -23 -9 -28 9 -16 25 -13 25 3
0 27 20 27 75 1 31 -14 60 -23 65 -20 22 13 9 57 -29 98 -75 82 -127 143 -171
197 -47 57 -188 219 -245 280 -43 47 -175 220 -175 230 0 5 -6 15 -12 22 -13
14 -48 62 -63 87 -5 10 -4 12 3 7 7 -4 12 -3 12 3 0 5 -6 12 -12 14 -7 3 0 4
16 4 16 -1 31 4 33 11 3 7 -1 10 -11 6 -24 -9 -19 11 6 29 13 9 18 16 11 16
-7 1 -28 -13 -47 -30 l-36 -31 -24 29 c-31 35 -32 43 -4 43 12 0 29 6 37 14 9
7 66 39 126 71 61 31 181 98 268 147 87 50 160 88 163 85 3 -3 -16 -18 -43
-33 -26 -15 -112 -69 -190 -120 -79 -52 -147 -94 -153 -94 -5 0 -25 -16 -44
-35 -43 -42 -38 -44 17 -7 23 16 65 40 92 53 28 13 52 27 53 32 2 4 8 5 13 2
5 -4 17 -1 26 4 16 9 15 10 -7 11 -24 1 -24 1 -5 11 11 6 37 23 57 36 40 27
72 23 38 -5 -21 -17 -21 -17 4 -17 15 0 26 3 26 7 0 4 12 14 28 23 l27 16 -27
-6 c-28 -5 -41 4 -30 21 4 6 43 32 87 59 77 47 85 49 209 66 73 9 132 22 136
29 5 9 9 9 14 1 5 -7 -7 -18 -31 -27 -21 -9 -46 -20 -55 -25 -14 -7 -16 -6
-12 6 5 11 2 13 -10 9 -9 -3 -16 -12 -16 -19 0 -7 -52 -31 -125 -56 -69 -23
-128 -46 -131 -51 -3 -5 7 -6 23 -2 25 6 27 5 13 -9 -28 -30 -311 -186 -326
-180 -9 3 -27 -6 -42 -20 -15 -14 -40 -30 -55 -36 -24 -9 -26 -14 -17 -31 6
-11 16 -20 22 -20 7 0 6 5 -2 15 -10 12 -6 17 27 31 21 9 45 20 53 25 52 30
119 63 142 70 48 13 41 -10 -11 -43 -28 -17 -49 -33 -46 -36 2 -2 26 10 53 27
27 17 56 31 64 31 9 0 18 6 21 13 3 7 76 55 163 107 88 51 170 102 183 112 13
10 32 18 42 18 11 0 19 4 19 9 0 14 54 21 62 8 12 -19 9 -24 -14 -30 -12 -4
-20 -9 -16 -12 3 -3 17 -1 32 5 22 8 25 14 20 34 -5 22 -2 26 38 36 23 6 56
15 72 21 16 5 55 7 85 3 31 -3 90 -9 131 -12 63 -6 75 -10 74 -25 -2 -21 22
-23 29 -3 4 10 16 13 34 11 15 -2 28 -4 28 -5 0 -1 34 -3 75 -5 117 -6 43 11
-132 29 -181 20 -230 25 -243 26 -5 0 5 7 24 16 19 8 32 17 29 19 -3 3 -21 -2
-41 -10 -20 -8 -53 -15 -74 -14 l-38 1 45 13 45 14 -50 -5 c-27 -3 -65 -10
-82 -16 -37 -11 -55 -4 -46 17 3 9 -1 15 -11 15 -9 0 -15 -6 -13 -12 1 -7 -9
-14 -23 -16 -25 -4 -25 -3 -5 12 19 16 17 16 -27 10 -40 -5 -48 -4 -48 10 0
19 2 19 -51 1 -46 -17 -106 -12 -78 6 7 5 28 9 46 9 17 0 34 3 36 8 7 10 150
15 231 6z m-891 -39 c-3 -8 -9 -15 -15 -15 -5 0 -6 4 -3 10 3 6 -1 7 -9 4 -9
-3 -14 -9 -13 -12 2 -7 -7 -12 -23 -12 -21 0 -9 17 23 32 36 17 49 15 40 -7z
m2347 0 c0 -17 -2 -18 -24 -9 -23 9 -20 24 4 24 11 0 20 -7 20 -15z m460 5 c0
-5 -4 -10 -10 -10 -5 0 -10 5 -10 10 0 6 5 10 10 10 6 0 10 -4 10 -10z m-2966
-32 c-10 -16 -22 -7 -17 13 4 15 8 17 14 8 4 -7 5 -17 3 -21z m2719 -5 c21
-20 37 -40 37 -44 0 -4 41 -33 90 -64 62 -39 90 -63 90 -76 0 -20 -10 -14
-144 83 -21 15 -47 28 -56 28 -9 0 -25 10 -36 22 -10 12 -13 18 -6 14 6 -4 17
-4 23 -1 10 7 -37 55 -53 55 -5 0 -8 5 -8 10 0 21 28 9 63 -27z m-2393 22 c0
-2 -18 -14 -40 -25 -22 -11 -39 -25 -37 -31 1 -7 -4 -14 -12 -17 -9 -3 -11 0
-7 9 5 9 3 8 -6 -1 -7 -9 -22 -14 -32 -12 -14 3 0 15 50 43 67 37 84 44 84 34z
m2630 -20 c0 -7 -6 -15 -12 -18 -10 -4 -10 -7 0 -18 14 -15 15 -29 3 -48 -7
-11 -17 -8 -50 15 -22 16 -41 35 -41 42 0 10 5 9 22 -2 28 -20 42 -20 34 -1
-3 8 -1 15 5 15 6 0 8 9 4 19 -5 16 -2 18 15 14 11 -3 20 -11 20 -18z m-2510
5 c0 -5 10 -10 23 -10 16 0 9 -8 -30 -30 -29 -17 -61 -30 -73 -30 -11 0 -20
-4 -20 -10 0 -5 -19 -18 -42 -29 -135 -62 -231 -110 -220 -111 8 0 50 16 94
35 44 20 83 34 85 31 5 -4 -76 -50 -121 -69 -10 -4 -16 -10 -13 -13 3 -4 27 5
53 20 44 24 87 37 54 16 -8 -5 -10 -10 -4 -10 14 0 46 35 38 43 -8 8 35 30 68
33 21 3 26 0 22 -11 -4 -8 -11 -15 -17 -15 -6 0 -8 -3 -4 -6 8 -8 116 69 117
84 0 6 10 12 23 12 13 0 29 6 36 13 11 10 14 10 18 0 7 -20 23 -15 23 7 0 10
10 25 23 31 23 13 107 19 107 8 0 -9 -27 -19 -51 -19 -10 0 -18 -6 -17 -12 2
-8 -6 -12 -18 -11 -14 2 -24 -4 -27 -17 -5 -20 -37 -29 -37 -10 0 6 -5 10 -11
10 -6 0 -9 -8 -7 -17 3 -19 -25 -38 -212 -143 -52 -29 -103 -53 -112 -52 -10
0 -18 -3 -18 -8 0 -7 -55 -40 -67 -40 -1 0 -3 12 -3 26 0 15 -4 23 -11 19 -5
-4 -9 -21 -7 -38 2 -26 0 -31 -14 -29 -10 1 -27 -7 -39 -19 -16 -16 -24 -18
-32 -10 -9 9 -4 18 18 37 24 19 26 24 11 22 -16 -2 -19 3 -19 25 2 53 3 58 21
64 22 9 42 35 35 47 -4 5 -1 6 5 2 12 -7 93 31 147 70 41 29 141 84 154 84 6
0 20 9 31 20 22 22 40 26 40 10z m-390 -15 c-7 -8 -17 -15 -22 -15 -6 0 -5 7
2 15 7 8 17 15 22 15 6 0 5 -7 -2 -15z m809 -9 c-2 -2 -33 -6 -69 -10 -45 -5
-60 -4 -50 4 13 9 129 15 119 6z m196 -6 c-7 -12 -85 -33 -93 -26 -3 3 2 6 12
6 9 0 19 7 22 15 4 9 19 15 36 15 16 0 27 -4 23 -10z m-880 -86 c-11 -8 -32
-18 -47 -21 -16 -3 -28 -10 -28 -16 0 -6 -3 -7 -7 -4 -7 7 -66 -26 -98 -56
-20 -18 -32 -9 -21 18 5 15 85 61 100 57 4 -2 14 2 20 7 10 8 66 26 96 30 3 0
-4 -7 -15 -15z m2755 -23 c0 -11 -5 -10 -20 4 -11 10 -20 22 -20 27 0 4 9 3
20 -4 11 -7 20 -19 20 -27z m-2110 15 c0 -2 -7 -7 -16 -10 -8 -3 -12 -2 -9 4
6 10 25 14 25 6z m-530 -10 c0 -2 -7 -7 -16 -10 -8 -3 -12 -2 -9 4 6 10 25 14
25 6z m440 -35 c0 -5 -21 -22 -47 -37 -27 -15 -85 -51 -130 -81 -84 -54 -104
-64 -84 -39 8 10 8 15 1 18 -10 3 237 148 253 148 4 0 7 -4 7 -9z m-739 -131
c2 -19 -1 -37 -6 -40 -6 -3 -11 19 -13 50 -2 60 14 52 19 -10z m2929 -27 c0
-19 -24 -16 -48 7 -22 21 -28 41 -16 53 9 8 64 -44 64 -60z m-2850 -249 c5
-13 14 -24 19 -24 5 0 43 -42 84 -93 41 -52 104 -125 140 -163 98 -105 237
-284 220 -284 -5 0 -38 30 -73 66 -36 37 -85 82 -110 102 -88 70 -300 294
-363 383 -14 21 -18 22 -27 9 -9 -11 -10 -7 -4 20 4 19 8 51 10 70 2 19 3 36
3 38 2 8 94 -104 101 -124z m-107 -107 c3 -8 1 -20 -4 -28 -6 -10 -9 -7 -9 14
0 29 5 35 13 14z m282 -238 c48 -43 44 -57 -5 -18 -22 18 -40 36 -40 41 0 13
8 10 45 -23z m154 -121 c29 -26 50 -52 47 -57 -4 -5 29 -37 71 -70 74 -57 115
-101 94 -101 -6 0 -16 8 -23 18 -7 10 -47 44 -88 76 -41 32 -75 64 -75 71 0
12 -114 115 -127 115 -5 0 -8 7 -8 16 0 14 3 14 29 -3 15 -10 52 -39 80 -65z
m-462 -335 c-3 -10 -5 -2 -5 17 0 19 2 27 5 18 2 -10 2 -26 0 -35z m2920 -15
c-3 -7 -5 -2 -5 12 0 14 2 19 5 13 2 -7 2 -19 0 -25z m-2866 -78 c14 -54 24
-78 29 -66 4 11 18 -23 39 -96 18 -62 39 -131 46 -153 23 -68 25 -102 10 -115
-11 -9 -15 -9 -15 -1 0 6 -9 11 -20 11 -11 0 -21 6 -21 13 -1 6 -3 19 -4 27 0
8 -7 28 -13 43 -20 47 -82 346 -82 395 0 48 4 40 31 -58z m9 45 c0 -5 -5 -3
-10 5 -5 8 -10 20 -10 25 0 6 5 3 10 -5 5 -8 10 -19 10 -25z m2860 -20 c0 -8
-4 -15 -10 -15 -5 0 -10 7 -10 15 0 8 5 15 10 15 6 0 10 -7 10 -15z m-53 -47
c-3 -8 -6 -5 -6 6 -1 11 2 17 5 13 3 -3 4 -12 1 -19z m43 2 c0 -5 -4 -10 -10
-10 -5 0 -10 5 -10 10 0 6 5 10 10 10 6 0 10 -4 10 -10z m-89 -81 l-9 -34 -1
31 c-1 17 2 34 6 37 12 13 14 -1 4 -34z m64 -26 c-10 -53 -18 -32 -9 24 4 26
10 40 12 30 2 -11 1 -35 -3 -54z m-31 5 c-4 -29 -11 -57 -16 -63 -7 -7 -8 2
-4 25 4 19 9 47 12 63 9 47 15 29 8 -25z m50 -35 c-4 -27 -11 -57 -16 -68 -8
-20 -4 24 8 88 9 46 16 30 8 -20z m-2856 -43 l0 -25 -8 25 c-4 14 -8 34 -8 45
l-1 20 9 -20 c5 -11 8 -31 8 -45z m-32 -85 c-10 -18 -12 -10 -12 54 l-1 76 12
-54 c10 -40 10 -59 1 -76z m2824 47 c-1 -18 -30 -63 -30 -45 0 6 3 24 6 42 7
31 24 34 24 3z m-2766 -62 l6 -35 -14 35 c-8 19 -15 42 -15 50 -1 26 16 -10
23 -50z m-97 18 c-3 -7 -5 -2 -5 12 0 14 2 19 5 13 2 -7 2 -19 0 -25z m2905
10 c-7 -7 -12 -8 -12 -2 0 14 12 26 19 19 2 -3 -1 -11 -7 -17z m-62 -88 c-5
-30 -12 -64 -16 -74 -6 -16 -4 -18 14 -14 16 5 22 2 22 -10 0 -14 -9 -16 -50
-14 -34 3 -50 8 -50 18 0 7 6 11 14 8 10 -4 17 10 26 48 11 47 38 104 45 96 2
-2 -1 -28 -5 -58z m-2846 -49 l-8 -46 -6 50 c-4 30 -3 58 4 70 10 19 11 19 14
-4 2 -13 0 -45 -4 -70z m69 36 c3 -22 4 -22 14 2 l10 25 7 -28 c4 -15 4 -31 2
-35 -3 -5 3 -16 14 -26 24 -21 26 -35 6 -35 -8 0 -18 9 -21 20 -7 23 -25 27
-25 5 0 -9 -9 -15 -25 -15 -24 0 -25 3 -25 58 0 32 3 62 7 65 10 10 31 -12 36
-36z m177 -48 c0 -5 -4 -9 -10 -9 -5 0 -10 7 -10 16 0 8 5 12 10 9 6 -3 10
-10 10 -16z m-17 -30 c24 2 32 -6 25 -26 -3 -8 -50 -6 -80 3 -10 3 -18 14 -18
25 0 17 3 18 23 7 12 -6 34 -11 50 -9z m2220 -6 c-23 -2 -64 -2 -90 0 -26 2
-7 3 42 3 50 0 71 -1 48 -3z m487 -24 c0 -5 -4 -9 -10 -9 -5 0 -10 7 -10 16 0
8 5 12 10 9 6 -3 10 -10 10 -16z m-2940 -9 c0 -5 -2 -10 -4 -10 -3 0 -8 5 -11
10 -3 6 -1 10 4 10 6 0 11 -4 11 -10z m2233 3 c-7 -2 -19 -2 -25 0 -7 3 -2 5
12 5 14 0 19 -2 13 -5z m-1973 -29 c0 -2 -9 -4 -20 -4 -11 0 -20 4 -20 9 0 5
9 7 20 4 11 -3 20 -7 20 -9z"/>
<path d="M1588 2108 c7 -9 29 -12 64 -9 42 3 48 6 28 12 -14 4 -42 7 -64 8
-30 1 -36 -2 -28 -11z"/>
<path d="M1710 2099 c0 -5 16 -9 36 -9 19 0 33 -4 29 -9 -8 -14 4 -18 86 -25
l76 -7 0 30 c0 23 -5 31 -19 31 -10 0 -18 -4 -18 -10 0 -5 -9 -10 -20 -10 -11
0 -20 -4 -20 -10 0 -5 -11 -10 -25 -10 -14 0 -25 5 -25 11 0 6 7 9 15 6 8 -4
17 -2 20 3 4 6 -4 10 -17 10 -13 1 -44 2 -70 4 -27 2 -48 0 -48 -5z"/>
<path d="M2360 2090 c0 -10 41 -30 63 -30 17 0 -14 27 -40 35 -14 4 -23 2 -23
-5z"/>
<path d="M2577 2074 c-8 -8 1 -24 14 -24 5 0 9 7 9 15 0 15 -12 20 -23 9z"/>
<path d="M1700 2059 c0 -5 5 -7 10 -4 6 3 10 8 10 11 0 2 -4 4 -10 4 -5 0 -10
-5 -10 -11z"/>
<path d="M1738 2063 c7 -3 16 -2 19 1 4 3 -2 6 -13 5 -11 0 -14 -3 -6 -6z"/>
<path d="M2102 2058 c-18 -18 -14 -28 8 -28 11 0 20 6 20 14 0 21 -15 27 -28
14z"/>
<path d="M2540 2055 c0 -8 5 -15 10 -15 6 0 10 7 10 15 0 8 -4 15 -10 15 -5 0
-10 -7 -10 -15z"/>
<path d="M2862 2056 c7 -8 15 -12 17 -11 5 6 -10 25 -20 25 -5 0 -4 -6 3 -14z"/>
<path d="M2200 2040 c0 -24 15 -27 24 -4 9 22 8 24 -9 24 -8 0 -15 -9 -15 -20z"/>
<path d="M2633 2048 c2 -7 10 -13 17 -13 7 0 15 6 18 13 2 7 -5 12 -18 12 -13
0 -20 -5 -17 -12z"/>
<path d="M1320 2030 c0 -5 7 -10 16 -10 8 0 12 5 9 10 -3 6 -10 10 -16 10 -5
0 -9 -4 -9 -10z"/>
<path d="M1910 2015 c0 -17 2 -18 24 -9 18 7 12 24 -10 24 -8 0 -14 -7 -14
-15z"/>
<path d="M2510 2004 c0 -18 4 -25 14 -21 8 3 22 -1 33 -8 21 -17 43 -19 43 -5
0 6 -6 10 -14 10 -8 0 -18 9 -21 20 -4 11 -10 18 -15 15 -5 -3 -11 -1 -15 5
-12 19 -25 10 -25 -16z"/>
<path d="M1460 2000 c-12 -8 -11 -10 8 -10 12 0 22 5 22 10 0 13 -11 13 -30 0z"/>
<path d="M2097 2004 c-8 -8 1 -24 14 -24 5 0 9 7 9 15 0 15 -12 20 -23 9z"/>
<path d="M2721 1984 c-22 -28 -20 -44 5 -44 9 0 12 5 8 11 -4 8 1 9 15 4 20
-6 22 -4 19 21 -4 37 -22 40 -47 8z"/>
<path d="M1395 1990 c-3 -5 -3 -15 1 -21 6 -11 23 6 24 24 0 10 -18 9 -25 -3z"/>
<path d="M1950 1990 c-13 -8 -12 -10 3 -10 9 0 17 5 17 10 0 12 -1 12 -20 0z"/>
<path d="M875 1970 c-16 -7 -17 -9 -3 -9 9 -1 20 4 23 9 7 11 7 11 -20 0z"/>
<path d="M1748 1973 c7 -3 16 -2 19 1 4 3 -2 6 -13 5 -11 0 -14 -3 -6 -6z"/>
<path d="M1838 1974 c-8 -8 3 -44 13 -44 5 0 9 7 9 15 0 12 4 13 19 5 27 -14
41 -13 41 4 0 16 -69 34 -82 20z"/>
<path d="M1948 1953 c12 -2 32 -2 45 0 12 2 2 4 -23 4 -25 0 -35 -2 -22 -4z"/>
<path d="M2314 1944 c3 -9 6 -20 6 -25 0 -22 25 -7 26 16 2 19 -3 25 -18 25
-14 0 -18 -5 -14 -16z"/>
<path d="M2807 1953 c-13 -12 -7 -23 13 -23 13 0 18 5 14 15 -7 16 -17 19 -27
8z"/>
<path d="M1106 1941 l-30 -6 29 -13 c17 -8 31 -9 34 -4 8 12 61 12 61 1 0 -13
-47 -30 -64 -23 -7 3 -20 -2 -29 -10 -13 -13 -17 -13 -26 -2 -9 10 -8 15 5 20
9 4 14 9 11 12 -2 3 -36 -11 -73 -30 -38 -20 -63 -36 -56 -36 7 0 26 7 41 14
15 8 38 12 50 9 17 -4 -4 -16 -91 -53 -139 -57 -294 -134 -328 -161 -14 -12 7
-4 47 16 39 20 77 34 82 30 6 -3 11 -2 11 4 0 9 58 40 158 82 25 11 53 17 63
14 11 -4 19 -2 19 4 0 14 41 34 137 66 54 18 81 31 76 39 -4 8 -3 8 6 0 8 -8
25 -9 49 -3 46 11 212 12 212 2 0 -5 74 -9 165 -10 139 -2 169 -5 192 -20 26
-17 27 -17 20 0 -6 15 1 17 61 19 54 1 46 3 -43 8 -60 4 -133 8 -162 9 -45 1
-52 3 -46 19 6 16 5 16 -13 1 -11 -9 -32 -15 -49 -13 -16 1 -84 3 -149 3 -72
1 -122 5 -126 11 -5 7 -15 8 -33 1 -14 -6 -41 -8 -59 -6 -79 10 -125 12 -152
6z"/>
<path d="M2156 1918 c-7 -27 9 -47 25 -31 12 12 3 53 -11 53 -4 0 -10 -10 -14
-22z"/>
<path d="M2034 1916 c-8 -22 3 -33 18 -18 9 9 9 15 0 24 -9 9 -13 7 -18 -6z"/>
<path d="M2390 1901 c0 -5 11 -11 25 -13 17 -4 25 -1 25 8 0 8 -11 14 -25 14
-14 0 -25 -4 -25 -9z"/>
<path d="M2680 1891 c0 -15 6 -21 21 -21 25 0 22 33 -4 38 -12 2 -17 -3 -17
-17z"/>
<path d="M2785 1879 c-8 -12 57 -32 113 -34 61 -2 73 7 34 25 -30 15 -140 22
-147 9z"/>
<path d="M1286 1865 c-8 -8 -19 -15 -23 -15 -5 0 -18 -9 -30 -19 -11 -11 -47
-34 -79 -53 -72 -40 -149 -121 -189 -197 -16 -32 -36 -66 -44 -75 -8 -9 -11
-20 -7 -23 4 -4 11 -1 16 7 7 11 10 9 10 -12 0 -15 4 -29 9 -32 4 -3 11 -24
14 -47 8 -58 34 -74 123 -74 46 0 70 4 67 10 -2 6 8 21 23 34 l27 23 47 -52
c27 -31 53 -51 61 -48 8 3 28 -4 44 -15 44 -31 125 -101 125 -109 0 -4 -9 -10
-21 -13 -20 -7 -20 -8 6 -21 36 -18 36 -18 29 12 -6 23 -5 25 12 16 11 -6 52
-41 93 -79 l75 -69 -50 -32 c-27 -17 -74 -50 -104 -72 -30 -22 -92 -60 -136
-84 -45 -25 -101 -59 -125 -76 -24 -17 -69 -47 -99 -67 -176 -114 -340 -228
-340 -236 0 -5 -7 -15 -16 -22 -10 -7 -17 -27 -18 -50 -1 -37 1 -39 31 -42 23
-2 31 1 27 10 -3 8 12 19 38 29 40 15 142 62 448 203 69 32 136 66 150 75 14
9 34 19 45 23 35 9 229 99 245 113 9 8 34 20 56 28 47 16 69 8 143 -53 25 -20
54 -43 67 -51 12 -8 46 -37 75 -64 30 -26 85 -76 123 -110 38 -33 99 -89 135
-123 36 -35 81 -70 100 -79 34 -16 35 -16 53 7 10 13 22 29 28 36 5 7 10 17
10 22 0 6 -70 81 -157 168 -198 200 -273 280 -273 291 0 5 12 7 28 5 26 -4 26
-4 8 11 -11 9 -29 16 -40 16 -11 0 -28 7 -38 17 -17 15 -16 17 34 35 29 10 73
28 98 39 25 12 64 30 88 40 24 10 73 36 110 57 37 22 99 56 138 76 l71 37 38
-36 c22 -19 45 -35 52 -35 7 0 13 -4 13 -10 0 -5 7 -10 15 -10 8 0 15 6 15 14
0 10 10 14 29 14 16 -1 41 9 56 21 15 11 33 21 40 21 6 0 17 11 24 23 10 20
10 30 -3 58 -38 80 -90 150 -191 255 -78 82 -137 114 -208 114 -46 0 -57 -4
-81 -29 -34 -35 -36 -62 -7 -121 25 -52 24 -50 9 -50 -7 0 -44 -20 -83 -45
-108 -68 -190 -114 -320 -179 l-120 -61 -33 37 c-19 20 -47 56 -64 80 -38 53
-155 195 -223 268 -27 31 -60 68 -72 83 l-22 26 29 57 c30 56 39 91 20 79 -5
-3 -10 -2 -10 3 0 6 -19 33 -42 61 l-43 51 -72 0 c-50 0 -76 -4 -87 -15z m171
-97 c27 -26 28 -32 6 -57 -16 -20 -17 -20 -35 9 -20 34 -56 39 -98 15 -14 -8
-39 -21 -56 -29 -17 -8 -36 -22 -44 -30 -7 -9 -22 -16 -33 -16 -11 0 -41 -17
-66 -37 -77 -61 -76 -61 -63 -38 23 43 176 173 226 192 17 6 55 12 85 12 43 1
60 -4 78 -21z m-87 -282 c66 -52 167 -146 140 -130 -19 10 -83 55 -135 93 -85
63 -128 92 -131 88 -9 -9 85 -84 216 -172 98 -66 164 -118 205 -163 59 -65 59
-66 20 -42 -22 13 -52 37 -66 54 -15 17 -91 78 -169 136 -78 58 -147 110 -154
116 -19 18 -56 35 -56 27 0 -5 12 -16 28 -25 15 -9 38 -27 52 -40 30 -28 225
-169 258 -187 13 -7 21 -15 19 -18 -6 -5 -69 30 -205 113 -66 40 -110 60 -72
33 13 -9 13 -10 0 -6 -8 2 -15 9 -15 16 0 7 -20 23 -45 35 -34 17 -44 28 -42
44 2 15 -3 21 -19 24 -37 5 -33 40 9 69 l37 27 30 -21 c16 -11 59 -43 95 -71z
m-240 59 c0 -8 -4 -15 -10 -15 -5 0 -10 7 -10 15 0 8 5 15 10 15 6 0 10 -7 10
-15z m1440 -91 c35 -30 35 -31 -40 -64 -30 -13 -63 -31 -72 -39 -10 -8 -18 -9
-18 -4 0 6 16 20 35 32 31 18 35 25 35 61 0 48 15 52 60 14z m-920 -139 c0
-14 -25 -12 -25 2 0 7 -21 26 -47 43 -27 18 -51 36 -54 41 -3 5 24 -10 60 -33
37 -24 66 -47 66 -53z m-550 70 c-14 -16 -40 -20 -40 -6 0 10 17 19 39 20 11
1 11 -2 1 -14z m1560 -42 c12 -15 13 -43 1 -43 -5 0 -12 12 -15 26 -5 17 -12
24 -21 20 -8 -3 -15 3 -17 14 -3 16 -23 7 -138 -62 -121 -73 -407 -218 -428
-218 -5 0 -17 -9 -27 -20 -22 -25 -37 -25 -58 -2 -18 20 -13 34 9 25 7 -3 26
4 41 15 15 11 74 42 130 70 56 28 134 72 173 98 39 25 74 44 76 41 3 -3 44 13
92 35 124 58 134 60 154 34 10 -11 22 -26 28 -33z m38 7 c-2 -7 -10 1 -17 16
-12 27 -11 28 4 12 10 -9 16 -21 13 -28z m119 -84 c16 -53 16 -53 -7 -59 -15
-4 -20 0 -20 14 0 10 -5 19 -11 19 -7 0 -9 -10 -5 -25 7 -27 -8 -32 -49 -16
-19 8 -19 8 3 20 19 10 22 18 17 43 -6 23 -4 29 5 23 10 -6 11 -2 7 16 -3 13
-9 38 -12 54 l-6 30 33 -39 c18 -22 39 -58 45 -80z m-1242 -56 c3 0 36 -20 75
-45 39 -25 73 -45 76 -45 12 0 260 -250 322 -324 79 -96 57 -82 -81 50 -57 54
-130 119 -163 144 -32 25 -79 65 -105 90 -76 75 -150 134 -224 177 -39 23 -82
51 -95 62 -14 12 23 -8 83 -44 59 -36 109 -65 112 -65z m1046 57 c-10 -9 -11
-8 -5 6 3 10 9 15 12 12 3 -3 0 -11 -7 -18z m69 -16 c44 -12 -4 -22 -63 -12
-5 0 -5 6 -2 11 7 11 28 11 65 1z m-915 -49 l20 -14 -20 7 c-11 4 -32 12 -47
17 -16 5 -28 14 -28 19 0 10 44 -8 75 -29z m789 1 c-19 -14 -44 -17 -44 -6 0
3 7 15 17 25 13 14 19 15 30 6 13 -10 12 -14 -3 -25z m46 23 c0 -3 -4 -8 -10
-11 -5 -3 -10 -1 -10 4 0 6 5 11 10 11 6 0 10 -2 10 -4z m-807 -66 c26 -16 47
-32 47 -35 0 -6 -87 42 -104 57 -23 19 13 6 57 -22z m622 -10 c-7 -11 -26 -20
-75 -35 -25 -8 -25 -8 -6 14 11 12 26 19 36 16 10 -3 23 2 30 10 14 17 26 13
15 -5z m-527 -85 c17 -6 22 -13 19 -27 -3 -12 1 -22 10 -25 12 -5 12 -7 1 -14
-21 -14 -28 -11 -28 11 0 12 -9 24 -23 29 -13 5 -29 16 -36 24 -11 14 -9 15
11 13 13 -2 33 -7 46 -11z m79 -119 c4 -8 41 -49 82 -90 40 -42 69 -76 64 -76
-8 0 -136 128 -178 179 l-20 24 22 -12 c12 -6 26 -18 30 -25z m-223 -18 c-4
-6 -27 -19 -53 -31 -25 -11 -89 -46 -141 -77 -52 -31 -126 -72 -165 -90 -38
-19 -88 -46 -110 -60 -39 -26 -214 -120 -223 -120 -3 0 51 37 119 82 68 45
163 108 212 141 130 87 337 190 353 176 8 -6 11 -16 8 -21z m46 -32 c0 -2 -7
-7 -16 -10 -8 -3 -12 -2 -9 4 6 10 25 14 25 6z m-141 -100 c-2 -2 -15 -9 -29
-15 -24 -11 -24 -11 -6 3 16 13 49 24 35 12z"/>
<path d="M1660 1871 c0 -6 5 -13 10 -16 6 -3 10 1 10 9 0 9 -4 16 -10 16 -5 0
-10 -4 -10 -9z"/>
<path d="M1950 1864 c0 -11 5 -14 16 -10 9 3 20 6 25 6 6 0 7 5 4 10 -10 16
-45 12 -45 -6z"/>
<path d="M1550 1860 c0 -5 5 -10 10 -10 6 0 10 5 10 10 0 6 -4 10 -10 10 -5 0
-10 -4 -10 -10z"/>
<path d="M2070 1851 c0 -12 5 -21 10 -21 6 0 10 6 10 14 0 8 -4 18 -10 21 -5
3 -10 -3 -10 -14z"/>
<path d="M2760 1855 c7 -8 17 -12 22 -9 6 4 5 10 -3 15 -22 14 -33 10 -19 -6z"/>
<path d="M930 1840 c-13 -8 -12 -10 3 -10 9 0 17 5 17 10 0 12 -1 12 -20 0z"/>
<path d="M1906 1831 c-3 -5 1 -14 9 -21 12 -10 15 -10 15 3 0 19 -16 31 -24
18z"/>
<path d="M2445 1830 c-3 -5 -3 -15 1 -21 6 -11 23 6 24 24 0 10 -18 9 -25 -3z"/>
<path d="M2687 1833 c-8 -8 -9 -53 -1 -53 14 0 35 32 30 45 -6 16 -18 19 -29
8z"/>
<path d="M660 1820 c0 -5 5 -10 10 -10 6 0 10 5 10 10 0 6 -4 10 -10 10 -5 0
-10 -4 -10 -10z"/>
<path d="M873 1813 c-18 -9 -33 -20 -33 -25 0 -14 14 -8 45 17 35 29 32 30
-12 8z"/>
<path d="M1710 1815 c-7 -9 -10 -18 -7 -22 8 -7 37 15 37 28 0 14 -16 11 -30
-6z"/>
<path d="M1060 1800 c0 -5 7 -10 16 -10 8 0 12 5 9 10 -3 6 -10 10 -16 10 -5
0 -9 -4 -9 -10z"/>
<path d="M1670 1750 c0 -5 5 -10 10 -10 6 0 10 5 10 10 0 6 -4 10 -10 10 -5 0
-10 -4 -10 -10z"/>
<path d="M849 1745 c-1 0 -3 -10 -4 -22 -3 -26 22 -32 31 -8 4 8 13 15 22 15
25 0 2 15 -24 15 -13 1 -25 1 -25 0z"/>
<path d="M1596 1734 c-9 -22 3 -32 14 -14 12 19 12 30 1 30 -5 0 -12 -7 -15
-16z"/>
<path d="M2275 1740 c-8 -13 4 -32 16 -25 12 8 12 35 0 35 -6 0 -13 -4 -16
-10z"/>
<path d="M2496 1743 c-9 -9 -7 -33 3 -33 12 0 22 28 12 34 -5 3 -11 3 -15 -1z"/>
<path d="M2084 1725 c-9 -21 3 -31 46 -39 32 -6 33 -5 15 8 -20 15 -19 15 3
16 14 0 21 4 16 11 -3 6 -14 9 -24 6 -9 -2 -25 0 -34 5 -12 7 -18 5 -22 -7z"/>
<path d="M2990 1722 c0 -4 14 -16 31 -26 17 -10 46 -32 65 -48 19 -17 34 -25
34 -20 0 12 -107 102 -121 102 -5 0 -9 -4 -9 -8z"/>
<path d="M2325 1710 c-3 -5 -1 -10 4 -10 6 0 11 5 11 10 0 6 -2 10 -4 10 -3 0
-8 -4 -11 -10z"/>
<path d="M1615 1669 c-12 -19 5 -23 22 -6 16 16 16 17 1 17 -9 0 -20 -5 -23
-11z"/>
<path d="M1820 1670 c20 -13 33 -13 25 0 -3 6 -14 10 -23 10 -15 0 -15 -2 -2
-10z"/>
<path d="M2968 1660 c-20 -19 -24 -44 -6 -38 16 6 41 45 31 51 -4 2 -16 -3
-25 -13z"/>
<path d="M525 1644 c-16 -13 -22 -22 -12 -18 11 4 17 1 17 -8 0 -14 -23 -29
-62 -42 -22 -7 -23 -22 -3 -30 9 -3 15 0 15 10 0 12 6 15 26 10 15 -4 23 -3
20 2 -8 13 20 35 34 27 5 -3 10 0 10 9 0 8 -6 16 -12 19 -10 4 -10 7 0 18 13
15 16 29 5 29 -5 -1 -21 -12 -38 -26z"/>
<path d="M1766 1654 c-9 -22 3 -32 14 -14 12 19 12 30 1 30 -5 0 -12 -7 -15
-16z"/>
<path d="M2550 1660 c0 -5 5 -10 10 -10 6 0 10 5 10 10 0 6 -4 10 -10 10 -5 0
-10 -4 -10 -10z"/>
<path d="M2590 1661 c0 -20 13 -41 21 -35 15 9 10 44 -6 44 -8 0 -15 -4 -15
-9z"/>
<path d="M1950 1616 c0 -8 10 -16 23 -20 35 -9 77 -7 77 5 0 7 12 8 33 4 22
-5 29 -4 22 4 -15 16 -81 19 -77 4 3 -16 -1 -16 -43 1 -29 12 -35 13 -35 2z"/>
<path d="M1780 1610 c0 -5 5 -10 10 -10 6 0 10 5 10 10 0 6 -4 10 -10 10 -5 0
-10 -4 -10 -10z"/>
<path d="M840 1600 c0 -5 5 -10 10 -10 6 0 10 5 10 10 0 6 -4 10 -10 10 -5 0
-10 -4 -10 -10z"/>
<path d="M720 1585 c-8 -9 -8 -15 -2 -15 12 0 26 19 19 26 -2 2 -10 -2 -17
-11z"/>
<path d="M860 1570 c-6 -11 -7 -20 -2 -20 10 0 32 21 32 32 0 16 -19 8 -30
-12z"/>
<path d="M2336 1581 c-3 -5 1 -14 9 -21 12 -10 15 -10 15 3 0 19 -16 31 -24
18z"/>
<path d="M2156 1572 c-9 -15 9 -28 43 -30 39 -3 39 -1 -6 22 -17 9 -34 12 -37
8z"/>
<path d="M626 1543 c-11 -11 -6 -23 9 -23 8 0 15 4 15 9 0 13 -16 22 -24 14z"/>
<path d="M1755 1539 c-12 -19 5 -23 22 -6 16 16 16 17 1 17 -9 0 -20 -5 -23
-11z"/>
<path d="M1866 1535 c-11 -8 -17 -17 -14 -21 8 -8 48 14 48 26 0 14 -12 12
-34 -5z"/>
<path d="M785 1530 c-3 -5 1 -10 9 -10 9 0 16 5 16 10 0 6 -4 10 -9 10 -6 0
-13 -4 -16 -10z"/>
<path d="M756 1521 c-4 -7 -5 -15 -2 -18 9 -9 19 4 14 18 -4 11 -6 11 -12 0z"/>
<path d="M2865 1509 c-4 -6 -5 -13 -2 -16 7 -7 27 6 27 18 0 12 -17 12 -25 -2z"/>
<path d="M1651 1492 c-6 -11 -6 -24 -1 -32 7 -12 10 -11 16 5 4 11 9 23 11 27
2 4 -1 9 -6 13 -6 3 -14 -3 -20 -13z"/>
<path d="M2816 1484 c-9 -22 3 -32 14 -14 12 19 12 30 1 30 -5 0 -12 -7 -15
-16z"/>
<path d="M635 1470 c-7 -12 2 -30 16 -30 5 0 9 9 9 20 0 21 -15 27 -25 10z"/>
<path d="M1925 1469 c-10 -15 3 -25 16 -12 7 7 7 13 1 17 -6 3 -14 1 -17 -5z"/>
<path d="M440 1459 c0 -5 5 -7 10 -4 6 3 10 8 10 11 0 2 -4 4 -10 4 -5 0 -10
-5 -10 -11z"/>
<path d="M2000 1441 c0 -21 32 -39 38 -22 2 6 8 9 13 5 5 -3 9 -1 9 4 0 8 -42
32 -55 32 -3 0 -5 -9 -5 -19z"/>
<path d="M3000 1446 c0 -9 5 -16 10 -16 6 0 10 4 10 9 0 6 -4 13 -10 16 -5 3
-10 -1 -10 -9z"/>
<path d="M867 1443 c-10 -9 -9 -23 2 -23 5 0 11 7 15 15 5 15 -5 20 -17 8z"/>
<path d="M1830 1409 c0 -5 5 -7 10 -4 6 3 10 8 10 11 0 2 -4 4 -10 4 -5 0 -10
-5 -10 -11z"/>
<path d="M707 1394 c-15 -8 -25 -19 -22 -24 8 -14 25 -12 25 1 0 7 8 18 18 25
23 18 14 17 -21 -2z"/>
<path d="M1886 1395 c-3 -9 0 -15 8 -15 8 0 16 7 20 15 3 9 0 15 -8 15 -8 0
-16 -7 -20 -15z"/>
<path d="M2220 1397 c0 -8 -5 -17 -11 -19 -7 -2 -10 -9 -8 -15 3 -8 12 -5 26
7 20 15 21 20 8 30 -12 10 -15 10 -15 -3z"/>
<path d="M623 1383 c-15 -5 -18 -33 -4 -33 8 0 25 30 19 35 -2 1 -9 0 -15 -2z"/>
<path d="M2001 1360 c-8 -24 -7 -30 5 -30 7 0 14 6 14 14 0 8 3 21 6 30 3 9 2
16 -4 16 -6 0 -15 -13 -21 -30z"/>
<path d="M3067 1378 c-2 -7 -1 -22 3 -33 7 -19 7 -19 18 2 7 12 12 26 12 32 0
15 -27 14 -33 -1z"/>
<path d="M800 1365 c0 -8 7 -15 15 -15 8 0 15 4 15 9 0 5 -7 11 -15 15 -9 3
-15 0 -15 -9z"/>
<path d="M2120 1371 c0 -15 28 -33 47 -29 14 3 11 8 -14 21 -18 10 -33 13 -33
8z"/>
<path d="M712 1353 c-6 -2 -10 -9 -6 -14 8 -14 21 -11 21 6 0 8 -1 15 -1 14
-1 0 -7 -3 -14 -6z"/>
<path d="M1830 1345 c0 -8 4 -15 9 -15 5 0 11 7 15 15 3 9 0 15 -9 15 -8 0
-15 -7 -15 -15z"/>
<path d="M2938 1353 c-13 -3 -18 -14 -18 -36 1 -29 2 -30 14 -14 7 9 18 17 25
17 6 0 11 9 11 20 0 20 -2 21 -32 13z"/>
<path d="M958 1326 c-17 -12 -25 -36 -13 -36 7 0 45 38 45 45 0 9 -14 5 -32
-9z"/>
<path d="M3086 1294 c-8 -21 -8 -24 3 -24 5 0 11 9 14 20 6 24 -8 27 -17 4z"/>
<path d="M861 1286 c-7 -8 -8 -17 -3 -19 4 -3 13 3 20 14 14 22 0 26 -17 5z"/>
<path d="M670 1280 c0 -5 5 -10 11 -10 5 0 7 5 4 10 -3 6 -8 10 -11 10 -2 0
-4 -4 -4 -10z"/>
<path d="M1236 1269 c-14 -11 -26 -28 -26 -37 1 -15 3 -14 16 3 8 11 22 19 30
17 8 -2 14 5 14 18 0 25 -1 25 -34 -1z"/>
<path d="M956 1271 c-3 -5 1 -11 9 -15 8 -3 15 -1 15 4 0 13 -18 22 -24 11z"/>
<path d="M1927 1253 c-12 -11 -8 -23 8 -23 8 0 15 7 15 15 0 16 -12 20 -23 8z"/>
<path d="M750 1246 c0 -2 7 -6 15 -10 8 -3 15 -1 15 4 0 6 -7 10 -15 10 -8 0
-15 -2 -15 -4z"/>
<path d="M1080 1211 c-30 -28 -33 -51 -8 -51 6 0 8 3 5 7 -4 4 5 19 20 35 37
38 22 47 -17 9z"/>
<path d="M655 1210 c-3 -5 -2 -10 4 -10 5 0 13 5 16 10 3 6 2 10 -4 10 -5 0
-13 -4 -16 -10z"/>
<path d="M1363 1203 c4 -3 2 -12 -5 -20 -6 -7 -8 -17 -4 -20 8 -8 26 16 26 35
0 6 -5 12 -12 12 -6 0 -8 -3 -5 -7z"/>
<path d="M977 1193 c-11 -10 -8 -33 3 -33 6 0 10 6 10 14 0 8 6 17 13 19 8 4
6 6 -4 6 -9 1 -19 -2 -22 -6z"/>
<path d="M1168 1193 c-19 -5 -25 -23 -9 -23 17 0 41 12 41 21 0 9 -4 10 -32 2z"/>
<path d="M820 1180 c0 -5 7 -6 17 -3 11 4 14 3 9 -5 -4 -7 -1 -12 10 -12 13 0
14 3 4 15 -14 17 -40 20 -40 5z"/>
<path d="M747 1164 c-8 -8 1 -24 12 -24 4 0 8 7 8 15 0 16 -9 20 -20 9z"/>
<path d="M1303 1152 c-9 -15 -7 -21 8 -30 10 -7 20 -8 24 -2 3 5 0 12 -6 15
-5 4 -8 13 -5 21 8 20 -7 17 -21 -4z"/>
<path d="M283 1133 c-7 -2 -13 -11 -13 -19 0 -8 -4 -14 -10 -14 -5 0 -10 -5
-10 -12 0 -6 7 -5 18 5 10 9 33 20 50 23 17 4 29 10 26 15 -6 10 -41 11 -61 2z"/>
<path d="M1123 1121 c-8 -13 -9 -22 -3 -26 11 -7 24 18 18 35 -2 6 -9 1 -15
-9z"/>
<path d="M2560 1115 c0 -14 5 -25 10 -25 6 0 10 5 10 11 0 6 7 9 15 5 20 -7
19 4 -2 20 -26 19 -33 17 -33 -11z"/>
<path d="M925 1119 c-4 -6 -5 -13 -2 -16 7 -7 27 6 27 18 0 12 -17 12 -25 -2z"/>
<path d="M1391 1106 c-8 -10 -9 -16 -1 -21 5 -3 13 1 16 10 9 22 -1 29 -15 11z"/>
<path d="M2920 1093 l0 -27 20 22 c11 12 20 24 20 27 0 3 -9 5 -20 5 -15 0
-20 -7 -20 -27z"/>
<path d="M333 1093 c-7 -3 -13 -12 -13 -21 0 -15 2 -15 17 1 18 18 16 27 -4
20z"/>
<path d="M810 1085 c-11 -13 -10 -14 4 -9 9 3 16 10 16 15 0 13 -6 11 -20 -6z"/>
<path d="M865 1079 c-4 -6 -5 -13 -2 -16 7 -7 27 6 27 18 0 12 -17 12 -25 -2z"/>
<path d="M997 1076 c-4 -10 -1 -13 9 -9 7 3 14 9 14 14 0 14 -17 10 -23 -5z"/>
<path d="M1440 1086 c0 -2 7 -6 15 -10 8 -3 15 -1 15 4 0 6 -7 10 -15 10 -8 0
-15 -2 -15 -4z"/>
<path d="M1150 1071 c0 -6 5 -13 10 -16 6 -3 10 1 10 9 0 9 -4 16 -10 16 -5 0
-10 -4 -10 -9z"/>
<path d="M1022 1048 c-14 -14 -16 -28 -3 -28 9 0 24 30 18 36 -2 2 -9 -2 -15
-8z"/>
<path d="M1584 1045 c-4 -11 -14 -25 -22 -31 -11 -8 -12 -13 -4 -18 13 -8 46
38 39 56 -3 9 -7 6 -13 -7z"/>
<path d="M2642 1048 c-14 -14 -16 -48 -4 -48 5 0 15 11 22 25 10 18 19 24 33
19 13 -4 17 -2 13 5 -9 15 -49 14 -64 -1z"/>
<path d="M313 1035 c-10 -10 -9 -16 2 -25 9 -8 15 -8 15 -2 0 6 3 17 6 26 7
20 -7 20 -23 1z"/>
<path d="M435 1039 c-11 -17 1 -21 15 -4 8 9 8 15 2 15 -6 0 -14 -5 -17 -11z"/>
<path d="M1270 1015 c-16 -19 0 -19 26 0 16 12 16 14 3 15 -9 0 -22 -7 -29
-15z"/>
<path d="M856 1011 c-4 -7 -5 -15 -2 -18 9 -9 19 4 14 18 -4 11 -6 11 -12 0z"/>
<path d="M1438 1013 c-10 -2 -18 -11 -18 -19 0 -20 14 -17 35 6 18 20 16 22
-17 13z"/>
<path d="M2470 1013 c0 -5 5 -15 10 -23 9 -13 11 -13 19 0 5 8 7 18 5 22 -6
10 -34 11 -34 1z"/>
<path d="M3076 986 l-7 -38 -23 21 c-12 11 -31 21 -42 20 -17 0 -16 -1 4 -9
12 -5 22 -16 22 -24 0 -7 7 -16 15 -20 10 -4 13 -15 9 -38 -4 -23 -2 -28 4
-18 13 21 35 117 30 132 -3 7 -8 -4 -12 -26z"/>
<path d="M442 998 c-7 -7 -12 -16 -12 -20 0 -15 15 -8 28 12 13 22 3 27 -16 8z"/>
<path d="M1484 985 c-20 -30 -10 -47 11 -19 14 18 20 44 10 44 -2 0 -12 -11
-21 -25z"/>
<path d="M305 980 c9 -30 34 -80 40 -80 4 0 -35 92 -43 100 -2 3 -1 -6 3 -20z"/>
<path d="M221 978 c-1 -20 82 -275 103 -316 11 -22 13 -33 5 -38 -8 -5 -5 -12
8 -23 11 -9 33 -50 47 -91 15 -41 33 -86 40 -100 7 -14 16 -37 20 -52 5 -23 2
-27 -23 -33 -20 -4 -28 -11 -25 -20 10 -24 35 -27 41 -4 4 13 11 18 20 14 11
-4 13 -1 8 12 -3 10 -8 32 -10 49 -5 35 -57 172 -121 321 -27 62 -42 108 -37
119 4 11 3 15 -4 11 -10 -6 -26 32 -62 138 -5 17 -10 23 -10 13z"/>
<path d="M472 978 c-7 -7 -12 -16 -12 -20 0 -15 15 -8 28 12 13 22 3 27 -16 8z"/>
<path d="M910 981 c0 -4 11 -6 25 -3 14 2 25 6 25 8 0 2 -11 4 -25 4 -14 0
-25 -4 -25 -9z"/>
<path d="M1165 980 c4 -6 11 -8 16 -5 14 9 11 15 -7 15 -8 0 -12 -5 -9 -10z"/>
<path d="M2376 983 c-10 -10 -7 -43 4 -43 6 0 10 5 10 11 0 6 9 8 20 4 11 -3
20 -2 20 3 0 11 -46 33 -54 25z"/>
<path d="M281 964 c0 -11 3 -14 6 -6 3 7 2 16 -1 19 -3 4 -6 -2 -5 -13z"/>
<path d="M2816 965 c-3 -8 -2 -15 3 -15 5 0 14 7 21 15 10 12 10 15 -3 15 -8
0 -17 -7 -21 -15z"/>
<path d="M1254 959 c-3 -6 -2 -15 4 -21 6 -6 11 -2 15 11 5 22 -7 29 -19 10z"/>
<path d="M2240 955 c0 -17 2 -18 24 -9 23 9 20 24 -4 24 -11 0 -20 -7 -20 -15z"/>
<path d="M2460 950 c-22 -22 -24 -29 -11 -49 6 -9 11 -10 15 -2 4 6 12 9 17 6
5 -4 9 3 9 14 0 12 5 21 10 21 16 0 12 17 -5 24 -9 3 -24 -3 -35 -14z"/>
<path d="M2656 962 c-7 -12 3 -42 14 -42 16 0 19 17 6 35 -8 11 -15 14 -20 7z"/>
<path d="M880 950 c-8 -5 -11 -12 -7 -16 4 -4 15 0 24 9 18 18 8 23 -17 7z"/>
<path d="M1053 945 c-22 -9 -33 -21 -33 -35 0 -11 4 -20 8 -20 16 0 30 23 24
38 -4 11 -1 14 11 9 9 -3 19 -2 23 4 10 17 1 18 -33 4z"/>
<path d="M265 920 c-3 -5 -1 -10 4 -10 6 0 11 5 11 10 0 6 -2 10 -4 10 -3 0
-8 -4 -11 -10z"/>
<path d="M485 920 c3 -5 10 -10 16 -10 5 0 9 5 9 10 0 6 -7 10 -16 10 -8 0
-12 -4 -9 -10z"/>
<path d="M1355 920 c-3 -5 -2 -10 4 -10 5 0 13 5 16 10 3 6 2 10 -4 10 -5 0
-13 -4 -16 -10z"/>
<path d="M1193 913 c-15 -5 -18 -33 -4 -33 8 0 25 30 19 35 -2 1 -9 0 -15 -2z"/>
<path d="M1320 911 c0 -6 5 -13 10 -16 6 -3 10 1 10 9 0 9 -4 16 -10 16 -5 0
-10 -4 -10 -9z"/>
<path d="M2191 888 l1 -33 10 28 c8 22 14 26 30 21 14 -4 18 -2 14 5 -4 6 -18
11 -32 11 -21 0 -24 -4 -23 -32z"/>
<path d="M2570 895 c0 -28 15 -34 24 -9 10 25 7 34 -9 34 -9 0 -15 -9 -15 -25z"/>
<path d="M2882 903 c-6 -10 -7 -25 -2 -32 6 -11 11 -8 20 9 8 15 9 25 2 32 -7
7 -14 4 -20 -9z"/>
<path d="M306 885 c4 -16 11 -34 16 -40 7 -7 8 -1 3 15 -12 40 -26 59 -19 25z"/>
<path d="M1103 903 c-17 -6 -16 -33 1 -33 7 0 16 9 19 20 5 20 2 22 -20 13z"/>
<path d="M191 874 c0 -11 3 -14 6 -6 3 7 2 16 -1 19 -3 4 -6 -2 -5 -13z"/>
<path d="M411 874 c0 -11 3 -14 6 -6 3 7 2 16 -1 19 -3 4 -6 -2 -5 -13z"/>
<path d="M955 880 c-3 -5 1 -10 9 -10 8 0 18 5 21 10 3 6 -1 10 -9 10 -8 0
-18 -4 -21 -10z"/>
<path d="M2350 875 c0 -9 6 -12 15 -9 8 4 15 10 15 15 0 5 -7 9 -15 9 -8 0
-15 -7 -15 -15z"/>
<path d="M2275 870 c27 -12 35 -12 35 0 0 6 -12 10 -27 9 -25 0 -26 -1 -8 -9z"/>
<path d="M2702 863 c5 -25 28 -28 28 -4 0 12 -6 21 -16 21 -9 0 -14 -7 -12
-17z"/>
<path d="M2940 860 c0 -11 5 -20 10 -20 6 0 10 9 10 20 0 11 -4 20 -10 20 -5
0 -10 -9 -10 -20z"/>
<path d="M357 863 c-11 -10 -8 -20 8 -27 10 -4 15 1 15 14 0 20 -11 26 -23 13z"/>
<path d="M1275 857 c-11 -8 -14 -16 -8 -20 6 -4 18 2 28 13 21 23 8 27 -20 7z"/>
<path d="M2214 845 c-7 -16 2 -35 17 -35 5 0 9 7 9 15 0 8 6 15 13 15 8 0 7 4
-3 10 -21 13 -30 12 -36 -5z"/>
<path d="M645 837 c-4 -10 -5 -21 -1 -24 10 -10 18 4 13 24 -4 17 -4 17 -12 0z"/>
<path d="M504 830 c-25 -10 -39 -28 -29 -38 4 -4 12 0 18 9 7 8 21 21 32 27
23 13 10 15 -21 2z"/>
<path d="M1040 800 c-14 -10 -22 -22 -18 -25 7 -8 57 25 58 38 0 12 -14 8 -40
-13z"/>
<path d="M1088 792 c-10 -2 -18 -8 -18 -13 0 -11 11 -11 30 1 18 11 11 18 -12
12z"/>
<path d="M1125 780 c-15 -17 -16 -20 -3 -20 9 0 19 7 22 16 10 25 1 27 -19 4z"/>
<path d="M1221 786 c-8 -9 -11 -19 -7 -23 9 -9 29 13 24 27 -2 8 -8 7 -17 -4z"/>
<path d="M2220 780 c0 -24 15 -27 24 -4 9 22 8 24 -9 24 -8 0 -15 -9 -15 -20z"/>
<path d="M530 781 c0 -5 9 -11 20 -14 24 -6 27 8 4 17 -21 8 -24 8 -24 -3z"/>
<path d="M2306 782 c-3 -5 8 -12 24 -14 17 -3 30 -1 30 4 0 4 -4 8 -9 8 -5 0
-16 3 -24 6 -8 3 -18 1 -21 -4z"/>
<path d="M375 759 c-19 -19 -19 -21 44 -209 35 -105 65 -211 68 -237 4 -54 25
-85 45 -65 9 9 9 12 0 12 -7 0 -12 11 -12 25 0 13 -5 36 -12 50 -11 24 -10 28
7 38 19 11 19 11 -4 17 -18 4 -29 20 -47 68 -13 34 -19 62 -14 62 6 0 10 5 10
10 0 6 -6 10 -12 10 -15 0 -80 184 -67 188 5 2 9 8 9 14 0 6 8 17 18 24 14 11
14 13 2 13 -8 0 -24 -9 -35 -20z"/>
<path d="M1152 760 c-7 -11 -8 -20 -2 -20 5 0 14 9 20 20 6 11 7 20 3 20 -5 0
-14 -9 -21 -20z"/>
<path d="M1880 746 c0 -9 7 -12 20 -9 11 3 20 9 20 14 0 5 -9 9 -20 9 -11 0
-20 -6 -20 -14z"/>
<path d="M2440 736 c0 -14 4 -27 9 -30 10 -6 23 33 15 46 -10 16 -24 7 -24
-16z"/>
<path d="M2820 745 c-7 -8 -16 -12 -21 -9 -5 3 -9 -7 -9 -23 l0 -28 25 29 c22
26 32 46 21 46 -2 0 -9 -7 -16 -15z"/>
<path d="M2935 750 c3 -5 10 -10 16 -10 5 0 9 5 9 10 0 6 -7 10 -16 10 -8 0
-12 -4 -9 -10z"/>
<path d="M700 731 c0 -12 6 -21 16 -21 9 0 14 7 12 17 -5 25 -28 28 -28 4z"/>
<path d="M2655 740 c-3 -5 1 -10 9 -10 9 0 16 5 16 10 0 6 -4 10 -9 10 -6 0
-13 -4 -16 -10z"/>
<path d="M2315 720 c-3 -5 -2 -10 4 -10 5 0 13 5 16 10 3 6 2 10 -4 10 -5 0
-13 -4 -16 -10z"/>
<path d="M2480 707 c0 -8 12 -14 30 -14 24 0 27 3 19 14 -6 7 -20 13 -30 13
-11 0 -19 -6 -19 -13z"/>
<path d="M2670 715 c0 -18 19 -40 26 -32 4 4 0 15 -9 24 -9 10 -17 13 -17 8z"/>
<path d="M1790 695 c0 -8 4 -15 9 -15 5 0 11 7 15 15 3 9 0 15 -9 15 -8 0 -15
-7 -15 -15z"/>
<path d="M470 691 c0 -5 -9 -11 -21 -14 -27 -7 -15 -27 15 -27 25 0 51 22 39
33 -3 4 -12 -1 -20 -11 -13 -16 -14 -15 -8 6 4 12 4 22 1 22 -3 0 -6 -4 -6 -9z"/>
<path d="M530 690 c0 -5 5 -10 11 -10 5 0 7 5 4 10 -3 6 -8 10 -11 10 -2 0 -4
-4 -4 -10z"/>
<path d="M1880 690 c0 -5 9 -10 21 -10 11 0 17 5 14 10 -3 6 -13 10 -21 10 -8
0 -14 -4 -14 -10z"/>
<path d="M2590 687 c0 -10 6 -25 14 -33 31 -30 36 -8 6 27 -17 21 -19 22 -20
6z"/>
<path d="M277 672 c3 -12 9 -25 14 -28 14 -8 11 10 -6 32 -13 18 -14 18 -8 -4z"/>
<path d="M611 646 c-7 -8 -8 -17 -3 -19 4 -3 13 3 20 14 14 22 0 26 -17 5z"/>
<path d="M1650 640 c0 -11 7 -20 15 -20 13 0 14 4 5 20 -6 11 -13 20 -15 20
-3 0 -5 -9 -5 -20z"/>
<path d="M1901 636 c-13 -15 -7 -36 10 -36 5 0 9 7 9 15 0 12 7 14 28 9 18 -4
24 -3 17 4 -19 19 -52 23 -64 8z"/>
<path d="M2835 640 c-8 -12 5 -60 16 -60 5 0 9 16 9 35 0 33 -12 46 -25 25z"/>
<path d="M830 620 c-14 -10 -22 -22 -18 -25 7 -8 57 25 58 38 0 12 -14 8 -40
-13z"/>
<path d="M1810 632 c0 -10 43 -52 54 -52 10 0 -36 59 -46 59 -5 1 -8 -3 -8 -7z"/>
<path d="M300 618 c0 -9 5 -20 10 -23 13 -8 13 5 0 25 -8 13 -10 13 -10 -2z"/>
<path d="M2450 614 c0 -11 6 -13 19 -9 15 5 18 2 15 -13 -4 -15 1 -18 30 -18
40 0 47 11 14 22 -12 3 -28 13 -36 20 -18 19 -42 18 -42 -2z"/>
<path d="M660 601 c-7 -15 -7 -21 0 -21 12 0 25 28 17 36 -3 3 -10 -4 -17 -15z"/>
<path d="M1597 603 c-4 -3 -7 -12 -7 -19 0 -9 5 -10 24 -1 13 7 22 15 20 19
-6 10 -28 10 -37 1z"/>
<path d="M865 580 c-10 -11 -14 -20 -8 -20 5 0 18 9 28 20 10 11 14 20 8 20
-5 0 -18 -9 -28 -20z"/>
<path d="M2597 593 c-4 -3 -7 -13 -7 -22 0 -11 3 -12 11 -4 8 8 20 8 35 3 28
-11 31 -3 7 16 -20 15 -36 17 -46 7z"/>
<path d="M1912 548 c3 -26 21 -22 25 5 2 10 -4 17 -13 17 -10 0 -14 -7 -12
-22z"/>
<path d="M570 544 c0 -8 5 -12 10 -9 6 4 8 11 5 16 -9 14 -15 11 -15 -7z"/>
<path d="M1580 550 c0 -5 7 -10 15 -10 8 0 15 5 15 10 0 6 -7 10 -15 10 -8 0
-15 -4 -15 -10z"/>
<path d="M1359 533 c-12 -15 -12 -16 4 -10 10 4 23 7 28 7 5 0 9 5 9 10 0 16
-26 12 -41 -7z"/>
<path d="M1820 538 c0 -11 11 -15 41 -15 45 0 40 13 -9 23 -25 5 -32 3 -32 -8z"/>
<path d="M2045 541 c-7 -12 12 -24 25 -16 11 7 4 25 -10 25 -5 0 -11 -4 -15
-9z"/>
<path d="M2690 541 c0 -5 -3 -16 -6 -25 -10 -25 12 -19 30 9 16 24 16 25 -4
25 -11 0 -20 -4 -20 -9z"/>
<path d="M521 525 c1 -31 15 -60 22 -48 4 6 0 24 -8 39 -12 23 -15 25 -14 9z"/>
<path d="M1550 530 c0 -5 5 -10 11 -10 5 0 7 5 4 10 -3 6 -8 10 -11 10 -2 0
-4 -4 -4 -10z"/>
<path d="M1683 518 c2 -7 10 -13 17 -13 7 0 15 6 18 13 2 7 -5 12 -18 12 -13
0 -20 -5 -17 -12z"/>
<path d="M2790 513 c0 -13 3 -14 11 -6 6 6 19 9 28 6 14 -4 14 -3 1 6 -22 16
-40 13 -40 -6z"/>
<path d="M471 506 c-7 -8 -8 -17 -3 -20 6 -3 13 1 16 10 9 23 2 28 -13 10z"/>
<path d="M589 476 c-9 -18 -9 -30 -2 -37 7 -7 12 0 17 22 8 41 0 49 -15 15z"/>
<path d="M2817 493 c-9 -2 -15 -8 -12 -13 6 -10 45 -1 45 11 0 9 -4 10 -33 2z"/>
<path d="M1605 480 c-3 -5 -15 -10 -26 -10 -10 0 -19 -5 -19 -11 0 -6 6 -9 14
-6 7 3 19 0 25 -6 6 -6 11 -7 11 -3 0 5 7 3 15 -4 12 -10 15 -10 15 3 0 11 7
14 23 10 l22 -6 -22 22 c-24 22 -48 27 -58 11z"/>
<path d="M1325 461 c-9 -15 23 -33 41 -23 9 5 13 11 8 14 -23 13 -44 16 -49 9z"/>
<path d="M1496 462 c-2 -4 -1 -14 4 -22 7 -11 11 -11 24 3 9 8 16 18 16 21 0
9 -38 7 -44 -2z"/>
<path d="M1430 441 c0 -5 7 -11 15 -15 9 -3 15 0 15 9 0 8 -7 15 -15 15 -8 0
-15 -4 -15 -9z"/>
<path d="M2616 443 c-3 -3 -6 -13 -6 -22 0 -11 3 -12 11 -4 6 6 18 9 25 6 21
-8 17 5 -5 16 -10 6 -21 7 -25 4z"/>
<path d="M2822 435 c-61 -12 -89 -24 -61 -26 67 -5 159 14 159 32 0 11 -17 10
-98 -6z"/>
<path d="M1772 423 c4 -24 23 -27 25 -3 1 12 -4 20 -13 20 -9 0 -14 -7 -12
-17z"/>
<path d="M2080 422 c0 -7 -7 -12 -15 -12 -8 0 -15 -8 -15 -17 0 -15 3 -14 22
5 12 12 19 25 15 28 -4 4 -7 2 -7 -4z"/>
<path d="M1110 408 c0 -7 7 -22 15 -32 13 -17 15 -18 15 -3 0 9 5 17 11 17 8
0 8 5 -1 15 -15 18 -40 20 -40 3z"/>
<path d="M1295 410 c3 -5 12 -7 20 -3 21 7 19 13 -6 13 -11 0 -18 -4 -14 -10z"/>
<path d="M2275 409 c-10 -14 -1 -21 19 -13 9 3 13 10 10 15 -7 12 -21 11 -29
-2z"/>
<path d="M1010 402 c0 -5 17 -12 38 -14 61 -8 60 9 -2 19 -22 3 -36 2 -36 -5z"/>
<path d="M1233 403 c-23 -9 -14 -20 12 -15 14 2 25 8 25 13 0 10 -17 11 -37 2z"/>
<path d="M2850 379 c-19 -4 -43 -6 -52 -3 -12 4 -18 0 -18 -12 0 -14 6 -15 33
-9 17 5 47 8 65 8 20 0 32 5 32 14 0 14 -9 15 -60 2z"/>
<path d="M1578 371 c-1 -5 -120 -12 -263 -17 -143 -4 -272 -8 -287 -10 -16 -1
-37 -2 -49 -3 -11 0 -18 -4 -16 -8 4 -6 132 -9 132 -3 0 0 38 3 83 6 77 5 85
4 99 -15 16 -24 48 -29 40 -7 -4 11 -1 13 10 9 11 -4 14 -2 9 5 -5 8 5 12 31
13 21 0 49 2 63 4 14 2 62 4 107 5 69 2 80 5 68 16 -16 16 -22 17 -27 5z"/>
<path d="M1756 371 c-8 -12 3 -41 15 -41 8 0 12 19 8 35 -3 11 -18 15 -23 6z"/>
<path d="M2570 361 c0 -5 8 -11 18 -14 9 -2 26 -8 37 -13 20 -7 20 -7 1 14
-19 22 -56 30 -56 13z"/>
<path d="M610 307 c0 -9 5 -19 10 -22 6 -3 10 -1 10 6 0 6 8 9 20 6 11 -3 20
-1 20 4 0 5 -6 9 -14 9 -8 0 -21 3 -30 6 -10 4 -16 1 -16 -9z"/>
<path d="M850 300 c0 -11 2 -20 4 -20 2 0 6 9 9 20 3 11 1 20 -4 20 -5 0 -9
-9 -9 -20z"/>
<path d="M1860 300 c0 -11 2 -20 5 -20 2 0 9 9 15 20 9 16 8 20 -5 20 -8 0
-15 -9 -15 -20z"/>
<path d="M1440 300 c20 -13 40 -13 40 0 0 6 -12 10 -27 10 -22 0 -25 -2 -13
-10z"/>
<path d="M1676 301 c-8 -13 4 -42 15 -35 5 3 7 10 4 15 -4 5 3 9 15 9 12 0 18
5 15 10 -8 12 -42 13 -49 1z"/>
<path d="M2657 303 c-14 -13 -6 -21 18 -19 28 1 33 11 9 20 -19 7 -19 7 -27
-1z"/>
<path d="M1973 290 c-23 -9 -32 -30 -13 -30 6 0 10 5 10 10 0 6 7 10 15 10 8
0 15 5 15 10 0 6 -1 10 -2 9 -2 0 -13 -4 -25 -9z"/>
<path d="M2310 275 c0 -8 5 -15 10 -15 6 0 10 4 10 9 0 5 10 12 23 14 16 3 13
5 -10 6 -23 1 -33 -3 -33 -14z"/>
<path d="M775 270 c3 -5 8 -10 11 -10 2 0 4 5 4 10 0 6 -5 10 -11 10 -5 0 -7
-4 -4 -10z"/>
<path d="M2375 269 c-10 -16 3 -23 18 -10 8 6 22 9 31 5 9 -3 16 -1 16 5 0 14
-57 14 -65 0z"/>
<path d="M2530 265 c0 -8 3 -15 6 -15 3 0 12 7 20 15 14 13 13 15 -5 15 -12 0
-21 -6 -21 -15z"/>
<path d="M674 254 c3 -9 6 -18 6 -20 0 -2 4 -4 8 -4 4 0 8 9 8 20 0 11 -7 20
-14 20 -9 0 -12 -6 -8 -16z"/>
<path d="M845 260 c-11 -17 5 -31 19 -17 14 12 12 27 -4 27 -5 0 -12 -4 -15
-10z"/>
<path d="M953 260 c-13 -5 -23 -14 -23 -20 0 -6 12 -4 30 5 45 23 39 33 -7 15z"/>
<path d="M1037 257 c-11 -29 -9 -43 4 -30 6 6 9 19 7 29 -3 18 -4 18 -11 1z"/>
<path d="M1270 259 c0 -5 5 -7 10 -4 6 3 10 8 10 11 0 2 -4 4 -10 4 -5 0 -10
-5 -10 -11z"/>
<path d="M1429 251 c-13 -19 -22 -19 -154 -11 -84 5 -141 5 -143 -1 -2 -5 -10
-9 -18 -9 -8 0 -14 -4 -14 -8 0 -10 42 -10 50 -1 3 3 42 4 88 1 67 -4 82 -8
82 -21 1 -14 2 -14 13 -1 10 12 49 16 207 19 190 3 415 15 395 20 -20 6 -308
1 -326 -4 -13 -4 -19 -1 -19 9 0 9 -4 16 -10 16 -5 0 -7 -7 -4 -15 4 -8 1 -15
-5 -15 -6 0 -11 7 -11 15 0 8 -4 15 -10 15 -5 0 -9 -6 -7 -12 1 -9 -13 -13
-45 -14 -27 -1 -48 2 -48 8 0 5 4 7 9 3 5 -3 12 -1 16 5 4 6 11 8 16 5 5 -4 9
-1 9 4 0 19 -57 12 -71 -8z"/>
<path d="M1976 254 c-10 -27 2 -29 24 -6 20 21 20 22 1 22 -10 0 -22 -7 -25
-16z"/>
<path d="M2610 259 c0 -5 5 -7 10 -4 6 3 10 8 10 11 0 2 -4 4 -10 4 -5 0 -10
-5 -10 -11z"/>
<path d="M2840 260 c0 -5 7 -7 15 -4 8 4 15 8 15 10 0 2 -7 4 -15 4 -8 0 -15
-4 -15 -10z"/>
<path d="M425 250 c-3 -5 3 -10 13 -10 11 0 22 -7 26 -15 7 -20 26 -19 26 0 0
9 -12 20 -26 25 -31 12 -31 12 -39 0z"/>
<path d="M558 228 c3 -13 11 -18 23 -15 10 3 20 -2 23 -10 5 -11 10 -12 28 -2
l22 12 -22 8 c-12 5 -22 12 -22 17 0 5 -13 9 -29 9 -23 0 -27 -4 -23 -19z"/>
<path d="M2269 239 c-9 -5 -10 -11 -4 -18 7 -6 16 -5 28 3 14 11 15 15 4 19
-8 3 -20 1 -28 -4z"/>
<path d="M2670 243 c-100 -5 -240 -26 -240 -35 0 -6 17 -8 43 -4 23 3 114 9
202 12 88 3 164 9 170 15 5 6 2 9 -10 10 -78 3 -126 4 -165 2z"/>
<path d="M2115 210 c-4 -6 8 -10 29 -10 19 0 38 5 41 10 4 6 -8 10 -29 10 -19
0 -38 -4 -41 -10z"/>
<path d="M432 184 c-1 -18 4 -25 23 -29 14 -3 37 -8 52 -11 36 -7 22 7 -20 21
-18 6 -31 16 -30 22 1 6 -3 13 -10 16 -8 3 -14 -4 -15 -19z"/>
<path d="M973 203 c-16 -6 -17 -39 -1 -49 8 -5 9 -2 4 11 -4 11 -2 22 6 26 15
9 8 18 -9 12z"/>
<path d="M758 193 c6 -2 18 -2 25 0 6 3 1 5 -13 5 -14 0 -19 -2 -12 -5z"/>
<path d="M1055 189 c-4 -5 -5 -9 -3 -10 2 0 10 -2 18 -4 8 -2 23 -6 33 -10 9
-4 17 -3 17 3 0 14 -58 33 -65 21z"/>
<path d="M640 180 c0 -5 5 -10 11 -10 5 0 7 5 4 10 -3 6 -8 10 -11 10 -2 0 -4
-4 -4 -10z"/>
<path d="M2728 183 c7 -3 16 -2 19 1 4 3 -2 6 -13 5 -11 0 -14 -3 -6 -6z"/>
<path d="M538 173 c7 -3 16 -2 19 1 4 3 -2 6 -13 5 -11 0 -14 -3 -6 -6z"/>
<path d="M900 176 c0 -2 7 -9 15 -16 12 -10 15 -10 15 4 0 9 -7 16 -15 16 -8
0 -15 -2 -15 -4z"/>
<path d="M575 130 c27 -12 43 -12 25 0 -8 5 -22 9 -30 9 -10 0 -8 -3 5 -9z"/>
<path d="M509 1893 c-13 -17 -13 -17 6 -3 11 8 22 16 24 17 2 2 0 3 -6 3 -6 0
-17 -8 -24 -17z"/>
<path d="M261 484 c0 -11 3 -14 6 -6 3 7 2 16 -1 19 -3 4 -6 -2 -5 -13z"/>
<path d="M2 1568 c1 -641 8 -725 22 -278 9 268 27 664 32 671 2 3 8 44 13 91
12 101 5 172 -16 164 -7 -3 -16 1 -19 9 -4 8 -12 15 -20 15 -12 0 -14 -104
-12 -672z"/>
<path d="M4 765 c0 -71 1 -99 3 -62 2 37 2 96 0 130 -2 34 -3 4 -3 -68z"/>
</g>
</svg>
