<?xml version="1.0" standalone="no"?>
<!DOCTYPE svg PUBLIC "-//W3C//DTD SVG 20010904//EN"
 "http://www.w3.org/TR/2001/REC-SVG-20010904/DTD/svg10.dtd">
<svg version="1.0" xmlns="http://www.w3.org/2000/svg"
 width="333.000000pt" height="377.000000pt" viewBox="0 0 333.000000 377.000000"
 preserveAspectRatio="xMidYMid meet">
<metadata>
Created by potrace 1.16, written by Peter Selinger 2001-2019
</metadata>
<g transform="translate(0.000000,377.000000) scale(0.100000,-0.100000)"
fill="#000000" stroke="none">
<path d="M2080 3760 c-36 -4 -223 -8 -417 -9 -244 -1 -354 -4 -359 -12 -4 -7
-25 -9 -58 -5 -29 4 -165 -4 -321 -19 -148 -14 -301 -25 -340 -25 -70 -1 -228
-19 -340 -40 -33 -6 -82 -15 -108 -19 -27 -5 -53 -13 -59 -19 -7 -7 -12 -74
-12 -184 -1 -95 -8 -204 -15 -241 -10 -54 -10 -107 -2 -256 6 -103 8 -241 5
-307 -3 -65 -2 -147 3 -181 6 -40 5 -154 -5 -330 -8 -166 -14 -521 -15 -935
-1 -366 -5 -669 -8 -672 -8 -8 1 -186 11 -226 13 -46 13 -130 0 -130 -5 0 -7
-7 -3 -16 3 -9 1 -19 -5 -23 -5 -3 -8 -18 -5 -34 5 -24 10 -27 47 -28 286 -8
374 -6 476 6 92 12 260 18 390 15 8 0 94 4 190 9 96 5 245 7 330 6 85 -2 137
0 115 4 l-40 7 45 8 c31 6 45 5 48 -3 3 -9 38 -10 125 -7 67 3 210 8 317 12
107 3 211 7 230 9 19 2 145 11 280 19 135 9 299 21 365 28 66 6 154 11 196 12
42 1 83 6 90 12 8 6 23 15 34 19 19 8 19 9 -2 12 -24 5 -31 27 -12 39 7 4 9
21 5 45 -3 21 -2 49 3 62 5 13 6 28 1 33 -4 5 -15 54 -24 109 -9 55 -19 114
-21 132 -3 17 -1 34 5 38 7 4 8 11 2 18 -6 7 -11 37 -11 67 -1 30 -2 65 -2 78
-1 31 5 36 31 22 18 -10 21 -9 18 2 -3 7 -14 14 -26 16 -20 3 -22 9 -22 65 0
34 -4 116 -10 182 -19 226 -28 398 -20 424 4 14 3 38 -1 54 -6 23 -4 27 12 27
24 0 24 5 0 29 -20 20 -28 109 -24 286 2 63 -1 101 -8 106 -16 9 -15 549 1
559 6 4 8 14 4 24 -4 11 -9 14 -14 7 -15 -25 -32 149 -24 251 4 57 6 108 5
113 -8 23 -11 225 -3 225 4 0 4 51 0 113 -3 61 -9 162 -13 222 -3 61 -7 124
-8 141 -5 67 14 64 -499 62 -255 0 -492 -4 -528 -8z m-383 -37 c-20 -2 -52 -2
-70 0 -17 2 0 4 38 4 39 0 53 -2 32 -4z m816 0 c-7 -2 -19 -2 -25 0 -7 3 -2 5
12 5 14 0 19 -2 13 -5z m-1800 -100 c-7 -2 -21 -2 -30 0 -10 3 -4 5 12 5 17 0
24 -2 18 -5z m-575 -40 c0 -21 -2 -23 -10 -9 -5 9 -6 21 -3 26 10 16 13 12 13
-17z m464 5 c-9 -9 -15 -9 -24 0 -9 9 -7 12 12 12 19 0 21 -3 12 -12z m2485
-95 c-2 -16 -4 -5 -4 22 0 28 2 40 4 28 2 -13 2 -35 0 -50z m-3020 -445 c-2
-24 -4 -7 -4 37 0 44 2 63 4 43 2 -21 2 -57 0 -80z m1613 -218 c12 -8 10 -10
-10 -10 -14 0 -32 5 -40 10 -12 8 -10 10 10 10 14 0 32 -5 40 -10z m188 -95
c3 -3 -6 -5 -20 -5 -15 0 -28 -5 -30 -10 -2 -7 -15 -7 -37 0 -19 5 -37 8 -39
5 -8 -8 9 -25 26 -25 23 -1 72 -29 51 -30 -9 0 -31 5 -48 11 -31 11 -35 9 -74
-29 -23 -22 -66 -52 -94 -66 -38 -19 -53 -32 -53 -46 0 -18 -10 -14 -74 30
-85 58 -108 80 -82 80 9 0 29 12 43 28 22 23 25 24 19 6 -5 -16 -2 -23 14 -27
26 -7 30 2 37 69 3 30 10 57 15 60 5 4 23 -9 39 -27 26 -31 30 -32 39 -16 7
10 23 17 42 17 27 0 29 2 17 16 -12 15 -11 16 9 10 19 -6 25 -4 29 12 5 19 9
18 85 -19 45 -21 83 -41 86 -44z m188 -33 c29 -65 28 -63 7 -55 -14 5 -13 1 5
-24 l22 -31 -40 -60 c-41 -62 -76 -139 -68 -148 3 -2 11 8 17 23 6 16 21 34
33 42 19 12 20 11 16 -7 -4 -15 4 -29 33 -51 21 -17 43 -31 48 -31 27 0 19
-114 -11 -174 -7 -12 -6 -22 1 -29 6 -6 11 -21 11 -34 0 -17 -6 -23 -21 -23
-17 0 -20 -5 -16 -22 4 -13 9 -71 13 -130 4 -60 10 -108 15 -108 8 0 23 -37
24 -59 0 -8 10 -15 23 -16 20 -2 22 3 23 54 1 51 2 54 12 28 15 -37 31 -29 37
19 4 28 7 34 12 22 10 -25 45 -23 53 3 8 26 0 35 -18 20 -12 -9 -16 0 -27 51
-6 35 -14 71 -17 82 -9 35 -22 1 -25 -69 -3 -68 -3 -67 -8 28 -4 73 -2 97 8
97 6 0 12 -7 12 -15 0 -8 5 -14 12 -13 6 2 14 -7 17 -18 5 -18 12 -21 43 -18
30 2 40 -1 49 -18 9 -17 13 -18 21 -7 7 10 8 9 3 -6 -4 -11 -8 -51 -10 -89 -2
-50 -7 -73 -19 -81 -9 -7 -16 -24 -16 -39 0 -14 -4 -26 -9 -26 -12 0 -22 -29
-15 -42 4 -6 12 -2 19 11 11 22 11 22 24 -6 7 -15 17 -41 22 -56 8 -27 6 -29
-15 -23 -27 7 -45 -20 -48 -72 -1 -19 -6 -36 -10 -38 -4 -3 -8 -21 -8 -40 0
-38 -41 -134 -65 -154 -12 -10 -15 -9 -15 10 0 24 55 166 72 187 8 10 6 13 -5
13 -8 0 -18 6 -20 13 -3 6 -6 1 -6 -13 -1 -14 -15 -63 -31 -110 -16 -47 -30
-95 -30 -106 0 -20 -56 -90 -122 -155 -27 -25 -39 -57 -18 -44 18 11 11 -9
-17 -50 -15 -22 -28 -34 -31 -27 -2 7 3 21 12 31 27 30 18 43 -14 19 -16 -12
-30 -29 -30 -37 0 -9 -11 4 -24 29 -24 44 -46 63 -46 38 1 -7 7 -24 15 -38 8
-14 14 -36 15 -50 0 -23 -2 -22 -32 15 -53 65 -71 80 -76 66 -2 -6 12 -33 32
-58 49 -64 45 -72 -12 -24 -54 46 -67 50 -59 21 7 -26 -13 -26 -44 -1 -23 19
-23 20 -5 39 27 31 11 46 -27 26 -18 -9 -40 -21 -49 -25 -11 -5 -25 -1 -42 12
-14 11 -30 18 -36 14 -5 -3 -16 10 -24 28 -8 19 -18 37 -23 40 -5 3 -7 25 -4
49 5 35 10 42 25 40 16 -3 18 2 14 34 -5 42 10 67 54 90 24 12 26 18 21 51 -3
21 -9 40 -13 43 -13 10 -19 39 -10 45 6 4 10 -1 10 -9 0 -9 5 -16 11 -16 8 0
10 22 5 78 l-6 77 19 -25 c11 -14 26 -34 35 -45 14 -20 15 -20 29 -1 13 18 15
17 47 -18 40 -43 65 -46 74 -10 6 22 1 33 -25 60 -34 35 -22 48 17 19 24 -18
34 -19 34 -2 0 7 -23 21 -51 31 -35 13 -47 21 -38 27 15 9 15 9 -47 57 -47 36
-54 38 -54 17 0 -8 18 -25 40 -37 35 -20 51 -38 35 -38 -14 0 -72 34 -95 56
-14 13 -34 23 -45 22 -28 -1 -75 19 -75 33 0 6 -9 9 -20 6 -12 -3 -24 1 -29
11 -8 13 -12 14 -25 3 -14 -12 -16 -10 -16 17 0 24 -4 30 -15 26 -8 -4 -15 -1
-15 5 0 15 22 14 46 -3 19 -14 44 -19 77 -17 27 2 20 21 -8 21 -14 0 -44 9
-66 21 -23 11 -47 18 -54 15 -7 -2 -16 -25 -19 -49 -4 -25 -14 -51 -21 -57 -8
-7 -15 -17 -15 -22 0 -5 -7 -20 -17 -34 -21 -33 -33 -16 -33 47 0 30 -6 54
-17 68 -18 20 -18 20 -41 1 -13 -11 -27 -32 -32 -47 -7 -24 -8 -25 -9 -6 -1
12 -10 27 -21 33 -12 6 -20 21 -21 38 0 15 -4 36 -8 47 -5 12 -3 24 5 33 14
13 10 60 -8 96 -9 17 -12 17 -34 -10 -14 -15 -22 -34 -19 -41 3 -10 0 -11 -11
-5 -10 5 -17 24 -19 46 -2 29 2 36 17 36 14 0 18 8 18 39 0 22 5 43 10 46 6 3
10 1 10 -5 0 -6 5 -8 10 -5 12 8 13 75 1 75 -5 0 -11 -7 -15 -15 -12 -32 -29
-15 -23 23 6 34 2 41 -48 96 -64 69 -89 71 -83 6 2 -22 0 -40 -4 -40 -10 0
-29 45 -33 75 -4 31 -4 31 -24 6 l-18 -24 -5 27 c-4 19 -2 26 7 22 7 -2 16 -2
20 2 4 4 10 7 15 7 4 0 18 11 30 25 l21 25 -4 -27 c-6 -37 11 -36 24 2 12 32
23 38 36 17 6 -10 12 -9 25 4 16 17 16 18 -2 24 -11 4 -17 12 -13 21 3 8 -1
14 -10 14 -8 0 -17 -7 -21 -15 -3 -8 -14 -15 -25 -15 -11 0 -27 -10 -35 -21
-13 -19 -16 -20 -30 -7 -15 15 -19 78 -6 78 5 0 11 -11 14 -25 7 -28 24 -33
33 -9 3 8 17 20 32 25 18 7 22 12 12 18 -10 6 -9 10 4 14 9 4 13 3 10 -3 -11
-18 12 -10 30 10 10 11 24 20 32 20 7 0 13 6 13 14 0 18 47 52 83 61 20 6 34
1 58 -19 17 -14 36 -26 43 -26 7 0 27 -16 46 -35 19 -19 51 -47 71 -61 40 -27
53 -49 42 -67 -4 -6 -10 0 -15 14 -17 44 -24 2 -13 -68 7 -38 10 -72 7 -78 -3
-5 -7 -4 -9 2 -4 12 -43 5 -43 -8 0 -5 4 -9 8 -9 4 0 6 -15 4 -34 -5 -45 12
-76 43 -76 23 0 25 4 25 41 0 24 4 38 10 34 6 -3 10 -19 10 -36 0 -16 5 -29
10 -29 6 0 10 9 10 20 0 11 5 20 11 20 11 0 6 66 -7 113 -5 15 -1 17 19 12 22
-6 26 -3 32 24 3 17 4 35 0 41 -4 6 4 6 19 -2 31 -14 47 -3 22 15 -16 11 -15
14 11 34 16 11 52 32 81 47 29 15 58 35 64 46 18 28 38 25 75 -13 18 -19 48
-42 67 -52 29 -16 37 -17 50 -6 9 8 16 19 16 26 0 8 12 23 26 34 20 16 25 26
20 45 -3 14 -1 28 5 31 6 5 8 22 4 46 -6 34 -5 38 10 33 9 -4 27 -31 41 -62z
m-698 -31 c-15 -5 -19 4 -11 24 6 18 7 18 13 -1 4 -10 3 -21 -2 -23z m552 -53
c0 -13 -23 -5 -28 10 -2 7 2 10 12 6 9 -3 16 -11 16 -16z m514 -44 c3 -8 2
-12 -4 -9 -6 3 -10 10 -10 16 0 14 7 11 14 -7z m-2154 -14 c41 -21 60 -41 38
-39 -28 1 -112 36 -116 47 -6 18 34 14 78 -8z m158 -50 c12 -8 22 -18 22 -21
0 -14 -77 13 -87 30 -10 16 -8 17 15 12 15 -3 37 -13 50 -21z m-223 -10 c10
-11 14 -20 8 -20 -5 0 -18 9 -28 20 -10 11 -14 20 -8 20 5 0 18 -9 28 -20z
m321 -1 c18 -11 56 -22 83 -24 28 -2 84 -13 126 -24 42 -12 81 -19 86 -16 5 4
9 1 9 -4 0 -15 -24 -14 -90 4 -86 23 -76 6 15 -24 l30 -10 -30 1 c-35 1 -155
34 -194 54 -14 8 -38 14 -53 14 -16 0 -28 5 -28 11 0 5 6 7 13 3 10 -6 10 -4
0 7 -14 14 -17 29 -7 29 4 0 22 -9 40 -21z m1564 -5 c0 -8 5 -12 10 -9 6 3 10
-3 10 -14 0 -12 -4 -21 -8 -21 -17 0 -42 37 -36 53 7 20 24 13 24 -9z m-560
-21 c0 -18 -7 -16 -30 7 -26 26 -25 31 5 17 14 -7 25 -18 25 -24z m-1172 -21
c53 -28 49 -40 -4 -16 -22 10 -50 20 -63 23 -13 4 -26 11 -28 17 -5 16 42 4
95 -24z m1119 -9 c1 -19 -4 -34 -13 -37 -10 -4 -14 2 -14 18 0 14 -3 32 -6 41
-5 13 -2 16 12 13 13 -2 19 -13 21 -35z m-1210 1 c31 -10 53 -24 56 -35 4 -14
2 -16 -12 -8 -9 5 -38 18 -65 27 -27 10 -51 23 -54 31 -3 8 1 11 9 8 8 -3 37
-13 66 -23z m224 0 c30 -9 59 -19 64 -22 6 -4 12 -7 15 -7 3 0 51 -11 107 -25
97 -23 123 -39 65 -41 -26 0 -26 -1 -4 -9 12 -5 22 -14 22 -19 0 -15 -28 -21
-52 -11 -14 5 -17 9 -8 10 30 2 -23 30 -54 29 -17 0 -25 -3 -19 -6 7 -2 27
-18 45 -35 l33 -31 -40 7 -40 8 24 -21 c13 -12 29 -21 36 -21 6 0 19 -6 28
-12 15 -11 6 -12 -50 -10 -58 3 -65 2 -55 -11 18 -21 -8 -29 -33 -11 -10 8
-13 14 -7 14 7 0 12 9 12 21 0 11 -4 18 -9 14 -5 -3 -31 7 -58 22 -26 14 -49
26 -50 25 -2 -1 -2 -1 -1 1 1 1 -20 23 -47 50 -45 43 -48 60 -7 38 26 -13 171
-25 152 -12 -8 6 -36 14 -62 17 -26 4 -45 11 -42 16 3 5 -2 18 -12 29 -21 23
-21 23 47 3z m-336 -28 c18 4 35 -3 64 -27 23 -18 41 -37 41 -43 0 -6 17 -22
38 -36 49 -33 52 -34 52 -17 0 10 7 13 20 10 11 -3 20 -1 20 4 0 5 -19 14 -42
20 -24 6 -56 25 -72 42 -31 32 -29 56 1 28 10 -8 32 -19 48 -23 41 -10 115
-63 109 -79 -3 -7 8 -18 25 -25 30 -12 42 -30 21 -30 -5 0 -10 -10 -10 -21 0
-19 4 -20 35 -15 20 4 35 3 35 -3 0 -5 13 -12 29 -16 26 -6 29 -9 24 -38 -6
-39 -10 -44 -25 -29 -7 7 -20 12 -30 12 -10 0 -18 7 -18 15 0 8 -9 15 -20 15
-30 0 -24 -18 13 -40 30 -18 32 -22 30 -74 0 -30 -4 -59 -7 -64 -3 -5 1 -15 9
-22 8 -7 12 -17 9 -22 -4 -5 -26 9 -50 33 -32 31 -40 45 -31 52 7 5 2 6 -13 1
-14 -3 -22 -4 -19 0 4 4 -25 37 -64 74 -39 37 -79 76 -88 87 -10 11 -20 17
-24 13 -9 -9 28 -55 79 -96 21 -18 34 -32 30 -32 -18 0 -95 26 -90 30 2 3 -9
6 -25 7 -16 1 -29 0 -29 -2 0 -2 22 -14 49 -27 28 -12 52 -30 54 -39 2 -8 20
-26 38 -39 l34 -23 -29 31 c-17 18 -25 32 -19 32 6 0 16 -7 24 -16 7 -8 21
-13 30 -11 18 5 54 -25 43 -35 -3 -3 -1 -9 5 -13 6 -3 11 -1 11 5 0 6 4 9 10
5 5 -3 7 -12 4 -20 -4 -8 10 -24 35 -41 23 -15 41 -33 41 -41 0 -11 -7 -9 -30
7 -16 12 -30 17 -30 12 0 -11 30 -37 53 -45 12 -4 17 -17 17 -42 0 -19 -4 -35
-8 -35 -4 0 -9 -10 -9 -22 -3 -29 -24 -69 -34 -63 -10 7 -34 -64 -30 -89 2
-11 9 -26 17 -33 19 -19 9 -33 -24 -34 l-27 -1 30 -10 c44 -16 81 -67 58 -81
-5 -2 -2 -2 5 -1 6 2 12 -1 12 -7 0 -5 11 -20 24 -32 13 -12 26 -34 27 -47 4
-22 -1 -26 -31 -31 l-35 -6 40 -2 c39 -1 41 -3 58 -51 10 -27 24 -50 31 -50
16 0 31 95 20 125 -5 13 -4 16 4 11 8 -5 12 1 13 16 l0 23 10 -24 c7 -17 5
-46 -6 -96 l-16 -72 -82 -7 c-45 -3 -105 -6 -133 -6 -31 0 -58 -6 -70 -16 -16
-13 -16 -15 -2 -10 10 3 66 8 125 11 60 3 118 8 131 11 21 4 23 2 17 -18 -8
-28 -62 -81 -75 -73 -6 3 -7 -1 -4 -9 3 -9 2 -16 -3 -16 -14 0 -83 -71 -83
-86 0 -13 31 -24 68 -24 14 0 26 -8 31 -23 6 -15 23 -27 49 -35 51 -16 61 -15
38 3 -11 8 -18 16 -15 16 29 8 60 5 70 -7 9 -11 8 -14 -10 -14 -19 0 -32 -20
-13 -20 4 0 18 -3 32 -7 20 -5 23 -4 14 8 -5 8 -10 21 -9 29 1 16 1 16 109 -7
39 -8 84 -17 99 -20 24 -5 47 -34 47 -59 0 -9 -39 -4 -45 6 -8 12 -25 13 -25
2 0 -5 18 -15 40 -22 22 -7 47 -21 56 -32 21 -23 29 -23 62 1 35 24 45 24 54
0 7 -19 48 -28 48 -10 0 5 13 11 30 13 16 3 28 2 25 0 -11 -11 58 -42 94 -42
28 0 42 -6 52 -21 9 -12 26 -21 44 -22 17 -1 43 -12 58 -23 26 -21 36 -44 18
-44 -5 0 -12 -12 -15 -26 -8 -31 23 -61 74 -69 19 -3 49 -13 65 -21 l30 -14
-30 4 c-16 2 -40 7 -52 11 -19 6 -22 4 -18 -14 2 -12 0 -21 -6 -21 -18 0 -9
-28 11 -33 11 -3 20 -2 20 3 0 4 18 10 40 14 22 3 40 11 40 16 0 6 7 10 15 10
8 0 15 4 15 9 0 16 29 20 60 10 17 -6 38 -8 48 -3 9 4 23 6 31 5 8 -2 12 3 8
13 -5 12 1 14 31 9 49 -8 53 -13 11 -14 -24 -1 -13 -5 36 -14 82 -16 148 -39
153 -53 1 -5 11 -8 21 -5 10 3 22 0 25 -6 9 -14 -98 -15 -125 -1 -14 8 -19 7
-19 -2 0 -7 -8 -3 -18 10 -12 16 -23 21 -35 16 -12 -4 -23 0 -31 11 -10 14
-17 15 -31 8 -16 -9 -13 -12 18 -22 65 -22 50 -30 -49 -27 -68 3 -99 8 -105
17 -7 10 -11 11 -16 3 -5 -7 -26 -10 -47 -9 -27 3 -47 -2 -62 -14 -23 -18 -22
-18 69 -24 51 -2 94 -1 97 3 5 8 112 -4 129 -15 6 -3 11 -2 11 3 0 5 14 6 32
4 31 -5 32 -5 8 -14 -13 -5 -31 -8 -39 -7 -9 1 -27 0 -41 -1 -18 -2 -14 -5 15
-9 50 -8 106 3 121 24 9 12 17 13 40 5 28 -10 28 -9 9 6 -19 14 -18 15 22 11
24 -2 46 -6 49 -10 4 -3 18 -4 33 -1 14 3 37 1 51 -5 l25 -11 -25 2 c-47 2
-125 -4 -112 -9 6 -2 12 -9 12 -15 0 -6 -7 -7 -15 -4 -24 9 -57 -15 -43 -31
12 -15 32 -18 23 -3 -4 6 11 10 37 10 31 0 39 3 28 10 -11 7 1 9 40 8 54 -1
55 -1 15 -8 -28 -6 -10 -7 60 -7 75 1 110 -3 139 -16 48 -21 41 -34 -9 -17
-38 12 -60 6 -35 -10 10 -7 -2 -10 -39 -10 -33 0 -61 6 -70 14 -9 8 -43 17
-76 21 -54 5 -58 5 -42 -9 17 -13 15 -14 -25 -10 -32 3 -38 2 -23 -5 11 -5 49
-10 85 -11 63 -2 64 -3 25 -11 -69 -15 -334 -20 -469 -9 -114 10 -131 9 -138
-5 -5 -8 -20 -15 -33 -15 -13 0 -27 -5 -30 -10 -4 -7 49 -10 160 -8 106 1 169
-2 176 -9 8 -8 -15 -13 -78 -17 -48 -3 -157 -11 -241 -17 -85 -6 -156 -8 -159
-5 -16 15 9 36 44 36 37 0 88 19 53 20 -8 0 -58 3 -111 6 -80 6 -101 4 -120
-10 -30 -21 -57 -22 -40 -2 17 20 -18 27 -41 8 -15 -12 -19 -12 -33 2 -18 18
-31 19 -98 10 -45 -6 -57 -24 -16 -24 23 0 26 -18 4 -26 -8 -4 -15 -11 -15
-16 0 -6 49 -8 128 -6 78 2 129 -1 132 -7 3 -6 -32 -11 -95 -12 -55 -1 -125
-7 -155 -13 -101 -19 -333 1 -366 31 -29 27 -45 25 -31 -5 9 -19 22 -26 57
-31 25 -4 56 -9 70 -13 22 -6 20 -7 -15 -12 -24 -4 -51 -1 -67 7 -15 7 -54 13
-87 13 -59 0 -111 15 -111 32 0 4 -7 8 -15 8 -8 0 -15 4 -15 8 0 4 -26 21 -57
36 -32 16 -65 34 -73 41 -8 7 -28 15 -45 19 l-30 7 30 -20 c17 -10 74 -46 128
-79 96 -58 97 -59 66 -66 -46 -9 -79 -7 -79 4 0 6 5 10 12 10 17 0 -20 37 -43
43 -20 5 -27 -17 -9 -28 20 -12 9 -25 -20 -25 -16 0 -30 4 -30 10 0 5 7 7 15
4 9 -4 15 0 15 10 0 9 -6 16 -12 16 -7 0 -38 13 -68 30 -30 16 -70 37 -87 46
-27 13 -32 20 -27 40 5 18 2 24 -11 24 -14 0 -15 -3 -5 -15 11 -13 8 -15 -14
-15 -14 0 -26 5 -26 10 0 6 5 10 10 10 14 0 13 27 -1 32 -7 2 -10 9 -8 15 3 7
30 -1 74 -22 75 -36 85 -39 85 -27 0 10 -100 58 -112 54 -5 -1 -11 5 -14 13
-4 8 -12 15 -20 15 -8 0 -14 9 -14 20 0 19 4 18 55 -11 70 -39 65 -14 -5 31
-27 17 -51 39 -54 48 -2 9 -4 72 -4 139 -1 92 3 126 13 137 8 7 11 16 8 20 -7
6 -8 19 -19 184 l-7 114 29 -2 c47 -3 62 0 39 9 -11 5 -30 7 -42 5 -23 -4 -23
-3 -23 105 0 94 3 112 17 121 17 10 17 10 1 20 -15 9 -18 27 -18 118 0 59 5
123 11 142 6 19 10 108 10 198 0 130 2 162 13 162 8 0 20 -10 29 -22 8 -13 38
-47 67 -77 29 -31 53 -65 55 -80 1 -14 3 -30 4 -34 0 -4 9 -4 19 2 14 8 33 -7
108 -87 51 -53 95 -94 98 -91 3 3 -34 47 -82 97 -110 115 -227 240 -254 270
-12 12 -23 38 -25 57 -3 29 0 35 15 35 10 0 23 -5 30 -12 17 -17 15 -1 -5 33
-18 30 -50 41 -39 14 3 -9 0 -15 -9 -15 -12 0 -15 22 -15 125 0 69 4 125 8
125 5 0 25 -18 45 -40 19 -22 35 -40 34 -40 -1 0 -17 4 -35 9 -31 9 -32 9 -26
-15 4 -14 2 -24 -5 -24 -20 0 -12 -18 11 -26 12 -4 31 -17 41 -30 10 -13 22
-24 26 -24 15 0 6 45 -13 60 -17 15 -17 16 0 30 16 13 17 13 12 -1 -4 -11 2
-21 18 -29 38 -21 38 -6 -1 45 -36 48 -40 70 -8 44 12 -10 11 -5 -5 17 -20 30
-61 50 -89 45 -7 -1 -13 7 -13 19 0 20 1 20 26 3 27 -17 74 -24 74 -11 0 4 6
8 13 8 8 0 13 -10 13 -22 -1 -15 6 -23 19 -26 l20 -3 -20 17 c-16 13 -16 15
-3 11 22 -8 35 11 14 19 -9 3 -14 10 -11 14 5 8 -64 80 -77 80 -4 0 -10 -4
-13 -10 -3 -5 -15 -10 -26 -10 -14 0 -19 7 -18 28 0 15 3 21 6 15 3 -8 14 -11
28 -7z m2105 -66 c13 -10 22 -29 25 -55 2 -22 2 -31 -1 -20 -12 43 -24 38 -23
-10 1 -28 3 -42 6 -32 2 9 9 17 15 17 5 0 7 -7 4 -16 -3 -9 -6 -27 -6 -41 0
-15 -3 -23 -7 -20 -3 4 -12 -1 -19 -11 -12 -15 -13 -14 -14 12 0 23 -4 27 -19
23 -12 -3 -28 4 -42 19 l-22 23 28 46 c25 44 26 48 11 71 -9 13 -21 24 -26 24
-6 0 -10 12 -10 26 l0 26 39 -33 c22 -19 49 -41 61 -49z m-1246 31 c3 -4 -1
-17 -9 -27 -14 -18 -14 -18 -15 9 0 26 13 36 24 18z m467 -8 c0 -10 3 -31 5
-48 4 -29 3 -29 -9 -8 -9 16 -16 20 -27 13 -21 -13 -30 -12 -30 4 0 8 8 13 18
12 12 -1 16 5 14 22 -2 15 2 22 12 22 9 0 16 -8 17 -17z m-1314 -19 c-3 -3
-12 -4 -19 -1 -8 3 -5 6 6 6 11 1 17 -2 13 -5z m773 -30 c0 -2 -7 -1 -17 3
-13 5 -11 0 6 -23 18 -25 20 -35 12 -57 -6 -15 -15 -27 -21 -27 -13 0 -13 17
0 25 15 10 12 35 -5 35 -8 0 -15 -7 -15 -16 0 -11 -6 -14 -20 -9 -13 4 -20 2
-20 -6 0 -17 49 -138 67 -166 28 -42 -6 -72 -41 -37 -10 10 -14 24 -10 39 5
21 3 23 -27 22 -30 -2 -33 1 -36 31 -2 18 -7 41 -13 52 -14 27 -12 34 5 20 8
-7 15 -8 15 -2 0 5 -7 15 -15 22 -8 7 -15 17 -15 23 0 16 48 56 76 63 15 4 23
12 20 19 -8 21 5 25 30 8 13 -8 24 -17 24 -19z m119 -33 c18 -14 22 -23 16
-37 -5 -11 -7 -23 -6 -27 1 -5 -8 -11 -20 -14 -17 -5 -20 -11 -15 -37 19 -101
19 -106 0 -121 -16 -12 -17 -17 -7 -34 15 -24 1 -37 -19 -18 -7 8 -26 41 -42
75 l-29 61 18 41 c21 47 45 72 45 46 0 -9 5 -16 11 -16 8 0 10 12 6 36 -5 29
-3 35 8 30 9 -3 15 0 15 8 0 8 -6 17 -12 19 -7 3 -8 6 -3 6 6 0 21 -8 34 -18z
m-305 -123 c3 -13 6 -36 6 -52 0 -24 -2 -26 -15 -16 -22 18 -33 5 -41 -48 -3
-26 -15 -75 -26 -109 -12 -39 -17 -75 -14 -95 6 -30 5 -29 -11 9 -21 48 -33
63 -33 40 0 -29 -17 -18 -24 14 -4 19 -1 38 6 46 9 11 9 16 -2 23 -8 5 -11 13
-6 17 5 4 11 2 13 -4 8 -22 23 -14 23 12 0 14 8 29 21 36 15 8 20 18 16 35 -3
20 0 24 19 24 26 0 30 10 14 26 -8 8 -6 15 5 24 8 7 15 19 15 26 0 23 27 16
34 -8z m1687 -15 c13 -16 12 -17 -3 -4 -10 7 -18 15 -18 17 0 8 8 3 21 -13z
m-2031 -118 c7 -9 8 -15 2 -15 -5 0 -12 7 -16 15 -3 8 -4 15 -2 15 2 0 9 -7
16 -15z m1737 -77 c-2 -18 -4 -6 -4 27 0 33 2 48 4 33 2 -15 2 -42 0 -60z
m-1322 41 c-12 -23 -14 -38 -7 -58 10 -28 71 -95 79 -87 7 6 -25 64 -37 68 -6
2 6 20 27 41 32 33 38 36 46 22 5 -10 7 -30 3 -46 -4 -22 1 -34 25 -59 17 -16
28 -36 26 -43 -3 -7 -6 -5 -6 6 -1 9 -5 17 -11 17 -15 0 -13 -7 16 -66 14 -29
24 -61 22 -71 -3 -13 -11 -5 -28 29 -21 42 -25 45 -39 31 -23 -24 -24 -54 -1
-78 11 -11 25 -36 31 -55 7 -19 20 -43 30 -52 19 -19 49 -24 49 -9 0 18 39 22
67 8 39 -20 100 -30 108 -17 3 5 -12 17 -33 27 -29 12 -38 21 -34 35 5 22 42
24 42 3 0 -22 40 -19 41 3 0 13 2 12 9 -5 15 -36 32 -27 30 15 -3 56 -1 62 15
62 11 0 14 -7 10 -22 -14 -63 -24 -105 -31 -127 -5 -18 -4 -22 6 -16 10 6 11
-6 7 -56 -3 -35 -8 -75 -13 -88 -5 -18 -4 -23 7 -19 20 7 27 43 28 156 1 61 5
102 11 102 6 0 9 -3 9 -7 -8 -52 22 -54 33 -2 4 19 5 -10 3 -64 -3 -63 -9
-103 -18 -111 -7 -7 -31 -48 -52 -91 -23 -45 -41 -71 -43 -62 -5 25 -22 21
-22 -5 0 -27 -21 -88 -31 -88 -4 0 -9 10 -12 21 -5 17 -11 20 -31 15 -19 -5
-33 1 -58 22 -18 15 -52 40 -75 56 -24 16 -83 71 -132 123 -75 79 -89 98 -82
116 6 15 17 21 42 21 27 1 34 5 34 21 0 13 -16 27 -51 45 -63 31 -87 74 -80
141 3 30 -1 54 -9 66 -18 25 -21 59 -11 106 14 62 31 39 29 -39 -1 -38 1 -61
3 -51 3 9 9 17 13 17 5 0 11 23 14 51 6 50 20 79 38 79 5 0 2 -14 -6 -31z
m153 -79 c11 -32 10 -33 -3 -16 -8 11 -15 29 -15 40 0 25 4 19 18 -24z m1478
25 c15 -14 39 -19 76 -16 9 1 19 -3 23 -9 3 -5 18 -10 33 -10 19 0 23 -3 13
-9 -14 -9 -6 -12 74 -27 17 -3 37 -7 45 -9 8 -2 19 -4 25 -4 5 -1 4 -6 -2 -12
-14 -14 -177 25 -216 53 -15 10 -40 18 -55 17 -51 -4 -60 0 -55 21 6 24 19 25
39 5z m-1401 -115 c8 0 16 -9 20 -19 4 -12 12 -18 21 -14 9 3 14 -2 14 -15 0
-31 -29 -36 -40 -6 -6 14 -10 30 -10 36 0 5 -6 8 -14 5 -21 -8 -34 50 -26 108
1 11 7 -6 12 -37 7 -36 15 -58 23 -58z m45 70 c0 -5 -7 -7 -15 -4 -8 4 -12 10
-9 15 6 11 24 2 24 -11z m1439 -77 c16 -12 -13 -8 -59 8 -67 24 -71 23 -40 -1
26 -20 21 -24 -17 -14 -18 5 -22 13 -20 44 l1 37 66 -35 c36 -20 67 -37 69
-39z m-1442 32 c0 -8 -4 -12 -9 -9 -4 3 -8 9 -8 15 0 5 4 9 8 9 5 0 9 -7 9
-15z m68 -21 c-19 -20 -23 -18 -17 11 3 20 7 23 18 14 11 -9 11 -13 -1 -25z
m1355 26 c0 -5 -2 -10 -4 -10 -3 0 -8 5 -11 10 -3 6 -1 10 4 10 6 0 11 -4 11
-10z m-1875 -53 c14 -24 25 -54 25 -66 0 -12 4 -19 10 -16 6 3 7 -1 4 -9 -8
-20 -14 -20 -41 2 -15 12 -23 33 -28 75 -4 31 -5 57 -2 57 4 0 18 -20 32 -43z
m2165 24 c0 -6 -4 -13 -10 -16 -5 -3 -10 1 -10 9 0 9 5 16 10 16 6 0 10 -4 10
-9z m-66 -14 c12 13 6 -13 -10 -35 -14 -20 -54 -31 -54 -14 0 4 -11 8 -25 8
-35 2 -31 -9 8 -25 17 -7 27 -15 21 -17 -7 -3 -30 3 -52 13 -31 13 -38 20 -30
30 6 7 19 13 30 13 13 0 17 4 12 13 -6 9 -5 9 8 0 8 -7 17 -10 20 -8 3 3 17 1
32 -4 16 -7 26 -7 26 -1 0 5 -12 13 -26 16 -18 5 -22 9 -13 15 7 4 20 4 30 -1
9 -5 19 -6 23 -3z m146 -21 c-12 -12 -41 1 -48 22 -3 9 4 9 28 0 23 -8 29 -13
20 -22z m-1443 -8 c-3 -8 -6 -5 -6 6 -1 11 2 17 5 13 3 -3 4 -12 1 -19z m1498
16 c10 -4 13 -9 6 -13 -22 -14 18 -49 69 -61 33 -8 50 -17 50 -27 0 -11 -6
-14 -22 -10 -14 4 -26 0 -33 -10 -11 -15 -13 -14 -24 5 -6 12 -18 22 -25 22
-7 0 -25 11 -39 24 -23 21 -24 25 -9 31 13 5 14 8 3 14 -7 5 -10 14 -7 20 8
13 9 13 31 5z m-1775 -14 c0 -5 -4 -10 -10 -10 -5 0 -10 5 -10 10 0 6 5 10 10
10 6 0 10 -4 10 -10z m301 -63 c-7 -7 -9 -1 -7 19 7 54 9 59 13 25 3 -18 0
-38 -6 -44z m59 53 c0 -11 -4 -20 -10 -20 -5 0 -10 9 -10 20 0 11 5 20 10 20
6 0 10 -9 10 -20z m905 9 c12 -19 -5 -23 -22 -6 -16 16 -16 17 -1 17 9 0 20
-5 23 -11z m332 -14 c-23 -22 -33 -18 -12 5 10 11 20 18 23 16 2 -3 -3 -12
-11 -21z m-2080 -7 c-3 -8 -6 -5 -6 6 -1 11 2 17 5 13 3 -3 4 -12 1 -19z
m1818 7 c6 0 26 -8 45 -16 19 -8 56 -21 83 -29 26 -7 47 -17 47 -21 0 -14 -59
-14 -70 0 -11 13 -56 31 -85 33 -39 3 -81 28 -64 39 7 4 18 5 24 1 5 -4 15 -7
20 -7z m371 -6 c10 -17 -8 -28 -38 -22 -22 4 -25 8 -15 19 15 16 43 18 53 3z
m-1916 -9 c0 -5 -2 -10 -4 -10 -3 0 -8 5 -11 10 -3 6 -1 10 4 10 6 0 11 -4 11
-10z m654 -91 l6 -64 -20 55 c-11 30 -20 68 -20 85 0 57 28 -6 34 -76z m1476
91 c0 -5 -7 -7 -15 -4 -8 4 -15 8 -15 10 0 2 7 4 15 4 8 0 15 -4 15 -10z
m-1710 -37 c0 -24 -3 -33 -9 -25 -7 12 -4 62 5 62 2 0 4 -17 4 -37z m179 -45
c1 -16 5 -28 10 -28 14 0 31 -52 30 -90 0 -19 4 -51 10 -70 10 -32 9 -36 -17
-57 -34 -28 -46 -29 -31 -2 6 12 8 35 5 53 -4 17 -11 60 -16 95 -5 36 -14 69
-19 74 -5 5 -4 26 2 50 9 33 12 37 18 21 4 -10 8 -31 8 -46z m156 14 c3 -14 4
-26 2 -28 -9 -9 -36 23 -43 49 -6 27 -5 28 14 16 12 -7 24 -24 27 -37z m1143
23 c-6 -6 -58 8 -58 16 0 4 14 3 31 -3 16 -6 29 -12 27 -13z m-118 -14 c-12
-23 -29 -35 -37 -27 -7 7 26 46 39 46 5 0 4 -9 -2 -19z m230 -24 c0 -5 -8 -6
-17 -2 -10 3 -30 9 -45 12 -16 3 -28 11 -28 18 0 9 11 9 45 -4 25 -9 45 -20
45 -24z m-127 13 c5 -4 4 -17 -2 -29 -12 -22 -36 -28 -46 -11 -3 6 -2 10 4 10
5 0 9 9 8 19 -1 17 -4 18 -17 8 -8 -7 -18 -16 -22 -22 -4 -5 -9 -7 -12 -4 -3
3 1 15 9 26 11 16 22 20 43 17 15 -3 31 -9 35 -14z m-1803 -9 c20 -39 4 -43
-23 -6 -15 21 -16 25 -3 25 8 0 20 -9 26 -19z m287 -3 c-3 -8 -6 -5 -6 6 -1
11 2 17 5 13 3 -3 4 -12 1 -19z m-637 2 c0 -5 -2 -10 -4 -10 -3 0 -8 5 -11 10
-3 6 -1 10 4 10 6 0 11 -4 11 -10z m-100 -35 c0 -40 24 -49 34 -12 6 21 7 21
18 3 8 -15 8 -21 -1 -24 -9 -3 -9 -7 0 -18 9 -11 7 -14 -15 -14 -21 0 -25 -4
-23 -22 3 -37 -32 -28 -56 13 l-21 36 23 36 c28 46 41 47 41 2z m2470 28 c0
-1 -5 -13 -11 -27 -14 -30 -29 -25 -29 9 0 18 5 23 20 22 11 -1 20 -2 20 -4z
m-1930 -19 c0 -8 -4 -12 -10 -9 -5 3 -10 10 -10 16 0 5 5 9 10 9 6 0 10 -7 10
-16z m300 -29 c-15 -39 -23 -25 -8 16 6 18 13 29 15 23 2 -6 -1 -24 -7 -39z
m1041 22 c-13 -13 -26 -3 -16 12 3 6 11 8 17 5 6 -4 6 -10 -1 -17z m446 -14
c-3 -3 -21 -2 -39 3 -18 4 -27 9 -20 11 6 3 9 9 6 15 -3 5 8 2 26 -7 17 -9 30
-19 27 -22z m171 2 c-1 -19 -6 -35 -10 -35 -9 0 -10 16 -2 48 9 33 15 27 12
-13z m30 -10 c-1 -19 -6 -35 -11 -35 -5 0 -7 10 -3 23 3 12 6 28 6 35 0 6 2
12 5 12 2 0 4 -16 3 -35z m-2297 7 c-7 -2 -18 1 -23 6 -8 8 -4 9 13 5 13 -4
18 -8 10 -11z m1689 4 c0 -15 -18 -31 -26 -23 -7 7 7 37 17 37 5 0 9 -6 9 -14z
m185 4 c3 -5 -1 -10 -9 -10 -8 0 -18 5 -21 10 -3 6 1 10 9 10 8 0 18 -4 21
-10z m-1185 -5 c0 -3 -9 -22 -20 -42 -14 -27 -21 -33 -25 -21 -7 17 21 68 36
68 5 0 9 -2 9 -5z m1068 -20 c2 -2 -1 -12 -7 -23 -9 -17 -14 -19 -36 -9 -28
13 -31 22 -12 41 11 12 34 8 55 -9z m87 -3 c-3 -3 -11 0 -18 7 -9 10 -8 11 6
5 10 -3 15 -9 12 -12z m165 8 c0 -5 -4 -10 -10 -10 -5 0 -10 5 -10 10 0 6 5
10 10 10 6 0 10 -4 10 -10z m-2091 -26 c17 -38 6 -42 -14 -5 -8 17 -12 31 -7
31 5 0 14 -12 21 -26z m2077 4 c1 -2 -3 -13 -9 -24 -12 -21 -14 -21 -50 -7
-35 15 -37 17 -22 33 13 14 23 16 47 9 17 -4 32 -10 34 -11z m121 8 c1 -1 -2
-8 -7 -16 -8 -12 -13 -13 -30 -2 -11 6 -26 12 -34 12 -8 0 -18 4 -21 10 -4 6
11 7 42 3 26 -3 49 -6 50 -7z m27 -11 c-9 -14 -18 -25 -20 -25 -7 0 10 35 20
42 17 12 17 9 0 -17z m-587 -37 c-2 -13 -4 -5 -4 17 -1 22 1 32 4 23 2 -10 2
-28 0 -40z m656 40 c12 -37 -19 -65 -48 -44 -15 11 -16 15 -4 34 15 24 45 29
52 10z m-383 -18 c13 -11 21 -21 19 -23 -2 -1 -13 -9 -23 -17 -18 -14 -19 -13
-13 3 3 9 2 17 -2 17 -5 0 -11 -5 -13 -10 -2 -7 -11 -5 -23 5 -20 15 -20 15
-1 30 25 19 28 19 56 -5z m188 -15 c-6 -13 -15 -22 -19 -19 -11 6 8 44 21 44
6 0 5 -10 -2 -25z m237 -7 c-9 -40 -12 -45 -26 -31 -6 6 -6 18 0 36 15 39 34
35 26 -5z m-181 9 c13 -9 16 -20 11 -39 -6 -25 -9 -26 -33 -15 -15 6 -28 12
-30 13 -5 3 21 54 28 54 3 0 14 -6 24 -13z m-174 -47 c-4 -19 -8 -30 -9 -23
-1 7 -8 10 -16 7 -21 -8 -20 24 2 48 23 25 33 10 23 -32z m400 8 c0 -39 -14
-66 -24 -49 -4 6 -1 11 6 11 9 1 8 4 -3 10 -11 6 -15 18 -11 35 7 37 32 32 32
-7z m-1678 -100 c-2 -122 6 -142 26 -68 l10 35 3 -35 c3 -36 5 -66 8 -87 0 -7
6 -12 12 -10 6 1 14 -4 17 -12 3 -10 0 -12 -12 -8 -13 5 -16 -1 -16 -38 0 -32
-4 -45 -14 -45 -15 0 -30 45 -21 60 4 6 3 15 0 20 -4 6 -15 0 -27 -16 -20 -25
-20 -27 -4 -58 l17 -31 -21 25 c-12 14 -25 23 -29 20 -3 -3 -7 43 -9 102 -2
89 0 107 11 102 17 -6 27 23 27 78 0 32 14 88 22 88 2 0 2 -55 0 -122z m1566
81 c4 -21 -26 -57 -35 -42 -8 11 -13 13 -34 13 -7 0 -9 10 -4 28 6 26 6 26 -9
7 -17 -23 -21 -13 -6 15 9 17 14 18 48 6 20 -7 38 -19 40 -27z m-1475 -52 c3
-38 1 -65 -3 -60 -9 9 -13 56 -10 113 2 48 7 28 13 -53z m1052 69 c14 -8 22
-16 17 -19 -14 -10 -52 4 -52 19 0 17 1 17 35 0z m192 6 c8 -5 8 -14 -1 -37
l-12 -30 -19 28 c-16 24 -16 30 -4 38 17 11 21 11 36 1z m-2034 -20 c11 -12
13 -22 7 -32 -11 -17 -24 -6 -35 28 -8 26 6 29 28 4z m1577 9 c0 -6 -4 -13
-10 -16 -5 -3 -10 1 -10 9 0 9 5 16 10 16 6 0 10 -4 10 -9z m527 -19 c39 -17
39 -17 26 -50 l-13 -32 -31 16 c-17 8 -28 18 -25 21 3 4 1 12 -4 18 -9 10 -5
45 5 45 2 0 20 -8 42 -18z m-372 -3 c9 -13 -26 -52 -36 -42 -12 12 1 53 17 53
7 0 16 -5 19 -11z m579 -42 c-8 -47 -25 -87 -36 -87 -6 0 -8 -6 -5 -14 7 -17
-22 -31 -36 -17 -16 16 15 87 36 83 9 -2 17 2 17 8 0 5 -4 10 -10 10 -13 0
-13 12 0 45 15 39 41 16 34 -28z m-2230 27 c9 -24 7 -28 -9 -14 -17 14 -20 30
-6 30 5 0 12 -7 15 -16z m1816 12 c0 -11 -19 -15 -25 -6 -3 5 1 10 9 10 9 0
16 -2 16 -4z m100 -48 c0 -10 -1 -10 -39 3 -17 6 -31 17 -31 25 0 11 7 11 35
-3 19 -9 35 -20 35 -25z m-1357 17 c-3 -9 -8 -14 -10 -11 -3 3 -2 9 2 15 9 16
15 13 8 -4z m1148 5 c18 0 9 -32 -11 -37 -11 -3 -20 -9 -20 -14 0 -14 -38 -11
-43 4 -6 17 34 59 51 52 7 -3 18 -5 23 -5z m596 -32 c-3 -7 -5 -2 -5 12 0 14
2 19 5 13 2 -7 2 -19 0 -25z m-172 10 c19 -9 24 -16 19 -32 -14 -46 -20 -50
-43 -27 -11 11 -25 21 -31 21 -13 0 -13 6 2 30 15 23 19 24 53 8z m138 -26
c-3 -15 -11 -40 -18 -57 -7 -16 -14 -34 -16 -40 -2 -5 -22 -41 -44 -78 -22
-38 -50 -87 -62 -110 -12 -23 -22 -37 -22 -32 -1 6 -10 16 -21 22 -16 11 -18
10 -13 -3 5 -14 3 -14 -15 -3 -14 9 -20 20 -16 31 3 10 1 18 -5 18 -6 0 -11
-7 -11 -15 0 -19 0 -19 -38 1 -35 17 -34 16 -26 37 5 14 10 14 42 0 57 -24
102 -28 102 -9 0 9 -5 16 -12 16 -9 0 -9 3 0 12 10 10 16 7 28 -10 8 -12 20
-20 25 -17 13 9 11 21 -7 40 -15 14 -14 19 11 55 30 43 46 52 38 20 -3 -11 0
-20 6 -20 6 0 13 10 16 23 5 23 22 96 32 134 7 31 31 18 26 -15z m-404 17 c17
-6 31 -14 31 -18 0 -13 -51 -4 -68 12 -19 20 -8 21 37 6z m-1795 -46 c17 -15
23 -24 12 -20 -10 4 -25 2 -32 -4 -12 -10 -13 -9 -8 5 3 9 1 23 -6 31 -20 24
0 17 34 -12z m453 5 c-3 -8 -6 -5 -6 6 -1 11 2 17 5 13 3 -3 4 -12 1 -19z
m1323 -15 c0 -20 -44 -13 -48 8 -2 13 3 15 23 12 14 -3 25 -12 25 -20z m169
-8 c7 -7 -32 -34 -41 -29 -5 3 -8 12 -8 20 0 8 -4 12 -10 9 -5 -3 -10 -4 -10
-1 0 2 -3 12 -6 21 -6 15 -4 15 32 0 21 -8 40 -18 43 -20z m-369 3 c0 -6 -6
-5 -15 2 -8 7 -15 14 -15 16 0 2 7 1 15 -2 8 -4 15 -11 15 -16z m240 -19 c0
-5 -7 -9 -15 -9 -9 0 -12 6 -9 15 6 15 24 11 24 -6z m230 -30 c0 -6 -5 -20
-11 -31 -8 -15 -8 -22 0 -27 7 -5 2 -15 -14 -29 -21 -18 -29 -20 -55 -11 -31
11 -41 29 -15 29 8 0 19 9 25 21 7 12 18 18 26 15 8 -3 14 1 14 10 0 8 -4 12
-10 9 -21 -13 -32 7 -14 26 13 14 21 16 35 8 11 -5 19 -14 19 -20z m185 -81
c4 -54 3 -78 -4 -78 -6 0 -11 9 -11 21 0 12 -5 19 -12 16 -9 -3 -13 -23 -12
-59 1 -49 -1 -55 -17 -51 -21 6 -24 -8 -8 -39 14 -27 8 -30 -19 -9 -22 16 -23
19 -9 61 37 113 56 178 63 215 9 52 19 27 29 -77z m-571 81 c-6 -11 -24 -2
-24 11 0 5 7 7 15 4 8 -4 12 -10 9 -15z m149 -15 c-4 -11 -10 -10 -28 4 -29
21 -22 35 10 20 13 -6 21 -16 18 -24z m-1337 -166 c-1 -47 -5 -90 -9 -94 -12
-12 -27 17 -27 53 0 17 -4 34 -9 37 -10 6 -4 44 10 61 7 10 14 51 20 115 4 48
15 -86 15 -172z m924 188 c0 -3 -4 -8 -10 -11 -5 -3 -10 -1 -10 4 0 6 5 11 10
11 6 0 10 -2 10 -4z m-1480 -27 c0 -5 -4 -9 -10 -9 -5 0 -10 7 -10 16 0 8 5
12 10 9 6 -3 10 -10 10 -16z m502 -1 c-7 -7 -12 -8 -12 -2 0 6 3 14 7 17 3 4
9 5 12 2 2 -3 -1 -11 -7 -17z m1668 8 c0 -8 -7 -16 -15 -20 -15 -5 -21 14 -8
27 11 12 23 8 23 -7z m-530 -16 c0 -5 -7 -10 -15 -10 -8 0 -15 5 -15 10 0 6 7
10 15 10 8 0 15 -4 15 -10z m295 0 c3 -5 2 -10 -4 -10 -5 0 -13 5 -16 10 -3 6
-2 10 4 10 5 0 13 -4 16 -10z m-1676 -72 c16 -32 29 -58 27 -58 -7 0 -76 111
-76 122 0 19 16 -2 49 -64z m1451 31 c0 -4 -13 -9 -29 -11 -27 -4 -29 -2 -29
24 l1 27 29 -16 c15 -10 28 -20 28 -24z m-1650 -46 c20 -42 19 -53 -5 -33 -9
7 -13 15 -10 18 9 9 -16 31 -29 26 -25 -9 -27 27 -4 46 22 18 23 18 26 0 2
-11 12 -36 22 -57z m30 45 c0 -5 -4 -8 -10 -8 -5 0 -10 10 -10 23 0 18 2 19
10 7 5 -8 10 -18 10 -22z m1790 22 c0 -13 -11 -13 -30 0 -12 8 -11 10 8 10 12
0 22 -4 22 -10z m-1918 -6 c8 -7 -21 -64 -32 -64 -4 0 -3 16 3 35 10 34 17 41
29 29z m188 -15 c0 -6 -4 -7 -10 -4 -5 3 -10 11 -10 16 0 6 5 7 10 4 6 -3 10
-11 10 -16z m1235 -9 c-10 -11 -23 -20 -28 -20 -6 0 0 11 13 25 27 29 42 25
15 -5z m455 1 c0 -5 -15 -3 -34 3 -19 6 -32 14 -30 18 5 8 64 -11 64 -21z
m-1650 -9 c0 -15 -2 -15 -10 -2 -13 20 -13 33 0 25 6 -3 10 -14 10 -23z m306
-28 c-5 -23 -11 -33 -17 -27 -6 6 -5 21 2 42 15 41 23 33 15 -15z m-185 3 c10
-36 3 -34 -17 4 -11 23 -12 30 -3 27 7 -2 16 -16 20 -31z m1469 13 c0 -5 9
-10 20 -10 11 0 20 -4 20 -10 0 -15 -27 -12 -44 6 -19 18 -20 24 -6 24 6 0 10
-4 10 -10z m-1596 -25 c3 -8 -2 -11 -14 -8 -10 3 -21 11 -24 18 -3 8 2 11 14
8 10 -3 21 -11 24 -18z m1466 15 c0 -5 -4 -10 -10 -10 -5 0 -10 5 -10 10 0 6
5 10 10 10 6 0 10 -4 10 -10z m-1280 -32 c0 -6 -7 -5 -15 2 -8 7 -15 17 -15
22 0 6 7 5 15 -2 8 -7 15 -17 15 -22z m1037 -3 c-4 -8 -11 -15 -17 -15 -6 0
-6 7 2 20 14 22 24 19 15 -5z m-47 5 c0 -5 -5 -10 -11 -10 -5 0 -7 5 -4 10 3
6 8 10 11 10 2 0 4 -4 4 -10z m-632 -37 c10 -21 17 -46 14 -55 -4 -18 -17 -24
-25 -10 -7 12 -19 102 -13 102 3 0 14 -17 24 -37z m937 7 c-5 -8 -11 -8 -17
-2 -6 6 -7 16 -3 22 5 8 11 8 17 2 6 -6 7 -16 3 -22z m99 14 c5 -14 4 -15 -9
-4 -17 14 -19 20 -6 20 5 0 12 -7 15 -16z m439 -4 c-5 -21 -33 -49 -33 -33 0
9 29 53 35 53 2 0 1 -9 -2 -20z m-2196 -122 c8 -9 13 -24 10 -33 -4 -8 -1 -15
6 -15 7 0 -1 -7 -17 -15 -33 -18 -87 -19 -136 -4 -19 5 -45 12 -58 13 -12 2
-25 5 -27 8 -2 2 23 28 55 59 59 54 73 61 46 24 -8 -11 -12 -25 -9 -32 6 -15
33 -18 33 -3 0 6 -7 10 -16 10 -13 0 -11 6 7 33 12 17 31 42 43 55 l20 22 13
-52 c8 -29 21 -60 30 -70z m456 91 c4 -15 11 -20 21 -16 16 6 22 -13 9 -26 -9
-9 -64 44 -57 55 9 14 22 9 27 -13z m1736 -47 c-23 -69 -31 -78 -26 -29 4 28
37 100 44 93 2 -1 -7 -30 -18 -64z m119 51 c5 -10 12 -44 15 -75 4 -47 3 -56
-9 -51 -8 3 -20 0 -28 -6 -11 -9 -15 -5 -18 23 -3 26 -1 33 11 28 12 -4 13 4
7 46 -7 53 4 70 22 35z m-988 -39 c-3 -5 -11 -7 -18 -6 -8 2 -20 -2 -28 -9
-18 -15 -19 3 -2 31 11 17 15 18 33 6 11 -7 18 -17 15 -22z m430 26 c0 -5 -4
-10 -10 -10 -5 0 -10 5 -10 10 0 6 5 10 10 10 6 0 10 -4 10 -10z m135 -10 c8
-13 -5 -13 -25 0 -13 8 -13 10 2 10 9 0 20 -4 23 -10z m-1840 -43 c11 -23 22
-45 23 -49 2 -5 -3 -8 -10 -8 -15 0 -48 59 -48 85 0 27 15 15 35 -28z m1915
28 c7 -9 9 -19 5 -23 -4 -4 -10 -1 -12 6 -3 6 -11 12 -19 12 -9 0 -12 5 -9 10
9 14 21 12 35 -5z m-1370 -27 c0 -26 -24 -18 -28 10 -3 16 1 20 12 16 9 -3 16
-15 16 -26z m74 16 c9 -24 7 -28 -9 -14 -17 14 -20 30 -6 30 5 0 12 -7 15 -16z
m-173 -46 c8 -3 10 -11 6 -22 -6 -16 -8 -16 -31 1 -21 16 -46 53 -46 69 0 3
13 -5 30 -19 16 -14 35 -27 41 -29z m309 36 c0 -8 -4 -12 -10 -9 -5 3 -10 10
-10 16 0 5 5 9 10 9 6 0 10 -7 10 -16z m1066 1 c20 -17 5 -24 -25 -12 -17 6
-28 14 -25 18 6 10 37 6 50 -6z m144 -1 c0 -10 8 -15 23 -13 12 1 32 -2 45 -7
20 -9 21 -12 9 -28 -16 -21 -42 -13 -33 11 5 11 0 13 -22 9 -15 -3 -31 -3 -37
2 -15 11 -15 42 1 42 8 0 14 -7 14 -16z m-1557 -77 c46 -29 30 -38 -20 -11
-56 29 -93 62 -93 81 0 9 16 2 43 -19 23 -19 54 -42 70 -51z m307 52 c0 -5 -4
-9 -10 -9 -5 0 -10 7 -10 16 0 8 5 12 10 9 6 -3 10 -10 10 -16z m-436 -15 c9
-25 2 -26 -17 -4 -13 16 -14 20 -3 20 8 0 17 -7 20 -16z m310 -25 c10 -17 16
-33 13 -36 -8 -8 -47 35 -47 52 0 24 14 17 34 -16z m569 -39 c-15 -30 -28 -56
-28 -56 0 -1 -24 -4 -52 -8 -52 -7 -53 -6 -53 19 0 22 3 25 20 20 25 -8 50 10
50 36 0 11 6 19 14 19 8 0 24 9 37 19 37 30 42 10 12 -49z m657 60 c0 -5 -4
-10 -9 -10 -6 0 -13 5 -16 10 -3 6 1 10 9 10 9 0 16 -4 16 -10z m-1254 -68
c-8 -7 -37 19 -31 28 3 5 1 11 -5 15 -6 4 -8 11 -4 17 3 5 15 -5 26 -22 10
-18 17 -35 14 -38z m-290 20 c-7 -7 -56 18 -56 29 0 4 14 1 31 -8 16 -8 28
-18 25 -21z m574 20 c0 -10 9 -25 20 -35 14 -11 20 -29 20 -54 -1 -33 -2 -35
-12 -19 -6 11 -11 29 -12 40 -1 13 -8 21 -18 20 -13 -1 -16 6 -15 32 2 34 17
49 17 16z m1020 8 c0 -5 -7 -10 -16 -10 -8 0 -12 5 -9 10 3 6 10 10 16 10 5 0
9 -4 9 -10z m298 -13 c2 -10 -4 -20 -13 -23 -21 -8 -25 -3 -18 24 6 25 26 24
31 -1z m-683 -7 c-3 -5 -12 -10 -18 -10 -7 0 -6 4 3 10 19 12 23 12 15 0z
m-271 -25 c-4 -8 -8 -15 -10 -15 -2 0 -4 7 -4 15 0 8 4 15 10 15 5 0 7 -7 4
-15z m741 5 c-3 -5 -11 -10 -16 -10 -6 0 -7 5 -4 10 3 6 11 10 16 10 6 0 7 -4
4 -10z m-1166 -48 l22 -43 -21 11 c-23 12 -44 56 -34 72 7 12 7 12 33 -40z
m217 2 c-5 -12 -9 -12 -26 -2 -24 15 -26 28 -5 28 8 0 15 6 15 13 0 6 5 4 11
-6 6 -10 8 -25 5 -33z m239 36 c3 -5 1 -10 -4 -10 -6 0 -11 5 -11 10 0 6 2 10
4 10 3 0 8 -4 11 -10z m415 6 c0 -2 3 -11 6 -20 4 -11 0 -16 -13 -16 -25 0
-33 8 -26 26 4 12 33 21 33 10z m-721 -38 c28 -31 28 -33 10 -40 -10 -4 -19
-16 -19 -27 0 -22 -37 -38 -52 -23 -6 6 -17 8 -24 5 -8 -3 -14 0 -14 7 0 9 11
10 35 6 43 -8 53 9 38 66 -6 21 -9 38 -6 38 2 0 16 -15 32 -32z m1259 4 c2 -7
-2 -10 -12 -6 -9 3 -16 11 -16 16 0 13 23 5 28 -10z m-1488 -22 c5 0 12 5 15
11 4 6 17 -3 31 -22 13 -18 22 -35 19 -37 -3 -3 -22 2 -42 11 -21 8 -47 18
-57 21 -19 6 -19 7 0 25 15 14 20 15 22 4 2 -7 7 -13 12 -13z m1396 3 c-2 -2
-11 0 -20 3 -14 5 -15 9 -5 15 12 7 34 -10 25 -18z m-1550 -7 c16 -8 48 -20
72 -26 23 -6 42 -15 42 -21 0 -16 -29 -22 -58 -11 -15 5 -69 22 -119 38 -51
16 -93 33 -93 38 0 13 122 0 156 -18z m1708 9 c3 -8 1 -15 -3 -15 -5 0 -11 7
-15 15 -3 8 -1 15 3 15 5 0 11 -7 15 -15z m-514 -5 c0 -5 -2 -10 -4 -10 -3 0
-8 5 -11 10 -3 6 -1 10 4 10 6 0 11 -4 11 -10z m317 -27 c0 -15 0 -15 -21 -7
-22 8 -20 23 2 21 10 0 19 -7 19 -14z m189 -22 c-3 -4 -1 -23 4 -41 5 -19 7
-36 5 -39 -6 -6 -35 32 -30 39 2 3 -5 7 -16 7 -12 1 -19 -5 -19 -15 0 -30 12
-62 22 -62 6 0 7 8 4 18 -7 16 -6 16 10 0 25 -25 10 -33 -35 -20 -21 7 -46 9
-55 6 -9 -3 -22 -1 -30 5 -7 6 -15 10 -17 8 -2 -1 13 15 34 36 21 20 42 35 48
32 5 -3 19 3 31 14 21 21 54 29 44 12z m-669 -7 c-3 -3 -12 -4 -19 -1 -8 3 -5
6 6 6 11 1 17 -2 13 -5z m353 -26 c0 -4 -4 -8 -9 -8 -6 0 -12 4 -15 8 -3 5 1
9 9 9 8 0 15 -4 15 -9z m45 -18 c-3 -5 -10 -10 -16 -10 -5 0 -9 5 -9 10 0 6 7
10 16 10 8 0 12 -4 9 -10z m325 -32 c0 -39 -1 -40 -14 -22 -8 10 -10 21 -5 22
5 2 9 12 9 23 0 10 2 19 5 19 3 0 5 -19 5 -42z m-665 22 c3 -5 1 -10 -4 -10
-6 0 -11 5 -11 10 0 6 2 10 4 10 3 0 8 -4 11 -10z m-100 -21 c12 -12 8 -11
-45 6 l-45 15 40 -6 c22 -3 44 -10 50 -15z m156 3 c-7 -2 -18 1 -23 6 -8 8 -4
9 13 5 13 -4 18 -8 10 -11z m-104 -18 c-3 -3 -12 -4 -19 -1 -8 3 -5 6 6 6 11
1 17 -2 13 -5z m336 -9 c-3 -9 -8 -14 -10 -11 -3 3 -2 9 2 15 9 16 15 13 8 -4z
m-248 -5 c7 -11 -9 -11 -45 0 -24 8 -24 8 7 9 17 1 35 -3 38 -9z m375 0 c0 -5
-5 -10 -11 -10 -5 0 -7 5 -4 10 3 6 8 10 11 10 2 0 4 -4 4 -10z m-575 -20 c3
-5 -1 -10 -9 -10 -9 0 -16 5 -16 10 0 6 4 10 9 10 6 0 13 -4 16 -10z m280 0
c19 -8 19 -9 -2 -9 -12 -1 -25 4 -28 9 -7 12 2 12 30 0z m325 0 c0 -5 -4 -10
-10 -10 -5 0 -10 5 -10 10 0 6 5 10 10 10 6 0 10 -4 10 -10z m110 -5 c10 -12
10 -15 -4 -15 -9 0 -16 7 -16 15 0 8 2 15 4 15 2 0 9 -7 16 -15z m-132 -46 c5
16 22 13 22 -4 0 -8 8 -15 18 -15 10 0 28 -10 39 -22 38 -42 36 -47 -11 -33
-43 13 -56 11 -56 -8 0 -5 9 -7 20 -4 11 3 18 1 14 -4 -3 -5 4 -9 15 -9 19 0
20 -2 9 -20 -13 -20 -48 -28 -48 -10 0 5 8 7 18 3 14 -5 13 -3 -3 10 -11 9
-28 17 -37 17 -9 0 -20 5 -24 12 -5 7 -2 9 9 5 8 -3 18 0 20 7 4 10 -11 14
-55 15 -34 1 -65 4 -70 7 -14 9 3 26 20 19 8 -3 19 0 24 7 6 10 8 8 8 -4 0
-12 8 -18 23 -18 21 1 21 1 4 15 -13 9 -17 20 -12 37 5 17 4 19 -4 8 -5 -8
-13 -11 -17 -7 -4 3 -1 13 5 21 10 12 16 10 39 -11 14 -13 28 -20 30 -14z
m-458 20 c12 -9 11 -10 -7 -6 -12 3 -24 0 -26 -6 -4 -12 -27 -1 -27 14 0 12
41 11 60 -2z m140 1 c18 -12 2 -12 -25 0 -13 6 -15 9 -5 9 8 0 22 -4 30 -9z
m427 -19 c12 -9 23 -21 23 -28 0 -22 23 -26 37 -8 7 11 13 17 14 14 10 -58 16
-69 34 -63 8 3 15 14 15 24 0 11 5 22 10 25 6 4 10 -16 10 -52 0 -32 3 -69 7
-82 5 -21 4 -23 -13 -17 -23 10 -77 23 -122 30 -46 6 -47 10 -7 26 35 14 47
30 23 30 -7 0 -2 9 12 20 21 17 22 20 7 20 -18 0 -43 17 -105 68 l-27 22 30
-6 c17 -4 40 -14 52 -23z m-370 3 c-3 -3 -12 -4 -19 -1 -8 3 -5 6 6 6 11 1 17
-2 13 -5z m-1054 -11 c-7 -2 -21 -2 -30 0 -10 3 -4 5 12 5 17 0 24 -2 18 -5z
m777 -13 c-28 -8 -35 -6 -26 8 3 6 16 7 29 4 22 -6 22 -6 -3 -12z m183 11 c17
-6 17 -8 4 -20 -12 -9 -21 -10 -37 -1 -37 20 -9 38 33 21z m203 -20 c-4 -5 -3
-11 1 -13 5 -3 4 -4 -1 -3 -14 2 -20 25 -6 25 6 0 9 -4 6 -9z m-921 -11 c3 -5
2 -10 -4 -10 -5 0 -13 5 -16 10 -3 6 -2 10 4 10 5 0 13 -4 16 -10z m300 0 c3
-5 22 -10 41 -10 21 0 33 -4 29 -10 -10 -16 -37 -12 -70 10 -16 11 -25 20 -18
20 6 0 15 -4 18 -10z m470 -10 c3 -5 1 -10 -4 -10 -6 0 -11 5 -11 10 0 6 2 10
4 10 3 0 8 -4 11 -10z m-465 -28 c31 -14 32 -16 13 -19 -12 -2 -31 1 -42 6
-11 6 -28 11 -38 11 -11 0 -28 6 -39 14 -17 13 -15 14 26 9 25 -3 61 -13 80
-21z m-544 3 c4 -8 17 -15 30 -15 12 0 28 -8 33 -17 8 -13 13 -15 18 -6 6 8
29 5 85 -10 43 -12 78 -25 78 -30 0 -11 -122 -2 -147 11 -26 14 -63 16 -63 3
0 -12 -69 6 -93 24 -15 11 -16 17 -7 34 13 25 58 29 66 6z m419 -5 c4 -6 10
-8 15 -5 5 3 14 -4 20 -16 11 -19 10 -20 -12 -14 -54 17 -69 26 -63 35 8 13
32 13 40 0z m776 0 c10 -6 19 -16 19 -22 0 -7 -4 -7 -12 -1 -20 15 -48 23 -48
14 0 -4 10 -13 23 -19 18 -9 15 -10 -22 -5 -32 4 -42 3 -37 -5 4 -7 14 -12 23
-12 9 0 13 -3 10 -6 -8 -8 -67 15 -67 26 0 4 12 11 27 15 21 5 24 8 12 16 -20
13 47 12 72 -1z m-481 -9 c0 -16 -25 -19 -55 -6 l-30 13 43 1 c23 1 42 -3 42
-8z m249 -4 c-2 -1 -13 -9 -24 -17 -19 -14 -19 -14 -6 3 7 9 18 17 24 17 6 0
8 -1 6 -3z m-170 -26 c9 -17 8 -18 -11 -13 -13 3 -17 7 -10 10 7 2 10 8 6 13
-3 5 -3 9 0 9 3 0 10 -9 15 -19z m251 -1 l23 -20 -49 1 c-43 0 -46 2 -26 11
12 6 22 15 22 20 0 12 4 10 30 -12z m-175 -10 c3 -6 -1 -7 -9 -4 -18 7 -21 14
-7 14 6 0 13 -4 16 -10z m-260 -10 c3 -5 2 -10 -4 -10 -5 0 -13 5 -16 10 -3 6
-2 10 4 10 5 0 13 -4 16 -10z m55 -24 c0 -2 -9 -2 -20 1 -11 3 -20 9 -20 15 0
5 9 4 20 -2 11 -6 20 -12 20 -14z m130 -11 c-12 -32 7 -43 42 -24 27 15 70 18
79 6 10 -13 151 -69 158 -62 3 3 -1 11 -9 16 -11 8 -8 8 10 3 49 -13 70 -24
70 -34 0 -14 -6 -13 -38 7 -26 17 -26 17 -13 0 12 -15 11 -17 -5 -17 -40 0
-266 53 -319 75 -16 7 -37 15 -45 18 -8 3 2 6 23 6 26 1 37 5 37 16 0 8 4 15
10 15 6 0 6 -9 0 -25z m254 -25 c51 -25 49 -32 -3 -12 -10 4 -12 1 -6 -7 5
-10 2 -12 -11 -8 -64 18 -66 19 -55 30 8 8 4 15 -17 24 l-27 13 29 -5 c15 -3
56 -19 90 -35z m372 26 c33 -2 78 -12 100 -21 l39 -17 -28 -10 c-21 -8 -33 -6
-52 6 -13 9 -30 16 -37 16 -7 -1 2 -9 21 -19 40 -21 27 -36 -22 -25 -30 6 -31
5 -17 -11 14 -17 13 -17 -8 -6 -26 14 -72 7 -72 -10 0 -7 -5 -8 -12 -2 -7 5
-31 15 -53 22 -22 7 -49 16 -60 22 -11 5 -54 20 -95 33 l-75 24 114 0 c62 1
115 3 117 5 2 2 21 2 41 0 21 -1 65 -5 99 -7z m-471 -16 c3 -6 -1 -7 -9 -4
-18 7 -21 14 -7 14 6 0 13 -4 16 -10z m-435 -18 c0 -4 10 -13 21 -21 19 -11
21 -11 16 3 -7 18 10 21 33 6 13 -8 12 -10 -3 -10 -10 0 -15 -4 -12 -10 9 -14
-7 -12 -49 5 -20 9 -34 20 -31 25 7 12 25 13 25 2z m1060 -32 c0 -13 -5 -18
-15 -14 -11 5 -12 9 -2 20 16 18 17 17 17 -6z m-807 -9 c87 -38 94 -42 70 -35
-18 4 -22 2 -17 -10 3 -9 1 -16 -5 -16 -6 0 -11 6 -11 13 0 6 -18 22 -40 35
-44 25 -55 27 -44 10 5 -8 2 -9 -10 -5 -10 4 -21 7 -24 8 -6 0 23 15 36 18 1
1 21 -7 45 -18z m505 -27 c50 -19 71 -31 70 -42 -2 -11 8 -16 45 -17 26 -2 51
-6 55 -10 4 -4 -9 -5 -28 -1 -19 3 -41 2 -49 -3 -8 -5 -24 -6 -37 -1 -32 12
-134 0 -134 -16 0 -7 6 -14 13 -17 6 -2 -14 -4 -46 -3 -59 1 -79 -10 -29 -16
25 -4 25 -4 -8 -10 -129 -22 -183 -27 -198 -18 -16 9 -16 9 1 10 9 0 17 5 17
11 0 6 7 17 15 26 12 12 13 18 4 29 -6 8 -14 12 -18 10 -3 -2 -15 0 -26 5 -18
7 -17 8 7 8 15 1 33 -5 41 -13 7 -8 29 -15 48 -17 19 -2 40 -7 46 -12 8 -6 23
-5 40 1 16 6 40 9 56 7 15 -2 27 -2 27 1 0 8 -58 33 -64 27 -3 -4 -6 1 -6 10
0 9 -4 17 -10 17 -5 0 -9 -3 -9 -7 3 -18 -2 -33 -10 -33 -5 0 -7 9 -4 20 4 14
0 20 -13 21 -11 1 8 5 41 10 38 6 63 5 69 -1 7 -7 -1 -10 -24 -10 -66 0 -23
-8 73 -14 53 -3 97 -2 97 3 0 13 -23 20 -51 14 -13 -2 -35 1 -49 7 -23 10 -22
10 10 6 34 -5 34 -4 -13 18 -96 47 -74 47 51 0z m-628 10 c0 -2 -12 -4 -26 -4
-14 0 -23 4 -20 9 6 8 46 4 46 -5z m775 -14 c3 -5 16 -10 28 -10 18 0 19 2 7
11 -11 8 -8 9 15 5 17 -3 44 -7 62 -8 17 -1 30 -5 27 -9 -2 -4 0 -9 5 -11 17
-6 16 -30 -1 -33 -10 -2 -18 0 -18 5 0 11 -59 34 -67 26 -3 -3 1 -6 9 -6 9 0
21 -7 28 -15 8 -10 9 -15 1 -15 -17 0 -161 57 -161 63 0 8 60 5 65 -3z m-367
-49 c6 -1 12 -6 12 -12 0 -11 -52 -4 -79 11 -13 7 -2 7 67 1z m-238 -11 c8 -5
11 -10 5 -10 -5 0 -17 5 -25 10 -8 5 -10 10 -5 10 6 0 17 -5 25 -10z m81 -29
c-24 -3 -24 -4 -6 -11 19 -8 19 -9 -3 -9 -17 -1 -22 4 -20 17 1 9 -1 23 -5 30
-5 8 5 6 26 -5 l35 -18 -27 -4z m494 9 c-4 -6 5 -10 19 -10 39 0 31 -17 -11
-24 -54 -9 -97 -7 -101 4 -2 6 -17 10 -33 10 -16 0 -29 4 -29 10 0 13 104 3
108 -10 2 -6 8 -10 14 -10 6 0 8 6 5 14 -3 8 -1 17 6 20 20 8 28 6 22 -4z
m195 -18 c0 -24 -8 -32 -26 -25 -22 8 -17 43 6 43 13 0 20 -7 20 -18z m-61
-25 c-2 -3 -29 -7 -59 -10 l-55 -5 50 17 c28 10 54 14 59 9 5 -4 8 -9 5 -11z
m-644 -31 l30 -13 -27 -5 c-16 -3 -28 -1 -28 3 0 11 -54 10 -90 0 -14 -4 -35
-4 -47 0 -14 5 -23 5 -23 -1 0 -6 -21 -10 -47 -10 -84 1 -20 23 87 30 52 4
100 7 105 8 6 1 24 -5 40 -12z m-2376 -28 c12 -15 11 -18 -3 -18 -10 0 -16 8
-16 22 0 12 1 19 3 17 1 -2 9 -12 16 -21z m2071 2 c0 -5 -15 -10 -32 -9 -28 0
-30 2 -13 9 28 12 45 12 45 0z m-1090 -10 c8 -5 12 -11 9 -14 -3 -3 -14 1 -25
9 -21 16 -8 20 16 5z m885 0 c-3 -5 -14 -10 -23 -10 -15 0 -15 2 -2 10 20 13
33 13 25 0z m42 4 c-3 -3 -12 -4 -19 -1 -8 3 -5 6 6 6 11 1 17 -2 13 -5z m80
0 c-3 -3 -12 -4 -19 -1 -8 3 -5 6 6 6 11 1 17 -2 13 -5z m-727 -39 c0 -10 -10
-15 -32 -15 l-33 1 25 14 c32 18 40 18 40 0z m-1141 -36 c18 -11 31 -23 28
-26 -3 -3 -25 7 -49 21 -24 14 -36 26 -28 26 8 0 30 -9 49 -21z"/>
<path d="M1284 2616 c-7 -19 46 -118 61 -112 7 2 17 -15 25 -46 20 -70 28 -68
18 4 -9 68 -44 148 -65 148 -7 0 -13 5 -13 10 0 15 -20 12 -26 -4z"/>
<path d="M1190 2510 c-8 -5 -25 -10 -37 -10 -12 0 -28 -6 -36 -14 -8 -9 -24
-12 -36 -9 -27 7 -27 -8 -1 -32 11 -10 20 -24 20 -30 0 -7 10 -15 22 -19 18
-4 20 -8 10 -18 -18 -18 -15 -30 7 -23 11 3 29 0 41 -7 20 -12 20 -18 14 -114
-6 -86 -4 -102 9 -107 15 -6 27 -27 62 -117 34 -86 46 -110 55 -110 18 0 10
56 -16 111 -14 29 -30 63 -35 74 -14 30 -13 72 5 155 22 102 21 103 -24 127
l-41 20 25 16 c24 16 28 40 9 70 -4 6 -8 19 -8 27 0 18 -25 24 -45 10z m78
-191 c2 -9 -4 -19 -11 -22 -10 -4 -17 3 -20 19 -3 19 -1 24 12 22 9 -2 17 -10
19 -19z"/>
<path d="M1340 2483 c0 -24 24 -103 32 -103 5 0 5 12 2 28 -10 37 -33 90 -34
75z"/>
<path d="M1777 2437 c-4 -10 -13 -17 -22 -17 -10 0 -15 -10 -15 -30 0 -16 -4
-30 -10 -30 -5 0 -10 9 -10 20 0 34 -21 22 -37 -20 -11 -26 -21 -39 -30 -36
-10 4 -13 -7 -13 -43 0 -26 -3 -50 -6 -54 -9 -9 -10 -247 -1 -279 11 -40 31
-36 22 5 -14 71 -17 119 -6 130 8 8 11 5 11 -12 0 -38 20 -12 21 27 0 20 4 46
9 57 6 13 7 -3 5 -47 -2 -37 -7 -73 -11 -80 -11 -18 -5 -69 11 -84 7 -8 15
-19 18 -26 2 -7 8 -10 12 -6 10 9 35 145 35 190 0 20 5 40 12 44 8 5 9 -5 5
-34 -3 -23 -2 -42 2 -42 15 0 31 43 37 104 4 36 11 66 17 66 5 0 7 -14 5 -30
-3 -17 0 -34 5 -37 7 -4 8 16 4 56 -5 48 -4 62 6 58 8 -2 11 -19 9 -46 -2 -24
1 -41 7 -41 6 0 11 7 11 16 0 10 6 13 18 10 19 -6 41 26 47 69 2 11 6 27 10
36 9 24 -15 36 -30 16 -15 -21 -25 -11 -25 26 0 22 -4 28 -15 23 -10 -4 -20 3
-27 19 -13 28 -38 34 -38 9 0 -13 -4 -11 -18 6 -16 20 -19 21 -25 7z m75 -89
c-8 -8 -9 -4 -5 13 4 13 8 18 11 10 2 -7 -1 -18 -6 -23z m-102 -80 c0 -24 -5
-50 -10 -58 -7 -11 -10 2 -10 43 0 31 4 57 10 57 6 0 10 -19 10 -42z m29 -62
c-9 -8 -10 -7 -5 7 3 10 7 24 7 30 1 7 3 4 6 -7 3 -10 -1 -23 -8 -30z m-43
-147 c-3 -17 -6 -39 -7 -48 0 -13 -2 -12 -8 3 -9 24 -2 76 11 76 6 0 8 -13 4
-31z"/>
<path d="M1422 2193 c1 -15 4 -32 7 -38 2 -5 6 -20 7 -34 2 -13 8 -29 13 -34
19 -19 25 3 12 36 -7 18 -16 44 -18 60 -7 37 -23 45 -21 10z"/>
<path d="M1893 2088 c3 -29 9 -61 13 -72 7 -17 5 -17 -23 -2 -17 8 -33 12 -37
9 -15 -15 -3 -35 29 -49 l35 -14 1 -108 c1 -147 14 -175 23 -47 11 147 17 140
10 -10 -3 -88 -2 -127 5 -120 6 6 12 41 13 79 2 44 8 71 16 74 9 3 12 -24 12
-112 0 -63 4 -117 9 -121 5 -3 12 7 14 22 3 19 5 13 6 -17 2 -54 16 -83 30
-61 8 12 11 9 17 -13 5 -20 0 -41 -15 -71 -12 -24 -25 -45 -29 -48 -4 -2 -1
-2 6 0 8 1 19 3 26 3 6 0 20 16 30 35 15 27 17 45 12 82 -4 26 -9 73 -11 103
-2 30 -9 82 -14 115 -6 33 -14 86 -17 118 -4 32 -11 60 -15 63 -5 3 -9 16 -9
30 0 13 -4 24 -10 24 -5 0 -10 13 -10 29 0 30 -28 50 -50 36 -5 -3 -10 3 -10
14 0 11 -5 23 -11 26 -5 4 -14 18 -19 31 -17 45 -33 28 -27 -28z m164 -500
c-3 -8 -6 -5 -6 6 -1 11 2 17 5 13 3 -3 4 -12 1 -19z"/>
<path d="M2330 1990 c0 -5 5 -10 10 -10 6 0 10 5 10 10 0 6 -4 10 -10 10 -5 0
-10 -4 -10 -10z"/>
<path d="M1516 1971 c-5 -8 152 -121 168 -121 19 0 0 22 -41 49 -27 16 -60 42
-75 56 -28 26 -43 31 -52 16z"/>
<path d="M1775 1478 c-102 -9 -122 -16 -112 -42 5 -13 12 -13 53 0 58 17 128
18 142 1 6 -6 14 -25 17 -40 14 -53 26 -39 23 27 -1 39 -6 65 -13 65 -5 -1
-55 -6 -110 -11z"/>
<path d="M1950 1359 c-40 -44 -53 -89 -26 -89 8 0 22 21 32 46 10 25 24 53 32
61 8 7 12 17 8 20 -3 3 -24 -14 -46 -38z"/>
<path d="M550 2350 c0 -5 10 -10 23 -10 18 0 19 2 7 10 -19 13 -30 13 -30 0z"/>
<path d="M516 2325 c4 -8 10 -15 15 -15 5 0 9 7 9 15 0 8 -7 15 -15 15 -9 0
-12 -6 -9 -15z"/>
<path d="M560 2301 c0 -5 11 -11 25 -13 28 -6 34 6 9 16 -22 8 -34 7 -34 -3z"/>
<path d="M360 2260 c20 -13 43 -13 35 0 -3 6 -16 10 -28 10 -18 0 -19 -2 -7
-10z"/>
<path d="M286 2223 c22 -36 132 -143 147 -143 6 0 -4 16 -23 35 -55 56 -30 48
28 -9 29 -29 54 -60 56 -68 2 -20 25 -48 38 -48 6 0 3 11 -6 24 -9 15 -11 26
-5 28 14 5 0 38 -16 38 -8 0 -22 10 -32 23 -41 52 -102 98 -132 100 -22 1 -30
6 -26 16 6 15 -11 31 -33 31 -9 0 -8 -7 4 -27z m79 -43 c3 -5 1 -10 -4 -10 -6
0 -11 5 -11 10 0 6 2 10 4 10 3 0 8 -4 11 -10z"/>
<path d="M452 2174 c2 -11 8 -18 13 -16 15 3 12 25 -3 30 -9 3 -13 -2 -10 -14z"/>
<path d="M440 2066 c0 -2 7 -7 16 -10 8 -3 12 -2 9 4 -6 10 -25 14 -25 6z"/>
<path d="M270 1989 c0 -6 10 -19 23 -30 19 -16 20 -18 4 -19 -15 0 -15 -3 -5
-20 9 -15 20 -19 36 -15 18 4 30 -1 49 -21 13 -14 26 -24 28 -22 5 5 -119 138
-128 138 -4 0 -7 -5 -7 -11z"/>
<path d="M370 1970 c0 -5 5 -10 11 -10 5 0 7 5 4 10 -3 6 -8 10 -11 10 -2 0
-4 -4 -4 -10z"/>
<path d="M410 1963 c0 -13 14 -27 38 -41 30 -17 44 -5 17 15 -32 23 -55 34
-55 26z"/>
<path d="M207 1924 c17 -7 38 -23 47 -36 18 -26 28 -21 20 9 -4 12 -19 26 -36
32 -45 16 -69 12 -31 -5z"/>
<path d="M440 1870 c0 -5 5 -10 10 -10 6 0 10 5 10 10 0 6 -4 10 -10 10 -5 0
-10 -4 -10 -10z"/>
<path d="M505 1799 c6 -19 5 -20 -15 -9 -18 10 -21 9 -18 -2 5 -14 54 -35 63
-26 8 7 -16 58 -27 58 -5 0 -6 -9 -3 -21z"/>
<path d="M173 1669 c14 -8 22 -8 30 0 8 8 3 11 -18 11 -26 -1 -28 -2 -12 -11z"/>
<path d="M252 1669 c2 -7 10 -15 17 -17 8 -3 12 1 9 9 -2 7 -10 15 -17 17 -8
3 -12 -1 -9 -9z"/>
<path d="M340 1584 c0 -3 7 -12 16 -21 8 -9 13 -22 10 -29 -3 -9 2 -14 14 -14
26 0 25 10 -5 43 -25 27 -35 33 -35 21z"/>
<path d="M275 1550 c3 -5 8 -10 11 -10 2 0 4 5 4 10 0 6 -5 10 -11 10 -5 0 -7
-4 -4 -10z"/>
<path d="M296 1533 c-4 -4 15 -26 40 -50 62 -55 71 -46 13 12 -25 25 -49 42
-53 38z"/>
<path d="M198 1511 c12 -7 62 -4 62 5 0 2 -17 4 -37 4 -24 0 -33 -3 -25 -9z"/>
<path d="M290 1446 c0 -19 14 -28 34 -20 15 6 15 8 -1 20 -23 17 -33 17 -33 0z"/>
<path d="M190 1429 c0 -5 5 -7 10 -4 6 3 10 8 10 11 0 2 -4 4 -10 4 -5 0 -10
-5 -10 -11z"/>
<path d="M428 1433 c17 -2 47 -2 65 0 17 2 3 4 -33 4 -36 0 -50 -2 -32 -4z"/>
<path d="M370 1309 c0 -11 157 -6 168 6 3 3 -34 5 -81 5 -57 0 -87 -4 -87 -11z"/>
<path d="M218 1303 c7 -3 16 -2 19 1 4 3 -2 6 -13 5 -11 0 -14 -3 -6 -6z"/>
<path d="M150 1169 c0 -5 30 -9 67 -9 36 0 64 3 60 6 -10 10 -127 13 -127 3z"/>
<path d="M297 1173 c-13 -12 -7 -23 13 -23 13 0 18 5 14 15 -7 16 -17 19 -27
8z"/>
<path d="M356 1173 c-3 -3 -3 -10 0 -14 7 -12 34 -11 34 0 0 11 -26 22 -34 14z"/>
<path d="M565 1080 c-3 -5 -1 -10 4 -10 6 0 11 5 11 10 0 6 -2 10 -4 10 -3 0
-8 -4 -11 -10z"/>
<path d="M384 1069 c-13 -5 -3 -8 28 -8 26 -1 50 4 53 9 7 12 -51 11 -81 -1z"/>
<path d="M498 1073 c12 -2 30 -2 40 0 9 3 -1 5 -23 4 -22 0 -30 -2 -17 -4z"/>
<path d="M278 1063 c6 -2 18 -2 25 0 6 3 1 5 -13 5 -14 0 -19 -2 -12 -5z"/>
<path d="M328 1043 c7 -3 16 -2 19 1 4 3 -2 6 -13 5 -11 0 -14 -3 -6 -6z"/>
<path d="M442 1036 c13 -14 28 -12 28 5 0 5 -9 9 -20 9 -17 0 -19 -2 -8 -14z"/>
<path d="M488 1043 c7 -3 16 -2 19 1 4 3 -2 6 -13 5 -11 0 -14 -3 -6 -6z"/>
<path d="M280 1010 c0 -5 7 -10 15 -10 8 0 15 5 15 10 0 6 -7 10 -15 10 -8 0
-15 -4 -15 -10z"/>
<path d="M500 951 c0 -5 7 -11 15 -15 8 -3 15 -1 15 3 0 5 -7 11 -15 15 -8 3
-15 1 -15 -3z"/>
<path d="M324 888 c3 -29 5 -60 6 -69 0 -9 6 -19 14 -22 11 -4 13 3 12 31 -2
20 -3 54 -4 75 -2 26 -7 37 -17 37 -12 0 -14 -10 -11 -52z"/>
<path d="M555 930 c3 -5 15 -10 26 -10 11 0 17 5 14 10 -3 6 -15 10 -26 10
-11 0 -17 -4 -14 -10z"/>
<path d="M478 903 c7 -3 16 -2 19 1 4 3 -2 6 -13 5 -11 0 -14 -3 -6 -6z"/>
<path d="M280 881 c0 -5 7 -11 15 -15 8 -3 15 -1 15 3 0 5 -7 11 -15 15 -8 3
-15 1 -15 -3z"/>
<path d="M200 835 c0 -8 9 -15 20 -15 13 0 18 5 14 15 -4 8 -12 15 -20 15 -8
0 -14 -7 -14 -15z"/>
<path d="M640 840 c0 -6 7 -10 15 -10 8 0 15 2 15 4 0 2 -7 6 -15 10 -8 3 -15
1 -15 -4z"/>
<path d="M910 830 c-12 -8 -12 -10 3 -16 21 -8 35 2 21 16 -5 5 -15 6 -24 0z"/>
<path d="M475 810 c3 -5 14 -10 23 -10 15 0 15 2 2 10 -20 13 -33 13 -25 0z"/>
<path d="M120 781 c0 -10 7 -25 17 -32 15 -13 15 -12 4 9 -6 12 -9 27 -6 32 3
6 1 10 -4 10 -6 0 -11 -8 -11 -19z"/>
<path d="M585 789 c-95 -14 -97 -18 -5 -14 47 2 86 4 88 4 1 1 2 6 2 11 0 11
0 11 -85 -1z"/>
<path d="M175 781 c-3 -6 2 -11 14 -11 10 0 21 -4 23 -8 5 -13 58 -24 58 -12
0 5 -9 10 -20 10 -12 0 -31 7 -44 16 -16 10 -26 12 -31 5z"/>
<path d="M298 763 c7 -3 16 -2 19 1 4 3 -2 6 -13 5 -11 0 -14 -3 -6 -6z"/>
<path d="M383 763 c9 -2 23 -2 30 0 6 3 -1 5 -18 5 -16 0 -22 -2 -12 -5z"/>
<path d="M280 738 c5 -5 117 -66 188 -102 48 -25 32 -31 -17 -8 -23 11 -41 16
-41 11 0 -10 143 -78 180 -84 14 -3 19 -2 13 1 -7 3 -13 11 -13 17 0 12 -244
148 -290 162 -14 4 -23 5 -20 3z"/>
<path d="M580 720 c0 -6 7 -10 15 -10 8 0 15 2 15 4 0 2 -7 6 -15 10 -8 3 -15
1 -15 -4z"/>
<path d="M746 721 c15 -14 54 -23 54 -13 0 5 -10 12 -22 16 -33 8 -44 8 -32
-3z"/>
<path d="M1072 714 c9 -9 21 -13 27 -9 16 10 3 25 -22 25 -20 0 -20 -1 -5 -16z"/>
<path d="M549 695 c42 -19 47 -19 31 0 -7 8 -24 15 -39 15 -25 -1 -25 -1 8
-15z"/>
<path d="M300 690 c0 -6 7 -10 15 -10 8 0 15 2 15 4 0 2 -7 6 -15 10 -8 3 -15
1 -15 -4z"/>
<path d="M830 690 c20 -13 33 -13 25 0 -3 6 -14 10 -23 10 -15 0 -15 -2 -2
-10z"/>
<path d="M1120 692 c0 -6 -3 -17 -6 -26 -4 -12 0 -16 15 -16 24 0 28 22 6 40
-9 8 -15 8 -15 2z"/>
<path d="M695 670 c28 -12 37 -12 30 0 -3 6 -16 10 -28 9 -21 0 -21 -1 -2 -9z"/>
<path d="M960 650 c0 -5 7 -10 16 -10 8 0 12 5 9 10 -3 6 -10 10 -16 10 -5 0
-9 -4 -9 -10z"/>
<path d="M300 644 c0 -9 48 -46 87 -66 38 -21 43 -22 43 -8 0 6 -6 10 -14 10
-8 0 -37 16 -65 35 -28 20 -51 33 -51 29z"/>
<path d="M603 637 c-7 -11 27 -40 36 -31 3 3 -1 9 -9 14 -10 7 1 10 38 10 28
0 52 4 52 9 0 12 -109 10 -117 -2z"/>
<path d="M740 630 c0 -5 5 -10 10 -10 6 0 10 5 10 10 0 6 -4 10 -10 10 -5 0
-10 -4 -10 -10z"/>
<path d="M172 608 c-9 -9 -2 -16 26 -30 20 -10 66 -36 102 -58 66 -41 87 -49
75 -29 -4 6 2 5 14 -2 12 -8 16 -16 10 -20 -6 -3 16 -19 48 -35 32 -16 102
-54 156 -86 55 -32 104 -58 110 -58 18 0 -1 14 -92 69 -102 62 -99 67 5 10 75
-41 128 -57 138 -40 3 5 -11 12 -32 16 -42 8 -365 167 -503 248 -34 20 -48 24
-57 15z"/>
<path d="M886 611 c-6 -10 16 -21 41 -21 13 0 13 3 3 15 -14 17 -36 20 -44 6z"/>
<path d="M807 604 c-4 -4 5 -13 19 -21 31 -16 44 -17 44 -3 0 6 -8 10 -18 10
-10 0 -23 5 -28 10 -6 6 -13 7 -17 4z"/>
<path d="M1455 590 c3 -5 8 -10 11 -10 2 0 4 5 4 10 0 6 -5 10 -11 10 -5 0 -7
-4 -4 -10z"/>
<path d="M716 575 c46 -20 84 -28 84 -18 0 9 -79 34 -103 32 -6 0 2 -7 19 -14z"/>
<path d="M316 565 c10 -8 24 -14 29 -14 6 0 1 6 -9 14 -11 8 -24 15 -30 15 -5
0 -1 -7 10 -15z"/>
<path d="M110 550 c0 -10 59 -44 66 -38 2 2 -3 14 -12 26 -15 22 -54 31 -54
12z"/>
<path d="M920 550 c20 -13 33 -13 25 0 -3 6 -14 10 -23 10 -15 0 -15 -2 -2
-10z"/>
<path d="M455 540 c3 -5 11 -10 16 -10 6 0 7 5 4 10 -3 6 -11 10 -16 10 -6 0
-7 -4 -4 -10z"/>
<path d="M630 540 c0 -11 8 -16 43 -24 17 -4 26 -3 23 3 -8 13 -66 32 -66 21z"/>
<path d="M845 540 c3 -5 8 -10 11 -10 2 0 4 5 4 10 0 6 -5 10 -11 10 -5 0 -7
-4 -4 -10z"/>
<path d="M500 522 c0 -8 62 -52 73 -52 4 0 7 6 7 13 0 6 -18 20 -40 29 -22 9
-40 13 -40 10z"/>
<path d="M920 521 c0 -15 49 -19 61 -5 9 11 5 14 -25 14 -20 0 -36 -4 -36 -9z"/>
<path d="M725 500 c-5 -7 75 -50 94 -50 16 0 116 -44 129 -57 7 -7 19 -13 26
-13 8 0 29 -2 47 -5 31 -5 29 -3 -16 18 -140 66 -274 118 -280 107z"/>
<path d="M240 485 c0 -8 6 -15 13 -15 6 -1 26 -8 42 -16 17 -8 21 -12 10 -9
l-20 5 20 -15 c33 -26 277 -146 327 -161 48 -15 72 -34 43 -34 -9 0 -13 -5 -9
-11 4 -6 20 -8 39 -5 19 4 36 2 40 -4 3 -5 0 -10 -7 -10 -7 0 -3 -7 8 -14 24
-17 68 -10 60 10 -3 7 0 16 6 20 17 11 -14 25 -42 19 -14 -3 -36 1 -50 9 -14
8 -53 28 -88 45 -35 17 -61 35 -57 41 3 6 -4 10 -17 10 -14 0 -88 34 -165 75
-78 41 -144 75 -147 75 -3 0 -6 -7 -6 -15z"/>
<path d="M1767 489 c7 -7 15 -10 18 -7 3 3 -2 9 -12 12 -14 6 -15 5 -6 -5z"/>
<path d="M135 465 c17 -14 36 -25 44 -25 8 0 43 -17 79 -37 36 -21 98 -56 138
-78 77 -43 129 -78 104 -72 -8 2 -25 1 -36 -4 -14 -5 -31 -1 -53 12 -17 10
-41 19 -54 19 -16 0 -8 -8 29 -29 62 -34 92 -43 97 -28 2 7 21 7 63 -2 102
-23 114 -24 114 -12 0 6 -8 11 -17 12 -11 0 -13 3 -5 6 23 9 1 23 -38 23 -27
0 -53 10 -85 31 -58 39 -383 209 -399 209 -6 -1 3 -12 19 -25z"/>
<path d="M520 470 c0 -6 7 -10 15 -10 8 0 15 2 15 4 0 2 -7 6 -15 10 -8 3 -15
1 -15 -4z"/>
<path d="M1520 460 c0 -5 7 -10 15 -10 8 0 15 5 15 10 0 6 -7 10 -15 10 -8 0
-15 -4 -15 -10z"/>
<path d="M655 450 c3 -5 17 -10 31 -10 14 0 22 4 19 10 -3 6 -17 10 -31 10
-14 0 -22 -4 -19 -10z"/>
<path d="M1435 441 c-6 -11 9 -23 19 -14 9 9 7 23 -3 23 -6 0 -12 -4 -16 -9z"/>
<path d="M768 423 c7 -3 16 -2 19 1 4 3 -2 6 -13 5 -11 0 -14 -3 -6 -6z"/>
<path d="M1555 410 c3 -6 -5 -14 -19 -20 -44 -16 -21 -69 37 -84 20 -5 29 -2
33 9 4 8 15 15 26 15 11 0 18 5 16 13 -3 7 -21 12 -44 12 -26 0 -38 -4 -36
-12 1 -7 -5 -13 -13 -13 -8 0 -15 4 -15 9 0 5 -2 16 -6 24 -3 10 4 16 25 20
35 7 43 37 10 37 -11 0 -17 -5 -14 -10z"/>
<path d="M1358 378 c-9 -24 2 -34 32 -30 33 5 37 11 18 30 -16 16 -45 15 -50
0z"/>
<path d="M1458 373 c-16 -2 -28 -9 -28 -14 0 -15 47 -10 54 6 3 8 4 14 3 14
-1 -1 -14 -4 -29 -6z"/>
<path d="M235 360 c8 -13 35 -13 55 0 11 7 5 10 -23 10 -23 0 -36 -4 -32 -10z"/>
<path d="M1692 353 c-37 -5 -34 -23 4 -23 13 0 24 -5 24 -11 0 -7 -12 -9 -34
-5 -38 7 -54 -5 -31 -24 21 -18 145 -4 145 16 0 10 -7 13 -25 8 -22 -5 -25 -3
-25 20 0 15 -5 25 -12 24 -7 0 -28 -3 -46 -5z"/>
<path d="M1968 343 c-88 -4 -107 -22 -25 -24 67 -2 77 0 101 17 11 8 16 13 11
12 -6 -1 -45 -4 -87 -5z"/>
<path d="M1845 330 c3 -5 10 -10 16 -10 5 0 9 5 9 10 0 6 -7 10 -16 10 -8 0
-12 -4 -9 -10z"/>
<path d="M264 315 c11 -8 22 -12 25 -9 6 6 -19 24 -34 24 -5 -1 -1 -7 9 -15z"/>
<path d="M2305 314 c-9 -9 -13 -19 -10 -22 3 -4 10 0 15 7 4 8 15 11 24 8 10
-4 16 -1 16 8 0 20 -25 19 -45 -1z"/>
<path d="M960 312 c0 -7 43 -32 55 -32 2 0 1 9 -2 20 -3 13 -14 20 -29 20 -13
0 -24 -4 -24 -8z"/>
<path d="M1204 309 c-3 -6 0 -15 7 -20 19 -12 59 -11 59 1 0 6 -9 10 -21 10
-11 0 -17 5 -14 10 3 6 -1 10 -9 10 -8 0 -18 -5 -22 -11z"/>
<path d="M1390 310 c0 -5 -7 -10 -16 -10 -24 0 -11 -25 15 -28 32 -5 48 13 31
33 -14 17 -30 20 -30 5z"/>
<path d="M305 300 c-3 -5 1 -10 10 -10 9 0 13 5 10 10 -3 6 -8 10 -10 10 -2 0
-7 -4 -10 -10z"/>
<path d="M1938 291 c30 -4 75 -4 100 0 34 4 19 6 -53 6 -79 0 -89 -1 -47 -6z"/>
<path d="M165 270 c-3 -5 5 -12 19 -16 13 -3 27 -12 30 -20 3 -8 14 -14 23
-14 10 0 29 -7 41 -16 27 -18 43 -10 21 10 -16 16 -107 66 -120 66 -4 0 -11
-4 -14 -10z"/>
<path d="M1507 263 c7 -17 15 -16 39 2 18 14 17 15 -12 13 -22 -1 -30 -6 -27
-15z"/>
<path d="M913 243 c-18 -2 -33 -8 -33 -14 0 -12 97 -12 105 1 3 6 2 10 -4 10
-5 0 -15 2 -23 3 -7 2 -28 2 -45 0z"/>
<path d="M502 190 c14 -23 24 -25 34 -9 7 12 -12 29 -34 29 -10 0 -10 -4 0
-20z"/>
<path d="M670 200 c0 -5 5 -10 10 -10 6 0 10 5 10 10 0 6 -4 10 -10 10 -5 0
-10 -4 -10 -10z"/>
<path d="M954 198 c-3 -5 9 -8 25 -8 17 0 31 4 31 10 0 11 -49 9 -56 -2z"/>
<path d="M2232 2260 c0 -14 2 -19 5 -12 2 6 2 18 0 25 -3 6 -5 1 -5 -13z"/>
<path d="M910 1868 c1 -17 39 -67 40 -51 0 18 -22 63 -32 63 -4 0 -8 -6 -8
-12z"/>
<path d="M885 1800 c3 -5 8 -10 11 -10 2 0 4 5 4 10 0 6 -5 10 -11 10 -5 0 -7
-4 -4 -10z"/>
<path d="M1261 1474 c0 -11 3 -14 6 -6 3 7 2 16 -1 19 -3 4 -6 -2 -5 -13z"/>
<path d="M1390 1306 c0 -9 5 -16 10 -16 6 0 10 4 10 9 0 6 -4 13 -10 16 -5 3
-10 -1 -10 -9z"/>
<path d="M770 1000 c0 -5 7 -7 15 -4 8 4 15 8 15 10 0 2 -7 4 -15 4 -8 0 -15
-4 -15 -10z"/>
<path d="M3005 1000 c-3 -5 -1 -10 4 -10 6 0 11 5 11 10 0 6 -2 10 -4 10 -3 0
-8 -4 -11 -10z"/>
<path d="M3131 573 c12 -15 12 -16 -3 -10 -10 3 -20 2 -23 -3 -4 -6 5 -10 19
-10 19 0 26 5 26 20 0 12 -7 20 -16 20 -14 0 -15 -2 -3 -17z"/>
<path d="M1580 596 c0 -12 29 -26 55 -26 11 0 -36 39 -47 40 -5 0 -8 -6 -8
-14z"/>
<path d="M2577 288 c-20 -12 -3 -15 48 -8 51 7 49 12 -6 14 -17 0 -36 -2 -42
-6z"/>
<path d="M3270 1611 c0 -5 5 -11 12 -13 9 -3 9 -12 -1 -36 -8 -18 -11 -35 -8
-38 7 -7 37 61 37 82 0 8 -9 14 -20 14 -11 0 -20 -4 -20 -9z"/>
<path d="M3235 1566 c-29 -34 -46 -66 -36 -66 13 0 61 59 61 76 0 18 -1 18
-25 -10z"/>
<path d="M3256 1495 c-3 -9 -6 -22 -5 -28 0 -7 5 -1 10 12 5 13 8 26 5 28 -2
2 -6 -3 -10 -12z"/>
<path d="M3222 1420 c-14 -22 -16 -40 -4 -40 4 0 13 14 19 30 13 34 4 40 -15
10z"/>
</g>
</svg>
