<?xml version="1.0" standalone="no"?>
<!DOCTYPE svg PUBLIC "-//W3C//DTD SVG 20010904//EN"
 "http://www.w3.org/TR/2001/REC-SVG-20010904/DTD/svg10.dtd">
<svg version="1.0" xmlns="http://www.w3.org/2000/svg"
 width="203.000000pt" height="145.000000pt" viewBox="0 0 203.000000 145.000000"
 preserveAspectRatio="xMidYMid meet">
<metadata>
Created by potrace 1.16, written by Peter Selinger 2001-2019
</metadata>
<g transform="translate(0.000000,145.000000) scale(0.100000,-0.100000)"
fill="#000000" stroke="none">
<path d="M1780 1439 c0 -5 5 -7 10 -4 6 3 10 8 10 11 0 2 -4 4 -10 4 -5 0 -10
-5 -10 -11z"/>
<path d="M390 1423 c-36 -7 -80 -10 -98 -8 -18 3 -41 1 -51 -4 -9 -5 -54 -11
-99 -12 -81 -3 -82 -3 -92 -33 -7 -21 -7 -84 1 -210 10 -162 3 -471 -17 -736
-17 -223 -17 -267 0 -273 9 -4 16 -12 16 -18 0 -8 -4 -8 -15 1 -12 10 -15 9
-15 -6 1 -47 5 -48 242 -45 129 1 250 -2 288 -9 36 -6 238 -14 450 -18 321 -7
386 -6 393 6 7 10 39 13 145 12 76 -1 144 -1 153 -1 12 1 16 13 17 47 2 28 -2
43 -8 39 -6 -3 -7 0 -4 9 10 27 24 18 25 -16 1 -18 4 -44 9 -58 4 -15 8 31 8
113 1 75 4 142 7 147 9 14 28 339 27 458 -1 60 2 100 8 97 19 -12 25 66 17
235 -3 52 -2 123 2 157 6 49 4 66 -8 82 -12 15 -20 18 -31 11 -22 -14 -51 -12
-84 5 -38 20 -92 20 -100 0 -4 -13 -10 -14 -26 -5 -24 13 -208 12 -216 -1 -9
-15 -54 -10 -61 7 -5 14 -28 16 -167 16 -280 -1 -519 5 -586 14 -45 7 -85 6
-130 -3z m455 -23 c15 -7 10 -9 -22 -9 -24 -1 -43 4 -43 9 0 12 37 12 65 0z
m310 -20 c4 -6 -7 -10 -27 -9 -31 1 -32 1 -8 9 14 4 26 8 27 9 1 1 5 -3 8 -9z
m-285 -42 c41 4 102 2 110 -3 19 -12 10 -26 -9 -15 -11 5 -22 10 -25 10 -9 0
-2 -45 8 -52 11 -8 -87 -4 -181 7 -35 4 -63 10 -63 14 0 3 -13 5 -30 5 -43 -2
-44 -3 -31 -18 9 -11 5 -16 -19 -26 -30 -12 -41 -30 -19 -30 7 0 21 -10 32
-22 13 -16 21 -19 24 -10 5 13 39 17 46 5 2 -5 2 -3 1 4 -2 6 10 15 27 18 42
9 36 25 -11 25 -23 0 -40 5 -40 11 0 9 23 10 81 5 91 -8 190 -27 172 -33 -27
-10 -11 -23 25 -22 33 1 210 -56 285 -91 15 -7 30 -10 34 -7 8 9 -29 37 -39
31 -4 -3 -16 0 -25 6 -16 9 -15 10 5 5 25 -7 31 12 7 21 -8 4 -12 10 -9 15 3
5 0 9 -6 9 -7 0 -25 9 -41 21 -36 26 -73 34 -65 14 4 -12 -1 -12 -33 0 -62 21
-102 45 -96 56 4 5 11 7 16 3 5 -3 9 -2 8 3 -5 29 3 43 25 43 14 0 28 -4 31
-10 3 -5 -3 -10 -15 -10 -52 0 8 -25 83 -34 4 -1 11 -6 15 -12 4 -6 18 -14 32
-17 16 -4 44 -33 77 -76 45 -62 49 -71 33 -76 -25 -8 -84 4 -138 27 -53 22
-53 22 -46 3 5 -12 -6 -15 -63 -15 -38 0 -74 5 -79 10 -7 7 -31 6 -75 -5 -35
-8 -83 -15 -106 -15 -48 0 -75 -8 -67 -21 3 -5 -3 -9 -14 -9 -30 0 -83 -21
-77 -31 3 -4 13 -6 23 -3 9 3 6 -2 -8 -10 -30 -18 -19 -20 33 -5 28 7 37 15
33 25 -7 17 26 15 198 -12 80 -12 108 -12 95 0 -2 2 -26 7 -54 9 -27 3 -51 9
-52 14 -2 4 -32 7 -68 6 -36 0 -68 3 -71 9 -7 11 138 6 186 -6 14 -3 41 -9 60
-12 81 -15 131 -48 114 -75 -3 -5 2 -9 10 -9 9 0 16 8 16 18 0 22 -25 47 -58
57 -33 10 -20 18 17 10 17 -4 33 -15 36 -26 4 -11 19 -31 33 -46 15 -14 21
-22 15 -19 -24 13 -13 -13 11 -30 14 -8 28 -30 31 -47 4 -18 13 -53 21 -79 13
-41 13 -50 -1 -80 -19 -41 -37 -71 -53 -91 -7 -8 -10 -21 -7 -30 4 -8 -3 -29
-13 -47 -12 -18 -22 -26 -24 -19 -3 9 -18 4 -49 -17 -67 -45 -179 -83 -249
-85 -31 -1 -32 -2 -10 -8 22 -6 20 -8 -23 -19 -27 -7 -59 -9 -70 -5 -19 6 -18
8 13 14 29 5 24 7 -27 8 -58 1 -67 5 -151 61 -68 45 -93 68 -101 92 -9 25 -14
29 -20 19 -18 -28 -17 23 1 89 23 82 38 121 55 142 14 16 12 20 -18 31 -12 4
-16 1 -12 -12 3 -11 -4 -21 -21 -29 -16 -7 -26 -20 -26 -32 0 -12 5 -18 10
-15 16 10 12 -10 -15 -63 -14 -28 -25 -55 -25 -61 0 -6 -4 -11 -10 -11 -5 0
-10 -7 -10 -16 0 -14 2 -15 17 -3 15 12 16 12 10 -4 -4 -9 3 -41 14 -69 11
-28 18 -57 15 -63 -2 -7 6 -17 20 -23 14 -7 21 -17 18 -26 -7 -18 20 -33 75
-42 22 -4 41 -10 41 -15 0 -5 20 -9 45 -9 47 0 62 -15 23 -23 -13 -2 -1 -3 25
0 32 3 47 0 42 -7 -9 -14 -9 -14 95 20 93 30 171 41 140 19 -12 -8 -9 -9 10
-4 14 3 44 9 68 12 23 3 42 9 42 13 0 15 -39 18 -57 4 -24 -18 -38 -18 -23 1
7 8 17 15 23 15 5 0 29 18 53 40 24 22 40 40 35 40 -5 0 -14 -7 -21 -15 -13
-16 -40 -20 -40 -7 0 5 11 15 26 22 19 10 32 11 52 4 34 -13 52 -8 52 16 0 28
19 34 41 14 14 -12 19 -13 19 -4 0 7 3 10 6 7 4 -4 1 -13 -5 -21 -7 -8 -10
-20 -7 -25 4 -6 -5 -18 -19 -27 -14 -9 -25 -21 -25 -26 0 -6 6 -5 15 2 24 20
18 5 -7 -16 -12 -10 -18 -13 -14 -7 14 24 -9 13 -31 -15 -12 -15 -49 -40 -82
-57 -33 -16 -61 -35 -61 -41 0 -16 -32 -27 -40 -14 -10 15 -123 8 -137 -10 -7
-8 -13 -10 -13 -4 0 7 -39 13 -105 17 -96 5 -109 9 -149 36 -50 35 -68 39 -59
14 4 -11 3 -14 -5 -9 -7 4 -12 2 -12 -5 0 -7 -10 -3 -23 9 -13 12 -29 22 -35
22 -7 0 -12 6 -13 13 0 6 -2 20 -4 30 -2 9 1 15 6 11 5 -3 6 -10 3 -16 -4 -7
-2 -8 4 -4 7 4 12 1 12 -8 0 -9 4 -16 9 -16 5 0 18 -3 28 -6 10 -4 -4 14 -30
40 -46 44 -65 58 -52 36 13 -21 -10 -9 -32 17 -24 28 -68 40 -59 17 3 -9 -1
-11 -12 -7 -15 6 -15 4 -4 -9 11 -14 10 -18 -6 -27 -10 -5 -28 -7 -40 -4 -32
8 -27 -2 12 -26 40 -25 53 -27 35 -4 -12 14 -12 16 0 8 11 -6 13 -4 8 8 -9 24
14 26 55 6 41 -21 61 -48 49 -68 -7 -10 -15 -10 -40 3 -27 14 -31 14 -31 2 0
-8 5 -18 10 -21 6 -4 9 -14 8 -23 -2 -9 5 -18 14 -20 13 -3 16 1 11 14 -5 14
-2 16 23 10 16 -4 46 -16 68 -26 32 -16 41 -17 52 -5 8 7 22 12 31 10 10 -2
20 -4 23 -4 3 -1 -2 -5 -10 -11 -8 -5 -11 -12 -7 -16 3 -4 13 -1 21 5 23 19
36 5 23 -24 -12 -25 -27 -34 -27 -15 0 6 -15 10 -32 10 -48 0 -78 10 -78 26 0
19 -46 18 -54 -1 -3 -8 -1 -15 3 -15 5 0 12 6 14 13 3 7 6 5 6 -5 1 -11 9 -18
21 -18 11 0 20 -7 20 -15 0 -11 12 -15 46 -15 27 0 43 -4 39 -10 -7 -11 0 -12
32 -4 13 4 21 10 18 14 -9 14 23 31 57 31 77 1 124 -5 153 -17 18 -7 43 -11
56 -8 20 4 21 3 5 -4 -18 -8 -18 -9 -2 -15 10 -4 28 -7 41 -7 13 0 27 -4 30
-10 10 -16 45 -12 45 6 0 8 -4 13 -9 10 -5 -3 -11 1 -15 9 -4 10 1 15 14 15
11 0 20 -4 20 -10 0 -6 10 -5 25 2 13 6 22 15 19 19 -3 5 5 9 18 8 13 0 17 -3
11 -6 -14 -5 -18 -23 -5 -23 5 0 18 9 30 20 12 11 27 20 33 20 21 0 -17 -34
-68 -60 -26 -14 -50 -26 -53 -28 -2 -2 2 -7 10 -12 28 -17 -41 -23 -174 -15
-72 4 -154 9 -183 11 -28 1 -67 7 -85 12 -18 6 -53 13 -78 16 l-45 5 44 -14
c25 -8 49 -19 55 -25 5 -5 42 -11 80 -11 60 -2 65 -3 31 -8 -60 -11 -150 -7
-148 6 1 6 -25 14 -60 18 -34 4 -71 9 -82 11 -31 4 -75 23 -75 31 0 5 -14 9
-32 10 -20 2 -43 14 -62 32 -34 34 -31 46 8 32 23 -9 26 -8 26 9 0 21 34 28
45 10 4 -6 11 -8 16 -4 5 3 15 1 22 -5 17 -13 67 -22 67 -11 0 10 -29 22 -40
15 -5 -3 -11 -1 -15 5 -3 5 -14 10 -23 10 -9 0 -41 10 -70 22 -46 20 -56 30
-77 75 -21 42 -24 59 -17 85 l9 33 7 -47 c4 -25 16 -57 26 -70 38 -46 65 -68
80 -66 8 1 21 -1 28 -6 7 -4 15 -6 18 -3 5 5 -62 47 -75 47 -16 0 -30 49 -40
142 -8 77 -7 107 4 140 l13 43 1 -75 c1 -80 8 -120 21 -120 5 0 8 20 8 44 0
25 5 53 10 63 9 16 11 15 17 -9 4 -14 2 -35 -4 -46 -16 -30 -14 -62 5 -62 11
0 13 6 9 19 -7 22 3 71 15 71 4 0 10 -14 14 -31 6 -31 20 -48 61 -71 20 -11
20 -11 1 11 -11 12 -22 34 -23 49 -13 92 -13 122 -4 162 6 28 6 49 0 56 -11
13 22 94 46 114 25 20 17 34 -10 16 -28 -18 -65 -21 -65 -5 0 5 -5 7 -11 4 -6
-4 -8 -13 -5 -21 7 -17 -3 -44 -16 -44 -5 0 -7 10 -3 23 5 20 5 20 -9 -3 -8
-14 -13 -36 -10 -50 l4 -25 -10 24 c-6 13 -9 33 -8 45 2 11 -1 21 -7 21 -12 1
-34 -59 -30 -83 1 -9 0 -11 -2 -5 -12 36 -32 -4 -58 -117 -26 -110 -23 -104
-40 -86 -25 25 0 127 26 110 5 -3 9 4 9 15 0 12 -4 21 -8 21 -14 0 -12 48 3
60 12 10 15 10 15 -1 0 -19 48 49 60 85 6 18 24 39 42 49 21 12 28 21 20 26
-8 5 10 28 54 70 36 34 68 61 70 58 2 -2 -5 -13 -16 -24 -10 -12 -16 -24 -12
-29 4 -4 2 -4 -4 -1 -7 4 -14 1 -17 -6 -10 -25 24 -14 51 17 15 17 40 37 55
45 26 14 37 41 17 41 -22 0 -8 22 20 31 17 6 30 18 30 27 1 13 4 11 13 -5 11
-20 15 -21 32 -9 20 14 26 16 46 16 6 0 9 6 6 13 -2 6 -9 11 -15 10 -5 -1 -18
7 -27 17 -21 23 -37 26 -29 7 3 -8 -9 -20 -29 -29 -28 -13 -34 -14 -34 -2 0 8
7 14 16 14 12 0 13 2 2 13 -10 10 -16 7 -33 -13 -11 -14 -21 -23 -22 -21 -4
12 -66 -10 -66 -24 0 -8 -6 -15 -13 -15 -7 0 -28 -11 -47 -25 -18 -14 -35 -23
-37 -21 -2 1 16 24 38 49 29 32 57 51 91 63 45 15 61 38 18 27 -37 -10 -21 14
28 39 26 14 69 28 96 32 27 3 57 13 66 21 9 8 34 15 56 16 21 1 50 5 64 9 14
4 41 5 60 2 19 -3 42 -5 50 -4z m466 -10 c4 -6 -2 -7 -17 -3 -35 10 -45 23
-15 18 15 -3 29 -10 32 -15z m-1031 2 c3 -5 1 -10 -4 -10 -6 0 -11 5 -11 10 0
6 2 10 4 10 3 0 8 -4 11 -10z m205 6 c0 -11 -60 -34 -66 -25 -3 5 5 13 18 18
25 11 48 14 48 7z m630 -18 c0 -15 -3 -16 -19 -6 -22 13 -20 25 4 25 8 0 15
-9 15 -19z m-993 -12 c-6 -17 -21 -13 -25 6 -3 13 1 16 13 12 9 -4 14 -12 12
-18z m1267 -2 c24 -23 19 -26 -14 -9 -16 9 -30 18 -30 20 0 11 30 4 44 -11z
m-914 -9 c-7 -8 -17 -12 -22 -9 -6 4 -5 10 3 15 22 14 33 10 19 -6z m726 -10
c9 -8 25 -15 37 -15 13 0 49 -14 82 -31 65 -33 86 -49 67 -49 -17 0 -15 -27 2
-37 16 -9 101 -152 94 -158 -3 -3 -26 27 -52 65 -29 42 -55 70 -66 70 -10 0
-24 15 -34 38 -19 41 -61 98 -52 70 3 -10 1 -18 -4 -18 -17 0 -81 38 -102 59
-16 18 -16 21 -3 21 9 0 23 -7 31 -15z m259 -35 c3 -5 2 -10 -4 -10 -5 0 -13
5 -16 10 -3 6 -2 10 4 10 5 0 13 -4 16 -10z m-405 -30 c25 -8 48 -13 52 -12 3
1 12 -5 18 -13 9 -11 9 -15 1 -15 -6 0 -11 6 -11 13 0 8 -4 7 -10 -3 -7 -11
-10 -12 -10 -2 0 9 -7 11 -20 7 -13 -4 -20 -2 -20 6 0 7 -3 10 -6 6 -10 -10
-61 13 -61 28 0 9 5 11 11 7 6 -5 31 -15 56 -22z m-895 1 c-3 -6 -11 -11 -17
-11 -6 0 -6 6 2 15 14 17 26 13 15 -4z m125 -6 c-20 -24 -75 -55 -103 -57 -20
-2 -32 -14 -54 -58 -20 -39 -29 -49 -31 -36 -8 37 21 97 61 128 37 30 40 30
52 14 11 -15 15 -15 22 -3 8 15 28 25 52 26 11 1 11 -2 1 -14z m76 6 c-3 -4
-30 -23 -61 -42 -37 -22 -51 -36 -42 -41 8 -6 0 -18 -28 -43 -51 -43 -80 -47
-39 -4 16 17 28 38 27 47 -2 12 20 28 70 54 84 42 80 40 73 29z m1304 -12 c0
-6 -4 -7 -10 -4 -5 3 -10 11 -10 16 0 6 5 7 10 4 6 -3 10 -11 10 -16z m-397
-14 c9 -11 19 -15 27 -10 8 5 11 4 7 -3 -10 -14 2 -42 18 -42 7 0 23 -15 35
-32 16 -24 20 -27 15 -10 -4 12 -4 22 -2 22 3 0 35 -45 72 -100 37 -55 71 -97
77 -94 5 3 3 16 -6 30 -9 13 -16 34 -16 46 0 13 -9 37 -20 53 -11 17 -20 37
-20 45 1 11 4 9 12 -5 6 -11 14 -22 17 -25 8 -6 37 -66 52 -105 6 -16 13 -52
15 -80 2 -27 3 -54 4 -60 0 -5 4 -4 9 4 7 11 10 9 16 -8 3 -11 11 -21 16 -21
12 0 12 0 -6 50 -23 65 -17 92 7 30 23 -62 26 -105 9 -168 -10 -36 -15 -41
-26 -32 -8 7 -19 9 -25 5 -5 -3 -13 2 -17 11 -4 10 -2 19 5 22 12 4 5 32 -8
32 -5 0 -12 -9 -15 -20 -3 -11 -11 -20 -17 -20 -6 0 -7 9 -3 23 4 12 7 34 7
50 -1 15 3 27 8 27 6 0 10 12 10 26 0 14 -4 23 -10 19 -5 -3 -10 -2 -10 4 0 5
3 11 8 14 4 2 1 2 -5 1 -7 -2 -25 18 -40 44 -15 26 -37 60 -50 75 -13 16 -21
33 -18 38 11 17 -14 46 -37 45 -24 -2 -68 29 -68 48 0 6 -16 28 -35 50 -19 21
-35 40 -35 41 0 10 32 -4 43 -20z m367 -15 c0 -5 -2 -10 -4 -10 -3 0 -8 5 -11
10 -3 6 -1 10 4 10 6 0 11 -4 11 -10z m-210 -15 c7 -8 9 -15 6 -15 -4 0 -14 7
-22 15 -9 8 -11 15 -6 15 5 0 15 -7 22 -15z m-965 -15 c-4 -6 -10 -8 -15 -5
-5 3 -11 1 -15 -5 -4 -6 -10 -8 -15 -5 -4 3 -32 -20 -61 -50 -56 -57 -79 -68
-76 -37 0 10 10 19 21 20 11 0 27 10 36 21 25 33 82 71 108 71 13 0 20 -4 17
-10z m1080 0 c3 -5 1 -10 -4 -10 -6 0 -11 5 -11 10 0 6 2 10 4 10 3 0 8 -4 11
-10z m125 -6 c0 -8 -5 -12 -10 -9 -6 4 -8 11 -5 16 9 14 15 11 15 -7z m-53
-31 c14 -33 17 -35 23 -18 6 17 8 15 15 -13 4 -18 4 -36 1 -39 -3 -4 -6 -1 -6
6 0 7 -5 9 -10 6 -6 -4 -18 11 -28 34 -10 23 -22 39 -29 36 -7 -2 -10 2 -6 11
9 24 23 16 40 -23z m90 5 c-3 -7 -5 -2 -5 12 0 14 2 19 5 13 2 -7 2 -19 0 -25z
m-1536 -25 c-5 -10 -13 -27 -16 -38 -4 -11 -9 -15 -12 -8 -5 13 26 78 33 70 3
-3 1 -13 -5 -24z m846 5 c-20 -7 -39 -7 -60 0 -29 9 -27 10 28 10 53 0 57 -1
32 -10z m178 -3 c59 -11 69 -19 117 -87 40 -56 46 -71 51 -134 11 -136 -22
-114 -44 29 -14 86 -32 121 -59 112 -10 -3 -21 -1 -25 4 -11 18 -129 71 -157
71 -16 0 -28 3 -28 8 0 9 93 8 145 -3z m405 -38 c22 -36 26 -52 9 -41 -11 6 0
-15 46 -91 32 -52 32 -76 3 -72 -19 3 -28 19 -53 94 -16 49 -37 101 -46 114
-16 24 -16 25 3 26 12 1 26 -10 38 -30z m115 -3 c9 -22 12 -42 6 -51 -6 -11
-11 -3 -20 30 -12 51 -13 57 -6 57 3 0 12 -16 20 -36z m-385 -16 c31 -42 37
-58 21 -58 -5 0 -16 16 -25 35 -9 19 -21 37 -26 40 -10 6 -14 25 -5 25 3 0 18
-19 35 -42z m-1070 12 c0 -4 -7 -13 -15 -20 -11 -9 -15 -9 -15 -1 0 7 -5 9
-12 5 -10 -6 -10 -5 -1 7 13 16 43 22 43 9z m917 -15 c45 -27 55 -45 25 -45
-10 0 -33 16 -52 35 -40 41 -33 44 27 10z m-1042 -25 c-10 -11 -13 -20 -7 -20
15 0 0 -42 -16 -48 -15 -5 -16 14 -2 23 6 3 10 11 10 16 0 6 -5 7 -10 4 -6 -4
-5 5 2 19 6 14 18 26 26 26 12 0 12 -4 -3 -20z m1532 -2 c-3 -8 -6 -5 -6 6 -1
11 2 17 5 13 3 -3 4 -12 1 -19z m-1478 -15 c-11 -14 -8 -14 10 2 l24 20 -7
-20 c-10 -27 -49 -85 -58 -85 -4 0 -5 8 -2 18 3 9 -4 2 -16 -16 -16 -23 -19
-36 -12 -45 7 -8 5 -19 -9 -36 -11 -13 -22 -22 -24 -19 -9 9 17 111 31 126 8
7 26 29 41 48 14 19 28 32 31 30 3 -3 -1 -14 -9 -23z m1106 -45 c10 -43 -1
-46 -39 -9 -27 26 -32 36 -23 46 18 19 55 -3 62 -37z m165 -42 c0 -5 -7 -3
-15 4 -8 7 -15 20 -15 28 0 13 3 12 15 -4 8 -10 15 -23 15 -28z m257 18 c-9
-9 -28 6 -21 18 4 6 10 6 17 -1 6 -6 8 -13 4 -17z m20 -31 c-3 -10 -5 -2 -5
17 0 19 2 27 5 18 2 -10 2 -26 0 -35z m-30 -5 c-3 -8 -6 -5 -6 6 -1 11 2 17 5
13 3 -3 4 -12 1 -19z m-402 -32 c0 -36 -18 -44 -32 -14 -13 29 -6 50 16 46 10
-2 16 -13 16 -32z m139 -21 c1 -26 -3 -44 -9 -42 -5 2 -10 8 -11 13 0 5 -4 22
-9 38 -5 20 -4 31 6 37 19 11 22 5 23 -46z m-51 20 c4 -8 2 -17 -3 -20 -6 -4
-10 3 -10 14 0 25 6 27 13 6z m302 -52 c-3 -20 -9 -40 -14 -43 -5 -3 -12 -20
-16 -37 -3 -18 -11 -36 -17 -39 -8 -5 -9 1 -4 17 4 13 9 39 13 57 3 17 10 32
15 32 5 0 6 5 3 10 -6 10 11 40 22 40 2 0 2 -17 -2 -37z m-375 -3 c0 -11 -4
-20 -9 -20 -5 0 -7 9 -4 20 3 11 7 20 9 20 2 0 4 -9 4 -20z m170 -20 c0 -13
-1 -13 -10 0 -5 8 -10 22 -10 30 0 13 1 13 10 0 5 -8 10 -22 10 -30z m-210
-10 c0 -11 -4 -20 -9 -20 -5 0 -7 9 -4 20 3 11 7 20 9 20 2 0 4 -9 4 -20z m66
-17 c20 -26 18 -36 -21 -100 -19 -32 -35 -62 -35 -68 0 -5 12 9 26 33 26 44
50 48 40 6 -5 -17 -2 -24 7 -24 19 0 43 30 51 64 4 17 16 42 27 57 10 15 19
33 19 41 0 23 20 -15 20 -39 0 -13 5 -23 10 -23 6 0 10 -12 10 -27 0 -26 1
-26 14 -7 22 30 30 9 10 -25 -20 -33 -13 -51 11 -31 8 7 15 9 15 4 0 -5 9 2
20 16 28 35 25 7 -5 -57 -17 -38 -30 -53 -44 -53 -11 0 -38 -18 -60 -40 -46
-46 -61 -52 -37 -15 9 14 13 25 9 25 -4 0 4 8 17 17 14 10 28 17 31 16 12 -4
64 46 56 54 -5 4 -15 0 -22 -10 -9 -12 -15 -15 -20 -7 -5 8 -11 5 -21 -7 -16
-22 -18 -10 -3 19 6 11 9 22 6 24 -2 2 -14 -16 -27 -41 -23 -45 -34 -53 -45
-35 -3 5 -12 7 -20 4 -9 -4 -12 0 -10 13 2 10 4 22 4 27 1 5 4 7 7 3 8 -7 24
8 49 46 29 45 8 44 -34 -2 -30 -33 -44 -41 -60 -36 -11 3 -29 1 -40 -4 -29
-16 -32 6 -9 85 11 38 22 79 25 92 6 27 12 27 29 5z m-58 -57 c-12 -44 -28
-62 -28 -31 0 22 29 89 35 83 3 -3 0 -26 -7 -52z m-42 -25 c-10 -33 -11 -34
-17 -10 -4 13 -7 18 -8 10 -1 -8 -3 -12 -6 -9 -3 3 2 22 12 42 14 30 19 34 24
19 3 -9 1 -33 -5 -52z m-996 12 c-11 -17 -11 -17 -6 0 3 10 6 24 7 30 0 9 2 9
5 0 3 -7 0 -20 -6 -30z m1477 -5 c-3 -7 -5 -2 -5 12 0 14 2 19 5 13 2 -7 2
-19 0 -25z m-519 -40 c-2 -6 -12 -12 -21 -14 -9 -1 -15 2 -11 7 3 5 10 7 15 4
5 -4 9 -1 9 4 0 6 3 11 6 11 3 0 4 -5 2 -12z m482 -2 c0 -3 -4 -8 -10 -11 -5
-3 -10 -1 -10 4 0 6 5 11 10 11 6 0 10 -2 10 -4z m-438 -38 c-7 -7 -12 -8 -12
-2 0 14 12 26 19 19 2 -3 -1 -11 -7 -17z m-773 -102 c-1 -15 -38 66 -39 84 0
8 9 -5 20 -29 11 -24 20 -48 19 -55z m1237 36 c-4 -3 -12 0 -18 6 -9 9 -9 12
0 12 7 0 13 8 13 18 1 10 3 8 6 -6 3 -13 2 -26 -1 -30z m-1176 -50 c-12 -4
-50 26 -50 40 0 5 14 -2 31 -14 16 -12 25 -24 19 -26z m788 -9 c-15 -18 11
-17 36 2 28 21 39 19 19 -3 -10 -11 -21 -17 -24 -16 -3 2 -17 -8 -30 -23 l-24
-26 42 24 c23 13 39 27 37 31 -3 5 2 8 12 8 14 0 14 -2 3 -16 -7 -9 -14 -27
-15 -39 0 -13 -15 -40 -31 -60 -38 -45 -141 -115 -159 -108 -8 3 -14 1 -14 -4
0 -12 -67 -49 -75 -41 -3 3 21 30 53 59 56 53 99 105 51 63 -63 -55 -45 -28
29 45 63 62 76 80 57 75 -32 -8 -32 2 3 35 26 25 52 20 30 -6z m202 30 c-1
-14 -49 -63 -61 -63 -6 0 2 15 18 34 27 33 43 44 43 29z m103 -37 c-10 -19
-21 -36 -25 -36 -4 0 2 18 13 40 26 50 37 47 12 -4z m-59 9 c-4 -8 -10 -15
-15 -15 -4 0 -6 7 -3 15 4 8 10 15 15 15 4 0 6 -7 3 -15z m-971 -52 c-7 -2
-21 -2 -30 0 -10 3 -4 5 12 5 17 0 24 -2 18 -5z m287 -3 c-8 -5 -24 -10 -35
-10 -17 0 -17 2 -5 10 8 5 24 10 35 10 17 0 17 -2 5 -10z m580 6 c0 -2 -7 -7
-16 -10 -8 -3 -12 -2 -9 4 6 10 25 14 25 6z m47 -28 c2 -18 0 -20 -7 -8 -12
18 -13 30 -2 30 4 0 9 -10 9 -22z m-267 8 c0 -2 -7 -9 -15 -16 -13 -11 -14
-10 -9 4 5 14 24 23 24 12z m-1146 -22 c9 -3 16 -11 16 -16 0 -7 -5 -6 -13 1
-8 6 -16 8 -19 5 -3 -3 -9 -1 -13 5 -7 12 5 14 29 5z m1346 -26 c-1 -15 -49
-53 -56 -45 -4 4 45 57 53 57 2 0 3 -6 3 -12z m170 -7 c0 -6 -4 -13 -10 -16
-5 -3 -10 1 -10 9 0 9 5 16 10 16 6 0 10 -4 10 -9z m-475 -31 c0 -7 -6 -15
-14 -18 -8 -3 -11 0 -7 7 9 13 -4 14 -36 2 -16 -6 -27 -5 -35 5 -10 10 -9 13
5 16 39 8 87 1 87 -12z m552 -2 c-3 -8 -6 -5 -6 6 -1 11 2 17 5 13 3 -3 4 -12
1 -19z m-166 -36 c-6 -11 -22 -23 -35 -26 -14 -3 -35 -16 -47 -29 -12 -12 -20
-16 -18 -9 4 13 101 92 107 87 2 -2 -1 -12 -7 -23z m-611 -2 c0 -5 -7 -10 -15
-10 -8 0 -15 5 -15 10 0 6 7 10 15 10 8 0 15 -4 15 -10z m666 -72 c-27 -40
-36 -47 -36 -31 0 12 6 28 14 35 7 8 22 30 32 48 13 26 19 30 22 18 2 -9 -13
-41 -32 -70z m111 20 c-3 -7 -5 -2 -5 12 0 14 2 19 5 13 2 -7 2 -19 0 -25z
m-687 12 c0 -5 -4 -10 -9 -10 -6 0 -13 5 -16 10 -3 6 1 10 9 10 9 0 16 -4 16
-10z m270 -24 c0 -2 -7 -7 -16 -10 -8 -3 -12 -2 -9 4 6 10 25 14 25 6z m346
-34 c1 -20 -1 -29 -3 -19 -5 19 -23 24 -23 5 0 -6 -3 -8 -6 -5 -6 5 21 57 29
57 1 0 2 -17 3 -38z m-397 -15 c-11 -23 -35 -37 -67 -37 -7 0 -10 5 -7 10 3 6
14 10 24 10 10 0 26 12 36 26 20 32 30 26 14 -9z m-113 -12 c-22 -16 -57 -21
-40 -6 7 8 29 15 54 20 3 0 -4 -6 -14 -14z m541 -27 c-3 -7 -5 -2 -5 12 0 14
2 19 5 13 2 -7 2 -19 0 -25z m-990 -44 c-3 -3 -12 -4 -19 -1 -8 3 -5 6 6 6 11
1 17 -2 13 -5z m448 -4 c-7 -12 -305 -12 -380 0 -33 5 23 8 168 9 143 1 216
-2 212 -9z"/>
<path d="M540 1270 c-12 -8 -10 -10 8 -10 13 0 20 4 17 10 -7 12 -6 12 -25 0z"/>
<path d="M492 1245 c-11 -13 -9 -15 15 -15 15 0 35 5 43 10 13 8 13 10 -2 10
-9 0 -22 2 -30 5 -7 2 -19 -2 -26 -10z"/>
<path d="M878 1233 c7 -3 16 -2 19 1 4 3 -2 6 -13 5 -11 0 -14 -3 -6 -6z"/>
<path d="M757 1193 c-4 -6 18 -8 51 -6 44 2 52 1 35 -7 -13 -5 -23 -11 -23
-12 0 -2 55 -4 123 -5 108 -1 119 0 92 12 -37 16 -270 31 -278 18z"/>
<path d="M522 1118 c-8 -10 -3 -13 19 -12 43 2 45 3 29 14 -20 13 -36 12 -48
-2z"/>
<path d="M659 1113 c-12 -15 -12 -16 4 -10 10 4 23 7 28 7 6 0 7 5 4 10 -9 15
-21 12 -36 -7z"/>
<path d="M481 1014 c0 -11 3 -14 6 -6 3 7 2 16 -1 19 -3 4 -6 -2 -5 -13z"/>
<path d="M802 1003 c-6 -2 -10 -9 -6 -14 3 -5 -17 -9 -45 -9 -40 0 -51 -4 -51
-16 0 -8 -5 -12 -10 -9 -12 7 -80 -32 -80 -46 0 -9 90 30 101 43 17 23 296 -1
323 -27 6 -7 23 -16 36 -20 35 -11 70 -46 70 -70 0 -12 5 -26 11 -32 8 -8 8
-17 -1 -32 -6 -12 -8 -27 -4 -33 4 -6 3 -8 -3 -5 -13 8 -55 -22 -47 -34 3 -5
-2 -21 -10 -34 -9 -14 -13 -25 -10 -25 4 0 -8 -10 -27 -23 -50 -33 -147 -74
-221 -94 l-66 -17 -99 40 -98 39 -3 54 c-2 34 3 66 13 88 17 35 17 78 1 78
-14 0 -37 -75 -39 -127 -1 -27 -5 -48 -9 -48 -13 0 -9 -28 7 -43 8 -8 11 -17
8 -21 -11 -10 31 -36 49 -30 11 3 27 -4 42 -19 13 -13 36 -28 52 -34 35 -14
122 -15 130 -2 3 5 18 9 33 9 15 0 38 9 50 19 13 11 36 23 52 26 16 4 29 11
29 16 0 5 8 9 18 9 10 0 29 11 41 24 13 14 45 33 72 42 42 16 49 22 49 45 0
23 4 26 21 22 19 -5 20 -3 13 32 -5 27 -3 40 7 46 11 6 6 24 -26 88 -22 45
-46 81 -54 81 -8 0 -33 16 -57 35 -46 38 -107 48 -118 20 -3 -9 0 -15 9 -15 7
0 16 -4 19 -9 3 -4 -6 -6 -19 -3 -14 2 -25 11 -25 19 0 12 -7 14 -32 8 -44
-10 -89 -16 -63 -9 35 10 41 24 10 23 -17 0 -36 -3 -43 -6z m223 -33 c3 -5 -1
-10 -9 -10 -9 0 -16 5 -16 10 0 6 4 10 9 10 6 0 13 -4 16 -10z m107 -290 c-4
-29 -42 -65 -42 -40 0 9 40 70 45 70 1 0 0 -14 -3 -30z"/>
<path d="M440 990 c-8 -5 -10 -10 -5 -10 6 0 17 5 25 10 8 5 11 10 5 10 -5 0
-17 -5 -25 -10z"/>
<path d="M748 993 c7 -3 16 -2 19 1 4 3 -2 6 -13 5 -11 0 -14 -3 -6 -6z"/>
<path d="M537 976 c-3 -7 -16 -16 -29 -19 -22 -6 -22 -5 -4 8 18 13 17 14 -13
10 -18 -2 -43 -11 -57 -20 -24 -16 -32 -35 -14 -35 6 0 10 -7 10 -16 0 -18 -4
-19 78 25 34 19 62 37 62 41 0 14 -28 19 -33 6z"/>
<path d="M317 959 c-20 -23 -18 -33 6 -23 9 3 15 14 14 25 -1 10 -2 19 -2 19
0 0 -9 -9 -18 -21z"/>
<path d="M774 908 c-29 -5 -59 -17 -68 -27 -15 -17 -13 -17 51 -4 70 15 114
13 171 -5 25 -8 32 -8 32 3 0 12 -22 19 -115 39 -11 2 -43 0 -71 -6z"/>
<path d="M1006 848 c3 -24 7 -49 10 -55 5 -17 34 -16 34 1 0 9 8 12 25 8 14
-2 25 -9 25 -15 0 -6 2 -8 5 -5 8 8 -17 58 -26 52 -4 -2 -22 9 -39 26 -17 16
-33 30 -35 30 -3 0 -3 -19 1 -42z"/>
<path d="M805 848 c-22 -6 -53 -16 -70 -24 -28 -14 -27 -14 35 -9 36 3 80 1
99 -5 24 -6 38 -6 47 1 19 16 32 3 26 -26 -3 -17 -9 -24 -18 -21 -8 3 -14 1
-14 -4 0 -6 -6 -10 -13 -10 -19 0 -53 -27 -45 -35 12 -12 70 14 103 47 44 43
32 78 -27 78 -16 0 -28 5 -28 10 0 12 -40 11 -95 -2z"/>
<path d="M387 808 c-22 -54 -16 -60 8 -8 10 22 16 42 13 45 -3 3 -12 -14 -21
-37z"/>
<path d="M673 762 c-25 -31 -22 -43 5 -19 10 10 24 17 30 17 16 0 15 17 -1 23
-7 3 -22 -7 -34 -21z"/>
<path d="M1040 732 c-11 -13 -20 -30 -20 -36 0 -6 -25 -27 -55 -46 -30 -19
-54 -38 -55 -42 0 -12 28 -10 35 2 3 6 14 10 23 10 9 0 28 12 41 25 13 14 28
25 33 25 6 0 7 7 4 16 -4 10 4 21 24 32 39 22 45 40 14 40 -14 0 -33 -11 -44
-26z"/>
<path d="M982 733 c-13 -3 -21 -10 -19 -16 2 -6 -17 -22 -42 -35 -39 -20 -54
-23 -101 -18 -30 4 -58 12 -62 19 -6 9 -10 8 -18 -3 -16 -24 -13 -45 4 -31 11
9 16 9 21 0 4 -6 1 -15 -6 -20 -19 -12 75 -4 130 11 24 6 53 22 65 34 11 12
29 25 39 29 9 3 17 13 17 22 0 8 -1 14 -2 14 -2 -1 -13 -4 -26 -6z"/>
<path d="M640 675 c0 -5 5 -17 10 -25 5 -8 10 -10 10 -5 0 6 -5 17 -10 25 -5
8 -10 11 -10 5z"/>
<path d="M840 596 c-19 -6 -40 -14 -47 -19 -6 -4 -15 -2 -20 5 -5 9 -21 11
-48 8 l-40 -6 45 -13 c60 -18 181 4 165 29 -7 12 -9 12 -55 -4z"/>
<path d="M322 408 c3 -7 13 -15 24 -17 16 -3 17 -1 5 13 -16 19 -34 21 -29 4z"/>
<path d="M843 351 c-51 -15 -77 -39 -30 -27 33 8 97 35 97 41 0 7 -6 5 -67
-14z"/>
<path d="M316 252 c-3 -6 4 -16 16 -23 22 -12 22 -12 3 -20 -15 -5 -11 -7 15
-7 20 1 46 -4 58 -11 21 -11 42 -8 42 7 0 7 -71 32 -91 32 -7 0 -17 7 -24 17
-8 11 -14 12 -19 5z"/>
<path d="M258 238 c9 -9 15 -9 24 0 9 9 7 12 -12 12 -19 0 -21 -3 -12 -12z"/>
<path d="M710 190 c19 -13 30 -13 30 0 0 6 -10 10 -22 10 -19 0 -20 -2 -8 -10z"/>
<path d="M1294 378 l-19 -23 25 20 c14 11 27 21 29 22 2 2 0 3 -6 3 -5 0 -18
-10 -29 -22z"/>
<path d="M1256 294 c-5 -14 -4 -15 9 -4 17 14 19 20 6 20 -5 0 -12 -7 -15 -16z"/>
<path d="M1960 1113 c0 -35 14 -60 24 -44 9 15 -3 71 -15 71 -5 0 -9 -12 -9
-27z"/>
</g>
</svg>
