<?xml version="1.0" encoding="UTF-8"?>
<svg id="Capa_1" data-name="Capa 1" xmlns="http://www.w3.org/2000/svg" viewBox="0 0 630.91 329.82">
  <path d="M550.04,216.28c-1-4.47-7.33-12.05-12.49-10-.68-3.5.99-2.14,3.54-2.63l1.35-5.59c4.91-2.67,4.57,2.72,8.85,1.99.39,2.27-2.2.69-3.43,1.49-.84.54-1.7,3.58-1.56,4.74,2.57,2.34,23.56-8.46,16.26-13.11l1.2-1.27c5.27.97,10.13-6.78,13.74-2.48l-14.96,12.51c-2.31,5.74,10-3.13,10.62-3.11.77.03,2.48,1.97,1.27,3.74s-6.56,3.54-5.64,8.72c1.29,1.21,10.17-4.91,9.97-.62-.02.49-2.49,1.91-3.08,3.18-.72,1.56-.5,4.68-.7,4.88-.6.6-10.67-1.46-9.94,5.03,5.08,2.59,11.66,3.33,14.37,8.76,2.89,1.42,1.71-5.86,6.26-6.3,9.86-.95,11.55,16.16,11.89,23.24.2,4.13-.02,11.53-.03,16.2,0,6.13-3.18,11.17-9.58,11.48-8.41.41-6.42-8.35-8.56-8.35l-5.62,10.57c2.28,3.63,3.08-.55,5.61-.59,1.94-.03,4.44,2.36,7.53,2.58,4.18.3,8.07-2.49,11.83-.72,10,4.7-9.47,7.81-13.11,8.1-7.01.56-24.53-2.4-28.52-1.02-2.71.93-4.17,6.96-4.74,9.62l-12.2,2.53-2.07-6.23,4.44-4.87-5.13.72c-.4,6.59-3.82,7.05-9.85,6.76-1.13-3.36,4.68-4.6,5.02-5.61.48-1.45.7-3.49-1.91-3.15-2.43.32-10.74,6.02-12.76,7.87-1.12,1.02-.88,3.12-1.47,3.87-1.28,1.61-5.71-.4-3.87,3.89.52,1.2,1.88,1.66,3.11,1.88,11.76,2.14,28.03-2.43,40.12,1.13l52.98-2.38-1.26-12.49-4.12.02c-3.53-4.65,1.64-3.32,3.58-4.91,2.72-2.23,2.23-11.98,1.51-15.45s-5.09-7.06-4.79-10.23c.21-2.18,2.63-3.36,3.5-5.39,2.51-5.89-.4-21.24-.79-28.2l3.6-2.06,3.12,8.72,3.77-2.44c4.64,3.72.11,9.19-.02,13.04-.15,4.56,2.32,29.35.61,30.66l-2.47-1.26c-1.81,4.16,2.31,5.19,2.46,5.86.87,3.73.87,29.47-.22,33.25-1.92,6.63-7.28.57-10.67-.08-15.43-2.95-34.48.99-49.74.37-62.82-2.53-123.94,2.06-186.17,1.92-57.95-.13-118.62-.71-177.34-.02-51.59.61-103.35,5.27-154.86,3.58-6.28-.21-13.23-2.79-20.01-.09-5.97-1.34-2.99-21.58-3.18-26.71-2.48-67.63,2.96-134.66,4.99-202.31.72-24.13-1.08-48.29,1.37-72.35.93-2.77,10.3-3.85,13.3-4.2,12.55-1.46,24.75,1.28,37.16,1.85,8.58.39,28.25-1.35,34.71.27,1.44.36.99,3.56,3.97,3.86s7.1-2.65,11.26-2.67,8.27,2.56,11.31,2.45c2.3-.09,4.33-2.19,7.41-2.4,42.73-2.91,86.49,4.65,128.81,3.87,2.91-.05,4.49-2.59,6.18-2.58,1.09,0,5.9,1.29,9.99,1.49,6.19.3,13.12,3.83,10.63-6.48h8.11s-3.73,7.51-3.73,7.51c4.89-1.83,9.46.41,14.97-.03,68.84-5.5,138.18-2.08,207.38,1.31,16.92.83,34.18.55,51.24,1.26,9.12.38,33.25-4.3,38.85-.12,6.85,5.11,3.01,14.35,2.98,20.64-.07,15.06-1.33,30.62-1.29,45.03.02,7.86,4.09,13.68-2.4,21.23l3.85,1.32,1.16,86.78c-6.12-.21-3.06-8.64-3.81-13.04-.57-3.36-3.34-6.42-3.67-11.35-.83-12.54,4.01-24.45,2.17-37.13-.68-4.69-4.46-9.49-4.66-11.62-.32-3.54,0-21.56.28-25.89.34-5.42,4.47-9.83.71-16.36-.93-1.62-3.09-1.71-3.49-2.99-.71-2.26-.05-6.85-1.24-9.63,1.12-3.38,5.6,1.34,5-2.58-.5-3.24-3.45-4.88-3.86-8.71-.48-4.45,2.3-9.98,1.39-13.52-.39-1.52-4.32-1.43-3.88-3.98l5.08-7.49c-1.15-1.81-2.44-1.74-4.31-1.95-8.55-.98-19.84.3-28.85.12-18.78-.37-37.4-1.94-56.19-2.55-42.79-1.38-84.34-.72-127.49-1.21-6.9-.08-17.31,1.19-22.29.79-2.41-.19-4.96-2.26-7.7-2.21s-1.55,3.28-4.91,3.9c-5.4,1-11.54-1.1-16.29-1.03-28.8.46-57.39,2.33-86.17.95-27.52-1.32-56.38-5.06-83.83-3.77-19.32.91-39.92.11-59.85.13-22.49.02-49.38-3.79-70.95,4.02-4.15,1.5-5.24,2.24-4.7,7.16l12.93-3.83c3.55.74-.43,9.57-2.94,10.78-1.56.75-9.24-1.69-12.35.69l-.14,6.11c4.18,1.79,6.88-3.81,9.36-3.81,1.26,0,7.92,4.7,8.12,6.9-.62,2.87-12.31,6.33-14.37,1.92-3.24,1.35-.88,6.69,1.45,7.34,2.54.71,10.55-3.5,14.21.8l-4.66,8.13-12.86-2.56c-1.3,17.72,6.69,6.22,8.8,6.74,4.38,1.92,7.04,5.62,3.18,9.62-3.73,2.95-8.9-.94-13.23-.12v7.5c4.56-2.07,7.86-3.52,12.84-.96,5.49,2.82-1.77,9.26-4.92,9.5-1.8.14-4.88-3.57-7.91-2.29v10c3.59,3.45,12.58-10.5,17.37,3.25,1.02,2.92-4.84,1.69-5.96,5.07-1.86,5.57,3.64,7.08,3.63,9.77,0,2.19-3.15,3.14-2.55,5.63,3.09-.97,7,1.27,9.43,1.13,1.88-.11,3.15-2.14,4.99-2.32,3.73-.36,22.09-.29,23.7,2.42l-.64,36.26h-27.49l-.58-32.55c-6.47-4.48-9.3,6.86-11.46,7.49-3.39.98-8.38-6.91-12.82-3.54-.26,2.26-.95,10.54,1.76,11.1l4.92-3.83,9.47,1.92c2.39,1.67,1.1,6.97-.34,9.12-6.52,4.65-9.78-2.09-15.94-2.2,1,2.63-2.7,10.65.65,11.25,5.15-4.41,20.69-2.61,13.53,4.81-7.28,7.54-6.89,1.27-14.17.18l-.07,8.17c3.13,1.81,14.35-1.16,15.07,2.49s-6.5,9.33-10.47,7.98c-2.08-.7-1.41-5.15-5.77-3.64l-.65,12.51c2.78,3.39,4.02-1.54,6.53-2.29,4.8-1.45,9.52,2.37,9.11,7.27l-10.55,3.85-3.81-3.83c-2.88.6-1.74,8.92-1.89,11.23,5.88-2.01,8.7-4.08,14.68-.36,4.38,2.72-.57,8.42-4.36,8.95-3.78.53-6.1-4.15-9.67-4.84-2.35.48-2.28,7.26-1.9,9.37,1.14,6.29,10.2-.57,14.86.76l2.63,6.77-3.11,4c-4.53-2.36-9.16-4.02-14.39-3.41l.59,12.54c3.02,3.31,4.13-2.11,7.6-2.58,2.18-.29,4.66.61,6.63,1.48.25,3.98,1.7,8.7-2.86,9.66-5.59,1.18-7.13-3.71-11.94-3.6l-1.16,11.14c5.06,2.6,9.33.85,14.28.37,1.41-.14,3.31,1.26,4.8.86s6.29-9.22,10.8-8.64c.51-3.42-.36-1.91-1.84-2.49-3.17-1.24-7.37-.86-8.22-5.67-.34-3.71,3.43-4.9,3.51-6.16.06-.99-1.86-2.61-1.96-4.02-.22-3.1,1.39-6.67-.22-10.36h10s0-3.75,0-3.75l-7.52-.62c-5.96-3.49.01-9-.19-11.04-.34-3.36-4.99-4.6,1.43-8.95-7.2-5.97-3.3-9.17,5.02-8.13-1.36-3.86-7.51-.36-8.65-4.56-.54-1.98,2.01-9.55,4.88-9.8-2.5-2.38-5.91-2.54-4.98-6.86l16.26-1.87-5,5,4.83,6.03c-7.1,6.67-.98,11.16-1,15.12,0,.62-5.32,2.07-5.05,6.35.11,1.77,2.1,2.94,2.26,3.97.27,1.66-2.38,2.9-2.14,4.53.17,1.14,2.21,2.42,2.63,3.73,1.76,5.58,1.82,23.95.78,29.94-.49,2.82-3.84,4.17-3.56,7.16,7.03.31,7.09-9.47,13.73-8.73,1.22,7.4-8.07,10.22-9.98,16.23,7.01,3.71,13.6-10.65,15.63-11.24,3.07-.9,2.86,3.48,1.85,4.99,4.74,1.25,10.42-3.5,13.72.62-2.4,2.43-1.59,7.88-5.81,7.99-3.04.08-1.73-3.65-4.74-3.72-3.79-.08-14.84,4.94-19.05,6.12l-6.01-3.23-6.86,3.47,3.13,4.96,3.92-3.64,6.69,5.56c-1.53,6.41-6.46,1.4-9.52.96-1.44-.21-3.24,1.04-4.79.87-2.02-.23-3.41-2.46-5.08-2.51-2.54-.07-3.45,4.14-7.37,3.81-5.28-.44-6.01-7.07-10.72-7.52l2.44,16.98c5.57,1.46,12.45-5.99,16.94-2,4.85,4.31-2.77,6.67-1.88,11.26l13.79-1.83,1.05-1.39c-3.44-10.72,1.88-11.58,9.49-5.52l3.75-4.96,3.78,2.42,3.89-4.89c5.25-1.62,5.45,6.5,5.14,9.57-.65,6.58-7.34.31-8.8.56-2.38.41-5.53,6.02-7.14-1.45h-1.83c-3.87,4.09-7.28,4.57-8.1,10.7-1.03.85-11.24-3.72-10.03,1.78,13.78-.61,28.14.84,41.86.02,6.5-.39,14.79-2.69,20.82-4.17,9.8-2.41,21.48.4,31.59.48,49.21.39,97.99,5.53,147.37,2.3,38.51-2.52,78.8-1.69,117.64-3,2.15-.07,3.88,1.84,6.89,1.37,3.69-.57,11.3-9.31,13.67-12.62,1.55-2.16,3.55-3.78.64-5.59-4.27,4.27-11,.35-15.06.05-4.55-.34-9.24.33-13.67-.09-5.19-.49-11.7-4.87-15.61-.61l7.47,5.62c-7.37,2.1-14.34-8.97-18.16.06h-2.41s-4.02-4.88-4.02-4.88l-9.14-.19c-1.34-3.83,4.01-2.59,4.83-3.9-.26-6.07.25-9.93,3.92-14.81l-9.98-2.51c-.37,2.73-2.4,14.19-6.87,12.49-2.5-.96.06-9.91-3.05-14.13-.96-1.3-8.48-5.22-10.18-7.85l5.08-9.24c-4.67-2.05-9.4,5.63-8.85,9.2.19,1.24,3.97,1.23,4.87,4.15,1.43,4.61-1.19,11.54,1.13,16.36,1.66,3.44,5.34,2.13,6.59,5.26l-12.54-.51c-3.08-2.98.29-7.01.05-10.07-.44-5.6-6.68-3.62-9.98-5.04-.54-.23-7.11-6.62-6.16-.12.4,2.72,8.27,7.49,4.93,13.17,4.03,1.03,4.65.45,4.87,4.5l26.34.6c-2,3.29-9.41,3.69-13.06,3.79-6.11.16-12.1-1.93-17.58-1.36-3.45.36-5.81,2.2-9.9,2.62-19.71,2.02-42.8-4.42-61.33-2.6-2.94.29-5.9,2.53-6.23,2.5-1.09-.11-1.28-3.38-2.73-3.74-1.78-.45-6.35-.13-8.56-.02-16.8.88-54.57,8.37-67.62-4.12-5.99-5.74-2.8-8.61-2.86-14.01-.02-2.28-1.11-4.35-1.07-6.19.11-4.7,1.77-10.71,1.57-15.68-.83-2.29-18.1-9.73-22.07-17.79-2.12-4.3-2.72-18.05-.3-22.08.87-1.45,11.46-10.67,13.68-12.56,2.33-1.98,5.48-2.35,7.53-5.05.92-1.21,3.07-14.85,3.13-16.87.27-9.27-4.4-19.53-3.76-32.4,1.22-24.31,2.26-41.78-1.2-66.31-.56-4,.45-8.23-.24-12.25-.98-2.95-4.33-1.8-6.62-2.04-3.67-5.29,7.29-5.88,11.3-6.14,6.91-.44,15.41-1.3,22.42-1.41,6.08-.1,10.61,4.39,15.1,4.66,21.03,1.24,42.24-1.93,63.72-3.2,10.21-.6,20.72-.11,30.92-1.32,2.8.76,2.04,5.61,2.01,7.91l3.14.76c2.24-2.6,2.22-5.85.62-8.76l8.76-1.27c-4.74-9.26,5.73-8.45,2.5,0,7.84-.77,15.1.1,22.94,1.18l.79,5.08,6.25-.02-5-6.22c4.27.51,10.13-.92,14.11.25s3.27,6.66,7.13,6c-1.15-10.06,12.78-11.01,9.72.33-.37,1.38-1.93,2.16-2.21,2.81-1.26,2.99,4.03,2.46,5.57-.68.93-1.88.5-4.41,1.28-6.21,5.19-11.88,12.66-14.01,13.13,1.25,2.13.16,1.11-2.81,2.41-4.44,1.41-1.77,3.66-3.17,5.71-4.04,5.57.41,2.4,15.9-1.28,18.5l1.25,2.44,8.14-1.21c-4.03-9.76-3.1-26.84,9.37-13.77,3.47-4.07,6.29-6.89,11.57-3.42,2.63,3.8,1.92,10.5-1.59,13.41-5.8,4.8-12.44-10.6-11.7-2.03.38,4.48,14.83,15.35,19.84,14.56-2.73,6.24-6.14,6.1-5.01,14.29,6.13,4.48,11.45-11.09,9.42-14.29-.95-1.49-4.73-1.61-4.4-4.36l7.5,1.22c-.98-3.28-.88-17.78-4.39-18.08-3.31-.29.12,7.8-1.2,10.01-5.54,9.29-7.82-15.32-2.53-17.52l5.12,6.34c2.07-.24,4.02-1.25,6.12-1.34,7.04-.32,27.1-2.13,32.43-1.19,1.48.26,2.95.72,3.17,2.43-7.91-.42-10.88,1.62-17.47,4.43-4.31,1.84-8.44.1-10.01,8.07.69.67,12.57-5.3,14.69-5.93,9.76-2.93,25.82-5.49,35.45-3.42,2.75.59,6.54,5.98,9.53,6.65,2.6.58,4.69-1.15,6.93-.83,4.17.6,6.46,5.86,14.99,3.29,2.17-.65,7.77-8.2,7.77.28-3.53,4.84-8.32.97-13.14,1.23v4.99c6.24-2.82,5.02.95,8.09,3.78,6.59,6.05,4.12-5.7,10.64.62.68,3.12-10.08,5.88-12.48,4.36-1.22,4.45,4.19,1.69,5,2.49l-.02,7.5-1.86-2.55c-4.41-.36-6.24,3.49-2.36,6.2,3.33,2.33,7.88-.94,10.45,3.22-2.94,2.82-4.57,6.57,1.28,5.63l-2.49,8.74,19.98-3.73c-1.7,6.21-5.82,5.18-11.25,4.99v3.72c2.79-.44,7.29,2.35,9.42,2.06,1.49-.21,3.6-3.81,5.9-4.84,2.77-1.23,5.48-.74,8.66-2.59,2.07-1.21,3.81-4.62,4.33-4.7,2.92-.48,6.2,3.23,8.82,3.6s5.93-2.13,8.79.56c4.02,3.78-4.68,5.31-.84,10.2,2.75,3.51,10.17.86,5.49,7-4.38.58-3.67-3.11-4.49-3.55-.76-.4-9.85,1.59-10.83,2.63-1.08,1.15,1.22,4.36-2.75,3.39.58-2.58.59-6.87,1.52-9.09,1.16-2.77,5.22-2.32,4.72-5.89-6.75-.26-18.83-7.27-19.98,3.74l11.23-3.74c1.59,8.19-6.05,5.65-10.93,8.45-3.12,1.79-2.42,5.59-7.75,4l-1.45-7.31c-4.85-.89-9.02,2.8-13.59-.14v4.98c3.51.11,9.79,1.23,12.9,2.5.89.36,1.1,5.61,5.82,5.64-2.93,1.1-4.53,4.82-6.35,6.15-4.79,3.5-9.99.25-4.94,9.4l-8.67,8.2c1.66,3.18,7.21-.05,6.22,4.36-4.01.29-6.15,2.1-6.25,6.25l4.99,1.27c.26-9.2,6.96-4.45,10.44-4.91.96-.13,1.35-2.69,2.81-3.67,4.8-3.24,12.24-7.8,18-7.65l-4.71,5.59,1.69,4.42-4.47,2.5c0,3.27,4.75,4.67.58,7.47l-8.06-4.37,4.97-4.36c-2.42-.2-8.25,1.98-9.39,3.78-.66,1.05.35,2.96-.12,3.74-1.22,2.03-4.32,3.56-4.92,6.15-.16.68,2.35,13.16,1.93,13.75-5.33-.99-7.9,5.4-9.01,6.03-.45.26-7.37,2.81-9.45,3.68s-12.37,3.01-12.77,4.74c-.48,3.68,8.34,5.09,8.74,5.62l-3.49,6.87c2.3,4.63,5.7,1.8,9.75,1.85l-.62-2.51,5.61,1.28-2.49,3.72c1.97.45,3.44-.79,4.99-1.24.32,1.41-.24,3.44,0,5,4.74.66,15.24-3.52,13.73-9.36-1.1-4.25-8.36,2.9-10.09,3.67-1.44.64-2.61.38-3.64.68ZM210.16,55.09c-2.23-.14-10.97-.88-9.99,3.1l7.48,4.38,2.51-7.49ZM328.84,55.1c-4.2-2.94-9.65,14.61,2.55,5.58l-2.55-5.58ZM386.34,56.34c-2.04-1.61-8.97,7.85-4.34,8.74l5.48-3.33-1.14-5.41ZM179.12,61.21c-.81-.53-.67-4.21-3.29-3.62-5.21,5.09.17,10.67,5.98,11.11,2.76-1.24,3.87-3.71,3.35-6.69-1.36-3.24-4.57.16-6.03-.8ZM187.68,57.59l1.87,7.46,5.63-4.36c.71-3.41-5.37-3.45-7.49-3.1ZM221.41,60.09c-1.72.66-9.48-1.79-8.71,1.84,1.26,5.96,9.58,5.31,8.71-1.84ZM266.39,60.09c-6.82-.44-8,4.3-8.74,9.98,4.32,2.26,9.7-9.07,8.74-9.98ZM378.38,71.79c-.63-.83-2.59-.94-2.99-2.44-.61-2.31,2.31-8.32-4.64-8l-1.95,4.3c10.61,5.83-5.46,6.69-2.43,15.68.84.96,6.32-2.66,8.04-2.56.42.02,1.73,4.68,6.96,2.56-.14,2.96-.77,7.81,3.73,7.5-2.48-4.49,5.38-10.99,5.01-13.09-.16-.93-2.16-2.63-3.18-.68l-1.71,2.98-2.58.79c-.55-2.7-2.63-4.89-4.25-7.03ZM404.02,69.91c16.67,6.89,12.41-12.33.04-4.63l-.04,4.63ZM388.86,86.32c9.11.18,6.68-11.71,10.75-17.4l-1.47-2.55-6.78,1.22c-.65,3.24,2.65,4.91,2.52,7.99-.19,4.39-5.76,6.05-5.02,10.73ZM350.72,67.87c-2.94.24-4.68,7.41-1.19,8.44,6.01,1.77,7.5-8.96,1.19-8.44ZM212.66,70.09c-2.05-2.13-8.74,10.08-7.49,11.23h6.25s1.24-11.23,1.24-11.23ZM336.37,71.34c.81,5.61,4.35,6.31,0,11.83.6,3.12,7.99,1.29,9.42-.55,1.91-2.44-2.28-3.7-2.92-5.91s-.18-4.46-.26-6.63l-6.24,1.26ZM240.9,71.44l-6.98,8.03c-1.3,5.85,16.52,3.36,10.64-6.92l-3.66-1.11ZM308.87,76.3c3.3-4.79-16.05-8.69-5.61,3.75l5.61-3.75ZM443.83,85.07l-4.36-13.73c-4.47,1.9,2.08,16.33,4.36,13.73ZM257.65,86.32c-1.28-2.59.61-14.79-4.35-13.73-3.76.8-2.16,15.59,4.35,13.73ZM202.67,87.57c2.04-2.92-6.66-13.12-7.48-12.49l-1.98,6.28c3.77,1.55,5.08,7.04,9.46,6.2ZM297.6,81.27l-.55-3.73c-2.75-3.99-12.81,4.06-11.76,7.9l2.98,3.36c2.66-3.54,4.37-7.04,9.33-7.53ZM276.38,77.58c-2.87-.57-9.78,3.27-7.42,6.16l8.67,2.58-1.26-8.74ZM408.82,80.08h-3.71s-2.52,8.73-2.52,8.73l6.97-1.18-.75-7.56ZM523.61,116.14c.15-.3-1.33-4.42-1.17-6.69.24-3.29,1.88-6.81,1.4-9.94-1.07-6.84-27.74-17.75-35.08-16.35-6.11,12.84-2.76.28-9.2.66-2.77.16-7.59,3.45-10.5,4.6-2.42.96-5.7.54-8.11,1.88-2.13,1.19-4.11,5.45-7.11,6.67,8.2,11.71-2.38,2.91-3.74,4.35-1.32,3.59,1.98,10.29,1.12,12.9-.81,2.46-5.42,1.83-6.15,8.95-1.01,9.82,8.34.29,12.72-1.02,6.73-2,6.85-.39,12.06,1.31,1.62.53,4.06-.02,5.01.56,1.36.84,1.21,8.6,8.97,6.04-1.14,9.85-2.88,20.98-1.25,30.58l-2.52,1.3-1.83-3.11c-1.55,1.92-6.53,2.19-7.58,3.66-3.12,4.38,1.43,3.41,3.05,4.5,2.09,1.4,2.98,3.3,5.65,4.39,12.09,4.92,13.75-6.68,22.46-6.32,1.22.05,2.87,6.15,5.75,4.97l-1.24-4.98c10.26-1.11,5.36,7,9.39,12.47,4.04.29.8-8.91,1.86-9.98,6.96-2.52,4.52,11.95,3.5,15.37-.58,1.93-3.27,2.65-3.42,5.15-.43,7.37,1.62,8.5-.74,18.2s5.32,1.69,6.61-5.9c1.02-6.03,4.13-23.43,4.09-28.49-.03-3.11-2.34-5.78-2.62-9.9-.51-7.39,2.23-19.03,1.44-26.33-.3-2.78-2.64-4.78-2.62-6.21.04-2.33,5.16-5.69-1.23-9.36l-4.97,21.97c-5.89.02-9.65,1.19-15.02-1.99l-1.89,4.98c-3.69-2.47-3.37-5.91-3.14-9.97l-4.38,7.49c-5.54,1.26-1.61-11.82,3.22-15.54,8.01-6.18,13.17-2.7,20-4.99.53-.18,7-5.47,7.21-5.89ZM182.69,91.32c1.95-.14,10.66-.93,9.98-4.35-.82-4.1-12.14-1.69-9.98,4.35ZM358.86,85.08c-5.47,1.41-16.2-1.69-8.72,6.94,2.62,1.91,10.32-5.47,8.72-6.94ZM371.72,87.95c-.65.61-5.69,8.01-6.37,9.24-.72,1.3-2.29,3.66.4,4.12,1.32.23,9.23-9.58,11.79-10.75-.6-3.26-3.18-5.08-5.82-2.61ZM225.16,90.08c-2.64-1.28-5.82,2.04-6.87,2.04s-5.84-4.86-5.61-.19c4.13,5.5,12.52,6.77,12.48-1.85ZM283.73,122.39c.61-3.4,4.25-6.94,3.92-10.37-.69-7.21-15.01-9.87-1.28-20.07-2.21-2.83-3.96-2.63-6.06.17-3.89,5.2-6.79,11.21-12.66,14.84l-7.49-3.13c.5,4.1-1.07,10.09.63,13.72.66,1.41,3,2.29,3.7,3.8.75,1.62.99,10.79,5.65,7.46,3.17-2.27-6.23-11.87-3.73-16.23l8.08,2.5,1.91-3.08c-7.88-15.83,5.46-4.49,6.88,1.68.81,3.51-3.16,5.65-3.13,8.88l3.58-.16ZM211.39,110.04l.73-9.95-11.3-7.51-1.9,6.24c2.87-.72,10.39,2.06,9.82,5.37l-2.31,5.88h4.96ZM322.62,95.08l-14.96,3.11,2.47,3.83c2.57,1.51,15.89-3.47,12.49-6.94ZM332.52,98.9c-15.33,2.05-.57,6.81-.09,7.6.3.49,1.36,10.87,1.23,11.43-.68,3.08-5.5,5.3-8.54,4.64l6.87,8.71c2.02,0,4.27-11.93,4.46-14.36.06-.82-.17-10.37-.3-10.9-.5-2-3.66-4.3-3.63-7.13ZM186.43,100.08c-.33-.27-7.02,2.1-8.13,2.49-1.88.65-3.17-.2-1.85,3.11,2.09,5.24,9.81-1.8,9.98-5.6ZM299.82,108.5c3.02-3,1.1-8.63-3.4-8.42-1.15,4.35-5.25,4.95-2.48,9.95.81.59,4.94-.61,5.88-1.53ZM428.85,110.06l8.72-6.87-3.1-3.1c-1.09,1.61-7.28,8.07-5.62,9.97ZM226.42,101.31h-8.12c-2.79,4.82,5.13,5.96,8.1,8.75l.02-8.75ZM375.11,112.56l10.03.71c5.69-15.58-8.57-12.34-10.03-.71ZM428.84,113.83c-10.44.3-1.61-9.22-8.74-10,2.89,7.16-2.74,10.98-.67,17.53l4.35-.74-1.18-5.55,4.37,2.47,1.88-3.71ZM416.34,105.07c-8-.44-6.47,7.29-1.87,11.22,3.32-2.75,1.49-7.54,1.87-11.22ZM173.93,131.93c1.02-3.58,0-17.46,0-22.49,0-.67-2.73-2.58-3.74-1.87-3.86,9.72,2.57,18.84-2.53,28.09,1.24,2.33,6.15-3.35,6.26-3.73ZM306.37,118.81l5-11.24c-2.81,2.21-5.06,3.02-8.74,2.5-.21,3.2.42,7.28,3.74,8.74ZM346,109.02c-4.12,1.19-8.95,9.3-2.5,10.91,5.86,1.47,12.42-13.78,2.5-10.91ZM227.66,118.81c2.6-2.61-8.4-11.29-11.23-7.46-.47.64,1.06,5.96,1.33,6.13.18.12,1.82-1.03,2.76-.72,2.32.74,4.05,2.91,7.14,2.05ZM365.11,110.07c-6.29-.24-8.46,5.12-3.12,8.72,2.6-2.2,3.42-5.39,3.12-8.72ZM31.49,122.55c3.64.38,6.47-1.76,8.72-4.37-5.56-5.35-9.86-3.76-8.72,4.37ZM300.41,127.32c-1.18-1.97,1.59-16.93-6.56-9.17-9.12,8.68,3.4,15.07,1.26,18.11-3.58.48-6.3,2.28-7.25,5.88l3.55,7.91c2.92.63,2-.4,2.78-1.61,3.6-5.56,5.65-13.47,9.67-19.03-.11-1.01-3.04-1.41-3.45-2.1ZM356.26,117.69c-3.47-2.91-8.84,2.96-7.14,5.9,4.67,5.45,7.02,2.34,13.48,3.96,1.32-4.17-5.27-2.84-6.11-3.87l-.24-6ZM381.36,118.81c-1.9-2.45-9.78,3.54-10.69,5.01-1.34,2.18,1,4.5.52,6.62-.62,2.73-8.92,5.95-2.93,10.85,3.25.71,6.58-9.78,7.84-12.13,1.11-2.06,7.14-7.94,5.26-10.36ZM535.06,166.29c10.36-.45,5.28-8.65,6.33-15.54.44-2.9,2.52-5.28,3.1-8.13,1.56-7.73,3.65-16.97-1.33-23.79-6.32,1.4-.64,7.68-.6,9.37.03,1.34-3.35,5.62-4.15,8.34-3.05,10.33-1.87,19.36-3.34,29.76ZM415.96,122.94c-3.94-4.61-11.53-3.65-10.86,3.36l6.09,1.43,2.01,4.82c2.92-2.49,5.82-6.02,2.75-9.61ZM241.31,135.22c-7.87-1.76-3.24-6.63-3.85-9.43-.95-4.37-7.01-3.82-6.94,3.9.04,5,10.24,17.05,10.79,5.52ZM258.8,131.16c1.25-1.78-3.36-7.19-5.79-7.16-5.82-1.62-4,7.61-1.67,9.27,1.63,1.16,6.93-1.36,7.46-2.11ZM312.65,128.77l4.37,2.25c12.56-10.72-8.01-7.09-4.37-2.25ZM200.18,138.8c7.69-1.22,14.86-9.61,4.36-13.71l-4.36,13.71ZM226.41,125.07c-1.44-1.48-14.49,3.43-11.23,8.73,4.06,2.25,14.7-5.17,11.23-8.73ZM186.43,143.79l-3.12-16.23c-6.66,3.58-4.89,15.96,3.12,16.23ZM466.32,131.3c-3.11-10.28-20.24,2.77-17.48,6.26,5.85-2.72,10.61-8.47,17.48-6.26ZM455.08,194.41c1.06-6.87-.77-15.96,0-23.12l4.35,2.51c2.18-1.28,2.36-4.94,3.79-6.28,1.57-1.48,4.17-1.07,4.37-1.25.58-.54-4.94-14.06,2.49-13.72v5.61s2.48.62,2.48.62c5.93-9.92,1.19-13.57-4.36-21.23l-2.7,5.04c-5.56,1.36-8.33-2.3-10.97-2.43-1.85-.09-4.01,1.51-6.17,1.22-1.18-.16-.07-4.03-3.27-2.59l-.12,4.88c-4.89.03-5.66,2.15-8.62,5.12-3.01-5.79,1.67-5.74,3.09-8.76,1.31-2.8,1.49-8.84-1.24-11.22-.52,5.05-1.65,9.7-5.01,13.73-3.19,1.77-1.24-5.56-1.91-6.19-.35-.33-3.32.3-4.91-.67-2.23-1.36-1.81-6.95-7.89-3.17-8.8,5.47,3.96,25.47,1.28,28.54-.36.41-1.5.25-2.14.26l-.03,2.48c9.91-2.15,9.22,14.25,17.63,10.53,1.4-2.12.07-8.57,4.86-8.02-.96,7.32,2.17,13.81,5.76,19.85,1.05,1.76,3.72,3.24,4.11,4.75.84,3.2-2.65,3.95-3.38,6.26-2.37,7.54,3.57,11.17,5.99,17.35,1.27,1.62,7.77,1.28,10.91,2.75,2.53,1.19,14.11,11.55,16.59,9,.33-.33-.82-2.89.81-3.8,2.77-1.56,11.52-1.25,16.01-2.5,1.21-.34,8.84-3.58,9.15-3.96.66-.8.39-3.84,1.24-5.61,6.75-14.1,12.53-16.07,1.98-31.3-2.21-3.19-7.56-4.23-6.71-10.3-1.93-.47-1.64-.08-2.59.83-4.83,4.64-6.66,8.44-14.28,9.12-1.08.1-8.91-.63-9.7-1.1-2.48-1.48-5.74-12-8.39-10.09-.03,8.28-8.35,9.51-8.71,16.18,3.89.85,6.37,3.37,10.54,3.84,4.73.53,9.45-1.56,12.49-1.26,1.65.17,2.91,1.97,3.81,2.05,1.7.14,3.58-2.79,5.2-3.08,1.76-.31,3.8,2.05,6.08,2.23,3.69.3,8.38-2.99,12.43-2.48,3.12,9.02-11.26,8.12-11.86,8.76-.49.51.98,3.7-.76,5.14-2.35,1.93-8.17,1.61-10.47,4.24,2.09,2.05,8.56-1.78,7.49,3.11-4.95-2.36-10.02,3.26-12.09,3.58-1.7.26-3.99-3.32-6.62-2.3-7.81,20.2-13.78-11.27-15.66-11.24-6.8,4.73-4.1,8.62-1.89,14.97l-6.05-2.67-1.42-10.42c.34-2.07,4.32.51,4.98-3.77ZM326.36,130.06c-6.14,1.04-8.22,5.27-7.48,11.24l2.5-3.75h6.23s-1.25-7.49-1.25-7.49ZM355.13,131.31c-.84,3.26-3.16,7.93,1.84,8.74,3.26-3.63,5.08-9.48-1.84-8.74ZM308.26,133.83c-1.34.91-8.03,7.57-3.73,8.7,7.78,2.05,6.22-8.82,3.73-8.7ZM275.15,141.29c2.56,1.96,10.82.67,9.99-3.09-.79-3.58-10.23-1.21-9.99,3.09ZM410.09,148.81c-.36-3.68,1.44-8.48-1.87-11.23-1.72,0-3.58,8.36-1.98,10.45l3.85.78ZM76.3,140.23c-21.27-6.44-18.76,8.56-13.64,23.05l14.88-.92-1.24-22.13ZM338.88,146.3c1.93.02,3.6-1.3,5.55-1.23,3.03.1,4.76,4.1,6.95.59-.38-2.34-2.8-6.92-5.41-6.67-1.78.09-8.7,5.71-7.08,7.32ZM231.39,140.06c-3.44-1.29-2.32,3.06-4.46,3.7l-7.44-2.46-3.06,3.11,12.94,6.76,5.75-5.5-3.73-5.61ZM253.92,150.05c1.7-1,5.6-4.18,6.05-5.84,1.2-4.41-4.67-5.9-5.85-2.08l-.19,7.92ZM195.17,141.31c-.44-.49-7.11,3.54-7.33,3.89-.21.32,1.17,2.46.86,3.93-.65,3.13-4.18,5.85-3.51,9.67l9.26-12.59.72-4.89ZM200.18,152.54l6.27-.59c3.47-2.34-.48-6.89-3.8-6.34-2.38,1.73-2.8,4.11-2.47,6.94ZM361.07,147.85c-1.48-1.48-5.12-1.59-7.19-1.54-.72,5.8,4.06,10.05,8.73,12.49-.06-2.93.58-8.83-1.53-10.95ZM373.87,155.04c3.91,2.13,9.63-7.3,5.6-8.73s-5.22,6.43-5.6,8.73ZM283.89,147.56l-8.83.53-1.16,6.95c3.63-3.17,8.95-2.22,9.98-7.48ZM335.12,147.56c-9.51-.67-11.73,9.75-11.23,17.47l11.23-17.47ZM343.24,148.83c-2.27.02-1.48,1.48-.59,3.05,1.14,2.01,4.48,8.64,6.82,8.16,6.52-1.33-2.8-11.24-6.24-11.21ZM389.96,150.19l-4.85-1.39c-4.42,10.59,5.28,11.94,4.85,1.39ZM308.88,152.56l-6.05,3.29,3.57,9.19c4.37-2.17-.38-8.35,2.48-12.48ZM317.62,152.55c-.58-.46-6.21,4.55-4.84,6.61l2.98,3.35c3.49-2.97,3.31-6,1.86-9.97ZM403.84,153.81c-2.88-.72-2.06.55-2.86,1.57-1.47,1.87-5.82,10.43-4.6,12.11,11.57,4.3,15.23,3.32,17.46-9.3-2.88-3.91-5.37,4.02-9.99,1.86v-6.25ZM190.18,165.05c4.03.62,7.13-1.84,9.97-4.37-7.01-5.77-11.13-6.32-9.97,4.37ZM177.67,168.79c.64-4.9,6.21-10.04-2.48-10,.22,2.94-3.07,10.38,2.48,10ZM366.38,168.79c5.98-.63,6.66-6.89,1.84-9.98-5.23.92-2.68,6.57-1.84,9.98ZM166.44,172.54c5.85.89,4.23-12.46,1.87-12.46-3.48,3.06-1.38,8.45-1.87,12.46ZM342.61,170.04c1.4-4.2,2.34-7.1-1.86-9.97l-3.18,5.53c-.05,1.86,3.46,5.57,5.05,4.43ZM247.66,162.56c-11.17,2.48-14.87,15.14-4.37,21.21,3.72-3.31-1.2-7.95-.41-12.78.48-2.95,3.47-5.82,4.78-8.42ZM376.36,177.53c5.37-1.08,14.95,4.66,14.94-4.19-.01-5.83-3.95-10.83-9.93-10.8l-5,14.99ZM263.88,165.05c-4.44-2.42-6.97,7.37-4.84,8.62l6.11.12-1.27-8.74ZM556.29,165.06c-9.64-1.93-19.6,10.14-10.02,15.61l-13.74,4.98-2.47,8.13c4.83.64,2.85-6.21,5.63-7.48,4.02-1.85,3.81,5.91,8.1,4.99-1.23-5.57,5.63-5.27,6.99-7.49.32-.52.37-10.04.93-11.69.79-2.31,4.04-4.29,4.6-7.05ZM326.38,186.28c2.93,3.21,5.91-12.17,5.77-13.16-.19-1.36-5.98-6.84-7.02-5.58-1.99,4.82,3.53,9.03,3.79,11.96.29,3.21-2.8,3.9-2.54,6.78ZM316.26,178.67c3.61-2.46.38-12.39-6.11-9.87-2.68,4.64,1.05,13.32,6.11,9.87ZM365.08,170.04l-6.22,1.27,3.76,3.12-3.77,6.85,5.63,2.49c4.56-4.35,2.05-8.76.59-13.72ZM420.1,191.28c6.2,1.19,6.95-3.48,9.99-6.86,1.1-1.23,4.88-2.98,4.97-3.75.59-5.08-5.59,1.65-5.91,1.8-4.41,1.99-8.43-.64-9.05,8.82ZM173.84,181.38l-7.39-1.34-.02,6.25h7.51s-.1-4.91-.1-4.91ZM259.67,188.32c1.71-2.74,1.79-3.83-1.34-5.85-6.28-4.06-8.71,7.28-11.92,11.3,4.93-1.01,10.34-.78,13.26-5.45ZM310.13,192.54c.53-2.92,1.76-13.12-4.35-11.24-4.04,1.24-1.59,13.24,4.35,11.24ZM352.61,196.28c0-4.72.89-14.57-6.24-13.73,4.97,4.61-3.18,14.23,6.24,13.73ZM205.15,185.04h-3.71c-1.79,3.35.73,4.43,1.16,6.91.36,2.08-1.01,10.22,3.18,9.33,4.65-4.33-.77-10.94-.63-16.24ZM223.6,187.86c-1.18-1.1-8.01-3.5-9.66-2.22,2.15,1.76.52,6.93,1.41,7.98.32.38,3.19.29,4.9,1.94,4.5,4.38,3.04,15.72,1.35,21.22l3.57,1.99c-3.89-7.25,5.82-6.08,6.24-12.49l-6.21-.62c4.36-2.9.99-15.4-1.59-17.8ZM377.13,185.13c-3.96,1.29-2.79,12.74,4.29,6.85,5-4.15-.33-8.14-4.29-6.85ZM287.64,202.52l10.66-8.72c1.66-3.25.05-5.56-2.56-7.5l-8.1,16.22ZM401.36,201.27l-.54-11.31-8.28-1.91c-4.29,10.12-4.46,17.96,8.82,13.22ZM193.63,191.61c-.52-.65-2.01-.86-2.85-1.26-3.71,1.86-3.49,4.9-1.65,8.25l6.04.18c.35-.31-.84-6.28-1.54-7.16ZM493.81,193.8c-3.7-1.91-7.75.19-10.56-.05-2.24-.19-3.72-2.08-6.06-2.12-4.11-.06-7.61,3.21-10.87,5.27,2.9,3.56,6.12-.76,10.6-.74,5.15.02,12.44,3.63,16.88-2.37ZM323.59,198.56l.31-1.63c-.67-5.11-7.01-3.6-8.67.14l2.49,5.99c-9.55,4.22-2.14,7.08-2.52,11.26-.16,1.75-3.69,4.66-2.57,5.69,1.2,1.1,2.92.19,4.06-1.58.86-1.34,4.4-6.42,4.5-6.82.96-3.64-4.16-11.14,2.39-13.06ZM431.33,193.79c-4.83-.19-10.3-.23-14.64,2.2-1.42.79-2.14-.07-1.59,2.79l14.14.05,2.1-5.04ZM173.92,205.03l3.74-5.62c-4.56-4.23-8.25-5-14.02-2.79-1.86.71-3.16,3.08-4.26,3.28-1.21.22-3.9-3.16-7.14-1.18l-.81,3.82-3.73-2.5c1.17,3.37-2.08,3.82-2.49,4.64-2.19,4.41-.76,7.11,0,11.6l3.06-11.31c1.34-2.14,4.08.55,5.69-.5.89-.58.75-3.01,2.09-3.28s3.28.95,4.78.7c6.43-1.06,8.11-3.99,13.08,3.14ZM211.59,198.97c-.73,3.86-1.24,16.77,5.41,14.79,2.95-.88,3.42-15.12-1.39-15.99l-4.02,1.2ZM336.54,201.47c-10.24,11.68,4.83,14.38,4.95,4.18.04-3.31-1.56-5.24-4.95-4.18ZM404.25,206.66c-1.55,1.8-2.08,5.99.22,5.84,1.49-.1,2.62-5.22,3.73-6.24,1.95-1.79,5.21-.7,6.86-3.11-2.11-4.45-9.1,1.52-10.82,3.5ZM417.51,222.44c1.07-1.51-2.91-8.14,1.33-6.73,3.19,1.06,3.21,2.06,6.06-2.74,3.38-5.71,3.61-9-3.13-11.53l-2.86,1.85c2.89,10.19-3.05,5.75-6.28,7.3-3.48,1.67-5.03,10.71-5.04,14.43l9.91-2.58ZM271.4,220.02c1.32,1.49,7.05-4.6,7.06-6.86.02-4.02-9.06-9.64-10.82-4.39l5.01.02-1.25,11.23ZM372.16,206.46c-3.41,1.13-2.77,8.72.45,10.47,8.75,4.43,16.72-16.15-.45-10.47ZM299.22,209.12c-2.64,2.8-1.82,8.38,2.67,7.04,5.42-1.62,2.99-13.04-2.67-7.04ZM365.11,218.77c-1.94-2.76,1.19-8.97-2.01-9.9-3.81-.66-6.85,1.53-9.2,4.29l11.22,5.61ZM265.1,216.22c.47-6.35-4.85-7.42-9.8-4.79l-.14,11.08c3.24.35,3.05-2.71,5.79-4.86,1.05-.83,2.84-1.08,4.16-1.43ZM528.8,211.28c-14.53.29-11.76,20.96-27.48,18.75-.6.59,4.87,10.43,5.63,12.48,1.77,4.78.51,11.21,6.24,14.98l5.01-6.21c2.13-.97,3.95,6.75,5.59,1.84.98-2.92-3.82-1.46-3.81-4.97.02-4.14,13.72-9.74,4.43-13.09-2.76-4.1,7.43-21.54,4.39-23.78ZM426.35,218.77c.87.86,9.95-1.46,9.96-3.12-1.85-2.59-4.71-4.05-7.93-2.99-2.37.79-2.61,5.53-2.04,6.1ZM181.43,218.78c-5.46.85-10.65-.7-15.76-1.13-1.98-.17-3.83,1.18-5.84.89-1.91-.27-3.44-2.26-6.48-2.32-1.54-.03-7.37.63-6.94,3.18.95,5.51,10.05,15.05,15.86,15.36.83.04,14.09-5.68,15.3-6.72,2.5-2.15,4.35-5.96,3.85-9.27ZM286.21,217.72l-3.56-.19c.09,4.22.51,11.03,6.23,9.98l-2.67-9.8ZM337.39,217.78c-2.55.06-11.15,1.36-6.63,4.74,4.5,3.37,10.2,5.65,14.34.63-2.73-2.42-3.72-5.46-7.71-5.37ZM402.59,217.53c-1.82.82-11.73,4.81-12.2,5.28-.31.32-3.11,8.15-2.78,8.45,8.3-1.27,17.73-3.17,14.98-13.73ZM468.82,231.25c1.67-2.29-8.83-8.78-10.99-9.6-5.17-1.98-10.92-1.89-16.36-1.49-2.84,10.17.81,20.76,1.12,31.11,6.11,1.52,5.69-3.71,8.96-7.91,4.36-5.59,10.3-10.33,17.27-12.1ZM508.81,223.76l-3.11-3.39-13.14,5.89c6.09,1.35,10.45-2.4,16.24-2.5ZM278.89,228.77c.65-8.52-5.96-3.13-9.13-3.92-1.86-.46-2.82-3.74-5-3.41-4.14,2.32-7.67,4.94-7.16,10.26,4.73,2.33,3.03,10.32,8.8,2.71,1.09-1.43,1.36-4.3,2.45-5.05,2.17-1.5,7.3-.18,10.04-.58ZM311.39,251.26c1.69-3.48-.44-7.76-.03-10.52.29-1.93,2.62-3.52,2.4-4.92-.25-1.57-3.91-3.5-4.92-5.13-2.16-3.49-3.24-13.42-9.93-7.54l2.31,2.71c-1.36,6.86-7.41-.25-9.81.95l-9.58,13.12-9.18-2.4,2.51,6.94,9.25.34c2.72-.7,3.45-13.53,11.36-13.67,3.28,2.35,5.22,5.85,10.03,7.61l.59,11.27c-9.84-1.46-6.56,15.57-18.75,10.01l-.02,3.74c3.12-.39,5.15.21,7.94,1.45,2.99,1.33,12.72,7.55,12.14,10.99,7.76,2.03,4.1-11.94.52-14.91-1.85-1.54-7.58-1.26-6.84-4.38.58-2.44,6.49-5.48,9.26-4.48,1.38.39.64,6.21,4.46,5.08l2.52-6.23-6.24-.02ZM378.63,237.31c1.98-3.25-1.86-14.39-5.38-13.53-3.75,4.09-3.65,7.57-.59,11.84l-3.8,4.38,9.77-2.69ZM331.31,227.57c-2.66-2.32-9.46,7.93-8.67,8.69,2.53,2.44,6.23-6.65,9.99-3.75l-1.32-4.94ZM205.4,238.56c4.79,1.45,20.61,5.59,20.57-2.91-.02-5.71-4.38-2.91-6.39-3.16-3.37-.43-14.4-3.36-15.57.82l1.39,5.25ZM566.3,265.01c1.03,15.32,9.26,6.24,9.69-4.78.17-4.49-.27-20.81-.99-24.55-.99-5.14-6.38-6.29-6.33,0,.02,2.8,3.28,1.55,3.9,4.92.57,3.08.54,19.43-.04,22.53-.26,1.43-.55,2.48-2.02,3.08l-4.21-1.2ZM588.47,232.84c-3.46-3.68-4.53.26-4.77,4.01-.47,7.37-.47,25.75,1.94,31.92,3.16,8.09,8.23-.35,6.88-6.25-9.27,2.37-5.08-1.83-5-6.89.07-4.45-.43-9.38.06-13.67.3-2.68,4.55-5.22.89-9.12ZM486.48,236.42c-.26,8.54,10.64,7.41,11.18-.75l-3.16-3.17-8.02,3.92ZM475.07,233.76l-3.74.02,2.68,18.56,9.8,1.42c-2.07-5.06-6.2-8.17-8.15-13.71-.72-2.04-.65-4.17-.59-6.28ZM537.43,235.16c-3.05-1.5-4.25-1.08-6.06,1.89,6.33,6.59,2.45,10.4,2.32,17.33-.04,2.33,1.31,4.66,1.24,6.39-.11,2.58-.66,10.22-1.1,12.19-.33,1.46-3.07-.02-2.53,2.03,3.34.42,5.61-1.18,6.21-4.39,2.14-11.51.2-23.87-.09-35.44ZM550.05,271.25c.4.4,3.91.02,5-.61,3.59-2.07,3.47-32.24,1.34-35.09-3.45-4.61-6.66-.13-7.53,3.93s5.35-1.65,6.11,2.48c.22,1.2-1.8,11.09-1.96,13.89-.15,2.58,1.49,5.69.83,8.29-.11.43-6.67,4.23-3.8,7.11ZM171.01,239.58c-6.59,6.11-6.18,6.96-6.52,16.7-.23,6.75,4.88,2.63,6.78-.81,3.33-6.06,3.06-12.71,2.66-19.2-1.72.12-1.88,2.34-2.92,3.3ZM256.11,237.82c-2.45-1.22-5.32,1.17-7.8.96-2.25-.19-3.8-3.85-5.66-1.87.04,3.68,6.9,5.01,7.36,7.65.29,1.65-1.83,3.34-1.99,4.98-.84,8.49,9.56,19.11,10.89,6.75-11.37-1.98-.86-5.25-.15-6.49.64-1.13-.71-2.9-.51-4.13s2.16-2.49,1.89-3.69c-.06-.28-3.76-4.02-4.02-4.15ZM235.17,237.52c-.44,3.06-.27,8.77,4.35,7.48s.24-9.17-4.35-7.48ZM202.39,242.78l-7.21-1.51c1.16,6.69-4.07,12.48-1.17,18.67,5.16,1.34,3.21-2.2,5.26-4.59.84-.98,3.24-1.22,4.04-2.81,1.06-2.12.79-8.54-.92-9.77ZM188.48,252.06c10.48-11.94-11.67-10.91-9.54,4.19,1.67,1.65,8.12-2.58,9.54-4.19ZM294.99,254.87c.31-.19,2.59-6,2.65-6.83.5-7.04-6.55-3.29-7.21.25-.51,2.72.98,8.8,4.56,6.58ZM568.78,261.27c-.16-3.2,1.28-6.13,1.3-9.32,0-1.19-.64-6.84-2.53-6.92-.83,4.69-1.91,9.56-1.26,14.39.23,1.7.84,3.88,2.49,1.85ZM447.76,274.83c2.6,1.35,11.02,3.05,12.21-.61,1.39-4.26-3.35-6.84-3.63-9.87s4.7-17.2.59-18.07c-3.21-.68-5.16,8-5.94,10.28-1.21,3.56-4.92,15.56-3.24,18.27ZM495.07,280l8.82-.65,7.28-10.23-9.23-21.58c-3.08,1.9-6.32,3.21-5.62,7.47,4.01-2.28,3.28,2.56,5.51,5.1,3.25,3.7,7.37,2.39,5.74,10.52-.82,4.1-9.58,9-8.78.61l-3.52,1.48-.2,7.27ZM242.66,248.76l-12.52.61-3.72,10.64,7.46-1.2c-.81,7.11,5.2,3.46,8,4.03,2.19.45,2.87,4.09,5.77,3.42,0-6.72-6.85-10.21-4.98-17.5ZM285.14,253.77c-7.15-.51-11.47,2.92-12.49,9.98,6.46,3.34,11.43-4.28,12.49-9.98ZM465.08,276.25c3.16,3.29,9.65-9.8,10.7-11.15.64-.82,8-4.87,2.39-6.33-4.44-1.15-14.83,15.67-13.09,17.49ZM488.81,260.02c-2.12-2.3-16.16,16.12-13.73,18.73l4.64-1.6,9.09-17.13ZM170.18,272.51c7.48,1.55,8.24-6.61,4.35-11.26-20.12,10.08-9.01,18.45,8.44,19.15,1.87.08,2.88,1.87,4.7-1.04,1.1-5.56-13.05-4.03-15.64-4.35-2.28-.28-2.01.4-1.86-2.5ZM275.49,272.14c-1.29-1.1-1.72-4.92-4.45-4.44-3.62,4.04-11.15,1.18-14.99,3.53-1.58.96-1.3,5.3-4.12,6.25-1.76.34-6.52-7.28-10.51.01,11.29,5.32,22.37.09,34.33,1.23,2.35-.42,4.75-2.3,4.4-4.95-1.63-.23-3.35-.51-4.65-1.63ZM314.51,278.75c-5.05-1.29-22.09,0-28.74,0-.21,0-1.97,1.68-1.87,2.49,5.69-1.19,13.13,1.21,18.15,1.07,4.04-.12,8.91-3.21,14.33-1.07.04-.79-1.45-2.38-1.87-2.49ZM438.83,293.75c1.14-3.17,2.15-5.18,3.75-8.09-4.69-8.17-20.27,11.45-19.93,13.56,6.73,8.52,8.99-.53,12.84-3.84,1.1-.94,2.63-1.06,3.34-1.63-.49,1.37-2.82,8.41-2.49,8.74l6.89-2.5c1.45,5.45,7.53,1.11,11.01,1.64,1.65.25,2.64,2.19,6.36,2.19,5.67,0,10.59-2.43,14.45-6.32l1.84,7.3c3.93-3.79,29.35,1.68,29.38-2.92-1.44-.78-3.38-4.76-2.47-5.62,2.28-2.14,4.24,2.41,4.54,2.48,6.7,1.59,3.32-4.14,6.11-7.45,1.5-1.78,6.17-1.74,6.84-5.02-5.38,1.15-13.05-2.84-17.96-1.1-2.11.75-2.03,4.29-3.84,6.15-2.23,2.29-9.27,5.07-12.54,6.2-2.08-1.16,2.71-5.07,3.21-5.48,1.89-1.54,6.1-2.18,6.15-5.15l-9.44-1.38-11.17,9.5.61-5-6.16-.17-.19-3.41-16.17-.84c-2.01,1.48-.45,1.99.3,3.51,1.83,3.68,4.92,6.35,7.23,9.63-3.17.57-2.65,0-4.14-1.53-2.42-2.49-8.57-13.72-12.21-10.16-.83.81-1.4,3.73-2.81,5.08-.99.96-2.61,1.03-3.34,1.62ZM30.88,295.52c-1.39-.05-5.54,1.44-5.61,2.59,6.28,11.93,15.3-2.26,5.61-2.59Z"/>
  <path d="M95.22,58.83c5.99-.18,4.4-10.86,9.63-12.32,6.69-1.87,12.39,7.73,12.87,13.57l4.96-10.3c16.61-13.37,18.1,19.51,17.56,29.73-1.09,20.69-11.4,34.07-23.16,9.35-7.83,17.6-15.65,11.43-22.5-2.52.14,8.45-5.84,17.59-14.47,10.72-8.03-6.4-7.41-36.74-3.04-45.72,6.3-12.94,18.63-3.89,18.14,7.51ZM88.69,84.07c-.42-.7-3.18-1-3.48-2.13-.45-1.65,4.52-4.91,4.99-8.85.58-4.82-2.19-13.82-1.83-19.28-5.39-4.37-6.45,3.91-6.88,8.17-.52,5.12-.54,27.26,4.4,29.3.57.23,3.09.51,3.09-.59-.28-1.96.67-5.03-.28-6.62ZM107.2,52.67c-6.92,2.08-5.77,34.74,1.13,39.88,7.89-6.66,4.59-14.99,4.28-23.07-.12-3.17,2.38-19.15-5.41-16.81ZM133.95,89.45c1.38-4.89,0-25.57,0-32.49,0-1.76-5.64-5.27-8.62-1.13-3.65,5.06-.98,8.12-1.28,12.37-.46,6.71-2.82,11.53-.07,18.72,1.92,5.01,8.5,7.76,9.97,2.53Z"/>
  <path d="M133.95,253.76c-1.08-.11-9.52-1.57-9.97-1.8-2.1-1.08-2.19-4.45-3.17-4.46l-5.14,4.93c-4.24,1.3-5.24-4.93-6.11-4.93l-5.15,4.96c-2.46.72-4.14-2.45-6.09-2.45s-3.71,3.2-6.16,2.49c-2.76-.8-6.86-14.13-1.3-16.23l6.21,4.98,5.25-4.86c2.31-.88,3.93,2.46,5.78,2.21,1.55-.22,3.64-3.64,6.5-3.56,2.6.08,3.68,3.36,5.13,3.61,1.13.2,3.16-1.84,4.95-2.26,4.16-.98,6.49-.19,9.65-.53,1.39-.15,2.58-2.51,4.98-1.98,5.66,1.25,7.64,28.29-6.62,11.14-.08,3.03,1.57,5.61,1.24,8.75,2.78.28,5.78-1.44,8.63.12l.06,11.08c-5.36-1.62-10.06,5.42-13.35,6.06-3.59.7-6.04-.38-12.53,1.22-4.46,1.1-7.24-4.23-6.39-7.59.35-1.39,10.18-12.37,12.32-10.88l1.31,5.41c-.08.86-18.59,12.53-5.74,9.52,4.14-.97,15.27-10.97,15.69-14.93Z"/>
  <path d="M153.93,272.51l-.73,3.86c-3.75-1.14-6.86,4.64-7.32,4.69-.81.1-3.87-2.1-6.29-2.12-2.58-.02-5.34,1.88-7.74,1.93-5.35.11-11.97-6.07-16.64,2.86,3.81,1.3,9.14.39,11.11,4.62,1.45,5.81-13.02,7.7-17.01,7.53-2.52-.11-5-3.12-8.56-3.3-4.28-.22-9.68,3.11-14.19,1.07-1.39-9.34,3.15-7.21,8.6-9.33,1.23-.48,2.19-2.73,3.34-3,1.96-.47,5.45,7.27,11.7,1.78,2.59-2.27-4.28-4.63-2.49-8.09,4.03-2.5,6.4,1.05,9.34,1.14,2.47.07,5.56-2.36,8.81-2.46,5.56-.17,15.5,1.8,21.16,1.31,2.22-.19,4.05-3.29,6.91-2.48Z"/>
  <path d="M137.72,108.81h2.45s3.37-4.88,3.37-4.88l5.39,3.02-6.24,1.88c-1.23,1.71,10.99,14.72,4.4,21.25-3.24,3.21-10.67.72-7.38-3.8l4.24.03c.15-4.28.06-9.2-3.14-12.49-3.83,5.1-.46,19.21-9.44,16.95l-3.05-5.68c-.84,0-3.2,5.14-5.63,3.17-4.28-2.74-.99-5.94-1.45-9.75-.35-2.89-6.66-11.56-2.18-14.57,3.43-2.31,6.99,3.69,9.23,3.66,2.58-.04,7.89-6.85,9.42,1.21ZM135.19,125.05c1.21-5.01,1.89-10.66-1.86-14.96l-3.16,2.09c-.52,6.62-2.62,10.21,5.02,12.87Z"/>
  <path d="M597.53,180.07v1.2c8.56,2.2,2.83,12.29,5,18.76l-6.24.62c2.09,2.67,6.67,4.81,6.3,8.69-.25,2.6-5.96,7.42-8.16,6.94-3.28-.7-.67-5.36-.93-6.74-.29-1.56-2.91-2.49-3.2-4.02-.79-4.12,1.91-11.98,2.1-14.79.17-2.53-1.51-9.94-1.19-12.35.21-1.59,4.81-1.29,3.82-4.58-2.91.16-6.6.15-6.24-3.74,3.64-.79,8.54-2.88,11.92-.02,2.43,2.05,1.2,10.32-3.18,10.02Z"/>
  <path d="M72.29,91.71c.59.67,1.91,2.56,1.13,3.4-5.01,3.47-12.2,3-16.91-.66.77-2.27,4.25-4.68,4.73-6.53.82-3.11.11-15.46.24-19.71.06-2.1,1.22-4.11,1.27-6.23-3-2.65-3.13,3.3-5.64,4.33-8.67.26,12.01-31.7,11.95-14.41-.04,10.76-5.91,28.08.1,37.43.83,1.29,2.42,1.55,3.15,2.38Z"/>
  <path d="M573.54,56.6c.93,1.44-.62,4.85,2.28,5.83,4.12,1.39,18.66-.09,21.16,3.87,1.7,2.69-1.33,4.45-1.91,6.97-1,4.35,2.34,8.28-5.7,8.13-6.3-.12-2.63-3.08-3.31-5.41-.52-1.8-2.76-2.5-3.29-4.31-.61-2.08,2.46-4.83-2.71-6.09-3.27-.8-10.64,4.48-15.01,3.24l3.73-1.27-1.18-5.65c-3.77.26-7.84-2.71-10.79-3.06-4.88-.57-10.25,3.65-14.25-.64,4.03.33,10.56-4.14,13.2-4.38,2.83-.26,4.4,1.96,6.31,2.16,2.25.24,9.53-2.38,11.47.61Z"/>
  <path d="M72.72,104.44c6.52-5.02,3.65,2.17,3.68,4.92.06,5.44-.33,10.85,1.03,16.17l-2.23,2.69c-5.08,1.34-10.65-3.68-14.9-3.86-2.25-.09-2.66,2.49-5.07,1.93-.78-.86.26-21.97,1.15-23.15,1.25-1.67,2.78-2.82,4.51-.62,1.95,3.02-1.77,9.76,3.07,8.78,1.01-3.77,1.05-9.94,6.26-9.99,1.51,7.07-3.04,15.86-.31,22.19.77,1.79.31,1.87,2.82,1.55v-20.62Z"/>
  <path d="M95.21,105.69c2.31-10.89,17.79-3.79,10.32,6.59-4.64,6.45-8.69,5.24-5.33,16.52h-4.99c.97-6.73-1.32-16.89,0-23.11Z"/>
  <path d="M599.67,151.65c.8.83,2.14,4.02,1.61,4.64l-6.24,1.88c1.29,1.69,6.82,3.57,6.24,6.23-.84,3.83-9.28-1.41-12.5.04-3.89-2.37,4.23-5.76,2.51-9.39h-6.25s.55-5.08.55-5.08c1.99-2.88,11.9-.6,14.09,1.68Z"/>
  <path d="M112.95,112.36c.49.82,4.23.87,3.5,3.31l-4.98,6.89c1.43,1.84,6.96-1.79,6.26,1.9-.92,4.89-8.83,8.73-10.01,2.49-.71-3.76.93-24.42,4.5-25.49,1.62-.48,3.94.41,4.23,1.76.43,2.06-5.89,5.16-3.5,9.15Z"/>
  <path d="M92.55,276.42l.17,3.58c-4.55.22-8.47-1.49-13.13-1.32-6.5.23-11.41,5.05-16.93-.61,1.35-8.89,6.35-3.41,9.36-3.19s8.83-2.62,12.31-2.12c2.39.34,5.41,3.32,8.22,3.66Z"/>
  <path d="M598.78,131.28l-3.75,2.51,6.22,4.39c-4.59,5.42-9.15,4.53-14.97,1.86,4.37-6.14-2.17-7.04-1.24-13.72,1.76-.33,15.31,2.63,13.74,4.97Z"/>
  <path d="M78.51,233.85c7.73-1.61,8.64,17.48,4.82,18.65-5.59,1.71-12.13-15.32-4.82-18.65Z"/>
  <path d="M615.01,198.79l-1.25,4.98,3.84.69-.09,23.05c-2.8.64-2.02-.36-2.87-1.55-2.8-3.94-4.98-19.2-3.31-23.98.71-2.03.91-3.66,3.68-3.2Z"/>
  <path d="M80.22,106.94c.43-1.64,4.58-4.33,5-1.23s-2.55,12.05-1.28,17.23c.39,1.58,3.83,1.06,3.86,3.98.05,4.63-7.58,5.52-7.58,2.52,0-5.26-1.04-18.56,0-22.49Z"/>
  <path d="M597.52,88.82l-6.23-1.24,6.24,5.63c-1.02,6.67-11.7,5.1-10.91-1.05.35-2.71,3.52-6.3,3.43-9.59,1.25-.92,8.52,3.33,7.47,6.24Z"/>
  <path d="M585.02,166.3c-1.99,8.68,6.23,15.72-.61,24.96-4.39-.12-4.97-22.45.61-24.96Z"/>
  <path d="M583.79,55.09c2.66-.39,15.93-.59,14.98,4.35-.47,2.44-9.5.72-11.59,1.72-2.59-1.09-3.81-3.22-3.4-6.07Z"/>
  <path d="M578.78,177.55c-.11,9.04-7.88,6.26-13.73,3.72,3.95-5.76,7.08-6.08,13.73-3.72Z"/>
  <path d="M581.28,72.57l1.11,12.35c-.46.73-15.94,4.02-16.09.16,6.23-.71,15.66-.37,13.79-9.21-.27-1.28-3.75.06-2.53-3.29l3.74-.02Z"/>
  <polygon points="560.03 190.05 557.55 193.15 561.28 196.27 552.48 198.24 551.47 192.69 560.03 190.05"/>
  <path d="M133.48,285.08c1.79-.29,4.26,2.55,4.26,4.3l-4.41,5.6c-4.2-1.78-3.9-9.22.16-9.89Z"/>
  <path d="M575.03,168.8c.51,2.63-4.03,4.84-5.86,6-2.64,1.69-5.87,4.13-9.12,3.98l6.35-6.76,8.63-3.22Z"/>
  <path d="M562.54,146.29l9.36-7.49c1.21-2.32,4.11-.71,4.37.65.6,3.07-11.16,7.76-13.73,6.84Z"/>
  <path d="M551.05,86.06c-1.84,1.08-5.83.38-7.24-1.61l5.71-1.83-.71-5.03,6.22,3.12c-1.83.68-3.34,4.98-3.98,5.35Z"/>
  <path d="M552.55,87.59c2.9.23,4.73-.7,5.08-3.69,7.56,1.1.99,5.73-1.98,8.67-2.91-.09-3.49-2.49-3.1-4.97Z"/>
  <path d="M603.77,237.52c-.04,2,.82,11.16-1.87,11.21-5.34.11-2.17-5.91-.95-8.48.82-1.73-.78-3.42,2.82-2.73Z"/>
  <path d="M555.04,71.32c-.7.79-4.83-2.85-5.8-3.51-1.25-.85-3.36-1.21-2.94-3.34,1.42-7.08,10.61,4.75,8.73,6.85Z"/>
  <path d="M492.56,147.56c.18,2.15-.4,4.55.03,6.64.16.78,1.47.84,1.51.95,4.07,10.34-7.19,2.08-4.19-5.81.66-1.73-.44-2.21,2.65-1.78Z"/>
  <path d="M426.91,141.98c3.53,3.73,3.61,10.28,10.69,9.33l-5.01,16.24c-2.95.62-2.01-.44-2.79-1.62-2.4-3.63-9.28-20.38-9.51-24.25-.11-1.76,1.23-3.02,2.97-2.92,2.1,0,2.5,1.99,3.67,3.22Z"/>
</svg>